<svg xmlns="http://www.w3.org/2000/svg" viewBox="0 0 102.79 102.79"><defs><style>.cls-1{fill:#020100;}</style></defs><title>Recurso 3MANDALA</title><g id="Capa_2" data-name="Capa 2"><g id="Capa_1-2" data-name="Capa 1"><path class="cls-1" d="M42.18,35.49C40.94,87.16,20.66,71.34,20.66,71.34L12.11,86.15S47,102.22,33.64,50.29Z"/><path class="cls-1" d="M51.42,69.78C78.34,25.65,88,49.49,88,49.49l14.8-8.55S80.63,9.59,66.23,61.23Z"/><path class="cls-1" d="M60.61,67.3c1.24-51.67,21.52-35.85,21.52-35.85l8.55-14.8S55.81.57,69.16,52.5Z"/><path class="cls-1" d="M67.33,60.57C42.57,15.19,68,18.75,68,18.75V1.66S29.8,5.17,67.33,43.47Z"/><path class="cls-1" d="M69.78,51.37C25.65,24.46,49.49,14.8,49.49,14.8L40.94,0S9.59,22.16,61.23,36.57Z"/><path class="cls-1" d="M67.3,42.18C15.63,40.94,31.45,20.66,31.45,20.66l-14.8-8.55S.57,47,52.5,33.64Z"/><path class="cls-1" d="M60.57,35.46c-45.38,24.76-41.82-.71-41.82-.71H1.66S5.17,73,43.47,35.46Z"/><path class="cls-1" d="M51.37,33C24.46,77.14,14.8,53.3,14.8,53.3L0,61.85S22.16,93.21,36.57,41.56Z"/><path class="cls-1" d="M35.46,42.23C60.22,87.6,34.75,84,34.75,84v17.09s38.24-3.51.71-41.81Z"/><path class="cls-1" d="M33,51.42C77.14,78.34,53.3,88,53.3,88l8.55,14.8S93.21,80.63,41.56,66.23Z"/><path class="cls-1" d="M35.49,60.61c51.67,1.24,35.85,21.52,35.85,21.52l14.81,8.55s16.07-34.87-35.86-21.52Z"/><path class="cls-1" d="M42.23,67.33C87.6,42.57,84,68,84,68h17.09s-3.51-38.24-41.81-.71Z"/></g></g></svg>