<svg xmlns="http://www.w3.org/2000/svg" viewBox="0 0 127.5 719.18"><title>Recurso 1ART</title><g id="Capa_2" data-name="Capa 2"><g id="Capa_1-2" data-name="Capa 1"><path d="M41.68,409l9.39-9.26c.81.72,1.47,1.51,2.24,2.21.57-.13.81-.69,1.23-1s.7-.84,1.25-1.09L58,402.07c-.15.56-.69.8-1,1.2s-.78.77-1.17,1.16l-1.18,1.16-1.19,1.17L55.55,409c0,.16,0,.25,0,.29a4,4,0,0,1-.29.29L41.7,422.91c.1.59.64.85,1,1.25s.75.77,1.16,1.18c-.67.89-1.53,1.48-2.18,2.3.12.57.67.81,1,1.22s.75.77,1.17,1.2l-2.24,2.21c.18.63.72.88,1.06,1.29s.67.69,1,1c-.09.59-.64.84-1,1.23s-.76.77-1.22,1.21c.72.82,1.49,1.5,2.18,2.28-.13.57-.69.8-1,1.21s-.84.69-1.11,1.26L43.65,444c-.18.64-.72.88-1.07,1.28s-.76.76-1.18,1.18l2.22,2.26c-.23.6-.74.86-1.1,1.26s-.68.68-1,1c.11.6.65.85,1,1.25s.75.78,1.15,1.19c-.66.89-1.52,1.48-2.18,2.29.13.57.7.8,1,1.22s.84.69,1.08,1.28l-2.16,2.14c.2.62.73.87,1.07,1.28s.67.69,1,1c-.09.59-.64.83-1,1.23s-.76.76-1.21,1.2c.72.83,1.49,1.5,2.18,2.29-.13.56-.68.81-1,1.2s-.76.77-1.19,1.19l2.2,2.23c-.17.64-.71.88-1.06,1.28s-.76.76-1.19,1.18l2.23,2.26c-.23.6-.75.86-1.1,1.26s-.68.68-1,1c.1.59.65.85,1,1.25s.75.77,1.15,1.18c-.67.89-1.52,1.48-2.16,2.27a.74.74,0,0,0,0,.21.61.61,0,0,0,.12.16l4.2,4.27s0,.12,0,.28l-2.13,2.1c.21.61.73.87,1.08,1.28s.67.69,1,1c0,.42-.31.58-.54.81-1.85,1.84-3.72,3.68-5.58,5.51l-.78.77c.72.83,1.49,1.5,2.18,2.28-.13.57-.68.81-1,1.21s-.76.76-1.19,1.19l2.2,2.23c-.17.64-.74.86-1.06,1.28s-.86.67-1.1,1.27l2.14,2.17c-.23.6-.75.86-1.1,1.26s-.68.68-1,1c.1.59.64.84,1,1.24s.74.78,1.15,1.19c-.67.89-1.52,1.48-2.18,2.29.13.57.7.8,1,1.23s.85.68,1.09,1.28l-2.17,2.13c.21.62.73.87,1.08,1.28s.67.69,1,1a57.38,57.38,0,0,1-7,7c-.75-.66-1.41-1.45-2.16-2.12a.74.74,0,0,0-.21,0,.54.54,0,0,0-.16.1c-1.42,1.4-2.84,2.81-4.27,4.2,0,0-.12,0-.27.06l-2.09-2.12c-.65.17-.88.73-1.3,1s-.68.86-1.29,1.08l-2.13-2.16c-.6.22-.87.73-1.28,1.08s-.69.67-1,1a28.29,28.29,0,0,1-4.67-4.6c.61-.81,1.46-1.4,2.1-2.19a.74.74,0,0,0,0-.21.35.35,0,0,0-.12-.15l-4.2-4.28s0-.12,0-.28l2.13-2.09c-.2-.62-.73-.88-1.07-1.29s-.68-.69-1-1c.1-.59.65-.84,1-1.23s.76-.76,1.14-1.14c-.24-.6-.74-.88-1.09-1.28s-.67-.69-1-1c.14-.6.7-.83,1-1.24s.84-.69,1.11-1.26l-4.44-4.51c.18-.64.74-.86,1.06-1.29s.87-.66,1.1-1.26l-2.13-2.17c.23-.6.74-.86,1.1-1.26s.68-.68,1-1c-.11-.59-.65-.84-1-1.25s-.75-.77-1.16-1.18c.67-.89,1.53-1.48,2.19-2.29-.13-.58-.68-.82-1-1.22s-.75-.77-1.17-1.2l2.25-2.22c-.2-.62-.73-.88-1.07-1.28s-.67-.69-1-1.05c.09-.59.64-.83,1-1.23s.76-.76,1.21-1.2c-.72-.83-1.49-1.5-2.18-2.29.13-.57.7-.79,1-1.21s.85-.68,1.12-1.26l-4.45-4.51c.18-.64.74-.86,1.07-1.28s.86-.67,1.09-1.27L6.25,472c.23-.6.75-.86,1.1-1.26s.68-.68,1-1a.81.81,0,0,0,0-.22.32.32,0,0,0-.09-.16L4.07,465s0-.13-.07-.26c.59-.78,1.44-1.37,2.1-2.18-.13-.58-.68-.82-1-1.22s-.75-.78-1.17-1.2L6.16,458c-.2-.62-.73-.88-1.07-1.28s-.67-.7-1-1.05c.1-.59.64-.84,1-1.23s.76-.76,1.21-1.21c-.71-.82-1.49-1.49-2.18-2.28.14-.57.7-.79,1-1.21S6,449,6.23,448.43l-2.12-2.16c.17-.64.74-.86,1.06-1.28s.87-.67,1.1-1.27l-2.14-2.16c.23-.6.75-.87,1.1-1.27s.68-.67,1-1c-.11-.6-.65-.85-1-1.25s-.74-.77-1.16-1.19c.69-.87,1.53-1.48,2.2-2.28-.14-.58-.71-.81-1-1.23s-.85-.69-1.09-1.28L6.31,430c0-.18,0-.27,0-.31a2.72,2.72,0,0,0-.29-.3l-4-4.12c-.06-.42.3-.58.53-.8,1.31-1.31,2.63-2.6,4-4-.72-.83-1.49-1.5-2.18-2.29.13-.57.7-.79,1-1.21s.85-.68,1.12-1.26L2,411.2c.17-.64.74-.86,1.06-1.28s.86-.67,1.09-1.27l-2.13-2.17c.23-.6.75-.86,1.1-1.26s.68-.68,1-1c-.11-.6-.65-.85-1-1.25s-.75-.77-1.16-1.19c.69-.88,1.52-1.49,2.19-2.28-.13-.58-.68-.82-1-1.23s-.75-.77-1.17-1.2l2.26-2.22c-.21-.61-.74-.87-1.08-1.28s-.67-.69-1-1.05c.1-.59.64-.83,1-1.23s.76-.76,1.14-1.13c-.25-.61-.75-.88-1.1-1.29s-.67-.68-1-1c.14-.59.7-.82,1-1.24s.84-.68,1.11-1.26l-2.12-2.15c.18-.64.74-.86,1.06-1.29s.87-.66,1.1-1.26l-2.14-2.17c.24-.6.75-.86,1.11-1.26s.67-.68,1-1a.75.75,0,0,0,0-.22.4.4,0,0,0-.09-.17l-4.2-4.27s0-.12-.07-.26c.61-.76,1.43-1.38,2.1-2.16-.13-.59-.69-.82-1-1.24s-.85-.69-1.09-1.28l2.17-2.14c-.21-.61-.73-.87-1.08-1.28s-.67-.69-1-1c.1-.59.65-.84,1-1.23s.76-.77,1.2-1.21c-.71-.83-1.49-1.49-2.17-2.29.13-.56.7-.79,1-1.21s.85-.68,1.11-1.26L.11,352.76c.18-.64.74-.86,1.07-1.28s.86-.67,1.09-1.27L.14,348c.23-.6.75-.86,1.1-1.26s.68-.68,1-1c-.11-.6-.65-.85-1-1.25s-.75-.77-1.17-1.2c.71-.85,1.52-1.49,2.2-2.26-.13-.59-.7-.82-1-1.25s-.85-.68-1.08-1.28l2.16-2.13c-.21-.61-.73-.87-1.07-1.28s-.67-.69-1-1.05c.1-.59.64-.83,1-1.23s.76-.76,1.21-1.2c-.72-.83-1.5-1.49-2.18-2.29.14-.57.7-.79,1-1.21s.85-.68,1.12-1.26L.31,324.72c.19-.64.75-.87,1.07-1.29s.87-.66,1.09-1.27L.34,320c.24-.6.75-.86,1.1-1.26s.68-.68,1-1c-.12-.59-.66-.85-1-1.25s-.75-.77-1.18-1.2c.74-.84,1.52-1.49,2.21-2.25-.13-.6-.7-.83-1-1.25s-.84-.69-1.08-1.28l2.17-2.14c-.21-.61-.74-.87-1.08-1.28s-.67-.69-1-1c.1-.59.65-.84,1-1.23s.77-.77,1.21-1.2c-.71-.84-1.5-1.5-2.18-2.3.14-.56.69-.8,1-1.2s.76-.76,1.19-1.18l-2.2-2.24c.18-.64.72-.88,1.07-1.28s.68-.68,1-1c.08-.42-.28-.58-.5-.81-.51-.55-1-1.07-1.57-1.6.24-.6.76-.87,1.11-1.27s.68-.68,1-1c-.12-.6-.66-.85-1-1.25s-.75-.77-1.18-1.21c.75-.82,1.52-1.49,2.22-2.24-.14-.6-.71-.83-1-1.26S.85,283,.61,282.43l2.17-2.13c-.21-.61-.73-.87-1.08-1.28s-.67-.69-1-1c.11-.6.65-.84,1-1.24s.76-.76,1.2-1.19c-.7-.85-1.5-1.5-2.17-2.3.13-.56.7-.79,1-1.21s.85-.68,1.11-1.26L.72,268.63c.19-.64.73-.88,1.08-1.28s.68-.68,1-1c.07-.42-.29-.58-.51-.82-.51-.54-1-1.07-1.56-1.6.24-.6.75-.86,1.1-1.26s.68-.68,1-1c-.11-.59-.65-.84-1-1.25s-.74-.77-1.18-1.21c.76-.81,1.52-1.49,2.22-2.23-.14-.61-.7-.83-1-1.26s-.85-.68-1.08-1.28L3,252.26c-.21-.62-.73-.88-1.08-1.28s-.67-.69-1-1c.1-.59.65-.83,1-1.23s.76-.76,1.2-1.19c-.7-.86-1.5-1.5-2.17-2.31.14-.56.7-.78,1-1.2s.85-.68,1.11-1.26L.92,240.58c.19-.63.73-.87,1.08-1.28s.68-.68,1-1c.08-.42-.29-.58-.51-.81-.51-.55-1-1.07-1.56-1.6.24-.6.75-.86,1.11-1.27s.68-.67,1-1c-.12-.6-.68-.83-1-1.25s-.83-.7-1.1-1.28l2.15-2.12c-.16-.65-.72-.88-1-1.3s-.85-.69-1.08-1.28l2.17-2.14c-.22-.61-.74-.87-1.08-1.28s-.67-.69-1-1c.11-.59.65-.84,1-1.23s.76-.77,1.19-1.19c-.69-.87-1.5-1.5-2.17-2.32.14-.55.71-.78,1-1.2s.85-.67,1.11-1.26l-2.12-2.15c.19-.64.73-.88,1.07-1.28s.68-.68,1-1c.07-.42-.29-.58-.51-.82-.51-.54-1.05-1.06-1.57-1.59.25-.6.76-.87,1.11-1.27s.68-.68,1-1c-.12-.6-.66-.85-1-1.25s-.75-.78-1.17-1.21l2.22-2.19c-.15-.65-.72-.88-1-1.31s-.85-.68-1.08-1.28l2.17-2.13c-.22-.61-.74-.88-1.08-1.28s-.67-.69-1-1c.11-.59.65-.83,1-1.23s.76-.76,1.18-1.18c-.66-.88-1.49-1.49-2.15-2.32.14-.56.7-.78,1-1.2s.85-.68,1.11-1.26l-2.13-2.16c.19-.63.73-.87,1.08-1.27a14,14,0,0,1,1-1c.07-.43-.29-.59-.51-.82-.51-.54-1-1.07-1.57-1.6.25-.6.76-.86,1.12-1.26s.67-.68,1-1c-.13-.6-.68-.83-1-1.25s-.84-.7-1.11-1.28l2.16-2.12c-.16-.65-.73-.88-1-1.3s-.85-.68-1.08-1.28l2.16-2.14c-.21-.61-.73-.87-1.08-1.28s-.67-.69-1-1c.11-.59.66-.84,1-1.23s.76-.76,1.17-1.17c-.66-.9-1.5-1.5-2.15-2.33.14-.57.71-.78,1-1.2s.85-.68,1.11-1.27l-2.13-2.15c.2-.63.73-.88,1.08-1.28s.68-.68,1-1c.06-.42-.3-.58-.52-.81-.51-.55-1-1.07-1.52-1.56a1.17,1.17,0,0,1,0-.3.92.92,0,0,1,.14-.14l4.27-4.21c-.12-.6-.68-.84-1-1.26s-.83-.69-1.1-1.27l2.15-2.12c-.16-.65-.72-.88-1-1.31s-.85-.68-1.08-1.28l2.17-2.13c-.22-.61-.74-.87-1.08-1.28s-.67-.69-1-1c.11-.6.66-.84,1-1.24s.77-.76,1.18-1.17c-.66-.89-1.5-1.5-2.15-2.32.13-.57.69-.8,1-1.2s.76-.76,1.19-1.19l-2.21-2.24c.19-.63.73-.87,1.08-1.27s.68-.68,1-1c.07-.42-.29-.58-.51-.82-.51-.54-1-1.07-1.64-1.67.73-.81,1.51-1.47,2.21-2.24-.12-.57-.67-.81-1-1.23s-.84-.7-1.1-1.28l2.15-2.12c-.16-.64-.73-.87-1-1.3s-.86-.68-1.08-1.28l2.16-2.14c-.22-.6-.73-.87-1.08-1.27s-.67-.69-1-1c.12-.59.66-.83,1-1.23S6,105.4,6.43,105c-.65-.9-1.5-1.5-2.12-2.3a.74.74,0,0,1,0-.21.35.35,0,0,1,.12-.15l4.26-4.21s0-.13.05-.28L6.65,95.72c.19-.63.73-.87,1.08-1.28s.68-.68,1-1c-.09-.59-.63-.84-1-1.24s-.75-.78-1.2-1.23c.73-.81,1.51-1.47,2.21-2.25-.12-.57-.66-.82-1-1.22s-.75-.77-1.18-1.2l2.23-2.2c-.16-.65-.7-.89-1-1.3S7.07,82,6.65,81.58l2.26-2.23c-.22-.61-.74-.87-1.08-1.28s-.67-.69-1-1c.12-.59.66-.84,1-1.23S8.58,75,9,74.63c-.65-.9-1.5-1.5-2.15-2.33.14-.57.71-.78,1-1.21s.86-.67,1.11-1.26L6.84,67.67c.21-.62.74-.87,1.09-1.27s.68-.68,1-1c-.08-.6-.63-.85-1-1.25S7.25,63.35,6.92,63a1.17,1.17,0,0,1,0-.3.62.62,0,0,1,.14-.14l4.27-4.21c-.12-.6-.68-.84-1-1.26s-.84-.69-1.1-1.27l2.15-2.13c-.16-.64-.7-.89-1.05-1.29s-.74-.77-1.16-1.2L11.47,49c-.22-.61-.74-.88-1.09-1.28s-.66-.69-1-1c.11-.6.66-.84,1-1.24s.76-.76,1.18-1.16c-.66-.91-1.51-1.51-2.15-2.33.13-.57.71-.79,1-1.21s.85-.68,1.1-1.26L9.4,37.3c.21-.61.74-.86,1.09-1.26s.68-.69,1-1c-.09-.59-.63-.84-1-1.24S9.81,33,9.48,32.65a1.09,1.09,0,0,1,0-.3.66.66,0,0,1,.14-.15L13.93,28c-.13-.6-.67-.84-1-1.25s-.75-.77-1.17-1.2L14,23.34c-.17-.64-.71-.89-1.05-1.3s-.75-.77-1.16-1.19L14,18.62c-.22-.6-.73-.87-1.08-1.28s-.67-.68-1-1c.12-.59.67-.84,1-1.23s.76-.76,1.17-1.17c-.65-.9-1.5-1.5-2.15-2.33.14-.56.7-.8,1-1.2s.76-.76,1.19-1.18L12,7c0-.17,0-.25,0-.31a.47.47,0,0,1,.14-.14L18.79,0c.59.09.84.64,1.23,1s.76.76,1.21,1.21C22.06,1.48,22.72.71,23.51,0c.57.13.8.7,1.21,1s.69.85,1.26,1.12L28.14,0c.64.17.88.72,1.28,1.07s.78.77,1.16,1.17.76.8,1.17,1.17.66.87,1.26,1.1l2.16-2.13c.61.23.87.74,1.27,1.1s.68.68,1,1c.6-.11.85-.65,1.25-1s.77-.75,1.11-1.08c.18,0,.26,0,.3.06C41.57,4,43,5.47,44.44,6.92a.91.91,0,0,1,0,.25.45.45,0,0,1-.12.16l-4.26,4.21s0,.12,0,.28L42.1,14c-.21.61-.74.86-1.09,1.26s-.68.68-1,1c.08.6.63.85,1,1.25s.75.77,1.12,1.15c-.25.6-.76.87-1.11,1.27s-.68.68-1,1c.12.59.68.83,1,1.25s.84.7,1.1,1.28l-2.15,2.12c.16.64.73.87,1,1.3s.86.68,1.08,1.28l-2.17,2.14c.23.6.74.87,1.09,1.27s.67.69,1,1.05c-.11.59-.66.83-1,1.23s-.77.76-1.18,1.17c.66.89,1.51,1.5,2.15,2.32-.13.57-.69.81-1,1.21s-.76.76-1.19,1.18l2.17,2.2c0,.17,0,.26,0,.3a2.72,2.72,0,0,1-.29.3l-4.13,4.07c.09.59.63.84,1,1.24s.75.77,1.19,1.22c-.72.82-1.51,1.48-2.21,2.26.13.57.69.8,1,1.22s.83.7,1.09,1.28L37.32,56c.17.65.73.88,1,1.3s.85.68,1.07,1.29l-2.16,2.13c.22.6.73.87,1.08,1.28s.67.69,1,1c-.12.59-.67.84-1,1.23s-.76.77-1.18,1.17c.67.89,1.5,1.51,2.16,2.32-.14.58-.71.79-1,1.22s-.85.67-1.1,1.26l2.13,2.17c-.21.61-.74.86-1.09,1.26s-.68.68-1,1c.08.59.63.85,1,1.25s.75.77,1.08,1.11a1,1,0,0,1-.05.3.62.62,0,0,1-.14.14l-4.27,4.21c.13.6.69.83,1,1.26s.84.69,1.1,1.27l-2.16,2.13c.17.64.73.87,1.05,1.3s.85.67,1.07,1.28L34.72,91c.22.61.74.88,1.08,1.28s.67.69,1,1c-.12.6-.66.84-1,1.24s-.76.76-1.18,1.17c.68.88,1.5,1.51,2.16,2.31-.14.58-.69.82-1,1.21s-.76.76-1.18,1.19l2.22,2.25c-.22.61-.75.86-1.1,1.26s-.68.69-1,1c.09.59.63.84,1,1.24s.75.77,1.19,1.22c-.72.82-1.51,1.47-2.21,2.26.13.57.69.8,1,1.22s.84.7,1.09,1.28l-2.15,2.12c.17.64.73.87,1,1.3s.85.68,1.07,1.28l-4.52,4.46c.23.6.74.87,1.09,1.28s.67.68,1,1c-.12.59-.66.83-1,1.23s-.76.76-1.18,1.18c.69.87,1.5,1.51,2.16,2.3-.14.58-.71.8-1,1.22s-.86.68-1.11,1.27l2.14,2.16c-.22.61-.74.87-1.09,1.27s-.68.68-1,1c.09.59.63.84,1,1.24s.75.78,1.19,1.22c-.72.82-1.51,1.48-2.2,2.26.12.57.68.8,1,1.23s.84.69,1.1,1.27L32,144.73c.17.64.73.87,1,1.29s.86.68,1.07,1.29L32,149.44c.23.6.74.87,1.08,1.28s.67.69,1,1c-.12.59-.67.84-1,1.23s-.76.76-1.19,1.19c.71.85,1.5,1.51,2.17,2.29-.14.59-.71.81-1,1.23s-.85.67-1.1,1.26L34,161.13c-.21.61-.74.86-1.09,1.26s-.68.68-1,1c.09.59.63.85,1,1.25s.75.77,1.19,1.21c-.72.83-1.52,1.48-2.21,2.27.13.56.69.8,1,1.22s.84.69,1.09,1.28l-2.15,2.12c.17.64.71.89,1.05,1.29s.75.77,1.17,1.2l-4.62,4.55c.23.6.74.87,1.09,1.27s.67.69,1,1c-.12.6-.66.84-1,1.24s-.76.76-1.19,1.19c.72.84,1.5,1.51,2.17,2.28-.14.59-.71.81-1,1.23s-.86.67-1.11,1.27l2.14,2.16c-.22.61-.75.86-1.1,1.27s-.68.68-1,1c.09.59.63.84,1,1.24s.75.77,1.18,1.22c-.72.83-1.51,1.47-2.21,2.26.13.57.69.8,1,1.22s.84.7,1.1,1.28l-2.16,2.12c.17.64.71.89,1.06,1.3s.67.69,1,1c.08.43-.29.58-.51.81-.52.54-1.06,1-1.59,1.58.23.6.74.87,1.09,1.28s.66.69,1,1c-.12.59-.67.84-1,1.23s-.77.76-1.2,1.19c.73.84,1.5,1.52,2.18,2.28-.15.59-.7.83-1,1.23s-.76.76-1.19,1.18l2.22,2.26c-.22.6-.74.86-1.09,1.26s-.68.68-1,1c.1.59.64.85,1,1.24s.75.78,1.19,1.22c-.72.83-1.52,1.47-2.21,2.27.13.56.67.81,1,1.21s.75.77,1.17,1.2L29,231.18c.17.64.71.89,1.05,1.29s.67.69,1,1c.07.42-.29.58-.52.81-.52.53-1.06,1.05-1.59,1.57.24.6.74.88,1.09,1.28s.67.69,1,1c-.13.6-.67.84-1,1.24s-.76.76-1.2,1.19c.75.83,1.5,1.51,2.19,2.27-.15.6-.72.82-1,1.24s-.86.67-1.1,1.26l2.13,2.17c-.22.61-.74.86-1.1,1.26s-.68.68-1,1c.1.6.64.85,1,1.25s.75.77,1.18,1.21c-.71.84-1.52,1.47-2.2,2.27.13.57.69.8,1,1.22s.84.69,1.09,1.28l-2.16,2.12c.18.64.72.89,1.06,1.3s.67.69,1,1c.07.42-.3.58-.52.81-.52.54-1.06,1.05-1.59,1.57.23.61.74.88,1.09,1.29s.67.68,1,1c-.13.59-.68.83-1,1.23s-.76.76-1.2,1.19l2.2,2.22c-.17.65-.73.87-1.06,1.29s-.86.67-1.1,1.27l2.14,2.16c-.23.61-.75.87-1.1,1.27s-.68.68-1,1c.1.59.64.84,1,1.24s.75.78,1.17,1.2c-.7.86-1.52,1.48-2.2,2.29.13.56.7.79,1,1.22s.85.69,1.1,1.27l-2.16,2.13c.18.63.72.88,1.06,1.29s.67.69,1,1c.06.42-.3.57-.53.8-.51.54-1.06,1.06-1.58,1.58.23.6.74.87,1.09,1.28s.67.69,1,1c-.13.6-.67.84-1,1.23s-.76.77-1.19,1.19l2.2,2.23c-.17.65-.74.87-1.06,1.29s-.86.67-1.1,1.26l2.13,2.17c-.22.6-.74.86-1.09,1.26s-.68.68-1,1c.1.59.64.85,1,1.25s.74.77,1.16,1.19c-.68.87-1.52,1.48-2.19,2.3.13.55.68.8,1,1.21s.74.77,1.17,1.2l-2.24,2.2c.18.64.71.89,1.06,1.29s.67.7,1,1c.07.42-.3.58-.52.81-.52.53-1.06,1.05-1.59,1.57.24.61.75.88,1.1,1.28s.66.69,1,1c-.13.6-.69.83-1,1.24s-.84.69-1.12,1.26L30.47,327c-.17.65-.73.87-1.06,1.29s-.86.67-1.09,1.27l2.13,2.16c-.23.61-.75.87-1.1,1.27s-.68.68-1,1c.1.6.64.85,1,1.25s.75.77,1.16,1.19c-.67.88-1.52,1.48-2.18,2.29.12.57.69.8,1,1.22s.84.69,1.09,1.28l-2.11,2.08a1.47,1.47,0,0,0,0,.31c0,.06.09.1.14.15l4.2,4.27c.06.42-.3.57-.52.81-.52.53-1.06,1-1.59,1.57.24.6.74.88,1.09,1.28s.67.69,1,1c-.13.6-.7.82-1,1.24s-.85.69-1.12,1.26l2.12,2.15c-.17.65-.74.87-1.06,1.29s-.86.67-1.1,1.27l2.14,2.16c-.23.61-.75.86-1.1,1.26s-.68.68-1,1c.1.6.64.85,1,1.25s.75.77,1.16,1.19c-.67.88-1.52,1.47-2.18,2.29.12.57.67.81,1,1.22s.75.77,1.17,1.2l-2.24,2.21c.18.63.72.88,1.06,1.29s.67.69,1,1c.06.42-.31.58-.53.81-.52.54-1.06,1.05-1.59,1.57.25.61.75.88,1.1,1.29s.67.68,1,1c-.13.59-.69.82-1,1.23s-.84.69-1.11,1.26l2.12,2.16c-.17.64-.74.86-1.06,1.28s-.87.67-1.09,1.23l6.8,6.9c.57-.2.83-.72,1.24-1.06s.69-.67,1-1c.59.11.84.66,1.23,1s.77.76,1.13,1.14a4.69,4.69,0,0,1-1.13,1.27c-.37.41-.78.78-1.17,1.17l-1,1-1.23,1.21c.62.91,1.52,1.55,2.23,2.43l-2.18,2.14c0,.17,0,.25,0,.31s.09.1.13.15ZM35.17,16.34,33,18.48a.48.48,0,0,0,0,.18c0,.07,0,.15,0,.19L35.13,21,33,23.16s0,.12,0,.18,0,.14,0,.18l2.13,2.17c-.72.71-1.45,1.42-2.16,2.14,0,0,0,.12,0,.18s0,.15,0,.19l2.14,2.17-2.18,2.15s0,.12,0,.3c.33.33.68.73,1.08,1.08s.63.88,1.17,1l2.16-2.13c0-.12,0-.2,0-.24l-2.14-2.18,2.16-2.14s0-.12,0-.19,0-.14,0-.18L35.1,25.69c.72-.71,1.45-1.42,2.16-2.14,0,0,0-.12.05-.18s0-.14,0-.18c-.71-.73-1.42-1.45-2.14-2.17l2.17-2.14s0-.12,0-.18,0-.15,0-.19l-2.13-2.17,2.17-2.15s0-.12,0-.3c-.32-.33-.68-.73-1.08-1.08s-.63-.88-1.17-1L33,13.92c0,.11,0,.2,0,.24C33.73,14.89,34.45,15.62,35.17,16.34ZM32.64,42l-2.16,2.14s0,.12,0,.18,0,.15,0,.19l2.13,2.17-2.16,2.14s0,.12-.05.18,0,.14,0,.18c.71.73,1.42,1.45,2.14,2.17l-2.17,2.14a.48.48,0,0,0,0,.18c0,.06,0,.15,0,.19l2.13,2.16-2.16,2.14s0,.12-.05.19,0,.14.05.18c.7.73,1.42,1.45,2.13,2.17l-2.18,2.15s0,.13,0,.3c.32.33.67.73,1.07,1.08s.63.89,1.18,1l2.15-2.12c0-.12,0-.21,0-.25l-2.14-2.18,2.16-2.14s0-.12,0-.18,0-.15,0-.19l-2.13-2.17,2.17-2.13a.49.49,0,0,0,0-.19c0-.06,0-.14,0-.18l-2.13-2.17,2.16-2.14s0-.12,0-.18,0-.15,0-.18c-.7-.73-1.42-1.45-2.13-2.17l2.16-2.14s0-.12,0-.18a.49.49,0,0,0,0-.19L32.64,42l2.18-2.15s0-.12,0-.3c-.33-.33-.68-.73-1.08-1.08s-.63-.88-1.17-1L30.46,39.6c0,.12,0,.21,0,.25ZM30.09,72.4l-2.17,2.13a.53.53,0,0,0,0,.19c0,.06,0,.14,0,.18l2.13,2.17-2.16,2.14s0,.12,0,.18,0,.15,0,.18c.7.73,1.42,1.45,2.13,2.17l-2.16,2.14s0,.12-.05.19a.48.48,0,0,0,0,.18c.71.72,1.42,1.45,2.14,2.17l-2.17,2.14s0,.12,0,.18,0,.14,0,.18L30,91.09l-4.71,4.64,2.32,2.36-2.16,2.13s0,.12,0,.19,0,.14,0,.18l2.13,2.17c-.72.71-1.45,1.42-2.16,2.14,0,0,0,.12-.05.18s0,.15,0,.18c.71.73,1.42,1.45,2.14,2.17l-2.17,2.14s0,.12,0,.18,0,.15,0,.19l2.13,2.17-2.16,2.14s0,.12-.05.18,0,.14.05.18c.7.73,1.42,1.45,2.13,2.17l-2.17,2.14a.48.48,0,0,0,0,.18c0,.06,0,.15,0,.19l2.13,2.17L23,125.8s-.12.09-.14.15,0,.13,0,.29l2.08,2.12c-.23.6-.77.84-1.09,1.26s-.89.65-1.06,1.28l2.12,2.16c-.26.58-.79.83-1.11,1.25s-.9.64-1,1.21c.65.82,1.49,1.43,2.15,2.32-.41.41-.82.77-1.17,1.17s-.89.64-1,1.23c.35.35.7.68,1,1s.86.68,1.09,1.28c-.53.52-1.07,1-1.59,1.57-.22.23-.58.39-.52.81l2.17,2.2-2.16,2.14s0,.12-.05.19,0,.14,0,.18c.71.73,1.43,1.45,2.14,2.17L22.67,154s0,.12,0,.18,0,.14,0,.18l2.13,2.17-2.16,2.14s0,.12,0,.18,0,.15,0,.19l2.13,2.17-2.16,2.13s0,.13-.05.19a.48.48,0,0,0,0,.18c.71.73,1.42,1.45,2.14,2.17L22.57,168s0,.12,0,.18,0,.15,0,.18l2.13,2.17-2.16,2.14s0,.12-.05.18,0,.15.05.19l2.13,2.17-2.17,2.14s0,.12,0,.18,0,.14,0,.18l2.13,2.17L22.47,182s0,.12,0,.18,0,.15,0,.19l2.13,2.17-2.16,2.13s0,.12-.05.19a.48.48,0,0,0,0,.18c.71.73,1.42,1.45,2.14,2.17L20,193.7s0,.13,0,.29l2.08,2.12c-.22.6-.76.84-1.09,1.26s-.88.65-1.06,1.28l2.2,2.24c-.42.42-.83.77-1.18,1.18s-.9.63-1.05,1.28L22,205.5c-.27.57-.78.83-1.11,1.25s-.89.64-1,1.21c.68.79,1.46,1.45,2.17,2.29-.44.43-.84.79-1.2,1.19s-.89.64-1,1.23c.35.36.7.68,1,1s.86.68,1.09,1.28c-.53.52-1.07,1-1.59,1.57-.22.23-.59.39-.52.81l2.17,2.2-2.17,2.14a.48.48,0,0,0,0,.18c0,.07,0,.15,0,.19L22,224.25l-2.16,2.13s0,.13,0,.19,0,.14,0,.18l2.13,2.17-2.16,2.14s0,.12-.05.18,0,.15,0,.18c.71.73,1.42,1.45,2.14,2.17l-2.17,2.14a.48.48,0,0,0,0,.18c0,.07,0,.15,0,.19l2.13,2.17-2.16,2.14s0,.12-.05.18,0,.14.05.18c.7.73,1.42,1.45,2.13,2.17-.72.71-1.45,1.42-2.16,2.14,0,0,0,.12-.05.18a.53.53,0,0,0,0,.19l2.13,2.17-2.16,2.13s0,.12,0,.19,0,.14,0,.18l2.13,2.17-2.16,2.14s0,.12-.05.18,0,.15.05.18c.7.73,1.42,1.45,2.13,2.17l-2.17,2.14a.48.48,0,0,0,0,.18c0,.07,0,.15,0,.19l2.13,2.17-2.16,2.14s0,.12,0,.18,0,.14,0,.18c.7.73,1.42,1.45,2.13,2.17-.72.71-1.45,1.42-2.16,2.14,0,0,0,.12-.05.18a.53.53,0,0,0,0,.19L21.64,271l-2.17,2.14s0,.12,0,.19,0,.14,0,.18l2.13,2.17-2.16,2.14s0,.12-.05.18,0,.14.05.18c.7.73,1.42,1.45,2.13,2.17l-2.17,2.14a.48.48,0,0,0,0,.18c0,.07,0,.15,0,.19L21.53,285l-2.16,2.13s0,.13,0,.19,0,.14,0,.18l2.13,2.17c-.72.71-1.45,1.42-2.16,2.14,0,0,0,.12-.05.18s0,.15,0,.18c.71.73,1.42,1.45,2.14,2.17l-2.17,2.14s0,.12,0,.19,0,.14,0,.18L21.43,299l-2.16,2.14s0,.12-.05.18,0,.14.05.18c.7.73,1.42,1.45,2.13,2.17l-2.17,2.14a.48.48,0,0,0,0,.18c0,.07,0,.15,0,.19l2.13,2.17-2.16,2.13s0,.12,0,.19,0,.14,0,.18l2.13,2.17c-.72.71-1.45,1.42-2.16,2.14,0,0,0,.12-.05.18s0,.15,0,.18c.71.73,1.42,1.45,2.14,2.17-.4.39-.81.76-1.17,1.17s-.88.65-1.1,1.26l2.14,2.17c-.25.59-.78.84-1.1,1.26s-.9.64-1,1.24c.68.76,1.44,1.44,2.18,2.27-.44.43-.84.79-1.19,1.19s-.9.64-1,1.23c.34.36.7.68,1,1s.86.68,1.09,1.29c-.52.52-1.07,1-1.58,1.57-.23.23-.59.38-.53.81l4.49,4.55-2.16,2.14s0,.12-.05.18,0,.15,0,.19l2.14,2.17-2.17,2.14s0,.12,0,.18,0,.14,0,.18l2.13,2.17-2.16,2.14s0,.12-.05.18,0,.15.05.19c.7.72,1.42,1.44,2.13,2.16l-2.16,2.14s0,.12,0,.19a.48.48,0,0,0,0,.18l2.13,2.17-4.52,4.46a1.57,1.57,0,0,0-.06.3c.33.33.73.69,1.07,1.1s.88.65,1,1.28l-2.11,2.09c0,.14,0,.22.05.26l4.45,4.53L18.73,376s0,.12-.05.18a.53.53,0,0,0,0,.19l4.46,4.52L21,383s0,.12,0,.18,0,.14,0,.18l2.13,2.17-4.26,4.2a4,4,0,0,0-.29.29c0,.05,0,.13,0,.3l2.17,2.21c-.42.42-.83.77-1.18,1.17s-.89.64-1.07,1.28l2.21,2.23c-.43.42-.84.78-1.19,1.18s-.9.64-1,1.2c.65.83,1.49,1.43,2.15,2.33-.41.41-.82.76-1.17,1.17s-.89.63-1,1.23c.34.35.7.67,1,1s.86.67,1.09,1.28c-.38.37-.79.73-1.14,1.14s-.9.63-1,1.22c.35.36.71.68,1,1s.87.66,1.07,1.28l-2.16,2.13c.23.59.76.85,1.08,1.28s.88.65,1,1.3l-2.15,2.11A32.9,32.9,0,0,0,23,422.78l4.39-4.34s0-.12.07-.3c-.33-.34-.73-.7-1.08-1.11s-.88-.65-1-1.24c.35-.35.71-.67,1-1s.87-.66,1.11-1.26c-.37-.38-.77-.75-1.12-1.16s-.89-.65-1-1.24c.35-.35.72-.67,1-1s.88-.65,1.09-1.26l-2.22-2.25c.43-.42.83-.78,1.18-1.18s.9-.64,1.07-1.28L25.46,402c.26-.58.78-.84,1.11-1.26s.89-.64,1-1.2c-.68-.8-1.46-1.46-2.17-2.3.44-.43.84-.79,1.2-1.19s.89-.64,1-1.24l-4.06-4.12a2.65,2.65,0,0,1-.29-.29c0-.05,0-.13,0-.3.48-.48,1-1,1.54-1.53.22-.23.58-.38.52-.81l-2.17-2.2c.72-.71,1.45-1.42,2.16-2.14,0,0,0-.12.05-.18a.48.48,0,0,0,0-.18l-2.13-2.17,2.17-2.15s0-.13,0-.3c-.33-.33-.72-.69-1.07-1.1s-.87-.64-1-1.27l2.23-2.2-2.3-2.33c.73-.72,1.46-1.43,2.18-2.16,0,0,0-.12,0-.3-.32-.33-.72-.69-1.07-1.09s-.87-.65-1-1.29l2.21-2.18c-.41-.42-.81-.78-1.15-1.19s-.88-.64-1-1.28l2.23-2.19-2.31-2.34,2.17-2.14s0-.12,0-.18,0-.15,0-.19l-2.13-2.17,2.16-2.13s0-.12.05-.19,0-.14-.05-.18c-.7-.73-1.42-1.45-2.13-2.17L25.58,346a.48.48,0,0,0,0-.18c0-.06,0-.15,0-.18l-2.13-2.17,2.16-2.14s0-.12,0-.18,0-.15,0-.19l-2.13-2.17c.39-.38.81-.75,1.17-1.16s.88-.65,1.09-1.26l-2.13-2.17c.24-.59.77-.84,1.1-1.26s.89-.64,1-1.24c-.69-.76-1.45-1.44-2.18-2.27.43-.43.84-.79,1.19-1.19s.89-.64,1-1.24c-.35-.35-.7-.67-1-1s-.86-.67-1.1-1.28c.53-.52,1.07-1,1.59-1.57.22-.23.59-.39.53-.81l-4.49-4.56,2.16-2.13s0-.13,0-.19,0-.14,0-.18l-2.13-2.17c.72-.71,1.45-1.42,2.16-2.14,0,0,0-.12.05-.18s0-.15,0-.18c-.71-.73-1.42-1.45-2.14-2.17l2.17-2.14s0-.12,0-.19,0-.14,0-.18L21.4,303.7l2.16-2.14s0-.12.05-.18,0-.14-.05-.18c-.7-.73-1.42-1.45-2.13-2.17l2.17-2.14a.48.48,0,0,0,0-.18c0-.07,0-.15,0-.19l-2.13-2.17,2.16-2.13s0-.12,0-.19,0-.14,0-.18l-2.13-2.17c.72-.71,1.45-1.42,2.16-2.14,0,0,0-.12.05-.18s0-.15,0-.18c-.71-.73-1.42-1.45-2.14-2.17l2.17-2.14a.48.48,0,0,0,0-.18c0-.07,0-.15,0-.19l-2.13-2.17,2.16-2.14s0-.12.05-.18,0-.14-.05-.18c-.7-.73-1.42-1.45-2.13-2.17.72-.71,1.45-1.42,2.16-2.14,0,0,0-.12,0-.18a.53.53,0,0,0,0-.19L21.64,271l2.16-2.13s0-.12,0-.19,0-.14,0-.18l-2.13-2.17,2.16-2.14s0-.12.05-.18,0-.15,0-.18c-.71-.73-1.43-1.45-2.14-2.17l2.17-2.14a.48.48,0,0,0,0-.18c0-.07,0-.15,0-.19L21.74,257l2.16-2.14s0-.12,0-.18,0-.14,0-.18c-.7-.73-1.42-1.45-2.13-2.17.72-.71,1.45-1.42,2.16-2.14,0,0,0-.12.05-.18s0-.15,0-.18c-.71-.73-1.42-1.45-2.14-2.17L24,245.48s0-.12,0-.19,0-.14,0-.18l-2.13-2.17L24,240.8s0-.12.05-.18,0-.14-.05-.18c-.7-.73-1.42-1.45-2.13-2.17L24,236.13a.48.48,0,0,0,0-.18c0-.07,0-.15,0-.19l-2.13-2.17,2.16-2.13s0-.13,0-.19,0-.14,0-.18c-.7-.73-1.42-1.45-2.13-2.17.72-.71,1.45-1.42,2.16-2.14,0,0,0-.12,0-.18s0-.15,0-.18c-.71-.73-1.42-1.45-2.14-2.17l2.17-2.14s0-.12,0-.18,0-.15,0-.19L22,219.57q2.28-2.23,4.54-4.49s0-.13,0-.29l-2.09-2.12c.23-.6.77-.84,1.09-1.26s.88-.65,1.07-1.28l-2.21-2.24c.43-.42.83-.77,1.18-1.17s.9-.64,1.06-1.29l-2.12-2.14c.27-.57.79-.84,1.12-1.26s.88-.64,1-1.2c-.69-.8-1.46-1.46-2.18-2.29.44-.44.85-.8,1.2-1.2s.89-.64,1-1.23c-.34-.35-.7-.68-1-1s-.86-.68-1.08-1.28c.52-.52,1.06-1,1.58-1.57.23-.23.59-.39.53-.81l-2.17-2.2,2.16-2.14s0-.12,0-.18,0-.15,0-.19l-2.13-2.16,2.16-2.14s0-.12,0-.19,0-.14,0-.18c-.71-.73-1.42-1.45-2.14-2.17l2.17-2.14s0-.12,0-.18,0-.14,0-.18l-2.13-2.17,2.16-2.14s0-.12.05-.18,0-.15-.05-.19l-2.13-2.17,2.16-2.13s0-.13.05-.19a.48.48,0,0,0,0-.18l-2.13-2.17,2.16-2.14s0-.12,0-.18,0-.15,0-.18l-2.13-2.17L26.93,159s0-.12.05-.19,0-.14-.05-.18l-2.13-2.17L27,154.35s0-.12,0-.18,0-.14,0-.18l-2.13-2.17L27,149.68s0-.12,0-.18,0-.15,0-.19l-2.13-2.17L29.13,143a2.72,2.72,0,0,0,.29-.3s0-.13,0-.29l-2.09-2.12c.24-.6.77-.84,1.1-1.26s.88-.65,1.06-1.28l-2.12-2.16c.26-.58.78-.83,1.11-1.26s.89-.63,1-1.2c-.65-.82-1.49-1.43-2.15-2.32.41-.41.82-.77,1.18-1.17s.89-.64,1-1.23c-.35-.36-.71-.68-1-1s-.85-.68-1.09-1.28c.53-.52,1.07-1,1.59-1.57.22-.24.59-.39.53-.81l-2.18-2.2,2.17-2.14s0-.12,0-.19,0-.14,0-.18l-2.13-2.17,2.16-2.14s0-.12.05-.18,0-.14-.05-.18c-.7-.73-1.42-1.45-2.13-2.17L29.63,110a.48.48,0,0,0,0-.18c0-.07,0-.15,0-.19l-2.13-2.17,2.16-2.13s0-.13,0-.19,0-.14,0-.18l-2.13-2.17c.72-.71,1.45-1.42,2.16-2.14,0,0,0-.12,0-.18s0-.15,0-.18c-.71-.73-1.42-1.45-2.14-2.17l4.71-4.64L30,91.09c.72-.71,1.45-1.42,2.16-2.14,0,0,0-.12,0-.18a.48.48,0,0,0,0-.18L30,86.42l2.16-2.14s0-.12,0-.18,0-.15,0-.19L30,81.74l2.16-2.13s0-.12,0-.19,0-.14,0-.18c-.71-.73-1.43-1.45-2.14-2.17l2.17-2.14a.48.48,0,0,0,0-.18c0-.06,0-.15,0-.18L30.09,72.4c.72-.72,1.45-1.43,2.17-2.16,0,0,0-.12.05-.3-.32-.33-.68-.73-1.08-1.08s-.63-.88-1.17-1L27.91,70c0,.12,0,.21,0,.24Zm-.73,423-2.17,2.14s0,.12,0,.18,0,.14,0,.18l2.13,2.17-2.16,2.14s0,.12-.05.18,0,.15.05.19l2.13,2.17-2.18,2.15s0,.13,0,.3c.33.33.72.69,1.07,1.1s.87.65,1,1.22c-.7.76-1.47,1.42-2.21,2.24l4.62,4.69-2.18,2.15s0,.13,0,.3c.32.33.67.73,1.08,1.08s.63.89,1.17,1l2.15-2.12c0-.12,0-.21,0-.25-.72-.73-1.43-1.46-2.15-2.18l2.18-2.16s0-.13,0-.3c-.33-.33-.73-.69-1.07-1.1s-.88-.64-1-1.21c.7-.77,1.47-1.43,2.21-2.24l-4.62-4.69,2.16-2.14s0-.12.05-.18,0-.15-.05-.19l-2.13-2.17c.72-.71,1.45-1.42,2.16-2.14,0,0,0-.12.05-.18a.48.48,0,0,0,0-.18l-2.13-2.17,2.17-2.15s0-.13,0-.3c-.32-.33-.68-.74-1.08-1.09s-.63-.88-1.17-1L27.17,493c0,.12,0,.21,0,.24C27.92,494,28.64,494.67,29.36,495.4ZM29.5,472c-.46-.47-.78-.84-1.14-1.15s-.65-.87-1.25-1.09c-1.32,1.3-2.64,2.59-3.94,3.89-.23.23-.58.39-.52.81.33.34.65.7,1,1s.65.87,1.22,1.07Z"/><path d="M116.11,548.06l-2.06,2.31c-.41.09-.59-.26-.84-.47-.56-.48-1.11-1-1.67-1.49-.58.27-.82.8-1.2,1.17s-.65.71-1,1.08c-.6-.08-.87-.61-1.29-.93s-.81-.71-1.16-1c-.17,0-.26,0-.3.07l-4.12,4.62c.17.59.71.82,1.09,1.18a4.28,4.28,0,0,0,1.31,1l2-2.25c.66.12.91.68,1.35,1s.73.81,1.33,1l2-2.27c.62.17.9.69,1.33,1s.72.63,1.08.95c.08.42-.27.6-.48.84-.48.57-1,1.12-1.48,1.67.27.59.79.83,1.17,1.21s.71.64,1.08,1c-.09.6-.61.88-.93,1.3s-.71.8-1.06,1.2c.3.58.81.83,1.19,1.21s.7.64,1.07,1c-.11.61-.65.87-1,1.31s-.8.73-1,1.32l2.25,2c-.13.65-.68.91-1,1.35s-.82.72-1,1.33l2.27,2c-.18.62-.68.91-1,1.33s-.73.83-1.09,1.24l-2.3-2.05s-.13,0-.3,0c-.31.35-.65.77-1,1.14s-.59.92-1.18,1.06c-.36-.33-.7-.67-1.08-1a4.67,4.67,0,0,0-1.33-1c-.35.4-.73.78-1.06,1.2s-.84.69-.92,1.23l4.72,4.21c.12,0,.2,0,.24-.06l4.24-4.73,2.32,2.07c-.06.6-.59.87-.91,1.29s-.71.81-1.06,1.21c.27.59.79.83,1.17,1.21s.71.64,1.08,1c-.09.6-.62.88-.94,1.3s-.71.8-1.12,1.26l2.33,2.08c-.12.66-.67.91-1,1.35s-.82.73-1,1.33l2.26,2c-.17.62-.68.91-1,1.33s-.72.82-1.09,1.23l-2.27-2s-.12,0-.19,0-.14,0-.18,0c-.68.75-1.35,1.51-2,2.27l-2.28-2s-.13,0-.31,0c-.3.35-.68.73-1,1.15s-.84.68-.94,1.23l2.26,2c.12,0,.21,0,.24-.05l2-2.28,2.27,2s.13,0,.19,0,.14,0,.18,0c.68-.75,1.35-1.51,2-2.27l2.31,2.06c.08.42-.27.6-.48.84-.48.57-1,1.12-1.48,1.67.27.59.79.83,1.17,1.21s.71.64,1.07,1c-.08.6-.6.88-.92,1.3s-.71.8-1.11,1.25c.74.82,1.59,1.4,2.31,2.17-.11.57-.66.83-1,1.26s-.8.74-1,1.33l2.25,2c-.13.65-.68.91-1,1.35s-.82.72-1,1.33l2.27,2c-.18.62-.68.91-1,1.33s-.73.83-1.09,1.24l-2.3-2.05s-.13,0-.3,0l-4,4.51a.7.7,0,0,0-.1.16.92.92,0,0,0,0,.18l2.24,2c.12,0,.21,0,.24-.06q2.13-2.35,4.24-4.73l2.32,2.07c-.06.6-.59.87-.91,1.29s-.71.81-1.06,1.21c.27.58.79.83,1.17,1.21s.71.64,1.08,1c-.09.6-.62.88-.94,1.3s-.71.8-1.14,1.28l1.28,1.14,1.07,1c-.12.63-.65.9-1,1.32s-.71.8-1.11,1.25l2.36,2.11c-.17.62-.68.91-1,1.33s-.72.82-1.09,1.23l-2.3-2s-.13,0-.29,0l-4,4.51a.27.27,0,0,0-.1.16.54.54,0,0,0,0,.18l2.24,2c.12,0,.21,0,.24-.06l4.24-4.74,2.28,2s0,.12,0,.26l-2,2.21c.18.62.73.83,1.1,1.2a14.87,14.87,0,0,0,1.13,1c0,.17,0,.26,0,.3l-2,2.29-2.28-2s-.12,0-.18,0-.15,0-.18.05c-.68.76-1.36,1.51-2,2.27l-2.29-2s-.12,0-.3,0c-.31.34-.69.72-1,1.14s-.84.69-.94,1.24l2.25,2c.12,0,.21,0,.25,0l2-2.28,2.27,2s.12,0,.19,0,.14,0,.18,0l2-2.26,2.32,2.07c-.06.6-.59.87-.91,1.29s-.71.81-1,1.16a2.08,2.08,0,0,0,.06.3,1,1,0,0,0,.15.14l4.48,4c-.1.6-.65.86-1,1.3s-.8.73-1,1.33l2.25,2c-.14.65-.66.93-1,1.35s-.7.8-1.1,1.25l2.37,2.11c-.2.62-.7.91-1,1.33s-.64.72-1,1.09c.15.59.71.81,1.07,1.18s.8.73,1.15,1c0,.18,0,.27,0,.31-.63.72-1.27,1.43-1.91,2.15.17.6.74.81,1.1,1.19s.8.73,1.25,1.13l-2.11,2.36c.24.59.78.82,1.15,1.21s.71.64,1.09,1c-.07.6-.6.88-.92,1.3s-.71.8-1.12,1.27c.76.79,1.58,1.4,2.31,2.15-.1.57-.65.83-.94,1.27s-.81.74-1,1.33l2.25,2c-.14.64-.67.92-1,1.34a14,14,0,0,1-1,1.08c0,.43.33.57.56.79.55.51,1.11,1,1.67,1.49-.21.62-.7.91-1,1.33s-.63.72-1,1.09c.15.59.73.79,1.07,1.19s.88.65,1.18,1.2l-2,2.26c.2.64.78.83,1.12,1.23s.89.63,1.16,1.21l-2,2.27c.25.59.78.82,1.16,1.21s.71.64,1.06,1a59.71,59.71,0,0,1-6.49,7.43c-.84-.56-1.49-1.37-2.32-2a.46.46,0,0,0-.2,0,.35.35,0,0,0-.15.12l-6.2,6.93s-.12,0-.24,0L104.58,715c.14-.57.66-.85,1-1.27s.64-.73,1-1.08c0-.43-.33-.57-.56-.79l-4.13-3.69c.21-.62.7-.91,1-1.34s.63-.72,1-1.08c-.16-.59-.72-.81-1.08-1.19s-.8-.72-1.25-1.12l2.08-2.34c-.2-.63-.77-.83-1.12-1.23s-.89-.63-1.16-1.22l2-2.26c-.26-.59-.79-.83-1.16-1.21s-.71-.64-1.08-1c.07-.59.6-.87.92-1.29s.71-.81,1.1-1.24c-.71-.86-1.6-1.4-2.29-2.19.1-.57.65-.83,1-1.27s.81-.73,1-1.33l-2.27-2c.18-.63.69-.91,1-1.34s.64-.72,1-1.09c-.12-.59-.68-.8-1-1.18s-.8-.73-1.19-1.08c.21-.62.7-.92,1-1.34s.63-.72,1-1.09c-.16-.59-.72-.8-1.09-1.18s-.79-.72-1.24-1.13l2.09-2.34c-.21-.63-.79-.82-1.13-1.23s-.9-.62-1.16-1.21l2-2.27c-.26-.58-.79-.82-1.17-1.2s-.71-.65-1.08-1c.09-.6.62-.88.94-1.29s.71-.81,1.11-1.26c-.76-.81-1.6-1.41-2.31-2.15.1-.6.65-.85,1-1.29s.81-.73,1-1.33l-2.27-2c.18-.62.69-.91,1-1.33s.63-.72,1-1.09c-.13-.59-.68-.81-1-1.18s-.8-.73-1.19-1.08a4.45,4.45,0,0,1,1-1.34c.29-.38.63-.72,1-1.09-.18-.59-.75-.79-1.1-1.19s-.88-.64-1.17-1.2l2-2.26c-.22-.63-.77-.84-1.14-1.22s-.71-.65-1.07-1c-.1-.42.26-.6.46-.84.49-.57,1-1.12,1.45-1.63a1.29,1.29,0,0,0-.05-.29.5.5,0,0,0-.15-.14l-4.47-4c.09-.6.61-.88.94-1.3s.7-.8,1.12-1.27c-.81-.77-1.59-1.41-2.33-2.12.11-.61.66-.86,1-1.31s.82-.72,1-1.33l-2.27-2c.18-.62.69-.91,1-1.33s.64-.73,1-1.1c-.14-.58-.69-.8-1.06-1.18s-.8-.72-1.19-1.07a4.84,4.84,0,0,1,1-1.35c.3-.37.64-.71,1-1.08-.17-.6-.73-.81-1.1-1.19s-.79-.72-1.24-1.12l2.09-2.35c-.22-.62-.77-.83-1.14-1.22s-.71-.65-1.07-1c-.09-.41.27-.59.47-.84.49-.57,1-1.12,1.49-1.67-.28-.59-.8-.83-1.18-1.21s-.71-.64-1.08-1c.1-.61.63-.88,1-1.3s.71-.81,1.11-1.26l-2.33-2.09c.13-.65.68-.91,1-1.35s.82-.72,1-1.33l-2.27-2c.19-.61.69-.91,1-1.33s.63-.72,1-1.09c-.14-.59-.7-.8-1.06-1.18s-.8-.73-1.19-1.07a4.86,4.86,0,0,1,1-1.35c.29-.38.63-.72,1-1.08-.17-.6-.76-.79-1.1-1.2s-.89-.63-1.16-1.2l2-2.27c-.24-.6-.78-.83-1.15-1.21s-.71-.65-1.09-1c.06-.6.59-.88.91-1.29s.72-.81,1.13-1.28c-.76-.78-1.58-1.4-2.31-2.15.09-.57.62-.84.94-1.26s.71-.81,1.11-1.26l-4.8-4.29c.14-.65.66-.93,1-1.35s.71-.8,1.1-1.25l-2.36-2.11c.19-.62.69-.91,1-1.33s.63-.72,1-1.09c-.15-.59-.7-.81-1.07-1.19s-.8-.72-1.15-1c0-.18,0-.27,0-.31L91,561.3c-.18-.61-.76-.8-1.11-1.2s-.89-.63-1.16-1.21l2-2.19c0-.19,0-.28,0-.32a2.62,2.62,0,0,0-.3-.28l-4.33-3.87c-.58.13-.8.69-1.18,1.06s-.72.79-1,1.15c-.17,0-.26,0-.3,0l-12-10.72a70.41,70.41,0,0,1,6.55-7.42l2.2,2a1,1,0,0,0,.31,0c.06,0,.1-.09.14-.14l4-4.47c.42-.09.6.26.84.47.57.48,1.12,1,1.63,1.44.17,0,.26,0,.29,0,.65-.71,1.29-1.43,1.94-2.16-.15-.59-.71-.81-1.08-1.18s-.79-.73-1.18-1.07a5.14,5.14,0,0,1,1.06-1.36c.29-.37.63-.71,1-1.07-.19-.6-.77-.79-1.11-1.2s-.89-.63-1.16-1.21l2-2.27c-.25-.59-.79-.82-1.16-1.21s-.71-.64-1.08-1c.07-.6.6-.88.92-1.3s.71-.8,1.11-1.25c-.73-.83-1.59-1.4-2.31-2.18.11-.56.66-.82,1-1.26s.8-.73,1-1.33l-2.25-2c.15-.64.67-.92,1-1.34s.64-.73,1-1.09c0-.42-.33-.56-.57-.78-.54-.51-1.11-1-1.66-1.49.21-.62.7-.91,1-1.34s.63-.71,1-1.08c-.16-.59-.73-.79-1.08-1.19s-.87-.65-1.18-1.21l2-2.25c-.21-.63-.78-.83-1.13-1.23s-.89-.63-1.15-1.21l2-2.27c-.26-.59-.79-.83-1.16-1.21s-.71-.64-1.08-1c.08-.6.6-.88.93-1.3s.71-.81,1.06-1.2c-.31-.59-.82-.84-1.2-1.22s-.7-.64-1.07-1c.11-.62.67-.87,1-1.32s.81-.72,1-1.33l-2.26-2c.17-.63.68-.91,1-1.34s.72-.82,1.09-1.23l4.47,4a2.62,2.62,0,0,1,.3.28s0,.13,0,.31l-2,2.2c.27.58.82.8,1.16,1.21s.93.59,1.1,1.17c-.63.82-1.4,1.5-2,2.4.44.4.86.74,1.24,1.12s.92.6,1.07,1.19c-.33.36-.67.71-1,1.08s-.83.72-1,1.34c.56.49,1.12,1,1.67,1.49.23.22.61.36.55.78-.32.36-.66.7-1,1.09s-.85.69-1,1.34l2.34,2.09c-.4.45-.79.83-1.11,1.26s-.85.69-.95,1.26c.72.76,1.56,1.36,2.31,2.16-.41.46-.79.84-1.12,1.27s-.85.69-.92,1.29c.37.33.75.63,1.08,1s.91.61,1.16,1.21l-2,2.26c.26.59.81.8,1.16,1.21s.92.6,1.12,1.24l-2.09,2.33c.45.4.84.79,1.26,1.11s.7.85,1.3,1c.33-.37.63-.75,1-1.08s.63-.9,1.21-1.18c.56.5,1.1,1,1.67,1.49.25.21.43.56.84.47l4-4.46a.48.48,0,0,0,.13-.16,1.13,1.13,0,0,0,0-.31l-2.21-2c.21-.6.73-.89,1-1.33s.85-.7,1-1.31c-.36-.33-.73-.63-1.07-1s-.88-.63-1.19-1.22c.35-.39.73-.77,1.06-1.2s.85-.69.93-1.29c-.37-.33-.75-.63-1.08-1s-.91-.61-1.17-1.2l2.12-2.37c-.45-.4-.87-.73-1.24-1.12s-.92-.59-1.13-1.22l2.09-2.34c-.45-.4-.88-.74-1.25-1.13s-.92-.59-1.08-1.15c.64-.83,1.38-1.53,2.06-2.39-.47-.42-.89-.76-1.27-1.14s-.92-.6-1-1.18c.33-.38.67-.72,1-1.1s.83-.71,1-1.33l-2.27-2c.21-.61.72-.89,1-1.34s.85-.69,1-1.31c-.36-.32-.73-.63-1.06-1a5.22,5.22,0,0,1-1.2-1.23c.34-.38.73-.77,1-1.19s.85-.7.94-1.3c-.37-.33-.74-.63-1.08-1s-.9-.62-1.17-1.21c.5-.55,1-1.1,1.49-1.67.2-.25.56-.42.47-.84-.36-.32-.74-.62-1.08-1s-.91-.6-1.13-1.22l2-2.26c-.28-.57-.82-.8-1.17-1.21s-.92-.59-1.08-1.15c.61-.85,1.41-1.5,2-2.42-.43-.39-.86-.73-1.23-1.12s-.92-.59-1.06-1.18c.33-.37.67-.71,1-1.09s.83-.71,1-1.33l-2.37-2.11c.4-.45.78-.83,1.11-1.25s.85-.7,1-1.35l-2.25-2c.23-.59.73-.89,1-1.33s.85-.7.94-1.27c-.74-.75-1.55-1.37-2.32-2.15.43-.47.81-.85,1.14-1.28s.85-.69.91-1.28c-.38-.34-.76-.64-1.09-1s-.91-.61-1.15-1.21l2-2.27c-.27-.58-.81-.8-1.16-1.21s-.93-.59-1.09-1.17c.62-.83,1.4-1.5,2-2.41-.44-.39-.86-.73-1.24-1.11s-.92-.6-1.07-1.19c.33-.36.67-.71,1-1.08s.82-.72,1-1.33l-2.27-2c.19-.61.71-.89,1-1.33s.84-.7,1-1.35l-2.34-2.09c.4-.45.79-.83,1.11-1.26s.85-.69,1-1.26c-.73-.76-1.56-1.36-2.32-2.16.41-.46.79-.84,1.12-1.27s.85-.69.92-1.29c-.37-.33-.75-.63-1.08-1s-.91-.61-1.16-1.21l2-2.26c-.26-.59-.81-.81-1.16-1.21s-.92-.6-1.11-1.24l2-2.25c-.31-.56-.83-.8-1.18-1.2s-.92-.6-1.08-1.19c.33-.37.67-.71,1-1.09s.82-.72,1-1.33c-.55-.5-1.12-1-1.66-1.5-.24-.22-.61-.35-.57-.78.32-.36.67-.7,1-1.08s.84-.7,1-1.34l-2.35-2.1c.4-.45.78-.83,1.11-1.25s.86-.69,1-1.27c-.69-.78-1.58-1.33-2.29-2.18.39-.44.77-.82,1.1-1.24s.85-.7.92-1.3c-.37-.33-.74-.63-1.08-1s-.9-.62-1.16-1.21l2-2.27c-.26-.58-.81-.8-1.16-1.21s-.92-.6-1.12-1.23l2-2.25c-.3-.57-.83-.8-1.18-1.21s-.92-.6-1.08-1.15c.65-.83,1.39-1.53,2.07-2.4-.47-.41-.9-.75-1.27-1.14s-.92-.59-1-1.18c.33-.37.67-.71,1-1.09s.83-.71,1-1.33l-2.36-2.11c.4-.45.78-.83,1.1-1.26s.86-.69,1-1.29c-.73-.72-1.55-1.34-2.32-2.14.4-.45.78-.83,1.11-1.26s.85-.69.94-1.29c-.37-.33-.75-.63-1.08-1s-.9-.62-1.17-1.21L95.36,358c.21-.24.56-.42.47-.84-.36-.32-.74-.62-1.08-1s-.92-.6-1.13-1.22l2-2.26c-.28-.57-.82-.8-1.17-1.21s-.92-.59-1.09-1.14c.62-.86,1.42-1.52,2-2.43-.45-.4-.87-.73-1.24-1.12s-.92-.59-1.06-1.18c.33-.37.67-.71,1-1.09s.83-.71,1-1.33l-2.37-2.11c.4-.45.78-.83,1.11-1.25s.85-.7,1-1.35l-2.33-2.09c.4-.45.78-.83,1.11-1.25s.85-.7.94-1.28c-.74-.74-1.55-1.36-2.32-2.13.42-.47.81-.86,1.14-1.29s.85-.69.91-1.28l-2.33-2.08,4-4.46a4.15,4.15,0,0,0,.27-.32s0-.13,0-.32L94,320c.2-.61.72-.89,1-1.33s.85-.7,1-1.36l-2.25-2c.24-.59.73-.88,1-1.33s.85-.69.94-1.3c-.37-.33-.74-.63-1.08-1s-.89-.62-1.17-1.21c.36-.4.74-.78,1.07-1.21s.85-.69.9-1.29l-2.32-2.07,2-2.29s0-.12,0-.3c-.34-.31-.76-.64-1.13-1s-.91-.59-1.1-1.21L95,298.78l-2.45-2.18,2-2.28s0-.12,0-.18,0-.15-.05-.18l-2.27-2,2-2.27s0-.12,0-.19,0-.14-.06-.18l-2.26-2,2-2.27s0-.12,0-.18,0-.15,0-.18l-2.27-2,4-4.47a2.61,2.61,0,0,0,.27-.31s0-.13,0-.32l-2.19-2c.21-.6.72-.88,1-1.33s.85-.7,1-1.35l-2.25-2c.24-.59.73-.89,1-1.33s.84-.7.93-1.3c-.37-.33-.74-.63-1.07-1s-.9-.63-1.18-1.21c.36-.4.74-.79,1.07-1.21s.85-.7.91-1.29l-2.33-2.07,2-2.29s0-.13,0-.3c-.35-.31-.77-.64-1.14-1s-.91-.58-1.09-1.2l2.08-2.34-2.44-2.18,2-2.27s0-.12,0-.18,0-.15,0-.19l-2.27-2,2-2.28s0-.12,0-.18,0-.15,0-.18l-2.27-2L96.15,238c0-.18,0-.27-.06-.3l-2.28-2,2-2.27s0-.13,0-.19,0-.14,0-.18l-2.27-2c.68-.76,1.36-1.51,2-2.27,0,0,0-.12,0-.19s0-.14,0-.18l-2.27-2c.68-.75,1.35-1.51,2-2.27,0,0,0-.12,0-.18s0-.15-.06-.18l-2.26-2c.68-.76,1.36-1.52,2-2.29,0,0,0-.12,0-.3-.34-.31-.72-.69-1.14-1s-.69-.84-1.24-.94l-2,2.25c0,.12,0,.21,0,.24.75.69,1.52,1.37,2.28,2-.68.75-1.35,1.51-2,2.27,0,0,0,.12,0,.18s0,.15.06.18l2.26,2-2,2.28s0,.12,0,.18,0,.15,0,.18l2.26,2-2,2.27s0,.12,0,.19,0,.14.05.18l2.27,2L89.4,240.6l2.47,2.2-2,2.27s0,.12,0,.19,0,.14.06.18l2.26,2-2,2.27s0,.12,0,.18,0,.15,0,.18l2.27,2-4.23,4.74s0,.12,0,.18,0,.15,0,.19l4.73,4.23-4.12,4.61a.48.48,0,0,0-.13.16,1,1,0,0,0,0,.32l2.19,2c-.2.61-.71.89-1,1.33s-.85.7-1,1.35l2.25,2c-.24.59-.74.89-1,1.33s-.84.7-.94,1.3c.37.33.75.63,1.08,1s.9.63,1.18,1.22c-.36.39-.74.78-1.07,1.2s-.85.7-.91,1.29l2.32,2.08-2,2.27s0,.12,0,.18,0,.15,0,.18l2.27,2-2,2.27s0,.13,0,.19a.78.78,0,0,0,0,.18l2.27,2-2,2.27s0,.12,0,.19,0,.14.06.18l2.26,2c-1.41,1.57-2.81,3.15-4.22,4.73,0,0,0,.12,0,.19s0,.14,0,.18l4.73,4.23c-1.41,1.58-2.83,3.16-4.23,4.75,0,0,0,.12,0,.3.35.31.77.65,1.14,1s.92.59,1.07,1.15c-.65.81-1.37,1.52-2.06,2.38.46.41.88.75,1.25,1.13s.92.59,1.1,1.22L87,322.68l4.9,4.38-4,4.46a2.6,2.6,0,0,0-.26.32s0,.13,0,.32l2.18,1.95c-.2.61-.72.89-1,1.34s-.85.69-1,1.35l2.21,2c0,.15,0,.23,0,.27l-4,4.47a.4.4,0,0,0-.09.17.46.46,0,0,0,0,.2c.71.72,1.52,1.34,2.29,2.12-.42.47-.8.86-1.13,1.28s-.85.69-.91,1.29c.37.33.75.63,1.08,1s.91.61,1.15,1.21l-2,2.26c.27.58.81.8,1.16,1.21s.92.6,1.12,1.24l-2,2.25c.3.55.82.79,1.18,1.2s.91.6,1.07,1.19c-.32.37-.66.71-1,1.08s-.82.72-1,1.34c.4.36.82.69,1.2,1.08s.92.59,1,1.18c-.33.37-.67.71-1,1.09s-.84.71-1,1.33l2.36,2.11c-.4.45-.78.83-1.11,1.25s-.85.69-1,1.3c.73.72,1.54,1.34,2.32,2.13-.41.45-.79.84-1.12,1.26s-.85.7-.93,1.3c.36.33.74.63,1.07,1s.9.62,1.18,1.21c-.5.55-1,1.1-1.49,1.67-.21.25-.56.43-.47.84.36.32.74.62,1.07,1s.91.61,1.15,1.21l-2,2.27c.28.57.82.79,1.17,1.2s.92.6,1.1,1.2l-1.09,1.22-1,1.08c-.36.41-.75.81-1.09,1.24A5.08,5.08,0,0,0,86.38,393c.39.35.81.68,1.19,1.07s.92.59,1.07,1.18c-.33.37-.66.71-1,1.09s-.82.72-1,1.33c.56.5,1.12,1,1.67,1.49.23.22.6.36.56.78l-4.26,4.78-2.32-2.08c0-.59.58-.87.9-1.29s.72-.81,1.07-1.2c-.28-.59-.8-.84-1.18-1.22s-.71-.64-1.08-1c.1-.61.65-.87.95-1.3s.8-.74,1-1.33l-2.25-2c.14-.65.68-.91,1-1.35s.82-.72,1-1.33l-2.27-2c.2-.61.7-.91,1-1.33s.64-.72,1-1.09c-.15-.58-.71-.8-1.07-1.18s-.8-.72-1.15-1c0-.18,0-.26,0-.3.63-.72,1.27-1.44,1.91-2.15-.17-.61-.75-.8-1.1-1.21s-.89-.63-1.16-1.2l2-2.27c-.24-.6-.78-.83-1.15-1.21s-.71-.65-1.09-1c.07-.6.6-.88.92-1.29s.71-.81,1.06-1.21c-.29-.58-.8-.83-1.18-1.21s-.71-.64-1-.94a.73.73,0,0,1,0-.25.27.27,0,0,1,.1-.16q2-2.24,4-4.48s0-.12,0-.28l-2.22-2c.14-.64.67-.92,1-1.34s.64-.73,1-1.09c0-.42-.33-.56-.56-.78-.55-.51-1.11-1-1.67-1.49.21-.62.7-.91,1-1.34s.63-.72,1-1.08c-.15-.59-.71-.81-1.08-1.19s-.79-.72-1.18-1.07a5.25,5.25,0,0,1,1.06-1.35c.3-.37.63-.71.95-1.07-.19-.61-.77-.8-1.11-1.2s-.89-.63-1.16-1.21l2-2.27c-.25-.6-.78-.83-1.15-1.21s-.72-.65-1.09-1c.07-.59.6-.87.92-1.29s.71-.81,1.07-1.2c-.3-.59-.81-.84-1.19-1.22s-.71-.64-1.07-1c.1-.61.65-.87,1-1.31s.81-.73,1-1.33l-2.26-2c.15-.65.67-.92,1-1.35s.64-.72,1-1.08c0-.42-.33-.56-.56-.78-.55-.51-1.12-1-1.67-1.49.21-.62.7-.92,1-1.34s.64-.72,1-1.09c-.17-.59-.74-.78-1.08-1.19s-.88-.64-1.18-1.2l4.21-4.72c-.2-.63-.78-.83-1.12-1.23s-.9-.63-1.16-1.21l2-2.27c-.26-.59-.79-.82-1.17-1.21s-.71-.64-1.08-1c.08-.6.61-.88.93-1.3s.71-.81,1.06-1.2c-.31-.58-.82-.84-1.19-1.22s-.71-.64-1.07-1c.1-.62.66-.87,1-1.31s.81-.73,1-1.34l-2.27-2c.17-.63.69-.91,1-1.33s.64-.73,1-1.1c-.13-.58-.68-.8-1.05-1.18s-.8-.72-1.2-1.08a4.75,4.75,0,0,1,1-1.34c.29-.37.63-.72,1-1.08-.17-.59-.74-.79-1.09-1.19s-.88-.64-1.17-1.21l2-2.25c-.21-.63-.78-.83-1.12-1.23s-.9-.63-1.16-1.22l2-2.26c-.27-.59-.8-.83-1.17-1.21s-.71-.64-1.06-.95a1.93,1.93,0,0,1,0-.23.56.56,0,0,1,.09-.17l4-4.47a.53.53,0,0,0,0-.19c0-.06,0-.15-.06-.18-.71-.65-1.42-1.28-2.14-1.92.11-.63.66-.88,1-1.32s.81-.73,1-1.34l-2.27-2c.18-.62.69-.91,1-1.33s.64-.72,1-1.1c-.13-.58-.69-.8-1-1.18s-.8-.72-1.2-1.07a5,5,0,0,1,1-1.35c.3-.37.64-.71,1-1.08-.18-.59-.75-.79-1.1-1.19s-.88-.64-1.17-1.21l2-2.25c-.22-.63-.77-.84-1.14-1.23s-.71-.64-1.07-1c-.1-.41.26-.59.46-.84.49-.56,1-1.11,1.49-1.67-.27-.59-.8-.83-1.17-1.21s-.71-.64-1-.95a.61.61,0,0,1,0-.23.4.4,0,0,1,.09-.17l4-4.47s0-.12,0-.22c-.25-.47-.76-.73-1.14-1.11s-.7-.64-1.06-1c.12-.62.67-.88,1-1.32s.82-.72,1-1.33l-2.27-2c.19-.62.69-.91,1-1.33s.63-.72,1-1.09c-.14-.59-.7-.81-1.06-1.18s-.8-.73-1.19-1.08a4.79,4.79,0,0,1,1-1.34c.29-.38.63-.72,1-1.08-.17-.61-.76-.79-1.1-1.2s-.88-.63-1.17-1.21l2-2.25c-.22-.62-.78-.84-1.14-1.22s-.72-.65-1.08-1c-.08-.42.27-.6.48-.84.48-.57,1-1.12,1.48-1.67-.28-.59-.8-.83-1.17-1.22s-.71-.64-1-.94a.67.67,0,0,1,0-.24.4.4,0,0,1,.09-.17l4-4.47s0-.12,0-.27l-2.22-2c.13-.65.68-.91,1-1.35s.82-.72,1-1.33l-2.26-2c.19-.61.69-.91,1-1.33s.63-.72,1-1.09c-.14-.59-.7-.8-1.07-1.18s-.79-.72-1.22-1.11c.61-.93,1.42-1.57,2-2.43-.17-.56-.75-.75-1.09-1.16s-.89-.63-1.17-1.2l2-2.27c-.24-.6-.79-.83-1.15-1.21s-.72-.65-1.08-1c-.08-.42.27-.6.48-.84,1.23-1.39,2.46-2.76,3.69-4.13-.29-.59-.81-.84-1.18-1.22s-.71-.64-1.08-1c.1-.61.63-.88.95-1.3s.71-.81,1.11-1.26l-2.34-2.09c.14-.65.69-.9,1-1.35s.82-.72,1-1.33l-2.27-2c.19-.61.69-.9,1-1.33s.63-.72,1-1.09c-.15-.58-.7-.8-1.07-1.18s-.79-.72-1.18-1.07a4.86,4.86,0,0,1,1-1.35c.34-.43.73-.83,1.1-1.24l1-1.07,1.09-1.23c-.18-.6-.76-.79-1.1-1.2s-.89-.63-1.16-1.21l2-2.27c-.25-.59-.78-.82-1.15-1.21s-.72-.64-1.09-1c.07-.6.59-.88.92-1.29s.71-.81,1.12-1.28c-.76-.79-1.59-1.4-2.32-2.15.1-.57.65-.83,1-1.27s.81-.73,1-1.33l-2.26-2c.15-.64.67-.92,1-1.34s.63-.72,1-1.08c0-.43-.32-.57-.56-.79-.54-.51-1.11-1-1.61-1.45a1.18,1.18,0,0,1,0-.3.93.93,0,0,1,.13-.15l4-4.48c-.16-.59-.71-.8-1.08-1.18s-.79-.72-1.18-1.07a5.08,5.08,0,0,1,1.06-1.35c.29-.37.63-.72,1-1.07-.19-.61-.77-.8-1.11-1.21s-.89-.62-1.16-1.21l2-2.26c-.25-.6-.79-.83-1.16-1.21s-.71-.65-1.08-1c.07-.6.6-.88.92-1.29s.71-.81,1.06-1.21c-.3-.58-.81-.83-1.18-1.21s-.71-.64-1-.94a.74.74,0,0,1,0-.25.42.42,0,0,1,.1-.17l4-4.47s0-.12,0-.28l-2.22-2c.15-.64.67-.92,1-1.34s.64-.73,1-1.09c0-.42-.33-.56-.57-.78-.54-.51-1.11-1-1.66-1.49.21-.62.7-.92,1-1.34s.64-.72,1-1.09c-.17-.58-.74-.78-1.09-1.18s-.87-.65-1.17-1.21l2-2.25c-.2-.64-.78-.83-1.12-1.23s-.9-.63-1.16-1.22L91,104.84c-.26-.59-.79-.82-1.17-1.21s-.71-.64-1.08-1c.08-.6.61-.88.93-1.3s.71-.8,1.06-1.2c-.31-.58-.82-.84-1.19-1.22s-.71-.64-1.08-1c.11-.62.67-.87,1-1.31s.81-.73,1-1.33l-2.21-2a1.31,1.31,0,0,1,0-.31.66.66,0,0,1,.14-.15l4-4.48c-.13-.59-.68-.8-1-1.18s-.8-.73-1.27-1.15c.67-.86,1.42-1.56,2.06-2.39-.16-.56-.73-.75-1.08-1.16s-.88-.64-1.17-1.2l2-2.26c-.21-.63-.78-.82-1.12-1.23s-.9-.62-1.16-1.21l2-2.27c-.27-.58-.8-.82-1.17-1.2s-.71-.65-1.06-1a.8.8,0,0,1,0-.22.34.34,0,0,1,.08-.17l4-4.48s0-.12,0-.27c-.65-.71-1.49-1.3-2.18-2a2,2,0,0,1,0-.23.57.57,0,0,1,.11-.16l4-4.47s0-.13,0-.29L93.31,58c0-.19-.06-.28,0-.32a2.73,2.73,0,0,1,.27-.31l12.67-14.19c.6.06.88.59,1.29.91s.81.72,1.28,1.13c-.67.87-1.42,1.57-2.06,2.4.16.56.72.77,1.08,1.15s.8.72,1.25,1.13L107,52.22c.21.62.77.84,1.13,1.22s.72.65,1.08,1c.09.42-.26.6-.47.84-1.22,1.39-2.46,2.76-3.69,4.14.27.59.8.83,1.17,1.21s.71.64,1.06.95a.88.88,0,0,1,0,.23.32.32,0,0,1-.09.17l-4,4.47s0,.12-.06.3c.69.66,1.48,1.3,2.22,2-.11.61-.65.89-1,1.31s-.73.82-1.09,1.23l-1.1,1.24-1.12,1.24,4.83,4.32c-.18.62-.69.9-1,1.33s-.64.72-1,1.09c.14.59.69.8,1.06,1.18s.79.72,1.24,1.12c-.63.91-1.42,1.57-2,2.43.16.55.74.74,1.08,1.15s.89.63,1.17,1.2l-2,2.26c.22.62.77.84,1.14,1.22s.71.65,1.07,1c.09.42-.27.6-.47.84-.49.57-1,1.12-1.49,1.67.28.59.8.83,1.18,1.21s.7.65,1,1a2.18,2.18,0,0,1,0,.24.44.44,0,0,1-.1.16q-2,2.23-4,4.48s0,.12,0,.27l2.22,2c-.13.66-.66.93-1,1.35s-.71.81-1.11,1.25l2.37,2.12c-.19.61-.69.9-1,1.33s-.63.72-1,1.09c.14.58.69.8,1.06,1.18s.8.72,1.19,1.07a5.06,5.06,0,0,1-1.05,1.35c-.29.37-.63.71-.95,1.08.17.6.75.79,1.09,1.19s.89.64,1.17,1.21l-4.22,4.73c.24.61.78.83,1.15,1.21s.71.65,1.08,1c0,.6-.58.88-.91,1.29s-.71.82-1.13,1.28c.77.79,1.58,1.4,2.32,2.15-.1.57-.64.83-.94,1.27s-.8.74-1,1.33l2.25,2c-.14.65-.68.91-1,1.35s-.82.72-1,1.34l2.22,2c0,.17,0,.25,0,.3s-.18.2-.27.31l-3.86,4.32c.15.59.7.8,1.07,1.18s.8.72,1.24,1.12c-.65.9-1.43,1.58-2,2.4.17.58.73.79,1.1,1.17s.79.72,1.24,1.12L101,153.23c.25.6.79.83,1.16,1.21s.71.65,1.08,1c-.06.6-.59.88-.91,1.29s-.71.81-1.07,1.21c.29.58.81.83,1.19,1.21s.71.64,1.08,1c-.11.6-.64.87-1,1.29s-.71.81-1.11,1.26l2.29,2.05a2.32,2.32,0,0,1,0,.31.48.48,0,0,1-.13.16l-4,4.47c0,.42.32.56.56.78.54.51,1.11,1,1.66,1.49-.2.62-.69.91-1,1.34s-.64.72-1,1.09c.16.58.72.8,1.08,1.18s.8.72,1.26,1.13c-.71.86-1.42,1.59-2.08,2.37.18.6.76.79,1.11,1.19s.89.63,1.16,1.21l-2,2.27c.25.6.79.83,1.16,1.21s.71.65,1.08,1c-.07.59-.59.87-.92,1.29s-.71.81-1.06,1.2c.3.59.81.84,1.19,1.22s.71.64,1,.94a1.12,1.12,0,0,1,0,.25.42.42,0,0,1-.11.16l-4,4.47s0,.13,0,.29l2.22,2c-.15.64-.68.92-1,1.34s-.63.72-1,1.08c0,.43.32.57.56.79.54.51,1.11,1,1.66,1.49-.21.61-.7.91-1,1.33s-.63.72-1,1.09c.16.59.72.81,1.08,1.19s.8.72,1.25,1.12l-2.08,2.34c.2.63.77.83,1.12,1.23s.89.63,1.16,1.21l-4.23,4.74c.26.59.79.82,1.16,1.2s.71.65,1.08,1c-.07.6-.6.88-.92,1.29s-.71.81-1.1,1.24c.71.86,1.6,1.41,2.29,2.19-.1.58-.63.84-1,1.27s-.71.8-1.11,1.25l2.35,2.11c-.17.62-.68.91-1,1.33s-.64.72-1,1.1c.12.58.68.8,1,1.17s.8.73,1.27,1.15c-.67.86-1.41,1.57-2.06,2.39.16.56.72.77,1.08,1.15s.8.73,1.25,1.13l-2.09,2.34c.21.63.77.84,1.13,1.22s.8.72,1.24,1.12l-2.11,2.37c.26.59.79.82,1.16,1.21s.71.64,1.06,1a.92.92,0,0,1,0,.23.32.32,0,0,1-.09.17l-4,4.47s0,.12,0,.22c.25.47.76.73,1.14,1.11s.71.64,1.06,1c-.1.62-.66.88-1,1.32s-.82.72-1,1.33l2.26,2c-.17.62-.68.9-1,1.33s-.63.72-1,1.09c.13.59.69.8,1.06,1.18s.8.73,1.19,1.08c-.22.62-.71.92-1,1.34s-.63.72-1,1.09c.17.59.73.8,1.1,1.18s.79.72,1.24,1.13l-2.09,2.34c.21.62.77.84,1.14,1.22s.71.65,1.07,1c.1.42-.26.6-.47.84-.48.57-1,1.12-1.48,1.67.27.59.79.83,1.16,1.21s.71.65,1.08,1c-.08.6-.61.88-.93,1.29s-.71.81-1.06,1.2a5.16,5.16,0,0,0,1.2,1.22c.34.34.71.64,1.07,1-.12.63-.67.88-1,1.32s-.81.73-1,1.33l2.27,2c-.18.62-.69.91-1,1.33s-.64.72-1,1.09c.14.59.69.81,1.06,1.18s.8.73,1.15,1a1.19,1.19,0,0,1,0,.31c0,.06-.08.1-.13.15l-4,4.48c.18.59.76.78,1.1,1.18s.89.64,1.17,1.21l-2,2.26c.22.62.77.84,1.14,1.22s.71.65,1.07,1c.09.42-.26.59-.47.84-.49.57-1,1.12-1.49,1.67.28.59.8.83,1.18,1.21s.71.64,1.07,1c-.09.61-.62.88-.94,1.3s-.71.81-1.11,1.26l2.33,2.09c-.13.65-.68.91-1,1.35s-.82.72-1,1.33l2.27,2c-.19.62-.69.91-1,1.33s-.63.72-1,1.09c.14.59.7.8,1.06,1.18s.8.73,1.19,1.08a5,5,0,0,1-1,1.34c-.29.38-.63.72-1,1.08.17.6.75.79,1.1,1.2s.88.63,1.16,1.21l-2,2.26c.24.61.78.83,1.15,1.21s.71.65,1.09,1c-.06.6-.59.88-.91,1.29s-.71.81-1.07,1.21c.28.59.8.83,1.18,1.21s.71.65,1.08,1c-.1.6-.63.88-1,1.3s-.71.8-1.11,1.25L102,340.4c-.13.65-.66.93-1,1.35s-.73.83-1.1,1.24-.75.8-1.09,1.23-.83.72-1,1.33l2.27,2c-.2.61-.7.9-1,1.33s-.64.72-1,1.09c.15.58.71.8,1.07,1.18s.8.72,1.19,1.07a5.06,5.06,0,0,1-1,1.35c-.3.37-.63.72-1,1.07.17.61.75.8,1.1,1.21s.89.63,1.16,1.2l-2,2.27c.24.6.78.83,1.15,1.21s.71.65,1.09,1c-.07.6-.6.87-.92,1.29s-.71.81-1.06,1.21c.29.58.8.83,1.18,1.21s.71.64,1.08,1c-.11.61-.66.87-1,1.31s-.81.73-1,1.33l2.25,2c-.14.65-.67.92-1,1.35s-.63.72-1,1.08c0,.43.32.56.55.78.55.51,1.11,1,1.67,1.5-.2.61-.7.91-1,1.33s-.63.72-1,1.09c.15.59.71.8,1.08,1.18s.79.72,1.18,1.07a5.08,5.08,0,0,1-1.06,1.35c-.29.38-.63.72-.94,1.08.18.6.76.79,1.1,1.2s.89.63,1.16,1.21l-2,2.27c.25.59.79.82,1.16,1.2s.71.65,1.08,1c-.07.6-.6.88-.92,1.29s-.71.81-1.06,1.21c.29.58.81.83,1.18,1.21s.71.65,1.08,1c-.11.6-.64.88-1,1.3s-.71.8-1.11,1.25l2.3,2.06a1.06,1.06,0,0,1,0,.3.48.48,0,0,1-.13.16l-4,4.47c0,.42.33.56.56.78.55.51,1.12,1,1.67,1.49-.21.62-.7.92-1,1.34s-.63.72-1,1.09c.16.59.71.8,1.08,1.18s.8.72,1.25,1.13l-2.09,2.33c.2.64.78.83,1.12,1.24s.9.62,1.16,1.21l-2,2.26c.25.6.79.83,1.16,1.21s.71.65,1.08,1c-.08.6-.6.88-.93,1.29s-.71.81-1.06,1.2c.31.59.82.84,1.2,1.22s.7.64,1.07,1c-.11.61-.67.87-1,1.31s-.81.73-1,1.33l2.27,2c-.17.62-.68.9-1,1.33s-.63.72-1,1.09c.12.59.68.81,1,1.18s.8.73,1.2,1.08c-.22.62-.71.92-1,1.34s-.64.72-1,1.09c.17.59.74.79,1.09,1.19s.88.64,1.17,1.2l-2,2.26c.21.63.78.82,1.13,1.23s.89.62,1.15,1.21l-2,2.27c.26.59.79.82,1.16,1.2s.71.65,1.08,1c-.08.6-.61.88-.93,1.3s-.71.8-1.06,1.19a5,5,0,0,0,1.2,1.23c.33.33.71.63,1.06,1-.1.62-.64.89-1,1.31s-.71.8-1.11,1.25l2.36,2.11c-.18.62-.69.91-1,1.33s-.64.72-1,1.1c.13.58.69.8,1.06,1.18s.8.72,1.19,1.07c-.22.62-.71.92-1,1.35s-.63.71-1,1.08c.17.59.75.79,1.09,1.19s.88.64,1.17,1.21l-2,2.25c.21.63.77.84,1.13,1.23s.72.64,1.08,1c.09.41-.26.59-.47.83-.48.57-1,1.12-1.48,1.68.26.59.79.83,1.16,1.21s.71.64,1.08,1c-.08.6-.61.88-.93,1.3s-.71.81-1.13,1.27c.8.77,1.59,1.41,2.33,2.12-.11.61-.66.86-1,1.31s-.81.72-1,1.33l2.27,2c-.18.62-.69.91-1,1.34s-.64.72-1,1.09c.14.58.69.8,1.06,1.18s.8.72,1.24,1.12c-.63.91-1.42,1.57-2,2.43.16.54.74.74,1.08,1.14s.89.64,1.17,1.21l-2,2.26c.22.62.77.84,1.14,1.22s.71.65,1.07,1c.09.42-.26.59-.47.84-.49.57-1,1.12-1.44,1.62a1,1,0,0,0,0,.3c0,.06.1.09.15.14l4.47,4c-.09.6-.64.86-.94,1.3s-.8.74-1,1.33l2.25,2c-.13.65-.66.93-1,1.35s-.71.8-1.11,1.25l2.37,2.11c-.19.62-.7.91-1,1.33s-.64.72-1,1.09c.15.59.7.81,1.07,1.18s.79.73,1.19,1.08a5.16,5.16,0,0,1-1,1.34c-.3.38-.63.72-1,1.08.18.6.76.79,1.1,1.2s.89.63,1.17,1.21l-2,2.21c0,.17,0,.25,0,.3a.5.5,0,0,0,.15.14l7.08,6.33q-2.11,2.37-4.22,4.75s0,.12,0,.3c.35.31.77.64,1.14,1s.91.59,1.1,1.21l-2,2.22c0,.14,0,.22.07.26ZM94.17,200.54c-.68.75-1.36,1.51-2,2.27,0,0,0,.12,0,.18s0,.15,0,.18l2.27,2-2,2.27s0,.13,0,.19,0,.14.06.18l2.26,2c-.68.76-1.36,1.52-2,2.29,0,0,0,.12,0,.3.35.31.72.69,1.15,1s.68.84,1.23.94l2-2.26c0-.11,0-.2,0-.24l-2.28-2c.68-.76,1.36-1.51,2-2.27,0,0,0-.12,0-.19s0-.14,0-.18l-2.27-2c.68-.75,1.35-1.51,2-2.27,0,0,0-.12,0-.18s0-.15-.06-.18l-2.26-2c.68-.76,1.36-1.52,2-2.29,0,0,0-.13,0-.3-.35-.31-.72-.69-1.15-1s-.68-.84-1.23-.94l-2,2.25c0,.12,0,.21,0,.24C92.64,199.18,93.41,199.86,94.17,200.54Zm19.19,464.72-2.28-2s-.13,0-.31,0c-.31.35-.69.72-1,1.15s-.84.68-.94,1.23l2.26,2c.12,0,.2,0,.24-.06l2-2.27c.76.67,1.52,1.36,2.29,2,0,0,.12,0,.3,0,.31-.35.69-.72,1-1.15s.84-.68.94-1.23l-2.25-2c-.12,0-.21,0-.24.06C114.72,663.73,114,664.49,113.36,665.26Zm-2.7-6.9c.43-.49.73-.87,1.08-1.2s.61-.9,1.2-1.15l2.26,2c.59-.25.84-.76,1.19-1.15s.84-.7,1-1.31c-1.38-1.24-2.75-2.47-4.13-3.69-.24-.21-.42-.56-.84-.46l-4.11,4.6s0,.13,0,.25Zm-5-88.64c.52.46.86.81,1.24,1.1s.71.83,1.28,1l2-2.27a38.56,38.56,0,0,0-4.85-4.34c-2.73,2.8-3.6,3.82-4.21,4.92l2.15,1.92s.13,0,.29,0ZM115,693.23c1.49-1.67,2.86-3.2,4.22-4.74,0,0,0-.13,0-.3-.36-.31-.74-.7-1.17-1s-.68-.84-1.28-.89c-1.38,1.55-2.76,3.08-4.12,4.62,0,0,0,.13,0,.25Zm-3.43-20.92a37.61,37.61,0,0,0,4.91,4.37l1.49-1.67.52-.58a37.05,37.05,0,0,0-4.9-4.37Zm2.15-42.21c-.41-.37-.79-.75-1.21-1.07s-.7-.83-1.28-1l-2.12,2.38c.42.37.8.75,1.22,1.08s.7.83,1.27,1ZM108,611.74c.49.45.83.79,1.21,1.08s.71.83,1.32,1c.5-.56,1-1.1,1.48-1.67.21-.24.56-.42.47-.84-.36-.32-.7-.66-1.08-.95s-.71-.83-1.28-1Zm-.49-9.25c-.55.24-.81.75-1.16,1.15s-.83.69-1,1.27l2.28,2c.56-.24.81-.75,1.16-1.14s.84-.7,1-1.27Zm9,78.94c-.41-.37-.79-.75-1.21-1.07s-.71-.83-1.28-1L112,681.74c.41.37.79.75,1.21,1.08s.71.83,1.28,1ZM93.4,186.56c.5.44.84.78,1.21,1.07s.71.83,1.32,1c.5-.56,1-1.11,1.49-1.67.2-.25.56-.42.46-.84-.35-.32-.7-.66-1.07-.95s-.71-.83-1.29-1Z"/><path d="M85.84,467.85l-2.31-2.06c-.08-.42.27-.6.48-.84.48-.57,1-1.12,1.48-1.67-.27-.59-.79-.83-1.17-1.21s-.71-.64-1.08-1c.09-.6.61-.88.93-1.3s.72-.81,1.1-1.24c-.72-.85-1.59-1.4-2.29-2.18.09-.57.65-.83.94-1.27s.81-.73,1-1.32l-2.25-2c.13-.64.68-.9,1-1.34s.81-.72,1-1.33l-2.22-2a1.39,1.39,0,0,1,0-.3c0-.06.09-.1.13-.16l4.13-4.61c.41.37.84.71,1.22,1.1s.91.61,1.15,1.21l-2,2.27c.27.58.81.8,1.16,1.2s.92.6,1.12,1.23l-2.09,2.34c.45.4.87.73,1.24,1.12s.93.59,1.09,1.15c-.64.83-1.39,1.52-2.06,2.4.46.41.88.75,1.26,1.13s.92.6,1.06,1.19c-.33.36-.67.71-1,1.08s-.83.72-1,1.33c.55.5,1.12,1,1.66,1.5.24.22.61.35.56.78Z"/><path d="M115.32,534.06l2.06-2.3c.33-.09.5.15.69.33l8.77,7.83c.14.13.28.28.43.44-.16.57-.67.86-1,1.28s-.73.82-1.1,1.23Z"/><path d="M85.15,414.05l-2.45-2.18,2.09-2.34c-.19-.61-.74-.82-1.1-1.2s-.79-.72-1.13-1c0-.18,0-.27,0-.31l2-2.28L89.35,409s0,.12.05.18,0,.14,0,.19C88,410.9,86.55,412.47,85.15,414.05Z"/><path d="M125.18,542.87l2.31,2.06c.09.42-.26.6-.47.84-1.22,1.38-2.45,2.75-3.69,4.13-.61-.18-.9-.68-1.32-1s-.82-.72-1.23-1.09Z"/><path d="M120.78,547.8l-2,2.27s-.12,0-.18,0-.14,0-.18,0c-.77-.67-1.52-1.35-2.28-2l2.21-2.46Z"/><path d="M86.63,481.85l-2.27-2s0-.12,0-.18,0-.15,0-.19c.67-.76,1.35-1.51,2-2.27l2.26,2s0,.12.06.18,0,.15,0,.19Z"/><path d="M86.37,477.18l-2.27-2s0-.12,0-.18,0-.14,0-.18l2-2.28,2.27,2s0,.12,0,.18,0,.15,0,.19Z"/><path d="M86.1,472.51l-2.26-2s0-.11-.06-.18,0-.14,0-.18c.67-.76,1.34-1.52,2-2.27l2.27,2s0,.12,0,.18,0,.14,0,.18C87.46,471,86.78,471.76,86.1,472.51Z"/><path d="M86.73,442.05l-2.27-2s0-.12,0-.18,0-.15,0-.19l2-2.27,2.27,2s0,.12,0,.18,0,.15,0,.19Z"/><path d="M86.46,437.38l-2.26-2s0-.12-.06-.18,0-.14,0-.18c.67-.76,1.34-1.52,2-2.27.76.67,1.51,1.35,2.26,2,0,0,0,.12.06.18s0,.14,0,.18C87.81,435.87,87.14,436.63,86.46,437.38Z"/><path d="M86.2,432.72l-2.27-2s0-.12-.05-.18,0-.15,0-.19c.67-.76,1.35-1.51,2-2.27l2.26,2s0,.12,0,.18,0,.14,0,.18C87.55,431.21,86.87,432,86.2,432.72Z"/><path d="M85.94,428.05l-2.27-2s0-.12,0-.18,0-.15,0-.19l2-2.27,2.27,2s0,.12,0,.18,0,.15,0,.19Z"/><path d="M85.67,423.38l-2.26-2s0-.12-.06-.18,0-.14,0-.18c.67-.76,1.34-1.52,2-2.27.76.67,1.51,1.35,2.26,2,0,0,0,.12.06.18s0,.14,0,.18C87,421.87,86.35,422.63,85.67,423.38Z"/><path d="M85.41,418.72l-2.27-2s0-.12,0-.18,0-.15,0-.19c.67-.76,1.35-1.51,2-2.27l2.26,2s0,.12,0,.18,0,.15,0,.19Z"/><path d="M118.32,545.6l-2.28-2s0-.13-.06-.25l2-2.25c.55.1.82.62,1.23.94s.8.7,1.15,1c0,.18,0,.26,0,.3C119.68,544.08,119,544.84,118.32,545.6Z"/></g></g></svg>