<svg xmlns="http://www.w3.org/2000/svg" viewBox="0 0 146.46 144.92"><title>Recurso 39ART</title><g id="Capa_2" data-name="Capa 2"><g id="Capa_1-2" data-name="Capa 1"><path d="M34.27,110.64H32.78l-.05,0a.08.08,0,0,0,0,0v1.4l-.08.06H31.2c-.1.16,0,.34-.05.5s0,.35,0,.52a1.61,1.61,0,0,1,0,.53H29.65c-.11.18,0,.35,0,.52s0,.35,0,.52a1.16,1.16,0,0,1,0,.52H28.1s-.06.06-.06.08a.56.56,0,0,0,0,.13v1.3c-.16.1-.34,0-.5.05h-1a1.68,1.68,0,0,0,0,.54c0,.15,0,.3,0,.45v.52c-.17.1-.35,0-.51.05s-.35,0-.52,0a1.39,1.39,0,0,0-.53,0v1.44s-.05.07-.07.08H23.43s0,0-.05.05a.08.08,0,0,0,0,0v1.4l-.08.06H21.85c-.1.16,0,.34,0,.5a4.51,4.51,0,0,0,0,.52v.53H20.32l-.07.07a.13.13,0,0,0,0,.06v1.37c-.07.11-.19.06-.29.06-.41,0-.82,0-1.2,0,0,0-.06.06-.06.08s0,0,0,.06v1.37c-.16.1-.34,0-.5,0s-.35,0-.52,0h-.51a1.68,1.68,0,0,0,0,.54c0,.15,0,.3,0,.45v.52c-.17.1-.35,0-.51,0s-.35,0-.52,0h-.53v1.49s-.05.06-.07.07H14.07c-.11.15,0,.33-.06.49s0,.35,0,.52v.49s-.06.06-.08.06H12.52s0,0-.06-.06a.13.13,0,0,1,0-.06V126.3s0,0,.06-.07h1.43s.06,0,.07-.07,0,0,0-.07v-2.92c.08-.11.2-.06.3-.06.4,0,.81,0,1.2,0,0,0,.05-.06.06-.08v-3c.16-.1.34,0,.5-.05h1.05v-1.5c.18-.11.35,0,.52-.06s.35,0,.52,0a1.33,1.33,0,0,0,.52,0v-3l.07-.06h1.44c.1-.15,0-.33,0-.49s0-.35,0-.52v-.51a1.68,1.68,0,0,1,.54,0c.15,0,.3,0,.45,0h.52c.11-.17,0-.35.05-.51s0-.35,0-.52a1.39,1.39,0,0,1,0-.53h1.45s.06,0,.07-.07,0,0,0-.06v-1.36c.08-.11.2-.07.3-.07h1.25c0-.52,0-1,0-1.51.16-.1.34,0,.5,0s.35,0,.52,0h.53V106c.18-.11.35,0,.52,0a4.51,4.51,0,0,1,.52,0H28v-1.49s.05-.06.07-.06h1.42l0,0a.13.13,0,0,0,0-.06v-1.4s-.06-.05-.08-.05h-3c-.11.17,0,.34-.05.51s0,.34,0,.52a1.16,1.16,0,0,1,0,.52H25s-.07,0-.07.07a.57.57,0,0,0,0,.13v1.3l-.05,0s0,0-.05,0h-1.4c0,.05-.05.06-.06.08v1.43c-.16.1-.34,0-.5,0s-.35,0-.52,0a1.62,1.62,0,0,0-.53,0V109a1.05,1.05,0,0,1-.52,0c-.18,0-.35,0-.52,0a1.39,1.39,0,0,0-.53,0v1.46s0,.06-.07.06H18.74c-.11.16,0,.33,0,.5s0,.34,0,.52v.5a1.7,1.7,0,0,1-.54,0h-1c-.11.17,0,.34-.05.51s0,.34,0,.52v.52H15.65l-.08.07a.56.56,0,0,0,0,.13v1.3l-.05,0H14.07l-.06.08v1.43c-.16.1-.34,0-.5.05H13a1.53,1.53,0,0,1-.52,0v-4.59a.12.12,0,0,1,0,0s0,0,.06,0h1.36c.11-.08.07-.2.07-.3v-2.76l.07-.06h1.43c.11-.16,0-.33.06-.5s0-.35,0-.52v-.5a1.7,1.7,0,0,1,.54,0h.95s.05,0,.06-.06,0,0,0-.06v-2.86s0,0,0-.06l.06-.07h1.43s.06,0,.06-.07a.57.57,0,0,0,0-.13v-1.3c.15-.11.33,0,.49-.06h1s0-.06,0-.08v-3s0,0,0-.06h-3s0,0-.07,0V98.22s0,0,.05,0h1.43c.11-.08.06-.19.06-.29,0-1.3,0-2.6,0-3.9v-.47c.51,0,1,0,1.5,0l0,0a.13.13,0,0,0,0-.06c0-1,0-2,0-2.93l0-.07h1.44s.06,0,.07-.07V82.66l.06-.07H23.3s.06,0,.06-.07V78c.16-.11.33,0,.5,0s.34,0,.52,0h.5a1.7,1.7,0,0,0,0-.54c0-.17,0-.35,0-.52V73.29c.16-.1.34,0,.51-.05h1V67.08s.05-.06.07-.07,0,0,.07,0H28c.11-.08.06-.2.06-.3,0-.41,0-.81,0-1.25.51,0,1,0,1.51,0,.09-.15,0-.33,0-.49s0-.35,0-.52a1.38,1.38,0,0,1,0-.53h1.45s.06,0,.07-.07V48.38s0,0,0-.06H26.53s-.05,0-.05.06a.56.56,0,0,0,0,.13V49.8s0,0-.05.05l-.06,0h-6l-.06,0a1.67,1.67,0,0,0,0,.5c0,.15,0,.3,0,.46v.5l0,.06H.06l-.06,0V49.92l.05-.05H3c.1-.08.06-.2.06-.3,0-.41,0-.82,0-1.2l.08-.06s0,0,.06,0h6c.11-.16,0-.34.05-.5s0-.35,0-.52a1.53,1.53,0,0,1,0-.52H14c.09.15,0,.33,0,.49s0,.35,0,.52v.52h3.07l.05-.06v-3c.15-.11.33,0,.49-.06h1a1.62,1.62,0,0,0,0-.53c0-.16,0-.31,0-.46v-.52c.16-.1.34,0,.5,0a4.56,4.56,0,0,1,.52,0h.53V42.14s.05-.06.07-.06h3.05v1.5c-.08.1-.2.06-.3.06h-1.2s-.06.06-.06.08v1.42l.06,0h4.58a1.7,1.7,0,0,0,0-.54V43.7a.17.17,0,0,1,.06-.06h4.54l.07-.05V42.14l.07-.06h3c.11-.07.07-.19.07-.29V35.9s0-.06.07-.06h3c.11-.15,0-.33.05-.49s0-.35,0-.52v-.49l.08-.06h3c.1-.16,0-.34,0-.5s0-.35,0-.52a1.62,1.62,0,0,1,0-.53h3c.1-.18,0-.35,0-.52s0-.35,0-.52a1.33,1.33,0,0,1,0-.52H56l.06-.07s0,0,0-.06V28.11s0,0,0,0l-.06,0H54.59s-.06.06-.06.07,0,.05,0,.07v1.35l-.06.05,0,0h-3l-.05-.08v-3l.06-.06h7.65s0,0,.07,0V25c.19-.11.36,0,.53,0a4.47,4.47,0,0,1,.52,0h1c.18,0,.35,0,.52,0a1.22,1.22,0,0,0,.53,0V23.44s0-.06.07-.06h4.54l0,0a.14.14,0,0,1,0,.06v1.4s-.06.05-.08.05,0,0-.06,0H65.48c-.1.17,0,.34,0,.51s0,.35,0,.52a1.61,1.61,0,0,1,0,.53h-3c-.1.18,0,.35,0,.52s0,.34,0,.52a1.56,1.56,0,0,1,0,.52H60.82s-.06.05-.06.07v3c-.16.11-.33,0-.5.05a4.47,4.47,0,0,1-.52,0h-.48s-.06.06-.06.08v1.41l.06.05h3l.07.05v3a1.05,1.05,0,0,0,.52.05h1v3l.07.07h3l0,0a.08.08,0,0,1,0,.05v1.4l.08.06h6.09s0,0,0,0a.13.13,0,0,1,0,.06c0,.43,0,.86,0,1.3,0,0,0,.07,0,.14h-3l-.06.06a.17.17,0,0,0,0,.07v2.92s0,0-.06.07H68.62l-.07.07v1.49H67.06c-.11.08-.07.2-.07.3v2.76l-.07,0H65.49c-.11.16,0,.33,0,.5s0,.35,0,.52a1.61,1.61,0,0,1,0,.53H63.93c-.11.18,0,.35,0,.52a4.51,4.51,0,0,0,0,.52,1.16,1.16,0,0,0,0,.52h1.45l.06.07v1.43c-.15.11-.33.05-.49.06h-1l0,.08V56l0,.06h3L67,56V54.61l.07-.07h3V56c-.08.11-.19.07-.29.07H68.61l-.06.07v1.49H67.08l-.06,0s0,0,0,.05v1.48H65.51s0,0-.08.05v1.39s0,0,0,.06a.1.1,0,0,0,0,0h1.45l0-.06V59.22h1.48l0,0a.09.09,0,0,0,0,0V57.66h3.12v1.49l-.06.07H70.17l-.06.06a.56.56,0,0,0,0,.13v1.3c-.08.11-.2.06-.3.06h-1.2s-.06.06-.06.07v1.49H67.08s0,0-.06,0a.09.09,0,0,0,0,.05v1.47H65.51s0,0-.08.06v1.38s0,0,0,.06l0,0h1.45s0,0,0-.07V63.89h1.48l0,0,0,0V62.33h3.12v1.49c-.08.11-.2.07-.3.07h-1.2s-.06,0-.06.07a.57.57,0,0,0,0,.13v1.29l0,.05,0,0h-1.4l-.06.07v3H67.08l-.06,0s0,0,0,.05v1.47H65.51s0,0-.08.05v1.39s0,0,0,.06l0,0h1.45s0,0,0-.06V70.12h1.48l0,0s0,0,0,0V68.57H70s0,0,.07-.06V67.07s0-.06.07-.06a.56.56,0,0,1,.13,0H71.6c.11-.08.06-.2.07-.3v-1.2s0-.06.07-.06h1.49c0,1,0,2,0,3,0,0,0,0-.06.07H71.73s-.06.05-.06.07v3H70.19s0,0-.08.06v1.38s0,0,0,.06l0,0h1.46s0,0,0-.07V71.68h1.49c.11-.08.06-.19.06-.29,0-.41,0-.82,0-1.21,0,0,0-.05.07-.05h1.43c.1-.15,0-.33,0-.5s0-.34,0-.51V68.6a1.68,1.68,0,0,1,.54,0h1l0-.06a.13.13,0,0,0,0-.06V65.53s0,0,0-.07h1.46a1.09,1.09,0,0,0,.05-.53c0-.17,0-.34,0-.51a1.38,1.38,0,0,1,0-.53H79.4s.06,0,.06-.07V62.39c-.16-.11-.33,0-.5,0a4.47,4.47,0,0,0-.52,0H78a.26.26,0,0,1-.06-.08V60.83c-.16-.11-.34,0-.5,0a4.56,4.56,0,0,0-.52,0h-.52V57.7c.15-.09.33,0,.49,0s.35,0,.52,0a1.39,1.39,0,0,0,.53,0V56.17s0-.07.07-.07h1.42c.11-.08.07-.2.07-.3V53l.07-.06H81c.11-.16,0-.33.05-.5A4.34,4.34,0,0,0,81,52v-.49s.06,0,.08,0h3a24.3,24.3,0,0,1,0,3.12H82.62c-.1.17,0,.35,0,.51s0,.35,0,.52a1.22,1.22,0,0,1,0,.53H81.08s-.06,0-.06.07a.56.56,0,0,0,0,.13v2.92H79.54s0,0-.08.05v1.39a.13.13,0,0,0,0,.06l0,0H81l0-.06V59.22h3c.1-.08.06-.2.06-.3,0-.41,0-.81,0-1.2,0,0,.06-.06.08-.06h1.42l.05,0a.13.13,0,0,0,0-.06V54.63a.09.09,0,0,1,0-.05l0,0H87.2c.1-.16,0-.34,0-.5s0-.35,0-.52V53h1.51c.1-.18,0-.36,0-.52s0-.35,0-.52v-1c0-.17,0-.34,0-.52a1.34,1.34,0,0,1,0-.52H90.3s.06,0,.06-.07a.15.15,0,0,0,0-.07v-3h1.49l0,0s0,0,0-.05c0-.48,0-.95,0-1.4l.08-.06h1.42l0,0a.13.13,0,0,0,0-.06V40.6s0,0,0-.08H95l.07-.07v-3l.06-.07h1.44s.06,0,.06-.07V32.78c.16-.11.33,0,.5-.05h1s.06-.07.06-.09V28.1c-.17-.1-.34,0-.51-.05a4.51,4.51,0,0,0-.52,0,1.39,1.39,0,0,0-.53,0v1.45a.22.22,0,0,1-.07.07h-6.1c-.1-.08-.06-.2-.06-.3,0-.41,0-.81,0-1.2l-.08-.06H85.74c-.1-.16,0-.34,0-.5s0-.35,0-.52a1.61,1.61,0,0,0,0-.53h-3c-.11-.18,0-.35,0-.52s0-.35,0-.52a1.22,1.22,0,0,0,0-.53H78s-.06-.05-.06-.07V20.32c.09-.1.2-.06.3-.06h5.89a1.4,1.4,0,0,0,0-.53c0-.16,0-.31,0-.46v-.5l.06-.06h4.54s0,0,.07-.05V17.21s0-.06.07-.06H90.3c.11-.08.06-.19.06-.29,0-.93,0-1.86,0-2.76,0,0-.06-.06-.08-.06h-3l0-.06s0,0,0-.06V12.62a.51.51,0,0,1,0-.14H95c.09.16,0,.33,0,.5s0,.35,0,.52a1.26,1.26,0,0,0,0,.51h4.58s0,0,0,0a.57.57,0,0,0,0-.13v-1.3l0,0,.06,0h1.4c0-.05,0-.06,0-.08s0,0,0-.07V11c.17-.1.34,0,.51-.05h.52a1.39,1.39,0,0,1,.53,0V12.4s0,.06.07.06h1.42c.11-.08.07-.2.07-.3V11l.07-.06h3c.11-.16,0-.34,0-.5a4.51,4.51,0,0,0,0-.52V9.4s.06-.05.08-.05h3c.11.17,0,.35.05.51s0,.35,0,.52a1.32,1.32,0,0,0,0,.52h1.47l.05-.06s0,0,0-.06V9.42c.09-.11.2-.07.3-.07h2.76l.06-.08v-3c.16-.1.34,0,.5,0a3,3,0,0,1,.52,0,1.61,1.61,0,0,1,.53,0v4.57l.07.07h3c.11-.08.06-.19.06-.29,0-.41,0-.82,0-1.21l.08-.06h3l0,0a.13.13,0,0,0,0-.06V6.32s0,0,0-.06a1.67,1.67,0,0,1,.5,0h1c.1-.16,0-.34.05-.51s0-.34,0-.52a1.34,1.34,0,0,1,0-.52h1.44s.07,0,.07-.07a.57.57,0,0,0,0-.13V3.18c.08-.1.2-.06.3-.06h2.76c0-.05,0-.06,0-.08V1.62l0-.05h-3s0,0-.07-.05V.05s0,0,0,0h7.66l.07.07V1.5s.05.06.07.06h4.54s0,0,0,.05a.13.13,0,0,1,0,.06V3.08a1.64,1.64,0,0,1-.53,0h-1c-.11.17,0,.34,0,.51s0,.34,0,.52a1.55,1.55,0,0,1,0,.52h-1.45l-.07.07a.57.57,0,0,0,0,.13v1.3l-.05,0h-1.45l-.06.08s0,0,0,.07V7.74c-.17.1-.34,0-.51,0H133a1.56,1.56,0,0,0-.52,0V9.3s0,0,.05,0h9.22s0,0,.07-.06V7.85s.05-.06.07-.06h4.54l0,0a.13.13,0,0,1,0,.06V9.3l-.08,0h-2.92l-.07,0c-.1.15,0,.32,0,.49s0,.35,0,.52v.53h-1.49s-.07.05-.07.07V12.4l0,0-.05,0h-1.4l-.06.07V14c-.16.11-.34,0-.5,0s-.35,0-.52,0a1.61,1.61,0,0,0-.53,0v3a1.05,1.05,0,0,1-.52.05c-.17,0-.35,0-.52,0a1.62,1.62,0,0,0-.53,0v1.46s-.05.06-.07.06h-1.42l-.05.05a.13.13,0,0,0,0,.06V20.2l.08.06h3c.1.16,0,.33,0,.5s0,.34,0,.52a1.32,1.32,0,0,0,0,.52h1.45l.07.07a.56.56,0,0,1,0,.13v1.3l.05.05h1.45l.06.07v1.43c.16.11.34,0,.5.05s.35,0,.52,0h.53v4.63c.18.1.36,0,.52.05s.35,0,.52,0a1.33,1.33,0,0,1,.52,0V84.09s0,0-.06.06h-1.43c-.1.08-.06.2-.06.3v9l-.08.06h-1.42s0,0,0,0a.13.13,0,0,0,0,.06v6s0,0,0,.07h-1.46c-.1.18,0,.36-.05.53s0,.34,0,.52v.51h-3.06s0,0,0-.06c0-.48,0-1,0-1.43.16-.11.34,0,.5-.06s.35,0,.52,0h.49s0-.06,0-.08V98.24a.17.17,0,0,0-.06-.06h-3l-.07.06v3l-.07.07h-1.43c-.1.08-.06.2-.06.3v5.87s-.06.06-.08.06,0,0-.06,0h-1.35l-.06.06s0,0,0,.06v4.48l-.05.07H131l-.06.07a.13.13,0,0,0,0,.06v4.42s0,0,0,.06l-.06.07h-1.43l-.06.07a.62.62,0,0,0,0,.13v2.86c-.15.11-.33,0-.49.06s-.35,0-.52,0h-.51a1.62,1.62,0,0,0,0,.53c0,.16,0,.31,0,.46v.51a24.5,24.5,0,0,1-3.12,0v-1.45l-.07-.07h-1.42c-.11-.08-.07-.2-.07-.3v-7.43l-.07-.06H121.6a.12.12,0,0,0,0,0,.14.14,0,0,0,0,.06v2.92s0,0,0,.08h-1.43a.22.22,0,0,0-.07.07s0,0,0,.06v2.85s0,0,0,.07,0,0-.06.07h-1.43s-.06,0-.06.07a1.21,1.21,0,0,0,0,.19v2.8c-.16.11-.34,0-.5.05a4.51,4.51,0,0,1-.52,0h-.5a1.39,1.39,0,0,0,0,.53c0,.17,0,.35,0,.52v2c-.17.11-.34,0-.51,0h-.52a1.61,1.61,0,0,0-.53,0v3a.22.22,0,0,1-.07.07s0,0-.06,0h-2.92c-.11-.08-.06-.19-.07-.3v-1.25c-.51,0-1,0-1.5,0l0,0a.14.14,0,0,1,0-.06c0-.43,0-.87,0-1.3a1.21,1.21,0,0,1,0-.14h1.45s.06,0,.07-.07v-3l.06-.07h1.44l.06-.07v-4.55c.16-.11.33,0,.5-.05a4.47,4.47,0,0,1,.52,0h.5a1.62,1.62,0,0,0,0-.53c0-.17,0-.35,0-.52v-3.57c.16-.11.34,0,.51,0s.34,0,.52,0a1.49,1.49,0,0,0,.51,0v-3l0,0h-1.42c-.11-.08-.07-.19-.07-.29v-1.21l-.07-.06h-1.44c-.1.16,0,.34-.05.5s0,.35,0,.52v.53h-1.5c-.11.18,0,.36,0,.52s0,.35,0,.52a1.39,1.39,0,0,1,0,.53h-1.45s-.06,0-.06.07a.53.53,0,0,0,0,.13v2.86c-.15.11-.33,0-.49,0a4.51,4.51,0,0,1-.52,0h-.51a1.61,1.61,0,0,0,0,.53c0,.15,0,.3,0,.45v.52c-.17.11-.35,0-.51,0H108a1.61,1.61,0,0,0-.53,0v3l-.07.07H106c-.11.08-.07.2-.07.3v2.81c-.52,0-1,0-1.51,0-.1.16,0,.33,0,.5s0,.35,0,.52a1.84,1.84,0,0,1,0,.52h-3c-.1-.16,0-.33,0-.5a4.47,4.47,0,0,1,0-.52v-.52H99.78s-.06,0-.06-.07a.57.57,0,0,1,0-.13v-1.3l0,0,0,0h2.92s0,0,.07,0a1.6,1.6,0,0,0,0-.49c0-.18,0-.35,0-.52v-3.58c.17-.1.34,0,.51,0s.35,0,.52,0a1.61,1.61,0,0,0,.53,0v-1.45a.22.22,0,0,1,.07-.07s0,0,.06,0h1.38a.55.55,0,0,0,0-.17v-4.35a.53.53,0,0,0,0-.12l0,0h-3l-.05,0a.14.14,0,0,1,0-.06v-2.86a.63.63,0,0,1,0-.14h1.45s.06,0,.06-.07,0,0,0-.06v-2.92s0,0,0-.06h-1.46l0,.06v1.43c-.15.11-.33,0-.49.05a4.51,4.51,0,0,1-.52,0h-.49s0,.06,0,.08a.13.13,0,0,0,0,.06v2.92c-.16.1-.34,0-.5,0s-.35,0-.52,0h-.53V109l-.07.07s0,0-.06,0H98.23c-.11.08-.07.2-.07.3v1.2l-.08.06H96.66l0,0a.13.13,0,0,0,0,.06v2.92s0,0,0,.08H95.1c-.11.18,0,.35-.06.52s0,.34,0,.52a1.48,1.48,0,0,1,0,.51H92s0,0,0,0a.62.62,0,0,1,0-.13v-1.31c-.15-.1-.33,0-.49,0s-.35,0-.52,0h-.5c-.06-.73-.08-3.92,0-6.19.15-.1.33,0,.49,0s.35,0,.52,0a1.61,1.61,0,0,0,.53,0v-3l.07-.07h1.43c.1-.08.06-.2.06-.3v-2.76l.08-.06s0,0,.06,0H95s0,0,0-.05a.13.13,0,0,0,0-.06v-1.4l-.08,0H92c-.11.17,0,.35,0,.51s0,.35,0,.52a1.61,1.61,0,0,1,0,.53H90.43s-.06,0-.06.07a.56.56,0,0,0,0,.13v1.29s0,0-.05,0l-.06,0H88.87l-.06-.08s0,0,0-.07v-1.36c-.17-.1-.34,0-.51,0s-.34,0-.52,0h-.52V93.55l0,0s0,0,.07,0h1.36c.11-.08.07-.2.07-.3V90.44l.07-.06H90.3s0,0,0,0a.14.14,0,0,0,0-.06V87.41a.41.41,0,0,0,0-.12,1.67,1.67,0,0,0-.5,0h-1s-.05,0-.05-.06a.17.17,0,0,1,0-.07V74.87s0,0-.06-.07H87.32l-.07-.07s0,0,0-.06V71.75c.08-.11.2-.07.3-.07h2.76s0-.06,0-.07c0-1.52,0-3,0-4.54a22.13,22.13,0,0,0-3.11,0v3a1.05,1.05,0,0,1-.52.05h-1v1.5s0,.06-.07.06H84.2s0,0,0,0a.14.14,0,0,0,0,.06v4.48s0,0,0,.06a1.67,1.67,0,0,1-.5,0h-1a.17.17,0,0,0-.06.06v.06c0,1.49,0,3,0,4.48,0,0,0,0,0,.07H81.09s-.07,0-.07.07a.56.56,0,0,0,0,.13v4.41c-.08.11-.2.06-.3.07h-1.2l-.06.07s0,0,0,.07v2.91l-.06,0h-3l-.07.05v3a1.05,1.05,0,0,1-.52,0c-.17,0-.35,0-.52,0a1.39,1.39,0,0,0-.53,0v3s0,.06-.07.06H73.29l-.05,0a.07.07,0,0,0,0,0c0,1,0,2,0,2.93l0,.06a1.67,1.67,0,0,1-.5,0c-.15,0-.3,0-.45,0h-.51l0,.06a.13.13,0,0,0,0,.06v2.92s0,0-.06.08H70.18l-.07.06s0,.05,0,.07v2.92c-.08.11-.2.06-.3.06h-1.2l-.06.07v1.43c-.16.11-.34,0-.5,0h-.52a1.61,1.61,0,0,0-.53,0v1.47c-.18.1-.35,0-.52,0a4.51,4.51,0,0,1-.52,0,1.46,1.46,0,0,1-.51,0v-3s0,0,0,0h1.43s0,0,0,0a.13.13,0,0,0,0-.06v-2.92s0,0,0-.07a1.67,1.67,0,0,1,.5,0c.15,0,.3,0,.45,0h.52c.1-.17,0-.34,0-.51s0-.34,0-.52a1.33,1.33,0,0,1,0-.52H70l.07-.07V91.94h3.06s0-.06,0-.08c0-.49,0-1,0-1.48h1.36a.48.48,0,0,0,.12,0s0,0,.07-.06c0-.39,0-.8,0-1.2,0-.1,0-.22-.06-.3H73.23v-3s0,0,.06-.07h1.2c.1,0,.22,0,.29-.06V84.28s0,0,0-.07l0,0H71.67v4.66H70.19l-.08.06v3.06H68.55V90.46l0,0,0,0H67v-3s0,0,.07-.06h1.43l.06-.07v-3H70l0,0a20.66,20.66,0,0,0,0-3.06h-1.5v3.1H67.19a.56.56,0,0,0-.13,0s0,0-.07.07v1.45a1.38,1.38,0,0,1-.53,0h-.52c-.16,0-.34-.06-.49,0a.25.25,0,0,0,0,.07v2.86s0,0,0,.06,0,0-.05.08h-.49a4.56,4.56,0,0,0-.52,0c-.16,0-.34-.06-.49,0v1.3a.57.57,0,0,1,0,.13s0,0-.06.07H62.38l-.06-.07s0,0,0-.06V85.83a.13.13,0,0,0,0-.06l-.07-.07H60.79a1.61,1.61,0,0,1,0-.53c0-.17,0-.35,0-.52s.05-.34,0-.5H59.28l-.05,0a.53.53,0,0,1,0-.12V79.64a.55.55,0,0,1,0-.17h1.38s0,0,.06,0l.07-.07V77.92h.53a4.51,4.51,0,0,0,.52,0c.16,0,.34.06.51,0v-.52c0-.15,0-.31,0-.46a1.39,1.39,0,0,1,0-.53h.5a4.51,4.51,0,0,0,.52,0c.16,0,.34.06.5,0,0-1,0-2,0-3,0,0,0,0,0-.06H62.35a1.52,1.52,0,0,0,0,.52c0,.17,0,.34,0,.51s.06.35-.05.53H60.79a1.55,1.55,0,0,0,0,.52c0,.18,0,.35,0,.52s.05.34,0,.51H57.78s0,0-.06,0,0,0-.08.06v1.39a.14.14,0,0,1,0,.06l0,0h-1.5V73.24h3.06s.06-.06.06-.08V71.68h1.48l0,0s0,0,0-.05V70.12h1.49l.07-.06V68.67a.13.13,0,0,1,0-.06l.05,0H63.8s0,0,.08,0V67.12a.14.14,0,0,0,0-.06s0,0,0,0h-3s0,0,0,.07v3H59.28l-.05,0a.09.09,0,0,0,0,0v1.47H56.14s0,.06,0,.08c0,.49,0,1,0,1.48H54.59s0,0-.07.07v3H54c-.18,0-.35,0-.52,0s-.34-.06-.51,0v1a1.7,1.7,0,0,1,0,.54h-.5c-.17,0-.35,0-.52,0s-.34-.06-.5,0V79.4l-.06.07H47c-.1,0-.21,0-.3.06V81H45.26s0,0,0,0,0,0,0,.06v1.47h-3s0,0-.07.07v1.45a1.39,1.39,0,0,1-.53,0c-.17,0-.34,0-.52,0a1.05,1.05,0,0,0-.52,0v1.46s-.05,0-.07,0h-3l-.06,0v1.35s0,0,0,.07,0,0-.05.08h-1c-.16,0-.34-.06-.49,0v1.24a1.21,1.21,0,0,1,0,.19s0,0-.06.07H34.31a1.39,1.39,0,0,0,0,.53c0,.17,0,.35,0,.52s0,.34-.05.52H32.75a1.39,1.39,0,0,0,0,.53c0,.17,0,.34,0,.51s0,.35-.05.51H31.23l-.08.06v.48c0,.18,0,.35,0,.52s.05.34-.06.5H29.66l-.06,0v3.06h.52c.17,0,.34,0,.52,0a1.05,1.05,0,0,0,.52,0v-1.5h.52a4.47,4.47,0,0,0,.52,0c.17,0,.34.06.51,0v-.52c0-.15,0-.31,0-.46a1.64,1.64,0,0,1,0-.53h.5c.17,0,.35,0,.52,0s.34,0,.5-.06v-1.3a.57.57,0,0,1,0-.13s0,0,.06-.07h1.2c.1,0,.22,0,.3-.07V90.51s0-.05,0-.06a.22.22,0,0,1,.07-.07h3v-.53a4.51,4.51,0,0,1,0-.52c0-.16-.06-.34,0-.51h.52c.15,0,.3,0,.45,0a1.67,1.67,0,0,0,.54,0v-.51c0-.17,0-.34,0-.51s0-.35.06-.5H42l.07-.06V86c0-.1,0-.21.07-.29h1.49v1.36a.56.56,0,0,0,0,.13l.06.07h1.2c.1,0,.22,0,.3-.06V85.71h1.47a.07.07,0,0,0,.05,0,.09.09,0,0,0,0,0V84.15h1.48s0,0,0,0,0,0,0-.05V82.59h1.49l.07-.06v-1.2c0-.1,0-.22.07-.3h2.85a.57.57,0,0,0,.13,0s0,0,.07-.06v-1.2c0-.1,0-.22.07-.3h1.49v3.12H53s0,0-.07.06v1.21c0,.1,0,.21.07.29h1.49v1.56H53.05s0,0,0,0,0,0,0,.05v1.48H51.49l-.05,0a.09.09,0,0,0,0,0v1.47H49.93l0,0a.09.09,0,0,0,0,0v1.47H48.29V88.9s0,0-.06-.08H46.79l0,0v1.46l.06,0h1.48v1.56H46.81l-.08.06c0,.45,0,.91,0,1.38,0,0,0,.05,0,.06l0,0h1.46s0,0,0-.06V91.94h1.48s0,0,0,0,0,0,0,0V90.38h1.48l.05,0s0,0,0,0V88.82h1.47l.06,0s0,0,0-.05V87.27h1.56v3l.07.06h1.48V93.5H54.61s0,0,0,0,0,0,0,0v1.48H53l-.07,0V96.5a.13.13,0,0,0,0,.06l0,0h1.46l0-.06c0-.5,0-1,0-1.48h1.55v3.06l.08,0h1.48v1.49s0,0,.07.07h1.2c.1,0,.21,0,.29-.07V98.17h1.56v3.12H59.28l-.05,0s0,0,0,.05v1.48H57.71c-.11-.08-.06-.2-.07-.3v-1.2l-.07-.06H56.14c-.11.16,0,.34,0,.5a4.51,4.51,0,0,0,0,.52v.5a1.64,1.64,0,0,1-.53,0h-1c-.11.17,0,.34,0,.51s0,.34,0,.52v1c0,.17,0,.34,0,.51a1.61,1.61,0,0,1,0,.53H53L53,106s0,0,0,.06v1.37c-.08.1-.2.06-.3.06-.41,0-.81,0-1.2,0,0,0-.06.06-.06.08v3c-.16.11-.33,0-.5.06s-.35,0-.52,0h-.5a1.7,1.7,0,0,0,0,.54c0,.15,0,.3,0,.45v.52c-.17.1-.34,0-.51,0s-.34,0-.52,0a1.34,1.34,0,0,0-.52,0v3s0,.06-.07.07H46.8c-.11.08-.06.2-.06.3,0,.41,0,.81,0,1.2,0,0,0,.06-.07.06H45.23c-.1.16,0,.34,0,.5s0,.35,0,.52v.5a1.46,1.46,0,0,1-.54,0h-1l0,.06a.13.13,0,0,0,0,.06v2.92s0,0-.06.07H42.13s-.06,0-.07.07V123c-.08.11-.19.06-.29.06H40.56l-.06.07v1.43c-.16.1-.33,0-.5,0s-.34,0-.52,0H39a1.68,1.68,0,0,0,0,.54c0,.15,0,.3,0,.45v.52c-.16.11-.34,0-.5,0s-.35,0-.52,0a1.39,1.39,0,0,0-.53,0v4.59c-.18.1-.35,0-.52,0s-.35,0-.52,0a1.16,1.16,0,0,0-.52,0v1.45l-.07.06H34.33c-.11.15,0,.33-.06.49s0,.35,0,.52v.5a1.44,1.44,0,0,1-.54,0c-.15,0-.3,0-.45,0h-.52c-.1.17,0,.34,0,.51s0,.35,0,.52a1.39,1.39,0,0,1,0,.53H31.2c-.1.18,0,.35-.05.52s0,.34,0,.52a1.34,1.34,0,0,1,0,.52H29.66s-.06.05-.06.07a.57.57,0,0,0,0,.13v1.3c-.15.11-.33,0-.49.06h-1a1.61,1.61,0,0,0,0,.53c0,.15,0,.31,0,.46v.52c-.17.1-.35,0-.51,0a4.51,4.51,0,0,1-.52,0h-.53v3.06c-.18.1-.35,0-.52.05s-.34,0-.52,0a1.33,1.33,0,0,0-.52,0v1.46l-.07.06H23.43l-.05,0a.11.11,0,0,1,0-.06V140.3s.06-.05.08-.05h1.41s0,0,.06-.06a.13.13,0,0,0,0-.06v-2.92s0,0,0-.07H26.4s.06,0,.07-.07a.13.13,0,0,0,0-.06v-2.92s0,0,.06-.07H28S28,134,28,134a.62.62,0,0,0,0-.13V130.9h1.48l.07-.06v-1.39a.13.13,0,0,0,0-.06l0,0H28v1.55h-1.5c-.1.08-.06.19-.06.29,0,.41,0,.82,0,1.21-.05,0-.06,0-.08,0H25c-.1.16,0,.33,0,.5s0,.34,0,.52a1.62,1.62,0,0,1,0,.53H23.41c-.1.18,0,.35-.05.52s0,.34,0,.52v.52H21.87l-.07.07v3c-.15.11-.33,0-.49.06h-1a1.61,1.61,0,0,0,0,.53c0,.15,0,.31,0,.46v.52c-.16.1-.34,0-.5,0a3,3,0,0,1-.52,0,1.32,1.32,0,0,1-.52,0v-6.15s0,0,.05,0h1.43c.11-.08.06-.19.06-.29,0-.41,0-.82,0-1.2.05,0,.06-.06.08-.06s0,0,.06,0h1.36l.05-.06s0,0,0-.06v-2.92l0-.06a2.07,2.07,0,0,1,.5,0h1l.05-.06a.13.13,0,0,0,0-.06V126.3s0,0,.06-.08h1.43l.07-.07v-1.42s0,0,0,0l.05,0h1.4l.06-.07v-3c.16-.1.34,0,.5,0h.52a1.62,1.62,0,0,0,.53,0V120c.18-.1.35,0,.52-.05s.35,0,.52,0a1.33,1.33,0,0,0,.52,0v-3l.08-.06H31.1c.1-.16,0-.33,0-.5s0-.34,0-.52v-.5a1.68,1.68,0,0,1,.54,0h1c.1-.16,0-.34.05-.51s0-.34,0-.51a1.39,1.39,0,0,1,0-.53H34.2l.07-.07v-3h1.47a.09.09,0,0,0,0,0l0,0v-1.48H37.3a.09.09,0,0,0,.05,0s0,0,0,0c0-.49,0-1,0-1.48h1.49l.07-.06v-1.38a.13.13,0,0,0,0-.06s0,0,0,0H37.43s0,0,0,.06c0,.5,0,1,0,1.48H35.91s0,0,0,0a.09.09,0,0,0,0,0v1.47H34.35s0,0-.05,0l0,0Zm3.11-10.91h1.48s0,0,0,0,0,0,0,0V98.17h1.48s0,0,0,0,0,0,0,0V96.61c.49,0,1,0,1.48,0l.05,0a.09.09,0,0,0,0,0V95.06h1.48s0,0,.08,0V93.61a.13.13,0,0,0,0-.06l0,0H42.11s0,0,0,.07v1.48H40.58l0,0s0,0,0,0v1.47H39a.09.09,0,0,0-.05,0,.07.07,0,0,0,0,0v1.47H37.47a.07.07,0,0,0,0,0,.09.09,0,0,0,0,.05c0,.49,0,1,0,1.47H35.91s0,0,0,0,0,0,0,0v1.48h-3s0,0-.07.07v1.49H31.66c-.16,0-.34,0-.51.05v1.42a.09.09,0,0,0,0,.05.53.53,0,0,0,.12,0h2.86l.06,0,0,0c0-.49,0-1,0-1.5h1.25c.1,0,.22,0,.3-.07v-1.49H37.3a.09.09,0,0,0,.05,0s0,0,0-.05C37.39,100.71,37.38,100.22,37.38,99.73ZM35.83,81h1.48l.07-.06c0-.44,0-.91,0-1.38a.13.13,0,0,0,0-.06l0,0H35.87s0,0,0,.06V81H34.35s0,0-.08.06v1.38s0,0,0,.06l0,0h1.46s0,0,0-.07Zm4.67-3.11H42s0,0,.08,0V76.47a.13.13,0,0,0,0-.06s0,0,0,0H40.55s0,0,0,.06v1.49H39s0,0-.08,0v1.39s0,0,0,.06,0,0,0,0h1.46l0-.06Zm32.73-1.56h1.48l.07-.06V74.91a.13.13,0,0,0,0-.06l0,0H73.27s0,0,0,.07v1.48H71.74l-.07.06V77.8a.13.13,0,0,0,0,.06s0,0,0,0h1.46l0-.06C73.23,77.34,73.23,76.85,73.23,76.36ZM51.41,71.68h1.47s0,0,.06,0,0,0,0-.05V70.12h3l.07-.05v-4.5s0,0,0-.06,0,0,0-.05H54.57s0,.05,0,.07,0,0,0,.06v2.85a.13.13,0,0,1,0,.06s0,0-.06.07H53s-.06.05-.06.07v1.48H51.49l-.05,0a.09.09,0,0,0,0,0v1.47H49.93s0,0-.08.06v1.38s0,0,0,.06l0,0h1.46s0,0,0-.07Zm0-6.23h1.47s0,0,.06,0l0,0V63.89H56l.07-.06V62.39l.07-.06h2.91s0,0,.07,0l.07-.07V60.81a1.53,1.53,0,0,1,.52,0h.52c.17,0,.34.06.51-.05V59.3s0,0,0,0a22,22,0,0,0-3.09,0v1.36s0,0,0,.07l0,0-.06,0H54.63l-.05,0,0,.05v1.29a.57.57,0,0,1,0,.13s0,0-.06.07h-1.2c-.1,0-.21,0-.29.07v1.49H51.49l-.05,0,0,0v1.48H49.93s0,0-.08.06v1.38a.13.13,0,0,0,0,.06s0,0,0,0h1.46s0,0,0-.06Zm14,14H64l-.07,0v3.06H62.39l-.07.06V84s0,0,0,.06l0,0h1.46s0,0,0-.06c0-.49,0-1,0-1.48h1.48l.07-.06V79.47h1.49l.07,0V78A.13.13,0,0,0,67,78l0,0H65.48l0,.06C65.43,78.49,65.43,79,65.43,79.47ZM37.38,121.55h1.49s0,0,.07-.06V120.1a.14.14,0,0,1,0-.06s0,0,0-.05h1.41s0,0,.08-.06v-.48c0-.17,0-.35,0-.52s0-.34.06-.51H42s.05,0,.05-.07v-3h1.49s0,0,.07-.07v-1.48h.53a4.34,4.34,0,0,0,.51,0c.17,0,.35.06.53,0v-3a1.53,1.53,0,0,1,.52,0c.17,0,.35,0,.52,0s.34,0,.5,0v-1.37a.13.13,0,0,1,0-.06s0,0,0-.08h1.4l.05,0,0,0v-1.43s0,0,.07-.07h1.45c.06-.68.06-4.12,0-4.66H48.29v.52c0,.17,0,.35,0,.52s.06.34,0,.51h-1a1.68,1.68,0,0,0-.54,0V105c0,.17,0,.34,0,.52s.06.34,0,.49H45.25s0,0-.07.06c0,.38,0,.79,0,1.2,0,.1,0,.21-.06.29H43.68s0,0-.07.06v3a1.33,1.33,0,0,1-.52,0c-.17,0-.35,0-.52,0s-.34,0-.51,0v.52c0,.15,0,.3,0,.45a1.7,1.7,0,0,1,0,.54h-.5c-.17,0-.35,0-.52,0s-.34,0-.5,0v1.43s0,0,.06.08c.39,0,.8,0,1.2,0,.1,0,.22,0,.3.06v1.49H39l-.08.05v.49c0,.17,0,.34,0,.51s.05.34,0,.5H37.47l-.09.06v4.62H35.89s0,0-.07.07v1.45a1.53,1.53,0,0,1-.52,0h-.52c-.17,0-.34-.06-.51,0v3s0,0,0,0a.53.53,0,0,0,.12,0h1.35a.12.12,0,0,0,0,0c0-.49,0-1,0-1.5.44,0,.85,0,1.26,0,.1,0,.22,0,.29-.06Zm85.7-105.92s0,0-.07,0h-7.65s0,0,0,.05v1.47a1.53,1.53,0,0,0,.52,0c.17,0,.34,0,.51,0s.34-.06.52,0v1.47c.74.06,4.13.05,4.68,0V17.14h1c.17,0,.34.05.5,0Zm-62.36,42a26.87,26.87,0,0,0,0-3.11H59.25a24.82,24.82,0,0,0,0,3.11Zm0,6.24h-3l-.07.06v1.4a.08.08,0,0,0,0,.05l0,0h3l.06,0ZM48.3,62.33h1.48s0,0,.07-.06V60.88a.14.14,0,0,0,0-.06l0,0H48.36l-.06,0Zm28,9.35H74.85l-.07.06v1.4a.08.08,0,0,0,0,0s0,0,0,0h1.42s0,0,.06,0Zm42.15-51.42s0,0,0,0c0,.49,0,1,0,1.48a1.26,1.26,0,0,0,.51,0,2.26,2.26,0,0,0,.52,0c.16,0,.34.05.5,0V20.26ZM57.64,51.44v1.47a.22.22,0,0,0,.07.07c.38,0,.79,0,1.2,0,.1,0,.21,0,.29-.06V51.56s0-.05,0-.07l-.05-.05ZM32.7,126.22H31.22s0,0-.07.07v1.39a.14.14,0,0,0,0,.06l0,0h1.43s0,0,.06,0Z"/><path d="M68.55,91.94v3c-.08.11-.2.06-.3.06H67c0,.51,0,1,0,1.51-.16.1-.33,0-.5,0H66a1.61,1.61,0,0,0-.53,0v3c-.18.1-.35,0-.52,0h-1v3s-.05.06-.07.07H62.38c-.11.15-.05.33-.06.49s0,.35,0,.52v.49s-.06.05-.08.05H60.82l0,0a.13.13,0,0,0,0,.06v2.92s0,0,0,.08H59.25c-.1.18,0,.35,0,.52s0,.35,0,.52a1.34,1.34,0,0,1,0,.52H57.7l-.06.07v3c-.16.11-.33,0-.5,0a4.47,4.47,0,0,1-.52,0h-.5a1.62,1.62,0,0,0,0,.53c0,.16,0,.31,0,.46v.51c-.16.11-.34,0-.51,0a4.34,4.34,0,0,1-.51,0h-.53v1.48l-.07.07H53v-3s0,0,.06-.07h1.45a1.16,1.16,0,0,0,0-.52,4.51,4.51,0,0,0,0-.52v-1c0-.17,0-.34,0-.51a1.39,1.39,0,0,1,0-.53H56l.06-.06s0,0,0-.07v-1.36c.08-.11.2-.06.3-.07h1.2s.06,0,.06-.07a.56.56,0,0,0,0-.13v-2.85c.08-.11.2-.06.3-.06h1.2l.06-.07s0,0,0-.07v-1.42h1.48l0,0s0,0,0-.06v-1.47h1.49s0,0,.07-.06V98.47c0-.1,0-.22-.07-.3H60.76V96.61c.49,0,1,0,1.48,0,0,0,0,0,.08,0V93.5h1.49l.07-.07c0-.38,0-.79,0-1.2,0-.1-.05-.21.06-.29h1.49V93.3a.57.57,0,0,0,0,.13s0,0,.06.07h1.2c.1,0,.22,0,.29-.07V91.94Z"/><path d="M115.3,3.12V4.61c-.08.11-.2.06-.3.06h-1.25c0,.51,0,1,0,1.5l0,0h-6l-.12,0s0,0,0,0V4.73c.17-.11.34,0,.51-.05h.52a1.32,1.32,0,0,0,.52,0V3.2c0-.05.06-.08.07-.08a.56.56,0,0,1,.13,0Z"/><path d="M53,115.31v3.07l-.09.05H51.46c-.1.16,0,.33-.05.5s0,.34,0,.51v.49l-.07.06H49.85v-3.06l.08-.06h1.43c.1-.16,0-.33,0-.5s0-.34,0-.51v-.49l.07-.05Z"/><path d="M71.67,17.14V15.6h3.06s0,0,0,0a.13.13,0,0,1,0,.06v1.39s-.06.05-.08.05Z"/><path d="M71.67,17.14v1.49s0,0,0,.06h-3l0-.05s0,0,0-.06V17.2s.06-.06.08-.06Z"/><path d="M71.67,62.33V60.85s0,0,0-.06h1.46a.08.08,0,0,1,0,0,.14.14,0,0,1,0,.06v1.38l-.08.06Z"/><path d="M73.23,65.45V64s0,0,0-.07h1.46l0,.05s0,0,0,.06v1.38l-.07.06Z"/><path d="M121.54,1.56V.06L121.6,0H123c.11.08.07.19.07.3V1.5s0,.06-.07.06h-1.48Z"/><path d="M115.3,3.12V1.57h1.51l0,.05s0,0,0,.06V3.06s-.06.06-.08.06Z"/><path d="M74.77,20.26v1.5s0,.06-.06.06H73.29l0-.05a.11.11,0,0,1,0-.05v-1.4s0-.06.06-.06Z"/><path d="M71.66,21.82v1.5l-.06.05H70.17l0-.05a.14.14,0,0,1,0-.06V21.88s0-.06.07-.06Z"/><path d="M23.36,42.07V40.59s0,0,.05-.06h1.46s0,0,0,0a.13.13,0,0,1,0,.06V42c-.05,0-.06,0-.08,0Z"/><path d="M88.81,46.75V45.26c.08-.11.19-.07.29-.07h1.2s.06.05.06.07a.57.57,0,0,1,0,.13v1.36Z"/><path d="M68.55,46.75H70s0,0,.06,0v1.46l0,0H68.61c0-.05-.06-.06-.06-.08Z"/><path d="M87.25,48.31V46.83l0,0,0,0h1.48v1.47s0,0,0,.06l0,0Z"/><path d="M87.25,48.31v1.48s0,0,0,.06H85.74s0,0,0,0a.13.13,0,0,1,0-.06V48.37s.06-.06.08-.06Z"/><path d="M70.11,54.54V53.06s0,0,0-.06h1.46s0,0,0,0a.13.13,0,0,1,0,.06v1.38s-.06.06-.08.06Z"/><path d="M63.88,110.64v-1.48s0,0,0-.07h1.46l0,0s0,0,0,.06v1.38l-.07.06Z"/><path d="M63.88,110.64c0,.49,0,1,0,1.48,0,0,0,0,0,.06H62.37l0,0a.13.13,0,0,1,0-.06V110.7l.07-.06Z"/><path d="M71.67,57.66V56.18s0,0,0-.07h1.46a.1.1,0,0,1,0,0,.08.08,0,0,1,0,.06V57.6l-.08.06Z"/><path d="M49.85,120v1.54H48.34s0,0,0,0a.13.13,0,0,1,0-.06v-1.38c.05,0,.06-.06.08-.06Z"/><path d="M42.05,129.34v1.49s0,.06-.06.07H40.57c-.11-.08-.07-.2-.07-.3v-1.19s0-.07.07-.07h1.48Z"/><path d="M57.64,93.5V90.38h1.48l.05,0s0,0,0,0V88.82h1.48s0,0,.08.06v3.06H59.27c-.11.08-.07.19-.07.29v1.2l-.07.07H57.64Z"/><path d="M54.53,79.47V78a.09.09,0,0,1,0,0s0,0,0,0h1.47v1.47s0,0,0,0a.09.09,0,0,1,0,0Z"/><path d="M56.08,84.15H54.53V82.59H56a.09.09,0,0,1,0,0s0,0,0,0Z"/><path d="M56.08,85.71V84.15h1.49c.11.08.07.19.07.29,0,.41,0,.82,0,1.2,0,0,0,.06-.07.06H56.08Z"/><path d="M54.53,87.27V85.71h1.55v1.47a.09.09,0,0,1,0,0s0,0,0,0Z"/><path d="M57.64,88.82V87.33c.08-.11.2-.06.3-.06h1.2s.06,0,.06.06v1.49Z"/><path d="M57.64,90.38H56.08c0-.49,0-1,0-1.47a.09.09,0,0,1,0,0s0,0,.05,0h1.47Z"/><path d="M67,91.94H65.43c0-.49,0-1,0-1.48l0,0a.09.09,0,0,1,0,0H67Z"/><path d="M62.32,93.5H60.84l-.05,0s0,0,0,0V91.94h1.47s0,0,.06,0l0,0Z"/><circle cx="45.96" cy="83.37" r="1.1"/><path d="M45.18,85.71H43.62V84.23s0,0,0,0,0,0,.05,0h1.48Z"/><path d="M48.29,82.59H46.73V81h1.48s0,0,0,0,0,0,0,.06Z"/><path d="M56.08,95.06V93.5h1.56V95a.09.09,0,0,1,0,0s0,0,0,0Z"/><path d="M60.76,96.61H59.2V95.13c.08-.12.19-.07.29-.07.41,0,.82,0,1.21,0l.06.07v1.48Z"/><path d="M59.2,98.17H57.64V96.7a.07.07,0,0,1,0,0,.09.09,0,0,1,0,0H59.2Z"/><path d="M73.23,88.82v1.56H71.75s0,0,0,0,0,0,0,0V88.82Z"/></g></g></svg>