<svg xmlns="http://www.w3.org/2000/svg" viewBox="0 0 123.58 91.29"><title>Recurso 21ART</title><g id="Capa_2" data-name="Capa 2"><g id="Capa_1-2" data-name="Capa 1"><path d="M21.49,69.86H5.54a1.92,1.92,0,0,1-.16-.58q0-7.48,0-15a3.21,3.21,0,0,1,.1-.52c1.67-.07,3.37,0,5.09-.05.35-.53.12-1.14.16-1.71s0-1.19,0-1.78a5.75,5.75,0,0,1,.11-1.83H32c.37-.61.14-1.22.18-1.79s0-1.19,0-1.79A4.91,4.91,0,0,1,32.35,43h91c.06.07.13.11.16.18a.49.49,0,0,1,0,.21q0,7.73,0,15.45s-.09.1-.21.24H118.4c-.12.13-.2.18-.21.24a3.38,3.38,0,0,0,0,.45v4.48c-.54.37-1.15.15-1.71.19s-1.2,0-1.79,0H113c-.11.16-.17.22-.18.28a.81.81,0,0,0,0,.22v9.85a1.57,1.57,0,0,1,0,.25c-.54.33-1.14.09-1.71.13s-1.2,0-1.79,0a5,5,0,0,0-1.82.12v5c-.13.14-.17.21-.24.24a.81.81,0,0,1-.22,0h-4.7c-.36.28-.21.68-.22,1,0,1.4,0,2.81,0,4.14-.15.12-.2.18-.26.2a.81.81,0,0,1-.22,0H91.51c-.36.55-.13,1.16-.18,1.73s0,1.19,0,1.78a5.52,5.52,0,0,1-.11,1.8H48.49c-.33-.52-.09-1.13-.13-1.7s0-1.2,0-1.79A4.71,4.71,0,0,0,48.21,86H32.47c-.13-.14-.22-.18-.23-.24a3.38,3.38,0,0,1,0-.45V80.6H48.11s.11-.1.2-.18V75.36a4.65,4.65,0,0,0-1.77-.12c-.6,0-1.2,0-1.79,0H41.17c-.6,0-1.2,0-1.79,0s-1.17.18-1.8-.17V69.86H35.77c-.6,0-1.2,0-1.79,0s-1.18.19-1.71-.14c0-.11,0-.18,0-.25V59.62a.81.81,0,0,0,0-.22,1.91,1.91,0,0,0-.19-.28h-4.8a.35.35,0,0,0-.2.05.91.91,0,0,0-.18.17V64a.54.54,0,0,1,0,.22c0,.07-.08.11-.2.26H22.51c-.35,0-.75-.14-1,.23Zm59.09,5.37h10.6a4.8,4.8,0,0,0,.14-1.82c0-.6,0-1.2,0-1.79s-.19-1.18.17-1.76h1.78c.52,0,1,0,1.56,0a6,6,0,0,0,1.74-.08,1.94,1.94,0,0,0,.11-.43q0-7.61,0-15.21a.42.42,0,0,0,0-.2,1,1,0,0,0-.18-.19H86.21c-.06,0-.11.08-.26.2v1c0,2.83,0,5.67,0,8.5,0,.35.14.75-.22,1H81.25a3.23,3.23,0,0,0-.44,0c-.06,0-.11.1-.24.24v5a4.76,4.76,0,0,1-1.82.13c-.59,0-1.19,0-1.78,0s-1.18-.19-1.76.17v1.77c0,.52,0,1,0,1.57a6.16,6.16,0,0,1-.07,1.72c-.1.06-.16.13-.21.13H64.85a.5.5,0,0,0-.21,0c-.06,0-.1.1-.18.17,0,1.62,0,3.26,0,4.9,0,.05.08.11.13.17a2,2,0,0,0,.41.08H80a2.26,2.26,0,0,0,.58-.16ZM59.09,85.94V81.28a2.14,2.14,0,0,0,0-.44c0-.06-.09-.11-.21-.24-1.33,0-2.74,0-4.14,0-.34,0-.74-.15-1,.23V85.3a3.2,3.2,0,0,0,0,.44c0,.06.09.11.18.2Z"/><path d="M91.32,5.4v5.14c-.27.37-.67.22-1,.22H64.68c-.12.13-.2.18-.21.24a3.38,3.38,0,0,0,0,.45v4.46a.83.83,0,0,1-.17.16.36.36,0,0,1-.2.06H48.66c-.07,0-.13.06-.19.1a.88.88,0,0,0-.12.17.81.81,0,0,0,0,.22v4.66c-.09.08-.13.15-.19.18a.49.49,0,0,1-.21,0H32.51s-.11.07-.25.16v4.95c-.13.13-.17.2-.24.23a.49.49,0,0,1-.21,0H22a.81.81,0,0,0-.22,0c-.06,0-.11.09-.24.2V32c-.14.16-.19.26-.24.27a3.38,3.38,0,0,1-.45,0H11a.61.61,0,0,0-.16.16.42.42,0,0,0-.06.19c0,1.63,0,3.26,0,4.81-.14.12-.19.18-.26.2a.79.79,0,0,1-.22,0H5.55c-.35.55-.13,1.16-.17,1.73s0,1.19,0,1.79v1.79H.17A.43.43,0,0,1,0,42.79a.49.49,0,0,1,0-.21c0-3.36,0-6.71,0-10.07,0,0,.08-.11.19-.24H5.12c.14-.14.22-.18.25-.24a.81.81,0,0,0,0-.22v-4.7c.28-.37.68-.22,1-.22,1.4,0,2.81,0,4.32,0,.06-1.78,0-3.47,0-5.17.05-.05.09-.12.16-.15a.42.42,0,0,1,.2,0H21.2c.06,0,.12-.07.21-.13a6.16,6.16,0,0,0,.07-1.72c0-.52,0-1.05,0-1.57V16.32c.58-.36,1.18-.13,1.76-.17s1.19,0,1.79,0h7.18V11c.13-.14.17-.21.24-.24a.81.81,0,0,1,.22,0h26a.55.55,0,0,0,.22,0c.06,0,.11-.09.24-.21V5.61c.13-.12.19-.21.24-.21Z"/><path d="M91.32,5.34V.26c.27-.38.67-.23,1-.23h31c.35.57.12,1.17.17,1.74a15.27,15.27,0,0,1,0,1.79,5.75,5.75,0,0,1-.1,1.79Z"/><path d="M32.23,80.6H27.15c-.06,0-.12-.07-.18-.11s-.11-.12-.11-.17V75.23h5.08c.06,0,.12.07.18.1s.11.12.11.18Z"/><path d="M26.86,75.23H21.77c-.05,0-.11-.07-.17-.11s-.11-.12-.11-.18V69.86h5.08c.06,0,.12.07.18.11s.1.12.1.18C26.86,71.84,26.86,73.54,26.86,75.23Z"/></g></g></svg>