<svg xmlns="http://www.w3.org/2000/svg" viewBox="0 0 93.79 93.79"><title>Recurso 46MANDALA</title><g id="Capa_2" data-name="Capa 2"><g id="Capa_1-2" data-name="Capa 1"><path d="M41.06,0,26.61,27.05l14.45,27h0A38.24,38.24,0,0,1,41.06,0Z"/><path d="M9.61,17.86l8.9,29.35,29.35,8.9h0A38.24,38.24,0,0,1,9.61,17.86Z"/><path d="M0,52.73,27.05,67.19l27-14.46h0A38.24,38.24,0,0,1,0,52.73Z"/><path d="M17.86,84.18l29.35-8.9,8.9-29.34h0A38.24,38.24,0,0,1,17.86,84.18Z"/><path d="M52.73,93.79l14.46-27-14.46-27h0a38.24,38.24,0,0,1,0,54.09Z"/><path d="M84.18,75.93l-8.9-29.34L45.94,37.68h0A38.25,38.25,0,0,1,84.18,75.93Z"/><path d="M93.79,41.06l-27-14.45-27,14.45h0a38.24,38.24,0,0,1,54.09,0Z"/><path d="M75.93,9.61l-29.34,8.9L37.68,47.86h0A38.25,38.25,0,0,1,75.93,9.61Z"/></g></g></svg>