<svg xmlns="http://www.w3.org/2000/svg" viewBox="0 0 102.97 102.97"><defs><style>.cls-1{fill:none;stroke:#000;stroke-miterlimit:10;stroke-width:1.3px;}</style></defs><title>Recurso 58MANDALA</title><g id="Capa_2" data-name="Capa 2"><g id="Capa_1-2" data-name="Capa 1"><path class="cls-1" d="M89.73,68.48l1,0-2.31-8.63-13.52.38-2.49-1.34a11.46,11.46,0,0,0,3.94-1.48l2.34-1.44,23.42-.66a11.29,11.29,0,0,0-9-8.2l.87-.54-6.31-6.31L76.14,47.32l-2.83.08A11.29,11.29,0,0,0,76,44.15l1.31-2.42L97.24,29.45a11.3,11.3,0,0,0-11.92-2.59l.49-.9-8.63-2.31-6.43,11.9L68.34,37A11.37,11.37,0,0,0,69,32.88L69,30.14,80.09,9.52a11.28,11.28,0,0,0-11.61,3.72l0-1-8.63,2.31.38,13.52-1.34,2.49a11.46,11.46,0,0,0-1.48-3.94l-1.44-2.34L55.28.84a11.29,11.29,0,0,0-8.2,9L46.54,9l-6.31,6.31,7.09,11.52.08,2.83A11.29,11.29,0,0,0,44.15,27l-2.42-1.31L29.45,5.73a11.3,11.3,0,0,0-2.59,11.92l-.9-.49-2.31,8.63,11.9,6.43L37,34.63a11.37,11.37,0,0,0-4.16-.69L30.14,34,9.52,22.88a11.28,11.28,0,0,0,3.72,11.61l-1,0,2.31,8.63,13.52-.38,2.49,1.34a11.46,11.46,0,0,0-3.94,1.48L24.26,47,.84,47.69a11.29,11.29,0,0,0,9,8.2L9,56.43l6.31,6.31,11.52-7.09,2.83-.08A11.15,11.15,0,0,0,27,58.82l-1.31,2.42L5.73,73.52a11.3,11.3,0,0,0,11.92,2.59l-.49.9,8.63,2.31,6.43-11.9,2.41-1.49a11.33,11.33,0,0,0-.69,4.16L34,72.83,22.88,93.45a11.28,11.28,0,0,0,11.61-3.72l0,1,8.63-2.31-.38-13.52,1.34-2.49a11.46,11.46,0,0,0,1.48,3.94L47,78.71l.66,23.42a11.29,11.29,0,0,0,8.2-9l.54.87,6.31-6.31L55.65,76.14l-.08-2.83A11.29,11.29,0,0,0,58.82,76l2.42,1.31L73.52,97.24a11.3,11.3,0,0,0,2.59-11.92l.9.49,2.31-8.63-11.9-6.43-1.49-2.41a11.33,11.33,0,0,0,4.16.69L72.83,69,93.45,80.09A11.28,11.28,0,0,0,89.73,68.48ZM62.14,67.9l-8.87-4.79a11.25,11.25,0,0,0,.62,7.54L52.5,71l-5.28-8.57A11.28,11.28,0,0,0,44,69.29l-1.38-.37-.29-10.07a11.25,11.25,0,0,0-6.22,4.3l-1-1,4.79-8.87a11.25,11.25,0,0,0-7.54.62L32,52.5l8.57-5.28A11.28,11.28,0,0,0,33.68,44l.37-1.38,10.07-.29a11.25,11.25,0,0,0-4.3-6.22l1-1,8.87,4.79a11.25,11.25,0,0,0-.62-7.54L50.47,32l5.28,8.57A11.28,11.28,0,0,0,59,33.68l1.38.37.29,10.07a11.25,11.25,0,0,0,6.22-4.3l1,1-4.79,8.86a11.19,11.19,0,0,0,7.54-.61L71,50.47l-8.57,5.28A11.28,11.28,0,0,0,69.29,59l-.37,1.38-10.07.29a11.25,11.25,0,0,0,4.3,6.22Z"/></g></g></svg>