<svg xmlns="http://www.w3.org/2000/svg" viewBox="0 0 250.85 137.99"><title>Recurso 51ART</title><g id="Capa_2" data-name="Capa 2"><g id="Capa_1-2" data-name="Capa 1"><path d="M175.6,100.35h-4.11c0,.05-.07.07-.07.1a.28.28,0,0,0,0,.09v12.25l-.07.08h-4s0,0-.11.06v12.37c-.05.06-.07.09-.09.1h-3.91a.27.27,0,0,0-.09,0l-.1.08v12.4c-.93.09-8.68.11-16.63.05l-.07-.06a.31.31,0,0,1,0-.08v-16.5c.07,0,.09-.07.11-.07a.27.27,0,0,1,.09,0h3.91l.06-.07a.19.19,0,0,0,0-.08V108.81s0,0,.08-.1h4c.06-.06.09-.07.1-.1s0-.06,0-.09V96.25c.11-.15.28-.09.42-.09h3.68c.05-.06.08-.08.08-.11v-4L158.8,92a.15.15,0,0,0-.09,0H125.54s-.05,0-.1-.07v-4c-.06-.05-.07-.08-.1-.09h-8.09a.27.27,0,0,1-.09,0l-.08-.07v-4s.06-.07.08-.07a1.08,1.08,0,0,1,.18,0h8l.07-.07a.13.13,0,0,0,0-.08c0-1.31,0-2.61,0-3.91a.1.1,0,0,1,0-.07.18.18,0,0,1,.07,0h3.91l.08,0s.05,0,.06-.06a.15.15,0,0,0,0-.09V75.36s0,0,.07-.1h4a.91.91,0,0,0,.1-.1s0,0,0-.09V67c.11-.15.27-.09.41-.09,1.09,0,2.19,0,3.28,0h.41a1.08,1.08,0,0,1,.08-.11.27.27,0,0,0,0-.09V50.26l.07-.07.09,0H142s0,0,.09-.06V37.7s0-.05-.07-.06H129.71s-.05,0-.1.09v4l-.1.09h-4a.45.45,0,0,0-.07.07.11.11,0,0,0,0,.08c0,2.7,0,5.39,0,8.09a.1.1,0,0,1,0,.07.18.18,0,0,1-.07.05h-8.09l-.08,0-.06.06a.15.15,0,0,0,0,.09v8.09s0,0-.07.1h-4s-.09.07-.09.1a1,1,0,0,0,0,.18V71c-.11.14-.27.08-.41.08h-3.68l-.09.1v8.17a.45.45,0,0,1-.07.07l-.09,0c-5.36,0-11.23,0-12.37,0v-4a.45.45,0,0,0-.1-.1s0,0-.08,0H92.08a.17.17,0,0,1-.08-.07V58.61s0-.07.08-.07h4a.23.23,0,0,0,.07-.07.19.19,0,0,0,0-.08V50.29s0,0,0-.07l.07,0h4s0,0,.06-.07a.22.22,0,0,0,0-.08V37.74s0-.05-.07-.09H41.88l-.07.07a.27.27,0,0,0,0,.09V50.08c-.11.15-.27.09-.42.09H37.71c0,.06-.07.08-.08.11a.27.27,0,0,0,0,.09v3.89s-.05.06-.08.07a.11.11,0,0,1-.08,0H33.56s0,0-.1.07v12.4c-.25.15-.5.05-.73.07s-.42,0-.64,0H30.64c-.21,0-.43,0-.64,0a1.84,1.84,0,0,0-.73,0V83.53l-.1.09h-4a.23.23,0,0,0-.07.07.19.19,0,0,0,0,.08v3.91s0,0,0,.07l-.08,0s-.06,0-.09,0H21s-.05,0-.06.07a.25.25,0,0,0,0,.09c0,1.3,0,2.6,0,3.9,0,0,0,0-.06.09H.07L0,91.89s0-.06,0-.09V83.71c.12-.15.28-.09.42-.09H4.13c.1-1.22.13-26.78,0-33.37l-.06-.06-.08,0H.12s0,0-.1-.06V41.88s0-.05.07-.06H29.17l.1-.08V33.54c.05,0,.07-.09.1-.09h4l.07-.07a.19.19,0,0,0,0-.08V29.39s0-.05,0-.09a2.32,2.32,0,0,1,.7,0H79.35l.07-.08a.15.15,0,0,0,0-.09V25.2s0-.05.07-.11H91.88L92,25a.27.27,0,0,0,0-.09V21c.11-.15.27-.09.41-.09h16.23a.39.39,0,0,0,.08-.11s0-.06,0-.09V12.64a.6.6,0,0,1,.08-.08h.08c2.67,0,5.33,0,8,0a1.08,1.08,0,0,1,.19,0v4l.1.1h8.08s.07,0,.09,0,.05,0,.1.08v4c.06.05.08.08.1.08h12.36c.15-.12.09-.28.09-.43V12.6a1.94,1.94,0,0,1,.75,0c.21,0,.42,0,.63,0h2.71l.07-.08a.15.15,0,0,0,0-.09V8.47s0,0,.07-.1h4l.1-.1s0-.06,0-.09V.1c.08-.13.21-.1.32-.1h11.91l.24,0a.24.24,0,0,1,.07.09s0,.06,0,.09V4.09s0,.06.08.07a.11.11,0,0,0,.08,0h3.91s0,0,.1.06v4c.25.15.5.05.73.07s.42,0,.64,0h1.45c.21,0,.43,0,.64,0a1.84,1.84,0,0,1,.73.05v4c.06,0,.08.08.1.08h8.17a.22.22,0,0,1,.07.06.15.15,0,0,1,0,.09c0,2.69,0,5.39,0,8.08,0,0,0,0,0,.08,1,.07,29.8.11,33.32,0l.07-.06a.28.28,0,0,0,0-.09V16.83s0,0,.07-.08h20.76a.16.16,0,0,1,.07.07s0,.06,0,.09c0,1.3,0,2.6,0,3.9.12.15.28.09.42.09H234l.08.1a.28.28,0,0,1,0,.09V25a.46.46,0,0,0,.07.07l.08,0h3.91s.05,0,.09.06v8.24c-.21.13-.46,0-.69.06h-3.45v4.11l.08.07h4s.05,0,.06.07a.11.11,0,0,1,0,.08v3.91a.21.21,0,0,0,.05.09,2.32,2.32,0,0,0,.7,0h11.71a30.17,30.17,0,0,1,0,4.18h-8.21a.7.7,0,0,0-.09.09.27.27,0,0,0,0,.09v3.91c-.11.15-.28.09-.42.09h-3.68a.39.39,0,0,0-.08.11.27.27,0,0,0,0,.09v3.89s-.05.06-.08.07a.11.11,0,0,1-.08,0h-3.91s-.05,0-.1.07v4l-.1.1h-8.18l-.09.08V96.07c-.06.05-.08.09-.1.09h-8.18s-.05,0-.06-.07a.11.11,0,0,1,0-.08V92.1s0,0,0-.07a.18.18,0,0,0-.07,0,.27.27,0,0,0-.09,0h-3.82l-.08,0s-.05,0-.06-.06a.13.13,0,0,1,0-.09V58.64s0,0-.07-.1H205c-.06,0-.09-.07-.1-.1s0-.06,0-.09V54.42a.86.86,0,0,0-.23-.06h-7.91a1,1,0,0,0-.17,0s0,0-.05.07a.27.27,0,0,0,0,.09v3.89s-.05.06-.08.07a.11.11,0,0,1-.08,0h-3.91s0,0-.1.06v8.19l-.1.1s-.06,0-.08,0h-3.82s-.07,0-.09,0-.05,0-.1.08v4c-.06.05-.08.08-.1.08h-4c-.15.12-.09.28-.09.42v12l-.12.08h-4s0,0-.06.07a.22.22,0,0,0,0,.08q0,4.05,0,8.09s0,0-.07.1h-4l-.09.1a.27.27,0,0,0,0,.09ZM20.91,71.06V63a1.08,1.08,0,0,1,0-.18s0-.05.09-.1h4c.05-.05.08-.07.09-.1V54.53s0-.06,0-.09L25,54.37H16.8s-.07.06-.07.08V71s0,0,.07.08Z"/></g></g></svg>