<svg xmlns="http://www.w3.org/2000/svg" viewBox="0 0 150.42 80.59"><title>Recurso 22ART</title><g id="Capa_2" data-name="Capa 2"><g id="Capa_1-2" data-name="Capa 1"><path d="M59.08,80.58V75.41c-.13-.11-.18-.17-.24-.19a.59.59,0,0,0-.23,0h-4.7c-.37-.55-.14-1.15-.18-1.72s0-1.19,0-1.79V69.85H21.66c-.35-.57-.12-1.17-.16-1.74s0-1.2,0-1.79a5.2,5.2,0,0,0-.11-1.79H16.25c-.31.55-.08,1.15-.12,1.73s0,1.19,0,1.78A4.63,4.63,0,0,1,16,69.8H10.92c-.08-.09-.16-.14-.17-.2a3.38,3.38,0,0,1,0-.45V64.66c-.54-.37-1.14-.14-1.71-.18s-1.19,0-1.79,0H5.56c-.11-.16-.18-.22-.18-.28,0-1.63,0-3.27,0-4.92.57-.36,1.18-.12,1.75-.16s1.19,0,1.79,0A5.12,5.12,0,0,0,10.72,59V54c.14-.13.18-.2.24-.23a.55.55,0,0,1,.22,0h4.7c.38-.26.23-.66.23-1,0-1.4,0-2.81,0-4.14.13-.12.18-.2.24-.21a3.38,3.38,0,0,1,.45,0h4.48c.37-.54.15-1.15.19-1.72s0-1.19,0-1.78V43.11A5.33,5.33,0,0,1,23.33,43c.6,0,1.2,0,1.79,0h6.94c.36-.57.12-1.18.16-1.75s0-1.19,0-1.79a4.9,4.9,0,0,1,.12-1.81H48.17c.35-.62.13-1.22.17-1.8s0-1.19,0-1.79a4.3,4.3,0,0,1,.13-1.8H58.88c.11-.13.2-.19.21-.24,0-.23,0-.45,0-.67V27.08A66.51,66.51,0,0,1,69.71,27a.71.71,0,0,1,.12.18.77.77,0,0,1,0,.22v4.7c.56.35,1.17.12,1.74.17a15.27,15.27,0,0,0,1.79,0,5.12,5.12,0,0,0,1.81-.12V27A85.78,85.78,0,0,1,86,27V37.39c.13.12.18.2.24.21a3.23,3.23,0,0,0,.44,0h36.69c.38.27.23.67.23,1,0,1.4,0,2.81,0,4.14.14.12.19.2.25.2a3.23,3.23,0,0,0,.44,0h15.23c.37.54.14,1.15.18,1.72s0,1.19,0,1.79v1.73a5.67,5.67,0,0,0,1.85.13c.52,0,1,0,1.56,0h1.79c.36.58.12,1.18.16,1.75s0,1.2,0,1.79a5,5,0,0,0,.12,1.82h5c.13.13.21.17.23.24a.52.52,0,0,1,0,.22v4.69c-.27.38-.67.23-1,.23H134.51c-.11.13-.2.18-.2.24a3.38,3.38,0,0,0,0,.45v4.45a1.35,1.35,0,0,1-.17.17.39.39,0,0,1-.2.06H118.49c-.06,0-.12.06-.18.1a.88.88,0,0,0-.12.17.81.81,0,0,0,0,.22v4.71c-.56.35-1.17.12-1.74.16s-1.19,0-1.79,0a5.19,5.19,0,0,0-1.82.12v5c-.13.13-.17.2-.23.23a.55.55,0,0,1-.22,0H97.17a.59.59,0,0,0-.23,0c-.06,0-.11.09-.24.2v4.94a1.24,1.24,0,0,1-.24.22.81.81,0,0,1-.22,0Zm21.5-26.86c0-1.7,0-3.41,0-5.12,0-.06-.08-.11-.13-.16-3.89-.2-19.45-.14-21.36.09v5c-.13.11-.18.2-.24.2H53.72c0-1.7,0-3.4,0-5.1,0-.06-.08-.12-.19-.27H48.75a.49.49,0,0,0-.21,0,.47.47,0,0,0-.14.14v5.19h5.32q0,5.27,0,10.51c0,.06.09.11.21.24,3.12,0,6.32,0,9.51,0,.34,0,.74-.15,1,.23v4.7a.81.81,0,0,0,0,.22c0,.06.1.1.15.16a3.18,3.18,0,0,0,.43.06h25.7a1.86,1.86,0,0,0,.57-.16v-5.2h15.87s.11-.08.25-.2c0-1.33,0-2.74,0-4.14,0-.35-.15-.75.22-1h4.47a3.23,3.23,0,0,0,.44,0c.06,0,.1-.1.19-.21V48.5c-2.08-.2-14-.2-16.07,0,0,3.18,0,6.38,0,9.57,0,.35.15.75-.23,1H91.32V48.48a5.59,5.59,0,0,0-1.84-.12,15.1,15.1,0,0,0-1.78,0c-.57,0-1.17-.19-1.77.18v5.18ZM43,59.1c0-3.66,0-7.08,0-10.5,0-.05-.09-.11-.21-.25H38a.31.31,0,0,0-.19.06.85.85,0,0,0-.17.16v3.56c0,.45,0,.9,0,1.34,0,.06-.09.11-.21.24H33.25c-.35,0-.74-.15-1,.22v4.69a.55.55,0,0,0,0,.22c0,.06.09.11.21.24h4.14c.35,0,.75-.15,1,.23V64a.55.55,0,0,0,0,.22c0,.06.1.1.25.23H48a.37.37,0,0,0,.2-.07.81.81,0,0,0,.16-.16c0-1.63,0-3.27,0-4.9,0-.06-.09-.11-.21-.24Z"/><path d="M102.08,0V5.18a1.31,1.31,0,0,0,.25.19.81.81,0,0,0,.22,0h20.78a1,1,0,0,1,.18.18.48.48,0,0,1,0,.2c0,1.63,0,3.26,0,4.93H91.47c-.33-.53-.09-1.13-.14-1.7s0-1.2,0-1.79V5.42H86.13c-.08.08-.16.13-.17.19a3.38,3.38,0,0,0,0,.45v4.47c-.36.42-.84.21-1.25.21H43c-.06,1.78,0,3.48,0,5.17A74.61,74.61,0,0,1,32.29,16V5.55a.54.54,0,0,1,.15-.15.52.52,0,0,1,.22,0H74.73a.81.81,0,0,0,.22,0,1.31,1.31,0,0,0,.25-.19V.27c.14-.16.18-.25.24-.26a3.23,3.23,0,0,1,.44,0Z"/><path d="M10.74,21.49c0-1.71,0-3.42,0-5.13,0-.05.09-.1.2-.23h5a3.84,3.84,0,0,0,.16-1.79c0-.59,0-1.19,0-1.78a4.64,4.64,0,0,1,.12-1.77H26.68c.06.06.13.1.16.17a.49.49,0,0,1,0,.21V21a1.49,1.49,0,0,1-.11.4c-.06,0-.12.11-.18.11Z"/><path d="M5.37,26.86V32c0,.06-.08.11-.16.22h-5S.07,32.11,0,32a.42.42,0,0,1,0-.2V27.07c.15-.12.21-.2.26-.2Z"/><path d="M10.74,21.49c0,1.7,0,3.39,0,5.09,0,.06-.07.11-.11.17s-.11.11-.17.11c-1.7,0-3.39,0-5.09,0,0-1.69,0-3.39,0-5.08,0-.06.07-.12.1-.18s.12-.1.18-.1Z"/><path d="M91.32,59.1v5.37H86.19c-.38-.27-.23-.67-.23-1,0-1.41,0-2.81,0-4.15.13-.11.18-.2.24-.21a3.23,3.23,0,0,1,.44,0Z"/><path d="M80.58,53.72v5.33h-5.2s-.1-.08-.13-.15a.33.33,0,0,1,0-.2V53.93c.15-.12.21-.2.26-.2Z"/></g></g></svg>