<svg xmlns="http://www.w3.org/2000/svg" viewBox="0 0 90.86 90.86"><title>Recurso 32MANDALA</title><g id="Capa_2" data-name="Capa 2"><g id="Capa_1-2" data-name="Capa 1"><path d="M38.88,47,27.16,68.93,38.88,90.86h0a31,31,0,0,1,0-43.85Z"/><path d="M40.54,50.07l.82,24.85L62.47,88.05h0a31,31,0,0,1-21.93-38Z"/><path d="M43.52,51.89,56.65,73l24.85.81h0a31,31,0,0,1-38-21.93Z"/><path d="M47,52,68.93,63.7,90.86,52h0A31,31,0,0,1,47,52Z"/><path d="M50.07,50.32l24.85-.82L88.05,28.39h0a31,31,0,0,1-38,21.93Z"/><path d="M51.89,47.34,73,34.21l.81-24.85h0a31,31,0,0,1-21.93,38Z"/><path d="M52,43.85,63.7,21.93,52,0h0a31,31,0,0,1,0,43.85Z"/><path d="M50.32,40.79,49.5,15.94,28.39,2.81h0a31,31,0,0,1,21.93,38Z"/><path d="M47.34,39,34.21,17.85,9.36,17h0A31,31,0,0,1,47.34,39Z"/><path d="M43.85,38.88,21.93,27.16,0,38.88H0a31,31,0,0,1,43.85,0Z"/><path d="M40.79,40.54l-24.85.82L2.81,62.47h0a31,31,0,0,1,38-21.93Z"/><path d="M39,43.52,17.85,56.65,17,81.5h0A31,31,0,0,1,39,43.52Z"/></g></g></svg>