<svg xmlns="http://www.w3.org/2000/svg" viewBox="0 0 102.25 105.01"><title>Recurso 53ART</title><g id="Capa_2" data-name="Capa 2"><g id="Capa_1-2" data-name="Capa 1"><path d="M55.26,30.4v2.71c0,.07-.12,0-.18,0H33.19l0,0V19.4a.08.08,0,0,0,0,0H30.46a.05.05,0,0,1,0,0s0,0,0,0V16.67a.43.43,0,0,1,0-.05l0,0H.05l0,0V2.8c.13-.08.26,0,.39,0H2c.12,0,.24,0,.36,0s.27,0,.41,0V.05s0,0,.06,0H5.46s0,0,0,0a.08.08,0,0,1,0,0v2.6s0,0,0,.05l0,0H82.85l0,0s0,0,0,0V.07s0,0,0,0l0,0h2.65s0,0,0,.05V2.7s0,0,0,.06h2.66l.06.06v11c-.07.08-.16.05-.24.05H85.71l0,.06v2.65a.08.08,0,0,1,0,0H83s0,0-.06,0V30.36s0,0,0,0H85.6l.06.05v5.42l.06.06h2.66c.08.06.05.15.05.23v5.25s0,0,.06,0h2.65l0,0a.06.06,0,0,1,0,0v5.38l0,.06H93.9L94,47s0,0,0,0V52.4a.07.07,0,0,0,0,.05s0,0,0,.06h2.67l0,.05v8.19c-.07.08-.16,0-.24,0H94l0,.06a.11.11,0,0,0,0,0v2.6a.1.1,0,0,1,0,.05H91.25l0,0v8.22c.13.08.27,0,.4,0H94v11l.06,0h2.66c.08.07,0,.16,0,.24v8a1.23,1.23,0,0,0,.42,0h2.29s0,0,0,0a.06.06,0,0,1,0,0v8.14l0,.06h2.67s0,0,0,.05a.11.11,0,0,1,0,0c0,1.79,0,3.59,0,5.38,0,0,0,0,0,0H85.7s0,0,0,0V94a.08.08,0,0,0,0,0H83l0,0,0,0V85.73l0,0H80.2l-.06,0V77.44l0,0H77.48s0,0,0,0,0,0-.06,0v-11s0,0-.05,0H74.66l0,0a.07.07,0,0,1,0-.05V63.63s0,0,0,0l0,0H71.89l0,0v-.05q0-4.06,0-8.13s0,0,0-.06H69.14l-.06-.06V49.8c-.06-.09-.15,0-.23,0H66.37s-.05,0-.05-.06,0,0,0,0V41.51l0,0H63.62l0,0,0,0V36a.09.09,0,0,0,0-.05l0,0H60.85l-.06,0V30.46s0-.06,0-.06H55.26V27.7l0-.06H52.5V22.16s0,0-.06-.05H49.78l0-.06c0-.87,0-1.74,0-2.61,0,0,0,0,0-.05l0,0c-1.42,0-13.22,0-13.77,0V30.31a.07.07,0,0,0,0,.05l0,0c3.84,0,13.09,0,13.78,0v-.3c0-.73,0-1.46,0-2.2,0-.08,0-.17,0-.23H52.5v2.69s0,0,0,.07Zm16.58-8.28v2.65a.09.09,0,0,0,0,.05l0,.05h2.49c.08,0,.17,0,.23-.05V22.16l0,0Z"/></g></g></svg>