<svg xmlns="http://www.w3.org/2000/svg" viewBox="0 0 106.46 186.53"><title>Recurso 55ART</title><g id="Capa_2" data-name="Capa 2"><g id="Capa_1-2" data-name="Capa 1"><path d="M62.45,16.53v-1.3c-.08-.12-.21-.07-.31-.07H59.76l-.06-.08s0-.05,0-.07V13.85l-.06,0-.06,0H57.11l-.13,0a1.08,1.08,0,0,0,0,.4c0,.16,0,.32,0,.48v.4c-.15.13-.32.05-.47.06a2.84,2.84,0,0,1-.41,0h-.49v1.3l-.07.07H54.27c-.12-.08-.07-.2-.07-.31V13.85s-.06-.07-.08-.07H52.89l0,.06a.11.11,0,0,0,0,.06v5.29s0,0,0,.06,0,0,0,0h-2.6c-.13-.14,0-.31-.07-.46s0-.28,0-.41v-.49H46s0,0,0,0S46,18,46,18v2.54s0,0,.06.08h1.23s.08.05.08.07a.65.65,0,0,1,0,.14V22a2.42,2.42,0,0,1-.66,0H46l-.06.08v2.61c.14.13.31.05.46.06h.9v1.31c.17.13.33.06.48.07a2.94,2.94,0,0,0,.42,0,1,1,0,0,0,.48-.05V24.86c.05,0,.06-.07.08-.07h1.3v1.31c.09.11.21.07.32.07h2.37c0,.05.06.06.06.08s0,.05,0,.07v2.53s0,.05.06.06h1.31V26.24l.07-.07h2.61s0,0,.08.06v1.25s0,.06.07.06h1.24c.11.09.06.21.06.31,0,1.13,0,2.25,0,3.37v.38l.09.06s0,0,.07,0H61a17.29,17.29,0,0,1,0,2.75H57a18,18,0,0,0,0,2.75h1.26s.06.06.06.08a.65.65,0,0,1,0,.14v1.09l.06.05.06,0H61l.06,0a.78.78,0,0,1,0,.4c0,.16,0,.32,0,.48v.4c.15.12.31,0,.47.06H62a.94.94,0,0,1,.49,0v1.26s0,.06.07.07h2.64a2.08,2.08,0,0,1,0,.66c0,.22,0,.45,0,.7.46,0,.89,0,1.32,0l0,0a.14.14,0,0,1,0,.06v2.55s0,0,0,.08h1.25c.13.16.06.33.07.48s0,.27,0,.41v.49h1.31l.07.07v2.65a2.42,2.42,0,0,0,.66,0h.65s.06-.06.06-.08,0-.05,0-.07V48.23c.15-.13.32,0,.47-.06a2.8,2.8,0,0,1,.41,0,1.18,1.18,0,0,1,.49,0v1.26l.08.07h1.23c.12.08.07.21.07.31,0,.34,0,.68,0,1,0,0,0,.06-.07.07H72.15c-.14.14-.06.31-.07.46s0,.27,0,.41v.5H70.77l-.06.07s0,0,0,.06v10.8l-.06.07H69.4l-.07.07a.65.65,0,0,0,0,.14v1.17H68l-.08.06v1.19A.15.15,0,0,0,68,66,.1.1,0,0,0,68,66h1.27s0,0,0-.07V64.67h8.25V66s0,0,.06.09h1.19l.07,0s0,0,0,0V64.72s0,0-.07,0H77.58V62a2.08,2.08,0,0,0-.66,0c-.22,0-.45,0-.65,0,0-.05-.06-.06-.06-.08,0-.87,0-1.74,0-2.6,0,0,0-.05.06-.06h2.61s0,0,.08-.05V53.73c.16-.12.33,0,.48-.06s.28,0,.41,0a.94.94,0,0,0,.49-.06V51s.06-.06.08-.06a.57.57,0,0,1,.13,0h1.1l0-.06a.11.11,0,0,0,0-.06V48.26s0,0,0-.06a.77.77,0,0,1,.4,0c.16,0,.32,0,.48,0H83c.12-.16,0-.32.06-.47s0-.28,0-.42v-.49h1.3s.07,0,.07-.07a.61.61,0,0,0,0-.14v-1.1c.08-.11.21-.06.31-.06,1.13,0,2.25,0,3.37,0h.43c0-.46,0-.89,0-1.32a16.15,16.15,0,0,1,2.74,0v1.28c.19.11.37,0,.55,0a3.85,3.85,0,0,0,.48,0h2.06c.19,0,.37,0,.55,0s.32-.05.49,0v1.26s.06.06.08.06h1.27a3,3,0,0,1,0,.67c0,.22,0,.45,0,.65l.08.06h2.61c.11.14,0,.31,0,.46s0,.27,0,.41,0,.32,0,.49h2.63s.06.05.06.07a.17.17,0,0,1,0,.07v1.2a2.42,2.42,0,0,0,.66,0h.71c0,.45,0,.88,0,1.31.14.13.31.05.46.06h.41a1.19,1.19,0,0,1,.49.05V55l.07.07h1.26a.61.61,0,0,1,0,.18v6.53a.59.59,0,0,1,0,.13l-.06,0h-1.22a.17.17,0,0,0-.06.06s0,0,0,.06v6.67s0,0-.06.09h-1.25l-.06.06a.15.15,0,0,0,0,.07V71.4s0,0,0,.07l-.06.08h-1.24s-.07,0-.07.07a.66.66,0,0,0,0,.14v2.47l0,0-.07,0H99.68s0,0-.06,0a.77.77,0,0,0,0,.4c0,.16,0,.32,0,.48v.4l-.06,0H94.17s0,0-.08,0V74.37s0-.06-.07-.07H88.65c-.11-.09-.06-.21-.07-.31V73l-.08-.07H85.9c-.13-.14-.05-.31-.07-.46s0-.27,0-.41a1.18,1.18,0,0,0,0-.49H83.15c-.12-.17-.05-.33-.07-.49s0-.27,0-.41a1.07,1.07,0,0,0,0-.49H81.77s-.06,0-.06-.07a1.47,1.47,0,0,1,0-.21V68.83a2.51,2.51,0,0,0-.67,0h-.66a1,1,0,0,1,0-.43v-.88c-.15-.13-.32,0-.47-.07s-.27,0-.41,0a1,1,0,0,0-.48,0v2.65l0,0s0,0,.07,0h1.17c.11.09.07.21.07.32v5.12s.06.06.08.06,0,0,.07,0h1.16l0,.06a.14.14,0,0,1,0,.06c0,4.12,0,10,0,10.88H80.41s-.06,0-.07.07a.17.17,0,0,0,0,.07v3.85s0,0,0,.07l-.06.07H79s-.06.06-.06.08A.57.57,0,0,0,79,91v1.14a3,3,0,0,1-.67,0h-.66a1,1,0,0,0,0,.43c0,.16,0,.32,0,.48v.41a17.79,17.79,0,0,1-2.75,0V92.25s0-.06-.07-.07-.05,0-.07,0H73.45v-1.3s0,0,0,0a15.88,15.88,0,0,0-2.69,0v1.27s0,.05.07.05h2.66v2.67s0,0-.06.08H72.16s-.08,0-.08.07a.65.65,0,0,0,0,.14v5.21s0,0,.06.08h1.25c.11.16,0,.33.06.48s0,.27,0,.41,0,.32.05.49h1.25l.07.07v1.3H73.54s0,0-.09.06v1.19a.14.14,0,0,0,0,.07l0,0h1.27l0-.06v-1.3h1.3c.12-.08.07-.21.07-.31,0-.34,0-.68,0-1l.08-.06h1.23c.14.14,0,.31.07.46s0,.27,0,.41v.45a1,1,0,0,0,.43.05h.88l.06.06s0,.05,0,.07c0,.85,0,1.69,0,2.54,0,0,0,0,.05.07h1.27l0-.06s0,0,0-.06v-1.17c.08-.12.21-.07.31-.07H83s.06,0,.06.07a.66.66,0,0,1,0,.14v2.51a3,3,0,0,0,.67,0h.67a1.6,1.6,0,0,0,0-.57c0-.18,0-.37,0-.55v-1.57c.15-.13.31-.05.46-.06s.28,0,.42,0h.48v4.07s0,0,0,.05H80.41s0,0-.08-.06v-1.24s0-.07-.07-.07a.65.65,0,0,0-.14,0H74.9c-.12-.08-.07-.21-.07-.31v-1l-.08-.07H69.36a2.42,2.42,0,0,1,0-.66c0-.22,0-.45,0-.65,0,0-.07-.06-.09-.06s0,0-.06,0H68s0,0-.06-.06a.15.15,0,0,1,0-.07v-2.54s0,0,0-.08H66.65s-.06,0-.07-.07,0,0,0-.06V99.13l.06-.07h1.23S68,99,68,99a.57.57,0,0,0,0-.13V96.3h1.3l.08-.06V95.05a.13.13,0,0,0,0-.06s0,0,0,0H68s0,0,0,.07V96.3H66.64l0,0a.14.14,0,0,1,0-.06V93.62l.07-.06h1.27a2.42,2.42,0,0,0,0-.66c0-.23,0-.45,0-.65l-.08-.06a.16.16,0,0,0-.07,0H65.26c-.12-.14,0-.31-.06-.46s0-.28,0-.41a1,1,0,0,0,0-.49H63.89c-.12-.17,0-.33-.06-.49s0-.27,0-.41,0-.31,0-.48H62.52l-.07-.08V88.08a2.92,2.92,0,0,0-.66,0h-.66s-.05-.06-.05-.08,0,0,0-.07V82.61a34.32,34.32,0,0,0-4.11,0v1.29c.13.1.3,0,.45,0h.41a1,1,0,0,1,.49,0v2.63s0,.06.07.06h1.24c.09.06.07.15.07.24v3.64c0,.07,0,.13,0,.19s0,0-.07,0a.57.57,0,0,1-.13,0h-1.1l0,.06s0,0,0,.06c0,1.78,0,3.56,0,5.37.46,0,.89,0,1.32,0a16,16,0,0,1,0,2.74H58.4s-.06,0-.07.07a.13.13,0,0,0,0,.06v3.92s0,0,0,.08H57s-.06,0-.07.07,0,0,0,.07v1.17c.08.11.21.06.31.06h2.37s.07-.06.07-.08v-1.23s0,0,0,0l.07,0H65a.68.68,0,0,1,.15,0c0,.42,0,.85,0,1.28.14.12.3,0,.46,0a2.77,2.77,0,0,0,.41,0h.48v2.69a.12.12,0,0,1,0,0H63.9l-.07-.06V106l-.07-.08H62.45v-1.29s0,0-.06-.08H61.13l0,0v1.27s0,.05.07.05h1.29v1.34a2.08,2.08,0,0,1-.66,0h-.65s-.06.06-.06.08,0,0,0,.07v1.15l-.06.06H58.41s0,0-.08.06v2.62s0,.06-.07.07H55.65s0,0-.08.06v4s0,.07-.07.07h-4a2.42,2.42,0,0,0,0,.66c0,.23,0,.45,0,.66-.05,0-.07.05-.09.05H48.77l-.06-.06a.17.17,0,0,1,0-.07v-3.92s0,0-.06-.08H47.4s-.07,0-.07-.07a.15.15,0,0,1,0-.07v-2.54c-.08-.12-.2-.07-.31-.07H46S46,110,46,110s0,0,0-.07v-1.16c-.15-.13-.31,0-.47-.06s-.27,0-.41,0a1.27,1.27,0,0,1-.5,0v-1.27c-.16-.12-.32-.05-.47-.06s-.28,0-.41,0H43.2V106l-.08-.07H37.73a2.08,2.08,0,0,1,0-.66c0-.22,0-.45,0-.67-.8-.07-5.24-.08-8.19,0l-.05,0a.17.17,0,0,0,0,.07v5.22a.65.65,0,0,0,0,.15h1.25s.06,0,.07.07a.17.17,0,0,1,0,.07V114s0,0,0,.07l.06.07h1.25s.06.06.06.08a.65.65,0,0,1,0,.14v3.88a3,3,0,0,0,.67,0h.66a1,1,0,0,1,0,.43v.88c.15.13.31,0,.47.06h.41a1.06,1.06,0,0,1,.49,0V121l.07.07h1.27a2.08,2.08,0,0,1,0,.66v.65l.08.07H39c.13.14,0,.31.07.46s0,.28,0,.41a1.18,1.18,0,0,0,0,.49h5.38l.07.08a.13.13,0,0,1,0,.06v3.92l.06.08h2.62s.07,0,.07.07a.66.66,0,0,1,0,.14v1.13a2.09,2.09,0,0,0,.66,0h.66c0,.05.06.07.06.09v1.22c-.15.13-.32,0-.47.07h-.9V132l-.08.07h-4c-.12.09-.07.21-.07.32,0,.34,0,.68,0,1l-.08.06H41.89l0,.05a.19.19,0,0,0,0,.07v1.2s.07.05.09.05h2.6c.12-.16.05-.32.06-.48s0-.27,0-.41v-.48h2.7s0,0,0,.06a.66.66,0,0,1,0,.14v3.88a2.08,2.08,0,0,0,.66,0h.66l.06-.09v-1.22c.15-.13.31,0,.46-.07h.42a1.07,1.07,0,0,1,.49.05v2.65a18,18,0,0,0,2.75,0v-1.26s.06-.06.08-.06h1.23s0,0,0,.05a.14.14,0,0,1,0,.06v2.55s0,0,0,.05a.91.91,0,0,0,.4,0h.88s.05,0,.05.06a.13.13,0,0,1,0,.06c0,.85,0,1.7,0,2.55l.05.06h1.26s0,0,.06-.05v-2.65a2.42,2.42,0,0,1,.66,0h.65s.06-.06.06-.08a.16.16,0,0,0,0-.07v-2.54l.06,0h1.17a.51.51,0,0,1,.14,0v4c.17.13.33.06.49.07h.41a1,1,0,0,0,.49-.05V139s.05-.07.07-.07h1.27a3,3,0,0,1,0,.67c0,.22,0,.45,0,.65a.74.74,0,0,0,.43.05h.88l.06.06a.13.13,0,0,1,0,.06V143l.05.06h1.27l0-.05s0-.05,0-.07V137.6a2.42,2.42,0,0,1,.66,0h.65l.07.07V143l0,.05.06,0H67.8s.08,0,.14,0v-1.27c.17-.12.33,0,.49-.07h.41a1.07,1.07,0,0,0,.49-.05V139s0-.06.07-.07h1.23c.12.09.07.21.07.32v5.17c.46,0,.89,0,1.31,0,.13.14,0,.31.07.46s0,.27,0,.41v.48H73.4l0-.05s0,0,0-.07v-2.54c-.08-.12-.2-.07-.31-.07h-1s-.06-.06-.06-.08v-4a2.92,2.92,0,0,1,.66,0h.66a.83.83,0,0,1,0,.43c0,.16,0,.32,0,.48v.4c.16.12.32.05.48.06s.27,0,.41,0a1.07,1.07,0,0,1,.49.05v4s0,.08.07.08h1.24c.11.09.06.21.06.32,0,1.12,0,2.25,0,3.37v.38s.07.06.09.06h1.22c.13-.15,0-.31.07-.47s0-.27,0-.41a1.15,1.15,0,0,1,0-.48H78.9a17.69,17.69,0,0,1,0,2.73H77.65c0,.05-.07.06-.07.08v1.27a3,3,0,0,1-.67,0h-.65a.74.74,0,0,0-.05.43c0,.16,0,.32,0,.48v.4c-.15.12-.31.05-.47.06h-.41a1.07,1.07,0,0,0-.49.05v2.62s0,.07-.07.07H73.49a1.77,1.77,0,0,0,0,.65c0,.23,0,.46,0,.66l-.08.06s0,0-.07,0H68c-.13.15,0,.31-.07.46s0,.28,0,.42a1.21,1.21,0,0,1,0,.49H66.65c-.13.16-.06.33-.07.48s0,.28,0,.41a.94.94,0,0,1-.06.49H65.27l-.07.08v1.26a2.42,2.42,0,0,1-.66,0h-.65c0,.05-.06.06-.06.08v2.6c.15.13.31.05.46.07s.28,0,.42,0a1.15,1.15,0,0,1,.48,0V165l-.06,0s0,0-.06,0H61.15c-.12.09-.07.21-.07.32,0,.34,0,.68,0,1l-.08.06H59.77c-.14-.15-.05-.31-.07-.46s0-.28,0-.42a1.41,1.41,0,0,0,0-.49H57c-.13-.16-.06-.33-.07-.48s0-.28,0-.41a1,1,0,0,0-.05-.49H54.27l-.07-.07a.65.65,0,0,1,0-.14v-1.13a2.44,2.44,0,0,0-.66,0h-.66l-.06-.08V161c-.15-.12-.31,0-.46-.06h-.42a1.22,1.22,0,0,1-.49,0v-1.25s-.05-.07-.07-.07H48.77c-.12-.08-.07-.2-.07-.31,0-.34,0-.68,0-1-.05,0-.06-.06-.08-.06H46c-.13-.15,0-.31-.06-.46s0-.28,0-.42v-.5H44.63c-.12-.15,0-.32-.06-.47s0-.28,0-.41a1,1,0,0,0,0-.49H41.89s-.07-.06-.07-.08v-1.26a2.08,2.08,0,0,0-.66,0h-.71c0-.46,0-.89,0-1.31-.14-.13-.31,0-.46-.06h-.9V151.4a.28.28,0,0,0-.08-.08H36.39c-.12-.08-.07-.21-.07-.31v-1s-.06-.06-.08-.06H35c-.13-.14,0-.3-.06-.46a2.77,2.77,0,0,1,0-.41v-.45a1,1,0,0,0-.43-.05h-.88c-.12-.16-.05-.32-.06-.47s0-.28,0-.42v-.48h-1.3l-.08-.08v-2.64a2.42,2.42,0,0,0-.66,0h-.65s-.06-.06-.06-.08,0,0,0-.07v-1.16c-.15-.13-.32,0-.47-.06h-.9v-2.69c-.17-.12-.33,0-.49-.06h-.41c-.15,0-.31.05-.48-.05V139l-.08-.07H26.72a2.92,2.92,0,0,1,0-.66v-.66c-.05,0-.07-.05-.09-.05H25.38c-.12-.16-.05-.32-.06-.48s0-.27,0-.41a1,1,0,0,0,0-.49H19.89s-.07-.05-.07-.07a.15.15,0,0,1,0-.07v-2.61h1.31c.11-.08.07-.21.07-.31v-1s.06-.06.08-.06h1.26a2.42,2.42,0,0,0,0-.66c0-.23,0-.45,0-.66a1,1,0,0,1,.43-.05h.89c.12-.15,0-.32.06-.47a2.81,2.81,0,0,0,0-.41,1,1,0,0,0-.05-.49H22.63c-.12-.17-.05-.33-.06-.48a2.94,2.94,0,0,1,0-.42c0-.15-.05-.31.05-.48h1.25l.07-.07v-2.65a2.42,2.42,0,0,0-.66,0h-.65s-.06-.07-.06-.08q0-4.78,0-9.55H23.9a2.08,2.08,0,0,0,0-.66c0-.22,0-.45,0-.7.46,0,.89,0,1.32,0,.12-.14,0-.31,0-.46s0-.27,0-.41a1,1,0,0,1,0-.48h1.28c.11.14,0,.3.05.45s0,.28,0,.42v.47H28s0,0,0-.06c0-.87,0-1.74,0-2.64a2.16,2.16,0,0,0-.67,0h-.65l-.06-.08v-1.23c-.15-.12-.31-.05-.47-.06s-.27,0-.41,0h-.49v-4l-.07-.07H24c-.11-.08-.07-.2-.07-.31v-3.75s-.06-.06-.08-.06a.57.57,0,0,0-.13,0H22.6a2.16,2.16,0,0,1,0-.67c0-.22,0-.45,0-.66a.94.94,0,0,0-.43,0h-.88c-.12-.15-.05-.32-.06-.47s0-.27,0-.41v-.49h-1.3s-.07,0-.07-.07a.17.17,0,0,1,0-.07v-1.2a2,2,0,0,0-.65,0c-.23,0-.46,0-.71,0,0,.45,0,.89,0,1.32-.14.12-.3,0-.45,0h-.42a1,1,0,0,0-.48,0v2.66c.14.1.3,0,.46,0H18c.15,0,.32,0,.48,0v2.65l-.06,0h-4a2.44,2.44,0,0,1,0-.66v-.66l-.08-.06h-2.6l-.06-.06a.13.13,0,0,1,0-.06v-2.54s0,0-.05-.08H10.25c-.12-.17-.05-.33-.06-.49s0-.27,0-.41v-.49H8.88L8.81,99V96.34a2.09,2.09,0,0,0-.66,0H7.49s0-.06,0-.08,0,0,0-.07V93.68a.14.14,0,0,0,0-.07c-.14-.12-.3,0-.45,0a3,3,0,0,0-.42,0H6.07V90.88S6,90.81,6,90.81H4.76c-.12-.08-.07-.2-.07-.31,0-2,0-4,0-6V84s0-.06-.07-.06a.66.66,0,0,0-.14,0H3.38l0-.06a.14.14,0,0,1,0-.06V81.27s0,0,0-.06a.78.78,0,0,0-.4,0c-.16,0-.32,0-.48,0H2l-.06-.07a.13.13,0,0,1,0-.06v-5.3s0,0-.05-.07H.63L.56,75.6s0,0,0-.06v-1.2a2.08,2.08,0,0,1,.66,0h.65s.06-.06.06-.08V71.61c-.14-.13-.31,0-.46-.06H.58V35.84c.12-.12.29,0,.44-.05h.42a1.22,1.22,0,0,0,.49,0v-4c.16-.12.33-.05.48-.07s.27,0,.41,0a1,1,0,0,0,.49-.05V29l.07-.07H4.65a2.08,2.08,0,0,0,0-.66c0-.23,0-.45,0-.65.05,0,.07-.06.09-.06H6c.12-.15,0-.32.06-.47s0-.28,0-.41a1,1,0,0,1,.05-.49H7.36l.07-.08a.13.13,0,0,0,0-.06V23.48c.08-.11.2-.07.31-.07h1s.06-.06.06-.08a.57.57,0,0,0,0-.13V22.06a2.51,2.51,0,0,1,.67,0h.66a.81.81,0,0,0,0-.43c0-.16,0-.32,0-.48v-.4c.15-.12.31,0,.47-.06s.27,0,.41,0a1.06,1.06,0,0,0,.49-.05V19.36s0-.07.07-.07H12.9a2.08,2.08,0,0,0,0-.66v-.7c.45,0,.88,0,1.31,0,.13-.14.05-.3.06-.46s0-.27,0-.41v-.49H17c.12-.17.05-.33.06-.48s0-.28,0-.41a.84.84,0,0,1,.05-.49h1.25l.07-.08V13.82a2.42,2.42,0,0,1,.66,0h.66a.73.73,0,0,0,0-.43c0-.16,0-.32,0-.48v-.4c.15-.12.32-.05.47-.06h.41a1,1,0,0,0,.49,0V11.11a.28.28,0,0,1,.08-.08h2.61c.11-.08.07-.2.07-.31v-1s.06-.06.08-.06h1.23c.13-.15.05-.31.06-.47a2.77,2.77,0,0,0,0-.41v-.5H28c.12-.15.05-.32.06-.47s0-.28,0-.41a1,1,0,0,1,.05-.49h2.62s.07-.06.07-.08a.57.57,0,0,0,0-.13V5.6c.08-.11.21-.07.31-.07h2.42c0-.46,0-.89,0-1.32l.05,0,.06,0h3.92s0,0,.08-.05V2.86s.05-.07.07-.07h4l.08-.06V1.47s0-.06.07-.06h6.77a2.42,2.42,0,0,0,0-.66V.07C49.61,0,58.79,0,63.77,0c.12.14,0,.31,0,.46a2.81,2.81,0,0,1,0,.41v.49h5.43c.13.17,0,.33.07.49s0,.27,0,.41a1.07,1.07,0,0,0,0,.49h4s.07.05.07.07a.65.65,0,0,1,0,.14V4.15h-4s0,0-.07.06v4l-.07.07h-4c-.11.09-.07.21-.07.31v7.88s0,.06-.07.06H62.45ZM17.06,94.93v1.29l.06.08h1.26l0,0V95l-.06,0h-1.3V92.26s0,0-.06-.08H15.75l-.05,0v2.65s.05.05.07.05ZM62.45,75.67h-2.7a1.29,1.29,0,0,0,0,.5,2.81,2.81,0,0,0,0,.41c0,.15-.06.31.07.48h1.31v1.36h-1.3a.07.07,0,0,0-.05,0,.53.53,0,0,0,0,.12v2.46a.15.15,0,0,0,0,.07s0,0,0,0h2.66a1.12,1.12,0,0,0,0-.48,2.8,2.8,0,0,0,0-.41c0-.15,0-.31-.06-.47H61.14s-.06-.06-.06-.08c0-.43,0-.86,0-1.3.43,0,.86,0,1.29,0,0,0,0,0,.08-.06V75.67h1.29s0,0,.09-.06V74.42a.14.14,0,0,0,0-.06l0,0H62.5s0,0,0,.07ZM8.81,56.42v-1.3s0,0-.06-.08H7.49l0,.05v1.27s0,.05.07.05H8.81v1.17a.57.57,0,0,1,0,.13s0,0-.08.08H7.44v.48c0,.14,0,.28,0,.41s.06.32-.06.49H6.12l-.06.07v5.29a.17.17,0,0,0,0,.07l0,0H8.76s.05,0,.05-.07V60.67a.13.13,0,0,1,0-.06l.07-.07h1.25a1.05,1.05,0,0,0,0-.49c0-.14,0-.28,0-.42s-.07-.31.06-.46c.42,0,.85,0,1.31,0,0-.25,0-.48,0-.7a3,3,0,0,0,0-.67H10.26s0,0-.07-.06c0-.32,0-.66,0-1,0-.11.05-.23-.06-.31Zm33,26.13H36.39s0,0-.07.08v4a1,1,0,0,1-.49.06c-.14,0-.28,0-.41,0s-.32-.06-.46,0v4s0,0,.07,0h2.54l.07,0,0,0c0,.43,0,.86,0,1.32h2.42c.11,0,.23,0,.31.07v1.1a.57.57,0,0,0,0,.13s0,0,.07.08h1.3v.49c0,.13,0,.27,0,.41s-.06.31.06.47h.4c.16,0,.32,0,.48,0a1,1,0,0,1,.44,0v.45c0,.14,0,.28,0,.41s-.07.32.06.46h1.23s0,0,.08.06v1c0,.1,0,.23.07.31h1.24l0-.05V92.22a1.12,1.12,0,0,0-.48,0c-.13,0-.27,0-.41,0s-.32.06-.47-.07V90.89s0,0,.06-.09c.2,0,.43,0,.65,0a2.51,2.51,0,0,0,.67,0V89.64a.65.65,0,0,1,0-.14s0,0,.06-.07h3.75c.11,0,.23,0,.31-.07V88.19s0,0,0-.07,0,0-.07-.07H48.75s0-.06,0-.08V82.68a.15.15,0,0,0,0-.07l-.06-.06h-.4c-.16,0-.32,0-.48,0a1.08,1.08,0,0,1-.4,0,15.11,15.11,0,0,1,0-2.72h4s0,0,.08.06v2.38c0,.1-.05.23.07.31h1.24l.07.07v1.27a18.77,18.77,0,0,0,2.74,0V81.26s0,0,0-.08h-.66a2.09,2.09,0,0,1-.66,0V79.88s0,0,.06-.08H56.9a40.23,40.23,0,0,0,0-4.11H47.37s0,0,0,.06V78.3a.13.13,0,0,1,0,.06.17.17,0,0,1-.06.06h-.87a.78.78,0,0,0-.4,0s0,0,0,.05v2.55a.14.14,0,0,1,0,.06l0,.06H42s0,0-.07,0,0,0-.08.06ZM28.07,57.81v6.78s0,0,.06.08h1c.11,0,.23,0,.31.07V70.1s0,0,.07.07h1.25a.94.94,0,0,1,.06.49c0,.13,0,.27,0,.41s-.05.32.06.48h1.26s0,.06,0,.08v2.54a.17.17,0,0,0,0,.07s0,0,0,0h1.28s0,0,0-.07V71.67s0,0,0-.06a.12.12,0,0,1,.05,0c.43,0,.86,0,1.31,0,0-.26,0-.48,0-.71a2.44,2.44,0,0,0,0-.66H33.85a1.47,1.47,0,0,1-.21,0s0,0-.07-.06V66.36c0-.11,0-.23-.07-.31H32.26s0,0,0-.05V64.72a1,1,0,0,1,.47,0c.14,0,.28,0,.42,0s.31.06.45,0V63.34s0,0-.07,0H30.94l-.06,0-.06-.05v-4l-.06-.09H29.9c-.15,0-.32.07-.46-.07V57.94s0,0,0-.07l-.05-.06ZM44.56,77.05H39.15s0,0-.08-.06v-.65a3,3,0,0,0,0-.67H37.77s0,0-.05,0a14.35,14.35,0,0,0,0,2.7H39s0,0,.08.06c0,.2,0,.43,0,.65a2.08,2.08,0,0,0,0,.66h4l.08-.06c0-.2,0-.43,0-.65a2.16,2.16,0,0,1,0-.67h1.06a1.33,1.33,0,0,0,.2,0s0,0,.07,0Zm-2.74,55v-1.22s0-.05,0-.07l.07-.08H43.2v-.48c0-.14,0-.28,0-.42s.07-.31-.06-.47h-.88a.78.78,0,0,1-.4,0s0,0,0-.06v-2.54a.11.11,0,0,0,0-.06l0-.06H40.52s0,0-.08.07v1.26a1.49,1.49,0,0,1-.55,0c-.18,0-.37,0-.55,0h-1.1c-.18,0-.36-.06-.53,0v1.29s0,0,.07,0h2.54l.07,0,0,0v2.54a.13.13,0,0,0,0,.06s0,0,0,.07ZM10.14,90.79c.06-.66.06-3.49,0-4.1H8.86c-.07.66-.06,3.49,0,4.1Zm11-38.5h-1.3l-.07.08c0,1.22,0,2.48,0,3.73,0,.11-.05.23.06.32h1.24s0,0,.06-.07Zm17.9-33h1.29s0,0,.07-.06V17.88c0-.23,0-.46,0-.69a2.08,2.08,0,0,0,0-.66H39.14s0,0-.06.06Zm-4.14,55c0,.47,0,.88,0,1.29,0,0,0,0,.06.07.2,0,.43,0,.65,0a2.42,2.42,0,0,0,.66,0V74.37s0,0-.06-.06Zm17.88,31.62v-1.32c-.17-.1-.33,0-.48,0a2.8,2.8,0,0,0-.41,0c-.16,0-.32,0-.47,0v1.32ZM55.56,33H54.27s0,0-.07.06v1c0,.11-.05.23.07.31h1.1a.57.57,0,0,0,.13,0s0,0,.06,0ZM68,147.2v1.3s0,0,.07.07h1c.1,0,.22,0,.31-.07v-1.23l-.06-.07Z"/><path d="M94.08,100.43h1.34a2.08,2.08,0,0,0,0-.66c0-.22,0-.45,0-.65,0,0,.06-.06.08-.06.41,0,.82,0,1.23,0a36.07,36.07,0,0,1,0,4.11H95.54l-.07.07a.17.17,0,0,0,0,.07v3.92s0,0-.06.07H94.16s-.07.06-.07.08a.57.57,0,0,0,0,.13v1.14a2.35,2.35,0,0,1-.65,0h-.66s0,.06-.06.08,0,0,0,.07v3.91c-.15.14-.31.05-.46.07s-.28,0-.42,0a1.41,1.41,0,0,0-.49,0V121c-.16.13-.32.06-.48.07h-.41a1.07,1.07,0,0,0-.49,0v4s0,.07-.07.07H88.65c-.11.08-.06.2-.07.31v1l-.08.06H87.28s0,0-.06.06a.13.13,0,0,0,0,.06v2.54s0,0,0,.06a.09.09,0,0,1,0,0H85.9s-.05,0-.06-.06a.13.13,0,0,1,0-.06v-6.67s0,0-.06-.08H84.53l-.07-.07s0-.05,0-.07v-2.54c-.09-.12-.21-.07-.32-.07h-1s-.07-.06-.07-.08v-1.23c.14-.14.31,0,.46-.07s.28,0,.41,0h.45l.06-.09v-2.54s0,0,0-.07.31,0,.46,0,.27,0,.41,0a1,1,0,0,0,.49,0v-4s0-.07.07-.07h1.24c.11-.08.07-.2.07-.31V106l.08-.07h1.22s0,0,.06-.05a.13.13,0,0,0,0-.06v-2.55s0,0,0,0,0,0,0,0h1.22l.06.06a.17.17,0,0,1,0,.07v2.54s0,0,.05.07h1.27l0-.06s0,0,0-.06v-1.17c.09-.12.21-.07.32-.07.34,0,.68,0,1,0,0,0,.06-.06.06-.08v-1.23c-.15-.13-.31,0-.46-.07s-.28,0-.42,0a1.21,1.21,0,0,1-.49,0v-1.26c-.16-.13-.33-.06-.48-.07h-.41a.88.88,0,0,1-.48,0V99.12s0-.06.06-.06a.65.65,0,0,1,.14,0h1.1c.11-.09.06-.21.06-.32V93.62s.06-.06.08-.06h1.23c.13-.14,0-.31.07-.46s0-.27,0-.41a1.12,1.12,0,0,1,0-.48h2.66c.07.52.07,3.33,0,4.1H94.17s-.08.06-.08.08a.57.57,0,0,0,0,.13v3.92H92.79s0,0-.08.06v1.19a.15.15,0,0,0,0,.07l0,0H94s0-.05,0-.07Z"/><path d="M80.33,121.06h1.3c.12.08.07.21.07.31,0,.34,0,.68,0,1,0,0,.05.06.07.06H83a28,28,0,0,1,0,4.07l0,0H81.74a2.42,2.42,0,0,0,0,.66c0,.22,0,.45,0,.65,0,0,.05.06.07.07H83a13,13,0,0,1,0,2.71l0,0H80.33v-1.3c-.08-.12-.2-.07-.31-.07H79s-.06-.05-.06-.07a2.43,2.43,0,0,1,0-.27v-1a2.44,2.44,0,0,0-.66,0h-.66s-.06-.06-.06-.08v-1.23l0,0,.07,0h2.53l.06,0s0,0,0,0Z"/><path d="M81.71,140.33h2.68s.06,0,.06.06a.57.57,0,0,1,0,.13v1.1c-.09.12-.21.07-.32.07h-1s-.07.06-.07.08V143a2.44,2.44,0,0,0,.66,0h.66s.06.06.06.08v5.38a2.08,2.08,0,0,1-.66,0c-.23,0-.45,0-.65,0,0,0-.07-.06-.07-.08v-2.64a2.42,2.42,0,0,0-.66,0h-.65s-.06-.06-.06-.08Z"/><path d="M18.44,129.31H17.11a.85.85,0,0,1,0-.17c0-2.64,0-5.27,0-7.91a.79.79,0,0,1,0-.13s0,0,.05,0h1.23l.05.06a.11.11,0,0,1,0,.06v2.54s0,0,0,.06a.91.91,0,0,0,.4,0h.88a.33.33,0,0,0,.06.06v4s0,0-.06.07H18.51l-.07.08s0,0,0,.07Z"/><path d="M22.56,115.56H19.83v-4.1a2.27,2.27,0,0,1,.64,0h.65s.07-.06.07-.07v-1.3h1.37Z"/><path d="M77.58,5.53h2.68c.11.08.07.21.07.31v1s.06.06.08.06H83a15,15,0,0,1,0,2.71s0,0,0,0H81.77c-.13-.15,0-.32-.06-.47s0-.27,0-.41V8.29H79C78.9,8.12,79,8,79,7.81s0-.28,0-.41V6.91h-1.3l-.08-.08s0,0,0-.06Z"/><path d="M55.56,20.7v2.66a20.62,20.62,0,0,1-2.73,0V22.09c-.17-.1-.33,0-.49-.05h-.41c-.15,0-.31,0-.47-.05V20.71C52.08,20.64,54.91,20.64,55.56,20.7Z"/><path d="M91.38,81.17h1.25s.07.06.08.08v1.23c-.08.11-.21.07-.31.07H90c-.11-.16,0-.32-.06-.48s0-.27,0-.41a.91.91,0,0,0-.06-.48H88.66a.57.57,0,0,1-.08-.08V79.87c.08-.11.21-.07.31-.07h1s.06,0,.07-.07V78.46a1.77,1.77,0,0,1,.65,0h.68a1.35,1.35,0,0,1,0,.56c0,.18,0,.36,0,.55v.54a5,5,0,0,0,0,.55A1.3,1.3,0,0,0,91.38,81.17Z"/><path d="M80.33,121.06H79c-.12-.08-.07-.21-.07-.31,0-.34,0-.68,0-1,0,0-.06-.06-.08-.06H77.61a3,3,0,0,1,0-.67v-.67a1.62,1.62,0,0,1,.57,0c.18,0,.36,0,.55,0h1.57c.12-.15,0-.31.06-.47s0-.27,0-.41V117h1.32a17.65,17.65,0,0,1,0,2.73H80.41s-.07.06-.08.08,0,0,0,.06Z"/><path d="M77.58,5.53H73.52s-.06-.06-.06-.08c0-.43,0-.86,0-1.3h4.07s.06.07.06.08Z"/><path d="M80.33,130.69V132c-.08.12-.2.07-.31.07H79s-.06.06-.06.08a.57.57,0,0,0,0,.13v1.17H77.65c-.11-.08-.07-.21-.07-.31v-2.37l.07-.07Z"/><path d="M18.44,129.31h1.37v4.13H18.44Z"/><path d="M17.11,114.2h1.28c.06.59.07,3.41,0,4.1H17.11C17.05,117.71,17,114.88,17.11,114.2Z"/><path d="M88.59,92.13V90.85a20.72,20.72,0,0,1,2.73,0v1.28A19.13,19.13,0,0,1,88.59,92.13Z"/><path d="M51.45,133.43h-2.7l0-.06s0-.05,0-.07v-1.17l0,0s0,0,.06,0h2.57l.07.08v1.29Z"/><path d="M85.83,137.57V134.9s0,0,0-.07h1.27a15.91,15.91,0,0,1,0,2.69s0,0-.05,0Z"/><path d="M62.46,23.41V20.72s0-.06.06-.06a.66.66,0,0,1,.14,0h1.1l0,.05a.09.09,0,0,1,0,.06v2.57l-.08.07H62.46Z"/><path d="M65.19,26.16v2.69s0,.06-.06.06a.66.66,0,0,1-.14,0H63.86a2.42,2.42,0,0,1,0-.66c0-.22,0-.45,0-.68V26.23l.07-.07h1.29Z"/><path d="M61.06,19.33v1.28a19,19,0,0,1-2.72,0V19.33A20.57,20.57,0,0,1,61.06,19.33Z"/><path d="M85.82,8.28V9.6s0,.05-.06.05H84.5a2.08,2.08,0,0,1,0-.66c0-.22,0-.45,0-.65l.07-.07h1.29Z"/><path d="M89.89,12.41H88.6V11.08c.15-.1.31,0,.46-.05h.41a1.06,1.06,0,0,1,.47,0v1.29Z"/><path d="M62.45,16.53v1.3s0,0-.05.06H61.13s0,0,0,0a.13.13,0,0,1,0-.06v-1.2s.06-.06.08-.06Z"/><path d="M98.2,17.91v1.32c-.16.1-.32,0-.47.05h-.88V18c.15-.1.31,0,.47-.05s.27,0,.41,0Z"/><path d="M65.2,19.3h1.32s0,0,0,.06c0,.41,0,.82,0,1.26a2.08,2.08,0,0,1-.66,0c-.22,0-.45,0-.65,0,0,0-.07-.06-.07-.08Z"/><path d="M21.19,110.06H19.9s0,0-.07,0v-1.27s0,0,0,0h1.26s.06.07.06.08Z"/><path d="M106.46,49.53h-1.31s-.06,0-.06-.06a.65.65,0,0,1,0-.14V48.24c.08-.12.2-.07.31-.07.34,0,.68,0,1,0,.05,0,.08,0,.08.07a.57.57,0,0,1,0,.13Z"/><path d="M77.58,123.81h1.3s0,0,.06.06v1.27c-.15.09-.31,0-.46,0h-.41a.94.94,0,0,1-.49-.06Z"/><path d="M103.7,30.29v1.32s0,.05-.06.05h-1.27a2.35,2.35,0,0,1,0-.65c0-.23,0-.45,0-.66,0,0,0-.06.07-.06Z"/><path d="M61.14,27.54h1.24l.06.05v1.27c-.15.1-.32,0-.47.05a2.81,2.81,0,0,1-.41,0,1,1,0,0,1-.46,0V27.58Z"/><path d="M102.34,92.17H101l-.06-.06V90.87c.08-.11.21-.06.31-.07h1s.06.06.06.07a.71.71,0,0,1,0,.14Z"/><path d="M79,133.44h1.29s0,0,.07.05v1.27l0,0H79s-.06-.07-.06-.09C79,134.3,79,133.87,79,133.44Z"/><path d="M63.83,94.92H62.51l-.06-.06V93.63c.08-.12.21-.07.31-.07h1s.06.06.06.08a.57.57,0,0,1,0,.13Z"/><path d="M91.33,136.18H90l-.05-.06v-1.27a1.77,1.77,0,0,1,.65,0h.66s.06.05.06.07Z"/><path d="M85.83,137.57v1.29s0,0,0,.07H84.51l0-.05a.13.13,0,0,1,0-.06v-1.19s.06-.06.08-.06Z"/><path d="M102.33,26.16v1.31s0,.06-.06.06H101c-.11-.09-.07-.21-.07-.31v-1s.05-.07.07-.08h1.3Z"/><path d="M50.07,24.78V23.49s0,0,0-.07h1.27s0,0,0,0a.13.13,0,0,1,0,.06v1.19l-.08.06Z"/><path d="M0,186.12H.35c.15.1,0,.24.08.33-.12.13-.24.05-.35.08C-.08,186.39.05,186.25,0,186.12Z"/><path d="M44.58,85.3V84s.05,0,.07,0h1.26a1.77,1.77,0,0,1,0,.65c0,.23,0,.45,0,.66,0,0-.06.06-.08.06Z"/></g></g></svg>