<svg xmlns="http://www.w3.org/2000/svg" viewBox="0 0 81.51 92.11"><title>Recurso 30MANDALA</title><g id="Capa_2" data-name="Capa 2"><g id="Capa_1-2" data-name="Capa 1"><path d="M81.15,45.54,63,35a.41.41,0,0,0-.62.35v21a.42.42,0,0,0,.62.36l18.18-10.5A.41.41,0,0,0,81.15,45.54Z"/><path d="M66.24,59,80.9,67.48a.41.41,0,0,0,.61-.35V50.2a.41.41,0,0,0-.61-.35L66.24,58.31A.41.41,0,0,0,66.24,59Z"/><path d="M66.24,33.48,80.9,41.94a.41.41,0,0,0,.61-.35V24.66a.41.41,0,0,0-.61-.35L66.24,32.77A.41.41,0,0,0,66.24,33.48Z"/><path d="M44.09,46.25l14.66,8.46a.41.41,0,0,0,.61-.35V37.43a.41.41,0,0,0-.61-.35L44.09,45.54A.41.41,0,0,0,44.09,46.25Z"/><path d="M60.55,10.78l-18,10.45a.44.44,0,0,0,0,.78l18.06,10.4a.46.46,0,0,0,.68-.39l0-20.85A.45.45,0,0,0,60.55,10.78Z"/><path d="M64.93,30.35,79.44,22a.46.46,0,0,0,0-.79L64.9,12.8a.45.45,0,0,0-.68.39l0,16.77A.45.45,0,0,0,64.93,30.35Z"/><path d="M42.79,17.61,57.3,9.21a.46.46,0,0,0,0-.79L42.77.06a.46.46,0,0,0-.68.39l0,16.77A.45.45,0,0,0,42.79,17.61Z"/><path d="M42.82,43.17l14.51-8.4a.45.45,0,0,0,0-.78L42.79,25.62a.46.46,0,0,0-.68.4l0,16.76A.45.45,0,0,0,42.82,43.17Z"/><path d="M20.22,11.25l.06,20.86a.45.45,0,0,0,.67.39L39,22a.45.45,0,0,0,0-.78L20.89,10.86A.45.45,0,0,0,20.22,11.25Z"/><path d="M39.36,17.24l0-16.79a.45.45,0,0,0-.67-.39L24.13,8.5a.44.44,0,0,0,0,.77l14.56,8.36A.45.45,0,0,0,39.36,17.24Z"/><path d="M17.28,30.07l-.05-16.79a.44.44,0,0,0-.67-.38L2.05,21.33a.45.45,0,0,0,0,.78l14.56,8.35A.45.45,0,0,0,17.28,30.07Z"/><path d="M39.45,42.8,39.4,26a.44.44,0,0,0-.67-.38L24.21,34.06a.45.45,0,0,0,0,.78l14.56,8.35A.45.45,0,0,0,39.45,42.8Z"/><path d="M.51,46.46l18.1,10.35a.46.46,0,0,0,.68-.4L19.2,35.56a.45.45,0,0,0-.68-.39L.51,45.68A.45.45,0,0,0,.51,46.46Z"/><path d="M15.24,32.84.67,24.52a.45.45,0,0,0-.67.39L.07,41.69a.46.46,0,0,0,.68.39l14.49-8.45A.46.46,0,0,0,15.24,32.84Z"/><path d="M15.35,58.38.78,50.06a.45.45,0,0,0-.67.39L.18,67.23a.45.45,0,0,0,.68.38l14.49-8.45A.45.45,0,0,0,15.35,58.38Z"/><path d="M37.44,45.52,22.87,37.19a.45.45,0,0,0-.67.4l.07,16.77a.45.45,0,0,0,.68.39L37.44,46.3A.45.45,0,0,0,37.44,45.52Z"/><path d="M21.2,81.09l18-10.52a.46.46,0,0,0,0-.79L21.08,59.47a.45.45,0,0,0-.68.4l.11,20.82A.46.46,0,0,0,21.2,81.09Z"/><path d="M16.73,61.55,2.27,70a.46.46,0,0,0,0,.8l14.55,8.29a.46.46,0,0,0,.68-.4l-.09-16.75A.46.46,0,0,0,16.73,61.55Z"/><path d="M38.92,74.19,24.46,82.65a.46.46,0,0,0,0,.79L39,91.73a.45.45,0,0,0,.68-.4l-.09-16.75A.46.46,0,0,0,38.92,74.19Z"/><path d="M38.78,48.63,24.33,57.09a.46.46,0,0,0,0,.79l14.55,8.29a.46.46,0,0,0,.69-.4L39.47,49A.46.46,0,0,0,38.78,48.63Z"/><polygon points="61.53 81.22 61.37 58.81 42.05 70.16 61.53 81.22"/><polygon points="42.35 73.77 42.48 92.11 58.3 82.83 42.35 73.77"/><polygon points="64.38 60.84 64.51 79.18 80.32 69.9 64.38 60.84"/><polygon points="42.16 48.21 42.29 66.55 58.1 57.26 42.16 48.21"/></g></g></svg>