<svg xmlns="http://www.w3.org/2000/svg" viewBox="0 0 49.52 124.69"><title>Recurso 58ART</title><g id="Capa_2" data-name="Capa 2"><g id="Capa_1-2" data-name="Capa 1"><path d="M12.79,54.35h-1.6c-.06,0,0,.11,0,.17v1.36l0,0H9.63l0,0s0,0,0,0v3.08l0,0H8l0,0s0,0,0,0V70.26a0,0,0,0,1,0,0l0,0H6.43l0,0a.15.15,0,0,0,0,.07v1.41l0,0H4.78l0,0v1.53s0,0,0,0a9.84,9.84,0,0,1-1.55,0V71.94s0,0,0,0,0,0,0,0H1.6c-.06-.05,0-.12,0-.18V67.17l0,0s0,0,0,0H0s0,0,0,0a.06.06,0,0,1,0,0V64a.45.45,0,0,1,0-.08H1.53c.06-.09,0-.17,0-.26a2.8,2.8,0,0,0,0-.29v-.82a.64.64,0,0,1,0-.27H3.16l0,0V60.78l0,0H4.74l0,0V54.41a0,0,0,0,1,0,0c.07-.06.16,0,.24,0H6.39v-8s0,0,0,0H7.92c.06,0,0-.11,0-.17,0-1.95,0-3.89,0-5.84V40l0,0H9.56a9.9,9.9,0,0,0,0-1.56H8s0,0,0,0,0,0,0,0V36.77c0-.06.11,0,.16,0H9.56s0,0,0,0V25.61l0,0H11.1l.05,0V24c.09-.07.18,0,.26,0h1.11a.51.51,0,0,0,.27,0V22.42s0,0,0,0H16l0,0a0,0,0,0,0,0,0c0-.51,0-1,0-1.52,0,0,0,0,0,0l0,0h3.11l0,0V19.23s0,0,0,0H20.7s0,0,0,0,0,0,0,0V14.39c0-.06-.11,0-.17,0H19.21c-.05-.49-.06-8.11,0-11.12a0,0,0,0,1,0,0H20.7l0,0V1.6l0,0h3.08s0,0,0,0l0,0V0s0,0,0,0h1.56l0,0s0,0,0,0V1.51s0,0,0,0a.88.88,0,0,0,.28,0,2.25,2.25,0,0,0,.26,0h2.6l0,0V3.15s0,0,0,.05h1.49l0,0s0,0,0,0v9.48c0,.06-.11,0-.17,0H28.8c0,.46-.05,4.05,0,6.36l0,0h1.49l0,0v1.52a1.3,1.3,0,0,0,.34,0,2.8,2.8,0,0,0,.29,0h2.57v1.6l0,0h4.76s0,0,0,0a0,0,0,0,1,0,0v3.09l0,0,0,0h1.48l0,0s0,0,0,0V44.71l0,0h1.56l0,0v3.12c0,.06.11,0,.17,0h1.36l0,0s0,0,0,0v9.47l0,0h1.56l0,0v4.7a.53.53,0,0,0,.3,0h.63c.12,0,.23,0,.34,0a.63.63,0,0,1,.3,0V63.9l0,0h1.56l0,0v0c0,.49,0,1,0,1.45,0,0,0,0,0,0l0,0h1.49a11,11,0,0,1,0,1.63H46.36s0,0,0,0v6.31c0,.05-.09,0-.13,0h-4.6l0,0V68.74s0,0,0,0H40l0,0V59.15l0,0H38.4l0,0V56l0,0H36.77l0,0a0,0,0,0,1,0,0V51.2s0,0,0,0l0,0H35.2l0,0V75.05s0,0,0,0H33.57l0,0v4.76c-.05.06-.11,0-.17,0H32s0,0,0,0v6.31s0,0,0,0H30.38l0,0v1.5l0,0h1.56l0,0V99.08s0,0,0,0H30.37l0,0s0,0,0,0v6.28s0,0,0,0l0,0H28.8s0,0,0,0a0,0,0,0,0,0,0v15.87s0,0,0,0H27.18s0,0,0,0a.22.22,0,0,0,0,.08V123c-.05.06-.12,0-.17,0H25.61s0,0,0,0,0,0,0,0v1.52a10.77,10.77,0,0,1-1.63,0V91.11l0,0h1.56l0,0V87.91s0,0,0,0H24l0,0a0,0,0,0,1,0,0V84.73s0,0,0,0l0,0H22.42l0,0v36.72s0,0,0,0H20.78a.14.14,0,0,1,0,0V123a.32.32,0,0,1-.09,0h-3l-.07,0s0,0,0,0,0,0,0,0V103.9l0,0H16l0,0V97.51l0,0H14.43s0,0,0,0,0,0,0,0V91.11s0,0,0,0H16l0,0V80l0,0s0,0,0,0H14.38l0,0V73.58s0,0,0,0H12.83s0,0,0,0,0,0,0,0V54.35h1.52l0,0s0,0,0-.07V48a0,0,0,0,0,0,0s0,0,0,0H12.84l0,0Q12.8,51.16,12.79,54.35Zm22.34-8s0-.09,0-.13v-3a.29.29,0,0,0,0-.1H33.57l0,0s0,.07,0,.11v2.93c0,.05,0,.1,0,.13Z"/></g></g></svg>