<svg xmlns="http://www.w3.org/2000/svg" viewBox="0 0 159.91 124.08"><title>Recurso 47ART</title><g id="Capa_2" data-name="Capa 2"><g id="Capa_1-2" data-name="Capa 1"><path d="M102,19.32v1.31a1.35,1.35,0,0,1-.66.06h-.65s-.07.07-.07.09V22c.14.13.3.06.44.07H102v1.3c.16.13.32.07.46.08s.31,0,.46,0,.3,0,.45.06v2.64l-.06.06h-1.22c-.13.1-.08.23-.08.35v7.89c-.46.06-.89,0-1.35,0a2.9,2.9,0,0,0,0,.66v.7h-1.3c-.13.16-.06.31-.07.46s0,.31,0,.46,0,.3-.06.47H98s-.07.06-.07.08a1.69,1.69,0,0,0,0,.23v1a1.47,1.47,0,0,1-.66,0h-.7c0,.46,0,.89,0,1.31a.17.17,0,0,1-.06.06h-2.6s0,0-.08.07v1.23s-.06.07-.09.08,0,0-.07,0H92.44c-.13.09-.08.23-.08.35v1s-.06.06-.09.07H91a1.68,1.68,0,0,0-.06.67c0,.22,0,.45,0,.71H89.67c-.13.17,0,.35-.06.52a4.87,4.87,0,0,0,0,.54v1.69H88.31s-.08.06-.08.08a.85.85,0,0,0,0,.16v1.14H86.92s0,0-.08.08v1.23a.84.84,0,0,1-.46.06c-.16,0-.31,0-.46,0s-.31-.06-.43.05v5.46h.69a2.53,2.53,0,0,1,.67,0c0,.44,0,.85,0,1.25,0,0,0,0-.06.1h-.65a1.47,1.47,0,0,0-.66.05v1.09a.75.75,0,0,0,0,.15s0,0,.06.07h2.63s.06,0,.06-.07q0-4.78,0-9.57h1.3c.12.1.07.24.07.36V62c.46.06.89,0,1.31,0,0,0,0,0,.06,0a.17.17,0,0,1,0,.07v2.53s0,0,.06.08h2.64c.11-.14,0-.29.06-.44a3.53,3.53,0,0,0,0-.46c0-.14,0-.3-.07-.46H92.43l-.07-.09V60.73a1.48,1.48,0,0,0-.66-.06c-.23,0-.45,0-.65,0,0-.06-.07-.08-.07-.1V58c.15-.13.31-.06.45-.07a3.53,3.53,0,0,1,.46,0h.47V59.2s.06.09.08.09h1.22c.13.1.08.24.08.35V62c.46.07.89,0,1.31,0,.13.13,0,.29.06.43s0,.31,0,.46a1,1,0,0,0,0,.47h1.24s.07.06.08.08a.19.19,0,0,1,0,.08v1.15c-.1.13-.23.07-.35.07h-1s-.07.06-.07.08v1.24a1.63,1.63,0,0,0,.66.05h.71c0,.27,0,.49,0,.72v2l.07.06h2.6l.07.06v2.64l-.07.06H98s0,0,0,.06a.07.07,0,0,0,0,.06c0,5,0,10,0,15,.46,0,.89,0,1.32,0l0,.06a.17.17,0,0,1,0,.07v2.53l.07.08h1.23s.07.06.08.09,0,0,0,.07v5.28c.1.13.23.08.35.08.33,0,.66,0,1,0,0,.05.07.07.07.09v2.63a2.52,2.52,0,0,1-.67,0c-.22,0-.45,0-.69,0v1.32c.13.11.29.05.43.06s.31,0,.46,0a.92.92,0,0,1,.46,0v4s0,.06-.07.06h-1.22s0,0-.06.06a.19.19,0,0,0,0,.07v2.53s0,0,0,.06a1,1,0,0,1-.45,0c-.12,0-.25,0-.38,0h-.44l-.07.07a.17.17,0,0,0,0,.07v3.91s0,0-.06.08H98s-.07.06-.08.08a.22.22,0,0,0,0,.08v5.3a1.35,1.35,0,0,0,.66.06h.65s.07.07.07.09v5.35c-.13.14-.29.06-.44.07a3.49,3.49,0,0,1-.46,0h-.47v1.3c-.16.13-.31.06-.46.07H96.5V124s-.07.07-.09.07H88.28a1.63,1.63,0,0,1,0-.66c0-.23,0-.45,0-.65-.06,0-.08-.06-.1-.06h-2.6c-.12-.13,0-.29-.06-.43s0-.31,0-.46a.88.88,0,0,0-.06-.47H82.8s-.08-.06-.09-.08v-2.62a1.35,1.35,0,0,1,.66-.06h.69c.07.45,0,.88,0,1.31.13.13.29.05.43.06a3.53,3.53,0,0,0,.46,0,1.05,1.05,0,0,0,.46,0v-6.79s0,0-.06,0H84.17c-.13-.09-.08-.22-.08-.34v-5.1s-.06-.06-.09-.07,0,0-.07,0H82.79a.17.17,0,0,1-.06-.06.19.19,0,0,1,0-.07v-2.53s0,0-.06-.1H81.4c-.12-.14-.05-.3-.06-.45a3.49,3.49,0,0,1,0-.46v-.46H80s-.07-.07-.07-.09a.76.76,0,0,1,0-.15v-1.09a1.47,1.47,0,0,0-.66,0c-.22,0-.45,0-.65,0,0,0-.06.07-.06.09v2.59c.14.13.29.06.44.07s.31,0,.46,0a1.05,1.05,0,0,1,.46,0v2.65s0,0-.06.06h-2.6c-.13-.09-.08-.23-.08-.35,0-.33,0-.65,0-1-.46,0-.89,0-1.31,0l-.06-.06a.17.17,0,0,1,0-.07V103.5s0,0-.06-.09H74.52c-.13-.15-.07-.31-.08-.46s0-.3,0-.46V102h-1.3l-.08-.09V100.7a1.63,1.63,0,0,0-.66,0c-.23,0-.45,0-.65,0l-.07-.1v-3.9s0-.05,0-.08-.29,0-.43-.06-.31,0-.46,0h-.47V93.84s-.06-.07-.08-.08H69c-.12-.09-.07-.23-.07-.35,0-.78,0-1.57,0-2.38-.46,0-.89,0-1.32,0,0,0,0,0,0-.06a.15.15,0,0,1,0-.07c0-4.81,0-11.28,0-12.26h1.25a.28.28,0,0,0,.08-.08.19.19,0,0,0,0-.08c0-1.76,0-3.52,0-5.28,0,0,0,0-.07-.08H67.62s-.07-.07-.07-.09a.75.75,0,0,1,0-.15V69a1.53,1.53,0,0,0-.67-.06h-.71v-1.3a.45.45,0,0,0-.07-.07H59.36l-.08-.06V66.27l-.08-.08H58c-.12-.09-.07-.23-.07-.35V63.46c-.46-.07-.89,0-1.31,0,0,0-.05,0-.06-.06a.15.15,0,0,1,0-.07V56.63s0,0-.06-.09H55.23l-.08-.08a.17.17,0,0,1,0-.07v-8s0-.05,0-.07,0,0-.08-.09H53.83s-.07-.06-.07-.08V42.83s0,0,.06-.06l.07,0h2.53s0,0,.1-.06V41.44c.15-.12.3,0,.45-.07s.31,0,.46,0a.84.84,0,0,0,.46-.06V40.07S58,40,58,40h1.24a1.47,1.47,0,0,0,.05-.66c0-.22,0-.45,0-.7.45,0,.88,0,1.31,0a16.18,16.18,0,0,0,0-2.74H58l-.08-.08s0-.05,0-.07V34.56c-.1-.13-.23-.08-.35-.08h-1l-.07-.09s0,0,0-.07V33.14a2.52,2.52,0,0,0-.67,0h-.7V31.8c-.16-.13-.32-.06-.46-.08s-.31,0-.46,0a.88.88,0,0,1-.47-.06V30.42s-.06-.07-.08-.07H51.06a1.47,1.47,0,0,1-.05-.66c0-.22,0-.45,0-.66a1.11,1.11,0,0,0-.56-.05H48.32c-.13-.14-.06-.3-.07-.44s0-.31,0-.46a.88.88,0,0,0-.06-.47H47l-.08-.08s0-.05,0-.08V26.28s0,0,0-.05l-.07,0H44.13c0,.45,0,.88,0,1.35a2.9,2.9,0,0,1-.66,0h-.7v-1.3a.57.57,0,0,0-.08-.08s0,0-.07,0H38.68a.57.57,0,0,1-.08-.08V24.9c-.05,0-.06-.07-.09-.07h-4a1.51,1.51,0,0,1-.05-.67c0-.22,0-.45,0-.67-.81-.06-7.5-.07-9.59,0-.11.13,0,.29-.05.44a3.49,3.49,0,0,0,0,.46v.47H23.52c-.05,0-.08.06-.08.08a.76.76,0,0,0,0,.15v1.07c-.09.13-.23.07-.35.08H20.71c-.07.45,0,.88,0,1.31-.13.13-.29.05-.43.06a3.57,3.57,0,0,1-.46,0h-.47v1.3c-.16.13-.32.06-.47.07h-.46c-.14,0-.3,0-.46.06v1.24c-.05,0-.06.06-.09.07s0,0-.07,0H16.6a1.7,1.7,0,0,0-.06.67c0,.22,0,.45,0,.71h-1.3s-.06.05-.07.07a.17.17,0,0,0,0,.07v2.46s0,0,0,.07l-.07.09H13.86l-.07.08s0,0,0,.07V35.8a1.52,1.52,0,0,1-.67.05c-.22,0-.45,0-.65,0,0,0-.06.07-.06.09s0,0,0,.08v2.51c-.14.13-.3.06-.45.07H11.5a.88.88,0,0,0-.47.05v2.62a.57.57,0,0,1-.08.08s0,0-.07,0H9.73c-.13.09-.08.23-.08.35v1l-.09.07H8.35l-.06.06a.19.19,0,0,0,0,.07v2.53s0,0-.06.09H7c-.13.16-.06.31-.07.46s0,.3,0,.46.05.3-.06.46H5.59s-.07.07-.07.09a1.69,1.69,0,0,0,0,.23v1a1.47,1.47,0,0,1-.66,0c-.22,0-.45,0-.71,0,0,.46,0,.89,0,1.31-.14.13-.3.06-.44.07H3.23a.88.88,0,0,1-.47-.06V48.35a.28.28,0,0,0-.08-.08H.06A.7.7,0,0,1,0,48.07V42.94a.68.68,0,0,1,0-.17c.42-.05.84,0,1.27,0,0,0,0,0,.05-.05a.19.19,0,0,0,0-.07V38.71s0,0,.06-.09H2.68c.14-.18.06-.36.07-.54a4.64,4.64,0,0,0,0-.53V35.86h1.3s.07-.07.07-.09a.76.76,0,0,0,0-.15V31.78a1.48,1.48,0,0,1,.66-.06h.65s.06-.07.06-.1,0-.05,0-.07V29.1a.14.14,0,0,1,0-.07c.13-.12.29-.05.43-.06h.46a.88.88,0,0,0,.47-.06V26.29c.05-.05.06-.08.08-.08a.75.75,0,0,1,.15,0H8.19c.13-.1.08-.24.08-.35V23.48c.46-.07.89,0,1.31,0l.06-.05a.19.19,0,0,0,0-.08V20.79s0,0,.06-.09H11c.13-.19,0-.37.07-.54s0-.36,0-.53V19c0-.18,0-.35,0-.53a1,1,0,0,1,.06-.54h1.25c0-.05.06-.07.06-.09a.19.19,0,0,0,0-.08V15.23a1.63,1.63,0,0,1,.66-.05h.71c0-.46,0-.89,0-1.31.14-.12.3-.06.44-.07s.31,0,.46,0a.87.87,0,0,0,.47-.06V11.12c.05,0,.06-.07.08-.07h1.24a1.35,1.35,0,0,0,.06-.66c0-.22,0-.45,0-.7.46,0,.89,0,1.32,0,.12-.13.05-.29.06-.44s0-.31,0-.46A.88.88,0,0,1,18,8.29h1.24l.08-.08V7c.09-.13.23-.08.35-.08H22s.06-.07.06-.09a.19.19,0,0,0,0-.08V5.57a2.44,2.44,0,0,1,.66,0c.23,0,.45,0,.7,0V4.24s.06-.07.09-.08h2.6l.08-.07V2.85s.06-.07.08-.07h4a1.47,1.47,0,0,0,.05-.66c0-.22,0-.45,0-.65.05,0,.07-.06.09-.06h4c.12-.13.05-.29.06-.43s0-.31,0-.46V0h9.59s.05,0,.06.06,0,.05,0,.08V1.32c.1.12.23.07.35.07,1.1,0,2.2,0,3.3,0h.47c0,.46,0,.89,0,1.31a.15.15,0,0,0,.05.06h4s0,0,.08.06V4.07c.16.13.32.07.47.08s.3,0,.46,0,.3,0,.46.07V5.46l.09.07h2.61a1.48,1.48,0,0,1,.06.66c0,.23,0,.45,0,.72h1.3a.45.45,0,0,1,.07.07.17.17,0,0,1,0,.07V11L58,11h1.23c.05.05.08.06.08.08a.76.76,0,0,1,0,.15v1.09c.2.12.43.05.65.06h.69c.08.46,0,.89,0,1.32.13.12.29,0,.44.06s.3,0,.46,0a.89.89,0,0,1,.47.06V15.1c.16.13.31.07.46.08H63c.14,0,.3,0,.46.07v1.24l.09.07h4a1.63,1.63,0,0,1,.06.66v.71h2.68c.13.14.06.3.07.45a3.53,3.53,0,0,1,0,.46c0,.14,0,.3-.06.46H69c0,.05-.07.06-.07.08a.86.86,0,0,0,0,.16V22a1.35,1.35,0,0,0,.66.06h.7c0-.46,0-.89,0-1.31.13-.13.29-.05.44-.06a3.49,3.49,0,0,1,.46,0h.47V22a.57.57,0,0,0,.08.08h5.37c.13-.2.05-.43.06-.65s0-.45,0-.66c0,0-.07-.06-.09-.06H75.86a2.44,2.44,0,0,1,0-.66c0-.23,0-.45,0-.7h9.59c.11.13,0,.29.06.44s0,.3,0,.46a.89.89,0,0,0,0,.45h1.27s0-.05,0-.07a1.69,1.69,0,0,0,0-.23v-1s0,0,.05-.05a.1.1,0,0,1,.07,0c3.16,0,6.32,0,9.52,0,0,.46,0,.88,0,1.3.14.13.3.06.44.07h.93V19.4a.28.28,0,0,1,.08-.08s0,0,.08,0ZM80,45.51V42.85s0,0-.06-.1H78.64l0,.05v2.7H80c0,.88,0,1.77,0,2.66,0,0,0,0,0,.06a16.48,16.48,0,0,0,2.69,0V46.94c-.15-.09-.3,0-.45,0h-.46c-.14,0-.3.06-.45-.07V45.58s-.06-.07-.08-.07ZM85.39,80s0,0,0,0c0-.89,0-1.77,0-2.65.15-.1.31,0,.45-.06s.31,0,.46,0,.3.05.44-.06v-4c-.15-.1-.3,0-.45,0s-.3,0-.46,0-.3.06-.46-.07V71.76A.84.84,0,0,0,85,71.7a3.53,3.53,0,0,0-.46,0c-.15,0-.3-.06-.43.06a.77.77,0,0,0,0,.15V79.7c0,.1,0,.2.08.27ZM88.23,33.1v2.52a.85.85,0,0,0,0,.16s0,0,.07.08h2.33c.12,0,.26,0,.35-.08V30.43s0,0-.07-.09c-.2,0-.43,0-.65,0a1.47,1.47,0,0,0-.66,0V33s0,0-.07.08ZM74.44,34.49v1.28s0,0,.07.09c.2,0,.43,0,.65,0a1.47,1.47,0,0,0,.66-.05V34.56s0,0-.06-.07Zm4.08,6.87c.1-.15,0-.31,0-.45a3.53,3.53,0,0,0,0-.46c0-.14.05-.3,0-.44H77.25c-.1.15,0,.3,0,.45a3.38,3.38,0,0,0,0,.45c0,.15,0,.3.06.45Zm2.81,56.52V96.59s0,0-.07-.08c-.2,0-.43,0-.65,0a1.63,1.63,0,0,0-.66.06c0,.43,0,.83,0,1.24,0,0,0,0,.06.07Z"/><path d="M154.39,34.48h-1.31a1.35,1.35,0,0,1-.06-.66c0-.22,0-.45,0-.65l-.09-.07h-1.26a2.51,2.51,0,0,1,0-.67c0-.22,0-.45,0-.7h-1.29a.28.28,0,0,1-.08-.08.17.17,0,0,1,0-.07V29.05s0,0-.07-.08H149c-.05,0-.08-.06-.09-.08a.22.22,0,0,1,0-.08V27.65a1.35,1.35,0,0,0-.66-.06c-.22,0-.45,0-.69,0-.07-.46,0-.89,0-1.32-.13-.12-.29-.05-.43-.06s-.31,0-.46,0a1,1,0,0,1-.47-.06V24.91c-.16-.13-.31-.07-.46-.08s-.31,0-.46,0-.3,0-.46-.07V23.53c-.05-.05-.07-.08-.09-.08h-1.24a1.47,1.47,0,0,1,0-.66c0-.23,0-.45,0-.67-.94-.08-5.71-.09-9.62,0a2.42,2.42,0,0,0,0,.66c0,.23,0,.45,0,.7H131c-.14.16-.07.32-.08.46s0,.31,0,.46,0,.3-.06.45h-4s-.06,0-.06-.06a.76.76,0,0,1,0-.15V23.51a1.35,1.35,0,0,1,.66-.06h.65c0-.05.07-.07.07-.09V16.61a1.63,1.63,0,0,0-.66-.05h-.72V15.25c-.14-.13-.3-.06-.45-.07h-.45a.87.87,0,0,0-.47.06v1.23c0,.05-.06.08-.08.09h-1.24a1.35,1.35,0,0,1-.06-.66c0-.22,0-.45,0-.65l-.09-.07h-2.64a3,3,0,0,1,0-.67c0-.22,0-.45,0-.69H120l0,0a.19.19,0,0,0,0,.08v2.44s0,.06,0,.08l-.07.09h-1.23l-.08.08v1.24a1.47,1.47,0,0,1-.66.05c-.22,0-.45,0-.65,0,0,0-.06.07-.06.09,0,.4,0,.81,0,1.22a14.32,14.32,0,0,0,2.75,0V18l.08-.08s0,0,.08,0h2.52s0,0,.07.06v1.25l-.06.06h-1.22s0,0-.06.05a.19.19,0,0,0,0,.07V22s-.07.07-.09.07h-2.59c-.14-.13-.06-.29-.07-.44s0-.31,0-.46a1,1,0,0,0,0-.47h-4c-.14-.16-.07-.31-.08-.46a3.53,3.53,0,0,1,0-.46c0-.14,0-.3.06-.46h1.24c0-.05.07-.07.07-.09a.76.76,0,0,0,0-.15V15.26a27,27,0,0,0-4.13,0c0,.43,0,.85,0,1.32a2.9,2.9,0,0,1-.66,0h-.7v1.29a.57.57,0,0,1-.08.08h-3.9a.22.22,0,0,0-.08,0l-.08.07v1.21c-.05.06-.06.09-.08.09H102V18a1.35,1.35,0,0,1,.66-.06c.22,0,.45,0,.7,0,0-.46,0-.89,0-1.31l0-.06h2.6s0,0,.09-.06V15.26c.15-.13.31-.07.46-.08h.46a.84.84,0,0,0,.46-.06V13.88l.08-.08h2.62a1.35,1.35,0,0,0,.06-.66c0-.22,0-.45,0-.65l.09-.07h1.21c.14-.14.06-.3.08-.44s0-.31,0-.46a1,1,0,0,1,0-.47H113c.13-.16.07-.31.08-.46s0-.31,0-.46-.05-.3.06-.46h1.24c0-.05.07-.07.07-.09a.76.76,0,0,0,0-.15V8.34a1.63,1.63,0,0,1,.66-.05h.67a1.73,1.73,0,0,0,0-.63c0-.18,0-.36,0-.54V4.23s0-.06.06-.07h2.6s0,0,.09-.06V2.86l.08-.08h4l.08-.07V1.47s.06-.07.08-.07h4a1.63,1.63,0,0,0,0-.66c0-.22,0-.45,0-.67.85-.06,4.38-.08,6.83,0,.13.13,0,.28.06.43a3.53,3.53,0,0,1,0,.46v.47h-1.3a.57.57,0,0,0-.08.08s0,.05,0,.07V2.69c.09.13.23.08.34.08h5.1s.07.07.07.09V4.07a.17.17,0,0,1-.06.06l-.07,0h-3.9s0,0-.06,0,0,.29,0,.44,0,.25,0,.38v.45a14.58,14.58,0,0,1-2.76,0V4.23s-.05-.06-.08-.07h-2.62a.7.7,0,0,0-.06.19V9.47a.8.8,0,0,0,0,.15s0,0,.06,0h1.23a1.48,1.48,0,0,1,.06.66c0,.22,0,.45,0,.66a1,1,0,0,0,.48,0c.13,0,.25,0,.38,0h.44a.45.45,0,0,1,.07.07.17.17,0,0,1,0,.07v5.29s0,0,.06.08h1.23l.08.08a.19.19,0,0,1,0,.08v1.15c.09.13.23.07.34.07h1c0-.05.07-.07.07-.09a.76.76,0,0,0,0-.15V16.61a1.63,1.63,0,0,1,.66-.05H135c0,.06.06.08.06.1,0,.4,0,.81,0,1.2.15.13.31.06.45.07a3.53,3.53,0,0,0,.46,0h.47v-1.3c0-.05.06-.08.08-.08h1.3v1.29s0,0,.05.06a14.56,14.56,0,0,0,2.69,0V16.61s-.06-.05-.08-.05h-2.66V15.24a1.35,1.35,0,0,1,.66-.06h.65l.07-.09s0-.05,0-.07V12.48a1.7,1.7,0,0,1,.67-.06h.71v1.31c.14.13.3.06.45.07h.46a.84.84,0,0,0,.46-.06V12.5c.05,0,.06-.07.08-.08h1.23c.12-.09.07-.23.07-.35,0-.78,0-1.57,0-2.33,0,0,.06-.07.08-.07h1.24a1.63,1.63,0,0,1,.05.66c0,.23,0,.45,0,.65.06,0,.08.06.1.06h4c.13-.14.06-.3.07-.44s0-.31,0-.46a.92.92,0,0,1,.05-.46h2.65l0,.06a.19.19,0,0,1,0,.08V11c.09.13.23.08.34.08.33,0,.66,0,1,0,0,.05.07.07.07.09a.76.76,0,0,1,0,.15v2.47a1.63,1.63,0,0,0,.66.05h.65c0,.06.06.08.06.1s0,0,0,.07v5.21a.19.19,0,0,0,0,.07c.12.12.28.05.43.06h.92V22c-.14.1-.3,0-.44.05h-.93v2.68a.28.28,0,0,1-.08.08h-1.24a1.47,1.47,0,0,1,0-.66c0-.23,0-.45,0-.65-.06,0-.08-.07-.1-.07H151.7a16.23,16.23,0,0,0,0,2.75h1.26c.14.18.06.37.07.54s0,.35,0,.53v.61c0,.18,0,.36,0,.54a1,1,0,0,0,.06.54h1.24c0,.05.06.06.07.09s0,.05,0,.07ZM133.7,19.32h-1.13a.75.75,0,0,0-.15,0s0,0-.08.08c0,.29,0,.62,0,1,0,.12-.05.25.08.34h1.22s0,0,.06-.07Z"/><path d="M111.66,52.4H113c.13-.1.08-.23.08-.35V48.33s.06-.06.09-.06h1.21l.06-.06a.14.14,0,0,0,0-.07V45.61s0,0,.06-.1h1.24l.07-.07a.19.19,0,0,0,0-.08V42.84s0,0,0-.07h2.64s.06,0,.06.06a.75.75,0,0,1,0,.15v1.09c.21.12.44,0,.66.06h.65l.07.09s0,.05,0,.07v5.3a1.69,1.69,0,0,0,.67,0h.65c0,.06.06.08.06.1v2.58a.22.22,0,0,1-.07.07h-2.6s0,0-.08.07v2.61s-.06.07-.08.07h-1.23c-.12.09-.07.23-.07.35,0,.78,0,1.57,0,2.33l-.08.07a.22.22,0,0,1-.08,0h-3.92a1.69,1.69,0,0,0,0,.67c0,.22,0,.45,0,.71h-2.69c-.12.15,0,.31-.07.45a3.53,3.53,0,0,0,0,.46.88.88,0,0,0,.06.47h1.24a.57.57,0,0,1,.08.08v5.37a1.35,1.35,0,0,1-.66.06h-.65l-.07-.08V64.88l-.06-.06h-4s0,0-.1,0c0-.2,0-.43,0-.65v-.6c-.15-.13-.31-.06-.45-.07h-.46c-.15,0-.3,0-.46-.06V62.11s0-.06.07-.06h1.24a1.47,1.47,0,0,0,0-.66c0-.22,0-.45,0-.65,0,0,.06-.06.09-.07s.05,0,.07,0h2.52s0,0,.06-.06a.17.17,0,0,0,0-.07V56.63s0,0,0-.08h1.28c.11.13,0,.29,0,.44s0,.3,0,.45v.46h1.32s.05,0,.06-.07,0,0,0-.07Z"/><path d="M102,75.79V70.38c.13-.12.29,0,.44-.06h.45a1,1,0,0,1,.47.05v1.25c.18.14.37.06.54.08h1.14c.18,0,.36,0,.53,0a1.3,1.3,0,0,1,.55,0V73c.16.13.31.06.46.07a3.38,3.38,0,0,0,.45,0h.46V74.4c-.14.1-.3,0-.44,0h-.92v1.32C105.46,75.85,102.78,75.85,102,75.79Z"/><path d="M104.77,80v-2.7a16.7,16.7,0,0,1,2.74,0v4c-.13.11-.29,0-.44.06s-.3,0-.45,0h-.47v1.3c-.16.13-.31.06-.46.07a2.36,2.36,0,0,1-.46,0,.69.69,0,0,1-.46-.06V81.43a.28.28,0,0,0-.08-.08h-1.22c-.13-.09-.08-.23-.08-.35,0-.32,0-.65,0-1l.08-.07a.75.75,0,0,1,.15,0Z"/><path d="M103.39,40h2.7c.1.15,0,.31,0,.45s0,.31,0,.46-.05.3.06.46h1.23c0,.05.08.06.08.08a.75.75,0,0,1,0,.15v1.07c-.09.13-.22.08-.34.08h-1s-.07.06-.07.08a.75.75,0,0,0,0,.15v1.09c-.21.12-.44,0-.66.06h-.65c0-.05-.07-.07-.07-.08V42.81a1.35,1.35,0,0,0-.66-.06h-.65s-.07-.07-.07-.09Z"/><path d="M95.12,46.89h1.31a1.35,1.35,0,0,0,.06-.66c0-.23,0-.45,0-.65l.08-.07h1.26a2.14,2.14,0,0,1,0,.67c0,.22,0,.45,0,.69h2.67c.14.16.07.32.08.47a3.38,3.38,0,0,1,0,.45c0,.15,0,.31,0,.46h-5.4s-.05,0-.06-.06a.22.22,0,0,1,0-.08Z"/><path d="M124,26.21h-1.29v1.3s-.06.07-.08.07h-1.22c-.13-.1-.08-.23-.08-.35V24.9c.16-.12.31-.06.46-.07h.92v-1.3l.08-.08H124c.12.09.07.23.07.35,0,.71,0,1.42,0,2.13C124.07,26,124.1,26.14,124,26.21Z"/><path d="M154.39,34.48h1.29s0,0,.08.06v1.24c.16.13.31.06.46.07s.3,0,.45,0a1,1,0,0,1,.48,0v2.7h-1.29s0,0-.08-.06V37.32c-.15-.14-.31-.07-.45-.08h-.46a.91.91,0,0,1-.48,0Z"/><path d="M102,51V48.35l.06-.07h2.63a14.24,14.24,0,0,1,0,2.7s0,0,0,0Z"/><path d="M95.12,46.89H92.45l-.07-.05V45.56c.12-.11.28,0,.42-.05h.92V44.16a3.25,3.25,0,0,1,.69,0c.22,0,.44,0,.64,0,0,0,.07.07.07.09Z"/><path d="M82.7,113.05v4.08l-.07.06s0,0-.07,0H81.41c-.13-.1-.08-.23-.08-.35v-3.71s.06-.07.08-.07H82.7Z"/><path d="M97.87,52.39H95.18s-.06,0-.06-.07a.75.75,0,0,1,0-.15V51.1a11.05,11.05,0,0,1,2.7-.05s.05,0,.05.05a.75.75,0,0,1,0,.15Z"/><path d="M102,51v1.29s0,0-.06.07H99.32l0-.05a.14.14,0,0,1,0-.07V51.09c.06,0,.08-.07.1-.07Z"/><path d="M143.31,5.52h-1.26c-.11-.15-.05-.3-.06-.45a3.53,3.53,0,0,1,0-.46c0-.14-.05-.3,0-.45h1.27c.1.15,0,.31.05.45a3.53,3.53,0,0,1,0,.46C143.35,5.21,143.41,5.37,143.31,5.52Z"/><path d="M117.16,26.21v1.31s0,.06-.07.06h-1.23a1.35,1.35,0,0,1-.06-.66c0-.22,0-.45,0-.65,0,0,.06-.07.08-.07Z"/><path d="M114.42,31.73h1.31s.06.05.06.07c0,.41,0,.82,0,1.24a1.35,1.35,0,0,1-.66.06h-.65s-.07-.06-.07-.08Z"/><path d="M158.53,38.61V37.25h1.32l0,0a.1.1,0,0,1,0,.07v1.18s-.07.06-.09.06Z"/><path d="M157.15,38.61h1.38v1.3c-.09.13-.23.08-.35.08h-1a.28.28,0,0,1-.08-.08s0,0,0-.07Z"/><path d="M113,45.51v1.31s0,.06-.07.06h-1.24a1.35,1.35,0,0,1-.06-.66c0-.22,0-.45,0-.65,0,0,.06-.07.08-.07H113Z"/><path d="M111.66,52.4h-1.29s0,0-.07-.06V51.08l0,0h1.24s.07.07.07.09Z"/></g></g></svg>