<svg xmlns="http://www.w3.org/2000/svg" viewBox="0 0 123.9 67.45"><defs><style>.cls-1{fill:none;stroke:#000;stroke-miterlimit:10;stroke-width:1.66px;}</style></defs><title>Recurso 28MODERN ICON</title><g id="Capa_2" data-name="Capa 2"><g id="Capa_1-2" data-name="Capa 1"><polygon class="cls-1" points="82.58 0.83 82.19 0.83 0.83 0.83 0.83 66.62 82.19 66.62 82.58 66.62 123.07 66.62 123.07 0.83 82.58 0.83"/><line class="cls-1" x1="0.83" y1="0.83" x2="123.07" y2="66.62"/><path d="M9.15,57.55a.58.58,0,0,0-.25-.46,1,1,0,0,0-.6-.17.77.77,0,0,0-.51.14.48.48,0,0,0-.18.4.31.31,0,0,0,.19.28,4.21,4.21,0,0,0,.8.23,2.9,2.9,0,0,1,1.18.46,1,1,0,0,1,.3.82,1.07,1.07,0,0,1-.45.91,2,2,0,0,1-1.22.33,1.83,1.83,0,0,1-1.2-.35,1.32,1.32,0,0,1-.46-1h.81a.62.62,0,0,0,.24.49.92.92,0,0,0,.61.18A1.35,1.35,0,0,0,9,59.67a.4.4,0,0,0,.23-.37A.36.36,0,0,0,9.11,59a2.52,2.52,0,0,0-.69-.23,3.77,3.77,0,0,1-1.29-.46,1,1,0,0,1-.32-.78,1.12,1.12,0,0,1,.43-.93,1.77,1.77,0,0,1,1.15-.35,1.65,1.65,0,0,1,1.11.36,1.32,1.32,0,0,1,.48,1Z"/><path d="M11.29,56.33H13a1.59,1.59,0,0,1,1.27.49,2.12,2.12,0,0,1,.44,1.44,2.42,2.42,0,0,1-.45,1.58,1.65,1.65,0,0,1-1.33.54H11.29Zm.84,3.36h.72a.9.9,0,0,0,.77-.35,1.76,1.76,0,0,0,.26-1.05,1.56,1.56,0,0,0-.24-.95.85.85,0,0,0-.72-.31h-.79Z"/><path d="M16.68,60.38h-.79V56.33h1.24l.74,3.21h0l.73-3.21h1.22v4.05H19V57l-.76,3.4h-.83l-.76-3.48h0Z"/><path d="M20.92,58.43H22.5v.74H20.92Z"/><path d="M23.65,60.38V56.33h.84v3.33h2v.72Z"/><path d="M29.23,57.54a.52.52,0,0,0-.13-.38.46.46,0,0,0-.36-.15.5.5,0,0,0-.4.17.74.74,0,0,0-.15.46h-.73a1.28,1.28,0,0,1,.36-.94,1.3,1.3,0,0,1,1-.34,1.28,1.28,0,0,1,.89.32,1,1,0,0,1,.34.81.86.86,0,0,1-.36.7l-.1.07a.72.72,0,0,1,.24.14.93.93,0,0,1,.34.8,1.21,1.21,0,0,1-.37.94,1.42,1.42,0,0,1-1,.35,1.45,1.45,0,0,1-1-.34,1.34,1.34,0,0,1-.37-1h.77a.87.87,0,0,0,.15.52.55.55,0,0,0,.43.17.59.59,0,0,0,.44-.18.65.65,0,0,0,.16-.47.53.53,0,0,0-.16-.41.59.59,0,0,0-.37-.15h-.37v-.58h.14l.23,0a.52.52,0,0,0,.3-.13A.48.48,0,0,0,29.23,57.54Z"/><path d="M31.43,56.33h.84V58l1.56-1.68h1.08L33.29,58,35,60.38h-1.1L32.68,58.6l-.41.42v1.36h-.84Z"/><path d="M36,56.33h1.73a1.59,1.59,0,0,1,1.27.49,2.12,2.12,0,0,1,.44,1.44A2.42,2.42,0,0,1,39,59.84a1.62,1.62,0,0,1-1.32.54H36Zm.85,3.36h.71a.9.9,0,0,0,.77-.35,1.69,1.69,0,0,0,.26-1.05,1.56,1.56,0,0,0-.24-.95.85.85,0,0,0-.72-.31h-.78Z"/><path d="M42.85,57.55a.61.61,0,0,0-.25-.46,1,1,0,0,0-.61-.17.76.76,0,0,0-.5.14.48.48,0,0,0-.18.4.31.31,0,0,0,.19.28,4.28,4.28,0,0,0,.79.23,3,3,0,0,1,1.19.46,1,1,0,0,1,.29.82,1.07,1.07,0,0,1-.45.91,2,2,0,0,1-1.21.33,1.83,1.83,0,0,1-1.2-.35,1.33,1.33,0,0,1-.47-1h.82a.64.64,0,0,0,.23.49,1,1,0,0,0,.62.18,1.35,1.35,0,0,0,.63-.13A.42.42,0,0,0,43,59.3.37.37,0,0,0,42.8,59a2.29,2.29,0,0,0-.68-.23,3.77,3.77,0,0,1-1.29-.46,1,1,0,0,1-.32-.78,1.12,1.12,0,0,1,.43-.93,1.77,1.77,0,0,1,1.15-.35,1.65,1.65,0,0,1,1.11.36,1.31,1.31,0,0,1,.47,1Z"/><path d="M9.41,50.15a1.28,1.28,0,0,1-.21.75,2.92,2.92,0,0,1-.8.68,2.79,2.79,0,0,0-.74.62H9.41v.69H6.67A1.54,1.54,0,0,1,7,52,4.24,4.24,0,0,1,8,51a1.75,1.75,0,0,0,.48-.44.7.7,0,0,0,.14-.44.61.61,0,0,0-.15-.43.53.53,0,0,0-.41-.17.49.49,0,0,0-.42.21.84.84,0,0,0-.14.55H6.72a1.39,1.39,0,0,1,.35-1,1.29,1.29,0,0,1,1-.39,1.35,1.35,0,0,1,1,.36A1.17,1.17,0,0,1,9.41,50.15Z"/><path d="M10.75,52.51A2.86,2.86,0,0,1,10.41,51a3,3,0,0,1,.34-1.58,1.18,1.18,0,0,1,1.05-.51,1.18,1.18,0,0,1,1,.51A2.82,2.82,0,0,1,13.19,51v0a2.77,2.77,0,0,1-.34,1.54,1.2,1.2,0,0,1-1,.5A1.2,1.2,0,0,1,10.75,52.51Zm1.5-.46A3.34,3.34,0,0,0,12.38,51a3.17,3.17,0,0,0-.13-1.11.46.46,0,0,0-.45-.33.44.44,0,0,0-.44.33A3.17,3.17,0,0,0,11.23,51a3.08,3.08,0,0,0,.13,1.09.45.45,0,0,0,.44.32A.47.47,0,0,0,12.25,52.05Z"/><path d="M14.3,52.08h.84v.82H14.3Z"/><path d="M16.56,48.85h.85v1.68L19,48.85H20L18.42,50.5l1.73,2.4H19l-1.22-1.78-.41.42V52.9h-.85Z"/><rect x="6.73" y="41.46" width="4.17" height="4.17"/></g></g></svg>