<svg xmlns="http://www.w3.org/2000/svg" viewBox="0 0 128.87 130.56"><title>Recurso 108MANDALA</title><g id="Capa_2" data-name="Capa 2"><g id="Capa_1-2" data-name="Capa 1"><path d="M42.91,3.64A16.77,16.77,0,0,1,49,6.89a13.27,13.27,0,0,1,4.08,5.89,16.3,16.3,0,0,1,.7,7.19,21.66,21.66,0,0,1-2.09,6.72c-2.08,4.16-5,7.67-7.7,11.22-1.38,1.77-2.82,3.5-4.26,5.23-.73.85-1.49,1.72-2.14,2.53a11.84,11.84,0,0,0-.86,1.27A2.44,2.44,0,0,0,36.35,48c0,.12,0,.13.07.15a1,1,0,0,0,.22.13,4.3,4.3,0,0,0,1.17.35,25.17,25.17,0,0,0,3.12.27l6.67.13a52.27,52.27,0,0,1,6.87.6A19.88,19.88,0,0,1,61.34,52a10.78,10.78,0,0,1,2.94,2.59A9.48,9.48,0,0,1,66,58.19a14.51,14.51,0,0,1-.35,7.32A30.63,30.63,0,0,1,63,71.87a46.81,46.81,0,0,1-3.67,5.69L59,77.39c1.74-4.1,3.48-8.24,4.19-12.43A12.78,12.78,0,0,0,63,59a7.11,7.11,0,0,0-3.45-4,18.83,18.83,0,0,0-5.74-1.9,55.19,55.19,0,0,0-6.42-.8c-2.19-.19-4.42-.28-6.69-.51a20.7,20.7,0,0,1-3.52-.59,6.27,6.27,0,0,1-1.92-.86,3,3,0,0,1-.93-1.06,2.5,2.5,0,0,1-.23-1.47,4.51,4.51,0,0,1,.9-2,12.32,12.32,0,0,1,1.19-1.37c.85-.84,1.69-1.52,2.49-2.29a47.22,47.22,0,0,0,4.5-4.88,36.7,36.7,0,0,0,6.15-11.57c1.3-4.06,2.24-8.25,1.21-12.18s-4.09-7.15-7.8-9.61Z"/><path d="M23.13,14.72a16.72,16.72,0,0,1,6.82,1,13.42,13.42,0,0,1,5.85,4.14,16.41,16.41,0,0,1,3.12,6.52,21.65,21.65,0,0,1,.33,7c-.53,4.62-2,8.91-3.39,13.18-.69,2.14-1.46,4.25-2.22,6.37-.39,1-.81,2.13-1.15,3.11a11,11,0,0,0-.37,1.48,2.33,2.33,0,0,0,0,1.15c0,.11.08.12.11.12a.82.82,0,0,0,.25.05,4.2,4.2,0,0,0,1.23-.07,27.69,27.69,0,0,0,3-.81l6.32-2.16A52.5,52.5,0,0,1,49.73,54,19.83,19.83,0,0,1,57,53.89a10.76,10.76,0,0,1,3.66,1.42,9.62,9.62,0,0,1,2.84,2.77,14.48,14.48,0,0,1,2.18,7,31,31,0,0,1-.34,6.9,44.46,44.46,0,0,1-1.5,6.6l-.32-.06c.23-4.46.45-8.94-.32-13.12A12.77,12.77,0,0,0,61,59.89a7.13,7.13,0,0,0-4.62-2.61,19,19,0,0,0-6,.17A58.46,58.46,0,0,0,44,58.9c-2.13.57-4.25,1.25-6.47,1.82a21.75,21.75,0,0,1-3.5.64,6.5,6.5,0,0,1-2.1-.15,2.87,2.87,0,0,1-1.23-.68,2.47,2.47,0,0,1-.72-1.3,4.53,4.53,0,0,1,.16-2.16,11.65,11.65,0,0,1,.66-1.69c.5-1.09,1.06-2,1.55-3a46.8,46.8,0,0,0,2.56-6.12,36.52,36.52,0,0,0,1.82-13c-.16-4.27-.71-8.53-3-11.87S27.43,16.1,23.1,15.05Z"/><path d="M8.33,31.9a16.65,16.65,0,0,1,6.74-1.42A13.18,13.18,0,0,1,22,32.37a16.1,16.1,0,0,1,5.16,5.06,21.59,21.59,0,0,1,2.72,6.48C31,48.44,31,53,31.18,57.46c.08,2.25.08,4.49.09,6.74,0,1.12,0,2.28,0,3.32a10.55,10.55,0,0,0,.16,1.53,2.55,2.55,0,0,0,.41,1.07c.08.08.12.07.15.07a1.78,1.78,0,0,0,.26,0,4.38,4.38,0,0,0,1.12-.49,24.36,24.36,0,0,0,2.56-1.79l5.19-4.19a51.7,51.7,0,0,1,5.65-4,19.71,19.71,0,0,1,6.79-2.6,10.8,10.8,0,0,1,3.92.09,9.55,9.55,0,0,1,3.61,1.63,14.32,14.32,0,0,1,4.44,5.82,30.69,30.69,0,0,1,2,6.6A46.44,46.44,0,0,1,68.41,78l-.32.06c-1.3-4.27-2.63-8.55-4.79-12.22a12.9,12.9,0,0,0-3.95-4.42,7.12,7.12,0,0,0-5.24-.86,18.92,18.92,0,0,0-5.62,2.22,59.68,59.68,0,0,0-5.43,3.52c-1.8,1.27-3.56,2.63-5.45,3.92A21.29,21.29,0,0,1,34.53,72a6.17,6.17,0,0,1-2,.58,2.85,2.85,0,0,1-1.39-.22,2.39,2.39,0,0,1-1.12-1,4.45,4.45,0,0,1-.59-2.09,12.17,12.17,0,0,1,0-1.82c.1-1.18.31-2.24.43-3.35a47.41,47.41,0,0,0,.31-6.63,36.56,36.56,0,0,0-2.72-12.81c-1.61-4-3.59-7.77-6.9-10.11s-7.73-2.85-12.16-2.35Z"/><path d="M.3,53.1a16.67,16.67,0,0,1,5.84-3.64,13.33,13.33,0,0,1,7.15-.59,16.24,16.24,0,0,1,6.58,3A21.65,21.65,0,0,1,24.64,57c2.57,3.88,4.16,8.14,5.87,12.28.84,2.08,1.62,4.19,2.39,6.3.38,1,.75,2.15,1.13,3.12a9.82,9.82,0,0,0,.67,1.38,2.28,2.28,0,0,0,.75.86c.11.06.14,0,.17,0a1.34,1.34,0,0,0,.22-.12,4.54,4.54,0,0,0,.9-.85,25,25,0,0,0,1.78-2.56L42,71.75a52.41,52.41,0,0,1,4-5.65,20,20,0,0,1,5.48-4.77,10.91,10.91,0,0,1,3.72-1.25,9.54,9.54,0,0,1,3.95.3,14.39,14.39,0,0,1,6.17,3.95,30.77,30.77,0,0,1,4.17,5.5,45,45,0,0,1,3.09,6l-.28.16c-2.68-3.56-5.4-7.14-8.67-9.84a12.73,12.73,0,0,0-5.24-2.8,7.06,7.06,0,0,0-5.21,1,18.82,18.82,0,0,0-4.52,4,58.64,58.64,0,0,0-3.91,5.16c-1.25,1.81-2.44,3.69-3.78,5.55a20.22,20.22,0,0,1-2.27,2.74,6.08,6.08,0,0,1-1.7,1.24,2.84,2.84,0,0,1-1.38.27,2.4,2.4,0,0,1-1.39-.53A4.5,4.5,0,0,1,32.9,81a11.31,11.31,0,0,1-.59-1.72c-.31-1.15-.48-2.22-.74-3.3a47,47,0,0,0-2-6.34,36.66,36.66,0,0,0-6.94-11.11c-2.86-3.16-6-6.07-9.94-7.14s-8.24,0-12.23,1.95Z"/><path d="M0,75.77a16.79,16.79,0,0,1,4.25-5.42,13.23,13.23,0,0,1,6.51-3,16.24,16.24,0,0,1,7.21.55,21.69,21.69,0,0,1,6.25,3.23c3.74,2.77,6.69,6.22,9.71,9.53,1.51,1.66,3,3.38,4.41,5.1.71.87,1.44,1.77,2.13,2.55a11,11,0,0,0,1.09,1.07,2.43,2.43,0,0,0,1,.55c.12,0,.14,0,.16,0a1.31,1.31,0,0,0,.17-.19,4.3,4.3,0,0,0,.55-1.1,27.05,27.05,0,0,0,.8-3l1.29-6.54a51.49,51.49,0,0,1,1.79-6.67A19.78,19.78,0,0,1,50.85,66a10.67,10.67,0,0,1,3.06-2.45,9.45,9.45,0,0,1,3.82-1.08,14.45,14.45,0,0,1,7.14,1.61,31.65,31.65,0,0,1,5.81,3.73,45.19,45.19,0,0,1,5,4.61l-.21.25c-3.74-2.44-7.51-4.86-11.52-6.29A12.91,12.91,0,0,0,58,65.57a7.12,7.12,0,0,0-4.57,2.71,19.15,19.15,0,0,0-2.87,5.31,57.14,57.14,0,0,0-1.9,6.19c-.57,2.13-1,4.3-1.66,6.51a20.81,20.81,0,0,1-1.2,3.35,6.06,6.06,0,0,1-1.18,1.75,3,3,0,0,1-1.2.73,2.59,2.59,0,0,1-1.49,0,4.6,4.6,0,0,1-1.79-1.23,12,12,0,0,1-1.13-1.41c-.69-1-1.21-1.92-1.83-2.85a45.9,45.9,0,0,0-4-5.27,36.32,36.32,0,0,0-10.32-8.07c-3.77-2-7.73-3.64-11.78-3.31S3.34,72.74.27,76Z"/><path d="M7.47,97.18a16.85,16.85,0,0,1,2.14-6.55,13.28,13.28,0,0,1,5.1-5,16.19,16.19,0,0,1,7-1.94,21.46,21.46,0,0,1,7,.89c4.46,1.32,8.42,3.56,12.39,5.63,2,1,3.93,2.17,5.88,3.29,1,.57,2,1.17,2.87,1.67a10.09,10.09,0,0,0,1.4.63,2.46,2.46,0,0,0,1.13.17c.12,0,.13-.06.14-.09a1.85,1.85,0,0,0,.09-.24,3.78,3.78,0,0,0,.14-1.22,24.84,24.84,0,0,0-.27-3.11l-1-6.59a51.45,51.45,0,0,1-.6-6.87,19.92,19.92,0,0,1,1.13-7.18,10.89,10.89,0,0,1,2-3.35A9.57,9.57,0,0,1,57.19,65,14.41,14.41,0,0,1,64.45,64a30.76,30.76,0,0,1,6.73,1.53,46.21,46.21,0,0,1,6.24,2.62l-.12.31c-4.34-1-8.72-2-13-2a12.9,12.9,0,0,0-5.8,1.22,7.1,7.1,0,0,0-3.37,4.11,18.58,18.58,0,0,0-.88,6,56.89,56.89,0,0,0,.33,6.47c.19,2.19.49,4.39.66,6.68a20.09,20.09,0,0,1,0,3.56,6.17,6.17,0,0,1-.5,2,3,3,0,0,1-.89,1.09,2.49,2.49,0,0,1-1.4.48,4.51,4.51,0,0,1-2.1-.53,13.2,13.2,0,0,1-1.56-1c-1-.68-1.79-1.39-2.69-2A45.29,45.29,0,0,0,40.57,91,36.68,36.68,0,0,0,28.11,87c-4.23-.58-8.52-.77-12.21.93s-6.33,5.26-8.11,9.34Z"/><path d="M21.82,114.74a16.79,16.79,0,0,1-.23-6.89,13.33,13.33,0,0,1,3.06-6.48,16.15,16.15,0,0,1,5.88-4.2,21.47,21.47,0,0,1,6.86-1.55c4.65-.28,9.13.46,13.57,1,2.23.31,4.44.7,6.66,1.08,1.1.21,2.24.43,3.27.59a10.08,10.08,0,0,0,1.52.11,2.39,2.39,0,0,0,1.13-.23c.1-.06.1-.1.09-.13a.82.82,0,0,0,0-.26,4.51,4.51,0,0,0-.28-1.19A26.39,26.39,0,0,0,62,93.81L58.81,88a51,51,0,0,1-2.91-6.25,19.81,19.81,0,0,1-1.39-7.13,10.65,10.65,0,0,1,.77-3.85,9.58,9.58,0,0,1,2.24-3.28A14.36,14.36,0,0,1,64,64.1a30.9,30.9,0,0,1,6.85-.87,46.19,46.19,0,0,1,6.76.34v.33c-4.43.54-8.88,1.1-12.87,2.58a12.66,12.66,0,0,0-5,3.14,7.13,7.13,0,0,0-1.77,5,19.08,19.08,0,0,0,1.22,5.92,60.81,60.81,0,0,0,2.52,6c.94,2,2,4,2.91,6a20.26,20.26,0,0,1,1.24,3.34,6.19,6.19,0,0,1,.22,2.1,3,3,0,0,1-.45,1.33,2.5,2.5,0,0,1-1.16.93,4.55,4.55,0,0,1-2.16.22,11,11,0,0,1-1.78-.36c-1.15-.3-2.16-.69-3.23-1a46.2,46.2,0,0,0-6.47-1.46,36.6,36.6,0,0,0-13.09.46c-4.17.9-8.27,2.18-11.16,5s-4.14,7.11-4.42,11.56Z"/><path d="M41.31,126.33a16.55,16.55,0,0,1-2.57-6.39,13.25,13.25,0,0,1,.66-7.14,16.23,16.23,0,0,1,4.08-6A21.57,21.57,0,0,1,49.4,103c4.27-1.86,8.74-2.69,13.11-3.65,2.2-.47,4.41-.87,6.62-1.27,1.11-.18,2.26-.36,3.28-.56a10.51,10.51,0,0,0,1.47-.42,2.43,2.43,0,0,0,1-.6c.07-.09.06-.12,0-.15a2.13,2.13,0,0,0-.09-.25,3.91,3.91,0,0,0-.67-1,25.75,25.75,0,0,0-2.22-2.21l-5-4.39A52.14,52.14,0,0,1,62,83.65a19.93,19.93,0,0,1-3.74-6.23,10.66,10.66,0,0,1-.59-3.88,9.53,9.53,0,0,1,1-3.84,14.46,14.46,0,0,1,5-5.39,31,31,0,0,1,6.14-3.15,45.17,45.17,0,0,1,6.47-2l.11.31c-4,2-8,4.07-11.2,6.83A12.75,12.75,0,0,0,61.49,71a7.12,7.12,0,0,0,.06,5.31,19.13,19.13,0,0,0,3.17,5.15,59,59,0,0,0,4.41,4.74c1.56,1.55,3.2,3,4.8,4.69a21.47,21.47,0,0,1,2.31,2.71,6.12,6.12,0,0,1,.92,1.9,2.84,2.84,0,0,1,0,1.4,2.45,2.45,0,0,1-.77,1.27,4.41,4.41,0,0,1-2,.94,11.76,11.76,0,0,1-1.8.28c-1.19.11-2.26.09-3.37.16a45.52,45.52,0,0,0-6.59.85,36.57,36.57,0,0,0-12.14,4.9c-3.61,2.28-7,4.88-8.76,8.55s-1.47,8.11-.21,12.38Z"/><path d="M63.58,130.56a16.81,16.81,0,0,1-4.6-5.13,13.37,13.37,0,0,1-1.82-6.93,16.22,16.22,0,0,1,1.8-7,21.62,21.62,0,0,1,4.26-5.6c3.38-3.2,7.29-5.51,11.07-7.91,1.91-1.19,3.85-2.32,5.79-3.45,1-.55,2-1.12,2.89-1.65a12,12,0,0,0,1.24-.9,2.48,2.48,0,0,0,.72-.9c0-.11,0-.14,0-.16a.85.85,0,0,0-.16-.2,4,4,0,0,0-1-.73,25.81,25.81,0,0,0-2.84-1.32l-6.22-2.41a51,51,0,0,1-6.25-2.91,20,20,0,0,1-5.65-4.57,10.73,10.73,0,0,1-1.88-3.44,9.49,9.49,0,0,1-.39-3.95,14.41,14.41,0,0,1,2.82-6.76,30.56,30.56,0,0,1,4.69-5.06,45,45,0,0,1,5.39-4.09l.21.25c-3,3.26-6.09,6.55-8.19,10.25a12.67,12.67,0,0,0-1.84,5.64,7.09,7.09,0,0,0,1.87,5,18.78,18.78,0,0,0,4.73,3.75,59.86,59.86,0,0,0,5.76,3c2,.92,4.06,1.76,6.12,2.76a21.2,21.2,0,0,1,3.1,1.76,6.46,6.46,0,0,1,1.52,1.46,3,3,0,0,1,.5,1.31,2.48,2.48,0,0,1-.28,1.46,4.42,4.42,0,0,1-1.52,1.55,12.59,12.59,0,0,1-1.59.88c-1.08.5-2.1.85-3.12,1.3a48.4,48.4,0,0,0-5.9,3,36.77,36.77,0,0,0-9.73,8.76c-2.62,3.37-4.93,7-5.31,11s1.4,8.11,4,11.7Z"/><path d="M86,126.91a16.75,16.75,0,0,1-6.08-3.24,13.33,13.33,0,0,1-4.08-5.89,16.34,16.34,0,0,1-.7-7.2,21.69,21.69,0,0,1,2.09-6.71c2.08-4.17,5-7.68,7.7-11.23,1.38-1.77,2.82-3.49,4.26-5.22.73-.85,1.49-1.73,2.14-2.54a10.83,10.83,0,0,0,.86-1.26,2.44,2.44,0,0,0,.37-1.09c0-.12,0-.14-.07-.15a.89.89,0,0,0-.22-.14,4.56,4.56,0,0,0-1.17-.35,25.23,25.23,0,0,0-3.12-.26l-6.67-.14a49.05,49.05,0,0,1-6.87-.6,19.65,19.65,0,0,1-6.87-2.36,10.78,10.78,0,0,1-2.94-2.59,9.35,9.35,0,0,1-1.72-3.58,14.37,14.37,0,0,1,.34-7.31,30.4,30.4,0,0,1,2.67-6.36A46.81,46.81,0,0,1,69.55,53l.28.16c-1.74,4.11-3.48,8.25-4.19,12.44a12.78,12.78,0,0,0,.2,5.93,7.15,7.15,0,0,0,3.45,4A19.1,19.1,0,0,0,75,77.46a59.88,59.88,0,0,0,6.42.8c2.19.19,4.42.27,6.69.5a21.79,21.79,0,0,1,3.52.6,6,6,0,0,1,1.92.86,2.93,2.93,0,0,1,.93,1,2.52,2.52,0,0,1,.23,1.47,4.55,4.55,0,0,1-.9,2,12.32,12.32,0,0,1-1.19,1.37c-.85.84-1.69,1.52-2.49,2.29a46.22,46.22,0,0,0-4.5,4.88,36.65,36.65,0,0,0-6.15,11.56c-1.3,4.06-2.24,8.25-1.21,12.18s4.09,7.15,7.8,9.62Z"/><path d="M105.74,115.83a16.55,16.55,0,0,1-6.82-1,13.26,13.26,0,0,1-5.85-4.14A16.35,16.35,0,0,1,90,104.2a21.59,21.59,0,0,1-.33-7c.53-4.62,2-8.91,3.39-13.18.69-2.14,1.46-4.25,2.22-6.37.39-1,.81-2.13,1.15-3.11A11.17,11.17,0,0,0,96.75,73a2.5,2.5,0,0,0,0-1.15c0-.1-.09-.11-.12-.11a1.06,1.06,0,0,0-.25-.06,4.26,4.26,0,0,0-1.23.08,23.77,23.77,0,0,0-3,.81L85.8,74.76a50.86,50.86,0,0,1-6.66,1.78,19.61,19.61,0,0,1-7.26.13,10.76,10.76,0,0,1-3.66-1.42,9.65,9.65,0,0,1-2.84-2.78,14.47,14.47,0,0,1-2.18-7,31,31,0,0,1,.34-6.9A47.12,47.12,0,0,1,65,52l.32.06c-.23,4.45-.45,8.93.32,13.11a12.76,12.76,0,0,0,2.21,5.51,7.08,7.08,0,0,0,4.62,2.6,18.7,18.7,0,0,0,6-.17,58.39,58.39,0,0,0,6.31-1.44c2.13-.58,4.25-1.26,6.47-1.82a20.71,20.71,0,0,1,3.5-.64,6,6,0,0,1,2.1.15,2.89,2.89,0,0,1,1.23.67,2.42,2.42,0,0,1,.72,1.31,4.53,4.53,0,0,1-.16,2.16,11.65,11.65,0,0,1-.66,1.69c-.5,1.08-1.06,2-1.55,3A46.8,46.8,0,0,0,94,84.31a36.48,36.48,0,0,0-1.82,13c.16,4.26.71,8.52,3,11.86s6.28,5.32,10.61,6.37Z"/><path d="M120.54,98.66a16.65,16.65,0,0,1-6.74,1.42,13.37,13.37,0,0,1-6.91-1.89,16.2,16.2,0,0,1-5.16-5.06A21.54,21.54,0,0,1,99,86.64c-1.09-4.52-1.13-9.07-1.32-13.54-.08-2.25-.08-4.49-.09-6.75,0-1.11,0-2.28,0-3.32a10.56,10.56,0,0,0-.16-1.52A2.5,2.5,0,0,0,97,60.44c-.08-.08-.12-.08-.15-.07a1,1,0,0,0-.26,0,4.38,4.38,0,0,0-1.12.49A24.36,24.36,0,0,0,93,62.69l-5.19,4.19a50.29,50.29,0,0,1-5.65,4,19.92,19.92,0,0,1-6.79,2.61,10.8,10.8,0,0,1-3.92-.09,9.57,9.57,0,0,1-3.61-1.64,14.32,14.32,0,0,1-4.44-5.82A30.61,30.61,0,0,1,61.3,59.3a46.4,46.4,0,0,1-.84-6.72l.32,0c1.3,4.27,2.63,8.55,4.79,12.21a12.72,12.72,0,0,0,4,4.42,7.12,7.12,0,0,0,5.24.87,19,19,0,0,0,5.62-2.23,57.5,57.5,0,0,0,5.43-3.51c1.8-1.27,3.56-2.63,5.46-3.92a20.65,20.65,0,0,1,3.07-1.8,6.17,6.17,0,0,1,2-.58,2.94,2.94,0,0,1,1.39.21,2.47,2.47,0,0,1,1.12,1,4.41,4.41,0,0,1,.59,2.09,12,12,0,0,1,0,1.81c-.1,1.19-.31,2.25-.43,3.36a47.34,47.34,0,0,0-.31,6.63,36.56,36.56,0,0,0,2.72,12.81c1.61,4,3.59,7.76,6.91,10.11s7.72,2.85,12.15,2.35Z"/><path d="M128.57,77.46a16.65,16.65,0,0,1-5.84,3.63,13.23,13.23,0,0,1-7.15.59,16.11,16.11,0,0,1-6.58-3,21.6,21.6,0,0,1-4.77-5.16c-2.57-3.88-4.16-8.14-5.87-12.28-.84-2.08-1.62-4.19-2.39-6.3-.38-1.06-.75-2.16-1.13-3.13a9.69,9.69,0,0,0-.67-1.37,2.42,2.42,0,0,0-.75-.87c-.11,0-.14,0-.17,0a.81.81,0,0,0-.22.12,4.45,4.45,0,0,0-.9.84,26.1,26.1,0,0,0-1.78,2.56L86.9,58.8a51.44,51.44,0,0,1-4,5.65,19.7,19.7,0,0,1-5.48,4.77,10.92,10.92,0,0,1-3.72,1.26,9.54,9.54,0,0,1-3.95-.3,14.48,14.48,0,0,1-6.17-4,30.77,30.77,0,0,1-4.17-5.5,45.6,45.6,0,0,1-3.09-6l.28-.17c2.68,3.57,5.4,7.14,8.67,9.85a12.85,12.85,0,0,0,5.24,2.8,7.1,7.1,0,0,0,5.21-1,19,19,0,0,0,4.52-4A57.35,57.35,0,0,0,84.19,57c1.25-1.8,2.44-3.68,3.78-5.54a20.92,20.92,0,0,1,2.27-2.75,6.27,6.27,0,0,1,1.7-1.23,3,3,0,0,1,1.38-.28,2.48,2.48,0,0,1,1.39.54A4.43,4.43,0,0,1,96,49.53a11,11,0,0,1,.59,1.72c.31,1.15.48,2.22.74,3.3a46.44,46.44,0,0,0,2,6.33A36.53,36.53,0,0,0,106.22,72c2.87,3.16,6,6.07,9.94,7.14s8.24,0,12.23-1.94Z"/><path d="M128.87,54.79a16.64,16.64,0,0,1-4.25,5.41,13.16,13.16,0,0,1-6.51,3,16.24,16.24,0,0,1-7.21-.56,21.42,21.42,0,0,1-6.25-3.22c-3.74-2.77-6.69-6.22-9.71-9.53-1.51-1.67-3-3.38-4.41-5.1-.71-.87-1.44-1.77-2.12-2.55a11,11,0,0,0-1.1-1.07,2.43,2.43,0,0,0-1-.55c-.12,0-.14,0-.16,0a1.31,1.31,0,0,0-.17.19,4.3,4.3,0,0,0-.55,1.1,25.94,25.94,0,0,0-.8,3l-1.29,6.54a51.35,51.35,0,0,1-1.79,6.66A19.63,19.63,0,0,1,78,64.53,10.84,10.84,0,0,1,75,67a9.44,9.44,0,0,1-3.82,1.07A14.33,14.33,0,0,1,64,66.45a31.18,31.18,0,0,1-5.81-3.74,46,46,0,0,1-5-4.6l.21-.25C57.18,60.29,61,62.72,65,64.14a12.64,12.64,0,0,0,5.87.84,7.11,7.11,0,0,0,4.57-2.7A18.82,18.82,0,0,0,78.27,57a57,57,0,0,0,1.9-6.18c.57-2.13,1-4.3,1.66-6.51A20.81,20.81,0,0,1,83,40.92a6.27,6.27,0,0,1,1.18-1.75,2.84,2.84,0,0,1,1.2-.73,2.51,2.51,0,0,1,1.49,0,4.48,4.48,0,0,1,1.79,1.22,13.38,13.38,0,0,1,1.14,1.42c.68,1,1.2,1.92,1.82,2.84a46.89,46.89,0,0,0,4,5.28A36.5,36.5,0,0,0,106,57.3c3.77,2,7.73,3.64,11.78,3.31s7.75-2.79,10.82-6Z"/><path d="M121.4,33.38a16.81,16.81,0,0,1-2.14,6.54,13.24,13.24,0,0,1-5.1,5,16.19,16.19,0,0,1-7,1.94,21.74,21.74,0,0,1-7-.89c-4.46-1.32-8.42-3.56-12.39-5.64-2-1.05-3.93-2.16-5.88-3.28-1-.57-2-1.17-2.87-1.67a10.09,10.09,0,0,0-1.4-.63,2.33,2.33,0,0,0-1.13-.17c-.12,0-.13.06-.14.09a1.36,1.36,0,0,0-.09.24,3.78,3.78,0,0,0-.14,1.22,24.84,24.84,0,0,0,.27,3.11l1,6.59a51.45,51.45,0,0,1,.6,6.87A20,20,0,0,1,77,59.93a10.89,10.89,0,0,1-2,3.35,9.41,9.41,0,0,1-3.23,2.31,14.31,14.31,0,0,1-7.26.94A31.35,31.35,0,0,1,57.69,65a46.26,46.26,0,0,1-6.24-2.63l.12-.3c4.34,1,8.72,2,13,2a12.64,12.64,0,0,0,5.8-1.22,7.11,7.11,0,0,0,3.37-4.1,18.6,18.6,0,0,0,.88-6,59.07,59.07,0,0,0-.32-6.46c-.2-2.19-.5-4.4-.67-6.68a20.09,20.09,0,0,1,0-3.56,6.3,6.3,0,0,1,.5-2.05A2.88,2.88,0,0,1,75,32.89a2.43,2.43,0,0,1,1.4-.49,4.63,4.63,0,0,1,2.1.54,13.16,13.16,0,0,1,1.56.94c1,.69,1.79,1.39,2.69,2a44.8,44.8,0,0,0,5.58,3.58,36.46,36.46,0,0,0,12.46,4.05c4.23.58,8.52.78,12.21-.92s6.33-5.27,8.11-9.35Z"/><path d="M107.05,15.82a16.74,16.74,0,0,1,.23,6.88,13.32,13.32,0,0,1-3.06,6.49,16.39,16.39,0,0,1-5.88,4.2,21.74,21.74,0,0,1-6.86,1.55c-4.65.28-9.13-.46-13.57-1.06-2.23-.31-4.44-.69-6.66-1.07-1.1-.21-2.24-.43-3.26-.59a10.3,10.3,0,0,0-1.53-.11,2.41,2.41,0,0,0-1.13.22c-.1.07-.09.1-.09.13a.85.85,0,0,0,0,.26,4.49,4.49,0,0,0,.28,1.2,26.39,26.39,0,0,0,1.33,2.83l3.22,5.84A50.31,50.31,0,0,1,73,48.84,19.81,19.81,0,0,1,74.36,56a10.65,10.65,0,0,1-.77,3.85,9.79,9.79,0,0,1-2.23,3.28,14.45,14.45,0,0,1-6.51,3.36,31.51,31.51,0,0,1-6.85.87A47.62,47.62,0,0,1,51.24,67v-.33c4.43-.54,8.88-1.1,12.87-2.59a12.64,12.64,0,0,0,5-3.13,7.15,7.15,0,0,0,1.77-5A19.07,19.07,0,0,0,69.69,50a58.83,58.83,0,0,0-2.52-6c-.94-2-2-4-2.91-6A19.93,19.93,0,0,1,63,34.66a6.16,6.16,0,0,1-.22-2.09,2.93,2.93,0,0,1,.45-1.33,2.52,2.52,0,0,1,1.16-.94,4.54,4.54,0,0,1,2.16-.21,12.19,12.19,0,0,1,1.78.35c1.15.31,2.16.7,3.23,1a46.17,46.17,0,0,0,6.47,1.45,36.59,36.59,0,0,0,13.09-.45c4.17-.9,8.27-2.18,11.16-5s4.15-7.12,4.42-11.56Z"/><path d="M87.57,4.23a16.69,16.69,0,0,1,2.56,6.39,13.26,13.26,0,0,1-.66,7.14,16.23,16.23,0,0,1-4.08,6,21.81,21.81,0,0,1-5.92,3.8c-4.27,1.85-8.74,2.69-13.11,3.65-2.2.47-4.41.86-6.62,1.26-1.11.19-2.26.37-3.28.57a9.31,9.31,0,0,0-1.47.42A2.32,2.32,0,0,0,54,34c-.07.1-.06.13,0,.16a1.68,1.68,0,0,0,.09.24,4,4,0,0,0,.67,1,24.33,24.33,0,0,0,2.22,2.2L62,42a52.27,52.27,0,0,1,4.88,4.88,19.82,19.82,0,0,1,3.74,6.23A10.64,10.64,0,0,1,71.17,57a9.53,9.53,0,0,1-1,3.85,14.35,14.35,0,0,1-5,5.38,30.52,30.52,0,0,1-6.14,3.16,46.06,46.06,0,0,1-6.47,2l-.11-.31c4-2,8-4.08,11.2-6.83a12.7,12.7,0,0,0,3.67-4.67,7.12,7.12,0,0,0-.06-5.31,18.93,18.93,0,0,0-3.17-5.14,57.32,57.32,0,0,0-4.4-4.74c-1.57-1.56-3.21-3-4.81-4.69A20.9,20.9,0,0,1,52.63,37a6.06,6.06,0,0,1-.92-1.89,2.84,2.84,0,0,1,0-1.4,2.54,2.54,0,0,1,.77-1.28,4.52,4.52,0,0,1,1.95-.94,13.07,13.07,0,0,1,1.8-.27c1.19-.11,2.26-.09,3.38-.16a47,47,0,0,0,6.58-.85A36.58,36.58,0,0,0,78.3,25.29c3.61-2.27,7-4.87,8.76-8.55s1.47-8.1.21-12.37Z"/><path d="M65.29,0a16.59,16.59,0,0,1,4.6,5.13,13.35,13.35,0,0,1,1.82,6.93,16.22,16.22,0,0,1-1.8,7,21.4,21.4,0,0,1-4.26,5.59c-3.38,3.21-7.29,5.52-11.07,7.92-1.91,1.19-3.85,2.32-5.79,3.45-1,.55-2,1.11-2.89,1.65a10.66,10.66,0,0,0-1.24.9,2.55,2.55,0,0,0-.72.89c0,.12,0,.14,0,.17a1.35,1.35,0,0,0,.16.2,4.28,4.28,0,0,0,1,.73,25.81,25.81,0,0,0,2.84,1.32l6.22,2.4a51,51,0,0,1,6.25,2.92,19.79,19.79,0,0,1,5.65,4.57,10.73,10.73,0,0,1,1.88,3.44,9.48,9.48,0,0,1,.39,3.95,14.27,14.27,0,0,1-2.82,6.75A30.63,30.63,0,0,1,60.82,71a47.17,47.17,0,0,1-5.39,4.09l-.21-.25c3-3.26,6.09-6.56,8.19-10.25a12.67,12.67,0,0,0,1.84-5.64,7.12,7.12,0,0,0-1.86-5,19,19,0,0,0-4.74-3.75,59.86,59.86,0,0,0-5.76-3c-2-.92-4.06-1.77-6.12-2.76a22.16,22.16,0,0,1-3.1-1.76,6.12,6.12,0,0,1-1.51-1.47A2.88,2.88,0,0,1,41.65,40a2.5,2.5,0,0,1,.28-1.46A4.6,4.6,0,0,1,43.45,37,12.49,12.49,0,0,1,45,36.08c1.08-.51,2.1-.86,3.12-1.31a47,47,0,0,0,5.9-3A36.81,36.81,0,0,0,63.79,23c2.62-3.37,4.93-7,5.31-11s-1.4-8.12-4-11.7Z"/></g></g></svg>