<svg xmlns="http://www.w3.org/2000/svg" viewBox="0 0 155.61 169.69"><title>Recurso 10MODERN ICON</title><g id="Capa_2" data-name="Capa 2"><g id="Capa_1-2" data-name="Capa 1"><path d="M56.54,70.63v4.71c-.11.14-.26.08-.39.08H52s-.07.07-.07.1a.19.19,0,0,0,0,.08V80l-.07.07h-14s0,0-.1.06v4.64l-.09.09a.27.27,0,0,1-.09,0H28.36s-.05,0-.08-.06V80.12l.07-.06H32.8s.05,0,.06-.06a.11.11,0,0,0,0-.07v-9l.23-.25h9.13l.18.18s0,0,0,.07a.91.91,0,0,1,0,.17v4.27l.06.07.08,0h4.44c.06-.88.08-7.39,0-9.36,0,0,0,0-.06-.06H42.56l-.23-.27V61.46l.23-.25H61.1c.14-.24,0-.47.07-.69s0-.4,0-.6V57.86c0-.2,0-.4,0-.6a1.82,1.82,0,0,1,0-.69H75.31s.08-.07.08-.09c0-1.54,0-3.08,0-4.62l-.07-.06a.11.11,0,0,0-.08,0H9.53a.15.15,0,0,1-.07,0s-.05-.05-.05-.07V47.23s0-.06.07-.07H141.27l.07,0s0,0,0-.07,0-.06,0-.08V42.43s.05-.06.08-.07h9.25s0,0,.08.06v9.3s0,0-.06.06h-9.25s0,0-.08.06V65.93l.08.07a1,1,0,0,0,.17,0h9.08s.05,0,.06.07a.19.19,0,0,1,0,.07v4.41a.39.39,0,0,1-.11.08h-9.24s-.05,0-.06.06a.25.25,0,0,0,0,.08q0,7,0,14s0,0,.07.1h9.26c.05.05.08.06.09.09s0,0,0,.08v4.37c-.1.15-.26.09-.39.09h-9c-.09,1-.12,7.63-.05,14.15l.06.06.08,0h9.17s0,0,.07,0c.06.86.08,7.16,0,9.32a.18.18,0,0,1-.07.05s0,0-.08,0h-9.17s0,0-.08.06v9.29s0,.07.07.07h9.28a.9.9,0,0,1,.06.22v9a.9.9,0,0,1,0,.16.18.18,0,0,1-.07.05h-9.24l-.07.07a.19.19,0,0,0,0,.08c0,3,0,6.05,0,9.08a.55.55,0,0,0,.05.18h9.27s.08.07.09.1a.19.19,0,0,1,0,.08v4.28a.27.27,0,0,0,0,.09l.08.09h4.46l.21.21s.05.05.05.07a1,1,0,0,1,0,.17v4.1l-.26.25H141.48c-.12.08-.09.2-.09.31q0,6.72,0,13.45c0,.08,0,.16,0,.23l.08.07h13.87l.26.25v4.31l-.28.23H136.84l-.24-.23V51.87l-.09-.08-.08,0H108.58s0,0-.09.06V80c0,.05-.07.08-.1.09s0,0-.08,0H89.54s0,0-.09-.08V75.51s-.07-.08-.09-.08H84.91c-.14.11-.09.26-.09.39v9l-.1.07a.27.27,0,0,1-.09,0H70.85s-.06.05-.07.08a.19.19,0,0,0,0,.08v4.37s0,0-.06.08H66L66,89.4a.27.27,0,0,1,0-.09V75.52s0,0,.08-.09h4.49c.09-.93.11-7,0-14.15l-.06-.06-.08,0H66.17a.94.94,0,0,0-.16,0,.43.43,0,0,0,0,.07s0,.06,0,.08v4.46a.24.24,0,0,1,0,.08s0,0-.06.06H61.44s0,0-.09.07v4.47c-.05,0-.07.08-.1.09s0,0-.08,0H56.54V66.1s0,0,0-.06a39,39,0,0,0-4.56,0v4.49s.06.07.08.07ZM99.05,66v9.31s0,0,.06.08l.24,0h4c.11,0,.23,0,.31-.09q0-4.62,0-9.25s0,0-.06-.07Zm-9.61-4.76a44.11,44.11,0,0,0-4.6,0v4.68a44.11,44.11,0,0,0,4.6,0Z"/><path d="M4.86,14.07H28.17c.14.1.09.25.09.39v4.33s.08.07.1.07H37.6l.07-.06a.31.31,0,0,0,0-.08V14.18s0,0,0-.07c.88-.06,21-.09,23.37,0l.24.24v4.46a30.39,30.39,0,0,0,4.58,0s0,0,0-.07V14.15a.45.45,0,0,1,.07-.07H79.92S80,14,80,14V9.49c-.2-.12-.44,0-.66-.05s-.45,0-.68,0H66V4.71s.06-.07.08-.07h23.3l.26.26V18.76s0,0,.06.09h4.5s0,0,.06-.07a.19.19,0,0,0,0-.08V14.24s0-.06,0-.08,0,0,.07-.08h23.33l.2.18s.05.06.05.08a1,1,0,0,1,0,.17v4.2a.19.19,0,0,0,0,.08s0,.05.06.06h4.45s0,0,.09-.07V14.16c0-.05.07-.08.1-.09h23.3c.12-.08.09-.2.09-.31v-4a1.64,1.64,0,0,0,0-.23s-.05-.06-.07-.06h-18.5l-.26-.26V4.88l.3-.25h18.48l.07-.09a.27.27,0,0,0,0-.09V.09a39,39,0,0,1,4.78,0V23.43s0,0-.06.05,0,0-.08,0H.09s0,0-.09,0V.07A.16.16,0,0,1,.06,0H4.68s0,0,.08.07c0,4.63,0,9.28,0,13.92C4.81,14,4.84,14.05,4.86,14.07Zm75.33,0c0,1.61,0,3.15,0,4.69,0,0,0,0,.08.09,1.36,0,2.76,0,4.15,0,.13,0,.29.06.39-.08V14.16s0,0-.07-.08Z"/><path d="M70.59,42.35V37.77c-1.06-.09-8.44-.11-14,0,0,0,0,0-.06.06a.19.19,0,0,0,0,.08v4.37s0,0-.06.09H37.75l0-.06a.25.25,0,0,1,0-.08V28.39s0,0,.06-.08H113a.16.16,0,0,1,.07.07s0,.05,0,.08v9.17c.11.14.26.09.39.09h4.33c.05.05.08.07.08.09v4.45a.23.23,0,0,1-.07.07l-.07,0H99l-.07-.11a.27.27,0,0,1,0-.09V37.87a.24.24,0,0,0,0-.08l-.06-.06H89.72s0,0-.09.07v4.46c0,.06-.07.08-.1.09H70.59Z"/><path d="M33.06,94.28h9.35s.07.07.07.1a.91.91,0,0,1,0,.17v4.27l.06.07.08,0h9l.25.23v9.13s0,0-.06.06H33.24s-.06,0-.08,0,0,0-.1.07v9.26s-.06.08-.09.09H28.35c-.12-.07-.09-.19-.09-.3V104a1.64,1.64,0,0,1,0-.23.45.45,0,0,1,.07-.07h4.48a1.55,1.55,0,0,0,.06-.23v-9a.53.53,0,0,0,0-.16l-.06,0a.27.27,0,0,0-.09,0H28.35s-.06,0-.07-.07a.19.19,0,0,1,0-.08V89.55c.06,0,.09-.07.11-.07H32.8l.26.26Z"/><path d="M80.19,94.28v4.55l-.09.08H75.48s0,0-.06.07a.1.1,0,0,0,0,.07c0,1.52,0,3,0,4.54a.1.1,0,0,1,0,.07c-.89.07-6.76.09-9.31,0,0,0-.05,0-.06-.06a.19.19,0,0,1,0-.08V94.39s0,0,.07-.11h13.9L80,94.2s0-.06,0-.08V89.73l.3-.26H103.6s.07-.06.07-.09a.25.25,0,0,0,0-.08V84.93a38.71,38.71,0,0,1,4.77,0V94l-.17.18a.47.47,0,0,1-.15.06Z"/><path d="M94.25,122.56v4.55s-.07.08-.09.08H89.71a.23.23,0,0,0-.07.07.19.19,0,0,0,0,.07v4.39l-.23.25H80.27l-.25-.23v-4.29l.26-.26h9.06s0,0,.1-.06V118l.27-.27h13.87s0,0,.08.06v4.65s0,.08-.07.08H94.25Z"/><path d="M94.29,9.39a.42.42,0,0,1,0-.16V4.72l.08-.07h23.3l.25.23V9.2l-.18.18a.47.47,0,0,1-.15.06H94.35S94.31,9.41,94.29,9.39Z"/><path d="M37.7,9.38V4.71s0-.07.08-.07h23.3l.25.24V9.2l-.2.19c-1.09.09-17.48.12-23.27,0Z"/><path d="M28.25,37.79v4.49s-.06.06-.08.06H4.7s0,0-.08-.06V37.79s.06-.07.08-.07H28.17S28.21,37.76,28.25,37.79Z"/><path d="M23.62,122.56v14s-.05.06-.08.07-.05,0-.08,0H18.9a.9.9,0,0,1-.06-.22q0-6.81,0-13.62a.8.8,0,0,1,0-.15.22.22,0,0,1,.06-.07.27.27,0,0,1,.09,0Z"/><path d="M103.69,108.34V99a.45.45,0,0,1,.07-.07h4.46l.24.26v9.1s-.06.06-.08.06Z"/><path d="M75.41,146v-4.55l.07-.07H80.1c.15.1.09.25.09.38,0,1.4,0,2.79,0,4.16,0,0-.06.08-.08.08a1.08,1.08,0,0,1-.18,0Z"/><path d="M136.74,37.72v4.56s-.05.06-.08.06H132c-.14-.11-.08-.26-.08-.4V37.8s.07-.08.09-.08Z"/><path d="M56.54,84.87h4.73s.07.06.07.08v4.44c-.08.12-.2.09-.31.09H56.61s-.07-.06-.07-.08Z"/><path d="M75.38,150.84v4.56a.45.45,0,0,1-.07.07H70.69c-.15-.1-.09-.25-.09-.39,0-1.39,0-2.78,0-4.15,0-.05.06-.08.09-.08h4.69Z"/><path d="M51.91,89.47H47.18s-.06-.06-.06-.08a.91.91,0,0,1,0-.17V84.94c.11-.14.26-.08.39-.08h4.33c0,.05.08.07.08.09a1,1,0,0,1,0,.17Z"/></g></g></svg>