<svg xmlns="http://www.w3.org/2000/svg" viewBox="0 0 181.17 153.8"><title>Recurso 37ART</title><g id="Capa_2" data-name="Capa 2"><g id="Capa_1-2" data-name="Capa 1"><path d="M98.52,1.4V4.33c-.22.16-.47.07-.71.08s-.48,0-.73,0a1.84,1.84,0,0,1,0-.73c0-.2,0-.41,0-.6L97,3H90.88a1.43,1.43,0,0,0-.2,0V7.34c-.19.15-.38.08-.56.09s-.38,0-.56,0H89V3.09c-.06,0-.08-.09-.1-.09h-4.5c-.15.21-.06.45-.08.67s0,.47,0,.67c-.06,0-.09.07-.11.07H82.72c-.16.16-.07.34-.09.51s0,.35,0,.53a1,1,0,0,1-.07.54H81.23c0,.06-.08.07-.09.1a.25.25,0,0,0,0,.09V8.94c-.11.15-.28.08-.42.09H79.54c-.05.05-.09.08-.09.1v1.23l.07.07.09,0h7.66a1.15,1.15,0,0,0,.2,0c.06-.43,0-.86,0-1.31A1.36,1.36,0,0,1,88.22,9a1.8,1.8,0,0,1,.76,0V12c.06.05.07.08.1.09h1.59v-1.5s0,0,.08-.1c.21,0,.45,0,.69,0s.49-.07.7.05V12s-.06.06-.09.06H90.67v1.33c.22.15.47.06.71.08s.49,0,.76,0c0,.53,0,1,0,1.52.16.15.35.06.53.08h.56a1.21,1.21,0,0,1,.56.06v1.29s0,.05-.06.06H85.91s0,0-.1-.08V12.15c-.06-.06-.08-.1-.1-.1a1.2,1.2,0,0,0-.19,0h-4.3c-.16.2-.07.44-.08.67s0,.46,0,.66a.39.39,0,0,1-.11.08h-3a.59.59,0,0,0-.08.08.19.19,0,0,0,0,.08v1.43h1.42c.15.25,0,.49.08.71s-.06.47.06.72H81c0,.05.09.07.09.1a1,1,0,0,1,0,.17V18c.23.15.48.06.72.07s.49,0,.72,0a2.06,2.06,0,0,1,.06.73c0,.26,0,.53,0,.8V21s.05.07.08.08h6.16s0,0,.11.07v1.25s.07.08.1.09h1.49c.16-.1.09-.26.1-.4v-1c.49,0,1,0,1.41,0a13.69,13.69,0,0,1,0,3l-.08.05s-.06,0-.09,0H85.88s0,0-.06.07a.19.19,0,0,0,0,.08q0,3.6,0,7.18s0,.05-.07.1H84.41c0,.06-.08.07-.09.1s0,.06,0,.09v1.33c-.11.14-.28.08-.42.08H82.72c0,.05-.09.07-.09.1a1.08,1.08,0,0,0,0,.18v7.09c-.23.15-.48.06-.72.07s-.49,0-.78,0v1.51l-.08.07a.15.15,0,0,1-.09,0H76.38s0,0-.1.07v1.25c-.06,0-.08.09-.1.09a1.21,1.21,0,0,1-.19,0H71.67a1.54,1.54,0,0,0-.07.77c0,.26,0,.52,0,.75.06,0,.08.08.1.08H84.23c.15.22.06.46.08.68s0,.47,0,.74H68.51c-.16.16-.07.35-.09.52s0,.35,0,.53v.54h1.39c.06.05.09.07.1.09a.27.27,0,0,1,0,.09v7.18s0,0-.09.1H68.51c-.05.05-.09.07-.09.1a1,1,0,0,0,0,.17v7.29a1.85,1.85,0,0,1-.81.06c-.28,0-.55,0-.8,0,0,.06-.07.08-.07.11a.28.28,0,0,0,0,.09v10.2c-.23.14-.49,0-.72.06a3.35,3.35,0,0,0-.76,0v7.49c-.2.15-.39.08-.57.09h-.56c-.17,0-.36-.06-.56.07V90.4a2,2,0,0,1-.76.06c-.21,0-.43,0-.65,0,0,0,0,0-.06.07a.11.11,0,0,0,0,.08v4.17s0,0,0,.07-.05.05-.07.05h-1.5c-.15-.23,0-.47-.07-.69a2.46,2.46,0,0,0-.05-.71H58.94c-.13.22,0,.46,0,.68s0,.42,0,.62-.28.09-.42.09H57.29s-.09.07-.09.1a1,1,0,0,0,0,.17v1.25c-.23.14-.48,0-.72.07s-.49,0-.7,0c-.05.07-.08.09-.08.12v1.22c-.17.15-.37.07-.54.08s-.38,0-.56,0H54v1.5c-.05.06-.07.09-.1.1H50.84v1.32s0,0-.09.1H47.83a.15.15,0,0,1-.09,0l-.06,0V99.57s.08-.06.1-.06h3.06V96.58c-.22-.16-.47-.07-.71-.08s-.49,0-.77,0c0,.47,0,.91,0,1.34l-.06.07H44.6s-.05,0-.1.06v1.43l-.1.09H41.5a.27.27,0,0,0-.09,0s0,0-.1.08v1.25c-.06,0-.08.08-.11.09H35a1.68,1.68,0,0,0-.07.77c0,.26,0,.52,0,.77a2.29,2.29,0,0,1-.77,0c-.28,0-.56,0-.84,0H28.66c-.15.22,0,.46-.07.69a2.48,2.48,0,0,1-.05.71H17.62c-.13-.23,0-.46-.06-.69s0-.42,0-.62-.28-.09-.43-.09c-1.27,0-2.55,0-3.83,0h-.52c0-.06-.07-.08-.08-.1a.27.27,0,0,1,0-.09V101s0-.06-.08-.07l-.08,0H1.67c0,.54,0,1,0,1.51-.17.15-.37.07-.54.08s-.38,0-.56,0a1.09,1.09,0,0,0-.56.06v5.88s.05.07.08.09h1.5c.16.21.06.45.08.67s0,.47,0,.73c.5,0,1,0,1.42,0,.15.15.06.33.08.5s0,.36,0,.53v.55h3.1c.15.24.06.48.08.71s0,.41,0,.62.28.09.42.09H17.47l.09.1v5.85l.07.06a.13.13,0,0,0,.08,0h4.5c.06-.48,0-.92,0-1.35.16-.14.35-.06.53-.07h.56a1.14,1.14,0,0,0,.57-.06v-1.47a1.94,1.94,0,0,1,.75-.06c.22,0,.44,0,.68,0,.14.24.05.51.07.76s0,.52,0,.76c.06,0,.09.07.11.07h4.71a2.92,2.92,0,0,0,0-.78c0-.26,0-.52,0-.8H31.7c.13.15.05.34.07.5s0,.36,0,.54v.54h4.8a1.74,1.74,0,0,1,.06.71c0,.21,0,.42,0,.62l.07.06a.15.15,0,0,0,.09,0h2.89s0,0,.13.06c0,.47,0,1,0,1.47.24.14.49,0,.73.06a2,2,0,0,0,.76-.05v-1.45c.05-.05.07-.08.1-.09a.27.27,0,0,1,.09,0h9.28c.14.23,0,.5.07.76s0,.52,0,.75a.39.39,0,0,0,.11.08H65.16c.15.22,0,.46.08.69a2.57,2.57,0,0,0,.05.72h3c.16.18.08.37.09.53s0,.36,0,.54a1,1,0,0,0,.07.54H73a1.74,1.74,0,0,1,.06.71c0,.21,0,.42,0,.64a1.85,1.85,0,0,0,.81.06c.27,0,.55,0,.79,0a.39.39,0,0,1,.08.11s0,0,0,.08V128c.24.13.5,0,.73.06a2.76,2.76,0,0,1,.75.05v1.5c-.23.12-.48,0-.72,0s-.44,0-.67,0c-.16.21-.06.45-.08.67s0,.46,0,.67c.06,0,.08.07.11.08h4.5a1.84,1.84,0,0,1,.07.77c0,.26,0,.52,0,.81h1.6a15.87,15.87,0,0,1,0,3H70l-.08-.08s0-.06,0-.09v-1.33c-.12-.14-.28-.08-.43-.08-1.77,0-3.55,0-5.33,0h-.58c0-.47,0-.91,0-1.35l-.06-.06H57.31s0,0-.1-.06v-1.45c-.23-.15-.45-.06-.66-.08H54.68A1.27,1.27,0,0,1,54,131v-1.27l-.1-.08H49.41a1.82,1.82,0,0,1-.06-.77c0-.26,0-.52,0-.75-.07-.05-.1-.07-.12-.07H43.15l-.1,0c-.14-.21,0-.45-.06-.67a2.24,2.24,0,0,0-.06-.72h-6.2c-.06,0-.09-.07-.1-.09a1.08,1.08,0,0,1,0-.18v-1.24c-.12-.15-.28-.09-.43-.09H33.47c0-.47,0-.91,0-1.34,0,0,0,0-.07-.06a.11.11,0,0,0-.08,0H25.53s-.05,0-.11-.07v-1.45c-.26-.15-.51-.05-.75-.08a2.41,2.41,0,0,1-.75-.05v-1.28c-.06,0-.08-.09-.1-.09h-3c-.16.22-.06.46-.08.68s0,.46,0,.71c.49.07,1,0,1.42,0,.14.15.06.33.07.5s0,.35,0,.53a.86.86,0,0,0,.06.54h1.55c.13.25,0,.49.06.72s0,.41,0,.62.28.09.42.09h7.41c0,.52,0,1,0,1.51a.23.23,0,0,0,.07.07h3s.05,0,.11.06V128a.45.45,0,0,0,.1.1s.05,0,.09,0H39.7s0,0,.11.08v1.42s.07.09.1.09H44.4c.16.21.06.45.08.68s0,.46,0,.67a1.49,1.49,0,0,0,.68.07h4.09c.17.16.08.35.09.51a4.87,4.87,0,0,1,0,.54v.54H54c.14.25,0,.49.07.71s0,.42,0,.62.28.09.43.09h4.34c.05,0,.08.07.09.1s0,.06,0,.08v1.32s0,.06.08.07a.11.11,0,0,0,.08,0h4.39s0,0,.12.07c0,.41,0,.85,0,1.27.18.15.37.07.55.08h.56a1.06,1.06,0,0,1,.57.07v8.92a1.94,1.94,0,0,0,.75.06c.22,0,.44,0,.67,0a1.51,1.51,0,0,1,.07.76c0,.26,0,.53,0,.76.07,0,.09.07.12.07h4.67c.15.22,0,.46.07.69s0,.46.06.72H90.57c.16.18.08.36.1.53s0,.36,0,.53-.06.35.07.53h1.35s.07-.06.07-.08a1.08,1.08,0,0,0,0-.18v-1.26a2,2,0,0,1,.81-.06h.87c0,.53,0,1,0,1.51,0,0,.05.06.08.07h4.48s0,0,.11.08v1.25s.07.09.1.09a1.08,1.08,0,0,0,.18,0h10.87c.14.24,0,.51.07.76s0,.53,0,.76c.06,0,.09.08.11.08h1.29c.17-.16.08-.34.09-.51s0-.36,0-.53a1.08,1.08,0,0,1,.06-.55h1.51c.06-.05.09-.07.1-.09a.28.28,0,0,0,0-.09V141.92a.27.27,0,0,1,0-.09l.09-.09h1.31c.05-.06.09-.08.09-.1a2.44,2.44,0,0,0,0-.27v-1.14l.07-.07.08,0h2.9s0,0,.1-.06c.07-.41,0-.85,0-1.29l.07-.06h4.66s0,0,.11-.07v-1.43c0-.05.07-.08.1-.09h3c.15-.11.09-.26.09-.4,0-.32,0-.64,0-.94.06,0,.08-.07.11-.08h3a2.83,2.83,0,0,0,0-.77c0-.26,0-.52,0-.81h4.6c.15-.25.06-.49.07-.71s0-.46,0-.72h6.26c.05-.05.08-.07.09-.1s0-.06,0-.08v-1.33c.13-.15.29-.09.44-.09h4.41c0-.47,0-.91,0-1.34,0,0,0-.05.07-.06a.11.11,0,0,1,.08,0H151s.05,0,.1-.07v-1.43l.1-.09h4.49c.16-.1.09-.26.1-.4v-.93c.06,0,.08-.08.1-.08h3a1.82,1.82,0,0,0,.06-.77c0-.26,0-.52,0-.82h1.59a.57.57,0,0,0,.08-.08.28.28,0,0,0,0-.09v-2.75s0,0,.08-.09H162c.07-.06.11-.08.11-.1a1.09,1.09,0,0,0,0-.18v-2.68a1.79,1.79,0,0,1,.8-.06c.28,0,.55,0,.8,0l.08-.11a.27.27,0,0,0,0-.09V116.1s.05-.06.08-.07a.12.12,0,0,1,.08,0h7.58s0,0,.1-.07v-1.25l.1-.09h4.67s.05,0,.1-.09v-1.45a2,2,0,0,1,.76,0c.22,0,.43,0,.66,0,.15-.21.06-.45.08-.68s0-.46,0-.67a1.2,1.2,0,0,1,.58-.06h1s.07,0,.08-.08a.19.19,0,0,0,0-.08v-2.75s0,0,.08-.1h1.31l.11-.09a.27.27,0,0,0,0-.09V104c-.22-.15-.47-.06-.71-.08s-.49,0-.73,0a2.06,2.06,0,0,1-.06-.73c0-.2,0-.41,0-.61-.16-.15-.36-.07-.54-.08a3.49,3.49,0,0,0-.56,0,1.15,1.15,0,0,0-.57.06v2.87c-.23.15-.45.07-.66.08h-1.21c-.22,0-.44,0-.66,0a1.53,1.53,0,0,0-.66.07v2.86c-.06,0-.08.09-.1.09h-1.33a1.68,1.68,0,0,1-.06-.77c0-.26,0-.52,0-.75l-.11-.08h-2.9l-.1,0c-.14-.21,0-.45-.06-.67a1.62,1.62,0,0,1,.05-.72h3c.05,0,.08-.07.09-.1s0-.06,0-.09V104h-4.78c-.15.23-.06.5-.07.76s0,.52,0,.75c-.06.05-.08.08-.11.08h-1.29c-.17-.16-.07-.34-.09-.51a4.68,4.68,0,0,1,0-.53,1.09,1.09,0,0,0-.06-.53h-1.56c-.13.15-.05.33-.06.5s0,.36,0,.53.06.35-.08.54h-3a1.79,1.79,0,0,0-.06.72c0,.2,0,.41,0,.62-.23.15-.48.06-.72.08s-.49,0-.75,0c-.07-.47,0-.91,0-1.34l-.07-.07h-7.85s0,0-.09.07v1.28s0,.07.07.07a1.21,1.21,0,0,0,.19,0h2.82c.15.24.06.51.08.76s0,.53,0,.8c.55.08,1.08,0,1.61,0,.15.21,0,.45.07.68a2.57,2.57,0,0,0,.05.72H162c.16.18.08.36.09.53a4.87,4.87,0,0,1,0,.54v.52h-7.78s-.07-.06-.07-.08a1.09,1.09,0,0,1,0-.18v-1.24a16.14,16.14,0,0,0-3.17,0c0,.49,0,1,0,1.47-.17.15-.37.07-.54.08a5.23,5.23,0,0,1-.56,0h-.57v-2.95a2,2,0,0,0-.76-.06c-.21,0-.43,0-.66,0-.16.21-.06.45-.08.67s0,.46,0,.67c-.07,0-.09.07-.12.08h-4.71a3.35,3.35,0,0,0,0,.77v.81h-6.28c-.15.25-.06.49-.07.72a1.47,1.47,0,0,0,.06.71h15.74l.09.1a1.08,1.08,0,0,1,0,.18v1.26a2,2,0,0,0,.81.06h.79c.05.07.08.09.08.11v1.22c-.17.16-.37.07-.54.09h-1.12v1.52s0,.07.07.07h1.51c.16.2.06.44.08.67s0,.46,0,.73c.5,0,1,0,1.42,0a15,15,0,0,1,0,3h-1.35c-.16.19-.08.37-.09.54a4.64,4.64,0,0,0,0,.53v.54h-1.62a1.79,1.79,0,0,0-.06.72c0,.2,0,.41,0,.61l-.07.07-.09,0h-6.07s-.05,0-.13.07c0,.46,0,1,0,1.44l-.08.07h-4.48s0,0-.11.07V128c-.05.06-.07.1-.1.1a1.08,1.08,0,0,1-.18,0h-6c-.14.24-.05.51-.07.77s0,.52,0,.75a.39.39,0,0,1-.11.08.27.27,0,0,1-.09,0h-2.9c-.15.22,0,.46-.08.69a2.57,2.57,0,0,1-.05.72h-4.71c-.16.19-.08.37-.1.54s0,.35,0,.53.05.35-.08.54h-6.22a1.59,1.59,0,0,0,0,.71c0,.21,0,.42,0,.62,0,0,0,0-.07.06s-.06,0-.08,0h-4.4l-.08,0c-.09.16,0,.34,0,.51s0,.3,0,.44v.51s-.06.07-.09.08h-6.16s0,0-.1.08V137c-.06.06-.08.1-.1.1H98.52v1.49s0,0-.08.11c-.21,0-.45,0-.69,0s-.49.08-.7-.05v-1.47s.06-.07.09-.07h1.38v-1.34c-.22-.15-.47-.06-.71-.07s-.49,0-.7,0c0-.06-.08-.08-.08-.1v-1.41l.07-.07h4.48s0,0,.11-.06v-1.26c.19-.15.39-.08.56-.09h.56c.18,0,.37.06.57-.07v-2.88a2,2,0,0,1,.76-.06h.65l.07-.07a.19.19,0,0,0,0-.08v-2.75s0,0,0-.07,0,0,.08,0h9.34c.14-.15.06-.34.07-.5s0-.36,0-.54a1,1,0,0,1,.07-.54h6.22c.13-.25,0-.48.06-.71s0-.42,0-.62.29-.09.43-.09h9.07c.09-.53,0-1,0-1.52,0,0,0-.05.07-.06l.08,0h12.44s.05,0,.1-.07v-1.26c.23-.16.45-.07.66-.08s.44,0,.66,0h1.21a1.27,1.27,0,0,0,.66-.07v-1.44c.06,0,.08-.08.1-.08a1.2,1.2,0,0,1,.19,0h2.81c.15-.22.06-.46.08-.69s0-.46,0-.71c-.5,0-1,0-1.41,0-.15-.16-.07-.34-.08-.51s0-.36,0-.53.05-.35-.06-.53h-9.39a.3.3,0,0,0-.08.07.27.27,0,0,0,0,.09v1.33c-.12.14-.29.08-.43.08H133.5c0,.47,0,.9,0,1.34l-.07.06-.09,0h-7.57s0,0-.11.07v1.42a.45.45,0,0,1-.1.1h-9.25a.27.27,0,0,0-.09,0s0,0-.1.09V122c-.06,0-.08.08-.1.08h-3c-.15-.21-.06-.45-.08-.68s0-.46,0-.66c-.07,0-.09-.08-.12-.08h-1.47c-.16-.17-.08-.35-.09-.52a4.68,4.68,0,0,1,0-.53,1,1,0,0,1,.07-.54h3c.13-.25,0-.49.06-.72s0-.41,0-.62.28-.08.43-.08c1.3,0,2.61,0,3.92,0h.47c.09-.53,0-1,.05-1.52,0,0,0,0,.07-.06a.11.11,0,0,1,.08,0h4.4s0,0,.07-.05a.94.94,0,0,0,0-.16v-1.12s-.06-.07-.09-.08-.06,0-.09,0h-9.26s0,0-.1.09v1.25s-.08.08-.1.08h-3c-.16-.22-.06-.46-.08-.68s0-.46,0-.67l-.12-.07a.34.34,0,0,0-.1,0h-4.3l-.08,0-.07-.06a.22.22,0,0,1,0-.08V101s0,0-.08-.1H97.13c-.06-.05-.09-.07-.1-.09a.27.27,0,0,1,0-.09V87.53c.22-.15.47-.06.71-.08s.48,0,.74,0c.09-.53,0-1,0-1.52,0,0,0-.05.07-.06a.15.15,0,0,1,.09,0h7.76s0,0,.1-.07V84.5c.26-.14.52,0,.75-.07a2.23,2.23,0,0,0,.76-.06V79.9c.06-.05.08-.08.1-.08h1.5c.15-.22.06-.46.08-.69s0-.46,0-.73h-1.59c-.16-.17-.08-.35-.09-.52s0-.36,0-.53V76.8h1.57c.06,0,.1-.07.11-.09a1.08,1.08,0,0,0,0-.18V63.4c.22-.15.47-.06.71-.08s.49,0,.7,0c0,.06.08.08.08.1a.28.28,0,0,1,0,.09v7.17c.17.16.36.07.54.09s.37,0,.56,0a1.28,1.28,0,0,1,.57.06v7.5c.26.14.51,0,.75.07a2.23,2.23,0,0,1,.76.06v7.31s.07.07.1.08H116a1.82,1.82,0,0,1,.07.77c0,.26,0,.52,0,.75.07,0,.09.07.12.07h1.28s.07-.06.08-.09,0,0,0-.08c0-1.45,0-2.9,0-4.35,0,0,0,0,.08-.1h1.5s.09.07.09.1a.91.91,0,0,1,0,.17V94.83a1.85,1.85,0,0,1-.81.06c-.27,0-.55,0-.79,0-.05.06-.08.08-.08.1,0,1,0,1.89,0,2.83a16.16,16.16,0,0,0,3.17,0V96.59l.1-.09H127c.16.11.09.27.1.41,0,.32,0,.64,0,.93a.39.39,0,0,0,.11.08s.06,0,.09,0h4.6a1.87,1.87,0,0,1,.06.78c0,.26,0,.52,0,.77a2.35,2.35,0,0,0,.78.05h2.33c.15.23.05.47.07.7s0,.46,0,.72h4.58c.05,0,.09.07.09.09a1.08,1.08,0,0,1,0,.18v1.24l.07.06a.16.16,0,0,0,.09,0h3c.05.47,0,.91,0,1.34l.06.06h4.67s0,0,.11.07v1.45c.26.14.51,0,.75.07s.44,0,.65,0,.1-.26.1-.4v-2.53a.39.39,0,0,0-.11-.08s-.06,0-.09,0h-2.91a2.07,2.07,0,0,1-.07-.78c0-.26,0-.52,0-.81h-3.1c-.15-.24,0-.48-.08-.71s.06-.46-.05-.72h-4.53l-.09-.09a.27.27,0,0,1,0-.09V98l-.07-.06-.08,0h-2.9s-.05,0-.11,0c-.06-.42,0-.86,0-1.29,0,0,0,0-.07-.06l-.09,0h-2.9s0,0-.1-.07V95c-.06,0-.07-.08-.1-.09a.27.27,0,0,0-.09,0H130.4c-.15-.11-.09-.27-.09-.41,0-.32,0-.64,0-.93a.39.39,0,0,0-.11-.08.27.27,0,0,0-.09,0h-2.94a2.92,2.92,0,0,1,0-.78c0-.26,0-.52,0-.81h-1.45a2.72,2.72,0,0,1,0-.8c0-.23,0-.47,0-.71s0-.53,0-.8a1.75,1.75,0,0,0,0-.71H124l-.09-.1V82.91c-.22-.15-.48-.06-.71-.07s-.49,0-.73,0a1.84,1.84,0,0,1-.05-.73c0-.26,0-.53,0-.8V76.89c-.18-.16-.37-.07-.55-.09h-.56a1.15,1.15,0,0,0-.57.07v2.85c-.06,0-.07.08-.1.09h-3c-.13-.08-.1-.21-.1-.32V68.06c0-.09,0-.17,0-.24s.07-.06.09-.06h1.48l.08.08a.19.19,0,0,1,0,.08v7.36s0,0,.06.09h1.36l.06-.06s0-.06,0-.09V52.77s0,0-.08-.1h-1.32c-.05-.05-.09-.07-.09-.09a1.08,1.08,0,0,1,0-.18V46.71a2,2,0,0,0-.81-.07h-.85c-.07-.47,0-.91,0-1.34,0,0,0,0-.07-.06a.13.13,0,0,0-.09,0H113s0,0-.1-.07V42.3l-.1-.09h-6.17c-.16-.11-.09-.27-.1-.41V40.69a.39.39,0,0,0-.11-.08h-6.17c-.15-.22,0-.46-.07-.69a3.64,3.64,0,0,0,0-.72H98.62c-.16-.18-.08-.37-.1-.53a4.86,4.86,0,0,1,0-.54.89.89,0,0,1,.08-.54h1.51c0-.05.09-.07.09-.09V34.64a2,2,0,0,0-.8-.06h-.8a1.08,1.08,0,0,0-.08-.11V31.72a.44.44,0,0,0,0-.1c-.22-.13-.47,0-.71-.06a2.66,2.66,0,0,1-.74,0V25.58c.23-.12.48,0,.72,0s.44,0,.66,0,.09-.27.09-.41v-7c.56-.05,1.08,0,1.6,0,.16-.15.07-.34.08-.5s0-.36,0-.53a1.07,1.07,0,0,1,.06-.55h1.35c.15-.25.06-.48.08-.71s0-.46,0-.72h1.59c0-.05.09-.07.09-.09V6.08a1.85,1.85,0,0,0-.81-.06c-.27,0-.55,0-.86,0,0-.53,0-1,0-1.53-.24-.14-.49,0-.73-.06a2.51,2.51,0,0,1-.76-.06V1.49c0-.05-.07-.08-.1-.09a.27.27,0,0,0-.09,0ZM101.7,116v-1.32s0,0,.08-.1h1.44a.11.11,0,0,1,.08,0,.1.1,0,0,1,.06,0V116s-.06.06-.09.06H101.7v2.9s0,0-.08.12c-.21,0-.45,0-.69,0s-.49.08-.71,0v-2.89s.07-.07.09-.07Zm68.44-4.44c0,.44,0,.88,0,1.32,0,0,0,0-.08.1h-1.52s0,0-.06-.06v-1.28c.05,0,.07-.06.09-.06h1.58v-1.49s0,0,.05-.07a17.17,17.17,0,0,1,3.1,0v1.46s-.07.06-.09.06Zm-136.69-6V104s0,0,.06-.06a36,36,0,0,1,4.59,0v1.46s-.07.06-.09.06H33.45c0,.24,0,.48,0,.71s.07.47-.06.72H27.17c-.13.19-.06.37-.07.54s0,.35,0,.53.07.35-.08.52H25.53s-.05,0-.12-.07c0-.23,0-.5,0-.76a1.83,1.83,0,0,0-.06-.77c-.24,0-.46,0-.67,0a2.2,2.2,0,0,1-.76,0c0-.23,0-.47,0-.7s-.08-.46.08-.67ZM54,110h-11s0,0-.1-.09v-1.25s-.08-.07-.1-.07H38.21a.3.3,0,0,1-.08-.08v-1.4s0,0,0-.07,0,0,.07,0h4.58l.09,0,.07-.07c0-.2,0-.41,0-.61a1.79,1.79,0,0,1,.06-.72h4.53c.14-.19.07-.37.08-.54s0-.35,0-.53-.07-.35.09-.54h4.71a3,3,0,0,0,.06-.72c0-.22-.08-.46.07-.68h4.49s0,0,.11-.07c0-.24,0-.5,0-.76s-.07-.52.07-.76h3s0,0,.1-.09V99.59c.06,0,.08-.08.11-.08h3l.09-.08v-.51c0-.15,0-.3,0-.44a1,1,0,0,1,.07-.56c.25,0,.52,0,.8,0a2,2,0,0,0,.81-.06V95.17a1.08,1.08,0,0,1,0-.18l.09-.09h1.32c0-.06.07-.08.08-.1a.27.27,0,0,0,0-.09V89s0-.06,0-.08l.1-.1h1.51s.07-.07.07-.1V83a.11.11,0,0,1,0-.08s0,0,.06-.07c.46,0,.92,0,1.41,0v-.65q0-3.18,0-6.38c0-.14-.07-.3.09-.41h1.4s.07,0,.09,0,0,0,.1-.09V67.81a17.16,17.16,0,0,1,3.16,0s0,0,0,.08V78.2a.28.28,0,0,0,0,.09s0,0,.07.11c.22,0,.46,0,.7,0s.5-.07.72.08v5.68a1,1,0,0,0,0,.17s0,0,.09.1h3.09c0,.26,0,.49,0,.72s-.07.46.08.71h4.73c.09,1.15.11,9.26,0,14.91a.15.15,0,0,1,0,.09l-.07.07h-3s0,0-.11-.08c0-.2,0-.44,0-.67s.08-.46-.08-.67H75a.27.27,0,0,0-.09,0s-.05,0-.1.09v1.33H74.2c-.19,0-.38,0-.56,0s-.37-.07-.55.08v1.41s0,0,.08.11c.24,0,.52,0,.8,0a2,2,0,0,1,.8.06c0,2.44,0,4.87,0,7.29,0,0,0,0-.09.1h-3s-.08.07-.09.1,0,0,0,.08v2.66a.25.25,0,0,1,0,.09.22.22,0,0,1-.07.06H69.91c0-.25,0-.48,0-.71s.08-.46-.07-.69H54.22a.27.27,0,0,1-.09,0,.37.37,0,0,1-.1-.07ZM89,72.35V69.62a1.09,1.09,0,0,0,0-.18s0,0-.1-.09H85.81v-.54c0-.18,0-.36,0-.54s-.07-.35.1-.53h3A2,2,0,0,0,89,67c0-.23.08-.47-.07-.69-.23,0-.44,0-.66,0a2,2,0,0,1-.76,0c0-.26,0-.52,0-.78s-.07-.52.07-.76c.24,0,.46,0,.68,0a1.8,1.8,0,0,0,.73,0V63.36a2.74,2.74,0,0,0-.75,0c-.24,0-.49.07-.71-.06V57.33a3.23,3.23,0,0,1,.75,0c.24,0,.49.08.73-.07,0-.48,0-1,0-1.42,0,0,0,0-.08-.1-.21,0-.46,0-.7,0s-.49.07-.71-.08c0-.22,0-.43,0-.63s-.07-.47.06-.72h1.36a1,1,0,0,0,.07-.54,3.13,3.13,0,0,0,0-.53c0-.17.07-.35-.08-.52h-.64a2.29,2.29,0,0,1-.77-.05V46.79a.31.31,0,0,1,0-.08.45.45,0,0,1,.07-.07h.64a2.56,2.56,0,0,0,.77,0c0-.23,0-.47,0-.7s.08-.46-.08-.67h-3a.7.7,0,0,1-.09-.09v-1.2a1.66,1.66,0,0,1,0-.24s.06-.06.09-.06c1.52,0,3,0,4.57,0,0,0,.07,0,.09,0l.1.1v1.45a3.32,3.32,0,0,0,.76,0c.24,0,.49-.07.72.07.07,5.58,0,15.26,0,16.43h-.72c-.24,0-.5-.07-.72.08V72.26s0,0-.07.09Zm-1.5,66.37H84.41s0,0-.08-.08v-4.49a2.65,2.65,0,0,1,.74,0c.24,0,.49.07.75-.08v-1.34h.85a3.23,3.23,0,0,1,.82,0c0,.24,0,.45,0,.65a1.86,1.86,0,0,0,.06.73c.33,0,.67,0,1,0,.14,0,.31-.06.43.09v1.33s0,.06,0,.08,0,0,.09.1h4.71a15.46,15.46,0,0,1,0,3h-3.1c0-.28,0-.54,0-.81a2.52,2.52,0,0,0,0-.77h-3s0,0-.11.08Zm30-90.46s.06.06.06.08v7.17a.27.27,0,0,1,0,.09.3.3,0,0,1-.08.07h-3c-.12-.2,0-.41-.06-.61s0-.41,0-.62v-.53c0-.2,0-.41,0-.62s.07-.4-.07-.62H113a16.87,16.87,0,0,1,0-3h1.37c.11-.25,0-.49.06-.72s-.08-.46.06-.67ZM103.38,104c0-.3,0-.51,0-.71a1.57,1.57,0,0,1,0-.71h1.38c.08.85.08,6.59,0,7.45-.34,0-.67,0-1,0-.15,0-.31-.06-.43.09v1.33s0,.06,0,.08,0,0-.08.08h-1.53s-.07-.06-.07-.08V104s0,0,.09-.09Zm-92.27,0a12,12,0,0,1,.06,3,20.7,20.7,0,0,1-3.15,0v-1.29a1.39,1.39,0,0,0-.66-.07c-.22,0-.44,0-.66,0H5.49c-.21,0-.43.07-.63-.06V104S4.93,104,5,104Zm81-61.74H85.91s0,0-.07-.05a12.07,12.07,0,0,1,.06-3c.52,0,1,0,1.59,0,0,.34,0,.66,0,1,0,.13-.06.29.1.4h4.47s0,0,.09.07Zm-1.48-6c.31,0,.53,0,.75,0a1.8,1.8,0,0,1,.73,0v1.32a45.22,45.22,0,0,1-4.66,0V35c0-.14-.06-.3.1-.4h3s0,0,.1.08ZM167,111.59c0,1,0,2,0,2.9,0,0,0,.05-.08.1h-.8a2,2,0,0,1-.8-.07v-.81c0-.21,0-.42,0-.62,0,0,0,0-.09-.1-.3,0-.64,0-1,0-.14,0-.31.06-.42-.09s0-.41,0-.62-.07-.46.05-.69ZM100.11,9c.13.08.09.2.09.32,0,.76,0,1.53,0,2.29,0,.14.06.3-.09.41H98.62s-.05,0-.1-.08V9.43c0-.14-.06-.3.1-.4ZM85.81,52.69V54a1.09,1.09,0,0,1,0,.18s0,0-.1.09H83.05c-.14,0-.31.06-.42-.09V52.94a1.08,1.08,0,0,1,0-.18s0,0,.09-.07Zm4.84,46.76a20.57,20.57,0,0,1-3.14,0V98a20.57,20.57,0,0,1,3.14,0Zm-8-40.69a19.46,19.46,0,0,1,3.15,0v1.47a20.7,20.7,0,0,1-3.15,0ZM79.47,48.3a20.57,20.57,0,0,1,3.14,0v1.3a20.57,20.57,0,0,1-3.14,0ZM39.83,102.58a20.79,20.79,0,0,1,3.16,0v1.3a19.55,19.55,0,0,1-3.16,0ZM79.43,58.7H76.37s0,0-.1-.08,0-.44,0-.67-.07-.46.09-.66h3s0,0,.08.07Zm8.08,31.76h3.06s0,0,.1.09c0,.2,0,.43,0,.66s.08.47-.08.67h-3s0,0-.08-.07Zm-4.9-22.71H79.55s0,0-.1-.08c0-.2,0-.44,0-.67s-.08-.46.09-.67h3s0,0,.08.06Zm12.83-55.7s-.07-.05-.07-.07V10.51c.17-.11.36,0,.54-.06h.56c.17,0,.36-.06.54.07V12S97,12,96.92,12ZM82.64,55.69h1.57s.05,0,.1.09c0,.23,0,.49,0,.75s.07.52-.07.76H82.73s0,0-.09-.07Zm-9.55,9.14s0-.06.07-.06h1.55c.12.17.05.35.06.51a4.68,4.68,0,0,1,0,.53c0,.17.06.35-.07.52H73.17s-.08-.06-.08-.08Zm3.18,7.52V71a1.08,1.08,0,0,1,0-.18s0,0,.11-.09h1.15c.15,0,.31-.06.42.09V72.1a1,1,0,0,1,0,.17s0,0-.09.08Zm3.19,4.45H81s0,0,.1.09c0,.35,0,.73,0,1.11,0,.13.06.29-.09.4H79.55s0,0-.09-.08Zm-35,25.71V101.2a1.09,1.09,0,0,1,0-.18s0,0,.1-.09c.36,0,.76,0,1.15,0,.15,0,.32-.06.43.09v1.24a.91.91,0,0,1,0,.17s0,0-.09.08Zm54,18.11h-.73a1.94,1.94,0,0,1-.75-.06c0-.26,0-.52,0-.78s-.07-.52.07-.75c.24,0,.46,0,.67,0a2.07,2.07,0,0,1,.74,0ZM79.43,75.38H78.05s0,0-.1-.08c0-.24,0-.5,0-.76s-.08-.52.07-.75c.45,0,.89,0,1.32,0,0,0,0,0,.08.07Zm0-19.69c-.3,0-.51,0-.73,0a1.94,1.94,0,0,1-.75-.06c0-.32,0-.64,0-1,0-.14-.07-.3.09-.4s.44,0,.65,0a2,2,0,0,1,.73,0ZM95.25,45.22s.06,0,.06.06c0,.44,0,.87,0,1.32a7.63,7.63,0,0,1-1.46,0v-1.3s.07-.07.09-.07ZM19,110c-.3,0-.52,0-.73,0a1.76,1.76,0,0,1-.75,0c0-.32,0-.64,0-1,0-.14-.06-.3.1-.4s.43,0,.65,0a2,2,0,0,1,.73,0Zm68.45-15.1c0-.28,0-.49,0-.69a1.74,1.74,0,0,1,.06-.71c.25,0,.49,0,.73,0s.49-.07.71.08c0,.21,0,.42,0,.63s.07.46,0,.69ZM82.61,70.77c-.29,0-.51,0-.73,0a1.94,1.94,0,0,1-.75-.06c0-.23,0-.46,0-.69s-.08-.47.08-.67h.66a2,2,0,0,1,.73.05ZM78,63.32h.73a2,2,0,0,1,.73,0v1.37c-.25,0-.49,0-.73,0a1.8,1.8,0,0,1-.73,0Zm0-3h.73a1.94,1.94,0,0,1,.75.06c0,.23,0,.46,0,.69s.07.47-.09.67H78.7a2,2,0,0,1-.73,0Zm14.1,60.32s.06,0,.06.06c0,.44,0,.87,0,1.32a7.63,7.63,0,0,1-1.46,0v-1.3s.07-.07.09-.07Zm12.81-60.3c0,.28,0,.49,0,.69a1.74,1.74,0,0,1-.06.71h-.73c-.24,0-.49.07-.71-.08,0-.22,0-.42,0-.63a1.47,1.47,0,0,1,0-.69Zm-3.2,79.82h-1.37s0,0-.11-.09c0-.2,0-.43,0-.66s-.08-.47.08-.67h1.31s0,0,.08.07Zm4.9,1.59c.3,0,.51,0,.73,0a1.93,1.93,0,0,1,.75,0c0,.23,0,.47,0,.7s.08.46-.08.66c-.23,0-.44,0-.66,0a2,2,0,0,1-.73-.05Z"/><path d="M130.33,113.05v1.48c.84.08,3.94.08,4.82,0v-1.48C134.31,113,131.21,113,130.33,113.05Z"/><path d="M173.31,104h3.07s.05,0,.09-.06V101a2.25,2.25,0,0,0-.78,0c-.28,0-.55,0-.79,0-.05.06-.09.08-.09.1v1.42c-.22.15-.47.06-.71.07s-.48,0-.7,0c-.05,0-.08.07-.08.09C173.31,103.06,173.31,103.51,173.31,104Z"/><path d="M98.52,1.4V.09s0,0-.07-.09H97.09c-.14.2,0,.44-.06.66s0,.46,0,.66.08.08.11.08Z"/></g></g></svg>