<svg xmlns="http://www.w3.org/2000/svg" viewBox="0 0 118.78 297.88"><title>Recurso 14ART</title><g id="Capa_2" data-name="Capa 2"><g id="Capa_1-2" data-name="Capa 1"><path d="M71,237.8v3s0,.06-.11.13H69.47c-.17.25-.08.49-.1.72s0,.39,0,.6c-.43.24-.92,0-1.38.16a2.52,2.52,0,0,0,0,.91c0,.36,0,.71,0,1.07v6.87c0,.35,0,.71,0,1.06a2.43,2.43,0,0,1-.07,1H66.39c-.06.07-.11.1-.11.13v3H64.85c0-.51,0-1,0-1.53,0,0,0-.06-.11-.14H61.87a.6.6,0,0,0-.08.08v1.49l.12.08h2.94v1.42H63.33s-.06,0-.14.1c0,.23,0,.49,0,.76s-.12.54.08.77h1.49c0-.05.08-.08.08-.11,0-.51,0-1,0-1.53h1.28s.06,0,.09-.06.06-.06.06-.09v-1.27h1.54c.2-.15.11-.36.12-.54,0-.35,0-.7,0-1.08a12.41,12.41,0,0,1,1.35-.06,2.5,2.5,0,0,0,.07-1c0-.31,0-.63,0-.95v-1c.08-.06.12-.1.15-.1h1.4c.22.26.08.54.11.81a2.12,2.12,0,0,0,.08.82h1.27c.17-.29.05-.61.07-.91s0-.64,0-1v-2.86H74c.07-.07.11-.1.12-.13a1.76,1.76,0,0,0,0-.23V244h1.33c.23.43,0,.92.14,1.36,0,0,.06.07.09.07h1.43c.23-.44,0-.93.16-1.41h2.9c.23-.28.09-.57.12-.83s-.06-.54.09-.84h2.89c.19-.25.09-.49.11-.72a5.8,5.8,0,0,0,0-.59c.15-.2.36-.12.55-.12h2.45a1.83,1.83,0,0,0,.09-.85c0-.24,0-.47,0-.7l.1-.09a.2.2,0,0,1,.11,0h4.15s.06,0,.09-.05.06-.07.06-.1c0-.39,0-.78,0-1.16-.23-.2-.47-.08-.7-.11s-.46.06-.72-.09v-1.47c-.29-.19-.57-.08-.84-.1s-.47,0-.71,0c-.25.22-.09.51-.12.78s0,.54,0,.77l-.14.11H84.91c-.23.44,0,.93-.15,1.36,0,0-.07.06-.1.06H81.83c-.2-.22-.09-.47-.1-.69s0-.46,0-.72h1.56c.19-.3.08-.58.1-.84s0-.48,0-.71c.15-.2.36-.12.55-.12h2.51v-1.32c.47-.24,1,0,1.42-.17.1-.5,0-1,.06-1.51.24-.19.53-.07.79-.09s.54,0,.84,0v-3c.25-.19.5-.09.72-.11s.4,0,.6,0c.19-.15.11-.36.11-.54,0-.83,0-1.65,0-2.46a1.78,1.78,0,0,1,.84-.09h.72c.23-.44,0-.93.15-1.36,0,0,.07-.06.1-.06H94c.19.46,0,.95.14,1.42h1.5c.19.3.09.58.1.84s0,.56,0,.83h-3s0,.05-.1.09v1.28c.46.14.94,0,1.38.11v1.6c-.25,0-.48,0-.71,0s-.47-.1-.69.11v.92c0,.36,0,.71,0,1.07a3,3,0,0,1-.07,1c-.26,0-.53,0-.8,0s-.55-.12-.81.13a10.16,10.16,0,0,0,.08,1.3h2.83a.2.2,0,0,0,.11,0,.6.6,0,0,0,.08-.08v-2.25c0-.2,0-.4,0-.6,0,0,0,0,.11-.12h1.43c.07-.07.11-.1.11-.13,0-1.46,0-2.92,0-4.39H97s.06,0,.14-.1v-3h1.58a1.18,1.18,0,0,1,.08.31q0,4.33,0,8.67a2.33,2.33,0,0,1,0,.27c-.49.05-1,0-1.5,0,0,0-.07.06-.08.09a.2.2,0,0,0,0,.11v4.15s0,.07-.09.14H95.85c-.21.29-.09.57-.11.84s0,.53,0,.84h-3c-.17.25-.08.49-.1.72s0,.39,0,.58l-.09.09a.2.2,0,0,1-.11,0H88.06s-.07,0-.13.08c-.09.48,0,1-.05,1.49l-.09.08H85s-.06,0-.13.1v1.21c-.26.18-.5.09-.72.11h-.6c-.24.23-.09.52-.11.78s0,.54,0,.79a1.69,1.69,0,0,1-.85.09h-.69c0,.05-.08.07-.1.1a.43.43,0,0,0,0,.11V250s0,.07-.09.14H80.37c-.17.48,0,1-.13,1.44h-1.5c-.06.07-.1.1-.1.13a1.93,1.93,0,0,0,0,.24v2.62c-.43.23-.92,0-1.39.16-.09.49,0,1-.06,1.51-.24.19-.52.05-.79.09s-.54-.07-.84.09v2.89c-.25.18-.49.09-.72.1a5.86,5.86,0,0,1-.59,0c-.2.15-.12.36-.12.54v5.6c-.55.07-1.06,0-1.56.05,0,0-.07.05-.08.08a.23.23,0,0,0,0,.11c0,2.42,0,4.83,0,7.25,0,0,0,.06-.09.13h-1.2c-.07.07-.11.1-.12.13s0,.08,0,.12v2.73c-.14.2-.35.11-.54.12-.35,0-.7,0-1,0a1.81,1.81,0,0,0-.09.85c0,.23,0,.47,0,.72-.44.23-.93,0-1.38.15a2.91,2.91,0,0,0,0,.93c0,.36,0,.71,0,1.07v.93c-.27.2-.55.07-.81.1s-.55-.07-.85.1v1.22c-.25.18-.49.09-.72.11s-.39,0-.59,0c-.24.23-.09.52-.11.79s0,.54,0,.84c-.55.07-1.06,0-1.56.05-.19.2-.08.45-.09.67a1.18,1.18,0,0,0,.08.73h1.45a1.25,1.25,0,0,1,.12.12.48.48,0,0,1,0,.12v2.73c-.14.2-.35.12-.54.12h-1l-.11.13a.48.48,0,0,0,0,.12v2.74c-.44.23-.93,0-1.41.16v1.48c-.29.21-.57.09-.83.11s-.54,0-.84,0v1.31c-.08.06-.1.11-.13.11H58.74c-.16.52,0,1.08-.09,1.61a2.79,2.79,0,0,1-.95.05c-.36,0-.71,0-1.07,0h-1c-.21.45,0,.93-.15,1.4H43.33a.17.17,0,0,1-.09-.21v-2.75l.08-.07a.21.21,0,0,1,.1,0h2.87v1.52l.13.12a.2.2,0,0,0,.11,0h7.13a1.22,1.22,0,0,0,.25-.07v-1.47c.29-.21.57-.08.84-.12s.54.08.84-.09v-2.88c-.07-.06-.1-.11-.13-.11H52.6c-.24-.43,0-.92-.16-1.39-.49-.08-1,0-1.5-.05,0,0-.07,0-.08-.09a.2.2,0,0,1,0-.11v-2.73s-.05-.06-.1-.13H49.52c-.19-.29-.09-.57-.1-.84s0-.47,0-.71-.36-.12-.54-.12H46.4c-.12-1.39-.14-6.5-.06-12.27.43-.21.92,0,1.4-.15v-1.24c.28-.22.57-.09.83-.12s.55.07.84-.1v-1.45c.07-.06.1-.11.13-.11h2.87a2.4,2.4,0,0,0,.09-1c0-.32,0-.64,0-.95v-1l.15-.1h5.82l.13,0c.19-.42,0-.91.14-1.39H60c.07-.07.11-.1.12-.13a1.76,1.76,0,0,0,0-.23v-4.4c.28,0,.56,0,.83,0s.54.08.84-.1a5,5,0,0,0,0-.67c0-.22.12-.47-.12-.65H60.1V253.6a1.92,1.92,0,0,0,0-.24s-.05-.05-.09-.1H58.73c-.15.46.06,1-.14,1.42h-1.5a.85.85,0,0,0-.07.26q0,1.31,0,2.61a.23.23,0,0,0,0,.11l.12.12h1.48c.12.57-.07,1.12.1,1.64H60.1v1.42h-3c-.2.14-.12.36-.12.54,0,.35,0,.7,0,1-.07.06-.09.11-.13.11H54.05l-.09.09a.2.2,0,0,0,0,.11v2.78c-.08.07-.11.11-.14.11H52.56a3.57,3.57,0,0,1-.06-1c0-.32,0-.63,0-.95v-1c-.09-.05-.12-.09-.15-.09H51c-.05.05-.09.08-.1.11a.2.2,0,0,0,0,.11v2.73s0,.06-.09.12H46.41c-.19-.24-.07-.53-.08-.79a1.64,1.64,0,0,1,.08-.84h1.25a29.61,29.61,0,0,0,0-4.52H46.42a1.56,1.56,0,0,1-.09-.84c0-.24,0-.47,0-.71-.23-.24-.52-.09-.78-.11s-.54,0-.77,0c-.06-.08-.11-.11-.11-.14V247.06h3s.06,0,.09.06c.15.44-.08.92.15,1.36h1.42s.06-.05.14-.11v-2.77a.2.2,0,0,0,0-.11l-.07-.08H44.76c0,.05-.09.08-.1.11v1.53H43.3c-.17-.51,0-1.07-.09-1.57-.05,0-.08-.08-.11-.09a.48.48,0,0,0-.12,0H40.22c-.16-.45,0-.93-.11-1.41H37.18c-.22-.29-.09-.57-.12-.84s.07-.54-.08-.82H27.89s-.08.07-.09.11,0,.08,0,.12v2.75c-.51.21-1.07,0-1.58.12,0,0-.08.08-.08.11V247c.26.22.55.09.81.11s.54,0,.84,0v4.4c.25.19.5.09.72.11s.4,0,.6,0,.12.35.12.54v2.45a1.59,1.59,0,0,0,.85.09c.23,0,.47,0,.7,0,.23.25.09.54.11.8s0,.54,0,.82c.48.1.91,0,1.34.07.17.2.07.45.08.67s0,.46,0,.73h1.52c.08.07.12.09.14.13a.4.4,0,0,1,0,.11v4.4c-.23.24-.52.09-.78.11s-.54,0-.79,0a1.51,1.51,0,0,0-.09.74c0,.19,0,.39,0,.57l-.1.1a.2.2,0,0,1-.11,0H26.28s-.06,0-.12.08v1.5c.25.18.53.06.79.08s.48,0,.72,0,.55,0,.83,0,.47-.08.72.09v1.21c.07.07.1.11.13.11h2.86c.24-.44,0-.93.15-1.36a.18.18,0,0,1,.1-.06h5.91c.2.22.1.47.11.69a1.19,1.19,0,0,1-.09.73H37.17c-.19.29-.09.57-.11.84s0,.47,0,.71c.18.23.44.09.66.12s.46,0,.74,0V270c.27.26.56.11.82.14a2.72,2.72,0,0,1,.84.08v1.5c-.24.19-.53.06-.79.09s-.55-.07-.84.09v1.22c-.07.06-.1.11-.13.11H37.18c-.24.24-.09.53-.12.79s0,.54,0,.84c-.55.08-1.06,0-1.56.06a.2.2,0,0,0-.08.08.22.22,0,0,0,0,.11c0,.91,0,1.82,0,2.73,0,0,0,.06-.09.14H32.42c-.19.25-.09.49-.11.71s0,.4,0,.6c-.18.24-.44.09-.66.12s-.47,0-.67,0a1.59,1.59,0,0,0-.09.85c0,.23,0,.47,0,.7-.24.23-.53.08-.79.11a2.81,2.81,0,0,0-.85.08v1.23c-.29.22-.57.09-.84.12s-.47,0-.71,0h-.83c-.23,0-.47-.07-.72.1v2.88c-.26.18-.5.09-.73.1a5.76,5.76,0,0,1-.59,0c-.24.23-.09.52-.11.78s0,.54,0,.85c-.55.07-1.06,0-1.58.05-.21.43,0,.92-.15,1.38H18.62c-.17-.21-.07-.45-.09-.68s0-.4,0-.59.35-.12.54-.13h.77c.07-.07.11-.1.11-.13a1.93,1.93,0,0,0,0-.24v-4.26c.24-.24.53-.09.79-.12s.54,0,.77,0c.06-.09.1-.12.1-.15v-1.17c-.27-.21-.55-.07-.82-.1s-.54.06-.84-.09v-7.64c-.25-.19-.49-.1-.72-.11s-.47,0-.71,0V267H17s-.09.08-.09.11,0,.23,0,.35V270c-.2.22-.45.09-.67.11s-.46,0-.65,0-.1-.11-.11-.15a.48.48,0,0,1,0-.12v-2.71c-.25-.22-.54-.08-.8-.11a2.38,2.38,0,0,1-.83-.07v-1.27c.24-.18.52-.05.79-.09s.54.07.82-.08V264c-.27-.16-.55-.06-.81-.08h-.73c-.24-.43,0-.92-.16-1.4H12.49c-.25-.28-.11-.56-.13-.83s0-.54,0-.83h6.09c.19.23.07.52.09.78s0,.54,0,.85h1.31c.19.24.09.49.11.71s0,.4,0,.6.35.11.53.12h2.44c.06-.07.11-.1.11-.13,0-.39,0-.79,0-1.18-.19-.22-.45-.09-.67-.11s-.46,0-.72,0c-.07-.55,0-1.06,0-1.56-.24-.21-.53-.07-.79-.09s-.54,0-.84,0v-4.39c-.25-.2-.49-.1-.72-.12s-.45,0-.7,0V244c.44-.16.93,0,1.4-.12v-1.51c.3-.18.58-.08.84-.1h.71s.07-.05.09-.09a.38.38,0,0,0,0-.1v-2.87H23a4.31,4.31,0,0,0,.05-1.07c0-.31,0-.63,0-.94s0-.7,0-1.09h1.57c.19-.47,0-1,.14-1.44H26c.18-.29.08-.57.1-.83s0-.56,0-.83h1.52s.06,0,.14-.1,0-.41,0-.64.1-.46-.09-.65H26.22s-.08.08-.09.11v1.29h-3c-.23-.19-.09-.44-.11-.66a6,6,0,0,1,0-.74h1.52c.26-.28.11-.56.14-.83a2.78,2.78,0,0,1,.08-.84H27.7c.2-.48,0-1,.15-1.44h1.27c.18-.29.08-.57.1-.84s0-.47,0-.71c.23-.24.52-.09.78-.11a6.85,6.85,0,0,1,.78,0,.77.77,0,0,0,.1-.14.48.48,0,0,0,0-.12v-5.8c.21-.21.46-.08.68-.11s.47.05.73-.08v-1.23c.29-.22.57-.1.83-.12s.54,0,.83,0v-3c-.05,0-.07-.1-.1-.11a1.92,1.92,0,0,0-.24,0H30.88v-1.51s0-.06-.06-.09-.06-.06-.09-.06H29.22v-1.29s0-.06-.11-.14-.41,0-.64,0-.46-.1-.65.08v1.25c.06,0,.08.08.11.08h1.29V216s0,.06.06.09.06.06.09.06h1.51v1.3c-.14.2-.35.12-.54.12h-1c-.06.07-.1.1-.11.13a1.92,1.92,0,0,0,0,.24v2.61c-.43.24-.92,0-1.36.15,0,0-.06.07-.06.1,0,.47,0,.94,0,1.4.22.21.47.08.69.11s.47,0,.71.08v1.26c-.2.17-.45.06-.67.09s-.47-.07-.72.1v2.89c-.29.18-.57.08-.84.1h-.77a13.88,13.88,0,0,0-.08,1.57c-.06.05-.08.08-.12.09H23.12c-.17.45,0,.92-.11,1.39-.44.08-.87,0-1.3.06-.2.24-.06.53-.09.79a2.08,2.08,0,0,1-.09.84H20.07c-.19.25-.08.49-.11.72s.06.46-.11.72H17c-.17.29-.07.57-.09.83s0,.48,0,.73c-.43.24-.92,0-1.36.15-.13.22,0,.46-.07.68s0,.4,0,.58c-.25.23-.54.08-.8.11a2.75,2.75,0,0,0-.84.08v2.92c-.48.2-1,0-1.44.15v2.92c-.29.2-.57.09-.83.11s-.48,0-.71,0-.13.36-.13.54V247c-.07.06-.09.1-.12.11h-3V245.5c-.42-.24-.91,0-1.39-.16v-1.22c-.28-.26-.57-.11-.83-.14a2.81,2.81,0,0,1-.85-.08v-9.1c-.47-.2-1,0-1.44-.15v-4.59c-.29-.18-.57-.08-.83-.1s-.48,0-.74,0c-.23-.43,0-.92-.14-1.36-.22-.13-.46,0-.69-.06a5.47,5.47,0,0,0-.57,0s-.08-.06-.1-.1a.36.36,0,0,1,0-.1v-2.62a1.22,1.22,0,0,1,.07-.25H1.31c.21-.29.1-.57.11-.83s0-.64,0-.95v-4.41H3c.18-.29.08-.57.1-.84s0-.47,0-.73c.43-.23.92,0,1.4-.16v-1.22c.28-.25.56-.11.83-.14a2.26,2.26,0,0,0,.84-.08v-2.89c.29-.21.57-.09.84-.11s.47,0,.71,0h.83c.23,0,.47.07.72-.1v-1.45c.07-.06.1-.11.13-.11s.24,0,.36,0h3.91c.22-.2.09-.45.11-.67a4.79,4.79,0,0,0,0-.65c.08-.06.11-.1.14-.1h5.92c.21.22.09.47.11.69s0,.46,0,.71h3c.16-.21.06-.45.08-.67s0-.46,0-.71h9.18c.16.23.07.47.09.7s0,.4,0,.59c.23.24.52.09.79.11a7.72,7.72,0,0,0,.84,0c.07.55,0,1.06.05,1.56.2.19.44.08.67.1s.46,0,.73,0v1.31c.29.21.57.1.83.11s.54,0,.84,0v1.61a10,10,0,0,0,1.33.06c.23.43,0,.92.15,1.35a1.85,1.85,0,0,0,.81.06H40c.21.26.08.54.1.81s0,.54,0,.84h-3c-.19.25-.09.49-.11.72s0,.4,0,.59c-.23.25-.52.1-.78.12s-.54,0-.79,0a1.84,1.84,0,0,0-.09.85c0,.24,0,.47,0,.72-.44.23-.93,0-1.41.16v1.24c-.29.22-.57.09-.84.12s-.54-.07-.82.08v2.91s.07.09.1.1H43.12l.08-.08a.2.2,0,0,0,0-.11c0-.94,0-1.88,0-2.81a1.83,1.83,0,0,0-.85-.09h-.7l-.09-.09a.26.26,0,0,1,0-.11V217.7c.09,0,.12-.09.16-.09.47,0,.94,0,1.39,0,.05-.06.09-.08.1-.11a.25.25,0,0,0,0-.12v-4.15s0-.06.1-.13h1.22c.18-.29.08-.57.1-.84s0-.55,0-.83h3.09V213s0,.06.11.14c.22,0,.49,0,.76,0s.54.11.77-.09v-1.48c-.06-.05-.09-.09-.12-.09H47.75v-1.31c.15-.19.36-.11.54-.11h4.1c.06-.08.11-.11.11-.14V207a.41.41,0,0,0-.1-.09.2.2,0,0,0-.11,0H47.9s-.06,0-.12-.08v-1.49c.24-.18.53-.07.79-.08s.54,0,.84,0v-1.38a9.9,9.9,0,0,1,1.32-.05c.23-.23.08-.52.1-.79a6.68,6.68,0,0,0,0-.77c-.09,0-.12-.09-.15-.09H46.44l-.1.11s0,.07,0,.11c0,.91,0,1.82,0,2.73,0,0,0,.06-.08.12H43.32c-.16-.22-.06-.46-.08-.69s0-.4,0-.6c-.23-.24-.52-.09-.79-.11s-.54,0-.77,0c-.06-.08-.1-.11-.1-.14,0-.48,0-.95,0-1.41,0,0,.07-.08.1-.09a.23.23,0,0,1,.11,0h2.73s.07,0,.14-.09v-1.22c.29-.2.57-.09.83-.11s.54,0,.85,0v-1.55c.07-.06.1-.11.12-.11h9.08a14,14,0,0,1,.08,1.57c.07,0,.1.09.13.09h2.83c.21-.27.08-.55.1-.81s0-.54,0-.85H57.14C57.07,199,57,199,57,199s0-.07,0-.11v-7.37h3s.05-.05.1-.09v-1.47s-.07-.1-.1-.1H57v-1.42H55.7c-.2-.28-.1-.56-.1-.83a1.46,1.46,0,0,1,.08-.84h6.09c0,.51,0,1,0,1.53,0,0,0,.06.11.14h2.77a.18.18,0,0,0,.1,0s.06-.05.08-.07v-2.91a1.56,1.56,0,0,0-.82-.08c-.26,0-.54-.09-.82.1v1.22c-.07,0-.1.1-.13.1H61.77v-1.31c-.23-.24-.52-.09-.79-.11s-.54,0-.77,0c-.06-.08-.1-.11-.1-.14,0-.47,0-.95,0-1.47a4.06,4.06,0,0,1,1-.05h2v-1.34c-.24-.18-.52-.06-.79-.08s-.47,0-.71,0H60.13v-1.58c.26-.16.54-.06.81-.08s.47,0,.71,0c.22-.2.09-.45.11-.67s0-.47,0-.65-.12-.11-.15-.11H55.68c-.22.45,0,.93-.15,1.4H52.59c-.17-.21-.08-.45-.08-.68a1.1,1.1,0,0,1,.09-.72h1.21c.07-.07.11-.1.11-.13a1.93,1.93,0,0,0,0-.24v-2.66c.52-.15,1.07,0,1.6-.09a3.06,3.06,0,0,0,.06-.95c0-.35,0-.71,0-1.06v-.93c.22-.21.47-.09.69-.11s.46,0,.73,0v1.32c.29.2.57.09.83.11h.71c.2.14.12.36.12.54,0,.35,0,.7,0,1,.07.06.1.1.13.11h2.86c.23.44,0,.93.15,1.36,0,0,.07.07.1.07h4.24c0-.05.09-.08.1-.11a.2.2,0,0,0,0-.11v-2.73s0-.06.1-.13h1.45c.19-.26.09-.5.11-.72s0-.48,0-.72h7.52c.15-.31.05-.58.09-.85s-.1-.54.11-.82H80.3v-1.41h2.84a.25.25,0,0,0,.12,0s.06,0,.13-.11v-1.55c.26,0,.49,0,.72,0s.47.08.71-.12v-1.22c.3-.15.58,0,.85-.08s.54.1.78-.1c.06-.51,0-1,.06-1.57.26,0,.49,0,.72,0s.47.11.66-.11a9.81,9.81,0,0,1,0-1.31H89c.19,0,.4.08.54-.13v-3h1.29s.06-.05.14-.11c0-.22,0-.49,0-.76s.11-.54-.08-.77H89.65c-.05.06-.09.09-.09.12v1.52h-3s-.06,0-.13.12v3H83.62c-.32,0-.64,0-1,0s-.63-.09-1,.09V165c-.48.17-1,0-1.41.15,0,.48,0,1,0,1.43,0,0,0,.06.06.1.43.16.92-.09,1.36.14v1.2s0,.06-.07.09c-.44.14-.93-.09-1.35.14v1.57H74.12c0,.28,0,.51,0,.74s.1.47-.12.69H68.05c-.06.06-.1.09-.1.12,0,.51,0,1,0,1.53H66.4c-.2-.14-.11-.35-.12-.54,0-.35,0-.7,0-1-.26-.16-.5-.08-.73-.1H65c-.22-.2-.09-.45-.11-.67s0-.46,0-.65-.11-.1-.15-.1c-.47,0-.94,0-1.39,0-.21.22-.09.46-.12.69s.06.46-.08.71H61.82c-.15-.45,0-.93-.1-1.38H58.77s-.09.07-.09.1v1.18c-.24.24-.53.09-.79.12s-.54,0-.77,0c-.06-.08-.1-.11-.1-.14,0-.95,0-1.89,0-2.83l.1-.09a.2.2,0,0,1,.11,0H67.77s.07,0,.11-.05a1.42,1.42,0,0,0,.06-.68c0-.19,0-.39,0-.57l.1-.1a.2.2,0,0,1,.11,0H72.3s.06,0,.13-.07c.07-.48,0-1,0-1.49.24-.2.52-.06.79-.09s.54.06.82-.08v-1.26s0-.07-.09-.08-.07,0-.11,0H71.16s-.06,0-.13.11V165c-.07.06-.1.11-.13.11H66.28v-1.29s0-.06-.08-.09a26.32,26.32,0,0,0-4.4.06V165c.06,0,.09.07.12.07h4.36v1.54c-.11.17-.27.13-.42.13H58.77a32.7,32.7,0,0,1,0-4.75H60c.06-.07.1-.1.11-.13a1.92,1.92,0,0,0,0-.24v-2.72h1.55c.24.23.09.52.11.78s0,.54,0,.77c.07.06.1.11.13.11h1.18c.23-.25.08-.54.11-.8a2.24,2.24,0,0,1,.08-.84h2.88c.21-.25.11-.49.13-.72s0-.46,0-.72h3c.18-.29.08-.57.09-.84s0-.55,0-.83H74c.06-.08.11-.1.11-.13v-1.3h3c.06-.08.1-.11.1-.14,0-.5,0-1,0-1.52h3c.06-.08.1-.11.1-.14,0-.43,0-.86,0-1.28h3c.06-.09.1-.12.1-.15,0-.5,0-1,0-1.52h1.29s.06,0,.14-.1,0-.42,0-.64.09-.47-.09-.66H83.47c0,.06-.08.09-.08.12,0,.43,0,.85,0,1.28h-3c-.06.08-.1.11-.1.14,0,.51,0,1,0,1.53h-3c-.06.08-.1.11-.1.13v1.29h-3c-.06.08-.1.11-.1.14v1.52H69.48c-.06.08-.11.11-.11.14v1.29H68.06c-.19-.15-.11-.36-.11-.54,0-1.3,0-2.6,0-3.86-.07-.06-.1-.11-.13-.11h-4.5s-.07,0-.09.09a.19.19,0,0,0,0,.1v2.81a1.85,1.85,0,0,0,.86.08h.69c0,.05.08.07.09.11a.2.2,0,0,1,0,.11c0,.87,0,1.74,0,2.61a.84.84,0,0,1-.07.23H61.86s-.07,0-.08-.08,0-.07,0-.11c0-1.47,0-2.93,0-4.39,0,0,0-.06-.1-.13h-9c-.2-.29-.09-.57-.11-.83s0-.48,0-.71,0-.56,0-.83.07-.47-.1-.72h-6c-.18-.25-.09-.49-.1-.72s0-.48,0-.71h7.61c0,.23,0,.47,0,.71s-.08.47.09.69l.33,0h7c.15,0,.32,0,.43-.12v-1.3h6.17v-1.67c1,0,2,0,3,0,0,0,.06,0,.09-.06.16-.44-.08-.92.16-1.38H74a2.19,2.19,0,0,0,.08-.83c0-.27-.1-.55.12-.82H77.1c.06-.07.1-.09.1-.12,0-.44,0-.87,0-1.3h3c.06-.08.1-.11.1-.14,0-.51,0-1,0-1.52h3c.06-.08.1-.11.1-.14,0-.43,0-.86,0-1.29h1.29s.06,0,.14-.11a6.36,6.36,0,0,0,0-.75c0-.26.12-.55-.08-.77H83.47s-.08.08-.08.11c0,.51,0,1,0,1.52h-3c-.06.08-.1.11-.1.14,0,.43,0,.86,0,1.29h-3c-.06.08-.1.11-.1.14v1.52h-6s-.06-.05-.13-.12v-2.85c-.07-.07-.1-.11-.13-.11H61.77v-1.54c.14-.2.35-.12.53-.12h3.92c.15-.47,0-.95.11-1.42h1.51c.18-.3.08-.57.1-.84s0-.55,0-.83h4.39s.06-.05.13-.11v-1.2c.07-.06.09-.11.12-.11h4.51c.24-.23.09-.52.11-.78a6.85,6.85,0,0,0,0-.78c-.08-.06-.11-.1-.14-.1H72.58a.26.26,0,0,1-.09-.09.17.17,0,0,1,0-.1v-2.79c-.08-.06-.11-.1-.14-.1H68a14.29,14.29,0,0,0-.08,1.58c-.06,0-.09.09-.12.09H55.59v-1.54c.14-.2.35-.12.54-.12h8.65c.18-.46,0-.94.13-1.41h6c.21-.28.09-.56.11-.83s0-.54,0-.84h4.44c.17-.47,0-.95.13-1.43h1.51c.18-.29.08-.57.09-.83s0-.56,0-.83h3c.06-.08.1-.11.1-.14,0-.43,0-.86,0-1.29h3c.06-.08.1-.11.1-.14,0-.51,0-1,0-1.52h2.73a1.92,1.92,0,0,0,.24,0s.06,0,.13-.12v-1.25c.47-.15,1,0,1.43-.14v-1.58c.31,0,.58,0,.85,0s.55.11.83-.14v-1.22c.48-.17,1,.07,1.4-.16,0-.26,0-.49,0-.73s-.08-.54.09-.84h1.49a29,29,0,0,0,0-4.48H91c-.16.46.06.94-.13,1.37-.45.06-.88,0-1.35.07,0,.29,0,.56,0,.83s.12.55-.12.79h-2.6a1.76,1.76,0,0,0-.23,0s-.06,0-.09.07c-.15.44.09.93-.14,1.35-.27,0-.51,0-.74,0s-.55-.09-.84.1v1.5c-.48.16-1-.06-1.42.14,0,.41,0,.8,0,1.19,0,0,0,.06.06.1.43.17.92-.08,1.36.15v1.43s0,.06-.07.09c-.44.15-.93-.09-1.36.14v1.33h-3c-.06.08-.1.11-.1.14,0,.51,0,1,0,1.52h-3c-.06.08-.1.11-.1.14v1.29H72.55c-.23-.43,0-.91-.15-1.39a10.54,10.54,0,0,0-1.26,0l-.08-.09a.2.2,0,0,1,0-.11V117.4c.48-.1.91,0,1.33-.07a.6.6,0,0,0,.08-.08.22.22,0,0,0,0-.11c0-.91,0-1.82,0-2.73,0,0,0-.06-.08-.12H71.12c-.16.22-.07.46-.09.69s0,.39,0,.59-.36.12-.54.12H66.37a1.81,1.81,0,0,0-.09.85c0,.23,0,.47,0,.7,0,0-.06.07-.09.09l-.11,0h-12s-.06,0-.14.07v1.21c-.07.06-.09.1-.12.12a.23.23,0,0,1-.11,0H49.56s-.06,0-.13.09v1.44c-.07.07-.09.11-.13.12s-.07,0-.11,0h-5.7a.25.25,0,0,0-.12,0,.54.54,0,0,0-.13.1v2.85c-.07.07-.09.11-.12.13a.48.48,0,0,1-.12,0H40.23c-.21-.51,0-1.07-.13-1.63H38.6c-.25-.47,0-1-.18-1.44H37.18c-.22-.29-.09-.57-.12-.83s.07-.55-.09-.84H35.53c-.08-.08-.12-.1-.13-.13a1.92,1.92,0,0,1,0-.24v-2.73c.27,0,.55,0,.83,0s.54-.09.83.09v1.46c.08.06.11.1.13.1,1.39,0,2.77,0,4.16,0,0,0,.08,0,.11,0s.06,0,.13-.12v-1.44a.77.77,0,0,1,.13-.09H61.53a.48.48,0,0,0,.12,0,.83.83,0,0,0,.12-.13v-1.19c.08-.06.11-.1.14-.1h5.81a.2.2,0,0,0,.11,0s.06,0,.13-.12v-1.46c.48-.18,1,.06,1.44-.18v-1.31h4.53l.1,0,.09-.09v-1.42s-.05-.06-.12-.13H72.51c-.15-.47,0-1-.13-1.43h-6c0-.07-.1-.1-.1-.13v-2.73a.37.37,0,0,1,0-.11,1.11,1.11,0,0,1,.11-.11h1.39s.06,0,.1.07c.17.43-.08.92.15,1.36h1.19s.06,0,.09-.07c.15-.43-.09-.92.14-1.35H71v1.29s0,.06.11.14.41,0,.64,0,.46.1.65-.08v-1.25c-.05,0-.08-.09-.11-.09H71c0-.28,0-.55,0-.83s.08-.54-.08-.81H54c-.16.28,0,.56-.08.82s.09.55-.12.84H50.9c-.18.47.06,1-.15,1.41H48a.48.48,0,0,0-.12,0,.77.77,0,0,0-.14.1,6.87,6.87,0,0,1,0,.78c0,.26.13.55-.11.78h-4a1.92,1.92,0,0,0-.24,0s-.06,0-.13.12v2.88a1.45,1.45,0,0,1-.84.08c-.26,0-.55.11-.83-.11v-1.47c-.27-.13-.5,0-.73-.08s-.47.1-.71-.14v-1.28H37.6c-.18,0-.39.07-.54-.12v-3c.24,0,.48,0,.71,0s.47-.08.72.1v1.21c.07.06.1.1.13.1h2.73a.2.2,0,0,0,.11,0s.06,0,.13-.12V105h1.09c.31,0,.63,0,1,0a4,4,0,0,0,1,0v-1.47s0-.06-.07-.09c-.44-.16-.93.09-1.35-.15v-1.33h9.11s.07,0,.14-.09v-1.44a1.29,1.29,0,0,1,.12-.12h2.84s.06,0,.13.1v1.45c.25.19.49.1.71.11a1.09,1.09,0,0,0,.72-.1v-1.46c.29-.18.57-.08.84-.1s.55,0,.83,0v1.54a20.66,20.66,0,0,0,4.45.07c.13-.25,0-.53.06-.8s0-.47,0-.69l.1-.1.11,0h5.82s.06,0,.13-.09V98.94c.29-.21.57-.09.84-.11s.47,0,.71,0,.56,0,.83,0,.47.07.71-.08V97.26c0-.05-.08-.09-.11-.09a1,1,0,0,0-.24,0H66.38c-.24-.43,0-.92-.15-1.36,0,0-.07-.06-.1-.06H63.28c-.2.45,0,.94-.14,1.4H61.86s-.09-.07-.09-.1a1.77,1.77,0,0,1,0-.23V94.2c-.11-.17-.28-.13-.43-.13H56l-.33,0a1.8,1.8,0,0,0-.08.82c0,.24,0,.48,0,.7,0,0-.07.08-.1.09a.2.2,0,0,1-.11,0H47.9s-.06,0-.14.09V97c-.28.22-.57.1-.83.12s-.48,0-.71,0H44.66v1.55c-.07.06-.1.11-.13.11-.39,0-.79,0-1.24,0-.15-.52,0-1.07-.08-1.6a2.8,2.8,0,0,0-1,0c-.36,0-.72,0-1.07,0h-.95c-.21-.45,0-.94-.15-1.42h-1.5c-.19-.29-.09-.57-.1-.84s0-.55,0-.83h6.07c.24-.42,0-.91.15-1.35,0,0,.06-.06.09-.07a.48.48,0,0,1,.12,0h2.72c.22-.25.08-.54.11-.8s0-.54,0-.85h-6.1c-.18-.49,0-1-.11-1.44h6.11c.18-.3.08-.57.1-.84s0-.47,0-.71c.24-.23.53-.09.79-.11s.54,0,.79,0a2,2,0,0,1,.08.86c0,.23,0,.47,0,.68.05,0,.08.09.11.1a.2.2,0,0,0,.11,0h8.91s.06,0,.13-.1V88c.07-.07.09-.11.13-.12a.41.41,0,0,1,.11,0h7.25c.23-.19.09-.44.11-.67a5.78,5.78,0,0,0,0-.73H65c-.25-.28-.1-.57-.13-.83a2.66,2.66,0,0,0-.08-.83h-1.5c-.18.24-.05.53-.09.79s.08.54-.08.82H61.86s-.09-.08-.09-.11a1.76,1.76,0,0,1,0-.23V83.47a2.39,2.39,0,0,0-1-.08c-.32,0-.64,0-1,0H58.71c-.07-.55,0-1.06,0-1.56-.26-.2-.54-.09-.8-.09a1.49,1.49,0,0,0-.85.08v1.45c-.07.07-.09.11-.13.12a.4.4,0,0,1-.11,0H52.62c-.23.19-.09.44-.11.67a4.79,4.79,0,0,0,0,.65c-.08.06-.1.1-.14.11H49.53c-.23.25-.08.54-.12.8a2.36,2.36,0,0,1-.07.83H41.66c-.18-.24-.06-.52-.08-.79s0-.54,0-.84h-3c-.06-.07-.11-.1-.11-.13,0-1.42,0-2.85,0-4.33.52-.15,1.07,0,1.57-.08,0-.06.09-.09.09-.12v-1.4a.47.47,0,0,0-.11-.1.2.2,0,0,0-.11,0H37.2s-.06,0-.13-.1V77.31c-.3-.19-.58-.08-.84-.1s-.56,0-.83,0V75.66c-.15-.19-.36-.11-.55-.11H29.26c-.08-.46,0-.89-.05-1.34a2.5,2.5,0,0,0-1-.08c-.31,0-.63,0-1,0H26.16c-.06-.55,0-1.06,0-1.54.27-.23.55-.1.82-.12s.54,0,.84,0V71.15c.25-.2.49-.1.72-.12s.46,0,.72,0V69.48c.07-.06.1-.11.13-.11s.23,0,.35,0h2.51c.24-.43,0-.92.16-1.4.49-.07,1,0,1.5,0,.21-.24.07-.53.1-.79a2.29,2.29,0,0,1,.08-.85h1.21c.07-.07.11-.09.13-.12a.49.49,0,0,0,0-.12V62a.48.48,0,0,1,0-.12,1.15,1.15,0,0,1,.1-.13H37c.18-.29.08-.57.1-.84s0-.47,0-.71c.19-.23.44-.09.66-.11a4.94,4.94,0,0,1,.66,0c.06-.08.09-.1.1-.14a.37.37,0,0,0,0-.11V55.7c.24-.23.53-.08.79-.11s.54,0,.82,0c.1-.56,0-1.07.07-1.57l.08-.08h5.93s.06,0,.13-.09V52.62c.25-.2.49-.1.72-.12h.72v-3a1.54,1.54,0,0,1,.84-.09c.23,0,.47,0,.7,0a.26.26,0,0,0,.09-.09.19.19,0,0,0,0-.1V46.35H50.7c.25-.28.1-.57.14-.83a2.24,2.24,0,0,1,.08-.84h2.87c.07-.07.11-.1.12-.13a.2.2,0,0,0,0-.11V41.71s0-.06.1-.13h1.45c.18-.25.09-.49.11-.72s0-.48,0-.71h.71c.23,0,.47-.07.71.1,0,1.28,0,2.57,0,3.87,0,.19-.08.4.12.54h4.5s.06,0,.13-.11V43.29c.47-.14.95,0,1.43-.12V41.66a1.32,1.32,0,0,1,.72-.08c.28,0,.56,0,.83,0s.48,0,.71,0,.55.1.83-.11V38.57c.3-.15.58,0,.84-.09s.55.11.81-.11V37.21s0-.06-.06-.09a29,29,0,0,0-4.67,0c-.05.42,0,.85-.06,1.32H60.31a.2.2,0,0,1-.11,0l-.13-.12V37.06H57.21a.19.19,0,0,0-.1,0,.41.41,0,0,0-.1.09,5.61,5.61,0,0,1,0,.58c0,.23.07.47-.07.68-.44.14-.92-.08-1.35.13v1.58H51c-.2-.15-.12-.36-.12-.54,0-.83,0-1.65,0-2.44.07-.06.1-.1.13-.11a1.92,1.92,0,0,1,.24,0h2.6s.07-.06.09-.09a.2.2,0,0,0,0-.11V34A12.77,12.77,0,0,0,52.6,34a.6.6,0,0,1-.08-.08.25.25,0,0,1,0-.12V31s0-.07.1-.14h1.22c.19-.29.08-.57.1-.83s0-.48,0-.72c.22-.25.51-.09.77-.11a7,7,0,0,1,.79,0,1.68,1.68,0,0,1,.1.84c0,.24,0,.48,0,.72.44.24.92,0,1.39.17.08.41,0,.84.06,1.26.24.2.52.06.79.1s.54-.07.84.08v2.92a29.64,29.64,0,0,0,4.52,0V32.42c.07-.06.1-.11.13-.11h1.45a2.55,2.55,0,0,1,.08,1c0,.31,0,.63,0,.95v1c.09.06.12.1.15.1h1.16a.47.47,0,0,0,.1-.11.2.2,0,0,0,0-.11V32.45s0-.06.1-.13h1.44c.2-.25.11-.49.12-.72a1.11,1.11,0,0,0-.1-.72H66.37a1.76,1.76,0,0,1-.09-.84c0-.23,0-.47,0-.71a23.18,23.18,0,0,0-4.45-.06,1.85,1.85,0,0,0-.06.81c0,.23,0,.47,0,.68-.05,0-.07.09-.11.1a.2.2,0,0,1-.11,0H58.82s-.06,0-.13-.09V29.33c-.29-.2-.57-.09-.84-.11H57V27.91c-.07-.06-.09-.11-.12-.11H54c-.23-.23-.09-.52-.11-.79s0-.54,0-.78a2,2,0,0,1,.85-.09h.72c.21-.45,0-.93.15-1.4h2.94c.18.25.06.53.08.8s0,.47,0,.71,0,.56,0,.83-.07.47.09.7h9.09c.16-.26.06-.54.08-.81s0-.47,0-.71c-.23-.24-.52-.09-.78-.11a7.9,7.9,0,0,0-.85,0V24.85l-.13-.12a.2.2,0,0,0-.11,0H60.26a.18.18,0,0,1-.15-.15c0-.47,0-.94,0-1.39-.22-.2-.47-.09-.69-.11s-.46,0-.73,0V21.72c-.29-.18-.57-.08-.83-.1s-.56,0-.84,0V20.07L57.1,20a.19.19,0,0,1,.1,0H60a1.84,1.84,0,0,1,.09.85c0,.24,0,.47,0,.7.25.23.54.09.8.11s.54,0,.85,0v1.29l.12.12A.25.25,0,0,0,62,23h2.73s.06,0,.13-.1V21.73c.25-.19.49-.09.72-.11s.39,0,.59,0c.23.18.09.44.11.66a4.79,4.79,0,0,1,0,.65c.08.07.11.11.14.11h1.4a1,1,0,0,0,.1-.09.23.23,0,0,0,0-.11V18.55H66.4c-.22-.29-.1-.57-.12-.84s0-.53,0-.84h3c.18-.25.09-.49.1-.72s0-.47,0-.71h2.94s.06,0,.15-.1c0-.23,0-.5,0-.76s.11-.55-.09-.78h-2.9s-.09.08-.09.11v1.53H68c-.18-.51,0-1.07-.1-1.58,0,0-.07-.07-.11-.08H57.13s-.07-.06-.09-.1a.18.18,0,0,1,0-.1c0-1.39,0-2.77,0-4.16,0,0,0-.06,0-.1a2,2,0,0,0-.81-.05H51c-.05,0-.09-.07-.1-.1a.2.2,0,0,1,0-.11V6.32s0-.06.1-.13h2.88c.2-.29.08-.57.1-.84s0-.47,0-.71.35-.12.53-.12h4.12a1.59,1.59,0,0,1,.09.85c0,.23,0,.47,0,.7a22.69,22.69,0,0,0,4.48.06c.07-.5,0-1,.05-1.51,0,0,0-.06.09-.08l.11,0h5.81s.06,0,.14.09V6.06c.29.21.57.09.83.11s.48,0,.71,0h.84a1.18,1.18,0,0,1,.72.1V7.49c.07.06.1.11.13.11h2.86c.23-.43,0-.92.15-1.38a3.16,3.16,0,0,1,.92,0c.32,0,.64,0,1,0h2.71c.22-.26.09-.55.11-.81s0-.54,0-.83h3a.76.76,0,0,1,.09.09.48.48,0,0,1,0,.12V7.48c-.14.2-.35.11-.53.12-.35,0-.71,0-1,0a1.7,1.7,0,0,0-.1.85c0,.23,0,.47,0,.7-.2.22-.45.09-.67.11s-.46,0-.67,0a1.55,1.55,0,0,0-.08.75c0,.19,0,.39,0,.57-.27.21-.55.08-.82.11s-.54-.07-.84.09v9.06c-.25.19-.49.09-.72.11a5.8,5.8,0,0,1-.59,0c-.2.15-.12.36-.12.54,0,.83,0,1.65,0,2.51a11.83,11.83,0,0,0,1.31.05c.23.24.09.53.11.79s0,.54,0,.82c-.47.1-.9,0-1.33.07,0,0-.06.05-.08.08a.49.49,0,0,0,0,.12v12s0,.06.09.13h1.22c.19.25.09.49.11.72a5.8,5.8,0,0,1,0,.59c.14.2.36.12.54.12.35,0,.7,0,1,0,.07.08.11.11.11.14,0,.47,0,.94,0,1.41a.41.41,0,0,1-.1.09.19.19,0,0,1-.1,0H77.25c-.09-.56,0-1.07-.06-1.57l-.09-.08s-.07,0-.11,0q-1.36,0-2.73,0s-.06,0-.12.08v1.49c.22.16.46.07.69.08a5.86,5.86,0,0,0,.59,0c.17.1.12.27.12.42v5.34c0,.12,0,.23,0,.37a11.3,11.3,0,0,1-1.29,0c-.21.2-.08.45-.11.67s0,.46,0,.7c.48.1.91,0,1.33.07.2.25.06.53.09.79s-.07.55.08.83h2.93c.16-.26.06-.54.08-.81s0-.55,0-.83h1.54c.2.14.12.35.12.54,0,.35,0,.7,0,1,.25.17.49.08.72.1s.39,0,.58,0a.75.75,0,0,1,.09.09.2.2,0,0,1,0,.11v9c-.07.06-.1.11-.12.11h-3c0-.28,0-.56,0-.83s-.09-.55.1-.84H80.3c0-.27,0-.5,0-.73s.09-.47-.08-.66h-4.6c-.18.47.07,1-.18,1.42H74.12c0,.32,0,.59,0,.86s-.13.55.12.78h4.39V60a1.47,1.47,0,0,1-.3.08H59a1.81,1.81,0,0,1-.23,0c-.16-.21-.06-.45-.08-.68s0-.39,0-.59-.36-.12-.54-.12H55.7c-.06-.08-.1-.1-.11-.13a1.92,1.92,0,0,1,0-.24v-2.6c-.24-.24-.53-.09-.79-.12s-.54,0-.78,0a1.4,1.4,0,0,0-.09.74c0,.19,0,.39,0,.59-.45.21-.94,0-1.42.16v1.49c-.29.2-.57.09-.83.1s-.54,0-.84,0V60c-.26.17-.5.08-.73.1h-.58c-.24.24-.09.53-.11.79s0,.54,0,.78a1.41,1.41,0,0,0,.74.09h.57c.21.22.1.46.11.69s0,.46,0,.71H46.38c-.15-.44,0-.93-.1-1.38h-3s-.09.07-.09.1c0,.4,0,.79,0,1.18,0,0-.06.07-.09.09a.2.2,0,0,1-.11,0H38.51c-.06.55,0,1.06,0,1.58-.43.21-.92,0-1.38.15v2.93c.2.18.44.07.67.09s.46,0,.72,0V66.42c.07-.08.1-.13.13-.14a1.77,1.77,0,0,1,.23,0h2.73v4.63l.09.08a.21.21,0,0,0,.1,0h2.87c.07-.55,0-1.06,0-1.56.23-.21.52-.07.78-.1a2.29,2.29,0,0,0,.85-.08V68.06c.25-.2.49-.09.72-.12s.47.07.72-.1V66.39c.07-.06.1-.11.13-.11h1.48c.14.52,0,1.08.08,1.58.06,0,.09.08.12.08h1.16c.05,0,.09-.07.1-.11a.2.2,0,0,0,0-.11V65s0-.06.1-.13h1.42a1,1,0,0,0,.14-.13.48.48,0,0,0,0-.12V60.22c.19-.23.44-.09.67-.11a4.79,4.79,0,0,1,.65,0,.77.77,0,0,1,.1.14.25.25,0,0,1,0,.12v2.72c.25.22.54.1.8.1a1.67,1.67,0,0,0,.85-.07V61.88c.25-.19.49-.09.72-.11a5.8,5.8,0,0,1,.59,0c.2.14.11.35.12.53s0,.55,0,.78c.08.06.11.11.14.11h1.43c.23-.44,0-.93.15-1.36,0,0,.07-.06.1-.06.39,0,.79,0,1.16,0,.2.22.09.47.11.69s0,.46,0,.73h7.79c.11.54,0,1,.07,1.57.18.2.43.07.65.09s.46,0,.72,0c.08-.55,0-1.06.06-1.56a.3.3,0,0,1,.08-.08.2.2,0,0,1,.11,0h8.91s.06,0,.13-.1v-1.2l.13-.12a.48.48,0,0,1,.12,0h4.39c.2-.15.11-.36.12-.55,0-.35,0-.7,0-1a.77.77,0,0,1,.14-.1.25.25,0,0,1,.12,0h2.74c.22-.44,0-.93.16-1.41h2.9c.22-.28.1-.57.12-.83s0-.54,0-.84H94c.06-.07.11-.1.11-.13,0-.4,0-.79,0-1.18l.09-.09a.2.2,0,0,1,.11,0H97.1a12.55,12.55,0,0,1,.09,1.33s0,.06.08.08h9s.06,0,.13-.1V55.7c.29-.2.57-.09.84-.11s.47,0,.71,0c.25-.23.09-.52.12-.78s0-.54,0-.78c.08-.06.11-.1.14-.1h1.17c.23.25.08.53.11.8a2.78,2.78,0,0,0,.08.84h2.9c.21.29.09.57.11.84s0,.47,0,.71,0,.56,0,.83a1.27,1.27,0,0,0,.09.73h1.53c.07.46,0,.89,0,1.32.19.21.44.08.66.1s.46,0,.71,0c.09.56,0,1.07.06,1.57.25.2.53.06.79.09s.55-.06.85.09v2.89c.25.19.49.09.72.11a5.81,5.81,0,0,0,.59,0l.08.09a.21.21,0,0,1,0,.1v2.87H117.5c-.24.24-.11.49-.14.72s0,.46-.09.72h-6c-.2.29-.08.58-.11.84s.07.55-.1.84h-1.54c-.05.46,0,.89,0,1.33-.42.23-.91,0-1.34.15a.23.23,0,0,0-.07.1.48.48,0,0,0,0,.12V77a.6.6,0,0,1,0,.12c-.25.19-.53,0-.79.09s-.55-.07-.83.08v1.23s.07.1.1.11a1.92,1.92,0,0,0,.24,0h2.61l.08.09a.19.19,0,0,1,0,.1c0,1,0,1.89,0,2.88h-1.29c-.25.28-.1.56-.14.83a2.26,2.26,0,0,1-.08.84h-1.45a1.49,1.49,0,0,0-.13.13.48.48,0,0,0,0,.12V94c-.15.2-.36.11-.54.12s-.54,0-.78,0a1.48,1.48,0,0,0-.11.14.48.48,0,0,0,0,.12v12c-.24.23-.53.09-.79.11s-.54,0-.77,0a1.17,1.17,0,0,0-.1.15.48.48,0,0,0,0,.12v7.36a1.21,1.21,0,0,1,0,.14c-.43.18-.91,0-1.37.12v4.37c.22.16.46.07.69.09s.4,0,.59,0a.76.76,0,0,1,.09.09.38.38,0,0,1,0,.1v6c-.47.08-.9,0-1.33,0l-.08.09a.36.36,0,0,0,0,.11v12s0,.06-.09.13h-1.44c-.07.07-.11.09-.12.13s0,.07,0,.11v2.73c-.14.2-.35.12-.54.12s-.54,0-.77,0c-.07.07-.1.1-.11.13a.48.48,0,0,0,0,.12v10.56c-.25.23-.54.09-.8.11s-.54,0-.85,0v1.29c-.25.22-.49.1-.72.13s-.46-.06-.72.1v1.47c-.3.17-.57.07-.84.09s-.47,0-.71,0l-.08.09a.2.2,0,0,0,0,.11c0,1.94,0,3.88,0,5.82,0,0,0,.06-.07.13-.4.07-.83,0-1.25.05,0,0-.07,0-.08.08a.25.25,0,0,0,0,.12v2.73s-.05.06-.1.13H91.11c-.07.07-.1.09-.12.13a.4.4,0,0,0,0,.11v2.76c-.43.23-.92,0-1.4.16v1.22c-.28.26-.57.12-.83.14s-.54,0-.85,0v1.54c-.24.21-.49.09-.71.12s-.47-.06-.73.11v1.21c-.07.06-.09.1-.13.11h-2.9c-.15.52,0,1.08-.08,1.58l-.12.08h-4.4l-.11,0a26.51,26.51,0,0,0,0,4.49h1.46c.07.07.11.09.12.13s0,.08,0,.12v2.85h-3s-.06,0-.14.1c0,.23,0,.49,0,.76s-.11.54.09.78h2.9c0-.06.09-.09.09-.11,0-.51,0-1,0-1.53h3c.2.14.12.35.12.53,0,.83,0,1.65,0,2.44-.07.06-.09.11-.12.11H75.67c-.2.15-.12.36-.12.54,0,.35,0,.7,0,1.09a11.75,11.75,0,0,1-1.31,0c-.21.2-.08.45-.11.67s0,.46,0,.71c.47.08.9,0,1.32.06,0,0,.07,0,.08.08a.23.23,0,0,1,0,.11v12c-.08.06-.1.09-.14.1H71.15a.38.38,0,0,0-.09.09.2.2,0,0,0,0,.11v5.94h1.29c.25.28.12.57.13.83a1.67,1.67,0,0,1-.07.85H71.12c-.2.47,0,1-.15,1.43H66.39c-.2.29-.1.57-.1.83a1.31,1.31,0,0,0,.09.84h1.45c.06.07.11.1.11.13v4.39H66.4a.3.3,0,0,0-.08.08.21.21,0,0,0,0,.1v2.88H67.8c.26.27.12.56.14.82s0,.54,0,.84h3c.19-.24.06-.52.09-.79s-.07-.54.09-.84h1.23c.18-.25.09-.49.1-.72a5.86,5.86,0,0,0,0-.59c.23-.24.52-.09.78-.11a7.9,7.9,0,0,1,.85,0v1.28c.24.24.49.12.71.14s.46,0,.73,0v-1.3c.07-.07.09-.1.13-.12s.07,0,.11,0h12s.06,0,.11.09v1.23c0,.05-.06.09-.09.1a.25.25,0,0,1-.12,0H80.42c-.2.14-.12.35-.12.54,0,.35,0,.7,0,1l-.14.11H77.29a2.75,2.75,0,0,0-.08,1c0,.32,0,.63,0,.95v1.06c-.56.1-1.07,0-1.57.07l-.08.08a.25.25,0,0,0,0,.12c0,1.93,0,3.87,0,5.81,0,0,0,.06-.1.13H74.23c-.19.25-.09.5-.11.72s0,.4,0,.6c.18.23.44.09.66.11a4.79,4.79,0,0,0,.65,0c.07.07.11.1.11.13,0,.48,0,.95,0,1.44-.44.22-.92,0-1.42.16V236c-.27.21-.55.08-.81.1s-.54,0-.85,0v1.55c-.25.18-.49.09-.72.1s-.47,0-.71,0v-4.63s0,0,.12-.12h1.23c.11-1.19.1-6.56,0-7.61H71.12c-.16-.3-.06-.58-.09-.84s.1-.55-.09-.79H63.26c-.11,1.41-.09,6.87,0,7.83h2.92c.18.47,0,1,.15,1.39.52.05,1,0,1.51,0,0,.08.07.11.07.14V239a.2.2,0,0,0,0,.11.38.38,0,0,0,.09.09h1.17s.06-.05.14-.11,0-.42,0-.65-.11-.48.12-.66ZM89.56,77.21h1.29s.06,0,.14-.1c0-.23,0-.5,0-.76s.11-.54-.08-.77H89.65c-.05.06-.09.09-.09.12v1.52H88s-.06,0-.14.1,0,.42,0,.64-.09.47.09.66h1.48c0-.06.09-.09.09-.12Zm-6.18-9.27H81.72v1.43H78.63c0,.32,0,.59,0,.85s.1.54-.11.82H77.31c0,.07-.1.1-.1.12v1.3H74.27s-.06,0-.15.1c0,.22,0,.49,0,.76s-.11.54.09.78h2.91c0-.06.08-.09.08-.11,0-.51,0-1,0-1.53H80.3c0-.28,0-.51,0-.74s-.09-.47.12-.7h1.2c0-.07.1-.1.1-.13V69.37h1.66V67.94h1.28s.06,0,.15-.1V66.28h1.52s.06,0,.14-.11v-3h1.29s.06,0,.14-.11,0-.41,0-.64.1-.46-.08-.65H86.47v1.4H81.81a1.62,1.62,0,0,0-.08.86c0,.26-.11.54.11.81H84.7c.06.07.11.09.11.12v1.3H83.53s-.06,0-.15.1ZM91,123.53h1.52s.06,0,.14-.11c0-.22,0-.49,0-.76s.12-.54-.08-.77H91.07c0,.06-.08.09-.08.12,0,.51,0,1,0,1.52H89.71s-.06,0-.09.06-.06.06-.06.09V125h-3c-.06.08-.1.11-.1.14,0,.51,0,1,0,1.52h-3c-.17.49,0,1-.16,1.44H81.82c0,.06-.1.09-.1.12v1.53H78.78s-.06,0-.15.1,0,.41,0,.64-.1.47.09.66h3v-1.4h3.09c0-.32,0-.59,0-.86s-.1-.54.12-.82h1.44c0-.06.1-.09.1-.12v-1.29h3c.07-.08.11-.11.11-.14V125h1.28s.06,0,.09,0,0-.06,0-.09C91,124.38,91,124,91,123.53ZM78.63,162h3c.07-.08.11-.11.11-.14v-1.29h3s.06-.05.13-.12V159c.3-.17.58-.06.84-.09s.55.09.84-.12V157.5c.26,0,.49,0,.72,0s.47.09.69-.11c0-.22,0-.46,0-.69a1.82,1.82,0,0,1,.07-.83c.52-.11,1.07.07,1.58-.09a12.34,12.34,0,0,1,.06-1.37h2.5c.18,0,.39.08.54-.12v-1.54h.71c.23,0,.47.07.72-.11v-2.88c.29-.17.57-.06.84-.1s.54.1.79-.08v-2.93a1.69,1.69,0,0,0-.83-.07c-.26,0-.54-.11-.81.11,0,.22,0,.45,0,.69a1.87,1.87,0,0,1-.08.86c-.2,0-.44,0-.67,0s-.47-.1-.66.11a11.92,11.92,0,0,1-.06,1.31H91.53c-.19,0-.4-.08-.54.11v1.55c-.24,0-.48,0-.72,0s-.46-.08-.71.1v1.32H86.7c-.32,0-.64,0-1,0s-.62-.1-1,.09v1.47c-.07.05-.11.09-.14.09H81.94l-.11,0s-.06.06-.11.1,0,.37,0,.57a1.48,1.48,0,0,1-.06.69c-.44.16-.93-.09-1.36.15,0,.48,0,1,0,1.43,0,0,0,.06.11.13.23,0,.5,0,.77,0s.4-.08.54.12v3h-3c-.06.08-.1.11-.1.14,0,.43,0,.86,0,1.29-.43,0-.86,0-1.28,0,0,0-.06,0-.14.1,0,.23,0,.5,0,.76s-.11.54.09.77h1.25c0-.05.08-.08.08-.11Zm-72.45,71c0-.43,0-.86,0-1.29,0,0,0-.06-.1-.14-.23,0-.5,0-.76,0s-.54-.12-.77.08V233c.06,0,.09.08.12.08H6.21v6.22c.47-.14.93.08,1.37-.13v-6s-.08-.09-.1-.09ZM78.63,83.38h3s.06,0,.13-.11V81.82c.25-.17.49-.08.72-.1s.55,0,.83,0,.47,0,.71,0,.54.08.84-.1V80.3c.3,0,.57,0,.83,0s.55.1.79-.08V78.63c-.29,0-.56,0-.82,0s-.55.11-.79-.09c0-.43,0-.86-.06-1.33H81.93a.2.2,0,0,0-.11,0s-.06.06-.13.12v1.28a5.81,5.81,0,0,0-.73,0c-.22,0-.47-.11-.66.11,0,.23,0,.47,0,.71a1.56,1.56,0,0,1-.09.84H78.63v3.08H77.35s-.06,0-.14.1,0,.42,0,.64-.09.47.09.65h1.25s.08-.08.08-.11Zm10.93,50.84h3s.06-.05.13-.11c0-.24,0-.51,0-.78s-.08-.39.12-.53.4,0,.6,0,.46.08.71-.11v-1.46c.3-.16.57-.05.84-.09s.55.1.83-.12v-1.24c.48-.17,1,.06,1.41-.15,0-.25,0-.48,0-.72a1.84,1.84,0,0,1,.07-.83c.51-.09,1.06.06,1.59-.08,0-1,0-1.94,0-2.89,0,0,0-.06-.1-.14H95.94l-.11,0a.45.45,0,0,0-.09.1c0,.22,0,.46,0,.69a1.68,1.68,0,0,1-.08.85c-.25,0-.52,0-.79,0s-.55-.12-.79.12a5.8,5.8,0,0,1,0,.59c0,.22.07.46-.1.72H92.65c0,.3,0,.57,0,.83s.09.55-.11.83h-3v4.51H86.62s-.06,0-.09.07a.83.83,0,0,0-.06.21v2.59a.2.2,0,0,0,0,.11.2.2,0,0,0,.08.08h1.25c.14-.24.05-.47.08-.7s-.08-.46.12-.7h1.44c.05-.07.1-.1.1-.13Zm-7.84-27.79h3s.06,0,.13-.11v-1.23a2.26,2.26,0,0,1,1-.07c.31,0,.63,0,.94,0h1c.32,0,.63,0,1,0a2.23,2.23,0,0,0,1-.08v-1.53c.48-.14,1,0,1.44-.13V102a2.26,2.26,0,0,1,.84-.08c.26,0,.55.11.81-.11v-1.4s0-.06-.1-.15c-.23,0-.5,0-.77,0s-.55.12-.82-.14V98.87a22.72,22.72,0,0,0-4.48.07,9.81,9.81,0,0,1,0,1.31c-.38,0-.73,0-1.08,0-.18,0-.4-.07-.54.12s0,.48,0,.71.08.55-.1.84H81.83c-.06.07-.11.09-.11.12v4.39H80.43s-.06,0-.13.1c0,.23,0,.5,0,.76s-.11.55.09.77h1.25s.08-.08.08-.11ZM89.56,91h1.28s.06,0,.09,0a.19.19,0,0,0,0-.1c0-.42,0-.85,0-1.27h.82c.27,0,.55.08.84-.1V87c0-.18.08-.4-.13-.54H88.26a1,1,0,0,0-.24,0s0,0-.12.11V87.8c-.26.17-.5.08-.72.09s-.56,0-.83,0-.48,0-.71,0-.55-.09-.84.1v1.47a1.31,1.31,0,0,1-.72.09h-.83c-.23,0-.47,0-.71,0s-.54-.09-.83.11V90.9A1.7,1.7,0,0,1,81,91c-.23,0-.47-.09-.67.08V94c.25.13.49,0,.72.08s.47-.1.68.11c0,.22,0,.46,0,.69a2,2,0,0,0,.09.86h2.8a.19.19,0,0,0,.1,0,.41.41,0,0,0,.1-.09c0-.23,0-.46,0-.7a1.83,1.83,0,0,1,.09-.85h2.8a.2.2,0,0,0,.11,0l.08-.08c0-.42,0-.85,0-1.31H89c.19,0,.4.07.54-.12ZM50.86,50.84h2.83s.08,0,.11,0,.06,0,.13-.13V49.41c.3,0,.57,0,.84,0s.55-.1.83.11v4.3c.07.05.1.09.13.09H66.17a.73.73,0,0,0,.08-.09V52.56c-.46-.17-1,.06-1.4-.15,0-.48,0-.95,0-1.43,0,0,0-.06.06-.09.44-.16.93.08,1.38-.16a10,10,0,0,0-.08-1.32c-.29,0-.56,0-.83,0s-.39.08-.54-.12c0-.24,0-.48,0-.71s-.09-.55.1-.84h1.23a1.16,1.16,0,0,0,.08-.72c0-.23.1-.47-.08-.67H57.07c-.16.46.06.95-.14,1.4H52.5c0,.33,0,.6,0,.87s.12.55-.11.79c-.23,0-.47,0-.7,0a1.69,1.69,0,0,0-.83.07ZM89.56,139c0,.32,0,.52,0,.72s.07.46-.11.71h-3c0,.31,0,.58,0,.84s.1.55-.12.84H84.89a1.88,1.88,0,0,0-.08.73c0,.22.1.47-.15.71H83.38c0,.31,0,.58,0,.85s-.13.55.11.78c.2,0,.4,0,.6,0s.46-.07.72.11v1.23c.29.15.57,0,.84.09s.54-.11.83.12v1.46a1.34,1.34,0,0,0,.73.07c.22,0,.47.11.68-.11,0-.23,0-.46,0-.7a1.88,1.88,0,0,1,.07-.81c.52-.12,1.08.08,1.59-.1,0-.25,0-.45,0-.65s-.07-.47.11-.72H90.9c.16-.3,0-.57.09-.84s-.1-.55.11-.81h1.4s.06,0,.15-.09,0-.42,0-.65-.1-.47.15-.71H94c.16-.56-.08-1.12.13-1.63.28,0,.52,0,.76,0s.54.09.8-.08V139c-.28,0-.55,0-.82,0s-.55.1-.81-.11c0-.49,0-1,0-1.55-.29,0-.52,0-.74,0s-.48-.1-.68.12c0,.22,0,.46,0,.7a1.78,1.78,0,0,1-.09.84Zm10.69-78.84c0,.33,0,.57,0,.8s-.08.55.1.84h1.46c.06.07.1.1.1.13v2.74a.22.22,0,0,0,0,.11.91.91,0,0,0,.1.1H103c.36,0,.72,0,1.07,0a2.82,2.82,0,0,1,.92,0c.18.45-.08.94.15,1.36.45,0,.88,0,1.34,0v1.54a1.37,1.37,0,0,0,.84.08c.26,0,.55.11.83-.11v-2.9c.48-.18,1,.06,1.42-.16,0-1.51,0-3,0-4.52,0,0,0-.06-.08-.11Zm-57,18.5h5.8a1.76,1.76,0,0,0,.23,0s.06,0,.1-.09V77.3c-.06,0-.09-.09-.12-.09H41.68l-.09.08s0,.08,0,.11v4a.48.48,0,0,1,0,.12s0,.06-.06.1c-.44.16-.93-.09-1.36.15v1.43s.05.06.09.11h6c.16-.27,0-.55.09-.82s-.1-.54.11-.83h4.32a1.34,1.34,0,0,0,.07-.73c0-.22.1-.47-.11-.68H43.38s-.06,0-.12-.08ZM69.36,9.26c.37,0,.6,0,.84,0s.54.09.81-.08V7.6H69a4.86,4.86,0,0,0-1.07.05V9.26c-.31,0-.58,0-.85,0s-.54.11-.78-.09c-.06-.51,0-1,0-1.57H63.39a.2.2,0,0,0-.11,0,.46.46,0,0,0-.07.07c-.07.51,0,1-.07,1.56H60.65c-.19,0-.4-.08-.57.14a12,12,0,0,0,.08,1.29h1.52c.16.29,0,.57.09.84s-.1.54.08.79h3c.08-.56,0-1.11.07-1.64h1.24s.06,0,.11.08c.11.51-.07,1.06.09,1.58h2.9s.05,0,.12-.11ZM50.87,77.12c.05,0,.09.08.12.08H61.64s.06,0,.11-.09V75.54H60.22c-.24,0-.48,0-.71,0s-.55.08-.83-.1V72.57c-.07-.06-.1-.11-.13-.11H55.71s-.06.05-.13.12V74c-.25.16-.49.08-.72.1H54c-.24,0-.48,0-.71,0s-.55-.09-.84.11v1.23c-.29.15-.57.05-.84.09s-.54-.1-.78.08Zm46.27,37.15c-.29,0-.49,0-.69,0s-.47-.08-.72.11v1.22c-.3.16-.58.06-.84.09s-.55-.1-.79.1c-.07.5,0,1-.06,1.5-.47.18-1-.07-1.39.16v1.2s0,.06.11.13H94c.17.3.06.58.1.84s-.1.55.08.79h1.51a2.36,2.36,0,0,0,.07-.83c0-.26-.12-.55.14-.83h1.26Zm-43.21,142c0-1.05,0-2,0-2.94,0,0-.05-.06-.11-.13H51a.21.21,0,0,0-.1,0l-.08.07c0,.21,0,.41,0,.6s.07.47-.11.72H47.85a1.35,1.35,0,0,0-.09.83c0,.27-.1.55.08.81Zm6.2-188.37h7.68s.06,0,.13-.11c0-.23,0-.5,0-.77s.13-.55-.12-.78H60.23s0,0-.1.09Zm38.62,69.35a31.71,31.71,0,0,0,0-4.47H97.25c-.16.23-.06.47-.09.69s.08.47-.11.72H95.84c-.06.07-.1.1-.1.13v2.72a.4.4,0,0,0,0,.11s.06.06.09.1ZM40,74.12c.16-.11.12-.27.12-.43,0-1.26,0-2.52,0-3.78,0-.19.08-.4-.11-.54s-.48,0-.71,0-.54-.08-.83.1c0,.8,0,1.62,0,2.45,0,.18.08.39-.12.54a5.8,5.8,0,0,0-.59,0c-.22,0-.46-.08-.69.09V74c.05,0,.08.1.11.1ZM69.46,84.83s-.09.08-.09.11v2.6a1.92,1.92,0,0,0,0,.24s0,0,.1.1H71c.14-.46,0-.94.12-1.42H74a1.42,1.42,0,0,0,.08-.83c0-.27.1-.55-.08-.8ZM18.53,220.72v1.51s-.05.06-.12.13c-.31,0-.66,0-1,0s-.4-.08-.54.12v2.83s.05.06.11.13c.23,0,.5,0,.77,0s.55.13.78-.11c0-.24,0-.48,0-.71s-.08-.54.1-.84c.21,0,.44,0,.67,0s.47.12.66-.12c0-.95,0-1.89,0-2.84,0,0,0,0-.09-.1ZM64.88,75.47a56.87,56.87,0,0,0,6.13,0V74.19a59.57,59.57,0,0,0-6.13,0ZM102,89.58a33.34,33.34,0,0,0,0,4.47h1.27a30.32,30.32,0,0,0,0-4.47ZM68,222.26c.05,0,.08.09.11.09h2.84s0,0,.1-.09v-1.47c-.05,0-.08-.09-.11-.09H68.07s-.06.05-.11.09ZM61.79,247c.05,0,.07.09.1.09h2.84s.06-.05.1-.09V245.5c0-.05-.07-.1-.1-.1h-2.6a1.92,1.92,0,0,0-.24,0s-.06,0-.1.1Zm-17.11-27.7h2.94s.06-.05.13-.11a6.85,6.85,0,0,0,0-.78c0-.26.14-.55-.11-.77-1,0-1.89,0-2.84,0,0,0-.06,0-.11.09ZM103.34,84.81H102c-.07.07-.11.1-.11.13,0,.91,0,1.81,0,2.72a.25.25,0,0,0,0,.12s0,0,.09.09h1.24c0-.05.09-.08.09-.1Zm-23,12.33c0-.3,0-.5,0-.69s.08-.47-.1-.71H77.75c-.19,0-.4-.08-.54.12s0,.39,0,.59-.08.47.09.69Zm-18.56,184c-.05,0-.07-.09-.1-.09H58.8s0,0-.1.11v1.21c0,.05.08.1.11.1h2.6a1.76,1.76,0,0,0,.23,0s.06-.06.1-.11ZM91,72.47c0,.35,0,.58,0,.82s-.08.54.09.83a7.15,7.15,0,0,0,.8,0c.25,0,.54.14.77-.11,0-.24,0-.48,0-.71s.08-.54-.09-.82Zm0-4.53h1.51s.06,0,.13-.11a6.65,6.65,0,0,0,0-.77c0-.26.13-.55-.11-.78H91.11s0,0-.1.1Zm1.64-6.19V60.23s-.05-.06-.12-.13a6.7,6.7,0,0,0-.77,0c-.26,0-.55-.13-.77.11,0,.47,0,1,0,1.42,0,0,.05.06.09.11Zm4.63,41.59s-.08,0-.08.08v1.51a5,5,0,0,0,1.6,0v-1.58Zm1.55-10.71c0-.57,0-1,0-1.52,0,0,0,0-.11-.12-.23,0-.5,0-.77,0s-.55-.13-.78.11c0,.48,0,1,0,1.42,0,0,0,.06.09.11ZM26.13,268.56s.06.08.09.08h1.5a1.49,1.49,0,0,0,.07-.81c0-.26.09-.54-.08-.8H26.13Zm21.64-46.2c.28,0,.55,0,.81,0s.55.09.81-.08v-1.58c-.28,0-.55,0-.81,0s-.54-.09-.81.08ZM77.21,109.5c0-.31,0-.5,0-.7s.08-.46-.1-.71a6.82,6.82,0,0,0-.78,0c-.26,0-.55-.14-.78.11a5.76,5.76,0,0,0,0,.59c0,.23-.08.47.09.7ZM26.11,211.43H24.83s0,0-.12.11c0,.24,0,.51,0,.77s-.13.55.13.8a11.05,11.05,0,0,0,1.27-.07ZM72.46,9.29c0,.49,0,.88,0,1.27,0,0,.05.06.11.13a6.7,6.7,0,0,0,.77,0c.26,0,.55.13.78-.11V9.39s-.05-.06-.1-.1ZM69.39,23A4.14,4.14,0,0,0,71,23V21.7a1.42,1.42,0,0,0-.81-.08c-.27,0-.55-.08-.81.08ZM47.75,55.61c0,.3,0,.5,0,.69s-.07.47.11.71c.24,0,.51,0,.78,0s.55.13.79-.14c-.07-.4,0-.83-.07-1.26Zm-4.51,165.1c0,.57,0,1,0,1.52,0,0,0,.06.11.13s.42,0,.65,0,.48.12.66-.11v-1.42s0-.06-.09-.11ZM77.19,64.85H75.67s-.06,0-.13.11,0,.42,0,.65-.12.48.11.66h1.42s.06,0,.11-.1ZM89.58,71c.3,0,.5,0,.69,0s.47.07.72-.1c0-.25,0-.52,0-.79s.13-.55-.11-.77c-.2,0-.4,0-.6,0s-.46-.07-.69.09ZM84.81,74.1c0-.34,0-.58,0-.81s.08-.54-.1-.83c-.21,0-.44,0-.67,0s-.48-.12-.66.12c0,.24,0,.47,0,.71a1.52,1.52,0,0,0,.08.81Zm-34,183.77s-.06-.08-.09-.08H49.41c0,.27,0,.53,0,.8s-.09.54.08.8h1.24c0-.05.09-.07.09-.1C50.84,258.82,50.84,258.34,50.84,257.87Zm17.08-97.28h-.81c-.26,0-.54-.08-.83.1a5,5,0,0,0,0,.67c0,.22-.12.47.11.66.24,0,.47,0,.71,0a1.52,1.52,0,0,0,.81-.08ZM72.44,30.88H71.16s-.06,0-.13.11a4.79,4.79,0,0,0,0,.65c0,.22-.12.47.11.66h1.18s.06,0,.11-.09ZM55.61,7.6c.3,0,.5,0,.69,0s.47.07.71-.1c0-.21,0-.44,0-.67s.12-.47-.12-.65a5.8,5.8,0,0,0-.59,0c-.22,0-.46-.07-.69.09Zm38.46,98.81c0-.5,0-.89,0-1.28,0,0,0-.06-.11-.13a4.77,4.77,0,0,0-.65,0c-.22,0-.48-.12-.66.11v1.18s0,.06.1.11ZM66.26,43.32a1.14,1.14,0,0,0-.7-.08c-.22,0-.46-.08-.69.09v1.24a1,1,0,0,0,.7.08c.22,0,.46.08.69-.08Z"/><path d="M13.78,100.25V98.94c.15-.19.36-.11.54-.11h5.54A1.69,1.69,0,0,0,20,98c0-.23,0-.47,0-.69,0,0,.06-.08.09-.09l.11,0h2.73s.07,0,.13-.08V95.83s-.06-.07-.09-.08-.08,0-.11,0H14s-.09,0-.12,0a.35.35,0,0,1-.11-.09V92.73c.27-.16.55-.06.82-.08s.47,0,.7,0a.75.75,0,0,0,.09-.09.2.2,0,0,0,0-.11V88.06s0-.07.06-.1a.47.47,0,0,1,.09-.06.48.48,0,0,1,.12,0H27.59l.11,0s.06,0,.08-.09a.37.37,0,0,0,0-.11c0-.91,0-1.82,0-2.73,0,0,0-.06-.1-.13H24.82c-.19-.25-.09-.5-.11-.72s0-.4,0-.6.35-.11.54-.11h2.52V81.87c.07-.07.09-.11.12-.13l.11,0h2.73s.07,0,.14-.09v-1.2c.07-.07.09-.11.13-.12s.07,0,.11,0h2.73s.06,0,.11.09v1.25c-.27.16-.55.06-.82.08s-.47,0-.73,0a2.4,2.4,0,0,0-.09,1c0,.32,0,.63,0,1v1.06c-.48.1-.91,0-1.33.07a.6.6,0,0,0-.08.08.25.25,0,0,0,0,.12v4.39s0,.06-.1.13H29.35a1.49,1.49,0,0,0-.13.13.48.48,0,0,0,0,.12v5.84c-.43.23-.92,0-1.36.15-.13.21-.05.45-.06.68a5.47,5.47,0,0,0,0,.57,1,1,0,0,1-.09.1.22.22,0,0,1-.11,0H24.86s-.07,0-.13.08v1.5c.25.18.53.06.8.08s.47,0,.71,0h1.53v1.35c-.27.16-.55.06-.82.08s-.47,0-.7,0c0,0-.07.06-.09.09a.2.2,0,0,0,0,.11v4.39s0,.07-.06.1a1.42,1.42,0,0,1-.68.06c-.19,0-.39,0-.57,0-.2.22-.1.47-.11.69a1.19,1.19,0,0,0,.09.73H26c.18.29.08.57.1.84s0,.55,0,.83h-1.3c-.2.14-.11.35-.12.53s0,.55,0,.8c-.29.17-.57.07-.84.09s-.47,0-.71,0-.11.35-.11.54c0,.82,0,1.64,0,2.44-.24.18-.48.08-.71.1a5.8,5.8,0,0,1-.59,0c-.2.15-.11.36-.12.54,0,.35,0,.7,0,1-.07.06-.1.11-.13.11H20v-3c.14-.2.35-.11.54-.12.35,0,.7,0,1,0a1.15,1.15,0,0,0,.11-.14v-1.41s-.06-.07-.1-.09a.2.2,0,0,0-.11,0H18.63c-.06.08-.1.12-.1.15v1.4c-.27.21-.55.08-.81.1s-.54,0-.85,0v1.29c-.07.08-.09.12-.12.13a.48.48,0,0,1-.12,0H12.47c-.23-.18-.09-.44-.11-.66a4.79,4.79,0,0,1,0-.65,1.15,1.15,0,0,1,.14-.11.48.48,0,0,1,.12,0h2.72c.23-.25.09-.54.11-.8s0-.54,0-.82c.48-.1.91,0,1.35-.07.19-.43,0-.92.14-1.39h1.5c.18-.3.08-.58.1-.84s0-.56,0-.83H19.8a.19.19,0,0,0,.1,0s.05-.06.05-.09c0-.43,0-.85,0-1.28h3c.06-.08.1-.11.1-.14v-1.52h1.52s.06,0,.15-.11,0-.41,0-.64.1-.46-.09-.65H23.13s-.08.08-.08.11c0,.43,0,.86,0,1.29h-3c-.06.08-.1.11-.1.14,0,.51,0,1,0,1.52H18.68s-.06,0-.09.06-.06.06-.06.09v1.28h-3s-.06,0-.13.11V108c-1.06.1-6.61.11-7.81,0v-1.51c.25-.17.53-.05.8-.08s.54.07.83-.1V102c.25-.18.49-.09.71-.1s.4,0,.6,0,.11-.35.12-.53c0-.35,0-.7,0-1,.07-.06.1-.11.13-.11h3V103a1.92,1.92,0,0,1,0,.24s-.06,0-.12.12H12.44a1.55,1.55,0,0,0-.08.84c0,.27-.1.55.08.79h2.93a2.36,2.36,0,0,0,.07-.83c0-.26-.11-.55.14-.83h1.29c0-.27,0-.5,0-.73s-.11-.47.11-.67h2.49c.12,0,.24,0,.36,0s.05,0,.1-.09v-1.47s-.07-.1-.1-.1ZM20,92.65h4.62s.06-.06.13-.14V91.08a1.27,1.27,0,0,1,.73-.09h.83c.23,0,.47,0,.71,0s.55.1.81-.1c0-.38,0-.77,0-1.17,0,0,0-.06-.05-.09a46.08,46.08,0,0,0-6.12,0c0,.19,0,.39,0,.58s.06.47-.08.7c-.52.12-1.07-.07-1.58.1v1.6H18.67s-.06,0-.14.11,0,.41,0,.64-.09.46.09.65h1.25c0-.06.08-.09.08-.12C20,93.51,20,93.08,20,92.65Zm4.75,1.42v1.67c.26,0,.49,0,.71,0s.47.08.69-.08V94.17c-.05,0-.08-.09-.11-.09Z"/><path d="M30.88,148.23h1.4c.06-.54,0-1,0-1.55.24-.22.53-.09.79-.1a1.68,1.68,0,0,1,.85.07v1.51c.47.18,1,0,1.42.13v1.35c-.44.05-.87,0-1.35,0-.16.51,0,1.07-.1,1.63-.51.07-1,0-1.54,0-.2.43,0,.91-.14,1.39H31c-.07.07-.11.09-.12.13s0,.08,0,.12v2.73c-.14.2-.35.11-.54.12h-1a1.81,1.81,0,0,0-.09.85c0,.23,0,.47,0,.72-.44.23-.93,0-1.38.15a2.9,2.9,0,0,0,0,.93c0,.35,0,.71,0,1.06v.93c-.26.21-.55.08-.81.11s-.54-.07-.84.09v1.23c-.26.18-.5.09-.72.1s-.4,0-.6,0c-.24.23-.09.52-.11.78s0,.54,0,.77c-.08.06-.11.11-.14.11h-4.5c-.23-.25-.08-.54-.11-.8s.06-.55-.08-.85H18.61c-.18-.48,0-1-.14-1.44H17c-.17-.29-.07-.57-.09-.84s0-.47,0-.72c-.44-.24-.93,0-1.36-.15,0,0-.07-.07-.07-.1v-7.37c.45-.2.94,0,1.42-.15v-1.49c.29-.2.57-.08.83-.1s.48,0,.71,0,.12-.35.13-.54v-2.5a10,10,0,0,1,1.33-.05c.23-.43,0-.92.16-1.39.49-.09,1,0,1.51-.05.19-.25,0-.53.09-.79s-.07-.55.09-.85h1.22c.19-.25.09-.49.11-.72a5.8,5.8,0,0,0,0-.59c.23-.24.52-.09.79-.11a7.87,7.87,0,0,1,.85,0c.06-.55,0-1.05,0-1.56,0,0,.05-.06.09-.08a.18.18,0,0,1,.1,0h2.74s.06,0,.13-.09v-2.87c.07-.07.09-.1.13-.12h2.84s.06.05.13.11v1.45c.25.17.5.08.72.1h.59c.22.2.09.45.11.67a5.68,5.68,0,0,1,0,.72c-.47.08-.9,0-1.33.06-.2.24-.06.52-.1.79s.07.54-.08.84H29.28c-.12.46,0,.89-.09,1.35-.11.16-.32.08-.51.08s-.54,0-.79,0a1.55,1.55,0,0,0-.09.84c0,.24,0,.47,0,.74a2.75,2.75,0,0,1-1,.08h-2a2.77,2.77,0,0,0-.06,1c0,.36,0,.71,0,1.07v.93c-.27.21-.55.08-.82.1s-.54,0-.84,0v1.31c-.25.19-.49.09-.72.11a5.8,5.8,0,0,1-.59,0c-.25.23-.09.52-.12.79s0,.54,0,.85c-.55.06-1.06,0-1.56,0l-.08.08a.23.23,0,0,0,0,.11c0,.91,0,1.82,0,2.73,0,0,0,.07-.08.14H18.66c-.07.07-.1.09-.12.13a.37.37,0,0,0,0,.11v4.16s0,0,.11.13h1.22c.17.29.07.57.09.84s0,.47,0,.7a.73.73,0,0,0,.08.09.2.2,0,0,0,.11,0h2.79a.77.77,0,0,0,.1-.14.48.48,0,0,0,0-.12v-2.71c.26-.23.55-.08.81-.12s.54.07.84-.08v-1.51c.48-.17,1,0,1.44-.12v-1.28a1.59,1.59,0,0,1,.85-.09c.23,0,.47,0,.73,0a2.56,2.56,0,0,0,.08-1c0-.31,0-.63,0-.95v-1.06c.48-.09.91,0,1.34-.07.19-.24.06-.52.09-.79s-.07-.54.09-.84h1.46c.19-.25.09-.49.11-.72S30.88,148.55,30.88,148.23Z"/><path d="M15.44,131.13v1.55a.34.34,0,0,0,.09.08.17.17,0,0,0,.1,0h2.81a1.83,1.83,0,0,0,.09-.85c0-.24,0-.47,0-.72.44-.23.93,0,1.41-.16v-1.23l.12-.12h2.85s.06,0,.13-.1v-1.45c.29-.19.57-.08.84-.1s.47,0,.73,0c.23-.42,0-.91.16-1.39H26c.26-.28.11-.57.14-.83a2.31,2.31,0,0,1,.08-.85h1.5c.19-.47,0-1,.14-1.42h1.27a.47.47,0,0,1,.1.11.4.4,0,0,1,0,.11V128c-.43.23-.92,0-1.4.16v1.46c-.28.25-.56.11-.83.13s-.54,0-.84,0V131c-.07.07-.1.11-.13.12s-.07,0-.11,0H23.18s-.06,0-.13.1v2.87c-.25.18-.5.09-.72.11h-.59c-.25.23-.09.52-.12.79s0,.54,0,.85c-.55.06-1.06,0-1.58,0-.21.43,0,.92-.15,1.39H18.65c-.22.29-.09.58-.12.84s.07.54-.09.84H17c-.17.25-.08.49-.1.72s0,.4,0,.61c-.43.24-.92,0-1.36.15,0,0-.06.06-.07.09a.48.48,0,0,0,0,.12v2.71c-.25.23-.54.08-.8.11s-.55-.06-.83.08v1.5c.24.18.53.06.79.09s.54-.08.82.08v4.35c-.27.16-.55.06-.82.08s-.47,0-.7,0l-.09.09a.2.2,0,0,0,0,.11v2.79c-.08.06-.11.1-.14.1H12.45c-.22-.44,0-.93-.16-1.41h-1.5a30.09,30.09,0,0,1,0-4.76h1.46c.07-.07.12-.1.12-.13a1.92,1.92,0,0,0,0-.24v-7.12c-.23-.24-.52-.09-.78-.11a6.7,6.7,0,0,0-.77,0c-.06-.07-.11-.1-.11-.13v-4.5c.25-.23.53-.09.8-.11a7.38,7.38,0,0,1,.82,0c.1-.48,0-.91.07-1.35.43-.18.91,0,1.39-.13v-1.5c.3-.19.58-.09.84-.1S15.16,131.13,15.44,131.13Zm-3.09,6.06s.06.08.09.08H13.7c.15-.21.07-.45.07-.68s.08-.46-.08-.68H12.35Z"/><path d="M55.59,129.71V131c-.15.2-.36.12-.54.12H50.93a1.81,1.81,0,0,0-.09.85c0,.23,0,.47,0,.72-.44.23-.93,0-1.36.15a1.47,1.47,0,0,0-.06.69,5.32,5.32,0,0,0,0,.56c0,.05-.07.09-.1.1a.22.22,0,0,1-.11,0H43.38s-.06.05-.12.09v1.49c.25.18.53.06.8.08s.47,0,.71,0H46.3v1.33s-.07.1-.1.1H41.67c-.23-.43,0-.92-.15-1.36-.21-.13-.45,0-.68-.06a5.66,5.66,0,0,0-.58,0c-.22-.25-.08-.53-.11-.8a2.26,2.26,0,0,0-.08-.84h-1.5c-.19-.48,0-1-.14-1.44H37.18l-.12-.13a.48.48,0,0,1,0-.12V128h1.3c.2.15.12.36.12.55,0,.82,0,1.64,0,2.43.07.06.1.11.13.11h4.5c.22-.19.09-.44.11-.66s0-.46,0-.66.11-.1.14-.1Z"/><path d="M78.63,46.32V44.78c.15-.19.36-.11.55-.12h2.43c.06-.08.11-.11.11-.14V43.35a.41.41,0,0,0-.1-.09.2.2,0,0,0-.11,0H78.78s-.06,0-.12-.08V41.66a33.62,33.62,0,0,1,4.72,0v1.47c.07.06.1.11.13.11h1.21a2.34,2.34,0,0,1,.09,1c0,.32,0,.64,0,1v1.08c.55.08,1.06,0,1.56.05,0,0,.07,0,.08.09a.2.2,0,0,1,0,.11c0,1.94,0,3.88,0,5.82,0,0,0,.06.09.13h1.21c.2.25.1.49.11.72a5.81,5.81,0,0,1,0,.59c.14.2.35.12.54.12h1c.06.07.11.1.11.13v1.41c-.25.24-.53.09-.8.11a7.68,7.68,0,0,1-.84,0v1.32a28.18,28.18,0,0,1-4.53,0V46.46c-.07-.08-.1-.13-.13-.13H78.63Z"/><path d="M35.4,77.21v1.3c-.15.2-.36.12-.55.12h-7a1.59,1.59,0,0,0-.09.85c0,.23,0,.47,0,.73a2.39,2.39,0,0,1-1,.08c-.31,0-.63,0-1,0H24.75c-.09.47,0,.9-.07,1.33-.24.19-.52.07-.79.09s-.53,0-.84,0v1.55c-.25.19-.49.09-.72.11a5.81,5.81,0,0,1-.59,0c-.23.19-.09.44-.12.67s0,.46,0,.65-.11.11-.14.11H17c-.21-.21-.1-.46-.11-.68A1.26,1.26,0,0,1,17,83.4h1.46c.22-.28.09-.57.12-.83s-.07-.55.09-.84h1.19c.09-.08.14-.1.14-.13a1.93,1.93,0,0,0,0-.24V78.75a.3.3,0,0,1,.08-.08.21.21,0,0,1,.1,0H23V77.35c.27-.26.56-.11.82-.14a2.29,2.29,0,0,0,.85-.08V75.6a3.92,3.92,0,0,1,1.07,0h2v1.55c.07.06.1.11.13.11H35.4Z"/><path d="M46.32,148.24H41.58v-1.56c-.25-.18-.49-.08-.72-.1a5.81,5.81,0,0,0-.59,0c-.2-.14-.12-.35-.12-.54v-3.85c.06-.07.09-.11.12-.12h9a.54.54,0,0,0,.13-.1v-1.44c.25-.2.49-.11.72-.12a1.11,1.11,0,0,1,.72.1V142c.29.18.57.08.83.1h.83c0,.24,0,.48,0,.71s.07.47-.1.72H50.93c-.17.29-.06.57-.09.83s.08.55-.1.83H45.21c-.19,0-.4-.07-.55.12v1.18s.05.06.12.12h1c.18,0,.39-.08.53.12Z"/><path d="M12.35,125v3a1.55,1.55,0,0,1-.84.09c-.24,0-.47,0-.76,0-.15.53,0,1.08-.09,1.63-.44.08-.87,0-1.29.06a.34.34,0,0,0-.09.08.37.37,0,0,0,0,.11c0,1.94,0,3.87,0,5.81,0,0,0,.06-.07.13-.48.07-1,0-1.51,0-.19.43,0,.91-.13,1.37H6.27a54.35,54.35,0,0,1,0-6.14H7.48c.07-.07.1-.09.12-.13a.4.4,0,0,0,0-.11v-5.69a.48.48,0,0,1,0-.12l.11-.13h2.87c.18-.25.09-.49.11-.72s0-.39,0-.59c.15-.19.36-.11.54-.12.35,0,.7,0,1,0,.17-.3.07-.58.09-.84s0-.48,0-.7c.2-.22.45-.1.68-.12s.46,0,.71,0c.08-.48,0-.91.06-1.33.24-.2.52-.07.79-.09s.53,0,.82,0v3c-.24.19-.52.06-.79.09s-.54-.07-.84.09v1.23c-.25.18-.49.09-.71.1S12.67,125,12.35,125Z"/><path d="M35.4,115.69H34.09c-.19-.15-.11-.36-.12-.54v-2.52h-1.6a3.84,3.84,0,0,1-.06-1.06c0-.32,0-.64,0-.95v-1.08H27.88c-.18.24-.06.53-.08.79s0,.48,0,.71v1.54H26.24s-.09-.07-.1-.1,0-.08,0-.12v-4.27h6.05s.06,0,.13-.11v-2.86c.07-.06.09-.11.12-.11a1,1,0,0,1,.24,0H35.4v4.38s.05.06.11.14h1c.18,0,.39-.08.54.12,0,.23,0,.47,0,.71s.08.54-.1.83H35.51c-.06.07-.11.1-.11.13Z"/><path d="M29.22,166.65v-2.91c.51-.16,1.07,0,1.64-.1.06-.51,0-1,0-1.52.19-.2.44-.07.67-.1a1.7,1.7,0,0,0,.72-.09V159c.29-.21.57-.09.84-.11s.54,0,.84,0v-1.31c.07-.07.1-.11.13-.11h2.84c.24-.24.09-.53.11-.79a6.7,6.7,0,0,0,0-.77c.09-.06.12-.1.15-.1h4.32c.11.55,0,1.08.07,1.66H40.26c-.19.25-.09.49-.11.71s0,.4,0,.6-.36.11-.55.11H37.09c-.06.55,0,1,0,1.56-.24.21-.53.07-.79.1a2.29,2.29,0,0,0-.85.08v1.22c-.25.21-.49.09-.72.13s-.46-.07-.72.1v1.46a1.65,1.65,0,0,1-.84.1h-.7c-.22.2-.1.45-.12.67s0,.46,0,.71c-.48.09-.91,0-1.33.07-.2.24-.07.52-.09.79s0,.53,0,.81H29.3S29.25,166.68,29.22,166.65Z"/><path d="M10.69,121.85h-3s-.09-.08-.09-.11c0-3.48,0-6.95,0-10.43,0,0,0-.06.09-.11H9.18c.16.23.06.47.08.69s0,.4,0,.62c.42.23.91,0,1.35.14,0,0,.07.06.07.09Z"/><path d="M67.94,134.22h-6c-.2.15-.11.36-.12.54,0,.35,0,.7,0,1-.08.07-.11.11-.14.11H55.7c-.23-.24-.08-.53-.11-.79s0-.54,0-.8a2.78,2.78,0,0,1,1-.06c.36,0,.72,0,1.07,0h1c.19-.46,0-.94.13-1.4h9.12c.17.22.07.46.09.69S67.94,134,67.94,134.22Z"/><path d="M47.75,162v3c-.14.2-.35.12-.54.12-.82,0-1.65,0-2.45,0-.18.3-.08.58-.1.84s0,.47,0,.71c-.19.22-.44.09-.66.11a5.94,5.94,0,0,1-.74,0v1.28c-.27.26-.56.12-.82.14s-.54,0-.77,0c-.06-.09-.09-.12-.09-.15,0-.95,0-1.89,0-2.82.26-.22.55-.08.81-.11s.55.06.85-.09v-1.27c.47-.17,1,0,1.43-.12v-1.5c.07-.06.1-.11.13-.11a1.76,1.76,0,0,1,.23,0Z"/><path d="M35.4,105c0-1,0-2,0-3,0,0,0-.05-.1-.12H34.07c-.18-.29-.08-.57-.1-.84s0-.47,0-.74c.43-.22.91,0,1.35-.13,0,0,.07-.06.07-.09,0-1,0-1.89,0-2.84l.08-.08a.21.21,0,0,1,.1,0h2.81a1.54,1.54,0,0,1,.09.84c0,.27,0,.55,0,.82h-1.3s-.06,0-.13.11V105Z"/><path d="M47.75,162V160.7l.08-.07a.21.21,0,0,1,.11,0H52.4c.17.26.08.5.1.72s0,.4,0,.62a2.39,2.39,0,0,0,1,.08c.32,0,.63,0,.95,0h1c.06.08.1.11.1.14V165c-.26.22-.54.1-.8.11a1.58,1.58,0,0,1-.85-.08V163.8c-.29-.21-.57-.1-.83-.12s-.48,0-.72,0h-.83a1.34,1.34,0,0,1-.72-.1v-1.44c-.07-.07-.09-.12-.13-.12a1.76,1.76,0,0,0-.23,0Z"/><path d="M63.19,19.93h-1.4V18.68c-.07-.07-.09-.11-.12-.13l-.11,0h-4.4s-.06,0-.12-.08V15.53c.25-.18.53-.08.8-.08a1.47,1.47,0,0,1,.84.09v1.21c.07.07.1.11.13.11H60c.24-.44,0-.93.15-1.36,0,0,.07-.07.1-.07h1.43c.2.45,0,.94.15,1.42h1.23c.08.07.11.09.13.13a.4.4,0,0,1,0,.11Z"/><path d="M20,114.27v1.3c.14.2.35.11.54.12.35,0,.7,0,1,0,.06.08.11.11.11.14v2.89c-.53.15-1.08,0-1.63.09-.08.52,0,1,0,1.53,0,0-.06.07-.09.08a.2.2,0,0,1-.11,0H17s-.06,0-.12-.08v-1.49c.25-.18.53-.06.8-.09s.54.07.84-.09v-4.32c.25-.18.49-.09.71-.1S19.72,114.27,20,114.27Z"/><path d="M50.84,157.5h4.72c.07-.55,0-1.06,0-1.56.2-.2.44-.08.67-.1s.45,0,.72,0v1.52a1.29,1.29,0,0,0,.12.12l.11,0H60c.06.07.11.1.11.13v1.3H51c-.06-.07-.11-.1-.11-.13Z"/><path d="M66.26,123.53v1.34c-.06,0-.09.08-.12.08h-9c-.23-.19-.09-.44-.11-.67s0-.46,0-.65.11-.11.14-.11Z"/><path d="M38.49,94.07c-.44,0-.87,0-1.3,0,0,0-.06,0-.11-.09V88l.08-.08a.2.2,0,0,1,.11,0H40a1.15,1.15,0,0,1,.11.14v1.47c-.53.13-1.08,0-1.58.07,0,.06-.08.09-.08.13C38.48,91.16,38.49,92.62,38.49,94.07Z"/><path d="M30.88,120.44h3c.23.43,0,.92.15,1.4h1.22c.26.28.12.56.14.83s0,.53,0,.76c-.09.06-.13.1-.16.1H32.42c-.21-.27-.08-.55-.11-.81s.07-.55-.09-.85H31c-.18-.25-.09-.49-.1-.72S30.88,120.68,30.88,120.44Z"/><path d="M55.59,140.4v-1.3s0,0,.11-.13h6.07c0,.43,0,.87,0,1.3,0,0,0,.06-.11.13Z"/><path d="M18.45,126.6H17a33.65,33.65,0,0,1,0-4.71h1.5A33.65,33.65,0,0,1,18.45,126.6Z"/><path d="M57,191.47H52.63s-.06-.05-.11-.09v-1.47s.08-.1.11-.1H57Z"/><path d="M49.41,155.84H47.88s-.06-.05-.12-.11v-1.24c-.47-.17-.95,0-1.41-.12v-1.52a.73.73,0,0,1,.08-.09h2.71a.83.83,0,0,1,.21.06s.06.06.06.09Z"/><path d="M69.35.1V3c-.22.16-.46.07-.69.08s-.46,0-.71,0V1.53c-.29-.19-.57-.08-.84-.1s-.47,0-.71,0c-.24-.19-.09-.44-.11-.66a4.79,4.79,0,0,1,0-.65c.07-.07.1-.12.13-.12h2.83S69.3.05,69.35.1Z"/><path d="M16.75,282.46H15.56c-.19-.14-.11-.36-.12-.54v-3.87c.25-.18.49-.08.71-.1a5.8,5.8,0,0,1,.59,0c.2.14.12.35.12.53,0,1.19,0,2.37,0,3.56C16.87,282.19,16.91,282.35,16.75,282.46Z"/><path d="M7.6,247.06v4.36s0,.07-.06.1-.06,0-.09,0H6.28a24.87,24.87,0,0,1-.06-4.44s.06-.07.09-.07Z"/><path d="M67.94,214.52h2.94s.06,0,.12.08v1.49l-.07.07a.2.2,0,0,1-.11,0H68.05c-.06-.08-.1-.1-.1-.13C67.94,215.54,67.94,215,67.94,214.52Z"/><path d="M32.31,134.22h1.52s.06.05.14.11v3H32.45s-.06,0-.14-.11Z"/><path d="M40.15,100.25h3c.06.08.1.11.1.14,0,.51,0,1,0,1.52h-3c-.06-.08-.1-.11-.1-.14Z"/><path d="M67.94,121.85H66.38s-.09-.08-.1-.11a1.76,1.76,0,0,1,0-.23V118.9c.22-.25.51-.09.77-.11a6.85,6.85,0,0,1,.78,0c.06.07.1.09.11.13a1.76,1.76,0,0,1,0,.23Z"/><path d="M30.88,120.44H29.36s-.06,0-.14-.1v-3h1.52s.06,0,.14.1Z"/><path d="M50.84,188.39v-1.53s0-.06.09-.11h2.9c.2.23.07.51.09.77s0,.54,0,.76c-.09.06-.12.1-.15.1Z"/><path d="M52.5,142.06v-1.52s0-.06.11-.14h3v1.52s-.05.06-.11.14Z"/><path d="M71,247.06v3c-.27.16-.55.06-.81.08h-.71l-.09-.08a.35.35,0,0,1,0-.11v-2.8a1.52,1.52,0,0,1,.83-.09C70.44,247.05,70.68,247.06,71,247.06Z"/><path d="M29.22,117.35H27.79c0-1,0-2,0-3,0,0,.05,0,.09-.1h1.23c.05,0,.1.07.1.1Z"/><path d="M74.12,242.31V241s0-.06.09-.11h2.9c.19.19.07.44.09.66s0,.46,0,.64-.12.1-.15.1Z"/><path d="M58.68,100.25v-1.4h3c.19.19.07.43.09.66s0,.45,0,.64-.12.1-.15.1Z"/><path d="M15.44,131.13v-2.94s0-.06.08-.12h1.26s0,0,.07.08a.36.36,0,0,1,0,.11V131c-.08.06-.11.11-.14.11Z"/><path d="M97.16,225.44h-1.4v-3c.19-.18.44-.07.66-.09s.46,0,.64,0,.1.11.1.15Z"/><path d="M24.69,121.87v1.58c-.27.16-.55.06-.82.08s-.47,0-.71,0c-.24-.22-.09-.51-.11-.77s0-.54,0-.79c.29-.18.57-.08.84-.1S24.35,121.87,24.69,121.87Z"/><path d="M78.65,240.89v-1.57s.08-.09.11-.09h1.42c.24.23.09.52.11.78s0,.54,0,.77c-.07.06-.1.11-.13.11Z"/><path d="M74.12,242.31V244H72.46v-1.51s0-.06.06-.09.06-.06.09-.06Z"/><path d="M46.3,192.9v1.57s-.07.09-.1.09H44.78c-.24-.22-.09-.51-.11-.77a6.85,6.85,0,0,1,0-.78c.07-.06.1-.11.13-.11Z"/><path d="M38.5,210v-1.57c.28-.17.55-.07.82-.09H40c.24.23.09.52.11.77a7.15,7.15,0,0,1,0,.8c-.29.17-.57.07-.84.09S38.84,210,38.5,210Z"/><path d="M12.35,259.4H10.79s-.1-.08-.1-.11v-1.42c.23-.24.52-.09.78-.11a6.68,6.68,0,0,1,.77,0c.06.07.11.1.11.13Z"/><path d="M18.53,273.19v1.53s-.05.06-.09.11H17c-.2-.23-.07-.51-.09-.77s0-.53,0-.76c.08-.06.11-.1.14-.1Z"/><path d="M27.77,165.1v1.57c-.05.05-.07.09-.1.09H26.25c-.24-.23-.09-.52-.11-.78a6.7,6.7,0,0,1,0-.77c.07-.06.1-.11.13-.11Z"/><path d="M38.49,282.46H40s.06,0,.11.09V284c-.23.2-.51.07-.77.09s-.53,0-.76,0c-.06-.08-.1-.11-.1-.14C38.48,283.47,38.49,283,38.49,282.46Z"/><path d="M34,137.31h1.29s.06.05.11.09v1.48c-.19.18-.43.07-.65.09s-.46,0-.64,0-.11-.11-.11-.14Z"/><path d="M75.54,3.07H74.2c-.16-.27-.06-.55-.08-.82s0-.47,0-.7c.18-.24.44-.1.66-.12s.46,0,.67,0c.17.29.07.56.09.83S75.54,2.73,75.54,3.07Z"/><path d="M41.57,66.28v-1.4h1.57c.19.19.07.43.09.65s0,.46,0,.64-.12.11-.15.11Z"/><path d="M38.49,98.82h1.56c.06.09.1.12.1.15v1.28H38.59c-.06-.09-.1-.12-.1-.15C38.48,99.68,38.49,99.25,38.49,98.82Z"/><path d="M49.41,294.79H47.8c-.11-.43,0-.86-.07-1.26.24-.27.53-.11.79-.14s.54,0,.79,0c.17.24.08.48.1.71S49.41,294.49,49.41,294.79Z"/><path d="M37.06,128c-.51,0-1,0-1.52,0,0,0-.06,0-.12-.08v-1.25c.23-.2.51-.07.77-.09s.53,0,.76,0c.06.08.11.11.11.14Z"/><path d="M26.13,118.78v1.52s0,.06-.08.12H24.8c-.2-.23-.07-.51-.09-.77s0-.53,0-.76c.08-.06.11-.11.13-.11Z"/><path d="M50.84,157.5H49.56s-.06,0-.15-.1v-1.56h1.28s.06,0,.15.1Z"/><path d="M26.13,118.78V117.5s0-.06.1-.15h1.56c0,.43,0,.86,0,1.28,0,0,0,.06-.1.15Z"/><path d="M41.57,293.39h-1.4v-1.57c.22-.17.46-.09.69-.09a1.07,1.07,0,0,1,.71.1Z"/><path d="M57,21.62V23H55.68c-.18-.19-.07-.43-.09-.65s0-.46,0-.65.11-.1.14-.1Z"/><path d="M74.14,208.34V207s.08-.09.11-.09h1.18c.23.18.09.43.11.65s0,.46,0,.66-.09.11-.12.11Z"/><path d="M72.46,244c0,.43,0,.86,0,1.29,0,0,0,.06-.08.11H71.12c-.18-.18-.07-.43-.08-.65s0-.45,0-.64.11-.1.14-.1Z"/><path d="M44.66,211.43H43.38s-.06-.05-.12-.09v-1.25c.19-.18.43-.06.65-.08s.46,0,.64,0,.11.11.11.14Z"/><path d="M78.61,3.09V4.42c-.22.16-.46.07-.69.09a5.8,5.8,0,0,1-.59,0c-.24-.18-.09-.43-.12-.65s0-.46,0-.67c.24-.17.48-.08.71-.1Z"/><path d="M32.31,134.22H31s-.06,0-.11-.09v-1.24c.19-.19.43-.07.65-.09s.45,0,.64,0,.11.11.11.14Z"/><path d="M10.67,142.06v1.33c-.05,0-.08.09-.11.09H9.38c-.23-.19-.09-.44-.11-.66s0-.46,0-.65.09-.12.12-.12Z"/><path d="M38.49,282.46H37.2s-.06,0-.11-.09v-1.24c.18-.19.43-.07.65-.09s.45,0,.64,0,.1.11.1.14C38.49,281.6,38.49,282,38.49,282.46Z"/><path d="M78.63,46.32v1.43h-1.3c-.24-.18-.09-.44-.12-.65s0-.47,0-.67c.25-.18.49-.09.71-.1S78.4,46.32,78.63,46.32Z"/><path d="M50.84,188.39v1.28s-.05.06-.09.12H49.5c-.18-.19-.06-.44-.08-.66s0-.45,0-.64.11-.1.14-.1Z"/><path d="M41.55,287.21v1.33s-.07.09-.1.09H40.27c-.23-.19-.09-.44-.12-.66s0-.46,0-.65.1-.12.12-.12Z"/><path d="M64.83,109.52v1.56s-.08.09-.1.09H61.89c-.25-.23-.1-.52-.12-.78s0-.54,0-.77c.07-.06.1-.11.13-.11Z"/><path d="M40.13,114.27v1.33c-.05,0-.08.09-.11.09H38.6c-.22-.18-.09-.44-.11-.66s0-.46,0-.65.09-.11.12-.11Z"/><path d="M67.94,146.57c-1.54,0-3.08,0-4.62,0,0,0-.06,0-.11-.09v-1.25c.27-.16.55-.06.82-.08s.47,0,.76,0c.17-.51,0-1.07.1-1.58.23-.15.46-.07.69-.08s.39,0,.6,0c.23-.44,0-.93.15-1.36,0,0,.07-.07.1-.07h1.43c.2.45,0,.94.14,1.41h1.25c.21.29.1.57.11.84s0,.53,0,.84H68.05c-.18.25-.09.49-.1.71S67.94,146.34,67.94,146.57Z"/><path d="M61.77,148.24H53.93V146.7c.14-.2.35-.12.53-.12H60c.18-.24.08-.48.1-.7s0-.4,0-.6c.23-.25.52-.09.78-.12s.54,0,.77,0c.06.07.11.1.11.13C61.77,146.26,61.77,147.25,61.77,148.24Z"/><path d="M89.56,89.56V91h-3s-.06,0-.11-.09V89.66c.05,0,.08-.1.11-.1Z"/><path d="M91,89.56H89.56V88c.18-.24.44-.09.65-.12s.47,0,.68,0a1.52,1.52,0,0,1,.09.83C91,89,91,89.28,91,89.56Z"/><path d="M91,151.33h1.56c.06.08.1.11.1.14v1.28H91.09c-.06-.09-.1-.12-.1-.15C91,152.18,91,151.75,91,151.33Z"/></g></g></svg>