<svg xmlns="http://www.w3.org/2000/svg" viewBox="0 0 143.97 143.97"><title>Recurso 41MANDALA</title><g id="Capa_2" data-name="Capa 2"><g id="Capa_1-2" data-name="Capa 1"><path d="M38.46,132.28c15.2-.3,27.06-8,32.31-18.61a3.1,3.1,0,0,0,.08-2.36c-4.34-12.39-8.24-22.37-10.91-33-.49-2.35-1-4.75-.39-2.89,4.22,11.09,14.16,21.09,27.36,38.08,1,1.33,1.6,3.37,1.11,4.46C82.05,131.69,64.12,141,41,136.8,37.13,136,35.1,132.22,38.46,132.28Z"/><path d="M73.1,141c13-7.87,19.42-20.48,18.68-32.28a3.15,3.15,0,0,0-1.11-2.08c-10-8.56-18.33-15.26-25.95-23.12-1.6-1.79-3.27-3.59-1.79-2.31,9.21,7.5,22.81,11.19,42.74,19.3,1.57.64,3.07,2.13,3.19,3.31,1.7,14.87-9.17,31.93-31.33,39.84C73.8,144.84,70.16,142.59,73.1,141Z"/><path d="M107.44,131.17c7.34-13.32,6.59-27.44,0-37.29a3.11,3.11,0,0,0-2-1.25c-12.91-2.44-23.5-4-34-7-2.28-.75-4.63-1.47-2.7-1.1,11.71,1.89,25.34-1.72,46.66-4.66,1.67-.24,3.72.31,4.41,1.27,8.91,12,8,32.23-7.22,50.17C110,134.17,105.71,134,107.44,131.17Z"/><path d="M132.28,105.52c-.3-15.21-8-27.07-18.61-32.32a3.1,3.1,0,0,0-2.36-.08c-12.39,4.34-22.37,8.24-33,10.91-2.35.49-4.75,1-2.89.39,11.09-4.22,21.09-14.16,38.08-27.36,1.33-1,3.37-1.59,4.46-1.11,13.72,6,23.06,23.91,18.83,47.06C136,106.84,132.22,108.87,132.28,105.52Z"/><path d="M141,70.88c-7.87-13-20.48-19.43-32.28-18.69a3.19,3.19,0,0,0-2.08,1.11c-8.56,10-15.26,18.33-23.12,26-1.79,1.6-3.59,3.27-2.31,1.79,7.5-9.21,11.19-22.81,19.3-42.74.64-1.57,2.13-3.07,3.31-3.19,14.87-1.69,31.93,9.17,39.84,31.33C144.84,70.18,142.59,73.81,141,70.88Z"/><path d="M131.17,36.53c-13.32-7.34-27.44-6.59-37.29,0a3.11,3.11,0,0,0-1.25,2c-2.44,12.91-4,23.5-7,34-.75,2.27-1.47,4.62-1.1,2.69,1.89-11.71-1.72-25.34-4.66-46.66-.24-1.67.31-3.72,1.27-4.41,12-8.9,32.23-8,50.17,7.22C134.17,34,134,38.27,131.17,36.53Z"/><path d="M105.52,11.69c-15.21.31-27.07,8-32.32,18.61a3.1,3.1,0,0,0-.08,2.36C77.46,45.05,81.36,55,84,65.65c.49,2.35,1,4.75.39,2.89C80.2,57.45,70.26,47.45,57.06,30.46,56,29.13,55.47,27.09,56,26,61.92,12.28,79.86,2.94,103,7.17,106.84,8,108.87,11.75,105.52,11.69Z"/><path d="M70.88,3c-13,7.87-19.43,20.48-18.69,32.28a3.19,3.19,0,0,0,1.11,2.08c10,8.56,18.33,15.26,26,23.12,1.6,1.79,3.27,3.59,1.79,2.31-9.21-7.5-22.81-11.19-42.74-19.3-1.57-.63-3.07-2.13-3.19-3.31C33.42,25.31,44.28,8.25,66.44.35,70.18-.87,73.81,1.38,70.88,3Z"/><path d="M36.53,12.8c-7.34,13.32-6.59,27.45,0,37.29a3.11,3.11,0,0,0,2,1.25c12.91,2.44,23.5,4,34,7,2.27.75,4.62,1.47,2.69,1.1-11.71-1.89-25.34,1.72-46.66,4.66-1.67.24-3.72-.31-4.41-1.27-8.9-12-8-32.23,7.22-50.17C34,9.8,38.27,9.93,36.53,12.8Z"/><path d="M11.69,38.46c.31,15.2,8,27.06,18.61,32.31a3.1,3.1,0,0,0,2.36.08c12.39-4.34,22.37-8.24,33-10.91,2.35-.49,4.75-1,2.89-.39C57.45,63.77,47.45,73.71,30.46,86.91,29.13,88,27.09,88.51,26,88,12.28,82.05,2.94,64.12,7.17,41,8,37.13,11.75,35.1,11.69,38.46Z"/><path d="M3,73.1c7.87,13,20.48,19.42,32.28,18.68a3.15,3.15,0,0,0,2.08-1.11c8.56-10,15.26-18.33,23.12-25.95,1.79-1.6,3.59-3.27,2.31-1.79-7.5,9.21-11.19,22.81-19.3,42.74-.63,1.57-2.13,3.07-3.31,3.19C25.31,110.56,8.25,99.69.35,77.53-.87,73.8,1.38,70.16,3,73.1Z"/><path d="M12.8,107.44c13.32,7.34,27.45,6.59,37.29,0a3.11,3.11,0,0,0,1.25-2c2.44-12.91,4-23.5,7-34,.75-2.28,1.47-4.63,1.1-2.7-1.89,11.71,1.72,25.34,4.66,46.66.24,1.67-.31,3.72-1.27,4.41-12,8.91-32.23,8-50.17-7.22C9.8,110,9.93,105.71,12.8,107.44Z"/></g></g></svg>