<svg xmlns="http://www.w3.org/2000/svg" viewBox="0 0 324.26 184.34"><title>Recurso 40GRAPHS</title><g id="Capa_2" data-name="Capa 2"><g id="Capa_1-2" data-name="Capa 1"><path d="M312.51,4.89V152c-.1.09-.16.19-.22.19H48c-.42-.56-.21-1.22-.21-1.84q0-44.85,0-89.71V5.13C47.92,5,48,4.9,48,4.9ZM284.6,149.59c.16-.1.34-.33.54-.34a12.2,12.2,0,0,1,1.71,0c.12,0,.23.18.35.27.08.38-.18.81.2,1.14.65-.29,0-1.08.53-1.41h4.37l.51.46.47-.43h2s.11.11.17.16c.23.36-.35,1,.41,1.22,0-.26.07-.48.1-.7s.07-.45.1-.68h4.62l.36,1,.5-1.05c.67,0,1.32,0,2,0,.06,0,.12.1.18.15l.24,1.3h.2l.23-1.32c.08-.06.15-.14.21-.14,1.38,0,2.76,0,4.15,0,.13,0,.26.13.39.2.09.25-.13.65.35.69l.34-.84,1.13-.13c.07-.1.15-.16.15-.22q0-7.44,0-14.87a.45.45,0,0,0,0-.23c0-.07-.11-.12-.16-.17-.87-.12-1.75.05-2.54-.1l-.68-.69.76-.72a10.5,10.5,0,0,0,1.26,0c.46,0,1,.21,1.4-.23,0-5.34,0-10.7,0-16,0-.07-.09-.13-.2-.27h-2.47l-.72-.76.71-.71c.87,0,1.75,0,2.65-.06V97.55c-1.07,0-2.11,0-3.14,0-.06,0-.12-.11-.21-.2l.05-.75c.59,0,1.14,0,1.69,0s1.13.24,1.64-.22V90l-.48-.5v-1l.49-.52V80a.56.56,0,0,0,0-.23,1,1,0,0,0-.17-.18c-.87-.12-1.75,0-2.54-.1l-.68-.68.76-.72c.45,0,.86,0,1.26,0s1,.2,1.4-.23q0-8.25,0-16.55c0-.06-.09-.12-.21-.28-.47,0-1,0-1.59,0s-1.13.26-1.61-.23l.7-.69c.86-.13,1.75.05,2.72-.14V43.34a.4.4,0,0,0-.06-.22,1,1,0,0,0-.17-.18c-.87-.07-1.75.08-2.51-.07l-.49-.49.52-.92a11.84,11.84,0,0,0,1.35,0c.45-.05,1,.24,1.36-.23V31a2.55,2.55,0,0,0,0-.48c0-.07-.11-.12-.2-.21H219.62l-.42.42-.51-.43-.5.46h-2.42l-.56-.51-.35,1H214c-.33,0-.65,0-1,0s-.65.1-.87-.22.16-.65-.41-.67l-.21,1.41h-2.6l-.44.45h-2.9l-1.05,1a9,9,0,0,1-2.09-.11l-.16-.75c-.1,0-.19-.08-.21,0-.47.45-.92.91-1.38,1.37a3.41,3.41,0,0,1-1.67-.13l-.39-.44-.9,1.17c-.77-.27-1.53.15-2.18-.31.05-.56-.17-1.14.19-1.71.92.3,1.62-.91,2.61-.38l.35.34.52-.47h1l.51-.47h1l.51.42.61-.48h2.37l.66-.72c-.19-.09-.32-.2-.46-.2-11-.21-153.16-.09-156.06.13V41.06a.46.46,0,0,0,.06.22,1.36,1.36,0,0,0,.17.17,23.71,23.71,0,0,1,2.65.09v1.21c-.48.32-1,.11-1.44.18s-1-.17-1.39.18V54.47c.51.27,1,.1,1.47.17a1.73,1.73,0,0,1,.47.24c-.17.51.13,1.07-.19,1.6-.55.34-1.29-.24-1.83.38.1,1-.07,2,.1,3.15H52a1.59,1.59,0,0,1,.16.51,1.26,1.26,0,0,1-.19.41c-.86.12-1.75-.06-2.59.1a2.12,2.12,0,0,0-.13.51V77.63a.39.39,0,0,0,.06.21,1,1,0,0,0,.17.18,21.64,21.64,0,0,1,2.65.1V79.5c-.49,0-1,0-1.44,0s-1-.18-1.39.17v8.44l.91.33v1l-1,1v5.63a.61.61,0,0,0,0,.23c0,.06.11.11.17.17.86.13,1.75-.06,2.67.13,0,.26,0,.48,0,.7,0,.06-.11.12-.17.18a21.64,21.64,0,0,0-2.65.1v16.31c.47.32,1,.12,1.43.18s1-.16,1.4.18v1.16c-1,.35-2-.13-2.87.31v16.1c0,.06.09.12.17.24l2.57.12c.06,0,.12.11.18.18,0,.31,0,.64,0,1,0,.06-.1.12-.24.26H49.44c-.32.36-.2.7-.2,1q0,7.06,0,14.14c0,.14.12.27.19.41l1.2.13c0,.26,0,.49.07.72s.1.44.26,1.08l.37-1.87c1.57,0,3,0,4.5,0,.05,0,.11.11.17.17l.3,1,.39-1.08c2.05-.12,2.05-.12,2.29.13s-.28.91.38,1.23l.22-1.47H64c.06,0,.13.08.25.16s0,.42.07.64.1.44.25,1.07l.37-1.86c.77,0,1.41,0,2.06,0,.06,0,.12.11.18.17.12.25-.06.63.38.76l.34-.94c1.41,0,2.86,0,4.31,0,.13,0,.26.15.39.23,0,.85,0,.85.4,1.17,0-.26.06-.49.09-.71s.08-.45.13-.7h2c.06,0,.13.08.19.12l.33,1,.48-1,.73-.17.09-1.75a4.08,4.08,0,0,1,.74-.07,5.28,5.28,0,0,1,.73.15v1.65c.82.34,1.67-.12,2.29.4.48.27-.35.93.47,1.15l.22-1.41h1.78a1.76,1.76,0,0,1,.43.13l.35.34.5-.46H89c.06,0,.12.11.17.16.32.36-.28,1,.44,1.28l.21-1.4.73-.06h1.32l.57.44.45-.44h4.33c.06,0,.12.09.24.16s0,.43.06.65.11.44.27,1l.36-1.84h2l.51.44.55-.46c.73.09,1.47-.17,2.11.19.1.44-.16.88.21,1.23.68-.27-.06-1.06.49-1.37l1.58-.09.64-.7c.08-.48-.17-.93.34-1.23.32.16.76-.17,1.1.23l.09,1.57,1.25.58.35-.35h2.17c0,.28.05.5.08.73s.1.44.15.68c.7-.34,0-1.12.58-1.46h4.38l.51.47.44-.43a8.74,8.74,0,0,1,2,0c.06,0,.11.1.17.16.22.36-.34,1,.41,1.22l.1-.72c0-.23.07-.45.11-.67h4.61l.36,1,.5-1.06c.67,0,1.32,0,2,0,0,0,.11.11.26.28s-.29.84.35,1.2l.25-1.49c1.45,0,2.9,0,4.34,0,.13,0,.27.14.39.21.09.24-.15.65.35.68l.32-.84,1.25-.15c0-.4.06-.79.1-1.17l.71-.72.64.13.14,1.2.69.65c1.27,0,2.49,0,3.71,0,.13,0,.26.14.39.22,0,.82,0,.82.4,1.2.07-.49.14-.94.2-1.37h2.19l.36,1,.5-1.06c1.4,0,2.79,0,4.17,0a1.36,1.36,0,0,1,.44.17c0,.22,0,.46.05.69s.13.39.28.84c.1-.48.16-.7.2-.92s.05-.46.07-.67c2.11-.13,2.11-.13,2.35.1.09.24-.16.66.35.67l.35-1,.53,1.07.47-1h2c.06,0,.11.11.17.16l.32,1,.41-1.17c1.41,0,2.86,0,4.3,0,.13,0,.26.14.39.22.19.36-.31.92.39,1.23.08-.52.15-1,.21-1.42l1.73-.09-.17-.24.8-.36-.48-.63c.39-.27.53-.75,1.17-.65l.75,1.31a10.52,10.52,0,0,0,.09,2c.4.08.7.19.84-.22-.61-.39-.47-.94-.36-1.51l.65-.62h1.46l.51.42.48-.39h3l.37,1,.5-1h1.46l.76.59.87-.65c.45.26,1.06-.22,1.63.35v2.17l1-.17-.56-.6v-1l.71-.71h1.45l.51.46.49-.44h1.48l1,1h2.09c0,.3,0,.53.09.76s.08.44.13.68c.71-.34,0-1.12.6-1.46.55,0,1.12,0,1.69,0a1.42,1.42,0,0,1,.42.15l.33.3.55-.49h2.37l.72-.69c.1-.4-.16-.83.23-1.2l.7,0,.09,1.17.44.52c.11.58-.24,1.18.33,1.74l.29-1.55c.68,0,1.38,0,2.08,0l.51.44.46-.46c.55,0,1.18,0,1.82,0,.13,0,.25.16.37.25.09.37-.17.8.2,1.15.67-.27,0-1.07.56-1.41h4.07a1.66,1.66,0,0,1,.43.14l.35.34.49-.46h2c.05,0,.11.11.41.41.15.08-.59.73.17,1,0-.24.09-.46.12-.69s.06-.45.09-.71h4.59l.41.42.52-.44a18.05,18.05,0,0,1,2.08,0l.28,1.52c.14-.14.23-.19.24-.26.06-.38.1-.77.16-1.24,1.37-.13,2.74,0,4.09-.08l.69-.69c.11-.37-.15-.8.17-1.15l.64-.12.67.83c.08.38-.17.82.22,1.13l1.13.07.36,1.9.34-1.8c.06-.05.13-.13.19-.14h4.14a.56.56,0,0,1,.23,0,.69.69,0,0,1,.17.17c.11.24-.09.64.38.72l.35-.92c.6,0,1.24,0,1.88,0,.12,0,.24.17.36.26.09.37-.17.81.2,1.15.67-.29,0-1.08.55-1.42h4.34c.06,0,.12.1.18.15.09.44.17.88.34,1.8l.35-1.87c.22,0,.44-.07.67-.08s.65,0,1,0,.44.09.61.12c.14.33-.07.72.4.8l.35-.92c1.42,0,2.87,0,4.33,0,.12,0,.24.17.27.19.22.44-.11.88.35,1.28a4.79,4.79,0,0,0,.22-.58c.05-.3-.1-.65.24-.88a17.82,17.82,0,0,1,2.07,0l.35,1,.48-1,.73-.21.08-1.67c.55-.14,1-.31,1.32,0,.25.63-.11,1.22.32,1.81.58,0,1.22,0,1.86,0,.12,0,.24.17.36.26.08.38-.18.81.2,1.15.65-.29-.05-1.08.52-1.41.7,0,1.41,0,2,0l.48.45.52-.47c1.4,0,2.78,0,4.16,0,.13,0,.27.13.4.2.24.36-.33.95.42,1.22.07-.46.14-.91.2-1.38h2.1l.53.39.44-.44h4.36c.06,0,.12.09.18.14.09.44.17.88.35,1.83.17-1,.25-1.4.36-2,.69,0,1.39,0,2.07,0l.52.42.45-.45c.57,0,1.21,0,1.85,0,.12,0,.23.18.26.2.21.44-.11.89.29,1.21.65-.29-.05-1.08.43-1.36.78-.19,1.52.1,2.16-.14.37-.63-.23-1.37.39-1.87.38.08.81-.17,1.17.21l.08,1.58ZM107.75,6.41c0,1.08,0,2,0,2.87a1.28,1.28,0,0,1-.17.44h-1.28c0-.59,0-1.15,0-1.7s.22-1.13-.19-1.62c-7-.16-25-.1-27.54.09-.21,1.07.13,2.21-.17,3.28-.5-.07-.91.15-1.35-.23V6.59c-.15-.13-.21-.23-.27-.23H49.7a.44.44,0,0,0-.23,0,.67.67,0,0,0-.18.16V23.27c.51.27,1,.09,1.47.16s1-.2,1.41.24c-.11.35.16.76-.14,1.11-.91.32-1.92-.18-2.79.3,0,.54,0,1,0,1.51s-.17,1.12.17,1.66H222.15l.44-.44c.35,0,.75,0,1.15,0a3.48,3.48,0,0,0,1.4-.11l.36-.37h3.38c.48-.29.66-.95,1.39-1l.7.5c.86.15,1.45-.46,2.11-.79a1.6,1.6,0,0,1,1.33-.07c.11.29.2.57.34.95l.5-1.08h.93l.8-.57.84.59c.41-.16.87-.53,1.24-.45.68.14.9-.7,1.54-.53l.51.47.53-.48h1.43c.73-.6.83-.62,1.2-.25v1.51l-.74.64h-2l-.42-.42-1,.95h-1.43l-.38-.32L236.9,28c.25.12.38.25.52.25,7.47.18,71.17.06,73.67-.14,0-.54,0-1.1,0-1.65s.26-1.14-.23-1.61H308.4l-.51-.53c.17-.35.35-.7.48-1H311a6.57,6.57,0,0,0,.09-.71q0-3,0-6.09a1.09,1.09,0,0,0-.18-.42h-1.55c-.45.34-.65.85-1.26.93l-1-.56c-.26.2-.51.37-.8.58H305l-.56.44-.37-1-.51,1c-.73,0-1.46,0-2.19,0a1.9,1.9,0,0,1-.45-.14l-.33-.36-.47,1c-.46,0-.87,0-1.27,0s-1,.19-1.38-.19a3.31,3.31,0,0,1,.12-1.7h2.55l.53.42.35-1c.42,0,.82,0,1.22,0a3.46,3.46,0,0,0,1.4-.11l.37-.37h2.9l1-1h1.37l1,.66.77-1.15V6.81a.56.56,0,0,0,0-.23,1,1,0,0,0-.17-.18c-6.09-.15-25.05-.09-27.59.09,0,.54,0,1.1,0,1.65s.25,1.13-.22,1.61c-.38,0-.8.16-1.23-.21V6.59c-.15-.13-.21-.23-.27-.23H254.51a.64.64,0,0,0-.24,0c-.07,0-.11.11-.26.25V9.69a5.94,5.94,0,0,1-.76.07,4.26,4.26,0,0,1-.64-.13c-.11-1.1,0-2.15-.09-3.21-.31,0-.54-.06-.77-.06q-13,0-26.09,0c-.31,0-.65-.09-.88.24V9c-.42.27-.6,1.06-1.41.57-.2-1,.13-2.17-.16-3.24H195.3c-.06,0-.12.1-.18.15-.3,1.07.18,2.22-.24,3.26a1.17,1.17,0,0,1-.35,0,4.69,4.69,0,0,1-.5-.21v-3a2.14,2.14,0,0,0-.52-.15q-13.41,0-26.81,0a.59.59,0,0,0-.23,0,.94.94,0,0,0-.2.2c0,.45,0,.94,0,1.42a3.94,3.94,0,0,1-.12,1.64c-.74.37-.94-.31-1.31-.65l.46-.46c0-.28,0-.67,0-1.06s.17-.81-.23-1.13H137.27c-.06,0-.11.1-.18.15-.29,1.07.18,2.22-.24,3.25h-.58L135.49,9V6.41Zm62.82,144.12c-.07-.39-.44-.54-.7-.87-.07.4-.6.44-.59.88A1.27,1.27,0,0,0,170.57,150.53Zm3.25-.81c-.2.28-.58.42-.64.82.9.13.9.13,1.3-.16Zm9,.73c-.28-.2-.42-.59-.72-.63l-.85.68a3.86,3.86,0,0,0,.74.18C182.31,150.71,182.64,150.76,182.84,150.45ZM234.78,27.32c-.2.29-.59.43-.65.83.92.16.92.15,1.31-.17ZM185.37,150.76l-.18-1c-.46.07-.6.45-1,.75Zm-9.35-.31a.58.58,0,0,0,1,0A.58.58,0,0,0,176,150.45Zm32.5-120.13-.32.17c.06.06.12.16.16.16a1.44,1.44,0,0,0,.33-.16Zm-15.19,119.4c-.06.05-.16.12-.15.16a1,1,0,0,0,.15.32s.16-.12.15-.16A1.33,1.33,0,0,0,193.33,149.72Zm-87.11.66-.18-.18a2.41,2.41,0,0,0-.15.33s.1.11.15.16Z"/><path d="M21.87,79h.84c.38.66.11,1.39.19,2l-.67,1.33H17.72c-.21-.29-.63-.46-.66-.63,0-.37,0-.48,0-.52a17.44,17.44,0,0,1,1.73-1.71c.55-.41.58-1.12,1-1.52s.5-1,.86-1.35.23-.88.21-1.29l-.65-.71h-1c-.54.53,0,1.24-.27,1.76-.44.3-.84.15-1.22.15l-.67-.67c-.19-.52.42-.73.42-1a1.19,1.19,0,0,1,.77-1.11,2.14,2.14,0,0,0,1-.56h1.89c.74.58,1.88.68,1.89,2.08l2.07-2.07h2c.45.58,1.36.5,1.68,1.21.06.4-.12.82.18,1.22.2-.17.36-.33.53-.46.39-.29.2-.93.68-1.17l1.4-.75h1.93c.36.39,1,.74,1.08,1.22s.5.78.82,1.2c.29-.64.56-1.25.85-1.87l1.32-.56h1.63L40.69,75c.4.31,0,1,.71,1.33v3l-.44.51v.94l-1.83,1.72H37.31a5.2,5.2,0,0,1-1.88-3,5.36,5.36,0,0,0-.68.7,2.86,2.86,0,0,0-.22.68L33,82.37H30.83l-.8-1.2c-.48,0-.05-.74-.71-.7-.11,0-.23,0-.27,0-.61.64-1.21,1.3-1.76,1.9H25.64l-1.67-1-.15-1.21-.43-.43V76.8a1.38,1.38,0,0,0-.25-.2c-.24.22-.47.45-.71.69v.93a7.48,7.48,0,0,0-.56.79c-.28,0-.44.15-.43.48-.29,0-.58,0-1,.07l.11,1,.87-.24v-.82C21.78,79.51,21.94,79.35,21.87,79Zm17.61,1.22V76l-.69-1.35a1.76,1.76,0,0,0-1.26.16,3,3,0,0,1,0,.85,2.85,2.85,0,0,1-.43.71v2.55a9.37,9.37,0,0,1,.43,1.22c.06.3-.07.65.28.79h1Zm-13,1,.84-1.21V75.34c-.37-.31-.59-.82-1.23-.71l-.65.71v5Zm4.75-5.91v4.92c.4.18.55.8.9.73l1-.69V75.24c-.38-.15-.48-.68-1-.62S31.51,75.13,31.19,75.36Z"/><path d="M30.71,37c.79.29.95-.24,1.34-.4.27,0,.71-.07.88.1.51.49,1.39.44,1.7,1.28v.93l.68.19,1-2h1l.36-.35c.94-.44,1.55.38,2.31.62v.48l.9.9.13,1.1.39.39v2.47l-.42.51v1l-.92.73-.18.92H37.39l-1.78-1.88L35.5,43c-.47,0-.6.42-.89.62v1l-1.23,1.2H31a4,4,0,0,1-1.48-2l-.73.26v.56l-1.26,1.2H25c-.3-.33-.86-.69-1-1.18a2.63,2.63,0,0,0-.79-1.19c-.37.32-.36.91-.8,1.22a11.59,11.59,0,0,0-1.17,1.15H18.88l-1.81-1.68v-1l.71-.71h1c.5.47.15,1.07.29,1.84l.67.58c.69.11.87-.45,1.23-.72V42.68L20.26,42l-1.2-.09V40.6l.74-.17.61-.65V38.13l-.81-.08-.21,1.41H17.73c-.36-.35-.1-.78-.19-1.17.52-.36.77-1,1.44-1.22.35-.11.66-.36,1-.47a2.35,2.35,0,0,1,.7,0l.55.5h.95l.7,1.37v.63l-.48.94c-.14.26-.29.5-.38.66L23.12,42c.12-.12.23-.18.23-.24,0-.8,0-1.61,0-2.4l.51-.57v-.93c.34-.74,1.17-.76,1.72-1.19.28-.21.83,0,1.31.21a3.46,3.46,0,0,1,2,2Zm8.77,2.28-1.22-1.13c-.73.32-.73,1.21-1.18,1.73v2.89c.7.33.31,1,.54,1.5l.64.61,1.22-1.18Zm-13,5.93L27.28,44v-5.2c-.37-.31-.59-.82-1.23-.71l-.65.71v5.45Zm4.75-6.4v5.36c.37.28.57.83,1.18.74l.73-1.29V39.41l-.71-1.35C31.76,38,31.56,38.51,31.19,38.78Z"/><path d="M19.81,60.65c.14-.55.2-.77.25-1l.88-.88v-2l-.79-.61L19,57.68c0-.08,0,.31-.07.67-.37.38-.8,0-1.13.21L17,57.79a2,2,0,0,1,.16-.61c.45-.67.62-1.58,1.67-1.73.32-.05.58-.54.85-.82h1c.47.4.78,1,1.59,1l.17.71.43.47V58.6l-.67,1.34-1.79,1.79.64.27,1.3-1.16.83.62c.09-.27.18-.55.28-.83l.89-.32-.5-.58v-5l.79-.18.65,1h1.24l1-.95c.71-.09.84.56,1.18.73.06.7-.43.82-.66,1.18H27l-.52.92c-.66.13-1,0-1.11.4.38.34.8.14,1.18.18s.65,0,1,0l1.2,1.2c.09.25-.17.66.36.67.29-.53.1-1.1.14-1.65s0-1,0-1.43l1.22-1.23c.8.12,1-.73,1.62-1a3.88,3.88,0,0,1,.56.26c.38.26.57.7,1.15.79a1.21,1.21,0,0,1,.85,1c.07.33.44.6.7.92.2-.39.38-.72.54-1.06s.23-.56.34-.83l.66-.18.88-.87h1c.5.82,1.61.89,2.21,1.68v1l.49.53v2.91l-.5.53v.82l-1.68,1.81H36.78c-.31-.38-.82-.6-.71-1.2-.49-.24-.4-.81-.71-1.21l-.69.64-.12,1.11-.54.54c-.06,0-.12.13-.18.13H31l-1.28-1.27v-.5l-.7-.24a4.21,4.21,0,0,1-1.5,2H24.6l-1.39-1.39-.95,1.4H17.32c-.06,0-.12-.1-.18-.15l-.07-.35Zm18.46,2.27,1.21-1.22c0-1.26,0-2.55,0-3.84,0-.06-.08-.12-.12-.19-.54-.37-.28-1.4-1.27-1.48l-1,1.67v2.89l.37.38c.31.56-.25,1.28.33,1.79Zm-6.06-.49.91-.62V57.28a1.25,1.25,0,0,1-.2-.19c-.17-.33-.33-.67-.49-1h-.51l-.73.76c0,1.67,0,3.43,0,5.18,0,.13.15.26.23.4Zm-6.87-1.69c.07.53-.17,1.1.18,1.65h1.1l.65-.69v-2c-.6-.58-.6-.58-1.2-.71l-1.19,1.21Z"/><path d="M41,2.5c0,.3-.12.82.46,1.13v3L41,7.09V8a4.94,4.94,0,0,1-2.48,1.77H37.3a2.85,2.85,0,0,0-.51-.47,2.35,2.35,0,0,0-.67-.11c.17-.92-.59-1.46-.56-2.31a1.47,1.47,0,0,0-1,1,2.36,2.36,0,0,1-1.45,1.43c-.57.18-1,.89-1.62.44L29.74,8.06a3.39,3.39,0,0,0-.06-.53c0-.07-.11-.11-.16-.17l-.53,0c-.33,1.33-1.47,1.85-2.55,2.44a7.46,7.46,0,0,1-2-1.09C23.9,8.18,24,7.3,23.12,7l-1.2.6.93.93v.59c-.07.07-.13.18-.19.18H19.74c-.67-.65,0-1.22.13-1.87-.87-.18-1.75,0-2.62-.13-.76-.83.4-1.4.29-2.14.46-.46,1.11-.85,1.33-1.4A4.53,4.53,0,0,1,20,2.22V1.28A6.56,6.56,0,0,1,21.33,0l.57.17v5.4l.75.78h.5c.06-.06.17-.12.17-.17,0-1.13,0-2.26,0-3.35l.53-.62V1.28l.7-.73h3.09l.88,1.2.12-.13.29.83h.61c.09-.26.18-.54.28-.82L30.91.55h3l.65.64c0,.45,0,1,.07,1.54l.69.69c.52-.46.15-1.06.3-1.81L37.05.55h2ZM37.53,6.61v1c.37.27.54.83,1.17.73L39.46,7V2.76L38.28,1.47l-.72.71-.06,1-.45.45V6.1ZM31.19,2.2V7.56c.37.28.55.84,1.25.73l.67-.6V2.89L32,1.45Zm-5.85,0V7.63c.4.17.54.79,1,.7l.89-.67v-5L26.19,1.6A.32.32,0,0,0,26,1.54ZM20.34,4c-1,.11-.68,1.25-1.33,1.61l.17.17c.44,0,.91.27,1.29-.18C20.41,5.09,20.6,4.54,20.34,4Z"/><path d="M18.28,21.35c-.73-.92-.73-1.24-.73-1.61l.74-.68h3.47l1.08,1.33c0,.86,0,.86-.9,2.29l.95,1c.07.42-.12.85.23,1.2l1-1c.6-.09.82.43,1.17.71.1.54-.12,1.12.16,1.63l.65.14,1.11-1.54V23.54L26.32,23h-.74l-.42.41H24.07c-.06-.12-.18-.26-.18-.39,0-1.22,0-2.44,0-3.66,0-.06.09-.12.16-.21h4.53c.06,0,.12.11.16.15L27.06,21c-.57.08-1.15-.18-1.67.19.2.53.65.25,1,.29a9.75,9.75,0,0,0,1.07,0l1.23,1.13.22.83c.15-.15.33-.24.33-.33,0-1,0-1.93,0-2.74l1.31-1.31h3.34l.71.71v1l.71.66c.53-.19.17-.65.34-1.18s.76-.75,1.18-1.18h2.86L41,20.24v1.48l.36.36a1.62,1.62,0,0,1,.12.43c0,.72,0,1.45,0,2.12a1.86,1.86,0,0,0-.49,1.49l-1.31,1.2a1.89,1.89,0,0,0-1.48.49c-2-.92-2-.93-2.84-2.42-.2.34-.72.46-.7.93s-.52.58-.63,1H33l-.77.56-1.54-.76-1-1v-.58l-.86-.18-.17.81-1.17,1.17h-1l-.52.49a5.37,5.37,0,0,1-2.93-2l-1,1.49-.93.05-.46.46a2.74,2.74,0,0,1-.8,0c-.36-.09-.67-.37-1-.45a5.55,5.55,0,0,0-1.15,0c-.23-.49-.29-1-.67-1.25v-1.5a2.93,2.93,0,0,1,1.85-.08l.13,1.11.65.74h1.14A9,9,0,0,0,21,24.19l-.66-.7-1.12-.12a1.88,1.88,0,0,1-.17-.44c0-.75,0-.75-.59-1.32-.29-.28-.58-.57-.14-.26,1,.61,1.2.61,1.46.61L21,20.71l-.73-.79-.74.28v1C19.36,21.47,18.94,21.56,18.28,21.35Zm19.25,3.29c.07.55-.17,1.12.18,1.66h1.12a2.73,2.73,0,0,1,.63-1.22V21.29L38.25,20l-.67.18-.09,1.62-.43.43a18.67,18.67,0,0,0,0,2Zm-6.34-3.9v4.88a1.93,1.93,0,0,0,1.17.73l.74-1.29V20.63c-.38-.16-.48-.68-1-.62S31.51,20.51,31.19,20.74Z"/><path d="M23.39,111.45l.49-.52,0-.49,1.36-.7h2.26a4.15,4.15,0,0,1,1.48,2l.61-.07.19-.75,1.2-1.12h2.33c1,.51,1.26,1.67,2,2.44.48-.41.13-.86.43-1.4l1.08-1.05h2.45l1.67,1.8v.84l.49.53v2.91l-.49.53v1c-.59.78-1.71.85-2.2,1.68h-1c-.18-.19-.46-.33-.51-.53-.16-.65-1.13-.1-1.21-.93a5.94,5.94,0,0,0-.76-1.61c-.23.31-.51.54-.57.82a1.56,1.56,0,0,1-1.36,1.37c-.33.06-.58.54-.9.86H31.34l-.68-.93H30c-.17-.33-.31-.68-.51-1a2.69,2.69,0,0,0-.49-.46c-.39.54-.36,1.37-1.32,1.48-.39,0-.73.58-1.14.92h-1l-1.67-1.78v-.36l-.5-.54Zm16.09,4.36v-3.9a14.77,14.77,0,0,0-1.21-1.16c-.12-.1-.42,0-.72,0v1.56l-.46.57v2.41l.5.65v1.41c.71.1.69.06.88,0C39.07,117,38.89,116.15,39.48,115.81Zm-8.13-4.58c-.24,2.68-.24,5.42,0,5.72s.46.68,1.2.54l.6-.79v-4.19l-.68-1.34Zm-6,0c0,2,0,3.74,0,5.51,0,.06.08.12.12.19.3.21.45.69,1.1.58l.72-1c0-1.34,0-3,0-4.55,0-.06-.09-.12-.17-.23l-.62-.56Z"/><path d="M29.24,93.56l.7-1.34.5,0,1-1h1.36l1.79,1.68c0,.22,0,.38,0,.53l.7.71c.17-.34.34-.66.5-1l.48-1,.53-.05.89-.89h1.41c.53.55,1.08,1.14,1.8,1.88,0,.25-.16.88.47,1.23v2.94L41,97.8v.91l-1.75,1.75H36.8c-.77-.62-1-1.56-1.43-2.34a1.68,1.68,0,0,0-.87,1.18c-.11.4-.64.7-1,1.1a10.09,10.09,0,0,1-1.84.07,6.79,6.79,0,0,1-1.38-.76,5.23,5.23,0,0,1-.81-1.19c-.21,0-.33,0-.37,0l-1.73,1.9H24.58c-.66-.45-.68-1.26-1.16-1.72V97.24c.54-.37,1.12-.11,1.66-.19.62.5,0,1.24.36,1.8.34.3.76.09,1.14.14l.7-.71V96.53l-.85-1.08-.92.61c-.43.06-1,0-1.57,0v-4.7c.06-.06.1-.14.17-.17a.63.63,0,0,1,.24,0H28c.3.41,1.05.59.64,1.33-.43.35-1.17-.17-1.49.52l-1.64.17c-.38.33,0,.78-.2,1.09.22.34.39.23.55,0,.31-.38.75-.14,1.11-.22l1.86,1.93C29.24,95.62,29.24,95.62,29.24,93.56Zm10.23.82c-.14-.15-.47-.35-.45-.49.1-.63-.4-.85-.73-1.16-.11-.11-.42,0-.67,0l-.13,1.2-.41.48v2.46l.3.29c.41.64-.22,1.38.4,1.85h1l.7-1.37ZM32.19,99l.93-.63v-5l-.7-.7c-.38.07-.8-.16-1.18.19v5.5C31.58,98.47,31.66,99,32.19,99Z"/><path d="M34.61,135.82c-.35.71-1.19.71-1.73,1.17a.88.88,0,0,1-1.1-.12c-.24-.26-.6-.22-.82-.36a8.56,8.56,0,0,1-1.23-1.18v-.6l-.86-.15-.15.74-1.18,1.24c-.53-.19-.7.32-1,.48-.47,0-.92.09-1.33-.36-.2-.22-.74-.14-1.12-.2a7.64,7.64,0,0,0-.35-.83,2,2,0,0,0-.29-.35v-1.46c.59-.5,1.22,0,1.83-.27l.15,1.24.66.78,1.24-1.23v-1.47l-.71-.71h-1l-.51.46h-.95c-.09-.11-.25-.24-.25-.36,0-1.45,0-2.9,0-4.27.15-.13.2-.23.26-.23H28l.73.73a2.8,2.8,0,0,0-1.6,1.18l-1.74.1-.06.84a15.2,15.2,0,0,0,2.26.09,13.41,13.41,0,0,1,.93,1,5.66,5.66,0,0,1,.47.92c.12-.12.23-.18.23-.23,0-.82,0-1.63,0-2.26A5.38,5.38,0,0,1,31,127.78h2.38L34.61,129v1l.69.69c.52-.22.15-.69.19-.76.73-.74,1.3-1.3,2.08-2.08H39l1.71,1.72c.44.31-.15,1.07.69,1.27v3l-.45.51v1.06a11.86,11.86,0,0,1-1,.91,13.62,13.62,0,0,1-1.35.7H37.3l-.53-.49h-.5c-.28-.61-.56-1.22-.86-1.89H34.8C34.44,135,34.7,135.44,34.61,135.82Zm2.92-1.94v1a2,2,0,0,0,1.16.74l.77-1.31V130l-1.18-1.3-.72.71-.06,1-.45.45v2.42Zm-4.39.56V130l-1.23-1.23-.67.77v5.4c.37.25.5.74,1.28.63Z"/><path d="M2.47,81.75c-.33-1,.83-1.67.36-2.57l-.38-.38V77.32l.45-.51v-1l-.47-.5V73.88l1.22-1.2h1l.51.48h1a2.24,2.24,0,0,0,.13-1.33c-.45-.26-.94-.08-1.4-.13-.66-.38-1.47-.53-1.92-1.26V69l-.35-.36c-.45-.94.37-1.55.61-2.32H4.1l1.74,1.76v1.42l.75.75L7.71,69c-.07-.25-.66-.39-.37-.86L6.33,67c0-.36,0-.7.44-.71.08,0,.2,0,.24,0l1.75,1.89V71c-.27.44-.72.19-1.36.31L6.84,72c.33.41.77.1,1.34.35l.54.68v1.92c-.11.09-.17.18-.23.18H5.59l-.41-.41a2.8,2.8,0,0,0-1.83.13l1.93,1.74H6.54l.54.5h1.5l.23.64-.71.76H6l-.39-.39h-2c-.27.16-.21.24,0,.4C4.1,79,4.58,79.54,5,80H6.59l.43.43,1.54.08c.41.35.06.8.13.92l-.78,1.15L7,82H5.58l-.45,1H3.89C3.71,82.13,2.58,82.42,2.47,81.75ZM4.16,69.22c.07-.47.4-.89,0-1.42l-.77.11Z"/><path d="M129.5,164.79l-.74.73c0,.38-.07.77-.11,1.2h-5.17l-.18-.7c.52-.49,1-1,1.58-1.49a4.23,4.23,0,0,0,1.2-1.69c.74-.33.58-1.28,1.17-1.7.09-.37-.15-.57-.35-.83a3.3,3.3,0,0,1-.31-.83H126l-.67.75v1l-.65.65c-.81.12-1-.45-1.33-.73v-.76c.22-.45.44-.93.71-1.38a3.43,3.43,0,0,1,.49-.52H128c.77.4.69,1.41,1.39,1.87.61,0,.16-.61.48-.85s.37-.65.55-1h.92c.36-.2.54-.68,1-.5l.54.49h1a2.83,2.83,0,0,0,.3.83,7.75,7.75,0,0,0,.85.87v1.47l.33.32c.33.54,0,1.11.19,1.59l-.47.47-.09,1.54c-.3.56-.88.64-1.36.88l-1.35.74c-.29-.55-.81-.41-1.48-.44l-1.21-1.62C129.7,165.38,129.6,165.1,129.5,164.79Zm4.1-.2v-4a16.24,16.24,0,0,0-1.2-1.11c-.13-.1-.43,0-.76,0a4,4,0,0,1,0,1,2.82,2.82,0,0,1-.44.72v3.21c.31.57.51,1,.74,1.35,0,0,.15,0,.36,0C132.79,165.58,133.1,165,133.6,164.59ZM129.53,161a1.42,1.42,0,0,0-.83.91,4.85,4.85,0,0,1-1.34,2.1c-.2.17-.53.3-.5.74,1,.44,1.14-1,1.94-.9l.7.41c.08-.07.19-.12.19-.17,0-1,0-1.93,0-2.89C129.69,161.15,129.6,161.09,129.53,161Z"/><path d="M300.85,164.1v1l-.47.52c.49.5,1.1,0,1.59.3a6.22,6.22,0,0,0,.71-1.21,1.89,1.89,0,0,0,0-1.13,6.08,6.08,0,0,0-.73-1.23l-1.05.52h-1.35a1.6,1.6,0,0,1-.18-.41c0-1.06,0-2.11,0-3.22l.75-.66h4l.1.68-.73.73h-1l-.53.49c-.39.06-.81-.12-1.19.16.59.33.59.33,1.72.37l2,1.95a3.83,3.83,0,0,1,.22-.63c.1-.2.25-.38.44-.67V160l.72-1.43.95-.06.73-.5,1.32.66,1.66,1.74V162l.58.8-.5.88c.06-.14-.05,0-.05.14,0,.56,0,1.13,0,1.7-.66.93-1.91.95-2.69,1.7l-.44-.44-1.53-.07-.7-1.35v-1.31l-.71-.65c-.07.06-.25.15-.25.23,0,.65,0,1.29,0,1.82l-1.21,1.3h-1l-.37.37c-.48-.09-.88-.54-1.57-.34l-1.22-1.34v-.92l1.3-1.11Zm6.61,1.7c1.3.09,1-1.29,1.67-1.73v-3.39l-1.21-1.21h-.49c-.52.42.08,1.32-.68,1.64v3.34Z"/><path d="M246.52,164.83h-1.13l-.15.86.91.19.08.85H242l-.15-.63c.53-.63,1.26-.08,1.89-.4l.13-.73c-1.11-.34-2.25,0-3.28-.19-.64-.84,0-1.49.35-2a12.73,12.73,0,0,1,1.92-2.64v-.38l1.69-1.8.53,0c0,.06.16.12.16.18,0,1.84.06,3.69.08,5.57l.72.06c.09-.1.2-.15.2-.21,0-1,0-1.95,0-2.9.34-.37.88-.69.94-1.08.09-.58.51-.79.78-1.15.61.31.73-.61,1.25-.5s1,.79,1.6.48c.84.43.72,1.34,1.28,1.76v4.86c-.58.46-.5,1.37-1.28,1.7h-.91l-.36.36c-.52,0-.8-.93-1.43-.21-.36-.39-.83-.67-.84-1C247.24,165.37,246.71,165.22,246.52,164.83Zm3.62.08v-4.76c-.4-.17-.53-.79-1.26-.66l-.66.59v4.8l1.17,1.47Zm-6.38-3.63a4.53,4.53,0,0,0-1.8,2.49,3.54,3.54,0,0,0,1.8,0Z"/><path d="M262.41,162.85l1.84-.95,1.32.65c.13.24.34.65.63,1.22V166c-.52.44-.47,1.31-1.18,1.73h-1.94c-.65-.29-.73-1.08-1.25-1.82v-2.43c-.59-.07-.39.35-.3.24-.6,1.06-1.63,1.36-1.68,2.37l-1.64,1.64-.74-.66c-.22-.7.71-.92.52-1.55l1.37-1.38c-.07-.78.69-1,1-1.53-.13-.07-.26-.2-.39-.21-.73,0-1.46,0-2.31,0L256.51,161v-2.38c.32-.27.76-.62,1.36-1.1h1.76l.51.42H261l.79.59,1.85-1h1.46l.17.62c-.35.57-1,.81-1.08,1.58-.05.47-.82.65-.94,1.31-.08.4-.63.7-.89,1.09C262.27,162.28,262.39,162.57,262.41,162.85Zm.89,1.25v1.35l.72.94.75-.28c0-.68,0-1.31,0-1.94,0-.07-.08-.13-.14-.22l-.6-.56Zm-4.87-5.58c0,.66,0,1.29,0,1.92,0,.47-.16,1,.2,1.45.7-.4.81-1.18,1.18-1.77C259.26,159.7,259.38,158.79,258.43,158.52Zm1.95,1.19.47.49-.51.55.19.72.83-.21v-1.09l1-.44C261.67,159.56,261,159.25,260.38,159.71Z"/><path d="M80.93,158.74l1.21-1.22h2l.53.49h.94l.51.47c.42.09.6-.21.87-.35s.63,0,.92-.14.5-.37.78-.45a3,3,0,0,1,.9,0c.08.25.21.44.16.52-.3.46-.86.86-.92,1.32-.08.76-1,.84-1,1.54s-.72.81-1,1.3c0,.16,0,.32,0,.48.25.34.35,0,.52-.1a6.17,6.17,0,0,0,.65-.2,3.48,3.48,0,0,0,.59-.54l1.52.69.15.63.43.46v2.45a1.55,1.55,0,0,0-.56,1c-.07.27-.42.47-.65.7h-2c-.72-.35-.65-1.25-1.21-1.7a24.55,24.55,0,0,0-.13-2.93c-.42.75-.54,1.36-1.07,1.68s-.71,1-1.06,1.5a12.23,12.23,0,0,1-1.43,1.47l-.73-.84a6.56,6.56,0,0,1,1-1.84c.37-.39.86-.66,1-1.27a5.28,5.28,0,0,1,1-1.36c-1-.15-1.83,0-2.7-.09l-1.21-1.2Zm6.83,5.35v1.53c.43.14.55,1,1.3.6,0-.14.16-.28.15-.41,0-.61.14-1.24-.27-1.69l-.38-.78ZM83,158.56a2.88,2.88,0,0,0-.14,1.64c0,.54-.19,1.12.14,1.64.79-.31.86-1.12,1.22-1.72C83.72,159.7,83.83,158.79,83,158.56Zm1.79,2.62a.59.59,0,0,0,1,0c.08-.37-.16-.79.15-1.12l1-.32a2.62,2.62,0,0,0-2.15-.08l.51.55-.48.5Z"/><path d="M4.06,83.36h1.1L6,84.45c.67-.56.3-.89-.09-1.27l.58-.64c.08,0,.16-.07.19-.05s.21.26.35.33.33,0,.44.1c.44.34.85.72,1.29,1.11v1.69l-.9.6H6.37L5.6,85.26l-.77.29.52.56,0,.59L4,86.92v1.15l1.33.69h2c-.07-.64-.47-.42-.71-.52a1.2,1.2,0,0,1-.09-1.31l.31-.08,2,2V90l-.66.72H5.6l-.52-.48h-.9l-1.07,1c-.35-.6-.13-1.17-.22-1.77-.65-.33-1.38-.1-2.29-.2L0,88.63c-.12-.81.44-1,.72-1.32h1l.53.48.5,0c.39-.32.07-.77.31-1.27l.4-.45-.87-.29c-.31-.34,0-.76-.16-1.1.33-.33.62-.61.9-.9.1-.28.19-.56.28-.81C4,82.79,3.8,83.31,4.06,83.36Z"/><path d="M147.54,157.08l.6.6a8.64,8.64,0,0,1-2.21,3.36c-.06,0-.14.12-.14.18.1.79-.75,1-1,1.54s-.64,1.36-1,2c0,.06,0,.16,0,.37a5.48,5.48,0,0,0-1.31,1.28,3.88,3.88,0,0,1-.9,1.3H141a8.21,8.21,0,0,1-.12-2.1c.22-.52.89-.69,1-1.31s.75-.79,1-1.29l-.06-.47c-.06-.06-.11-.17-.17-.17h-2.5a3.21,3.21,0,0,0-.2-.62,5.77,5.77,0,0,0-.46-.65v-2.39a2,2,0,0,0,.42-.48,2.34,2.34,0,0,0,.13-.67l1.19-.14.4-.4.52.44h.92l1,1h1.51C146,157.73,146.83,157.6,147.54,157.08Zm-5.33,4.26c0-.06.15-.12.16-.18,0-.79,0-1.59,0-2.38,0-.06-.09-.12-.17-.23l-.59,0-.7,1.42c-.06.41.39.49.47.77s-.06.64.4.72Zm1.63-.28a8.72,8.72,0,0,0,1.44-1.38,1,1,0,0,0-1.44.06Zm-.18.43-.31.17c.05.06.12.16.16.16a1.66,1.66,0,0,0,.33-.16Z"/><path d="M319.87,163.08V164c-.3.57-1.1.88-1.11,1.68l-1.31,1.17-.07.7a1.13,1.13,0,0,1-.4.19,2,2,0,0,1-.48-.15v-2c0,.07,0,0,0-.06.86-.62,1-1.79,1.87-2.36v-.51c-.07-.07-.13-.17-.18-.17h-2.41l-.77-.72v-3.44c.27-.32.48-.56.66-.79h1l.53-.45c.31.58.83.45,1.5.48l.53.95h1.89c.35-.8,1.3-.88,1.93-1.36l.71.63c-.59.48-.53,1.36-1.23,1.72s-.77,1.33-1.35,1.89S320.57,162.61,319.87,163.08Zm-2.74-4.54c-.24.41-.24.93-.73,1.23.2.49-.14,1.07.23,1.61h1.11c.33-.39.17-.8.16-1.18a3,3,0,0,0-.15-1.66Zm2.48,2.39c.42-.4.83-.8,1.22-1.24a1,1,0,0,0-1.45,0C319.46,160.1,319.22,160.51,319.61,160.93Zm-.3.66-.17-.17a1.44,1.44,0,0,0-.16.33s.1.1.16.16Z"/><path d="M202.38,160.93c-.17.06-.37.08-.43.18a8.5,8.5,0,0,0-.36.82,3,3,0,0,1-.4.41h-2.05l-.69-.67v-3.42a4.82,4.82,0,0,1,1.93-1.22c.54,0,.71.58,1.1.83s1,.14,1.1.63h1.57l.56-.92h1.37c.32.42.08.82.17,1.16-.46.5-1,.84-1.06,1.56-.5.24-.3.85-.68,1.19s-.71.42-.7.91c-.16.11-.4.18-.47.33a1.76,1.76,0,0,0,0,.65.93.93,0,0,0-.88.69c-.12.72-.68,1-1.07,1.5v.49l-1.75,1.7h-.44c-.43-.27-.19-.71-.29-1.27l.95-.64.13-1.4.71-.14c.37-.32.12-.75.2-1.13a3.42,3.42,0,0,0,1.46-1c0-.4,0-.81,0-1.21.47-.07.69-.47,1-.88l-.21-.6-.73.1C202.41,160,202.41,160.49,202.38,160.93Zm-2.22-2.44-.69.69c.11.34.63.5.43,1l-.48.51.8.75.64-.7V159.2Z"/><path d="M187.72,165.21v-4c.16-.17.32-.35.49-.52v-1.46l.72-.7h1.4l.54-.48c.47-.19.71.39,1,.4a1.46,1.46,0,0,1,1.15.74,5.51,5.51,0,0,1,.54,1.28V165l-1.05,1.69a4.65,4.65,0,0,0-1.19.18c-.27.11-.43.46-.87.36l-.53-.45h-.77C188.25,166.59,188.43,165.56,187.72,165.21Zm3.87-4.91-.67-.84-.55,0-.69,1.35V165a3.36,3.36,0,0,1,.46.87c.06.47.35.46.64.47l.81-.64Z"/><path d="M73.78,157.94l.6.56h.94c.71.37.7,1.22,1.22,1.74v4.81l-.48.52v.49l-.7.68c-.51.09-1.13-.11-1.48.52l-.52-.48h-1l-1.66-2.33v-4.26l1.68-1.58Zm.81,7v-4.76c-.39-.17-.53-.79-1.25-.66l-.67.59v4.8c.48.59.82,1,1.17,1.47Z"/><path d="M38.74,155.08H38a5.4,5.4,0,0,1-2.38-1.77v-5.79l1.22-1.21h3A3.24,3.24,0,0,0,40.93,148v.95l.5.54v2.91l-.49.53v1l-.71.71h-.95Zm-1.22-1.75c.27.25.44.62.9.7l1-1.69v-3.77l-1.21-1.34-.67.18L37.49,149l-.43.43v2.43l.46.51Z"/><path d="M187.73,165.32l-.73,1.5h-2l-.44.43-.52-.47h-1l-1.2-1.23v-.77c.31-.38.55-.69.73-.92.48,0,.75.13,1.62,1.3l-.47.46.89.35-.21.21c.06,0,.14.07.17,0,.43-.36.85-.74,1.16-1v-1c-.23-.61-.87-.88-1.19-1.39h-1.14l-.12-.9,1.33-.11.21-.73.9-.94-.69-.69-.48,0c-.56.3-.12.89-.35,1.28-.5.4-1.09,0-1.58.23-.63-.59-.1-1.25-.32-1.73l.61-.62c.07,0,.13-.13.19-.13h3.38c.32.65.52,1.35,1.26,1.65l-1,1v1.51l.42.55v1.94Z"/><path d="M182.85,183.12l-1.22,1.2c-1.17,0-2.36,0-3.6,0v-3.72l.37-.37v-1.34l.55-.78c0-.67-1.14-1.1-.13-2.09.41-.15,1.14.14,1.79,0,.59.5,0,1.13.31,1.52-.12.49-.69.62-.49,1.2l1.92,1v.48l.5.53Zm-3.93,0,.12.62.61.09,1.33-1.28c-.26-.75.17-1.51-.35-2.18l-.67.16-.09,1.63Z"/><path d="M66.79,160.7l.47-.51c-.71-.88-1,.61-1.66.25s-.23-.85-.19-1.29l1-.44a5.22,5.22,0,0,1,2.08-.19c.24.24.47.46.7.7v5.35l-.47.52.69.69.47,0c.34.19.35.47.23.8s-2.09.27-4.77,0V166a2.48,2.48,0,0,1,.47-.17c.24,0,.48,0,.71,0l.71-.72-.47-.51Z"/><path d="M21.44,117.4l1,.34-.84.84-1.24-.6-.68.51H18.26l-.72-.71c.52-.56,1.24,0,1.76-.28.1-.13.19-.19.19-.25v-5.32c-.34-.44-.79-.14-1.3-.35l-.72-.69.86-.36-.19-.25,1.15-.11.4-.39h1.57a1.28,1.28,0,0,1,.17.44C21.44,112.58,21.44,114.93,21.44,117.4Z"/><path d="M20.63,91.12l.85.85v6.87l.95.34-.1.75H18.15L18,99.16l1.37-.23c.05-.07.15-.12.15-.18,0-1.79,0-3.57,0-5.35-.51-.57-1.23-.05-1.86-.34l-.11-.67c.7-.45,1.45,0,2.37-.36Z"/><path d="M203.81,162.39h.72l.52-.48h1l1.2,1.2V167l-.64.69h-1.51l-1.73-1.64v-2.69c.16-.11.4-.18.46-.32A1.81,1.81,0,0,0,203.81,162.39Zm2.41,1.18-.71-.68c-.55.55,0,1.28-.36,1.83l-.3.29.69,1.37.68-.7Z"/><path d="M324.26,166.54l-1.23,1.2h-1.45l-.69-.65v-1.35l-.54-.78c-.12-.66,1.06-.94.3-1.76l1.75-1.29H323l1.22,1.47Zm-2.44-2.42v1.43c.27.22.42.6.71.64l.75-.59c0-.72,0-1.35,0-2,0-.06-.1-.11-.18-.19C322.39,163.12,322.21,163.83,321.82,164.12Z"/><path d="M147.39,167.74H146l-.7-.7v-4l1.57-1.16.63,0,1.2,1.34V164l.49.68c.07.64-.9,1-.43,1.82Zm.18-4.29c-.72-.33-.9.38-1.3.67v1.43c.27.22.43.59.7.64l.77-.59c0-.71,0-1.35,0-2C147.73,163.56,147.63,163.51,147.57,163.45Z"/><path d="M1.46,84.76l-.78.13L0,83.82a2.8,2.8,0,0,1,.32-.52c.24-.32.54-.56,1-.28C1.58,83.53,1.39,84.09,1.46,84.76Z"/><path d="M285.8,139H287l.55.54c.05.06.15.12.15.18,0,.65,0,1.3,0,1.93l-.36.36c-.28.53,0,1.09-.18,1.68l.71.18c.59-.34.14-.93.4-1.32l.38-.38v-1.74c.27-.53.47-.94.7-1.41h1.09c.46.55-.07,1.28.36,1.83.66-.06.05-.89.67-1.06.34-.1.57-.55.81-.8.57-.2.75.29,1.19.52l1-.49h1.37l1.12,1.27v1.36l-.44.55a3.23,3.23,0,0,1,1.24.63c.07-.14.22-.3.19-.4-.23-.71.61-1.1.5-1.75.52-.37.77-1,1.44-1.23.36-.11.67-.35,1-.47a2.35,2.35,0,0,1,.7,0l.79-.8c-.17-.36-.36-.76-.55-1.14,0-.5.49-.62.7-1a3.33,3.33,0,0,1,1.63.09c.17.56.29,1.1-.38,1.56v2l-.46.45v1.42l-.53.6.83.28a1.45,1.45,0,0,1,.16.42c0,.57,0,1.14,0,1.7l-.72.71h-1.47l-.51-.47-.42.46a17.83,17.83,0,0,1-2.08,0c-.1-.27-.19-.56-.29-.84-.07,0-.15-.13-.2-.11a4.12,4.12,0,0,0-1.82.91h-1.59c-.08-.12-.16-.18-.16-.25,0-.8,0-1.61,0-2.38a1.12,1.12,0,0,0,.25-1.71l-.72.72v.94c-.33.36-.66.71-1,1.06v1.44c-.32.42-.76.14-1.09.26-.39-.16-.56-.69-1.08-.5-.16.15-.34.31-.51.48h-3.9l-1.21-1.22v-1l.47-.51v-.49l-1.23-.63c0,.05-.18.15-.21.28-.12.52.24,1.13-.26,1.6-.35.32-.21.93-.69,1.17l-1.48.77h-1.8c-.26-.35-.6-.79-1.21-1.58a4.65,4.65,0,0,0-.18-.55l-.37,1.06-.65.14-.89.89h-2l-.67-.62v-4l.43-.43v-2l.43-.44-.55-.95.9-.77h1.41l.64.58c-.07.52-.64.63-.82,1.27v1l1.66.1.72.69c0,.66,0,1.31,0,2,0,.06.11.11.17.17.58-.17.19-.65.43-1.3.13-.28.7-.61,1.13-1.08.48.15.69-.28,1-.48h1.11l1.75,1.76Zm4.32,3.36.84.07c.37.67-.21,1.39.39,1.89l.69-.68c0-.39.14-.78-.11-1.17l-.74-.68c-.31.32-1-.24-.93.54-.38.1-.76.07-.43.49A1.13,1.13,0,0,0,290.12,142.38Zm-9.75-.2c.06.53-.16,1.09.18,1.64h1.35c-.4-.63.13-.84.42-1.18,0-.64,0-1.27,0-1.91,0-.06-.09-.12-.16-.22C280.77,140.2,281.07,141.75,280.37,142.18Zm-4.18,1.69c.26-.46.68-.9.72-1.37a3.64,3.64,0,0,1,.34-1.08l-.49-1c-.35.39-.74.62-.74.86,0,.47-.35.68-.53,1,.09.54-.23,1.13.22,1.61Zm24.73-.05c-.41-.64.14-.83.46-1.24-.19-.48.15-1.05-.2-1.56-.73-.34-.91.37-1.31.67,0,.64,0,1.28,0,1.92,0,0,.1.11.19.21Zm-3-.2c-.05-.05-.12-.16-.16-.15a1.33,1.33,0,0,0-.32.15c.05.06.12.16.16.15A1,1,0,0,0,297.92,143.62Z"/><path d="M298.9,117.05a1,1,0,0,0,.89-.7,1.54,1.54,0,0,1,1.39-1.35c.13,0,.23-.22.37-.36H303l1.38,1.25c-.24.5-.44.89-.73,1.48a2.71,2.71,0,0,0-.79.41c-.35.35-.74.19-1.36.28l-.61.72,0,.51c.33.37.76.11,1.14.2l1-1h1c.41.33.11.78.24,1.08-.32.82-1.23.73-1.69,1.31h-2.15l-1.14-1.45-.78.06-.22,1.36h-1.68l-1.05-1.23.44-.55-.75-.13c-.58.55,0,1.28-.34,1.82-.56.3-1.13,0-1.58.16l-.57-.47-.42.42h-4l-.64-.88c-1-.19-1.2.66-1.71.9h-1.48c-.08-.16-.2-.29-.2-.43,0-.73,0-1.46,0-2.21l.49-.52v-1.51l-.66-.25c-.28.47-.78.93-.76,1.36.06,1-1,1.7-.39,2.82l-.9.73h-1c-.5-.51,0-1.12-.29-1.59l.55-.59v-1l-1.43-.7v2.64l-1.12,1.12c-.07,0-.13.12-.19.12h-2.47l-.21-.77-.9-1,.71-.71h1c.09.26.18.54.28.82a1.21,1.21,0,0,0,1.37-.08c-.58-.49-.93-1.26-1.91-1.35-.1-.69,0-1.4-.05-2l1.28-1.28h1.62l.68.95c.9.06,1.07-.63,1.54-.95h1l.49.46c.49.16.74-.21,1-.47h.77c.08,0,.19,0,.23,0,.58.56,1.15,1.13,1.64,1.62.32.72-.87.92-.34,1.6.22.32.58.1.84,0,.13.63-.21,1.2.32,1.6.33-.5.38-1-.32-1.6a1.88,1.88,0,0,0,0-.53c.33-.38.82-.7.93-1.11a1.85,1.85,0,0,1,.62-1c.34-.31,1-.1,1.1-.65h1.31l1.4.73v1.94l-.51.56.88.31.31.87c.63-.54.08-1.26.35-1.78l.46-.47v-2l.45-.44v-1l-.48-.6c0-.64.49-.76.69-1.09a3.39,3.39,0,0,1,1.69.11v2.1l-.38.39v1.07c.21.18.21.18,1.12-.73h1.58a1.28,1.28,0,0,1,.17.44c0,.65,0,1.3,0,2h-1.21l-.55-.52-.57.13c-.28.55,0,.8.33,1.07.18.56-.17,1.22.31,1.76.53-1.14.53-1.14,1.69-1.72Zm-8.74,1.66c-.28-.49.27-.65.42-.93,0-.53,0-1,0-1.49,0-.06-.1-.12-.2-.22a5.31,5.31,0,0,1-.49,1,7.1,7.1,0,0,1-.76.78c.12.64-.22,1.22.3,1.66ZM302,117.45c.16-.74.67-.79.68-1.23a.61.61,0,0,0-.91.09C301.86,116.53,301.91,116.8,302,117.45Zm-23.86-1.38a.58.58,0,0,0,0,1A.59.59,0,0,0,278.18,116.07Z"/><path d="M240.89,129.16c.64.13.34-.51.57-.75a7.06,7.06,0,0,1,.87-.86c.3-.22.72-.29,1-.54s.76-.15,1.16-.22l.55.48h1l.56,1.19,1.52-1.66c.61,0,1,.82,1.82.45l.5-.44h1l.82.93,1.75-.94h1.18c.56.51,1.48.53,1.81,1.27.11.67-.48.84-.76,1.19a.65.65,0,0,0,0,.9h1.11c.41-.31-.11-1.12.69-1.07V127l.44-.44.05-.81-.65-1.16,1-.73h1.38c.44.51.13,1.1.22,1.65l-.49.53v2l-.33.31c-.3.55-.12,1.11-.15,1.84l1.12.8-1.2,2.11h-1.78l-.2-1.34c-.77.19-.74.93-1.11,1.39h-1l-.51-.47-.45.45a15,15,0,0,1-2,0l-.7-.7v-2.93l-1.22-1.2-1.2,2.34v1.24a6.87,6.87,0,0,1-1.36,1.29l-.55-.15v-1.56l.38-.51v-1l-1.72-.77-.25.87.87.27c.36.51.1,1.09.16,1.5-.27.5-.48.91-.7,1.33h-4.4l-.64-.6c-.09-.45-.17-.89-.27-1.4l-2,2c-.57.2-1.27-.21-1.73.3-.21.57.38.71.43.93.12.66-.35.81-.53,1.1-.1.07-.17.15-.23.15h-1.89l-.74-.74c.47-.45.93-.91,1.42-1.4v-1.89l.48-.58v-1.14l-.73-.16c-.4-.48-.1-1.07-.19-1.62a6.36,6.36,0,0,1,1.47-1.33l.79.56h.9l.51-.48h1l1.21,1.22c0,.4,0,.81,0,1.14-.22.15-.48.28-.48.43,0,.35-.18.77.19,1.08C241.12,130.27,240.78,129.71,240.89,129.16Zm2.82,1.88c.17-.57,0-1,.32-1.33a.92.92,0,0,0,0-1.41c-.68-.19-.83.43-1.22.68v1l-.53.57c.17.33-.17.78.21,1.11l.52.06Zm-4.86-2.77c-1.16.36-.64,1.57-1.32,2.17-.21.19-.17.75.08,1.19.68.25.93-.37,1.32-.71V130l.48-.53c-.08-.4.17-.83-.21-1.15Zm15.19,2,1-.74-.47-.56.48-.61-.78-.12-.72,1.43v.72c-.18.38-.9.6-.24,1.28l.73-.14ZM259,131l.18.18a2.41,2.41,0,0,0,.15-.33s-.1-.11-.15-.16Z"/><path d="M264.08,131.59c-.38.55-.44,1.14-1,1.5h-1.49l-.57-.51c-.07-.11-.15-.17-.15-.23,0-.65,0-1.29,0-1.89l.45-.45.07-1.54.47-.46v-1.95l.46-.47-.95-1,.7-.7a15.6,15.6,0,0,1,2.16,0v1.24l-.44.44v2l-.45.45v1.33c-.16.48-1,.68-.31,1.34l.51-.4.55.45a4.35,4.35,0,0,1,.46-1.44c.37-.44.06-.94.28-1.31l.67-.67a3.15,3.15,0,0,0,.8,0c.21,0,.37-.3.58-.36a7.33,7.33,0,0,1,1-.16c.31.31.66.63,1,1s.63.43.71.84c-.08.06-.13.15-.2.16a4.41,4.41,0,0,1-.53,0l-.24.71a5.6,5.6,0,0,1-1.06.63,5.33,5.33,0,0,1-1.14.19c-.34.34-.08.77-.17,1.15.3.42.74.18,1.27.27l.65-.88c.75-.3,1,.13,1.26.36.48-.48.14-1.08.24-1.66l.46-.53v-1.9l.5-.54v-.92l-.49-.65c0-.65.55-.73.67-1.09a3.5,3.5,0,0,1,1.73.15v2.5l-.41.51v1.36c-.16.2-.32.37-.5.59v1l1,1.07a5.12,5.12,0,0,1-1.29,2.11h-1.55l-.25-1.36c-.12,0-.3,0-.33.1-.37.7-1.26.64-1.73,1.23h-2.14Zm3-2.79c.38-.1.75-.07.42-.49-.11.13-.22.26-.15.38-.38.11-.76.08-.43.5C267,129.06,267.14,128.93,267.07,128.8Z"/><path d="M90.44,48.78l.45-.45c.92-.11,2,0,3-.07.12-.11.23-.23.43-.43h2.93l1-1h1l.65.47c.72-.07.9-.73,1.36-1h1.46l.88.88c.51,0,.21-.46.44-.72l1.26-.66h.8l.51.48c.65.26.85-.77,1.49-.52a1.12,1.12,0,0,1,1.92,0l.46-.46h1.42l.56-.5h.47l.51.46.43-.43,1-.07.56-.41h1l.4.4.53-.43h.9l.56-.5h1c.43.27.17.72.32,1.23l-1.54,1.15h-1.26l-.5-.5-.68,1h-2.17l-.52-.46-.91.91h-2L110,46.9l-1.65.9H106l-.26.28c-.13.11-.19.2-.26.2h-2.89l-.45.45H98.76l-1,1-.53-1.07-.31,1c-.66.27-1.4,0-2.05.13l-.55-.51-.92.92h-2l-.6-.46-.18.8c0,.05-.1.15-.16.15-.87.07-1.74,0-2.66.05V49c.45-.33,1-.14,1.41-.17S90,48.78,90.44,48.78Z"/><path d="M180.66,36.1l-.51.48c-.5.2-.67-.31-1.05-.45l-.32.9h-2.87l-.62.49h-2L172.8,37l-.29.89c-.19.26-.54.1-.85.13a6.3,6.3,0,0,1-1,0c-.3,0-.64.14-1-.18V36.28c.44-.34.94-.14,1.4-.17s.81,0,1.24,0l.21-.24c.17-.14.23-.24.29-.24h2.9l.44-.44h2.39c1.62-1,1.62-1,3.11-.94l.34.35,1.67-.92h1.34l.5,1.08.28-.84,1.28-.68h1.38l.36.37,1.7-.89h.8l.51.46.53-.49h.94c.6-.44.6-.44,1.52-.41.37.5.1,1.08.18,1.66l-.76.66h-2l-.38-.38-1.62.92h-.88l-.37-.37c-.43,0-.63.53-1.19.42-.37-.07-.83.29-1.27.47l-.56-.48-.51.44h-.93l-.54.5Z"/><path d="M54.85,54.14l.35-.36a3.26,3.26,0,0,1,1.54-.1l1,.69.5-1.17h1.95l.49.42c.36-.53,1.15-.38,1.51-.93h1.44l.41.4,1.69-.87H67l.47.41,1.58-.92h1.39l.43.44.51-.39,1.06-.11c.3-.31.59-.6.88-.88.24.17.47.34.57.4.6.14.65-.35,1.27-.45h.64c.29-.28.52-.68,1.09-.36,0,0,.09,0,.09.1.07.71,0,1.42,0,2.17H73.8l-.65,1H71.42l-.47-1-1.36,1.44H68l-.36-.85c-.49,0-.21.46-.4.72l-1.29.66H63.17l-.53.49h-1l-.52-.46-.43.43-1.53.07-.41.41h-3.5l-.39-.39c-.44.09-.23.49-.4.79s-.54.11-.84.13a7.85,7.85,0,0,1-1,0c-.31,0-.65.11-1-.17v-1.6c.54-.34,1.12-.13,1.66-.17S54.36,54.14,54.85,54.14Z"/><path d="M288.9,108.76l-.9-.91-1.69.88h-2.37l-1.1-1.46v-2.2a2.69,2.69,0,0,1,.59-.57c.43-.24.22-.75.51-1a5,5,0,0,1,.74-.57c.26-.16.54-.26,1-.48h1.25c.42.44,1,.78,1.23,1.28.06.61-.42.74-.66,1.1h-1.11l-.4-1.08-1.18,1.78v1.62a3.4,3.4,0,0,0,1.73.13c.1-.26.2-.55.3-.83.51-.41.77.24,1.18.29.33-.52,0-1.1.22-1.69l.44-.48v-.93l.71-.72h.48l.51-.47h1.29l1.37.71v3.41c-.46.25-.38.82-.67,1.17s-.68.69-1,1Zm3-3.42.22-.58c-.31-.4-.5-.87-1.18-.88-.72.77-.75,2.1-1.83,2.68l.22.76c.42-.11.83.12,1.14-.12l.85-1.86Z"/><path d="M288.17,130.51v-1l.5-.54V128c.36-.75,1.27-.66,1.71-1.22h1.43a3,3,0,0,0,.57.47,2.69,2.69,0,0,0,.65.16v3.5l-.47.51v.48l-1.22,1.21h-2.42l-.95-.89-1.64.86h-2.4l-1.08-1.54v-2.12a3,3,0,0,1,.57-.55c.41-.24.25-.73.51-1a4.19,4.19,0,0,1,.73-.59,11.22,11.22,0,0,1,1-.47h1.09l1.35,1.17c.09.69-.39.83-.64,1.2H286.4c-.12-.3-.24-.58-.4-1l-1.2,1.59v1.7c.56.38,1.14,0,1.63.22a8.56,8.56,0,0,1,.92-.9A3.36,3.36,0,0,1,288.17,130.51Zm2.26,1.12c.24-.66.58-1.25.85-1.83l.77-.26c.11-.71-.43-.91-.7-1.28h-.49c-.56.89-.78,2-1.74,2.67l.12.7Z"/><path d="M141.17,42.44l-.52.47-.43-.43-.53.4h-2.42l-.47-.37c-.43.06-.22.45-.32.7,0,0-.11.16-.16.16h-2.49l-.53-.48-.27.84a1.45,1.45,0,0,1-.42.16h-2.22a2.58,2.58,0,0,1-.13-1.79c.09-.06.15-.15.21-.15h2.37l.58.5.36-1h2.49l.46-.46h3.35l.59-.5h1.44l.48.43,1.57-.92h1.4l.4.39,1.69-.87h1.29l.49.43.51-.45h1.14l.73-1,.8.77v1l-1.21,1.21h-1.49l-.49-1.05c-.39.84-1.25,1-2,1.5h-2.21l-.83.57-1.09-.6-.74.56Z"/><path d="M244.53,136.06l.71.72v1.06l-1.11.89.6,1-.89.88v1.64l.72.57.7-.7v-1c.68-.5,1.1-1.33,1.94-1.69.35-.14.67-.35,1-.47a1.8,1.8,0,0,1,.61,0l1.78,1.68v2l-.41.41c0,.32-.07.7-.11,1.08l-.68.69h-1l-.51.48h-2l-.69-.7,0-.47c-.2-.33-.48-.35-.88-.18l-.14.68-.64.62H242c-.08-.12-.16-.19-.16-.25v-3.35c.32-.32.6-.61.89-.89l-.52-1,1.09-.87v-1.3l-1-.75.77-.79Zm2.23,7.8h1.17l.75-1.39c-.08-.64.16-1.36-.19-2H248c-.71.41-.79,1.25-1.2,1.79Z"/><path d="M260.86,143.17l0,.48c.49.45,1.08.12,1.72.23.26-.32.56-.69.87-1.09.29.42.73.58.8,1-.09,1-1.18.89-1.69,1.5h-2.45l-.68-.63v-3.06c.39-.54.39-.54.44-1.42.2-.19.46-.64.77-.67s.68-.35.95-.51h1.44l.68.65.16.76c.63-.33,1.06-.73.92-1.42h1.64l.5.46c.37.1.58-.12.85-.31a2.29,2.29,0,0,1,.9-.21c.62.3,1,.88,1.42,1.28.06.7-.41,1-.94,1.21-.63,0-.8-.71-1.28-1l-.7.7v1l-.49.54v1.94l-.69.67h-1.12a3.39,3.39,0,0,1-.1-1.69l.39-.4V142.1c-.4-.24-.91-.24-1.14-.58a18,18,0,0,1-1.84.87C261.43,142.65,261.41,142.59,260.86,143.17Zm1.22-1.71c.32-.44.46-.75-.07-1C261.75,140.79,261.76,141.06,262.08,141.46Z"/><path d="M254,142a7.38,7.38,0,0,0,.93-.81l-.5-.73c.21-.7.87-1,1.25-1.5l.71.67v1.56l-.39.39v2.14a.84.84,0,0,0,.86-.62,1.34,1.34,0,0,1,.55-.95v-1l-.47-.51v-1l.71-.71h1c.05,0,.16.09.16.14.06,1,.1,1.91.15,2.88l-.49.63v1.51L257,145.28h-4.08l-1.26-1.13v-1c.28-.3.66-.53.35-1.08l-.81-.3v-1.59l1.25-1.15c.38-.09.56.19.82.37a2.93,2.93,0,0,0,.81.3V142a.51.51,0,0,0-.43,0,3.09,3.09,0,0,0,.18,1.89C254.22,143.24,254,142.55,254,142Z"/><path d="M202.41,105.69v-1.1l.66-.71h13.71l.64.87v.92C215.27,105.88,205,105.89,202.41,105.69Z"/><path d="M294.51,129.84l-.84-.21c-.31-.35,0-.77-.1-1,.22-.47.39-.81.61-1.26l.61-.16.46-.43h1c.08.13.23.26.23.39,0,.89,0,1.78,0,2.72l-.43.51v1.18l.69.06.72-1.37V129l.5-.53v-1l.71-.71h.48c.05,0,.16.09.16.14,0,1,.09,1.92.14,3l.41.51v1.95l-.62.67h-4l-.68-.67Z"/><path d="M296.46,105.58l-.48.5v1l.64.21.82-1.38v-1.19a2.1,2.1,0,0,0,.45-1.67l.79-.68.51,0c.06.06.16.12.16.17,0,1,0,1.94,0,2.9l.51.55v2l-.74.68h-3.88l-.71-.65v-2.59l-.78-.2c-.93-.86.39-1.46.36-2.23l1.43-.65c.45.07.57.54.91.7Z"/><path d="M210.51,141.54l.18-.9c.46-.42,1.05-.1,1.58-.19.35.13.49.71,1.18.35l.37-.35h1.47a2.55,2.55,0,0,1,.16,1.78c-.08.07-.14.16-.2.17H210.9l-.52-.47-.35.35c-.07,0-.13.12-.19.12H208l-.45-.44-.52.4h-4.45c-.39-.55,0-1.13-.24-1.62.52-.54,1.12-.19,1.64-.29.38.09.5.7,1.21.35l.37-.34H207l.52,1.1c.34-.43.64-.8.86-1.09h1.07Z"/><path d="M279.4,130.55a2.1,2.1,0,0,0-.84-.43c-.28-.52-.09-1.08-.13-1.61l1.71-1.71h1c.28.28.57.56.84.85s.87-.08.86.57c-.05.14-.05.32-.15.41-.27.29-.57.55-.86.82l.39.39a1.66,1.66,0,0,1,.12.42c0,.56,0,1.12,0,1.73a3.47,3.47,0,0,0-.84.3,7.57,7.57,0,0,0-.86.84h-2.41c-.25-.75-1-1.34-.69-2.33.61-.23,1.25,0,1.88-.25,0,.44,0,.73.05,1.12l.92-.07A2.17,2.17,0,0,0,279.4,130.55Zm.48-1.56a.58.58,0,0,0,1,0c0-.26.15-.61-.3-.67Z"/><path d="M279.39,106.17a2,2,0,0,0-.84-.44,3,3,0,0,1-.1-1.5l1.68-1.81h.78a1.69,1.69,0,0,1,.4.21c.51.49,1,1,1.5,1.49l-.95.95.44.52v1.91c-.55.37-1.31.49-1.55,1.23h-2.59c-.15-.73-1-1.28-.64-2.25.25-.31.6-.13.9-.16s.65,0,1,0c0-.1,0-.2,0-.15,0,.44,0,.73.06,1.12l.92-.07A2.14,2.14,0,0,0,279.39,106.17Zm1.25-2.69c-.16.74-.67.78-.68,1.23.29.22.56.23.91-.1C280.83,104.4,280.77,104.13,280.64,103.48Z"/><path d="M302.81,130.14a2.48,2.48,0,0,0,.73.07l.7.72c.38.61-.73.82-.45,1.45l-1.38.71H301a8.35,8.35,0,0,0-.36-.85,5,5,0,0,0-.39-.6l.59-.79v-1.39c.31-.29.64-.54.38-1.06l-.84-.31V127c.36-.36.79-.11,1.17-.19.59-.51,0-1.23.33-1.8.34-.31.76-.07,1.14-.15l.68.69c-.13.33-.63.5-.4,1.08l.77.25c.33.34.08.76.19,1.24l-1.4.25a6.72,6.72,0,0,0-.08,1.78c-.21.15-.47.28-.47.42,0,.36-.18.77.19,1.09C303.05,131.25,302.7,130.69,302.81,130.14Z"/><path d="M302.79,105.75a2.37,2.37,0,0,0,.74.08c.23.32.66.47.74,1l-.67,1.35a1.76,1.76,0,0,0-.43.15,6,6,0,0,0-.65.45h-1.38l-.83-1.4.5-.88v-1.09c.13-.52.71-.66.5-1.23l-.94-.46v-1c.31-.53.9-.06,1.34-.38.28-.29,0-.72.12-1.1.32-.22.47-.66.91-.72s.63.44.95.65l-.51,1,1.07.53v1c-.3.53-.89.08-1.29.34-.38.59,0,1.25-.17,1.79-.19.16-.45.29-.45.43,0,.36-.18.77.19,1.09C303.05,106.87,302.7,106.3,302.79,105.75Z"/><path d="M78.46,50.23H79.7l.53-.45.42.42.49-.39h2.53l.47.47.27-.83c.07-.07.12-.18.18-.18.81,0,1.63,0,2.46,0a2.5,2.5,0,0,1,.15,1.78c-.09.07-.15.16-.21.16H84.61L84,50.73l-.35.93H81.13l-.39-.39c-.43.09-.23.48-.35.73s-.58.17-.88.19a8,8,0,0,1-1,0c-.3,0-.64.13-1-.2l-.06-1.09Z"/><path d="M159.68,39.51l-.33.34a1.54,1.54,0,0,1-.43.14c-.89,0-1.78,0-2.65,0l-.39.39a23.57,23.57,0,0,1-2.5.14c-.12-.13-.22-.18-.23-.24-.1-.55,0-1.09-.07-1.69l1.77-.1.38-.39.79.49.77-.49h2l.47.47.27-.85c.24-.32.59-.13.9-.16a5.13,5.13,0,0,1,1,0c.31,0,.65-.15.95.2v1.56c-.47.33-1,.14-1.42.18S160.09,39.51,159.68,39.51Z"/><path d="M126.53,43.41l.81-.83c.4-.26.8-.1,1.19-.14s.64,0,1,0a3,3,0,0,1,.08,1.91h-2.54l-1,1h-2l-.51-.5-.54,1h-2.29c-.06,0-.12-.1-.23-.18V44.09c.52-.37,1.1-.12,1.64-.19l.52-.49Z"/><path d="M205.22,116.72l.81-.64H208l.64.56,1-.53h1.89c.33.57.13,1.14.16,1.68-.13.08-.26.22-.39.22h-8.67c-.35-.64-.08-1.21-.22-1.72.74-.51,1.49,0,2.13-.29Z"/><path d="M166.52,38.54,166,38l-.33.94H163c-.37-.51-.1-1.09-.18-1.63.12-.09.24-.25.37-.25.8,0,1.6,0,2.31,0l.44.43c.43-.09.23-.48.35-.73s.58-.17.88-.19a8,8,0,0,1,1,0c.3,0,.64-.13,1,.19v1.58c-.45.33-.95.14-1.41.17S166.92,38.54,166.52,38.54Z"/><path d="M215.27,117.54l-.34.33a1.39,1.39,0,0,1-.42.14c-.72,0-1.44,0-2.17,0-.41-.3-.17-.74-.25-1.16l.59-.65c.55-.3,1.11,0,1.59-.17l1,1,1-.94c.64-.08.77.41,1.14.65v1.1c-.51.42-1.1,0-1.58.24Z"/><path d="M164.6,87.83l.4.4,1.13.11a3.59,3.59,0,0,1,.1,1.68c-.33.38-.76.13-1.13.21a2.63,2.63,0,0,1-1-1.45l-.8,1.39h-1.21c-.36-.51-.1-1.09-.17-1.63.12-.09.23-.25.36-.25.56,0,1.13,0,1.69,0C164.13,88.24,164.31,88,164.6,87.83Z"/><path d="M273.79,131.19l-.68-.68v-1.1c.12-.09.18-.17.24-.17,1,0,1.92,0,2.87,0,.34.23.24.57.25.87s0,.62,0,.85c-.16.13-.22.22-.28.22Z"/><path d="M307.69,89.1c0-.34.48-.49.71-.82H309l1,.62c.11.78-.38.91-.64,1.29l-1.08.06Z"/><path d="M232.59,89.5l-.73.69h-1c-.41-.34.09-1.12-.82-1.06l.81-.81h1.56C232.74,88.7,232.5,89.11,232.59,89.5Z"/><path d="M223.52,88.24l.7.69-.58,1.22c-.3.23-.7,0-1,.09l-.69-.69v-1.1C222.47,88.11,223,88.4,223.52,88.24Z"/><path d="M122.38,88.5v1l-.76.67h-1c-.27-.4-.2-1-.68-1.18l.69-.68C121.21,88.31,121.83,88.12,122.38,88.5Z"/><path d="M113.31,88.22,114,89a7.92,7.92,0,0,0-.42.69,3.73,3.73,0,0,0-.2.59h-1l-.68-.7V88.46C112.24,88.08,112.81,88.42,113.31,88.22Z"/><path d="M51.23,90.23V88.46c.54-.35,1.11-.12,1.64-.18.44.27.19.71.35,1.25l-1.12.7Z"/><path d="M55.6,90.18l-1.32.07-.65-1v-.74a2.66,2.66,0,0,1,1.78-.15C55.74,88.87,55.51,89.43,55.6,90.18Z"/><path d="M61.43,88.36v1.15l-.73.67H59.64c-.31-.56-.1-1.12-.17-1.69A3.08,3.08,0,0,1,61.43,88.36Z"/><path d="M61.91,88.31h1.77c.35.55.12,1.11.19,1.65-.27.44-.71.2-1.29.3l-.67-1.08Z"/><path d="M69.67,88.28l.07,1.29-1.09.66H68c-.08-.13-.22-.25-.23-.38a6.87,6.87,0,0,1,0-1.2.39.39,0,0,1,.47-.38C68.65,88.3,69.05,88.28,69.67,88.28Z"/><path d="M72.15,90.19l-1.29.06-.65-1v-.82A2.7,2.7,0,0,1,72,88.34c.07.08.17.14.17.2C72.16,89,72.15,89.49,72.15,90.19Z"/><path d="M76.09,90.23V88.46c.55-.35,1.11-.12,1.64-.18.45.27.2.71.36,1.25l-1.13.7Z"/><path d="M78.49,88.32h1.75c.27.25.27.25.05,1.87l-1.13.06-.67-1.14Z"/><path d="M84.38,90.23V88.46c.55-.35,1.11-.12,1.64-.18.45.27.2.71.35,1.25l-1.12.7Z"/><path d="M88.76,90.19H87.43l-.64-1v-.71a2.69,2.69,0,0,1,1.79-.13C88.88,88.88,88.67,89.45,88.76,90.19Z"/><path d="M93.43,90.22h-.58a2.64,2.64,0,0,1-.15-1.77c.08-.07.13-.17.19-.17.48,0,1,0,1.44,0,.43.28.19.71.29,1.26Z"/><path d="M97,90.18l-1.29.07-.66-1.09v-.64c.13-.08.25-.22.38-.23a7.89,7.89,0,0,1,1.19,0,.4.4,0,0,1,.39.48C97,89.16,97,89.56,97,90.18Z"/><path d="M102.83,88.25l.07,1.29-1.24.68h-.52a2.6,2.6,0,0,1-.15-1.78C101.51,88.11,102.08,88.34,102.83,88.25Z"/><path d="M105.27,88.25V90c-.35.4-.79,0-1.15.25l-.71-.81v-1C104,88.12,104.52,88.34,105.27,88.25Z"/><path d="M130.63,88.25v1.36l-.82.61h-.89a2.76,2.76,0,0,1-.13-1.79C129.33,88.13,129.89,88.34,130.63,88.25Z"/><path d="M133.11,90.19l-1.29.06-.66-1v-.82a2.71,2.71,0,0,1,1.77-.14c.07.08.17.14.17.2C133.11,89,133.11,89.49,133.11,90.19Z"/><path d="M136.87,88.32h1.89c.37.36.11.78.21,1.19l-.75.67h-1C136.82,89.63,137.15,89.06,136.87,88.32Z"/><path d="M141.4,90.19l-1.29.06-.66-1v-.82a2.7,2.7,0,0,1,1.77-.14c.07.08.17.14.17.2C141.4,89,141.4,89.49,141.4,90.19Z"/><path d="M145.15,88.32h1.9c.37.36.11.78.21,1.19l-.75.67h-1C145.11,89.63,145.44,89.06,145.15,88.32Z"/><path d="M149.69,90.18l-1.29.07-.66-1.09v-.64c.12-.08.24-.22.37-.23a8,8,0,0,1,1.2,0,.4.4,0,0,1,.38.48C149.67,89.16,149.69,89.56,149.69,90.18Z"/><path d="M153.56,88.32h1.78c.4.34.06.78.26,1.15l-.83.72h-1C153.42,89.64,153.65,89.07,153.56,88.32Z"/><path d="M156.79,90.26l-.71-.71v-1.1c.57-.35,1.13,0,1.65-.22a2.67,2.67,0,0,1,.18,1.83C157.55,90.42,157.12,90.09,156.79,90.26Z"/><path d="M171,90.22h-.58a2.66,2.66,0,0,1-.15-1.78c.53-.32,1.1-.1,1.63-.16.43.28.2.71.29,1.26Z"/><path d="M174.56,90.18l-1.29.07-.67-1.09v-.64c.13-.08.25-.22.38-.23a8,8,0,0,1,1.2,0,.4.4,0,0,1,.38.48C174.53,89.16,174.56,89.56,174.56,90.18Z"/><path d="M181.17,90.26l-.71-.71v-1.1c.57-.35,1.13,0,1.66-.22a2.72,2.72,0,0,1,.17,1.83C181.93,90.42,181.5,90.09,181.17,90.26Z"/><path d="M186.23,88.32H188c.4.34.06.78.26,1.15l-.83.72h-1C186.09,89.64,186.32,89.07,186.23,88.32Z"/><path d="M190.6,88.28V90c-.34.37-.76.11-1.19.21l-.68-.85s0-.27,0-.5,0-.64.48-.62S190,88.28,190.6,88.28Z"/><path d="M196.53,89.46l-.71.71h-1.11a3.75,3.75,0,0,1-.15-1.69,2.7,2.7,0,0,1,1.77-.14C196.69,88.7,196.36,89.13,196.53,89.46Z"/><path d="M197,89.49v-1c.55-.4,1.17-.2,1.84-.18a3.69,3.69,0,0,1,0,1.84h-1.17Z"/><path d="M204.06,90.23h-1c-.58-.54,0-1.19-.3-1.73.7-.44,1.3-.09,2-.28v1.33Z"/><path d="M207.18,88.25V90c-.35.37-.77.11-1.19.21l-.67-.78v-1C205.86,88.11,206.43,88.34,207.18,88.25Z"/><path d="M211.17,90.23V88.48c.25-.25.25-.25,1.87,0l.06,1.13-1.14.67Z"/><path d="M215.48,88.25V90c-.36.4-.8,0-1.15.25l-.72-.81v-1C214.16,88.12,214.73,88.34,215.48,88.25Z"/><path d="M238.92,88.32h1.76c.36.34.11.76.21,1.2l-.81.67c-.08,0-.31,0-.54,0s-.64,0-.62-.48S238.92,88.94,238.92,88.32Z"/><path d="M241.36,88.31h1.76c.36.55.13,1.11.19,1.65-.27.44-.71.19-1.26.35-.16-.28-.37-.61-.69-1.13Z"/><path d="M249.17,89.5l-.71.68h-1.07c-.36-.56,0-1.13-.23-1.65a2.59,2.59,0,0,1,1.82-.19C249.32,88.69,249.08,89.11,249.17,89.5Z"/><path d="M251.56,88.25V90c-.35.37-.78.11-1.2.21l-.67-.81v-1C250.24,88.11,250.8,88.34,251.56,88.25Z"/><path d="M257.41,88.25v1.36l-.82.61h-.89a2.76,2.76,0,0,1-.13-1.79C256.11,88.13,256.67,88.34,257.41,88.25Z"/><path d="M259.85,88.25V90c-.36.38-.79.12-1.19.22l-.68-.76v-1C258.54,88.12,259.1,88.34,259.85,88.25Z"/><path d="M265.7,88.28l.06,1.29-1.09.66H264c-.09-.13-.23-.25-.24-.38a8,8,0,0,1,0-1.2.39.39,0,0,1,.47-.38C264.67,88.3,265.07,88.28,265.7,88.28Z"/><path d="M268.2,90.18l-1.29.07L266.23,89v-.52a2.66,2.66,0,0,1,1.78-.15C268.34,88.87,268.12,89.43,268.2,90.18Z"/><path d="M274,88.28c0,.45,0,.76.06,1.29l-1.09.66h-.63c-.09-.13-.23-.25-.24-.38a8,8,0,0,1,0-1.2.39.39,0,0,1,.47-.38C273,88.3,273.36,88.28,274,88.28Z"/><path d="M276.49,90.19l-1.31.06-.66-1v-.82a2.76,2.76,0,0,1,1.79-.14C276.63,88.87,276.41,89.44,276.49,90.19Z"/><path d="M280.34,88.32h1.78c.37.35.12.77.21,1.19l-.8.68h-1C280.21,89.64,280.43,89.07,280.34,88.32Z"/><path d="M284.78,90.19l-1.31.06-.66-1v-.82a2.73,2.73,0,0,1,1.78-.14C284.92,88.87,284.7,89.44,284.78,90.19Z"/><path d="M289.77,90.24l-.92,0c-.35-.57-.13-1.13-.19-1.69.55-.4,1.17-.2,1.76-.18.36.34.1.77.2,1.18Z"/><path d="M291.1,88.31h1.76c.36.55.12,1.11.19,1.65-.27.44-.72.19-1.26.35l-.69-1.13Z"/><path d="M298.06,90.24l-.92,0c-.35-.57-.13-1.13-.19-1.69.55-.4,1.17-.2,1.76-.18.36.34.1.77.2,1.18Z"/><path d="M300.11,90.23l-.67-.71V88.45c.56-.35,1.13,0,1.65-.23a2.61,2.61,0,0,1,.18,1.83C300.92,90.39,300.5,90.14,300.11,90.23Z"/><path d="M202.39,130.24v-1.78c.37-.37.79-.11,1.19-.21l.67.73v1.07C203.69,130.35,203.13,130.15,202.39,130.24Z"/><path d="M210.62,128.3H212l.61.82V130c-.56.54-1.2,0-1.73.27C210.5,129.6,210.7,129,210.62,128.3Z"/><path d="M144.26,89.18l-.67,1c-.77.1-.81-.58-1.2-.65V88.5c.57-.52,1.19,0,1.69-.24A.92.92,0,0,1,144.26,89.18Z"/><path d="M151.64,90.23c-.48,0-.61-.48-.93-.68V88.43c.57-.29,1.12-.1,1.66-.15.41.29.18.72.28,1.28Z"/><path d="M159,89.5v-1c.54-.41,1.16-.19,1.75-.19.19.19.19.19.2,1.15l-.74.74C159.48,90.32,159.32,89.75,159,89.5Z"/><path d="M169.15,88.25l0,1.07c-.11.36-.15.4-1,.91-.47,0-.59-.48-.92-.68V88.44C167.84,88.13,168.4,88.34,169.15,88.25Z"/><path d="M177.38,88.28l.11.7-1.18,1.23c-.76.08-.93-.42-1.17-.7l.63-1.23Z"/><path d="M178.93,88.28h.75c.4.29.18.72.27,1.28l-1,.67h-.74c-.41-.29-.18-.72-.27-1.28Z"/><path d="M185.23,88.44v1.11c-.22.22-.45.44-.67.67-.61.18-.78-.41-1.18-.63,0-.25,0-.47,0-.7s0-.66.48-.61S184.75,88.15,185.23,88.44Z"/><path d="M193.53,88.25v1.18a1.36,1.36,0,0,1-1,.8c-.45,0-.58-.48-.9-.68V88.43C192.24,88.14,192.79,88.33,193.53,88.25Z"/><path d="M200.89,90.23c-.48,0-.61-.48-.93-.68V88.43c.57-.29,1.12-.1,1.66-.15.41.29.18.72.28,1.28Z"/><path d="M210.09,89.18l-.67,1c-.77.1-.82-.58-1.21-.65v-1c.25-.25.25-.25,1.79-.14C210.3,88.71,210.07,89.12,210.09,89.18Z"/><path d="M216.53,89.59V88.41a3,3,0,0,1,1.86,0v1.16c-.22.22-.45.44-.67.67C217.11,90.4,216.94,89.81,216.53,89.59Z"/><path d="M221.37,88.36v.9l-.62.93c-.86.14-.93-.53-1.33-.63V88.47A3.18,3.18,0,0,1,221.37,88.36Z"/><path d="M224.82,89.53V88.44c.62-.35,1.22,0,1.86-.21v1.32c-.3.22-.47.63-.83.71a2.38,2.38,0,0,1-.48-.19A5.52,5.52,0,0,1,224.82,89.53Z"/><path d="M229.62,88.25l.06,1.31-1.32.81c-.05,0-.22-.58-.61-.78V88.44C228.31,88.13,228.87,88.34,229.62,88.25Z"/><path d="M233.07,89.5v-1c.54-.41,1.16-.19,1.75-.19.37.32.12.75.21,1.15l-.63.73C233.6,90.32,233.44,89.75,233.07,89.5Z"/><path d="M236,89.53V88.44c.63-.35,1.22,0,1.87-.21v1.32c-.31.22-.48.63-.83.71a2.27,2.27,0,0,1-.49-.19A6.86,6.86,0,0,1,236,89.53Z"/><path d="M245.26,90.23c-.5,0-.57-.53-.92-.63V88.43c.56-.29,1.12-.1,1.65-.15.41.29.19.72.28,1.28Z"/><path d="M254.47,88.44v1.11c-.3.22-.47.63-.61.66-.79.06-.86-.48-1.24-.6,0-.27,0-.49,0-.72s0-.66.48-.61S254,88.15,254.47,88.44Z"/><path d="M262.76,88.44v1.11c-.3.22-.47.63-.61.66-.79.06-.86-.48-1.24-.6,0-.27,0-.49,0-.72s0-.66.48-.61S262.28,88.15,262.76,88.44Z"/><path d="M271.1,88.35v.91l-.62.93c-.85.14-.92-.53-1.32-.63V88.49C269.81,88.09,270.46,88.33,271.1,88.35Z"/><path d="M279.34,88.13l.07,1.19a1.48,1.48,0,0,1-1,.91c-.46,0-.53-.51-.9-.62V88.46C278,88.08,278.6,88.42,279.34,88.13Z"/><path d="M286.71,90.23c-.5,0-.57-.53-.93-.63V88.43a4,4,0,0,1,1.66-.15c.41.29.19.72.28,1.28Z"/><path d="M295.92,88.13l.06,1.19a1.45,1.45,0,0,1-1,.91c-.46,0-.53-.51-.91-.62V88.46C294.61,88.08,295.18,88.42,295.92,88.13Z"/><path d="M204.83,130.23v-1.17a1.34,1.34,0,0,1,1-.8c.45,0,.58.48.9.68v1.11C206.12,130.35,205.57,130.15,204.83,130.23Z"/><path d="M304.21,88.44v1.11c-.3.22-.47.63-.61.66-.79.06-.86-.48-1.24-.6,0-.27,0-.49-.05-.72s0-.66.48-.61S303.73,88.15,304.21,88.44Z"/><path d="M306.22,90.71l-1-1.53v-.67c.55-.56,1.2,0,1.68-.26.44.43.18.85.23,1.06Z"/><path d="M207.76,130.24l-.07-1.32.91-.5c.43-.28.66.21,1,.53V130C209.07,130.37,208.51,130.15,207.76,130.24Z"/><path d="M214.3,128.26l.68.69v1.1c-.56.3-1.11.1-1.65.16-.42-.28-.19-.71-.29-1.26l1.34-.69Z"/><path d="M136,89.27l-.57.93c-.83.09-1-.46-1.31-.75v-1a2.7,2.7,0,0,1,1.77-.14C136.23,88.69,135.89,89.12,136,89.27Z"/><path d="M125.79,89.56V88.5a2.64,2.64,0,0,1,1.77-.17c.35.34.1.76.16,1l-.7.84C126.28,90.34,126.2,89.66,125.79,89.56Z"/><path d="M122.87,89.56V88.5a2.61,2.61,0,0,1,1.76-.17c.36.34.1.76.17,1l-.71.84C123.35,90.34,123.27,89.66,122.87,89.56Z"/><path d="M119.42,88.25v1.18a1.4,1.4,0,0,1-1,.8c-.45,0-.58-.48-.9-.68V88.43C118.12,88.14,118.68,88.33,119.42,88.25Z"/><path d="M114.62,89.59V88.41a3,3,0,0,1,1.86,0v1.16c-.23.22-.45.44-.67.67C115.2,90.4,115,89.81,114.62,89.59Z"/><path d="M110.2,90.23c-.49,0-.62-.48-.94-.68V88.43a4,4,0,0,1,1.66-.15c.41.29.19.72.28,1.28Z"/><path d="M108.24,88.36v.9l-.62.93c-.86.14-.93-.53-1.33-.63V88.47A3.19,3.19,0,0,1,108.24,88.36Z"/><path d="M99.91,88.25l0,1.08c-.17.5-.63.65-.77.9-.69,0-.81-.48-1.14-.68V88.44C98.6,88.13,99.16,88.34,99.91,88.25Z"/><path d="M89.71,88.31h1.74c.38.36.13.78.19,1l-.71.84c-.74.14-.81-.54-1.22-.64Z"/><path d="M82.15,90.23l-.68-.69v-1.1c.55-.31,1.11-.1,1.64-.16.43.27.2.71.3,1.28l-1.1.67Z"/><path d="M73.92,90.22c-.3,0-.42-.47-.74-.67V88.43c.57-.29,1.12-.1,1.66-.15.41.29.18.72.27,1.26Z"/><path d="M64.84,89.56V88.5a2.61,2.61,0,0,1,1.76-.17c.36.34.11.76.17,1l-.7.84C65.33,90.34,65.25,89.66,64.84,89.56Z"/><path d="M58.46,88.25l0,1.08c-.17.5-.62.65-.77.9-.69,0-.81-.48-1.14-.68V88.44C57.15,88.13,57.71,88.34,58.46,88.25Z"/><path d="M216,129l.85-.8.65.92V130c-.39.49-.87.06-1.2.26C215.81,129.79,216.14,129.37,216,129Z"/><path d="M217.47,142.36H216.2c-.36-.34-.11-.76-.21-1.2.21-.17.46-.36.82-.62.27,0,.33.51.66.6Z"/><path d="M254.39,23h3.36l.72-1h3.09l.4-.37c.47-.32,1.06,0,1.53-.17l.56.51L265,21h2l.47.39,1.64-.91h1.35l.51,1.08.26-.85,1.29-.68h2.9c.67-.11.86-.91,1.49-.38a3.39,3.39,0,0,1,.07,1.59l-.69.7h-1.46l-.57-.53c-.18.07-.4.14-.6.23s-.41.19-.61.3-.39.23-.73.44h-2.65l-.94.6-.75-.49-.48.42H266l-.63.58-.92-.52-.38.38h-2.35l-.64.5h-3l-.7,1a19.29,19.29,0,0,1-2.3,0A5.36,5.36,0,0,0,254.39,23Z"/><path d="M287.2,18.68v1.08c-.06,0-.11.16-.17.16h-3l-.68,1h-1.79l-.93-1.31c-.15.79-.23,1.23-.31,1.67-.06.05-.12.14-.18.14-.64,0-1.29,0-1.92,0l-.72-.71v-1c.09-.08.19-.26.31-.28a2.09,2.09,0,0,0,1.31-.36,1,1,0,0,1,1.49.32l.53-.43h1.39l.57-.5H284l.55-.5h1.92Z"/><path d="M254.53,23.42v1.23l-.69.66h-2.05l-.48-.47c-.1.31-.18.58-.27.85-.06,0-.11.16-.17.16h-2.43l-.55-.51-.31.87c-.06,0-.12.12-.19.12H245a3.06,3.06,0,0,1-.07-1.92h2.06l.48-.48.51.4.51-.42h2.41l.55.49c.09-.29.19-.56.28-.84a1.42,1.42,0,0,1,.42-.15C252.91,23.41,253.72,23.42,254.53,23.42Z"/><path d="M287,18.52l.93-.93h1.95l.5.45,1-.94h1.93l.57.47.35-.93h2.57c.34.55.12,1.12.17,1.67-.47.49-1.07.18-1.6.23s-1.11,0-1.56,0l-.47.46h-2.39l-.56.5h-2.43C287.48,19.38,287.92,18.5,287,18.52Z"/></g></g></svg>