<svg xmlns="http://www.w3.org/2000/svg" viewBox="0 0 150.05 150.05"><title>Recurso 50MANDALA</title><g id="Capa_2" data-name="Capa 2"><g id="Capa_1-2" data-name="Capa 1"><path d="M46.33,122.18c5.18-19.32,19.2-32.35,31.31-29.1,4.41,1.18,8,4.36,10.43,8.84-2.38-6.66-6.63-11.47-12.29-13C63.66,85.68,49.64,98.71,44.47,118c-3.3,12.3-2.21,24.17,2.13,32C43.88,142.46,43.58,132.47,46.33,122.18Z"/><path d="M88.08,128.66c-10-17.33-9.3-36.45,1.56-42.72,4-2.28,8.7-2.54,13.63-1.12-6.4-3-12.8-3.43-17.88-.5-10.86,6.27-11.56,25.4-1.56,42.72,6.36,11,15.52,18.65,24.14,21.13C100.69,144.73,93.41,137.88,88.08,128.66Z"/><path d="M122.18,103.71c-19.32-5.17-32.35-19.19-29.1-31.31,1.18-4.4,4.36-7.94,8.84-10.43-6.66,2.39-11.47,6.63-13,12.3-3.25,12.11,9.78,26.13,29.1,31.31,12.3,3.29,24.17,2.21,32-2.13C142.46,106.16,132.47,106.47,122.18,103.71Z"/><path d="M128.66,62c-17.33,10-36.45,9.31-42.72-1.55-2.28-4-2.54-8.71-1.12-13.64-3,6.4-3.43,12.81-.5,17.89,6.27,10.86,25.4,11.56,42.72,1.56,11-6.37,18.65-15.53,21.13-24.15C144.73,49.36,137.88,56.64,128.66,62Z"/><path d="M103.71,27.86C98.54,47.18,84.52,60.21,72.4,57,68,55.79,64.46,52.61,62,48.12c2.39,6.67,6.63,11.48,12.3,13C86.38,64.36,100.4,51.33,105.58,32c3.29-12.29,2.21-24.16-2.13-32C106.16,7.59,106.47,17.58,103.71,27.86Z"/><path d="M62,21.39c10,17.32,9.31,36.45-1.55,42.72-4,2.28-8.71,2.54-13.64,1.12,6.4,3,12.81,3.42,17.89.49C75.52,59.45,76.22,40.33,66.22,23,59.85,12,50.69,4.36,42.07,1.87,49.36,5.32,56.64,12.17,62,21.39Z"/><path d="M27.86,46.33C47.18,51.51,60.21,65.53,57,77.64c-1.18,4.41-4.36,8-8.85,10.43,6.67-2.38,11.48-6.63,13-12.29C64.36,63.66,51.33,49.64,32,44.47,19.72,41.17,7.85,42.26,0,46.6,7.59,43.88,17.58,43.58,27.86,46.33Z"/><path d="M21.39,88.08c17.32-10,36.45-9.3,42.72,1.56,2.28,4,2.54,8.7,1.12,13.63,3-6.4,3.42-12.8.49-17.88C59.45,74.53,40.33,73.83,23,83.83,12,90.19,4.36,99.35,1.87,108,5.32,100.69,12.17,93.41,21.39,88.08Z"/><path d="M41.24,68.91c12.37-1.32,23.07,3.91,23.89,11.67a10.73,10.73,0,0,1-2.81,8c3.34-2.88,5.18-6.42,4.8-10-.82-7.76-11.52-13-23.89-11.67-7.87.83-14.51,4.11-18.1,8.38C28.93,72,34.66,69.6,41.24,68.91Z"/><path d="M46.81,94.58C54.63,84.91,65.89,81,72,85.94a10.75,10.75,0,0,1,3.7,7.67c.33-4.39-.87-8.2-3.71-10.49-6.07-4.91-17.32-1-25.14,8.63-5,6.16-7.36,13.18-6.87,18.74C40.3,105.49,42.65,99.73,46.81,94.58Z"/><path d="M68.91,108.8c-1.32-12.37,3.91-23.06,11.67-23.88a10.72,10.72,0,0,1,8,2.8c-2.88-3.34-6.42-5.18-10-4.79-7.76.82-13,11.51-11.67,23.88.83,7.87,4.11,14.52,8.38,18.11C72,121.12,69.6,115.39,68.91,108.8Z"/><path d="M94.58,103.23C84.91,95.41,81,84.16,85.94,78.09a10.74,10.74,0,0,1,7.67-3.69c-4.39-.33-8.2.87-10.49,3.71-4.91,6.06-1,17.32,8.63,25.14,6.16,5,13.18,7.35,18.74,6.87C105.49,109.75,99.73,107.4,94.58,103.23Z"/><path d="M108.8,81.14c-12.37,1.31-23.06-3.91-23.88-11.67a10.71,10.71,0,0,1,2.8-8c-3.34,2.87-5.18,6.41-4.79,10,.82,7.76,11.51,13,23.88,11.67,7.87-.84,14.52-4.12,18.11-8.39C121.12,78,115.39,80.44,108.8,81.14Z"/><path d="M103.23,55.46C95.41,65.14,84.16,69,78.09,64.1a10.7,10.7,0,0,1-3.69-7.66c-.33,4.39.87,8.2,3.71,10.49,6.06,4.9,17.32,1,25.14-8.64,5-6.15,7.35-13.17,6.87-18.73C109.75,44.56,107.4,50.31,103.23,55.46Z"/><path d="M81.14,41.24c1.31,12.37-3.91,23.07-11.67,23.89a10.72,10.72,0,0,1-8-2.81c2.87,3.34,6.41,5.18,10,4.8,7.76-.82,13-11.52,11.67-23.89-.84-7.87-4.12-14.51-8.39-18.1C78,28.93,80.44,34.66,81.14,41.24Z"/><path d="M55.46,46.81C65.14,54.63,69,65.89,64.1,72a10.71,10.71,0,0,1-7.66,3.7c4.39.33,8.2-.87,10.49-3.71,4.9-6.07,1-17.32-8.64-25.14-6.15-5-13.17-7.36-18.73-6.87C44.56,40.3,50.31,42.65,55.46,46.81Z"/></g></g></svg>