<svg xmlns="http://www.w3.org/2000/svg" viewBox="0 0 119.13 119.64"><title>Recurso 90MANDALA</title><g id="Capa_2" data-name="Capa 2"><g id="Capa_1-2" data-name="Capa 1"><polygon points="8.16 44.43 2.6 34.81 44.08 32.12 49.64 41.74 8.16 44.43"/><polygon points="10.44 80.16 0 76.36 30.05 47.64 40.49 51.44 10.44 80.16"/><polygon points="35.15 106.07 24.71 109.86 29.27 68.55 39.71 64.75 35.15 106.07"/><polygon points="70.74 110.02 65.18 119.64 42.12 85.07 47.67 75.44 70.74 110.02"/><polygon points="100.54 90.18 102.47 101.12 62.57 89.46 60.65 78.52 100.54 90.18"/><polygon points="110.62 55.83 119.13 62.97 81.07 79.68 72.56 72.54 110.62 55.83"/><polygon points="96.25 23.03 107.36 23.03 88.95 60.3 77.84 60.3 96.25 23.03"/><polygon points="64.17 7.14 72.68 0 82.53 40.38 74.02 47.52 64.17 7.14"/><polygon points="29.38 15.59 31.31 4.65 64.81 29.25 62.88 40.2 29.38 15.59"/></g></g></svg>