<svg xmlns="http://www.w3.org/2000/svg" viewBox="0 0 136.75 136.75"><title>Recurso 99MANDALA</title><g id="Capa_2" data-name="Capa 2"><g id="Capa_1-2" data-name="Capa 1"><path d="M59.43,75c-2.78,2.18-3.86,4.12-2.37,3.26a26.82,26.82,0,0,0,4.11-4.12c.55-.62,1.06-1.19,1.52-1.68l-.92.7C61,73.72,60.22,74.34,59.43,75Z"/><path d="M135.44,70a5.11,5.11,0,0,0-3.92-1.88c-5-.06-9.47-1.69-13.74-3.65a51.94,51.94,0,0,0-6-2.32,71.18,71.18,0,0,1-12-4.9l-.08,0a3.84,3.84,0,0,0-.62-.26l-.22-.06a5.65,5.65,0,0,0-.62-.13l-.29,0a1.75,1.75,0,0,0-.24,0,2.8,2.8,0,0,0-.29,0h-.56l-.57.06-.29,0-.24,0-.39.09c-.19,0-.38.1-.57.16l-.36.11c-.26.09-.51.19-.76.3l-.08,0c-4.32,2-9,3.29-13.44,4.75a50.11,50.11,0,0,0-5.92,2.38,40.73,40.73,0,0,0-10.47,6.62c-.34.31-.73.72-1.16,1.18a62.64,62.64,0,0,1,11.44-7.32,50.1,50.1,0,0,1,5.93-2.25,17.48,17.48,0,0,1,12.31.2,7.69,7.69,0,0,0,2.43.55h0a7.76,7.76,0,0,0,2-.09h.09l.47-.11.14,0c4.42-1.16,9.32-1.65,13.82-.15a49.73,49.73,0,0,1,5.84,2.39c4.3,2.06,7.39,6.14,8.73,11.32a6.57,6.57,0,0,0,1.34,2.63c2.12,2.53,6.15,1.86,8.51-2.14A6.67,6.67,0,0,0,135.44,70Z"/><path d="M112.34,75.8c-1.48.46-2.52-1.62-4.72-3.16a5.35,5.35,0,0,0-4.94-.88,8.73,8.73,0,0,1,6.65-1.38C113.34,71.35,113.91,75.47,112.34,75.8Z"/><path d="M63.93,78.58c-1.31,3.27-1.27,5.49-.41,4A27.11,27.11,0,0,0,65,77c.17-.81.33-1.55.48-2.21-.15.35-.3.71-.44,1.06C64.69,76.68,64.29,77.62,63.93,78.58Z"/><path d="M127.25,36.22a5.12,5.12,0,0,0-4.34.32c-4.35,2.45-9,3.28-13.72,3.71a51.58,51.58,0,0,0-6.32,1A73,73,0,0,1,90.06,43H90a4.07,4.07,0,0,0-.67.08l-.22.06a5.14,5.14,0,0,0-.59.2l-.27.11-.22.1a2.07,2.07,0,0,0-.25.15c-.16.09-.32.18-.48.29s-.32.22-.47.33l-.23.17c-.07.05-.12.11-.19.17a3.71,3.71,0,0,0-.29.27,5.44,5.44,0,0,0-.41.42,3.45,3.45,0,0,0-.26.28,7.38,7.38,0,0,0-.5.64l-.06.07c-2.74,3.9-6.17,7.37-9.26,10.83a51.8,51.8,0,0,0-3.94,5,40.82,40.82,0,0,0-5.76,11c-.13.44-.27,1-.41,1.61a62.29,62.29,0,0,1,6.25-12.06,51.4,51.4,0,0,1,4-4.92,17.58,17.58,0,0,1,10.77-6,7.69,7.69,0,0,0,2.38-.74h0A7.84,7.84,0,0,0,90.6,50l.07-.06c.13-.1.24-.21.36-.32l.1-.09c3.25-3.23,7.25-6.1,11.89-7.05a50.21,50.21,0,0,1,6.25-.85c4.76-.37,9.48,1.62,13.22,5.44A6.64,6.64,0,0,0,125,48.64c3.1,1.13,6.26-1.46,6.31-6.11A6.7,6.7,0,0,0,127.25,36.22Z"/><path d="M110.17,52.82c-1.06,1.14-3-.14-5.68-.37a5.34,5.34,0,0,0-4.72,1.7,8.8,8.8,0,0,1,5.07-4.52C108.8,48.47,111.36,51.75,110.17,52.82Z"/><path d="M69.63,79.43c.5,3.49,1.64,5.4,1.64,3.68a26.91,26.91,0,0,0-1.52-5.62c-.26-.79-.49-1.51-.69-2.15l.15,1.14C69.33,77.41,69.46,78.42,69.63,79.43Z"/><path d="M103.28,11.09a5.12,5.12,0,0,0-3.59,2.45c-2.54,4.3-6.2,7.36-10,10.07a52.28,52.28,0,0,0-5,4,72.78,72.78,0,0,1-10.23,7.91l-.07,0a4.81,4.81,0,0,0-.54.41l-.16.16c-.14.14-.28.3-.42.47s-.11.15-.17.23l-.15.2c0,.08-.09.17-.13.25s-.19.32-.28.49-.16.35-.23.52a2.21,2.21,0,0,0-.12.27c0,.08-.05.16-.08.23l-.12.38-.15.57c0,.13,0,.25-.08.37,0,.28-.09.55-.11.81,0,0,0,.06,0,.09C71.2,45.78,70,50.5,69,55a51.42,51.42,0,0,0-.9,6.32,40.41,40.41,0,0,0,.5,12.38c.1.45.26,1,.44,1.6a62.63,62.63,0,0,1-.61-13.57,50.07,50.07,0,0,1,1-6.26,17.59,17.59,0,0,1,6.33-10.57,7.51,7.51,0,0,0,1.7-1.82h0v0a7.64,7.64,0,0,0,.92-1.77l0-.08.15-.46,0-.13c1.2-4.42,3.22-8.91,6.77-12a52.22,52.22,0,0,1,5-3.86c3.94-2.7,9-3.33,14.17-1.9a6.43,6.43,0,0,0,3,.15c3.25-.57,4.69-4.39,2.41-8.44A6.69,6.69,0,0,0,103.28,11.09Z"/><path d="M96.79,34c-.34,1.51-2.66,1.38-5.1,2.52a5.33,5.33,0,0,0-3.23,3.83,8.69,8.69,0,0,1,2.13-6.45C93.44,30.92,97.29,32.49,96.79,34Z"/><path d="M75,77.32c2.18,2.78,4.12,3.86,3.26,2.37a26.82,26.82,0,0,0-4.12-4.11c-.62-.55-1.19-1.06-1.68-1.52l.7.92C73.72,75.72,74.34,76.53,75,77.32Z"/><path d="M70,1.31a5.11,5.11,0,0,0-1.88,3.92c-.06,5-1.69,9.47-3.65,13.74a51.94,51.94,0,0,0-2.32,6,71.18,71.18,0,0,1-4.9,12l0,.08a3.84,3.84,0,0,0-.26.62l-.06.22a5.65,5.65,0,0,0-.13.62l0,.29a1.75,1.75,0,0,0,0,.24,2.8,2.8,0,0,0,0,.29c0,.18,0,.37,0,.56l.06.57a2.85,2.85,0,0,0,0,.29c0,.08,0,.16,0,.24l.09.39c0,.19.1.38.16.57s.07.24.11.36.19.51.3.76l0,.08c2,4.32,3.29,9,4.75,13.44a50.11,50.11,0,0,0,2.38,5.92A40.73,40.73,0,0,0,71.27,72.9c.31.33.72.73,1.18,1.16a62.64,62.64,0,0,1-7.32-11.44,50.1,50.1,0,0,1-2.25-5.93,17.48,17.48,0,0,1,.2-12.31A7.69,7.69,0,0,0,63.63,42v0h0v0a7.76,7.76,0,0,0-.09-2s0-.06,0-.09-.07-.32-.11-.47a.7.7,0,0,0,0-.14c-1.16-4.42-1.65-9.32-.15-13.82a49.73,49.73,0,0,1,2.39-5.84c2.06-4.3,6.14-7.39,11.32-8.73a6.57,6.57,0,0,0,2.63-1.34C82.11,7.37,81.44,3.34,77.44,1A6.67,6.67,0,0,0,70,1.31Z"/><path d="M75.8,24.41c.46,1.48-1.62,2.52-3.16,4.72a5.35,5.35,0,0,0-.88,4.94,8.73,8.73,0,0,1-1.38-6.65C71.35,23.41,75.47,22.84,75.8,24.41Z"/><path d="M78.58,72.82c3.27,1.31,5.49,1.27,4,.41A27.11,27.11,0,0,0,77,71.74l-2.21-.48,1.06.44C76.68,72.06,77.62,72.46,78.58,72.82Z"/><path d="M36.22,9.5a5.12,5.12,0,0,0,.32,4.34c2.45,4.35,3.28,9,3.71,13.72a51.58,51.58,0,0,0,1,6.32A73,73,0,0,1,43,46.69s0,.06,0,.09a3.83,3.83,0,0,0,.08.66l.06.23a5.14,5.14,0,0,0,.2.59c0,.09.07.18.11.27s.06.15.1.22a2.07,2.07,0,0,0,.15.25c.09.16.18.32.29.48s.22.32.33.47l.17.23c.05.07.11.12.17.19a3.71,3.71,0,0,0,.27.29,5.44,5.44,0,0,0,.42.41,3.45,3.45,0,0,0,.28.26,7.38,7.38,0,0,0,.64.5l.07.06c3.9,2.74,7.37,6.17,10.83,9.26a51.8,51.8,0,0,0,5,3.94,40.82,40.82,0,0,0,11,5.76c.44.13,1,.27,1.61.41A62.29,62.29,0,0,1,62.69,65a51.4,51.4,0,0,1-4.92-4,17.58,17.58,0,0,1-6-10.77,7.69,7.69,0,0,0-.74-2.38h0v0A7.84,7.84,0,0,0,50,46.15l-.06-.07c-.1-.13-.21-.24-.32-.36l-.09-.1c-3.23-3.25-6.1-7.25-7.05-11.89a50.21,50.21,0,0,1-.85-6.25C41.22,22.72,43.21,18,47,14.26a6.64,6.64,0,0,0,1.61-2.48c1.13-3.1-1.46-6.26-6.11-6.31A6.7,6.7,0,0,0,36.22,9.5Z"/><path d="M52.82,26.58c1.14,1.05-.14,3-.37,5.68A5.34,5.34,0,0,0,54.15,37a8.8,8.8,0,0,1-4.52-5.07C48.47,28,51.75,25.39,52.82,26.58Z"/><path d="M79.43,67.12c3.49-.5,5.4-1.64,3.68-1.64A26.91,26.91,0,0,0,77.49,67l-2.15.69,1.14-.15C77.41,67.42,78.42,67.29,79.43,67.12Z"/><path d="M11.09,33.47a5.12,5.12,0,0,0,2.45,3.59c4.3,2.54,7.36,6.2,10.07,10a52.28,52.28,0,0,0,4,5A72.78,72.78,0,0,1,35.53,62.3l0,.07a4.81,4.81,0,0,0,.41.54c0,.05.11.1.16.16s.3.28.47.42l.23.17.2.15.25.13.49.28.52.23a2.21,2.21,0,0,0,.27.12l.23.08.38.12.57.14.37.09c.28,0,.55.09.81.11l.09,0c4.75.42,9.47,1.66,14,2.6a51.42,51.42,0,0,0,6.32.9,40.41,40.41,0,0,0,12.38-.5c.45-.1,1-.26,1.6-.44a62.63,62.63,0,0,1-13.57.61,50.07,50.07,0,0,1-6.26-1A17.59,17.59,0,0,1,44.94,61a7.51,7.51,0,0,0-1.82-1.7h0a7.64,7.64,0,0,0-1.77-.92l-.08,0-.46-.15-.13,0c-4.42-1.2-8.91-3.22-12-6.77a52.22,52.22,0,0,1-3.86-5c-2.7-3.94-3.33-9-1.9-14.17A6.43,6.43,0,0,0,23,29.23c-.57-3.25-4.39-4.69-8.44-2.41A6.69,6.69,0,0,0,11.09,33.47Z"/><path d="M34,40c1.51.34,1.38,2.66,2.52,5.1a5.33,5.33,0,0,0,3.83,3.23,8.69,8.69,0,0,1-6.45-2.13C30.92,43.31,32.49,39.46,34,40Z"/><path d="M77.32,61.76c2.78-2.18,3.86-4.12,2.37-3.26a26.82,26.82,0,0,0-4.11,4.12c-.55.62-1.06,1.19-1.52,1.68l.92-.7C75.72,63,76.53,62.41,77.32,61.76Z"/><path d="M1.31,66.79a5.11,5.11,0,0,0,3.92,1.88c5,.06,9.47,1.69,13.74,3.65a51.94,51.94,0,0,0,6,2.32,71.18,71.18,0,0,1,12,4.9l.08,0a3.84,3.84,0,0,0,.62.26l.22.06a5.65,5.65,0,0,0,.62.13l.29,0a1.75,1.75,0,0,0,.24,0c.09,0,.19,0,.29,0h.56l.57-.06.29,0,.24,0,.39-.09c.19,0,.38-.1.57-.16l.36-.11c.26-.09.51-.19.76-.3l.08,0c4.32-2,9-3.29,13.44-4.75a51.88,51.88,0,0,0,5.92-2.38A40.73,40.73,0,0,0,72.9,65.48c.33-.31.73-.72,1.16-1.18a62.64,62.64,0,0,1-11.44,7.32,50.1,50.1,0,0,1-5.93,2.25,17.48,17.48,0,0,1-12.31-.2A7.69,7.69,0,0,0,42,73.12h0a7.76,7.76,0,0,0-2,.09h-.09l-.47.11-.14,0C34.8,74.52,29.9,75,25.4,73.51a49.73,49.73,0,0,1-5.84-2.39c-4.3-2.06-7.39-6.14-8.73-11.32a6.51,6.51,0,0,0-1.34-2.63C7.37,54.64,3.34,55.31,1,59.31A6.67,6.67,0,0,0,1.31,66.79Z"/><path d="M24.41,61c1.48-.46,2.52,1.62,4.72,3.16a5.35,5.35,0,0,0,4.94.88,8.73,8.73,0,0,1-6.65,1.38C23.41,65.4,22.84,61.28,24.41,61Z"/><path d="M72.82,58.17c1.31-3.27,1.27-5.49.41-4a27.11,27.11,0,0,0-1.49,5.62c-.17.81-.33,1.55-.48,2.21.15-.36.3-.71.44-1.06C72.06,60.07,72.46,59.13,72.82,58.17Z"/><path d="M9.5,100.53a5.12,5.12,0,0,0,4.34-.32c4.35-2.45,9-3.28,13.72-3.71a51.58,51.58,0,0,0,6.32-1,72.09,72.09,0,0,1,12.81-1.74h.09a5.16,5.16,0,0,0,.66-.08l.23-.06a5.14,5.14,0,0,0,.59-.2l.27-.11.22-.1a2.07,2.07,0,0,0,.25-.15c.16-.09.32-.18.48-.29s.32-.22.47-.33l.23-.17c.07,0,.12-.11.19-.17l.29-.27a5.44,5.44,0,0,0,.41-.42,3.45,3.45,0,0,0,.26-.28,7.38,7.38,0,0,0,.5-.64l.06-.07c2.74-3.9,6.17-7.37,9.26-10.84a50.49,50.49,0,0,0,3.94-5,40.82,40.82,0,0,0,5.76-11c.13-.44.27-1,.41-1.61A62.29,62.29,0,0,1,65,74.06,51.4,51.4,0,0,1,61,79a17.58,17.58,0,0,1-10.77,6,7.69,7.69,0,0,0-2.38.74h0a7.84,7.84,0,0,0-1.67,1.08l-.07.06c-.13.1-.24.21-.36.32l-.1.09c-3.25,3.23-7.25,6.1-11.89,7a50.21,50.21,0,0,1-6.25.85c-4.76.37-9.48-1.62-13.22-5.44a6.64,6.64,0,0,0-2.48-1.61C8.68,87,5.52,89.57,5.47,94.22A6.7,6.7,0,0,0,9.5,100.53Z"/><path d="M26.58,83.93c1.05-1.14,3,.14,5.68.37A5.34,5.34,0,0,0,37,82.6a8.83,8.83,0,0,1-5.07,4.52C28,88.28,25.39,85,26.58,83.93Z"/><path d="M67.12,57.32c-.5-3.49-1.64-5.4-1.64-3.68A26.91,26.91,0,0,0,67,59.26c.26.79.49,1.51.69,2.15l-.15-1.14C67.42,59.34,67.29,58.33,67.12,57.32Z"/><path d="M33.47,125.66a5.12,5.12,0,0,0,3.59-2.45c2.54-4.3,6.2-7.36,10-10.07a52.28,52.28,0,0,0,5-4,72.78,72.78,0,0,1,10.23-7.91s0,0,.07,0a4.81,4.81,0,0,0,.54-.41l.16-.16c.14-.14.28-.3.42-.47l.17-.23.15-.2c0-.08.09-.17.13-.25s.19-.32.28-.49.16-.35.23-.52a2.21,2.21,0,0,0,.12-.27l.08-.24.12-.37c0-.19.1-.38.14-.57l.09-.38a7.67,7.67,0,0,0,.11-.8s0-.07,0-.1c.42-4.74,1.66-9.46,2.6-14a51.42,51.42,0,0,0,.9-6.32A40.41,40.41,0,0,0,68.13,63c-.1-.45-.26-1-.44-1.6A62.63,62.63,0,0,1,68.3,75a50.07,50.07,0,0,1-1,6.26A17.59,17.59,0,0,1,61,91.81a7.51,7.51,0,0,0-1.7,1.82h0v0a7.64,7.64,0,0,0-.92,1.77l0,.08-.15.46,0,.13c-1.2,4.41-3.22,8.9-6.77,12a52.22,52.22,0,0,1-5,3.86c-3.94,2.7-9,3.33-14.17,1.9a6.43,6.43,0,0,0-2.95-.15c-3.25.57-4.69,4.39-2.41,8.44A6.69,6.69,0,0,0,33.47,125.66Z"/><path d="M40,102.74c.34-1.51,2.66-1.38,5.1-2.52a5.33,5.33,0,0,0,3.23-3.83,8.69,8.69,0,0,1-2.13,6.45C43.31,105.83,39.46,104.26,40,102.74Z"/><path d="M61.76,59.43c-2.18-2.78-4.12-3.86-3.26-2.37a26.82,26.82,0,0,0,4.12,4.11c.62.55,1.19,1.06,1.68,1.52l-.7-.92C63,61,62.41,60.22,61.76,59.43Z"/><path d="M66.79,135.44a5.11,5.11,0,0,0,1.88-3.92c.06-5,1.69-9.47,3.65-13.74a51.94,51.94,0,0,0,2.32-6,71.18,71.18,0,0,1,4.9-12l0-.08a3.84,3.84,0,0,0,.26-.62l.06-.22a5.65,5.65,0,0,0,.13-.62l0-.29a1.75,1.75,0,0,0,0-.24c0-.09,0-.19,0-.29s0-.37,0-.56L80,96.37a2.85,2.85,0,0,0,0-.29c0-.08,0-.16,0-.24l-.09-.39c0-.19-.1-.38-.16-.57s-.07-.24-.11-.36-.19-.51-.3-.76a.59.59,0,0,1,0-.08c-2-4.32-3.29-9-4.75-13.44a51.88,51.88,0,0,0-2.38-5.92,40.73,40.73,0,0,0-6.62-10.47c-.31-.34-.72-.73-1.18-1.16a62.64,62.64,0,0,1,7.32,11.44,50.1,50.1,0,0,1,2.25,5.93,17.48,17.48,0,0,1-.2,12.31,7.69,7.69,0,0,0-.55,2.43v0h0v0a7.76,7.76,0,0,0,.09,2s0,.06,0,.09.07.32.11.47a.7.7,0,0,0,0,.14c1.16,4.42,1.65,9.32.15,13.82a49.73,49.73,0,0,1-2.39,5.84c-2.06,4.3-6.14,7.39-11.32,8.73a6.51,6.51,0,0,0-2.63,1.34c-2.53,2.12-1.86,6.15,2.14,8.51A6.67,6.67,0,0,0,66.79,135.44Z"/><path d="M61,112.34c-.46-1.48,1.62-2.52,3.16-4.72a5.35,5.35,0,0,0,.88-4.94,8.73,8.73,0,0,1,1.38,6.65C65.4,113.34,61.28,113.91,61,112.34Z"/><path d="M58.17,63.93c-3.27-1.31-5.49-1.27-4-.41A27.11,27.11,0,0,0,59.79,65l2.21.48-1.06-.44C60.07,64.69,59.13,64.29,58.17,63.93Z"/><path d="M100.53,127.25a5.12,5.12,0,0,0-.32-4.34c-2.45-4.35-3.28-9-3.71-13.72a51.58,51.58,0,0,0-1-6.32,72.09,72.09,0,0,1-1.74-12.81s0-.06,0-.09a5.54,5.54,0,0,0-.08-.67l-.06-.22a5.14,5.14,0,0,0-.2-.59c0-.09-.07-.18-.11-.27s-.06-.15-.1-.22a2.07,2.07,0,0,0-.15-.25c-.09-.16-.18-.32-.29-.48s-.22-.32-.33-.47l-.17-.23c0-.07-.11-.12-.17-.19l-.27-.29a5.44,5.44,0,0,0-.42-.41,3.45,3.45,0,0,0-.28-.26,7.38,7.38,0,0,0-.64-.5l-.07-.06c-3.9-2.74-7.37-6.17-10.84-9.26a50.49,50.49,0,0,0-5-3.94,40.82,40.82,0,0,0-11-5.76c-.44-.13-1-.27-1.61-.41a62.29,62.29,0,0,1,12.06,6.25,51.4,51.4,0,0,1,4.92,4,17.58,17.58,0,0,1,6,10.77,7.69,7.69,0,0,0,.74,2.38h0v0a7.84,7.84,0,0,0,1.08,1.67l.06.07c.1.13.21.24.32.36l.09.1c3.23,3.25,6.1,7.25,7,11.89a50.21,50.21,0,0,1,.85,6.25c.37,4.76-1.62,9.48-5.44,13.22A6.64,6.64,0,0,0,88.11,125c-1.13,3.1,1.46,6.26,6.11,6.31A6.7,6.7,0,0,0,100.53,127.25Z"/><path d="M83.93,110.17c-1.14-1.06.14-3,.37-5.68a5.34,5.34,0,0,0-1.7-4.72,8.83,8.83,0,0,1,4.52,5.07C88.28,108.8,85,111.36,83.93,110.17Z"/><path d="M57.32,69.63c-3.49.5-5.4,1.64-3.68,1.64a26.91,26.91,0,0,0,5.62-1.52l2.15-.69-1.14.15C59.34,69.33,58.33,69.46,57.32,69.63Z"/><path d="M125.66,103.28a5.12,5.12,0,0,0-2.45-3.59c-4.3-2.54-7.36-6.2-10.07-10a52.28,52.28,0,0,0-4-5,72.78,72.78,0,0,1-7.91-10.23s0,0,0-.07a4.81,4.81,0,0,0-.41-.54l-.16-.16c-.14-.14-.3-.28-.47-.42l-.23-.17-.2-.15-.25-.13L99,72.53l-.52-.23a2.21,2.21,0,0,0-.27-.12l-.24-.08L97.56,72,97,71.83l-.38-.08a7.67,7.67,0,0,0-.8-.11l-.1,0C91,71.2,86.25,70,81.71,69a51.42,51.42,0,0,0-6.32-.9,40.41,40.41,0,0,0-12.38.5c-.45.1-1,.26-1.6.44A62.63,62.63,0,0,1,75,68.45a50.07,50.07,0,0,1,6.26,1,17.59,17.59,0,0,1,10.57,6.33,7.51,7.51,0,0,0,1.82,1.7h0a7.64,7.64,0,0,0,1.77.92l.08,0,.46.15.13,0c4.41,1.2,8.9,3.22,12,6.77a52.22,52.22,0,0,1,3.86,5c2.7,3.94,3.33,9,1.9,14.17a6.43,6.43,0,0,0-.15,3c.57,3.25,4.39,4.69,8.44,2.41A6.69,6.69,0,0,0,125.66,103.28Z"/><path d="M102.74,96.79c-1.51-.34-1.38-2.66-2.52-5.1a5.33,5.33,0,0,0-3.83-3.23,8.69,8.69,0,0,1,6.45,2.13C105.83,93.44,104.26,97.29,102.74,96.79Z"/></g></g></svg>