<svg xmlns="http://www.w3.org/2000/svg" viewBox="0 0 128.01 79.6"><title>Recurso 25ART</title><g id="Capa_2" data-name="Capa 2"><g id="Capa_1-2" data-name="Capa 1"><path d="M60.22,75.38c0-.52,0-1,0-1.5a.66.66,0,0,0-.15-.14.31.31,0,0,0-.18-.07H53.1L53,72.59a.66.66,0,0,0-.15-.14.41.41,0,0,0-.19,0H34c-.06,0-.11-.06-.23-.14l-.07-1.37c-.13-.06-.25-.16-.37-.16H31c-.54.43,0,1.07-.3,1.55-.05,0-.1.12-.15.13a3,3,0,0,1-.42,0H26.65l-.21,1.22L25,73.71a1.26,1.26,0,0,0-.17.35c-.06.4.1.82-.15,1.25H16.16c-.29-.46-.11-1-.14-1.43s0-.84,0-1.26c-.26-.34-.64-.2-1-.21H3.15C3,72.27,3,72.22,3,72.16c0-.83,0-1.67,0-2.59l1.24-.2V65c.51-.37,1-.14,1.48-.21.46-.39.17-.91.22-1.37s0-1,0-1.37c.36-.37.75-.08,1.17-.33-.06.06,0,0,0,0,0-1.31.07-2.62.1-4l1.48-.08c.35-.43.1-.94.16-1.41s-.12-1,.14-1.45l.58-.05.41-.07c.29-.44.08-.94.14-1.41-.12-.07-.23-.19-.34-.2H7.22V54.5c-.19.1-.31.22-.42.22H3V50.26c.29-.31.66-.09,1.08-.19.07-.34.14-.72.21-1.1,0,0,.1-.13.15-.13H7c.49-.46,0-1.09.35-1.62.84-.16,1.75,0,2.7-.11,0-.17.08-.36.1-.55a3,3,0,0,0,0-.42c.1-.08.2-.23.3-.23.83,0,1.67,0,2.46,0,.33-.51.13-1,.19-1.48.11-.07.22-.2.33-.2H16L16,43.12c.42-.37.93-.14,1.4-.17s1.12,0,1.68,0H20.6l.07-1.52a1.48,1.48,0,0,1,.38-.16h2.4c.07-.37.14-.75.22-1.13,0-.05.09-.11.15-.13A.74.74,0,0,1,24,40h3.56c.49-.46,0-1.1.32-1.58a3.56,3.56,0,0,1,1.42-.1c.49,0,1,0,1.47,0h1.42c.36-.32.14-.7.21-1-.42-.55-1.06,0-1.55-.3-.28-.45-.08-.94-.13-1.41.45-.49,1.08,0,1.64-.35,0-.28,0-.61.07-.94.11-.06.23-.17.35-.17,1.19,0,2.38,0,3.57,0,.06,0,.11-.07.22-.15l.07-1.36c.14-.06.26-.16.38-.16,3.3,0,6.6,0,10,0l.21-1.14c.06,0,.1-.11.16-.12a3,3,0,0,1,.42,0H77.69c.46-.47,0-1.09.23-1.52a1.34,1.34,0,0,1,.24-.16.74.74,0,0,1,.21,0H91a1.42,1.42,0,0,0,.2,0c.32-.28.1-.66.17-1,.1-.08.2-.23.3-.23,3.22,0,6.44,0,9.59,0,.35.36.14.72.22,1.13l-1.16.21a3.11,3.11,0,0,0-.09,1.42c.12.06.23.17.35.17,1.25,0,2.5,0,3.79,0l.08-1.51a1,1,0,0,1,.38-.16c1.33,0,2.66,0,4,0A2.18,2.18,0,0,1,109,31c-.47.25-1,.07-1.52.16l-.2,1.17-1,.11a2.72,2.72,0,0,0,0,1.6h14.49c.3-.47.1-1,.16-1.44.35-.36.75-.21,1.14-.11,0,.05.11.1.11.16,0,.84,0,1.67,0,2.49-.46.4-1,.15-1.43.19s-.84,0-1.26,0a3.29,3.29,0,0,0-1.48.13l-.07,1.38c-.14.06-.26.16-.38.16h-4a1.46,1.46,0,0,0-.14,1.13s.09.1.15.12a.5.5,0,0,0,.21,0h14.12a2.37,2.37,0,0,1,.09,1.62l-1,.11c-.33.27,0,.66-.23,1,0,0-.13.18-.24.18h-8.35c-.33.51-.13,1-.18,1.47.11.07.23.2.34.2.83,0,1.66,0,2.56,0l.08,1.09c.42.36.93.13,1.39.17s.85,0,1.27,0H125V47c-.06,0-.1.12-.16.15a.72.72,0,0,1-.21,0H121c-.07-.37-.14-.75-.22-1.13,0-.05-.1-.13-.15-.13h-4.19c-.35.37-.23.76-.1,1.16a4,4,0,0,0,1.43.1c.41,0,.83,0,1.22,0,.37.48.15,1,.18,1.45s0,.95,0,1.49h-2.76c-.33.52-.13,1-.2,1.57l-1.2.22c-.12.88,0,1.78-.08,2.68-.43.36-.93.12-1.4.16s-1,0-1.47,0v1.1c.3.34.68,0,1.13.29-.08-.08,0,0,0,0,0,.9,0,1.79,0,2.67-.32.26-.67.09-1.09.12l-.2-1.19h-4.38c-.31.27-.08.65-.16,1,.11.08.21.22.31.23.84,0,1.67,0,2.44,0,.11.12.19.17.19.22,0,.84,0,1.68,0,2.52-.42.42-.93.16-1.4.2s-1,0-1.5,0l-.08,1.6-1.16.18-.12,1c-.45.31-1,.09-1.42.15-.07.11-.2.22-.2.33,0,.83,0,1.66,0,2.57h-2.7c-.45.49-.19,1-.25,1.47s.11,1-.12,1.46l-1,.11c-.37.43,0,1-.34,1.64-.25.32-.89-.21-1.37.07-.28.3-.06.67-.17,1.08l-1.19.21-.07,1.41c-.46.43-1.1-.06-1.59.32l-.11,1a1.26,1.26,0,0,1-.38.14H89.89c-.5.44,0,1.08-.29,1.56-.06,0-.1.1-.17.12a.67.67,0,0,1-.2,0h-6.6l-.2,1.22H79.68a5.67,5.67,0,0,1-.1-.57c0-.14,0-.28,0-.42s-.21-.22-.32-.22c-.83,0-1.66,0-2.42,0-.35.37-.13.74-.22,1.07a37,37,0,0,1-7.51.09q0-.48-.09-1a1.92,1.92,0,0,0-.15-.14.46.46,0,0,0-.2,0H53.3s-.1-.08-.2-.16V75.52c.07-.06.11-.15.17-.16a2.94,2.94,0,0,1,.42,0c2.17,0,4.35,0,6.53,0,.05.37-.13.79.18,1.24h4.07c.12,0,.23-.11.34-.17a1.55,1.55,0,0,0-.1-1C63.23,75.41,61.72,75.41,60.22,75.38ZM95.58,64.83a2.65,2.65,0,0,0-1.27.16v1.52H92.79a2.66,2.66,0,0,0-.16,1.27H89.81a5.19,5.19,0,0,0-.13,1.68H86.83l-.18,1.21-1.18.13v1.61H82.7c-.28.46-.13.87-.17,1.31H76.72a2.69,2.69,0,0,0,.06,1.64h5c.26,0,.55.07.73-.23V73.67H85.3c.28-.46.13-.87.17-1.26h2.88c.2-.59-.13-1.17.18-1.59.39-.25.88.14,1.15-.33v-1H92.5a5.19,5.19,0,0,0,.13-1.68h1.52a2.65,2.65,0,0,0,.16-1.27,2.65,2.65,0,0,0,1.27-.16V64.83a6.84,6.84,0,0,0,1.57-.07c.13-.43.24-.81-.1-1.19-.37,0-.78,0-1.18,0-.1,0-.2.15-.29.23ZM64.85,69.46a6.73,6.73,0,0,0-.09-1.61,2.62,2.62,0,0,0-1.55.06v1.46a6.45,6.45,0,0,0,1.63.09c.06.4-.12.83.14,1.2,4.77.19,7.48.15,8.71-.15,0-.35,0-.7,0-1.05.4,0,.81.11,1.21-.14a2.52,2.52,0,0,0-.07-1.49h-1a6,6,0,0,0-.09,1.63c-.84,0-1.68,0-2.52,0a1.74,1.74,0,0,1-.36-.13c-.27-.49.23-1.12-.29-1.55-.42,0-.84,0-1.25,0s-1-.14-1.4.12c-.28.5.23,1.13-.3,1.56ZM73.75,53h5.41a1,1,0,0,0,.37-.15l.13-1.11c.47,0,1,0,1.43,0s1,.19,1.4-.16l.08-1.45c1-.19,2,.1,2.76-.12.27-.46,0-.84.27-1.13l1.12-.21c.08-.56-.15-1.06.18-1.52l1.39-.07a4.27,4.27,0,0,0,.13-1.49c.06-.46-.2-1,.18-1.39l1.08-.07c0-1.33,0-2.58,0-3.83,0-.12-.13-.23-.2-.34-.32-.07-.7.15-1.06-.22V38.49c-.13-.1-.18-.18-.24-.18H80a.42.42,0,0,1-.2,0,.66.66,0,0,1-.15-.14l-.1-1.09H69.41c-.12,0-.23.13-.34.19-.1.33.13.7-.22,1.07H62.22a.4.4,0,0,0-.18.07.66.66,0,0,0-.14.15c-.07.47.16,1-.2,1.49H59.12c-.09.12-.16.18-.16.23,0,.78,0,1.55,0,2.32,0,.11.11.23.17.34l1,.07.23,1.22c.5,0,.93,0,1.34,0s1-.15,1.49.18V45.7c.13.1.18.18.23.18h2.32a1.13,1.13,0,0,1,.35.17l.09.95c.53.37,1.17-.14,1.62.33.08.47-.11,1,.18,1.49h2.46c.11,0,.21.14.32.22s0,.28,0,.42.06.39.09.56l1,.12c.37.51-.14,1.14.39,1.67h1.35ZM50.32,63.57c-.57-.45.19-1.26-.45-1.68-.47-.08-1,.17-1.4-.17l-.1-1-1.13-.19c-.19-.55.08-1.06-.26-1.58-.35,0-.76,0-1.17,0-.11,0-.22-.14-.25-.15-.21-.38.1-.76-.23-1.06l-1-.11c-.38-.49.11-1.12-.32-1.58l-1.51-.09c0-.88,0-1.71,0-2.54,0-.11-.12-.22-.18-.34l-1,0-.24-1.24H36.85c-.05,0-.09.09-.16.16-.2.32.18.82-.29,1.09-.33.07-.7-.15-1,.25v5.49c-.55.39-1.18-.11-1.66.37,0,.81,0,1.65,0,2.48,0,.06.07.11.11.16.48.31,1.11-.19,1.56.3.07.47-.13,1,.14,1.4.35.24.85-.15,1.13.31.07.33-.15.7.18,1l1.35.07c.39.53-.11,1.17.36,1.64h5.22a.74.74,0,0,1,.21,0,.59.59,0,0,1,.17.12l.21,1.14h6.8s.1-.08.23-.19c0-1.18,0-2.43,0-3.68,0-.11-.13-.22-.2-.33ZM95.58,41.3v4a2.94,2.94,0,0,0,0,.42s.1.09.22.22h1.5c-.12,1,.07,2-.11,2.89l-1.58.09c0,1.38,0,2.69-.09,4,0,0-.09.1,0,0-.43.25-.81-.05-1.18.33v5.37a.4.4,0,0,1-.07.18c0,.05-.1.09-.15.14-.47.06-1-.17-1.41.15V61.8a2.52,2.52,0,0,0,1.61-.06l.06-1.05c.41,0,.75-.08,1.08-.14,0,0,.1-.09.15-.14,0-.84,0-1.68,0-2.52,0,0,.1-.1.22-.23h1.28c.42-.54-.07-1.18.35-1.63l1.09-.1c0-.88,0-1.71,0-2.54,0-.11.13-.22.16-.28.49-.19,1,.1,1.52-.25,0-2.75,0-5.54,0-8.34,0-.11-.14-.21-.22-.32-.47-.06-1,.17-1.41-.15l-.12-1-1.24-.2V41.3ZM26.49,63.7c-.63-.27-1.14,0-1.65-.33V62l-1.25-.19V60.46c0-.49,0-1,0-1.47a2.47,2.47,0,0,0-.1-1.21c-.48-.33-1.12.18-1.58-.32v-5a2.94,2.94,0,0,0,0-.42c0-.06-.09-.1-.22-.25-.28.19-.72-.23-1,.25-.07.33.15.7-.18,1l-1.38.08a1.9,1.9,0,0,0-.12.43V66.15a.43.43,0,0,0,0,.19.67.67,0,0,0,.17.17h7.12c.05,0,.11-.08.2-.15ZM73.65,75.49a49.38,49.38,0,0,0-7.5,0v1a48.12,48.12,0,0,0,7.5,0ZM57.3,69.31a2.92,2.92,0,0,0,1.45.15c.56,0,1.12,0,1.67,0s1,.14,1.44-.15V67.93a2.92,2.92,0,0,0-1.45-.15c-.55,0-1.11,0-1.67,0s-1-.14-1.44.15ZM17.85,70.72a2,2,0,0,0,0,1.7c.38-.09.74.14,1.05-.17a2.25,2.25,0,0,0-.15-1.53Z"/><path d="M27.75,14.75H24.9v1.44c-.19.1-.3.22-.42.22-.77,0-1.54,0-2.31,0-.06,0-.11.07-.2.13l-.11,1c-.12.05-.24.15-.36.15-.77,0-1.54,0-2.31,0-.55.43,0,1.07-.31,1.56-.45.26-.94.09-1.41.12s-.84,0-1.34,0l-.22,1.21-1,.08c-.4.47,0,1.07-.24,1.64H12c-.37.36-.14.73-.22,1.07-.4.43-.92.16-1.38.2s-1,0-1.51,0V25c-.19.1-.3.22-.42.22-.77,0-1.54,0-2.31,0-.06,0-.12.07-.21.13l-.11,1c-.43.32-.94.09-1.4.15s-1-.13-1.5.17V28c-.52.31-1,.14-1.49.17s-.83,0-1.28,0A2.41,2.41,0,0,1,.1,26.57l1.09-.09.18-1.18,1.42-.07c.33-.47.11-1,.18-1.52l1.23-.24,0-1c.12-.06.23-.18.35-.18.77,0,1.54,0,2.31,0,.06,0,.11-.07.23-.14l.07-1.38c.45-.34,1-.1,1.42-.16s1,.13,1.44-.14l.11-1c.46-.28,1-.08,1.43-.15.49-.45,0-1.08.34-1.64l1-.08.19-1.2h2.65c.36-.52.14-1,.2-1.49.44-.51,1.07,0,1.63-.31V13.7c.19-.1.3-.22.41-.22.83,0,1.66,0,2.54,0L20.68,12c.29-.32.66-.1,1-.17.48-.27.07-.78.31-1.13,0,0,.09-.13.14-.13h2.52c.06,0,.14-.1.15-.15,0-.47.08-.94.11-1.38.1-.07.15-.13.21-.14a.66.66,0,0,1,.2,0h4.07l.2-1.24h2.65c.36-.52.13-1,.21-1.57.89-.37,1.88,0,2.8-.21.28-.3,0-.67.19-1.11a8.62,8.62,0,0,1,2-.08h2.12l.09-1.51A1.25,1.25,0,0,1,40,3h4.84c.2,0,.39,0,.6-.06l.12-1a1,1,0,0,1,.37-.15h7c.48-.44,0-1.07.24-1.51.11-.09.16-.16.21-.16H77.69c.48.47,0,1.1.31,1.58a1,1,0,0,0,.17.1.74.74,0,0,0,.21,0H92.26a1.66,1.66,0,0,1,.28.05l.19,1.19H100c.35.52.14,1,.2,1.5a1,1,0,0,0,.15.14.39.39,0,0,0,.18.06h6.79l.06,1.08c.42.39.92.14,1.39.17s1.12,0,1.68,0A3.65,3.65,0,0,1,112,6L112,7.4c.29.35.68.06,1.2.33.23.17,0,.58,0,1,0,.05-.1.13-.16.13h-5.54l-.21-1.14a.88.88,0,0,0-.17-.12.74.74,0,0,0-.21,0H98.73c-.47-.49,0-1.12-.38-1.66H87c-.41-.36-.11-.75-.31-1.12,0,0-.14-.16-.24-.16H65.17c-.06,0-.12,0-.19.07-.28.3-.06.67-.14,1,0,0-.1.14-.15.14l-7.38.1c0,.52-.05,1-.07,1.47-.12.06-.24.17-.35.17H49.31c-.26,0-.55-.11-.82.14l-.11,1a1,1,0,0,1-.36.15H41.49c-.53.43,0,1.07-.3,1.55,0,0-.09.11-.15.13a.74.74,0,0,1-.21,0H35.49l-.2,1.16a3.71,3.71,0,0,1-1.44.1c-.49,0-1,0-1.47,0H31c-.46.49,0,1.12-.39,1.67H28C27.65,13.83,27.87,14.2,27.75,14.75Z"/></g></g></svg>