<svg xmlns="http://www.w3.org/2000/svg" viewBox="0 0 110.43 110.43"><title>Recurso 105MANDALA</title><g id="Capa_2" data-name="Capa 2"><g id="Capa_1-2" data-name="Capa 1"><path d="M110.43,50.42,95,51.09a82,82,0,0,1-21.42-2.94l1-1.47c15-4.94,29-8.15,3.64-3.12-5.64,1.13,22.75-14.36,22.49-20.1l-13,8.3a81.64,81.64,0,0,1-20,8.17l.09-1.75c10.54-11.79,21-21.55,1.6-4.52C64.92,37.45,81.77,9.85,78.67,5L71.52,18.72A82.09,82.09,0,0,1,58.27,35.8c-.28-.52-.54-1-.8-1.56,3.23-15.48,7.42-29.17-.88-4.71C54.74,35,55.53,2.65,50.42,0l.67,15.46a82,82,0,0,1-2.94,21.42l-1.47-1c-4.94-15-8.15-29-3.12-3.64C44.69,37.92,29.2,9.54,23.46,9.79l8.3,13.06a81.58,81.58,0,0,1,8.17,20l-1.75-.08c-11.79-10.54-21.55-21-4.52-1.6C37.45,45.5,9.85,28.66,5,31.76l13.72,7.15A82.42,82.42,0,0,1,35.81,52.16l-1.57.8c-15.48-3.23-29.17-7.43-4.71.88C35,55.69,2.65,54.9,0,60l15.46-.67a82.48,82.48,0,0,1,21.42,2.93c-.32.51-.64,1-1,1.48-15,4.94-29,8.15-3.64,3.11C37.92,65.74,9.54,81.22,9.79,87l13.06-8.31a82.37,82.37,0,0,1,20-8.17c0,.6,0,1.18-.08,1.76-10.54,11.78-21,21.54-1.6,4.52,4.32-3.79-12.52,23.81-9.42,28.66l7.15-13.72A82.42,82.42,0,0,1,52.16,74.62c.28.53.54,1,.8,1.56-3.23,15.48-7.43,29.17.88,4.72,1.85-5.45,1.06,26.88,6.17,29.53L59.34,95a82.48,82.48,0,0,1,2.93-21.42l1.48,1c4.94,15,8.15,29,3.11,3.64C65.74,72.5,81.22,100.89,87,100.63l-8.31-13a82.43,82.43,0,0,1-8.17-20l1.76.09c11.78,10.54,21.55,21,4.52,1.6-3.79-4.33,23.81,12.52,28.66,9.42L91.71,71.52A82.42,82.42,0,0,1,74.62,58.27l1.56-.8c15.48,3.23,29.17,7.42,4.72-.88C75.45,54.74,107.78,55.53,110.43,50.42ZM55.21,64.11l-8.9-8.9,8.9-8.9,8.91,8.9Z"/></g></g></svg>