<svg xmlns="http://www.w3.org/2000/svg" viewBox="0 0 109.99 109.99"><title>Recurso 110MANDALA</title><g id="Capa_2" data-name="Capa 2"><g id="Capa_1-2" data-name="Capa 1"><rect x="54.29" width="1.42" height="109.99" transform="translate(109.99 109.99) rotate(180)"/><rect x="54.29" width="1.42" height="109.99" transform="translate(118.71 99.61) rotate(170)"/><rect x="54.29" width="1.42" height="109.99" transform="translate(125.49 87.87) rotate(160)"/><rect x="54.29" width="1.42" height="109.99" transform="translate(130.12 75.13) rotate(150)"/><rect x="54.29" width="1.42" height="109.99" transform="translate(132.48 61.77) rotate(140)"/><rect x="54.29" width="1.42" height="109.99" transform="translate(132.48 48.22) rotate(130)"/><rect x="54.29" width="1.42" height="109.99" transform="translate(130.12 34.87) rotate(120)"/><rect x="54.29" width="1.42" height="109.99" transform="translate(125.49 22.13) rotate(110)"/><rect x="54.29" width="1.42" height="109.99" transform="translate(118.71 10.39) rotate(100)"/><rect x="54.29" width="1.42" height="109.99" transform="translate(109.99 0) rotate(90)"/><rect x="54.29" width="1.42" height="109.99" transform="translate(99.61 -8.71) rotate(80)"/><rect x="54.29" width="1.42" height="109.99" transform="translate(87.87 -15.49) rotate(70)"/><rect x="54.29" width="1.42" height="109.99" transform="translate(75.13 -20.13) rotate(60)"/><rect x="54.29" width="1.42" height="109.99" transform="translate(61.77 -22.48) rotate(50)"/><rect x="54.29" width="1.42" height="109.99" transform="matrix(0.77, 0.64, -0.64, 0.77, 48.22, -22.48)"/><rect x="54.29" width="1.42" height="109.99" transform="matrix(0.87, 0.5, -0.5, 0.87, 34.87, -20.13)"/><rect x="54.29" width="1.42" height="109.99" transform="translate(22.13 -15.49) rotate(20)"/><rect x="54.29" width="1.42" height="109.99" transform="translate(10.39 -8.71) rotate(10)"/></g></g></svg>