<svg xmlns="http://www.w3.org/2000/svg" viewBox="0 0 172.92 118.3"><title>Recurso 38MODERN ICON</title><g id="Capa_2" data-name="Capa 2"><g id="Capa_1-2" data-name="Capa 1"><path d="M88.1,48.91a10.5,10.5,0,0,0-7.62,1.71C73,55.78,63.87,58,54.77,58H42.28c-9.1,0-18.22-2.26-25.72-7.42A10.46,10.46,0,0,0,9,48.91,10.61,10.61,0,0,0,10.61,70a10.47,10.47,0,0,0,5.28-1.42c8.1-4.71,17-7.84,26.39-7.84H54.76c9.38,0,18.3,3.13,26.4,7.84A10.47,10.47,0,0,0,86.44,70,10.61,10.61,0,0,0,88.1,48.91Z"/><path d="M164,48.91a10.5,10.5,0,0,0-7.62,1.71c-7.5,5.16-16.62,7.42-25.72,7.42H118.15c-9.1,0-18.22-2.26-25.72-7.42a10.48,10.48,0,0,0-7.61-1.71A10.61,10.61,0,0,0,86.48,70a10.44,10.44,0,0,0,5.27-1.42c8.11-4.71,17-7.84,26.4-7.84h12.48c9.37,0,18.29,3.13,26.4,7.84A10.47,10.47,0,0,0,162.31,70,10.61,10.61,0,0,0,164,48.91Z"/><path d="M128.09,75.46a10.55,10.55,0,0,0-7.62,1.72c-7.49,5.16-16.61,7.41-25.71,7.41H82.27c-9.1,0-18.22-2.25-25.72-7.41a10.6,10.6,0,1,0-.67,18c8.1-4.71,17-7.84,26.39-7.84H94.75c9.38,0,18.3,3.13,26.4,7.84a10.47,10.47,0,0,0,5.28,1.41,10.61,10.61,0,0,0,1.66-21.09Z"/><path d="M128.09,22.35a10.55,10.55,0,0,0-7.62,1.72c-7.49,5.16-16.61,7.41-25.71,7.41H82.27c-9.1,0-18.22-2.25-25.72-7.41A10.6,10.6,0,1,0,50.6,43.44,10.37,10.37,0,0,0,55.88,42c8.1-4.71,17-7.84,26.39-7.84H94.75c9.38,0,18.3,3.13,26.4,7.84a10.37,10.37,0,0,0,5.28,1.42,10.61,10.61,0,0,0,1.66-21.09Z"/><circle cx="88.51" cy="9.59" r="9.59"/><circle cx="88.51" cy="108.71" r="9.59"/></g></g></svg>