<svg xmlns="http://www.w3.org/2000/svg" viewBox="0 0 130.17 159.35"><title>Recurso 35ART</title><g id="Capa_2" data-name="Capa 2"><g id="Capa_1-2" data-name="Capa 1"><path d="M80.79,4.49H83c.1.08.06.19.06.29V8.93s0,.05.07.05h2.11l0,0a.13.13,0,0,1,0,.06v4.3s0,0,0,.07h2.13l.06.07a.13.13,0,0,1,0,.06v6.48s0,.05,0,.06,0,0,0,.07h2.13l.06.07s0,0,0,.06V47.07c-.08.1-.19.06-.28.06H87.58s0,0,0,.07,0,0,0,.06v4.29l0,0H85.36s0,0-.07,0V56l-.07.07H83.11l-.07.06v4.37s-.05.06-.07.06H80.86s0,0,0,0a.17.17,0,0,0,0,.05V65a.09.09,0,0,1,0,0,1.18,1.18,0,0,1-.42,0H78.61l0,0a.13.13,0,0,0,0,.06v2.06s0,0,0,.07H76.37l-.06.07s0,0,0,.06v4.3c-.08.1-.19.06-.29.06h-1.9s-.06.06-.06.07v4.36a11.12,11.12,0,0,0,2.24,0c0-.18,0-.36,0-.55v-1.6l0-.06h4.36l.07-.06V71.9c0-.05,0-.07.07-.07H83c.1-.08.06-.19.06-.28V69.63l.07,0s0,0,.07,0h2l0,0a.13.13,0,0,0,0-.06V67.41s0,0,0-.07h4.38c.11-.15.05-.3.06-.44s0-.29,0-.43v-.94a.86.86,0,0,1,0-.44H92S92,65,92,65a.49.49,0,0,0,0-.12v-2l0,0h2.12l0,0,0,0V60.71s0,0,0-.06l0,0h2.11s0,0,.07-.05V58.42s0-.06.07-.06h2.18v4.42c-.08.1-.19.06-.29.06h-1.9s0,0,0,.07a.13.13,0,0,0,0,.06V65l0,0H94.34s0,0-.07,0v2.13c-.15.11-.3,0-.44.06s-.29,0-.44,0H92v2.19l-.07.06H89.83l0,0a.11.11,0,0,0,0,.05v2.06s0,0,0,.05a.09.09,0,0,1,0,0s0,0-.06,0H85.39l-.06,0s0,0,0,0a.13.13,0,0,0,0,.06V74s0,0,0,.06H83.11l-.07.07a.56.56,0,0,0,0,.13v2c-.08.1-.19.06-.29.06H78.61a.26.26,0,0,0-.06.08v2.1l0,.06H76.38l-.07,0v2.12s0,.06-.07.07H74.13c-.11.08-.07.19-.07.28V83s0,.05.07.05h2.11l.05,0a.14.14,0,0,1,0,.06v2.06a.78.78,0,0,0,0,.07h4.37l.07.07s0,0,0,.06v2a.13.13,0,0,0,0,.06s0,0,0,.07H83l.06.07v2.12c.08.1.19.06.29.06h4.15a1,1,0,0,1,0,.45V92l0,.05h6.61l.07,0V94.2s0,.06.06.06h4.36c.11.07.07.18.07.28v1.9s0,.06.07.06h2.11s0,0,0-.05a.13.13,0,0,0,0-.06V94.35s0,0,.05-.08h6.66a2.12,2.12,0,0,0,0-.56c0-.19,0-.37,0-.56V92h6.67l.06-.07V89.84s0,0,.05,0h4.35a.09.09,0,0,0,0,0l0,0V87.64a.13.13,0,0,1,0-.06l0,0h2.12l.07,0V85.36l.06-.07s0,0,.07,0h2.12v4.42c-.08.11-.19.07-.29.07h-1.9l-.06.07V92l0,.05h-4.36l-.07,0V94.2l-.07.06h-4.36l-.06,0v2.13s0,.06-.07.06h-6.61l0,0a.08.08,0,0,0,0,0v2.11c-.76.06-8.19.08-11.17,0l0,0s0,0,0-.06v-2s0,0-.05-.07H89.83c-.11-.15,0-.3-.06-.44s0-.29,0-.44V94.27H85.34l-.06-.07V92.08l0,0,0,0h-4.3a.12.12,0,0,1-.08-.08s0,0,0-.06v-2a.13.13,0,0,0,0-.06.08.08,0,0,0,0,0H76.38s0,0-.06,0V92s0,0,.05,0,0,0,.06,0h2.06c.1.08.06.19.06.29v1.9s0,.05.07.05h2.11l0,0a.07.07,0,0,1,0,.05c0,.69,0,1.37,0,2.06,0,0,0,0,0,.07H83l.06.07a.13.13,0,0,1,0,.06v2s0,0,0,.06a.17.17,0,0,0,.06.07h2.12l.06.07s0,0,0,.06v4.3l0,0h2.14c0,.05,0,.06.06.08v2.11l0,0H89.7l.07.05v4.38c.15.1.29,0,.43,0h.94c.14,0,.29,0,.44,0a.86.86,0,0,1,.44,0v4.38l.06,0a.56.56,0,0,0,.13,0h2l0,.05a.14.14,0,0,1,0,.06v11a.12.12,0,0,0,.08.08h2.11a.1.1,0,0,1,0,0v15.58s0,0,0,.07H94.33s-.06.05-.07.07v4.36c-.07.11-.19.06-.28.06H92.07l0,.07a.56.56,0,0,0,0,.13v4.23l0,.05H89.85l0,0,0,0v4.3s0,0,0,.06,0,0,0,0H87.6s0,0-.07.06V157s0,.06-.07.06H85.28v-4.43c.08-.1.19-.06.29-.06h1.9l.06-.07v-4.36l0-.05h2.11s0,0,0,0,0,0,0,0,0,0,0-.06v-4.24s0,0,0-.06l0,0h2.11s0,0,.06,0V119s0,0,0,0H89.84l-.07,0v-4.36s0-.07-.06-.07H87.59c-.1-.07-.06-.18-.06-.28V110s-.06,0-.08,0,0,0-.06,0h-2l0,0a.14.14,0,0,1,0-.06v-4.3s0,0,0-.07H83.11s-.06,0-.06-.07a.13.13,0,0,1,0-.06v-2.06l-.06-.06H80.87c-.05,0-.07,0-.07-.07a.49.49,0,0,1,0-.12v-2a10.67,10.67,0,0,0-2.2,0l0,0v4.36s0,0,0,0l-.06,0h-2s0,0-.08,0v4.37s0,.06-.06.07H74.13l-.07,0v2.12s0,.07-.06.07H71.88c-.1.08-.06.19-.06.29v1.92c-.81.06-8.13.08-13.41,0,0,0,0,0,0,0a.14.14,0,0,1,0-.06V112.3l0,0,0,0H56.16s0,0,0,0a.07.07,0,0,1,0,0v-2.06s0,0-.06-.07H53.93s-.06,0-.07-.07v-4.36c-.07-.1-.18-.06-.28-.06h-1.9s-.06-.06-.06-.07a.57.57,0,0,1,0-.13v-4.23a10.81,10.81,0,0,0-2.21,0s0,0,0,0a.13.13,0,0,0,0,.06v2a.13.13,0,0,1,0,.06.1.1,0,0,1,0,0H47.2l-.07.06v4.37l-.06.06H45c-.1.08-.06.19-.06.29,0,.64,0,1.28,0,1.9,0,0-.06,0-.08,0H42.7l0,0a.08.08,0,0,0,0,0v4.3a.09.09,0,0,1,0,.05s0,0,0,0,0,0-.06,0h-2s0,0,0,0a.13.13,0,0,0,0,.06v8.79s0,0,0,.07H38.22s-.06,0-.06.06a.13.13,0,0,0,0,.06v20s0,0,.06.07h2.11l.08.06v4.43H38.22c-.11-.08-.06-.19-.07-.29v-1.9s0-.05-.07-.05H36l0,0a.07.07,0,0,1,0-.05v-4.3s0,0,0-.08H33.73s0,0-.06-.06a.13.13,0,0,1,0-.06c0-3.68,0-7.35,0-11,0,0,0,0,0-.07h2.12s.06-.05.06-.07,0,0,0-.06V116.84s0,0,0-.06l.06-.07h2.12s.06,0,.06-.07a.48.48,0,0,0,0-.12V110c.08-.1.19-.06.29-.06.64,0,1.28,0,1.9,0l.06-.08v-2.11s0,0,.05-.05h2.11s0,0,.07,0v-4.38l.07-.06h2.11s0,0,.07,0v-2.12s0-.07.07-.07a.48.48,0,0,1,.12,0h2c.1-.08.06-.19.06-.29v-1.9s0,0,.07,0h2.11l0,0a.07.07,0,0,0,0,0c0-1.44,0-2.87,0-4.3,0,0,0,0,0-.08h2.14l0-.06a.13.13,0,0,0,0-.06V92.09s0,0,.05-.07h2.12s.07,0,.07-.06a.56.56,0,0,0,0-.13v-2H56s0,0,0,0a12.29,12.29,0,0,0,0-2.19H53.86v2.23H49.44c-.11.07-.06.19-.06.28,0,.64,0,1.28,0,1.9L49.3,92s0,0-.06,0H45s0,0-.05,0a.13.13,0,0,0,0,.06c0,.68,0,1.37,0,2.06,0,0,0,0,0,.08H42.7l-.05,0a.13.13,0,0,0,0,.06v2.06s0,0,0,.07H36l-.06.06a.57.57,0,0,0,0,.13v2c-.06.09-.15.06-.22.06h-11s0,0,0-.06,0,0,0-.06V96.57l-.05,0H20.28s0,0-.05,0,0,0,0,0,0,0,0-.06v-2a.43.43,0,0,1,0-.05l-.05,0h-6.6s0,0-.07-.05V92.09L13.4,92H11.29c-.11-.07-.07-.19-.07-.28v-1.9l-.07-.06s0,0-.06,0H9l0,0a.13.13,0,0,1,0-.06V87.61a.59.59,0,0,0-.05-.08H6.8l-.06,0a.13.13,0,0,1,0-.06V85.36s0,0-.05-.07H4.56l-.07-.06a.56.56,0,0,1,0-.13V80.8H6.67c.1.08.06.19.06.29V83s.06.05.08.05h2.1s.05,0,.06.06a.43.43,0,0,1,0,.05v2.06s0,0,0,.07h2.13c.11.15.05.3.06.44s0,.29,0,.44v.93c0,.14,0,.29,0,.44h2.14l.05.07a.53.53,0,0,1,0,.13v2l0,0,.06,0h4.3a.12.12,0,0,1,.08.08s0,0,0,.06v2A.14.14,0,0,0,18,92s0,0,0,0h4.36s0,0,.07.06v2.11s0,.07.07.07h6.6c.1.08.06.19.06.28,0,.64,0,1.28,0,1.9,0,0,.05.06.07.06h2.11l.05-.05a.13.13,0,0,0,0-.06V94.34s0,0,0-.07h6.61l.07-.06s0,0,0-.07v-2c.08-.11.19-.07.29-.07h4.14l.06-.07s0,0,0-.06v-2s0,0,0,0h4.36s0,0,.08,0V87.6s0,0,.06-.06h4.3s0,0,.06,0,0,0,.07,0V85.35l.06-.06H53.8s0,0,.05-.05a.07.07,0,0,0,0,0V83.13s0,0,0,0a.86.86,0,0,1,.42,0H56s.05,0,.06-.05a.13.13,0,0,0,0-.06v-4.3s0,0,0-.07H51.69s-.06,0-.07-.07,0,0,0-.06V76.38c-.08-.11-.19-.07-.29-.07H47.19l-.06-.07V74.13l-.05,0H45l-.07,0V71.89c-.15-.12-.3-.06-.43-.06h-.94c-.15,0-.29,0-.44,0a.86.86,0,0,1-.44,0V69.64s0-.06-.07-.06H38.22s0,0,0,0a.11.11,0,0,1,0,0V67.42a.12.12,0,0,0-.08-.08H36s0,0,0,0a.13.13,0,0,1,0-.06V65.16l-.06-.07H33.73s-.06,0-.06-.06a.13.13,0,0,1,0-.06V60.6h2.19c.1.08.06.19.06.29v1.9s.05.05.07.05h2.11l0,0s0,0,0,.05V65s0,0,.05.07h4.41a2.21,2.21,0,0,1,0,.57v1.68h2.18s.06,0,.06.07a1.21,1.21,0,0,1,0,.19v1.93l0,0,.06,0h2s0,0,.06,0a1.18,1.18,0,0,1,0,.42c0,.14,0,.29,0,.44v1.29a.23.23,0,0,0,0,0h4.36s0,0,.07.05V74s0,.06.07.06H53.8c.1.07.06.18.06.28v1.9l.07.06h4.36a11,11,0,0,0,0-2.24H56.17s-.05,0-.06-.06V71.89s0,0-.06-.06H53.93s-.06,0-.07-.07V67.4c-.08-.1-.19-.06-.28-.06H51.67l-.05-.07s0,0,0-.06V62.91l0,0H49.45l-.07,0V60.66c-.15-.11-.3,0-.44-.06H47.13V56.17s-.05-.05-.07-.05H45l-.05,0a.13.13,0,0,1,0-.06c0-1.43,0-2.87,0-4.3,0,0,0,0,0-.05a.86.86,0,0,0-.42,0H42.7s0,0-.05,0a.13.13,0,0,1,0-.06v-11s0,0,0-.07H40.47l-.07-.07s0,0,0-.06V24.76s0,0,.06-.07h2.12s.06-.05.06-.06V15.78l0,0H44.8l.05,0s0,0,0,0a.13.13,0,0,0,0-.06V9.05s0-.05,0-.06h2.11s0,0,.07-.05V4.55c.16-.1.3,0,.44,0h1.37c.14,0,.29,0,.45,0V.06l.06,0h2.12l0,0a.14.14,0,0,1,0,.06V6.59a.53.53,0,0,1,0,.12l-.05,0H49.43l0,0a.13.13,0,0,0,0,.06v4.3s0,0,0,.07H47.2s-.06,0-.07.07,0,0,0,.06V17.9c-.08.1-.19.06-.28.06H44.93c-.08.81-.1,20.61,0,29.12l0,0,.06,0h2.06l.06,0a1.91,1.91,0,0,1,0,.48c0,.17,0,.33,0,.5v3.41l0,.06H49.3s0,0,.07,0v4.37l.07.06h2.11c.11.08.07.19.07.29v4.14l.07.06H53.8l.05,0a.13.13,0,0,1,0,.06V65s0,0,0,.08h2.14c.11.14.05.29.05.43a3.09,3.09,0,0,1,0,.43v.5c0,.15,0,.29,0,.44a1,1,0,0,0,0,.44h2.13s.07,0,.07.07a.48.48,0,0,1,0,.12v4.24a10.16,10.16,0,0,0,2.21,0s0,0,0,0a.13.13,0,0,0,0-.06v-2s0,0,0,0h4.29a.51.51,0,0,1,.14,0v2.15a12.94,12.94,0,0,0,2.25,0V69.64s0-.06.07-.06h2.11l0,0a.07.07,0,0,1,0,.05v2.06s0,0,0,.05,0,0,.05,0h2.1s0,0,.06,0a.13.13,0,0,0,0-.06V69.65s0,0,.05-.07H74l.07-.06s0,0,0-.06V65.15c.08-.1.19-.06.29-.06h1.9s0,0,0-.07a.13.13,0,0,0,0-.06v-4.3l0,0,0,0h2.06s0,0,.07,0V56.18l.07-.06h2.11s0,0,.07,0V51.7s0-.07.07-.07H83c.1-.07.06-.19.06-.28V47.19l.07,0h2.11l0-.06a.07.07,0,0,0,0,0V15.72H83.1s0,0,0-.06a.13.13,0,0,1,0-.06V11.3s0,0-.06-.07H80.87c-.05,0-.07-.05-.07-.07a.49.49,0,0,1,0-.12Z"/><path d="M33.66,60.6H31.48c-.1-.08-.06-.19-.06-.28V58.41s-.05,0-.07,0H29.24l0,0a.13.13,0,0,1,0-.06c0-1.43,0-2.87,0-4.3,0,0,0,0,0-.08H27l0-.06s0,0,0-.06v-4.3s0,0-.05-.07H24.75s-.05,0-.06-.06,0,0,0-.06V45c-.08-.11-.19-.07-.29-.07H22.5l-.06-.07V33.73l-.05,0-.05,0H20.28l-.05,0c-.05-.67-.06-4.53,0-6.65a12.31,12.31,0,0,1,2.23,0v4.4c.15.1.3,0,.43.05h1.38a.86.86,0,0,1,.44.05V42.59l.06.06h2.12c.1.08.06.19.06.28v4.15l.07.05h2.11a.12.12,0,0,1,.05,0,.11.11,0,0,1,0,.05v4.31a.78.78,0,0,0,0,.07h2.13l.06.06a.13.13,0,0,1,0,.06V56s0,0,.06.07h2.11s.07,0,.07.07a.48.48,0,0,1,0,.12Z"/><path d="M98.75,58.36V53.93c.08-.1.19-.06.28-.06h1.91s0-.06,0-.07,0,0,0-.07V49.44l.05,0h2.12l.07-.05V44.92a2.7,2.7,0,0,1,.56,0h1.69V36s0-.06.07-.06h2.11c.11-.08.06-.19.06-.28q0-4.07,0-8.11V27l.07,0h2.11s0,0,0,0a.13.13,0,0,1,0,.06v11s0,0,0,.07h-2.13l-.06.07s0,0,0,.06V47a.13.13,0,0,1,0,.06s0,0-.06.07h-2.12l-.06.06v4.36l0,0h-2.11l0,0s0,0,0,.05,0,0,0,.07V56s0,0,0,.06,0,0,0,0h-2.11s0,0-.07.06v2.12l-.07.07H98.75Z"/><path d="M40.4,148.13h2.18c.1.08.06.19.06.28v1.9s0,.06.07.06h2.11l0,0a.14.14,0,0,1,0,.06v4.3l0,.05s0,0,.05,0h2.11l0,0a.13.13,0,0,1,0,.06v4.24a.61.61,0,0,1,0,.11s0,0-.05,0H45s-.05,0-.06-.06v0c0-.69,0-1.38,0-2.06,0,0,0,0-.05-.07H42.71s-.06-.05-.07-.07v-4.29s0-.05,0-.06l-.06-.07H40.46s-.06-.05-.06-.07a.48.48,0,0,1,0-.12Z"/><path d="M4.49,80.8H2.31c-.1-.08-.06-.19-.06-.28,0-.65,0-1.29,0-1.91,0,0-.05,0-.07,0s0,0-.06,0h-2l0,0a.13.13,0,0,1,0-.06V74.21a.45.45,0,0,1,0-.11s0,0,.05,0H2.19c.11.14,0,.29.05.43s0,.29,0,.43v1.38H4.42l.07.07V80.8Z"/><path d="M127.92,78.56V83s-.06.05-.08.05h-2.1l0,.06a.07.07,0,0,0,0,.05v2s0,0,0,0l0,0h-2.17V80.85l.08,0h2.1l0,0a.13.13,0,0,0,0-.06v-2s0,0,0-.06l0,0Z"/><path d="M80.79,4.49H78.62s0,0-.06,0V.06a11.86,11.86,0,0,1,2.2,0l0,0Z"/><path d="M127.92,78.56V74.08h2.2s0,0,0,0a.13.13,0,0,1,0,.06V78.5l-.07,0Z"/><path d="M85.28,157.11v2.23H83.09a11.72,11.72,0,0,1,0-2.2l0,0Z"/></g></g></svg>