<svg xmlns="http://www.w3.org/2000/svg" viewBox="0 0 94.19 94.19"><defs><style>.cls-1{fill:none;stroke:#211915;stroke-miterlimit:10;stroke-width:1.02px;}</style></defs><title>Recurso 18MANDALA</title><g id="Capa_2" data-name="Capa 2"><g id="Capa_1-2" data-name="Capa 1"><path class="cls-1" d="M82.39,72.6H62.05a5.7,5.7,0,0,1-4-1.67L44.77,57.68"/><circle class="cls-1" cx="84.49" cy="72.6" r="2.1"/><circle class="cls-1" cx="43.48" cy="56.55" r="2.1"/><path class="cls-1" d="M90.09,40.17,75.7,54.56a5.69,5.69,0,0,1-4,1.66H52.94"/><circle class="cls-1" cx="91.57" cy="38.68" r="2.1"/><circle class="cls-1" cx="51.23" cy="56.33" r="2.1"/><path class="cls-1" d="M72.6,11.8V32.14a5.66,5.66,0,0,1-1.67,4L57.68,49.42"/><circle class="cls-1" cx="72.6" cy="9.7" r="2.1"/><circle class="cls-1" cx="56.55" cy="50.71" r="2.1"/><path class="cls-1" d="M40.17,4.1,54.56,18.49a5.69,5.69,0,0,1,1.66,4V41.25"/><circle class="cls-1" cx="38.68" cy="2.61" r="2.1"/><circle class="cls-1" cx="56.33" cy="42.96" r="2.1"/><path class="cls-1" d="M11.8,21.59H32.14a5.66,5.66,0,0,1,4,1.67L49.42,36.51"/><circle class="cls-1" cx="9.7" cy="21.59" r="2.1"/><circle class="cls-1" cx="50.71" cy="37.64" r="2.1"/><path class="cls-1" d="M4.1,54,18.49,39.63a5.69,5.69,0,0,1,4-1.66H41.25"/><circle class="cls-1" cx="2.61" cy="55.5" r="2.1"/><circle class="cls-1" cx="42.96" cy="37.85" r="2.1"/><path class="cls-1" d="M21.59,82.39V62.05a5.7,5.7,0,0,1,1.67-4L36.51,44.77"/><circle class="cls-1" cx="21.59" cy="84.49" r="2.1"/><circle class="cls-1" cx="37.64" cy="43.48" r="2.1"/><path class="cls-1" d="M54,90.09,39.63,75.7a5.69,5.69,0,0,1-1.66-4V52.94"/><circle class="cls-1" cx="55.5" cy="91.57" r="2.1"/><circle class="cls-1" cx="37.85" cy="51.23" r="2.1"/></g></g></svg>