<svg xmlns="http://www.w3.org/2000/svg" viewBox="0 0 211.13 405.79"><title>Recurso 35GRAPHS</title><g id="Capa_2" data-name="Capa 2"><g id="Capa_1-2" data-name="Capa 1"><path d="M24.73,57.65c-.45,0-.59.68-1.11.46l-1.7,1.7H20.8L20,59.28c-.1-.69.33-.82.56-1.16l1.39-.06c.37-.32.06-.72.22-1-.42-.45-.83-.83-1.17-1.18-.27.09-.46.1-.5.19-.2.42-.37.86-.53,1.3a2.14,2.14,0,0,0,0,.51L18.05,59.5l-.52.26-.41-.38h-.33l-1.61-1.51V56.56l-.33-.33c0-.46.81-.71.32-1.16l2.16-2.17H18l1.57,1.68h1.07c.32-.34.09-.72.18-1l1.08-1.08h.87c.34.44.88.72,1.1,1.21-.16.76-.75,1-1.39,1.1l.71.72h.88c.51-.45,0-1.11.3-1.6l.35-.35V50l-.77-.2-.14-.61-.38-.41c0-.16-.05-.33,0-.44a4.11,4.11,0,0,0,.91-2.66l.32-.31V41.66l-1.07-.08c-.35-.28-.08-.68-.22-1l.91-1V38.37l.4-.46V34.47l-.57-.61-.68-.16V32.65l.84-.65V30.57l.42-.45V26.58l-.65-.2-.74-1.46,1-.66v-1l.45-.47V1.08L25.8,0H210.08l1,1.15V186.69l-1.12.92-.38-.32h-1.29l-.45.41h-8.65l-.31-.29a1.36,1.36,0,0,0-.37-.13h-2.78l-.49.43c-.43,0-.91.15-1.2-.39h-2.27l-.36.36H163.69l-.43-.36-.69.48-.65-.51c-.1.11-.21.21-.31.31a1.4,1.4,0,0,1-.39.1c-.64,0-1.28,0-1.89,0l-.39-.39h-1.72l-.61.39a1.56,1.56,0,0,1-.4-.1,2,2,0,0,1-.33-.32h-1.3l-.45.42h-33l-.32-.36c-.58-.21-1.22,0-1.79-.1l-.52.46c-.43,0-.9.15-1.2-.39h-1.83l-.37.36H81.32l-.46-.39H80l-.45.42H77.84l-.53-.5-1,.45H44l-.33-.34H42.34a1.72,1.72,0,0,1-1.32.38l-.47-.41H38l-.45.42H26.25l-.46-.43-.43,0-.62-1.21v-51l.42-.46V133.3l-.31-.31c0-.05-.12-.11-.12-.16V97.06a.48.48,0,0,0,0-.2.58.58,0,0,0-.13-.14L23,98.36h-1.5a5.59,5.59,0,0,1-1.92-2.66V93.77l.85-.66v-.63c.79.06,1.06-.79,1.65-1a1.77,1.77,0,0,1,.44.18c.52.5,1,1,1.6,1.6.08-.19.13-.36.21-.51s.2-.35.38-.65V88.17c-.32-.32-.7-.09-1-.17L23,87.33c.75-.37.82-1.22,1.32-1.78-.17-.86.68-1.5.47-2.43a10.49,10.49,0,0,1,0-2.31c-.51-.23-1-.31-1.29-.83v-.86l.86-.91V77l.4-.45V72.58c-.48-.29-1.12-.31-1.28-1,0-.59.6-.75.87-1.15V68.72l.42-.45V65.66c-.4-.28-.93-.34-1.26-.86l0-.91.87-.48v-1.6l.45-.48V57.65c.44-.25.44-.25.25-.83C24.52,57,24.81,57.37,24.73,57.65ZM36.38,84c.1.33.07.67.45.37a1.77,1.77,0,0,1-.27-.25l-1-1.13v-.85c.47-.29,1.1-.32,1.29-1l-.51-1c.19-.21.34-.36.47-.52s-.07-.1-.11-.15a81.85,81.85,0,0,0-10.65.1V84c.11.07.16.14.22.14C29.68,84.1,33.05,84.1,36.38,84ZM137,79.64c.1.34.06.67.44.38a1.33,1.33,0,0,0-.39-.26c0-.12-.07-.28-.16-.36-1.11-1-1.91-2.31-3.34-2.92l-2.74-2.74-.59-.12-.27-.79h-.48l-2.6-2.61h-.44c-.34-.77-.71-1.51-1.63-1.74a1.16,1.16,0,0,1-.34-.22c-.61-.47-1-1.2-1.75-1.52s-1.24-1.16-1.94-1.7l-.39,0c-.6-1.14-.6-1.14-2.25-1.79L114.87,60a1.06,1.06,0,0,0-.15-.15.65.65,0,0,0-.2,0h-.83c-.25-.28-.56-.67-.91-1A2.84,2.84,0,0,0,111.6,58c-.43-.14-.72-.69-1.1-1-.14-.12-.42-.07-.57-.19a2,2,0,0,0-.89-.47c-.3-.07-.53-.47-.78-.73a3.57,3.57,0,0,0-1.77-1,11.49,11.49,0,0,0-1.43-1.28c-.5-.32-1.18-.34-1.59-.84s-1.29-.57-1.66-1.22c-.66-.14-1.17-.75-2-.59-.12-.86-1.07-.71-1.56-1.23-.13-.14-.55,0-.82,0-.91-1-2.25-1.29-3.3-2-.41-.28-.86,0-1.38-.46l-.57-.58H90.85L90.38,46c-1.19.16-1.93-1.09-3-.91l-.76-.76c-.52-.19-1,.1-1.55-.23l-.24-.27H83.21l-.58-.9H80l-.41-.41h-2L76,41.61H71.79c-.06,0-.11-.09-.26-.21l-.19-.23H69.17l-.45-.41H63.61c-.88.56-1.91.85-2.08,2-.67.5-1,1.36-2,1.57-.3.06-.52.48-.8.76l-.59-1.15.78-.29L58.91,43l-1.54-.09c-.09-.32-.6-.38-.58-.62,0-.63.44-.75.63-1s.56-.39.65-.9c-1,0-1.88,0-2.78,0l-.45.4H52.26l-.5-.42c-.37.06-.72-.08-1,.22-.52.5-1,.31-1.5-.21H38.65a1.43,1.43,0,0,0-.39.11l-.31.31H32.32l-.45-.42H29.28l-.47.43c-.46,0-.89,0-1.32,0s-1-.21-1.46.21v4.3c0,.06.08.11.13.17a1.8,1.8,0,0,0,.39.08q12.14,0,24.27,0c.12,0,.23-.14.35-.21l-.41-.43c0-.61,0-1.19,0-1.76,0,0,.09-.1.16-.18h.88l.45.41h1c.63,1.21,2,1.48,3.07,2.17h4.15a3.09,3.09,0,0,1,.43,0c.06,0,.11.07.27.18l.64.69h6.08l.49.44H71.8a.82.82,0,0,0,.92.41c.43-.09.57.38,1.1.49h1.89l.35.35,1,.08.38.38H79l2.4,1.28,1.29.1c.44.69,1.21.16,1.76.45l.77.78h1.86l.7.89h1.1c1.31.5,2.18,1.35,3.35,1.35l.36.36h1l.7.89h.93l.79.8,1,.11.35.35h.88a3.08,3.08,0,0,0,1.64,1.18c.54.23.88.76,1.36.91a3.86,3.86,0,0,1,1.33,1h.86l.46.43c.35.08.74-.15,1,.17l.13.6a4.33,4.33,0,0,1,2.42,1.06,6,6,0,0,0,2.66,1.09l1.4,1.41a1.73,1.73,0,0,1,.69.13A5.67,5.67,0,0,1,113.86,65c.76-.14.84,1,1.59.87l1.45,1.3c.53-.2.73.5,1.28.52s.78.59,1.21.68c.63.14.93.59,1.35,1,.59-.27.73.74,1.32.46l1.65,1.65c.24.08.5.07.61.2.34.39.9.32,1.24.74a2.77,2.77,0,0,0,1.18.76,1.76,1.76,0,0,1,1,.64c.25.42.82.21,1.06.61.5.81,1.47,1,2.14,1.66a6.53,6.53,0,0,0,1.65.83l1.49,1.49a4.84,4.84,0,0,1,2.24,1.38A1,1,0,0,0,137,79.64ZM84.43,25.15c-.29.16-.52.31-.76.42a19.05,19.05,0,0,1-2,.93c-.21.06-.08.32-.36.41s-.6.69-1,.79a2.49,2.49,0,0,0-.87.55c-.3.22-.64.4-1,.61l.84.4c-.37.36-.75.14-1.08.21l-.45-.41h-1c-.15.72-.94.68-1.43,1.1l.16.64H80.9l.46.46h2.18l.36.38h2.16l.47.44c.83-.23,1.39.66,2.2.48.61.73,1.49.17,2.19.46l.78.78h1.2l1.53.89h1.21a3.88,3.88,0,0,1,1.64,1.23,2.56,2.56,0,0,1,1,.19,19.74,19.74,0,0,0,2.13,1.13c.79.37,1.55.78,2.34,1.15,1.39.66,2.76,1.35,4.28,2.1l1.11,1.12h.9a5.5,5.5,0,0,0,2.79,1.9.92.92,0,0,0,0,.31,2,2,0,0,0,.18.36l.54,0,1,1.16.83.27c.06.26.1.46.12.59l1.6.73.19.66a1.79,1.79,0,0,1,.59.13,10.07,10.07,0,0,1,1.42,1.43c.39.57,1.14.55,1.52,1.07s1,.75,1.15,1.48,1.19.64,1.59,1.24c.19.29.51.43.57.86.08.66.79.67,1.23.95l.13.59a1.62,1.62,0,0,1,1.38,1.35l.59.16c.11.87,1.08,1.22,1.17,2.06l.51,0a14.67,14.67,0,0,1,1.71,2.09,10.9,10.9,0,0,0,2,2c.25.72.38,1.5,1,1.91l.64.15.17.65c.19.26.78-.07.77.51s.73.78.9,1.36a2.81,2.81,0,0,0,.75,1.42l.27.25.56.13.78,1.73a13.25,13.25,0,0,1,1.71,1.69,17.72,17.72,0,0,1,1.31,2.56c.25.25.7.73,1.17,1.17s.46,1.17,1.06,1.52c.31.18.09.66.46.9s.62.39.56.83c.7.68,1,1.7,1.74,2.32V83l1.23,1.23c-.12.55.53.77.54,1.31,0,.25.33.55.68.64.06-.06.15-.12.14-.17a4.59,4.59,0,0,0-.86-1.81c0-.62.15-1.28-.43-1.77.15-.54-.33-.89-.41-1.34a3.29,3.29,0,0,0-.4-1.15c-.21-.36,0-1-.49-1.3a1.84,1.84,0,0,0-.4-1.36c-.2-.29,0-.76-.34-1.16s-.14-.94-.19-1.38c-.7-.81-.69-2-1.68-2.54V71c-.19-.38-.3-.63-.43-.86s-.28-.46-.46-.74V68.21c-.32-.9-1.14-1.55-1.27-2.53-.51-.32-.46-.83-.45-1.33a6.73,6.73,0,0,1-1.4-2.23c-.44-.76-.79-1.55-1.17-2.33a5,5,0,0,1-.95-2.42l-1.23-1.23c-.39-.63-.4-1.45-1.06-2a3.19,3.19,0,0,1-1.11-1.92l-1.3-1.41c.12-.75-1-.84-.87-1.59l-1.3-1.41,0-.47-.74-.26-.12-.46c-.76-1.07-1.93-1.64-2.33-2.86l-3.06-3.06h-.52c-.27-.42-.56-.86-.86-1.3l-.51-.07-1.91-2a6.5,6.5,0,0,1-1.77-.9c-.37-.32-.6-.84-1.12-.94s-.83-.76-1.31-1c-.22-.14-.5-.19-.73-.32a24.13,24.13,0,0,0-2.67-1.39c-.38-.15-.5-.68-1-.72s-.61-.58-1.09-.49c-.75-.71-2-.69-2.5-1.68H107a13.76,13.76,0,0,0-1.5-.84,2,2,0,0,0-.77,0l-.83-.83-1.38-.08-.38-.38H100.4l-.94-.9H98.19l-.4-.4h-2.6L94.73,26h-1.3L93,25.58c-1.17,0-2.38,0-3.48,0l-.42-.42Zm18.33,71.52c-.54-.1-.77-.61-1.13-.93-.12-.12-.06-.44-.18-.56-.29-.29-.47-.76-1-.67l-.47.42H43.6l-.46-.43h-.87a1.66,1.66,0,0,1-.87.5c-.36.15-.61.56-.83.79l-.92,0c-.3.31-.52.71-.82.78a1.6,1.6,0,0,0-.88.49H36.6c-.12-.32-.57-.4-.62-1l.44-.59c-.06-.3.16-.68-.16-1H34.87l-.35.35a.65.65,0,0,1-.2,0h-7.8a.81.81,0,0,0-.22,0,1.42,1.42,0,0,0-.22.14v35.73l.67.17c.27.28.61.65,1,1.11-.71,0-.27.66-.62.95l-1.13.12v36.53l1,1.06.69.16A3.65,3.65,0,0,1,26,172.35V186a.42.42,0,0,0,0,.2c0,.07.09.11.18.2h3.63a1.86,1.86,0,0,0,.39-.1l.31-.32h2.17l.45.42h1.72l.45-.41h1.31c.35.56.85.44,1.31.36l.44-.34.38.38h.92c.17-.21.53-.46.58-.75s.35-.6.58-.85c.08-.08.25-.08.38-.12.39.08.53.45.81.66.07.34-.16.72.16,1h4.44l.38-.38H64.56a1.17,1.17,0,0,1,.39.12l.31.31h7.79l.45-.42.44.4h2.15l.51-.42c.62.08,1.07.81,1.76.34.46-1,1-1.64,1.53-1.64.73.13,0,.9.33,1.11l.64.59H82.6L83,186h1.35l.37.37H87c.21-.23.42-.55.79-.43l.71.53.73-.52c.64-.32,1,.4,1.6.43l.46-.38h14.82l.37.37h3.47c.26-.18.44-.58.87-.43l.45.42h5.21l1.74-1.74,1.23,1.73h6.12l.5-.41c.48,0,.93-.08,1.22.44,1.18,0,2.39,0,3.49,0l.43-.42h11a1.36,1.36,0,0,1,.37.13l.31.29h10.39l.46-.41a1,1,0,0,0,1.21.38l.71-.57v-.93c-.88-.41-.93-.46-1.31-1.2l.4-.48v-2.85l-.78.08,0,.57-1,.49-1.18-.85c0-.33-.05-.5,0-.62.27-.61.57-1.21.85-1.81-.05-.41.13-.85-.15-1.29h-.56c-.25.28-.16.66-.44,1a3.16,3.16,0,0,0-.57,1.26,4,4,0,0,1-1.3,2.28.41.41,0,0,1-.17.11l-1.21-.95c.36-1,1.07-1.72,1-2.65l.37-.38v-1.72l.45-.48v-.84l.45-.49v-1.57l1-1.15,1.16.6v1.3l-.43.47a9.57,9.57,0,0,0,.14,2.16l.78-1.1h1a4.92,4.92,0,0,1,1.12,1.81c-.14.18-.46.4-.45.6,0,.43-.3.61-.46.89.08.49-.22,1,.2,1.45l.86-.8,1.12,1v4.61a4.5,4.5,0,0,0,1.53,2.1h5.63l.37-.37h2.65l.44.34h3.74l.91-.45.55.49h3l.45-.42h.85l.45.41h5.55l.74-.47.67.44h1.31l.36-.36a3,3,0,0,1,1.44.08l.32.33h4.33l.45-.41.44.38h1.32l.8-1.69.63.05c0,.37.06.71.09,1.06.21.2.41.4.61.61h2.16l.45-.41.47.4a1.63,1.63,0,0,0,1.32-.39h1.71l.35.35h6.64a2,2,0,0,0,.12-.44q0-6.94,0-13.87c0-.12-.12-.24-.19-.36-.63-.1-.63-.1-.6-.74l.78-.78V133.11l-1.35-1,.67-.7.65-.13V93.85l-.35-.47.39-.39V56.15l-.85-.9.81-.8V1.73H195.77l-.47.41c-.5.18-.62-.35-.76-.37H157.13l-.82.81-.89-.84H119.25c-.63.19-.73.69-1.17.78l-.78-.78H80.45l-1,1-.64-.92h-37l-.29.77L41,2.61l-.69-.88H26.46a.49.49,0,0,0-.21,0c-.07,0-.11.09-.18.16V15.43l.81.81-.83.89v2.61l.37.38-.35.45v1.89a5.8,5.8,0,0,0,.65.07H77.65c.12,0,.24-.11.36-.17L77.22,21l1.19-.61h1.14c.25.47.91.31,1.19.74s1,.53,1.38.89,1-.1,1.32.53h4.3c.06,0,.12-.07.17-.1l.32-.32h.69l1.54-1.74a1.59,1.59,0,0,0,1.26-.43c.66,0,1.38,0,2.1,0,.05,0,.11.07.17.11,0,.58-.89.67-.77,1.33a10.08,10.08,0,0,1-1.57.8,8.64,8.64,0,0,0-1.12.67l1.26.2.34.35h3l.49.45h2.23c.13.6.64.36,1,.43s.63.46,1.12.46a2,2,0,0,1,1.27.52c.39.37.78.29,1.21.31L103,26c.56,0,1.14,0,1.71,0,.06,0,.11.09.16.14.08.25.17.5.25.73h.9l.5.45h1.26l.79.79,1,.12c.28.29.54.54.8.8h1.08l1.17,1.29.81,0,.83.83h.86a9.86,9.86,0,0,0,1.23,1.19,7.78,7.78,0,0,0,1.47.64,9.73,9.73,0,0,1,1.06,1.07c.32.43.83.48,1.2.77s.83.78,1.29,1.09a5,5,0,0,0,1,.47l2.49,2.49.18.52h.48c.36.35.72.71,1.07,1.07a1.39,1.39,0,0,0,.94,1.31,8.83,8.83,0,0,1,2.11,1.73v.5c.38.36.81.75,1.21,1.16a3.41,3.41,0,0,1,.93,1.13,2.85,2.85,0,0,0,1.09,1.27c.86.67,1.11,1.8,2,2.45-.28.59.74.73.46,1.32L137,53.07l0,.44.88.92v.85l1.18,1.19c.24.55.44,1,.67,1.52.06.13.2.21.3.31V59c.25.48.44.83.81,1.56l.47.26c.06.51-.11.9.26,1.16s0,.84.3,1.18a2.51,2.51,0,0,1,.6.62c.29.6.58,1.2.91,1.79a5.08,5.08,0,0,1,.53,1.07c.11.4,0,.87.41,1.13-.14.56.65.78.48,1.32s.48.68.43,1.12.43.44.42.69a2,2,0,0,0,.44,1.35,1.77,1.77,0,0,1,.41,1.1c-.12.6.54.81.5,1.35,0,.22.33.44.39.69s0,.66.28,1,.26.77.62,1v1.27a.83.83,0,0,1,.41.92c-.1.44.34.58.45.91a8.25,8.25,0,0,0,.42.92v1.48c.15.25.3.47.43.71s.27.47.45.79v1.17l.44.5v2.56c.68.64,1.21,1.44,2.14,1.7s1.34,1,2,1.54c.43-.15.66.44.89.39.65-.15,1.06.29,1.55.48.94.36,1.73,1,2.71,1.31.31.09.48.58.79.71a8.52,8.52,0,0,1,1.21.75,3.76,3.76,0,0,0,1.45.7c.1,0,.18.18.27.28l.05.41c.58.17,1,.74,1.7.6.43.33,1,.36,1.42.78s.91.92,1.38,1.38a.76.76,0,0,1,.21,0c.82.13,1,1.25,1.84,1.3l1.75,1.58,1.25.58a1.21,1.21,0,0,1,.35.21c.52.5,1,1,1.54,1.52s1.34.73,1.82,1.38a13.87,13.87,0,0,0,1.19,1.23h.46a6.9,6.9,0,0,0,.77.76,3.12,3.12,0,0,0,.74.27V109l1.09,1.07h.44c.13.29.27.59.41.88h.59a1.46,1.46,0,0,0,1,1.35,3.6,3.6,0,0,1,1.63,1.6,3.31,3.31,0,0,0,1.78,1.6v.31l1.46,2c.37,0,.65,0,.94,0,.05,0,.1-.1.14-.13a3,3,0,0,1,.19-1c.35-.58.54-1.29,1.16-1.62.08-.4-.15-.79.19-1.07a3.17,3.17,0,0,1,.43,0c.05,0,.11.07.24.17v1.71l.52.64c-.64,1-.88,2.16-1.79,2.9v1l2.46,2.44,1.1,2.16-.84.83c-.91-.69-2.11-.87-2.39-2.17,0-.18-.28-.33-.45-.46a1.14,1.14,0,0,0-.38-.13c-.39.07-.53.45-.81.65v.88c-.56.55-1.13,1.11-1.68,1.68,0,0,0,.1.07.22s.45.09.14.43h-1l-.58-.61.44-.5v-1.28c.29-.69,1-1.21.84-2,.29-.29.43-.72,1-.73s.35-.36.32-.68l-2.6-2.57v-.48l-.74-.26c-.12-.86-1.07-1.23-1.19-2.06l-.47,0c-1.38-1.38-2.81-2.71-4.12-4.16-.77-.84-2-1.14-2.57-2.17l0-.44-.65-.21c-.39-.36-.79-1-1.35-1.18s-.89-.67-1.31-1a12,12,0,0,1-1.38-1.38c-.29-.34-.8-.19-1.07-.59a6.08,6.08,0,0,0-.9-.93c-.58.22-.75-.7-1.35-.46a11,11,0,0,0-.9-.91c-.37-.31-.56-.78-1.17-.87-.35-.06-.63-.54-.95-.83-.59.27-.74-.72-1.32-.46l-1.77-1.76c-.54.62-.72-1-1.46-.16a6.48,6.48,0,0,0,1.33,1.29c1.58.81,2.51,2.29,3.79,3.4a14.37,14.37,0,0,1,1,1l.78.29v.48l1.37,1.38,1.38,1.38a11.23,11.23,0,0,0,1.4,1.36c.57.39.57,1.11,1.05,1.53.32.28.75.59.82,1s.46.7.72,1,.72.56.89.93a5.13,5.13,0,0,0,.93,1.36c.17.17.19.49.27.72H178a2.55,2.55,0,0,0,.27.73.89.89,0,0,1,.29.88,6.67,6.67,0,0,1,1.06,1,10.62,10.62,0,0,1,.72,1.43,1.38,1.38,0,0,0,.37.49c.38.26.4.71.63,1s.65.59.88.94a5.65,5.65,0,0,1,.7,1.44,4.12,4.12,0,0,0,1.31,2.28v.94c.6.25.8.87,1.07,1.44h.44l.46-.42.66.66c-.13.58.1,1.23-.09,1.78l-.37.36v.92c.73.36.91,1.17,1.27,1.82.18.33,0,.85.42,1.12-.16.51.44.68.48,1.07v.69l.43.46v.87l-1.09,1.09a6.82,6.82,0,0,0-.76-.76,3.14,3.14,0,0,0-.74-.28v-1.33l-.45-.48v-.84l-.45-.49v-.84l-.63-.63h-.65V132l-.44-.48v-2.14a3,3,0,0,1-1-1.36c-.1-.43-.7-.81-.69-1.2,0-.58-.74-.76-.51-1.33a5,5,0,0,1-1.28-1.86,21.45,21.45,0,0,1-1-2.17l-.74-.26v-1.15c-.33-.34-.79-.79-1.29-1.28l0-.78-.73-.15a1.41,1.41,0,0,0-.52-1c.11-.53-.29-.82-.62-1s0-.92-.65-.95-.69-.41-.9-.74l0-.84L173,113l-.11-.51a17.28,17.28,0,0,1-2.07-2.32,13.34,13.34,0,0,0-1.82-2.06c-.67-.75-1.41-1.44-2.12-2.16l0-.58c-1,.2-1.15-.7-1.47-1.34h-.51l-2.56-2.61h-.48l-.3-.84A7.56,7.56,0,0,0,160,99.31c-.68-.32-1-1-1.65-1.36l-.68.21c.55.51,1,1,1.49,1.38s.43,1.21,1.07,1.51.53,1.12,1.06,1.52a2.53,2.53,0,0,1,1.05,1.47l.51,0a2.46,2.46,0,0,0,.28.73c.18.23.38.42.28.8a9.51,9.51,0,0,1,.92.88,3.72,3.72,0,0,1,.75,1.2,1.65,1.65,0,0,0,.65,1c.41.26.22.77.59,1.07,1.44,1.16,1.7,3.07,2.75,4.49a1.39,1.39,0,0,0,.43,1.33c-.1.71.76.81.85,1.28s0,.65.06.93c.26.43,1,.54.83,1.19.51.24.36.87.74,1.22s-.06.93.45,1.34c.32.26.35.85.55,1.27.11.25.32.45.41.7s-.1.57.1.77l.35.34v.91c.33.16.41.48.48.85s.44.35.39.7a1.21,1.21,0,0,0,.33,1c.18.24.06.69.2,1s.37.39.34.73,0,.69,0,.93l.42.42v2.15l.9.94v1.71l.4.4v2.6a1.35,1.35,0,0,1,.22.23c.33.57.45,1.35,1.36,1.35.19.28.61.4.61.95-.26.57-1,.87-1.26,1.42v3.91l.39.39c0,.82,0,1.69,0,2.55,0,.05-.07.11-.1.15l-1.28.56-1.23-.7v-1.18l-.48-.73.5-.77V146l-.87-1.52v-1.18l.43-.45v-1.28l-.45-.5v-3.3c-.33-.6-.59-1.07-.89-1.63v-1.56l-.43-.43V132.4l-.39-.39v-1.1a6.8,6.8,0,0,1-.83-1.79c-.09-.69-.68-1.22-.54-2-.7-.45-.16-1.22-.46-1.76l-.77-.77v-1.29l-.45-.48v-1l-.83-.59c-.07-1.34-.85-2.17-1.33-3.34v-.7c-.74-.35-.92-1.16-1.27-1.81a18.06,18.06,0,0,0-1.21-2.31,11.33,11.33,0,0,0-1-1.55c.12-.75-.93-.83-.89-1.59,0-.28-.32-.57-.49-.85-.44-.7-1.21-1.15-1.43-2s-1-1.34-1.33-1.75l-.8-1.72-2-2a1.91,1.91,0,0,0,0-.24c-.18-.79-1.25-1-1.3-1.84l-1.31-1.45v-.38l-.62-.62-.24.29c.18.72.68,1.29.89,2,.09.31.58.49.69.8.22.63.78,1.15.67,1.71.14.65.88.72.78,1.37.44.36.35,1.06.87,1.38-.24.57.68.75.46,1.32.67.3.23,1,.6,1.49a8.2,8.2,0,0,1,.68,1.24v1.51c.52.63.69,1.46,1.17,2.12a.61.61,0,0,1,.12.16.79.79,0,0,1,0,.22v.59l.46.53v1.69c.77.69.65,1.79,1.32,2.73v1.2l.38.37v1.3l.45.48v.84l.4.4v1.73l.46.46v5.2l.38.38v12.68l-.37.37v3.88l-.45.47v1.29l-.45.48v1.25l-.44.52v1.25l-.41.41v1.1l-.51.94.49.55a2,2,0,0,1-.23,1.18,5.75,5.75,0,0,1-1,1.33,3.18,3.18,0,0,0-1,2,4,4,0,0,1-.41.87v.67l-.45.49v.85l-.62.62a3.1,3.1,0,0,1-1.5-.11v-2.29l.35-.35V160c-.24,0-.51-.13-.62,0-.63.54-1.11,1.26-1.88,1.46l-.19.62-.63.13-.27.79h-.79l-1.66.88a.77.77,0,0,1-.26-.07l-.63-.53c1.11-1.64,1.11-1.65,1.82-2a5.27,5.27,0,0,1,2.42-1,1.91,1.91,0,0,1,.76-1.21c.28.19.46.58.9.41a1.89,1.89,0,0,0,.76-1.2c.67-.66,1.33-1.33,2-2a1.31,1.31,0,0,1,.06-.41,6.06,6.06,0,0,1,.48-.61v-1.69l.38-.37v-1.73l.45-.48v-1.26l.45-.51v-2.55l.41-.41v-3l.37-.38v-7l-.38-.38v-8.64s-.08-.1-.14-.18l-.29-.28v-3l-.45-.48V121.6l-.44-.51v-1.22l-.37-.45c0-.82-.08-1.53-.12-2.24-.61-.28-.13-1-.48-1.31s-.23-1-.74-1.22v-1.34c-.35-.15-.35-.52-.5-.83s-.46-.54-.37-.93-.37-.57-.43-.91.12-.72-.24-1-.13-.66-.2-1l-.87-.82v-1l-.5-.55c.51-.61-.26-1-.39-1.48a7.22,7.22,0,0,0-.84-1.6v-.68l-.65-1.25a2.11,2.11,0,0,0-.21,1.22l.45.49v5.61c.58.31.34.89.46,1.28l.34.44V122l-.38.51c0,.51.09,1-.12,1.35l-.32.32c0,1.72,0,3.45,0,5.18,0,.05-.08.11-.13.16l-.3.32v2l-.89,1.58v2l-.35.35-.11.93-.38.51v1.18c-.13.15-.41.31-.4.46,0,.58-.49.94-.52,1.54a3.1,3.1,0,0,1-.81,1.6.3.3,0,0,0,0,.21c.16.63-.56.94-.53,1.52-.68.3,0,1.14-.61,1.48-.51,1.17-1.08,2.3-1.69,3.41A16.34,16.34,0,0,1,145.7,152c-.37.43-.34,1.18-.84,1.59s-.57,1.29-1.22,1.66c-.11.69-.65,1.06-1.07,1.51a5.85,5.85,0,0,0-.92,1.79L139.19,161v.42a1.41,1.41,0,0,1-.32.24,4.3,4.3,0,0,1-.55.17v.49a2.37,2.37,0,0,0-1.51,1.51h-.43c-.5,1.33-1.76,2-2.58,3-.61.16-.66.12-1.22.79-.33.4-.87.39-1.2.76v2.15l-.7.7h-2.22l-.29.84-.56-.52a8,8,0,0,0-3.35,2.23h-1.14l-1.24,1.26H120.7l-.58-.61v-1.33l1.24-.63h.7s.1-.1.15-.15a5,5,0,0,0-.81-1.79l1.09-1.07h1.7l.47-.42.44.39h1.74l1.54-1.54,1.64-.77,1.08-1.08c.41-.41.79-.84,1.23-1.22s.67-.9,1.31-1,.64-.83,1-1.25c0,0,.13,0,.2,0a1,1,0,0,0,.88-.78c.1-.84.87-.79,1.32-1.17v-.48a5,5,0,0,1,.93-.85c.46-.25.22-.82.52-1l.67-.14c0-.41.08-.75.12-1.08a3.26,3.26,0,0,0,1.67-1.24c-.17-.78.8-.88.91-1.58a6.38,6.38,0,0,1,.92-1.77l-.18-.13,1.28-1.16c0-.71.71-1,.9-1.35s0-.81.19-1A19.81,19.81,0,0,0,146.4,146c.4-.83,1.12-1.56,1-2.62,0-.28.55-.48.4-.9s.42-.68.45-1.12.63-.78.42-1.34c.54-.79.5-1.82,1.1-2.58a3.93,3.93,0,0,0,.26-.44v-1.11l.37-.37V134.2l.44-.48V132l.45-.48V129l.4-.4v-1.73l.41-.41V107.25l-.42-.42v-3.47l-.46-.46v-2.18l-.38-.36v-3l-.45-.49v-2.4l-1.52-3c-.48-.49-1.1-1.1-1.71-1.71h-.45c-.52-.78-1.56-.92-2.11-1.68,0,0-.12,0-.19-.06h-1.11l-.48-.42H142c-.34-.74-1.22-.8-1.81-1.34h-1.23c-.43-.44-.84-.84-1.26-1.26-.4.08-.6-.29-.9-.42a6.5,6.5,0,0,1-.74-.31A2.92,2.92,0,0,0,135,84a3.54,3.54,0,0,0-1.82-1.22A8.18,8.18,0,0,1,129.74,81H129c-.37-.29-.57-.7-1.07-.86l-.55.32a4.87,4.87,0,0,1,.54.9c.11.31-.13.72.25,1H129l.67.66-1.17,1c-.16-.19-.51-.43-.55-.71a1.05,1.05,0,0,0-.58-.83,4.15,4.15,0,0,1-1.21-.77,2.89,2.89,0,0,0-1.24-.64c-.41-.09-.57-.39-.83-.62-.08-.07,0-.25-.08-.39.1-.36.75-.56.29-1.13l-.92-.09c-.57-.39-.89-1-1.42-1.29l-.53.17.37.49v1.54c-.52,0-1,0-1.57,0-.17-.72-.82-.26-1.19-.42l-.66-.61v-.9l1.08-.55c.45-.26,1,.17,1.47-.35-.23-.31-.56-.09-.81-.18s-.61-.29-.91-.42a5.63,5.63,0,0,0-2.43-1,15.44,15.44,0,0,0-2.31-1.22,2.21,2.21,0,0,0-1.71-.43l-.58-.85-1,0L110.4,72c-.38-.06-.85,0-1-.21s-.66-.19-.94-.42-.61-.29-.87-.48a7.11,7.11,0,0,1-.73-.72h-1.3l-.82-.81h-.85l-.81-.78c-.46-.2-.79-.06-1.15-.26A6.56,6.56,0,0,0,99,67.11l-.35-.35H97.8l-1-.94c-.53.34-.88-.1-1.28-.36-.64.27-1-.29-1.54-.47s-.83-.49-1.38-.4l-.92-.88H90.39c-.39-.74-1.4-.16-1.82-.85-.73.2-1.33-.25-2-.43-.2-.06-.52,0-.59-.11-.3-.46-1-.23-1.23-.76h-.85l-.48-.45H82.6A3.72,3.72,0,0,0,80,60.19l-.53-.42H77.35L77,59.42l-.94-.07L75.67,59H74.38l-.48-.45H72.64l-.51-.45h-3l-.41-.4H67l-.41-.41-1.37-.07-.37-.37c-1.35-.07-2.7,0-3.95-.05l-.41-.41H51.38l-.6.62-.11,1.12-.78-.1c0-1,0-1-.16-1.13l-.48-.09a3.6,3.6,0,0,1-1.62,1.15c-.61.24-1.13.84-1.91.57l-.61-.61V57l.85-.89c-.32-.36-.71-.13-1.05-.2l-.47.43h-18a1.2,1.2,0,0,0-.39.15v.93l.35.47L26,58.3c0,.86,0,1.72,0,2.59,0,0,.09.1.21.23h15.5c.11,0,.21-.14.31-.21l-.4-.44v-.87l.63-.64h1.3l.46.43c.35.08.74-.15,1,.17l.12.57c.38.34.89-.09,1.22.34s.76.21,1.16.15c.11-.25.2-.5.32-.74s.3-.6.42-.84c.24-.08.48-.09.61-.22a.72.72,0,0,1,.76-.27c.19.27.58.4.66.94l-.47.63c.13.25-.17.64.18,1h1l.36-.37.47.4h.83l.48.45h5.61l.49.45h2.14l.4.39h3.9l.45.46c.57,0,1.21,0,1.85,0s1.14,0,1.7.08c.36.66,1.32,0,1.63.77H73.9l.48.45h1.71l.49.45h.81l.53.44h2l1.59.84H83l.48.43h.74l1.56.89h1.61l.41.41a13.2,13.2,0,0,0,1.4,0c.52,0,.75.56,1.34.49a1.91,1.91,0,0,1,1.26.53c.39.32,1,.25,1.23.74h1.12a8.67,8.67,0,0,0,.87.41c.2.06.48,0,.62.07a4.35,4.35,0,0,0,2.23.91c.11,0,.2.2.38.38h1.64l1.48.83h.93l.63.89h1.82l.34.35,1,.12.8.79h.85l.48.45h1.27c1,1,2.47.78,3.46,1.68.2.18.67.07.92.09l.39.39h2.17l1.07,1.08v.89l-.63.58c-.45,0-1,0-1.39.19s-1,.21-1.22.72l-.44-.4-.44.38h-.88c-.13-.13-.23-.24-.34-.33s-.1,0-.15,0c-.26.26-.49.71-.77.73-.88.09-1,.81-1.36,1.36l-.46,0-2.1,2.13h-.09c-.87.24-.88.8-1.14,1.19a8,8,0,0,1-1.14,1.18l.46.56-1.51,3.06-1,.42-.34-.34H98.66l-.48-.45H93.45l-.5-.44H89.08l-.41-.41c-2.21,0-4.52-.07-6.81,0A18.29,18.29,0,0,1,79,88.33c-.11,0-.2-.2-.34-.33H66.61c-.06,0-.11-.07-.17-.11l-.31-.31H44.91l-.47-.43H43.16l-.5.45H40.08a3.89,3.89,0,0,0-1.67,1.24s-.13,0,0,0l-1,.07,0,.63,2.1,1c.37-.06.89.23,1.4-.24V88h.65c.21.45.59.9.55,1.3-.06.64.56,1,.51,1.56s-.25,1,.18,1.43h60a.85.85,0,0,1,.31.11l.53,1v1.27c-.23.72-.3,1-.39,1.22S102.7,96.31,102.76,96.67Zm-1.48-56.34-1-.93c-.76.32-1.24-.38-1.86-.62A7.13,7.13,0,0,0,96.35,38l-.74-.76H94.44L92,36c-.9.18-1.65-.51-2.55-.56-.11,0-.2-.19-.31-.29-.48-.09-1,.1-1.47-.16l-.27-.3H85.75l-1.57-.89H80.4L80,33.37H75.22l-.85-.85H72.64l-.46.43h-1.1l-1.3,1.31c-.2.06-.6-.19-.85.26v.82L67.7,36.58l-.16.58c-.5.13-1,.27-1.05,1H70l.41.4h3.86l.49.45h.85l.48.44h2.56l.5.45h1.28c.3.6,1,.21,1.31.51s.82.2,1.16.37a2.14,2.14,0,0,0,1.36.4l.48.43h.84l.48.45h1.59l.47.81c.6.05,1.16-.07,1.42.15s.83.18,1.16.36a2,2,0,0,0,1.36.4c.26.36.69.41,1.25.67l.46.6c.41,0,.8,0,1,.1.51.48,1.34.51,1.62,1.2l1,.06.4.4c.49.06,1-.15,1.46.15l.17.67c.29,0,.66,0,.88.38a1.1,1.1,0,0,0,.46.45A5.24,5.24,0,0,1,103,49.85c.64,0,1.07.72,1.74.44l1.1,1.1c1.17.66,2.33.93,3.14,1.83a1.33,1.33,0,0,0,.85.56c.55.07.67,1,1.38.85,0,0,.12.07.16.13.79,1,2.12,1.4,2.9,2.44,0,.07.27,0,.46,0,.54.55,1.09,1.12,1.65,1.68.88.09,1.18,1,1.84,1.36l.55,0,2.47,2.58c.77-.16.85,1,1.59.86l1.54,1.39.25.77.47,0c.71.54,1.12,1.37,1.94,1.7s1.23,1.17,2,1.68c.84,0,1,.76,1.31,1.36h.44c1.87,1.89,3.75,3.78,5.62,5.65h.56l5.17,5.18.17-.54c-.38-.65-1.08-.94-1.36-1.66a3.13,3.13,0,0,0-1.08-1.71,4.27,4.27,0,0,0-1.38-1.81c-.4-.42-.85-.8-1.22-1.24s-.38-.85-.75-1.21a3.5,3.5,0,0,1-.73-1.42c-.16-.56-.95-.67-.9-1.37,0-.15-.24-.33-.39-.48-.55-.57-1.12-1.13-1.68-1.69-.1-.88-.91-1.21-1.37-1.82-.07-.09,0-.28,0-.42a11.89,11.89,0,0,0-1.24-1.22c-.48-.36-.46-1-.89-1.38-1-.87-1.86-1.82-2.77-2.74-.25-.26-.67-.5-.7-.79-.07-.68-.65-.91-1-1.32s-.5-1.13-1-1.54a20,20,0,0,1-1.55-1.51,5.4,5.4,0,0,0-1.48-1.12c-.61-.28-1-1-1.55-1.48,0,0-.11-.09-.08-.06l-.64-.19-.12-.6c-.52-.51-1-1-1.44-1.44h-.45l-.42-.88h-.45l-2.15-2.15h-.48c-.74-1.13-2.18-1.49-3-2.6-.7.09-.86-.72-1.38-.86a5,5,0,0,1-1.43-.71c-.4-.25-.81-.5-1.2-.76a5.51,5.51,0,0,1-1-1.11c-.54,0-.93,0-1.09-.11-.5-.48-1.33-.51-1.62-1.21Zm20.12,32.5-1.18-1.29-.81,0-1.26-1.28h-.92l-.27-.78c-.72.06-.94-.77-1.53-.93-.76-.21-1-.94-1.67-1.32h-.88c-.18-.62-.95-.42-1.32-.91s-.87-.45-1.15-.8-1.08-.36-1.38-.89c-.72.12-.85-.69-1.47-.9h-.7c-.44-.31-.6-.92-1.23-.83a10.52,10.52,0,0,0-2-1c-.48-.23-1-.5-1.44-.69s-.68-1-1.38-.88A29.55,29.55,0,0,0,98,58.75a21.43,21.43,0,0,1-2.83-1.53c-.51.19-.68-.43-1.12-.45a3.12,3.12,0,0,1-2.16-1.08,1.27,1.27,0,0,0-.34-.2h-1.2l-.69-.87H88.24l-.48-.45H86.48c-.71-.93-1.87-1.12-2.7-1.72H82.62L82.15,52H80.43a4.21,4.21,0,0,0-3.09-.92L77,50.71H74.53l-1.62-.86c-.46-.05-1.1.07-1.59,0l-.44-.42H66.57L66.08,49H63.51l-.37-.37H57c-.46.31-.56.81-.8,1.23-1,.1-2.13,0-3.16.07l-.28.82h-1.5l-1.07-.64c.34-.64.56-1.13.85-1.58.11-.16.19-.21,0-.31a1.58,1.58,0,0,0-1.44.29l-.35-.35H30.59l-.47.43H26.44a.49.49,0,0,0-.21,0c-.06,0-.1.1-.15.14V53.2c1.58.12,17.59.18,19.28.07,0,0,.1-.09.16-.15l-.79-.85,1-1.11h1.33a5.51,5.51,0,0,0,1.34,1c.59.27,1.35.47,1.63,1.17h1.62l1-1.32c.58.12,1.12-.21,1.47.25s-1,.85-.17,1.5h7.77l.48.44H64l.48.45h3.32l1.6.89h2.89l.37.37h2.12l.51.45h.82l.48.45h1.28l.48.44h1.26l.52.45h1.08L83.64,59h1.11l.47.44h1.43l.64.83,1.44.09c.3.67,1,.17,1.5.59a2,2,0,0,0,1.23.61c.63,0,1,.58,1.55.49.31.54.86.39,1.33.46.3.55.88.32,1.32.45l.79.79h1.24c.71.59,1.6.79,2.32,1.3.19.14.55,0,.8,0l.87.87c.4,0,.95-.15,1.26.4.69-.05.92.59,1.37.91h.83l.5.45h1l.54.84h1l.66.87h1l.48.44h.87a3.71,3.71,0,0,0,2.66,1.39l.77.77h1c.2.26.47.59.65.83.48.09.81,0,1.16.22a13.1,13.1,0,0,0,2.14,1.1c.3.12.67,0,1,.28s.73.28,1,.62A6.11,6.11,0,0,0,124,76.26c1.62.66,1.65.58,2.5,1.35h1.09c.51.26.88.42,1.22.64s.5.73,1,.65c1.51,1,3.27,1.55,4.79,2.55a.4.4,0,0,0,.64-.22c-.42-.61-1.21-.65-1.69-1.21s-1.39-.5-1.93-1.08c-.07-.08-.27,0-.54-.06-.35-.4-.77-.89-1.12-1.31h-1l-1.25-1.25c-.57.2-.76-.67-1.33-.46-.29-.54-1-.4-1.36-.91a4.55,4.55,0,0,0-2.24-1.38l-.25-.74ZM36.71,76.7c.37-.66-.12-.8-.32-1.16.21-.4-.18-.94.27-1.43a17.43,17.43,0,0,1,1.78.07c.26.26.43.56.68.66.87.34,1.67.84,2.51,1.24a3.25,3.25,0,0,1,.28.17h1.25l.5-.38.3.85H55.69l.48.44h1.28l.48.45h8l.68,1,.91-.52h1.29l.38.38h5.17s.11.08.16.12.21.2.31.31h3l.48.44h.83l.51.45h3l.41.41c1.28,0,2.64.08,4,0,1-.09,1.69.56,2.59.57.11,0,.21.19.31.29.92.1,1.84,0,2.67.07l.39.39h3l.48.45H98.2l.5.44h2.54l.48.41c.52.1,1.06-.23,1.48.23s1.11,0,1.57.36l1,.51c-.26-1,.63-1.25.9-1.88,0-.29,0-.56-.06-.91h-1.87l-.46-.46h-1.55l-1.66-.87a7.87,7.87,0,0,1-1.63-.07l-.37-.37H97l-1.56-.89H93l-.86-.86H90.46l-.56-.41c-.51,0-.94.09-1.34-.12-.11-.1-.21-.21-.31-.31-.63,0-1.27.05-1.76,0l-.44-.42H84.78l-.5-.45H81.74l-.49-.41c-.4,0-.76,0-1.12,0s-.47-.51-.9-.44a5.18,5.18,0,0,1-1,0l-.47-.46H76.06l-.39-.4H73.09s-.11-.08-.25-.2l-.2-.23H69.17l-.49-.45H66.55l-.4-.39h-2.6l-.46-.46H59.62l-.45-.46H50.49l-.4-.4c-1.42,0-2.86,0-4.3,0,0,0-.11.08-.22.16l-.06,1.4c-.64.3-.27.92-.5,1.35l-.56.53H43.6l-.66-.61V73.05l.46-.51L43.23,72H41.94c-.5.18-.66.72-1.19.89a4.35,4.35,0,0,0-1.18.84l-.46,0-1.42-1.07c.64-.41.51-.9.39-1.39,0,0-.11-.12-.16-.12H32.76l-.46.41H27.55l-.49-.39-.32.8-.66-.39v1.9l.44.74-.44.64v1.33l1.13.57Zm10.6-10c-.84.19-.26.89-.56,1.28l-.8.79.11.64H58.27l.62.48H64.3l1.53.81h3.32l.48.45h3l.5.45h1.7l.4.4h2.6l.46.46h1.3l.38.38c.77.11,1.56-.05,2.26.09l.38.37h2.14l.94.9h2.54c.21.16.39.4.54.39.86-.08,1.52.77,2.43.48.11,0,.32.23.61.44h1.68l.39.39h1.28l.48.45h.84l.49.45h3c1,.18,1.8,1,2.9.84l.69.44c.24.13.48.24.88.43.32,0,.82,0,1.32,0a1.14,1.14,0,0,1,.38.13l.31.3h1.29c1.25.84,1.25.84,2.2.8l.52-.41h1.24c.21-.33.65-.45.59-.89s-.9-.31-1.1-.81h-1.28l-.45-.41c-1.2.09-2-1-3.11-1-.16,0-.32-.24-.43-.33h-1a6.12,6.12,0,0,0-1.72-.83,6.31,6.31,0,0,1-2.07-.93H100l-.56-.45H97.73l-.81-.82h-.85l-.48-.44h-.84l-.49-.45h-.82l-.52-.44H91.77a5.21,5.21,0,0,0-2.34-1l-.32-.32H87L86,69.34H84.45l-1.62-.89H81.4l-1.55-.83a15.54,15.54,0,0,1-1.65,0l-.36-.4H76.11l-.49-.45H73c-.29-.7-1.09-.17-1.48-.63s-1.18.06-1.5-.69H65.66l-.4-.4c-.84,0-1.71,0-2.57,0,0,0-.11-.09-.22-.18l-.24-.25H57.9l-.45-.41-.45.38-.41-.41h-1.3l-.38-.38H48.59l-1.28.53ZM82.6,86.27h3.89l.48.44H94.3l.5.44h4.73l.37.37h2.69c.4-.51,1.23-.43,1.47-1.14-.06-.31.16-.7-.21-1H101.7l-.48-.44H100l-.49-.45H96.89l-.4-.4H92.12c-.37-.79-1.35-.11-1.7-.91H86.91l-.4-.39H82.63l-.47-.45H80.88l-.48-.44H77.51L75.92,81h-5l-.57-.45h-6L64,80.23l-1-.08-.39-.39H52.71c-.05,0-.1-.09-.25-.21l-.19-.22h-8a1.23,1.23,0,0,0-.4.16v1L42.41,81.6l.5.57-.37.37v1.29l.59.71H55.72l.49.44H67l.45.39h1.32l.36-.36h.95l.43.42h5.2l.4.4h6c.06,0,.11.08.19.14ZM65.68,25.57H28l-.45-.42h-.88l-.63.64v3.88c0,.06.09.11.21.24H66c.11,0,.22-.14.32-.21l-.4-.44V27.94l.63-.63.47.44h1.28l1.18,1.18c.55.25,1.05.45,1.53.68a1.46,1.46,0,0,1,.31.3h1.29l.48-.45h1.71l.59-.59.13-.64,1.14-.12.79-1.3a7.3,7.3,0,0,0,.68-.69c.23-.28.66-.44.71-.94H71.72l-.34.34H66.94l-.36-.36-.43,0Zm.59,7.09s-.1-.15-.15-.15H26.26c-.05,0-.11.09-.19.17v4.86c.09.08.14.17.19.17H54.41l.44.41h2.63c.06,0,.11-.09.19-.18l-.06-.53-.8-.28v-1L57.44,35c.68.43,1.33.49,1.76,1,.63,0,1.06.72,1.8.41.35.8,1.19.9,1.89,1.37H64c.16.16.26.27.37.36s.09-.07.17-.13l.12-1.05,1.67-1.6v-.82l-.45-.63C66,33.36,66.6,33.17,66.27,32.66ZM41.63,64.82c.28-.37.7-.53.79-1-.06,0-.12-.13-.17-.13H26.43a.42.42,0,0,0-.2,0c-.07,0-.11.1-.2.19v4.27c0,.06.07.12.11.17a1.47,1.47,0,0,0,.38.11h11.7c.12,0,.24-.12.36-.18-.47-.34-.36-1-.74-1.29l.95-1.12.52.46h.4c.91.2,1,.94,1.63.84.3.3.76.34,1,.58s1,.24,1.25.78c.44-.23,1,.16,1.42-.23l-.37-.55c-.08-.48.4-.59.38-.81,0-.43.32-.6.45-.91.06-.15-.07-.38-.11-.56l-.5,0-.47.43H43.3l-.49.83-1.18-1ZM26.06,92.33c3.65,0,7.12,0,10.59,0,.05,0,.1-.1.26-.27-.34-.49-.35-1.19-.9-1.66l1.07-1.16-.85-.42c-.74-1,.57-1.34.07-2.07H27.2l-1.17.6v2.11l.51.71-.48.69ZM41.2,80l-.34-.22a4.42,4.42,0,0,0-2,1.29c-.49.08-1-.1-1.49.15l0,.55c.36.25.85.19,1.07.61.54-.13.69.39,1,.6s.93.49,1.56.82l.64-1.12V81.3l-.43-.47ZM21.9,97.09c.65-.49.75-1.21,1.11-1.81-.14-.22-.3-.44-.45-.66-.09-.47.23-1-.22-1.42-.53-.1-.73.35-1,.6v2.71ZM17,58.13c.51-.12.89.1,1.26-.26,0-.92,0-1.92,0-2.91,0-.12-.13-.23-.2-.34-.34.07-.71-.15-1.05.18Zm8,38.24c.21-1,.2-1-.09-1.37A1.26,1.26,0,0,0,25,96.37Z"/><path d="M25.59,254.56l-.48-.08-3,3H21l-.58-.74,0-.71.6-.66,1.46-.08.13-.51-2-2c-.34.59,0,1.26-.23,2,0,.05-.33.22-.31.36a.94.94,0,0,1-.65,1c-.63.14-.92.61-1.34,1h-.82l-1.38-1.33-.24-.53c-.31-.47-.38-.52-.38-.58v-1.95c.34-.51.38-1.27,1-1.52a4.08,4.08,0,0,0,1.42-1c.24,0,.42,0,.5.12.72.69,1.43,1.41,2.1,2.08.37,0,.55-.05.67-.43a3.62,3.62,0,0,1,1-1.74h1l.95.57c0,.29,0,.39,0,.43-.22.27-.49.52-.7.8a2.37,2.37,0,0,0-.2.54c.87.79,1.39-.35,2.05-.18l.62-1.43-.44-.52v-1.29c.1-.25.62-.38.29-1l-.3-.33.39-.43c-.14-.19-.36-.34-.38-.52a2.12,2.12,0,0,0-.35-1.18.89.89,0,0,1,.31-1.31v-3.43l.45-.5V239.1c-.51-.31-.42-1-.84-1.39a.81.81,0,0,1,0-.8c.78-.52-.09-1.65,1-1.91l-.59-.69v-3.84l-.45-.5v-1.28l.94-1-.47-.9v-2l.42-.65c-.24-.46-.47-1-.74-1.41a1.1,1.1,0,0,1,0-1.17l.75-1.38-.39-.71.33-.34-.38-.47v-2.58l.41-.46v-3.47l-.29-.26a1.48,1.48,0,0,1-.13-.41c0-1.22,0-2.45,0-3.65l.38-.38v-1.35l-.34-.45v-5.13a1.7,1.7,0,0,0,.39-1.33c.17-.18.36-.56.56-.56.84,0,1.5-.59,2.38-.58,7.23,0,14.45,0,21.68,0h18.9l.49.42h.85l.45-.41h5.18l.32.29c.44.32,1,0,1.39.18l.36-.36a1.27,1.27,0,0,1,.38-.11h3.2l.39.39h2.64l.44-.34h30.39l.37.37h1.31l.45-.41H119l.55.5.8-.45.54.45.83-.47h33.33c.19,0,.29.59.92.27l.34-.3h1.28l.45.42h.85l.46-.41h5.21c.35.55.85.44,1.34.36.1-.11.2-.21.34-.34H191.9c.19,0,.29.59.92.27l.34-.3h2.14l.46.42h1.3l.31-.31a1.36,1.36,0,0,1,.38-.11h4.94l.39.39h1.39l.35-.35h2.59l.69.48.71-.51h1.26l1.06,1.11V384.3l-.59.62H26.12c-.31-.5-.66-1-.95-1.55-.09-.17,0-.43,0-.69l.49-.73-.42-.69.35-.42v-5.62l-.42-.45v-3l.31-.31a1.29,1.29,0,0,0,.12-.38c0-1.66,0-3.31,0-4.95l-.38-.38v-6.17l.35-.34v-17l-.37-.37v-7.38l.4-.47c0-.81,0-1.68,0-2.54,0-.06-.08-.11-.16-.21h-1c-.36.47,0,1-.19,1.38l-2,2H21l-.64-.62c-.06-.62.36-.88.89-1.12a3.84,3.84,0,0,0,.47.3,4.48,4.48,0,0,0,.54.2c.51-.45.18-1,.27-1.45a1.56,1.56,0,0,0-1.13-.83c-.33-.05-.48-.62-1-.73V332l-2.72,2.73c-.57,0-.64-1.08-1.44-.88-.57-.35-.68-1-1.08-1.67,0,.09,0,0,0-.05v-1.95c.49-.41.41-1.4,1.07-1.46s.88-.93,1.52-.95c.12,0,.21,0,.25,0l1.7,1.69h.87c.79-.56.86-1.76,1.89-2.17.61.09.85.69,1.36,1.06l-.92,1c.19.68.79.91,1.11,1.36.36-.1.2-.44.31-.67.29-.31.68-.08,1-.16a2.19,2.19,0,0,0,.13-1.57l-.32-.32v-1.84l.37-.37v-1.3l-.53-.64.53-.7V302.82l-.39-.47.37-.37v-3.06l-.38-.45v-1.72c.11-.25.58-.4.41-.86l-.41-.44c-.14-.45.2-.66.4-.87v-1.39L25,293a5,5,0,0,0-.68,1.25c-.11.48-.41.88-.75.91-.62.06-.78.59-1.15.84l-1.89-.95L20,294v-2.87c.13-.26.57-.42.39-.91a3.44,3.44,0,0,0,.74-.28,1.47,1.47,0,0,0,.56-.63c.1-.25,0-.58.42-.58,1.08.81,1.08.81,1.48,1.68l.62,0,.14-.64a2.31,2.31,0,0,0,1.26-.93c-.07-.4.24-.91-.39-1.1v-3l-.45-.56v-1.28l.4-.45v-5.62l-.42-.45v-.85l.44-.48v-4.3l.41-.46c.09-.38-.16-.54-.33-.77a5.36,5.36,0,0,1-.32-.73c-.28-.58-.28-.69.05-1.33l.61-1.21v-.71l-.41-.4a14.74,14.74,0,0,1,0-1.76l.41-.47c.08-.68-.55-.82-.84-1.25v-1.3l.4-.45v-2.57l.44-.47Zm20.38,9h-.86l-1.2,1.31-.79,0-.6-.63v-1.29l.35-.42-.54-.64c-.52-.19-.67.27-1,.41h-14c-.12,0-.24.11-.39.18v.88c.12.26.58.41.41.87l-.42.46c0,.58,0,1.15,0,1.73,0,.05.09.1.2.21h11.6c.1,0,.21-.14.6-.43l-1.22-.6c.63-.49.55-1.32,1.29-1.57.27.1.66-.15.94.21s.83.17,1,.61.86.39,1.21.75c.17.18.53.17.72.33a4.92,4.92,0,0,1,.58.71c1.46,0,1.46,0,1.65-.21v-1.71l.45-.47a1,1,0,0,0-.12-.6c.33-.09.67-.06.38-.44A1.2,1.2,0,0,0,46,263.58ZM41.3,281.79c.33-.08.41-.45.69-.61a3.71,3.71,0,0,0,.73-.7c.37.35.14.74.22,1.1l1.11,1.07H61.76c.05,0,.11.08.16.12l.31.3h6.49l.48.45h4.29L74,284h6.46l.35.35,1,.11.4.4h5.64l.41.41H93.4c.06,0,.11.08.17.12l.3.3h1.29l.48.45h3.45l.42.42h.94c.43,0,.86,0,1.3,0s.72.14,1-.23l-.1-.63h-1.23l-2.51-1.31h-2l-.48-.44H94.73l-.4-.4h-2l-1.74-.94h-2l-.37-.37H86.1l-.47-.45h-.85l-.48-.44H83l-.4-.4H80.89l-.46-.46h-2.6l-.46-.46H75.2l-.46-.46H73l-.37-.38H70.9l-.48-.45H63.08c-.12-.11-.22-.3-.32-.3-.9,0-1.64-.63-2.6-.58-1.94.1-3.9,0-5.85.06-1,0-1.7-.54-2.59-.58-.11,0-.21-.19-.33-.32H44.92c-.06,0-.11.08-.16.12l-.48.48-.12,1.07-1.51.87-.76-1.67c-.94.7-2.06,1-3,1.63a1.33,1.33,0,0,1-1,0,5.05,5.05,0,0,1-1-.59c-.09-.56.41-.72.63-1l.65-.15,0-.6c-.1-.08-.15-.15-.21-.15H27.54l-.65.65v3.9a3.09,3.09,0,0,0,0,.43c0,.06.09.11.21.23h5.25c.31.58.78.4,1.19.43.31-.14.46-.6.88-.44l.7.54.7-.53c.33-.07.72.15,1.08-.28l-.54-1.18.7-.69h.87l.45.41h.9C39.7,281.25,40.56,281.42,41.3,281.79Zm35.12-55.51H77l.3-1L79,224l-.27-.69H77.41l-.45.42H28.48l-.9-.61-.68,1.07v1.49l.39.46-.36.43v1.33l.62.59h1.72l.46-.38H65.6l.8.47.76-.62-.75-1.48.58-.54h1.22c1.34.8,2.68,1.28,3.88,2a.9.9,0,0,0,1.16-.09c.24-.24.51-.19.78-.24a5.64,5.64,0,0,0,.86-.33,3.51,3.51,0,0,1,1.2,1.65h4.79l.42.43H83l.39.39c.47.22,1.11-.25,1.57.27s1.19-.08,1.47.62h1.3l.48.45h1.52l.6.89c.63-.12,1,.21,1.46.38s.86,0,1.13.42c.49,0,.75.31,1.05.61,0,.06,1.54.71,1.64.74a3.77,3.77,0,0,1,.57.18c.85.4,1.67.85,2.52,1.25a3.29,3.29,0,0,1,1.59,1.09c.42.18.82-.09,1.1.26l0,.51a8.28,8.28,0,0,1,1.58.72,12.64,12.64,0,0,1,1.39,1.35l1.43,1.43a14.91,14.91,0,0,1,1.58.74.87.87,0,0,1,.53.86c0,.09.15.22.24.32a33.27,33.27,0,0,0,2.47,2.43c.9.74,1.26,1.86,2.12,2.61.71.62,1.34,1.32,2,2a4.81,4.81,0,0,0,1.39,2.25v.7l1.28,1c0,.44,0,.71,0,.84a13,13,0,0,1,.84,1.13c.23.4.37.86.6,1.26s.58.55.74,1c.25.68.67,1.3,1,2a1.92,1.92,0,0,0,.32.43v1.17c.5.33.37,1.05.87,1.38-.1.7.7.83.83,1.25.1,1.26.83,2.11,1.34,3.21v1.1c.76.87.85,2,1.29,3,.08.19,0,.44.1.61.21.42.47.82.76,1.31v1.18l.45.49v1.44l.89.66v.94l.86.86c-.12.42.12.92-.17,1.44h-1.42l-1.23-1.23-.43,0-.72-1.31v-2.82c-.57-.71-.7-1.57-1.25-2.18.1-.9-.49-1.54-.91-2.31v-1.17l-.88-.88v-1.3l-.38-.38c-.06-.49.15-1-.15-1.45l-.73-.25V264c-.53-1.14-1.3-1.94-1.72-2.94v-.69c-1-.65-1.17-1.79-1.71-2.73-.35-.63-.64-1.32-.94-2a3.38,3.38,0,0,0-1.16-1.69c0-.83-.9-1.15-1.12-1.92-.19-.61-1.11-.87-1.18-1.68-.51-.51-1-1-1.53-1.54a2.44,2.44,0,0,1-.27-.69L109,246.66h-.45l-.39-.8-.61-.18-.13-.6L106.33,244a11.23,11.23,0,0,1-1.36-1.4c-.39-.57-1.15-.54-1.51-1.06s-.73-.38-1-.62-.61-.62-.94-.9a1.26,1.26,0,0,0-.54-.24c-.54-.17-.67-1-1.38-.88-.39-.51-1.21-.4-1.51-1-1-.52-2-1-3.05-1.54-.17-.09-.43,0-.71,0-.34-.72-1.19-.83-1.79-1.28-.25-.17-.65,0-1-.19a4.32,4.32,0,0,0-1.88-.74c-.48,0-.93-.51-1.46-.82H86.94l-.48-.45H84.88l-1.61-.89H80.83l-.43-.43H75.55c-.22-.25-.5-.28-.72-.41s-.47-.56-.91-.4l-.47.43H71.83l-.43.83-1.06.05c-.33.55-.68,1-.94,1.6a2.4,2.4,0,0,0,0,.9c-.45.24-.85.49-1.28.69a2.46,2.46,0,0,0-1.29.92l.61.62H73l.49.45h.83l.5.45h1.69L77,238a7.3,7.3,0,0,0,1.61,0c.64-.13.93.71,1.56.46a4.16,4.16,0,0,0,1.68.52l.35.35H83.6l.7.88c1.2-.19,1.89,1,3,.86,0,0,.11.06.17.09l.77.77h.42l.49.46c.28,0,.64-.11.83,0,1,.68,2.33,1,3,2.12h1.36a5.26,5.26,0,0,1,2,1.53.94.94,0,0,0,.35.2c.36.18.72.34,1.3.61.69,1,2.36,1.38,2.92,2.44l.36.86h.91l6.13,6.14c.35.35.84.68,1,1.11.19.62.68.89,1,1.31s.71.72,1.07,1.08c0,.05.11.11.11.17,0,.69.62.91,1,1.33s.5,1.13,1,1.53a9.45,9.45,0,0,1,1.24,1.21,2,2,0,0,1,.21.35V265c.2.51,1,.66.87,1.37l1.58,1.58a21.78,21.78,0,0,1,1,2.12c.15.46.54.63.79,1s.48.42.5.65c0,.52.48.68.72,1s.21.79.61,1.06.45,1.19,1.08,1.5.57,1.1,1,1.49l-1.09,1.1h-1.25l-.45-.42h-1l-.66-.84h-1.42c-.3.62-.91.28-1.33.48l-.78.78h-.85l-.48.45h-1.23l-.78.57a9.13,9.13,0,0,0-1-.93c-.38-.27-.23-.77-.58-1.08s-1-.24-1.23-.74c-.1-.17-.32-.42-.47-.4-.54.05-.76-.65-1.31-.52A10.87,10.87,0,0,1,106,274c-.36-.5-1-.41-1.39-.89s-.81-.49-1.17-.79-.71-.72-1.09-1.06a1.22,1.22,0,0,0-.52-.29c-.48-.1-.61-.68-1-.76a1.74,1.74,0,0,1-1.18-.81c-.34-.54-.95-.55-1.38-.89s-.79-.24-1-.62a.8.8,0,0,0-.7-.41c-.16,0-.32-.24-.49-.36s-.43-.45-.67-.46c-.44,0-.61-.66-1.11-.46l-.7-.9H92.55L91.28,264h-.84l-.9-.86c-.38-.09-.76.13-1.06-.2s-.87-.34-1.22-.75a5.11,5.11,0,0,0-1.28-.79H84.8l-.94-.9H82.8l-.55-.85H80.92l-.49-.41h-.82l-.94-.89H77l-.5-.45H75.19c-.29-.6-1-.19-1.29-.51-.41-.5-1-.11-1.34-.45s-1-.21-1.22-.75H69.61l-.48-.45h-3l-.5-.44H64.37l-.41-.41h-2.6l-.39-.39H51.34l-.37.37h-.9c-.35.74-1.23.81-1.79,1.32-.53-.08-.69.42-1,.66-.11.08-.24.14-.37.22l-.76,0L45.64,256l.72-1.4a2.51,2.51,0,0,0-.47-.11H27.25a.42.42,0,0,0-.19.06,1.14,1.14,0,0,0-.16.15v3.47l.41.45c-.29.31-.72.58-.21,1.06h4.33l.45-.41.46.42H42.55c.12,0,.23-.12.36-.19-.47-.33-.35-1-.77-1.31l.57-1.09h1.95l.86,1.08,1.8.6h1.21l.06-1,1.06-1.12c.36.08.75-.14,1,.17v1.41c-.32.31-.62.55-.18,1h2.55l.63.49H60.4l1.53.82h4.18l.48.44h1.7l.48.43a5.25,5.25,0,0,1,.89,0c.6.09,1.09.57,1.74.5,0,0,.1.1.16.15l.23.23h1.73l.4.39h.84l.48.45h1.43l.7.89h2.24c.3.62.91.29,1.33.48l.78.79h.85l.36.33c.58.26,1.11-.08,1.56.27l.18.67,1.63.08.59.87h1.39l.37.37h.77l.85.89h1c.16.35.53.35.84.49A3,3,0,0,1,93,270a4,4,0,0,1,1,.16c.43.2.79.65,1.21.71.62.1,1.06.78,1.88.45l.67.91c.37,0,.62-.08.8,0a6.17,6.17,0,0,1,1.38.83c.52.48,1.31.56,1.68,1.21.65.15,1.17.72,1.89.6.27.27.49.65.8.75a1.55,1.55,0,0,1,.87.49H106l1.74,1.76h1.86c.2.5.76.64.86,1.09-.43.63-.52,1.51-1.5,1.6-.22,0-.41.38-.61.58L106,283.5l-.9-.85c-.5.19-.66-.52-1.12-.43s-.76-.23-1.13-.42-.7.11-1-.23-.83-.18-1-.61c-.51.17-.68-.46-1-.48h-.73l-.47-.44H97.48l-2.56-1.34H93.45a5.25,5.25,0,0,1-1.28-.83c-.39-.46-1-.39-1.41-.88H89.54l-.53-.44H87.93l-1.6-.84c-.4-.15-.86.17-1.24-.11l-.32-.32H83.15l-1.57-.89c-.89.38-1.6-.55-2.52-.5-.1,0-.2-.19-.38-.37H76.51l-.4-.39H74.84c-.33-.51-1-.39-1.39-.9H71.34l-.52-.44H68.7l-.41-.41H66.56l-.46-.46H62.2l-.39-.39c-1.2,0-2.41,0-3.53,0l-.39-.41H50.53l-.47-.44h-3.7a.44.44,0,0,0-.2,0,.68.68,0,0,0-.17.17V272c-.48.4-.75,1.05-1.54,1.17l-1-1.18.33-.39v-.8c.44-.5.44-.5.27-.67H42.67c-.24.25-.41.56-.66.64-.51.17-.88.66-1.47.63a1,1,0,0,1-1,.44l-1.66-1.29,1.25-.67-.28-.64c-.51-.18-.66.28-1,.41H27.27a.45.45,0,0,0-.2,0,1.36,1.36,0,0,0-.18.17c0,1.42,0,2.87,0,4.31,0,.05.08.11.19.24h8.25l.39.39h1.84c.52-.58-.17-.76-.27-1.12.08-.47-.23-1,.21-1.43h1.58c.48.24.85.4,1.2.61s.52.62,1,.72.65.51,1.1.88h1.24l.38.39H56.15l.48.44h2.56l.51.45h6l.41.41h5l1.61.85h2.87c.33.52,1.06.38,1.38.88h3.25a.74.74,0,0,1,.18,0l.52.44c1-.36,1.68.53,2.59.5.1,0,.21.19.31.29.91.14,1.84-.07,2.71.1l.36.37H89l1.55.89h1.59l.49.42c.4,0,.76,0,1.12,0s.48.51.91.44a6.23,6.23,0,0,1,1,0l.41.41h2.09l.73.46.79.44h1.17l.5.44H103l.53.45h1.17c.26.17.43.3.61.4s.36.13.49.18c0,.65,0,1.23,0,1.8,0,.05-.1.1-.14.14l-.59.13a5.76,5.76,0,0,1-1,2.46v1.08c-.13.31-.59.46-.43.91l.43.46v2.17L103,294.35c-.48-.5-1.1-.89-1.21-1.69H93.83l-.34.34c-.49.08-1,.18-1.33-.35a2.93,2.93,0,0,0-1.44.09l-.31.31H72.21l-.46-.41H60.48l-.37.37H55.24l-.34-.35H43.1l-.67.71a7.88,7.88,0,0,0,.74,1.41c.37.46-.08,1.2.63,1.5l-.88.93v1.28c-.53.34-.45.84-.37,1.33l1.25,1.26v2.56c0,.05-.08.11-.12.16l-.88.37-1.21-.89v-1.81l-.36-.37.39-.47v-.82l.45-.48v-.74l-.9-1.57v-1.18l-.33-.33.79-1.55H40.39c-.17.84-1.13.7-1.57,1.26a8.42,8.42,0,0,1-.87,0c-.34,0-.71.15-1-.13a4.73,4.73,0,0,0-.17-.6,1.81,1.81,0,0,0-.34-.35l1.3-1.3c-.09-.09-.14-.19-.19-.19l-10,0a5.58,5.58,0,0,0-.64.08v1.36l.46.81-.49.57V329l1.34,1-.65.69-.71.15v2.19q0,17,0,34a1.62,1.62,0,0,0,.09.38,9.39,9.39,0,0,1,1.29,1.44c-.35.6-1.22.5-1.35,1.06v13.49c.09.09.14.18.2.18H40.55l.62-.62c.08-.45.08-.45.48-.64l1.24,1.26h36c.29-.37.68-.88,1.08-1.38l.64.26V383l.62.62c8.22.16,33.74.1,36.16-.09,0-.34.08-.68.13-1.06.31-.11.38-.6,1.18-.53.07,0,.19.42.48.61.1.33-.13.71.22,1.1h36.31c.11,0,.22-.14.34-.22v-.86l.64-.64,1.7,1.69h35.65c.24-.61.37-1.27,1.2-1.27a2.56,2.56,0,0,0,.94,1.31H209a.49.49,0,0,0,.21,0c.06,0,.1-.1.19-.19V370.05a3.09,3.09,0,0,0,0-.43c0-.06-.07-.11-.24-.35l-.75-.65,1-.69V330.66l-.47-.84c.19-.23.33-.38.51-.59v-2.1q0-17,0-34a1.78,1.78,0,0,0-.14-.47l-.72-.64,0-.52.79-.28V254l-.71-.44c-.28-1.07.6-.58.77-1.06q0-18.53,0-37.2c0-.05-.08-.1-.12-.16l-.74-.25v-.62l.87-.68c0-4.54,0-8.95,0-13.35a.46.46,0,0,0-.05-.2c0-.06-.1-.1-.15-.16h-13c-.4.26-.56.85-1.3.87l-.87-.87H158.33a3.5,3.5,0,0,0-.56.13l-1,1.18-.62-.62-.14-.65h-36.6c-.25.59-.35,1.29-1.15,1.23s-.51-1-1-1.26H81.1l-.67,1-1.87-1H42.73c-.4.23-.56.82-1.24.87l-.94-.84H26.89v13.23c.28.2.54.52.85.57s.54.44.94.67l-1.79,1.27c0,1.59,0,3.11,0,4.63a.46.46,0,0,0,0,.2,1.08,1.08,0,0,0,.19.2H78c.36,0,.73,0,1.08,0,.09,0,.16-.17.24-.25-.27-.41-.91-.55-.79-1.47l1-.81s.1,0,.15,0c.46.32.46.33,1.19.34.5.78,1.56.87,2.1,1.65a1.08,1.08,0,0,0,.26.12h.73l.35.35h4.15l1.32-.55c-.12-.64.29-.93.89-1.15a16.84,16.84,0,0,0,1.72-.89h1.94l.47-.36c.31.32.56.62,1,.27l.18-.69c.61,0,1-.44,1.61-.67s.74-.33,1.33,0l.87.44v.44c-.64.79-1.68.91-2.44,1.49-.18.14-.55,0-.78,0l-.47-.4h-.85l-.48.37c-.29-.3-.53-.61-1-.26,0,.31-.07.65-.12,1.05l-.62.16-.86.81c-.36.08-.75-.15-1.06.23l.08.63h3.15l.46.46h2l1.59.85h1.14l.94.89h1.07c1.57.78,3,1.45,4.33,2.16a2.55,2.55,0,0,0,1.53.46,4.45,4.45,0,0,0,.62.61,3.88,3.88,0,0,0,1.25.63c.63.1.74.83,1.37.91s.83.92,1.56,1c.22,0,.41.38.62.58s.38.53.62.59a1.58,1.58,0,0,1,.74.32,2.27,2.27,0,0,0,.71.27c.06.25.1.45.14.63l.84.22,2.45,2.46.53.19v.47a12.89,12.89,0,0,1,1.57,2c.45.79,1.44,1.28,1.85,2.07s1.26,1.32,1.72,2.1.75,1.57,1.14,2.34c.3.6.6,1.2.92,1.79.17.3.56.4.62.83a1.89,1.89,0,0,0,.43.9c.51.59.41,1.4.82,2.06a5.05,5.05,0,0,1,.9,2c.5.33.47.83.45,1.32l.44.49v1.25a18.49,18.49,0,0,1,1.28,3.87l.43.47v.84l.44.48v3.87l.45.5v3.86l.41.4v3.85l.44.57c0,4.18,0,8.3,0,12.42,0,.05-.06.11-.1.19l-.58.55c-.52-.1-1,.21-1.48-.22v-.76l-.84-1.48V282l.37-.37V271.56l-.42-.42v-6.07l-.46-.46v-1.73l-.38-.39V261.2l-.45-.48V259l-.4-.39v-1.78c-.66-.33-.25-1-.55-1.35s-.41-1-.77-1.41V253l-.44-.47v-.75c-.32-.55-.79-1-.82-1.49-.1-1.23-1-2.07-1.34-3.14v-.7c-.66-.33-.85-1.05-1.19-1.63-.44-.75-.63-1.65-1.12-2.34a15.85,15.85,0,0,0-1.89-1.94l-.77-1.64-.51-.07a13.54,13.54,0,0,1-1.73-2.09,12.74,12.74,0,0,0-2.11-2.18h-.44l-1.6-1.66-.65-.17-.27-.74-.66-.06-1-1.17c-.71,0-1-.72-1.38-.92s-.78,0-1-.17c-.57-.39-1.31-.54-1.64-1.2h-.77c-1.67-1-3.38-1.62-5-2.6H99.45c-.17-.37-.5-.4-.88-.45s-.74-.34-1.12-.39a1.08,1.08,0,0,1-1-.48H93.41l-.46-.46h-1.3l-.38-.38H86.94l-.45-.42h-1.8c-.29.71-1.12.74-1.63,1.22-.16.15-.54.06-.92.09l-.9,1a16.54,16.54,0,0,0-1.53.7,12.94,12.94,0,0,0-1.09.85c-.5,0-.93-.09-1.33.12l-.29.82-1.06-1.16ZM61.79,244.5h5.63l.48.45h2.59c.33.73,1.28.11,1.63.78l1.43.12.41.41h1.73l.4.4h.84l.48.44h1.14l1.2.62,1.33.72h1.13l.82.82h.84l.94.89h.93c.17.75.84.26,1.26.48l.66.67,1.2.57h.65c.32.29.59.72,1,.84,1,.33,1.86,1.07,2.92,1.34.1,0,.18.18.27.28s0,.27,0,.41c.34.23.82.19,1.05.6.34.07.72-.16,1,.16l.17.73c.9-.41.9,1,1.74.84l1.43,1.3.41,0c.71.72,1.43,1.43,1.92,1.92a6.64,6.64,0,0,1,2.17,1.31v.49c.88.62,1.42,1.72,2.57,2.08l2.42,2.37.6.17.12.6,1.44,1.44h.42a8.85,8.85,0,0,0,.63,1c.32.39.71.72,1.06,1.08l.58.15.75,1.64h.51a11.24,11.24,0,0,0,1.19,1.64,16,16,0,0,0,1.9,1.38c.24,0,.61.16,1-.15v-1.41l-1.26-1.23v-.47c-1.1-.71-1.06-2.25-2.15-3,.08-.41-.22-.63-.44-.9-.07-.09,0-.28,0-.41L112.74,266v-.43a4.93,4.93,0,0,1-1.38-2.25L110,261.91l-.58-.15-.69-1.56-1.15-1.15,0-.42a2.72,2.72,0,0,1-1.3-.94c0-.14,0-.34,0-.41-.55-.58-1.12-1.14-1.68-1.7s-1-1-1.54-1.53-1.33-.73-1.82-1.37A21.17,21.17,0,0,0,99.58,251L99,251l-.27-.76c-.83,0-1.14-.88-1.92-1.1A3.18,3.18,0,0,1,95.14,248c-.91,0-1.1-1.06-1.85-1.3h-.65c-.45-.2-.63-.73-1.15-.89s-.95-.57-1.55-.44a6.3,6.3,0,0,0-2-1.31,13.15,13.15,0,0,1-2.3-1.26c-.9.11-1.53-.49-2.32-.91H81.69l-.81-.82H78.73l-.94-.89H75.65l-.4-.4H73.08l-.4-.4-1-.11-.35-.36H66.62l-.5-.44H64.33c-.74,1-2,1.67-2.54,3a.47.47,0,0,1-.3.3A3.78,3.78,0,0,0,59.83,243a1.63,1.63,0,0,1-.34.21c-.46-.1-1,.27-1.41-.29l.16-.54,1.5-.08c.13-1,.13-1-.12-1.26H57.9s-.1-.1-.18-.17v-1.43c.16-.37.73-.42.72-1H28.1l-1.21.63c0,1.54,0,3.06,0,4.58a.44.44,0,0,0,0,.2c0,.06.1.1.15.16,7.86.14,22.5.09,25-.11l-1.39-1.39,1.16-1.06h1.16c1.56,1,3.28,1.58,4.94,2.57,1.08.09,2.3-.08,3.42.07Zm-5.63,3.9h-.82l-.73-.54-1.13,1c-.7-.4-1,.48-1.64.41l-.68-1.33c.1-.43.71-.64.35-1.15,0,0-.11-.12-.16-.12h-24a.49.49,0,0,0-.21,0,.5.5,0,0,0-.15.14v1.84l.36.37-.41.46c0,.57,0,1.14,0,1.72,0,.05.1.1.22.23H44l.37.37h1.9c-.14-.87-1.08-1.46-.66-2.45.24-.19.53-.08.81-.1s.57,0,.86,0,.58-.11.78.16l.13.61a3.88,3.88,0,0,1,2.71,1.38c.49,0,1,.14,1.25,0,.39-.56.65-.95.88-1.27h1l.76,1.68H56l.87-.46.56.49H62.2l.47.45H64l.48.44h1.71l.4.4h2.12l.61.49H70.5l.42.43H72.5l1.56.84h2l.48.44H78l.56.82c1.35.09,2.19.84,3.32,1.34h1.25l.7.89c.91-.19,1.48.65,2.23.44l.82.82c.75-.19,1.28.36,1.9.61a6.24,6.24,0,0,1,1.77.94,8.23,8.23,0,0,0,1.74,1.07H93c.31.29.6.78.94.83.52.06.78.53,1.3.58.33,0,.6.54.8.74l1,.06.24.69,1.59.75,1.42,1.42,1.19.57a3,3,0,0,1,.53.29,2.9,2.9,0,0,0,1,.66c.43.14.71.69,1.1,1a3.77,3.77,0,0,0,.89.47c.18.09.37.15.7.28a12.84,12.84,0,0,0,2.29,1.9c.66.37,1,1.24,1.72,1.61a10.75,10.75,0,0,1,2,1.58c.7,0,1.42,0,2.14,0,0,0,.1-.09.16-.14l.09-.51c-.67-.49-1.07-1.38-2-1.63a.89.89,0,0,1-.54-.61,1.22,1.22,0,0,0-.39-.72l-3.24-3.24-.71-.23,0-.51-1.58-1.51H105a1.25,1.25,0,0,0-1.22-1.35l-.92-.91c-.77-.77-1.52-1.55-2.3-2.3-.35-.32-.88-.34-1.21-.75s-.57-.87-1.19-.78c-.35-.36-.7-.73-1.08-1.07-.14-.12-.37-.13-.55-.21-.46-.19-.61-.79-1.16-.87s-.7-.67-1.16-.86a6.71,6.71,0,0,1-1.29-.53,10.87,10.87,0,0,1-1.24-1.21c-.71.11-.86-.66-1.31-.84-.34,0-.7,0-.89-.1-1.11-.79-2.56-1-3.44-2.09a5,5,0,0,1-.68,0c-.41,0-.63-.47-1.09-.52-.28,0-.52-.47-.78-.73-.46-.08-1,.09-1.32-.47H80.9c-.32-.51-1.05-.37-1.38-.89H78.38l-1.61-.89H75.24l-.52-.39H73.6L72.08,248H70.9l-.48-.45H68.3l-.51-.44H65.23l-.37-.37H57.38C57.25,247.5,56.62,247.89,56.16,248.4Zm35.09,42,.63-.47,1,.53.64-.43h6.88l.45.34h1.35c.61-.68.61-.68.37-1.25H100l-.48-.44H96.89l-.39-.4H92.16l-.46-.46H86.93l-.45-.46h-3l-.38-.38c-1.35-.07-2.71,0-4-.05l-.4-.41H76.11l-.48-.44H68.72l-.4-.4h-10l-.46-.46h-10l-.38-.38h-4l-.81.82H41c-.28.54-1,.44-1.37.89a4.84,4.84,0,0,1-1.27.79H37l-.53-1.14c.57-.31.4-.8.28-1.29-.05,0-.11-.12-.16-.12H27.54l-.65.65c0,1.43,0,2.87,0,4.32,0,0,.09.1.2.23H33l.93.51.64-.56h2.29v-1.31l.65-.83c.39.1.72-.05,1.08.19a19.57,19.57,0,0,0,2.13,1.12c.09.05.25-.06.44-.11l.08-1.28,1-1.22.67.67v.86l.43.46a9.76,9.76,0,0,0,.11,2c.55-.15,1.05.08,1.52-.17l.31-.3c17.21-.18,42.92-.12,45.67.11Zm14.68-11.68a2,2,0,0,1-.42,0,1.44,1.44,0,0,1-.56-.2c-.66-.48-1.5-.6-2.12-1.2s-1.57-.75-2.25-1.36a2.08,2.08,0,0,0-1.43-.67c-.5,0-.71-.45-1.12-.45s-.61-.64-1.12-.45l-.69-.86c-.47,0-.73.08-.89,0-.46-.28-1-.36-1.4-.8a2.46,2.46,0,0,0-1.58-.86,6.1,6.1,0,0,1-1.68-.68c-.74-.3-1.43-.73-2.17-1.11h-1c-.56-.51-1.44-.56-1.79-1.31H84.47L82,267.48H81l-1.52-.87H78.29l-.49-.44H75.93l-.66-.89h-.94l-.41-.42H72.25l-.56-.41c-.5-.05-.94.09-1.34-.12L70,264H68l-1.54-.89H61.34l-.39-.4H58.82l-.56-.46c-.63.08-1.08.83-1.77.34l-.38-.39H53.94l-.38-.38H49.24l-1.09,1.09v1.74a1.1,1.1,0,0,0-.49.86c0,.22-.37.41-.57.61l-.71.71c0,.23.08.36.1.49s.11.13.16.13H58.75l.48.44H64c.29.71,1,.33,1.49.6,1.17.66,2.52,0,3.76.33l.38.38h1.73l.4.4h.84l.48.45h1.72l.47.44h.85c.11.11.21.3.31.3.9.06,1.65.68,2.59.58a2.4,2.4,0,0,1,2,.39c.21.18.7-.1,1,.27s.84,0,1.17.3l.31.31h2.15l.94.89h1.63l.43.85c.47,0,.77,0,1,0,.54.07.92.69,1.55.43.28.34.78.32,1.05.59s.79.23,1.18.28l.48.44H95.1a11.92,11.92,0,0,0,1.31.77,2.78,2.78,0,0,0,.83.09.48.48,0,0,1,.18.08l.78.77h1.38c0,.66.77.34,1.14.73a1.73,1.73,0,0,0,1.25.54c.58-.07.82.53,1.34.48a1.16,1.16,0,0,1,.61.09c.42.21.82.47,1.31.76a14.94,14.94,0,0,0,1.76,0l.13-.6Zm-38.84-48c-.06,0-.12-.09-.18-.09H27.54l-.65.65c0,.82,0,1.68,0,2.54,0,.06.07.11.1.17l.31.31-.42.46c.08.33-.15.71.16,1a.76.76,0,0,0,.2.06H57.74c.12,0,.24-.12.35-.19l-.41-.46v-1c.7.13,1.09-.79,1.94-.47l.9.86h1.14l.51.85c.81,0,.81,0,1.32.4h1.95c0-.39,0-.73.08-1.44l1.31-1v-1.73C67.13,231.36,67.43,231.12,67.09,230.72ZM21.85,290.93c-.08.11-.15.16-.15.21,0,1,0,2,0,3l.51.48.79-.49c0-1,0-1.92,0-2.85a1,1,0,0,0-.16-.36Zm-4.49,41.89.65.12c.12-.13.21-.19.21-.24,0-1.14,0-2.27,0-3.41,0-.06-.08-.11-.19-.25l-.67.1v1l-.44.46v.85l.44.46Zm0-81.34v1.89l-.51.53c.11.2.26.42.37.65s.18.49.28.77l.72,0c0-1,0-2,0-3,0-.26.13-.56-.17-.83Z"/><path d="M112.73,402.37l.63,1.21h.87c.4-.24.28-.86.73-1.15s.5-.94.79-1.39.38-.86.6-1.27.48-.95.72-1.43.55-.81.45-1.24c.58-.59,1.13-1.13,1.71-1.71l.31.06a2.68,2.68,0,0,1,.11,1.32,11.19,11.19,0,0,1-.62,1.17,5.53,5.53,0,0,1-.68.69c.16.12.22.2.27.2h3l.57-.5,1.81.95,1.72-.89c.51.07.69.51,1,.78s.52.49.77.73c-.17.48.26.64.41.91v3.82l-1.07,1.16c-.35-.63-1.29-.37-1.49-1.15-.19-.4.23-.57.4-.84v-3c-.33-.27-.53-.72-1.12-.62a3.23,3.23,0,0,1-.18.52,5.16,5.16,0,0,1-.4.58v1.25l.39.46v2.15l-1.08.56-1.49-.86v-4.57l-.65-.13c-.07.07-.16.12-.16.18,0,1.43,0,2.86,0,4.42l-1.28.86c-.32-.23-1.06-.28-1.43-1.06l.44-.8v-3.4c-.34-.31-.71-.11-1.07-.17-.49,1-1,2-1.48,3.06a1.52,1.52,0,0,0,0,.6c-.33.67-1.12.61-1.53,1.11h-1.28l-.45.41h-.87l-.63-.63v-.47l-.53-.22c-.6.27-.24,1.2-1,1.33h-1.17l-.85-.59a2.27,2.27,0,0,1,.14-.57c.25-.48.86-.44,1.17-.78s.83-.07,1.2-.3.1-.82.13-1.23,0-.72,0-1.22l-.84-.65c-.1-.7.4-.84.65-1.15h.85l.33.33a3,3,0,0,0,1.44.06l.83-.83,1.11,1.48c0,.26-.46.39-.76.71h-.8l-.64.63Z"/><path d="M2.62,285.47l-.79-.79a1,1,0,0,1,0-1c.19-.29.43-.53.38-.87l2.1-1H8.09c.2.37.22.82.58,1.07v.85l-.63.63H3.69l-.58.63c.06.07.14.23.21.23,1.59,0,3.17,0,4.78,0a7.06,7.06,0,0,0,.29.78,1.22,1.22,0,0,0,.3.3v.87l-.65.65H3.76c-.06,0-.12.07-.22.14l0,.52c.09.08.14.18.19.18H8a3.85,3.85,0,0,0,.46.88c.31.32.11.68.23,1l-.63.67H2.8c-.56-.39-.61-1.07-1-1.53A1,1,0,0,0,2,288.26c-.39-.59-.31-.66,0-1.31.21-.42.42-.84.61-1.27A.49.49,0,0,0,2.62,285.47Z"/><path d="M4.1,86.25H6.31l.37-.36H8.07l.62,1.17c0,.15,0,.44,0,.72-.2.21-.4.41-.63.63H7.18L6.73,88H4.37l-.85.54c-.11.68.32.81.55,1.13H6.78c.52-.35.52-.35,1.33-.31a2.38,2.38,0,0,0,.56,1V91.7c-.07.07-.12.16-.17.16H6.73l-.43-.4H4.58l-.46.43H2.83L1.76,90.82c-.17-.44.23-.62.41-.88v-.85l-.42-.47c-.14-1,.7-1.62.89-2.61l-.88-.54V84.3L3.08,83l1.14-.65H5.43l.55.5.89-.46H8.12l.55,1v1c-.12.07-.24.19-.36.19-1.37,0-2.74,0-4.2,0l-.58.53C3.39,85.72,3.8,85.87,4.1,86.25Z"/><path d="M82.82,194.7a2.85,2.85,0,0,0-.65,0l-1.69,1.68a3.8,3.8,0,0,1-1.39-1.68l-.47,0-.2-.66-.8-.83V192a4.92,4.92,0,0,1,3.07-3l1.72,1.73.12.4c.64.09.83-.38,1.15-.63v-.46c.2-.18.39-.4.61-.58A8.12,8.12,0,0,1,85,189c.23-.14.47-.26.72-.39l1,1c-.3.54-.58,1.07-.91,1.68l1.37,1V194c-.46.37-.73,1-1.44,1.14-.52.13-.27,1.09-1,1.25H83.9l-1.08-1.07v-.6a5.16,5.16,0,0,0,.68-.49c.48-.07,1,.19,1.45-.17a3,3,0,0,0-.12-1.58,1.67,1.67,0,0,1-1.47-.4c-.1-.07-.37.1-.54.15Zm-1.74-.53c0-1.32,0-2.47,0-3.61,0-.05-.08-.11-.16-.2l-.52,0c-.24.36-.21.84-.62,1.07,0,.86,0,1.71,0,2.57,0,.05.09.1.17.19Z"/><path d="M15.19,132l1.41-1.41.89-.4,0-.07c.05,0,.14-.07.15-.06.41.52,1.36.4,1.5,1.29a1.07,1.07,0,0,0,.85.84,1.29,1.29,0,0,0,.91-1c.11-.43.63-.75,1-1.1.85,0,.85,0,2,.68.09.69-.74.81-.89,1.29.06.21.06.38.14.46a7.53,7.53,0,0,1,.95,1.33c.32.44.11.81.26,1.14l-.68.68h-.73l-1.73,1.73c-.48-.1-.71-.7-1.3-1.12l.76-.39-.13-.18,1.44-.07c.34-.48.11-1,.18-1.5a2.9,2.9,0,0,1-1.51-1.07c-.19.36-.37.7-.64,1.23l-.06,1.23-.8.28,0,.49-1.21.63H16.73a3.61,3.61,0,0,1-1.14-1.36,3.82,3.82,0,0,1-.43-1.35c0-.28-.31-.57-.48-.84l.51-.54Zm1.73,3.07c.35.18.41.52.74.5l.56-.59c0-1,0-2,0-3,0,0-.09-.1-.14-.15-.56,0-.56,0-1.16.6Z"/><path d="M87.59,391.09,87,392.31l-.6,0-1.17,1.29h-.73c-.35-.07-.5-.44-.78-.65s-.42-.58-.79-.65c-.14,0-.31,0-.39.12-.4.41-.78.83-1.14,1.22-1-.4-1.8-1.19-2.84-2.84v-1.68c.4-.48.51-1.19,1.09-1.66a7.93,7.93,0,0,1,1.75-.87c.52.62,1.06,1.28,1.5,1.79h1c.66-.4.63-1.27,1.28-1.69H86.5l.63.59-.82.92c-.09.48.22.61.38.83s.52.31.46.67.37.43.42.68A2.72,2.72,0,0,1,87.59,391.09Zm-1.74.77v-.53l-1-1.62-1,.05c-.31.36-.1.73-.18,1.05l-.46.49.15.56Zm-5-3.86c-.22.4-.43.81-.61,1.16v1.52l.64,1.25.62-.16c0-1.18,0-2.31,0-3.44,0-.11-.14-.22-.22-.33Z"/><path d="M13.82,372H11.05c-.21-.29-.57-.45-.62-.65,0-.62.4-.73.63-1.1H13V369l.69-1.34h.42l.9-.86h1.31l1.38,1.39.51,1.2v1.58c0,.15-.5.29-.39.71-.48.53-1,1.05-1.46,1.58H14.85Zm2,0c.33-1.41.32-3.58,0-3.93l-.62.12c0,1.19,0,2.33,0,3.47,0,.11.14.22.21.34Z"/><path d="M17.8,171v1.3l.33.33c-.11.43-.47.79-.36,1.2l-1.69,1.68H14.45l-1-1.26H12.38l-.47.42h-.74c-.47-.22-.77-.72-1.14-1.08l1-1.09h1.31c.38-.28.13-.68.35-1.28l1.16-.95,0-.61,1.21-.62h.68Zm-3,2.92.61.79.66-1.3c0-.64,0-1.49,0-2.33,0-.11-.15-.21-.23-.31-.33.08-.71-.15-1,.19Z"/><path d="M3.28,297.81c1,.18,1.49-.75,2.75-.26l-1-1H2.39l-.66-.69L2.91,295c.64-.51,1.1.34,1.75.27l.28.82h.5l1.23,1.28.69,0,3.51,3.51.53,1-1.08.63H9.76l-.69-.7V300H3.75l-.7.43a1.35,1.35,0,0,1-.29-.12l-.92-.92c0-.05,0-.13,0-.15Z"/><path d="M5.53,134.3c.87-.56,1.62-1,2.47-.74.4-.42.17-.8.26-1.14a3.12,3.12,0,0,1,.62-.59c.4-.21,0-1,.67-.91.44,0,.62-.57,1.12-.48.12,0,.28-.24.43-.36l2.34,2.34v2.17c-.13.26-.58.41-.41.88L11.46,137H10.2L8.52,135.3c-.56-.07-1.14-.21-1.37.39C6.7,135.69,6.7,135.69,5.53,134.3Zm4.46.16.63,1.22.62-.07.08-1.44.37-.47-.37-.37-.08-1.47-.62-.07L10,133Z"/><path d="M8.91,333H6.71l-.59-.78v-.8c.4-.19.83-.24,1.09-.61H8.55a2.35,2.35,0,0,0,.13-.57c-.06-.6.51-.95.56-1.49l.58-.15L11,327.36l2.43,2.43c-.11.35.25.55.43.76v.89l-.35.35-.11,1c-.26.48-.8.52-1.19.78a1,1,0,0,0-.51,1.09l-.87.05c-.11,0-.2,0-.24-.05ZM11.07,329l-.62.61v2.5l.63,1.22.64-.65c0-1.09,0-2.22,0-3.35,0-.12-.14-.22-.21-.33Z"/><path d="M13,213.17c.55-1,1.74-1.21,2.35-2l.87.44,1.33,1.25.6,1.22v1.63c-.25.23-.54.46-.31.89s.67.07,1,.15l.66.7-.64.61c-.26,0-.43,0-.52-.08-.31-.27-.59-.58-.9-.88l-1.79.94H15L13,216Zm2.34-.28c-.08.09-.16.15-.17.2,0,1.07,0,2.15,0,3.22a1.15,1.15,0,0,0,.15.41h.53c.08-.09.17-.15.17-.2,0-1.07,0-2.15,0-3.22a1.38,1.38,0,0,0-.15-.41Z"/><path d="M39.77,387.9s.35-.57.78-.7a10.81,10.81,0,0,0,1-.54,4.78,4.78,0,0,1,2.26,1.59c-.16.42.27.58.42.85V391l-2.58,2.58a.53.53,0,0,1-.3-.06L39,391.26v-2.09Zm2.3.21L41.2,388c0,1.25,0,2.38,0,3.51a1.29,1.29,0,0,0,.15.39h.54c.08-.1.16-.15.16-.21C42.07,390.51,42.07,389.36,42.07,388.11Z"/><path d="M8.25,57.45V55.36c.51-.72.74-1.73,1.67-2,.52-.15.85-1,1.57-.38.47.22.64.75.93,1.22a5.84,5.84,0,0,0,1,1v2.07l-.62,1.2-.63,0-1.15,1.28c-.8.13-.9-.84-1.64-.9S8.81,57.89,8.25,57.45Zm2.9-2.75c-.65-.32-.81.32-1.16.59v1.57l.62,1.2.52,0c.07-.1.15-.15.15-.2,0-1,0-2,0-3C11.28,54.8,11.2,54.75,11.15,54.7Z"/><path d="M43.37,191.4V194l-.43.46,0,.44c-.27.32-.84.13-1,.6-.13.31-.3.6-.48.95-.88-.24-1.28-1.09-1.94-1.58s-.83-1.25-1.28-1.85v-1a10.48,10.48,0,0,1,.69-1.24,4.41,4.41,0,0,1,.91-.92,13.56,13.56,0,0,1,1.22-.73c.36.47,1.07.43,1.51,1S42.83,191.11,43.37,191.4Zm-3-.44c0,1,0,2,0,3,0,.05.08.1.16.2h.74c-.31-.54.12-.75.39-1v-1.63L41,190.34Z"/><path d="M150.51,189c.82-.05,1,.66,1.48.44l1.08,1c-.15.46.2.66.4.88v2c-.23.47-.37.78-.33.69l-2.32,2.32c-.55.1-.28-.59-.53-.86a2.55,2.55,0,0,0-1.06-.59l-.16-.59-.77-.78V192l1-2.09.52-.06Zm.15,1.28c-.31,1.34-.32,3.58,0,3.88l.42,0,.65-1.17V191l-.62-.64Z"/><path d="M17.79,17.11l.42.45a1.73,1.73,0,0,0-.46,1.34l-1.83,1.82c-.68.39-1.16-.2-1.72-.37a1.26,1.26,0,0,1-.78-.9c-.1-.38-.48-.67-.8-1.08V16.66c.05-.21.56-.33.42-.73l2.06-2h.66c1,.51,1.17,1.74,2,2.38ZM16,15.78l-.62-.6-.64.64c0,.92,0,1.86,0,2.8a1.12,1.12,0,0,0,.14.37l.55.56L16,19Z"/><path d="M8.69,255v-1.15c-.14-.15-.29-.3-.42-.45l.42-.46v-.66l.58-1.13,2.06-1c.5.16.74.64,1.11.94l1,.86v1l.41.5c0,.17,0,.38-.08.42-.47.29-.34.74-.35,1l-2.5,2.5-1-1.1-.69-.16Zm2.38-3.54-.65,1.26c0,.21,0,.64,0,1.07s-.11,1,.27,1.31l.31.78.7-.74v-3.05Z"/><path d="M117.5,391.9h-.65c-.47.5-1.09.89-1.21,1.7l-1,0c-.76-.89-1.87-1.56-2.36-3.15v-1.4c.12-.26.57-.41.4-.89l1.16-1.08a2.35,2.35,0,0,0,.74,0,2.5,2.5,0,0,0,.61-.41c.15,0,.25,0,.29,0l2,2Zm-3-3.27c0,1,0,2,0,3,0,.05.08.11.12.16.64.36.81-.31,1.18-.55,0-.42,0-.85,0-1.27s.11-1-.24-1.31l-.34-.69Z"/><path d="M191.69,189l2.13,2.12.41.82v.7l-.43.46v1.29c-.31.5-.9.6-1.33.92a7.33,7.33,0,0,0-1,1.09L189.07,194v-2.56c.38-.48.51-1.19,1.07-1.66A7.2,7.2,0,0,1,191.69,189Zm.2,5.13c.08-.08.17-.14.17-.19,0-.92,0-1.85,0-2.77a1.39,1.39,0,0,0-.12-.38c-.22-.12-.28-.45-.6-.45l-.57.6c0,1,0,1.88,0,2.8a1.24,1.24,0,0,0,.16.39Z"/><path d="M73.88,196.33a17.89,17.89,0,0,0-1.64-1.61c-.6-.45-.61-1.23-1.13-1.63V192l1-2,1.81-.89a4.52,4.52,0,0,1,2.36,2.27v2.15c-.11.26-.58.4-.41.88Zm-.32-2.12,1-.58v-2.09l-.62-1.24-.59.62c0,1,0,2.08,0,3.13,0,0,.1.1.15.16Z"/><path d="M74.67,393.67l-1.4-.7L72,391.62v-3.37c.3-.25.43-.71,1-.71.32,0,.47-.46.9-.44.21,0,.43-.29.68-.47.69.31,1,1,1.49,1.29l.71.22v3.5a1.45,1.45,0,0,1-1.14.76C75.39,392.82,75.34,393.35,74.67,393.67Zm.31-5.74-.77.15c.08,1-.91,1.8-.36,2.78l.55,1.07.58-.15Z"/><path d="M189,391.25v-2.07c.28-.46.53-.94.85-1.37a12.31,12.31,0,0,1,1.08-1.09H192c.14.18.36.7.7.79a1.48,1.48,0,0,1,.86.52,11.45,11.45,0,0,1,.63,1.19v1.94l-2.48,2.48c-.28.06-.47-.13-.67-.34Zm1.74,0c.62.56.62.56,1.16.56,0-.05.13-.11.13-.16,0-1.14,0-2.28,0-3.41,0-.06-.08-.11-.12-.17-.65-.33-.82.32-1.17.58Z"/><path d="M114.69,189.12a3.57,3.57,0,0,1,2.33,2.66v2l-2.47,2.47-.94-1-.71-.18c-.23-.34-.19-.82-.6-1.05v-2.86l.55-1.11Zm-.66,1.66c0,1.19,0,2.19,0,3.19,0,.06.08.11.13.16.4.07.82.26,1.16-.14v-3s-.09-.1-.17-.2Z"/><path d="M8.73,101.61c.25-.24.56-.47.29-.91,0,0-.07-.12-.12-.12H3.29l-.41.38-1.17-.61.6-1.42c.39-.3,1.08.29,1.26-.48H5.48l.62-.89h1l2,2v.32c1,.31,1.5,1.18,2.23,1.79-.21.75-.78,1.06-1.21,1.48a1.05,1.05,0,0,1-1-.9A3.2,3.2,0,0,0,8.73,101.61Z"/><path d="M149.41,388l1.25-1.27h.85c.63.46,1,1.28,1.83,1.37a2.38,2.38,0,0,0,.56,1.05v1.28c-.41.29-.56.66-.41,1l-2.18,2.18c-1.06-.63-1.34-.93-2.58-2.74a1.49,1.49,0,0,1,0-.21v-1.44Zm1,1.12c0,.71,0,1.42,0,2.13,0,0,.09.11.13.16.49.44.49.44,1,.44,0-.05.13-.11.13-.16,0-1.14,0-2.28,0-3.41,0-.06-.08-.11-.15-.21l-.53,0C150.81,388.38,150.87,388.87,150.45,389.09Z"/><path d="M198.6,192.23l-.08-1h-2.31c-.4-.36-.17-.74-.25-1.12l1.2-1.05h1.64l1.48,1.71v1a3.66,3.66,0,0,1-1.71,1.36v.48a2.43,2.43,0,0,1,.73.26,13.88,13.88,0,0,1,1,1c-.07.73-.68,1-1,1.45h-2.22l-1.14-1.05c.06-.76.76-1,1.12-1.5.85.06,1-.63,1.2-1.19C198.3,192.47,198.44,192.39,198.6,192.23Z"/><path d="M162,192.48h-.93l-.64-.67c0-.22-.1-.55,0-.77a4.8,4.8,0,0,1,1.55-2h1.24l.58.54c-.09.44-.51.59-.77.94v1l1.33,1.11c-.22.57.22.72.35,1-.52.33-.71,1.11-1.5,1.06-.21.27-.55.52-.6.82s-.43.55-.62.86h-1.42c-.12-.28-.21-.53-.33-.77a4,4,0,0,0-.28-.45c.07-.48.46-.61.66-.9H162A2.07,2.07,0,0,0,162,192.48Z"/><path d="M162.24,393.63h-1.18l-.59-.62V392h1.85c.12-.13.21-.17.22-.23,0-.28,0-.56.06-.82-.51-.91-1.51-1.19-2.16-1.73-.1-.77.62-.9.74-1.33a2.26,2.26,0,0,1,.69-1.07c.57-.22,1.2,0,1.77-.1l.66.66a2.63,2.63,0,0,1-1.28.92c0,.14,0,.33,0,.41.54.57,1.11,1.12,1.68,1.7v.78Z"/><path d="M23,212.33v5.56c-.39.19-.81.24-1,.52l-1.09-.56v-5.18l-.38-.42.57-1.11H22Z"/><path d="M122.27,195.29c-.43.35-.71.88-1.15,1.08-.55,0-.66-.38-1-.6V191l-.43-.51c-.09-.4.18-.55.33-.78a2.64,2.64,0,0,0,.26-.71h.9c.64.31.58,1.11,1.08,1.51v2.14c-.15.28-.58.44-.42.89l.43.45Z"/><path d="M156.1,195.38v-2.64a3.54,3.54,0,0,0,.42-.88l-.43-.47v-1.75l.65-.59h.93c.12.3.22.54.33.78,0,.07.09.11.2.21v5.73c-.26.17-.38.57-.83.62C156.77,196.3,156.61,195.61,156.1,195.38Z"/><path d="M158.68,393l-.66.61h-.85l-.63-.59v-4.78l-.38-.39a.92.92,0,0,1,.14-.28l.84-.85h.91l.63,1.21Z"/><path d="M20.41,367.38l1-1,1.37.79c.13.18.2.23.2.29v5.15l-1.1,1.09-1-1.2v-4.57Z"/><path d="M120.86,386.68l.82.05.23.54a3.58,3.58,0,0,1,.35.57.81.81,0,0,1,0,.22v4.49l.34.34c0,.37-.38.5-.57.74h-.86l-1.08-1.08v-5.24Z"/><path d="M7.17,96.67c-.4-.49-1.08-.55-1.53-1s-1.08-.52-1.57-.82a12.38,12.38,0,0,1-1.56-1,2.16,2.16,0,0,0-1.86-.65L0,92.57a3.3,3.3,0,0,1,.11-1.46c.44.1.6.52.89.73.37.06.78,0,1,.19,1.06.72,2.43.91,3.34,2l.92,0c.22.21.47.67.82.77a1.92,1.92,0,0,1,1.07.72v.92C7.89,96.82,7.51,96.59,7.17,96.67Z"/><path d="M8,296.09H6.72c-.39-.4-.73-1-1.22-1.17a4.16,4.16,0,0,1-1.33-1c-.58.08-1-.27-1.53-.44s-.72-.66-1.16-.91H.66L0,292c0-.49,0-1,0-1.5.48.2.84.31,1.17.49a4.15,4.15,0,0,1,1.18.77c.31.35.71.39,1.06.59.92.54,1.92.93,2.83,1.5.21.14.54.08.88.11.7.35.79,1.15,1.11,1.81C8.27,295.82,8.11,296,8,296.09Z"/><path d="M22.56,19.74l.44.41c-.45.35-.73.89-1.31,1.15l-.5-.35c-.11-.09-.21-.2-.34-.33V16.35l-.43-.54V14.52l.55-.6h1l.62,1.18Z"/><path d="M22.56,175.35c-.28.2-.42.59-.81.65s-.57-.38-.93-.62V171l-.38-.38v-1.42c.11-.08.17-.15.22-.15H21.9l.66.65Z"/><path d="M198.57,390.6V389c-.58-.34-1.24-.1-2.06-.21l-.58-.66c.11-.74.76-1,1.14-1.46h2.11l1.12,1.05v1.76l-1.08,1.08Z"/><path d="M198.57,390.6v.69l1.68.76v1l-.59.62h-3c-.19-.29-.58-.42-.67-1a2.3,2.3,0,0,1,1.27-1.16C197.83,391.37,197.94,390.61,198.57,390.6Z"/><path d="M5.51,97.61l-.5-.5H2.46l-.72-.65,1.09-1.08h.92c.26.67,1.06.73,1.57,1.18C5.61,96.81,5.62,96.83,5.51,97.61Z"/><path d="M117.5,391.9h1.09c.19.2.4.4.62.64l-.57.62h-1C117.36,392.75,117.56,392.31,117.5,391.9Z"/><path d="M153.52,194.69h1.15l.16.6-.75.6c.09,0,0,0,0,0C153.82,195.58,153.38,195.39,153.52,194.69Z"/><path d="M13.45,58.55h1.2l.14.61-.68.57c-.28,0-.41-.38-.66-.57Z"/><path d="M17.85,20.17l.56-.66h.47c.38.34.19.75.13,1.21l-.56.11Z"/><path d="M194.44,194.65h.44c.41.33.19.75.15,1.21l-.55.11A.92.92,0,0,1,194.44,194.65Z"/><path d="M14.76,333.59V334l-.62.56c-.07,0-.25-.12-.24-.16.09-.41-.21-.62-.44-.86C13.75,333.29,13.9,333.29,14.76,333.59Z"/><path d="M77.93,393.19h-.36l-.87-.59.69-.7C77.65,392.25,78.26,392.42,77.93,393.19Z"/><path d="M19.05,174.66v.74c-.34.31-.71.1-1.14.19l-.12-.68C18.17,174.57,18.54,174.77,19.05,174.66Z"/><path d="M18.18,372h.74c.31.34.1.71.19,1.14l-.68.12C18.09,372.88,18.29,372.5,18.18,372Z"/><path d="M14.58,257.07h-.47a.89.89,0,0,1-.07-1.23l.81.57Z"/><path d="M77,196l-.6-.65.59-.68.66.66Z"/><path d="M117.73,194.65a1,1,0,0,1,0,1.32c-.18-.22-.36-.42-.56-.65C117.21,195,117.53,194.89,117.73,194.65Z"/><path d="M194.28,392.57l.6-.69a1,1,0,0,1,0,1.33Z"/><path d="M14.54,137H14l-.16-.76.65-.13A.52.52,0,0,1,14.54,137Z"/><path d="M154,392.42l.59-.11a.53.53,0,0,1,0,.91c-.13-.15-.28-.3-.4-.46A2,2,0,0,1,154,392.42Z"/><path d="M21.92,33.39a.64.64,0,0,1-.12-.85C22.32,32.74,22.19,33,21.92,33.39Z"/><path d="M21.91,87.13a.52.52,0,0,1,0,.87A.52.52,0,0,1,21.91,87.13Z"/><path d="M21.77,91a2.76,2.76,0,0,1-.06-.57c0-.06.17-.13.27-.16s.14.1.14.14c0,.2-.05.39-.07.58Z"/><path d="M24.23,285l-.15.28c0-.05-.15-.11-.14-.14a1.11,1.11,0,0,1,.14-.29Z"/><path d="M180.73,173.25l.15-.59,1.23-.51H184l1,.53a2.29,2.29,0,0,0,.54,1c.08.47-.21,1,.23,1.48a6.57,6.57,0,0,0,.63-.81c.22-.41.33-.89.58-1.27a6.44,6.44,0,0,1,.93-1h.82l.49-.43c.09.09.2.17.29.27.25.26.71.06.91.45s.72-.06.78.52a3.14,3.14,0,0,0,.41.9c.15.3.29.61.44.9s.19.36.38.71v2.42L191,180.7l-.52.14-.79.78h-1.24l-2-2v-.76l-.62-.61c-.08.08-.23.17-.24.26,0,.36,0,.72,0,.95l-1.91,1.9c.23-.09-.07,0-.25.12a.71.71,0,0,1-.78.18c-.67-.3-1.57-.38-1.79-1.19-.15-.57-.62-.76-.9-1.17V178l-.43-.47v-1.73l.39-.38c0-.41.05-.9.07-1.38Zm7.43,1.69v3.44l.43.46c.08.34-.15.73.17,1l.43,0,.73-1.23v-1.25c.65-.28.4-.8.35-1.24l-.41-.53v-1.48l-.63-1.2-.63.64v.86Zm-5.32,5c.2-.09.54-.21.53-.27-.07-.43.24-.64.45-.88v-4.18l-.63-1.22h-.47l-.57.63v5.28Z"/><path d="M206.6,181.64h-.86l-.63-.6v-1.82l.35-.35V177l-1.45-.6c-.13.13-.22.19-.22.24,0,1.44,0,2.88,0,4.35l-.69.61h-.84l-.63-.59v-3.85l-.64-.72h-.47c-.07.12-.2.24-.2.35,0,1.37,0,2.74,0,4.16l-.59.63h-1l-.47-.47a.48.48,0,0,1-.13-.16.81.81,0,0,1,0-.22v-4.07l-.47-.52c.1-.71.75-1,1.13-1.43h.85l.56.49.86-.47h1.6l.45.37H204l.46-.39h1.73a3.1,3.1,0,0,0,1.06,1.47v3.4l.5.69C207.55,180.92,207,181.15,206.6,181.64Z"/><path d="M177.79,162.14l-.75,0a3,3,0,0,1-.13-1.51l.39-.38v-1.74l.45-.45v-2c.31-.38.48-.61.62-.78h.85l1,.85c.77.1.83-.83,1.62-.86a11.9,11.9,0,0,1,1.31,1.23c.37,0,.47-.42.74-.59s.41-.6.91-.65c.52.15.75.74,1.22,1.07V158l-.41.45v2.44c-.25.47-.44.84-.63,1.22h-1.33l-.65-.61a3.2,3.2,0,0,1,0-.75c0-.19.28-.32.34-.51s0-.57.09-.83.24-.34.38-.53a2.73,2.73,0,0,0-.09-1.46l-.54,0c-.35.32-.12.71-.2,1.05l-.44.47v.85c-.74.65-.61,1.86-1.57,2.37h-.83c-.46-.59,0-1.27-.25-1.83l.48-.55v-.83l.44-.47a3.35,3.35,0,0,0-.26-1.56L180,158a5.34,5.34,0,0,1-.9,1.86v1.26Z"/><path d="M141.78,20.37h1.07l.46.42.37-.37H145a1.74,1.74,0,0,0,1.35.36l1,1.32h1.16l.48.44h1.72c.11.11.19.26.31.3.83.28,1.53.82,2.4,1.09,0,1.33,1.63,1.13,2.05,2.09h1.75c.74,1,2.33,1.11,2.54,2.58h1l.66.83c.48.11.84-.08,1.16.22s.53.17.72.33a4.12,4.12,0,0,0,1.35.93c.55.2.53.92.9,1.35.17.2.07.65.09.92-.43.3-.78.16-1.12.17a9.18,9.18,0,0,0-.77-.76c-.21-.15-.5-.19-.73-.32-.58-.31-1.32-.44-1.38-1.34,0-.23-.34-.44-.48-.6h-1l-.28-.8h-1.13c-.52-.27-.95-.47-1.34-.72s-.5-.71-1-.66c-.07,0-.18-.31-.27-.48l-.66-1.24h-.86l-.81-.81h-1.5a5.69,5.69,0,0,1-1-.49c-.54-.42-1.28-.52-1.7-1.13s-1.54-.68-1.83-1.47c-.7,0-1.06.75-1.78.4l-.44-.38h-1l-1.17-1.33h-.91C142.21,20.91,141.77,20.8,141.78,20.37Z"/><path d="M172.87,181.64,171,179.75l-.54-1.07v-4.17a2.22,2.22,0,0,0,.29-.38,2.94,2.94,0,0,0,.16-.58l1.41-1.41h2.59a1.61,1.61,0,0,1,.73.87c.11.38.48.67.84,1.14.1.27-.19.86.41,1.16v2.2l-.4.45v1.39a3.14,3.14,0,0,1-.6.48c-.38.2-.15.68-.45.9s-.44.33-.67.47-.47.26-.81.44Zm.12-8.2v1l-.43.46v3.44l.43.46c.08.34-.15.72.17,1h1c.08-.1.16-.16.16-.21v-6s-.09-.11-.17-.2Z"/><path d="M202,152.16c.21.26.48.59.68.85l.6.07c0,.17.09.37.16.63.09.1.23.26.38.41v1.28l-.42.46v.86c.11.12.3.22.3.32,0,.91.88,1.62.35,2.92a6.78,6.78,0,0,1-.64,1,12.44,12.44,0,0,1-1.08,1.11H201l-.51.43c-.74.27-1.23-.4-1.92-.56l0-.88.53-.59a3.67,3.67,0,0,1,1.47-.11c.43,0,.86,0,1.27,0,.41-.47.13-1,.23-1.61l-1.31-1.07v-1l.83-.83c0-.23,0-.51,0-1l-.74-.6c-.58.07-1,.73-1.76.36-.27-.27,0-.65-.12-1l1.55-1.52Z"/><path d="M42.5,102.51,43,103v.85c.45.27.44.7.41,1.38l-.83.49v2.16l1.72,1.42v1l.42.49v1.33l-.85.56a1,1,0,0,1-.4-.17c-.49-.42-1-.87-1.37-1.25v-3.57l-.37-.37v-1.11l-.87-1.61v-2.15l.37-.36v-1.67c-.27-.49-.54-1-.84-1.48V96.88c.44-.35.72-.89,1.31-1.15.18.14.35.25.5.38s.21.2.33.32V99l-.4.45v.86l.42.45Z"/><path d="M194.23,172.14h1.56l.5.5a.37.37,0,0,1,.11.39v7.09l.34.34s0,.13,0,.15l-1,1h-1l-.62-.59Z"/><path d="M51.6,134.17V133a12.35,12.35,0,0,0-.69-1.24c-.25-.35-.62-.61-.9-.93a3.5,3.5,0,0,1-.61-.83c-.39-.77-1.12-1.36-1.28-2.36l.82-.61.64,0a1.9,1.9,0,0,1,.45.4c.26.39.67.81.66,1.22,0,.73.65,1.25.45,2.11l.89.66v1c.51.71,1.5.81,1.95,1.55s.68,1.31,1.08,2.1v1.12c.48.25,1,.41,1.28.93l-.61.62h-.95c-.07-.37-.15-.77-.22-1.16-1-.47-1-.51-1.69-1.63a7.85,7.85,0,0,0-.58-1.07C52.1,134.64,51.89,134.45,51.6,134.17Z"/><path d="M112.94,171.67h-2.16c-.42-.53-1.38-.42-1.53-1.34.13-.57.78-.76,1-1.25h.93l.46.42h.85c.26.26.52.51.77.77.49.15,1,.25,1.34-.28l.65.38c.59,0,.75-.59,1.15-.87h2.16l1.08,1.08v.89l-.63.58h-3.17l-.14-.64s-.09-.14-.15-.14h-2.19Z"/><path d="M114.25,15.6h1.29l.45-.42h.44l.31.31c.06,0,.11.11.17.11h5.56l1.1,1.08c-.11.54-.1.55-.63,1.07h-2.68c-.21-.25-.47-.59-.68-.85h-2.17l-1.33.73c-.39.24-.82.11-1.23.13s-.71,0-.95,0l-1.17-1.06C113.05,16,113.85,16.1,114.25,15.6Z"/><path d="M193.37,97.71l1-1c.05,0,.14,0,.22,0,.42,0,.54.39.89.62v2.63l-.84.85v2.6l.4.46V106c-.14.26-.58.42-.42.88l-1.12.57c-.6-.17-.49-1-1-1.38v-1.28c.42-.54.52-1.38,1.25-1.75v-1.78l-.42-.45Z"/><path d="M140.72,168.64l-.47-.44c-.33-.08-.71.15-1.08-.22.77-.67,1.29-1.61,2.36-1.93h2.15l.49-.44H145l1.59-1.66c.13,0,1.36-.44,1.43-.49h2.1l.49-.42c.32.14.26.4.19.67-.29.34-.69,0-1,.18-.47.26-.08.78-.28,1.09l-2.73,1.34-1.32-.39c-.28.37-.55.7-.8,1l-.54-.49A6.89,6.89,0,0,1,140.72,168.64Z"/><path d="M122,107.51l.46-.41c.25.36.7.36,1.07.58v.86c-.23.28-.4.66-.91.72-.31,0-.6.39-.9.39a1.4,1.4,0,0,0-1.08.53l-1.77-.93H117.3l-.89.84h-1.32c-.31-.57-.88-.35-1.25-.45l-.67-.59v-1a2.83,2.83,0,0,0,.74-.27c.23-.18.41-.39.76-.31l.45.42H117l.67.84a2.44,2.44,0,0,0,1.48-.37c.5-.18.9-.75,1.54-.47A1.58,1.58,0,0,1,122,107.51Z"/><path d="M85.51,164.17l-.24-.73H83.94l-.48-.44h-1.7l-.91-.87-.29,0-1.63-1.51.63-.63h1.29c.65.82,1.84,1,2.38,2l.13.6h1.42l.4.4h1.64a5.83,5.83,0,0,0,1.41.84,1.49,1.49,0,0,1,1.09.84c.07.44-.36.56-.58.89H87.43a8.54,8.54,0,0,1-1.13-.61A5.85,5.85,0,0,1,85.51,164.17Z"/><path d="M189.77,156.09h5l1.18.69c-.09.71-.75,1-1.13,1.44h-5.2l-.63-.63v-.92Z"/><path d="M166.83,175.57l.93.55c.1.69-.33.81-.55,1.14H161a2.35,2.35,0,0,1-.09-1.55c.08-.06.13-.13.19-.13Z"/><path d="M167.16,178.17l.69.76c-.1.2-.22.53-.28.52-.44-.07-.64.24-.89.46h-5.2l-.59-.67v-.9c.1-.08.15-.16.2-.16Z"/><path d="M189.68,160.4c-.2-.28-.58-.42-.65-.81s.39-.57.6-.89h5.2l1.14.65c.08.55-.41.72-.65,1.05Z"/><path d="M133.32,95.82c-.65,0-.77-.45-1.07-.65v-.84l-.44-.48V91.71c.16-.27.58-.44.43-.89l1.09-.56s.18.08.2.17a5.18,5.18,0,0,0,.83,1.71v2.55Z"/><path d="M186.86,61.9,186,60.36V58.8l-.51-.58.19-.58a2.66,2.66,0,0,1,1,1.31l.41,0,1.08,1.07v.41l.44.48v.83l.44.49V63.5l.41.48c.08.57-.41.72-.66,1l-.62-.62v-.83c-.47-.28-1-.43-1.32-.93Z"/><path d="M135.92,169.93h-.85l-.4.38-2-1,1.53-1.52h1.27l.46-.43h2.16l.61.61c-.25.67-1.09.56-1.43,1.08S136.21,169.39,135.92,169.93Z"/><path d="M194.33,89.25l-.14-.65L193,87.41V85.7l.89-1.7-.49-.55.57-.59c.44,0,.2.41.43.74l.64.63a2.78,2.78,0,0,0,.49,1.53.8.8,0,0,1-.08.78c-.56.35-.09,1-.45,1.33S194.76,88.79,194.33,89.25Z"/><path d="M173.86,146.52V148l-2.9,2.89h-.8l-.57-1.12.8-.84v-.47l.79-.27,1.59-1.63Z"/><path d="M100.63,18l-.11,1-1,.06c-.46.08-.56.95-1.26.85-.35.45-1.07.33-1.37.86H95.17l-.61-.61c.45-.42.4-1.18,1-1.53h1.24l.51-.45h1.28c.14.13.29.28.52.48Z"/><path d="M168.72,34.68l3,3v.57a1.28,1.28,0,0,1-.87.79c-.07,0-.17,0-.21,0l-3.22-3.21v-.94c.26-.31.57-.15.84-.18A3.82,3.82,0,0,1,168.72,34.68Z"/><path d="M182.53,53.66V52.6l-.92-.65c.23-.38.23-.38,1.19-.31.31.3.09.68.17,1,.92.26,1.41,1.08,1.94,1.52l1,2a2.8,2.8,0,0,0-.5,1l-1,.05-.61-1v-.53a5.57,5.57,0,0,1-.76-.78A8.45,8.45,0,0,1,182.53,53.66Z"/><path d="M77.56,158.36,77,159.53h-.91c-.59-1.1-2.09-1-2.77-2v-1.29c.28-.21.44-.56.79-.66.86.16,1.08,1.07,1.84,1.38A6.44,6.44,0,0,1,77.56,158.36Z"/><path d="M167.79,152.38v.85l-.44.47v.47l-.82.29c-.37.43-.92,1.08-1.37,1.59H164.1l-.6-.6.6-1,2.24-2.24c.39.16.54-.3.84-.4Z"/><path d="M101.62,168.61c.45.07.82-.1,1.19.26a4.74,4.74,0,0,0-.55.2,7.53,7.53,0,0,0-1.22.66,1.12,1.12,0,0,1-1.17.12c-.42-.19-.77-.53-1.19-.72a3.28,3.28,0,0,0-1-.09l-.55-.52c-.11-.71.4-.86.63-1.19H99.9C100.49,167.82,101.31,167.94,101.62,168.61Z"/><path d="M71.08,153.65V155a.55.55,0,0,1-.77,0,5.33,5.33,0,0,1-1.5-1.07c-.13-.17-.29-.44-.45-.44-1.1-.05-1-1.12-1.51-1.6l.55-.66h.75c.38,0,.55.64,1,.48Z"/><path d="M191,71.53h.9c.36.35.71.7,1.07,1.07v1.24l.45.59c0,.37,0,.37-1.22,1.43-.35.06-.49-.22-.7-.4,0,0-.69-1.61-.68-1.63.11-.42-.34-.57-.42-.81-.09-.41.19-.56.34-.79A3,3,0,0,0,191,71.53Z"/><path d="M182.05,50.55c-.3.18-.41.62-.84.6-.9-.29-1.22-1.11-1.56-1.84a4.18,4.18,0,0,0-1-1.36V47c.5-.3,1-.11,1.49-.14.54.29.54,1,.93,1.33s.45.86.77,1.2S182.06,50.14,182.05,50.55Z"/><path d="M104.08,170.56c-.15-.18-.67-.47-.89-.93,0-.16,0-.27,0-.29.33-.2.68-.39,1.17-.66h2.12c.32.45.91.68,1.09,1.29-.25.55-.78.82-1.13,1.26h-1.21Z"/><path d="M129.83,103.58c-.34-.31-.12-.69-.19-1l.43-.47v-.85c.51-.24.4-.85.73-1.22a2.81,2.81,0,0,0,.54-1.06,1.2,1.2,0,0,1,.91-1c.44,0,.52.49.8.58.28.67-.14,1.12-.39,1.59a4.4,4.4,0,0,1-.9,1.57c-.31.26-.82.17-1,.61-.15.29-.28.6-.46.88A2,2,0,0,1,129.83,103.58Z"/><path d="M194.67,79.72V81L194,82l-1.49-.66c0-.3.07-.76-.12-.95a1.4,1.4,0,0,1-.37-1.15c0-.35,0-.7,0-1l1.12-.58A5.09,5.09,0,0,1,194.67,79.72Z"/><path d="M108.63,15.6h1.29L111,16.69v.85l-1.2.63h-2l-.69-.58v-.9C107.43,16.05,108.2,16.08,108.63,15.6Z"/><path d="M193.08,109.17l.7.71v1.29l-.4.46v1.27l-1.42.73-.56-.5c-.11-.12-.19-.17-.2-.23v-1.62C191.73,110.5,192,109.55,193.08,109.17Z"/><path d="M183.18,134.39c.2.28.58.42.65.8s0,.27-.87,1.17v.34l-1.58,1.57h-.82c-.06-.06-.15-.11-.15-.16,0-.43,0-.86,0-1.37.1-.22.6-.35.35-.8l1.6-1.55Z"/><path d="M194.85,90.14l1.08,2.12v1.09c-.39.44-.4,1.23-1.07,1.55l-1.06-1.06v-1.7c-.55-.66-.57-.76-.13-1.19.25-.25.5-.51.76-.75C194.47,90.16,194.56,90.18,194.85,90.14Z"/><path d="M127.7,15.6c.43.82,1.55.84,1.93,1.5,0,.65-.4.76-.6,1.07H126.9c-.47-.41-1.27-.42-1.6-1.15,0-.57.38-.8.85-1a8.14,8.14,0,0,0,.78-.43Z"/><path d="M55.86,140.21l.9-.61h.76l.25.73,2,2.06c.12.66-.47.75-.58,1.1h-.73a1.23,1.23,0,0,1-.2,0,.75.75,0,0,1-.16-.15c-.55-.56-1.16-1.08-1.65-1.69A6.6,6.6,0,0,1,55.86,140.21Z"/><path d="M127.54,104.18l1.09-.52.87,1L128,106.18c.07,0-.07,0-.2,0s-.12.07-.21.12l-.12.57-1.22.61c-.45,0-.56-.41-.88-.61V106c.07-.27.38-.2.64-.22Z"/><path d="M134.5,19.5c-.42,0-.88.09-1.15-.41h-1.23c-.09-.06-.18-.08-.2-.13a4.92,4.92,0,0,0-.53-1.08,2,2,0,0,1,0-.8,1.38,1.38,0,0,1,.44-.17c.64,0,1.29,0,1.94,0,.4.49,1.2.43,1.51,1.09v.9Z"/><path d="M174.29,42.61v-.44l-.85-.81v-.84c.28-.36.67-.14,1.05-.22l1.95,2.16c0-.09,0,0,0,.29l.91.75-1.12,1.13Z"/><path d="M141.78,20.29l-.76.51c-.39,0-1,0-1.4,0a4.48,4.48,0,0,1-2.18-1.55c-.07-.53.4-.71.63-1,.44-.14.66.17.89.42h1.74l1.08,1.08Z"/><path d="M94.75,168.2h-.86l-.46-.43h-.86l-1.51-1.52v-.85a.77.77,0,0,1,1.1-.14c.34.29.8.23,1.07.56s.65.16,1.17.25c.2.26.49.66.85,1.12C95.13,167.42,94.94,167.82,94.75,168.2Z"/><path d="M110.78,107.94h-.88c-.45-.45-.87-1-1.37-1.36a13.32,13.32,0,0,0-1.39-.9v-1.05c.46-.33,1-.09,1.45-.16a6.53,6.53,0,0,0,2,1.53c.56.19.42,1,.84,1.33Z"/><path d="M44.52,114.51a10.12,10.12,0,0,1,.92.94,7,7,0,0,1,.49,1.15v1.58c-.5.34-1,0-1.44.2l-.67-.67v-.83l-.45-.49V115.1Z"/><path d="M46,120.51h.65l1.07,1.08c0,.48-.07,1,.45,1.31-.28.53.53.65.44,1.09s-.49.52-.6.85h-.93l-1.56-3.09.48-.63Z"/><path d="M132.67,86.52v1.27c-.49.36-1,.18-1.64.16l-.14-.65c-.66-.35-.8-1.16-1.23-1.77-.13-.18,0-.54,0-.78l.63-.63a.66.66,0,0,1,.87.43C131.42,85.4,132.14,85.86,132.67,86.52Z"/><path d="M65,148.63v.72c-.3.2-.42.6-.81.64s-1-.63-1.47-1.63l-.57-.15L61.58,147v-.73c.28-.37.67-.15,1-.21C63.37,146.93,64.17,147.75,65,148.63Z"/><path d="M191.71,68.71l-1.23,1s-.23-.12-.31-.27A24,24,0,0,1,189,67.07a2,2,0,0,0-.37-.51,2.81,2.81,0,0,0,.54-1.08l.87,0,.66.6C190.64,67,191.34,67.73,191.71,68.71Z"/><path d="M105.36,17.55l-1.51,1.52h-2.2l-.53-.63.47-1,1.18-.49h2Z"/><path d="M105.79,102.09l-.65.64a5.29,5.29,0,0,0-.72-.7c-.41-.26-.28-.76-.59-1.06s-.57-.4-.65-.81a3.46,3.46,0,0,0-.43-.86,1.27,1.27,0,0,1,.84-.9c.12,0,.29,0,.37.13a3.3,3.3,0,0,1,1.1,1.49c.08.3.48.51.73.76Z"/><path d="M179.59,180.46l-1.26,1.26a2.81,2.81,0,0,1-.64-.39c-.29-.29-.69-.51-.8-.93s.4-.57.6-.89h1.39C179.23,179.81,178.81,180.49,179.59,180.46Z"/><path d="M168.26,152.18V151l.51-.51.81.59A1.26,1.26,0,0,1,168.26,152.18Z"/><path d="M173.86,146.53V145l.65-.26.64.88,0,.32Z"/><path d="M60.49,145.66c-.2-.29-.58-.42-.65-.81s.39-.57.69-1c.2.3.39.57.63.95C61.22,145.16,60.73,145.33,60.49,145.66Z"/><path d="M184.26,132.65c0,.4.11.82-.14,1.25h-1l-.21-.61.84-.64Z"/><path d="M66.22,151.26l-.75-.59,0-.48c.35-.35.75-.19,1.14-.12C67.09,150.7,66.4,150.87,66.22,151.26Z"/><path d="M71.57,155.39l.67-.67.36.69-.41.65C71.58,156.09,71.48,155.82,71.57,155.39Z"/><path d="M102.71,96.39l1,1L103,98l-.64-.64C102.45,97.09,102.82,97,102.71,96.39Z"/><path d="M166.92,34v.52l-.65.12c-.27-.29-.27-.29-.08-1.23C166.54,33.52,166.68,33.84,166.92,34Z"/><path d="M179.7,139.16c.4,0,.72,0,.64.73l-.73.45A.88.88,0,0,1,179.7,139.16Z"/><path d="M180.94,114.52c.47,0,.19.38.55.84l.25.26-.76.13A1.14,1.14,0,0,1,180.94,114.52Z"/><path d="M130,16.94h.84l.14.7-.82.16Z"/><path d="M178,46l-.6-.59c.06-.41.37-.24.6-.28A.52.52,0,0,1,178,46Z"/><path d="M172.12,39.23a.52.52,0,0,1,.87,0A.52.52,0,0,1,172.12,39.23Z"/><path d="M131.37,164.08a.52.52,0,0,1-.87,0A.52.52,0,0,1,131.37,164.08Z"/><path d="M154.07,86.64l-.15-.16a1,1,0,0,1,.29-.13s.09.08.14.13Z"/><path d="M180.64,107l-.28-.15s.11-.15.14-.14a1,1,0,0,1,.29.14Z"/><path d="M130.07,165.38a1.11,1.11,0,0,1-.29.14s-.09-.09-.14-.14a1.08,1.08,0,0,1,.29-.13S130,165.33,130.07,165.38Z"/><path d="M106.38,103.24l.28.15s-.1.14-.14.13a1.08,1.08,0,0,1-.29-.13Z"/><path d="M138.9,88.37l-.16-.15a1.28,1.28,0,0,1,.29-.14s.1.09.15.14Z"/><path d="M177.17,103.11l-.28-.15c.05,0,.11-.15.15-.14a1.28,1.28,0,0,1,.29.14Z"/><path d="M46,120.63l-.44-.37C46,120,45.92,120.3,46,120.63Z"/><path d="M157.76,119.06l-.16.15a1.08,1.08,0,0,1-.13-.29s.08-.09.13-.14Z"/><path d="M132.36,88.82l-.38.44C131.69,88.88,132,88.91,132.36,88.82Z"/><path d="M132.12,88.92l.38-.45C132.79,88.85,132.46,88.82,132.12,88.92Z"/><path d="M81.47,26.75l.44.38C81.53,27.42,81.56,27.09,81.47,26.75Z"/><path d="M105.79,46.6a1,1,0,0,1-.29.13s-.09-.08-.14-.13a1.92,1.92,0,0,1,.29-.14S105.75,46.55,105.79,46.6Z"/><path d="M76.25,34.83l-.15.28S76,35,76,35a1.55,1.55,0,0,1,.14-.29Z"/><path d="M57.63,51.39c.42-.27.58-.93,1.22-.59.25.31.06.67.12,1a.5.5,0,0,1-.71.14A6.36,6.36,0,0,1,57.63,51.39Z"/><path d="M53.85,51.52a3.68,3.68,0,0,1-.06-.57c0-.06.17-.13.27-.16s.14.1.14.14c0,.2-.05.39-.07.58Z"/><path d="M90.47,58.15l.15.15a1.11,1.11,0,0,1-.29.14s-.09-.09-.14-.14Z"/><path d="M189.9,370.87l.81.82v4.75a9.11,9.11,0,0,1-1.19,1.79,9.82,9.82,0,0,1-1.72,1.1c-2.26-.77-2.61-2.29-3.3-4.38-.37.46-.19.95-.24,1.38-.33.66-.67,1.31-1,2l-2.06,1c-.58-.14-.7-.95-1.4-.89-.08,0-.19-.31-.28-.48l-1.1-2.08-.63.62v.87c-.5.51-1,1-1.53,1.52h-.41l-.51.48a4.35,4.35,0,0,1-1.59-.84c-.46-.51-1.16-.85-1.23-1.65-.7-.33,0-1.31-.78-1.63v-2.2l.41-.46a3.79,3.79,0,0,1,0-.82c.05-.26.35-.36.44-.68.23-.78,1-1.14,1.47-1.73h2.2l1.07,1.08c-.19.5.4.68.47,1.11s.37.56.65.95a5.47,5.47,0,0,1,2.23-3.12h1.7l.67.84h.57l.63,1.22c0,.31,0,.8.07,1.33.17-.07.33-.08.36-.15s.09-.4.17-.58.22-.19.28-.32.1-.39.17-.57a3.45,3.45,0,0,1,.28-.54,5.54,5.54,0,0,1,.33-.51c.09-.11.21-.2.3-.31s.28-.32.38-.44h2.25l1.07,1.07Zm-2.39,6.72c.53.11.74-.35,1.09-.64,0-1.7,0-3.43,0-5.16,0-.05-.07-.11-.34-.5,0,.06-.1-.25-.24-.6h-.56a2.37,2.37,0,0,1-.57,1.09v4.58ZM174.3,376.5c.21.24.49.44.45.88,0,.21.4.28.85.05-.36-.5.28-.62.4-.93v-4.62l-.65-1.26-.56.14c-.11.52.08,1.08-.49,1.39Zm8.39-2.42-.6-.63V371.3l-.63-.63-.66.62v2.18l-.4.39v1.34l.44.59V377c.41.25.65.92,1.25.34v-2.57Z"/><path d="M199.87,377.78l.41.49c-.31.63-1.1.56-1.46,1l-1.1-.57v-5.65l.58-.62h2l.83-.53.73.47H204c.24-.15.51-.64.83-.39a8.53,8.53,0,0,0,1.08.56c.39.24.46.66.61,1,0,.13.2.21.31.32v4.82a2.67,2.67,0,0,0-.7.25c-.23.15-.38.43-.8.33l-.63-.57v-4.36l-.68-.68h-.43c-.08.11-.21.22-.21.34,0,1.57,0,3.15,0,4.68l-1.34.62c-.41-.06-.54-.45-.83-.65,0-1.44,0-2.88,0-4.32,0-.05-.08-.1-.16-.2h-1a1.38,1.38,0,0,0-.15.41C199.86,375.65,199.87,376.73,199.87,377.78Z"/><path d="M146.27,378c-.22.34-.45.69-.59.92h-.75l-1.18-.68.62-.9v-.77l.44-.47c0-.72,0-1.45,0-2.17,0,0-.09-.1-.25-.26l-.38.73c-.41.22,0,.69-.42,1.07a2.6,2.6,0,0,0-.64,1.23c-.1.41,0,.86-.45,1.12.1.53-.34.74-.62,1h-1c-.07-.1-.14-.16-.14-.21,0-.72,0-1.44,0-1.89.21-.48.44-.74.41-1-.07-.49.34-.74.44-1.12s.06-.85.12-1.26c0-.12.19-.21.31-.33v-1.94l1.08-2.17h.89l.61.57v1.77l-.35.43v1.38l.2.13.33-.79h1.43l1,1.17c-.34.73-.56,1.57-.86,2.39-.07.17,0,.4.05.7l1-.52,1,1.49v3.54l-1,1.14c-.62.09-.8-.4-1.12-.64,0-1.16,0-2.31,0-3.47C146.54,378.19,146.44,378.14,146.27,378Z"/><path d="M168.66,376.85l-1.8,1.85-1.32.66c-.55-.29-.84-.91-1.52-1-.25,0-.5-.41-.6-.8a7.32,7.32,0,0,0-.81-1.56v-3.73a6,6,0,0,0,.85-1.76c.22-.67,1.07-.58,1.48-1.1h1.79c.29.29.62.66,1,1s.39.75.63,1,.21,1,.74,1.22v3l-.43.45Zm-3.91-4.24v3.46c.15.16.3.31.43.46.08.35-.15.74.18,1l.42,0,.67-.54v-5.19l-.66-1.25-.65.21v1.41Z"/><path d="M194.86,379.3l-.45-.42h-3c-.37-.29-.1-.69-.27-1.1.57-.53,1.18-1,1.7-1.63a22.28,22.28,0,0,0,1.4-1.94c0-.72,0-1.59,0-2.45,0-.05-.09-.11-.2-.24h-2.74l-.11-.63.79-.79c.21-.22-.06-.74.53-.77.3,0,.59-.3.9-.4a.9.9,0,0,1,.63,0,6.24,6.24,0,0,1,1.2.76c.39.32.72.7,1.13,1.11v2.66a8,8,0,0,0-1.12,1.53,10.32,10.32,0,0,1-1.45,1.5l.07.48c0,.06.1.15.16.15.28,0,.57,0,.86,0l.45-.42h.88c.21.28.57.44.65.79C196.56,378.58,195.54,378.75,194.86,379.3Z"/><path d="M201.6,353.65v.74c.27.4.83.56.88,1.16,0,.39.59.63.42,1.11a3.65,3.65,0,0,1-.45,1.11,4.08,4.08,0,0,1-2,1.72c-.12,0-.2.2-.32.31H198a1.39,1.39,0,0,1-.65-1.58l.86-.57.77.39h1.64c.37-.45,0-1,.3-1.59L199,354.78c0-.68.57-.83.85-1.23a3,3,0,0,0-.13-1.5l-.85-.05-.58.46-.79-1.34c-.11.22-.08.1,0,0,.4-.42.81-.82,1.26-1.27h1.76a5.5,5.5,0,0,1,1.85,2.41Z"/><path d="M189.9,317.54v-2.15l.44-.47v-1.05l.89-.88-.44-.74.67-.33a1,1,0,0,0-.25-1.32v-.86l.38-.39c0-.41,0-.89.07-1.29l1-1.12h.9c.07.06.16.11.16.16,0,.86,0,1.72,0,2.6a5.92,5.92,0,0,1-.7,1.18,4.32,4.32,0,0,1-1,.63c-.14.44.25.62.39.82.19.54-.34.65-.43,1.13l.5.82c.14.35-.32.78-.44,1.29s-.66.6-.47,1.11c-.75.55-.91,1.57-1.7,2.13v2.08c-.31.44-.73.8-.42,1.29-.19.38-.64.54-.48,1a5.37,5.37,0,0,1-1.61.58c0-.06-.12-.11-.12-.17,0-.57,0-1.15,0-1.58a4.56,4.56,0,0,0,.76-1.34c.13-.86.79-1,1.39-1.35V318Z"/><path d="M181.86,354.62l-.65.68v1.29c-.73.33-.11,1.28-.77,1.63-.05.73-.67,1-1.08,1.52-.51-.13-.65-.68-1.09-.86,0-.44.51-.65.37-1.13s.55-.75.46-1.34c0-.33.3-.72.49-1.12L179,355c-.82.28-.76,1.16-1.26,1.62v1.08c-.44.69-.69,1.52-1.54,2-.41-.25-.69-.72-1-1-.14-.65.63-.87.42-1.46s.61-.64.42-1.11.66-.78.44-1.34l-.43-.47v-.86l.63-.63h.88l.89.85c.71.09.86-.69,1.39-.87.13,0,.3,0,.39.08a5.1,5.1,0,0,1,.77.77,8.18,8.18,0,0,1,.47.88S181.59,354.62,181.86,354.62Z"/><path d="M194.65,357l-1,1H188.4l-.66-.58v-.91l1.21-.62c1.19-.06,2.54,0,3.94-.05-.08-.19-.12-.37-.16-.37-1.44,0-2.88,0-4.14,0l-.84-.66c-.09-.57.35-.69.53-1h5.78c.17.27.6.38.61,1l-.87,1C193.72,356.39,194.33,356.54,194.65,357Z"/><path d="M160,227.05l-.69.54c-.92-.15-1.51-.9-2.29-1.27a3.57,3.57,0,0,1-1.62-1.77h-.84l-.77-.78c-.56-.26-1.32.24-1.76-.46a2.83,2.83,0,0,1-1.54-.46c-.17-.1-.45-.11-.45-.33,0-.88-.78-.86-1.3-1.19l.06-.68.76.5.86-.52,1.69.89h.72c.48.5,1.09.9,1.22,1.71l1.05.05.55.83h1.52c.65,1,2.08,1,2.83,2Z"/><path d="M131.15,366.32l.53.5,1-.46h1.47l.87-.87h1.17l.73-.48,1.3.57a.74.74,0,0,1-.12.29,6.14,6.14,0,0,1-2.1,1.71h-1.36l-.42-.34c-.46-.07-1-.19-1.3.36h-.84a2.49,2.49,0,0,0-.47.44c-.31.53-1,.51-1.39.84s-.88-.1-1.32-.36-.77,0-1.16-.35c-.24-.23-.76-.18-1.22-.26.44-.4,1-.37,1.28-.83s1-.25,1.19-.76Z"/><path d="M194.61,281.94l.84.84c.19.3.05.66.08,1s0,.57,0,.83c-.5.28-.36.75-.45,1.15a3.18,3.18,0,0,1-.49.85l.48.57-.42.48c.69.32.81,1.07,1.27,1.76v2.64l-1.2.82-.87-.87c-.14-.7,0-1.49-.07-2.15l-.59-.9,1-.67v-2l-.85-.9v-.84l-.31-.32c-.09-.47.87-.69.09-1.32Z"/><path d="M43.15,306.06H44c.1.67.62,1.05,1.06,1.51v2.15c-.15.27-.58.43-.42.88l.44.47v.85l.8.8c0,.3,0,.77.14.95s.24.8.58,1.07.13.66.27,1.09l-.74.7-1.36-.59c-.16-.34-.2-.77-.58-1v-.83l-.35-.36.73-1.43-.35-.35v-1.41l-1.33-1.08v-1l-.37-.37v-1.4Z"/><path d="M114.14,368.57l-.75.78a8,8,0,0,1-1,0,.9.9,0,0,1-.55-.22c-.42-.42-1.19.08-1.48-.61h-1.7c-.3-.2-.63-.7-.89-.43-.41.43-1.12.27-1.36,1-.37-.23-.64-.42-.94-.57s-.76-.25-1.11-.45a5.23,5.23,0,0,1-.75-.61c-.09-.6.39-.78.64-1.11h2.06l1.55.88H109c.3.21.53.35.9.6l.65-1h1.54c.25.1.4.57.85.4A5.69,5.69,0,0,1,114.14,368.57Z"/><path d="M108.18,216.32c-.2-.28-.58-.42-.68-.93a2.65,2.65,0,0,1,1.26-1.21c.48-.21.9-.73,1.58-.44l.89.84h2l1.48-.86c.76.31,1.22-.73,2.33-.2l.7.95-.79,1.36h-2.81l-.78-.78h-1.29L111,216.32Z"/><path d="M181.65,354.61l.58-1.16,1-.5c.22.1.37.53.85.35a3.25,3.25,0,0,0,.27.72c.15.23.43.38.34.78l-.38.46c-.19.53.27,1.26-.45,1.71v1.73l-1.38,1.11c-.51-.12-.82-.71-1.31-1.19l.9-1.76v-2.08Z"/><path d="M153.65,374.94l-1.06-1.05.84-.66c.2-.08.79.23,1.1-.39l.47.4h3l.66-.48A3.94,3.94,0,0,1,160,374c.08.51-.34.64-.57,1Z"/><path d="M158.9,375.42c.2.49.89.32,1.06.6.08.66-.36.77-.54,1.06-.07,0-.13.07-.19.07h-5.84l-.78-.62,1.08-1.12Z"/><path d="M190.88,267.37l.73.74v.83c.89.7,1.14,1.81,1.75,2.8v1.16l-.38.38v1.31c-.36.32-.64.41-.88,0l.31-.3c0-.05.05-.13,0-.15-.39-.41-.8-.81-1.05-1.06-.24-.48-.39-.78-.61-1.2v-2.83l-.5-.65C190.47,268.07,190.63,267.78,190.88,267.37Z"/><path d="M157.9,357.65l-.67.84c-.67.12-.8-.42-1.18-.59l.67-.67h.94l.19-.63a8.07,8.07,0,0,1,3.38-2.4h1c.35-.15.47-.66,1.08-.33l.11.53c-.38.36-.76.14-1.15.24l-.27.73c-.8.67-1.43,1.84-2.71,2.28Z"/><path d="M160,227.16h1.13c.08.23.16.48.24.73.6.65.79-.46,1.43-.24.25.2.57.65,1,.78.61.18.87.67,1.29,1a12.66,12.66,0,0,1,1,1c0,.67-.42.82-.72,1.1h-.69a8.75,8.75,0,0,0-1.58-1.26,4.43,4.43,0,0,1-1.41-1.23c-.47-.55-1.36-.47-1.66-1.4Z"/><path d="M134.41,291.09l.42.46v.71l-.62,1.22h-.92l-1-1.15v-2.51l.38-.44c0-.32.06-.66.09-1h1.06l.62.59Z"/><path d="M180.36,335.73v-.66a9.38,9.38,0,0,1,.63-1.22,4.09,4.09,0,0,0,.78-1.19c.19-.63,1.12-.5,1.46-1.07s.31-1,.85-1.23c.3.38.14.74.16,1.08l-.37.38c0,.4-.05.88-.08,1.43-.69.27-.65,1.16-1.21,1.57s-.48,1.33-1.23,1.59C180.81,336.49,180.68,336,180.36,335.73Z"/><path d="M102.5,215h1.81l.27-.27,1.24.93c-.09.77-.7,1-1,1.45-.13,0-.26.07-.4.09-.47.05-.92-.07-1.39.33a.88.88,0,0,1-1.3-.3l-1.46-.08c0-.51.32-.33.59-.41Z"/><path d="M55.92,334c.09.67-.17,1.24.37,1.73.18.17.07.65.1,1-.5,0-.61-.36-.87-.53v-.84c-.35-.21-.69-.43-1-.62s-.72,0-.73-.53-.55-.62-.76-1a11.9,11.9,0,0,1-.49-1.15v-1.16c.36-.28.72-.11,1.06-.14l.89.89A5.53,5.53,0,0,0,55.92,334Z"/><path d="M81.42,357.65l.7.87H83c.46.23.76.73,1.16,1.09v.89c-.58.39-1.25,0-1.9.25L81,359.38h-.7l-.8-1.25-.88-.09-.61-.61.69-.69c.23.35.45.71.58.91Z"/><path d="M71.55,350.93v1.31l-.62.6c-.29-.1-.44-.56-.87-.39-.81-.64-1.34-1.63-2.41-2v-.87l.6-1.13c.33.09.49.09.58.17.47.44.88,1,1.39,1.35S71.24,350.43,71.55,350.93Z"/><path d="M142.2,218.7c.15-.12.2-.2.25-.2h3l.46.43h.85l1.52,1.52-.65.63h-1.71l-.46-.39h-.76a3.72,3.72,0,0,1-1.41-1.76C143,218.85,142.58,219.07,142.2,218.7Z"/><path d="M186,258.12v-1.26l-.43-.48.05-.5.54-.13c.52.3.12.82.4,1.25l.52.1,1.53,1.49v.87l.34.34c.22.29,0,.65.1,1-.33.21-.44.63-1,.64-.44-.17-.7-.73-1.17-1.08,0-.27.12-.69,0-.81C186.4,259.12,186.49,258.45,186,258.12Z"/><path d="M167.79,234.3V233c.27-.37.67-.14,1.09-.27l.56.92h.73l1.3,1.33.61,1.1-.6.6h-1.31a2.53,2.53,0,0,0-1-1.45C168.68,234.92,168.1,234.81,167.79,234.3Z"/><path d="M147.65,363.29l-.47.4h-2.67a.6.6,0,0,1,.47-.75c.57-.07.8-.56,1.21-.78a6.45,6.45,0,0,1,1.46-.66,4.7,4.7,0,0,0,1.22-.73l1.06.49c.18.29.06.64,0,.95-.28.7-1.11.57-1.54,1.05C148.31,363.41,147.89,363.29,147.65,363.29Z"/><path d="M182.37,248.46c-.19.3-.37.6-.49.78-.5.09-.64-.2-.84-.38s-.41-.39-.61-.6-.51-.43-.53-.86c0-.22-.32-.44-.53-.63a1.09,1.09,0,0,1-.34-.72c0-.23-.31-.42-.42-.54,0-.65.58-.7.66-1,.59,0,.74.33,1,.55s.51.5.77.75.19.79.59,1.05a1,1,0,0,1,.51.87C182.14,248,182.73,248.15,182.37,248.46Z"/><path d="M120.15,368.71l-1.28,1h-2.08l-.93-1.12c.43-.35.36-1.14,1-1.44h1.71C118.94,367.76,120,367.54,120.15,368.71Z"/><path d="M192.49,278.94v-.85l-.32-.32a3.14,3.14,0,0,1-.08-1.43l.62-.62h.85a3,3,0,0,1,1.08,1.92v1.86l-.65.59C193.23,280,193,279.33,192.49,278.94Z"/><path d="M153.71,358.51c.47.17.61-.29.87-.41h.88c.2.32.63.42.62.85,0,.07,0,.17,0,.21l-1.36,1.37-.92.39a6.06,6.06,0,0,1-1.85.22c-.25.24-.46.57-1,.34l-.17-.62.87-.27Z"/><path d="M64.18,344.86c1,.49,1,.49,1.77,2.13l-.48.25c-.18.1-.36.18-.65.32a4.07,4.07,0,0,1-.71-.32,8.63,8.63,0,0,1-.81-.62v-.46l-1.25-1.26v-1.39c.35-.32.73-.06,1-.18l1.11,1.1Z"/><path d="M130.51,298.5c.29-.32.76-.61.82-1,.08-.51.44-.71.7-1s.57-.59.85-.86l.66.63v.77c-.65,1.05-.94,2.26-1.92,2.86l-.64.19c0,.39-.06.73-.1,1.11l-.6,0c-.36-.32-.13-.71-.21-1l.44-.46Z"/><path d="M193.54,305.15l-.59-.59V302c.53-.61.66-1.6,1.69-2l.05,1.06.4.45v2.64c-.27.19-.54.4-.83.59S193.79,305,193.54,305.15Z"/><path d="M135,217.62h-1.13l-.5-.4h-.81a3.29,3.29,0,0,1-.59-.59,8.21,8.21,0,0,1-.47-1l.46-.45c.38-.23.81-.09,1.22-.11s.71,0,1.06,0c.41.51,1.2.44,1.51,1.09V217Z"/><path d="M164.82,353.8c-.52-.22-.83-.47-.93-.91.05-.13.06-.28.15-.37.85-.87,1.71-1.72,2.62-2.63h1.4c.34.3,0,.69.22,1-.65.48-1,1.26-1.77,1.52S165.52,353.41,164.82,353.8Z"/><path d="M78.08,356a4,4,0,0,1-.34.44c-.28.31-.59.6-.94.95-.61-.54-1.06-1.19-1.67-1.41s-.89-.87-1.4-1.09v-.94c.46-.38,1-.12,1.47-.2l.92.88c.5-.18.67.41,1.12.46S78,355.47,78.08,356Z"/><path d="M122,307.77H120.3l-.63-.62v-.88l.64-.62h.8l.51-.44h1.26a2.22,2.22,0,0,0,1,.55A3.52,3.52,0,0,1,122,307.77Z"/><path d="M127.25,213.71l.42.43c.75-.25,1.19.55,1.85.49a4.65,4.65,0,0,0,.18.66c.05.12.19.2.29.3-.2.75-1.05.66-1.47,1.13l-.37-.37h-1.73l-.68-.67v-.85C126,214.19,126.81,214.26,127.25,213.71Z"/><path d="M59.57,339l.66,1.27v1.28l-.41.1-3.46-3.47c-.07-.42.45-.54.75-.91l1.34.62Z"/><path d="M176.8,342.48h-1l-.42-.86a5.93,5.93,0,0,1,.44-.83,7.73,7.73,0,0,1,.9-.91c0-.06.14-.1.14-.16.1-1.16,1.22-1.09,2-1.77l.45.95c-.29.12-.1.78-.52,1.1a7.69,7.69,0,0,0-1.21,1.21A9.91,9.91,0,0,0,176.8,342.48Z"/><path d="M171,348.54c-.6,0-.65-.47-1-.56v-1.1c.2-.18.52-.46.86-.73s.51-.62,1-.69c.34,0,.63-.53.92-.8h.87a1.63,1.63,0,0,1,.19.37c.16.68-.44,1.11-.57,1.71l-.64.16-.13.64C171.75,347.47,171.49,348.33,171,348.54Z"/><path d="M127.79,304.65l-1.28.55h-1l-.31.84-.58,0c-.44-.7.26-.87.5-1.24h.47a3,3,0,0,1,.27-.72,3.51,3.51,0,0,1,.6-.62,4,4,0,0,1,.67-.43,14.31,14.31,0,0,1,2.17-1.32c.56.25.32.66.38,1,0,.07,0,.16,0,.2Z"/><path d="M87.78,360.67l.48.46h.42l1.07,1.07v.86c-.4.47-.93.14-1.21.19l-1.85-.61a3.23,3.23,0,0,1-1-1.52c-.33-.08-.71.14-1-.14a.68.68,0,0,1,0-.15A16.64,16.64,0,0,1,87.78,360.67Z"/><path d="M121.84,368.7v-.87l.69-.66h1.7l.38-.37,1.51.89c-.33.92-1.21,1.08-1.94,1.62h-1.74Z"/><path d="M113.6,306.67v-.8l1.37-.72.61.44,1.26.06.66.61v.89l-.63.63h-1.71C114.77,307.31,114,307.35,113.6,306.67Z"/><path d="M122.92,215.88h-2.66a2.94,2.94,0,0,0-.26-.72c-.16-.23-.4-.4-.31-.79l.57-.6H123c.28.28.57.6.89.88.47.42-.13.37-.23.51A6.64,6.64,0,0,1,122.92,215.88Z"/><path d="M184.26,254.74v-.49L183,253v-1.84a.53.53,0,0,1,.74,0,3.16,3.16,0,0,1,1.81,2l.43.83v.78A2.05,2.05,0,0,1,184.26,254.74Z"/><path d="M194.47,294.77c1.07.13.93,1.11,1.48,1.52l-.41.46v1.31l-.69.6H194l-.52-.47c-.06-.09-.13-.15-.13-.21,0-.71,0-1.42,0-2.11Z"/><path d="M177.32,241.19v.94c-.44.42-1,.12-1.46.21a2.24,2.24,0,0,1-.45-.42c-.18-.27-.27-.61-.47-.87a3.23,3.23,0,0,0-.76-.76c-.44-.3-.23-1-.6-1.14.15-.25.32-.56.45-.77.32.09.49.08.57.16C175.53,239.43,176.45,240.34,177.32,241.19Z"/><path d="M52.13,328.32c-.36.28-.53.62-.91.75-1.29-.54-1.52-1.88-2.22-2.94v-.78l.62-.61c.3.12.45.57.9.39a2.61,2.61,0,0,0,1.07,1.47v.8Z"/><path d="M107.53,302.16h1.12c.27.28.59.58.86.9s.64.29.86.48a1.83,1.83,0,0,0,.8.34l.65,1.14-.6.6h-.86c-.29-.27-.57-.78-.9-.81-.53-.06-.72-.41-1-.67s-.6-.6-.9-.9Z"/><path d="M184.29,329.81v-1.37c.43-.41.45-1.13,1-1.51s.21-1.17,1-1.27c.24.27.58.63,1,1,.14.35-.29.52-.4.82a1.76,1.76,0,0,1-.33.74c-.24.23-.59.4-.58.84s-.38.28-.62.38S184.9,330.05,184.29,329.81Z"/><path d="M143.94,364.8c-.31.49-.89.6-1.31.92s-1.21-.16-1.45.5l-1.16-1a1.1,1.1,0,0,1,.94-1.1,2.92,2.92,0,0,0,.71-.44h1.19l.44-.37.64.59Z"/><path d="M49,321v1.39l-.68.5-1.48-1.48v-.83l-.43-.45v-.86c.28-.2.42-.58.83-.65C48.4,318.94,48.19,320.31,49,321Z"/><path d="M100.37,365l.46.44h.44l.71,1.44-1.15.6c-.27-.11-.72-.16-.94-.41-.35-.41-.75-.31-1.25-.34l-.92-1.2.47-.53Z"/><path d="M95.38,364.38v1.38a4.93,4.93,0,0,0-.58.13c-.5.16-.72-.34-1.11-.45a6.77,6.77,0,0,1-1.26-.57,2.42,2.42,0,0,1-.48-.48v-.88l.55-.6C93.37,363.47,94.56,363.36,95.38,364.38Z"/><path d="M190.76,267.69l-1.29-1.29v-.85l-.44-.47v-1.29l.62-.62a2.87,2.87,0,0,0,1.08.57v1.39l.89.52v1.18C191.52,267.25,190.71,266.81,190.76,267.69Z"/><path d="M139.4,216.76h.85c.42.57,1.58.39,1.54,1.47a8.78,8.78,0,0,1-1,.6.94.94,0,0,1-1.15-.13c-.3-.33-.66-.15-1.2-.29l-.53-.79V217l1.11-.57Z"/><path d="M106.23,299.77l-.61.62-1-.57-1.36-2.69.55-.58.88,0c.15.15.44.31.52.54.27.74.75,1.39,1,2.14A1.89,1.89,0,0,1,106.23,299.77Z"/><path d="M172.2,378l-1.45.87h-1c-.43-.44-.12-1-.22-1.52l.72-.66C171,376.79,171.19,377.53,172.2,378Z"/><path d="M62.16,342.63l-.74.69c-.67.1-.83-.39-1.15-.64-.05-.62.37-.87.83-1.07C61.59,341.65,61.79,342,62.16,342.63Z"/><path d="M168.16,348.9l.74-.79c.39,0,.6.05.64.45,0,.24.24.45.38.68-.21.2-.41.4-.61.61C168.7,349.9,168.44,349.49,168.16,348.9Z"/><path d="M179.12,243.79l-.67.67-.67-.39-.44-.23c-.08-.64.42-.77.69-1.07C178.67,242.71,178.89,243.14,179.12,243.79Z"/><path d="M94.51,231.73l.66-.66h.9l.52.63s-.06.21-.12.22c-.56,0-1.12,0-1.68,0C94.73,231.92,94.68,231.85,94.51,231.73Z"/><path d="M107.53,302.16H106.4l-.26-.66.71-.66.68.67Z"/><path d="M65.88,348.36l.66-.66.51,0c.29.34.1.7.16,1a.49.49,0,0,1-.71.14A4.53,4.53,0,0,1,65.88,348.36Z"/><path d="M52.39,329.17l.46.46c0,.64,0,.64-.61.71l-.67-.73Z"/><path d="M125.23,214.59l.09.66-.81.49-.55-.54a7.89,7.89,0,0,1,.72-.6C124.78,214.53,125,214.59,125.23,214.59Z"/><path d="M179.49,337.53V337l.62-.55c.3.05.43.38.54.46l-.56.83Z"/><path d="M50.8,256.36l0-.91.47-.11.66.81C51.68,256.39,51.3,256.08,50.8,256.36Z"/><path d="M174.38,343.77c-.07-.54-.26-.95,0-1.19l.75.54C175.22,343.76,174.9,343.81,174.38,343.77Z"/><path d="M124.87,238.9h.7a1.14,1.14,0,0,1,0,1.19c-.35-.06-.49-.39-.73-.59Z"/><path d="M183,250.53h-.84c0-.22-.08-.41-.13-.7l.81-.15C182.92,250,183,250.15,183,250.53Z"/><path d="M116.63,264c.07-.43.37-.64.81-.88l0,.82Z"/><path d="M112.86,280.24c-.6.31-1,.33-1.36.09C111.84,280,111.84,280,112.86,280.24Z"/><path d="M129,280c.28.35.3.59.06.84C128.58,280.69,128.71,280.41,129,280Z"/><path d="M72.47,353a2.93,2.93,0,0,1,.58-.06c.06,0,.12.17.15.27s-.09.14-.14.14-.38-.05-.57-.07Z"/><path d="M167.39,232.15c-.36.28-.6.29-.85.06C166.72,231.74,167,231.86,167.39,232.15Z"/><path d="M116.75,264l-.37.44C116.08,264,116.42,264.06,116.75,264Z"/><path d="M72.26,274.78l-.28-.15c0-.05.11-.14.14-.14a1.55,1.55,0,0,1,.29.14Z"/><path d="M76.36,226.41l-.44-.37C76.3,225.74,76.27,226.08,76.36,226.41Z"/><path d="M106.6,215.73l-.15.16a1.28,1.28,0,0,1-.14-.29s.09-.1.14-.15Z"/><path d="M189,262.43l-.16.28s-.14-.11-.13-.14a1.28,1.28,0,0,1,.13-.29Z"/><path d="M120.91,368.21l-.16.28c0-.05-.14-.11-.13-.14a1.14,1.14,0,0,1,.13-.3Z"/><path d="M130.57,215.18l.15-.16a1.28,1.28,0,0,1,.14.29s-.09.1-.14.14Z"/><path d="M54.14,257.35l-.15.16a1.92,1.92,0,0,1-.14-.29s.09-.1.14-.15Z"/><path d="M107.38,263.15c-.23,0-.29-.23-.29-.73l1.06-.61s.3,0,.22.77Z"/><path d="M96.26,253v.53l-.76.16c-.06-.28-.1-.48-.13-.65A.52.52,0,0,1,96.26,253Z"/><path d="M83.84,244.56l.28.16c-.05.05-.11.14-.14.13a1,1,0,0,1-.29-.13Z"/><path d="M99.29,253.82A1.55,1.55,0,0,1,99,254s-.09-.09-.14-.14a1.23,1.23,0,0,1,.29-.13S99.24,253.77,99.29,253.82Z"/><path d="M100.22,255.06l.16-.15a1.28,1.28,0,0,1,.13.29s-.09.09-.13.14Z"/><path d="M94.09,259.89l-.59.59c-.28-.37-.29-.37-.11-1.29Z"/><path d="M55,249.62a2.78,2.78,0,0,1-.57.07c-.06,0-.13-.17-.16-.28s.09-.13.14-.13a3.68,3.68,0,0,1,.58.07Z"/><path d="M94.52,260.76a1.08,1.08,0,0,1-.29.13s-.09-.08-.14-.13a1.28,1.28,0,0,1,.29-.14S94.48,260.71,94.52,260.76Z"/><path d="M105.64,270l-.28-.16c0-.05.11-.14.14-.13a1,1,0,0,1,.29.13Z"/><path d="M73.56,252.67l-.28-.15c0-.05.11-.14.14-.13a1,1,0,0,1,.29.13Z"/><path d="M41.68,281.47l-.44-.38C41.62,280.8,41.59,281.13,41.68,281.47Z"/><path d="M67.15,266.53a2.78,2.78,0,0,1-.57.07c-.06,0-.13-.18-.16-.28s.09-.14.14-.14.39.05.58.07Z"/></g></g></svg>