<svg xmlns="http://www.w3.org/2000/svg" viewBox="0 0 126.8 127.74"><title>Recurso 85MANDALA</title><g id="Capa_2" data-name="Capa 2"><g id="Capa_1-2" data-name="Capa 1"><path d="M66.54,45.77l7.21,3.75a11.39,11.39,0,0,0,13.11-1.83l17.48-16.57a11.39,11.39,0,0,1,12.93-1.68l-7.21-3.75A11.39,11.39,0,0,0,97,27.52L79.47,44.09A11.39,11.39,0,0,1,66.54,45.77Z"/><path d="M60.16,45.79l8.06,1.06a11.42,11.42,0,0,0,11.7-6.21L90.67,19.09a11.41,11.41,0,0,1,11.58-6L94.19,12a11.4,11.4,0,0,0-11.7,6.21L71.74,39.79A11.41,11.41,0,0,1,60.16,45.79Z"/><path d="M54.17,48l7.94-1.75A11.41,11.41,0,0,0,71,36.39l2.73-23.92a11.39,11.39,0,0,1,8.83-9.6L74.6,4.62a11.42,11.42,0,0,0-8.87,9.84L63,38.39A11.39,11.39,0,0,1,54.17,48Z"/><path d="M49.29,52.1l6.86-4.37a11.41,11.41,0,0,0,5-12.27L55.5,12a11.4,11.4,0,0,1,5-12L53.66,4.37a11.41,11.41,0,0,0-5,12.27l5.62,23.42A11.4,11.4,0,0,1,49.29,52.1Z"/><path d="M46.12,57.63l5-6.45A11.41,11.41,0,0,0,51.54,38L38.25,17.87a11.42,11.42,0,0,1,.6-13l-5,6.44a11.43,11.43,0,0,0-.47,13.24L46.71,44.6A11.4,11.4,0,0,1,46.12,57.63Z"/><path d="M45,63.92l2.44-7.75a11.4,11.4,0,0,0-4.08-12.6L24,29.24a11.41,11.41,0,0,1-3.9-12.45l-2.45,7.75a11.43,11.43,0,0,0,4.08,12.6L41.13,51.47A11.41,11.41,0,0,1,45,63.92Z"/><path d="M46.15,70.2l-.35-8.12a11.4,11.4,0,0,0-8.14-10.44L14.57,44.79A11.37,11.37,0,0,1,6.65,34.43L7,42.55A11.41,11.41,0,0,0,15.14,53l23.09,6.84A11.42,11.42,0,0,1,46.15,70.2Z"/><path d="M49.36,75.72,46.25,68.2a11.42,11.42,0,0,0-11.23-7L11,62.64a11.4,11.4,0,0,1-11-7l3.11,7.51a11.41,11.41,0,0,0,11.22,7l24-1.46A11.39,11.39,0,0,1,49.36,75.72Z"/><path d="M54.26,79.8l-5.49-6a11.42,11.42,0,0,0-13-2.77l-22.09,9.6A11.39,11.39,0,0,1,1,77.79l5.49,6a11.4,11.4,0,0,0,13,2.76L41.53,77A11.44,11.44,0,0,1,54.26,79.8Z"/><path d="M60.26,82l-7.21-3.76a11.42,11.42,0,0,0-13.12,1.84L22.46,96.62A11.41,11.41,0,0,1,9.52,98.3l7.21,3.75a11.42,11.42,0,0,0,13.12-1.83L47.32,83.65A11.41,11.41,0,0,1,60.26,82Z"/><path d="M66.64,82l-8.06-1.06a11.4,11.4,0,0,0-11.7,6.21L36.13,108.65a11.41,11.41,0,0,1-11.58,6l8.06,1.06a11.42,11.42,0,0,0,11.7-6.21L55.06,88A11.41,11.41,0,0,1,66.64,82Z"/><path d="M72.63,79.75l-7.94,1.76a11.41,11.41,0,0,0-8.87,9.83l-2.73,23.93a11.39,11.39,0,0,1-8.83,9.6l7.94-1.76a11.39,11.39,0,0,0,8.86-9.83L63.8,89.35A11.41,11.41,0,0,1,72.63,79.75Z"/><path d="M77.5,75.64,70.65,80a11.39,11.39,0,0,0-5,12.27l5.61,23.42a11.41,11.41,0,0,1-5,12l6.85-4.37a11.42,11.42,0,0,0,5-12.27L72.49,87.68A11.41,11.41,0,0,1,77.5,75.64Z"/><path d="M80.68,70.11l-5,6.44a11.41,11.41,0,0,0-.48,13.24l13.29,20.08a11.4,11.4,0,0,1-.59,13l5-6.45a11.41,11.41,0,0,0,.47-13.23L80.08,83.14A11.4,11.4,0,0,1,80.68,70.11Z"/><path d="M81.77,63.82l-2.45,7.75a11.43,11.43,0,0,0,4.08,12.6L102.76,98.5a11.41,11.41,0,0,1,3.9,12.45l2.44-7.76A11.39,11.39,0,0,0,105,90.6L85.67,76.27A11.41,11.41,0,0,1,81.77,63.82Z"/><path d="M80.65,57.54,81,65.66A11.41,11.41,0,0,0,89.14,76.1L112.23,83a11.4,11.4,0,0,1,7.92,10.36l-.35-8.12a11.41,11.41,0,0,0-8.15-10.44L88.56,67.9A11.38,11.38,0,0,1,80.65,57.54Z"/><path d="M77.44,52l3.11,7.51a11.41,11.41,0,0,0,11.22,7l24-1.47a11.41,11.41,0,0,1,11,7l-3.11-7.52a11.42,11.42,0,0,0-11.23-7l-24,1.46A11.4,11.4,0,0,1,77.44,52Z"/><path d="M72.54,47.93l5.49,6a11.4,11.4,0,0,0,13,2.76l22.09-9.6a11.43,11.43,0,0,1,12.73,2.85l-5.49-6a11.42,11.42,0,0,0-13-2.77l-22.09,9.6A11.39,11.39,0,0,1,72.54,47.93Z"/></g></g></svg>