<svg xmlns="http://www.w3.org/2000/svg" viewBox="0 0 107.83 107.83"><title>Recurso 67MANDALA</title><g id="Capa_2" data-name="Capa 2"><g id="Capa_1-2" data-name="Capa 1"><rect x="35.38" y="46.31" width="8.48" height="4.56" transform="translate(-18.99 26.32) rotate(-30)"/><rect x="40.45" y="38.12" width="8.48" height="4.56" transform="translate(-14.21 27.76) rotate(-30)"/><rect x="45.52" y="29.92" width="8.48" height="4.56" transform="translate(-9.44 29.19) rotate(-30)"/><rect x="52.86" y="25.68" width="8.48" height="4.56" transform="translate(-6.33 32.3) rotate(-30)"/><rect x="60.21" y="21.44" width="8.48" height="4.56" transform="translate(-3.23 35.4) rotate(-30)"/><rect x="69.84" y="21.15" width="8.48" height="4.56" transform="translate(-1.79 40.18) rotate(-30)"/><rect x="79.47" y="20.86" width="8.48" height="4.56" transform="translate(-0.35 44.95) rotate(-30)"/><rect x="89.1" y="20.56" width="8.48" height="4.56" transform="translate(1.08 49.73) rotate(-30)"/><rect x="34.63" y="54.17" width="8.48" height="4.56" transform="translate(-29.45 61.89) rotate(-60)"/><rect x="34.92" y="44.54" width="8.48" height="4.56" transform="translate(-20.97 57.33) rotate(-60)"/><rect x="35.22" y="34.91" width="8.48" height="4.56" transform="matrix(0.5, -0.87, 0.87, 0.5, -12.48, 52.77)"/><rect x="39.46" y="27.57" width="8.48" height="4.56" transform="translate(-4 52.77) rotate(-60)"/><rect x="43.7" y="20.22" width="8.48" height="4.56" transform="translate(4.49 52.77) rotate(-60)"/><rect x="51.89" y="15.15" width="8.48" height="4.56" transform="translate(12.97 57.33) rotate(-60)"/><rect x="60.09" y="10.08" width="8.48" height="4.56" transform="translate(21.46 61.89) rotate(-60)"/><rect x="68.28" y="5.02" width="8.48" height="4.56" transform="translate(29.94 66.45) rotate(-60)"/><rect x="37.91" y="61.35" width="8.48" height="4.56" transform="translate(-21.47 105.79) rotate(-90)"/><rect x="33.35" y="52.87" width="8.48" height="4.56" transform="translate(-17.55 92.74) rotate(-90)"/><rect x="28.79" y="44.38" width="8.48" height="4.56" transform="translate(-13.63 79.7) rotate(-90)"/><rect x="28.79" y="35.9" width="8.48" height="4.56" transform="translate(-5.14 71.21) rotate(-90)"/><rect x="28.79" y="27.41" width="8.48" height="4.56" transform="translate(3.34 62.73) rotate(-90)"/><rect x="33.35" y="18.93" width="8.48" height="4.56" transform="translate(16.38 58.81) rotate(-90)"/><rect x="37.91" y="10.45" width="8.48" height="4.56" transform="translate(29.43 54.88) rotate(-90)"/><rect x="42.48" y="1.96" width="8.48" height="4.56" transform="translate(42.48 50.96) rotate(-90)"/><rect x="44.35" y="65.93" width="8.48" height="4.56" transform="translate(13.81 144.39) rotate(-120)"/><rect x="36.16" y="60.86" width="8.48" height="4.56" transform="translate(5.91 129.7) rotate(-120)"/><rect x="27.96" y="55.8" width="8.48" height="4.56" transform="translate(-1.99 115) rotate(-120)"/><rect x="23.72" y="48.45" width="8.48" height="4.56" transform="translate(-1.99 100.31) rotate(-120)"/><rect x="19.48" y="41.1" width="8.48" height="4.56" transform="translate(-1.99 85.61) rotate(-120)"/><rect x="19.19" y="31.47" width="8.48" height="4.56" transform="translate(5.91 70.92) rotate(-120)"/><rect x="18.9" y="21.84" width="8.48" height="4.56" transform="translate(13.81 56.22) rotate(-120)"/><rect x="18.6" y="12.22" width="8.48" height="4.56" transform="translate(21.71 41.53) rotate(-120)"/><rect x="52.21" y="66.68" width="8.48" height="4.56" transform="translate(70.86 156.9) rotate(-150)"/><rect x="42.58" y="66.39" width="8.48" height="4.56" transform="translate(53.04 151.54) rotate(-150)"/><rect x="32.95" y="66.09" width="8.48" height="4.56" transform="translate(35.22 146.19) rotate(-150)"/><rect x="25.6" y="61.85" width="8.48" height="4.56" transform="translate(23.63 134.6) rotate(-150)"/><rect x="18.26" y="57.61" width="8.48" height="4.56" transform="translate(12.04 123.01) rotate(-150)"/><rect x="13.19" y="49.42" width="8.48" height="4.56" transform="translate(6.68 105.19) rotate(-150)"/><rect x="8.12" y="41.23" width="8.48" height="4.56" transform="translate(1.32 87.37) rotate(-150)"/><rect x="3.06" y="33.03" width="8.48" height="4.56" transform="translate(-4.04 69.54) rotate(-150)"/><rect x="59.39" y="63.4" width="8.48" height="4.56" transform="translate(127.26 131.35) rotate(-180)"/><rect x="50.91" y="67.96" width="8.48" height="4.56" transform="translate(110.29 140.48) rotate(-180)"/><rect x="42.42" y="72.52" width="8.48" height="4.56" transform="translate(93.33 149.6) rotate(-180)"/><rect x="33.94" y="72.52" width="8.48" height="4.56" transform="translate(76.36 149.6) rotate(-180)"/><rect x="25.45" y="72.52" width="8.48" height="4.56" transform="translate(59.39 149.6) rotate(-180)"/><rect x="16.97" y="67.96" width="8.48" height="4.56" transform="translate(42.42 140.48) rotate(-180)"/><rect x="8.48" y="63.4" width="8.48" height="4.56" transform="translate(25.45 131.35) rotate(-180)"/><rect y="58.83" width="8.48" height="4.56" transform="translate(8.48 122.23) rotate(-180)"/><rect x="63.97" y="56.96" width="8.48" height="4.56" transform="translate(156.9 76.45) rotate(150)"/><rect x="58.9" y="65.16" width="8.48" height="4.56" transform="translate(151.54 94.27) rotate(150)"/><rect x="53.83" y="73.35" width="8.48" height="4.56" transform="translate(146.19 112.09) rotate(150)"/><rect x="46.49" y="77.59" width="8.48" height="4.56" transform="translate(134.6 123.68) rotate(150)"/><rect x="39.14" y="81.83" width="8.48" height="4.56" transform="translate(123.01 135.27) rotate(150)"/><rect x="29.51" y="82.12" width="8.48" height="4.56" transform="translate(105.19 140.62) rotate(150)"/><rect x="19.88" y="82.42" width="8.48" height="4.56" transform="translate(87.37 145.98) rotate(150)"/><rect x="10.25" y="82.71" width="8.48" height="4.56" transform="translate(69.54 151.34) rotate(150)"/><rect x="64.72" y="49.1" width="8.48" height="4.56" transform="translate(147.94 17.36) rotate(120)"/><rect x="64.42" y="58.73" width="8.48" height="4.56" transform="translate(155.84 32.05) rotate(120)"/><rect x="64.13" y="68.36" width="8.48" height="4.56" transform="translate(163.74 46.75) rotate(120)"/><rect x="59.89" y="75.71" width="8.48" height="4.56" transform="matrix(-0.5, 0.87, -0.87, -0.5, 163.74, 61.44)"/><rect x="55.65" y="83.05" width="8.48" height="4.56" transform="translate(163.74 76.14) rotate(120)"/><rect x="47.46" y="88.12" width="8.48" height="4.56" transform="matrix(-0.5, 0.87, -0.87, -0.5, 155.84, 90.83)"/><rect x="39.26" y="93.19" width="8.48" height="4.56" transform="matrix(-0.5, 0.87, -0.87, -0.5, 147.94, 105.53)"/><rect x="31.07" y="98.25" width="8.48" height="4.56" transform="matrix(-0.5, 0.87, -0.87, -0.5, 140.04, 120.22)"/><rect x="61.43" y="41.92" width="8.48" height="4.56" transform="translate(109.88 -21.47) rotate(90)"/><rect x="66" y="50.41" width="8.48" height="4.56" transform="translate(122.92 -17.55) rotate(90)"/><rect x="70.56" y="58.89" width="8.48" height="4.56" transform="translate(135.97 -13.63) rotate(90)"/><rect x="70.56" y="67.37" width="8.48" height="4.56" transform="translate(144.45 -5.14) rotate(90)"/><rect x="70.56" y="75.86" width="8.48" height="4.56" transform="translate(152.94 3.34) rotate(90)"/><rect x="66" y="84.34" width="8.48" height="4.56" transform="translate(156.86 16.38) rotate(90)"/><rect x="61.43" y="92.83" width="8.48" height="4.56" transform="translate(160.78 29.43) rotate(90)"/><rect x="56.87" y="101.31" width="8.48" height="4.56" transform="translate(164.71 42.48) rotate(90)"/><rect x="55" y="37.34" width="8.48" height="4.56" transform="translate(63.94 -31.49) rotate(60)"/><rect x="63.19" y="42.41" width="8.48" height="4.56" transform="translate(72.42 -36.06) rotate(60)"/><rect x="71.39" y="47.48" width="8.48" height="4.56" transform="translate(80.91 -40.62) rotate(60)"/><rect x="75.63" y="54.82" width="8.48" height="4.56" transform="translate(89.39 -40.62) rotate(60)"/><rect x="79.87" y="62.17" width="8.48" height="4.56" transform="translate(97.87 -40.62) rotate(60)"/><rect x="80.16" y="71.8" width="8.48" height="4.56" transform="translate(106.36 -36.06) rotate(60)"/><rect x="80.45" y="81.43" width="8.48" height="4.56" transform="translate(114.84 -31.49) rotate(60)"/><rect x="80.75" y="91.06" width="8.48" height="4.56" transform="translate(123.33 -26.93) rotate(60)"/><rect x="47.14" y="36.59" width="8.48" height="4.56" transform="translate(26.32 -20.48) rotate(30)"/><rect x="56.77" y="36.89" width="8.48" height="4.56" transform="translate(27.76 -25.26) rotate(30)"/><rect x="66.4" y="37.18" width="8.48" height="4.56" transform="matrix(0.87, 0.5, -0.5, 0.87, 29.19, -30.03)"/><rect x="73.75" y="41.42" width="8.48" height="4.56" transform="translate(32.3 -33.14) rotate(30)"/><rect x="81.09" y="45.66" width="8.48" height="4.56" transform="translate(35.4 -36.24) rotate(30)"/><rect x="86.16" y="53.85" width="8.48" height="4.56" transform="matrix(0.87, 0.5, -0.5, 0.87, 40.18, -37.68)"/><rect x="91.23" y="62.05" width="8.48" height="4.56" transform="translate(44.95 -39.12) rotate(30)"/><rect x="96.29" y="70.24" width="8.48" height="4.56" transform="translate(49.73 -40.55) rotate(30)"/><rect x="39.96" y="39.88" width="8.48" height="4.56"/><rect x="48.44" y="35.31" width="8.48" height="4.56"/><rect x="56.93" y="30.75" width="8.48" height="4.56"/><rect x="65.41" y="30.75" width="8.48" height="4.56"/><rect x="73.9" y="30.75" width="8.48" height="4.56"/><rect x="82.38" y="35.31" width="8.48" height="4.56"/><rect x="90.87" y="39.88" width="8.48" height="4.56"/><rect x="99.35" y="44.44" width="8.48" height="4.56"/></g></g></svg>