<svg xmlns="http://www.w3.org/2000/svg" viewBox="0 0 19.29 55.29"><title>Recurso 45ART</title><g id="Capa_2" data-name="Capa 2"><g id="Capa_1-2" data-name="Capa 1"><path d="M16.52,8.05l.22-.11a.75.75,0,0,0-.08.24,1.53,1.53,0,0,0,.12.65l.1-.29s.05.07.06.1c.12.66.23,1.33.35,2,.06.36.14.71.19,1.07s.13,1,.19,1.49c.08.72.17,1.44.25,2.16a2.7,2.7,0,0,1,0,.49.59.59,0,0,0,.34.67.54.54,0,0,1,.21.4c0,1.35,0,2.71,0,4.06,0,2.14.05,4.27.07,6.41,0,3.89,0,7.78.05,11.68,0,1.3,0,2.61,0,3.92,0,.84,0,1.68,0,2.52a4.65,4.65,0,0,1-.5,2.53A3.2,3.2,0,0,0,18,49.16a.48.48,0,0,0,.2.4,1.54,1.54,0,0,1,1.08,1.58,2.17,2.17,0,0,1-.86,2.08,9,9,0,0,1-4.28,1.71,35,35,0,0,1-6,.35,18,18,0,0,1-4.39-.52A6.6,6.6,0,0,1,.32,52.55a1.5,1.5,0,0,1-.19-.32,2,2,0,0,1,1-2.53.61.61,0,0,0,.23-.42,2.73,2.73,0,0,0-.44-1.64,3.56,3.56,0,0,1-.39-2.1c0-.33,0-.67,0-1,0-1.95,0-3.9,0-5.84,0-1.15,0-2.31,0-3.46S.62,33,.62,31.83c0-2-.06-4.06-.07-6.1,0-2.56,0-5.12-.06-7.68a2.8,2.8,0,0,0,0-.71.68.68,0,0,1,.34-.8.33.33,0,0,0,.15-.25c.08-1.06.09-2.12.22-3.18a32.79,32.79,0,0,1,1.61-7.7A8.94,8.94,0,0,1,5.13,1.74a6.07,6.07,0,0,1,7.17-1A7.11,7.11,0,0,1,15,3.59c.29.55.58,1.08.86,1.63a1.51,1.51,0,0,1,.23,1.06s.08.12.13.17a1.18,1.18,0,0,1,.29,1A3.74,3.74,0,0,0,16.52,8.05ZM10,1.76c-.05,0-.13.06-.14.09,0,.2,0,.41,0,.54s.23.18.35.19a1,1,0,0,0,.4-.11s0,0,0,0c.11.38.34,0,.44.09A1.29,1.29,0,0,1,11,2.11c0-.08.21-.12.33-.19-.27,0-.55-.2-.67.13-.16,0-.28-.08-.4-.13A2.2,2.2,0,0,1,10,1.75h1c-.11-.14-.1-.44-.36-.22a.34.34,0,0,1-.13,0,.53.53,0,0,0,0-.12,1.34,1.34,0,0,0,0-.2c-.07,0-.15.06-.19.12a1.08,1.08,0,0,0-.05.33c-.26-.5-.37-.06-.52,0Zm-4.07.63c-.22.38-.45.73-.63,1.1a22.74,22.74,0,0,0-.93,2.08c-.1.26-.27.58,0,.88,0,0,0,.12,0,.18l-.21-.08a1.63,1.63,0,0,1,.07.3s0,.09,0,.14-.26.39,0,.58c0,0,0,.08,0,.12S4,8,4,8.09s0,.13,0,.15a1.11,1.11,0,0,0-.22,1,6.33,6.33,0,0,1-.1.91c0,.3.07.6.1.87s-.14.3-.11.4.2.46.33.48.37-.16.58-.27l.16.11a2.43,2.43,0,0,0,0-.27c0-.08,0-.16,0-.26.4.35.4.35,1.07.1a.34.34,0,0,1,.14,0c.44.09.44.09.43-.34a1,1,0,0,1,0-.38c.08-.27,0-.3-.31-.2l.36-.86.09,0-.11.46c.42,0,.12.52.41.62-.12.44.15.08.24.11l-.27-.37.38-.05a.15.15,0,0,0,.1-.12s0-.08-.09-.1c-.2-.1-.19-.11,0-.26a.74.74,0,0,0,.22-.34c0-.13,0-.14.09-.1a.5.5,0,0,1,.14.1,1.7,1.7,0,0,0-.2-.38.47.47,0,0,1,0-.24l.2.14.08,0-.3-.53c.25,0,.61.09.43-.4,0,0,.06-.07.08-.11s0-.1,0-.14c-.1-.21-.2-.42-.32-.65l.63.17.12,0C7.87,7.1,8,7,8.24,6.79s.15-.33.24-.54l.16,0A.5.5,0,0,1,8.54,6a3.62,3.62,0,0,1,0-.46l.25,0c0-.22,0-.46.07-.7S9,4.3,9.08,4a.38.38,0,0,1,0-.1c.21-.36.66-.65.33-1.18,0,0,.05-.12.1-.24a1.89,1.89,0,0,0-.65,0c-.23.1-.28,0-.3-.16s.07-.23.06-.34a.5.5,0,0,0-.11-.34s-.19,0-.3,0-.12,0-.16,0a.64.64,0,0,0-.91.13c-.18.32-.34.58-.74.57a.11.11,0,0,0-.08.07C6.19,3.08,6.09,2.55,5.91,2.39Zm5.41.08L11.51,2C11.32,2.14,11,2.2,11.32,2.47Zm-.55-1.22,0,.15.55,0V1.37Z"/></g></g></svg>