<svg xmlns="http://www.w3.org/2000/svg" viewBox="0 0 115.29 115.29"><title>Recurso 22MANDALA</title><g id="Capa_2" data-name="Capa 2"><g id="Capa_1-2" data-name="Capa 1"><path d="M46.94,28.46a1.74,1.74,0,0,0-.68.81,2.77,2.77,0,0,0-.23.91,7,7,0,0,0,.11,1.72,20.57,20.57,0,0,0,.93,3.16c.37,1,.75,2,1,3.09s.58,2.09.89,3.16.55,2.16.81,3.29.55,2.29.92,3.53a36.61,36.61,0,0,0,1.43,4,15.55,15.55,0,0,0,1.18,2.22,5.52,5.52,0,0,0,2,1.9,3.48,3.48,0,0,0,2.65,0,5,5,0,0,0,1.93-1.44,8.53,8.53,0,0,0,1.78-4.25c.45-3.14-.52-6.5-1.78-9.49a33,33,0,0,0-2.18-4.32A29.42,29.42,0,0,0,55,32.76a15.88,15.88,0,0,0-3.48-3.26,8.76,8.76,0,0,0-2.19-1.08,4.68,4.68,0,0,0-1.23-.22A2.37,2.37,0,0,0,46.94,28.46Zm-.12-.12A2.63,2.63,0,0,1,48.16,28a5.84,5.84,0,0,1,1.33.18,12.27,12.27,0,0,1,2.46.95,22.07,22.07,0,0,1,4.46,3,20.58,20.58,0,0,1,1.94,1.91A19.79,19.79,0,0,1,60,36.2a18.67,18.67,0,0,1,2.73,14.64A12.69,12.69,0,0,1,61,55.35a6.34,6.34,0,0,1-1.82,1.79,4.06,4.06,0,0,1-1.52.51,5.07,5.07,0,0,1-2.5-.42,9,9,0,0,1-2.43-1.57,12.22,12.22,0,0,1-1.44-1.5,19.32,19.32,0,0,1-1.73-2.48,25.71,25.71,0,0,1-1.84-4,35.06,35.06,0,0,1-1.79-6.33,31,31,0,0,1-.46-6c0-1.07,0-2.18.07-3.35a13.33,13.33,0,0,1,.18-1.82,4.3,4.3,0,0,1,.3-1A2.09,2.09,0,0,1,46.82,28.34Z"/><path d="M52.34,40a3.71,3.71,0,0,0,1.83.74,2,2,0,0,0,1.56-.86,3.52,3.52,0,0,0,.66-1.64,7.69,7.69,0,0,0-.4-3.62,18.35,18.35,0,0,0-4.47-6.57,36.12,36.12,0,0,0-3-2.7,31.78,31.78,0,0,0-3.24-2.31,15,15,0,0,0-3.57-1.66,7.47,7.47,0,0,0-1.91-.31,3.15,3.15,0,0,0-.92.13,1.26,1.26,0,0,0-.69.48,1.23,1.23,0,0,0-.11.78,2.56,2.56,0,0,0,.24.77,7.41,7.41,0,0,0,.77,1.27l.25.33c.5.65,1,1.25,1.59,1.85.28.29.55.59.82.88s.71.79,1,1.2c.6.7,1.17,1.43,1.75,2.15s1.14,1.47,1.71,2.23,1.3,1.78,2,2.69c.31.39.63.78,1,1.18s.94,1.07,1.47,1.62l.42.4A13,13,0,0,0,52.34,40Zm-1.27.57a13.86,13.86,0,0,1-1.9-1.29,22.62,22.62,0,0,1-2.56-2.46A40,40,0,0,1,43,32.31a46.39,46.39,0,0,1-2.84-4.76c-.45-.86-.91-1.76-1.39-2.7a14.39,14.39,0,0,1-.67-1.48,3.74,3.74,0,0,1-.21-.83,1.24,1.24,0,0,1,.93-1.45,4,4,0,0,1,1-.18,9.86,9.86,0,0,1,2,.14,19.71,19.71,0,0,1,6.08,2.17A18.55,18.55,0,0,1,53,27.37a19.23,19.23,0,0,1,3.76,7.21,11.29,11.29,0,0,1,.49,3.8,4.91,4.91,0,0,1-.47,1.85,2.55,2.55,0,0,1-.73.84,2.92,2.92,0,0,1-1.61.5,5.4,5.4,0,0,1-2-.34A8.44,8.44,0,0,1,51.07,40.61Z"/><path d="M45.31,28.17a2.13,2.13,0,0,0,1.35,0,1.21,1.21,0,0,0,.52-1.1,3.52,3.52,0,0,0-.32-1.4,8.22,8.22,0,0,0-1.78-2.53,18.39,18.39,0,0,0-5.6-3.59,32.68,32.68,0,0,0-3.11-1.2,28.23,28.23,0,0,0-3.21-.87,13.72,13.72,0,0,0-3.23-.32,5.8,5.8,0,0,0-1.48.24,1.79,1.79,0,0,0-.6.31.64.64,0,0,0-.26.5,1.05,1.05,0,0,0,.3.58,4.36,4.36,0,0,0,.56.5c.36.25.73.48,1.1.69l.32.16c.64.34,1.27.63,1.89.92l.93.42,1.21.58c.69.34,1.37.71,2,1.07s1.33.75,2,1.13c.91.55,1.82,1.12,2.75,1.67.4.24.8.48,1.22.71s1.13.61,1.74.9l.45.2A8.39,8.39,0,0,0,45.31,28.17Zm-.47.81a9.67,9.67,0,0,1-1.65-.42,18.11,18.11,0,0,1-2.61-1.14c-1.58-.82-3-1.66-4.39-2.56S33.4,23,31.92,22l-2.34-1.64c-.4-.29-.82-.57-1.22-.91a4.85,4.85,0,0,1-.57-.54,1.21,1.21,0,0,1-.33-.68.74.74,0,0,1,.28-.58,2.1,2.1,0,0,1,.6-.35,7.08,7.08,0,0,1,1.49-.39,16.15,16.15,0,0,1,3.36-.14c.58,0,1.17.1,1.76.2s1.17.23,1.75.39a18,18,0,0,1,3.35,1.32,19.8,19.8,0,0,1,5.44,4.23,12.33,12.33,0,0,1,1.89,2.62A5,5,0,0,1,47.89,27a2,2,0,0,1-.06.83,1.59,1.59,0,0,1-.7.87,2.75,2.75,0,0,1-1.25.35A5.66,5.66,0,0,1,44.84,29Z"/><path d="M15.82,18.66a2.58,2.58,0,0,0,1.27.43c.49.06,1,.11,1.43.13.92.05,1.78.05,2.62.08,1.67,0,3.25.15,4.79.32s3,.42,4.51.62c.74.09,1.49.17,2.23.2a6.71,6.71,0,0,0,1.1,0c.34-.05.68-.17.78-.37s0-.59-.29-.89a4.23,4.23,0,0,0-.93-.85,9.92,9.92,0,0,0-2.44-1.21,18.88,18.88,0,0,0-5.54-.84,30.91,30.91,0,0,0-5.6.39,13.16,13.16,0,0,0-2.63.7,4.94,4.94,0,0,0-1.05.57C15.81,18.13,15.6,18.41,15.82,18.66Zm-.12,0a.38.38,0,0,1-.09-.44,1.55,1.55,0,0,1,.3-.4,5.67,5.67,0,0,1,1-.66,13.87,13.87,0,0,1,2.47-1,16.53,16.53,0,0,1,5.87-.65A20.37,20.37,0,0,1,31,16.81,14.15,14.15,0,0,1,33.54,18a6,6,0,0,1,1.08.86,2.43,2.43,0,0,1,.41.58,1,1,0,0,1,.06.78,1.14,1.14,0,0,1-.53.59,2.75,2.75,0,0,1-.63.25,6.39,6.39,0,0,1-1.2.16,16.8,16.8,0,0,1-2.26-.1c-1.46-.14-2.89-.35-4.38-.58S23,20.1,21.3,19.81l-2.74-.39c-.48-.07-1-.13-1.48-.23-.25-.05-.51-.1-.75-.17A1.63,1.63,0,0,1,15.7,18.69Z"/><path d="M29.44,44.58a1.74,1.74,0,0,0,.09,1.05,2.72,2.72,0,0,0,.48.81,7,7,0,0,0,1.3,1.14,21.41,21.41,0,0,0,2.89,1.58c1,.46,2,.91,2.92,1.43S39,51.66,40,52.2s1.93,1.14,2.91,1.75,2,1.24,3.14,1.85a36.24,36.24,0,0,0,3.82,1.79,15.47,15.47,0,0,0,2.4.73,5.51,5.51,0,0,0,2.74,0,3.48,3.48,0,0,0,1.86-1.89A4.88,4.88,0,0,0,57.2,54a8.42,8.42,0,0,0-1.75-4.27c-1.9-2.54-5-4.22-8-5.45a34.38,34.38,0,0,0-4.6-1.52,31.3,31.3,0,0,0-4.68-.86,16,16,0,0,0-4.78.15,8.77,8.77,0,0,0-2.31.79,4.54,4.54,0,0,0-1,.71A2.25,2.25,0,0,0,29.44,44.58Zm-.17,0A2.72,2.72,0,0,1,30,43.4a5.58,5.58,0,0,1,1.07-.81,12.29,12.29,0,0,1,2.4-1.07,22.15,22.15,0,0,1,5.28-1,20.73,20.73,0,0,1,2.73,0,18.65,18.65,0,0,1,2.69.33,19.43,19.43,0,0,1,5,1.72,19.75,19.75,0,0,1,7.3,6.7,12.39,12.39,0,0,1,1.94,4.43,6.1,6.1,0,0,1,0,2.55,3.92,3.92,0,0,1-.71,1.44,5.18,5.18,0,0,1-2.06,1.47,9.39,9.39,0,0,1-2.83.61,13.81,13.81,0,0,1-2.08,0,19.14,19.14,0,0,1-3-.54,24.92,24.92,0,0,1-4.1-1.5,35.16,35.16,0,0,1-5.74-3.21,30.82,30.82,0,0,1-4.58-3.92C32.53,49.76,31.77,49,31,48.1a11.78,11.78,0,0,1-1.16-1.41,4.05,4.05,0,0,1-.48-.9A2.12,2.12,0,0,1,29.27,44.58Z"/><path d="M41.45,49a3.72,3.72,0,0,0,1.82-.77,2.05,2.05,0,0,0,.49-1.71,3.59,3.59,0,0,0-.69-1.63,7.77,7.77,0,0,0-2.85-2.28,18.33,18.33,0,0,0-7.8-1.48,33.61,33.61,0,0,0-4,.2,30.52,30.52,0,0,0-3.92.65,14.92,14.92,0,0,0-3.7,1.36,7.13,7.13,0,0,0-1.57,1.13,3.23,3.23,0,0,0-.56.73,1.24,1.24,0,0,0-.15.83,1.21,1.21,0,0,0,.47.64,2.83,2.83,0,0,0,.71.37,7.47,7.47,0,0,0,1.45.35,2.7,2.7,0,0,0,.41.06c.82.11,1.63.14,2.43.18l1.2.05c.54,0,1.07,0,1.59.1.93.07,1.84.19,2.76.28s1.85.23,2.78.37c1.08.17,2.18.34,3.34.47l1.52.16c.7.05,1.42.09,2.19.1h.58A11.84,11.84,0,0,0,41.45,49Zm-.5,1.3a14.14,14.14,0,0,1-2.25.43,22.76,22.76,0,0,1-3.55.07,41.44,41.44,0,0,1-5.75-.68A45.69,45.69,0,0,1,24,48.7c-.93-.28-1.89-.59-2.89-.92a14.17,14.17,0,0,1-1.52-.57,4,4,0,0,1-.74-.44,1.34,1.34,0,0,1-.51-.75,1.35,1.35,0,0,1,.15-.94,3.61,3.61,0,0,1,.56-.8A9.37,9.37,0,0,1,20.6,43a18.44,18.44,0,0,1,3.74-2.05,19.09,19.09,0,0,1,2.09-.72,17.68,17.68,0,0,1,2.16-.47,18.64,18.64,0,0,1,4.34-.17A19.17,19.17,0,0,1,40.7,42a11.28,11.28,0,0,1,3,2.33,4.92,4.92,0,0,1,1,1.64,2.54,2.54,0,0,1,.08,1.12A2.87,2.87,0,0,1,44,48.56a5.39,5.39,0,0,1-1.64,1.16A9.35,9.35,0,0,1,41,50.25Z"/><path d="M28.08,45.52a2.14,2.14,0,0,0,1-1,1.22,1.22,0,0,0-.42-1.15,3.56,3.56,0,0,0-1.21-.76,8.43,8.43,0,0,0-3.05-.53,18.52,18.52,0,0,0-6.49,1.42,32.25,32.25,0,0,0-3.06,1.35,29.43,29.43,0,0,0-2.88,1.66,13.58,13.58,0,0,0-2.51,2.06,5.48,5.48,0,0,0-.88,1.21,1.81,1.81,0,0,0-.2.65.61.61,0,0,0,.17.53,1.07,1.07,0,0,0,.62.2,4.65,4.65,0,0,0,.75,0,11.61,11.61,0,0,0,1.26-.3l.35-.1c.69-.22,1.34-.46,2-.7l1-.35c.42-.16.84-.31,1.26-.44.73-.25,1.47-.47,2.2-.69L20.1,48c1-.26,2.07-.49,3.13-.76l1.35-.36c.62-.18,1.24-.37,1.87-.6l.47-.18A9.48,9.48,0,0,0,28.08,45.52Zm.24.91a9.65,9.65,0,0,1-1.46.87,18.4,18.4,0,0,1-2.66,1c-1.7.54-3.28.94-4.9,1.3s-3.26.68-5.08,1l-2.81.5c-.49.08-1,.17-1.51.22a5.18,5.18,0,0,1-.79,0,1.22,1.22,0,0,1-.71-.25.71.71,0,0,1-.21-.61,2.09,2.09,0,0,1,.18-.67,6.25,6.25,0,0,1,.78-1.33A15.82,15.82,0,0,1,11.42,46a14.93,14.93,0,0,1,1.39-1.1,16.87,16.87,0,0,1,1.51-1,17.8,17.8,0,0,1,3.3-1.43,19.86,19.86,0,0,1,6.84-.86,12.45,12.45,0,0,1,3.2.52,5.07,5.07,0,0,1,1.4.69,2,2,0,0,1,.55.63,1.56,1.56,0,0,1,.12,1.1,2.93,2.93,0,0,1-.64,1.14A5.36,5.36,0,0,1,28.32,46.43Z"/><path d="M.5,59.66a2.64,2.64,0,0,0,1.21-.6c.39-.3.76-.61,1.1-.92.68-.62,1.3-1.22,1.91-1.8a46.71,46.71,0,0,1,3.61-3.15c1.21-1,2.44-1.84,3.63-2.76.59-.46,1.17-.93,1.72-1.43a7,7,0,0,0,.75-.8c.21-.28.37-.6.29-.82s-.44-.38-.83-.42a4.15,4.15,0,0,0-1.26.06,9.7,9.7,0,0,0-2.58.87,18.57,18.57,0,0,0-4.51,3.32,29.69,29.69,0,0,0-3.68,4.24A12.34,12.34,0,0,0,.49,57.81,4.88,4.88,0,0,0,.15,59C.12,59.29.17,59.64.5,59.66Zm-.06.1a.37.37,0,0,1-.37-.25A1.12,1.12,0,0,1,0,59a5.7,5.7,0,0,1,.21-1.16,13.75,13.75,0,0,1,1-2.47,16.59,16.59,0,0,1,3.69-4.61,20.35,20.35,0,0,1,5-3.17,14.11,14.11,0,0,1,2.67-.93A7,7,0,0,1,14,46.52a2.16,2.16,0,0,1,.7.13,1,1,0,0,1,.6.5,1.14,1.14,0,0,1,0,.79,2.19,2.19,0,0,1-.27.62,5.59,5.59,0,0,1-.73,1,15.63,15.63,0,0,1-1.66,1.52c-1.14.94-2.29,1.8-3.51,2.69S6.63,55.57,5.19,56.6c-.71.52-1.45,1.07-2.21,1.65-.39.29-.78.6-1.21.89a7.31,7.31,0,0,1-.66.41A1.53,1.53,0,0,1,.44,59.76Z"/><path d="M28.46,68.35a1.74,1.74,0,0,0,.81.68,2.77,2.77,0,0,0,.91.23,7,7,0,0,0,1.72-.11,20.57,20.57,0,0,0,3.16-.93c1-.37,2-.75,3.09-1s2.09-.58,3.16-.89,2.16-.55,3.29-.81,2.29-.55,3.53-.92a34.59,34.59,0,0,0,4-1.43,14.6,14.6,0,0,0,2.22-1.18,5.45,5.45,0,0,0,1.9-2,3.48,3.48,0,0,0,0-2.65,5,5,0,0,0-1.44-1.93A8.53,8.53,0,0,0,50.5,53.6c-3.14-.45-6.5.53-9.49,1.78a33,33,0,0,0-4.32,2.18,30.39,30.39,0,0,0-3.93,2.7,15.88,15.88,0,0,0-3.26,3.48,8.76,8.76,0,0,0-1.08,2.19,4.68,4.68,0,0,0-.22,1.23A2.37,2.37,0,0,0,28.46,68.35Zm-.12.12A2.63,2.63,0,0,1,28,67.13a5.84,5.84,0,0,1,.18-1.33,12.27,12.27,0,0,1,.95-2.46,22.07,22.07,0,0,1,3-4.46,20.58,20.58,0,0,1,1.91-1.94,19.79,19.79,0,0,1,2.14-1.66,18.67,18.67,0,0,1,14.64-2.73,12.53,12.53,0,0,1,4.51,1.76,6.1,6.1,0,0,1,1.79,1.82,3.93,3.93,0,0,1,.51,1.52,5,5,0,0,1-.42,2.49,9,9,0,0,1-1.57,2.43A12.22,12.22,0,0,1,54.16,64a19.32,19.32,0,0,1-2.48,1.73,24.8,24.8,0,0,1-4,1.84,35.06,35.06,0,0,1-6.33,1.79,31.83,31.83,0,0,1-6,.47c-1.07,0-2.18,0-3.35-.08a13.33,13.33,0,0,1-1.82-.18,4.3,4.3,0,0,1-1-.3A2.09,2.09,0,0,1,28.34,68.47Z"/><path d="M40,63a3.67,3.67,0,0,0,.74-1.83,2,2,0,0,0-.86-1.56,3.52,3.52,0,0,0-1.64-.66,7.69,7.69,0,0,0-3.62.4,18.25,18.25,0,0,0-6.57,4.48,34.44,34.44,0,0,0-2.7,3A31.78,31.78,0,0,0,23.08,70a14.93,14.93,0,0,0-1.66,3.58,7.32,7.32,0,0,0-.31,1.9,3.15,3.15,0,0,0,.13.92,1,1,0,0,0,1.26.81,3.29,3.29,0,0,0,.77-.24,8.94,8.94,0,0,0,1.27-.77l.33-.25c.65-.51,1.25-1.06,1.85-1.6l.88-.81c.4-.37.79-.72,1.2-1.06.7-.6,1.43-1.17,2.15-1.75s1.47-1.14,2.23-1.71,1.78-1.3,2.69-2c.39-.31.78-.63,1.18-1s1.07-.94,1.62-1.47l.4-.42A13,13,0,0,0,40,63Zm.57,1.27a13.86,13.86,0,0,1-1.29,1.9,22.62,22.62,0,0,1-2.46,2.56,40,40,0,0,1-4.55,3.58,44.66,44.66,0,0,1-4.76,2.84l-2.7,1.39a14.39,14.39,0,0,1-1.48.67,3.74,3.74,0,0,1-.83.21,1.34,1.34,0,0,1-.89-.16,1.4,1.4,0,0,1-.56-.77,4,4,0,0,1-.18-1,9.91,9.91,0,0,1,.14-2,19.71,19.71,0,0,1,2.17-6.08,18.93,18.93,0,0,1,1.19-1.86,18.73,18.73,0,0,1,3-3.19,19.11,19.11,0,0,1,7.21-3.77,11.29,11.29,0,0,1,3.8-.49,4.91,4.91,0,0,1,1.85.47,2.67,2.67,0,0,1,.84.73,3,3,0,0,1,.5,1.62,5.34,5.34,0,0,1-.34,2A8.44,8.44,0,0,1,40.61,64.22Z"/><path d="M28.17,70a2.13,2.13,0,0,0,0-1.35,1.23,1.23,0,0,0-1.1-.52,3.52,3.52,0,0,0-1.4.32,8.39,8.39,0,0,0-2.53,1.78,18.39,18.39,0,0,0-3.59,5.6,32.68,32.68,0,0,0-1.2,3.11,28.23,28.23,0,0,0-.87,3.21,13.78,13.78,0,0,0-.32,3.23,5.88,5.88,0,0,0,.24,1.49,1.84,1.84,0,0,0,.31.59.64.64,0,0,0,.5.26,1.05,1.05,0,0,0,.58-.3,3.78,3.78,0,0,0,.5-.56c.25-.36.48-.73.69-1.1.05-.11.11-.21.16-.32.34-.64.63-1.27.92-1.89l.42-.93c.19-.4.38-.81.58-1.2.34-.7.71-1.38,1.07-2.05s.75-1.33,1.13-2c.55-.91,1.12-1.82,1.67-2.75.24-.4.48-.8.71-1.22s.61-1.13.9-1.74l.2-.45A8.39,8.39,0,0,0,28.17,70Zm.81.47a9.67,9.67,0,0,1-.42,1.65,17.63,17.63,0,0,1-1.14,2.61c-.82,1.58-1.66,3-2.56,4.39S23,81.89,22,83.37l-1.64,2.34c-.29.4-.57.82-.91,1.22a4.85,4.85,0,0,1-.54.57,1.21,1.21,0,0,1-.68.33.71.71,0,0,1-.58-.28,2,2,0,0,1-.35-.6,6.93,6.93,0,0,1-.39-1.49,16.12,16.12,0,0,1-.14-3.36,17.36,17.36,0,0,1,.2-1.75,17.2,17.2,0,0,1,1.71-5.11,19.8,19.8,0,0,1,4.23-5.44,12.33,12.33,0,0,1,2.62-1.89A5,5,0,0,1,27,67.4a2,2,0,0,1,.83.06,1.59,1.59,0,0,1,.87.7A2.75,2.75,0,0,1,29,69.41,5.66,5.66,0,0,1,29,70.45Z"/><path d="M18.66,99.48a2.66,2.66,0,0,0,.43-1.28c.06-.49.11-1,.13-1.43.05-.92.05-1.78.08-2.62,0-1.66.15-3.25.32-4.78s.42-3,.62-4.52c.09-.74.17-1.48.2-2.23a6.71,6.71,0,0,0,0-1.1c-.05-.34-.17-.68-.37-.78s-.59.05-.89.29a4.23,4.23,0,0,0-.85.93,9.92,9.92,0,0,0-1.21,2.44,18.88,18.88,0,0,0-.84,5.54,30.78,30.78,0,0,0,.39,5.6,13.16,13.16,0,0,0,.7,2.63,4.71,4.71,0,0,0,.57,1C18.13,99.49,18.41,99.7,18.66,99.48Zm0,.11a.38.38,0,0,1-.44.09,1.55,1.55,0,0,1-.4-.3,5.67,5.67,0,0,1-.66-1,13.87,13.87,0,0,1-1-2.47,16.5,16.5,0,0,1-.65-5.87,20.37,20.37,0,0,1,1.3-5.78A14.15,14.15,0,0,1,18,81.75a6,6,0,0,1,.86-1.08,2.43,2.43,0,0,1,.58-.41,1,1,0,0,1,.78-.06,1.14,1.14,0,0,1,.59.53,2.75,2.75,0,0,1,.25.63,6.61,6.61,0,0,1,.16,1.2,16.8,16.8,0,0,1-.1,2.26c-.14,1.46-.35,2.89-.58,4.38s-.47,3-.76,4.79c-.13.87-.26,1.78-.39,2.74-.07.48-.13,1-.23,1.48-.05.25-.1.51-.17.76A1.66,1.66,0,0,1,18.69,99.59Z"/><path d="M44.58,85.85a1.74,1.74,0,0,0,1.05-.09,2.72,2.72,0,0,0,.81-.48A7,7,0,0,0,47.58,84a21.41,21.41,0,0,0,1.58-2.89c.46-1,.91-2,1.43-2.92s1.07-1.89,1.61-2.86,1.14-1.92,1.75-2.9,1.24-2,1.85-3.15a36.24,36.24,0,0,0,1.79-3.82,15.68,15.68,0,0,0,.73-2.39,5.55,5.55,0,0,0,0-2.75,3.48,3.48,0,0,0-1.89-1.86A4.88,4.88,0,0,0,54,58.09a8.51,8.51,0,0,0-4.27,1.75c-2.54,1.9-4.22,5-5.45,8a34.38,34.38,0,0,0-1.52,4.6,31.2,31.2,0,0,0-.86,4.69,15.93,15.93,0,0,0,.15,4.77,8.77,8.77,0,0,0,.79,2.31,4.84,4.84,0,0,0,.71,1A2.32,2.32,0,0,0,44.58,85.85Zm0,.17a2.72,2.72,0,0,1-1.18-.72,5.58,5.58,0,0,1-.81-1.07,12.29,12.29,0,0,1-1.07-2.4,22.05,22.05,0,0,1-1-5.28,20.73,20.73,0,0,1,0-2.73,18.65,18.65,0,0,1,.33-2.69,19.43,19.43,0,0,1,1.72-5,19.75,19.75,0,0,1,6.7-7.3,12.56,12.56,0,0,1,4.43-1.94,6.1,6.1,0,0,1,2.55,0,3.81,3.81,0,0,1,1.44.72,5.06,5.06,0,0,1,1.47,2.05,9.39,9.39,0,0,1,.61,2.83,13.81,13.81,0,0,1,0,2.08,19.14,19.14,0,0,1-.54,3,24.92,24.92,0,0,1-1.5,4.1,35.16,35.16,0,0,1-3.21,5.74A30.82,30.82,0,0,1,50.52,82c-.76.75-1.56,1.52-2.42,2.32a14.08,14.08,0,0,1-1.41,1.16,4.49,4.49,0,0,1-.9.47A2,2,0,0,1,44.58,86Z"/><path d="M49,73.84A3.69,3.69,0,0,0,48.18,72a2,2,0,0,0-1.71-.5,3.82,3.82,0,0,0-1.63.69,7.85,7.85,0,0,0-2.28,2.85,18.35,18.35,0,0,0-1.48,7.81,33.34,33.34,0,0,0,.2,4,30.24,30.24,0,0,0,.65,3.92,15,15,0,0,0,1.36,3.71,7.32,7.32,0,0,0,1.13,1.56,3.23,3.23,0,0,0,.73.56,1.24,1.24,0,0,0,.83.15,1.16,1.16,0,0,0,.64-.47,2.83,2.83,0,0,0,.37-.71,7.55,7.55,0,0,0,.35-1.44,3.12,3.12,0,0,0,.06-.41c.11-.83.14-1.64.18-2.44,0-.4,0-.8.05-1.2s0-1.07.1-1.59c.07-.93.19-1.84.28-2.76s.23-1.85.37-2.78.34-2.18.47-3.34c.06-.49.11-1,.16-1.52.05-.7.09-1.42.1-2.18,0-.2,0-.39,0-.59A12,12,0,0,0,49,73.84Zm1.3.5a14,14,0,0,1,.43,2.26,22.61,22.61,0,0,1,.07,3.54,41.78,41.78,0,0,1-.68,5.76,45.54,45.54,0,0,1-1.37,5.37c-.28.93-.59,1.89-.92,2.89a14.17,14.17,0,0,1-.57,1.52,4,4,0,0,1-.44.74,1.34,1.34,0,0,1-.75.51,1.41,1.41,0,0,1-.94-.14,4,4,0,0,1-.8-.57A9.37,9.37,0,0,1,43,94.69,18.44,18.44,0,0,1,40.9,91a19.09,19.09,0,0,1-.72-2.09,17.68,17.68,0,0,1-.47-2.16,18.64,18.64,0,0,1-.17-4.34A19.17,19.17,0,0,1,42,74.59a11.28,11.28,0,0,1,2.33-3,4.92,4.92,0,0,1,1.64-1,2.7,2.7,0,0,1,1.12-.08,3,3,0,0,1,1.49.78,5.52,5.52,0,0,1,1.16,1.64A9.35,9.35,0,0,1,50.25,74.34Z"/><path d="M45.52,87.21a2.14,2.14,0,0,0-1-1,1.22,1.22,0,0,0-1.15.42,3.56,3.56,0,0,0-.76,1.21,8.43,8.43,0,0,0-.53,3.05,18.52,18.52,0,0,0,1.42,6.49,32.25,32.25,0,0,0,1.35,3.06,28.3,28.3,0,0,0,1.66,2.88,13.58,13.58,0,0,0,2.06,2.51,5.48,5.48,0,0,0,1.21.88,2.06,2.06,0,0,0,.65.21.64.64,0,0,0,.53-.18,1,1,0,0,0,.2-.62,4.65,4.65,0,0,0,0-.75,12.2,12.2,0,0,0-.3-1.26c0-.12-.07-.23-.1-.35-.22-.68-.46-1.34-.7-2-.11-.32-.23-.64-.35-.95s-.31-.85-.44-1.27c-.25-.73-.47-1.47-.69-2.2s-.41-1.47-.61-2.21c-.26-1-.49-2.07-.76-3.13l-.36-1.35c-.18-.62-.37-1.24-.6-1.87l-.18-.47A9.48,9.48,0,0,0,45.52,87.21Zm.91-.24a9.65,9.65,0,0,1,.87,1.46,18.4,18.4,0,0,1,1,2.66c.54,1.7.94,3.29,1.3,4.91s.68,3.25,1,5.07c.16.9.32,1.83.5,2.81.08.49.17,1,.22,1.51a5.18,5.18,0,0,1,0,.79,1.22,1.22,0,0,1-.25.71.69.69,0,0,1-.61.21,2.09,2.09,0,0,1-.67-.18,6.64,6.64,0,0,1-1.33-.77A16.41,16.41,0,0,1,46,103.87a14.93,14.93,0,0,1-1.1-1.39,16.87,16.87,0,0,1-1-1.51,17.51,17.51,0,0,1-1.43-3.3,19.86,19.86,0,0,1-.86-6.84,12.3,12.3,0,0,1,.52-3.19,5,5,0,0,1,.69-1.41,2.12,2.12,0,0,1,.63-.55,1.56,1.56,0,0,1,1.1-.12,2.93,2.93,0,0,1,1.14.64A5.36,5.36,0,0,1,46.43,87Z"/><path d="M59.66,114.79a2.64,2.64,0,0,0-.6-1.21c-.3-.39-.61-.75-.92-1.09-.62-.69-1.22-1.31-1.8-1.91-1.16-1.2-2.19-2.41-3.15-3.62s-1.84-2.44-2.76-3.62c-.46-.59-.93-1.18-1.43-1.73a7,7,0,0,0-.8-.75,1.06,1.06,0,0,0-.82-.29c-.22.07-.38.44-.42.83a4.15,4.15,0,0,0,.06,1.26,9.7,9.7,0,0,0,.87,2.58,18.57,18.57,0,0,0,3.32,4.51,30.4,30.4,0,0,0,4.24,3.69,12.83,12.83,0,0,0,2.36,1.36,4.45,4.45,0,0,0,1.14.34C59.29,115.17,59.64,115.12,59.66,114.79Zm.1.06a.39.39,0,0,1-.25.38,1.3,1.3,0,0,1-.49.06,5.7,5.7,0,0,1-1.16-.21,13.75,13.75,0,0,1-2.47-1,16.59,16.59,0,0,1-4.61-3.69,20.35,20.35,0,0,1-3.17-5,14.11,14.11,0,0,1-.93-2.67,7,7,0,0,1-.16-1.37,2.16,2.16,0,0,1,.13-.7,1,1,0,0,1,.5-.59,1.09,1.09,0,0,1,.79,0,2.19,2.19,0,0,1,.62.27,6.15,6.15,0,0,1,1,.73,16.67,16.67,0,0,1,1.52,1.66c.94,1.14,1.8,2.3,2.69,3.51s1.83,2.49,2.86,3.93q.78,1.07,1.65,2.22c.29.38.6.78.89,1.2a7.31,7.31,0,0,1,.41.66A1.57,1.57,0,0,1,59.76,114.85Z"/><path d="M68.35,86.83A1.74,1.74,0,0,0,69,86a2.77,2.77,0,0,0,.23-.91,7,7,0,0,0-.11-1.72,20.57,20.57,0,0,0-.93-3.16c-.37-1-.75-2-1-3.09s-.58-2.09-.89-3.15-.55-2.17-.81-3.3-.55-2.29-.92-3.53a34.59,34.59,0,0,0-1.43-4A14.07,14.07,0,0,0,61.94,61a5.47,5.47,0,0,0-2-1.91,3.48,3.48,0,0,0-2.65,0,5,5,0,0,0-1.93,1.44,8.53,8.53,0,0,0-1.78,4.25c-.45,3.15.53,6.51,1.78,9.49a33.72,33.72,0,0,0,2.18,4.33,31,31,0,0,0,2.7,3.92,15.88,15.88,0,0,0,3.48,3.26,8.76,8.76,0,0,0,2.19,1.08,4.3,4.3,0,0,0,1.23.22A2.37,2.37,0,0,0,68.35,86.83Zm.12.12a2.63,2.63,0,0,1-1.34.32,5.84,5.84,0,0,1-1.33-.18,12.86,12.86,0,0,1-2.46-.94,22.12,22.12,0,0,1-4.46-3,20.58,20.58,0,0,1-1.94-1.91,19.79,19.79,0,0,1-1.66-2.14A19.43,19.43,0,0,1,53,74.35a19.64,19.64,0,0,1-.42-9.9,12.53,12.53,0,0,1,1.76-4.51,6.1,6.1,0,0,1,1.82-1.79,3.78,3.78,0,0,1,1.52-.5,5,5,0,0,1,2.49.41,9.27,9.27,0,0,1,2.43,1.57A12.22,12.22,0,0,1,64,61.13a19.32,19.32,0,0,1,1.73,2.48,24.8,24.8,0,0,1,1.84,4,35.29,35.29,0,0,1,1.79,6.33,31.87,31.87,0,0,1,.47,6c0,1.06,0,2.17-.08,3.34a13.18,13.18,0,0,1-.18,1.82,4.15,4.15,0,0,1-.3,1A2.09,2.09,0,0,1,68.47,87Z"/><path d="M63,75.25a3.67,3.67,0,0,0-1.83-.74,2,2,0,0,0-1.56.86A3.52,3.52,0,0,0,58.9,77a7.69,7.69,0,0,0,.4,3.62,18.25,18.25,0,0,0,4.48,6.57,34.44,34.44,0,0,0,3,2.7A31.78,31.78,0,0,0,70,92.21a14.93,14.93,0,0,0,3.58,1.66,7.32,7.32,0,0,0,1.9.31,3.15,3.15,0,0,0,.92-.13,1,1,0,0,0,.81-1.26A3.29,3.29,0,0,0,77,92a8.94,8.94,0,0,0-.77-1.27l-.25-.33c-.51-.65-1.06-1.25-1.6-1.85l-.81-.88c-.37-.39-.72-.79-1.06-1.2-.6-.7-1.17-1.43-1.75-2.15S69.58,82.87,69,82.12s-1.3-1.78-2-2.7c-.31-.39-.63-.78-1-1.18s-.94-1.07-1.47-1.62l-.42-.4A13,13,0,0,0,63,75.25Zm1.27-.57A13.86,13.86,0,0,1,66.12,76a22.62,22.62,0,0,1,2.56,2.46A40,40,0,0,1,72.26,83a44.82,44.82,0,0,1,2.84,4.77c.45.85.91,1.75,1.39,2.69a15.43,15.43,0,0,1,.67,1.48,3.89,3.89,0,0,1,.21.83,1.34,1.34,0,0,1-.16.89,1.47,1.47,0,0,1-.77.57,4.48,4.48,0,0,1-1,.17,9.91,9.91,0,0,1-2-.14,19.71,19.71,0,0,1-6.08-2.17,18.93,18.93,0,0,1-1.86-1.19,18.73,18.73,0,0,1-3.19-3,19.11,19.11,0,0,1-3.77-7.21,11.29,11.29,0,0,1-.49-3.8,4.86,4.86,0,0,1,.47-1.84,2.6,2.6,0,0,1,.73-.85,3,3,0,0,1,1.62-.5,5.55,5.55,0,0,1,2,.34A9.39,9.39,0,0,1,64.22,74.68Z"/><path d="M70,87.12a2.21,2.21,0,0,0-1.35,0,1.23,1.23,0,0,0-.52,1.1,3.52,3.52,0,0,0,.32,1.4,8.39,8.39,0,0,0,1.78,2.53,18.39,18.39,0,0,0,5.6,3.59,32.68,32.68,0,0,0,3.11,1.2,28.23,28.23,0,0,0,3.21.87,13.78,13.78,0,0,0,3.23.32,5.88,5.88,0,0,0,1.49-.24,1.66,1.66,0,0,0,.59-.31.64.64,0,0,0,.26-.5,1.09,1.09,0,0,0-.3-.58,3.78,3.78,0,0,0-.56-.5,11.67,11.67,0,0,0-1.1-.68l-.32-.17c-.64-.34-1.27-.63-1.89-.92l-.93-.42c-.4-.19-.81-.38-1.2-.58-.7-.34-1.38-.71-2.05-1.07s-1.33-.75-2-1.13c-.91-.55-1.82-1.12-2.75-1.67l-1.22-.71c-.55-.31-1.13-.61-1.74-.89l-.45-.21A8.39,8.39,0,0,0,70,87.12Zm.47-.8a8.84,8.84,0,0,1,1.65.41,17.63,17.63,0,0,1,2.61,1.15c1.58.81,3,1.65,4.39,2.55s2.79,1.82,4.27,2.9L85.71,95c.4.29.82.58,1.22.91a4.85,4.85,0,0,1,.57.54,1.21,1.21,0,0,1,.33.68.68.68,0,0,1-.28.58A2.23,2.23,0,0,1,87,98a7.56,7.56,0,0,1-1.49.38,16.12,16.12,0,0,1-3.36.14,17.36,17.36,0,0,1-1.75-.2,17.2,17.2,0,0,1-5.11-1.71,19.8,19.8,0,0,1-5.44-4.23,12.08,12.08,0,0,1-1.89-2.62,4.87,4.87,0,0,1-.51-1.49,2,2,0,0,1,.06-.83,1.54,1.54,0,0,1,.7-.86,2.91,2.91,0,0,1,1.25-.36A4.86,4.86,0,0,1,70.45,86.32Z"/><path d="M99.48,96.63a2.66,2.66,0,0,0-1.28-.43c-.49-.06-1-.11-1.43-.13-.92,0-1.78,0-2.62-.08-1.66,0-3.25-.15-4.78-.32s-3-.42-4.52-.61c-.74-.1-1.48-.18-2.23-.21a8,8,0,0,0-1.1,0c-.34.05-.68.17-.78.37s.05.59.29.89A4.23,4.23,0,0,0,82,97,9.92,9.92,0,0,0,84.4,98.2a18.24,18.24,0,0,0,5.54.84,30.78,30.78,0,0,0,5.6-.39,13.16,13.16,0,0,0,2.63-.7,4.71,4.71,0,0,0,1-.57C99.49,97.16,99.7,96.88,99.48,96.63Zm.11,0a.38.38,0,0,1,.09.44,1.4,1.4,0,0,1-.3.4,5.15,5.15,0,0,1-1,.66,13.87,13.87,0,0,1-2.47,1,16.5,16.5,0,0,1-5.87.65,20,20,0,0,1-5.78-1.3,14.15,14.15,0,0,1-2.54-1.22,6,6,0,0,1-1.08-.86,2.43,2.43,0,0,1-.41-.58A1,1,0,0,1,80.2,95a1.12,1.12,0,0,1,.53-.58,2.07,2.07,0,0,1,.63-.25,5.87,5.87,0,0,1,1.2-.17,16.8,16.8,0,0,1,2.26.1c1.46.15,2.89.35,4.38.58s3,.47,4.79.76c.87.13,1.78.27,2.74.39.48.07,1,.13,1.48.23a7,7,0,0,1,.76.18A1.52,1.52,0,0,1,99.59,96.6Z"/><path d="M85.85,70.71a1.75,1.75,0,0,0-.09-1,2.72,2.72,0,0,0-.48-.81A7,7,0,0,0,84,67.71a21.34,21.34,0,0,0-2.89-1.57c-1-.47-2-.92-2.92-1.44s-1.89-1.07-2.86-1.61-1.92-1.14-2.9-1.75-2-1.23-3.15-1.85a36.24,36.24,0,0,0-3.82-1.79A15.68,15.68,0,0,0,63.05,57,5.55,5.55,0,0,0,60.3,57a3.48,3.48,0,0,0-1.86,1.89,4.9,4.9,0,0,0-.35,2.39,8.47,8.47,0,0,0,1.75,4.26c1.9,2.54,5,4.23,8,5.45a34.38,34.38,0,0,0,4.6,1.52,30,30,0,0,0,4.69.86,15.93,15.93,0,0,0,4.77-.15,8.77,8.77,0,0,0,2.31-.79,4.84,4.84,0,0,0,1-.71A2.32,2.32,0,0,0,85.85,70.71Zm.17,0a2.68,2.68,0,0,1-.72,1.17,5.58,5.58,0,0,1-1.07.81,12.29,12.29,0,0,1-2.4,1.07,22.05,22.05,0,0,1-5.28,1,20.73,20.73,0,0,1-2.73,0,20.18,20.18,0,0,1-2.69-.34,19.43,19.43,0,0,1-5-1.72,19.75,19.75,0,0,1-7.3-6.7,12.56,12.56,0,0,1-1.94-4.43,6.1,6.1,0,0,1,0-2.55,3.7,3.7,0,0,1,.72-1.43,4.88,4.88,0,0,1,2.05-1.47,9.13,9.13,0,0,1,2.83-.62,15.28,15.28,0,0,1,2.08,0,19.14,19.14,0,0,1,3,.54,25.88,25.88,0,0,1,4.1,1.5,35.16,35.16,0,0,1,5.74,3.21A31.43,31.43,0,0,1,82,64.77c.75.76,1.52,1.56,2.32,2.42a14.08,14.08,0,0,1,1.16,1.41,4.78,4.78,0,0,1,.47.9A2.07,2.07,0,0,1,86,70.72Z"/><path d="M73.84,66.34a3.78,3.78,0,0,0-1.81.77,2,2,0,0,0-.5,1.71,3.77,3.77,0,0,0,.69,1.63,7.75,7.75,0,0,0,2.85,2.28,18.35,18.35,0,0,0,7.81,1.48,33.34,33.34,0,0,0,4-.2,30.24,30.24,0,0,0,3.92-.65A15,15,0,0,0,94.52,72a7.64,7.64,0,0,0,1.56-1.12,3.52,3.52,0,0,0,.56-.74,1.24,1.24,0,0,0,.15-.83,1.16,1.16,0,0,0-.47-.64,2.83,2.83,0,0,0-.71-.37A8.39,8.39,0,0,0,94.17,68l-.41-.06c-.83-.11-1.64-.14-2.44-.18l-1.2,0c-.54,0-1.07,0-1.59-.1-.93-.07-1.84-.18-2.76-.28s-1.85-.23-2.78-.37-2.18-.34-3.34-.47l-1.52-.16c-.7,0-1.42-.09-2.18-.09h-.59A10.35,10.35,0,0,0,73.84,66.34Zm.5-1.3a14,14,0,0,1,2.26-.43,22.61,22.61,0,0,1,3.54-.07,41.78,41.78,0,0,1,5.76.68,47.59,47.59,0,0,1,5.37,1.37c.93.28,1.89.59,2.89.92a14.17,14.17,0,0,1,1.52.57,4.65,4.65,0,0,1,.74.44,1.34,1.34,0,0,1,.51.75,1.41,1.41,0,0,1-.14.94,4.4,4.4,0,0,1-.57.81,9.87,9.87,0,0,1-1.53,1.33,18.91,18.91,0,0,1-3.74,2,17.19,17.19,0,0,1-2.09.72,17.68,17.68,0,0,1-2.16.47,18.64,18.64,0,0,1-4.34.17,19.17,19.17,0,0,1-7.77-2.44,11.28,11.28,0,0,1-3-2.33,4.92,4.92,0,0,1-1-1.64,2.67,2.67,0,0,1-.08-1.11,3,3,0,0,1,.78-1.5,5.52,5.52,0,0,1,1.64-1.16A9.35,9.35,0,0,1,74.34,65Z"/><path d="M87.21,69.77a2.19,2.19,0,0,0-1,1,1.22,1.22,0,0,0,.42,1.15,3.56,3.56,0,0,0,1.21.76,8.43,8.43,0,0,0,3.05.53,18.52,18.52,0,0,0,6.49-1.42,32.25,32.25,0,0,0,3.06-1.35,28.3,28.3,0,0,0,2.88-1.66,13.58,13.58,0,0,0,2.51-2.06,5.48,5.48,0,0,0,.88-1.21,2.06,2.06,0,0,0,.21-.65.64.64,0,0,0-.18-.53,1,1,0,0,0-.62-.2,4.65,4.65,0,0,0-.75,0,12.2,12.2,0,0,0-1.26.3l-.35.1c-.68.22-1.34.46-2,.7l-.95.35L99.6,66c-.73.24-1.47.46-2.2.68s-1.47.42-2.21.61l-3.13.76-1.35.37c-.62.17-1.24.36-1.87.59l-.47.18A9.48,9.48,0,0,0,87.21,69.77ZM87,68.86A9.65,9.65,0,0,1,88.43,68a18.4,18.4,0,0,1,2.66-1c1.7-.54,3.29-.94,4.91-1.3s3.25-.68,5.07-1l2.81-.5c.49-.07,1-.17,1.51-.22a5.18,5.18,0,0,1,.79,0,1.22,1.22,0,0,1,.71.25.69.69,0,0,1,.21.61,2.22,2.22,0,0,1-.18.68,6.86,6.86,0,0,1-.77,1.32,16.41,16.41,0,0,1-2.28,2.47,14.93,14.93,0,0,1-1.39,1.1,16.87,16.87,0,0,1-1.51,1,18.23,18.23,0,0,1-3.3,1.44,20.09,20.09,0,0,1-6.84.85,11.89,11.89,0,0,1-3.19-.52,4.74,4.74,0,0,1-1.41-.69,2.12,2.12,0,0,1-.55-.63,1.56,1.56,0,0,1-.12-1.1,2.93,2.93,0,0,1,.64-1.14A6,6,0,0,1,87,68.86Z"/><path d="M114.79,55.63a2.64,2.64,0,0,0-1.21.6c-.39.3-.75.61-1.09.92-.69.62-1.31,1.22-1.91,1.8-1.2,1.16-2.41,2.19-3.62,3.15s-2.44,1.85-3.62,2.76c-.59.46-1.18.93-1.73,1.43a7,7,0,0,0-.75.8,1.07,1.07,0,0,0-.29.82c.07.22.44.38.83.42a4.15,4.15,0,0,0,1.26-.06,9.36,9.36,0,0,0,2.58-.87,18.32,18.32,0,0,0,4.51-3.32,30.4,30.4,0,0,0,3.69-4.24,13.09,13.09,0,0,0,1.36-2.35,4.63,4.63,0,0,0,.34-1.15C115.17,56,115.12,55.66,114.79,55.63Zm.06-.1a.39.39,0,0,1,.38.25,1.3,1.3,0,0,1,.06.49,5.7,5.7,0,0,1-.21,1.16,13.75,13.75,0,0,1-1,2.47,16.45,16.45,0,0,1-3.69,4.61,20.35,20.35,0,0,1-5,3.17,14.11,14.11,0,0,1-2.67.93,6.33,6.33,0,0,1-1.37.16,2.45,2.45,0,0,1-.7-.12,1,1,0,0,1-.59-.51,1.09,1.09,0,0,1,0-.79,2.33,2.33,0,0,1,.27-.62,6.15,6.15,0,0,1,.73-1,18,18,0,0,1,1.66-1.52c1.14-.94,2.3-1.8,3.51-2.69s2.49-1.83,3.93-2.86c.71-.52,1.45-1.06,2.22-1.65.38-.29.78-.6,1.2-.89a7.31,7.31,0,0,1,.66-.41A1.57,1.57,0,0,1,114.85,55.53Z"/><path d="M86.83,46.94a1.74,1.74,0,0,0-.81-.68,2.77,2.77,0,0,0-.91-.23,7,7,0,0,0-1.72.11,20.57,20.57,0,0,0-3.16.93c-1,.37-2,.75-3.09,1S75.05,48.7,74,49s-2.17.55-3.3.81-2.29.55-3.53.92a36.61,36.61,0,0,0-4,1.43A15,15,0,0,0,61,53.35a5.55,5.55,0,0,0-1.91,2,3.48,3.48,0,0,0,0,2.65,5,5,0,0,0,1.44,1.93,8.53,8.53,0,0,0,4.25,1.78c3.15.45,6.51-.52,9.49-1.78a33.72,33.72,0,0,0,4.33-2.18A30,30,0,0,0,82.53,55a15.88,15.88,0,0,0,3.26-3.48,8.76,8.76,0,0,0,1.08-2.19,4.3,4.3,0,0,0,.22-1.23A2.37,2.37,0,0,0,86.83,46.94Zm.12-.12a2.63,2.63,0,0,1,.32,1.34,5.84,5.84,0,0,1-.18,1.33A12.86,12.86,0,0,1,86.15,52a22.12,22.12,0,0,1-3,4.46,20.58,20.58,0,0,1-1.91,1.94A19.79,19.79,0,0,1,79.09,60a19.43,19.43,0,0,1-4.74,2.31,19.64,19.64,0,0,1-9.9.42A12.69,12.69,0,0,1,59.94,61a6.34,6.34,0,0,1-1.79-1.82,3.89,3.89,0,0,1-.5-1.52,5,5,0,0,1,.41-2.5,9.27,9.27,0,0,1,1.57-2.43,12.22,12.22,0,0,1,1.5-1.44,19.32,19.32,0,0,1,2.48-1.73,25.71,25.71,0,0,1,4-1.84,35.29,35.29,0,0,1,6.33-1.79,31.07,31.07,0,0,1,6-.46c1.06,0,2.17,0,3.34.07a13.18,13.18,0,0,1,1.82.18,4.15,4.15,0,0,1,1,.3A2.09,2.09,0,0,1,87,46.82Z"/><path d="M75.25,52.34a3.71,3.71,0,0,0-.74,1.83,2,2,0,0,0,.86,1.56,3.52,3.52,0,0,0,1.64.66,7.69,7.69,0,0,0,3.62-.4,18.35,18.35,0,0,0,6.57-4.47,36.12,36.12,0,0,0,2.7-3,31.78,31.78,0,0,0,2.31-3.24,15,15,0,0,0,1.66-3.57,7.47,7.47,0,0,0,.31-1.91,3.15,3.15,0,0,0-.13-.92,1.3,1.3,0,0,0-.47-.69,1.27,1.27,0,0,0-.79-.11,2.56,2.56,0,0,0-.77.24,7.41,7.41,0,0,0-1.27.77l-.33.25c-.65.5-1.25,1-1.85,1.59l-.88.82q-.59.54-1.2,1c-.7.6-1.43,1.17-2.15,1.75l-2.22,1.71c-.89.64-1.78,1.3-2.7,2-.39.31-.78.63-1.18,1s-1.07.94-1.62,1.47l-.4.42A13,13,0,0,0,75.25,52.34Zm-.57-1.27A13.86,13.86,0,0,1,76,49.17a22.62,22.62,0,0,1,2.46-2.56A40,40,0,0,1,83,43a46.56,46.56,0,0,1,4.77-2.84c.85-.45,1.75-.91,2.69-1.39a15.43,15.43,0,0,1,1.48-.67,3.89,3.89,0,0,1,.83-.21,1.4,1.4,0,0,1,.89.16,1.47,1.47,0,0,1,.57.77,4.48,4.48,0,0,1,.17,1,9.86,9.86,0,0,1-.14,2,19.71,19.71,0,0,1-2.17,6.08A18.55,18.55,0,0,1,87.92,53a19.23,19.23,0,0,1-7.21,3.76,11.29,11.29,0,0,1-3.8.49,4.86,4.86,0,0,1-1.84-.47,2.48,2.48,0,0,1-.85-.73,2.92,2.92,0,0,1-.5-1.61,5.61,5.61,0,0,1,.34-2A9.39,9.39,0,0,1,74.68,51.07Z"/><path d="M87.12,45.31a2.21,2.21,0,0,0,0,1.35,1.21,1.21,0,0,0,1.1.52,3.52,3.52,0,0,0,1.4-.32,8.22,8.22,0,0,0,2.53-1.78,18.39,18.39,0,0,0,3.59-5.6,32.68,32.68,0,0,0,1.2-3.11,28.23,28.23,0,0,0,.87-3.21,13.72,13.72,0,0,0,.32-3.23,5.8,5.8,0,0,0-.24-1.48,1.63,1.63,0,0,0-.31-.6.64.64,0,0,0-.5-.26,1.09,1.09,0,0,0-.58.3,4.36,4.36,0,0,0-.5.56,11.67,11.67,0,0,0-.68,1.1l-.17.32c-.34.64-.63,1.27-.92,1.89l-.42.93c-.19.41-.38.81-.58,1.21-.34.69-.71,1.37-1.07,2s-.75,1.33-1.13,2c-.55.91-1.12,1.82-1.67,2.75-.24.4-.47.8-.71,1.22S88,43,87.76,43.64c-.08.15-.14.3-.21.45A8.39,8.39,0,0,0,87.12,45.31Zm-.8-.47a8.84,8.84,0,0,1,.41-1.65,18.1,18.1,0,0,1,1.15-2.61c.81-1.58,1.65-3,2.55-4.39s1.82-2.79,2.9-4.27L95,29.58c.29-.4.58-.82.91-1.22a4.85,4.85,0,0,1,.54-.57,1.21,1.21,0,0,1,.68-.33.71.71,0,0,1,.58.28,2.39,2.39,0,0,1,.36.6,7.74,7.74,0,0,1,.38,1.49,16.15,16.15,0,0,1,.14,3.36c0,.58-.1,1.17-.2,1.76s-.23,1.17-.39,1.75a18,18,0,0,1-1.32,3.35,19.8,19.8,0,0,1-4.23,5.44,12.08,12.08,0,0,1-2.62,1.89,4.87,4.87,0,0,1-1.49.51,2,2,0,0,1-.83-.06,1.54,1.54,0,0,1-.86-.7,2.91,2.91,0,0,1-.36-1.25A4.86,4.86,0,0,1,86.32,44.84Z"/><path d="M96.63,15.82a2.58,2.58,0,0,0-.43,1.27c-.06.49-.11,1-.13,1.43,0,.92,0,1.78-.08,2.62,0,1.67-.15,3.25-.32,4.79s-.42,3-.61,4.51c-.1.74-.18,1.49-.21,2.23a8,8,0,0,0,0,1.1c.05.34.17.68.37.78s.59,0,.89-.29a4.23,4.23,0,0,0,.85-.93,9.92,9.92,0,0,0,1.21-2.44A18.24,18.24,0,0,0,99,25.35a30.91,30.91,0,0,0-.39-5.6,13.16,13.16,0,0,0-.7-2.63,4.94,4.94,0,0,0-.57-1.05C97.16,15.81,96.88,15.6,96.63,15.82Zm0-.12a.38.38,0,0,1,.44-.09,1.4,1.4,0,0,1,.4.3,5.15,5.15,0,0,1,.66,1,13.87,13.87,0,0,1,1,2.47,16.53,16.53,0,0,1,.65,5.87A20,20,0,0,1,98.48,31a14.15,14.15,0,0,1-1.22,2.54,6,6,0,0,1-.86,1.08,2.43,2.43,0,0,1-.58.41,1,1,0,0,1-.78.06,1.12,1.12,0,0,1-.58-.53,2.07,2.07,0,0,1-.25-.63,5.69,5.69,0,0,1-.17-1.2,16.8,16.8,0,0,1,.1-2.26c.15-1.46.35-2.89.58-4.38s.47-3.05.76-4.79c.13-.87.27-1.78.39-2.74.07-.48.13-1,.23-1.48a6.3,6.3,0,0,1,.18-.75A1.5,1.5,0,0,1,96.6,15.7Z"/><path d="M70.71,29.44a1.75,1.75,0,0,0-1,.09,2.72,2.72,0,0,0-.81.48,7,7,0,0,0-1.14,1.3,21.34,21.34,0,0,0-1.57,2.89c-.47,1-.92,2-1.44,2.92S63.63,39,63.09,40,62,41.91,61.34,42.89s-1.23,2-1.85,3.14a36.24,36.24,0,0,0-1.79,3.82,15.47,15.47,0,0,0-.73,2.4A5.51,5.51,0,0,0,57,55a3.48,3.48,0,0,0,1.89,1.86,4.9,4.9,0,0,0,2.39.35,8.39,8.39,0,0,0,4.26-1.75c2.54-1.9,4.23-5,5.45-8a34.38,34.38,0,0,0,1.52-4.6,30.08,30.08,0,0,0,.86-4.68,16,16,0,0,0-.15-4.78,8.77,8.77,0,0,0-.79-2.31,4.54,4.54,0,0,0-.71-1A2.25,2.25,0,0,0,70.71,29.44Zm0-.17a2.68,2.68,0,0,1,1.17.72,5.58,5.58,0,0,1,.81,1.07,12.29,12.29,0,0,1,1.07,2.4,22.15,22.15,0,0,1,1,5.28,20.73,20.73,0,0,1,0,2.73,20.18,20.18,0,0,1-.34,2.69,19.43,19.43,0,0,1-1.72,5,19.75,19.75,0,0,1-6.7,7.3,12.39,12.39,0,0,1-4.43,1.94,6.1,6.1,0,0,1-2.55,0,3.81,3.81,0,0,1-1.43-.71,5,5,0,0,1-1.47-2.06,9.13,9.13,0,0,1-.62-2.83,15.28,15.28,0,0,1,0-2.08,19.14,19.14,0,0,1,.54-3,25.88,25.88,0,0,1,1.5-4.1,35.16,35.16,0,0,1,3.21-5.74,31.43,31.43,0,0,1,3.92-4.58c.76-.75,1.56-1.51,2.42-2.31a11.78,11.78,0,0,1,1.41-1.16,4.29,4.29,0,0,1,.9-.48A2.15,2.15,0,0,1,70.72,29.27Z"/><path d="M66.34,41.45a3.82,3.82,0,0,0,.77,1.82,2.06,2.06,0,0,0,1.71.49,3.55,3.55,0,0,0,1.63-.69,7.67,7.67,0,0,0,2.28-2.85,18.33,18.33,0,0,0,1.48-7.8,33.61,33.61,0,0,0-.2-4,30.52,30.52,0,0,0-.65-3.92A14.92,14.92,0,0,0,72,20.78a7.44,7.44,0,0,0-1.12-1.57,3.52,3.52,0,0,0-.74-.56,1.24,1.24,0,0,0-.83-.15,1.21,1.21,0,0,0-.64.47,2.83,2.83,0,0,0-.37.71A8.27,8.27,0,0,0,68,21.13c0,.13,0,.27-.06.41-.11.82-.14,1.63-.18,2.43,0,.41,0,.81,0,1.2s0,1.07-.1,1.59c-.07.93-.18,1.84-.28,2.76s-.23,1.85-.37,2.78c-.17,1.08-.34,2.18-.47,3.34-.06.5-.11,1-.16,1.52,0,.7-.09,1.42-.09,2.19,0,.19,0,.38,0,.58A10.23,10.23,0,0,0,66.34,41.45ZM65,41a14.14,14.14,0,0,1-.43-2.25,22.76,22.76,0,0,1-.07-3.55,41.44,41.44,0,0,1,.68-5.75A47.74,47.74,0,0,1,66.59,24c.28-.93.59-1.89.92-2.89a14.17,14.17,0,0,1,.57-1.52,4.65,4.65,0,0,1,.44-.74,1.34,1.34,0,0,1,.75-.51,1.35,1.35,0,0,1,.94.15,3.92,3.92,0,0,1,.81.56,9.87,9.87,0,0,1,1.33,1.53,18.91,18.91,0,0,1,2,3.74,17.19,17.19,0,0,1,.72,2.09,17.68,17.68,0,0,1,.47,2.16,18.64,18.64,0,0,1,.17,4.34,19.17,19.17,0,0,1-2.44,7.77,11.28,11.28,0,0,1-2.33,3,4.92,4.92,0,0,1-1.64,1,2.51,2.51,0,0,1-1.11.08,2.9,2.9,0,0,1-1.5-.78,5.39,5.39,0,0,1-1.16-1.64A9.35,9.35,0,0,1,65,41Z"/><path d="M69.77,28.08a2.19,2.19,0,0,0,1,1,1.22,1.22,0,0,0,1.15-.42,3.56,3.56,0,0,0,.76-1.21,8.43,8.43,0,0,0,.53-3.05,18.52,18.52,0,0,0-1.42-6.49,32.25,32.25,0,0,0-1.35-3.06,29.43,29.43,0,0,0-1.66-2.88,13.58,13.58,0,0,0-2.06-2.51,5.48,5.48,0,0,0-1.21-.88,1.81,1.81,0,0,0-.65-.2.61.61,0,0,0-.53.17,1.07,1.07,0,0,0-.2.62,4.65,4.65,0,0,0,0,.75,11.61,11.61,0,0,0,.3,1.26c0,.12.07.24.1.35.22.69.46,1.34.7,2l.35,1q.24.63.45,1.26c.24.73.46,1.47.68,2.2s.42,1.47.61,2.21c.26,1,.5,2.07.76,3.13.12.45.24.9.37,1.35.17.62.36,1.24.59,1.87l.18.47A9.48,9.48,0,0,0,69.77,28.08Zm-.91.24A9.65,9.65,0,0,1,68,26.86a18.4,18.4,0,0,1-1-2.66c-.54-1.7-.94-3.28-1.3-4.9s-.68-3.26-1-5.08c-.16-.9-.32-1.83-.5-2.81-.07-.49-.17-1-.22-1.51a5.18,5.18,0,0,1,0-.79,1.22,1.22,0,0,1,.25-.71.72.72,0,0,1,.61-.21,2.22,2.22,0,0,1,.68.18,6.44,6.44,0,0,1,1.32.78,15.82,15.82,0,0,1,2.47,2.27,14.93,14.93,0,0,1,1.1,1.39,16.87,16.87,0,0,1,1,1.51,18.54,18.54,0,0,1,1.44,3.3,20.09,20.09,0,0,1,.85,6.84,12,12,0,0,1-.52,3.2,4.81,4.81,0,0,1-.69,1.4,2,2,0,0,1-.63.55,1.56,1.56,0,0,1-1.1.12,2.93,2.93,0,0,1-1.14-.64A6,6,0,0,1,68.86,28.32Z"/><path d="M55.63.5a2.64,2.64,0,0,0,.6,1.21c.3.39.61.76.92,1.1.62.68,1.22,1.3,1.8,1.91A46.71,46.71,0,0,1,62.1,8.33c1,1.21,1.85,2.44,2.76,3.63.46.59.93,1.17,1.43,1.72a7,7,0,0,0,.8.75c.28.21.61.37.82.29s.38-.44.42-.83a4.15,4.15,0,0,0-.06-1.26,9.36,9.36,0,0,0-.87-2.58,18.32,18.32,0,0,0-3.32-4.51,29.69,29.69,0,0,0-4.24-3.68A12.58,12.58,0,0,0,57.49.49,5.1,5.1,0,0,0,56.34.15C56,.12,55.66.17,55.63.5Zm-.1-.06a.37.37,0,0,1,.25-.37A1.12,1.12,0,0,1,56.27,0a5.7,5.7,0,0,1,1.16.21,13.75,13.75,0,0,1,2.47,1,16.45,16.45,0,0,1,4.61,3.69,20.35,20.35,0,0,1,3.17,5,14.11,14.11,0,0,1,.93,2.67A6.33,6.33,0,0,1,68.77,14a2.45,2.45,0,0,1-.12.7,1.1,1.1,0,0,1-.51.6,1.14,1.14,0,0,1-.79,0,2.33,2.33,0,0,1-.62-.27,5.59,5.59,0,0,1-1-.73,16.77,16.77,0,0,1-1.52-1.66c-.94-1.14-1.8-2.29-2.69-3.51s-1.83-2.49-2.86-3.93C58.17,4.48,57.63,3.74,57,3c-.29-.39-.6-.78-.89-1.21a7.31,7.31,0,0,1-.41-.66A1.53,1.53,0,0,1,55.53.44Z"/><path d="M46.94,28.46a1.74,1.74,0,0,0-.68.81,2.77,2.77,0,0,0-.23.91,7,7,0,0,0,.11,1.72,20.57,20.57,0,0,0,.93,3.16c.37,1,.75,2,1,3.09s.58,2.09.89,3.16.55,2.16.81,3.29.55,2.29.92,3.53a36.61,36.61,0,0,0,1.43,4,15.55,15.55,0,0,0,1.18,2.22,5.52,5.52,0,0,0,2,1.9,3.48,3.48,0,0,0,2.65,0,5,5,0,0,0,1.93-1.44,8.53,8.53,0,0,0,1.78-4.25c.45-3.14-.52-6.5-1.78-9.49a33,33,0,0,0-2.18-4.32A29.42,29.42,0,0,0,55,32.76a15.88,15.88,0,0,0-3.48-3.26,8.76,8.76,0,0,0-2.19-1.08,4.68,4.68,0,0,0-1.23-.22A2.37,2.37,0,0,0,46.94,28.46Zm-.12-.12A2.63,2.63,0,0,1,48.16,28a5.84,5.84,0,0,1,1.33.18,12.27,12.27,0,0,1,2.46.95,22.07,22.07,0,0,1,4.46,3,20.58,20.58,0,0,1,1.94,1.91A19.79,19.79,0,0,1,60,36.2a18.67,18.67,0,0,1,2.73,14.64A12.69,12.69,0,0,1,61,55.35a6.34,6.34,0,0,1-1.82,1.79,4.06,4.06,0,0,1-1.52.51,5.07,5.07,0,0,1-2.5-.42,9,9,0,0,1-2.43-1.57,12.22,12.22,0,0,1-1.44-1.5,19.32,19.32,0,0,1-1.73-2.48,25.71,25.71,0,0,1-1.84-4,35.06,35.06,0,0,1-1.79-6.33,31,31,0,0,1-.46-6c0-1.07,0-2.18.07-3.35a13.33,13.33,0,0,1,.18-1.82,4.3,4.3,0,0,1,.3-1A2.09,2.09,0,0,1,46.82,28.34Z"/><path d="M52.34,40a3.71,3.71,0,0,0,1.83.74,2,2,0,0,0,1.56-.86,3.52,3.52,0,0,0,.66-1.64,7.69,7.69,0,0,0-.4-3.62,18.35,18.35,0,0,0-4.47-6.57,36.12,36.12,0,0,0-3-2.7,31.78,31.78,0,0,0-3.24-2.31,15,15,0,0,0-3.57-1.66,7.47,7.47,0,0,0-1.91-.31,3.15,3.15,0,0,0-.92.13,1.26,1.26,0,0,0-.69.48,1.23,1.23,0,0,0-.11.78,2.56,2.56,0,0,0,.24.77,7.41,7.41,0,0,0,.77,1.27l.25.33c.5.65,1,1.25,1.59,1.85.28.29.55.59.82.88s.71.79,1,1.2c.6.7,1.17,1.43,1.75,2.15s1.14,1.47,1.71,2.23,1.3,1.78,2,2.69c.31.39.63.78,1,1.18s.94,1.07,1.47,1.62l.42.4A13,13,0,0,0,52.34,40Zm-1.27.57a13.86,13.86,0,0,1-1.9-1.29,22.62,22.62,0,0,1-2.56-2.46A40,40,0,0,1,43,32.31a46.39,46.39,0,0,1-2.84-4.76c-.45-.86-.91-1.76-1.39-2.7a14.39,14.39,0,0,1-.67-1.48,3.74,3.74,0,0,1-.21-.83,1.24,1.24,0,0,1,.93-1.45,4,4,0,0,1,1-.18,9.86,9.86,0,0,1,2,.14,19.71,19.71,0,0,1,6.08,2.17A18.55,18.55,0,0,1,53,27.37a19.23,19.23,0,0,1,3.76,7.21,11.29,11.29,0,0,1,.49,3.8,4.91,4.91,0,0,1-.47,1.85,2.55,2.55,0,0,1-.73.84,2.92,2.92,0,0,1-1.61.5,5.4,5.4,0,0,1-2-.34A8.44,8.44,0,0,1,51.07,40.61Z"/><path d="M45.31,28.17a2.13,2.13,0,0,0,1.35,0,1.21,1.21,0,0,0,.52-1.1,3.52,3.52,0,0,0-.32-1.4,8.22,8.22,0,0,0-1.78-2.53,18.39,18.39,0,0,0-5.6-3.59,32.68,32.68,0,0,0-3.11-1.2,28.23,28.23,0,0,0-3.21-.87,13.72,13.72,0,0,0-3.23-.32,5.8,5.8,0,0,0-1.48.24,1.79,1.79,0,0,0-.6.31.64.64,0,0,0-.26.5,1.05,1.05,0,0,0,.3.58,4.36,4.36,0,0,0,.56.5c.36.25.73.48,1.1.69l.32.16c.64.34,1.27.63,1.89.92l.93.42,1.21.58c.69.34,1.37.71,2,1.07s1.33.75,2,1.13c.91.55,1.82,1.12,2.75,1.67.4.24.8.48,1.22.71s1.13.61,1.74.9l.45.2A8.39,8.39,0,0,0,45.31,28.17Zm-.47.81a9.67,9.67,0,0,1-1.65-.42,18.11,18.11,0,0,1-2.61-1.14c-1.58-.82-3-1.66-4.39-2.56S33.4,23,31.92,22l-2.34-1.64c-.4-.29-.82-.57-1.22-.91a4.85,4.85,0,0,1-.57-.54,1.21,1.21,0,0,1-.33-.68.74.74,0,0,1,.28-.58,2.1,2.1,0,0,1,.6-.35,7.08,7.08,0,0,1,1.49-.39,16.15,16.15,0,0,1,3.36-.14c.58,0,1.17.1,1.76.2s1.17.23,1.75.39a18,18,0,0,1,3.35,1.32,19.8,19.8,0,0,1,5.44,4.23,12.33,12.33,0,0,1,1.89,2.62A5,5,0,0,1,47.89,27a2,2,0,0,1-.06.83,1.59,1.59,0,0,1-.7.87,2.75,2.75,0,0,1-1.25.35A5.66,5.66,0,0,1,44.84,29Z"/><path d="M15.82,18.66a2.58,2.58,0,0,0,1.27.43c.49.06,1,.11,1.43.13.92.05,1.78.05,2.62.08,1.67,0,3.25.15,4.79.32s3,.42,4.51.62c.74.09,1.49.17,2.23.2a6.71,6.71,0,0,0,1.1,0c.34-.05.68-.17.78-.37s0-.59-.29-.89a4.23,4.23,0,0,0-.93-.85,9.92,9.92,0,0,0-2.44-1.21,18.88,18.88,0,0,0-5.54-.84,30.91,30.91,0,0,0-5.6.39,13.16,13.16,0,0,0-2.63.7,4.94,4.94,0,0,0-1.05.57C15.81,18.13,15.6,18.41,15.82,18.66Zm-.12,0a.38.38,0,0,1-.09-.44,1.55,1.55,0,0,1,.3-.4,5.67,5.67,0,0,1,1-.66,13.87,13.87,0,0,1,2.47-1,16.53,16.53,0,0,1,5.87-.65A20.37,20.37,0,0,1,31,16.81,14.15,14.15,0,0,1,33.54,18a6,6,0,0,1,1.08.86,2.43,2.43,0,0,1,.41.58,1,1,0,0,1,.06.78,1.14,1.14,0,0,1-.53.59,2.75,2.75,0,0,1-.63.25,6.39,6.39,0,0,1-1.2.16,16.8,16.8,0,0,1-2.26-.1c-1.46-.14-2.89-.35-4.38-.58S23,20.1,21.3,19.81l-2.74-.39c-.48-.07-1-.13-1.48-.23-.25-.05-.51-.1-.75-.17A1.63,1.63,0,0,1,15.7,18.69Z"/></g></g></svg>