<svg xmlns="http://www.w3.org/2000/svg" viewBox="0 0 228.87 359.9"><title>Recurso 30GRAPHS</title><g id="Capa_2" data-name="Capa 2"><g id="Capa_1-2" data-name="Capa 1"><path d="M144.49,33.57a1.05,1.05,0,0,0,.91-.88c.07-.46.44-.6.63-.9.74-.38,1.25.31,1.82.38,2.83-2.83,5.62-5.63,8.37-8.37h9.45c.27.3.81.45.73,1.13l-.61.31c-.49.32-.55.38-.61.4a.89.89,0,0,1-.23,0h-7.82l-8,8,.48.88c-.15.64-.79.89-1.14,1.37-.63-.07-.84.45-1.24.75.58.43,1.15.09,1.75.33l.42.39h.9l.88.88h1.48l.69,1H155l.52.48h.92l.86.86,1.05.12.86.86h.89l.54.48h.89l1,.92c.35,0,.78-.08.94.08.53.54,1.53.42,1.68,1.32h1c.81,1.15,2.43,1.14,3.25,2.31h.86l.4.3c.35.27.53.81,1.12.67.24.46.87.32,1.11.66.5.73,1.53.71,2,1.47.29.5.83.59,1.28.84s.57.65,1.08.8.83.59,1.26.89c.17.12.46.13.57.29.69.94,1.93,1.19,2.63,2.12.4.55,1.21.54,1.63,1.15a3.7,3.7,0,0,0,1.31,1.3c1.44.69,2.25,2,3.52,3l.53.13a2.07,2.07,0,0,0,.84,1.3H190l.29.85.68.14.21.62,1.34.87v.61l.68.25,1.6,1.74c0,.74.84.88,1.45,1.23v.52l.68.24c.31.37.38,1,.94,1.33s.65,1,1,1.44A15.68,15.68,0,0,0,200,72.55a4.47,4.47,0,0,1,1,1.43c.21.52.84.87,1.26,1.27v.59l.7.23a10.65,10.65,0,0,0,.95,1.78,13.26,13.26,0,0,0,1.56,1.54,4.24,4.24,0,0,0,1.41,2.4v.94a7.92,7.92,0,0,0,1,1c.43.29.32.89.67,1.11.63.41.6,1.22,1.14,1.65,0,.71.61,1,1,1.45v.93c.6.48.46,1.51,1.37,1.7l.05,1.19.91.65c0,.48-.12.88,0,1.08.44.59.57,1.4,1.35,1.8-.21,1.19.78,2,1,3.06a13.94,13.94,0,0,0,1.36,2.93v1.13l.85.85c.25.44-.29,1.16.51,1.34V106l1,1v1.37l.47.51a2.42,2.42,0,0,0,.42,1.48,3.24,3.24,0,0,1,0,1.28l.43.43v1.73l1,1.69v1.72l.48.52v2.13c.2.42.33.68.46.93s.23.38.42.7v3.54l.48.6V127l.48.56v5.54l.48.52v6l-.45.48c-.09.37.15.56.32.82a2.59,2.59,0,0,1,.18.87l-.57.83.47.79v6.06l-.38.38c-.15,8.21-.1,17.71.1,20.24l1,.12.74.63,0,.51c-.5.52-1.2-.05-1.8.38V341.49l-.74.74h-.47l-.67-1.32v-2.13a3.14,3.14,0,0,0,.44-.95c-.25-.29-.25-.29-2.64-.18l-.42.41H217l-.42.43h-1.46l-.57-.72.35-.43-.62-.66H14.12c-.35.51-.11,1.06-.18,1.61a2.34,2.34,0,0,1-1.7.14l-.37-.37H9.58L9,337.57H6.74c-.06,0-.12.09-.26.21V342c-.13.13-.19.22-.25.23H5.32c-.07-.06-.17-.12-.17-.17q-.06-85.17-.1-170.44l-1.16-.06c-.36-.4-.23-.83-.07-1.3l1.08-.13c.06-.13.18-.26.18-.39V148.06l-.47-.51v-5.1L4.17,142V141l.4-.39v-5l.51-.66c0-2.12,0-4.36,0-6.61,0-.29,0-.77.1-.86.62-.38.16-1,.48-1.46.1-.12.22-.22.34-.34v-2.77l.48-.52v-2.63l.88-1.65V116l.45-.57c0-.48-.07-1.13.2-1.49a2.15,2.15,0,0,0,.33-1.3l.46-.51v-1.87l.9-.84v-1.91l.45-.46v-1.48l1-.49v-1.74c.39-.3.38-.83.66-1.13s.18-.73.31-1a13.18,13.18,0,0,1,1.17-2.31c.25-.37.15-.72.24-1.26l.9-.68V95.83l.48-.51v-.91l.86-.86c0-.34,0-.8.16-1.06.44-.59.54-1.44,1.3-1.75v-1c.75-.3,1-1.11,1.26-1.75a5.67,5.67,0,0,1,1.05-1.45v-.87c.46-.72,1.39-1,1.48-2a4.13,4.13,0,0,0,1.31-2c.18-.57.91-.77.91-1.24,0-.82,1.1-.91,1-1.71l1.24-1.38.78-1.68,1.7-1.7V73.4c.59-.57,1.19-1.18,1.81-1.76s.76-1.45,1.47-2A17.14,17.14,0,0,0,33,67.87c.6-.6,1.18-1.23,1.82-1.8a3,3,0,0,0,.67-1.13c.17-.4.76-.53.8-1.06.47,0,.62-.42.89-.67.68-.63,1.31-1.32,2-2s1.46-1.36,2.19-2c1-.09,1.13-1.46,2.2-1.44.11,0,.21-.22.33-.31,1-.77,1.58-1.87,2.71-2.46s1.65-1.58,2.56-2.32h.43c.45-.39.78-.88,1.46-1a2.72,2.72,0,0,0,1.27-.81c.34-.36.87-.35,1.12-.66.66-.79,1.67-.91,2.44-1.46v-.46c.83-.6,2-.66,2.52-1.65h1c.31-.76,1.19-.82,1.74-1.31.21-.18.55-.19.78-.35a5.26,5.26,0,0,0,.68-.66h.9c.49-.34.74-1,1.48-1,.33-.58.92-.39,1.35-.42l.9-.9c.87.1,1.48-.51,2.22-.8s1.24-.85,2-.67l.84-.84,1-.12.38-.38H75.3l.76-1h1.42a9.62,9.62,0,0,1,1.41-.81c.54-.2,1.14-.15,1.65-.55.24-.19.75,0,1.12,0l1.64-.92h1.25l.51-.48H86.3L88,34.55h2l1.75-1h2.15l.54-.48h4.15l.52-.47H100l.52-.48h4.61l.61-.53.83.45.5-.4h6l.42-.43h4.2l.49.45h5.13l.24.27c.13.11.19.2.25.2h4.64c.3.81,1.15.22,1.6.67s1.17.21,1.75.25,1.23,0,1.77,0l.4.4a.53.53,0,0,0,.2.07h2.55l1.63.93H141c.35.56,1.07.47,1.51.91.15.15.58,0,.88,0,.19-.37.69-.46.67-.94.15-.1.38-.17.45-.31A1.82,1.82,0,0,0,144.49,33.57ZM217.7,170.63l-.92.08c0,.9,0,1.71,0,2.52,0,.06.1.11.25.27l.66-.77a10.2,10.2,0,0,0-.13-2c.36-.1.72-.07.4-.47A1.34,1.34,0,0,0,217.7,170.63ZM85.29,38.23H83.66l-.51.48h-.93c-.34.79-1.37.12-1.75.84l-1.55.15c-.29.28-.56.56-.83.83l-1.48.08-.42.41c-.54,0-1.07-.05-1.43.48-.63-.13-1,.8-1.67.46a8.51,8.51,0,0,1-1.71.9c-.53.14-.72.5-1,.85l.24.69a6.36,6.36,0,0,1,1.21-.55c.44-.11.66-.68,1.2-.49s.71-.61,1.2-.45.76-.32,1.06-.38l1.17.63c.1.62-.44.79-.71,1.14h-.76l-3,1.56-.63,1.27a1.33,1.33,0,0,0,1,.89c1.21-.47,2.23-1.37,3.58-1.48.27-.28.55-.55.82-.82.52-.11,1.06.1,1.56-.16l.33-.33H79.6l.75-1h1.31l1.78-1h1.19l.47-.47H87l.15-.64-1.31-1.15H84.7l-1.57.86H80.72a2.36,2.36,0,0,1-.08-1.14c.33-.17.66-.31,1-.5s.89-.2,1.14-.65h1.44c.27-.51,1-.72,1-1.33.36-.11.72-.07.41-.48A1.17,1.17,0,0,0,85.29,38.23Zm58.27,206.56h2.09l.51-.48h.78l1.7-1h1.25l.86-.86,1-.09.41-.41h1.38l1-.94a2.67,2.67,0,0,0,.49,0c1-.18,1.76-1,2.84-1.05.37,0,.72-.41,1.11-.65l-.19-.61h-1.47l-1,.93h-.91l-.42.41a8.49,8.49,0,0,1-2,0c-.06,0-.11-.1-.17-.17v-1.08c.73.12,1.13-.83,2-.56a8.64,8.64,0,0,1,2.09-1.08l.64-1.49-.76-.77a6.62,6.62,0,0,0-1.48.65c-.47.38-1.07.45-1.52.82-.6-.22-1,.32-1.43.48s-1,.63-1.67.48c-.33.58-.92.4-1.42.49l-.9.9h-1.87l-.9.91h-1.38l-.52.48h-1.85c-.06,0-.11.1-.16.16.4.5.46,1.21,1.07,1.64h1.78l1.68-.88c.48.13,1.17-.17,1.88.12v1.1c-.38.23-.88.22-1.14.64-.46-.13-.64.37-1,.45s-.85,0-1.26.36-.82.19-1.23.26a1.23,1.23,0,0,0,.13.74c-.36.11-.72.07-.4.48A1.68,1.68,0,0,0,143.56,244.79ZM211.12,94.52c.1.36.06.72.47.41a1.34,1.34,0,0,0-.42-.28c-.29-.89-1.09-1.58-1-2.62l-.82-.82c.14-.81-.52-1.35-.66-2.06-.64-.36-.7-1.13-1.15-1.62,0-.78-.9-1-1-1.67s-.67-.81-1-1.24c.24-.61-.71-.81-.49-1.42-.29-.43-.85-.61-.94-1.26a4.2,4.2,0,0,0-.73-1.3,3.21,3.21,0,0,1-.32.85.85.85,0,0,0-.3.83c.28.4.82.59,1,1.22.08.39.78.69.79,1,0,.59.74.82.57,1.42-.34.27-.5.81-1.08.72-.62-.26-.71-.9-1-1.39s-1.18-.78-1.17-1.61c-.44-.41-.75-1-1.28-1.19h-.77c-.28.33-.83.47-.73,1.18a3.09,3.09,0,0,0,.58.55c.4.24.19.77.49,1,.69.44.7,1.32,1.3,1.81s.53,1.21.91,1.7a10.87,10.87,0,0,1,1.22,1.84,3.28,3.28,0,0,0,.84,1.29c.11.08.16.24.23.34l0,.85.86.85c.14.45-.12.92.34,1.32.3.27.21.9.68,1.09s.25.87.59,1.09l1.26-.66c-.14-.47.12-1-.15-1.51l-.34-.34V94l-1-1v-.81l-.64-1c.55-.13.59-.74,1.18-.73a1.23,1.23,0,0,1,.87.92c.11.59.71.77.94,1.24-.12.8.43,1.37.7,2A3.17,3.17,0,0,0,211.12,94.52ZM67.56,44.76a1.18,1.18,0,0,0-.46,0c-.65.29-1.32.58-1.93.93a11.33,11.33,0,0,0-1.23.93c-.75-.17-1.23.44-1.86.61-.41.12-.55.68-1.06.81a5.09,5.09,0,0,0-1.35.65c-.38.23-.54.69-1.1.76-.31,0-.59.44-.84.72s-.71.12-1,.47-.87.22-1.1.67-.81.34-1.13.66l-.95,1c.53.42,1.09.14,1.67.23.37-.79,1.31-.86,1.91-1.41.58.09.75-.45,1.11-.7a3.33,3.33,0,0,1,.39-.24l.84,0a3.37,3.37,0,0,1,.13,1.62c-.63.36-1.32.59-1.92,1s-1.2.85-1.78,1.26v1l-.46.5c.32.21.45.65,1.09.7.26-.65,1.27-.36,1.67-1.14s1.49-.72,1.94-1.48c.06-.1.25-.13.38-.19a24.88,24.88,0,0,0,4.16-2.31,10.43,10.43,0,0,1,1.92-1,5,5,0,0,0,2-1.3c0-.05.13-.06.26-.13h.64l.84-.63-1.17-1.2H67.91c-.59.34-1.07.83-1.6.88-.74.08-.85.87-1.53,1l-.85,0a2.84,2.84,0,0,1,0-1.76l.7-.15.77-.85h1l1.16-1.16a1.09,1.09,0,0,0-.13-.65c.36-.1.72-.07.41-.47A1.24,1.24,0,0,0,67.56,44.76ZM14.87,126.59v4.89a.64.64,0,0,0,0,.24,1.54,1.54,0,0,0,.24.25h2.13l1.4.73c-.14.38.12.81-.28,1.11H14.65l-.74,1.43v2.1l-.43.44c0,.9,0,1.83,0,2.76,0,.06.09.12.21.27h28.1a2.84,2.84,0,0,1,.68.19c-.23.39.11.82-.34,1.22H13.46c0,.59,0,1.11,0,1.62l.47.54v4.05l.65.76h3.55c.13,0,.26.12.38.17v1.08c-.6.24-1.3,0-1.69.61-.66.07-1.36-.18-2,.19V156l.48.52V159a7.52,7.52,0,0,1,.44,1c.06.28-.07.62.24.83s.23.54.23.84,0,.62,0,.93v.61l1,1.79c.05.3-.16.85.12,1.35a1.54,1.54,0,0,0,1.28-.14,2.92,2.92,0,0,1,2-.71c.28.34.83.48.8.7l-1.15,1.63c-.89,0-1.59,0-2.29,0-.12,0-.23.16-.34.24v.8l.89,1.58.11,1.41c.65.31.15,1.07.51,1.4s.32.83.35,1.29l.46.51v1.53l1,.75c-.19,1,.66,1.6.5,2.43l.86.86v1.42l1.21,1.1.93-.88h1.15l.58-.92L27,182v1l-.68.68h-1a6.79,6.79,0,0,1-.8.81,3.5,3.5,0,0,1-.83.31l1,1a2,2,0,0,1,0,.49c-.11.46.46.65.45,1,0,.76.87.85.95,1.48v.73l.94,1c-.2.54.4.75.51,1.2s.7.67.78,1.06.44.75.58,1.16.36.78.67,1.44a4,4,0,0,1,.9.95,8.24,8.24,0,0,1,.78,1.54c.09.31.43.53.69.83.27-.47.25-1,.7-1.22s.65-.32,1-.5.44-.66.7-.66c.65,0,.78.48,1.1.69v.92a4.12,4.12,0,0,0-1.42,1c-.24.27-.42.66-.87.7a1.58,1.58,0,0,0-.49.22l.88.88.14.65.69.17c.11.27.21.54.33.8s.26.51.52,1l2.11,2.08v.47l2.28,2.28.13.64.7.18c.11.27.2.55.33.8.23.44.87.38,1.08.69s.31.83.71,1.09a2,2,0,0,0,.59.16l2.34-2.35c.36.08.78-.17,1.11.18v1c-.77.76-1.49,1.47-2.19,2.2-.08.09-.06.28-.09.42.19.69.91.69,1.35,1l.1.5,2,2.12h.47l2.32,2.32H51c.36.37.73.76,1.12,1.15l1.15,1.15c.66-.09.86.55,1.3.81a12.93,12.93,0,0,0,1.36.63c1.27-.56,1.37-2.17,2.63-2.82l.55.15v2.06l-1.36,1.14v1.18c.29.23.72.11,1,.43s.87.22,1.1.68.82.33,1.13.66.9.19,1.12.66,1,.37,1.29.83,1.18.61,1.65,1.08c.81-.12.9,1.08,1.71.93.3.5.92.42,1.33.77a6.31,6.31,0,0,0,1.36.64c.45.22.89.46,1.34.7l.38.17c-.06-.83.73-1.1,1-1.64l.05-.91.73-.7c.36.14.78-.13,1.09.27v.92l-.46.5v1.14l-.88.58,1.09,1.32h1.48c1.09.39,1.88,1.48,3.2,1.39l1,.93h1.35l.56.48h1.34l.94.94h1.6l2,1,.75-.76v-1.82a6.6,6.6,0,0,1,1.3-1.24l.52.15v2a1.14,1.14,0,0,0-.43,1,3.71,3.71,0,0,1-.38,1l1.47.08,1.72.95h2.16l.38.38c.82.12,1.67-.05,2.42.09l.37.37c.7.16,1.4-.1,2,.1l.45.42h4.18c.18.19.19.19.68.25V239l.48-.51c.08-.36-.17-.77.18-1.11h1c.08.11.16.17.16.23,0,1.24,0,2.48,0,3.6-.12.34-.65.41-.24.79H113a3.53,3.53,0,0,0,.46,0c.07,0,.12-.1.25-.22v-3.63q0-12,0-24a1.67,1.67,0,0,1,.18-.56h.52l.69.69v27.24a.88.88,0,0,0,0,.23,2,2,0,0,0,.22.27h6.88c.12,0,.24-.15.27-.17.32-.57-.22-.72-.34-1,0-1.15,0-2.23,0-3.32,0-.05.1-.11.15-.16l.41,0,1.26,1.25a28.79,28.79,0,0,0,.08,3l.67-.5h4.14l.5-.5h1.86l.5-.49h2.33l.41-.41h2.33c.25-.56.91-.44,1.32-.79s.87-.1,1.32-.16c.14,0,.25-.13.38-.21l-.46-.51v-.75l-.82-1.55c.23-.43.42-.8.6-1.15h.94l.68.68v1.9c.1.09.25.17.32.3a8.53,8.53,0,0,1,.3.81h1.1l.71-.91h2c.24-.58.94-.37,1.32-.81s1.09.14,1.4-.51l1.52-.12.87-.88h.92l.52-.48h.79a16.34,16.34,0,0,1,1.62-.91.79.79,0,0,1,.53,0l1.4-1.07-1.36-2.64.08-.9H156a2,2,0,0,1,.36.36c.49.94,1,1.89,1.41,2.74.88-.23,1.49-1,2.35-.88a13.17,13.17,0,0,1,1.16-.86c.44-.25.93-.4,1.36-.65s.6-.61,1.07-.8a4,4,0,0,0,1.87-1.16c.25-.33.8-.27,1.13-.65a3.52,3.52,0,0,1,1.27-.82,11.41,11.41,0,0,0,1.16-.58,15,15,0,0,1,1.41-.61l1-1-.59-.6c-.22-.22-.45-.43-.66-.67s-.09-.74-.49-1a1.94,1.94,0,0,1-.48-.46,11.36,11.36,0,0,1,.49-1.14c0-.09.26-.09.41-.13.41.08.58.46.86.71a1.39,1.39,0,0,1,.5.73c.08.33.45.58.65.89a7.85,7.85,0,0,1,.44.86l1.14-.55,1.7-1.7H176l1.79-1.81c1-.14,1.47-1,2.1-1.67s1.54-.91,2.15-1.62,1.53-1.54,2.29-2.32a4.8,4.8,0,0,0,.39-.63l-2.48-2.49c.16-.34-.15-.77.25-1.1h1l1.91,1.92c.22.21.41.47.89.36l.57-.56,1.48-1.49c0-.91.84-1.22,1.33-1.77s1.32-1.32,2-2v-.5c.61-.61,1.43-1.12,1.76-1.85s1.09-1.11,1.34-1.77a6.9,6.9,0,0,1,1.55-2,5.58,5.58,0,0,1-.91-.47,3.36,3.36,0,0,1-.82-.82c-.28-.44-.87-.22-1.15-.64-.16-.25-.45-.42-.32-1l.6-.63a23.38,23.38,0,0,1,2.49,1.12c.32.13.52.55.78.83.38-.38.72-.71,1-1a2.14,2.14,0,0,0,.71-1.11c.07-.37.59-.65.83-.89l0-1,1.37-1.34v-.94c.3-.43.82-.62,1-1.24.11-.46.6-.82.89-1.18v-.78c.23-.47.77-.68.95-1.23s.59-1,.51-1.51c.16-.55.7-.66.79-1.2-.8.06-1.08-.72-1.61-1l-.92-.05-.63-.67v-.92l.64-.69c.87.72,2.15.77,2.73,1.8l1.45-1.24c-.69-.72.35-1,.25-1.46-.14-.69.61-1.05.5-1.68.79-.29.28-1.11.64-1.6a3,3,0,0,0,.71-1.55c0-.67.58-1,.57-1.67s.5-1.17.88-2v-1.15l.48-.52V169c.35-.34.75-.65.22-1.14h-2.37c-.3-.32-.64-.64-.94-1-.13-.16-.17-.4-.12-.28l.58-1.09a4.6,4.6,0,0,1,2.38.95h.93c.26-.66.83-1.23.7-2l.45-.51c.06-.66-.05-1.35,0-1.88l.45-.47v-3.12l1-1.7v-4.07c.6-.4.47-.92.31-1.53h-2.45c-.33-.82-1.19-.27-1.61-.73.05-.38-.16-.77.17-1.15h3.32l.69.53v-3.6c.32-.32.6-.59.88-.88v-2.91c-.11-.08-.17-.17-.22-.17H186.88a.51.51,0,0,1-.22,0c-.07,0-.11-.1-.17-.16a1.75,1.75,0,0,1,.16-1.2h27.63c.37,0,.78.16,1.08-.22v-3l-.93-.65a15.26,15.26,0,0,0,0-1.53c0-.52.24-1.08-.21-1.56h-3.48a.87.87,0,0,1-.23,0c-.07,0-.12-.09-.18-.14l-.11-.56,1.24-1.16c.9,0,1.75,0,2.61,0,.12,0,.24-.14.37-.22v-.93l-.48-.51v-3.72c-.76-.3-.32-1.08-.64-1.6-.67-1.1,0-2.4-.36-3.58l-.38-.39c0-.48,0-1,0-1.55s-.57-.82-.52-1.44c0-.44-.37-.91-.59-1.39h-1.29l-1.95,1c-.34-.43-.87-.6-.79-1.1l1.19-1.37H211c.5-.6-.17-.82-.31-1.19s.25-1.1-.23-1.54-.14-1-.23-1.49l-.94-1.7v-.76l-.47-.51v-1.71l-1-.58v-1.45l-.88-.88v-.9l-.48-.53v-.93l-1.18-1.13-1,.92h-.9c-.36.27-.55.71-1,.83l-.61-.65c.09-.55-.22-1.11.21-1.58,1.2.11,2-.88,3.08-1.12l-1-1v-1.1l-.92-.64c0-.43.08-.7,0-.89a4.81,4.81,0,0,0-.92-1.47c-.44-.38-.34-1-.8-1.31a3,3,0,0,1-.93-1.48,5.12,5.12,0,0,0-1.06-1.45v-.9c-.32-.35-.84-.65-.89-1-.08-.55-.48-.76-.75-1.1s-.58-.72-.84-1l-.78.26v.54L194,86.67c-.14-.63-1.22-.13-1-1.14.25-.25.56-.58.9-.89s1-.35,1.3-.81a4.21,4.21,0,0,1,1.07-.69,2.72,2.72,0,0,1-1.12-1.42A3.6,3.6,0,0,0,194,80.56c-.51-.39-.54-1-1-1.48s-1.08-.68-1-1.46c-.65-.65-1.32-1.3-2-2a9.63,9.63,0,0,1-1.53-1.93,12.12,12.12,0,0,0-1.93-2,.84.84,0,0,0-.9-.36l-2.34,2.35c-.42-.13-.85.12-1.11-.29V72.5c.77-.78,1.54-1.54,2.3-2.32,0,0,0-.15,0-.22s-.06-.31-.16-.4c-1-1-2.07-2.1-3.13-3.13-.14-.14-.45-.1-.59-.23a11.5,11.5,0,0,1-1.66-1.61c-.53-.7-1.48-.73-2-1.45a4,4,0,0,0-1.32-1.3,4.4,4.4,0,0,1-1.58-1.2c-.39-.53-1.13-.4-1.48-.94-.3.41-.33,1-.82,1.28s-.2.87-.65,1.15-.64.9-1.32.81l-.61-1.24.38-.38v-.66L171,59.54V58.46c-.3-.3-.82-.06-1-.51-.9-.17-1.38-1.08-2.25-1.32a3.41,3.41,0,0,1-1.47-1c-.3-.3-.8-.28-1.13-.65a2.67,2.67,0,0,0-1.28-.82,3.25,3.25,0,0,1-1.46-1h-.9c-1.05-1.18-2.6-1.48-3.77-2.25-.59,1-1,2-1.61,2.91a1.36,1.36,0,0,1-.35.27c-.36-.07-.78.16-1.07-.24v-.77L156,50.66l-.78-1A19.69,19.69,0,0,1,151.53,48h-1.35l-.76-1h-1l-.58-.48h-1.15L145,45.7c-.47-.06-.94.12-1.36-.14l-.33-.33h-.92l-.51-.47-.46,0-.67,1.29v1.26l-.69.63H139l.16-.21-.7-.33.89-1.69c-.05-.44.11-.91-.13-1.34a6,6,0,0,1-2.6-1h-2.17l-.46-.45h-2.3l-.52-.48h-.91l-.53-.49h-4.13l-.56-.47c-.36.11-.79-.14-1.08.26v2.8l-1.19,1.17-.62-.72V42.14c.33-.33.66-.59.2-1.1h-3.69l-.54-.43h-2.85c-.08.11-.16.17-.16.23q0,14.1,0,28.21a.56.56,0,0,1,0,.22,1.21,1.21,0,0,1-.16.16c-.37,0-.75.15-1.1-.08,0-.07-.1-.13-.1-.19q0-14.1,0-28.21a.39.39,0,0,0-.06-.21,1.36,1.36,0,0,0-.17-.17H110.7l-.5.46c-.54,0-1.09,0-1.63,0s-1.23-.2-1.87.19v3.88l-.24-.16-.36.77c-.73-.5-.75-1.28-1.1-1.61-.34-1,.12-1.82-.32-2.59-.52-.19-.72.24-1,.45H99l-.54.48H97.14l-.43.44H94.84l-.49.5H92.19l-1.81,1c-.1,0-.51-.23-.86.12V46l.42.42c0,.58,0,1.19,0,1.81,0,.06-.08.12-.15.23l-.38,0-1.35-1.1V45.45l-.68-.69-.51.48H86l-.55.48H83.77l-1.79,1H80.79l-.4.4h-.9l-1,.92c-.41.1-.84-.15-1.13.23s-.82.25-1.15.63-.92-.13-1.24.35-.91,0-1.26.33-.67.66-1,1c0,0,0,.1,0,.16l.82.82v.92l.47.51c-.08.37.17.79-.22,1.12H73l-.72-.58-.06-1.07-.68-.68c-.32-.41,0-.82-.52-.85l-.85.85h-.86c-.5.25-.71.79-1.27,1a4.06,4.06,0,0,1-1.6.49,10,10,0,0,1-1.1.86c-.43.26-.93.39-1.37.62s-.54.73-1.08.81-.89,1-1.68,1c-.22.47-.86.25-1.12.66s-.86.56-1.28.84a7,7,0,0,0-1,1l.47.51v.63l.92.66c0,1.49,0,1.49-.24,1.71H58c-.48-.32-.6-.84-.87-1.28a2.43,2.43,0,0,0-1.11-1c-.58-.16-.7.74-1.27.45-.47.34-.72,1-1.46,1,0,0-.11.11-.16.16-.39.39-.75.79-1.16,1.15s-.7,1.05-1.45,1c-.39.39-.78.77-1.16,1.16-.54.55-1.07,1.12-1.55,1.62l-.61,0-.23.64-1.34.89v.55c-.49.31-1.14.39-1.41,1.08l.2.54h.48L46.57,72v1c-.35.28-.56.77-1.16.68l-2-2.07L43.2,71,41,73.17v.44a1,1,0,0,0-1.25.66A4.62,4.62,0,0,1,38.38,76a10.22,10.22,0,0,0-1.77,1.84A10.74,10.74,0,0,1,34.92,80c.15.59-.4.77-.66,1.12s-.67.56-.78,1.09-.55.7-.87,1.08a3,3,0,0,1,1.58,1.1c.85,0,1.07.79,1.68,1.18a7.57,7.57,0,0,1-.64.63c-.21.15-.28.53-.31.52l-1.09-.52-.16.21-1.18-1.49H31.24c.07.49-.36.81-.46,1.18a1.52,1.52,0,0,1-.58.92c-.43.28-.29.86-.65,1.14a4.49,4.49,0,0,0-.85,1.27c-.3.42-.31,1-.77,1.34A2.45,2.45,0,0,0,27.11,92a3.18,3.18,0,0,1-1,1.46v.89a4.41,4.41,0,0,0-1.47,2.91c-.24.34-.71.5-.79,1a14.29,14.29,0,0,1,2.91,1.5,1.62,1.62,0,0,1,.27.35c-.07.36.16.78-.23,1.07h-.93l-.51-.47H24.17l-.61-1a5,5,0,0,0-1.29,2.72l-.83.82-.09,1-.41.41v.91l-1,1V108c-.53.29-.41.78-.45,1.23s-.62.53-.45,1-.41.78-.48,1.19v1.19c-.37.29-.36.82-.64,1.12a1.17,1.17,0,0,0-.07,1.53h2c.72.3,1.05.43,1.38.58.05,0,.06.13.1.21l0,.69-.73.94-1.91-1H17.28l-.1,1.14c-.72.33-.24,1.13-.65,1.6s-.24,1.33-.23,2-.78,1.16-.51,1.91c0,.08-.16.23-.26.35l-.24.25v2.33ZM202.54,207c-.24.94-1,1.44-1.64,2.12v.45l-2.32,2.32v.63c-1.1.28-1.19,1.55-2,2.28s-1.66,1.64-2.48,2.47l-2.31,2.31h-.49l-.44,1h-.49l-.64.64-.13.64-.85.29v.58l-.69.23c-1,.72-1.64,1.7-2.66,2.32a18.12,18.12,0,0,0-2.7,2.5c-.39.38-.77.77-1.15,1.16-.75-.09-.94.83-1.48.91s-.81.75-1.28.86c-.65.17-1,.82-1.46,1a2.33,2.33,0,0,0-1.1.72c-.37.41-1,.31-1.32.81a2,2,0,0,1-1,.84c-.6.15-.79.7-1.24,1h-.92c-.22.23-.46.43-.66.67s-.9.19-1.13.65c-.62,0-.89.5-1.29.82s-.88.21-1.13.65c-.59-.13-.77.41-1.12.68l-.41.29h-.81l-.84.83a4.13,4.13,0,0,0-1.11.21,4.43,4.43,0,0,0-1.77,1.25c-.28,0-.57-.08-.74,0-.5.3-1.12.38-1.51.86-.59-.14-.83.63-1.42.53a2.07,2.07,0,0,0-1.57.66c-.56.46-1.4,0-1.84.71-.08.14-.58,0-1.1,0l-.56.94h-1.42c-.74.6-1.72.78-2.47,1.41H147l-.92.92h-1.86l-.5.5h-1.71l-1.66.9h-2.18l-.53.48h-.87l-.57.48H134l-.44.44H130.8l-.24.18c-.9.41-1.38.13-1.8.39l-.35.36h-4.64c-.06,0-.12.1-.17.15l-.33.31h-5.58l-.48-.44h-1.88l-.4.39h-8l-.59-.46h-5.51l-.38-.38-1-.09-.41-.41H94.86l-.52-.48H92.05l-.54-.48h-.86l-.58-.48H88.44l-1.71-.9c-.45-.05-.92.12-1.35-.13l-.33-.33H83.31l-1.69-1H80.36l-.44-.44H78.83c-1.09-.46-1.71-1.05-2.62-.93l-1-.95H73.86l-.55-.48H72.17l-.55-.91H70.2c-.6-.55-1.54-.61-1.92-1.41H67.1l-.58-.85c-.55-.08-.92,0-1.13-.17-.6-.44-1.42-.57-1.76-1.3h-1c-.45-.39-.76-1-1.46-1-.23-.47-.81-.32-1.13-.65s-.53-.72-1.11-.73c-.28,0-.56-.37-1-.48s-.65-.73-1-.83a2.07,2.07,0,0,1-.92-.61,4.09,4.09,0,0,0-1.53-.8c-.54-.21-.75-.9-1.24-.93-.75,0-.88-.8-1.47-1a15.32,15.32,0,0,1-1.66-.74c-.24-.15-.56-1.08-1.51-1.17L46.81,228h-.48l-2.78-2.8h-.47l-2.32-2.32h-.41l-7.3-7.29v-.45l-2.8-2.77v-.46l-2.31-2.32v-.47l-1.73-1.69-.76-1.69-1.25-1.36c.13-.81-.95-.9-1-1.71,0-.55-1-.71-.9-1.48L21,199.8l0-1c-.49-.49-.94-.92-1.37-1.36v-.93c-.39-.45-1-.75-1-1.46-.58-.5-.56-1.43-1.33-1.73v-1l-.95-1a5.76,5.76,0,0,0,0-.72c-.07-.44-.5-.68-.57-1.17,0-.31-.51-.56-.79-.84.14-.84-.44-1.41-1-2.07v89.7c0,.7,0,1.41,0,2.1s-.19,1.23.12,1.77c.51.25.75-.08,1.08-.44h1.41l.41-.41h1.39l.5-.47c.72,0,1.42,0,2.12,0,.13,0,.25.12.38.19l.11,1.2H205.65c.62,0,1.25,0,1.87,0,.13,0,.25-.14.37-.21.1-.36-.14-.77.2-1.14H210l.63.48h1.29l.4.4h1.38l.51.48c.36-.08.77.17,1.1-.18V189.48l-.44-.44c.14-.46-.13-1,.16-1.5l.33-.33c-.05-.52.16-1.07-.26-1.74l-.67.9a2.84,2.84,0,0,1-.19,1.06c-1.12,2.09-2.21,4.2-3.15,6.38-.77.81-.74,2.13-1.8,2.68v1c-.46.46-1.1.83-1.28,1.36a4.8,4.8,0,0,1-1,1.44v.92a13.15,13.15,0,0,0-1,1,11.76,11.76,0,0,1-.86,1.27c-.36.33-.4.78-.65,1.14s-.87.65-.81,1.29c-.55.19-.26.86-.66,1.13Zm5.38,74.6h-186a1.25,1.25,0,0,0-.42.15l-.12,1.08-.64.6h-.93l-.58-.48H16.47l-.38-.38h-2a3.72,3.72,0,0,0-.14,1.64c0,.46,0,.93,0,1.4s.23,1.07-.19,1.54c-.37,0-.75.15-1.18-.16v-5.15l-.44-.44v-1l.42-.42V191.46c0-.46,0-.93,0-1.39,0-.09-.17-.18-.26-.26-.44.29-.59,1-1.28.89-.32-.3-.81-.46-.79-.79l1.22-1.53c.39-.08.82.16,1.12-.24v-5.59l-.47-.51v-.78l-1-1.7v-1.09l-.9-1.71c-.05-.47.14-1-.23-1.45-.12.12-.22.17-.22.23q0,66,0,131.94s.1.11.19.22l.58-.47h2.29l.43-.43h3.7c.06,0,.11.09.17.14l.24,1.26H211.16a1.29,1.29,0,0,0,.42-.16l.14-1.23h3.88l.46.46a14.8,14.8,0,0,0,1.48,0c.51,0,1.08.25,1.55-.21V176.51c0-.06-.09-.12-.15-.18-.37.08-.54.41-.8.68v.86c-.17.21-.32.38-.48.56v1.34c-.3.31-.58.59-.9.9v6.94a3.53,3.53,0,0,0,0,.46c0,.07.07.12.11.18,1.07.48,1.75,1.09,1.75,1.57a1.35,1.35,0,0,1-1,.89c-.26-.13-.54-.25-.85-.39a2.57,2.57,0,0,0,0,.32q0,48,0,96.05a.89.89,0,0,1,0,.23.71.71,0,0,1-.12.18,2.12,2.12,0,0,1-1.28-.11v-3.72a3.53,3.53,0,0,0,0-.46c0-.06-.09-.12-.18-.22h-2.42l-.45.45h-2.8l-.41.42c-.37,0-.76.15-1.18-.17Zm3.66,28H17.67a1.33,1.33,0,0,0-.41.16l-.12,1.07c-.09.07-.15.16-.21.16H14.64l-.44-.44H11.87l-.49-.49a3.28,3.28,0,0,1-.82,0,2.24,2.24,0,0,1-.65-.4c-.08.13-.16.19-.16.25,0,1.24,0,2.49,0,3.73a3.42,3.42,0,0,1,0,.45c-.31.19-.43.66-1,.65-.32,0-.44-.46-.79-.68V167.68c0-.06-.08-.12-.12-.18l-.34-.34v-2.31a3.12,3.12,0,0,1-.46-.52c-.11-.2.14-.61-.36-.58-.24,3.43-.21,5.64.06,5.92l.71.14v1.12l-.85.85c-.19,9.42-.11,160.69.09,163.4H7.68l.5-.41h2.15c.41-.56,1.08-.4,1.62-.58.07,0,.12-.11.17-.16l.16-.17a3.34,3.34,0,0,1,1.57.11l.24,1.27H214.43a1.33,1.33,0,0,0,.41-.16c0-.36.08-.73.13-1.09a3.32,3.32,0,0,1,1.59-.12c.32.6,1,.25,1.39.54a1.76,1.76,0,0,0,1.26.37h1.52l.41.41h1.06c.49-.61-.18-.82-.28-1.11V172.72l.37-.36-.86-1.64V170l.9-1-.53-.62.51-.83v-1.87l-.67-.62c-.09.1-.2.15-.2.21,0,.77,0,1.55,0,2.21l-.93,1.61V308.42l.42.51-.45.45v5.17a1.23,1.23,0,0,1-1.39-.05v-1.59c0-.54,0-1.09,0-1.63a3.78,3.78,0,0,0-.12-1.6,3.25,3.25,0,0,1-.93.36,1.1,1.1,0,0,0-1,.52h-2.38l-.43.43h-2.3c-.06,0-.12-.09-.17-.14a3,3,0,0,1-.09-.43C211.61,310.2,211.61,310,211.58,309.59ZM179.24,59.21c-.43-.27-.65-.76-1.22-1s-.92-.76-1.38-1.15a2.32,2.32,0,0,0-.38-.21h-1.17c-.29.32-.82.47-.75,1.06.24.84,1.23.73,1.71,1.33a25,25,0,0,0,1.75,1.81h.28c.85.19,1,1.34,2,1.4l6.12,6,1.21-1v-1l-1.25-1.25a14.74,14.74,0,0,0-1.5-1.46c-.52-.39-.38-1.16-1-1.47.34-.28.51-.8,1.17-.7l3.06,3.06a1.21,1.21,0,0,0,.16.16,1.46,1.46,0,0,0,.31,0l.77-.06.09-.4-2.84-2.84-.28-.06-.29-.84h-.54c-.43-.44-.85-.9-1.31-1.31s-.64-.91-1.2-1-.92-.77-1.39-1.13-.85-1-1.38-1.16-.78-.88-1.23-.93c-.74-.08-.94-.73-1.47-1-.52-.07-.72.16-.62.73.67.5,1.1,1.39,2,1.67l2.08,2.09-.63.63ZM189.72,72l2.8,2.79v.47c.49.49,1,1,1.48,1.47a10.46,10.46,0,0,1,1.17,1.61c.58.72,1.3,1.33,2,2,.28.79.27.8,1.26,1.32l.65-1V80c-.35-.54-.84-.86-1.05-1.5s-.82-.9-1.26-1.34V75.75l.7-.66c.39.49.93.81,1.21,1.5s.88,1,1.31,1.51l.16.64a2.58,2.58,0,0,0,1.7-.22c-.22-.22-.43-.44-.66-.66s-.19-.88-.65-1.12-.41-.78-.67-1.11a15.74,15.74,0,0,0-1.14-1.17c-.33-.32-.68-.64-1-1s-.49-.34-.52-.71c0-.61-.6-.86-1-1.21s-.4-1.16-1-1.47a6.68,6.68,0,0,0-.78-.28c-.06-.26-.1-.48-.1-.45l-3.13-3.16-.66.22.63,1.35,2.13,2.15.59.19a3.47,3.47,0,0,1-.14,1.66h-1.33l-3.18-3.18a6.56,6.56,0,0,0-1.35.87l1.82,1.81Zm2.81,136.14c-1,1-1.95,2-3,2.94-.72.68-1,1.66-1.69,2.34-.06.06,0,.28.12.56.64,0,1.31,0,2.09,0l2.78-2.78c.29.13.72-.17,1,.23v.87L191.16,215c-.06,1.18-.07,1.18.25,1.72l2-2c.72-.71,1.39-1.47,2.15-2.13s.78-1.66,1.64-2.08v-.51l2.31-2.31c-.07-.75.58-1,1-1.44s.46-1.29,1.13-1.64c.08,0,.09-.2.13-.32a3.3,3.3,0,0,0-1.59-.08c-.27.59-.54,1.17-.82,1.76l-.63.17c-.49,1.07-1.1,1.76-1.56,1.76l-.38-.18v-2c.77-.84,1.69-1.43,2-2.5,0-.07.12-.11.15-.17s0-.11,0-.16l-.29-.29c-.28-.56.21-1.23-.37-1.68a9,9,0,0,0-1.77,1.84,11.19,11.19,0,0,1-1.69,2.1v.45l-2.31,2.32ZM176.67,229c.39-.07.68,0,.79-.15.4-.46,1.07-.44,1.5-.94s1.13-.65,1.59-1.17,1.21-1.2,1.79-1.82,1.56-.87,2.13-1.62a19.3,19.3,0,0,1,1.79-1.83c.11-.11.21-.3.33-.31.68-.07,1-.59,1.45-1s.86-.86,1.25-1.25c-.11-1-.79-.56-1.31-.65l-2.36,2.44-1.31.76c-.29-.33-.77-.55-.59-1.33l3.64-3.65v-.83c-.34-.22-.46-.68-1-.67-.65.12-.83,1.09-1.65,1l-4.59,4.6c-.16,0-.37-.06-.46,0a9.31,9.31,0,0,1-2.1,1.67c-.59.29-1,1-1.5,1.43s-1.09.76-1.6,1.18c-.14.11-.15.39-.2.57l.72.72h1.43l2.34-2.34c.6.13,1.19-.25,1.6.27V225a8.28,8.28,0,0,1-1.52,1.45,8.47,8.47,0,0,0-1.44,1,2.4,2.4,0,0,1-.76.29ZM162.9,45.71c-.36-.71-1.16-.85-1.75-1.3-.05,0-.21.07-.33.11v1a3.12,3.12,0,0,1,1.61,1.13h.91l1,1,.47,0,.56,1.08-.49.76h-1a9,9,0,0,0-.76-.75c-.35-.27-.88-.22-1.13-.65-.59.13-.77-.41-1.12-.67a.83.83,0,0,0-.22-.13l-1.14.48c-.18.4-.76.57-.94,1.22a4.24,4.24,0,0,1,2.53,1.42l.95,0,.9.89h.45l.52.48h.77c.76.55,1.44,1,2.09,1.5s1.37.57,1.89,1a14.55,14.55,0,0,0,2.06,1.23,9.78,9.78,0,0,0,1.94,1.25l.77-.48v-1c-.51-.51-.89-1.14-1.72-1.35-.45-.12-.66-.73-1.27-.86-.45-.1-.8-.69-1.16-1.09-.08-.09,0-.29-.05-.53.38-.14.47-.76,1.27-.63l.65.9h1.32l1.13,1.43c.66-.12,1.24.21,1.69-.25v-.47c-.6-.53-1.57-.47-2.06-1.16s-1.56-.91-2.13-1.63a1,1,0,0,0-.34-.23l-.83,0c-.49-.36-.69-1-1.36-.9-.26-.42-.79-.38-1.13-.64s-.67-.84-1.29-.82c-.32-.63-1-.27-1.42-.48l-.84-.84Zm-129.36,167c1.4,1.45,2.69,2.79,4,4.12,0,0,.15,0,.23,0,.46,0,.5-.36.41-.64s-.6-.5-.44-.95l-2.81-2.81c.08-.39-.15-.79.19-1.15H36.4l2.71,2.7h1.24c.23-.25.42-.46.71-.76-1-.27-.93-1.36-1.6-1.91s-1.22-1.2-1.83-1.79-1.23-1.18-1.76-1.69l-.06-.72-2.68-2.67L32.48,203c-.45-.46-.94-1-1.45-1.44-.09-.08-.28-.06-.6-.12l-.61.74v1a4.89,4.89,0,0,1,1.5,2.4l.8.27c0,.58.16,1.12-.17,1.65h-1c-.54-.54-1-1-1.46-1.46l-.4-.86c-.15-.31-.31-.62-.46-.91-.57.1-1.15-.23-1.6.24.37.46,1,.74,1,1.46.61.6,1.21,1.21,1.81,1.81.16.61.12.66.85,1.27.43.37.41.95.82,1.3H32l.31.94,1.24,1A3.23,3.23,0,0,1,33.54,212.68Zm-7.95-20.35a6.35,6.35,0,0,1-1.05-1.44c-.29-.64-.51-1.44-1.27-1.76v-1c-.85-.43-.89-1.52-1.63-2.08-.36.07-.76-.16-1.17.22,0,.31,0,.69,0,1.06.05.58.68,1,.5,1.68-.07.26.39.53.48.95s.57.68.87,1v.93l-.69.69L20.14,191l-1.24-2.53-.67-.22c-.16,0-.19-.51-.49-.17a1.77,1.77,0,0,0,.16,1.28,31,31,0,0,1,1.48,2.95l.65.48v1c.31.3.71.53.83.86a5,5,0,0,0,.87,1.71c.47.52.57,1.22,1.07,1.67-.13.81,1,.9,1,1.71,0,.5.81.65.9,1.24s.67.79,1,1.22c.13.19.22.22.38,0v-1.49c0-1-1.16-1.2-1.33-2-.1-.44-.46-.59-.67-.89-.08-.12-.2-.22-.28-.35s0-.15,0-.23c.23-.49.51-.94,1.17-.88.37.55,1.18.78,1.16,1.61.84.67,1,1.84,2,2.44a2.32,2.32,0,0,0,.47.18c.35-.09.52-.48.8-.69.3-.84-.4-1.38-.59-2.07-.73-.38-.7-1.3-1.3-1.79s-.65-1.35-1.33-1.77C26.15,193.51,25.26,193.07,25.59,192.33ZM30.83,81.61C32,81,32.15,79.71,33.06,79v-.45c.78-.77,1.54-1.54,2.32-2.32v-.53c.35-.34.75-.7,1.14-1.08l1.32-1.31c.38-.38.9-.7,1.11-1.17a5.29,5.29,0,0,1,1-1.44c.36-.38.85-.65,1-1.19a4.74,4.74,0,0,0-1.61-1L36.3,71.59c-.06.06-.1.13-.17.16a.93.93,0,0,1-.27.07L35,71.76V70.45l2.77-2.77c-.23-.4.23-1-.28-1.48-1,1.28-2.46,2.2-3.28,3.71a7.06,7.06,0,0,1-1.95,2c-.75.58-1,1.49-1.62,2.14s-1.26.9-1.32,1.77l-1.81,1.81,0,.46c-.46.5-.46.5-.28.68h1.63l1.29-2.36,1.26-1.25s.1,0,.17,0l.57.61v1.42l-1.34,1.34c.06.74-.63,1-1,1.45v1C30.15,81.08,30.24,81.57,30.83,81.61Zm8.1,136.65,1.7,1.69a21.25,21.25,0,0,1,1.63,1.66c.44.55,1.14.69,1.62,1.14a9.74,9.74,0,0,0,1.77,1.35,7.9,7.9,0,0,1,1.66,1.61c.46.51,1.22.52,1.65,1.13a10.87,10.87,0,0,0,1.46,1.5s.12.08-.06,0a4.46,4.46,0,0,1,.84.38c.19.13.32.3.51,0V228c-.45-.95-1.27-1.21-1.93-1.7a19.07,19.07,0,0,1-1.85-1.75l.17-.66h2.07l.3.85.72,0,1.1,1.36H53.9c.17-.4.79-.55.71-.81l-1.77-2c-.91,0-1.12-1.1-1.79-1.3-.89-.27-1.21-1.24-2-1.45-.93-.26-1.3-1-1.9-1.57-1.1-1-2.1-2.07-3.14-3.11l-.73,0-1.11-1.44c-.16.16-.27.22-.27.27,0,.78,0,1.55,0,2.31.92.93,1.85,1.86,2.76,2.76,0,.58.15,1.12-.12,1.62l-.54.12-3.24-3.24Zm164.54-15.91a8.17,8.17,0,0,1,1.64-2.57c-.23-.61.71-.81.5-1.42.3-.34.78-.64.85-1,.13-.63.66-.82.95-1.24-.23-.61.74-.81.49-1.43.29-.43.77-.66,1-1.22a5.7,5.7,0,0,0,.49-1.65l.84-.84V190l.61-.64c.42-.71.59-1,.75-1.31,0,0-.1-.11-.23-.24l-1.39.64c-.22.55-.78,1.11-.64,2l-.87.69-.19.85h-1.6c-.47-.6.15-.83.34-1.26V190l.85-.85c.11-.49-.1-1.1.52-1.43,0-.45,0-.91,0-1.37,0-.06-.09-.12-.17-.23h-.82L206,187.16a2.71,2.71,0,0,1-.71,2.12,7.65,7.65,0,0,0-1.16,2.09c-.11.32-.55.52-.45,1-.47.23-.32.88-.67,1.1-.64.4-.6,1.21-1.14,1.64.12.82-.9,1-1,1.69s-.86.73-.9,1.24c0,.67-.62.84-.94,1.3.47.43.77,1.07,1.56,1.22.38-.37.73-.77,1.13-1.11a3,3,0,0,0,.68-1.12c.21-.46.89-.63.8-1.3.35-.26.52-.79,1.18-.69l.8.7-1.13,2.22.19.14-1.48,1.21v1.1ZM16.26,98.14c-.37.5-1,.7-.92,1.37-.79.3-.26,1.11-.62,1.61a2.82,2.82,0,0,0-.73,1.53c0,.69-.55,1-.57,1.67s-.5,1.17-.93,2.09v1.68l-.89.76v1.88l-.46.52c.08.38-.16.8.22,1.1l.46,0,.72-1.32v-1l1.14-2.28h1c.09.1.18.16.18.21,0,.62,0,1.24,0,1.71L14,111.26v1.55l1.13,1.49.69-.24v-1.43l.48-.52v-1.25l1-1.7V108a9,9,0,0,0,.83-1.4c.18-.47-.07-1.09.53-1.42v-1.39l.93-1c0-1.43,1.14-2.36,1.41-3.69l-.57-.66c-.61-.13-.76.17-1,.33a3,3,0,0,1-.76.24,2.34,2.34,0,0,1,0,.81c-.53,1.09-1.1,2.16-1.65,3.23-.39-.08-.81.16-1.11-.22a3.3,3.3,0,0,1,.11-1.56l.33-.32v-.82l.93-1.62c-.08-.49.24-1.06-.24-1.55l-.65.12ZM43.08,60.62l-4,4c.57.35,1.16.22,2.1.1l3.11-3.11.29.08a3.51,3.51,0,0,1,.06,1.69l-2.72,2.72v1.79l.67.68,4-4,0-.51.77-.27a11.56,11.56,0,0,0,1.3-1.32c.34-.49,1-.38,1.32-.8a11.66,11.66,0,0,1,1.31-1.32c.15-.13.41-.12.6-.22.53-.25.72-1,1.47-.94.36-.48,1-.75,1.16-1.26,0-.58-.46-.7-.66-1A3.13,3.13,0,0,0,52.3,57,16.39,16.39,0,0,1,51,58.3a14.06,14.06,0,0,1-1.48.92c-.5-.1-1.08.26-1.5-.25v-.46a11.8,11.8,0,0,1,1.83-1.78,7,7,0,0,0,1.89-1.53c-.08-.36.17-.78-.19-1.07l-1.35.77A9.12,9.12,0,0,1,48,56.72c-.59.3-1,1-1.5,1.43a4.68,4.68,0,0,1-1.4,1.11,6.36,6.36,0,0,0-1.57,1.36Zm38.85,183.7h1.24l.5.47c.53-.09,1.09.2,1.58-.2-.3-.31-.46-.75-1-.76-.35,0-.52-.58-1-.44s-.79-.36-1.21-.49a10.47,10.47,0,0,1-1.38-.62V241.1a12.75,12.75,0,0,1,1.93,0l1.56.87h1.6l1.47-1.12-.28-.7H85.52l-.52-.48H83.77l-1.74-1H80.34l-.88-.88h-.91l-.52-.48h-.8a5.52,5.52,0,0,0-1.61-.88,4,4,0,0,1-1.44-.51c-.49-.28-1-.51-1.54-.75a2.44,2.44,0,0,0-.38-.15l-1.06.63.7,1.57c.53.22,1.21.3,1.55.69s1.08.1,1.46.47,1.21.31,1.51,1.12l-.57.58h-2l-.38-.38-1-.12c-.4-.31-.59-.79-1.11-.87l-1.45.71.65.69c.37,0,.54-.05.67,0,.66.29,1.31.61,2,.92H74.3l1,.95h.78c1,.64,2.27.55,3,1.39H80.3l.74.46C81.3,244,81.56,244.12,81.93,244.32ZM100.44,35H96.36l-1.68,1H92l-.39.38-1,.11-.59.46H88.16l-.09.65.7.7h.84l1.55-.9h2.31c.06,0,.11.1.18.18v.86l-.62.83H91.58l-.63.48H89.17l-.71.77c.31.46-.21,1.06.31,1.5h1.4l.5-.47h1.72l1.69-1h2.19l.44-.44h1.87l.43-.44h3.68l.53-.46,1,0a1.92,1.92,0,0,0,.14-.31.36.36,0,0,0,0-.23c-.23-.44-.48-.87-.72-1.29h-2.3l-.52.46a8.65,8.65,0,0,1-2.13-.13c.21-.6-.09-1.15.27-1.73h3.37c.35-.67,1.31-.46,1.52-1.23-.06,0-.11-.15-.17-.15-.85,0-1.7,0-2.55,0a1.59,1.59,0,0,0-.42.14Zm2.85,210.7c.36-.5,1-.75,1.15-1.54l-1.1-.74H99.51l-.52-.48H97.62l-.42-.42H94.44l-.59-.5c-.36,0-.67,0-1,0s-.52-.28-.77-.38a8.19,8.19,0,0,0-1.13-.1,6,6,0,0,1-1-.43c-.27.08-.8-.17-1.37.12v1.53l.64.66h2.33l.51.47H93l.68.67c0,.37.15.76-.2,1.19a4.66,4.66,0,0,0-1.29,0c-.64.18-.88-.65-1.43-.48s-.77-.4-1.2-.48-.92-.1-1.35.13c-.41.71.33.88.6,1.28h1.73l1.68.95h3l1.75,1h4.47l.42.42c.57,0,1.19,0,1.8,0,.09,0,.17-.17.21-.21l-1-1.17H99.23a.53.53,0,0,1-.22,0,.91.91,0,0,1-.17-.17,3.19,3.19,0,0,1,.1-1.61h2l.36.36Zm-81-150.38c.9-.53,1-1.57,1.71-2.17a2.9,2.9,0,0,0,.6-1.13c.31-.81.83-1.51,1.07-2.35,1.07-.77,1-2.32,2.14-3.07a1.37,1.37,0,0,1,.66-1.11c.45-.27.27-.83.64-1.16s.24-.82.62-1.1l-.67-.67h-1l-.76.81c-.45.48-.52,1.24-1.14,1.62-.09.06-.1.26-.14.4-.19.64-.82.89-1.19,1.36,0,0-.15,0-.23,0-.74-.51-.74-.51-.92-1.13.31-.33.84-.63.89-1,.09-.64.62-.84.88-1.27A11.73,11.73,0,0,0,26.09,82c0-.29-.08-.74-.14-1.19,0,0-.1-.06-.15-.09l-.66.66c.29.63-.79.79-.5,1.42l-1.48,1.49c-.61.9-.69,1.62-1.17,2s-.48,1.1-1,1.48c0,.77-.79,1-1,1.57v.72c-.21.57-.78.74-1,1.31a3.57,3.57,0,0,0-.45,1.87l-1,.62.14.63c.34.25.73.09,1.1.1.16-.32.31-.65.49-1s.2-.89.64-1.14a.82.82,0,0,1,.52-.93c.51-.26.24-.88.65-1.15.36.09.77-.16,1.13.19,0,.2,0,.42,0,.65s0,.59,0,.89c-.8.39-.89,1.24-1.37,1.8-.15.18,0,.6,0,.89l-.47.51c.08.53-.21,1.1.21,1.58h.86l.79-.59ZM10.21,120.06v-2.19l1-1.79-.74-1.37c-.47.43.09,1.28-.74,1.61v1.46l-.41.41v1.39l-.48.52v2.64l-1,1.71v3.07l-.43.55c0,.92,0,1.77,0,2.62,0,.1.16.2.2.24l1.18-1.06c0-.66,0-1.29,0-1.91a9.73,9.73,0,0,1,.07-2h1.79v3.34l-.47.72,1.8,1.79.55-.58v-4.66c.75-.32.31-1.09.65-1.61.64-.93,0-2.08.35-3.1l.36-.36v-1.82l.48-.54v-.89l.47-.51c0-.62,0-1.24,0-1.86,0,0-.1-.11-.18-.19a4.93,4.93,0,0,1-.65,0c-.5-.1-.67.63-1.2.48-.07,0-.19.2-.32.33v1.8c-.54.29-.33.82-.46,1.23a6.32,6.32,0,0,1-.72,1.29C10.75,120.85,10.56,120.32,10.21,120.06ZM53.52,230.14c.4.37.75.94,1.2,1,.61.13.83.65,1.28.84a14,14,0,0,0,1.57.72c.47.13.6.91,1.27.85.62.52,1.53.63,1.93,1.41h1c.45.38.74,1,1.45,1,.49.58,1.42.56,1.72,1.33h1l1,.95c.5-.47.62.74,1.13.24V238l-1.53-1.46-2.7-1.32c.16-.49-.12-1,.23-1.64a2.06,2.06,0,0,1,.82,0,4.17,4.17,0,0,1,1.47.89c.39.45,1,.37,1.33.79s.72.09,1.09.17c.43-.53,1.28-.47,1.61-1.15,0-.05-.07-.14-.13-.16a16.65,16.65,0,0,1-2.13-1,4.88,4.88,0,0,1-2-1.28c-.71-.14-1.25-.79-2.11-.62-.39-.91-1.55-.86-2.06-1.67-.06-.1-.26-.1-.39-.16l-1.34-.66-.14-.66L58.88,228c-.58-.82-1.68-1-2.28-1.8-.06-.07-.3,0,0,0l-1.26.69c.37.69.6,1.23.92,1.7s1.25.49,1.62,1.15c.08.13.48.06.59.2.46.58,1.53.39,1.69,1.44a2,2,0,0,1-.35.4,3.83,3.83,0,0,1-.59.24c-.2.08-.38.19-.63.32-.34-.35-.64-.9-1-.94-.64-.08-.84-.62-1.28-.86a4,4,0,0,1-1.14-.62C54.62,230,54.05,229.63,53.52,230.14ZM215.36,121v3.25l.48.5v2.77l.48.53v2.31c.74.32.19,1.17.64,1.57l1.67-1.6-.48-.53v-2.74l-.49-.57.21-.6h1.48l.7.77v3.23a8.36,8.36,0,0,0,1.19,1.09c.09-.11.18-.17.18-.23,0-.92,0-1.85,0-2.75l-.49-.54V126.1l-.43-.43v-3.26l-.49-.49v-2.61l-.93-1.75c0-.19,0-.57,0-1s.12-.91-.13-1.35c-.24-.12-.3-.49-.65-.47l-.64,1.42.53.76v1.75c.6.41.47.93.33,1.46-.3.2-.43.66-1.17.56l-.6-1v-1.07l-.48-.53v-1.83l-.68-.67c-.52,0-1.06-.17-1.56.14,0,.88,0,.88.37,1.47v1.81l.48.54v.89ZM129.82,37.77c-.5,0-1,.16-1.25,0-.82-.67-1.75-.37-2.63-.43a1.56,1.56,0,0,0-.42.08l-.79.8-.78.15.16.83h1l.52.48h4.14l.56.48h1.31l.54.43h2.15c.4.58,1.08.39,1.62.59.07,0,.11.11.17.16l.24.25h1.89l.43.45c.47-.21,1,.16,1.52-.21.36-.92-.47-1.45-.62-2.2h-1.9l-.44-.44h-1.41l-.7-.72c.08-.39-.16-.81.23-1.13h2.33l.49.46h.91l.48.45c.38.09.58-.14.83-.33a3.55,3.55,0,0,1,.88-.32l-.83-.71h-2.2l-.54-.46-1-.07-.42-.43h-2.79l-.51-.47h-.9l-.53-.48h-3.23l-.37-.38h-2.94s-.11.1-.17.15l.69.69h.9l.53.48h2.76c.28.34.81.51.72,1.15ZM128,245.22a23.57,23.57,0,0,1,2.48.13v1.13l-.71.66h-3.51l-1.36,1.12c.13.12.18.22.24.22.69,0,1.39,0,2.08,0a1.51,1.51,0,0,0,.41-.13l.33-.33H132l1.68-1h2.66l.38-.38,1-.12.44-.43h1.94l-.14-.23.72-.36-.69-.83a4.59,4.59,0,0,0-2.44,1c-.7,0-1.4,0-2.1,0-.12,0-.23-.16-.34-.24v-.92l.67-.68h.91l.52-.48h2.32c.22-.74,1-1.32.55-2.28h-1.54l-.41.41h-1.34l-.68.52h-1.3l-.4.4h-2.77l-.51.48h-.92l-.51.48H125.3l-1.31.67v.54l.77.26.83.83a15.08,15.08,0,0,0,1.91,0Zm42.16-13c-.53-.19-1-.43-.93-1.14.49-.41.77-1.07,1.55-1.22.56-.11.72-1,1.48-.91.36-.48,1-.76,1.17-1.31a1.33,1.33,0,0,0-.87-1h-.7c-.48.22-.65.89-1.24.92s-.66.53-1.19.57-.68.67-1.24.9a3.37,3.37,0,0,0-1.84,1.18,4.38,4.38,0,0,0-1.47,1c-.45.33-1.12.36-1.56.7-.88.67-2.12.75-2.74,1.81-.87-.26-1.39.43-2.08.64.33.68,1.15.66,1.64,1.13a.89.89,0,0,0,.88,0c.8-.68,2-.73,2.62-1.61.08-.11.24-.16.38-.25l.83,0,.53.57-1.66,1.74a4.54,4.54,0,0,0-2.14,1.34l-.78.16.17.81h1c.17-.18.33-.34.5-.5s.34-.3.52-.46h.88a4.07,4.07,0,0,1,1.47-1,3.82,3.82,0,0,0,1.78-1.27h.92c.3-.3.53-.73.86-.82,1.36-.39,2.29-1.53,3.62-2,.81-.81,2.08-1.08,2.79-2.36-.67,0-1.19,0-1.52,0a7.37,7.37,0,0,0-1.31.69,3.69,3.69,0,0,1-1.3.84C170.8,231.53,170.65,232.12,170.14,232.2ZM155.92,42h-1.54l-.76-1h-1l-.58-.48h-1.33l-.86-.86-1-.09-.41-.41h-.9L147,38.7h-.91l-.48-.45h-.94l-.69.69.73.67h1.1l2.33,1.16v1c-.1.09-.16.18-.22.18h-2.17l-1.59-.9H142c1,.82-1,.93,0,1.87h1.86l.43.42h1.28l1.64.95h1.47l.5.68c1.29.38,2.15.92,3.08.75l.88.88a2.54,2.54,0,0,1,1.26.31c.8.34,1.55.76,2.38,1.13a6.26,6.26,0,0,0,.49-.41,4.88,4.88,0,0,0,.33-.45c0-.58-.71-.75-.52-1.3l-1.35-.66a6,6,0,0,1-1.34-.68,1.66,1.66,0,0,0-1.06-.26,1.36,1.36,0,0,1-.39-.21v-1l.74-.63a.75.75,0,0,0,.82.43c.54-.16.75.45,1.2.47a1.37,1.37,0,0,1,1.05.29c.29.28.81.26,1.1.62l.46-.46-.42-.89-1-.06Zm57.55,60c-.05.25.19.66-.15,1h-1.65c0-.41,0-.78-.07-1.48l-.85-.49c-.06-.5,0-.91-.14-1.07-.48-.48-.42-1.33-1.11-1.55h-.94c-.21.34-.68.46-.66.93a2.89,2.89,0,0,1,.52,1.69,3.64,3.64,0,0,1,1.37,2.42,3.27,3.27,0,0,0,.45,1c.13.26.28.51.47.85v1.44l1,.79c-.51,1,.22,1.64.37,2.43a9.82,9.82,0,0,0,.92,2,12.92,12.92,0,0,0,0,1.81h1l.74-.61v-1l-.47-.55v-1.35l-.36-.35c-.17-2-.09-2,.16-2.18h.93l.67.68v1.26a12.33,12.33,0,0,1,.79,1.41,7.27,7.27,0,0,1,.31,1.3l.8-.07c-.05-.71,0-1.38,0-1.89l-.87-1.58a3.75,3.75,0,0,0-.18-1.42,1.55,1.55,0,0,1-.33-1c.07-.5-.56-.66-.52-1.21,0-.25-.56-.51-.41-1s-.44-.73-.5-1.2-.61-.86-.44-1.44a2.44,2.44,0,0,1-.55-1.63l-.84-.84v-.9c-.26-.24-.41-.6-.81-.65l-.67.72ZM15.75,168.79c-.68.44-1.45.52-1.81,1.24a7.49,7.49,0,0,0,0,1.16c.07.42.54.67.49,1.2,0,.31.27.65.39.91v1.86l-.83.3v5.13l.87,1.62v.62L16.5,186a3.76,3.76,0,0,0,.48,0c.06,0,.11-.1.16-.16.06-1.48.06-1.48-.86-2.85v-.91l-.47-.51c.07-.52-.18-1.07.16-1.56h1.1c.14.76.82,1.3.59,2.32l.91.54.07,1.12,1.45.64c.4-.24.79-.46.85-1-.54-1.18-1.38-2.22-1.51-3.56l-.82-.83V177.9l-.48-.52v-.78l-1-1.69v-1.73l-.87-.87V171l-.55-.62ZM213.44,180a2.24,2.24,0,0,1-.18,1.45c-.64,1-1.11,2.18-1.74,3.46l.92.57.58-.58V184l.93-1c.09-.4-.16-.83.22-1.12a.75.75,0,0,0,.25-.82c-.09-.47.37-.63.49-1a10.72,10.72,0,0,1,.45-1c0-1.14,0-2.3,0-3.47,0-.06-.07-.12-.13-.21l-1.25-.21v-2l.46-.5v-.91l.44-.48v-1.41l-.68-.68c-.36.08-.77-.16-1.1.16a4,4,0,0,1-1,2.87v1.37l-.48.52v1.68l-1,.59v1.32c-.36.67-.83,1.18-.85,1.7s-.42.94-.51,1.44-.71.76-1,1.29v.73l-.57.89.93.81h.79c.79-.32.67-1.2,1.18-1.67.15-.14,0-.59,0-1.08l.89-.62c.11-.58-.13-1,.28-1.27Zm3.32-46.48c0,2.41,0,4.73,0,7,0,.06.09.12.14.18,3.69.19,5.15.16,5.44-.13v-.46l-.45-.49.45-.48v-1.84l-.49-.56c0-1.06,0-2.14,0-3.21,0-.06-.1-.11-.16-.17l-.4,0-.83.64v4.64l-.64.8-.73-.72v-4.14a3.53,3.53,0,0,0,0-.46c0-.07-.08-.13-.18-.27C218.26,133.89,217.74,133,216.76,133.5ZM12.08,163.58c0,.68,0,.68.38.95a5.94,5.94,0,0,0,.08-.68q0-5.94,0-11.89c0-.13-.11-.25-.18-.38a3.25,3.25,0,0,0-1.55.06l-.61,1.43.43.53V157l-.86.31v9.39l.45.48c.09.35-.16.76.17,1.1.1-.07.25-.12.29-.21s0-.32,0-.45.24-.21.32-.34a1.53,1.53,0,0,0,.11-.39,3.77,3.77,0,0,1-.44-1c0-.4-.07-.75-.43-1v-2.48a1.64,1.64,0,0,1,1.14-.11Zm103-130.43v5.31a2.44,2.44,0,0,0,0,.47c0,.06.1.11.18.19h7.16a1.86,1.86,0,0,0,.09-1l-.67-1.3h-4.64c-.3-.39-1-.57-.56-1.4.76,0,1.6,0,2.39,0l.48-.41H121l.51.4.61-.65-.64-.72H120l-.53-.48H117.2l-.4-.4Zm101.82,109.1c-.08.11-.17.17-.17.22q0,3.48,0,7s.1.11.15.16a.68.68,0,0,0,.8-.16c.22-.17.55-.19.78-.35a4,4,0,0,0,.62-.61V144.3l.7-.72.68.14v5.07l.69.93.74-.21v-3.38l.41-.41a17.17,17.17,0,0,0,0-1.9l-.44-.44.49-.53-.15-.6ZM106.3,39.17h7.15c.06,0,.12-.09.27-.21V34a.5.5,0,0,0,0-.21,1.53,1.53,0,0,0-.18-.19H110a1.35,1.35,0,0,0-.41.12l-.33.32a22.35,22.35,0,0,0-2.55.1c0,.35-.48.33-.4.72l.49.46c.69.33.8-.26,1-.29h1.51l.43.43c.54,0,1.15,0,1.76,0,.11,0,.22.16.34.25-.08.36.16.77-.26,1.15h-3.92l-1.38,1Zm13.93,207.37.7-.84h1a11.59,11.59,0,0,0,.52-1.85h-6.94c-.12,0-.24.15-.42.27.23.63-.15,1.34.22,2.07h2.9l.71.76-.21.62h-1l-.51.47a7.22,7.22,0,0,0-.93,0c-.36,0-.77-.17-1.1.16v1.23h3.91l.47-.47c.81,0,1.73,0,2.64,0,.13,0,.25-.14.36-.2-.37-.38-.75-.76-1.16-1.16l-1.1-.07Zm-6.55-2.69H106.5s-.1.11-.19.21v1l.7.66h.88l.71.67c-.09.38.16.79-.21,1.14l-1.49.07-.62.68c.1.1.15.2.21.2h.91l.52.48h3.7l.51.46c.53-.09,1.09.22,1.56-.2,0-.37.15-.76-.16-1.18h-1.89l-.41-.41c-.38-.25-.94.18-1.24-.34l0-.46.68-.68c.44,0,.91,0,1.37,0a3.49,3.49,0,0,0,1.62-.15ZM217,151.27a4.21,4.21,0,0,0-.24.87q0,4.88,0,9.77c0,.12.17.23.26.36h.91l.62,1.2-.4.43v2.27l-.52.69.76,1.48.65-.73V157.23l-1.31-.2-.05-.57.47-.5v-2.28l.63-.82c-.36-.36-.67-.69-1-1C217.63,151.72,217.45,151.6,217,151.27ZM12.08,149.63v-5.31l-.47-.5c-.18-.47.3-.63.42-.95l-.65-.66H7.66a2.44,2.44,0,0,0-.47,0c-.06,0-.11.09-.2.18v2.89c.58.42.48.93.32,1.46l-.35.34V148c.41.26.38.83.72,1.18.11-.13.19-.18.19-.24,0-1.55,0-3.1,0-4.64.36-.28.56-.77,1.21-.68l.66.81v3.29c.89.19.19,1,.68,1.47l.48.44Zm0-12.77c0-1.11,0-2.19,0-3.27,0-.06-.11-.11-.2-.2h-1l-.67.71v1.34l-.47.56v2.81c-.37.11-.44.64-1,.6-.35,0-.48-.47-.8-.68v-3.26l.44-.49v-.91c-.25-.22-.4-.58-.88-.64l-.07,1.1L7,135c-.3.89.81,1.5.41,2.29l-.39.5v2.83c.11.08.16.17.22.17h4.17l.68-.68-.45-.5c0-.67,0-1.37,0-2.06a1.38,1.38,0,0,1,.15-.43Zm202.35,26.69v1.72l-.46.5c.06.51-.16,1,.17,1.58h1c.09-.1.19-.15.19-.21,0-1.46,0-2.91,0-4.37a1.59,1.59,0,0,0-.12-.41c-.33-.09-.28.14-.35.34A6.76,6.76,0,0,1,214.43,163.55ZM11.14,170.81v1l.47.49v1.83l.46.49c.07.23-.17.62.47.61v-3.84c0-.06-.09-.12-.17-.22C12.08,171,11.88,170.42,11.14,170.81Zm209.64-18.07h-.29c0,1.38,0,2.76,0,4.14,0,.05.11.1.16.15.29-.31.3-.31.31-1.08l.46-.49c0-1.09,0-2.16,0-3.23,0-.05-.11-.1-.3-.27ZM14.23,164.05c-.19.21-.28.26-.28.32,0,.92,0,1.84,0,2.75,0,.06.09.12.21.27l.71-.12c0-.49,0-.88,0-1.26s.12-.9-.3-1.14Zm-6.67-12c-.25,2.65-.25,2.82.17,3.64.35-.89,0-1.82.22-2.62l.37-.38C8.1,152.48,7.93,152.16,7.56,152.08Z"/><path d="M81.79,356.69l.67.69v1.4l-.62.66h-9l-.52-.52c0-.05-.12-.11-.13-.17a3.69,3.69,0,0,1,0-.47V344.33l.69-.68h8.85c.29.15.46.62.94.45l.5-.47H94.84c.28.67.82,1.25.69,2.08l-.64.68h-4a2.13,2.13,0,0,0-.29.12l-.5.5c0,.06-.11.11-.11.18a3.53,3.53,0,0,0,0,.46v10.2l.37.38-.45,1.11c-.06.05-.12.14-.18.14H87.84l-.7-.7v-12.3h-12c-.36.48-.14,1-.15,1.55a3,3,0,0,0,.15,1.65h6l.81.68v.78l-.69,1.35H75.07v4c.08.08.12.17.19.18a3.53,3.53,0,0,0,.46,0Z"/><path d="M113.25,344.33l.69-.68h1.37c.71.26.62,1.14,1.16,1.56v10.36l-.41.41.69.72h5.14l.41.41c.73-.25.63-1.13,1.18-1.55V354.2l.48-.55v-.88l.48-.52v-.91l.47-.5v-.74c.26-.49.53-1,.79-1.52s-.18-1.2.39-1.7-.06-1.26.66-1.59c0-.61.51-1,.67-1.62h2.34a1.44,1.44,0,0,1,.82,1.18c0,.18.41.41.37.52-.27.71.5,1.08.49,1.68,0,.31,0,.62,0,.9l.93,1.63v.81l.33.33c.4.35-.15.94.33,1.26s0,1,.35,1.24c.62.52.26,1.15.51,2l.8.45v1.72l.48.51v1.41c-.63.44-1.35.05-2,.28a6.43,6.43,0,0,1-.74-.85,2.48,2.48,0,0,1-.44-1.2c0-.53-.46-.79-.48-1.21s-.45-.59-.61-1h-4.24l-.78.64v1c-.51.29-.46.77-.45,1.46l-1.28.73.23.24a1.63,1.63,0,0,1-.42.11H114l-.71-.69Zm14.15,8.16h2.4s.1-.1.2-.2v-.95l-.43-.56v-1.21l-.74-1.23c-.24.25-.62.48-.62.7,0,.46-.32.66-.52,1v1.33C127.38,351.63,127.07,351.88,127.4,352.49Z"/><path d="M48,344.33l.68-.68H51c1.08.54,1.23,1.87,2.16,2.55v.93l.83.84a4.16,4.16,0,0,0,1.49,2.88v.91l.87.92.23.76c.13-.15.3-.24.3-.34,0-2.33,0-4.67,0-7v-1.67l.66-.79H59l.68.68v14.49l-.71.65H57l-1.12-1.4c-1-2-2.28-4.52-3.54-7-.29-.58-.54-1.18-.84-1.75a2.27,2.27,0,0,0-.48-.5c-.06,0-.16.08-.16.13,0,3.25-.09,6.5-.14,9.88l-.5.55c-.54.29-1.07,0-1.53.17l-.72-.73Z"/><path d="M136.1,344.33l.68-.68h2.33a6.28,6.28,0,0,1,1.82,2.68c.52,1,1,2.05,1.59,3.07a22.69,22.69,0,0,1,1.48,3.11c.15.42.51.56.69.89.53-.33.2-.8.2-1.21l-.36-.36v-6.52l1-1.64h1.57c.09.1.18.16.19.21v15.4c-.64.43-1.36,0-2.09.29l-.8-1.16-.18.16a15.68,15.68,0,0,0-.8-1.77c-.34-.56-.53-1.25-1.14-1.63-.05-.66-.79-1.11-.56-1.92a5.8,5.8,0,0,1-1.43-2.15c-.35-.79-.76-1.55-1.14-2.33-.06.05-.16.09-.16.14-.05,3.25-.09,6.5-.13,9.88l-.52.57a3.15,3.15,0,0,1-1.58.09l-.66-.67Z"/><path d="M161.7,351.09v7.28a8.12,8.12,0,0,0-1.77.88c-.58.49-1.21,0-1.77.32l-.33.33H155.4l-.39-.39h-1.32c-.37-.18-.53-.67-1-.5-.7-.45-1-1.36-2-1.47-.07,0-.1-.25-.17-.38-.41-.84-.82-1.68-1.35-2.74v-5.36a1.87,1.87,0,0,0,.4-1.51l1-.72v-.63l1.49-1.45,2.18-1.06h4.91l2.57,1.37v2.58c-.07.07-.12.17-.18.17-.31,0-.62,0-1,0-.37-.69-1.15-.87-1.9-1.35h-3.91l-2.33,2.34c0,.16.16.76-.44,1.09v3.72c.76,1,.92,2.37,2.15,3.05.43-.16.6.32.88.47h3.27l.67-.68v-2.33c-.35-.47-.85-.18-1.28-.23a10.11,10.11,0,0,0-1.24,0l-.62-.57a3.31,3.31,0,0,1-.08-1.56l.66-.67Z"/><path d="M163.61,345l.68-1.3h8.88l.66.63v2c-.1.09-.15.17-.21.18a3.69,3.69,0,0,1-.47,0H167.1c-.46.47-.17,1-.22,1.55s0,1.06,0,1.51a1.44,1.44,0,0,0,.3.2.88.88,0,0,0,.23,0H173a2.56,2.56,0,0,1,.31.06,9.22,9.22,0,0,1,.11,2.07l-.83.68h-5.5c-.11.14-.2.2-.2.26,0,1.24,0,2.48,0,3.69a1.65,1.65,0,0,0,.2.19.49.49,0,0,0,.21,0h5.86l.69.64v1.5l-.54.53c-.06,0-.12.12-.18.12h-8.8l-.7-.7Z"/><path d="M105.37,346.43v3.08c.1.09.16.17.22.18a3.53,3.53,0,0,0,.46,0h5.57c.44.39.18.88.23,1.32s0,.9,0,1.28c-.17.11-.22.18-.29.2a.88.88,0,0,1-.23,0h-5.78a1.68,1.68,0,0,0-.19.19.51.51,0,0,0,0,.22v5.86l-.64.68h-1.51l-.51-.52c0-.06-.13-.12-.13-.18q0-7.2,0-14.41l.68-.68h8.41l.66.63v2a1.65,1.65,0,0,1-.43.16Z"/><path d="M62,358.82v-14.5l.68-.68h1.87l.73,1.41v11.51a5.59,5.59,0,0,0,1.89.12c.7,0,1.4,0,2.1,0h1.82c.39.43.18.92.21,1.36s0,.9,0,1.43c-2.84,0-5.55,0-8.25,0C62.56,359.5,62.39,359.16,62,358.82Z"/><path d="M45.88,343.63l.61.62c.46.89-.57,1.34-.4,2.11l-1.2.13c-.07.08-.17.13-.17.19q0,5.13,0,10.24c.31.4.73.17,1.16.25l.68.63.05.92-.52.58c-.12.09-.18.18-.24.18H40.29l-.7-.69v-1l.72-.64,1.43-.07c.41-.5.08-.75-.24-1.07v-8.49l.4-.41c-.61-.83-1.87-.92-2.35-2.1,0-.19.21-.38.39-.62a3,3,0,0,0,.29-.79Z"/><path d="M174.66,20c.26-.59.53-1.17.79-1.76h1l.61.7c-.1.12-.36.28-.35.43,0,.62-.8,1-.5,1.65a4.39,4.39,0,0,0,1,1.69c.12.11.22.22.37.38v3.31A6.8,6.8,0,0,0,176.36,28a3.73,3.73,0,0,1-2.07,1.34h-3c-.26.57-.52,1.15-.81,1.77a3.34,3.34,0,0,1-1.52.09c-.43-.47-.11-1-.24-1.75a5.55,5.55,0,0,0,.64-.48,1.87,1.87,0,0,0,.32-.43c0-.2,0-.31,0-.35-.26-.29-.54-.56-.82-.83a6.08,6.08,0,0,0-1.09-2.7l.51-.73v-.74l.62-1.08L171,20.05h1.19l.66-.47C173.4,19.57,173.77,20.41,174.66,20Zm-1.95,1.51c-.26.25-.5.57-.94.45-.22.47-.77.39-1,.59l-.54,1.18V26c.25,0,.51.13.66,0s.62-.41.62-.63c0-.74.65-1,1-1.43V22.87l1-.68Zm-.29,6.05a8.5,8.5,0,0,0,1,0c.43-.06.69-.45,1.15-.55.75-.16.54-1.18,1.12-1.57V24.17l-.73-1.4C174,24.24,173.38,25.88,172.42,27.51Z"/><path d="M125.84,24.48l-.67.66a2.31,2.31,0,0,1-1.13-.05V19.76l.36-.36V17.25c.32-.6.6-1.11.91-1.66l-.39-.45v-1l.71-.62h8c.09.1.17.16.17.22,0,1.24,0,2.47,0,3.7-.48.46-1.05.14-1.58.23l-.52-.46h-1.36l-1-1h-1.37l-.4-.4h-1c0,.05-.15.1-.15.16,0,1.08,0,2.16,0,3.24l-.49.52Z"/><path d="M111.39,6.62V3.1c.74-1,1-2.39,2.18-3.1h2.72l1.15,1.16V1.6l.48.51V7.67l-.93,1,0,.47c-.38.2-.76.4-1.29.66H114c-.33-.54-1.14-.36-1.45-.95-.23-.44-.45-.89-.68-1.34C111.72,7.23,111.58,7,111.39,6.62Zm3,1.31h.93l.7-1.36V2.62c0-.06-.08-.12-.12-.18a1.3,1.3,0,0,0-1.6-.49l-.59.62v4Z"/><path d="M214,25.07v1.57a2.4,2.4,0,0,0-.21.38c-.31,1-1.16,1.55-1.83,2.31h-2.39c-.47-.24-.74-1-1.49-1-.37-.41.11-1-.36-1.3-.06,0-.11-.11-.25-.25V25l-.44-.44.42-.5V22.68c.38-.31.38-.83.66-1.13s.23-1.05.79-1.31c.39-.18.77-.39,1.29-.66h2.62c.05,0,.11.09.21.18v1.5c-.44.32-.91.14-1.36.17s-.77,0-1.16,0c-.64.67-.64.67-.58,1.34h1.73c.55.39,1.21.43,1.57.93S213.69,24.59,214,25.07Zm-4.67,1.26c.51.4.79,1.1,1.66,1.23l.66-.72c0-.7,0-1.31,0-1.91,0-.06-.1-.11-.2-.21a6.85,6.85,0,0,0-2.11.12Z"/><path d="M181.83,27c.66,0,1.36,0,2.07,0l.67.7v.93l-.62.66h-4.73l-.69-.63V27.26l2.8-2.78V24l.88-.87V21.53a11.26,11.26,0,0,0-2-.09l-.5.47h-.93c-.48-.44-.14-1-.24-1.58l.56-.61c.09-.06.15-.13.22-.13h3.6l1.23,1.16v.94l.46.5c.13.66-.9,1-.46,1.69l-.73,1.32h-.52c.07.86-.86,1.14-1,1.83-.27.07-.63,0-.31.45A2.35,2.35,0,0,0,181.83,27Z"/><path d="M202.55,21.45l-.48.45h-.94c-.44-.47-.13-1-.23-1.58l.65-.69h3.84l1.06,1.06v2.45l-.82.81c.07.11.13.22.2.32.26.35.71.53.72,1.12,0,.28.4.53.46,1,.08.63-.75.82-.54,1.42l-.84.9-.71.32c-.45.3-.51.38-.57.38h-2.28c-.45-.57-1.32-.49-1.62-1.17v-.94c.47-.45,1-.13,1.57-.22l.53.45H204l.61-.75v-1.4c-.54-.3-1.09-.09-1.6-.18l-.68-.67v-.93c.23-.43.66-.18,1.23-.29l1-1.19-.62-.63Z"/><path d="M191.59,28.68l-1.33.67h-3.91l-1.26-.63,0-.8a2.87,2.87,0,0,1,.23-.39,3.31,3.31,0,0,1,.32-.33l.82-.82c.33-.33.64-.67,1-1a2.11,2.11,0,0,0,.52-.95c.11-.33.51-.56.86-.9a3.78,3.78,0,0,1,0-.82,2.18,2.18,0,0,1,.41-.59l-.59-.64h-2c-.27.29-.52.59-1,.33-.3-.5-.1-1-.14-1.56l.68-.67h3.28l1.61,1.75v2.17c-.12.29-.62.44-.44.95-.8.8-1.6,1.61-2.37,2.37l.13.54c.32.27.28-.26.22-.28h1.71l1.24.65Z"/><path d="M220,27.74v1l-.66.58c-.47.11-.65-.15-.89-.33a2.81,2.81,0,0,0-.78-.28v-.52l-.7-.7-.95.94-.9.91c-.69.1-.84-.44-1.19-.71.23-1.28,1.35-2,1.77-3.32-.84-.48-.83-1.75-1.74-2.21v-1c.51-.37,1.06-.11,1.58-.19a3.85,3.85,0,0,1,1.4,1.87c.74-.48.71-1.42,1.39-1.83a3.18,3.18,0,0,1,1.63.12l0,.8c-.12.67-1,.77-.95,1.52l-1,1.16a1.63,1.63,0,0,0,.19.48C218.86,26.59,219.41,27.13,220,27.74Z"/><path d="M200,30.49l-.08,1.16h-1.62l-.67-.64v-.47l-.82-.83a5.23,5.23,0,0,0-1-2.5V23.75l2-4,1.18-.61h.77c.4.27.16.7.25,1-.2.61-1,.76-.94,1.52-.58.32-.3,1.18-.93,1.38v4.66C198.85,28.6,198.92,29.86,200,30.49Z"/><path d="M103.23,13.52c.22.3.63.45.72,1-.42.9-1.35,1.1-2.27,1.33a6.27,6.27,0,0,0-1,.45H99.54l-1,1H97.15c-.36.6-.92.42-1.39.45l-.7-1.35V15.16l-.45-.5c-.09-.6.43-.79.7-1.14Z"/><path d="M222.11,31.72l-1,0c-.35-.55,0-1.1-.21-1.56l1.36-1.37c.17-.46-.13-1.1.51-1.42V23.61a1.8,1.8,0,0,1-.42-1.57L221,20.91V19.34c.31-.4.74-.12,1.06-.25a6.58,6.58,0,0,1,2.19,2.8v.69l.47.51V24l.45.45c.05.55,0,1.23,0,1.87-.16.2-.46.42-.43.54.24.82-.7,1.34-.49,2.13a13.82,13.82,0,0,1-.89,1.48A14,14,0,0,1,222.11,31.72Z"/><path d="M109.74,9.78h-3.09l-1.3-.67,0-.51.75-.63,1-.11c.07-.09.16-.15.16-.21V3c-.31-.42-.73-.15-1.23-.33l-.55-.52.15-.33c.25-.55,1-.35,1.3-.81a10.25,10.25,0,0,1,1-1h1a1.22,1.22,0,0,1,.16.23,1,1,0,0,1,0,.24V7.69c.31.41.74.14,1.26.34l.67.7c-.11.21-.23.58-.3.57C110.23,9.22,110,9.56,109.74,9.78Z"/><path d="M120,5.13A8.09,8.09,0,0,1,118.9,4c-.15-.22-.13-.54-.34-.79a.91.91,0,0,1,0-1.23c.22-.26.2-.58.34-.79A8.55,8.55,0,0,1,120,0h2.36a8.75,8.75,0,0,1,1.12,1.16c.14.22.12.54.33.79a.91.91,0,0,1,0,1.23c-.22.26-.19.58-.34.79a8.55,8.55,0,0,1-1.09,1.16Zm1.32-1.85.82-.73L122,1.92c-.63,0-1.23-.21-1.76.17.09.38-.15.78.21,1.15Z"/><path d="M103,15.9h1.33c.16,1.34,0,2.65.09,3.94l.41.41v1.87l.46.45V25c-.38.33-.78.12-1.14.17-.68-.33-.62-1.18-1.15-1.62Z"/><path d="M65.23,39.05v-.72l.65-1.08c.87.14,1.12.78,1.65,1.16l.06,1.06,1.16.54-.88,1H66.34c-.34-.29-.1-.7-.2-1.17Z"/><path d="M4.85,111.44H6.13c.54.48,1.4.49,1.75,1.25.09.56-.45.73-.7,1.08H6.25c-.32-.57-1-.46-1.48-.91-.14-.15-.58,0-.85,0-.4-.33-.16-.74-.23-1.07l.63-.85Z"/><path d="M215.68,95.57h-.56c-.45-.46-.13-1-.22-1.52.3-.42.57-.89,1.2-.84.45-.52,1.14-.58,1.84-1l.7,1.2c0,.42-.79.67-1.17,1.21h-1Z"/><path d="M138.66,15.39l.5.47h1.38l.72.72-1.29,1-.38-.31h-2.34l-.67-.74c-.12-.65.49-.77.64-1.14Z"/><path d="M225.46,112.29l-.42.43a.58.58,0,0,1-.18.11c-.44,0-.88-.09-1.26.35-.2.25-.64.21-.95.47s-.7.1-1,.13c-.42-.57-.08-1.13-.28-1.61l1.38-.71h1.15l.61-.51Z"/><path d="M177.64,50.82l-.06-1.12c.95-.66,1.08-2,2.22-2.61.57-.08.72.47,1,.71,0,.16.07.4,0,.45-.92.68-1,2-2.46,2.57Z"/><path d="M92.56,16.2l-.93,1H89.28l-.42.41c-.38-.07-.54-.41-.77-.64v-.92c.48-.44,1-.13,1.59-.22l.5-.45H91.4Z"/><path d="M4.11,131v1.23a1.65,1.65,0,0,1-.43.16H.22c-.06,0-.12-.09-.22-.17v-1.52c.5-.34,1.05-.1,1.57-.17l.49.47Z"/><path d="M20,76.06c.24-.54.5-.88,1-1,.67,0,.78.86,1.44,1s.87.79,1.36,1.13c0,.36.14.75-.17,1.15l-.91,0C22,77.44,20.6,77.27,20,76.06Z"/><path d="M13.17,95.63l-1-1h-.8l-1.16-1.14c-.06-.65.39-.92.85-1.17.67,0,.74.73,1.63.92h.57l.64.75v1.49Z"/><path d="M124.71,31.24h-.95c-.08-.12-.24-.23-.24-.35,0-1.22,0-2.44,0-3.61.35-.4.76-.16,1.19-.25l.63.84v.85l-.35.35C124.75,29.77,125.14,30.57,124.71,31.24Z"/><path d="M193.16,63.82l-.64-.64v-.89l2.09-2.13h.95c.39.32.15.73.21,1.05Z"/><path d="M227.82,130.59l1,.56c.11.73-.35.86-.59,1.21h-3.4c-.35-.33-.16-.77-.08-1.21.49-.27,1-.07,1.54-.13l.34-.34A2,2,0,0,1,227.82,130.59Z"/><path d="M2.07,152l-.49.47H.64L0,151.79v-1c.11-.09.17-.17.22-.17,1.23,0,2.45,0,3.68,0,.06,0,.11.09.25.22a7.5,7.5,0,0,1,0,.81c0,.12-.14.34-.22.34C3.31,152,2.69,152,2.07,152Z"/><path d="M85,34.5l-.66-1.31V30.41l.6-.13c.73.34.65,1.19,1.19,1.62v2.42c-.1.08-.15.17-.21.18Z"/><path d="M144,34.5h-.87l-1-.73c.25-1,1.11-1.68,1-2.74l.62-.65c.34,0,.41.35.65.48.25.43.1.89.13,1.33s0,.92,0,1.38c-.15.1-.38.17-.44.31A1.6,1.6,0,0,0,144,34.5Z"/><path d="M160.81,40.82v-.93c.76-.77.76-2.08,1.63-2.59.8,0,.8.63,1.25.7-.27.61-.36,1.21-.7,1.49-.53.44-.09,1-.48,1.48A2.45,2.45,0,0,1,160.81,40.82Z"/><path d="M36.32,63.9l-1.06-.54L33.08,61.2v-.84c.34-.38.75-.13,1.14-.22.68.71,1.38,1.42,2.1,2.16Z"/><path d="M228.85,150.6v1.28l-.82.63-1-.47H225a1.17,1.17,0,0,1-.16-1.31c.06,0,.12-.12.18-.12Z"/><path d="M48,48.26l.11-.56c.49-.29,1-.08,1.55-.14.25.35.65.54.75,1.08.06.38.56.69.88,1v.89c-.26.42-.69.17-1,.27C49,50.29,49,48.83,48,48.26Z"/><path d="M103.41,28.5l.69-1.38c.27-.2.66,0,1-.05.07.12.2.24.2.37,0,1.21,0,2.43,0,3.57-.4.38-.81.15-1.2.24C103.59,30.43,104.37,29.27,103.41,28.5Z"/><path d="M206.3,78.31h-1c-.4-.33-.09-.75-.22-1,.55-1.14,1.88-1.27,2.56-2.21l.68.65,0,.82a1.67,1.67,0,0,1-1.18.91C206.83,77.54,206.55,78.05,206.3,78.31Z"/><path d="M113.72,142.2H77.55c-.33-.42-.15-.81-.17-1.18.05-.06.11-.16.16-.16l35.88-.06c.06,0,.12-.07.18-.11a.94.94,0,0,0,.12-.18.89.89,0,0,0,0-.23V104.85a1.42,1.42,0,0,1,.06-.28l.63-.17.73.85v35.36a1.05,1.05,0,0,0,.25.19.64.64,0,0,0,.24,0h35.62c.47.41.06.87.36,1.37H115.39c-.14.13-.21.18-.24.24a.45.45,0,0,0,0,.23v35.43a.6.6,0,0,1,0,.23.81.81,0,0,1-.17.22h-1a1.48,1.48,0,0,1-.16-.42C113.72,166.22,113.72,154.33,113.72,142.2Z"/><path d="M69.85,141v1c-.09.09-.15.18-.21.18q-9.54,0-19.08,0c-.05,0-.11-.09-.21-.18v-1c.1-.09.15-.18.21-.18H69.64C69.7,140.82,69.75,140.91,69.85,141Z"/><path d="M159.46,142.21V141c.1-.09.16-.17.22-.17h19.08c.43.37.22.82.15,1.26-.06,0-.12.13-.18.13Z"/><path d="M113.72,186.73l.69-.68.67.63v18.84l-.66.56-.7-.69Z"/><path d="M115.12,96.28l-.69.68-.67-.62V77.5l.66-.57.7.7Z"/><path d="M169,264.37h1.74a6.38,6.38,0,0,1,1.34.78,7.4,7.4,0,0,1,.86,1.39v1.73l.48.53v1.38l-.46.5v1.85c-.54.43-.47,1.29-1.16,1.63h-.92l-.48.45c-.49.15-.7-.25-1-.45h-.76c-.59-.23-.85-.83-1.32-1.14v-.77l-.7-1.38-.67.75v1.78l-.68.73-.92.05-.7-.64v-1.89c-.14-.14-.19-.24-.25-.24h-2.27a2.75,2.75,0,0,0-1.23-.67v-1.41a1.92,1.92,0,0,1,.2-.29l2.47-2.48c.13-1,1.13-1.38,1.63-2.15h1l.67.61v4.34l.66.17c.09-.07.2-.11.2-.16.06-.76.1-1.53.15-2.3a4.73,4.73,0,0,1,.53-1.14C167.89,265.38,168.42,264.92,169,264.37Zm2.1,7.23c0-1.49,0-3,0-4.43a1.43,1.43,0,0,0-.16-.43h-1.68c0,.56,0,1.09,0,1.59l-.43.48v1.38l.48.57V272l.62.78Zm-7.46-2.16c0-.36,0-.51,0-.66s-.06-.41-.07-.51c-.26.2-.52.42-.86.7l.12.51Z"/><path d="M137.23,266.78l1.49-1.49h.89l.33-.33c.06,0,.12-.12.18-.12h2.74c.4-.35.16-.76.25-1.21l.73-.6h1a3.18,3.18,0,0,1,.12,1.61l-.38.38v1.38l1.33,2.56v1.7c-.14.15-.41.3-.43.48a1.17,1.17,0,0,1-.34.81c-.14.13-.15.4-.24.67L143.44,274c-.41.29-.9,0-1.1.07-.67.12-.88.75-1.44.52l-1.19-.48c-.08,0-.18.06-.2.11-.24.52-.47,1.05-.71,1.6l-1.51.71c-.46-.72-.11-1.44-.33-2.18l1.16-.9c-1.21-.65-1.22-1.95-2-2.85v-1.7Zm1.91,4.58c.41-.9.88-1.78,1.31-2.67a3.23,3.23,0,0,1,1.11-1.62c.17-.1.15-.22,0-.32h-1.23c-.72.73-1.26,1.26-1.78,1.78,0,.85,0,1.76,0,2.67,0,.06.1.12.14.16Zm3.44.75,1-1v-2.74c0-.06-.08-.12-.15-.23l-.57-.05a5.42,5.42,0,0,0-.5,1c-.16.56-.56,1-.7,1.57a7.47,7.47,0,0,1-.86,1.48c-.07.14.09.4.17.72Z"/><path d="M146.83,266.47v-.94l1.16-1.15h2.81l1.39,1.44.69,1.21v.85c-.6.34-.42.93-.54,1.66l-2.62,2.61c.43.34,1,.08,1.5.14s1.07-.13,1.62.16V274c-.08.08-.13.17-.19.18a3.53,3.53,0,0,1-.46,0h-5.12c-.56-.43,0-1-.35-1.52.76-.76,1.43-1.51,2.18-2.16s.83-1.62,1.64-2.1a3.41,3.41,0,0,0-.14-1.64l-3.41-.12C146.93,266.62,146.88,266.52,146.83,266.47Z"/><path d="M156.62,271.59v.53c.83.43,1.78,0,2.65.26.29.5.1,1,.13,1.56-.12.07-.25.21-.37.21h-5.49a3.31,3.31,0,0,1-.17-1.65l3.11-3.11.55-1.32v-1.2c-.13-.06-.26-.17-.39-.17-.85,0-1.7,0-2.55,0-.06,0-.12-.08-.22-.17V265c.38-.23.89-.22,1.14-.64h2.31l.83.83.7.18.14.66.42.44v1.69l-.65,1.28Z"/><path d="M19.92,207l1.86-1.76c.54,0,.78-.66,1.33-1l.59.12v1.5c-.57,1.06-1.9,1.28-2.63,2.14C20.45,207.9,20.24,207.5,19.92,207Z"/><path d="M205.12,206v-1.59a.54.54,0,0,1,.81-.08c.51.41,1.2.54,1.63,1.12.13.19.51.2.76.29v2c-.19.06-.36.18-.45.14a4,4,0,0,1-.71-.51,1.42,1.42,0,0,0-.75-.44c-.25,0-.46-.35-.7-.53S205.22,206.1,205.12,206Z"/><path d="M66.78,242h1c.17.16.39.36.61.58-.06.48-.6.58-.81,1.36v.65L66,245.77c-.21,0-.38-.49-.72-.73-.16-.48.19-.7.45-1-.21-.54.5-.7.47-1.18S66.68,242.37,66.78,242Z"/><path d="M178.76,232.2l1.63,1.62v.45l.42.45-.67,1.21c-.2,0-.3,0-.35,0a3.61,3.61,0,0,1-1.29-1.47,4.73,4.73,0,0,0-.86-1.12v-1C178,232.05,178.41,232.27,178.76,232.2Z"/><path d="M48.6,235.87l-.66-.72.62-1.43L50,232.25h1c.35.31.1.71.22,1.23-.28.23-.82.47-.92.84a1.53,1.53,0,0,1-.54.92C49.47,235.47,49.06,235.63,48.6,235.87Z"/><path d="M162.61,242c-.07,1.23.81,2,1,2.95l-.69.75a.76.76,0,0,1-.87-.38c-.47-.72-.7-1.57-1.23-2.27-.07-.1,0-.3,0-.46,0-.41.1-.58.47-.59S162.05,242,162.61,242Z"/><path d="M123.55,256v-4a1.23,1.23,0,0,1,1.33,0v1.91l.46.46.06,1-1.12.64Z"/><path d="M144.49,252.2h-1.22c-.39-.46,0-1.07-.5-1.51-.35-.28-.42-.89-.68-1.49l1-.66h.76l.67,1.3Z"/><path d="M103.41,254.47l.54-.65V252c.4-.34.79-.14,1.15-.19.08.12.22.24.22.37,0,1.21,0,2.43,0,3.58-.38.4-.79.15-1.21.25-.06-.19-.11-.39-.19-.58s-.16-.24-.23-.37S103.51,254.67,103.41,254.47Z"/><path d="M195.79,221.9l0,.79c-.41.3-.79.13-1.06.15-.76-.72-1.48-1.4-2.16-2.06v-.95c.3-.39.72-.13,1-.23Z"/><path d="M33.06,221.71l2.1-2.1h.92c.4.27.17.69.23.93L34,222.83h-.77C32.9,222.47,33.14,222.07,33.06,221.71Z"/><path d="M84.38,252.25v-2.47l.67-1.27c.31,0,.62,0,.92,0,.08.12.23.24.23.36,0,.69,0,1.38,0,2l-.7,1.34Z"/><path d="M77.82,298.17l-.34.34c-.26.49,0,1-.15,1.55l-2,2-1.43.07-.64.53-.8-.5h-1c0,.26-.1.47-.09.42l-1.73,1.74-.61-.57v-1.57l1-.79c-.27-.89-1-1.24-1.49-1.87v-3.7l.45-.48v-.45l1.63-1.65h.94l.43-.43c.88-.1,1.87,0,2.86-.06.37-.3.13-.72.21-1.12l.65-.69,1-.05.6.93c-.15.48-.14.48-.84,1.15v1.55l.88.62v1.1l.48.51Zm-5.19,2.25c.64.79,1,0,1.4-.16,1.13-.33,1.45-1.38,1.92-2.27v-1.25l-.74-.62c-.31.31-.82.61-1,1.05C73.71,298.28,73.06,299.33,72.63,300.42Zm-1.54-1.09c.27-.63.57-1.2.84-1.78a3.79,3.79,0,0,1,1.12-1.6l.34-1.27H72l-1.57,1.64v2.39Z"/><path d="M100.25,302l-.91-.9c-.21-.45.16-1.11-.51-1.43v-4.23l.42-.49V294l1.76-1.64h2.14c1.1.55,1.27,1.87,2.18,2.56v4.5l-.53,1-1.58,1.7h-.83l-.46.34Zm1.78-8c-.39.42-.83.67-.86,1,0,.44-.32.65-.49.92v3.25c.55.44.47,1.29,1.15,1.61l1.17-1.16c0-1.52,0-3.06,0-4.6,0-.06-.07-.12-.13-.21Z"/><path d="M94.52,296.07h.84l.65-.84c.08-.5-.45-.67-.71-1h-.93l-.35.35a3.33,3.33,0,0,1-1.54.09c-.37-.3-.13-.72-.22-1.16l1.3-1.12h2.63a7.68,7.68,0,0,1,1.41.91,6,6,0,0,1,.76,1.36c-.29.54-.59,1.12-1,1.81v.81l.84.79a8.33,8.33,0,0,1,.09,1.8,5.19,5.19,0,0,1-1.74,2.31H95.28l-.4.4-.51-.39H92.93l-1.17-1.62c0-.28.51-.41.78-.73h.89l.52.45H95.4l.83-1.36-.92-1h-1l-.64-1.24Z"/><path d="M89,294.91l-.65-.65c-.46-.19-.71.1-.94.4a3.37,3.37,0,0,1-1.63-.14V293l.52-.52s.11-.13.17-.13h3.23l.86.86.76,1.34v.69l-.81,1.53,1.22,2.38c-.69.93-.89,2.29-2.13,3h-.83l-.58.53-1-.51L86,302.1l-.71-.65V300c.3-.39.72-.16,1.1-.23l.54.45h1.85l.67-.64.06-1-.89-.64H87.32a2.74,2.74,0,0,1-.08-1.79l1.11-.11.66-.65Z"/><path d="M82,296.66v-.75l.65-1-1.23-.73h-.61l-.33.34c-.5.28-1,0-1.49.15-.43-.36-.19-.77-.28-1.21L80,292.37h2.59l1.7,1.78v2.71l-.9.66v.7L81.63,300s0,.11,0,.16c.42.28.89.11,1.33.14s.78,0,1.15,0l.67.67a2.24,2.24,0,0,1-.07,1.14H78.93l-.71-.71.79-1.69Z"/><path d="M155.46,319.4h1.76l1.49,1.4.65,1.31V327c-.35.53-.48,1.32-1.15,1.76a9.55,9.55,0,0,1-1.29.8,1,1,0,0,1-1.25-.16c-.31-.36-.72-.15-1.09-.22a1.5,1.5,0,0,1-.83-1.23c-.64-.3-.25-1-.52-1.48l-.56-.09c-.53.39,0,1.05-.51,1.48s-.35,1-.84,1.26c-.86-.16-1.47.74-2.34.53-.32-.16-.49-.63-1-.44a9.83,9.83,0,0,1-.93-1,13.19,13.19,0,0,1-.75-1.46.69.69,0,0,0-.07-.75l-1.21.57V329a3.05,3.05,0,0,1-1.89.06v-2.48c-.56-.38-1.11-.17-1.63-.2s-.93,0-1.43,0l-.66-.72v-1.35c.35-.61,1.12-.92,1.39-1.69s1-1.14,1.49-1.7,1.07-1.08,1.5-1.51c.67-.09.8.38,1.18.63v3.67l.68.81.52,0c0-.05.16-.11.16-.16,0-.77,0-1.54,0-2.2.19-.44.69-.6.5-1.11l1.72-1.63h1.78l1,.93.53,0c.09.25.16.53.28.79a1.47,1.47,0,0,0,.33.33v1l.87.17.09-1.07a6.77,6.77,0,0,1,.45-.89c.2-.31.43-.8.69-.83A1.65,1.65,0,0,0,155.46,319.4Zm.45,8.38c1.17.09,1-1.15,1.63-1.62v-3.37c-.74,0-.26-.71-.64-1h-1l-.62.66v4C155.52,327,155.72,327.39,155.91,327.78Zm-6.59-.06,1.24-1.07c0-1.64,0-3.12,0-4.59,0-.11-.16-.23-.24-.34h-1.39l-.67,1.32v3.07C148.78,326.51,148.65,327.39,149.32,327.72Zm-6.26-4.6h-.68l-.6,1.25a1.19,1.19,0,0,0,1.28,0Z"/><path d="M128.42,329.18l-.49.45H127c-.28-.28-.51-.63-1-.36l-.16.67-1.63,1.57h-.46c-.36-.63-.11-1.33-.2-2l.48-.57c0-.22.12-.61,0-.81-.55-.78-.78-1.73-1.37-2.45V324l1.16-2.26,1.33-1.33c.48-.15,1.1.12,1.43-.51h1.42l.42.38,1.2-.6v-.9c.2-.23.41-.45.66-.71h1.06c.34.5.1,1,.17,1.57l-.47.5v1.19l1.37,2.67v1.58l-1.17,2.26-1.4,1.37Zm-2.7-2.81c0-.24,0-.55.14-.64.51-.38.55-1,.87-1.51s.5-1.17.87-1.7a.55.55,0,0,0-.12-.8h-1l-1.62,1.7c0,.83,0,1.75,0,2.67,0,.06.07.12.15.23Zm1.53,1.29c.23.08.31.13.36.11a6.74,6.74,0,0,0,1.37-.59,7.66,7.66,0,0,0,1-1c0-1.12,0-2,0-2.94,0-.06-.1-.12-.14-.16h-.48c-.53.86-.75,1.91-1.63,2.53v.94l-.46.5Z"/><path d="M136.1,326.62c0,.18,0,.33,0,.49s.11.15.16.15h2.33l.67,1.29-.5.49c-.06,0-.12.12-.18.12h-5.54c-.08-.09-.19-.14-.19-.2,0-.46,0-.92,0-1.36l2.7-2.71.06-.6.92-1v-1.4c-.13-.08-.25-.21-.38-.21-1.07,0-2.14,0-3.14,0-.38-.52-.1-.77.15-1.08a1.44,1.44,0,0,0,.22-.59l1.16-.65h2.24c.28.28.56.55.83.83l.79.27v1l.45.48v.94l-.38.38-.13,1.15Z"/></g></g></svg>