<svg xmlns="http://www.w3.org/2000/svg" viewBox="0 0 153.39 153.4"><title>Recurso 95MANDALA</title><g id="Capa_2" data-name="Capa 2"><g id="Capa_1-2" data-name="Capa 1"><path d="M78.64,63.88c.81-.27-17,8.86-33.1,9.32C1.27,74.44,6.71,108.43,6.93,109.26S1.78,69.69,51.42,81.68C65.83,85.16,67.76,67.4,78.64,63.88Z"/><path d="M74.14,64c.67-.53-13,14.15-27.92,20.07C5,100.38,21.78,130.45,22.27,131.16S3.9,95.73,54.64,90C69.38,88.36,65.12,71,74.14,64Z"/><path d="M69.94,65.63C70.4,64.9,62.59,83.37,50.58,94c-33.12,29.41-7.1,52-6.4,52.45s-29.38-27,16.35-49.73C73.81,90.16,63.87,75.33,69.94,65.63Z"/><path d="M66.56,68.61c.18-.84-.84,19.18-8.48,33.32-21,39,11.1,51.25,11.93,51.47s-36.84-15.33-1.64-52.32C78.59,90.34,64.17,79.79,66.56,68.61Z"/><path d="M64.4,72.56c-.11-.85,5.78,18.32,3.43,34.21-6.46,43.82,28,44.37,28.81,44.29s-39.86-1.8-19.43-48.6C83.14,88.87,66,83.89,64.4,72.56Z"/><path d="M63.73,77c-.4-.75,11.69,15.24,14.92,31,8.92,43.38,41.45,32.13,42.22,31.76S82.8,151.69,86,100.73C86.91,85.93,69.09,87.12,63.73,77Z"/><path d="M64.62,81.43c-.64-.58,16.2,10.32,24.61,24,23.22,37.72,49.94,16,50.54,15.41S108.08,145.08,93.64,96.1C89.45,81.88,73.11,89.09,64.62,81.43Z"/><path d="M67,85.27c-.79-.32,18.75,4.17,31.35,14.14,34.71,27.5,52.39-2,52.76-2.81s-21.5,33.62-51.81-7.46C90.45,77.2,77.57,89.57,67,85.27Z"/><path d="M70.48,88.09c-.85,0,19-2.51,34.29,2.56,42,14,48.54-19.83,48.62-20.68s-8.7,38.94-51.24,10.7C89.79,72.47,81.92,88.49,70.48,88.09Z"/><path d="M74.75,89.52c-.82.27,17-8.86,33.1-9.31C152.12,79,146.68,45,146.46,44.14S151.61,83.71,102,71.72C87.56,68.24,85.63,86,74.75,89.52Z"/><path d="M79.25,89.41c-.67.53,13-14.15,27.92-20.07,41.18-16.31,24.44-46.39,24-47.1s18.37,35.43-32.37,41.14C84,65,88.27,82.38,79.25,89.41Z"/><path d="M83.45,87.77C83,88.5,90.8,70,102.81,59.36c33.12-29.41,7.1-51.95,6.4-52.45s29.38,27-16.35,49.73C79.58,63.24,89.52,78.08,83.45,87.77Z"/><path d="M86.83,84.8c-.18.83.84-19.19,8.48-33.32,21-39-11.1-51.26-11.93-51.48S120.22,15.33,85,52.32C74.8,63.07,89.22,73.61,86.83,84.8Z"/><path d="M89,80.84c.12.85-5.77-18.32-3.42-34.21C92,2.81,57.6,2.27,56.75,2.34s39.86,1.81,19.43,48.6C70.25,64.54,87.4,69.51,89,80.84Z"/><path d="M89.66,76.39c.4.76-11.69-15.24-14.92-31C65.82,2,33.29,13.29,32.52,13.65s38.07-11.94,34.88,39C66.48,67.47,84.3,66.28,89.66,76.39Z"/><path d="M88.77,72c.64.58-16.2-10.32-24.62-24C40.94,10.25,14.22,32,13.62,32.56S45.31,8.32,59.75,57.3C63.94,71.52,80.28,64.31,88.77,72Z"/><path d="M86.43,68.13C87.22,68.45,67.68,64,55.08,54,20.37,26.49,2.69,56,2.32,56.8s21.5-33.62,51.81,7.47C62.94,76.2,75.82,63.83,86.43,68.13Z"/><path d="M82.91,65.32c.85,0-19,2.5-34.29-2.57C6.59,48.78.08,82.58,0,83.43s8.7-38.94,51.24-10.7C63.6,80.94,71.47,64.91,82.91,65.32Z"/></g></g></svg>