<svg xmlns="http://www.w3.org/2000/svg" viewBox="0 0 110.45 110.45"><title>Recurso 75MANDALA</title><g id="Capa_2" data-name="Capa 2"><g id="Capa_1-2" data-name="Capa 1"><path d="M39.43,19.24a17.81,17.81,0,0,0-3.54-3.56,52.06,52.06,0,0,0-17-2.23,12.22,12.22,0,0,1,6.4,2.39c10,3.05,19.64,8.57,27.08,19.08a20.91,20.91,0,0,0,2.13-5.76,18.76,18.76,0,0,0,.38-2.78A22,22,0,0,1,55.52,32a49.11,49.11,0,0,1,9.87,19.6,32.68,32.68,0,0,0,7-9.68C63.16,24.77,48.61,16.27,35.28,13.54a13.63,13.63,0,0,1,2.62,2.81A13.34,13.34,0,0,1,39.43,19.24Z"/><path d="M69.5,18.61a17.51,17.51,0,0,0,0-5A52,52,0,0,0,59.08,0a12.07,12.07,0,0,1,2.83,6.21c4.92,9.23,7.83,20,5.66,32.65a21.2,21.2,0,0,0,5.58-2.57,18.58,18.58,0,0,0,2.24-1.7A22.26,22.26,0,0,1,71.88,39,49.17,49.17,0,0,1,65,59.83a32.72,32.72,0,0,0,11.77-1.92C82.37,39.3,78.09,23,70.6,11.65a13.68,13.68,0,0,1-.14,3.84A13,13,0,0,1,69.5,18.61Z"/><path d="M91.21,39.43a17.51,17.51,0,0,0,3.55-3.54A51.8,51.8,0,0,0,97,18.9a12.14,12.14,0,0,1-2.4,6.4c-3,10-8.56,19.64-19.07,27.08a20.91,20.91,0,0,0,5.76,2.13,18.76,18.76,0,0,0,2.78.38,22,22,0,0,1-5.59.63,49.11,49.11,0,0,1-19.6,9.87,32.68,32.68,0,0,0,9.68,7c17.12-9.19,25.62-23.74,28.35-37.07A13.89,13.89,0,0,1,94.1,37.9,13.34,13.34,0,0,1,91.21,39.43Z"/><path d="M91.83,69.5a17.58,17.58,0,0,0,5,0,52,52,0,0,0,13.6-10.43,12.14,12.14,0,0,1-6.22,2.83C95,66.83,84.29,69.74,71.59,67.57a20.89,20.89,0,0,0,2.57,5.58,18.58,18.58,0,0,0,1.7,2.24,22.26,22.26,0,0,1-4.4-3.51A49.17,49.17,0,0,1,50.62,65a32.72,32.72,0,0,0,1.92,11.77c18.6,5.6,34.9,1.32,46.26-6.17A13.68,13.68,0,0,1,95,70.46,13.19,13.19,0,0,1,91.83,69.5Z"/><path d="M71,91.21a17.82,17.82,0,0,0,3.55,3.55,51.8,51.8,0,0,0,17,2.24,12.11,12.11,0,0,1-6.4-2.4c-10-3-19.64-8.56-27.08-19.07a20.91,20.91,0,0,0-2.13,5.76,18.76,18.76,0,0,0-.38,2.78,22.42,22.42,0,0,1-.64-5.59,49.37,49.37,0,0,1-9.87-19.6,32.65,32.65,0,0,0-6.95,9.68c9.18,17.12,23.74,25.62,37.06,28.35a14.13,14.13,0,0,1-2.61-2.81A13.38,13.38,0,0,1,71,91.21Z"/><path d="M40.94,91.83a18,18,0,0,0,0,5,52,52,0,0,0,10.43,13.6,12.14,12.14,0,0,1-2.83-6.22C43.62,95,40.71,84.29,42.88,71.59a20.89,20.89,0,0,0-5.58,2.57,18.58,18.58,0,0,0-2.24,1.7,22.26,22.26,0,0,1,3.51-4.4,49.17,49.17,0,0,1,6.88-20.84,32.72,32.72,0,0,0-11.77,1.92c-5.6,18.6-1.33,34.9,6.17,46.26A13.68,13.68,0,0,1,40,95,14.17,14.17,0,0,1,40.94,91.83Z"/><path d="M19.24,71a18.14,18.14,0,0,0-3.56,3.55,52.06,52.06,0,0,0-2.23,17,12.18,12.18,0,0,1,2.39-6.4c3.05-10,8.57-19.64,19.08-27.08a20.91,20.91,0,0,0-5.76-2.13,18.76,18.76,0,0,0-2.78-.38A22.42,22.42,0,0,1,32,54.92a49.37,49.37,0,0,1,19.6-9.87,32.65,32.65,0,0,0-9.68-6.95C24.77,47.28,16.27,61.84,13.54,75.16a13.86,13.86,0,0,1,2.81-2.61A13.38,13.38,0,0,1,19.24,71Z"/><path d="M18.61,40.94a17.89,17.89,0,0,0-5,0A52,52,0,0,0,0,51.37a12.07,12.07,0,0,1,6.21-2.83c9.23-4.92,20-7.83,32.65-5.66a21.2,21.2,0,0,0-2.57-5.58,18.58,18.58,0,0,0-1.7-2.24A22.26,22.26,0,0,1,39,38.57a49.17,49.17,0,0,1,20.84,6.88,32.72,32.72,0,0,0-1.92-11.77C39.3,28.08,23,32.35,11.65,39.85a13.68,13.68,0,0,1,3.84.13A13.93,13.93,0,0,1,18.61,40.94Z"/></g></g></svg>