<svg xmlns="http://www.w3.org/2000/svg" viewBox="0 0 104.37 104.37"><title>Recurso 24MANDALA</title><g id="Capa_2" data-name="Capa 2"><g id="Capa_1-2" data-name="Capa 1"><path d="M69.85,87.22a2,2,0,0,0-.1-1.2,3.41,3.41,0,0,0-.55-.93,8,8,0,0,0-1.5-1.31A25.44,25.44,0,0,0,64.39,82c-1.14-.53-2.28-1-3.36-1.65s-2.17-1.23-3.29-1.84-2.2-1.31-3.33-2-2.31-1.41-3.61-2.12a43.12,43.12,0,0,0-4.38-2.06,17.3,17.3,0,0,0-2.76-.83,6.21,6.21,0,0,0-3.15.06,3.94,3.94,0,0,0-2.13,2.17A5.58,5.58,0,0,0,38,76.41a9.77,9.77,0,0,0,2,4.9c2.18,2.92,5.71,4.85,9.15,6.26a38.82,38.82,0,0,0,5.28,1.74,34.25,34.25,0,0,0,5.37,1,18.42,18.42,0,0,0,5.49-.17,10.15,10.15,0,0,0,2.65-.91,5.21,5.21,0,0,0,1.18-.82A2.71,2.71,0,0,0,69.85,87.22Zm.19,0a3,3,0,0,1-.83,1.35,6.45,6.45,0,0,1-1.22.93,14.52,14.52,0,0,1-2.76,1.23,25.42,25.42,0,0,1-6.06,1.18,25.16,25.16,0,0,1-3.13,0A21.22,21.22,0,0,1,53,91.55a22.32,22.32,0,0,1-5.73-2,22.67,22.67,0,0,1-8.37-7.69,14.49,14.49,0,0,1-2.23-5.09,7.06,7.06,0,0,1,0-2.93,4.46,4.46,0,0,1,.82-1.65,5.93,5.93,0,0,1,2.36-1.69,10.89,10.89,0,0,1,3.26-.7,16.39,16.39,0,0,1,2.38,0,21.37,21.37,0,0,1,3.42.62,28.8,28.8,0,0,1,4.71,1.71,40.63,40.63,0,0,1,6.59,3.69,36.06,36.06,0,0,1,5.26,4.51c.86.86,1.74,1.79,2.66,2.77a16.91,16.91,0,0,1,1.33,1.62,5.09,5.09,0,0,1,.54,1A2.3,2.3,0,0,1,70,87.23Z"/><path d="M56.06,82.21a4.37,4.37,0,0,0-2.09.88,2.32,2.32,0,0,0-.56,2,4.07,4.07,0,0,0,.79,1.86,8.84,8.84,0,0,0,3.27,2.62,21,21,0,0,0,9,1.7A39.21,39.21,0,0,0,71,91a34.22,34.22,0,0,0,4.51-.75,17.17,17.17,0,0,0,4.25-1.55,8.38,8.38,0,0,0,1.79-1.3,3.45,3.45,0,0,0,.65-.84,1.41,1.41,0,0,0,.17-.95,1.32,1.32,0,0,0-.54-.73,3.25,3.25,0,0,0-.82-.44,9.9,9.9,0,0,0-1.65-.4L78.92,84c-.94-.12-1.87-.15-2.79-.2l-1.38-.06c-.61,0-1.22-.06-1.83-.11-1.06-.08-2.11-.21-3.17-.33s-2.12-.26-3.19-.42c-1.24-.19-2.5-.39-3.83-.54-.57-.07-1.15-.13-1.75-.18-.8-.06-1.63-.11-2.5-.11h-.67A13.61,13.61,0,0,0,56.06,82.21Zm.57-1.49a15.37,15.37,0,0,1,2.59-.5,24.77,24.77,0,0,1,4.08-.08,46.89,46.89,0,0,1,6.6.78,53.73,53.73,0,0,1,6.17,1.57c1.07.33,2.17.68,3.32,1.06a16.21,16.21,0,0,1,1.74.66,4.3,4.3,0,0,1,.85.5,1.51,1.51,0,0,1,.59.86,1.57,1.57,0,0,1-.17,1.08,3.89,3.89,0,0,1-.64.92A10.8,10.8,0,0,1,80,89.1a21.68,21.68,0,0,1-4.3,2.35,20.42,20.42,0,0,1-2.39.82,20.94,20.94,0,0,1-7.47.74,22,22,0,0,1-8.92-2.8,13,13,0,0,1-3.48-2.68,5.54,5.54,0,0,1-1.11-1.88,2.81,2.81,0,0,1-.09-1.28,3.38,3.38,0,0,1,.89-1.72A6.59,6.59,0,0,1,55,81.32,10.66,10.66,0,0,1,56.63,80.72Z"/><path d="M71.41,86.14a2.47,2.47,0,0,0-1.1,1.1,1.37,1.37,0,0,0,.48,1.31,4,4,0,0,0,1.38.88,9.81,9.81,0,0,0,3.51.61,21,21,0,0,0,7.46-1.64,36.65,36.65,0,0,0,3.51-1.55A32.78,32.78,0,0,0,90,85a15.43,15.43,0,0,0,2.88-2.36,6.57,6.57,0,0,0,1-1.4,2.11,2.11,0,0,0,.23-.74.72.72,0,0,0-.2-.61,1.26,1.26,0,0,0-.72-.23,4.18,4.18,0,0,0-.86,0,13.14,13.14,0,0,0-1.44.34l-.4.12c-.79.25-1.54.52-2.28.8l-1.09.4c-.48.18-1,.35-1.45.51-.84.29-1.69.54-2.53.79s-1.68.48-2.53.7c-1.19.3-2.39.57-3.6.88-.51.13-1,.26-1.55.41-.71.2-1.42.42-2.15.69l-.53.2A10.25,10.25,0,0,0,71.41,86.14Zm-.27-1a10.08,10.08,0,0,1,1.67-1,21.19,21.19,0,0,1,3-1.19c2-.62,3.78-1.08,5.64-1.49s3.74-.79,5.82-1.11l3.23-.57c.56-.09,1.14-.2,1.73-.25a4.62,4.62,0,0,1,.91,0,1.36,1.36,0,0,1,.81.28.8.8,0,0,1,.25.7,2.57,2.57,0,0,1-.2.78,8.91,8.91,0,0,1-.9,1.52,18.15,18.15,0,0,1-2.61,2.84A20,20,0,0,1,89,86.85,19.61,19.61,0,0,1,87.21,88a20.86,20.86,0,0,1-3.79,1.66,23,23,0,0,1-7.85,1A14.67,14.67,0,0,1,71.9,90a6.12,6.12,0,0,1-1.62-.8,2.38,2.38,0,0,1-.63-.73,1.76,1.76,0,0,1-.13-1.26,3.16,3.16,0,0,1,.73-1.3A5.88,5.88,0,0,1,71.14,85.1Z"/><path d="M103.08,69.91a3,3,0,0,0-1.39.69c-.44.34-.87.7-1.26,1.05-.79.71-1.49,1.41-2.19,2.07-1.37,1.33-2.76,2.51-4.15,3.62s-2.8,2.12-4.16,3.17c-.68.52-1.35,1.06-2,1.64a8.23,8.23,0,0,0-.86.92,1.2,1.2,0,0,0-.34.94c.08.25.51.43,1,.48a5,5,0,0,0,1.44-.06,11.37,11.37,0,0,0,3-1,21.3,21.3,0,0,0,5.18-3.82,33.82,33.82,0,0,0,4.23-4.87,14.32,14.32,0,0,0,1.57-2.7,5.2,5.2,0,0,0,.39-1.31C103.52,70.33,103.46,69.94,103.08,69.91Zm.07-.12a.46.46,0,0,1,.43.29,1.46,1.46,0,0,1,.07.57,6.05,6.05,0,0,1-.24,1.32,15.65,15.65,0,0,1-1.17,2.84A19.16,19.16,0,0,1,98,80.11a23.2,23.2,0,0,1-5.74,3.63,15.25,15.25,0,0,1-3.06,1.07,7,7,0,0,1-1.58.18,2.45,2.45,0,0,1-.8-.14,1.16,1.16,0,0,1-.68-.58,1.34,1.34,0,0,1,0-.9,3.39,3.39,0,0,1,.31-.72,6.92,6.92,0,0,1,.85-1.11,17.36,17.36,0,0,1,1.91-1.75c1.3-1.07,2.63-2.06,4-3.09s2.86-2.09,4.51-3.27c.81-.6,1.66-1.23,2.55-1.91.44-.33.89-.68,1.38-1a8.12,8.12,0,0,1,.76-.47A1.78,1.78,0,0,1,103.15,69.79Z"/><path d="M89.45,64.47a2,2,0,0,0-.92-.78,3.39,3.39,0,0,0-1-.27,8.61,8.61,0,0,0-2,.13,24.13,24.13,0,0,0-3.63,1.07c-1.17.42-2.34.86-3.54,1.21s-2.4.66-3.62,1-2.49.64-3.78.94-2.64.63-4.06,1a42.6,42.6,0,0,0-4.55,1.64,17.14,17.14,0,0,0-2.54,1.36,6.28,6.28,0,0,0-2.19,2.28,3.93,3.93,0,0,0,0,3,5.6,5.6,0,0,0,1.65,2.23,9.66,9.66,0,0,0,4.88,2c3.61.53,7.47-.6,10.89-2a39.19,39.19,0,0,0,5-2.51,33.26,33.26,0,0,0,4.5-3.1,17.84,17.84,0,0,0,3.75-4,10,10,0,0,0,1.24-2.51,4.86,4.86,0,0,0,.25-1.41A2.54,2.54,0,0,0,89.45,64.47Zm.14-.13A3,3,0,0,1,90,65.88a7,7,0,0,1-.2,1.52,15.09,15.09,0,0,1-1.09,2.82,25.28,25.28,0,0,1-3.45,5.12A23.16,23.16,0,0,1,83,77.57a22.5,22.5,0,0,1-2.46,1.91,22.08,22.08,0,0,1-5.44,2.65,22.67,22.67,0,0,1-11.36.49,14.47,14.47,0,0,1-5.18-2,7.33,7.33,0,0,1-2.06-2.09,4.68,4.68,0,0,1-.58-1.75,5.83,5.83,0,0,1,.48-2.86,10.57,10.57,0,0,1,1.8-2.8,16,16,0,0,1,1.72-1.65,21.38,21.38,0,0,1,2.86-2,28.57,28.57,0,0,1,4.54-2.12,40.24,40.24,0,0,1,7.27-2,36.08,36.08,0,0,1,6.9-.53c1.22,0,2.5,0,3.84.08a14,14,0,0,1,2.09.21,4.94,4.94,0,0,1,1.12.34A2.41,2.41,0,0,1,89.59,64.34Z"/><path d="M76.16,70.67a4.32,4.32,0,0,0-.85,2.1,2.31,2.31,0,0,0,1,1.79,4.23,4.23,0,0,0,1.88.76,8.86,8.86,0,0,0,4.17-.46,21,21,0,0,0,7.54-5.14A39.9,39.9,0,0,0,93,66.31a34.41,34.41,0,0,0,2.65-3.72,16.66,16.66,0,0,0,1.9-4.11,8.28,8.28,0,0,0,.36-2.18,3.72,3.72,0,0,0-.14-1.06,1.45,1.45,0,0,0-.55-.79,1.35,1.35,0,0,0-.9-.13,2.91,2.91,0,0,0-.88.27,10.1,10.1,0,0,0-1.46.88l-.38.29c-.75.58-1.44,1.22-2.13,1.84l-1,.93c-.45.41-.91.82-1.37,1.21-.81.69-1.64,1.34-2.47,2s-1.69,1.31-2.56,2S82,65.2,81,66l-1.36,1.11c-.61.53-1.23,1.08-1.85,1.7-.16.15-.31.31-.47.48A13.77,13.77,0,0,0,76.16,70.67Zm-.66-1.46A16.09,16.09,0,0,1,77,67a24.36,24.36,0,0,1,2.82-2.94A46,46,0,0,1,85,60a53.55,53.55,0,0,1,5.48-3.26c1-.52,2-1,3.09-1.6a16.49,16.49,0,0,1,1.7-.76,4.28,4.28,0,0,1,1-.25,1.44,1.44,0,0,1,1.67,1.08,4.11,4.11,0,0,1,.2,1.11A10.79,10.79,0,0,1,98,58.62a21.83,21.83,0,0,1-1.38,4.7,21.4,21.4,0,0,1-2.48,4.41,21.16,21.16,0,0,1-3.39,3.67,22.19,22.19,0,0,1-8.29,4.33,13,13,0,0,1-4.35.56A5.55,5.55,0,0,1,76,75.74a2.75,2.75,0,0,1-1-.83,3.35,3.35,0,0,1-.58-1.86,6.21,6.21,0,0,1,.39-2.26A10.84,10.84,0,0,1,75.5,69.21Z"/><path d="M89.79,62.6a2.47,2.47,0,0,0,0,1.55,1.4,1.4,0,0,0,1.26.6,4,4,0,0,0,1.6-.37,9.78,9.78,0,0,0,2.92-2,21.22,21.22,0,0,0,4.11-6.43c.52-1.18,1-2.37,1.39-3.58a31.74,31.74,0,0,0,1-3.68,15.73,15.73,0,0,0,.37-3.71,6.72,6.72,0,0,0-.27-1.71,2.31,2.31,0,0,0-.36-.68.74.74,0,0,0-.58-.3,1.29,1.29,0,0,0-.66.35,5,5,0,0,0-.58.64,13.15,13.15,0,0,0-.78,1.27l-.2.36c-.38.73-.71,1.46-1,2.17l-.49,1.06c-.22.47-.44.94-.66,1.39-.4.8-.82,1.58-1.24,2.35s-.85,1.52-1.29,2.28c-.63,1.05-1.28,2.09-1.92,3.16-.28.46-.55.92-.81,1.4-.36.64-.71,1.3-1,2l-.24.52A11,11,0,0,0,89.79,62.6Zm-.93-.54a10.32,10.32,0,0,1,.48-1.9,20.81,20.81,0,0,1,1.31-3c.94-1.82,1.91-3.44,2.93-5s2.1-3.2,3.33-4.91c.61-.85,1.24-1.74,1.89-2.68.33-.46.66-.94,1-1.4a5.51,5.51,0,0,1,.62-.66,1.4,1.4,0,0,1,.78-.38.83.83,0,0,1,.66.32,2.31,2.31,0,0,1,.41.7,7.66,7.66,0,0,1,.44,1.71,18,18,0,0,1,.17,3.85,20.2,20.2,0,0,1-.24,2,17.64,17.64,0,0,1-.45,2,20.25,20.25,0,0,1-1.51,3.85,22.59,22.59,0,0,1-4.86,6.24,14,14,0,0,1-3,2.18,5.67,5.67,0,0,1-1.71.58,2.39,2.39,0,0,1-1-.07,1.77,1.77,0,0,1-1-.8,3.22,3.22,0,0,1-.41-1.44A6.4,6.4,0,0,1,88.86,62.06Z"/><path d="M100.7,28.73a3.15,3.15,0,0,0-.49,1.47c-.07.56-.12,1.11-.14,1.63-.06,1.06-.07,2.05-.09,3,0,1.91-.18,3.73-.37,5.49s-.49,3.48-.71,5.18c-.11.86-.2,1.71-.24,2.56a8.7,8.7,0,0,0,0,1.26c.06.4.2.79.43.9s.67-.05,1-.33a4.77,4.77,0,0,0,1-1.07,11,11,0,0,0,1.39-2.79,21.48,21.48,0,0,0,1-6.37,34.6,34.6,0,0,0-.45-6.43,14.68,14.68,0,0,0-.8-3,5.42,5.42,0,0,0-.65-1.2C101.32,28.72,101,28.48,100.7,28.73Zm0-.13a.44.44,0,0,1,.51-.1,1.23,1.23,0,0,1,.45.35A5.29,5.29,0,0,1,102.4,30a15.51,15.51,0,0,1,1.18,2.83,19,19,0,0,1,.75,6.74,23.56,23.56,0,0,1-1.49,6.63,16.07,16.07,0,0,1-1.41,2.92,7,7,0,0,1-1,1.24,2.4,2.4,0,0,1-.66.47,1.2,1.2,0,0,1-.9.08,1.43,1.43,0,0,1-.67-.61,3.36,3.36,0,0,1-.29-.73,6.7,6.7,0,0,1-.18-1.38,18.38,18.38,0,0,1,.11-2.59c.17-1.68.4-3.32.66-5s.54-3.5.87-5.5c.16-1,.31-2.05.46-3.15.08-.55.15-1.12.26-1.69a6.45,6.45,0,0,1,.2-.87A1.88,1.88,0,0,1,100.67,28.6Z"/><path d="M87.22,34.52a1.93,1.93,0,0,0-1.2.1,3.41,3.41,0,0,0-.93.55,8.29,8.29,0,0,0-1.31,1.49A25.55,25.55,0,0,0,82,40c-.53,1.13-1,2.27-1.65,3.36s-1.23,2.17-1.84,3.29-1.31,2.2-2,3.33-1.41,2.3-2.12,3.61A43.12,43.12,0,0,0,72.28,58a17.3,17.3,0,0,0-.83,2.76,6.21,6.21,0,0,0,.06,3.15A3.94,3.94,0,0,0,73.68,66a5.7,5.7,0,0,0,2.73.41,9.77,9.77,0,0,0,4.9-2c2.92-2.19,4.85-5.71,6.26-9.15A39.75,39.75,0,0,0,89.31,50a34.16,34.16,0,0,0,1-5.38,18.36,18.36,0,0,0-.17-5.48,10.34,10.34,0,0,0-.91-2.66,4.94,4.94,0,0,0-.82-1.17A2.62,2.62,0,0,0,87.22,34.52Zm0-.2a3.1,3.1,0,0,1,1.35.83,6.52,6.52,0,0,1,.93,1.23,14.52,14.52,0,0,1,1.23,2.76,25.07,25.07,0,0,1,1.2,9.19,21.22,21.22,0,0,1-.39,3.09,22.12,22.12,0,0,1-2,5.72,22.7,22.7,0,0,1-7.69,8.38,14.49,14.49,0,0,1-5.09,2.23,7.06,7.06,0,0,1-2.93,0,4.46,4.46,0,0,1-1.65-.82,6,6,0,0,1-1.69-2.36,10.89,10.89,0,0,1-.7-3.26,16.35,16.35,0,0,1,0-2.38,21.37,21.37,0,0,1,.62-3.42,28.8,28.8,0,0,1,1.71-4.71,40.63,40.63,0,0,1,3.69-6.59,36.06,36.06,0,0,1,4.51-5.26c.86-.86,1.79-1.74,2.77-2.66a16.91,16.91,0,0,1,1.62-1.33,4.64,4.64,0,0,1,1-.54A2.38,2.38,0,0,1,87.23,34.32Z"/><path d="M82.21,48.31a4.33,4.33,0,0,0,.88,2.08,2.33,2.33,0,0,0,2,.57,4.18,4.18,0,0,0,1.86-.79,8.84,8.84,0,0,0,2.62-3.27,21,21,0,0,0,1.7-9A39.32,39.32,0,0,0,91,33.32a34.07,34.07,0,0,0-.75-4.5,17.17,17.17,0,0,0-1.55-4.25,8.7,8.7,0,0,0-1.3-1.8,3.67,3.67,0,0,0-.84-.64,1.41,1.41,0,0,0-.95-.17,1.32,1.32,0,0,0-.73.54,3.25,3.25,0,0,0-.44.82,9.67,9.67,0,0,0-.4,1.65c0,.16,0,.32-.07.47-.12.95-.15,1.88-.2,2.8l-.06,1.38c0,.61-.06,1.22-.11,1.83-.08,1.06-.21,2.1-.33,3.16s-.26,2.12-.42,3.2c-.19,1.24-.39,2.5-.54,3.83q-.1.86-.18,1.74c-.06.8-.11,1.64-.11,2.51,0,.22,0,.44,0,.67A13.78,13.78,0,0,0,82.21,48.31Zm-1.49-.57a15.76,15.76,0,0,1-.5-2.59,24.79,24.79,0,0,1-.08-4.08,46.89,46.89,0,0,1,.78-6.6,53.21,53.21,0,0,1,1.57-6.17c.33-1.07.68-2.17,1.06-3.32a16.36,16.36,0,0,1,.66-1.75,5,5,0,0,1,.5-.85,1.61,1.61,0,0,1,.86-.59,1.69,1.69,0,0,1,1.08.17,4.25,4.25,0,0,1,.92.65,10.4,10.4,0,0,1,1.53,1.76,21.4,21.4,0,0,1,2.35,4.3,19.8,19.8,0,0,1,.82,2.39A20.94,20.94,0,0,1,93,38.53a22.1,22.1,0,0,1-2.8,8.92,13,13,0,0,1-2.68,3.48A5.54,5.54,0,0,1,85.65,52a2.81,2.81,0,0,1-1.28.09,3.33,3.33,0,0,1-1.72-.9,6.32,6.32,0,0,1-1.33-1.88A10.2,10.2,0,0,1,80.72,47.74Z"/><path d="M86.14,33a2.47,2.47,0,0,0,1.1,1.1,1.37,1.37,0,0,0,1.31-.48,4,4,0,0,0,.88-1.39,9.75,9.75,0,0,0,.61-3.5,21,21,0,0,0-1.64-7.46,36.65,36.65,0,0,0-1.55-3.51,30.7,30.7,0,0,0-1.9-3.3,15.19,15.19,0,0,0-2.36-2.89,6.87,6.87,0,0,0-1.4-1,2.11,2.11,0,0,0-.74-.23.71.71,0,0,0-.61.19,1.31,1.31,0,0,0-.23.72,4.14,4.14,0,0,0,0,.86A13.32,13.32,0,0,0,80,13.51l.12.4c.25.78.52,1.53.8,2.27.13.37.27.74.4,1.1s.35,1,.51,1.45c.29.84.54,1.69.79,2.53s.48,1.68.7,2.53c.3,1.19.57,2.38.88,3.59.13.52.26,1,.41,1.56.2.71.42,1.42.69,2.14.06.18.13.36.2.54A10.25,10.25,0,0,0,86.14,33Zm-1,.27a10.51,10.51,0,0,1-1-1.67,21.29,21.29,0,0,1-1.19-3.06c-.62-1.95-1.08-3.77-1.49-5.63s-.79-3.74-1.11-5.82c-.18-1-.37-2.11-.57-3.23-.09-.57-.2-1.14-.25-1.74a4.5,4.5,0,0,1,0-.9,1.42,1.42,0,0,1,.28-.82.86.86,0,0,1,.7-.25,2.93,2.93,0,0,1,.78.21,8.3,8.3,0,0,1,1.52.9,17.68,17.68,0,0,1,2.84,2.61,20,20,0,0,1,1.26,1.59A19.61,19.61,0,0,1,88,17.16,20.27,20.27,0,0,1,89.61,21a23,23,0,0,1,1,7.85A14.74,14.74,0,0,1,90,32.47a6.06,6.06,0,0,1-.8,1.61,2.25,2.25,0,0,1-.73.63,1.75,1.75,0,0,1-1.26.14,3.16,3.16,0,0,1-1.3-.73A5.88,5.88,0,0,1,85.1,33.23Z"/><path d="M69.91,1.29a3.07,3.07,0,0,0,.69,1.39c.34.44.7.87,1.05,1.26.71.79,1.41,1.49,2.07,2.19,1.33,1.37,2.51,2.76,3.62,4.15s2.12,2.8,3.17,4.16c.52.68,1.06,1.35,1.64,2a8.23,8.23,0,0,0,.92.86,1.23,1.23,0,0,0,.94.34c.25-.08.43-.51.48-1a5.12,5.12,0,0,0-.06-1.45,11.43,11.43,0,0,0-1-3,21.35,21.35,0,0,0-3.82-5.19,33.75,33.75,0,0,0-4.87-4.22A14.32,14.32,0,0,0,72,1.28,5.2,5.2,0,0,0,70.73.89C70.33.85,69.94.91,69.91,1.29Zm-.12-.07a.46.46,0,0,1,.29-.43,1.46,1.46,0,0,1,.57-.08A6.1,6.1,0,0,1,72,1a15.65,15.65,0,0,1,2.84,1.17,19,19,0,0,1,5.3,4.24,23.2,23.2,0,0,1,3.63,5.74,15.25,15.25,0,0,1,1.07,3.06A7,7,0,0,1,85,16.75a2.54,2.54,0,0,1-.14.8,1.16,1.16,0,0,1-.58.68,1.34,1.34,0,0,1-.9.05,3.39,3.39,0,0,1-.72-.31,7.55,7.55,0,0,1-1.11-.85,18.32,18.32,0,0,1-1.75-1.91c-1.07-1.31-2.06-2.63-3.09-4s-2.09-2.85-3.27-4.5c-.6-.82-1.23-1.67-1.91-2.55-.33-.45-.68-.89-1-1.38-.16-.25-.33-.49-.47-.76A1.78,1.78,0,0,1,69.79,1.22Z"/><path d="M64.47,14.91a2,2,0,0,0-.78.93,3.39,3.39,0,0,0-.27,1.05,8.61,8.61,0,0,0,.13,2,24.36,24.36,0,0,0,1.07,3.62c.42,1.18.86,2.35,1.21,3.54s.66,2.4,1,3.63.64,2.49.94,3.78.63,2.63,1,4.05a42.72,42.72,0,0,0,1.64,4.56,17.65,17.65,0,0,0,1.36,2.54,6.36,6.36,0,0,0,2.28,2.19,4,4,0,0,0,3,0,5.69,5.69,0,0,0,2.23-1.65,9.73,9.73,0,0,0,2-4.88c.53-3.61-.6-7.47-2-10.9a39.74,39.74,0,0,0-2.51-5,34,34,0,0,0-3.1-4.51,18.31,18.31,0,0,0-4-3.75,10.3,10.3,0,0,0-2.51-1.24,5.64,5.64,0,0,0-1.41-.25A2.73,2.73,0,0,0,64.47,14.91Zm-.13-.14a3,3,0,0,1,1.54-.36,6.47,6.47,0,0,1,1.52.2,14.43,14.43,0,0,1,2.82,1.09,25.28,25.28,0,0,1,5.12,3.45,22,22,0,0,1,2.23,2.2,23.39,23.39,0,0,1,1.91,2.45,22.32,22.32,0,0,1,2.65,5.45,22.66,22.66,0,0,1,.49,11.36,14.47,14.47,0,0,1-2,5.18,7.18,7.18,0,0,1-2.09,2.05,4.35,4.35,0,0,1-1.75.58A5.8,5.8,0,0,1,73.9,48a10.34,10.34,0,0,1-2.8-1.81,15.08,15.08,0,0,1-1.65-1.71,21.38,21.38,0,0,1-2-2.86A28.23,28.23,0,0,1,65.35,37a39.94,39.94,0,0,1-2-7.26,36.13,36.13,0,0,1-.53-6.91c0-1.22,0-2.49.08-3.83a14.22,14.22,0,0,1,.21-2.1,5,5,0,0,1,.34-1.11A2.43,2.43,0,0,1,64.34,14.77Z"/><path d="M70.67,28.21a4.32,4.32,0,0,0,2.1.85,2.29,2.29,0,0,0,1.79-1,4.14,4.14,0,0,0,.76-1.88A8.8,8.8,0,0,0,74.86,22a21,21,0,0,0-5.14-7.54,39.9,39.9,0,0,0-3.41-3.1,34.41,34.41,0,0,0-3.72-2.65,17.07,17.07,0,0,0-4.11-1.91,8.7,8.7,0,0,0-2.18-.35,3.39,3.39,0,0,0-1.06.14,1.45,1.45,0,0,0-.79.55,1.33,1.33,0,0,0-.13.9,3,3,0,0,0,.27.88,10.1,10.1,0,0,0,.88,1.46l.29.38c.58.75,1.22,1.44,1.84,2.12l.93,1c.41.45.82.9,1.21,1.37.69.81,1.34,1.64,2,2.47s1.31,1.69,2,2.56,1.49,2,2.32,3.09l1.11,1.36c.53.61,1.08,1.23,1.7,1.85.15.16.31.31.48.47A13.77,13.77,0,0,0,70.67,28.21Zm-1.46.66A16.09,16.09,0,0,1,67,27.38a24.36,24.36,0,0,1-2.94-2.82A46.9,46.9,0,0,1,60,19.34a54.65,54.65,0,0,1-3.26-5.48c-.52-1-1-2-1.6-3.09a16.49,16.49,0,0,1-.76-1.7,4.37,4.37,0,0,1-.25-1,1.55,1.55,0,0,1,.19-1,1.63,1.63,0,0,1,.89-.65,4.1,4.1,0,0,1,1.11-.19,10.79,10.79,0,0,1,2.32.16,21.83,21.83,0,0,1,4.7,1.38A22.81,22.81,0,0,1,65.6,8.9a20.83,20.83,0,0,1,2.13,1.37,21.16,21.16,0,0,1,3.67,3.39,22.23,22.23,0,0,1,4.33,8.28,13.11,13.11,0,0,1,.56,4.36,5.55,5.55,0,0,1-.55,2.12,2.84,2.84,0,0,1-.83,1,3.35,3.35,0,0,1-1.86.58,6.43,6.43,0,0,1-2.26-.39A10.84,10.84,0,0,1,69.21,28.87Z"/><path d="M62.6,14.58a2.47,2.47,0,0,0,1.55,0,1.41,1.41,0,0,0,.6-1.27,4.05,4.05,0,0,0-.37-1.6,9.61,9.61,0,0,0-2-2.91,21.44,21.44,0,0,0-6.43-4.12c-1.18-.52-2.37-1-3.58-1.38a31.74,31.74,0,0,0-3.68-1,15.73,15.73,0,0,0-3.71-.37,6.72,6.72,0,0,0-1.71.27,2.1,2.1,0,0,0-.68.36.74.74,0,0,0-.3.57,1.28,1.28,0,0,0,.35.67,4.28,4.28,0,0,0,.64.57,13.27,13.27,0,0,0,1.27.79l.36.19c.73.39,1.46.72,2.17,1l1.06.49c.47.21.94.43,1.39.66.8.4,1.58.82,2.35,1.23l2.28,1.3c1.05.63,2.09,1.28,3.16,1.92l1.4.81c.64.36,1.3.7,2,1l.52.24A11,11,0,0,0,62.6,14.58Zm-.54.92a10.35,10.35,0,0,1-1.9-.47,20.8,20.8,0,0,1-3-1.32c-1.82-.94-3.44-1.9-5-2.93s-3.2-2.09-4.91-3.33L44.54,5.57c-.46-.34-.94-.66-1.4-1.05a5.51,5.51,0,0,1-.66-.62,1.43,1.43,0,0,1-.38-.78.86.86,0,0,1,.32-.67,2.51,2.51,0,0,1,.7-.4,8.24,8.24,0,0,1,1.71-.45,18.7,18.7,0,0,1,3.85-.16,20.2,20.2,0,0,1,2,.24,17.64,17.64,0,0,1,2,.45,20.25,20.25,0,0,1,3.85,1.51A22.75,22.75,0,0,1,62.8,8.49a14.28,14.28,0,0,1,2.18,3,5.7,5.7,0,0,1,.58,1.7,2.44,2.44,0,0,1-.07,1,1.77,1.77,0,0,1-.8,1,3.08,3.08,0,0,1-1.44.4A5.64,5.64,0,0,1,62.06,15.5Z"/><path d="M28.73,3.66a2.94,2.94,0,0,0,1.47.49,15.93,15.93,0,0,0,1.63.15c1.06.06,2.05.07,3,.09,1.91,0,3.73.18,5.49.37s3.48.49,5.18.71c.86.11,1.71.2,2.56.24a8.7,8.7,0,0,0,1.26,0c.4-.06.79-.2.9-.43s-.05-.67-.33-1a5.06,5.06,0,0,0-1.07-1,11.34,11.34,0,0,0-2.79-1.38,20.85,20.85,0,0,0-6.37-1,33.77,33.77,0,0,0-6.43.45,14.68,14.68,0,0,0-3,.8A5,5,0,0,0,29,2.8C28.72,3.05,28.48,3.37,28.73,3.66Zm-.13,0a.43.43,0,0,1-.1-.5,1.34,1.34,0,0,1,.35-.46A5.67,5.67,0,0,1,30,2,15.51,15.51,0,0,1,32.79.79,19,19,0,0,1,39.53,0a23.56,23.56,0,0,1,6.63,1.49,16.07,16.07,0,0,1,2.92,1.41,7,7,0,0,1,1.24,1,2.4,2.4,0,0,1,.47.66,1.2,1.2,0,0,1,.08.9,1.43,1.43,0,0,1-.61.67,2.87,2.87,0,0,1-.73.28,6.73,6.73,0,0,1-1.38.19,18.38,18.38,0,0,1-2.59-.11c-1.68-.17-3.32-.4-5-.67S37,5.32,35,5c-1-.16-2.05-.31-3.15-.46-.55-.08-1.12-.15-1.69-.26a8.44,8.44,0,0,1-.87-.2A1.76,1.76,0,0,1,28.6,3.69Z"/><path d="M34.52,17.14a2,2,0,0,0,.1,1.21,3.57,3.57,0,0,0,.55.93,7.85,7.85,0,0,0,1.49,1.3A24.48,24.48,0,0,0,40,22.4c1.13.53,2.27,1,3.36,1.65s2.17,1.22,3.29,1.84,2.2,1.31,3.33,2,2.3,1.42,3.61,2.12A43.06,43.06,0,0,0,58,32.09a17.3,17.3,0,0,0,2.76.83,6.32,6.32,0,0,0,3.15-.06A3.94,3.94,0,0,0,66,30.69,5.74,5.74,0,0,0,66.4,28a9.78,9.78,0,0,0-2-4.89c-2.19-2.92-5.71-4.85-9.15-6.26A38.35,38.35,0,0,0,50,15.06a35.37,35.37,0,0,0-5.38-1,18.36,18.36,0,0,0-5.48.18,10.31,10.31,0,0,0-2.66.9,5.6,5.6,0,0,0-1.17.82A2.62,2.62,0,0,0,34.52,17.14Zm-.2,0a3,3,0,0,1,.83-1.35,6.52,6.52,0,0,1,1.23-.93,14.52,14.52,0,0,1,2.76-1.23,25.32,25.32,0,0,1,6.06-1.18,21.8,21.8,0,0,1,3.13,0,22.68,22.68,0,0,1,3.09.38,22.14,22.14,0,0,1,5.72,2,22.7,22.7,0,0,1,8.38,7.69,14.41,14.41,0,0,1,2.23,5.09,7.06,7.06,0,0,1,0,2.93,4.53,4.53,0,0,1-.82,1.65,5.9,5.9,0,0,1-2.36,1.68,10.63,10.63,0,0,1-3.26.71,16.35,16.35,0,0,1-2.38,0,22.54,22.54,0,0,1-3.42-.62,28.74,28.74,0,0,1-4.71-1.72,39.89,39.89,0,0,1-6.59-3.69A35.38,35.38,0,0,1,38.93,24c-.86-.86-1.74-1.79-2.66-2.77a15.91,15.91,0,0,1-1.33-1.63,4.36,4.36,0,0,1-.54-1A2.38,2.38,0,0,1,34.32,17.14Z"/><path d="M48.31,22.16a4.25,4.25,0,0,0,2.08-.89,2.31,2.31,0,0,0,.57-2,4.26,4.26,0,0,0-.79-1.87,8.94,8.94,0,0,0-3.27-2.62,21,21,0,0,0-9-1.69,41.61,41.61,0,0,0-4.61.22,34.07,34.07,0,0,0-4.5.75,17.61,17.61,0,0,0-4.25,1.56A9,9,0,0,0,22.77,17a3.72,3.72,0,0,0-.64.85,1.4,1.4,0,0,0-.17.95,1.32,1.32,0,0,0,.54.73,2.93,2.93,0,0,0,.82.43,8.85,8.85,0,0,0,1.65.41l.47.06c.95.12,1.88.16,2.8.21l1.38.06c.61,0,1.22.06,1.83.11,1.06.08,2.1.21,3.16.32s2.12.27,3.2.43c1.24.19,2.5.39,3.83.54q.86.11,1.74.18c.8.06,1.64.1,2.51.11h.67A13.78,13.78,0,0,0,48.31,22.16Zm-.57,1.49a15.76,15.76,0,0,1-2.59.5,25.94,25.94,0,0,1-4.08.08,46.89,46.89,0,0,1-6.6-.78,53.21,53.21,0,0,1-6.17-1.57c-1.07-.33-2.17-.69-3.32-1.06a16.36,16.36,0,0,1-1.75-.66,5,5,0,0,1-.85-.5,1.65,1.65,0,0,1-.59-.86A1.69,1.69,0,0,1,22,17.72a4.57,4.57,0,0,1,.65-.93,10.81,10.81,0,0,1,1.76-1.52,20.91,20.91,0,0,1,4.3-2.35,19.85,19.85,0,0,1,2.39-.83,21.53,21.53,0,0,1,2.48-.54,22,22,0,0,1,5-.2,22.25,22.25,0,0,1,8.92,2.8,13.23,13.23,0,0,1,3.48,2.69A5.54,5.54,0,0,1,52,18.72,2.79,2.79,0,0,1,52.13,20a3.33,3.33,0,0,1-.9,1.72,6.32,6.32,0,0,1-1.88,1.33A10.2,10.2,0,0,1,47.74,23.65Z"/><path d="M33,18.23a2.47,2.47,0,0,0,1.1-1.1,1.37,1.37,0,0,0-.48-1.31,4,4,0,0,0-1.39-.88,9.54,9.54,0,0,0-3.5-.61A21,21,0,0,0,21.23,16a36.72,36.72,0,0,0-3.51,1.56,32.41,32.41,0,0,0-3.3,1.89,15.62,15.62,0,0,0-2.89,2.37,6.61,6.61,0,0,0-1,1.4,2.06,2.06,0,0,0-.23.73.72.72,0,0,0,.19.62,1.31,1.31,0,0,0,.72.23,5,5,0,0,0,.86-.05,13.32,13.32,0,0,0,1.45-.34l.4-.12c.78-.25,1.53-.53,2.27-.8l1.1-.4c.48-.18,1-.36,1.45-.52.84-.28,1.69-.53,2.53-.78s1.68-.48,2.53-.7c1.19-.3,2.38-.57,3.59-.88l1.56-.41c.71-.21,1.42-.43,2.14-.69l.54-.2A10.25,10.25,0,0,0,33,18.23Zm.27,1a11.43,11.43,0,0,1-1.67,1,21.29,21.29,0,0,1-3.06,1.19c-1.95.62-3.77,1.08-5.63,1.49s-3.74.78-5.82,1.11c-1,.18-2.11.36-3.23.57-.57.09-1.14.2-1.74.25a5.39,5.39,0,0,1-.9,0,1.42,1.42,0,0,1-.82-.28.86.86,0,0,1-.25-.7,2.83,2.83,0,0,1,.21-.78,8,8,0,0,1,.9-1.52,17.68,17.68,0,0,1,2.61-2.84,18,18,0,0,1,1.59-1.26,19.71,19.71,0,0,1,1.74-1.11A20.9,20.9,0,0,1,21,14.76a22.77,22.77,0,0,1,7.85-1,14.29,14.29,0,0,1,3.67.59,5.77,5.77,0,0,1,1.61.8,2.15,2.15,0,0,1,.63.73,1.75,1.75,0,0,1,.14,1.26,3.16,3.16,0,0,1-.73,1.3A6.35,6.35,0,0,1,33.23,19.26Z"/><path d="M1.29,34.46a3.17,3.17,0,0,0,1.39-.69c.44-.35.87-.7,1.26-1.06.79-.7,1.49-1.4,2.19-2.06A52.12,52.12,0,0,1,10.28,27c1.38-1.11,2.8-2.12,4.16-3.17.68-.53,1.35-1.06,2-1.64a8.23,8.23,0,0,0,.86-.92,1.25,1.25,0,0,0,.34-.94c-.08-.25-.51-.44-1-.48a4.77,4.77,0,0,0-1.45.06,11.43,11.43,0,0,0-3,1,21.09,21.09,0,0,0-5.19,3.82,33.75,33.75,0,0,0-4.22,4.87,14.32,14.32,0,0,0-1.57,2.7,5.09,5.09,0,0,0-.39,1.31C.85,34,.91,34.43,1.29,34.46Zm-.07.11a.43.43,0,0,1-.43-.29,1.43,1.43,0,0,1-.08-.56A6,6,0,0,1,1,32.4a15.37,15.37,0,0,1,1.17-2.84,18.84,18.84,0,0,1,4.24-5.3,23.54,23.54,0,0,1,5.74-3.64,15.86,15.86,0,0,1,3.06-1.06,7,7,0,0,1,1.58-.18,2.53,2.53,0,0,1,.8.13,1.18,1.18,0,0,1,.68.59,1.34,1.34,0,0,1,.05.9,3.63,3.63,0,0,1-.31.72,7.55,7.55,0,0,1-.85,1.11,19.49,19.49,0,0,1-1.91,1.75c-1.31,1.07-2.63,2.06-4,3.09s-2.85,2.09-4.5,3.27c-.82.6-1.67,1.23-2.55,1.9-.45.33-.89.69-1.38,1-.25.16-.49.33-.76.47A1.63,1.63,0,0,1,1.22,34.57Z"/><path d="M14.91,39.9a2.08,2.08,0,0,0,.93.78,3.11,3.11,0,0,0,1.05.26,7.62,7.62,0,0,0,2-.13,24.33,24.33,0,0,0,3.62-1.06c1.18-.42,2.35-.87,3.54-1.21s2.4-.66,3.63-1,2.49-.63,3.78-.93,2.63-.63,4.05-1.06a42.53,42.53,0,0,0,4.56-1.63,19.88,19.88,0,0,0,2.54-1.36,6.36,6.36,0,0,0,2.19-2.28,4,4,0,0,0,0-3A5.73,5.73,0,0,0,45.1,25a9.74,9.74,0,0,0-4.88-2c-3.61-.52-7.47.6-10.9,2a41.09,41.09,0,0,0-5,2.5,36,36,0,0,0-4.51,3.1,18.54,18.54,0,0,0-3.75,4,10.55,10.55,0,0,0-1.24,2.52,5.56,5.56,0,0,0-.25,1.41A2.76,2.76,0,0,0,14.91,39.9Zm-.14.13a3,3,0,0,1-.36-1.54,6.4,6.4,0,0,1,.2-1.52,14.19,14.19,0,0,1,1.09-2.82A25,25,0,0,1,19.15,29a24,24,0,0,1,4.65-4.14,22.32,22.32,0,0,1,5.45-2.65,22.55,22.55,0,0,1,11.36-.49,14.47,14.47,0,0,1,5.18,2,7.18,7.18,0,0,1,2.05,2.09,4.35,4.35,0,0,1,.58,1.74A5.83,5.83,0,0,1,48,30.47a10.27,10.27,0,0,1-1.81,2.79,15.25,15.25,0,0,1-1.71,1.66,20.32,20.32,0,0,1-2.86,2A29.26,29.26,0,0,1,37,39a39.84,39.84,0,0,1-7.26,2,35.33,35.33,0,0,1-6.91.54c-1.22,0-2.49,0-3.83-.08a15.72,15.72,0,0,1-2.1-.21A4.58,4.58,0,0,1,15.81,41,2.4,2.4,0,0,1,14.77,40Z"/><path d="M28.21,33.69a4.24,4.24,0,0,0,.85-2.1,2.3,2.3,0,0,0-1-1.79A4.14,4.14,0,0,0,26.19,29a8.81,8.81,0,0,0-4.16.47,20.84,20.84,0,0,0-7.54,5.13,41.59,41.59,0,0,0-3.1,3.42,34.41,34.41,0,0,0-2.65,3.72,17.07,17.07,0,0,0-1.91,4.11,8.55,8.55,0,0,0-.35,2.18,3.33,3.33,0,0,0,.14,1,1.44,1.44,0,0,0,.55.8,1.33,1.33,0,0,0,.9.13A3.33,3.33,0,0,0,9,49.78a9.32,9.32,0,0,0,1.46-.89l.38-.28c.75-.59,1.44-1.22,2.12-1.84l1-.93c.45-.42.9-.82,1.37-1.21.81-.69,1.64-1.34,2.47-2s1.69-1.31,2.56-2,2-1.5,3.09-2.33c.45-.35.9-.72,1.36-1.11s1.23-1.07,1.85-1.69l.47-.48A12.83,12.83,0,0,0,28.21,33.69Zm.66,1.46a15.48,15.48,0,0,1-1.49,2.18,23.64,23.64,0,0,1-2.82,2.94,47.05,47.05,0,0,1-5.22,4.12,52.78,52.78,0,0,1-5.48,3.25c-1,.53-2,1-3.09,1.61a16.49,16.49,0,0,1-1.7.76,5,5,0,0,1-1,.25,1.69,1.69,0,0,1-1-.19,1.67,1.67,0,0,1-.65-.89,4.1,4.1,0,0,1-.19-1.11,10.75,10.75,0,0,1,.16-2.32,21.67,21.67,0,0,1,1.38-4.7A20.87,20.87,0,0,1,8.9,38.77a19.92,19.92,0,0,1,1.37-2.14A21.46,21.46,0,0,1,13.66,33a22.08,22.08,0,0,1,8.28-4.33,13.11,13.11,0,0,1,4.36-.56,5.73,5.73,0,0,1,2.12.54,3,3,0,0,1,1,.84A3.32,3.32,0,0,1,30,31.31a6.45,6.45,0,0,1-.39,2.27A11.18,11.18,0,0,1,28.87,35.15Z"/><path d="M14.58,41.77a2.5,2.5,0,0,0,0-1.56,1.42,1.42,0,0,0-1.27-.59,4.22,4.22,0,0,0-1.6.36A9.83,9.83,0,0,0,8.8,42a21.44,21.44,0,0,0-4.12,6.43c-.52,1.17-1,2.37-1.38,3.58a31.74,31.74,0,0,0-1,3.68,15.68,15.68,0,0,0-.37,3.71,6.57,6.57,0,0,0,.27,1.7,2.15,2.15,0,0,0,.36.69.74.74,0,0,0,.57.3,1.28,1.28,0,0,0,.67-.35,3.91,3.91,0,0,0,.57-.65,12,12,0,0,0,.79-1.26c.07-.12.13-.24.19-.36.39-.74.72-1.46,1-2.18l.49-1.06q.31-.7.66-1.38c.4-.8.82-1.58,1.23-2.35s.86-1.53,1.3-2.28c.63-1,1.28-2.09,1.92-3.17.27-.45.54-.92.81-1.39.36-.64.7-1.3,1-2l.24-.52A11,11,0,0,0,14.58,41.77Zm.92.54A10.23,10.23,0,0,1,15,44.2a20.94,20.94,0,0,1-1.32,3c-.94,1.82-1.9,3.43-2.93,5s-2.09,3.2-3.33,4.9L5.57,59.83c-.34.46-.66.94-1.05,1.4a5.51,5.51,0,0,1-.62.66,1.41,1.41,0,0,1-.78.37A.82.82,0,0,1,2.45,62a2.66,2.66,0,0,1-.4-.7,8.24,8.24,0,0,1-.45-1.71,18.74,18.74,0,0,1-.16-3.85,19.86,19.86,0,0,1,.24-2,17.17,17.17,0,0,1,.45-2,20,20,0,0,1,1.51-3.85,22.8,22.8,0,0,1,4.85-6.25,13.88,13.88,0,0,1,3-2.17,5.7,5.7,0,0,1,1.7-.58,2.12,2.12,0,0,1,1,.07,1.79,1.79,0,0,1,1,.79,3.11,3.11,0,0,1,.4,1.44A5.7,5.7,0,0,1,15.5,42.31Z"/><path d="M3.66,75.64a3,3,0,0,0,.49-1.47,15.86,15.86,0,0,0,.15-1.64c.06-1.06.07-2,.09-3,0-1.91.18-3.73.37-5.49s.49-3.48.71-5.19c.11-.85.2-1.7.24-2.56a8.8,8.8,0,0,0,0-1.26,1.26,1.26,0,0,0-.43-.9c-.24-.12-.67.05-1,.34a5.06,5.06,0,0,0-1,1.07,11.17,11.17,0,0,0-1.38,2.79,20.8,20.8,0,0,0-1,6.37,33.77,33.77,0,0,0,.45,6.43,14.68,14.68,0,0,0,.8,3,5,5,0,0,0,.65,1.2C3.05,75.65,3.37,75.89,3.66,75.64Zm0,.13a.43.43,0,0,1-.5.1,1.48,1.48,0,0,1-.46-.35A6.35,6.35,0,0,1,2,74.41,15.51,15.51,0,0,1,.79,71.58,19,19,0,0,1,0,64.84,23.71,23.71,0,0,1,1.53,58.2a16,16,0,0,1,1.41-2.91,7.46,7.46,0,0,1,1-1.25,2.63,2.63,0,0,1,.66-.47,1.25,1.25,0,0,1,.9-.07,1.38,1.38,0,0,1,.67.61,2.74,2.74,0,0,1,.28.73,6.73,6.73,0,0,1,.19,1.38,18.24,18.24,0,0,1-.11,2.58c-.17,1.69-.4,3.32-.67,5s-.53,3.5-.86,5.5c-.16,1-.31,2-.46,3.15-.08.55-.15,1.11-.26,1.69a8.44,8.44,0,0,1-.2.87A1.76,1.76,0,0,1,3.69,75.77Z"/><path d="M17.14,69.85a2,2,0,0,0,1.21-.1,3.57,3.57,0,0,0,.93-.55,7.61,7.61,0,0,0,1.3-1.5,24.38,24.38,0,0,0,1.82-3.31c.53-1.14,1-2.28,1.65-3.36s1.22-2.17,1.84-3.29,1.31-2.2,2-3.33S29.32,52.1,30,50.8a43.06,43.06,0,0,0,2.07-4.38,17.3,17.3,0,0,0,.83-2.76,6.32,6.32,0,0,0-.06-3.15,3.94,3.94,0,0,0-2.17-2.13A5.62,5.62,0,0,0,28,38a9.78,9.78,0,0,0-4.89,2c-2.92,2.18-4.85,5.71-6.26,9.15a37.48,37.48,0,0,0-1.74,5.28,35.48,35.48,0,0,0-1,5.37,18.42,18.42,0,0,0,.18,5.49,10.12,10.12,0,0,0,.9,2.65A5.94,5.94,0,0,0,16,69.1,2.71,2.71,0,0,0,17.14,69.85Zm0,.19a3,3,0,0,1-1.35-.83A6.45,6.45,0,0,1,14.86,68a14.52,14.52,0,0,1-1.23-2.76,25.42,25.42,0,0,1-1.18-6.06,21.81,21.81,0,0,1,0-3.13A22.68,22.68,0,0,1,12.81,53a22.34,22.34,0,0,1,2-5.73,22.67,22.67,0,0,1,7.69-8.37,14.41,14.41,0,0,1,5.09-2.23,7.06,7.06,0,0,1,2.93,0,4.53,4.53,0,0,1,1.65.82,5.82,5.82,0,0,1,1.68,2.36,10.63,10.63,0,0,1,.71,3.26,16.39,16.39,0,0,1,0,2.38,22.54,22.54,0,0,1-.62,3.42,28.74,28.74,0,0,1-1.72,4.71,39.89,39.89,0,0,1-3.69,6.59A35.38,35.38,0,0,1,24,65.44c-.86.86-1.79,1.74-2.77,2.66a15.91,15.91,0,0,1-1.63,1.33,4.76,4.76,0,0,1-1,.54A2.31,2.31,0,0,1,17.14,70Z"/><path d="M22.16,56.06A4.28,4.28,0,0,0,21.27,54a2.3,2.3,0,0,0-2-.56,4.15,4.15,0,0,0-1.87.79,8.94,8.94,0,0,0-2.62,3.27,21,21,0,0,0-1.69,9A41.5,41.5,0,0,0,13.35,71a34.22,34.22,0,0,0,.75,4.51,17.61,17.61,0,0,0,1.56,4.25A8.7,8.7,0,0,0,17,81.59a3.5,3.5,0,0,0,.85.65,1.4,1.4,0,0,0,.95.17,1.32,1.32,0,0,0,.73-.54,2.93,2.93,0,0,0,.43-.82,9,9,0,0,0,.41-1.65l.06-.48c.12-.94.16-1.87.21-2.79,0-.47,0-.92.06-1.38,0-.61.06-1.22.11-1.83.08-1.06.21-2.11.32-3.17s.27-2.12.43-3.19c.19-1.24.39-2.5.54-3.83.07-.57.13-1.15.18-1.75.06-.8.1-1.63.11-2.5,0-.22,0-.45,0-.67A13.61,13.61,0,0,0,22.16,56.06Zm1.49.57a15.37,15.37,0,0,1,.5,2.59,25.93,25.93,0,0,1,.08,4.08,46.89,46.89,0,0,1-.78,6.6,53.73,53.73,0,0,1-1.57,6.17c-.33,1.07-.69,2.17-1.06,3.32a16.21,16.21,0,0,1-.66,1.74,4.3,4.3,0,0,1-.5.85,1.55,1.55,0,0,1-.86.59,1.57,1.57,0,0,1-1.08-.17,4.16,4.16,0,0,1-.93-.64A11.25,11.25,0,0,1,15.27,80a21.18,21.18,0,0,1-2.35-4.3,20.48,20.48,0,0,1-.83-2.39,21.53,21.53,0,0,1-.54-2.48,21,21,0,0,1,2.6-13.91,13.23,13.23,0,0,1,2.69-3.48,5.54,5.54,0,0,1,1.88-1.11A2.79,2.79,0,0,1,20,52.24a3.38,3.38,0,0,1,1.72.89A6.59,6.59,0,0,1,23.05,55,10.66,10.66,0,0,1,23.65,56.63Z"/><path d="M18.23,71.41a2.47,2.47,0,0,0-1.1-1.1,1.37,1.37,0,0,0-1.31.48,4,4,0,0,0-.88,1.38,9.59,9.59,0,0,0-.61,3.51A21,21,0,0,0,16,83.14a36.72,36.72,0,0,0,1.56,3.51A34.73,34.73,0,0,0,19.41,90a15.89,15.89,0,0,0,2.37,2.88,6.33,6.33,0,0,0,1.4,1,2.06,2.06,0,0,0,.73.23.73.73,0,0,0,.62-.2,1.26,1.26,0,0,0,.23-.72,5,5,0,0,0-.05-.86,13.14,13.14,0,0,0-.34-1.44l-.12-.4c-.25-.79-.53-1.54-.8-2.28l-.4-1.09c-.18-.48-.36-1-.52-1.45-.28-.84-.53-1.69-.78-2.53s-.48-1.68-.7-2.53c-.3-1.19-.57-2.39-.88-3.6-.13-.51-.27-1-.41-1.55-.21-.71-.43-1.42-.69-2.15-.06-.18-.13-.35-.2-.53A10.25,10.25,0,0,0,18.23,71.41Zm1-.27a10.93,10.93,0,0,1,1,1.67,21.19,21.19,0,0,1,1.19,3c.62,2,1.08,3.78,1.49,5.64s.78,3.74,1.11,5.82c.18,1,.36,2.11.57,3.23.09.56.2,1.14.25,1.73a5.53,5.53,0,0,1,0,.91,1.36,1.36,0,0,1-.28.81.8.8,0,0,1-.7.25,2.49,2.49,0,0,1-.78-.2,8.54,8.54,0,0,1-1.52-.9,18.15,18.15,0,0,1-2.84-2.61A18,18,0,0,1,17.52,89a19.71,19.71,0,0,1-1.11-1.74,21.53,21.53,0,0,1-1.65-3.79,22.8,22.8,0,0,1-1-7.85,14.22,14.22,0,0,1,.59-3.67,5.83,5.83,0,0,1,.8-1.62,2.27,2.27,0,0,1,.73-.63,1.76,1.76,0,0,1,1.26-.13,3.16,3.16,0,0,1,1.3.73A6.35,6.35,0,0,1,19.26,71.14Z"/><path d="M34.46,103.08a3.12,3.12,0,0,0-.69-1.39c-.35-.44-.7-.87-1.06-1.26-.7-.79-1.4-1.49-2.06-2.19A52.12,52.12,0,0,1,27,94.09c-1.11-1.39-2.12-2.8-3.17-4.16-.53-.68-1.06-1.35-1.64-2a8.23,8.23,0,0,0-.92-.86,1.21,1.21,0,0,0-.94-.34c-.25.08-.44.51-.48,1a4.7,4.7,0,0,0,.06,1.44,11.37,11.37,0,0,0,1,3,21,21,0,0,0,3.82,5.18,33.82,33.82,0,0,0,4.87,4.23,14.32,14.32,0,0,0,2.7,1.57,5.09,5.09,0,0,0,1.31.39C34,103.52,34.43,103.46,34.46,103.08Zm.11.07a.43.43,0,0,1-.29.43,1.44,1.44,0,0,1-.56.07,6,6,0,0,1-1.32-.24,15.37,15.37,0,0,1-2.84-1.17A19,19,0,0,1,24.26,98a23.54,23.54,0,0,1-3.64-5.74,15.86,15.86,0,0,1-1.06-3.06,7,7,0,0,1-.18-1.58,2.44,2.44,0,0,1,.13-.8,1.18,1.18,0,0,1,.59-.68,1.34,1.34,0,0,1,.9,0,3.63,3.63,0,0,1,.72.31,6.92,6.92,0,0,1,1.11.85,18.41,18.41,0,0,1,1.75,1.91c1.07,1.3,2.06,2.63,3.09,4s2.09,2.86,3.27,4.51l1.9,2.55c.33.44.69.89,1,1.38a8.12,8.12,0,0,1,.47.76A1.63,1.63,0,0,1,34.57,103.15Z"/><path d="M39.9,89.45a2.06,2.06,0,0,0,.78-.92,3.11,3.11,0,0,0,.26-1,7.62,7.62,0,0,0-.13-2,24.11,24.11,0,0,0-1.06-3.63c-.42-1.17-.87-2.34-1.21-3.54s-.66-2.4-1-3.62-.63-2.49-.93-3.78-.63-2.64-1.06-4.06a42.42,42.42,0,0,0-1.63-4.55,19.23,19.23,0,0,0-1.36-2.54,6.28,6.28,0,0,0-2.28-2.19,4,4,0,0,0-3,0A5.63,5.63,0,0,0,25,59.27a9.67,9.67,0,0,0-2,4.88c-.52,3.61.6,7.47,2,10.89a40.5,40.5,0,0,0,2.5,5,35.19,35.19,0,0,0,3.1,4.5,18.06,18.06,0,0,0,4,3.75,10.19,10.19,0,0,0,2.52,1.24,4.8,4.8,0,0,0,1.41.25A2.56,2.56,0,0,0,39.9,89.45Zm.13.14a3,3,0,0,1-1.54.37,7,7,0,0,1-1.52-.2,14.82,14.82,0,0,1-2.82-1.09A25,25,0,0,1,29,85.22,23.16,23.16,0,0,1,26.8,83a21.34,21.34,0,0,1-1.91-2.46,22.08,22.08,0,0,1-2.65-5.44,22.55,22.55,0,0,1-.49-11.36,14.47,14.47,0,0,1,2-5.18,7.33,7.33,0,0,1,2.09-2.06,4.69,4.69,0,0,1,1.74-.58,5.85,5.85,0,0,1,2.87.48,10.5,10.5,0,0,1,2.79,1.8,16.16,16.16,0,0,1,1.66,1.72,20.32,20.32,0,0,1,2,2.86A29.63,29.63,0,0,1,39,67.34a40.15,40.15,0,0,1,2,7.27,35.29,35.29,0,0,1,.54,6.9c0,1.22,0,2.5-.08,3.84a15.41,15.41,0,0,1-.21,2.09A4.52,4.52,0,0,1,41,88.56,2.38,2.38,0,0,1,40,89.59Z"/><path d="M33.69,76.16a4.24,4.24,0,0,0-2.1-.85,2.32,2.32,0,0,0-1.79,1A4.23,4.23,0,0,0,29,78.17a8.87,8.87,0,0,0,.47,4.17,20.84,20.84,0,0,0,5.13,7.54A41.59,41.59,0,0,0,38.06,93a34.41,34.41,0,0,0,3.72,2.65,16.66,16.66,0,0,0,4.11,1.9,8.15,8.15,0,0,0,2.18.36,3.65,3.65,0,0,0,1-.14,1.44,1.44,0,0,0,.8-.55,1.35,1.35,0,0,0,.13-.9,3.22,3.22,0,0,0-.27-.88A9.32,9.32,0,0,0,48.89,94l-.28-.38c-.59-.75-1.22-1.44-1.84-2.13l-.93-1c-.42-.45-.82-.91-1.21-1.37-.69-.81-1.34-1.64-2-2.47s-1.31-1.69-2-2.56-1.5-2-2.33-3.09c-.35-.45-.72-.9-1.11-1.36-.52-.61-1.07-1.23-1.69-1.85l-.48-.47A12.83,12.83,0,0,0,33.69,76.16Zm1.46-.66A15.48,15.48,0,0,1,37.33,77a23.64,23.64,0,0,1,2.94,2.82A46.14,46.14,0,0,1,44.39,85a51.75,51.75,0,0,1,3.25,5.48c.53,1,1,2,1.61,3.09A16.49,16.49,0,0,1,50,95.3a4.91,4.91,0,0,1,.25,1,1.7,1.7,0,0,1-.19,1,1.6,1.6,0,0,1-.89.64,4.11,4.11,0,0,1-1.11.2A10.75,10.75,0,0,1,45.75,98a21.67,21.67,0,0,1-4.7-1.38,20.87,20.87,0,0,1-2.28-1.11A21.23,21.23,0,0,1,33,90.71a22,22,0,0,1-4.33-8.29,13,13,0,0,1-.56-4.35A5.73,5.73,0,0,1,28.62,76a2.89,2.89,0,0,1,.84-1,3.32,3.32,0,0,1,1.85-.58,6.23,6.23,0,0,1,2.27.39A11.18,11.18,0,0,1,35.15,75.5Z"/><path d="M41.77,89.79a2.5,2.5,0,0,0-1.56,0,1.42,1.42,0,0,0-.59,1.26,4.13,4.13,0,0,0,.36,1.6A10,10,0,0,0,42,95.57a21.22,21.22,0,0,0,6.43,4.11c1.17.52,2.37,1,3.58,1.39a31.74,31.74,0,0,0,3.68,1,15.68,15.68,0,0,0,3.71.37,6.57,6.57,0,0,0,1.7-.27,2.37,2.37,0,0,0,.69-.36.74.74,0,0,0,.3-.58,1.29,1.29,0,0,0-.35-.66,4.49,4.49,0,0,0-.65-.58,11.91,11.91,0,0,0-1.26-.78L59.5,99c-.74-.38-1.46-.71-2.18-1l-1.06-.49-1.38-.66c-.8-.4-1.58-.82-2.35-1.24s-1.53-.85-2.28-1.29c-1-.63-2.09-1.28-3.17-1.92-.45-.28-.92-.55-1.39-.81-.64-.36-1.3-.71-2-1l-.52-.24A11,11,0,0,0,41.77,89.79Zm.54-.93a10.21,10.21,0,0,1,1.89.48,21,21,0,0,1,3,1.31c1.82.94,3.43,1.91,5,2.93s3.2,2.1,4.9,3.33c.86.61,1.75,1.24,2.69,1.89.46.33.94.66,1.4,1a5.51,5.51,0,0,1,.66.62,1.38,1.38,0,0,1,.37.78.79.79,0,0,1-.31.66,2.43,2.43,0,0,1-.7.41,7.66,7.66,0,0,1-1.71.44,18,18,0,0,1-3.85.17,19.86,19.86,0,0,1-2-.24,17.17,17.17,0,0,1-2-.45,20,20,0,0,1-3.85-1.51,22.64,22.64,0,0,1-6.25-4.86,13.59,13.59,0,0,1-2.17-3,5.67,5.67,0,0,1-.58-1.71,2.08,2.08,0,0,1,.07-1,1.79,1.79,0,0,1,.79-1,3.25,3.25,0,0,1,1.44-.41A6.46,6.46,0,0,1,42.31,88.86Z"/><path d="M75.64,100.7a3.23,3.23,0,0,0-1.47-.49c-.56-.07-1.11-.12-1.64-.14-1.06-.06-2-.07-3-.09-1.91,0-3.73-.18-5.49-.37s-3.48-.49-5.19-.71c-.85-.11-1.7-.2-2.56-.24a8.8,8.8,0,0,0-1.26,0,1.26,1.26,0,0,0-.9.43c-.12.23.05.67.34,1a4.77,4.77,0,0,0,1.07,1,10.87,10.87,0,0,0,2.79,1.39,21.43,21.43,0,0,0,6.37,1,34.6,34.6,0,0,0,6.43-.45,14.68,14.68,0,0,0,3-.8,5.42,5.42,0,0,0,1.2-.65C75.65,101.32,75.89,101,75.64,100.7Zm.13,0a.44.44,0,0,1,.1.51,1.34,1.34,0,0,1-.35.45,5.87,5.87,0,0,1-1.11.77,15.51,15.51,0,0,1-2.83,1.18,19,19,0,0,1-6.74.75,23.71,23.71,0,0,1-6.64-1.49,16,16,0,0,1-2.91-1.41,7.46,7.46,0,0,1-1.25-1,2.63,2.63,0,0,1-.47-.66,1.25,1.25,0,0,1-.07-.9,1.38,1.38,0,0,1,.61-.67,3.17,3.17,0,0,1,.73-.29,6.7,6.7,0,0,1,1.38-.18,18.24,18.24,0,0,1,2.58.11c1.69.17,3.32.4,5,.66s3.5.54,5.5.87c1,.16,2,.31,3.15.46.55.08,1.11.15,1.69.26a6.45,6.45,0,0,1,.87.2A1.88,1.88,0,0,1,75.77,100.67Z"/></g></g></svg>