<svg xmlns="http://www.w3.org/2000/svg" viewBox="0 0 134.69 134.69"><title>Recurso 63MANDALA</title><g id="Capa_2" data-name="Capa 2"><g id="Capa_1-2" data-name="Capa 1"><path d="M23.61,14.83A52.36,52.36,0,0,1,60.12,46.07a47.48,47.48,0,0,1,2.1,35.57,55.25,55.25,0,0,0-.53-37A50.39,50.39,0,0,0,23.61,14.83Z"/><path d="M94.22,73c-14,4.65-25.15,1.71-31-6.49C58.54,60.94,57,52.32,59.62,41.72,56.88,52.73,58,61.81,62,68.17,67.92,76.18,79.67,78.62,94.22,73Z"/><path d="M3.21,43.73a52.35,52.35,0,0,1,47.24,8.81,47.45,47.45,0,0,1,19.6,29.74A55.31,55.31,0,0,0,51.11,50.53,50.4,50.4,0,0,0,3.21,43.73Z"/><path d="M93.42,58.77c-9.8,11-20.92,14.06-30.11,9.89C56.51,66.2,50.84,59.52,47.85,49,51,59.92,56.48,67.23,63.13,70.73,72.26,74.7,83.66,71,93.42,58.77Z"/><path d="M0,79A52.33,52.33,0,0,1,45.31,63a47.49,47.49,0,0,1,31.85,16,55.3,55.3,0,0,0-32.28-18A50.38,50.38,0,0,0,0,79Z"/><path d="M85.64,46.88c-3,14.46-11.09,22.64-21.13,23.62-7.12,1.27-15.37-1.68-23.21-9.28,8.15,7.88,16.58,11.45,24.09,11.17C75.28,71.26,83.27,62.31,85.64,46.88Z"/><path d="M14.83,111.08A52.34,52.34,0,0,1,46.07,74.57a47.48,47.48,0,0,1,35.57-2.1,55.25,55.25,0,0,0-37,.53A50.39,50.39,0,0,0,14.83,111.08Z"/><path d="M73,40.47c4.65,14,1.71,25.15-6.49,31-5.53,4.65-14.15,6.22-24.75,3.56,11,2.75,20.09,1.63,26.45-2.37C76.18,66.76,78.62,55,73,40.47Z"/><path d="M43.73,131.47a52.34,52.34,0,0,1,8.81-47.23,47.41,47.41,0,0,1,29.74-19.6A55.26,55.26,0,0,0,50.53,83.58,50.39,50.39,0,0,0,43.73,131.47Z"/><path d="M58.77,41.27c11,9.8,14.06,20.92,9.89,30.11C66.2,78.17,59.52,83.85,49,86.84c10.9-3.12,18.21-8.64,21.71-15.28C74.7,62.43,71,51,58.77,41.27Z"/><path d="M79,134.69A52.34,52.34,0,0,1,63,89.38a47.47,47.47,0,0,1,16-31.85,55.27,55.27,0,0,0-18,32.28A50.4,50.4,0,0,0,79,134.69Z"/><path d="M46.88,49.05C61.34,52,69.52,60.14,70.5,70.18c1.27,7.12-1.68,15.37-9.28,23.21C69.1,85.24,72.67,76.81,72.39,69.3,71.26,59.41,62.31,51.42,46.88,49.05Z"/><path d="M111.08,119.86A52.33,52.33,0,0,1,74.57,88.61a47.45,47.45,0,0,1-2.1-35.56A55.25,55.25,0,0,0,73,90,50.39,50.39,0,0,0,111.08,119.86Z"/><path d="M40.47,61.73c14-4.65,25.15-1.71,31,6.49,4.65,5.53,6.22,14.15,3.56,24.74,2.75-11,1.63-20.08-2.37-26.44C66.76,58.51,55,56.07,40.47,61.73Z"/><path d="M131.47,91a52.34,52.34,0,0,1-47.23-8.81A47.4,47.4,0,0,1,64.64,52.4,55.25,55.25,0,0,0,83.58,84.16,50.39,50.39,0,0,0,131.47,91Z"/><path d="M41.27,75.92c9.8-11,20.92-14.06,30.11-9.89,6.79,2.46,12.47,9.14,15.46,19.64C83.72,74.77,78.2,67.46,71.56,64,62.43,60,51,63.74,41.27,75.92Z"/><path d="M134.69,55.73a52.34,52.34,0,0,1-45.31,16,47.47,47.47,0,0,1-31.85-16,55.27,55.27,0,0,0,32.28,18A50.43,50.43,0,0,0,134.69,55.73Z"/><path d="M49.05,87.81c3-14.46,11.09-22.64,21.13-23.63,7.12-1.26,15.37,1.69,23.21,9.29C85.24,65.59,76.81,62,69.3,62.3,59.41,63.43,51.42,72.38,49.05,87.81Z"/><path d="M119.86,23.61A52.35,52.35,0,0,1,88.61,60.12a47.45,47.45,0,0,1-35.56,2.1,55.25,55.25,0,0,0,37-.53A50.39,50.39,0,0,0,119.86,23.61Z"/><path d="M61.73,94.22c-4.65-14-1.71-25.15,6.49-31C73.75,58.54,82.37,57,93,59.62,82,56.88,72.88,58,66.52,62,58.51,67.92,56.07,79.67,61.73,94.22Z"/><path d="M91,3.21a52.35,52.35,0,0,1-8.81,47.24A47.44,47.44,0,0,1,52.4,70.05,55.31,55.31,0,0,0,84.16,51.11,50.4,50.4,0,0,0,91,3.21Z"/><path d="M75.92,93.42c-11-9.8-14.06-20.92-9.89-30.11,2.46-6.8,9.14-12.47,19.64-15.46C74.77,51,67.46,56.48,64,63.13,60,72.26,63.74,83.66,75.92,93.42Z"/><path d="M55.73,0a52.33,52.33,0,0,1,16,45.31,47.49,47.49,0,0,1-16,31.85,55.3,55.3,0,0,0,18-32.28A50.41,50.41,0,0,0,55.73,0Z"/><path d="M87.81,85.64c-14.46-3-22.64-11.09-23.63-21.13-1.26-7.12,1.69-15.37,9.29-23.21C65.59,49.45,62,57.88,62.3,65.39,63.43,75.28,72.38,83.27,87.81,85.64Z"/></g></g></svg>