<svg xmlns="http://www.w3.org/2000/svg" viewBox="0 0 131.3 127.95"><title>Recurso 50ART</title><g id="Capa_2" data-name="Capa 2"><g id="Capa_1-2" data-name="Capa 1"><path d="M27,80.8V70.72H43.62c.32-.58.08-1.15.16-1.68s-.14-1.11.13-1.69H57.08a82.9,82.9,0,0,0,0-10.1h-3c-.11-.13-.19-.17-.2-.23a3,3,0,0,1,0-.42V50.51h3.18c.36-.49.14-1.06.18-1.59s0-1.1,0-1.58c.14-.11.19-.19.24-.19h9.68c.34.52.13,1.09.17,1.62s0,1.1,0,1.71h3.18c.35.59.11,1.15.18,1.69s-.13,1.1.13,1.7h3c.11.13.19.17.2.23a3,3,0,0,1,0,.42v9.27c.5.35,1.07.14,1.6.18s1.1,0,1.73,0c.08-1.11,0-2.15.06-3.18a1,1,0,0,1,.15-.14.45.45,0,0,1,.2,0h6.1s.11-.07.23-.16v-3c.59-.33,1.16-.09,1.69-.17s1.11.14,1.7-.13V54a4.35,4.35,0,0,1,1.7-.13c.49,0,1,0,1.49,0,.34-.51.13-1.08.17-1.62s0-1.09,0-1.63a5.19,5.19,0,0,1,1.73-.11c.49,0,1,0,1.45,0a33.47,33.47,0,0,0,.06-6.73H91.05c-.31-.58-.1-1.14-.14-1.68s0-1,0-1.47c.26-.35.63-.2,1-.21.76,0,1.52,0,2.27,0a4.61,4.61,0,0,0,.13-1.71c0-.48,0-1,0-1.48.52-.34,1.09-.1,1.63-.17a6.76,6.76,0,0,0,1.71-.11V30.5c.58-.35,1.15-.13,1.69-.17s1.09,0,1.7,0V27.16c.12-.11.17-.2.23-.2a2.77,2.77,0,0,1,.41,0h5.91c.35.5.14,1.07.18,1.6s0,1.1,0,1.64a4.89,4.89,0,0,0,1.72.12c.49,0,1,0,1.48,0,.33.53.11,1.09.15,1.63s0,1.1,0,1.68h3.21a36.18,36.18,0,0,0,0-6.68h-3c-.12-.13-.2-.18-.2-.23,0-2.1,0-4.2,0-6.32.51-.35,1.08-.13,1.61-.17s1.1,0,1.69,0c.17,1.12,0,2.16.11,3.22.5.32,1.07.07,1.6.14a6,6,0,0,1,1.71.13v3.08c.59.32,1.15.11,1.69.15s1,0,1.48,0c.34.26.2.63.21,1,0,1.88,0,3.76,0,5.64a4.4,4.4,0,0,0,1.71.12c.49,0,1,0,1.45,0a.81.81,0,0,1,.16.17.45.45,0,0,1,0,.19V46.87c0,.06.07.11.1.17s.11.1.17.1h2.88a.84.84,0,0,1,.19.19.58.58,0,0,1,0,.19c0,3.16,0,6.31,0,9.47,0,0,.08.1.18.23h3c.12.12.19.17.21.23a.44.44,0,0,1,0,.2V70.49c-.26.35-.63.2-1,.21-.76,0-1.52,0-2.21,0-.11.13-.19.18-.19.24q0,6.51,0,13c.52.34,1.09.13,1.62.17s1.1,0,1.58,0c.1.16.16.21.16.27q0,4.83,0,9.66c-.55.34-1.12.09-1.65.17a5.61,5.61,0,0,0-1.71.12v6.38c-.12.13-.16.21-.22.22a3,3,0,0,1-.42,0H118c-.35.26-.21.63-.21,1,0,2.66,0,5.33,0,8v1a4.86,4.86,0,0,1-1.72.12c-.48,0-1,0-1.44,0a1.35,1.35,0,0,0-.17.17.38.38,0,0,0,0,.19v6.1s-.07.11-.15.24h-3c-.36.58-.11,1.15-.18,1.68a6,6,0,0,1-.13,1.71H91a3.78,3.78,0,0,0-.13,1.69c0,.56,0,1.12,0,1.68H87.75c-.35-.26-.2-.63-.21-1,0-.76,0-1.52,0-2.21-.13-.11-.18-.18-.24-.19a2.77,2.77,0,0,0-.41,0H81c-.34-.5-.13-1.07-.17-1.61s0-1.09,0-1.69c-1.12-.15-2.16,0-3.19-.09a1,1,0,0,1-.14-.15.44.44,0,0,1,0-.2c0-2,0-4.06,0-6.09,0-.06-.07-.11-.16-.24H70.88c-.35-.58-.1-1.14-.17-1.68a5.9,5.9,0,0,0-.13-1.7H64.19c-.12-.12-.19-.16-.21-.22a.49.49,0,0,1,0-.21v-6.09c-.25-.36-.63-.21-.95-.21-.76,0-1.52,0-2.28,0a4.35,4.35,0,0,0-.13,1.7c0,.49,0,1,0,1.48-.51.35-1.08.14-1.62.18s-1.09,0-1.7,0c-.13,1.11,0,2.15-.08,3.18a1.06,1.06,0,0,1-.15.15.44.44,0,0,1-.2,0H44.26a2.35,2.35,0,0,1-.45-.12v-3a2.11,2.11,0,0,0-.22-.22.46.46,0,0,0-.2,0q-6.42,0-12.82,0c-.05,0-.11.07-.23.16v3a36,36,0,0,1-6.75,0v-3.08a4,4,0,0,0-1.7-.14c-.48,0-1,0-1.48,0-.36-.5-.15-1.07-.19-1.6s0-1.1,0-1.58A1.31,1.31,0,0,0,20,101a.74.74,0,0,0-.21,0H13.69c-.06-.07-.12-.11-.16-.17a.38.38,0,0,1,0-.19q0-3,0-6.09c0-.06-.06-.11-.11-.2a5.47,5.47,0,0,0-1.62-.08c-.48,0-1,0-1.47,0-.34-.54-.09-1.11-.16-1.64A6,6,0,0,0,10,90.92H6.92c-.33-.58-.12-1.15-.16-1.69s0-1.12,0-1.68,0-1.12,0-1.68a4.34,4.34,0,0,0-.12-1.7h-3c-.12-.12-.2-.16-.21-.22a2.94,2.94,0,0,1,0-.42V77.44h9.87c.05,0,.1.09.23.2v3c.12.11.17.2.22.2H27c0,.56,0,1.13,0,1.68a3.84,3.84,0,0,0,.13,1.7h6.46a5.19,5.19,0,0,1,.13,1.69c.07.54-.17,1.11.17,1.69h6.56c0,.61,0,1.16,0,1.7s-.18,1.11.15,1.64h3s.11-.07.26-.18c0-.48,0-1,0-1.57S43.61,88,44,87.54c1,0,2,0,2.95,0,.05,0,.1.08.23.2,0,.69,0,1.45,0,2.21,0,.32-.14.7.21,1h9.46a.67.67,0,0,0,.2,0c.06,0,.1-.1.23-.23v-3a82.78,82.78,0,0,1,10.11,0v3.08a34.4,34.4,0,0,0,6.68,0c.11-1-.07-2.07.08-3.06.12-.07.17-.13.23-.13h6.09a.38.38,0,0,0,.19,0c.06,0,.1-.1.17-.16V84.41s-.08-.11-.19-.24c-.49,0-1,0-1.58,0s-1.11.18-1.59-.18c0-.51,0-1,0-1.49a4.13,4.13,0,0,0-.11-1.64H74.18c-.24.56,0,1.12-.11,1.66s.17,1.11-.13,1.61H70.85c-.07-.11-.14-.16-.14-.22q0-3,0-6.09a.38.38,0,0,0,0-.19.69.69,0,0,0-.17-.18h-2.9s-.11.08-.25.18c0,.48,0,1,0,1.58s.17,1.1-.18,1.6c-.5,0-1,0-1.48,0a4.35,4.35,0,0,0-1.7.13v3c-.12.11-.17.19-.23.19q-13.23,0-26.47,0c-.05,0-.1-.08-.22-.19V81c-.13-.11-.18-.2-.23-.2Zm77.41,23.57h3.12s.11-.08.25-.18c0-.48,0-1,0-1.56s.17-1.09-.13-1.58h-3.07c-.08.1-.15.15-.15.21,0,1,0,2.08,0,3.12-.56,0-1.12,0-1.67,0a4.29,4.29,0,0,0-1.69.13c0,.76,0,1.52,0,2.28,0,.33-.14.7.22,1h3.14c0,.56,0,1.12,0,1.68a3.79,3.79,0,0,1-.13,1.69h-3.09a36.94,36.94,0,0,0,0,6.68h6.46a6,6,0,0,0,.11-1.67c.07-.54-.18-1.11.16-1.65.5,0,1,0,1.47,0a5.21,5.21,0,0,0,1.73-.12c0-.53,0-1.08,0-1.63s.18-1.1-.17-1.61c-.5,0-1,0-1.47,0a4.39,4.39,0,0,1-1.71-.13c0-.75,0-1.51,0-2.27,0-.33.14-.7-.21-1h-3.15ZM16.85,90.9c0-1,0-2.08,0-3.12,0,0-.07-.1-.18-.24-.47,0-1,0-1.56,0s-1.09-.18-1.57.12v3.08c.1.07.15.15.2.15h3.12c0,1,0,2.09,0,3.14,0,0,.08.1.19.23.48,0,1,0,1.58,0s1.09-.18,1.59.18c0,.5,0,1,0,1.48a4.29,4.29,0,0,0,.13,1.69h6.24a.41.41,0,0,0,.19,0,.66.66,0,0,0,.12-.12V91c-.11-.07-.17-.13-.22-.13Zm80.78-3.36c2.15,0,4.31,0,6.46,0,.06,0,.11.07.17.1s.1.11.1.17v6.46h-3.12s-.1.08-.24.19c0,.47,0,1,0,1.55s-.18,1.09.12,1.58h3.08c.07-.1.15-.15.15-.21V94.27c.56,0,1.13,0,1.68,0a4,4,0,0,0,1.7-.14V91a5.57,5.57,0,0,1,1.7-.13c.54-.07,1.11.18,1.65-.17,0-.49,0-1,0-1.46a5,5,0,0,1,.12-1.73c.53,0,1.08,0,1.62,0s1.11.17,1.62-.17v-5.9a3,3,0,0,1,0-.42c0-.06.08-.11.19-.24.69,0,1.45,0,2.21,0,.33,0,.7.14,1-.22,0-.49,0-1,0-1.47s-.17-1.1.16-1.69h3.2c0-.62,0-1.17,0-1.71s.18-1.1-.13-1.6c-1.07-.09-2.11,0-3.22-.08,0-.62,0-1.17,0-1.72s.17-1.1-.18-1.6h-5.9a2.94,2.94,0,0,0-.42,0c-.06,0-.11.09-.23.21v3.15c-.61,0-1.16,0-1.7,0s-1.11-.18-1.69.17V80.8c-.61,0-1.17,0-1.71,0s-1.1-.17-1.63.17c0,.5,0,1,0,1.47a4.65,4.65,0,0,1-.13,1.72c-1.87,0-3.76,0-5.64,0-.32,0-.7-.14-1,.2v3.16c-1,0-2.08,0-3.12,0-.05,0-.1.08-.25.18,0,.48,0,1,0,1.56s-.17,1.09.13,1.58h3.08c.07-.1.14-.15.15-.21ZM101,43.77c0,.71,0,1.2,0,1.69a4.17,4.17,0,0,0,.14,1.7h6.46a5.57,5.57,0,0,1,.13,1.7c.07.53-.17,1.1.18,1.68h9.81a7.26,7.26,0,0,1,.11,1.71c.07.54-.17,1.11.17,1.63h3s.11-.08.16-.12a57.81,57.81,0,0,0-.13-10h-5.89a2.77,2.77,0,0,1-.41,0c-.06,0-.1-.09-.23-.23V37.05c-.61,0-1.16,0-1.7,0s-1.1-.18-1.69.17v3.18c-.61,0-1.16,0-1.71,0s-1.1-.17-1.62.17c0,.5,0,1,0,1.48a4.53,4.53,0,0,1-.12,1.7ZM74,67.48a37.82,37.82,0,0,0-6.65,0v3.08a38.81,38.81,0,0,0,6.65,0Zm16.87,47c0,.67,0,1.16,0,1.65a3.9,3.9,0,0,0,.13,1.68h5.64c.32,0,.7.14.95-.21,0-.49,0-1,0-1.46a4.21,4.21,0,0,0-.11-1.65Z"/><path d="M3.39,77.44H.18A2.07,2.07,0,0,1,0,76.9Q0,69,0,61.14a2.66,2.66,0,0,1,.07-.39c.05,0,.1-.13.15-.14h3c.35.5.14,1.07.18,1.6s0,1.1,0,1.58a1.11,1.11,0,0,0,.25.18.74.74,0,0,0,.21,0H10c.33.53.12,1.1.16,1.64s0,1.09,0,1.7H6.93c-.35.59-.1,1.15-.18,1.69a5.27,5.27,0,0,1-.13,1.7h-3c-.12.12-.2.17-.21.22a2.94,2.94,0,0,0,0,.42Z"/><path d="M97.63,10.09H91C90.75,9.54,91,9,90.91,8.45s0-1.09,0-1.69H87.67a4.11,4.11,0,0,1-.13-1.69c0-.48,0-1,0-1.46.26-.35.63-.21,1-.22,1.87,0,3.75,0,5.63,0a3.85,3.85,0,0,1,.14,1.67c0,.54,0,1.09,0,1.69h3.23a4.11,4.11,0,0,1,.13,1.69C97.66,8.92,97.63,9.41,97.63,10.09Z"/><path d="M53.87,50.51H50.55V43.92c.49-.31,1.05-.09,1.59-.13s1.08,0,1.56,0c.1.15.17.21.17.26Z"/><path d="M84.2,43.78V37.17c.55-.27,1.11-.07,1.65-.11s1,0,1.46,0c.36.25.21.63.22,1,0,1.88,0,3.76,0,5.64a4,4,0,0,1-1.68.13C85.37,43.81,84.87,43.78,84.2,43.78Z"/><path d="M47.11,0V3.27a4.21,4.21,0,0,1-1.65.11c-.54,0-1.08,0-1.65,0V.14A4.17,4.17,0,0,1,45.45,0C46,0,46.54,0,47.11,0Z"/><path d="M77.44,3.35H74.19a4.21,4.21,0,0,1-.11-1.65c0-.48,0-1,0-1.48.48-.37,1.05-.15,1.58-.19s1.1,0,1.65,0a4.29,4.29,0,0,1,.13,1.69C77.46,2.2,77.44,2.69,77.44,3.35Z"/><path d="M6.75,27c0-1,0-2.08,0-3.12,0,0,.07-.1.15-.2H10c.3.48.09,1.05.13,1.58s0,1.08,0,1.55c-.15.11-.2.18-.25.18Z"/><path d="M6.75,27v3.12c0,.05-.08.1-.15.2H3.52c-.3-.48-.08-1.05-.12-1.58s0-1.08,0-1.55c.14-.11.19-.18.24-.18Z"/><path d="M3.35,53.88v3.24a4.21,4.21,0,0,1-1.65.12c-.48,0-1,0-1.48,0-.37-.48-.15-1.05-.19-1.58S0,54.56,0,54a4.25,4.25,0,0,1,1.68-.13C2.19,53.85,2.68,53.88,3.35,53.88Z"/><path d="M117.94,117.86h3.13a12.43,12.43,0,0,1,0,3.3H118a3.41,3.41,0,0,1-.11-1.64A3.76,3.76,0,0,1,117.94,117.86Z"/><path d="M90.9,124.56H94s.1.07.2.14v3.08c-.48.3-1,.09-1.58.13s-1.08,0-1.55,0c-.11-.15-.19-.2-.19-.25Z"/></g></g></svg>