<svg xmlns="http://www.w3.org/2000/svg" viewBox="0 0 138.13 138.13"><title>Recurso 98MANDALA</title><g id="Capa_2" data-name="Capa 2"><g id="Capa_1-2" data-name="Capa 1"><path d="M124.26,26.63a6.37,6.37,0,0,0-4.46-2,4,4,0,0,0-2.67.74,24.3,24.3,0,0,1-8.52,3.86q-2.27.61-4.47,1.41a29.89,29.89,0,0,1-9.92,1.92h-.06a5.46,5.46,0,0,0-.57,0l-.22,0a3.39,3.39,0,0,0-.43.11l-.24.08-.17.05-.18.1-.37.19-.34.22-.17.11-.13.12-.2.17-.3.31-.15.18a4.73,4.73,0,0,0-.32.46l0,.06a29.64,29.64,0,0,1-6.62,7.62c-1.19,1-2.34,2.07-3.46,3.17A24.13,24.13,0,0,1,72.66,51a4,4,0,0,0-2,1.94,6.37,6.37,0,0,0-.48,4.88c.85,2.21,2.85,2,4.29-.07a6.65,6.65,0,0,0,.93-2,21.71,21.71,0,0,1,5.26-9.52q1.68-1.65,3.45-3.16a16.56,16.56,0,0,1,9.16-3.75l.18,0,.16,0,.28-.06.17-.05.26-.08.2-.08.23-.09.35-.18.07,0h0l.08,0,.32-.21.2-.16.17-.13.2-.19.12-.12a1.9,1.9,0,0,0,.19-.21l.1-.12a1.49,1.49,0,0,0,.12-.14,16.49,16.49,0,0,1,7.82-6.06c1.47-.53,3-1,4.47-1.41a21.7,21.7,0,0,1,10.87.2,6.46,6.46,0,0,0,2.19.18C124.56,30.09,125.74,28.47,124.26,26.63Z"/><path d="M95.64,4.72a6.29,6.29,0,0,0-4.87.47,4,4,0,0,0-1.94,2,24.52,24.52,0,0,1-5.45,7.6q-1.65,1.67-3.17,3.45a29.68,29.68,0,0,1-7.63,6.62l0,0a3.55,3.55,0,0,0-.47.32l-.17.14c-.11.1-.22.2-.32.31l-.17.19a.69.69,0,0,0-.11.13c-.05.06-.08.12-.12.17l-.22.35c-.07.12-.13.24-.19.36l-.09.19-.06.16c0,.08,0,.17-.08.25s-.07.28-.1.42a1.85,1.85,0,0,0,0,.23,5.29,5.29,0,0,0,0,.56s0,0,0,.06a29.4,29.4,0,0,1-1.92,9.92q-.78,2.2-1.41,4.47a24,24,0,0,1-3.86,8.52,4.09,4.09,0,0,0-.74,2.67,6.33,6.33,0,0,0,2,4.46c1.84,1.49,3.47.3,3.68-2.2a7,7,0,0,0-.18-2.19,21.7,21.7,0,0,1-.21-10.87c.42-1.51.89-3,1.41-4.46a16.52,16.52,0,0,1,6.06-7.83l.14-.11.13-.1.21-.19.12-.13.19-.2.13-.17.15-.2a2.2,2.2,0,0,0,.21-.32l0-.07h0l0-.08a2.31,2.31,0,0,0,.18-.35,1.6,1.6,0,0,0,.1-.23c0-.06.05-.13.07-.2l.09-.26c0-.06,0-.11,0-.17a1.31,1.31,0,0,0,.06-.27l0-.16,0-.18a16.48,16.48,0,0,1,3.74-9.16q1.52-1.78,3.17-3.45a21.68,21.68,0,0,1,9.51-5.26,6.73,6.73,0,0,0,2-.94C97.64,7.57,97.85,5.57,95.64,4.72Z"/><path d="M59.91.05a6.37,6.37,0,0,0-4,2.84,4.09,4.09,0,0,0-.69,2.69,24.11,24.11,0,0,1-.92,9.3c-.39,1.52-.73,3-1,4.58A29.81,29.81,0,0,1,50,29l0,.06a4.59,4.59,0,0,0-.24.5,2,2,0,0,0-.08.22,2.9,2.9,0,0,0-.12.42,2.21,2.21,0,0,0-.05.25c0,.06,0,.11,0,.17s0,.14,0,.21,0,.27,0,.41,0,.27,0,.41,0,.14,0,.21,0,.11,0,.17a2.21,2.21,0,0,0,.05.25,3.31,3.31,0,0,0,.12.42,1.8,1.8,0,0,0,.08.21,4,4,0,0,0,.24.51l0,.06A29.64,29.64,0,0,1,53.3,43c.28,1.53.62,3.06,1,4.58a24.11,24.11,0,0,1,.92,9.3,4.05,4.05,0,0,0,.69,2.68,6.35,6.35,0,0,0,4,2.85c2.33.37,3.15-1.47,2.08-3.74a6.65,6.65,0,0,0-1.25-1.81,21.74,21.74,0,0,1-5.61-9.31c-.39-1.51-.73-3-1-4.57a16.51,16.51,0,0,1,1.33-9.8,1.34,1.34,0,0,0,.07-.18s0-.09.06-.15a2,2,0,0,0,.08-.26c0-.06,0-.12.05-.17l.06-.27,0-.21,0-.25c0-.13,0-.26,0-.39s0-.05,0-.08h0s0,0,0-.08,0-.26,0-.39l0-.25,0-.21L55.71,30l-.05-.17a2.76,2.76,0,0,0-.08-.27c0-.05,0-.09-.06-.15s0-.11-.07-.17a16.51,16.51,0,0,1-1.33-9.8c.28-1.54.62-3.06,1-4.57A21.68,21.68,0,0,1,60.74,5.6,6.81,6.81,0,0,0,62,3.79C63.06,1.52,62.24-.32,59.91.05Z"/><path d="M26.63,13.87a6.35,6.35,0,0,0-2,4.46A4,4,0,0,0,25.34,21a24.3,24.3,0,0,1,3.86,8.52q.61,2.27,1.41,4.47a29.89,29.89,0,0,1,1.92,9.92V44a5.09,5.09,0,0,0,0,.56c0,.08,0,.15,0,.23a3.25,3.25,0,0,0,.11.42,1.83,1.83,0,0,0,.08.25s0,.11.05.16.07.12.1.19.12.24.19.36.14.24.22.35.07.11.11.17l.12.13a1.54,1.54,0,0,0,.17.19c.1.11.2.21.31.31l.18.15a4.63,4.63,0,0,0,.46.31l.06,0a29.64,29.64,0,0,1,7.62,6.62c1,1.19,2.07,2.34,3.17,3.45A24.35,24.35,0,0,1,51,65.46a4.08,4.08,0,0,0,1.94,2,6.32,6.32,0,0,0,4.88.47c2.21-.85,2-2.85-.07-4.28a6.93,6.93,0,0,0-2-.94,21.71,21.71,0,0,1-9.52-5.26Q44.61,55.77,43.1,54a16.56,16.56,0,0,1-3.75-9.16,1.13,1.13,0,0,0,0-.18,1,1,0,0,0,0-.16l-.06-.27a1.09,1.09,0,0,0-.05-.17,2.58,2.58,0,0,0-.08-.26,1.19,1.19,0,0,0-.08-.2l-.09-.23L38.76,43a.25.25,0,0,0,0-.07h0a.43.43,0,0,1,0-.07l-.21-.32a1.56,1.56,0,0,0-.16-.2,1.09,1.09,0,0,0-.13-.17A1.8,1.8,0,0,0,38,42l-.12-.13c-.07-.06-.13-.13-.21-.19l-.12-.1-.14-.11a16.52,16.52,0,0,1-6.06-7.83c-.53-1.46-1-3-1.41-4.46a21.7,21.7,0,0,1,.2-10.87,6.46,6.46,0,0,0,.18-2.19C30.09,13.57,28.47,12.38,26.63,13.87Z"/><path d="M4.72,42.48a6.32,6.32,0,0,0,.47,4.88,4,4,0,0,0,2,1.94,24.35,24.35,0,0,1,7.6,5.45c1.11,1.1,2.26,2.15,3.45,3.17a29.68,29.68,0,0,1,6.62,7.63l0,0a3.55,3.55,0,0,0,.32.47,2.09,2.09,0,0,0,.14.17c.1.11.2.22.31.32l.19.17a1.5,1.5,0,0,0,.13.11l.17.11.35.23a3,3,0,0,0,.36.18l.19.1.16.05.25.09.42.1.23,0a3.52,3.52,0,0,0,.56,0h.06a29.4,29.4,0,0,1,9.92,1.92c1.47.52,3,1,4.47,1.4A24.4,24.4,0,0,1,51.63,75a4,4,0,0,0,2.67.74,6.29,6.29,0,0,0,4.46-2c1.49-1.83.3-3.46-2.2-3.67a6.73,6.73,0,0,0-2.19.18,21.7,21.7,0,0,1-10.87.2C42,70,40.5,69.51,39,69a16.58,16.58,0,0,1-7.83-6.06l-.11-.15-.1-.12-.19-.21-.13-.12a1.8,1.8,0,0,0-.2-.19,1.09,1.09,0,0,0-.17-.13l-.2-.16-.32-.21-.07,0h0a.2.2,0,0,1-.08,0l-.35-.17-.23-.1-.2-.08-.26-.08-.17,0L28.15,61,28,61l-.18,0a16.56,16.56,0,0,1-9.16-3.75q-1.78-1.51-3.45-3.16a21.68,21.68,0,0,1-5.26-9.51,6.73,6.73,0,0,0-.94-2C7.57,40.49,5.57,40.28,4.72,42.48Z"/><path d="M.05,78.22a6.32,6.32,0,0,0,2.84,4,4,4,0,0,0,2.69.7,24.29,24.29,0,0,1,9.3.91c1.52.4,3,.74,4.58,1A29.81,29.81,0,0,1,29,88.13l.06,0a4.59,4.59,0,0,0,.5.24l.22.08.42.12.25.05.17,0h.21l.41,0,.41,0h.21l.17,0,.25-.05.42-.12.21-.08a3,3,0,0,0,.51-.25l.06,0A29.64,29.64,0,0,1,43,84.83c1.53-.28,3.06-.62,4.58-1a24.29,24.29,0,0,1,9.3-.91,4,4,0,0,0,2.68-.7,6.3,6.3,0,0,0,2.85-4c.37-2.34-1.47-3.16-3.74-2.09a6.88,6.88,0,0,0-1.81,1.25A21.67,21.67,0,0,1,47.59,83c-1.51.39-3,.73-4.57,1a16.51,16.51,0,0,1-9.8-1.34L33,82.61l-.15-.06-.26-.09-.17,0-.27-.06-.21,0-.25,0a2.55,2.55,0,0,0-.39,0h-.18a2.55,2.55,0,0,0-.39,0l-.25,0-.21,0-.27.06-.17,0-.27.09-.15.06-.17.06A16.51,16.51,0,0,1,19.48,84c-1.54-.28-3.06-.62-4.57-1A21.61,21.61,0,0,1,5.6,77.38a7,7,0,0,0-1.81-1.25C1.52,75.06-.32,75.88.05,78.22Z"/><path d="M13.87,111.5a6.35,6.35,0,0,0,4.46,2,4.09,4.09,0,0,0,2.67-.74,24.12,24.12,0,0,1,8.52-3.86q2.27-.63,4.47-1.41a29.89,29.89,0,0,1,9.92-1.92H44a5.09,5.09,0,0,0,.56,0l.23,0a3.2,3.2,0,0,0,.42-.1l.25-.08.16-.06a1.63,1.63,0,0,0,.19-.09l.36-.19c.12-.07.24-.14.35-.22l.17-.11.13-.12a1.54,1.54,0,0,0,.19-.17c.11-.1.21-.21.31-.32l.15-.17a4.76,4.76,0,0,0,.31-.47l0,0a29.68,29.68,0,0,1,6.62-7.63q1.79-1.52,3.45-3.17a24.31,24.31,0,0,1,7.6-5.44,4.06,4.06,0,0,0,2-2,6.29,6.29,0,0,0,.47-4.87c-.85-2.21-2.85-2-4.28.06a7.11,7.11,0,0,0-.94,2,21.77,21.77,0,0,1-5.26,9.52C56.32,93,55.17,94,54,95a16.48,16.48,0,0,1-9.16,3.74l-.18,0-.16,0a1.31,1.31,0,0,0-.27.06l-.17,0-.26.09-.2.07-.23.1a2.91,2.91,0,0,0-.35.18l-.07,0h0l-.07,0a3.53,3.53,0,0,0-.32.21l-.2.15-.17.14a1.71,1.71,0,0,0-.2.18,1.59,1.59,0,0,0-.13.13l-.19.2-.1.13a.76.76,0,0,0-.11.14,16.52,16.52,0,0,1-7.83,6.06c-1.46.52-3,1-4.46,1.41A21.7,21.7,0,0,1,18.26,108a7,7,0,0,0-2.19-.18C13.57,108,12.38,109.66,13.87,111.5Z"/><path d="M42.48,133.41a6.36,6.36,0,0,0,4.88-.47,4,4,0,0,0,1.94-2,24.24,24.24,0,0,1,5.45-7.6c1.1-1.11,2.15-2.27,3.17-3.46a29.68,29.68,0,0,1,7.63-6.62l0,0a3.55,3.55,0,0,0,.47-.32c.06,0,.11-.1.17-.15a3,3,0,0,0,.32-.3l.17-.19a1.5,1.5,0,0,1,.11-.13L67,112a4,4,0,0,0,.23-.34,2.53,2.53,0,0,0,.18-.37l.1-.18.05-.17.09-.24c0-.14.07-.28.1-.43s0-.15,0-.22a3.6,3.6,0,0,0,0-.56s0,0,0-.07a29.34,29.34,0,0,1,1.92-9.91c.52-1.47,1-3,1.4-4.48A24.34,24.34,0,0,1,75,86.5a4,4,0,0,0,.74-2.67,6.29,6.29,0,0,0-2-4.46c-1.83-1.49-3.46-.31-3.67,2.2a6.73,6.73,0,0,0,.18,2.19,21.7,21.7,0,0,1,.2,10.87c-.41,1.5-.88,3-1.4,4.46a16.55,16.55,0,0,1-6.06,7.82l-.15.12-.12.1-.21.19-.12.12-.19.21a1.83,1.83,0,0,0-.13.16l-.16.2-.21.33a.43.43,0,0,0,0,.07h0l0,.08c-.06.11-.12.23-.17.34a2.29,2.29,0,0,0-.1.23c0,.07-.05.14-.08.2a2.76,2.76,0,0,0-.08.27s0,.11,0,.17L61,110s0,.1,0,.16a1.13,1.13,0,0,0,0,.18,16.56,16.56,0,0,1-3.75,9.16q-1.51,1.78-3.16,3.45a21.68,21.68,0,0,1-9.51,5.26,6.73,6.73,0,0,0-2,.94C40.49,130.56,40.28,132.56,42.48,133.41Z"/><path d="M78.22,138.08a6.3,6.3,0,0,0,4-2.85,4,4,0,0,0,.7-2.68,24.36,24.36,0,0,1,.91-9.31c.4-1.51.74-3,1-4.57a29.64,29.64,0,0,1,3.3-9.55s0,0,0-.06a4,4,0,0,0,.24-.51l.08-.21c0-.14.09-.28.12-.42s0-.17.05-.25,0-.12,0-.18,0-.13,0-.2,0-.27,0-.41,0-.28,0-.41,0-.14,0-.21,0-.11,0-.17a2.21,2.21,0,0,0-.05-.25c0-.14-.08-.28-.12-.42s0-.15-.08-.22a4,4,0,0,0-.25-.51s0,0,0,0a29.72,29.72,0,0,1-3.3-9.55c-.28-1.54-.62-3.06-1-4.58a24.31,24.31,0,0,1-.91-9.3,4,4,0,0,0-.7-2.69,6.29,6.29,0,0,0-4-2.84c-2.34-.37-3.16,1.47-2.09,3.74a6.83,6.83,0,0,0,1.25,1.8A21.7,21.7,0,0,1,83,90.54c.39,1.51.73,3,1,4.57a16.51,16.51,0,0,1-1.34,9.8l-.06.17-.06.15-.09.27c0,.06,0,.11,0,.17l-.06.27,0,.21a2.13,2.13,0,0,0,0,.25,2.55,2.55,0,0,0,0,.39s0,0,0,.08h0s0,.06,0,.09a2.55,2.55,0,0,0,0,.39,2.42,2.42,0,0,0,0,.25l0,.21.06.27s0,.11,0,.17l.09.26c0,.06,0,.1.06.15l.06.17A16.55,16.55,0,0,1,84,118.65c-.28,1.53-.62,3.06-1,4.57a21.67,21.67,0,0,1-5.62,9.31,6.88,6.88,0,0,0-1.25,1.81C75.06,136.61,75.88,138.45,78.22,138.08Z"/><path d="M111.5,124.26a6.37,6.37,0,0,0,2-4.46,4,4,0,0,0-.74-2.67,24.12,24.12,0,0,1-3.86-8.52q-.63-2.27-1.41-4.47a29.89,29.89,0,0,1-1.92-9.92v-.06a5.46,5.46,0,0,0,0-.57,1.74,1.74,0,0,0,0-.22,3.34,3.34,0,0,0-.1-.43c0-.08,0-.16-.08-.24l-.06-.17a1.51,1.51,0,0,0-.09-.18c-.06-.12-.12-.25-.19-.37a4,4,0,0,0-.22-.34c0-.06-.07-.12-.11-.17l-.12-.13a1.63,1.63,0,0,0-.17-.2l-.32-.3-.17-.15a4.87,4.87,0,0,0-.47-.32l0,0a29.68,29.68,0,0,1-7.63-6.62q-1.52-1.78-3.17-3.46a24.09,24.09,0,0,1-5.44-7.6,4,4,0,0,0-2-2,6.34,6.34,0,0,0-4.87-.48c-2.21.85-2,2.85.06,4.29a6.82,6.82,0,0,0,2,.93,21.77,21.77,0,0,1,9.52,5.26C93,81.81,94,83,95,84.14a16.48,16.48,0,0,1,3.74,9.16l0,.18,0,.16a1.4,1.4,0,0,0,.06.28s0,.11,0,.17l.09.26c0,.07,0,.13.07.2a2.29,2.29,0,0,1,.1.23,2.91,2.91,0,0,0,.18.35.25.25,0,0,0,0,.07h0l0,.08a3.53,3.53,0,0,0,.21.32l.15.2L100,96c.05.07.12.13.18.2l.13.12a1.8,1.8,0,0,0,.2.19l.13.1a.81.81,0,0,0,.14.12,16.49,16.49,0,0,1,6.06,7.82q.78,2.2,1.41,4.47a21.7,21.7,0,0,1-.21,10.87,7,7,0,0,0-.18,2.19C108,124.56,109.66,125.74,111.5,124.26Z"/><path d="M133.41,95.64a6.34,6.34,0,0,0-.47-4.87,4,4,0,0,0-2-1.94,24.4,24.4,0,0,1-7.6-5.45c-1.11-1.1-2.27-2.16-3.46-3.17a29.68,29.68,0,0,1-6.62-7.63l0,0a3.55,3.55,0,0,0-.32-.47,1.22,1.22,0,0,0-.15-.17,3,3,0,0,0-.3-.32l-.19-.17-.13-.11a1.88,1.88,0,0,0-.18-.12l-.34-.22-.37-.19-.18-.09-.17-.06-.24-.08-.43-.1-.22,0a5.54,5.54,0,0,0-.56,0h-.07a29.34,29.34,0,0,1-9.91-1.92c-1.47-.52-3-1-4.48-1.41a24,24,0,0,1-8.51-3.86,4.09,4.09,0,0,0-2.67-.74,6.33,6.33,0,0,0-4.46,2c-1.49,1.84-.31,3.47,2.2,3.68a7,7,0,0,0,2.19-.18,21.7,21.7,0,0,1,10.87-.21c1.5.42,3,.89,4.46,1.41a16.49,16.49,0,0,1,7.82,6.06l.12.14a.64.64,0,0,0,.1.13l.19.21.12.12.21.19.16.13.2.15a3,3,0,0,0,.33.21l.07,0h0l.08,0a2.79,2.79,0,0,0,.34.18l.23.1.2.07.27.09.17,0a1.31,1.31,0,0,0,.27.06l.16,0,.18,0a16.48,16.48,0,0,1,9.16,3.74q1.78,1.52,3.45,3.17a21.68,21.68,0,0,1,5.26,9.51,6.73,6.73,0,0,0,.94,2C130.56,97.64,132.56,97.85,133.41,95.64Z"/><path d="M138.08,59.91a6.35,6.35,0,0,0-2.85-4,4.05,4.05,0,0,0-2.68-.69,24.18,24.18,0,0,1-9.31-.92c-1.51-.39-3-.73-4.57-1a29.64,29.64,0,0,1-9.55-3.3l-.06,0a4,4,0,0,0-.51-.24l-.21-.08-.42-.12-.25-.05-.18,0h-.2l-.41,0-.41,0h-.21l-.17,0-.25.05-.42.12-.22.08-.51.24,0,0a29.72,29.72,0,0,1-9.55,3.3c-1.54.28-3.06.62-4.58,1a24.13,24.13,0,0,1-9.3.92,4.08,4.08,0,0,0-2.69.69,6.33,6.33,0,0,0-2.84,4c-.37,2.33,1.47,3.15,3.74,2.08a6.6,6.6,0,0,0,1.8-1.25,21.77,21.77,0,0,1,9.32-5.61c1.51-.39,3-.73,4.57-1a16.51,16.51,0,0,1,9.8,1.33l.17.07.15.06.27.08.17.05.27.06.21,0,.25,0,.39,0H107l.39,0,.25,0,.21,0,.27-.06.17-.05.26-.08.15-.06.17-.07a16.55,16.55,0,0,1,9.81-1.33c1.53.28,3.06.62,4.57,1a21.74,21.74,0,0,1,9.31,5.61A6.65,6.65,0,0,0,134.34,62C136.61,63.06,138.45,62.24,138.08,59.91Z"/></g></g></svg>