<svg xmlns="http://www.w3.org/2000/svg" viewBox="0 0 61.34 140.61"><title>Recurso 34ART</title><g id="Capa_2" data-name="Capa 2"><g id="Capa_1-2" data-name="Capa 1"><path d="M30.12,40.15l1.95,0a.26.26,0,0,0,.3-.31.13.13,0,0,1,0-.06c0-.74,0-.74.77-.74h4.36c.25,0,.36.12.38.37s0,.53.13.68.41,0,.64.07a.31.31,0,0,1,.34.35c0,.14,0,.29,0,.44v6.42c0,.57,0,.6.58.6s.53.05.53.55c0,1.75,0,3.5,0,5.25,0,.17,0,.34,0,.5,0,.36,0,.38.39.39H42c.37,0,.38,0,.4-.38,0-.73,0-.73.79-.73h9.72c.68,0,.66,0,.66-.63,0-.46,0-.48.53-.49h5.19c.52,0,1,0,1.56,0s.46.07.46.46c0,.8,0,1.6,0,2.4,0,.37,0,.4-.43.41h-.28c-.36,0-.37,0-.4.38v.16c0,.56,0,.57-.56.57s-.86,0-1.28,0-.36,0-.39.34c-.07.77-.07.77-.86.77-1,0-2.09,0-3.13,0-.46,0-.46,0-.48.47a1,1,0,0,1,0,.17c0,.45,0,.47-.48.47H47.29c-.44,0-.44,0-.46.43,0,0,0,0,0,.06,0,.62,0,.62-.67.62H43c-.59,0-.59,0-.61.57a.86.86,0,0,1,0,.16c0,.35-.05.38-.4.38H39.27a.22.22,0,0,0-.25.24c0,.15,0,.3,0,.45v3c0,.13,0,.26,0,.39s-.1.37-.37.37a5.46,5.46,0,0,0-.69.1c0,.28,0,.56,0,.83a.22.22,0,0,0,.25.24h.5c.23,0,.35.12.35.35s0,.3,0,.44v5.08c0,.15,0,.3,0,.45,0,.33,0,.35.35.37.77.06.77.06.77.84s0,1.41,0,2.12c0,.37,0,.37.38.39.73,0,.73,0,.73.76,0,.39,0,.78,0,1.18,0,.21.1.28.3.3.81.07.81.08.81.9v4.36c0,.2.07.3.29.32s.57,0,.73.14.09.45.1.69.13.27.32.29c.79.06.79.06.79.86,0,.35,0,.71,0,1.06s.09.31.3.3H45c.76,0,.76,0,.76.79v3.07c0,.58,0,.61.56.6h.17a.33.33,0,0,1,.38.37V94.1c0,.51,0,1,0,1.51s0,.38.37.4c.74,0,.74,0,.74.81v2.12c0,.4,0,.4.42.42.69,0,.7,0,.7.73,0,.34,0,.67,0,1s0,.43-.41.42c-.73,0-.7,0-.7.71s0,1.38,0,2.07,0,.56-.55.58h-.22c-.24,0-.34.1-.34.33s0,.75,0,1.12v.44c0,.22-.1.36-.34.34a2.62,2.62,0,0,0-.28,0c-.48,0-.49,0-.49.52,0,.71,0,1.41,0,2.12a3.39,3.39,0,0,1,0,.45.26.26,0,0,1-.29.26h-.11c-.73,0-.7,0-.7.71v1.17c0,.24-.12.35-.38.36-.73,0-.73,0-.73.77,0,.36,0,.71,0,1.06s-.06.4-.4.39c-.75,0-.71,0-.71.75,0,.37,0,.74,0,1.11s-.08.38-.36.38a1.14,1.14,0,0,0-.68.12c-.12.11-.06.42-.07.64s-.11.35-.38.36c-.73,0-.73,0-.73.77s0,1.38,0,2.07c0,.48,0,.49-.51.5h-.22c-.34,0-.37,0-.38.4s0,.86,0,1.28,0,.53-.53.55H38.2c-.21,0-.3.11-.3.31s0,.67,0,1c0,.13,0,.27,0,.4,0,.51,0,.51-.55.52h-.22c-.23,0-.34.1-.34.33v1.12c0,.13,0,.26,0,.39,0,.35-.05.37-.39.39a2.61,2.61,0,0,1-.28,0c-.41,0-.43,0-.44.46,0,.71,0,1.42,0,2.13a2.54,2.54,0,0,1,0,.39c0,.33,0,.37-.41.37-.74,0-.69,0-.7.76v1.12c0,.24-.11.35-.38.36-.73,0-.73,0-.73.77s0,1.38,0,2.07c0,.48,0,.49-.5.5h-.23c-.34,0-.36,0-.37.4s0,.78,0,1.17c0,.65,0,.66-.64.66H22a1.39,1.39,0,0,0-.75.09c-.13.09-.09.43-.12.67s-.06.35-.43.35c-1.32,0-2.64,0-4,0-.61,0-1.22,0-1.84,0-.36,0-.38,0-.38-.38,0-.81,0-.73-.79-.73H5.19c-.13,0-.26,0-.39,0-.36,0-.37,0-.4.38-.05.73-.05.73-.79.73s-1.38,0-2.07,0c-.4,0-.41,0-.42-.4s0-.89,0-1.34,0-.39.42-.42c.69-.05.69-.05.69-.77,0-.37,0-.74,0-1.11s.12-.34.34-.35h.05c.73-.07.73-.07.73-.79v-2.06c0-.46,0-.5.46-.5.74,0,.65-.07.66-.69,0-.39,0-.78,0-1.18a.3.3,0,0,1,.31-.36h.11c.69-.05.69-.05.69-.76s0-1.45,0-2.18c0-.35,0-.37.38-.4.73-.08.73-.08.73-.79,0-.37,0-.74,0-1.11a.29.29,0,0,1,.29-.33h.39c.42,0,.43,0,.43-.46,0-.8,0-1.6,0-2.4,0-.45,0-.49.47-.48.7,0,.64-.06.64-.66,0-.41,0-.82,0-1.22,0-.25.11-.34.33-.36h.06c.21,0,.55,0,.62-.09a1.48,1.48,0,0,0,.11-.74c0-.67,0-1.34,0-2,0-.47,0-.51.45-.5.74,0,.66-.07.66-.69,0-1.1,0-2.2,0-3.3,0-.45,0-.48.47-.48.7,0,.64-.06.64-.65v-5.81a.27.27,0,0,0-.3-.31h-.17c-.69,0-.64,0-.64-.69,0-1.1,0-2.2,0-3.29,0-.46,0-.48-.47-.48-.68,0-.64,0-.64-.69V94.09c0-.32-.05-.35-.36-.37H9.52c-.62,0-.59,0-.59-.62s0-1.49,0-2.24c0-.46,0-.48-.46-.48-.69,0-.65,0-.65-.69s0-1.45,0-2.17c0-.47,0-.49-.46-.49-.69,0-.65,0-.65-.68V83.1c0-.53,0-.53-.52-.55H5.9c-.25,0-.32-.12-.32-.34,0-.47,0-.93,0-1.4s0-.49-.46-.49c-.69,0-.65.06-.65-.68s0-1.45,0-2.18c0-.47,0-.48-.45-.49-.7,0-.66,0-.66-.68V74.12c0-.48,0-.49-.46-.5-.7,0-.65,0-.66-.67s0-1.49,0-2.24c0-.41,0-.43-.45-.44-.71,0-.66,0-.66-.67s0-1.49,0-2.23c0-.42,0-.44-.44-.45C0,66.92,0,67,0,66.25V61.9c0-.46,0-.49.47-.49.73,0,.64-.06.65-.7V57.47c0-.51,0-.53.48-.53.7,0,.63-.07.63-.66,0-1.1,0-2.19,0-3.29,0-.49,0-.49.5-.52H3c.35,0,.38,0,.39-.39s0-1,0-1.45c0-.27.11-.38.35-.39h.23c.53,0,.53,0,.54-.53V46.25c0-.53,0-.53-.52-.54H3.78c-.42,0-.42,0-.43-.46V36.49c0-.15,0-.3,0-.45,0-.33-.05-.35-.35-.38s-.58,0-.68-.1-.08-.49-.08-.75c0-1.39,0-2.79,0-4.18,0-.45,0-.48.47-.48.7,0,.64-.06.64-.66V26.14c0-.42,0-.46.44-.45.77,0,.67-.08.68-.74V19.76c0-.13,0-.26,0-.39s.09-.38.34-.39h.34c.41,0,.43,0,.43-.46,0-1.25,0-2.5,0-3.74,0-1,0-2.09,0-3.13,0-.45,0-.48.47-.48.71,0,.64-.05.64-.71V3.82c0-.43,0-.47.44-.46.78,0,.67-.1.68-.73s0-1.45,0-2.18c0-.41,0-.45.5-.45s.52.05.54.44c.05.67.05.67.72.68.32,0,.64,0,.95,0,.51,0,.55,0,.57.53V1.7c0,.51,0,.51.53.53s.58,0,.58.62c0,.41,0,.82,0,1.23s0,.36.39.38h.11c.57,0,.78.33.57.87a.35.35,0,0,1-.24.16,2.83,2.83,0,0,1-.5,0c-.24,0-.34.11-.33.34v.39c0,2.88,0,5.77,0,8.65,0,.11,0,.23,0,.34,0,.36,0,.36.38.39.73,0,.73,0,.73.76s0,1.34,0,2c0,.49,0,.5-.5.51H12.6c-.35,0-.36,0-.38.4,0,.11,0,.22,0,.34q0,6,0,12c0,.11,0,.22,0,.33,0,.37,0,.37.38.39h.11c.58,0,.78.31.58.86a.33.33,0,0,1-.23.17,2.83,2.83,0,0,1-.5,0c-.24,0-.34.1-.34.33v1.51c0,.41,0,.82,0,1.23,0,.22.07.33.32.34.79.07.79.07.79.86s0,1.38,0,2.07c0,.4,0,.4.41.42.69,0,.7,0,.7.73v3.13c0,.59,0,.62.56.61h.11c.36,0,.42.08.44.43s0,.6,0,.89c0,.52,0,1,0,1.57s0,.44.43.46c.73,0,.83.19.56,1.05h-.64c-.23,0-.35.07-.35.32v2.79a.26.26,0,0,0,.3.3h.23c.53,0,.76.39.53.9a.43.43,0,0,1-.2.14,1.62,1.62,0,0,1-.22,0l-.59.1c0,.31,0,.63,0,.94,0,0,.09.1.16.12a.27.27,0,0,0,.16,0c.76.06.76.06.76.84s0,1.42,0,2.13c0,.36,0,.36.38.38h.06c.59,0,.68.07.67.66,0,.44,0,.44.48.46h.28a.32.32,0,0,1,.35.34v.34c0,.41,0,.42.41.42h2.57c.41,0,.43,0,.44-.45s0-1.11,0-1.65a.75.75,0,0,1,.19-.09c.73-.14.86,0,.86.7,0,.37,0,.74,0,1.12s0,.35.4.38h.11c.58,0,.58,0,.61.6v.22c0,.18.07.29.26.29h.17c.75,0,.75,0,.75-.7V55.17c0-.42,0-.46.44-.46.76,0,.67-.07.67-.73s0-1.41,0-2.12c0-.46,0-.5.46-.5.74,0,.65-.08.65-.69V45.42c0-.13,0-.26,0-.39s.13-.36.37-.37h.44a.27.27,0,0,0,.31-.31c0-.35,0-.7,0-1.06,0-.54,0-1.08,0-1.62,0-.24.11-.33.33-.35l.71-.07c0-.28.05-.55.07-.82a1.34,1.34,0,0,0,0-.28Zm2.79,16.79h4.58c.44,0,.45,0,.47-.42,0-.65,0-.65.72-.69h0c.23,0,.35-.09.34-.33V53.87a.29.29,0,0,0-.32-.35c-.24,0-.55,0-.69-.08S38,53,38,52.76s-.05-.33-.38-.35-.53,0-.63-.08-.08-.45-.11-.68-.05-.34-.37-.36H29.32c-.31,0-.33,0-.36.37s0,.52-.1.63-.44.1-.67.11-.34.1-.34.33c0,1.29,0,2.57,0,3.86,0,.31,0,.32.37.34h4.69ZM25.68,69.22h0V66.48c0-.68,0-.68-.66-.68-.44,0-.45,0-.45-.43,0-.7,0-.68-.66-.69-.45,0-.46,0-.46-.47s0-.93,0-1.4c0-.21-.06-.35-.31-.36s-.58.06-.69-.07-.07-.48-.12-.73-.08-.26-.14-.27a6.46,6.46,0,0,0-.88,0c-.05,0-.12.1-.13.16a1.22,1.22,0,0,0,0,.33c0,.58,0,.58-.6.59h-.11c-.38,0-.39,0-.41.42,0,.65,0,.65-.72.69-.35,0-.37,0-.39.39-.05.72-.05.72.7.8.33,0,.39.08.4.4s0,.78,0,1.17c0,.65,0,.66.63.66.42,0,.47.07.48.49s0,.9,0,1.34,0,.37.38.4h.17c.53,0,.56,0,.56.59,0,1.06,0,2.11,0,3.17,0,.72,0,.72.7.7.47,0,.48,0,.49-.52s0-.89,0-1.33.05-.35.36-.37h.39a.28.28,0,0,1,.28.29c0,.11,0,.22,0,.33,0,.48,0,.48.51.49h.22c.42,0,.44,0,.45-.45ZM36.77,48.47h0a2.17,2.17,0,0,0,0,.44c0,.07.1.18.15.18a3.84,3.84,0,0,0,.83,0c.23,0,.19-.25.17-.41s.15-.58-.15-.69a2.36,2.36,0,0,0-.88,0s-.11.09-.12.16A1.76,1.76,0,0,0,36.77,48.47Z"/><path d="M30.13,40.14c-.63,0-1.26,0-1.9,0-.34,0-.36,0-.38.39-.05.69-.05.69-.69.72-.4,0-.43,0-.43.47,0,1,0,2,0,3v.45c0,.57,0,.57-.6.59h-.22c-.22,0-.29.12-.29.32,0,.39,0,.78,0,1.17,0,.15,0,.3,0,.44a.28.28,0,0,1-.32.3c-.24,0-.58,0-.68.1s-.09.49-.1.74,0,.67,0,1,0,.39-.4.39c-.75,0-.71,0-.71.75v1.95a1.57,1.57,0,0,1,0,.44.33.33,0,0,1-.22.2c-.56,0-1.12,0-1.67,0-.21,0-.23-.15-.23-.31,0-.44,0-.89,0-1.33s0-.57-.54-.58h-.12c-.44,0-.44,0-.45-.48V50.7c0-.51,0-.51-.55-.53H19.5c-.51,0-.51,0-.52-.53,0-.11,0-.22,0-.33a.25.25,0,0,0-.25-.25c-.27,0-.62,0-.78-.12s-.07-.49-.08-.75a.25.25,0,0,0-.25-.24h-.22c-.69,0-.64,0-.64-.69V41.84c0-.58,0-.58-.59-.6h-.28c-.15,0-.24-.08-.24-.24s0-.3,0-.45V35.31c0-.13,0-.26,0-.39,0-.32-.05-.35-.36-.37h-.22c-.53,0-.53,0-.53-.57,0-.74,0-1.49,0-2.23,0-.53,0-.53-.52-.55h-.22c-.36,0-.36,0-.37-.4v-.11c0-.51,0-.51.53-.54h.34a.23.23,0,0,0,.24-.24v-.45c0-1.1,0-2.2,0-3.29,0-.43,0-.44.43-.47h.23c.43,0,.43,0,.45-.44,0-.65,0-.65.68-.68.42,0,.42,0,.44-.45,0-.63,0-.63.69-.67.4,0,.4,0,.42-.41v-.11c0-.57,0-.57.6-.59h.22c.21,0,.29-.11.3-.31s0-.55.09-.69.45-.1.69-.11.34-.09.34-.33a1.93,1.93,0,0,1,0-.34c0-.4,0-.44.45-.44.74,0,.66-.06.67-.69,0-.38,0-.4.41-.43h.05c.71,0,.65-.05.65-.64s0-.45.49-.48h.11c.5,0,.5,0,.52-.54V17c0-.19.11-.27.28-.28l.55,0c.18,0,.28-.09.28-.27v-.34c0-.47,0-.49.52-.5.76,0,1.53,0,2.29,0,.53,0,.53,0,.54-.52a1.61,1.61,0,0,0,0-.22c0-.28.13-.37.37-.37h3.63c.45,0,.45,0,.47-.48,0-.63,0-.63.66-.63h3.29c.5,0,.5,0,.51-.49a1,1,0,0,0,0-.17c0-.41,0-.44.46-.45h4.52c.59,0,.59,0,.61-.57v-.06c0-.45,0-.49.52-.49s.5.06.52.52a2.53,2.53,0,0,1,0,.28c0,.24.11.33.34.32H44c.57,0,.78.34.57.87a.36.36,0,0,1-.24.17,3.38,3.38,0,0,1-.45,0c-.35,0-.37,0-.38.4,0,.71,0,1.41,0,2.12,0,.15,0,.3,0,.45,0,.34,0,.36-.41.38H43c-.54,0-.61,0-.59.58a2.64,2.64,0,0,1,0,.28.27.27,0,0,1-.3.26c-.24,0-.55,0-.69.08s-.09.45-.11.68-.12.36-.39.36c-.81,0-1.63,0-2.45,0-.49,0-.49,0-.51.51a.86.86,0,0,1,0,.16c0,.42,0,.44-.46.45-.8,0-1.6,0-2.4,0-.46,0-.47,0-.49.46a2.61,2.61,0,0,1,0,.28c0,.34-.06.37-.42.37H31.78c-.56,0-.56,0-.59.53v.23a.32.32,0,0,1-.38.35c-.47,0-.93,0-1.4,0s-.43,0-.45.45v.22c0,.42,0,.44-.46.45-.59,0-.66-.07-.66.63,0,.47,0,.47-.52.48H27a.23.23,0,0,0-.24.25c0,.27,0,.62-.14.79s-.5.05-.75.09c-.08,0-.15.12-.22.2s0,.07,0,.11c0,.23,0,.55-.11.68s-.45.1-.68.11-.34.11-.33.34v.05c-.05.68-.05.68-.75.73-.32,0-.34,0-.37.35v.17c0,.57,0,.57-.59.59h-.28a.23.23,0,0,0-.24.25c0,.26,0,.59-.11.74s-.48.1-.73.12a.25.25,0,0,0-.28.27v.06c0,.23,0,.55-.11.69s-.45.09-.68.09-.34.13-.33.35v.06c0,.68,0,.68-.69.71-.39,0-.42,0-.42.42,0,.87,0,1.75,0,2.62,0,.33,0,.36.35.37h1.62c.23,0,.33-.11.32-.34v-.17c0-.59,0-.6.64-.6h2.29c.39,0,.4,0,.42-.42,0-.66,0-.66.71-.7.38,0,.39,0,.41-.43,0-.68,0-.68.73-.68h1.17q.34,0,.33-.33v-.17c0-.59,0-.59.58-.61s.52,0,.54-.52a1.77,1.77,0,0,0,0-.23c0-.27.13-.36.37-.36h1.34c.51,0,.51,0,.52-.54a2.61,2.61,0,0,0,0-.28c0-.19.11-.26.28-.28a4.13,4.13,0,0,1,.5,0c.23,0,.35-.1.34-.33a1.93,1.93,0,0,1,0-.34c0-.41,0-.43.45-.45s.9,0,1.34,0,.42,0,.44-.4c0-.71,0-.71.75-.72h1.18a.26.26,0,0,0,.3-.31v-.05c.06-.75.06-.75.83-.75h1c.37,0,.38,0,.4-.38,0-.73,0-.73.79-.73s1.42,0,2.13,0c.41,0,.42,0,.44-.46,0-.65,0-.65.69-.65h2.23c.39,0,.4,0,.42-.41,0-.7,0-.7.72-.7h2.12c.5,0,.5,0,.51-.49,0-.06,0-.11,0-.17,0-.41,0-.45.44-.45h3.52c.35,0,.4.07.43.43,0,.64,0,.64.66.68.4,0,.45.07.46.47a4.54,4.54,0,0,1-.07.58h-.64c-.38,0-.39,0-.4.44s0,.78,0,1.17a2.55,2.55,0,0,1,0,.39.24.24,0,0,1-.26.23c-.17,0-.34,0-.5,0s-.32.12-.33.34c-.07.78-.07.78-.86.78H50.49c-.21,0-.31.09-.31.3v.11c0,.7,0,.7-.77.7H48.35c-.37,0-.38,0-.41.37,0,.74,0,.74-.78.74H46c-.23,0-.31.11-.33.34-.07.78-.07.78-.86.78h-1c-.33,0-.35,0-.37.35-.07.76-.07.76-.82.76H40.59c-.44,0-.44,0-.46.42,0,.69,0,.69-.73.69H38.23c-.23,0-.34.11-.33.34a.09.09,0,0,1,0,.05c0,.68,0,.68-.74.73-.32,0-.34,0-.37.35v.11c0,.63,0,.63-.65.65-.45,0-.45,0-.47.48a2.53,2.53,0,0,1,0,.28c0,.24-.1.37-.37.36h-1.4c-.42,0-.44,0-.45.44s0,.9,0,1.34,0,.44-.45.45H31.63c-.4,0-.41,0-.43.41,0,0,0,0,0,.05,0,.64,0,.64-.65.66-.46,0-.46,0-.47.48,0,.22,0,.44,0,.66Z"/><path d="M22.84,55.75c-.51,0-.51,0-.51-.53s.06-.52.55-.51.5.06.5.52S23.34,55.76,22.84,55.75Z"/></g></g></svg>