<svg xmlns="http://www.w3.org/2000/svg" viewBox="0 0 74.17 74.17"><title>Recurso 61MODERN ICON</title><g id="Capa_2" data-name="Capa 2"><g id="Capa_1-2" data-name="Capa 1"><path d="M37.09,56.64A19.56,19.56,0,1,1,56.64,37.09,19.58,19.58,0,0,1,37.09,56.64Zm0-36.17A16.62,16.62,0,1,0,53.7,37.09,16.64,16.64,0,0,0,37.09,20.47Z"/><path d="M37.09,57.52A20.44,20.44,0,1,1,57.52,37.09,20.46,20.46,0,0,1,37.09,57.52Zm0-37.93a17.5,17.5,0,1,0,17.5,17.5A17.52,17.52,0,0,0,37.09,19.59Z"/><path d="M37.09,18.12v19h19A19,19,0,0,0,37.09,18.12Z"/><path d="M37.09,56.05v-19h-19A19,19,0,0,0,37.09,56.05Z"/><rect x="35.62" width="2.94" height="18.12"/><rect x="35.62" y="56.05" width="2.94" height="18.12"/><rect x="56.05" y="35.62" width="18.12" height="2.94"/><rect y="35.62" width="18.12" height="2.94"/></g></g></svg>