<svg xmlns="http://www.w3.org/2000/svg" viewBox="0 0 226.32 184.01"><title>Recurso 6ART</title><g id="Capa_2" data-name="Capa 2"><g id="Capa_1-2" data-name="Capa 1"><path d="M142.59,6.84a.71.71,0,0,0,.45.51l.36-.22c.15,0,.35-.06.51.09,0,.25-.22.09-.4.23l-.06.33.48.06.52-.25a2.1,2.1,0,0,0,.84.7c.12.07.31.09.37.2.22.37.68.42.93.77s.3.55.63.61.35.48.7.51.33.49.7.52c.14,0,.25.26.39.37s.27.11.38.2a4.43,4.43,0,0,1,.45.51c.15.18.44.12.54.35s.51.26.69.52a1.34,1.34,0,0,0,.57.53c.25.1.43.4.64.61a.3.3,0,0,0,.18.1c.24,0,.31.35.58.27.16.16.29.41.48.46s.32.31.51.41a2.72,2.72,0,0,1,.69.52,3.63,3.63,0,0,0,.64.36c.16.1.27.25.42.36a4.21,4.21,0,0,0,.45.28l.38.19A3.79,3.79,0,0,0,158,18c.19.1.42.13.55.34a3.58,3.58,0,0,0,.44.51l.69,0,.18.2.59,0c.11.07.18.09.22.15s.44.12.54.35c.35-.06.58.26.9.32a4.81,4.81,0,0,1,.93.51l.62,0a1.37,1.37,0,0,0,.21.18,6.82,6.82,0,0,1,.66.34,3.54,3.54,0,0,1,.48.47c.31-.1.37.39.69.28.2.16.31.38.57.52s.69.63,1.17.73c.25.39.69.53,1,.85s.47.32.68.53.42.25.61.44a2.86,2.86,0,0,0,.72.43.88.88,0,0,1,.25.22,2.64,2.64,0,0,0,1,.78.57.57,0,0,1,.19.1c.26.28.51.57.76.86.44-.06.47.58.91.55.07,0,.15.16.23.24a3.33,3.33,0,0,0,.9.81c.32.15.43.62.85.68l1,1.18.32,0,.08.36c.1.18.4.17.57.38a3,3,0,0,0,1.13,1.06c.23.1.19.38.29.57.38,0,.53.37.76.61s.71.8,1.06,1.2c.1.56.58.85.9,1.25s.71.81,1.07,1.21l0,.24.45.25v.23l.84.95c0,.43.49.59.56.92s.55.61.53,1.05c.23.13.11.41.29.58s.37.29.29.56c.57.51.58,1.31,1,1.89-.14.3.34.42.2.71.12.22.26.44.36.66a4.32,4.32,0,0,0,.3.79c.17.21.08.53.35.67-.14.3.33.42.2.71.23.16.18.39.19.61s.17.33.18.49a.89.89,0,0,0,.17.51c.08.14,0,.36.07.54s.09.11.15.18l0,.44.22.27c0,.22,0,.45,0,.68l.19.21,0,.69.23.26-.06.94c.42.2,0,.72.4.88l-.07,1.15.22.28,0,.44.22.27L190,57.79l.16.18s.05.06.05.09c0,.38,0,.76-.06,1.12l.19.21-.52,8.48-.22.26-.12,2-.23.2L189,73.77l-.25.25,0,.66-.25.24-.08,1.36-.25.24,0,.45-.21.18-.06,1.1a1,1,0,0,0-.23.25c-.05.14,0,.3-.08.43a1.06,1.06,0,0,1-.22.29l0,.59-.49.75.17.23-.21.23.3.34a8.49,8.49,0,0,0,.88,0,7.69,7.69,0,0,0,.71-.37c.19-.13.34-.31.52-.45s.53-.64,1-.67l.92-.83a.91.91,0,0,0,.54-.22c.18.09.37.27.55.26s.39.19.61.3l.92-.41,1.75.11.23.24,1.59.1.16.17a.53.53,0,0,0,.2.07l1.69.11a4.92,4.92,0,0,0,.52-.48c.13-.17.15-.43.37-.53s.18-.39.35-.53a4.51,4.51,0,0,0,.51-.46c.07-.07.06-.21.11-.3a2,2,0,0,1,.45-.6c.39-.26.53-.7.86-1a4.61,4.61,0,0,0,.61-1c.18-.29.29-.55.69-.6.19,0,.34-.28.53-.39a4.27,4.27,0,0,1,.6-.21l.26.25.66,0c.13.27.47.21.62.44a1,1,0,0,0,.53.37.77.77,0,0,1,.31.44,14,14,0,0,0,.57,1.37l0,.52c.06.22.31.3.21.54a3.08,3.08,0,0,0,.62.39c.2.07.46,0,.59.26l1.08.07.79.52.63,0,.16.17c.19.18.55,0,.69.31l.79,0,.65.34c.06,0,.1.17.15.16.31,0,.53.2.8.3a2.31,2.31,0,0,1,1.1.64c.23.25.45.52.69.77s.2.63.51.84c.09.06,0,.31.15.38.3.21-.07.62.27.81,0,.29.27.49.25.81s.26.59.17,1a5.14,5.14,0,0,0-.06.85l.21.23-.14,2.24c.15.35.49.45,1,.68l.42,0,.26.26.31,0a.4.4,0,0,1,.2.07c.15.22.49.17.62.44l.63,0c.42.34,1,.31,1.35.75l.63,0c.19.09.25.35.51.27l.78.92.38.13a.75.75,0,0,0,0,.3c.36.5.44,1.13.79,1.67l-.06,1.1.22.27-.11,1.83.14.15a.66.66,0,0,1,.06.22l-.18,3.07-.23.2-.25,4.11-.26.23-.25,4.12-.25.22-.18,3-.22.19-.2,3.19-.25.24-.18,3-.15.12s-.09.08-.09.11c-.07,1.06-.13,2.13-.2,3.18l-.22.2-.14,2.29-.26.23-.12,2.06-.26.22L222.3,130l-.22.2-.12,2-.25.24-.13,2.06-.16.13s-.08.07-.08.1c-.05.83-.1,1.67-.15,2.49l-.23.21-.15,2.51-.26.23-.1,1.6-.23.2-.12,2-.25.26-.15,2.49-.25.24-.13,2-.17.16s-.07.05-.07.08l-.15,2.49-.23.21-.1,1.6-.26.22-.11,1.83-.23.21-.08,1.34-.25.26-.1,1.58-.25.24-.08,1.36-.17.15s-.07.06-.07.09c0,.38-.05.76-.07,1.12l-.23.2-.07,1.15-.26.22-.05.92-.23.2-.06.89-.25.25,0,.67-.25.24-.05.91c-.29.1-.19.47-.44.62-.07,0-.08.2-.07.31,0,.28-.33.37-.3.69s-.38.46-.26.8c-.24.14-.2.47-.42.62s0,.42-.19.62-.31.56-.48.82-.38.42-.53.68a2.86,2.86,0,0,1-.67.62l-.33.3h-.25c-.3.39-.85.43-1.18.84-.13,0-.37-.08-.42,0-.22.31-.56.1-.82.24l-.72.35-.61,0-.23.19-.91-.05-.26.23-1.14-.07-.23.2-1.1-.07a2.39,2.39,0,0,0-.89,1c-.11.17,0,.44-.2.61s-.13.43-.37.53-.17.4-.36.52-.34.47-.53.69a5.68,5.68,0,0,1-.68.61c-.23.2-.45.41-.69.6,0,0-.15,0-.2,0a7.05,7.05,0,0,1-1.62.82,3.64,3.64,0,0,0-.87.41c-.32-.17-.55.15-.83.18a1.26,1.26,0,0,0-.32.19l-.63,0-.28.22-.67,0-.26.22-1.14-.07-.17.16s-.07.06-.09.05l-2.72-.16c-.28.14-.31.44-.48.61s-.1.44-.34.55-.26.43-.45.6l-.67,0-.26.21-2.15-.13-1.06-.56c-.13-.41-.73,0-.79-.46l-.49,0-.24-.25-.45,0-.42-.47c-.39.1-.66-.37-1.16-.3l-.32-.49-.76,0-.24-.25-.68-.05-.18-.2a4.63,4.63,0,0,0-.86-.09,2.55,2.55,0,0,1-.63-.39c-.4-.4-.77-.85-1.14-1.27-.58-.19-.81-.76-1.22-1.13-.22-.21-.39-.51-.64-.62s-.38-.35-.57-.51-.34-.52-.69-.53c0,0-.05-.06-.08-.09a8.22,8.22,0,0,1-.82-1c-.23-.36-.75-.35-.91-.84l0-.28a2.32,2.32,0,0,0-.53-.94l-.45,0-.19-.21-.91-.06-.22-.25-.72-.07-.18-.21-.86-.05c-.26-.19-.47-.44-.73-.49s-.44-.38-.69-.53-.26,0-.34,0c-.23-.16-.55-.21-.71-.47s-.38-.22-.53-.36-.52-.24-.71-.5-.55-.31-.81-.49a4,4,0,0,1-.62-.67s-.15,0-.2,0c-.42-.34-.62-.89-1.16-1.05a3.19,3.19,0,0,1-.81-1.13.4.4,0,0,0-.49.23,1.51,1.51,0,0,1-.55.67c-.25.15-.23.47-.44.61s-.29.43-.45.61-.18.47-.42.63a1,1,0,0,0-.43.6c-.05.27-.29.4-.35.67s-.51.32-.49.69c-.45.29-.59.81-.88,1.22-.13.17-.12.43-.36.53s-.18.42-.36.52-.33.58-.61.77c0,.41-.42.48-.55.8a1.69,1.69,0,0,1-.52.8.72.72,0,0,0-.24.36,2.44,2.44,0,0,1-.39.63c-.13.17-.4.24-.35.53l-.61.53-.45,0-.26.21c-.32,0-.45-.43-.81-.28a.71.71,0,0,1-.18-.12c-.15-.16-.4-.34-.41-.52s-.23-.35-.23-.6-.19-.36-.2-.6a2.1,2.1,0,0,0-.31-.79,2,2,0,0,0-.26-.58c-.1-.12.1-.38-.07-.53s-.06-.43-.12-.63l-.18-.2.06-.87-.22-.3c.06-.06.19-.13.2-.21,0-.57.45-1,.67-1.44s.18-.39.07-.7a1.39,1.39,0,0,0-.45-.73l-.35,0s-.08,0-.1,0a2.11,2.11,0,0,1-.44.36c-.16.08-.37.05-.47.23s-.49.16-.67.36a.92.92,0,0,1-.56.31c-.24,0-.33.37-.65.4s-.34.36-.53.38a2.3,2.3,0,0,0-.79.32,5,5,0,0,1-.75.43c-.23.08-.46.19-.68.29a5.46,5.46,0,0,0-.78.35c-.22.15-.5-.08-.73.18s-.46.16-.68.26a6.14,6.14,0,0,1-.59.25c-.23.08-.43.3-.66.34s-.52,0-.72.21c-.25-.11-.36.23-.6.2-.09,0-.19.09-.35.18l-.56,0-.87.42-.61,0-.26.22-.91-.06-.27.22L133,174.7c-.06.06-.12.16-.18.15-.47,0-.88.31-1.38.22s-1-.07-1.43-.1l-.23.21-3.41-.21-.27.21-.27-.27-.44.22-.25-.26-.62.14v.09l-3.93-.24-.22.2-8-.48-.28.22-7.08-.43-.23-.24L103,174l-.2-.22-.72-.08-.17-.2-1.1-.07-.32-.27-.88-.06-.2-.22-.67,0-.25-.26-.89,0-.24-.25-.45,0-.23-.24L96,172c-.09-.07-.21-.24-.31-.23-.4,0-.65-.38-1-.31a.79.79,0,0,0-.69-.27c-.13-.25-.46-.21-.62-.42s-.51,0-.69-.28-.51,0-.69-.28-.42,0-.61-.2a2.1,2.1,0,0,0-.63-.39,1,1,0,0,0-.35,0l-.23-.25-.48,0c-.18.16-.47.31-.54.53a1.09,1.09,0,0,1-.39.52c-.21.16-.16.5-.44.61s-.16.41-.36.53-.29.42-.45.6-.12.42-.34.55-.43.3-.36.61l-.34,0c-.39.56-1.07.71-1.7,1l-.63,0L83.9,174l-.46,0c-.27-.36-.74-.41-1.08-.69-.15-.13-.36-.21-.52-.37s-.29-.41-.6-.47S81,172,80.66,172a.41.41,0,0,1-.25-.2,3.37,3.37,0,0,0-.84-.71,5.94,5.94,0,0,0-.75-.63c-.32-.17-.52-.55-.77-.83-.55-.16-.74-.72-1.2-1l-.14,0-2.79-3.16-.43,0c-.65.28-1.22.56-1.82.79-.14.05-.25.19-.37.2a.64.64,0,0,0-.63.51c0,.13-.16.23-.24.35s0,.08,0,.14c-.52.47-1.07.94-1.6,1.43-.22.2-.55.2-.76.43a8.07,8.07,0,0,1-.68.62l-.62.55a4.22,4.22,0,0,1-.66.26c-.29.05-.4.41-.64.4s-.38.2-.6.24-.42.29-.62.47-.56.15-.75.43a1.24,1.24,0,0,1-.64.4c-.27.08-.47.38-.7.58-.22-.08-.33.11-.49.19s-.24,0-.3.09a3.55,3.55,0,0,1-1.5.87,3.71,3.71,0,0,0-.74.44,5.13,5.13,0,0,1-.69.25c-.26.12-.51.27-.76.4-.3-.14-.42.34-.72.2-.18.26-.52.23-.76.4a3.51,3.51,0,0,1-.69.25c-.1,0-.21.17-.28.15-.29-.09-.48.18-.72.18a2.12,2.12,0,0,0-.62.18,7,7,0,0,0-1,.43c-.38-.11-.68.27-1.06.16-.24.36-.75,0-1,.4-.4-.19-.68.3-1.06.17l-.91.4c-.46-.17-.87.24-1.35.2-.22.2-.53.21-.77.36-.29-.13-.47.18-.72.19s-.34.29-.6.19-.35.23-.49.18c-.34-.12-.56.16-.83.22s-.37.23-.61.17-.35.31-.61.19a.57.57,0,0,1-.6.2c-.22,0-.35.29-.6.21a1.22,1.22,0,0,1-.88.36c-.31,0-.5.32-.83.21s-.34.31-.6.19c-.24.24-.59.25-.87.4-.32-.15-.51.31-.84.18-.17-.06-.28.18-.38.16-.26,0-.38.25-.6.23s-.34.32-.6.2-.38.17-.6.21-.64.36-1,.37-.58.36-1,.2c0,0-.18.12-.28.19l-.66,0-.26.22-1.15-.07-.18-.2a3.85,3.85,0,0,0-.86-.09c-.21-.13-.41-.27-.63-.38a2.37,2.37,0,0,1-.7-.52c-.16-.17-.43-.23-.61-.44s-.5-.27-.68-.53a4.3,4.3,0,0,0-.52-.61l-.23,0c-.12-.5-.52-.79-.85-1.21l-3.21-.19-.2-.23-1.35-.08-.24-.25-.45,0-.23-.24-.58,0a4.16,4.16,0,0,0-.93-.49c-.23,0-.37-.24-.57-.27s-.31-.21-.43-.34-.52-.24-.71-.51-.49-.28-.67-.54a7.8,7.8,0,0,0-.6-.69l-.61-.69-.61-.69c-.07-.15-.12-.32-.21-.48s-.33-.28-.31-.57c0-.14-.27-.27-.35-.43s-.1-.43-.3-.57-.16-.32-.21-.52c-.47-.1-1-.05-1.45-.13-.05-.06-.1-.17-.15-.17-.49,0-.83-.53-1.32-.34a2.84,2.84,0,0,0-.74-.5c-.29-.09-.48-.32-.76-.39-.32-.41-.85-.59-1.15-1a5.28,5.28,0,0,0-.83-.94c-.33-.31-.39-.8-.74-1.09s-.38-.7-.65-1-.25-.73-.51-1a4.28,4.28,0,0,1-.45-1A11.3,11.3,0,0,0,4,162.88c-.09-.13,0-.35-.05-.53l-.4-.44,0-.44-.22-.27,0-.69-.15-.15c-.12-.27,0-.53,0-.78L3,159.37l0-.63-.21-.32c-.11-.31.16-.72-.09-1s.08-.63-.27-.8a.45.45,0,0,1,0-.11l.06-1-.21-.26,0-.68-.22-.26.07-1.14L2,152.86l0-.72,0-.65-.19-.22L2,150.16l-.21-.3,0-.65-.21-.28.09-1.58-.22-.27c0-.45.06-.91.08-1.37l-.2-.22c0-.43.07-.92.06-1.4l-.19-.22.08-1.37L1,142.24l.09-1.6-.22-.25,0-.92-.19-.22.11-1.82-.22-.26.16-2.74-.2-.23c0-.66.1-1.37.1-2.09l-.19-.21.14-2.29-.23-.26.11-1.83-.2-.22.15-2.49-.22-.29.13-2-.22-.27.16-2.74-.15-.17s-.06-.06-.06-.09c0-.53.06-1.07.1-1.58l-.19-.22.19-3.15L0,113.92l.26-4.31-.2-.23L.94,95l.22-.23.08-1.34.18-.18c.16-.22.07-.49.12-.75l.22-.19.08-.72L2,91.41c.18-.25-.07-.62.21-.84s0-.62.37-.76a1.32,1.32,0,0,1,.3-.8c.13-.21.24-.43.36-.65s.27-.49.42-.73a.41.41,0,0,1,.12-.18c.28-.15.34-.47.53-.68A5.78,5.78,0,0,1,5,86.16c.2-.15.32-.43.63-.43s.38-.49.75-.42c.06,0,.13-.07.18-.11.21-.17.41-.35.61-.53.29.13.41-.29.71-.22.09,0,.23-.18.34-.29l0-.45.25-.24,0-.43.24-.24c0-.21,0-.45.05-.58a1.82,1.82,0,0,0,.3-.8c.34-.28.35-.79.71-1.06,0-.15,0-.31,0-.53l.48-.34,0-.4s0-.08,0-.1a3,3,0,0,0,.55-.67c.2-.31.64-.47.81-.79a2.87,2.87,0,0,1,.64-.74c.28-.26.58-.51.86-.76s.56-.16.75-.44a1.24,1.24,0,0,1,.64-.4c.27-.08.47-.38.7-.58.26.12.36-.21.6-.2s.35-.28.61-.19.41-.3.72-.19a2.22,2.22,0,0,0,.62,0l.23-.2.66,0,.29-.22.88,0c.4-.21.46-.64.88-1.13.33-.19.56-.83,1.06-1.22s1-.86,1.39-1.22l2.1-.92.82,0,.27-.22.44,0,.25-.19,2.29.13.42.48a1.14,1.14,0,0,1,.41,0,8.19,8.19,0,0,1,.76.5l.4,0c.21.2.34.51.69.53.1.23.38.18.53.35s.26.32.41.35c.36.07.39.59.81.54.15.27.52.25.69.52s.6.28.75.62c0,0,.06.09.07.08.32-.09.39.38.69.29.2.16.26.48.59.48.44.56,1.21.67,1.61,1.25l.24,0s.08,0,.08-.08c.07-1.06.13-2.13.2-3.2l.16-.14a.69.69,0,0,0,.09-.2c0-.65.08-1.3.12-1.93l-.2-.23.19-3.2L39,65.86l.1-1.57-.22-.3.06-1,.46-.32,0-.46.49-.8.41-6.78.26-.22.18-3,.23-.2L41.11,49l.25-.26.09-1.57.26-.24.11-1.83L42,45s.08-.06.08-.09c0-.53.06-1.06.1-1.58l.22-.2.1-1.6.26-.23,0-.69.23-.2,0-.65c.18-.16.22-.4.36-.54a.8.8,0,0,0,.18-.51.48.48,0,0,1,.09-.19c.14-.25.39-.49.39-.74s.25-.43.32-.68a2.65,2.65,0,0,1,.47-.71c-.07-.41.24-.67.39-1s.36-.61.54-.91l.54-.92c.13-.21.19-.48.44-.6s.12-.44.36-.54c0-.29.25-.43.44-.61s.12-.43.36-.53.21-.46.44-.61a1.43,1.43,0,0,0,.38-.52,3.93,3.93,0,0,1,.66-.62s0-.15,0-.22l2.07-1.83.24,0c.35-.32.71-.67,1.09-1s.38-.51.72-.52.39-.44.75-.44c.15,0,.34-.17.44-.32s.55-.22.74-.44.48-.19.66-.37a2.25,2.25,0,0,1,.75-.43c.22-.11.5-.13.65-.37s.41-.11.59-.27.47-.15.68-.26a4.26,4.26,0,0,0,.54-.41c.29.13.41-.34.71-.2.22-.13.33-.4.64-.44a2.31,2.31,0,0,0,.67-.29c.17-.08.34-.13.49-.22a3.08,3.08,0,0,0,.33-.3l.47,0c.14-.28.46-.17.67-.35a1.27,1.27,0,0,1,.58-.25c.32,0,.42-.29.64-.43l.45,0,.5-.42c.2,0,.37,0,.57-.07.62-.33,1.31-.53,1.93-.87.22-.13.46.09.63-.12s.45-.06.58-.29c.6.07,1-.49,1.65-.42.11,0,.25-.17.37-.18s.34-.31.61-.21.42-.3.71-.2c.16-.23.4-.14.61-.19s.37-.19.59-.23.21-.17.28-.15c.29.1.47-.19.72-.18a.64.64,0,0,0,.6-.21c.29.12.41-.29.73-.2s.39-.12.6-.17.23,0,.32,0,.45-.22.72-.36l.62,0,.27-.22.45,0,.18-.15A2.52,2.52,0,0,0,80.46,15l.75,0c.18-.39.72.11.84-.36l.5,0,.26-.22.45,0,.26-.21.58,0,1.35-.59.58,0,.27-.21c.26,0,.52.06.71-.2.29.14.42-.33.72-.19s.36-.25.61-.19a.56.56,0,0,0,.51-.15c.1-.07.28,0,.52,0l.28-.41.84.05c.19-.27.54-.2.77-.41.08-.07.29,0,.42,0l.48-.43a.94.94,0,0,0,.41,0,8.38,8.38,0,0,0,.82-.39l.39,0,.5-.42c.17,0,.36,0,.47,0,.61-.39,1.38-.46,1.89-1l.45,0c.23-.19.41-.46.75-.45.67-.41,1.45-.57,2.12-1,.28.06.38-.21.57-.31a1.46,1.46,0,0,1,.48-.21c.32-.07.55-.35.92-.29a.86.86,0,0,0,.48-.19A9.31,9.31,0,0,1,104,6.57l.36,0A2.2,2.2,0,0,1,105.84,6l.44-.39.49,0,.4-.45.61,0,.37-.43.53,0,.32-.43.57,0c.21-.32.59-.4.91-.57a1.56,1.56,0,0,1,.55-.07l.45-.4c.11,0,.31.08.4,0,.24-.18.58-.15.76-.4.36.17.62-.16.94-.21a2.9,2.9,0,0,0,.77-.38,1.26,1.26,0,0,1,.6-.18c.35.06.57-.45.91-.15l.56-.46.58,0a4.13,4.13,0,0,1,.77-.35c.24-.12.54-.08.82-.22s.5-.35.83-.2l.26-.21.68,0,.21-.19.92.06.26-.23,1.6.1.21-.19c.22-.13.56.17.68-.22l6,.36.23.23.66,0,.24.25,1.14.07.19.21.74.05c.35.17.51.24.66.33s.06.13.08.19c-.44,0-.87,0-1.31,0,0,0,0,.05-.06.08.23.25.57,0,.82.19s.31.33.53.09l0-.34,1.21.08.77.51.63,0,.19.22.41,0c.2.1.38.31.66.26,0,0,.08,0,.1,0,.29.46.94.55,1.14,1.12-.3.12-.6,0-.89,0,0-.37-.48-.16-.52-.47-.35,0-.47-.32-.68-.52l-.68,0c-.11-.22-.35-.23-.53-.35l-.61-.39-.9,0s-.06,0-.1.08c.23.24.55.08.6.1l1.43.86.61,0c.15.39.58.43.81.71l.57,0c0,.23.21.29.29.47l.56,0,.35.49c.27-.09.35.23.57.28a1.12,1.12,0,0,1,.63.37c.38.52,1.14.52,1.43,1.12ZM77.15,127.27c.18,0,.36,0,.22-.22-.06.06-.12.12-.09.18-.18,0-.35,0-.21.22C77.13,127.39,77.18,127.33,77.15,127.27ZM149.82,12.85c0-.18,0-.36-.22-.21.06,0,.12.11.18.08,0,.18,0,.35.22.21C149.94,12.88,149.88,12.82,149.82,12.85ZM111.4,134.54c0,.18,0,.36.22.21-.06-.05-.12-.11-.17-.08,0-.18,0-.36-.23-.21C111.28,134.51,111.34,134.57,111.4,134.54ZM144.54,8.27c0,.18,0,.36.22.21a.51.51,0,0,0-.2-.14c-.12-.25-.12-.25-.42-.16C144.21,8.42,144.42,8.28,144.54,8.27Zm-13.19,32c0,.18,0,.35.23.21a.59.59,0,0,0-.2-.15,1.62,1.62,0,0,1,0-.22.18.18,0,0,0-.16-.24c-.15,0-.3,0-.3.2-.06,0-.15,0-.18-.09s.09-.44-.12-.62-.07-.44-.29-.56c0-.47-.37-.56-.66-.75l0-.21a3.46,3.46,0,0,0-.53-.35,2.94,2.94,0,0,0-.6-.16c.33-.13.65-.2.73-.6,0-.2-.22-.28-.31-.44s-.14-.32-.21-.48h-.11a1.69,1.69,0,0,1,0-.23.18.18,0,0,0-.16-.24c-.15,0-.3,0-.3.21-.13,0-.29,0-.42-.1a4.92,4.92,0,0,0-.45-.28,6.17,6.17,0,0,1-.44-.47c0-.22.1-.42-.07-.6l-.73-.08-.28-.34.07-1.14.22-.25-.41-.18,0-.31a5,5,0,0,1-.54-.63c-.16-.24-.52-.15-.62-.44l-1.37-.08-.23.19-.29.06-.37.68.24.3-.35.31L121.9,32c-.22.16-.13.39-.11.61l.31.32.43,0,.33.35,0,.31a.63.63,0,0,1,.63.45l-.17.15c-.15.34,0,.75-.19,1l-.39.07-.09,1.48-.66.07,0,.37.68.61c0,.68-.07,1.29-.11,1.89,0,0,.05.06.09.1l.34,0,.07-1.22.38-.31a5.85,5.85,0,0,1-.08,2c-.14.17-.4.23-.44.56l.42.53-.46.41-.07,1.12a3.16,3.16,0,0,0-1.14,1.67l-.33,0,0,.49-.88.72c-.18.37,0,.58-.27.73l-.28-.06-.11-.42-.83,0c0-.42,0-.83.07-1.25,0,0,0-.06-.1-.13l-.35,0,0,.29c-.16.14-.34.28-.5.44s-.36.24-.46.52l1.36.09c0,.45-.05.91-.09,1.37,0,.06-.06.13-.09.19l-.39.1,0,.49-.35.31h-.22c-.15.32-.45.57-.42,1,0,0-.1.09-.16.14l-.23,0-.12-.4a1.14,1.14,0,0,0-.85,0l.21.26-.38.33-.42-.71s-.08.05-.08.08c0,.37,0,.75-.07,1.13l-.51.47-.07,1.12c-.14.18-.37.25-.43.48.16.14.36.06.54.1s.39-.05.55.14c0,.39-.05.8-.08,1.19l-.46.13v.28a7.8,7.8,0,0,0-.76.66c-.25.26-.69.38-.71.83-.27.18-.43.54-.84.55l-.19-.5-.62.54,0,.46-.62.54a6.57,6.57,0,0,0-.78,0c-.29,0-.59-.12-.83,0a1.27,1.27,0,0,0-.43.57c-.11.25-.44.21-.64.37l-.06.91c-.08.08-.16.16-.14.13-.21.35,0,.64-.26.88l-2.26-.14s-.06,0-.09-.06c-.16-.27.14-.6-.11-.87l-2.51-.14s-.06,0-.13.09l0,.69-.71.63-.09.37-.76-.05c-.23.23,0,.54-.31.74s-.24.42-.34.64l.23.4-.53.86-.06.88c.19.09.23.39.56.34l.29-.52.1.75.38.12-.05.72c-.07.1-.16.21-.23.33s-.16.24-.26.41L100.78,68c-.12.46-.51.47-.51.93l.45.32-.06,1.14,1,.07a.82.82,0,0,0,.22,0s.06-.05.1-.08l-.45-.25,0-.24.38-.33c.45.1.94,0,1.4.14.17.39-.18.45-.34.63s-.37-.11-.56.08c0,.24,0,.51,0,.77a2.8,2.8,0,0,1-.1.9l-.43.35c0,.27.06.55-.13.78l-.32.06s-.06.05-.06.08c-.06,1-.12,2-.19,3.07l.4.29c0,.29,0,.46.06.58.19.3.24.7.58.9l0,.47c.22.18.62.21.63.54s.41.47.65.66v.22c.18.33.56.51.68,1l-.5.25-.08,1.25.39.83,0,.78-.79,1.28,0,.57-.23.26,0,.61a9.92,9.92,0,0,0-.69,1.08c-.17.22,0,.59-.33.78-.08,0,0,.28,0,.41l-.46.4c-.06.43-.06.43-.29.69l-.05,1c-.33.07-.23.5-.52.66l0,.66-.22.2-.06,1c-.44.13-.1.68-.54.84l0,.94-.22.2-.06.9L99,96.8l0,.44-.22.23.21.28,0,.66.4.45c-.14.35.18.61.21.93a.45.45,0,0,0,.39.35c.1-.5,0-1,.14-1.47l.21-.19,0-.89.28-.31.1-1.53.21-.26c0-.26,0-.5.11-.7l.18-.16c0-.26,0-.53,0-.79a1.08,1.08,0,0,1,.08-.19l.17-.16,0-.44.25-.25,0-.79.46-.25,0-.71.24-.24,0-.43.25-.24,0-.52.49-.34,0-.85.47-.25,0-.55.78-.55a9,9,0,0,1,.87-1.73c.12-.18.12-.44.36-.53s.19-.48.44-.61c0-.32.38-.45.51-.69a4.1,4.1,0,0,0,.39-.75c.36-.23.45-.65.69-1a7.64,7.64,0,0,0,.74-1l0-.4a2.11,2.11,0,0,0,.41-.34c.14-.19.21-.45.35-.65s.36-.73.72-.92c.07-.19,0-.4.12-.55l.31-.06a6.39,6.39,0,0,1,1.1-1.69l0-.39c.34-.16.43-.56.69-.81a4.07,4.07,0,0,0,.58-.9c.1-.18.21-.36.32-.54s.39-.3.46-.61.39-.29.48-.59.32-.38.47-.54l0-.42c.34-.16.42-.56.68-.81a5.42,5.42,0,0,0,.58-.89,5.33,5.33,0,0,1,.64-.88,3.18,3.18,0,0,0,.54-.91,2.45,2.45,0,0,1,.56-.68l0-.44c.43-.31.6-.84,1-1.17,0-.37.45-.37.5-.69s.47-.4.74-.57a2.43,2.43,0,0,0,.34-.3l.57,0,.68-.67,2.85.17.44-.2c.22.09.28.35.53.27l.25-.2,4.34.26.23.24c.44,0,.72.3,1.07.47a1.31,1.31,0,0,1,.8.84.67.67,0,0,0,.25.35c.21.15.1.42.28.59s.31.22.3.45.3.34.21.6c.4.6.47,1.37,1,1.89,0,.33.32.59.19.92.13.24.35.36.43.66a4.73,4.73,0,0,0,.46,1.06c.12.22.12.49.34.68a1,1,0,0,1,.35.65c0,.28.32.42.24.71,0,0,0,.06.06.09a1.53,1.53,0,0,1,.45.74,3,3,0,0,0,.32.78c.31.49.33,1.13.81,1.48,0,.21-.1.41.07.57s.07.44.29.57.2.38.3.57.25.69.58.9l0,.48a2.53,2.53,0,0,1,.61,1,4.51,4.51,0,0,0,.83,1.58,1.33,1.33,0,0,0,0,.26,15.24,15.24,0,0,0,.81,1.85,5,5,0,0,1,.4.76.89.89,0,0,1,0,.4l.43.48,0,.44.44.53,0,.45c.4.31.44.86.81,1.15a1.89,1.89,0,0,0,.08.56c.42.82.66,1.72,1.13,2.52a.52.52,0,0,0,.21.48c-.11.26.25.37.19.61s.09.41.19.61.11.41.21.59a4.05,4.05,0,0,0,.41.57l0,.42.22.26,0,.38c.12.26.21.46.29.65l.52.07.14.51c.28-.46.08-.94.24-1.32l.21-.25c0-.26,0-.49.1-.7l.18-.16.08-1.29.78-1.28,0-.51c.24-.44.55-.72.52-1.18l.24-.23.05-.9.51-.48c0-.52.07-1,.1-1.58,0,0,.06,0,.09-.08h.11l.24-.06.06-.92.28-.31.09-1.54c.33-.35.41-.81.73-1.11,0,0,0-.07,0-.11l0-.33-.24-.29c0-.44.06-.9.08-1.35,0,0,0-.06-.06-.07L151,81c-.12-.54.14-1.06,0-1.57h-.27l-.3-.68,0-.54c-.13-.25-.23-.48-.35-.7s.08-.6-.24-.82c-.06-.05,0-.29,0-.41l-.44-.5.06-1-.65-.66c.11-.26-.13-.35-.18-.51a3.12,3.12,0,0,0,0-1l-.28.21c-.24-.19,0-.49-.19-.72s-.2-.45-.36-.65c.18,0,.36,0,.22-.23a.59.59,0,0,0-.15.2c-.24,0-.27-.24-.43-.35l.23-.24-.44-.24c.1-.24-.12-.34-.2-.5s.13-.52,0-.76l-.35-.1c.11-.45-.27-.81-.21-1.26,0,0-.12-.06-.18-.09,0-.29-.34-.39-.42-.64s-.12-.4-.2-.6-.21-.44-.32-.65c-.29,0-.37-.24-.53-.38l0-.45-.52-.59-.32-.08c0-.3-.09-.56.24-.74a1.82,1.82,0,0,0-.29-.32c-.2-.12-.08-.36-.2-.48l-.39-.15,0-.49a5.62,5.62,0,0,1-.46-.53c-.12-.17-.2-.36-.29-.51l-.31-.13c0-.24.09-.47-.12-.66s-.07-.33-.2-.5-.08-.4-.11-.6l-.6-.09v-.79l-.62-.7c0-.47-.37-.56-.66-.77l0-.62-.49-.29.31-.53-.82-.1c-.08-.16-.23-.26-.3-.46a4,4,0,0,0-.81-1.56l0-.47-.87-1,0-.67a2.48,2.48,0,0,1-.68-1.22l-.3-.1c-.06-.35-.36-.64-.26-1l-.61-.69c.06-.36-.39-.49-.41-.75s-.36-.46-.43-.74.1-.38-.09-.52-.39.06-.55-.14v-.73c-.28-.32-.53-.61-.79-.89a3,3,0,0,1-.5-1.05.14.14,0,0,0-.08-.09c-.3-.15-.31-.5-.42-.75s-.36-.56-.26-.92c-.17-.27-.21-.61-.45-.85s-.36-.28-.38-.52v-.25l.26.17C131.25,40.3,131.31,40.32,131.35,40.29Zm25.92,49.82h-.46v.44c.23-.12.4-.22.38-.41.18,0,.36,0,.22-.22A.47.47,0,0,0,157.27,90.11ZM135.6,99c.12-.1.24-.16.25-.22s.1-.36-.06-.52c-.25.17-.11.45-.1.65-.18,0-.36,0-.22.22ZM91.73,85.28c0-.18,0-.36-.23-.21a1,1,0,0,0,.2.15.62.62,0,0,0,.35.45c.14-.16.16-.3,0-.44A.47.47,0,0,0,91.73,85.28Zm61.8,55.09,0-.45a.18.18,0,0,0,.23-.15,4.55,4.55,0,0,0,0-.52l.23-.09.2-3.22.25-.22.06-.92.21-.19a.83.83,0,0,0-.05-.59l-.36,0,0,.5-.24.24-.27,4.44c-.16,0-.35-.11-.47.15.31.08.2.32.2.53a.18.18,0,0,0-.24.16c0,.15,0,.3.19.09,0,.51-.1.82.12,1.11C153.66,141,153.84,140.69,153.53,140.37ZM186.2,78.56a.7.7,0,0,0-.5.42l.11.25.37-.32a.59.59,0,0,0-.05-.33c.18,0,.36,0,.21-.22A.72.72,0,0,0,186.2,78.56Zm-94-66.06.6,0c0-.19.33-.17.34-.44l.57,0,.25-.21.42,0c.35-.22.77-.28,1-.63a2.89,2.89,0,0,0,.39,0c.06,0,.12-.05.19-.08.45-.18.88-.41,1.35-.55,0,0,.06-.12.09-.18l.34,0,.26-.22.3,0,.29-.35a7.29,7.29,0,0,0,2.08-.82c-.24,0-.46-.19-.71,0s-.43.08-.56.28a.69.69,0,0,0-.71.19c-.37-.07-.46.34-.68.4s-.36,0-.51,0-.06,0-.08.06l0,.35-.84,0-.41.43-.43,0c-.4.2-.8.31-1,.61-.21,0-.41-.06-.49,0-.31.26-.74.24-1,.48,0,0,0,.07,0,.11-.37-.1-.61.23-.93.3,0,0,0,.06,0,.1a.82.82,0,0,0-.31,0c-.07,0-.11.14-.16.21l-.59,0a.6.6,0,0,1-.46.22.42.42,0,0,0-.32.35s.08.07.1.07a4,4,0,0,0,1.27-.61.77.77,0,0,0,.3,0C92.13,12.68,92.17,12.57,92.22,12.5Zm-73.64,102c.21,0,.33-.2.47-.38l-.08-.28-.35,0a4.26,4.26,0,0,0,0,.62c-.18,0-.36,0-.21.23A2.18,2.18,0,0,0,18.58,114.5ZM127.27,32c0,.19,0,.36.22.22a.59.59,0,0,0-.2-.15c0-.23-.21-.3-.3-.45a.65.65,0,0,0-.58.08C126.73,31.78,126.92,32.13,127.27,32ZM79.59,148.73c0,.31,0,.61-.07,1-.26-.21-.41,0-.58.13l-.22-.22c-.24-.11-.33.14-.73.26,0,0-.29-.23-.54,0l0,.32,1.24.07c.23-.25.73-.16.82-.61,0,0,.1,0,.11,0a.82.82,0,0,0,0-.91h-.1a.56.56,0,0,0-.49-.49c-.19.11-.38.21-.36.42-.18,0-.36,0-.22.22a.59.59,0,0,0,.15-.2ZM199.35,153l-.46,0,0-.51.53-.84-.56-.39.35-.45.06-.49c1,0,1,0,1.12.13a3.54,3.54,0,0,0,0,.46c0,.18-.11.37,0,.54l.42.16-.5.22,0,.44.3.37.7,0a1,1,0,0,0,.45-.62l.52,0,.64-1.1,0-.57.49-.43.09-1.61c.19-.12.32-.1.43,0,0,.57-.11,1.13-.05,1.65l.18.21-.19,3.2.22.27c0,.45,0,.9-.08,1.36,0,0,0,.06.09.1.28-.16,0-.61.35-.72l.14-1,.43-.38c.08-.41,0-.83.12-1.19l.21-.19.07-1.13c.14-.1.22-.28.41-.28,0,0,.06.06.06.09-.05.92-.11,1.83-.16,2.75.43.28.43.86.84,1.15l0,.74c.4.17.37.66.64,1l-.1,1.64a2.15,2.15,0,0,0,.77,1.21c.5,0,1,.07,1.49.09.06,0,.12-.07.18-.11l0-.32a2.53,2.53,0,0,1,.75-1,1.39,1.39,0,0,1,0-.38c0-.1.17-.16.21-.26s0-.3.06-.44.15-.16.21-.23c.11-.25,0-.54.16-.79l.16-.12.06-1.15.26-.24.08-1.35.22-.2.08-1.37.26-.23.1-1.6.25-.23.21-3.43.22-.19L213,143l-.2-.25a1.44,1.44,0,0,1,.15-.81l.19.48h.34l.09-.76.24-.27-.36-.09-.26.46a.64.64,0,0,1-.09-.22c0-.64.07-1.29.12-1.94,0,0,.09-.07.17-.13l.06.37.64.36c0-.69.08-1.33.12-1.94l.24-.21,0-.66.23-.25.05-.84-.22-.49c.3-.15.59-.22.76-.48l.08-1.36.26-.24.09-1.58.21-.19.07-1.19-.17-.19.06-1,.22-.19c0-.21,0-.43,0-.66a2,2,0,0,1,.1-.77l.18-.16c0-.52.07-1.06.1-1.59,0,0,0,0,.11-.12l.13-.1.1-1.6-.21-.25,0-.46.22-.2.06-.92.25-.22.07-1.12.23-.26-.23-.25.07-1.15-.18-.2.25-.24.16-2.73c.29-.2.33-.56.61-.79s.35-.6.56-.88.06-.29.1-.46l.68,0v-.4l-.26-.05c-.18.11-.37.2-.42.43-.19,0-.21-.18-.35-.23l-.34.3,0,.45c-.18.26-.49.31-.73.46s-.39.38-.61.51-.29.52-.53.69-.26.45-.45.6a2.44,2.44,0,0,0-.51.66l-.32.07-.07.57-.54,0-.37.28c-.06.21.05.42-.15.58l-.27,0c-.22-.32.12-.4.21-.65l0-.59.45-.4,0-.43c.14-.23.41-.31.52-.59a2.54,2.54,0,0,1,.47-.59c0-.18,0-.37.15-.52s.14-.39.1-.6l-.15-.18c0-.18-.05-.37.12-.57l.72,0a3,3,0,0,1,.89-1.26c-.1-.34.13-.67-.08-1l-.36.32,0,.45c-.27.1-.16.49-.52.58l-.32-.25-.32.24c-.08.3,0,.51-.2.63l-.44,0c-.15.17-.41.25-.37.54-.22.11-.24.35-.35.54s-.49.13-.65.4l0,.6-.31.31-.32.06-.42.8-.33.07c-.12.12,0,.35-.25.46s-.28.19-.3.31a.58.58,0,0,1-.32.43,2.32,2.32,0,0,0-.69,1,.87.87,0,0,1-.68.48,6.07,6.07,0,0,1-.79,1.26c-.14.24-.38.35-.5.58s0,.36-.14.52a1.29,1.29,0,0,0-.27.45c-.21.49-.69.85-.67,1.45-.28.14-.24.53-.51.7l-.07,1.12c-.32.14-.18.47-.3.69s-.28.41-.45.66,0,.77-.1,1.13l-.17.15c-.14.44,0,.87-.18,1.25l-.41.12-.14,2.3-.25.25,0,.42-.22.24.19.2a.86.86,0,0,1,0,.32c-.14.28-.3.56-.51.92l0,.56-.3.34.23.38L204,136l-.08,1.38c-.51,0-.73.49-1.1.69l-.3-.09.12-1.87.25-.26.15-2.49.23-.2.08-1.35.28-.31.11-1.78.19-.18.07-.49.22-.2.06-.9.25-.24.06-1.07.49-.24.07-1.18.45-.4.07-.49.22-.19,0-.44-.22-.33c.05-.28.26-.34.38-.48l.08.07c.11.43-.14.88.06,1.34l.4-.67c0-.73.09-1.57.14-2.4,0,0,.05-.06.07-.09l.1-.09c.16-.23,0-.45.18-.59l.32-.06a1.24,1.24,0,0,1,.35-.56l0-.65.48-.43.07-1.12c.27-.37.75-.3,1-.68l.11-1.7a3.51,3.51,0,0,0,.24-.46c.05-.13,0-.31.11-.39l.38,0a1.64,1.64,0,0,1,0-.46,1,1,0,0,1,.21-.29l0-.7-.21-.24.76-.57,0-.66.8-1.35-.52-.61.56-.33,0-.79.69-.34c0-.25,0-.52.05-.78a4.17,4.17,0,0,1,0-.78l.72-.43,0-.73c.31-.14.22-.45.32-.75.42,0,.37-.55.67-.77,0,0,0-.07,0-.11l0-.57a12.23,12.23,0,0,0,1.36-2.51l.41-.12-.22-.28c0-.18.11-.37-.09-.58l-1.44-.09c0-.53.06-1,0-1.5-.18-.2-.36-.39-.53-.6a.66.66,0,0,1,0-.15l.19-.17c.06-.87.11-1.74.16-2.62a1.5,1.5,0,0,0-.06-.22l-.14-.14.18-3,.27-.33-.32-.73-.46,0c-.12-.18-.37-.29-.25-.49l.28-.45.21.24.52,0c.28-.29-.07-.41-.11-.59s.1-.39-.13-.58l-.45.21-.18-.43c-.26-.11-.34.16-.42.17l-.75,0-.17-.19-.53,0-.15.35c-.32.13-.6.21-.84.34a.62.62,0,0,0-.31.43c-.11.36-.58.29-.8.53,0,0,0,0-.08,0l-.15-.18-.69,0-.51.43-.42,0-.63.52v.26l-.43.13c-.12.46-.05,1-.15,1.44a1.41,1.41,0,0,0-.7.42l-.05.9-.39.32-.45,0a7.17,7.17,0,0,0-.35.67c-.13.3-.44.41-.63.64l-.45,0-.35.31,0,.67-1.15,1h-.19l-.6.54,0,.68.18.22-.34.57-.2-.21-.88.72,0,.61c-.37.62-.72,1.16-1,1.73-.1.21-.31.38-.3.69a1,1,0,0,1-.35.63,2.67,2.67,0,0,0-.65,1c0,.1-.15.17-.23.26a7.72,7.72,0,0,0-.06.92l.22.26-.41.11-.44.84-.33,0a1.7,1.7,0,0,1-.31.88c-.16.22-.39.46-.29.8a.63.63,0,0,0-.28.46c0,.05-.26.07-.38.14a3.08,3.08,0,0,0-.33.3l0,.9-.71.62v.24l-.41.33-.89-.06c-.51.91-1,1.77-1.5,2.63a2.79,2.79,0,0,0-1.05.17c-.45.11-.44.56-.74.77l-.08,1.36a1.37,1.37,0,0,1,.27.61l.72,0c0,.08.1.11.1.14l-.06.89-.25.25-.06.9-.22.2-.06.89-.27.31-.06.87-.19.17-.09.73-.21.19-.07,1.14-.25.24-.06.89-.25.25-.12,2-.23.2-.08,1.34-.28.31-.15,2.48-.22.19c-.08,1.35-.16,2.72-.25,4.09,0,0,0,.05-.06.08l-.18.16c-.08,1.36-.16,2.73-.25,4.1,0,0-.05.06-.08.08l-.16.16-.2,3.19-.25.24-.11,1.81-.22.2-.13,2.06-.25.23-.21,3.42-.22.19a.43.43,0,0,0,0,.11l-.18,2.85s0,.06-.06.09l-.18.16-.09,1.36s-.05.05-.11.12l-.13.11-.07,1.14-.25.24-.21,3.41-.2.19-.46,7.48c.08.24.19.38.16.5s.19.4.2.61.17.32.28.46.14,0,.28.08c.13-.17.15-.45.38-.59l0-.58.37-.63.45,0,.27-.22.48,0a1.19,1.19,0,0,1,.17-.38c.1-.12.21-.21.18-.38l1.7-1.5,0-.26,1.65-.7.58,0c.18-.22.2-.56.61-.66l.52,0c.55-.29,1.08-.44,1.55-.69l-.23-.36,3.06.18c.06,0,.13-.06.19-.09l0-.24.48-.19c-.08-.25.16-.32.25-.48a.84.84,0,0,1,.29-.7l.06-1.08.26-.28.06-1.07.22-.26c0-.27,0-.5.11-.71l.17-.15.09-1.36.25-.25.13-2.19.49-.26.07-1.19.22-.07.19.38c.06.47-.16,1,0,1.43h.15a17.17,17.17,0,0,0,0-1.75c.18,0,.36,0,.21-.22A.55.55,0,0,0,199.35,153ZM25.42,126.19c.32-.09.48-.37.7-.55.05,0,0-.2,0-.3-.24,0-.46-.17-.65,0l0,.79H25l0,.47.42-.09ZM86.58,14.68l.83.05.42-.43h.27c.09-.13.29-.18.31-.37,0,0-.07-.07-.09-.07a7.78,7.78,0,0,0-1.74.81h-.23a.17.17,0,0,0-.23.15c0,.16,0,.31.2.3,0,0,0,.1,0,.11s-.31.13-.46.21-.21.27-.41.28a1.52,1.52,0,0,1-.06-.2c0-.07,0-.15,0-.2.18,0,.35,0,.21-.22a1,1,0,0,0-.15.2l-.33,0-.26.21c-.19,0-.38-.1-.57.08l.46.25-.64.28-.17-.19c-.18,0-.37-.1-.54,0l-.16.61-.72,0-.27.22-.45,0c-.18.36-.58.06-.8.28l.2.26c-.24.2-.51,0-.75.1-.76.18-1.37.76-2.2.77a2.74,2.74,0,0,1-.73.46,9.54,9.54,0,0,0-1.27.55c-.34.22-.75.17-1.11.36a2.58,2.58,0,0,1-1.08.41c-.19.25-.46.23-.8.19l-.35.41a5.7,5.7,0,0,0-1.8.6l-.34,0a1.83,1.83,0,0,1-1.13.6c-.24,0-.41.2-.6.2s-.36.23-.61.23-.35.26-.53.41l-.53,0-.35.42h-.5c-.25.16-.36.47-.69.41-.38.27-.87.33-1.24.61a.44.44,0,0,0-.47.24c-.16.21-.42.12-.59.28s-.44.07-.56.3c-.33-.07-.44.31-.66.34-.43.06-.62.53-1.06.53a4.61,4.61,0,0,1-1,.69,4.49,4.49,0,0,0-1,.81l-.52.46c-.57.5-1.12,1-1.72,1.51s-.91,1.19-1.55,1.6c-.06,0-.15.11-.15.16,0,.29-.24.36-.38.53s-.34.24-.4.51-.3.32-.47.49l0,.34-.72.63,0,.34c-.17.21-.42.29-.47.53s-.37.36-.51.61l0,.43a2.78,2.78,0,0,0-.75,1,7.51,7.51,0,0,1-.75,1.17c0,.61-.6,1-.6,1.59-.26.12-.16.5-.45.61l0,.62-.53.8,0,.62c-.44.34-.4.93-.79,1.39l0,.64-.21.19,0,.62-.52.8,0,.62-.23.2,0,.92-.26.23-.07,1.14-.26.23,0,.69-.21.18-.1,1.6-.25.24L46,52.5l-.23.2-.06,1-.07,1.1-.2.18a20.27,20.27,0,0,0-.2,4.46l2.71-1.18.59,0c.19-.38.68,0,.88-.36l.77,0,.22-.19.91,0,.22-.19h.72l.22-.19.8,0a.76.76,0,0,0,.2-.06l.18-.15.67,0L54.5,57l.92.05.23-.2.51,0,.23-.2,1.14.07.26-.23.91.05.22-.19.45,0,.27-.22.89.06.28-.22.67,0,.22-.21.75,0a.84.84,0,0,0,.62-.15c.19-.13.53.07.73-.25l.94,0,.21-.19.91.06.27-.22.43,0,.28-.21,1.12.06.23-.2.92.06.25-.23.92,0,.19-.17c.28-.07.54.09.81-.06l.15-.14,1.14.07.27-.22.67,0,.23-.2.91.06.26-.23.68,0,.23-.2,1.12.07.28-.22.44,0,.27-.22.9.05.27-.22.91.06c.18-.36.55-.1.8-.28.41-.28.88,0,1.27-.08l.27-.18c.27,0,.5.08.72,0l.17-.15.9.05.27-.22.45,0,.26-.21,1,.06h.11l.19-.17h1c.2-.36.69,0,.89-.37l.9.06.27-.22.68,0,.27-.22.89.05.27-.21a.87.87,0,0,0,.75-.2l.86.06.21-.19h.72l.21-.19,1.08.07.85-.42.85,0,.28-.22.82,0,.85-.4,1,.07.27-.21.66,0,.27-.22.68,0,.26-.22.67,0,.28-.22.68,0c.2-.19.49-.35.55-.57s.31-.31.3-.56.22-.26.28-.46.41-.31.43-.48.29-.34.3-.57a.27.27,0,0,1,.1-.19,2.93,2.93,0,0,0,.66-1,6.1,6.1,0,0,1,.61-1c.23-.24.33-.57.59-.78,0-.38.41-.49.56-.79a8.9,8.9,0,0,1,.78-1.38,13.48,13.48,0,0,0,.9-1.33c.07-.12.1-.29.19-.37a3.62,3.62,0,0,0,.68-1c.21-.33.39-.67.58-1s.38-.24.42-.5.32-.31.29-.57c.33-.25.32-.74.64-1s.31-.59.58-.79c0-.28.28-.39.33-.67s.38-.28.47-.59.35-.37.55-.55l1.46-1.29.31-.06.16-.39h.31l.63-.6a1.78,1.78,0,0,1,.36-.25,5.17,5.17,0,0,0,.69-.26,5.06,5.06,0,0,0,.62-.59,2,2,0,0,0,1.33-.4l1.07.07c.18-.27.42-.17.65-.17l.26-.21.68,0,.23.25.44,0,.24.25c.44-.08.72.37,1.14.33.13.14.26.28.38.43l.53.07.12.44h.24c.16.17.29.4.48.48.45.19.66.59,1,.92-.06.33.34.42.37.65a1.06,1.06,0,0,0,.39.65c.21.18.2.48.37.65.49.48.67,1.17,1.19,1.61a.71.71,0,0,1,.21.38c0,.16.21.29.31.45s.13.33.22.48a1.74,1.74,0,0,1,.31.57c0,.23.33.41.51.61s.07.43.29.57.23.59.49.85a2.7,2.7,0,0,1,.45.95h.26c0,.1,0,.21.06.31.09.27.49.38.41.75.25.23.22.62.51.84.13.09.14.32.23.47s.21.3.3.46a3.58,3.58,0,0,1,.2.49c0,.06,0,.16.08.19.35.25.36.71.65,1s.28.8.58,1.14.24.75.52,1.05c0,.34.26.51.44.75l0,.49c.41.18.41.64.63,1s.15.62.39.87c.09.1.22.18.24.36a1.84,1.84,0,0,0,.19.49,2.23,2.23,0,0,0,.52.94l.91.06.24.25.67,0,.19.22.92.06.23.26,1.14.07.2.22.89.06.26.25.43,0,.24.26.9,0,.25.25.91.06c.13.38.53.16.76.37s.88.06,1.25.23l.28.24c.23.06.47-.07.67.07l.16.18c.32,0,.67,0,1,.08l.18.23.69,0,.24.25.89.05.26.26c.52-.16.87.33,1.35.34.06,0,.11.11.19.21l.92.06.19.21c.33,0,.67,0,.93.08l.22.23.9.06.23.24c.23,0,.48,0,.61.21,0,0,.06,0,.09.06.4,0,.84-.06,1.15.3.4-.08.63.41,1,.29L162,59c.32,0,.66,0,.92.07l.22.24.44,0,.25.26.9.05c.15.4.69.08.84.47l.88.1.79.49.61,0,.24.26.68,0c.32.23.71.31,1,.51.47-.08.79.35,1.23.37.06,0,.11.1.16.17l.67,0,.25.25.44,0,.24.25.44,0,.25.25.65,0,.27.25.64,0c.66.45.66.45,1.1.51l.23.24.67,0,.24.25.67,0,.21.24.38,0,.54,0,.19.21,1,.13c.16.37.68.07.83.47l.68,0,.24.25.91,0,.24.25.56,0a3,3,0,0,0,.47.24c.1,0,.24,0,.32.07s.19.23.37.21h.31l.55-.49a2.36,2.36,0,0,1,.78-1.12l0-.38,1-.85a.51.51,0,0,1,.26-.53l.39-6.51a.53.53,0,0,0-.05-.2L188,56.3v-.12l.07-1-.22-.27,0-.88a1.2,1.2,0,0,1-.2-.3c0-.14,0-.31,0-.44s-.22-.21-.17-.39a.65.65,0,0,0-.16-.51c-.07-.1,0-.29,0-.43a1,1,0,0,0-.2-.29v-.47L187,51l0-.46c-.17-.58-.66-1-.62-1.69l-.39-.43c.12-.39-.12-.71-.27-1s-.12-.48-.34-.68A1.21,1.21,0,0,1,185,46a5.52,5.52,0,0,0-.31-.8,2.73,2.73,0,0,0-.48-.84c-.12-.16-.12-.43-.31-.56s-.11-.41-.28-.58-.08-.44-.3-.56-.15-.41-.29-.58-.56-.62-.83-.94a4.38,4.38,0,0,1-.77-1c-.17-.41-.53-.62-.72-1l-.33-.09a.61.61,0,0,0-.29-.57,2.38,2.38,0,0,1-.83-.71l0-.32c-.31.08-.44-.17-.61-.36s-.41-.45-.61-.68l-.61-.69a7.8,7.8,0,0,1-.6-.69c-.18-.26-.51-.28-.69-.52a6.57,6.57,0,0,0-.61-.68c-.24-.23-.52-.4-.75-.63a3.54,3.54,0,0,0-.68-.53c-.31-.18-.47-.54-.84-.71s-.51-.6-.91-.78c-.25-.12-.39-.52-.64-.61a1.15,1.15,0,0,1-.57-.51c-.19-.27-.56-.22-.7-.52s-.53-.24-.69-.53-.79-.54-1.06-.95c-.39.05-.41-.43-.7-.49s-.45-.38-.66-.58-.21-.2-.38-.18c-.2-.34-.62-.42-.83-.7s-.65-.35-.86-.69c-.1-.17-.42-.13-.52-.36s-.36-.24-.54-.35a2.5,2.5,0,0,1-.68-.53c-.13-.17-.43-.13-.53-.37s-.39-.19-.52-.36-.45-.11-.54-.35c-.54,0-.88-.47-1.37-.58-.11-.22-.36-.23-.54-.35a3.12,3.12,0,0,0-.62-.4c-.2-.07-.46,0-.59-.24-.5,0-.84-.36-1.25-.57a4.23,4.23,0,0,0-.47-.25c-.23-.09-.38-.33-.69-.29s-.32-.25-.56-.3-.39-.3-.61-.42a1.3,1.3,0,0,0-.44-.06l-.4-.48-.45,0-1.24-.76c-.29.06-.47-.16-.69-.27s-.51-.18-.64-.36-.51-.07-.71-.26a2.94,2.94,0,0,0-.62-.42c-.22-.12-.54-.15-.65-.33s-.58-.07-.79-.35-.43-.23-.64-.37a1.26,1.26,0,0,0-.79-.29c-.21-.28-.58-.3-.82-.5s-.55-.21-.7-.49c-.33.08-.57-.13-.81-.28a1.27,1.27,0,0,0-.79-.3c-.18-.25-.48-.31-.72-.48s-.5-.26-.72-.43-.65.05-.78-.35c-.31,0-.45-.44-.8-.28a1.59,1.59,0,0,0-.69-.29c-.22,0-.42-.25-.63-.38l-.18-.11-.58,0c-.15-.28-.54-.23-.69-.5l-.57,0-.11,0a.34.34,0,0,1-.08-.09c-.17-.29-.61,0-.77-.36,0-.06-.21-.05-.31-.06s-.39,0-.52-.16-.44,0-.61-.2l-.13-.15c-.26-.11-.55,0-.8-.16l-.13-.16-1.14-.07-.24-.25-.67,0-.2-.22-1.6-.1-.2-.23-8-.49-.23.21-2.52-.15-.21.19c-.26,0-.52-.09-.78,0l-.16.15-1.6-.09-.27.22-1.13-.07-.21.19h-.7l-.31.22L113,9.42l-.28.19c-.27,0-.49-.08-.71,0l-.18.15-.9,0-.27.22-.45,0-.27.22-1.12-.07-.23.2-.91-.06-.26.23-.65,0-.31.2c-.27,0-.49-.08-.71,0l-.18.16-1.13-.07-.27.22-.44,0-.28.22-.65,0-.27.21c-.21,0-.4,0-.59,0s-.27.26-.5.21a3,3,0,0,0-.46,0l-.36.23c-.23,0-.46-.13-.67,0l-.18.16-.45,0L99,12l-.61,0-.83.4c-.39,0-.79-.13-1.18.15-.12.09-.37-.07-.51.11s-.45,0-.63.13l-.17.15-.46,0-.26.22-.45,0c-.06,0-.11.13-.18.15-.27.09-.59,0-.81.24-.33-.17-.55.25-.83.17s-.45.31-.72.19-.43.34-.72.19c-.19.26-.46.21-.71.2l-.27.21-.58,0a2.76,2.76,0,0,0-.66.3c-.23.21-.52,0-.74.18s-.38.18-.64.3l-.72-.05.17-.25A1.63,1.63,0,0,0,86.58,14.68Zm-7.18,129c.08.16-.09.36.14.46.12-.29.12-.29-.11-.44,0-.14.09-.3-.07-.45l-1-.06-.19.18-.76,0s0,0-.08.07a.57.57,0,0,0,.05.32c-.18,0-.36,0-.22.22a.59.59,0,0,0,.15-.2l.36,0,.21-.21.49,0,.21-.22.42,0ZM183.26,81.6s.1,0,.11,0l.5-.87c.23-.28.67-.46.87-.88a.62.62,0,0,0,.45-.35c-.06,0-.11-.09-.17-.09a2,2,0,0,0-.26.08l0,.36-.34,0-.85.76v.21l-.25.23,0,.57a.6.6,0,0,0-.45.34c.06,0,.12.09.17.09a.79.79,0,0,0,.26-.08ZM73.62,142.79l.64.38.3-.25.9.06c.13-.17.4-.23.37-.55l-.36-.43a2.42,2.42,0,0,1-.9.28,1.14,1.14,0,0,0-.74.58h-.52l-.07,1,.34.36.12-.32-.23-.28,0-.45A.37.37,0,0,0,73.62,142.79ZM104.94,7l-.38.27-.44,0c-.51.57-1.31.6-1.92,1l-.44,0-.24.23c-.15.14-.2.28,0,.43l.43-.39c.26,0,.57.06.76,0a5.13,5.13,0,0,0,.77-.4,1.38,1.38,0,0,1,1.1-.36l.34-.3,0-.34.47.28c.34-.15.54-.5.89-.67l.41,0c.1-.16.34-.19.34-.42l.58,0s.05-.06.08-.07c.65-.29,1.3-.56,1.94-.87.2-.1.37,0,.54,0s.19-.22.38-.21.39-.33.67-.43l.4,0,.44-.4c.25,0,.54.08.72-.2.29.14.41-.34.71-.2.18-.27.51-.1.7-.22a1.6,1.6,0,0,1,.62-.17,2,2,0,0,0,.68-.3c.18-.11.45-.06.57-.29.33,0,.58-.35.94-.18l.27-.22.54,0a3.77,3.77,0,0,0,.62-.22c.19-.1.31-.33.62-.41l.55,0,.21-.18.44,0,.27-.22.45,0,.25-.2c.18-.07.43.17.52-.18l-.93-.06-.83.38-.82,0-.26.2-.44,0-.27.22-.34,0a3.18,3.18,0,0,1-1,.37c-.3,0-.45.21-.72.23s-.36.19-.6.19a1.26,1.26,0,0,0-.69.25c-.21.18-.42.1-.63.12l-.27.21-.44,0c-.23.14-.35.36-.65.43s-.74.45-1.21.36c-.18.27-.57.16-.75.43a1.11,1.11,0,0,1-.24.2c-.21,0-.41-.1-.53,0l-.1.38-.76,0-.47.42c-.26,0-.53-.06-.71.19a.43.43,0,0,0-.41.14.79.79,0,0,1-.35.26c-.14.05-.31,0-.31.23l-.33,0-.27.21-.53,0-.34.41a3.67,3.67,0,0,0-.55,0S105,7,104.94,7Zm30.14,165-.74,0-.85.42-.84-.05-.28.22-.65,0-.3.22-.88-.06-.4.38a4.65,4.65,0,0,0,.94.09,2.9,2.9,0,0,0,.88,0l.43-.4.83.06a10.8,10.8,0,0,0,1.63-.82c.15,0,.35.13.45-.11C135,171.83,135,171.83,135.08,172.07ZM71.24,67l.35,0,.33-.31L72,66a2.38,2.38,0,0,1-.38-.61.9.9,0,0,0-.41-.51L71,65c-.14.29,0,.57-.17.8l-.39.1,0,.83-.82,0-.33.58.41.22,0,.58c-.24,0-.32-.53-.65-.19l0,.26.56.64.34-.1-.22-.28,0-.33c.23,0,.27.25.42.35l.5.29c-.24.07-.31.3-.6.32s-.18.46-.45.56l-.21.07a.75.75,0,0,1-.44-.58,1.25,1.25,0,0,0-.58-.65h-.49l.37.84-.44.13,0,.32.43.17-.26.25,0,.67L68,71l-.3.3L67.15,71l-.32-.83a.29.29,0,0,0-.41.12c.07.17.13.37.23.56a7.19,7.19,0,0,0,.41.61L67,72l.62.56c.09.62.49,1,.44,1.56.53.43.46,1.23,1,1.62l0,.47.41.46,0,.49.44.4,0,.6.44.38a.93.93,0,0,0,.15.75l0,.76c-.49-.11-.62.35-.87.49s0,.44-.18.58l-.54,0,.12-.14-.4-.16.25-.29a1,1,0,0,1-.65-.46v-.21l-.77-.89-.14.33.45.51c-.15.29.34.42.2.71.15.13.16.31.23.48a1.84,1.84,0,0,0,.39.47c0,.18-.06.31,0,.41a1.88,1.88,0,0,0,.34.66c.25.25.25.6.47.86,0,0,0,.19-.08.29l-.27,0c-.17-.18-.12-.49-.36-.64s-.1-.52-.37-.66c.12-.26-.16-.39-.21-.6s-.35-.42-.38-.65-.3-.42-.43-.65l0-.44-.45-.52,0-.46A2.46,2.46,0,0,1,66,77.59c-.21-.14-.15-.42-.29-.57a4.71,4.71,0,0,1-.55-1,18.21,18.21,0,0,0-.79-1.73l0-.55c.33-.81,1-1.15,1.47-1.66-.08-.25.19-.3.23-.42l.06-.92L66,70.45l.07-1.14c.31-.33.4-.73.66-1a.26.26,0,0,0,0-.39l-1-.06-.25.22L64.61,68l-.21.19-.91-.05-.27.22-.89-.06-.29.23c-.5-.23-.91.22-1.39.17,0,0-.11.1-.18.16l-1.12-.07-.28.22-.44,0-.27.22-.67,0-.27.22-.72,0c-.13.45-.66,0-.85.36l-.72,0-.33.21-.63,0-.21.19-.67,0-.53.44-.88-.06c-.11.08-.23.22-.29.19-.37-.12-.61.23-.94.23-.21.34-.69,0-.89.35,0,0-.07,0-.1,0-.19,0-.37-.07-.53.12s-.43-.06-.63.12-.36.1-.47.23-.5,0-.73.18a2.15,2.15,0,0,1-.67.3.94.94,0,0,1-.37,0l-.85.81-.26,4.34c.14.15.3.41.52.51s.53.44.9.32c.11.23.4.2.53.36s.41.14.55.34.4,0,.61.19c.65.43,1.35.77,2,1.18s1.35.79,2,1.18l1.46.86c.29-.07.48.15.69.28l.74.42a2.63,2.63,0,0,1,.61.44,1.25,1.25,0,0,0,.63.38c.34.06.36.5.69.52s.32.26.57.3.29.38.48.43.34.28.51.42.38.17.54.35.66.45.92.75c.39,0,.4.55.81.53.1,0,.21.2.31.31s.26.37.4.38c.4,0,.41.57.81.53l.68.71c.33.07.56.43,1,.26l.84-.75c.27-.24.39-.6.68-.85a4.12,4.12,0,0,0,1-1,5.44,5.44,0,0,1,1.07-1s.07,0,.08-.08c.07-.42.46-.56.7-.84s.46-.56.68-.83h.25a4.54,4.54,0,0,1,.3.68,2.43,2.43,0,0,0,.62,1.37l0,.43c.11.12.22.23.32.35s.29.24.32.43l0,.36c.38.55,1,.94,1.19,1.61a.37.37,0,0,0,.24.22c.33,0,.39.32.58.47l1.51.09.71-.24c0-.13.08-.31,0-.42-.2-.34-.25-.78-.62-1l0-.65-.4-.81.09-1.48.81-1.36-.1-.09.76-.54L75.8,83c.23-.1.57-.12.64-.37a1.55,1.55,0,0,1,.46-.6,4.57,4.57,0,0,1,.82-.53c.46-.34.87-.75,1.3-1.13l1.2-1.06c.6-.11.89-.65,1.34-1,.29-.21.51-.54.91-.59.25-.35.75-.33,1-.66,0-.06.12-.08.21-.13a.47.47,0,0,0,.59-.16l.93,0,.21.21c.2.09.44,0,.62.2s.42.13.52.36.38.2.54.36.33.31.36.34l.13.49.5,0,.84-.78,0-.41.25-.24,0-.41.29-.37a7.36,7.36,0,0,1-.46-.67c-.12-.24-.2-.51-.28-.69l-.36-.16,0-.48-.22-.27,0-.4-.63-.84c.06-.38-.51-.45-.42-.87,0-.09-.19-.22-.29-.34a2,2,0,0,1-.39-.65c-.09-.26-.38-.46-.58-.69a.42.42,0,0,0-.22-.48c-.2-.15-.18-.39-.27-.58a2.72,2.72,0,0,0-.45-.75c-.15-.15-.11-.4-.29-.57a2.08,2.08,0,0,1-.37-.65,4.94,4.94,0,0,0-.29-.79,4.22,4.22,0,0,0-.59-.67l0-.51-.39-.16c-.06-.29-.15-.56-.48-.66,0-.15.14-.35-.1-.45-.12.3-.12.3.1.45l0,.57.21.26a4.53,4.53,0,0,1-.1,1h-.27a1.2,1.2,0,0,1-.45-.71L81.7,66l-.07-.33-.09.09-.39-.71L80.61,65a1.05,1.05,0,0,0-.39-.71l-.31,0-.07,1.26c.41.09.6.43.85.69l0,.53.44.4c-.12.47.29.8.18,1.19.11.19.34.29.36.52l-.24,0c-.51-.24-.53-.86-.92-1.2h-.25c-.08-.52-.54-.92-.47-1.51,0-.13-.16-.3-.21-.48a2.08,2.08,0,0,0-.51-.61,2.61,2.61,0,0,1-.39-.64c-.12-.22-.08-.53-.34-.67l.07-1a3.89,3.89,0,0,0,.66-.29,2.54,2.54,0,0,1,.39-.13c.1-.05.11-.25.19-.36s.23-.2.33-.3,0-.1.06-.18l-.75,0-.85.72,0,.57-.57,0-.25.21-.46,0a3.68,3.68,0,0,1-.7-1.43,4.69,4.69,0,0,0-.51-1.16c-.25,0-.51-.1-.79,0l0,.91.22.44-.4.4-.62-.7-.91.82,0,.92-.59,0c-.17,0-.37-.1-.54.07l0,.45-.5.45,0,.38.49,1.12.3.08.11.42.6,0c0,.11,0,.22,0,.34-.17.11-.28.3-.55.33s-.35.25-.52.41-.31.32-.37.37l-.48.11.23.29-.37.29-.8,0,.1-1.57c.37.09.39.43.53.74l.35-.08Zm63.85,25.16c0,.18,0,.35.22.21a.75.75,0,0,0-.2-.15c0-.21,0-.45.13-.66l.34,0-.07,1.24a.52.52,0,0,1,.23.5,3.3,3.3,0,0,0,.2.64c-.11.14-.41.24-.21.54l.6.14,0,.49.22.27-.09,1.46.46.36-.25.27c-.14.41.28.71.16,1.1,0,0,.07.12.11.18l.08.08c0,.76,0,.76.12.79.17-.23.07-.51.13-.76,0,0,.1,0,.2-.08l-.05.73.23.31-.19.16.37.84,0,.59.44.51-.07,1.06.67.74,0,.7c.08.18.13.28.17.38l.21.44,0,.39.22.26,0,.43.2.29s0,.08,0,.12c-.26.36-.26.36-.15.62l.24-.18.32.34-.06.92.22.25c0,.23-.09.45.13.64s-.09.44.13.63.07.44.29.57c-.08.25.18.38.22.59a4.08,4.08,0,0,0,.22.56l-.29.3c.47.19.35.8.78,1,.18-.15.07-.36.12-.54l-.43-.52.06-1a2.51,2.51,0,0,0-.22-.61.79.79,0,0,1-.18-.51,1.75,1.75,0,0,0-.21-.57l0-.56-.19-.2,0-.64-.42-.84,0-.57c-.14-.27-.26-.49-.36-.72s.09-.54-.21-.71c0-.25.08-.54-.19-.71,0-.26.08-.53,0-.79l-.15-.15,0-.63-.42-.86,0-.86c-.19-.13-.18-.31-.19-.5a1.84,1.84,0,0,0-.19-.49c-.07-.17-.14-.33-.2-.49l0-.51-.62-1.37.05-.79a1.05,1.05,0,0,1-.19-.33c0-.14,0-.29,0-.43a.74.74,0,0,0-.17-.24l0-.59-.41-.83,0-.62-.22-.27,0-.66-.22-.29,0-.66-.43-.49.05-.92-.41-.46,0-.45-.22-.27,0-.66-.21-.29,0-.8a2.86,2.86,0,0,0-.3-.67c-.2-.22.06-.51-.18-.73s-.18-.38-.3-.64l0-.6-.22-.27,0-.43-.21-.27c0-.17,0-.33,0-.47s-.1-.27-.16-.4,0-.3,0-.44a1.27,1.27,0,0,0-.2-.34l0-.58-.41-.83,0-.63-.22-.27,0-.43-.22-.29,0-.58-.39-.85,0-.59-.21-.26,0-.44-.22-.27,0-.44-.22-.27,0-.68c-.38-.2,0-.69-.36-.89v-.69c-.23-.3-.24-.76-.62-1l.06-.93-.2-.25c0-.2.1-.41-.08-.56s0-.45-.13-.62a.58.58,0,0,1-.16-.51c.07-.24-.28-.35-.19-.6a.44.44,0,0,0-.2-.49l0-.46-.22-.26,0-.45-.53-.61c-.37.27,0,.44.07.66l0,.55.42.83-.07,1,.45.26-.28.32.42,1-.05.78.38.77-.31.43.51.37v.84l.19.22,0,.7a.73.73,0,0,1,.23.46c.06.19.28.34.38.46.09.31-.2.35-.24.53l0,.55.61,1.34-.05.83.2.25,0,.45-.24.25c0,.17,0,.33.21.32a2.48,2.48,0,0,0,0,.67c-.18,0-.35,0-.21.22a.75.75,0,0,0,.15-.2c.29,0,.37-.33.62-.4,0,.07.08.14.07.2a2.93,2.93,0,0,1-.08.85l-.2.18c0,.3,0,.6-.05.91,0,0,.09.06.14.09.21-.25,0-.6.22-.85l.34.65-.08,1.34c.21.1.18.29.2.48a2.86,2.86,0,0,0,.19.61l-.25.26L133.6,87l.21.26c.08.15-.2.41.11.54.24-.14.31-.4.46-.63l.27.62-.2.22c0,.26-.06.49.17.64-.11.27.22.37.22.62s-.1.42,0,.64l.37.15-.05.95a.72.72,0,0,0-.29.44c-.05.15-.29.23-.2.48C134.85,92,134.88,92.21,135.09,92.15Zm38.68-1.72,0,.57.21.25,0,.45-.22.22.22.3-.8,1.34,0,.63c-.37.15-.45.55-.69.82a.25.25,0,0,0,0,.39l.61,0c.52-.26.76-.79,1.33-.9a.49.49,0,0,0,.33-.42c0-.12.15-.23.21-.31L175,93l-.19-.44.43-.56.07.8.3.06.61-.61c0-.36.47-.37.5-.69s.41-.39.52-.69.44-.41.59-.65a2.39,2.39,0,0,1,.54-.68c.17-.14.38-.26.36-.53.36-.21.44-.68.78-.91s.46-.76.87-1c0-.38.45-.47.55-.78s.54-.51.7-.85l.27-.41-.16-.23.12-2,.2-.24a4.41,4.41,0,0,0-.64-.7c-.24-.17-.46-.36-.69-.52l-.68-.53c-.16-.13-.41-.17-.52-.38s-.36-.23-.54-.34l-2.84-1.65s-.13,0-.2,0l-.15.62-.39,0c0-.19.19-.21.25-.34l.12-2L175.1,76a.52.52,0,0,0-.09-.46c-.15-.15-.08-.42-.3-.57a.78.78,0,0,1-.23-.47c-.06-.2-.28-.34-.38-.46a1.58,1.58,0,0,0,0-.52,5.07,5.07,0,0,0-.35-.65c-.13-.23-.41-.33-.44-.64s-.5-.46-.45-.85a2.54,2.54,0,0,1-.52-.83c-.13-.26-.47-.38-.49-.72s-.51-.38-.7-.63c-.05-.06-.14-.11-.15-.18s0-.29-.26-.39-.41-.41-.62-.63c0-.47-.48-.64-.69-1-.55-.16-.75-.7-1.17-1l-.28,0,0,.67.21.5-.29.27,0,.81-.91,1.55c-.33,0-.53-.45-.94-.26a2.33,2.33,0,0,1-.4.35c-.2.11-.11.34-.27.46l-.41.36,0,.92-.42.36c-.06-.51.06-1,0-1.41l-.33,0c-.26.5-.26.51-.56.64a.9.9,0,0,1-.23.08c-.1.22,0,.44-.17.58h-.55c0,.42.39.4.59.57-.16.14-.18.41-.32.52s-.06.52-.3.71l-.38,0c.24-.47-.27-.81-.19-1.21s-.39-.32-.57-.49c0-.49,0-1,0-1.46,0,0,0,0-.13-.07-.09.37,0,.75-.11,1.06l-.23.18L160.83,73l-.25.24-.12,2-.24.24c-.05.9-.11,1.77-.16,2.65a.54.54,0,0,1,0,.1l-.21.19-.06.91-.23.21-.08.71-.2.19a1.51,1.51,0,0,0,0,.76l.16.18,0,.45c1.34,1.6,1.55,1.82,2.06,2.1a2.77,2.77,0,0,0,.36-.4,5,5,0,0,1,.34-.65,5.08,5.08,0,0,1,.66-.58l0-.29.43-.12c0-.09,0-.2,0-.31l.09-.3,2.17.13a3.76,3.76,0,0,1,1.59,1.13c.62.26.91.87,1.39,1.31l.36.12c-.16.3.1.48.3.61a1.4,1.4,0,0,1,.44.29l1.08,1.21c.12.28.16.46.2.46a.4.4,0,0,1,.44.29,2.31,2.31,0,0,0,.69,1A2.63,2.63,0,0,1,172.7,89a1.3,1.3,0,0,0,.22.38,3.24,3.24,0,0,1,.29.34c.09.15.13.34.23.48S173.58,90.44,173.77,90.43ZM20.08,113.91l-.31,0c.07.55-.41.58-.79.77.08.24-.1.5.05.75a.32.32,0,0,0,.4,0,2.76,2.76,0,0,1,.47-.2c0-.31.23-.39.37-.55l.46,0,.51.58.05.32.4.17a5.77,5.77,0,0,0,0,1.1l.38-.57c.15-.47,0-.9.21-1.3l.38.11-.07,1.28c0,.28.24.3.13.44l-.18.16a2.47,2.47,0,0,0,1.28.12l.38-.17.28.28.69,0,.29.37-.21.22,0,.58.88.82,0,.64.3.67.45,0,.5,1.19c0,.18,0,.49,0,.79,0,0,.05.06.09.1h.28l.16-.39.36,0,.09-.55.46-.41c0-.17,0-.36,0-.55s.09-.45,0-.66l-.24-.26L28,120c-.13-.27-.24-.49-.34-.71a.4.4,0,0,1,0-.11c0-.11,0-.22.05-.36l.69-.34,0-.28c-.38-.24-.65,0-1,.12s-.39.4-.54.66l-.31-.08.05-.82.35,0,.93-.83c.18,0,.37-.05.53.09l.08.63.37-.24c.29.16.5.3.45.64.2.22.5.42.58.68a2.28,2.28,0,0,0,.47.74,5.77,5.77,0,0,1-.06,1c-.3.21-.4-.11-.6-.13a.58.58,0,0,0,0,.62l.51.08a1.24,1.24,0,0,0,.18.2c.17.07.38,0,.58.17-.21.41.31.75.16,1.17l.42.46,0,.23.22.27-.05.86.65.55-.08,1.33.21.27,0,.43.22.27,0,.68.22.26-.08,1.36.19.22-.19,3.2.19.22c.11.19-.12.45.12.61l.23,0,.37-.63c.09-1.39.18-2.88.27-4.36a1,1,0,0,0-.06-.22l-.15-.15.07-1.23-.44-.39.07-1.17-.21-.23,0-.69-.21-.24c0-.16,0-.35,0-.54a1.47,1.47,0,0,0,0-.66l-.15-.17c0-.26.08-.52,0-.79l-.15-.15,0-.45-.2-.26,0-.46.36-.32.73,1.15,0,.39.21.26c0,.13,0,.26,0,.36.11.29.26.58.42.92l0,.56.18.28c0,.28-.08.5,0,.72l.16.17-.05.68.22.27,0,.45c.38.19,0,.68.35.89l0,.68.38.85c0,.08,0,.27,0,.46s-.14.36.19.5c0-.59.07-1.15.11-1.71l-.22-.27,0-.66-.19-.26.48-.43.09-1.47c.44,0,.85.06,1.26.06l.45-.4,1,.06,0,.32-.34.31-.37,0c0,.4,0,.77-.07,1.15,0,.06.07.12.11.17l.46,0,.26-.46.3.11,0,.33c.28.19.64-.06.87.23,0,.46-.06.91-.08,1.37l-.35.3-.59,0c0,.4,0,.78-.07,1.15,0,.06.06.13.1.2l.79,0c.07,0,.14,0,.11,0l.39-.2.34.29c.18,0,.38.1.58-.12l.09-1.43.74.05.35.32-.06,1-1.13,1a1.45,1.45,0,0,1-1,.9l-.07,1.17a1,1,0,0,0,.54.42c.23.08.27.48.63.45l.49-.35-.47-.12-.3-.34.06-.32,1.47.1s0,.05.06.06l.06.4c.38-.08.74.14,1.1-.07,0-.24,0-.47,0-.7,0,0,.05,0,.08-.08h.2l.49.5c.15.43.07.63-.15.77,0,.21-.09.41.08.63a2.94,2.94,0,0,1,.28.68s0,.07,0,.1l-.21.21c0,.42-.05.8-.07,1.18,0,0,0,0,.09.1l.34,0c0-.93.11-1.84.17-2.74a.18.18,0,0,1,0-.1.27.27,0,0,1,.08-.07l.69.05s0,.05.11.12l-.17,2.82.58.08.3.34-.07,1.14.22.27-.16,2.73.31.36a.82.82,0,0,1,.22,0s0,0,.12.11l-.09,1.43a.77.77,0,0,1,.7.74l.39.16,0,.48.2.25-.19.2.39.86,0,.58.21.25-.07,1.14.19.21L49,150.2l.22.27,0,.44.2.22-.06.92.23.25-.06,1L50,154l1.66.1.21-.18.24.23c.12,0,.34.08.41,0,.23-.21.57-.15.76-.39l.21.22.9,0,.24-.43.54,0,.59-.65.55,0,.35-.32.12-1.93a.66.66,0,0,0-.06-.2l-.15-.18.08-1.36-.2-.25.09-1.36.21-.24-.2-.23.05-.91-.21-.24c.1-1.5.19-3,.28-4.54,0,0,0-.06-.06-.1l-.15-.17.26-4.34-.22-.26.09-1.36-.22-.27.2-3.41-.17-.2,0-.5-.21-.31.25-4.07-.18-.19c0-.41.08-.82,0-1.19L56,124.7l.14-2.28-.22-.27.15-2.49-.22-.28.06-.9c-.38-.2,0-.68-.36-.9,0,0,0-.21,0-.32a.83.83,0,0,1,.06-.21.26.26,0,0,1,.38,0l0,.3,1.24,1.39V119l.44.51,0,.43c.08.11.19.2.2.29s0,.43.15.63a2.34,2.34,0,0,1,.26.7l-.07,1.21.21.24-.05.91.19.22-.09,1.36.22.27-.17,3a4.8,4.8,0,0,1,.37,1.34c-.07,1-.13,2-.19,3l.43.48c0,.9-.11,1.81-.16,2.73,0,0,0,.06.07.11l.14.15L59.13,138l.22.27-.1,1.59.2.22-.06.92.21.23-.23.25c0,.11-.07.3,0,.4.34.55.45,1.21.82,1.76l0,.64.16.19-.25.42.24.31,0,.66.21.26-.22.22-.07,1.15.42.48-.07,1.28.39.87-.13,2.2.22.27,0,.44.21.26c0,.27-.14.54,0,.77l.36.1L61.47,156l.2.24V157l.41.46L62,158.56l.22.27,0,.44.31.36.44,0c.11.11.14.12.37.18l.08-1.42.23-.2c.14-2.23.28-4.48.41-6.72a.8.8,0,0,0-.05-.21l-.15-.17c0-.27,0-.53,0-.8a.76.76,0,0,0-.06-.2l-.15-.18.1-1.58-.22-.28,0-.65-.22-.3,0-.63-.22-.31.08-1.33-.18-.21.08-1.37.24-.23,0-.45-.21-.26.13-2.27-.22-.28.11-1.8-.2-.23.27-4.34-.23-.26.05-.92-.19-.22.14-2.27-.22-.27,0-.45.26-.24c0-.91.11-1.82.17-2.73,0,0,0,0,.08-.08a1.62,1.62,0,0,1,.22,0s.06,0,.13.09l-.06.93.23.25-.1,1.6.23.26L64,130.47l.19.22-.1,1.59.22.27,0,.75.45.4-.06.94.2.23-.08,1.36c.14.23.36.33.4.55l-.48.13c0,.13.06.24.1.34s.11.11.13.17a1.71,1.71,0,0,1,0,.3l.37.1,0,.72-.27.39.25.34c0,.27,0,.57,0,.87,0,0,0,.06-.06.09l-.17.15,0,.22.22.27,0,.39.43.85-.07,1.1.84.93-.09,1.51-.72.63c0,.11-.12.32.12.46l.17-.42h.32l.43,0c.14.35.48.19.69.31l.39.43.42,0,.67-.33.45-.4c0-.38,0-.76.07-1.14,0,0,0-.05-.08-.1l-.52,0c-.12.12-.3.22-.31.34,0,.28-.26.35-.4.51-.23-.22-.33.31-.56.1a6.42,6.42,0,0,1,.06-1l.69-.09c-.35-.06-.5-.33-.66-.58.05-.24-.09-.53.15-.75l.45,0,.27-.22.45,0,.6-.54v-.22l.24-.23.13-2.06c-.16-.17-.36-.34-.07-.58l.33.08-.17,2.81.23.26L70,144.38l.19.22L70.11,146l.22.27,0,.68a1,1,0,0,1,.23.48c.06.16.14.32.21.48s.13.36.37.28l.12-1.9L71,146c.06-1,.12-2,.18-2.95,0,0,0-.06-.09-.13l-.13-.13.16-2.51-.22-.27.15-2.5-.2-.22.13-2.06-.23-.26.11-1.83-.21-.24,0-.88c0-.27,0-.53,0-.8a3.18,3.18,0,0,0,0-.87l-.17-.2.09-1.59s0-.06-.1-.13l-.11-.12.11-1.83-.22-.27,0-.68c-.26-.22-.19-.65-.53-.8l-.23.17-.33-.33.14-2.29-.22-.28.1-1.53-.23-.4.26-.36.19-3.2c-.27-.18-.16-.42-.16-.65l-.21-.26,0-.44-.22-.27,0-.44-.22-.28,0-.39-.5-.63-.82-.05-.35.45-1.1-.07-.47.22c-.17-.15-.26-.35-.67-.25l-.93.83-.59,0-.45.4-.45,0c-.34-.17-.3-.58-.51-.83-.07-.08,0-.29,0-.43l-.23-.28,0-.39-.42-.86,0-.54c-.15-.34-.27-.59-.39-.85l.06-1-.19-.24c0-.19,0-.44-.08-.53s-.07-.36-.19-.51-.13-.33-.22-.48a3.39,3.39,0,0,0-.34-.39c0-.17.06-.3,0-.4a4.12,4.12,0,0,0-.32-.67c-.23-.37-.71-.58-.74-1.09-.31-.34-.63-.67-.91-1s-.72-.65-.84-1.16c-.05-.2-.29-.35-.44-.52a4.41,4.41,0,0,1-.45-.52c-.13-.22-.38-.21-.54-.35a2,2,0,0,0-.51-.42,1.41,1.41,0,0,1-.69-.94h-.19c-.36-.25-.49-.68-1-.8-.22-.07-.3-.39-.6-.46s-.35-.35-.39-.63A.33.33,0,0,0,52.3,98c-.41-.09-.56-.48-.83-.71a1.84,1.84,0,0,0-.39-.18c-.2-.23-.48-.54-.75-.87s-.73-.37-.89-.78l-.48,0c-.17-.26-.13-.65-.57-.74-.18,0-.29-.36-.49-.44s-.35-.12-.44-.29-.4-.19-.53-.36a3.88,3.88,0,0,0-1.29-1,1.65,1.65,0,0,1-.71-.51,1.81,1.81,0,0,0-1.28-.73l-.11-.4c-.06,0-.1,0-.13,0-.42-.27-.94-.39-1.26-.8-.15-.2-.41-.16-.53-.35s-.42-.29-.6-.46-.34-.12-.48-.25-.19-.38-.29-.57a1.59,1.59,0,0,0-.25-.3c-.29,0-.53,0-.65-.25-.28.08-.34-.26-.52-.28l-.62,0L38,87.46l-.36,0L37,86.69l-1-.07a1.68,1.68,0,0,0-.6-.93l-.44,0-.22-.23-.45,0-.41.34c.27.16.66,0,.81.34l.82.09-.09.43-1.43-.09c-.2-.27-.61-.27-.76-.62l0-.67.47-.45s-.06-.09-.08-.09l-1.16-.08-.22.18-.32,0-.16.39-1.18-.07s-.05-.06-.08-.08l-.06-.37-2.49-.16c-.06,0-.12-.08-.18-.11,0-.26.1-.52-.05-.82l-3.85-.23c-.06,0-.12.07-.18.11l0,.67-.23.23.2.23-.06.93c.22.14.46.16.58.38l.67,0,.6.67.36.15c0,.24-.09.44.13.64l1.39.09c.06.16.26.2.22.37l-.3.25-1.64-.1s-.06-.06-.08-.09v-.22l-.67-.41c-.18.08-.41-.09-.65,0,0,.62-.73.5-1,.89a1.42,1.42,0,0,1,.26.57l.51.09c.19.16.27.4.57.48l.37-.25.35.52.42,0L26,90c.1.27-.06.47.13.64l.44,0,.24.25c.17,0,.38-.06.54.12l0,.51a1.47,1.47,0,0,0,.91.58c.23.06.38.27.57.27.38,0,.19.35.34.49s.23.31.46.27c.15.28.43.25.69.28.14.29.44.23.68.28a1.05,1.05,0,0,1,.22.26c.13.3.15.68.6.69l.84.92c.46.08.61.53.92.79h.23l.19.47.27,0,.13.46c.42-.11.68.25,1,.39l-.3.38c.24.24.41.48.63.68.18,0,.39-.06.53.13v.23l-.24.23-.07,1.14-.94.41c-.07.28.07.56-.16.78l-1.17-.07-.28-.36,0-.55-1-.06-.3-.29-.39.12.53.47,0,.69.31.38.46,0s.05.06.11.13L33,103.35l.43.49-.08.29c-.25,0-.49.12-.61-.09l-.07-.36-.57-.08-.08-.67-1.18-.06s-.06,0-.11.08l-.51,8.36,1,.07.34.39-.06.94a1,1,0,0,1,.63.58c-.34.38-.34.38-1.21.7l-.07,1.18c-.07,0-.1.08-.13.08l-1.59-.1c-.14-.34-.52-.15-.67-.32s-.44-.14-.55-.34a1.11,1.11,0,0,0-.61-.44l-.06-.32a3.12,3.12,0,0,1-1.3-1c0-.05-.12-.07-.18-.11l-.35,0-.47-.51c-.24.12-.29-.17-.49-.25l-.9-.05-1-1.19-.57,0s0,.33-.22.1l0-.25a1.84,1.84,0,0,1-.38-.17,5.14,5.14,0,0,1-.38-.42,1.16,1.16,0,0,1-.61-.19c-.29-.13-.52-.43-.88-.37a.88.88,0,0,0-.2.09l0,.22c.25.43.76.5,1.07.77l.09.35.48,0a1.35,1.35,0,0,0,.47.73l.32,0,.79.89-.17.19c.18.18.39.07.56.13s.28.23.29.35c0,.4.31.5.59.69s.65.21.74.64l-.17.34-.35-.56c-.35-.09-.64.07-.84-.19v-.23L22,113.08l-.39.27-.85-.5-.33.3,0,.45ZM140.16,127.6l-.36-.91c-.14,0-.35,0-.43,0s-.43-.18-.54-.33-.53,0-.7-.28-.4-.15-.61-.16l-.47.42-1.66-.1-.53.8c.26.22.62,0,.85.22l0,.53.3.31.46.05c.3.34.59.65.86,1s.7.34,1,.63a2.12,2.12,0,0,1,.2.24l0,.43c-.06.14-.32.17-.13.35s.53,0,.78.14l0,.74-.6.24c-.12-.24-.09-.61-.46-.67s-.33-.3-.51-.41-.48-.19-.61-.45v-.53l-.42-.17c0-.21.09-.4-.09-.61l-.23.43-.42,0-.62-.61.07-1.2c-.78.31-.78.31-1,.78a1.51,1.51,0,0,1-.76-.08l-.16-.18-.68,0-.24-.25-.67,0-.24-.25-.9-.06-.43-.48-1.83-.11-.19-.21a1.43,1.43,0,0,0-.82,0l0,.37.51,0,.23.24.45,0L129,127c-.26.49,0,.63.21.87l.83,0,.81.5.56,0,.79.52.62,0c.11.12.21.25.32.35s.2.33.38.37l.38,0,.46.49.47,0a3.19,3.19,0,0,0,1.35,1.09l.11.37.45,0c.54.57,1.35.85,1.52,1.7l.29-.22c0,.15.08.28.12.42l.39.16,0,.26,1,1.17.05.33.41.17,0,.48c.16.14.24.36.52.4s.25.24.34.33v.49l.4.45v.53l.35.12c.08.34.38.63.26,1,.22.13.17.4.29.58a2,2,0,0,1,.3.67c0,.22,0,.46.19.61,0,.21.12.33.2.49s-.09.37.07.56h.38c0-.27,0-.52,0-.67l-.3-.69a.82.82,0,0,1-.22,0s-.06-.05-.12-.11l.08-1.4-.64-.7.24-.22,0-.56c-.37.07-.51-.19-.67-.5l0-.58-.19-.29.05-.71c-.06-.05-.17-.22-.29-.23-.34,0-.36-.3-.44-.52a2.35,2.35,0,0,0-.59-.91l.15-.26c.34-.12.41.32.74.27.17,0,.39.24.57.22s.41.34.66.3l.67-.53c0-.31,0-.55.28-.68,0-.18,0-.36,0-.55a1.58,1.58,0,0,0,0-.65c-.14-.16-.37-.31-.36-.45,0-.31-.39-.5-.2-.83,0,0,0-.07,0-.11l-.7-.78-.35-.71c0-.12.12-.32,0-.48l-.76-.09c0-.14,0-.25,0-.18l-.49-.7-.36-.14,0-.34ZM89.62,69c.23-.2.46-.4.68-.61a2.46,2.46,0,0,0,.61-.64c.14-.31.41-.43.61-.64a2.51,2.51,0,0,1,.6-.53c.25-.15.21-.48.44-.61s.29-.42.44-.61.43-.33.59-.54a6.72,6.72,0,0,0,.32-.66.66.66,0,0,1,.23-.24c.29-.18.25-.63.61-.76a1.75,1.75,0,0,1,.61-.76c0-.26.18-.4.36-.53s.26-.43.4-.63.32-.63.53-.91c0,0,0-.14,0-.21a.82.82,0,0,0-.19-.09c-.23,0-.35.3-.61.19s-.36.21-.6.21-.35.25-.61.18-.41.3-.71.19-.35.31-.6.18-.43.35-.72.2c-.15.22-.42.13-.6.21a7,7,0,0,0-1.4.47l-.19.1-.55,0-.83.41-.7,0-.4.45-.69,0c-.12.07-.22.19-.3.18-.28,0-.42.28-.73.22s-.5.31-.82.16c-.15.18-.43.14-.57.28s-.5,0-.62.13-.43.12-.6.28l0,.45c.14.14.2.38.49.4s.23.3.46.24.37.21.57.28a1.77,1.77,0,0,1,.47.25,9.74,9.74,0,0,1,1.09.64,7.2,7.2,0,0,0,.83.71c.39.2.55.66,1,.91a5.09,5.09,0,0,1,1,1A1.67,1.67,0,0,0,89.62,69Zm33.59,50.94c.22-.13.33-.43.72-.41.11.12.24.4.41.43s.34.27.54.32l.59,0,.24.24.22,0,.35-.32c.11-.15-.12-.44.19-.54l.64.72.91.06.2.22,1.36.08.26-.21c.24-.07.31.17.46.25a.79.79,0,0,0,.7-.17l.66,0,.28.26,1.24.07.81.49.36,0,.25-.2.32.27.39-.21.2.19,1.39.08c.18-.17.07-.38.13-.54l.22-.22-.19-.27c0-.44,0-.44.14-.53.37,0,.43.36.67.46l.37-.29-.05-.32-.76-.09-.41-.46-.53,0-.34-.48a.94.94,0,0,1-.73-.25l-4.78-.29-.23.2-1.27-.08-.51.24-.28-.28-2-.13-.25.21-.9-.05-.23-.24-.68,0-.25.2-5.44-.33-.37-.28-.45.26-2.44-.15-.24.21-.91-.06-.22.19h-.48l-.23.2-.91-.06c-.1.13-.31.18-.32.42l.76,0,.23-.17.69,0c.25.18.27.45.39.67l.24,0,.47.51c.16-.07.36.1.53-.08l.09-.78.45,0c-.18.35.1.48.26.69l1.42.08.21-.18.23.23,2.61.16a1.15,1.15,0,0,0,.21-.06l.15-.14Zm24.12-53.15c-.26,0-.52-.11-.77,0l-.06.26a6.62,6.62,0,0,0,.51.56c.19.19.1.51.35.67s.21.53.44.75.44.32.38.64c.37.32.44.85.81,1.18.13.11.3.24.24.47.21.24.35.57.74.67l.59-.52a1.42,1.42,0,0,1,.65-.39c.23,0,.4-.33.6-.5l.6-.53c.06-.06.11-.14.17-.15.53-.09.78-.54,1.17-.81l-.09-.33-.89-.06-.79-.52-.83,0-.27-.25c-.51.14-.87-.33-1.35-.35-.05,0-.1-.1-.19-.2l-.91-.06-.23-.25-.69,0Zm5,39.78-.8,0s0,0-.15.14l.41.35.32,0,.62.59,0,.46.22.28,0,.58.42.94c-.11.14-.2.26-.28.38s-.14.27-.24.45l1.64.1.65-.3,0-.39.47-.24.05-.86.7-1.18c-.16-.12-.13-.37-.24-.55s-.44,0-.62-.19-.3-.18-.44-.28-.44-.12-.53-.36-.39-.18-.52-.34l-.05-.33C153.39,105.92,153,106.37,152.37,106.57Zm-58.58.92.24-.22.1-1.61c-.27-.18-.18-.56-.44-.74s-.34-.48-.66-.59-.46-.37-.79-.22c0,0-.08,0-.08.08,0,.68-.08,1.36-.13,2,.08.1.22.21.2.28-.07.26.22.36.23.6a.49.49,0,0,0,.42.45c.23,0,.3.33.57.29,0,0,.09.12.16.16s.1,0,.16-.06ZM75.68,146.16l-.49.25-.65,0c-.11.18-.39.24-.35.54l.43.5c-.06.26.06.54-.14.76l-.39.06a4.53,4.53,0,0,0,0,1.1l.34,0,.1-.56a1.57,1.57,0,0,0,.4-.14.4.4,0,0,1,.41-.11l.31.35c0,.37-.05.74-.07,1.12a1.33,1.33,0,0,1-.15.18l-.36.28.06.31.25.05c.37-.16.42-.57.64-.81l.07-1.13c-.33-.18-.09-.51-.22-.73l-.38-.42,0-.41.48-.74ZM72,101.46l-.92,0s-.13.12-.12.17c.08.26.19.51.28.74l.7,0,.29-.21,1.34.08.19-.17c.26-.13.59.17.82-.09l-.74-.88-.35.07.2.27-.59.52-.21-.2c-.24-.06-.51,0-.75-.12Zm-50-15c-.26-.19-.29-.46-.41-.68a1.41,1.41,0,0,0-.79,0l0,.53c.22.12.57.18.59.44,0,.47.4.56.69.75v.23c.19.14.25.52.64.31a.94.94,0,0,0,0-.29,1,1,0,0,0-.2-.27l.05-.89-.31-.33ZM74.1,144.07c.14.31.44.41.45.71-.16.26-.32.52-.47.78,0,0,0,.06.06.08.23.1.35-.18.49-.17.29,0,.38-.2.57-.31s.32-.14.48-.21a1.76,1.76,0,0,0,0-.79ZM67.17,98.18c-1-.06-1-.06-1.34.15l1.09.07.23.25.44,0,.23.23.43,0,.45-.38.41-.61L69,97.85l-.23,0-.26.21c-.4,0-.81-.07-1.16,0Zm27.08,1.76c.37-.28.25-.63.26-.94l-.33-.35-.31.09-.1,1.62-.25.24c0,.17-.1.37.06.54l.2,0,.41-.28ZM24.12,120.28s0-.06,0-.07l-.8-.9-.06-.38H22.9l0,.74c-.27.29-.27.29-.18.59l1.35.08S24.09,120.31,24.12,120.28Zm-5.72-3.14c-.13-.1-.18-.3-.41-.32l0,.77c.35.19,0,.64.32.89.1.08,0,.34,0,.45l.29.42c.14-.24.27-.45.38-.67,0-.05,0-.13,0-.2l-.38-.16v-.24l-.22-.26C18.37,117.59,18.38,117.36,18.4,117.14Zm116-20.84.33,0,.34-.31,0-.89-.3-.42-.33.06ZM75.78,115c.19-.29.28-.69.76-.68.1,0,.11-.09,0-.15-.3-.17-.55,0-.84.16l-.84,0-.38.36.65.13.17.2Zm-7.43-13.58c-.07.13-.15.21-.13.25.16.32.2.7.48.94l.52,0,.2-.18c.75,0,.75,0,.79-.11-.24-.22-.59,0-.86-.23l-.12-.14-.54,0ZM79,141.56l.41-.29a.58.58,0,0,0-.63-.11l-.21.19-.75,0-.69.24.3.72.77-.74Zm45.81-14.73s.08.09.11.1l1.8.11s.06,0,.14-.1l0-.35-1.41-.09C125.22,126.7,124.93,126.67,124.76,126.83ZM79,144.34a2.24,2.24,0,0,1-1.1.62c-.21-.06-.34-.46-.66-.13l0,.31.94.05c.43-.24.88-.33,1.08-.74,0,0,0-.08-.08-.09A1.64,1.64,0,0,0,79,144.34Zm45.36-17.58a6,6,0,0,0-2.6-.11s0,.08.07.08l1.35.09.25.25.39,0Zm77.69,27.91h.14c0-.44.05-.89.08-1.34,0,0-.05-.06-.13-.15l-.35.42c0,.4-.05.85-.07,1.3,0,0,.05.06.13.15Zm-111-71,.41-.16-.94-1.11c-.17.15-.09.35-.14.57l.42.39c0,.26-.07.45.07.62C91.18,84,91.07,83.8,91.12,83.67Zm-12,62.51c.34.3.42.32.54.17l-.27-.6-.23,0-.25.21-1.14-.07c-.1.13-.3.18-.32.38.27.24.39-.09.59-.13Zm19.62-43.33c-.41,0-.55.36-.79.5l.24.4h.52l.3-.29Zm56.35,28.67a1.19,1.19,0,0,0-.26,0s-.05,0-.11.09l-.08,1.36-.23.24.35.45c.14-.57.08-1.1.17-1.59C155.13,131.94,155.28,131.83,155.13,131.52ZM117.2,173.74c.38,0,.75,0,1.13.06,0,0,.06-.09.1-.14-.24-.17-.51-.08-.76-.12l-.23-.25-1.12-.06s-.07.09-.11.14c.24.17.51.08.76.12ZM210.33,87.6c-.27,0-.53-.11-.8,0l0,.28c.19.13.44.13.54.35.18,0,.37.1.53,0ZM152.77,81l.8.89c0-.16.07-.26.09-.37s.3-.11.17-.32l-.53-.09-.12-.4C153,80.64,152.79,80.64,152.77,81Zm-42.85,51.92,0,.32c.44.15.68.55,1,.88l.13-.29c-.15-.31-.52-.47-.47-.87Zm-77,4.55c.45.5.49.51.7.32,0-.25.1-.51-.09-.69l-.17-.42Zm.51-2.77c-.21,1.32-.21,1.46,0,1.77,0,0,.08,0,.09-.07,0-.37,0-.75.07-1.13.12-.16.42-.25.17-.55ZM131.73,1.22C130.36,1,130,1,129.66,1.15c0,0,.05.08.08.09l1.81.11S131.61,1.31,131.73,1.22Zm-54,146.25-.29-.33c-.09-.19.12-.44-.13-.61a1.21,1.21,0,0,0-.12.77l.29.39c.28,0,.53.11.79,0C78.15,147.33,77.87,147.57,77.71,147.47ZM118.58,44.35c-.12-.26,0-.45-.1-.61l-.28-.07-.56.59C117.87,44.41,118.15,44.37,118.58,44.35ZM124.78.86c1.41.22,1.57.22,1.84,0,0,0-.06-.07-.08-.07L125,.72S124.89.77,124.78.86ZM16.85,114.42l.29,0c.05-.24.16-.45,0-.65-.17,0-.36-.09-.55,0l0,.27ZM31,83.87l.24.41.5,0,.49-.4A4.76,4.76,0,0,0,31,83.87ZM99.8,65.26c0-.17,0-.24,0-.31s-.18-.29-.33-.33l-.38.28.06.33Zm-23.65,51.6.16-.34-.4-.33-.21.4c-.14,0-.32-.08-.33.15,0,0,.06.07.09.07Zm129.8,8.3c-.22,1.26-.22,1.26,0,1.61,0,0,.08,0,.08-.08,0-.45.06-.9.08-1.35C206.07,125.31,206,125.28,206,125.16ZM125.21,147.6c-.41,0-.41,0-.54.13a3,3,0,0,0,.52.54l.33-.31Zm10.43-50.31c.07-.28.29-.43.35-.67,0,0,0-.09,0-.11s-.12-.09-.14-.08l-.57.52s0,.07,0,0C135.26,97.27,135.41,97.28,135.64,97.29ZM107.27,51.85c-.2-.15-.29-.57-.67-.28,0,.08,0,.16,0,0l.28.66Zm9.08-6.43.05.4c.24,0,.45.17.66,0l0-.32ZM155,113.7c-1.24-.19-1.24-.19-1.53,0,.44,0,.8.06,1.17.07A1.67,1.67,0,0,0,155,113.7ZM18.4,115.19a1.47,1.47,0,0,0-.08,1.12c.18-.06.16-.23.14-.35s.18-.28.24-.44Zm54.72,31.58c-.16.23-.08.49-.11.74,0,0,.08.08.12.12.11-.14.33-.19.35-.4A.54.54,0,0,0,73.12,146.77ZM114.46,47.4c.85.28.85.27,1.15,0l-.84,0A1.62,1.62,0,0,0,114.46,47.4ZM65,95.56l.53.61.12-.27-.48-.36Zm8.31,5c0-.19-.19-.27-.29-.41h-.23a.29.29,0,0,0,0,.48C72.93,100.54,73.12,100.7,73.29,100.55Zm-2.79-2.4.3.53.37-.12c-.19-.22-.37-.43-.6-.68C70.52,98.06,70.5,98.16,70.5,98.15ZM214.08,141c0-.39,0-.39-.23-.29l-.46.19C213.57,141.12,213.79,141.05,214.08,141ZM29.63,112.9l.06.46.44,0-.05-.38Zm66.78-2.81.46-.06-.06-.43-.37.05ZM89.74,13.77l.31-.41-.29-.14-.31.42ZM214.82,96.59l-.36.62c.15.06.27.13.44,0,0-.14,0-.32,0-.49S214.85,96.62,214.82,96.59ZM76,129.73l0-.46c-.22,0-.3.19-.49.32Zm5.37-15c.13-.54.13-.54,0-.71A.63.63,0,0,0,81.33,114.71ZM174,125.21a.29.29,0,0,0,.46,0c0-.12.09-.29-.12-.33Zm-30.12,18.32c.14-.54.14-.54,0-.73C143.68,143,143.68,143.2,143.83,143.53Zm33.1-17.41c-.17-.15-.23-.33-.41-.38-.12.13-.13.25,0,.43ZM79,147.21a.28.28,0,0,0,.46,0c0-.12.08-.29-.13-.33Zm35.55,25.58c.53.14.53.14.73,0A.68.68,0,0,0,114.54,172.79ZM124.85,30.43c.2.16.34.24.45,0C125.17,30.29,125,30.29,124.85,30.43Zm6.14,76h-.15c0,.1,0,.2-.05.3a.11.11,0,0,0,.07.08s.14,0,.15-.07A1.62,1.62,0,0,0,131,106.45ZM220.3,116c-.16.19-.24.34,0,.45C220.44,116.28,220.44,116.15,220.3,116Zm-65.17-2.22c.2.16.34.23.45,0C155.45,113.6,155.32,113.6,155.13,113.74Zm-20.51-14v-.14l-.31-.06s-.08,0-.07.07,0,.14.07.15A1.51,1.51,0,0,0,134.62,99.71Zm4,20.83c.2.16.34.23.45,0C139,120.4,138.85,120.4,138.65,120.54Zm-25.39-1.08a.28.28,0,0,0,.46,0A.28.28,0,0,0,113.26,119.46Zm59.29,13.46c.2.16.34.24.45,0C172.87,132.79,172.75,132.79,172.55,132.92ZM71.42,117.14c-.19-.16-.34-.23-.45,0C71.1,117.28,71.23,117.28,71.42,117.14Zm-49.2,1.92h.15c0-.1,0-.2.05-.3s-.05-.08-.06-.08-.15,0-.15.07A1.61,1.61,0,0,0,22.22,119.06ZM175.88,128v.14l.3.06a.11.11,0,0,0,.08-.07c0-.06,0-.15-.07-.15A1.62,1.62,0,0,0,175.88,128Zm.1,1.91c-.2-.16-.34-.24-.45,0C175.66,130.06,175.79,130.06,176,129.92Zm-3.06,1a.28.28,0,0,0,.46,0A.28.28,0,0,0,172.92,130.88ZM23.68,125.19v.14a2.84,2.84,0,0,0,.31.06s.08,0,.07-.07,0-.15-.07-.15A1.51,1.51,0,0,0,23.68,125.19Zm7,3.36a.28.28,0,0,0,0,.46A.28.28,0,0,0,30.67,128.55Zm81.38,7.12a.26.26,0,0,0,.45,0A.27.27,0,0,0,112.05,135.67Zm-73.88-2.09c-.16.2-.24.34,0,.45C38.3,133.9,38.3,133.78,38.17,133.58Zm105.54,10.53h.14c0-.1.05-.2.06-.3s0-.09-.07-.08-.15,0-.15.07A1.67,1.67,0,0,0,143.71,144.11Zm13.64-54.86v.14l.3.06s.09-.06.08-.07,0-.15-.07-.15A1.67,1.67,0,0,0,157.35,89.25Zm-36.09,57.54c-.2-.16-.34-.24-.45,0C120.93,146.93,121.06,146.93,121.26,146.79Zm-8-10a.28.28,0,0,0,0,.46A.27.27,0,0,0,113.24,136.78Zm8,10.4v.14c.1,0,.2.05.3.06s.08,0,.08-.07,0-.15-.08-.15A1.51,1.51,0,0,0,121.25,147.18ZM122.32,1.06v.15l.3.05s.08-.05.08-.07,0-.14-.08-.15A1.51,1.51,0,0,0,122.32,1.06ZM145.45,9a.28.28,0,0,0-.46,0A.27.27,0,0,0,145.45,9Zm1.27.91h-.14a2.84,2.84,0,0,0-.06.31s0,.08.07.07.15,0,.15-.07A1.67,1.67,0,0,0,146.72,9.87ZM90,81.65c-.16.2-.24.34,0,.45C90.11,82,90.11,81.85,90,81.65Zm23.74,90.84a.27.27,0,0,0,.46,0A.28.28,0,0,0,113.71,172.49Zm15.32.93a.27.27,0,0,0,.46,0A.28.28,0,0,0,129,173.42ZM148,11.26v-.15l-.3,0s-.08,0-.08.06,0,.15.07.15A1.61,1.61,0,0,0,148,11.26Zm63.09,75-.15.08s.05.08.07.07a.94.94,0,0,0,.15-.06ZM101.51,78.16l-.07-.16-.08.07a.76.76,0,0,0,.06.16Zm30-1.69.07.15s.08-.05.08-.07a1.66,1.66,0,0,0-.06-.16ZM21.1,127.94l.09-.08-.15-.08s-.05,0-.08.07Zm1.32-23.61.08.09s.06-.1.08-.15,0,0-.07-.08Zm.15-2.51.08.08a.64.64,0,0,0,.08-.14s0-.06-.07-.08ZM123,29.89l-.07-.15s-.08.05-.08.07a.76.76,0,0,0,.06.16ZM112.85,136.26l.08-.07a.44.44,0,0,0-.15-.08s0,0-.07.06Zm-4.11-86.42-.08-.08a.44.44,0,0,0-.08.15s0,.05.07.08ZM27.67,111.31l-.08-.16s-.07.06-.07.08a.94.94,0,0,0,.06.15Zm80-65.83-.07-.15s-.08.05-.07.07a.52.52,0,0,0,.06.16Zm24.69-3,.09-.08-.15-.08s-.05,0-.08.07Zm9.74,72.88.15-.07s0-.08-.07-.08l-.16.06ZM92.31,86.09l-.08-.15s-.07,0-.07.07a.94.94,0,0,0,.06.15Zm19.06-46.95s-.08,0-.08.07a.51.51,0,0,0,.07.15s.07,0,.07-.07A.94.94,0,0,0,111.37,39.14Zm1.52-1.78.08-.08a.71.71,0,0,0-.15-.08s0,0-.07.07Zm-35.08,57-.08-.09a1.09,1.09,0,0,0-.08.15s0,.06.07.08ZM127.6,32.55s-.07.05-.07.07a1.66,1.66,0,0,0,.06.16s.08-.05.08-.07A.46.46,0,0,0,127.6,32.55ZM78.39,17.77l.08.09a1.09,1.09,0,0,0,.08-.15s0-.05-.07-.08ZM33.25,138.38l-.08.08.14.08s.06,0,.08-.07Zm186.39-24.86s0-.08-.07-.07a.94.94,0,0,0-.15.06s.05.08.07.08A.51.51,0,0,0,219.64,113.52ZM25.08,106.61l.16-.07s-.06-.08-.08-.08l-.15.06Zm76-97.74.08-.07a.5.5,0,0,0-.14-.08s-.06,0-.08.06Zm44.76.61-.07-.15s-.08.05-.08.07a.94.94,0,0,0,.06.15ZM91.52,82l-.09.08a.55.55,0,0,0,.15.08s.06,0,.08-.07Zm-63.93,41.9-.07-.15s-.08,0-.08.07a.76.76,0,0,0,.06.16Zm2-25.38s-.05-.08-.07-.07-.1,0-.16.06.06.08.07.07A.76.76,0,0,0,29.62,98.54Zm105.88,1.81-.07-.09a1.19,1.19,0,0,0-.09.15s0,0,.07.08Zm78.9-12.47-.09.08.15.08s0-.05.08-.07ZM80.81,99.67l.15-.08s0-.08-.07-.07l-.16.06Zm57.33,5.54.09-.07a.55.55,0,0,0-.15-.08s-.05,0-.08.06ZM116,173.09s0-.08-.07-.08a.56.56,0,0,0-.16.07s.05.07.07.07A.76.76,0,0,0,116,173.09Z"/><path d="M142.58,6.84l.06-.41c.25,0,.24.25.41.27C142.94,7,142.74,6.8,142.58,6.84Z"/><path d="M140.16,4.46a.46.46,0,0,1-.64,0C139.75,4.24,140,4.49,140.16,4.46Z"/><path d="M141.49,5.48l-.09.14s-.07-.06-.06-.08a.55.55,0,0,1,.08-.15Z"/><path d="M140.56,4.91l.08.09-.16.06s0,0-.07-.08Z"/><path d="M46.21,131.17l-.09,1.46a1.76,1.76,0,0,1-.79,0,1.43,1.43,0,0,0-.52-.81l0-.7-.18-.22.34-.58.31.06,0,.56C45.59,131.16,45.87,131,46.21,131.17Z"/><path d="M43,130.85l.09-1.52.37,0a.74.74,0,0,1,.07.21c0,.42,0,.83-.08,1.25,0,0,0,.05-.11.12Z"/><path d="M69.67,138.16l.22.22c0,.18,0,.38-.11.54-.42-.11-.28-.61-.56-.81l0-.73.36,0C69.78,137.63,69.66,137.89,69.67,138.16Z"/><path d="M68.18,140.13l-.63.27-.28-.27c0-.41.24-.46.4-.61C68,139.54,68.11,139.7,68.18,140.13Z"/><path d="M34.89,102.53l0-.28a4.41,4.41,0,0,1,1.09,0l0,.34C35.86,102.76,35.6,102.75,34.89,102.53Z"/><path d="M21.41,114l.5,0c.21.19.07.4.05.64l-.3,0C21.52,114.5,21.2,114.4,21.41,114Z"/><path d="M32.44,114.68c-.13-.22-.47-.33-.27-.66.17-.12.36,0,.53,0a.26.26,0,0,1,0,.38A1.82,1.82,0,0,1,32.44,114.68Z"/><path d="M26.29,115.23l.39,0c.16.19,0,.38.07.61l-.36,0C26.21,115.69,26.34,115.5,26.29,115.23Z"/><path d="M44,131.89h.23c.21.19.08.4,0,.65l-.29,0A.48.48,0,0,1,44,131.89Z"/><path d="M69.51,135a.68.68,0,0,1,0,.73C69.37,135.5,69.36,135.5,69.51,135Z"/><path d="M44.17,129.36l.29.07c0,.22-.22.27-.33.4A.29.29,0,0,1,44.17,129.36Z"/><path d="M30.78,116.81a1.67,1.67,0,0,1-.31,0s-.06-.1-.07-.15.05-.07.08-.07l.3.06Z"/><path d="M32.91,114.89l-.14-.09s.06-.08.08-.07a.39.39,0,0,1,.14.08Z"/><path d="M69.68,139.38l-.08-.09.16-.06s0,.05.07.08Z"/><path d="M24.51,88.79l.09-.08a1,1,0,0,1,.06.16s-.05,0-.08.07Z"/><path d="M33.51,105.05l-.15-.09s.06-.07.08-.06a.44.44,0,0,1,.15.08Z"/><path d="M32.13,105l-.14-.09s.06-.07.08-.07a1.19,1.19,0,0,1,.15.09Z"/><path d="M201.69,148.5l0-.5.22-.2.16-2.57.34-.06s.09.06.09.09c0,.33,0,.66,0,1a1.62,1.62,0,0,0-.22.2.73.73,0,0,0,0,.23l.2.27-.08,1.35C202.2,148.4,202.09,148.73,201.69,148.5Z"/><path d="M201.57,142.5l.42-.35.28.45,0,.39c-.2.19-.41.08-.62,0S201.65,142.67,201.57,142.5Z"/><path d="M200.05,147.53l.28.49s0,.07,0,.19l-.35,0C199.8,148,200,147.79,200.05,147.53Z"/><path d="M203.1,148.94a.46.46,0,0,1,0,.64C202.88,149.36,203.13,149.13,203.1,148.94Z"/><path d="M215.43,132a.28.28,0,0,1,0,.46A.27.27,0,0,1,215.43,132Z"/><path d="M214.36,134.41c.14.2.14.33,0,.45C214.12,134.75,214.2,134.61,214.36,134.41Z"/><path d="M205.21,139.07l-.09.08a1.66,1.66,0,0,1-.06-.16s.05-.05.08-.07Z"/><path d="M212.13,141.44l.08.09-.16.06s-.05-.05-.07-.08Z"/><path d="M211.24,146.06a.76.76,0,0,1-.16.06s0-.05-.07-.07a.71.71,0,0,1,.16-.07S211.22,146,211.24,146.06Z"/><path d="M207,153.69l-.15-.09s.06-.08.08-.07a.71.71,0,0,1,.15.08Z"/><path d="M208.33,154.91l-.14-.09s.06-.07.08-.06a.39.39,0,0,1,.14.08Z"/><path d="M184.58,167.5c0,.06.06.11.06.16s0,.05-.07.07a.44.44,0,0,1-.06-.16S184.55,167.53,184.58,167.5Z"/><path d="M213.82,138.22l.09-.15s.07.07.06.08a.44.44,0,0,1-.08.15Z"/><path d="M102.13,62.21l.27,0s.07,0,.08-.08c0-.29.07-.59.11-1l.7-.46.6,0a.53.53,0,0,1,.07.2c0,.64-.07,1.29-.12,2l-.79.48a.48.48,0,0,1,0,.37c-.15.18-.35,0-.53.08l-.51.68c-.06-.09-.12-.15-.12-.21,0-.61.06-1.21.11-1.82A1,1,0,0,1,102.13,62.21Z"/><path d="M116.64,51.14l-.28,0s-.09-.08-.09-.1c0-.3,0-.61.06-1l.35-.05c.17.21.08.41.07.58S116.81,51,116.64,51.14Z"/><path d="M123.59,36.52l-.08.33-.29,0a.48.48,0,0,1,0-.66Z"/><path d="M115.32,51.58c.29,0,.51-.1.63.05l-.27.38C115.3,52,115.28,51.86,115.32,51.58Z"/><path d="M128.22,35.57l.26.17.19.09a2.27,2.27,0,0,1-.18.25,1.28,1.28,0,0,1-.22.17C128.14,36,128.24,35.78,128.22,35.57Z"/><path d="M109.65,60.2a.63.63,0,0,1,0-.7c.19,0,.24.22.29.26Z"/><path d="M106.62,64.84a.63.63,0,0,1,0-.71C106.75,64.3,106.75,64.3,106.62,64.84Z"/><path d="M108,64.16c.14.19.14.32,0,.45C107.78,64.5,107.85,64.36,108,64.16Z"/><path d="M104.22,81.37c.13.19.13.32,0,.45C104,81.71,104.05,81.57,104.22,81.37Z"/><path d="M146.29,67.85l-.21.22C145.94,67.86,146.11,67.89,146.29,67.85Z"/><path d="M112.68,56.74l-.09.14s-.08-.06-.07-.08a1.09,1.09,0,0,1,.08-.15Z"/><path d="M73.12,66.24l.06-.89.65-.09c0-.09.08-.25,0-.29-.25-.2-.19-.46-.17-.69l-.32-.37c-.11,0-.31.07-.3-.18.18-.12.37,0,.55,0l.93,1.06-.06,1c-.16.16-.35,0-.57.07l-.15.36C73.57,66.32,73.34,66.1,73.12,66.24Z"/><path d="M72.06,68.65l.23-.35-.19-.23c.17-.27.48-.29.71-.44,0-.4.37-.44.66-.58a3.61,3.61,0,0,0,.67-.57l.34,0,0,.34-.6.52h-.21c-.27.14-.15.6-.53.64l-.31,0-.09.56a1.15,1.15,0,0,1-.21.06Z"/><path d="M69.6,71l-.46.06.2.28c-.06.13-.06.14-.57.08a.24.24,0,0,1,0-.39c.22-.19.19-.57.54-.68l.21.19.65-.32.42-.39.07-.53c.24,0,.3.23.42.34s-.16.31-.27.47l0,.43c-.25.2-.52,0-.83.07Z"/><path d="M75.83,64a2.78,2.78,0,0,1-.4-.76,3.28,3.28,0,0,0-.33-1l.47-.07.11.42s0,.06.08.07a1.26,1.26,0,0,1,.29.12c.09.06.24.19.22.24-.1.3.34.42.21.72Z"/><path d="M74.48,66.5l0-.34s.07,0,.08-.07c.11-.3.56-.1.66-.47a2.24,2.24,0,0,1,.35-.64l.11,0c.22,0,.27.21.41.32a1.56,1.56,0,0,1-.58.82h-.25l-.15.38C74.92,66.59,74.7,66.48,74.48,66.5Z"/><path d="M84,73.56l.8.9,0,.38a.32.32,0,0,1-.42,0c-.26-.19-.15-.57-.43-.75C83.93,73.89,83.86,73.69,84,73.56Z"/><path d="M77.11,64.36l0,.37s-.08.08-.11.08l-.73,0,0-.35c.08-.06.11-.1.14-.1Z"/><path d="M74.64,64.12c0-.36.14-.38.38-.34.08.24.18.5.27.75,0,0,0,.07,0,.1s0,.05,0,0Z"/><path d="M72.07,68.65c-.11.31-.43.4-.6.65-.15-.3-.15-.3.25-.67Z"/><path d="M69.93,81l.33-.29c.14.21.14.21,0,.62C70.11,81.31,70.05,81.13,69.93,81Z"/><path d="M81.26,66.45l-.28-.6c.38-.14.43-.11.41.26a.82.82,0,0,1,0,.22S81.33,66.38,81.26,66.45Z"/><path d="M83.29,67c.13.19.13.32,0,.45C83.05,67.36,83.13,67.21,83.29,67Z"/><path d="M68.29,69.91c.2-.14.32-.14.45,0C68.63,70.15,68.49,70.07,68.29,69.91Z"/><path d="M173.78,90.36l0-.5-.15-.17a.83.83,0,0,1-.06-.21l.15-2.38.17-.16s.06,0,.07-.08c.07-1.14.14-2.28.21-3.4l.22-.2.06-.92.23-.21.07-1.14a3.33,3.33,0,0,0,.4-.36,2.67,2.67,0,0,0,.25-.43l.28,0,.06.34a1,1,0,0,1,.63.5,5.27,5.27,0,0,1,.17.64l-.14,2.35-.21.18-.18,3-.23.2q-.08.93-.18,1.89s0,0-.08.07l-.07-.09a.19.19,0,0,1,0-.1c.06-.91.11-1.81.17-2.73-.4,0-.17.32-.28.5l-.22.22L175,88.54l-.25.23-.09,1.52-.37.61Zm.7-.23s0-.08-.07-.08a.76.76,0,0,0-.16.06s.05.08.07.08A.76.76,0,0,0,174.48,90.13Z"/><path d="M175.19,92a1.68,1.68,0,0,1-.08-.89,1.87,1.87,0,0,1,.07-.34C175.38,91,175.38,91,175.19,92Z"/><path d="M175.38,79.05c0,.15.09.36-.16.43C175.14,79.17,175.14,79.17,175.38,79.05Z"/><path d="M174.49,91.83c.14.2.14.32,0,.45C174.25,92.17,174.33,92,174.49,91.83Z"/><path d="M169.73,83.79l.08.09a.76.76,0,0,1-.16.06s0,0-.07-.08Z"/><path d="M174.13,92.66l.09-.14s.07.06.07.08-.06.1-.08.15Z"/><path d="M139.55,132.41l.33,0c.24.17.07.4.08.65l-.36,0A1.39,1.39,0,0,1,139.55,132.41Z"/><path d="M139.56,132.41c-.22,0-.44,0-.66-.11V132c.13-.11.13-.11.66,0Z"/><path d="M140.53,134.13l-.46-.73.23-.06.3.53S140.58,134,140.53,134.13Z"/><path d="M129.14,120.54l-.29-.36.33-.34.32.37Z"/><path d="M133.85,86.89l0-.67.31,0c.21.2.09.42.05.66Z"/><path d="M132.52,80.84l.22-.23C132.88,80.82,132.71,80.8,132.52,80.84Z"/><path d="M71.26,67.06,71,66.84C71.25,66.7,71.22,66.88,71.26,67.06Z"/></g></g></svg>