<svg xmlns="http://www.w3.org/2000/svg" viewBox="0 0 106.85 108.14"><title>Recurso 42ART</title><g id="Capa_2" data-name="Capa 2"><g id="Capa_1-2" data-name="Capa 1"><path d="M88.59,43h1.26l0,0s0,0,0-.05V40.45l0,0h1.19s0,0,.06,0V23.51c.12-.09.24,0,.35-.05h.65a.49.49,0,0,0,.31,0V11.79l0,0h1.2l0,0a.07.07,0,0,0,0,0V6.59s0,0,0,0a1.27,1.27,0,0,1,.39,0c.15,0,.3,0,.45,0h.39l0,0s0,0,0-.05V1.37s0,0,0-.05h1.2s.05,0,.06-.06V.06A16.6,16.6,0,0,1,99,0s0,0,0,0,0,0,0,0V1.26l0,.05h1.19l.06,0V5.17c.12.09.24,0,.35,0s.2,0,.3,0h.35c.1,0,.2,0,.31,0v5.12l0,0h1.2l0,0a.09.09,0,0,1,0,0V23.4s0,0,0,0a1.26,1.26,0,0,0,.39,0h.83a.12.12,0,0,1,0,.05s0,0,0,0,0,.2,0,.3V40.29a.07.07,0,0,0,0,.05s0,0,0,.06h1.2l.06.05V43l0,0h1.24c.06.69.08,52.52,0,56a2,2,0,0,1-.43,0c-.13,0-.27,0-.4,0h-.45v3.88c.1.07.22,0,.33,0h.66c.09,0,.19,0,.29,0v1.23l0,0h-1.22a1.25,1.25,0,0,0,0,.43c0,.13,0,.27,0,.4v.44c-.55,0-14.08.06-15.59,0a.08.08,0,0,1,0,0,.06.06,0,0,1,0,0v-1.16s0,0,0-.05h-1.2s-.06,0-.06-.06V43Zm7.82-5.17a22.73,22.73,0,0,0-2.61,0v2.34c0,.08,0,.17,0,.23h-1.2l0,0s0,.09,0,.14v3.55c0,.06,0,.13,0,.18h3.8l.06-.05v-1c0-.07,0-.16,0-.23h1.2s0,0,0,0a.29.29,0,0,0,0-.09V39.23a.28.28,0,0,0,0-.13H96.46l0,0ZM93.79,95.12H92.65a.34.34,0,0,0-.1,0l0,0v1c0,.08,0,.17,0,.23h1.2s0,0,0,0Z"/><path d="M49.56,48.22h1.2s.05,0,.05-.06V44.34a1,1,0,0,1,.43,0c.14,0,.27,0,.41,0h.42s0-.05,0-.07,0,0,0-.05v-3.7s0,0,0-.05,0,0,0,0h1.2l0,0V27.42c.12-.09.24,0,.35-.05s.2,0,.3,0h.66V15.69l.05,0H56c.08-.07.05-.16.05-.24V10.48l.06,0h1.19a.1.1,0,0,0,0,0v0c0-.82,0-1.64,0-2.46a.09.09,0,0,1,0,0H61.2c.07.12,0,.26,0,.39s0,.26,0,.4v5.31a1.1,1.1,0,0,0,0,.4h1.23s0,0,0,.06a2,2,0,0,1,0,.25V24.72l0,0h1.22l.05.06V41.67a1.25,1.25,0,0,0,.43,0h.83s0,0,0,.07v2.45s0,0,0,.05.22,0,.34,0h.3c.11,0,.23,0,.35,0a.49.49,0,0,1,.29,0V99l0,0H65.2l0,0v1.23s0,0,0,0h1.2c.07,0,0,.11,0,.18v2.25a.61.61,0,0,1,0,.14l0,0H65.17a1.63,1.63,0,0,0,0,.44v.86H63.89c-.09.12,0,.24,0,.35s0,.2,0,.3v.35c0,.1,0,.2,0,.3H52.15l0,0v-1.2c-.06-.09-.15-.05-.23-.05H49.55s0,0,0-.06V48.27S49.53,48.24,49.56,48.22ZM53.46,43s0,0,0,.06,0,0,0,0v3.65a.34.34,0,0,1,0,.1l0,0h-1.2l0,.06v1.15a.09.09,0,0,0,0,.05l0,0h5.13s0,0,0-.05V40.45s0,0,0-.05H55c-.08,0-.17,0-.23.05V43l0,0Z"/><path d="M.05,62.55H1.26s0,0,0-.06a1.33,1.33,0,0,0,0-.2V53.48l0,0H2.56l0-.06v-3.8l0,0h1.2l0,0V47c.13-.09.24,0,.36-.05h.3c.11,0,.23,0,.35,0a.46.46,0,0,0,.3,0V45.66s0,0,.06,0H6.48a.9.9,0,0,0,0-.43c0-.14,0-.27,0-.41v-.43c.55-.05,6.15-.06,7.77,0l0,0a.07.07,0,0,1,0,0v1.15s0,0,0,.06h1.21l.05,0s0,0,0,.05v1.15c.07.08.16,0,.23,0h1l.05.06v1.22a1.25,1.25,0,0,0,.43,0h.86v2.55c.12.09.24,0,.36,0h.95v6.46l.05,0H20.8c.08.06,0,.15,0,.23,0,1.93,0,3.87,0,5.81v.42l0,.05h1.2l0,0a.07.07,0,0,1,0,0V99a1,1,0,0,1-.41,0c-.15,0-.3,0-.45,0h-.4a18.66,18.66,0,0,0,0,2.61H22.1l0,.05v3.81c-.06.08-.15.05-.23.05h-1s0,0,0,0a.33.33,0,0,0,0,.1v1.1l0,0H17l0,0a1,1,0,0,0,0,.39c0,.15,0,.3,0,.45v.38a.12.12,0,0,1-.05,0H4s0,0-.06,0v-1.2l-.05-.06H1.36c-.09-.06-.05-.15-.05-.23,0-.34,0-.69,0-1,0,0,0,0-.05,0s0,0-.05,0H.05l0,0a.07.07,0,0,1,0,0v-3.7a.54.54,0,0,1,0-.1,1.26,1.26,0,0,1,.39,0h.83a.12.12,0,0,0,.05,0v-2.5s0,0,0,0H.06S0,99,0,99V62.6Zm5.16-13v5.06a.34.34,0,0,1,0,.1l-.06,0H4s0,0,0,.06v2.5l0,0H6.52v-.45c0-.13,0-.27,0-.4a1.3,1.3,0,0,1,0-.44H7.76l.06,0V53.66c0-.08,0-.17,0-.23h1.2l0-.06V49.56l.06,0h1.2l0,0V47a.05.05,0,0,0,0,0l-.09,0H6.56l0,0v2.45a.09.09,0,0,1,0,.05s0,0,0,.06Z"/></g></g></svg>