<svg xmlns="http://www.w3.org/2000/svg" viewBox="0 0 238.32 124.58"><title>Recurso 16MODERN ICON</title><g id="Capa_2" data-name="Capa 2"><g id="Capa_1-2" data-name="Capa 1"><rect y="21.29" width="18.15" height="18.15" rx="3.12" ry="3.12"/><rect x="66.05" y="21.29" width="18.15" height="18.15" rx="3.12" ry="3.12"/><rect x="88.07" y="21.29" width="18.15" height="18.15" rx="3.12" ry="3.12"/><rect x="110.09" y="21.29" width="18.15" height="18.15" rx="3.12" ry="3.12"/><rect x="132.11" y="21.29" width="18.15" height="18.15" rx="3.12" ry="3.12"/><rect x="154.12" y="21.29" width="18.15" height="18.15" rx="3.12" ry="3.12"/><rect x="176.14" y="21.29" width="18.15" height="18.15" rx="3.12" ry="3.12"/><rect x="198.16" y="21.29" width="18.15" height="18.15" rx="3.12" ry="3.12"/><rect x="198.16" width="18.15" height="18.15" rx="3.12" ry="3.12" transform="translate(414.47 18.15) rotate(180)"/><rect x="132.11" width="18.15" height="18.15" rx="3.12" ry="3.12" transform="translate(282.36 18.15) rotate(180)"/><rect x="110.09" width="18.15" height="18.15" rx="3.12" ry="3.12" transform="translate(238.32 18.15) rotate(-180)"/><rect x="88.07" width="18.15" height="18.15" rx="3.12" ry="3.12" transform="translate(194.29 18.15) rotate(180)"/><rect x="66.05" width="18.15" height="18.15" rx="3.12" ry="3.12" transform="translate(150.25 18.15) rotate(180)"/><rect x="44.04" width="18.15" height="18.15" rx="3.12" ry="3.12" transform="translate(106.22 18.15) rotate(-180)"/><rect x="22.02" width="18.15" height="18.15" rx="3.12" ry="3.12" transform="translate(62.18 18.15) rotate(180)"/><rect width="18.15" height="18.15" rx="3.12" ry="3.12" transform="translate(18.15 18.15) rotate(180)"/><rect x="22.02" y="42.57" width="18.15" height="18.15" rx="3.12" ry="3.12"/><rect x="66.05" y="42.57" width="18.15" height="18.15" rx="3.12" ry="3.12"/><rect x="154.12" y="42.57" width="18.15" height="18.15" rx="3.12" ry="3.12"/><rect x="44.04" y="63.86" width="18.15" height="18.15" rx="3.12" ry="3.12"/><rect x="66.05" y="63.86" width="18.15" height="18.15" rx="3.12" ry="3.12"/><rect x="88.07" y="63.86" width="18.15" height="18.15" rx="3.12" ry="3.12"/><rect x="110.09" y="63.86" width="18.15" height="18.15" rx="3.12" ry="3.12"/><rect x="154.12" y="63.86" width="18.15" height="18.15" rx="3.12" ry="3.12"/><rect x="198.16" y="63.86" width="18.15" height="18.15" rx="3.12" ry="3.12"/><rect x="220.18" y="63.86" width="18.15" height="18.15" rx="3.12" ry="3.12"/><rect y="85.14" width="18.15" height="18.15" rx="3.12" ry="3.12"/><rect x="22.02" y="85.14" width="18.15" height="18.15" rx="3.12" ry="3.12"/><rect x="44.04" y="85.14" width="18.15" height="18.15" rx="3.12" ry="3.12"/><rect x="88.07" y="85.14" width="18.15" height="18.15" rx="3.12" ry="3.12"/><rect x="110.09" y="85.14" width="18.15" height="18.15" rx="3.12" ry="3.12"/><rect x="132.11" y="85.14" width="18.15" height="18.15" rx="3.12" ry="3.12"/><rect x="176.14" y="85.14" width="18.15" height="18.15" rx="3.12" ry="3.12"/><rect x="22.02" y="106.43" width="18.15" height="18.15" rx="3.12" ry="3.12"/><rect x="44.04" y="106.43" width="18.15" height="18.15" rx="3.12" ry="3.12"/><rect x="66.05" y="106.43" width="18.15" height="18.15" rx="3.12" ry="3.12"/><rect x="110.09" y="106.43" width="18.15" height="18.15" rx="3.12" ry="3.12"/><rect x="176.14" y="106.43" width="18.15" height="18.15" rx="3.12" ry="3.12"/><rect x="198.16" y="106.43" width="18.15" height="18.15" rx="3.12" ry="3.12"/></g></g></svg>