<svg xmlns="http://www.w3.org/2000/svg" viewBox="0 0 15.47 91.14"><title>Recurso 44ART</title><g id="Capa_2" data-name="Capa 2"><g id="Capa_1-2" data-name="Capa 1"><path d="M13.21,23.38c0,2.26,0,4.52,0,6.77a11.06,11.06,0,0,0,1.25,5,7.19,7.19,0,0,1,.91,2.57c0,.22,0,.45,0,.67,0,1.22.05,2.43.05,3.65s0,2.36,0,3.53c0,1.72,0,3.43,0,5.15s0,3.73,0,5.59q0,3.68,0,7.35c0,1.59,0,3.19,0,4.78,0,1,0,2,0,3,0,1.32,0,2.63,0,3.94,0,2.19,0,4.38,0,6.58,0,.93.09,1.88,0,2.81a6.54,6.54,0,0,1-.53,1.31,12.83,12.83,0,0,0-.38,1.51.43.43,0,0,0,.22.34,1.3,1.3,0,0,1,.36,2,2.7,2.7,0,0,1-1.88.85c-1.35.14-2.71.29-4.07.3-1.64,0-3.28-.1-4.91-.22A11.38,11.38,0,0,1,1,90.27a1.58,1.58,0,0,1-1-1.44,1,1,0,0,1,.75-1.12A.76.76,0,0,0,1,87.05a10.29,10.29,0,0,0-.57-1.81A3,3,0,0,1,.19,84c0-.77,0-1.53.08-2.3,0-1.07.09-2.15.11-3.22,0-1.54,0-3.08,0-4.62S.5,70.62.55,69a1.64,1.64,0,0,1,0-.22c0-2,0-3.92.07-5.88,0-1.45.09-2.9.11-4.35,0-.88,0-1.75,0-2.63,0-2.08,0-4.16.05-6.24,0-1.09,0-2.17,0-3.26,0-2.93,0-5.87.09-8.79a6,6,0,0,1,.73-2.15A16.42,16.42,0,0,0,2.93,32a10.89,10.89,0,0,0,.17-1.71c0-2.42,0-4.83,0-7.24,0-.93,0-1.86.06-2.79a.78.78,0,0,1,.23-.51.66.66,0,0,0,.24-.58c.08-1.52.2-3.05.27-4.57a43.44,43.44,0,0,1,1.45-9C5.85,3.81,6.42,2.09,7,.35c0-.12.24-.22.38-.26A3.55,3.55,0,0,1,8.14,0c.49,0,1,0,1.46.07.07,0,.16.16.19.26.38,1.26.8,2.51,1.13,3.78.38,1.52.69,3.05,1,4.58a32.74,32.74,0,0,1,.67,5.13c.07,1.19.11,2.38.16,3.57,0,.73,0,1.45.08,2.18a.37.37,0,0,0,.17.26.38.38,0,0,1,.27.43c0,1,0,2.08,0,3.12ZM3.35,43.72l-.06.16h.13l.23.22c-.37,0-.41.26-.48.49,0,.08.09.2.15.33l.34-.42c-.19-.12,0-.27,0-.41l.23.18c0-.18.06-.31.07-.45s-.09,0-.14-.07c.2-.34.08-.55-.35-.6l.16-.26-.09-.26.25.06.15,0a.72.72,0,0,0,0-.25c0-.05-.08-.13-.08-.13-.3.2-.21,0-.23-.18a.14.14,0,0,0-.09-.09l-.38.74.29.35.18.18-.48.16Zm0,2.77-.24-.1,0,.78L3.1,47l.36-.13c0-.06,0-.2-.09-.34l.25.26.21-.41c-.15.09-.24.33-.29,0,0,0-.1,0-.15,0Zm0,37.91-.32.27s-.07.06-.08.09,0,.26,0,.38l.09,0,.31-.78a.67.67,0,0,0-.08-.17c-.17-.12-.34-.24-.53-.35,0,0-.12.08-.14.13a.17.17,0,0,0,.07.17c.07,0,.2.12.24.09s.23-.18.25.08C3.2,84.37,3.32,84.38,3.39,84.4ZM4.63,70.58c0,.17,0,.35,0,.52s.05.1.07.15a1.42,1.42,0,0,0,.08-.18c0-.13,0-.26.09-.44l-.22,0c0-.12,0-.24,0-.36a1.46,1.46,0,0,0-.05-.2l-.2.18a1.59,1.59,0,0,0-.38-.06,1.85,1.85,0,0,0-.41.07l0-.11,1.12-.59-.07-.12-.23.13-.27-.36L4,69.74H3.85c0-.31.15-.66-.38-.71l.06-.09.41,0c-.21,0,.22-.43-.27-.34l-.07-.19L4.28,68,4.22,68,3.94,68l.33-.42,0,0-.18.1L4,67.6l.35-.4q-.19-.18-.39-.39l.17-.18-.31-.14c.4,0,.47,0,.44-.39,0-.09-.11-.17-.13-.26A6.4,6.4,0,0,1,4,65.21c0-.17.29-.4-.08-.52,0,0,0,0,0-.06.09-.36.09-.36-.09-.65a.94.94,0,0,1,0-.09c.46,0-.06-.16,0-.23.38-.19.38-.19.12-.47a.13.13,0,0,1,0-.11c0-.16.05-.16-.15-.26,0-.23-.08-.47-.11-.7,0-.07,0-.2,0-.22s.26,0,.23-.21a2.35,2.35,0,0,1,0-.26l.25.22-.34-.81L3.63,61a.92.92,0,0,1,.17-1l-.21.09,0,0,.24-.31,0-.07-.39.3-.12.09a.34.34,0,0,1-.07-.15c0-.26,0-.52.05-.77l-.31.08.47-.42c-.14.55.15.6.54.6-.13-.09,0-.41-.3-.22L3.49,59c.42-.18-.18-.71.3-.87a.14.14,0,0,1,0-.06c0-.17,0-.34,0-.51s.07-.17,0-.19c-.34-.27-.19-.68-.27-1,.16-.24,0-.41-.1-.58l-.09,0,.19.56-.43-.27a1.78,1.78,0,0,1-.1.53c-.12.23.35.35.07.57.2.36.13.61-.27.7l.32.17c-.17.08-.45.09-.25.41l.24-.14a6.46,6.46,0,0,0-.27.6.51.51,0,0,0,0,.27c.06.2.13.39.19.59,0,0,0,0,0,.05a4.44,4.44,0,0,0-.24.49c0,.05.1.16.18.21a1.61,1.61,0,0,0,.34.15l-.41.06a5.94,5.94,0,0,0,.18.6c0,.06.15.09.22.14s0,.08,0,.12L3,61.49s-.06,0-.14,0c.37.33,0,.57-.07.86h.36l-.33.56L2.9,63c.14-.15.3-.3.43-.47s-.09-.16-.13-.25a1.62,1.62,0,0,0,.06-.19c-.31-.18,0-.24.07-.41a2.52,2.52,0,0,1,.09.72c0,.29.05.39.3.43l-.1.38c-.22-.5-.22-.5-.84.06l.35-.1s0,.06,0,.07c-.23.2-.23.2-.09.39s0,.12,0,.17c-.06.24-.23.54-.14.7.2.36,0,.71.07,1.05,0,0,0,.11,0,.16l.19,0c.15,0,.32-.11.24.18-.1-.2-.12-.08-.24,0s-.13.48-.34.63l0,.06c.35-.06.06.26.19.32a.55.55,0,0,0,.07.63c0,.05-.09.23-.15.33s-.14.1-.13.13c.08.4.17.8.26,1.2,0,.08,0,.17,0,.22s-.17-.09-.19-.07-.12.16-.1.18a.79.79,0,0,0,.26.19s.11-.06.16-.1l.33-.19.07.12c-.25,0-.33.39-.64.29a1,1,0,0,0,0,.33c0,.09.08.16.16.3-.39-.08-.34.08-.24.27a4.93,4.93,0,0,1,.22.53H3a3.5,3.5,0,0,0-.26.51,1.46,1.46,0,0,0,0,.41c.13.08.29.25.45.26.38,0-.09.24.08.28l-.11.07L3,72.82s.08.08.13.1a.84.84,0,0,0,.2.08.35.35,0,0,1-.28.51c-.35,0,0,.35-.22.38a2.11,2.11,0,0,0,.19.23l.24.19-.33.22c.26.14.54.28.33.63l.29.14c-.28.2.23.3.07.5.1-.09.2-.21.18-.29s-.16-.14-.25-.21a2.65,2.65,0,0,1,.05-1.67h.19c0-.06,0-.18-.07-.18-.23,0-.25-.15-.17-.34s-.08-.13-.13-.2l.12-.59c.23,0,.2.47.47.19.07-.07,0-.23.07-.35l-.11,0-.05.28H3.84l0-.41-.31.25c0-.49.4-.35.52-.43l-.58-.71.22,0c0,.15,0,.33.27.18a1.59,1.59,0,0,1,.33-.09,3.43,3.43,0,0,1,.16-.45C4.45,70.67,4.55,70.63,4.63,70.58ZM3.35,80.31c0,.11-.05.22-.07.33s.06,0,.1.07l0-.17.34.24L3,80.92l-.2-.4a.37.37,0,0,0,0,.35s.15,0,.23,0l0,.28.2,0c0,.09,0,.27,0,.28-.37.11-.14.35-.12.53a2.18,2.18,0,0,0,.14.46l.17.23.35-.36-.21.63.33-.17,0,0-.33.38-.39-.44c.23.52.23.53-.22.73v-.91a1.47,1.47,0,0,0-.18.76c0,.25.18.39.46.2a.39.39,0,0,1,.36,0c.08.06.09.23.12.36l-.2.15-.1-.43-.14.1c.11.35.21.71.35,1,.08.17.26.18.4,0s-.14-.17-.13-.18a.56.56,0,0,0,.05-.7c-.15-.29.16-.42.19-.66,0,.48,0,.73.21.7,0-.26,0-.56.09-.73s0-.29-.06-.42c.21-.14.26.32.48.15.18.35-.24.12-.27.27a1.64,1.64,0,0,1,0,.18l.74-.27c-.56-.41,0-.58.08-.89l-.72.5-.06-.08.56-.48-.47-.06.25-.29A2.51,2.51,0,0,0,5.2,82a.19.19,0,0,0,.16,0s0-.09,0-.14c-.22.09-.22-.11-.28-.23l-.19.14,0,0s0,0,0,0c0-.25-.35-.24-.32-.28.25-.38-.17-.15-.2-.21L4.4,81l-.06,0L4,81.3l-.21-.53.38-.21-.5-.26.32,0c-.16-.33.14-.24.27-.35a1.77,1.77,0,0,0-.61.1,1.51,1.51,0,0,0,0,.31h-.2l0-.54-.15,0ZM7.12,3.91A1.48,1.48,0,0,0,6.74,5a.35.35,0,0,0,.16.16.17.17,0,0,0,.15,0,.12.12,0,0,0,0-.14c-.17-.19,0-.49,0-.53.19-.2.12-.36,0-.54.18-.12.18-.12-.17-.35l-.1.26ZM3.19,53.25c.07.18.21.36.2.54,0,.37.21.42.47.51,0-.18-.22-.38-.18-.5.16-.4-.13-.49-.36-.64l-.13-.6C3,52.73,3,53.13,3.19,53.25Zm1-20a2.5,2.5,0,0,1,.4.05s.07.07.08.12a.12.12,0,0,1-.07.07c-.46-.12-.51.26-.6.54-.31.93-.59,1.86-.88,2.79-.12.41,0,.88.25,1a2.57,2.57,0,0,0,.78.1c.82,0,1.64-.09,2.45-.18a2.75,2.75,0,0,0,1.26-.38,1,1,0,0,0,.39-.84c0-.75,0-1.5,0-2.25a1.31,1.31,0,0,0-.11-.38.79.79,0,0,0,0-.34c-.12-.25-.12-.59-.48-.7,0,0-.08-.11-.07-.16.1-.31-.13-.24-.31-.22L7.35,32l-.24.19a3.21,3.21,0,0,0-.26-.31c-.32.22-.59-.13-.93-.09s-.53,0-.68.33l0-.25-.53.11c.45.36,0,.33-.28.39l.4.21C4.35,32.57,4.43,33,4.2,33.22Zm-1,17.35a4.1,4.1,0,0,1,.41-.26.64.64,0,0,1,.2,0c0-.11-.07-.23-.12-.34s-.08-.08-.12-.12c.2-.14,0-.17-.07-.25s-.19-.4-.12-.62l.3.33.08-.07a1.79,1.79,0,0,0-.2-.39,1.65,1.65,0,0,0-.32-.26l.31-.28-.11-.11c0,.06-.06.18-.1.18-.23,0-.25,0-.22.24a3.29,3.29,0,0,0,.11.7c.06.18-.22.34,0,.52a2.17,2.17,0,0,1,.31.36C3.15,50.37,3.15,50.37,3.21,50.57ZM7.78,1.8A2.76,2.76,0,0,1,7.46,2a.33.33,0,0,1-.17,0c0,.05.08.09.09.14s0,.19,0,.2c-.45.2-.61.48-.46.92,0,.09.17.15.28.2s.14-.1.14-.16-.05-.22-.08-.22c-.38,0-.18-.25-.22-.33h.29c-.07-.23,0-.3.25-.27,0,0,.08-.13.11-.2s.09-.27.15-.39A1.31,1.31,0,0,1,8,1.68a1.63,1.63,0,0,0-.31,0,1.91,1.91,0,0,0-.34.1l0,.1ZM3,89.31v.14l4.23.28v-.1Zm.67-34c.32-.31-.27-.57,0-.87l0,0a2.26,2.26,0,0,0-.42-.29s-.17.14-.25.22l.36.26,0,0-.43-.09c.26.52.34.57.67.38Zm.25-11H3.8c.14.4-.23.48-.4.67s-.2.61.2.82l-.15-.38c.54-.05.36-.54.52-.8C4,44.62,3.93,44.49,3.91,44.39ZM3.52,79.83c.08-.07.18-.11.19-.16.1-.38.17-.77.28-1.25-.27.21-.46.36-.64.52s0,.15,0,.15c.34,0,0,.14,0,.21a.69.69,0,0,0,0,.2C3.78,79.37,3.48,79.67,3.52,79.83ZM8.09,2.23H8L7.48,3,8,3.22ZM3.6,50.77l-.06-.24a1.12,1.12,0,0,0-.2.17s0,.12,0,.17-.06.07-.1.11.12.07.15.05c.22-.14.23,0,.28.18a1.7,1.7,0,0,0,.15.22c0-.25-.32-.51.15-.64l-.08-.2ZM4,84.53c.26,0,.53,0,.55,0,.13.31.27.12.38.08a1.85,1.85,0,0,1-.24-.25.73.73,0,0,1-.08-.25,1.12,1.12,0,0,0-.22.1Zm2.62-7.86h0V78.6h0ZM3.75,53.07l.06-.68-.36-.1C3.14,52.67,3.73,52.77,3.75,53.07Zm.11-1.32-.34.2c-.1,0-.22.08-.32.14s-.1.11-.16.16l.24,0a1.83,1.83,0,0,1,.32-.07C3.94,52.12,3.9,51.93,3.86,51.75Zm2.58-43c.6,0,.62-.06.39-.58ZM7.55,8h.13a1.22,1.22,0,0,0-.1-.34s-.21-.07-.23,0-.37.25-.09.48L7.4,7.8ZM3.49,47.42l-.07-.13L3,47.55l0,.11c.48-.12.08.23.24.29Zm3.57-42-.12-.08-.38.62.24.14ZM4,85.17l.31.06a.17.17,0,0,0,0-.1A2.52,2.52,0,0,0,4,85s-.09,0-.12,0l-.2.18.19.21Zm4-80-.33-.11L7.45,5c0,.08-.06.17,0,.24S7.76,5.37,7.94,5.16ZM3.61,48.05l.33-.71-.12-.05C3.73,47.5,3.43,47.64,3.61,48.05ZM7.13,6.76c.1-.15.18-.27.25-.4s0-.09,0-.13-.09,0-.09,0c-.09.37-.17-.11-.3.06ZM4.21,84.61c0,.27.16.41.65.47Zm.33-11.1-.29-.58-.13.25a1.28,1.28,0,0,1,.23.25C4.38,73.5,4.36,73.51,4.54,73.51Zm.34,10.81H5c.12-.48.12-.48-.15-.56a2.11,2.11,0,0,1,.06.29A1.22,1.22,0,0,1,4.88,84.32ZM4,77.79v-.11l-.27,0-.21,0c.06.06.1.17.17.19A.87.87,0,0,0,4,77.79Zm-.29-29,.13,0,.09-.59-.13,0Zm.08-8-.12,0,.18.56.1,0ZM2.91,73.45l.16,0L2.93,73s-.14.06-.13.07S2.87,73.34,2.91,73.45ZM6.17,89.37v-.12l-.61,0v.1ZM3,78.33c.07,0,.12,0,.13-.07s0-.24,0-.36,0-.05-.06-.07a1.33,1.33,0,0,0-.23.3S2.93,78.26,3,78.33ZM7.85,3.91A1.48,1.48,0,0,1,8,3.62a1.86,1.86,0,0,1,.19-.22C7.81,3.42,7.76,3.5,7.85,3.91ZM6.29,82.44H6.4l0-.6H6.29ZM3.87,74.16l-.15,0-.08.38h.12A2.35,2.35,0,0,0,3.87,74.16Zm-.94,5.61-.11,0-.06.61h.07Zm.56,5.3-.44.3.33.17ZM3.44,51.39l-.28-.25s-.1.09-.09.1a1.16,1.16,0,0,0,.2.24S3.36,51.44,3.44,51.39Z"/></g></g></svg>