<svg xmlns="http://www.w3.org/2000/svg" viewBox="0 0 211.62 484.57"><title>Recurso 4ART</title><g id="Capa_2" data-name="Capa 2"><g id="Capa_1-2" data-name="Capa 1"><path d="M37.27,102.2c0,.75,0,1.49,0,2.23,0,0-.05.07-.11.15H35c-.36.37,0,.81-.24,1.15,0,0-.07.08-.11.08H32.47a4.94,4.94,0,0,0-.07-1.15,1.9,1.9,0,0,0-1.11,0v1a4.33,4.33,0,0,0,1.18.07c0,.35,0,.7,0,1,0,0,.07.08.11.1a.18.18,0,0,0,.12.05h3.25c.25.36.09.71.13,1,.31.38.76,0,1.1.21a.66.66,0,0,1,.1.25c0,.3,0,.6,0,.9H36.22l-.1.1a.35.35,0,0,0,0,.13v4.48a3,3,0,0,1-1.21.09c-.35,0-.7,0-1.07,0a1.67,1.67,0,0,0-.06,1.17l1,0c.32.33,0,.78.24,1.16l1,0c0,.11.12.19.12.27,0,.69,0,1.38,0,2.12h2.28c.23.37.08.72.13,1.06.32.34.77,0,1.11.21a.48.48,0,0,1,.09.11.75.75,0,0,1,0,.15v3.13c.34.34.79,0,1.18.26v2.14c.39.3.82.06,1.22.2v1a1,1,0,0,0,.31.12h.9v2.27c-.35.26-.76.11-1.14.13s-.79,0-1.14,0c-.24.38,0,.74-.17,1.08a.57.57,0,0,1-.22.12H38.48v-3.48c-.37-.27-.8,0-1.2-.17v-2.26c-.42-.2-.82-.05-1.21-.1v-1.2c.3,0,.6,0,.9,0a.77.77,0,0,0,.26-.1,1.47,1.47,0,0,0-.1-1.09H36.07a4.54,4.54,0,0,0-.06-1.16,1.82,1.82,0,0,0-1.11.05v1a5.18,5.18,0,0,0,1.17.07v1.2H33.83s-.07.06-.12.11a1.48,1.48,0,0,0,.1,1.09h2.26v2.26c-.31.35-.77,0-1.11.21,0,0-.09.07-.09.11v2.08c.34.34.8,0,1.17.26l.05,1c.33.23.69.06,1,.11.06.08.16.15.16.23,0,1.09,0,2.19,0,3.26.38.21.73.07,1.07.13,0,.08.13.16.13.24,0,.69,0,1.39,0,2.12l1.08.06c0,.09.11.17.11.25,0,1.36,0,2.71,0,4.06a3.18,3.18,0,0,0,.06.47h1c.23.37.09.72.13,1.06.32.35.78,0,1.12.21,0,0,.07.07.08.12s0,.1,0,.15v4.33c.35.33.8,0,1.19.27v2.13c.37.27.73.11,1.06.15a.52.52,0,0,0,.11-.1.35.35,0,0,0,.05-.13v-4.45c.38-.24.73-.05,1-.16.07.13.16.21.16.29v5.41a1.78,1.78,0,0,1-.08.31H42.2c-.27-.31,0-.68-.25-1.17-.17-.21-.62.14-1-.05-.2-.32,0-.67-.1-1-.08-.05-.16-.13-.24-.14H38.51L38.45,148c-.32-.31-.77,0-1.15-.24l0-1c-.34-.23-.7-.07-1-.12-.36-.31,0-.76-.24-1.16h-.92c-.38-.38,0-.83-.3-1.21l-1-.06c-.23-.32-.06-.68-.11-1-.31-.39-.76,0-1.11-.22-.19-.32-.05-.67-.1-1-.32-.34-.78,0-1.17-.24l-.05-1c-.33-.31-.78,0-1.17-.26v-.94c-.37-.24-.73-.09-1.06-.13-.36-.32,0-.77-.25-1.17h-1c-.07-.13-.15-.22-.15-.3,0-.65,0-1.3,0-1.95,0,0,0-.08-.1-.16l-1-.05c-.23-.33-.07-.69-.12-1-.31-.38-.76,0-1.11-.22-.18-.32,0-.67-.1-1-.32-.32-.77,0-1.12-.17a3.85,3.85,0,0,1-.07-1.21c0-.34,0-.69,0-1-.36-.32-.81,0-1.2-.28V130c-.37-.27-.73-.05-1.09-.19,0,0-.11-.11-.11-.19,0-1.1,0-2.19,0-3.33l-1.07-.06c0-.08-.12-.16-.12-.25,0-.65,0-1.3,0-2,0,0-.06-.08-.11-.16l-1,0c-.05-.11-.12-.19-.12-.28,0-.65,0-1.3,0-2-.32-.36-.76,0-1.13-.21a3.29,3.29,0,0,1-.07-1.17c0-.35,0-.7,0-1-.34-.35-.79,0-1.18-.26l-.05-1a.76.76,0,0,0-.26-.12c-.25,0-.5,0-.75,0-.06-.08-.16-.15-.16-.23,0-1.09,0-2.19,0-3.26-.37-.22-.72-.08-1.06-.13-.34-.32,0-.77-.24-1.16l-1-.06c-.31-.32.05-.78-.24-1.15l-1,0a.9.9,0,0,1-.11-.28c0-.65,0-1.3,0-2-.31-.36-.76,0-1.16-.24v-.93c-.38-.38-.83,0-1.21-.29l-.05-1c-.1,0-.18-.11-.27-.11-.25,0-.5,0-.75,0-.05-.07-.15-.15-.16-.22,0-.7,0-1.39,0-2.06-.38-.21-.73-.07-1.06-.13-.05-.08-.14-.16-.14-.24,0-1.09,0-2.19,0-3.32L6.14,101c0-.09-.12-.17-.12-.25,0-.66,0-1.31,0-2,0,0-.06-.07-.13-.17H5c-.1-.09-.16-.12-.17-.16s0-.2,0-.3v-3c-.32-.36-.77,0-1.12-.21,0,0-.07-.08-.08-.12a.75.75,0,0,1,0-.15V90.33c-.35-.34-.8,0-1.19-.27V86.73c-.36-.3-.73,0-1.16-.25.07.06,0,0,0,0a.25.25,0,0,1-.05-.13V79.48c-.37-.21-.73-.07-1.06-.13C.09,79.27,0,79.18,0,79.1q0-9,0-18V50.54l1.08-.06c0-.09.12-.18.12-.26,0-2.1,0-4.21,0-6.31,0-.19-.09-.4.14-.62h.9c.09-.09.14-.12.15-.16s0-.2,0-.3v-3c.33-.36.78,0,1.12-.22a.28.28,0,0,0,.08-.11.38.38,0,0,0,0-.15V36.22c.34-.34.8,0,1.19-.27V32.61c.36-.26.72-.1,1.07-.15.26-.34.11-.75.14-1.13s0-.79,0-1.15c.38-.21.74-.07,1.07-.13,0-.09.13-.17.13-.25,0-.65,0-1.3,0-1.95,0,0,0-.08.1-.16l1-.06c0-.09.11-.17.11-.26,0-.65,0-1.3,0-1.95,0,0,.06-.08.14-.17h1A2.8,2.8,0,0,0,9.61,24c0-.35,0-.7,0-1.05.33-.34.78,0,1.17-.24.1-.7,0-1.45.06-2.18.32-.31.77,0,1.15-.25l0-1c.34-.23.7-.08,1-.12.06-.08.15-.16.15-.24,0-.69,0-1.38,0-2.13h1c.38-.38,0-.83.3-1.21l1-.05c.05,0,.12-.08.12-.12V13.4c.32-.4.77,0,1.12-.23s0-.68.15-1.06.73.07,1.12-.19c.09-.7,0-1.44,0-2.17.33-.31.78,0,1.17-.26v-.9c.21-.27.42-.15.61-.17a3.38,3.38,0,0,1,.45,0c.34-.32,0-.77.21-1.17h1c.08-.14.16-.22.16-.3,0-.69,0-1.38,0-2.11l1.07,0c.23-.17.11-.39.13-.57a3.49,3.49,0,0,0,0-.46c.31-.36.76,0,1.09-.19.22-.34,0-.7.15-1,.05,0,.13-.12.21-.12h2.12l.06,1.09c.09,0,.17.11.25.11h4.06c.14,0,.28,0,.47.05v1a2.8,2.8,0,0,0,1.21.09c.35,0,.7,0,1.05,0,.35.32,0,.78.23,1.14A3.66,3.66,0,0,0,34.9,6c.35,0,.7,0,1,0,.31.35,0,.79.18,1.18l1,0c.06.06.13.1.13.13v.9c.32.37.77,0,1.12.22s0,.67.13,1c.29.3.75-.06,1.13.22l.05,1s.08.11.12.11h2.09c.4.32,0,.77.23,1.12.31.19.67.05,1,.1.35.32,0,.77.25,1.17l1,.05c.31.33,0,.78.26,1.17h.93c.25.37.1.72.14,1.06.08,0,.16.14.24.14.69,0,1.39,0,2.13,0v1c.38.38.83,0,1.21.29l0,1c.1,0,.18.11.27.11h1.95s.07.06.16.14v.94a1.21,1.21,0,0,0,.32.11h6.75c.35.33,0,.78.22,1.13a2,2,0,0,0,1,0,1.15,1.15,0,0,0,.12-.25c0-.28-.08-.59.12-.91H64.8c.23-.38.09-.73.13-1.07.32-.35.77,0,1.18-.25l0-1c.33-.32.78,0,1.16-.24l0-1c.1,0,.18-.11.27-.11h3.16c.37.31,0,.77.21,1.12.32.17.67,0,1,.1.33.32,0,.77.24,1.16l1,0c.3.34,0,.79.26,1.17h.93c.26.37,0,.74.2,1.13s.72-.07,1.11.18c.09.7,0,1.44,0,2.18.33.31.78,0,1.17.25v3.34c.37.26.73.1,1.08.14.26.35.1.76.13,1.14s0,.78,0,1.23h1c.07.13.15.22.15.3,0,.65,0,1.3,0,1.95,0,0,0,.08.1.16l1,.06c.27.31,0,.68.19,1.06,0,0,.08.11.15.11h2.06c.22.38.08.73.13,1.06.08,0,.16.14.25.14q5.1,0,10.22,0a1.31,1.31,0,0,0,.27-.06.75.75,0,0,0,.07-.12.38.38,0,0,0,0-.15V23.11a.68.68,0,0,1,0-.14c.33-.31.78.05,1.17-.25V21.8c.09-.09.12-.15.16-.15H96c.35-.31,0-.76.18-1.08a1,1,0,0,1,.15-.12.75.75,0,0,1,.15,0h3.13c.32-.34,0-.78.19-1.17h9.47c.23.32.06.68.11,1,.34.27.75.11,1.13.13s.78,0,1.15,0c.21.38.08.73.13,1.06.32.34.78,0,1.17.25l0,1c.33.3.78,0,1.17.26v9.35c.37.24.73.09,1.06.14.36.31,0,.77.22,1.11,0,0,.07.08.11.08h9.29c.34-.35,0-.8.27-1.19h2.14c.26-.37.1-.72.15-1.06.31-.37.76,0,1.11-.22.17-.31,0-.67.1-1,.32-.34.78,0,1.18-.26,0-.69,0-1.43,0-2.14.35-.32.8,0,1.19-.28V25.38c.37-.23.72-.09,1.06-.13,0-.08.14-.16.14-.25,0-.69,0-1.38,0-2.12l1.08-.06c0-.08.12-.16.12-.25,0-.65,0-1.3,0-1.95,0,0,.05-.08.11-.15l1,0a.77.77,0,0,0,.11-.28c0-.65,0-1.3,0-1.95.31-.37.77,0,1.16-.25V17c.38-.38.83,0,1.21-.3l.06-1a.81.81,0,0,1,.26-.11h4.36s.1.06.11.1l.09,1c.34.2.69.06,1,.11.34.32,0,.77.24,1.16.7.11,1.44,0,2.18.06.3.33-.05.78.23,1.15h7c.21-.33.06-.69.11-1,.07-.05.15-.15.23-.15h2.14V17c.13-.07.21-.15.29-.15h2s.08,0,.16-.11l0-1c.32-.23.68-.07,1-.12.36-.31,0-.76.21-1.13a3.29,3.29,0,0,1,1.17-.07c.34,0,.69,0,1,0,.35-.33,0-.79.26-1.17l1-.06c.3-.33,0-.78.26-1.17h.93c.24-.37.09-.73.14-1.06.08-.05.16-.14.24-.14h2.13l0-1.07c.33-.32.78,0,1.16-.25l0-1c.34-.24.7-.08,1-.12.37-.32,0-.77.2-1.11.34-.18.69,0,1-.11.34-.32,0-.77.25-1.16l1,0c.25-.32.07-.68.12-1,.3-.39.76,0,1.11-.21.19-.32.05-.67.1-1,.08,0,.16-.14.24-.14h2.12l.06-1.08c.09,0,.17-.12.25-.12h1.95s.08,0,.16-.11l0-1a.84.84,0,0,1,.28-.11h2c.35-.31,0-.76.18-1.08.07-.06.1-.12.14-.12H185c.34.34,0,.79.26,1.17l1,.06c.23.32.06.68.11,1,.31.36.76,0,1.1.2a.74.74,0,0,1,.1.27c0,.65,0,1.3,0,1.94.32.35.78,0,1.17.25l.05,1c.33.3.78,0,1.17.25v.94c.37.24.73.09,1.06.14.36.31,0,.77.25,1.16h.92c.38.38,0,.83.3,1.21l1,.05a1,1,0,0,1,.11.27c0,.65,0,1.3,0,2,.31.37.76,0,1.11.21.18.32,0,.67.1,1,.32.33.78,0,1.18.26,0,.68,0,1.42,0,2.14.35.32.8,0,1.19.27v.94c.37.23.73.09,1.06.14.05.08.14.16.14.24,0,.69,0,1.38,0,2.13l1.07.05c.32.33,0,.78.24,1.16l1,0c0,.11.12.19.12.28,0,.65,0,1.3,0,2,.31.37.77,0,1.14.23a3.39,3.39,0,0,1,.06,1.15c0,.35,0,.7,0,1,.34.35.79,0,1.19.27v2.12c.38.34.83,0,1.22.3v2.14c.37.23.72.09,1.06.14.05.08.13.16.13.24,0,.69,0,1.38,0,2.12l1.08.06c0,.08.12.17.12.25,0,1,0,2.1,0,3.15,0,0,.05.08.11.16l1,0a1.14,1.14,0,0,1,.11.28c0,1.05,0,2.11,0,3.16.31.36.77,0,1.11.21a.87.87,0,0,1,.09.11.75.75,0,0,1,0,.15v4.34c.34.34.79,0,1.18.27v7c.37.26.73.1,1.06.14,0,.08.16.15.16.23V70.82c-.37.21-.72.08-1.06.13-.05.08-.13.16-.13.24,0,1.66,0,3.31,0,5v.77l-1.08.06c0,.08-.12.17-.12.25,0,1,0,2.1,0,3.16,0,0-.05.07-.12.16h-.91c-.09.09-.15.12-.16.16s0,.2,0,.3v8H207a.55.55,0,0,0-.1.11.25.25,0,0,0,0,.13c0,1.49,0,3,0,4.53h-1c-.07.14-.15.22-.15.3,0,.65,0,1.3,0,2,0,0,0,.08.11.16l1,.06s.11.08.11.11c0,.7,0,1.4,0,2.12-.29.37-.75,0-1.08.19,0,0-.1.08-.1.12a1.51,1.51,0,0,0,0,.3v3c-.33.33-.77,0-1.16.2-.11.75,0,1.49-.07,2.23-.33.28-.76,0-1.16.17v2.19c-.09.09-.13.16-.16.16h-.91l-.1.11a.33.33,0,0,0,0,.13c0,1.09,0,2.19,0,3.33h-1c-.07.14-.15.22-.15.3,0,.65,0,1.3,0,2,0,0-.05.07-.1.16l-1,0s-.12.08-.12.12v2.08c-.32.4-.77,0-1.15.25a3.34,3.34,0,0,0-.06,1.14c0,.35,0,.7,0,1-.33.33-.78,0-1.17.2q0,.52-.06,1c-.08,0-.16.12-.25.12-.29,0-.58,0-.92,0v2.24c-.09.09-.12.16-.16.16-.3,0-.6,0-.9,0-.36.32,0,.77-.22,1.17h-1c-.07.13-.16.21-.16.3,0,.65,0,1.3,0,2,0,0,0,.08-.1.16l-1,0c-.24.33-.07.68-.12,1-.3.39-.76,0-1.1.21a1,1,0,0,0-.09.26c0,.65,0,1.3,0,1.95-.33.34-.77,0-1.17.21l0,1c-.34.28-.77,0-1.17.17v1c-.37.25-.73.1-1.06.14,0,.08-.15.16-.15.24,0,.69,0,1.39,0,2.13h-1c-.35.38-.07.82-.23,1.21l-1,.05c-.26.32,0,.69-.24,1.17-.19.24-.64-.14-1,.07-.19.31-.05.67-.1,1-.32.32-.77,0-1.16.19l-.06,1c-.33.28-.77,0-1.17.16v1c-.37.25-.72.1-1.06.14-.36.32,0,.77-.24,1.17h-.93c-.36.38-.07.81-.23,1.2l-1,.06c-.23.32-.07.68-.11,1-.31.38-.77,0-1.12.21-.18.32,0,.67-.1,1-.32.32-.76,0-1.16.19l-.05,1c-.34.28-.77,0-1.17.17v1a1.44,1.44,0,0,1-.31.12h-2.11c0-1.5,0-3,0-4.5a.77.77,0,0,1,.1-.26c.34-.18.79.16,1.1-.21,0-.33-.12-.69.1-1h1c.28.37-.08.82.24,1.14a2.11,2.11,0,0,0,1-.05c.22-.35-.13-.81.22-1.12.33-.05.69.09,1-.1.2-.35-.17-.81.22-1.11.33,0,.69.12,1.05-.15V136c.09-.06.13-.11.17-.11h2a1.13,1.13,0,0,0,.25-.12,2.3,2.3,0,0,0-.05-1c-.35-.23-.8.13-1.12-.21,0-.34-.11-.69.11-1.06h2.05c.08,0,.16-.1.17-.11.17-.37-.07-.73.19-1.07l1,0c.06-.08.11-.12.11-.15,0-.65,0-1.3,0-2,0-.09.08-.17.12-.26l1,0c.27-.39-.09-.84.24-1.16.34-.06.69.07,1.08-.13,0-.31,0-.65-.06-1,0,0-.07-.07-.11-.11h-1.95a1.23,1.23,0,0,0-.3.12v1c-.39.29-.84-.05-1.17.25l-.06,1c-.38.27-.84-.09-1.16.24-.06.34.08.69-.1,1-.35.17-.8-.17-1.11.2,0,.33.11.69-.14,1.05h-.94c-.29.39,0,.84-.25,1.17l-1,.06c-.27.38.09.84-.24,1.16-.34.06-.69-.08-1,.09-.21.36.15.81-.21,1.12h-2.25v-2.4c.38-.06.78.1,1.2-.1,0-.4,0-.79,0-1.18s-.13-.78.13-1.13h1c.08.38-.09.77.1,1.16a1.88,1.88,0,0,0,1.08-.05v-1.11h-1.18c0-.3,0-.6,0-.9a1,1,0,0,1,.12-.31h.94c.3-.39-.05-.84.26-1.17l1.08-.06c0-.73,0-1.42,0-2.12,0-.08.09-.16.14-.24.33-.05.69.08,1-.1.21-.35-.17-.8.22-1.11.34,0,.69.12,1.06-.15v-4.54c.09-.07.13-.12.17-.12.65,0,1.3,0,1.95,0,.08,0,.17-.08.3-.15v-1c.4-.24.85.12,1.17-.24v-4.21a1.51,1.51,0,0,0,0-.3s-.06-.07-.11-.12h-3.38c-.28.37.07.82-.23,1.15l-1,0c-.26.39.1.84-.24,1.16-.34.06-.69-.08-1.06.14,0,.66,0,1.36,0,2,0,.08.1.15.16.23.33,0,.69-.12,1,.11v1c-.07,0-.11.1-.15.1H177c-.09,0-.17.08-.3.15v1h-3.33c-.08,0-.16.09-.24.14,0,.34.1.69-.14,1.06h-1.07c0,.79,0,1.53,0,2.27,0,0,.06.07.1.11l1.08.06c0,.73,0,1.42,0,2.11,0,.09-.09.17-.13.25-.34,0-.69-.09-1,.1-.21.34.17.8-.23,1.12h-.89s-.07.07-.1.1V131c.37.27.82-.09,1.2.29v.92c.4.24.85-.11,1.17.24v1.06h-.9a.93.93,0,0,0-.26.1c-.19.34.17.79-.2,1.1-.34,0-.69-.11-1,.11v1c.07.06.1.12.14.12h2.24c0,.3,0,.6,0,.9a.7.7,0,0,1-.1.26c-.34.19-.79-.18-1.1.21,0,.33.12.69-.11,1l-1.09.05v3.58c0,.4,0,.8,0,1.2a2.78,2.78,0,0,1-.1,1.2h-1c-.08.09-.14.13-.14.17v3.44h-1.07c-.25-.35-.1-.76-.13-1.14s0-.79,0-1.23h-1c-.08-.14-.16-.22-.16-.3,0-1,0-2.11,0-3.16,0,0,0-.08-.1-.16l-1,0a.81.81,0,0,1-.11-.26c0-1,0-2.11,0-3.16-.31-.37-.76,0-1.13-.22a3.22,3.22,0,0,1-.07-1.16c0-.34,0-.7,0-1-.33-.35-.78,0-1.17-.25l-.06-1c-.32-.3-.78.05-1.15-.24l0-1c-.34-.26-.71,0-1.13-.21s.09-.68-.15-1.08h-.92c-.38-.37,0-.83-.3-1.21l-1-.05c-.23-.32-.06-.68-.11-1-.31-.39-.76,0-1.11-.22-.18-.15-.07-.36-.09-.55a3.38,3.38,0,0,1,0-.45c-.09-.05-.17-.14-.25-.14h-2.12l-.06-1.08c-.33-.31-.78,0-1.16-.24l0-1a.77.77,0,0,0-.28-.11h-2c-.37-.31,0-.77-.25-1.16h-.92c-.38-.38,0-.83-.31-1.22h-2.12c-.34-.39,0-.83-.3-1.22h-.92c-.08-.09-.14-.13-.14-.16,0-.3,0-.6,0-.9-.32-.35-.78,0-1.12-.22,0,0-.08-.07-.08-.11v-4.48c.35-.33.8,0,1.18-.26l0-1c.34-.23.7-.08,1-.12,0-.08.15-.15.15-.23,0-.7,0-1.39,0-2,.37-.23.73,0,1.08-.16,0-.06.11-.14.11-.22,0-1,0-2.11,0-3.16,0,0,.05-.08.1-.16l1-.06c0-.09.12-.17.12-.25v-7.37a1.37,1.37,0,0,1,.09-.76h1a3,3,0,0,0,.1-1.22c0-.34,0-.7,0-1.06.36-.25.77-.1,1.15-.13s.78,0,1.23,0l.05,1.07c.32.32.78,0,1.15.24l0,1c.33.24.69.08,1,.12.37-.31,0-.76.21-1.12a2.15,2.15,0,0,1,1-.07c.32.33,0,.77.16,1.09.38.19.72,0,1,.12.33-.38,0-.83.29-1.21h.9c.26-.21.14-.43.17-.62s0-.3,0-.44.16-.15.24-.15h4.46a2.09,2.09,0,0,1,.09,1.1c-.36.22-.77.06-1.15.09s-.8,0-1.2,0h-1.2v3.5c.31.22.67.06,1,.11.39-.31,0-.77.24-1.14a3.32,3.32,0,0,1,1.14-.06c.35,0,.7,0,1,0,.33-.33,0-.77.2-1.17.75-.08,1.5,0,2.25,0,.23-.37.05-.77.1-1.16s-.09-.78.09-1.21h.95c.09-.1.14-.12.16-.17a.32.32,0,0,0,0-.14V93.79c.4,0,.8,0,1.2,0a2.76,2.76,0,0,0,1.2-.09q0-4.65,0-9.29c0-.08-.09-.15-.15-.23-.33,0-.69-.12-1,.12l-.05,1c-.37.29-.82-.06-1.17.27v2.07s0,.08.08.11c.34.24.79-.12,1.12.23V90s-.06.08-.12.14c-.32.16-.77-.17-1.08.18v3.46h-1.21V84.17a4.27,4.27,0,0,0,1.21-.09V81.76a4.45,4.45,0,0,0,1.15-.06,1.82,1.82,0,0,0-.05-1.11h-1a4.69,4.69,0,0,0-.06,1.17,4,4,0,0,0-1.21.1v2.31h-1.06c-.26-.35-.1-.76-.13-1.14s0-.79,0-1.23h-1c-.07-.14-.15-.22-.15-.3,0-.69,0-1.38,0-2.11l-1.09,0c-.23-.33-.07-.69-.11-1-.31-.39-.77,0-1.12-.22-.17-.32,0-.67-.1-1-.32-.32-.76,0-1.15-.19l-.06-1c-.34-.27-.77,0-1.17-.17v-1c-.37-.23-.73-.09-1.07-.13-.33-.32,0-.77-.21-1.17l-1,0c-.29-.33,0-.77-.18-1.17h-2.2c-.27-.37-.11-.73-.15-1.08-.35-.26-.75-.1-1.13-.13s-.79,0-1.16,0c-.2-.38-.06-.73-.13-1.06-.08,0-.16-.13-.24-.13h-3.32l-.06-1.08c-.09,0-.17-.12-.25-.12H134.09c-.19,0-.4-.09-.62.14v.91c-.09.08-.12.14-.16.14a1.51,1.51,0,0,1-.3,0h-3c-.34.32,0,.77-.21,1.17-.74.09-1.48,0-2.22.06-.29.32,0,.76-.17,1.16h-2.22c-.25.37-.1.73-.14,1.06-.31.37-.77,0-1.12.22-.17.32,0,.67-.1,1-.32.31-.76,0-1.15.18l-.06,1c-.32.24-.68.07-1,.12-.39.31,0,.76-.22,1.11-.32.19-.67,0-1,.1-.33.32,0,.77-.2,1.16l-1,.06c-.28.33,0,.77-.17,1.17h-1c-.28.37,0,.73-.23,1.16-.23.26-.68-.1-1.1.16-.05.69,0,1.43,0,2.16-.33.33-.78,0-1.15.24v64.71c.33.27.76,0,1.14.15v2.26c-.35.21-.7.07-1,.12,0,.08-.13.16-.13.24q0,7.14,0,14.28v13.09l-1.08.06c0,.08-.12.17-.12.25v7.36a1.56,1.56,0,0,1-.08.76l-1,0a1.14,1.14,0,0,0-.11.28c0,.65,0,1.3,0,2,.31.36.76,0,1.11.21,0,0,.08.07.08.11,0,1.1,0,2.2,0,3.29-.34.32-.78,0-1.17.19v1c.31.23.67.06,1,.11.06.07.16.15.16.22,0,.7,0,1.39,0,2.06-.37.21-.73.08-1.06.13,0,.08-.14.16-.14.24,0,.69,0,1.39,0,2.12l1.11.06a1.94,1.94,0,0,1,0,1.17h-1c-.05.14-.12.22-.12.31,0,.65,0,1.3,0,2,.32.34.76,0,1.08.17.06.07.11.11.11.15,0,1.9,0,3.8,0,5.69-.35.32-.79,0-1.17.19v1c.31.26.68,0,1.06.19,0,0,.1.08.1.16,0,1.09,0,2.19,0,3.25-.38.21-.73.08-1.07.14-.33.35,0,.74-.18,1.15l1.13.06c0,.09.11.17.11.26q0,6,0,12v72.89s.06.08.13.17h.93c.25.37.1.73.14,1.06-.32.36-.77,0-1.11.21-.15,1.73-.18,10.6-.07,17.85.32.32.77,0,1.15.23v1c-.32.23-.68.06-1,.11,0,.08-.15.15-.15.23,0,1.09,0,2.19,0,3.25.37.22.73.08,1.06.14,0,.08.13.16.13.24,0,.69,0,1.38,0,2.12l-1.08.06c0,.08-.12.17-.12.25v5.26c0,.14,0,.28,0,.47h1c.1.09.16.12.17.16s0,.2,0,.3v5.41c-.32.35-.77,0-1.11.21,0,0-.09.08-.09.11v4.49c.34.34.8,0,1.17.25v1c-.32.26-.68,0-1.06.18,0,0-.1.09-.1.17,0,.45,0,.9,0,1.35v30.76c.37.21.73.08,1.09.14a1.73,1.73,0,0,1,.05,1.15l-1,.06a1.13,1.13,0,0,0-.12.25c0,.45,0,.91,0,1.36V481h-1.07c-.24.37-.09.73-.13,1.06-.32.36-.77,0-1.17.22v1c-.14.07-.22.15-.3.15H108.4s-.07.05-.15.1l-.06,1a.81.81,0,0,1-.26.11h-5.26c-.14,0-.28,0-.47-.06v-1a1.17,1.17,0,0,0-.31-.11H98.74c-.33-.34,0-.78-.2-1.17l-1-.06c-.27-.33,0-.77-.16-1.17h-1a1,1,0,0,1-.12-.31q0-151.87,0-303.74c-.3-.39-.76,0-1.1-.22,0,0-.1-.07-.1-.11V155.24a1.7,1.7,0,0,1,1.16-.07c.11.74,0,1.49.07,2.23.33.27.76,0,1.17.16v2.26c.42.2.82.05,1.21.1v2.22s.05.07.09.14a1.81,1.81,0,0,0,1.08-.05V160a4.24,4.24,0,0,0-1.17-.07v-3.6H97.51c-.23-.42-.06-.82-.11-1.2s.09-.78-.1-1.21h-1a2.93,2.93,0,0,1-.09-1.2c0-.35,0-.7,0-1.05-.3-.38-.75,0-1.1-.21,0,0-.08-.06-.1-.1a.75.75,0,0,1,0-.15v-3.14c.31-.37.75,0,1.1-.21s.06-.67.1-1c.32-.36.76,0,1.09-.19,0-.06.11-.09.11-.13,0-.75,0-1.49,0-2.24a4.27,4.27,0,0,0,1.21-.09c0-.77,0-1.54,0-2.32a3.73,3.73,0,0,0,1.18-.08c0-1.1,0-2.18,0-3.27,0-.08.08-.16.15-.29h1a1.79,1.79,0,0,0-.06-1.17H98.79s-.08,0-.16.1c0,1.55,0,3.13,0,4.7a4,4,0,0,0-1.23.1v2.31h-1c-.34.32,0,.76-.18,1.1a2.07,2.07,0,0,1-1,.08c0-.08-.12-.16-.12-.24,0-.45,0-.9,0-1.36V83.16s0-.08-.1-.16l-1-.06c-.27-.31,0-.68-.25-1.18-.18-.22-.63.15-1-.05a.8.8,0,0,1-.09-.26c0-.65,0-1.3,0-1.94-.33-.35-.78,0-1.18-.25l0-1c-.33-.31-.78,0-1.16-.24l0-1c-.34-.23-.69-.07-1-.12-.36-.31,0-.76-.26-1.18-.69,0-1.43,0-2.16,0-.33-.33,0-.78-.25-1.16l-1,0c0-.1-.11-.18-.11-.27,0-.25,0-.5,0-.75-.07-.05-.15-.15-.22-.16h-2c-.24-.22-.13-.43-.15-.62a3.23,3.23,0,0,1,0-.44c-.09-.05-.17-.14-.25-.14H80.6l-.06-1.07a.61.61,0,0,0-.26-.12H77.13s-.08-.06-.17-.13V69.9c-.09-.09-.12-.15-.16-.16H62.53v-1.2H61.32V67.49c.31-.37.76,0,1.11-.21s.06-.66.1-1c.31-.37.75,0,1.1-.21a.8.8,0,0,0,.09-.26c0-.29,0-.59,0-.89.38,0,.78-.1,1.21.1v2.35c.42-.14.8.1,1.17-.16l0-1a1.8,1.8,0,0,1,1.21.08v1.06c.74,0,1.44,0,2.13,0,.08,0,.16-.09.19-.11.14-.36-.08-.72.17-1.06H72c.28.36-.06.81.27,1.19H77c0,.33,0,.62,0,.91,0,.09.08.17.14.3.31-.09.66.07,1-.1.22-.34-.13-.8.21-1.12.33,0,.68-.1,1,.09s-.16.8.22,1.11c.33-.05.69.11,1-.15V65c.33-.19.63-.07.92-.11a1.87,1.87,0,0,0,.25-.12l.06-1c.39-.16.83.12,1.17-.19,0-.7,0-1.4,0-2.1,0,0,0-.07-.09-.11-.34-.21-.79.15-1.11-.21,0-.33.11-.69-.13-1.06H79.32c.13-.42-.11-.8.15-1.17l1,0a1.73,1.73,0,0,0,0-1.15c-.36-.08-.71.06-1.09-.14V50.75c0-.08.09-.16.14-.24.34,0,.69.08,1.06-.13,0-1.32,0-2.66,0-4,0-.24-.1-.51.15-.69H83c0,.74,0,1.48,0,2.22,0,0,0,.08.09.14a1.81,1.81,0,0,0,1.08,0V45.76A4.24,4.24,0,0,0,83,45.69c0-.3,0-.6,0-.9a1,1,0,0,0-.12-.31h-1c-.3-.39,0-.84-.25-1.17l-1.08-.06V39.93c0-.08-.09-.16-.12-.21-.35-.13-.71.08-1-.14s.18-.8-.22-1.1c-.33.05-.69-.12-1,.14V64.86a1.82,1.82,0,0,1-1.22-.06V63.73H66.67c-.5,0-1,0-1.5,0a4.62,4.62,0,0,0-1.44.08v1.12H60.28c-.21.13-.16.34-.16.53V66c-.09.08-.12.12-.17.14a.65.65,0,0,1-.14,0H56.65c-.25.36-.1.77-.13,1.15s0,.78,0,1.24c-1.59,0-3.13,0-4.67,0-.33.32,0,.77-.24,1.16l-1,.05a.81.81,0,0,0-.12.25c0,.29.07.59-.12.92H48.24c-.26.36-.1.72-.14,1.06-.31.38-.77,0-1.11.21s0,.67-.16,1.06-.71-.07-1.11.19l0,1c-.32.32-.78,0-1.15.24l-.05,1a.9.9,0,0,1-.27.12c-.25,0-.5,0-.75,0-.05.08-.15.15-.16.22,0,.7,0,1.39,0,2.06-.37.23-.72.09-1.07.13-.25.35-.1.76-.13,1.14s0,.78,0,1.15c-.38.19-.73.06-1.06.13-.05.08-.13.16-.13.24,0,1.49,0,3,0,4.52l-1.07,0c-.05.09-.13.17-.13.25v7.65c0,.14,0,.28,0,.46l1,.06c0,.09.12.17.12.25V98c0,.19-.06.39.1.61l1,.05a.67.67,0,0,1,.12.26c0,.65,0,1.3,0,2,0,0,.06.08.13.17h1c.21.42,0,.82.11,1.2H41.05s-.07-.06-.16-.13v-.93c-.37-.25-.72-.1-1-.14-.06.08-.15.15-.15.23,0,.69,0,1.38,0,2-.36.23-.71.09-1,.13-.36-.32,0-.76-.19-1.1a.82.82,0,0,0-.27-.1h-.9V98.6a5,5,0,0,0,1.16-.06,1.89,1.89,0,0,0,0-1.11h-1a5.18,5.18,0,0,0-.07,1.17h-1.2c0-.39.11-.79-.1-1.21-1.09,0-2.19,0-3.28,0-.08,0-.15-.1-.16-.11-.17-.37.08-.74-.18-1H31.26c0,.31,0,.6,0,.89a.82.82,0,0,1-.12.25l-1,.06a1.76,1.76,0,0,0,0,1.12c.37.13.73-.07,1.07.16.16.33-.17.78.19,1.09h2.25a4.6,4.6,0,0,1-.06,1.12c-.37.23-.8-.1-1.12.21l-.05,1a3.67,3.67,0,0,1-1.18.08c0-.29,0-.59,0-.89a1.12,1.12,0,0,0-.1-.27,1.61,1.61,0,0,0-1.1.1v1.06a4.54,4.54,0,0,0-1.2.08c0,.4,0,.79,0,1.18s-.12.77.09,1.11h1c.05-.07.1-.11.1-.15V102.2h1.2a3.63,3.63,0,0,0,.1,1.21h2c.08,0,.16-.08.29-.15v-1ZM157.52,52.9a5.06,5.06,0,0,0-1.16.07,1.82,1.82,0,0,0,0,1.11h1a5.25,5.25,0,0,0,.07-1.17h.89a.82.82,0,0,0,.27-.1,1.61,1.61,0,0,0-.1-1.1h-1.06a4.45,4.45,0,0,0-.07-1.15c-.38-.17-.81.14-1.13-.19,0-.33.08-.68-.1-1a1.63,1.63,0,0,0-1.07,0v2.2c.07,0,.11.1.14.1h2.23Zm-49.3,126.28c.37-.09.77.08,1.15-.11a1.73,1.73,0,0,0-.05-1.08h-1c-.06.07-.11.1-.11.14,0,.34,0,.69,0,1-.38.1-.77-.07-1.16.11a1.92,1.92,0,0,0,0,1.09h1.11Zm4.81-8.41c.37-.1.77.07,1.15-.11a1.76,1.76,0,0,0-.05-1.09h-1c-.06.07-.11.11-.11.15,0,.34,0,.68,0,1-.38.09-.77-.08-1.16.11a1.88,1.88,0,0,0,0,1.08h1c0-.07.1-.1.1-.14C113,171.43,113,171.08,113,170.77Zm50.47-40.91c.09.38-.07.77.11,1.16a1.92,1.92,0,0,0,1.09-.05v-1c-.07-.05-.11-.11-.15-.11h-1a4.93,4.93,0,0,0-.06-1.15,1.89,1.89,0,0,0-1.11,0v1.11ZM101,85.37a4.93,4.93,0,0,0,.06,1.15,1.89,1.89,0,0,0,1.11,0v-1a4.66,4.66,0,0,0-1.17-.07,4.45,4.45,0,0,0-.06-1.15,1.9,1.9,0,0,0-1.11,0v1A4.24,4.24,0,0,0,101,85.37ZM38.48,68.54a4.93,4.93,0,0,0-.06-1.15,1.89,1.89,0,0,0-1.11,0v1a4.66,4.66,0,0,0,1.17.07,4.45,4.45,0,0,0,.06,1.15,1.82,1.82,0,0,0,1.11,0v-1A4.24,4.24,0,0,0,38.48,68.54Zm-18,27.65a4.93,4.93,0,0,0,.06,1.15,1.89,1.89,0,0,0,1.11,0v-1a4.66,4.66,0,0,0-1.17-.07A4.45,4.45,0,0,0,20.38,95a1.82,1.82,0,0,0-1.11,0v1A4.24,4.24,0,0,0,20.44,96.19ZM27.65,50.5a4.94,4.94,0,0,0,.07,1.15,1.9,1.9,0,0,0,1.11,0v-1a4.71,4.71,0,0,0-1.17-.07,4.94,4.94,0,0,0-.07-1.15,1.86,1.86,0,0,0-1.1,0v1A4.19,4.19,0,0,0,27.65,50.5Zm129.86-18a5.06,5.06,0,0,0,.07,1.16,1.82,1.82,0,0,0,1.11,0v-1a5.25,5.25,0,0,0-1.17-.07v-1.2h-1.21a4.16,4.16,0,0,0-.08-1.2c-.39,0-.78,0-1.17,0s-.78-.13-1.12.08v1c.08.05.12.1.15.1h2.22v1.2ZM98.57,174.35c.09.38-.07.77.11,1.15a1.84,1.84,0,0,0,1.09,0v-1.11H98.6v-2.41H97.39v-3.6a4.59,4.59,0,0,0,1.21-.08c0-.4,0-.79,0-1.17s.12-.78-.09-1.12h-1c0,.07-.1.11-.1.15,0,.74,0,1.48,0,2.22-.38,0-.78-.11-1.2.1v3.27a.35.35,0,0,0,0,.13.52.52,0,0,0,.11.1h1v2.41Zm13.23-28.86c.09.38-.08.77.11,1.16a1.88,1.88,0,0,0,1.08-.05v-1.11h-1.17v-2.22s0-.07-.09-.14a1.81,1.81,0,0,0-1.08.05v2.24A4.14,4.14,0,0,0,111.8,145.49ZM27.65,85.37a4.94,4.94,0,0,0,.07,1.15,1.9,1.9,0,0,0,1.11,0v-1a4.71,4.71,0,0,0-1.17-.07c0-.74,0-1.48,0-2.22,0,0,0-.07-.09-.14a1.81,1.81,0,0,0-1.08,0V85.3A4.24,4.24,0,0,0,27.65,85.37Zm18-61.32v-1.2h3.15c.1,0,.2,0,.3,0s.07.06.12.11c.17.33-.17.78.2,1.09h3.15c.09,0,.17.07.28.12l0,1a3.58,3.58,0,0,0,1.21.08,9.45,9.45,0,0,0,1.19,0c.39,0,.79.13,1.18-.11,0-.3,0-.59,0-.89,0,0,0-.08-.12-.19h-2c-.08,0-.16-.08-.3-.15v-1H52c-.08,0-.16-.09-.24-.14-.05-.34.09-.69-.1-1-.35-.2-.8.17-1.11-.22,0-.34.12-.69-.15-1.06H48.22c-.29-.38.06-.84-.25-1.16-.74-.07-1.48,0-2.17-.05-.27-.39.09-.85-.26-1.17-.34,0-.69,0-1,0A3.25,3.25,0,0,1,43.34,18c-.18-.37.15-.81-.21-1.13H40.88a4.54,4.54,0,0,0-.06-1.16,1.82,1.82,0,0,0-1.11.05v1a4.65,4.65,0,0,0,1.17.06c0,.3,0,.6,0,.9A.84.84,0,0,0,41,18c.34.2.79-.15,1.1.21,0,.33-.1.68.1,1s.8-.17,1.11.21v1H40.88c0-.3,0-.6,0-.89a.93.93,0,0,0-.1-.26c-.34-.19-.79.16-1.1-.21,0-.33.1-.68-.1-1s-.79.16-1-.09c-.2-.44,0-.8-.23-1.16-.36,0-.76,0-1.15,0s-.78-.13-1.12.14V18c-.38.05-.79-.11-1.17.08v2.21c.37.28.82-.07,1.16.25,0,.72,0,1.46,0,2.27.75,0,1.44,0,2.13,0,.08,0,.16.09.24.13.07.33-.07.69.13,1.07.37,0,.76,0,1.15,0s.79.13,1.14-.13V21.64c.38.05.77-.09,1.13.06.22.37-.12.81.25,1.17.29-.11.63.09,1-.15V20.44c.37,0,.77-.09,1.12.06.22.37-.1.8.21,1.12l1,.05a3.67,3.67,0,0,1,.08,1.18c-.38,0-.78-.1-1.16.07a1.62,1.62,0,0,0,.1,1.13h1.06v1.2c-.3,0-.6,0-.89,0a.8.8,0,0,0-.26.09c-.2.35.17.8-.21,1.1h-.9s-.07-.06-.15-.15v-1a2,2,0,0,0-1.17,0V28.8c.17,0,.31.06.44.06h4a.77.77,0,0,1,.26.1,1.5,1.5,0,0,1-.1,1.1c-.35,0-.7-.11-1,.11v1.09H49.3a4.45,4.45,0,0,0,.06,1.15,1.9,1.9,0,0,0,1.11,0v-1a4.66,4.66,0,0,0-1.17-.07v-1.2a3.57,3.57,0,0,0,1.2-.1c0-.38,0-.77,0-1.16s.13-.78-.13-1.17H47c-.27-.37,0-.81-.22-1.13s-.79.16-1.1-.21v-1h2.25s.07-.07.12-.11A1.53,1.53,0,0,0,48,24.05ZM150.3,55.31a4.45,4.45,0,0,0-.06-1.15,1.9,1.9,0,0,0-1.11,0v1a4.24,4.24,0,0,0,1.17.07,4.14,4.14,0,0,0,.08,1.2c.4,0,.79,0,1.17,0s.78.12,1.12-.09v-1c-.07,0-.11-.1-.15-.1Zm-96.19,6H51.89s-.08.05-.17.11c0,.69,0,1.42,0,2.15,0,0,.07.07.1.11h1c.13-.38-.1-.8.13-1.11s.8.15,1.11-.23v-1a4.45,4.45,0,0,0,1.15-.06,1.9,1.9,0,0,0,0-1.11h-1A4.24,4.24,0,0,0,54.11,61.32Zm8.42-26.45h2.22s.07,0,.17-.12c0-.69,0-1.42,0-2.15,0,0-.06-.07-.1-.1h-1c-.15.37.1.8-.15,1.13-.35.15-.78-.15-1.09.2v1a4.54,4.54,0,0,0-1.16.06A1.82,1.82,0,0,0,61.42,36h1A5.18,5.18,0,0,0,62.53,34.87ZM22.85,90.18a4.16,4.16,0,0,0,1.2-.08V86.84a.32.32,0,0,0,0-.14.36.36,0,0,0-.08-.09H23c-.05.08-.1.12-.1.16,0,1.13,0,2.27,0,3.41a4.23,4.23,0,0,0-1.21.08c0,.4,0,.79,0,1.17s-.12.78.09,1.12h1c.05-.07.1-.11.1-.15C22.85,91.66,22.85,90.92,22.85,90.18ZM37.28,74.55a4.54,4.54,0,0,0-.09-1.2c-.39,0-.78,0-1.17,0s-.77-.12-1.11.09v1c.07,0,.11.1.15.1h2.22a5.16,5.16,0,0,1-.06,1.12c-.38.22-.82-.12-1.14.22A2.19,2.19,0,0,0,36.19,77c.36,0,.74,0,1.13,0s.78.13,1.13-.1V74.62A4.24,4.24,0,0,0,37.28,74.55Zm102.2-32.5h4.75a1.87,1.87,0,0,0,0-1.17H140c-.19,0-.39-.05-.52.17v1h-2.41c0-.29,0-.59,0-.89a.89.89,0,0,0-.09-.26c-.35-.19-.79.16-1.11-.2,0-.33-.1-.69.1-1,.35-.19.79.17,1.1-.21,0-.33.11-.68-.09-1s-.8.16-1.11-.21c0-.34-.11-.69.14-1h2c.07,0,.15-.1.23-.15a3.38,3.38,0,0,1,0-.45c0-.18-.1-.4.11-.56s.78.17,1.09-.2v-1h2.22s.07,0,.14-.1a1.78,1.78,0,0,0-.05-1.07h-2.24a4.24,4.24,0,0,0-.07,1.17c-.38,0-.79.1-1.21-.1v-1.1c-.43,0-.82,0-1.21,0s-.79-.12-1.2.12V36c-.33.19-.63.07-.92.12a1,1,0,0,0-.25.12l-.05,1c-.39.26-.84-.09-1.16.24a2.13,2.13,0,0,0,.08,1c.35.17.79-.17,1.11.19v6.9s.06.07.12.13c.32.16.77-.17,1.08.19v2.24a4.16,4.16,0,0,0-1.2.09v3.26a.27.27,0,0,0,0,.13.47.47,0,0,0,.09.1h1c0-.08.1-.12.1-.16V48.1c.38-.06.79.1,1.2-.1,0-1.09,0-2.18,0-3.27,0-.08-.1-.16-.11-.19-.36-.15-.72.07-1.09-.19,0-.35,0-.75,0-1.14s-.13-.78.13-1.13h1.06c.05.38-.09.78.06,1.13.38.22.81-.11,1.17.25v2.23h1.18c.05.38-.09.78.08,1.16.36.16.79-.14,1.12.19v2.07s-.05.07-.11.17c-.31.12-.74-.14-1.06.13v1c.08.05.11.1.15.1h2.22c0,.39.11.79-.1,1.21h-1.1c0,.44,0,.83,0,1.22s.13.79-.09,1.16c-.76.07-1.5,0-2.24,0a1.76,1.76,0,0,0,0,1.16c.36.06.71-.08,1.06.12v1a3.17,3.17,0,0,1-1.18.08,9.77,9.77,0,0,1-1.21,0c-.38,0-.78.12-1.2-.12V53a1.85,1.85,0,0,0-1.19.05v5.72s.06.07.13.18h2c.08,0,.16-.09.24-.14.05-.33-.1-.69.13-1.06h9.35c.08-.09.14-.12.14-.16,0-1,0-2.1,0-3.16,0-.08.07-.16.11-.26l1-.05c.27-.38-.09-.84.24-1.16,1.14,0,2.28,0,3.47,0,0-.46,0-.86,0-1.25s.12-.79-.13-1.14H150.3V49.3h2.22s.08.05.12.08c.22.34-.12.78.21,1.12h.87s.08,0,.19-.13V46.9a4.94,4.94,0,0,0,1.15-.07,1.82,1.82,0,0,0-.05-1.11h-1a4.28,4.28,0,0,0-.07,1.17H150.3a3.85,3.85,0,0,0-.09-1.2h-3.52a4.25,4.25,0,0,1,.09-1.21H149c.07-.08.13-.12.13-.16,0-.65,0-1.3,0-1.94,0-.09.07-.17.12-.28l1.09-.05c0-.36,0-.7,0-1,0,0-.07-.07-.13-.13h-3.26a1.58,1.58,0,0,0-.2.12c0,.35,0,.74,0,1.12s.12.79-.12,1.17h-3.3s-.08.05-.2.14c.13.31-.18.7.16,1,.33.05.68-.08,1,.11.17.34-.16.79.19,1.1h2.25a3.57,3.57,0,0,0,.1,1.2h3.51V49.3h-3.43s-.08,0-.11-.08c-.22-.34.13-.79-.21-1.11-.33-.05-.68.08-1-.09-.2-.35.15-.8-.21-1.12-.33,0-.68-.1-1.05.13,0,.66,0,1.35,0,2,0,.08-.09.16-.14.24-.33,0-.69-.1-1,.09-.2.35.16.8-.21,1.11h-1.05V45.83c-.1-.08-.14-.13-.17-.13h-2.23ZM27.66,58.92a4.94,4.94,0,0,0-.07-1.15,1.86,1.86,0,0,0-1.1,0v1a4.61,4.61,0,0,0,1.16.07,4.25,4.25,0,0,0,.09,1.21h1c.29.39-.05.84.27,1.19h2.07s.08,0,.2-.13c-.12-.31.17-.7-.14-1-.34-.07-.69.07-1-.1-.21-.36.15-.81-.21-1.12Zm22.84-18a4.16,4.16,0,0,0-.08-1.2c-.4,0-.79,0-1.17,0s-.78-.13-1.12.08v1c.08,0,.11.1.15.1.74,0,1.48,0,2.22,0a4.33,4.33,0,0,0,.08,1.16H55a.32.32,0,0,0,.14,0s.07-.07.11-.1a2.18,2.18,0,0,0-.07-1C53.66,40.92,52.08,40.92,50.5,40.88Zm119,91.38c.09.38-.08.77.11,1.16a1.81,1.81,0,0,0,1.08,0v-1c-.07-.05-.11-.1-.14-.1h-1c0-.7,0-1.4,0-2.1a1,1,0,0,0-.12-.31h-.94c-.3-.38,0-.83-.25-1.16h-1c0,.08-.09.12-.09.16q0,1,0,2c0,.08.08.17.16.3h.94c.25.4-.11.85.25,1.16ZM176.76,83a5.06,5.06,0,0,0-.07-1.16,2,2,0,0,0-1.11,0v1a4.77,4.77,0,0,0,1.18.07,4.25,4.25,0,0,1-.09,1.21h-1.12c0,.78,0,1.52,0,2.26,0,0,.07.07.09.1h1c.27-.38-.09-.83.24-1.15.33-.07.69.07,1.07-.14,0-.36,0-.76,0-1.15s.13-.78-.13-1.13ZM26.42,27.66a3.68,3.68,0,0,0-1.17.08V32.2a.24.24,0,0,0,0,.14.32.32,0,0,0,.1.1,2.19,2.19,0,0,0,1-.06c0-1.57,0-3.15,0-4.72a4.25,4.25,0,0,0,1.21-.09c0-1.09,0-2.17,0-3.26a.3.3,0,0,0,0-.13s-.07-.07-.09-.09h-1c-.05.07-.09.11-.09.15C26.45,25.38,26.45,26.52,26.42,27.66Zm42.12,2.4a4.45,4.45,0,0,0,.06,1.15,1.9,1.9,0,0,0,1.11,0v-1a4.24,4.24,0,0,0-1.17-.07c0-.74,0-1.48,0-2.23,0,0,0-.07-.09-.13a1.7,1.7,0,0,0-1.09.07c-.06.35.06.7-.13,1.09-.36,0-.75,0-1.13,0s-.78-.12-1.12.09v1c.07.05.11.1.15.1ZM24.05,14.43c-.38.05-.77-.09-1.13.06-.22.37.11.81-.25,1.17h-1c0,.82,0,1.6,0,2.37a5,5,0,0,0-1.16.07,1.82,1.82,0,0,0,.05,1.11h1A4.69,4.69,0,0,0,21.64,18c.38-.05.78.09,1.13-.06.22-.37-.11-.81.26-1.18h1V14.43a4.93,4.93,0,0,0,1.15-.06,1.89,1.89,0,0,0,0-1.11h-1A4.24,4.24,0,0,0,24.05,14.43Zm1.2,85.37H21.8s-.07.07-.13.14v1c.07,0,.11.11.14.11h2c.08,0,.16.07.25.11l.06,1c.08.05.12.1.16.1h2c.08,0,.17-.09.25-.13a2.11,2.11,0,0,0-.07-1c-.35-.22-.8.14-1.12-.22v-1a4.45,4.45,0,0,0,1.15-.06,1.9,1.9,0,0,0,0-1.11h-1A4.24,4.24,0,0,0,25.25,99.8ZM40.88,40.88a4.2,4.2,0,0,1,1.21.09v1.11c1.14,0,2.23,0,3.32,0,.08,0,.17-.08.24-.11V41c-.07,0-.11-.09-.15-.09h-2c-.09,0-.17-.09-.25-.13-.06-.34.07-.69-.13-1.07-.37,0-.76,0-1.15,0s-.79-.13-1.14.13v1.06a4.93,4.93,0,0,0-1.15.06,1.89,1.89,0,0,0,0,1.11h1A4.24,4.24,0,0,0,40.88,40.88ZM162.32,73.35c0,.74,0,1.48,0,2.22,0,0,0,.07.12.17h2.14s.07-.06.11-.1v-1c-.38-.16-.8.1-1.13-.16-.16-.35.14-.78-.2-1.09h-1.05V68.67c-.1-.08-.14-.13-.17-.13h-2.23c0-.39.1-.79-.08-1.16a1.54,1.54,0,0,0-1.12.1v1.06h-3.16a1.51,1.51,0,0,1-.3,0s-.06-.07-.12-.13V66.24c.3-.19.6-.08.89-.1.08,0,.17.07.26.11l.06,1.13c.41-.16.8.14,1.17-.19,0-.69,0-1.39,0-2.09,0,0-.06-.07-.13-.17h-2c-.08,0-.16-.09-.24-.14,0-.34.11-.69-.14-1.06h-3.42c-.15-.4.11-.83-.2-1.22H144.4c-.28-.39.08-.84-.26-1.18h-4.48s-.08.05-.12.08c-.21.34.14.8-.21,1.12h-3.15a1,1,0,0,0-.31.12v1.12c-.43-.13-.8.1-1.18-.15l-.05-1a1.8,1.8,0,0,0-1.13,0c-.12.37.07.73-.17,1.11h-2c-.08,0-.16-.09-.24-.15,0-.33.11-.69-.14-1h-1.11c.15-.43-.11-.81.16-1.17l1.09-.06c0-.74,0-1.43,0-2.12,0-.08-.09-.16-.12-.21-.35-.13-.71.07-1.08-.17,0-.36,0-.75,0-1.15s.13-.78-.14-1.13c-.34.05-.7-.11-1.06.15V61.2c-.39.29-.84-.06-1.2.27,0,.32,0,.67,0,1a3.67,3.67,0,0,1,0,1.15c-.37.25-.82-.11-1.14.23a2,2,0,0,0,.12,1.06h2.18a2.8,2.8,0,0,1,.09,1.21c0,.4,0,.8,0,1.2s-.12.79.09,1.16h3.47c.15-.38-.12-.81.21-1.19H143c.17-.4-.12-.84.19-1.16a2.1,2.1,0,0,1,1,.06c.22.36-.14.81.22,1.12H150a.38.38,0,0,1,.15,0s.07.07.16.16v1c1.14,0,2.23,0,3.32,0,.08,0,.16.08.25.12l.06,1.08h3.32c.08,0,.16.08.29.15v1c.39,0,.73,0,1.06-.06,0,0,.08-.06.11-.09V68.54h1.2v2.22s.05.07.08.11c.34.23.78-.11,1.14.24v2.15C161.55,73.44,161.94,73.3,162.32,73.35Zm-119-14.43c-.06.38.1.78-.1,1.2-.39,0-.79,0-1.18,0s-.78-.13-1.14.14c0,1.13,0,2.27,0,3.4a1.74,1.74,0,0,0,1.18-.07c.05-.35-.09-.7.1-1,.35-.2.79.16,1.11-.21,0-.33-.11-.69.09-1,.36-.18.8.17,1.11-.21V58.92c.38-.05.77.09,1.16-.08.16-.36-.14-.79.17-1.11a2.22,2.22,0,0,1,1.07.09c0,.75,0,1.52,0,2.3a4.54,4.54,0,0,0-1.16.06,1.82,1.82,0,0,0,0,1.11h1a4.65,4.65,0,0,0,.06-1.17A3.92,3.92,0,0,0,48.1,60V56.51c.29,0,.59,0,.89,0a.7.7,0,0,0,.26-.1c.19-.34-.17-.79.21-1.1h1a4.93,4.93,0,0,0,.06,1.15,1.89,1.89,0,0,0,1.11,0v-1a4.66,4.66,0,0,0-1.17-.07c0-.38.1-.78-.1-1.2H48.33c-.08,0-.15-.09-.23-.14,0-.33.1-.69-.1-1s-.8.16-1.11-.21v-1H51.7V50.5H54s.07-.06.11-.1c.19-.34-.17-.79.2-1.1.35,0,.7,0,1.05,0a2.9,2.9,0,0,0,1.2-.09c0-.69,0-1.39,0-2.08,0-.07.1-.15.15-.23.34,0,.69-.11,1,.14v1c.4.14.83-.1,1.16.16v1c-.38.16-.82-.12-1.14.17a2,2,0,0,0,.07,1c.33.15.77-.15,1.11.18,0,.34,0,.69,0,1A3.61,3.61,0,0,0,59,52.86c.36.17.8-.14,1.12.19,0,.33-.08.69.1,1,.35.2.8-.15,1.11.21v1.05h-2.1a1,1,0,0,0-.31.12v.94c-.39.3-.84,0-1.16.25v1c.08.05.12.09.16.09h2c.08,0,.16-.08.3-.16v-.94c.39-.25.85.11,1.16-.25v-1c.38-.05.78.1,1.21-.1V54.05c0-.4,0-.8,0-1.19s-.12-.78.13-1.18h3.41a2.08,2.08,0,0,0,0-1.16l-1.12-.05V48.1A4.45,4.45,0,0,0,66.08,48a1.86,1.86,0,0,0,0-1.1H65a4.24,4.24,0,0,0-.07,1.17h-2.4c0-.38-.1-.78.07-1.16.36-.17.8.14,1.15-.22V43.37a3.4,3.4,0,0,1,1.18-.08c0,.38-.1.78.1,1.2.39,0,.79,0,1.18,0s.78.13,1.12-.13V43.29c.39-.06.79.1,1.18-.09V41a4.09,4.09,0,0,0-1.2-.08c-.38-.05-.78.12-1.2-.13V38.42c-.42.17-.81-.12-1.16.18-.07.34.06.7-.14,1.08-.36,0-.76,0-1.15,0s-.78-.13-1.13.13c0,1.46,0,2.91,0,4.36a.88.88,0,0,1-.12.31h-1c-.15.41.1.84-.17,1.18l-1,0c-.28.38.09.84-.26,1.17h-.88s-.08-.06-.17-.14c0-.64,0-1.33,0-2,0-.08-.09-.16-.14-.24-.34,0-.69-.11-1.06.14v1a2,2,0,0,1-1.18,0c-.06-.77,0-1.51-.05-2.31H53.16c-.08,0-.16.09-.24.13-.06.34.07.69-.13,1.07-.52,0-1.06,0-1.6,0-.24,0-.5-.1-.69.15v2.25c-.38,0-.78.1-1.14-.07-.19-.37.15-.82-.22-1.13H47.2a.82.82,0,0,0-.27.1c0,.37-.14.75.11,1.09.35,0,.7-.11,1.06.14,0,1.06,0,2.15,0,3.24a.24.24,0,0,1-.05.13s-.07.07-.1.1h-1a4.25,4.25,0,0,0-.09-1.21h-1c-.29-.38,0-.83-.25-1.17l-1-.06c-.16-.38.12-.82-.18-1.15a2.22,2.22,0,0,0-1.07.09c0,.67,0,1.36,0,2,0,.08.09.16.12.21.35.13.71-.08,1,.15.17.33-.16.78.19,1.09h2.25v1.2H44.68s-.08,0-.12.07c-.23.34.11.78-.23,1.14H42.17a3.47,3.47,0,0,0-.08,1.19,4.54,4.54,0,0,0-1.16.06,1.82,1.82,0,0,0,0,1.11h1a4.65,4.65,0,0,0,.06-1.17h2.34a2,2,0,0,1,0,1.18l-1.11.05v1.17c-.39.06-.79-.1-1.21.1,0,.4,0,.79,0,1.18s-.13.78.14,1.13Zm122.64,64.93v-2.22s-.05-.08-.13-.19a4.58,4.58,0,0,0-.51,0c-.18,0-.4-.08-.53.11v2.22a4.66,4.66,0,0,0,1.17.07,4.25,4.25,0,0,0,.09,1.21h1c.3.38,0,.83.26,1.17l1,0c.27.38-.08.83.24,1.16a2.12,2.12,0,0,0,1.07-.1c0-.66,0-1.35,0-2,0-.08.09-.16.13-.24.34,0,.69.09,1-.12v-1c-.07-.06-.1-.12-.14-.12ZM103.41,90.18c0,.7,0,1.4,0,2.1,0,.09.07.17.12.31h1c.15.4-.1.84.2,1.21.31-.07.65.08,1-.12,0-1.06,0-2.15,0-3.24,0-.08.08-.16.13-.24.33-.07.68.06,1-.11a1.57,1.57,0,0,0-.09-1.11h-2.27V86.73s.07-.07.12-.13h1c.28.36-.06.81.23,1.14h1c0-.07.1-.11.1-.15q0-1,0-2c0-.08-.08-.16-.12-.25l-1.08,0c0-.74,0-1.43,0-2.12,0-.08.08-.16.12-.22.34-.11.7.07,1.07-.16,0-1.06,0-2.15,0-3.24,0-.08-.09-.16-.17-.27-.3.12-.66-.1-1,.17v1.06c-.44,0-.83,0-1.21,0s-.79.13-1.21-.11v-2.2a2.8,2.8,0,0,0-1.21-.07c-.38,0-.79-.14-1.16.09-.07.75,0,1.5,0,2.19-.39.27-.84-.08-1.2.28.1.3-.09.65.15,1,.35,0,.74,0,1.13,0s.79-.12,1.14.13c0,.36,0,.71,0,1.06a3.33,3.33,0,0,0,.06,1.14c.38.22.83-.16,1.14.23V89c-.3,0-.6,0-.9,0a1.3,1.3,0,0,0-.27.1,1.61,1.61,0,0,0,.1,1.1ZM31.26,16.83A5,5,0,0,0,31.32,18a2,2,0,0,0,1.11,0v-1a4.66,4.66,0,0,0-1.17-.07,3.9,3.9,0,0,0-.08-1.21h-1c-.3-.38,0-.83-.24-1.16H26.5c-.16.39.12.82-.17,1.15l-1.08.05c0,.75,0,1.44,0,2.13,0,.08.09.16.13.24.34,0,.69.1,1-.1,0-.33,0-.66.09-1,0,0,.07-.06.1-.1ZM72.15,36.07a4.94,4.94,0,0,0-.07-1.15A1.82,1.82,0,0,0,71,35v1a4.28,4.28,0,0,0,1.17.07v7s-.06.08-.09.12c-.34.2-.79-.15-1.11.21,0,.33-.1.69.11,1h2.21c.18-.4,0-.8.09-1.19s-.12-.78.12-1.2h2.16c.06-.09.12-.12.12-.16,0-1,0-2.1,0-3.15a.81.81,0,0,1,.11-.26l1,0a3.12,3.12,0,0,0,.06-1.21c0-.38.13-.79-.1-1.17h-2.1s-.08.05-.17.11c-.14.31.16.75-.16,1.07a2.11,2.11,0,0,1-1-.07c-.21-.35.15-.8-.22-1.12Zm2.4,16.83a4.58,4.58,0,0,0-1.17.07v2.3c.37.14.81-.11,1.14.16a2.13,2.13,0,0,1-.07,1.08h-2c-.08,0-.16.08-.22.12-.12.34.07.7-.16,1.08H70c-.08,0-.16-.1-.24-.15,0-.33.11-.69-.11-1h-1a2.73,2.73,0,0,0-.07,1.2,1.94,1.94,0,0,0,.12,1.2h4.62c.17.4-.12.84.2,1.18.34,0,.69,0,1,0a3.22,3.22,0,0,1,1.22.08c0,.39,0,.78,0,1.17s-.13.79.13,1.14c.35,0,.7.11,1-.09a1,1,0,0,0,0-.14V45.93c0-.08-.1-.16-.15-.24-.33,0-.69.11-1.06-.14v-1a1.93,1.93,0,0,0-1.19,0V47.9s0,.08.07.12c.34.24.8-.12,1.12.21a2.1,2.1,0,0,1-.07,1c-.35.22-.81-.14-1.12.22ZM185.17,84.17a4.14,4.14,0,0,0-.08-1.2c-.4,0-.79,0-1.17,0s-.78-.12-1.12.09v1c.08.05.11.09.15.1h2.22c0,.3,0,.59,0,.89a1.37,1.37,0,0,1-.1.28c-.34.15-.78-.16-1.1.18,0,.33-.1.68.12,1h1.14c.39,0,.79,0,1.19,0s.78-.12,1.16.11c0,1,0,2,0,3,0,.19-.05.4.16.52h1c-.06.38.1.79-.09,1.17h-2.2c-.06-.06-.11-.1-.11-.14,0-.65,0-1.3,0-1.95,0-.08-.07-.16-.12-.26l-1,0c-.28-.38.08-.83-.24-1.16a2.12,2.12,0,0,0-1.07.1v4.45c0,.08.09.16.14.24.33,0,.69-.09,1.06.13,0,.66,0,1.36,0,2.05,0,.08.1.15.17.26.31-.13.67.11,1-.16l.05-1a1.87,1.87,0,0,1,1.15,0l.06,1.11c.44,0,.83,0,1.22,0s.79.13,1.15-.12c0-.36,0-.71,0-1.06a3.16,3.16,0,0,1,.08-1.21h2.08c.08,0,.16-.1.23-.15,0-.33.11-.69-.13-1.06h-1a2,2,0,0,1,0-1.16l1-.06a1.76,1.76,0,0,0,0-1.12c-.37-.14-.73.06-1.11-.18,0-.36,0-.75,0-1.14s-.13-.79.13-1.14h1.06a4.94,4.94,0,0,0,.07,1.15,1.86,1.86,0,0,0,1.1,0v-1a4.66,4.66,0,0,0-1.17-.07c0-.38.11-.78-.08-1.17h-2.21c-.19.3-.07.61-.11.89a1.15,1.15,0,0,1-.12.25h-1c-.27-.38.09-.83-.24-1.15-.33-.07-.68.07-1-.12-.16-.34.16-.78-.19-1.1Zm-76.95,374c-.39-.06-.79.1-1.18-.09v-2.32a11.93,11.93,0,0,0,1.2,0c.38,0,.79.13,1.18-.1v-5.71s0-.08-.13-.19h-2c-.08,0-.16-.08-.28-.15.11-.31-.09-.67.15-1h2.28c0-.79,0-1.53,0-2.26,0,0-.07-.07-.12-.13l-1.07-.05c0-.72,0-1.42,0-2.11,0-.08-.08-.16-.12-.24l-1.08,0c0-1.55,0-3.05,0-4.54,0-.08.09-.16.11-.19.36-.15.72.08,1.06-.17v-2.17c-.37-.28-.82.06-1.18-.26,0-.67,0-1.37,0-2.07,0,0,0-.08.07-.12.34-.24.79.13,1.13-.22q0-5.85,0-11.71s-.06-.07-.1-.12a1.56,1.56,0,0,0-1.1.09c0,2.67,0,5.33,0,8,0,.09-.07.17-.11.28l-1,.05c-.06.07-.11.11-.11.15,0,1.05,0,2.1,0,3.16,0,.08-.08.16-.12.24l-1,.06c-.26.39.1.85-.24,1.16-.34,0-.69.11-1.06-.12,0-1.46,0-3,0-4.46,0-.07.11-.14.16-.22.34,0,.69.12,1-.11v-1c-.37-.27-.83.09-1.15-.24a2.12,2.12,0,0,1,.07-1c.35-.21.8.15,1.12-.22,0-1.85,0-3.7,0-5.56a1,1,0,0,0-.12-.31H103.4c0-.38,0-.72,0-1.06,0,0,.07-.07.1-.1.74-.09,1.48,0,2.28-.08,0-.72,0-1.41,0-2.1,0-.08.09-.16.13-.25.34,0,.69-.1,1,.09.2.35-.17.8.22,1.11.33.05.69-.12,1,.12l.06,1a2,2,0,0,0,1,.06s.07-.07.12-.12v-4.33a.75.75,0,0,1,0-.15.94.94,0,0,1,.09-.12c.34-.21.8.15,1.11-.21v-5.41c0-.1,0-.2,0-.3s-.07-.07-.16-.16h-.9c-.22-.22-.14-.43-.14-.62,0-1.3,0-2.6,0-3.9,0-.09-.07-.17-.14-.3-.31.09-.65-.07-1,.12-.14.33.16.77-.2,1.13-.3-.11-.65.09-1-.14v-2.21c.4-.18.8,0,1.19-.08s.79.12,1.15-.1v-1c-.37-.27-.82.09-1.16-.25v-3.13a.37.37,0,0,0,0-.15c0-.05,0-.08-.08-.12-.34-.21-.8.14-1.12-.21,0-1.85,0-3.71,0-5.56a1,1,0,0,1,.12-.31h1a2,2,0,0,0,0-1.17l-1.17-.07c.17-.4-.14-.79.19-1.15.34-.05.69.08,1.07-.13,0-.37,0-.76,0-1.15s-.13-.79.15-1.14h.9s.08-.07.11-.11v-2.19c-.31-.17-.61-.06-.9-.1a.94.94,0,0,1-.24-.13,2,2,0,0,1,.06-1c.35-.22.8.14,1.12-.22V368.39a1.51,1.51,0,0,0,0-.3s-.06-.07-.14-.16h-.91c-.23-.21-.12-.42-.14-.61s0-.4,0-.6,0-.41,0-.6-.09-.41.12-.56l1-.06a1.79,1.79,0,0,0,0-1.15c-.36-.07-.71.06-1-.11a17.85,17.85,0,0,1,.09-4.72c.34,0,.69-.11,1.06.14v2.2a1.93,1.93,0,0,0,1.19,0V357.3s-.05-.08-.09-.14a1.6,1.6,0,0,0-1.1.08c-.06.35.08.71-.12,1.05h-1.1c0-.76,0-1.5,0-2.24,0,0,.07-.07.11-.11l1.08-.06v-3.31c0-.09.09-.17.16-.3h1.09a22.71,22.71,0,0,0-.13-2.3c-.4-.17-.76.06-1.09-.19v-9.39c.37-.28.82.07,1.17-.26v-2.07s-.05-.07-.13-.18h-2c-.08,0-.16-.09-.28-.16.12-.31-.09-.66.16-1h2.17a2.53,2.53,0,0,0,.09-1.21,2.13,2.13,0,0,0-.11-1.21h-2.22a1.83,1.83,0,0,1,.07-1.22h1.07c0-1.14,0-2.24,0-3.33,0-.08-.09-.16-.11-.19-.36-.15-.72.08-1-.17v-1c.3-.18.61-.06.89-.11a.82.82,0,0,0,.25-.12l.06-1c.39-.27.84.09,1.17-.26v-3.29s-.06-.07-.09-.11c-.35-.2-.8.17-1.11-.21V311.72c0-.09.07-.17.12-.28l1-.05a1.8,1.8,0,0,0,0-1.15l-1.1-.05c0-1.55,0-3,0-4.54,0-.08.09-.16.14-.24.33,0,.69.1,1-.11v-1c-.36-.28-.81.06-1.14-.23a2,2,0,0,1,0-1c.34-.24.8.12,1.13-.22v-5.7s-.06-.07-.09-.11c-.35-.2-.8.16-1.11-.21,0-.65,0-1.31,0-2a.77.77,0,0,1,.12-.27l1-.05c.06-.08.11-.11.11-.15v-14a.34.34,0,0,0,0-.14s-.07-.07-.13-.13H109.3c-.35,0-.7,0-1,0a3.83,3.83,0,0,1-1.24-.09c0-.68,0-1.37,0-2.07,0-.08.09-.16.14-.24a3.2,3.2,0,0,0,.44,0c.19,0,.41.09.56-.08.21-.36-.17-.81.22-1.12.33-.05.69.12,1-.1v-1c-.37-.28-.83.08-1.15-.24a2.15,2.15,0,0,1,.07-1c.35-.21.8.15,1.12-.21,0-.34.11-.7-.12-1l-1.12-.05c.13-.41-.12-.79.15-1.15l1.09-.06c0-.74,0-1.43,0-2.12,0-.08-.09-.16-.11-.21-.35-.13-.72.08-1.06-.16v-1c.41-.18.81,0,1.19-.08s.79.12,1.16-.1v-2.23a4.57,4.57,0,0,0-1.21-.08c-.38-.05-.79.12-1.16-.12V263.5s.06-.07.1-.12c.33-.2.78.15,1.1-.21v-6.61a1.51,1.51,0,0,0,0-.3s-.06-.07-.15-.16h-.91c-.07-.09-.13-.13-.13-.16,0-1.05,0-2.11,0-3.16,0-.08-.08-.16-.12-.25l-1.08-.06c0-.73,0-1.43,0-2.12,0-.08-.09-.16-.12-.21-.35-.13-.71.08-1-.14s.16-.79-.26-1.13c-.29.14-.66-.12-1,.15l0,1a4.57,4.57,0,0,1-1.21.08c-.38.05-.79-.12-1.17.12v5.56c0,.05,0,.11,0,.15s0,.08-.11.16c-.32.15-.77-.17-1.09.17,0,2.25,0,4.51,0,6.76a1,1,0,0,0,.12.31h1a2.1,2.1,0,0,1,0,1.17l-1.12.07c0,1.53,0,3,0,4.51,0,.09.08.17.11.22.35.12.71-.08,1,.14a1.53,1.53,0,0,1-.1,1.11h-.91s-.07.07-.11.11v2.18c.07.05.11.1.15.1h2c.08,0,.16.08.25.13a2.2,2.2,0,0,1-.08,1c-.34.15-.78-.17-1.11.18q0,3.38,0,6.76a.9.9,0,0,0,.1.27h1.06c.13-.37-.11-.81.19-1.19.3.08.65-.07,1,.12.13.32-.16.77.12,1.06.37.13.73-.07,1.1.17,0,1.31,0,2.65,0,4,0,.23.1.5-.15.68H102.5a.37.37,0,0,0-.15,0s-.07.07-.11.11v5.89h.89c.09,0,.17.08.25.12a2,2,0,0,1,0,1c-.35.23-.8-.13-1.13.23v3a2.91,2.91,0,0,0,0,.3s.06.08.14.17h.92c.07.09.13.12.13.16,0,3.46,0,6.91,0,10.37a.32.32,0,0,1,0,.14.27.27,0,0,1-.1.11h-1c0-.08-.1-.11-.1-.15,0-.65,0-1.31,0-2,0-.08-.08-.16-.13-.24a2,2,0,0,0-1.07.1V310a.19.19,0,0,0,0,.13.52.52,0,0,0,.1.11h1c0,.3,0,.6,0,.9a1,1,0,0,0,.12.31h1.12c-.14.43.11.81-.16,1.17l-1.09.06v1.22c0,5.1,0,10.21,0,15.32,0,.08-.09.16-.13.24-.33.07-.69-.07-1.09.15.14.33-.18.73.09,1s.78-.05,1.14.23v5.86c.34,0,.63,0,.92,0,.09,0,.17.08.25.12a2,2,0,0,1,0,1c-.34.24-.8-.12-1.13.23,0,.69,0,1.39,0,2.09,0,0,.06.07.14.16h.9c.24.21.14.43.15.61s0,.4,0,.6,0,.41,0,.61.09.4-.12.56l-1,.06a3.93,3.93,0,0,0,0,.45q0,10.44,0,20.88c0,.09.08.17.12.25l1.13.07c-.17.41.14.8-.19,1.15-.34.06-.69-.08-1,.12v1c.4.18.8,0,1.19.08s.79-.11,1.19.12v1.94a1.34,1.34,0,0,1-.07.27c-.28.15-.58,0-.87.08a2,2,0,0,0-.25.13,2.19,2.19,0,0,0,.08,1c.33,0,.67,0,1,.08,0,0,.07.06.11.1v3a1.48,1.48,0,0,1,0,.3s-.06.07-.17.16h-.89c-.07.1-.13.13-.13.17,0,1.05,0,2.1,0,3.15a.61.61,0,0,1-.12.26l-1,.06a1.18,1.18,0,0,0-.08.31q0,3.92,0,7.81a.43.43,0,0,0,.12.22c.34.12.7-.07,1.08.17,0,.65,0,1.35,0,2,0,.08-.1.16-.15.24-.33,0-.69-.11-1,.11v1c.36.28.82-.07,1.14.23a.89.89,0,0,1,0,.14v4.21a.75.75,0,0,0,0,.15.42.42,0,0,0,.08.12c.34.23.79-.13,1.11.21.05.33-.08.69.11,1,.34.17.79-.17,1.1.2,0,.34.12.7-.12,1l-1,.05c-.06.08-.11.12-.11.16,0,1,0,2.1,0,3.16,0,.08-.08.16-.15.3h-1c0,1.14,0,2.23,0,3.33,0,.08-.09.16-.11.18-.36.15-.72-.07-1.09.2v3.42c-.4.14-.84-.11-1.2.19,0,1.07,0,2.17,0,3.27,0,0,0,.08.08.14a1.67,1.67,0,0,0,1.1-.06c.07-.36-.07-.71.11-1a1.52,1.52,0,0,1,1.11.09v4.37a.37.37,0,0,1,0,.15s-.07.07-.11.12H102.2c0-.42,0-.81,0-1.2s.13-.79-.1-1.15a2.1,2.1,0,0,0-1,.05,1.64,1.64,0,0,0-.07.28c0,3.4,0,6.81,0,10.21,0,.08.09.17.13.25.34.05.69-.08,1.06.13v15.27c0,3.61,0,7.21,0,10.82,0,.08-.09.16-.11.18-.36.16-.73-.07-1.06.18v4.57c.37.29.82-.06,1.17.27,0,.67,0,1.36,0,2.06,0,0,0,.08-.11.18-.31.13-.75-.17-1.09.16,0,1.49,0,3,0,4.49,0,0,0,.08.08.12.35.2.8-.16,1.11.21v10.64c-.37.09-.77-.07-1.15.11a1.76,1.76,0,0,0,0,1.09h1.1v-1.17c.39.05.79-.11,1.18.08v2.24a4.09,4.09,0,0,1-1.2.08c-.38.05-.78-.12-1.14.1v2.26c.38.16.82-.13,1.2.23v.92c.4.25.85-.11,1.17.25,0,.33-.11.69.13,1.06h2.23c.14.4-.11.83.16,1.16a2,2,0,0,0,1,0c.24-.34-.12-.8.21-1.12.33-.06.69.08,1.07-.13,0-1.06,0-2.16,0-3.25a.33.33,0,0,0,0-.13l-.1-.11H107c0-.7,0-1.39,0-2.09a.89.89,0,0,1,.09-.26c.35-.2.8.17,1.11-.21,0-.34.11-.69-.13-1l-1.08,0c0-.37,0-.7,0-1,0,0,.07-.07.15-.16h2.24v-.91q0-5.39,0-10.78a.73.73,0,0,0-.09-.26c-.34-.2-.79.16-1.1-.2v-1c.37-.09.77.08,1.15-.11a1.73,1.73,0,0,0-.05-1.08h-1c-.06.07-.11.1-.11.14C108.21,457.43,108.22,457.77,108.22,458.12ZM26.44,81.73c.06-.45-.15-.88.14-1.1s.57,0,.86-.07c0,0,.09,0,.22-.1,0-.65,0-1.34,0-2a.33.33,0,0,0,0-.14,1.14,1.14,0,0,0-.11-.11l-1-.05c-.27-.39.09-.85-.26-1.18H21.81s-.07-.06-.11-.09c-.2-.34.16-.8-.21-1.11H17.13c-.09,0-.17-.07-.28-.12l-.05-1.08H13.5a.58.58,0,0,1-.25-.12l-.05-1c-.4-.26-.85.1-1.17-.24,0-.34.09-.69-.11-1H9.62v2.09a.38.38,0,0,0,0,.15s.07.07.12.12l1,0c.28.38-.08.83.24,1.15.74,0,1.48,0,2.17,0,.26.41-.1.86.26,1.18h3a1.51,1.51,0,0,1,.3,0s.07.06.16.15v2.25h3.32c.08,0,.16.08.26.12l0,1c.08.05.12.1.16.1h2c.08,0,.16.08.29.15v1Zm79.37,80.6c0-.51,0-.86,0-1.21s-.11-.78.06-1.14c.38-.19.83.14,1.13-.22v-3.15a.38.38,0,0,0,0-.15s-.07-.07-.15-.15h-2.93c-.49,0-1,0-1.49,0a4.62,4.62,0,0,0-1.44.07c0,1.17,0,2.27,0,3.36,0,0,0,.08.09.11.34.21.79-.15,1.1.21,0,1.1,0,2.2,0,3.29,0,0,.06.08.14.17h4.42c.08,0,.16-.09.27-.16-.11-.31.09-.66-.16-1Zm-2.4-123.84c0-2,0-3.87,0-5.72a.74.74,0,0,0-.1-.27h-1c-.28.36.07.81-.24,1.14-.73.09-1.48,0-2.22.07a1.67,1.67,0,0,0,.06,1.15c.36.06.71-.08,1,.11,0,.37.14.76,0,1-.41.19-.78-.06-1.08.2V42a1.5,1.5,0,0,0,.3.08c1.4,0,2.8,0,4.21,0a.21.21,0,0,0,.13,0,.36.36,0,0,0,.13-.12V38.65s-.06-.07-.13-.16Zm-51.6-8.43a1.59,1.59,0,0,0-.1.39q0,1.5,0,3c0,.07.11.14.16.22.33-.05.69.12,1-.12l.06-1c.08,0,.12-.1.16-.1H55c.09,0,.17-.08.25-.13a2,2,0,0,0-.08-1c-.33-.15-.78.16-1.13-.2.12-.3-.1-.66.14-1h2.21c.18.4,0,.8.08,1.18s-.11.79.1,1.16H58.8c.2-.2.09-.41.12-.59s-.08-.41.19-.6h4.55A1.77,1.77,0,0,0,63.59,30h-1c-.19-.4.13-.84-.21-1.16h-9.3S53,28.92,53,29c-.21.34.14.79-.22,1.11ZM175.55,87.81v4.47s0,.11,0,.15-.07.08-.16.16h-.91c-.07.1-.13.13-.13.17v5.56a.32.32,0,0,1,0,.14c0,.05-.07.08-.11.12-.73.07-1.47,0-2.32.07.16.4-.15.79.18,1.14.34.06.69-.08,1,.11s-.16.79.21,1.1c.35,0,.7,0,1.05,0s.79.12,1.21-.12v-7c.4-.16.84.12,1.18-.2V88s-.06-.07-.11-.14ZM103.5,121.47c-.13,1.45-.13,10.54,0,12,.36-.16.75.16,1.1-.18V124s0-.08.08-.11c.34-.23.79.13,1.11-.21,0-.34.1-.69-.07-1-.36-.21-.81.15-1-.12-.18-.43,0-.79-.2-1.12ZM107,102.2c.06.49-.08.85.13,1.18h1c.29-.37-.06-.82.24-1.15l1-.06a2.11,2.11,0,0,0,.08-.32q0-3.3,0-6.61c0-.08-.09-.16-.13-.24-.34,0-.69-.11-1.06.12V96c0,1.6,0,3.2,0,4.81,0,.07-.1.15-.18.26-.3-.15-.67.1-1-.16l-.06-1a1.87,1.87,0,0,0-1.17,0c0,.72,0,1.42,0,2.12,0,0,.05.07.12.17Zm43.32-67.33h-1.06s-.07.07-.11.12c-.18.33.17.78-.21,1.08-.33,0-.69-.12-1,.11v1c.08,0,.12.1.16.1H150c.09,0,.17.08.25.12l.05,1c.4.26.85-.09,1.17.26,0,.29,0,.59,0,.89,0,0,.06.07.14.16h2c.08,0,.15-.1.23-.15,0-.33.11-.69-.12-1l-1,0c-.28-.37.06-.82-.24-1.15l-1-.06c-.17-.39.12-.83-.19-1.15-.34-.07-.69.07-1.06-.13ZM86.6,38.36c.07,0,.1.11.14.11h1.94a.66.66,0,0,0,.25-.1c.19-.34-.17-.79.21-1.1.33,0,.68.11,1-.1,0-.37.14-.76-.1-1.09-.36,0-.71.11-1.07-.15v-1a2.21,2.21,0,0,0-1.17,0l0,1c-.37.27-.81-.06-1.15.23ZM103.3,200.8a1.59,1.59,0,0,0,.1-.39q0-3.28,0-6.59c0-.08-.1-.15-.15-.23-.33,0-.68-.11-1,.13,0,2.26,0,4.56,0,6.85,0,.08.1.15.15.23ZM49.19,68.54a1.72,1.72,0,0,0,.1-.39c0-.59,0-1.19,0-1.79,0-.08.09-.15.15-.23.33,0,.68.11,1-.11v-1c-.06-.06-.1-.12-.13-.12H47.05s-.07.07-.16.15c0,.64,0,1.33,0,2,0,.08.09.15.14.23.34,0,.69-.09,1,.11s-.16.78.2,1.1ZM22.87,44.49c.48,0,.83,0,1.18,0a2.76,2.76,0,0,0,1.2-.09c0-.69,0-1.38,0-2.07,0-.08-.09-.16-.14-.24a3.38,3.38,0,0,1-.45,0c-.18,0-.4.1-.55-.09-.2-.35.17-.8-.21-1.11-.34,0-.69-.11-1,.12ZM43.29,69.74h.9a.23.23,0,0,0,.29-.24c0-.24,0-.49,0-.74,0-.08.1-.15.15-.22.33-.05.69.11,1-.12v-1c-.06,0-.1-.11-.14-.11-.64,0-1.29,0-1.93,0a.7.7,0,0,0-.26.1c-.18.34.17.79-.2,1.1h-.9s-.07.07-.15.15c0,.64,0,1.33,0,2,0,.08.1.15.15.23.33,0,.68.1,1-.13Zm-4.7,8.42a1.27,1.27,0,0,0-.11.38c0,1,0,2,0,3,0,.08-.1.16-.11.18-.37.15-.73-.08-1.06.17v1a2.55,2.55,0,0,0,1.19.07,2.23,2.23,0,0,0,1.19-.09c0-1.49,0-3,0-4.47,0-.08-.09-.16-.15-.23Zm49.21-24c.48,0,.83,0,1.18,0a2.93,2.93,0,0,0,1.2-.09c0-.39,0-.79,0-1.18s.13-.78-.13-1.13c-.36,0-.71,0-1.06,0a3,3,0,0,0-1.18.08Zm50.51-21.74a11.38,11.38,0,0,0,3.54,0,1.59,1.59,0,0,0-.11-1.09c-.35,0-.7.11-1-.1s.16-.79-.21-1.1h-.45c-.18,0-.4-.09-.55.1-.17.36.16.8-.2,1.1-.34,0-.7-.11-1,.11Zm-53,20.54c-.48,0-.83,0-1.18,0A3.11,3.11,0,0,0,83,53c0,.4,0,.79,0,1.18s-.12.78.14,1.13c.36,0,.71,0,1.06,0a3.17,3.17,0,0,0,1.18-.08ZM192.41,73.35h2.22s.07-.06.16-.14c0-.34,0-.73,0-1.12s.13-.79-.13-1.14h-2.1s-.08.06-.14.11Zm-24,4.81c-.06-.49.08-.84-.12-1.16-.35-.19-.8.17-1-.09-.2-.44,0-.8-.21-1.13h-1.09c0,.86,0,1.69,0,2.52a1.88,1.88,0,0,0,.09,1,1.61,1.61,0,0,0,1.1-.09c0-.35-.1-.71.13-1.07ZM121.44,39.65V37.44s-.06-.08-.14-.17c-.35,0-.74,0-1.13,0s-.78-.12-1.13.13v2.11s.06.07.12.13Zm-49.3,6c0,1.65,0,3.14,0,4.64,0,0,.06.08.1.13a1.62,1.62,0,0,0,1.1-.09c0-1.52,0-3,0-4.51,0,0,0-.07-.11-.14l-.4,0Zm-28.85-8.4c.49-.06.84.09,1.17-.13v-1c-.06,0-.1-.11-.13-.11H42.39a1,1,0,0,0-.26.09c-.19.35.17.79-.2,1.1-.33,0-.69-.1-1,.12v1c.06,0,.1.11.13.11H43a1.17,1.17,0,0,0,.31-.11Zm-7.18-.12c.07,0,.1.1.14.1h3.13c.29,0,.3-.19.3-.39a5.76,5.76,0,0,0,0-.59.31.31,0,0,0-.11-.16c-.37-.17-.73.07-1.09-.22v-1a2.21,2.21,0,0,0-1.17,0l0,1c-.37.27-.82-.06-1.14.23ZM169.52,113c.06-.46-.08-.81.12-1.13.35-.19.79.17,1.13-.24-.12-.29.09-.65-.16-1h-3.23c-.08,0-.16.09-.24.14,0,.33-.1.68.09,1,.35.2.79-.15,1.11.2,0,.34-.1.69.11,1ZM89,67.36c0,.48,0,.83,0,1.17a3,3,0,0,0,.1,1.21c.39,0,.78,0,1.17,0s.79.13,1.13-.13c0-.36,0-.71,0-1.06a3.17,3.17,0,0,0-.08-1.18Zm21.64,331.81V395.9a.9.9,0,0,0-.11-.28h-1.09v3.27c0,.09.07.17.11.28ZM70.94,55.28c0-.42,0-.72,0-1,0,0,.06-.07.13-.12.31-.16.75.18,1.06-.19,0-.34.12-.69-.13-1h-1.6c-.23,0-.49-.1-.67.15v2.09s.07.07.12.13ZM22.87,38.48h2.22s.07-.06.16-.14c0-.64,0-1.33,0-2,0-.08-.09-.15-.14-.23-.33,0-.68-.1-1,.08-.2.35.14.8-.21,1.11-.34,0-.69-.1-1,.12ZM103.43,113a1.46,1.46,0,0,0,.74.07c.24,0,.49,0,.74,0h.75s.07-.06.17-.16c-.14-.3.18-.7-.18-1-.3,0-.59,0-.89,0,0,0-.07-.07-.16-.15v-1a2.21,2.21,0,0,0-1.17,0Zm54.06-78.06c-.46-.06-.82.08-1.13-.12-.18-.35.16-.79-.21-1.1-.33,0-.69-.11-1,.13,0,.52,0,1.06,0,1.6,0,.23-.1.49.16.67h2.09s.07-.06.13-.12ZM97.39,115.4c0-1.22,0-2.31,0-3.41,0,0-.06-.07-.1-.12a1.55,1.55,0,0,0-1.1.09c0,1.11,0,2.21,0,3.3,0,0,0,.08.11.14Zm22.74-44.46a1.66,1.66,0,0,0,.11-.38c0-1,0-2,0-3,0-.08-.09-.16-.14-.24-.34,0-.69-.1-1,.14,0,1.06,0,2.15,0,3.24,0,.08.1.15.15.23Zm13.34-10.85V58.91c0-.4,0-.8,0-1.2a2.75,2.75,0,0,0-.08-1.17h-1.12v1.18c0,.4,0,.8,0,1.2s-.11.78.08,1.17ZM101,128.64c-.46.06-.82-.09-1.18.15,0,1.06,0,2.15,0,3.24,0,.08.09.16.14.23.34,0,.69.11,1-.11Zm2.43,42.12a5.45,5.45,0,0,0,0,.58c0,.19-.09.4.1.56s.79-.17,1,.1c.19.43,0,.79.21,1.12h1a2.64,2.64,0,0,0,.07-1.18,2.51,2.51,0,0,0-.08-1.18ZM110.62,89V85.54s-.06-.08-.1-.13a1.55,1.55,0,0,0-1.1.1v3.3s.06.08.12.14Zm-1.2,386v3.41s.06.08.11.13a1.59,1.59,0,0,0,1.09-.1v-3.31s-.06-.07-.12-.13Zm11-420.87c-.4-.32.12-.89-.31-1.2-.34,0-.69-.12-1,.11v2.29h2.23s.07-.07.17-.16c-.13-.3.16-.7-.17-1Zm8.27-6v2.22s.06.07.16.18c.3-.15.7.2,1-.17V48.26s-.07-.07-.12-.14Zm31.15,2.35c.2-.24.09-.49.1-.73a4.41,4.41,0,0,0,0-.89c0-.24.11-.5-.1-.73h-1c-.21.24-.09.5-.11.74a6.61,6.61,0,0,0,0,.89c0,.24-.1.5.11.72ZM61.32,23.94a1.72,1.72,0,0,0,.39.1c.59,0,1.19,0,1.79,0,.08,0,.15-.1.23-.15,0-.33.1-.68-.13-1-.67,0-1.36,0-2.05,0-.08,0-.15.1-.23.15Zm0,36.06c.07.06.1.12.14.12h1.94c.29,0,.3-.18.3-.39V59a1.51,1.51,0,0,0-.77-.09,8.81,8.81,0,0,0-.89,0c-.23,0-.49-.1-.72.11ZM38.49,64.91c-.05-.47.09-.82-.14-1.18H36.3c-.07,0-.15.1-.23.15,0,.34-.1.69.12,1ZM99.82,75.77c.46-.06.82.08,1.18-.15,0-.66,0-1.35,0-2,0-.08-.1-.15-.15-.23-.33,0-.68-.1-1,.11ZM42.19,31.29c-.2.24-.08.5-.1.73a6.76,6.76,0,0,0,0,.9c0,.23-.11.49.11.72h1c.2-.24.08-.5.1-.73a6.76,6.76,0,0,0,0-.9c0-.23.11-.49-.1-.72Zm140.55,65c-.24-.2-.5-.09-.73-.1a6.76,6.76,0,0,0-.9,0c-.23,0-.49-.11-.72.1v1c.24.21.49.09.73.11a6.61,6.61,0,0,0,.89,0c.24,0,.5.1.73-.11Zm-74.52-4.89c0,.82,0,1.52,0,2.22,0,0,.06.07.1.12a1.61,1.61,0,0,0,1.1-.1c0-.71,0-1.41,0-2.11,0,0-.06-.07-.11-.13ZM34.84,34.86c-.45,0-.81-.09-1.17.14,0,.66,0,1.35,0,2,0,.08.1.16.15.23.33,0,.68.11,1-.11ZM27.68,48.1H29.9s.07-.06.17-.15c-.14-.3.2-.71-.16-1H27.82s-.07.06-.14.11Zm8.37,45.67c-.47.06-.82-.09-1.18.15,0,.66,0,1.35,0,2,0,.08.09.16.14.23.34,0,.69.11,1-.11ZM78.27,34.9c-.21.24-.09.49-.11.73a6.61,6.61,0,0,0,0,.89c0,.24-.1.5.11.73h1c.2-.24.09-.5.1-.74a5.29,5.29,0,0,0,0-.89c0-.24.11-.49-.1-.72ZM97.5,105.81a1.59,1.59,0,0,0-.1.39c0,.59,0,1.19,0,1.79,0,.07.1.15.15.23.33,0,.69.1,1-.13,0-.67,0-1.36,0-2,0-.08-.1-.15-.15-.23ZM158.69,107c-.46,0-.81-.09-1.17.14,0,.67,0,1.36,0,2,0,.08.1.15.15.23.33,0,.69.1,1-.12Zm4.86,9.63h2.22s.07-.06.12-.1a1.55,1.55,0,0,0-.1-1.1h-2.1s-.07.06-.14.11ZM99.8,133.49c0,.48,0,.83,0,1.18a2.82,2.82,0,0,0,.09,1.21l1-.06s.07-.07.1-.11c0-.35,0-.7,0-1a3.16,3.16,0,0,0-.08-1.18Zm6,4.76c-.06-.46.08-.81-.15-1.18h-2c-.08,0-.16.1-.23.15,0,.33-.11.68.11,1Zm21.62-94.94c0,.43,0,.73,0,1,0,0,.07.07.17.16h2c.07,0,.15-.09.23-.14,0-.3,0-.6,0-.9,0,0-.06-.06-.14-.13Zm-22.84,107v-2.21s-.06-.07-.16-.18c-.3.15-.7-.2-1,.17v2.09s.06.07.12.13ZM99.78,119c-.43,0-.73,0-1,0,0,0-.06.07-.15.17,0,.62,0,1.31,0,2,0,.08.1.16.15.23.3,0,.6,0,.89,0,0,0,.07-.07.14-.15Zm6,92.61c0,.83,0,1.52,0,2.22,0,0,.06.07.1.12a1.58,1.58,0,0,0,1.09-.1c0-.72,0-1.41,0-2.11,0,0-.06-.07-.12-.13ZM33.64,19.22c-.46.06-.81-.08-1.14.12,0,.38-.13.76.11,1.1.34,0,.69.1,1-.11ZM19.26,21.66c.47-.06.82.09,1.14-.12a1.55,1.55,0,0,0-.1-1.1c-.35,0-.7-.1-1,.11Zm10.8,0v-1s-.07-.07-.11-.12a1.56,1.56,0,0,0-1.13.12c.13.32-.08.68.15,1Zm0,4.86c0,.38,0,.63,0,.88a.23.23,0,0,0,.24.29,4.57,4.57,0,0,0,.74,0c.08,0,.15-.1.22-.16,0-.33.11-.68-.11-1Zm122.62,3.57c-.46.05-.81-.09-1.14.11a1.6,1.6,0,0,0,.1,1.1c.35,0,.7.1,1-.11Zm-85.37,1.2c-.46.05-.81-.09-1.14.12a1.61,1.61,0,0,0,.1,1.1c.35,0,.7.1,1-.12Zm83,1.24c.06.46-.08.81.13,1.14a1.58,1.58,0,0,0,1.09-.1c0-.35.11-.7-.11-1Zm-95,1.2c0,.43,0,.73,0,1,0,0,.06.07.1.12a1.6,1.6,0,0,0,1.13-.12c-.13-.32.09-.68-.15-1Zm-36,3.58h1s.07-.06.12-.1A1.55,1.55,0,0,0,20.28,36c-.32.12-.67-.09-1,.15ZM51.7,36.1c0,.42,0,.72,0,1,0,0,.06.08.1.12a1.6,1.6,0,0,0,1.13-.11c-.12-.32.09-.68-.15-1Zm12,0c0,.42,0,.72,0,1,0,0,.06.07.11.12A1.57,1.57,0,0,0,65,37.11c-.13-.32.08-.67-.16-1Zm78.17,2.35c-.06-.46.09-.81-.12-1.14a1.56,1.56,0,0,0-1.1.11c0,.34-.1.69.11,1Zm-105.83,0c0,.39,0,.63,0,.88a.23.23,0,0,0,.24.29,4.57,4.57,0,0,0,.74,0c.08,0,.15-.1.22-.15,0-.33.11-.68-.11-1Zm48.1,0c0,.42,0,.72,0,1,0,0,.06.07.11.12a1.56,1.56,0,0,0,1.13-.12c-.13-.32.08-.68-.15-1Zm54.13,1.19c.46,0,.81.09,1.14-.11a1.6,1.6,0,0,0-.1-1.1c-.35,0-.7-.1-1,.11Zm9.61,0c0-.46.09-.81-.12-1.13a1.55,1.55,0,0,0-1.1.1c0,.35-.1.7.12,1ZM12,39.7c.05.47-.09.82.16,1.2.32-.14.72.18,1.06-.17,0-.33.1-.68-.12-1Zm8.41,0c-.47.06-.82-.08-1.2.16.14.32-.18.72.17,1.06.33,0,.68.1,1-.11Zm38.47,1.22H58a.24.24,0,0,0-.29.24,4.57,4.57,0,0,0,0,.74c0,.08.1.15.16.22.33,0,.68.11,1-.11Zm1.23,1.23c0,.38,0,.63,0,.88a.23.23,0,0,0,.24.29,4.57,4.57,0,0,0,.74,0c.08,0,.15-.1.25-.18-.12-.3.1-.66-.15-1ZM33.67,44.46c0-.38,0-.63,0-.87s-.08-.29-.24-.3a4.57,4.57,0,0,0-.74,0c-.08,0-.15.1-.23.16,0,.33-.1.68.12,1Zm66.15,1.25c.47-.06.82.08,1.14-.12a1.55,1.55,0,0,0-.1-1.1c-.34,0-.69-.1-1,.11Zm26.43,0c0-.43,0-.72,0-1,0,0-.06-.07-.11-.12a1.53,1.53,0,0,0-1.12.12c.12.32-.09.67.14,1Zm-90.18,2.4c0-.38,0-.63,0-.88a.24.24,0,0,0-.24-.29,4.7,4.7,0,0,0-.75,0c-.07,0-.15.1-.22.15,0,.34-.11.69.11,1ZM28.88,79.36c.39,0,.63,0,.88,0a.23.23,0,0,0,.29-.24,3.66,3.66,0,0,0,0-.74c0-.08-.1-.15-.15-.22-.33,0-.68-.11-1,.11Zm153.89,13.2c0-.43,0-.72,0-1,0,0-.06-.07-.15-.17-.31.14-.71-.18-1.08.19.13.3-.09.66.15,1Zm-79.36,3.61c0-.43,0-.73,0-1,0,0-.06-.07-.15-.17-.31.13-.71-.19-1.07.19.12.3-.1.66.14,1Zm1.22,0c.47-.06.82.08,1.14-.12a1.61,1.61,0,0,0-.1-1.1c-.34,0-.69-.1-1,.11Zm88.93-27.69c-.46,0-.81-.08-1.13.12a1.61,1.61,0,0,0,.09,1.1c.35,0,.7.1,1-.11ZM37.29,79.33c0-.45.08-.8-.12-1.13a1.61,1.61,0,0,0-1.1.09c0,.35-.1.7.11,1ZM186.4,97.41c.46,0,.81.09,1.14-.12a1.56,1.56,0,0,0-.11-1.1c-.34,0-.69-.1-1,.12Zm-80.56,1.2c.45,0,.8.09,1.13-.11a1.63,1.63,0,0,0-.09-1.11c-.35,0-.7-.09-1,.12ZM178,99.77c-.05-.46.09-.81-.12-1.13a1.55,1.55,0,0,0-1.1.1c0,.35-.1.7.12,1ZM30,67.36c.06.46-.08.81.12,1.14a1.6,1.6,0,0,0,1.1-.1c0-.35.11-.7-.11-1Zm1.24,16.78c-.06-.46.09-.81-.12-1.14a1.61,1.61,0,0,0-1.1.11c0,.35-.1.7.11,1ZM190,74.56c.46,0,.81.09,1.13-.11a1.58,1.58,0,0,0-.1-1.11c-.34,0-.69-.09-1,.12Zm-90.21,30v-1s-.07-.07-.16-.17c-.3.14-.71-.18-1.07.2.12.3-.1.66.14,1Zm10.8,0c-.46.06-.81-.08-1.14.12a1.61,1.61,0,0,0,.1,1.1c.34,0,.7.1,1-.11Zm57.72,1.25c.05.45-.08.8.12,1.13a1.61,1.61,0,0,0,1.1-.09c0-.35.1-.7-.11-1ZM16.83,85.34c0-.38,0-.63,0-.87a.26.26,0,0,0-.24-.3,4.56,4.56,0,0,0-.74,0c-.08,0-.15.1-.23.15,0,.33-.1.68.11,1ZM31.25,62.55c.05.46-.09.81.15,1.2.33-.15.73.18,1.07-.17,0-.34.1-.69-.12-1ZM97.39,110.6c0-.39,0-.64,0-.88a.26.26,0,0,0-.24-.3,4.56,4.56,0,0,0-.74,0c-.08,0-.15.1-.23.15,0,.33-.1.68.12,1ZM74.55,62.5c0-.38,0-.63,0-.88a.23.23,0,0,0-.24-.29,4.57,4.57,0,0,0-.74,0c-.08,0-.15.1-.22.15,0,.33-.11.69.11,1Zm-40.9-1.15c.06.46-.08.81.16,1.2.32-.15.72.17,1.06-.18,0-.33.1-.68-.11-1Zm69.78,13.21c.46,0,.81.09,1.14-.11a1.55,1.55,0,0,0-.1-1.1c-.34,0-.69-.1-1,.11Zm6,37.29c.06.46-.08.81.12,1.14a1.55,1.55,0,0,0,1.1-.11c0-.34.1-.69-.11-1ZM167.11,113c-.46.06-.82-.09-1.14.12a1.61,1.61,0,0,0,.1,1.1c.35,0,.7.1,1-.11ZM147.9,60.1c0-.43,0-.73,0-1,0,0-.06-.08-.15-.18-.31.14-.71-.18-1.08.2.13.3-.09.66.15,1ZM98.61,117.81c0-.46.09-.81-.11-1.14a1.63,1.63,0,0,0-1.11.1c0,.35-.09.7.12,1Zm60.11,0c0,.38,0,.63,0,.88a.24.24,0,0,0,.24.29,4.57,4.57,0,0,0,.74,0c.08,0,.16-.1.23-.15,0-.33.11-.69-.11-1ZM143.09,58.94c0,.43,0,.73,0,1,0,0,.06.07.16.17.3-.13.7.19,1.07-.19-.12-.3.09-.66-.15-1ZM33.68,73.32c0-.46.09-.81-.15-1.2-.33.15-.73-.17-1.07.17,0,.34-.1.69.12,1ZM149.1,57.69c0-.43,0-.72,0-1,0,0-.06-.07-.15-.17-.31.14-.71-.18-1.07.19.12.3-.1.66.14,1Zm9.62,68.54c0-.39,0-.63,0-.88s-.08-.28-.24-.29a4.57,4.57,0,0,0-.74,0c-.08,0-.15.1-.22.15,0,.33-.11.68.11,1Zm1.18,0c.06.46-.08.81.12,1.14.38,0,.76.13,1.1-.11,0-.34.11-.69-.11-1ZM67.35,57.69c0-.46.08-.81-.12-1.14a1.61,1.61,0,0,0-1.1.1c0,.35-.1.7.11,1Zm-4.84-1.15c.05.46-.08.81.12,1.13a1.61,1.61,0,0,0,1.1-.09c0-.35.1-.7-.11-1ZM25.26,57.69c-.05-.46.09-.81-.11-1.14a1.61,1.61,0,0,0-1.1.1c0,.35-.1.7.11,1Zm135.85-2.35c0,.45-.09.8.11,1.13a1.63,1.63,0,0,0,1.11-.09c0-.35.09-.7-.12-1Zm-57.7,79.36c0,.38,0,.63,0,.87a.26.26,0,0,0,.24.3,4.56,4.56,0,0,0,.74,0c.08,0,.15-.1.26-.17-.13-.3.1-.66-.15-1ZM13.24,87.75c-.05-.46.09-.81-.12-1.14a1.61,1.61,0,0,0-1.1.1c0,.35-.1.7.12,1Zm90.18,52.91c0-.47.09-.82-.12-1.14a1.55,1.55,0,0,0-1.1.1c0,.35-.1.7.12,1Zm1.19-1.16v1s.07.08.11.12a1.61,1.61,0,0,0,1.13-.12c-.13-.32.08-.68-.16-1Zm4.83,2.38h1s.08-.06.12-.11a1.58,1.58,0,0,0-.12-1.12c-.32.12-.68-.09-1,.15ZM36.07,71c0,.38,0,.63,0,.88a.24.24,0,0,0,.24.29,4.57,4.57,0,0,0,.74,0c.08,0,.15-.1.22-.16,0-.33.11-.68-.11-1Zm9.65,0c.46-.06.81.08,1.13-.12a1.55,1.55,0,0,0-.09-1.1c-.35,0-.7-.1-1,.11ZM28.83,89c-.46.06-.81-.08-1.2.16.15.32-.17.72.18,1.06.33,0,.68.1,1-.11Zm83,66.17c.46-.06.81.08,1.14-.12a1.55,1.55,0,0,0-.11-1.1c-.34,0-.69-.11-1,.11Zm-43.34-101c-.38,0-.63,0-.88,0a.24.24,0,0,0-.29.24,4.69,4.69,0,0,0,0,.75c0,.07.1.15.16.22.33,0,.68.11,1-.11ZM111.8,157.52c-.43,0-.72,0-1,0,0,0-.07.06-.12.11a1.58,1.58,0,0,0,.12,1.12c.32-.12.68.09,1-.15ZM33.69,71c.47-.06.82.09,1.14-.12a1.55,1.55,0,0,0-.1-1.1c-.35,0-.7-.1-1,.11ZM63.75,55.33c.46-.06.81.08,1.14-.12a1.61,1.61,0,0,0-.1-1.1c-.35,0-.7-.1-1,.11Zm45.67,120.25v1s.07.07.11.11a1.51,1.51,0,0,0,1.13-.12c-.13-.32.08-.67-.16-1Zm-7.2,3.55c0-.46.09-.81-.12-1.14a1.61,1.61,0,0,0-1.1.11c0,.35-.1.7.12,1ZM101,190h-1s-.07.07-.12.11a1.61,1.61,0,0,0,.12,1.13c.32-.13.68.09,1-.15Zm7.21,0c-.46.05-.81-.09-1.13.11a1.55,1.55,0,0,0,.09,1.1c.35,0,.7.1,1-.11Zm-3.59,2.44c.05.46-.09.81.11,1.14a1.61,1.61,0,0,0,1.1-.1c0-.35.1-.7-.11-1Zm-1.18,10.77c0-.46.09-.81-.12-1.14a1.56,1.56,0,0,0-1.1.11c0,.34-.1.69.12,1Zm4.78,32.52c0,.45-.08.8.12,1.13a1.61,1.61,0,0,0,1.1-.09c0-.35.1-.7-.11-1ZM54.09,52.93c.06.47-.08.82.12,1.14a1.6,1.6,0,0,0,1.1-.1c0-.35.1-.7-.11-1ZM191.18,80.59c0,.38,0,.63,0,.87s.08.29.24.3a4.57,4.57,0,0,0,.74,0c.08,0,.15-.1.22-.16,0-.33.11-.68-.11-1Zm-163.5,12c.46,0,.82.09,1.14-.12a1.61,1.61,0,0,0-.1-1.1c-.35,0-.7-.1-1,.12ZM67.36,51.7c.38,0,.63,0,.88,0a.24.24,0,0,0,.29-.24,4.57,4.57,0,0,0,0-.74c0-.08-.1-.15-.15-.23-.34,0-.69-.1-1,.11ZM101,91.41c0,.38,0,.63,0,.88a.23.23,0,0,0,.24.29,4.57,4.57,0,0,0,.74,0c.08,0,.15-.1.22-.16,0-.33.11-.68-.11-1Zm12,61.3c.38,0,.63,0,.88,0a.24.24,0,0,0,.29-.24,4.57,4.57,0,0,0,0-.74c0-.08-.1-.15-.15-.23a3.38,3.38,0,0,0-.45,0c-.18,0-.4-.1-.57.12Z"/><path d="M55.31,116.63H54.26c-.35.32,0,.77-.19,1.11a2,2,0,0,1-1,.08c0-.08-.13-.16-.13-.24,0-.69,0-1.39,0-2.11l-1.08-.06c-.21-.16-.11-.37-.12-.56s0-.4,0-.6,0-.4,0-.6-.09-.4.13-.62h.9c.09-.08.15-.12.16-.16a1.38,1.38,0,0,0,0-.29v-5.41c.34-.34.74,0,1.05-.17.09.11.14.14.14.18s0,.3,0,.45v6.47a1.56,1.56,0,0,0,1.1.08c0-.06.09-.09.1-.13s0-.2,0-.3V103.56c.33-.35.78,0,1.15-.24a4,4,0,0,0,0-1.15c0-.35,0-.7,0-1V100c.35-.33.8,0,1.18-.27l.05-1A.77.77,0,0,1,58,98.6h2c.26.18.16.45.16.68v6.4c.37.23.72.09,1.06.14,0,.08.14.16.14.24v4.53h1c.08.13.16.21.16.29,0,.65,0,1.3,0,2,0,0,0,.08.1.17l1,0c0,.09.11.17.11.26,0,.65,0,1.3,0,2,0,0,.06.07.13.16h1a2.86,2.86,0,0,1,.09,1.22c0,.39,0,.8,0,1.2-.75,0-1.49,0-2.24,0,0,0-.07.06-.16.13v.93c-.36.25-.72.1-1.05.14-.37.31,0,.76-.21,1.1a1.3,1.3,0,0,1-.25.1c-.3,0-.6,0-.9,0v-1c-.31-.38-.76,0-1.11-.22-.19-.31,0-.66-.09-1-.32-.35-.77,0-1.14-.22a3.32,3.32,0,0,1-.06-1.14c0-.34,0-.69,0-1.05-.35-.26-.76-.11-1.14-.13s-.78,0-1.17,0C55.21,115.85,55.36,116.25,55.31,116.63Zm2.41-7.24c0-.82,0-1.52,0-2.21,0,0-.06-.08-.15-.18-.31.15-.71-.2-1.05.17,0,.69,0,1.39,0,2.09,0,0,.06.07.11.13Zm1.2,4.81c0-.82,0-1.52,0-2.21,0,0-.06-.08-.15-.18-.3.15-.71-.2-1,.17,0,.69,0,1.39,0,2.08,0,0,.06.08.12.14Zm2.42,2.41c-.05-.46.08-.81-.12-1.14a1.55,1.55,0,0,0-1.1.1c0,.34-.1.69.11,1Z"/><path d="M54.11,73.35V74.4c-.32.34-.76,0-1.09.18-.23.35,0,.7-.16,1.07-.29.3-.74-.06-1.13.21l0,1c-.33.3-.78,0-1.15.24l-.05,1c-.33.23-.69.07-1,.12-.06.07-.15.15-.15.23,0,.69,0,1.38,0,2-.37.21-.73.08-1.06.13-.33.32,0,.76-.2,1.16l-1,0c0,.09-.12.17-.12.25,0,1,0,2.1,0,3.15,0,0,0,.08-.1.16l-1,.06a.68.68,0,0,0-.11.25c0,1,0,2.1,0,3.15,0,0-.06.08-.12.15l-1,0a.77.77,0,0,0-.12.27v3.16c.31.36.75,0,1.09.19,0,0,.09.08.11.13a.65.65,0,0,1,0,.14v3.3H44.63c-.26-.35-.11-.75-.13-1.13s0-.79,0-1.16c-.38-.2-.73-.06-1.07-.13,0-.08-.13-.16-.13-.24v-6.6a1.52,1.52,0,0,1,.08-.33l1,0c0-.08.12-.16.12-.25,0-1,0-2.1,0-3.15,0,0,0-.07.11-.16l1,0c0-.09.12-.18.12-.26,0-.65,0-1.3,0-2,0,0,0-.08.13-.17h.93c.23-.37.09-.72.14-1.06.32-.35.77,0,1.14-.22a3.67,3.67,0,0,0,.05-1.15c0-.35,0-.7,0-1,.34-.34.79,0,1.18-.26V74.71c.38-.33.83,0,1.22-.29v-1a.88.88,0,0,1,.31-.12Z"/><path d="M45.69,122.65v1.06s-.06.08-.1.09l-1,.08c-.19.34-.07.69-.09,1,.32.34.77,0,1.17.24l0,1c.32.32.78,0,1.15.24v2.18c-.32.3-.77,0-1.14.23l0,1c-.33.24-.69.08-1,.12,0-.08-.15-.15-.15-.23,0-.69,0-1.38,0-2.08-.42-.2-.82,0-1.2-.1v-7c.3-.39.76,0,1.1-.21s.06-.67.1-1c.08,0,.16-.13.24-.14.69,0,1.39,0,2.13,0v-1c.37-.38.82,0,1.2-.29v-1c-.33-.26-.76,0-1.14-.14v-1.06c.34-.21.69-.07,1-.11a1.57,1.57,0,0,0,.09-1.11c-.34-.18-.69,0-1-.11a1.87,1.87,0,0,1,0-1.15H49.2c.22.35.06.76.09,1.14s0,.8,0,1.2a3.41,3.41,0,0,0,.08,1.22h2.18c.26.36.1.72.14,1-.3.39-.76,0-1.11.22-.19.32-.05.67-.09,1-.32.34-.77,0-1.19.25,0,.69,0,1.43,0,2.19a1.87,1.87,0,0,1-1.15,0l-.06-1c-.09,0-.17-.11-.26-.11-.25,0-.5,0-.75,0-.05.07-.16.15-.16.22,0,.69,0,1.39,0,2.09-.41.2-.81,0-1.2.1a4.54,4.54,0,0,0-.06-1.16,1.82,1.82,0,0,0-1.11.05v1A5.18,5.18,0,0,0,45.69,122.65Z"/><path d="M62.53,69.74v1c-.13.22-.34.17-.52.17H59.07c-.34.35,0,.79-.26,1.17H56.69c-.37.37,0,.81-.24,1.15,0,0-.08.08-.11.08H54.11v-1.2a4.94,4.94,0,0,0,1.15-.07,1.9,1.9,0,0,0,0-1.11h-1a4.33,4.33,0,0,0-.07,1.18H53.05c-.26-.34-.11-.75-.14-1.13s0-.78,0-1.13c.08-.08.12-.14.16-.14h5.69c.38-.31,0-.76.23-1.14a3.32,3.32,0,0,1,1.14-.06c.39,0,.79,0,1.19,0v1.2Z"/><path d="M42.08,135.87H39.85s-.07-.06-.16-.12v-2.12c-.37-.34-.81,0-1.18-.27v-1a.62.62,0,0,1,.25-.11H42c.08.11.13.15.13.19Z"/><path d="M50.5,99.84h4.72a2.15,2.15,0,0,1,.07,1,1.14,1.14,0,0,1-.11.11.32.32,0,0,1-.14,0H50.58A4.33,4.33,0,0,1,50.5,99.84Z"/><path d="M37.27,109.42h1c.37.31,0,.76.23,1.14.35.16.75,0,1.13.06v1.06c-.35.26-.75.11-1.13.14s-.79,0-1.13,0c-.08-.08-.14-.12-.14-.16C37.27,110.92,37.27,110.17,37.27,109.42Z"/><path d="M48.1,98.6h2.31a3.57,3.57,0,0,1,.09,1.2H48.19A3.57,3.57,0,0,1,48.1,98.6Z"/><path d="M45.69,103.41H43.38a3.65,3.65,0,0,1-.09-1.21H45.6A3.65,3.65,0,0,1,45.69,103.41Z"/><path d="M46.78,144.26h-1c-.21-.23-.09-.49-.1-.72a5.41,5.41,0,0,1,0-.9c0-.23-.1-.49.1-.73h1c.22.23.09.49.11.72a6.76,6.76,0,0,1,0,.9C46.87,143.76,47,144,46.78,144.26Z"/><path d="M167.14,93.79a5.18,5.18,0,0,1-.07,1.17h-1a1.82,1.82,0,0,1-.05-1.11A4.54,4.54,0,0,1,167.14,93.79Z"/><circle cx="46.29" cy="96.79" r="0.85"/><path d="M165.93,97.37h-1.09c-.22-.33-.07-.69-.11-1,.07,0,.15-.14.22-.15a4.7,4.7,0,0,1,.75,0,.24.24,0,0,1,.24.29C165.92,96.74,165.93,97,165.93,97.37Z"/><path d="M46.89,97.39H48.1V98.6H46.89Z"/><path d="M40.87,103.43H42c.21.35.08.7.12,1a1.59,1.59,0,0,1-1.11.1C40.78,104.24,40.92,103.89,40.87,103.43Z"/><path d="M45.69,103.4a5.18,5.18,0,0,1,1.17.07v1a1.81,1.81,0,0,1-1.11,0A5,5,0,0,1,45.69,103.4Z"/><path d="M39.68,110.62a4.24,4.24,0,0,1,.07-1.17h1a1.9,1.9,0,0,1,0,1.11A4.45,4.45,0,0,1,39.68,110.62Z"/><path d="M42.09,113a4.77,4.77,0,0,1-1.18-.07v-1a2,2,0,0,1,1.11,0A5.06,5.06,0,0,1,42.09,113Z"/><path d="M43.29,114.23H42.08V113h1.21Z"/><path d="M43.28,114.23a4.33,4.33,0,0,1,1.18.07v1a1.9,1.9,0,0,1-1.11,0A4.94,4.94,0,0,1,43.28,114.23Z"/><path d="M55.31,116.63a4.66,4.66,0,0,1,1.17.07v1a1.89,1.89,0,0,1-1.11,0A4.93,4.93,0,0,1,55.31,116.63Z"/><path d="M64.93,117.83a5.18,5.18,0,0,1,1.17.07v1A1.82,1.82,0,0,1,65,119,4.54,4.54,0,0,1,64.93,117.83Z"/><path d="M55.34,121.46v-1.11c.33-.21.68-.07,1-.11a1.55,1.55,0,0,1,.1,1.1C56.15,121.55,55.8,121.4,55.34,121.46Z"/><path d="M60.12,120.24a4.24,4.24,0,0,1-.07,1.17H59a1.89,1.89,0,0,1,0-1.11A4.45,4.45,0,0,1,60.12,120.24Z"/><path d="M64.9,120.24v1.09c-.33.22-.68.07-1,.11-.06-.07-.15-.14-.16-.22a4.57,4.57,0,0,1,0-.74.25.25,0,0,1,.3-.24C64.27,120.25,64.52,120.24,64.9,120.24Z"/><path d="M42.06,121.43v1.11c-.35.2-.7.07-1,.11a1.63,1.63,0,0,1-.1-1.11C41.25,121.34,41.6,121.48,42.06,121.43Z"/><path d="M54.11,131.09V130s.06-.08.11-.15h1a1.84,1.84,0,0,1,0,1.09C54.88,131.16,54.48,131,54.11,131.09Z"/><path d="M52.91,132.26v-1.2h1.2v1.2Z"/><path d="M52.91,132.24c0,.37,0,.71,0,1,0,0,0,.08-.1.14h-1a1.8,1.8,0,0,1,0-1.08C52.14,132.17,52.53,132.33,52.91,132.24Z"/><path d="M42.06,135.87h1.19V137a1.88,1.88,0,0,1-1.08.05C42,136.64,42.15,136.25,42.06,135.87Z"/><path d="M48.12,138.28v-1.09c.33-.25.69,0,1-.15.07.11.16.18.17.26a4.57,4.57,0,0,1,0,.74c0,.16-.1.25-.29.24S48.5,138.28,48.12,138.28Z"/><path d="M171.94,146.69v1.21h-1.2v-1.21Z"/><path d="M170.74,147.9V149a1.65,1.65,0,0,1-1.12.1c-.18-.38,0-.78-.08-1.16Z"/><path d="M208,89a4.33,4.33,0,0,1,1.18.07v1a1.82,1.82,0,0,1-1.11,0A4.94,4.94,0,0,1,208,89Z"/><path d="M103.43,333.08v-3.51c.34-.21.69-.07,1-.11.05.08.14.16.14.23,0,1.09,0,2.18,0,3.25C104.25,333.17,103.89,333,103.43,333.08Z"/><path d="M108.22,284.94h-1.09c0-.06-.11-.1-.11-.13,0-1.1,0-2.2,0-3.31a1.61,1.61,0,0,1,1.1-.1c0,.05.1.09.1.13C108.22,282.62,108.22,283.72,108.22,284.94Z"/><path d="M104.61,437.65v3.6h-1.09s-.07-.05-.09-.1a.3.3,0,0,1,0-.13V437.8C103.83,437.55,104.23,437.76,104.61,437.65Z"/><path d="M108.22,341.46h-1.09c0-.07-.11-.1-.11-.14,0-.7,0-1.39,0-2.09.34-.37.75,0,1-.17.09.11.15.15.15.18C108.22,339.94,108.22,340.63,108.22,341.46Z"/><path d="M105.84,372.75v-2.28c.17-.22.39-.1.57-.13h.45c0,.08.15.15.15.23,0,.69,0,1.38,0,2-.2.25-.41.13-.6.15A4.67,4.67,0,0,1,105.84,372.75Z"/><path d="M107,476.15c0,.74,0,1.48,0,2.22,0,0-.05.08-.1.15h-1c-.22-.34-.06-.74-.09-1.12s0-.77,0-1.17A4.54,4.54,0,0,1,107,476.15Z"/><path d="M104.61,291h1.08c.25.33,0,.69.15,1-.1.08-.17.17-.25.18a4.7,4.7,0,0,1-.75,0,.24.24,0,0,1-.23-.29C104.62,291.64,104.61,291.39,104.61,291Z"/><path d="M107,298.21v-1.1c.34-.22.69-.08,1-.12a1.61,1.61,0,0,1,.1,1.1C107.85,298.3,107.5,298.16,107,298.21Z"/><path d="M102.2,310.24v-1.19h1.11a1.81,1.81,0,0,1,0,1.08C103,310.32,102.58,310.15,102.2,310.24Z"/><path d="M105.81,336.7h1.09c.24.33,0,.69.15,1-.11.08-.18.17-.26.18a4.57,4.57,0,0,1-.74,0,.23.23,0,0,1-.24-.29C105.82,337.33,105.81,337.08,105.81,336.7Z"/><path d="M105.84,361.94v-1.11c.33-.21.68-.07,1-.11a1.61,1.61,0,0,1,.11,1.1C106.65,362,106.3,361.88,105.84,361.94Z"/><path d="M107,367.92V369c-.34.21-.69.07-1,.11a1.61,1.61,0,0,1-.1-1.1C106.18,367.84,106.53,368,107,367.92Z"/><path d="M108.19,408.82v1.08c-.33.25-.69,0-1,.15-.08-.1-.17-.18-.18-.26a4.57,4.57,0,0,1,0-.74.24.24,0,0,1,.29-.24C107.56,408.83,107.81,408.82,108.19,408.82Z"/><path d="M108.19,413.63v1.08c-.33.25-.69,0-1,.15-.08-.11-.17-.18-.18-.26a4.57,4.57,0,0,1,0-.74.24.24,0,0,1,.29-.24C107.56,413.64,107.81,413.63,108.19,413.63Z"/><path d="M104.61,437.7v-1.19h1.11a1.8,1.8,0,0,1,0,1.08C105.38,437.77,105,437.61,104.61,437.7Z"/><path d="M153.88,64.93V66c-.33.22-.68.07-1,.11-.06-.07-.15-.14-.16-.22a4.57,4.57,0,0,1,0-.74.24.24,0,0,1,.29-.24Z"/><path d="M62.53,48.1a5.18,5.18,0,0,1-.07,1.17H60.22a1.81,1.81,0,0,1,0-1.08c.06,0,.1-.09.14-.09Z"/><path d="M51.71,50.5H49.49s-.08,0-.16-.1v-1c.35-.21.75-.06,1.12-.08s.78,0,1.17,0A4.57,4.57,0,0,1,51.71,50.5Z"/><path d="M67.33,43.29h-2.4V42.23c.34-.27.75-.11,1.13-.14s.78,0,1.18,0C67.44,42.5,67.28,42.9,67.33,43.29Z"/><path d="M50.5,46.89a4.66,4.66,0,0,1,1.17.07v1a2,2,0,0,1-1.11,0A5,5,0,0,1,50.5,46.89Z"/><path d="M182.74,115.42v1.1c-.34.21-.69.07-1,.12a1.63,1.63,0,0,1-.1-1.11C181.93,115.33,182.28,115.47,182.74,115.42Z"/><path d="M145.46,55.31V56.4c-.06.05-.1.11-.14.11H142a1.53,1.53,0,0,1-.09-1.09c0-.05.09-.11.12-.11Z"/><path d="M150.3,50.5a4.24,4.24,0,0,1-.07,1.17h-1a1.89,1.89,0,0,1,0-1.11A4.93,4.93,0,0,1,150.3,50.5Z"/><path d="M147.91,51.68h-1.1c-.22-.34-.08-.69-.12-1a1.55,1.55,0,0,1,1.1-.1C148,50.86,147.86,51.21,147.91,51.68Z"/><path d="M19.26,78.16V77.07c.34-.22.69-.08,1-.12,0,.08.15.15.15.23a4.59,4.59,0,0,1,0,.74.25.25,0,0,1-.3.24C19.9,78.14,19.65,78.16,19.26,78.16Z"/><path d="M188.78,90.18a4.24,4.24,0,0,1,.07-1.17h1a1.82,1.82,0,0,1,.05,1.11A4.45,4.45,0,0,1,188.78,90.18Z"/><path d="M74.55,52.9a5.18,5.18,0,0,1,1.17.07v1a1.82,1.82,0,0,1-1.11.05A4.54,4.54,0,0,1,74.55,52.9Z"/><path d="M103.41,90.18V89h1.2v1.2Z"/><path d="M43.29,58.92V56.51h1.2v2.41Z"/><path d="M48.1,56.51a4.24,4.24,0,0,1-1.17-.07v-1a1.78,1.78,0,0,1,1.1,0A4.45,4.45,0,0,1,48.1,56.51Z"/><path d="M36.07,18a5.18,5.18,0,0,1,1.17.07v1a1.81,1.81,0,0,1-1.11.05A5,5,0,0,1,36.07,18Z"/><path d="M40.88,20.44v1.2H39.82c-.24-.34-.13-.72-.1-1.12C40.1,20.34,40.5,20.49,40.88,20.44Z"/><path d="M49.3,30.06A4.24,4.24,0,0,1,48.13,30V29a1.89,1.89,0,0,1,1.11,0A4.93,4.93,0,0,1,49.3,30.06Z"/><path d="M73.37,40.9V39.79c.34-.21.69-.07,1-.11a1.55,1.55,0,0,1,.1,1.1C74.19,41,73.84,40.84,73.37,40.9Z"/><path d="M33.67,99.8a3.57,3.57,0,0,1,.09-1.2h2.31v2.3A2.35,2.35,0,0,1,35,101c-.31-.32,0-.75-.17-1.11C34.44,99.71,34.05,99.85,33.67,99.8Z"/></g></g></svg>