<svg xmlns="http://www.w3.org/2000/svg" viewBox="0 0 110.38 110.38"><title>Recurso 62MANDALA</title><g id="Capa_2" data-name="Capa 2"><g id="Capa_1-2" data-name="Capa 1"><path d="M56.18,30.65H46.67l5.09-21.4A12,12,0,0,1,63.47,0h0Z"/><path d="M57.08,46h0l7.29-30.65h9.5l-5.09,21.4A12,12,0,0,1,57.08,46Z"/><path d="M65.93,9.35h0L68.13.11h9.51A12,12,0,0,1,65.93,9.35Z"/><path d="M38.54,37.14l-6.72,6.72L20.28,25.13A12,12,0,0,1,22,10.31h0Z"/><path d="M50,47.34h0L33.49,20.51l6.72-6.72L51.75,32.52A12,12,0,0,1,50,47.34Z"/><path d="M30.37,15.18h0l-5-8.09L32.11.37h0A12,12,0,0,1,30.37,15.18Z"/><path d="M30.65,54.2v9.5L9.25,58.61A12,12,0,0,1,0,46.91H0Z"/><path d="M46,53.3h0L15.33,46V36.5l21.4,5.09A12,12,0,0,1,46,53.3Z"/><path d="M9.35,44.45h0L.11,42.25V32.74h0A12,12,0,0,1,9.35,44.45Z"/><path d="M37.14,71.84l6.72,6.72L25.13,90.1a12,12,0,0,1-14.82-1.74h0Z"/><path d="M47.34,60.37h0L20.51,76.88l-6.72-6.72L32.52,58.63A12,12,0,0,1,47.34,60.37Z"/><path d="M15.18,80h0L7.09,85,.37,78.27h0A12,12,0,0,1,15.18,80Z"/><path d="M37.14,71.84l6.72,6.72L25.13,90.1a12,12,0,0,1-14.82-1.74h0Z"/><path d="M47.34,60.37h0L20.51,76.88l-6.72-6.72L32.52,58.63A12,12,0,0,1,47.34,60.37Z"/><path d="M15.18,80h0L7.09,85,.37,78.27h0A12,12,0,0,1,15.18,80Z"/><path d="M54.2,79.73h9.5l-5.09,21.4a12,12,0,0,1-11.7,9.25h0Z"/><path d="M53.3,64.4h0L46,95.05H36.5l5.09-21.4A12,12,0,0,1,53.3,64.4Z"/><path d="M44.45,101h0l-2.2,9.25H32.74A12,12,0,0,1,44.45,101Z"/><path d="M54.2,79.73h9.5l-5.09,21.4a12,12,0,0,1-11.7,9.25h0Z"/><path d="M53.3,64.4h0L46,95.05H36.5l5.09-21.4A12,12,0,0,1,53.3,64.4Z"/><path d="M44.45,101h0l-2.2,9.25H32.74A12,12,0,0,1,44.45,101Z"/><path d="M71.84,73.24l6.72-6.72L90.1,85.25a12,12,0,0,1-1.74,14.82h0Z"/><path d="M60.37,63h0L76.88,89.87l-6.72,6.72L58.63,77.85A12,12,0,0,1,60.37,63Z"/><path d="M80,95.19h0l5,8.1L78.27,110h0A12,12,0,0,1,80,95.19Z"/><path d="M71.84,73.24l6.72-6.72L90.1,85.25a12,12,0,0,1-1.74,14.82h0Z"/><path d="M60.37,63h0L76.88,89.87l-6.72,6.72L58.63,77.85A12,12,0,0,1,60.37,63Z"/><path d="M80,95.19h0l5,8.1L78.27,110h0A12,12,0,0,1,80,95.19Z"/><path d="M79.73,56.18V46.67l21.4,5.09a12,12,0,0,1,9.25,11.71h0Z"/><path d="M64.4,57.08h0l30.65,7.29v9.5l-21.4-5.09A12,12,0,0,1,64.4,57.08Z"/><path d="M101,65.93h0l9.25,2.2v9.51h0A12,12,0,0,1,101,65.93Z"/><path d="M79.73,56.18V46.67l21.4,5.09a12,12,0,0,1,9.25,11.71h0Z"/><path d="M64.4,57.08h0l30.65,7.29v9.5l-21.4-5.09A12,12,0,0,1,64.4,57.08Z"/><path d="M101,65.93h0l9.25,2.2v9.51h0A12,12,0,0,1,101,65.93Z"/><path d="M73.24,38.54l-6.72-6.72L85.25,20.28A12,12,0,0,1,100.07,22h0Z"/><path d="M63,50h0L89.87,33.49l6.72,6.72L77.85,51.75A12,12,0,0,1,63,50Z"/><path d="M95.19,30.37h0l8.1-5L110,32.11h0A12,12,0,0,1,95.19,30.37Z"/></g></g></svg>