<svg xmlns="http://www.w3.org/2000/svg" viewBox="0 0 127.01 127.01"><title>Recurso 70MANDALA</title><g id="Capa_2" data-name="Capa 2"><g id="Capa_1-2" data-name="Capa 1"><polygon points="63.47 127.01 64.68 95.59 63.47 72.55 62.27 95.59 63.47 127.01"/><polygon points="95.23 118.52 80.56 90.71 68 71.36 78.48 91.91 95.23 118.52"/><polygon points="118.49 95.29 91.88 78.54 71.33 68.06 90.68 80.62 118.49 95.29"/><polygon points="127.01 63.54 95.59 62.34 72.55 63.54 95.59 64.74 127.01 63.54"/><polygon points="118.52 31.78 90.71 46.45 71.36 59.01 91.91 48.53 118.52 31.78"/><polygon points="95.29 8.53 78.54 35.13 68.06 55.69 80.62 36.34 95.29 8.53"/><polygon points="63.54 0 62.34 31.42 63.54 54.46 64.74 31.42 63.54 0"/><polygon points="31.78 8.49 46.45 36.3 59.01 55.66 48.53 35.1 31.78 8.49"/><polygon points="8.53 31.72 35.13 48.48 55.69 58.95 36.34 46.39 8.53 31.72"/><polygon points="0 63.47 31.42 64.68 54.46 63.47 31.42 62.27 0 63.47"/><polygon points="8.49 95.23 36.3 80.56 55.66 68 35.1 78.48 8.49 95.23"/><polygon points="31.72 118.49 48.48 91.88 58.95 71.33 46.39 90.68 31.72 118.49"/></g></g></svg>