<svg xmlns="http://www.w3.org/2000/svg" viewBox="0 0 111 111"><title>Recurso 107MANDALA</title><g id="Capa_2" data-name="Capa 2"><g id="Capa_1-2" data-name="Capa 1"><path d="M56.15,111H54.78c0-.14,0-.27,0-.41,0-2.51,0-5,0-7.54,0-.33,0-.66,0-1a3.79,3.79,0,0,0-1.22-2.54l-.29-.26a9.54,9.54,0,0,0-1.55-1A25.38,25.38,0,0,0,49,97c-1.4-.6-2.85-1.11-4.28-1.64s-2.8-1-4.15-1.69a17.52,17.52,0,0,1-3-1.78,9.38,9.38,0,0,1-3-3.69,12.31,12.31,0,0,1-.52-1.31c-.32-1-.62-2.09-.91-3.15-.19-.65-.35-1.31-.49-2a2.9,2.9,0,0,1,0-.78.47.47,0,0,1,.49-.47,1.85,1.85,0,0,1,.58,0c.43.13.86.28,1.27.45.63.25,1.25.53,1.87.78a7.52,7.52,0,0,0,3.47.54c.77,0,1.55-.14,2.31-.26,1.32-.22,2.63-.45,3.94-.7A27.54,27.54,0,0,0,50,80.49a12.44,12.44,0,0,0,2.67-1.17,6.14,6.14,0,0,0,1.21-.94,3.06,3.06,0,0,0,.81-1.55,5.78,5.78,0,0,0,.1-1.17V64.41a1.77,1.77,0,0,0,0-.23s0,0,0,0,0,0,0,0a0,0,0,0,0,0,0c-.13.77-.27,1.55-.41,2.32-.22,1.29-.45,2.59-.68,3.88-.25,1.44-.5,2.88-.76,4.32-.1.56-.2,1.12-.33,1.67a3.18,3.18,0,0,1-1.1,1.78,6.49,6.49,0,0,1-1.53.94,15.18,15.18,0,0,1-3.27,1,30.61,30.61,0,0,1-3.13.55c-.63.07-1.26.14-1.89.17a9.35,9.35,0,0,1-2.84-.26,11.42,11.42,0,0,1-2.32-.88c-1.29-.64-2.54-1.37-3.77-2.12-.89-.55-1.76-1.13-2.65-1.69a8.46,8.46,0,0,0-.77-.44,1.71,1.71,0,0,0-.44-.13.37.37,0,0,0-.45.28.75.75,0,0,0-.05.26,5.65,5.65,0,0,0,0,.58,6.94,6.94,0,0,0,.39,1.42,19.79,19.79,0,0,0,1.17,2.46,48.44,48.44,0,0,1,2.28,4.9c.33.83.68,1.66,1,2.48a13.4,13.4,0,0,0,4.71,5.72,30.87,30.87,0,0,0,3.31,2c1,.54,2.06,1.06,3.08,1.6a16.08,16.08,0,0,1,2,1.24,5.8,5.8,0,0,1,1.31,1.26,2.39,2.39,0,0,1,.48,1.67c0,.14,0,.28,0,.42l-.39,2.26c-.26,1.44-.51,2.88-.77,4.33-.11.62-.21,1.24-.33,1.87,0,.16,0,.18-.21.15l-1-.17c-.23,0-.24-.06-.2-.28l.36-2,.69-3.94.45-2.55a2.51,2.51,0,0,0-.43-1.84,4.49,4.49,0,0,0-.74-.83,9.17,9.17,0,0,0-1.56-1.14c-1-.62-2.07-1.21-3.11-1.81a34.69,34.69,0,0,1-3.26-2.09A14.59,14.59,0,0,1,34.13,90a18.27,18.27,0,0,1-1.53-2.86c-.41-.94-.81-1.89-1.22-2.83-.6-1.38-1.31-2.71-2-4A19.78,19.78,0,0,1,28,77.39a9.7,9.7,0,0,1-.6-2.37,2.35,2.35,0,0,1,0-.75c.09-.37.31-.51.65-.38a2.93,2.93,0,0,1,.58.31q.43.3.84.63a33.12,33.12,0,0,0,3.35,2.42,40.08,40.08,0,0,0,4,2.2,10.39,10.39,0,0,0,5.27.89A23.18,23.18,0,0,0,44.88,80,19.07,19.07,0,0,0,48,79.11a7.65,7.65,0,0,0,1.79-.94,3.12,3.12,0,0,0,1.3-2.08l.48-2.71c.25-1.44.51-2.87.76-4.3s.51-2.9.77-4.35l.15-.89a6.08,6.08,0,0,0-.39.91q-2,5.55-4,11.11a3.4,3.4,0,0,1-1.48,1.81,7.36,7.36,0,0,1-1.39.66,15.27,15.27,0,0,1-4.44.81,10.26,10.26,0,0,1-4.14-.66,22.7,22.7,0,0,1-4.2-2.13A18,18,0,0,1,29.28,73c-.64-.72-1.25-1.47-1.89-2.19a9.07,9.07,0,0,0-.67-.72,2.85,2.85,0,0,0-.53-.38.39.39,0,0,0-.61.22,1.23,1.23,0,0,0-.12.37,3.51,3.51,0,0,0-.07.72c0,.52,0,1.05.09,1.57a22.1,22.1,0,0,0,1.13,4.67A25.75,25.75,0,0,0,28.39,81c.87,1.56,1.71,3.14,2.45,4.78.36.8.73,1.59,1.1,2.38a21,21,0,0,0,3.65,5.38c.63.68,1.3,1.33,1.94,2,.45.47.9.93,1.33,1.41a5.59,5.59,0,0,1,.87,1.23,2.54,2.54,0,0,1,.23,1.87,7.15,7.15,0,0,1-.23.79c-.81,2.21-1.61,4.43-2.42,6.65l-.09.24c0,.12-.09.14-.21.09-.36-.12-.72-.26-1.07-.39-.1,0-.12-.09-.08-.18s.06-.18.1-.27l2.25-6.19a10.1,10.1,0,0,0,.32-1.07,2.78,2.78,0,0,0-.22-2,4.5,4.5,0,0,0-.23-.43,9.3,9.3,0,0,0-1-1.35c-.55-.65-1.11-1.29-1.67-1.94a25.43,25.43,0,0,1-3.84-5.84l-1.37-2.91c-.67-1.41-1.42-2.78-2.18-4.15a24.59,24.59,0,0,1-3-8.85,15.53,15.53,0,0,1-.18-2.36,8.69,8.69,0,0,1,.07-.88,1.78,1.78,0,0,1,.14-.5.44.44,0,0,1,.73-.25,1.6,1.6,0,0,1,.4.33c.32.36.64.72.94,1.1.73.91,1.43,1.85,2.17,2.75a16.68,16.68,0,0,0,2.83,2.74A19.09,19.09,0,0,0,37.49,78a9.74,9.74,0,0,0,3.51.55,13,13,0,0,0,3.1-.46A7.19,7.19,0,0,0,46,77.34a3.21,3.21,0,0,0,1.4-1.71c.67-1.88,1.36-3.76,2-5.63.77-2.12,1.54-4.23,2.3-6.35a.37.37,0,0,0,.06-.32c-.08.15-.15.26-.22.37L45.51,74.2l-.5.85a3.67,3.67,0,0,1-1.91,1.58,8.5,8.5,0,0,1-3.84.49,10.46,10.46,0,0,1-2.58-.57,14.55,14.55,0,0,1-4.38-2.33,16.54,16.54,0,0,1-2.89-3,33.7,33.7,0,0,1-2.06-3.08c-.55-.93-1.1-1.86-1.67-2.79a8.39,8.39,0,0,0-.57-.8,2,2,0,0,0-.44-.43.42.42,0,0,0-.72.16,2.58,2.58,0,0,0-.2.55,9.09,9.09,0,0,0-.2,2,33.6,33.6,0,0,0,.32,5.3,36,36,0,0,0,.7,3.7A28.88,28.88,0,0,0,27,82.11c1.06,2,2.06,4.13,3,6.25.62,1.45,1.26,2.89,1.88,4.33a11.22,11.22,0,0,1,.61,1.8,3.85,3.85,0,0,1-.26,2.65c-.29.57-.58,1.13-.89,1.68-.91,1.6-1.83,3.18-2.75,4.77l-.12.2c-.07.12-.09.12-.2.06l-.8-.46c-.35-.2-.35-.14-.14-.5,1-1.68,1.95-3.37,2.91-5,.28-.49.53-1,.79-1.48a4,4,0,0,0,.34-2.49,10.66,10.66,0,0,0-.47-1.74c-.64-1.84-1.39-3.63-2.16-5.42-.62-1.44-1.33-2.85-2-4.26A30.85,30.85,0,0,1,24.53,77a37.67,37.67,0,0,1-1.3-8c-.06-1-.09-2-.06-3a16.36,16.36,0,0,1,.18-2.32,3.42,3.42,0,0,1,.26-.88c.21-.43.49-.49.85-.16a2.72,2.72,0,0,1,.4.43c.22.33.45.65.64,1,.5.87,1,1.76,1.47,2.63a33.36,33.36,0,0,0,2.44,3.89,15.69,15.69,0,0,0,2.71,2.93A12.53,12.53,0,0,0,38,76.31a7.85,7.85,0,0,0,2.9,0,3.91,3.91,0,0,0,2.89-2.05l.12-.2,3.21-5.56,3.19-5.54.17-.31a.74.74,0,0,0-.25.21l-8,9.5c-.32.38-.65.77-1,1.14a3.59,3.59,0,0,1-1.69,1,5,5,0,0,1-1.58.19,8.82,8.82,0,0,1-3.31-.75,10.62,10.62,0,0,1-3.61-2.61,20.29,20.29,0,0,1-2.58-3.54,53,53,0,0,1-2.62-5.22c-.43-1-.86-1.93-1.31-2.89-.17-.37-.38-.71-.58-1.06a1.74,1.74,0,0,0-.28-.32.42.42,0,0,0-.68.06,1.32,1.32,0,0,0-.12.2c-.08.18-.17.37-.24.57a10.52,10.52,0,0,0-.38,1.92,31.83,31.83,0,0,0-.25,3.37,60.2,60.2,0,0,0,.16,7c.09,1.15.22,2.28.39,3.42a34.79,34.79,0,0,0,1.17,5.24c.48,1.52,1,3,1.5,4.54a20.23,20.23,0,0,1,1,4,7,7,0,0,1,0,1.83,4.42,4.42,0,0,1-1.07,2.29l-4.68,5.57a.93.93,0,0,1-.13.15.11.11,0,0,1-.11,0l-1-.8a.1.1,0,0,1,0-.14l.17-.21,2.85-3.39c.61-.74,1.23-1.47,1.85-2.21a4.5,4.5,0,0,0,.92-1.87,6.28,6.28,0,0,0,.12-1.56,12.3,12.3,0,0,0-.27-2c-.26-1.24-.62-2.44-1-3.64-.41-1.38-.81-2.77-1.13-4.18A41.19,41.19,0,0,1,22.09,74c-.13-1.11-.24-2.22-.3-3.33s-.08-2.08-.09-3.11A53,53,0,0,1,22,60.31,13.87,13.87,0,0,1,22.49,58a6.72,6.72,0,0,1,.35-.88,1.06,1.06,0,0,1,.28-.35.32.32,0,0,1,.43,0,1,1,0,0,1,.28.27,4.15,4.15,0,0,1,.38.64c.29.65.58,1.3.84,2,.81,2,1.65,4,2.63,5.93a25.29,25.29,0,0,0,2.38,3.92,13.7,13.7,0,0,0,2,2.18,8.86,8.86,0,0,0,2.88,1.72,6.38,6.38,0,0,0,3.09.36,3.43,3.43,0,0,0,2.09-1.06c.17-.18.33-.38.49-.57l2.26-2.69,6.28-7.49a2.88,2.88,0,0,0,.22-.27.56.56,0,0,0-.23.12L40.54,69l-2.11,1.77a3.83,3.83,0,0,1-1.29.76,4.09,4.09,0,0,1-2.14.1,6.09,6.09,0,0,1-2.38-1.13,10.45,10.45,0,0,1-1.88-1.82A21,21,0,0,1,28.35,65a39.87,39.87,0,0,1-3-7.67c-.29-1-.56-2-.85-3.06-.08-.3-.18-.59-.28-.88a5.18,5.18,0,0,0-.26-.6q-.49-.93-1.08,0a1.56,1.56,0,0,0-.16.28c-.17.43-.36.84-.51,1.28a28.34,28.34,0,0,0-1.05,4.46c-.25,1.51-.4,3-.51,4.56-.08,1.17-.15,2.35-.2,3.53-.08,2.07-.12,4.13-.06,6.2,0,1.51.12,3,.19,4.52,0,.66.09,1.31.14,2a31.3,31.3,0,0,1,.11,3.21,9.52,9.52,0,0,1-.2,1.69A4.61,4.61,0,0,1,19.05,87l-.22.19Q16.61,89,14.41,90.91c-.3.24-.59.49-.88.74-.08.06-.13,0-.2,0-.21-.27-.43-.52-.65-.78s-.2-.21,0-.41l2.64-2.21,2.84-2.39A4.41,4.41,0,0,0,19.44,84a7.88,7.88,0,0,0,.43-1.91A17.33,17.33,0,0,0,20,80c0-1.7-.06-3.39-.08-5.09,0-2.31,0-4.63.12-7,.08-1.49.16-3,.27-4.48.08-1.09.2-2.18.32-3.26a37.72,37.72,0,0,1,.94-5,22.24,22.24,0,0,1,.91-2.87,9,9,0,0,1,.43-.88,1.8,1.8,0,0,1,.35-.47.41.41,0,0,1,.71.06,3.23,3.23,0,0,1,.29.59,8.16,8.16,0,0,1,.26.84c.27,1.08.53,2.17.79,3.25a38.41,38.41,0,0,0,1.9,5.85,30.08,30.08,0,0,0,2.59,5,12.36,12.36,0,0,0,2.4,2.75,5.56,5.56,0,0,0,2.15,1.16,3.15,3.15,0,0,0,2.88-.56l.4-.34,8.8-7.37,1.73-1.46.2-.17s0,0,0,0a.07.07,0,0,0-.06,0l-.25.14L36,67.6c-.16.09-.32.18-.49.26a2.37,2.37,0,0,1-1.11.24A3.31,3.31,0,0,1,33,67.72a5.85,5.85,0,0,1-1.43-1,12.31,12.31,0,0,1-1.84-2.3,26.83,26.83,0,0,1-3.1-7,46,46,0,0,1-1.37-7.37c-.08-.71-.17-1.43-.28-2.14a5.9,5.9,0,0,0-.23-.92,1.14,1.14,0,0,0-.19-.34.31.31,0,0,0-.44-.08,1.06,1.06,0,0,0-.35.28,10.1,10.1,0,0,0-.62.84,13,13,0,0,0-.84,1.67,35.81,35.81,0,0,0-1.76,5.14,51.64,51.64,0,0,0-1.26,6c-.2,1.34-.38,2.68-.57,4-.15,1.08-.28,2.17-.42,3.25s-.33,2.29-.5,3.44c-.19,1.32-.42,2.63-.73,3.93a14.19,14.19,0,0,1-.89,2.67,5.48,5.48,0,0,1-2.31,2.52l-.2.11-5.53,3.2-.2.11c-.14.07-.17.07-.24-.05l-.56-1c-.07-.13-.06-.14.08-.23l.25-.15c1.9-1.09,3.8-2.2,5.71-3.29a5.72,5.72,0,0,0,2.28-2.37,11.87,11.87,0,0,0,.69-1.6,29.47,29.47,0,0,0,1-4.06c.46-2.36.81-4.73,1.18-7.11.23-1.5.46-3,.72-4.5a54.1,54.1,0,0,1,1.52-6.37,35.63,35.63,0,0,1,1.83-4.9A13.79,13.79,0,0,1,23.6,46.1a6.39,6.39,0,0,1,.47-.59,1.4,1.4,0,0,1,.36-.28.38.38,0,0,1,.56.14,1.14,1.14,0,0,1,.13.3,2.65,2.65,0,0,1,.13.54c.08.6.14,1.2.2,1.79.08.87.13,1.75.22,2.62a41.39,41.39,0,0,0,.64,4.14,26.9,26.9,0,0,0,1.77,5.61,20.19,20.19,0,0,0,2.16,3.78,9,9,0,0,0,1.64,1.74,4.14,4.14,0,0,0,1.32.72A2.39,2.39,0,0,0,35,66.48a5.21,5.21,0,0,0,.52-.28l6.33-3.65,5.48-3.17a.52.52,0,0,0,.28-.22l-.34.11L35.31,63.61a7.58,7.58,0,0,1-.81.25,2.85,2.85,0,0,1-2-.22,4.84,4.84,0,0,1-1.18-.83,9.53,9.53,0,0,1-1.43-1.74,18.1,18.1,0,0,1-2.26-5A30.31,30.31,0,0,1,26.45,48c0-.85,0-1.7.05-2.55,0-.35,0-.7,0-1,0-.76,0-1.51,0-2.26a2.36,2.36,0,0,0-.14-.74.4.4,0,0,0-.61-.24,1.8,1.8,0,0,0-.43.29,6.65,6.65,0,0,0-.64.66,19.54,19.54,0,0,0-1.79,2.62,37.77,37.77,0,0,0-2.6,5.54A76.5,76.5,0,0,0,17.65,59c-.39,1.55-.78,3.1-1.18,4.64a30.41,30.41,0,0,1-1.37,4.07,14.05,14.05,0,0,1-1.38,2.56,6.11,6.11,0,0,1-3,2.28C8.79,73.25,6.88,74,5,74.66l-1.17.43c-.2.07-.22.06-.29-.13s-.19-.49-.27-.74-.07-.26-.11-.4c.12,0,.24-.11.36-.15l7-2.56a5.7,5.7,0,0,0,1.12-.52,6.38,6.38,0,0,0,2-1.91,13.66,13.66,0,0,0,1.19-2.15,34.05,34.05,0,0,0,1.69-4.89c.51-1.81,1-3.62,1.52-5.43a67.78,67.78,0,0,1,2.54-7.3A36.5,36.5,0,0,1,23.61,43a17.07,17.07,0,0,1,1.61-2.16,8.7,8.7,0,0,1,.76-.72,1.72,1.72,0,0,1,.48-.26.35.35,0,0,1,.49.2,2,2,0,0,1,.14.54,7.48,7.48,0,0,1,0,.82c-.05.88-.1,1.77-.17,2.65s-.13,2-.15,3A29.47,29.47,0,0,0,27,50.75a27.07,27.07,0,0,0,.69,3.87,17.87,17.87,0,0,0,1.57,4.12,11,11,0,0,0,1.69,2.37,5.08,5.08,0,0,0,1.21,1,3.14,3.14,0,0,0,1.4.4,4.2,4.2,0,0,0,1.57-.29l3.35-1.23,8.44-3.07a.53.53,0,0,0,.27-.15l-.24,0-2.42.43L39.83,59l-5,.88a4.1,4.1,0,0,1-1.11,0,3.79,3.79,0,0,1-1.81-.69,6.33,6.33,0,0,1-1.5-1.51,11,11,0,0,1-1.5-2.86,21.4,21.4,0,0,1-1.24-6.81,29.61,29.61,0,0,1,.29-4.8c.17-1.32.41-2.62.68-3.91.12-.61.25-1.22.35-1.83a4.05,4.05,0,0,0,0-.92.43.43,0,0,0-.62-.41,2,2,0,0,0-.56.25,7.79,7.79,0,0,0-.87.64,16.1,16.1,0,0,0-2.26,2.41,43.87,43.87,0,0,0-4.19,6.58c-1.07,2-2,4.16-2.85,6.29C17,54.19,16.23,56,15.48,57.83A24.73,24.73,0,0,1,14,61a9.06,9.06,0,0,1-1.5,2,4.56,4.56,0,0,1-2.39,1.28l-3.55.64-4.36.77-1.06.18c-.07,0-.14,0-.16-.07l-.21-1.2c0-.07,0-.13.1-.14l.32-.06,2.77-.49,5.49-1a11.25,11.25,0,0,0,1.12-.25,4.81,4.81,0,0,0,2.17-1.47A11.15,11.15,0,0,0,14,59.25a34.59,34.59,0,0,0,1.64-3.35c.82-1.87,1.62-3.73,2.44-5.59a57,57,0,0,1,3.65-7.08,38.21,38.21,0,0,1,3.62-5.06A15.82,15.82,0,0,1,28,35.71a7.64,7.64,0,0,1,.86-.53,1.23,1.23,0,0,1,.6-.17.36.36,0,0,1,.42.32,1.82,1.82,0,0,1,0,.52,10.63,10.63,0,0,1-.38,1.83,43,43,0,0,0-1.05,4.76c-.16,1.05-.29,2.1-.35,3.16a25.64,25.64,0,0,0,0,3.28,21.41,21.41,0,0,0,.41,2.78,14.72,14.72,0,0,0,1.32,3.7,7.21,7.21,0,0,0,1.67,2.17,3.75,3.75,0,0,0,3.32.89c.78-.16,1.57-.29,2.36-.42l4.64-.82,4.39-.77.7-.14v0H34.58a3.9,3.9,0,0,1-2.77-1.16,6.29,6.29,0,0,1-1.1-1.42,10.59,10.59,0,0,1-.87-1.91A16.68,16.68,0,0,1,29,46.59a26.84,26.84,0,0,1,.82-6.52,31.67,31.67,0,0,1,1.55-4.45c.31-.73.62-1.45.92-2.18a3.38,3.38,0,0,0,.27-.94.93.93,0,0,0,0-.29.34.34,0,0,0-.35-.33,1.45,1.45,0,0,0-.51,0,5,5,0,0,0-.77.28,9.89,9.89,0,0,0-1.69,1,24.64,24.64,0,0,0-3.78,3.29,40.85,40.85,0,0,0-3.56,4.41C20.37,43,19,45.23,17.71,47.49c-.79,1.37-1.59,2.74-2.41,4.09a17.42,17.42,0,0,1-1.83,2.52,8,8,0,0,1-1.41,1.32,4.39,4.39,0,0,1-1.54.7,5.15,5.15,0,0,1-1.17.11H0V54.78H9.78a7,7,0,0,0,.78-.12,4.64,4.64,0,0,0,1.93-1A10.71,10.71,0,0,0,14,52.14a23.9,23.9,0,0,0,1.9-2.67c.82-1.29,1.62-2.59,2.43-3.89a73.16,73.16,0,0,1,4.75-6.84,31,31,0,0,1,5-5.14,19.61,19.61,0,0,1,3.11-2.08A7.31,7.31,0,0,1,32.46,31a2.29,2.29,0,0,1,.68-.1c.34,0,.51.19.48.52a2.18,2.18,0,0,1-.15.61c-.15.38-.32.76-.5,1.13-.37.77-.75,1.53-1.12,2.3a26.15,26.15,0,0,0-1.73,4.77,23.88,23.88,0,0,0-.69,5.58,15,15,0,0,0,.43,3.84A9.87,9.87,0,0,0,31,52.49a5.67,5.67,0,0,0,1,1.31,3.69,3.69,0,0,0,1.37.82,3.83,3.83,0,0,0,1.16.17H46.87a5.28,5.28,0,0,0-.76-.19l-5.39-.94c-2-.35-3.94-.71-5.91-1A4,4,0,0,1,32,50.86a8.88,8.88,0,0,1-.62-1.08A10.64,10.64,0,0,1,30.51,46a17.8,17.8,0,0,1,0-3,19.46,19.46,0,0,1,.91-4.35A24.23,24.23,0,0,1,34.27,33c.62-.92,1.26-1.82,1.88-2.73a8.85,8.85,0,0,0,.5-.84,2.06,2.06,0,0,0,.2-.59.36.36,0,0,0-.28-.45,1.52,1.52,0,0,0-.42-.06,4.88,4.88,0,0,0-1.51.3,19.87,19.87,0,0,0-3.91,1.83A32.7,32.7,0,0,0,24.83,35a50.49,50.49,0,0,0-3.66,3.94c-1.23,1.46-2.45,2.94-3.68,4.4A31.83,31.83,0,0,1,15,46.1a11.13,11.13,0,0,1-1.8,1.42,4.69,4.69,0,0,1-3.3.68l-3.81-.67L2.5,46.9.92,46.63c-.2,0-.22-.07-.19-.26l.18-1c0-.18.06-.19.25-.17l.12,0,3.49.61,4.77.85c.34.05.67.11,1,.14a4.66,4.66,0,0,0,2.53-.56,9.11,9.11,0,0,0,1.72-1.19,26.9,26.9,0,0,0,2.61-2.62c1.36-1.51,2.7-3,4.06-4.56a44.37,44.37,0,0,1,4.75-4.65,32.16,32.16,0,0,1,5.06-3.51,22.73,22.73,0,0,1,4.13-1.82,8.05,8.05,0,0,1,1.53-.34,2.48,2.48,0,0,1,.72,0c.37.06.49.28.38.64a1.71,1.71,0,0,1-.21.48c-.17.27-.34.53-.53.79-.52.69-1,1.37-1.58,2.05a26.9,26.9,0,0,0-3.07,5A17.91,17.91,0,0,0,31,44.75a11.74,11.74,0,0,0,.33,2.43,7.3,7.3,0,0,0,1,2.31,3.73,3.73,0,0,0,2.59,1.67c1.55.25,3.1.54,4.65.81l7.22,1.28.27,0a.62.62,0,0,0-.28-.16L38,49.92l-2.71-1a4.08,4.08,0,0,1-2.36-2.14,6.85,6.85,0,0,1-.53-1.52,12,12,0,0,1-.17-3.88,14.83,14.83,0,0,1,.87-3.65,19.91,19.91,0,0,1,3-5.3,34.31,34.31,0,0,1,3.25-3.56c.59-.58,1.17-1.15,1.74-1.74a6.75,6.75,0,0,0,.47-.59.88.88,0,0,0,.16-.32.41.41,0,0,0-.26-.58,1.67,1.67,0,0,0-.32-.08,4.91,4.91,0,0,0-1.53,0,19.05,19.05,0,0,0-3.16.73,34.67,34.67,0,0,0-8.22,3.86A54.41,54.41,0,0,0,21.93,35c-.95.82-1.9,1.65-2.86,2.46a26,26,0,0,1-2.38,1.79,9.88,9.88,0,0,1-2.13,1.07,4.23,4.23,0,0,1-2.36.17,7.79,7.79,0,0,1-.94-.28L5.32,38l-2.09-.77c-.13,0-.14-.07-.1-.19.1-.29.21-.57.31-.86s.11-.36.47-.23l5.6,2,2.5.9a4.35,4.35,0,0,0,2.67.11,7.48,7.48,0,0,0,1.61-.63A15.28,15.28,0,0,0,18.56,37c1-.8,2.07-1.61,3.09-2.44,1.7-1.37,3.43-2.71,5.26-3.92a38.9,38.9,0,0,1,7.6-4A26.59,26.59,0,0,1,40.71,25a6.59,6.59,0,0,1,1.66,0,2.27,2.27,0,0,1,.51.14.39.39,0,0,1,.23.58,1.8,1.8,0,0,1-.32.49c-.29.32-.59.62-.9.91-.88.81-1.77,1.59-2.64,2.41a24.74,24.74,0,0,0-3.72,4.32A16.49,16.49,0,0,0,33,39.53,10.81,10.81,0,0,0,32.94,44a5.81,5.81,0,0,0,.59,1.73,3.62,3.62,0,0,0,2,1.76l.22.08L42.39,50l4.8,1.75a.63.63,0,0,0,.38.08l-.32-.21-4.4-2.54c-2.14-1.23-4.27-2.48-6.42-3.7a4,4,0,0,1-1.88-2.31,6.88,6.88,0,0,1-.36-2.15A9.69,9.69,0,0,1,34.6,38a14.28,14.28,0,0,1,1.67-3.69,21.84,21.84,0,0,1,4-4.59A38.29,38.29,0,0,1,43.84,27L46,25.53a9.21,9.21,0,0,0,.92-.73,1.57,1.57,0,0,0,.32-.41.37.37,0,0,0-.13-.52,1.21,1.21,0,0,0-.38-.18,4.41,4.41,0,0,0-1.25-.2,21.3,21.3,0,0,0-3.83.21,38,38,0,0,0-5.06,1.08A46.5,46.5,0,0,0,28.38,28c-1.61.8-3.17,1.68-4.73,2.56-1.06.59-2.12,1.19-3.21,1.71a11.76,11.76,0,0,1-2.48.92,5,5,0,0,1-2.18,0,5.34,5.34,0,0,1-1.48-.62l-7-4a1,1,0,0,1-.17-.1c-.08,0-.12-.09-.06-.18l.59-1c0-.09.11-.09.19,0l.19.11,4.77,2.75,2.36,1.36a4.58,4.58,0,0,0,3,.53,9.15,9.15,0,0,0,1.86-.51A28.32,28.32,0,0,0,22.9,30.2c1.6-.8,3.19-1.63,4.8-2.42A49.91,49.91,0,0,1,36,24.57a38.07,38.07,0,0,1,4.47-1,31,31,0,0,1,3.18-.4c.64,0,1.27-.08,1.9-.08s1.14.05,1.7.1a7,7,0,0,1,.93.2,1.06,1.06,0,0,1,.35.18.38.38,0,0,1,.12.59,1.24,1.24,0,0,1-.28.32,8.25,8.25,0,0,1-.81.62c-.68.44-1.38.87-2.08,1.3a38.28,38.28,0,0,0-4.13,2.9,21.59,21.59,0,0,0-4,4.25,13.58,13.58,0,0,0-2,4A8.27,8.27,0,0,0,35,41a4.86,4.86,0,0,0,.44,1.4A3.55,3.55,0,0,0,36.91,44l3.43,2,7.75,4.47a1,1,0,0,0,.34.15l-.23-.21-2.06-1.73L38.28,42a5.83,5.83,0,0,1-.75-.74,4.11,4.11,0,0,1-.83-2.89,8,8,0,0,1,.79-3,14.94,14.94,0,0,1,2.93-4.12,24.69,24.69,0,0,1,5-3.82c1.33-.79,2.72-1.45,4.11-2.11.75-.34,1.49-.7,2.22-1.06a8.39,8.39,0,0,0,.81-.5,1.61,1.61,0,0,0,.39-.39.34.34,0,0,0-.07-.5,1.77,1.77,0,0,0-.32-.21,4.28,4.28,0,0,0-.46-.17,10.5,10.5,0,0,0-1.54-.31,33,33,0,0,0-3.44-.25,40.92,40.92,0,0,0-7,.46c-1.62.24-3.23.56-4.82.94-2.26.53-4.47,1.22-6.68,1.89-1.21.37-2.41.73-3.62,1.06a12.69,12.69,0,0,1-2.81.46,5.82,5.82,0,0,1-1.56-.14,4.52,4.52,0,0,1-2-1.05l-5.88-4.93-.17-.15c-.07,0-.06-.11,0-.17.2-.24.4-.49.61-.73s.19-.32.52,0l4.19,3.52,1.68,1.41a4.72,4.72,0,0,0,2.48,1.11,8,8,0,0,0,2.13,0,22.4,22.4,0,0,0,3-.6l4.94-1.31q2.54-.66,5.11-1.16c1.48-.28,3-.49,4.47-.65,1.07-.12,2.13-.2,3.2-.23s2.17,0,3.25,0c1.25.06,2.49.16,3.72.34a9.33,9.33,0,0,1,1.72.4,2.61,2.61,0,0,1,.54.24c.4.25.43.53.08.84a2.2,2.2,0,0,1-.43.3c-.33.19-.67.37-1,.53L48.93,26a28.81,28.81,0,0,0-5.32,3,19.35,19.35,0,0,0-3.49,3.21,11.61,11.61,0,0,0-2,3.2,6.19,6.19,0,0,0-.5,2.85,3.31,3.31,0,0,0,1,2.16l.39.35,6,5,4,3.33a1.84,1.84,0,0,0,.39.28,1.07,1.07,0,0,0-.15-.22L43.4,42.25l-2.81-3.34A3.88,3.88,0,0,1,40,38a3.53,3.53,0,0,1-.22-2.15,6.91,6.91,0,0,1,1-2.43,12.93,12.93,0,0,1,2.3-2.75,20.38,20.38,0,0,1,4.84-3.29A44.83,44.83,0,0,1,55,24.66l2.54-.79a3.66,3.66,0,0,0,.94-.44c.41-.29.42-.56,0-.86a3.47,3.47,0,0,0-.59-.34,11,11,0,0,0-1.67-.58,33.14,33.14,0,0,0-5.84-1c-1-.09-2.08-.16-3.11-.22a43.72,43.72,0,0,0-4.72,0c-1.47.05-2.93.15-4.39.29-1.18.12-2.37.23-3.55.36-1.37.14-2.74.28-4.12.34a14.23,14.23,0,0,1-3.13-.16,5.09,5.09,0,0,1-3.13-1.78l-.12-.15-4.18-5-.65-.78c-.06-.07-.07-.13,0-.19.29-.25.58-.5.88-.74.1-.09.13-.08.22,0l.23.27c1.58,1.89,3.17,3.77,4.74,5.66a5.14,5.14,0,0,0,2.49,1.62,10.2,10.2,0,0,0,2.32.37,34.52,34.52,0,0,0,4.07-.07l2.29-.17L39,20.18c1.06-.06,2.11-.12,3.17-.15a58.4,58.4,0,0,1,6.75.16c1.26.11,2.51.23,3.75.39a34.15,34.15,0,0,1,4.37.88,14.46,14.46,0,0,1,1.92.65,7.77,7.77,0,0,1,.82.4,1.64,1.64,0,0,1,.4.34.34.34,0,0,1,0,.54,1,1,0,0,1-.35.24,7.22,7.22,0,0,1-1,.38c-.89.26-1.79.49-2.69.73A40.93,40.93,0,0,0,49,27.27a20.2,20.2,0,0,0-4.9,3.15A12.4,12.4,0,0,0,41.86,33a6.14,6.14,0,0,0-1,2.39,3,3,0,0,0,.59,2.38,3.11,3.11,0,0,0,.23.28l8.49,10.13a2.39,2.39,0,0,0,.23.22l.06.11h0l0,0-.08-.09c-.06-.12-.11-.24-.17-.35L44.17,37.4l-.5-.88a3.22,3.22,0,0,1-.39-1.87,4.72,4.72,0,0,1,.25-1,7.36,7.36,0,0,1,1.4-2.2,13.9,13.9,0,0,1,3.46-2.74,28.15,28.15,0,0,1,5.43-2.36,39.94,39.94,0,0,1,6.68-1.44c.85-.13,1.71-.26,2.56-.41a5.28,5.28,0,0,0,.76-.19,2,2,0,0,0,.47-.21.39.39,0,0,0,.11-.66,1.44,1.44,0,0,0-.33-.32c-.21-.15-.43-.3-.65-.43a13,13,0,0,0-1.69-.79,41.54,41.54,0,0,0-9-2.43c-1.87-.3-3.74-.55-5.63-.73-1.41-.14-2.83-.26-4.24-.37L38.52,18a21.39,21.39,0,0,1-2.86-.4,10.09,10.09,0,0,1-2.15-.66,4.8,4.8,0,0,1-2-1.52c-.18-.25-.35-.51-.5-.77L27.62,8.72,27.19,8c-.09-.15-.09-.16.06-.25l.8-.46c.32-.19.28-.2.48.14l2.37,4.12c.52.88,1,1.77,1.55,2.66a4.64,4.64,0,0,0,1.93,1.87,7.51,7.51,0,0,0,1,.47,17,17,0,0,0,3.73.85c.82.11,1.65.2,2.47.29L44,17.9c.91.1,1.82.18,2.73.29s1.82.23,2.73.37c1.33.19,2.66.38,4,.61a46,46,0,0,1,7.89,2.14,22.16,22.16,0,0,1,3.22,1.45,10,10,0,0,1,1,.65,1.22,1.22,0,0,1,.32.36.37.37,0,0,1-.11.57,1.59,1.59,0,0,1-.42.19,6.74,6.74,0,0,1-.89.2c-.84.12-1.69.23-2.54.32-1.24.14-2.49.31-3.73.53a28.88,28.88,0,0,0-6.79,2A20.9,20.9,0,0,0,48,29.51a10.33,10.33,0,0,0-2.36,2.26,5.18,5.18,0,0,0-.87,1.64A3.11,3.11,0,0,0,45,35.89l.18.31,6.46,11.19.19.31a.71.71,0,0,0-.09-.38L47.39,35.43c-.07-.19-.13-.39-.19-.59a3.26,3.26,0,0,1,.09-2,5.1,5.1,0,0,1,.82-1.41,9.1,9.1,0,0,1,2.26-2A20.61,20.61,0,0,1,56.05,27a31.46,31.46,0,0,1,4.63-.86,44.35,44.35,0,0,1,4.61-.25c1,0,2,0,3-.07a9.2,9.2,0,0,0,1-.12,1,1,0,0,0,.28-.08c.42-.16.51-.42.26-.79a2.79,2.79,0,0,0-.28-.32,5.15,5.15,0,0,0-.5-.43c-.34-.25-.69-.5-1-.72A29.54,29.54,0,0,0,64,21.19a61.36,61.36,0,0,0-10.81-3.48q-3.49-.8-7-1.64a27.85,27.85,0,0,1-3.48-1,9.63,9.63,0,0,1-2.37-1.26,4.5,4.5,0,0,1-1.39-1.67,7.33,7.33,0,0,1-.3-.72c-.64-1.74-1.27-3.47-1.9-5.21-.27-.75-.54-1.5-.82-2.25-.11-.3-.11-.3.18-.41l.8-.29c.26-.09.25-.14.36.17.51,1.39,1,2.78,1.52,4.16.43,1.2.87,2.4,1.31,3.6a4.84,4.84,0,0,0,1.65,2.24,8.81,8.81,0,0,0,1.17.73A19.23,19.23,0,0,0,46,15.35c2.17.68,4.37,1.23,6.58,1.77,2.39.58,4.75,1.24,7.08,2A50.66,50.66,0,0,1,66.52,22a27.32,27.32,0,0,1,3.4,2,9.49,9.49,0,0,1,.93.77,2,2,0,0,1,.41.51A.4.4,0,0,1,71,26a1.15,1.15,0,0,1-.31.11,5.21,5.21,0,0,1-.55.08,23,23,0,0,1-2.75,0A48.8,48.8,0,0,0,62,26.3a30.71,30.71,0,0,0-4.18.6,20,20,0,0,0-5,1.76,13,13,0,0,0-2.57,1.7A6.1,6.1,0,0,0,49,31.93a3.42,3.42,0,0,0-.47,1.88,3.48,3.48,0,0,0,.24,1c.33.92.67,1.85,1,2.77l3.36,9.24.13.34a11.29,11.29,0,0,0-.18-1.3L52.35,42l-.69-3.9c-.22-1.26-.45-2.52-.66-3.78a3.45,3.45,0,0,1,0-1.24,3.83,3.83,0,0,1,.83-1.69,8.57,8.57,0,0,1,1.94-1.66A14.26,14.26,0,0,1,57.63,28a23.27,23.27,0,0,1,4.14-.79,29.22,29.22,0,0,1,4-.14c1.14,0,2.29.09,3.43.21l3.85.38a8,8,0,0,0,1.47,0,2.45,2.45,0,0,0,.39-.08.4.4,0,0,0,.28-.57,1.58,1.58,0,0,0-.25-.46,9.12,9.12,0,0,0-.72-.8A16.23,16.23,0,0,0,72,24.07a53.8,53.8,0,0,0-7.3-4.18c-2.53-1.2-5.12-2.24-7.74-3.23-1.41-.54-2.82-1.07-4.22-1.63A18.7,18.7,0,0,1,49.7,13.5a9,9,0,0,1-1.76-1.37,4.65,4.65,0,0,1-1.29-2.49c-.14-.75-.27-1.5-.4-2.26l-.69-3.9c-.14-.77-.27-1.53-.41-2.29,0-.17,0-.19.15-.22L46.36.78a.17.17,0,0,1,.1,0,.16.16,0,0,1,.09.07.3.3,0,0,1,0,.16l.54,3.07c.31,1.71.62,3.42.9,5.13a5.16,5.16,0,0,0,1.61,3,11,11,0,0,0,1.64,1.24,22.58,22.58,0,0,0,3.37,1.69c2.1.89,4.21,1.75,6.32,2.64a68.86,68.86,0,0,1,7.13,3.46,53.54,53.54,0,0,1,5.17,3.27,16.71,16.71,0,0,1,2.18,1.84,9.59,9.59,0,0,1,.65.78,2,2,0,0,1,.28.51c.14.36,0,.56-.35.66a1.12,1.12,0,0,1-.32,0,8,8,0,0,1-1.47-.09c-.85-.12-1.69-.25-2.54-.36-1.4-.18-2.82-.33-4.24-.42a30.91,30.91,0,0,0-5.85.15,20.11,20.11,0,0,0-3.84.85,12,12,0,0,0-3,1.49,6.88,6.88,0,0,0-1.66,1.57,3.38,3.38,0,0,0-.61,2.7c.3,1.65.59,3.31.88,5,.45,2.53.89,5,1.34,7.58a.58.58,0,0,0,.05.14h0V34.55c0-.17,0-.35,0-.52a4,4,0,0,1,.13-1,4.11,4.11,0,0,1,1-1.69,6.85,6.85,0,0,1,1.62-1.26A11.73,11.73,0,0,1,60,29.06a18.25,18.25,0,0,1,3.67-.67,23.09,23.09,0,0,1,2.88-.08l1.57.08c1.08.07,2.16.2,3.23.36a37.66,37.66,0,0,1,4.79,1.08l2.3.64a2.69,2.69,0,0,0,1,.1.42.42,0,0,0,.43-.55,2.88,2.88,0,0,0-.15-.5,5.82,5.82,0,0,0-.58-1,15.37,15.37,0,0,0-1.58-1.83,30.68,30.68,0,0,0-4.32-3.57A94.05,94.05,0,0,0,65,18c-1.63-.92-3.26-1.84-4.87-2.77a22.44,22.44,0,0,1-2.89-1.94,8.41,8.41,0,0,1-1.45-1.41,4.56,4.56,0,0,1-.9-1.8,6,6,0,0,1-.12-1.34V.32c0-.1,0-.21,0-.32h1.37c0,.13,0,.26,0,.39V8.52c0,.17,0,.33,0,.5a4.47,4.47,0,0,0,.46,2,5.35,5.35,0,0,0,.83,1.18A11.14,11.14,0,0,0,59,13.59a32.1,32.1,0,0,0,3.4,2.29l4.5,2.69c2.46,1.49,4.87,3.05,7.2,4.74a31.07,31.07,0,0,1,4.49,3.93,14.54,14.54,0,0,1,1.8,2.32,7.76,7.76,0,0,1,.46.91,1.8,1.8,0,0,1,.12.47.44.44,0,0,1-.49.55,2,2,0,0,1-.42,0,6.49,6.49,0,0,1-.76-.19q-.89-.29-1.77-.6a33.57,33.57,0,0,0-8.1-1.81A30,30,0,0,0,65,28.73a17.58,17.58,0,0,0-3.82.6,10.36,10.36,0,0,0-2.76,1.18,5.43,5.43,0,0,0-1.33,1.15,3.52,3.52,0,0,0-.8,1.7,6.16,6.16,0,0,0-.07,1q0,6.19,0,12.4v.21a.16.16,0,0,0,.09-.11c.11-.63.22-1.27.34-1.9l.87-5c.32-1.82.66-3.65,1-5.48a4.32,4.32,0,0,1,2-3.08,8.67,8.67,0,0,1,1.7-.84,14.19,14.19,0,0,1,4.28-.78,25.17,25.17,0,0,1,2.88.05,26.75,26.75,0,0,1,3.67.5,24.39,24.39,0,0,1,6,2.08c1,.51,2,1.07,3,1.59.31.17.63.31,1,.45a1.36,1.36,0,0,0,.44.11.43.43,0,0,0,.52-.42,2.68,2.68,0,0,0,0-.49,6.85,6.85,0,0,0-.64-1.81,19.36,19.36,0,0,0-1.88-3,32.19,32.19,0,0,0-4-4.34C76,23.19,74.52,22,73,20.91c-1.72-1.32-3.45-2.65-5.16-4a29.74,29.74,0,0,1-2.69-2.31,11.28,11.28,0,0,1-1.64-2,4.53,4.53,0,0,1-.68-3.23c.12-.75.26-1.5.39-2.26.23-1.32.47-2.64.7-4,.13-.75.26-1.49.4-2.23,0-.17,0-.19.21-.16L65.63,1c.17,0,.18.05.15.22-.08.48-.17,1-.26,1.45q-.6,3.42-1.21,6.84a4.62,4.62,0,0,0,.49,3,8.91,8.91,0,0,0,1,1.54,22.76,22.76,0,0,0,2.26,2.24c1.61,1.41,3.29,2.74,5,4.07,1.41,1.13,2.84,2.26,4.18,3.48a33.61,33.61,0,0,1,4.4,4.76,21.86,21.86,0,0,1,2.07,3.26,9.74,9.74,0,0,1,.92,2.42,3.15,3.15,0,0,1,.09.81c0,.51-.29.69-.77.51a5.23,5.23,0,0,1-.82-.41c-.67-.41-1.32-.84-2-1.25a24.37,24.37,0,0,0-8.31-3.36,22.79,22.79,0,0,0-3.68-.42,22.13,22.13,0,0,0-2.82.06,12.29,12.29,0,0,0-2.94.6A6.82,6.82,0,0,0,61.29,32,3.74,3.74,0,0,0,60,34l-.09.48-.75,4.26c-.25,1.44-.51,2.87-.76,4.3L57.7,47c0,.07,0,.14,0,.2a1.26,1.26,0,0,0,.16-.33q1.86-5.07,3.7-10.16c.25-.7.51-1.39.77-2.09a3.85,3.85,0,0,1,1.46-1.89,6.09,6.09,0,0,1,1.2-.66,11.13,11.13,0,0,1,3.32-.71,19.74,19.74,0,0,1,7.06.81,20.14,20.14,0,0,1,7.48,4.29c.59.54,1.16,1.12,1.75,1.68.31.3.62.61,1,.9a2.68,2.68,0,0,0,.56.39.44.44,0,0,0,.68-.27,1.11,1.11,0,0,0,.07-.26,6.81,6.81,0,0,0,0-.78,10.54,10.54,0,0,0-.27-1.94,19.87,19.87,0,0,0-1.94-5,32.89,32.89,0,0,0-3.79-5.49c-1.24-1.48-2.58-2.86-3.94-4.22-1-1-2-2-2.92-3a19.21,19.21,0,0,1-2.15-2.69,8,8,0,0,1-1-2,4.08,4.08,0,0,1-.17-2.16,8.41,8.41,0,0,1,.28-1q1.32-3.61,2.63-7.24l.1-.24a.1.1,0,0,1,.15-.07l1.11.4c.11,0,.12.07.07.2L75,4l-1.17,3.2c-.5,1.38-1,2.77-1.51,4.16A4.24,4.24,0,0,0,72,13.08a5.22,5.22,0,0,0,.3,1.41,9.81,9.81,0,0,0,1.06,2,19,19,0,0,0,1.75,2.24c1.06,1.16,2.13,2.3,3.2,3.44a55.15,55.15,0,0,1,3.86,4.5,30.84,30.84,0,0,1,3.5,5.73,19,19,0,0,1,1.72,6.09,5.94,5.94,0,0,1,0,1.63,2,2,0,0,1-.16.49.4.4,0,0,1-.58.2,1.24,1.24,0,0,1-.33-.21,6.37,6.37,0,0,1-.59-.57c-.33-.36-.65-.74-1-1.11a23.91,23.91,0,0,0-3.08-3,18,18,0,0,0-9.58-4,14.69,14.69,0,0,0-4.24.14,7.59,7.59,0,0,0-2.32.79,3.82,3.82,0,0,0-1.72,1.87c-.07.15-.12.3-.18.46l-2.29,6.28-2.13,5.85a.66.66,0,0,0-.07.37l.29-.49c2.17-3.76,4.34-7.51,6.5-11.28a4.74,4.74,0,0,1,2.69-2.21,9.14,9.14,0,0,1,2.11-.45,12.05,12.05,0,0,1,3.79.21,15.42,15.42,0,0,1,8.56,5A22.23,22.23,0,0,1,85.58,42c.41.7.81,1.41,1.23,2.1a8.15,8.15,0,0,0,.61.84,1.22,1.22,0,0,0,.37.27.29.29,0,0,0,.34,0,.85.85,0,0,0,.21-.25,2.87,2.87,0,0,0,.21-.51,7.62,7.62,0,0,0,.27-1.71,18.12,18.12,0,0,0,0-2.33,24.23,24.23,0,0,0-.3-2.7,26.61,26.61,0,0,0-1.92-6.25,41.36,41.36,0,0,0-2.71-5c-1-1.54-2-3-3-4.54a31.53,31.53,0,0,1-1.72-2.75,9.23,9.23,0,0,1-.85-2.06,4.36,4.36,0,0,1,0-2.24,5.72,5.72,0,0,1,.59-1.31L82.4,7.42a1,1,0,0,1,.1-.17c.08-.13.1-.14.23-.06l.8.45c.34.21.32.14.13.48L80.86,13c-.3.51-.6,1-.88,1.53a4,4,0,0,0-.52,2.24,5.4,5.4,0,0,0,.21,1.19,11.2,11.2,0,0,0,1,2.28c.57,1.05,1.21,2.06,1.84,3.06,1,1.49,1.89,3,2.75,4.51a34.87,34.87,0,0,1,2.44,5.26,25.94,25.94,0,0,1,1.55,8A18.9,18.9,0,0,1,89,44.85c-.07.37-.17.74-.27,1.11a1.61,1.61,0,0,1-.3.58.4.4,0,0,1-.61.07,2,2,0,0,1-.4-.43,6.81,6.81,0,0,1-.45-.73l-1-2a26.83,26.83,0,0,0-2-3.37,14.76,14.76,0,0,0-6.4-5.16,11.82,11.82,0,0,0-5.72-1,7.71,7.71,0,0,0-2.32.55,4.27,4.27,0,0,0-2.12,1.88Q64,42.22,60.59,48.07l-.12.27a.71.71,0,0,0-.07.09s0,0,0,0l0,0,.06-.1a4.11,4.11,0,0,0,.29-.3q4.45-5.29,8.9-10.6a5.1,5.1,0,0,1,3-1.78,8.22,8.22,0,0,1,3.35,0,11.48,11.48,0,0,1,5,2.52,14.53,14.53,0,0,1,3.17,3.9,26.93,26.93,0,0,1,1.91,4.2c.37,1,.73,2.11,1.1,3.16.14.38.3.75.47,1.11a1.86,1.86,0,0,0,.31.46.42.42,0,0,0,.66,0,1.49,1.49,0,0,0,.23-.28,4,4,0,0,0,.29-.59,10.49,10.49,0,0,0,.61-2.07,28.86,28.86,0,0,0,.47-3.34,35.78,35.78,0,0,0,.15-3.73,32.53,32.53,0,0,0-.38-4.41,34.11,34.11,0,0,0-1.31-5.34c-.49-1.52-1.09-3-1.68-4.48-.46-1.16-.92-2.31-1.29-3.5a10.76,10.76,0,0,1-.52-2.63,4.13,4.13,0,0,1,.83-2.8c.09-.12.19-.25.29-.36q2-2.38,4-4.75l.15-.18a.12.12,0,0,1,.17,0l.93.78c.06,0,.05.11,0,.17l-.13.15L89,16.66l-1.56,1.86a4.25,4.25,0,0,0-.91,1.9,5.72,5.72,0,0,0,0,1.8A13.51,13.51,0,0,0,87,24.65c.39,1.32.86,2.61,1.32,3.91A50.77,50.77,0,0,1,90,34.09a30.85,30.85,0,0,1,.62,3.81c.07.66.11,1.31.15,2a32.36,32.36,0,0,1,0,4.06c-.08,1.12-.2,2.24-.38,3.35a22.28,22.28,0,0,1-.72,3.26,7.06,7.06,0,0,1-.56,1.4,3.25,3.25,0,0,1-.36.55.46.46,0,0,1-.81,0,1.86,1.86,0,0,1-.25-.43,10,10,0,0,1-.38-1c-.34-1.09-.65-2.18-1-3.26a28.8,28.8,0,0,0-1.72-4.32A15.29,15.29,0,0,0,82,39.67a10.9,10.9,0,0,0-4.27-2.84A7.7,7.7,0,0,0,74,36.41a4.44,4.44,0,0,0-2.65,1.33c-.18.19-.35.39-.52.59q-2.34,2.81-4.7,5.6l-4.4,5.25a.87.87,0,0,0-.09.11s-.09.06,0,.13l.28-.23,10-8.37c.62-.52,1.23-1,1.86-1.56a4.08,4.08,0,0,1,2.58-.89,6.27,6.27,0,0,1,2.27.43,8.35,8.35,0,0,1,2.81,1.84,12.7,12.7,0,0,1,2.28,3.07,21.58,21.58,0,0,1,1.56,3.71,39.53,39.53,0,0,1,1.38,6.26q.15,1.05.33,2.07a4,4,0,0,0,.34,1.13c.23.45.53.51.88.17a3.64,3.64,0,0,0,.44-.53,8.77,8.77,0,0,0,.75-1.42,30.9,30.9,0,0,0,1.77-5.55c.33-1.39.55-2.81.75-4.23.17-1.26.29-2.54.35-3.81a42.54,42.54,0,0,0,0-5c-.08-1.31-.22-2.61-.36-3.92s-.27-2.47-.39-3.71a11.47,11.47,0,0,1,0-2.62A5.15,5.15,0,0,1,92.24,24a5.61,5.61,0,0,1,1-1.11q1.92-1.59,3.82-3.2l.41-.32c.19.07.26.25.39.38s.28.33.42.5.14.18,0,.33l-.08.07-2,1.66-2,1.71a4.8,4.8,0,0,0-1.55,2.39,8.43,8.43,0,0,0-.3,1.94,37.28,37.28,0,0,0,.15,4.09c.08,1.3.17,2.6.24,3.9a47,47,0,0,1-.12,5.93c-.11,1.29-.26,2.58-.46,3.87a41.83,41.83,0,0,1-1.07,5.09,33,33,0,0,1-1.62,4.67,12.67,12.67,0,0,1-1.09,2,4.79,4.79,0,0,1-.46.55c-.39.37-.72.3-.92-.18a3.86,3.86,0,0,1-.24-.82c-.12-.76-.22-1.53-.31-2.3-.15-1.27-.31-2.54-.53-3.8a26.52,26.52,0,0,0-1.34-4.86,17.08,17.08,0,0,0-1.73-3.41,9.48,9.48,0,0,0-2.4-2.53,6,6,0,0,0-2.83-1.14,3.57,3.57,0,0,0-2.77.82l-5,4.22-7,5.9-.2.19a1,1,0,0,0,.33-.13l13.65-7.88c.19-.11.39-.22.58-.31A2.9,2.9,0,0,1,79,42a4.56,4.56,0,0,1,2,1,8.47,8.47,0,0,1,1.54,1.78,15.34,15.34,0,0,1,1.63,3.39A25.83,25.83,0,0,1,85.41,55c.08,1.16.09,2.31.09,3.47,0,.95,0,1.91,0,2.86a8,8,0,0,0,.08.84,2.94,2.94,0,0,0,.19.66.41.41,0,0,0,.63.2,2.1,2.1,0,0,0,.41-.31,6,6,0,0,0,.85-1A21.8,21.8,0,0,0,89,59.48a46.64,46.64,0,0,0,3.78-9.76c.5-1.84.91-3.71,1.27-5.59s.63-3.59.9-5.4c.19-1.21.38-2.41.59-3.62a13.39,13.39,0,0,1,.7-2.55,5.36,5.36,0,0,1,2.49-2.89c1.37-.76,2.71-1.56,4.07-2.34l.19-.11c.12-.06.14-.06.21.06l.42.74a3.84,3.84,0,0,1,.18.35,4.15,4.15,0,0,1-.34.24L99.3,31a5.11,5.11,0,0,0-2,2.1c-.12.21-.22.42-.32.64A14.62,14.62,0,0,0,96.24,36c-.34,1.35-.58,2.72-.84,4.08-.4,2.12-.83,4.24-1.32,6.35a63.92,63.92,0,0,1-2.3,7.76,44.9,44.9,0,0,1-3.41,7.22A17.78,17.78,0,0,1,87,63.45a7.36,7.36,0,0,1-.72.76,1.24,1.24,0,0,1-.42.24.34.34,0,0,1-.43-.13.72.72,0,0,1-.12-.23c0-.2-.1-.41-.13-.61a10.78,10.78,0,0,1-.06-1.7c0-1,0-2,.06-3A38.41,38.41,0,0,0,85,53.65a24.74,24.74,0,0,0-.62-3.31,16.29,16.29,0,0,0-1.58-4,7.87,7.87,0,0,0-1.65-2.11,4.36,4.36,0,0,0-1.24-.79,2.59,2.59,0,0,0-2.3.13c-.14.07-.27.15-.4.23l-7.41,4.27L63.68,51.6l-.32.21a.63.63,0,0,0,.38-.08l13-4.74c.55-.2,1.09-.39,1.64-.56a2.43,2.43,0,0,1,2.11.31,3.81,3.81,0,0,1,.89.76,8.42,8.42,0,0,1,1.47,2.39A17.7,17.7,0,0,1,84.1,55.2c.05.6.07,1.2.09,1.8a33.84,33.84,0,0,1-.11,3.77c-.06.82-.15,1.63-.23,2.45s-.21,1.91-.3,2.87c0,.51-.07,1-.09,1.54a2.13,2.13,0,0,0,.14.83.39.39,0,0,0,.56.25,1.52,1.52,0,0,0,.48-.27,8.63,8.63,0,0,0,.77-.71,20,20,0,0,0,1.8-2.3,61.3,61.3,0,0,0,4.31-7.34,75.48,75.48,0,0,0,3.14-7.35c.71-1.89,1.4-3.79,2.11-5.69a32.73,32.73,0,0,1,1.47-3.39,11.33,11.33,0,0,1,1.42-2.2,5.39,5.39,0,0,1,1.73-1.38c.29-.14.58-.26.88-.37l3.23-1.18,1.69-.61c.15-.05.17-.05.22.09.14.36.26.72.4,1.08,0,.09,0,.14-.09.17l-.22.08c-1.65.6-3.29,1.22-5,1.8a6.14,6.14,0,0,0-2.9,2.11,14.29,14.29,0,0,0-1.35,2.17,41,41,0,0,0-1.73,3.82c-.73,1.8-1.44,3.61-2.17,5.41A70.13,70.13,0,0,1,88.75,63.7a42.63,42.63,0,0,1-2.91,4.17,10.58,10.58,0,0,1-1.52,1.62,4.55,4.55,0,0,1-.62.43.9.9,0,0,1-.34.1.33.33,0,0,1-.35-.19,1.22,1.22,0,0,1-.1-.24,4.76,4.76,0,0,1-.06-.65A14.28,14.28,0,0,1,83,67.08c.17-1.36.35-2.71.52-4.07.15-1.16.24-2.32.29-3.49a26.76,26.76,0,0,0-.16-4.65,15.92,15.92,0,0,0-.79-3.34,9.09,9.09,0,0,0-1-2,4.85,4.85,0,0,0-1-1.1,2.47,2.47,0,0,0-2.09-.53,5.93,5.93,0,0,0-.85.24L69.42,51.2l-5.29,1.93a.46.46,0,0,0-.27.16l.37-.06.94-.16,3.51-.62,3.94-.69,3.52-.62c.63-.11,1.27-.23,1.91-.32a3,3,0,0,1,2.73,1,5.66,5.66,0,0,1,.89,1.37,11.19,11.19,0,0,1,.92,3.3A22.76,22.76,0,0,1,82.71,61c-.06,1-.16,1.94-.3,2.9-.18,1.35-.41,2.7-.7,4-.25,1.14-.53,2.28-.78,3.42-.11.5-.18,1-.27,1.52a1.7,1.7,0,0,0,0,.71.41.41,0,0,0,.52.33,1.3,1.3,0,0,0,.43-.15,8.82,8.82,0,0,0,.82-.53A12.71,12.71,0,0,0,83.9,72a34.93,34.93,0,0,0,2.91-3.41,94.8,94.8,0,0,0,5.3-7.86c1.31-2.14,2.53-4.34,3.76-6.53.7-1.24,1.4-2.47,2.19-3.66a14.91,14.91,0,0,1,2-2.52,6,6,0,0,1,3.3-1.67c1.86-.31,3.71-.65,5.56-1l.87-.14c.13,0,.16,0,.18.12.07.36.13.71.19,1.07,0,.17,0,.2-.17.24l-.78.13-6.1,1.07a5.54,5.54,0,0,0-2.3,1,9.46,9.46,0,0,0-1.8,1.72,24.43,24.43,0,0,0-2.09,3c-1,1.72-2.08,3.44-3.12,5.16-1.91,3.16-3.91,6.25-6.1,9.22a45,45,0,0,1-3.92,4.7,16.23,16.23,0,0,1-2,1.84c-.28.2-.57.37-.86.54a1.37,1.37,0,0,1-.59.19.39.39,0,0,1-.44-.31,1.06,1.06,0,0,1,0-.35,6.41,6.41,0,0,1,.11-.88c.14-.64.3-1.27.47-1.91.39-1.49.79-3,1.09-4.49a39.84,39.84,0,0,0,.78-6.07,20.55,20.55,0,0,0-.15-3.76,10.08,10.08,0,0,0-.71-2.65,5.48,5.48,0,0,0-.84-1.37,2.85,2.85,0,0,0-2.39-1.07,9.87,9.87,0,0,0-1.2.16l-3.91.69-3.93.69-3.91.69-1.18.21a1,1,0,0,0,.38.06h12.3a8.06,8.06,0,0,1,.85,0,2.89,2.89,0,0,1,1.63.7,3.92,3.92,0,0,1,.88,1.14,6.84,6.84,0,0,1,.59,1.52,12.8,12.8,0,0,1,.38,2.89,22.44,22.44,0,0,1-.1,3,29.86,29.86,0,0,1-.45,3.11,36.74,36.74,0,0,1-1.71,6c-.42,1.08-.88,2.14-1.3,3.22-.17.41-.32.84-.45,1.26a2.05,2.05,0,0,0,0,.55.37.37,0,0,0,.38.38,1.79,1.79,0,0,0,.46,0,5.3,5.3,0,0,0,.7-.26,8.61,8.61,0,0,0,1.59-.91,24,24,0,0,0,3.21-2.66,51.08,51.08,0,0,0,3.8-4.11c1.61-1.92,3.12-3.92,4.65-5.9,1.26-1.64,2.52-3.27,3.8-4.9a27.17,27.17,0,0,1,2.25-2.55,12.62,12.62,0,0,1,1.68-1.42,5.34,5.34,0,0,1,2.12-.91,8.29,8.29,0,0,1,1.11-.08H111v1.44h-8.57a5.17,5.17,0,0,0-1.52.21,6.46,6.46,0,0,0-2,1.06,14.19,14.19,0,0,0-1.6,1.4,42,42,0,0,0-2.88,3.23l-4.73,5.92c-1.58,2-3.2,3.91-5,5.72A35.94,35.94,0,0,1,81.19,77a17.5,17.5,0,0,1-3.1,2,5.15,5.15,0,0,1-1.16.45,2.6,2.6,0,0,1-.62,0,.36.36,0,0,1-.37-.39,1.91,1.91,0,0,1,.06-.48,5.05,5.05,0,0,1,.27-.74c.23-.51.46-1,.71-1.51a37.38,37.38,0,0,0,2.21-5.5,30.2,30.2,0,0,0,1.28-6.38,18.07,18.07,0,0,0,0-3.37,9.66,9.66,0,0,0-.37-2,5.34,5.34,0,0,0-.84-1.73,2.84,2.84,0,0,0-1.69-1.1,4.31,4.31,0,0,0-.95-.09H64a.6.6,0,0,0,.27.1l2.68.47,3.91.69,3.93.7c.54.09,1.08.19,1.61.31a2.93,2.93,0,0,1,1.74,1.2A5,5,0,0,1,78.79,61a10,10,0,0,1,.44,2.54,18.19,18.19,0,0,1-.13,3.3,24.43,24.43,0,0,1-.51,2.71,25.45,25.45,0,0,1-2.23,5.87,40.62,40.62,0,0,1-2.3,3.7c-.38.56-.74,1.13-1.1,1.71a2.67,2.67,0,0,0-.28.62c-.16.49,0,.73.53.75a3.5,3.5,0,0,0,.91-.12A14.61,14.61,0,0,0,77,81a28.74,28.74,0,0,0,5.75-3.82,64.64,64.64,0,0,0,4.8-4.56c1.37-1.42,2.71-2.86,4.07-4.28a42.61,42.61,0,0,1,3.46-3.26,13.77,13.77,0,0,1,2.56-1.71A5.21,5.21,0,0,1,101,62.8l3.75.66,4,.7,1.39.25c.17,0,.18,0,.15.22-.06.36-.13.73-.19,1.09,0,.1-.07.13-.16.11l-.3,0-3.16-.56-5.87-1a4.9,4.9,0,0,0-1.27-.06,6.1,6.1,0,0,0-2.13.63,14.27,14.27,0,0,0-2.62,1.72,43.94,43.94,0,0,0-3.56,3.26c-1.23,1.24-2.45,2.49-3.69,3.73-1.4,1.39-2.84,2.75-4.37,4A31,31,0,0,1,77,81.37a21.4,21.4,0,0,1-3.33,1.37,5.92,5.92,0,0,1-1.38.27,2.27,2.27,0,0,1-.52,0,.43.43,0,0,1-.38-.62,1.14,1.14,0,0,1,.15-.36c.11-.2.22-.4.35-.59.33-.47.66-.93,1-1.39.75-1,1.5-2,2.17-3.08a22.92,22.92,0,0,0,3.46-9.7,13.68,13.68,0,0,0,0-3.56,6.82,6.82,0,0,0-.58-2,3.21,3.21,0,0,0-2.51-1.89l-2.36-.41-4.29-.76L64,57.75h-.21a1.1,1.1,0,0,0,.32.17l8.71,3.17c.63.22,1.26.45,1.88.69a3.35,3.35,0,0,1,1.83,1.7,5.78,5.78,0,0,1,.31.72,7.75,7.75,0,0,1,.39,2.18,13.49,13.49,0,0,1-.2,3.11,18.58,18.58,0,0,1-2.48,6.62,27.76,27.76,0,0,1-4.39,5.45c-.58.57-1.17,1.11-1.75,1.68-.21.21-.39.44-.58.67a1.31,1.31,0,0,0-.17.28c-.14.31-.06.51.27.65l.18.06.52.06a7.61,7.61,0,0,0,1.51-.08,17,17,0,0,0,3-.75,35.19,35.19,0,0,0,7.37-3.54,46.52,46.52,0,0,0,4.59-3.32l4.36-3.57a30.72,30.72,0,0,1,2.94-2.15A10.74,10.74,0,0,1,95,70.3a5.18,5.18,0,0,1,2.14-.24,5.92,5.92,0,0,1,1.36.35l9,3.27.25.09c.07,0,.1.07.07.15L107.42,75c0,.14-.09.15-.23.11L107,75l-4-1.47-5.24-1.9a4.59,4.59,0,0,0-1.2-.3,5.14,5.14,0,0,0-2.1.23A10.79,10.79,0,0,0,92,72.74a35.63,35.63,0,0,0-3.3,2.32c-1.48,1.14-2.94,2.3-4.43,3.43a40.42,40.42,0,0,1-8.9,5.18,22.9,22.9,0,0,1-6.45,1.78,8.43,8.43,0,0,1-1.74,0,2.75,2.75,0,0,1-.57-.12c-.4-.15-.48-.4-.26-.77a2.31,2.31,0,0,1,.31-.39q.31-.33.66-.63l1.27-1.09A26.38,26.38,0,0,0,73,77.85a17.82,17.82,0,0,0,3.25-6.95,12.87,12.87,0,0,0,.3-3.81,6.8,6.8,0,0,0-.41-1.89A3.6,3.6,0,0,0,73.91,63l-.21-.08L70,61.58l-6.37-2.32c-.1,0-.2-.06-.3-.09a.8.8,0,0,0,.27.22L71.55,64c.52.29,1,.58,1.53.89a3.82,3.82,0,0,1,1.66,2,5.91,5.91,0,0,1,.24.82A9.09,9.09,0,0,1,75,71a13.32,13.32,0,0,1-1.27,4,19.78,19.78,0,0,1-4.59,5.89,28.46,28.46,0,0,1-3.73,2.72c-.65.42-1.31.83-2,1.26a9.62,9.62,0,0,0-.8.63,1.39,1.39,0,0,0-.27.32.41.41,0,0,0,.15.66,1.94,1.94,0,0,0,.3.13,4.56,4.56,0,0,0,.64.14,11.81,11.81,0,0,0,2.06.11A26.75,26.75,0,0,0,69,86.54a28.22,28.22,0,0,0,5.15-1.24,48.34,48.34,0,0,0,8.22-3.74c1.24-.7,2.45-1.44,3.68-2.16a30.63,30.63,0,0,1,3.14-1.7,10.49,10.49,0,0,1,2.18-.78,4.86,4.86,0,0,1,2.18,0,5.42,5.42,0,0,1,1.38.59l8.6,5,.2.12c.11.07.12.09,0,.21l-.46.79c-.21.37-.16.33-.5.14L96.45,80,94,78.57a4.1,4.1,0,0,0-2.3-.54,7.31,7.31,0,0,0-1.54.27,13.47,13.47,0,0,0-2.61,1.06c-1.21.63-2.42,1.28-3.61,1.94a66.6,66.6,0,0,1-7.63,3.63,32.09,32.09,0,0,1-8.85,2.15,30,30,0,0,1-4.13.09A7.2,7.2,0,0,1,61.82,87a3.24,3.24,0,0,1-.53-.16c-.5-.2-.57-.51-.21-.9a3.35,3.35,0,0,1,.49-.43c.2-.15.41-.29.62-.42l2.09-1.24a34.39,34.39,0,0,0,3.3-2.13,18.52,18.52,0,0,0,5.34-6.1,11.41,11.41,0,0,0,1.44-4.9,7,7,0,0,0-.23-2.27,3.84,3.84,0,0,0-1.81-2.36L72,65.9,62.9,60.64a1.71,1.71,0,0,0-.23-.13h-.06s0,0,0,.05l.22.2,8.24,6.92a5.57,5.57,0,0,1,.51.46,3.68,3.68,0,0,1,.91,1.42,6,6,0,0,1,.29,2.62,9.24,9.24,0,0,1-.91,3.17,15.5,15.5,0,0,1-3.71,4.87,20.83,20.83,0,0,1-2.92,2.11,48,48,0,0,1-4.39,2.28c-.86.41-1.71.83-2.56,1.26a8.8,8.8,0,0,0-1,.63,1.41,1.41,0,0,0-.36.37.37.37,0,0,0,.09.55,1.53,1.53,0,0,0,.4.21,2.57,2.57,0,0,0,.47.15,13.59,13.59,0,0,0,2.11.31c1,.07,1.92.12,2.88.14a41.18,41.18,0,0,0,7.1-.38,34.91,34.91,0,0,0,4.39-.91c1.93-.54,3.84-1.17,5.74-1.83,1.39-.48,2.79-1,4.19-1.42a12.43,12.43,0,0,1,2.78-.61,5,5,0,0,1,2.23.23,5.3,5.3,0,0,1,1.52.94l6.91,5.8.58.49a.12.12,0,0,1,0,.19l-.66.78c-.19.23-.16.24-.39,0l-2.87-2.4c-1.51-1.27-3-2.52-4.52-3.8a4.69,4.69,0,0,0-3.35-1.15,9.52,9.52,0,0,0-1.69.2c-1,.21-2.06.5-3.08.8-2,.59-3.93,1.19-5.9,1.77a38.09,38.09,0,0,1-8,1.48c-1.51.11-3,.16-4.55.14-1.14,0-2.27-.06-3.41-.15a26.82,26.82,0,0,1-3-.34,4.42,4.42,0,0,1-1.13-.32c-.54-.26-.58-.58-.13-1a3.17,3.17,0,0,1,.56-.4c.51-.27,1-.55,1.54-.79,1.35-.63,2.71-1.22,4.06-1.85a27.77,27.77,0,0,0,3.59-2,16.84,16.84,0,0,0,3.25-2.64A13.16,13.16,0,0,0,71.4,75a6.93,6.93,0,0,0,.51-3A4,4,0,0,0,70.43,69c-1.12-.92-2.23-1.87-3.34-2.8l-5.33-4.47a.26.26,0,0,0-.21-.11l.24.3q3,3.54,5.95,7.09l1.45,1.73a3.92,3.92,0,0,1,.94,2A5,5,0,0,1,70,74.63a9.39,9.39,0,0,1-1.52,3.21,13.14,13.14,0,0,1-3,3,23.14,23.14,0,0,1-3.36,2c-1.61.79-3.26,1.47-4.94,2.11l-4,1.5A7.31,7.31,0,0,0,51.9,87a2.41,2.41,0,0,0-.46.37.35.35,0,0,0,.05.57,1.24,1.24,0,0,0,.33.21,4.44,4.44,0,0,0,.64.24,23,23,0,0,0,3.86.72c.74.09,1.48.16,2.22.22s1.35.12,2,.17,1.14.07,1.71.09c.85,0,1.7.09,2.55.1,1.71,0,3.41,0,5.11-.11.85-.07,1.71-.13,2.55-.23,1.11-.13,2.21-.29,3.31-.45,1.41-.21,2.82-.4,4.24-.48a12.53,12.53,0,0,1,2.45.1,4.71,4.71,0,0,1,3,1.65l.21.25L90,95.59c.51.6,1,1.2,1.52,1.81.13.15.13.16,0,.28l-.8.68c-.15.12-.15.11-.29,0l-.08-.1-4.09-4.87-1.81-2.16a4.77,4.77,0,0,0-2.4-1.53,8.55,8.55,0,0,0-2.07-.3,19,19,0,0,0-2.39,0l-3.14.3c-.75.08-1.49.17-2.25.23s-1.74.12-2.61.16A66.25,66.25,0,0,1,62.84,90c-1-.06-2.09-.14-3.14-.22-.84-.06-1.68-.12-2.51-.22-1.11-.13-2.21-.28-3.32-.44a21.65,21.65,0,0,1-2.72-.59,7.08,7.08,0,0,1-.77-.28A1.75,1.75,0,0,1,50,88a.33.33,0,0,1,0-.48,1.57,1.57,0,0,1,.33-.3,4.09,4.09,0,0,1,.61-.34c.62-.25,1.25-.51,1.89-.74,1.7-.6,3.4-1.17,5.08-1.83a47.24,47.24,0,0,0,4.54-2,18.82,18.82,0,0,0,3.69-2.49,9.77,9.77,0,0,0,2.18-2.69,6.4,6.4,0,0,0,.85-2.66,3.31,3.31,0,0,0-.47-2,6.8,6.8,0,0,0-.52-.68q-3.72-4.45-7.46-8.89a1.9,1.9,0,0,0-.19-.21,1,1,0,0,0,.13.33l5.63,9.76.44.77a3.17,3.17,0,0,1,.41,1.7,4.75,4.75,0,0,1-.26,1.35,6.77,6.77,0,0,1-1.48,2.38A13.36,13.36,0,0,1,62.72,81a26.51,26.51,0,0,1-3.93,2,57.3,57.3,0,0,1-7.24,2.5c-1.12.31-2.25.64-3.36,1a11.83,11.83,0,0,0-1.28.52,2.52,2.52,0,0,0-.63.41.47.47,0,0,0,.06.85,2.55,2.55,0,0,0,.46.25,11.6,11.6,0,0,0,1.84.59c1.19.31,2.4.56,3.61.78s2.2.38,3.3.54c.84.13,1.69.23,2.54.34l2.47.3,2.64.29c1.22.12,2.43.25,3.65.36,1.37.12,2.75.23,4.12.33,1.12.08,2.24.17,3.36.34a10.18,10.18,0,0,1,2.31.59,4.87,4.87,0,0,1,2.57,2.18l.18.31,4.23,7.33a1.71,1.71,0,0,1,.13.23c.06.11.06.14,0,.21s-.49.29-.74.43l-.37.17-.22-.32C80.91,101,79.45,98.51,78,96a5.16,5.16,0,0,0-2.57-2.24,9.75,9.75,0,0,0-2-.57c-.89-.16-1.79-.3-2.69-.42-1.05-.14-2.1-.25-3.16-.37l-2.5-.29-2.51-.31-2.7-.34-2.27-.31c-1.12-.15-2.23-.3-3.34-.48S52,90.23,50.83,90s-2.29-.47-3.41-.79c-.53-.15-1-.33-1.55-.52a2.89,2.89,0,0,1-.69-.38.48.48,0,0,1-.07-.81,2.24,2.24,0,0,1,.38-.31,5,5,0,0,1,1.09-.53,28.88,28.88,0,0,1,3-.93c1.4-.38,2.81-.76,4.19-1.18A39.57,39.57,0,0,0,60,82.08a19.19,19.19,0,0,0,2.62-1.55,10.49,10.49,0,0,0,2-1.85,5.33,5.33,0,0,0,1.06-1.94,3.21,3.21,0,0,0-.29-2.57c-.05-.09-.1-.19-.16-.28L62.39,69q-1.53-2.65-3.07-5.31a.94.94,0,0,0-.23-.33,3,3,0,0,0,.11.35l2.7,7.42,1.38,3.79a4.19,4.19,0,0,1,.28,1.2,3.31,3.31,0,0,1-.42,1.77A5.34,5.34,0,0,1,62.3,79a10.25,10.25,0,0,1-1.74,1.48,22.25,22.25,0,0,1-3.66,2,39.39,39.39,0,0,1-6.23,2.11c-1.31.33-2.61.64-3.91,1a16.27,16.27,0,0,0-2.85,1,4,4,0,0,0-1,.6,2.24,2.24,0,0,0-.43.44.58.58,0,0,0,.06.85,2.93,2.93,0,0,0,.52.41,7.62,7.62,0,0,0,1.5.71,33.91,33.91,0,0,0,3.94,1.11c2.93.69,5.87,1.28,8.82,1.84,2,.38,4.07.81,6.08,1.31a40.18,40.18,0,0,1,4.18,1.25,11.5,11.5,0,0,1,2.48,1.24,4.85,4.85,0,0,1,1.48,1.51A6.17,6.17,0,0,1,72,98.88c1,2.65,1.93,5.31,2.9,8,.06.17.11.35.17.53a1.55,1.55,0,0,1-.53.23l-.62.23c-.15,0-.18,0-.24-.13a1.34,1.34,0,0,1-.07-.18L72.35,104l-1.77-4.87A4.87,4.87,0,0,0,69,97a7.52,7.52,0,0,0-1.23-.82,15.46,15.46,0,0,0-2.24-1A54.1,54.1,0,0,0,59,93.36c-1.52-.34-3-.64-4.56-1l-4.64-1c-1.39-.32-2.79-.64-4.16-1a16.22,16.22,0,0,1-2.67-1,6.78,6.78,0,0,1-.86-.52,2.56,2.56,0,0,1-.47-.46.6.6,0,0,1,0-.71,3,3,0,0,1,.38-.48,3.89,3.89,0,0,1,.92-.64,10.35,10.35,0,0,1,1.71-.73c1.14-.4,2.3-.69,3.47-1,1.57-.38,3.14-.76,4.68-1.25a30.37,30.37,0,0,0,5.08-2.1,13.67,13.67,0,0,0,2.66-1.8,5.81,5.81,0,0,0,1.18-1.39,3.14,3.14,0,0,0,.5-1.84,3.22,3.22,0,0,0-.23-1c-1.38-3.77-2.74-7.54-4.12-11.3,0-.1-.08-.2-.12-.3a2.5,2.5,0,0,0,0,.55l.69,3.93c.23,1.3.47,2.6.69,3.91s.44,2.47.65,3.71a3.24,3.24,0,0,1-.62,2.57,5.57,5.57,0,0,1-1,1,14,14,0,0,1-2.93,1.8,26.36,26.36,0,0,1-5,1.76c-1.45.37-2.91.7-4.36,1.06a30.29,30.29,0,0,0-3.49,1,10,10,0,0,0-2.28,1.15,3.82,3.82,0,0,0-.9.85,1.32,1.32,0,0,0,0,1.8,3.7,3.7,0,0,0,.74.79,9,9,0,0,0,1.93,1.17,24.6,24.6,0,0,0,3.91,1.4c2.47.69,4.95,1.36,7.42,2,1.63.45,3.26.91,4.85,1.5a20.24,20.24,0,0,1,3.07,1.4,8.94,8.94,0,0,1,1.68,1.25,4.41,4.41,0,0,1,1.31,2.37c.22,1.18.43,2.37.65,3.55l.69,3.9.27,1.55c0,.14,0,.18-.13.21l-.29,0-.81.15c-.13,0-.16,0-.19-.12s0-.09,0-.13c-.17-.91-.33-1.83-.49-2.74l-.69-3.91c-.13-.71-.26-1.41-.4-2.12a4.64,4.64,0,0,0-1.63-2.7,10,10,0,0,0-1.42-1,22.86,22.86,0,0,0-4-1.71c-1.88-.63-3.8-1.16-5.71-1.71s-3.68-1-5.51-1.57a21.85,21.85,0,0,1-3.4-1.3,9.64,9.64,0,0,1-2-1.28,4.3,4.3,0,0,1-1-1.19,1.63,1.63,0,0,1,0-1.74,2.37,2.37,0,0,1,.22-.33,3.91,3.91,0,0,1,.77-.75,8.08,8.08,0,0,1,1.57-.88A19.7,19.7,0,0,1,44.09,84c1.46-.36,2.93-.7,4.4-1a36.79,36.79,0,0,0,4.24-1.25A17.25,17.25,0,0,0,56.07,80a6.93,6.93,0,0,0,1.57-1.34,2.92,2.92,0,0,0,.75-2,6.51,6.51,0,0,0-.1-1c-.24-1.42-.5-2.83-.75-4.25q-.63-3.6-1.27-7.2a.49.49,0,0,0-.06-.17h0V75.53c0,.27,0,.54,0,.81a3.35,3.35,0,0,1-.95,2.15,5.87,5.87,0,0,1-.9.75,11.26,11.26,0,0,1-1.66.92,20.59,20.59,0,0,1-4,1.31c-1.23.27-2.46.51-3.69.75-1.58.3-3.16.6-4.75.8a8.13,8.13,0,0,1-3-.14c-.48-.12-1-.26-1.43-.37a3.32,3.32,0,0,0-.77-.1.7.7,0,0,0-.77.61,1.6,1.6,0,0,0,0,.29c0,.2,0,.4,0,.59a13.74,13.74,0,0,0,1,4.2,8.13,8.13,0,0,0,2.13,3,11.26,11.26,0,0,0,1.58,1.16,21.73,21.73,0,0,0,3.31,1.65c1.44.58,2.91,1.08,4.38,1.58,1.67.57,3.33,1.17,5,1.89a16.08,16.08,0,0,1,2.29,1.2,7.5,7.5,0,0,1,1.35,1.09,3.68,3.68,0,0,1,1,1.8,8.09,8.09,0,0,1,.15,1.7v7.54C56.18,110.78,56.16,110.89,56.15,111Z"/></g></g></svg>