<svg xmlns="http://www.w3.org/2000/svg" viewBox="0 0 123.96 122.56"><title>Recurso 9ART</title><g id="Capa_2" data-name="Capa 2"><g id="Capa_1-2" data-name="Capa 1"><path d="M75.82,111v-.16l-.39-.39h-.08s-.06,0-.08,0l-.56-.55-.56-.54c-.3,0-.39-.31-.59-.46a.93.93,0,0,1-.34-.49h-.16l-3.61-3.62h-.08s-.06,0-.08,0l-5.41-5.41V98.08L64,98V94.15L63.87,94v-.93l-.16-.18v-.62l-.16-.17v-.3c-.06-.07-.16-.15-.15-.18.09-.26-.15-.42-.18-.65a.88.88,0,0,0-.29-.58c.07-.19-.18-.24-.16-.4a.42.42,0,0,0-.16-.41c0-.29-.38-.35-.34-.65-.18-.14-.18-.41-.39-.55s-.07-.29-.23-.37-.12-.27-.21-.38-.07-.19-.12-.27a2.47,2.47,0,0,0-.28-.28l-1.72-1.72,0-.16a1.12,1.12,0,0,1-.47-.33c-.11-.16-.28-.2-.43-.29s-.29-.35-.47-.4-.27-.29-.42-.3-.28-.24-.48-.19a2.06,2.06,0,0,0-.74-.48,3.55,3.55,0,0,1-.77-.41c-.16-.11-.35,0-.5-.15s-.3-.14-.45-.22a2.55,2.55,0,0,1-.24-.14l-.48,0c-.12-.25-.47,0-.59-.28h-.62l-.18-.16h-.62l-.17-.16H48.05l-.11.12a1.18,1.18,0,0,1-.46,0h-.37L47,82h-.42l-.39,0c-.1.25-.4,0-.54.22s-.24,0-.41.1l-.13.12h-.3l-.17.16h-.25a2.26,2.26,0,0,1-.51.27c-.16.09-.38.07-.55.2s-.33.11-.45.21-.35.09-.45.26c-.23,0-.28.24-.44.28a1.17,1.17,0,0,0-.43.29c-.09.07-.22.1-.32.17a1.48,1.48,0,0,0-.28.28c-.2.24-.51.31-.72.54s-.33.47-.65.51a6,6,0,0,0-.5.51c-.12.15-.35.22-.36.48,0,.07-.12.16-.2.22a1.8,1.8,0,0,0-.34.49c-.09.15-.19.29-.29.43s-.07.36-.26.45-.11.29-.22.37-.21.41-.39.55c0,.25-.22.33-.33.51v.26a2.47,2.47,0,0,0-.3.54c-.06.19-.27.33-.17.56l-.31.55V92l-.41.39h-.29l-.18.16h-.78l-.17.16a.53.53,0,0,0-.49.16c-.23-.1-.37.18-.56.14s-.29.21-.49.17-.34.18-.54.21c-.11.21-.33,0-.49.16a3.06,3.06,0,0,1-.51.26c-.16.07-.27.3-.51.1l-.27.37a.86.86,0,0,0-.29,0c-.44.18-.86.44-1.31.63a1.59,1.59,0,0,0-.36.3h-.29c-.16.12-.27.29-.49.35s-.3.28-.45.43c-.21-.07-.28.19-.48.19s-.21.29-.42.3c-.26.24-.62.34-.85.62h-.16c-.36.37-.74.74-1.1,1.12-.16.17-.41.17-.56.38a3.91,3.91,0,0,1-.49.51l-.45.44L22,100l-.2,0c-.16.34-.16.34-.54.55v.15l-.76.77c0,.32-.3.42-.46.61s-.33.33-.43.43l-.28.6c-.18.23-.53.4-.63.78-.3.21-.31.62-.55.87a.43.43,0,0,1-.23.37c-.15.1-.08.28-.21.4s-.09.27-.23.37-.21.56-.44.76c.06.2-.25.27-.17.48-.18.09-.15.31-.27.44a3.55,3.55,0,0,0-.2.39c-.08.14-.09.37-.21.45s0,.43-.21.55c-.13.32-.3.62-.45.92,0,0-.08.1-.07.12.09.24-.17.36-.17.57s0,.21,0,.32l-.15.18v.45c-.18.12-.14.38-.32.51v.61l-.15.15v.63c-.06.06-.13.1-.13.14,0,.33-.32.59-.17.93l-.17.2v.77l-.17.17v.79l-.11.11s0,0,0,.06v2.81l-.14.14v1.07l-.15.2a1.57,1.57,0,0,1-.17.7.92.92,0,0,1-.17.25l-.45.45-.45.26h-.68a7.44,7.44,0,0,1-1-.49,4,4,0,0,1-.74-.68v-.18c-.1-.07-.19-.18-.3-.21a.34.34,0,0,1-.24-.16c-.18-.46-.61-.69-.88-1l0-.14c-.19-.26-.49-.4-.61-.71,0,0,0,0,0-.08l-.55-.55a2.66,2.66,0,0,0-.35-.64c-.17-.15-.18-.36-.32-.51s-.25-.37-.4-.53-.14-.36-.31-.51-.22-.39-.42-.54v-.28l0-.09c-.44-.36-.44-1-.89-1.36,0-.32-.36-.53-.34-.88,0-.16-.16-.23-.18-.4s-.25-.33-.27-.51a2.48,2.48,0,0,0-.17-.48c-.07-.18-.26-.34-.17-.57-.17-.12-.13-.38-.31-.5v-.39a2.14,2.14,0,0,0-.24-.45c-.15-.16,0-.43-.21-.54,0-.17,0-.37-.17-.48v-.47L2.35,108v-.31l-.15-.17v-.41l-.32-.6v-.44a.57.57,0,0,0-.13-.42c-.09-.12,0-.36-.18-.48v-1.25l-.16-.17v-.47l-.15-.15c0-.35,0-.74,0-1.12l-.14-.14V98.26L1,98.11v-.66l.14-.13V95l.16-.18V93.23l.16-.17V92l.14-.14c0-.3,0-.64,0-1,.26-.12,0-.47.28-.59l0-.68L2,89.45V89l.16-.18v-.3l.16-.17v-.26l.3-.56s0,0,0-.07c0-.22-.1-.48.13-.66A1.45,1.45,0,0,1,3,86.23c0-.13.23-.21.17-.4s.14-.23.14-.33a1.7,1.7,0,0,1,.33-.81c.1-.19.13-.43.3-.58a.86.86,0,0,1,.17-.56c.25-.48.48-1,.73-1.43.07-.13.06-.31.22-.38s.11-.28.22-.38.12-.27.21-.39.15-.45.3-.57.17-.43.38-.56.11-.22.18-.32a3.17,3.17,0,0,1,.16-.32,2.45,2.45,0,0,0,.34-.5c.07-.15.27-.25.37-.4a3.19,3.19,0,0,0,.2-.46.42.42,0,0,1,.14-.18c.26-.15.29-.47.5-.65s.15-.37.33-.5.3-.29.45-.42v-.18l1.06-1.06c.22-.21.29-.52.55-.72a9.63,9.63,0,0,0,.72-.71l.67-.67.72-.72.67-.67.72-.72.67-.67,0,0,.28-.4.19,0a4.67,4.67,0,0,0,.44-.45c.12-.15.15-.37.34-.48H16l1.34-1.34V67.1a.9.9,0,0,0,.61-.51c.06-.16.12-.18.26-.21s.19-.22.28-.42l.21-.06,1.28-1.28.09-.27h.18l1-1a.56.56,0,0,0,.17-.24.46.46,0,0,1,.36-.34,1.44,1.44,0,0,0,.37-.3h1.24l.17.15H27.6l.14-.14h.63l.14-.14c.18-.12.42.07.59-.11s.39,0,.5-.09.43-.07.55-.2.35,0,.49-.15a1.59,1.59,0,0,1,.52-.26c.16-.06.25-.34.48-.12.14-.13.23-.28.36-.34s.24-.07.32-.18c.18.06.24-.16.4-.16s.21-.14.3-.23.29-.07.39-.22.46-.21.6-.44.44-.22.6-.44a5.83,5.83,0,0,1,.55-.56c.15-.14.26-.32.49-.34a.25.25,0,0,0,.16-.17c.07-.3.33-.45.51-.65s.31-.29.44-.45a1.6,1.6,0,0,0,.38-.47c.06-.18.26-.31.4-.46s0-.25.17-.33a.4.4,0,0,0,.21-.31.4.4,0,0,1,.18-.23c.13-.08.09-.23.17-.33a1.14,1.14,0,0,1,.11-.11v-.31c.1-.15.27-.22.33-.42a1.73,1.73,0,0,1,.27-.52c.09-.13,0-.36.18-.47V53l.16-.18v-.3l.17-.18V52l.16-.18v-.46l.15-.15v-.78l.15-.15V47.92l-.15-.17V47l-.16-.18v-.94l-.14-.14v-.58a5.42,5.42,0,0,1-.3-.51.33.33,0,0,1,0-.22c0-.19-.2-.28-.18-.49a.66.66,0,0,0-.2-.46c-.12-.14-.08-.28-.1-.45-.25-.1-.28-.39-.44-.59s0-.2,0-.34a1.64,1.64,0,0,1-.41-.57,5.3,5.3,0,0,0-.39-.54c-.16-.19-.19-.49-.44-.59V40.2c-.72-.72-1.46-1.44-2.17-2.17-.16-.17-.38-.24-.55-.39s-.29-.3-.45-.44-.14,0-.2-.07c-.22-.17-.51-.23-.65-.47h-.28a3.25,3.25,0,0,0-.4-.31c-.14-.09-.36-.1-.45-.21s-.35,0-.5-.16a.86.86,0,0,0-.52-.24c-.21,0-.3-.2-.48-.18h-.2c-.09-.09-.18-.24-.31-.29a2.55,2.55,0,0,0-.32-.17.44.44,0,0,1-.4-.39c0-.06-.09-.11-.15-.18v-.78l-.1-.09a.65.65,0,0,1-.05-.15c0-.13,0-.26,0-.39-.2-.12-.14-.32-.17-.49-.21-.1-.09-.32-.17-.48s-.17-.29-.28-.47v-.43c-.19-.12-.14-.38-.32-.5a.63.63,0,0,0-.15-.49,3.32,3.32,0,0,1-.2-.47c-.07-.15-.25-.29-.25-.43s-.27-.28-.19-.49c-.09-.14-.25-.23-.33-.41s-.4-.5-.45-.83c-.26-.19-.31-.52-.55-.72s-.1-.35-.28-.43-.07-.3-.22-.39-.19-.29-.28-.43-.25-.18-.26-.37-.11-.18-.19-.23-.25-.43-.44-.61-.37-.37-.56-.55l-.55-.56-.56-.55c-.17-.17-.4-.31-.48-.51a1.72,1.72,0,0,0-.41-.54l-.48-.5h-.18c-.11-.21-.16-.49-.49-.49a2,2,0,0,0-.54-.4,2.34,2.34,0,0,1-.45-.44,1.37,1.37,0,0,0-.7-.4c-.17-.15-.32-.38-.52-.45a1.75,1.75,0,0,1-.47-.37c-.18-.15-.43-.18-.55-.39a10.24,10.24,0,0,1-1.05-.52,1.55,1.55,0,0,1-.45-.21c-.12-.12-.31-.06-.39-.21s-.3-.17-.43-.28a2.5,2.5,0,0,1-.23-.23c-.27.06-.47-.13-.69-.23a2.86,2.86,0,0,1-.71-.38c-.26,0-.45-.19-.7-.19a.4.4,0,0,1-.2-.09,1.88,1.88,0,0,0-.46-.21c-.16,0-.31,0-.41-.17a1.2,1.2,0,0,1-.75-.28c-.14-.09-.37,0-.48-.17-.29,0-.49-.25-.79-.18l-.18-.16H8.57l-.17-.16H7.93l-.14-.14H7.16L7,14.34H6.09l-.2-.17H5.45L5.26,14H4.18L4,13.85H3.06l-.13-.14H2.29l-.15-.16H1.7l-.22-.16H.74a2,2,0,0,1-.74-1V12l.15-.16v-.3l.16-.18v-.3l1.3-1.31a1.13,1.13,0,0,0,.25-.09l.56-.56c.29,0,.39-.31.6-.43a1.6,1.6,0,0,0,.44-.29.73.73,0,0,1,.36-.25c.16,0,.27-.24.4-.36s.09-.1.12-.09c.28,0,.3-.34.58-.33.1,0,.2-.12.43-.25a2.69,2.69,0,0,1,.94-.62c.12-.06.3-.06.38-.21s.26-.14.38-.23.55-.21.76-.44a2.31,2.31,0,0,1,.71-.38c.21-.11.41-.29.68-.23l.29-.28c.15-.06.37,0,.48-.17.2,0,.34-.18.53-.22.11-.21.34,0,.49-.16a2.79,2.79,0,0,1,.45-.26h.39a3.1,3.1,0,0,1,.5-.29c.16-.07.37,0,.48-.18h.47l.17-.16h.31l.17-.16a.9.9,0,0,0,.5-.14,1,1,0,0,1,.43,0L15,2.83h.63l.15-.14h.61l.18-.17h.46l.18-.16h.46l.12-.11c.14-.08.3,0,.49,0l.2-.15h1.23l.17-.16H21l.15-.15h3.78l.16.15h1.57l.07.08c.06.05.08.08.1.08h1.4l.15.15H29l.16.16h.95l.15.15H31l.18.16h.46l.17.17h.47l.11.11c.17.09.36,0,.53,0s.26.14.41.16.23.19.41.15a.52.52,0,0,1,.42.12c.1.08.3,0,.48,0l.16.15h.3l.18.16h.3l.18.16h.45c.07.06.15.16.19.15.25-.09.41.16.64.18a1.08,1.08,0,0,1,.52.24c.17.12.45,0,.55.21.21,0,.33.23.56.17S38.93,5,39,5a.59.59,0,0,1,.34.13c.07.06.2,0,.35,0a1.79,1.79,0,0,0,.24.23c.08.06.2.06.26.12s.33.11.45.27a.76.76,0,0,0,.43.27,1,1,0,0,1,.43.29l.06.06c.21-.08.27.25.48.17.15.09.21.28.42.32s.24.19.35.29c.2-.07.28.24.48.17.15.22.43.26.6.44a2.62,2.62,0,0,0,.6.45c.2.11.29.37.55.38l.62.62h.16c.2.2.42.39.6.61s.41.18.56.38a1.49,1.49,0,0,0,.5.5,5,5,0,0,1,1.15,1c1.25,1.24,2.5,2.47,3.72,3.73.34.36.79.57,1.11.94s.67.67,1,1l1.06,1.06,1,1c.16.17.41.18.55.38a5.9,5.9,0,0,0,.55.57l.51.51,0,.2c.15.09.33.12.44.29v1.28l-.14.14v.62l-.16.17V26l.11.12c.09.16,0,.34.05.52l.12.11a1,1,0,0,1,0,.45c0,.13,0,.26,0,.38l.15.15c-.1.36.23.68.16,1.07.22.13.08.42.21.54s0,.49.26.61a2.66,2.66,0,0,0,.28.59,6.27,6.27,0,0,0,.29.58c.09.13,0,.25.07.38s.34.24.32.49a1.67,1.67,0,0,1,.34.48,1.26,1.26,0,0,0,.44.45c.18.13.14.37.32.5a1.24,1.24,0,0,1,.36.48c.08.18.28.3.43.45l.39.39c.14.15.27.37.45.43a.91.91,0,0,1,.47.36c.14.17.38.14.51.32a3.73,3.73,0,0,0,.44.45c.25,0,.32.22.49.32h.24c.16,0,.23.26.35.27s.29.2.47.22.24.19.36.3h.25l1.2.62h.4l.18.16h.3l.18.16h.46l.14.14c.26,0,.54,0,.82,0l.13.13h4.59l.13-.13H76c.16-.11.29-.26.49-.14l.19-.18H77l.17-.17h.37a11.47,11.47,0,0,1,1.08-.47,4,4,0,0,0,.79-.37,2.75,2.75,0,0,0,1-.65c.1-.13.32-.12.43-.29s.32-.1.44-.27a1.76,1.76,0,0,1,.38-.39c.17-.14.26-.41.55-.4l.5-.5c.16-.16.34-.32.49-.5a2.33,2.33,0,0,0,.5-.58,2.75,2.75,0,0,1,.45-.52c-.05-.3.39-.35.34-.65.29-.22.36-.58.56-.86s0-.45.21-.55c0-.21.24-.33.17-.56,0-.05.08-.12.11-.19s.09-.35.2-.46.09-.4.2-.55.1-.33.26-.45,0-.2,0-.3l.76-.39h.73l.15-.15.32,0c.07-.05.13-.15.19-.14a1,1,0,0,0,.49-.15c.13-.06.28,0,.42-.14s.3,0,.47,0l.17-.15h.45c.1-.17.31-.14.45-.26a.88.88,0,0,1,.38-.2c.23,0,.28-.21.43-.31s.5-.18.75-.27.37-.27.62-.22c0,0,.1,0,.13-.07a2.5,2.5,0,0,1,1.12-.71c.34-.15.61-.41.94-.57.18-.09.24-.34.47-.38s.28-.22.41-.34.48-.19.59-.45h.17l.94-.94h.17l.94-.94H99c.11-.14.14-.31.27-.45.68-.65,1.34-1.33,2-2a.28.28,0,0,1,.11-.26,1.49,1.49,0,0,0,.41-.54c.06-.18.28-.3.42-.45-.06-.29.32-.32.33-.58s.34-.24.3-.5c.11-.11.28-.21.3-.34s.17-.23.16-.33.17-.24.18-.41.34-.24.31-.5c.16-.1.16-.3.25-.44a2,2,0,0,0,.24-.53c0-.11.18-.19.27-.28s0-.29.1-.43.21-.5.4-.7c-.08-.21.24-.28.16-.49s.18-.23.15-.41a.41.41,0,0,1,0-.22c.08-.15.17-.3.28-.48V11l.32-.56V10l.14-.13v-.4l.32-.61v-.4l.16-.19V7.65l.17-.18V6.85l.14-.14V6.08l.16-.17V4l.16-.16V2.11L107.14,2V1.5l.14-.16V1.05c.11-.18.29-.27.35-.5s.4-.27.61-.39a1.18,1.18,0,0,0,.19-.11c.12-.08.25,0,.38,0h.38l.78.4c.26.27.61.56.89.91s.74.46,1,.84v.14l.34.33a3.73,3.73,0,0,0,.45.44c.16.12.11.34.27.44s.19.36.33.5.3.21.34.41.31.28.38.47.39.45.46.76c0,.06.1.09.11.19,0,.27.36.35.47.59s.12.44.31.57.15.26.22.39a4.07,4.07,0,0,0,.37.55,2.94,2.94,0,0,1,.29.59c.1.19.19.39.28.59a1.86,1.86,0,0,1,.1.2,1.47,1.47,0,0,1,0,.21l.3.31v.33l.33.19v.42l.16.18v.26l.31.55c0,.35.27.57.32.89v.17l.15.17v.3l.16.18v.45c.06.07.16.13.15.19a.94.94,0,0,0,.15.49c.06.13,0,.28.14.42s0,.3,0,.48l.15.16v.45l.16.18v.94l.16.17v.3l.16.19v.77l.15.14v.79l.17.17v.94l.14.15v5.5l-.15.17v1.1l-.11.1s0,.05,0,.07v.93l-.15.14v.79l-.16.17v.94l-.15.15v.46l-.16.18V32l-.17.17v.31l-.16.17V33l-.15.18v.4l-.31.57v.4l-.16.19V35l-.16.17v.24a5.62,5.62,0,0,0-.66,1.53l-.29.23v.27c-.16.44-.46.74-.47,1.21l-.27.19c-.06.4-.4.66-.37,1.06a1.52,1.52,0,0,0-.48.83l-.41.38c0,.26-.27.35-.36.56s-.2.43-.31.65a.27.27,0,0,0,0,.09l-.61.6c.05.3-.38.35-.34.65,0,0,0,0-.05.06a3.67,3.67,0,0,0-.56.63,2.55,2.55,0,0,1-.5.58c-.15.14-.15.37-.33.5s-.33.33-.5.49l-.45.45c-.14.15-.3.29-.44.42V47l-.5.5-.06.05h-.15l-.23.22v.17l-.77.77c-.26.26-.54.5-.78.78s-.6.42-.67.82l-.78.78-.78.78c-.26.26-.51.52-.78.77s-.17.42-.38.56a4.7,4.7,0,0,0-.51.49l-.44.45-.5.5-.5.5-.5.5-.45.44-.5.5v.16c-.1.16-.28.2-.43.29a2.55,2.55,0,0,0-.41.4h-.67l-.14-.14h-.94l-.14-.14h-.67l-.13.14H97.3l-.16-.16H96l-.15.15c-.34,0-.73,0-1.12,0l-.13.13H94.2l-.21.16h-.56l-.58.33h-.26l-.17.16h-.24a7.46,7.46,0,0,1-1.06.48,1.91,1.91,0,0,0-.52.25c-.13.07-.19.26-.38.21a.61.61,0,0,1-.32.18,1.25,1.25,0,0,0-.44.27c-.11.12-.27.14-.38.23a2.34,2.34,0,0,1-.49.33c-.15.08-.23.28-.44.28,0,0-.07.07-.11.1l-2,2c-.17.17-.17.43-.39.56s-.26.41-.44.61-.22.39-.4.53c-.17.48-.45.91-.65,1.38-.08.18-.18.35-.3.57v.41l-.16.18v.3l-.17.18v.3l-.16.18v.3l-.16.18v.46l-.15.15v.78l-.15.15v3.78l.15.17v.92l.16.18v.43l.31.55V76c.1.17.27.33.28.51s.18.41.19.63c.19.12.19.34.31.51s.17.4.29.58.13.37.24.53a2.59,2.59,0,0,0,.37.56,1.93,1.93,0,0,1,.25.54l.48.49c.17.17.35.32.5.5s.4.27.41.57l.59.59a1,1,0,0,0,.44.29c.17,0,.2.27.28.42l.18,0c.26.4.8.51,1.07.93h.33c.13.23.39.31.6.44a1.85,1.85,0,0,0,.38.07c.13.09.19.27.41.3s.24.16.41.16.22.08.33.14a2.88,2.88,0,0,1,.57.32c.23-.1.39.09.56.16a1.51,1.51,0,0,1,.76.59v.75l.15.14v.43l.32.57v.38l.32.56v.38c.17.35.36.69.53,1a6.73,6.73,0,0,0,.54,1,1.52,1.52,0,0,0,.28.75,4.89,4.89,0,0,0,.37.72s0,.1,0,.14a.12.12,0,0,0,.06.06c.23.11.2.41.39.54s.15.26.22.39.1.22.17.32.17.14.21.23.06.23.17.32.24.44.44.61a2.44,2.44,0,0,1,.4.54c.1.14.18.29.28.43s.23.21.33.34.18.29.28.43.22.22.33.33.31.24.38.4c.22.46.65.72.94,1.1h.17c.16.28.3.58.66.64l.57.57a2.07,2.07,0,0,1,.26.1,3.92,3.92,0,0,0,.76.63,3.47,3.47,0,0,1,.68.65c.12.12.32.11.43.28s.39.12.5.33.31.23.48.35a2.16,2.16,0,0,0,.44.27c.13.05.17.25.36.27s.24.25.42.31l.4.16c.16.08.3.17.45.26s.29.07.38.21c.2,0,.29.17.48.19s.28.23.44.25.27.24.47.19c.09.14.26.14.39.21l.44.26c.15.07.35.09.46.2s.28.1.43.12.12.09.19.15h.3l.17.16h.27l.55.31h.39c.12,0,.17.18.32.16a.86.86,0,0,1,.32,0c.12,0,.17.19.33.15a.26.26,0,0,1,.31.15h.64l.18.17h.46l.18.16h.93l.13.13h.76l.23.18h1.08l.15.15h3.29l.18.16h.3l.17.16H123l.82.82.19.43v.87l-.15.16v.31c-.57.57-1.15,1.14-1.72,1.72-.23.25-.56.34-.77.61a2.58,2.58,0,0,1-.67.65,3.59,3.59,0,0,0-.76.63c-.11.12-.28.1-.39.22s-.39.24-.53.4-.41.21-.56.38a.8.8,0,0,1-.37.23,1,1,0,0,0-.43.28c-.13.16-.31.16-.46.26l-.43.28c-.17.11-.33.21-.49.33a2.49,2.49,0,0,1-.59.29l-.52.25a5.24,5.24,0,0,1-.51.3c-.11.05-.28,0-.36.07s-.34.1-.45.27a1.4,1.4,0,0,1-.65.3c-.19,0-.28.2-.49.18a.68.68,0,0,0-.46.2c-.14.13-.28.08-.42.1l-.18.16h-.3l-.17.15h-.41a2.65,2.65,0,0,0-.44.25c-.14.13-.33,0-.43.11s-.35.09-.44.27h-.47l-.14.15-.5,0-.13.13h-.57a.7.7,0,0,1-.52.17l-.19.15H106l-.18.17H105l-.18.16h-.94l-.11.11s0,0-.06,0h-1.4l-.14.15H96l-.18-.15h-.93l-.14-.15H94l-.17-.16h-.47l-.17-.16h-.78l-.12-.12c-.14-.09-.3,0-.46,0l-.21-.16-.65,0c-.11-.24-.41,0-.54-.22a.17.17,0,0,0-.06-.06H90l-.56-.33h-.52c-.26-.12-.46-.29-.65-.29s-.33-.22-.57-.19-.33-.22-.56-.15-.12-.16-.25-.15-.22-.22-.41-.16-.28-.22-.48-.17c-.09-.17-.27-.11-.41-.15a2,2,0,0,1-.39-.19c-.31-.19-.65-.32-1-.5a1.19,1.19,0,0,1-.23-.22c-.13-.08-.29,0-.43-.1s-.58-.26-.82-.5-.44-.19-.64-.34-.38-.12-.53-.23A1.46,1.46,0,0,0,81,115c-.12-.24-.4-.23-.57-.39s-.19,0-.26-.12a1.52,1.52,0,0,0-.34-.33,1.86,1.86,0,0,1-.38-.22,3.23,3.23,0,0,0-.43-.29c-.14-.09-.21-.29-.41-.32s-.29-.22-.41-.35-.37-.15-.5-.32a3.12,3.12,0,0,0-.44-.45c-.13-.11-.3-.18-.43-.28a3.55,3.55,0,0,1-.34-.33c-.13-.13-.25-.27-.39-.39A1.59,1.59,0,0,0,75.82,111ZM53.65,61.91c.05.07.15.14.14.18-.07.26.13.43.21.63a6.36,6.36,0,0,0,.28.59,6.36,6.36,0,0,1,.3.58c.08.22.36.3.35.57l.5.5a4.67,4.67,0,0,1,.44.45c.11.13.18.29.28.42s.31.14.44.28a1.46,1.46,0,0,0,.58.3c.14,0,.23.27.35.28s.24.18.4.19.25.15.39.18.12.09.16.12h.43l.17.16h.31l.17.16H60.8l.16.15h.63l.15-.15h.94l.16-.16a1.46,1.46,0,0,0,.36,0c.12,0,.23-.15.33-.14S63.86,67,64,67s.33-.12.48-.18a4.15,4.15,0,0,0,1.08-.62c.25,0,.29-.38.57-.32l.39-.39.91-.9a.67.67,0,0,1,.1-.25,3.51,3.51,0,0,1,.33-.34c.11-.11.06-.3.22-.38,0-.24.2-.34.33-.49V62.9l.32-.56c0-.16-.09-.35.07-.5s0-.41.11-.59l.11-.11V59.06l-.16-.16v-.47l-.14-.14v-.63a.69.69,0,0,1-.18-.31c0-.14-.2-.23-.27-.3s0-.28-.05-.35-.21-.47-.44-.61c.07-.29-.34-.31-.31-.58-.18-.19-.36-.37-.52-.57s-.36-.17-.5-.33a3.56,3.56,0,0,0-.7-.57,2.52,2.52,0,0,1-.72-.54c-.18.06-.25-.2-.4-.16s-.31-.18-.49-.15-.28-.14-.41-.15a1.18,1.18,0,0,1-.51-.19h-.57l-.13-.13c-.28,0-.56,0-.81,0l-.14-.14H60.8l-.17.16H59.54l-.18.16H58.9a.17.17,0,0,1-.06.06.4.4,0,0,1-.2.09c-.25,0-.44.22-.71.19-.07.16-.3.08-.37.23s-.34.22-.5.31-.32.27-.49.34a1.33,1.33,0,0,0-.49.35l-.77.77c-.33,0-.39.28-.49.5a3.23,3.23,0,0,1-.33.49,4.27,4.27,0,0,0-.24.53,3.56,3.56,0,0,0-.49,1.13s-.07.07-.14.14v.63l-.14.13v1.89l.17.17Z"/></g></g></svg>