<svg xmlns="http://www.w3.org/2000/svg" viewBox="0 0 60.69 123.44"><title>Recurso 13ART</title><g id="Capa_2" data-name="Capa 2"><g id="Capa_1-2" data-name="Capa 1"><path d="M45,54.4h1a1.67,1.67,0,0,0,0-.5v-.53c.34,0,.67,0,1,0,.09-.1,0-.23,0-.35s0-.21,0-.31a.79.79,0,0,1,0-.37h1c.09-.13,0-.25.05-.37s0-.21,0-.31a.8.8,0,0,1,0-.37h1a.16.16,0,0,1,0-.06v-1a2.07,2.07,0,0,1,.5,0h.5a.56.56,0,0,0,0-.33c0-.12,0-.24,0-.36v-.31c.12-.09.24,0,.36,0h.31a.85.85,0,0,0,.38,0v-1l0,0a.41.41,0,0,1,.11,0h.86a1.73,1.73,0,0,0,0-.51c0-.17,0-.34,0-.53.34,0,.67,0,1,0,.09-.1,0-.23,0-.34s0-.21,0-.32a.8.8,0,0,1,0-.37h1c.09-.13,0-.25,0-.37s0-.21,0-.31,0-.24,0-.36h4.11s0,0,0,0a.33.33,0,0,1,0,.1V46a1.75,1.75,0,0,0,.51,0h.49l0,.07V48a.11.11,0,0,0,0,.05c.1.08.23,0,.35,0h.67v3.09s0,0,0,0h-1a1.67,1.67,0,0,0,0,.5c0,.17,0,.34,0,.53-.35,0-.68,0-1,0-.1.1,0,.23,0,.34s0,.21,0,.32a.79.79,0,0,1,0,.37h-1a.89.89,0,0,0,0,.42c0,.14,0,.28,0,.42v.42c0,.14,0,.28,0,.42a.88.88,0,0,1,0,.42h-1s0,0,0,.06v1a2.19,2.19,0,0,1-.51,0h-.5a.6.6,0,0,0,0,.32c0,.13,0,.25,0,.37v.3c-.11.1-.24,0-.35,0h-.32a.8.8,0,0,0-.37,0v1l-.06.06h-1a1.67,1.67,0,0,0,0,.5v.54c-.35,0-.67,0-1,0,0,0,0,0,0,0a.07.07,0,0,0,0,0c0,.64,0,1.29,0,1.93,0,0,0,0,0,.06h-1c-.09.13,0,.25,0,.37s0,.21,0,.31v.37h-1l-.05.06v1a2.79,2.79,0,0,1-.5,0h-.5a.56.56,0,0,0,0,.33c0,.12,0,.24,0,.36v.31c-.12.09-.25,0-.36,0h-.68v2l0,0h1a1.67,1.67,0,0,1,0,.5V68c-.35,0-.68,0-1,0a.08.08,0,0,0,0,0,.07.07,0,0,0,0,0V70s0,0,0,.06h-1s0,0,0,.06a.07.07,0,0,0,0,0v2.93s0,0,0,.05l0,.06h-.94s-.05,0-.05.05a.41.41,0,0,0,0,.11v.86a2.18,2.18,0,0,1-.51,0c-.17,0-.34,0-.49,0l0,.07v1.93a.07.07,0,0,1,0,0c-.1.09-.23,0-.35,0H44v2l-.06.06h-1a1.67,1.67,0,0,0,0,.5c0,.17,0,.34,0,.53-.35,0-.68,0-1,0l0,0v2l0,.06h-1c-.08.14,0,.29,0,.42s0,.28,0,.42v.42c0,.14,0,.28,0,.41a.91.91,0,0,1,0,.43h-2s0,0,0,0a.41.41,0,0,0,0,.11v.86a1.67,1.67,0,0,1-.5,0c-.17,0-.34,0-.5,0a.57.57,0,0,0,0,.33c0,.12,0,.25,0,.37v.3s0,0-.05,0h-2s0,0-.06,0v2s0,0-.06,0a.34.34,0,0,1-.1,0H33.51a1.68,1.68,0,0,0,0,.5v.54c-.34,0-.67,0-1,0-.09.11,0,.24,0,.35s0,.21,0,.32a1,1,0,0,1,0,.37h-1a29.88,29.88,0,0,0,0,3.14h1a.23.23,0,0,1,0,0v-.94a10.83,10.83,0,0,1,2.06,0l0,0v.93c-.12.1-.24,0-.36,0s-.21,0-.31,0h-.37V96.2l-.06,0s0,0,0,0h-.94v-1s0,0,0-.06h-.95l0,0v1l.05,0h1v1a1.68,1.68,0,0,1-.5,0H31.4c0,.34,0,.67,0,1-.1.09-.23,0-.34,0h-.32a.75.75,0,0,0-.36,0v1c.12.07.27,0,.4,0s.28,0,.42,0h.42c.14,0,.28,0,.41,0a1.19,1.19,0,0,1,.42,0v1l0,0h-.94s0,0,0,0v7.24a.79.79,0,0,0,.33,0h.66a.12.12,0,0,1,0,0,.07.07,0,0,1,0,0v5.07l0,.06h1s0,0,0,.05,0,0,0,.06v3a1.67,1.67,0,0,1-.5,0h-.49l-.05.06s0,0,0,0v3l0,0h-2l-.06,0v1c-.13.1-.25,0-.37,0h-.31a.6.6,0,0,0-.37,0v1s0,0-.06,0H26.18a2.9,2.9,0,0,0,0,.51v.5a.79.79,0,0,1-.33,0h-.67c-.09.11,0,.24,0,.35s0,.21,0,.32a.74.74,0,0,1,0,.36H17.83l0,0v-.94c-.06-.09-.16,0-.24,0H14.66c0-.35,0-.68,0-1,0,0,0,0,0,0h-2s0,0-.06,0v-1c-.15-.09-.29,0-.42,0H10.89a1,1,0,0,1-.42,0v-1l-.06,0h-1a2.19,2.19,0,0,1,0-.51v-.5a.77.77,0,0,0-.33,0H8.42c-.09-.11,0-.24,0-.36s0-.2,0-.31a.79.79,0,0,0,0-.37h-1l0-.06s0,0,0-.05v-4a1.67,1.67,0,0,0-.5,0h-.5l0-.06v-4.07c-.11-.1-.23,0-.35,0s-.21,0-.31,0a1,1,0,0,1-.38,0v-4.1c-.12-.09-.25,0-.37,0H4.56a.8.8,0,0,1-.37,0V94.21s0,0-.06,0H3.2l0,0a.08.08,0,0,1,0-.05V87.92a.79.79,0,0,1,.33,0h.67l0,0a.11.11,0,0,0,0,0v-4s0,0,0-.06h.95l.05,0a.13.13,0,0,0,0-.06V71.2c.06-.09.15-.06.23-.06H8.34c.06-.63.07-4.36,0-8.32-.1-.1-.23,0-.35,0H7.37s0-.05,0-.06,0,0,0-.06V60.77a.43.43,0,0,1,0-.05c-.11-.08-.23,0-.35,0H6.66a.85.85,0,0,0-.38,0V69s0,.06,0,.06H5.29c-.09-.07,0-.16,0-.24v-6c-.35,0-.68,0-1,0l0,0a.07.07,0,0,1,0,0V36.74a.61.61,0,0,1,0-.11h1l.05-.06a.09.09,0,0,0,0,0c0-.65,0-1.29,0-1.94l0,0h-1l0-.06v-2a2.15,2.15,0,0,0-.51,0H3.19l0-.06V30.43a.11.11,0,0,0,0-.05c-.1-.09-.23,0-.34,0s-.21,0-.32,0a.81.81,0,0,1-.37,0v-2l-.05-.05s0,0-.06,0H0a1.39,1.39,0,0,1,0-.5c0-.18,0-.35,0-.52V26.17c.34,0,.67,0,1,0,.09-.1,0-.23,0-.35s0-.21,0-.31a1,1,0,0,1,0-.37H5.2c.08.11,0,.23,0,.35s0,.21,0,.31v.38h2l0,.05v1a1.68,1.68,0,0,0,.5,0c.17,0,.35,0,.5,0a.56.56,0,0,1,0,.33c0,.12,0,.24,0,.36v.31c.12.09.25,0,.36.05s.21,0,.32,0a.81.81,0,0,1,.37,0v.95l.05.05s0,0,0,0h.92a1.73,1.73,0,0,1,0,.51v.53c.34,0,.67,0,1,0l0,0a.11.11,0,0,1,0,.05v1.94s0,0,0,.06h.95l.05,0a.11.11,0,0,1,0,.05v4l0,.06h.94s0,0,0,.05a.41.41,0,0,1,0,.11v1.91a2.07,2.07,0,0,0,.5,0h.5l0-.06s0,0,0-.06V36.71s0,0,0-.05.23,0,.35,0h.31a.8.8,0,0,0,.37,0v-2l.06,0h.94c.09-.07,0-.16,0-.24,0-.61,0-1.22,0-1.81l.07,0h.93s0,0,0,0a.07.07,0,0,0,0,0V30.41s0,0,0-.06h1s0,0,0-.06a.07.07,0,0,0,0-.05V28.36s0,0,0-.05,0,0,.05-.06h.94s.05,0,.05-.06a.34.34,0,0,0,0-.1V26.18a1.75,1.75,0,0,1,.51,0c.17,0,.34,0,.49,0l.05-.07V24.16a.43.43,0,0,1,0-.05c.1-.09.23,0,.35,0h.31A.79.79,0,0,0,22,24V22L22,22H23c.08-.06.05-.16.05-.24V19.89c.35,0,.68,0,1,0,.1-.1,0-.23.05-.34s0-.21,0-.32a.79.79,0,0,1,0-.37h1c.09-.15,0-.29,0-.42s0-.28,0-.42V16.74h1s.05,0,.05-.06v-2a1.75,1.75,0,0,1,.51,0h.5a.79.79,0,0,0,0-.33v-.67l0,0h2l.06,0v-1s0,0,.05,0h1a1.73,1.73,0,0,0,0-.51c0-.17,0-.34,0-.53.35,0,.68,0,1,0,.09-.1,0-.23,0-.34s0-.21,0-.32v-.37h1c.09-.13,0-.25,0-.37s0-.21,0-.31,0-.24,0-.37h1l0-.06a.34.34,0,0,0,0-.1V8.39a2.9,2.9,0,0,1,.51,0h.5a.79.79,0,0,0,0-.33V7.37c.12-.09.24,0,.36,0h.31a.68.68,0,0,0,.37,0v-1s0-.06.06-.06a.34.34,0,0,1,.1,0h1.91a1.68,1.68,0,0,0,0-.5V5.24c.35,0,.67,0,1,0,.09-.11,0-.24,0-.35s0-.21,0-.32a.8.8,0,0,1,0-.37h1c.09-.13,0-.25,0-.37s0-.21,0-.31a.8.8,0,0,1,0-.37h2s.05,0,.05-.06a.34.34,0,0,0,0-.1V2.12a2.19,2.19,0,0,1,.51,0h.5a.74.74,0,0,0,0-.32V1.1s0,0,.05-.05h2L45,1V.06S45,0,45.05,0h4.1a2.1,2.1,0,0,1,0,.5V1c.34,0,.67,0,1,0,.09.11,0,.24,0,.35s0,.21,0,.32a.81.81,0,0,0,0,.37h1c.05.45.05,2.62,0,3.14h-1l-.05.06v1a2.79,2.79,0,0,1-.5,0h-.5a.56.56,0,0,0,0,.33c0,.12,0,.24,0,.36v.31c-.12.09-.25,0-.36,0h-.69v1s0,.06-.05.06h-1a1.68,1.68,0,0,0,0,.5c0,.18,0,.35,0,.54-.34,0-.67,0-1,0-.09.11,0,.24,0,.35s0,.21,0,.32a.81.81,0,0,1,0,.37H44l0,0s0,0,0,.06v.88c-.07.09-.16.06-.24.06H43l-.05.06v.93c-.11.11-.24,0-.35.05h-.66a.74.74,0,0,0,0,.32v.67c-.12.1-.24,0-.36,0h-.31a.8.8,0,0,0-.37,0v2s0,0-.06,0h-1a1.75,1.75,0,0,0,0,.51v.49l-.06,0h-.93s0,0-.05.05,0,0,0,0v1.94s0,0,0,.06h-.94l-.06.05s0,0,0,.06v.88c-.06.09-.16.06-.24.06h-.76l-.05.06v.93c-.11.11-.23,0-.35.05H36a.84.84,0,0,0-.38,0v1c-.12.09-.25,0-.36,0s-.21,0-.32,0a.8.8,0,0,0-.37,0v5.14s0,.05-.06.05a.33.33,0,0,1-.1,0h-.83l0,0a.08.08,0,0,0,0,.05v1.93s0,0,0,.05l0,0s0,0-.05,0h-.88c-.1.12,0,.24-.05.36s0,.21,0,.31v.38h-1l-.06.05v.94c-.06.09-.16.05-.24.06h-.76s0,0,0,.06a.07.07,0,0,0,0,.05v.88c-.1.1-.23,0-.35,0h-.31a1.18,1.18,0,0,0-.37,0v2l0,0h2s0,0,.06,0v-.95s0-.05.06-.05h1a2.1,2.1,0,0,0,0-.5v-.51a.74.74,0,0,1,.32,0h.67l0,0v-2l.05,0h.94a.31.31,0,0,1,.06-.06v-.94c.06-.09.16-.05.24-.05h.76s0,0,0-.06a.07.07,0,0,0,0-.05V28.3c.11-.1.23,0,.35-.05s.21,0,.31,0h.38v-1c.12-.1.25-.05.36-.06s.21,0,.32,0a.81.81,0,0,0,.37,0v-.95l0-.05a.85.85,0,0,1,.16,0h.81a1.75,1.75,0,0,0,0-.51c0-.17,0-.34,0-.5s.23,0,.33,0h.67c.1-.11,0-.24,0-.36s0-.21,0-.31a.8.8,0,0,1,0-.37h1l.06-.06v-.94c.06-.09.15-.05.24-.05h1.8l0-.06V22s0,0,0,0H47l.06,0V21l.05-.05H55.4l.05,0v1l.06,0h3.06a1.73,1.73,0,0,1,0,.51c0,.17,0,.34,0,.5a.79.79,0,0,0,.33,0h.67l0,0a.11.11,0,0,1,0,.05v3s0,0,0,.06h1s0,0,0,.06,0,0,0,.05v.89c-.06.09-.15.05-.23.05h-.76s0,.05,0,.06,0,0,0,0v.89s0,0,0,0h-.89l-.11,0v-1s0-.05-.06-.05H54.47s0,0-.06.05v.95s0,.05-.06.05h-1a2.1,2.1,0,0,0,0,.5v.5a.53.53,0,0,1-.32,0c-.13,0-.25,0-.37,0h-.31c-.09.12,0,.25,0,.36s0,.21,0,.32a.8.8,0,0,1,0,.37h-2l-.06.05v1h-2s0,0-.06.05v.95c-.13.08-.25,0-.37,0h-.31c-.12,0-.24,0-.37,0v1a.8.8,0,0,1-.37,0H46.4c-.12,0-.25,0-.36.05v1h-.7c-.11,0-.24-.05-.34,0,0,.33,0,.66,0,1h-.53a2.07,2.07,0,0,0-.5,0v.81a.76.76,0,0,1,0,.15s0,0,0,.06H43s-.05,0-.05.05v2h-1l0,0s0,0,0,0v1h-1l0,0,0,0v1h-1s0,0,0,0l0,0v1h-1s0,0-.07,0v.9a.43.43,0,0,0,0,.05.05.05,0,0,0,0,0h1s0,0,0-.05v-1h1l0,0s0,0,0,0v-1h1l0,0,0,0v-1h1s0,0,0,0,0,0,0,0v-1h1l.06-.05v-.95a.6.6,0,0,1,.37,0h.31c.11,0,.24,0,.37,0v-1h.68c.12,0,.24,0,.36,0v-1a1,1,0,0,1,.38,0h.31c.12,0,.24,0,.35,0v-.3c0-.12,0-.25,0-.37a.6.6,0,0,1,0-.32h.66c.12,0,.24.06.35-.05v-.93l0-.06h.49a1.75,1.75,0,0,0,.51,0V32.7a1.47,1.47,0,0,1,0-.21s0,0,0-.06H50c.08,0,.17,0,.23,0v-1h8.32c.09.06.05.15.05.24v.75l.06,0h.94c.1.11,0,.24,0,.36s0,.2,0,.31a1,1,0,0,0,0,.37h1l0,.06s0,0,0,0v4l0,0h-2l-.06.06v1a1.67,1.67,0,0,1-.5,0h-.54c0,.35,0,.68,0,1,0,0,0,0,0,0h-2s0,0-.06,0v1l-.06,0s0,0,0,0h-.89c-.09.07-.05.16-.05.24v1.81l-.06,0h-1a2.75,2.75,0,0,0,0,.5v.5a.56.56,0,0,1-.33,0c-.12,0-.24,0-.36,0h-.31c-.09.12,0,.24,0,.36s0,.21,0,.31a.72.72,0,0,1,0,.38h-1l-.06,0s0,0,0,.05V46a1.68,1.68,0,0,1-.5,0h-.54c0,.35,0,.68,0,1-.11.09-.24,0-.35,0s-.21,0-.31,0a.85.85,0,0,0-.38,0v1c-.13.09-.25,0-.37,0H48.5c-.12,0-.24,0-.37,0v.95s0,.05-.06.05h-1a1.75,1.75,0,0,0,0,.51c0,.17,0,.34,0,.5a.74.74,0,0,1-.32,0h-.67s0,0-.05.05v2l0,.06h-.94l-.06,0v2H44s0,0-.06,0v.95s0,0,0,0h1l0,0Zm0,15.7h1l0,0s0,0,0,0v-1h1s0,0,.06,0v-1a.05.05,0,0,0,0,0h-1s0,0,0,0v1h-1l0,0s0,0,0,0v1H44s0,0-.06,0v1l0,0h1s0,0,0,0ZM31.4,61.73h2s0,0,0,.05v1H32.8c-.12,0-.24-.05-.37,0v2a.79.79,0,0,1-.37,0h-.31c-.12,0-.24-.05-.36,0v.93s0,0,0,0l.09,0h5.07l0,0v-.93l0,0,0,0h1.94l0,0a.08.08,0,0,0,0,0v-2s0,0,0-.06h-.5a1.39,1.39,0,0,1-.5,0v-1l-.06-.05H34.53v-.37c0-.11,0-.21,0-.32s0-.24-.05-.36h-1a.85.85,0,0,1,0-.38c0-.1,0-.21,0-.31s.05-.24,0-.36H32.5l-.06,0v.49a2.19,2.19,0,0,1,0,.51h-1l-.05,0ZM28.25,96.26v.93s0,0,0,0,0,0-.06.06h-2v.37c0,.1,0,.21,0,.31s0,.24-.05.37h-2a1,1,0,0,0,0,.37c0,.11,0,.21,0,.31s0,.25-.05.36h-1.2c-.13,0-.27,0-.41,0a1.27,1.27,0,0,0-.43,0v2a.07.07,0,0,0,0,0l0,0h3l.06,0c0-.16,0-.33,0-.5a1.67,1.67,0,0,1,0-.5h2l.06,0v-1a.8.8,0,0,1,.37,0c.1,0,.21,0,.31,0s.24,0,.37,0v-1h.68c.12,0,.24,0,.36,0V98c0-.12,0-.24,0-.36a.55.55,0,0,1,0-.33h.5a2.75,2.75,0,0,0,.5,0c0-.34,0-.66,0-1,0,0,0,0,0,0ZM12.6,42.91s0,0,0,0v5.12l0,.06h1.8c.08,0,.18,0,.24-.06v-.83a.41.41,0,0,0,0-.11s0,0-.06-.05h-.94s0,0,0-.06,0,0,0-.05V43a.07.07,0,0,0,0,0s0,0,0,0Zm8.33,9.4h1l.06-.05V50.2c0-.18,0-.35,0-.52a1.75,1.75,0,0,0,0-.51H21l-.06,0v.5a2.1,2.1,0,0,1,0,.5h-1l-.06.05v.49a1.75,1.75,0,0,0,0,.51h.7a2.25,2.25,0,0,1,.26,0s0,0,.06,0ZM8.34,82.64a14.3,14.3,0,0,0,0-2.07h-1a14.25,14.25,0,0,0,0,2.07Zm3.17,33.5V117a.34.34,0,0,0,0,.1s0,0,.05.06h.75c.08,0,.18,0,.24,0v-.94s0,0-.05,0Z"/></g></g></svg>