<svg xmlns="http://www.w3.org/2000/svg" viewBox="0 0 101.29 101.29"><title>Recurso 59MANDALA</title><g id="Capa_2" data-name="Capa 2"><g id="Capa_1-2" data-name="Capa 1"><path d="M29.59,46l2.31,8.62-20.66.59A11.31,11.31,0,0,1,0,46.85H0Z"/><path d="M43.28,41.47h0l-29.59.84-2.31-8.63L32,33.1A11.3,11.3,0,0,1,43.28,41.47Z"/><path d="M30.1,57.16l6.31,6.32L18.81,74.32A11.3,11.3,0,0,1,4.89,72.68h0Z"/><path d="M39.68,46.38h0L14.47,61.9,8.16,55.59l17.6-10.84A11.3,11.3,0,0,1,39.68,46.38Z"/><path d="M36.11,66.56l8.63,2.31L34.91,87.06A11.31,11.31,0,0,1,22,92.61h0Z"/><path d="M39,52.43h0L25,78.48l-8.63-2.31L26.15,58A11.31,11.31,0,0,1,39,52.43Z"/><path d="M46,71.7l8.62-2.31.59,20.66a11.31,11.31,0,0,1-8.38,11.24h0Z"/><path d="M41.47,58h0l.84,29.59-8.63,2.31L33.1,69.25A11.3,11.3,0,0,1,41.47,58Z"/><path d="M57.16,71.19l6.32-6.31,10.84,17.6A11.3,11.3,0,0,1,72.68,96.4h0Z"/><path d="M46.38,61.61h0L61.9,86.82l-6.31,6.31L44.75,75.53A11.3,11.3,0,0,1,46.38,61.61Z"/><path d="M66.56,65.18l2.31-8.63,18.19,9.83a11.31,11.31,0,0,1,5.55,12.87h0Z"/><path d="M52.43,62.27h0L78.48,76.34,76.17,85,58,75.14A11.31,11.31,0,0,1,52.43,62.27Z"/><path d="M71.7,55.27l-2.31-8.62,20.66-.59a11.31,11.31,0,0,1,11.24,8.38h0Z"/><path d="M58,59.82h0L87.6,59l2.31,8.63-20.66.58A11.3,11.3,0,0,1,58,59.82Z"/><path d="M71.19,44.13l-6.31-6.32L82.48,27A11.3,11.3,0,0,1,96.4,28.61h0Z"/><path d="M61.61,54.91h0L86.82,39.39l6.31,6.31L75.53,56.54A11.31,11.31,0,0,1,61.61,54.91Z"/><path d="M65.18,34.73l-8.63-2.32,9.83-18.18A11.31,11.31,0,0,1,79.25,8.68h0Z"/><path d="M62.27,48.85h0l14.07-26L85,25.12,75.14,43.31A11.3,11.3,0,0,1,62.27,48.85Z"/><path d="M55.27,29.59,46.65,31.9l-.59-20.66A11.31,11.31,0,0,1,54.44,0h0Z"/><path d="M59.82,43.28h0L59,13.69l8.63-2.31L68.19,32A11.3,11.3,0,0,1,59.82,43.28Z"/><path d="M44.13,30.1l-6.32,6.31L27,18.81A11.3,11.3,0,0,1,28.61,4.89h0Z"/><path d="M54.91,39.68h0L39.39,14.47,45.7,8.16l10.84,17.6A11.31,11.31,0,0,1,54.91,39.68Z"/><path d="M34.73,36.11l-2.32,8.63L14.23,34.91A11.31,11.31,0,0,1,8.68,22h0Z"/><path d="M48.85,39h0L22.81,25l2.31-8.63,18.19,9.83A11.3,11.3,0,0,1,48.85,39Z"/></g></g></svg>