<svg xmlns="http://www.w3.org/2000/svg" viewBox="0 0 96.83 96.83"><title>Recurso 54MANDALA</title><g id="Capa_2" data-name="Capa 2"><g id="Capa_1-2" data-name="Capa 1"><path d="M26.6,85h0c.68,5.44,2.82,10.87,8.55,9.85a28.21,28.21,0,0,0,13.26-7.14A64.15,64.15,0,0,0,51,57.56c-1.8-13-10.39-21.91-16.21-21.79h0C44.13,46.55,47.35,62.31,45,76.38,39.34,83.14,32.44,85.91,26.6,85Z"/><path d="M47.82,91h0c3.31,4.37,7.88,8,12.33,4.25a28.22,28.22,0,0,0,7.91-12.81A64.2,64.2,0,0,0,55.22,55c-8.08-10.39-20-13.78-24.93-10.76h0C43.77,48.94,54.44,61,59.43,74.35,57.91,83,53.33,88.87,47.82,91Z"/><path d="M69.2,85.61h0c5,2.13,10.82,3,12.81-2.48a28.24,28.24,0,0,0,.44-15A64,64,0,0,0,57.62,50.76c-12.19-5-24.17-2-27,3.14h0c14-2.71,29.26,2.39,40.27,11.47C74,73.64,72.9,81,69.2,85.61Z"/><path d="M85,70.24h0c5.44-.68,10.87-2.83,9.85-8.56a28.3,28.3,0,0,0-7.14-13.26,64.15,64.15,0,0,0-30.16-2.58c-13,1.8-21.91,10.39-21.79,16.21h0c10.78-9.35,26.54-12.57,40.61-10.2C83.14,57.5,85.91,64.39,85,70.24Z"/><path d="M91,49h0c4.37-3.31,8-7.89,4.25-12.34a28.22,28.22,0,0,0-12.81-7.91A64.22,64.22,0,0,0,55,41.62c-10.39,8.07-13.78,20-10.76,24.93h0C48.94,53.06,61,42.39,74.35,37.41,83,38.92,88.87,43.5,91,49Z"/><path d="M85.61,27.64h0c2.13-5.06,3-10.83-2.48-12.82a28.34,28.34,0,0,0-15-.44A64,64,0,0,0,50.76,39.21c-5,12.19-2,24.17,3.14,27h0c-2.71-14,2.39-29.26,11.47-40.26C73.64,22.88,81,23.93,85.61,27.64Z"/><path d="M70.24,11.82h0C69.56,6.38,67.41,1,61.68,2A28.3,28.3,0,0,0,48.42,9.11a64.19,64.19,0,0,0-2.58,30.17c1.8,13,10.39,21.91,16.21,21.78h0c-9.35-10.77-12.57-26.54-10.2-40.6C57.5,13.69,64.39,10.92,70.24,11.82Z"/><path d="M49,5.82h0c-3.31-4.38-7.89-8-12.34-4.26a28.22,28.22,0,0,0-7.91,12.81A64.16,64.16,0,0,0,41.62,41.79c8.07,10.39,20,13.78,24.93,10.76h0c-13.49-4.66-24.16-16.7-29.14-30.06C38.92,13.8,43.5,8,49,5.82Z"/><path d="M27.64,11.22h0c-5.06-2.13-10.83-3-12.82,2.49a28.33,28.33,0,0,0-.44,15.05A64.23,64.23,0,0,0,39.21,46.08c12.19,5,24.17,2,27-3.15h0c-14,2.71-29.26-2.39-40.26-11.47C22.88,23.19,23.93,15.84,27.64,11.22Z"/><path d="M11.82,26.6h0C6.38,27.28,1,29.42,2,35.15A28.21,28.21,0,0,0,9.11,48.41,64.19,64.19,0,0,0,39.28,51c13-1.8,21.91-10.39,21.78-16.21h0C50.29,44.13,34.52,47.35,20.46,45,13.69,39.34,10.92,32.44,11.82,26.6Z"/><path d="M5.82,47.82h0c-4.38,3.31-8,7.88-4.26,12.33a28.22,28.22,0,0,0,12.81,7.91A64.14,64.14,0,0,0,41.79,55.22c10.39-8.08,13.78-20,10.76-24.93h0c-4.66,13.48-16.7,24.15-30.06,29.14C13.8,57.91,8,53.33,5.82,47.82Z"/><path d="M11.22,69.2h0c-2.13,5-3,10.82,2.49,12.81a28.23,28.23,0,0,0,15.05.44A64.23,64.23,0,0,0,46.08,57.62c5-12.19,2-24.17-3.15-27h0c2.71,14-2.39,29.26-11.47,40.27C23.19,74,15.84,72.9,11.22,69.2Z"/></g></g></svg>