<svg xmlns="http://www.w3.org/2000/svg" viewBox="0 0 109.54 109.54"><title>Recurso 57MANDALA</title><g id="Capa_2" data-name="Capa 2"><g id="Capa_1-2" data-name="Capa 1"><path d="M0,59.6H0A19,19,0,0,0,10.57,76.65l15.66,7.78,15.66-7.78A19,19,0,0,0,52.46,59.6h0l-26.23,13Z"/><path d="M9.75,86.34h0a19.06,19.06,0,0,0,17.68,9.48l17.45-1.09,9.67-14.57a19,19,0,0,0,.63-20h0L39,84.5Z"/><path d="M31.57,104.62h0a19,19,0,0,0,20-.63l14.56-9.67,1.1-17.45A19,19,0,0,0,57.8,59.19h0L56,88.42Z"/><path d="M59.6,109.54h0A19,19,0,0,0,76.65,99l7.78-15.66L76.65,67.65A19,19,0,0,0,59.6,57.08h0l13,26.23Z"/><path d="M86.34,99.79h0a19,19,0,0,0,9.48-17.68L94.73,64.66,80.16,55a19,19,0,0,0-20-.63h0L84.5,70.56Z"/><path d="M104.62,78h0A19,19,0,0,0,104,57.93L94.32,43.36,76.87,42.27a19,19,0,0,0-17.68,9.48h0l29.23,1.83Z"/><path d="M109.54,49.94h0A19,19,0,0,0,99,32.89L83.31,25.12,67.65,32.89a19,19,0,0,0-10.57,17h0l26.23-13Z"/><path d="M99.79,23.2h0a19,19,0,0,0-17.68-9.48l-17.45,1.1L55,29.38a19,19,0,0,0-.63,20.05h0L70.56,25Z"/><path d="M78,4.92h0a19,19,0,0,0-20.05.63L43.36,15.23,42.27,32.68a19,19,0,0,0,9.48,17.68h0l1.83-29.23Z"/><path d="M49.94,0h0a19,19,0,0,0-17,10.57L25.12,26.23l7.77,15.66a19,19,0,0,0,17,10.57h0l-13-26.23Z"/><path d="M23.2,9.75h0a19.06,19.06,0,0,0-9.48,17.68l1.1,17.45,14.56,9.67a19,19,0,0,0,20.05.63h0L25,39Z"/><path d="M4.92,31.57h0a19,19,0,0,0,.63,20l9.68,14.56,17.45,1.1A19.06,19.06,0,0,0,50.36,57.8h0L21.13,56Z"/></g></g></svg>