<svg xmlns="http://www.w3.org/2000/svg" viewBox="0 0 158.03 116.39"><title>Recurso 153GRAPHS</title><g id="Capa_2" data-name="Capa 2"><g id="Capa_1-2" data-name="Capa 1"><path d="M11.36,106.62v-.91l.28-.28H14V91H11.65l-.48-.72.82-.81h2V75.26c-.44,0-.88,0-1.32,0a1.6,1.6,0,0,1-1.37-.53v-.67l.65-.43a2.38,2.38,0,0,0,2-.12V59.36H11.66L11.33,59v-.83a6,6,0,0,1,2.7-.33V43.46H11.72a.86.86,0,0,1-.35-1.06l.75-.46H14V27.76c-.83-.2-1.75.17-2.58-.26L11.16,27l.43-.73H14V11.78a6.07,6.07,0,0,0-2,.16l-.68-.42V10.8l.75-.48h1.64a2.15,2.15,0,0,1,1.58.34A2.35,2.35,0,0,1,15.52,12v93.44H157.64c.14.13.23.23.33.33v.63l-.52.52h-5.08a5.19,5.19,0,0,0,0,1.42,1.63,1.63,0,0,1-.56,1.33l-.65-.28c-.49-.75-.16-1.6-.3-2.43H123.87a6.28,6.28,0,0,0,0,1.38,1.45,1.45,0,0,1-.6,1.34l-.86-.49v-2.23h-27c-.24.84.29,1.89-.54,2.65-.48.21-.66-.21-1-.47v-2.18H66.67c0,.33,0,.7,0,1.07s0,.7,0,1.1l-.54.54-.67-.29c-.47-.74-.16-1.59-.29-2.42h-27c0,.33,0,.7,0,1.07s0,.7,0,1.1l-.66.49-.54-.24c-.48-.74-.15-1.59-.31-2.46h-1q-10.74,0-21.47,0A6.74,6.74,0,0,1,11.36,106.62Z"/><path d="M123.23,109.7h0l-.86-.49a.05.05,0,0,1,0,0V107H95.43a3.39,3.39,0,0,0-.05.91,1.94,1.94,0,0,1-.5,1.73h0c-.4.17-.62-.06-.83-.29a1.75,1.75,0,0,0-.2-.19.06.06,0,0,1,0,0V107H66.72v.25c0,.24,0,.51,0,.77v1.1a.08.08,0,0,1,0,0l-.53.54a.07.07,0,0,1-.06,0l-.67-.29a0,0,0,0,1,0,0,2.5,2.5,0,0,1-.28-1.55,6,6,0,0,0,0-.85H38.23v.25c0,.25,0,.51,0,.77s0,.48,0,.73v.37a.05.05,0,0,1,0,0l-.67.49a0,0,0,0,1,0,0l-.54-.23a0,0,0,0,1,0,0,2.47,2.47,0,0,1-.28-1.53,4.54,4.54,0,0,0,0-.9h-23a5.28,5.28,0,0,1-2.27-.28.05.05,0,0,1,0,0v-.91a0,0,0,0,1,0,0l.29-.29,0,0H14V91.07H11.65l0,0-.49-.73a0,0,0,0,1,0-.06l.82-.81h2V75.31h-.34c-.31,0-.62,0-.92,0a1.65,1.65,0,0,1-1.41-.54.05.05,0,0,1,0,0v-.67s0,0,0,0l.66-.44s0,0,0,0a2.38,2.38,0,0,0,2-.1V59.41H11.63l-.34-.34s0,0,0,0v-.83a.08.08,0,0,1,0,0,3.74,3.74,0,0,1,1.94-.32H14V43.51H11.69a.91.91,0,0,1-.37-1.11s0,0,0,0l.75-.46H14V27.8a3.75,3.75,0,0,0-1,0,3,3,0,0,1-1.54-.21l0,0L11.11,27v-.05l.44-.73,0,0H14V11.84h-.63A2.83,2.83,0,0,0,12,12h0l-.67-.43s0,0,0,0V10.8a.05.05,0,0,1,0,0l.74-.49H14a1.86,1.86,0,0,1,1.36.36h0A2.28,2.28,0,0,1,15.58,12q0,42.11,0,84.23v9.16H157.68l.33.33a.08.08,0,0,1,0,0v.63a.08.08,0,0,1,0,0l-.52.52h-5.08a4.36,4.36,0,0,0,0,1.08c0,.1,0,.19,0,.29a1.65,1.65,0,0,1-.58,1.36s0,0-.05,0l-.65-.28,0,0a2.6,2.6,0,0,1-.28-1.54,4.14,4.14,0,0,0,0-.86H123.91a4,4,0,0,0,0,1c0,.11,0,.22,0,.34a1.53,1.53,0,0,1-.63,1.38Zm-.81-.57.81.46a1.41,1.41,0,0,0,.55-1.28c0-.11,0-.23,0-.34a4.07,4.07,0,0,1,0-1,0,0,0,0,1,.05,0h26.95s.05,0,.05,0a4.82,4.82,0,0,1,0,.93,2.36,2.36,0,0,0,.25,1.46l.61.26a1.51,1.51,0,0,0,.51-1.26,2.62,2.62,0,0,0,0-.28,4.45,4.45,0,0,1,.06-1.15s0,0,.05,0h5.06l.49-.49v-.59l-.3-.3H15.52a0,0,0,0,1,0,0V12a2.28,2.28,0,0,0-.21-1.27A1.79,1.79,0,0,0,14,10.37H12.09l-.7.46v.66l.63.39a2.89,2.89,0,0,1,1.32-.15,5.14,5.14,0,0,0,.68,0h0l0,0V26.23a.06.06,0,0,1-.06.05h-2.4l-.4.68.26.5a2.88,2.88,0,0,0,1.48.19A4.25,4.25,0,0,1,14,27.7a.06.06,0,0,1,.05.06V41.94A.06.06,0,0,1,14,42H12.13l-.71.43a.78.78,0,0,0,.32,1H14a.06.06,0,0,1,.05.06v14.4a0,0,0,0,1-.05,0,6.94,6.94,0,0,1-.79,0,3.77,3.77,0,0,0-1.86.3V59l.31.31H14a0,0,0,0,1,.05,0V73.52a.05.05,0,0,1,0,0A2.45,2.45,0,0,1,12,73.7l-.61.4v.62a1.5,1.5,0,0,0,1.31.49c.31,0,.62,0,.93,0H14a0,0,0,0,1,.05.05V89.49a0,0,0,0,1-.05.05H12l-.77.76.44.67H14a0,0,0,0,1,.05,0v14.41a.05.05,0,0,1-.05,0H11.67l-.26.25v.85a5.1,5.1,0,0,0,2.2.27h23a.07.07,0,0,1,.06,0,5.3,5.3,0,0,1,0,1,2.44,2.44,0,0,0,.26,1.46l.49.22.62-.46V108c0-.26,0-.53,0-.77v-.3a.05.05,0,0,1,.05-.05h27a0,0,0,0,1,0,0,4.64,4.64,0,0,1,0,.91,2.43,2.43,0,0,0,.25,1.48l.62.27.49-.5V108c0-.27,0-.53,0-.78v-.29a.06.06,0,0,1,.06-.05H93.88a0,0,0,0,1,.05.05v2.15a1.62,1.62,0,0,1,.18.19c.21.22.38.4.71.26a1.88,1.88,0,0,0,.46-1.64,2.84,2.84,0,0,1,.06-1s0,0,0,0h27a0,0,0,0,1,0,.05Z"/><path d="M124.69,52.52l.37.66-.26.26h-3.48a3.14,3.14,0,0,1,.12-.61c.16-.38.36-.75.53-1.11-.28-.13-.57-.37-.74-.3-.33.12-.48-.36-.82-.12-.14.09-.46-.09-.7-.17s-.47-.2-.72-.28a7.41,7.41,0,0,1-.84-.24c-.23-.13-.59.08-.72-.28-.61.16-1.09-.49-1.71-.25-1-.33-2-.67-3-.91-.63-.15-1.27-.35-1.89-.47s-1.13-.34-1.69-.49c-1.07-.29-2.15-.55-3.22-.82-.41-.1-.79-.3-1.19-.41-.89-.22-1.79-.41-2.67-.63-.44-.12-.86-.31-1.3-.41-1.14-.26-2.25-.68-3.42-.85-.31-.05-.61-.16-1-.27l.32.87h-4l.86-1.77c-1.07-.38-2.12-.78-3.18-1.12S88.19,42,87.1,41.72s-2.08-.94-3.17-1.18-2.09-.92-3.22-1.1a29.41,29.41,0,0,1-3.11-1.09,25.75,25.75,0,0,1-3.2-1.11c-1.05-.44-2.14-.73-3.2-1.12s-2.12-.77-3.33-1.12l.25.79a2.1,2.1,0,0,0-.82,0,1,1,0,0,1-.94,0,3.18,3.18,0,0,0-1.12-.07c-.35,0-.69,0-1.11,0l.67-1.38c-.54-.09-1-.28-1.53-.33a5.83,5.83,0,0,1-1.94-.35.18.18,0,0,0-.09,0l-2.32-.21a17.66,17.66,0,0,1-2.74-.25,11,11,0,0,1-1.48-.2c-.47-.19-1,0-1.37-.21-.57-.27-1.17-.1-1.75-.34s-1.13,0-1.67-.26a23.86,23.86,0,0,1-3.16-.22c-.36,0-.71-.17-1.07-.18a4.64,4.64,0,0,1-1.17-.21c-.35-.1-.76.1-1.06-.22a6.38,6.38,0,0,1-1.8-.2c-.39-.07-.81.07-1.18-.22-.22-.17-.4.25-.69.09a2.3,2.3,0,0,0-.84-.1l.76,1.22H35.59a11.45,11.45,0,0,1,.9-1.93,4,4,0,0,0,.62-2.48c0-2.19,0-4.39,0-6.62H35.52l.09-.12L35,20.6l.89-.5L35.72,20h3.13c.52,0,.65.07,1.23.64l-.34.4H38v7.85l.45.9a15.75,15.75,0,0,1,2.34.29c.51.13,1,.06,1.49.21s1,0,1.48.21a7.72,7.72,0,0,0,2,.18c.39,0,.78.13,1.17.21s.77-.07,1.19.17.89.07,1.37.21a13.35,13.35,0,0,0,2.2.25c.33,0,.64.14,1,.2s.62-.12.88.18c.07.07.27.05.4,0a14,14,0,0,1,3.16.25,8.14,8.14,0,0,1,1.47.21c.51.13,1,.09,1.49.19.92.19,1.86.25,2.75.45s1.69,0,2.6.2a2.84,2.84,0,0,0,.19-.7c0-2.69,0-5.37,0-8.13h-2l.24-.82h4.35l-.1.1.5.19V24l-.55.15.16.19H66.69c0,2.67-.1,5.3-.16,7.94,0,0,0,0-.07.07.21.43.43.85.64,1.29,1.15.41,2.33.85,3.52,1.26,2.14.74,4.31,1.39,6.41,2.23,1.44.57,3,.94,4.37,1.59a19.37,19.37,0,0,0,2.57.86c.74.23,1.4.77,2.24.66a8.16,8.16,0,0,0,2.06.83c.72.3,1.46.54,2.18.8a8.11,8.11,0,0,0,2.34.69,2.34,2.34,0,0,1,.62.26c.18.08.37.13.62.22V35.48H92.51l-.29-.57.5-.5h4l.34.69-.33.35H95.16v7.22l.47.93c.38.38,1,.25,1.52.39s1.13.35,1.7.48a26.64,26.64,0,0,0,2.67.65,11.61,11.61,0,0,1,2.13.65,11.29,11.29,0,0,0,1.52.39c.8.15,1.58.39,2.36.61s1.62.48,2.45.67a9.88,9.88,0,0,1,2.34.67,7.26,7.26,0,0,0,2,.53c1.16.21,2.27.61,3.4.9.13,0,.24.17.35.15a6.16,6.16,0,0,1,2.2.52c.73.18,1.45.4,2.18.61l.33-.64c0,.06,0,0,0,0s-.17-.23-.17-.35c0-2,0-4,0-6H121.2l.12-.16-.88-.53.64-.27-.09-.11h4.13l.47.39-.59.66h-1.35v6.45c.17,1,1,1.08,1.58,1.26s1.52.36,2.26.63c.45.17,1,.06,1.48.22,1.11.36,2.25.63,3.39.92.16,0,.31.15.46.14a14.37,14.37,0,0,1,2.51.53,5.06,5.06,0,0,1,.85.22c.28.09.54.23.82.3s.56-.09.75.21c.26-.38.53,0,.76,0,.64.09,1.24.38,1.88.49a9,9,0,0,0,2.4.54,2.41,2.41,0,0,1,1,.23c1,.34,2,.62,3.09.87.13,0,.25.15.36.14,1.2-.11,2.23.62,3.39.68.11,0,.21.14.39.26a4.13,4.13,0,0,0,.29-1c0-1.43,0-2.85,0-4.24l-.26-.26c-.56-.24-1.25.23-1.69-.22l.67-.67h3.68c.25.2.46.42.25.82h-1.48l-.3.29v4.61a31.13,31.13,0,0,1,1.52,3.24h-4.12l.91-1.61c-.12-.31-.31-.53-.62-.43s-.51-.4-.77,0a5.07,5.07,0,0,0-.79-.36c-.26-.07-.61.06-.81-.07a2.11,2.11,0,0,0-.86-.2c-.28-.06-.53-.24-.81-.33a6.33,6.33,0,0,0-1.14-.28,24.92,24.92,0,0,1-3-.69c-.7-.16-1.37-.46-2.07-.56-1-.14-2-.48-3-.7-.41-.09-.8-.29-1.21-.35a26.06,26.06,0,0,1-3.34-.78,11.06,11.06,0,0,0-2.31-.51,10.94,10.94,0,0,1-2-.5c-.31-.09-.61-.22-.91-.31s-.62-.27-.85-.19-.58-.42-.89,0a1.93,1.93,0,0,1-.38-.22Z"/><path d="M153.66,60.6h-4.12l0,0a.06.06,0,0,1,0-.06l.9-1.59c-.13-.33-.31-.45-.55-.37a.43.43,0,0,1-.36-.08c-.15-.09-.25-.14-.38,0a0,0,0,0,1-.06,0l-.24-.12a2.42,2.42,0,0,0-.55-.24,1,1,0,0,0-.35,0,.74.74,0,0,1-.47-.07,1,1,0,0,0-.56-.15l-.29,0a2,2,0,0,1-.46-.18l-.34-.15-.08,0a5.56,5.56,0,0,0-1-.26,10.29,10.29,0,0,1-1.94-.42l-1-.27c-.29-.07-.58-.16-.86-.25a7.38,7.38,0,0,0-1.21-.3,15.84,15.84,0,0,1-1.81-.42l-1.15-.29a5,5,0,0,1-.55-.16,2.94,2.94,0,0,0-.66-.19,26.8,26.8,0,0,1-3.34-.78l-.15,0a10.25,10.25,0,0,0-2.16-.47,6.73,6.73,0,0,1-1.46-.34l-.53-.16-.5-.17-.42-.14-.23-.08a1,1,0,0,0-.58-.11.49.49,0,0,1-.43-.09c-.17-.09-.29-.16-.44,0s-.1,0-.3-.11l-.11-.07,0,.06.36.64a.07.07,0,0,1,0,.06l-.26.25,0,0h-3.48l0,0a.06.06,0,0,1,0,0l0-.18a1.33,1.33,0,0,1,.09-.44c.12-.27.25-.54.38-.8l.13-.27a2.53,2.53,0,0,1-.23-.12c-.16-.09-.33-.19-.42-.16a.46.46,0,0,1-.43-.08c-.12-.08-.23-.15-.38,0s-.35,0-.57-.09l-.17-.07a3.84,3.84,0,0,1-.36-.14L119,50.9l-.33-.09a1.57,1.57,0,0,1-.52-.16.59.59,0,0,0-.27,0c-.17,0-.36,0-.46-.22a1.42,1.42,0,0,1-.81-.15,1.06,1.06,0,0,0-.85-.11h0l-.42-.14c-.83-.28-1.69-.56-2.55-.77L112,49c-.37-.1-.75-.2-1.12-.27a8.84,8.84,0,0,1-1.07-.3l-.63-.19-2.26-.58-1-.24a6,6,0,0,1-.6-.2,4.1,4.1,0,0,0-.59-.2l-1.38-.34-1.29-.3-.6-.2a6,6,0,0,0-.69-.21c-.46-.1-.91-.23-1.35-.36a15.6,15.6,0,0,0-2.07-.49A5.09,5.09,0,0,1,96.7,45l-.31-.09.29.78a0,0,0,0,1,0,0s0,0-.05,0h-4l0,0a0,0,0,0,1,0,0L93.43,44l-.93-.33c-.72-.27-1.46-.54-2.2-.77L89,42.4c-.62-.22-1.27-.45-1.93-.63a10.72,10.72,0,0,1-1.46-.56,9.63,9.63,0,0,0-1.7-.62,8.27,8.27,0,0,1-1.52-.53,7.65,7.65,0,0,0-1.69-.57,7.55,7.55,0,0,1-1.83-.6,9.52,9.52,0,0,0-1.29-.49,27.08,27.08,0,0,1-3.21-1.11c-.61-.26-1.25-.47-1.87-.67-.44-.14-.89-.29-1.33-.45-1-.36-2-.74-3.23-1.09l.22.7a.06.06,0,0,1,0,0,0,0,0,0,1,0,0l-.27,0a1,1,0,0,0-.52,0,1.09,1.09,0,0,1-1,0,1.76,1.76,0,0,0-.77-.08H64.13a.05.05,0,0,1,0,0,0,0,0,0,1,0,0l.64-1.31-.58-.14a5.08,5.08,0,0,0-.88-.18h-.21a5.19,5.19,0,0,1-1.74-.35h0l-.06,0-.53,0-1.79-.16-.85,0a10,10,0,0,1-1.89-.21,3.7,3.7,0,0,0-.66-.07,2.53,2.53,0,0,1-.83-.13,1.89,1.89,0,0,0-.7-.1,1.71,1.71,0,0,1-.68-.11,2.37,2.37,0,0,0-.87-.18,2.49,2.49,0,0,1-.87-.17,1.93,1.93,0,0,0-.74-.09,2.07,2.07,0,0,1-.92-.15,6.44,6.44,0,0,1-1.81-.1,8.56,8.56,0,0,0-1.34-.12h0a2.13,2.13,0,0,1-.56-.1,2.1,2.1,0,0,0-.5-.09,4.93,4.93,0,0,1-1.19-.21,1.46,1.46,0,0,0-.37,0,.81.81,0,0,1-.69-.19A4.55,4.55,0,0,1,42,31.19l-.36-.07c-.38-.07-.81.07-1.2-.23-.08-.06-.14,0-.26,0a.38.38,0,0,1-.43.05,1.22,1.22,0,0,0-.5-.08H39L39.75,32a0,0,0,0,1,0,0,.05.05,0,0,1,0,0H35.59l0,0s0,0,0-.05c.1-.21.18-.43.27-.63a5.69,5.69,0,0,1,.64-1.31,3.91,3.91,0,0,0,.6-2.45c0-1.56,0-3.15,0-4.7V21.09H35.52a.09.09,0,0,1-.05,0,.13.13,0,0,1,0-.06l.05-.07-.59-.28a.06.06,0,0,1,0-.1l.83-.46-.09-.1a0,0,0,0,1,0-.06.05.05,0,0,1,0,0h3.13c.53,0,.67.08,1.27.66a0,0,0,0,1,0,.07l-.34.4,0,0H38v7.78l.44.87.65.05a9.6,9.6,0,0,1,1.67.24,3.45,3.45,0,0,0,.71.09,3.18,3.18,0,0,1,.77.12,2.82,2.82,0,0,0,.75.1,2.25,2.25,0,0,1,.74.11,4,4,0,0,0,1.31.16c.23,0,.46,0,.69,0a9.09,9.09,0,0,1,.91.15l.27.06a2.75,2.75,0,0,0,.41,0,1.46,1.46,0,0,1,.8.15,1.54,1.54,0,0,0,.7.13,2.82,2.82,0,0,1,.65.08,6.84,6.84,0,0,0,1.43.19c.25,0,.52,0,.77.06a4.25,4.25,0,0,1,.62.12l.34.08a1.38,1.38,0,0,0,.29,0,.66.66,0,0,1,.62.18s.11.05.35,0a7.47,7.47,0,0,1,2.17.12l1,.12a9.71,9.71,0,0,1,1.49.21,4.53,4.53,0,0,0,.81.12,3.83,3.83,0,0,1,.67.08c.43.09.88.15,1.3.21s1,.13,1.46.24a6.81,6.81,0,0,0,1.36.12,7.94,7.94,0,0,1,1.18.07l.08-.21a1.55,1.55,0,0,0,.1-.43c0-2.14,0-4.23,0-6.44V24.41H63.63a.05.05,0,0,1,0,0,.07.07,0,0,1,0-.05l.24-.81a.07.07,0,0,1,0,0h4.35s0,0,0,0,0,.05,0,.06l0,0,.42.16a.07.07,0,0,1,0,0V24a0,0,0,0,1,0,0l-.47.13.11.13a0,0,0,0,1,0,.05,0,0,0,0,1,0,0H66.74v.25c0,2.57-.09,5.1-.14,7.64,0,0,0,.06-.06.08l.61,1.24,1,.38c.8.29,1.62.59,2.45.87s1.42.49,2.12.72c1.42.47,2.88.95,4.29,1.51.6.24,1.23.45,1.84.65.84.28,1.7.57,2.53.94a15.22,15.22,0,0,0,2,.69l.56.17a4.93,4.93,0,0,1,.72.29,2.7,2.7,0,0,0,1.5.37h0a4,4,0,0,0,1.31.58,6.44,6.44,0,0,1,.74.25c.52.21,1,.4,1.57.58l.61.21.51.2a5.65,5.65,0,0,0,1.81.49,1,1,0,0,1,.43.16,1,1,0,0,0,.21.1l.39.14L94,43V35.53H92.51a.05.05,0,0,1-.05,0l-.29-.57s0,0,0-.06l.51-.49,0,0h4a.05.05,0,0,1,0,0l.34.68s0,0,0,.06l-.33.35a.05.05,0,0,1,0,0H95.22v7.16l.45.91a1.41,1.41,0,0,0,.92.29,2.89,2.89,0,0,1,.58.08l.62.19c.35.1.71.21,1.07.29l1,.26a13.55,13.55,0,0,0,1.7.39,7.93,7.93,0,0,1,1.63.46l.51.19a10,10,0,0,0,1.51.38c.66.13,1.31.32,1.94.5l.42.12.62.18c.6.17,1.22.35,1.83.49l.5.11a7.42,7.42,0,0,1,1.85.56,7.11,7.11,0,0,0,1.86.52h.1a22.34,22.34,0,0,1,2.21.57l1.2.33a.8.8,0,0,1,.16.08c.07,0,.12.08.17.07a3.29,3.29,0,0,1,1.53.29,6.2,6.2,0,0,0,.69.23c.5.13,1,.27,1.51.42l.62.17.3-.56-.06-.08a.66.66,0,0,1-.11-.26V43.91H121.2l0,0a0,0,0,0,1,0-.06l.08-.11-.83-.51a.05.05,0,0,1,0-.05l0,0,.57-.24,0-.05s0,0,0-.06a.06.06,0,0,1,0,0h4.16l.47.39a.05.05,0,0,1,0,0,.06.06,0,0,1,0,0l-.59.65,0,0h-1.3v6.4c.14.83.74,1,1.31,1.15l.24.06q.45.14.9.24a13.89,13.89,0,0,1,1.36.39,2.09,2.09,0,0,0,.72.11,3.32,3.32,0,0,1,.75.11c1,.33,2.09.59,3.12.85l.27.07a.8.8,0,0,1,.2.07.59.59,0,0,0,.24.07h0a5.17,5.17,0,0,1,1.52.28,6.63,6.63,0,0,0,1,.24,4.57,4.57,0,0,1,.86.23l.35.13a2.54,2.54,0,0,0,.46.17.93.93,0,0,0,.24,0,.54.54,0,0,1,.5.15c.2-.23.41-.1.57,0a.69.69,0,0,0,.2.09,6.71,6.71,0,0,1,1,.25,7,7,0,0,0,.9.24,5.88,5.88,0,0,1,.91.26,3.52,3.52,0,0,0,1.48.28,1.8,1.8,0,0,1,.79.16l.18.07c1,.32,2,.61,3.08.87l.17.07a.28.28,0,0,0,.18.06,4.94,4.94,0,0,1,1.91.35,6.24,6.24,0,0,0,1.48.34.56.56,0,0,1,.26.14l.1.08c0-.1.07-.19.1-.28a2.07,2.07,0,0,0,.17-.62c0-1,0-2.12,0-3.14V52.76l-.24-.24a1.54,1.54,0,0,0-.74,0,1.06,1.06,0,0,1-1-.19.05.05,0,0,1,0,0l0,0,.67-.68h3.76c.25.21.49.45.26.88a.05.05,0,0,1-.05,0h-1.46l-.26.26V57.3c.17.39.37.77.57,1.15a13.15,13.15,0,0,1,.94,2.08.07.07,0,0,1,0,0A0,0,0,0,1,153.66,60.6Zm-4-.1h4a12.54,12.54,0,0,0-.9-2c-.2-.38-.41-.77-.58-1.17V52.7s0,0,0,0l.29-.3h1.49c.16-.34,0-.53-.24-.72H150l-.62.62a1,1,0,0,0,.84.13,1.46,1.46,0,0,1,.8,0h0l.26.26a.06.06,0,0,1,0,0v1.1c0,1,0,2.09,0,3.14a1.79,1.79,0,0,1-.17.65L151,58a0,0,0,0,1,0,0,0,0,0,0,1-.05,0l-.17-.13c-.08-.06-.14-.11-.19-.11a6.27,6.27,0,0,1-1.51-.35,4.6,4.6,0,0,0-1.87-.34A.44.44,0,0,1,147,57a.42.42,0,0,0-.14-.06c-1.11-.27-2.12-.56-3.09-.88l-.19-.07a1.8,1.8,0,0,0-.74-.16,3.72,3.72,0,0,1-1.53-.28,5.65,5.65,0,0,0-.89-.26,6.75,6.75,0,0,1-.91-.24,6.58,6.58,0,0,0-1-.25.82.82,0,0,1-.24-.1c-.19-.12-.32-.18-.47,0l0,0-.05,0c-.11-.18-.26-.18-.44-.17a.88.88,0,0,1-.28,0,2.64,2.64,0,0,1-.47-.17,2.37,2.37,0,0,0-.34-.13,4.63,4.63,0,0,0-.85-.22,7.09,7.09,0,0,1-1-.25,5.32,5.32,0,0,0-1.43-.27h-.06a.69.69,0,0,1-.3-.09.85.85,0,0,0-.17-.06l-.28-.07c-1-.26-2.09-.52-3.12-.85a2.62,2.62,0,0,0-.73-.1,2.67,2.67,0,0,1-.75-.12,13,13,0,0,0-1.35-.39l-.9-.24-.24-.06c-.58-.16-1.23-.33-1.38-1.24V43.84a.06.06,0,0,1,.05-.06H125l.54-.59-.41-.34h-4s0,0,0,0,0,0,0,0l-.55.23.79.48s0,0,0,0a.08.08,0,0,1,0,0l-.06.07h1.27a0,0,0,0,1,.05,0V45c0,1.68,0,3.26,0,4.88a.39.39,0,0,0,.09.2.35.35,0,0,1,0,.08,0,0,0,0,1,0,.06h0a.07.07,0,0,1,0,.06h0l-.3.57a.06.06,0,0,1-.06,0l-.66-.19c-.49-.15-1-.29-1.51-.42a5.08,5.08,0,0,1-.69-.23,3.28,3.28,0,0,0-1.49-.29.34.34,0,0,1-.23-.08l-.14-.07c-.4-.1-.81-.22-1.2-.33a19.67,19.67,0,0,0-2.2-.56l-.1,0a7,7,0,0,1-1.88-.53,7.62,7.62,0,0,0-1.84-.55l-.49-.1c-.62-.15-1.24-.33-1.84-.5l-.61-.18-.43-.12c-.63-.18-1.28-.37-1.93-.49a11.46,11.46,0,0,1-1.52-.39l-.52-.19a7.58,7.58,0,0,0-1.61-.46,13.55,13.55,0,0,1-1.7-.39l-1-.26c-.36-.08-.73-.19-1.08-.29L97.14,44a5,5,0,0,0-.56-.08,1.49,1.49,0,0,1-1-.32v0l-.46-.93V35.45a.05.05,0,0,1,0-.05h1.53l.29-.31-.31-.62H92.75l-.47.45.26.51H94a0,0,0,0,1,0,0v7.59a.05.05,0,0,1,0,0h0L93.79,43l-.4-.14-.22-.11a1.07,1.07,0,0,0-.38-.15,5.82,5.82,0,0,1-1.85-.49l-.51-.2-.61-.21c-.52-.18-1-.37-1.57-.59a5.67,5.67,0,0,0-.73-.24,4.24,4.24,0,0,1-1.33-.58A2.91,2.91,0,0,1,84.65,40a4.7,4.7,0,0,0-.7-.29l-.56-.17a15.5,15.5,0,0,1-2-.69,23.81,23.81,0,0,0-2.51-.94c-.61-.2-1.24-.41-1.85-.65-1.41-.56-2.87-1-4.28-1.51L70.6,35c-.82-.28-1.65-.58-2.44-.87l-1.07-.39s0,0,0,0l-.64-1.29a0,0,0,0,1,0-.06l0,0,0,0c0-2.52.09-5.05.14-7.62v-.3a.06.06,0,0,1,.06-.05h1.43L68,24.21a.09.09,0,0,1,0-.05l0,0,.51-.13v-.12l-.47-.18s0,0,0,0a0,0,0,0,1,0,0H63.91l-.21.71h1.89a0,0,0,0,1,0,.05v1.69c0,2.21,0,4.3,0,6.44a1.34,1.34,0,0,1-.11.46c0,.08,0,.17-.08.26s0,0-.06,0a10.1,10.1,0,0,0-1.21-.08A6.53,6.53,0,0,1,62.78,33c-.47-.11-1-.17-1.44-.24s-.87-.12-1.31-.21a6.62,6.62,0,0,0-.66-.08,4.85,4.85,0,0,1-.83-.11,8.27,8.27,0,0,0-1.47-.21c-.34,0-.67-.08-1-.13a8.11,8.11,0,0,0-2.15-.12c-.17,0-.36,0-.44-.05a.58.58,0,0,0-.53-.15,1.14,1.14,0,0,1-.32,0l-.35-.08c-.2-.05-.4-.1-.6-.13s-.51,0-.76-.06a6,6,0,0,1-1.46-.19,2.19,2.19,0,0,0-.62-.07,1.84,1.84,0,0,1-.76-.15,1.38,1.38,0,0,0-.74-.14,1.55,1.55,0,0,1-.43,0l-.27,0c-.3-.06-.6-.12-.9-.15a5.08,5.08,0,0,0-.68,0,4,4,0,0,1-1.35-.16,2.24,2.24,0,0,0-.7-.1,3.49,3.49,0,0,1-.78-.11,2.56,2.56,0,0,0-.75-.11,3.76,3.76,0,0,1-.73-.1,9.23,9.23,0,0,0-1.65-.23l-.68-.06s0,0,0,0l-.45-.9V21a.06.06,0,0,1,0-.06h1.74l.3-.34c-.54-.53-.67-.59-1.16-.59q-1.11,0-2.22,0h-.8l.06.06a.06.06,0,0,1,0,0s0,0,0,0l-.79.45.55.26a0,0,0,0,1,0,0s0,0,0,.05l0,0H37.1a0,0,0,0,1,0,.05V23c0,1.54,0,3.13,0,4.69a4.07,4.07,0,0,1-.63,2.51,6.72,6.72,0,0,0-.63,1.29l-.23.56h3.94l-.72-1.14a.06.06,0,0,1,0-.06,0,0,0,0,1,0,0h.31a1.18,1.18,0,0,1,.55.09.3.3,0,0,0,.33-.05c.11-.06.24-.14.38,0,.34.27.74.13,1.15.21l.37.07a4.42,4.42,0,0,0,1.41.12l.05,0a.72.72,0,0,0,.63.18,1.35,1.35,0,0,1,.4,0,4.68,4.68,0,0,0,1.16.21,2.35,2.35,0,0,1,.53.09,2,2,0,0,0,.53.09h0a9.52,9.52,0,0,1,1.32.13,6.69,6.69,0,0,0,1.79.09h0a1.94,1.94,0,0,0,.89.14,1.8,1.8,0,0,1,.78.11,2.77,2.77,0,0,0,.84.16,2.29,2.29,0,0,1,.91.19,1.58,1.58,0,0,0,.63.09,2.15,2.15,0,0,1,.74.11,2.52,2.52,0,0,0,.79.13,4,4,0,0,1,.69.07,9.63,9.63,0,0,0,1.86.2l.86.05,1.79.16.53.05a.19.19,0,0,1,.09,0h0a5,5,0,0,0,1.7.33l.22,0a6.23,6.23,0,0,1,.9.18c.21,0,.42.11.64.15,0,0,0,0,0,0a0,0,0,0,1,0,0l-.64,1.3h1.35a1.84,1.84,0,0,1,.82.08,1,1,0,0,0,.9,0,1.1,1.1,0,0,1,.57,0l.19,0L67.82,35a.07.07,0,0,1,0-.06,0,0,0,0,1,0,0c1.23.36,2.32.75,3.33,1.12.43.16.89.31,1.32.45.62.21,1.26.41,1.88.67a26.94,26.94,0,0,0,3.2,1.11,9.79,9.79,0,0,1,1.31.49,7.4,7.4,0,0,0,1.79.6,7.72,7.72,0,0,1,1.72.57,7.62,7.62,0,0,0,1.5.53,9.64,9.64,0,0,1,1.73.62,10.47,10.47,0,0,0,1.44.56c.66.18,1.31.41,1.94.63.42.15.85.31,1.28.45.74.23,1.49.51,2.21.77l1,.36,0,0V44l-.83,1.69h3.84l-.3-.81a0,0,0,0,1,0,0l0,0,.41.12a5.42,5.42,0,0,0,.64.16,16.13,16.13,0,0,1,2.08.49c.44.13.89.26,1.34.36a5.17,5.17,0,0,1,.7.21c.2.07.4.14.6.19l1.29.31,1.38.33a5.89,5.89,0,0,1,.59.21c.2.07.4.15.6.2l1,.24c.75.18,1.52.37,2.27.58l.63.19a9.22,9.22,0,0,0,1.06.3c.37.07.76.17,1.12.27l.77.2c.87.21,1.73.49,2.56.77l.41.13a1.19,1.19,0,0,1,.91.12,1.2,1.2,0,0,0,.78.14.06.06,0,0,1,.07,0c.07.19.21.19.38.19a.87.87,0,0,1,.32.06,1.87,1.87,0,0,0,.49.15,3.37,3.37,0,0,1,.34.09l.37.14a2.55,2.55,0,0,0,.35.14l.18.07c.17.07.39.16.47.1a.4.4,0,0,1,.5,0c.11.07.2.13.33.08s.31,0,.51.16l.27.14a0,0,0,0,1,0,0,0,0,0,0,1,0,0c0,.11-.1.21-.16.32s-.26.52-.37.79a1.87,1.87,0,0,0-.09.41s0,.08,0,.13h3.4l.22-.22-.36-.63s0,0,0,0l.08-.13a0,0,0,0,1,.07,0,.6.6,0,0,1,.15.09l.19.11c.2-.22.39-.11.55,0s.22.13.34.08a1.15,1.15,0,0,1,.66.11l.22.08a3.12,3.12,0,0,1,.43.15l.49.16.53.16a6.69,6.69,0,0,0,1.44.34,9.84,9.84,0,0,1,2.18.47l.15,0a26.63,26.63,0,0,0,3.33.78,3,3,0,0,1,.67.19,5.52,5.52,0,0,0,.54.16c.39.08.78.19,1.16.29a13.43,13.43,0,0,0,1.8.41,8.72,8.72,0,0,1,1.22.31c.28.09.56.18.85.25s.7.17,1,.27a11.12,11.12,0,0,0,1.92.42,5.57,5.57,0,0,1,1.07.26l.08,0a2.83,2.83,0,0,1,.36.16,2,2,0,0,0,.44.17,1.18,1.18,0,0,0,.27,0,1.22,1.22,0,0,1,.61.18.76.76,0,0,0,.41,0,1.59,1.59,0,0,1,.38,0,2.87,2.87,0,0,1,.57.24l.19.1c.18-.21.35-.11.49,0a.38.38,0,0,0,.28.07c.3-.09.53.06.69.46v0Z"/><path d="M39.37,53.86c-.09.08-.17.19-.24.19H35.46V50.57h1.61v-5H35.15l.22-.82h4.16l.5.49-.3.29c-.58.13-1.24-.21-1.78.28v4.74h1.22v2.34c.91.43,1.8.83,2.66,1.28,1.5.77,3,1.59,4.47,2.36a12.69,12.69,0,0,1,1.76.78,7,7,0,0,0,1.62.91c1,.38,1.88,1.18,3,1.37,1,.89,2.37,1.2,3.49,2,.65.45,1.51.59,2.19,1a16.46,16.46,0,0,1,2.9,1.61,8,8,0,0,1,2.6,1.29l.26-.44h1.45V62.31H64l.08-.12-.5-.3.39-.44h4.24l.34.36-.29.43H66.69V65h1v1.77a4.55,4.55,0,0,0,2.25,1,13.61,13.61,0,0,1,3,.94c.34.18.8-.1,1,.34a9.09,9.09,0,0,1,3.1.87c.61.22,1.27.25,1.87.52a19.48,19.48,0,0,0,2.12.7c1.18.36,2.37.69,3.54,1.05.31.09.61.23,1,.4.62-.17,1.28.27,1.95.5s1.41.47,2.1.72a10.93,10.93,0,0,1,1.61.42,1.68,1.68,0,0,0,1.37.2c.05,0,0-.3,0-.52h1c.53-.26.48-.64.42-1.06h-1.3l-.53-.53.27-.54h4.23l.35.38-.54.64H95.17v1l1,.06v.9c.1.06.16.12.21.12.43,0,.9.14,1.31-.13s.84.15,1.13-.29a3.93,3.93,0,0,0,1.28-.19A11.57,11.57,0,0,0,102,73.8a.47.47,0,0,1,.31,0,5.31,5.31,0,0,0,1.9-.24,4.16,4.16,0,0,0,1.72-.4,11.62,11.62,0,0,0,2.75-.45,11.68,11.68,0,0,0,3.31-.58c.52.13,1-.24,1.48-.23a2.69,2.69,0,0,0,.87-.17c.72-.21,1.5-.19,2.22-.45.26.35.5-.08.77,0a.63.63,0,0,0,.75-.19c1,0,2-.36,3-.45V68.8h1.47V66.09h-1.31l-.5-.6.24-.26h4.46c.19.34,0,.58-.27.83h-1.52v2.7h1v1.71c1.29.37,2.6.62,3.92,1l.13-.12a17,17,0,0,1,1.86.39c.81.26,1.67.3,2.47.61a2.91,2.91,0,0,0,1.38.22.87.87,0,0,1,.85.21c1.17,0,2.24.59,3.41.62,1.1.57,2.42.26,3.52.84a3.08,3.08,0,0,1,1.28.21c.42.08.93,0,1.25.24s.9,0,1.21.38c.33-.3.64.07,1,0a1.72,1.72,0,0,1,1.05.21c.36.24.72.13,1.08.2a2.06,2.06,0,0,1,.5.31l.07-1.13h1.31l.34-.34V73.05l-.35-.31c-.36.1-.83-.19-1.21.2-.4-.23-.35-.6-.29-1h4.29l.28.28v.49h-1.53l-.32.32v1.59h1v3.54h-3.5V76.51a6.94,6.94,0,0,1-1.57-.2,6.77,6.77,0,0,1-1.58-.24,18.77,18.77,0,0,0-1.89-.49,8,8,0,0,1-2-.51c-.34.48-.63-.11-1,0s-.74-.25-1.17-.23-.65-.25-1-.35-.84-.06-1.27-.21a11.63,11.63,0,0,0-1.89-.26,4.75,4.75,0,0,1-1.05-.23c-.68-.29-1.41-.24-2.09-.53s-1.36-.21-2-.48c-1,.17-1.89-.38-2.86-.44a5.83,5.83,0,0,1-1.89-.47,3.22,3.22,0,0,0-.89-.14l-.65-.16-.31.76h-3.38l-.28-.8a2.83,2.83,0,0,1-.51.19,10.12,10.12,0,0,0-1.69.24c-.5.19-1,.15-1.52.36a12.55,12.55,0,0,1-1.68.26,32.05,32.05,0,0,0-3.32.58c-.46.17-1,.05-1.57.24-.93.33-2,.29-2.88.63a1.14,1.14,0,0,1-.32,0,7.92,7.92,0,0,0-2.35.39c-.49.14-1.06.06-1.58.24-.93.32-2,.22-2.88.62a1.17,1.17,0,0,1-.42,0c-1.11-.05-2.16.42-3.28.43-.2,0-.4.18-.71.33v1l-.32.31H92.65V75.82l-.56-.56a5.24,5.24,0,0,1-1.72-.38,6.69,6.69,0,0,1-1.75-.59c-.23-.14-.59.06-.72-.29-1.42,0-2.6-.85-4-1-.09,0-.18-.21-.23-.19-.69.19-1.2-.33-1.81-.45s-1.1-.43-1.67-.51a9.53,9.53,0,0,1-2-.62,15.93,15.93,0,0,0-2-.69A43.06,43.06,0,0,1,72,69.22c-.58-.18-1.22-.26-1.81-.46s-1.15-.42-1.74-.59a2.27,2.27,0,0,0-.69,0l-.08.32s0,.07-.08.07c-1.11,0-2.23,0-3.34,0-.11,0-.2-.18-.32-.28V66.37l-9-4.52c-1.41-.72-2.79-1.5-4.22-2.19-.88-.42-1.73-.89-2.59-1.34s-1.73-.86-2.6-1.29a25.19,25.19,0,0,1-2.61-1.27,22.65,22.65,0,0,0-2.61-1.3A8.79,8.79,0,0,1,39.37,53.86Z"/><path d="M153.13,78.21h-3.5a.06.06,0,0,1-.06,0V76.57a4.54,4.54,0,0,1-1.07-.13l-.45-.08-.53,0a3.75,3.75,0,0,1-1.06-.19,7,7,0,0,0-1.17-.32c-.23,0-.48-.1-.72-.17s-.48-.1-.72-.14a4.05,4.05,0,0,1-1.24-.35c-.22.29-.45.16-.63,0s-.23-.13-.34-.1A1.14,1.14,0,0,1,141,75a1.43,1.43,0,0,0-.55-.12,1.25,1.25,0,0,1-.63-.19,3.08,3.08,0,0,0-.38-.16,3.39,3.39,0,0,0-.57-.09,2.94,2.94,0,0,1-.7-.12,4,4,0,0,0-1.15-.18l-.73-.07-.12,0a4.31,4.31,0,0,1-.94-.23,5.24,5.24,0,0,0-1-.25,4.67,4.67,0,0,1-1.07-.27,4.3,4.3,0,0,0-1-.24,4.09,4.09,0,0,1-1-.24,3.94,3.94,0,0,1-1.71-.21,5.62,5.62,0,0,0-1.14-.23,5.54,5.54,0,0,1-1.91-.48,1.55,1.55,0,0,0-.54-.1l-.34,0-.4-.1-.21-.05-.29.72a.05.05,0,0,1-.05,0h-3.38a.05.05,0,0,1,0,0l-.26-.75-.16.06a1.15,1.15,0,0,1-.32.12l-.58,0a4.36,4.36,0,0,0-1.09.18,3,3,0,0,1-.71.16,3.31,3.31,0,0,0-.81.2,2.75,2.75,0,0,1-.95.17,3.65,3.65,0,0,0-.74.09,7.94,7.94,0,0,1-1.45.22,7,7,0,0,0-1.86.36,2.76,2.76,0,0,1-.77.12,2.79,2.79,0,0,0-.81.12,7,7,0,0,1-1.43.31,7.38,7.38,0,0,0-1.45.32.48.48,0,0,1-.24,0h-.09a7.88,7.88,0,0,0-2.33.39,4.57,4.57,0,0,1-.73.1,3,3,0,0,0-.85.14,6.77,6.77,0,0,1-1.34.27,5.54,5.54,0,0,0-1.54.35.72.72,0,0,1-.33,0h-.11a7.11,7.11,0,0,0-1.72.22,8,8,0,0,1-1.56.21,1.08,1.08,0,0,0-.4.17l-.26.14v1a.08.08,0,0,1,0,0l-.31.31,0,0H92.65a.06.06,0,0,1-.06-.06V75.84l-.52-.52a3.79,3.79,0,0,1-1.25-.24l-.46-.15L90,74.84a5.19,5.19,0,0,1-1.41-.51.72.72,0,0,0-.27,0,.42.42,0,0,1-.45-.22h0a6.11,6.11,0,0,1-2.25-.56,8.79,8.79,0,0,0-1.68-.5c-.06,0-.11-.07-.16-.13s0-.05-.06-.06a1.67,1.67,0,0,1-1.19-.22,3.2,3.2,0,0,0-.63-.23,4.37,4.37,0,0,1-.8-.25,4.33,4.33,0,0,0-.87-.25,8.23,8.23,0,0,1-1.73-.51l-.33-.12L77.58,71a9.44,9.44,0,0,0-1.42-.47,28.56,28.56,0,0,1-3.26-1L72,69.27a8.29,8.29,0,0,0-.86-.21,8.16,8.16,0,0,1-.94-.25l-.64-.22c-.36-.13-.73-.26-1.1-.37a1.4,1.4,0,0,0-.46,0h-.18l-.07.28a0,0,0,0,1,0,0s0,0,0,0-.05.06-.09.06h-.38c-1,0-2,0-3,0-.1,0-.17-.1-.25-.19l-.1-.11a.08.08,0,0,1,0,0V66.4l-2.59-1.3L54.9,61.9c-.59-.3-1.19-.62-1.76-.93-.8-.42-1.63-.86-2.46-1.26-.65-.32-1.3-.66-1.92-1l-.67-.36c-.65-.34-1.33-.66-2-1l-.63-.3-.84-.39a13.32,13.32,0,0,1-1.77-.89,15.41,15.41,0,0,0-1.94-1l-.66-.31a3.55,3.55,0,0,1-.59-.37l-.3-.2-.06,0a.38.38,0,0,1-.19.13H35.46a.06.06,0,0,1-.06,0V50.57a.06.06,0,0,1,.06,0H37V45.58H35.15l0,0a.06.06,0,0,1,0,0l.22-.83a.07.07,0,0,1,0,0h4.16l0,0,.5.49s0,0,0,0a0,0,0,0,1,0,0l-.3.3,0,0a2.51,2.51,0,0,1-.67,0,1.35,1.35,0,0,0-1.07.23v4.67h1.16a0,0,0,0,1,0,0v2.3l.82.39c.63.3,1.22.57,1.81.88s1.44.75,2.13,1.13l2.34,1.23a7.49,7.49,0,0,0,.73.3,4.31,4.31,0,0,1,1,.49,7.11,7.11,0,0,0,1.61.9,8.56,8.56,0,0,1,1.21.61,5.54,5.54,0,0,0,1.78.76h0a8.06,8.06,0,0,0,1.94,1.13,11,11,0,0,1,1.55.82,5.32,5.32,0,0,0,1.13.53,5.9,5.9,0,0,1,1.06.47,8.54,8.54,0,0,0,1.13.57,6.43,6.43,0,0,1,1.76,1,5.12,5.12,0,0,1,1.9.87l.66.4.24-.4a.05.05,0,0,1,0,0h1.39V62.36H64a.05.05,0,0,1,0,0,0,0,0,0,1,0,0L64,62.2l-.46-.27a.05.05,0,0,1,0,0s0,0,0,0l.39-.43a.05.05,0,0,1,0,0h4.24l0,0,.34.35s0,0,0,.07l-.29.43,0,0H66.74v2.63h.9a0,0,0,0,1,0,0v1.75a3.79,3.79,0,0,0,1.86.84c.12,0,.24,0,.36.09l.57.14a10.75,10.75,0,0,1,2.4.8.77.77,0,0,0,.4.07c.23,0,.47,0,.62.26a7,7,0,0,1,2.44.63l.64.25a8.67,8.67,0,0,0,.84.22,5.09,5.09,0,0,1,1,.3,14.42,14.42,0,0,0,1.64.56L81,71l1.76.52,1.78.53c.21.06.41.15.64.24l.38.15a2.3,2.3,0,0,1,1.44.3l.52.21.64.22,1.47.5a3.25,3.25,0,0,0,.65.15,3,3,0,0,1,1,.28,1.71,1.71,0,0,0,1.32.2,1.91,1.91,0,0,0,0-.24,1.93,1.93,0,0,1,0-.24,0,0,0,0,1,0,0h1c.47-.25.44-.59.38-1H92.75l0,0-.53-.54s0,0,0-.06l.27-.53s0,0,0,0h4.23s0,0,0,0l.35.38a0,0,0,0,1,0,.07l-.54.64,0,0H95.22v.92l.93.06a.06.06,0,0,1,0,0v.87l.06,0,.08,0a3.49,3.49,0,0,1,.46,0,1.24,1.24,0,0,0,.83-.12.83.83,0,0,1,.54-.09c.23,0,.43,0,.58-.19l0,0a2.94,2.94,0,0,0,1-.12l.29-.07.58-.11a6.28,6.28,0,0,0,1.33-.32.56.56,0,0,1,.34,0,3,3,0,0,0,1.3-.12c.19,0,.39-.09.58-.12l.42-.05a2.87,2.87,0,0,0,1.28-.34h0a6.42,6.42,0,0,0,1.86-.25,8.63,8.63,0,0,1,.88-.2c.36-.06.74-.09,1.1-.12a6.23,6.23,0,0,0,2.2-.46s0,0,0,0a1.54,1.54,0,0,0,.82-.1,2,2,0,0,1,.65-.13,2.44,2.44,0,0,0,.83-.16h0a8.73,8.73,0,0,1,1-.19,6.11,6.11,0,0,0,1.2-.26,0,0,0,0,1,.06,0c.13.18.24.12.4,0a.52.52,0,0,1,.35-.08c.26.07.52.09.69-.17a.05.05,0,0,1,0,0,8.08,8.08,0,0,0,1.68-.23,10.36,10.36,0,0,1,1.26-.22V68.8a.06.06,0,0,1,.06,0h1.42V66.14h-1.26a0,0,0,0,1,0,0l-.5-.6s0,0,0-.06l.24-.27a.05.05,0,0,1,0,0h4.46a.05.05,0,0,1,0,0,.64.64,0,0,1-.28.9h-1.5v2.6h1a.06.06,0,0,1,.06.05v1.67c.73.21,1.48.38,2.21.55l1.64.4.11-.1s0,0,0,0l.6.11a10.21,10.21,0,0,1,1.27.28,8.51,8.51,0,0,0,1.11.26,8.24,8.24,0,0,1,1.36.35,2.93,2.93,0,0,0,1.35.22,1,1,0,0,1,.89.2A8.4,8.4,0,0,1,137,73a7.67,7.67,0,0,0,1.72.31h0a4.91,4.91,0,0,0,1.73.4,4.84,4.84,0,0,1,1.78.43,1.67,1.67,0,0,1,.89.11l.39.1.43,0a1.66,1.66,0,0,1,.84.2,1,1,0,0,0,.54.13.82.82,0,0,1,.64.22.58.58,0,0,1,.62,0,.77.77,0,0,0,.36.07,1.75,1.75,0,0,1,1.08.22,1.23,1.23,0,0,0,.69.16,1.58,1.58,0,0,1,.37,0,.74.74,0,0,1,.31.17l.14.09.06-1a0,0,0,0,1,.05,0h1.29l.3-.31V73.07l-.31-.27a1.34,1.34,0,0,1-.4,0,.8.8,0,0,0-.76.18,0,0,0,0,1-.06,0c-.43-.25-.37-.65-.32-1a.07.07,0,0,1,.06,0h4.33l.28.28s0,0,0,0v.49a0,0,0,0,1,0,.05h-1.51l-.29.29v1.52h.94a.06.06,0,0,1,.06.05v3.54A.06.06,0,0,1,153.13,78.21Zm-3.45-.11h3.4V74.67h-.94a.06.06,0,0,1-.06,0V73s0,0,0,0l.32-.33,0,0h1.48v-.41l-.25-.25h-4.23c-.05.36-.08.68.24.88a1,1,0,0,1,.81-.18,1,1,0,0,0,.39,0h0l.35.31a.05.05,0,0,1,0,0v1.27a.08.08,0,0,1,0,0l-.33.33,0,0h-1.26l-.07,1.08a.05.05,0,0,1,0,0,.06.06,0,0,1-.06,0l-.21-.15a.83.83,0,0,0-.27-.15l-.35,0a1.33,1.33,0,0,1-.75-.17,1.53,1.53,0,0,0-1-.2,1.15,1.15,0,0,1-.41-.08c-.2-.07-.37-.14-.55,0h0s0,0,0,0a.7.7,0,0,0-.6-.22,1.18,1.18,0,0,1-.6-.14,1.59,1.59,0,0,0-.79-.19,3.12,3.12,0,0,1-.44,0c-.14,0-.27-.07-.4-.1a1.56,1.56,0,0,0-.85-.11h0a4.73,4.73,0,0,0-1.76-.42,5.19,5.19,0,0,1-1.76-.41,7.58,7.58,0,0,1-1.72-.32,7.81,7.81,0,0,0-1.67-.31.05.05,0,0,1,0,0,.79.79,0,0,0-.79-.18,3,3,0,0,1-1.42-.24,8.77,8.77,0,0,0-1.34-.34,9.21,9.21,0,0,1-1.13-.26,9.52,9.52,0,0,0-1.25-.28l-.57-.1-.11.1h-.05c-.56-.15-1.12-.28-1.66-.4-.75-.18-1.52-.36-2.26-.57a.07.07,0,0,1,0,0V68.81h-1a0,0,0,0,1,0,0v-2.7a0,0,0,0,1,0,0h1.5c.32-.25.39-.46.25-.73H121l-.19.21.46.55h1.28a0,0,0,0,1,0,0V68.8a0,0,0,0,1,0,0h-1.42v1.77a0,0,0,0,1-.05,0,11,11,0,0,0-1.3.22,8.3,8.3,0,0,1-1.65.23h0a.68.68,0,0,1-.79.2.35.35,0,0,0-.27.07c-.15.07-.33.16-.51,0a5.36,5.36,0,0,1-1.19.25,8.4,8.4,0,0,0-1,.19h0a2.86,2.86,0,0,1-.86.17,1.71,1.71,0,0,0-.62.12,1.63,1.63,0,0,1-.85.1,6.17,6.17,0,0,1-2.23.46c-.35,0-.72.06-1.08.12s-.59.13-.88.2a6.81,6.81,0,0,1-1.87.26,2.87,2.87,0,0,1-1.31.34l-.41,0c-.19,0-.38.08-.57.12a2.92,2.92,0,0,1-1.35.12.44.44,0,0,0-.28,0,7.19,7.19,0,0,1-1.35.33l-.58.1-.29.07a3.12,3.12,0,0,1-1,.13.66.66,0,0,1-.66.21.71.71,0,0,0-.48.07,1.36,1.36,0,0,1-.88.14,1.7,1.7,0,0,0-.45,0,.26.26,0,0,1-.15-.07l-.08,0a.05.05,0,0,1,0,0v-.85l-.93-.06a.06.06,0,0,1,0,0v-1a.06.06,0,0,1,.06,0H96.5l.5-.59-.3-.33H92.52l-.23.48.48.49h1.28s0,0,0,0c.06.38.13.82-.45,1.11h-1s0,.11,0,.17c0,.23,0,.32,0,.34a1.78,1.78,0,0,1-1.42-.2,2.69,2.69,0,0,0-.93-.26,3.84,3.84,0,0,1-.67-.16l-1.46-.51-.64-.21c-.18-.06-.36-.14-.53-.21a2.2,2.2,0,0,0-1.39-.29h0l-.4-.16a5.67,5.67,0,0,0-.63-.24l-1.78-.53L81,71.12,80.47,71a13.93,13.93,0,0,1-1.65-.56,4.75,4.75,0,0,0-1-.3A6.64,6.64,0,0,1,77,69.9l-.65-.25A6.76,6.76,0,0,0,73.87,69a.05.05,0,0,1-.05,0c-.12-.24-.31-.24-.54-.24a1,1,0,0,1-.45-.07,10.51,10.51,0,0,0-2.37-.8l-.58-.14-.35-.09a3.78,3.78,0,0,1-1.93-.88s0,0,0,0V65h-.9a.06.06,0,0,1-.06,0V62.24a.06.06,0,0,1,.06-.06h1.56l.25-.36-.29-.32H64l-.33.37.45.27s0,0,0,0,0,0,0,0l0,0h1.45a0,0,0,0,1,.05.05V65a0,0,0,0,1-.05,0H64.15l-.24.42a.06.06,0,0,1-.08,0c-.24-.13-.48-.28-.7-.42a5,5,0,0,0-1.88-.86h0a6.15,6.15,0,0,0-1.74-1,8.85,8.85,0,0,1-1.15-.58,6.08,6.08,0,0,0-1-.46,5.48,5.48,0,0,1-1.15-.54,9.77,9.77,0,0,0-1.53-.81,8.57,8.57,0,0,1-2-1.14,5.61,5.61,0,0,1-1.79-.77,7.47,7.47,0,0,0-1.2-.6A7.37,7.37,0,0,1,48,57.31a4.44,4.44,0,0,0-1-.47,6.07,6.07,0,0,1-.74-.31c-.79-.4-1.58-.82-2.35-1.23l-2.12-1.13c-.6-.3-1.19-.58-1.81-.87l-.85-.41s0,0,0,0V50.56H38a.05.05,0,0,1-.05-.05V45.77a.05.05,0,0,1,0,0,1.39,1.39,0,0,1,1.16-.27,2.64,2.64,0,0,0,.63,0L40,45.2l-.45-.44h-4.1l-.19.72h1.85a0,0,0,0,1,0,.05v5a0,0,0,0,1,0,0H35.51V54h3.62s.08,0,.12-.09l.09-.09s0,0,.06,0l.34.23a4.1,4.1,0,0,0,.57.36l.66.3a17.09,17.09,0,0,1,2,1,15.28,15.28,0,0,0,1.76.89c.28.12.57.25.85.39l.62.3c.66.31,1.33.64,2,1,.22.12.44.24.67.35.62.34,1.27.68,1.91,1,.84.4,1.67.84,2.47,1.27.57.31,1.17.62,1.76.92C57.07,62.88,59.23,64,61.32,65L64,66.32a.05.05,0,0,1,0,.05v1.87l.09.1c.06.07.12.15.17.15,1,0,2,0,3,0h.37v0l0,0,.08-.31a.07.07,0,0,1,0,0H68a1.39,1.39,0,0,1,.5,0c.37.11.75.24,1.11.37l.63.22a7.66,7.66,0,0,0,.94.25c.28.06.58.12.86.21l.94.32a31.24,31.24,0,0,0,3.25,1,8.69,8.69,0,0,1,1.44.48l.57.21.34.13a8,8,0,0,0,1.71.49,4.14,4.14,0,0,1,.89.27,5,5,0,0,0,.78.24,2.69,2.69,0,0,1,.65.24,1.68,1.68,0,0,0,1.14.21c.06,0,.1,0,.15.09a.47.47,0,0,0,.09.1,7.67,7.67,0,0,1,1.71.51,6.14,6.14,0,0,0,2.21.54h0a.07.07,0,0,1,0,0c.07.18.2.18.37.19a.75.75,0,0,1,.33.06,4.88,4.88,0,0,0,1.37.5l.36.09c.16,0,.32.1.47.15a3.48,3.48,0,0,0,1.24.23h0l.55.56a.05.05,0,0,1,0,0v1.46h3.16l.28-.28V76a.05.05,0,0,1,0,0l.29-.15a.93.93,0,0,1,.45-.18,7.24,7.24,0,0,0,1.54-.22,6.82,6.82,0,0,1,1.75-.21h.11a.51.51,0,0,0,.28,0,5.77,5.77,0,0,1,1.57-.36,6,6,0,0,0,1.32-.26,3.23,3.23,0,0,1,.87-.14,4,4,0,0,0,.71-.1,8.09,8.09,0,0,1,2.36-.39h.1a.64.64,0,0,0,.2,0,6.77,6.77,0,0,1,1.47-.32,7.73,7.73,0,0,0,1.41-.31,2.93,2.93,0,0,1,.83-.13,2.45,2.45,0,0,0,.74-.11,6.94,6.94,0,0,1,1.89-.36,10.23,10.23,0,0,0,1.44-.22,3.76,3.76,0,0,1,.75-.1,2.73,2.73,0,0,0,.92-.15A3.16,3.16,0,0,1,118,72a4.37,4.37,0,0,0,.7-.15,4.1,4.1,0,0,1,1.11-.19c.19,0,.39,0,.58-.06a1,1,0,0,0,.29-.1l.21-.09s0,0,0,0l0,0,.27.77h3.31l.29-.73a.05.05,0,0,1,.06,0l.25.07.4.1a1.84,1.84,0,0,0,.33,0,1.51,1.51,0,0,1,.57.11,5.58,5.58,0,0,0,1.87.46,6.56,6.56,0,0,1,1.17.24,3.82,3.82,0,0,0,1.68.2h0a4.41,4.41,0,0,0,1,.24,4.17,4.17,0,0,1,1,.24,4.39,4.39,0,0,0,1.05.27,5,5,0,0,1,1,.26,4,4,0,0,0,.92.21l.12,0A5.66,5.66,0,0,0,137,74a4.61,4.61,0,0,1,1.17.19,2.78,2.78,0,0,0,.68.12,2.9,2.9,0,0,1,.59.09,2.71,2.71,0,0,1,.39.17,1.29,1.29,0,0,0,.59.18,1.45,1.45,0,0,1,.59.13,1,1,0,0,0,.57.09.62.62,0,0,1,.41.12c.2.12.35.2.53-.06,0,0,0,0,.07,0a3.61,3.61,0,0,0,1.24.36,4.7,4.7,0,0,1,.73.14c.24.07.48.12.71.17a7.5,7.5,0,0,1,1.19.32,3.18,3.18,0,0,0,1,.18c.18,0,.36,0,.54.06l.45.08a3.91,3.91,0,0,0,1.1.12.05.05,0,0,1,0,0s0,0,0,0Z"/><path d="M114.23,4.85h-3.55c-.17-.4.17-.95-.47-1.26h-4.8V2.81h4.88l.35-.38V1.34h3.53V2.76h5.22v.78a.52.52,0,0,1-.22.07c-1.64,0-3.27,0-4.94,0Z"/><path d="M114.23,4.9h-3.55a.05.05,0,0,1-.05,0,1.24,1.24,0,0,1-.06-.47.68.68,0,0,0-.37-.76h-4.79a0,0,0,0,1,0-.05V2.81a0,0,0,0,1,0-.05h4.85l.33-.35V1.34a.06.06,0,0,1,0-.06h3.53a.06.06,0,0,1,.06.06V2.71h5.16a.05.05,0,0,1,0,0v.78a0,0,0,0,1,0,0l0,0a.53.53,0,0,1-.2.05h-4.89V4.85A0,0,0,0,1,114.23,4.9Zm-3.51-.1h3.45V3.61a.06.06,0,0,1,.06,0h4.94a.49.49,0,0,0,.16-.05h0V2.82h-5.16a.06.06,0,0,1,0-.06V1.39h-3.43v1a.06.06,0,0,1,0,0l-.36.38,0,0h-4.82v.67h4.76a.8.8,0,0,1,.45.86A1,1,0,0,0,110.72,4.8Z"/><path d="M113.25,15.17h6.16v1h-5.65l.81,1.45c-1.43,0-2.68,0-4,0l.7-1.39h-5.79c-.09-.39-.17-.74.24-1.06h6.08l.67-1.33C113.06,14.09,113,14.68,113.25,15.17Z"/><path d="M112.49,17.71c-.66,0-1.29,0-1.95,0l0,0a0,0,0,0,1,0-.05l.65-1.32h-5.7a.07.07,0,0,1,0,0c-.09-.4-.18-.77.25-1.11h6.09l.65-1.31a.06.06,0,0,1,.07,0,1.26,1.26,0,0,1,.71,1c0,.12.07.25.11.36h6.13a.06.06,0,0,1,0,.06v1a.05.05,0,0,1,0,.05h-5.56l.76,1.37a0,0,0,0,1,0,0s0,0,0,0Zm-1.86-.15c1.25.06,2.44,0,3.85,0l-.76-1.38a0,0,0,0,1,0-.05s0,0,0,0h5.59v-.9h-6.1a.05.05,0,0,1,0,0,2,2,0,0,1-.13-.41,1.22,1.22,0,0,0-.61-.89l-.64,1.3a.09.09,0,0,1,0,0h-6.06c-.35.28-.3.58-.21,1h5.74a.05.05,0,0,1,0,0,.11.11,0,0,1,0,0Z"/><path d="M122.87.05h1.9L125.9.9v.8h-.76c0-.68-.62-.61-1-.75a1.37,1.37,0,0,0-1.61.51l.19.6a20.51,20.51,0,0,1,2.28.57,5.45,5.45,0,0,1,1.11.79V4.75c-1.34,1.49-1.28,1.14-3,1.16-.74-.5-1.52-1-1.57-2.06h.77c.37.28.37.95,1,1,.28,0,.68.28.83.17.37-.28,1-.11,1.13-.74s-.39-.63-.72-.91a4,4,0,0,1-2.62-1l-.25-1.3Z"/><path d="M124.27,6h-.38l-.8,0h0l-.13-.08a2.55,2.55,0,0,1-1.47-2s0,0,0,0l0,0h.8a1.35,1.35,0,0,1,.33.45c.14.27.28.52.64.56a3.18,3.18,0,0,1,.38.11c.17.06.35.13.42.08a1.18,1.18,0,0,1,.48-.19c.3-.08.56-.14.63-.52s-.09-.51-.37-.66a1.5,1.5,0,0,1-.32-.19,4,4,0,0,1-2.63-1l0,0-.25-1.3a.08.08,0,0,1,0,0L122.84,0h2l1.12.85a.08.08,0,0,1,0,0v.8a0,0,0,0,1,0,.05h-.8a.08.08,0,0,1,0,0c0-.48-.3-.55-.64-.62L124.13,1a1.31,1.31,0,0,0-1.53.47l.17.54.71.16a11.69,11.69,0,0,1,1.55.41,2.87,2.87,0,0,1,.81.54,3.29,3.29,0,0,0,.31.26.05.05,0,0,1,0,0V4.75l0,0C125.21,5.84,124.94,6,124.27,6Zm-1.06-.13h.68c1,0,1.11,0,2.18-1.14V3.45a3.31,3.31,0,0,1-.3-.25,2.87,2.87,0,0,0-.78-.52,11.39,11.39,0,0,0-1.53-.41l-.75-.16s0,0,0,0l-.19-.59a.07.07,0,0,1,0-.05A1.44,1.44,0,0,1,124.17.9l.29.08c.33.07.73.15.73.67h.66V.93L124.76.1h-1.87l-1.17,1.06L122,2.41a3.92,3.92,0,0,0,2.56.94s0,0,0,0a2.32,2.32,0,0,0,.31.19c.28.14.6.3.43.78s-.4.51-.7.59a1.28,1.28,0,0,0-.45.17c-.11.09-.3,0-.51-.06a2,2,0,0,0-.36-.1.92.92,0,0,1-.72-.62,1.13,1.13,0,0,0-.29-.41h-.7c.07,1,.73,1.41,1.42,1.88l.11.08Z"/><path d="M4.52,45.09c-1.13-.72-1.16-.79-1.14-2.45l.68-.46-.48-.57a5.25,5.25,0,0,1,0-.79,4.34,4.34,0,0,1,.22-.67,2.5,2.5,0,0,1,1.82-.28c.59,0,.9.48,1.11,1.05l-.21.31.19.2L6.16,42l.56.55v1.7l-.85.85Zm.67-2.53c-.6.07-.56.6-.83.89.33.25.23.8.82.81l.53-.83ZM5,41.89c.62-.71.62-.71,0-1.2-.34.13-.46.38-.32.64Z"/><path d="M5.87,45.15H4.5c-1.16-.74-1.2-.81-1.17-2.5,0,0,0,0,0,0L4,42.17l-.44-.53a0,0,0,0,1,0,0c0-.07,0-.14,0-.22a3.71,3.71,0,0,1,0-.57,2.1,2.1,0,0,1,.14-.47l.09-.21a0,0,0,0,1,0,0,2.28,2.28,0,0,1,1.67-.31l.19,0a1.37,1.37,0,0,1,1.15,1.09s0,0,0,0l-.18.27.16.17a.06.06,0,0,1,0,.08L6.23,42l.53.51s0,0,0,0v1.7a.06.06,0,0,1,0,0l-.85.85ZM4.54,45H5.85l.82-.82V42.56L6.12,42a.05.05,0,0,1,0,0,.08.08,0,0,1,0,0l.53-.52-.16-.17s0,0,0-.06l.19-.28c-.23-.65-.57-1-1-1H5.45a2.19,2.19,0,0,0-1.59.28c0,.07,0,.14-.08.2a2,2,0,0,0-.14.44,2.64,2.64,0,0,0,0,.56v.2l.47.56s0,0,0,0,0,0,0,0l-.66.45C3.41,44.28,3.44,44.34,4.54,45Zm.64-.73h0a.63.63,0,0,1-.61-.47.84.84,0,0,0-.24-.34l0,0a.05.05,0,0,1,0,0,1.16,1.16,0,0,0,.18-.33.79.79,0,0,1,.67-.58,0,0,0,0,1,.05,0l.53.87a0,0,0,0,1,0,.06l-.52.83Zm-.74-.86a1.24,1.24,0,0,1,.22.34c.1.22.18.4.49.41l.5-.77-.49-.82a.7.7,0,0,0-.55.52A2,2,0,0,1,4.44,43.45ZM5,41.94H5s0,0,0,0l-.27-.56a.45.45,0,0,1,0-.37A.64.64,0,0,1,5,40.64h0c.29.24.44.36.45.52s-.14.36-.48.75Zm0-1.19a.53.53,0,0,0-.3.26.37.37,0,0,0,0,.3l.24.48c.28-.31.42-.48.41-.61S5.26,41,5,40.75Z"/><path d="M135.66,12.41h1.26a2.24,2.24,0,0,1,2.22,1.38c.1.21.24.39.36.6A3.24,3.24,0,0,1,138,17.9a3.67,3.67,0,0,1-1.52.17c-.78-.05-1.51-.14-1.86-1a4.07,4.07,0,0,0-.52-.75V14.21C134.42,13.47,135.13,13,135.66,12.41Zm1.17,5.07c.47-.34,1.14-.27,1.41-.76a3.28,3.28,0,0,0,.43-1.48,3.13,3.13,0,0,0-.43-1.48c-.3-.52-1-.44-1.46-.72-.43.31-1,.29-1.41.69s-.32,1.06-.62,1.51c.31.42.17,1,.55,1.44S136.32,17.12,136.83,17.48Z"/><path d="M136.83,18.13h-.34c-.8-.05-1.55-.16-1.91-1.05a1.79,1.79,0,0,0-.32-.49,2.35,2.35,0,0,1-.19-.25,0,0,0,0,1,0,0V14.19a3.85,3.85,0,0,1,1-1.26c.18-.17.38-.36.55-.55a.05.05,0,0,1,0,0h1.26a2.3,2.3,0,0,1,2.27,1.41,4.1,4.1,0,0,0,.23.4,1.27,1.27,0,0,1,.13.19v0A3.26,3.26,0,0,1,138,17.94,3.18,3.18,0,0,1,136.83,18.13Zm-2.67-1.85.18.23a2,2,0,0,1,.34.52c.33.83,1,.94,1.82,1a3.61,3.61,0,0,0,1.49-.17,3.18,3.18,0,0,0,1.46-3.45l-.11-.18a2.1,2.1,0,0,1-.24-.41A2.19,2.19,0,0,0,137,12.46h-1.28c-.17.2-.36.37-.54.55a3.77,3.77,0,0,0-1,1.21Zm2.67,1.25s0,0,0,0a2.76,2.76,0,0,0-.68-.31,2,2,0,0,1-.86-.49,1.68,1.68,0,0,1-.33-.81,1.57,1.57,0,0,0-.22-.64.06.06,0,0,1,0-.06,1.81,1.81,0,0,0,.22-.63,1.59,1.59,0,0,1,.41-.89,1.84,1.84,0,0,1,.78-.41,2.26,2.26,0,0,0,.63-.29h.06a2.16,2.16,0,0,0,.57.21,1.29,1.29,0,0,1,.9.54,3.14,3.14,0,0,1,.44,1.5,3.22,3.22,0,0,1-.44,1.51,1.16,1.16,0,0,1-.8.5,2.29,2.29,0,0,0-.62.27Zm-2-2.29a1.75,1.75,0,0,1,.23.65,1.44,1.44,0,0,0,.3.76,1.8,1.8,0,0,0,.82.46,3.29,3.29,0,0,1,.67.3,2.4,2.4,0,0,1,.62-.26,1.12,1.12,0,0,0,.74-.45,3.29,3.29,0,0,0,.43-1.46,3.05,3.05,0,0,0-.43-1.45,1.19,1.19,0,0,0-.84-.49,2.42,2.42,0,0,1-.57-.2,2.46,2.46,0,0,1-.62.28,1.84,1.84,0,0,0-.75.38,1.65,1.65,0,0,0-.38.84A2,2,0,0,1,134.81,15.24Z"/><path d="M10.44,107.68l-.68.67H8.32a2.4,2.4,0,0,1-1-2.3c0-.59,0-1.19,0-1.82l.86-1.08H9.78l.67.66A6.63,6.63,0,0,1,10.44,107.68Zm-1.8-3.52a5.56,5.56,0,0,0-.2,1.71c.08.49,0,1.16.59,1.49.1-.09.22-.13.25-.21a8.74,8.74,0,0,0,.37-1.09c.14-.58-.33-1.08-.21-1.58-.14-.14-.21-.26-.29-.28A2.78,2.78,0,0,0,8.64,104.16Z"/><path d="M9.76,108.41H8.29a2.46,2.46,0,0,1-1-2.36c0-.4,0-.8,0-1.23v-.58a0,0,0,0,1,0,0l.86-1.09,0,0H9.78a.05.05,0,0,1,0,0l.67.67v0a6.7,6.7,0,0,1,0,3.89s0,0,0,0l-.68.67Zm-1.42-.11h1.4l.65-.65a6.51,6.51,0,0,0,0-3.81l-.64-.64H8.24l-.84,1c0,.19,0,.38,0,.56,0,.43,0,.83,0,1.24A2.32,2.32,0,0,0,8.34,108.3Zm2.1-.62ZM9,107.41H9a1.23,1.23,0,0,1-.59-1.18c0-.12,0-.23,0-.34a3.19,3.19,0,0,1,.11-1.17c0-.18.07-.37.1-.55a.05.05,0,0,1,.05,0H8.8a1.38,1.38,0,0,1,.36,0,.45.45,0,0,1,.19.16l.13.13s0,0,0,0a1.38,1.38,0,0,0,.1.71,1.58,1.58,0,0,1,.11.87,10.34,10.34,0,0,1-.36,1.07v0a.38.38,0,0,1-.17.16l-.1.07Zm-.34-3.19c0,.17-.07.34-.1.51a2.79,2.79,0,0,0-.1,1.13c0,.11,0,.23,0,.35,0,.41.06.84.5,1.08l.08-.05c.06,0,.11-.07.12-.11v0a8.14,8.14,0,0,0,.36-1,1.43,1.43,0,0,0-.11-.82,1.44,1.44,0,0,1-.11-.73.65.65,0,0,0-.11-.12.32.32,0,0,0-.14-.13,1.16,1.16,0,0,0-.33,0Z"/><path d="M10.46,44.39l-.67.68H8.35l-.7-.62c-.49-1.19-.22-2.3-.32-3.43l.89-1.16H9.77l.71.78A6.83,6.83,0,0,1,10.46,44.39ZM8.64,40.87a5.82,5.82,0,0,0-.2,1.74c.08.48,0,1.15.59,1.48.1-.08.22-.13.25-.2a8.89,8.89,0,0,0,.37-1.1c.14-.58-.33-1.07-.17-1.72Z"/><path d="M9.79,45.12H8.35l0,0-.7-.61,0,0a5.55,5.55,0,0,1-.3-2.35c0-.36,0-.73,0-1.09,0,0,0,0,0,0l.88-1.16.05,0H9.77l0,0,.71.78s0,0,0,0a6.84,6.84,0,0,1,0,3.78s0,0,0,0l-.68.67ZM8.37,45H9.76l.65-.64a6.84,6.84,0,0,0,0-3.7l-.69-.75H8.24L7.39,41a9.75,9.75,0,0,1,0,1.08,5.48,5.48,0,0,0,.3,2.3Zm2.09-.62ZM9,44.14H9A1.24,1.24,0,0,1,8.42,43a3.18,3.18,0,0,0,0-.34,3.24,3.24,0,0,1,.11-1.18c0-.19.07-.38.1-.58,0,0,0,0,0,0h0l.83.2s0,0,0,.06a1.62,1.62,0,0,0,.08.88,1.6,1.6,0,0,1,.09.84,9,9,0,0,1-.36,1.07v0a.33.33,0,0,1-.17.16l-.1.07Zm-.34-3.21c0,.18-.07.36-.1.53a3,3,0,0,0-.1,1.14,3.39,3.39,0,0,1,0,.35A1.16,1.16,0,0,0,9,44L9.11,44a.25.25,0,0,0,.12-.1v0a7.65,7.65,0,0,0,.36-1A1.54,1.54,0,0,0,9.51,42a1.83,1.83,0,0,1-.1-.88Z"/><path d="M6,29.17H4.58l-.75-.68a6.93,6.93,0,0,1,0-3.83l.8-.71H6a2.36,2.36,0,0,1,1,2.28c0,.31,0,.63,0,.94A2.24,2.24,0,0,1,6,29.17ZM5.63,28.1c.13-.42.06-.77.21-1.15.23-.57-.11-1.22-.33-1.81,0-.07-.14-.12-.28-.22-.1.1-.26.17-.28.27-.12.58-.52,1.18-.28,1.73.17.4.06.79.22,1.18Z"/><path d="M6,29.22H4.58l0,0-.74-.67,0,0a6.94,6.94,0,0,1,0-3.86l0,0,.8-.71,0,0H6a2.42,2.42,0,0,1,1,2.33c0,.32,0,.64,0,.94a2.31,2.31,0,0,1-1,2ZM4.6,29.11H6a2.22,2.22,0,0,0,.92-1.94c0-.3,0-.62,0-.94A2.29,2.29,0,0,0,6,24H4.63l-.77.69a6.81,6.81,0,0,0,0,3.77Zm1-1H4.89a.05.05,0,0,1,0,0,2.11,2.11,0,0,1-.11-.59,1.8,1.8,0,0,0-.11-.59,1.71,1.71,0,0,1,.12-1.23c.06-.18.12-.36.16-.53A.38.38,0,0,1,5.09,25l.11-.09a0,0,0,0,1,.07,0l.12.08c.08.06.15.1.17.17s.07.17.1.26A2.18,2.18,0,0,1,5.89,27a1.65,1.65,0,0,0-.11.57,2.62,2.62,0,0,1-.1.58A.05.05,0,0,1,5.63,28.15Zm-.71-.1h.67a2.43,2.43,0,0,0,.08-.52,2.2,2.2,0,0,1,.12-.6,2.08,2.08,0,0,0-.22-1.5l-.11-.27a.33.33,0,0,0-.12-.11L5.24,25l-.09.06c-.07.05-.14.1-.15.15a5.52,5.52,0,0,1-.16.54,1.6,1.6,0,0,0-.13,1.16,1.77,1.77,0,0,1,.13.62A1.84,1.84,0,0,0,4.92,28.05Z"/><path d="M7.6,87.91l.69-.71H9.72l.74.74a7,7,0,0,1,0,3.76l-.83.72H8.25l-.91-1.08A11.29,11.29,0,0,1,7.6,87.91Zm1.8,3.46c.14-.42,0-.77.22-1.15s-.19-1-.18-1.46a.46.46,0,0,0-.39-.5c-.71.15-.34.71-.54,1-.41.69.18,1.34.11,2.06Z"/><path d="M9.65,92.48H8.25a.05.05,0,0,1,0,0L7.3,91.38a.06.06,0,0,1,0,0c0-.38,0-.76,0-1.13a6.17,6.17,0,0,1,.26-2.32s0,0,0,0l.69-.7,0,0H9.72l0,0,.74.73s0,0,0,0a6.94,6.94,0,0,1,0,3.78l0,0-.83.72Zm-1.38-.11H9.63l.8-.7a6.84,6.84,0,0,0,0-3.7l-.71-.71H8.31l-.66.68a5.64,5.64,0,0,0-.25,2.27,10.51,10.51,0,0,1,0,1.12Zm1.13-1H8.62l0,0a.05.05,0,0,1,0,0,2.06,2.06,0,0,0-.13-.81,1.56,1.56,0,0,1,0-1.27.67.67,0,0,0,.07-.38c0-.27,0-.59.51-.7h0a.53.53,0,0,1,.43.56,1.75,1.75,0,0,0,.14.59,1,1,0,0,1,0,.9,1.1,1.1,0,0,0-.15.62,1.57,1.57,0,0,1-.07.51A.07.07,0,0,1,9.4,91.42Zm-.72-.11h.68a1.74,1.74,0,0,0,.06-.45,1.14,1.14,0,0,1,.16-.67c.15-.24.05-.51-.05-.8a1.79,1.79,0,0,1-.14-.63.41.41,0,0,0-.34-.45c-.41.09-.41.32-.41.59a.94.94,0,0,1-.09.44,1.43,1.43,0,0,0,0,1.18A2.35,2.35,0,0,1,8.68,91.31Z"/><path d="M10.44,12.72l-.67.74H8.27l-.93-1.09c.09-1.14-.19-2.28.32-3.51l.72-.64H9a1.52,1.52,0,0,1,1.19.42,1.78,1.78,0,0,1,.48,1.16,10.41,10.41,0,0,1,0,2.09A3.6,3.6,0,0,1,10.44,12.72Zm-1-.33c.14-.42,0-.77.22-1.15s-.19-1-.18-1.46a.46.46,0,0,0-.38-.5c-.72.15-.35.71-.55,1.05-.41.69.18,1.35.12,2.06Z"/><path d="M9.77,13.51H8.27s0,0,0,0L7.3,12.4a0,0,0,0,1,0,0,10.11,10.11,0,0,0,0-1.1,5.63,5.63,0,0,1,.31-2.43l0,0,.71-.64H9a1.61,1.61,0,0,1,1.23.43,1.92,1.92,0,0,1,.5,1.19,11.14,11.14,0,0,1,0,2v.1a2.07,2.07,0,0,1-.16.59l-.09.26v0l-.68.74Zm-1.48-.1H9.74l.65-.72.09-.25a1.91,1.91,0,0,0,.16-.55v-.1a10.06,10.06,0,0,0,0-2,1.77,1.77,0,0,0-.46-1.13A1.52,1.52,0,0,0,9,8.27H8.4l-.69.61a5.67,5.67,0,0,0-.31,2.37,9.91,9.91,0,0,1,0,1.09Zm2.15-.69Zm-1-.28H8.63l0,0a.05.05,0,0,1,0,0,2.09,2.09,0,0,0-.13-.81,1.54,1.54,0,0,1,0-1.26.7.7,0,0,0,.07-.39.58.58,0,0,1,.52-.69h0a.51.51,0,0,1,.42.55,1.75,1.75,0,0,0,.14.59,1,1,0,0,1,0,.9,1.1,1.1,0,0,0-.15.62,1.89,1.89,0,0,1-.07.51A.05.05,0,0,1,9.4,12.44Zm-.72-.1h.68a1.86,1.86,0,0,0,.06-.45,1.16,1.16,0,0,1,.16-.68c.15-.24.05-.51-.05-.8a1.79,1.79,0,0,1-.14-.63.44.44,0,0,0-.33-.45c-.42.09-.42.33-.43.6a.79.79,0,0,1-.08.43,1.39,1.39,0,0,0,0,1.18A2.68,2.68,0,0,1,8.68,12.34Z"/><path d="M9.75,29.17H8.29c-.18-.18-.35-.36-.53-.53a1.32,1.32,0,0,1-.41-1.08c0-.6,0-1.19,0-1.78a8.26,8.26,0,0,1,.21-1.11L8.39,24H9.74a2.36,2.36,0,0,1,1,2.28c0,.31,0,.63,0,.94A2.24,2.24,0,0,1,9.75,29.17ZM8.69,24.92a9.82,9.82,0,0,0-.27,1.63,10.17,10.17,0,0,0,.23,1.55h.7a6.5,6.5,0,0,0,.28-1.38,8.73,8.73,0,0,0-.24-1.56Z"/><path d="M9.75,29.22H8.29l0,0L8.08,29c-.12-.12-.23-.24-.35-.35a1.37,1.37,0,0,1-.44-1.12c0-.24,0-.49,0-.72s0-.71,0-1.07A4.22,4.22,0,0,1,7.44,25c0-.11,0-.23.08-.36s0,0,0,0l.81-.72a.05.05,0,0,1,0,0H9.77a2.42,2.42,0,0,1,1,2.33c0,.32,0,.64,0,.94a2.34,2.34,0,0,1-1,2Zm-1.44-.11H9.73a2.22,2.22,0,0,0,.92-1.94c0-.3,0-.62,0-.94A2.29,2.29,0,0,0,9.72,24H8.41l-.79.7c0,.12,0,.23-.08.35a3.87,3.87,0,0,0-.13.73c0,.35,0,.71,0,1.06v.72a1.28,1.28,0,0,0,.4,1l.36.36Zm1-1h-.7s-.05,0-.05,0-.06-.31-.09-.46a5.82,5.82,0,0,1-.15-1.1,5.26,5.26,0,0,1,.16-1.05c0-.19.08-.38.12-.59a.05.05,0,0,1,0,0,0,0,0,0,1,.05,0l.7.24s0,0,0,0c0,.18.07.36.1.53a4.83,4.83,0,0,1,.15,1,4,4,0,0,1-.18,1c0,.14-.07.29-.11.44A0,0,0,0,1,9.35,28.15Zm-.65-.1h.61c0-.14.07-.27.1-.4a3.59,3.59,0,0,0,.17-.93,5.31,5.31,0,0,0-.14-1c0-.16-.07-.33-.1-.5L8.73,25c0,.19-.07.36-.11.53a5.12,5.12,0,0,0-.15,1,5.71,5.71,0,0,0,.14,1.08C8.64,27.76,8.67,27.91,8.7,28.05Z"/><path d="M5.61,55.78a1.51,1.51,0,0,1,1.11,1c-.35.39-.35.39-1,.43l-.49-.63-.53.25-.28.89L6,57.63l.75.86v1.6l-.82.71H4.27l-.9-1.17V57l.9-1.19Zm-.9,3.93.66.28.32-.7a1,1,0,0,1-.18-.23,1.47,1.47,0,0,1-.11-.31H4.68l-.2.47Z"/><path d="M5.89,60.85H4.27l0,0-.9-1.17a0,0,0,0,1,0,0V57a0,0,0,0,1,0,0l.89-1.19a.05.05,0,0,1,0,0H5.63a1.56,1.56,0,0,1,1.14,1.08s0,0,0,0c-.36.4-.37.41-1,.44l0,0-.47-.59-.47.22-.25.79L6,57.57a.05.05,0,0,1,0,0l.75.86a.05.05,0,0,1,0,0v1.6l0,0-.82.71ZM4.3,60.74H5.87l.79-.68V58.51l-.72-.83-1.52.13s0,0,0,0a0,0,0,0,1,0,0l.28-.89a0,0,0,0,1,0,0l.53-.25a0,0,0,0,1,.06,0l.47.6c.6,0,.61,0,.92-.38a1.46,1.46,0,0,0-1-1H4.29L3.42,57v2.62ZM5.37,60h0l-.66-.28s0,0,0,0l-.23-.48a0,0,0,0,1,0,0l.2-.47a.07.07,0,0,1,0,0H5.4a.07.07,0,0,1,0,0,.19.19,0,0,0,0,.07,1.44,1.44,0,0,0,.09.24.72.72,0,0,0,.11.15l.06.07a0,0,0,0,1,0,.05l-.31.7A.05.05,0,0,1,5.37,60Zm-.63-.37.6.25.29-.62,0,0a1.09,1.09,0,0,1-.13-.17,1.61,1.61,0,0,1-.09-.26v0H4.71l-.18.42Z"/><path d="M10.44,76l-.65.66H8.21l-.87-1.09c.09-1.12-.18-2.25.31-3.47l.76-.64H9.62c.06.07.15.29.28.33.73.19.72.82.78,1.34a9.84,9.84,0,0,1,0,1.88A5.13,5.13,0,0,1,10.44,76ZM9.1,72.51c-.59.18-.35.68-.52.93a1.38,1.38,0,0,0-.15,1.18,5.32,5.32,0,0,1,.19,1h.75a7,7,0,0,0,.26-1.57A2,2,0,0,0,9.1,72.51Z"/><path d="M9.79,76.75H8.21l0,0L7.3,75.64s0,0,0,0c0-.35,0-.7,0-1.07a5.7,5.7,0,0,1,.3-2.41,0,0,0,0,1,0,0l.77-.64H9.62s0,0,0,0a.35.35,0,0,1,.06.09c0,.08.12.19.2.22.68.17.74.73.8,1.21,0,.06,0,.12,0,.17a9.2,9.2,0,0,1,0,1.89,2.69,2.69,0,0,1-.15.67l-.09.33,0,0-.66.66Zm-1.55-.1H9.76L10.4,76l.09-.32a2.57,2.57,0,0,0,.15-.64,10.75,10.75,0,0,0,0-1.88s0-.11,0-.16c0-.48-.11-1-.72-1.13-.12,0-.2-.17-.26-.27l0-.06H8.43l-.74.62a5.76,5.76,0,0,0-.29,2.36,9.37,9.37,0,0,1,0,1.06Zm2.2-.61h0Zm-1.07-.33H8.62a.05.05,0,0,1,0,0,6.49,6.49,0,0,0-.19-1,1.4,1.4,0,0,1,.15-1.21.82.82,0,0,0,.08-.3.63.63,0,0,1,.48-.66s0,0,.05,0a1.88,1.88,0,0,1,.53,1.43.91.91,0,0,0,0,.17,3.88,3.88,0,0,1-.15,1.1c0,.16-.08.33-.11.49A0,0,0,0,1,9.37,75.71Zm-.7-.11h.66c0-.15.06-.31.1-.46a3.33,3.33,0,0,0,.14-1.06,1,1,0,0,0,0-.17,1.78,1.78,0,0,0-.47-1.34c-.33.11-.35.33-.38.56a.71.71,0,0,1-.09.34,1.34,1.34,0,0,0-.14,1.14A6,6,0,0,1,8.67,75.6Z"/><path d="M150,114.66h1l.35.61H152l.33-.58c-.16-.34-.24-.74-.83-.8l-.17.31h-1a9.44,9.44,0,0,1,.19-2.93,2.49,2.49,0,0,1,.6-.18c.66,0,1.32,0,2,0v1l-.28.26-1.07-.23-.08.82h1l.71,1v1.47l-1,.95h-1.32A1.44,1.44,0,0,1,150,114.66Z"/><path d="M152.38,116.37h-1.33a1.5,1.5,0,0,1-1.08-1.71s0,0,.05,0h1a.05.05,0,0,1,0,0l.33.57H152l.3-.53a.61.61,0,0,1,0-.12c-.13-.28-.25-.56-.69-.61l-.16.27s0,0,0,0h-1a.07.07,0,0,1-.05,0,4.85,4.85,0,0,1,.06-2c.05-.32.1-.64.13-1a.07.07,0,0,1,0,0l.16-.06a1.57,1.57,0,0,1,.45-.12c.47,0,.94,0,1.44,0h.59a.06.06,0,0,1,.06,0v1a.05.05,0,0,1,0,0l-.28.26-.05,0-1-.22-.06.69h.92s0,0,0,0l.71,1a0,0,0,0,1,0,0v1.47s0,0,0,0l-1,1Zm-1.31-.1h1.29l.95-.92v-1.43l-.69-.94h-1a.05.05,0,0,1,0,0s0,0,0,0l.07-.81a.05.05,0,0,1,0,0h0l1.05.23.24-.23v-.92h-2a1.55,1.55,0,0,0-.42.12l-.13,0c0,.33-.08.64-.13.94a4.88,4.88,0,0,0-.07,1.9h1l.15-.28a.05.05,0,0,1,.05,0,.91.91,0,0,1,.81.68l.06.14a0,0,0,0,1,0,0l-.32.58a.05.05,0,0,1,0,0h-.62s0,0,0,0l-.34-.57h-.92A1.38,1.38,0,0,0,151.07,116.27Z"/><path d="M136.94,2.39c-.72,1-.51,2.13-.55,3.23L136,6c-.1-.08-.19-.13-.19-.17v-4c.36-.29.62.06.94.16l.15-.44h1.59l.3.47.49-.5h1.67l.51.55V5.6l-.35.4-.46-.35v-3l-.34-.33h-.87c-.76,1-.4,2.13-.51,3.27l-.4.33c-.11-.08-.2-.12-.2-.16,0-.66,0-1.32,0-2a3,3,0,0,0-.43-1.42Z"/><path d="M141.07,6.06h0l-.46-.36s0,0,0,0V2.72l-.31-.31h-.82A3.21,3.21,0,0,0,139,4.62a7,7,0,0,1,0,1s0,0,0,0l-.4.33a0,0,0,0,1-.06,0l-.11-.07c-.06,0-.11-.08-.11-.13,0-.73,0-1.38,0-2a2.84,2.84,0,0,0-.41-1.36H137a3.78,3.78,0,0,0-.52,2.46c0,.24,0,.48,0,.72,0,0,0,0,0,0L136,6a0,0,0,0,1-.07,0l-.1-.07c-.06,0-.11-.08-.11-.14,0-1.14,0-2.29,0-3.41V1.83a.06.06,0,0,1,0,0,.58.58,0,0,1,.74,0,1,1,0,0,0,.21.1l.13-.38a.07.07,0,0,1,.05,0h1.59a.05.05,0,0,1,.05,0l.26.4.45-.44,0,0h1.67a.05.05,0,0,1,0,0l.5.55s0,0,0,0V5.6s0,0,0,0l-.35.41Zm-.41-.43.4.3.3-.35V2.09l-.47-.51h-1.63l-.47.47,0,0a0,0,0,0,1,0,0l-.29-.43H136.9l-.14.4s0,0-.06,0a1.43,1.43,0,0,1-.28-.13c-.21-.12-.38-.22-.6,0v.52c0,1.12,0,2.27,0,3.41l.06,0,.07.06.38-.3c0-.23,0-.46,0-.68a4,4,0,0,1,.56-2.56s0,0,0,0h.91a.05.05,0,0,1,.05,0,3.15,3.15,0,0,1,.44,1.44c0,.61,0,1.26,0,2l.07,0,.08.06.35-.3a8,8,0,0,0,0-1,3.4,3.4,0,0,1,.51-2.29,0,0,0,0,1,0,0h.91l.34.34a0,0,0,0,1,0,0Zm-4.27,0Z"/><path d="M9.83,60.8H8.26l-.91-1.08c0-.72,0-1.38,0-2A1.84,1.84,0,0,1,8,56.07a3.06,3.06,0,0,0,.26-.29h1.5l.52.52a1.34,1.34,0,0,1,.42,1.08c0,.74,0,1.47,0,2.27ZM9,60c.76-.14.4-.75.6-1.11a1.6,1.6,0,0,0-.32-1.68l-.45-.45a2.89,2.89,0,0,0-.36,1.81C8.54,59,8.43,59.63,9,60Z"/><path d="M9.83,60.86H8.26l0,0-.91-1.08a.06.06,0,0,1,0,0v-.65c0-.48,0-.93,0-1.39A1.9,1.9,0,0,1,8,56l.18-.2.08-.09H9.8l.16.17.36.35a1.41,1.41,0,0,1,.44,1.12c0,.51,0,1,0,1.56v.71s0,0,0,0l-.86,1.15Zm-1.55-.11H9.81l.84-1.11v-.7c0-.54,0-1,0-1.56a1.3,1.3,0,0,0-.4-1q-.2-.18-.36-.36l-.15-.15H8.29l-.06.06A1.24,1.24,0,0,1,8,56.1a1.81,1.81,0,0,0-.65,1.58c0,.45,0,.91,0,1.39,0,.21,0,.42,0,.63ZM9,60h0a1.34,1.34,0,0,1-.5-1.09,3.69,3.69,0,0,0,0-.37,3,3,0,0,1,.36-1.85s0,0,0,0,0,0,0,0l.46.46a1.58,1.58,0,0,1,.32,1.73,1,1,0,0,0-.06.4c0,.3,0,.64-.57.75ZM8.8,56.83a2.75,2.75,0,0,0-.32,1.71c0,.13,0,.26.06.39a1.25,1.25,0,0,0,.43,1c.45-.09.46-.35.46-.65a1.08,1.08,0,0,1,.08-.44,1.51,1.51,0,0,0-.31-1.62Z"/><path d="M64.05,116.28a7.8,7.8,0,0,1,2.34-3.18.81.81,0,0,0-.38-1l-.74.64h-.94a1.68,1.68,0,0,1,1.21-1.63h1.17l1,1c.22,1.34-.76,2-1.75,2.74-.08.06-.12.19-.24.4h2v1Z"/><path d="M67.66,116.34H64.05a.05.05,0,0,1,0,0,.06.06,0,0,1,0,0,6.29,6.29,0,0,1,1.88-2.73c.16-.15.31-.31.47-.47a.75.75,0,0,0-.33-.92l-.72.62h-1a0,0,0,0,1,0,0,1.72,1.72,0,0,1,1.24-1.68h1.23l1,1a0,0,0,0,1,0,0C68,113.48,67,114.2,66,114.9a.56.56,0,0,0-.12.19.67.67,0,0,0-.06.12h1.87a0,0,0,0,1,0,.05v1A.06.06,0,0,1,67.66,116.34Zm-3.54-.11h3.49v-.92H65.7l0,0a.06.06,0,0,1,0-.06,1.3,1.3,0,0,0,.11-.19.56.56,0,0,1,.15-.22c1-.71,1.93-1.38,1.73-2.67l-1-1H65.55a1.64,1.64,0,0,0-1.17,1.53h.87l.73-.63s0,0,.06,0a.88.88,0,0,1,.41,1.07l0,0c-.15.17-.31.33-.48.49A6.31,6.31,0,0,0,64.12,116.23Z"/><path d="M133.87,3.19c0-.57-.38-.77-.74-1L132,3h-.62v-.8l.89-.65H134l.73.75V4c0,.31-.13.77,0,.91s-.12.48.25.69l-.74.35-.42-.42a2.75,2.75,0,0,0-.55.15,1.59,1.59,0,0,1-2.13-.52v-1C131.8,3.11,132.84,3.14,133.87,3.19Zm-1.16,1.92c.56-.2,1-.39,1.09-1.08a2,2,0,0,0-1.89.69Z"/><path d="M134.26,6l0,0-.4-.39-.16,0a1.6,1.6,0,0,0-.35.11,1.64,1.64,0,0,1-2.19-.54,0,0,0,0,1,0,0v-1a0,0,0,0,1,0,0c.64-1.13,1.73-1.1,2.7-1.05,0-.44-.28-.63-.59-.85l-.1-.07-1.06.8h-.66a.06.06,0,0,1,0-.06v-.8a.05.05,0,0,1,0,0l.89-.65H134l.73.75a.06.06,0,0,1,0,0V4c0,.1,0,.21,0,.32s-.05.47,0,.55a.38.38,0,0,1,.11.37c0,.13,0,.22.14.31a.05.05,0,0,1,0,0s0,0,0,0l-.75.36Zm-.42-.52h0l.39.39.63-.29a.36.36,0,0,1-.12-.37c0-.1,0-.19-.07-.27s-.1-.37-.07-.64a1.71,1.71,0,0,0,0-.31V2.29l-.7-.72h-1.65l-.86.63v.72H132l1.08-.81h.06l.13.09a1.15,1.15,0,0,1,.64,1,.08.08,0,0,1,0,0h0c-1-.05-2-.09-2.66,1v.94a1.53,1.53,0,0,0,2,.5,1.53,1.53,0,0,1,.38-.12l.19,0Zm-1.13-.35h0l-.81-.39,0,0a0,0,0,0,1,0,0A2.06,2.06,0,0,1,133.8,4l0,0s0,0,0,0c0,.74-.61.94-1.12,1.12ZM132,4.7l.72.36c.59-.21,1-.4,1-1A2,2,0,0,0,132,4.7Z"/><path d="M94.12,113.48l.79-.73-.31-.62c-.42,0-.48.32-.6.61H92.86a1.25,1.25,0,0,1,.41-1.16A1.88,1.88,0,0,1,95,111.1l.9.9v1.08l-.47.52.7.74v.89a1.42,1.42,0,0,1-1.69,1.09c-.31,0-.62,0-1,0l-.9-1.2c.2-.57.61-.47,1.08-.47l.51.6c.5.12.66-.24.93-.48l-.5-.82-.48.26Z"/><path d="M94.71,116.39h-.23a4.65,4.65,0,0,0-.65,0h-.35a.05.05,0,0,1,0,0l-.9-1.2a.09.09,0,0,1,0-.05c.19-.53.56-.52,1-.51h.18a.05.05,0,0,1,0,0l.5.6c.34.07.5-.1.69-.3l.15-.15-.46-.74-.44.24h0a.05.05,0,0,1,0-.05v-.73a.05.05,0,0,1,0,0l.77-.7-.28-.56c-.31,0-.38.22-.48.47a.49.49,0,0,1,0,.11,0,0,0,0,1,0,0H92.86s0,0,0,0a1.29,1.29,0,0,1,.42-1.2A2,2,0,0,1,95,111l0,0L96,112a0,0,0,0,1,0,0v1.08a0,0,0,0,1,0,0l-.44.49.67.7s0,0,0,0v.89h0A1.44,1.44,0,0,1,94.71,116.39Zm-.58-.13h.36a1.37,1.37,0,0,0,1.63-1v-.86l-.69-.73a0,0,0,0,1,0-.07l.46-.5v-1l-.88-.88a1.76,1.76,0,0,0-1.7.47,1.23,1.23,0,0,0-.41,1.07H94l0-.08c.09-.26.19-.54.59-.54a.07.07,0,0,1,.06,0l.31.63a.07.07,0,0,1,0,.06l-.78.71v.62l.41-.22a.07.07,0,0,1,.07,0l.5.83s0,0,0,.06L95,115a.74.74,0,0,1-.81.32h0l-.49-.59h-.16c-.39,0-.68,0-.84.41l.86,1.16h.63Z"/><path d="M3.81,9.9A1.35,1.35,0,0,1,4.87,8.24H6.22l.71.81a1,1,0,0,0,0,.19A2.58,2.58,0,0,1,5.34,12c-.06,0-.07.17-.14.35H6.89v1s0,0,0,0H3.61v-.71c.38-.46.76-.94,1.16-1.39A4.19,4.19,0,0,0,5.88,9.9l-.29-.62H5.18c-.15.2-.26.5-.46.59A2.41,2.41,0,0,1,3.81,9.9Z"/><path d="M4.36,13.48H3.61a0,0,0,0,1,0-.05v-.71s0,0,0,0l.34-.42c.27-.32.54-.66.82-1L5.06,11a2.83,2.83,0,0,0,.77-1.05l-.28-.58H5.2l-.1.18a.91.91,0,0,1-.36.41,1.29,1.29,0,0,1-.6.05l-.33,0a.05.05,0,0,1-.05,0A1.39,1.39,0,0,1,4.85,8.19H6.22l0,0L7,9a.08.08,0,0,1,0,0v0a.81.81,0,0,0,0,.16,2.62,2.62,0,0,1-1.61,2.84s0,.07-.07.14l0,.1H6.89a.06.06,0,0,1,.06.06v1s0,.07-.09.07Zm-.7-.1H6.84v-.95H5.2l0,0a0,0,0,0,1,0-.05,1.54,1.54,0,0,0,0-.17c0-.1.06-.17.12-.21A2.51,2.51,0,0,0,6.88,9.25a1,1,0,0,1,0-.18l-.69-.78H4.87a1.28,1.28,0,0,0-1,1.56h.29a1.23,1.23,0,0,0,.55,0A.86.86,0,0,0,5,9.45a2.26,2.26,0,0,1,.13-.2l0,0h.41s0,0,0,0l.3.62a0,0,0,0,1,0,0A2.84,2.84,0,0,1,5.13,11a3.34,3.34,0,0,0-.32.33c-.28.31-.55.64-.82,1l-.33.4Z"/><path d="M3.39,92.4v-.67c.36-.45.74-.92,1.13-1.38s.81-.9,1.21-1.35l-.37-.75H4.94l-.35.61H3.66c-.24-.43,0-.78.16-1.13l.76-.53H6l.7.7v1.5a9.19,9.19,0,0,1-1.63,2H6.7v1Z"/><path d="M6.7,92.45H3.39a.06.06,0,0,1-.06,0v-.67s0,0,0,0l.34-.42.8-1,.84-.94c.12-.12.24-.25.35-.38l-.34-.68H5l-.34.57s0,0,0,0H3.66a.05.05,0,0,1-.05,0,1,1,0,0,1,.06-.94,2.29,2.29,0,0,0,.1-.23l0,0,.76-.52H6l0,0,.7.7a0,0,0,0,1,0,0v1.52a5,5,0,0,1-1.08,1.39l-.48.52H6.7a0,0,0,0,1,0,0v1A0,0,0,0,1,6.7,92.45Zm-3.26-.1H6.65v-.92H5.06a.05.05,0,0,1,0,0s0,0,0-.05c.18-.22.38-.42.57-.61a5.4,5.4,0,0,0,1-1.35V87.92L6,87.26H4.6l-.74.5a1.45,1.45,0,0,1-.09.22.88.88,0,0,0-.08.82h.87l.33-.57a.05.05,0,0,1,.05,0h.42a.05.05,0,0,1,0,0l.37.74s0,0,0,.06l-.37.42c-.28.3-.57.61-.84.93l-.8,1-.32.4Z"/><path d="M131.61,18.07h-1.1l-.13,0c-.23-.62-.48-1.25-.68-1.89a13.52,13.52,0,0,0-.73-1.78c-.31-.62-.18-1.38-.81-1.93h1.07a17.13,17.13,0,0,0,.72,2,13.66,13.66,0,0,0,.83,2.26,4.17,4.17,0,0,0,.26.41,5.88,5.88,0,0,1,.84-2.22,2.54,2.54,0,0,0,.22-.64c.21-.61.41-1.22.61-1.86h1a18.23,18.23,0,0,1-1,2.79C132.32,16.17,132,17.1,131.61,18.07Z"/><path d="M131,18.12h-.66a.05.05,0,0,1,0,0l-.21-.57c-.16-.43-.33-.88-.47-1.33a12.29,12.29,0,0,0-.73-1.77,3.25,3.25,0,0,1-.23-.73,2,2,0,0,0-.56-1.18,0,0,0,0,1,0-.05.05.05,0,0,1,0,0h1.07a.05.05,0,0,1,.05,0,3.91,3.91,0,0,0,.37,1.09,5.75,5.75,0,0,1,.35.93,12.45,12.45,0,0,0,.83,2.25A1,1,0,0,0,131,17L131,17a5.68,5.68,0,0,1,.81-2.12,1.17,1.17,0,0,0,.17-.43c0-.06,0-.13.05-.19l.45-1.38.16-.49a.05.05,0,0,1,.05,0h1a0,0,0,0,1,0,0s0,0,0,0a6.09,6.09,0,0,1-.6,1.71,6.94,6.94,0,0,0-.45,1.09c-.21.66-.44,1.3-.69,2-.11.29-.21.58-.32.88a.05.05,0,0,1,0,0H131Zm-.61-.12h1.16l.3-.85c.25-.67.48-1.3.69-2a8.18,8.18,0,0,1,.45-1.1,6.33,6.33,0,0,0,.59-1.63h-.86l-.15.46-.45,1.37c0,.06,0,.13-.05.19a1.52,1.52,0,0,1-.18.46,5.8,5.8,0,0,0-.83,2.2,0,0,0,0,1,0,0,0,0,0,0,1-.05,0l-.11-.17a1.43,1.43,0,0,1-.16-.24,13.2,13.2,0,0,1-.83-2.27,5.64,5.64,0,0,0-.35-.92,4.39,4.39,0,0,1-.37-1.07h-.89a2.15,2.15,0,0,1,.51,1.13,2.78,2.78,0,0,0,.21.71,12.59,12.59,0,0,1,.74,1.79c.14.45.31.9.47,1.33C130.29,17.65,130.35,17.83,130.42,18Z"/><path d="M6.27,74.8l.63.08v.75l-.58.1v1h-1l-.25-.25c.28-.29-.06-.49-.1-.77H3.4V74.55c.77-1,1-2.25,2-3H6l.27.27ZM4.45,75l.82-.33-.21-.33.22-.85C4.93,73.86,4.33,74.12,4.45,75Z"/><path d="M6.32,76.74h-1a.05.05,0,0,1,0,0L5,76.47a0,0,0,0,1,0-.07c.16-.16.09-.28,0-.44a1.63,1.63,0,0,1-.11-.23H3.4a.06.06,0,0,1,0-.06V74.55s0,0,0,0a7,7,0,0,0,.78-1.32,5.25,5.25,0,0,1,1.19-1.73H6l.27.27a.05.05,0,0,1,0,0v3l.59.06a.07.07,0,0,1,0,.06v.75a0,0,0,0,1,0,.05l-.54.09v.92A.06.06,0,0,1,6.32,76.74Zm-1-.11h.92v-.9a0,0,0,0,1,0,0l.54-.09v-.67l-.59-.06a.06.06,0,0,1,0-.06v-3L6,71.55h-.6a4.85,4.85,0,0,0-1.14,1.69,7.1,7.1,0,0,1-.79,1.32v1.06H5a.07.07,0,0,1,0,0,.77.77,0,0,0,.1.25.41.41,0,0,1,0,.53ZM4.45,75h0a.05.05,0,0,1,0,0A1.3,1.3,0,0,1,5,73.68a2.37,2.37,0,0,0,.27-.28.09.09,0,0,1,.07,0,0,0,0,0,1,0,.06l-.22.83.21.31a0,0,0,0,1,0,0,0,0,0,0,1,0,0L4.47,75Zm.73-1.38L5,73.76a1.2,1.2,0,0,0-.54,1.12l.7-.29L5,74.32s0,0,0,0Z"/><path d="M123,116.28v-1h-1.62V114c.58-1,1.14-1.93,1.72-2.91H124v3.09l.84.34v.65l-.8.29v.81Zm0-3c0,.41-1,.56-.54,1.14H123Z"/><path d="M124,116.34H123a.06.06,0,0,1,0-.06v-.93h-1.57a0,0,0,0,1,0,0V114s0,0,0,0l1.71-2.91a.05.05,0,0,1,0,0H124a0,0,0,0,1,0,0v3.05l.81.33a.07.07,0,0,1,0,0v.65a0,0,0,0,1,0,0l-.77.27v.78A.06.06,0,0,1,124,116.34Zm-1-.11H124v-.76a.05.05,0,0,1,0,0l.77-.27v-.59l-.81-.32a.05.05,0,0,1,0,0v-3h-.84l-1.7,2.87v1.22H123a.06.06,0,0,1,.06,0Zm-.07-1.78h-.54l-.05,0c-.27-.4,0-.63.24-.81s.28-.23.3-.36a0,0,0,0,1,0-.05.05.05,0,0,1,0,.05v1.14A0,0,0,0,1,123,114.45Zm-.51-.1h.46v-.86a2.29,2.29,0,0,1-.23.21C122.46,113.88,122.26,114.05,122.46,114.35Z"/><path d="M123.76,12.43h.66v3.49l.84.09v.5l-.8.29V18h-.6l-.06-1.14-.27-.27h-1.9l-.29-.55c.38-.59.76-1.2,1.16-1.8S123.31,13.08,123.76,12.43ZM123.53,16c.35-.49.35-.49.21-2L123,15c-.21.3-.41.62-.64,1Z"/><path d="M124.46,18.08h-.6a0,0,0,0,1,0,0l-.06-1.11-.24-.25h-1.88a.05.05,0,0,1,0,0l-.28-.55a0,0,0,0,1,0-.05l.34-.54.81-1.26c.28-.42.56-.82.86-1.25l.4-.59a.05.05,0,0,1,.05,0h.66a.06.06,0,0,1,0,.06v3.44l.8.09a0,0,0,0,1,0,.05v.5s0,0,0,0l-.77.28V18A0,0,0,0,1,124.46,18.08Zm-.55-.1h.5V16.8a.05.05,0,0,1,0-.05l.77-.27v-.42l-.8-.09s0,0,0-.05V12.48h-.59l-.39.57-.85,1.25q-.42.63-.81,1.26l-.33.51.26.5h1.91l.27.28s0,0,0,0Zm-.38-2h-1.15s0,0,0,0a0,0,0,0,1,0-.05l.21-.31c.14-.23.28-.44.43-.65l.47-.66.25-.34a0,0,0,0,1,.06,0,0,0,0,0,1,0,.05c.14,1.45.15,1.48-.21,2Zm-1-.11h1c.31-.43.32-.47.19-1.76l-.16.23c-.18.24-.33.45-.47.66l-.44.64Z"/><path d="M95.29,30.16,94.41,29l-.66,1c-.48.12-.66-.28-.89-.49l.71-1.12-1.09-.1c-.29-.37.16-.64.19-1,.46-.16.75.14,1.15.37l.07-.95c.22-.4.59-.3,1-.3V27.7c.52-.18.9-.59,1.43-.38l.28.62c-.23.57-.91.32-1.25.7l.67,1Z"/><path d="M95.29,30.21a0,0,0,0,1,0,0l-.83-1.12-.63,1s0,0,0,0a.73.73,0,0,1-.78-.35l-.15-.16s0,0,0-.06l.66-1-1-.09a.05.05,0,0,1,0,0c-.21-.27-.08-.49,0-.69a.87.87,0,0,0,.13-.32.07.07,0,0,1,0,0,1.06,1.06,0,0,1,1,.24l.14.09.07-.86s0,0,0,0c.19-.36.51-.35.84-.33h.2l0,0a0,0,0,0,1,0,0v1.18a3,3,0,0,0,.36-.18,1.16,1.16,0,0,1,1-.17,0,0,0,0,1,0,0l.29.62v0a.84.84,0,0,1-.72.47,1.21,1.21,0,0,0-.52.21l.65,1a0,0,0,0,1,0,.07l-.73.49Zm-.88-1.29,0,0,.84,1.15.64-.43-.64-1a0,0,0,0,1,0-.06,1.1,1.1,0,0,1,.6-.27c.26-.06.51-.11.63-.38l-.26-.58a1.06,1.06,0,0,0-.93.18,4.48,4.48,0,0,1-.44.2,0,0,0,0,1,0,0,.05.05,0,0,1,0,0V26.51h-.16c-.32,0-.57,0-.74.27l-.07.93a.05.05,0,0,1,0,.05h0l-.22-.14a1,1,0,0,0-.86-.24,1,1,0,0,1-.14.33c-.11.19-.21.35-.06.55l1.06.1a.05.05,0,0,1,.05,0s0,0,0,.05l-.68,1.08.13.14c.16.19.33.39.66.31l.65-1s0,0,0,0Z"/><path d="M63.74,17.24l.26-.83a.71.71,0,0,1,.29,0c.34.11.67.25,1.06.39l.05-1.17a1.2,1.2,0,0,1,1,.21v1c.5-.23.9-.58,1.45-.35v.92c-.31.2-.83-.19-1,.42l.45.7-.55.61h-.27l-.6-1.17-.7,1.23-1-.35.66-1c-.09-.3-.32-.34-.61-.36A2.54,2.54,0,0,1,63.74,17.24Z"/><path d="M65.22,19.22h0l-1-.35,0,0a.06.06,0,0,1,0,0l.64-1c-.08-.23-.25-.28-.55-.3a1.39,1.39,0,0,1-.45-.14l-.14-.06a0,0,0,0,1,0-.06l.26-.83s0,0,0,0h.09a.36.36,0,0,1,.23,0l.74.27.25.1,0-1.1a0,0,0,0,1,.05,0,1.25,1.25,0,0,1,1,.22s0,0,0,0v.9l.23-.12a1.29,1.29,0,0,1,1.19-.2.05.05,0,0,1,0,.05v.92a.05.05,0,0,1,0,0,.64.64,0,0,1-.43.07c-.24,0-.43,0-.52.3l.43.68a0,0,0,0,1,0,.06l-.55.61,0,0h-.27s0,0,0,0l-.56-1.08-.65,1.15Zm-.88-.43.86.32.67-1.19a.06.06,0,0,1,.1,0l.59,1.14h.2l.51-.57-.42-.67s0,0,0,0c.11-.42.39-.4.63-.39a.79.79,0,0,0,.35,0v-.86a1.22,1.22,0,0,0-1.07.21l-.31.16h0a.05.05,0,0,1,0,0v-.95a1.14,1.14,0,0,0-.92-.19l0,1.13,0,0a0,0,0,0,1,0,0L65,16.72l-.73-.27a.37.37,0,0,0-.18,0H64l-.24.74.11.05a1.31,1.31,0,0,0,.41.13c.28,0,.54.06.65.4a.06.06,0,0,1,0,0Z"/><path d="M127.81,6l-.61-.33V.1h.57c0,.27,0,.6,0,.94v1l.78-.53h1.26l.47.78V5.89l-.6,0V3.2l-.47-.81h-1A2.53,2.53,0,0,0,127.8,4C127.82,4.65,127.81,5.27,127.81,6Z"/><path d="M127.81,6.06h0l-.6-.33s0,0,0,0V.1a.06.06,0,0,1,0-.06h.57a.05.05,0,0,1,0,0V.34c0,.22,0,.46,0,.69V2l.7-.48h1.29s0,0,0,0l.47.78a0,0,0,0,1,0,0V5.89a0,0,0,0,1-.05.05l-.6,0,0,0s0,0,0,0V3.22l-.45-.78h-.91A2.4,2.4,0,0,0,127.86,4c0,.43,0,.86,0,1.31V6s0,0,0,0Zm-.55-.41.49.27c0-.2,0-.39,0-.58,0-.45,0-.88,0-1.3a2.44,2.44,0,0,1,.49-1.68s0,0,0,0h1a.05.05,0,0,1,0,0l.47.82s0,0,0,0V5.87l.49,0V2.34l-.44-.74h-1.21l-.77.52a.07.07,0,0,1-.06,0,.09.09,0,0,1,0,0c0-.14,0-.27,0-.39s0-.45,0-.65,0-.48,0-.7V.15h-.46Z"/><path d="M37.74,111.09h.57v5.19h-1v-3.52l-1.22.6V112.3Z"/><path d="M38.31,116.33h-1a.05.05,0,0,1-.05,0v-3.44l-1.15.57a0,0,0,0,1,0,0,.08.08,0,0,1,0,0V112.3a.05.05,0,0,1,0,0L37.71,111h.6a.06.06,0,0,1,0,.06v5.19A0,0,0,0,1,38.31,116.33Zm-.94-.1h.88v-5.09h-.49l-1.62,1.19v1l1.15-.57h.05a.05.05,0,0,1,0,.05Z"/><path d="M.05,25.16,1.68,24h.6v5.18h-1V25.58l-1.26.64Z"/><path d="M2.28,29.19h-1a0,0,0,0,1-.05-.05V25.67l-1.18.6a0,0,0,0,1,0,0,.05.05,0,0,1,0-.05V25.16a.08.08,0,0,1,0,0l1.63-1.2h.63a0,0,0,0,1,.05.05v5.18A0,0,0,0,1,2.28,29.19Zm-.92-.1h.87V24H1.7L.11,25.19v.95l1.17-.6h.06l0,0Z"/><path d="M.05,9.29H.57l.92-1.06h.79v5.2h-1V9.87l-1.26.64Z"/><path d="M2.28,13.48h-1a.06.06,0,0,1-.06-.05V10l-1.17.6H0a.05.05,0,0,1,0,0V9.29a.06.06,0,0,1,.05-.06H.54l.91-1,0,0h.79a0,0,0,0,1,.05.05v5.2A0,0,0,0,1,2.28,13.48Zm-.92-.1h.87V8.28H1.52l-.91,1,0,0H.1v1.08l1.18-.59h.05a.05.05,0,0,1,0,0Z"/><path d="M127.77,16.59h-2v-.77h2Z"/><path d="M127.77,16.64h-2a.05.05,0,0,1,0-.05v-.77a.06.06,0,0,1,0-.06h2a.06.06,0,0,1,0,.06v.77A.05.05,0,0,1,127.77,16.64Zm-2-.11h1.92v-.66H125.8Z"/></g></g></svg>