<svg xmlns="http://www.w3.org/2000/svg" viewBox="0 0 243.61 164.32"><title>Recurso 5ART</title><g id="Capa_2" data-name="Capa 2"><g id="Capa_1-2" data-name="Capa 1"><path d="M172.62,42.41l-.17.07v.64l-.23.27V44l-.22.25V46l-.2.21c-.08.34,0,.74-.05,1.14l-.14.14s-.05.06-.05.09c0,.8,0,1.61,0,2.26a2.88,2.88,0,0,0-.21.51,3.07,3.07,0,0,1-.05.53c0,.12-.2.19-.18.36a3.53,3.53,0,0,1,0,.46l-.21.25v.63l-.22.25v.87l.22.24v.42c.14.21.42.29.45.6a.41.41,0,0,0,.26.32c.45.12.67.51,1,.79.13.12.25.26.36.38s.31,0,.36-.18c.08-.37.38-.64.44-1l1-1,.32-.1v-.73c.24-.15.36,0,.5.14h1.87l1.1.56a2.27,2.27,0,0,0,.62.53,2.48,2.48,0,0,1,.66.53c.25.21.46.47.71.69.07.06.19.06.27.12s.33.22.38.36a.72.72,0,0,0,.55.54c.28.09.4.51.77.44v.3c.28.32.65.56.78,1,.08.24.38.16.53.31l0,.25c.53.35.7,1,1.22,1.43,0,0,.06.12.09.18s.15.31.22.46,0,.07,0,.12a4.55,4.55,0,0,1,.84.86,5.31,5.31,0,0,1,.48,1v.53l.21.24-.18.18v.56l-.68,1.3v.6c-.38.17-.43.61-.66.91-.06.09,0,.28,0,.4.16.14.27.14.41,0s.63-.19.72-.55l.59-.07.06-.31c.21-.13.58-.17.62-.47s.3-.39.45-.61l-.21-.23v-.42l-.21-.23c-.07-.23.11-.33.23-.47V63.58s0,0,.11-.11c.2.57,0,1.15.13,1.73l.28.06c.37-.38.73-.74,1.1-1.1,0,0,.12-.12.11-.17,0-.36.42-.39.45-.7a.7.7,0,0,1,.06-.19l.33-.09.07-.33a1.92,1.92,0,0,0,.35-.35,1.18,1.18,0,0,0,.14-.37h.24c.19-.17.16-.46.39-.61a2.87,2.87,0,0,0,.39-.39c-.09-.4.47-.44.44-.8l.88-1s0-.14,0-.18a8.53,8.53,0,0,1,.85-.85c.3-.23.2-.72.66-.81v-1c.26-.22.52-.08.86-.14l.53-.59c.16-.15.29-.4.47-.44a1.32,1.32,0,0,0,.61-.41c.16-.15.28-.4.47-.45.46-.13.68-.51,1-.8a4,4,0,0,1,.69-.47,3.1,3.1,0,0,0,.58-.56c.37,0,.45.31.65.44h.87c.32-.24.51-.59.93-.72s.4-.61.84-.6c.28-.21.45-.53.82-.67s.49-.42.73-.64h.86l.23.21h1.11c.17-.38.66,0,.84-.42l.24.2h1.29l.25.23h.87l.24.22h2.19l.2.2.35,0c.06,0,.1,0,.12,0a7,7,0,0,0,.74-.8c.06-.09.09-.25.2-.35s.41-.29.44-.47a.87.87,0,0,1,.34-.52c.18-.17.14-.47.38-.62s.3-.33.47-.45.32-.56.55-.76.23-.52.46-.7c0-.33.28-.47.46-.68v-.22a3.55,3.55,0,0,0,.53-.32,5,5,0,0,0,.46-.46c.23.07.33-.11.44-.2h.44l.25.21h.54a3.61,3.61,0,0,1,.48.22,2.23,2.23,0,0,1,.4.35c.13.14.36,0,.47.23s.21.2.3.32a4.77,4.77,0,0,0,.24.44c.11.14.05.33.21.47s.08.33.11.51l.19.22v.57a.5.5,0,0,0,.11.17c.43.43.43.43,1.26.67a.92.92,0,0,0,.78.22c.07,0,.18,0,.2,0,.16.34.56,0,.76.3s.41.11.53.31h.65l.19.19H228l.85.45h.84l.35.46h.5l.25.22h.33l.6.29.5.5a6.75,6.75,0,0,1,.53.54c.16.19.2.44.39.62a2.4,2.4,0,0,1,.37.71,2,2,0,0,1,.25.68A5.78,5.78,0,0,0,234,55c.05.22.24.42.19.69l.22.24v1.53l.22.23-.2.2.2.26v1.95c.19.19.39.07.55.12l.24.21c.42,0,.42,0,1.07.43H237l.81.45h.36l.25.22H239a6.53,6.53,0,0,0,.91.43,2,2,0,0,1,1.16.67h.22l1.19,1.2a6.61,6.61,0,0,0,.68,1.57v1.06l.22.24v2.41l.16.16a.76.76,0,0,1,.06.2v1.4l-.2.19V73.2l-.24.32v2.39l-.21.2v2.18l-.22.25v2.62l-.23.24v1.53l-.16.16s-.06.06-.06.09v2.39l-.19.19v1.5l-.25.32V90l-.21.2v1.52l-.22.25v2.62l-.23.25V95.9l-.21.21c0,.55,0,1.17,0,1.76l-.21.21v1.1l-.23.23v1.76l-.21.21v1.08l-.22.25v1.74l-.15.16s-.07,0-.07.08c0,.51,0,1,0,1.53l-.17.16s-.05.06-.05.09c0,.36,0,.72,0,1.07l-.22.21v2l-.23.23v1.1l-.2.2v2l-.23.25v1.1l-.11.1c-.07.07-.11.1-.11.13v1.52l-.19.19c-.09.44,0,.91-.05,1.37l-.2.2v2l-.23.24v1.31l-.2.21v1.3l-.23.25v1.53l-.12.12c-.06.06-.1.09-.1.11v1.09l-.2.2v1.76l-.24.23v.88l-.23.23v1.32l-.2.2v1.09l-.23.24v.88l-.19.18v.89l-.23.23v1.1l-.24.23v.88l-.23.24v.87l-.2.21v.64l-.23.24v.88l-.19.19v.66c-.09.09-.19.14-.19.2,0,.45-.39.83-.27,1.29l-.44.79v.37l-.23.24v.36l-.87,1.69a3.88,3.88,0,0,0-.22.46c0,.13,0,.3-.08.4a.51.51,0,0,0-.15.38c-.34.22-.41.66-.69.92s-.58.57-.86.86c-.1.1-.21.29-.31.29-.36,0-.44.35-.7.46a2.32,2.32,0,0,0-.82.4c-.06.06-.21,0-.31,0a3.26,3.26,0,0,0-.45.21h-.34l-.24.23H227l-.19.19H226l-.24.24h-1.32l-.2.21h-1.92a1.75,1.75,0,0,1-.38.23,2.05,2.05,0,0,1-.43,0l-.06.57-.4.41v.38c-.12.29-.46.37-.48.73s-.35.3-.44.58a1.26,1.26,0,0,1-.47.56c-.21.17-.11.52-.39.61a2.72,2.72,0,0,0-1.06.87c-.16.16-.43.08-.54.3-.32,0-.48.28-.7.49-.13,0-.31-.06-.41,0-.37.26-.82.36-1.16.64h-.55l-.79.43h-.79L213,158h-.63l-.25.22h-1.53l-.23.22h-.43l-.23-.2h-2c-.15.25-.45.35-.54.66s-.35.38-.41.6-.37.43-.55.7h-.9l-.2.21H202.9l-.62-.35c-.18-.1-.41-.11-.54-.3-.28.08-.39-.34-.68-.22a.31.31,0,0,1-.21,0c-.2-.12-.39-.34-.61-.36s-.35-.3-.55-.26-.44-.21-.68-.22-.31-.33-.56-.24c-.16-.28-.45-.17-.67-.24l-.41-.41c-.13,0-.33.06-.4,0s-.55-.16-.71-.43h-1.48a6.41,6.41,0,0,1-.66-.39,2.81,2.81,0,0,1-.54-.55c-.2-.27-.54-.33-.77-.54s-.47-.46-.7-.7-.45-.48-.7-.69-.41-.25-.6-.4a4.08,4.08,0,0,1-.47-.46c-.18-.18-.33-.43-.55-.53a5.77,5.77,0,0,1-1.53-1.34c-.33-.33-.84-.42-1.08-.9a2.2,2.2,0,0,0-.23-.73c-.12-.32-.34-.4-.61-.51a4.22,4.22,0,0,1-.66-.38h-1l-.24-.23H184l-.25-.22h-.65c-.13-.25-.36-.21-.67-.21l-.22-.43h-.62a1.68,1.68,0,0,0-.84-.6A2.23,2.23,0,0,1,180,147h-.37c-.31-.11-.38-.52-.74-.46-.22-.17-.36-.42-.69-.48a1.75,1.75,0,0,1-.6-.37c-.23-.16-.35-.48-.71-.48l-1.06-1.07-.27,0c0-.11-.07-.23,0-.14l-1.17-1.17c-.46.14-.47.66-.68,1,0,0,0,.06-.08.06l-.24,0-.13.43a3.61,3.61,0,0,0-.53.49c-.14.19-.16.47-.3.64a8.13,8.13,0,0,1-.66.93c-.21.21-.2.52-.44.72a1.09,1.09,0,0,0-.38.6,1.14,1.14,0,0,1-.33.52c-.16.18-.37.31-.41.61s-.36.29-.42.59-.34.37-.41.59-.41.36-.43.59-.34.38-.27.66c-.18.18-.37.36-.54.55s0,.23-.1.28c-.25.21-.2.63-.53.78a1.46,1.46,0,0,1-.54.75c-.27.21-.25.58-.54.78a5.17,5.17,0,0,0-.65.68h-.48l-.17.17c-.19,0-.3-.24-.55-.19s-.3-.13-.45-.2c-.31-.14-.3-.15-.48-.49a11.06,11.06,0,0,0-.58-1.07c-.16-.24.08-.62-.29-.76,0-.3-.39-.46-.22-.79a1.62,1.62,0,0,1-.27-.77,3.46,3.46,0,0,0-.39-.67v-1.7c.37-.49.51-1.1.87-1.6,0-.18-.12-.25-.18-.37a2.08,2.08,0,0,1-.05-.5l-.55-.45c-.13.06-.36.09-.47.23-.23.3-.62.34-.85.61s-.6.23-.81.43c-.58.58-1.45.66-2,1.27a1.35,1.35,0,0,1-.45.22.94.94,0,0,0-.44.26h-.45l-.38.38c-.26.09-.58,0-.77.28-.43.1-.75.48-1.24.45-.14,0-.24.27-.46.21-.16.26-.52.21-.7.43a.84.84,0,0,0-.68.22c-.35-.15-.55.25-.89.25a1.33,1.33,0,0,0-.73.34c-.17.13-.36,0-.52.08s-.18.26-.35.21-.42.23-.68.22h-.72l-.23.23h-.88l-.2.2h-1.3l-.25.23h-.64l-.25.22h-3.29l-.15.16c-1.28.1-20,.13-24.9,0l-.2-.2h-1.31l-.24-.23h-1.32l-.23-.23h-.88l-.2-.2h-.86l-.25-.23h-.65l-.24-.23H109c-.06-.06-.1-.15-.16-.15-.52-.06-1-.44-1.5-.26l-.8-.45H106l-.24-.23h-.43l-.16-.16c-.2-.15-.5.06-.69-.22s-.4,0-.59-.15a1,1,0,0,0-.62-.32c-.28,0-.45-.22-.68-.23s-.43,0-.57-.23c-.28.1-.38-.35-.68-.23s-.34-.19-.56-.23-.41-.25-.74-.19l-.29-.45h-.56l-.24-.22h-.43l-.55.55c0,.07,0,.17,0,.22l-.65.72c0,.37-.5.41-.46.81,0,.09-.17.21-.28.31a2.51,2.51,0,0,0-.62,1l-1.07,1.07-1.06.52H92.15a1.58,1.58,0,0,0-.29-.2,6.36,6.36,0,0,1-.65-.28c-.21-.12-.3-.42-.61-.38-.11-.22-.38-.17-.53-.31a3.5,3.5,0,0,1-.54-.55c-.18-.26-.52-.21-.7-.45a1.49,1.49,0,0,0-.67-.5c-.25-.09-.42-.4-.64-.59,0,0-.14,0-.23,0a7,7,0,0,0-.61-.61c-.21-.18-.31-.52-.67-.49l-.65-.62-.31-.07-.08-.33-.31-.11c-.57-.47-1-1.11-1.64-1.41V146l-.4-.14-.06-.29-1.18-1.18H80.5c-.13,0-.19.32-.42.2l-.48.46h-.44c-.13.24-.36.21-.58.21l-.17.11c-.32.19-.38.59-.62.84l-.7.7c-.26.26-.54.5-.77.78s-.66.41-.93.69-.57.56-.86.84c-.4,0-.48.53-.9.48a1.86,1.86,0,0,1-.76.54,5.23,5.23,0,0,0-.91.47c-.1.08-.3.07-.36.17s-.48.28-.69.46-.29.35-.48.45a2.37,2.37,0,0,0-.53.31c-.17.17-.43.24-.59.41s-.4.16-.53.31-.43.08-.54.3c-.41,0-.49.51-.9.49-.34.29-.8.37-1.15.66-.32,0-.4.27-.61.41s-.38,0-.6.13a15.59,15.59,0,0,1-2.09,1c-.1,0-.2.2-.25.17-.34-.14-.5.26-.79.24-.1,0-.25,0-.3.06s-.49.13-.62.38h-.56a2.8,2.8,0,0,0-.62.32c-.22.22-.6,0-.76.3-.22.07-.52,0-.67.25h-.65l-.25.22H57l-.24.23H56.1c-.16.28-.44.19-.67.24-.15.29-.5.09-.66.24s-.42.1-.59.19a1,1,0,0,1-.69.2l-.24.22h-.43l-.24.23h-.43l-.16.16c-.17.15-.44-.06-.6.15s-.33.14-.5.11-.38.23-.56.21-.47.24-.68.22-.44.2-.68.24-.39.29-.68.23-.31.28-.57.21-.37.3-.68.24-.46.33-.78.2c-.15.22-.45.18-.62.36s-.61-.07-.76.3c-.35-.14-.57.21-.88.25-.09,0-.2.2-.25.18-.33-.14-.51.29-.79.22s-.4.34-.68.22-.38.34-.68.24c-.05,0-.15.14-.22.21h-.56a3.43,3.43,0,0,0-.63.33c-.23.2-.6,0-.76.3-.23,0-.51,0-.67.24h-.43l-.24.22H35.46l-.16-.16c-.21-.11-.43,0-.64-.06s-.66-.34-1-.49c-.19-.08-.25-.37-.5-.38s-.32-.18-.41-.31c-.24-.35-.69-.36-.94-.69a7.09,7.09,0,0,0-.77-.78l-.85-.86H28.87l-.13-.14s-.08-.08-.11-.08H26.89l-.2-.21h-1.1l-.2-.19s-.06,0-.09,0a2.4,2.4,0,0,1-.76,0c-.23-.07-.42-.26-.69-.2-.17-.37-.59-.12-.85-.34a3.62,3.62,0,0,0-.81-.41,8.92,8.92,0,0,1-.82-.4,7,7,0,0,0-.69-.47c-.22-.08-.33-.32-.61-.4s-.42-.39-.63-.59l-1.55-1.56c-.1-.1-.3-.21-.29-.31,0-.38-.45-.46-.48-.79s-.29-.32-.39-.5-.17-.45-.28-.65a3.55,3.55,0,0,1-.28-.55c0-.09-.14-.16-.26-.28H15a2.53,2.53,0,0,1-.55,0c-.12,0-.24-.21-.35-.19-.28,0-.45-.19-.68-.23s-.43,0-.57-.22c-.29.12-.38-.35-.67-.24-.11-.15-.33-.15-.43-.25s-.4-.14-.55-.29-.26-.28-.42-.31-.34-.26-.5-.39-.26-.26-.39-.39l-1.32-1.32v-.21c-.4-.32-.53-.83-.88-1.18,0-.31-.3-.39-.44-.59.12-.29-.34-.38-.23-.67a2.81,2.81,0,0,1-.38-.61,4.68,4.68,0,0,0-.27-.55,2.5,2.5,0,0,0-.29-.64c-.17-.19-.13-.49-.37-.62.09-.28-.33-.38-.22-.68s-.25-.39-.25-.68-.3-.63-.17-1l-.23-.26v-.86l-.23-.25v-.65L4.4,139v-.88l-.24-.24v-1.09l-.23-.24v-.88l-.2-.2v-1.08l-.23-.26V133l-.23-.25V131l-.19-.19V130l-.22-.22v-1.93l-.25-.32V126l-.2-.21v-1.52L2.18,124v-2L2,121.81v-1.75l-.15-.16s-.06-.06-.06-.09v-2l-.2-.19v-2.82l-.25-.31v-3.05l-.2-.21v-3.49l-.23-.26V104.7l-.22-.25V101.6l-.16-.16s-.06,0-.06-.08V97.87l-.2-.2V95.52L0,95.24V77.64l.19-.19V74l.22-.26V72.4l.23-.24V70.85l.2-.2,0-.47.23-.26c-.2-.51.37-.92.19-1.42.21-.38.5-.7.45-1.16.24-.25.28-.65.59-.81s0-.43.16-.63c.31-.37.34-.92.79-1.19v-.24l1-1,.31-.31s.05-.07.08-.07c.34,0,.45-.37.69-.45a1.83,1.83,0,0,0,.46-.24c.08,0,.22,0,.28-.1.27-.34.76-.39,1-.77h.45l.34-.63c-.18-.33.27-.49.22-.79a1.61,1.61,0,0,1,0-.22l.22-.24v-.38a5.43,5.43,0,0,0,.43-.75,6.81,6.81,0,0,1,1-2.11c.22-.34.39-.72.61-1.06a3.79,3.79,0,0,1,.73-.9c.2-.17.22-.43.38-.62h.22c.17-.29.23-.68.69-.68l.84-.84c.54,0,.63-.71,1.15-.71a2.75,2.75,0,0,1,1.14-.71l.35-.34h.88l.21-.21h1.06l.28-.23H19l.25-.23h.88l.77-.8v-.19l1.32-1.31v-.26l.4-.13.06-.32.42-.13a3.85,3.85,0,0,0,.41-.47c.14-.18.42-.08.53-.3s.44-.21.61-.39.34,0,.51-.1.17-.21.35-.23a1.16,1.16,0,0,0,.39-.21h1l.18-.19h3.29l1,.54a5.23,5.23,0,0,1,1,.53c.57.09.91.6,1.43.79.14.34.57.27.77.54s.54.28.8.44.38.34.6.42.35.41.58.43.4.26.66.29.29.39.6.41c.14,0,.27.22.4.35s.22.28.32.27c.36,0,.41.42.7.45s.37.32.59.44,0,.47.34.45.31.31.56.24c.43.27.9.48,1.35.71a12.64,12.64,0,0,0,1.29.61c.14.23.36.18.58.2s.17.11.33.22h1.05l.21.21h1.52l.24.22h1.31c.13.26.47.16.61.39a4.15,4.15,0,0,1,1.14.44,3.45,3.45,0,0,0,1.11.49,11.11,11.11,0,0,0,1.44.78,15.19,15.19,0,0,1,1.44.76c.08,0,.21,0,.29.1a2.58,2.58,0,0,1,.34.33h.41s.11.07.16.12c.32.39.86.44,1.22.76.49-.07.81.34,1.25.44.27.07.33.49.69.44.28.26.7.3,1,.54a3,3,0,0,0,1,.56.69.69,0,0,1,.32.29c.18.3.52.35.78.52s.39.15.51.33c.25.37.76.4,1,.78a1,1,0,0,1,.68.47c.15.18.36.2.54.31s.3.37.6.4.31.34.49.39a1.13,1.13,0,0,1,.44.29c.19.15.29.43.6.39a2.74,2.74,0,0,0,.55.53c.31.14.56.45,1,.3.94-.94,1.94-2,3-3,.23-.23.25-.58.53-.78a7.16,7.16,0,0,0,.79-.77c.23-.23.47-.46.69-.7s.45-.47.73-.78a4,4,0,0,1,.07,1c.34.4.39,1,.87,1.33l0,.47a1.79,1.79,0,0,1,.4.42,1.31,1.31,0,0,0,.24.45c.06.06,0,.24.09.28.29.19.31.55.53.78a.53.53,0,0,0,.38.16s.09.17.13.25l1.27,1.27h1.68c.16-.3.65-.16.72-.56-.23-.13-.17-.48-.41-.68a2.72,2.72,0,0,1-.41-.64v-.6l-.23-.26v-.42l-.22-.24V60.53l.22-.24v-.43a2.6,2.6,0,0,0,.5-.68,2.33,2.33,0,0,1,.59-.86c.62-.57,1.19-1.19,1.8-1.78.06-.06.18-.07.34-.13a8.3,8.3,0,0,1,1.16-1c.43-.26.69-.78,1.12-1a7.56,7.56,0,0,0,1.06-.87c.1-.09.28-.08.37-.17s.09-.25.16-.37.17-.23.23-.22c.26,0,.35-.24.56-.26s.36-.39.59-.42.35-.23.52-.34.42-.22.63-.33l.28-.14.08-.08h.87l.24-.22a2,2,0,0,0,1,.44c.28.07.35.48.7.44l.71.68c.21.2.41.41.63.63h.45l.76-.81V52l.43-.46-.19-.23.19-.19v-.65c-.12-.14-.17-.35-.28-.51a6.79,6.79,0,0,0-.8-.82c.13-.37-.31-.66-.21-1.13l-.7-.57c.11-.36-.3-.47-.22-.75-.38-.28-.45-.81-.85-1.07s-.27-.48-.45-.7a4.14,4.14,0,0,1-.86-1.4c-.08-.3-.43-.35-.47-.69a1.64,1.64,0,0,0-.32-.63c-.11-.17-.33-.25-.34-.52s-.19-.25-.22-.46a2.07,2.07,0,0,0-.23-.44,3.43,3.43,0,0,0-.62-.65v-.5l-.59-.47A2.18,2.18,0,0,0,87.27,38l-.09.3.23.26v.64l.45.47c0,.18,0,.36-.1.52a1.91,1.91,0,0,0-.23.45H87.3L87,40.33l0-.59-.3.22-.42-.56-.08.08-.08-.3a4.91,4.91,0,0,1-.74-.33c-.21-.11-.16-.54-.49-.62a.59.59,0,0,0-.2,0,2.29,2.29,0,0,0-.26.18.52.52,0,0,0,.14.51,1.29,1.29,0,0,1,.06.4l.87.87c0,.7.42,1.09.64,1.8v.49l.49.33-.1.48c-.29-.3-.53-.56-.79-.79s-.29-.66-.62-.85c-.08-.42-.45-.62-.71-.94v-.6c-.07-.18-.34-.25-.21-.48l-.88-.85v-.5L82.8,38V36.69h.34a2.66,2.66,0,0,1,.53-.53,2.92,2.92,0,0,0,.76-.54c.08-.08.28,0,.33-.16-.15-.09-.2-.31-.49-.31l-.26.21-.25-.22c-.05.15-.1.27-.14.4l-.36.12L83.2,36l-.4.13v.58h-.55l-.15.15a.76.76,0,0,1-.2.06h-.53L81,36.58c0-.1,0-.21,0-.32a.73.73,0,0,0-.07-.19c-.11-.21-.23-.42-.37-.67v-.61l-.41-.15,0-.28c.08,0,.16-.1.2-.08.28.12.55.27.87.43h.53c.06,0,.13.15.22.17s.38.08.5,0,.29-.21.48-.17.46-.2.68-.2.45-.17.71-.25c.27.08.39.38.62.54L85,35a2,2,0,0,1,.67.46.86.86,0,0,0,.52.35.6.6,0,0,1,.4.63l.28,0c.31.24.48.66.94.69l.07.34.28.07.25-.23h.76c0,.06,0,.17-.08.18a4.53,4.53,0,0,1-.47,0l-.29.28.29.59h.23l.41.41c.38-.08.67.31,1.12.25a4,4,0,0,0,.36.35c.11.07.3.07.36.16s.35.08.47.23c.29.37.79.46,1.08.85a1.32,1.32,0,0,0,.63.57c.29.08.4.29.58.45s.39.47.64.6a2.4,2.4,0,0,1,.64.44L96.89,41c0,.05,0,0,0-.14h.25a1,1,0,0,0,.12-.16c0-.09,0-.21.12-.28a5.41,5.41,0,0,0,1-1c.21-.41.59-.63.82-1,.13-.2.18-.45.39-.61a1,1,0,0,0,.41-.6c0-.19.36-.26.38-.5s.41-.36.43-.58.32-.48.5-.67a4.87,4.87,0,0,0,.54-.77c.1-.15,0-.36.23-.46a1.52,1.52,0,0,0,.31-.31c.13-.13.31-.24.38-.39a.83.83,0,0,1,.24-.45c-.08-.25.24-.34.23-.56s.2-.3.32-.42.09-.42.31-.53.19-.38.32-.52.08-.36.22-.46c.35-.23.34-.71.7-.92s.35-.6.61-.86a4.35,4.35,0,0,0,.47-.88l.33-.07,0-.47c.13-.25.49-.39.5-.75.21-.19.22-.49.44-.7s.32-.54.57-.75c0-.34.29-.46.46-.71v-.2l.63-.61.06-.55.34-.07a1.08,1.08,0,0,1,.13-.35,2.79,2.79,0,0,1,.38-.39v-.44a3.48,3.48,0,0,0,.38-.39,1.24,1.24,0,0,0,.14-.38h.24c.2-.13.09-.33.13-.52.4-.37.56-1,1-1.3a2,2,0,0,1,.26-.55,2.57,2.57,0,0,1,.59-1c.14-.11.09-.32.22-.47s.19-.51.34-.73a6.8,6.8,0,0,0,.47-.68c.12-.24.41-.4.59-.55v-.44c0-.18.2-.27.33-.38a3.06,3.06,0,0,0,.4-.61c.13-.2.15-.45.36-.63a1.13,1.13,0,0,0,.38-.6,2,2,0,0,1,.4-.61,1.85,1.85,0,0,0,.31-.63c.07-.27.41-.35.43-.59s.35-.38.42-.6c.19-.64.71-1.08.93-1.7,0-.16.22-.27.32-.42s.12-.36.24-.44c.31-.18.26-.58.53-.78,0-.35.34-.43.44-.69a3.77,3.77,0,0,1,.35-.73,6.13,6.13,0,0,1,.62-.63l.85-.85a4,4,0,0,0,.61-.63c.17-.29.51-.24.7-.46s.41-.42.62-.62.42-.09.53-.31.38-.17.53-.31.48-.13.61-.39.39-.13.53-.31.34,0,.58-.15l.4-.39h1.53c.06,0,.1-.13.16-.15.26-.09.57,0,.77-.28h.6l.21.21h.68l.36.45h.74a.7.7,0,0,0,.44.25c.15,0,.26.24.4.38l.5.06c.11.27.17.56.5.63.07,0,.16,0,.19.07.19.32.62.33.85.61s.38.29.44.48a1.85,1.85,0,0,0,.49.68c-.07.41.53.48.46.9.41.3.5.87.93,1.15.23.15.15.46.39.62a5.49,5.49,0,0,1,.55.53c.16.15.1.41.3.54a.65.65,0,0,1,.27.44c0,.18.35.3.4.48a.79.79,0,0,0,.27.44,2.47,2.47,0,0,1,.55.77c.09.18.08.42.3.53s.16.39.32.52a2,2,0,0,1,.46.69c.07.16.11.37.24.44.31.19.26.58.53.79a1.77,1.77,0,0,1,.56.75c.08.18.08.43.3.53s.16.42.32.52.28.57.53.78c0,.24.23.35.25.55s.25.34.37.51.06.05.07.08c.07.34.36.61.41.92s.54.41.47.8a6.28,6.28,0,0,1,.59,1.08,4.31,4.31,0,0,0,.42.8c.24.23.27.58.53.78v.88c.27.23.22.7.64.8l0,.47c0,.05.06.12.12.16s.26.41.4.6.11.5.37.62.15.39.31.53.09.33.12.51l.71.65-.09.07c.16.34.3.68.48,1a5.76,5.76,0,0,0,.51,1c.24.27.34.61.6.86a6.5,6.5,0,0,1,.64,1.16c.12.2.14.5.3.63.35.28.34.81.77,1a2,2,0,0,0,.39,1.07c.09.19.36.27.31.54.41.3.52.8.77,1.22.09.14.15.3.24.45s.09.41.3.53.19.28.25.45.38.29.43.59a1.37,1.37,0,0,0,.27.54c.16.19.12.49.37.62,0,.31.25.41.42.64l0,.34.69.68c-.17.38.33.46.2.75.41.31.58.81.94,1.14s.39.77.76,1c-.05.42.53.49.48.9.37.25.43.73.76,1h.44a4.21,4.21,0,0,1,1-.78c.35-.16.51-.6.9-.76s.62-.59,1-.86h.41l.24-.23h.3c.25,0,.32-.34.59-.23.13-.23.37-.15.56-.23a1.75,1.75,0,0,0,.72-.39,4.23,4.23,0,0,1,1-.48,3.39,3.39,0,0,0,1.41-.84c.38.07.67-.19,1-.33a4.51,4.51,0,0,0,1-.53c.39,0,.69-.34,1.09-.26a.89.89,0,0,1,.68-.24c.08,0,.17-.12.26-.2H173l.25-.23h.65l.24-.22h.42l.24-.21a3.52,3.52,0,0,1,.46,0c.22,0,.29-.19.46-.22s.33,0,.41-.06a.73.73,0,0,1,.49-.17,1.65,1.65,0,0,0,.44-.21h1l.23.22h1.31a3.55,3.55,0,0,0,.4.38,1.18,1.18,0,0,0,.37.14v.36c-.13,0-.3.07-.4-.08s-.3-.14-.47-.11c0-.14,0-.31-.21-.16l.21.16c0,.11.08.15.15.23s0,.33-.11.46c.05.21.24.4.16.69l-.19.24v.58l-.46.79v.38c-.22.18-.36.45-.67.59l-.34-.26h-.42c-.16.31-.65.17-.76.8v.21l-.41.14a8.93,8.93,0,0,0,0,1.16l-.31.32c-.25-.16-.09-.39-.12-.59s0-.43,0-.61c-.19-.21-.39,0-.58-.16l-.14.69-.29-.17-.31.29v.49l-.6.11c-.07.14.09.27.62.5l-.45.21.17.2-.5,1-.32-.3V44.24l-.36-.3c-.17,0-.31,0-.32.2a.77.77,0,0,1-.1.23c-.06-.06-.11-.08-.11-.11,0-.62,0-1.24,0-1.85.14,0,.31,0,.16-.21A2.26,2.26,0,0,0,172.62,42.41Zm17.59,59.77c.15-.08.35.07.44-.15-.29-.1-.29-.1-.36.1s-.34,0-.19.22A.48.48,0,0,0,190.21,102.18ZM99.06,61.07a.19.19,0,0,0-.22-.22.61.61,0,0,0-.36-.41c-.13.16-.14.3,0,.41h.31a.19.19,0,0,0,.22.22c0,.14-.11.34.13.42C99.28,61.2,99.28,61.2,99.06,61.07ZM140.78,53c.11-.1.22-.16.23-.22s.08-.35-.09-.49c-.23.18-.08.43-.06.62-.17,0-.34,0-.19.22ZM134.21,2.86c-.13-.23-.13-.23-.42-.13.08.23.28.09.42.13,0,.21.19.31.35.41.13-.16.14-.3-.05-.41Zm-9.74,147.61c.1.11.16.22.23.22s.34.08.49-.08c-.18-.24-.44-.08-.65-.12l-.08-.21h-.71s0,0-.1.1C123.94,150.56,124.25,150.45,124.47,150.47ZM19.78,94.24c.2,0,.3-.21.42-.39l-.09-.27-.33,0a3.76,3.76,0,0,0,0,.6c-.17,0-.34,0-.19.22Zm66.32,32.3a3.1,3.1,0,0,1,.84.07c.08.36-.08.61.16.8a.41.41,0,0,0-.13-.65v-.32l-.6-.32c0,.17-.3.19-.27.41l-.44,0,0,.42C85.91,126.86,86.06,126.75,86.1,126.54Zm42.83,25,.08.2h.71s.05-.05.11-.1c-.3-.18-.61-.06-1.23.11,0-.17.39-.11.27-.43h-.68l-.3-.23c-.22,0-.44,0-.65.06,0,0,0,.05-.14.19.56-.17.87.3,1.31.23C128.49,151.69,128.54,151.74,128.93,151.58ZM86.54,121.27V122c-.5.3-1,.46-1.45.76l-.24-.21-.43,0s0,0-.09.09l0,.3h1c.37-.23.84-.25,1.19-.53v-.33s.09,0,.1,0a.77.77,0,0,0,0-.87s-.07,0-.1,0l0-.42h-.74l-.29.22h-.84l-.32.34.09.29.74-.43Zm-2,3.14c.13-.12.24-.28.34-.27s.31-.14.44-.23h.94l.36.47.35-.12a.83.83,0,0,1-.16-.18c-.06-.11-.1-.24-.16-.38H84.88l-.32.31v.33l-.2.08v.94l.3.28c.32,0,.61,0,.9,0,0,0,0,0,.09-.08-.23-.23-.54,0-.77-.14l-.32-.3ZM125.42,16.26v-.33l.21-.23c-.16-.12-.25-.36-.51-.32s-.38.22-.35.59l.48.29h.12l.26.34c-.16.1-.17.28-.25.44s-.29.15-.43.24a1,1,0,0,0-.19.22l0,.23c.15.13.34.06.51.06s.36.08.55-.1c0-.4,0-.83,0-1.26,0-.06-.07-.12-.1-.17Zm41.3,98.2.22-.1v-.68l.23-.22v-2.83l.21-.28v-.6l.21-.23c0-.17.06-.35-.09-.56l-.34.06v.48l-.22.24v1.31l-.22.23v3.17l-.43,0v1.19s.05,0,.08.09l.35-.58ZM99.38,79.75l-.21-.22a1,1,0,0,0-.11.17c-.06.12-.11.25-.2.45v1.2l.41.77v.36l.21.21,0,.27,1,.52h.35l.29-.59-.2-.19v-2l-.64-.37c0-.17.07-.36-.11-.55a2.3,2.3,0,0,1-1-.2c.17,0,.34,0,.19-.22C99.36,79.39,99.3,79.45,99.38,79.75ZM141.9,54c0,.14-.07.3.07.41s.33-.17.56-.13V55.5l-.16.16v.94s0,0,.07.08c.3-.24-.09-.65.26-.89l.31.08v1.59l.2.2v.65l.53.56-.51.3v1.16l.2.08c0,.21-.06.43.11.67l.3-.07.09-.37.31,0a.79.79,0,0,1,0,.54.46.46,0,0,0-.15.66c.2.28.24.68.6.82l-.29.52.51.37a3.23,3.23,0,0,0,0,.49c0,.1.28.14.08.31a.49.49,0,0,0-.3.06c-.05-.17,0-.34-.23-.19a.69.69,0,0,0,.2.13v.53c-.07.13-.27.2-.21.42s.21.33.43.37c0,.14-.1.33.13.42.1-.29.1-.29-.13-.42,0-.21-.07-.44.08-.64h.58c0,.7,0,1.39,0,2.06l.23.25V68c.11.12.22.21.32.32s.29.22.33.39v.57c.07.15.3.23.22.45l-.25.32L147,71l-.26.43.25.37v.59l.22.25c.09.13-.17.4.14.51a.92.92,0,0,1,.5-.6v1.66c.23.55.51.88.49,1.31.16.2.44.3.41.6l-.32.41a.7.7,0,0,1,.35.5c0,.16.27.25.37.4a4.35,4.35,0,0,1,.25.6v.69l.45.77V80l.45.85-.23.38.34.06.34.67v.77l.19.19v.44l.23.24v.65c.16.11.17.29.25.44a2.67,2.67,0,0,0,.47.5c-.35.36.25.47.15.8l-.21.22.44.47v.44c.16.08.21.32.41.24,0,.17,0,.34.22.19a.69.69,0,0,0-.2-.13v-.91l-.45-.26.21-.27-.21-.22v-1l-.43-.8V83.6l-.22-.25v-.42l-.23-.25v-.79l-.45-.83v-.72l-.42-.77V79l-.22-.24v-.42l-.23-.25v-.64l-.2-.21v-.78l-.45-.84v-.78l-.21-.24v-.43l-.23-.24v-.42l-.22-.25v-.75l-.43-.28c0-.32,0-.55-.24-.7v-.9l-.2-.19c0-.25.06-.51-.06-.73l-.16-.17v-.59l-.46-.8v-.57l-.22-.29v-.81l-.2-.27v-.64l-.44-.35V64l-.45-.34a1,1,0,0,0-.23-.77v-.59l-.21-.21V61l-.43-.79V59.7l-.45-.79v-.75l-.45-.83V56.5c-.32-.11-.16-.37-.2-.58l-.22-.23v-.81L143,53.61v-.55l-.21-.26v-.6l-.21-.25v-.41l-.22-.25v-.65l-.23-.24V50l-.23-.25v-.65c-.37-.23,0-.67-.25-.88s-.07-.63-.22-.9l-.16-.17v-.64l-.22-.24c-.06-.17.09-.39-.09-.51s-.08-.34-.23-.46l-.37-.37v-1l-.39-.76.18-.19-.44-.46v-.64l-.23-.26v-.82c-.08-.13-.16-.21-.2-.3a5.44,5.44,0,0,0-.67-1.26s-.1,0-.14-.06c-.24.27.1.37.17.6v.72l.42.8v.82c.3.08.19.46.43.66s-.1.29-.18.4l.43.78v.71l.42.81v.34l-.22.24a2.5,2.5,0,0,1,.23.23l.2.22c0,.3-.12.62.19.83l.06.83.68,1.39-.47.22a1.1,1.1,0,0,1,.2.27c0,.13,0,.29,0,.42s.16.16.18.26a1.65,1.65,0,0,1,0,.38l.46.46v.89l.2.18v1a.18.18,0,0,0-.22.17C141.66,53.92,141.69,54.06,141.9,54Zm14,64.22c.07.36-.09.62.15.8a.41.41,0,0,0-.12-.65v-.92l-.38-.71-.3-.21v-1.28l-.31-.59-.32-.09v-.25l.22-.24v-.43a1.22,1.22,0,0,1-.67-.5v-.6l-.23-.27v-.54l-.32-.62c-.18,0-.38.08-.53-.1v-.43l-.45-.47c0-.24-.09-.51.13-.79l.34.47h.73l.25.23h.41c.1.08.18.15.27.21s.07,0,.18,0l.56-.63v-.35l.19-.23v-1.25l-.64-1.23v-.36c-.93-1-1-1.08-1.17-1.86l-.73,0c-.09-.15-.3-.2-.3-.43s-.27-.32-.4-.49a3.28,3.28,0,0,0-.32-.37l-.31,0a1.16,1.16,0,0,0-.13-.37c-.1-.12-.19-.21-.16-.37l-.57-.57h-.29a.4.4,0,0,1-.11,0c-.13,0-.16-.23-.35-.22s-.32-.22-.56-.25-.3-.28-.43-.41l-.45,0-.64.64h-1.77l-.46.47a.25.25,0,0,0,0,.37c.26.15.59-.12.82.16v.43l.48.49c.23.13.43,0,.58.13l.08.31c.38.06.59.37.81.6l.08.32.74,0c.19.26.5.37.53.68s-.38.31-.42.6h.75l.3-.23a6,6,0,0,1,0,1l-.57.3-.6-.84c-.22,0-.41,0-.49-.07s-.62-.19-.76-.61v-.39c-.42-.15-.35-.74-.82-.91l-.06.33-.31.3-.8-.87v-1.08h-.57c-.06.17-.25.22-.29.44a.47.47,0,0,1-.53.42l-.24-.22h-.44c-.15-.28-.44-.16-.66-.25a5.92,5.92,0,0,1-.75-.43H142l-.27-.2h-.59a1.19,1.19,0,0,1-.47-.65l-.22.2h-.83l-.34-.22c-.25,0-.31.31-.57.22l-.24-.21h-.84s-.08.08-.11.12l.3.32h.44l.26.23h.86s.05,0,.07.07l.06.32c.49,0,.85.41,1.31.24l.81.45h.58a1,1,0,0,0,.44.25c.18,0,.31.28.46.42h.62c.32.25.71.3.87.64h.46l.47.46H146c.18.24.16.65.6.66.08,0,.16.17.25.18.45,0,.51.4.68.69h.66l.32.32c0,.12,0,.28.21.35h.36c.36.29.41.73.64,1.08l.23-.21c.17.26.52.36.56.75,0,.22.39.29.43.59s.44.15.56.41c0,.06.28-.08.27.15l-.22.23.71.54v.52l.67.35s.24-.11.4.06l-.2.25c0,.14-.07.32.05.49l.31.1a3.3,3.3,0,0,1,.29.62c.06.28.37.34.44.55,0,.62.43,1,.66,1.65v.3l.23.24c0,.25-.09.51.08.73l.33.09,0,.73C155.68,118.19,155.74,118.41,155.93,118.26ZM158.59,45v-.67l-.42-.29c0-.24.06-.44-.1-.56l-.29-.06c-.2-.26.11-.37.1-.58l-.59-.09,0-.74-.19-.2v-.5l-.51-.4c.28-.39-.21-.56-.2-.89,0,0-.11-.05-.17-.08v-.15c-.1-.41-.41-.45-.46-.76s-.34-.31-.38-.49a.86.86,0,0,0-.43-.58c-.13,0-.29,0-.27.23-.14,0-.23-.07-.21-.17a1.53,1.53,0,0,1,.15-.4l-.36-.68.21-.18-.91-.46c0-.31.38-.54.2-.9-.13-.07-.18-.3-.4-.29,0-.28-.34-.35-.45-.62v-.4c-.44-.35-.74-.87-1.29-1.08l.22-.24c-.09-.3-.31-.55-.28-.88,0,0-.05-.05-.05-.05l-.3-.07c-.13-.29.08-.6-.17-.82-.26.21-.26.21-.53.1v-.44l.21-.23v-.24l-.4-.14c0-.09,0-.2-.06-.29a.2.2,0,0,0-.08-.08l-.31,0c.15-.71-.68-.54-.9-1l.25-.27-.58-1.16h-.44l-.32-.32v-.43l-.45-.47v-.21l-.63-.62a.38.38,0,0,1,0-.1c.09-.35-.21-.57-.29-.87s-.42-.21-.59-.39.14-.31.21-.44V23c-.23-.16-.55-.17-.65-.49a2.1,2.1,0,0,0-.28-.65,4.48,4.48,0,0,0-.64-.59,1.4,1.4,0,0,0-.17-.5c-.06-.16.06-.36-.11-.51H144c-.24-.45-.45-.91-.71-1.34-.09-.15,0-.28-.13-.39.17-.05.34,0,.19-.23a.69.69,0,0,0-.13.2c-.13,0-.29.07-.41-.08l-.06-.5-.3-.28-.2.16-.35-.27v-.9a3.33,3.33,0,0,1-.46-.24c-.26-.19-.22-.6-.54-.76,0,0-.06-.12-.09-.18-.36-.69-.66-1.41-1.06-2.08a1.38,1.38,0,0,1-.07-.5,2.27,2.27,0,0,1-.63-1,.16.16,0,0,0,.21-.15,2.71,2.71,0,0,0,0-.4c-.14-.09-.2-.27-.38-.28a1.39,1.39,0,0,0-.06.19,1.33,1.33,0,0,0,0,.2c-.06,0-.16,0-.18-.08s-.16-.37-.29-.66v-.49c-.12-.15-.43,0-.41-.28a.35.35,0,0,0-.22-.34c-.21-.13-.18-.38-.3-.54L137.13,9l-.4-.39s-.07,0-.17,0l-.33.24,0-.33.66-.42c0-.21.07-.4-.08-.56l-.37-.12V6.92l-.55-.55s-.06,0-.07.08,0,.13,0,.2c.19.27.21.4.09.58L135,6.37h-.23L134.56,6l-.32-.07-.07-.54-.32-.3h-.67a1.42,1.42,0,0,0-.14-.38.4.4,0,0,1-.15-.38l.22-.23V3.66c0-.15.3-.17.12-.35l-.23,0a1.5,1.5,0,0,0-.53-.74c.07-.53-.61-.3-.68-.69a.27.27,0,0,0-.15-.29c.36-.08.62.08.8-.16a.41.41,0,0,0-.65.13c-.18,0-.22.17-.38.22H130l-.57.29-.3.66.23.26-.31.32-.23-.21c-.14.17-.37.27-.32.55l.32.31.69,0,.39.85h.24l.34.35c-.06.21.07.47-.07.7l-.09.1c-.13.22,0,.42-.14.57l-.37.13c0,.44,0,.84,0,1.24,0,.06-.06.13-.09.19l-.73,0,.08.11-.25.11c0,.53.45.28.57.61a2.2,2.2,0,0,0,.43.83c0,.49,0,1,0,1.52,0,0,0,.05.09.09l.33,0c0-.31,0-.6,0-.88s-.09-.58.1-.86l.33.39v1.35a.67.67,0,0,1-.05.19,5.18,5.18,0,0,0-.61.66c0,.39.49.42.45.71l-.47.48v1.23a1.67,1.67,0,0,0-1.12,1.53c-.13.13-.34.24-.37.39a.68.68,0,0,1-.53.57.71.71,0,0,0-.39.46c-.13.29-.2.66-.57.83l-.16-.43-.72,0a.59.59,0,0,0-.08.08c0,.44,0,.88,0,1.32,0,0,0,.05-.08.08l-.55.06,0,.53-.31.31h-.27a2.24,2.24,0,0,1-.89,1.31l-.1-.64a1.68,1.68,0,0,0-.78,0l-.11.6h-.5l-.22-.47c-.22.44,0,.89-.11,1.21l-.65.43v1.36s0,0-.08.08-.28,0-.33.16c.14.16.34.05.52.09l.23.21h.43s0,.05.09.08v1.21l-.56,0c0,.12-.05.29-.14.36s-.11.33-.21.46l-.31.08-.94.93c0,.56-.53.51-.82.78l-.15-.42H119c-.53.38-.47,1.19-1.21,1.54H116a.84.84,0,0,0-.46.58c-.1.24-.4.26-.64.41v.95l-.42.35.24.27c-.06.16.07.37-.12.51h-2.44l-.3-.34,0-.67c-.06-.05-.09-.08-.12-.08h-2.52c-.06,0-.12.06-.18.09l0,.74a2.92,2.92,0,0,0-.71.47c-.18.2-.22.51-.48.67-.13-.13-.23-.3-.45-.2l-.76,1.56.24.37-.45.88v1s0,.05.06.08c.21,0,.42.13.59-.06s-.08-.3.21-.29l0,.68.63.63v.35l-.66.53v2.5c-.21.14-.47.17-.62.39.19.32.28.71.62.9,0,.27-.08.53.08.76,1.15,0,1.15,0,1.23-.1l-.42-.21c0-.31.21-.38.33-.53h1.54s0,0,.1.1.06.33-.05.49-.58-.09-.82.16v1.63l-.68.55v.69c-.16.24-.42.29-.65.42,0,1,0,2,0,3.06,0,0,0,.06.08.13l.36.33v.47c.18.08.17.27.25.43a1.58,1.58,0,0,0,.39.42l0,.47c.17.12.24.28.46.32s.28.2.4.3v.54c.53-.1.59.36.77.68h.22l.32.32v.52a1.51,1.51,0,0,1-.28.22,2.72,2.72,0,0,1-.37.13v1.21L111,57c-.2.39.2.56.19.86l-.21.25v.64l-.45.47v.43a1.21,1.21,0,0,0-.16.16c-.15.2.07.53-.24.67a1.2,1.2,0,0,1-.26.77,2.11,2.11,0,0,1-.66,1.27v.57a4.77,4.77,0,0,1-.32.61,7.91,7.91,0,0,1-.58.58v.88l-.2.2v.38l-.45.79v.6l-.2.2v.88l-.47.47v.66l-.19.19v.66l-.23.24v.87c-.37.17-.06.64-.39.84,0,0-.06.21,0,.3a4,4,0,0,0,.22.48v.54l.2.24c0,.55.42.92.53,1.43l.35,0V73.72l.24-.24V72.6l.23-.23v-.88l.2-.2V70.21l.22-.25v-.43l.23-.24v-.87c.41-.37.36-1,.65-1.39,0-.07,0-.21,0-.31l.44-.42v-.62a6.6,6.6,0,0,0,.43-.92,2.39,2.39,0,0,1,.67-1.16c0-.14-.06-.33,0-.42.29-.35.32-.85.68-1.15.16-.12.16-.3.24-.45s.37-.25.38-.5.32-.31.23-.56c.13-.13.31-.24.38-.4a1,1,0,0,1,.33-.52c.21-.12.1-.42.3-.53s.27-.57.53-.77c-.07-.39.47-.43.45-.81,0-.14.16-.29.25-.43a.91.91,0,0,1,.41-.49c.2-.14.15-.4.31-.54s.1-.4.3-.54a.67.67,0,0,0,.28-.43c0-.19.27-.32.42-.49v-.42l.62-.63c0-.25.24-.35.24-.56s.13-.25.23-.34a2.19,2.19,0,0,0,.43-.81c.16-.34.59-.45.66-.83,0-.22.33-.31.23-.56l.54-.55a.76.76,0,0,0,.11-.16l0-.4a1.21,1.21,0,0,0,.45-.71,3.17,3.17,0,0,0,.5-.48,2.85,2.85,0,0,1,.47-.68c.17-.13.09-.42.32-.53s.17-.39.31-.52.1-.41.3-.55a.66.66,0,0,0,.29-.42c0-.19.28-.32.42-.49s.39-.65.65-.94.15-.46.29-.64a4.37,4.37,0,0,1,.53-.53c.08-.21.12-.3.16-.4a5,5,0,0,1,.52-.77,7,7,0,0,0,.41-.82c.1-.18.12-.38.3-.54a4.35,4.35,0,0,0,.4-.59c.14-.17.31-.32.46-.47-.1-.29.35-.38.24-.67A3.87,3.87,0,0,1,127.92,37a2.74,2.74,0,0,0,.8-.41c.24-.25.59-.26.78-.5h8.08l.36.24.36-.22.21.21h.89c.31.43.79.5,1.17.73v.22a6.31,6.31,0,0,1,.65.72c.16.25.17.6.42.81a2.46,2.46,0,0,1,.46.8,1.16,1.16,0,0,1,.21.93l.44.24,0,.5.65.63v.43c.07.09.18.16.21.26a8.21,8.21,0,0,0,.66,1.37,4.37,4.37,0,0,0,.83,1.41s0,.06.07.12v.22c.11.4.47.45.42.78a5.3,5.3,0,0,1,.59,1.07c.18.36.34.74.52,1.1s.29.73.65.92V50c.19.07.18.27.25.42s.33.25.36.4c.07.3.41.52.26.9a1.64,1.64,0,0,1,.6.84c.23.49.47,1,.73,1.45s.4,1.11.85,1.44c0,.21,0,.38.07.48.39.6.63,1.28,1,1.9a1.62,1.62,0,0,1,.32.91c.15.21.34.36.38.55s.34.31.24.57l.45.45v.62a3.62,3.62,0,0,1,.42.54,8.59,8.59,0,0,1,.44.92,1,1,0,0,1,0,.35c.36.14.38.56.62.81-.06.41.34.7.25,1.13.35.21.42.62.67.91-.08.53.39.87.49,1.34,0,.09.17.18.15.25-.06.29.16.46.24.68a5.31,5.31,0,0,0,.3.64c.11.22.23.42.37.67v.52l.3.39h.43c.14,0,.17.29.35.11v-.88l.23-.24v-.43l.22-.25V67.31a13.81,13.81,0,0,1,1.08-2.18c-.15-.16-.36-.29-.11-.53h.22a4.63,4.63,0,0,0,.3-.52c.1-.22,0-.52.25-.68v-1l.68-.54V60.17l.43-.26v-.68l.21-.25v-.41l.23-.25V57l.22-.24v-.52l.42-.29v-.73L162.1,55V53.7l-.2-.19c0-.47,0-.94,0-1.41l-.64-.38v-.61l-.24-.35.23-.4-.33-.07-.3-.31v-.86l-.23-.24a.49.49,0,0,0-.06-.3c.17,0,.34,0,.19-.23a.69.69,0,0,0-.13.2c-.06,0-.16,0-.18-.08s-.16-.37-.28-.65v-.71c-.22-.28-.53-.43-.64-.75-.06-.16-.16-.3-.21-.46a1.08,1.08,0,0,1,0-.31l-.21-.23.23-.26-.09-.28Zm61.93,78.14c0,.17,0,.34.22.19a.69.69,0,0,0-.2-.13c0-.28-.07-.57.06-.84.35-.13.44.16.61.34v4.58l.21.21c0,.68,0,1.4,0,2.13,0,.06.07.12.1.17l.32-.32v-.86l.23-.25V128l.22-.24v-.43l.23-.25v-.86l.2-.2v-.78l.36-.68.33.09v3.12c.18.24.4.35.44.65s.42.29.42.59l-.2.33.41.15v.43l.5.58-.25.34.22.33c-.2.35-.43.63-.06,1,.08.07,0,.27,0,.52l.74.68s.07,0,.1,0h.34l.24.22h.88l.3-.32c-.07-.36.24-.62.31-.95.3-.17.38-.51.53-.78a1.78,1.78,0,0,0,.32-1c.36-.22.06-.61.23-.89l.2-.19v-1.1l.19-.19v-.66l.23-.24V126l.22-.25v-.86l.21-.21V123.6l.24-.31v-1.94l.2-.19v-.64c0-.25,0-.51,0-.76s-.05-.44.07-.63l.37-.66V117c-.09-.45-.47-.48-.44-.81l.24-.37v-1.68l.18-.18c.1-.32-.09-.69.15-1.06l.16.45a1.14,1.14,0,0,0,.81-.06v-1.77l.22-.24v-.65l.19-.18v-.93c-.16-.16-.32-.31-.08-.53.17,0,.37.08.52-.08s0-.52.24-.67l-.21-.24v-.43l.22-.24v-.42l.23-.26v-1.29l.18-.19v-1.58l-.18-.18a1,1,0,0,1,0-.3c.12-.29.26-.56.43-.92V101l.23-.24v-.86l.22-.25V95.87c.36-.14.12-.53.31-.75s0-.69.17-1l.17-.17v-.85s0-.06,0-.09l-.17-.16c0-.47,0-.94,0-1.42a.82.82,0,0,1,.06-.19l.15-.15V88.87l.23-.25V88.2c.21-.22.52-.39.6-.64a2,2,0,0,1,.49-.67v-.33h.33c.12-.19.47-.27.26-.63l-.59.29v.34c-.14,0-.18-.09-.26-.16a.26.26,0,0,0-.39,0v.36l-.56.64h-.43l-.78.86,0,.19-.39.13v.46c-.15.27-.44.33-.68.49V90l-.29.31-.3.06c-.13.21.08.47-.17.6l-.2-.16c-.47.23-.51.78-.9,1-.18-.18-.11-.39-.05-.59l.16-.16v-.65l.45-.47c0-.18-.08-.37.08-.52l.33-.06.05-.78.34-.08.27-.31.06-.47.18-.18v-.44l-.21-.23v-.21l.32-.32h.4c.44-.26.45-.77.7-1.08l.33-.11V84.05s0-.06-.07-.09c-.18,0-.25.19-.37.32v.59l-.54.59-.25-.22c-.18,0-.37-.08-.49.06s.05.54-.1.77l-.54-.13a1.4,1.4,0,0,0-.27.33c-.2.52-.39,1-1,1.21,0,0,0,.24-.08.28-.26.18-.21.44-.23.68s-.45.07-.52.31c-.13.44-.51.68-.78,1V90a.6.6,0,0,0-.67.52c0,.09-.11.17-.18.25a1.46,1.46,0,0,1-.31.3c-.19.11-.09.34-.23.46a1.5,1.5,0,0,0-.47.69c-.26-.05-.41.14-.52.31a6.26,6.26,0,0,0-.32.75l-.37.13v.24a2.12,2.12,0,0,0-.67,1.15,2.27,2.27,0,0,1-.49.9,8.44,8.44,0,0,0-.54,1,1.42,1.42,0,0,0-.09.52l-.4.4v1.07l-.23.27c0,.12.06.31,0,.4-.27.36-.36.82-.66,1.18v.84l-.21.2V103l-.45.17v1.13l-.21.21v1.3s0,.06-.07.09l-.15.15v1l-.45.79v.6l-.21.2v.88l-.23.24v1.33l-.84.38-.07.34h-.6a6.41,6.41,0,0,1,0-1l.19-.2v-2.87c.41-.19.06-.68.47-.87v-1.34l.23-.23v-1.1l.19-.19v-.87l.23-.25v-.42l.2-.21v-.9c.4-.18.06-.67.43-.84l0-.64.43-.76v-.86c.4-.15.42-.6.68-.92V96.08l.39-.36a8.16,8.16,0,0,1,0,.82,1.64,1.64,0,0,0,.08.78c.17-.18.17-.44.37-.58V94.79l.2-.21V93.7l.66-.66v-.21l.23-.24v-.68a1.66,1.66,0,0,0,.37-.14,1.38,1.38,0,0,0,.3-.29V90.12l.33-.07.53-.53v-.64l.23-.25V87.4l.31-.6.3-.07a1.06,1.06,0,0,1,.22-.48c.08-.08,0-.29,0-.41a3,3,0,0,1,.25-.43l-.25-.29V84.7a1.24,1.24,0,0,0,.67-.52c0-.25,0-.54,0-.83,0,0,.05,0,.06-.07l.36-.07c-.14-.42.3-.71.21-1.11,0-.17-.3-.23-.21-.48l.43-.46a6,6,0,0,1,0-1l.58-.06c.09-.41,0-.81.06-1.18l.18-.23-.2-.2a1.85,1.85,0,0,1,.28-.28c.12-.07.33-.08.36-.16a.93.93,0,0,1,.17-.38c.17-.21,0-.57.28-.77.06,0,0-.27,0-.39l.64-.65s0-.06,0-.1v-.34l.2-.22c.06-.21,0-.4.15-.62a1.44,1.44,0,0,0,.33-.73c.33-.15.07-.55.28-.72l.34-.08,0-.79.63-.36-.21-.23c0-.18.07-.38-.1-.53-.53,0-1.08,0-1.65,0V69.63l-.48-.88V64l-.18-.18v-.45l.21-.22v-.87l.21-.23v-.44l-.32-.32h-.27l-.51-.3,0-.53.15.11.13-.42.45.46c.17,0,.35.06.52,0a4.49,4.49,0,0,1-.17-.44.65.65,0,0,0-.11-.39,2,2,0,0,1-.25-.48l-.45.24-.14-.37c-.23-.12-.34,0-.47.17a5.4,5.4,0,0,1-.9,0l-.21-.2h-.43c-.22.17-.35.46-.69.46-.11.22-.37.18-.54.3s-.16.38-.3.54-.23.27-.45.25-.15.13-.23.2l-.19-.19h-.93l-.4.4h-.61a2,2,0,0,0-.73.87l-.3.08c-.06.5,0,1,0,1.39a1.66,1.66,0,0,1-.19.19l-.45.23v.43l-.23.26v.41l-.32.33c-.24,0-.5-.08-.75.08v.48l-.62.51-.1.41c-.26.14-.37,0-.52-.18l-.28.36c.06.33-.25.59-.31.89l-.93,1-.2-.18-.55.48c0,.36-.39.59-.33.71l.33.53-.4.7-.43-.23c-.17.18-.42.34-.49.56s-.38.46-.25.79c0,0-.08.1-.11.16-.12.28-.27.55-.4.83a1.55,1.55,0,0,1-.53.76c0,.3-.29.46-.29.77a.87.87,0,0,1-.26.64c-.45.38-.64.94-1,1.29v1.09l.15.21-.62.41v.39l-.65.65a.31.31,0,0,1,0,.16c-.14.31-.29.61-.43.92v.33l-.2.21-.07.28-.83.37v1.18l-.35.07-.29.29,0,.48-.65.33h-.82c-.15.24-.31.46-.44.71s-.12.51-.28.64-.14.54-.27.78l-.38.13v.25l-.36.34h-.86l-.75.75v2s0,.06.06.08l.23.24c.25.14.58-.13.8.15v.43l-.23.25v1.09c-.38.17,0,.66-.4.83l-.05.71-.22.22v.88l-.19.19V95l-.23.24v.65l-.2.2V97l-.23.23v.66l-.23.23v1.1l-.2.19c0,.47,0,.94,0,1.35l-.2.2v1.76l-.23.24V104l-.22.26v2.17l-.21.21v2.63l-.23.23v1.76l-.21.21v2.62s0,0-.06.08l-.16.16v2l-.23.24v1.74l-.22.25v1.3l-.21.21v1.09l-.23.24v1.75l-.21.21v2.18s0,0-.06.08l-.16.16v3.07l-.22.24v.65l-.2.2v.88l-.24.23v.88l-.23.23v1.54l-.21.21v2.17s0,.06-.06.09l-.16.15v2.41L199,139v5.7l.22.25v.47c.32.12.41.44.56.71l.22,0,.3-.59c-.06-.51.42-.87.54-1.36h.67a1,1,0,0,1,.45-.25c.24-.07.27-.39.41-.58a10,10,0,0,1,.89-.94h.27l.13-.38.37-.13c0-.09,0-.16,0-.08.21-.57.65-.69,1.07-1,.09,0,.28.09.44-.05l.12-.37a7.66,7.66,0,0,0,1,0l.07-.33.62-.31c.42.16.84-.11,1.28-.22a3.25,3.25,0,0,0,.73-.35c.07,0,.11-.14.16-.2l-.18-.24a.67.67,0,0,1,.79.12h2.45l.06-.32c.28-.16.68-.22.67-.68.23-.18.26-.48.41-.71s0-.44,0-.66a1.43,1.43,0,0,1,.06-.67l.37-.34v-1.32l.23-.25v-.64l.2-.2v-1.1l.24-.23v-1.1l.19-.2c.06-.39,0-.79.05-1.16l.41-.39v-.66l.2-.23-.18-.23c.13-.16.28-.06.42,0v2s0,0,.1.12l.32-.56-.14-.15c-.16-.32.11-.37.18-.6-.11-.32.09-.72-.11-1.1a1.46,1.46,0,0,1-.35.22v-1l.51-.42-.5-.38v-.63l.32-.62c.14,0,.28,0,.42,0s.36-.06.52.06l.28.3v.74a2.78,2.78,0,0,1,.2.49c0,.11-.08.19-.19.23-.05-.17,0-.34-.22-.19a.69.69,0,0,0,.2.13v.55l.31.3h.59c.49-.2.38-.71.86-.86h.33l.32-.32v-.64l.22-.24v-.54l.47-.34-.1-.3-.41-.09c.12-.2-.07-.42.15-.6A.54.54,0,0,0,220.52,123.18ZM25.9,92.05c-.28,0-.57.07-.84-.06,0-.12-.06-.22-.08-.32a6,6,0,0,0-.65-.27c-.29-.08-.34-.5-.73-.45l-.2.42a5.45,5.45,0,0,0-.62-.35,2.48,2.48,0,0,0-.61-.23c0,.19.06.39,0,.46s-.17.39-.3.54-.19.06-.29.09l-.93.93a6.7,6.7,0,0,0,0,1.08l1.17-1.18c.42-.06.68.2,1,.33v.58l.64.5c.06.31-.11.57.16.8.16-.27,0-.58.16-.82l.17-.36-.23-.24.31-.58.34.31V95l.28.35c.28.11.35-.14.47-.18h1.12l.18.18c.32.1.7-.09,1,.13,0,.33-.4.55-.18,1a1.35,1.35,0,0,1,.5.68l.3.08,0,.52.19.18c0,.25,0,.5.08.75s.58-.12.74.07,0,.58.15.81l.37.11-.21.25.22.27v.63l.36.34.1-.64a.75.75,0,0,0,.63-.51,4.64,4.64,0,0,1,.41-.8V98.06l-.3-.28-.44.29-.34-.51v-.89c.32.13.47-.11.6-.3a3.54,3.54,0,0,0,.28-.66.58.58,0,0,1,.13-.15c.17,0,.36-.08.52.11v.49a5.24,5.24,0,0,1,.45.41,1.58,1.58,0,0,1,.37.6,1.67,1.67,0,0,0,.5.7v.85s0,.06-.07.1c-.19.11-.3,0-.44-.14s-.27-.06-.38.1c.08.14-.08.35.1.5l.7,0,.19.18.47,0,.33.66V101l.42.41v.21l.22.24v1l.68.53V104l.21.22v1.09l.23.24v.65l.2.2V108l.22.24v3.64c.1.19.16.31.22.44s.2.37.41.35c0,.17,0,.34.23.19a.69.69,0,0,0-.2-.13v-.55l.21-.23v-6.24l-.45-.32v-.7l-.22-.21v-1.1l-.19-.2c0-.53,0-1.08,0-1.56l-.21-.2v-.66l-.23-.24v-.61l-.31-.46c.27,0,.28-.35.57-.34s.13.44.39.54.2.53.46.69v1l.43.29c0,.32,0,.55.24.7v.9l.2.2v.42l.23.25v1.39l.43.33a1.05,1.05,0,0,0,.17.67c.13.16.06.47.08.67l.19.27v.55l.31.43c.08-.1.13-.13.13-.15V106.8l-.42-.32v-.72a1.39,1.39,0,0,1,.25-.24,1.86,1.86,0,0,1,.37-.14c0-.2.07-.37,0-.54l-.16-.15c0-.25-.08-.51.09-.78h1.39l.07-.35.3-.3h.45l.15.14c.24.14.44,0,.59.14l0,.24-.3.34c-.24,0-.44-.07-.58.12v1.31s0,0,.09.1h.71l.18-.49.35.5c.35,0,.61-.07.84.09v1.6c-.14.12-.3.06-.43.08s-.3-.06-.42.11v1.29s0,.06.09.13h2.14a.17.17,0,0,0,.1,0s0-.05.08-.08c0-.21,0-.43,0-.65s-.08-.5.07-.75H46s.08.07.08.1v1.33l-.38.14-.7.7c.12.29-.33.37-.25.67,0,.07-.2.2-.32.31l-.52.06v1.44l.45.12.49.61c.24,0,.44.07.57-.12v-.26l-.59-.4c.09-.39.52-.28.72-.53l.19.19c.22.1.55-.13.76.1l.07.36h.73l.21.21.31-.26c.07-.36-.1-.64.15-.85.38,0,.5.38.77.57-.14.23.12.29.18.45s-.05,0-.07.07l-.32.06c0,.12-.06.24,0,.33.15.41.26.84.45,1.24l-.24.26v1.3s0,0,.1.13l.34-.07v-3a.34.34,0,0,1,0-.1l.08-.09h.93c.14.15.08.3.08.44,0,.88,0,1.76,0,2.64,0,.06.06.12.09.18l.78,0v1.61l.23.23c0,1,0,2,0,3,0,.06.08.11.12.17s.36-.08.55.12v1.37l.64.37-.21.23.3.3.32.07.06.51.19.25-.48.17.48.22v.45l.23.25v.64l.21.21v1.32l.22.22v.94c0,.28,0,.57,0,.86.33.18,0,.67.39.82v1.54l.22.24v.7c.34.17.5.59.91.74l.35-.25H58l.78-.4.14.4a1,1,0,0,0,.63-.12c.27-.19.61-.29.9-.47.1-.07.27,0,.41-.06a.62.62,0,0,0,.16-.1l.08-.38c.42.23.64-.21,1-.23l.27-.55v-1.7l-.22-.29v-1.67s-.26.07-.14-.08l.16-.16v-2l-.22-.24v-3.27l-.21-.23v-.43l.19-.23v-.6l-.24-.42.25-.29-.21-.23v-4.82l-.21-.23v-.43l.2-.23V113l-.23-.27v-1.49l-.17-.22v-1.12a1.52,1.52,0,0,1,.18-.18c0-.18.07-.36,0-.52l-.16-.16v-.43l-.21-.23v-2.19l.2-.23-.21-.21v-2.64l-.23-.23V99.84l-.2-.21V96.35l-.23-.24V95.7l-.26-.35.24-.36-.16-.16c0-.2-.13-.41.08-.58h.24a1.18,1.18,0,0,0,.14.37,2.79,2.79,0,0,0,.38.39v.23l1.32,1.31v.66l.17.17c.11.24,0,.45.14.58s0,.6.31.75c0,.18,0,.36,0,.54v.82l.23.23v.88l.21.2v4.16s0,.06.09.11l.13.13v1.31l.23.25v1.08l.2.2v2.64l.23.23v2.86l.23.23v1.54l.21.2v2.18s0,.06.08.11l.14.13v1.53l.2.23-.19.23.61.61c.1.27,0,.53.12.79l.13.12v.88l-.18.2.29.57.3.59-.19.18c0,.4,0,.8,0,1.2a.7.7,0,0,0,.06.19l.16.16v1.53s0,0,.08.08l.35.09c0,.45,0,.92,0,1.32l.24.38-.22.35v1.09l.17.18.05.49.19.19v.65l.45.47v1.75l.21.2v.88l.44.44v1.3s0,0,.06.08l.16.16v.45l.33.3c.21,0,.49,0,.66.26l.34-.42v-1.26l.21-.21v-1.73s0-.06.06-.08l.16-.16V130l-.23-.24v-.86l-.22-.25v-2.23c-.38-.09-.12-.43-.21-.58l-.24-.31v-.83l-.2-.2v-6.34s0-.06-.06-.09l-.16-.16v-1.53l-.22-.24v-5.7l-.23-.25v-2.82l-.19-.23v-.43l.22-.29v-3.08l.32,0,.32.63c0,.24,0,.56,0,.8l.21.23v2.4l.23.26v.64l.2.2v2.42l.43.42,0,.7.2.2v2l.22.24c.08.23-.15.3-.21.43v.44l.29.3.33.07v.75l-.18.18c0,.17-.07.35,0,.51l.15.16-.2.23.2.22v.43l-.18.21c-.16.54.24.92.24,1.38,0,0,.1.1.15.15l0,.7.21.2v.65l.19.21.09.32c.1,0,.18,0,.23,0a4.31,4.31,0,0,1,.35.3v1.36c-.23.23-.44.43-.64.64v.55c-.23.13-.23.13-.13.43.2-.1.1-.28.13-.43.18,0,.21-.17.34-.21h.57l1,.53.09.34c.16,0,.37.06.44,0s.48-.15.62-.36.41-.26.63-.39v-1.3s0-.06-.08-.11H75c-.06,0-.1.12-.16.16s-.14.38-.3.54-.43.08-.54.3-.11.09-.17,0l0-.71a1.94,1.94,0,0,1-.22-.07,1.85,1.85,0,0,1-.2-.1l.92-.46-.43-.15c-.07-.93-.07-.93.06-1h.43l.25-.23h.64l.55-.54v-.22l.21-.23v-3.84l-.45-.3c0-.52,0-.95.07-1.39,0,0,0,0,.11-.09,0,.23,0,.48.13.62s.12.49.37.62v2l.21.23v1.49l-.24.37c.1.16.18.27.25.39V122c0,.14-.06.36,0,.42.25.22.16.53.27.78,0,.06.1.1.15.16l-.21.23v.65l.23.25v.64c.37.33.3.94.78,1.17.12-.17.1-.41.3-.53v-.65l-.22-.25v-3.27l-.21-.21v-4.59l-.25-.31v-1.94l-.19-.19v-3.28s0,0-.06-.08l-.16-.16v-3.07l-.23-.24v-2.18l-.22-.25v-2c-.26-.13-.16-.38-.22-.57a2.8,2.8,0,0,0-.34-.61c-.25,0-.51.09-.74-.1V100.3l.26-.35-.27-.35v-.41L74.89,99V96.41a.29.29,0,0,1,0-.1l.19-.2V93.86a2.53,2.53,0,0,0,0-.55c0-.12-.17-.22-.2-.35s0-.36-.14-.49,0-.43-.15-.6l-.16-.15v-.66l-.22-.24v-.36l-.76-.82H73q-.32.33-.63.63s-.07,0-.12,0L71.75,90l-.28.26H69.8l-.65.65H68.7l-1.2.63c-.34-.24-.34-.76-.75-1v-.45l-.22-.27v-.62l-.45-.45V88l-.42-.75v-1L65.43,86v-.65c-.3-.15-.15-.46-.24-.67a3.48,3.48,0,0,1-.85-1.74l-.86-.85c0-.36-.37-.45-.43-.7a.83.83,0,0,0-.27-.44,1,1,0,0,0-.52-.34c-.24,0-.33-.34-.39-.58l-.31-.08c-.09-.18-.1-.41-.3-.53s-.17-.3-.25-.44a10.2,10.2,0,0,0-.93-.93c-.14-.08-.34-.08-.44-.25s-.35-.21-.53-.3L59,77.11h-.28l-.13-.38-.31-.08-.84-.85h-.16L56.21,75V74.8l-.91-.91-.84-.39v-.27L54,73.09l-.72-.77c-.43,0-.56-.51-1-.56a.4.4,0,0,1-.28-.42c0-.11-.11-.14-.22-.17a2.14,2.14,0,0,1-.64-.32,5.18,5.18,0,0,0-.83-.63,3.1,3.1,0,0,1-.71-.68c-.52-.27-1-.47-1.36-.71-.15-.09-.36,0-.46-.22a4.14,4.14,0,0,0-.3-.5,1.22,1.22,0,0,1-.44,0,3,3,0,0,1-.61-.39,5.07,5.07,0,0,1-.47-.46c-.29.12-.38-.33-.67-.23-.09-.25-.4-.13-.51-.28l-.07-.33-.54-.06-.63-.64c-.16,0-.25-.07-.38-.14s-.63-.18-.6-.62c-.14-.11-.27-.3-.41-.32s-.32-.33-.57-.23-.35-.21-.57-.23-.3-.2-.46-.2a1,1,0,0,1-.57-.23c-.17-.1-.39-.12-.56-.23a3.84,3.84,0,0,1-.5-.42c-.45,0-.92,0-1.45,0l.22-.27-.24-.49-1-.52a7.24,7.24,0,0,0-.92,0l.06.42h.49l.24.22a5.29,5.29,0,0,1,1,0l0,.38h-.94l-.19.2a1.33,1.33,0,0,0-.44-.17.87.87,0,0,1-.47-.2,1.49,1.49,0,0,0-.54-.06v-1c.16-.23.41-.28.62-.4,0-.07,0-.14,0-.21a.48.48,0,0,0-.08-.11H33.92a2.31,2.31,0,0,1-.28.19,2.14,2.14,0,0,1-.27.09v.25l-.33.32H32s-.05,0-.08-.06l-.12-.6H29.09S29,61,29,61a2.18,2.18,0,0,0-.09-.51,3.56,3.56,0,0,0-.31-.52H26.66l-.19-.19h-1.9c.12.5-.21.83-.39,1.23l.19.19v1.18l.52,0,.33.23c.27-.07.42-.45.68-.12v.22l.86.85v.22l.66.37h1.28l0,.31-.33.33H26.79a.7.7,0,0,1-.19-.06l-.11-.6h-.93c-.14-.16-.29-.36-.53-.11v.46l-.35.29-.69.08s0,0,0,.07a1.47,1.47,0,0,1,.52.76H25l.29.41.75.06c.14.31.46.11.67.23l.5.31c0,.64,0,.64.11.74h.43l.25.23h.43l.1.18c.1.22.18.44.29.65s.15.22.23.22c.29,0,.46.35.78.27s.31.29.57.22c.05,0,.17.14.22.23a2.06,2.06,0,0,1,.16.37c.25.1.58.14.74.32s.68,0,.84.38l.53,0,.06.56.45.45.79.36c.11.23,0,.43.14.57.38-.07.64.24,1,.31l.12.38h.25a1.17,1.17,0,0,0,.75.75l.07.35h.73l.3.32-.22.27.3.68a2,2,0,0,1,.45.2,1.79,1.79,0,0,0,.64.14l-.23.14-.27.1c0,.29,0,.55,0,.8s.1.58-.1.88h-.93c-.16.37,0,.75-.16,1.07H35.89l-.34-.35v-.89c-.2-.13-.39-.05-.56-.07h-.44c-.17,0-.37-.07-.51.1v.22l.22.24c0,.28,0,.58,0,.87,0,0,0,0,.09.09l.7,0,.28.31c.1.26-.18.32-.2.5s-.13.51.09.68l.37.1c-.07.26,0,.51-.08.75-.33.19-.42-.15-.58-.27l-.07-.31-.58-.07-.36-.61h-1.1s0,0-.08.08l-.06.5-.19.18V88.4s0,0-.06.08l-.16.17,0,.32h1.49V90.3a1.07,1.07,0,0,0,.09.19l.51.06-.07.09.35.16a3.72,3.72,0,0,0-.22.33,1.52,1.52,0,0,0-.09.25c-.19,0-.39,0-.46,0-.23.23-.62.21-.75.54l.23.26c-.13.21.1.49-.13.71-.32,0-.64,0-.9,0l-.21.2-.24-.22h-.65c-.16-.29-.45-.18-.71-.25a1.57,1.57,0,0,0-.64-.48c-.2-.11-.59-.1-.54-.51-.19-.28-.55-.29-.78-.51-.44,0-.43-.4-.6-.65h-.66c-.33-.5-.95-.53-1.4-.91h-.72L24,88.3a2.1,2.1,0,0,0-.26.13l-.27.13-.59-.64c-.61-.14-1-.55-1.47-.52-.18-.14-.27-.35-.5-.4s-.18.08-.24.26c.2.51.81.55,1.1,1a1.48,1.48,0,0,0,0,.21s.05,0,.07.08a1.6,1.6,0,0,1,.91.68,2.61,2.61,0,0,0,.24.23h.43a1.53,1.53,0,0,0,.76.54v.45l.32.31c.16,0,.36-.06.53.09l.05.52c.17.07.22.26.44.29A.49.49,0,0,1,25.9,92.05Zm111.94,1.32-.23.21H135.2l-.23-.2H132.6l-.38.23-.34-.22h-3.3l-.18.18c-.17-.23-.49-.21-.7-.41s-.3.11-.45.21h-3.86l-.82.46h-1.15l-.59.31.3.32h.44l.23-.21h1.1l.32.32v.23a1.41,1.41,0,0,1,.76.53,1.43,1.43,0,0,0,.74,0c-.1-.24-.28-.47-.12-.78l.26,0c.27.14.32.4.43.66h.58l.48.25.3-.27c.21.07.47-.06.71.08l.14.15h2.86l.23-.22h2.53c.07,0,.13-.06.19-.09.06-.25.06-.25.27-.35.35.07.36.4.5.65l.7,0,.19.2h.63c.16.09.24.3.48.22l.45-.9.31.1v.24l.67.37h.57l.18.18H140c.13-.07.21-.29.61-.14l.26.42a.55.55,0,0,1,.5-.28,1.23,1.23,0,0,0,.44-.16l.17.16h.42l.25.23h1l.78.45h1.92l.21.21c.39,0,.82,0,1.25,0,.06,0,.12-.07.18-.11V95.9l.21-.23a.5.5,0,0,1-.11-.76h.22c.2.12.29.42.57.44s.28-.23.43-.34l-.33-.32h-.64l-.47-.45h-.43c-.22-.18-.36-.46-.69-.47-.17-.35-.66,0-.82-.38h-5.33l-.19.19h-2l-.23-.21Zm26.95-8.57h1.57c.32-.26.85-.3.84-.83l.4-.13v-.69l.22-.24V82.4l.44-.31c0-.42,0-.75,0-1.07,0-.06-.07-.12-.1-.18h-.77c-.06,0-.12,0-.19-.07l-.12-.37h-.46a2.33,2.33,0,0,1-.31-.32c-.07-.09,0-.28-.15-.3l-.26.2-.11-.74c-.33.48-.9.53-1.16,1h-1.29l-.36.31.65.33h.24l.67.56c0,.29,0,.51.21.64v.83l.37.65a.48.48,0,0,1,.07.2c0,.1,0,.21,0,.4l-.45.32ZM83,128.41V128l.22-.23v-.87l-.23-.25V126l-.43-.23v-.63l.42-.7s0,0,0-.09l-.33-.3-.45.27h-.63l-.78.59.41.08.3.3v.7l-.43.35c0,.43,0,.79,0,1.15,0,0,0,.06.07.08.23-.1.3-.3.41-.52a1,1,0,0,1,.64-.56c.27.12.41.39.63.57v.66a2.33,2.33,0,0,0-.69,1.12l.41.28C82.8,129,82.77,128.61,83,128.41ZM77.86,77.77l-.24-.22H77l-.23-.21h-.44l-.31.31c.19.12.19.35.3.54h2.45l.17-.16c.33-.12.71.07,1.06-.16a1.38,1.38,0,0,0-.76-.81,1.7,1.7,0,0,1-.49.71Zm70,71.74c-.06-.07-.09-.12-.11-.12h-1l-.79.45h-.82l-.21.2H144l-.31.25h-1.07l-.29.31c0,.05.07.09.1.09h1.86a.7.7,0,0,0,.19-.06l.13-.39.25.22.2-.2h.77l1.3-.66C147.36,149.58,147.58,149.66,147.83,149.51ZM23.38,64.59l-.32-.32.45-.52a2.06,2.06,0,0,0-.55-.7l-.25.21c-.26-.26-.57-.48-.64-.88-.2,0-.4-.07-.55.11V63a2.87,2.87,0,0,0,.43.42c.2.14.19.37.3.54a.92.92,0,0,0,.53.3l.11.6c.29,0,.54.06.77-.07C23.58,64.61,23.58,64.61,23.38,64.59ZM82.5,122.16l-.72,0c-.21-.3-.52-.16-.8-.18,0,0-.1.07-.2.15l.47.35v.5l-.43.43.27.31a2.54,2.54,0,0,0,.61-.34,2.47,2.47,0,0,1,.61-.38,2.36,2.36,0,0,0,.48-.47ZM72.37,74H70.84s-.06.09-.09.14c.24.15.49,0,.73.07l.24.23h.57l.26.42H73l.86-.82-.1-.27h-1a.76.76,0,0,0-.2.06Zm28.05,2.42h.29l.54-.56c0-.62,0-1.27,0-1.91,0-.06-.08-.11-.12-.17s-.36-.07-.53.11v1.77C100.3,75.88,100.37,76.13,100.42,76.45ZM26.12,98.1a1.74,1.74,0,0,1-.81-.62c0-.18.26-.21,0-.39-.14.07-.34-.08-.53.12v.58l-.28.5.39.34h.89l.32-.32Zm55.47,22.07h-.65c-.13.18-.45.26-.26.66H81.8l.24-.22c.16,0,.35.07.5-.07s.13-.42-.07-.59c-.24,0-.49-.07-.71,0Zm-.68-29,.77.43c0-.34.11-.62.51-.68a2.1,2.1,0,0,0,.6-.33s-.05-.07-.07-.07c-.32,0-.63,0-.93,0l-.21.2h-.77l-.64.33c.17.13.27.36.54.32ZM20.47,97l-.5-.42V95.45c-.19-.12-.28-.47-.61-.27s.12.36.19.59v.71l.54,1.06.25,0c0-.12.08-.24.13-.37l.38-.13A.22.22,0,0,0,20.47,97Zm55.1-18.69c-.41-.19-.86,0-1.2-.1s-.72-.3-.88-.64H73s-.05,0-.13.1a3.73,3.73,0,0,1,.34.35c.1.14.15.31.24.45a.81.81,0,0,0,.2.18h.89l.16-.16C75,78.32,75.32,78.58,75.57,78.29ZM84.47,120a1.5,1.5,0,0,1,.14-.39,1.82,1.82,0,0,1,.21-.31,1.11,1.11,0,0,0,.78-.19c.21-.1.5.1.72-.13l0-.26c-.25-.14-.37,0-.51.16h-.84c-.17.31-.51.16-.78.29v.51ZM87,127.74a.49.49,0,0,0-.75.1c-.16-.06-.23-.29-.46-.2l-.17.16c-.3.13-.56,0-.8.14v.27s.08.08.1.08H86l.26-.23h.41Zm57.35-58,.31.38L145,70v-.67l.21-.23a1.14,1.14,0,0,1-.19-.36c0-.21-.16-.21-.35-.21l-.3.28ZM96.85,57.82c.05.24-.06.42.08.58l.12,0,.68-.54-.32-.32h-.3l-.57-.67c-.2.17-.08.37-.13.57Zm39,44.32a4.55,4.55,0,0,0-1.17.09s0,0,0,.14h1.6l.23.22a1.75,1.75,0,0,0,.77-.08l-.05-.35h-.49l-.23-.23h-.43ZM219,129.34l.39.07a1.29,1.29,0,0,1,0-.34c.05-.09.16-.14.21-.19v-.63l-.38-.69a1.63,1.63,0,0,1-.07.41,1.5,1.5,0,0,1-.2.23ZM27.22,104.9l.31.31c.19,0,.11-.22.15-.33l.84-.84s0-.07,0-.1l-.06-.21a1.25,1.25,0,0,0-.81,0l0,.71Zm106-2.76c-.46.08-.92-.09-1.37.09,0,0,0,0,0,.09.4.16.84,0,1.21.09l.18.18h1.09s.05,0,.12-.1l-.06-.34h-.7l-.23.22ZM33.55,60c-.11-.13-.27-.07-.4-.06a2.49,2.49,0,0,0-.82,0c-.18.35.15.43.28.61h.64C33.39,60.45,33.71,60.37,33.55,60Zm72.74,18.17h-.7l-.43.33c.07.15.1.3.16.31a.58.58,0,0,1,.37.15c.06.07.18.08.12.06l.48-.27ZM224.94,58.69V59a1.28,1.28,0,0,1,.37.14c.12.07.2.21.31.3a1.88,1.88,0,0,0,.33.13c.06-.25.46-.3.25-.65-.16-.17-.43.07-.59-.15S225.22,58.67,224.94,58.69Zm-57.23,47.64c-.15.09-.1.24-.11.38s0,.32,0,.41c-.35.42-.14.88-.15,1.33,0,0,.05,0,.08.07l.3-.57c0-.54,0-1,0-1.54C167.78,106.38,167.74,106.36,167.71,106.33Zm-4-52.91,1,1v-.75a1.55,1.55,0,0,1-.36-.13,3.63,3.63,0,0,1-.4-.39Zm-44.78,55.77a1.25,1.25,0,0,1,.41.63l.5.05.15.41.33,0a3,3,0,0,0-.22-.54c-.14-.21-.32-.39-.42-.52Zm27-39.11c-.23.23-.4.45-.71.5,0,0,0,.12-.06.18.11.23.23.45.62.41-.06-.31.19-.46.38-.67a.29.29,0,0,0,.05-.14ZM37.15,116.15c-.24-.15-.23-.42-.39-.59l-.3.32v.64l.32.36Zm194.16-.28v-.64l.26-.28a1,1,0,0,0-.65,0c-.1.11-.06.26,0,.4a2.4,2.4,0,0,0,0,.84C231.12,116.15,231.19,116,231.31,115.87Zm-9-16.19.44.08c0-.3,0-.55,0-.79s.07-.5-.09-.77l-.35.6ZM36.67,113.39c0,.62,0,1.23,0,1.83,0,0,.1,0,.14.08s.07-.06.07-.09c0-.43,0-.87,0-1.3l.23-.25-.07-.3Zm69.42-75.28-.59-.29c-.08.19-.11.4-.28.52l.3.3c.19,0,.41.14.57-.1ZM20.41,91.92l-.33-.14-.33.48v.55s.05,0,.07.07.06,0,.07,0l.52-.48Zm-2.64-.07v.53l.7.34.18-.12-.22-.23c0-.17.08-.36-.09-.52Zm62.17,29.09c0,.35,0,.71,0,1.07,0,0,0,0,.08.13l.29,0c.15-.28,0-.38-.15-.51v-.42c.2-.27.22-.37.08-.55ZM82,92.7l-.43.47c-.11,0-.31-.12-.3.16a1.5,1.5,0,0,0,.29,0,1.59,1.59,0,0,0,.72,0C82.49,93,82.16,92.9,82,92.7Zm42-74.91.14-.33-.38-.28-.54.27,0,.34ZM79.77,125.66h.28l.28-.55-.28-.55A1.69,1.69,0,0,0,79.77,125.66Zm86-37.87c1.33.14,1.66.13,2-.06,0,0-.06-.07-.08-.07H166S165.91,87.7,165.8,87.79Zm-29.38,37-.33-.66-.49.06s0,0,0,0l.48.61C136.29,124.78,136.42,124.75,136.42,124.76Zm32.25-61.34c.1-.1.27-.27.43-.45,0,0,0,0,0-.09a1.3,1.3,0,0,0-.78,0l-.06.27Zm-55.76-39.1c.2.09.29.44.61.22,0-.2.11-.41-.06-.58l-.25,0ZM121,19.7c1.27.11,1.28.11,1.51-.08,0,0,0-.06-.08-.07h-1.3S121.09,19.61,121,19.7ZM32.17,91.19a2.07,2.07,0,0,0,.28-.32.24.24,0,0,0-.07-.36c-.16,0-.35-.06-.5.06C31.7,90.9,32,91,32.17,91.19Zm55.68-.74-.44-.78v.94c.13.1.19.27.39.3C87.9,90.75,87.83,90.57,87.85,90.45Zm-5.59,15.88a7.27,7.27,0,0,0-.55.56.46.46,0,0,0,.65,0C82.33,106.7,82.43,106.52,82.26,106.33Zm22.1-20.67-.07-.38c-.24,0-.45-.13-.63.08l.06.3ZM23.16,98.42a2.13,2.13,0,0,0,0-1.32A2,2,0,0,0,23.16,98.42Zm18.73,14.2a1.23,1.23,0,0,0-.06-.91c-.08.29-.37.33-.32.66ZM145.73,72.28l-.28.58s.05.07.08.07h.21c.4-.43.42-.48.21-.66Zm-76.35-.79c.24.19.38.47.64.58L70.2,72l-.52-.62Zm6.27,2.31-.13.32.49.33s.14.09.17-.12Zm45.52,37.3-.55-.54,0,.17.32.47ZM231,68.1a.47.47,0,0,0,0,.67l.27,0C231.43,68.37,231.1,68.29,231,68.1ZM119.29,9.22c-.06-.27,0-.45-.09-.61a.49.49,0,0,0-.37.4c0,.06,0,.16.08.17A1.1,1.1,0,0,0,119.29,9.22ZM237.64,87.69c-.19.83-.19.83,0,1.11V88C237.67,87.88,237.65,87.79,237.64,87.69ZM78.31,76.45a.28.28,0,0,0,0-.44c-.17,0-.36-.07-.51.07,0,.18.2.25.29.37ZM98,59.8a1.22,1.22,0,0,0,.09.17l.22.24.31-.06a1.22,1.22,0,0,0-.09-.17c-.07-.09-.15-.16-.22-.24ZM131.79,124a.26.26,0,0,0,.45,0l-.06-.32-.39.08Zm34.63-6.85c.09-.74.09-.74-.2-1C166.35,116.52,166.18,116.79,166.42,117.16Zm-44.73-5.31-.19,0s0,.11.08.15l.2.24.48-.1ZM191,100.18a.28.28,0,0,0,0-.46l-.33.07.08.39ZM168.89,62l.08.43.41-.07-.07-.36Zm19.76,37.26c0-.18-.2-.25-.29-.37-.09.13-.27.19-.29.37A.57.57,0,0,0,188.65,99.23ZM134.47,3.61c.33.07.35.3.55.31a.27.27,0,0,0,0-.41ZM122.78,150.15a.46.46,0,0,0,.67,0A.48.48,0,0,0,122.78,150.15Zm2.64.66a.45.45,0,0,0,.66,0A.47.47,0,0,0,125.42,150.81Zm15.53.24c.52.1.52.1.69-.05A.63.63,0,0,0,141,151.05ZM112,22.07a.28.28,0,0,0-.44,0c0,.11-.07.27.14.3ZM144.41,74c.07-.33.3-.35.31-.55a.27.27,0,0,0-.41,0ZM23.82,78.85c-.15.16-.17.31,0,.46.1-.13.27-.2.3-.4ZM140.4,80.94c.33.07.35.3.55.31a.27.27,0,0,0,0-.41ZM24.28,96.75c-.1.28-.3.31-.32.5s.25.11.41,0Zm59.18,7.49a.26.26,0,0,0,.44,0c0-.11.07-.27-.14-.3Zm39.41,8.83c-.1.53-.09.53.06.69A.63.63,0,0,0,122.87,113.07Zm108.78.77c-.07.33-.3.35-.31.55a.27.27,0,0,0,.41,0ZM86.32,125.11a.25.25,0,0,0,.43,0c0-.11.07-.27-.13-.3S86.41,125,86.32,125.11Zm101.07-20c-.2-.14-.34-.21-.43,0C187.09,105.27,187.21,105.26,187.39,105.12ZM121.14,5.71a.26.26,0,0,0,0,.44A.27.27,0,0,0,121.14,5.71Zm-1.17,2h.14a2.85,2.85,0,0,0,0-.29s0-.08-.07-.07-.13,0-.14.08S120,7.56,120,7.66ZM89.5,90.29a.26.26,0,0,0,0,.44A.26.26,0,0,0,89.5,90.29Zm41,61.4c-.2-.14-.34-.2-.43,0C130.19,151.84,130.31,151.84,130.49,151.69ZM86.8,37.54h.14c0-.1,0-.2,0-.29s0-.08-.07-.07-.14,0-.14.07A1.54,1.54,0,0,0,86.8,37.54ZM33.48,107a.26.26,0,0,0,0,.44A.26.26,0,0,0,33.48,107Zm153.69.33c-.2-.15-.34-.21-.43,0C186.87,107.47,187,107.46,187.17,107.32Zm-55.38,16a.27.27,0,0,0-.44,0A.26.26,0,0,0,131.79,123.35Zm16.29-96.73v.14l.3,0s.07-.06.07-.07,0-.14-.08-.14A1.36,1.36,0,0,0,148.08,26.62Zm-1.46-3.54c.14-.2.2-.34,0-.43C146.47,22.78,146.48,22.9,146.62,23.08ZM76.83,93.62h-.14c0,.1,0,.2,0,.3s.06.07.07.07.14,0,.14-.08A1.36,1.36,0,0,0,76.83,93.62ZM115,15.38a.26.26,0,0,0,0-.44A.27.27,0,0,0,115,15.38ZM29.42,89.08a.26.26,0,0,0,.44,0A.26.26,0,0,0,29.42,89.08ZM122.8,95c-.2-.14-.34-.2-.43,0C122.5,95.17,122.62,95.16,122.8,95ZM230.47,59.07h.14c0-.1,0-.2,0-.29s0-.08-.07-.07-.13,0-.13.07A1.53,1.53,0,0,0,230.47,59.07Zm-88.24-1.28c.14-.2.2-.34,0-.43C142.07,57.49,142.08,57.61,142.23,57.79Zm8,37.73v-.14c-.1,0-.2,0-.3,0a.12.12,0,0,0-.07.07s0,.13.08.14A1.35,1.35,0,0,0,150.21,95.52Zm-52.66-39v.14a2.58,2.58,0,0,0,.29,0s.07-.05.07-.06,0-.14-.08-.14A1.43,1.43,0,0,0,97.55,56.5ZM36.84,117.12h-.13a1.45,1.45,0,0,0,0,.29s0,.08.07.07.14,0,.14-.08A1.55,1.55,0,0,0,36.84,117.12ZM237,85.57c-.2-.14-.34-.21-.43,0C236.73,85.72,236.86,85.71,237,85.57Zm-81,34.35h.14a2.85,2.85,0,0,0,0-.29s0-.08-.07-.07-.14,0-.14.08A1.55,1.55,0,0,0,156,119.92ZM26.12,103.8a.26.26,0,0,0-.44,0A.26.26,0,0,0,26.12,103.8Zm163.93.52h.14a2.58,2.58,0,0,0,0-.29.12.12,0,0,0-.07-.07c-.05,0-.13,0-.14.08A1.55,1.55,0,0,0,190.05,104.32Zm-.23.29v.14l.3,0s.07-.06.07-.07-.05-.14-.08-.14A1.36,1.36,0,0,0,189.82,104.61ZM119.9,8l-.08-.08a.41.41,0,0,0-.07.15s0,0,.07.07ZM30.77,90.43l.07.08a.51.51,0,0,0,.07-.15s0,0-.07-.07ZM145.41,68s0-.07-.07-.07l-.15.07s.06.08.07.07A.51.51,0,0,0,145.41,68ZM88,91.75,88,91.61s-.07,0-.07.07l.07.15Zm80.41-29.66-.08-.14s-.07.06-.07.07a.41.41,0,0,0,.07.15ZM139,61,139,61l-.15-.07s0,0-.07.07Zm92.21-.38-.08.08a.41.41,0,0,0,.15.07s0,0,.07-.07ZM23.85,81.91l.07-.08-.14-.07s-.05,0-.07.07ZM96,56.38l-.08-.14s-.07,0-.07.07a1,1,0,0,0,.07.15ZM184,98.12,184,98s-.08,0-.07.07a.51.51,0,0,0,.07.15ZM140.77,54.34l-.08-.08a.51.51,0,0,0-.07.15s0,.05.07.07Zm47.12,45.37.14-.08s-.05-.08-.07-.07a.51.51,0,0,0-.15.07Zm-56.43,2.22s-.07.06-.07.08a.91.91,0,0,0,.07.14s.07-.05.07-.07A.51.51,0,0,0,131.46,101.93Zm-108.3,4.4s-.08,0-.07.07a.51.51,0,0,0,.07.15s.07-.06.06-.07A.67.67,0,0,0,23.16,106.33ZM140.72,49.24l-.14.08s0,.07.07.07a1,1,0,0,0,.15-.07ZM39.05,108.6l-.08-.08-.07.15s.05,0,.07.07Zm48.25-71s-.07,0-.06.07a.94.94,0,0,0,.06.15s.08-.06.07-.08A.37.37,0,0,0,87.3,37.57ZM86.61,75.1l.14-.08s0-.07-.07-.07l-.14.07Zm35.92,37.46-.08-.08s0,.09-.07.15.05,0,.07.07ZM26.86,84l-.08.08a1,1,0,0,0,.15.07s.05,0,.07-.07Zm120.28.55-.08-.14s-.07,0-.07.07a.51.51,0,0,0,.07.15Zm-1.65-10.06.14-.08s0-.07-.07-.07l-.15.07Zm4.83-45.19-.08.08a1,1,0,0,0,.15.07s.05,0,.07-.07Zm-15,94.76s-.06-.07-.08-.07l-.14.07s0,.07.07.07A.51.51,0,0,0,135.31,124Zm13.58-97.35-.07-.08a.51.51,0,0,0-.07.15s0,.05.07.07Zm-.73-.74s-.08.06-.07.08a.46.46,0,0,0,.07.14s.07-.05.07-.07Zm-.77-1.64s-.06-.08-.07-.07a.41.41,0,0,0-.15.07s.05.07.07.06Zm-4.65,48.58-.08-.14s-.07,0-.06.07a.94.94,0,0,0,.06.15Zm-55.88-34s-.07.06-.06.08a.59.59,0,0,0,.06.14s.08-.05.07-.07A.51.51,0,0,0,86.86,38.88ZM115,22.38l.07-.08a.37.37,0,0,0-.14-.07s0,0-.08.07ZM112.16,20l-.14.08s0,.07.07.07a.51.51,0,0,0,.15-.07Zm1.58-1.49-.07-.08a.51.51,0,0,0-.07.15s0,0,.07.07ZM157.2,134l.07-.08a.46.46,0,0,0-.14-.07s0,0-.08.07Zm-74-64.2-.08-.14s-.07,0-.07.07a1,1,0,0,0,.07.15Zm70.08,19.77-.08-.14s-.07.06-.07.07a.69.69,0,0,0,.07.15ZM146,69.2s-.07,0-.07.07a1,1,0,0,0,.07.15s.07,0,.07-.07A1,1,0,0,0,146,69.2Zm-19,82.08-.08-.14s-.08.06-.07.08a.46.46,0,0,0,.07.14ZM140,11.42s-.07.06-.07.08a.46.46,0,0,0,.07.14s.07-.05.07-.07A1,1,0,0,0,140,11.42Zm-.47-.69.14-.08s-.06-.07-.07-.06a.67.67,0,0,0-.15.06Z"/><path d="M71.6,44.6v.54l.22.24c-.08.29-.08.29-.44.54a.5.5,0,0,1-.43-.41c0-.23-.28-.31-.25-.57,0-.1-.17-.28-.4-.32a6.68,6.68,0,0,0,0,1l.31.1c.1.17.23.37.33.58a1,1,0,0,1,0,.36l.67.55c0,.39,0,.64.21.81a8.5,8.5,0,0,0,.73,1.56c.12.3.21.69.59.8v.48l.42.42,0,.47c.11.11.32.23.4.42s.07.34.26.42l-.22.25.62.62c0,.18,0,.39.09.51a.54.54,0,0,1,0,.84c-.06.06,0,.2-.05.3l-.54.06c-.16.16,0,.36-.11.51l-.29.55L73.46,56c-.24,0-.5.08-.73-.08l.19-.32c0-.23-.2-.3-.3-.44s-.33-.26-.38-.5-.2-.29-.29-.42H71.6c0-.14.1-.34-.13-.42-.1.29-.1.29.13.42,0,.08,0,.16,0,.22.21.5.5,1,.7,1.46.07.16.25.27.39.4-.1.38.2.64.3,1,.32.15.29.55.56.78v.68c-.07.12-.1.1-.17,0-.35-.31-.37-.81-.69-1.14,0-.32-.26-.41-.42-.64l0-.4a2.15,2.15,0,0,1-.42-.58c-.08-.27-.34-.36-.46-.6V55c-.2-.22-.46-.37-.47-.7-.34-.36-.35-.92-.78-1.21a9.4,9.4,0,0,0-.49-1,4.16,4.16,0,0,0-.58-1,1.08,1.08,0,0,1-.29-.64,1.43,1.43,0,0,0-.23-.57c-.15-.26-.18-.59-.44-.82V48.4l.43-.31v-.31l1.1-1.09v-.21l.22-.24V44.93l-.22-.24v-.56s.62-1.15.64-1.16c.28-.27.35-.68.69-.93a10.18,10.18,0,0,0,.94-.92l.85-.85c.53-.13.78-.61,1.15-.94s.67-.67,1-1v-.25l.3-.1.42-.63h.26l1-1a12,12,0,0,1,1-1c.38-.3.46-.81.84-1.07h.38l.33-.23.29.1-.58.57h-.26l-.08.39.38.07c.16.12,0,.32.08.49-.16.18-.26.45-.58.34-.16-.15,0-.35-.1-.57l-.37-.07-.11.7-.27-.24A2.55,2.55,0,0,0,77,37.11h-.47c-.22.34-.63.51-.79,1a4.45,4.45,0,0,1-.42.81l-.65.32.19.22-.24.4.26.28c-.23.18-.63.16-.66.58a.63.63,0,0,0,.44.4v.15l.28.5c.4.05.37-.17.4-.36l.35-.11.47-.48s0-.05,0-.07c-.31-.15-.09-.47-.23-.67s-.15-.16-.23-.23-.14-.46-.37-.61c0,0,0-.21,0-.32h.34c.06.32.33.5.5.75a5,5,0,0,1,.34.79h.58l.2.35a.67.67,0,0,0-.14.15c-.12.22-.39.12-.54.3s-.39.11-.53.3a1.93,1.93,0,0,1-.47.43c-.07.06-.19.06-.28.09v.31l-.31.53-.77-.34V41.21c-.25-.25-.53,0-.76-.17l-.53.61c.19.11.47.16.61.42v.39a1.69,1.69,0,0,0,.28.38h-.38c-.16-.25-.19-.61-.58-.66s-.22.2-.14.4l.29.06c.16.19.14.52.45.61a3.51,3.51,0,0,0,.36-.41h.27l.32.32c-.53.2-.84.7-1.28,1.06-.11-.1-.2-.15-.24-.22a2.06,2.06,0,0,0-.72-.89c-.11-.09-.2-.2-.31-.3l-.35.14.28.55c-.06.24-.27.34-.4.5A.44.44,0,0,0,71.6,44.6ZM71.08,53l-.14.07s0,.08.07.07a.51.51,0,0,0,.15-.07Zm3.29-13.19-.14.08s.06.08.07.07a.41.41,0,0,0,.15-.07Z"/><path d="M186.49,62.06V59.42l.15-.14s.07-.06.07-.09v-2.4l.21-.21v-1.1l.23-.23v-.88l.23-.23v-.88l.2-.2v-.43l.42-.44.1-.35c.17.16.39.23.38.5,0,0,.07.16.11.16.56,0,.46.57.76.77v2.64l-.2.19V57l-.23.23v3.3l-.19.19c-.12.33.07.71-.19,1.11a4.13,4.13,0,0,1-.07-1.14c0-.37,0-.73,0-1.1V58.46c-.21.16-.21.16-.22.73l-.22.24v1.34l-.42.14c-.05.67,0,1.36,0,2l-.33.33-.53-.6V62.3Zm.88.22s-.05-.07-.07-.07a1,1,0,0,0-.15.07s0,.07.07.07A.51.51,0,0,0,187.37,62.28Z"/><path d="M77.09,37.79h.76c.17.54.67.81,1,1.22v.65l-.32.32h-.46l-.14.39c-.26.13-.55,0-.83.05,0-.18.17-.22.22-.37v-.4a1,1,0,0,1,.62-.4.27.27,0,0,0-.08-.37c-.18-.14-.07-.34-.11-.52s-.21-.36-.48-.36A.16.16,0,0,1,77.09,37.79Z"/><path d="M186.27,44.6a1.13,1.13,0,0,1,.68.73c0,.15.24.26.34.4s.07.29.16.36c.27.19.33.52.57.84a2.27,2.27,0,0,1,0,.65c0,.25,0,.5,0,.75-.14,0-.24-.07-.21-.17.09-.35-.26-.55-.28-.86-.26-.23-.21-.7-.61-.78V46l-.37-.12c-.15-.23,0-.48-.07-.73l-.22-.23Z"/><path d="M74.38,43.87l.39-.41.35.69-.55,1.11h-.66l-.24.22h-.46l-.09.29.24.27-.34.14-.34-.43c.09-.2.17-.42.27-.63s.1-.11.15-.16l.15-.13.27.23c.47-.1.59-.72,1.14-.74Z"/><path d="M76.88,42.5l.22.25a1.38,1.38,0,0,0-.39.15c-.11.09-.21.2-.38.15s-.1-.35.09-.52l-.19-.23c.12-.26.39,0,.56-.15s0-.34.08-.51.33-.09.49-.12L78,40.8l.08.11.44-.25.3.3a2.6,2.6,0,0,0-.51.32,1.68,1.68,0,0,1-.53.31c-.1,0-.23.15-.23.23,0,.34-.29.32-.46.45A1.67,1.67,0,0,0,76.88,42.5Z"/><path d="M80.49,38h-.44l-.3-.32a1.9,1.9,0,0,0-.38-1.24c-.08-.14-.12-.24,0-.38l.15.06.27.12.17.11v.22c.22.15.54.16.67.53v.34l.2.24Z"/><path d="M78.78,40l.66-.07c.06-.39.38-.59.61-.85h.11a1.7,1.7,0,0,1,.21.07v.73l-.47.3h-.38l-.32.44-.28,0C78.75,40.46,78.91,40.26,78.78,40Z"/><path d="M90.05,49.56l-.66-.72c0-.35-.37-.4-.44-.68s.2-.34.37-.49l.12.41.61.52Z"/><path d="M182.76,40.21c-.27-.06-.4-.29-.56-.47a2.37,2.37,0,0,1-.29-.55c.11-.14.25-.13.4,0A2.3,2.3,0,0,1,182.76,40.21Z"/><path d="M81.46,38.43v.37c-.24.16-.5.06-.79.09l-.07-.35C80.87,38.37,81.12,38.47,81.46,38.43Z"/><path d="M78.94,37.77c.2.21.45.36.39.64l.39.09c0,.07-.08.15-.12.16s-.28,0-.42,0L78.84,38Z"/><path d="M181.64,38.92s0,0,0,.12-.08.05-.6-.49a1.61,1.61,0,0,1,0-.22s.05,0,.09-.1Z"/><path d="M182.76,40.2h.32c.13.19.47.27.29.6C183.26,40.87,183.26,40.87,182.76,40.2Z"/><path d="M75.65,43.7l-.33-.32.35-.3.28.26C75.92,43.52,75.77,43.6,75.65,43.7Z"/><path d="M188,51V50.6l.39-.11.05.45Z"/><path d="M74.56,55.8h.27l.08.39-.33.06A.27.27,0,0,1,74.56,55.8Z"/><path d="M180.34,37.57c.22,0,.27.21.43.31l0,.3c-.22,0-.28-.2-.41-.29Z"/><path d="M188.38,50.37a.62.62,0,0,1-.06-.68C188.47,49.84,188.48,49.84,188.38,50.37Z"/><path d="M188,51l0,.4c-.22,0-.28-.18-.4-.26C187.69,50.86,187.89,51,188,51Z"/><path d="M187.37,64.59c0,.14.11.34-.13.42C187.15,64.72,187.15,64.72,187.37,64.59Z"/><path d="M72.37,44.14c.14.18.15.3,0,.43C72.16,44.48,72.22,44.34,72.37,44.14Z"/><path d="M71.6,44.6c0-.14-.11-.34.12-.42C71.82,44.47,71.82,44.47,71.6,44.6Z"/><path d="M184.84,42.62a.26.26,0,0,1,0,.44A.27.27,0,0,1,184.84,42.62Z"/><path d="M88.25,40.89c0,.1,0,.2,0,.29s-.09.07-.14.08-.07,0-.07-.07a2.85,2.85,0,0,1,0-.29Z"/><path d="M77.09,37.79c-.23-.13-.23-.13-.13-.42C77.19,37.45,77.05,37.64,77.09,37.79Z"/><path d="M89.17,37.35c.13-.23.13-.23.42-.13C89.51,37.45,89.31,37.31,89.17,37.35Z"/><path d="M187.31,64.61l.19-.22C187.65,64.58,187.48,64.56,187.31,64.61Z"/><path d="M182.07,56.1l-.08.14s-.07-.05-.07-.07A.51.51,0,0,1,182,56Z"/><path d="M188.33,49.24l.14.08-.07.07a1,1,0,0,1-.15-.07Z"/><path d="M188,48.27l.23.19C188,48.61,188.05,48.44,188,48.27Z"/><path d="M186.27,44.6a.19.19,0,0,1-.22-.22C186.2,44.37,186.28,44.44,186.27,44.6Z"/><path d="M185.83,44.16c.15,0,.23.06.22.22A.19.19,0,0,1,185.83,44.16Z"/><path d="M185.36,43.64l-.08.08-.07-.15s0,0,.07-.07Z"/><path d="M82.25,37.35a.46.46,0,0,1,.07.14s0,0-.07.08a1,1,0,0,1-.07-.15S82.23,37.37,82.25,37.35Z"/><path d="M86.06,39.84,86,40s-.08,0-.07-.07a.51.51,0,0,1,.07-.15Z"/><path d="M90.24,37l-.08.14s-.07-.06-.07-.08a.91.91,0,0,1,.07-.14Z"/><path d="M76.4,39.25l-.08.07a.91.91,0,0,1-.07-.14s0,0,.07-.08Z"/><path d="M76.43,38.55a.51.51,0,0,1-.15.07s0,0-.07-.07l.15-.06S76.41,38.53,76.43,38.55Z"/><path d="M185.86,44.22l-.23-.19C185.83,43.88,185.81,44.05,185.86,44.22Z"/><path d="M50.51,110l.21.23v.44l-.63.32h-.76s-.06,0-.09-.06a2.58,2.58,0,0,0-.47-1.18v-.9l.34-.28.25,0,.1.62.73,0,.32.31Z"/><path d="M30.2,95.11l.46,0a.9.9,0,0,1,.06.55c-.22.35-.74.31-.89.71l-.56.07-.15.39h-.49l-.09-.09a.5.5,0,0,0,.23-.45,3.06,3.06,0,0,1,.72-.68A2.85,2.85,0,0,0,30.2,95.11Z"/><path d="M47,108l-.22-.23v-.23a1.17,1.17,0,0,1,.8-.06c.25.26,0,.37-.14.53v.92l-.33.06c-.06-.07-.1-.1-.11-.13Z"/><path d="M74.47,117.86l-.06.27c-.19.12-.41.05-.61.06s-.29.06-.43-.09v-.48l.49-.25Z"/><path d="M38.75,79.31l-.36.36s0,.07-.08.07h-.76L37,79.42a1.12,1.12,0,0,1,.3-.11C37.75,79.3,38.17,79.31,38.75,79.31Z"/><path d="M22.83,92.27v-.12l.61-.3.26.39v.36c-.13.18-.32.08-.57.12Z"/><path d="M75.67,112.24a.81.81,0,0,1,.1.24v1.75c-.12,0-.21-.08-.21-.1,0-.58,0-1.16,0-1.75C75.55,112.36,75.59,112.33,75.67,112.24Z"/><path d="M28.32,93.26l.3-.31s.07,0,.07,0c.11.23.21.47.31.69a.56.56,0,0,1-.62.09C28.25,93.61,28.35,93.42,28.32,93.26Z"/><path d="M47.92,110.14l.38.25c.05.34-.24.37-.32.66A1.23,1.23,0,0,1,47.92,110.14Z"/><path d="M34.67,91.63H35c.16.17.05.36.1.58l-.34.06C34.62,92.07,34.73,91.89,34.67,91.63Z"/><path d="M25.88,92l.4,0a.62.62,0,0,1,0,.63Z"/><path d="M32.53,94.56l.51-.1a.27.27,0,0,1,0,.41C32.88,94.86,32.86,94.63,32.53,94.56Z"/><path d="M48.2,107.88c-.14-.18-.15-.3,0-.43C48.41,107.54,48.34,107.68,48.2,107.88Z"/><path d="M35.46,92.27a.26.26,0,0,1,0,.44A.26.26,0,0,1,35.46,92.27Z"/><path d="M34,82.28a.31.31,0,0,1,.43-.06C34.35,82.48,34.21,82.41,34,82.28Z"/><path d="M71.05,114.24a.26.26,0,0,1,0,.44A.26.26,0,0,1,71.05,114.24Z"/><path d="M35.68,81.93c.14.18.15.3,0,.43C35.47,82.26,35.54,82.13,35.68,81.93Z"/><path d="M25.6,65.65l-.14-.07s.06-.08.07-.07a.41.41,0,0,1,.15.07Z"/><path d="M36.52,93.77l-.07-.07a.46.46,0,0,1,.14-.07s0,0,.08.07Z"/><path d="M28.07,94,28,94a.51.51,0,0,1-.07-.15s0,0,.07-.07Z"/><path d="M36.74,94.06l.15.08s-.06.07-.08.06a.84.84,0,0,1-.14-.06Z"/><path d="M74.37,98.83l-.14-.08.07-.07a.41.41,0,0,1,.15.07Z"/><path d="M75.3,108.23l-.08.07a.61.61,0,0,1-.07-.14s0,0,.07-.07Z"/><path d="M219.23,120.94l.21.22c0,.49,0,1,0,1.51,0,0,0,0-.05.08l-.3.08c-.21,0,.07.39-.23.38,0,0-.07-.06-.07-.09,0-.29,0-.58,0-.87l.16-.16s.05,0,.05-.08c0-.88,0-1.75,0-2.61a.28.28,0,0,1,.39-.07C219.47,120.57,219.47,120.57,219.23,120.94Z"/><path d="M218.7,116.21l.23,0c.15.22,0,.48.08.74l-.33.28c-.14,0-.21-.2-.33-.29v-.44Z"/><path d="M231.57,111.79a1.54,1.54,0,0,1,0-.3c0-.24,0-.49,0-.8C231.77,111,231.78,111,231.57,111.79Z"/><path d="M219.35,119.19a2.23,2.23,0,0,1-.12-1c0-.06.05-.12.07-.19C219.48,118.25,219.48,118.25,219.35,119.19Z"/><path d="M231.86,107.64a.48.48,0,0,1,0,.67A.46.46,0,0,1,231.86,107.64Z"/><path d="M217.8,118.63a.47.47,0,0,1,0,.66A.45.45,0,0,1,217.8,118.63Z"/><path d="M216.92,121.92a.48.48,0,0,1,0,.67A.46.46,0,0,1,216.92,121.92Z"/><path d="M233,105.45a.26.26,0,0,1,0-.44A.27.27,0,0,1,233,105.45Z"/><path d="M228.64,121.22a1.45,1.45,0,0,1-.29,0s-.06-.09-.08-.14a.12.12,0,0,1,.07-.07,1.35,1.35,0,0,1,.29,0Z"/><path d="M226.36,123a.51.51,0,0,1,.07.15s0,0-.07.07a.84.84,0,0,1-.06-.14S226.34,123.05,226.36,123Z"/><path d="M229.69,114.93l.08.08-.15.06s-.05,0-.07-.06Z"/><path d="M219.15,124.37l.07.08a.37.37,0,0,1-.14.07s-.05,0-.07-.07Z"/><path d="M217.88,70.22l-.08.08a.51.51,0,0,1-.07-.15s0-.05.07-.07Z"/><path d="M226,129.21l.08.07a.51.51,0,0,1-.15.07s0,0-.07-.07Z"/><path d="M201,143.34a.41.41,0,0,1-.15.07s0,0-.07-.07a.94.94,0,0,1,.15-.06S201,143.32,201,143.34Z"/><path d="M108.28,35.43l.37-.09c.1-.18.09-.41.3-.53v-.65l.3-.3h1.17c.14.34,0,.66.07,1l-.21.21v1.07c-.16.31-.42.35-.64.45l-.08.3a3.41,3.41,0,0,0-.73.33c-.2.08-.16.5-.47.58,0,0-.07,0-.07-.08C108.28,37,108.28,36.22,108.28,35.43Z"/><path d="M123.51,23.47l-.27-.27c-.09-.21.06-.32.18-.44s0-.34,0-.53l.33-.05c.15.31,0,.63.09,1Z"/><path d="M130.14,7.47h.12l.42.28c0,.37-.21.43-.32.6l-.3-.3C130.05,7.85,129.94,7.64,130.14,7.47Z"/><path d="M122.86,23.72c.12,0,.14.12.14.37l-.53.31s-.16,0-.11-.39Z"/><path d="M116.64,32.88c-.28.13-.39,0-.47-.06a.59.59,0,0,1,.39-.49C116.7,32.49,116.6,32.68,116.64,32.88Z"/><path d="M113.14,37.82v-.43l.35-.07.08.41Z"/><path d="M119.74,29.35l-.43.27,0-.31C119.43,29.19,119.55,29.18,119.74,29.35Z"/><path d="M111.58,55.46l-.3.31c-.21,0-.12-.19-.14-.3A.28.28,0,0,1,111.58,55.46Z"/><path d="M138.82,11.42c.07.05.18.08.21.15a.7.7,0,0,1,0,.29c-.07,0-.18-.08-.21-.14A.75.75,0,0,1,138.82,11.42Z"/><path d="M156.18,40c-.13.23-.13.23-.43.13C155.84,39.88,156,40,156.18,40Z"/><path d="M115.11,37.46c-.18.14-.3.15-.43,0C114.77,37.25,114.91,37.31,115.11,37.46Z"/><path d="M130.8,4.61a.51.51,0,0,1,.07.15s0,0-.07.07a.91.91,0,0,1-.07-.14S130.78,4.64,130.8,4.61Z"/><path d="M158.65,45l-.19.22C158.31,45,158.48,45.06,158.65,45Z"/><path d="M153.38,35.12l-.19.23C153,35.16,153.21,35.17,153.38,35.12Z"/><path d="M118,32.4a.51.51,0,0,1-.15.07s0,0-.07-.07l.15-.07S117.93,32.38,118,32.4Z"/><path d="M154.61,38.16l.23.2C154.64,38.5,154.66,38.33,154.61,38.16Z"/><path d="M151.57,108l0,.46-.32,0c-.19-.16,0-.36-.11-.52s-.31-.1-.6-.15l-.27-.3c0-.05.07-.1.1-.1H151Z"/><path d="M152.4,109.34s-.06.06-.09.06c-.38,0-.5-.36-.77-.57l.4-.14.47.57S152.4,109.31,152.4,109.34Z"/><path d="M152,108.49a1.36,1.36,0,0,1,0-.29s.09-.06.14-.08.07,0,.07.07,0,.2,0,.3Z"/><path d="M145.6,104.05l-.08.08a1,1,0,0,1-.07-.15s.05,0,.07-.07Z"/><path d="M151.92,107.46l.08.08a.67.67,0,0,1-.15.06s0,0-.07-.06Z"/><path d="M151.26,109.87l.08.08a.41.41,0,0,1-.15.07s0,0-.07-.07Z"/><path d="M139.37,94.9h.21c.21.17.1.39.08.62l-.28.06A.48.48,0,0,1,139.37,94.9Z"/><path d="M143.43,60.42v-.76l.31-.37c.07.08.12.1.12.13,0,.31,0,.62,0,1Z"/><path d="M141.9,54V53.6c.2,0,.23.13.21.28A.16.16,0,0,1,141.9,54Z"/><path d="M74.67,41.08c0-.14-.1-.34.13-.42C74.9,41,74.9,41,74.67,41.08Z"/></g></g></svg>