<svg xmlns="http://www.w3.org/2000/svg" viewBox="0 0 142.03 142.03"><title>Recurso 103MANDALA</title><g id="Capa_2" data-name="Capa 2"><g id="Capa_1-2" data-name="Capa 1"><path d="M73.3,37.5c-2,23.22-.9,37.49-2,37.49s-.42-16.63-2-37.49C67.67,17,70.16,0,71.28,0S75.08,17.08,73.3,37.5Z"/><path d="M69.34,104.54c2-23.22.9-37.5,2-37.5s.42,16.63,2,37.5C75,125,72.48,142,71.36,142S67.55,125,69.34,104.54Z"/><path d="M56.12,41c9.86,21.12,18,32.92,17,33.48s-8.68-14.19-20.5-31.46c-11.61-17-18-32.93-17-33.48S47.46,22.46,56.12,41Z"/><path d="M86.21,101.08c-9.86-21.12-18-32.93-17-33.49s8.67,14.2,20.5,31.46c11.6,17,18,32.93,17,33.49S94.88,119.65,86.21,101.08Z"/><path d="M43,52.69c19.1,13.36,32,19.53,31.46,20.5s-14.61-8-33.49-17C22.47,47.32,9,36.66,9.53,35.7S26.23,40.94,43,52.69Z"/><path d="M99.09,89.64C80,76.28,67.07,70.11,67.63,69.14s14.61,8,33.49,17c18.52,8.87,32,19.53,31.46,20.5S115.89,101.4,99.09,89.64Z"/><path d="M37.5,69.34c23.22,2,37.49.9,37.49,2s-16.63.42-37.49,2C17,75,0,72.48,0,71.36S17.08,67.55,37.5,69.34Z"/><path d="M104.54,73.3c-23.22-2-37.5-.9-37.5-2s16.63-.42,37.5-2c20.48-1.58,37.49.91,37.49,2S125,75.08,104.54,73.3Z"/><path d="M41,86.51c21.12-9.85,32.92-18,33.48-17S60.33,78.19,43.06,90c-17,11.61-32.93,18-33.48,17S22.46,95.18,41,86.51Z"/><path d="M101.08,56.43c-21.12,9.85-32.93,18-33.49,17s14.2-8.68,31.46-20.5c17-11.61,32.93-18,33.49-17S119.65,47.76,101.08,56.43Z"/><path d="M52.69,99.62c13.36-19.1,19.53-32,20.5-31.46s-8,14.61-17,33.48c-8.88,18.53-19.54,32-20.5,31.46S40.94,116.41,52.69,99.62Z"/><path d="M89.64,43.54c-13.36,19.1-19.53,32-20.5,31.46s8-14.61,17-33.48C95,23,105.67,9.5,106.64,10.06S101.4,26.75,89.64,43.54Z"/></g></g></svg>