<svg xmlns="http://www.w3.org/2000/svg" viewBox="0 0 119.09 131.37"><title>Recurso 24ART</title><g id="Capa_2" data-name="Capa 2"><g id="Capa_1-2" data-name="Capa 1"><path d="M11.79,48.85H10.24L10,50c-.31.23-.66.08-1,.1-.32-.28-.14-.65-.17-1a3.93,3.93,0,0,1,0-.84c0-.33-.12-.69.11-1l1-.11c.32-.44.11-.94.15-1.41s0-1,0-1.49h1.49c.11-.13.17-.17.19-.23a.49.49,0,0,0,0-.21V40.12L13,39.91l.08-1.41a1.13,1.13,0,0,1,.35-.17c.41,0,.81,0,1.28,0V35.56c.52-.33,1-.14,1.49-.18s.84,0,1.34,0l.23-1.22c.87-.11,1.77,0,2.67-.07.37-.42.12-.93.17-1.4a4.19,4.19,0,0,1,.15-1.5h2.6c.37-.51.14-1,.22-1.6a6.27,6.27,0,0,1,2-.1c.69,0,1.38,0,2,0,.35-.37.12-.74.22-1.06.05-.05.1-.14.15-.14l7.13-.06c.06,0,.12-.07.24-.14l.08-1.37c.12-.06.23-.16.35-.16,1.61,0,3.23,0,4.84,0a4.9,4.9,0,0,0,.62-.07v-1a1.15,1.15,0,0,0-.38-.15c-2.73,0-5.47,0-8.23,0a2.37,2.37,0,0,1-.1-1.65l1.08-.07.19-1.18H44c.31.29.09.66.16,1,.11.08.21.22.32.22h5.39c.35.52.06,1,.25,1.52.06,0,.18.16.29.16q7.57,0,15.15,0a2.06,2.06,0,0,0,.45-.11l.08-1.39c.12-.06.23-.17.35-.17h4s.11-.08.18-.14l.11-1a1.86,1.86,0,0,1,.38-.15h2.31c.43.41.16.92.2,1.38s0,1,0,1.51c-1,.12-1.87,0-2.85.09l-.19,1.2H68c-.42.51-.07,1-.36,1.63-.76.31-1.75-.1-2.68.16-.29.3,0,.66-.17,1a4.29,4.29,0,0,0,1.87.17c.7,0,1.4,0,2.1,0h7.8c0-.42.07-.75.1-1.08a37.62,37.62,0,0,1,7,0,1.61,1.61,0,0,1,.08.38,5.22,5.22,0,0,1,0,.58c-.32.32-.69.1-1,.18-.5.44,0,1.07-.3,1.57a3.23,3.23,0,0,1-1.42.1c-.41,0-.83,0-1.23,0-.33.38-.24.77-.07,1.24h2.61c.37.51.14,1,.22,1.57l1.11.21c.28.3,0,.67.15,1,.11.07.22.19.34.19.83,0,1.66,0,2.53,0l.1-1.09c.21-.29.51-.17.77-.16s.56-.13.83.15v2.63c-.46.3-1,.11-1.43.15s-.84,0-1.26,0c-.43.41-.16.93-.2,1.39s0,1,0,1.5c1,.13,1.87,0,2.77.09.37.42.13.93.17,1.39s0,1,0,1.5H81.07c-.42.36-.12.75-.27,1,.46.57,1.1,0,1.58.34.3.44,0,1,.19,1.43.07,0,.18.16.3.16H98.34c.29.42.11.76.17,1.07-.47.38-1,.15-1.44.19s-.95,0-1.46,0v4.45c.07.08.11.16.17.17a2.91,2.91,0,0,0,.42,0H100c.38.34.21.74.13,1.14-.06,0-.1.1-.16.12a.74.74,0,0,1-.21,0H89.83a2.48,2.48,0,0,0-.07,1.64l1.42.08c.35.3,0,.68.25,1.06,0,0,.13.16.24.16h5.39c.35.52.06,1,.25,1.51.06,0,.17.16.29.16,1.25,0,2.5,0,3.68,0,.1.15.17.21.17.26,0,.84,0,1.68,0,2.49-.47.38-1,.15-1.44.19s-.85,0-1.26,0a3.24,3.24,0,0,0-1.47.14v1a1.37,1.37,0,0,0,.38.14c.77,0,1.54,0,2.31,0,.5.44,0,1.08.36,1.65,1.25.09,2.57,0,4,.06l.19,1.21h2.63c.42.51.07,1,.38,1.69.27.33.91-.19,1.39.1.26.3.08.66.12,1-.11.06-.23.18-.34.19h-4.11c-.3.56-.07,1-.19,1.47.49.4,1,.15,1.46.22.21.16.21.16.31,1.12.29.29.67.06,1,.14s.22.22.11,1.65c-1.3.09-2.61,0-3.93.06-.37.43-.15.93-.17,1.4a3,3,0,0,0,.11,1.45l1,.12a1,1,0,0,1,.16.36c0,1.19,0,2.38,0,3.58.44.53,1.07,0,1.56.3.25.45.06.94.14,1.41.12.07.23.18.34.19H109l.11,1.1c.43.34.93.12,1.4.15s1,0,1.49,0V84c.37.36.74.13,1.15.24l.22,1.2,1.42.06c.4.51,0,1,.23,1.61h-4.53c-.06,0-.15-.1-.15-.15,0-.42,0-.84,0-1.26-.12-.08-.23-.21-.34-.22-1.25,0-2.5,0-3.72,0a3,3,0,0,0-.16,1.49c0,.42,0,.84,0,1.28a2.37,2.37,0,0,1-1.62.09l-.11-1c-.28-.33-.66,0-1.15-.29s.13-.93-.14-1.42c-.44-.28-.94-.08-1.41-.13-.07.11-.19.22-.19.34,0,.83,0,1.66,0,2.56l1.5.07c.44.46-.06,1.09.32,1.59l1,.12c.33.29,0,.67.24,1,0,0,.13.14.24.15.41,0,.82,0,1.19,0,.29.53.1,1,.2,1.58l1.18.2v2.69c-.28.31-.65.09-1,.16-.47.27-.07.78-.31,1.13-.44.28-.93.09-1.48.13l-.22-1.21-1-.08c-.44-.46.06-1.09-.34-1.62l-1.34-.06c-.33-.32-.11-.69-.2-1.11L100.32,93c-.28-.45,0-1-.19-1.45-.41-.42-1,.08-1.56-.29l-.11-1c-.28-.31-.66-.09-1.08-.19l-.2,1.15c-.45.31-1,0-1.45.21,0,0-.16.16-.16.28,0,.83,0,1.66,0,2.41-.15.11-.2.18-.26.18H89.87c-.39-.47-.18-1-.19-1.44a2.83,2.83,0,0,1,.13-1.48l1.38-.06c.06-.15.16-.27.16-.39,0-1.75,0-3.51,0-5.34l1.14-.22s.12-.1.12-.16c0-1.82,0-3.64,0-5.54l-1.24-.21V73.91c-.54-.46-1.16,0-1.71-.41V70.94c-.37-.33-.73-.14-1.06-.19,0,0-.15.1-.15.15,0,6.78-.06,13.57-.08,20.42l-1.48.08c-.06.12-.17.23-.17.35,0,1.61,0,3.23,0,4.84a4.25,4.25,0,0,1-.07.6l-1,.12a1.21,1.21,0,0,0-.14.37c0,1.75,0,3.51,0,5.26-.44.51-1.07,0-1.66.36-.06,1.39,0,2.84,0,4.36-.17,0-.36.09-.55.12s-.39,0-.66.08v3.91c-.53.47-1.16,0-1.71.42v4.23c-.37.35-.74.13-1.06.22-.07.11-.19.22-.2.33,0,.83,0,1.66,0,2.43a1.52,1.52,0,0,0,1.08.14c.29-.2.14-.51.18-.77s-.09-.55.15-.84l1.35-.07c.36-.31,0-.7.29-1.12l1-.19a.88.88,0,0,0,.12-.17.66.66,0,0,0,0-.2v-4c.47-.49,1.1,0,1.62-.35l.11-1c.21-.29.51-.13.77-.16s.42,0,.63,0,.56,0,.84,0,.39,0,.62.07v5.66c-.48.33-1,0-1.52.24-.28.28-.14.67,0,1.14l1.39.08c.43.45-.06,1.09.35,1.63h2.55c.37.37.15.74.24,1.15l1.12.21c0,.06.12.11.12.16,0,.84,0,1.68,0,2.5-.45.4-1,.18-1.42.19a3,3,0,0,1-1.46-.1l-.12-1c-.28-.33-.67,0-1-.19-.09.08-.18.12-.18.17,0,.89,0,1.78,0,2.68.3.27.67,0,1,.14.42.35,0,.76.29,1.18l-1.18.11c-.43.46.06,1.09-.35,1.63H85.68c-.37.37-.14.74-.22,1.07-.44.5-1.08,0-1.64.34v1.33c-.18.1-.3.21-.41.21H68.25a2.05,2.05,0,0,1-.43-.12l-.07-1.39c-.14-.06-.26-.16-.37-.16H51.59c-.55.43,0,1.06-.3,1.54,0,.05-.1.13-.16.14a2.94,2.94,0,0,1-.42,0H36.83c-.48-.45,0-1.09-.31-1.58a3.75,3.75,0,0,0-1.42-.1c-.41,0-.83,0-1.32,0l-.19-1.2-1-.11c-.31-.46-.1-1-.15-1.43-.45-.5-1.08,0-1.56-.29,0-.06-.12-.11-.12-.16,0-1.26,0-2.52,0-3.76.45-.41.95-.15,1.42-.2a4.31,4.31,0,0,0,1.49-.14l.07-1.38a1.34,1.34,0,0,1,.37-.17c1.33,0,2.67,0,4,0,.55.42,0,1.06.3,1.55.3.28.67,0,1.08.17l.2,1.1c.06,0,.12.12.17.12,2.38,0,4.76,0,7.22,0l.19-1.19,1-.12c.34-.45,0-1,.27-1.56.33-.37,1,.14,1.54-.22,0-.26,0-.6,0-.93.11-.06.23-.17.34-.18h2.32s.11-.07.21-.14V118c-.43-.32-.93-.08-1.5-.16l-.2-1.12c-.3-.27-.67-.05-1-.15-.47-.44,0-1.08-.34-1.62l-1.37-.08c-.35-.43-.11-.94-.16-1.41s.11-1-.14-1.44l-1-.11c-.31-.31-.08-.68-.16-1-.44-.5-1.08,0-1.64-.34v-1.44L44.23,109v-3.88c-.13-.12-.18-.21-.23-.21H42.75c-.47-.4-.18-.92-.22-1.38s0-1,0-1.38c-.13-.11-.18-.19-.23-.19h-2.6l-.21,1.21-1,.1a.85.85,0,0,0-.16.35c0,1.61,0,3.22,0,4.84,0,.19-.05.39-.08.65H36.81c-.33.52-.15,1-.18,1.49s0,.84,0,1.26c.44.5,1.08,0,1.56.3,0,0,.11.1.11.16,0,1.4,0,2.79,0,4.22a2.55,2.55,0,0,1-1.64.07l-.07-1.42c-.31-.33-.69-.1-1-.18-.08-.1-.22-.21-.22-.32,0-2.38,0-4.77,0-7.15v-1.19c-.52-.34-1-.06-1.51-.23,0-.07-.16-.19-.16-.3,0-1.81,0-3.62,0-5.47l-1.09-.11c-.05,0-.12-.09-.15-.15a.44.44,0,0,1,0-.2c0-1.75,0-3.51,0-5.26,0,0-.08-.11-.18-.23H31c-.14-.13-.22-.17-.23-.23a3,3,0,0,1,0-.42V90.24L29.59,90c0-.06-.1-.1-.12-.16a.74.74,0,0,1,0-.21v-4c-.49-.45-1.1-.05-1.66-.27v-4l-.64-.1a2.94,2.94,0,0,0-.42,0c-.08-.11-.22-.22-.22-.32,0-1.4,0-2.79,0-4.13-.52-.35-1-.06-1.51-.24,0-.07-.16-.19-.16-.3,0-1.25,0-2.5,0-3.79l-1.1-.11c-.34-.43-.12-.93-.16-1.4s0-1,0-1.47V67.83c0-.49,0-1,0-1.48a3,3,0,0,0-.15-1.49H22.13c-.14-.13-.22-.17-.23-.23a2.91,2.91,0,0,1,0-.42V53.07c.53-.09,1.07.11,1.58-.1a1.13,1.13,0,0,0-.14-1.22c-.42.28-1-.3-1.44.29v1H20.84c-.07.11-.2.22-.2.33,0,.82,0,1.65,0,2.43-.52.36-1,.06-1.52.26,0,.05-.15.16-.16.27,0,.83,0,1.65,0,2.41-.13.11-.18.19-.24.19H16.21c-.06-.06-.13-.1-.16-.16A.38.38,0,0,1,16,58.6V53.22c.53-.28,1-.09,1.48-.17.07-.12.19-.23.19-.34,0-.83,0-1.65,0-2.56l1.08-.06c.06-.12.17-.23.18-.34,0-.83,0-1.66,0-2.41-.15-.1-.21-.17-.26-.17-.84,0-1.67,0-2.48,0-.46.48,0,1.11-.34,1.62l-1,.11a.85.85,0,0,0-.16.35c0,.82,0,1.65,0,2.53H13.27c-.37.36-.14.74-.22,1.06-.32.45-.76.06-1,.24-.13-.15-.22-.2-.22-.25v-4c.39-.05.8.11,1.17-.12.13-1.34.12-1.34-.07-1.52h-1A6.12,6.12,0,0,0,11.79,48.85Zm66,8.88c-.47-.11-.84.11-1.14-.18-.25-.49.24-1.12,0-1.34-.72-.36-1.24,0-1.66-.37l-.11-1-1.16-.2c-.11-.55.08-1-.15-1.49-.5-.3-1.13.2-1.57-.3-.08-.33.15-.7-.16-1l-1-.11c-.38-.5.11-1.13-.35-1.63-.38,0-.8,0-1.21,0A3.57,3.57,0,0,1,67.86,50l-.18-1.07c-.56-.2-1.06.08-1.59-.26,0-.36,0-.77,0-1.18,0-.11-.13-.21-.2-.32-.33-.08-.7.14-1-.16l-.11-1c-.48-.25-1-.07-1.45-.13s-1,.18-1.4-.16l-.08-1.45c-.55-.23-1.17.18-1.52-.16s0-.8-.32-1.17c-1.18,0-2.43,0-3.68,0-.11,0-.22.13-.33.2-.08.32.15.7-.22,1.06H53.23c-.42.54.06,1.17-.36,1.64L51.43,46a5.9,5.9,0,0,0-.07.64q0,3.9,0,7.78c0,.11.11.23.17.34l1.5.08c0,1.32,0,2.57,0,3.81,0,.12.13.23.15.27.36.21.74-.09,1,.2.29.5-.22,1.14.31,1.57.47.06,1-.16,1.48.2v2.65l1.2.19c.11,1,0,1.87.1,2.85.32,0,.59,0,.86,0s.56-.08.48-.19c.41.71.12,1.09.45,1.41a4,4,0,0,1,.57,0,4.71,4.71,0,0,1,.52.15c.08.54-.15,1,.17,1.5l1.43.07L62,70.7l1,.08c.37.56-.14,1.19.27,1.56.54.21,1-.09,1.49.22l.2,1.13h6.61a1,1,0,0,0,.37-.15l.11-1c.5-.38,1.13.11,1.59-.32l.08-1.45c1-.18,2,.09,2.85-.14.13-.44-.09-.81.25-1.18.76,0,1.59,0,2.42,0,.11,0,.22-.14.33-.21.05-.47-.16-1,.15-1.42l1-.11c.06-.08.13-.13.13-.18,0-1.75,0-3.51,0-5.26,0-.11-.1-.23-.16-.35l-1-.1c-.06-.1-.13-.16-.13-.21,0-.77,0-1.54,0-2.31,0-.12-.12-.23-.22-.42H78ZM57.19,120.8c-.47.11-.84-.11-1.14.18-.06,1.34-.06,1.34.18,1.54s.7-.15,1,.17l.11,1c.09.06.14.13.2.13q2,0,4,0c.11,0,.23-.11.34-.17l.09-1.09h1.91c.7,0,1.4,0,2.09,0a7.58,7.58,0,0,0,1.84-.09c0-.93,0-1.77,0-2.6,0-.06-.07-.11-.18-.26H65.18c-.11,0-.23.13-.34.19-.09.33.13.7-.23,1.09-.42-.21-1,.28-1.33-.09s0-.86-.29-1.15H62l-.19,1.22H59.21c-.06,0-.11-.06-.19-.11l-.19-1.13a3.33,3.33,0,0,0-1.52.12Z"/><path d="M8.84,13.49V12c.05,0,.09-.13.15-.14l1.08-.14.06-1c.11-.07.23-.18.34-.18.77,0,1.55,0,2.32,0,.05,0,.11-.07.22-.15L13.08,9c.46-.33,1-.1,1.49-.17a3.53,3.53,0,0,0,.16-.52c0-.2,0-.4,0-.57s.13-.16.18-.16h2.51c.49-.45,0-1.09.35-1.63.84-.13,1.75,0,2.72-.1l.18-1.2h3.92c.35-.52.14-1,.2-1.5A1,1,0,0,1,25,3,.39.39,0,0,1,25.17,3H30.7l.06-1.17a6.82,6.82,0,0,1,1.81-.09c.7,0,1.4,0,2.1,0h1.91L36.66.19C36.79.13,36.91,0,37,0H62.27c.27,0,.56-.12.87.19V1.47c.12.13.17.21.22.22a3,3,0,0,0,.42,0h5.13l.23,1.24c1.44.07,2.89,0,4.35.05.45.45,0,1.08.35,1.63h2.54c.39.36.17.74.24,1.06.1.08.21.22.31.22h5.41c.3.52.11,1,.18,1.48.12.07.23.19.34.2H85.4l.09,1.1c.43.35.94.11,1.4.16s1-.11,1.48.15l.06,1.38a1.29,1.29,0,0,0,.39.15c.77,0,1.55,0,2.4,0l.23,1.21H94c.53.53,0,1.16.42,1.71h2.67c.05.25.09.44.11.64a2.91,2.91,0,0,1,0,.42c.1.07.2.22.31.22.83,0,1.66,0,2.46,0,.31.52.11,1,.18,1.48.11.07.23.19.34.2.83,0,1.66,0,2.55,0l.09,1.18,1.19.18.06,1.43a1.29,1.29,0,0,0,.39.15c.77,0,1.54,0,2.39,0l.22,1.14c.46.25.95.09,1.42.12s.84,0,1.24,0c.48.47,0,1.11.37,1.66H113c.13.12.22.17.22.22,0,.28,0,.56,0,.83.45.51,1.07.07,1.55.3.29.46.09,1,.17,1.5l1.2.22c0,.32,0,.66.07,1,.12.06.23.17.35.17.83,0,1.65,0,2.52,0v2.79c-.45.31-1,.11-1.42.15s-.84,0-1.34,0l-.22-1.14c-.45-.25-.94-.08-1.42-.11s-.83,0-1.24,0c-.48-.47,0-1.1-.34-1.62l-1-.11c0-.17-.07-.36-.1-.56s0-.28,0-.42-.2-.22-.31-.22c-.83,0-1.66,0-2.46,0-.32-.52-.12-1-.18-1.49-.45-.49-1.08,0-1.64-.34,0-.28,0-.61-.07-.94-.11-.06-.23-.17-.35-.17-.77,0-1.54,0-2.31,0,0,0-.11-.07-.22-.15l-.07-1.36c-.14-.06-.26-.16-.38-.16h-2.4l-.21-1.14c-.45-.25-.95-.08-1.42-.11s-.84,0-1.24,0c-.49-.46,0-1.1-.35-1.62-.85-.17-1.75,0-2.64-.1-.32-.28-.1-.66-.17-1-.1-.09-.2-.23-.3-.23-.83,0-1.67,0-2.46,0-.33-.51-.13-1-.2-1.55l-1.21-.23-.06-1c-.12-.06-.23-.17-.35-.17-1.33,0-2.67,0-4,0,0,0-.11-.07-.22-.15L86.69,12c-.14-.06-.26-.16-.37-.16H83.91c-.07-.36-.14-.74-.21-1.13,0,0-.1-.12-.16-.12H79.77c-.48-.46,0-1.1-.3-1.57a.82.82,0,0,0-.17-.11.74.74,0,0,0-.21,0H74a2.45,2.45,0,0,1-.28-.06l-.18-1.19h-4.3c-.37-.29-.2-.6-.23-.86a4.39,4.39,0,0,1,0-.63c-.11-.07-.22-.2-.33-.2H63.18l-.06-1.18a7.27,7.27,0,0,0-1.81-.08c-.7,0-1.4,0-2.11,0H57.3l-.08-1.52C57.09,3.07,57,3,56.85,3q-8.2,0-16.41,0c-.26,0-.56-.12-.86.2V4.43c-.12.12-.17.2-.23.21a2.91,2.91,0,0,1-.42,0H30.86l-.21,1.13a.64.64,0,0,1-.17.13.74.74,0,0,1-.21,0H25.05c-.48.48,0,1.11-.38,1.66H20.74c0,.26-.09.45-.11.64s0,.28,0,.42-.21.21-.32.22H17.85c-.29.52-.1,1-.18,1.48-.11.07-.23.19-.34.19-.83,0-1.66,0-2.53,0l-.1,1.1c-.43.35-.94.1-1.4.16s-1-.12-1.5.16V13.3c-.52.33-1,.15-1.49.18S9.33,13.49,8.84,13.49Z"/><path d="M4.21,16.43v2.74c-.26.34-.63.2-1,.21-.62,0-1.24,0-2,0l-.05,1.07c-.35.41-.76,0-1,.21-.12-.18-.18-.23-.19-.29V17.91c.32-.36.7-.14,1-.21.49-.27.08-.78.3-1.09.06-.07.11-.17.16-.17Z"/><path d="M8.84,13.49v1c-.44.45-1,.08-1.52.27-.4.45,0,1.06-.34,1.63H4.21a5.4,5.4,0,0,1,.11-1.64l1.49-.07L6,13.49Z"/></g></g></svg>