<svg xmlns="http://www.w3.org/2000/svg" viewBox="0 0 87.35 102.68"><title>Recurso 47MANDALA</title><g id="Capa_2" data-name="Capa 2"><g id="Capa_1-2" data-name="Capa 1"><path d="M50.63,16.26l2.18,1.5A2,2,0,0,0,55.46,15L44,.16a.41.41,0,0,0-.65,0L31.89,15a2,2,0,0,0,2.65,2.8l2.18-1.5a2.87,2.87,0,0,1,4.49,2.1l.52,5.82a2,2,0,0,0,3.89,0l.52-5.82A2.87,2.87,0,0,1,50.63,16.26Z"/><path d="M10.65,61.4l.22-2.64a2,2,0,0,0-3.75-.89L0,75.2a.4.4,0,0,0,.32.55L18.9,78.28a2,2,0,0,0,1.1-3.7l-2.39-1.13a2.87,2.87,0,0,1-.42-4.94L22,65.14A2,2,0,0,0,20,61.78l-5.3,2.46A2.88,2.88,0,0,1,10.65,61.4Z"/><path d="M87.32,75.2,80.23,57.87a2,2,0,0,0-3.75.89l.22,2.64a2.88,2.88,0,0,1-4.07,2.84l-5.3-2.46a2,2,0,0,0-2,3.36l4.78,3.37a2.87,2.87,0,0,1-.42,4.94l-2.39,1.13a2,2,0,0,0,1.09,3.7L87,75.75A.4.4,0,0,0,87.32,75.2Z"/><path d="M36.72,86.43l-2.18-1.51a2,2,0,0,0-2.65,2.8l11.46,14.81a.41.41,0,0,0,.65,0L55.46,87.72a2,2,0,0,0-2.65-2.8l-2.18,1.51a2.87,2.87,0,0,1-4.49-2.11l-.52-5.82a2,2,0,0,0-3.89,0l-.52,5.82A2.87,2.87,0,0,1,36.72,86.43Z"/><path d="M76.7,41.28l-.22,2.64a2,2,0,0,0,3.75.9l7.09-17.33a.41.41,0,0,0-.32-.56L68.45,24.41a2,2,0,0,0-1.1,3.69l2.39,1.13a2.88,2.88,0,0,1,.42,4.95l-4.77,3.36a2,2,0,0,0,1.94,3.36l5.3-2.45A2.87,2.87,0,0,1,76.7,41.28Z"/><path d="M0,27.49,7.12,44.82a2,2,0,0,0,3.75-.9l-.22-2.64a2.87,2.87,0,0,1,4.07-2.83L20,40.9A2,2,0,0,0,22,37.54l-4.78-3.36a2.88,2.88,0,0,1,.42-4.95L20,28.1a2,2,0,0,0-1.09-3.69L.35,26.93A.41.41,0,0,0,0,27.49Z"/></g></g></svg>