<svg xmlns="http://www.w3.org/2000/svg" viewBox="0 0 91.19 91.19"><title>Recurso 27MANDALA</title><g id="Capa_2" data-name="Capa 2"><g id="Capa_1-2" data-name="Capa 1"><path d="M9.7,49.49a3.11,3.11,0,0,1,3-2.87L37.26,46l-24.52-.64a3.11,3.11,0,0,1-3-2.87l-.43-5.76-.46,5.95A3.11,3.11,0,0,1,6,45.53L0,46l6,.45a3.1,3.1,0,0,1,2.86,2.86l.46,6Z"/><path d="M16.46,66.91a3.1,3.1,0,0,1,1.2-4L38.57,50.1,17,61.8a3.12,3.12,0,0,1-4.07-1L9.69,56.07l2.58,5.38a3.11,3.11,0,0,1-1,3.91L6.3,68.72l5.38-2.58a3.11,3.11,0,0,1,3.91,1L19,72.12Z"/><path d="M31,78.62a3.09,3.09,0,0,1-1-4.06L41.76,53,29,73.92a3.1,3.1,0,0,1-4,1.19l-5.2-2.49L24.66,76a3.1,3.1,0,0,1,1.05,3.91l-2.58,5.38,3.37-4.92a3.09,3.09,0,0,1,3.91-1l5.38,2.58Z"/><path d="M49.49,81.49a3.11,3.11,0,0,1-2.87-3L46,53.93l-.64,24.51a3.11,3.11,0,0,1-2.87,3l-5.76.43,5.95.46a3.11,3.11,0,0,1,2.87,2.86l.45,6,.45-6a3.1,3.1,0,0,1,2.86-2.86l6-.46Z"/><path d="M66.91,74.73a3.11,3.11,0,0,1-4-1.2L50.1,52.62,61.8,74.17a3.12,3.12,0,0,1-1,4.07L56.07,81.5l5.38-2.59a3.12,3.12,0,0,1,3.91,1l3.36,4.93-2.58-5.38a3.11,3.11,0,0,1,1-3.91l4.93-3.37Z"/><path d="M78.62,60.17a3.09,3.09,0,0,1-4.06,1L53,49.43,73.92,62.24a3.1,3.1,0,0,1,1.19,4l-2.49,5.2L76,66.52a3.11,3.11,0,0,1,3.91-1l5.38,2.58-4.92-3.37a3.1,3.1,0,0,1-1-3.91l2.58-5.38Z"/><path d="M81.49,41.7a3.11,3.11,0,0,1-3,2.87l-24.51.64,24.51.64a3.11,3.11,0,0,1,3,2.87l.43,5.76.46-5.95a3.11,3.11,0,0,1,2.86-2.87l6-.45-6-.45a3.1,3.1,0,0,1-2.86-2.87l-.46-6Z"/><path d="M74.73,24.28a3.11,3.11,0,0,1-1.2,4L52.62,41.09l21.55-11.7a3.11,3.11,0,0,1,4.07,1l3.26,4.76-2.59-5.38a3.12,3.12,0,0,1,1-3.91l4.93-3.37-5.38,2.59A3.11,3.11,0,0,1,75.6,24l-3.37-4.93Z"/><path d="M60.17,12.56a3.11,3.11,0,0,1,1,4.07L49.43,38.18,62.24,17.27a3.1,3.1,0,0,1,4-1.19l5.2,2.49-4.93-3.36a3.11,3.11,0,0,1-1-3.91l2.58-5.38-3.37,4.92a3.1,3.1,0,0,1-3.91,1.05L55.4,9.31Z"/><path d="M41.7,9.7a3.11,3.11,0,0,1,2.87,3l.64,24.52.64-24.52a3.11,3.11,0,0,1,2.87-3l5.76-.43-5.95-.46A3.11,3.11,0,0,1,45.66,6L45.21,0l-.45,6a3.1,3.1,0,0,1-2.87,2.86l-6,.46Z"/><path d="M24.28,16.46a3.1,3.1,0,0,1,4,1.2L41.09,38.57,29.39,17a3.11,3.11,0,0,1,1-4.07l4.76-3.26-5.38,2.58a3.11,3.11,0,0,1-3.91-1L22.46,6.3l2.59,5.38A3.11,3.11,0,0,1,24,15.59L19.07,19Z"/><path d="M12.56,31a3.11,3.11,0,0,1,4.07-1l21.55,11.7L17.27,29a3.1,3.1,0,0,1-1.19-4l2.49-5.2-3.36,4.92a3.1,3.1,0,0,1-3.91,1.05L5.92,23.13l4.92,3.37a3.09,3.09,0,0,1,1.05,3.91L9.31,35.79Z"/></g></g></svg>