<svg xmlns="http://www.w3.org/2000/svg" viewBox="0 0 87.69 85.4"><title>Recurso 29MANDALA</title><g id="Capa_2" data-name="Capa 2"><g id="Capa_1-2" data-name="Capa 1"><path d="M64.26,57.93l.35-.69h0l9.78,5h0c-.11.23-.22.45-.34.67h0l1.39.71h0c.11-.22.22-.44.34-.66h0l2.78,1.42h0s0,0,0,0l.34-.65s0,0,.06,0l.57.29.07,0c.08-.14.78-1.49,1.07-2.09h0l-.67-.34v0l1.06-2.08a.16.16,0,0,0-.09,0L81,59.4l-.09,0-.09,0-.09,0-.08-.05-.09,0s-.06,0-.08-.06l.7-1.38h0l0,0-.65-.33h0l2.13-4.17h0l-.65-.34h0v0h0L83,50.73v0l-.67-.35v0h0l.34-.66s0,0,.06,0l.57.29.06,0h0l.34-.67a6.81,6.81,0,0,1,.7.36l-.35.68s.06,0,.09.06l.08,0,.09,0,.08,0,.1.05.08,0,.09,0a.14.14,0,0,1,.08.05l-.35.68v0h0l.65.33s0,.06,0,.09q-1,2-2.05,4l-.06.11A.47.47,0,0,0,83,56l.11.05.09,0,.11,0,.09.05.1.06.09,0v0h0l-.7,1.37h0l.68.35v0h0c-.47.92-.95,1.84-1.42,2.77a.1.1,0,0,0,0,0l.57.29.07,0v0h0l-.69,1.37h0l.67.34v0l-.71,1.38h0l0,0,.61.31h0v0l-1.06,2.07v0h0l.67.34s0,0,0,.06l-.64,1.25,0,.09c.13.08,1.56.82,2.09,1.07h0l.35-.67h0L87,70.45s0,.06,0,.1a.2.2,0,0,0,0,.08l-.05.09,0,.08,0,.1,0,.08a.41.41,0,0,0,0,.09s0,.05,0,.09l.68.35h0s0,0,0,0L87,72.2h0l.66.34h0c0,.12-.55,1.1-.71,1.39h0l-.67-.34h0l-.35.68h0L85.23,74a.05.05,0,0,0,0,.05l-.3.57,0,.07c-.15-.06-1.52-.76-2.1-1.07h0c.12-.22.23-.44.34-.67h0l-2.78-1.43s0,.06-.06.09l0,.09,0,.1-.05.09,0,.09,0,.1,0,.09,0,.09,0,.1,0,.09,0,.09,0,.1,0,.09,0,.09s0,.07-.05.09l-.69-.34h0l0,0-1,2h0l-.67-.34h0l-.69,1.35h0l-.67-.34h0l-1.78,3.47h0l-.67-.34s0,0,0,.06L71.85,81.1l-.06.11h0l-.66-.34h0c-.31.58-.64,1.24-.7,1.38l.68.35v0h0L70,84.71h0L68.61,84h0s0,0,0,0l-.7,1.35h0l-.68-.35a.31.31,0,0,1,0-.1.47.47,0,0,1,0-.1l0-.1,0-.1.05-.1,0-.1,0-.09v0h0L66.85,84v0l.71-1.38h0l.67.34a.24.24,0,0,0,.06-.08l2.76-5.39,0-.12h0l.67.34h0l1.77-3.46h0l0,0,.63.32h0l1.06-2.07v0l-.67-.34v0s0,0,0,0l.34-.65s0,0-.05,0l-1.25-.64-.09,0v0h0L74,70h0l-4.16-2.12h0l-.35.68h0l-7-3.56v0l.35-.68v0l0,0-2-1h0v0c.12-.22.23-.44.34-.66h0l-7-3.56v0h0c.11-.22.23-.44.34-.67h0l-5.58-2.86v0h0l.32-.64h0s0,0,0,0l-1.38-.71v0l.34-.67h0l.66.34h0l1.05-2.06h0l5.56,2.85h0l.35-.68h0Zm-13.33-3.3v0l5.58,2.85h0l.35-.69h0L51.29,54h0Zm6.3,3.24,3.48,1.78h0l0,0,.31-.61s0,0,0,0L57.6,57.17h0Zm7,3.58.34-.67s0,0,0,0h0s0,0,0,0l-1.35-.68h0l-.33.66,0,0h0Z"/><path d="M40.23,27.69l-.77,0h0c-.18-3.66-.37-7.31-.55-11h0l.74,0h0c0-.13-.06-1.23-.08-1.55h0l-.75,0h0L38.65,12l0,0h0l-.74,0s0,0,0-.06l0-.64v-.08c-.16,0-1.68.07-2.34.12h0l0,.74v0l-2.33.12a.18.18,0,0,0,0,.1s0,.07,0,.1V13a.33.33,0,0,1,0,.1l-1.55.08h0v0l0,.73h0L27,14.19h0c0,.24,0,.49,0,.73v0h0l-2.32.12h0l0,.76h0l-.75,0s0,0,0-.06c0-.21,0-.43,0-.64v-.07h0l-.75,0c0-.09,0-.59,0-.79l.77,0s0-.07,0-.1v-.49s0-.07,0-.1a.18.18,0,0,1,0-.1l.76,0v0l0-.73s0,0,.08,0l4.49-.23h.13a.41.41,0,0,0,0-.11v-.66h0l1.53-.07,0,0,0-.76h0l3.1-.16s0,0,0-.06l0-.64V9.92l0,0h0l1.53-.08h0l0-.74V9L36.9,9h0s0,0,0,0v0l0-.68h0v0l2.33-.12h0l0-.75s0,0,.06,0l1.41-.07h.1c0-.16-.08-1.77-.12-2.35h0l-.74,0h0L39.7,1.74s.07,0,.1,0h.59a.18.18,0,0,0,.1,0l0-.77h0l.73,0h0c0-.25,0-.5,0-.75h0L42.75,0h0c0,.25,0,.5,0,.75h0l.76,0,0,0v0l0,.74s0,0,.06,0l.64,0h.08c0,.16.1,1.69.12,2.34h0l-.75,0h0L43.91,7S44,7,44,7h1.36a.21.21,0,0,1,.11,0l0,.76h0l2.3-.11h0v0c0,.25,0,.49,0,.74h0l1.51-.08h0c0,.25,0,.5,0,.75h0l3.9-.19h0l0,.75s0,0,.08,0l2.93-.15h.13v0h0l0,.75h0c.65,0,1.39-.07,1.55-.09l0-.76v0h0l2.32-.12,0,0,.08,1.54h0l1.51-.07h0c0,.25,0,.5,0,.75,0,0-.08,0-.11,0h-.68c0,.25,0,.5,0,.75h0L60,12.51h0l0-.75a.12.12,0,0,0-.1,0l-6,.3h-.12l0,0h0l0-.74h0l-3.89.19h0s0,0,0,0v0l0-.71h0l-2.32.12h0l0,.76h0l-.73,0s0,0,0,.06c0,.47,0,.94.07,1.4v.1h0l-.75,0h0v0L46,17.92v0l.76,0h0c.14,2.61.27,5.21.4,7.82v0l-.76,0v.06l.12,2.29h0l-.74,0h0l.4,7.82h0l-.75,0h0l.31,6.26h0l-.72,0h0v0L45,44l0,0-.76,0h0c0-.25,0-.49,0-.74h0l-2.3.12h0c-.1-2.09-.21-4.17-.31-6.25h0l-.76,0h0ZM44,40.89h0c-.11-2.09-.21-4.17-.32-6.26h0l-.76,0h0c.1,2.09.21,4.17.32,6.26h0Zm-.35-7.07c-.06-1.31-.13-2.61-.2-3.91h0l-.7,0a0,0,0,0,0,0,0c.06,1.3.13,2.6.2,3.9h0ZM43.29,26l-.74,0h0v0c0,.5.05,1,.08,1.5a.08.08,0,0,0,0,0l.73,0h0v0Z"/><path d="M26.06,63.62l.42.65v0l-9.23,6h0c-.13-.21-.27-.42-.41-.63h0c-.11.06-1,.66-1.31.84h0l.4.63v0l-2.62,1.69v0l.4.62s0,0,0,0l-.54.35-.07,0c.08.15.9,1.42,1.27,2h0l.63-.41h0l1.27,2s.07,0,.1,0l.08-.05.08-.06.08-.05.09-.06.08-.05.08,0a.15.15,0,0,1,.09,0l.84,1.3h0l.62-.4h0L21,81.87h0l.61-.4h0L23,83.42h0L23.6,83h0l.4.63s0,0,0,0l-.54.35-.06,0v0h0l.4.63a7.32,7.32,0,0,1-.65.43l-.42-.65-.1,0-.07,0-.09.06-.08,0-.09.06-.07,0-.09.05s-.05,0-.08,0l-.42-.64h0l-.62.4s0,0-.05-.06l-2.45-3.78-.07-.11s-.06,0-.09.06l-.1.06-.09.06L18,81l-.09.06-.1.06-.08.06h0l-.84-1.28h0l-.63.41h0l-1.69-2.61s0,0-.06,0l-.54.35-.06,0h0L13,76.77h0l-.63.4h0l-.84-1.3h0l0,0-.57.37h0l-1.27-2h0l-.63.41s0,0,0,0l-.77-1.17L8,73.42c-.14.07-1.49,1-2,1.27h0v0l.4.62v0l-2.63,1.7A.24.24,0,0,1,3.78,77l0-.08,0-.09-.05-.07-.06-.09,0-.08-.06-.09s0,0-.06-.07l-.64.42h0s0,0,0,0l-.4-.62h0l-.63.41h0c-.08-.1-.68-1-.85-1.3v0h0l.63-.41v0l-.41-.64v0h0l.62-.4s0,0,0-.06l-.35-.54,0-.06c.13-.1,1.41-.93,2-1.28h0l.4.63h0l2.63-1.7s0-.06-.05-.09l-.06-.08,0-.09-.06-.09L6,70.33,6,70.24l-.05-.08-.06-.09L5.81,70l0-.09L5.7,69.8l-.06-.08,0-.09-.06-.09s0-.05,0-.09L6.12,69v0s0,0,0,0L4.86,67.05h0l.62-.41h0l-.82-1.28h0l.63-.41h0L3.19,61.58v0h0l.63-.41s0,0,0-.06c-.53-.83-1.06-1.65-1.6-2.47l-.06-.11h0l.63-.41h0c-.35-.56-.75-1.17-.85-1.3l-.64.42h0L0,55.2H0l1.3-.85h0l0,0L.47,53v0h0l.63-.42a.28.28,0,0,1,.07.09l.06.1.06.09.06.1.06.08.06.1.06.09h0l.62-.41h0l.84,1.31H3l-.63.4a.13.13,0,0,0,0,.09c1.09,1.7,2.19,3.39,3.29,5.09l.06.1v0h0l-.63.4v0h0l2.12,3.27h0L6.66,64h0l1.26,2h0l.64-.42h0v0l.4.62s0,0,.06,0l1.17-.76.09-.05h0v0l.41.62h0l3.92-2.54,0,0-.41-.64v0h0l6.57-4.25h0l.42.64h0l0,0,1.92-1.24h0l.4.63h0l6.56-4.25h0l.4.63h0L36,51.55h0l.39.61h0l1.3-.84h0l.42.63v0h0l-.62.4h0v0h0c.42.64.83,1.29,1.25,1.94h0l-5.25,3.4h0l.41.64v0h0Zm9.52-9.89h0l-5.26,3.41h0l.42.64h0L36,54.38h0Zm-5.95,3.83-3.28,2.13v0l0,0,.38.58s0,0,0,0l3.28-2.12v0ZM23,61.84l.41.62v0h0s0,0,0,0l1.26-.82,0,0-.4-.62v0h0Z"/></g></g></svg>