<svg xmlns="http://www.w3.org/2000/svg" viewBox="0 0 125.08 125.08"><title>Recurso 10MANDALA</title><g id="Capa_2" data-name="Capa 2"><g id="Capa_1-2" data-name="Capa 1"><polygon points="110.55 69.83 65.72 69.83 80.25 55.25 125.08 55.25 110.55 69.83"/><rect y="67.09" width="109.95" height="2.74"/><polygon points="107.76 44.84 68.94 67.26 74.23 47.37 113.06 24.96 107.76 44.84"/><rect x="3.97" y="70.08" width="109.95" height="2.74" transform="translate(-27.83 39.05) rotate(-30)"/><polygon points="92.86 24.6 70.44 63.42 65.08 43.56 87.5 4.74 92.86 24.6"/><rect x="8.91" y="70.68" width="109.95" height="2.74" transform="translate(-30.45 91.35) rotate(-60)"/><polygon points="69.83 14.53 69.83 59.35 55.25 44.83 55.25 0 69.83 14.53"/><rect x="13.48" y="68.73" width="109.95" height="2.74" transform="translate(-1.65 138.56) rotate(-90)"/><polygon points="44.84 17.32 67.26 56.14 47.37 50.84 24.96 12.02 44.84 17.32"/><rect x="16.47" y="64.76" width="109.95" height="2.74" transform="translate(49.9 161.07) rotate(-120)"/><polygon points="24.6 32.22 63.42 54.64 43.56 59.99 4.74 37.58 24.6 32.22"/><rect x="17.07" y="59.83" width="109.95" height="2.74" transform="translate(103.84 150.22) rotate(-150)"/><polygon points="14.53 55.25 59.35 55.25 44.83 69.83 0 69.83 14.53 55.25"/><rect x="15.13" y="55.25" width="109.95" height="2.74" transform="translate(140.2 113.24) rotate(-180)"/><polygon points="17.32 80.23 56.14 57.82 50.84 77.7 12.02 100.12 17.32 80.23"/><rect x="11.15" y="52.26" width="109.95" height="2.74" transform="translate(150.22 67.01) rotate(150)"/><polygon points="32.22 100.48 54.64 61.65 59.99 81.52 37.58 120.34 32.22 100.48"/><rect x="6.22" y="51.66" width="109.95" height="2.74" transform="translate(137.72 26.55) rotate(120)"/><polygon points="55.25 110.55 55.25 65.72 69.83 80.25 69.83 125.08 55.25 110.55"/><rect x="1.65" y="53.61" width="109.95" height="2.74" transform="translate(111.6 -1.65) rotate(90)"/><polygon points="80.23 107.76 57.82 68.94 77.7 74.23 100.12 113.06 80.23 107.76"/><rect x="-1.34" y="57.58" width="109.95" height="2.74" transform="translate(77.87 -16.97) rotate(60)"/><polygon points="100.48 92.86 61.65 70.44 81.52 65.08 120.34 87.5 100.48 92.86"/><rect x="-1.95" y="62.51" width="109.95" height="2.74" transform="translate(39.05 -17.96) rotate(30)"/><polygon points="110.55 69.83 65.72 69.83 80.25 55.25 125.08 55.25 110.55 69.83"/><rect y="67.09" width="109.95" height="2.74"/></g></g></svg>