<svg xmlns="http://www.w3.org/2000/svg" viewBox="0 0 112.63 112.63"><title>Recurso 68MANDALA</title><g id="Capa_2" data-name="Capa 2"><g id="Capa_1-2" data-name="Capa 1"><path d="M62,95.33A53.92,53.92,0,0,1,45.49,48.65,48.94,48.94,0,0,1,61.93,15.84,57,57,0,0,0,43.36,49.1,51.91,51.91,0,0,0,62,95.33Z"/><path d="M28.92,7.11c14.89,3.06,23.32,11.42,24.34,21.77,1.3,7.33-1.74,15.83-9.57,23.91,8.12-8.4,11.8-17.09,11.5-24.82C54,17.78,44.81,9.55,28.92,7.11Z"/><path d="M80.72,87.28A54,54,0,0,1,43.11,55.09,48.87,48.87,0,0,1,41,18.46a56.94,56.94,0,0,0,.54,38.08A51.94,51.94,0,0,0,80.72,87.28Z"/><path d="M8,27.4c14.44-4.8,25.91-1.77,32,6.68,4.79,5.7,6.41,14.58,3.67,25.49,2.83-11.33,1.68-20.69-2.45-27.24C35.07,24.08,23,21.56,8,27.4Z"/><path d="M92.93,70.93a54,54,0,0,1-48.66-9.07A48.89,48.89,0,0,1,24.08,31.21,56.86,56.86,0,0,0,43.59,63.92,51.9,51.9,0,0,0,92.93,70.93Z"/><path d="M0,55.44C10.1,44.07,21.56,41,31,45.25,38,47.78,43.87,54.66,47,65.48c-3.22-11.23-8.9-18.76-15.74-22.37C21.8,39,10.06,42.89,0,55.44Z"/><path d="M95.33,50.66A53.92,53.92,0,0,1,48.65,67.14,48.91,48.91,0,0,1,15.84,50.69,56.91,56.91,0,0,0,49.1,69.26,51.88,51.88,0,0,0,95.33,50.66Z"/><path d="M7.11,83.71c3.06-14.9,11.42-23.32,21.77-24.34,7.33-1.3,15.83,1.74,23.91,9.57C44.39,60.82,35.7,57.14,28,57.43,17.78,58.6,9.55,67.82,7.11,83.71Z"/><path d="M87.28,31.91A54,54,0,0,1,55.09,69.52a48.87,48.87,0,0,1-36.63,2.16,56.88,56.88,0,0,0,38.08-.55A51.91,51.91,0,0,0,87.28,31.91Z"/><path d="M27.4,104.65c-4.8-14.44-1.77-25.92,6.68-32,5.7-4.79,14.58-6.41,25.49-3.67-11.33-2.83-20.69-1.68-27.24,2.45C24.08,77.56,21.56,89.66,27.4,104.65Z"/><path d="M70.93,19.7a54,54,0,0,1-9.07,48.66A48.89,48.89,0,0,1,31.21,88.55,56.93,56.93,0,0,0,63.92,69,51.88,51.88,0,0,0,70.93,19.7Z"/><path d="M55.44,112.63C44.07,102.53,41,91.07,45.25,81.6c2.53-7,9.41-12.84,20.23-15.92C54.25,68.9,46.72,74.57,43.11,81.42,39,90.83,42.89,102.57,55.44,112.63Z"/><path d="M50.66,17.3A53.91,53.91,0,0,1,67.14,64a48.87,48.87,0,0,1-16.45,32.8A56.89,56.89,0,0,0,69.26,63.53,51.88,51.88,0,0,0,50.66,17.3Z"/><path d="M83.71,105.52c-14.9-3.06-23.32-11.42-24.34-21.77-1.3-7.33,1.74-15.83,9.57-23.91-8.12,8.4-11.8,17.08-11.51,24.82C58.6,94.85,67.82,103.08,83.71,105.52Z"/><path d="M31.91,25.35A54,54,0,0,1,69.52,57.54a48.87,48.87,0,0,1,2.16,36.63,56.88,56.88,0,0,0-.55-38.08A51.91,51.91,0,0,0,31.91,25.35Z"/><path d="M104.65,85.23C90.21,90,78.73,87,72.68,78.54,67.89,72.85,66.27,64,69,53.06c-2.83,11.33-1.68,20.69,2.45,27.24C77.56,88.55,89.66,91.07,104.65,85.23Z"/><path d="M19.7,41.7a54,54,0,0,1,48.66,9.07A48.89,48.89,0,0,1,88.55,81.42,56.89,56.89,0,0,0,69,48.71,51.88,51.88,0,0,0,19.7,41.7Z"/><path d="M112.63,57.19c-10.1,11.37-21.56,14.49-31,10.19-7-2.53-12.84-9.41-15.92-20.23,3.22,11.23,8.89,18.76,15.74,22.37C90.83,73.61,102.57,69.74,112.63,57.19Z"/><path d="M17.3,62A53.91,53.91,0,0,1,64,45.49a48.9,48.9,0,0,1,32.8,16.44A57,57,0,0,0,63.53,43.36,51.91,51.91,0,0,0,17.3,62Z"/><path d="M105.52,28.92C102.46,43.81,94.1,52.24,83.75,53.26c-7.33,1.3-15.83-1.74-23.91-9.57,8.4,8.12,17.08,11.8,24.82,11.5C94.85,54,103.08,44.81,105.52,28.92Z"/><path d="M25.35,80.72A54,54,0,0,1,57.54,43.11,48.87,48.87,0,0,1,94.17,41a56.94,56.94,0,0,0-38.08.54A51.94,51.94,0,0,0,25.35,80.72Z"/><path d="M85.23,8C90,22.42,87,33.89,78.54,40,72.85,44.74,64,46.36,53.06,43.62c11.33,2.83,20.69,1.68,27.24-2.45C88.55,35.07,91.07,23,85.23,8Z"/><path d="M41.7,92.93a54,54,0,0,1,9.07-48.66A48.89,48.89,0,0,1,81.42,24.08,56.83,56.83,0,0,0,48.71,43.59,51.9,51.9,0,0,0,41.7,92.93Z"/><path d="M57.19,0C68.56,10.1,71.68,21.56,67.38,31,64.85,38,58,43.87,47.15,47c11.23-3.22,18.76-8.9,22.37-15.74C73.61,21.8,69.74,10.06,57.19,0Z"/></g></g></svg>