<svg xmlns="http://www.w3.org/2000/svg" viewBox="0 0 115.13 115.13"><title>Recurso 80MANDALA</title><g id="Capa_2" data-name="Capa 2"><g id="Capa_1-2" data-name="Capa 1"><path d="M65,30.15a73.19,73.19,0,0,0-11.34,4.7,27.86,27.86,0,0,0-4.88,3.34,23.32,23.32,0,0,0-2,2.06A21.51,21.51,0,0,0,45,42.55a19.65,19.65,0,0,0-2.35,5.35,24.2,24.2,0,0,0-.78,6c0,2.06.16,4.12.17,6.25a9.26,9.26,0,0,1-.42,3.28A3.5,3.5,0,0,1,40.52,65a4,4,0,0,1-1.71.76,9.7,9.7,0,0,1-3.4,0,29,29,0,0,1-3.16-.65,43.43,43.43,0,0,1-6-2.1A102.58,102.58,0,0,1,15,57.24c-1.78-1.06-3.55-2.12-5.32-3.09-.88-.5-1.77-1-2.65-1.35A10.6,10.6,0,0,0,4.45,52a2,2,0,0,0-1.89.51,5.19,5.19,0,0,0-1,2.4A31.28,31.28,0,0,0,1.2,61L.9,61a27.37,27.37,0,0,1-.65-3.09A15.66,15.66,0,0,1,0,54.69a6.4,6.4,0,0,1,1-3.45A3.67,3.67,0,0,1,2.62,49.9a5.07,5.07,0,0,1,2-.33,17.68,17.68,0,0,1,6.43,2c1.93.91,3.76,1.93,5.58,2.93,3.61,2.06,7.11,4.19,10.76,6,1.83.9,3.68,1.71,5.57,2.45a14.68,14.68,0,0,0,5.63,1.36,2.15,2.15,0,0,0,2-1.26,7.56,7.56,0,0,0,.54-2.84c.06-2-.14-4.12-.24-6.21a38.8,38.8,0,0,1,.08-6.37,17.56,17.56,0,0,1,1.88-6.3A16.65,16.65,0,0,1,47,36.18a23.37,23.37,0,0,1,2.68-1.91,31.54,31.54,0,0,1,2.89-1.49,36.86,36.86,0,0,1,12.3-2.93Z"/><path d="M43.41,32.94a74.5,74.5,0,0,0-4.69,11.35,27.4,27.4,0,0,0-1.09,5.81,23.21,23.21,0,0,0,0,2.89,24.76,24.76,0,0,0,.41,2.85,19.84,19.84,0,0,0,2.13,5.45,24.4,24.4,0,0,0,3.71,4.82c1.43,1.48,3,2.8,4.54,4.29a9.43,9.43,0,0,1,2,2.62,3.54,3.54,0,0,1,.31,1.84,4,4,0,0,1-.68,1.75,9.94,9.94,0,0,1-2.4,2.4c-.89.65-1.78,1.23-2.7,1.78a44.67,44.67,0,0,1-5.75,2.77,99.92,99.92,0,0,1-12,3.86c-2,.51-4,1-5.95,1.58-1,.27-1.93.57-2.83.92a10.17,10.17,0,0,0-2.42,1.24,2,2,0,0,0-1,1.7,5,5,0,0,0,1,2.4,30.79,30.79,0,0,0,4.05,4.57l-.18.24a30,30,0,0,1-2.65-1.72,16.26,16.26,0,0,1-2.45-2.12,6.33,6.33,0,0,1-1.76-3.11A3.62,3.62,0,0,1,13.29,91a5,5,0,0,1,1.17-1.64,17.86,17.86,0,0,1,5.93-3.17c2-.72,4-1.29,6-1.87,4-1.1,8-2.07,11.85-3.37q2.9-1,5.67-2.2a14.92,14.92,0,0,0,4.94-3,2.17,2.17,0,0,0,.49-2.28,7.85,7.85,0,0,0-1.62-2.39c-1.4-1.47-3-2.81-4.56-4.21a38.6,38.6,0,0,1-4.46-4.57A17.67,17.67,0,0,1,35.6,56.5a16.68,16.68,0,0,1-.6-6.62,25.17,25.17,0,0,1,.54-3.24,31.78,31.78,0,0,1,1-3.09,37,37,0,0,1,6.63-10.77Z"/><path d="M30.15,50.16a72.79,72.79,0,0,0,4.7,11.34,27.86,27.86,0,0,0,3.34,4.88,22,22,0,0,0,2.06,2,21.51,21.51,0,0,0,2.3,1.72,19.35,19.35,0,0,0,5.35,2.35,24.2,24.2,0,0,0,6,.79c2.06,0,4.12-.16,6.25-.18a9.27,9.27,0,0,1,3.28.43A3.4,3.4,0,0,1,65,74.61a4.09,4.09,0,0,1,.76,1.71,9.7,9.7,0,0,1,0,3.4,29.65,29.65,0,0,1-.65,3.17,43.76,43.76,0,0,1-2.1,6,102.73,102.73,0,0,1-5.74,11.21c-1.06,1.78-2.12,3.55-3.09,5.32a28.77,28.77,0,0,0-1.35,2.65,10.53,10.53,0,0,0-.84,2.59,2,2,0,0,0,.51,1.89,5.19,5.19,0,0,0,2.4,1,31.27,31.27,0,0,0,6.1.37l0,.3a29.76,29.76,0,0,1-3.09.65,16.39,16.39,0,0,1-3.23.23,6.39,6.39,0,0,1-3.45-.94,3.73,3.73,0,0,1-1.34-1.66,5.1,5.1,0,0,1-.33-2,17.62,17.62,0,0,1,2-6.43c.91-1.93,1.93-3.76,2.93-5.58,2.06-3.61,4.19-7.12,6-10.77.9-1.82,1.71-3.68,2.45-5.56a14.72,14.72,0,0,0,1.36-5.63,2.16,2.16,0,0,0-1.26-2,7.76,7.76,0,0,0-2.84-.54c-2,0-4.12.14-6.21.24a36.71,36.71,0,0,1-6.37-.08,17.37,17.37,0,0,1-6.3-1.88,16.38,16.38,0,0,1-5.1-4.25,22.53,22.53,0,0,1-1.91-2.68c-.54-.94-1.05-1.9-1.49-2.88a36.92,36.92,0,0,1-2.93-12.31Z"/><path d="M32.94,71.72a72.52,72.52,0,0,0,11.35,4.69A27.4,27.4,0,0,0,50.1,77.5a23.21,23.21,0,0,0,2.89,0,22.74,22.74,0,0,0,2.85-.41A19.84,19.84,0,0,0,61.29,75a24.35,24.35,0,0,0,4.82-3.7c1.48-1.43,2.8-3,4.29-4.54a9.06,9.06,0,0,1,2.62-2,3.44,3.44,0,0,1,1.84-.31,4,4,0,0,1,1.75.67A10.16,10.16,0,0,1,79,67.46c.65.88,1.23,1.78,1.78,2.7a44.55,44.55,0,0,1,2.77,5.74,100.5,100.5,0,0,1,3.86,12c.51,2,1,4,1.58,6a29.29,29.29,0,0,0,.92,2.83,10.06,10.06,0,0,0,1.24,2.43,2,2,0,0,0,1.7,1,5.12,5.12,0,0,0,2.4-1A30.86,30.86,0,0,0,99.83,95l.24.19a28.42,28.42,0,0,1-1.72,2.64,16.26,16.26,0,0,1-2.12,2.45,6.34,6.34,0,0,1-3.11,1.77,3.71,3.71,0,0,1-2.12-.23,5,5,0,0,1-1.64-1.17,17.82,17.82,0,0,1-3.17-5.92c-.72-2-1.29-4-1.87-6-1.1-4-2.07-8-3.37-11.86Q80,74,78.75,71.2a14.87,14.87,0,0,0-3-4.93,2.15,2.15,0,0,0-2.28-.5,7.71,7.71,0,0,0-2.39,1.63c-1.47,1.4-2.81,3-4.21,4.56a37.77,37.77,0,0,1-4.57,4.45,17.51,17.51,0,0,1-5.78,3.13,16.87,16.87,0,0,1-6.62.6,25.19,25.19,0,0,1-3.24-.55,29.26,29.26,0,0,1-3.09-1A36.61,36.61,0,0,1,32.78,72Z"/><path d="M50.16,85a74.78,74.78,0,0,0,11.34-4.7,27.37,27.37,0,0,0,4.88-3.35,21.92,21.92,0,0,0,2-2,23.72,23.72,0,0,0,1.72-2.3,19.54,19.54,0,0,0,2.35-5.36,24.14,24.14,0,0,0,.79-6c0-2.06-.16-4.12-.18-6.24a9.22,9.22,0,0,1,.43-3.28,3.42,3.42,0,0,1,1.08-1.53,4.22,4.22,0,0,1,1.71-.76,10.2,10.2,0,0,1,3.4,0,29.65,29.65,0,0,1,3.17.65,42.51,42.51,0,0,1,6,2.11,100.93,100.93,0,0,1,11.21,5.73C101.9,59,103.67,60,105.44,61c.88.49,1.76,1,2.65,1.35a10.08,10.08,0,0,0,2.59.83,2,2,0,0,0,1.89-.51,5.15,5.15,0,0,0,1-2.39,31.32,31.32,0,0,0,.37-6.1l.3,0a28.7,28.7,0,0,1,.65,3.09,16.39,16.39,0,0,1,.23,3.23,6.36,6.36,0,0,1-.94,3.44,3.66,3.66,0,0,1-1.66,1.34,4.76,4.76,0,0,1-2,.33,17.42,17.42,0,0,1-6.43-1.94c-1.93-.92-3.76-1.94-5.58-2.94-3.61-2-7.12-4.19-10.77-6-1.82-.9-3.68-1.72-5.56-2.46a14.88,14.88,0,0,0-5.63-1.35,2.16,2.16,0,0,0-2,1.26A7.75,7.75,0,0,0,74.06,55c0,2,.14,4.12.24,6.21a36.82,36.82,0,0,1-.08,6.38,17.42,17.42,0,0,1-1.88,6.3A16.61,16.61,0,0,1,68.09,79a25.07,25.07,0,0,1-2.68,1.91,30.12,30.12,0,0,1-2.88,1.48,36.92,36.92,0,0,1-12.31,2.93Z"/><path d="M71.72,82.19a72.42,72.42,0,0,0,4.69-11.34A27.4,27.4,0,0,0,77.5,65a23.38,23.38,0,0,0,0-2.9,22.74,22.74,0,0,0-.41-2.85A19.66,19.66,0,0,0,75,53.85,24.07,24.07,0,0,0,71.25,49c-1.43-1.49-3-2.8-4.54-4.29a9.06,9.06,0,0,1-2-2.62,3.46,3.46,0,0,1-.31-1.85,4,4,0,0,1,.67-1.75,10.11,10.11,0,0,1,2.41-2.39,28.55,28.55,0,0,1,2.7-1.78,43.27,43.27,0,0,1,5.74-2.77,102.41,102.41,0,0,1,12-3.87c2-.51,4-1,6-1.57a29.31,29.31,0,0,0,2.83-.93A10.06,10.06,0,0,0,99.09,24a2,2,0,0,0,1-1.7,5.13,5.13,0,0,0-1-2.39A31.44,31.44,0,0,0,95,15.3l.19-.24a28.52,28.52,0,0,1,2.64,1.73,16.19,16.19,0,0,1,2.45,2.11A6.43,6.43,0,0,1,102.07,22a3.7,3.7,0,0,1-.23,2.12,4.92,4.92,0,0,1-1.17,1.64,17.46,17.46,0,0,1-5.92,3.17c-2,.72-4,1.3-6,1.88-4,1.1-8,2.06-11.86,3.37q-2.88,1-5.67,2.2a14.71,14.71,0,0,0-4.93,3,2.13,2.13,0,0,0-.5,2.27,7.59,7.59,0,0,0,1.63,2.39c1.4,1.48,3,2.81,4.56,4.22a38.42,38.42,0,0,1,4.45,4.56,17.74,17.74,0,0,1,3.13,5.79,16.83,16.83,0,0,1,.6,6.61,24.9,24.9,0,0,1-.55,3.24,29.26,29.26,0,0,1-1,3.09A36.53,36.53,0,0,1,72,82.36Z"/><path d="M85,65a75.21,75.21,0,0,0-4.7-11.34,27.37,27.37,0,0,0-3.35-4.88,23.21,23.21,0,0,0-2-2A23.72,23.72,0,0,0,72.59,45a19.85,19.85,0,0,0-5.36-2.35,24.14,24.14,0,0,0-6-.78c-2.06,0-4.12.16-6.24.17a9.2,9.2,0,0,1-3.28-.42,3.53,3.53,0,0,1-1.53-1.09,4.1,4.1,0,0,1-.76-1.71,10.2,10.2,0,0,1,0-3.4,29,29,0,0,1,.65-3.16,42.21,42.21,0,0,1,2.11-6A100.78,100.78,0,0,1,57.89,15C59,13.24,60,11.47,61,9.7c.49-.88,1-1.77,1.35-2.65a10.14,10.14,0,0,0,.83-2.6,2,2,0,0,0-.51-1.89,5.15,5.15,0,0,0-2.39-1,31.33,31.33,0,0,0-6.1-.36l0-.3A26.47,26.47,0,0,1,57.22.25,15.66,15.66,0,0,1,60.45,0a6.37,6.37,0,0,1,3.44,1,3.61,3.61,0,0,1,1.34,1.66,4.74,4.74,0,0,1,.33,2A17.48,17.48,0,0,1,63.62,11c-.92,1.93-1.94,3.76-2.94,5.58-2,3.61-4.19,7.11-6,10.76-.9,1.83-1.72,3.68-2.46,5.57a14.84,14.84,0,0,0-1.35,5.63,2.15,2.15,0,0,0,1.26,2,7.55,7.55,0,0,0,2.83.54c2,.06,4.12-.14,6.21-.24a38.92,38.92,0,0,1,6.38.08,17.62,17.62,0,0,1,6.3,1.88A16.89,16.89,0,0,1,79,47a26.12,26.12,0,0,1,1.91,2.68,29.14,29.14,0,0,1,1.48,2.89,36.86,36.86,0,0,1,2.93,12.3Z"/><path d="M82.19,43.42a73.45,73.45,0,0,0-11.34-4.7A27.4,27.4,0,0,0,65,37.63a25.5,25.5,0,0,0-2.9,0,24.76,24.76,0,0,0-2.85.41,19.66,19.66,0,0,0-5.44,2.13A24.12,24.12,0,0,0,49,43.89c-1.49,1.43-2.8,3-4.29,4.54a9.43,9.43,0,0,1-2.62,2,3.56,3.56,0,0,1-1.85.31,4,4,0,0,1-1.75-.68,9.9,9.9,0,0,1-2.39-2.4A29.89,29.89,0,0,1,34.35,45a43.39,43.39,0,0,1-2.77-5.75,101.81,101.81,0,0,1-3.87-12c-.51-2-1-4-1.57-5.95-.28-1-.57-1.93-.93-2.83A10.17,10.17,0,0,0,24,16.05a2,2,0,0,0-1.7-1,5.05,5.05,0,0,0-2.39,1,31.36,31.36,0,0,0-4.58,4.05l-.24-.18a30.08,30.08,0,0,1,1.73-2.65,16.19,16.19,0,0,1,2.11-2.45A6.42,6.42,0,0,1,22,13.07a3.61,3.61,0,0,1,2.12.22,4.92,4.92,0,0,1,1.64,1.17,17.5,17.5,0,0,1,3.17,5.93c.72,2,1.3,4,1.88,6,1.09,4,2.06,8,3.37,11.85q1,2.9,2.2,5.67a14.76,14.76,0,0,0,3,4.94,2.15,2.15,0,0,0,2.27.49,7.73,7.73,0,0,0,2.39-1.62c1.48-1.4,2.81-3,4.22-4.56a39.29,39.29,0,0,1,4.56-4.46,17.72,17.72,0,0,1,5.79-3.12,16.65,16.65,0,0,1,6.61-.6,24.89,24.89,0,0,1,3.24.54,31.78,31.78,0,0,1,3.09,1,36.76,36.76,0,0,1,10.78,6.64Z"/></g></g></svg>