<svg xmlns="http://www.w3.org/2000/svg" viewBox="0 0 113.24 113.24"><title>Recurso 61MANDALA</title><g id="Capa_2" data-name="Capa 2"><g id="Capa_1-2" data-name="Capa 1"><path d="M19.33,79.22l-6-6L30.08,62.89a10.76,10.76,0,0,1,13.25,1.56h0Z"/><path d="M10.21,89.48h0l24-14.77,6,6L23.46,91A10.75,10.75,0,0,1,10.21,89.48Z"/><path d="M39,71.92h0l7.24-4.46,6,6h0A10.75,10.75,0,0,1,39,71.92Z"/><path d="M35.63,94.84l-8.21-2.2,9.35-17.32A10.76,10.76,0,0,1,49,70.05h0Z"/><path d="M32.86,108.28h0L46.25,83.49l8.21,2.2L45.11,103A10.75,10.75,0,0,1,32.86,108.28Z"/><path d="M49,78.7h0l4-7.48,8.21,2.2h0A10.76,10.76,0,0,1,49,78.7Z"/><path d="M57.55,100.21l-8.21,2.2-.56-19.66a10.76,10.76,0,0,1,8-10.7h0Z"/><path d="M61.87,113.24h0l-.8-28.16,8.22-2.2.55,19.67A10.76,10.76,0,0,1,61.87,113.24Z"/><path d="M61,79.56h0l-.24-8.5L69,68.86h0A10.76,10.76,0,0,1,61,79.56Z"/><path d="M79.22,93.91l-6,6L62.89,83.17a10.75,10.75,0,0,1,1.56-13.25h0Z"/><path d="M89.48,103h0L74.71,79l6-6L91,89.78A10.75,10.75,0,0,1,89.48,103Z"/><path d="M71.92,74.27h0L67.46,67l6-6h0A10.75,10.75,0,0,1,71.92,74.27Z"/><path d="M94.84,77.62l-2.2,8.21L75.32,76.48a10.77,10.77,0,0,1-5.27-12.26h0Z"/><path d="M108.28,80.39h0L83.49,67l2.2-8.21L103,68.13A10.76,10.76,0,0,1,108.28,80.39Z"/><path d="M78.7,64.26h0l-7.48-4L73.42,52h0A10.77,10.77,0,0,1,78.7,64.26Z"/><path d="M100.21,55.7l2.2,8.21-19.66.55a10.75,10.75,0,0,1-10.7-8h0Z"/><path d="M113.24,51.37h0l-28.16.8L82.88,44l19.67-.56A10.76,10.76,0,0,1,113.24,51.37Z"/><path d="M79.56,52.2h0l-8.5.24-2.2-8.21h0A10.77,10.77,0,0,1,79.56,52.2Z"/><path d="M93.91,34l6,6L83.17,50.35A10.77,10.77,0,0,1,69.92,48.8h0Z"/><path d="M103,23.76h0L79,38.54l-6-6L89.78,22.21A10.77,10.77,0,0,1,103,23.76Z"/><path d="M74.27,41.32h0L67,45.78l-6-6h0A10.77,10.77,0,0,1,74.27,41.32Z"/><path d="M77.62,18.41l8.21,2.2L76.48,37.92A10.77,10.77,0,0,1,64.22,43.2h0Z"/><path d="M80.39,5h0L67,29.75l-8.21-2.2,9.35-17.31A10.77,10.77,0,0,1,80.39,5Z"/><path d="M64.26,34.55h0l-4,7.48L52,39.83h0A10.75,10.75,0,0,1,64.26,34.55Z"/><path d="M55.7,13l8.21-2.2.55,19.67a10.76,10.76,0,0,1-8,10.7h0Z"/><path d="M51.37,0h0l.8,28.16L44,30.36,43.4,10.7A10.77,10.77,0,0,1,51.37,0Z"/><path d="M52.2,33.69h0l.24,8.49-8.21,2.2h0A10.75,10.75,0,0,1,52.2,33.69Z"/><path d="M34,19.33l6-6L50.35,30.08A10.77,10.77,0,0,1,48.8,43.33h0Z"/><path d="M23.76,10.21h0l14.78,24-6,6L22.21,23.46A10.77,10.77,0,0,1,23.76,10.21Z"/><path d="M41.32,39h0l4.46,7.24-6,6h0A10.77,10.77,0,0,1,41.32,39Z"/><path d="M18.41,35.63l2.2-8.21,17.31,9.35A10.77,10.77,0,0,1,43.2,49h0Z"/><path d="M5,32.86H5L29.75,46.25l-2.2,8.21L10.24,45.11A10.77,10.77,0,0,1,5,32.86Z"/><path d="M34.55,49h0L42,53l-2.2,8.21h0A10.74,10.74,0,0,1,34.55,49Z"/><path d="M13,57.55l-2.2-8.21,19.67-.56a10.77,10.77,0,0,1,10.7,8h0Z"/><path d="M0,61.87H0l28.16-.8,2.2,8.22-19.66.55A10.77,10.77,0,0,1,0,61.87Z"/><path d="M33.69,61h0l8.49-.24L44.38,69h0A10.74,10.74,0,0,1,33.69,61Z"/></g></g></svg>