<svg xmlns="http://www.w3.org/2000/svg" viewBox="0 0 115.8 115.8"><title>Recurso 66MANDALA</title><g id="Capa_2" data-name="Capa 2"><g id="Capa_1-2" data-name="Capa 1"><rect x="3.65" y="77.28" width="4.56" height="2.45"/><rect x="8.21" y="74.83" width="4.56" height="2.45"/><rect x="12.77" y="72.37" width="4.56" height="2.45"/><rect x="17.33" y="72.37" width="4.56" height="2.45"/><rect x="21.9" y="72.37" width="4.56" height="2.45"/><rect x="26.46" y="74.83" width="4.56" height="2.45"/><rect x="31.02" y="77.28" width="4.56" height="2.45"/><rect x="35.58" y="79.73" width="4.56" height="2.45"/><rect x="26.46" y="69.92" width="4.56" height="2.45"/><rect x="31.02" y="67.47" width="4.56" height="2.45"/><rect x="35.58" y="65.01" width="4.56" height="2.45"/><rect x="40.14" y="65.01" width="4.56" height="2.45"/><rect x="44.71" y="65.01" width="4.56" height="2.45"/><rect x="49.27" y="67.47" width="4.56" height="2.45"/><rect x="53.83" y="69.92" width="4.56" height="2.45"/><rect x="58.39" y="72.37" width="4.56" height="2.45"/><rect x="20.91" y="100.5" width="4.56" height="2.45" transform="translate(-47.76 25.23) rotate(-30)"/><rect x="23.64" y="96.1" width="4.56" height="2.45" transform="translate(-45.19 26) rotate(-30)"/><rect x="26.36" y="91.69" width="4.56" height="2.45" transform="translate(-42.62 26.77) rotate(-30)"/><rect x="30.31" y="89.41" width="4.56" height="2.45" transform="translate(-40.95 28.44) rotate(-30)"/><rect x="34.26" y="87.13" width="4.56" height="2.45" transform="translate(-39.28 30.11) rotate(-30)"/><rect x="39.44" y="86.98" width="4.56" height="2.45" transform="translate(-38.51 32.68) rotate(-30)"/><rect x="44.62" y="86.82" width="4.56" height="2.45" transform="translate(-37.74 35.25) rotate(-30)"/><rect x="49.8" y="86.66" width="4.56" height="2.45" transform="translate(-36.97 37.81) rotate(-30)"/><rect x="36.99" y="82.73" width="4.56" height="2.45" transform="translate(-36.72 30.88) rotate(-30)"/><rect x="39.71" y="78.32" width="4.56" height="2.45" transform="translate(-34.15 31.65) rotate(-30)"/><rect x="42.44" y="73.92" width="4.56" height="2.45" transform="translate(-31.58 32.43) rotate(-30)"/><rect x="46.39" y="71.63" width="4.56" height="2.45" transform="translate(-29.91 34.1) rotate(-30)"/><rect x="50.34" y="69.35" width="4.56" height="2.45" transform="translate(-28.24 35.77) rotate(-30)"/><rect x="55.52" y="69.2" width="4.56" height="2.45" transform="translate(-27.47 38.33) rotate(-30)"/><rect x="60.69" y="69.04" width="4.56" height="2.45" transform="translate(-26.7 40.9) rotate(-30)"/><rect x="65.87" y="68.88" width="4.56" height="2.45" transform="translate(-25.92 43.47) rotate(-30)"/><rect x="47.48" y="111.99" width="4.56" height="2.45" transform="translate(-73.17 99.7) rotate(-60)"/><rect x="47.63" y="106.81" width="4.56" height="2.45" transform="translate(-68.6 97.25) rotate(-60)"/><rect x="47.79" y="101.63" width="4.56" height="2.45" transform="translate(-64.04 94.79) rotate(-60)"/><rect x="50.07" y="97.68" width="4.56" height="2.45" transform="translate(-59.48 94.79) rotate(-60)"/><rect x="52.35" y="93.73" width="4.56" height="2.45" transform="translate(-54.92 94.79) rotate(-60)"/><rect x="56.76" y="91" width="4.56" height="2.45" transform="translate(-50.35 97.25) rotate(-60)"/><rect x="61.16" y="88.28" width="4.56" height="2.45" transform="translate(-45.79 99.7) rotate(-60)"/><rect x="65.57" y="85.56" width="4.56" height="2.45" transform="translate(-41.23 102.15) rotate(-60)"/><rect x="52.51" y="88.55" width="4.56" height="2.45" transform="translate(-50.35 92.34) rotate(-60)"/><rect x="52.67" y="83.37" width="4.56" height="2.45" transform="translate(-45.79 89.89) rotate(-60)"/><rect x="52.82" y="78.2" width="4.56" height="2.45" transform="translate(-41.23 87.43) rotate(-60)"/><rect x="55.11" y="74.25" width="4.56" height="2.45" transform="translate(-36.67 87.43) rotate(-60)"/><rect x="57.39" y="70.3" width="4.56" height="2.45" transform="translate(-32.11 87.43) rotate(-60)"/><rect x="61.79" y="67.57" width="4.56" height="2.45" transform="translate(-27.54 89.89) rotate(-60)"/><rect x="66.2" y="64.85" width="4.56" height="2.45" transform="translate(-22.98 92.34) rotate(-60)"/><rect x="70.6" y="62.12" width="4.56" height="2.45" transform="translate(-18.42 94.79) rotate(-60)"/><rect x="76.22" y="108.65" width="4.56" height="2.45" transform="translate(-31.37 188.38) rotate(-90)"/><rect x="73.77" y="104.08" width="4.56" height="2.45" transform="translate(-29.26 181.36) rotate(-90)"/><rect x="71.32" y="99.52" width="4.56" height="2.45" transform="translate(-27.15 174.35) rotate(-90)"/><rect x="71.32" y="94.96" width="4.56" height="2.45" transform="translate(-22.59 169.79) rotate(-90)"/><rect x="71.32" y="90.4" width="4.56" height="2.45" transform="translate(-18.02 165.22) rotate(-90)"/><rect x="73.77" y="85.84" width="4.56" height="2.45" transform="translate(-11.01 163.11) rotate(-90)"/><rect x="76.22" y="81.27" width="4.56" height="2.45" transform="translate(-3.99 161.01) rotate(-90)"/><rect x="78.68" y="76.71" width="4.56" height="2.45" transform="translate(3.02 158.9) rotate(-90)"/><rect x="68.87" y="85.84" width="4.56" height="2.45" transform="translate(-15.92 158.21) rotate(-90)"/><rect x="66.41" y="81.27" width="4.56" height="2.45" transform="translate(-13.81 151.19) rotate(-90)"/><rect x="63.96" y="76.71" width="4.56" height="2.45" transform="translate(-11.7 144.18) rotate(-90)"/><rect x="63.96" y="72.15" width="4.56" height="2.45" transform="translate(-7.13 139.62) rotate(-90)"/><rect x="63.96" y="67.59" width="4.56" height="2.45" transform="translate(-2.57 135.05) rotate(-90)"/><rect x="66.41" y="63.02" width="4.56" height="2.45" transform="translate(4.44 132.95) rotate(-90)"/><rect x="68.87" y="58.46" width="4.56" height="2.45" transform="translate(11.46 130.84) rotate(-90)"/><rect x="71.32" y="53.9" width="4.56" height="2.45" transform="translate(18.47 128.73) rotate(-90)"/><rect x="99.45" y="91.38" width="4.56" height="2.45" transform="translate(72.4 227.01) rotate(-120)"/><rect x="95.04" y="88.66" width="4.56" height="2.45" transform="translate(68.15 219.11) rotate(-120)"/><rect x="90.64" y="85.93" width="4.56" height="2.45" transform="translate(63.9 211.21) rotate(-120)"/><rect x="88.36" y="81.98" width="4.56" height="2.45" transform="translate(63.9 203.31) rotate(-120)"/><rect x="86.08" y="78.03" width="4.56" height="2.45" transform="translate(63.9 195.41) rotate(-120)"/><rect x="85.92" y="72.85" width="4.56" height="2.45" transform="translate(68.15 187.5) rotate(-120)"/><rect x="85.76" y="67.68" width="4.56" height="2.45" transform="translate(72.4 179.6) rotate(-120)"/><rect x="85.61" y="62.5" width="4.56" height="2.45" transform="translate(76.64 171.7) rotate(-120)"/><rect x="81.67" y="75.31" width="4.56" height="2.45" transform="translate(59.65 187.5) rotate(-120)"/><rect x="77.27" y="72.58" width="4.56" height="2.45" transform="translate(55.4 179.6) rotate(-120)"/><rect x="72.86" y="69.86" width="4.56" height="2.45" transform="translate(51.15 171.7) rotate(-120)"/><rect x="70.58" y="65.91" width="4.56" height="2.45" transform="translate(51.15 163.8) rotate(-120)"/><rect x="68.3" y="61.95" width="4.56" height="2.45" transform="translate(51.15 155.9) rotate(-120)"/><rect x="68.14" y="56.78" width="4.56" height="2.45" transform="translate(55.4 147.99) rotate(-120)"/><rect x="67.99" y="51.6" width="4.56" height="2.45" transform="translate(59.65 140.09) rotate(-120)"/><rect x="67.83" y="46.42" width="4.56" height="2.45" transform="translate(63.9 132.19) rotate(-120)"/><rect x="110.93" y="64.82" width="4.56" height="2.45" transform="translate(178.24 179.84) rotate(-150)"/><rect x="105.75" y="64.66" width="4.56" height="2.45" transform="translate(168.65 176.96) rotate(-150)"/><rect x="100.58" y="64.5" width="4.56" height="2.45" transform="translate(159.07 174.08) rotate(-150)"/><rect x="96.63" y="62.22" width="4.56" height="2.45" transform="translate(152.84 167.85) rotate(-150)"/><rect x="92.67" y="59.94" width="4.56" height="2.45" transform="translate(146.61 161.62) rotate(-150)"/><rect x="89.95" y="55.54" width="4.56" height="2.45" transform="translate(143.73 152.03) rotate(-150)"/><rect x="87.23" y="51.13" width="4.56" height="2.45" transform="translate(140.84 142.45) rotate(-150)"/><rect x="84.5" y="46.72" width="4.56" height="2.45" transform="translate(137.96 132.87) rotate(-150)"/><rect x="87.5" y="59.78" width="4.56" height="2.45" transform="translate(137.02 158.74) rotate(-150)"/><rect x="82.32" y="59.63" width="4.56" height="2.45" transform="translate(127.44 155.85) rotate(-150)"/><rect x="77.14" y="59.47" width="4.56" height="2.45" transform="translate(117.86 152.97) rotate(-150)"/><rect x="73.19" y="57.19" width="4.56" height="2.45" transform="translate(111.63 146.74) rotate(-150)"/><rect x="69.24" y="54.91" width="4.56" height="2.45" transform="translate(105.39 140.51) rotate(-150)"/><rect x="66.52" y="50.5" width="4.56" height="2.45" transform="translate(102.51 130.93) rotate(-150)"/><rect x="63.79" y="46.1" width="4.56" height="2.45" transform="translate(99.63 121.34) rotate(-150)"/><rect x="61.07" y="41.69" width="4.56" height="2.45" transform="translate(96.75 111.76) rotate(-150)"/><rect x="107.59" y="36.07" width="4.56" height="2.45" transform="translate(219.75 74.59) rotate(-180)"/><rect x="103.03" y="38.52" width="4.56" height="2.45" transform="translate(210.62 79.5) rotate(-180)"/><rect x="98.47" y="40.98" width="4.56" height="2.45" transform="translate(201.5 84.4) rotate(-180)"/><rect x="93.91" y="40.98" width="4.56" height="2.45" transform="translate(192.37 84.4) rotate(-180)"/><rect x="89.34" y="40.98" width="4.56" height="2.45" transform="translate(183.25 84.4) rotate(-180)"/><rect x="84.78" y="38.52" width="4.56" height="2.45" transform="translate(174.12 79.5) rotate(-180)"/><rect x="80.22" y="36.07" width="4.56" height="2.45" transform="translate(165 74.59) rotate(-180)"/><rect x="75.66" y="33.62" width="4.56" height="2.45" transform="translate(155.88 69.69) rotate(-180)"/><rect x="84.78" y="43.43" width="4.56" height="2.45" transform="translate(174.12 89.31) rotate(-180)"/><rect x="80.22" y="45.88" width="4.56" height="2.45" transform="translate(165 94.21) rotate(-180)"/><rect x="75.66" y="48.33" width="4.56" height="2.45" transform="translate(155.88 99.12) rotate(-180)"/><rect x="71.09" y="48.33" width="4.56" height="2.45" transform="translate(146.75 99.12) rotate(-180)"/><rect x="66.53" y="48.33" width="4.56" height="2.45" transform="translate(137.63 99.12) rotate(-180)"/><rect x="61.97" y="45.88" width="4.56" height="2.45" transform="translate(128.5 94.21) rotate(-180)"/><rect x="57.41" y="43.43" width="4.56" height="2.45" transform="translate(119.38 89.31) rotate(-180)"/><rect x="52.85" y="40.98" width="4.56" height="2.45" transform="translate(110.25 84.4) rotate(-180)"/><rect x="90.33" y="12.84" width="4.56" height="2.45" transform="translate(179.84 -20.05) rotate(150)"/><rect x="87.6" y="17.25" width="4.56" height="2.45" transform="translate(176.96 -10.47) rotate(150)"/><rect x="84.88" y="21.65" width="4.56" height="2.45" transform="translate(174.08 -0.88) rotate(150)"/><rect x="80.93" y="23.94" width="4.56" height="2.45" transform="translate(167.85 5.35) rotate(150)"/><rect x="76.98" y="26.22" width="4.56" height="2.45" transform="translate(161.62 11.58) rotate(150)"/><rect x="71.8" y="26.37" width="4.56" height="2.45" transform="translate(152.03 14.46) rotate(150)"/><rect x="66.62" y="26.53" width="4.56" height="2.45" transform="translate(142.45 17.34) rotate(150)"/><rect x="61.44" y="26.69" width="4.56" height="2.45" transform="translate(132.87 20.23) rotate(150)"/><rect x="74.25" y="30.62" width="4.56" height="2.45" transform="translate(158.74 21.16) rotate(150)"/><rect x="71.53" y="35.03" width="4.56" height="2.45" transform="translate(155.85 30.75) rotate(150)"/><rect x="68.8" y="39.43" width="4.56" height="2.45" transform="translate(152.97 40.33) rotate(150)"/><rect x="64.85" y="41.71" width="4.56" height="2.45" transform="translate(146.74 46.56) rotate(150)"/><rect x="60.9" y="43.99" width="4.56" height="2.45" transform="translate(140.51 52.79) rotate(150)"/><rect x="55.72" y="44.15" width="4.56" height="2.45" transform="translate(130.93 55.67) rotate(150)"/><rect x="50.55" y="44.31" width="4.56" height="2.45" transform="translate(121.34 58.56) rotate(150)"/><rect x="45.37" y="44.47" width="4.56" height="2.45" transform="translate(111.76 61.44) rotate(150)"/><rect x="63.76" y="1.36" width="4.56" height="2.45" transform="translate(101.31 -53.31) rotate(120)"/><rect x="63.6" y="6.54" width="4.56" height="2.45" transform="translate(105.55 -45.41) rotate(120)"/><rect x="63.45" y="11.72" width="4.56" height="2.45" transform="translate(109.8 -37.51) rotate(120)"/><rect x="61.17" y="15.67" width="4.56" height="2.45" transform="matrix(-0.5, 0.87, -0.87, -0.5, 109.8, -29.61)"/><rect x="58.89" y="19.62" width="4.56" height="2.45" transform="translate(109.8 -21.7) rotate(120)"/><rect x="54.48" y="22.34" width="4.56" height="2.45" transform="matrix(-0.5, 0.87, -0.87, -0.5, 105.55, -13.8)"/><rect x="50.08" y="25.07" width="4.56" height="2.45" transform="translate(101.31 -5.9) rotate(120)"/><rect x="45.67" y="27.79" width="4.56" height="2.45" transform="matrix(-0.5, 0.87, -0.87, -0.5, 97.06, 2)"/><rect x="58.73" y="24.8" width="4.56" height="2.45" transform="matrix(-0.5, 0.87, -0.87, -0.5, 114.05, -13.8)"/><rect x="58.57" y="29.97" width="4.56" height="2.45" transform="matrix(-0.5, 0.87, -0.87, -0.5, 118.3, -5.9)"/><rect x="58.42" y="35.15" width="4.56" height="2.45" transform="matrix(-0.5, 0.87, -0.87, -0.5, 122.55, 2)"/><rect x="56.13" y="39.1" width="4.56" height="2.45" transform="matrix(-0.5, 0.87, -0.87, -0.5, 122.55, 9.9)"/><rect x="53.85" y="43.05" width="4.56" height="2.45" transform="matrix(-0.5, 0.87, -0.87, -0.5, 122.55, 17.81)"/><rect x="49.45" y="45.78" width="4.56" height="2.45" transform="matrix(-0.5, 0.87, -0.87, -0.5, 118.3, 25.71)"/><rect x="45.04" y="48.5" width="4.56" height="2.45" transform="translate(114.05 33.61) rotate(120)"/><rect x="40.64" y="51.23" width="4.56" height="2.45" transform="translate(109.8 41.51) rotate(120)"/><rect x="35.01" y="4.7" width="4.56" height="2.45" transform="translate(43.22 -31.37) rotate(90)"/><rect x="37.47" y="9.26" width="4.56" height="2.45" transform="translate(50.24 -29.26) rotate(90)"/><rect x="39.92" y="13.83" width="4.56" height="2.45" transform="translate(57.25 -27.15) rotate(90)"/><rect x="39.92" y="18.39" width="4.56" height="2.45" transform="translate(61.82 -22.59) rotate(90)"/><rect x="39.92" y="22.95" width="4.56" height="2.45" transform="translate(66.38 -18.02) rotate(90)"/><rect x="37.47" y="27.51" width="4.56" height="2.45" transform="translate(68.49 -11.01) rotate(90)"/><rect x="35.01" y="32.07" width="4.56" height="2.45" transform="translate(70.6 -3.99) rotate(90)"/><rect x="32.56" y="36.64" width="4.56" height="2.45" transform="translate(72.71 3.02) rotate(90)"/><rect x="42.37" y="27.51" width="4.56" height="2.45" transform="translate(73.39 -15.92) rotate(90)"/><rect x="44.83" y="32.07" width="4.56" height="2.45" transform="translate(80.41 -13.81) rotate(90)"/><rect x="47.28" y="36.64" width="4.56" height="2.45" transform="translate(87.42 -11.7) rotate(90)"/><rect x="47.28" y="41.2" width="4.56" height="2.45" transform="translate(91.99 -7.13) rotate(90)"/><rect x="47.28" y="45.76" width="4.56" height="2.45" transform="translate(96.55 -2.57) rotate(90)"/><rect x="44.83" y="50.32" width="4.56" height="2.45" transform="translate(98.66 4.44) rotate(90)"/><rect x="42.37" y="54.89" width="4.56" height="2.45" transform="translate(100.77 11.46) rotate(90)"/><rect x="39.92" y="59.45" width="4.56" height="2.45" transform="translate(102.88 18.47) rotate(90)"/><rect x="11.79" y="21.97" width="4.56" height="2.45" transform="translate(27.12 -0.59) rotate(60)"/><rect x="16.19" y="24.69" width="4.56" height="2.45" transform="translate(31.68 -3.04) rotate(60)"/><rect x="20.6" y="27.42" width="4.56" height="2.45" transform="translate(36.25 -5.49) rotate(60)"/><rect x="22.88" y="31.37" width="4.56" height="2.45" transform="translate(40.81 -5.49) rotate(60)"/><rect x="25.16" y="35.32" width="4.56" height="2.45" transform="translate(45.37 -5.49) rotate(60)"/><rect x="25.32" y="40.5" width="4.56" height="2.45" transform="translate(49.93 -3.04) rotate(60)"/><rect x="25.48" y="45.67" width="4.56" height="2.45" transform="translate(54.49 -0.59) rotate(60)"/><rect x="25.63" y="50.85" width="4.56" height="2.45" transform="translate(59.06 1.86) rotate(60)"/><rect x="29.57" y="38.04" width="4.56" height="2.45" transform="translate(49.93 -7.95) rotate(60)"/><rect x="33.97" y="40.77" width="4.56" height="2.45" transform="translate(54.49 -10.4) rotate(60)"/><rect x="38.38" y="43.49" width="4.56" height="2.45" transform="translate(59.06 -12.85) rotate(60)"/><rect x="40.66" y="47.44" width="4.56" height="2.45" transform="translate(63.62 -12.85) rotate(60)"/><rect x="42.94" y="51.39" width="4.56" height="2.45" transform="translate(68.18 -12.85) rotate(60)"/><rect x="43.1" y="56.57" width="4.56" height="2.45" transform="translate(72.74 -10.4) rotate(60)"/><rect x="43.25" y="61.75" width="4.56" height="2.45" transform="translate(77.31 -7.95) rotate(60)"/><rect x="43.41" y="66.93" width="4.56" height="2.45" transform="translate(81.87 -5.49) rotate(60)"/><rect x="0.31" y="48.53" width="4.56" height="2.45" transform="translate(25.23 5.37) rotate(30)"/><rect x="5.49" y="48.69" width="4.56" height="2.45" transform="translate(26 2.8) rotate(30)"/><rect x="10.66" y="48.85" width="4.56" height="2.45" transform="translate(26.77 0.24) rotate(30)"/><rect x="14.61" y="51.13" width="4.56" height="2.45" transform="matrix(0.87, 0.5, -0.5, 0.87, 28.44, -1.43)"/><rect x="18.56" y="53.41" width="4.56" height="2.45" transform="translate(30.11 -3.1) rotate(30)"/><rect x="21.29" y="57.81" width="4.56" height="2.45" transform="translate(32.68 -3.88) rotate(30)"/><rect x="24.01" y="62.22" width="4.56" height="2.45" transform="translate(35.25 -4.65) rotate(30)"/><rect x="26.74" y="66.62" width="4.56" height="2.45" transform="translate(37.81 -5.42) rotate(30)"/><rect x="23.74" y="53.56" width="4.56" height="2.45" transform="translate(30.88 -5.67) rotate(30)"/><rect x="28.92" y="53.72" width="4.56" height="2.45" transform="translate(31.65 -8.24) rotate(30)"/><rect x="34.1" y="53.88" width="4.56" height="2.45" transform="translate(32.43 -10.81) rotate(30)"/><rect x="38.05" y="56.16" width="4.56" height="2.45" transform="translate(34.1 -12.48) rotate(30)"/><rect x="42" y="58.44" width="4.56" height="2.45" transform="translate(35.77 -14.15) rotate(30)"/><rect x="44.72" y="62.85" width="4.56" height="2.45" transform="translate(38.33 -14.92) rotate(30)"/><rect x="47.45" y="67.25" width="4.56" height="2.45" transform="translate(40.9 -15.69) rotate(30)"/><rect x="50.17" y="71.66" width="4.56" height="2.45" transform="translate(43.47 -16.46) rotate(30)"/></g></g></svg>