<svg xmlns="http://www.w3.org/2000/svg" viewBox="0 0 324.27 184.31"><title>Recurso 39GRAPHS</title><g id="Capa_2" data-name="Capa 2"><g id="Capa_1-2" data-name="Capa 1"><path d="M312.52,4.57V150.94c-.09.1-.13.18-.2.21a.65.65,0,0,1-.24,0h-264c-.06,0-.12-.1-.23-.19V4.59c.09-.09.14-.19.2-.2a2.68,2.68,0,0,1,.49,0H312.3C312.36,4.39,312.42,4.48,312.52,4.57ZM51.74,56.69c-.1-.38-.07-.75-.49-.42a1.53,1.53,0,0,0,.44.29c0,.08,0,.21,0,.23a1.75,1.75,0,0,0,1.94,0s0-.15,0-.53l0,.3h257a.64.64,0,0,0,.24,0c.07,0,.12-.11.21-.19V42h-2.61c-.23-.37-.68-.5-.63-1h3.11c.25-2.43.23-15,0-17.1h-2.62a3,3,0,0,1,.09-2h2.72V5.75a.41.41,0,0,0-.07-.22c0-.06-.11-.11-.17-.18H284.05a4,4,0,0,0-.49,0c-.06,0-.11.11-.25.27,0,.86,0,1.82,0,2.79,0,.12-.18.23-.27.35-.38-.08-.81.17-1.14-.2-.14-1,.07-2.08-.14-3.22H254.46a.59.59,0,0,0-.22,0,1.68,1.68,0,0,0-.19.19c0,.47,0,1,0,1.44s.15,1.12-.17,1.68h-1.12c-.33-.56-.1-1.13-.17-1.68s.19-1.12-.18-1.63H224.94a5.05,5.05,0,0,0-.15,1.71c-.07.54.23,1.13-.2,1.62-.39,0-.8.16-1.24-.18V6.25l-.71-.88H195.77l-.72.72c0,.39,0,.79,0,1.2s.15,1-.17,1.43h-.71a21.57,21.57,0,0,1-.1-2.65l-.69-.69c-12.24-.17-23.73-.12-26.5.12l-.61.6V8.68l-.71.09-.72-.72.46-.52V6.08l-.7-.7c-14.38-.17-24.69-.12-27.48.13-.3,1.06.19,2.21-.26,3.28-.46-.11-.89.15-1.31-.29V5.55c-.15-.1-.21-.19-.28-.19q-13.53,0-27.06,0a.53.53,0,0,0-.22,0,1.45,1.45,0,0,0-.18.17c-.11,1,0,2.08-.12,3.32-.49-.29-1,.14-1.38-.36,0-.48,0-1,0-1.45s.16-1.12-.17-1.67H78.67c-.31.57-.1,1.15-.16,1.69s.2,1.13-.19,1.63A1.85,1.85,0,0,1,77,8.58c0-.49,0-1,0-1.59s.25-1.13-.22-1.64H49.52c-.06,0-.12.1-.22.18s0,.43,0,.66V21.56c0,.31-.08.65.26.86.73,0,1.46,0,2.19,0a1.09,1.09,0,0,1,.42.18v1.15c-.95.35-1.95-.13-2.87.31,0,5.55,0,11.07,0,16.59,0,.06.08.12.13.19.9.32,1.9-.19,2.82.32l-.15.77H49.34a6.26,6.26,0,0,0-.09.75q0,5.73,0,11.46c0,.14.12.27.19.41l1.55.09.43.43L52,54.6h.94l.57-.52c.35.15.8-.15,1.17.32-.15.47.15,1-.17,1.57a1.34,1.34,0,0,0-.83.59A9.11,9.11,0,0,0,51.74,56.69ZM72.83,150l.49-1.24h2.06l.37.37,1.29-.62V147l.75-.71.72.72c0,.65,0,1.3,0,2,0,0,.11.11.21.2l.49-.4a3.16,3.16,0,0,1,1.61.08l.33.95.5-1.07h2l.52.46.41-.41h2l.51.39.47-.47c.48.14,1-.13,1.57.16l.33.94.5-1.07h2l.52.46.37-.37c2-.14,2-.13,2.24.1l.2.93.53-1.09a3.37,3.37,0,0,1,1.64.09l.33.95.5-1.06h2l.52.45.37-.37c2-.1,2-.1,2.24.11l.2.91.57-1.17c.51.22,1.08-.15,1.61.2l.33,1c.54-1,0-2,.36-2.92l.63-.59.74.69v1.49l1.29.63.41-.4c.33,0,.65,0,1,0s.81-.17,1.15.14l.33,1,.38-1.09h1.59l.5.39.39-.39h2.06l.42.42.51-.47c.32,0,.65,0,1,0s.81-.17,1.14.15l.32,1,.4-1.11h1.58l.5.39.38-.38h2.08l.41.41.51-.47H128c.06,0,.11.11.17.16l.3,1,.41-1.14h1.57l.51.39.44-.44h1.89c.06,0,.12.08.19.12l.33.95.45-1c.45-.25.9.1,1.26-.31l.08-1.61.21.15.38-.76.81.68c.1.62-.2,1.2.2,1.7l1.23.07,1.17.53.6-.56c.54.08,1.12-.18,1.61.17.14.27,0,.65.41.78l.3-.84c2-.11,2-.11,2.25.1l.19.94.56-1.16c.69.06,1.41,0,2,0l.45.45.53-.48c.54.09,1.12-.19,1.61.18.13.26-.06.65.4.76l.32-.89h2l.52.4.46-.45c.66,0,1.37-.06,2,0l.45.45.53-.48c.54.09,1.12-.2,1.62.18.12.26-.07.65.39.76l.32-.89h2l.52.4.42-.42a14.81,14.81,0,0,1,2,0l.46.46a1.88,1.88,0,0,0,.74-1.17l-.42-.47.63-1.26.71,0v1.83l.79,1.54.47-1h1.95l.53.44.41-.41h2.07l.36,1,.5-1a3.48,3.48,0,0,1,1.64.11l.33.94.5-1.06h1.95l.51.43.54-.43.37,1,.5-1a19.82,19.82,0,0,1,2,0l.41.46.5-.45h2c.06,0,.12.11.17.16.1.25-.11.64.36.71l.35-.87h1.6l.35,1a2.27,2.27,0,0,0,.3-.39c.08-.21.11-.43.17-.65h1.76a1.77,1.77,0,0,1,.42.15l.34.32.48-.44h2c.06,0,.12.11.17.16.1.25-.11.64.35.7.23-.39.23-.91.66-1.18a9.28,9.28,0,0,1,.12-2.16l.83.08v1.84l.8,1.55.32-.91c.06,0,.12-.12.19-.12h1.86l.55.45.4-.4h2.09l.36,1,.53-1.11c.52.2,1.11-.14,1.62.21l.33,1,.36-1c.07,0,.13-.12.19-.12h1.89l.45.44.5-.39h2.06l.36,1,.5-1.05c.57.05,1.14-.17,1.64.14l.36.32.35-.34c.06,0,.12-.12.19-.12h1.88l.45.44.5-.39h2.06l.36,1,.5-1.06h1.48l.51.47.36-.36c.73-.34,1.58.15,2.3-.32V147l.58-.52.59.33c.54.81,0,1.44.55,1.9h1l.5,1.07.35-1h1.62a2.81,2.81,0,0,0,.35.34s.11,0,.17,0l.34-.35h2.1l.36,1,.5-1.06c.68,0,1.33,0,2,0,.06,0,.12.1.18.16l.31,1,.4-1.11h1.49l.83.5.72-.49h1.53c.13.34.23.62.36,1l.5-1.06h2c.06,0,.11.11.17.16l.3,1,.41-1.13h2.09l.4.4.5-.41a3.27,3.27,0,0,1,1.61.07l.33,1,.5-1.07h2l.46.4,1.26-.64V147l.75-.74.53.47c.35,1.07-.05,1.81.4,2.47l.55-.5c.56.09,1.15-.22,1.63.2.1.26-.12.66.35.71l.36-.85h2.06l.42.41.52-.46h1.68a1.56,1.56,0,0,1,.41.15l.34.31.53-.47c.55.1,1.15-.23,1.62.21.1.25-.12.65.36.7l.34-.85h2.07l.42.41.52-.46c.3,0,.63,0,.95,0s.8-.16,1.14.14l.34,1,.37-1a2.73,2.73,0,0,1,1.66,0c.27.33,0,.76.48.78l.33-.84h2.08l.42.41.52-.46c.3,0,.63,0,.95,0s.81-.17,1.15.14l.33,1c.16-.45.26-.73.38-1a2.68,2.68,0,0,1,1.77.09c.11.29-.14.7.48.73.1-.87,0-1.75.05-2.62l.72-.71.75.72v1.51l1.27.6.44-.36h2l.37,1,.49-1a3.41,3.41,0,0,1,1.65.11l.33.35.51-.47h1.93l.53.44.41-.41h2.07l.36,1,.5-1a3.43,3.43,0,0,1,1.68.13l.3.33.51-.47h1.93l.53.44.41-.41h2.07l.36,1,.54-1.1c.52.18,1.09-.14,1.61.19l.34.33.48-.44h2c.06,0,.11.11.16.16.11.25-.11.64.36.71l.35-.86,1.11-.12c.08-.09.17-.15.17-.21V140.2l-.48-.54a1.86,1.86,0,0,1,.44-1.49v-5c-.9-.1-1.78,0-2.65-.06l-.71-.71.72-.75h2.47c.12-.15.21-.21.21-.27V115a.61.61,0,0,0,0-.23c0-.07-.11-.11-.16-.17-.87-.14-1.76.06-2.32-.48l-1-.23.83-.8c.45,0,.86,0,1.26,0s1,.2,1.4-.23v-16c0-.06-.09-.12-.2-.27h-2.24l-1-.72.75-.75a21.57,21.57,0,0,0,2.65-.1V78.21c-.1-.09-.16-.19-.22-.19h-2.42l-.72-.72.72-.76h2.47c.12-.14.21-.2.21-.27V60.91a.56.56,0,0,0,0-.23c0-.07-.11-.12-.17-.18-.86-.13-1.75.06-2.42-.36l-.87-.36.88-.83h2.41c.06,0,.12-.1.17-.16s-.2-.26-.31-.26c-.73,0-1.47,0-2.2,0H51.88c-.73,0-1.46,0-2.19,0-.2,0-.5,0-.31.38.91.33,1.91-.18,2.8.31-.08.41.16.84-.25,1.26H49.47c-.12.15-.21.21-.21.27q0,7.68,0,15.36a.43.43,0,0,0,0,.23c0,.07.11.12.25.26h2.79c-.34.53.11,1-.38,1.42-.86.06-1.74-.06-2.58.07a3.21,3.21,0,0,0-.11.54q0,7.92,0,15.85a2.72,2.72,0,0,0,.17.62c.8,0,1.53,0,2.27,0,.14,0,.27.11.42.17v1.16c-.95.34-1.95-.12-2.87.3q0,8.07,0,16.1c0,.06.08.13.13.2.89.33,1.9-.19,2.78.3-.07.41.16.83-.23,1.27H49.41c-.24,2.62-.22,15.09,0,17.09H52a1.28,1.28,0,0,1-.14,1.49H49.3v4.14l.89.88c0,.39.15.79-.1,1.15l-.84.29c0,3,0,5.9,0,8.83,0,.06.1.11.17.2l1.12.12.36,1,.5-1a3.39,3.39,0,0,1,1.67.13l.3.33.5-.45h2c.06,0,.11.11.08.08.21.31,0,.73.45.79l.34-.87h2.1l.36,1,.5-1h1.47l.76.59.78-.61c.54.09,1.13-.22,1.53.13.22.31,0,.73.44.79l.35-.87h2.1l.36,1,.51-1h1.71a1.77,1.77,0,0,1,.42.15l.34.32.52-.48c.56.09,1.15-.22,1.61.19ZM50.54,57l.17-.17a1.15,1.15,0,0,0-.32-.15s-.11.09-.16.15Z"/><path d="M23.41,38.42,24,37.35l1.64-1.76h1.27c.64.4,1.46.53,1.89,1.25.08.38-.17.81.2,1.14.67-.24.69-.95,1-1.43s1.15-.47,1.56-1h1.07l2.13,2.14.61.87c.33-.73.59-1.35.89-2s1.17-.45,1.52-1h1.46a1,1,0,0,1,.17.14L41,37.29v1l.48.52v2.92l-.43.43c0,.3-.06.68-.09,1.07l-1.61,1.6H36.76c-.3-.34-.8-.58-.68-1.17-.53-.22-.36-.84-.69-1.17l-.48,0c-.58.3-.12.89-.35,1.29L33.4,44.85H31l-1.14-1.14L29.68,43l-.54-.16c-.45.17-.33.54-.43.81l-1,1c-.07,0-.13.12-.19.12H25.32l-1.43-.73v-.49L23.21,43c-.41.11-.19.53-.36.73-.36.42-.78.8-1.13,1.15H18.93l-1.84-1.68v-1l.69-.73h1c.56.52,0,1.25.28,1.77.42.34.83.09,1.17.19l.73-.74V41.19l-1.95-1c0-.21,0-.37,0-.52.93-.43.93-.43,1.87-1.87-.34-.38-.55-1-1.27-.69-.31.52-.08,1.1-.17,1.64-.3.41-.74.16-1.16.24l-.72-.67V36.75c.15-.14.41-.6.71-.63.47,0,.69-.34,1-.53h1.23c.49.35,1.19.39,1.56.91s.5.89.75,1.34l-.43.43v1.47l-.45.44c.33.39.56,1,1.22.71.09-.08.2-.13.2-.19C23.41,39.89,23.41,39.08,23.41,38.42ZM39.5,42.66V38.77L39,38.25c-.09-.4.16-.83-.21-1.16a1.75,1.75,0,0,0-1.26.16,3.06,3.06,0,0,1,0,.85,2.85,2.85,0,0,1-.43.71v2.42l.65,2.14h1Zm-7.07-5.61c-.73,0-.85.48-1.22.71,0,1.73,0,3.48,0,5.24,0,.13.15.26.23.39h1l.67-.75V37.77Zm-7,5.66c.36.23.49.72,1,.68s.59-.5.92-.72V37.8c-.35-.28-.53-.84-1.27-.73l-.64.59Z"/><path d="M41.45,78.24l-.5.54v1l-1.05,1c-.29.41-1.14-.2-1,.65H37.49l-1.32-.68a1.58,1.58,0,0,0-.1-.52,2.47,2.47,0,0,0-.46-.51c-.07-.4.12-.83-.21-1.22l-.75.69,0,1c-.19.18-.46.64-.76.66-.47,0-.68.37-1,.53H31.57c-.53-.57-1.66-.41-1.85-1.52-.06-.34-.44-.63-.69-1-.38,1.27-1.34,1.9-2.71,2.46H25L23.86,80c-.06-.17.23-.83-.41-1.16-.14-1,.07-2.08-.12-3.12-.48,0-.62.44-.9.65v.48L20,79.21a2.17,2.17,0,0,0,1.35.18l.14-.7c.37-.37.83-.2,1.3-.08.31.69,0,1.41.17,2.1-.67.42-1.32.17-1.94.22a18.12,18.12,0,0,1-2,0,6.29,6.29,0,0,1-1.89-.09l-.09-.34,3.43-3.43c-.33-1.09.62-1.73.42-2.7l-.65-.7H19.19c-.34.35-.1.78-.17,1.16s.16.81-.15,1.15l-.59.1L17,74.83a4.8,4.8,0,0,1,1.79-2.63h2.95c.19.47.24,1,.71,1.21s.26.91.68,1.19l.71-.71V73c.31-.65.9-.19,1.3-.41l.39-.39h2c.47.54,1.35.9,1.29,1.91h.7a3,3,0,0,1,.3-.82,13.59,13.59,0,0,1,1.07-1.09h1.94c1.11.63,1.66,1.88,2.48,2.9.43-.39.17-.82.26-1.21l.9-1,.22-.76h2.55L41,74v.77l.5.54Zm-4-.1c.28.65-.09,1.24.31,1.77h1.37c-.51-.69.21-.82.37-1.2V74.38l-1.2-1.25-.7.7-.08,1.06-.43.43v2.43Zm-6.22-4.29v5.38c.37.27.56.82,1,.76l.93-.67V74.58L32,73.12ZM26.08,80c.73,0,.85-.48,1.19-.69V74.39l-.68-.78c-.42.1-.84-.16-1.2.22v5.41Z"/><path d="M18.32,20.52c-.26-.37-.69-.52-.77-.95,0-.09,0-.21,0-.25l1.66-1.76h2l.51.47h.47c.18.66.9,1.16.71,1.88A10.66,10.66,0,0,1,22,21.76l.79.8.27.79,1.27-.66-.46-.53c0-1.42,0-2.88,0-4.34,0-.06.09-.12.14-.18a1.47,1.47,0,0,1,1.53.29c.28.25.92.1,1.4.13l.56-.48a1.83,1.83,0,0,1,1.13.09l.15.58-1.43,1.23c-.73-.12-1.33.46-2,.75v.49c.05.05.11.15.17.16L28,21l.63.58L28.91,23c.14-.11.25-.16.25-.2.05-1,.09-1.92.13-2.79l2.4-2.4h1.17c.37.5,1.15.37,1.53.95s.35,1.18,1,1.43l.82-1.75,1.25-.64h1.29l.5.47h.48L41,19.25v.95l.49.53v2.92l-.43.43c0,.29-.06.68-.09,1.06l-1.61,1.61H37.24c-.32-.52-1-.73-1.18-1.45a6.86,6.86,0,0,0-.7-1.41c-1,.69-.94,2.12-1.93,2.89H30.87l-1.18-1.5c0,.12-.06-.16-.14-.41H29l-.31.88-.65.13-.89.9h-2l-1.92-1.92L21.22,26.8H18.76l-1.69-1.75v-.93l.7-.69A2.45,2.45,0,0,1,19,23.5l.1,1.65c.33.4.78.06,1.15.25l.73-.85v-1.4l-.61-.65-1.2-.14L19,21.72l1.33-.78a3.47,3.47,0,0,0,.11-1.8l-.6-.16c-.6.34-.15.93-.42,1.36S18.65,20.32,18.32,20.52ZM38.74,19c-1.3-.09-1,1.29-1.67,1.74v2.88l.47.52c.09.41-.17.84.21,1.16l.35,0,1.35-1.16V20.37Zm-5.62.62c-.38-.13-.47-.67-1-.62-.38,0-.51.49-.86.72,0,1.74,0,3.49,0,5.25,0,.13.16.25.25.37h1l.69-.7Zm-5.81,4.5V22.66l-1-1-1.59,1.07.65,1,.08,1.55.67.08Z"/><path d="M21.46,60.52a8.8,8.8,0,0,0,.87-.63l.92.53.33-.91,1.12,0,.68.86v1.45l.69.2,1.21-1.36V59.17L26,58.07l-.44.82c-1,.23-1.25-.28-1.59-.57v-4c.12-.08.19-.16.25-.16h4.42l.2.71L27.4,56.11h-2l.12,1,.63-.57.89.9,1.1.13.87.87c.29-.12.29-.12.3-2,.35-.5.39-1.19.91-1.57s.92-.52,1.41-.8h1.66l.39.23c.84.53,1,1.62,1.76,2.23l.84-1.86,1.32-.56h1.5l1.71,1.72c.39.33-.16,1.08.66,1.28v2.55l-.45.51v1.39a5,5,0,0,1-2.45,1.77H37.35a5.81,5.81,0,0,1-1.92-2.86,1.29,1.29,0,0,0-.87,1.21c-.51.52-1,1-1.6,1.6h-1.6l-.43-.84-.88-.08c-.57-.08,0-1.06-.77-1-.08,0-.2,0-.24,0-.62.63-1.24,1.27-1.85,1.91H25.13c-1-.42-1.09-1.76-2.09-2.47l-.23,1.47H17.25c-.06,0-.11-.11-.21-.2L19,60.28c.09-1,1.05-1.34,1.54-2.09a2.12,2.12,0,0,1,.46-.94V55.73a3.21,3.21,0,0,0-1.92,0v1.58c-.14.14-.19.24-.25.25a.93.93,0,0,1-.85-.31,3,3,0,0,0-.94-.36c.25-.59.46-1.14.72-1.66s1.13-.51,1.53-1.06h2.5l1.15,1.31v2.32l-.45.51v1l-1,.46v.82a2.35,2.35,0,0,0-1.46.13l.08.74a1.94,1.94,0,0,0,1.38-.23Zm16.84,1.4,1.14-1.25V57.06c-.29-.69-.43-1-.58-1.38-.45-.09-.92-.29-1.31.14v1l-.48.51v2.91l.38.42c.21.5-.09.95.31,1.26Zm-5.14-.73V56.31l-.7-.69a1.73,1.73,0,0,0-1.19.12v4.82L32.4,62Z"/><path d="M36.81,117.51l-1.2-1.21c-.11-.37.15-.8-.17-1.15-.39.1-.58.43-.84.73v.92l-.71.71H31l-1.21-1.23v-.57l-.87-.19c-.05.33,0,.62-.13.76a15.34,15.34,0,0,1-1.2,1.22H24.61l-.67-.71c-.09-.48.1-1.11-.52-1.45v-4.4l.47-.51v-1l.72-.71h.9l.73-.54c2.11,1.1,2.11,1.1,2.65,2.29l1.42-1.42,1.7-.71.42.32h1.38l.74.68.12,1.07.68.74a20.27,20.27,0,0,1,1.06-2c.41-.59,1.18-.64,1.78-1l.58.52h1l.28.82.88.88v.94l.51.55v2.41l-.34.36c-.34.51,0,1.09-.23,1.68l-1.14,1.15Zm1.48-.86c.32-.16.7-.29.69-.36-.07-.48.26-.72.52-1v-4.36l-1.09-1.08-.86.52c0,.67.1,1.19-.44,1.48v2.54l.42.41v1Zm-11-6.21c-.37-.28-.57-.82-1.14-.74l-.77.61v5.6c.38.16.49.69,1,.62s.59-.5.91-.73Zm5.12,6.09.67-1.31v-4.35c-.4-.41-.74-.75-1.09-1.09,0,0-.11,0-.18,0l-.6.63v5.38l.71.71Z"/><path d="M32.39,99.91l-.9-.89h-1l-.72-1v-.9L29.09,97c-.51.3-.23.75-.43,1.38l-1,.61h-.61l-1,1c-.2-.2-.42-.39-.6-.6a1.07,1.07,0,0,0-.82-.4c-.19,0-.36-.29-.53-.46l-.69-.69a3.27,3.27,0,0,1,.1-1.69h1.62c.47.53-.08,1.26.34,1.8l.59.12,1.21-1.32V95.8l-1.4-1.22c-.55.08-1.08.81-1.86.4,0,0-.15-.09-.15-.15,0-1.29,0-2.59,0-3.89.3-.41.73-.24,1.11-.24,1.2,0,2.41,0,3.7,0-.06.61-.56.78-.81,1.11s-.53.61-.7.81c-.71.11-1.29-.18-1.86.28.74.49,1.56.06,2.09.23l1.26,1.12.26.89c.6-.69.1-1.44.6-2.53A4,4,0,0,1,31,90.74h2.82l.77.66v1l.7.7c.46-.27.19-.71.32-1.32l1.45-1.05H39l1.93,2s0,.37.09.74l.39.39v2.46l-.43.51v1.4l-.67.72L39.2,99l-.9.9-1-1h-1l-.84-1.87a1.4,1.4,0,0,0-.84.93,3.81,3.81,0,0,1-.69.93C33.13,98.84,32.94,99.67,32.39,99.91Zm5.87-1.44c.74-.44.69-1.3,1.23-1.74V92.88l-1.24-1.25-.71.15v1.6l-.43.43v2l.5.67v1.35Zm-5.14-6.18c-.38-.14-.47-.68-.67-.66-.76.08-.9.53-1.23.75V97.3l1,1,.86-.42Z"/><path d="M41.45,130v2.42l-.5.53v.95l-1.57,1.57c-.44.25-.92.1-1.39.12s-.8,0-1.13,0l-1.25-1.19c-.07-.43.11-.85-.2-1.26l-.71.65-.12,1-.66.75H31.13l-1.37-.7v-.93a.58.58,0,0,0-.82-.24c-.34.34-.08.77-.17,1.15l-1.38.71H24.57L23.44,134v-1.15l.62-.68h1.12c.34.33.11.76.18,1.14s-.15.8.13,1.15l.65.13,1.11-1.54v-1.26L26,130.75l-.85.85H24.08c-.09-.11-.18-.17-.18-.23,0-1.46,0-2.92,0-4.35.33-.43.78-.15,1.14-.28l.58.51h1.44l.51-.48h1l.22.58a4.86,4.86,0,0,1-3.5,2.05c.15.15.2.25.26.25.65,0,1.29,0,1.89,0a4.32,4.32,0,0,1,1.57,2c.09-.09.2-.15.2-.21,0-1,0-1.93,0-2.89a4,4,0,0,0,1.14-.73c.42-.54,1.17-.46,1.57-1,.09-.12.46,0,.69,0,.51,0,.69.71,1.26.49.24.31.63.58.7.92s.46.63.67.95c.62,0,.18-.62.5-.86s.36-.64.54-1h1l.54-.5c.67-.21,1.18.2,1.73.48L41,128v1.45Zm-3-2.09-.9.54-.06,1.09-.4.4v2.54l.4.4.09,1.6.64.19c.38-.41.85-.82,1.26-1.3v-3.84C39,129,39,128.12,38.47,127.86Zm-5.31,6v-4.37l-.48-.52c-.09-.39.16-.82-.18-1.13l-1.24,1.07V134c.38.16.49.68,1,.61S32.85,134.07,33.16,133.84Z"/><path d="M36.28,0h3.46L41,1.21v.48l.48.51V5.12L41,5.54l-.11,1.08-1.6,1.6H36.88l-1.3-1.15v-1a.62.62,0,0,0-.91,0l-.08,1.53-.68.74H31L29.79,7.11l-.16-.81-.87.17v.6L27.55,8.28H24.64C23.92,8,24,7.05,23.42,6.59V1.74C24,1.32,23.86.4,24.63,0H28c.58.24.68.91,1,1.45L30.37,0h3.56c.71.46.66,1.46,1.46,1.91Zm1.27,5.61c0,.48,0,1,0,1.45,0,.05.12.1.19.17l.25,0,1.48-1.11v-4l-.38-.38L38.86.48h-.58c-.72.35-.65,1.24-1.21,1.7V5.1Zm-10.24,1V1.16c-.4-.17-.53-.79-1.07-.69l-.85.65V5.9l1.15,1.43Zm3.93-.12.66.85L33.16,6.1V1.86L32.46.52,32,.48l-.75.61Z"/><path d="M135.07,160.17l.48.5v2l-.42.42v1.46l-1.71,1.72h-2.55c-.7-.36-.59-1.27-1.18-1.73v-3.92l-.61-.18c-.55.27-.25.73-.49,1.39l-2.3,2.3c.09.08.14.18.21.19l1,.07.48-1a2.63,2.63,0,0,1,1.25.14l-.51.65v1.93c-.14.11-.21.19-.27.19H124.1l-.71-.71c-.17-.61.31-.88.66-1.16s.21-.9.66-1.21a8.33,8.33,0,0,0,1.05-1c.34-.35.69-.68,1-1v-1l.45-.49-1.16-1.22h-.52c-.55.52,0,1.25-.34,1.81-.53.29-1.09,0-1.55.15-.41-.3-.26-.64-.29-.95s0-.48,0-.77l1.81-1.7h2.37l1.16,1.27v.86l.67.71c.11-.06.31-.13.31-.19,0-.71.81-1.19.52-2l1.37-.7h1.8c.54.57,1.11,1.15,1.69,1.75Zm-1.46-.32-.7-1.34a1.73,1.73,0,0,0-1.25.16,3.07,3.07,0,0,1,0,.85,2.85,2.85,0,0,1-.43.71v2.42l.65,2.14h1l.71-1.37Z"/><path d="M246.22,162.81c0-1.17,0-2.38,0-3.53l2.18-2.26h1.94l1.25,1.2v1l.35.35a1.73,1.73,0,0,1,.12.43c0,1.21,0,2.42,0,3.5-.65.92-.56,2-1.24,2.79H248c-.86-.68-1-2-2.11-2.44-.61,0-.64.32-.53.82l.88.31v1.12c-.07.07-.13.17-.18.17h-3.41c-.29-.39-1-.58-.59-1.41l1.1-.08c.27-.25.29-.53,0-.91h-2.5c-.44-.59-.16-1.17-.25-1.75.89-.45.9-1.63,1.71-2.16s.71-1.81,1.71-2.12v-.63l.64-.25.79.73v4.44c.39.28.56.7,1,.69.08.29.05.67.47.34A2,2,0,0,0,246.22,162.81Zm2-3.62v4.9l1.3.64.61-.61v-5c-.36-.24-.5-.72-1.15-.66C248.7,158.57,248.5,159,248.2,159.19ZM243.67,161c-.06,0-.14-.06-.16,0-.4.36-.8.74-1.49,1.4.82-.15,1.31.27,1.79-.25C243.74,161.76,244,161.35,243.67,161Z"/><path d="M300.85,159.45l.1.94h2.57l1,1,.7-.65c0-.51.08-1.06.12-1.6.68-.32.26-1,.52-1.49A2.78,2.78,0,0,0,307,157h1.21l1.4.75v.47l.87.87c0,.07.11.15.09.2-.37,1.08.75,1.91.5,3a1.19,1.19,0,0,0,0,.28l-.46.56v1.42l-1.86,1.73H306.5c-.73-.3-.65-1.21-1.23-1.67V162.7c-.25-.3-.44-.64-.84-.74-.29.45-.11.94-.15,1.41s0,.8,0,1.2c-.58.46-.51,1.36-1.23,1.7h-2.38l-1.75-1.69v-1.49l.93-.92-.41-.53v-4l.66-.62c.88.12,1.62,1.1,2.41.07h1.6a1.9,1.9,0,0,1,.12,1.26C303.13,158.54,302.32,159.57,300.85,159.45Zm8.3,4.13v-3.72c-.27-.53-.47-.93-.69-1.34h-1.29a1.78,1.78,0,0,1-.43,1.72v3.38c.57.45.48,1.35,1.23,1.64C308.66,164.93,308.6,164,309.15,163.58Zm-8.29-1c0,.64,0,1.29,0,1.94,0,.06.11.12.19.2h1.09l.68-1.52a3.86,3.86,0,0,1-.49-.75c-.11-.36.15-.81-.38-1.16l-1.58.76Z"/><path d="M2.44,73.86v-1l1.21-1.21H5.6l.55.5.2-.59c-.29-.85-1.21-.76-1.65-1.31-1.29-.19-1.62-1.35-2.18-2.23A1.16,1.16,0,0,1,2.59,67c.32-.32.25-.74.53-1.13h2c.23.49.3,1,.71,1.29v1.41a1.24,1.24,0,0,0,1.39.07V66.9l-.73-.15c-.39-.35-.18-.82-.1-1.27.36-.28.77-.1,1.15-.12.72.34.64,1.24,1.19,1.69v2.43L7.39,70.87c.18.71.94.65,1.37,1,0,.71,0,1.42,0,2.17H5.56l-.38-.39H3.57c-.12.24-.12.24,1.12,1.42H5.6l.55.47H7.56l1.21,1.37,0,.49a11.31,11.31,0,0,1-2.11.1L6.08,77H3.39A4.58,4.58,0,0,0,5.76,79H7l.56.5h.93c.52.38.25.86.21,1.31-.06.06-.12.16-.18.16H6.11l-.57-.53-.69.21.54.6c-.68.38-1.42.12-2.17.22l-.72-.67V79.24l.41-.55c.43-.78-.77-1.42-.45-2.36l.45-.52V74.36Zm1.68-5.51a1.37,1.37,0,0,0,0-1.58l-.54.54Z"/><path d="M319.88,163.34a5.58,5.58,0,0,0-.58.35c-.55.44-.54,1.26-1.17,1.69a9.93,9.93,0,0,0-1.4,1.36l-.66-.61a10.29,10.29,0,0,1,.5-1.17c.27-.45.83-.65.92-1.32.05-.38.6-.7.93-1v-1.2c.33,0,.5-.15.42-.46.31-.08.68,0,.35-.47a5.75,5.75,0,0,0-.35.47c-.27,0-.43.13-.42.46-.41-.07-.49.38-.76.48h-1.43c-.76-.35-.65-1.27-1.22-1.71v-3a3.15,3.15,0,0,0,.83-.3,7.51,7.51,0,0,0,.85-.84c.53-.19.72.28,1.07.49h.92l.39.4,1.11.13.34.34a11.39,11.39,0,0,0,1.18-.52c.4-.24.57-.79,1.13-.86s.55.55.89.64a.79.79,0,0,1-.24.91,2,2,0,0,0-.26.68c-.48.22-1.27.4-1.34,1s-.9.9-1,1.61l.25.52.45-.45h2l.53.53c.05.06.13.12.14.19a3.85,3.85,0,0,1,0,.48V166l-.72.72h-2l-.68-.75v-1l-1-.67v-1a1.4,1.4,0,0,0,1-1l-.26-.51-.74.73Zm2.09-.87c-.05.06-.13.12-.13.18,0,.8,0,1.6,0,2.39,0,.06.1.12.18.21.68.27.89-.4,1.27-.72V163.1l-.23.23-.46-1Zm-5.5-2.78c.41.27.59,1,1.36.61a5.51,5.51,0,0,0,.09-1.82,1.18,1.18,0,0,0-.14-.41l-.53-.52-.78.64Zm3.06.14c.06,0,.14,0,.17,0l1.48-1.4c-.82.15-1.31-.28-1.79.25C319.47,159.08,319.25,159.49,319.53,159.83Z"/><path d="M147,156c.75.08.89.53,1.3.8l-.72,1.56c-.26.21-1,.18-1.16.74-.16.76-.84,1.1-1.14,1.69.34.8.35.81,1.21.17h1.62l.62.92v1.21l.55.63-.55,1.06V166l-.72.71a16.36,16.36,0,0,1-2,0l-.78-.78v-4c-.86.11-.77.89-1.12,1.32a5.19,5.19,0,0,0-.9,1.33c-.22.56-.87.94-1.33,1.4v.6l-.78.15a3.45,3.45,0,0,1-.18-1.74c.89-.68,1.18-1.81,1.92-2.61,0-.06-.07-.28-.13-.48h-1.17l-2.05-2.06v-2.67l2.23-1.09a1.22,1.22,0,0,0,1,.42c.43.05.83.39,1.26.44s.78.09,1,.46C145.67,156.94,146.6,156.82,147,156Zm-.62,6.49a5.08,5.08,0,0,0-.09,1.83c0,.29-.15.63.14.88.73.36.91-.36,1.31-.66V163C147.31,162.9,147.18,162.05,146.39,162.49Zm-4.77-5c-.27.37-.26.85-.6,1.21-.19.21-.08.72-.1,1l.71.79a2.88,2.88,0,0,0,.52,0c.06,0,.11-.1.2-.19v-2Zm2.47,2.48c.39-.43.84-.79,1.2-1.26a1,1,0,0,0-1.48.08C144,159.09,143.66,159.51,144.09,159.94Zm-.49,1.49c.32-.44.46-.75-.07-1C143.27,160.76,143.29,161,143.6,161.43Z"/><path d="M86.31,162.37c-.7.13-.92.85-1.45,1.2v1c-.89.44-.9,1.59-1.7,2.16-.37,0-.77.15-1.24-.18,0-.23-.11-.6,0-.83.29-.53.38-1.18.89-1.57a4.81,4.81,0,0,0,1.46-2.24c.31-.08.69,0,.36-.47a2.86,2.86,0,0,0-.36.47c-.5,0-1.07,0-1.64,0a8.84,8.84,0,0,1-.68-.69c-.2-.24-.51-.36-.56-.75a2.8,2.8,0,0,0-.46-.86v-1.85a1.48,1.48,0,0,0,.35-.36c.14-.26.21-.77.36-.79.44-.05.68-.38,1-.51a1.3,1.3,0,0,1,1.15.12c.76.48,1.59.86,2.41,1.29a4.7,4.7,0,0,0,2.32-1.5,1.47,1.47,0,0,1,1.17,1,1.39,1.39,0,0,1-.14.42c-.42.57-1.17.88-1.32,1.65s-1,.77-1,1.55c0,.37-.58.72-.92,1.09Zm-2-3.64c-.41-.28-.43-.76-.68-1.25l-.76.15c0,.91,0,1.7,0,2.5,0,.06.09.12.21.28l.73-.1.06-1.14C84.12,159,84.23,158.84,84.34,158.73Zm.79,2.21c.14-.43.67-.46.7-1s.72-.75,1-1.28a2.94,2.94,0,0,0-1.78-.1,2.48,2.48,0,0,0-.14,1.39C84.85,160.22,84.71,160.56,85.13,160.94Z"/><path d="M259.83,161.91c-.5,0-1.06,0-1.63,0-.23-.23-.48-.44-.69-.69s-.5-.36-.55-.75a3,3,0,0,0-.46-.86v-1.85a1.64,1.64,0,0,0,.34-.36c.14-.26.22-.77.36-.79.44-.05.68-.38,1-.51a1.28,1.28,0,0,1,1.14.12c.76.48,1.59.86,2.43,1.3a14,14,0,0,0,1.4-.62c.4-.22.57-.78,1.1-.84a.87.87,0,0,1,.83,1.35c-.42.57-1.16.88-1.31,1.65s-1,.77-1,1.55c0,.37-.59.72-.93,1.09v.7c-.69.14-.89.87-1.45,1.13v1.06c-.88.46-.91,1.6-1.69,2.17-.38,0-.77.15-1.25-.18,0-.23-.1-.6,0-.83.29-.53.37-1.18.88-1.57a4.81,4.81,0,0,0,1.46-2.24c.32-.08.69,0,.36-.47A4.66,4.66,0,0,0,259.83,161.91Zm-.66-1.49c.32-.22.19-.56.26-.85a4.51,4.51,0,0,1,.34-.87l-.64-1.25-.61.17c0,.92,0,1.78,0,2.64,0,.05.11.1.16.16Zm1.33.41c.46,0,.57-.47.87-.66-.11-.68.49-.91.83-1.3.13-.16.16-.23-.07-.36h-1.79C260.51,159.3,260.23,160.05,260.5,160.83Z"/><path d="M203.83,161.39c-.48,0-.35.44-.52.6-.73.72-1,1.78-1.78,2.43-.24,1.11-1.26,1.57-1.82,2.34l-.55,0c-.38-.32-.13-.75-.21-1.12.25-.49.92-.68,1-1.3s.9-.8,1-1.53c.09-.46.64-.88,1.05-1.24s.39-1.16,1-1.56c.38-.25.52-.86.77-1.32-.32-.38-.76-.05-1.16-.25-.22.77-.91,1.3-.68,2.3l-1.64,1.14h-1.14l-.54-.55c-.05-.06-.14-.12-.14-.18,0-1.29,0-2.58,0-3.86l1.22-1.22h.82l2.77,1.48c.76-.39,1.69-.61,2.21-1.5l.74.11v1.59c-.46,1.07-1.48,2-1.91,3.2A.4.4,0,0,0,203.83,161.39Zm-3-3.9h-.69l-.68.69c.11.34.63.51.43,1l-.48.5.74.74.68-.61Z"/><path d="M76.07,159.19l.48.51v3.88l-.48.53V165c-.25.52-.83.85-1.23,1.32H72.36l-1.65-2.33v-4.66L72.89,157h2l1.22,1.21Zm-3.41,5.37c.38.44.85.23,1.15.18l.8-.62v-4.91c-.36-.26-.53-.83-1.33-.71l-.62.67Z"/><path d="M187.73,159.44c.14-.05.39-.09.4-.17.26-1.36,1.49-1.67,2.45-2.24a.9.9,0,0,1,.88.1c.4.64,1.08.15,1.58.53,0,.18,0,.41.06.64s0,.31.05.46.23.23.39.39V164c-.17.33-.37.74-.65,1.28l-1,1h-1.75l-1.71-1.71c-.37-.11-.07-.73-.74-.68Zm2,4.59.66.76c.39,0,.71,0,1,0,.06,0,.12-.11.21-.2v-5.43c-.36-.22-.48-.7-1.21-.69-.19,0-.36.45-.68.68Z"/><path d="M187.73,163.83v.71l-1.7,1.73H183.1c-.71-.34-.64-1.24-1.21-1.7v-1.23l.7-1.08a4.13,4.13,0,0,1,1.82,1.5l-.47.77c.5.27.5.27,1.64.24,0-.06.16-.11.16-.17,0-.64,0-1.29,0-1.95a4.51,4.51,0,0,0-2.31-.85l-.13-.7.71-.25,1.69-1.78-.75-.6-.47.07c-.34.34-.08.77-.17,1.15-.55.58-1.2,0-1.74.28a3.45,3.45,0,0,1-.19-1.76l1.2-1.2h1.84c.86.53,1.82.81,2.3,2.06v.37a5.66,5.66,0,0,0-1,1.6c-.18.57.36.81.45,1.09.05.61.07,1.07.14,1.53C187.36,163.74,187.6,163.78,187.73,163.83Z"/><path d="M37.34,144.81h1.21a5.19,5.19,0,0,1,2.43,1.8v.9l.41.42v3c-.53.29-.42.81-.43,1.14-.63.63-1.19,1.2-1.94,1.94H36.81l-.68-.62-.08-1.06-.43-.5V147l.4-.39.12-1.11C36.56,145.26,37.06,145.24,37.34,144.81Zm1.39,1.45c-1.23,0-1,1.28-1.66,1.76v2.91c.51.3.49.78.49,1.27,0,.13.13.26.21.4h1l.64-.76v-4.2Z"/><path d="M178,180.16l.43-.41v-1.93l.53-.6c.1-.42-.17-.62-.36-.87s-.06-.43-.08-.6.16-.21.22-.21h1.95a1.06,1.06,0,0,1,.11,1.32c-.13.27-.44.45-.34.85s.68.18,1.32.41l1.08,1.25v2.1l-1.17,2.3a1.37,1.37,0,0,0-.53.1,2.51,2.51,0,0,0-.52.45h-1.24l-1.4-.73Zm2.44,2.64v-1.16l.49-.53c-.09-.55.21-1.13-.24-1.69l-.71.63-.06,1.09c-.35.57-1.28.74-.78,1.66Z"/><path d="M22.92,5.57v.54l-1.07.5,1,.35V8.11c-.31.33-.74.13-1.12.16a6.28,6.28,0,0,1-1,0,2.68,2.68,0,0,1-1.21-.12V7c.1-.49.87.13.84-.54-.44-.3-.93-.12-1.39-.15s-.81,0-1.21,0L17,5.55l.8-1.78c.2-.32,1.17-.65,1.26-1.65A6,6,0,0,0,20.49,0h1.27a1.72,1.72,0,0,1,.18.43c0,1.53,0,3.07,0,4.65Zm-2.68-.22a4.55,4.55,0,0,0,0-2.9c-.55.61-.54,1.52-1.15,2.12a.51.51,0,0,0,.18.78Z"/><path d="M65.28,164.79h1.79c.48-.53.14-.8-.21-1.14v-3.48a3.52,3.52,0,0,0,.42-.61c0-.12,0-.3-.07-.45-.52-.3-1.1-.08-1.7-.18l-.21-.63a7,7,0,0,1,1.37-.78c.43-.14,1,.11,1.34-.56l1.19,1.57v5.09c-.07.25-.78.48-.28,1.13l1.1.1c.37.33.12.76.2,1.14-.12.09-.23.27-.35.27-1.45,0-2.9,0-4.29,0C65.17,165.86,65.43,165.43,65.28,164.79Z"/><path d="M18.29,117.51l-.72-.72.64-.68,1.12-.12c.06-.16.17-.29.17-.43,0-1.54,0-3.08,0-4.61-.06-.06-.1-.17-.16-.18l-1.63-.15c-.06-.16-.11-.3-.17-.44.15-1,1.23-.84,1.7-1.44.71,0,1.41,0,2.19,0v7.18l.81.19c.46.31,0,.82.2,1.15-.16.15-.22.25-.27.25Z"/><path d="M19.33,92.22l-.71.42c-.53.07-.64-.45-1-.6.13-.91,1.12-.7,1.55-1.29h2.07c.06.12.19.25.19.39,0,2.24,0,4.49,0,6.69l1,.35-.1.75H17.69l-.16-.6c.28-.52.73-.26,1.37-.38l.61-.94c0-1.38,0-3,0-4.61C19.5,92.34,19.39,92.28,19.33,92.22Z"/><path d="M3.9,85.79V87c.44.5,1.33-.08,1.65.68a3.46,3.46,0,0,0,1.66-.08c0-.53-.63-.62-.78-1.06s-.16-.59.36-.82l2,1.09a19.32,19.32,0,0,1,0,2.15l-1.36.7H6.11l-.35-.32c-.5-.36-1.09,0-1.65-.23l-.34,1-.6.08c-.43-.35-.13-.8-.32-1.23,0,0-.13-.19-.26-.22-.37-.09-.74,0-1.13-.22S.33,88,0,87.45c0-.15,0-.31.05-.46s.11-.17.17-.17h2.5L3,85.87Z"/><path d="M6.34,82.89v-.73c.9-.86,1.51.32,2.3.34a3.86,3.86,0,0,1,.13,1.62L7.59,85.29c-.49.17-.75-.15-1-.45H5.55q-.13.39-.27.81a1.45,1.45,0,0,1-.42.16c-.32,0-.64,0-1,0,.05-.66-.56-.37-.82-.58-.14-.73-1-1.27-.53-2.21l.61-.62H4.62l.51.49H6.34c.29.5.29.5.93.28C7.09,82.65,6.65,83,6.34,82.89Z"/><path d="M261.85,162.37c.08,0,.2,0,.24,0l1.48-1.45h.81c1,.45,1.29,1.47,1.86,2.27v1.19a4.82,4.82,0,0,1-1.86,2.39h-.64c-.48-.12-.7-.58-1.06-.88s-.59-.53-.83-.75Zm2.2,0-.69.69c0,.55-.16,1.1.27,1.45l.36.86.77-.81v-1.48Z"/><path d="M86.31,162.37c.08,0,.19,0,.24,0,.51-.49,1-1,1.48-1.45h.81c1,.45,1.29,1.47,1.86,2.27v1.19a4.87,4.87,0,0,1-1.86,2.39h-.66c-.78-.38-1.19-1.21-1.87-1.65Zm2.91.76c-.24-.24-.41-.6-.82-.67l-.6.64v1.42l.69.79.73-.73Z"/><path d="M204.31,160.91H206l1.19,1.24v3.25l-.64,1.27a.26.26,0,0,1-.14.08h-1.88l-.73-.73v-.95l-.49-.52v-1.44c.16-.17.32-.35.49-.52v-1.21A.4.4,0,0,0,204.31,160.91Zm1,4.25.87.17a3.18,3.18,0,0,1,.12-.76c.13-.27.53-.37.47-.77l-.7-1.42-.59.05c-.08.11-.16.17-.17.24Z"/><path d="M0,83.17v-1C.37,81.7.84,82,1.29,82c.34.32.09.74.19,1.17l-.79.63C.39,83.75.32,83.27,0,83.17Z"/><path d="M277.43,136.53h1.74c.56.55,0,1.2.28,1.75l-1,.37.49.56c.09.52-.13,1.09.16,1.62.52,0,.27-.42.36-.67l1.4-1.4-.4-.51a3.27,3.27,0,0,1,.09-1.66h1.71c.07.42.14.86.2,1.31.58,0,.28-.45.41-.64a5,5,0,0,1,.68-.7,2.48,2.48,0,0,1,1.2.07v1.73l-.74.17-.29.69.77.68,1.3-1.17v-2c.59-.5,1.22,0,1.88-.29v4.76c-.6.38-.46.94-.35,1.49.11.21.17.12.35,0,.59-.37.41-1.21,1-1.54v-3.92a2.67,2.67,0,0,1,1.88-.15c.17.92,0,1.88.11,2.86.67-.26.4-.71.44-1a11.29,11.29,0,0,0,0-1.16l.73-.73h1a10.46,10.46,0,0,0,.51,1,4.07,4.07,0,0,0,.58.53l.22-1.48h1.66c.39.37,0,.81.33,1.32l.72.11.17-.81c.29-.37.74-.06,1.07-.21A1.74,1.74,0,0,1,299,139a2.18,2.18,0,0,0,1-1.44c.8-.49,1.4.49,2.11.39a3.26,3.26,0,0,0,.16-1.72l-.41-.48.65-.72H304c.48.49.14,1.08.24,1.64l-.46.54.46.51v1.51l-.95.32-.05,1.09-.51.57.22.66.6-.53c.36.69.13,1.43.22,2.25l-1.39,1.12-.56-.9h-1.22l-.94.88L297.93,143a2.43,2.43,0,0,0-.05-.39c0-.07-.11-.11-.22-.23a1.93,1.93,0,0,1-.22.63c-.51.61-1.06,1.2-1.67,1.88l-1.2-1.59v-1.17l.39-.39v-2.15c-.55,0-.35.36-.45.57a3,3,0,0,1-.47.57v1.09l-1,.79v1.53c-.35.4-.78.15-1.17.23l-1-1-1.42,1.42-.52-.45h-1l-.6.47c-.23,0-.35,0-.39,0-.59-.56-1.16-1.12-1.7-1.65v-1.5l.45-.53-.7-.7h-.49c-.5.46-.15,1.07-.27,1.73-.26.26-.58.61-.94.92s-.57.7-1.14.81c-.4.07-.72.59-1,.85L279,143.62c-.1-.38.09-.8-.14-1.16-.59,0-.25.45-.41.65-.75.94-2,1-2.88,1.78-.67-.31-1-.9-1.47-1.3v-3.9l.43-.43v-1.92l.62-.72-.52-.94.74-.31c.35-.42.9-.3,1.45-.27l.69.69a6.11,6.11,0,0,1,0,.74c-.48.07-.7.47-1,.88l.22.59.73-.09C277.4,137.42,277.4,137,277.43,136.53ZM297,141.3l.77.58c.35-.33.1-.77.22-1.12a5.46,5.46,0,0,1,.6-1l-.86-.44-.73,1.26a2.33,2.33,0,0,0,.14.78c-.38.1-.76.07-.43.49A1,1,0,0,0,297,141.3Zm-16.54,2h.7l1.24-1.25c-.12-.81.08-1.69-.12-2.6-1.09.43-1.25,1.53-1.82,2.21Zm19.47-2.21c0,.52,0,1,0,1.47a.17.17,0,0,0,.09.1l1.36-1.22c0-.54,0-1.17,0-1.8,0-.06-.1-.12-.24-.25l-.71.16v1.11Zm-23.65-1.2c-.56.36,0,1.05-.48,1.48a.94.94,0,0,0,0,1.44h.49l.73-1.39c-.1-.49.26-1.08-.25-1.53Zm15,2.79.9-.54c0-.51-.05-.82-.06-1.11-.37-.24-.81-.15-1.09-.52s-.57-.18-.81.09c.05.39-.16.8.14,1.16l.71-.36Z"/><path d="M241.13,127.75c.63-.63,1.26-1.27,1.92-1.92H245a4.43,4.43,0,0,1,1.55,1.92c.29-.64.57-1.25.86-1.91h4.11l.16.75c.26.36.71.09,1.17.25l.82-1h2.59c.47.38.18.9.23,1.36a10.5,10.5,0,0,1,0,1.26L256,129l1.28.66c.35-.52,0-1.11.24-1.71l.42-.46V126l.42-.41V124l-.5-.5.93-.29-.25-.32h1.75a13.41,13.41,0,0,1,.07,2.11l-.49.53V127l-.37.36a3.73,3.73,0,0,0-.08,1.67l.94.34c0,.27.11.64,0,.88a5.06,5.06,0,0,1-1.67,2.26c-.4-.13-.66-.53-.95-.86a5.59,5.59,0,0,1-.56-1.07,3.4,3.4,0,0,1-.32.89,15,15,0,0,1-1.11,1.13c-.82,0-1-.64-1.45-1l-1,.94c-.52-.36-.69-1.21-1.5-.94a2.16,2.16,0,0,1-.19-.53c0-.89,0-1.78,0-2.66l-.71-.72h-1l-.65,2.13v1.44l-.69.75H247.4c-.37-.5-.1-1.09-.18-1.63l.49-.52v-1l-1.56-.76c-.44.25-.45.53-.29.94l.68.14c.46.42.1,1,.19,1.53l-1.83,1.74-.44-.82c-1.2-.18-1.38.67-2,.93-.8-.06-1-.92-1.56-1.17-.1-.5.15-.94-.35-1.34-.41.46-.76,1.12-1.29,1.36a5.52,5.52,0,0,0-1.53,1.1l-.49-.42c-.95.8.39,1.49.22,2.18-.16.13-.22.22-.29.22-.8,0-1.61,0-2.39,0l-.74-.73,1.36-1.29c.05-.22.09-.37.11-.52,0-.54-.19-1.15.42-1.53,0-.54.06-1.09.09-1.66l-.81-.17c-.36-.29-.11-.73-.19-1.13l.49-.53v-1c.12-.09.25-.25.37-.25,1.22,0,2.44,0,3.65,0A3.57,3.57,0,0,1,241.13,127.75Zm1.22,2.19c.09.38-.17.81.07,1.05l1.32-1c.14-.56,0-1,.31-1.31a1,1,0,0,0,0-1.45c-.6-.09-.82.43-1.18.71-.09.54.12,1.11-.15,1.63Zm-3.41-1,.52-.57c-.17-.34.16-.78-.23-1.1l-.4,0-.87.66a10.09,10.09,0,0,1,0,1.38c0,.2-.3.36-.38.56a1.62,1.62,0,0,0-.08.69,2.85,2.85,0,0,0,.2.63l1.26-1.24Zm15.19-1.55-.52.51-.12,1.1-1,1c.18.15.37.28.54.45a.58.58,0,0,0,1,0v-1c.31-.45,1-.62,1-1.54Zm-13.44,2.4c.22-1.2.2-1.2-.14-1.5A1.36,1.36,0,0,0,240.69,129.83Zm-4.51-1.66.32-.18c-.06,0-.12-.16-.16-.15a1.4,1.4,0,0,0-.33.15Zm11.85,0,.17-.18a1.4,1.4,0,0,0-.33-.15s-.1.1-.16.15ZM259,130l.17.18a1.21,1.21,0,0,0,.15-.33s-.09-.11-.15-.16Z"/><path d="M254.61,139.61a13.51,13.51,0,0,0,1-2c.86-.07.86-.07,2.09.45.23-.35.51-.74.7-1,.59,0,1-.15,1.4.16v1.67l-.73.15s-.11.06-.11.12c-.05.8-.08,1.6-.12,2.45a1.82,1.82,0,0,0-.45,1.49,3.17,3.17,0,0,1-.47.5c-.32.2-.68.33-1,.53s-.47.65-.91.72c-.65,0-.82-.71-1.3-.95l-.87.86c-.47-.13-.67-.59-1-.86l-.58,0a2.86,2.86,0,0,0-.26-.78c-.17-.26-.49-.43-.38-.93.07-.25.64-.39.41-1l-.75-.26-.42-.92c-.4.46-.19.88-.24,1.26a8.77,8.77,0,0,0,0,.89l-1.78,1.78s-.14,0-.2,0l-1.71.86c-.36-.1-.56-.56-.91-.83l-.51,0c-.45-.38-.28-1.24-1.06-1.39,0,0-.11.06-.12.12,0,.48,0,1-.07,1.51l-.65.77c-.91-.1-1.16-.79-1.72-1.18V140.3c0,.09.81-.1.25-.78l-.61-.12c-.35-.28-.1-.72-.18-1.13l.66-.7,1.1-.13c.79-.69-.49-.91-.3-1.43,0-.49.55-.59.68-.94H245c.57.44,0,1.08.3,1.5l-.55.85,1.37.14.2,1.31c.81-.12.74-.88,1.09-1.35h1l.51.46h1l.51-.47h1l.62.56,1-.52h1.39c.38.62,0,1.28.24,2.06-.15-.16-.26-.19-.31-.15-.52.42.06,1.29-.67,1.64,0,0-.06.14-.06.21,0,.24,0,.48,0,.72a1.92,1.92,0,0,0,0,.48c0,.13.17.22.34.43.09-.52.16-1,.23-1.39l.87-.86A1,1,0,0,1,254.61,139.61Zm-7.87,3.55.57.22c.88-.36.86-1.3,1.38-1.86-.09-.69.19-1.43-.2-2.06-.66-.11-.88.4-1.25.71v1l-.5.53Zm9.26-2.58c0,.76,0,1.39,0,2,0,.06.1.11.24.26l.73-.14v-1.11l.49-.42c-.06-.58.13-1.13-.14-1.65-.06,0-.15-.05-.17,0Zm-9.89-1.13c-.89,0-1.35,0-1.82,0a.4.4,0,0,0-.47.39,8,8,0,0,0,0,1.2c0,.13.16.25.27.41.33-.18.76.16,1.1-.18C245.38,140.71,245.06,140,246.11,139.45Z"/><path d="M287.21,117.51v-.7c.34-.37.83-.69.93-1.1a2,2,0,0,1,.62-1c.33-.35.68-.69,1.08-1.08h2.55c.34.44.14.93.18,1.4s0,.81,0,1.21c-.15.18-.31.35-.51.56l.87.31.31.85c.09-.06.2-.1.2-.14a10.86,10.86,0,0,1,.13-1.41c.1-.43.61-.71.48-1.27a3.25,3.25,0,0,1,0-.77l.46-.55v-1.93l-.43-.49c.74-.24,1.32-1.06,2.26-.65.05.07.14.13.14.19,0,.81,0,1.61,0,2.37L296,114l.71.17.56-.51h1q.35.36.69.69c0,.39.15.79-.16,1.23h-2.11l-.16.71.51.56c.08.54-.19,1.12.18,1.63.66-.25.11-.84.4-1.28l.58-.16.55.51c.42-.29.18-.73.22-1l2.92-2.91h1.24c.63.39.81,1.11,1.14,1.77l-.4.44v1c-.13.08-.26.23-.39.23-.8,0-1.6,0-2.31,0-.13.16-.22.22-.22.28,0,.49,0,1,0,1.43a.58.58,0,0,0,.86.11c.61-.46,1.43-.63,1.82-1.34l.53,0c.38.32.13.76.21,1.13-.11.1-.21.25-.34.29a4.75,4.75,0,0,0-2.32,1.46h-1.19L299.12,119c-.42-.1-.62.16-.86.38-.41.36-.68.89-1.24,1.07-1-.1-.88-1.21-1.47-1.67.11-.38.88-.61.28-1.18-.4.09-.58.43-.84.72v.92l-.7.71c-.5.18-.71-.26-1-.47h-1l-.88.87c-.48-.11-.67-.58-1-.86l-1,.94-.9-.9a9,9,0,0,1-1.1-.15c-.09,0-.12-.26-.18-.4.46,0,.5-.28.48-.61S287.86,117.51,287.21,117.51Zm14.49-1.9c.38-.1.76-.07.43-.5-.12.14-.23.27-.16.39-.37.11-.75.07-.42.5C301.66,115.87,301.78,115.73,301.7,115.61Zm-11.08,1.49c0-.48,0-1.13,0-1.78,0,0-.11-.11-.24-.26a6.59,6.59,0,0,1-.44.92,8.4,8.4,0,0,1-.78.8l.41.41c-.08.39-.73.65-.24,1.23l.58,0Z"/><path d="M262.12,132.6l-1.24-1.18v-2l.44-.44c0-.45.05-1,.08-1.54l.43-.43v-2l.58-.58-1.71-.73a11.79,11.79,0,0,0,1.25-.43,6,6,0,0,0,.66-.43h1.5c.32.41.13.81.16,1.18l-.47.52V126l-.48.65a5.75,5.75,0,0,0,0,1c.08.49-.46.63-.5,1s0,.62,0,1.11l.77-.46.49.38c.43-.47-.1-1.21.56-1.54.18-1,1.14-1.47,1.67-2.18.11-.06.18-.14.24-.14h1.88l1.21,1.45a2,2,0,0,1-.21.45c-.23.32-.52.6-.75.91a1.82,1.82,0,0,0-.12.56c-.67.11-1.39,0-2.1.05-.35.36-.33,1,.07,1.94.16,0,.37,0,.46,0,.53-.48,1-1,1.59-1.56l.83.58c.06-.08.21-.18.23-.3.09-.6-.26-1.31.43-1.77l.1-1.51.43-.51v-1.93l-.47-.53.78-.65h1.57a15.8,15.8,0,0,1,.11,2.11l-.45.46v1.36l-.5.65v1.6l.72.15a1.13,1.13,0,0,1,.2.36.79.79,0,0,1,0,.48,5.43,5.43,0,0,0-.46,1c-.11.75-.92.87-1.14,1.58-.58-.66-1.39-1-1.34-2a6.15,6.15,0,0,1-1.82.95c-.75.1-.84,1-1.53,1a1,1,0,0,1-.42-.15c-.59-.56-1.15-1.14-1.81-1.8Zm4.52-5.41.22,1.17c.35-.36.6-.6.93-1Zm4.65,2.58-.17.17a1.09,1.09,0,0,0,.33.15s.1-.09.16-.15Z"/><path d="M276.48,117v-2.2l1.24-1.2h1.42a2.72,2.72,0,0,1,1,1.44h.48l.8-1.4h4.12c.64.48.76,1.29,1.18,2l-.53,1a1.46,1.46,0,0,0,1,1V119c-.74.23-1.06.94-1.68,1.41a8.52,8.52,0,0,1-1.19-1.1v-2.56c.6-.38.46-.94.34-1.56l-.62-.11-.73.73v1.42l-.5.56V119l-.64,1c-.84.06-1-.47-1.39-.87l.51-1v-1.4a3.46,3.46,0,0,1-1.23-.65c-.08-.08-.42.07-.71.13l.52.6v1.91a2.44,2.44,0,0,1-1.31.89c-.41.12-.58.74-1.09.85a1.38,1.38,0,0,1-.43-.17c-.7-.65-1.39-1.32-2.1-2,.6-.39.82-1.11,1.52-1.24,0,.34.15.5.49.49v.74l.8.76.7-.7-.76-.8H277C277,117.17,276.82,117,276.48,117Zm5.19-1.39-.31.17c.05.06.12.16.16.15a1.21,1.21,0,0,0,.33-.15Z"/><path d="M261.12,141.4l-.76.77,1.3,1c.56-.4,1.47-.53,1.86-1.31.59-.1.84.1.77.63-.62,1.22-2.11,1.31-2.73,2.35-.31-.12-.49-.13-.59-.23-.53-.5-1-1-1.55-1.54v-2.94l1.44-1.4v-1.53c.6-.4,1.18-.16,1.78-.24l.31.9.67.11.33-.95.85-.06c.53.16.76.62,1.27,1l.66-1H268l.31.88.68.12c.1-.31.2-.59.3-.87.52-.3,1.09,0,1.59-.17.52.65.08,1.27.28,1.83l-.86.22-.33.9h-2.53c-.38.6-.15,1.18-.22,1.71l-.49.54v1.37l-1.2,1.27-.73-.72v-1.47l.47-.5v-.58l-.75-1.13c-.81,0-1,.67-1.44,1Zm.87-1.52c-.38.11-.76.07-.43.5.12-.13.23-.26.16-.39.38-.1.75-.07.42-.49C262,139.63,261.92,139.76,262,139.88Zm2.21-.85-.31,0c0,.21-.07.43-.08.64,0,.06.12.17.16.16s.3-.11.31-.17A3.61,3.61,0,0,0,264.2,139Z"/><path d="M302.39,105.85c.41-.32.82-.67,1.23-1l.48.06c.38.32,0,.77.18,1l-2.42,2.41-1.56-1.57c-.66.23-1,1-1.72,1.48-.46.17-.62-.37-1.09-.55l-.94.51-.87,0-1.11-1.49v-2.08l-1.05-1.17c.07-.24.07-.42.16-.52.55-.57,1.12-1.13,1.71-1.72l.67.45c.12.1.23.23.38.38V105a1.4,1.4,0,0,0-.3,1.71l.6,0c.4-.36.14-.8.22-1.18l.49-.53v-1.43l.51-.55v-.94l.71-.72.71.75v1.94c-.12.32-.91.53-.26,1.18l.48-.38c.09.06.25.13.28.23.09.37-.15.8.24,1.15l.7-.67v-2.42a1.8,1.8,0,0,1-.44-1.45l1.46-1V99.68a2.52,2.52,0,0,1,1.79-.14c.28.39.12.79.13,1.15l-.42.5c.32.53,1.24.69.8,1.63l-1.14.1c-.4.5-.1,1.09-.19,1.64l-.48.52a3.56,3.56,0,0,0,.06.77c-.31,0-.68,0-.35.4A4.36,4.36,0,0,1,302.39,105.85Zm-7.06-2.41-.32.17c.06,0,.12.16.16.15a1.4,1.4,0,0,0,.33-.15Z"/><path d="M302.39,130.23c.41-.32.82-.67,1.23-1l.47.06c.36.33.1.76.17,1.08l-2.39,2.38-1.55-1.56c-.69.18-1,1-1.68,1.43l-.92-.92-1.07,1c-.78,0-1-.72-1.31-.92l-.79-.21v-2.58l-1.1-.87a2.91,2.91,0,0,1,.28-.72c.48-.55,1-1.06,1.45-1.53h1.06c.08.14.22.27.22.4,0,1.05,0,2.11,0,3.2l-.45.52c0,.37-.16.77.14,1.18h.62c.39-.35,0-.79.33-1.31l.35-.38V128c.62-.35.44-1,.52-1.46l.68-.72.72.72v2c-.15.34-.9.57-.26,1.2l.49-.39c.71.25-.12,1.08.58,1.39l.64-.83v-2.28c-.26-.4-.77-.79-.38-1.47.31-.47,1.18-.29,1.39-1v-1a2.64,2.64,0,0,1,1.79-.13c.28.4.12.8.13,1.16l-.42.5c.36.5,1.14.74.87,1.61l-1.21.12c-.39.5-.1,1.08-.19,1.64l-.48.51a3.56,3.56,0,0,0,.06.77c-.31,0-.68,0-.35.4C302.15,130.5,302.26,130.36,302.39,130.23Zm-7.06-2.06.17-.18a1.4,1.4,0,0,0-.33-.15s-.1.1-.16.15Z"/><path d="M210.12,137.48v1.78l-.43.42.63.67.34-.18c.21-.08.43-.14.63-.24a1.53,1.53,0,0,0,.3-.27l-.4-.4v-1.57c.35-.36.78-.1,1.18-.19l.7.74v.95l-.44.49c.34.57.86,0,1.15.28.89-.77-.38-1-.21-1.51s.55-.58.68-.94h1.05a2.39,2.39,0,0,1,.16,1.76l-.39.39.43.51c.06.53,0,1.07,0,1.67h-1.67l-.76-.5-.79.49H210.8l-.38-1.08-.34,1c-.33.31-.75.1-1.14.14a8.11,8.11,0,0,1-1,0l-.5-1.07-.36,1h-1.53l-.72-.49-.83.5h-1.49a3.44,3.44,0,0,1-.12-1.74l.92-.33-.43-.56v-1.52c.4-.34.81-.12,1.19-.18l.71.71v1l-.47.5c.39.43.86.23,1.44.12l-.44-.65v-.94l.69-.73h1c.56.57,0,1.21.25,1.7l-.48.48.62.67,1.27-.6-.4-.54v-1.53C208.8,137.33,209.38,137.57,210.12,137.48Z"/><path d="M285.54,125.8h1.52l.93,1.43.9.06c.44-.44.94-1,1.47-1.47h2l.69.65v3.45c-.08.09-.32.24-.36.44a1.51,1.51,0,0,1-1.13,1.32,4.75,4.75,0,0,0-1.27.94c-.63,0-.78-.54-1.17-.79s-.91-.22-1.18-.67a4.42,4.42,0,0,0-2.46,1.51,8.76,8.76,0,0,1-1.53-.68,8.65,8.65,0,0,1-1.07-1v-2c.19-.49,1.08-.65.94-1.47Zm2.64,2.68c-.49-.53-.83-.17-1.15.18-.74-.17-.6-1-1-1.39-.9.68-1,1.89-1.68,2.69l1.2,1.2c.27-.57,1-.35,1.34-.85s1-.49,1.34-.86Zm2,.29c-.23.67-.94.8-1,1.65.37.15.46.83,1.19.74l.77-1.33c-.35-.72.47-1.11.5-1.93l-.75-.63-.72.71Z"/><path d="M290.11,108.25c-.51-.1-.69-.62-1.09-.86a9.8,9.8,0,0,0-1.26-.59c-.79.36-1.72.58-2.2,1.44h-1l-1.72-1.7v-1.92c.34-.38.83-.69.93-1.1a2.06,2.06,0,0,1,.62-1c.34-.35.69-.69,1.08-1.08h1.46c.48.26,1,.62.79,1.38H289l1.19-1.42h1.45l1.37.7v3.4c-.59.41-.4,1.56-1.17,1.64S290.87,108.18,290.11,108.25Zm-4.21-5.39c-.1.44-.7.48-.64,1s-.48.5-.46.77c0,.46-.32.66-.43.88l1.09,1.28c.25-.2.43-.46.62-.46a1.09,1.09,0,0,0,.8-.43,2.78,2.78,0,0,1,.52-.51c.25-.14.64,0,.78-.38-.07-.36.18-.79-.2-1.11l-.49,0-.58.54Zm5.72.68-.82-.59-.65.65v.83c-.24.61-.93.76-1,1.39.2.53.44,1,1.18,1l.77-1.31C290.78,104.76,291.54,104.35,291.62,103.54Z"/><path d="M202.41,105.16v-1.62c2.17-.23,12.64-.24,15,0v1.63C215.27,105.37,204.79,105.38,202.41,105.16Z"/><path d="M282.83,103.11l-1.16,1.16.66.84v1.43c-.59.79-1.72.84-2.19,1.7h-.77c-.08,0-.19,0-.23,0-.58-.56-1.14-1.14-1.66-1.65-.17-.72.5-.83.64-1.24.75-.07,1.05.39,1.29.91.09.19.16.39.23.54.69.1.87-.44,1.22-.74-.65-.82-1.88-.9-2.41-2.11v-1.33l1.32-1.15h1.79C282.29,101.69,282.19,102.62,282.83,103.11Zm-2.38.57.18.17a1.87,1.87,0,0,0,.15-.32s-.1-.11-.15-.16Z"/><path d="M277.29,130.47l1-.77c.6-.09.79.46,1.16.73V131l.64.24.73-.67c0-.12-.09-.23-.14-.34-.24-.49-.83-.4-1.17-.7s-.7-.68-1-1V127l1.22-1.22h1.94c.63.39.81,1.11,1.15,1.76l-1,1,.51,1V131c-.18.18-.32.41-.53.51a10.24,10.24,0,0,0-2.26,1.19Zm3.41-2.3.17-.18a1.4,1.4,0,0,0-.33-.15s-.1.1-.16.15Z"/><path d="M205,115.56l.52.47.41-.41h5.52a3,3,0,0,1,.05,1.83h-2.12l-.64-.52-.86.52H206l-.42-.41-.52.47h-2.4c-.06,0-.12-.1-.22-.19v-1.57c.46-.33,1-.14,1.42-.18S204.64,115.56,205,115.56Z"/><path d="M217.43,115.56v1.78c-.58.34-1.14,0-1.6.19l-.57-.48-.42.41H212.3c-.34-.56-.14-1.13-.17-1.67.06-.06.11-.16.17-.17.87-.13,1.74,0,2.49-.07l.48.48.51-.47Z"/><path d="M172.52,137.36l.35-.33h1a2.87,2.87,0,0,1,.08,1.88h-1.64l-.49-.4-.39.4h-1.12c-.31-.59-.05-1.15-.18-1.62.39-.45.82-.2,1.2-.28C171.69,137.2,171.84,137.74,172.52,137.36Z"/><path d="M273.11,129.7v-1.26c.1-.1.16-.2.22-.2,1,0,1.93,0,2.89,0a1.75,1.75,0,0,1,.18,1.3c-.06.05-.12.15-.18.15Z"/><path d="M164,138.86l-.15-.68,1.78-1.16H166c.55.55,0,1.19.26,1.68-.16.16-.21.23-.28.26a.59.59,0,0,1-.23,0C165.17,138.89,164.54,139.11,164,138.86Z"/><path d="M232.6,138.72l-.72.71h-.95l-.74-.59c-.11-.85.45-1,.74-1.32h1C232.11,137.87,232.6,138,232.6,138.72Z"/><path d="M307.69,138.72l.71-.71h1l.74.59c.1.85-.46,1-.75,1.32h-1C308.17,139.57,307.69,139.45,307.69,138.72Z"/><path d="M66.83,138.92H65c-.35-.54-.12-1.11-.19-1.68a2.57,2.57,0,0,1,1.79-.16C67,137.6,66.74,138.17,66.83,138.92Z"/><path d="M75.05,137v1.76c-.53.4-1.12,0-1.61.24-.12-.17-.27-.28-.28-.41a7,7,0,0,1,0-1.21.39.39,0,0,1,.48-.38C74,137,74.43,137,75.05,137Z"/><path d="M81.48,139V137.2c.53-.4,1.11,0,1.61-.24.12.17.27.29.28.42a6.87,6.87,0,0,1,0,1.2.39.39,0,0,1-.47.39C82.5,138.94,82.1,139,81.48,139Z"/><path d="M89.7,137.05h1.79c.35.56.12,1.12.19,1.69a2.64,2.64,0,0,1-1.79.16C89.56,138.37,89.78,137.8,89.7,137.05Z"/><path d="M100,138.92H98.2c-.36-.54-.12-1.11-.19-1.65.12-.08.24-.23.37-.25a8,8,0,0,1,1.2,0,.4.4,0,0,1,.39.48C99.94,137.9,100,138.3,100,138.92Z"/><path d="M100.92,137.06h1.79c.34.55.12,1.12.18,1.68a2.57,2.57,0,0,1-1.79.16C100.78,138.36,101,137.8,100.92,137.06Z"/><path d="M106.28,137.06h1.79c.34.55.12,1.12.18,1.68a2.55,2.55,0,0,1-1.78.16C106.14,138.36,106.36,137.8,106.28,137.06Z"/><path d="M111.14,137v1.76c-.55.39-1.13,0-1.62.24-.61-.59-.09-1.24-.32-1.74.17-.15.22-.25.28-.25Z"/><path d="M113.37,137c.23.32.66.48.74.92s-.47.61-.63,1l-1.13,0-.72-1c0-.37.49-.56.77-.93Z"/><path d="M116.5,137v1.79c-.56.34-1.13.12-1.69.19a2.63,2.63,0,0,1-.15-1.79C115.19,136.85,115.76,137.07,116.5,137Z"/><path d="M117.49,137.05h1.79c.35.55.12,1.12.19,1.68a2.5,2.5,0,0,1-1.78.17C117.35,138.38,117.58,137.81,117.49,137.05Z"/><path d="M124.79,137v1.76c-.55.39-1.13,0-1.62.24-.61-.59-.09-1.24-.31-1.74.16-.15.22-.25.28-.25Z"/><path d="M125.78,137.05h1.79c.35.55.12,1.12.19,1.68a2.5,2.5,0,0,1-1.78.17C125.64,138.38,125.87,137.81,125.78,137.05Z"/><path d="M133.15,138.92h-1.8c-.35-.54-.12-1.11-.18-1.68a2.55,2.55,0,0,1,1.78-.16C133.29,137.6,133.06,138.17,133.15,138.92Z"/><path d="M134.1,137.06h1.76c.36.53.12,1.1.19,1.64-.12.09-.24.24-.37.25a6.87,6.87,0,0,1-1.2,0,.39.39,0,0,1-.39-.47C134.12,138.08,134.1,137.67,134.1,137.06Z"/><path d="M144.34,138.92h-1.77c-.36-.54-.12-1.11-.18-1.65.12-.08.23-.23.36-.25a8,8,0,0,1,1.2,0,.4.4,0,0,1,.39.48C144.32,137.9,144.34,138.3,144.34,138.92Z"/><path d="M152.65,138.92h-1.79c-.35-.54-.12-1.11-.19-1.68a2.57,2.57,0,0,1,1.79-.16C152.79,137.6,152.56,138.17,152.65,138.92Z"/><path d="M159,139V137.2c.54-.36,1.11-.12,1.65-.19.08.12.23.24.24.37a6.87,6.87,0,0,1,0,1.2.4.4,0,0,1-.48.39C160,138.94,159.63,139,159,139Z"/><path d="M167.3,139V137.2c.54-.35,1.11-.12,1.68-.19a2.55,2.55,0,0,1,.16,1.78C168.62,139.13,168.05,138.9,167.3,139Z"/><path d="M209.64,127.73v1.79c-.56.34-1.13.12-1.69.18a2.57,2.57,0,0,1-.16-1.79C208.33,127.59,208.89,127.81,209.64,127.73Z"/><path d="M201.9,139.41h-1.79c-.35-.55-.12-1.12-.19-1.68a2.57,2.57,0,0,1,1.79-.17C202,138.09,201.81,138.66,201.9,139.41Z"/><path d="M177,137v1.79c-.55.35-1.12.12-1.68.19a2.52,2.52,0,0,1-.17-1.79C175.64,136.85,176.21,137.08,177,137Z"/><path d="M56.56,137.54h1.77c.36.54.12,1.11.18,1.65-.12.09-.23.24-.36.25a8,8,0,0,1-1.2,0,.39.39,0,0,1-.39-.47C56.59,138.57,56.56,138.16,56.56,137.54Z"/><path d="M185.25,137.5v1.77c-.54.35-1.11.12-1.64.18-.09-.12-.24-.24-.25-.36a8.15,8.15,0,0,1,0-1.21.4.4,0,0,1,.48-.39C184.23,137.52,184.63,137.5,185.25,137.5Z"/><path d="M191.61,137.54h1.79c.35.55.12,1.12.19,1.68a2.55,2.55,0,0,1-1.78.17C191.47,138.86,191.7,138.29,191.61,137.54Z"/><path d="M203.47,129.71l-.92,0c-.35-.56-.12-1.13-.19-1.69.56-.4,1.17-.2,1.77-.18.35.34.1.77.19,1.18Z"/><path d="M206.75,129.66l-1.29.06-.65-.95V128a2.64,2.64,0,0,1,1.77-.15c.07.08.16.14.17.2C206.76,128.49,206.75,129,206.75,129.66Z"/><path d="M212.61,129l-.71.68h-1.07c-.36-.56,0-1.13-.23-1.65a2.61,2.61,0,0,1,1.83-.19C212.77,128.17,212.52,128.59,212.61,129Z"/><path d="M215,129.66l-1.29.06-.66-1.09V128c.13-.08.25-.22.38-.23a6.76,6.76,0,0,1,1.19,0,.39.39,0,0,1,.39.47C215,128.63,215,129,215,129.66Z"/><path d="M63.9,138.92H62.13c-.41-.36-.06-.8-.25-1.14l.77-.72h1.06C64,137.62,63.82,138.18,63.9,138.92Z"/><path d="M67.82,139v-1.78c.37-.36.79-.11,1.19-.2l.67.72v1.07C69.12,139.11,68.56,138.9,67.82,139Z"/><path d="M72.19,138.92H70.41c-.39-.34,0-.78-.25-1.15l.85-.72h1C72.33,137.6,72.11,138.17,72.19,138.92Z"/><path d="M76.11,139.13v-1.92c.35-.37.78-.11,1.2-.21l.67.8v1C77.44,139.18,76.86,138.8,76.11,139.13Z"/><path d="M78.55,139l-.07-1.29,1.09-.66h.64c.08.13.23.25.24.38a7.88,7.88,0,0,1,0,1.19A.4.4,0,0,1,80,139C79.58,138.94,79.18,139,78.55,139Z"/><path d="M84.44,137h1.15l.67.74v1.05c-.56.31-1.12.1-1.69.17A3.08,3.08,0,0,1,84.44,137Z"/><path d="M88.77,138.92H87c-.39-.34,0-.78-.25-1.15l.85-.72h1C88.91,137.6,88.68,138.17,88.77,138.92Z"/><path d="M93.83,137l.72.71v1.1c-.57.34-1.14.05-1.66.22a2.61,2.61,0,0,1-.17-1.83C93.07,136.82,93.5,137.15,93.83,137Z"/><path d="M95.05,137.78l.72-.72h1.11a4,4,0,0,1,.15,1.7,2.72,2.72,0,0,1-1.78.14C94.89,138.54,95.22,138.11,95.05,137.78Z"/><path d="M137,137.06l1.29-.07.66,1.09v.64c-.12.08-.24.22-.37.23a6.87,6.87,0,0,1-1.2,0,.38.38,0,0,1-.38-.47C137,138.08,137,137.68,137,137.06Z"/><path d="M139.5,139v-1.36l.82-.61h.89a2.76,2.76,0,0,1,.13,1.79C140.8,139.11,140.24,138.9,139.5,139Z"/><path d="M145.39,137h1.16l.67.74v1.05c-.56.31-1.13.1-1.69.17A3.09,3.09,0,0,1,145.39,137Z"/><path d="M149.72,138.92H148c-.37-.37-.11-.79-.21-1.18l.73-.68h1.07C149.84,137.62,149.64,138.18,149.72,138.92Z"/><path d="M153.64,139v-1.78c.37-.36.79-.11,1.19-.2l.68.72v1.07C154.94,139.11,154.38,138.9,153.64,139Z"/><path d="M156,138.88v-1.15l.72-.67h1.06c.31.56.11,1.12.17,1.69A3,3,0,0,1,156,138.88Z"/><path d="M178,137.05h1.35l.61.83v.85c-.56.55-1.2,0-1.73.27C177.84,138.36,178,137.79,178,137.05Z"/><path d="M272.13,139v-1.78c.37-.36.8-.11,1.19-.2l.68.72v1.07C273.44,139.11,272.87,138.9,272.13,139Z"/><path d="M51.24,139.48V137.7c.37-.37.79-.11,1.19-.21l.67.73v1.07C52.54,139.59,52,139.39,51.24,139.48Z"/><path d="M54.37,137.5h1c.09.12.24.24.25.36,0,.47,0,.94,0,1.46a3.5,3.5,0,0,1-1.9,0v-1.17Z"/><path d="M59.57,137.5h1.16l.67.74v1c-.56.32-1.13.11-1.7.18A3.08,3.08,0,0,1,59.57,137.5Z"/><path d="M182.37,139.4h-1.75c-.37-.33-.12-.76-.21-1.19l.84-.67.5,0c.33,0,.65,0,.62.48S182.37,138.78,182.37,139.4Z"/><path d="M186.32,139.45V137.7c.33-.37.76-.12,1.19-.21l.68.84s0,.27,0,.5,0,.65-.48.62Z"/><path d="M190.68,139.41h-1.77c-.37-.37-.11-.79-.21-1.19l.73-.67h1.07C190.8,138.11,190.6,138.67,190.68,139.41Z"/><path d="M194.61,139.45V137.7c.33-.37.76-.12,1.19-.21l.68.84s0,.27,0,.5,0,.65-.48.62Z"/><path d="M197,139.37v-1.15l.73-.67h1.05c.32.56.11,1.12.17,1.69A3,3,0,0,1,197,139.37Z"/><path d="M218.41,137.5v1.75c-.24.25-.24.25-1.87.05l-.06-1.14,1.14-.66Z"/><path d="M219.51,137.5h1.16l.67.74v1c-.56.32-1.13.11-1.7.18A3.08,3.08,0,0,1,219.51,137.5Z"/><path d="M226.77,139.41H225c-.38-.36-.12-.78-.22-1.19l.76-.68h1C226.9,138.1,226.68,138.66,226.77,139.41Z"/><path d="M228.94,137.5l.68.7v1.07c-.56.36-1.13,0-1.65.23a2.65,2.65,0,0,1-.19-1.82C228.14,137.34,228.56,137.58,228.94,137.5Z"/><path d="M235.06,139.41h-1.77c-.37-.37-.12-.79-.21-1.19l.72-.67h1.07C235.18,138.11,235,138.67,235.06,139.41Z"/><path d="M236.05,139.48V137.7c.35-.37.78-.12,1.2-.21l.67.8v1C237.37,139.61,236.81,139.39,236.05,139.48Z"/><path d="M239,139.45V137.7c.34-.37.76-.12,1.2-.21l.67.81c0,.08,0,.3,0,.53s0,.65-.48.62Z"/><path d="M102.91,138l1.34-1h.86a2.67,2.67,0,0,1,.16,1.76c-.35.35-.77.1-1,.15Z"/><path d="M122.41,138.5a1,1,0,0,0-.7.42h-1.08c-.39-.54,0-1.12-.23-1.58.31-.5.75-.27,1.3-.36Z"/><path d="M128.58,137.06,130,137l.45,1c.4.38-.19.55-.4.95h-1.13C128.53,138.38,128.88,137.8,128.58,137.06Z"/><path d="M222.6,137.5h1c.42.54.19,1.16.2,1.75-.33.37-.75.12-1.16.21l-.72-.63C221.78,138,222.35,137.87,222.6,137.5Z"/><path d="M307.16,138.61v1.15c-.17.07-.31.18-.44.17-.46,0-.93.13-1.42-.16v-1.11c.3-.22.47-.62.61-.65C306.7,137.94,306.78,138.48,307.16,138.61Z"/><path d="M217.48,129.65H216.2c-.35-.53-.12-1.1-.18-1.64a1.31,1.31,0,0,1,1.28-.18.63.63,0,0,1,.17.4C217.49,128.63,217.48,129,217.48,129.65Z"/><path d="M216,140h1.31c.34.56.12,1.13.18,1.67-.39.43-.86.22-1.31.15C215.86,141.29,216.08,140.72,216,140Z"/><path d="M162.27,137.05l1,.59c.12.87-.56.92-.64,1.33l-.6,0a2.91,2.91,0,0,1-.12-1.83Z"/><path d="M240.65,32.15h-2.38l-.56.5h-1.44l-.51-.47-.44.44-1,.07-.34.35c-.61.18-1.2.31-1.56-.39l-.48.47h-1.41l-.57.5h-3.39l-.55-.5-.29.86c-.52.3-1.09.1-1.64.14s-1,0-1.5,0c-.1.28-.2.56-.29.85-.07,0-.13.12-.19.12H219.7l-.54-.46-.89.89h-2.09c-.32-.59-.05-1.15-.19-1.62.39-.45.82-.19,1.22-.28l.52-.48h1l.51.47.35-.35a2.4,2.4,0,0,1,.44-.12h2.09l.56.45c.37-.38.12-.8.2-1.18.25-.25.25-.25,2.29-.15l.45.45.75-1h3.1l.36-.37a3.5,3.5,0,0,1,1.61-.09l.39.38,1.7-.87h1.28l.5.43.51-.46h.94l.52-.48h1l.29.84.18.08.35-.86,1.12-.12.44-.44h3.41l.43-.42H248c.32.58.05,1.14.19,1.65-.73.53-1.49,0-2.13.3l-.6-.55-.75.81c-.45.29-.86.13-1.25.16a8.79,8.79,0,0,1-.88,0l-.57-.49C241.29,31.13,241.13,31.83,240.65,32.15Z"/><path d="M157,41h4.19l.72-1.22,1.52.74.67-.52H166l.55.47.36-.93h2.55l.39.39c.43-.09.24-.48.35-.72.05-.06.11-.16.17-.17h3.87l.64-.6.92.52.41-.4h2.93l.47-.48h2.53l.51.51.68-1h2.17L186,38c1.45-.95,1.45-.95,3-.89.34.34.08.77.17,1.15-.39.64-1.15.78-1.89,1.21h-3.2l-.52.48-.51-.45-.41.41h-2.06l-.5-.5-.46,1h-2.39l-.5-.46-.53.49h-.95c-.38.61-.95.5-1.53.41l-.32-.84c-.5,0-.26.44-.37.73-.69.38-1.52,0-2.18.21l-.44.43-.51-.46-.33.33a1.54,1.54,0,0,1-.43.14c-.73,0-1.46,0-2.14,0l-.58-.5-.34.94h-2.52l-.61-.46-.18.86a2.58,2.58,0,0,0-.61.15,3.33,3.33,0,0,0-.56.47h-.95l-.52-.49c-.64-.25-.82.69-1.51.54-.43-.09-1,.3-1.37.45-.15-.15-.26-.2-.26-.26C157,42.49,157,41.84,157,41Z"/><path d="M304.52,23.89l-.46.45-1,.06-.56.48h-5.8l-.41.42h-3.93l-.46-.36-1.66.89h-1.3l-.52-.47-.34.35a1.86,1.86,0,0,1-.43.12c-.73,0-1.45,0-2.11,0l-.55-.45c-.42.37-.06.81-.35,1.32-.51.29-1.25,0-2.11.14l-.89-1.23-.35,1c-.34.33-.77.07-1.13.17l-.52.46c-.53.2-.69-.35-1.18-.51l-.86.48h-1.92a3.47,3.47,0,0,1-.15-1.68c.14-.07.27-.21.4-.21,1,0,1.92,0,2.76,0l.48-.49h5.32c.06,0,.12-.08.19-.13.05-.22.11-.44.17-.66.14-.06.27-.17.41-.17h6.09l.35-.33a1.77,1.77,0,0,1,.42-.15h1.67l.54.49c1.06-.14,1.77-1.35,3-.88.11.28.21.56.31.84.45-.12.27-.5.38-.75.06-.06.12-.17.17-.17h2.45l.51.46.91-.92h2l.5.4.39-.39h2.58c.31.59.05,1.15.19,1.64-.49.43-1,.2-1.46.24s-.81,0-1.23,0Z"/><path d="M70.68,52.64c0-.47.51-.59.73-.94h1.94l.66.49c.7-.1.9-.75,1.35-1h1.46l.43.43.53-.41H79c.51-.13.65-.71,1.2-.51l.5.45.51-.46h2.42l.56.5.33-.94H87.1c.41.51,0,1.11.24,1.6-.18.12-.3.28-.43.28-.8,0-1.6,0-2.31,0l-.43-.44c-.43.09-.24.48-.35.73,0,0-.11.16-.17.16H81.19l-.49-.46-.91.91H77.68l-.31-.83c-.51,0-.26.42-.35.68-.29.39-.73.14-1.16.22l-.53.46H71.49l-.55.5H67.4l-.77,1c-.3,0-.46,0-.62,0-.65.06-1-.86-1.74-.48a2.48,2.48,0,0,1-1.51.51c-.17,0-.37.26-.59.42l-1-1-.31.91c-.69.25-1.41,0-2,.11l-.58-.47-.94.94H55.41c-.06,0-.13-.08-.25-.16V54.19a13.4,13.4,0,0,1,2.11-.08l.53-.48h3.89l.41-.41c1.28-.2,2.65,0,4-.11.29-.29.58-.57.91-.91l.51.41.51-.43H70a2.91,2.91,0,0,0,.73.46c.08.26,0,.63.47.3A1.65,1.65,0,0,0,70.68,52.64Z"/><path d="M255.29,28.75c.31-.46.38-1.05.94-1.41h1.46l.51.42c.43.21.67-.16,1-.45h.94l.76-.62.89.67,1-.5h1.8c.51.11-.12.88.69.83,0-.38,0-.76.05-1.15.06-.05.11-.16.17-.16H268l.45.4,1.57-.92h1.38l.52.44.41-.41h2.55c.36.58.05,1.15.22,1.65-.2.11-.33.24-.47.25-.73,0-1.46,0-2.21,0l-.5-.45-1.57.91h-1.38l-.53-.43-.47.47H265l-.46.45h-2.89l-.55.5h-1.93l-.5-.45c-.19.15-.41.47-.55.43-.9-.24-1.53.9-2.46.43l-.37-.37-.52.44h-2.42l-.5-.46c-.27.45-.53.91-.81,1.39H249.4l-.71-.65V29c.14-.09.27-.23.4-.23,1,0,1.92,0,2.89,0l.19-.87a9.57,9.57,0,0,1,2.09-.11Z"/><path d="M98.21,48.28h2l.43.43.53-.4h1.13c.59-.12.73-.71,1.3-.51l.52,1,.29-.88c.06-.07.12-.17.18-.17.65,0,1.3,0,1.93,0l.52.47.92-.92h2l.39.39c.45-.08.22-.48.49-.91.09-.14.44,0,.75,0a6.28,6.28,0,0,1,1,0c.31,0,.65-.14,1,.18v1.58c-.54.36-1.12.12-1.66.18l-.34.35a1.5,1.5,0,0,1-.43.13c-1,0-2.11,0-3.11,0l-.58-.49-.35.93h-2.55l-.5-.5-.72,1h-2.14l-.52-.48c-.35.63-1,.42-1.49.53l-.91.9-.7-.64V49Z"/><path d="M123.13,45.83l.32-.34a1.71,1.71,0,0,1,.44-.14c.73,0,1.45,0,2.14,0l.53.46,1.4-1.4a3.39,3.39,0,0,1,1.69.11v1.63c-.32.38-.77,0-1.27.3l-.4.37h-1l-.54.5H123.6l-.42.41h-2.06l-.35-.35c-.49.11-.62.65-1.28.88h-1.72l-.46-.43-1.58.91h-1.41c-.47-.51,0-1.12-.29-1.62l1.44-.76h3.09c.32-.2.57-.37.83-.52.06,0,.16,0,.28,0l.52.46.51-.46Z"/><path d="M195.93,36.49l.15-.71s.08-.13.14-.14c.87-.11,1.74,0,2.56-.07l.38,1.09.5-1.07h1l.51-.48h1l.39.39a3.1,3.1,0,0,1,.93-.38,1.86,1.86,0,0,0,1.06-.41c.27-.18.74-.08,1.08-.11a3.37,3.37,0,0,1,.16,1.75l-.7.69h-1.94l-.46-.43-1.58.9h-1.42l-.42-.42-.59.47h-2.39l-.45.45h-3l-.73,1H189.9a2.76,2.76,0,0,1-.13-1.89h2.54c.36-.37.65-.65.94-.94C195,36.08,195,36.08,195.93,36.49Z"/><path d="M156.49,41.44v1.22l-.62.67h-2.06l-.58-.46-.16.81s-.08.12-.14.13h-2.56l-.41-.4-1,1h-2a2.66,2.66,0,0,1-.11-1.8c.56-.29,1.34.07,1.72-.63.46,0,1-.15,1.31.46l.55-.44h2.41l.55.48.27-.79c.07-.08.12-.19.18-.19Z"/><path d="M211.85,34.12l.53.47.9-.9h2.06c.43.5,0,1.09.23,1.55-.31.51-.76.25-1.11.36s-.5.41-.77.45c-.46.07-1,.14-1.29-.44l-.53.45h-1.93l-.55-.5-.27.83c-.06.06-.12.16-.17.16-.87,0-1.74,0-2.64,0V34.8c.45-.34.95-.15,1.41-.18s.8,0,1.2,0l.36-.33a1.27,1.27,0,0,1,.41-.15Z"/><path d="M94.86,51.19l-.52-.47-.91.9h-2l-.52-.43c-1.07.11-1.77,1.36-3,.86a3.42,3.42,0,0,1-.1-1.62l1.35-.69h4.2l.56.5.28-.84c.24-.31.59-.12.89-.15a5.24,5.24,0,0,1,1,0c.3,0,.64-.15,1,.24v1.08c0,.33,0,.64-.49.63S95.42,51.19,94.86,51.19Z"/><path d="M139.19,43.39l.54.46c.29-.28.57-.57.9-.9h2l.49.39.51-.42h.92l.55-.5H146c.26.23.26.23.17,1.79a2.79,2.79,0,0,0-1.18.62h-1.41l-.53-.43-.4.41h-2.05l-.39-.39c-.42.09-.23.48-.34.73-.06.05-.11.16-.17.16-.88.06-1.75,0-2.71,0,0-.63,0-1.1,0-1.57a.4.4,0,0,1,.48-.4C138.08,43.41,138.64,43.39,139.19,43.39Z"/><path d="M130.23,46.31l0-1.29.86-.67h.86l.63-.55.92.48.36-.36h2.56a3.47,3.47,0,0,1,.15,1.68c-.39.44-.9.17-1.35.22s-.95,0-1.32,0l-.54-.54-.75,1Z"/></g></g></svg>