<svg xmlns="http://www.w3.org/2000/svg" viewBox="0 0 118.37 118.37"><title>Recurso 102MANDALA</title><g id="Capa_2" data-name="Capa 2"><g id="Capa_1-2" data-name="Capa 1"><path d="M91.22,43.55C73.86,41.49,65.47,53.9,65.14,52.79c-.84-.2,8.89-11.74,26.62-13.7,18.93-2.59,28.93,12.92,26.15,13.6C115.64,53.66,104.82,45.82,91.22,43.55Z"/><path d="M79.11,29.63c-16.06,6.89-17.13,21.83-18,21-.82.25,1.84-14.61,16.21-25.18,15.1-11.71,31.51-3.27,29.44-1.29C105.32,26.17,92,24.79,79.11,29.63Z"/><path d="M61.66,23.62c-10.46,14-3.91,27.48-5,27.21-.59.62-5.71-13.57,1.45-29.91C65.29,3.23,83.72,2.33,82.92,5.08,82.63,7.53,70.43,13,61.66,23.62Z"/><path d="M43.55,27.15C41.49,44.5,53.9,52.9,52.79,53.23c-.2.83-11.74-8.9-13.7-26.62C36.5,7.67,52-2.32,52.69.46,53.66,2.72,45.82,13.55,43.55,27.15Z"/><path d="M29.63,39.25c6.89,16.07,21.83,17.13,21,18,.25.82-14.61-1.83-25.18-16.2C13.78,25.92,22.22,9.5,24.2,11.58,26.17,13.05,24.79,26.34,29.63,39.25Z"/><path d="M23.62,56.7c14,10.47,27.48,3.92,27.21,5,.62.58-13.57,5.71-29.91-1.45C3.23,53.08,2.33,34.64,5.08,35.45,7.53,35.73,13,47.94,23.62,56.7Z"/><path d="M27.15,74.81C44.5,76.88,52.9,64.47,53.23,65.58c.83.19-8.9,11.73-26.62,13.7C7.67,81.87-2.32,66.36.46,65.68,2.72,64.7,13.55,72.55,27.15,74.81Z"/><path d="M39.25,88.74c16.07-6.89,17.13-21.84,18-21C58,67.45,55.39,82.31,41,92.87c-15.1,11.72-31.52,3.28-29.44,1.3C13.05,92.19,26.34,93.58,39.25,88.74Z"/><path d="M56.7,94.74c10.47-14,3.92-27.47,5-27.2.58-.63,5.71,13.57-1.45,29.9-7.22,17.7-25.66,18.6-24.85,15.85C35.73,110.84,47.94,105.39,56.7,94.74Z"/><path d="M74.81,91.22c2.07-17.36-10.34-25.75-9.23-26.08.19-.84,11.73,8.89,13.7,26.62,2.59,18.93-12.92,28.93-13.6,26.15C64.7,115.64,72.55,104.82,74.81,91.22Z"/><path d="M88.74,79.11c-6.89-16.06-21.84-17.13-21-18-.25-.82,14.61,1.84,25.17,16.21,11.72,15.1,3.28,31.51,1.3,29.44C92.19,105.32,93.58,92,88.74,79.11Z"/><path d="M94.74,61.66c-14-10.46-27.47-3.91-27.2-5-.63-.59,13.57-5.71,29.9,1.45,17.7,7.22,18.6,25.65,15.85,24.85C110.84,82.63,105.39,70.43,94.74,61.66Z"/></g></g></svg>