<svg xmlns="http://www.w3.org/2000/svg" viewBox="0 0 140.26 685.07"><title>Recurso 12ART</title><g id="Capa_2" data-name="Capa 2"><g id="Capa_1-2" data-name="Capa 1"><path d="M63,227c-.17-.1-.23-.37-.5-.33l-.14.53a1.18,1.18,0,0,1-1.18-.11,16.31,16.31,0,0,0-1.22,1.14l-.44,0-.46.45.35,1,.66.18c.21.27.08.54.12.79l-.22.22a1.77,1.77,0,0,1,.19,1.17c-.24.16-.24.16-.52.09a.93.93,0,0,1-.12-.27,10.2,10.2,0,0,0-.06-1.24,3.93,3.93,0,0,0-.35-.85l-.35.07c-.24.28-.09.55-.14.81l.22.22a1.63,1.63,0,0,0,0,1.56l-.22.24v.92c-.22.14-.3.46-.62.44-.14-.25.18-.34.17-.51s-.16-.35-.21-.54.16-.58.2-.86a8.52,8.52,0,0,0,0-1.43l-.2-.24a3.63,3.63,0,0,0,.19-.84c0-.33.21-.59.2-.86s-.21-.53-.2-.86a3.63,3.63,0,0,0-.19-.84l.23-.27-.22-.4a1.66,1.66,0,0,0,0-1.52l.16-.2v-5.14c.24-.63.37-1,.51-1.36l-.22-.38c0-2.12,0-4.23,0-6.35a1.37,1.37,0,0,1,.24-.87l-.25-.4a4.26,4.26,0,0,1,.1-1.52c.2-.48,0-.92.14-1.24l-.25-.49.27-.27c0-1.3,0-2.63,0-4a3.68,3.68,0,0,1,.2-1.82c.14-.26,0-.59-.22-.86l.26-.41-.23-.38a1.63,1.63,0,0,0,0-1.52l.22-.26v-6.28L59,191c-.2-.51-.47-1,.06-1.47l-.31-.34.21-.41a2.29,2.29,0,0,1-.18-1.12l.22-.22v-4.93l.23-.23c0-2.16,0-4.33,0-6.49a5.36,5.36,0,0,1,.22-2.45c-.07-.55.13-1.12-.2-1.67a.63.63,0,0,1,.2-.84v-1.27c0-1.37,0-2.75,0-4.1l.23-.24a1.38,1.38,0,0,0-.22-1l.22-.38c0-1.06.07-2.12,0-3.17-.07-.85.31-1.62.26-2.45s0-1.59,0-2.38,0-1.69,0-2.54c0-.47.33-.84.25-1.34a3.69,3.69,0,0,0-.24-1.29l.22-.26c0-1.48,0-3,0-4.45a8,8,0,0,1,.09-2.34,7.85,7.85,0,0,0,.12-2.16c0-.8,0-1.59,0-2.38l.22-.39c-.15-.32-.41-.71-.2-1a1.49,1.49,0,0,0,.19-1c0-1.8,0-3.6,0-5.4,0-.35-.09-.73.31-.93L60.6,130c0-.35.25-.64.24-1,0-1.37,0-2.75,0-4.12a7.07,7.07,0,0,1,.19-2.46,1,1,0,0,0-.19-1.17s0-.21,0-.31c0-.46.3-.85.23-1.34a11.36,11.36,0,0,1,0-1.43v-1.42c0-.48,0-1,0-1.43s.31-.85.24-1.34a8.93,8.93,0,0,1,0-1.27v-1.42c0-.36-.08-.73.32-.93l-.25-.25c0-.75,0-1.43,0-2.11l.19-.37-.23-.26a4.46,4.46,0,0,0,.2-.86c0-1.21,0-2.43,0-3.64l.25-.26-.26-.52a2.31,2.31,0,0,0,.22-1.49l-.24-.24.18-.36v-3.1l.28-.31c-.11-.46-.45-.93,0-1.39V92.49l.25-.3-.26-.46c.08-.47-.12-1,.11-1.6,0,0,.08-.07.14-.14,0-.55,0-1.13,0-1.71s0-1.17,0-1.75.28-1.07.24-1.65a17.19,17.19,0,0,1,0-2.38,11.36,11.36,0,0,1,.12-2.32,9.18,9.18,0,0,0,.08-2.35c0-.46.35-.84.25-1.33a6.72,6.72,0,0,1,0-1.27v-2.7a11.37,11.37,0,0,0,0-1.43c-.13-1,.32-2,.25-3.08s0-2.11,0-3.17,0-2.12,0-3.17c0-.47.35-.84.25-1.34a6.71,6.71,0,0,1,0-1.27v-2.7c0-.47,0-.95,0-1.42a12,12,0,0,1,.18-2.46,10.4,10.4,0,0,0,0-2.37V45.18l.48-.6-.26-.4V36.85l.45-.5a6.44,6.44,0,0,0,0-1.31A5.12,5.12,0,0,1,64,33.86a5.58,5.58,0,0,1,.21-1.34A2.53,2.53,0,0,0,64,31.18a4.42,4.42,0,0,1,0-1.26c0-.47,0-1,0-1.36l.4-.4s.08-.07.09-.12a.42.42,0,0,0,0-.16V22.49l-.21-.24a2.31,2.31,0,0,0,.21-1.16c-.11-.58.3-1.07.24-1.66a17.15,17.15,0,0,1,0-1.9c0-.58,0-1.16,0-1.74s.38-1.07.24-1.65c.41-.31,0-.86.28-1.14s0-.83.24-1.18,0-.83.15-1.21a3.29,3.29,0,0,0,.21-1.36l.4-.41a.55.55,0,0,0,0-.18,3.19,3.19,0,0,1,.2-1.18,5.08,5.08,0,0,0,.08-1.24c.43-.33-.1-1,.38-1.27.08-.39-.15-.85.24-1.17-.11-.73.3-1.39.25-2.13,0-.48.31-.95.19-1.48L68,0c.49.18.06.77.5.94-.12.63.35,1.2.2,1.81s.16.8.27,1.17a3.26,3.26,0,0,1,.19,1.22l.46.5a2,2,0,0,0,0,.85,1.83,1.83,0,0,1,.22.71c0,.08.19.15.2.23a10.53,10.53,0,0,0,0,1.26c.07.38.4.73.41,1.09s.26.89.23,1.34.29.76.25,1.17a4.09,4.09,0,0,0,0,.5l.45.45-.23.68.47.47c-.18.51.17,1,.21,1.47.44.44,0,1.12.45,1.56.06.5-.16,1,.23,1.49,0,.52.4,1,.19,1.48l.54.54a3.94,3.94,0,0,0,0,.72,3,3,0,0,0,.21.54,2,2,0,0,1,.22,1.18c-.12.43.23.78.21,1.17s.2.68.23,1,.37.63.24,1,.27.53.23.86,0,.73-.06,1a1.83,1.83,0,0,1,.7,1.38A5.68,5.68,0,0,0,75.42,31c0,.19.21.37.2.54a4,4,0,0,0,.22,1.19,4.85,4.85,0,0,1,0,.94,6.9,6.9,0,0,0,.29.95l.39.38c-.21.62.27,1.17.22,1.79s0,1.27,0,1.91a17.21,17.21,0,0,1,0,1.9c0,.44.33.73.26,1.18a9.6,9.6,0,0,0,0,1.42v5.24a9,9,0,0,1,0,1.27c-.1.79.32,1.5.25,2.29s0,1.69,0,2.54V57c0,.79,0,1.58,0,2.38,0,.13.11.26.22.49,0,1.11,0,2.32,0,3.54a2.68,2.68,0,0,0,.1,1.38c.23.41.08.82.11,1.22a6.06,6.06,0,0,0,0,1.42,8.08,8.08,0,0,1,.17,3.09c0,.94.33,1.82.27,2.77s0,1.79,0,2.69v2.86c0,.9,0,1.8,0,2.69l.12.12s.11.07.11.11V96.3l-.23.23c.15.68.68,1.33.43,2a10.67,10.67,0,0,0-.22,2.43l.25.25a1.79,1.79,0,0,0,0,2l-.28.31a4.4,4.4,0,0,0,.22,2,.53.53,0,0,1,0,.46.45.45,0,0,0-.06.66,1.7,1.7,0,0,1,.07.91c0,.43-.45.82-.08,1.28s-.15.85.26,1.16c0,.68,0,1.36.07,2l-.23.26a2.56,2.56,0,0,1,.22,1.16c0,1.06,0,2.12,0,3.18,0,.13.11.26.21.48v4.34l.22.27-.22.65.24.27c0,.34,0,.71,0,1.11l-.16.2a2,2,0,0,1,.19,1.16c-.12.45.21.78.23,1.18s0,.85,0,1.27l-.22.22c0,.36.24.64.24,1,0,2.06,0,4.12,0,6.16l.25.28-.25.49c.1,1.17-.2,2.47.22,3.74l-.25.25.26.51c0,2.08,0,4.3,0,6.51a3.17,3.17,0,0,0,.21,1.82.5.5,0,0,1,0,.46c-.41.58-.11,1.22-.23,1.79l.24.41a1.09,1.09,0,0,0-.12,1.14c0,.08.07.18.12.26.23.4-.46.68-.1,1.14a.7.7,0,0,1-.12,1c-.05.06,0,.21,0,.31a6.81,6.81,0,0,1,.24,1.5,11.88,11.88,0,0,0,0,1.58v3.18c0,.31-.11.69,0,.94a5,5,0,0,1,.2,2,.81.81,0,0,1-.16.57.62.62,0,0,0,0,.59c.34.48.19,1,.2,1.51,0,1.85,0,3.7,0,5.55l.22.23c0,.58,0,1.16,0,1.74.45.31,0,.62,0,.93s0,.63,0,.86l.27.31c0,.59,0,1.17,0,1.75,0,.4-.17.84.22,1.18-.09.44.21.95-.23,1.33,0,.3-.11.64.2.86v6.62l.28.47-.25.37c0,.32.25.61.24,1,0,1.37,0,2.75,0,4.12a7.32,7.32,0,0,0,.19,2.46,1,1,0,0,1-.2,1.16c0,.3-.11.64.26.9,0,.66,0,1.34,0,2s0,1.48,0,2.22,0,1.37,0,2.06a4.47,4.47,0,0,0,.22,2.13c0,.9,0,2,0,3s.34,2,.26,3.09,0,2.11,0,3.17c0,.63,0,1.27,0,1.9a5.31,5.31,0,0,0,.11,1.55,5.66,5.66,0,0,1,.1,1.53c0,.58,0,1.17,0,1.75v1.58c0,.53,0,1.07,0,1.59,0,.35.23.56.23.86s0,.53,0,.79,0,.72-.31.94l.36.36v8.53l.19.23-.24.52.23.4v12l.22.22c-.17.53-.36,1.25-.21,1.49a2.53,2.53,0,0,1,.2,1.5c0,2.86,0,5.72,0,8.59l.23.36c-.1.42-.48.78-.06,1.28.22.26-.32.61-.17,1s.34.65.22,1a1.69,1.69,0,0,1-.23.36l.26.45-.25.41a1.34,1.34,0,0,1,.17.34,4.9,4.9,0,0,1,.06.77c0,2,0,4,0,5.89a2.42,2.42,0,0,1,.23.52c0,1.11,0,2.22,0,3.33,0,1.32,0,2.65,0,4,0,.13.12.27.22.49v6.56c0,.9,0,1.8,0,2.69a15.34,15.34,0,0,0,.18,2.78,12.6,12.6,0,0,1,0,2.68v2.86c0,.9,0,1.8,0,2.7,0,.52.31.95.24,1.49a12,12,0,0,0,0,1.59v4.6c0,.53,0,1.06,0,1.59a2.51,2.51,0,0,0,.19,1.19.61.61,0,0,1-.28.9l.31.36V326.6c0,.45-.12.92.28,1.24l-.28.32a6.94,6.94,0,0,0,0,.79c0,.3-.09.6.12.9a2.15,2.15,0,0,1,.12.73l-.27.27.2.45v9.34l.29.34c-.08.16-.16.34-.24.52l.28.48v4.84l.18.22c-.07.17-.16.35-.24.52l.22.39c0,2,.06,4,0,6,0,1,.31,1.94.26,2.93s0,1.9,0,2.85v5.87c0,1,0,2,0,3,0,.45.17.89.2,1.33s0,1,0,1.43,0,1,0,1.43a6.53,6.53,0,0,1-.22,2.6c.09.55-.14,1.12.2,1.67.16.28,0,.72.06,1l-.29.32.25.49c0,1.2,0,2.51,0,3.83,0,.38.22.67.24,1l-.23.22a12.76,12.76,0,0,1,0,1.75c-.09.59.33,1.06.25,1.65a14.6,14.6,0,0,0,0,1.75v1.74c0,.58,0,1.17,0,1.75,0,.38.32.62.25,1a6.62,6.62,0,0,0,0,1.26v1.12l-.23.38c.15.32.43.71.21,1-.34.45-.11.91-.2,1.35l.21.27-.22.66.23.23,0,1.71c.66.65-.17,1.28,0,1.91l.21.21v1.44c0,.05,0,.11,0,.14a2.35,2.35,0,0,1-.22.26l.25.52-.23.38v4.6c.47.47.13.94,0,1.41l.23.22c0,.35-.26.64-.24,1,0,.9,0,1.8,0,2.69,0,.21,0,.48.08.6.4.48,0,.86-.08,1.29l.23.23-.24.67.23.23v3.82l-.22.22c.43,1,.13,2.06.24,3.11L86,427l-.24.37v1.44l.22.36-.34,1c-.08,0-.2-.13-.25-.1s-.09.23,0,.33l-.34.33v.66l.66.65c0,.17,0,.4,0,.46.31.25.18.57.21.87-.47.47-.13.94,0,1.4l-.46.46.27.75-.75.2.27.44,0,1.54-.21.2a1.37,1.37,0,0,0,.23,1l-.26.54.48,0c0,.33-.29.41-.4.64l0,1.12c.32.41.51.18.71,0,.24,0,.38.11.43.4l-.37.42-.7.18a2.52,2.52,0,0,0,.16,1.7l-.22.21a8.14,8.14,0,0,1-.2,1.83,7.44,7.44,0,0,0,0,1.89v1.91c0,.63,0,1.27,0,1.9,0,.3-.25.44-.24.7a3,3,0,0,0,.2,1.34c.16.35-.19.84.32,1.07l-.59.72.68.23c.06.43-.35.76-.15,1.23a2,2,0,0,1,.37-.17,2.35,2.35,0,0,1,.34,0c.09.1.16.14.16.18,0,.37,0,.74,0,1.11v1.58a.77.77,0,0,1,.14,1,1.65,1.65,0,0,0,.1,1.62l-.26.4.24.42a1.1,1.1,0,0,1-.27,1l.21.24v7l-.19.37.28.28L86,473c0,.31.35.36.42.59a8.11,8.11,0,0,1,1,0,6.17,6.17,0,0,0,1,.19c.34,0,.58.23.86.23s.53.29.76.46l.48,0,1,1a3.27,3.27,0,0,0,.85.34c.41,0,.84,0,1.26,0a12,12,0,0,1,1.59,0c.53.06,1-.23,1.49-.24h3l1.51,0,.33-.29.52.25.38-.23c1.21,0,2.43,0,3.65,0,.41,0,.71-.37,1.18-.25a5.29,5.29,0,0,0,1.26,0h1.25a1.74,1.74,0,0,1,.25-.23s.1,0,.15,0h2.22a9.67,9.67,0,0,0,2.14-.18,10.16,10.16,0,0,1,2.21,0,20.34,20.34,0,0,1,2.21,0c.55.06,1-.31,1.5-.25a13.62,13.62,0,0,0,1.43,0,11.89,11.89,0,0,1,1.58,0c.44.06.74-.32,1.18-.25a9.74,9.74,0,0,0,1.43,0h5.23a8.82,8.82,0,0,1,1.26,0c.79.11,1.5-.33,2.29-.25a20.23,20.23,0,0,0,2.2,0l.88.35.53.53c.08.31.17.64.27,1a8.56,8.56,0,0,0,.36,1c.14.31.08.73.46.92.17.56.35,1.12.53,1.68,0,.14.11.28.21.55l0,1.49-.15.17,0,.46-.44.45v.34c-.72.86-.71,2-1.24,3-.3-.06-.6.35-1,.28a1.3,1.3,0,0,0-1.2.24l-.4-.27-.51.25-.37-.23H130.4l-.22-.23h-2.06a9.66,9.66,0,0,1-2.22,0,8.76,8.76,0,0,0-2-.18,20.21,20.21,0,0,0-2.06,0c-.44.05-.74-.32-1.18-.25a9.74,9.74,0,0,1-1.43,0c-.42,0-.84,0-1.27,0s-.74-.3-1.17-.24a8.22,8.22,0,0,1-1.11,0h-1.27l-1.08,0-.25-.25c-.74,0-1.49,0-2.22,0s-1.3-.26-2-.27-1.46.28-2.13-.19a5.19,5.19,0,0,1-2.1-.22h-3c-.4-.41-.9-.17-1.34-.2a12.05,12.05,0,0,0-1.59,0c-.47,0-.84-.32-1.34-.25a1.84,1.84,0,0,1-1.22-.08c-.43-.25-1,0-1.36-.15a3.19,3.19,0,0,0-1.35-.19c-.26,0-.53,0-.79,0s-.5-.08-.62,0a1,1,0,0,1-.71.21l-1.6,1.6-.36-.18c-.15-.37.08-.76-.16-1.09l.24-.24c.21-.42,0-.8.22-1.12s.11-.6.08-.89.22-.65.23-.83l-.33-1a.26.26,0,0,0,0-.44c.16-.15.16-.3,0-.41.1-.18.29-.34-.06-.38a2.1,2.1,0,0,0,.06.38c-.15.11-.15.26,0,.41a.26.26,0,0,0,0,.44l-.32.33,0,1.84c-.33.22-.19.56-.19.84s-.13.71.11,1l-.42.42v.89l-.22.23H82.35l-1.12,1.12.27.55-.34.37,0,1.21-.21.46.24.24c0,.36-.24.64-.23,1,0,1.48,0,3,0,4.44,0,.13.12.27.18.4v2.06l-.2.24.28.51a16.3,16.3,0,0,0,0,1.74c0,.58-.51,1.05-.18,1.63l-.53.54.15,1.23-.38.37.25.52c-.17.42-.47.83,0,1.24-.13.44.36.74.23,1.18s-.36.6,0,.93c.08.08,0,.31,0,.47s-.24.41-.25.7.28.44.24.7c0,.08-.11.16-.18.26-.15,1.26.18,2.57-.32,3.9l-.4.4,0,.78-.24.38a1.35,1.35,0,0,1,0,1.46,5.37,5.37,0,0,0,.13,1.48c.21.58.07,88.08.11,88.64s0,1.06,0,1.58,0,1.06,0,1.59c0,.31.06.63.08.85l-.79.79.28.48c.09.3-.4.35-.48.72l.21.32,0,1.57-.48.48.19.38V619l.3.29a6.26,6.26,0,0,1,0,1.89,9.64,9.64,0,0,0-.21,1.7l-.4.4c-.13.56.08,1.12-.22,1.68s.18,1-.23,1.49c0,1,0,2,0,3,0,.13.13.25.2.37l-.3.3.23,1.07-.22.34v2.17l-.21.24.22.44a5,5,0,0,0-.42,2c-.45.62-.22,1.32-.21,2,0,.83-.41,1.61-.24,2.44a1.3,1.3,0,0,0-.22,1l.25.24-.26.52a1.15,1.15,0,0,1,.17,1.08l-.15.14,0,1.59.23.23-.31,1-.34.35a6.53,6.53,0,0,1-.24,2.29l.24.24a2.11,2.11,0,0,0-.24.53,5.18,5.18,0,0,0,0,.79l-.2.2c-.11.73.14,1.47-.24,2.23l.44.53a.36.36,0,0,1-.36.4c-.14,0-.32-.06-.43.12a.25.25,0,0,0-.44,0c-.17-.22-.41-.14-.59-.11a7.37,7.37,0,0,1-2.67-.47c-.12,0-.22-.21-.33-.32l.56-.57c0-.67,0-1.35,0-2,0-.18.17-.35.2-.53a2.62,2.62,0,0,0,0-.79,4.48,4.48,0,0,0-.2-.69c.35-.16.13-.56.33-.81s.09-.49.13-.75l-.39-.26-.78.78c-.27.43.26.67.25,1l-.74.74a2.35,2.35,0,0,0,.07.54c.1.31-.22.44-.24.7s-.17.46-.21.69a7.14,7.14,0,0,0,0,.92l1,1-.34.33-.48,0-.43.43c-.65,0-1.29,0-1.92,0a5.44,5.44,0,0,1-2-.13c-.57-.25-1.25.14-1.77-.32l-.92,0-1.16-.39a1.74,1.74,0,0,1,0-1.23c.42-.8,0-1.46-.21-2.16,0-.09,0-.19-.07-.29l.22-.22c0-.36-.24-.64-.24-1a6,6,0,0,0-.2-2.6c-.16-.35.26-.55.22-.87l-.25-.25a1.44,1.44,0,0,0,.19-.37c0-.52.06-1,.09-1.55-.38-.23-.13-.71-.44-1-.08-.06,0-.3,0-.45,0-.47-.34-.84-.25-1.34a6.74,6.74,0,0,0,0-1.42,1.92,1.92,0,0,0-.22-.51c0-.72,0-1.57,0-2.41a3.55,3.55,0,0,1,.2-1.67.84.84,0,0,0-.22-.86l.24-.37c0-.3-.34-.52-.23-.86a.47.47,0,0,0,0-.31c-.65-1.15-.41-2.41-.44-3.63a1.24,1.24,0,0,0-.28-.93l.28-.31c0-.33-.29-.41-.43-.62a2.89,2.89,0,0,0,.21-1.17,7.81,7.81,0,0,1,0-1.08c.43-.47.18-1,.22-1.52a16.83,16.83,0,0,0,0-1.74c0-.51-.38-1-.21-1.48l-.46-.46c.12-.69-.26-1.3-.24-2a5.9,5.9,0,0,0-.12-2,3.21,3.21,0,0,1,.06-1.81,9,9,0,0,0,.1-2l-.24-.24a2.62,2.62,0,0,0,.09-1.75,7.91,7.91,0,0,1-.13-1.92c-.48-1-.61-88.52-.65-89.32,0-.55.19-1.14-.21-1.65a6.32,6.32,0,0,1,0-1.74c.36-1.19.07-2.38.22-3.56.07-.55-.35-1-.24-1.5a3.2,3.2,0,0,0-.24-1.33,1.87,1.87,0,0,0-.21-.43c0-.27,0-.59,0-.91a6.42,6.42,0,0,0-.19-2.13,2,2,0,0,1,0-1.26,2,2,0,0,0,.16-1.05l-.19-.19v-1.44a3.41,3.41,0,0,0,.44-2.07l-.24-.48.26-.27,0-1.41a6.68,6.68,0,0,1-.64-2.78l.25-.46-.3-.34c0-.35,0-.77,0-1.19a4,4,0,0,1,.21-1.18,6.68,6.68,0,0,0,0-1.1c0-.4-.19-.85.22-1.19V486.8l-.54-.54,0-1.34-.37-.16-.26.26H51.84l-.25.25-.54-.27-.37.24-.93-.3-1.49-1.49c-.47,0-.84-.38-1.34-.24a2.13,2.13,0,0,1-1.16-.19l-.24.2a13.88,13.88,0,0,1-1.58,0c-.79-.1-1.5.32-2.29.25a7.24,7.24,0,0,0-2.37,0,19,19,0,0,1-3.09.19c-.87.08-1.77-.24-2.61.22H28.19c-.46,0-.85.32-1.34.24a9.73,9.73,0,0,0-1.43,0H19.55l-.21.19H8.57l-.26.25a3.09,3.09,0,0,1-1.5-.2c-.27-.15-.58.15-.85.18a15.19,15.19,0,0,1-1.91,0l-.23-.24-.7,0c-.13,0-.2,0-.23-.05L1.8,483.21v-.4L1.13,482c.16-.46-.37-.59-.45-.93s-.15-.68-.23-1c-.44-.16,0-.76-.45-.92,0-.64,0-1.27,0-1.91,0-.18.19-.36.2-.54s.17-.36.3-.51c.24-.32.1-.85.59-1l0-.47.44-.43,0-.47,1.11-1.12a2.38,2.38,0,0,0,1.2-.2.66.66,0,0,1,.85.2H9.2l.25.25.92,0h1.27c.33.38.78.18,1.17.22s.83-.1,1.18.22c0,0,.11,0,.16,0a10.16,10.16,0,0,1,2.21,0,9.55,9.55,0,0,0,2,.19,4.55,4.55,0,0,1,1.57,0,4,4,0,0,0,1.35.18c.53,0,1.06,0,1.59,0l.27.22.66-.23L24,474a12.84,12.84,0,0,1,2.3.2,9.57,9.57,0,0,0,2.21,0h2.38c.74,0,1.48,0,2.22,0,.57,0,1.07.3,1.66.24a4,4,0,0,1,1.57,0,9.68,9.68,0,0,0,2.93.19,15.92,15.92,0,0,0,1.82.25,14.42,14.42,0,0,1,1.74,0c.63,0,1.27,0,1.9,0,.47,0,.84.35,1.34.25a6.91,6.91,0,0,1,1.29,0c.14-.14.3-.42.43-.41.44,0,.74-.38,1.17-.28l1.14-1.14c.52.21,1-.22,1.48-.19s1,0,1.4,0a3,3,0,0,0,.44-1.6c0-.58,0-1.16,0-1.75l-.21-.23a2.33,2.33,0,0,0,0-2l.24-.23c0-1.1,0-2.21,0-3.32a3.3,3.3,0,0,1,0-.63,2.42,2.42,0,0,1,.23-.52l-.27-.27.24-.49-.07-1.56-.11-.13c-.12-.25.12-.37.22-.59l-.23-.36c.42-1.14.09-2.35.23-3.57l.21-.32-.17-.29V448.6l.19-.36-.25-.25a3.35,3.35,0,0,0,.2-.86,2.08,2.08,0,0,0-.21-.7l.23-.25,0-2.05-.23-.23.24-.47v-3.95l.27-.33-.23-.41c0-.39-.14-.84.15-1.3a1.17,1.17,0,0,0,0-.92,7.67,7.67,0,0,1-.2-2.61c0-.58,0-1.16,0-1.74a1,1,0,0,1,.26-.66l-.28-.47.26-.41-.25-.51.28-.44,0-2.58.24-.28-.23-.43,0-1.59.17-.19-.26-.54.26-.39-.25-.52.24-.37v-2.36l-.24-.41.24-.37v-4.44l.25-.25-.25-.51c.17-.36.4-.73.12-1.13a.76.76,0,0,1,0-.87c.37-.48-.06-.85-.08-1.28l.22-.22c0-1.33,0-2.65,0-4l.26-.43-.25-.38c0-.28.37-.47.23-.83s-.16-.46-.23-.69l.23-.23c0-.42-.47-.8-.08-1.28s-.06-.76-.15-1.14l.22-.27V397.8l.26-.49-.29-.33c0-.46,0-1,0-1.51s-.13-1,.15-1.53-.12-1,.18-1.51a3.75,3.75,0,0,0,1.67.56l0-.45h.65l.41.42L59,393c.18.56,0,1.09.15,1.63l.61.61c0,.3,0,.58.31.62.11,0,.25-.13.46-.24l-.15-.91c.49-.24.64-.78,1.16-.86L62.61,395s0,.1,0,.16l-.62.2-.1.62-.47.4-.59-.29-.26.36c0,.09,0,.17.08.18l1.05.42,0-.5.56.25c.25-.16.49-.33.72-.49l.6.61c-.22.15-.05.39-.14.6s-.44.27-.42.59a1.66,1.66,0,0,1,.55,1c0,.11.08.21.09.26l-1.13.12c-.24-.46-.77-.63-.9-1.26l.94.63a6.26,6.26,0,0,1,0-.88,2,2,0,0,1,.24-.51l-.28-.29c-.11.07-.25.13-.37.21a3.07,3.07,0,0,1-.36.27c-.14.05-.3,0-.44.09a1.15,1.15,0,0,0-.24.09c-.5-.13-.56-.63-1-.63l-1.66,1.67s-.07.08-.11.1a.43.43,0,0,1-.17,0,1.71,1.71,0,0,1-.77-.88c.2-.2.4-.38.57-.58s.51-.37.57-.7a.93.93,0,0,1-.1-1.13,1.13,1.13,0,0,0,.09-.59c0-.09-.06-.18-.13-.34l-.54-.06-.66-.66,0-.51-.41.24,0,.53-.42-.19,0-.48c-.28,0-.6-.18-.93.25l.06.63c.21.3.63.42.65.83l-.24.37.25.52-.27.4.71.86c-.17.47.39.57.45.92s-.67.51-.67,1l.29.33,1.1-.12.56.28.43-.28L59,400c0,.08,0,.16,0,.18l-1.9,1.91-.55-.55c-.29,0-.62-.16-1,.28l0,.62c.28-.09.51-.18.74-.24s.52.11.73-.11c.19.24.51.37.57.71l-.3.6.67-.33,1,1a2.15,2.15,0,0,1,.41-.25,2.26,2.26,0,0,1,.47-.05c.74-.71.74-.71.91-.59l-.23.53.56.17c-.59.41-.5,1.14-1,1.51l0,.63.52.51a3.35,3.35,0,0,0-.51,2,1.69,1.69,0,0,0-.29.37l-.48-.41a2.34,2.34,0,0,0-.86.93c.41.05.52-.29.71-.42a3.73,3.73,0,0,0,.63-.1c.13.25.1.62.33.94l-1,1.05c-.21-.24-.49-.05-.73-.12a3.62,3.62,0,0,0-.26,1,2.55,2.55,0,0,1-.25,1l.59.59.88-.88c.24.33.66.51.82,1l-.47,0c0,.22,0,.51-.33.7a2.21,2.21,0,0,1-.37,0c-.22-.05-.44-.14-.65-.21l0,.46-.56-.24-.47.22-.42-.25-.28.22-.11.85.57-.37h.61l0,.46c.21.2.44.42.65.65s.59.45.69.81c-.06.43-.49.22-.67.42v.32c-.43.52-1,.93-1.36,1.43.08.54.5.32.74.45l1.45,1.46c.06.06,0,.19.06.29-.22.13-.29.45-.66.44l.22-.63-.21-.25c-.44,0-.92-.16-1.37.17l.23.69.23.69-.34.34c-.23-.18-.37-.48-.76-.58l-.31.39c.27.22.35.6.74.51l.33-.32c.11.17.26.15.4,0s.2-.27.34-.32c.31-.11.65-.17,1-.25.34.25.16.58.2.88l-.43.43c-.07.53.11,1.06-.13,1.54-.46,0-.8-.33-1.22-.19,0,.23-.09.48.09.68l.56-.27a4.92,4.92,0,0,1,0,1.17l-.47.54c.37.22.83.2.95.66l-.47,1.24.27.26-.31,1.85-.16.15a3.66,3.66,0,0,0,.69,1.5c-.09.11-.19.22-.28.34l-.21.34.29.43-.74.75-.43.05,0,.69,1.34,1.34c-.17.48.34.61.47,1l-.25.93c.12.22.43.3.45.6l-.52.75.53,0c.15.22.47.3.43.66l-.3.23c-.47-.11-.54-.71-1-.69q-.27.8-.51,1.56l.47,0c-.21,1,.38,1.92.18,2.87.17.26.48.34.47.65s-.57.32-.43.66l1.06.09.11-.57c.34-.21.87,0,.81-.59-.32,0-.66.07-.65-.42l.85-.85,0-2.07L60.6,441l.46-1.4-.84-.28c-.14-.31,0-.43.22-.56L61,439l.72-.5.38.39-.15.8,1.16,1.15s0,.11,0,.19l-.33.23-.51-.25a4.63,4.63,0,0,0-.27.88,8.08,8.08,0,0,0,0,1.1l-.23.35c.08.47.69.54.68,1l-.45,0,0,.43c-.16.18-.42.35-.41.49.07.71-.5.75-1,1a1.94,1.94,0,0,0,.82.79l.62-.29.3.92.58.06v.69c-.76.35-.65,1.19-1.17,1.61a1.57,1.57,0,0,1-.25,1.18l.34.42v1.81l-.32.12c.12-.73-.33-1.34-.22-2,0,0-.06-.07-.12-.15l-.33-.08v.78l-.67.15c-.19-.3-.52-.38-.42-.72l.65.22c0-.36-.31-.44-.44-.65l0-.5-.38-.23-.3.34.27.56-.48.48h-.45l-.27.27a3.88,3.88,0,0,1,.51,1.88c.1.34.46.38.44.69s-.56.18-.81.43l-.21.66c-.36-.1-.36-.1-.56.3.33.15.38-.2.56-.3s.11.07.11.11c0,.31-.33.52-.22.86l-.12,0c-.46.06-.54.11-.56.44l.66.66.07.53.81-.58.28.38c-.12.46-.72.53-.69,1q.45.46.9.9s.11,0,.24,0l.7-.7.6.29.31-.4-1.07-1.07-.32-1,.25-.4-.77-.86.72-.81,0-.44.67.29a4.75,4.75,0,0,1-.27-2.15l.45.26v.5l.44.44.46,0v1.76c.19.16.29.44.58.47.51-.09.15-.68.55-.89l.33.08a2.56,2.56,0,0,1,.1,1.12c0,.09-.08.18-.15.33-.11,0-.25,0-.37-.05s-.23-.1-.37-.16a4.26,4.26,0,0,1-.19,1.26c-.11.36-.4.7-.28,1.16.05.2-.13.47-.21.73l.34.27.56-.44.68-.06a5.56,5.56,0,0,0,0,.82,2.21,2.21,0,0,0,.24.52c-.1.1-.18.17-.25.25a1.72,1.72,0,0,1,0,1.56l.46,0c.21.13.29.45.61.44l.37-.3-.09-.83c.49-.36,0-1,.44-1.4a8.31,8.31,0,0,0-.19-2,9.85,9.85,0,0,1-.07-2c-.45-.33.08-.94-.37-1.27,0-.37-.16-.8,0-1.08a2.78,2.78,0,0,0,.19-1.35c0-1.06,0-2.11,0-3.17l-.22-.37a1.26,1.26,0,0,0,.11-1.14c-.19-.56-.38-1.12-.56-1.67l.45-.45c0-.43-.41-.79-.1-1.29a1.29,1.29,0,0,0,.07-1,4.1,4.1,0,0,1-.19-1.83c0-1.95,0-3.91,0-5.87a1.37,1.37,0,0,0-.2-1,.61.61,0,0,1,0-.6.86.86,0,0,0,.21-.72c0-1.37,0-2.75,0-4.12,0-.38-.25-.66-.23-1l.22-.22v-4.29a3,3,0,0,0,0-.79,2.21,2.21,0,0,1-.22-.7c0-.33.32-.51.25-.86a5,5,0,0,1,0-.95c.46-.46.13-.93,0-1.39l.21-.24c-.06-.34-.39-.68-.2-1a2.17,2.17,0,0,0,.2-1.19v-2.38a4.82,4.82,0,0,1,0-1.57,4,4,0,0,0,.18-1.35,2.13,2.13,0,0,0-.2-1.35c-.1-.13,0-.4,0-.6a1.85,1.85,0,0,0,0-1.58c-.09-.28-.15-.57-.22-.86l.22-.22c0-.35-.36-.66-.22-1a2.74,2.74,0,0,0,0-2.21.82.82,0,0,1,.11-.74,1.71,1.71,0,0,0,.12-.72l-.25-.25c0-.42,0-.84,0-1.27a5.89,5.89,0,0,1,0-1.26c.11-.46-.26-.76-.25-1.18a10.33,10.33,0,0,1,.21-1.18c.09-.78,0-1.59,0-2.38,0-.29-.2-.46-.23-.7s0-.47.06-.6.15-.48.15-.73c0-.79,0-1.59,0-2.36l-.24-.24a4.11,4.11,0,0,1,.45-1.72l-.25-.49.25-.28c-.06-.42-.5-.81-.06-1.27.11-.12.06-.26,0-.4a.72.72,0,0,1,0-.86,1,1,0,0,0,.06-.85l-.41-.46c.55-1.33.55-1.33.25-2.14l.22-.37v-4.14l-.2-.23a3,3,0,0,0,.16-1.63c-.32-.24-.18-.58-.17-.88a3.36,3.36,0,0,0-.38-1.41l.27-.27v-2.56a.79.79,0,0,0-.58.58l.27.53-.49,0c0,.33.28.42.41.62a10.8,10.8,0,0,0,.12,1.08c-.41.24-.29.78-.54,1.14l.46.58-.3.84c-.33-.06-.61,0-.6.52l.67.18v1.08l-.33.34-.46-.45.14-.76c-.48-.47-.48-.47-.67-.47l-.23.2a2.05,2.05,0,0,0,.21,1.22l-.82.27-.39,1.26c-.54-.19-1,.2-1.49.21-.09,0-.18.22-.27.35l.72.79v.45l1,1-1.23,1.23L58,382.44l-.38.23L57,382.4c0,.48-.12.92.16,1.37a.87.87,0,0,1-.16,1s.06.17.1.26-.08.17-.11.26a2.37,2.37,0,0,0-.09.39c-.32-.09-.36-.52-.76-.54l-.5.5,0,.62h.65l.59-.59a4,4,0,0,0,.49.16l.28.86-.47,0,.22.59c-.1.32-.46.37-.43.72l.68.75,0,.71-1.1.37c-.12-.12-.23-.23-.35-.33.1-.2.46-.25.3-.57-.21,0-.45-.09-.68.14l.38.43a.77.77,0,0,0,0,.89l-.33.33c0,.15,0,.3,0,.46l-.45.46c0,.08,0,.18,0,.29s0,.1,0,.15l-.33.33-.33-.34c0-.35.25-.63.23-1,0-1.16,0-2.32,0-3.47l.26-.26-.25-.52A4.28,4.28,0,0,1,55.2,385a.79.79,0,0,0-.13-.73.71.71,0,0,1,0-.86c.06-.07.12-.23.09-.27a1,1,0,0,1,0-1.25c.06-.11-.12-.36-.2-.53-.16-.38.38-.68.16-1s-.14-.7-.15-1.05a2.62,2.62,0,0,1,.2-1.5c.19-.32-.2-.65-.21-1l.22-.23v-4.72l.3-1,.27-.26c.36.1.36.1.56-.3-.33-.16-.38.2-.56.3l-.35-.34v-2.69l-.26-.26a1.53,1.53,0,0,0,.21-.37,5.11,5.11,0,0,0,0-.78V355.28l.25-.25-.25-.52a1.36,1.36,0,0,0,.22-1l-.22-.22c0-.1,0-.23.07-.29a.69.69,0,0,0,.09-.86.77.77,0,0,1-.14-.72c.43-.85.06-1.75.26-2.68l.18-.17-.24-.67.22-.23v-1.13l-.22-.21c0-.36.28-.64.24-1s0-1,0-1.43a2.89,2.89,0,0,1,.21-1.17c-.07-.08-.14-.15-.2-.23,0-1.27,0-2.54,0-3.81,0-.55-.15-1.13.21-1.66a.68.68,0,0,0-.05-.6c-.28-.39-.1-.81-.16-1.2.39-.51.21-1.1.21-1.66,0-1.85,0-3.7,0-5.55a1.6,1.6,0,0,1,.21-1c.27-.36-.32-.76-.12-1.12a2.57,2.57,0,0,0,.12-1.22c0-.17-.15-.34-.23-.51l.5-.5-.23-.46a2.79,2.79,0,0,1,.18-1.54l-.2-.24v-2.85l.2-.24a5.45,5.45,0,0,1-.08-3c.11-.43,0-.82.1-1.23-.42-.38-.14-.89-.23-1.33l.2-.24a2.41,2.41,0,0,1-.19-1.16l.22-.22v-4.93l.22-.22c0-.36-.25-.63-.23-1,0-.94,0-1.89,0-2.71l.25-.5-.26-.27.24-.67-.23-.23a1.72,1.72,0,0,0,0-1.56l.22-.23c0-.42-.33-.76-.11-1.29a2.57,2.57,0,0,0-.11-2.08l.56-.55.42.36c.69-.29.54-.95.82-1.38-.24-.16-.32-.47-.64-.45l-.29.24.09.83-.4.4-.33-.34v-3.38l.33-.33.29.29c.18.14.47-.13.51.23l-.72.8.19,0-.21.56h.52l.68.68.71,0c.52-.52,1-1,1.56-1.55,0,0,.1,0,.15,0l.27.24c-.06.12-.13.24-.18.37a.94.94,0,0,0-.06.29c0,.15,0,.31,0,.45s.46.31.44.66l-.66-.23,0,.47-.77.78c-.17-.11-.23-.36-.53-.33l0,.42-.43,0-.43.44a1.61,1.61,0,0,0,.2,1.13l-.34.33-.44-.45c.09-.36.09-.36-.3-.56-.16.33.19.38.3.56l-.57.57c0,.33.23.4.34.56a.26.26,0,0,0,0,.44c-.1.11-.24.19-.29.31s0,.24.07.37-.46.24-.3.56c.39-.2.39-.2.3-.56.1-.1.24-.19.29-.31s0-.24-.07-.37a.26.26,0,0,0,0-.44l.67-.68.35.35-.24.66.26.23.64-.21c.35.17.15.5.32.77.3.06.34.6.8.56l1.8-1.8s0-.1,0-.24l-.69-.69.49-1.29-.24-.23.32-1.06.63-.64L62,292.5l-.27-.82A3.4,3.4,0,0,1,62,291c.23-.38.15-.91.59-1.18a1,1,0,0,1,.26-.08l.37.24c.29-.19.59-.31.57-.7L62,287.52s-.1,0-.15,0l-.55.26c-.1-.28-.46-.33-.42-.74l1.8-1.8,0-.64c-.24-.38-.77-.09-.94-.51,0-.13-.13-.26-.18-.38l.47-.47v-.65a13.81,13.81,0,0,0-1-1l-.18.54a1.91,1.91,0,0,0-1.2.21s0,0-.08-.08l0-.58.78-.78c.4-.16.62-.27.85-.34.07,0,.18.07.27.1-.11.19-.46.24-.3.56.39-.19.39-.19.3-.56l.32-.32c0-.32,0-.63,0-.94,0-.13.15-.24.32-.51l-1.42.16-.74-.73-.45,0c.11-.48-.21-.66-.51-.87l-.27.11a1,1,0,0,0-.88,0l-.14.36.35.35a1.37,1.37,0,0,0-.37.63c-.11.4-.1.9-.53,1.17a10.1,10.1,0,0,1-.12-2.12l.24-.24c0-.35-.29-.63-.24-1a7.9,7.9,0,0,0,0-1.09,7.92,7.92,0,0,1,0-1.09,5,5,0,0,1,.33-1l.67.67-.42.47.45.4a.94.94,0,0,0,0-.87l.45-.44c.22.23.5,0,.79.13l2.06-2.06.58.27.69-.69c0-.17.08-.37.13-.56s.11-.38.19-.64l.5-.49,1,1c-.19.61-.86.86-1.15,1.4a2,2,0,0,1,.27.81l.44,0c.07.1.18.18.18.26a3.91,3.91,0,0,0,.22,1.65,1.83,1.83,0,0,0,.46.76,4,4,0,0,0-.23,1.8l-.22.22c0,.35.4.69.21,1s-.12.94-.67,1.21c.09.51.18,1.05.27,1.58l-.48,0-.48.48.21.39.48,0,0,.46.24.24-.28.57.52.15-.28.43.24.48c0,.3-.33.38-.45.6v.79c-.31.31-.95-.23-1.14.49l1.87,1.88c-.1.16-.18.28-.27.4s-.18.23-.29.37l.73.73.65.05.47-.47c0-.06,0-.13,0-.17-.15-.2-.31-.39-.45-.57.14-.6.61-.26.87-.41a1.8,1.8,0,0,0,.39.33c-.11.18-.3.34,0,.38a2,2,0,0,0,0-.38c.54-.52,1.1-1.08,1.68-1.65-.11-.54-.69-.74-1-1.21l.26-.39c0-.32-.37-.64-.21-1a1.63,1.63,0,0,0,.2-1l-.93-.94.29-.6-.26-.31c-.36,0-.41.33-.65.41l0,.95-.24.21c-.15,0-.22,0-.2-.12.06-.37-.35-.62-.24-1,0,0-.07-.07-.1-.11l-.33-.32a1.78,1.78,0,0,1,.21-1c.11-.27-.12-.62.14-.89s.1-.25,0-.4-.16-.46-.25-.69-.08-.18-.12-.27l.28-.48v-2.13l.37-.36.05-1c.29-.15.29-.15.61,0l.07,1.05,1.09.37.22-.26c0-.35-.5-.6-.08-1.06l.39-.11c.3-.31.08-.69.14-1l.34-.34a.25.25,0,0,0,.39.05c.17-.13.28-.3.06-.5.22-.14,0-.38.14-.55l.42,0c0-.35-.31-.43-.46-.67l0-1.12.41-.41,0-.95.44-.44a.83.83,0,0,0-.1-.29c-.25-.27-.52-.52-.78-.79a3.49,3.49,0,0,1,.17-1.49,4.24,4.24,0,0,0,0-1.43l-.9,0-.48-.49a2.85,2.85,0,0,0,.23-.37c0-.09,0-.21,0-.3a3,3,0,0,1,.18-.42l.68.24c.34-.16.15-.52.3-.68a.84.84,0,0,0,.17-.73c0-.28.12-.48.27-.75l-.49-.56v-.64L70,259l0-.66-.4-.4.15-1.4c.19-.27.41.3.68.22.06-.22.06-.22-1.15-1.35-.05,0-.12,0-.15,0a1.58,1.58,0,0,0-.23.22h-.6l-.53-1.54.58,0,.77.53v-.72l-.44,0,.31-.93.87.62-.29-.8.46-.46c0-.45-.43-.56-.64-.86-.24-.62.42-1.16.17-1.76l.51-.63-.48-.59,0-.64.26-.26-.28-.57.5-.59-.24-.44c0-.28.39-.57.2-.92s.51-.56.11-1c-.2-.22-.21-.63-.31-.95l.46,0,.21-.24c0-.32-.3-.41-.47-.67l.07-.66.66-.66,0-.57c-.21-.45-.54-.23-.77-.39l-.37-.94A6.44,6.44,0,0,0,70,238c.07-.24.15-.58,0-.74-.32-.44-.11-.91-.17-1.33.15-.3.44-.22.71-.26a1.79,1.79,0,0,1-.25-.56,1.43,1.43,0,0,0-.23-.55,8.26,8.26,0,0,1-.24-1c-.1-.35.33-.52.23-.86s.17-.67.22-1l-.49-.49a5,5,0,0,0,.48-.72,4,4,0,0,0,.21-.84l-.16-.19a4.44,4.44,0,0,1,.41-2.24l-.24-.25c0-.46,0-.93,0-1.4s-.4-.82-.2-1.27l.44,0c-.13-.42-.49-.58-.6-.74l-.32-1,.66-.66c-.08-.34.18-.57.24-.88l-.67-.68a2.67,2.67,0,0,0,.22-1.31c.35-.4.19-.88.23-1.38l-.41-.45a2.84,2.84,0,0,1,.59-2.23c.18-.43-.1-.78-.19-1.16l.22-.22c0-.22,0-.22-.41-.65a3.4,3.4,0,0,1,.11-1.33,5.07,5.07,0,0,0,.11-1.43l.2-.19c-.13-.47-.47-.93,0-1.4,0-.25.12-.53-.12-.74s0-.51-.15-.76l.5,0c0-.46-.51-.5-.61-1.05.08-.26.23-.72.38-1.18l-.23-.23,0-1.59.21-.21a4.49,4.49,0,0,1,.22-2.57c-.13-.32-.28-.63-.38-1a1.4,1.4,0,0,1-.05-.61c0-.18.22-.38.19-.53s-.25-.32-.21-.55a1.92,1.92,0,0,0,0-.35l.44-.45c0-.3,0-.61,0-.92a1.44,1.44,0,0,0-.16-.89c-.15-.22-.06-.61-.08-.94l-.22-.22.46-1.23-.22-.38a1.3,1.3,0,0,0,0-1.44l.47-.57c0-.3-.38-.53-.22-.85a4.05,4.05,0,0,0,.21-2,5.22,5.22,0,0,1,.21-1.18,5.88,5.88,0,0,0,0-1.26l-.24-.42.24-.37v-.62l-.23-.23,0-1.12.19-.21a2.37,2.37,0,0,1,0-2l-.26-.27.22-1.07-.21-.32.24-.4a2.06,2.06,0,0,1-.21-1.28,3.42,3.42,0,0,0-.23-1.79l.25-.29c0-.31-.06-.68-.09-1.13l-.14-.18c.24-.77.49-1.56.72-2.33l-.54-.69.27-.44a3.11,3.11,0,0,0,0-.85c-.11-.37.31-.54.23-.87l-.46-.46.46-1.24-.24-.51.25-.25c0-.74,0-1.47,0-2.2.09-.09.15-.17.22-.25a9.71,9.71,0,0,1-.23-2.74l-.2-.24c0-.09.06-.18.1-.27s.08-.18.14-.3L71,158.8a4,4,0,0,0-.17-1.09c-.15-.3-.08-.69-.44-.94s-.18-.63-.45-.93-.3-.7-.55-1-.09-.72-.27-1-.15-.79-.23-1.21l-.44-.44c-.54.1-.72.7-1.19.91l-.56-.27c0,.69.5.64.87.79,0,.31-.33.39-.44.6l0,.48-.59-.27-.91.91-.32,1.25.72.8-.31,1-.36.36,0,.45h-.35c0,.07-.09.2-.07.21a.65.65,0,0,1,.23.55,1.81,1.81,0,0,0,.23.51.49.49,0,0,1-.52.3c-.18,0-.18,0-.4.37a1.4,1.4,0,0,1,.89.52l-.5,1.55-.38,0a.69.69,0,0,0,.82.66s.07.06.07.09a6.51,6.51,0,0,1-.1,1.54,1,1,0,0,0,0,1c.28.41-.07.77-.15,1.14l.22.27-.08,1.64-.47.52.62.15c.27.2.1.49.19.76l-.7.77c-.05.35.56.49.17.83l.49.5c.18.64-.63,1.26,0,1.86l-.15.29a.94.94,0,0,1-.09.12c0,.3.31.51.24.86s-.35.52-.24.86c-.37.2-.06.73-.43.93a.86.86,0,0,1-.29.79l.55.7-.94.94c0,.41.29.49.45.75l-.06.65-.43.55.29.44-.52.71.71.79v.83l.69.78-.26.56.23.26a4.11,4.11,0,0,1-.07,1.29l-.62.1-.41.41c0,.1,0,.23.06.29L65.39,190c-.29.44-.69.7-1,1.06v.65l.65.66a1.62,1.62,0,0,1-.19,1c-.18.34.18.66.21,1l-.22.22c-.06.33.26.42.48.83l0,.52-.33.25-.35-.21,0-.52-.48.23.27.57-.25.54.76.77-.3.45.24.49a1.36,1.36,0,0,0-.23,1l.68.68c-.1.55-.69.73-.92,1.24l.23.37c0,.07,0,.19-.07.25-.51.53-1,1-1.56,1.57.36.54.86.86,1.2,1.33,0,.41-.46.54-.67.84l0,.85-.25.45.46.47a2.17,2.17,0,0,0-.19,1.17l.26.23.53-.25c.2.26.05.57.1.88l.67.67a2.43,2.43,0,0,0-.22,1.3c-.49.52-.49.52-1.57.75l-.67.67c0,.34,0,.37.64.45l.78.78a.89.89,0,0,1-.09.46,1.27,1.27,0,0,0,0,1.41,3.71,3.71,0,0,1,.16,2.11,1.3,1.3,0,0,1-.19.37l.48.48c-.11.33-.21.66-.32,1-.27.23-.57.13-.87.07-.33-.31-.1-.7-.16-1.05-.48.12-.82-.51-1.34-.14,0-.05,0,0,0,0l.67.84a.81.81,0,0,1-.49.17l-.46.47-.53-.29c-.18-.05-.26.29-.47.4a3.51,3.51,0,0,1-.69.18c0,.47.34.8.16,1.23l-.45,0-.66.67c0,.37.27.58.88.68l0,.73-.79-.19-.17.83,1.09.42a1.44,1.44,0,0,0,.63-.66l-.59,0,.22-.42.48,0c.09-.74.63-1.38.44-2.17l.53-.53c.33.05.44.32.65.51l-.26.49.07,1c.39,0,.54-.5.86-.66h.64c.34.22.21.56.23.88l-.39,0-.28.87.68.68c.19.07.51-.09.68.28l0,.64-.62.61,0,.53-.37-.18C63.21,226.89,63.07,226.86,63,227Zm1.12,95.39a.27.27,0,0,0,0-.44l.41-.49-.5-.41-.29.51.37.38a.27.27,0,0,0,0,.45c-.16.15-.16.3-.06.38l-.07.64c-.33.33-.33.33-.38.66.61-.43.61-.43.83-.91l-.32-.32A.27.27,0,0,0,64.08,322.41ZM74.81,182.9c.13-.22.32-.38,0-.42,0,.11,0,.22.11.24-.13.23-.32.39,0,.43C74.91,183,74.9,182.92,74.81,182.9ZM70.62,400.19c-.12.23-.31.39,0,.43a1,1,0,0,0-.07-.34c.16-.15.16-.3,0-.36.13-.22.32-.38,0-.42a.78.78,0,0,0,.07.33C70.43,400,70.43,400.13,70.62,400.19ZM63.89,339.6c-.12.22-.31.38,0,.42a.8.8,0,0,0-.08-.33c.17-.15.17-.3,0-.36.12-.23.31-.38,0-.43a1,1,0,0,0,.07.34C63.69,339.39,63.69,339.54,63.89,339.6Zm13.65,26.79c.19.11.24.46.57.3-.2-.39-.2-.39-.48-.26-.22-.12-.38-.31-.42,0A.8.8,0,0,0,77.54,366.39Zm-3.81,6.51c.36.1.36.1.56-.3-.32-.15-.38.2-.47.34-.23-.12-.38-.31-.43,0A.8.8,0,0,0,73.73,372.9Zm-13.24,4.72c.18.1.24.45.56.29-.2-.39-.2-.39-.47-.26-.23-.12-.38-.31-.43,0A1,1,0,0,0,60.49,377.62Zm29,99.33c-.13.22-.32.38,0,.42a1,1,0,0,0-.07-.33.88.88,0,0,0,.06-.79c-.09,0-.21,0-.26.1a1.47,1.47,0,0,0-.15.34A.71.71,0,0,0,89.48,477ZM64.07,359.2l-.41.48.45.4a.94.94,0,0,0,0-.87l.44-.45a2.74,2.74,0,0,1-.41-.47c.36-.33-.39-.55-.14-.89l-.23-.1-.27.35a6.27,6.27,0,0,1,.61.67A.77.77,0,0,0,64.07,359.2Zm-6.76-22.34c.12-.23.31-.38,0-.43a.72.72,0,0,0,.06.33l-.42.49.51.41.29-.52A.79.79,0,0,0,57.31,336.86Zm-.4,69-.49-.42L56,406l.51.29.38-.38c.36.1.36.1.56-.3C57.14,405.44,57.08,405.79,56.91,405.89ZM62.7,164.5c.12-.23.31-.38,0-.43a2.71,2.71,0,0,0,.05.37,1,1,0,0,0-.19.18c-.05.08-.08.17-.12.25.28.32.28.32.94.2A4.61,4.61,0,0,0,62.7,164.5ZM77.55,432.82l-.28-.11a2,2,0,0,0-.78.9l.43.25c.37-.2.26-.48.3-.71l.32-.32.28.11a2,2,0,0,0,.78-.9l-.43-.25c-.37.2-.26.48-.3.71ZM60.49,202.56c-.1.19-.46.24-.3.56.4-.2.4-.2.3-.56.18-.23.48-.37.58-.75l-.39-.32c-.22.28-.6.35-.51.75ZM58,321.82c.13-.22.32-.38,0-.42,0,.11,0,.22.33.13l-1.13,1.12.49.43A2.49,2.49,0,0,0,58,321.82Zm2.47-5.61c.13-.22.32-.38,0-.42,0,.11,0,.22.63.46-.1,0-.22-.05-.29,0s-.26-.24-.24,0l-.2.68c.38.3.57.24.73,0C61.05,316.67,61.05,316.46,60.45,316.21ZM61.38,357c-.16.35-.27.69-.13.81l1,.28c-.25-.56-.64-.76-.86-1.15l.08-.2a1.93,1.93,0,0,0-.9-.78l-.26.45.47.47A1.75,1.75,0,0,1,61.38,357Zm2.71-38.58.41-.49-.5-.41-.29.51.37.38-.33.33a5.23,5.23,0,0,0,0,1.19l.3.17a2.25,2.25,0,0,0,.32-1.36ZM62.47,155.3c.13-.23.32-.38,0-.43a.93.93,0,0,0,.07.33l-.34.34c.06.44-.14.91.13,1.27l.8.12c0-.39-.31-.49-.46-.7S62.73,155.53,62.47,155.3ZM57.35,378.06c-.31-.26-.44,0-.58.22.15.4.55.59.86,1l-.62.08-.5.49c.39.52-.49.58-.41,1l.28.42-.24.08-.26.57L57,382l1.18-1.19s0-.1,0-.15l-.48-.54.29-.58-.37-.36.56-.56-.3-.9C57.57,377.71,57.51,378,57.35,378.06Zm0-62.39c-.11.19-.46.24-.3.56.39-.19.39-.19.24-.61.41-.17.87.12,1.2-.19.18-.24,0-.5.1-.78l-.64.24-.49-.33c-.07.35-.52.37-.45.78Zm3.37-7.84.42-.49-.51-.41-.29.51.34.35A4.41,4.41,0,0,0,60.6,309c.2.15.29.44.59.46.24-.17.56-.29.53-.67Zm3.58-1.36c.46-.31.35-.85.58-1.28l-.4-.19-.82.82.64.65c-.43.28-.33.81-.57,1.18l.51.51.61,0,0-1.1Zm1.35-165.18-.34.34v.62l.86.86c.09-.36.51-.38.48-.8l-.41-.41c-.1-.21.07-.45-.15-.61a.77.77,0,0,0,0-.89l.56-.57v-1.54l-.24-.36c.15-.43.72-.52.7-1l-1.39.45a.72.72,0,0,0-.19.11l.4.67-.18.49c.2.34.55.41.44.74l-.42,0v.65l.34.34a6.26,6.26,0,0,0-.51.52A.24.24,0,0,0,65.65,141.29ZM64.34,315.36c-.12.22-.31.38,0,.43a.93.93,0,0,0,0-.31,9.79,9.79,0,0,0,.29-2.4c-.19-.12-.27-.42-.59-.44a1.75,1.75,0,0,0-.75.88l.71.71-.07.84C64.08,315.23,64.19,315.34,64.34,315.36Zm-8.08,58.8c-.12.23-.31.38,0,.43a.67.67,0,0,0-.07-.34l.34-.33,0-.5.61.3.41-.4c.15-.15.3-.29.44-.45s.36-.24.32-.5l-.11-.12-.7-.15-1.66,1.66s0,.1,0,.15A.71.71,0,0,0,56.26,374.16Zm18.82-205,.56-.56v-.62c-.49-.19-.9.13-1.45.28l.9.9-.55.55h.21l-.27,1.12.7.71.08.53.61-.62v-.61l-.47-.47.07-.84ZM72,641.58c.51-.51.71.07,1-.08.35-.37.09-.87.17-1.32l-1.1-1.09s-.09,0-.14,0c-.27.14-.54.28-.56.66l.7.69a2,2,0,0,0,.09,1c-.44.6.35,1.15,0,1.8l-.41.41.28.44c.09.34-.12.7-.22,1.11.23.09.29.43.62.4l.23-.2c.11-.34-.08-.71.14-1s.09-.76-.1-1.13c0,0,.12-.15.13-.24,0-.25.07-.5.1-.73A1.82,1.82,0,0,0,72,641.58ZM73.47,624c.12-.23.31-.38,0-.43a.84.84,0,0,0,.08.34c-.23.22-.46.43-.67.67s-.5.37-.58.74c.51.32,0,1,.43,1.37l0,1,.36.23.49-.49c.14-.45-.09-1,.15-1.47s0-1.12.13-1.66A.73.73,0,0,0,73.47,624Zm2.06-211.6c.18-.24.51-.37.55-.66H75c0,.29.37.42.55.66l-.78.78v.46l-.41.41c-.19.11-.48-.13-.48.24l.44.45v.47c.19.18.36.38.56.55s.37.51.74.58l1.94-1.94ZM61.16,304.23l-1.67-1.68H59l-.55-.55.36-.43c-.47-.59-.47-.59-.7-.59l-.24.3c.09.34.38.48.57.71l-.43.43-.88-.15.3.65-.25.51.25.25v1.12l-.26.26c.14.27-.19.74.38.86.43-.05.25-.46.41-.67a12,12,0,0,1,.6,1.12l-.33.24-.56-.27c-.15.25-.47.32-.47.63l.81.29c.41-.33,1.31-.12,1.21-1.06L60.42,305c.56-.08.56-.08.63-.36s-.07-.33.1-.42l.49.41.41-.5-.51-.3ZM76.2,396l.35-.35-.23-.63.56-.1.17-.59.39-.05c0-.11,0-.18,0-.21-.33-.34-.68-.67-1-1a.79.79,0,0,1-.1-.27c.18-.34.62-.49.69-.93l-.48-.05c.15-.71-.38-1.31-.21-1.94l-.25-.4c.11-.21.34-.33.22-.57s-.29-.45-.61-.42l-.24.21,0,.46-.46,0-.21.23a5.58,5.58,0,0,0,.23.69c.16.36-.3.54-.23.86l.34.34-.65.64c.44.26.32.67.28,1-.36.5-.88.8-1.15,1.3l.5.51h.47a9.35,9.35,0,0,1,1,1l-.56.56-.85-.11V397l.44,0c0,.5-.57.56-.67,1v.6l.89.89a2.25,2.25,0,0,0,.23,1.32,8.2,8.2,0,0,0-.59.59c-.19.23-.53.36-.54.76L75.61,404s.1,0,.15,0c.53-.07.16-.67.54-.87l.45-.05.44-.43a2,2,0,0,0-.2-1.13c-.13-.42.26-.72.28-1.12l.55.23c.22-.57-.2-1-.3-1.51L77,399c-.11-.16.08-.37-.23-.41l-.69.64-.67.06-.48-.48a1.21,1.21,0,0,0,0-.33c-.07-.18-.17-.35-.25-.52l.72-.72.63,0,1,.87s.08,0,.2-.07c-.26-.46-.77-.71-1-1.14l.27-.56ZM75,445.55c-.18.37,0,.61-.21.83s0,.5-.08.75-.17.35-.21.54.07.58,0,.77-.12.38,0,.65.19.56.29.84l-.47.59c0,.26.26.42.25.71,0,1,0,2,0,3l-.24.36c.12.46.73.53.68,1l-.44.45c0,.64,0,1.27,0,1.9,0,.3-.22.45-.26.76l.69.69a2.14,2.14,0,0,0,0,.86,1.14,1.14,0,0,1,.19.71c.22.15.3.45.64.46L77,460.23c-.57-.57-.08-1.14,0-1.74l.78-.78-.14-.67c.39-.57.92-.87,1.19-1.37l-.73-.73-.45,0v-.71l.67-.68v-.39l.49,0c.27-.34.19-.9.8-1.22-.54-.21-.34-.61-.4-.95s-.33-.75-.21-1.18l.21-.22v-1.13l-.65-.65c0-.16.05-.4,0-.46-.33-.25-.24-.6-.19-.87s.34-.38.06-.65,0-.5-.25-.69a5,5,0,0,1-.52-.51c.06-.31-.08-.58.16-.8s-.22-.43-.14-.66-.24-.44-.24-.69l.32-.6-.76-.21c-.16-.25.47-.32.08-.68-.26.23-.5.51-.63.63a1.18,1.18,0,0,1-1.17-.12,1.67,1.67,0,0,0-.76.89c.3.23.45.61.85.69l.65-.51.55.5.42,0,0,.65c-.23.14-.31.46-.68.45-.19-.19-.4-.42-.64-.63,0,0-.17,0-.28,0,.07.35,0,.64-.38.64l-.38-.25-.38.26,0,.64.47.47.87-.27c.25-.06.29-.43.66-.4.07.09.22.2.23.32s0,.42.23.55l.48.07c.3.22.14.46.22.64s.36.22.11.45l-.53-.26-.62.56a3.78,3.78,0,0,0-1.47-1.06c-.22-.13-.38-.32-.42,0C74.63,445.9,74.74,445.89,75,445.55Zm3.22-300.19-.58-.59c.1-.33.2-.65.31-1s.49-.39.6-.75c-.09-.09-.2-.27-.3-.27a4.1,4.1,0,0,1-1.34-.23c-.12,0-.2,0-.17-.15,0-.42.49-.21.67-.41v-.31c.33-.09.66-.19,1-.26a.39.39,0,0,0,.36-.43l-.75-.75.14-1.1-.34-.64.76-.76a1.23,1.23,0,0,1,0-1.45c-.23-.12-.7.14-.67-.43l.45-.56c0-.27.11-.56-.15-.76l-.55-.16c.06-.28.33-.4.45-.56s.45.14.48-.23l-.43-.44c0-.25-.09-.49.05-.71.49-.06.49-.06.55-.45-.31,0-.65,0-.62-.44l.34,0c0-.55.07-1.07.1-1.54-.17-.26-.49-.35-.45-.69l.24-.23-.24-.66.51,0,.2-.39-.57-.56.13-1.09-.3-.62.48,0a1.41,1.41,0,0,0-.22-1l.25-.51-.26-.26a9,9,0,0,1,.23-2.92l-.46-.46c.08-.28,0-.56.19-.88s-.22-.6-.2-1,.21-.68.25-1l-.23-.22c0-.53,0-1.05,0-1.6l.21-.21V115l-.48-.57.52-.75c-.25-.34-.62-.5-.72-.89l.5-.15-.54-.76.48-.48a1.68,1.68,0,0,0-.19-1c-.18-.34.18-.66.21-1h-.65l-.8.72-.4-.34.28-.45,0-.58-.94-.94c-.28,0-.39.19-.38.44l.68.69c0,.51,0,1-.05,1.64-.08.14-.4.22-.41.53l.25.51-.5.5c.12.27-.09.46-.18.69s.08.58,0,.77c-.25.4-.09,1.08-.77,1.2l-.33-.2a5.11,5.11,0,0,1,0-1c.06-.35-.34-.53-.25-.87s-.14-.67-.22-1l.21-.24a4.19,4.19,0,0,0,0-1.18l-.57-.58V107l-.28-.33a2.5,2.5,0,0,0,.23-1.3,11.35,11.35,0,0,0,0-1.43,4.55,4.55,0,0,0-.44-1.25l.47-.59a1.4,1.4,0,0,1-.24-1,2.2,2.2,0,0,0-.19-1.12l.21-.39-.28-.42a3.62,3.62,0,0,0,.47-.62,3.06,3.06,0,0,0,.18-.69L72.89,97h-.24V93.88l.07-.07a2.45,2.45,0,0,0-.08-.29,2.55,2.55,0,0,0-.14-.24L73,92.05l-.26-.26.21-.6c-.12-.3-.46-.37-.42-.71l.43-.44a2.4,2.4,0,0,1,0-.47,1.72,1.72,0,0,1,.24-.34l-.27-.55.48-.48a1.65,1.65,0,0,1,0-1.57L73,86.19c-.17-.54.32-1,.2-1.6l-.91-.91a1.41,1.41,0,0,0,.25-1.07l-.22-.23,0-1.13.64-.64c-.08-.34.17-.57.24-.86l-.66-.19,0-1-.21-.24c.15-.44.29-.87.45-1.36l-.6.27-.4-.3c0-.26,0-.63.11-1s-.35-.52-.23-.86-.24-.66-.22-1L72,73.4c.1-.63-.39-1.16-.22-1.78l-.47,0c.22-.53-.49-.66-.42-1.1a8,8,0,0,0,.94-1c-.25-.34-.62-.54-.49-1-.27-.25-.44-.59-.87-.72l0,.41-.65.19c0,.39,0,.7,0,1l-.29.33c.51.29.24.79.31,1.23.35.07.74-.16,1.16.28l-.09.6-.56.1c-.15.5,0,1-.27,1.39a1.06,1.06,0,0,0,0,.92,1.94,1.94,0,0,1,.2,1,3.84,3.84,0,0,1-.19,1.19,1.36,1.36,0,0,0,.19,1.32c-.11.29.31.52.2.69a2.15,2.15,0,0,0-.2,1.19c-.47.46-.13.93,0,1.4l-.44.44c0,.47-.39.86-.22,1.34l.44.45,0,.45c.14.23.46.31.44.63,0,0,0,.11-.09.12a6.63,6.63,0,0,1-1.12.36c-.14,0-.19,0-.14.19l.23.37-.23.48c.09.19.21.32.21.45a.87.87,0,0,0,.22.56c.08.1,0,.3,0,.48.29.29.59.58.88.88,0,0,0,.11,0,.17l-.46,0-.41.41c-.07.6-.56,1.17,0,1.73l-.49.6,0,.65.66.66v.65l-.53,0c.2.29.38.53.56.78l-.48.6c.07.41-.12.84.12,1.21l.53.15a4.7,4.7,0,0,1-.41,2.19l.24.26c-.13.38.12.81-.14,1.2s0,.82-.11,1.22l.45,0v.65l-.48.48c0,.33,0,.71,0,1.07a2.53,2.53,0,0,1-.21,1.18l.43.43c0,.32.11.66-.16.84,0,.72,0,1.41,0,2,.1.24.17.37.21.51a2.68,2.68,0,0,0,0,.3,3.24,3.24,0,0,0,.22.4l-.51,0c-.13.22-.45.3-.43.62l.29.36c0,.29,0,.71-.07,1.13s.15.75-.22,1c.07.41-.15.84.11,1.22s0,.82.12,1.22l-.29.32a1,1,0,0,1,.28.93c0,.18-.23.37-.2.54s.25.31.21.54.33.4.22.7a8.52,8.52,0,0,0-.2.84l.21.26a6.83,6.83,0,0,1-.22,2.42c.14.22.45.3.43.64l-.52.53a3.54,3.54,0,0,0,.09,1,5.38,5.38,0,0,1,.41,1.25c0,.37.54.38.46.8a1.36,1.36,0,0,0-.4,0c-.16.08-.35.19-.22.43l.41.05c0,.35-.33.43-.61.95l.2.53a3.65,3.65,0,0,0-.56.13c-.07,0-.1.16-.21.34.52.28.53.87.73,1.37l-.23.23v.65l.42,0a2.81,2.81,0,0,0-.22,1.15c0,.34-.39.69-.19,1s.07.85.24,1.17a9.62,9.62,0,0,0,.42,1.1l-.66.18,0,.55-.44.44-.45,0c0,.34.28.42.43.65l0,.46c.12.21.44.29.44.59s-.54.37-.43.78l.42.42,0,1.13c-.22.13-.22.32-.24.54a1.81,1.81,0,0,1-.24.53l1.19,1.2c-.37.34.2.49.18.88l-.68.68c.13.75-.34,1.35-.26,2,0,.11-.14.24-.22.38.14.14.3.23.35.36.29.78.55,1.57.82,2.35-.22.3-.59.46-.69.87L71.33,151l.69.21,0,.55.65.65,0,.48.44.44c-.13.47-.47.94,0,1.4-.12.34.23.55.23.86s-.14.65.2.87c-.08.33.18.56.24.85s-.31.29-.19.54l.19.23c0,.26,0,.53,0,.79a1.8,1.8,0,0,1-.2,1c-.2.32.24.72.16,1a2.55,2.55,0,0,0-.18.87c0,.08.1.16.17.27s.52-.06.7.27l0,.42.68.77L75,164l.4,1.08a2.45,2.45,0,0,1,.59-.27c.22,0,.42,0,.55-.23a2.16,2.16,0,0,1-.14-1.61c.12-.29.19-.44-.07-.64a.8.8,0,0,0-.35-.81c-.06-.05-.07-.18-.1-.29l.46-.46,1,0-.13-.91c.5-.49.94-.94,1.38-1.39,0,0,0-.1,0-.16a1.61,1.61,0,0,1-.31,0,1.23,1.23,0,0,1-.26-.12c-.28-.42,0-.77.1-1.08l-.62-1.87.21-.46-1.36-.42c0-.26.08-.51.13-.9l.54-.54c0-.39-.38-.74-.17-1.16s.64-.4.62-.85-.46-.18-.67-.24l-.45-.45v-.65l.3-.3-.1-.79c.26-.3.47-.47.51-.85s.42-.55.72-.92c-.47-.26-.37-.65-.2-1.09a4.68,4.68,0,0,0,.67-.21c.37.1.37.1.58-.31C78.48,144.93,78.39,145.21,78.24,145.36Zm-6,337.17c0,.94-.78,1.6-.89,2.48l.44.44a5.1,5.1,0,0,0,1,0c.35-.06.55.22.86.25.63.07,1.18-.29,1.81-.25a14.9,14.9,0,0,0,1.89,0c.13,0,.26-.2.39-.2.46,0,.83-.33,1.33-.26a4.36,4.36,0,0,1,1.32.26c.11-.26.45-.33.41-.66l-.21-.24-1,0-.19-.35c.1-.33.6-.37.4-.86l-1.06-.36-.23.24-1-.32L77,482.1l-.47,0-.43-.43-.48,0-.38-.38-1.61-.07Zm3.78-99.45c-.75.71-.2,1.27-.17,1.82l.41,0c.13.41-.59.43-.35,1,.3-.32.57-.56.8-.82l0-.43.43-.05v-.82c.06-.28.58-.3.4-.7l-.44-.06a2.37,2.37,0,0,0,.26-1.53l-.45-.45a4.17,4.17,0,0,0,0-.79,2.21,2.21,0,0,0-.24-.52l.47-.46a2.58,2.58,0,0,0-.42-1.58c0-.05,0-.16,0-.24h.34c0-.48.4-.9.27-1.42a2.56,2.56,0,0,0,.23-1.49l-.24-.24.24-.67-.46-.46a1.39,1.39,0,0,0,.06-1.27.39.39,0,0,1,.06-.41.72.72,0,0,0,0-.86.93.93,0,0,1,0-.87c0-.13.12-.26.17-.38L77,369v-.65l.45-.45.49,0,.21-.35-.21-.27a2.9,2.9,0,0,0-1.6.15l0-.48-.42.26a1.81,1.81,0,0,1,.19,1.21l-.45.45.3.53c0,.26-.05.68,0,1.1s-.44.73-.21,1.22l.67.75c-.29.45-.24,1-.71,1.33,0,.38,0,.75.06,1.11a1,1,0,0,0,.2.34l-.28.42.52.65c-.17.52,0,1.07-.17,1.66a6.28,6.28,0,0,0-.12,1.85l-.19.24c.08.38.4.73.16,1.15-.12.11-.29.21-.33.34-.12.38-.2.77-.28,1.15a.4.4,0,0,0,0,.19ZM75.87,424h.48l.22.38-.46.47-.87,0c-.27.35-.66.5-.73.92l2.35,2.35.51-.51c.39,0,.75.08.74-.43l-.22-.23-.46,0v-.65l.43-.43,0-.48c.11-.21.43-.29.44-.6l-.48-.16c.19-.42.59-.62.84-.95a1,1,0,0,0,.09-.29l-.66-.66,0-.9-.24-.39.16-.28c.2-.75-.07-1.39.19-2l.57-.15-.23-.54.39-.74-.93.68-.58,0c-.34-.23-.45-.68-.9-.65l-1.79,1.8s0,.1,0,.23l.73.73-.58.78,1,1-.55.76.49.49Zm-1.8,92.45c.23,0,.5,0,.68.23,0,0,.27-.08.47-.15l-.12-1.22.34-.56-.46-.58c-.12-.58.38-1,.21-1.55s.13-.8.25-1.17.09-.83.23-1.17a2.94,2.94,0,0,0,.19-1.19c0-1,0-2,0-3,0-.22,0-.43,0-.64s.1-.52-.09-.75a3.37,3.37,0,0,0-1.45-.33c-.11,0-.19.2-.28.3l.28.56-.28.27c0,.23,0,.54.13.72a.74.74,0,0,1,.1.74c-.35.54-.13,1.11-.22,1.67-.41.17,0,.74-.43.93,0,0,0,.1,0,.13l.26.41c-.61.56,0,1.1,0,1.65l.4.05c0,.35-.32.42-.46.66l.23.65-.22.26c0,.28.09.59-.08.86h-.34c-.19.62.39,1.15.17,1.76ZM75,606.72l.17-.17c0-.56,0-88,0-88.54l-.91-.91h-.65l0,.45-.38.39c-.32,1,.43,88.75.4,89.66-.26.11-.72-.15-.69.42l.23.38-.38,1c0,.82.91.13.82.9l-.71.79.27.41c0,.41,0,.84,0,1.26s-.37.63-.22,1,.41.74.12,1.14,0,.82-.09,1.07l.63.21.46-.5v-1.32c.37-.27.14-.68.23-1a11.46,11.46,0,0,1,.44-1.1,4.92,4.92,0,0,1,0-.94c.08-.38-.27-.65-.21-1l.57-.58.3-1-.45-.46Zm-.25-113.21a5.6,5.6,0,0,0,0,.58c0,.24.23.41.25.7s-.37.52-.25.85c-.35.52-.14,1.19-.45,1.72.14.43-.19.78-.22,1.18s0,.84,0,1.26a3.42,3.42,0,0,1,0,.46l.53,0,.65.65c.75.48,1.09-.1,1.5,0,.21-.39,0-.69-.17-1l.26-.51-.26-.25a5.1,5.1,0,0,1,0-1c.06-.34-.25-.54-.25-.86s.11-.61-.19-.88a.66.66,0,0,1,0-.6,2.24,2.24,0,0,0-.09-2.08h-.25c-.35-.1-.4-.46-.71-.46Zm1.79-4.91v-1.12l-.44-.44,0-.83-1.54-.07-.46.46c-.08.66.31,1.17.45,1.77l-.32.24-.68-.33a1.92,1.92,0,0,0,.28.49c.36.27.27.73.47,1.08a.59.59,0,0,1-.14.72c-.06,0-.07.26,0,.27.43.16,0,.78.52.91l.5-.24.72.49.48-.48,0-.45.44,0c-.07-.27,0-.52-.12-.78a2.86,2.86,0,0,1-.33-1C76.27,489.05,76.24,488.76,76.53,488.6ZM77,473.08a3.49,3.49,0,0,1-1.72-.29,6,6,0,0,0-2.32-.6c-.68-.61-1.64-.46-2.12-1.11l-.7,0-.17.41.46.46,0,.47,1,1a.77.77,0,0,0,.28.1l.77-.69c.1,0,.17,0,.2.05l.41.4,0,.5c.31.21.43.66.87.63s.58.57,1,.68h.6l.77-.76a7.81,7.81,0,0,1,.84-.35c.27-.07.58.09.85-.1C78,473.3,77.15,473.79,77,473.08ZM61.72,333.51c-.21-.13-.29-.44-.67-.44-.44.44-.93.91-1.4,1.4-.17.18-.45.3-.39.62l1.56,1.56a2.34,2.34,0,0,1,.22.23s0,.1,0,.21c-.26.37-.77.62-1,1.13l.44.28.75-.7.48-.07-.29-.59.47-.46v-.48c.21-.13.29-.44.6-.44s.47.7,1,.65l-.53-.75h.15l-.19-.56c.38,0,.61.47,1-.09l0-.62-.7.26v-.88l-.38-.38C62.44,333.08,62.12,333.52,61.72,333.51ZM72,628.52c-.35.32-.23.64-.11,1a2.19,2.19,0,0,1,0,2.24,4.94,4.94,0,0,0-.09.75c.36.33.18.77.23,1.16l.67.67h.65l.54-.54a1,1,0,0,0-.08-.49c-.4-.57-.13-1.21-.21-1.81.4-.5.17-1.09.22-1.64a.62.62,0,0,0,0-.24l-.8-.8ZM68,452.39a3.16,3.16,0,0,0-1.36-.16l.27,1.54c-.16.26-.48.33-.48.68l.42,0c.14.22.59.25.45.63l-.58.13c-.24.64.27,1.12.18,1.69,0,.21.14.46.2.65l-.24.38c.1.17.17.3.25.42l-.26.55.39.31.31-.92-.22-.34c.1-.42.38-.36.58-.36v-3.45l-.15-.35.25-.25ZM72.69,618c.13.63-.15,1.25.23,1.84a.88.88,0,0,1-.09.72A2.29,2.29,0,0,0,72.5,622c.15.14.3.29.44.44h.65l.48-.47a6.78,6.78,0,0,1,0-1.49,5.67,5.67,0,0,0,.19-1.64l-.21-.21v-.47c-.29-.21-.43-.6-.85-.67ZM60.35,319.38c-.37-.05-.69-.46-1.12-.12l.47.64-.28.81-.41,0a1.75,1.75,0,0,0,.78.89l.54-.26.63.57c.26-.27.49-.48.69-.71.06-.06.05-.19.07-.25l-.24-.36c.14-.45.74-.52.68-1-.14-.22-.36-.18-.55-.24A2.45,2.45,0,0,1,61,319l-.64,0ZM77.24,438.87l.71-.17-.32-.41-.54.26c-.43-.09-.5-.69-1-.68l-1.56,1.57s0,.1,0,.19l1,1a15.74,15.74,0,0,0,1.25-1.18l.44,0Zm-18.15-97.7c.48-.2.58-.64,1.06-.71l.69.69.71,0,.21-.42-.88,0-.28-.86c.07-.16.37-.23.15-.47l-.53.24-.7-.55c-.23.61-.79.13-1.05.31l-.14,1.06Zm15.2-156c0,.42.49.82.07,1.27-.11.12,0,.25,0,.41a10.77,10.77,0,0,1,.41,1.21l.6,0,.24-.25c-.13-.47-.47-.93-.12-1.29,0-.63,0-1.15,0-1.71-.15-.1-.24-.42-.57-.35ZM62,372.76a1.21,1.21,0,0,0,.84-.14c0-.53,0-1.05,0-1.75l-.12-.2a2.24,2.24,0,0,0,.21-1.48l-.45-.44-.89.28,0,.57.59.16c0,.78,0,1.46,0,2.16l-.2.2ZM61,160.42a5.13,5.13,0,0,1,.58.13l.72.25c.25.17.35.62.83.56l.21-.35-.51-.64.27-.4a2,2,0,0,1-.22-.49,4.32,4.32,0,0,1,0-.81l-.36-.25L62,159c0,.44,0,.86,0,1.28,0,0-.08,0-.12,0l-.53-.27Zm.14,151c.06-.1.37-.18.38-.53a1.81,1.81,0,0,1-.4,0c-.17,0-.28-.3-.52-.15s-.43.15-.65.22c0,0,0,.1,0,.16l.21.21a1.88,1.88,0,0,0-.21,1.08l.24.41c-.08.21-.33.31-.2.55.41,0,.54-.44.8-.63Zm30.5,166.52a2.91,2.91,0,0,0-.42,2.27,2,2,0,0,0,.82.09l.44-.44a2,2,0,0,1-.22-1.16.78.78,0,0,0-.09-.3ZM76.15,409.22c.06-.24.1-.42.16-.6l.22-.54-.09-.05-.51.24c-.19-.12-.36-.22-.26-.46l.45,0c.14-.22.46-.31.42-.58l-.67-.12c-.26.43-.63.44-.82.54l-.3.73.29.81.51-.24Zm.22-303.89-.51-.5a2.47,2.47,0,0,1,.06-.29c.06-.13.13-.25.23-.44a3,3,0,0,0-1.41,1.4l1.11,1.1s.1,0,.23,0l.26-.37-.28-.42ZM59.26,462.57a7.27,7.27,0,0,1,.55.56c.21.22.37.08.51-.07s.34-.25.27-.49l-.38,0-.28-.85.29-.44-.46-.32-.5.49,0,.45-.43,0v.64ZM71.1,58.36c-.3.09-.53.3-.85.25a1.62,1.62,0,0,1,0,1.54c.26.24.44.57.9.72V59.08l.27-.4ZM60.82,344.28c0,.27-.13.67.41.68l.49-.49c0-.09,0-.16,0-.19l-1.55-1.55a.71.71,0,0,0-.19,0c-.08.09-.18.19-.26.3s0,.1,0,.16Zm16.74,21.16c-.57-.41-.88-.92-1.49-1.28,0,.34,0,.66.07.8.26.29.11.59.17.89s-.13.48.14.7Zm.65,70.26c-.56-.23-.26-.69-.33-1.08a2.2,2.2,0,0,0-.19-.34H77l-.23.23a2.58,2.58,0,0,1,.22.7c0,.42.66.57.46,1.07l.18,0ZM70.69,63.45c-.09.32-.46.36-.44.7l.43.54.08.52.55-.54.08-1.21c-.38-.1-.44-.6-.92-.61ZM58.35,310.83c.3,0,.62.16.92-.24,0-.39-.46-.57-.69-.86l-.44,0,0-.41-.68,0-.23.37.77.77.62-.29ZM60,376.65c-.35-.27-.5-.63-.9-.72-.32.31-.64.63-1,1,0,0,0,.1,0,.16l.22.21c.51.16.93-.21,1.41-.28C59.83,377,59.87,376.83,60,376.65Zm-2.4-44.17,1-1a5.06,5.06,0,0,1,0-.78,2.11,2.11,0,0,1,.24-.53l-.27-.27-.32.13V331l-1.07,1.07Zm17.6-152.92c-.33-.06-.43.26-.67.43l0,1.15c.27.19.36.51.69.43l.22-.22a1.4,1.4,0,0,0-.22-1l.25-.52ZM65,312.08,64.77,311c-.13-.08-.2-.39-.51-.39-.76.66-.75.66-.74.9l.3.3ZM60.41,448.91l-.49-.49H58.83a.51.51,0,0,0,0,.15c.15.19.38.36.43.59s0,.63.47.58l0-.43C60,449.33,60.28,449.36,60.41,448.91Zm10.44-92.4.07-1.69c-.23-.15-.32-.46-.73-.42l.06.74a2.14,2.14,0,0,0,.1.93ZM58.68,326c-.37-.3-.54-.65-.94-.77-.31.31-.64.63-1,1,0,0,0,.1,0,.15s.2.35.44.19c.06-.58.1-.62.45-.61s.29.43.63.45Zm4-126.12c-.17-.17-.25-.24-.16-.15l-.83-.21c-.22.31-.53.4-.44.76.23.07.27.43.62.41Zm-2.57,27,.66.13c.27-.39.69-.5.69-.93l-.17-.18c-.29-.17-.38.13-.55.15s-.51,0-.63.3ZM63.09,360c-.28-.38-.77-.21-1.14-.56-.07.32-.49.34-.45.74l.17.17,1.23.08ZM77.88,107.74l-.44-.44,0-.46c-.08-.07-.14-.16-.22-.22s-.11,0-.16,0a2.62,2.62,0,0,0,.26,1.8l.58,0Zm-2.23-5.29c-.19.45-.62.55-.69,1,.18.24.3.55.68.53.14-.15.29-.3.44-.44C76.07,102.87,76.07,102.87,75.65,102.45ZM74.59,87.88c-.21.33-.52.41-.53.8.33.12.39.66.9.66l0,0,.24-.87ZM65.7,118l.35-.52a6,6,0,0,0-1.16-1l-.3.44ZM60.06,326l.31.31c.28-.05.62.15.94-.28l-.1-.69-.31-.19Zm.32-49.62,1.19.13.18-.5c-.27-.08-.31-.44-.64-.42C60.81,275.86,60.46,276.07,60.38,276.4Zm17.23,77,.67.23.11.56.56-.27c.19.09.26.39.53.14-.07-.26-.32-.38-.48-.56l-.46,0c-.22-.15-.31-.46-.66-.43Zm-7.35,91.2c0,.74,0,.74.48.91.07-.24.42-.28.41-.7-.24-.05-.27-.48-.67-.43Zm2.89,192.25,0-.7-.25-.26-.44.19.11,1.19C72.82,637.3,72.92,637,73.15,636.85ZM56.68,327.6c.39.31.54.67,1,.77l.28-.43c-.34-.26-.49-.63-.9-.72Zm4.65-3.66c-.09-.23-.11-.35-.17-.4-.22-.2-.37-.5-.76-.59l-.3.4.42.43Zm-.65,28.88-.12.66c.3.21.39.51.74.45l.23-.34C61.26,353.25,61,352.91,60.68,352.82Zm5.67-208.53a2.07,2.07,0,0,0-.91,1l.83-.16c.09-.15.4-.23.39-.57Zm-3.28,81.2-.66-.19c-.22.31-.53.4-.44.76l.38.24c.25-.28.49-.54.72-.81C63.09,225.46,63.07,225.39,63.07,225.49Zm-5,148.85-.48.2.14.72c.67,0,.67,0,.8-.46ZM56.77,321l.33.23c.55-.18.3-.6.36-.94L57.1,320Zm-1.5,94.2-.28,1c.36-.1.48-.35.62-.46l.28-1C55.52,414.8,55.41,415.06,55.27,415.16ZM59,226.46c0,.37,0,.75,0,1.13a.67.67,0,0,0,.65-.68C59.49,226.77,59.41,226.48,59,226.46ZM64.18,309c-.28,0-.46.14-.43.47.21.13.29.44.68.44l.26-.4ZM64,301.47c.08.3.33.53.23.85h.16c.48-.18.23-.59.29-.93l-.37-.24Zm-7,153.39c-.32.27-.7.48-.84,1a8.49,8.49,0,0,0,1-.3c.1,0,.14-.24.2-.35Zm3.43-257.11c0,.28.15.46.47.43.13-.21.45-.29.45-.68l-.41-.26Zm14.36-.68a2.18,2.18,0,0,1,.4.22c0-.08,0-.16.07-.24s0-.3,0-.44l-.4-.25c-.25.22-.57.33-.54.72A1.26,1.26,0,0,1,74.72,197.07ZM62.18,312c-.36,0-.85-.21-.92.43.22.15.31.43.61.46ZM70.7,415.21c.34-.07.86.22.91-.44l-.11-.11-.8-.18ZM75.64,95.63a.69.69,0,0,0,.67-.71L76,94.69c-.26.22-.59.33-.55.71ZM57,338.22c-.28,0-.46.14-.43.47.21.13.29.44.67.44l.26-.41ZM58.82,351c0-.13-.06-.24-.13-.3s-.22-.35-.48-.34l-.31.88c.13.12.22.34.45.19l0-.39Zm-1.26-5.43a.76.76,0,0,1-.77.31V346l.24.33.73-.11.19-.3Zm.75-18.77.13.66a.66.66,0,0,0,.59-.69l-.34-.23Zm5,14.36c.22.55.25.56.67.23,0-.23.08-.47-.08-.68C63.59,340.72,63.5,341,63.29,341.15Zm-6.75-11.23c.06.32.35.58.25.9,0,0,.06.09.1.11l.32.11,0-.66C57,330.23,56.94,329.94,56.54,329.92Zm.25-4.93c.53-.29.53-.3.9-.91l-.39-.28a2.41,2.41,0,0,1-.13.57C57.05,324.58,56.74,324.67,56.79,325Zm2.15-104.6v1.12l.37-.17-.15-.81Zm1-1.81a.9.9,0,0,0-.75.68l.41.3,0,0Zm-2.7,150.88c-.25-.17-.34-.46-.64-.49a.82.82,0,0,0,.1.9C56.93,369.9,57.12,369.87,57.28,369.46ZM74.94,106.84l-.27.4.49.35c.11-.32.62-.33.43-.75ZM64.13,297.31c.24.29.44.43.77,0l-.15-.63C64.48,296.69,64.37,297,64.13,297.31Zm.73-177.6a.87.87,0,0,0,.67.62l.29-.41-.27-.27C65.32,119.66,65.08,119.57,64.86,119.71Zm11.67-30.4-.45.19c0,.24.09.49.16.87l.29.2ZM59.71,381.85l-.72-.14-.22.51.37.25C59.41,382.27,59.71,382.15,59.71,381.85Zm18.1,55.69.27-1a.88.88,0,0,0-.66.64Zm-6.76-31.92-.53-.36-.34.5.43.29ZM62.4,339.8c0,.31.13.47.48.44l.26-.4-.47-.31Zm-4,3.53-.79,0-.1.14.79,0Zm-.44-35.17h-.73c.39.56.39.56.73.61Zm-.23,11.22c0-.31-.13-.47-.48-.45l-.27.41.48.31ZM71.25,436.75h-.8l-.24.35c.25.17.49.07.74.1ZM64.41,292.22c.23,0,.47.08.61,0l.09-.65A.7.7,0,0,0,64.41,292.22Zm-7.18,18.63c0,.31.14.47.49.44l.26-.4-.47-.31Zm3.92-93.65.53.36.34-.5-.44-.29Zm-1.67-2.33a.86.86,0,0,0,.66.62l.32-.46H60.2C59.78,215,59.72,214.62,59.48,214.87Zm-.67,104.28c0-.31-.14-.46-.49-.44l-.26.4.47.31ZM75.41,196c.61-.43.6-.44.6-.71l-.6-.05Zm-.67-17.35c.31,0,.47-.14.44-.48l-.4-.27-.31.48Zm.6-1.34c0-.08.09-.2.07-.22a.52.52,0,0,1-.22-.53c0-.16,0-.2-.26-.12l-.28.42C75,177,75,177.32,75.34,177.32ZM62.85,162.5c0,.23-.07.46,0,.64l.62.05A.69.69,0,0,0,62.85,162.5ZM71,445.9l-.7.15.18.4.7-.14ZM74.07,417c0,.31.13.47.48.44l.26-.4-.47-.31Zm-7.76,31.59.53.36.34-.5-.43-.3Zm-10.65-34.5c.31,0,.47-.14.45-.49l-.41-.26-.31.47ZM71,412.29h-.81l-.23.35c.25.17.49.07.74.1Zm6.73-308.12-.38.16.17.7.39-.16Zm-1.61-2.61-.36.52.5.35.29-.44Zm-3.58,279.2-.29,1a.86.86,0,0,0,.67-.65ZM56.5,447.2l.36-.53-.5-.34-.29.44Zm5.22-141.51c.31,0,.47-.14.44-.48l-.4-.27-.31.47ZM70.47,66.94c0,.27.14.42.46.4.13-.2.42-.29.45-.66ZM58.58,355.06c-.31,0-.47.14-.44.48l.4.27.31-.48Zm3.81-159.35a.68.68,0,0,0,.68.68A.68.68,0,0,0,62.39,195.71Zm8.29,172.83c.31,0,.48-.15.47-.5-.22.12-.47-.07-.71.14Zm6.22,71.53c.42.63.43.63.76.65C77.58,440.4,77.37,440.22,76.9,440.07Zm-21-41.93c-.3,0-.46.14-.45.46.13.1.21.35.45.16Zm14.19,9.46c.27.42,0,.67.25.88.24,0,.37-.15.38-.46Zm.63-.68c0-.31-.14-.48-.49-.47.12.22-.08.47.14.71ZM56.38,365.5l.63.44c0-.32,0-.55,0-.86ZM75,411.28c.39-.19.63,0,.85-.19,0-.24-.14-.36-.45-.38Zm-8.4-120.77c.65-.45.65-.46.63-.76A.91.91,0,0,0,66.62,290.51ZM63,151.93c-.27-.42-.06-.67-.26-.88-.23,0-.36.15-.37.46Zm15.21,9.58c-.17-.18-.2-.22-.24-.24a1.19,1.19,0,0,0-.26-.11,1.55,1.55,0,0,0-.07.23,5.07,5.07,0,0,0,0,.53Zm-3.94,259.1c.29,0,.46-.15.45-.46-.13-.1-.21-.35-.45-.17ZM57.92,329.48c0-.3-.14-.47-.46-.45-.1.13-.35.21-.16.45ZM60.7,456.91c-.17.25-.07.49-.09.72.31,0,.46-.15.44-.48ZM63.54,355c.42-.27.67-.05.88-.25,0-.24-.15-.37-.46-.38Zm3.06,96.12c.37,0,.49-.15.52-.45l-.36-.27ZM59.37,447l.44-.64H59ZM70,431.27c0,.32-.07.56.08.78.23,0,.36-.15.38-.46Zm-5.16-316.6c0,.34.13.49.48.48-.12-.22.08-.47-.14-.71Zm-6.1,333c.25.17.48.07.71.09,0-.31-.14-.46-.48-.44Zm-2.19-30c-.31,0-.48.15-.47.5.22-.12.47.08.71-.14ZM67.2,323.9c-.46-.65-.47-.64-.76-.62A.88.88,0,0,0,67.2,323.9Zm-8,82.12c.31,0,.48-.15.46-.5-.21.12-.47-.07-.71.14ZM60.5,450.4l.44-.63c-.33,0-.56,0-.87,0Zm3.4-93.53c.38,0,.49-.15.53-.45l-.36-.26Zm-4.56-34.53c-.44-.64-.45-.64-.76-.64C58.67,322,58.86,322.21,59.34,322.34Zm18.21-218.9.44-.64h-.87Zm-15,258c-.41.27-.67.05-.87.25,0,.24.14.37.46.38Zm.67-150.3c.24.17.48.07.71.09,0-.3-.14-.45-.48-.43Zm-3.37-4.73-.64-.44c0,.33,0,.56,0,.87ZM56.82,317.93l.64.44c0-.33,0-.56,0-.87Zm19.35,68.83c-.42-.64-.43-.63-.76-.66C75.49,386.42,75.7,386.61,76.17,386.76ZM60.62,281.21c-.35.06-.56.13-.41.47C60.46,281.67,60.58,281.54,60.62,281.21Zm.39-2.78.15.14c.11-.09.23-.17.33-.27s0-.13,0-.14-.18-.09-.22-.06A2.91,2.91,0,0,0,61,278.43Zm.14-1.51-.14.15c.09.11.17.23.27.34s.13,0,.14,0,.09-.19.06-.23A2.91,2.91,0,0,0,61.15,276.92Zm-1-2a.38.38,0,0,0-.45.45A.38.38,0,0,0,60.15,274.94Zm3.59,2.69a.38.38,0,0,0-.45.45A.38.38,0,0,0,63.74,277.63Zm-.9-51.17q.48,0,.45-.45A.38.38,0,0,0,62.84,226.46Zm-1.57-7.63q0-.47-.45-.45C60.81,218.7,61,218.84,61.27,218.83ZM66.89,468.4c-.32,0-.47.13-.45.45A.38.38,0,0,0,66.89,468.4ZM60.6,210.31a.38.38,0,0,0,.45-.45Q60.59,209.83,60.6,210.31Zm-1.16-2.57.15.13c.11-.09.23-.17.33-.26s0-.13,0-.15-.19-.09-.22-.06A2.18,2.18,0,0,0,59.44,207.74Zm.71,248.54a.38.38,0,0,0,.45-.45A.38.38,0,0,0,60.15,456.28Zm-1.61-6.16.15.13A3.85,3.85,0,0,0,59,450s0-.13,0-.14-.19-.09-.23-.07A3,3,0,0,0,58.54,450.12Zm3.87-243.61c-.06-.35-.13-.56-.47-.41C62,206.35,62.08,206.47,62.41,206.51Zm7.72,242.32L70,449c.09.11.17.23.27.34s.13,0,.14,0,.09-.19.06-.22A2.16,2.16,0,0,0,70.13,448.83Zm11.69-.14.14-.15c-.09-.12-.17-.23-.27-.34s-.13,0-.14,0-.09.19-.06.22A2.16,2.16,0,0,0,81.82,448.69ZM55,420.61c.33-.06.54-.13.37-.51A.47.47,0,0,0,55,420.61Zm5.35-225.89.15.13a2.69,2.69,0,0,0,.33-.26s0-.13,0-.14-.19-.09-.22-.06A2.1,2.1,0,0,0,60.34,194.72ZM70.49,432.47c-.35.06-.55.14-.4.47C70.34,432.93,70.46,432.8,70.49,432.47Zm3.56-236.06c.35-.06.56-.14.41-.47C74.2,195.94,74.09,196.08,74.05,196.41Zm3.85,243c-.35.06-.56.13-.41.47C77.75,439.89,77.86,439.76,77.9,439.43ZM62.41,182.72c-.06-.35-.13-.56-.47-.41C62,182.56,62.08,182.68,62.41,182.72Zm13.23,10.75a.38.38,0,0,0-.45.45A.38.38,0,0,0,75.64,193.47ZM62.6,180c.35-.05.56-.13.41-.47C62.76,179.56,62.64,179.69,62.6,180Zm12.59,9a.38.38,0,0,0-.45.45C75.05,189.44,75.2,189.3,75.19,189Zm-4.27,244c.32,0,.46-.14.45-.45A.38.38,0,0,0,70.92,432.94Zm-.69-8.55c.06.35.14.56.48.41C70.7,424.55,70.56,424.43,70.23,424.39ZM56.8,411c-.06-.35-.13-.56-.47-.41C56.34,410.81,56.47,410.92,56.8,411ZM61,163.83c.06.35.14.56.47.41C61.49,164,61.36,163.87,61,163.83Zm9.91,252c-.35.06-.56.14-.4.48C70.79,416.33,70.9,416.19,70.94,415.86ZM70,409.61c.35-.05.56-.13.41-.47C70.16,409.15,70.05,409.28,70,409.61Zm5.4.44a.38.38,0,0,0,.45-.45C75.55,409.59,75.4,409.73,75.41,410.05Zm-5.2-5.72.15.14.34-.26a.19.19,0,0,0,0-.15c-.07,0-.19-.09-.23-.06A2.91,2.91,0,0,0,70.21,404.33Zm.47-2.38c.06.35.14.56.47.41C71.15,402.1,71,402,70.68,402ZM74.39,164l-.13.15a2.78,2.78,0,0,0,.26.34s.13,0,.14,0,.09-.19.06-.22A2.16,2.16,0,0,0,74.39,164ZM76.19,406l-.14.15c.09.11.17.23.26.33a.16.16,0,0,0,.15,0c0-.07.09-.19.06-.22A2.1,2.1,0,0,0,76.19,406Zm-19.95-28.2.13-.15-.26-.34a.19.19,0,0,0-.15,0c0,.07-.09.19-.06.22A2.24,2.24,0,0,0,56.24,377.77ZM71.15,390.3a.38.38,0,0,0-.45-.45A.38.38,0,0,0,71.15,390.3ZM68.8,148.4l.14-.15c-.09-.11-.17-.23-.26-.33a.16.16,0,0,0-.15,0c0,.07-.09.19-.06.22A2.1,2.1,0,0,0,68.8,148.4ZM63.93,367.08l.15.13a2.69,2.69,0,0,0,.33-.26s0-.13,0-.14-.19-.09-.22-.06A2.1,2.1,0,0,0,63.93,367.08Zm-4.1-7.27.13-.15a4.19,4.19,0,0,0-.26-.33s-.13,0-.14,0-.1.19-.07.22A2.18,2.18,0,0,0,59.83,359.81ZM66.7,136.12l-.15-.14c-.11.09-.23.17-.33.27a.14.14,0,0,0,0,.14c.07,0,.19.09.23.06A2.91,2.91,0,0,0,66.7,136.12ZM64,363.35c.06.35.14.55.47.4C64.41,363.5,64.28,363.38,64,363.35Zm-3.7-17.3-.13.14a2.18,2.18,0,0,0,.26.34s.13,0,.14,0,.09-.19.06-.22A1.4,1.4,0,0,0,60.25,346.05Zm4.63-231.78c-.06-.35-.13-.56-.47-.41C64.42,114.11,64.55,114.23,64.88,114.27Zm.19-.9c.35-.06.56-.14.41-.47C65.23,112.91,65.11,113,65.07,113.37ZM56.3,341.49l.15.14c.11-.09.23-.17.33-.26a.16.16,0,0,0,0-.15c-.07,0-.19-.09-.22-.06A2.1,2.1,0,0,0,56.3,341.49Zm.9.45.15.14c.11-.09.23-.17.33-.26s0-.14,0-.15-.19-.09-.22-.06A1.64,1.64,0,0,0,57.2,341.94Zm21.15,14.9c-.35.06-.56.14-.41.47C78.19,357.3,78.31,357.17,78.35,356.84ZM56.75,333l.15.13a4.19,4.19,0,0,0,.33-.26.14.14,0,0,0,0-.14c-.07,0-.19-.1-.22-.07A1.7,1.7,0,0,0,56.75,333Zm1.61,1q0,.48.45.45A.38.38,0,0,0,58.36,334Zm4.92,3.39c.35-.06.55-.14.4-.47C63.43,336.89,63.31,337,63.28,337.35Zm17.4,14.31-.14.15c.09.11.17.23.26.33a.19.19,0,0,0,.15,0c0-.07.09-.19.06-.22A1.64,1.64,0,0,0,80.68,351.66ZM58.82,323c-.35.06-.55.14-.4.47C58.67,323.41,58.79,323.28,58.82,323ZM57.7,314c-.06-.35-.14-.56-.47-.41C57.24,313.85,57.37,314,57.7,314ZM75.43,97.44c-.06-.35-.14-.56-.47-.41C75,97.28,75.1,97.4,75.43,97.44ZM57.11,312.38l-.13.15a2.69,2.69,0,0,0,.26.33.14.14,0,0,0,.14,0c0-.07.09-.19.06-.23A2.91,2.91,0,0,0,57.11,312.38ZM61,301.69l.13-.15a2.78,2.78,0,0,0-.26-.34s-.13,0-.14,0-.09.19-.06.22A2.16,2.16,0,0,0,61,301.69ZM58.11,299c.35-.06.56-.13.41-.47C58.27,298.51,58.15,298.64,58.11,299Zm6.1,4.23c-.35.06-.56.14-.41.47C64.06,303.66,64.17,303.53,64.21,303.2Zm.66-12.33q-.48,0-.45.45C64.73,291.33,64.88,291.19,64.87,290.87ZM70.46,56.11c.06.34.13.55.47.4C70.92,56.26,70.79,56.14,70.46,56.11Zm-8.35,260.8H62a1,1,0,0,0,.08.22s.09,0,.14,0Zm8.65,79.45h.16a.9.9,0,0,0-.08-.23s-.09,0-.14,0ZM55.89,382.83l.22.06c0-.05,0-.13,0-.14a.65.65,0,0,0-.22-.08Zm15.26,15.48v-.16a1.13,1.13,0,0,0-.22.08s0,.1,0,.15Zm4.26,6.28.23.07c0-.05,0-.13,0-.14a.73.73,0,0,0-.22-.09ZM60.76,219.06H60.6a2,2,0,0,0,.08.22s.1,0,.14,0Zm-.61-5.23.23.07c0-.05,0-.13,0-.15a1.13,1.13,0,0,0-.22-.08Zm-.67-4.65c.05,0,.13,0,.14,0a1,1,0,0,0,.08-.22c-.05,0-.13,0-.14,0A1,1,0,0,0,59.48,209.18Zm0,187.11.22.07c0-.05,0-.13,0-.15a2,2,0,0,0-.22-.08Zm5.1-87.69h-.16a.9.9,0,0,0,.08.23s.09,0,.14,0ZM60.6,206v-.16a.83.83,0,0,0-.22.08s0,.09,0,.14ZM85.06,432.87v-.16a2,2,0,0,0-.22.08s0,.1,0,.15ZM60.38,201.1s.13,0,.14,0a.83.83,0,0,0,.08-.22c-.05,0-.13,0-.14,0A1,1,0,0,0,60.38,201.1ZM70.64,420.59h-.16a.53.53,0,0,0,.08.22s.09,0,.14,0Zm.06-61-.22-.06c0,.05,0,.13,0,.14a.72.72,0,0,0,.22.08ZM62.4,198.79v-.16a.73.73,0,0,0-.22.09s0,.09,0,.14Zm8.08,163.84v-.16a.9.9,0,0,0-.23.08s0,.09,0,.14ZM60.38,193.76v.16a1,1,0,0,0,.22-.08s0-.09,0-.14Zm4.1-6.35-.06.23s.13,0,.14,0a.72.72,0,0,0,.08-.22ZM62,328.19v.16a1,1,0,0,0,.22-.08s0-.09,0-.14ZM56.5,349.67l.06-.22c-.05,0-.13,0-.14,0a1,1,0,0,0-.08.22ZM56.34,407v.16a2,2,0,0,0,.22-.08s0-.1,0-.15ZM70.7,387.83s.13,0,.14,0a.72.72,0,0,0,.08-.22s-.13,0-.14,0A.72.72,0,0,0,70.7,387.83Zm6.06,40.84c0,.05,0,.13,0,.15a2,2,0,0,0,.22.08s0-.13,0-.15A1.43,1.43,0,0,0,76.76,428.67Zm-5.84-5v-.16a2,2,0,0,0-.22.08s0,.1,0,.15Zm-8.81-248.6H62a.83.83,0,0,0,.08.22s.09,0,.14,0Zm13.24,8.75h-.16a.72.72,0,0,0,.08.22s.09,0,.14,0ZM64.48,299.18l-.06.22s.13,0,.14,0a1,1,0,0,0,.08-.22Zm13.18-116v.16a1,1,0,0,0,.22-.08s0-.09,0-.14ZM60.22,164.75l-.07.22c.05,0,.13,0,.15,0a2,2,0,0,0,.08-.22ZM59.09,294h.16a.72.72,0,0,0-.08-.22s-.09,0-.14,0ZM77.43,430.47s.13,0,.15,0a1.55,1.55,0,0,0,.08-.23s-.13,0-.15,0A1.13,1.13,0,0,0,77.43,430.47ZM56.72,410.05l.07-.23s-.13,0-.15,0a1.55,1.55,0,0,0-.08.23Zm13.53,17.57v.16a1.13,1.13,0,0,0,.22-.08s0-.1,0-.15Zm0,.89v.16a.72.72,0,0,0,.22-.08s0-.09,0-.14ZM64,163.62l-.06.23s.13,0,.14,0a.72.72,0,0,0,.08-.22Zm13,272.91-.07.22s.13,0,.15,0a2,2,0,0,0,.08-.22ZM55.44,417.74v.16a1,1,0,0,0,.22-.08s0-.09,0-.14Zm19.3-251.58-.22-.07s0,.13,0,.15a1.13,1.13,0,0,0,.22.08ZM70,435.92v.16a2,2,0,0,0,.22-.08s0-.1,0-.15ZM61.21,150.83h-.16a.72.72,0,0,0,.08.22s.09,0,.14,0Zm13.31,12.41-.23-.06s0,.12,0,.14a1.55,1.55,0,0,0,.23.08Zm-1.58-1.7.23.06s0-.13,0-.14a.72.72,0,0,0-.22-.08ZM64,367.85l-.06.23s.13,0,.14,0a.72.72,0,0,0,.08-.22Zm-7.85-7.18h.16a2,2,0,0,0-.08-.22s-.1,0-.15,0Zm14.68,79.22.06-.22s-.13,0-.14,0a1,1,0,0,0-.08.22Zm-12.66-77-.07.22s.13,0,.15,0a2,2,0,0,0,.08-.22Zm4.42-223.37.22.06c0-.05,0-.13,0-.14a.72.72,0,0,0-.22-.08Zm15,13.69.22.06c0-.05,0-.13,0-.14a1,1,0,0,0-.22-.08ZM56.34,364.78v.16a2,2,0,0,0,.22-.08s0-.1,0-.15ZM75.7,387.15l-.06.23s.13,0,.14,0a.72.72,0,0,0,.08-.22ZM61.43,134.9h-.16a2,2,0,0,0,.08.22s.1,0,.15,0Zm4.78-1.13c.05,0,.13,0,.15,0a1.13,1.13,0,0,0,.08-.22s-.13,0-.15,0A2,2,0,0,0,66.21,133.77ZM55.37,429.35l.07-.23s-.13,0-.15,0a1.13,1.13,0,0,0-.08.22ZM66.6,132h-.16a.83.83,0,0,0,.08.22s.09,0,.14,0Zm4.61,251.81h.16a.72.72,0,0,0-.08-.22s-.09,0-.14,0ZM63.29,118.22l.23.07c0-.05,0-.13,0-.14a.53.53,0,0,0-.22-.08ZM58.58,375.55v.16a1.13,1.13,0,0,0,.22-.08s0-.1,0-.15Zm8.24,74h-.16a1.55,1.55,0,0,0,.08.23s.09,0,.14,0ZM57.17,334.86H57a.72.72,0,0,0,.08.22s.09,0,.14,0Zm4.26,119.62h-.16a1.13,1.13,0,0,0,.08.22s.1,0,.15,0Zm.29,2.92c.05,0,.13,0,.15,0a2,2,0,0,0,.08-.22c-.05,0-.13,0-.15,0A1.43,1.43,0,0,0,61.72,457.4Zm-3.59-2.69s.13,0,.15,0a1.13,1.13,0,0,0,.08-.22s-.13,0-.15,0A1.13,1.13,0,0,0,58.13,454.71ZM69.64,266.64l-.06.22s.13,0,.14,0a1,1,0,0,0,.08-.22Zm6.61-168.1h-.16a.83.83,0,0,0,.08.22s.09,0,.14,0Zm-6.51,165.4h-.16a.72.72,0,0,0,.08.22s.09,0,.14,0ZM77.43,98.16v.16a.73.73,0,0,0,.22-.09s0-.09,0-.14ZM54.7,456.73h-.16a2,2,0,0,0,.08.22s.1,0,.15,0ZM57,459.48l-.22-.06c0,.05,0,.13,0,.14a.72.72,0,0,0,.22.08ZM70.7,485.16l.22.07c0-.05,0-.13,0-.14a.85.85,0,0,0-.22-.09ZM76.76,80.87V81A.58.58,0,0,0,77,81s0-.09,0-.14Zm-.9-11.12.23.06s0-.13,0-.14a.72.72,0,0,0-.22-.08ZM58.87,378l-.06.23s.12,0,.14,0A1.13,1.13,0,0,0,59,378Z"/><path d="M75.52,654.21l.34.33h.45l2.92,2.92v.33c.17.34.37.63.85.55l.72.72v.38l.65.65,0,.5.43.42,0,.48c.18.23.52.38.44.76.36.76.52,1.59.88,2.61l-.09,1.79.28.4s0,.09.07.18l-.26.39.17.34v2.13l-.3.21a3.79,3.79,0,0,0-.19-1c-.17-.32,0-.63-.12-.91a1.82,1.82,0,0,1-.22-1c0-.31-.33-.52-.22-.86-.33-.18-.12-.58-.32-.81s0-.61-.14-.9a3,3,0,0,0-.23-.51l.28-.43-.76-.76.14-.63c-.22-.53-.48-.51-.74-.48l-2.47-2.47-.48,0L77.2,659c-.43.13-.74-.33-1.18-.23s-.74-.25-1.17-.24-.77.24-1.22.28l0,.58,3.82,3.83a2.65,2.65,0,0,0,0,.89c.08.24.25.44.19.71l.47.47,0,.62-.92-.23c-.21-.13-.15-.35-.19-.55a1.48,1.48,0,0,0-.23-.42l.25-.38c.06-.61-.57-.24-.86-.59l-.06-.49-1.81-1.81c-.52.22-1-.16-1.47-.21-.17,0-.32-.24-.59-.46l-.74.11-.52-.52c-.4-.07-.85.14-1.18-.24-.24.06-.52-.12-.74.12L68.7,660a3.13,3.13,0,0,0-1.19,0,7.23,7.23,0,0,0-1.39,0l-.13.39,1.11,0,.41-.4a.82.82,0,0,0,.25.38,2.83,2.83,0,0,0,1.26-.09c.27.44.81.34,1.2.54.17.09.41,0,.7,0a3,3,0,0,0,.4.38c.12.07.32,0,.44.07s.3.3.48.4a1.65,1.65,0,0,0,.48.06l2.89,2.89a2.18,2.18,0,0,0,.41,1.23A3.17,3.17,0,0,1,76.5,667a7,7,0,0,1,.23,1.32,21.33,21.33,0,0,1,0,2.53c-.32.46-.18,1-.24,1.49a5.47,5.47,0,0,1-.29,1l-.38.38,0,.66c.44,0,.57-.5,1-.67l.49.23c.09-.05.23-.09.25-.15a10,10,0,0,0,.33-1.46,10.46,10.46,0,0,1,.46-1.55c0-.17.28-.3.45-.47l.42.23-.25.7.25.24c0,.36,0,.73,0,1.1s.1.72,0,.92c-.27.35-.12.7-.18,1.06l-.67.81c.17.47-.39.58-.45.94a1.06,1.06,0,0,0,.65.57c.46.15,1,.11,1.41.82l-.16,1.28.7-.33c.25.19,0,.47.12.65l-.69.7,0,.45-1.8,1.8h-.41l-.89.89h-.24c-.45,0-.59.64-1.08.45-.22.36-.72.09-.94.43-.42-.08-.76.21-1.15.3a8.64,8.64,0,0,0-1.38.47c-.52.24-1,.07-1.52.16-.09,0-.15.14-.23.22H67.87c-.71,0-1.37-.48-1.89-.23l-2.3-.76-.64-.64.11-.74-1-1c-.43.1-.73-.29-1.16-.29-.14,0-.29-.27-.42-.4v-.4l-1.36-1.36-.42,0-.71-.71.17-.69L57,676.54l0-1.14.63-.63a1.81,1.81,0,0,1,0-.47,2.09,2.09,0,0,1,.26-.37l-1.14-.36c.08-.47-.66-1-.05-1.5,0-.63-.59-1.16-.38-1.89l.39-.19,0,.5.38.37.35,1.19c.31,0,.39-.31.64-.46l-.25-.59v-2.06c-.18-.29-.4-.23-.6-.27a1.75,1.75,0,0,1-.5-.23c-.45.34-.13.82-.32,1.23l-.34.15c-.25-.15-.25-.34-.28-.56a1.48,1.48,0,0,0-.24-.53l.47-.47,0-.48.51-.51,0-.9.4-.4c.13-.55-.34-1-.21-1.54l.83-.83.33-1.24.85-.85.45,0v-.43c.14-.13.31-.33.51-.49a.6.6,0,0,1,.39-.17c.44,0,.58-.66,1.09-.45l.69-.69,0-.9.67-.67H63l.65-.58c.79-.31,1.39.22,2.08.13L66,657l.67.25v-1.42l.66.33,0,.74c.53.22,1.06,0,1.56.13.23.31.57.17.87.21.32-.15.21-.44.25-.68l.75-.75.78.11c.22-.23.38-.39.14-.59l1.58-.55c.22,0,.45.32.79.22.22.32.56.18.92.22l-.26-.52c0-.26.23-.33.34-.49A.26.26,0,0,0,75.52,654.21ZM58.69,664.75c.11-.18.46-.23.3-.56-.39.2-.39.2-.3.56l-.33.34c0,.22-.09.48.12.71l.33-.28C58.75,665.25,58.92,665,58.69,664.75Zm.23,2.92-.45.45.45.45-.27.27L58.56,670l.35.35c-.19.17-.1.39-.1.58s-.09.51.06.72c.43.41.43.41.65.33l-.28-.49.06-.75-.38-.39.27-.27.08-1.17-.35-.35a.78.78,0,0,0,0-.9c.38-.31.49-.68,0-.92l1-1,0-.47.51-.51-.1-.83,1.59-1.6s0-.1,0-.15a1.55,1.55,0,0,0-.21-.23s-.09,0-.2,0l-.93.92c-.39-.11-.76-.42-1-.21s-.85.05-1.06.49l-.3.63,1-.28.52.57c-.14.82-.51,1.58-.62,2.49A.78.78,0,0,0,58.92,667.67ZM60,674.18c.1-.36.1-.36-.3-.56-.16.32.2.37.28.6l-.1.25c.6.61,1.22,1.23,1.84,1.84,0,0,.13-.07.23-.12C61.32,675.51,60.67,674.86,60,674.18Zm14.42-1.4.91-.91c.15-.59-.16-1.19.27-1.7a6,6,0,0,0-.1-1.54,4.88,4.88,0,0,1-.13-.9c0-.29-.27-.52-.24-.86a3.44,3.44,0,0,0-.58-1.49,1.65,1.65,0,0,1-.13-.52l-2.06-2.07-1.38.38c-.28.49.06.83.13,1.24-.47.48-1,1-1.43,1.45a1.07,1.07,0,0,0-.17.31l0,.71-.9.91,0,.47c-.3.21-.42.63-.86.65l-.45-.45c0-.23.07-.53-.24-.67l-.48,0-.42-.43-.5,0-.65-.65h-.81l-.73-.73v-.38l-.46,0-.44-.44H62l-.53.45h-.39l-.68.67,0,.93-.43.44v1.28l-.24.37.24.41v1.73l.44.45,0,.48L61,673l0,.44,1.78,1.78.66,0,1.35-1.36,0-.48,1.27-1.26.33-1.18,1.22-1.22,1.2-.16,1.16,1.16h.83c.53.42.93,1,1.42,1.35H73a1.35,1.35,0,0,1,.32.14l.1.56.53-.25Zm-11,10.48c.06.34.14.55.51.38A.48.48,0,0,0,63.5,683.26Zm-5.24-10,.13-.15-.26-.34a.19.19,0,0,0-.15,0c0,.07-.09.19-.06.23A3,3,0,0,0,58.26,673.21Zm17.31,1.53.07-.22s-.13,0-.15,0a1.43,1.43,0,0,0-.08.22Zm-6.44,4.2v-.16a1.13,1.13,0,0,0-.22.08s0,.09,0,.14Z"/><path d="M58,272.36c.28-.28,0-.58.12-.77-.34-.38-.53-.19-.73,0l-.42-.23a2.42,2.42,0,0,0,.25-1.32c0-.47,0-.94,0-1.4l.34-.34c.19.1.24.45.56.3-.2-.4-.2-.4-.56-.3l-.33-.33v-3.38l.33-.33.47.42.4-.45a.94.94,0,0,0-.87,0l-.29-.29c0-.73,0-1.41,0-2.09l.2-.23c-.17-.47-.43-.93,0-1.43l-.27-.4.16-.33v-3.07l.27-.32c.12-.25-.11-.36-.09-.33,0-.73,0-1.25-.05-1.79.17-.32.76,0,.85-.53l-.25-.34-.55.27c-.26-.19,0-.47-.13-.65l.36-.36.48.42.41-.51-.51-.29-.38.38-.34-.35a8.87,8.87,0,0,1,.21-2.45,3.47,3.47,0,0,0,0-1.24l-.25-.54.26-.26-.24-.66.23-.25c0-.69,0-1.37,0-2.06a4.13,4.13,0,0,1,.21-2l-.22-.22a1.74,1.74,0,0,0,0-1.57l.21-.21c.1-.61-.21-1.26.31-1.74l-.29-.3c0-.9.05-1.81,0-2.7,0-.5.28-.87.27-1.34,0-.08.22-.16.34-.25l.31.87-.45.57c0,.28.22.34.33.51-.33.28.11.43.11.65,0,.42,0,.84,0,1.24.24.17.35.45.64.49.06-.74.07-.8.28-1.15.21,0,.21,0,.71.48l-.13.88.82,0a1.89,1.89,0,0,1,.76.61c.27.25.53.52.79.78l.63.63.46.05v.83c.16.19.33.38.49.58l-.48.62c-.21.46.21.77.24,1.18,0,.22.27.42.43.64s-.32.36-.45.71v.35l-.25.25-.53-.26c-.21.19-.06.45-.11.67l.44.44,0,.48.66.67v.39l.47.56c-.4.61-.3,1.46-.92,2,0,.06,0,.13,0,.16s.27.31.41.47c.22.47-.23.85-.2,1.31s0,1,0,1.41l-.26.22c-.42,0-.55-.44-.86-.67l.23-.66-.23-.23c-.09,0-.22,0-.28,0-.57.55-1.13,1.11-1.79,1.78l0,.62h.87l1.07,1.07a3.54,3.54,0,0,1,1.42.5s0,.1,0,.3l-1-.25c.29.61.24,1.16.77,1.54l-.17,1c0,.32-.47.47-.31.92l-.64.18a.42.42,0,0,0,.31.57l.42-.28.42.31-.3.47.25.53-.26.3c-.35,0-.43-.31-.67-.46l-.65,0-1.08,1.08-.47,0c-.06.32,0,.37.6.44l1.89,1.88-.27.4c0,.08,0,.2.09.27.25.27.52.52.87.87a5,5,0,0,1-.09,1.32c-.13.41-.09.93-.53,1.21l-1.74-1.74c0-.16.18-.36-.16-.41l-2.14,2.15c-.19-.11-.24-.46-.56-.3.19.39.19.39.56.3l.56.56,0,.65-1.6,1.6Zm0-2.24.41-.48-.45-.39a1,1,0,0,0,0,.86l-.42.48.51.41.29-.51Zm1.15-9.61c-.33.39-1,.18-1.25.74l0,.8,1-.8c.33,0,.63,0,.61-.45Zm-1.07-16.07.19.44,1.24-.07c.07-.19.42-.24.38-.64l-.38-.23c-.28.17-.36.48-.67.48l-.49-.25Zm1-5c-.27.33-.63.49-.73.94l.42.28.49-.49.54,0A1.5,1.5,0,0,0,59.07,239.43Zm-.93,17.32,1.39.3.2-.53-.36-.23-.51.26-.38-.26C58.18,256.43,58,256.58,58.14,256.75Zm1.56,8.09c0-.31-.13-.46-.52-.44l-.4,1.17.47.2v-.49Zm2.47-5.14c0-.82-.05-.9-.4-.92l-.42.41c.7,0,.15.54.5.72Zm-4.41,7.39a.87.87,0,0,0,.62-.67l-.42-.29-.27.27C57.71,266.63,57.62,266.87,57.76,267.09Zm1.84-13.86-.52-.36-.35.5.44.3Zm-1,4.67c0-.31-.14-.48-.49-.47.12.22-.08.47.14.71ZM59,242.62a.38.38,0,0,0,.45.45A.38.38,0,0,0,59,242.62Zm-.51-1.12h-.16a.72.72,0,0,0,.08.22s.09,0,.14,0Zm-.23,8.08.07-.22s-.13,0-.15,0a1.13,1.13,0,0,0-.08.22Zm.13-1.35-.06.23s.13,0,.14,0a.72.72,0,0,0,.08-.22Z"/><path d="M57.12,290.76l-.33-.33a2.18,2.18,0,0,1,.2-1.15l-.2-.23v-1.9l.22-.36c-.09-.38-.34-.69-.18-1.14a4.56,4.56,0,0,0,.1-2.25,1.5,1.5,0,0,0-.16-.36l.25-.28c0-.88,0-1.77,0-2.66,0,0,.06-.07.1-.11l1,1c.42,0,.71,0,.66.46l-.32.33c-.17-.11-.23-.38-.49-.34l-.26.18c-.18.51.18.93.25,1.39h.33l1.87,1.87a2.16,2.16,0,0,1-.73.82c-.41-.07-.84.13-1.27-.13l-.07-1.06c-.24-.1-.31-.45-.64-.36v.64l.22.24a5,5,0,0,0,0,1.09,2.19,2.19,0,0,1,.17,1.15c-.13.35-.61.42-.64.93L58,289c.1.33.15.47.19.61l.13.35h-.89l0,.45Z"/><path d="M66.67,253.83l-.46.46c-.07,0-.21,0-.21-.08,0-.5-.38-1-.23-1.48.09-.34-.21-.56-.23-.86s0-.62,0-.94l.47-.48-.27-.54.23-.34c.73,0,.31.79.71,1a1.25,1.25,0,0,0-.25.87c0,.26.32.38.24.69a3.55,3.55,0,0,0,0,.8l-.23.23Z"/><path d="M60.9,235.22c-.2-.35.11-.82-.35-1.16l-.85.56v-.73l.45,0a15.66,15.66,0,0,1,1.25-1.17l1,1c-.1.4-.44.59-.69.84S61.29,235.13,60.9,235.22Z"/><path d="M62.4,235c0-.25-.09-.52.08-.75s.49-.1.74-.15c.1.46.44.88.25,1.4l-.25.18C62.83,235.59,62.68,235.21,62.4,235Z"/><path d="M77.42,666.88c-.14-.22-.45-.3-.44-.62.5-.18.91.14,1.35.25,0,.31-.32.39-.46.62l.24.65h-.67Z"/><path d="M62.3,237.59l.36-.35c.34,0,.41.3.63.44v.46l.43.43c0,.33-.12.47-.43.46l-.22-.22,0-.46Z"/><path d="M57.35,273.48l-.37-.36a2,2,0,0,0,.19-.36c0-.14,0-.31.07-.44a1.53,1.53,0,0,1,.25-.3c.3,0,.37.23.53.34A1.81,1.81,0,0,1,57.35,273.48Z"/><path d="M67.9,253.42l-.05-1.21.45-.44.39.29c0,.37-.32.46-.47.69l0,.44Z"/><path d="M60.47,235.76l-.36.36c-.09,0-.16,0-.19,0-.23-.21-.45-.44-.72-.71l.28-.4c.13,0,.2,0,.23,0C59.94,235.22,60.16,235.44,60.47,235.76Z"/><path d="M68.68,249.36l.49.49-.27.43c-.15-.06-.26-.07-.32-.14s-.49-.37-.58-.69C68.21,249.27,68.46,249.4,68.68,249.36Z"/><path d="M63.07,231.18c-.06.31.19.73-.31.9-.29,0-.38-.31-.59-.46C62.2,231,62.73,231.24,63.07,231.18Z"/><path d="M63,227l.35.41a.9.9,0,0,1-.74.62l.2-.85Z"/><path d="M67.67,655.33a1.67,1.67,0,0,1,1.35,0l-.36.35H68Z"/><path d="M62.71,230.42a2.13,2.13,0,0,1,.44-.35c.06,0,.17.06.26.1a.75.75,0,0,1,0,.78C63.14,230.93,63.05,230.64,62.71,230.42Z"/><path d="M69.47,655.78l-.45-.45a.77.77,0,0,1,.89,0Z"/><path d="M65.31,287.73a.38.38,0,0,1,.45-.45A.38.38,0,0,1,65.31,287.73Z"/><path d="M65.64,284.55a2.91,2.91,0,0,1,.33.26s0,.16-.06.23-.12,0-.14,0-.18-.23-.27-.34Z"/><path d="M66.25,272.57a2.23,2.23,0,0,1-.26.33s-.16,0-.22-.06,0-.12,0-.14a2.69,2.69,0,0,1,.33-.26Z"/><path d="M68.57,273c-.23-.19-.11-.36.06-.5a.25.25,0,0,1,.39.05Z"/><path d="M66,255.19a.38.38,0,0,1-.45.45A.38.38,0,0,1,66,255.19Z"/><path d="M68.9,257c-.31,0-.46-.14-.44-.45C68.77,256.53,68.92,256.68,68.9,257Z"/><path d="M58.69,236.23c.37-.1.37-.1.56.29C58.93,236.68,58.88,236.33,58.69,236.23Z"/><path d="M59.5,233c0,.34-.16.47-.41.48C58.94,233.09,59.15,233,59.5,233Z"/><path d="M55.1,676c.11.18.46.23.3.56C55,676.34,55,676.34,55.1,676Z"/><path d="M60.81,231.19c0-.33.15-.46.4-.47C61.36,231.06,61.16,231.14,60.81,231.19Z"/><path d="M55.1,676c-.1-.19-.45-.24-.3-.57C55.2,675.61,55.2,675.61,55.1,676Z"/><path d="M64,227.59a.38.38,0,0,1-.45.45Q63.51,227.56,64,227.59Z"/><path d="M60.82,655.66a.38.38,0,0,1,.45-.45Q61.3,655.69,60.82,655.66Z"/><path d="M78,670.47c-.07-.31,0-.44.3-.45C78.49,670.4,78,670.31,78,670.47Z"/><path d="M67.67,655.33c-.36.09-.36.09-.56-.3C67.43,654.87,67.48,655.22,67.67,655.33Z"/><path d="M85.47,431.27a2.24,2.24,0,0,1,.27-.34s.15,0,.22.06a.19.19,0,0,1,0,.15l-.34.26Z"/><path d="M69.83,655.29l.42,0C70.21,655.61,70.05,655.42,69.83,655.29Z"/><path d="M69.5,655.69l0,.42C69.19,656.07,69.38,655.91,69.5,655.69Z"/><path d="M78.33,668.75v.16a1.43,1.43,0,0,1-.22-.08s0-.1,0-.15Z"/><path d="M63.29,236.79a1.13,1.13,0,0,1,.08-.22s.1,0,.15,0a1.13,1.13,0,0,1-.08.22S63.34,236.79,63.29,236.79Z"/><path d="M64,223.77h.16a.72.72,0,0,1-.08.22s-.09,0-.14,0Z"/><path d="M85.62,430.13c.12.1.2.22,0,.33s-.16-.07-.25-.1Z"/><path d="M71.8,655.36l-.43,0C71.42,655.05,71.57,655.24,71.8,655.36Z"/><path d="M76.18,151.82l-1,1h-.54a.93.93,0,0,1-.09-.2c-.18-.55-.36-1.11-.53-1.67-.07-.24-.13-.48-.19-.73l.77-.77c.4.07.55.45.87.69l-.25.51s0,.12,0,.15C75.49,151.14,75.79,151.43,76.18,151.82Z"/><path d="M73.47,146.92l.59-.58,0-.46c.43.07.58.46.92.71l-.09.83.72.71.45,0c0,.43-.44.56-.66.87h-.68c-.11-.1-.32-.22-.38-.39a2.32,2.32,0,0,0-.46-.93C73.72,147.54,73.92,147.12,73.47,146.92Z"/><path d="M73.84,116.5a3.33,3.33,0,0,0,.63.21,3.41,3.41,0,0,0,.64,0c.19.33,0,.69.12,1l-.76.84.27.43,0,.58-.5.5-.29-.15s-.08-.08-.08-.13c0-.52,0-1,0-1.55l.45-.45v-.65C74.16,117,73.84,116.87,73.84,116.5Z"/><path d="M77,158.22l-.7.69c-.34,0-.42-.29-.66-.44,0-.65,0-1.33,0-2,0,0,.06-.08.09-.12.26-.24.56-.13.86-.08.34.29,0,.74.19,1A1.62,1.62,0,0,1,77,158.22Z"/><path d="M74.4,142l.55.55c.25.44-.29.84-.23,1.33-.5,0-.56-.54-1-.69C74.12,142.83,73.94,142.34,74.4,142Z"/><path d="M73.31,121.2l.33-.47c.44.14.62.48.88.72-.17.51-.34,1-.52,1.59l-.45-.31.31-.47-.24-.49.26-.55Z"/><path d="M77.36,114.7a.82.82,0,0,1-.6-.59c.2-.16.44,0,.67-.08C77.4,114.25,77.5,114.49,77.36,114.7Z"/><path d="M77.38,111.53l-.63-.42c0-.31.14-.43.38-.46C77.33,110.86,77.11,111.12,77.38,111.53Z"/><path d="M74.33,124.45a2.91,2.91,0,0,1-.26.33s-.16,0-.22-.06,0-.12,0-.14.22-.18.33-.27Z"/><path d="M77.43,121.21a.38.38,0,0,1,.45-.45A.38.38,0,0,1,77.43,121.21Z"/><path d="M72.51,92.27c-.33,0-.46-.15-.47-.4C72.38,91.72,72.45,91.92,72.51,92.27Z"/><path d="M71.25,89.08a1.64,1.64,0,0,1,.33.26s0,.15-.06.22-.12,0-.14,0a3.1,3.1,0,0,1-.27-.34Z"/><path d="M75,159.52v-.16a.72.72,0,0,1,.22.08s0,.09,0,.14Z"/><path d="M74.36,153.75h.16a.85.85,0,0,1-.09.22s-.09,0-.14,0Z"/><path d="M70.48,120v-.16a2,2,0,0,1,.22.08s0,.1,0,.14Z"/><path d="M77,122.39l.23-.06s0,.13,0,.14a.72.72,0,0,1-.22.08Z"/><path d="M74.07,115.6a.72.72,0,0,1,.08-.22s.09,0,.14,0a.72.72,0,0,1-.08.22S74.12,115.6,74.07,115.6Z"/><path d="M71.89,84.85h.16a1.43,1.43,0,0,1-.08.22s-.1,0-.15,0Z"/><path d="M70.92,82.83a1.43,1.43,0,0,1,.08-.22s.1,0,.15,0a2,2,0,0,1-.08.22S71,82.83,70.92,82.83Z"/><path d="M62,390.78l-.38-.38-.13-.15.18-.36,1.68,0,.42.42c0,.27-.16.39-.41.4C62.87,390.75,62.4,390.77,62,390.78Z"/><path d="M63.41,381.43a1.45,1.45,0,0,1,.21.22,9.29,9.29,0,0,1,.33.93,1,1,0,0,1,0,.51c-.28.41-.62.14-.94.33l-.29-.87A1.87,1.87,0,0,0,63.41,381.43Z"/><path d="M59.37,412.4l-.59-.58,0-.66.32-.33.33.33h.45v.67Z"/><path d="M63.7,386.21l-.62-.62c-.1-.39.37-.45.44-.82l-.49-.66c.25-.2.49,0,.74-.12-.25.41.52.75,0,1.12Z"/><path d="M63.54,393.89a2.07,2.07,0,0,1-.56,0c-.36-.11-.71-.27-1.09-.41l.25-.52.78.13C63.08,393.28,63.44,393.43,63.54,393.89Z"/><path d="M62.4,388.73h.81l.78-.55-.06.75-.4,0-.53.48C62.68,389.23,62.38,389.11,62.4,388.73Z"/><path d="M62.85,382.67H62c-.19-.16-.43-.28-.5-.6l.54-.54.35.21,0,.49Z"/><path d="M61.11,390.06c-.18,0-.26,0-.28,0q-.8-.78-1.56-1.56s0-.1,0-.15C59.68,388.4,59.84,388.54,61.11,390.06Z"/><path d="M61.72,430.47l.5.49-.26.41c-.39,0-.47-.31-.68-.44C61.25,430.6,61.41,430.46,61.72,430.47Z"/><path d="M61.72,386.45v-.69l.55.18.12.54C62.09,386.81,61.9,386.73,61.72,386.45Z"/><path d="M62.91,391.87l.45-.5.3.19-.08.77C63.35,392.34,63.31,392,62.91,391.87Z"/><path d="M61.06,435.4l0-.44c.4,0,.5.29.7.51-.13.45-.8-.27-.74.57C60.86,435.63,60.86,435.63,61.06,435.4Z"/><path d="M57.11,385l.39-.38.51.29-.41.51Z"/><path d="M63.64,380.26l-.43.43-.44-.29.35-.5Z"/><path d="M62.84,459a.69.69,0,0,1,.68-.68A.67.67,0,0,1,62.84,459Z"/><path d="M61,426c.33,0,.46.16.47.41C61.17,426.52,61.09,426.31,61,426Z"/><path d="M60.48,379.48a2.16,2.16,0,0,1,.33.27s0,.15-.06.22-.12,0-.15,0-.17-.22-.26-.34Z"/><path d="M62.17,385.07v-.16a.72.72,0,0,1,.22.08s0,.09,0,.14Z"/><path d="M63.67,386.06l0,.42C63.35,386.44,63.54,386.28,63.67,386.06Z"/><path d="M59.32,392.54l-.07-.22s.13,0,.15,0a1.43,1.43,0,0,1,.08.22Z"/><path d="M63.54,396.88l.43,0C63.92,397.19,63.77,397,63.54,396.88Z"/><path d="M56.14,390.37l.42,0C56.52,390.69,56.36,390.5,56.14,390.37Z"/><path d="M61.27,423.13l.23-.07c0,.05,0,.13,0,.15a1.13,1.13,0,0,1-.22.08Z"/><path d="M58.65,426.2h.16a.92.92,0,0,1-.09.23s-.09,0-.14,0Z"/><path d="M62.69,430.24h.15a.63.63,0,0,1-.08.23s-.09,0-.14,0Z"/><path d="M59,428.51l.22-.06c0,.05,0,.13,0,.14a.83.83,0,0,1-.22.08Z"/><path d="M63.44,377.75l0,.43C63.13,378.13,63.32,378,63.44,377.75Z"/><path d="M63,442.59l.07.22s-.13,0-.14,0a1,1,0,0,1-.09-.22Z"/><path d="M63,445.73l.07.22s-.13,0-.14,0a.85.85,0,0,1-.09-.22Z"/><path d="M63.37,381.52l0-.43C63.68,381.14,63.49,381.3,63.37,381.52Z"/><path d="M59.77,294.75l.39.4c-.09.43-.44.65-.79.92l-.34-.25c0-.5.32-.49.65-.44Z"/><path d="M58,278.19l.67-.67.34.33c0,.39-.29.5-.53.68S58.18,278.3,58,278.19Z"/><path d="M59.67,287.75l.7,0c.15.22.44.3.46.68l-.34-.11c-.09,0-.17-.09-.26-.12a1.93,1.93,0,0,1-.41-.12C59.76,288,59.74,287.9,59.67,287.75Z"/><path d="M58.46,281.78l.38.38-.29.51-.51-.41Z"/><path d="M59.39,289.94c.27-.35.38-.66.77-.64l-.33.94Z"/><path d="M58.12,286.1l.71.16-.26.37C58.27,286.59,58.13,286.47,58.12,286.1Z"/><path d="M76.7,453.93l-.44-.43.3-.44.5.35Z"/><path d="M76.53,448v.16a2,2,0,0,1-.22-.08s0-.1,0-.15Z"/><path d="M76.2,396c-.19.1-.24.45-.56.3C75.84,395.92,75.84,395.92,76.2,396Z"/><path d="M75.08,391.31c.36-.1.36-.1.56.29C75.31,391.76,75.26,391.41,75.08,391.31Z"/><path d="M76,420.76c.62.17.75.58,1.3.92C76.62,421.59,76.62,421.59,76,420.76Z"/><path d="M58.47,273.71c-.1-.37-.1-.37.3-.57C58.92,273.47,58.57,273.52,58.47,273.71Z"/><path d="M58.37,303.46l-.36.24c-.21-.24,0-.49-.14-.71C58.22,303,58.35,303.15,58.37,303.46Z"/><path d="M61.17,319.86a1.64,1.64,0,0,1-.33-.26s0-.15.06-.22.12,0,.15,0,.17.22.26.33Z"/><path d="M65.65,141.29a.27.27,0,0,1,.45,0A.27.27,0,0,1,65.65,141.29Z"/><path d="M57.38,378l0,.42C57.07,378.36,57.26,378.2,57.38,378Z"/></g></g></svg>