<svg xmlns="http://www.w3.org/2000/svg" viewBox="0 0 255.03 144.92"><title>Recurso 52ART</title><g id="Capa_2" data-name="Capa 2"><g id="Capa_1-2" data-name="Capa 1"><path d="M163.31,143.09v1.77a1.05,1.05,0,0,1-.24.06h-6.88l-.17,0a.18.18,0,0,1-.05-.07.27.27,0,0,1,0-.09v-1.55s-.05-.06-.08-.07l-.08,0h-3.39s0,0-.08-.05a1.35,1.35,0,0,1,0-.53c0-.21,0-.42,0-.64v-.52s-.06-.07-.09-.08a.11.11,0,0,0-.08,0H146.9s0,0-.09-.06V130.31c.2-.14.41-.05.62-.06s.37,0,.55,0a1.25,1.25,0,0,0,.65-.07v-5.34c.05,0,.07-.08.1-.09h1.64a.23.23,0,0,0,.07-.07.19.19,0,0,0,0-.08v-5.23s0,0,.06-.11c.55,0,1.13,0,1.7,0l.06-.07a.29.29,0,0,0,0-.09v-5.22s0,0,.07-.11H154a.7.7,0,0,0,.09-.09s0-.06,0-.09v-5.14a.27.27,0,0,1,0-.09l.09-.1h1.65c.06,0,.08-.07.09-.1s0-.06,0-.09V97.31c-.12-.15-.28-.08-.42-.09h-1.4c0-.61,0-1.18,0-1.75l-.07-.06a.15.15,0,0,0-.09,0H126.74l-.11,0c0-.55,0-1.13,0-1.7l-.06-.06-.09,0h-3.39s0,0-.11-.07V91.82a.7.7,0,0,0-.09-.09s-.06,0-.09,0h-3.39s0,0-.1-.08V90l-.1-.11h-5.36a2.86,2.86,0,0,1,0-.88c0-.3,0-.6,0-.87a.39.39,0,0,0-.11-.08h-3.47c-.18-.2-.07-.42-.09-.62s0-.37,0-.55v-.65h-5.41c-.17-.22-.08-.44-.09-.65s0-.36,0-.55a1.35,1.35,0,0,0-.06-.65H101c-.06,0-.09-.07-.1-.1s0-.06,0-.09V82.54h3.55s0,0,.11-.08V80.87a.19.19,0,0,0,0-.08.12.12,0,0,0-.06-.06h-3.59v1.81H97.34c0-.06-.08-.08-.08-.11V80.71H99s0,0,.11-.08V79a.15.15,0,0,0,0-.09l0-.06h-1.7s-.06.07-.06.09v1.73H93.67c0-.06-.08-.09-.08-.11V78.87h1.73s.05,0,.07-.06a47.75,47.75,0,0,0,0-5.42H93.65s-.06.07-.06.1v5.38H91.82a.88.88,0,0,1-.07-.23V71.76a1,1,0,0,1,0-.17.18.18,0,0,1,.07,0h1.63s.06,0,.08-.07a.19.19,0,0,0,0-.08V64.32s0,0,0-.08a1.06,1.06,0,0,1,.53,0c.21,0,.43,0,.64,0h.53s.07-.06.08-.09a.19.19,0,0,0,0-.08v-3.4s0,0,.08-.1h1.66c0-.05.08-.07.09-.1a.25.25,0,0,0,0-.09V55.12c.11-.16.27-.09.41-.1H99c0-.06.07-.08.08-.1a.27.27,0,0,0,0-.09V51.44c.19-.18.41-.07.62-.08a5,5,0,0,1,.55,0h.59c0-.07.07-.09.07-.12a.25.25,0,0,0,0-.09V51c0-1,0-2.08,0-3.12,0,0,0-.05,0-.09.19-.15.41,0,.61-.06a5.09,5.09,0,0,1,.55,0h.64V44.09l-.07-.07s-.06,0-.09,0H101a2.58,2.58,0,0,1,0-.88c0-.3,0-.6,0-.87-.07,0-.09-.08-.11-.08H60.65c-.15.11-.08.28-.09.42v1.33c-.06,0-.08.08-.1.08a1.21,1.21,0,0,1-.19,0H49.64l-.07.08a.19.19,0,0,0,0,.08V49.4s0,0,0,.07a1.19,1.19,0,0,1-.53.05H47.8c-.16.2-.06.42-.08.62s0,.37,0,.55a1.54,1.54,0,0,1-.07.66H46l-.09.09a.28.28,0,0,0,0,.09v3.4c-.11.15-.27.09-.41.09H44.13c0,.06-.07.08-.08.11s0,.06,0,.09V58.6c-.19.18-.41.07-.62.09s-.36,0-.55,0h-.59c0,.07-.07.09-.07.12a.28.28,0,0,0,0,.09v3.3s0,.06,0,.09c-.19.15-.41.05-.62.07H41a1.39,1.39,0,0,0-.66.07v5.34l-.09.09a.27.27,0,0,1-.09,0H38.64c-.15.12-.09.28-.09.42,0,1.5,0,3,0,4.5v.5s-.07.08-.1.09H36.8l-.07.07a.29.29,0,0,0,0,.09v8.89s0,0-.05.08a1.3,1.3,0,0,1-.52,0H35c-.16.21-.07.43-.08.63s0,.37,0,.55a1.34,1.34,0,0,1-.06.65H33.14c-.06.06-.09.07-.1.1a.27.27,0,0,0,0,.09V88c-.11.15-.28.09-.42.09H31.29l-.08.1a.27.27,0,0,0,0,.09v3.39c-.2.18-.42.06-.62.08s-.37,0-.55,0a1.68,1.68,0,0,0-.66,0v1.7c-.25.16-.5.06-.73.08s-.43,0-.64,0H23.87v1.73c-.05.06-.07.1-.1.1H22.08a2.86,2.86,0,0,0,0,.88c0,.3,0,.6,0,.87-.06,0-.08.07-.11.08s-.06,0-.09,0h-7c-.18.19-.07.41-.08.62s0,.36,0,.55a1.57,1.57,0,0,1,0,.64H11.09c-.14-.18-.05-.4-.06-.61s0-.36,0-.55a1.25,1.25,0,0,0-.07-.65H3.78s-.09-.07-.09-.09a1.15,1.15,0,0,1,0-.19V95.39H16.43s.05,0,.1-.1V93.63c.06,0,.08-.08.1-.08h3.48s.05,0,.09-.08V91.83l-.08-.11h-.87a3.32,3.32,0,0,1-.89,0V90s0,0,.09-.1h1.67c.14-.23.06-.44.07-.65s0-.36,0-.55-.07-.42.08-.64h7.18c0-.06.07-.08.07-.11,0-1.13,0-2.26,0-3.39a.19.19,0,0,1,0-.08l.07-.08c.57,0,1.14,0,1.75,0V80.86a.11.11,0,0,1,0-.08s0,0,.06-.07h1.65s0,0,.08-.07V75.27s-.06-.06-.09-.06H16.7s-.06,0-.09,0,0,0-.06-.06V56.91a1.56,1.56,0,0,1,.64,0c.19,0,.37,0,.55,0s.43.09.61-.07c0-.58,0-1.15,0-1.76H38c.17,0,.37.08.51-.09v-3.3a1.09,1.09,0,0,1,0-.18s0-.05.09-.1h1.67a1.5,1.5,0,0,0,.07-.65c0-.18,0-.37,0-.55s-.08-.42.08-.63h1.68c0-.07.07-.1.07-.12V42.34a.29.29,0,0,1,0-.09l.08-.07h1.63s.05,0,.11-.09c0-.42,0-.88,0-1.33,0-.14-.06-.3.09-.42h20l.07-.07V38.58s-.06-.07-.09-.07H40.46a.57.57,0,0,0-.08.08v.53c0,.21,0,.42,0,.64a1.18,1.18,0,0,1-.07.57h-.6a5,5,0,0,0-.55,0c-.2,0-.43-.1-.62.08V42a.33.33,0,0,1,0,.1l-.08.1h-5c-.15,0-.31-.06-.42.09v1.56s0,.07,0,.09,0,0,.09.1h7.18a1.48,1.48,0,0,1,.06.65,5,5,0,0,1,0,.55c0,.21.08.43-.09.63H38.66l-.08,0a.21.21,0,0,0,0,.07c0,1.14,0,2.27,0,3.4a.19.19,0,0,1,0,.08l-.07.07H29.74a2.43,2.43,0,0,0-.27,0s0,0-.1.09v1.66c-.06,0-.08.08-.1.08H22.21s-.07,0-.09,0-.05,0-.1-.09V49.57a1.15,1.15,0,0,0-.2,0H20.36a.15.15,0,0,0-.09,0s0,0-.06.06c0,.57,0,1.15,0,1.73l-.3,0H15c-.12,0-.24,0-.33-.09V44H31.1s0,0,.1-.08V36.77c.05-.05.07-.08.1-.09h1.64c.16-.11.1-.27.1-.41V33.09c.06-.05.08-.08.1-.08h1.69a3.23,3.23,0,0,0,0-.88c0-.3,0-.6,0-.87a.58.58,0,0,1,.12-.08.27.27,0,0,1,.09,0H80.64l.1-.08V29.44c.05-.06.07-.1.1-.1a1.08,1.08,0,0,1,.18,0h1.56v5.38s0,.05.07.12h1.6a.11.11,0,0,0,.08,0s0,0,.07-.06V29.34H82.58V27.59c.11-.15.28-.09.42-.09h3.16c0-.06.08-.08.09-.11V25.76l.07-.08h5.31s.05,0,.11-.06V23.94c.05-.06.07-.09.1-.1h5.31s0,0,.09.07v5.36s0,.07-.08.07H93.59c0-.58,0-1.16,0-1.74,0,0,0,0,0-.06a22,22,0,0,0-3.59,0v1.69s.07.06.09.06h3.56v1.74c.11.15.27.09.42.09h3.16c0,.06.08.08.08.11,0,.54,0,1.09,0,1.64-.2.17-.42.06-.62.08s-.37,0-.55,0a1.62,1.62,0,0,0-.65.05v1.71s0,0,.07.06H98.9a.27.27,0,0,1,.09,0l.1.08v1.66c0,.05.07.09.1.09h1.69a3.21,3.21,0,0,0,0-.88c0-.3,0-.6,0-.87.06-.05.08-.08.11-.08h1.63s.06,0,.07.08a.12.12,0,0,1,0,.08v3.4s0,0,.07.1h1.69c.15.26,0,.5.07.74s0,.49,0,.73v2.19h1.77l.07-.08V40.44l.07-.07.08,0H121c0,.07.08.09.08.12V47.6c-.2.17-.42.06-.63.08h-.55a1.5,1.5,0,0,0-.65.07v3.52c-.22.15-.44.06-.64.08h-1.2v3.59c-.06,0-.08.08-.1.08h-1.65l-.06.07a.16.16,0,0,0,0,.09v3.39s0,0,0,.08a1.35,1.35,0,0,1-.53,0c-.21,0-.43,0-.64,0h-.53l-.08.08a.28.28,0,0,0,0,.09v5.23s0,0-.08.1H112s-.08.07-.09.1a.25.25,0,0,0,0,.09v3.39c-.11.15-.27.09-.41.09-.46,0-.91,0-1.34,0,0,.06-.07.08-.08.11a.27.27,0,0,0,0,.09v3.38c-.19.18-.41.07-.62.09s-.36,0-.55,0a1.62,1.62,0,0,0-.65,0v3.52c-.22.17-.44.07-.65.09s-.36,0-.55,0a1.25,1.25,0,0,0-.63.06v7.19s0,.08.07.08H110c.15-.11.09-.28.09-.42V77.06c.61,0,1.18,0,1.75,0,0,0,.05,0,.06-.07a.11.11,0,0,0,0-.08c0-1.74,0-3.49,0-5.23,0,0,0-.05.06-.1h1.66l.1-.1a.28.28,0,0,0,0-.09v-3.3a.27.27,0,0,1,0-.09s0,0,.08-.1h1.66c0-.06.09-.08.09-.1a1.08,1.08,0,0,0,0-.18V62.41a2.9,2.9,0,0,1,.88,0h.88c0-.06.07-.08.08-.11V58.78c.19-.17.42-.07.62-.09s.37,0,.55,0a1.47,1.47,0,0,0,.65-.06V55.11c.23-.16.44-.07.65-.09s.36,0,.55,0a1.25,1.25,0,0,0,.65-.07V49.61s.07-.09.1-.09a1.08,1.08,0,0,1,.18,0h1.46l.07-.07a.31.31,0,0,0,0-.08V46s0,0,0-.07.35,0,.52,0h1.17l.08-.08a.15.15,0,0,0,0-.09V42.29s0,0,.07-.1H132a23.75,23.75,0,0,0,0-3.68h-23.7s-.08-.07-.08-.1a1.09,1.09,0,0,1,0-.18V25.67H110s0,0,.1-.08V24.25c0-.15.06-.31-.1-.42h-1.74q0-3.61,0-7.23s0-.05.08-.1H110c0-.06.09-.08.1-.1V14.73a.62.62,0,0,1,.23-.07H119l.18,0s.05,0,.06.07a.27.27,0,0,1,0,.09V16.4c.11.15.28.09.42.09H130.2c.15.22.06.43.08.64s0,.36,0,.55v.65H132c0,.05.09.07.09.09a1.21,1.21,0,0,1,0,.19V21.9c.11.15.27.09.41.09h6.82c.06.05.1.07.1.09a1.08,1.08,0,0,1,0,.18v1.56h-1.72s0,0-.11.08V25.5a.15.15,0,0,0,0,.09l.05.06h1.7s.06-.07.06-.09V23.83h1.74c.16.11.1.28.1.42v3.16c.05.05.07.09.1.09h27.33c.05-.05.09-.08.09-.1V25.76a.46.46,0,0,1,.07-.07l.08,0h7.1c.05-.06.09-.08.09-.1V22h1.72s0,0,.07,0,0-.05,0-.07V20.16h1.84V22a2.86,2.86,0,0,0,.88,0h.87l.08.1a.27.27,0,0,1,0,.09v1.55c.2.18.42.07.62.09s.37,0,.55,0h.66v1.75c.22.16.44.07.64.08a3.37,3.37,0,0,0,.55,0,1.24,1.24,0,0,0,.65-.07V23.92c.06-.05.08-.09.1-.09h1.69a3.31,3.31,0,0,1,0,.89v.87c.06,0,.09.07.11.07h1.64c.16-.21.06-.43.08-.63s0-.37,0-.55a1.57,1.57,0,0,1,.06-.64h10.88a.46.46,0,0,0,.07.07.27.27,0,0,1,0,.09v1.56c.11.15.27.09.42.09h1.33a.39.39,0,0,0,.08-.11.25.25,0,0,0,0-.09V23.92a.23.23,0,0,1,.07-.07l.08,0h8.9s.05,0,.07,0a.35.35,0,0,0,0-.08V20.32a.19.19,0,0,1,0-.08l.06-.07h3.48s.05,0,.1-.08V18.43c.06-.06.08-.1.1-.1h1.74v3.39a1.08,1.08,0,0,1,0,.18s0,0-.09.1h-3.51a25,25,0,0,0,0,3.67h10.94v.65c0,.18,0,.36,0,.55s-.07.42.09.64h1.68a1.35,1.35,0,0,1,.06.65c0,.19,0,.37,0,.55s-.09.43.07.6h10.88a1.56,1.56,0,0,0,.05-.64,3.37,3.37,0,0,0,0-.55c0-.2.09-.42-.07-.61-.58,0-1.15,0-1.76,0,0-.34,0-.64,0-.94a2.86,2.86,0,0,0-.05-.88h-9s0,0-.1-.08c0-.27,0-.57,0-.87a2.88,2.88,0,0,0,0-.88h-1.51a1.08,1.08,0,0,1-.18,0s0,0-.1-.11V18.41s-.08-.08-.1-.08h-7.24V16.59c.09-.13.21-.1.33-.1H232.7l.25,0s.07,0,.07.08a1.09,1.09,0,0,1,0,.18v1.47c.11.14.28.08.42.08h3.16a.39.39,0,0,1,.08.11s0,.06,0,.09v5.21c.2.18.42.07.62.09s.37,0,.55,0h.67v3.58a.57.57,0,0,0,.08.08h3.48s0,0,.1.08V40.25c.22.17.44.07.64.09s.37,0,.55,0a1.24,1.24,0,0,1,.65.07v3.5c.06,0,.08.09.1.09a1.08,1.08,0,0,0,.18,0h5.23v3.6a.73.73,0,0,1-.24.07h-6.87a1,1,0,0,1-.17,0s0,0-.06-.07a1.08,1.08,0,0,1,0-.18V45.89a3.31,3.31,0,0,0-.89,0h-.87c0,.06-.07.09-.07.11,0,1.16,0,2.32,0,3.47l.08.07.09,0h8.89s.05,0,.07,0,0,0,0,.08v1.63c-.21.16-.43.06-.63.08h-1.2v1.74c-.06,0-.07.08-.1.09s-.06,0-.09,0H246c-.15.11-.09.27-.09.42,0,.45,0,.9,0,1.33-.06,0-.08.07-.11.08h-1.63a.6.6,0,0,0-.08.08.19.19,0,0,0,0,.08v3.39s0,0,0,.08a1.35,1.35,0,0,1-.53,0c-.21,0-.43,0-.64,0h-.54c-.16.2-.06.42-.08.63s0,.37,0,.55a1.36,1.36,0,0,1-.07.65h-1.67c-.05,0-.08.07-.09.1a.25.25,0,0,0,0,.09v1.56c-.11.15-.27.09-.41.09h-1.33l-.09.1a1.21,1.21,0,0,0,0,.19V64.1l-.07.07a.15.15,0,0,1-.09,0H235a.13.13,0,0,0-.07,0,1.19,1.19,0,0,0,0,.53c0,.21,0,.43,0,.64v.53c-.2.17-.42.07-.63.09s-.36,0-.54,0a1.4,1.4,0,0,0-.64.06V82.47c.18.15.4,0,.6.07s.37,0,.55,0a1.57,1.57,0,0,1,.64.06v9.05c-.19.14-.41,0-.61.06s-.37,0-.55,0a1.24,1.24,0,0,0-.65.07v5.32c-.06.06-.08.1-.1.11a1.08,1.08,0,0,1-.18,0h-3.39V90s0,0,.08-.1h1.66c.05,0,.09-.07.09-.1V81a1.2,1.2,0,0,0,0-.19s0,0-.11-.1h-1.64c-.05,0-.08-.07-.08-.1V62.46s0,0,.08-.1h5c.14,0,.31.06.42-.09V59a1.21,1.21,0,0,1,0-.19s0,0,.1-.09h1.67a1.35,1.35,0,0,0,.06-.65c0-.19,0-.37,0-.55s-.08-.43.09-.65h1.68a1.47,1.47,0,0,0,.06-.65c0-.18,0-.37,0-.55s-.09-.42.08-.61c.57,0,1.15,0,1.71,0a18.45,18.45,0,0,0,0-3.66H236.8s-.05,0-.11-.09v-.5c0-1.5,0-3,0-4.49,0-.15.06-.31-.09-.42h-1.74V44.29a1.08,1.08,0,0,0,0-.18s0,0-.09-.1h-3.16c-.15,0-.31-.07-.42.09v1.74h-1.74s0,0-.1.1v5.4H214.68V49.52h1.74a.7.7,0,0,0,.09-.09c0-.43,0-.88,0-1.33,0-.14.06-.31-.09-.42h-1.74V46s0,0-.05-.08,0,0-.07,0h-1.72V44.12s0,0-.05-.07a21.91,21.91,0,0,0-3.59,0v1.69s.06.07.09.07h3.55c0,.57,0,1.14,0,1.72,0,0,0,0,0,.07s.05,0,.07,0h1.72v1.84h-5.51V47.79s0,0-.08-.11H207.5l-.08,0a.16.16,0,0,0-.06,0v1.7s.06.07.09.07h1.72c0,.57,0,1.15,0,1.73,0,0,0,0,.08.1h5.42v1.74s0,0-.09.1H205.5V47.78s0,0-.08-.1h-3.17c-.14,0-.3-.07-.41.09v1.74H200.1s0,0-.06,0a21,21,0,0,0,0,3.6h1.69c0-.05.06-.07.06-.1,0-1.18,0-2.37,0-3.55h1.55a1.08,1.08,0,0,1,.18,0s.05,0,.1.09v3.16c0,.14-.06.31.1.42h1.73v1.64s0,.07,0,.09,0,0-.09.1h-3.16c-.14,0-.3-.06-.41.1v1.55a.25.25,0,0,1,0,.09s0,0-.1.1h-3.15c-.14,0-.3-.06-.41.09v1.74h-1.72s0,0-.07.05,0,0,0,.07v1.72h-1.72s0,0-.07,0,0,0,0,.07v1.72h-3.56s-.05,0-.11.08V69.7H189.1s0,0-.11.08v3.59h-1.73s0,0-.07.06a22,22,0,0,0,0,3.59h1.7s.06-.07.06-.1V73.37h1.73s0,0,.11-.08V69.7h1.73s0,0,.07-.06a.21.21,0,0,0,0-.07V66.19a.12.12,0,0,1,0-.08s0,0,.09-.09h1.66c0-.06.06-.08.06-.1,0-1.19,0-2.37,0-3.56h1.71s0,0,.08,0,0,0,0-.07V60.53h1.72a.15.15,0,0,0,.11-.11c0-.57,0-1.15,0-1.72h7.06a1.08,1.08,0,0,0,.18,0s.05,0,.1-.1V56.91a23.13,23.13,0,0,1,3.66,0v.55c0,.21,0,.42,0,.64a1.07,1.07,0,0,0,0,.53s.05,0,.08,0h3.39l.08,0a.46.46,0,0,1,.07.07v3.3a1.09,1.09,0,0,0,0,.18s0,.05.08.1h5.33c.05.06.09.08.09.1V78.7a.28.28,0,0,1,0,.09s0,0-.1.09h-1.68c-.08,1.18-.11,8.77-.05,14.51a.19.19,0,0,0,0,.08s0,0,.06.07c.58,0,1.15,0,1.76,0V96.8c0,.14-.06.31.09.42h10.92V99c-.09.13-.22.09-.33.09q-7,0-14,0h-.25s-.06-.06-.07-.09a.27.27,0,0,1,0-.09V97.31c-.19-.18-.41-.07-.62-.09s-.36,0-.55,0h-.59c0-.07-.07-.09-.07-.12a.28.28,0,0,1,0-.09V66.2a.28.28,0,0,0,0-.09c-.18-.16-.4-.06-.61-.08s-.37,0-.55,0A1.47,1.47,0,0,1,211,66V64.3c-.06-.06-.07-.09-.1-.1a.27.27,0,0,0-.09,0H205.6l-.1-.08V62.45c-.05-.05-.07-.09-.1-.09h-3.47a.45.45,0,0,0-.07.07.12.12,0,0,0,0,.08c0,1.13,0,2.27,0,3.4a.13.13,0,0,1,0,.07,1.19,1.19,0,0,1-.53,0c-.21,0-.43,0-.64,0h-.53c-.17.2-.07.42-.09.63s0,.36,0,.55a1.36,1.36,0,0,1-.07.65h-1.67s-.08.07-.09.1,0,.06,0,.09v3.39c-.12.15-.28.09-.42.09-.46,0-.91,0-1.33,0,0,.06-.08.08-.09.11a.27.27,0,0,0,0,.09v3.38c-.19.18-.41.07-.62.09s-.36,0-.55,0a1.63,1.63,0,0,0-.65.05v3.52c-.22.17-.44.07-.64.09h-1.21v1.74c0,.06-.07.09-.09.1a.27.27,0,0,1-.09,0h-1.56c-.15.11-.09.28-.09.42V86.2c-.61,0-1.19,0-1.76,0,0,0,0,0-.06.07a.24.24,0,0,0,0,.08V91.6s0,.05-.07.1h-3.49a.84.84,0,0,0-.1.1.28.28,0,0,0,0,.09V97a.27.27,0,0,1,0,.09s0,0-.08.1h-1.66c-.05,0-.09.07-.09.1a1.08,1.08,0,0,0,0,.18v3.34a3,3,0,0,1-.89,0c-.3,0-.6,0-.87,0,0,.06-.07.09-.07.11a.28.28,0,0,0,0,.09v5.22c-.2.17-.42.06-.62.08s-.37,0-.55,0a1.34,1.34,0,0,0-.65.06v5.35c-.23.16-.44.07-.65.09s-.36,0-.55,0a1.25,1.25,0,0,0-.65.07v3.51s-.07.08-.1.08h-1.64l-.07.07a.19.19,0,0,0,0,.08V121s0,0-.05.08-.35,0-.52,0-.43,0-.65,0h-.52a.57.57,0,0,0-.08.08.29.29,0,0,0,0,.09v3.39s0,.05-.07.1h-1.66l-.1.1a.27.27,0,0,0,0,.09v5.23c-.11.15-.28.09-.42.09h-1.33c0,.05-.07.07-.08.1a.28.28,0,0,0,0,.09v5.22c-.18.18-.41.07-.61.09h-1.14a.58.58,0,0,0-.08.12.27.27,0,0,0,0,.09v5.13a.29.29,0,0,1,0,.09c-.18.15-.4,0-.61.07s-.37,0-.55,0a1.35,1.35,0,0,0-.65.06V143s-.07.09-.1.1h-3.57v-3.48s0-.07,0-.09,0-.05.09-.1h1.65c0-.06.09-.08.09-.1v-5.41h1.73s0,0,.11-.08v-5.42h1.73s0,0,.1-.08v-5.42h1.73s.05,0,.1-.08V117.4h1.73s0,0,.11-.08v-3.59h1.73s0,0,.1-.08v-5.42H176s.05,0,.11-.09v-5.42c.57,0,1.15,0,1.72,0,0,0,0,0,.11-.08V99.06h1.74s0,0,.1-.08V91.88a.11.11,0,0,0,0-.08s0,0-.07-.08c-.56,0-1.13,0-1.67,0-.05-.07-.07-.1-.07-.12a.28.28,0,0,1,0-.09V84.65a1.08,1.08,0,0,0,0-.18s0,0-.1-.09h-1.73V82.54h1.74a.7.7,0,0,0,.09-.09c0-.42,0-.87,0-1.33,0-.14.06-.3-.09-.41h-1.74V79s0,0-.09-.1H174.4c-.05-.05-.08-.08-.08-.1,0-1.8,0-3.6,0-5.4h1.74s0,0,.07-.06a.19.19,0,0,0,0-.08V69.86a.15.15,0,0,1,0-.09l.06-.06c.57,0,1.14,0,1.75,0V64.2h1.73s0,0,.11-.08V58.69h1.56a1.08,1.08,0,0,0,.18,0l.1-.09V56.94c.05,0,.07-.08.09-.08h5.41v5.38s0,0,.07.12h1.68l.07-.06V56.93s-.07-.07-.09-.07h-1.73V55.21a.27.27,0,0,0,0-.09l-.09-.1h-3.16c-.15,0-.31.06-.42-.09V49.62s0,0-.09-.1c-.27,0-.57,0-.87,0a2.88,2.88,0,0,0-.88,0v1.14c0,.18,0,.36,0,.54s0,0-.07.09h-1.76v-.63c0-.19,0-.37,0-.55s.06-.42-.07-.62H178c-.08.92-.08,4.67,0,5.48h1.77v3.67h-1.73s-.05,0-.11.09V64.2h-1.83V62.48s0,0-.05-.07,0,0-.07,0h-1.72V60.81a1.2,1.2,0,0,0,0-.19s0,0-.09-.09h-1.33c-.14,0-.3-.06-.41.09v1.74h-1.73s-.05,0-.07.06a22,22,0,0,0,0,3.59h3.59V64.2h1.84v3.48a.27.27,0,0,1,0,.09l-.09.1H174.4c-.05,0-.08.07-.08.09,0,1.81,0,3.61,0,5.41h-1.55a1.21,1.21,0,0,0-.19,0s0,0-.08.09,0,.15,0,.24v6.68c0,.12,0,.25.1.33h3.57v1.83h-5.41s0,0-.1.1v1.66a1.34,1.34,0,0,1-.65.06,2.53,2.53,0,0,1-.55,0c-.21,0-.42.09-.63-.08V82.66s0,0-.08-.12h-.87a3.71,3.71,0,0,0-.88,0v3.53s0,0,.08.1h1.67c.14.23.06.44.08.65a5,5,0,0,1,0,.55c0,.2.07.42-.09.65H167a21.67,21.67,0,0,0,0,3.66h3.47s.05,0,.11-.07v-.51c0-1.5,0-3,0-4.49,0-.15-.06-.31.09-.43h5.31s0,0,.08.08V88a1.25,1.25,0,0,1-.63.06c-.19,0-.37,0-.55,0s-.43-.08-.61.06v1.77h1.19c.2,0,.43-.09.62.09v3.38s0,.07,0,.09,0,0,.08.11h1.33c.15,0,.31-.06.42.09v5.42c-.57,0-1.15,0-1.72,0,0,0,0,0-.11.08v3.58h-1.73s0,0-.11.08v5.42h-1.73s0,0-.1.08v5.42h-1.73s0,0-.11.07v3.59h-1.73s0,0-.1.09v5.42h-1.73s-.05,0-.1.08v5.42h-1.73s-.05,0-.11.09v5.41H163.4s0,0-.09.08c0,.43,0,.88,0,1.34,0,.14.07.3-.09.41h-1.74v-3.39a1.08,1.08,0,0,0,0-.18s0-.05-.09-.1h-1.67a1.25,1.25,0,0,1-.07-.65c0-.18,0-.37,0-.55s.08-.42-.06-.61h-5.38a1.57,1.57,0,0,0-.06.64,3.39,3.39,0,0,0,0,.55c0,.2-.09.42.07.6l.08,0h3.3a.34.34,0,0,1,.1,0l.11.08v.59a5,5,0,0,0,0,.55c0,.2-.1.43.08.61h1.64a.39.39,0,0,1,.11.08c0,.42,0,.88,0,1.33,0,.14-.06.31.09.42h1.74v3.56s0,0-.08.11H156c0-.58,0-1.16,0-1.73,0,0,0-.05-.05-.07a22,22,0,0,0-3.59,0v1.7s.07.06.09.06H156v1.73s0,0,.05.07,0,0,.08,0h3.37l.09,0a.7.7,0,0,1,.09.09V143s.08.07.1.07Zm0-56.88v1.73s0,0,.08.11H165l.08,0a.12.12,0,0,0,.06-.06V86.28s-.06-.07-.09-.07h-1.72c0-.57,0-1.15,0-1.72,0,0,0,0-.08-.11h-1.67a.34.34,0,0,0-.06.06v1.69s.07.07.09.07Zm22-3.67h1.73s0,0,.07-.05a22.07,22.07,0,0,0,0-3.6h-1.69s-.07.07-.07.1v3.55H183.6s0,0-.11.08v3.59h-1.74s0,0-.06.06a48.21,48.21,0,0,0,0,5.42h1.7s.06-.07.06-.09V86.21h1.72s0,0,.11-.08Zm-80.73-33h1.74s0,0,.07,0a47.71,47.71,0,0,0-.05-5.42h-1.69s-.06.07-.06.09c0,1.8,0,3.59,0,5.39h-1.72s-.05,0-.11.08v1.59a.11.11,0,0,0,0,.08.16.16,0,0,0,0,.06h1.7s.06-.06.06-.09C104.6,50.67,104.59,50.09,104.59,49.52ZM212.84,34.84c0,.57,0,1.15,0,1.73,0,0,0,0,.08.1h1.67s0,0,.06-.06V34.91s-.07-.07-.09-.07h-1.73V33.28a1.09,1.09,0,0,1,0-.18s0-.05.09-.1h1.67a1.5,1.5,0,0,0,.07-.65,5,5,0,0,0,0-.55c0-.21.08-.43-.09-.63h-1.17a1.22,1.22,0,0,1-.58-.07c0-.28,0-.58,0-.88a3.25,3.25,0,0,1,0-.88h1.7s0,0,.08-.07V27.57s-.06-.07-.08-.07H176.25s-.05,0-.08.07v1.7c.21.12.42.05.63.06s.37,0,.55,0,.42-.08.64.09V43.94c.06,0,.08.07.11.07h5.31a.57.57,0,0,0,.08-.08V42.29s0,0-.08-.11h-.87a3.31,3.31,0,0,1-.89,0c0-1.2,0-2.36,0-3.52,0,0,0,0,.08-.1h3.51a1.25,1.25,0,0,0,.07-.65c0-.18,0-.37,0-.55s-.08-.42.06-.61h5.38a1.56,1.56,0,0,1,0,.64c0,.18,0,.37,0,.55s-.09.42.08.62h1.64a.39.39,0,0,1,.11.08c0,.27,0,.57,0,.87a2.86,2.86,0,0,0,.05.88h1.69s0,0,.08.08v1.69a1.57,1.57,0,0,1-.64.06h-.55c-.2,0-.42-.08-.63.08V43.9s0,0,.05.07a47.8,47.8,0,0,0,5.46,0V29.54a.33.33,0,0,1,0-.1l.08-.1H209l.09,0,.06.07v1.46a1.09,1.09,0,0,0,0,.18s0,.05.09.1h1.67c.13.23.05.45.07.65a5,5,0,0,1,0,.55c0,.21.07.43-.09.65h-1.69a1.08,1.08,0,0,0,0,.19c0,1.1,0,2.2,0,3.3a.29.29,0,0,0,0,.09l.08.07h1.63s0,0,.11-.08c0-.27,0-.57,0-.87a2.86,2.86,0,0,1,.05-.88ZM121.11,62.36v5.23a1.09,1.09,0,0,1,0,.18s0,0-.09.1h-1.66c0,.06-.08.08-.08.1v3.4a.19.19,0,0,1,0,.08s0,0-.08.08H118a1.06,1.06,0,0,0-.53,0s0,0,0,.08v3.39a.11.11,0,0,1,0,.08s0,.05-.06.07H115.7s0,0-.1.08v5.34c-.23.14-.44.06-.65.08s-.36,0-.55,0-.42-.07-.61.06v1.77h.64a5,5,0,0,1,.55,0c.21,0,.43-.09.61.07,0,.58,0,1.15,0,1.76h.94a2.6,2.6,0,0,1,.88.05V86a.27.27,0,0,0,0,.09s0,0,.07.07h7.21a1.4,1.4,0,0,0,0-.64c0-.18,0-.36,0-.55s-.08-.42.08-.62H126a1.16,1.16,0,0,0,.57-.07c0-.28,0-.58,0-.88a3.77,3.77,0,0,1,0-.89h3.53s0,0,.1-.09V80.78a1.25,1.25,0,0,1,.65-.07c.18,0,.37,0,.55,0s.42.08.65-.08V78.87h.65a5,5,0,0,0,.55,0c.2,0,.43.09.62-.09V75.4a.27.27,0,0,1,0-.09s0,0,.08-.11h.88a2.54,2.54,0,0,0,.87,0V69.88a.28.28,0,0,1,0-.09l.09-.1h1.66s.08-.08.08-.1V64.36a.19.19,0,0,1,0-.08.3.3,0,0,1,.08-.08h1.17a1,1,0,0,0,.57-.06V58.84a.13.13,0,0,0,0-.08l-.07-.07H137.9a1.08,1.08,0,0,1-.18,0s-.05,0-.1-.09V56.94c-.06,0-.08-.08-.1-.08H124.86l-.09.1v1.73h-1.21c-.2,0-.42-.09-.62.09v3.38s0,.07,0,.09a.39.39,0,0,1-.08.11Zm-5.51-44v3.37a1.08,1.08,0,0,1,0,.18s0,.05-.07.08h-1.7a1.41,1.41,0,0,1-.06-.64c0-.18,0-.37,0-.55s.08-.43-.09-.63h-3.47s0,0-.11.08c0,.27,0,.57,0,.87a3.77,3.77,0,0,0,0,.89h1.51a1.08,1.08,0,0,1,.18,0s0,0,.1.09v5.32c.06.05.08.09.1.09h18.16s.05,0,.07-.06v-1.7s-.07-.06-.09-.06H119.43l-.08,0a.3.3,0,0,1-.08-.08v-7a.34.34,0,0,0,0-.1l-.07-.08ZM135.78,44v5.85c0,.24,0,.49,0,.73a1.88,1.88,0,0,1-.05.74h-1.36c-.14,0-.31-.06-.42.1v1.46a1.08,1.08,0,0,0,0,.18.16.16,0,0,0,.07.07.86.86,0,0,0,.17,0h6.86a1.05,1.05,0,0,0,.24-.06V51.63a1.08,1.08,0,0,1,0-.18s0-.05.09-.1h1.74V50.7c0-.18,0-.36,0-.54s.07-.43-.08-.65h-1.67s-.07-.07-.08-.1a.27.27,0,0,1,0-.09V44.19s0-.06,0-.09a.45.45,0,0,0-.07-.07Zm23.86,42.18H157.9s-.05,0-.1.09V88a1.35,1.35,0,0,1-.65.06c-.19,0-.37,0-.55,0s-.43-.08-.63.08v1.75h-1.22c-.2,0-.43-.09-.62.09v1.64s0,0,.09.11c.42,0,.87,0,1.33,0,.14,0,.3-.06.42.09v1.56a.27.27,0,0,0,0,.09.45.45,0,0,0,.07.07h3.53s.06-.06.06-.09a.25.25,0,0,0,0-.09v-3.3s0-.06,0-.08,0,0,.09-.1h1.68a1.15,1.15,0,0,0,.05-.2V88.21a.15.15,0,0,0,0-.09s0,0-.06-.06c-.57,0-1.15,0-1.75,0Zm-25.71,1.9s-.06-.06-.09-.06h-7.13s0,0-.08.08v1.69a1.25,1.25,0,0,0,.63.06c.18,0,.37,0,.55,0s.42-.07.64.09v3.52a24.9,24.9,0,0,0,3.67,0v-1.7a1.34,1.34,0,0,1,.65-.06c.18,0,.37,0,.55,0s.42.08.61-.06Zm25.72-55.17c.84.09,6.45.09,7.31,0V31.23c-.84-.08-6.45-.08-7.31,0Zm71.54,5.58v1.64a.27.27,0,0,0,0,.09s.05,0,.08.07l.15,0h6.87a.94.94,0,0,0,.24-.06V38.69a.27.27,0,0,0,0-.09s-.05,0-.09-.08ZM132.12,44v5.39s0,0,.08.1h1.34c.14,0,.3.07.41-.09V44.11s0,0-.07-.08Zm16.53-9.19H154s.05,0,.1-.09c0-.27,0-.57,0-.87a2.6,2.6,0,0,0,0-.88h-5.35s0,0-.08.07Zm16.47,56.88h-3.55s0,0-.06,0a18.33,18.33,0,0,0,.05,3.62h1.64s.05,0,.11-.08c0-.27,0-.57,0-.87a3.23,3.23,0,0,1,0-.88H165s0,0,.08-.07Zm18.35-18.35h-1.54a1.08,1.08,0,0,0-.18,0s-.05,0-.1.09c0,1,0,2.1,0,3.16,0,.14-.06.31.09.42h1.64s.05,0,.08-.08ZM113.78,32.94a24.56,24.56,0,0,0,3.64,0V31.23a27.63,27.63,0,0,0-3.64,0ZM84.47,36.69a26,26,0,0,0,0,3.64h1.71a26,26,0,0,0,0-3.64ZM185.34,67.86h1.54a1.08,1.08,0,0,0,.18,0s.05,0,.1-.09c0-1,0-2.1,0-3.16,0-.14.07-.3-.09-.41H185.6a1.08,1.08,0,0,0-.18,0s0,0-.08.07Zm-3.7,11h-1.72s0,0-.1.08c0,.27,0,.57,0,.87a2.58,2.58,0,0,0,.05.88h1.69s0,0,.08-.08ZM124.79,49.45c.21.13.43,0,.63.06a2.53,2.53,0,0,0,.55,0c.2,0,.42.07.63-.06v-1.7c-.21-.13-.43,0-.63-.06a2.53,2.53,0,0,0-.55,0c-.21,0-.42-.07-.63.06ZM189,42.18h-1.73s0,0-.09.09c0,.42,0,.88,0,1.33,0,.14-.06.3.09.41h1.46a1.2,1.2,0,0,0,.19,0s0,0,.08-.07ZM183.5,71.53H185a1.2,1.2,0,0,0,.19,0s0,0,.09-.09c0-.42,0-.87,0-1.33,0-.14.06-.3-.09-.41h-1.46a1.2,1.2,0,0,0-.19,0,.57.57,0,0,0-.08.08ZM25.7,62.34V60.62s0,0-.09-.09h-.87a2.54,2.54,0,0,0-.87,0v1.68s0,.05.07.08Zm122.94,75.18a1.25,1.25,0,0,0,.63.06h.55c.21,0,.42.07.63-.06v-1.71c-.21-.12-.43,0-.63-.06h-.55c-.21,0-.42-.06-.63.07ZM25.69,90c-.22-.13-.43,0-.64-.07h-.54c-.21,0-.42-.06-.63.07v1.7a1.25,1.25,0,0,0,.63.06,2.53,2.53,0,0,0,.55,0c.21,0,.42.07.63-.06Z"/><path d="M3.68,95.39H1.92a1.09,1.09,0,0,1-.07-.24V82.77a1.22,1.22,0,0,1,0-.17s0,0,.07,0H3.59c.13-.08.09-.21.09-.33V62.68c0-.08,0-.17,0-.25l-.08-.07H1.94c-.15-.12-.09-.28-.09-.42V49.6c-.06,0-.08-.08-.1-.08a1.08,1.08,0,0,0-.18,0H.1a20.24,20.24,0,0,1,0-3.62c.17-.1.35,0,.53,0H1.76c.17-.2.07-.42.09-.63s0-.36,0-.55A1.48,1.48,0,0,1,1.91,44H5.43c.16-.22.07-.44.09-.64s0-.37,0-.55a1.29,1.29,0,0,1,.06-.64h9s.08.06.08.08a1.08,1.08,0,0,1,0,.18V44H13s0,0-.1.1v1.66a1.48,1.48,0,0,1-.65.07h-.55c-.2,0-.42-.08-.6.06v1.72a1.56,1.56,0,0,0,.64,0c.18,0,.37,0,.55,0s.43-.09.61.07c0,0,0,.06,0,.09V91.39c0,.12,0,.25-.1.33H11.2a.27.27,0,0,0-.09,0l-.09.09V93.5a24.41,24.41,0,0,1-3.67,0v-.54c0-.21,0-.42,0-.64a1.15,1.15,0,0,0-.06-.57H5.68a.15.15,0,0,0-.09,0l-.07.07v1.54a.33.33,0,0,1,0,.1l-.09.1H4.1c-.14,0-.3-.06-.42.09Z"/><path d="M165.14,9.15h-9.08c-.15.11-.09.28-.09.42,0,.45,0,.91,0,1.33-.06,0-.08.09-.11.09h-1.69a3.8,3.8,0,0,1,0-.89V9.23c-.07-.05-.09-.07-.11-.07h-5.3s-.07.06-.08.09a.19.19,0,0,0,0,.08v3.39s0,0-.08.11h-1.66a.7.7,0,0,0-.09.09.28.28,0,0,0,0,.09v3.4c-.11.15-.27.09-.41.09-.46,0-.91,0-1.34,0,0,.06-.08.08-.08.11a1.08,1.08,0,0,0,0,.18v7a3.77,3.77,0,0,1-.89,0c-.3,0-.6,0-.88,0a1.06,1.06,0,0,1-.06-.57c0-.22,0-.43,0-.64v-.54c-.2-.16-.42-.06-.62-.08s-.37,0-.55,0a1.41,1.41,0,0,1-.64,0V14.73a.16.16,0,0,1,.07-.07H143c.15-.11.09-.28.09-.42,0-1.06,0-2.13,0-3.16.06-.05.08-.09.11-.09h1.69a3.77,3.77,0,0,0,0-.89c0-.3,0-.6,0-.88a1.06,1.06,0,0,1,.57-.06h1.17s.07-.05.08-.08a.22.22,0,0,0,0-.08c0-3,0-5.93,0-8.9,0,0,0,0,.06-.09h16.38c.14.19,0,.41.06.61s0,.37,0,.55a1.24,1.24,0,0,0,.07.65h1.67l.09.1a1.08,1.08,0,0,1,0,.18Z"/><path d="M176.15,22h-1.79a2.88,2.88,0,0,1,0-.88c0-.3,0-.6,0-.87l-.1-.09a.27.27,0,0,0-.09,0h-3.39a48.3,48.3,0,0,1,0-5.49h1.7c.17-.22.07-.44.09-.64a5,5,0,0,0,0-.55,1.48,1.48,0,0,0-.07-.65h-7.17l-.1-.1a1.08,1.08,0,0,1,0-.18V9.15h1.74c.15.11.09.28.09.42,0,.45,0,.91,0,1.36a1.71,1.71,0,0,0,.74.05c.27,0,.54,0,.82,0h6.86a1.88,1.88,0,0,1,.74,0v1.72a1.73,1.73,0,0,0,.74.06c.24,0,.49,0,.73,0h2.21V16.4c.05.05.06.08.09.09a.27.27,0,0,0,.09,0h1.56c.15.11.09.28.09.42,0,1.06,0,2.13,0,3.16-.05.05-.07.09-.09.09a1.2,1.2,0,0,1-.19,0h-1.55V18.42a.7.7,0,0,0-.09-.09H178.4c-.14,0-.31-.06-.42.09v1.74h-1.71s-.05,0-.08.05,0,.05,0,.07Z"/><path d="M106.43,23.83h-3.57s0,0-.08.08v1.68s.06.07.08.07h1.65a18.48,18.48,0,0,1,0,3.61s0,0-.07,0H101s-.06-.05-.07-.08a.11.11,0,0,1,0-.08c0-1.74,0-3.48,0-5.22a.41.41,0,0,0,0-.08s0,0-.07-.05H99.18l-.07-.07a.29.29,0,0,1,0-.09V22.06a1.34,1.34,0,0,1,.58-.06c.21,0,.42,0,.64,0h.53c.16-.21.07-.43.08-.63s0-.37,0-.55a1.41,1.41,0,0,1,0-.64h3.55c.14.19,0,.41.06.62a5,5,0,0,1,0,.55V22h1.73c.06.06.1.08.11.1a.27.27,0,0,1,0,.09Z"/><path d="M148.65,16.49V14.67c.59,0,1.16,0,1.73,0,.17-.19.06-.41.08-.61a5,5,0,0,0,0-.55,1.84,1.84,0,0,1,.06-.65h3.55c.13.2,0,.41.06.62a5,5,0,0,1,0,.55,1.25,1.25,0,0,1-.07.65h-1.67c0,.05-.09.07-.09.1v1.69a3.71,3.71,0,0,0,.88,0c.3,0,.61,0,.87,0,0,.07.08.09.08.12v1.64a23.14,23.14,0,0,1-3.66,0V16.59c-.06-.05-.08-.09-.1-.09h-1.72Z"/><path d="M159.64,20.15h-1.78c-.08-.85-.08-6.45,0-7.31h3.54a.45.45,0,0,1,.07.07.33.33,0,0,1,0,.1v1.55c-.11.16-.27.09-.41.09h-1.34c0,.05-.08.07-.08.1Z"/><path d="M253.23,44h1.71s.05,0,.09.07v7.19c-.19.16-.41,0-.61.07h-.55a1.57,1.57,0,0,1-.64-.05Z"/><path d="M163.31,20.16h-1.74s0,0-.08-.07V16.57a22.51,22.51,0,0,1,3.6,0s0,0,0,.07v1.68a2.89,2.89,0,0,1-.88,0h-.87c0,.05-.08.08-.08.1Z"/><path d="M148.64,23.83V22.07s.06-.07.09-.07.3,0,.45,0h1.23a2.9,2.9,0,0,0,.05-.88c0-.3,0-.6,0-.87.06-.05.08-.09.11-.09h1.64a18.13,18.13,0,0,1,0,3.61s0,.06-.06.06Z"/><path d="M163.31,20.16H165s0,0,.09.08v1.67c.22.16.44.07.64.08s.37,0,.55,0a1.29,1.29,0,0,1,.64.06v1.7a24.55,24.55,0,0,1-3.6,0s-.05-.05-.05-.07Z"/><path d="M104.58,31.17v1.76s-.06.07-.09.07H101a2.54,2.54,0,0,1,0-.87c0-.3,0-.6,0-.87,0-.05.07-.09.1-.09Z"/><path d="M253.21,44h-3.67V42.27c.11-.15.27-.09.41-.09h3.17s.08.07.08.09a1.21,1.21,0,0,1,0,.19Z"/><path d="M106.43,23.83h1.83v1.84h-1.71a.1.1,0,0,1-.07,0s0-.05,0-.07Z"/><path d="M222,82.54V67.93a24.69,24.69,0,0,1,3.65,0v7.18c.06,0,.08.09.1.09h1.67a.73.73,0,0,1,.07.24v6.87a.86.86,0,0,1,0,.17s0,.06-.07.06Z"/><path d="M229.36,58.69v1.74c-.05,0-.1.09-.14.09H214.77l-.07-.08a.12.12,0,0,1,0-.08V56.91c1.12-.09,8-.11,12.65,0a.76.76,0,0,1,.19.07V58.6s.07.08.1.09a1.08,1.08,0,0,0,.18,0Z"/><path d="M231.19,45.85h3.67v3.57c-.11.16-.27.09-.41.09h-3.17l-.09-.1V45.85Z"/><path d="M229.36,58.69V57s0-.05.07-.09H233a22.53,22.53,0,0,1,0,3.6s-.05.05-.07.05h-1.68a3.26,3.26,0,0,1-.05-.88c0-.3,0-.6,0-.87-.06-.05-.08-.09-.1-.09Z"/><path d="M225.67,64.2V66s-.06.07-.08.07h-3.48c-.15-.11-.09-.27-.09-.42,0-.45,0-.9,0-1.33,0,0,.07-.08.1-.08C223.27,64.19,224.43,64.2,225.67,64.2Z"/><path d="M16.53,82.54H14.79s0,0-.08-.07,0-.16,0-.25V78.94c.75-.09,4.32-.1,5.46,0,0,0,.05,0,.05.07v5.3a18.52,18.52,0,0,1-3.61.06s-.06,0-.06-.07V82.54h1.72s.05,0,.11-.08V80.87a.19.19,0,0,0,0-.08.17.17,0,0,0-.06-.06h-1.7s-.06.06-.06.09Z"/><path d="M27.52,78.93v3.55c-.79.08-4.57.09-5.47,0V78.94C22.84,78.85,26.62,78.85,27.52,78.93Z"/><path d="M172.48,62.36h1.83V64.2H172.6s0,0-.07,0-.05-.05-.05-.07Z"/></g></g></svg>