<svg xmlns="http://www.w3.org/2000/svg" viewBox="0 0 350.02 153.18"><title>Recurso 38GRAPHS</title><g id="Capa_2" data-name="Capa 2"><g id="Capa_1-2" data-name="Capa 1"><path d="M64.19,135.82V.23c.09-.09.15-.2.23-.21A3.35,3.35,0,0,1,65,0H348.62c.07,0,.13.11.25.21V135.81c-.09.1-.15.21-.22.22a3.37,3.37,0,0,1-.55,0H64.44C64.38,136,64.31,135.93,64.19,135.82ZM266.48,1.11h-66c-.07,0-.13.11-.2.17a3,3,0,0,0-.09.51q0,11.48,0,22.94a2.81,2.81,0,0,0,.2.7h65.85c.07,0,.14-.12.25-.22ZM131.6,25.4V1.93l-.81-.77H65.46c-.1.12-.21.19-.21.25q0,11.75,0,23.49a.81.81,0,0,0,0,.27c0,.08.13.13.23.23Zm67.24,0c.1-.12.22-.18.22-.25q0-11.59,0-23.21l-.78-.77H132.92c-.1.12-.21.19-.21.26V24.91a.61.61,0,0,0,0,.27c0,.08.12.13.21.22ZM333.94,1.28c-2.36-.2-37.87-.29-65.17-.16-.35,0-.74-.17-1,.19V25.25c0,.06.13.13.22.22l.82-.16v-4.6l.85-.8c1.09,0,1.09,0,1.28.22.21.83-.12,1.67.16,2.4l.36.32c.27.91-.12,1.75.23,2.54h25.09l.76-.8a11.61,11.61,0,0,1,.12-2.45h1.31l.81.94v2.13c.17.13.24.23.31.23h33.42a.61.61,0,0,0,.27,0c.08,0,.13-.12.21-.2ZM334,134.89V112a5,5,0,0,0,0-.55c0-.08-.13-.13-.23-.24s-.49,0-.75,0H268.62c-.35,0-.74-.1-1,.29v22.93a.81.81,0,0,0,0,.27,1.24,1.24,0,0,0,.23.24ZM200.17,111.2v23.17a.87.87,0,0,0,0,.28c0,.07.12.13.22.24s.49,0,.75,0h64.39c.35,0,.74.1,1-.28V111.72a.61.61,0,0,0,0-.27c0-.08-.11-.14-.22-.25ZM65.3,109.85c.13.1.2.19.27.19h65.22l.75-.8V90.34l-.81-.75h-65a.58.58,0,0,0-.26,0,.89.89,0,0,0-.2.19ZM197.41,89.66H132.87a2.33,2.33,0,0,0-.16.56v19.33a.57.57,0,0,0,0,.26.89.89,0,0,0,.19.2h65.2l.93-.75c0-5.34,0-10.59,0-15.83,0-.16-.14-.31-.21-.46l-.75-.18c-.07-.56-.51-.93-.66-1.4A6.52,6.52,0,0,1,197.41,89.66Zm-64.65,45.28h66c.07,0,.14-.1.32-.25V116.31c0-.83,0-1.66,0-2.49a10.17,10.17,0,0,0-.12-2.65c-29.59-.16-62.91-.1-66.23.14v5.46a.54.54,0,0,0,.06.25,2,2,0,0,0,.21.22h16.27a.81.81,0,0,1,.27,0,.62.62,0,0,1,.21.15c.3,5.26.22,12.45-.15,14.22H133.84c-.28,0-.55,0-.83,0-.07,0-.13.1-.25.21ZM198.24,26.55H133c-.07,0-.14.1-.32.24v14c0,1,0,2,0,3a9.48,9.48,0,0,0,.14,2.66h65.87c.07,0,.15-.09.28-.18v-19Zm-67.47,0H65.56c-.07,0-.14.1-.32.25v14c0,1,0,2,0,3a8.77,8.77,0,0,0,.14,2.66h65.87c.08,0,.15-.09.28-.19V27.32Zm69.45,19.91h14.05l.83-1.61c0-.89,0-2.07,0-3.15.46-.34.64-.88,1.21-.77,1,.33.9,1.45,1.53,2,0,.56,0,1.11,0,1.66s-.3,1.29.26,1.82h21c.77-.52,1-1.41,1.4-2.16s.61-1.65,1.37-2.23h1.18l1.59,2.23a1.23,1.23,0,0,1,1.52-.55l1,.72c.11.73-.23,1.39.28,2h17.08c.08,0,.15-.09.22-.14.43-.62-.24-1.46.39-2,.43-.13.91.16,1.35-.24,0-.22,0-.49,0-.75V27.53c0-.35.09-.74-.29-1H200.48c-.07,0-.14.1-.26.21Zm56.29,44c-.36.35-.48.42-.48.48,0,1.29,0,2.58,0,3.86l-.56.61v6l-.53.6c-.12.66.26,1.33-.33,1.94-.55-.2-1.2.17-1.89-.28V99.82l-.58-.58V90.37l-.81-.75H234.21l-.79.71-.21.89h-1.33l-1-1.24c-.6,1.23-1.11,2.31-1.62,3.37l-1.62.71a2.79,2.79,0,0,0-1.33-.74l-.79-1.58v-1.4l-.77-.72H201l-.85.78v19.11a.81.81,0,0,0,0,.27c0,.08.13.13.23.23s.49,0,.76,0h64.39c.35,0,.73.09,1-.3V90.14a.8.8,0,0,0,0-.27c0-.08-.12-.14-.21-.22h-6.24a8.92,8.92,0,0,1-.76,2V94.8l-.78.88c-.47-.1-1,.19-1.43-.32V93.15l-.59-.58ZM151.79,68.58h-4.42l-.57.53h-1.64l-.58-.5H143l-.8.71-.21.88h-1.25c-.27-.18-.51-.67-1.05-.51a4.22,4.22,0,0,0-1.44,2.41c0,.14-.24.23-.33.31h-1.57l-.87-.78V70.14l-.79-1.54a3.75,3.75,0,0,0-2,.19v19.8a.43.43,0,0,0,.08.24A1.24,1.24,0,0,0,133,89h63.55c.07,0,.14-.1.25-.19.22-.31.74-.5.61-1.15l-.54-.62c0-1.39,0-2.86,0-4.33,0-.07-.09-.14-.14-.21l-.4-.4V76.58l-.85-.78-1.86-.09-.11-1.93-.49-.49V71c-.87-.4-.38-1.2-.69-1.75l-.71-.66H181.11l-.85.78v1a6.55,6.55,0,0,0-1,1.91,4.65,4.65,0,0,1-.59,1.7c-.32.59-.56,1.21-.8,1.74H176a2.51,2.51,0,0,0-.14-.76,3.5,3.5,0,0,0-.55-.62V72.73l-.52-.57c-.19-.44.33-1.07-.56-1.23v1.72l-.63.78v2.12l-.44.44L173,77.22l-1.33.62-1.37-.73c.15-1-.51-1.66-.83-2.46-.58.51.08,1.52-.8,1.89v2.2l-.57.63c-.12.4.18.89-.21,1.3a2.79,2.79,0,0,1-2-.2v-1.1l-.57-.63V75.49l-.49-.57c0-.64-.08-1.18-.13-1.72,0-.07-.12-.13-.2-.22-.56.82,0,1.79-.33,2.52l-.47.63c-.07.65.12,1.2-.16,1.72-.35.25-.53.79-1.1.68-1-.33-.9-1.45-1.56-2.09V72.68l-.43-.43c-.32-.62.28-1.43-.4-2-.4.39-.17.88-.24,1.31l-.74.92-1.26-.06A3.36,3.36,0,0,0,157,71c-.1-.6.26-1.27-.25-1.84l-.91,1.64v2.34l-.8,1.5h-1c-.35-.31-.62-.56-.88-.78V71.07l-.57-.63v-1Zm-8.35-6.09c1.56.29,1.21,1.51,2,1.93v1.13l.81.75.86-1.46a12.36,12.36,0,0,1,0-1.36c0-.44.64-.6.55-1.16a7,7,0,0,1,0-1.21l.61-.61V58.29l.49-.49V55.6l.55-.59c.1-.44-.19-.94.23-1.31a3.63,3.63,0,0,1,1.9.1c.05.42,0,.94.18,1.26a2.4,2.4,0,0,1,.49,1.2,5,5,0,0,0,.59,1.35v2.46l.55.55v2.21l.49.49v2.56l.79,1.54.26-.13.1-1.8.51-.51V63.31l.83-.79h1.13l.81,1.55c0,.73,0,1.65,0,2.57,0,.07.12.13.19.2.52-.09.35-.51.33-.8a1.36,1.36,0,0,1,.43-1,3.44,3.44,0,0,0,.35-.93c.68,0,1.32-.19,2,.23a5.84,5.84,0,0,0,0,1.56,7.24,7.24,0,0,0,.84,1.49h.5c1.21-.25,1.29-1.2,2-1.09L166,67.47h6.91l.31-.94.2.19,1.1-1.44a14.32,14.32,0,0,1,1.23,1.26,3,3,0,0,1,.34.93h2.83c.07,0,.13-.12.21-.2l.15-1.25.47-.47c0-.87,0-1.79,0-2.7,0-.08.09-.15.14-.22l.4-.4V58.93l.57-.62V55.57c.65-.52.57-1.54,1.45-2,.35.19.85-.21,1.22.21l.3,1,.88-.88V52.81l.81-.77a3.68,3.68,0,0,1,2,.16c-.56,1,.76,1.64.51,2.68.48.91,1,1.8,1.45,2.72a14.76,14.76,0,0,0,1.34,2.54v2.14c.79.37.37,1.15.61,1.67.53.8,1.68.72,2.13,1.6v1.09l.83.83h4.36c.07,0,.14-.09.27-.19V48.4l-.74-.84h-65a.8.8,0,0,0-.27,0,1.89,1.89,0,0,0-.25.25c0,4.17,0,8.4,0,12.64,0,.12.17.24.22.29l.76-.48,1.81,1.4v1.07l.57.72v2.11l.45.45.13,1.36h4.13c.25-.53.55-1.05.75-1.61s.64-1,.62-1.71c0-.52.5-1.06.78-1.59ZM65.3,89h65.48l.82-.85V75c0-.07-.09-.14-.15-.22-.39-.14-.33.16-.41.39a8.22,8.22,0,0,1-.55,1v1l-.81.81h-1.11l-.6-.56-.81.15v2.93l-.51.51v3.28l-.57.63v2.18l-.24-.23L125.3,88,124,87.88a1.66,1.66,0,0,0-.7-1.44V83.79l-.57-.72v-6l-.5-.5c0-2,0-4,0-6,0-.07-.09-.14-.14-.22l-.39-.39c-.12-.42.18-.91-.23-1.34h-5.1l-.77.8a3.11,3.11,0,0,1,0,.87c-.12.32-.41.57-.52.89s0,.57,0,.82a5,5,0,0,1-.59,1V76.1l-.49.49c0,1.43,0,2.9,0,4.37,0,.07-.09.14-.15.21l-.39.4v3.85l-.56.6c-.09.62.23,1.28-.2,1.84h-1.91c-.24-1.22,0-2.41-.16-3.58l-.48-.49V77.22l-.51-.64c-.06-1.25-.12-2.33-.19-3.42,0,0-.12-.08-.21-.14-.36.39-.15.87-.21,1.3s.15.91-.11,1.28l-.43.43c-.12.43.18.92-.23,1.34h-1.25a3.36,3.36,0,0,0-.77-1.44V72.7l-.49-.49c-.26-.57.31-1.38-.41-2.07L105,71.75l-.72.66h-1.46c.43-.71-.17-1-.33-1.19-.35-1,.11-1.83-.33-2.64-.68,0-1.32,0-2,0a7.64,7.64,0,0,0-2.14.1l-.75.83V75l-.54.54V79L96,80.68H94.76c-.26-.47-.28-1-.78-1.38V73.84l-.5-.58c0-.62-.06-1.16-.11-1.71,0-.07-.12-.13-.18-.19s-.19.11-.19.16c-.06,2.83-.11,5.66-.16,8.45l-.53.53v5l-.86.79c-.48-.09-1,.18-1.32-.29V84.35l-.57-.61V76l-.51-.51v-6l-.84-1c-.59.55.07,1.56-.82,1.92-.09,1.92,0,3.84-.07,5.63l-.51.49a10.23,10.23,0,0,1,0,1.11c0,.44.2.92-.19,1.32h-2V76.66l-.59-.59V73.31l-.52-.52c0-1.14-.1-2.31-.17-3.49,0,0-.12-.1-.19-.15-.55.51.12,1.52-.79,1.88v1.16l-.88.76-1.17.14-.71.76c-.13.69.29,1.38-.29,1.9s0,1.42-.41,2a6.65,6.65,0,0,0-.42.66c-.11.22-.19.45-.25.6H77.14l-.84-.79V74.94l-.59-.64c0-1.63,0-3.28,0-4.94,0-.06-.12-.13-.23-.23l-.81.1V72.7l-.58.59v2.78l-.82.77H72.17l-.85-.79V72.73l-.55-.6c0-.21,0-.39,0-.58a1.84,1.84,0,0,0,0-.53c-.1-.25-.26-.26-.48.08v1.48l-.8,1H68.26L67.46,72v-.9c-.54-.29-.46-.93-.78-1.34,0,0-.12,0-.19.07l-.32.9-.87.18Zm4.42,41.81c.12.1.19.21.26.21h78.21a.82.82,0,0,0,.27,0c.08,0,.13-.13.23-.23V118.56c-.12-.1-.19-.21-.26-.21H70.5a5,5,0,0,0-.55,0c-.07,0-.13.13-.23.23Zm-4.42,4.09h65.75a1.41,1.41,0,0,0,.49-.2v-2.36l-.8-.75H69a.57.57,0,0,1-.25-.06,2.07,2.07,0,0,1-.21-.21c0-4.59,0-9.2,0-13.8,0-.07.11-.14.26-.3h62l.81-.86v-4.74a.51.51,0,0,0,0-.25,1.21,1.21,0,0,0-.19-.2c-17.32-.25-62.57-.16-66.06.13ZM306.89,46.46h26.8c.07,0,.14-.11.31-.26,0-6.34,0-12.77,0-19.2a.43.43,0,0,0-.08-.24.89.89,0,0,0-.19-.2H300.58c-.07,0-.14.1-.26.2V39.6l.5.5v6.19a2.32,2.32,0,0,0,1.4.15c.44,0,.92.2,1.39-.28v-5l.49-.48c.14-1.54-.11-3.09.12-4.57.41-.31.6-.84,1.45-.67l.7.81v4.42l.52.51ZM333.81,110c.26-2.6.25-17.92,0-20.41H309.53c-.14,0-.28.19-.43.29v1.64l-.78.79c-.44,0-.89.18-1.38-.17,0-.57-.05-1.19-.07-1.66l-.76-.89H305l-.82.82v9.91c0,.07-.11.14-.22.28l-.33.31v8.3a3.37,3.37,0,0,0,0,.55c0,.07.12.13.23.23ZM100,47.78c-.12-.1-.19-.21-.25-.21H66.08a3.35,3.35,0,0,0-.55,0c-.07,0-.13.13-.29.3,0,6.32,0,12.75,0,19.18,0,.14.18.27.27.4l.56-.51h1.64l.66.57c.43-.14.93.16,1.27-.32.08-.61-.19-1.26.21-1.88h1.8c.52.68-.12,1.5.46,2.15l.76-.07L73,66.06l.54-.65v-4.9l.48-.47.09-2c.67,0,1.29,0,1.91,0,.08,0,.13.13.2.19.13,1-.05,2,.1,2.87l.5.49v4.68a.88.88,0,0,0,0,.28c0,.07.12.13.17.2.2.2.4.39.59.59h3.47l.78-.85v-1l.74-.88h1.17l.8.8c.1.61-.15,1.26.21,1.9H86c.11-.11.22-.18.22-.24,0-2.21,0-4.42,0-6.61l.57-.62V52.8l.41-.41c.36-.83-.17-1.8.36-2.6.64,0,1.29-.2,2,.22v2.81l.58.58v8.85l.48.48c.14,1.54-.09,3.09.15,4.76l1-.15v-5.1l.56-.6c.09-.43-.2-.92.21-1.29h1.26l.78.85V65l.42.42c.35.65-.3,1.47.45,2.07l.74-.21c0-1.6,0-3.14,0-4.06.4-1,.57-1.36.73-1.75.72-.41,1.26.18,2,.34L99,60l.54-.64V54.44L100,54Zm167.65,62.27h32.88l.76-.82-.5-.59c0-3.81,0-7.67,0-11.53,0-.07-.1-.14-.15-.21l-.4-.4V90.16a.87.87,0,0,0,0-.28c0-.08-.12-.13-.22-.24h-4c-.1.12-.21.19-.21.26,0,1.47,0,2.94,0,4.37l-.58.64v7.14l-.51.51V107l-.48.49c-.29.44.22,1.11-.38,1.45h-1.1l-.8-.8a27,27,0,0,0-.1-2.88l-.48-.44V96l-.56-.61V90.4l-.81-.8h-7.79l-.76.87c0,.5-.05,1.12-.08,1.66l-.56.56V94.9l-.49.49v2.2l-.57.61v1.61l-.57.64V102l-.57.68v1.4l-.73,1h-1.19l-.79-1.55V100.4l-.57-.61v-6l-.57-.63V90.4l-.8-.81h-5.52a3.35,3.35,0,0,0-.55,0c-.08,0-.14.11-.25.22Zm-64.74-34v2.17l-.57.61V81l-.57.64v2.16l-.51.51v2.56l-.73,1.27.95.89h23a.72.72,0,0,0,.26,0,.82.82,0,0,0,.19-.18V84.27l-.49-.49c0-1.62,0-3.27,0-4.92,0-.07-.1-.14-.15-.21l-.4-.39V74.41l-.56-.61V70.14l-.8-1.56H213.8a5.23,5.23,0,0,0-.56,0c-.07,0-.14.09-.23.15-.25.33-.74.52-.68,1.08a1.18,1.18,0,0,1-.26,1,4.71,4.71,0,0,0-.57,1.09c-.66-.1-1.32.24-1.88-.23l-.12-1.42c-.93-.1-1.62.94-2.52.43a14.12,14.12,0,0,1-1.15-1.17,3.76,3.76,0,0,1-.35-1l-.77.15c-.23.65.12,1.4-.64,1.78V73.2l-.57.64v1.59ZM122.75,61.65l.56.6V67a.72.72,0,0,0,0,.26c0,.08.13.13.24.25h7.11c.08,0,.15-.08.36-.22a3.4,3.4,0,0,1,0-.95,3.43,3.43,0,0,1,.49-.82v-17l-.75-.89H103.12l-.81.8.53.59v5.5l.57.61v6.59l.53.6c.11.64-.25,1.31.27,1.88a3.13,3.13,0,0,1,1.18-1.65l.54,0,.78,1.53v2c.55.28.46.93.78,1.33,0,0,.13,0,.28-.1,0-.58.06-1.2.1-1.78l.55-.66V63.27c.41-.27.55-.82,1.32-.76.28.08.49.53.85.8,0,.55,0,1.1,0,1.65s-.19,1.27.14,1.83l.61.62h2.36l.79-.85V61.62l.52-.52V55.57l.54-.54c0-.58,0-1.22,0-1.86a7.3,7.3,0,0,1,.09-2.1c.11-.12.2-.17.23-.25.15-.31.27-.63.42-1h1l1,.74v2.82l.41.41c.36.83-.17,1.8.45,2.73.33-.68.09-1.35.26-1.92a7.63,7.63,0,0,1,.85-1.52c.63.11,1.3-.26,2,.33v2.24l.48.47Zm192.44,0V58.91l.57-.61V57.22c.42-.35.68-.93,1.39-.8l.76.82c.1.53-.12,1.24.67,1.68v3.39l.49.46c0,.74,0,1.48,0,2.22,0,.06.12.13.19.2.52-.1.38-.53.33-.81-.09-.56.39-.78.61-1.21V60.61l.75-.87h1.16l.8.8a27.57,27.57,0,0,0,.09,2.9l.49.43c0,1.13,0,2.23,0,3.34,0,.06.12.13.19.2h1.38l.1-1.21,1.31-1.48,1.41,1.34c.11.48-.18,1,.22,1.34h3c.22-1.22,0-2.41.14-3.57l.49-.49v-3l1.34-1.75.66.52c.11-.14.22-.2.22-.27,0-3.6,0-7.19,0-10.79a.76.76,0,0,0,0-.26c0-.08-.13-.13-.18-.19H307.08c-.09.14-.18.22-.18.29v7.66l.55.55v1.51q0,4.71,0,9.4c0,.15.18.29.3.47l.82-.18v-4l.53-.53V58.68a.88.88,0,0,1,0-.28c0-.08.09-.14.19-.27l.7-.63,1.12.06c.35.66.1,1.31.22,1.9l.56.63v4.37l.52.52c0,.62,0,1.35,0,2.07,0,.14.19.28.29.42.42-.1.91.2,1.39-.31V65l.58-.59V62.15ZM309.93,89h23.23a3.47,3.47,0,0,0,.56,0c.07,0,.13-.12.28-.28,0-6.53,0-13.15,0-19.77,0-.13-.19-.27-.32-.44l-.7.18c-.12.67.1,1.37-.62,1.77,0,1.47,0,2.94,0,4.41,0,.06-.1.13-.2.26l-.35.32V78.8l-.57.61V81l-.8.8h-1.14l-.76-.81c-.1-.54.13-1.25-.67-1.69V76l-.48-.47V72.73l-.43-.45c-.26-.58.1-1.08-.41-1.49-.58.48.11,1.49-.72,1.84l-.18,2.48c-.66.24-.8,1.22-2,1.21l-.74-1V73.84l-.57-.66V70.13l-.81-1.55-.8.81v2.17c-.5.33-.51.91-.78,1.38h-1.25l-.78-.84V69.45l-.77-.86H316l-.88.88v1.67l-.49.48v2.2l-.57.61v1.08l-.8.8h-1.14l-.84-.91V72.69l-.52-.52a8.67,8.67,0,0,0,0-1.61c-.09-.45.41-1.07-.53-1.46v5.27l-.57.61V86l-.51.58V88.2ZM236.12,73.83V76l-.57.61v3.27l-.57.65v3.26l-.52.52v3.25l-.52.68.84.77h15.55c.43,0,.93.18,1.27-.27V79.92l-.57-.61V70.47c-.9-.36-.24-1.37-.8-1.89-4,0-7.92,0-11.88,0a1,1,0,0,0-.39.14c-.26.53-.49,1-.74,1.46v1.38l-.52.6-.07,1.16Zm99-48.39h12.37c.07,0,.14-.11.26-.21V1.89L347,1.11H335.91l-.77.86Zm-110.36,42h10.77a2,2,0,0,0,.57-.21V65.53l.58-.58V61.64l.48-.49c.13-1.16-.05-2.34.09-3.4l.49-.49a26.94,26.94,0,0,1,.09-2.88l.48-.45V50.61l.56-.59a12,12,0,0,0-.13-2.46c-6.71,0-13.31,0-19.92,0-.14,0-.28.18-.42.27V49.5l.81.8.51-.45,1.4.72c0,.59.07,1.21.1,1.74l.56.57v2.21l.49.49v2.74l.56.61v2.73l.57.61v2.52ZM347.6,134.89c.1-.12.21-.19.21-.26q0-11.31,0-22.64a3.37,3.37,0,0,0,0-.55c0-.07-.12-.13-.24-.23H335.32c-.1.11-.21.18-.21.25q0,11.33,0,22.64a3.35,3.35,0,0,0,0,.55c0,.07.13.13.24.24ZM264.27,47.56H248c-.07,0-.13.11-.26.21v2.83l.55.7v4.32l.48.48v3.81l.64.73V62.4c.71-.2,1.26-.76,2-.35a3.08,3.08,0,0,0,.65,1.29c.23,1.4-.15,2.78.25,4.13h10.53c.07,0,.14-.08.31-.19v-3.9l.57-.58V55.6l.53-.52Zm82.72,42H335.93l-.83.83v18.46a.82.82,0,0,0,0,.27.94.94,0,0,0,.17.26l.65.59h11.12l.75-.78V90.4ZM272.61,46.17c.39.45.79.28,1.13.28h9.93a2,2,0,0,0,.57-.22V44.51l.58-.58V35.64l.51-.52c0-2.35,0-4.74,0-7.12,0-.07.09-.14.14-.22l.42-.42L285,26.6H272.27l-.74.78v3.9l.51.5V42.84l.57.58ZM335.1,27.38q0,9.42,0,18.78c0,.06.11.13.17.2,5.68.27,10.79.2,12.54-.17V28a5,5,0,0,0,0-.55c0-.08-.09-.15-.17-.26l-.66-.6H335.89ZM212.89,64.6V62.78l.56-.6V57.8l.57-.63V51.69l.53-.53c0-.51,0-1.14,0-1.76s.29-1.28-.26-1.84H200.51c-.07,0-.14.1-.27.19s-.06.47-.07.73q0,9.24,0,18.48c0,.15.14.3.24.5h2.17c.07,0,.14-.08.15-.09l.79-1.58V64.52l.73-.9H206l.8,1.55v.88a4,4,0,0,1,.55.62c.13.23-.18.72.39.7l.43-.43h1.66c.33.19.54.73,1.15.51l.78-.81V65.5ZM335.3,69.13a2.86,2.86,0,0,0-.19.71q0,9.12,0,18.23a1,1,0,0,0,.09.25l.74.7H347l.81-.81V69.72a.81.81,0,0,0,0-.27c0-.08-.1-.14-.16-.21l-.6-.61h-5.11l-.79.85v2.17l-.52.52v4.42l-.58.59v2.36l-.71,1.7h-1.15l-.89-.75V76.6l-.57-.63V72.15l-.41-.42c-.33-.84.18-1.8-.36-2.6Zm-51.63-8.57V53.38l.56-.59V48.08a.55.55,0,0,0,0-.26c0-.08-.12-.14-.17-.19H272.61v6.85l.54.53v10.8l.86,1.66h8a.61.61,0,0,0,.27,0c.08,0,.13-.12.29-.28V65l.59-.59V61ZM335.1,48.37V64.44c.26.24.52.5.8.77l1.33.14.14,1.33.81.84c.39-.22.89.19,1.36-.34V65l.49-.48a2.38,2.38,0,0,0,.05-.26c0-.92,0-1.83,0-2.75a2.34,2.34,0,0,1,.14-.5c.26-.26.52-.51.78-.78s.48-.55,1-.44a7.28,7.28,0,0,1,.54.49,9.31,9.31,0,0,1,1.4,1.63c.32.58.88,1.17.58,2,.52.3.45,1,.87,1.38.55-.48-.11-1.2.47-1.55s0-1.28.58-1.7.1-1,.39-1.49l.94-.95V48.3l-.77-.7H336ZM238,67.47H250.2c.07,0,.14-.11.31-.27l-.18-.83h-1.79c-.24-.47-.47-.93-.88-1.72V62.15l-.48-.48V57.81l-.57-.61V52.82l-.56-.63V48.37l-.81-.81h-3.87c-.23.46-.46.91-.87,1.7v2.49l-.58.58V55.1l-.49.48v3.31l-.56.6v3.27l-.57.64v2.72C237.94,66.45,237.57,66.74,238,67.47Zm51.79,9.11V69.4l-.79-.76h-4.55l-.78.85v1.57l-.57.7v4.33l-.52.53v5.53l-.47.46v6.23c.13.1.2.19.28.19H290l.81-.81a4,4,0,0,0-.13-1.85l-.4-.38c0-2.86,0-5.7,0-8.55a1.63,1.63,0,0,0-.16-.47Zm-64.7-8v3l.56.6v4.38l.56.63v4.93l.51.5v4.61c1.16.19.12,1.36.86,1.77h.92a2.07,2.07,0,0,0,1.18-1.59h1.79l.58.45c-.23-.8.57-1,.8-1.47V82.65l.51-.5V78.83l.58-.58V75.48l.58-.58V72.69l.5-.5V71.12l.57-.61c-.06-.61.19-1.26-.2-1.89Zm64.7-26.87V45.9a.87.87,0,0,0,0,.28c0,.08.13.13.22.22h5.68a3.09,3.09,0,0,1,.76-1.44V33.44l.52-.53c0-1.9,0-3.91,0-5.92a.53.53,0,0,0-.08-.24,1.21,1.21,0,0,0-.19-.2h-8a1.79,1.79,0,0,0-.51.19v1.79l.54.54v5.53l.49.48c.07,2.1,0,4.19.05,6.15Zm-22.12,47c.25.38.63.28,1,.29h5.24a.73.73,0,0,0,.25-.1l.71-.74a2.11,2.11,0,0,0-.58-1.79V79.88l-.52-.52V75.49l-.48-.48a4.32,4.32,0,0,0-1.05-3.21c-.31-1,.09-1.8-.23-2.49l-.67-.67h-3.45c-.1.13-.2.2-.2.27Zm-5.25-20.17H253c-.06,0-.13.12-.25.22v7.84l.51.51v10l.21,0,.71,2.34c.31-1.5.06-2.6.26-3.56l.55-.56V82l.83-.75,1.12.06c.35.65.1,1.3.21,1.89l.58.65c0,1.08,0,2.17,0,3.27,0,.06.12.13.19.2.63-.38.22-1,.29-1.46a11.57,11.57,0,0,0,0-1.55l.55-.56V78.87l.61-.78V74.86l.77-.72h1.37a1.35,1.35,0,0,0,1,1.57c.16-1.6,0-3.14.1-4.65l.49-.57V69.41Zm19.7,1.16-.76-1.11h-6.85l-.86.91c.23.62.83,1.16.65,1.92.74.62.5,1.47.58,2.25,0,.23.3.43.49.68.14,1.11-.08,2.29.1,3.37l.49.49c0,2,0,4,0,6,0,.07.1.14.18.24l.36.36v3.32l.84.83h2.13c.07,0,.14-.09.31-.19V86.59l.58-.58V80.48l.58-.58v-5l.58-.58V70.57Zm8.22-13.06.57.6V65l.53.6c.11.65-.27,1.32.27,1.89H295c.07,0,.14-.1.3-.24v-10l.57-.56V48.52c0-.27,0-.53-.08-1h-5.18c-.34.43-.93.68-.82,1.36l.55.59Zm-74.65-2.77v5l-.57.6v3.83l-.57.63v1.4c-.39.78-.69,1.36-1,2,3.43.3,8.39.27,8.7,0,0-.17.12-.38.06-.51a4.68,4.68,0,0,0-.6-.78V63.82l-.49-.49c0-1,.05-2,0-2.79l-.52-.56V57.25l-.47-.51c-.23-1.08.11-2.09-.26-3.12l-.66.57h-1.13l-.76-.85c0-.52-.06-1.14-.08-1.68l-.47-.46c-.18-.63.18-1.36-.55-2.32-.06,1.1,0,1.82-.05,2.53a6.2,6.2,0,0,1-.11,2.11ZM261.39,79.5l-1,1.79V86l-.44.57v1.73l.8.75h5.31a.5.5,0,0,0,.24-.06.8.8,0,0,0,.16-.15v-20c-.9-.57-1.12.33-1.6.63,0,1.1,0,2.2,0,3.3,0,.07-.11.13-.17.2s-.25.26-.37.4v4.94l-.55.59a12.63,12.63,0,0,1-.11,2.4h-2C261.58,80.66,261.5,80.15,261.39,79.5ZM180.82,67.28a81.34,81.34,0,0,0,11.15,0c-.4-.49-1.09-.26-1.33-.75s-.6-1-1-1.67v-1l-.56-.6V61.67l-.55-.59a2.13,2.13,0,0,0,0-.84c-.55-1.24-1.27-2.39-1.77-3.66-.12-.29-.46-.48-.72-.74-.37.77-.69,1.47-1.06,2.25h-2.45v1.82l-.64.72v2.72l-.5.5v2.71ZM296.39,83.77l-.54.58v3.87l.82.82H300c.06,0,.13-.11.25-.21V79.36l-.56-.71V69.34l-.81-.77c-.65.11-1.33-.27-1.9.28,0,1.08,0,2.19,0,3.29,0,.07-.11.13-.25.3l-.3.27ZM268.74,50.22l-1.1.87V67a.51.51,0,0,0,.05.25,1.53,1.53,0,0,0,.22.23h3.28c.07,0,.13-.1.26-.2V58.84l-.5-.5v-10c-.46-.3-.61-.85-1.18-.79s-.67.58-1,.83Zm20.46,17.2V60l-.56-.61V52.27l-.54-.6c0-1.23,0-2.43,0-3.62,0-.15-.15-.3-.24-.47h-1.19l-.78,1V55l-.58.57v6.64l-.48.48c-.12,1.16.05,2.35-.09,3.41-.44.42-.81.74-.28,1.28Zm5.53,13V69.14a.88.88,0,0,0,0-.28c0-.07-.13-.12-.26-.23h-2.84c-.1.12-.21.19-.21.26,0,1.65,0,3.31,0,4.92l.57.64v8.8l.51.51V88l.83,1,.85-.85c0-2.37,0-4.76,0-7.15,0-.07.1-.14.2-.26Zm8.85-21.59q0-5.51,0-11c0-.07-.11-.14-.28-.34-.75.21-1.64-.24-2.47.27,0,2.71,0,5.37,0,8a1.9,1.9,0,0,0,.18.52l.37.32c0,3.52,0,7,0,10.49,0,.07.1.14.16.21.51.08,1,.33,1.49-.18,0-2.48,0-5,0-7.44a1.63,1.63,0,0,1,.16-.47Zm-4.42,2.23V48.39l-.8-.79c-.28.5-.57,1-.91,1.59V60.05l-.44.44v6.85a2.79,2.79,0,0,0,1.39.12c.43,0,.92.19,1.31-.26,0-1.72,0-3.47,0-5.21a1.73,1.73,0,0,0-.15-.49ZM125.52,79.36V76.05l.57-.61V73.26l.8-.8H128c.4.51.43,1.32,1.28,1.64l.22-1.49.45-.44V70l.54-.58-.81-.81c-1.83,0-3.67,0-5.51,0-.07,0-.14.12-.25.22v5.63l.5.51c0,2,0,4,0,6,0,.11.19.22.4.43l.24-1.55ZM306.35,89v-13l-.59-.63q0-3.28,0-6.6c0-.06-.12-.13-.23-.24l-.88.75v13.4l-.44.44v5.12L305,89ZM121.09,63.33c0-.75,0-1.48,0-2.21,0-.07-.24-.13-.52-.28,0,.71,0,1.34,0,1.73l-.81,1.57h-1.17l-.79-1V60.07l-.52-.68c-.14-.69.26-1.36-.33-1.84-.08.08-.2.14-.2.21,0,1.64,0,3.29-.06,4.94,0,.07-.08.14-.13.21l-.41.41v3.83c0,.07.11.14.25.32.81,0,1.71,0,2.61,0a9.94,9.94,0,0,0,2.67-.12c0-1.14,0-2.14,0-3.15a1.65,1.65,0,0,0-.16-.49Zm77.16,5.25h-3.34l-.78.81.58.67v1.75c.71-.22,1.26-.77,2-.35l.73.76v2.16L198,75v4.91l.52.53c0,.33,0,.78,0,1.22s-.18.92.27,1.26c.38-1.59.44-5.44.22-13.58Zm-25.73.27c-.06-.06-.13-.18-.19-.18h-5.71l-.71.77.53.53c0,.53,0,1.17,0,1.79s-.21,1.23.25,1.84a6.44,6.44,0,0,1,.58,1.84c.49-.89,0-1.68.39-2.28.17-.16.3-.3.43-.43v-1.1l.83-.83c.38.08.84-.16,1.15.06l1.62,3.26c.6-.65,0-1.48.44-2.12l.38-.37Zm-21-4.42V61.68l-.57-.61c0-.72,0-1.46,0-2.19,0-.06-.12-.13-.05-.05l-1.07.61V61.7l-.51.52a4,4,0,0,0,0,1.24c.3.9-.76,1.4-.6,2.26a1,1,0,0,1-.3.68c-.29.32-.32.61,0,1.07,1,0,2.09,0,3.17,0,.15,0,.3-.16.47-.26,0-.62,0-1.26,0-1.9a2,2,0,0,0-.15-.49Zm150.41,9.95q0,6.36,0,12.72c0,.06.24.12.36.18s.17-.15.17-.22c0-3.13,0-6.26,0-9.33l.53-.6V69.45l-.79-.89-.84.85c0,1.34,0,2.72,0,4.1a1.77,1.77,0,0,0,.15.48ZM277,91.55v6.23c1.33-.53,0,1.14,1,1.12V96.59l.64-.73v-1.6l.5-.51V91l.53-.67-.79-.76h-1.68c-.35.42-.93.68-.81,1.35C276.67,91.15,276.85,91.35,277,91.55ZM200.39,68.63c-.1.12-.21.19-.21.25q0,5.2,0,10.41c0,.1.2.2.32.29.53-.61-.08-1.42.38-2l.39-.39c0-.64,0-1.28,0-1.91a1.61,1.61,0,0,1,.18-.52l.36-.32V72.18l.55-.58c0-.47,0-.93,0-1.38s.18-1.08-.21-1.59Zm65-10.3v7.18l-.55.6c.1.42-.19.91.22,1.3h1.28c.28-3.39.27-16.27,0-17,0,0-.12,0-.2,0-.36.59-.13,1.24-.16,1.85s0,1.29,0,1.93,0,1.28,0,1.92A3.83,3.83,0,0,1,265.8,58ZM111.57,74.26c.33,1.29-.16,2.49.32,3.63,0,0,.13,0,.29,0V75l.65-.73V71.58c1-.5.09-1.76,1-2.23l-.83-.78c-.65.11-1.32-.27-1.89.28,0,1.54,0,3.1,0,4.66a1.65,1.65,0,0,0,.16.49Zm216.9-5.64c0,.88,0,1.51,0,2.15a2,2,0,0,0,.19.52l.36.31v2.76l.55.59c0,1,0,1,.39,1.26.05-.07.16-.14.16-.21,0-.72,0-1.45,0-2.16l.56-.59c0-1.39,0-2.75,0-4.12a1.77,1.77,0,0,0-.2-.51Zm-42-30.14q0,3.84,0,7.68c0,.06.11.13.16.2.52.08,1.05.32,1.49-.18,0-.64,0-1.28,0-1.92a1.66,1.66,0,0,0-.17-.47l-.38-.4c0-2,0-4,0-6,0-.07-.11-.13-.22-.27C286.9,37.49,286.94,38.18,286.44,38.48Zm-17.14-.09V45.6l-.55.59c.45.47,1,.27,1.49.15.27-3.14.26-10.67,0-11.38,0,0-.13,0-.18,0s-.19.13-.19.2c0,.91,0,1.82,0,2.77ZM100.63,61.66v5l-.56.6a3.33,3.33,0,0,0,2.22.13c0-1,0-2,0-2.93l-.46-.49c-.31-1.81.21-3.54-.29-5.23l-.18,0c-.06.07-.16.13-.17.2,0,.73,0,1.46,0,2.18ZM77.41,68.58c0,1.37,0,2.46,0,3.55,0,.07.1.14.24.32l.85-.14V70.76l.7-1c.7-.13,1.2.14,1.55-.4l-.17-.76H77.41ZM298.26,35.85a73.18,73.18,0,0,0-.05,10.61l1.05-.15c-.26-.72.1-1.37-.3-2L298.6,44c0-2.59,0-5.15,0-7.71C298.6,36.2,298.49,36.13,298.26,35.85Zm45.81,31.56c-.31-1.41-1.43-2.29-1.3-3.53l-.86-1c-.38,1.37,0,2.66-.28,3.88-.08.21-.57.23-.24.64ZM294.18,91.52v-1.1l-.81-.81-.8.75v2.32l.44.44c.06,1.36.13,2.71.2,4.07,0,0,.12.06.42.2V92.11Zm10.51-27.64c0,1.09,0,2.19,0,3.29,0,.06.11.13.26.31l.88-.17c-.18-2.57.19-5-.2-7.46,0,0-.12,0-.37-.09-.06,1.26,0,2.51,0,3.58ZM177.3,72.55c.16-.68.12-1.32.42-1.63s.19-1,.71-1.37c.34-.22.26-.61-.12-1-.57.31-1.32-.36-1.92.34v1.62l.56.58C177,71.49,176.77,72,177.3,72.55ZM267.91,35.4c.07-.07.19-.13.19-.2q0-4.23,0-8.46c0-.06-.12-.13-.19-.19s-.18.13-.18.19q0,4.23,0,8.46C267.73,35.27,267.85,35.33,267.91,35.4Zm49.5,29.15-.87-1.48c-.12.14-.23.21-.23.28,0,.9,0,1.81,0,2.71-.28.4-1,.69-.33,1.36h1.44ZM88.47,65c0-1.89,0-1.89-.37-2.4-.06.06-.18.13-.18.2,0,1.45,0,2.91,0,4.36,0,.07.11.14.25.32l.86-.14c-.07-.74.15-1.38-.17-2Zm249.94,5.52c.11.8-.21,1.64.21,2.4,0,0,.12,0,.29,0V70.71l.86-1.26-1.22-.73a1.8,1.8,0,0,0-.69,1.21ZM133.26,66.63l-.59.63a2.85,2.85,0,0,0,2.34,0l-.64-.55c-.07-.66.17-1.29-.26-2-.28.32-.59.58-.85.9Zm174.44,2.5a2.78,2.78,0,0,0-.19,1.9l.78.91c.41-2,.4-2.41,0-2.81ZM163.15,70.74c-.09-.83.13-1.47-.18-2.06-.48.06-.64.5-.95.74,0,1.08,0,1.08.22,1.32ZM91,73.1c.33-3.1.33-3.13-.14-3.87-.07.06-.19.12-.19.18,0,1.1,0,2.19,0,3.28C90.69,72.76,90.79,72.83,91,73.1Zm241.81-7.24c.15.66-.12,1.14.34,1.62l.85-.17c-.12-.55.16-1-.25-1.45ZM85.36,68.37c-.28,2.8-.28,2.8.17,3.44.35-.4.16-.87.16-1.3A3.43,3.43,0,0,0,85.36,68.37ZM241.69,46.26a1.48,1.48,0,0,0,1.53,0l-.8-1.56a4.76,4.76,0,0,1-.23.79A7.1,7.1,0,0,1,241.69,46.26Zm71.58,24a1.12,1.12,0,0,0,.11-1.51l-.92.57C312.36,70.22,312.76,70.28,313.27,70.23ZM228.19,91.34c.2-1.29.19-1.29-.15-1.62l-.79.68ZM254.09,90a2.86,2.86,0,0,0,0,2.52A2.86,2.86,0,0,0,254.09,90ZM347.52,67.5a1.19,1.19,0,0,0,0-1.7c-.25.5-.49,1-.76,1.56Zm-23.2,2.74a1.18,1.18,0,0,0,0-1.67A1.18,1.18,0,0,0,324.32,70.24Zm-180.66-3.8-.35,0c0,.24-.08.49-.09.73,0,.06.14.19.18.18s.34-.12.35-.2A3.73,3.73,0,0,0,143.66,66.44ZM95.38,69.13a.66.66,0,0,0,0,1.11A.66.66,0,0,0,95.38,69.13Zm42.22-.36-.19-.19a1.81,1.81,0,0,0-.18.37s.12.12.18.18Zm183.76-1.5.19.2a1.81,1.81,0,0,0,.18-.37s-.12-.12-.18-.18Z"/><path d="M41.57,72.45H38.51a3,3,0,0,0-.57-.47,3.5,3.5,0,0,0-.74-.2c-.16-.84-1-1.48-.77-2.44-.85-.71-.46-1.69-.47-2.55s-.35-1.65.45-2.28c-.13-.94.59-1.6.77-2.43l1.53-.64h3a5.16,5.16,0,0,1,2,2.67v5.77A6.21,6.21,0,0,1,41.57,72.45ZM42,68.84V65c-.66-.49-.52-1.54-1.29-1.88H38.91l-.74,1.47V70c.39.87,1.43.74,1.93,1.38.45-.45.9-.91,1.36-1.36v-.53Z"/><path d="M35.93,44l.57-.61v-.85L37.21,41l.7-.17.52-.5h3.31l1.37,1.38v.52l.57.61v5.9a5.18,5.18,0,0,1-2.17,2.65H38.6l-1.39-.73-.71-1.39v-.88l-.57-.6Zm2.76,5.51,1.63.84a11.89,11.89,0,0,0,.88-1.13c.27-.43.48-.91.8-1.54V44l-.54-.58v-.54L40.1,41.49c-.52.62-1.54.53-1.94,1.38v5.54C38.45,48.68,38.86,49,38.69,49.49Z"/><path d="M254.66,141.58H256a5.61,5.61,0,0,1,2.84,2v1l.47.47v4.55c-.62.34-.47.93-.49,1.46a5.12,5.12,0,0,1-2.78,2h-1.29c-.53-.52-1.35-.65-1.95-1.21s-.5-1.35-1.16-1.77v-5.51c.67-.48.61-1.41,1.29-2S254.28,142.24,254.66,141.58Zm3,6.89c0-.63,0-1.27,0-1.91a1.4,1.4,0,0,0-.17-.47l-.38-.41v-1.15c-.64-.29-.84-1.15-1.7-1.31-1.18.41-1.48,1.62-2.16,2.6v3.12c.67,1,1,2.18,2.39,2.68.45-.44,1-1,1.47-1.47v-1.08Z"/><path d="M124.41,146.28V149l-.56.6v1.09c-.68.28-.43,1.11-.95,1.55s-1.23.31-1.55.92h-2.2c-.29-.67-1.1-.45-1.54-1s-.31-1.23-.94-1.55v-6.6l1-1.07.25-.86h1.14l.63-.57h1.62c.32.6,1.17.4,1.52.94s.62,1,1,1.66v1.5Zm-2.21,3.89v-5.56c-.55-.44-.91-1.11-1.49-1.38h-.94c-.85.46-.94,1.43-1.39,2.05v4.37c.67.52.55,1.57,1.39,1.85h1Z"/><path d="M38.77,82.4H41a7.51,7.51,0,0,1,1.57.91,8.09,8.09,0,0,1,1,1.62v6a6.21,6.21,0,0,1-2,2.52H37.82c-.23-.23-.49-.39-.6-.62a6.09,6.09,0,0,1-.67-1.36c-.11-.63-.45-1.15-.56-1.7a15.78,15.78,0,0,1-.06-3.09l.51-.65V84.5Zm.8,10c.85-.2,1.09-.75,1.51-1.07s.33-1.2.94-1.52V86c-.63-.51-.55-1.52-1.36-1.91a4.17,4.17,0,0,0-1.77.08l-.72,1.43v5.3Z"/><path d="M143.14,141.57h1.44l.6.56h.53l1.37,1.37v1.64l.56.6v3.84l-.56.59v1.09l-1.37,1.37h-.54l-.59.55h-2l-1.39-.72-1.27-2.55v-5.17l.94-1.63a5,5,0,0,1,.78-.75A11.06,11.06,0,0,1,143.14,141.57Zm2.29,4.69v-1.65c-.56-.44-.92-1.13-1.57-1.42l-1.69.81c-.12.58.12,1.3-.6,1.69v3.89l.54.57v.55l.81.8h.94l1.57-1.35v-1.61l.53-.62v-1.08Z"/><path d="M184.14,144.81a10.94,10.94,0,0,1,.78-1.51,5.14,5.14,0,0,1,.76-.79l1.61-.93h1.22a5.64,5.64,0,0,1,2.82,2v1.59l.54.58v3.84l-.57.63v1l-1.12,1.19-.78.35c-.49.33-.56.43-.63.43h-1.9l-1.44-.68-1.29-2.62Zm5.53,1.45v-1.65c-.56-.44-.92-1.13-1.58-1.42l-1.68.81c-.12.58.12,1.3-.6,1.69v3.89l.54.57v.55l.81.8h.94l1.57-1.35v-1.61l.53-.62v-1.08Z"/><path d="M323.73,153.18H322.2c-.41-.14-.56-.81-1.17-.48-.45-.51-.89-1-1.39-1.53v-1l-.57-.63v-4.4l.56-.6V143.5l1.37-1.38h.54l.6-.55h1.38c1.37.65,2.77,1.26,3.23,2.93v5.58A6.31,6.31,0,0,1,323.73,153.18Zm-2.47-3.09a7.76,7.76,0,0,0,1.51,1.43h1l.91-.75a2.32,2.32,0,0,1,.46-1.81v-3.15c-.71-1.1-1-2.33-2.32-2.6l-1.48,1.38c-.06,1-.06,1-.5,1.61v2.35l.47.47Z"/><path d="M278.09,141.57h1.22a6.32,6.32,0,0,1,2.41,1.57,8.89,8.89,0,0,1,.39.87c.36.53.45.6.45.67,0,1.84,0,3.67,0,5.44a6.66,6.66,0,0,1-3.18,3.06H278a6.48,6.48,0,0,1-2.62-2.06c-.11-.36.21-1.1-.54-1.49v-4.45l.52-.58v-1A6,6,0,0,1,278.09,141.57Zm-1.61,4.71c0,.64,0,1.28,0,1.92a1.69,1.69,0,0,0,.18.47l.38.42v1l1.36,1.39h1.12l.8-.8v-1.07l.57-.62V145.8c-.65-1-1-2.16-2.27-2.61-.67.25-1,1-1.58,1.4v1.09Z"/><path d="M55,114.47l-.57.55H53.34l-.47-.48-1.22-.12c-.84-.36-.67-1.43-1.34-1.94v-6.59a1.58,1.58,0,0,0,.62-1.11,1.13,1.13,0,0,1,.74-.75,1.57,1.57,0,0,0,1.12-.62h2.82a12.33,12.33,0,0,1,1.1,1.17,13.21,13.21,0,0,1,.79,1.53v2l.55.59v1.1l-.49.48v2.24c-.72.57-.64,1.59-1.45,2Zm.79-7.91-1.31-1.48H53.34c-.46.47-.91.92-1.37,1.37v4.89a4,4,0,0,1,.54.91,1.81,1.81,0,0,0,1,1.13l1,0c.29-.34.71-.61.71-.88,0-.54.45-.74.56-1Z"/><path d="M56.57,29.41l-1,1h-3.3a5.49,5.49,0,0,1-2-2.85V21.3l2.06-1.92h3.16l.59.53h.53l.84,1.63a6.9,6.9,0,0,0,0,1.85c.14.56.88,1,.53,1.72l-.56.62v2.05Zm-1.36-8.12-1.28-.73-1.23.63c-.26.49-.45.87-.73,1.39v4.55l1.4,1.66.76-.05,1.68-1.25V22.65Z"/><path d="M55.54,61.39l2,1.93v2.76l.64.67L58,67.1c-.38.58-.47.65-.47.72,0,.91,0,1.82,0,2.69l-1.8,1.81a4.79,4.79,0,0,1-1.85.12c-.54,0-1.09,0-1.47,0l-2.06-1.92V64.14a5.81,5.81,0,0,1,2-2.75ZM52,69.18l2,2,1.3-.67c-.2-.58.35-.78.54-1.12V64.61l-1.9-2L52,64.43Z"/><path d="M52.8,45.37l-.56.52H51.13c-.36-.36-.38-1.68-.12-5.45h5.73c.41.36.11.85.21,1.28-.13.1-.26.3-.4.3-1.28,0-2.55,0-3.79,0-.43.67-.16,1.32-.24,1.94.07.06.13.18.2.18.91,0,1.82,0,2.61,0l2.14,2.25v3l-2,2h-5a3.26,3.26,0,0,1,.12-2.16l.62.56h3.3l1.37-1.37V47.22l-1.34-1.28C53.82,46.21,53.65,45.31,52.8,45.37Z"/><path d="M50.92,87.93V82.62c.12-.11.19-.21.26-.21h5.49c.47.49.3,1,.14,1.55a7,7,0,0,1-2.14.1c-.64,0-1.28,0-2,0a3.51,3.51,0,0,0-.07,2.15h2.54l2.27,2.29v2.78l-2.13,2.13H50.51c-.37-.64-.15-1.28-.18-1.9a5.51,5.51,0,0,1,1.92.84h.88a5.86,5.86,0,0,0,2.7-2v-1l-1.37-1.38Z"/><path d="M205.15,146.41l-.94.25c-.2.13-.19.27.06.39.8.39.72,1.41,1.4,1.94v1.66c-.38.6-.78,1.26-1.14,1.84-.66.3-1.43-.13-1.81.66H200a4.15,4.15,0,0,0-.83-.5c-.32-.12-.72.11-1.1-.22v-1.25c.38-.4.87-.11,1.3-.21.19.19.39.37.59.55h2l1.55-.79V149l-1.5-1.3-1.7-.08-.11-.9c.54-.1,1.2,0,1.51-.34s1.08-.2,1.37-.74a4.65,4.65,0,0,1,.49-.59c-.16-.85-.92-1.15-1.36-1.76h-1.7l-.53.44h-1.25c-.33-.48-.1-.93-.17-1.31.41-.47.9-.18,1.35-.28l.59-.55h2a10.88,10.88,0,0,1,1.51.79,10.5,10.5,0,0,1,1.18,1.13Z"/><path d="M339.25,152.63h-1.11c-.63-.59-.05-1.41-.32-2a1.57,1.57,0,0,0-.28-.22,1.22,1.22,0,0,0-.27,0h-4.11c-.53-.59-.17-1.26-.26-1.8a5.47,5.47,0,0,1,.94-1.58c.61-.49.54-1.36,1.16-1.75s.48-1.16,1-1.53a3,3,0,0,0,1-1.59h2.35c.11.12.21.18.22.26a5,5,0,0,1,0,.55v5.63l1.5.26a2,2,0,0,1,.11,1.32c-.37.43-.87.14-1.3.23C339,151,340,152,339.25,152.63Zm-4-4a3.38,3.38,0,0,0,.72.09,3.93,3.93,0,0,0,1.9-.19c0-1.12,0-2.28,0-3.43,0-.07-.12-.13-.18-.19l-.69-.07a8.5,8.5,0,0,1-1.84,3.21C335,148.16,335.16,148.41,335.21,148.66Z"/><path d="M135.17,153.17h-2.75l-.49-.48-1.2-.1c-.5-.47,0-1-.36-1.56h1.57l.44.45h2.39l.9-1.44.31.23.07-1.22-1.67-1.41h-1.49l-.22-.71c.16-.15.32-.39.4-.36.9.29,1.45-.52,2.2-.71a1.11,1.11,0,0,0,.76-1.14c-.28-.58-.94-.95-1.4-1.49H133l-.4.41c-.4.28-.85.1-1.29.11-.41-.47-.28-1-.08-1.55l1.28-.13.44-.44h2.16l1.44.73,1.1,1.09v2.32l-1,1c.18.6,1,.73,1.07,1.44a8.25,8.25,0,0,0,.51,1.15,2.68,2.68,0,0,1,0,.8c-.72.4-.51,1.1-.61,1.71-.69.31-1.38.62-2.07,1A1.83,1.83,0,0,0,135.17,153.17Z"/><path d="M348.47,152.31l-1.69.81h-2.41L343,152.5c-.23-.38-.22-1-.7-1.28.35-.45.85-.16,1.3-.26l.62.55h2.25l1.31-1.47V148.4l-1.53-1.26h-2.05c-.31.09-.56.89-1.22.39-.05-.08-.14-.15-.14-.22,0-1.64,0-3.29,0-4.91a2.22,2.22,0,0,1,.23-.22.51.51,0,0,1,.25-.05h5.5l.11.83c-.11.11-.17.23-.24.23h-3.28l-.85.8v1.23c.09.09.15.21.22.21.73,0,1.47,0,2.2,0,.52.63,1.39.67,2,1.32s.44,1.36,1.08,1.75v1.26A5.31,5.31,0,0,1,348.47,152.31Z"/><path d="M207.91,142.18h6l.12.76c-.1.1-.16.22-.23.22H210.5l-.87.82v1.23c.09.09.15.21.22.21h2a11.24,11.24,0,0,1,1.53.79,10.36,10.36,0,0,1,1.17,1.12v3.9a9.57,9.57,0,0,1-.79.77c-.26.22-.4.57-.84.63a3.45,3.45,0,0,0-1,.53h-3l-1.53-.78c0-.44-.17-.89.11-1.3.63-.19,1.24-.32,1.73.38h2.39l1.2-1.63v-1.5l-1.69-1.18h-1.91c-.3.32-.59.69-1.13.39-.06-.06-.18-.13-.18-.19C207.91,145.71,207.91,144.06,207.91,142.18Z"/><path d="M269.43,142.15h2.39c.09.18.23.33.23.48,0,1.94,0,3.87,0,5.91l.93.31c.41.37,0,.87.27,1.33l-1.13.39v1.72c-.38.37-.38.37-1.67.18l-.1-1.83c-.18-.08-.33-.21-.49-.21-1.38,0-2.76,0-4.14,0-.07,0-.14-.11-.26-.21v-1.64c.25-.46.42-1.15.86-1.47.66-.47.59-1.33,1.16-1.75s.56-1.1,1-1.53A2.62,2.62,0,0,0,269.43,142.15Zm.68,2.17c-.27.33-.72.64-.77,1a1.48,1.48,0,0,1-.75,1.06c-.51.35-.28,1-.74,1.38-.25.21-.84.37-.6.93h3a2.73,2.73,0,0,0,.16-.56c0-1.1,0-2.2,0-3.3a.58.58,0,0,0,0-.26A1.67,1.67,0,0,0,270.11,144.32Z"/><path d="M43.88,30.37H37.26c-.39-.45-.15-.92-.2-1.35.59-.61,1.4,0,2-.29.11-.17.21-.24.21-.31V21.21L38.51,21l-.65.58H36.78c-.55-.41-.25-.95-.2-1.46.47-.22,1-.29,1.34-.72h2.73a.85.85,0,0,1,.21.22.51.51,0,0,1,0,.25v8l.8.85h1.68C43.91,29.22,43.51,29.73,43.88,30.37Z"/><path d="M40.91,112.83h2.53c.38.51.19,1,.2,1.4-.15.08-.3.23-.45.23-1.93,0-3.87,0-5.8,0-.08,0-.15-.09-.28-.19V113c.57-.41,1.23-.11,1.84-.19.1-.14.29-.28.29-.42,0-2.2,0-4.4,0-6.63-.87-.33-1.71,0-2.55-.21-.41-.41-.23-.93-.08-1.45.51-.27,1.06-.09,1.71-.15l.66-.49h1.72a1.64,1.64,0,0,1,.19.5C40.91,106.83,40.91,109.68,40.91,112.83Z"/><path d="M30.46,90.14V88.7c.11-.1.18-.21.25-.21h3.84c.5.44.26,1,.18,1.49-.07.06-.14.17-.21.17C33.25,90.15,32,90.14,30.46,90.14Z"/><path d="M34.78,109.5v1.44c-.12.1-.19.21-.26.21H30.68c-.57-.44-.06-1-.3-1.38.2-.17.26-.27.33-.27Z"/><path d="M48.13,30.37h-2c-.38-.63-.13-1.27-.2-1.91a2.88,2.88,0,0,1,2-.18C48.28,28.89,48,29.53,48.13,30.37Z"/><path d="M48.1,114.43h-2c-.41-.62-.14-1.26-.21-1.87.14-.1.27-.27.41-.28a9,9,0,0,1,1.37,0,.45.45,0,0,1,.44.54C48.08,113.27,48.1,113.72,48.1,114.43Z"/><path d="M48.1,51.39h-2c-.41-.62-.14-1.26-.21-1.87.14-.1.27-.27.41-.28a7.84,7.84,0,0,1,1.37,0,.45.45,0,0,1,.44.54C48.08,50.23,48.1,50.68,48.1,51.39Z"/><path d="M48.05,91.22v2c-.62.4-1.26.14-1.9.21a2.87,2.87,0,0,1-.19-2C46.56,91.06,47.2,91.32,48.05,91.22Z"/><path d="M45.94,72.45v-2c.61-.4,1.25-.13,1.86-.2.1.13.27.26.29.41a8.82,8.82,0,0,1,0,1.36.45.45,0,0,1-.54.45C47.1,72.42,46.64,72.45,45.94,72.45Z"/><path d="M128.28,151v1.3c-.41.61-1,.07-1.35.32-.5-.49-.21-1-.31-1.39C127.17,150.62,127.73,151.14,128.28,151Z"/><path d="M194.13,152.69V151.2c.43-.41.91-.13,1.33-.23.52.43.26,1,.2,1.48C195.28,152.82,194.8,152.54,194.13,152.69Z"/><path d="M261.5,151H263c.41.42.13.9.22,1.33-.43.52-1,.25-1.47.19C261.37,152.16,261.65,151.68,261.5,151Z"/><path d="M330.68,151v1.3c-.27.31-.27.31-1.47.21-.38-.38-.09-.86-.19-1.28C329.56,150.62,330.12,151.14,330.68,151Z"/><path d="M.44,31.05a4.55,4.55,0,0,1,.09.73c0,.08-.22.16-.35.2S0,31.86,0,31.8c0-.24.06-.49.09-.74Z"/><path d="M.07,32.74a3.64,3.64,0,0,1,.73-.09c.08,0,.16.22.2.35s-.12.18-.18.18c-.25,0-.49-.06-.74-.09Z"/><path d="M.07,25.8l.2-.36c.06.06.18.14.17.19A2,2,0,0,1,.27,26Z"/><path d="M.46,26.91l-.19.19a1.81,1.81,0,0,1-.18-.37s.12-.12.18-.18Z"/><path d="M87.31,122.94v1.29a135.5,135.5,0,0,1-14.27,0V123A132.85,132.85,0,0,1,87.31,122.94Z"/><path d="M134.57,121.72h.69c.37.45.14.91.19,1.34l-.45.45c0,1.39-.95,2.44-1.47,3.68h-1.11c-.27-.53-.77-1.06-.76-1.59,0-.7-.53-1.11-.59-1.69s-.75-.71-.81-1.1c-.77-.13-.93.43-1.38.67v3.4a.72.72,0,0,1-1.09.12v-5.13c.55-.45,1.2-.15,1.82-.2s1.09,0,1.69,0l.75.72a5.43,5.43,0,0,0,1,2.59C133.5,123.87,134.14,122.86,134.57,121.72Z"/><path d="M112.86,121.62h2.4c.27.29.77.59.81.94a2.22,2.22,0,0,0,.6,1.08v1.44c-.5.69-.57,1.67-1.46,2.1h-1.6l-.41-.42-1.21.45c-.4-.41-.41-3.94-.12-7.15h.71C113,120.47,112.7,121,112.86,121.62Zm1.94,4.47a3.82,3.82,0,0,1,.33-.93c.21-.29.53-.5.42-1a11.58,11.58,0,0,0-1.26-1.32l-1.61,1.3.94,1.9Z"/><path d="M123,127.19l-1.37-1.39v-2.08l.76-1.34,1.35-.69h1.53l1.26,1.45v1.7c-1.08.4-2.21-.14-3.28.36l.75.8c.64.12,1.22.24,1.73-.38.2-.25.67-.15.87.28.13.68-.58.85-.77,1.29Zm1.66-3.31c.42-.95.39-1-.61-1.12-.09.39-.67.44-.68.94C123.81,124,124.27,123.79,124.69,123.88Z"/><path d="M146,127.15h-3.6l-.76-.7v-4l1.5-.77H144l.6.52c.58-.62-.07-1.45.45-2.13h.68c.09.09.21.16.21.22C146,122.49,146,124.7,146,127.15Zm-3.32-1.89c.42.31.64.93,1.3.83l.86-.69v-1.87c-.41-.27-.56-.82-1.13-.76s-.67.57-1,.83Z"/><path d="M141,124.9c-1.39.18-2.58,0-3.71.15,0,.14-.11.24-.09.27.24.28.49.54.69.76h1.72l.59-.52c.45.39.16.88.25,1.31-.13.11-.26.3-.39.31-.91,0-1.82,0-2.65,0l-1.32-1.31v-3l1.46-.81c.13-.58.59-.39,1-.43s.73,0,.93,0c1,.41.85,1.46,1.46,2C141.16,123.84,141,124.37,141,124.9Zm-3.07-2.13a.69.69,0,0,0,0,1.11c.43-.09.89.17,1.29-.18-.08-.45-.5-.62-.75-.93Z"/><path d="M94.63,123.89H93.1c-.51,1,.06,2.15-.35,3.23l-.71,0c-.36-.36-.38-3.13-.08-6.56h.73c.4.61.13,1.27.2,1.88.28.32.28.33,2.7.16v-1.79a1.84,1.84,0,0,1,.55-.29,1.74,1.74,0,0,1,.56.15v6.33l-.68.18c-.35-.28-.35-.28-.36-2.63Z"/><path d="M106.16,125.53V123l1.49-1.37H109l1.5.78.15.64.5.53v1.64c-.63.51-.54,1.52-1.39,1.92h-2.28Zm3.32-1.93c-.42-.31-.64-.93-1.33-.83-.29.5-.59,1-.87,1.52,0,.07,0,.19,0,.28,0,.26,0,.52,0,.76.41.26.56.82,1.14.76s.66-.58,1-.83Z"/><path d="M120.11,125.77l-1-.48.18-.23-1.29-.13-.79-.77v-1.67l.82-.8h2.3l.85.79-.33.9-.47-.52a3.83,3.83,0,0,0-2.11.08l.78.85,1.19.14.84.74v1.7l-.81.81c-1,0-2,0-3,0v-1.45c.51.09.51.09.77.34C118.68,126,119.33,126.28,120.11,125.77Z"/><path d="M101.19,126l1,.27.1.7c-.4.45-.89.23-1.32.27a8.22,8.22,0,0,1-1.11,0,3.24,3.24,0,0,1-1.37-.12l-.06-.84.89-.21.69-.76v-3.52l-1.44-.13-.19-.68c.28-.41.28-.41,2.6-.29.07.06.18.12.19.2a3.35,3.35,0,0,1,0,.55Z"/></g></g></svg>