<svg xmlns="http://www.w3.org/2000/svg" viewBox="0 0 118.43 118.43"><title>Recurso 8MANDALA</title><g id="Capa_2" data-name="Capa 2"><g id="Capa_1-2" data-name="Capa 1"><polygon points="93.83 19.7 81.98 40.24 79.14 29.73 91 9.19 93.83 19.7"/><rect x="49.43" y="44.07" width="58.16" height="1.45" transform="translate(0.46 90.39) rotate(-60)"/><polygon points="69.44 7.68 69.44 31.4 61.73 23.71 61.73 0 69.44 7.68"/><rect x="39.64" y="36.36" width="58.16" height="1.45" transform="translate(31.63 105.8) rotate(-90)"/><polygon points="42.3 9.47 54.16 30.01 43.64 27.21 31.79 6.67 42.3 9.47"/><rect x="27.3" y="34.57" width="58.16" height="1.45" transform="translate(54 101.77) rotate(-120)"/><polygon points="19.7 24.59 40.24 36.45 29.73 39.28 9.19 27.43 19.7 24.59"/><rect x="15.72" y="39.19" width="58.16" height="1.45" transform="translate(63.63 96.89) rotate(-150)"/><polygon points="7.68 48.99 31.4 48.99 23.71 56.7 0 56.7 7.68 48.99"/><rect x="8" y="48.99" width="58.16" height="1.45" transform="translate(74.16 99.42) rotate(-180)"/><polygon points="9.47 76.12 30.01 64.27 27.21 74.78 6.67 86.64 9.47 76.12"/><rect x="6.22" y="61.33" width="58.16" height="1.45" transform="translate(96.89 98.14) rotate(150)"/><polygon points="24.59 98.73 36.45 78.19 39.28 88.7 27.43 109.24 24.59 98.73"/><rect x="10.84" y="72.91" width="58.16" height="1.45" transform="matrix(-0.5, 0.87, -0.87, -0.5, 123.64, 75.87)"/><polygon points="48.99 110.74 48.99 87.03 56.7 94.72 56.7 118.43 48.99 110.74"/><rect x="20.63" y="80.62" width="58.16" height="1.45" transform="translate(131.06 31.63) rotate(90)"/><polygon points="76.12 108.95 64.27 88.42 74.78 91.22 86.64 111.75 76.12 108.95"/><rect x="32.97" y="82.41" width="58.16" height="1.45" transform="translate(103.02 -12.17) rotate(60)"/><polygon points="98.73 93.83 78.19 81.98 88.7 79.14 109.24 91 98.73 93.83"/><rect x="44.55" y="77.78" width="58.16" height="1.45" transform="matrix(0.87, 0.5, -0.5, 0.87, 49.12, -26.3)"/><polygon points="110.74 69.44 87.03 69.44 94.72 61.73 118.43 61.73 110.74 69.44"/><rect x="52.27" y="67.99" width="58.16" height="1.45"/><polygon points="108.95 42.3 88.42 54.16 91.22 43.64 111.75 31.79 108.95 42.3"/><rect x="54.05" y="55.65" width="58.16" height="1.45" transform="translate(-17.05 49.12) rotate(-30)"/><polygon points="69.44 7.68 69.44 31.4 61.73 23.71 61.73 0 69.44 7.68"/><rect x="39.64" y="36.36" width="58.16" height="1.45" transform="translate(31.63 105.8) rotate(-90)"/></g></g></svg>