<svg xmlns="http://www.w3.org/2000/svg" viewBox="0 0 177.28 96.7"><title>Recurso 15ART</title><g id="Capa_2" data-name="Capa 2"><g id="Capa_1-2" data-name="Capa 1"><path d="M171.92,53.72V58.9c.13.1.18.17.24.19a.88.88,0,0,0,.23,0h4.66c.08.08.15.12.18.19a.45.45,0,0,1,0,.2c0,1.63,0,3.25,0,5H161.35c-.37.62-.14,1.22-.18,1.8s0,1.19,0,1.78a4.7,4.7,0,0,1-.13,1.81H150.63c-.12.14-.2.19-.21.25a3.23,3.23,0,0,0,0,.44V75c-.55.37-1.15.15-1.72.19s-1.19,0-1.79,0h-1.74a5.33,5.33,0,0,0-.12,1.84c0,.52,0,1,0,1.57v1.74c-.09.09-.13.16-.2.19a.49.49,0,0,1-.21,0H134.56c-.06,0-.11.08-.25.18v4.94c-.13.14-.17.21-.24.24a.81.81,0,0,1-.22,0H123.78a1.21,1.21,0,0,0-.16.16.47.47,0,0,0-.06.2c0,1.63,0,3.25,0,4.81-.15.12-.2.18-.27.2a.81.81,0,0,1-.22,0H113c-.36.56-.13,1.17-.17,1.74s0,1.19,0,1.79a5.46,5.46,0,0,1-.1,1.79H102.21c-.32-.54-.09-1.14-.13-1.72s0-1.19,0-1.79a4.65,4.65,0,0,0-.12-1.77H96.87c-.08.1-.16.15-.17.21a3.38,3.38,0,0,0,0,.45v4.45a1.36,1.36,0,0,1-.18.17.46.46,0,0,1-.2,0H64.59a5.41,5.41,0,0,1-.12-1.85c0-.52,0-1,0-1.57V91.55a.93.93,0,0,0-.2-.2.49.49,0,0,0-.21,0H21.75c-.06,0-.11-.08-.22-.16V75.38c.08-.07.12-.14.18-.17a.88.88,0,0,1,.23,0h4.7c.36-.28.21-.68.21-1,0-1.4,0-2.81,0-4.14.15-.12.2-.18.26-.2a.81.81,0,0,1,.22,0h4.71c.36-.56.13-1.17.17-1.74s0-1.19,0-1.79a5.43,5.43,0,0,1,.11-1.82h5.07c.36-.62.13-1.23.17-1.8s0-1.19,0-1.79a4.53,4.53,0,0,1,.14-1.81h5c.12-.13.2-.18.21-.24a3.38,3.38,0,0,0,0-.45V53.94a1.36,1.36,0,0,1,.17-.17.46.46,0,0,1,.2-.05H64.17c.06,0,.12-.07.21-.13a6.14,6.14,0,0,0,.08-1.72c0-.52,0-1,0-1.56V48.57c.1-.09.14-.16.2-.19a.51.51,0,0,1,.22,0h36.93s.11.09.24.19v4.94c.14.13.18.22.24.23a3.38,3.38,0,0,0,.45,0ZM69.84,69.84c0-1.71,0-3.41,0-5.11,0-.06-.08-.11-.19-.27H64.86a.44.44,0,0,0-.2,0c-.07,0-.11.1-.15.14v5c.11.08.16.16.22.16h5.11v4.91a.54.54,0,0,1,0,.22c0,.06-.09.11-.21.24H60.11c-.34,0-.74-.14-1,.22v4.7a.55.55,0,0,0,0,.22c0,.06.09.11.21.23h9.51c.35,0,.74-.15,1,.22V85.5c0,.08,0,.16,0,.22s.1.11.24.23h9.49c.34,0,.74.15,1-.23V80.58H96.42c.06,0,.12-.07.17-.11a1.53,1.53,0,0,0,.1-.41q0-7.58,0-15.17a.49.49,0,0,0,0-.21.75.75,0,0,0-.15-.16H91.44a5.21,5.21,0,0,0-.11,1.79c0,.59,0,1.19,0,1.78s.2,1.17-.18,1.78H80.77c-.1.12-.18.18-.18.23,0,3.5,0,7,0,10.49H75.89a3.38,3.38,0,0,1-.45,0c-.06,0-.11-.09-.23-.21,0-3.12,0-6.32,0-9.51,0-.34.15-.74-.23-1Zm37.78-10.71a1.26,1.26,0,0,0-.18.21.81.81,0,0,0,0,.22v15a3.38,3.38,0,0,1,0,.45s-.1.1-.25.23h-5.11V77c0,.59,0,1.19,0,1.79s-.19,1.17.13,1.73h16V78.77c0-.6,0-1.2,0-1.79s-.18-1.17.17-1.79h5.07a5.14,5.14,0,0,0,.12-1.81c0-.6,0-1.2,0-1.79s-.2-1.17.18-1.78h10.42a83,83,0,0,0,0-10.68ZM43,75.21h-4.7a2.26,2.26,0,0,0-.45,0s-.1.1-.19.2v5c2.13.2,14,.2,16.08,0V70.19a.37.37,0,0,0-.07-.2,1.06,1.06,0,0,0-.15-.15H43.22s-.11.09-.24.2Z"/><path d="M177.05,10.74H150.64c-.36-.27-.21-.67-.22-1,0-1.41,0-2.81,0-4.14-.15-.12-.21-.2-.27-.2H134.48c-.36.56-.13,1.17-.17,1.74s0,1.19,0,1.79v1.79H102.21c-.32-.54-.09-1.14-.13-1.72a11.88,11.88,0,0,1,0-1.79,4.36,4.36,0,0,1,.13-1.81h21.13c.12-.13.2-.18.21-.24a3.38,3.38,0,0,0,0-.45V.22a.83.83,0,0,1,.17-.16.36.36,0,0,1,.2-.06h31.73a5.39,5.39,0,0,1,.12,1.85c0,.52,0,1,0,1.56V5.15c.09.09.13.16.2.19a.49.49,0,0,0,.21,0H177c.06,0,.12.08.2.14,0,1.68,0,3.37,0,5.07C177.2,10.64,177.1,10.69,177.05,10.74Z"/><path d="M37.6,26.86V32c-.27.37-.67.22-1,.23-2.83,0-5.66,0-8.49,0h-1c-.11.14-.2.19-.2.25a3.23,3.23,0,0,0,0,.44v4.49c-.54.37-1.14.14-1.71.18s-1.19,0-1.79,0H21.68a1.48,1.48,0,0,0-.19.28.81.81,0,0,0,0,.22v4.7c-.57.35-1.17.12-1.74.17s-1.2,0-1.79,0a5.19,5.19,0,0,0-1.82.12v5.06c-.62.37-1.22.14-1.79.18s-1.19,0-1.79,0H10.75v5.11c-.14.15-.18.24-.24.25a2.14,2.14,0,0,1-.44,0H5.37V43.2c.28-.37.68-.21,1-.22h4.33c.06-1.78,0-3.48,0-5.21.53-.34,1.13-.11,1.7-.16s1.2,0,1.79,0a5.69,5.69,0,0,0,1.82-.11V32.43c.62-.38,1.23-.15,1.8-.19s1.19,0,1.79,0a4.7,4.7,0,0,0,1.81-.12v-5c.14-.16.18-.25.24-.26a2.24,2.24,0,0,1,.45,0Z"/><path d="M37.6,26.86V21.71c.28-.36.68-.21,1-.22h9.69c.07-1.78,0-3.48,0-5.17a.81.81,0,0,1,.16-.16.49.49,0,0,1,.21,0H69.32a1.4,1.4,0,0,1,.4.11c0,.06.11.12.11.18,0,1.63,0,3.27,0,4.9-.59.36-1.19.13-1.77.17s-1.19,0-1.79,0h-9c-.59,0-1.19,0-1.79,0a4.71,4.71,0,0,0-1.81.12v5c-.14.15-.18.24-.24.25a3.38,3.38,0,0,1-.45,0Z"/><path d="M75.25,15.94v-5c.08-.09.13-.18.19-.19a3.2,3.2,0,0,1,.44,0H96.44c.06,0,.12.09.21.17v5c-.08.09-.12.16-.18.19a.55.55,0,0,1-.22,0H75.46C75.4,16.11,75.35,16,75.25,15.94Z"/><path d="M5.37,53.72v5.11c0,.05-.08.11-.16.21h-5A.47.47,0,0,1,0,58.9a.49.49,0,0,1,0-.21V53.92c.15-.11.21-.19.26-.19Z"/><path d="M10.74,80.62h5.19c.09.09.18.14.18.2,0,1.63,0,3.27,0,4.92-.05,0-.1.1-.16.14a.37.37,0,0,1-.19.07H11c-.12-.13-.21-.18-.21-.24C10.74,84.08,10.74,82.44,10.74,80.62Z"/></g></g></svg>