<svg xmlns="http://www.w3.org/2000/svg" viewBox="0 0 195.84 39.5"><title>Recurso 4GRAPHS</title><g id="Capa_2" data-name="Capa 2"><g id="Capa_1-2" data-name="Capa 1"><path d="M16,39.5l-.37-.35h-1l-.62-.62a3,3,0,0,1-2.13-1.09h-.5c-.35,0-.49-.4-.88-.39-.2,0-.41-.37-.63-.6A2.94,2.94,0,0,1,9,36.34a3.33,3.33,0,0,1-.95-.6c-1.36-1.32-2.67-2.68-4-4-.26-.26-.23-.61-.47-.84l-.86-.85L2,29.38c0-.29,0-.6-.07-.72-.39-.41-.41-1.06-1-1.3V25.62l-.35-.39V22.14L0,21.52V17.94l.5-.13s.07,0,.07-.07c0-.9.07-1.81.11-2.8L1,14.58v-1.4l.7-.54v-.8L2,11.47v-.72l.65-.23,0-.52,1-1v-.9C4.18,7.81,4.79,7.71,4.8,7c0,0,.18-.15.27-.14.28,0,.41-.18.54-.35S5.81,6,6,5.85a4.26,4.26,0,0,0,.58-.27c.28-.19.15-.54.36-.71s.4-.15.58-.26a.75.75,0,0,0,.37-.7S8,3.83,8,3.77h.7c.28-.51.84-.66,1.3-.94.27-.17.64-.19.81-.5s.63-.2.84-.49.54-.05.9-.23L13.21,1h1l.41-.35h1L16.26,0H179.59l.45.66h1.16l.38.35h1c.2.2.4.41.61.61a3.08,3.08,0,0,1,2.12,1.09c.47-.1.82.22,1.23.34s.54.57.91.71h.63c.42.42.88.92,1.38,1.38a4.71,4.71,0,0,1,1,1.66l.49.13A1.12,1.12,0,0,0,192,8l0,.7,1,.93v.9l.66.23c0,.24,0,.51.05.78l.27.27c0,.24.06.51.09.78l.67.67v1.38l.31.31V17.7l.58.2a.91.91,0,0,1,.11.3c0,1.08,0,2.17,0,3.26l-.67.67v3.09l-.33.33v1.72c-.19.19-.38.4-.59.58s-.07.53-.35.72-.05.53-.14.81l-1.7,1.69v.34l-2.06,2v.74l-1.23,1.21h-.71c-.22.56-.86.61-1.28.95-.15.12-.43.07-.76.11s-.38.57-.81.66c-.25.06-.47.25-.72.33a2,2,0,0,1-.55,0c-.23.56-.87.61-1.29,1-.15.12-.43.06-.81.1l-.47.65h-1.15l-.37.35Zm177.14-12c-.35.2-.35.2-.2.66.36-.13.14-.44.1-.62.27-.08.53-.05.3-.35A.92.92,0,0,0,193.09,27.47Zm-190.34.1c-.08-.27-.06-.54-.36-.3a1.12,1.12,0,0,0,.3.2l.05.68.66,0C3.2,27.77,3,27.52,2.75,27.57Zm188.28,3a1,1,0,0,0-.71.68l.18.35.53-.51a.77.77,0,0,0-.1-.48c.27-.07.53-.05.3-.35A1,1,0,0,0,191,30.56Zm-32.35-2.5c.08.27.06.53.36.3a.43.43,0,0,0-.45-.1c.16-.18.22-.39.37-.52s.15-.39,0-.57h-.88A2.19,2.19,0,0,0,158.68,28.06ZM28.44,35.62c.08.27,0,.54.35.3a.83.83,0,0,0-.31-.2l-.14-.34c-1.92,0-3.86,0-5.79,0-.08,0-.16.12-.24.18l.49.49h.69l.36-.33C25.39,35.72,26.94,35.72,28.44,35.62ZM24,16.85c0,.49,0,.83,0,1.17s-.12.79.14,1.2H34.73c.09,0,.18-.11.28-.16V18l.34-.38c-.06-.26.12-.57-.14-.81ZM35,20.7c-1.74-.15-9.42-.14-10.94,0v2.17c1.55.15,9.58.16,11.28,0A1.41,1.41,0,0,0,35,21.65Zm136.77-3.88H161s-.09.07-.19.16c0,.34,0,.73,0,1.12s-.19.8.17,1.12h10.63s.09-.07.16-.13ZM161.3,23h10c.11,0,.23,0,.34,0s.08-.07.15-.14V20.71c-1.54-.15-9.23-.15-10.93,0v1.82ZM24.4,15.68c.29.2.58.1.85.1H35a.94.94,0,0,0,.32-.11l.08-.77c.23-.37.87-.49.55-1.13H25.25l-.85.44Zm.81,10.42H35.87S36,26,35.94,26l-.54-.54c-.1-.63.06-1-.19-1.46H24.61c-.08,0-.17.12-.25.18v1Zm63.07-9.26c0,.49,0,.84,0,1.18s-.12.79.14,1.2c2.77,0,5.56,0,8.35,0,.27,0,.57.11.8-.19-.07-.71.05-1.44-.07-2.19Zm0,6.16h9s.09-.07.19-.16c0-.33,0-.73,0-1.12s.19-.79-.17-1.12H88.47s-.09.07-.16.13Zm82-9.27h-9.5a1.29,1.29,0,0,0-.35.13c0,.2-.09.48,0,.63.31.42.34,1,.9,1.3h9.74a.47.47,0,0,0,.17,0s.08-.08.13-.13V14.19ZM36,27.17H25.49a2.29,2.29,0,0,0-.08,1.11l.82.91h9.94s.09-.06.13-.09c.32-.41-.18-.57-.29-.94Zm134.55-1.11.89-.81c-.07-.42.14-.83-.14-1.18h-10.4c-.37.42.11.6.17.87-.21.35-.86.46-.54,1.12ZM107.49,20.6H98.78s-.09.07-.2.16c0,.33,0,.73,0,1.11s-.18.8.16,1.13h8.58s.08-.07.16-.13Zm-8.91-1.55c.16.23.4.17.62.17,2.51,0,5,0,7.54,0,.27,0,.57.11.78-.17,0-.35,0-.69,0-1s.13-.79-.13-1.2h-8c-.27,0-.58-.11-.79.18Zm71.8,8.08h-9.77l-.85.85c0,.38-.12.78.12,1.18h9.52l1-.76Zm10.68-10.31H173s-.08.07-.19.16c0,.34,0,.73,0,1.12s-.19.8.17,1.12h8.56s.08-.06.13-.1c.07-.32.2-.64-.07-.89l-.55-.12ZM23,16.82h-8s-.09.07-.13.1c-.23.4.17.91-.2,1.24l-.52.11v.85a87.39,87.39,0,0,0,8.87,0ZM14.76,23h8s.08-.06.2-.15a10.4,10.4,0,0,0,0-1.11c0-.37.18-.79-.12-1.1H14.09c-.2.65.5.82.67,1.33Zm166.3,0V21.62l.74-.51-.16-.48h-8.72a2.48,2.48,0,0,0-.1,1.2c0,.38-.15.78.13,1.15Zm-54.33-6.05a74.4,74.4,0,0,0-8.18,0v2.18a74.4,74.4,0,0,0,8.18,0Zm0,3.67h-8s-.08.07-.18.16c0,.34,0,.74,0,1.12s-.19.8.17,1.12h7.89s.08-.07.15-.13ZM77.28,19.2c0-.49,0-.84,0-1.18s.12-.79-.13-1.2c-2.43,0-4.88,0-7.33,0-.26,0-.57-.11-.78.17,0,.35,0,.69,0,1s-.13.79.12,1.18Zm0,1.51a72.15,72.15,0,0,0-8.19,0v2.17a69.9,69.9,0,0,0,8.19,0Zm20.27,6.42h-9s-.09.06-.18.12l-.06,1.1c-.19.27-.53.39-.6.74,1.77.14,8.36.13,9.87,0Zm-9.07-13.4s-.12.08-.12.12c0,.61,0,1.22,0,1.83a90.66,90.66,0,0,0,9.19,0v-1.8c-.08-.07-.12-.13-.16-.13ZM97.38,26.1s.12-.08.12-.12c0-.62,0-1.23,0-1.84a90.66,90.66,0,0,0-9.19,0V26c.08.07.12.13.16.13Zm10.48,1.14a89.7,89.7,0,0,0-9.28,0v1.83a92.58,92.58,0,0,0,9.28,0V27.24Zm.27-13.42c-1.8-.14-8-.13-9.59,0,.15.64-.09,1.3.14,1.94h8.63s.09-.06.16-.1l.11-1,.67-.41C108.18,14,108.16,13.92,108.13,13.82Zm-.64,10.31c-1.83-.14-7.38-.13-8.91,0,0,.33,0,.67,0,1s-.17.69.17,1H108s.11-.13.17-.2l-.63-.63ZM25.43,12.23c.08.06.13.12.17.12H35.86c.17-.54.75-1,.44-1.63,0,0-.09-.08-.13-.08H26.36l-.93.49Zm134.82.12h10s.08-.07.16-.13V10.93c-.44.29-.58-.11-.84-.3H160s-.08.06-.16.12v1.06ZM171,29.19h8.52l.48-.49c0-.38,0-.77.07-1.15.07-.13.41-.14.17-.39h-8.32l-.5.52v1Zm-154.85,0h8.38s.08-.07.14-.14l-.29-.36-.06-1.09-.51-.46H15.68c-.08,0-.17.11-.22.14.2.33.39.65.57,1a1.09,1.09,0,0,1,.08.31C16.12,28.74,16.13,28.9,16.15,29.19Zm-1-3.19c1.71.14,6.91.13,8.49,0l-.35-.56v-.92l-.5-.48H15.08a1.57,1.57,0,0,0-.39.15c.16.27-.13.63.23.88S14.92,25.73,15.15,26ZM181,24.11a4,4,0,0,0-1.33-.07c-.45,0-.9,0-1.36,0h-2.73c-.45,0-.91,0-1.36,0a4.15,4.15,0,0,0-1.32.06l-.46.51v1l-.31.41a83.47,83.47,0,0,0,8.52,0c.2-.27-.1-.67.23-.93S181.05,24.46,181,24.11ZM14.81,15.69a64.16,64.16,0,0,0,8.1,0l.42-.41v-1l.34-.45a1.93,1.93,0,0,0-.9-.09H15.43a1.42,1.42,0,0,0-.35.13v1.07C14.82,15.18,14.59,15.36,14.81,15.69Zm158.13.05h8c.38-.45-.14-.6-.29-1.1-.1-.14.28-.58-.1-.91h-8.19c-.07,0-.14.12-.21.18l.34.39v1ZM127,13.82c-.19-.18-.43-.09-.64-.09h-7.18a1.18,1.18,0,0,0-.35.13v1a2.87,2.87,0,0,0-.33.54c0,.08,0,.2.06.3a74.3,74.3,0,0,0,8.19,0C126.51,15,127.39,14.52,127,13.82ZM77.28,24.23c-.15-.27-.4-.19-.61-.19H69.32c-.09,0-.18.1-.28.16v1c-.17.26-.63.43-.18.89h7.79c.09,0,.18-.1.28-.16v-.67l.35-.37ZM127,26a.41.41,0,0,0-.11-.58c-.21-.16-.16-.39-.17-.61v-.65a76.59,76.59,0,0,0-8.3,0c.18.29-.13.66.23.91s-.07.8.36,1h7.86S127,26,127,26ZM76.9,13.83a73.56,73.56,0,0,0-8.27,0c.18.29,0,.59.21.93a3,3,0,0,1,.33,1h7.92s.08-.07.13-.1c.25-.4-.22-.56-.32-1ZM68,29c.13.14.17.21.21.21h8a1.92,1.92,0,0,1,.21-.58A5.26,5.26,0,0,1,77,28c-.1-.24.12-.54-.18-.84H69c-.09,0-.18.11-.27.18V28.5Zm50.9-1,.62.29c.16.32-.07.63.24.9h7.79c.1,0,.19-.1.28-.16l-.51-.53c-.31-.57,0-1-.34-1.36h-7.81c-.09,0-.18.12-.27.17ZM87.57,11.26a3.29,3.29,0,0,0,.47.33c.31.15.15.52.34.71a64,64,0,0,0,9.16-.11,12.15,12.15,0,0,0,0-1.48,80.33,80.33,0,0,0-9.91.06Zm20.29.57v-.68c.15-.16.15-.16.21-.52H98.85c-.09,0-.18.11-.27.17,0,.45,0,.91,0,1.36,0,0,.08.08.13.13,3.83.16,9.27.1,9.48-.11Zm74.75,6c.4.36,0,.87.23,1.27a42.69,42.69,0,0,0,6.09,0v-.75l-.31-.39v-.9a.34.34,0,0,0-.07-.15,47.18,47.18,0,0,0-6.51,0c.18.29-.13.64.22.91ZM182.12,23h6l.48-.49c0-.38,0-.76.06-1.09l.33-.32-.09-.5H183c-.09,0-.18.11-.27.18v.8l-.65.49ZM142.2,20.6h-6s-.09.07-.19.16c0,.34,0,.74,0,1.12s-.19.8.17,1.12H142c.05,0,.09-.07.16-.14ZM59.72,16.82h-6s-.09.07-.19.16c0,.33,0,.73,0,1.12s-.19.79.17,1.12h5.82s.09-.07.16-.13ZM53.6,22.89a39,39,0,0,0,6.12,0V20.71a39,39,0,0,0-6.12,0Zm82.47-3.67h6s.09-.07.19-.16a10.57,10.57,0,0,0,0-1.12c0-.38.19-.8-.17-1.12h-5.82s-.09.07-.16.14Zm35.37-6.87h8.38s.09-.06.17-.12v-1.1l-.47-.5H171.3s-.08.06-.18.13l.32.41Zm-155.57-.1c1.48.13,6.66.14,8.45,0l.06-1.1c.08-.19.46-.26.2-.48h-8l-.34.37ZM7.23,22.48l.44.52c1.93,0,3.82,0,5.71,0a.8.8,0,0,0,.3-.14v-.63l-.63-.62c-.1-.42.09-.72-.2-1H7.43c-.08,0-.16.11-.24.17l.31.34v1Zm6.49-4.72c-.08-.35.1-.65-.13-.89-3.4-.14-6.2-.1-6.4.11l.33.36c0,.39,0,.79,0,1.18a1,1,0,0,1-.12.34c0,.08-.35.11,0,.36,1.76,0,3.57,0,5.39,0,.09,0,.18-.11.27-.16.06-.38-.09-.78.1-1.14ZM81.43,23h5.63s.08-.07.18-.16c0-.34,0-.73,0-1.12s.19-.8-.17-1.12H81.59s-.09.07-.16.14Zm27.12-4c.15.27.4.19.61.19,1.49,0,3,0,4.46,0,.26,0,.57.11.77-.18,0-.34,0-.68,0-1s.12-.79-.14-1.2c-1.63,0-3.27,0-4.92,0-.27,0-.57-.11-.78.18ZM114.39,23c0-.5,0-.84,0-1.18s.12-.79-.14-1.2c-1.62,0-3.27,0-4.92,0-.27,0-.57-.11-.78.18,0,.34,0,.68,0,1s-.13.79.12,1.18Zm-33-3.87a34.8,34.8,0,0,0,5.78,0V16.93a34.8,34.8,0,0,0-5.78,0Zm-5.19-8.37a74,74,0,0,0-8.29,0c.18.29-.13.64.22.91h.36l.32.69h7.89s.08-.07.13-.11c0-.48-.51,0-.63-.66Zm42.67,1.49a75.44,75.44,0,0,0,8.12,0l.19-.56.51-.1c0-.36.21-.7-.11-1h-7.86c-.05,0-.09.06-.14.09-.25.39.15.9-.22,1.26C119.22,12.05,118.94,11.89,118.91,12.23ZM98.62,6.85h9.74s.08-.07.21-.17c-.16-.35.21-.81-.19-1.2h-9.6s-.09.07-.16.13ZM108.52,33H98.77s-.08.07-.14.12a1.8,1.8,0,0,0,.11,1.25h9.62s.09-.07.16-.13Zm-11,0H87.81c-.07,0-.14.11-.2.17l.29.35c-.19.28-.54.4-.59.76,2,.13,8.73.11,10.21,0Zm0-27.49h-10c-.07,0-.13.12-.2.19a2.35,2.35,0,0,1,.83,1.17h9.26s.09-.07.16-.13Zm11,2.5c-1.74-.14-8.36-.13-9.86,0V9.12c.21.24.45.13.67.13h8.55a.88.88,0,0,0,.3-.1C108.05,8.7,108.79,8.5,108.48,8ZM87.64,31.48c1.55.15,8.21.16,10,0-.19-.41.18-.87-.21-1.26H88.14s-.09.06-.22.16C88.06,30.76,87.83,31.11,87.64,31.48ZM87.57,9.14c1.58.15,8.22.16,9.93,0a1.8,1.8,0,0,0-.1-1.27H88.14s-.08.05-.13.09C87.82,8.34,88.12,8.86,87.57,9.14ZM98.62,31.5c1.87.14,8.41.13,9.89,0-.32-.41-.33-1-.88-1.26H98.91a.47.47,0,0,0-.17,0,.6.6,0,0,0-.12.11ZM181.8,26a42.18,42.18,0,0,0,6.07,0c0-.31.11-.62.15-.89l.67-.14c-.2-.32.12-.67-.24-.94H182.3s-.09.06-.18.12l-.05,1.11C181.85,25.47,181.62,25.65,181.8,26Zm-39.06,1.15h-5.32a1.1,1.1,0,0,0-.31.12v1.47l.5.47h6c.09,0,.18-.1.28-.15l-.7-.74v-.66ZM59.4,13.85a42.35,42.35,0,0,0-6.47,0l-.07.44.69.49c0,.25,0,.37,0,.48s0,.32,0,.47a28.62,28.62,0,0,0,6.13-.1.48.48,0,0,0,0-.17l-.63-1.26ZM136.9,26.1h5.84s.08-.08.22-.21l-.69-.45c-.09-.57.06-1-.18-1.4H136.3c-.09,0-.17.12-.25.18v.68C136.45,25.22,136.4,25.85,136.9,26.1ZM59.75,24H53.91a1.09,1.09,0,0,0-.35.14v1.07c-.27.26-.47.46-.67.67l.13.15h6a13.48,13.48,0,0,0,.75-1.26A2.42,2.42,0,0,0,59.75,24Zm76.7-10.19.33.69a7,7,0,0,0-.71.74c-.07.09,0,.3,0,.52H142c.09,0,.18-.11.27-.17v-.88l.74-.49-.18-.51h-6.2C136.54,13.73,136.5,13.79,136.45,13.84ZM58.69,27.24a28.36,28.36,0,0,0-5.78,0l-.4.45v1l-.29.38c.09.07.14.13.18.13h5.82l.47-.52ZM182.62,15.79h5.45s.09-.06.13-.09c.29-.4-.18-.56-.32-1-.12-.16.28-.61-.07-.88h-6.06c0,.26-.08.51,0,.68C182,14.92,182.12,15.48,182.62,15.79Zm-.74,11.38L181,28c.11.34-.1.74.16,1.18h5.38c.09,0,.19-.08.29-.12l.09-.8.59-.21v-.88ZM7.9,15.67c.09.06.13.11.18.11h5.1a2.18,2.18,0,0,0,.72-1.07,1.18,1.18,0,0,0,.14-.45,3.49,3.49,0,0,0,0-.51H8.34l-.44.44Zm79.34,10.4c0-.43,0-.72,0-1s.11-.68-.15-1H82.18c-.26,0-.57-.11-.78.17a8.23,8.23,0,0,0,0,.86c0,.32-.11.67.13,1ZM7.87,25.26l.91.84h5c.09,0,.18-.11.34-.21l-.27-.47c-.27-.56,0-1-.31-1.38H8.15c-.1,0-.19.1-.28.16Zm73.53-10,.48.48h5.4a15.22,15.22,0,0,0-.13-2H81.66c-.08,0-.17.11-.26.17ZM15.21,29.17a8.08,8.08,0,0,1-.47-1c-.13-.49-.61-.65-.86-1H9.08S9,27.2,9,27.24a2.2,2.2,0,0,0,.49,1.93Zm93.69-3.93c0,.26-.12.56.16.86h5a.29.29,0,0,0,.16,0,.77.77,0,0,0,.12-.13c0-.56,0-1.13,0-1.7,0,0-.07-.08-.16-.19h-5.39c-.09,0-.18.1-.28.15v.7ZM128.75,7.88h-8.64s-.09.05-.22.14a3,3,0,0,0,0,.59c0,.26-.53.32-.19.64h8.21s.09-.05.14-.08C128.26,8.81,127.94,8.28,128.75,7.88ZM26.27,30.25A6.25,6.25,0,0,1,27,31a2.13,2.13,0,0,1,.21.56h7.66l.48-.5c-.06-.29.12-.59-.15-.81Zm143,.06c-1.81-.13-7.3-.12-8.85,0v.72l.47.54h7.21c.11,0,.22,0,.34,0s.08-.06.13-.09a6.07,6.07,0,0,1,.24-.59C169,30.69,169.31,30.63,169.32,30.31ZM67.73,9.16a82.54,82.54,0,0,0,8.48,0,1.75,1.75,0,0,1-.29-.51,2.74,2.74,0,0,1,0-.64,82.33,82.33,0,0,0-8.61,0C67.83,8.28,67.55,8.79,67.73,9.16Zm59.89,21.06h-7.89s-.08.07-.13.11-.06.11,0,.14c.16.38.33.76.49,1.11,2.68,0,5.3,0,7.92,0,0,0,.08-.07.15-.13v-.75Zm51,.11a1,1,0,0,0-.69-.11h-7.17a1.05,1.05,0,0,0-.31.11l-.07.67c-.1.42-.63,0-.59.48.05,0,.1.1.14.1,2.73,0,5.47,0,8.22,0l.47-.49Zm-64.26-16.6H109.1s-.09.06-.18.13l0,1.11c-.24.18-.43.38-.26.7,0,0,.08.11.12.11h4.94a1.34,1.34,0,0,0,.31-.09l.38-.39ZM76.24,30.39c-1-.23-3.09-.27-8.09-.13l-.5.47c.07.27-.11.58.15.84h8A1.75,1.75,0,0,1,76,31C76.17,30.8,76.3,30.64,76.24,30.39ZM177.82,7.93h-8l-.05.52.61.22.19.55h8c.06-.08.12-.12.12-.17C178.66,8.45,178.07,8.28,177.82,7.93ZM35.23,9.22c.26-.24.12-.57.06-.9l-.47-.44H27.44c-.09,0-.19.08-.3.12l-.09.8c-.06.31-.61-.12-.56.41Zm85-2.48c1.51.14,6.61.16,8.51,0V6l-.43-.43H121Zm40.24,2.52h8.63c.07,0,.14-.12.24-.21l-.62-.22-.16-.9h-7.14l-1,.79ZM137.1,12.35H143a1.5,1.5,0,0,0,.17-.11c-.17-.65.89-.78.71-1.5a40.6,40.6,0,0,0-6.43,0l-.39.39ZM120.2,33c.18.34.38.49.41.8s.34.4.46.53h6.78l1-.5c0-.26.12-.56-.13-.83ZM26,8A75.92,75.92,0,0,0,17.9,8l-.16.89c-.24.09-.52-.08-.55.27a75.54,75.54,0,0,0,8.12,0l.19-.55L26,8.5ZM67.79,34.34h7.26l.36-.7c.11-.22.48-.27.41-.67H67.23c-.09,0-.17.11-.25.17a6.9,6.9,0,0,1,.6.61A3.1,3.1,0,0,1,67.79,34.34ZM75.08,5.48H67.82l-.36.71c-.1.21-.47.26-.41.66h8.6c.08,0,.16-.11.24-.17a4.85,4.85,0,0,1-.59-.61A2.56,2.56,0,0,1,75.08,5.48ZM175.72,34.34a2,2,0,0,1,.69-.38c.36-.12.17-.57.12-.88a74.22,74.22,0,0,0-7.76,0,.94.94,0,0,1-.09.31c-.2.29-.43.56-.65.85.09.06.14.12.18.12Zm-150.39-4a80.69,80.69,0,0,0-8.24,0,6.36,6.36,0,0,1,.58.6,4.05,4.05,0,0,1,.34.65c2.66,0,5.28,0,7.89,0,0,0,.08-.08.17-.17l-.65-.3Zm2.4-24.73a57.83,57.83,0,0,0-8.16,0L19.19,6l0,.7a70.16,70.16,0,0,0,7.81,0L27.18,6C27.42,5.73,27.74,6,27.73,5.58ZM20.35,34.34h7.27s.08-.07.14-.14c-.22-.4-.77-.6-.71-1.23H19.53a1,1,0,0,0-.29.13v.79Zm66.84-7.21H81.62c-.05,0-.09.06-.14.09-.09.32-.19.63.06.9l.48.1.17,1h4.5s.09-.06.17-.12c.16-.25-.12-.65.2-.9S87.22,27.57,87.19,27.13ZM176.08,5.48h-7.52s-.09.06-.18.12a2,2,0,0,1,.3.48c.07.25-.1.56.19.77h7.51s.09-.06.17-.12V6Zm-37.18.23c-.23-.17-.27-.23-.31-.23H131c.05.56-.53.19-.74.48v.76c.23.22.46.13.68.13h6.83a.91.91,0,0,0,.3-.11l.15-.88ZM138,33h-7.6s-.08.08-.12.12,0,.22,0,.15l.77,1.1h7.53c.09,0,.17-.12.25-.18a5.76,5.76,0,0,1-.6-.61A2.86,2.86,0,0,1,138,33ZM64.7,5.48H57.18s-.08.07-.19.17l.66.3.1.81a67.47,67.47,0,0,0,7.81,0V5.94A1.84,1.84,0,0,1,64.7,5.48ZM57,34.17c.09.09.13.17.17.17h7.56l.72-.72a.41.41,0,0,0,0-.62H57.82a3.85,3.85,0,0,1-.27.61A4.76,4.76,0,0,1,57,34.17Zm51.92-5.09a17.3,17.3,0,0,0,4.74,0l.08-.79.6-.22v-.8c-.08-.06-.12-.12-.17-.12h-5a.47.47,0,0,0-.17,0s-.08.07-.13.13ZM58.21,10.63H52.72s-.08.07-.15.13v1l.46.56h5.51s.08-.07.15-.14,0-.29,0-.46,0-.44,0-.6ZM8.93,12.35h5.62c.16-.54.75-1,.41-1.72H9.4l-.47.5Zm126.6,14.78h-4.09c-.05,0-.09.06-.18.13l0,1.1c-.23.2-.45.38-.26.72,0,0,.07.1.12.1h4.6a1.41,1.41,0,0,0,.33-.11V27.61Zm50.87-16.5h-5.14s-.08.06-.16.12v1.09l.47.5H187s.09-.06.18-.12a1.81,1.81,0,0,1-.29-.47,1.83,1.83,0,0,1,0-.56ZM60.27,27.13l-.48.91v1.05a21.81,21.81,0,0,0,5.06,0c.18-.33,0-.51-.26-.71l-.06-1.1c-.09-.07-.13-.13-.17-.13Zm-1-17.87H65s.08-.05.16-.1l.42-.46c-.08-.29.09-.6-.2-.81H58.94s-.09.05-.18.11v.78ZM60.81,23h3.56s.09-.07.19-.16c0-.34,0-.73,0-1.12s.18-.79-.17-1.12H61s-.08.07-.16.13Zm3.75-3.8c0-.49,0-.84,0-1.18s.12-.78-.14-1.2H61.05a.3.3,0,0,0-.15.05l-.12.11c0,.35,0,.7,0,1s-.12.78.12,1.18Zm-5.36,11a2,2,0,0,1-.21.57c-.18.23-.4.4-.19.71a52.42,52.42,0,0,0,6.76,0v-.25l-.79-1ZM137,8a54.29,54.29,0,0,0-6.78,0c.24.42.79.63.74,1.16.08.05.12.09.17.09h5.44l.49-.49C137.06,8.5,137.15,8.22,137,8Zm-.43,22.25h-5.33a1.11,1.11,0,0,0-.3.11l-.08.68c-.1.41-.62,0-.58.48a36.84,36.84,0,0,0,6.77-.05v-.74ZM86.89,10.63H82.28s-.08.06-.13.1c-.22.39.17.9-.22,1.26-.18.05-.46-.13-.47.24.05,0,.09.11.13.11h5.46s.08-.07.17-.14l-.33-.42Zm44,0v.71l.49,1h4.1l.55-.45c0-.4,0-.74,0-1.08,0,0-.07-.08-.12-.13Zm-71.14,0v1.18l.5.48h4.19c.14-.31.18-.65.47-.86-.06-.26.12-.57-.15-.8Zm54,0h-4.62s-.08.07-.19.16,0,.49,0,.77-.11.57.17.78h5.12s.11-.13.17-.21l-.66-.26Zm-53.47,3.1-.2.52.72.52.07,1h3.27l.49-.5c-.1-.45.09-.95-.08-1.43-.07,0-.11-.09-.16-.09Zm71,1.57.55.49h2.95c.09,0,.18-.1.28-.16v-.75l.73-.6-.14-.54h-4.09c-.09,0-.18.11-.28.16ZM57.66,30.22H51.72s-.09.06-.17.12v.77l.47.48c1.71,0,3.41,0,5.12,0,0,0,.08-.06.16-.11l.4-.44ZM135,20.6h-2.87s-.08.07-.15.12l-.1,1-.65.39,0,.8a2.79,2.79,0,0,0,1.2.11c.46,0,.91,0,1.36,0s.78.13,1.16-.12Zm9.28,9.72a44.55,44.55,0,0,0-6.12,0V31l.46.56h4.92l.79-.46ZM60,25.88c.15.14.19.21.23.21,1.37,0,2.73,0,4.09,0,0,0,.09-.06.2-.15,0-.27,0-.6,0-.93s.14-.68-.12-.94H60.81c0,.42,0,.81-.06,1.37ZM135,17c-.07-.07-.11-.14-.15-.14h-3.41s-.08.07-.13.11a1.27,1.27,0,0,0,.11.89l.53.11v1.16c.36.23.71.11,1,.13a8.85,8.85,0,0,0,1,0c.32,0,.67.11,1-.13Zm-3.72,9.14h4.23s.09-.06.22-.15l-.68-.68L135,24h-1.19c-.46,0-.91,0-1.36,0s-.79-.12-1.17.12Zm58.07-8.94.63.63.07,1.43h1c.34,0,.68,0,1,0s.67.12,1-.13V17c-.07-.07-.12-.14-.16-.14h-3.4s-.08.07-.13.1Zm-179-7.9h5.6l.36-.71c.11-.21.48-.26.42-.64H11.37l-1.12.79ZM6.58,16.82H3.26s-.09.06-.18.12L3,18.05a.76.76,0,0,0-.18,1.13H6.5l-.34-.51V17.34ZM56.84,7.88H52.07s-.09.05-.16.1l-.43.46c.09.28-.1.59.15.77h6C57.78,8.49,57.1,8.3,56.84,7.88Zm86.93,0H139c-.29.33-.69.56-.89,1l.1.34a1.11,1.11,0,0,0,.3.08h5.62s.08-.07.15-.13V8.37ZM189.43,22c-.31.63.2.76.42,1h2.89a.48.48,0,0,0,.17,0c.05,0,.08-.07.18-.16,0-.34,0-.73,0-1.12s.19-.79-.16-1.12H190.2s-.09.06-.18.13c-.16.36.19.86-.19,1.24ZM2.71,20.63v.82l.23.25c.23.49,0,.91.27,1.3.7,0,1.43,0,2.16,0,.26,0,.57.11.77-.18,0-.51,0-1,0-1.53A1.25,1.25,0,0,1,6.28,21c0-.08.36-.1.06-.32Zm7.53,10.08c.28.26.57.6.91.88,1.82,0,3.63,0,5.44,0,.06,0,.11-.14.17-.22l-.59-.23L16,30.22H10.48s-.08.06-.13.09Zm142-10.11h-2.91s-.08.07-.18.16c0,.34,0,.73,0,1.12s-.19.79.16,1.12h3.07s.09-.06.2-.15,0-.38,0-.6-.4-.37-.34-.71A7.3,7.3,0,0,0,152.19,20.6Zm.27-3.78h-3.17s-.08.07-.19.16c0,.33,0,.72,0,1.11s-.18.79.16,1.13H152s.09-.06.17-.13l.06-1.1C152.66,17.71,152.55,17.32,152.46,16.82ZM43.26,22.15c0,.22,0,.45,0,.68,0,0,.08.08.18.17.5,0,1.06,0,1.62,0a5.21,5.21,0,0,0,1.63-.09c0-.76,0-1.44,0-2.12,0,0-.07-.09-.16-.19-.84,0-1.74,0-2.64,0-.1,0-.19.1-.28.15v1ZM46.66,17c-.07-.07-.11-.14-.15-.14H43.44s-.08.07-.12.11c-.24.48.06.83.31,1.25v.92c.35.22.69.1,1,.12a8.68,8.68,0,0,0,1,0c.33,0,.67.11,1-.13ZM185.54,8.83a4.7,4.7,0,0,0-.89-1h-5c-.1,0-.19.09-.29.13.11.18.28.35.3.54s.35.42.48.66h5.27ZM178,33l-.76,1.32h5.23l1-.82-.16-.5Zm-30.65,0v.83l1,.51H153c.09,0,.18-.11.27-.17v-.69l-.51-.48ZM17.65,33H12.5s-.08.08-.12.13c.31.4.31,1,.89,1.24h5c.08,0,.16-.12.24-.18C18.11,33.85,18.16,33.21,17.65,33Zm167.81-2.64a26.21,26.21,0,0,0-5.38,0l-.4.44c0,.3-.11.61.18.81,1.53,0,3.06,0,4.59,0,.1,0,.2-.05-.08,0l1.19-.85C185.51,30.54,185.49,30.43,185.46,30.33ZM153.16,5.59a27.3,27.3,0,0,0-5.38,0l-.41.44c.06.31-.11.61.18.82h4.59c.11,0,.21,0,0,0L153.25,6C153.2,5.8,153.18,5.69,153.16,5.59Zm25,1.26h5.12c.05,0,.09-.06.14-.09a2.19,2.19,0,0,0-.81-1.28h-4.76s-.08.07-.16.13v.73ZM12.36,6.75a24.27,24.27,0,0,0,5.45,0l.37-.42,0-.69A2.35,2.35,0,0,0,17,5.48c-.45,0-.91,0-1.36,0s-.79,0-1.19,0A4.1,4.1,0,0,0,13,5.57Zm26.74,14C39,20.67,39,20.6,39,20.6H35.89s-.09.07-.13.11l0,.23.64.63L36.42,23c.48,0,.92,0,1.36,0s.9.14,1.32-.11Zm0-3.92c-.8,0-1.58,0-2.36,0a1.18,1.18,0,0,0-.35.13v1c-.27.43-.91.55-.62,1.16a3,3,0,0,0,1.16.08,8.68,8.68,0,0,0,1,0c.38,0,.79.14,1.15-.13Zm153.51-1.06c.06-.08.13-.12.13-.16,0-.45,0-.9,0-1.35l-1-.52h-2.53c-.09,0-.17.11-.26.17,0,.22,0,.45,0,.67l.35.37v.33l.48.49ZM3.79,26.1H6.63s.08-.06.16-.12V24.52L6.32,24H3.25s-.08.06-.13.09c-.07.32-.19.64.07.9l.5.1Zm1,2.18c.07.31-.11.61.18.91H7.58c.09,0,.18-.1.29-.17,0-.48,0-1,0-1.38l-.49-.5h-3c-.09,0-.18.11-.27.16,0,.27-.11.56.09.8ZM46.18,15.79s.11-.08.11-.12c0-.5,0-1,0-1.64-.44.28-.57-.13-.84-.3H42.74s-.08.08-.19.19c.16.22-.18.58.14.79l.52.13.11.95Zm2.2,17.31c-.08-.06-.12-.13-.17-.13H43.8s-.09.07-.24.19L43,34.22c.09.06.13.12.18.12h4.3l1-.48ZM150.62,9.26c.52-.41.66-.79.48-1.27a18.39,18.39,0,0,0-4.72,0l-.38.42,0,.67c.08.08.13.14.17.14ZM48.41,6.83V6l-.52-.51c-1.43,0-2.9,0-4.37,0-.09,0-.17.11-.26.17v.69l.49.49Zm101.92,6.9a1.21,1.21,0,0,1-.25.21c-.19.1-.39.17-.63.27a5.62,5.62,0,0,0,.08,1.58h2.81s.09-.06.13-.1l.16-.88.53-.11c.05-.36.21-.7-.11-1Zm12.2-6.88h4.92s.09-.06.17-.12a1.25,1.25,0,0,0,0-.43c-.06-.14-.21-.25-.29-.39a2.35,2.35,0,0,1-.13-.43h-4.13c-.05,0-.09.06-.17.12l-.4.43ZM118.66,33h-3.57a1,1,0,0,0-.29.11c-.08.19-.15.39-.24.58s-.45.28-.45.6a23.39,23.39,0,0,0,5.41-.06v-.76C119.21,33.29,118.86,33.26,118.66,33ZM49.73,7.88H44.82s-.08.07-.19.16a4.59,4.59,0,0,1,.53.55,3.76,3.76,0,0,1,.34.66H50s.08-.07.12-.11C50.34,8.63,49.65,8.42,49.73,7.88ZM189,26.1h2.83l.86-.86a2.44,2.44,0,0,0-.09-1.16h-3.21s-.08.08-.11.11l.42.55-.78.89ZM33.12,6.85c.31-.27.16-.6.11-.93l-.47-.44H28.61a1.77,1.77,0,0,1-.21.57c-.18.23-.39.41-.18.71.05,0,.09.09.13.09ZM76.21,34.21a28.67,28.67,0,0,0,5.48,0l-.26-.48c0-.42.4-.42.2-.74H77.06a3.11,3.11,0,0,1-.26.61A6.59,6.59,0,0,1,76.21,34.21Zm74.1-4h-4.09s-.09.06-.17.12v.78l.43.44h4.63l0-.47Zm-97.8-13.4c-.55,0-.95,0-1.35,0a3.4,3.4,0,0,0-1.37.11c0,.4,0,.79,0,1.18s-.19.79.17,1.11c.41,0,.81,0,1.2,0s.9.12,1.35-.1ZM50,29.16l-.54-.92c0-.31.14-.71-.12-1.09H46.89l-.54.48v1c0,.24-.46.26-.21.55Zm93.29-8.53v2.19s.07.08.17.18c.39,0,.84,0,1.28,0s.9.14,1.3-.16c0-.69,0-1.38,0-2.06,0,0-.07-.08-.13-.15ZM146,16.82h-2.54s-.08.07-.18.16a10.57,10.57,0,0,0,0,1.12c0,.38-.19.8.16,1.12.8,0,1.6,0,2.4,0,0,0,.08-.07.15-.14ZM49.79,20.63c0,.49,0,.83,0,1.17s-.12.78.14,1.2c.42,0,.87,0,1.31,0s.9.14,1.3-.16c0-.35,0-.7,0-1s.12-.78-.12-1.17Zm99.93,8.46a3.79,3.79,0,0,1-.26-.68,3.12,3.12,0,0,1,0-.66l-.49-.62H146.7a1.26,1.26,0,0,0-.35.14v1a3.13,3.13,0,0,0-.33.52c0,.08,0,.2.06.31s.08.09.12.09q1.7,0,3.39,0S149.68,29.12,149.72,29.09ZM28.48,34.34h4.09l.74-.46L33.26,33H29.18a1.78,1.78,0,0,0-1,.12,2,2,0,0,1,.3.5A3.59,3.59,0,0,1,28.48,34.34ZM160.1,17s-.08-.12-.12-.12h-2.59V18c-.26.26-.47.46-.67.67,0,0,0,.1-.06.14l.06.32c1.92.19,3.14.18,3.36,0l-.33-.38c0-.36,0-.76,0-1.16a.88.88,0,0,1,.1-.3Zm7.5,16.1s-.08-.12-.12-.12h-4.6a1.53,1.53,0,0,0-.34.1v.79l.48.48h4.09s.08-.06.22-.15A1.34,1.34,0,0,1,167.6,33.09ZM81.23,6.85c.23-.15.13-.4.18-.6a4.93,4.93,0,0,1,.27-.67c-.06,0-.1-.1-.15-.1H76.44s-.08.07-.21.17a2.6,2.6,0,0,1,.88,1.2Zm75.44,14.33.67.55c.06.47-.12.87.16,1.27.36,0,.76,0,1.14,0s.79.18,1.11-.17c0-.51,0-1,0-1.53a1,1,0,0,1,.11-.32c0-.1.36-.11.1-.34h-3.18s-.08.08-.12.12ZM114.79,6.85h3.74l1-.87c0-.2-.07-.3-.1-.41s-.09-.09-.13-.09h-5.1s-.08.07-.13.1c0,.49.51,0,.6.5Zm13,10c0,.82,0,1.51,0,2.19,0,0,.07.08.16.18.84,0,1.75,0,2.65,0,.09,0,.18-.1.3-.18-.11-.24.11-.54-.12-.78l-.58-.2c-.05-.42.11-.83-.14-1.21ZM49.63,30.22h-4.1c-.05,0-.09.06-.15.1l-.15.89c-.24.08-.51-.07-.56.38h5a2.64,2.64,0,0,1,.1-.53,1.48,1.48,0,0,1,.28-.33Zm80.57-8.51.73-.6-.15-.47h-3c0,.41,0,.8,0,1.18s-.14.79.15,1.18c.65,0,1.32,0,2,0,.09,0,.18-.12.26-.18ZM82.48,31.59c1.45,0,2.76,0,4.07,0a1,1,0,0,0,.3-.11,1.77,1.77,0,0,0-.11-1.26H82.29c-.05,0-.09.07-.13.11C81.85,30.83,82.59,31,82.48,31.59ZM42.53,25.88l.09.22h2.87l.89-.89c-.14-.34.12-.75-.18-1.18H43.52c-.09,0-.18.12-.27.18v1.31Zm110.57.19.23-.26-.77-.52c-.09-.49.15-.91-.19-1.26h-2.74s-.08.07-.15.13V25l.76,1.08ZM5.72,15.77,6.8,15V13.73H4.05c-.09,0-.19.09-.28.14L3.7,15l-.7.24.6.53ZM41.54,29c.16.23.39.17.61.17h2.23a.35.35,0,0,0,.14-.06l-.07-.08.89-.69c-.09-.48.16-.9-.19-1.23H43l-.78.44,0,.79Zm150.14-1.89h-2.54l-.85.85c.3.46-.83.65-.23,1.17H191l.15-.94.58-.12Zm-40.35,2.06h2.75s.08-.15.12-.22l-.63-.62v-.71l-.52-.47h-2.46a2.32,2.32,0,0,0-.1,1.15Zm-41.66,2.4c1.35,0,2.6,0,3.84,0,0,0,.09-.07.15-.11a1.89,1.89,0,0,0-.1-1.26h-4.44c-.07,0-.13.13-.18.17.22.26.44.51.64.78A1.85,1.85,0,0,1,109.67,31.59ZM82.13,9.14a1.05,1.05,0,0,0,.31.11h4.42v-.9l-.43-.44h-3.6Zm26.82,0a17.56,17.56,0,0,0,4.71,0,1.81,1.81,0,0,0-.11-1.25h-3.78s-.08.06-.12.1l-.17.9C109.24,9,109,8.78,109,9.15Zm8.85,18h-2.2s-.08.07-.12.11c-.21.4.18.9-.19,1.23l-.52.1v.48c.07.07.11.13.15.13h3.39s.09-.06.19-.14l-.7-.79Zm33.46-16.5c.09.64-.53.17-.74.48a1.78,1.78,0,0,0,.12,1.24h2.73s.09-.07.13-.1l.18-.55.59-.12c0-.3,0-.57-.08-.83,0-.05-.07-.08-.11-.12Zm-109,1.6a1.94,1.94,0,0,0,.43.11c.8,0,1.59,0,2.38,0,.09,0,.18-.1.31-.18-.13-.35.1-.76-.1-1.06l-.92-.47H41.82c-.1,0-.19.1-.28.16.05.26-.11.56.11.8l.58.19ZM68,16.82c-.4,0-.79,0-1.18,0s-.78-.12-1.17.12v2.28c.41,0,.8,0,1.18,0s.79.12,1.17-.12ZM65.62,23c.49,0,.84,0,1.18,0s.78.12,1.2-.14a10.88,10.88,0,0,0,0-1.14c0-.38.2-.8-.17-1.12-.34,0-.68,0-1,0s-.79-.12-1.18.12Zm11.72,6.09c.06,0,.1.1.14.1h3.39s.09-.06.19-.16L81,28.54l-.55-.11c0-.43-.07-.81-.11-1.19,0,0-.08-.07-.12-.11h-2s-.09.07-.18.15v1C77.74,28.62,77.41,28.75,77.34,29.09Zm-31-16.87c.08.06.12.13.16.13h2.73c.16-.54.74-1,.44-1.63a2.79,2.79,0,0,0-1.15-.08,7.08,7.08,0,0,0-1,0c-.38,0-.78-.14-1.15.12Zm103-1.45c-.07-.06-.11-.13-.15-.13h-3.07s-.08.07-.12.1c0,.61,0,.61.48,1.61h2.56a.26.26,0,0,0,.3-.14Zm-72-1.51h3.28a1.14,1.14,0,0,0,.3-.09c-.08-.45.64-.65.36-1.16,0,0-.09-.11-.13-.11H77.14S77.05,8,77,8a1.31,1.31,0,0,0,0,.44c.05.14.21.25.28.39A2.16,2.16,0,0,1,77.41,9.26Zm5-2.58c.33.35.75.13,1.12.17s.68,0,1,0a11.78,11.78,0,0,0,1.19,0c.38,0,.79.18,1.13-.15L86.26,6l-.15-.54h-.7c-.91,0-1.81,0-2.72,0-.09,0-.17.11-.26.17Zm0,27.56a11.57,11.57,0,0,0,3.68,0c.08-.19.15-.39.24-.58s.46-.27.45-.58c-.07,0-.12-.1-.16-.1H82.77a.47.47,0,0,0-.17,0s-.08.08-.13.13Zm-1.46-4H77.48s-.09.07-.21.16a1.42,1.42,0,0,1-.38,1.21c1.62,0,3.14,0,4.65,0,.06,0,.11-.14.18-.22l-.62-.24Zm28.6-23.51c.07.07.12.14.16.14h3.75s.08-.07.12-.11a.59.59,0,0,0,.06-.14.25.25,0,0,0,0-.17c-.17-.32-.35-.64-.53-.95H110.1c-.12,0-.23,0-.34,0s-.08.08-.15.15Zm8.8,2.55a2.64,2.64,0,0,1,.29-.68.46.46,0,0,0,.09-.59,13.18,13.18,0,0,0-4,0,1.75,1.75,0,0,0,.12,1.25Zm-3.71,1.4c.1.41-.08.71.15.95l.54.18.11.53h2.25l.13-.61.68-.56-.14-.49ZM81,10.67H77.39c-.17.26-.16.46,0,.63a2,2,0,0,1,.71,1h2s.08-.07.12-.1l.19-.55.54-.11ZM7.35,12.35c.22-.22.41-.33.45-.47a1.56,1.56,0,0,0-.1-1.25H5.31s-.08.06-.17.12l-.36.4c0,.34.11.65-.18.84s-.46-.13-.46.24c.05,0,.09.11.14.11ZM118.4,30.22h-3.15a1.93,1.93,0,0,0-.34,0s-.08.07-.14.15v1.08c.07.06.11.13.15.13q1.88,0,3.75,0s.08-.07.17-.14C118.35,31.2,118.61,30.7,118.4,30.22Zm-8.79,4a2.44,2.44,0,0,0,1.19.11c.45,0,.91,0,1.36,0s.78.12,1.2-.14a2.58,2.58,0,0,1,0-.62,2,2,0,0,1,.32-.51,3.91,3.91,0,0,0-1.39-.1,10.29,10.29,0,0,0-1.36,0c-.43,0-.89-.14-1.33.1Zm78.46-23.6c-.45.71.26,1.15.39,1.72h3.07s.08-.07.13-.12-.07-.19-.13-.21a2.21,2.21,0,0,0-.46-.08l-.07-.73-.46-.58Zm-49-4c.16.15.2.22.24.22h4.11s.08-.08.18-.18c-.48-.27-.33-1-.79-1.14H139.6s-.08.08-.12.12l.45.48ZM80.37,18.7c0-.44,0-.9,0-1.35,0,0,.06-.08.11-.14s.36-.13.05-.39a10.57,10.57,0,0,0-1.12,0c-.37,0-.79-.19-1.11.16v2s.07.08.13.16h2.14s.08-.07.13-.12ZM52.43,6.7a2.38,2.38,0,0,0,.54.15l3.56,0s.08-.08.12-.12l-.33-.36c-.06-.26.11-.56-.15-.83H53c-.08.21-.13.41-.22.6S52.57,6.46,52.43,6.7ZM115.1,19.08c.08.07.12.14.16.14q1,0,2,0s.08-.07.19-.16c0-.33,0-.73,0-1.11s.18-.79-.16-1.13h-1.7s-.08.07-.18.14v1.7ZM52.88,34.34h3.24s.08-.06.13-.1c.16-.37-.1-.87.38-1.13-.07-.07-.11-.14-.15-.14H52.74s-.09.06-.17.13a1.84,1.84,0,0,1,.3.48A3.67,3.67,0,0,1,52.88,34.34ZM115.42,20.6V23c.38,0,.71,0,1,0s.67.11,1-.13V20.74c-.08-.07-.12-.14-.16-.14Zm-35,.17s-.08-.12-.12-.12H78.31c0,.39,0,.77,0,1.16s-.12.78.12,1.16h1.8c.07-.07.14-.11.14-.15Zm62.89,13.06c-.06-.27.12-.57-.17-.86h-3.65c-.09,0-.18.09-.42.21a5.48,5.48,0,0,0,.57.4c.31.15.14.52.36.73h2.81Zm-98.9-3.61h-1.3c-.45,0-.9,0-1.35,0a2.09,2.09,0,0,0-1.23.15c.19.4-.11.73-.25,1.12.37.2.76.07,1.15.09a8.51,8.51,0,0,0,1,0c.38,0,.78.11,1.14-.09,0-.11,0-.24.08-.32C43.81,30.9,44,30.63,44.36,30.22Zm-3.72-21h3.44c.06,0,.11-.13.18-.22l-.6-.23-.17-.92H40.37s-.09.06-.16.11a1.31,1.31,0,0,0,0,.44c.05.14.21.25.28.39A2.16,2.16,0,0,1,40.64,9.26ZM67.94,24H65.79s-.09.06-.2.15c0,.28,0,.61,0,.94s-.15.68.17,1h1.68s.09-.06.13-.09c.22-.27-.1-.67.23-.93S68,24.47,67.94,24Zm62.23,0h-2a1,1,0,0,0-.29.11,1.16,1.16,0,0,0,.1.94,3.06,3.06,0,0,1,.32,1c.35,0,.64,0,.92,0s.67.12,1-.13Zm-14.75-8.28a7.14,7.14,0,0,0,1.6,0,13.47,13.47,0,0,0,.81-1.36c0-.21.09-.45-.11-.6H115.2s-.08.07-.12.11l.34.37Zm-35,0c0-.54,0-.94,0-1.33a1.11,1.11,0,0,1,.12-.35c-.07-.09.38-.08,0-.35H78.25c-.09,0-.18.1-.28.16,0,.22-.1.55,0,.65.38.34.29,1,.84,1.22Zm-12.74-2H65.78s-.08.07-.19.16c0,.27,0,.61,0,.94s-.16.68.17,1h2s.08-.06.08-.06c.38-.45-.17-.59-.25-1ZM118,26.07l-.54-.93c0-.3.14-.71-.11-1.07h-1.81a1.6,1.6,0,0,0-.12,1c0,.33-.11.67.13,1Zm39.51-2c-.2.61-.24.64,0,1a1.3,1.3,0,0,1,.16.62,2.58,2.58,0,0,0,.13.42h1.4s.08-.08.14-.15l.08-.73c.22-.37.86-.48.58-1.08-.06,0-.1-.09-.14-.09ZM78.34,25.21c-.28.27-.51.46-.24.89.31,0,.69,0,1.08,0s.78.12,1.19-.14a7.91,7.91,0,0,0,0-1c0-.32.18-.68-.16-.95H78.49s-.08.07-.15.13ZM130.2,13.9s-.08-.12-.12-.12c-.56,0-1.12,0-1.68,0-.09,0-.17.11-.26.17v1l-.37.39.11.44h2.19c.06-.07.13-.11.13-.15Zm21.42,16.34c.67.42.52,1.11,1.08,1.3h2.81s.08-.08.12-.11l-.34-.36c-.06-.27.12-.57-.15-.83ZM52.51,24.17c-.09-.07-.13-.13-.17-.13H50s-.09.07-.13.1c-.06.32-.19.64.07.89l.48.1.19,1c.43-.17.83.08,1.21-.18,0-.56.56-.74.75-1.18ZM152.22,9.26h2.7a1.14,1.14,0,0,0,.3-.09c-.08-.45.64-.65.35-1.17-.18-.21-.42-.09-.63-.1s-.56,0-.85,0-.45,0-.67,0-.56-.1-.82.09l-.42.46ZM144,26.11c.5-.06.9.1,1.26-.12l.16-.89L146,25v-.81c-.07-.07-.11-.14-.15-.14h-2.38s-.08.06-.21.17c.15.23-.16.58.15.82l.51.1ZM7.09,7.9l-1,.85.13.48H9l.62-.5c-.14-.27.09-.58-.2-.83Zm179.13,0v.84l.48.46h2.83s.07-.08.12-.12V8.73l-.87-.82Zm3.4,22.31h-2.39l-1,.87c.05.2.07.3.1.41s.08.09.13.09c.9,0,1.8,0,2.54,0l.71-.46Zm-3,4.1,1-.83-.14-.49h-2.37l-1,.52c.13.25-.11.56.19.8ZM10.77,33H8.41c-.05,0-.09.07-.13.1l-.1.4,1.05.87h2.23s.08-.07.15-.13v-.76C11.32,33.27,11,33.29,10.77,33Zm-4.6-1.85c.31.16.66.18.85.47.79,0,1.58,0,2.37,0,0,0,.08-.07.12-.1l.09-.4-1-.87H6.32s-.08.07-.15.15ZM157.44,15.79h1.8c.15,0,.31,0,.37,0,.42-.5-.18-.61-.23-.92v-1a4.14,4.14,0,0,0-1.35-.09.29.29,0,0,0-.16,0c-.05,0-.09.07-.18.17v1a3.13,3.13,0,0,0-.33.52C157.33,15.46,157.39,15.58,157.44,15.79ZM187.6,6.43a4.53,4.53,0,0,0-.87-.93h-2.42c-.05,0-.09.08-.13.12s0,.22,0,0l.74,1.17h2.57ZM8.27,6.85h2.51l.73-.73c.2-.19.19-.38,0-.61H9.21l-1,.79ZM97.49,37.26a92.1,92.1,0,0,0-10.87,0s0,.08,0,.12C88.27,37.48,96,37.47,97.49,37.26ZM86.35,2.51a3.07,3.07,0,0,0,1.58.21c.46,0,.92,0,1.37,0h7c.81,0,.81,0,1.17-.23C96,2.35,88.33,2.34,86.35,2.51ZM146,15.25l-.68-.31c-.06-.41.12-.81-.13-1.17-.43,0-.86-.16-1.25.12,0,.4.12.8-.12,1.16l-.61.2.12.48h2.55s.09-.07.12-.1ZM52,15.1c-.46-.37.13-1-.35-1.37-.38,0-.78-.12-1.14.1-.22.41.18.91-.19,1.24l-.52.1v.48c.07.07.11.13.16.13h2.37s.08-.07.19-.16l-.1-.52ZM153.6,23c.6,0,1.05,0,1.5,0,0,0,.08-.07.16-.13V21.8l-.64-.29-.05-.8c-1.14-.14-1.14-.14-1.3,0-.2.47.08.82.33,1.24Zm1.52,1c-.47,0-.92,0-1.38,0-.06,0-.15.16-.16.26a4.44,4.44,0,0,0,0,.63l.65.23.1.95A8.59,8.59,0,0,0,156,26l-.43-.59.39-.53Zm.22,5.16h1.49s.08-.07.12-.12l-.35-.63L157,28l-.94-.84h-1.25s-.09.06-.24.15c.15.24-.16.58.15.84l.51.1Zm-57-26.68a3.12,3.12,0,0,0,1.59.21c.45,0,.91,0,1.37,0H108c.8,0,.8,0,1.18-.23C107.73,2.35,100.38,2.34,98.37,2.51ZM41.2,21.6l-.7.53c.06.31-.11.62.14.84h1.47c.21-.4.07-.79.12-1.17l.34-.36c-.06-.27.12-.57-.13-.81-.42,0-.86-.15-1.24.13Zm68,15.49h-8.87c-1.33,0-1.33,0-1.68.23A69.35,69.35,0,0,0,109.19,37.09ZM97.5,3.76H88.29c-1,0-1,0-1.33.23C88.55,4.14,95.93,4.14,97.5,3.76ZM36.38,25l.63.54.16.55H38l.47-.51A6.47,6.47,0,0,0,38.36,24H36.64c-.09,0-.17.12-.26.18Zm4.82-7c0,.43,0,.77,0,1.11,0,0,.08.07.15.13a1.79,1.79,0,0,0,1.22-.11v-.7L42.23,18c0-.38.12-.78-.17-1.21-.49.11-1-.13-1.56.15.07.31-.11.6.12.84ZM108.84,3.76h-8.7c-1.18,0-1.18,0-1.49.23A65.32,65.32,0,0,0,108.84,3.76ZM154.6,18l.69-.32c-.06-.28.12-.58-.17-.86a5.1,5.1,0,0,0-1.55.09V18l-.35.37c.07.26-.11.56.14.81.41,0,.85.15,1.24-.13ZM97.49,35.55a81.11,81.11,0,0,0-10.18-.06s0,.08,0,.12A96.09,96.09,0,0,0,97.49,35.55Zm11,0a75.78,75.78,0,0,0-9.84-.06s0,.08,0,.12A89.77,89.77,0,0,0,108.49,35.55ZM47.89,15.79c.27-.06.57.11.81-.12l.15-.87.56-.12v-.83c-.27-.23-.56-.12-.83-.12a2.26,2.26,0,0,0-1.17.11v1.45ZM156,13.73H154.6a.48.48,0,0,0-.17,0c-.05,0-.08.08-.18.18V15l-.67.24,0,.59c.53,0,1,0,1.36,0l1-.82-.37-.52Zm-9.64.87.68.31c.07.3-.11.6.15.85h.76l.51-.54c-.17-.47.12-1-.15-1.49h-1.69c-.09,0-.17.12-.26.18ZM38.41,14.28,38,13.72c-.43.06-.84-.14-1.22.16.17.2.44.37.33.7l-.7.74.14.47h1.75s.08-.06.16-.12Zm11.1,19.13c-.08.24-.13.39-.19.54s-.33.18,0,.39H52s.09-.06.23-.15a5.6,5.6,0,0,1-.54-.55,6.89,6.89,0,0,1-.34-.66H49.94Zm16.43-5.07c.06.26-.12.56.11.79.32,0,.65.21.92-.12.06-.26-.12-.56.11-.79l.59-.2c-.07-.31.11-.6-.18-.89H65.87c-.09,0-.18.11-.27.17V28Zm108.29,7.25c-.13-.13-.17-.21-.21-.21h-6.53c-.14.21-.44.3-.44.6a1.05,1.05,0,0,0,1.17-.22h4.07l.36.27h1.1l-.11-.15Zm-44.37-7.26.34-.36c-.06-.27.12-.57-.17-.84-.51,0-1.07,0-1.63,0-.09,0-.17.11-.26.16.06.27-.12.56.11.8l.56.19c.08.31-.1.61.13.85.74.11.77.05.92-.13ZM47.9,24l-.49.49-.07,1.31s-.45,0-.13.27h2c.09,0,.17-.11.34-.24l-.74-.55c-.09-.51.16-.93-.19-1.27Zm101,2-.48-.51v-1l-.49-.5c-.27,0-.56-.11-.87.16v1.1c-.17.29-.61.34-.61.76ZM40.53,15.79h1.52c.05,0,.08-.07.13-.11.09-.23.08-.43-.07-.52L41.57,15l-.07-1.23H40.34l-.61.53.8.6ZM40.29,26.1c.44-.05.83.11,1.19-.12l.15-.87L42.2,25V24H40.69s-.08.07-.18.16v1C40.25,25.47,40,25.66,40.29,26.1Zm15.62,9.4c.17.15.21.21.25.21H63l.37.34h.33c.14-.2.43-.29.45-.6A77.52,77.52,0,0,0,55.91,35.5Zm76.91.22h5.29c1.35,0,1.35,0,1.65-.24,0,0-.08-.1-.13-.1q-3.91,0-7.85,0c-.05,0-.11.13-.19.24.28.08.33.47.78.44ZM41.35,5.48h-1c-.11.22-.22.46-.34.69s-.45.28-.45.59c.27.18.56.07.83.09a8.51,8.51,0,0,0,1,0c.26,0,.55.12.82-.13V6C41.9,5.78,41.54,5.79,41.35,5.48ZM42.16,33H39.65s-.08.08-.22.22l.66.42.15.7h.87l1.13-.79Zm9.62-27.4c-.25-.19-.54-.06-.81-.09a3.75,3.75,0,0,0-.67,0c-.27,0-.56-.11-.83.13v.7l.47.54c.27,0,.49,0,.72,0s.56.12.87-.18C51.33,6.28,51.65,6,51.78,5.57ZM69.21,35.72h4.42l.52.39a1.29,1.29,0,0,0,.64-.73c-2.2,0-4.36,0-6.53,0-.08,0-.17.12-.28.2.31.13.41.58.87.48Zm-28.7-7.41L41.2,28c-.06-.3.12-.6-.16-.85h-.82c-.14.17-.35.43-.58.68s-.15.65-.48.85c-.06,0,0,.3,0,.45,1.14.08,1.14.08,1.32-.1ZM145.11,33l-.84.48c.06.39-.1.69.19.89h2c.05,0,.09-.06.14-.09a2.36,2.36,0,0,0-.79-1.28Zm-5.35-29a46.71,46.71,0,0,0-7.79,0S132,4,132,4A54,54,0,0,0,139.76,3.92Zm-75.94,0a46.72,46.72,0,0,0-7.79,0S56,4,56,4A54.18,54.18,0,0,0,63.82,3.92Zm90.83,8.31s.08.11.12.12h1.73l.46-.49c-.07-.23-.43-.35-.3-.69.34-.37.34-.37.21-.5h-1.11l-.4.42c-.15.37.06.68-.22.89S154.68,11.9,154.65,12.23ZM122.13,35.72h4.42l.52.39a1.29,1.29,0,0,0,.64-.73c-2.08,0-4.13,0-6.18,0-.09,0-.17.12-.26.18l.5.49Zm-1.27,1.54a38.75,38.75,0,0,0-7.1,0s0,.07,0,.11A46.32,46.32,0,0,0,120.86,37.26ZM82,37.26a40.06,40.06,0,0,0-7.1,0,.47.47,0,0,0,0,.12A45.42,45.42,0,0,0,82,37.26Zm69.66-1.54h1l.36.33h.7c.06-.43.73-.12.73-.67-1.48,0-3,0-4.44,0-.09,0-.17.12-.25.18l.49.49h1ZM133.35,2.55a42.55,42.55,0,0,0,7.09.07s0-.08,0-.12A47.07,47.07,0,0,0,133.35,2.55ZM47.72,20.63c0,.83,0,1.51,0,2.19,0,0,.07.08.11.12.31,0,.65.21.92-.11,0-.69,0-1.37,0-2,0,0-.07-.08-.13-.15ZM120.86,2.55a42.2,42.2,0,0,0-7.1,0l0,.12A44.77,44.77,0,0,0,120.86,2.55Zm-45.93,0A42.55,42.55,0,0,0,82,2.62s0-.07,0-.12A47.09,47.09,0,0,0,74.93,2.55Zm-19.58,0a40.35,40.35,0,0,0,7.08.07s0-.08,0-.12A46.87,46.87,0,0,0,55.35,2.55ZM148.07,23V20.79c0-.05-.07-.09-.11-.13-.32-.05-.65-.2-.92.11v2.05s.07.08.14.15Zm0-3.78V17s-.07-.09-.11-.13A1.28,1.28,0,0,0,147,17v2s.07.09.13.16Zm-99.31,0c0-.82,0-1.5,0-2.18,0,0-.07-.09-.1-.13a1.3,1.3,0,0,0-.93.11c0,.68,0,1.36,0,2,0,0,.07.09.13.16ZM160.42,5.48h-.73a7.2,7.2,0,0,0-.65.35,2.87,2.87,0,0,0-.64.51c-.11.12-.46.17-.25.47H160l.44-.47ZM68.06,3.93A37.42,37.42,0,0,0,74.81,4s0-.07,0-.11A41.37,41.37,0,0,0,68.06,3.93Zm65.29,33.34a34.21,34.21,0,0,0,6.76,0s0-.07,0-.11A42,42,0,0,0,133.35,37.27ZM40.51,11.15,40,10.66a2.39,2.39,0,0,0-1.18.07l.81,1.59h1.4s.08-.07.15-.13l-.69-.33ZM144.43,5.48l-.19.48,1,.88h.64l.46-.46V5.59c-.08,0-.13-.11-.17-.11ZM62.5,37.27c0-.05-.08-.12-.12-.12H55.75s-.08.07-.12.12.08.11.12.11h6.63S62.46,37.31,62.5,37.27ZM167,3.93a37.43,37.43,0,0,0,6.75.06s0-.07,0-.11A41.39,41.39,0,0,0,167,3.93ZM46,35.59c-.13-.13-.17-.21-.21-.21-1.37,0-2.74,0-4.12,0,0,0-.08.08,0,0l.43.67c.24,0,.55.05.67-.07.43-.44.92-.26,1.36-.25l.34.26h1.1l-.11-.15ZM35.82,6.85h1.77s.08-.08.17-.17A3.29,3.29,0,0,0,37.07,6c-.47-.24-.89-.65-1.49-.53-.08,0-.15.13-.26.23a3.89,3.89,0,0,0,.19.42c.05.1.14.17.18.27A4.29,4.29,0,0,1,35.82,6.85Zm9.9-4.3a33,33,0,0,0,6.4.07s0-.08,0-.12A38.38,38.38,0,0,0,45.72,2.55Zm0,34.71a32.08,32.08,0,0,0,6.41.06s0-.07,0-.11A37.17,37.17,0,0,0,45.72,37.26Zm-17-33.34a32.14,32.14,0,0,0-6.41,0s0,.08,0,.12A36.61,36.61,0,0,0,28.76,3.92ZM150.07,2.56a32.78,32.78,0,0,0-6.41-.06.47.47,0,0,0,0,.12A38.08,38.08,0,0,0,150.07,2.56Zm6.24,4.12c-.3-.35-.76-.62-.77-1.17h-.88L154,6.73c.06,0,.1.12.14.12h2.06S156.24,6.76,156.31,6.68ZM143.66,37.26a34.69,34.69,0,0,0,6.4.07s0-.08,0-.12A38.44,38.44,0,0,0,143.66,37.26Zm12.62-4.15c-.06-.07-.1-.14-.14-.14h-1.68s-.08.06-.17.12v.78l.47.46c.26,0,.55.1.82-.1C155.53,33.7,156.08,33.51,156.28,33.11ZM127.73,3.93a28.32,28.32,0,0,0-6.06-.05s0,.08,0,.12A33.93,33.93,0,0,0,127.73,3.93Zm1.27,6.7c-.23.16-.16.39-.18.61s.11.56-.16.76-.46-.12-.46.25a2.22,2.22,0,0,0,1.14.09c.27,0,.56.12.84-.13l-.3-.37c-.16-.35.2-.85-.2-1.21ZM67,11.92c0-.46.09-.86-.11-1.22-.32-.06-.65-.2-.93.1,0,.38.09.77-.11,1.17,0,.09-.36.1-.11.34h1.81s.08-.07.15-.15Zm53.19-8a30.06,30.06,0,0,0-6.06-.06.47.47,0,0,0,0,.12A34.12,34.12,0,0,0,120.17,3.93ZM35.35,33.49c.06.26-.12.56.15.83h.74l1.13-1.14s0-.08,0-.12S37.24,33,37.2,33H35.87ZM159.93,33h-1.38s-.08.08-.05.06l1.31,1.32.51,0a1.2,1.2,0,0,0,.09-.86Zm-84-29a25.62,25.62,0,0,0,5.73,0s0-.08,0-.12A30.16,30.16,0,0,0,76,3.94ZM175.9,35.55c.11.09.15.16.19.16h2l.36.34h.68l.35-.33c.26-.13.66.23.77-.26a1.14,1.14,0,0,0-.3-.09q-2,0-3.9,0S176,35.45,175.9,35.55Zm-56.07,0a23,23,0,0,0-5.38-.06.47.47,0,0,0,0,.12A26.82,26.82,0,0,0,119.83,35.55Zm-38.49,0A22.89,22.89,0,0,0,76,35.49s0,.08,0,.12A26.85,26.85,0,0,0,81.34,35.55Zm-33.79.17h4.78l.41.32c.2-.24.2-.43,0-.61H47.85C47.8,35.43,47.76,35.51,47.55,35.72Zm-32.12-.18c.23.31.58.12.84.18l.36.34h.68l.37-.34c1.88,0,1.88,0,2.24-.34-1.33,0-2.57,0-3.8,0C15.91,35.38,15.67,35.28,15.43,35.54ZM53.07,3.88a25.94,25.94,0,0,0-5.29,0s0,.08,0,.22c1.56,0,3.15,0,4.73,0A2.84,2.84,0,0,0,53.07,3.88ZM69,2.6a19.89,19.89,0,0,0,4.81,0s0-.07,0-.11-.08-.11-.12-.11q-2.22,0-4.44,0S69.13,2.46,69,2.6Zm57.84-.1a19.6,19.6,0,0,0-4.8,0s0,.07,0,.11.09.1.13.1h4.44S126.67,2.65,126.81,2.5Zm21.32,1.38a20.53,20.53,0,0,0-4.81,0,.47.47,0,0,0,0,.12s.08.11.12.11h4.44S148,4,148.13,3.88Zm-4.87,31.67a16.16,16.16,0,0,0,4.81,0A16.16,16.16,0,0,0,143.26,35.55ZM68.92,37.18c.22.19.26.25.31.25h4.44s.08-.15.17-.34H69.55A6.26,6.26,0,0,0,68.92,37.18Zm57.91,0a21.17,21.17,0,0,0-4.81,0,1,1,0,0,0,0,.12s.08.11.12.11h4.45S126.65,37.37,126.83,37.23Zm29.57-7c-.32.6.49.71.27,1.17a2.47,2.47,0,0,0,.25.18l.36-.06.1-.48.64-.68-.13-.13ZM18.11,2.61a17.28,17.28,0,0,0,4.47,0s0-.08,0-.11-.09-.11-.13-.11c-1.36,0-2.73,0-4.1,0C18.31,2.39,18.27,2.46,18.11,2.61ZM20,3.89a17.79,17.79,0,0,0-4.46,0s0,.08,0,.12.08.11.12.11h4.1S19.78,4,20,3.89Zm160.48,0a18.91,18.91,0,0,0-4.47,0L176,4s.08.1.12.1h4.1S180.28,4,180.43,3.87Zm-162,33.44a14.43,14.43,0,0,0,4.13,0s0-.07,0-.12-.08-.1-.13-.1H18.7S18.62,37.17,18.45,37.31ZM154.21,4c-2.37-.39-3.65-.35-4.14.06,1.31,0,2.49,0,3.67,0A3.78,3.78,0,0,0,154.21,4ZM39,31.59a9.75,9.75,0,0,0,.5-1c0-.11-.08-.28-.14-.47-.4.16-.8-.08-1.19.2a1.27,1.27,0,0,0,0,.43c.06.14.21.24.28.38a2.58,2.58,0,0,1,.14.42Zm29.1,5.63a15.56,15.56,0,0,0-4.11,0s0,.08,0,.11.08.12.12.12H67.8S67.89,37.37,68.06,37.22ZM51,28.77l.57-.4c-.09-.5.15-.91-.19-1.24-.26,0-.55-.1-.79.1C50.26,27.88,50.82,28.3,51,28.77ZM63.84,2.54c.15.12.19.18.23.18h3.76s.07-.15.17-.34H64.22A1.2,1.2,0,0,0,63.84,2.54Zm68.14,0a14.34,14.34,0,0,0-4.12,0s0,.08,0,.12.08.1.12.1h3.75S131.82,2.65,132,2.51Zm-.06,34.76a11.88,11.88,0,0,0-4.12,0A12.39,12.39,0,0,0,131.92,37.27ZM41.48,4A14.91,14.91,0,0,0,45.6,4s0-.07,0-.12-.09-.11-.13-.11H41.73S41.65,3.83,41.48,4ZM159.42,35.55c-.11-.1-.15-.17-.19-.17-.78,0-1.57,0-2.36,0-.06,0-.12.13-.17.2l.48.48h.67l.36-.34h1S159.31,35.65,159.42,35.55Zm18.25-33c-2.41-.21-3.42-.18-3.76.12,0,0,.09.1.13.1h3.41S177.53,2.65,177.67,2.5ZM38.57,7.91c-.22.41,0,.71-.23.94l-.67.22c1.18.27,1.55.27,1.8,0l-.34-.36c-.06-.26.12-.56-.14-.82Zm118.09.83c-.15.16-.15.16-.22.53.5,0,1,0,1.48-.08,0,0,.07-.07.12-.12l-.68-.31c-.07-.3.11-.59-.19-.89l-.51.12ZM38.52,36.06l.65-.52a5.8,5.8,0,0,0-2.78,0c.35.41.85,0,1.25.23A1.16,1.16,0,0,0,38.52,36.06Zm135.26,1.25c2.22.23,2.95.21,3.44-.09,0,0-.08-.12-.11-.12H174S174,37.16,173.78,37.31ZM50.32,12.42c.59-.12.88,0,1.15-.2v-1.1L51,10.63c-.37.37-.05.85-.2,1.21ZM82.71,35.59c2.11.22,2.62.2,3.1-.09,0,0-.08-.12-.12-.12-.9,0-1.81,0-2.72,0C82.93,35.38,82.89,35.45,82.71,35.59ZM162.22,2.51c-2.16-.22-2.66-.2-3.09.1,0,0,.08.11.12.11H162S162.06,2.66,162.22,2.51Zm-5.15,34.72c-2.08-.23-2.6-.21-3.11.09,0,0,.08.11.12.11h2.73S156.89,37.37,157.07,37.23ZM156.6,4c2.11.23,2.62.21,3.09-.09,0,0-.07-.12-.11-.12h-2.72C156.81,3.76,156.77,3.83,156.6,4Zm-123-1.36c2.21.21,2.69.19,3.09-.12-.05,0-.09-.1-.13-.1-.91,0-1.82,0-2.72,0C33.77,2.39,33.73,2.46,33.58,2.61Zm137.9-.11c-2.21-.2-2.7-.18-3.2.23.91,0,1.69,0,2.47,0C171,2.72,171.2,2.83,171.48,2.5ZM183.94,36l.59-.5c-1.3-.25-1.51-.25-1.77,0l.09.46Zm-142,1.18c-2.16-.22-2.65-.2-3.09.1,0,0,.08.11.12.11H41.7S41.78,37.36,41.94,37.22ZM144.26,27.16c.09.41-.09.7.14.94.32,0,.65.2.92-.12-.06-.26.12-.56-.14-.82ZM36.09,3.88l0,.22c1,0,1.9,0,2.85,0,0,0,.08-.14.17-.33H36.38A1.38,1.38,0,0,0,36.09,3.88Zm77,31.61c-2.23-.2-2.72-.18-3.07.12,0,0,.09.1.13.1h2.72S112.92,35.64,113.06,35.49ZM36.42,37.28c-.15-.12-.19-.18-.23-.18H33.81s-.08.15-.17.34H36A1.2,1.2,0,0,0,36.42,37.28Zm125.8-.06c-2.09-.21-2.35-.19-2.75.11,0,0,.08.1.13.1H162S162.06,37.36,162.22,37.22ZM38.76,2.61c2.12.2,2.36.18,2.71-.12,0,0-.08-.1-.12-.1-.8,0-1.59,0-2.38,0C38.93,2.39,38.89,2.47,38.76,2.61ZM85.91,3.88c-2.1-.2-2.35-.19-2.86.22.8,0,1.46,0,2.13,0C85.39,4.09,85.64,4.21,85.91,3.88Zm26.83,0c-2.06-.2-2.33-.19-2.76.11,0,0,.09.11.13.11h2.38S112.57,4,112.74,3.88ZM157,2.56a5.34,5.34,0,0,0-2.75,0A5.57,5.57,0,0,0,157,2.56ZM24.7,2.56a5.57,5.57,0,0,0,2.75,0A5.34,5.34,0,0,0,24.7,2.56ZM13.26,36l-.39-.65c-.48.09-.89-.15-1.12.09l.38.64C12.61,36,13,36.23,13.26,36ZM169,37.31c1.95.2,2,.2,2.41-.1,0,0-.08-.11-.12-.11h-2S169.14,37.17,169,37.31Zm-141.8-.09c-2-.2-2-.2-2.41.1,0,0,.08.11.12.11h2S27,37.36,27.17,37.22ZM194,18.22c.22.41,0,.71.29,1l.52-.1a5.38,5.38,0,0,0,0-.59,1.44,1.44,0,0,0-.12-.32ZM83.39,2.6c1.71.17,1.71.17,2.08-.11a2.26,2.26,0,0,0-1.15-.1A1.06,1.06,0,0,0,83.39,2.6Zm98.14,34.63c-1.74-.18-1.74-.18-2.14.1.25.22.55.1.81.1A2.24,2.24,0,0,0,181.53,37.23ZM191,8.41c-.19-.16-.3-.42-.58-.47-.22.24-.06.53-.11.79.19.16.3.42.57.47C191.14,9,191,8.67,191,8.41ZM13.42,3.89c-1.65-.17-1.65-.17-2.06.09,0,0,.08.12.11.12.57,0,1.13,0,1.7,0C13.21,4.1,13.25,4,13.42,3.89ZM156.55,34.22a2.41,2.41,0,0,0,1.61,0c-.39-.16-.44-.53-.8-.54S156.93,34,156.55,34.22ZM2.54,14.76a.75.75,0,0,0,0-1.06l-.44.09c0,.37-.21.7.12,1Zm36,18.86c-.46.12-.67.3-.77.65a2.12,2.12,0,0,0,1.27,0C39,34,38.76,33.85,38.58,33.62Zm146-29.73c-1.65-.17-1.65-.17-2.06.09,0,0,.07.12.11.12.57,0,1.13,0,1.7,0C184.35,4.1,184.39,4,184.56,3.89ZM1,19.27l.59-.11c0-.37.2-.7-.13-1L1,18.26ZM182.17,2.51c-1.72-.17-1.72-.17-2.08.11.36.22.76.09,1.14.1A1.08,1.08,0,0,0,182.17,2.51ZM16.53,37.22c-1.72-.17-1.72-.17-2.08.11a2.22,2.22,0,0,0,1.14.1A1.08,1.08,0,0,0,16.53,37.22ZM5.42,8.64c-.08-.17.25-.55-.13-.71l-.57.49c.15.25-.09.56.09.72Zm107-6.12c-1.62-.18-1.62-.18-2.07.09,0,0,.08.11.12.11h1.7S112.22,2.66,112.39,2.52Zm-27,34.71c-1.54-.2-1.54-.18-1.84.12a4,4,0,0,0,1.33.08C84.93,37.44,85,37.36,85.35,37.23ZM38.66,6.14c0-.22.42-.24.41-.59a2.16,2.16,0,0,0-1.37,0ZM110.5,37.3c1.41.2,1.41.19,1.83-.14a3.65,3.65,0,0,0-.51-.06A2.28,2.28,0,0,0,110.5,37.3ZM157.18,6.16a1.61,1.61,0,0,1,.36-.33c.14-.08.44.11.44-.24-1.22-.16-1.22-.15-1.27.11ZM1,21.11c.2.14.3.43.58.45a.9.9,0,0,0-.06-1L1,20.7ZM37.73,27.2l-.29-.06-.75.45.55.57ZM1.78,17.79l.66-.45-.23-.55-.47.09C1.69,17.24,1.55,17.57,1.78,17.79ZM65.12,4c1.43.15,1.43.15,1.86-.14a3,3,0,0,0-.53-.07A2.35,2.35,0,0,0,65.12,4Zm65.59-.08c-1.54-.19-1.54-.17-1.83.13a3.94,3.94,0,0,0,1.32.08C130.3,4.1,130.4,4,130.71,3.89Zm63.52,17.68.65-.45-.22-.55-.47.09C194.13,21,194,21.35,194.23,21.57ZM3,11l.13.67.64-.12L3.67,11ZM1.88,21.94c.05.39-.52.76,0,1l.33-.33ZM192.09,11.71l.68-.13-.12-.64-.56.11ZM192,28.53c.06.3.08.46.13.68l.64-.12-.11-.56ZM2,25.44l.13.68L2.74,26l-.1-.56ZM15.72,2.66c-1-.29-1-.29-1.27,0,.25.2.54.07.81.09A2.42,2.42,0,0,0,15.72,2.66ZM67.24,35.53c-1.3-.17-1.3-.17-1.61.1A2.36,2.36,0,0,0,67.24,35.53ZM3.79,29.16l-.13-.68L3,28.6l.11.56Zm124.92,6.42c1.41.19,1.41.19,1.45-.24C129.73,35.47,129.31,35.24,128.71,35.58Zm59.66-30-.15.36.65.45L189,6ZM5.48,31.06c-.25-.08-.3-.42-.65-.45l-.09.49c.25.08.3.42.65.45Zm182.9,3.21.65-.43-.17-.45-.65.43Zm-58.47-3.39-.13-.68-.65.12.11.56ZM33.39,36.13c.22-.26.48-.37.53-.65-.19-.16-.38-.17-.63.06ZM2.88,12a.45.45,0,0,0,0,.73c.07-.26.41-.3.43-.65Zm142.55.17c-.81-.17-.81-.16-1.09.07A1,1,0,0,0,145.43,12.16ZM1.81,23.94c-.15.85-.14.85.1,1.06A1,1,0,0,0,1.81,23.94ZM166,37.24c-.83-.16-.83-.15-1.07.09A1,1,0,0,0,166,37.24Zm-3.7-1.17a.44.44,0,0,0,0-.69c-.18,0-.43-.11-.48.21Zm-32.2-27c-.52-.12-.55-.48-.87-.48-.15.2-.16.39.07.64Zm62.78,3.61c.22-.31.32-.53,0-.67C192.68,12.25,192.69,12.44,192.92,12.72ZM43.9,2.66V2.45l-.46-.06s-.12.08-.11.11.07.21.12.22A2.42,2.42,0,0,0,43.9,2.66ZM1.74,15.74H2a3.59,3.59,0,0,0,0-.46s-.08-.12-.11-.11-.21.08-.21.12A2.4,2.4,0,0,0,1.74,15.74ZM194,24.38a.41.41,0,0,0,0,.69A.42.42,0,0,0,194,24.38ZM159,12.29v-.22l-.46-.06s-.12.09-.11.11.08.22.12.22A2.4,2.4,0,0,0,159,12.29ZM37.37,8l-.13-.13a1.15,1.15,0,0,0-.1.23s.07.08.1.12ZM165.2,2.61l-.12-.23s-.11.09-.11.12a1.2,1.2,0,0,0,.11.23ZM43.65,37.22l.12.22s.12-.09.11-.12a1.2,1.2,0,0,0-.11-.23Zm150.13-11.3s-.09-.11-.12-.1a2.29,2.29,0,0,0-.23.1s.09.12.12.11A1.2,1.2,0,0,0,193.78,25.92Zm.12-10.77-.12.12a1,1,0,0,0,.23.11s.07-.07.11-.11ZM193.65,14l.13-.12a1.2,1.2,0,0,0-.23-.11s-.08.07-.12.11ZM30.76,2.68l.13-.12a1.2,1.2,0,0,0-.23-.11s-.08.07-.12.11ZM54,35.6l.12.12a1.2,1.2,0,0,0,.11-.23s-.07-.08-.11-.11ZM54,37.14l-.12.13a2.29,2.29,0,0,0,.23.1s.08-.07.11-.1ZM66.5,34.29l.13-.12a1,1,0,0,0-.24-.11s-.07.07-.11.11Zm-59-.76-.12-.22s-.12.09-.11.12a1.2,1.2,0,0,0,.11.23Zm134.29,3.86.12-.12a1,1,0,0,0-.23-.11s-.07.07-.11.11ZM66.58,5.7l-.13-.22s-.11.08-.1.11a1.15,1.15,0,0,0,.1.23ZM37.19,12.06l-.12.12a1.2,1.2,0,0,0,.23.11s.08-.07.12-.11ZM54,3.88l.12.22S54.2,4,54.19,4a1.2,1.2,0,0,0-.11-.23Zm87.8,31.54-.22.13s.09.11.11.1a.67.67,0,0,0,.23-.1ZM158.67,8l-.12-.13a1.2,1.2,0,0,0-.11.23s.07.08.11.12ZM66.58,30.44l-.13-.22s-.11.08-.1.11a.94.94,0,0,0,.1.23ZM33.86,4.05,34,3.93a1.2,1.2,0,0,0-.23-.11s-.08.07-.11.11ZM162.11,4,162,3.76s-.12.08-.11.11a1,1,0,0,0,.11.23ZM141.59,4l.12.12a1,1,0,0,0,.11-.23s-.07-.07-.11-.11ZM30.66,37.14l-.12.13a2.29,2.29,0,0,0,.23.1s.08-.07.12-.1Z"/></g></g></svg>