<svg xmlns="http://www.w3.org/2000/svg" viewBox="0 0 112.92 112.92"><title>Recurso 81MANDALA</title><g id="Capa_2" data-name="Capa 2"><g id="Capa_1-2" data-name="Capa 1"><path d="M64,56.12a52.14,52.14,0,0,0,8-3.29,16.09,16.09,0,0,0,6.06-5.4,15,15,0,0,0,2.19-8c0-1.44-.11-2.89-.12-4.37a6.45,6.45,0,0,1,.3-2.31,2.38,2.38,0,0,1,.75-1.07,2.78,2.78,0,0,1,1.21-.53,11.46,11.46,0,0,1,4.6.46A30.55,30.55,0,0,1,91.2,33.1a74.56,74.56,0,0,1,7.87,4c1.25.75,2.49,1.49,3.73,2.17a12.08,12.08,0,0,0,3.67,1.53,1.42,1.42,0,0,0,1.33-.35,3.55,3.55,0,0,0,.7-1.68,21.47,21.47,0,0,0,.26-4.28l.21,0a16.23,16.23,0,0,1,.62,4.43,4.52,4.52,0,0,1-.66,2.42,2.65,2.65,0,0,1-1.17.94,3.47,3.47,0,0,1-1.39.23,12.41,12.41,0,0,1-4.51-1.36c-1.36-.64-2.64-1.36-3.92-2.06-2.53-1.43-5-3-7.55-4.21-1.28-.62-2.58-1.2-3.9-1.72a10.21,10.21,0,0,0-3.95-.94,1.52,1.52,0,0,0-1.37.88,5.43,5.43,0,0,0-.38,2c0,1.42.1,2.88.17,4.35a25.71,25.71,0,0,1,0,4.47,12.53,12.53,0,0,1-1.32,4.42,12,12,0,0,1-3,3.58,16.57,16.57,0,0,1-3.91,2.38,25.8,25.8,0,0,1-8.63,2Z"/><path d="M62.85,52.38a50.84,50.84,0,0,0,5.24-6.83,16.09,16.09,0,0,0,2.55-7.71,15.07,15.07,0,0,0-2.09-8c-.7-1.26-1.54-2.45-2.3-3.73A6.32,6.32,0,0,1,65.36,24a2.47,2.47,0,0,1,.11-1.31,2.9,2.9,0,0,1,.78-1.06,11.63,11.63,0,0,1,4.22-1.9,30.18,30.18,0,0,1,4.4-.83,72.79,72.79,0,0,1,8.82-.45c1.45,0,2.9,0,4.31,0a12.44,12.44,0,0,0,4-.52c.54-.23.87-.49,1-1a3.61,3.61,0,0,0-.24-1.8,21.8,21.8,0,0,0-1.91-3.84l.16-.13A16.27,16.27,0,0,1,93.7,14.7a4.52,4.52,0,0,1,.63,2.43,2.56,2.56,0,0,1-.54,1.39,3.41,3.41,0,0,1-1.09.9,12.33,12.33,0,0,1-4.59,1.07c-1.49.12-3,.15-4.42.18-2.91,0-5.79-.08-8.64.13-1.42.1-2.83.25-4.24.46a10.17,10.17,0,0,0-3.89,1.16,1.5,1.5,0,0,0-.74,1.44,5.13,5.13,0,0,0,.66,1.91c.68,1.26,1.53,2.46,2.32,3.69a25.56,25.56,0,0,1,2.19,3.9,12.42,12.42,0,0,1,1.07,4.49,12,12,0,0,1-.79,4.59,16.75,16.75,0,0,1-2.19,4A25.89,25.89,0,0,1,63,52.54Z"/><path d="M60,49.74a50.79,50.79,0,0,0,1.13-8.54,16.2,16.2,0,0,0-1.65-8,14.9,14.9,0,0,0-5.82-5.89c-1.23-.75-2.56-1.35-3.85-2.09a6.38,6.38,0,0,1-1.84-1.4,2.47,2.47,0,0,1-.56-1.2,2.74,2.74,0,0,1,.15-1.31,11.46,11.46,0,0,1,2.7-3.75,31.27,31.27,0,0,1,3.39-2.92A73.68,73.68,0,0,1,61,9.9c1.26-.71,2.53-1.42,3.74-2.15a12.32,12.32,0,0,0,3.16-2.42A1.42,1.42,0,0,0,68.28,4a3.66,3.66,0,0,0-1.1-1.44A22.22,22.22,0,0,0,63.6.19L63.68,0a16.22,16.22,0,0,1,4.15,1.68,4.43,4.43,0,0,1,1.76,1.78,2.57,2.57,0,0,1,.23,1.48,3.43,3.43,0,0,1-.5,1.32,12.09,12.09,0,0,1-3.43,3.22c-1.23.86-2.49,1.61-3.74,2.37-2.51,1.47-5,2.83-7.42,4.43-1.18.8-2.33,1.63-3.44,2.52a10.22,10.22,0,0,0-2.79,2.95,1.51,1.51,0,0,0,.08,1.62,5.27,5.27,0,0,0,1.53,1.33c1.21.74,2.55,1.35,3.85,2A25.62,25.62,0,0,1,57.81,29,12.32,12.32,0,0,1,61,32.36a11.62,11.62,0,0,1,1.61,4.37,16.7,16.7,0,0,1,.11,4.57,25.53,25.53,0,0,1-2.54,8.5Z"/><path d="M56.12,48.89a52,52,0,0,0-3.29-8,16,16,0,0,0-5.4-6.06,14.94,14.94,0,0,0-8-2.2c-1.44,0-2.89.11-4.37.12a6.67,6.67,0,0,1-2.31-.29,2.49,2.49,0,0,1-1.07-.76,2.73,2.73,0,0,1-.53-1.21,11.46,11.46,0,0,1,.46-4.6,30.55,30.55,0,0,1,1.48-4.22,74.41,74.41,0,0,1,4-7.86c.75-1.25,1.49-2.49,2.17-3.73a12.23,12.23,0,0,0,1.53-3.68,1.43,1.43,0,0,0-.35-1.33,3.76,3.76,0,0,0-1.68-.7,22.24,22.24,0,0,0-4.28-.26l0-.2a15.86,15.86,0,0,1,4.43-.63A4.54,4.54,0,0,1,41.33,4a2.57,2.57,0,0,1,.94,1.16,3.52,3.52,0,0,1,.23,1.4,12.35,12.35,0,0,1-1.36,4.5c-.64,1.36-1.36,2.64-2.06,3.92-1.43,2.54-3,5-4.21,7.55-.62,1.28-1.2,2.58-1.72,3.9a10.25,10.25,0,0,0-.94,3.95,1.52,1.52,0,0,0,.88,1.37,5.43,5.43,0,0,0,2,.38c1.42,0,2.88-.1,4.35-.17a26.74,26.74,0,0,1,4.47,0,12.34,12.34,0,0,1,4.42,1.33,11.69,11.69,0,0,1,3.58,3,16.51,16.51,0,0,1,2.38,3.9,25.85,25.85,0,0,1,2,8.63Z"/><path d="M52.38,50.07a52.55,52.55,0,0,0-6.83-5.24,16,16,0,0,0-7.71-2.54,14.89,14.89,0,0,0-8,2.09c-1.26.69-2.45,1.54-3.73,2.29a6.32,6.32,0,0,1-2.14.89,2.37,2.37,0,0,1-1.31-.11,2.9,2.9,0,0,1-1.06-.78,11.63,11.63,0,0,1-1.9-4.22,30.18,30.18,0,0,1-.83-4.4,72.79,72.79,0,0,1-.45-8.82c0-1.45,0-2.9,0-4.31a12.48,12.48,0,0,0-.52-4c-.23-.54-.49-.86-1-1a3.6,3.6,0,0,0-1.8.23,21.19,21.19,0,0,0-3.84,1.92L11.17,22a16.34,16.34,0,0,1,3.53-2.76,4.52,4.52,0,0,1,2.43-.63,2.56,2.56,0,0,1,1.39.54,3.52,3.52,0,0,1,.9,1.09,12.33,12.33,0,0,1,1.07,4.59c.12,1.49.15,3,.18,4.42,0,2.91-.08,5.79.13,8.64.1,1.42.25,2.84.46,4.24A10.17,10.17,0,0,0,22.42,46a1.53,1.53,0,0,0,1.44.75,5.34,5.34,0,0,0,1.91-.67c1.26-.68,2.46-1.53,3.69-2.32a25.56,25.56,0,0,1,3.9-2.19,12.42,12.42,0,0,1,4.49-1.07,11.79,11.79,0,0,1,4.59.8,16.41,16.41,0,0,1,4,2.19,25.85,25.85,0,0,1,6.09,6.44Z"/><path d="M49.74,53a51.81,51.81,0,0,0-8.54-1.12,16.09,16.09,0,0,0-8,1.64,15,15,0,0,0-5.89,5.82c-.75,1.24-1.35,2.56-2.09,3.85A6.56,6.56,0,0,1,23.87,65a2.56,2.56,0,0,1-1.2.55,2.87,2.87,0,0,1-1.31-.14,11.63,11.63,0,0,1-3.75-2.71,30.35,30.35,0,0,1-2.92-3.39A73.55,73.55,0,0,1,9.9,51.91c-.71-1.27-1.42-2.53-2.15-3.75A12.5,12.5,0,0,0,5.33,45,1.42,1.42,0,0,0,4,44.64a3.6,3.6,0,0,0-1.44,1.11A22.13,22.13,0,0,0,.19,49.32L0,49.24a16.37,16.37,0,0,1,1.68-4.15,4.49,4.49,0,0,1,1.78-1.76,2.66,2.66,0,0,1,1.48-.23,3.43,3.43,0,0,1,1.32.5A12.25,12.25,0,0,1,9.48,47c.86,1.23,1.61,2.49,2.37,3.73,1.47,2.51,2.83,5.06,4.43,7.42.8,1.19,1.63,2.33,2.52,3.44a10,10,0,0,0,2.95,2.79,1.51,1.51,0,0,0,1.62-.07,5.54,5.54,0,0,0,1.33-1.53c.74-1.22,1.35-2.55,2-3.86A25.53,25.53,0,0,1,29,55.12,12.36,12.36,0,0,1,32.36,52a11.79,11.79,0,0,1,4.37-1.61,16.7,16.7,0,0,1,4.57-.11,25.77,25.77,0,0,1,8.5,2.54Z"/><path d="M48.89,56.8a51.07,51.07,0,0,0-8,3.3,16,16,0,0,0-6.06,5.4,14.88,14.88,0,0,0-2.2,8c0,1.45.11,2.89.12,4.38a6.64,6.64,0,0,1-.29,2.3,2.58,2.58,0,0,1-.76,1.08,2.84,2.84,0,0,1-1.21.53,11.64,11.64,0,0,1-4.6-.47,29.29,29.29,0,0,1-4.22-1.48,70.81,70.81,0,0,1-7.86-4c-1.25-.74-2.49-1.49-3.73-2.17A12.77,12.77,0,0,0,6.45,72.1a1.43,1.43,0,0,0-1.33.36,3.67,3.67,0,0,0-.7,1.67,22.29,22.29,0,0,0-.26,4.28l-.2,0A15.81,15.81,0,0,1,3.33,74,4.54,4.54,0,0,1,4,71.59a2.57,2.57,0,0,1,1.16-.94,3.52,3.52,0,0,1,1.4-.23,12.17,12.17,0,0,1,4.5,1.37c1.36.64,2.64,1.35,3.92,2,2.54,1.44,5,3,7.55,4.21,1.28.63,2.58,1.2,3.9,1.72a10.25,10.25,0,0,0,3.95.94,1.53,1.53,0,0,0,1.37-.87,5.51,5.51,0,0,0,.38-2c0-1.43-.1-2.89-.17-4.36A26.75,26.75,0,0,1,32,69a12.4,12.4,0,0,1,1.33-4.42,11.54,11.54,0,0,1,3-3.57,16.19,16.19,0,0,1,3.9-2.38,25.63,25.63,0,0,1,8.63-2.06Z"/><path d="M50.07,60.54a53.23,53.23,0,0,0-5.24,6.83,16,16,0,0,0-2.54,7.71,14.89,14.89,0,0,0,2.09,8c.69,1.27,1.54,2.45,2.29,3.73A6.41,6.41,0,0,1,47.56,89a2.37,2.37,0,0,1-.11,1.31,2.82,2.82,0,0,1-.78,1.06,11.47,11.47,0,0,1-4.22,1.9,28.9,28.9,0,0,1-4.4.83,72.79,72.79,0,0,1-8.82.45c-1.45,0-2.9,0-4.31,0A12.21,12.21,0,0,0,21,95c-.54.24-.86.5-1,1a3.63,3.63,0,0,0,.23,1.81,21.43,21.43,0,0,0,1.92,3.83l-.17.13a16.1,16.1,0,0,1-2.76-3.53,4.51,4.51,0,0,1-.63-2.42,2.56,2.56,0,0,1,.54-1.4,3.66,3.66,0,0,1,1.09-.9,12.33,12.33,0,0,1,4.59-1.07c1.49-.12,3-.14,4.42-.17,2.91,0,5.79.07,8.64-.14,1.42-.09,2.84-.24,4.24-.46A10.35,10.35,0,0,0,46,90.51a1.56,1.56,0,0,0,.75-1.45,5.4,5.4,0,0,0-.67-1.91c-.68-1.26-1.53-2.45-2.32-3.69a25.09,25.09,0,0,1-2.19-3.9,12.37,12.37,0,0,1-1.07-4.48,11.73,11.73,0,0,1,.8-4.59,16,16,0,0,1,2.19-4,25.71,25.71,0,0,1,6.44-6.1Z"/><path d="M53,63.19a51.84,51.84,0,0,0-1.12,8.53,16.07,16.07,0,0,0,1.64,8,15.05,15.05,0,0,0,5.82,5.9c1.24.74,2.56,1.34,3.85,2.08A6.41,6.41,0,0,1,65,89.06a2.52,2.52,0,0,1,.55,1.19,2.86,2.86,0,0,1-.14,1.31,11.52,11.52,0,0,1-2.71,3.75,29.34,29.34,0,0,1-3.39,2.92,73.65,73.65,0,0,1-7.41,4.8c-1.27.71-2.53,1.41-3.75,2.14A12.5,12.5,0,0,0,45,107.59a1.42,1.42,0,0,0-.36,1.33,3.69,3.69,0,0,0,1.11,1.45,22.77,22.77,0,0,0,3.57,2.36l-.08.19a16.33,16.33,0,0,1-4.15-1.67,4.52,4.52,0,0,1-1.76-1.79A2.64,2.64,0,0,1,43.1,108a3.49,3.49,0,0,1,.5-1.32A12.25,12.25,0,0,1,47,103.44c1.23-.85,2.49-1.61,3.73-2.36,2.51-1.48,5.06-2.84,7.42-4.44,1.19-.79,2.33-1.63,3.44-2.52a10,10,0,0,0,2.79-2.94,1.52,1.52,0,0,0-.07-1.63,5.35,5.35,0,0,0-1.53-1.32c-1.22-.75-2.55-1.36-3.86-2a25.94,25.94,0,0,1-3.84-2.29A12.21,12.21,0,0,1,52,80.56a11.73,11.73,0,0,1-1.61-4.37,16.7,16.7,0,0,1-.11-4.57,25.84,25.84,0,0,1,2.54-8.5Z"/><path d="M56.8,64a51.18,51.18,0,0,0,3.3,8,16.09,16.09,0,0,0,5.4,6.06,15,15,0,0,0,8,2.19c1.45,0,2.89-.11,4.38-.12a6.43,6.43,0,0,1,2.3.3,2.47,2.47,0,0,1,1.08.75,2.9,2.9,0,0,1,.53,1.21A11.64,11.64,0,0,1,81.3,87a29.29,29.29,0,0,1-1.48,4.22,71,71,0,0,1-4,7.87c-.74,1.25-1.49,2.49-2.17,3.73a12.6,12.6,0,0,0-1.53,3.67,1.43,1.43,0,0,0,.36,1.33,3.47,3.47,0,0,0,1.67.7,21.51,21.51,0,0,0,4.28.26l0,.21a16.18,16.18,0,0,1-4.43.62,4.52,4.52,0,0,1-2.42-.66,2.65,2.65,0,0,1-.94-1.17,3.47,3.47,0,0,1-.23-1.39,12.22,12.22,0,0,1,1.37-4.51c.64-1.36,1.35-2.64,2-3.92,1.44-2.53,3-5,4.21-7.55.63-1.28,1.2-2.58,1.72-3.9a10.21,10.21,0,0,0,.94-3.95,1.53,1.53,0,0,0-.87-1.37,5.51,5.51,0,0,0-2-.38c-1.43,0-2.89.1-4.36.17a25.72,25.72,0,0,1-4.47,0,12.59,12.59,0,0,1-4.42-1.32,11.82,11.82,0,0,1-3.57-3,16.25,16.25,0,0,1-2.38-3.91,25.57,25.57,0,0,1-2.06-8.63Z"/><path d="M60.54,62.85a51.48,51.48,0,0,0,6.83,5.24,16.12,16.12,0,0,0,7.71,2.55,15.07,15.07,0,0,0,8-2.09c1.27-.7,2.45-1.54,3.73-2.3A6.41,6.41,0,0,1,89,65.36a2.38,2.38,0,0,1,1.31.12,2.7,2.7,0,0,1,1.06.77,11.47,11.47,0,0,1,1.9,4.22,28.9,28.9,0,0,1,.83,4.4,72.79,72.79,0,0,1,.45,8.82c0,1.45,0,2.9,0,4.31A12.17,12.17,0,0,0,95,92c.24.54.5.87,1,1a3.65,3.65,0,0,0,1.81-.24,22.06,22.06,0,0,0,3.83-1.91l.13.16a15.8,15.8,0,0,1-3.53,2.76,4.51,4.51,0,0,1-2.42.63,2.56,2.56,0,0,1-1.4-.54,3.54,3.54,0,0,1-.9-1.09,12.33,12.33,0,0,1-1.07-4.59c-.12-1.49-.14-3-.17-4.42,0-2.91.07-5.79-.14-8.64-.09-1.42-.24-2.83-.46-4.24a10.35,10.35,0,0,0-1.15-3.89,1.53,1.53,0,0,0-1.45-.74,5.19,5.19,0,0,0-1.91.66c-1.26.68-2.45,1.53-3.69,2.32a25.09,25.09,0,0,1-3.9,2.19,12.37,12.37,0,0,1-4.48,1.07,11.9,11.9,0,0,1-4.59-.79,16.38,16.38,0,0,1-4-2.19A25.75,25.75,0,0,1,60.38,63Z"/><path d="M63.19,60a50.81,50.81,0,0,0,8.53,1.13,16.18,16.18,0,0,0,8-1.65,15,15,0,0,0,5.9-5.82c.74-1.23,1.34-2.56,2.08-3.85a6.24,6.24,0,0,1,1.41-1.84,2.44,2.44,0,0,1,1.19-.56,2.73,2.73,0,0,1,1.31.15,11.36,11.36,0,0,1,3.75,2.7,30.2,30.2,0,0,1,2.92,3.39A73.78,73.78,0,0,1,103,61c.71,1.26,1.41,2.53,2.14,3.74a12.32,12.32,0,0,0,2.42,3.16,1.42,1.42,0,0,0,1.33.36,3.75,3.75,0,0,0,1.45-1.1,22.87,22.87,0,0,0,2.36-3.58l.19.08a16.19,16.19,0,0,1-1.67,4.15,4.46,4.46,0,0,1-1.79,1.76,2.56,2.56,0,0,1-1.48.23,3.49,3.49,0,0,1-1.32-.5,12.09,12.09,0,0,1-3.22-3.43c-.85-1.23-1.61-2.49-2.36-3.74-1.48-2.51-2.84-5-4.44-7.42-.79-1.18-1.63-2.33-2.52-3.44a10.31,10.31,0,0,0-2.94-2.79,1.52,1.52,0,0,0-1.63.08,5.1,5.1,0,0,0-1.32,1.53c-.75,1.21-1.36,2.55-2,3.85a26.56,26.56,0,0,1-2.29,3.85A12.18,12.18,0,0,1,80.56,61a11.56,11.56,0,0,1-4.37,1.61,16.7,16.7,0,0,1-4.57.11,25.6,25.6,0,0,1-8.5-2.54Z"/></g></g></svg>