<svg xmlns="http://www.w3.org/2000/svg" viewBox="0 0 282.9 34.09"><title>Recurso 26GRAPHS</title><g id="Capa_2" data-name="Capa 2"><g id="Capa_1-2" data-name="Capa 1"><path d="M85.48,33.37l-.8-.53-1.34,0-.5.43"/><path d="M25.78,32.25c.19-.49-.26-.69-.44-1l.05-2.38.42-.4,0-2-.37-.39.2-9.16c.4-.33.8-.11,1.17-.15.08.13.21.26.21.39,0,1.67-.06,3.34-.1,5.05l.46.55-.17,7.81.78,0a1.65,1.65,0,0,0,.18-.43c0-.56,0-1.12.05-1.79l.91-.13c0,.66,0,1.2,0,1.73l.66.7h.48c.08-.12.24-.23.24-.36.07-2.3.11-4.61.16-7l-.44-.55.05-1.91.64-.65,1.06,0c.08.09.18.15.18.21,0,1.11,0,2.22-.06,3.33l-.37.35a3.37,3.37,0,0,0-.12,1.58l.42.43-.1,4.3c.63.66.89,0,1.23-.18l1,0c.28.28.49.68,1,.37,0,0,.1,0,.1-.1,0-1.43.07-2.86.1-4.27l.5-.52c.19-.49-.29-.68-.47-1.05l.07-3.24-.44-.54c-.08-.65.49-.79.76-1.12l1,0,.66,1.36,0,2.21-.32.34a1.24,1.24,0,0,0-.16.4c0,1.19-.06,2.38-.08,3.55l.45.52c.18.54-.38.67-.51,1.11l.7,1.48c.54.21.71-.32,1.18-.48l1.34.41.2-.72.28.28c0-.06.11-.12.12-.19s0-.31,0-.47l.1-4.71-.42-.44L40.41,21l1.32-.88.4.42c0,.06.13.11.14.18a3.84,3.84,0,0,1,0,.48l-.21,9.58.63.22,1.17-1.05L44.63,31l.6-.08c.05-.05.16-.11.16-.16.09-3.51.16-7,.24-10.51.4-.42.85-.21,1.29-.11a.79.79,0,0,1,.14.18,1,1,0,0,1,0,.24l-.18,7.84.44.46,0,2.08c.72,0,.79-.75,1.32-.81s1.07,1,1.89.42c.06,0,.16-.11.17-.16q.11-4.3.19-8.59l-.33-.35a1.36,1.36,0,0,1-.13-.42c0-1.19,0-2.38.08-3.55.35-.22.49-.68.85-.69.6,0,.66.52,1,.64l-.28,12.93.67.75,2,0,.55-.52c0-.06.12-.12.13-.18s0-.32,0-.48l.11-5.2-.41-.44.08-3.86.64-.7c.65-.09.85.42,1.21.72l0,2.36.46.53-.34.33a1.73,1.73,0,0,0-.14.42c0,1.51-.07,3-.1,4.49l.42.43,0,1.54,1,.72c.57.09,1.2-.39,1.87-.7,0-.7.86-1.14.54-1.9l-.54-.62.56-1a1,1,0,0,0-.4-1.19l.12-5.42.65-.58c.44,0,.72,0,.77.48,0,.27.26.52.44.88l-.1,4.64.34.36a1.14,1.14,0,0,1-.34,1.49l0,2.49.53.56c.42.25.9.11,1.36.15s.79,0,1.15,0a1.85,1.85,0,0,0,.2-.2.59.59,0,0,0,0-.22c.07-3.42.15-6.85.23-10.27,0-.06.08-.12.17-.23l1.07,0c.39.31-.14,1.1.65,1.06l-.21,9.66c.39.43.9.19,1.35.24a12,12,0,0,0,1.31,0,1.49,1.49,0,0,0,.19-.3.65.65,0,0,0,0-.24v-.24l.21-9.78a.84.84,0,0,1,.05-.18l.62-.64,1.23.66-.22,10.08.8.66,2,0,0-2,.49-.47.14-6.32-.37-.38.1-4.47.75-.56.92,0c.07.16.19.29.19.42,0,2.63-.11,5.25-.16,7.9l.46.52-.1,4.76c.36.48.88.21,1.32.26a12.21,12.21,0,0,0,1.32,0,1.4,1.4,0,0,0,.22-.27,1,1,0,0,0,0-.24l.21-9.75.74-.71,1.16,1.31c-.07,3.07-.14,6.25-.2,9.43,0,.06.08.12.17.23l3,.07c.08-.08.16-.12.19-.19a.64.64,0,0,0,0-.24l.09-4.05L85.29,26a1.36,1.36,0,0,1-.13-.42c0-1.67.07-3.34.11-5L86,20l1,0a3.14,3.14,0,0,0,.27.8c.18.25.45.44.34.86l-.45.5,0,1.41.45.51-.14,6.68c.37.46.88.2,1.33.25a12,12,0,0,0,1.31,0,1.7,1.7,0,0,0,.22-.28,1.85,1.85,0,0,0,0-.24l.22-10.22.73-.69h.47l.73,1.47-.22,9.82c.15.1.21.18.27.18l2.33.05c.41-.44.2-.94.25-1.39s0-.8,0-1.2l.33-.35c.36-.48,0-1.06.23-1.53l-.38-.4a1.66,1.66,0,0,1-.12-.42c0-1.67.07-3.33.1-4.77L96,19.69h.47c.63.39.76,1.12,1.08,1.76l-.39.41-.07,2.85.45.51c.18.54-.37.67-.53,1.16l.51.93L97.47,31c.14.12.2.21.26.21l2.35.06a.94.94,0,0,0,.2-.2.5.5,0,0,0,0-.21c.1-4.54.2-9.07.3-13.65l.72-.72.6.61a4.15,4.15,0,0,1,.07,1.61c0,.56,0,1.12,0,1.68L102,22l.45.47-.18,8.12.58.6c.51.32,1.07,0,1.54.2l.75-.72.21-9.38L106,20l.48-.05.69.68L107,28.15l.48.63,0,1.83.66.75,1.49,0,.75-.63.23-10.53.74-.71.7.89-.13,6.09.44.47c0,1.3,0,2.63-.08,4l2.67.05a.55.55,0,0,0,.19-.18.58.58,0,0,0,0-.23l.21-9.8.71-.65a1.68,1.68,0,0,1,1.18.15l-.21,10,.71.8,2.41.05a36.45,36.45,0,0,0,.3-8l-.35-.36.05-2,1.25-1,.65.64-.19,8.61.43.45,0,1.54c.13.09.19.16.25.17l2.33.05a1,1,0,0,0,.21-.21.78.78,0,0,0,0-.22c.09-4.38.19-8.75.28-13l.74-.89c.63-.09.77.39,1.15.67l-.28,12.85.69.82,1.47,0,.71-.68,0-1.89.49-.51-.33-.34a1.62,1.62,0,0,1-.12-.43c0-2.3.1-4.6.15-6.89.34-.23.52-.64.73-.68.7,0,.81.48,1.15.71l-.22,10,.67.74,2,0,.55-.53c.05-.06.12-.12.13-.18a2.57,2.57,0,0,0,0-.48l.19-8.51-.46-.56c-.08-.65.48-.8.76-1.12l.94,0,.68.71-.22,10.05.74.69,1.4,0,.68-.61.19-8.65-.34-.45a1.9,1.9,0,0,0,.39-1.65l1.24,0,.71.67-.22,10c.39.44.9.19,1.34.25s.8,0,1.24,0l.72-.64.11-5.25-.48-.78.54-.79,0-.87-.45-.51c0-.29-.11-.74,0-.9.48-.5.48-1.34,1.24-1.69l.68.88,0,1.79.44.46c-.06,2.67-.12,5.37-.17,8.07,0,.06.08.13.16.24l2,0,.53-.51c0-.06.13-.11.14-.18a2.54,2.54,0,0,0,0-.48l.1-4.74-.41-.42.16-7.1L151,16.56l.72.76c0,2.54-.11,5.09-.16,7.64l.31.32c.06.08.15.14.15.2,0,1.75-.07,3.5-.11,5.22.41.44.92.2,1.37.26a12.24,12.24,0,0,0,1.23,0l.66-.6c.13-.55.29-1.09-.33-1.5L155,20.7l.72-.65c.58-.1.74.35,1,.58,0,.07.11.12.13.19a1,1,0,0,1,0,.24l-.16,7.35.44.47,0,1.91c.13.14.19.24.24.25l1.56,0,1.31-.71-.66-1,.18-8.3.73-.9c.64-.09.77.39,1.16.67l-.21,9.5.69.82,2.43.05a1,1,0,0,0,.18-.18.5.5,0,0,0,.05-.21c.08-3.42.15-6.84.23-10.31l.63-.64c.82.18.64,1.11,1.24,1.57l-.2,9.09.7.73a17.27,17.27,0,0,0,2,.05l.7-.68,0-.95-.45-.51,0-1.41.56-.6-.48-1,.11-5.19,1.22-1,.66.63-.11,5.27.33.35a1.82,1.82,0,0,1,.11.43c0,.71,0,1.42,0,2.09l-.44.43.39.53,0,1.48c.12.1.18.18.24.18l2.34.06c.09-.09.17-.13.2-.2a.42.42,0,0,0,.05-.22l.3-13.6c0-.07.09-.13.17-.24l1.08,0c.35.35.08.76.16,1.13l.53.61-.37.76c-.31.32-.17.72-.21,1.1s0,.63,0,.86l.55.68-.56.88,0,1.32.41.51-.12,5.74.8.68,1.35,0,.7-.61.22-10,.74-.77c.62-.09.83.41,1.18.72l-.22,10.07.8.67,1.34,0a2.38,2.38,0,0,1,.46-.38,3.24,3.24,0,0,1,.7-.13q.08-3.46.15-6.88l-.37-.39.07-2.95,1.27-1,.47.48c0,.07.12.12.13.19a3.85,3.85,0,0,1,0,.48l-.17,8.07.42.44c0,.47,0,1,0,1.61.22,0,.44.1.66.12s.48,0,.71,0,.48,0,.72,0,.44,0,.69-.07l.14-6.4-.4-.42.07-3.43,1.29-1,1.07,1.48-.21,9.72c.14.12.2.21.26.21l2.36.06a1.13,1.13,0,0,0,.19-.19.5.5,0,0,0,0-.21c.08-3.43.15-6.85.23-10.32l.6-.67c.74-.13.88.34,1.16.52a1.28,1.28,0,0,1,.14.23,1,1,0,0,1,0,.24l-.22,10.21c.43.43.93.23,1.38.25a2.34,2.34,0,0,0,1.46-.13l.3-13.75.72-.86L201.4,18l-.21,9.52.41.43c.15,1.08-.09,2.26,0,3.52a9.54,9.54,0,0,0,2.12.17l.67-.79.17-7.55-.41-.5,0-1.91.66-.66,1.07,0c.15.39.29.73.25.65a6.47,6.47,0,0,1,.37.58,1,1,0,0,1,0,.24l-.2,9.24.69.74,1.44,0,.71-.68.23-10.48.74-.74c.31.43.62.85,1.16,1.61l-.21,9.66c.5.37,1,.19,1.45.24s.79,0,1.18,0c.06-.06.13-.11.18-.17A.52.52,0,0,0,214,31c.07-3.42.15-6.85.23-10.44l.66-.63c.47,0,.75,0,.79.49a3.15,3.15,0,0,0,.45.87l-.07,3.22.4.42-.12,5.35-.39.47.54.56c.06,0,.12.12.18.13l2.33.05a1.39,1.39,0,0,0,.21-.2.54.54,0,0,0,0-.22l.09-4.08-.46-.52.11-5.25L220.24,20l.65.79-.11,5.12.48.57,0,.93-.59.72.58.79,0,2.35c.4.42.91.21,1.36.24A2.63,2.63,0,0,0,224,31.4l.27-12-.49-.62,1.19-2A7.9,7.9,0,0,1,226.21,18l-.28,12.9.7.74c.56.06,1.26,0,2,.05l.7-.68.07-2.86-.46-.51.13-6c.29-.52.5-.91.72-1.32l1,0,.59,2.07-.07,3-.41.4.43.52,0,.93-.48.49,0,1,.42.44,0,1.91.74.77,1.44,0c.23-.21.45-.44.71-.68l.14-6.69-.44-.5.07-2.88,1.25-1.15,1.12,1.4-.22,10,2.68.06a.74.74,0,0,0,.18-.17.63.63,0,0,0,0-.24c.07-3.42.15-6.84.21-9.88L239.7,20c.77-.08.88.41,1.19.62.23.47-.18,1.14.51,1.48l-.13,5.79c-.09.26-.63.4-.45.93l.45.51,0,1.89c.12.09.24.24.36.25.79,0,1.57,0,2.28.06.12-.15.22-.21.22-.27q.06-2.62.12-5.22l-.41-.43.09-4.26,1.2-1.14,1.15,1.09-.22,10c.4.43.9.21,1.35.24a2.57,2.57,0,0,0,1.44-.11l.26-12-.42-.54c.37-.76.55-1.61,1.26-2,.59-.11.74.34,1,.58a.59.59,0,0,1,.13.19.45.45,0,0,1,0,.23l-.17,7.84.42.43-.09,3.82-.54.85.67.76c.36.25.77.1,1.15.14s.62,0,.89,0c.1-.1.21-.15.21-.21,0-.95,0-1.9.07-2.83l.35-.37a1.4,1.4,0,0,0,.16-.4c0-.55,0-1.11,0-1.66l-.33-.35a1.66,1.66,0,0,1-.12-.42c0-1.35.05-2.7.08-3.82l.74-1.37,1,0,.72,1.48-.22,9.91c.93.19,1.79,0,2.57.16a1.3,1.3,0,0,0,.24-.24.53.53,0,0,0,0-.22c.08-3.58.16-7.16.23-10.51l.65-1c1.26.08,1.07,1.19,1.73,1.71l-.22,10.24a17.6,17.6,0,0,0,2.15.07.77.77,0,0,0,.18-.18.5.5,0,0,0,.05-.21c.08-3.42.15-6.85.23-10.37l1.33-1,.48.45c.26.49-.18,1.17.52,1.51l-.2,9.17.93.76a4.79,4.79,0,0,1,.9-.5,2.63,2.63,0,0,1,.84,0c.13-.14.21-.19.22-.25a2.57,2.57,0,0,0,0-.48l.22-10,.72-.68,1,0,.66,1.34,0,1.27-.43.49-.09,3.8.44.49-.55.57.34.78a14.13,14.13,0,0,1,.19,2.54c.31.35.73.18,1.1.19s.79.17,1.23-.16L274,17.74l.77-.92a2.63,2.63,0,0,1,.65.3c.35.32.66.68,1,1l-.31,14.16-.64,1.26-.6.14-.47.42-21-.46L253,34c-.06,0-.12.13-.18.12-9.86-.2-19.72-.42-29.52-.63l-.55.43-.4-.42-1.45,0-.49.39-.49-.44-.93,0-.53.46L198,33.38l-.35.33c-.06,0-.13.12-.19.12l-27.16-.58-.46.44-28.17-.61-.47.45-.51-.43L137.79,33l-.51.43-24.78-.54-.53.47-5.72-.12-.58-.56-1,.48L86.4,32.8l-.92.57"/><path d="M247.27,2.13l2.22-1.07,1.55,0a19.53,19.53,0,0,1,1.71,1.08c.47.45.4,1.18,1,1.55l0,2,.43.46-.08,3.8c-.35.27-.37.81-.66,1.11s-.27,1.08-.84,1.33c-.41.17-.8.37-1.35.64l-.76,0-.53.46c-.28-.53-.79-.4-1.23-.52a4.39,4.39,0,0,1-1.35-.75,6.81,6.81,0,0,1-.89-.91l0-1c.54-.39,1.11,0,1.5-.17l1.68,1c.71-.3,1.56-.44,2-1.18l0-.95c-.07-.08-.13-.19-.18-.19l-2.84-.07c-.29-.55-1-.43-1.34-.86s-.47-1.09-.81-1.58c-.16-.25-.28-.53-.45-.86l0-1.16Zm1.2,3.92c.21.23.43.46.65.68l1.54,0,.67-.68c0-.44,0-.83,0-1.22s.2-.93-.15-1.34l-2.68-.06C248.5,4.36,248.48,5.21,248.47,6.05Z"/><path d="M228.35,4.64c-.28.49-.53.94-.91,1.63a7.91,7.91,0,0,0,0,1.13c0,.36.62.55.44,1s.44.78.46,1.3c-.15.27-.33.59-.5.92a5.28,5.28,0,0,0-.49,1c-.07.26-.16.43-.43.43-.68,0-.77.74-1.64.92l-1.55,0c-.3-.6-1.1-.46-1.48-1a8.5,8.5,0,0,0-1.12-1.21c.16-.48-.25-.7-.51-1.08l1-1.91,0-1.68-.89-1.7a3.63,3.63,0,0,1,.72-1.38c.3-.37.25-.85.63-1.19s1.09-.22,1.36-.78l1.78,0c.8.48,1.65.79,2.06,1.56S227.92,3.92,228.35,4.64Zm-2.43,5.7,0-1.43-.66-.7a3.26,3.26,0,0,0-1.61.06l-.55.57,0,1.5,1.42.69Zm-3.33-6.16c.31.76.9,1.07,1.27,1.57l.81,0L226,5.13l0-1.73c-.91,0-1.76-.07-2.6,0Z"/><path d="M282.9,4.22l-.14,6.39c-.48.23-.4.81-.7,1.14s-.67.66-1,1c-.51-.19-.7.27-1,.43l-2.09,0a4.1,4.1,0,0,1-2.78-3.1l.13-6.14,1.14-2.14a4.85,4.85,0,0,1,1.36-.52A1.6,1.6,0,0,0,279,.7c.87.4,1.66.82,2.43,1.24A4,4,0,0,1,282.9,4.22Zm-5.74.06L277,10l.67.67,2.6.05.11-1.08L281,8.9l-.57-.9.09-4-.62-.79-1.44,0Z"/><path d="M176.69.91c.24.57.94.42,1.32.85s.25,1.06.77,1.35l-.7.68-1,0-1-1-1.41,0-1.23,1.15c-.12.6.37.83.67,1.2l2.79.06c1.19.77,1.48,2.12,2.17,3.28l0,1.33c-.61.3-.47,1.1-1,1.48A7.22,7.22,0,0,0,177,12.4l-1.07,0-.56.45c-.18,0-.39,0-.47-.09-.58-.63-1.49-.67-2.11-1.22s-.61-1.51-1.14-2.15l-.18-.19.12-5.25.46-.49,0-.88A5.23,5.23,0,0,1,174.49.86ZM176,10.43c1.15-.81.65-1.81.82-2.6l-.72-.71-1.36,0-1.27,1.12,0,.82c.27.56.46,1,.66,1.36Z"/><path d="M25.31,0l1.41,0,.53.5.8,0c1.24.73,1.37,2.08,2.13,3.18l-.11,5.14a8,8,0,0,0-1,1.89c-.26.75-1.19.63-1.66,1.19l-1.89,0a2.63,2.63,0,0,0-1.13-.61c-.12-.56-1.22-.08-1-1l-.93-1.12.15-6.61c.58-.4.55-1.21,1.14-1.68S25,.57,25.31,0Zm3,3.23L27.19,2l-2-.05-.72.69-.13,6.15a3.85,3.85,0,0,0,0,.48c0,.06.08.12.14.23l.55.52,1.75,0L28.18,9Z"/><path d="M153.49,2.32l-3.62-.08c-.39.59-.09,1.16-.32,1.77a9.71,9.71,0,0,0,2.19.18l.5.46.57,0A18.09,18.09,0,0,0,154,6c.41.38.27,1.06.78,1.35l-.05,2.05a4,4,0,0,1-1.59,2.27A22,22,0,0,0,151,12.77c-.58-.33-1.29-.42-1.74-1-.87,0-1.07-.83-1.63-1.21,0-.39-.13-.78.11-1.13.15,0,.33-.14.43-.09.53.27,1,.58,1.7,1l1.75,0a3.3,3.3,0,0,0,1.26-2c.15-.43-.27-1.16-1.08-2.22l-1.53,0-.41.39-1.46,0-.65-.64.09-4.41,1-1a1.82,1.82,0,0,1,.43-.11l3.52.08.7.73C153.51,1.44,153.51,1.75,153.49,2.32Z"/><path d="M125.71,1.23l.86,0,.66.92,0,1.72.44.45-.45.51-.06,2.87,1.8,1.88c-.62,1.09-1.88,1.19-2.55,2.08l-1.63-.91-2.68-.06-.51-.5h-.47L120.49,9c.21-.37.47-.79.71-1.24s.45-.92.68-1.38A8.41,8.41,0,0,1,122.62,5a4.24,4.24,0,0,0,.89-1.29c.15-.47.92-.63.84-1.31Zm-.77,4.21c-.2.23-.53.45-.57.71-.1.7-.67,1-1.05,1.46-.08.1,0,.3,0,.46.35.28.49.85,1.16.76l.71-.63c0-.92,0-1.71,0-2.49C125.19,5.65,125.08,5.59,124.94,5.44Z"/><path d="M73.59,3.56l-.81-.84,0-1L74.61.13l2.17,0L78,.9l1.48,1.48c-.16.46.22.69.43,1a.94.94,0,0,0-.48,1.13L75,8.7c0,.58,0,.9,0,1.21.06.06.11.17.17.17l4,.21c.29.41.11.8.12,1.18l-1.34.65L73.76,12l-.51-.49h-.46l-.6-1.24a22.16,22.16,0,0,0,1.27-2.23,6,6,0,0,1,.72-1.13c1.12-1,2.2-2.08,3.31-3.15l0-1-.62-.69L75,2.08Z"/><path d="M102.34,4.27l0-.83c-.23-.51-.79-.84-1.18-1.31l-.79,0c-.41,0-.61.69-1.16.5l-.92.88c-.74,0-.9-.48-1.19-.82,0-.15,0-.36.08-.45.68-.67,1.37-1.32,2.09-2l1.93,0,.49.44.88,0c1,.66,1,1.87,1.67,2.72l0,.9-.48.5,0,.93-.57.59,1,2,0,1.21c-.45.44-.6,1.14-1.08,1.66s-1.25.29-1.48,1l-1.91,0-1.34-.81-1.18-1.23C97.06,10,97,10,97,9.9l.69-.66c.86-.26,1.46.34,2.08.71a2.1,2.1,0,0,0,1.19.28c.5-.23.84-.78,1.28-1.17l0-1c-.32-.36-.92-.2-1.17-.7a1.15,1.15,0,0,0-1.15-.59l0-1.08c.07-.07.16-.24.28-.27A4,4,0,0,0,102.34,4.27Z"/><path d="M14,4.52l1.35-1.41.9.06c.19.46.25.93.64,1.24l-.1,4.71.5.6c-.09.19-.18.39-.29.58s-.19.24-.25.37a6.06,6.06,0,0,0-.21.59l-1,0-.66-.69c-.07-1.17.08-2.35,0-3.59l-2,0a4.6,4.6,0,0,0-.7-.5c-.11,0-.29,0-.44.06-.54.55.11.8.28,1.11l-.05,2.71-.72,1.33-1,0-.67-1.35.14-6.14,1.23-.93c.57.33,1.4.55,1.79,1.32Z"/><path d="M7.15,10.52l-.62,1c-.76.09-.88-.4-1.27-.61L5.35,7c-.49-.39-.51.2-.88.23l-1.3,0-.5-.49-.47,0c-.06.06-.17.11-.17.17,0,.62,0,1.25,0,2l.41.48,0,.93c-.22.36-.86.5-.41,1.16l-1.35,0c-.12-.32-.22-.59-.34-.86a.67.67,0,0,0-.16-.18c0-.06-.11-.12-.11-.19C0,8.07.08,6,.13,4L1.37,2.84l1.82,1.9,1,0A4,4,0,0,1,5.72,2.88c.78.07,1,.85,1.57,1.26Z"/><path d="M203.65,2.21l0,1c-.59.32-.46,1.12-1,1.48a1.62,1.62,0,0,1-.51,1.45c.28.7-.46,1.09-.51,1.69s0,1.09,0,1.55l-.5.48-.05,2.4c-.14.11-.2.2-.26.2-.32,0-.63,0-.93,0l-.67-.71a1.64,1.64,0,0,1,0-.23c0-1.18,0-2.37.08-3.58l.48-.51,0-.92.49-.5,0-1.42.48-.48,0-1c-.13-.08-.26-.22-.39-.23l-2.78-.07L197,2.13a1.2,1.2,0,0,1,1-1.25,4.69,4.69,0,0,0,.78-.44L202,.51C202.39,1.18,203.42.92,203.65,2.21Z"/><path d="M272.74,9.91l.45.5c.14.49-.24.71-.5,1l0,.95c-.33.4-.75.09-1.11.24l-.76-.75,0-1.45-.44-.46.16-7.26,1.22-1,1.13,1.1C272.84,5.16,272.79,7.53,272.74,9.91Z"/><path d="M50.64,11.06l.14-6.32-.46-.62,0-1.35c.45-.48.46-1.36,1.26-1.67.17.33.61.45.65.93,0,.25.26.49.4.74l-.39.38L52.14,9l.39.47c.09.42-.19.59-.37.84a3.42,3.42,0,0,0-.31.79Z"/><path d="M38.38,24.2l.83,0a2.91,2.91,0,0,1,0,1.8c-.46-.05-.52-.52-.83-.63Z"/></g></g></svg>