<svg xmlns="http://www.w3.org/2000/svg" viewBox="0 0 118.78 133.03"><title>Recurso 59ART</title><g id="Capa_2" data-name="Capa 2"><g id="Capa_1-2" data-name="Capa 1"><path d="M49.89,83.15H47.55s0,0,0-.05q0-16.59,0-33.17l0,0h2.29l0,0c0-.39,0-3.72,0-4.7,0,0,0,0,0,0H47.56l0,0V35.68l-.05,0H45.18c-.07,0,0-.12,0-.18V33.29c-.49,0-5.07,0-7.09,0l0,0a0,0,0,0,0,0,0v2.26l0,0H30.92c-.06.11,0,.22,0,.32a2.62,2.62,0,0,0,0,.28v1.5c0,.09,0,.19,0,.28H26.17s0,0,0,.05,0,0,0,.08v2.21s0,0,0,0H11.94l0,0s0,0,0,0v2.29l0,0h-7l0,0v2.3l0,0H2.42c-.06,0,0-.12,0-.18V42.8l0,0H0a18.28,18.28,0,0,1,0-2.37H2.35c.06-.11,0-.21,0-.31a2.61,2.61,0,0,0,0-.28V38.3a.74.74,0,0,1,0-.29H4.72l0,0V35.68c.08-.08.17,0,.26,0H19a1.25,1.25,0,0,0,0-.33v-2l0,0h4.67l.05,0v-2.3s0,0,0,0,0,0,0,0h9.38c.07-.05,0-.12,0-.18V28.55l.05,0H38s0,0,0,0,0,0,0,0V26.19s0,0,0-.05h4.67l0,0V23.81l0,0h7.05l0,0V21.43c0-.07.12,0,.18,0h4.55c0-.48.05-5.33,0-7.1l0,0h-2.3l0,0V4.78c.1,0,.21,0,.31,0h1.78a.69.69,0,0,0,.28,0V2.42s0,0,0,0H57l0,0s0,0,0,0V.06l0,0c.39,0,3.7,0,4.7,0,0,0,0,0,0,0a.06.06,0,0,1,0,0V2.34s0,0,0,0h2.3l0,0a.21.21,0,0,1,0,.08V4.72c0,.06.12,0,.19,0h2.16c0,.48.06,5.11,0,7.09l0,0h-2.3l0,0v9.45c.1.06.21,0,.31,0h3.8c.1,0,.21,0,.31,0a.7.7,0,0,1,.32,0v2.31l0,0h7l0,0a.06.06,0,0,1,0,0v2.25a.08.08,0,0,0,0,0l0,0h4.67l0,0v2.3s0,0,0,0h11.8l0,0v2.3c.06.07.15,0,.22,0h9.24l0,0v2.29s0,0,0,0h0c2,0,4.19,0,4.68,0V30.93l0,0h7l0,0V35.6l0,0h4.67l0,0s0,0,0,0V38a.75.75,0,0,1-.33,0c-.12,0-.23,0-.35,0h-1.66l0,0s0,0,0,0v2.25l0,0h-4.69l0,0v-2.3c-.09-.07-.2,0-.3,0H92.69l0,0V35.68l0,0H80.82l0,0,0,0V33.33a0,0,0,0,0,0,0s0,0,0,0h-7l0,0v2.29s0,0-.05,0H71.31c-.07,0,0,.12,0,.18v4.53l0,0H68.93l0,0V54.55s0,.05,0,.09h2.31l0,0V78.35s0,0,0,.05h-2.3l0,0a.49.49,0,0,0,0,.12v6.92s0,0,0,0H66.57l0,0,0,0v23.67l0,0H64.19l0,0v18.93l-.05,0H61.81l0,0V133l-.05,0H59.43l0,0v-2.29s0,0,0,0l0,0h-7l0,0v0q0-9.44,0-18.88s0,0,0,0h-2.3l0,0V83.15Zm9.47,40.37s0,0,0,0V104.57l0,0H57.05l0,0v18.92s0,0,0,0Zm0-21.38V90.32l0,0h-2.2s-.11,0-.14,0v11.79s0,0,0,0Zm0-23.74H57.14s-.06,0-.08,0,0,0,0,0a.15.15,0,0,0,0,.07v4.55a.38.38,0,0,0,0,.1h2.3l0,0Z"/></g></g></svg>