<svg xmlns="http://www.w3.org/2000/svg" viewBox="0 0 125.42 88.41"><title>Recurso 29ART</title><g id="Capa_2" data-name="Capa 2"><g id="Capa_1-2" data-name="Capa 1"><path d="M75.32,82.51H66.61l-.22,1.15a3.22,3.22,0,0,1-1.5.09l-.19-1.21H47.34c-.47-.54,0-1.17-.42-1.71H43.11c-.35-.37-.13-.74-.22-1.07,0-.05-.1-.14-.15-.14-1.45,0-2.9-.06-4.42-.09l-.08-1.48c-.43-.35-.94-.11-1.41-.17s-1,.12-1.44-.13l-.11-1c-.07-.06-.12-.16-.17-.16H32.59c-.5-.45,0-1.08-.35-1.65-.83-.1-1.73,0-2.71-.07l-.19-1.16-1-.12c-.32-.44-.08-.94-.15-1.41-.43-.54-1.07,0-1.55-.3-.28-.29-.05-.67-.18-1.1-.88-.25-1.86,0-2.75-.13-.08-.11-.15-.17-.15-.22V68c.47-.37,1-.16,1.44-.18a15.69,15.69,0,0,1,1.68,0,3.14,3.14,0,0,1,1.45.13l.11,1c.3.31.68.08,1,.16.5.44,0,1.08.35,1.64H31l.2,1.28h3.91c.37.52.14,1,.22,1.58.88.36,1.88-.05,2.8.2.27.3,0,.67.18,1.11.88.23,1.86,0,2.85.14l.08,1.46c.12,0,.24.16.36.16h4s.1.08.18.14l.11,1a1.21,1.21,0,0,0,.37.14H66.35l.21-1.14a.88.88,0,0,1,.17-.12.74.74,0,0,1,.21,0h3.54c.47-.48,0-1.12.38-1.66h4.22c.39-.36.16-.74.24-1.06.1-.08.21-.22.32-.22.83,0,1.66,0,2.45,0,.3-.52.11-1,.19-1.49.11-.06.22-.18.34-.18.83,0,1.66,0,2.53,0l.1-1.1c.43-.35.94-.12,1.4-.16s.85,0,1.27,0a3.12,3.12,0,0,0,1.49-.15V69.23c.52-.34,1-.13,1.57-.2l.23-1.22,1-.06c.44-.45-.06-1.09.35-1.64h2.54c.38-.36.16-.73.24-1.06.43-.53,1.07,0,1.56-.31.25-.44.08-.93.11-1.41s0-.83,0-1.33l1.19-.21c.18-.89,0-1.8.11-2.69.46-.41,1.09.07,1.6-.32V50.26c-.46-.34-1,0-1.54-.27-.39-.34.12-1-.19-1.46a.57.57,0,0,0-.16-.11.72.72,0,0,0-.21,0H90.15L90,47.2H85.58c-.31.29-.08.66-.18,1.08l-1.11.21s-.11.1-.13.16a.74.74,0,0,0,0,.21V54.1c-.47.48-1.1,0-1.59.32a3.75,3.75,0,0,0-.09,1.42c0,.49,0,1,0,1.47v1.41c-.32.37-.69.14-1,.22-.08.1-.23.2-.23.3,0,.83,0,1.67,0,2.45-.51.38-1,.05-1.52.27,0,0-.15.15-.15.26,0,.83,0,1.66,0,2.56l-1.17.09-.19,1.2H75.52c-.36.52-.14,1-.2,1.49-.44.51-1.07,0-1.66.33l0,1c-.12.06-.23.18-.35.18-.77,0-1.54,0-2.31,0-.06,0-.11.07-.23.14,0,.43,0,.91-.08,1.37-.12.06-.24.17-.36.17H66.71s-.1.08-.18.15l-.1,1a1.37,1.37,0,0,1-.38.14H60.79c-.49.45,0,1.08-.3,1.56-.05,0-.11.12-.16.12H54.9c-.47-.49,0-1.12-.38-1.67H49c-.38-.36-.16-.73-.23-1.06-.11-.07-.22-.21-.33-.21H44.33c-.29-.53-.09-1-.18-1.49-.12-.06-.23-.18-.35-.18-.77,0-1.54,0-2.31,0-.06,0-.11-.07-.21-.13l-.11-1c-.28-.31-.65-.09-1-.16-.08-.11-.22-.21-.22-.31,0-.41,0-.82,0-1.19-.52-.36-1-.06-1.56-.27a3.46,3.46,0,0,1-.12-.47c0-.2,0-.4-.07-.66-.92-.12-1.82,0-2.71-.08-.43-.46.06-1.09-.32-1.59l-1-.11a1,1,0,0,1-.15-.37c0-1.19,0-2.38,0-3.58-.44-.51-1.07,0-1.65-.36-.08-1.39,0-2.84,0-4.3-.42-.39-.93-.15-1.4-.17a3.08,3.08,0,0,0-1.49.11l-.07,1.39c-.45.34-.95.11-1.42.17s-1-.13-1.44.14l-.11,1c-.31.3-.68.07-1,.16-.48.45,0,1.08-.34,1.63L23.63,59l-.18,1.16-1,.12c-.31.45-.1,1-.16,1.42-.44.51-1.07,0-1.65.36l-.06,1-1.19.19-.07,1.42c-.14.06-.26.16-.37.16-.78,0-1.55,0-2.42,0L16.31,66a1.82,1.82,0,0,1-.37.13H13.53c-.26-.92,0-1.9-.14-2.82a3,3,0,0,0-1.47-.09c-.42.46.07,1.09-.33,1.61H7.71c-.07-.07-.15-.12-.16-.17a3,3,0,0,1,0-.42V59.07l1.21-.23V57.51c.53-.53,1.17,0,1.67-.39l.11-1c.29-.31.67-.09,1-.16.08-.11.22-.21.22-.32,0-.83,0-1.66,0-2.42-.37-.35-.74-.13-1.07-.22-.47-.45,0-1.08-.34-1.63L9,51.32c-.29-.21-.15-.51-.17-.77s0-.42,0-.63,0-.56,0-.84a6.5,6.5,0,0,1,.07-.66h2.65c.37-.37.14-.74.22-1.07.45-.49,1.08,0,1.64-.34V45.69c.19-.1.3-.22.42-.22h7.57c.27,0,.56.09.83-.12l.11-1c.12,0,.24-.15.36-.15H49.83c.53-.43,0-1.06.28-1.53.07-.06.12-.14.18-.15s.28,0,.42,0h3.77c.36-.37.22-.76.11-1.15-.05,0-.11-.11-.16-.11H48.89l-.19,1.21H29.6c-.32-.3-.09-.68-.17-1,.11-.07.22-.21.33-.21h5.51V39.8c.19-.1.31-.22.42-.22h9.05c.34,0,.69.11,1-.12l.12-1c.28-.31.66-.09,1.08-.18l.2,1.14c.06,0,.11.13.16.14h2.6l.2-1.14c.07,0,.13-.12.18-.12h4.27l.2,1.25h2.64c.39.51.07,1,.25,1.44-.49.55-1.12,0-1.61.34-.23.31-.08.66-.09,1,.11.06.23.18.34.18q12.21,0,24.41,0a1.64,1.64,0,0,0,.42-.11c0-.32.07-.65.11-1,.12-.06.23-.16.35-.16h36c.05,0,.1.08.23.19V44c.13.12.17.2.23.21a2.94,2.94,0,0,0,.42,0h3.78c.36.36.21.75.1,1.22l-1.4.08a1.08,1.08,0,0,0-.17.34c0,.41,0,.82,0,1.29h-2.71c-.38.37-.16.74-.23,1.06.44.52,1.07,0,1.55.3.29.45,0,.95.18,1.43.08,0,.2.17.31.17h3.8v1.11c-.43.32-.93.1-1.4.14s-.84,0-1.26,0a3,3,0,0,0-1.49.16v1.34c-.53.32-1,.12-1.49.19-.36.35-.21.75-.09,1.21l1.44.08a2.65,2.65,0,0,1,0,1.63h-2.76c0,.26-.07.45-.09.65a3,3,0,0,0,0,.42c-.11.07-.21.2-.33.2-1.39,0-2.78,0-4.13,0a2.93,2.93,0,0,0-.15,1.5c.46.46,1.09,0,1.6.32l.11,1c.29.33.67,0,1,.24,0,0,.15.12.16.23,0,.41,0,.83,0,1.21a1.6,1.6,0,0,1-.44.16H109.2c-.42.43-.16.94-.19,1.4s0,1,0,1.5l1.57.09a3.15,3.15,0,0,1,.1.55,4.51,4.51,0,0,1-.07.66h-2.68c-.33.52-.15,1-.18,1.48s0,.85,0,1.27c-.26.34-.63.2-1,.2-1.18,0-2.36,0-3.49,0-.33.54-.07,1-.21,1.45.51.5,1.14,0,1.67.38v1c-.44.31-.94.08-1.41.15-.52.43,0,1.06-.28,1.52a.83.83,0,0,1-.18.16.74.74,0,0,1-.21,0H99c-.07.38-.13.77-.21,1.22L97.38,75c-.06.12-.16.23-.16.35,0,1.39,0,2.77,0,4.23H91.5c-.33.52-.15,1-.18,1.49s0,.84,0,1.34l-1.23.23c0,.31,0,.65-.06,1-.12.06-.23.18-.35.18H82.32a1.7,1.7,0,0,0-1.07.13l-.07,1.37c-.45.38-1,0-1.5.28,0,0-.14.11-.14.21,0,.84,0,1.67,0,2.43-.13.11-.18.2-.23.2H76.68c-.26-.92,0-1.9-.16-2.88-.92-.15-1.82,0-2.76-.11a2.69,2.69,0,0,1,0-1.62h1.38c.34-.45.15-.88.21-1.28h2.94V80.83h5.8l.19-1.28H87c.26-.58.06-1.14.13-1.63.38-.18.8.12,1.17-.16.1-.38.22-.76-.08-1.1H87.11v1.26c-1.51,0-3,0-4.46,0-.4.58.08,1.19-.38,1.68H78.58c-.11,0-.21.14-.32.22v1H75.32ZM51.74,53c0,1.32,0,2.63,0,4,0,0,.06.1.17.26h.92c.28,0,.56,0,.83,0s.69.14,1-.15v-1c-.51-.37-1.13.09-1.63-.35,0-.79,0-1.61,0-2.43,0-.11-.14-.21-.22-.32h-1a6.81,6.81,0,0,0-.08-1.58c-.55-.29-1.18.19-1.63-.35,0-.26,0-.54,0-.82,0,0-.09-.1-.15-.15H46a1.07,1.07,0,0,0,0,1.18l1.09.1c0,1.43,0,2.82,0,4.2,0,.12.11.23.22.42H48.7l.22,1.22c.41-.07.77.13,1.14-.21,0-.62,0-1.31,0-2a6.15,6.15,0,0,1,.12-2Zm16-1.75c0-.57,0-1,0-1.4s.15-1-.16-1.48c-.45,0-.93,0-1.4,0s-1-.23-1.38.2c0,.84,0,1.68,0,2.51,0,0-.09.1-.13.16l-1.13.2c0,.51,0,.93,0,1.34s-.15,1,.16,1.48c.45,0,.93,0,1.4,0s1,.23,1.38-.21c0-.83,0-1.67,0-2.51,0,0,.09-.1.15-.17ZM40,57.22c0-1.44,0-2.69,0-3.95,0-.05-.08-.1-.16-.19-.45-.22-1.08.25-1.52-.25-.05-.47.15-1-.15-1.43H37c0,1.62,0,3.21,0,4.79,0,.33-.15.69.15,1Zm36.63-5.86c.52,0,1,0,1.47,0s1,.15,1.43-.14V50.1H78c-.42,0-.84,0-1.25,0s-1-.15-1.47.17c0,1.22,0,2.46,0,3.71,0,.11.13.22.2.33.33-.08.7.14,1.06-.22ZM58.9,57.09a2,2,0,0,0,1.7,0c-.09-.37.13-.74-.17-1-.52,0-1-.19-1.53.15Z"/><path d="M8.68,35.31l-1.1.12-.06,1c-.12.06-.23.17-.35.18-.83,0-1.65,0-2.53,0l-.08,1.51c-.26.26-2.09.27-4.56,0V35.51c.48-.28,1-.09,1.45-.16.46-.45,0-1.07.27-1.62l1.1-.1L3,32.43H4.4c.35-.52.14-1,.2-1.57l1.2-.23V28c.54-.48,1.15-.1,1.67-.3l.12-1c.16-.16.16-.16,1-.17.55-.43,0-1.07.31-1.55.44-.27.94-.07,1.47-.15,0-.17.1-.35.13-.54s0-.4.07-.65l1-.09c.4-.46,0-1.07.23-1.64h2.66c.13-.12.21-.17.22-.22,0-.28,0-.56,0-.85.45-.47,1.07,0,1.64-.28V19.17c.19-.1.3-.22.42-.22h2.31c.06,0,.11-.07.2-.13l.11-1c.12-.05.24-.15.36-.15.77,0,1.54,0,2.31,0,.55-.43,0-1.06.31-1.54,0-.05.09-.13.15-.14a2.94,2.94,0,0,1,.42,0h3.44l.21-1.15A3.31,3.31,0,0,1,28,14.74c.49,0,1,0,1.48,0h1.43c.44-.49.06-1.1.27-1.66h4c0-.26.08-.45.1-.64a2.94,2.94,0,0,0,0-.42c.11-.08.22-.21.33-.21,1.81,0,3.63,0,5.4,0,.29-.53.1-1,.19-1.49.11-.07.22-.19.34-.19H47L47.15,9c.05,0,.09-.12.15-.15a.68.68,0,0,1,.2,0h8.21s.11-.07.23-.18V7.4c.13-.14.17-.23.23-.24a2.94,2.94,0,0,1,.42,0h11L67.82,6A.88.88,0,0,1,68,5.9a.72.72,0,0,1,.21,0h8.18c.45-.48.05-1.09.27-1.65h7.26c.4-.36.18-.73.25-1.06.1-.08.2-.22.31-.22,2.23,0,4.47,0,6.67,0,.31-.52.11-1,.18-1.48.11-.07.23-.2.34-.2h10.13c0-.41,0-.75.08-1.08.11-.06.23-.17.34-.17h18.31s.11.07.2.13l.11,1c.44.32.94.12,1.41.14s1.12,0,1.68,0h1.44c0,.34,0,.54,0,.74s0,.54,0,.74-.17.2-.22.2H102l-.21,1.13c-.07,0-.11.11-.17.12a.74.74,0,0,1-.21,0H96.15c-.44.49-.05,1.1-.28,1.66H87.34c-.38.36-.16.73-.23,1.06-.11.08-.22.22-.32.22H79.7c-.3.52-.11,1-.18,1.48-.12.07-.23.19-.34.19H72.43l-.09,1.09a.7.7,0,0,1-.16.14.4.4,0,0,1-.19,0H65c-.05,0-.1.07-.21.16l-.06,1.35a1.11,1.11,0,0,1-.39.16H60.72c-.07.36-.14.75-.22,1.13a.61.61,0,0,1-.16.12.49.49,0,0,1-.21,0h-4c-.46.47,0,1.09-.28,1.65h-4c0,.26-.09.45-.11.64a3,3,0,0,0,0,.42c-.1.08-.2.22-.3.23H47.29c-.32.51-.12,1-.18,1.48-.12.06-.23.19-.34.19-1.25,0-2.5,0-3.82,0l-.08,1.09c-.42.37-.93.13-1.4.16s-1.12,0-1.68,0H38.32l-.08,1.52c-.14.06-.26.16-.38.16h-2.4l-.21,1.14a3,3,0,0,1-1.42.11c-.42,0-.84,0-1.24,0-.49.46,0,1.1-.32,1.58a2.76,2.76,0,0,1-1.21.1c-.49,0-1,0-1.47,0H28.38c-.38.32-.1.71-.28,1.08,0,0-.13.17-.23.18-.84,0-1.67,0-2.47,0-.33.51-.12,1-.18,1.47-.11.07-.22.2-.34.2-.83,0-1.66,0-2.56,0l-.07,1.09c-.43.37-.93.13-1.4.17s-1,0-1.48,0L19.3,29.3c-.46.33-1,.1-1.53.18-.06.35-.13.73-.2,1.12-.05,0-.1.12-.16.12h-2.5c-.07.06-.15.11-.16.16,0,.47-.07.95-.11,1.46-.93.16-1.83,0-2.8.11l-.19,1.21H9C8.62,34.18,8.94,34.69,8.68,35.31ZM22.27,21.89h2.78c.28-.46.13-.87.17-1.26h2.69c.05,0,.11-.07.28-.19-.18-.43.22-1-.19-1.45H25.32a6.16,6.16,0,0,0-.1,1.65H22.45c-.28.46-.13.87-.18,1.26H20.59v1.68H17.91c-.06,0-.11.07-.16.1a1.07,1.07,0,0,0,.1,1.16h2.43c.11,0,.21-.15.31-.22v-1h1.68Zm13-5.89c-.61,0-1,0-1.44,0s-1-.14-1.42.14a2.16,2.16,0,0,0,.15,1.54c.44,0,.86,0,1.27,0s1,.15,1.44-.14Zm-5.86,2.79a2.06,2.06,0,0,0,1.7,0c-.09-.38.13-.75-.17-1.05a2.19,2.19,0,0,0-1.53.15Z"/></g></g></svg>