<svg xmlns="http://www.w3.org/2000/svg" viewBox="0 0 150.75 150.75"><title>Recurso 52MANDALA</title><g id="Capa_2" data-name="Capa 2"><g id="Capa_1-2" data-name="Capa 1"><path d="M55.05,133.25C37,115.19,31.53,91.37,42.86,80c4.11-4.12,9.89-6,16.44-5.89-8.9-1.61-16.93,0-22.22,5.31-11.33,11.32-5.87,35.14,12.19,53.21,11.5,11.49,25.31,17.87,36.77,18.08C75.91,148.91,64.67,142.86,55.05,133.25Z"/><path d="M86.71,135.66c-24.67-6.61-41.31-24.51-37.16-40,1.5-5.63,5.56-10.16,11.29-13.32-8.51,3-14.65,8.46-16.59,15.7-4.15,15.47,12.49,33.37,37.17,40,15.69,4.21,30.85,2.82,40.88-2.72C112.61,138.79,99.85,139.18,86.71,135.66Z"/><path d="M115.34,121.91c-24.68,6.61-48-.57-52.18-16-1.51-5.63-.26-11.57,3.12-17.18-5.85,6.89-8.46,14.66-6.52,21.89,4.15,15.47,27.51,22.65,52.18,16,15.7-4.2,28.13-13,34-22.79C139.32,111.67,128.47,118.39,115.34,121.91Z"/><path d="M133.25,95.7C115.19,113.76,91.37,119.22,80,107.89c-4.12-4.12-6-9.89-5.89-16.44-1.61,8.89,0,16.93,5.31,22.22,11.32,11.33,35.14,5.87,53.21-12.19,11.49-11.5,17.87-25.32,18.08-36.77C148.91,74.84,142.86,86.08,133.25,95.7Z"/><path d="M135.66,64c-6.61,24.67-24.51,41.31-40,37.16-5.63-1.5-10.16-5.56-13.32-11.29,3,8.51,8.46,14.65,15.7,16.59,15.47,4.15,33.37-12.49,40-37.17,4.21-15.69,2.82-30.85-2.72-40.88C138.79,38.14,139.18,50.9,135.66,64Z"/><path d="M121.91,35.41c6.61,24.68-.57,48-16,52.18-5.63,1.51-11.57.26-17.18-3.12,6.89,5.85,14.66,8.46,21.89,6.52,15.47-4.15,22.65-27.51,16-52.18-4.2-15.7-13-28.13-22.79-34C111.67,11.42,118.39,22.28,121.91,35.41Z"/><path d="M95.7,17.5c18.06,18.06,23.52,41.88,12.19,53.21-4.12,4.12-9.89,6-16.44,5.88,8.89,1.62,16.93,0,22.22-5.3C125,60,119.54,36.15,101.48,18.08,90,6.59,76.16.21,64.71,0,74.84,1.84,86.08,7.88,95.7,17.5Z"/><path d="M64,15.09c24.67,6.61,41.31,24.51,37.16,40-1.5,5.63-5.56,10.15-11.29,13.32,8.51-3,14.65-8.46,16.59-15.7,4.15-15.47-12.49-33.37-37.17-40C53.64,8.5,38.48,9.89,28.45,15.43,38.14,12,50.9,11.57,64,15.09Z"/><path d="M35.41,28.84c24.68-6.61,48,.57,52.18,16,1.51,5.63.26,11.57-3.12,17.18C90.32,55.17,92.93,47.4,91,40.17c-4.15-15.47-27.51-22.66-52.18-16-15.7,4.2-28.13,13-34,22.79C11.42,39.07,22.28,32.36,35.41,28.84Z"/><path d="M17.5,55.05C35.56,37,59.38,31.53,70.71,42.86c4.12,4.11,6,9.89,5.88,16.44,1.62-8.9,0-16.93-5.3-22.22C60,25.75,36.15,31.21,18.08,49.27,6.59,60.77.21,74.58,0,86,1.84,75.91,7.88,64.67,17.5,55.05Z"/><path d="M15.09,86.71C21.7,62,39.6,45.4,55.07,49.55c5.63,1.5,10.15,5.56,13.32,11.29-3-8.51-8.46-14.65-15.7-16.59-15.47-4.15-33.37,12.49-40,37.17C8.5,97.11,9.89,112.27,15.43,122.3,12,112.61,11.57,99.85,15.09,86.71Z"/><path d="M28.84,115.34c-6.61-24.68.57-48,16-52.18,5.63-1.51,11.57-.26,17.18,3.12-6.89-5.85-14.66-8.46-21.89-6.52-15.47,4.15-22.66,27.51-16,52.18,4.2,15.7,13,28.13,22.79,34C39.07,139.32,32.36,128.47,28.84,115.34Z"/></g></g></svg>