<svg xmlns="http://www.w3.org/2000/svg" viewBox="0 0 77.57 77.57"><title>Recurso 33MANDALA</title><g id="Capa_2" data-name="Capa 2"><g id="Capa_1-2" data-name="Capa 1"><path d="M39.49,18.07,46.57,1A.7.7,0,0,0,45.4.24l-6,6.92a.69.69,0,0,1-1,0l-6-6.92A.7.7,0,0,0,31.12,1l7.08,17.1A.7.7,0,0,0,39.49,18.07Z"/><path d="M24.63,23.64,17.55,6.54a.7.7,0,0,0-1.34.31L16.84,16a.71.71,0,0,1-.74.75l-9.16-.63a.7.7,0,0,0-.32,1.34l17.1,7.08A.7.7,0,0,0,24.63,23.64Z"/><path d="M18.07,38.08,1,31a.7.7,0,0,0-.73,1.17l6.92,6a.69.69,0,0,1,0,1l-6.92,6A.69.69,0,0,0,1,46.45l17.1-7.08A.7.7,0,0,0,18.07,38.08Z"/><path d="M23.64,52.94,6.54,60a.7.7,0,0,0,.31,1.34L16,60.73a.71.71,0,0,1,.75.75l-.63,9.16a.7.7,0,0,0,1.34.31l7.08-17.1A.7.7,0,0,0,23.64,52.94Z"/><path d="M38.08,59.5,31,76.6a.7.7,0,0,0,1.17.73l6-6.92a.69.69,0,0,1,1,0l6,6.92a.69.69,0,0,0,1.16-.73L39.37,59.5A.7.7,0,0,0,38.08,59.5Z"/><path d="M52.94,53.93,60,71a.7.7,0,0,0,1.34-.31l-.63-9.16a.7.7,0,0,1,.75-.74l9.16.62A.69.69,0,0,0,71,60.11L53.85,53A.7.7,0,0,0,52.94,53.93Z"/><path d="M59.5,39.49l17.1,7.08a.7.7,0,0,0,.73-1.17l-6.92-6a.69.69,0,0,1,0-1l6.92-6a.7.7,0,0,0-.73-1.17L59.5,38.2A.7.7,0,0,0,59.5,39.49Z"/><path d="M53.93,24.63,71,17.55a.7.7,0,0,0-.31-1.34l-9.16.63a.69.69,0,0,1-.74-.74l.62-9.16a.69.69,0,0,0-1.33-.32L53,23.72A.7.7,0,0,0,53.93,24.63Z"/></g></g></svg>