<svg xmlns="http://www.w3.org/2000/svg" viewBox="0 0 241.04 227.92"><title>Recurso 18GRAPHS</title><g id="Capa_2" data-name="Capa 2"><g id="Capa_1-2" data-name="Capa 1"><path d="M72.25,220.09l.77.75H91.13c.07,0,.13-.08.29-.19V51.47c.46-.9,1.4-.79,1.84-1.36h3l.55.46c.59.12.76-.35,1-.55.08-.1.17-.17.17-.23,0-4.71,0-9.42,0-14.1-.54-.53-1.17,0-1.85-.43C96,35,95.5,35,95,34.75V33.6l.91-.39c.07,0,.12-.11.18-.17s.13-.12.2-.12h4.77l1.47.76v1a6,6,0,0,1-2.47.91V50.4c.67.17.67.17,1.23-.3h3c.36.65,1,.45,1.55.54.07.15.19.29.19.43q0,20,0,39.91V220.8h18.49l.57-.57a.76.76,0,0,0,.13-.2.7.7,0,0,0,0-.25v-151a1,1,0,0,1,0-.24l1.39-.72h4.44a2.32,2.32,0,0,0,.18-.65q0-12.24,0-24.5a3.2,3.2,0,0,0-.12-.54,4.64,4.64,0,0,1-2.4-.82V39.73c.42-.55,1.36.09,1.7-.73h3.56a8.52,8.52,0,0,0,1.75.64v1.67c-.43.24-.95.26-1.26.71h-1c-.08.15-.22.29-.22.43q0,12.38,0,24.75a2.38,2.38,0,0,0,.15.54h5.12c.44.45.8.8,1.16,1.16a1.88,1.88,0,0,1,.12.45q0,73.89,0,147.77v2.43l-.47.57.58.58c.06.05.12.14.19.14h18.14a1.37,1.37,0,0,0,.21-.21.59.59,0,0,0,0-.23V114l1.45-1.26h4.43c.1-.16.18-.22.18-.29V97.83c-.38-.46-.84-.12-1.41-.4l-.55-.66V95.23c.12-.09.18-.17.25-.17h6c.25.36.68.54.75.83,0,.67-.47.84-.73,1.13a1.5,1.5,0,0,1-.78.54c-.5.06-.63.51-1,.73V112l.69.74h4.57l1.16,1.17a1.85,1.85,0,0,1,.11.45q0,51.4,0,102.81v2.4l-.47.59.59.58c.26.18,12.19.23,18.36.09a1,1,0,0,0,.18-.18.63.63,0,0,0,0-.24V142.26l1.36-1.24h4.64V130.6c-.34-.4-.8,0-1.15-.25l-1.29-.67v-1l1.38-.72h4.84l1.31.74v1l-1.41.73h-.83c-.09.13-.25.26-.25.4,0,3.35,0,6.7,0,10,.16.13.21.2.29.23a1,1,0,0,0,.25,0h4.07l1.45.75q0,39.39,0,78.79c0,.07.1.13.19.24h18.24l.59-.53c.08-.11.15-.17.16-.24a4.34,4.34,0,0,0,0-.51V166.23a1,1,0,0,1,0-.24l.71-.72h5.17a7.48,7.48,0,0,0,.13-2.41c0-.83,0-1.66,0-2.58h-1.74c-.3-.41-.72-.59-.78-.83,0-.72.48-.85.71-1.22h5.67l.63.59c.16.77-.31.94-.62,1.34h-1.58c-.12.23-.26.37-.26.51,0,1.43,0,2.86,0,4.29,0,.07.08.13.17.25h4.31l1.5.77.13.61.32.32c.19.3.26,48.75.08,55.64-.47.47-.88.89-1.34,1.34H48.35a10.17,10.17,0,0,1-1.54.89,2,2,0,0,1-1.17,0,10.36,10.36,0,0,1-1.53-.88h-.92L42,222.51v-1l.88-.72h4c.27-3,.33-20.09.14-34.12-.51-.46-1.12-.13-1.68-.22s-.56-.94-1.28-.4v-1.92c.39-.38.84-.11,1.2-.21l.54-.48.39.39c.38,0,.45-.38.69-.5.06-.08.16-.14.16-.21V148.85c-.09-.09-.15-.2-.21-.2h-2l-.8-.76,0-1,.71-.78h2.09a1.52,1.52,0,0,0,.23-.51q0-17,0-34.1c0-.23-.06-.46-.09-.74H45.52L44.06,110A3.55,3.55,0,0,1,44,108.4l.72-.72H46.8A2.34,2.34,0,0,0,47,107Q47,92.51,47,78V73a3.18,3.18,0,0,0-1.52-.17L44,72.08V70.51l.87-.75h2c.21-2.78.28-26.74.1-35.21a9.31,9.31,0,0,0-2.28-.13L44,33.59V32.18s0-.1.07-.12c.35-.16.71-.31,1.51-.64l1.21-.06a1.41,1.41,0,0,0,.19-.45c0-5.47,0-10.94,0-16.45l1.27-1.18c.27.37.78.39,1.27.66V220.63c.16.12.22.21.28.21h8a1.37,1.37,0,0,0,.21-.21.56.56,0,0,0,0-.23q0-91.56,0-183.17l1.49-.78h4.33c.13-.15.23-.22.23-.28,0-1.68,0-3.36,0-5l-.75-.74h-1l-.7-.83v-.95l.65-.7H68l.76.66v1.06l-.74.73h-1c-.2.24-.42.49-.68.81v5.1a2.94,2.94,0,0,0,1.51.16c.59,0,1.18,0,1.77,0h1.25l1.47.75Z"/><path d="M12,68.71c.34-.38.08-.82.19-1.2l1.25-1.26h.49l.53-.49h1c.63.92,1.84,1.09,2.49,2,.55-1,1.88-1,2.41-2l1,0c.64.22.81,1.13,1.62,1a1.8,1.8,0,0,1,.91,1.53l.75-.06.22-.77a5,5,0,0,1,2.49-1.7H28l1,1,.52,0c.29.47.39,1.06,1,1.46.19-.2.55-.39.59-.63.11-.65.55-.83,1.07-1a14.4,14.4,0,0,0,1.47-.81,4.51,4.51,0,0,1,2.69,1.88v.91l.43.43v3.56l-.43.53v.78c-.31.94-1.27.84-1.75,1.45h-2.1l-2-2-.77.75v.51l-1.43.74H26.64a9.22,9.22,0,0,1-1.45-.85,4.88,4.88,0,0,1-.73-1.15c-.64-.1-.83.48-1.21.76v.51l-1.43.73H20l-.53-.48h-.64l-.81-1c-.29,0-.51,0-.6.07-.5.46-1,1-1.46,1.44h-2l-.52-.48h-.5L11.8,72.7l-.24,1-1.79,1.7H7.36L5.57,73.59V71.06l.58-.64-.53-1v-1.1L8.1,65.79A1.56,1.56,0,0,1,9.17,66c1.26.81,1.51.83,1.92,1.71A1.85,1.85,0,0,0,12,68.71Zm4.22,3.35V69.5c-.34-.32-.68-.69-1.07-1a2.89,2.89,0,0,0-.68-.29l-.74.92v3.5c.37.24.5.74,1.14.7C15.34,73.08,15.67,72.47,16.18,72.06Zm11.25-3.85c-.23.11-.63.24-.62.31.09.51-.28.75-.52,1v3.1c.43.17.58.85,1.29.66l.66-.73V69Zm5.42.82v3.54c.38.28.58.85,1.21.75L34.82,72V69.68l-.73-1.4C33.43,68.18,33.23,68.75,32.85,69ZM20.76,73.32l1-.69c-.19-.77.21-1.19.36-1.68l-.41-.4c0-.61,0-1.27,0-1.92,0-.12-.18-.24-.31-.39-.35.17-.8-.17-1.19.29,0,1.42,0,2.9,0,4.38,0,.14.14.27.23.41ZM9.5,71.79c-.7.08-1.28-.12-1.81.16-.1.48-.28,1,.14,1.37h.91l.9-.69Zm1.92-.44a3.8,3.8,0,0,0,.19-1.81c0-.06-.21-.12-.68-.37.54.83,0,1-.3,1.39Zm-3.23-2.1a2.64,2.64,0,0,0,.4-.22c.19-.15.36-.32.54-.47-.38-.4-.71-.4-1.06,0Z"/><path d="M11.78,106.65a10.7,10.7,0,0,0,1-1.88l1.37-.58h1.66l1.28.64.14.63.77.78c.07-1.22,1-1.56,2.22-2h1.65l1.24.62a2.11,2.11,0,0,0,.89,1.35h.57c.08-1.13,1-1.48,2.24-2h1.63l1.24.62a2.13,2.13,0,0,0,.88,1.35h.5c.44-.3.17-.76.34-1.32-.05.1,0,0,0,0l1.44-.6h1.66c.55.37,1.43.48,1.87,1.29v1.42l.46.52V110l-.44.43v1.44c-.17.2-.29.46-.49.55A5.41,5.41,0,0,0,34,113.8c-.68-.42-1.44-.49-1.93-1.06-.47,0-.74-.06-.81-.64,0-.32-.45-.6-.7-.88l-.78.75v.52l-2.61,1.32-1.27-1.1H25c-.41-.37-.14-.82-.23-1.22-.32-.4-.66-.38-1,0-.06.06-.11.15-.18.18-.52.18-.05,1.09-.77,1.07-.53,0-.71.7-1.31.55-.13,0-.35.29-.46.39-.67-.32-1.29-.67-1.94-.92s-.78-1.13-1.57-1c-.42.15-.29.54-.39.81l-2.53,1.22c-.51-.17-.72-.81-1.14-.91a2.51,2.51,0,0,1-1.23-.77l-.3-1.71A5.54,5.54,0,0,1,10.1,113l-1.47.76L7.09,113l-1.52-1.57v-5l.89-.9.2-.76.71-.16.48-.45h2c.19.63,1.17.24,1.25,1s.76.91.66,1.54a.93.93,0,0,0-.8.5l.35,1.13C11.79,107.66,11.56,107.15,11.78,106.65Zm1.87.63v3.17c.38.28.56.86,1.16.77L16.13,110v-2.73c-.62-.23-.76-1.1-1.8-1.13Zm12.63.15v2.36a4.18,4.18,0,0,1,.49,1c.07.48.37.46.7.46l.79-.63v-3.73c-.38-.25-.52-.75-1-.7S26.88,107.22,26.28,107.43ZM34.87,110v-2.36a4,4,0,0,1-.49-1c-.07-.48-.38-.46-.7-.46l-.79.63v3.78c.4.17.51.71,1.3.62C34.51,111,34.29,110.18,34.87,110Zm-14.65-3.62c0,1.6,0,3.12,0,4.63,0,.06.12.12.2.19.73.27.95-.38,1.34-.8v-1.44l.44-.43c-.74-.37-.3-1.13-.6-1.7C21.25,106.53,21,105.92,20.22,106.33ZM9.59,109.48c-.35-.29-.5-.88-1.37-.76l-.6.65v1.19c.4.13.47.7,1.12.65.36,0,.5-.5.85-.73Zm-.92-3.14.18.33c.06-.06.17-.13.16-.17a1.74,1.74,0,0,0-.16-.34Z"/><path d="M33.13,27.87h1.28l1.37.65.15.64.46.5v1l.48.53v2.78c-.24.53-.52.86-.46,1.09.21.69-.63.95-.55,1.57,0,.1-.21.35-.27.33-.59-.16-.77.61-1.32.54a6.2,6.2,0,0,0-1,0c-.39-.18-.76-.32-1.09-.51a1.7,1.7,0,0,1-.92-1.07c-.09-.36-.45-.65-.69-1-.65.38-.7,1.13-1.13,1.58a7.18,7.18,0,0,1-1.5.94H26.45l-.78-1H25l-.3-.86c-.06,0-.16-.11-.17-.1-.48.47-1,.94-1.31,1.3l-1.37.67H20.49c-.35-.59-1.19-.43-1.59-1s-.1-1.25-1.07-1.3c-.24.21-.22.82-.69,1.14A9.77,9.77,0,0,0,16,37.37c-.67.26-1.42,0-2.08.12l-1.7-1.7c-.07-.44-.15-.9-.26-1.54-.53,1.5-1.74,2.17-2.56,3.19H7.88a2.67,2.67,0,0,0-1.22-.65c0-.23-.11-.46-.17-.69l-.91-.9V30.14l1-1,0-.57c.27-.1.58-.18.86-.31a1.7,1.7,0,0,0,.36-.35H9.34l.55.5h.55l.3.9.8.64.2.94c.78-.27.18-.88.43-1.26L13.8,28c.35-.23.78-.06,1.18-.1s.66,0,.94,0l1.66,1.65c.1.3.2.59.31.89.65-.38.73-1.1,1.14-1.56a6.49,6.49,0,0,1,1.49-.95h2l2,2c.46-1,.46-1,2-2h1.93c1.09.48,1.27,1.69,2.08,2.47.16-.14.32-.28.49-.41.45-.37.3-1.11.89-1.4C32.33,28.33,32.85,28.3,33.13,27.87Zm-10.4,3.81c-.11-.29-.46-.38-.52-.78a1.07,1.07,0,0,0-1.09-1l-.87.68v4.17c.36.23.49.73,1,.72,1-.15.89-1.27,1.51-1.76Zm-9.08,2.49c.41.42.82.83,1.24,1.24.76-.42.85-1.28,1.23-1.84v-2c-.66-.52-.47-1.7-1.8-1.71l-.67,1Zm13.89,1.27.76-.76c0-1.3,0-2.64,0-4,0-.06-.08-.13-.12-.2-.36-.28-.59-.88-1.22-.53a2.83,2.83,0,0,1-.65,1.22v2.53c.81.34.21,1.26.73,1.72ZM7.63,34l.72,1.4,1.26-1.24V31.13L8.34,29.91l-.71.67Zm26,1.42a4.34,4.34,0,0,0,.51,0c.07,0,.12-.11.25-.25a5.59,5.59,0,0,1,0-1.15c.08-.37.39-.69.47-1.06a1.05,1.05,0,0,0-.09-.93l-.38-.38c-.09-.56.14-1.15-.18-1.69-.76-.33-1,.37-1.33.71V34Z"/><path d="M16.61,189.1c-.75-.27-.91.28-1.27.42H14.07c-.46-.11-1.42-1.21-2.45-2.84V184a1.5,1.5,0,0,0-1,1,2.62,2.62,0,0,1-1.95,1.7l0,.63c.1.1.16.21.22.21h2l.74.83-1.51,1.16H6.94l-1.31-.66V187.2c.21-.53,1.28-.75,1-1.7l.55,0,1.88-1.74v-1c-.35-.43-.82-.1-1.17-.27l-1.09,1h-1c-.48-.52-.14-1.13-.23-1.69A5.19,5.19,0,0,1,8,179.94H9.32l2.29,2.35.13.62c.68-.19.27-.69.49-1.27s1.14-1,1.63-1.72h1.37a11.63,11.63,0,0,1,1.44.77A14.35,14.35,0,0,1,18,182c.46-.48.89-1,1.38-1.43a3.27,3.27,0,0,1,.85-.37,1.25,1.25,0,0,1,1.55,0,4.65,4.65,0,0,1,.85.37,13.47,13.47,0,0,1,1.08,1.06l.19.74.72.09.24-.83,1.8-1.69H28c.36.58,1.23.39,1.58,1l.78,1.44c.74-.3,1.12-.75,1-1.44l.7,0,1-1H34.5l1.9,1.78v1l.43.43v3.15c-.58.3-.43.85-.45,1.33l-.27.39c-.45.74-1.33.88-2,1.41a1,1,0,0,1-.93.07c-.62-.56-1.8-.42-1.93-1.61,0-.33-.46-.6-.69-.88-.77.32-.66,1.19-1.16,1.59a13.36,13.36,0,0,1-1.51.91h-.89l-.53-.5H25.43l-1-1.51c-.16,0-.37,0-.47.08A18.81,18.81,0,0,1,22.5,189c-.22.16-.58.14-.86.37a1,1,0,0,1-1.34,0c-.27-.24-.63-.21-.85-.37a15.25,15.25,0,0,1-1.55-1.5Zm-.44-5.36c-.44-.28-.45-.81-.69-1.24H14.34l-.67.71v3.56c.39.33.62.85,1.23.73l1.27-1.26Zm10.9-1.29-.74,1.33v2.32l.75,1.41c.65.05.86-.48,1.21-.78V183.2C27.91,182.9,27.69,182.36,27.07,182.45Zm7.29,3.29.49-.52v-1.34l-.73-1.42h-.54l-.67.73v3.62c.46.4.77,1.1,1.45.44ZM20.25,187.5H21l.73-.74v-1.41c.18-.4.71-.58.52-1.12l-.5-.53v-1l-.76-.76-.72.63Z"/><path d="M21.73,151.63H20l-2-2-2,2h-2l-1.74-1.82v-.93l-.5-.54v-1l.47-.54c-.59-.54-.78-1.1-.23-1.75a.93.93,0,0,0,.24-.4,4.7,4.7,0,0,0,0-.75l2-1.85H16l2,2,.79-.72v-.53c.35-.18.7-.35,1-.54a1.14,1.14,0,0,0,.2-.19h2l.53.48H23l1,2,.55-.05c.4-.33.06-.8.34-1.36a6.15,6.15,0,0,1,.77-.6,8.4,8.4,0,0,1,1.08-.5h1.72c1,.48,1.23,1.68,2,2.47l.48-.39c.48-.35.31-1.09.89-1.41.41-.22,1-.19,1.22-.68h1.33l1.28.65c.16.3.37.72.66,1.28v.82l.5.54v3l-.5.56c.14.89-.46,1.5-.75,2.23h-.5l-.54.5H33.26c-.58-.54-1.74-.45-1.91-1.53-.08-.49-.53-.61-.73-1-.63.31-.7,1-1.11,1.48a7.23,7.23,0,0,1-1.58,1H26.67l-1.82-1.08c-.05-.46-.1-.86-.15-1.33l-.71-.16-.24.56Zm-8.08-3.28,1.28,1.28,1.19-1.34v-2.53c-.66-.51-.47-1.7-1.8-1.71l-.67,1Zm14.65.5v-4c-.38-.28-.58-.85-1.21-.75-.27.45-.53.92-.77,1.32v2.82l.74,1.41C27.72,149.7,27.92,149.14,28.3,148.85Zm6.08-4.8H33.6l-.75.76c0,1.13,0,2.3,0,3.47,0,.07.09.14.4.6,0-.08.12.28.31.75l.81-.17v-1.1l.48-.53v-1.52l-.47-.47Zm-13.91,0c-.06.06-.17.12-.17.18,0,1.75,0,3.49,0,5.21.79.53,1-.29,1.43-.58v-1l.37-.39c.39-.71-.2-.86-.38-1.27v-1.42l-.74-.74Z"/><path d="M198.55,120.06c-.51.4-.83,1-1.52,1.34-.21-.15-.41-.28-.59-.42s-.24-.24-.39-.39v-4c.14-.22.32-.48.48-.75a6.08,6.08,0,0,1,.33-.62,1,1,0,0,1,.82-.46c.2,0,.39-.27.65-.46h34.8c.3.09.46.67,1.05.46l1.19,1.48v4.94c-.12.08-.19.16-.25.16-.5,0-1,0-1.46,0l-.75-.76v-3.09a2.52,2.52,0,0,0-.65-.18H199.2a2.83,2.83,0,0,0-.48.08c-.32.44-.12,1-.16,1.44S198.55,119.64,198.55,120.06Z"/><path d="M100.29,15.73,101.55,17v1.48l.5.55v2.52l-.73.74H99.8c-.21-.39-.42-.8-.79-1.51V18.41C96,18.16,78.6,18.1,65.4,18.29c-.46.5-.16,1.11-.21,1.67s0,1,0,1.56l-.7.74H62.86c-.1-.11-.2-.17-.2-.23,0-1.52,0-3,0-4.33l.65-1.29,1.29-.68Z"/><path d="M133.13,29.88l-.73.73v3l-1.37.71-.54-.53c-.05-.07-.13-.13-.13-.2,0-1.67,0-3.35,0-4.94.38-.85,1.35-.71,1.8-1.31H168l1.26,1.25v1l.49.53v3.54c-.33.4-.78.21-1.17.23s-.81,0-1.23,0c-.24-1.18,0-2.27-.16-3.33l-.54-.54a1.26,1.26,0,0,0-.43-.16Z"/><path d="M83.62,6.64l1.46,1.47h1.71l.57-.75L86,6.65h-.81l-.56-.52h-.93L81.86,4.38v-2l1.25-1.26h.25c.08,0,.22,0,.24,0,.37-.61,1.21-.46,1.6-1h1.24L88.8,1.28a2.62,2.62,0,0,0,.6,1.12v1c-.53.49-1.15,0-1.65.29l-.6-.56H84.73c.57.57,1.16.59,1.48,1h1.26a4,4,0,0,1,.41.23c.64.48,1,1.37,2,1.37V8.47a15.9,15.9,0,0,1-1.24,1.22,14.42,14.42,0,0,1-1.49.94H84.7a5.16,5.16,0,0,1-1.34-.76A3.34,3.34,0,0,0,81.9,9V6.83C82.46,6.46,83.06,6.71,83.62,6.64Z"/><path d="M75.2,1.25l1,1a1.53,1.53,0,0,1,.13.45c0,2.43,0,4.87,0,7.26-.55.51-1.18.05-1.73.33l-.81-1v-6c-.81-.33-1.56,0-2.22-.18l-.79.79c0,2,0,4,0,6,0,.07-.1.13-.2.23H68.41c-.09-.1-.19-.17-.19-.23,0-2.86,0-5.72,0-8.56L69,.59h3L72.59,0Z"/><path d="M31.36,226.69c.21-1.07-.71-1.69-1-2.56v-2.51c.6-.36.49-1.15,1-1.61.16-.15,0-.63,0-.93.36-.44.81-.18,1.23-.27l.54-.48h1.5l.53.49h.5l.73.75V221l.51.59v3l-.48.53v.92a5.25,5.25,0,0,1-2.51,1.86Zm3.51-4.86-.78-1.49c-.63-.09-.86.45-1.23.74,0,.08,0,.17,0,.25v3.28a2.08,2.08,0,0,0,1.19.79l.83-1.4Z"/><path d="M6.32,149.61l-1.24-1.25c-.37-.69.84-.86.5-1.54a4.9,4.9,0,0,0,1.13-1.56c.19-.55.74-1,1.06-1.57a8,8,0,0,1,1.56-1.63c.3.42.82.43,1.31.71v4.59l.46.46v1.52l-.47.53v1.06a3.65,3.65,0,0,0-.64.2,6.19,6.19,0,0,0-.65.46L8.67,151c0-.38-.09-.77-.13-1.15-.08-.08-.14-.19-.2-.19ZM8.23,147c-.39.11-.78.07-.44.51.12-.13.24-.27.16-.4.39-.11.78-.07.44-.51C8.27,146.76,8.16,146.9,8.23,147Z"/><path d="M146.54,20l.72-.73h1l1.06-1h1.07l.32.95,1.16.09.71.71v1l-.5.54v.82l-.73,1.41h-1l-.68-.5c-.73.07-.92.75-1.41,1l-.72-.71c.23-.88-.35-1.54-.74-2.19A2.45,2.45,0,0,1,146.54,20Z"/><path d="M213,109.89l.67-.94-.38-.51v-1.5s0-.07,0-.1c.79-.52.89-1.55,1.62-2.15h1.16l1.18,1.48H218l.73.74v1l-1,1,.49.56a2.17,2.17,0,0,1-.86,1.27l-.82-.36c-.68-.41-1.43-.06-2.08-.25l-.45.45C213.59,110.61,213.53,110.09,213,109.89Z"/><path d="M1.85,31.9H.27c-.44-.3-.2-.76-.25-1l2.56-2.55.8-.39.63.84v8c-.56.39-1.15.13-1.72.2-.08-.13-.25-.25-.25-.38,0-1.34,0-2.68,0-4A2.83,2.83,0,0,0,1.85,31.9Z"/><path d="M77.81,9.3V8.45l.68-.74h1.65c.24.49.47,1,.7,1.47,0,.49-.51.63-.74,1H78.52C78.35,10,78.14,9.71,77.81,9.3Z"/><path d="M94,8.52v1l-1.33,1L91.55,10s-.09-.08-.09-.15c0-.67,0-1.33,0-2,.56-.46,1.17-.15,1.79-.25Z"/></g></g></svg>