<svg xmlns="http://www.w3.org/2000/svg" viewBox="0 0 177.79 141.35"><title>Recurso 33ART</title><g id="Capa_2" data-name="Capa 2"><g id="Capa_1-2" data-name="Capa 1"><path d="M59.26,104.86v15.87c-.06,0-.08.08-.11.08H57.08s-.06,0-.07.07a.15.15,0,0,0,0,.09c0,.68,0,1.37,0,2,.07,0,.09.08.12.08h4.35l.07-.08a.19.19,0,0,0,0-.08v-4.31c.06,0,.09-.09.11-.09H66.1v9c-.11.16-.28.09-.43.09H63.91c0,.06-.08.09-.08.11a1.21,1.21,0,0,0,0,.19v4.18c-.23.16-.49.06-.73.08s-.5,0-.76,0H61.6a2.16,2.16,0,0,0-.05.79c0,.22,0,.44,0,.66v.76c-.24.15-.5.05-.74.07s-.51,0-.76,0a2,2,0,0,0-.77.05v2.12c-.06.06-.07.09-.1.1H57.08c-.16.12-.09.29-.09.44,0,.59,0,1.19,0,1.75l-.1.09H50.23c-.16.23-.06.49-.08.73s0,.51,0,.76v.74c-1,.07-6.41.09-9.06,0-.14-.23,0-.49-.06-.73s0-.51,0-.76a2.35,2.35,0,0,0-.06-.78H34.29c0-.05-.08-.06-.09-.09s0-.06,0-.09v-2c-.11-.16-.28-.09-.43-.09H32l-.09-.1v-2.1c-.23-.15-.49-.06-.73-.07s-.5,0-.76,0h-.73a2.35,2.35,0,0,1-.06-.78c0-.22,0-.44,0-.67v-.75c-.24-.15-.5,0-.74-.07s-.51,0-.76,0a2,2,0,0,1-.77-.05V130a.84.84,0,0,0-.1-.1H25.17c-.16-.11-.09-.28-.09-.43,0-.59,0-1.19,0-1.76a.39.39,0,0,0-.11-.08H22.87c-.15-.23-.05-.49-.07-.73s0-.5,0-.76v-.71c-.07,0-.09-.07-.12-.07H18.31s0,0-.06-.07,0-.06,0-.09c0-1.42,0-2.85,0-4.27,0,0,0-.05-.08-.11H16.06c-.06,0-.09-.07-.1-.1a.27.27,0,0,1,0-.09v-2c-.12-.15-.29-.09-.44-.09-.59,0-1.19,0-1.83,0,0-.76,0-1.48,0-2.21-.23-.15-.49,0-.73-.07s-.5,0-.76,0a2.58,2.58,0,0,1-.77-.05v-4.43c-.26-.16-.52-.06-.76-.08s-.51,0-.76,0a2.06,2.06,0,0,1-.77-.06v-2.11c-.06-.06-.07-.1-.1-.11a1.21,1.21,0,0,0-.19,0H6.93c-.15-.12-.09-.29-.09-.44v-4.11c-.76,0-1.48,0-2.2,0,0,0,0,0-.06-.07a.11.11,0,0,1,0-.08V84.48s0-.06,0-.1a2.23,2.23,0,0,0-.73,0H2.37l-.08-.09a.19.19,0,0,1,0-.08V68.51s0-.05-.07-.11H.11c-.06-.05-.09-.07-.1-.1a.25.25,0,0,1,0-.09V52.55s0,0,.08-.11h2.1l.1-.1a.27.27,0,0,0,0-.09V48c.12-.15.28-.09.43-.09.6,0,1.19,0,1.76,0,0-.06.08-.08.09-.11a.33.33,0,0,0,0-.1v-2c.23-.16.49-.06.73-.08s.51,0,.76,0h.73a2.42,2.42,0,0,0,.06-.79c0-.22,0-.44,0-.66v-.76c.25-.15.5,0,.74-.07s.51,0,.76,0H9.86c.26,0,.51,0,.76,0a2,2,0,0,0,.77-.05V41.14a.84.84,0,0,1,.1-.1h2.09c.16-.12.09-.29.09-.44,0-.59,0-1.19,0-1.83.75,0,1.47,0,2.2,0,.15-.23,0-.48.07-.72s0-.51,0-.76a2.53,2.53,0,0,1,0-.77h2.18c.13.23,0,.48.05.73s0,.5,0,.76v.75h4.47s.08-.05.08-.08a1.2,1.2,0,0,0,0-.19V34.2h4.44s.05,0,.08-.05,0,0,0-.07V29.64h2.16s0,0,.07-.05.05-.05.05-.07V27.36H31.8s.05,0,.11-.08v-2a.28.28,0,0,0,0-.09l-.06-.06H29.63v2.26H27.47s0,0-.07.05,0,.05,0,.07v2.16H25.07c0-1.48,0-3,0-4.45,0,0,0-.05.08-.11h2.1s.08-.07.09-.1a.27.27,0,0,0,0-.09v-2l.07-.07.08,0h2c.05-.06.09-.08.09-.11a1.2,1.2,0,0,0,0-.19V20.6c.23-.15.49-.05.73-.07s.51,0,.76,0h.71l.08-.11a.34.34,0,0,0,0-.1v-2c.24-.15.5-.05.74-.07s.51,0,.76,0a2,2,0,0,0,.77,0v-6.7c.25-.16.51-.06.75-.08s.51,0,.76,0h.77V9.21c.26-.16.52-.06.76-.08s.5,0,.76,0h.76V7a.84.84,0,0,1,.1-.1h2.09c.16-.12.09-.29.1-.43V4.66c.06,0,.08-.09.1-.09h4.46V6.85H43.42s-.05,0-.11.08V9a.28.28,0,0,0,0,.09l.06.06h2.14s.07-.07.07-.1V6.85h4.46c.16-.12.09-.29.09-.43,0-.6,0-1.2,0-1.76.05,0,.07-.08.1-.09a.33.33,0,0,1,.1,0H66s0,0,.1-.09V2.38c.06,0,.08-.09.1-.09h2.09a.46.46,0,0,1,.07.07.24.24,0,0,1,0,.08v2c.07,0,.09.08.12.09H93.26a.27.27,0,0,1,.09,0s.05,0,.1.09v2.1c.06,0,.08.09.11.09h6.73V8.93a.17.17,0,0,0,0,.1l.09.1h1.75c.15,0,.32.07.43-.09V6.85H107s0,0,.08.07V9.05s-.06.07-.08.07H105a.16.16,0,0,0-.07.07.11.11,0,0,0,0,.08v2c.07,0,.09.08.12.08H107s.06.05.07.08a.11.11,0,0,1,0,.08v4.27s0,.05.06.09a2.53,2.53,0,0,0,.73,0c.22,0,.44,0,.66,0h.74l.08.08a.25.25,0,0,1,0,.09v6.54s0,.05.06.1h2.15l.06-.06a.28.28,0,0,0,0-.09V16.08s0,0,0-.07a.59.59,0,0,1,.17,0h2c.14.25,0,.5.07.75s0,.5,0,.76a2,2,0,0,0,.06.76h2.1c.07.06.11.08.12.1a1.21,1.21,0,0,1,0,.19v2h-2.18s0,0-.1.09v1.75c0,.15-.06.32.1.43h2.18V25c.11.16.28.1.43.1.59,0,1.19,0,1.76,0,0,.06.08.08.09.11v2.08c.12.15.29.09.44.09h6.3c0,.06.09.08.09.1,0,1.46,0,2.91,0,4.36.11.16.28.1.43.1h4c0-.05.09-.07.09-.1a1.15,1.15,0,0,0,0-.19v-2h2.18c.15.12.09.29.09.43,0,.6,0,1.2,0,1.76.06.05.09.09.11.09h13.48l.06.07a.11.11,0,0,1,0,.08v2.12c.76,0,1.48,0,2.21,0,.14.22,0,.48.07.72s0,.51,0,.76v.71a.58.58,0,0,0,.12.08.33.33,0,0,0,.1,0h4.17l.11,0c.14.22,0,.48.05.72s0,.51,0,.76v.77h2.2a1.44,1.44,0,0,1,.07.76c0,.26,0,.51,0,.76V41h2.19c.05.05.08.08.08.1a2.81,2.81,0,0,1,0,.29v1.8c.23.16.48.07.72.08s.51,0,.76,0h.71l.09.11v2.09c.24.15.49,0,.73.07s.51,0,.76,0a2.26,2.26,0,0,1,.77,0V47.8c.27.15.52.05.77.07s.5,0,.76,0h.76v2.18c.06,0,.08.09.1.09h2.09l.07.06a.29.29,0,0,1,0,.09c0,.69,0,1.38,0,2.11.75,0,1.47,0,2.2,0,.15.22.05.48.07.72s0,.5,0,.76v.73a2.4,2.4,0,0,0,.79.05h1.4s.07.06.08.09a.28.28,0,0,1,0,.09c0,1.42,0,2.85,0,4.27,0,0,0,.05.07.11h2.13c.15.26.05.52.07.76s0,.51,0,.76a1.66,1.66,0,0,0,.06.76h2.12c.05.06.09.08.09.11V66l-.07.07-.08,0h-2c0-.06-.08-.09-.08-.11a.34.34,0,0,1,0-.1v-2c-.24-.15-.49-.06-.73-.07s-.51,0-.76,0a2.26,2.26,0,0,1-.77,0V61.63a1.47,1.47,0,0,0-.77-.07c-.25,0-.5,0-.75,0a2,2,0,0,1-.77-.06V59.38l-.1-.1a.17.17,0,0,0-.1,0H166.4c0-1.48,0-3,0-4.44,0,0,0,0-.08-.12H164.2s0,0-.07.06V59.2c.05,0,.07.07.09.07h2.18v4.47c.11.15.28.09.43.09.6,0,1.19,0,1.76,0l.08.11a.34.34,0,0,1,0,.1V75.13a.57.57,0,0,0,.08.08l.09,0h1.9a.71.71,0,0,0,.2-.06V70.78l.1-.1h4.27a.33.33,0,0,0,.1,0s.05,0,.1-.09v-2.1c.06,0,.08-.09.11-.09h2.08a.46.46,0,0,0,.07.07.29.29,0,0,1,0,.09v6.62a2.37,2.37,0,0,1-.78.06h-1.4a.57.57,0,0,0-.08.08.15.15,0,0,0,0,.09V82s0,0-.08.1h-2.1l-.09.1a.17.17,0,0,0,0,.1v2c-.11.16-.28.09-.43.09H171c0,.06-.08.08-.08.11a.28.28,0,0,0,0,.09v4.26a.6.6,0,0,1-.08.08h-4.36s0,0-.1.07v2.13c-.27.15-.52,0-.77.07s-.5,0-.76,0a1.67,1.67,0,0,0-.76.06V93.4c-1,.09-9.61.12-18.16.06-.15-.23-.06-.48-.08-.72s0-.51,0-.76v-.71c-.07,0-.09-.08-.12-.08h-4.38c-.14-.23,0-.49,0-.73s0-.51,0-.76a2.27,2.27,0,0,0,0-.77h-2.13s-.08-.07-.09-.1,0-.06,0-.09v-2c-.12-.15-.28-.09-.43-.09h-1.76c0-.07-.08-.09-.08-.12a.25.25,0,0,1,0-.09v-2c-.23-.15-.49,0-.73-.07s-.51,0-.76,0a2.32,2.32,0,0,1-.78,0V82.15c-.26-.16-.52-.06-.76-.08s-.51,0-.76,0a1.86,1.86,0,0,1-.77,0V79.88s-.07-.09-.1-.09a1.21,1.21,0,0,0-.19,0H130c-.16-.23-.06-.49-.08-.73s0-.51,0-.76v-.74a2.71,2.71,0,0,0-.79,0c-.22,0-.44,0-.66,0h-.74s-.07-.06-.08-.09a.25.25,0,0,1,0-.09c0-1.42,0-2.85,0-4.27,0,0,0,0-.08-.11h-2.09c-.06,0-.1-.07-.1-.1a1.2,1.2,0,0,1,0-.19V70.77l-.07-.07a.16.16,0,0,0-.09,0h-2l-.08-.11a.34.34,0,0,1,0-.1v-2c-.24-.15-.5-.06-.74-.07s-.51,0-.76,0a2.54,2.54,0,0,1-.77,0V63.91a1.47,1.47,0,0,0-.77-.07c-.25,0-.5,0-.76,0a2,2,0,0,1-.76-.06V59.36c-.06,0-.08-.08-.11-.08h-2.08l-.07-.07a.29.29,0,0,1,0-.09V52.56s0-.05-.06-.09a2.53,2.53,0,0,0-.73,0H114c-.15-.25-.05-.51-.07-.75s0-.51,0-.76v-.77h-4.45c-.06-.06-.1-.08-.11-.1a.33.33,0,0,1,0-.1V48l-.07-.07-.08,0h-2c0-.07-.08-.09-.09-.12a.27.27,0,0,1,0-.09v-2c-.24-.15-.5-.05-.74-.07s-.5,0-.76,0a2.06,2.06,0,0,1-.77-.05V43.39c-.26-.15-.52,0-.76-.07s-.51,0-.76,0h-3V41.13c-.06-.05-.08-.09-.1-.09H95.82c-.16.23-.06.49-.08.73s0,.51,0,.76v.71a.58.58,0,0,1-.12.08H48l-.1,0c-.14.22,0,.48-.06.72s0,.51,0,.76a2,2,0,0,1,0,.77H45.69l-.1.1a.34.34,0,0,0,0,.1v4.27l-.07.07-.08,0h-2c0,.06-.07.08-.08.11a.27.27,0,0,0,0,.09v2c-.24.15-.5,0-.74.07s-.51,0-.76,0a2,2,0,0,0-.77.05v2.15c-.26.15-.52,0-.76.07s-.51,0-.76,0a1.74,1.74,0,0,0-.75.05V66s.06.07.08.07a1.2,1.2,0,0,0,.19,0h1.89a.6.6,0,0,1,.08.08.19.19,0,0,1,0,.08V81.94s0,0,0,.09a2.23,2.23,0,0,0,.73,0c.22,0,.45,0,.67,0h.75c.16.24.06.5.07.74s0,.51,0,.76a2.26,2.26,0,0,0,0,.77h2.13c0,.06.09.08.09.1a1.21,1.21,0,0,1,0,.19v2H41V84.47s0,0-.05-.08,0,0-.07,0H38.75V82.19s0,0,0-.08-.05,0-.07,0H36.47V79.9s0-.05-.08-.11H34.27l-.06.06V82l.09.07h2.17v2.16s0,0,.05.07a.13.13,0,0,0,.07,0h2.16V86.5s0,0,0,.08.05,0,.07,0H41V88.8s0,0,.09.11h.7c.26,0,.51,0,.76,0s.49-.08.73.07v2a.27.27,0,0,0,0,.09.9.9,0,0,0,0,.09,2.56,2.56,0,0,0,.73,0c.25,0,.51,0,.76,0s.49-.08.75.08v2.11c0,.05.07.08.1.08h2.17v2.16s0,0,0,.08.05,0,.08,0h2.16v2.17s0,0,.08.11h.71c.25,0,.51,0,.76,0s.49-.08.73.07v2a.27.27,0,0,0,0,.09,1,1,0,0,0,.07.12h.71c.25,0,.5,0,.75,0s.5-.09.76.07v2.12c.05,0,.07.08.09.08H57c0,.72,0,1.44,0,2.16,0,0,0,.05,0,.07s0,0,.08,0ZM29.63,123.1v2.16s0,0,.09.12h2.11a.12.12,0,0,0,.06-.06v-2.13s-.07-.07-.09-.07H29.63v-2.16s0,0-.05-.08,0,0-.07,0H27.35v-4.45s0,0-.05-.07a38.32,38.32,0,0,0-4.49,0v2.16a2.18,2.18,0,0,0,.76,0c.25,0,.5,0,.75,0s.5-.08.76.07v2.12c.05,0,.08.08.1.08h2.17V123s0,0,0,.08.05,0,.07,0Zm22.8-91.18h2.16s0,0,.12-.08c0-.66,0-1.34,0-2a.28.28,0,0,0,0-.09s0,0-.06-.06H52.5c0,.05-.07.07-.07.09v2.17H50.26s0,0-.11.09v2a.28.28,0,0,0,0,.09s.05,0,.06.06h2.14s.06-.07.06-.09C52.43,33.37,52.43,32.64,52.43,31.92ZM161.84,84.35H164s.05,0,.12-.08v-2a.24.24,0,0,0,0-.09.12.12,0,0,0-.06-.06h-2.13s-.07.07-.07.09v2.17h-2.17s0,0-.11.08v2a.19.19,0,0,0,0,.08l.06.07h2.14s.06-.07.06-.1C161.84,85.79,161.84,85.07,161.84,84.35ZM136.76,73c0,.72,0,1.44,0,2.17,0,0,0,0,.08.11h2a.13.13,0,0,0,.09,0,.12.12,0,0,0,.06-.06V73S139,73,138.93,73h-2.17V70.78s0,0-.08-.11h-2a.11.11,0,0,0-.08,0s0,0-.07,0v2.14c.05,0,.07.07.1.07ZM36.47,45.6h2.17s0,0,.11-.08v-2a.13.13,0,0,0,0-.09.16.16,0,0,0,0-.06H36.54s-.07.07-.07.09V45.6H34.31s-.05,0-.07,0-.05,0-.05.08v2.16h-4.5a2.35,2.35,0,0,0-.06.78c0,.25,0,.5,0,.75s.08.5-.08.76h-2.2v2.27H25.19s-.05,0-.12.08v2a.24.24,0,0,0,0,.08.12.12,0,0,0,.06.06h2.2V52.44h4.51a2.4,2.4,0,0,0,.05-.79c0-.25,0-.5,0-.75s-.09-.5.07-.75h2.2V47.88h2.16s0,0,.07,0,0,0,0-.08ZM18.24,109.42c0-.72,0-1.44,0-2.17,0,0,0,0-.08-.11h-2a.12.12,0,0,0-.08,0,.12.12,0,0,0-.06.06v2.13s.06.07.09.07h2.17c0,1.48,0,3,0,4.44,0,0,0,0,.08.12h2a.12.12,0,0,0,.08,0s.05,0,.07-.06v-4.41c-.05,0-.07-.07-.09-.07Zm98-66.1V41h4.46s0,0,.1-.11V38.82a2.06,2.06,0,0,1,.77-.06c.25,0,.51,0,.76,0s.5.09.75-.07c0-.69,0-1.39,0-2.08,0,0,0-.05-.07-.12h-.71c-.26,0-.51,0-.76,0s-.5.07-.73-.08V34.5a1.15,1.15,0,0,0,0-.19s0-.05-.08-.11h-4c-.15,0-.32.06-.43-.1v-2a.17.17,0,0,0,0-.1l-.09-.1H114a2.54,2.54,0,0,1,0-.77c0-.25,0-.51,0-.76s.08-.5-.06-.74h-2.09s0,0-.12.08v.72c0,.25,0,.5,0,.76s.07.49-.08.72h-2.1a.57.57,0,0,0-.08.08v2.15a2.13,2.13,0,0,0,.75.05c.25,0,.51,0,.76,0s.5-.08.76.08v2.2h.77c.26,0,.51,0,.76,0s.5-.08.74.08v2a.33.33,0,0,0,0,.1s0,.05.09.11h1.75c.15,0,.32-.06.44.09V41h-2.18s0,0-.1.09v1.76c0,.15-.06.31.1.43h2.18V45.4a.33.33,0,0,0,0,.1s0,0,.11.1h2.11a1.85,1.85,0,0,1,0,.77c0,.25,0,.5,0,.76v1.51c0,.26,0,.51,0,.76s-.07.5.06.74h2.22v-.76c0-.25,0-.51,0-.76s-.08-.5.07-.74H123s.05,0,.13.07v.71c0,.26,0,.51,0,.76s-.08.5.07.74h6.65s.05,0,.12-.08c0-.65,0-1.34,0-2a.15.15,0,0,0,0-.09s0,0-.07-.07h-4.35s0,0-.11-.08v-2a.19.19,0,0,0,0-.08l-.07-.07h-4.36s0,0-.1-.08v-2.1c-.06,0-.08-.09-.1-.09ZM11.4,91.18v2.17s0,.05.08.11h2.11l.07-.06V91.25c-.05,0-.07-.06-.1-.06H11.4v-2a1.2,1.2,0,0,1,0-.19s0,0,.11-.1H16v-.76c0-.26,0-.51,0-.76s.08-.5-.07-.76H13.75c0-.06-.07-.08-.07-.11V82.24a.15.15,0,0,0,0-.09.57.57,0,0,0-.08-.08h-.73c-.23,0-.45,0-.67,0a2.23,2.23,0,0,1-.73,0s0-.06,0-.09V77.67a.19.19,0,0,0,0-.08l-.07-.07c-.72,0-1.44,0-2.19,0V73.11a.16.16,0,0,0,0-.09L9,73H6.94s0,0-.07.06a1.13,1.13,0,0,0,0,.18v8.63a.78.78,0,0,0,.07.25H9s0,0,.1.09v8.59c0,.15-.06.32.1.43Zm25.07,34.2h4.46s0,0,.1.11v2.08c.06.05.08.08.11.08h8.92a.88.88,0,0,1,.1-.1v-2.17h.77c.25,0,.51,0,.76,0s.5.08.74-.07v-2a.33.33,0,0,1,0-.1.39.39,0,0,1,.08-.11h2a.19.19,0,0,0,.08,0l.08-.07q0-5.59,0-11.2s0,0-.08-.1H52.86c-.15,0-.32.06-.43-.1v-2a.31.31,0,0,0,0-.1.84.84,0,0,0-.1-.1H50.2a2,2,0,0,1-.05-.77c0-.25,0-.51,0-.76s.09-.5-.07-.74h-.76c-.22,0-.44,0-.66,0a2.35,2.35,0,0,1-.78-.06v-.73c0-.25,0-.51,0-.76s.08-.5-.08-.73h-1.9a1.21,1.21,0,0,1-.19,0l-.1-.09v-2.19h-.77c-.25,0-.5,0-.76,0s-.5.07-.76-.07v-2.15a34,34,0,0,0-4.55,0v.75c0,.23,0,.45,0,.67a2.35,2.35,0,0,1-.06.78H38c-.26,0-.51,0-.76,0s-.5-.08-.73.07v1.91a1.2,1.2,0,0,1,0,.19l-.09.1H34.62c-.15,0-.32-.06-.43.1v2a.33.33,0,0,1,0,.1l-.1.1H22.85a2,2,0,0,0-.05.76,4.82,4.82,0,0,0,0,.76c0,.25-.08.5.07.75h.75c.22,0,.45,0,.67,0a2.66,2.66,0,0,1,.78,0v.74c0,.25,0,.5,0,.76s-.08.5.07.72c.73,0,1.45,0,2.2,0,0,.64,0,1.24,0,1.83,0,.15-.07.32.09.44h2a.34.34,0,0,1,.1,0,.84.84,0,0,1,.1.1v4.4a2,2,0,0,0,.77,0c.25,0,.5,0,.75,0s.5-.08.75.07v.76c0,.22,0,.44,0,.66a2.42,2.42,0,0,0,.06.79h.73c.25,0,.51,0,.76,0s.5-.08.72.07c0,.73,0,1.45,0,2.21H36c.14,0,.31-.06.43.09v2.19H34.3s0,0-.11.08v2a.11.11,0,0,0,0,.08.12.12,0,0,0,.06.06H36.4s.07-.06.07-.09ZM61.54,18.24v8.83a1.2,1.2,0,0,1,0,.19s0,0-.09.1H59.32a1.86,1.86,0,0,0,0,.77,4.82,4.82,0,0,0,0,.76c0,.24-.08.5.07.76h2.13c0,.06.07.09.07.11v6.55a.29.29,0,0,0,0,.09s0,0,.06.06H86.57a2.18,2.18,0,0,0,0-.76,4.82,4.82,0,0,0,0-.76c0-.24.09-.5-.07-.74H85.12a2.35,2.35,0,0,1-.78-.06V32.08a.19.19,0,0,1,0-.08l.07-.08h2.08s0,0,.11-.09c0-1.32,0-2.68,0-4,0-.14.07-.31-.09-.43h-2a.33.33,0,0,1-.1,0,.45.45,0,0,1-.07-.07v-9a1.91,1.91,0,0,1,.75-.05c.25,0,.51,0,.76,0s.5.08.76-.08V16h.77c.25,0,.51,0,.76,0s.5.08.74-.07c0-1.46,0-2.92,0-4.37,0,0,0,0-.08-.11H57.07s0,0-.09.08c0,.68,0,1.37,0,2.07,0,0,0,0,.07.12h.71c.26,0,.51,0,.76,0s.5-.08.73.08V18a1.28,1.28,0,0,0,0,.19s0,0,.08.1Zm100.3,45.59h-2a1.21,1.21,0,0,1-.19,0s0,0-.1-.1V61.61a2,2,0,0,0-.77,0c-.25,0-.51,0-.76,0s-.5.08-.72-.06a.44.44,0,0,1,0-.1V57.11L157.2,57h-.71c-.26,0-.51,0-.76,0s-.5.08-.73-.08V54.82s0,0-.09-.11h-2.19V54c0-.26,0-.51,0-.76s.08-.5-.05-.73h-4.43s-.07.07-.07.09v4.28a.15.15,0,0,1,0,.09.45.45,0,0,1-.07.07h-4.36l-.11.08c0,.57,0,1.16,0,1.76,0,.15.06.32-.09.43H132.3s0,0-.08.07V61.5a2,2,0,0,0,.76,0c.25,0,.51,0,.76,0s.5-.09.72,0a.65.65,0,0,1,0,.11V65.9a.28.28,0,0,0,0,.09s0,.05.07.12h.72c.25,0,.5,0,.75,0s.5-.08.73.07V68.1a1.21,1.21,0,0,0,0,.19s0,0,.08.1H139v.77c0,.25,0,.51,0,.76a1.44,1.44,0,0,0,.07.76h2.15a2.29,2.29,0,0,1,0,.77c0,.26,0,.51,0,.76s-.08.5.07.74h2a.27.27,0,0,1,.09,0s0,0,.11.09v4c0,.15-.06.32.1.44H148s.07,0,.09,0,.05,0,.11.1v2.12a2,2,0,0,0,.77,0c.25,0,.5,0,.76,0s.49-.08.74.07v.76c0,.22,0,.44,0,.66a2.42,2.42,0,0,0,.06.79h6.62a.11.11,0,0,0,.08,0s.05,0,.08-.07V80.08a1.21,1.21,0,0,1,0-.19s0,0,.09-.1h4.41a1.86,1.86,0,0,0,.05-.77c0-.25,0-.51,0-.76V76.74c0-.25,0-.51,0-.76s-.08-.5.08-.76h2.14a1.43,1.43,0,0,0,.05-.2q0-4.38,0-8.74a.29.29,0,0,0,0-.09s0,0-.08-.08h-2a.27.27,0,0,1-.09,0s0,0-.11-.08ZM29.61,73H27.45s-.05,0-.1-.1V64.26c0-.14.06-.31-.1-.43H22.89s0,0-.1.09V66c-.05,0-.07.08-.1.09a.33.33,0,0,1-.1,0H13.77s0,0-.07.08,0,.11,0,.16V77.26a1,1,0,0,0,.06.25h13.5s.05,0,.11-.08v-.71c0-.26,0-.51,0-.76s-.08-.5.08-.73h2.09l.08-.08Zm2.3-36.48v2a1.2,1.2,0,0,1,0,.19s0,.05-.11.1H29.69a1.86,1.86,0,0,0-.05.77c0,.25,0,.51,0,.76s.08.5-.07.75H27.41a31.94,31.94,0,0,0,0,4.56H31.8s0,0,.11-.08V44.8c0-.25,0-.5,0-.76s-.08-.49.08-.72h2.09s0,0,.1-.08V41H35c.25,0,.5,0,.76,0a1.44,1.44,0,0,0,.76-.07v-2.2h.77c.25,0,.51,0,.76,0s.5.09.74-.07V34.32s0,0,0-.07a.55.55,0,0,0-.17,0H34.35l-.08,0a.23.23,0,0,0-.07.07c0,.71,0,1.43,0,2.18Zm2.35,29.66s-.07.07-.07.09v11a1.2,1.2,0,0,0,0,.19s.05,0,.08.08H36.4s.07-.07.07-.09v-11a1.2,1.2,0,0,0,0-.19s0,0-.08-.08ZM22.81,91.18H25l.1.1V93.4a36.3,36.3,0,0,0,4.55,0V89c-.89-.09-5.92-.09-6.82,0Zm27.32,41H38.86s0,0-.11.08v2a.16.16,0,0,0,0,.09l.06.06H50s.05,0,.09-.07ZM102.59,22.8h2.16s0,0,.07-.08a.65.65,0,0,0,0-.16V16.21a1,1,0,0,0-.07-.24h-2.11s0,0-.08.09Zm47.85,66c.09.13.22.09.34.09H157a.73.73,0,0,0,.24-.07v-2a.33.33,0,0,0,0-.1.59.59,0,0,1-.08-.08h-6.42c-.12,0-.26,0-.34.1ZM38.73,22.8H36.57s0,0-.1.09v2.7c0,.29,0,.57,0,.85a3.06,3.06,0,0,0,.05.91h1.94a1.21,1.21,0,0,0,.19,0s.05,0,.08-.08ZM22.78,43.38a38,38,0,0,0-4.53,0v2.15a40.21,40.21,0,0,0,4.53,0ZM159.56,48s-.05-.06-.07-.06h-2.16a2.07,2.07,0,0,0-.05.74,6.42,6.42,0,0,0,0,.76c0,.24-.07.49.05.74h2.15s.07-.06.07-.09C159.56,49.36,159.56,48.67,159.56,48Zm-31.9,18.14h2.16s.05,0,.11-.09c0-.66,0-1.35,0-2a.19.19,0,0,0,0-.08l-.07-.07h-2.08s0,0-.09.08ZM6.84,68.41v2a1.2,1.2,0,0,0,0,.19s0,.05.09.1H8.69c.14,0,.31.06.43-.1V68.68a1.21,1.21,0,0,0,0-.19s0,0-.07-.08Zm134.47,9.15a2.14,2.14,0,0,0-.75,0c-.25,0-.51,0-.76,0s-.5-.07-.74,0v2.17a1.74,1.74,0,0,0,.75,0,4.7,4.7,0,0,0,.75,0,1.74,1.74,0,0,0,.75,0ZM25.09,98h2a1.08,1.08,0,0,0,.18,0s.05,0,.1-.09c0-.57,0-1.16,0-1.76,0-.14.06-.31-.1-.43H25.17s0,0-.08.07Zm79.75-66.1h-2a1.21,1.21,0,0,0-.19,0l-.1.09c0,.57,0,1.16,0,1.76,0,.15-.07.31.09.43h2.08s0,0,.09-.08Z"/><path d="M57,98h2.19s0,0,.06.07a.13.13,0,0,1,0,.08v2a.58.58,0,0,0,.12.08s.06,0,.09,0h2c.15.24.05.5.07.74s0,.51,0,.76a2.26,2.26,0,0,0,0,.77h2.15c.16.27.06.52.08.76s0,.51,0,.76v1.52c0,.26,0,.51,0,.76a1.85,1.85,0,0,0,.05.77H66c0,.06.09.08.09.1v4.36s0,.06-.07.08l-.09,0H63.88a2.12,2.12,0,0,1-.05-.78c0-.23,0-.45,0-.67v-.76c-.24-.15-.5,0-.74-.07s-.51,0-.76,0a2,2,0,0,1-.77-.06V105l-.1-.1a.33.33,0,0,0-.1,0H59.26V102.7s0,0,0-.07,0,0-.08,0H57Z"/><path d="M47.87,88.91H50s0,0,.1.07V91.1c.25.16.51.06.75.08s.5,0,.75,0a2.53,2.53,0,0,1,.73,0s.05.06.05.09a.28.28,0,0,1,0,.09v2c.23.15.49,0,.73.07s.5,0,.75,0h.71c.05.07.08.09.08.11,0,.73,0,1.45,0,2.17H50.15c0-.72,0-1.43,0-2.15,0,0,0,0,0-.08s-.05,0-.08,0H47.87Z"/><path d="M91.18,2.27h-9s-.09-.06-.09-.08a1.21,1.21,0,0,1,0-.19V.08A1.09,1.09,0,0,1,82.3,0h8.63a.86.86,0,0,1,.17,0s.07,0,.07.07a1.15,1.15,0,0,1,0,.19Z"/><path d="M54.71,2.27H50.23s-.07,0-.08-.08a.33.33,0,0,1,0-.1v-2c.11-.16.28-.1.43-.1h4s.09.07.09.1a1.15,1.15,0,0,1,0,.19Z"/><path d="M116.25,20.52h4.47c0,.07.09.09.09.12V22.8h-4.56Z"/><path d="M66.1,118.54V114h2.2a32.34,32.34,0,0,1,0,4.48s0,0-.07,0Z"/><path d="M45.59,4.57V2.4s0,0,.07-.09h2.13s.05,0,.06.06a.29.29,0,0,1,0,.09v2c-.07,0-.09.09-.12.09Z"/><path d="M95.73,2.3h2.21s.07.07.07.09V4.48L98,4.54l-.08,0h-2c0-.06-.09-.08-.09-.1C95.73,3.77,95.73,3.08,95.73,2.3Z"/><path d="M100.29,6.85V4.67c.12-.16.29-.1.43-.1.6,0,1.19,0,1.76,0,0,0,.08.07.09.1a.27.27,0,0,1,0,.09V6.85Z"/><path d="M45.59,86.63h2.16s0,0,.07,0,0,0,0,.08v2.16H45.71s-.05,0-.07,0,0,0,0-.08Z"/><path d="M120.81,22.8H123s0,0,.1.06V25s0,0-.06.06h-2.12c0-.06-.08-.09-.08-.11Z"/><path d="M129.93,29.64h-2.17s-.05,0-.09-.07V27.44a.12.12,0,0,1,.06-.06.12.12,0,0,1,.08,0h2c0,.07.08.09.08.11C129.93,28.2,129.93,28.92,129.93,29.64Z"/><path d="M54.71,95.74h2.15s0,0,.08,0,0,0,0,.08c0,.71,0,1.43,0,2.15H54.83s0,0-.08,0,0,0,0-.08C54.7,97.18,54.71,96.46,54.71,95.74Z"/><path d="M22.79,31.92c0-.72,0-1.44,0-2.16,0,0,0-.05,0-.07s.05-.05.08-.05h2.15V31.8s0,.05,0,.07-.05.05-.08.05Z"/><path d="M22.79,34.2H20.61c-.16-.11-.09-.28-.09-.43,0-.59,0-1.19,0-1.76.06,0,.08-.08.11-.09a1.08,1.08,0,0,1,.18,0h2Z"/></g></g></svg>