<svg xmlns="http://www.w3.org/2000/svg" viewBox="0 0 324.31 220.93"><title>Recurso 19GRAPHS</title><g id="Capa_2" data-name="Capa 2"><g id="Capa_1-2" data-name="Capa 1"><path d="M56.08,35.89c0-.61-.71-.66-.8-1.37a2.45,2.45,0,0,1,.44-1c.32-.33.31-.73.51-1.07s.86-.56.88-1.15.52-.62.72-1,.8-.51,1.27-.73V27.89l1.73-3.5,1.82-.82V21.51l1-1v-4l1-1.08v-.84c.72-1,.87-2.35,2-3.12V10.37l-1-.47v-1c.47-.53,1.1-.15,1.74-.27l.73-.67.09-1.63c.35-.39.8-.12,1.19-.21.58.46.17,1.09.34,1.91l.86.64h.87c.42.35.15.8.24,1.2l-.51.55v1l.52.55v1a4.13,4.13,0,0,1,1,.56c.42.42,1-.11,1.37.34s.76.24,1.12.37a4.32,4.32,0,0,1,2,1.24v2c-.48.52-1.11.15-1.66.25-.38-.11-.53-.69-1.06-.5s-.14.91-.29,1.18l-.76.84H72l-.45.45L70,19.76a1.5,1.5,0,0,0-.2.43c0,1.09,0,2.19,0,3.09l.79,1.19,1.06-.69H73l.73.7,0,1L72.05,27a25.74,25.74,0,0,0,7.15.18l.38-.38h7.54l.57-.52h6.55c.26-.31.65-.52.82-1-.61-1.24-1.79-1.72-3-2.21V21l.63-.76c.64-.23.8.32,1.25.49h1.38l.55.55.64-1.07h1.24a.62.62,0,0,0,.24-.86c-.35-.34-.8-.07-1.19-.17L96,18.47l.7-.74,1,0,.75-.69V6.92l.79-.86.82,1.6-.57.75V17l.75.73h1.44c.39.4,1.08.61.76,1.37-.59.34-1.29,0-2.08.28a9.86,9.86,0,0,1,1.48,1.52c.29.48.41,1.06.94,1.39h1l.72.78V24.6l-1.13.78.88.89h3l.57.52h5l.26.29c.14.12.21.21.27.21h12.6l.46.47h5.56l.54.53h12.12l.54.54h6.06l.48.48h4.5c.06,0,.13-.09.19-.13s.06-.15,0-.18c-.47-.48-.94-1-1.43-1.44v-.68l.75-1.25c1.05.73,2.46.68,2.4,2.19l.66-.05c.06-.06.17-.12.18-.18,0-.66,0-1.33,0-2.08l-.66-.69H156l-.77-.71c-.2-1,0-2.11-.12-3.18l-.41-.4V18.4a.85.85,0,0,1,.88-.12c.58-.29.85-.46,1.14-.58a1.68,1.68,0,0,0,1-1c.39-.94.88-1.83,1.49-3.07V6.8c.63-.38,1.22-.16,1.78-.2.08.13.24.27.24.4,0,2.44,0,4.88,0,7.14l1.73,3.54h3.49a3,3,0,0,0,1.3.71v2.26a25.55,25.55,0,0,1-2.75.1c-.28,1-.28,1,.25,1.74v1.57l-.87.73h-3.06a6.83,6.83,0,0,0-.09.79c0,.67,0,1.33,0,2,0,.06.11.12.21.22l2-2c.85.08,1.11.8,1.65,1.18a5.18,5.18,0,0,1-.52,1.2,16.66,16.66,0,0,1-1.4,1.39v.58c.74.49,1.63,0,2.39.34l.37.37h1l.56.52H169l.55.52h1l.56.49a6,6,0,0,0,1,0c.51-.1.67.43,1.06.51s.75-.05.95.12a1.64,1.64,0,0,0,1.11.41,3.93,3.93,0,0,1,1,.47h1.77c.39.6,1.24.44,1.62,1h3c.14.14.24.32.38.37.6.18,1.3.05,1.76.63h1.76l1.78,1h2.26l1.77,1h1.22c.45.06.67.59,1.28.55s1.27.59,2.07.49c.6-.07,1.06.75,1.81.5.13,0,.37.29.59.47h2l.56.52h2l.45.44,1.1.1.41.41h1.83l1.89,1h1.83L212,43h1l.38.36a1.69,1.69,0,0,0,.43.15c.59,0,1.18,0,1.74,0,.44-.34.18-.8.27-1.26l1.65-.84,1.85,2.11.81,0c.47-.5.13-1.12.23-1.71l-.72-.76-1.14,0-.65-1v-.76l.73-.74h1l.73-.74V28.56l-.68-.71h-2.3l-1.45-.73s-.09-.07-.09-.14c0-.83,0-1.67,0-2.46l1.2-1.21c-1.87-.12-3.45,0-4.83-.07l-1.42-.73V21l.76-.71h4a2.92,2.92,0,0,0,1.22.64l.29.85h.57c.43-.32.18-.78.29-1.36l1-.74V19l.84-.82c.37-.53-.13-1.28.67-1.65V6.7l.74-.13c.09.09.2.15.2.2,0,3.2,0,6.39,0,9.5.62.76.81,1.69,1.58,2.23,0,1,1.08,1.19,1.49,2.19l.08,1.39a1.19,1.19,0,0,0,.24.12c.48-.47,1-.95,1.45-1.45h1l.53.48h2.52l.73.77v1.51l-.71.75h-4.09c-.31.38-.36.7,0,.94s.3.74.32,1.24c-.27.54-.86.88-1.31,1.38h-3l-.74.73v9.14l.74.65c.82-.14,1.41.57,2.23.74v1.16c-.43.24-1,.26-1.26.71h-1l-.75.75c0,.65,0,1.33,0,2,0,.06.1.12.16.18l1.27-.59c0-1.32,1.35-1.28,2.12-1.85.5.06.65.52,1,.76v1.51l-.49.53c.07.06.12.17.19.18a9.94,9.94,0,0,0,2.11,0l.45-.45h1l.56-.52h4l.45-.45,1.1-.09c.12-.12.23-.24.41-.41h3.44l.72-.57h2l.47-.47h3l.58-.52h2.49l.56-.52h3l.36-.37c.06,0,.13-.12.2-.13h3.47l.49-.49h2l.54-.54h3l.47-.46h2l.57-.53h3l.56-.52h1.49l.42-.41a6.77,6.77,0,0,1,1.92-.08c.58,0,1.16,0,1.7,0l.4-.41c.58-.35,1.34.25,1.88-.35s1.29,0,1.87-.36c0-.06.11-.16.1-.17-.47-.49-1-1-1.45-1.46V31.67l-.52-.59c-.19-.49.24-.71.5-1v-1l.48-.54-.73-.73h-2l-.73-.75V25.53l.68-.71h3.2c.15,0,.29.64.81.46,1.09-.59,1-1.94,1.79-2.76.17-.18.06-.64.08-1l.48-.53V15.91l-.76-.71h-1l-.78-.8c-.11-.74.49-.89.81-1.26h1l.73-.74V6.86c.31-.46.77-.19,1.19-.31l.8.74V22.48a3.74,3.74,0,0,1,1.33,1.83c.18.69.91,1.16.73,2-.09.41.43.49.49.8a17.7,17.7,0,0,0,1.3,2.75c0,.07.11.12.2.21v1.53l-.46.52v2L284,36.53v1L286.43,40v1.8c-.6.31-1.18.13-2.07.15l-1.44-1.45c-.69.27-.7.3,0,1.18V57.41l-.4.4c.48.93,1.51,1,2.22,1.38a9.48,9.48,0,0,1,2.77,3.72v2c-.16.18-.44.34-.48.54-.34,1.66-1.67,2.57-2.72,3.68a1.58,1.58,0,0,0-1.33.92,9.1,9.1,0,0,0-.42,1l.38.38v28.81l-1.37.73H279.2l-.79-.66V99.27c.51-.52,1.15,0,2-.53l.42-.41V70.54c-.62-1.13-1.91-1.47-3-2.06,0-.22,0-.38,0-.55l-.94-.94-.05-1.13-1.66-1.13h-1.41c-.74-.6-1.78-.65-2.11-1.51-.61-.2-.86.17-1.1.44H268c-.49-.63-1.63-.49-1.77-1.63.25-.55.87-.88,1.28-1.39h1.83a11.78,11.78,0,0,1,1.4.73,7.3,7.3,0,0,1,.94.92l1-.61h3.85a6.11,6.11,0,0,1,1.1-1.56,17.1,17.1,0,0,0,1.49-1.47l1,0,.73-.66V51.26l-.69-.73h-1c-.23-.34-.69-.49-.75-.94s.47-.66.69-1l1.16-.13a1.33,1.33,0,0,0,.17-.23,1,1,0,0,0,0-.25V42.2l.4-.39c.12-.46.29-.94-.13-1.35-.05-.05-.16,0-.44,0a16.91,16.91,0,0,0-1.55,1.48h-1.62c-.41-.56,0-1.17-.32-1.85l1.38-.94-.95-.22-.59.54H275.1l-.41.41a6.85,6.85,0,0,1-1.93.08c-.58,0-1.16,0-1.69,0l-.5.5h-1.52l-.53.53H265l-.46.47h-2L262,42h-4l-.41.44H255l-.54.53h-2l-.54.54h-3l-.53.54h-2l-.47.46h-3l-.56.52h-2l-.44.44h-3l-.5.51h-1.41l-.74.57h-3.47l-.48.47h-1.46l-.59.52c-1.21,0-2.45,0-3.65,0l-.11.5,1.49,1.48v3.3l.52.56v1l.37.37c.29.46,0,1,.16,1.38a6.77,6.77,0,0,1-1.52,2.24c0,1.06-.89,1.22-1.58,1.57a3.24,3.24,0,0,1-2.45.7v21l.64.71,1.64.09c.23.32.66.5.71.71,0,.75-.5.88-.73,1.24H222.1l-.75,1.44v1.35a2.6,2.6,0,0,1,.39.47,3.6,3.6,0,0,1,.21.75l1.66.1.72.71c.12.63-.4.86-.73,1.25h-1.49l-.76.72v8.09a3.64,3.64,0,0,0,2,1.56c1.08.35,1.67,1.29,2.49,2v1l.52.58v1.49l2.45,1.26h1.3c.3.46.94.38,1.21.72.45.58,1.12.07,1.59.5a7.33,7.33,0,0,0,1.44.78h1.15l1.86,1h1.34c.38.6,1.23.44,1.61,1h1.8a5.23,5.23,0,0,1,1.4.75c.46.51,1.14,0,1.6.5a4.72,4.72,0,0,0,1.38.74h.8l.57.52h.82a4.78,4.78,0,0,1,1.37.74c.46.55,1.13,0,1.6.5a5.4,5.4,0,0,0,1.4.75h1.69l1.81,1h1.16c.14.06.34.09.41.2.31.44.95.21,1.26.69.08.13.45.13.69.11s.59.39.83.41c.67.05,1,.78,1.79.63.54-.1.87.69,1.56.5.48-.13.7.7,1.3.5s.72.47,1,.46c.62,0,.87.78,1.56.56s.87.63,1.56.53,1.07.77,1.82.45l.56.51h1l.56.52h1l.52.47h2.54c.33-.33.6-.84.93-.87.54-.06.79-.59,1.27-.61s.65-.48,1-.7V110.4l-.65-.71-1.63-.08c-.42-.36-.06-.82-.26-1.2l.83-.76h3l.71.67v2.07l-.41.5.44.53v8.06l-.55.6.73,1.56a3.21,3.21,0,0,1,.52.14c.14.06.24.22.38.29a8.59,8.59,0,0,0,.85.34l1.39,1.46.73,1.28v3.33c-.75,1.29-1.37,2.55-2.84,3l-1.82,1.83.6,1v11.51l-1.37.73h-1.82l-1.33-.75c-.09-.62.46-.84.75-1.22h1l.72-.77V133.1c-.64-.49-1.07-1.38-1.95-1.71s-1.29-1.28-2.06-1.69v-1.08l-.52-.56v-1c-.83-.91-2-1.17-3.06-1.75-.88.07-1.44-.59-2.62-1l-1.22-.12c-.41-.77-1.53,0-1.9-.9h-1l-.56-.52h-.86l-1.77-1h-1.18c-.4-.18-.75-.36-1.11-.5s-.55-.64-1.06-.51-.72-.32-1.07-.44-.78-.21-1-.58h-1.38a4.34,4.34,0,0,1-1.37-.74c-.45-.54-1.13,0-1.59-.49a5.79,5.79,0,0,0-1.41-.76h-1.29l-.57-.52h-1l-.56-.52h-1.27c-.83-.39-1.46-.95-2.09-.94s-1.08-.87-1.82-.57a10.76,10.76,0,0,1-1.66-.84c-.41-.28-.82,0-1.2-.18s-.39-.48-.8-.52-.54-.31-.85-.5H237.7l-1-1a7.43,7.43,0,0,0-1.41,0c-.59.12-.84-.5-1.31-.51a1.94,1.94,0,0,1-1.34-.48c-.31-.26-.94.13-1.36-.37-.29-.35-1-.14-1.13-.68H228.8l-1.82-1h-2l-.77,1h-.66l-.93.93-1.15.14a1.16,1.16,0,0,0-.19.43c0,3.45,0,6.9,0,10.19l.77,1.48h2.08c.52.86-.3,1.05-.58,1.48h-1.51c-.23.34-.69.49-.76,1s.49.61.65,1h1.69l.71.75-.76.81h-1.54l-.73,1.43v1.91l.83.66h3l1.21,1.59v3.8c.59.29,1.25.28,1.51,1.54v.92a3.08,3.08,0,0,1-1.5,1.07v.87c-.26.54-.86.88-1.29,1.37h-3.66a10.48,10.48,0,0,0-.1,2.44c0,.76,0,1.52,0,2.27.15.36.7.53.51,1.06a5.11,5.11,0,0,0,2.47.9v2.13c.6.52,1.21.2,1.8.29l.54.5h6.56l.26.28c.15.12.21.22.27.22h4.52l.47.47h6.06l.54.53h5l.53.54h5.05l.47.46h6.53l.57.52H267l.33.35a1.45,1.45,0,0,0,.46.15h7.79l.76-.76c0-1,0-2,0-3,0-.07-.1-.13-.15-.19-.48-.29-.76,0-1.07.38h-3.65l-.71-.9-.94-.19v-1.15l.64-.7h3c.64.42,1.54.66,2.06,1.47l.78-.11v-2.21c.51-.25,1-.3,1.31-.71h8.57l.74.74v9.11l-1.43,1.39a4.16,4.16,0,0,0,1.43,2.08v1.58l-.75.72H283.8a1.79,1.79,0,0,0-.95,1.38l-.65.27c-.46.31-.52.39-.59.39h-1.9a6,6,0,0,0-.67-.5,3.72,3.72,0,0,0-.65-.19V165c-.59-.54-1.05-1.27-1.93-1.42-.36-.71.13-1.22.42-1.78-.4-.76.64-1.12.5-1.81-.05-.07-.1-.18-.15-.18l-6.72-.16-.47-.48H266.5l-.47-.46h-8.55l-.57-.52h-6.06l-.43-.48c-2.16-.09-4.41,0-6.65,0l-.45-.45h-5.56l-.54-.53h-5.05l-.45-.46h-5.81l-.08,1.07a3,3,0,0,1,.51.75,3.24,3.24,0,0,1,0,.93c-.48.28-1,.28-1.3.72h-8.57l-.73-.74v-2l1-1.05c.13-.68-.51-.83-.7-1.24h-1.56l-.56-.52h-4l-.44-.45-1.6-.08-.47-.47h-5.56l-.47-.47H198.9l-.59-.52h-4.5l-.56-.53h-1.5l-.43-.42c-1.33-.2-2.75,0-4.15-.11l-.45-.45h-2l-.53-.54h-3.54l-.47-.47h-2.48l-.59-.52h-2.48l-.56-.52h-3l-.45-.45c-.8-.14-1.72,0-2.61-.09l-.41-.41H164.9a.63.63,0,0,0,0,.89,15.56,15.56,0,0,1,.78,1.39l-1.07,1.07a1.91,1.91,0,0,1-.45.13H156l-1.36-1.36c-.14-.64.95-1,.45-1.86a5.36,5.36,0,0,0,1-1c.19-.34.13-.81.67-1l-1.44-1.29h-.87l-1.09-1h-1.06c-.6-1.17-2-1.17-2.93-1.95-.2-.16-.65,0-1,0l-.58-.54c-.33,0-.79.14-1,0-.9-.8-2.34-.76-2.95-2-.84.26-1.36-.49-2.09-.52-.37-.58-1.22-.43-1.6-1-.63.14-.89-.72-1.53-.57-.43-.51-1.09-.61-1.63-.93a10.5,10.5,0,0,1-1.47-.7c-.38-.33-.75-.26-1.14-.34a4.35,4.35,0,0,1-1.05-.49l-3.9-2h-.9c-.59-1.16-2-1.15-2.92-1.94-.21-.17-.64-.08-1.18-.14l-.68-.92c-.68-.1-1.16.07-1.6-.36a5,5,0,0,0-1.24-.65c-.38-.21-1,.11-1.32-.45-2.65-1.15-5.16-2.58-7.8-3.75-.32-.56-.9-.27-1.34-.41s-.56-.63-1.06-.48c-.37-.61-1-.52-1.58-.54a5.22,5.22,0,0,0-2.14-1.46c-.25-.14-.63,0-1,0l-.17.79-1.39.72h-2.86l-.71.72c-.24.51.17.75.45,1l-.49.53v1.33l.73,1.42c.88-.22,1.49.45,2.22.72.07,0,0,.3.09.55-.18.08-.38.16-.57.26l-.79.45H97.3l-.77-.67a1.09,1.09,0,0,1,1-1.27c.49-.09.63-.51,1-.73v-3.59l-.66-.71H95.56l-1.48-.74s-.08,0-.08-.11c0-.84,0-1.67,0-2.48l1-1v-1.1c-.4-.38-.85-.11-1.23-.22l-.45-.45h-2l-.49-.49-1.65-.13c-.4-.81-1.52-.06-1.91-.92h-2.5l-.57-.52h-1l-.56-.52h-2l-.19-.19c-.06-.06-.11-.14-.18-.17-.58-.22-1.33,0-1.76-.64H76.7a5.78,5.78,0,0,0-2.11-1,2.46,2.46,0,0,0-.67.07c-.55.87.94,1.27.12,2.42a4.73,4.73,0,0,1-.45.5h-3l-.63.63a1.5,1.5,0,0,0-.16.43c0,2.27,0,4.55,0,6.79.43.88,1.69.71,2,1.69.08.51-.41.66-.68,1H66.46l-.75-.67c-.11-.66.42-.89.74-1.28h1l.69-.8v-7.11c-.43-.34-.85-.09-1.31-.22-.06.29,0,.6-.17.73-1.23,1.1-1.52,2.76-2.43,4.06-.35.49-.39,1.21-.76,1.69s-.72,1-1.08,1.57a19.09,19.09,0,0,0-1.06,1.59c-.23.41-.19,1-.69,1.23s-.44.84-.72,1.22c-.51.7-.61,1.63-1.24,2.26a4.18,4.18,0,0,0-1.1,2.07c-1.23.89-1.24,2.64-2.48,3.52,0,.44-.38.73-.48,1.06s-.47.7-.54,1c-.26,1.31-1.4,2.1-1.83,3.29a4.18,4.18,0,0,0-1.21,2c-.26.7-1.2.94-1.11,1.81-.59.47-.69,1.24-1.21,1.8a15.53,15.53,0,0,0-1.23,2.25c-.28.46-.29,1.11-.63,1.49-.49.56-.78,1.25-1.25,1.75-.62.66-.75,1.67-1.62,2.13v5.11a11.16,11.16,0,0,1-1,1,6.69,6.69,0,0,1-1.07.55c.18,1.1,1.25,1.88,1.11,3.08l.89.89v1.67l-1.56.66H39.69c-.14.15-.24.2-.25.27a4.17,4.17,0,0,0,0,.5v22.22l.74.74H281.71l1.17,1.38v4.54l-1.22.51-1.22-.5c-.08-1.18,0-2.43-.06-3.66a1,1,0,0,0-.18-.18.56.56,0,0,0-.23,0c-18.33-.2-54.72-.12-58.13.13v3.57l-.75.82c-.71.2-.86-.48-1.27-.65-.08-1.3,0-2.54-.06-3.83H161.33c-.32.65-.08,1.32-.13,2s0,1.18,0,1.77c-.33.24-.49.68-.95.76a1.14,1.14,0,0,1-.44-.14c-.38-.34-.73-.71-1.08-1.06v-2.14l.47-.47-.86-.68H100.19a5.74,5.74,0,0,0-.12,2c0,.58,0,1.17,0,1.72l-.69.69L98,196.79v-3.65c-2.66-.19-51-.26-57.84-.09l-.72.7v1l.53.58a4.26,4.26,0,0,1-1.24,2.14l-1.38-.71V193H33.62l-.75-.78c-.09-.65.46-.86.75-1.25h3.61a2.74,2.74,0,0,0,.17-.64c0-5.65,0-11.29,0-16.93a2.08,2.08,0,0,0-.1-.47c-.46-.28-1-.11-1.45-.14s-.83,0-1.22,0a2,2,0,0,0-1.59-.57c-.39-.33,0-.8-.24-1.18l.84-.75h2.94l.77-.72v-2.14c-.08-.08-.14-.19-.2-.19-.84,0-1.68,0-2.36,0l-1.41-.74v-2.56c1.09-.7,1.16-2.11,2-3.06-.4-.39-.84-.12-1.24-.21l-1.25-1.26v-8.58c.34-.74,1.28-.67,1.75-1.26a23.36,23.36,0,0,0,2.75-.1V142.1a11.5,11.5,0,0,0-1.63-1,2.67,2.67,0,0,1-1.21-.74c-.2-.25-.63-.5-.62-.73,0-.63-.72-.87-.57-1.57s-.83-1.06-.43-1.89l.45-.51v-1.5l2.57-2.45c-.51-.57-1.11-.25-1.61-.34l-1.45-.77v-1l.74-.74h3.07l.68-.86V111.23H34.68c-.55-.71-1.66-.6-1.88-1.6.29-.66.92-1,1.32-1.5h3c.41-.31.24-.76.25-1.15,0-3,0-6.07,0-9.1-.33-.46-.63-1-1.32-.92-.89-.9-1.78-1.79-2.68-2.68a1.25,1.25,0,0,0,0-.48,4.25,4.25,0,0,0-.49-.59v-3l.49-.54L33,89.29c-.24-.36,0-.77-.1-1.14a38.75,38.75,0,0,0,4.28-2.21,2.43,2.43,0,0,0,.26-.33,1,1,0,0,0,0-.25V71.42c-.89-.37-1.82,0-2.84-.26a1.72,1.72,0,0,0-.43-.38,2.87,2.87,0,0,0-.77-.14c.29-1-.7-1.65-.5-2.59.32-.34.49-.85,1.11-.85s.2-.72.58-.93c.57-.32.2-.92.39-1.4l.92-.91.05-1.12,1-.58-.15-1c-.12,0-.21-.06-.24,0l-1.44,1.43h-1l-.71-.76v-1a.43.43,0,0,1,.1-.16l2.85-2.86s0-.15,0-.23,0-.35-.14-.45c-.94-1-1.89-1.91-2.87-2.88v-1l.7-.73.9,0c.85.35,1.09,1.54,2.15,1.55.09-.09.2-.15.2-.21,0-1.51,0-3,0-4.65l-.64-.7h-3l-.87-.76,0-.55,1.43-.73h2.81c.06,0,.13-.1.24-.19V28.49c-.58-.35-1.17-.14-1.74-.17s-1,0-1.32,0l-1.43-.73v-1l1.5-.78h2.81c.12-.15.22-.21.22-.28V8.35l-.75-.75H34L32.9,7c-.11-.81.4-1,.65-1.33h5.18l.56.56c.05.06.13.12.14.19a4.17,4.17,0,0,1,0,.5v32.6l.75,1.45h.12l1.12.65c.11.81-.4,1-.64,1.31L39.61,43a1.58,1.58,0,0,0-.17.45c0,3.45,0,6.9,0,10.41l.7.26,4.28-4.28a2.88,2.88,0,0,1,1.39-.94c.57-.12.65-.85.89-1.35l.49-.06c.11-.11.33-.22.32-.32a.83.83,0,0,1,.42-.83c.56-.32.45-1.06.9-1.4s.57-1,.92-1.38.12-.94.51-1c.68-.18,1.21-.89,2-.6,0,0,.13-.09.25-.19l-.43-.56V39.58l1-.74V37.67c.71-.38.37-1.51,1.25-1.77h1.76c.18.36.37.69.6,1.07l-.58.78c.08.38-.18.84.24,1.16l1.42-1.39L59,36.27l1.42-1.43a8.6,8.6,0,0,0,1.23-1.26c.41-.59,1.09-.66,1.59-1,.13-.11.34-.24.34-.36,0-.67.52-1,.91-1.39a3.34,3.34,0,0,1,1.56-1.11c.3-.08.72-.44.68-.77L63.79,26a4.33,4.33,0,0,0-1.64,2.64L60.33,30.3l-.62.13c.27.61.67,1.13.32,1.79a6,6,0,0,0-1.11,1.53c-.22.36-.16.79-.48,1.08s-.71.71-1.06,1.06ZM40.51,155.12c.78,0,.18-1.06.84-1.16l-.14-.37-.7.09a9.45,9.45,0,0,1-.07,1.43c-.51.3-.51.3-.29,1C40.69,155.89,40.35,155.44,40.51,155.12Zm92.69-24.2c.83,1.05,2.15,1.32,3.23,2,.72-.24,1.12.62,1.8.53.38.83,1.49.12,1.9.89,1,.37,2,.95,3,1.42s2.08,1.09,3.14,1.57a5.91,5.91,0,0,1,1.56,1.12c.57,0,1.17-.07,1.54.53.67-.28.87.79,1.56.51s.78.46,1.3.54a4.86,4.86,0,0,1,1.45.74l1.44.73h.78l.59.54.31-.9c.65-.06,1.06-.68,1.76-.67s1.22-.86,1.79-.52l.79.59c.51.11,1-.22,1.53.11l.68.75-.54.93v1.52l.78.72H167l.66.52h2.93l.42.42c1.23.14,2.48-.08,3.63.09l.44.44h3l.57.52h2l.58.52h3.49l.47.47h1.46l.72.57h4.45l.42.42,1.6.08.45.46h4l.56.52h2l.58.52h4l.47.47h1.45l.73.57h5.46l.45.45h3.48c.07,0,.13-.09.25-.17s0-.44.06-.67.12-.45.17-.66h.66c1.26-.29,1-1.34,1.69-1.77,0-1.5,0-3,0-4.52,0-.07-.1-.13-.23-.28H216.4c-.41-.66-.78-1.27-1.16-1.87,0-2.11,0-4.21,0-6.32,0-.13-.15-.26-.31-.52l-.9,1.15c-.45,0-.89.07-1.09-.1-.49-.44-1.14-.55-1.64-.93-.77.4-1.13-.62-1.82-.53-.08,0-.19-.22-.25-.29v-1.36l.67-.84h1.8l.69,1a3.21,3.21,0,0,1,1,0,14.89,14.89,0,0,1,1.34.76l.25.8a4.62,4.62,0,0,1,1.71-2.11h2.86l.78-.69v-1.89l-.7-1.37c-.57-.2-1.18.13-1.72-.22-.07-.47-.3-1,.17-1.36h1.57c.18-.41.82-.57.79-.76l-.87-1.39c-.63-.16-1.31.51-1.75-.15.08-.4-.18-.85.21-1.19l1.61-.09c.26-.52.47-.93.66-1.33V111.34a8.34,8.34,0,0,1-1.74-.77c-.61-.31-1-1-1.75-1.17l0-.92-1-.56v-1.81l-.58-1.38a5.85,5.85,0,0,1-1.48-.66c-.55-.46-1.2-.4-1.78-.61a10.36,10.36,0,0,1-1.53-.88h-1l-.77-1a3.7,3.7,0,0,1-1.15-.1c-.5-.22-.93-.59-1.41-.86s-.94.08-1.39-.34a3.15,3.15,0,0,0-1.45-.72c-.38-.08-.52-.52-.79-.51-1,0-1.61-.67-2.42-.88a12.44,12.44,0,0,1-2.39-1A11,11,0,0,1,195.25,96a2,2,0,0,1-1.58-.49,1.88,1.88,0,0,0-1.28-.48c-.7.15-.94-.63-1.57-.58-.24,0-.51-.34-.7-.48h-1.38c-.17-.16-.39-.5-.52-.47-.61.16-.79-.55-1.31-.55s-.72-.68-1.28-.55c-.25-.51-.85-.39-1.24-.7-.66-.55-1.63-.59-2.25-1.26-.71.24-1.26-.21-1.8-.52a10.23,10.23,0,0,1-1.66-.89,4.86,4.86,0,0,0-1.37-.61h-1.15c-.26-.17-.52-.46-.8-.48-.52,0-.71-.75-1.31-.54s-.88-.75-1.54-.54c-.35-.65-1-.38-1.54-.53L170,85.4c-.29,0-.71.13-.93,0-1.17-.81-2.59-1.14-3.68-2h-1.49c-.34.34-.59.77-1,.9a1.86,1.86,0,0,0-1,.57,2.37,2.37,0,0,0-.19.35c.69.26,1.44.44,1.46,1.44l-.82.7-1.06.12c-.07.1-.16.17-.16.23,0,1.68,0,3.36,0,5.08a2.78,2.78,0,0,1,.88.33,1.31,1.31,0,0,0,.87.38c.12,0,.22.38.4.71l-.87.75c-.48.1-.94-.16-1.28.28v10.07c0,.06.1.13.23.28h2l.46.45,1.13.14.73,1.44V112l4,2c0,.71,0,1.38,0,2,0,.06-.12.12-.18.19h-2.64l-.43-.44h-1.09c-.45.88-1.46,1-2.3,1.5l-1.14-.66-.77,1V134.7l1.94.9V137c-.73-.55-.85.23-1.21.36h-3.27a4.16,4.16,0,0,1-2-1.22,3.18,3.18,0,0,1,.6-.58c.62-.33,1.27-.6,1.94-.9q0-8.59,0-17.17c0-.06-.09-.13-.2-.28h-2.1c-.37-.79-1.09-.38-1.59-.63l-.68-.71v-4.42a5.15,5.15,0,0,0-2.59-1.86,4.29,4.29,0,0,1-.93-.72c.1-.62-.2-1.22.2-1.74,1.08-.16,2.17.08,3.21-.13l.89-.94c.54.2.73-.31,1.15-.54h2.94c.06,0,.12-.12.19-.19l-.48-.54q0-4.65,0-9.32a1.41,1.41,0,0,0-.18-.46l-1.16-.13c-.24-.35-.75-.49-.64-1.3l1.33-.78c-.2,0,.25.31.6-.06V87.56a5.87,5.87,0,0,1-2.47-.9v-.6c.46-.3,1-.64,1.51-1-.43-.12-.51-.63-1-.68a1.08,1.08,0,0,1-1-1c-.09-.58-.68-.73-.86-1.16a2.68,2.68,0,0,0-.93-1.4h-1l-.56-.52h-1.47l-.58-.52h-4.5l-.48-.47h-1.95l-.74-.57h-3.94l-.5-.5h-2l-.45-.45h-5l-.56-.52h-3l-.46-.46h-4l-.54-.53h-3l-.53-.54h-3c-.2-.21-.32-.33-.44-.44-1.07-.11-2.15,0-3.11-.08l-.46-.46h-2.51l-.56-.52h-2.92l-.93-.64-2.66,2.66a4.38,4.38,0,0,0-2.86,2l.59,1c-.08.52-.71.65-.42,1.46l.59.6h2.3a4.69,4.69,0,0,1,2.56,1.85c0,1.77,0,3.54,0,5.31,0,.13.17.25.32.47l1.23-.61c.63.35,1.23.93,1.87,1s1.29.63,2,.69l.7,1.62L109.92,93c-.73.15-1-.62-1.68-.53a2.24,2.24,0,0,1-1.48-.62c-.44-.36-1.11-.29-1.41-.83l-.72.72,0,.5-1.53.84H99.64c0,.28-.08.52-.08.75,0,3.12,0,6.23,0,9.35,0,.14.13.28.21.43h1.66c-.25,1,1.35.06,1.13,1.27l-.79.8h-1.46l-.75.72v1l.73.73h1.47c.84.78.84.78.82,1.17-.09.12-.17.29-.29.36s-.45.12-.67.22a2,2,0,0,0-.38.29c-.55.1-1.17-.25-1.76.31l.67,1.44-.3.25,1.25.75V114l1,1v1l2.43,1.74h1c.22.25.44.7.79.85a16.55,16.55,0,0,1,1.88,1c.31.18.63.13.91.25.64.27,1.42.36,1.85,1s1.23.45,1.61,1c1.28-.07,2.2.8,3.24,1.32a4.68,4.68,0,0,0,1.24.22l1,1h1a1.58,1.58,0,0,0,.37.36c.68.37,1.43.6,2.1,1a9.94,9.94,0,0,0,1.88.92c.72.29,1.34.93,2.23.73,1.71,1.11,3.6,1.87,5.4,2.82A3.35,3.35,0,0,0,133.2,130.92Zm28-76.65v7.14l2,1c-.09.45.17.9-.26,1.23h-1c-.23.29-.65.44-.68.94l1.21.12c.21.34.72.47.71,1.19,0,.28-.51.4-.72.75l-1.28.1V73.5l-.48.48c.49.92,1.51,1,2.38,1.46l1.39,1.39a6.58,6.58,0,0,1,.7,1.43c.09.49,0,1,.52,1.31v1l.84.74c.3.15.88-.23,1.24.3s1-.06,1.36.36,1.11.31,1.41.86c.58-.2.79.66,1.31.49.68-.22,1,.44,1.55.56s1,.77,1.63.9,1.23.91,2,.58c1,1,2.46,1,3.63,1.61.21.11.38.35.59.39.39.08.8-.07,1.15.31s.95.22,1.21.72c.5-.15.7.37,1.06.48s1-.14,1.34.42a26.52,26.52,0,0,1,2.56,1.16c.43.16.77.49,1.31.49.36,0,.69.39,1.06.46s.73.55,1.28.62a5.07,5.07,0,0,1,1.62.91h1.23L197,94h.83l1.07,1c1.31-.21,2.11,1.21,3.4,1,1.51,1,3.25,1.53,4.82,2.56H208c1.25.4,1.89,1.11,2.89,1l1.08,1h.81c1.05.56,1.94,1,2.85,1.49a2.18,2.18,0,0,0,.82,0,3.44,3.44,0,0,0,.66-.66c.25-.46.75-.25,1.07-.51s.71-.33,1-.56.74-.69,1.06-1V91.2l-.74-.74h-1c-.31-.38-.91-.53-.78-1.4l.71-.66h1.07c.28-.42.24-1,.71-1.26v-1.5a1.78,1.78,0,0,1-.36-.37,7,7,0,0,1-.32-.87h-1c-.3-.38-.9-.55-.79-1.24l.72-.83h1l.8-.7V61.12a.63.63,0,0,0,0-.24c0-.07-.11-.12-.23-.24a2.85,2.85,0,0,1-.92,0,7.62,7.62,0,0,1-1.32-.79l-2.07-2c.18-.51-.36-.69-.47-1.06s.14-.83-.26-1.17h-.5l-.52.48-.56-.51h-1.29l-1.49-.76c.22-.53-.16-1.14.3-1.76h4.6l.63-1.33-.43-.43a3.54,3.54,0,0,1,.12-1.09,6.27,6.27,0,0,1,.71-1.18c.86,0,1.14-.83,1.69-1.28-.53-.47-1.14-.14-1.66-.23-.3-.18-.56-.35-.84-.51l-.91-.51H213c-.47-.87-1.64-.19-2.12-1-1.05.39-1.82-.64-2.83-.53-.17,0-.38-.28-.71-.53h-1.85l-1.72-1h-1.36l-.59-.52h-1.47l-.47-.47h-1.51l-.54-.53h-2l-.45-.45-1.09-.08-.46-.46h-1.88l-1.83-1h-2.22l-1.92-1h-1.64l-1.78-1h-1.73l-1.82-1h-2.38l-.48-.48h-1.52l-.53-.53h-2l-.45-.45-1.08-.06-.46-.47h-1l-.56-.52H167l-.57-.5c-.58.1-1.2-.25-1.61.16-.25.64.11,1.25-.29,1.82H163.1l-1-.56-.82.73v6.8a23.61,23.61,0,0,1,2.53,1.91c.78.76,1.05,1.87,2,2.51v2.54a1.86,1.86,0,0,0-.54,1c-.05.31-.41.61-.53,1s-.56.59-.84.9-.54.65-.74.9c-.56-.14-.76.14-1,.33A3.23,3.23,0,0,1,161.19,54.27ZM125.72,30.89l-.19-.22a2.82,2.82,0,0,0-.87-.33c-2.94,0-5.89,0-8.84,0h-4.4l-.5-.51h-5c-.07,0-.13-.09-.2-.13l-.36-.36h-1l-.67.71.89,1.59c-.54.38-.8,1.25-1.72,1.25-.35-.37-.7-.73-1.06-1.09s-.69-.69-1-1l-1.05.07c-.31.45-.16.86-.15,1.33.74.29.45.91.4,1.48l-.4.39c.77.36.27,1.16.64,1.76l1.58.08.76.69a4.76,4.76,0,0,1,0,.55c0,.07-.11.13-.26.27h-2.25l.1.9c.53.09,1.08,0,1.29.26.36.41.89.29,1.27.67a9.65,9.65,0,0,1,2.67,3.7h2.34l1.41.73v1A6.28,6.28,0,0,1,107.79,46h-.87l-.55-.5h-1.49a13.06,13.06,0,0,1-.73,1.19,6.3,6.3,0,0,1-.89.9c-.36.32-.61.79-1.11.94-.81-.17-1.32.51-2,.66l-.56,1.26v7.15c.3.72.45,1.08.61,1.43,0,.06.13.07.29.15h1.37l.69.73-.74.73c-.56.08-1.16-.16-1.69.18-.19.51.13,1.2-.54,1.55,0,.48-.2,1,.24,1.38a2.76,2.76,0,0,1,.41.94h1.58l.77.81v2L104,68.82l.81,1.81,1.48.65h3.7l.54.54h2l.43.44h3.53l.56.52h2.49l.47.47h3l.53.53H127l.75.56h1.4l.43.44h4.52l.56.52h2l.56.52h6l.47.46h2l.53.54h5l.65.48c.59.06,1.1-.1,1.57.14l.36.37h1.06c.22-.28.61-.57.69-.92a1.23,1.23,0,0,1,.9-1c.71-.09.9-.7,1.36-1l1.11-.1.7-.7-.54-.54V66.78l-1.28-.12c-.21-.34-.72-.47-.71-1,.13-.89,1-.91,1.56-1.39l-.23-.63h-1.06a2,2,0,0,1-.77-1.21,7.76,7.76,0,0,1,1.17-.71,8,8,0,0,1,1.36-.27c0-2.38,0-4.65,0-6.93a.64.64,0,0,0,0-.24c0-.07-.11-.12-.2-.21-.76.21-1.3-.46-2-.58l-1.82-1.81v-.9l-.5-.55V47.44c.22-.45.36-.73.49-1a4.77,4.77,0,0,1,2.92-3c.62.06.79-.51,1.1-.81V36.15l-.71-.75c-.56-.21-.75.3-1.15.52-.66-.19-1.43.17-2.14-.18V33.93l1.5-1.34-1.46-.75h-5.35l-.58-.52H133.13l-.44-.43ZM39.46,81.64a8.1,8.1,0,0,0,2.31,1.24A3.9,3.9,0,0,1,43.83,84a2,2,0,0,1,.18.54L43,85.74c.46.81-.56,1.18-.49,1.84.6.66.67,1.68,1.51,2.07v3.56a4.09,4.09,0,0,0-.49.61c-1.09,2.26-1.06,2.32-2.95,3.16a3.47,3.47,0,0,0-1.13.91l.22.64h1.06c.29.37.87.56.77,1.18-.31.63-.94.83-1.51,1.1v.49l-.5.53v25.26c.38.3.61.84,1.3.73l.64-.76a2.67,2.67,0,0,1,.58-1.7c-.17-.79.44-1.33.7-2a16.27,16.27,0,0,1,.82-1.68c.64-1.25,1.29-2.5,2-3.88v-1l1-.82v-1.32c.24-.54.34-.84.49-1.11a5.22,5.22,0,0,0,.48-.81,2.89,2.89,0,0,0,0-.82c.44-.58,1.1-.82,1-1.53.85-.33.3-1.21.68-1.75a12.9,12.9,0,0,0,.84-1.66c1-2,2-3.89,3.06-6V99.71c.36-1.06,1.34-1.79,1.48-2.94.6-.37.53-1,.53-1.9l1-.56,0-1.11.95-1a2.7,2.7,0,0,1,.35-1.37,12.41,12.41,0,0,1,1.2-2.28c-.11-1.34,1.2-2.24,1.12-3.57.52-.24.34-.86.69-1.24a3.74,3.74,0,0,0,.7-1.46c.13-.47.56-.73.63-1.28s.56-.92.83-1.4,0-.9.32-1.4a4.56,4.56,0,0,0,.83-1.94,3.65,3.65,0,0,1,.93-1.86c.08-.1,0-.34,0-.5.15-.44.33-.87.5-1.3-.55-.69-.66-1.68-1.52-2.1V65.92a2.52,2.52,0,0,1,.54-.49c.49-.28.32-1.09.72-1.19.63-.15,1.11-.57,1.71-.77a2.94,2.94,0,0,0,1-.54c.17-.15.67-.25.37-.77-.64,0-1.31,0-2,0-.13,0-.24-.17-.35-.26v-1l.72-.72c.56-.11,1.16.12,1.69-.17,0-.08.1-.15.1-.22,0-1.1,0-2.19,0-3.29,0-.13-.17-.26-.26-.39h-1.5a1.53,1.53,0,0,0-.37-.35,9.2,9.2,0,0,0-.89-.33c0-.37-.14-.85,0-1,.55-.52.43-1.46,1.23-1.81l1.78-.1V41.71l-.68-.7c-1,.29-.72,1.65-1.72,2-.55-.11-1.18.29-1.63-.26V41.2l.47-.53V38.89l-1-.67V36.51a.72.72,0,0,0-.92.09c-1.77,1.79-3.56,3.57-5.31,5.33-.94,0-1.24.83-1.78,1.29S54.54,44.28,54,44.81l-1.6,1.61c-.54.54-1.06,1.08-1.56,1.6H50.3c-.75.36-.68,1.29-1.27,1.76V51l-1,.82v.92l-1.18,1.36H45.73c-.62-.49-.62-.49-1.43-.15l1.78,1.62c-.19.33-.4.66-.58,1a3.3,3.3,0,0,0-.48,1c-.05.4-.32.57-.54.79a2.22,2.22,0,0,0-.57,1c-.1.35-.57.59-.84.91-.09.1-.07.3-.1.46.08.39.69.53.45,1.21l-2,1.39a3.63,3.63,0,0,0,.74,2.31,6.3,6.3,0,0,1,.88,2.42L44,69v1l-1.26,1.26c-.49,0-1,0-1.5,0a3.28,3.28,0,0,0-1.8.21l.17.8h1.1L42,73.52c-.07.57.18,1.17-.23,1.79H39.81c.51.74-.19.9-.35,1.26Zm41.16,29.52h2.5l.56.52h1l.47.46H87.2c.42.93,1.56.15,2,1.08h2.07l.53.53h1.54l.42.44h1l.53.49h1.52c.26-.25.62-.46.7-.74a1.56,1.56,0,0,1,.38-.86c.36-.32,0-.82.2-1.18s.53-.4.47-.81.11-.68-.25-.93h-1c-.21-.65-1.42-.18-1.27-1.37l.68-.69h1l.8-.68v-1.07l-.74-.74h-1a2.06,2.06,0,0,1-.8-1.2,7.39,7.39,0,0,1,1.17-.7,8,8,0,0,1,1.36-.28v-9.7a2.77,2.77,0,0,0,0-.5c0-.07-.11-.12-.26-.27H95.4c-.43-.25-.63-.38-.84-.49s-.4-.17-.6-.26v-3l-.69-.77c-.45-.1-.9.17-1.24-.2V86.08l2-.89V82.11l1.44-.74c.68-.09,1.59.07,2.39-.06l.66-.67v-2.5c-.2-.34-.34-.54-.45-.75s-.17-.41-.25-.61h-1c-.92-.92-1.82-1.81-2.7-2.71,0,0,0-.15-.06-.22v-.61l-.72-1H89.15l-.49-.49h-2l-.48-.48h-7c-.07,0-.13-.09-.2-.14l-.35-.35H76.07l-.53-.49h-1L72,72.77h-.51l-.73.73a3,3,0,0,1,1.46,1l-1.07,1.1c-.56.31-1-.06-1.37.35v4.16c.24.23.41.56.6.57,1,0,1.75.77,2.45.75l1.44,1.07c0,1,0,1.72,0,2.47,0,.13.17.26.27.39h1l.74.74v1.35l-.63.91-1.32.07c-.14,1.12,0,2.2-.09,3.27-.35.75-1.3.64-1.77,1.25H70c-.06,0-.12.11-.28.28l.57.57c.73.22,1.19,0,1.5.4-.09.38.17.83-.19,1.19l-1.17.14-.63.68v1.45l.57.68c.57.28,1-.07,1.35.32V100l-1.22.14-.73.69v3.33c.78,1.76,1.92,3.12,2.15,4.9.57.39,1.35-.23,1.86.36s1.39-.08,1.73.74h3l.6.52h1ZM97.27,48.55c-.66.16-1.17-.4-1.77-.5s-.36-.64-.6-.9l-.9-.9V44.76l-.52-.57v-1L93,42.69v-1l.73-.74h.51a17.59,17.59,0,0,1,1.8-1.76,14.68,14.68,0,0,1,2-1.08l-.26-.69c-.62-.08-1.22.17-1.75-.18l-.1-.65.77-.72h1l.77-.7c0-1.23,0-2.4,0-3.58,0-.06-.11-.12-.2-.21H97.05a5.49,5.49,0,0,1-.61.79c-.28.28-.47.72-1,.7L94,32.11v-1l1-1-.74-.74H90.72l-.55.52h-8l-.61.54h-9c-.06,0-.12.12-.21.2l2.07,2.07v2.54l.63.59c.53.22,1-.09,1.32.33a3.58,3.58,0,0,1-.12,1.69L75,38.27l-1-.49a24.37,24.37,0,0,0-1.93,2.06c-.61.84-1.67,1-2.35,1.82V51.87c.37.24.52.67,1,.72a1.4,1.4,0,0,1,.76.56c.28.36.25.92.68,1.23.07.06,0,.32,0,.43L71,56.08c-.43.1-.88-.16-1.23.21v3.12c.52.8,1.59.7,2,1.59-.15.32.18.78-.22,1.11-.59.17-1.26-.15-1.84.28.43.43.76.82,1.15,1.14a3.47,3.47,0,0,0,.86.36,4.52,4.52,0,0,1,2.08,1.68v.86l.71.79h1l.57.52h2l.47.46h5.05l.53.54h2.53l.43.43h7.2l1.76-1.76v-2l.64-.65,1.15-.12.66-.7V62.07l-.69-1.34c-.43-.24-.9.13-1.25-.28V59.18l1.24-.09.72-.72V49.76ZM60.15,92.14a4.55,4.55,0,0,0-.5.71,7.76,7.76,0,0,1-.53,1.29c-.28.4-.37.9-.66,1.23s-.28,1.13-.84,1.44c.2.57-.62.77-.5,1.3s-.29.89-.5,1.31-.25,1-.54,1.28-.4,1-.79,1.46-.27.92-.72,1.22v1.71l-1,.66-.05,1.15-1,1v1.49l-1,1.1v1l-.91.91c.07.94-.58,1.61-.88,2.41-.55,1.46-1.67,2.67-1.79,4.31a1.3,1.3,0,0,0-.47,1.07,2.91,2.91,0,0,1-.49,1.3,15.23,15.23,0,0,0-1.32,2.49c-.33.68-.92,1.34-.74,2.19l-.93.94V128l-1,1v1.52l-.93,1.7a5.44,5.44,0,0,0,.9,1.4c.55.45.42,1.27,1,1.61v2.34c-.22.43-.37.7-.5,1a4.8,4.8,0,0,1-2.9,3c-.64-.08-.79.51-1.15.82.08.39-.18.84.26,1.2.3,0,.78-.14.93,0,.46.51,1.25.4,1.63,1,.56.09,1.16-.21,1.73.24,0,.3,0,.63,0,1s.13.83-.17,1.29l-.85.79v1l-.49.54c-.09.59.16.82.71.73A4.92,4.92,0,0,0,44.8,148a8.54,8.54,0,0,0,.67-1.49c.14-.7,1-.82,1.09-1.59.07-.48.65-.88,1-1.26v-1.07a4,4,0,0,1,.67-.5c.46-.23.18-.81.53-1.05s.2-1,.71-1.22.45-1.06.91-1.39c.69-.5.78-1.39,1.4-2s.59-1.63,1.26-2.24c0-.76.66-1.09,1.08-1.58v-1a3.42,3.42,0,0,0,1.46-2.12c.31-.95,1.36-1.2,1.59-2.13a3.73,3.73,0,0,1,.33-.62,5,5,0,0,1,.37-.85,9,9,0,0,1,.8-.82,6.07,6.07,0,0,1,0-.87c.06-.39.63-.55.5-1.05l1.52-1.67v-1.08c1-.2.8-1.3,1.44-1.83s.72-1.66,1.6-2.07V112.2l1-.69.06-1.21c1.12-.7,1.41-2,1.93-3s1.11-2.06,1.51-3v-3.58l-.72-.67c-.63-.11-1.25.25-1.74-.26v-.52l.72-.71,1.74-.1V96.2c-.33-.21-.46-.72-1.15-.7-1.1.59-1,2.2-2,3a1.85,1.85,0,0,1-1.22-.11l-.59-.65c0-.42,0-.76,0-1.09,0-.63.79-1.06.53-1.82,0-.12.33-.35.44-.56s.1-.63.19-.65c.76-.09,1.32-1.07,2.22-.53l.93.92.75-.86-.72-.71h-3l-.85-.71c0-2.4,0-4.76,0-7.11,0-.06-.11-.12-.17-.18-.8.38-.86,1.27-1.31,1.89.19.64-.3,1.05-.51,1.56s-.44,1-.68,1.48-.54,1-.83,1.48Zm8.08-11.33c0-1.73,0-3.24,0-4.75,0-.06-.11-.11-.19-.19-.44,0-.94-.32-1.33.23v1.16l-1,.76c.16.77-.35,1.22-.42,1.72a10.53,10.53,0,0,1-.46,1.47c.64.5.87-.24,1.42-.4Zm0-57.29c0-1.2,0-2.37,0-3.54,0-.06-.11-.12-.2-.21H66.66c.41,1-.72,1.14-1,1.83.4.76-.52,1.15-.5,1.81,1.35.82,1.35.82,2.3.8ZM37.41,156.2c0-1,0-2.16,0-3.33,0-.06-.1-.12-.25-.31-.52.24-1.19-.31-1.77.28,0,1.49,0,3,0,4.49,0,.07.09.13.17.25h1.12Zm184.9-16.9v-1.79c.73.14,1.12-.39,1.52-.9-.09-.55.22-1.15-.24-1.7h-2c-.06,0-.13.08-.2.12a1.85,1.85,0,0,0-.08,1.16l.43.51v1.53c-.66.41-.5,1-.42,1.41l.67.84c.63-.1,1.24.2,1.76-.21ZM65.7,84.44c0,1.71,0,3.23,0,4.74,0,.06.11.12.22.23,1.18-.78,1-2.54,2.36-3.2-.19-.59.12-1.18-.24-1.77Zm31.83,2.08v1.65c-.44.42-1.24.35-1.46,1.06l.7.71h1l.7-.7V84.53c-1.68-.18-1.68-.18-1.95.09v1.1Zm60.12,24.89V109.9c.43-.44,1.26-.32,1.47-1.14a3.59,3.59,0,0,0-2,0c0,1.72,0,3.39,0,5.06,0,.13.17.26.26.38.56-.08,1.16.2,1.69-.18v-1.69A2.21,2.21,0,0,1,157.65,111.41ZM71.8,85.11l-.13-.65a2.78,2.78,0,0,0-1.92.16v2l.5.53v.94l-.56.74c.29.65.56,1.15,1.3,1.08a6,6,0,0,0,.51-.5,2.59,2.59,0,0,0,.27-.51l-1.09-1.1c.19-.68-.08-1.26.2-1.8ZM284.2,156.6c.13-.12.25-.17.25-.23q0-2.37,0-4.74a1.56,1.56,0,0,0-.13-.44c-.46-.14-.93-.28-1.32.08v2.92Zm.25-93.19c-.57-.45-.51-1.26-1.11-1.6a2.09,2.09,0,0,0-.44-.16c-.48,0-.47.35-.47.71l.51.58c0,.28,0,.61,0,.94s.14.82-.09,1.16-.68.62-.25,1.07l.59.11,1.27-1.35ZM37.22,93.93c.09-.11.19-.17.19-.23q0-1.74,0-3.48c0-.06-.1-.12-.16-.18-.75-.37-.94.37-1.35.68v2c.49.26.43.82.7,1.22Zm29.27-57,1.72-2.41A3.25,3.25,0,0,0,68.09,33l-.29-.06-1.54,1.25c0,.88,0,1.71,0,2.54C66.26,36.75,66.37,36.81,66.49,36.92Zm33.78,47.5c-.34.4-.86.63-.71,1.24l.7.69H102a3.26,3.26,0,0,0,0-1.93ZM39.43,146.24c0,.82,0,1.56,0,2.3a1.48,1.48,0,0,0,.16.44c.26.11.31.53.69.48.06-.07.15-.14.15-.2,0-.66,0-1.32,0-2l.55-.57c-.19-.34.17-.79-.17-1.1C40.15,145.26,39.93,145.85,39.43,146.24Zm1.26-55.8L39.42,93l.07,1a3.41,3.41,0,0,0,.77,0c.74-.24.6-1.1,1-1.58.22-.24.13-.76.18-1.09ZM71.25,34.09a9.3,9.3,0,0,0-1.35-1.22c-.25.45-.12.87-.16,1.41l1,.78v1.33l-1.09.75.33.8,1.28-1.29Zm149,105.72-1.14-1.39c-.5.1-1-.16-1.28.26v.68l.65,1.1h1.07ZM98.48,43.52c-.77.33-1.51.52-1.91,1.21L97.81,46l.67-.16Zm64.18,65.12h-1.21c-.22.28-.61.43-.65.67l1.15,1.4.71-.2Zm-5-59.07a1.46,1.46,0,0,0,1.25,1.52l.74-.88-.64-.64ZM39.43,86.27l.8.15.82-1.79-.79-.32-.83,1ZM279,32.39l1.12,1.46c.79.08.81-.31.77-.75l-.71-.71Zm4.15,1.47c.44-.4.87-.83,1.33-1.32a1.86,1.86,0,0,0-1.12-.17l-.95.66C282.44,33.56,282.45,33.89,283.17,33.86Zm-120.4,80.25-.17-.88h-1.15l-.8.72C161.27,114.34,161.9,114.18,162.77,114.11Zm60-57.26c-.46-.31-.71-1.21-1.51-.52v-.08l.7,1.41C222.37,57.31,222.59,57.08,222.82,56.85Zm-3.28.72.61-.57-.52-.88c-.81-.09-.9.26-.85.75ZM161.45,20.21c-.32.47-1.24.74-.52,1.54.4-.09.83.15,1.18-.17ZM279.87,154.53l-.88.17c-.07.54-.3,1,.19,1.45l.69-.13ZM40.44,67.46c-.29-.2-.43-.62-.86-.66a1.35,1.35,0,0,0,.09,1.44l.77-.17ZM159.58,21.58l-.66-1-.81.33.14.69C158.78,21.73,159.25,21.93,159.58,21.58Zm-59.21,25,.6-.88a1.06,1.06,0,0,0-1.45.12l.13.63ZM220,24.77c.37-.86.35-.91-.55-1-.09.35-.62.4-.63.85C219.23,24.92,219.66,24.7,220,24.77Zm60.14,36.88c-.23.28-.62.44-.69.85a1.35,1.35,0,0,0,1.44-.06l-.15-.79Zm-.55,3.65.53,1,.53-.22-.53-1ZM40.61,58l.53.22.66-1L41.26,57Zm59.63,31a.58.58,0,0,0,0,.86c.47.08.94.28,1.4-.2a4.34,4.34,0,0,1-.64-.22A7.85,7.85,0,0,1,100.24,89ZM222.07,23.77c-.23.28-.6.44-.68.84.93.18.93.17,1.36-.16ZM158,46.66c.42.3.56.7,1,.76a.64.64,0,0,0-.1-.94Zm3.32,4.51c.3-.42.7-.57.76-1a.64.64,0,0,0-.94.1ZM282.42,29.08a.64.64,0,0,0,1,0c0-.26.16-.63-.32-.69Zm-212-12.31c.41-.43.39-.71.09-1.09l-.7.11ZM161.5,46.41c-.41.44-.39.72-.09,1.1l.7-.11Zm57.14,88.8c1.25.22,1.25.21,1.56-.15A1.44,1.44,0,0,0,218.64,135.21ZM64.23,24c-.46-.33-.78-.48-1,.07C63.53,24.36,63.81,24.35,64.23,24ZM39.69,129.35a.6.6,0,0,0,0,1A.61.61,0,0,0,39.69,129.35Z"/><path d="M158.25,210.36l1.73,1.78s.15-.1.15-.16c0-.83,0-1.67,0-2.43.22-.41.73-.6.55-1.1l2.26-2.3h1.33l1.37.67a6,6,0,0,1,2.06,3.18v4.71s-.64.15-.47.65l-2.05,1.95-.93.43H163c-.31-.16-.5-.67-1-.48L160.7,216v-.9c-.22-.38-.51-.39-.93-.23l-.15.71-1.73,1.71h-.48l-.55.51h-1.27a5.81,5.81,0,0,1-3.46-3.67V210a12.54,12.54,0,0,0,1-1.82,1.85,1.85,0,0,1,.91-1.06,4.59,4.59,0,0,0,.64-.28,7.05,7.05,0,0,0,.73-.72h2.07l1.72,1.86v1.4Zm4.45-.94v5.06l.76.75c.35-.08.76.15,1.08-.08l.64-1.29v-3.79l-.73-1.38h-1Zm-7.35,2.8-.55,1.06c-.24.42-.24.45,0,.87s.36.69.57,1.11c.52-.14,1.1.13,1.64-.15l.65-1.49-.8-1.4Zm.05-1.9a9.58,9.58,0,0,1,.83-.48c.27-.13.56-.22.94-.36l-.17-.82h-.59l-1.4.76Z"/><path d="M217.7,214.25c-.69,0-1.44,0-2.21,0a1.54,1.54,0,0,0-1-.57,1,1,0,0,1-.68-.68,1.45,1.45,0,0,0-.56-1v-3.4l2.41-2.41h1.7a5.89,5.89,0,0,1,3.24,3h.55l.27-.78a7,7,0,0,1,2.86-2.23h1.33l2.29,2.26,0,.53.42.42v5a12.3,12.3,0,0,0-1,2c-.26.81-1.23.7-1.71,1.32h-2.19l-.63-.92-.77,0-1-2-.59,0-.24.76a6.86,6.86,0,0,1-2.93,2.24h-1.78c-.35-.61-1.25-.41-1.58-1.05-.25-.49-.48-1-.71-1.46,0-.51.5-.64.72-1,.69-.43.88.8,1.54.47l1.05,1c.66.1.86-.47,1.24-.75a2.48,2.48,0,0,0-.07-.73c.32-.08.71-.05.37-.49A3.66,3.66,0,0,0,217.7,214.25Zm8.15.23V213l.5-.53v-1.5l-.51-.54v-1c-.38-.3-.59-.83-1-.77l-1.45,1.24v4c.48.68.56,1.48,1.23,1.79ZM216,211.7h1.52l.71-.72a3.43,3.43,0,0,0-.09-1.71l-.68-.61a6.66,6.66,0,0,0-2.2.79V211Z"/><path d="M24.28,45.21c0,1,0,1.85,0,2.69,0,.32.06.83-.11.94-.66.4-.11,1.19-.53,1.55s-.24.77-.52,1.06a6.8,6.8,0,0,1-.9.88,12.15,12.15,0,0,1-1.38.73H19.49c-.18-.16-.37-.49-.54-.47a1.12,1.12,0,0,1-1-.59c-.23-.31-.32-.73-.56-1s-.12-.76-.49-1.09-.14-.75-.21-1.15c0-.06-.12-.12-.18-.18-.63.29-.06.92-.36,1.26s-.54.61-.46,1L14,52.47c-.51.2-1,.41-1.53.59a1.67,1.67,0,0,1-.5,0c-.36-.15-.53-.69-1.09-.49L9.13,50.71v-.4l-.51-.55v-5l.46-.45c0-.3.05-.7.08-1.09l1.58-1.59c.53-.22,1-.43,1.52-.65.67-.29.94.64,1.67.48l1.53,1.9.13-.15.5,1.06c.32.33-.28,1,.42,1.19.45-.43-.06-1.12.52-1.58a2.34,2.34,0,0,0,.62-1.22c.13-.58.53-.81.83-1.18.73.07,1.23-.89,2.2-.35a1.21,1.21,0,0,0,1,.34l1.83,1.85C24,43.75,23.39,44.64,24.28,45.21Zm-2.53-.48-1.24-1.24c-.39,0-.81-.16-1.26.19v2l-.44.44c-.5,1.24.71,2.29.42,3.51,0,.06.06.14.09.21.33.22.47.72,1.09.65.52-.27.87-.85,1.34-1.28ZM11.14,48.82c.38.19.41.6.58,1a1.11,1.11,0,0,0,1.16.76l.83-1.5V47.71l.34-.33c.52-.94-.42-1.52-.43-2.34a4.3,4.3,0,0,0-.73-1.59c-.48.08-.93-.16-1.24.26v1l-.51.54Z"/><path d="M17.21,84.17,19,82.37H21.5l2.22,2.22.09,1.61.42.41v3.53c-.11.17-.49.5-.42.69.27.77-.44,1.19-.58,1.81s-.91.82-1.48,1.1c-.07,0-.12.11-.21.21H19.09l-1.27-.64c-.22-.53-.31-1.3-.73-1.63-.63-.5-.08-1.31-.67-1.71-.42.33-.11.8-.25,1.17s-.72.51-.43,1L13.88,94h-2.3a10.23,10.23,0,0,1-1.38-.71,9.67,9.67,0,0,1-1.08-1v-1l-.36-.36a1.56,1.56,0,0,1-.14-.45c0-1.59,0-3.18,0-4.41.56-1.71,1.75-2.52,2.72-3.58h2.09c.56.17.67,1.32,1.6,1l.22.84.9.9.1,1.7c.77-.18.31-.75.46-1.14l.5-.53Zm3.34,7.76,1.19-1.36V86.14c-.51-.4-.83-1-1.33-1.25-.66,0-.79.48-1.15.72l-.07,1.53-.41.55v1.55l.41.42.08,1.62C19.67,91.57,19.83,92.05,20.55,91.93Zm-9.41-5.58v3.84c.59.45.49,1.39,1,1.62l1.55-1V89.3l.5-.73a3.38,3.38,0,0,1,0-.56c.1-.54-.7-.72-.51-1.28s-.48-.82-.5-1.29-.22-.56-.36-.56Z"/><path d="M24.27,148.28v3.53l-.5.53v.92c-.11.14-.43.36-.48.63A1.27,1.27,0,0,1,22,155.11c-.3.56-1,.41-1.42.85-.13.15-.45.11-.68.16-.63.15-.89-.72-1.53-.56-.22-.33-.6-.49-.73-1-.28-1-1.28-1.81-1-3.2-.69.48-.41.95-.54,1.31a5.41,5.41,0,0,0-.46,1.09l-2,1.84-1,.47H12l-1.36-.77-1.53-1.49c.2-.54-.31-.72-.48-1v-5c.54-.31.51-.82.48-1.58l1.31-.86-.18-.18,1.42-.59h1.7a12.8,12.8,0,0,1,1.5.91c.43.34.92.71.9,1.38.76.34.14,1.25.71,1.69.48-.49-.07-1.38.71-1.73-.32-.69.9-.84.46-1.51l1.5-.77h2.3c.5.63,1.82.41,1.83,1.64C24.09,146.64,23.4,147.82,24.27,148.28Zm-3.78-1.75H20l-.71.72-.09,1.6-.43.43a3.62,3.62,0,0,0,.1,1.67l.28.28c.25.64-.11,1.25.29,1.82H20.9l.84-.67v-4.6Zm-9.35,1.78V152l.69,1.12,1.13-.06.77-.83c-.41-.9.86-1.55.38-2.45l-.49-.61v-1.23l-.73-1.41C11.57,146.43,11.86,147.85,11.14,148.31Z"/><path d="M23.77,7.86V9.32L22,11.14h-.46l-.37.37c-.06,0-.13.12-.19.12H19L17.26,9.92c.16-1-.85-1.75-.59-3.07-.72.74-.17,1.64-1,2,0,.67-.54,1.12-.71,1.72l-.69.18-.89.9h-2L9.25,9.48,8.67,8.09V3.35L10.2.54c1,.24,1.7-.71,2.67-.51l.55.48h.95A4.65,4.65,0,0,1,16.29,4c.81-.35,0-1.35.79-1.61A3,3,0,0,1,18,1c.44-.55,1.2-.47,1.63-1h1.27a16.21,16.21,0,0,1,1.6,1,12.29,12.29,0,0,1,1.26,1.24c.24.5-.32,1.27.55,1.46V7.33ZM19.23,4.3l-.5.53V6.35l.37.37c.36.75-.14,1.63.33,2.38h1.09l1.23-1.34V3.38c0-.07-.08-.14-.15-.24l-.75-.69c-.5.35-1.15-.23-1.62.35ZM11.9,2.54l-.7,1.37V7.58l.61,1.47H13l.72-1.38V6.85l.49-.53v-1l-.52-.59V3.29l-.72-.75Z"/><path d="M11.84,32.35c-.33-.82-1.24-.93-1.89-1.41s-.71-1.26-1.28-1.86v-5a12.24,12.24,0,0,0,1-2c.28-.72,1.08-.9,2-1.31h1.73c.64.55,1.63.68,2.1,1.52a4.33,4.33,0,0,1,.78,2.49c.24-.14.45-.21.44-.27a3.44,3.44,0,0,1,.94-2.39,14.4,14.4,0,0,1,1.29-1.32h2.65l2.14,2.15c.17.51-.13,1.19.56,1.54v4.07l-.48.52V30c-.76,1.38-2.26,1.57-3.35,2.37-.21.16-.65,0-.95,0-.27-.27-.5-.51-.75-.74-.4-.38-1.15-.31-1.37-.9a4.41,4.41,0,0,0-.66-1.23c-.1-.56.26-1.19-.25-1.68-.58.48,0,1.14-.2,1.72-.35.35-.68.72-1.06,1s-.59.73-1.18.83c-.41.07-.75.61-1.14,1Zm9.91-8.46c-.66-.24-.79-1.11-1.58-1.14-.45.08-.61.52-.94.76V25l-.51.54V27l.51.54v1.49c.38.29.59.84,1.06.77l1.46-1.27Zm-10.61.62v4l1.26,1.25c.42-.48,1-.82,1.27-1.35v-.88l.5-.54v-1.5L13.65,25v-.91l-1.23-1.33c-.27.27-.66.48-.71.75A1.48,1.48,0,0,1,11.14,24.51Z"/><path d="M18,62.67h.49l1-1H21c.32.32.56.77.92.89.65.22,1.17.41,1.36,1.19.12.52.6.93.5,1.57,0,.17.25.39.45.66v3.49l-.46.52v1l-2.34,2.28H19l-1.63-1.62a5.17,5.17,0,0,0-.61-1.25c-.18-.32.12-.82-.26-1.16-.9,2.62-.9,2.62-3,4h-2c-.14-.13-.32-.44-.51-.44a1.45,1.45,0,0,1-1.27-1c-.31-.63-.61-1.27-1-2.11V64.88c.82-.33.82-1.35,1.44-1.86s1.3-.63,1.72-1.26c1-.44,1.68.35,2.4.72a5.74,5.74,0,0,1,1.35,1.29l.56,1.17c.32.34-.28,1,.43,1.2.35-.37,0-1,.21-1.17.4-.37.41-.86.68-1.26A11.32,11.32,0,0,0,18,62.67Zm3.8,7.3V65.43L21,64.74H19.17a2.64,2.64,0,0,1-.4,1.83,5.26,5.26,0,0,0-.05,1.9l.5.5V70.5l.78.74C20.48,70.64,21.41,70.72,21.75,70Zm-7.58-1.51V67l-.51-.54v-1L13,64.75H11.82l-.66.71v4.05c.6.47.51,1.4,1.26,1.72L13.66,70V69Z"/><path d="M16.39,128.17c.25-.68.35-1,.48-1.26a1.94,1.94,0,0,1,.34-.37v-.8l.66-1.34.64-.16.47-.45H21.5c.49.63,1.49.53,1.8,1.5a5.09,5.09,0,0,1,.49,1.79l.46.52v4.06c-.59.32-.46.86-.47,1.21l-2,2H19l-1.76-1.08c.13-1-.56-1.6-.72-2.51-.2.19-.31.25-.31.31,0,.34,0,.67,0,1l-1,1.09c0,.18,0,.35,0,.51l-1.4.72H10.88l-1.76-1.81c.15-.46-.25-.71-.48-1v-5.09a4.4,4.4,0,0,0,1-1.89c.32-.77,1.16-.8,1.85-1.32h1.88c.63.49,1.57.68,2.08,1.47A6.27,6.27,0,0,1,16.39,128.17Zm5.36,3.28v-4.38l-.78-.78c-.49.14-1.07-.13-1.7.2l-.08,1.63-.42.43v2l.52.68v1.62c.62-.05,1.18,0,1.74-.06Zm-10.61-3.7v3.85c.48.27.44.83.7,1.23H13l.72-.76v-1.45l.44-.54a2,2,0,0,0-.35-1.45c-.27-.41-.13-1.1-.17-1.62l-.71-.67h-1Z"/><path d="M283.43,210c.07-1.25-1.36-.24-1.09-1.28H281.1a4.1,4.1,0,0,1-.82.85,12.44,12.44,0,0,1-1.67.75l-.72-1.06v-.6c.19-.67.91-.92,1.21-1.47.78.1,1-.56,1.53-.95h2.62a14.94,14.94,0,0,1,1.68,1.86,3.63,3.63,0,0,1,.64,2.25c.58-.49.32-.94.4-1.33s.69-.53.49-1.08a10.62,10.62,0,0,1,1.09-1,9.66,9.66,0,0,1,1.38-.72H290a5.71,5.71,0,0,1,2.21,1.39c.41.87.81,1.32.76,1.7-.11.69.58,1,.55,1.57s0,1,0,1.51v1.51c-.49.72-.73,1.57-1.18,2.28a4.06,4.06,0,0,1-2.08,1.64h-1.53l-.53-.49h-.37c-1.4-.76-1.55-2.29-2.43-3.39,0-1,0-2,0-3,0-.06-.11-.12-.17-.18-.6.71-.67,1.73-1.42,2.38s-1.27,1.25-1.9,1.88c.41.47.87.1,1.21.29l.51-.47,1.3.67V217l-.79.68h-4.89l-1.32-.66v-1.63Zm7.59,0c-.43-.43-.77-.8-1.15-1.13-.1-.1-.29-.09-.67-.2l-.7,1.29v4.56c.37.29.54.88,1.21.78L291,214Z"/><path d="M24.28,172.54l-.47.47,0,.85-.61,1.28L20,176.7l-1-.47-1.82-1.91L16.55,173c.05.16.32-.29,0-.66a1.76,1.76,0,0,0-.32.18c.3.82-.31,1.45-.62,2a2.27,2.27,0,0,1-1.69,1.33c-.5,0-.94.54-1.43.84-1.47-.8-3.33-1.17-3.85-3.17v-5.06l.51-.55v-1l1.63-1.64a4.22,4.22,0,0,1,1.7-.12c.49,0,1,0,1.46,0,.57.57,1.11,1.1,1.65,1.65,0,.49.42.83.6,1.25s-.14.83.29,1.13a12.69,12.69,0,0,1,2-4H22a5.48,5.48,0,0,1,1.74,2.23c.14.26,0,.66,0,1l.54.58Zm-2.53.52V168.5l-1.25-1.24c-.39,0-.81-.17-1.26.2v2l-.47.47v1.61l.41.42.1,1.74H21Zm-8.08-4.39L13,167.3H11.82c-.09.13-.16.19-.17.26,0,.33,0,.66,0,.91l-.48.56v4l.71.76h1l.72-.71.09-1.1.45-.45V170l-.5-.53Z"/><path d="M17.22,105.81v-.94l1.28-1.28c.51.18.69-.33,1-.51h.76c.5.22.93.65,1.43.53.63.63,1.21,1.22,1.8,1.8.47.31-.16,1.11.72,1.31v4.17l-.46.53v1l-1.9,1.78h-.37l-.54.51H19.69a5.39,5.39,0,0,1-2.49-1.85v-.76l-.74-1.43c-.53,1-1.05,2.06-1.59,3.08a2.39,2.39,0,0,1-.39.4l-.68.06c-.16,0-2.74,0-2.9,0L9.13,112.3V112l-.51-.56v-4.87l.56-1.08,1.74-1.89h1l.6-.51,1.55.66c.69.69,1.4,1.41,2.12,2.12,0,.4,0,.79.08,1.44C16.78,106.72,16.74,106.09,17.22,105.81Zm4.53,5.08V107L21,105.65a3.41,3.41,0,0,0-1.75.11l-.09,1.65-.42.42v2.06l.52.68v1.62c.62,0,1.18,0,1.82-.07a3,3,0,0,1,.15-.66A3.63,3.63,0,0,1,21.75,110.89Zm-8.84-5.29h-1L11.2,107v3.79l.72,1.37h1l.73-1.41v-.82l.49-.53v-1.52c-.64-.36-.45-1-.54-1.54Z"/><path d="M100.83,207.15l.52,0,.94-.94h2l.33.23c.45.32,1.24.31,1.36.9s.8,1,.67,1.76c0,.25.23.56.46,1.09v4.3l-.48.53v.92a5.34,5.34,0,0,1-2.49,1.85h-1.83a5.14,5.14,0,0,0-.7-.7,8.41,8.41,0,0,0-1-.55c-.5-.25-.46-.82-.71-1.22s-.36-.69-.54-1c-.51.25-.19.72-.23.89l-2.24,2.22-.83.37H94.31c-.48-.51-1.24-.6-1.78-1.14s-.63-1.28-1.06-1.81c0-.54.48-.67.71-1h1.09l2,2L97,214a8.92,8.92,0,0,0-1.17-1.26l-1.14-.07L94,211.32v-.4l2-1c.11-.73-.49-.88-.79-1.25-.16,0-.42,0-.47.05-.49.7-1.38.84-2,1.43l-.71-.65V208c.47-.9,1.48-1.28,2.36-1.81h1.14l2.42,1.21.57,1.31v1.72L98,211c0,.39,0,.39,1,1.43.08.24-.17.67.36.65.06-.1.15-.16.15-.23v-3.26Zm3.77,7.33v-5.06l-.73-.73h-1l-.76.6v5.24l.72.68h1Z"/><path d="M311.73,212.43V220l-.74.73h-1.07l-.72-.87v-6.48c-.62-.38-1.2-.15-1.77-.2l-.73.73v6l-.73.77-1.13.05L303.71,219v-4.6l.36-.37c-.1-.4-.45-.59-.71-.82h-1c-.81.36-.67,1.33-1.28,1.78v5l-.8.8-1.68-.75V211.4l.68-.68c.95-.11,2,0,3.1-.06l.36-.37c.46-.12,1-.3,1.35.13s.89.28,1.26.67c.18.19.76,0,1.15,0,.26-.63,1.22-.14,1.3-.89h1.1l.55.5h.39Z"/><path d="M6.41,65.76c1,.61,1.13,1.48,1.66,2.29v2.84l-.65,1.29-.62.13-.92.92H3.38c-.48-.45-1.22-.58-1.76-1.1s-.51-1.2-1.07-1.61V65c.16-.31.68-.5.51-1,.64-1.16,2-1.4,2.8-2.35H5.12a5.4,5.4,0,0,1,2.46,1.8V65c-.34.25-.52.68-1.17.79a.45.45,0,0,0-.15-.55,1.66,1.66,0,0,0-.67,0c-.2-.57-.45-1.06-1.2-1L3.16,65.59c.33.23.76,0,1.14.11l.54-.51h.75c.1.17.18.42.33.48S6.37,65.69,6.41,65.76ZM3.07,70c.54.44.85,1.21,1.63,1.31A3,3,0,0,0,5.93,69.5L5.4,68.22c-.6,0-1.26,0-1.91,0-.14,0-.27.14-.42.23Z"/><path d="M.55,29.54V26.79L1.73,26l-.66-1.07V22.55A4.58,4.58,0,0,1,3.7,20.76h2l1.83,1.93V25l-.48.68c0,.75.71.94,1,1.41V30C7.39,31.26,6,31.48,5,32.2a1.09,1.09,0,0,1-1.16.1C2.83,31.5,1.29,31.52.55,29.54ZM5.64,29c-.21-.53.15-1.12-.28-1.73-.59,0-1.24,0-1.89,0-.13,0-.26.15-.4.23V28.8l.66,1H4.82ZM3.76,22.75c-.18.41-.82.56-.75.93l.75,1.11,1.12-.05c.26-.39.76-.52.71-1s-.53-.61-.76-.94Z"/><path d="M3.91,0h.86L5.34.5h.92A5.59,5.59,0,0,1,8.1,2.76V8.14L6.89,10.57l-.66.17-.89.89h-2c-.44-.59-1.27-.58-1.79-1.18s-.41-1.24-1-1.61l.73-.73h1l1,1H4.84l.76-.76-.11-.7H2.64L.58,5.58V2.26A6.7,6.7,0,0,1,3.91,0ZM3.1,5.58H5.32c.06,0,.12-.11.27-.24a10.92,10.92,0,0,0,0-1.39c-.05-.47.25-1-.28-1.43a16.85,16.85,0,0,0-2.19.14Z"/><path d="M1,84.65l.52-.55v-1L3,82.38H6.89l.67.8v1.54L6,85.36H3.73l-.2.71c.5.64.86.28,1.23-.1A2.64,2.64,0,0,0,6,86.45c.42,0,.84.35,1.4.61l.66,1.27v3.3A6.17,6.17,0,0,1,7.27,93,7.52,7.52,0,0,1,5.78,94H2.87c-.47-.48-1.46-.45-1.7-1.15s-1-1.18-.56-2.2l.77-.7,1.6.69.13.67.7.69H4.87l.66-.81V88.62c-.11-.09-.17-.18-.24-.19-.83,0-1.67,0-2.46,0l-.56.49c-.69.16-.81-.54-1.23-.68Z"/><path d="M16.64,193.21l-.43-.48v-3c.19-.23.42-.4.48-.62.57-2.26.64-2.36,2.52-3.43a2.09,2.09,0,0,0,.23-.22h1.72c.11,0,.22.67.71.44l1.87,2v1.26l.52.59v3.51l-.46.52c.16.68-.31,1.19-.52,1.78s-.79.91-1.39,1.16a3.49,3.49,0,0,1-.85.39c-.27,0-.5.35-.7.52l-2.2-1.06a1.74,1.74,0,0,0-.22,0,5.52,5.52,0,0,0-.55-1c-.27-.32-.12-.77-.49-1.09S16.71,193.63,16.64,193.21Zm3.34-5.9-.76,1.12v1.79l-.48.53v1l.45.45v2c.44.37.67.89,1.32.78l1.19-1.24v-4.6C21.11,188.64,21.17,187.72,20,187.31Z"/><path d="M318.81,220l-.74.74h-1l-.73-1.39v-8l.57-.58c.45-.27,1-.1,1.44-.13s.83,0,1.23,0l.44-.45h1.47l2.27,1.15.56,1.33v7.34l-.69.73h-1.1a1.93,1.93,0,0,1-.16-.66,1.09,1.09,0,0,0-.52-1.08v-5.64c-.2-.12-.27-.19-.33-.19h-1.95l-.75,1.44Z"/><path d="M5.83,156.12h-3l-.31-.34c-.57-.31-1.16-.08-1.79-.19-.33-.67-.09-1.43-.18-2.25.84-.7,1.44-1.76,2.51-2.25s1.58-1.68,2.55-2.18v-1.63l-.73-.73h-1A1.71,1.71,0,0,0,3,147.87l-1.47.68c-.49,0-.59-.56-.93-.69-.4-.88.37-1.41.53-2.1s1.17-.76,1.84-1.25H5.82c.29.56,1,.47,1.42.85s.25,1.15.87,1.41v2c-.78.81-.81,2.09-1.77,2.79H5.83l-1.22,1.27c.63.54,1.41,0,2.09.26l1.4.77v1l-.73.74h-1Z"/><path d="M37.61,206.15H39.7l2.18,2.19.14,1.14.41.41V214l-.44.53V216l-.89.32-1.39,1.39h-2l-.53-.48h-.49l-1.77-1.83v-6.5c.58-.46.62-1.26,1.19-1.79S37.4,206.82,37.61,206.15Zm-.7,3.77v4l1,1.05c.11.6.11.6.62.72l1.37-1.2v-5l-.67-.86H38.17Z"/><path d="M5.54,132.89v-2.32c-.42-.51-1,.05-1.44-.39a3.57,3.57,0,0,0-1-.55.86.86,0,0,1,.27-.88,3,3,0,0,0,.38-.88H4.89l.71-.78-.08-.7a14.18,14.18,0,0,0-2.17-.08c-.39.5-.41,1.25-1.57,1.62-.16,0-.32-.6-.73-.79v-1.56c.46-.27.42-.83.69-1.22.52-.13,1.18.11,1.54-.55h2c.31.16.49.67,1,.48l1.24,1.3v4l.52.56v3L6.29,134.9h-4L.53,133.07v-.95l.75-.73h1c.37.37,1.06.55.79,1.25.45.41.89.19,1.29.24S5,132.89,5.54,132.89Z"/><path d="M4.53,104.39l.15-.76H6.39l.58.58a1.13,1.13,0,0,1,.13.2,1,1,0,0,1,0,.25v4.53l1.14,2.22-1.12.78v1.27l-.89.69H4.75c-.32-.59-.09-1.18-.19-1.74-.14-.08-.27-.22-.41-.23-.92,0-1.84,0-2.81,0L0,110.86c.25-.92.9-1.57,1-2.44,0-.06.09-.13.15-.18a7.93,7.93,0,0,0,1.1-1.55A22.2,22.2,0,0,1,4.53,104.39Zm0,3.49c-.44-.18-.44-.18-.47.12-.28.9-1,1-1.05,1.71,0,.44.32.44.84.44l.68-.82Z"/><path d="M1.29,41.44h1L2.77,41a17.84,17.84,0,0,1,2.07,0l.45.44H7.85c.48.61.18,1.21.25,1.71a5.46,5.46,0,0,1-.87,1.44c-.52.46-.6,1.12-1,1.62s-.37,1-.64,1.49-.78.89-.42,1.5l-.57.63v1l-.52.55v1a2.75,2.75,0,0,1-1.85.13c-.07-.1-.15-.16-.15-.23,0-1,0-2,0-3,.68-.36.3-1.12.6-1.53a5.88,5.88,0,0,0,.87-1.66c.19-.64.73-.87,1.05-1.33V44.1a18,18,0,0,0-2.68-.18L.63,43.29C.42,43,.56,42.56.58,42.16Z"/><path d="M127.79,20.22c.42,0,1,.24,1.19-.47h2.8l1.32,1.57.91-1.59h3.67a2.43,2.43,0,0,1,.45-.43,2.37,2.37,0,0,1,.59-.11L140,20.45v1.12l-1.58,1.12H134.1l-1-1-.68,1.07h-1.24l-.55.52H127a5.74,5.74,0,0,0-.19-.64,3.39,3.39,0,0,0-.27-.39c-.11-.21-.19-.42-.33-.71Z"/><path d="M267.49,24.3h4.69l1.14,1.48s0,.31,0,.68a2.81,2.81,0,0,1-.46.52c-.45.28-.93.5-1.39.75l-.4-.39h-2.8l-1.42-.72-.32-.91-.77.85c-.21.15-.27.21-.35.23a1,1,0,0,1-.25,0h-4.14l-1.35-1.35c-.09-.33.17-.54.37-.81a3.17,3.17,0,0,0,.32-.86H265l.55.5h.51l.47,1Z"/><path d="M239.92,59.63l-1.41-.73V57.4l1.36-.8H241l3.12,1.6.64-.58h2.5c.63.59,1.67.64,2,1.69l1.19-.64h3.38l.77.68v1l-.73.73h-2l-.53-.48h-1c-.27-.29-.55-.6-.87-1l-1.81.92h-1.27a2,2,0,0,0-1.58-.45c-.19-.2-.42-.43-.66-.65s-.36-.29-.62-.49l-.8.62Z"/><path d="M6.6,175.08l-1.26,1.21c-.39-.19-.53-.89-1.27-.34v-5.79l-.73-.92-.47.46H1.73c-.4-.5-.1-1.1-.2-1.76l1.3-.9.11.14,1.95-2h1l.73.73v1l-.49.53.34.32a1.58,1.58,0,0,1,.16.46C6.6,170.54,6.6,172.8,6.6,175.08Z"/><path d="M313.9,220.93a6.91,6.91,0,0,1-1.66-1.41v-7.39l.73-1.42h1.54l.71.66v8.12Z"/><path d="M275.36,217l-.72.72a2.56,2.56,0,0,0-.48-.39,3.79,3.79,0,0,0-.68-.19.8.8,0,0,1-.13-.19.68.68,0,0,1,0-.25v-5.79c-.73-.48-1.6,0-2.38-.32a.61.61,0,0,1,0-.86c.38-.5.43-1.26,1.07-1.54.27-.12.71,0,.76-.41.09-.8.58-1.07,1.3-1.19.18,0,.34-.27.5-.42l.56.56a1.26,1.26,0,0,1,.16.43C275.36,210.42,275.36,213.68,275.36,217Z"/><path d="M141.23,22.25l-.73-.74v-2l1.38-.73h3.85l.79.67V21l-.73.73h-2l-.55.52Z"/><path d="M194.61,19.22,196,20v1.62l-1.44,1.16a.94.94,0,0,1-1.21-.45h-2.54l-.71-.65c-.26-.38-.09-.81-.12-1.21s0-.66,0-1l1.31-.67.47.44Z"/><path d="M202.37,19.72l.72.76V22l-.67.71h-4.74c-.22-.35-.59-.91-1.11-1.71v-.53l.73-.74Z"/><path d="M107,21.77h3.89l.75.73V24l-1.43.73h-4.38l-.72-.68-.05-.89C105.38,22.37,106.21,22.29,107,21.77Z"/><path d="M153.61,19v1.52l-.75.73h-1l-.58.52h-2.49c-.28-.43-.81-.44-1.24-.69V18.77c.76-.15,1.51,0,2.24-.08l.36-.36c.06,0,.13-.12.2-.12.66,0,1.33,0,1.73,0Z"/><path d="M125.08,20.73l.71.76v1.09l-1.39,1.14h-4.31l-.84-.68v-.95c.26-.53.86-.86,1.28-1.36Z"/><path d="M116.89,20.86l1.22.5.5,1.2L117.77,24c-.21.16-.27.24-.34.24h-4.49l-.74-.74V22.42l1.49-1.16c-.17,0,0,0,.14,0,.84,0,1.67,0,2.5,0C116.54,21.21,116.73,21,116.89,20.86Z"/><path d="M187.71,18.71c.41.42.83.83,1.25,1.25V21l-.79.69h-4.38L182.45,21l-.06-.82c.23-.71.92-1,1.23-1.5Z"/><path d="M232,24.08V22c.1-.1.15-.2.22-.21a4.13,4.13,0,0,1,.5,0h4.52l.74.7V24l-.7.75h-4C232.92,24.33,232.41,24.31,232,24.08Z"/><path d="M180.44,21.74h-3.8l-.67-.6c-.27-.39-.09-.82-.13-1.22s0-.66,0-1c.44-.23.86-.45,1.31-.67l.47.43h3.53l.72.75v1.09Z"/><path d="M209.69,22.71h-5.35l-.71-.71V20.43a3.91,3.91,0,0,0,.6-.21c.21-.11.4-.26.7-.46h3.27l1.35.59a.45.45,0,0,1,.13.14.7.7,0,0,1,0,.25Z"/><path d="M257.76,23.26l1.41.73v1.53l-.65.71h-4.06l-1.27-.65V23.43c.12-.08.19-.17.25-.17Z"/><path d="M242,142.25v1l-1.25,1.24h-1.41l-1.75-1h-.89l-.73-.73v-1.53l.66-.71h1.57C239.2,141.44,240.82,141.39,242,142.25Z"/><path d="M259,149.56l-.54-.51h-.81l-1.41-.73v-1.53l.66-.71h2c1.14.68,2.6.56,3.35,1.76v1c-.36.74-1.28.67-1.75,1.25l-.53-.49Z"/><path d="M174.79,18.91v1.57l-.64.7H170.1l-1.33-.72V19l.74-.74h4C173.82,18.64,174.34,18.66,174.79,18.91Z"/><path d="M245.29,142.48l.54.51h1c.47.59,1.39.51,1.75,1.27v1.49l-1.33.69-.39-.38h-1.38a2,2,0,0,0-1.68-.53l-1.23-1.21V143.2c.42-.29,1-.23,1.24-.72Z"/><path d="M250.86,22.75,252.11,24v1l-.78.69h-3.89l-1.32-.66V23.47l.69-.72Z"/><path d="M84.9,20V19l.75-.69c.57,0,1.25-.28,1.8.23s1.36-.08,1.71.69c.66,0,1.08.59,1.75.7v1.63l-.69.74h-1l-.54-.52h-1C86.86,21,85.59,20.93,84.9,20Z"/><path d="M243.27,22.25l.55.51h1c.54.5,0,1.14.34,1.68l-1.5.79h-1.43l-.42-.42h-2.62l-.68-.8c-.1-.45.18-.65.37-.91a3.34,3.34,0,0,0,.31-.85Z"/><path d="M267.66,149.05h.87c.09.13.25.26.25.39,0,.66,0,1.32,0,1.89-.43.41-1.14,0-1.18.93-.42-.76-1-.58-1.43-.71a4.78,4.78,0,0,0-1.56-.52c-.41,0-.82-.39-1.31-.66-.21-.29,0-.72-.07-1.12s0-.66,0-1c.89-.39,1.82,0,2.58-.22Z"/><path d="M254.42,148.05c-.65,0-1.18.11-1.49-.48h-1.4l-1.88-1.14v-1.22l.7-.71h3c.33.21.53.69,1,.51.42.49,1,.83,1.31,1.44C255.54,147.18,254.84,147.45,254.42,148.05Z"/><path d="M81.57,19.72l-.45-.5H79.77l-1.41-.73V16.85l1.29-1a8.29,8.29,0,0,1,1.42.75c.42.29,1.16-.1,1.51.55.65,0,1.08.6,1.78.7L84.42,19l-1,.47.23.24Z"/><path d="M228.84,140.22l1.3-1.25h1l.46.46h1.94l1.36,1.36v.94l-.69.69h-2.14l-.43-.43h-1.07c-.27-.34-.57-.73-.8-1C229.31,141,229,141,228.84,140.22Z"/><path d="M229.14,58.12c-.37-.72-1.51-.35-1.76-1.24V55.8l.84-.68h3l1.17,1.26c.1.45-.2.63-.38.9a3.14,3.14,0,0,0-.31.84Z"/><path d="M261.46,62.66l-.73-.74v-1.1c.36-.29.8-.67,1.39-1.16a2.89,2.89,0,0,0,.51,0c.55-.11.72.67,1.3.51s.75.19,1.07.47c.15.13.45.09.72.13v1.74a2,2,0,0,1-.47.18C264,62.67,262.73,62.66,261.46,62.66Z"/><path d="M259,59.63h1c.58.58,0,1.25.28,1.8l-1.67.76-.7-.52H256l-.86-.73V59.87l.74-.73h2.52Z"/><path d="M238,58.39l-1.65.81-.63-.57h-1.47c-.29-.46-.83-.46-1.27-.72V56.85l.64-.69h3l1.37.69Z"/><path d="M313.57,210.27c-.48-.61-1.1-.93-1.32-1.43,0-.48,0-.48,1.45-1.71.7.13,1,.82,1.53,1.22v1.13Z"/><path d="M181.15,122.14,176.87,120v-1.54l.68-.72H179l3.31,1.67a2.78,2.78,0,0,0,.14.44c.06.14.19.26.26.4s.2.42.28.58C182.56,121.64,181.79,121.79,181.15,122.14Z"/><path d="M204.4,132.38l-1.81-1.79c0-.89.87-1.14,1.3-1.79.21.07.55.07.63.22.25.44.81.17,1,.52s.78.19,1.12.34a4,4,0,0,1,2,1.25v1.5l-1.51.79-1.92-1Z"/><path d="M140.63,105.6l-.9-1h-1l-.74-.73v-1.52l.73-.77a2.28,2.28,0,0,1,.86,0c.64.28,1.22.91,1.84.93.79,0,1.26.65,2,.69l.74,1.66-1.09.5.24.24Z"/><path d="M136.15,103.08h-1.33c-1.13-.75-2.64-1-3.44-2.36v-1l1.11-.66h1.17l.38.38a4.73,4.73,0,0,1,3.44,2C137.37,102.22,136.6,102.53,136.15,103.08Z"/><path d="M195.54,127.08l-1.31.67-.48-.42c-.3,0-.81.13-.93,0-.39-.49-1.11-.35-1.44-.85s-1-.52-1.4-.89V124l.71-.7c.9-.35,1.56.3,2.21.66a3.57,3.57,0,0,0,1.39.31l1.25,1.25Z"/><path d="M121,94c.28.57,1,.51,1.4.83s1,.41,1.37.93v1.57l-.86.68-1,0-.67-1h-1.82l-1.21-1.51s0-.31,0-.86l1.1-.69Z"/><path d="M196.13,127.62l1.32-1.31c.53-.1,1,.33,1.49.46s.86.69,1.55.61c.47-.06,1,.38,1.56.62v1.61l-.68.75h-.88l-1.81-1H197.3c-.2-.22-.67-.49-.7-.81S196.24,127.87,196.13,127.62Z"/><path d="M145.27,104.59h2l.54.51h1a8.12,8.12,0,0,0,.89.87,3.38,3.38,0,0,0,.86.31v1.13a4.69,4.69,0,0,0-.57.22c-.21.11-.41.25-1.1.69s-1.45-.8-2.6-.68a6.83,6.83,0,0,0-.81-.8,4.09,4.09,0,0,0-.91-.38v-1.17Z"/><path d="M130.33,98.85v1l-1.57.74-.71-.54h-.75l-2.48-1.25V97.23l.86-.68H127C128,97.29,129.46,97.51,130.33,98.85Z"/><path d="M174.58,119.15,170.34,117c-.17-.27,0-.67,0-1.07l.72-.72h1.51l.45.45c1.24-.07,2.21.85,3.34,1.34v1C176,118.7,175.09,118.73,174.58,119.15Z"/><path d="M189,122.5V124l-.66.7a2.12,2.12,0,0,1-.67.05,23.24,23.24,0,0,1-4.15-2.19v-1.14l.7-.7h1.27Z"/><path d="M117.23,95h-2.71l-2.8-1.53-.07-1.28,1.06-.68H114l.36.37a4.69,4.69,0,0,1,2.91,1.38Z"/><path d="M187.42,50.46v1.88c-.35.43-1.18-.09-1.12.72h-2.12c-.25-.49-.82-.42-1.23-.7V50.24c.11-.1.17-.2.23-.2h3C186.54,50.3,186.75,50.88,187.42,50.46Z"/><path d="M172.55,51.55c-.65-.41-.81-1.17-1.21-1.84l1.33-1.17h1.38l.53.46h1l.77.73.06,1.11-1.28.71Z"/><path d="M196.8,51c.47.58,1.4.51,1.76,1.27v1l-.81.69h-2.44a2.35,2.35,0,0,0-.49-.41,2.82,2.82,0,0,0-.73-.16V51.76l.68-.72Z"/><path d="M166.24,50.29v-2c.13-.09.26-.24.4-.25.75,0,1.51,0,2.27,0l1.83,1.12v1.23l-1.12.46a5.77,5.77,0,0,1-1.92.22Z"/><path d="M209,55.07h-2.39l-1.42-.72V52.77a4.33,4.33,0,0,0,.59-.22,6.73,6.73,0,0,0,.71-.46h1.42l1.71,1C209.66,54.26,209.66,54.26,209,55.07Z"/><path d="M176.85,50.29c.41-.66,1.17-.82,1.83-1.18l.45.42h1.33l1.41.73v1l-.66.71h-3l-1.38-.71Z"/><path d="M193,52.81c-.72.27-1.32.9-2.23.75l-.55-.48h-1.35l-.94-.82c.1-.83.8-1.1,1.25-1.72a7.13,7.13,0,0,1,1.38,0c.37.06.69.38,1.06.46a5.12,5.12,0,0,0,1.17,0C193.18,51.66,193,52.25,193,52.81Z"/><path d="M204.09,52.05v1.83l-1.57.75-.71-.56h-1.48l-.69-.69V52.23c.12-.09.19-.17.25-.17Z"/><path d="M113.43,46.5h-2c-.25-.5-.82-.43-1.22-.71V43.67c.1-.09.16-.2.22-.2h3c.29.43.81.46,1.3.71,0,.36,0,.77,0,1.17,0,.58-.27.65-.75.67C113.78,46,113.6,46.33,113.43,46.5Z"/><path d="M124.39,47.51h-1.34c-.37-.71-1.5-.37-1.76-1.24V45.19l.8-.68h3l.7.64v1.64Z"/><path d="M128.49,44.38l.66.62h1.49l.73.73v1.51c-.12.08-.24.25-.37.25-1.09,0-2.19,0-3.36,0l-.66-.6c-.31-.58,0-1.16-.18-1.68Z"/><path d="M138,47.76v-1l1.26-1.24h1l.52.49h1l.71.76v1l-.65.7h-3.16Z"/><path d="M118.86,46.64l-.37.35-.47-.47c-.61-.09-1.34,0-2.07,0,0-.06-.16-.12-.16-.18,0-.72,0-1.45,0-2.14.09-.08.15-.18.21-.18h3c.37.29.59.84,1.24.43v1.89C119.84,46.7,119.39,46.35,118.86,46.64Z"/><path d="M149.07,48.25v-1l1.42-.73h1.82c.29.42.81.45,1.26.69v1.57l-.64.69h-1.51Z"/><path d="M133.18,45.52h3l.75.71v1.51c-.13.09-.25.26-.38.26-1,0-2,0-2.69,0l-1.48-.75v-1Z"/><path d="M146.35,49.05l-.66-.59h-2.13V47.23l.69-.73h3.05l1.22,1.25A4,4,0,0,1,146.35,49.05Z"/><path d="M59.27,53.06l-.64-.79c0-.16,0-.36,0-.49s.46-.41.49-.8.38-.52.46-.81a2.56,2.56,0,0,0,0-.82c.46-1,1.67-.66,2-2V45.74c.91-.48,1-1.65,1.77-2.26h1.07l.65.85A1.27,1.27,0,0,1,65,45.52c-.23.27-.22.74-.38,1.34-.64.49-1.13,1.53-2.35,1.79v1.84L60.9,53.06Z"/><path d="M59,53.05l.5.76a.74.74,0,0,1,.09.3c0,.58,0,1.17,0,1.55a12.64,12.64,0,0,1-.74,1.41,12.51,12.51,0,0,1-.92,1H56.85l-.72-.73c0-.47-.15-.94.29-1.37s.24-.93.7-1.21c-.14-.63.44-.83.73-1.21C58.46,53.86,58.62,53,59,53.05Z"/><path d="M43,80.72l.84-1.47,1.44-1.44,1.27,1.36c0,.27,0,.79-.17,1s-.24.76-.49,1.06-.59.58-.87.85v.53c-.13.08-.26.23-.39.24-.49,0-1,0-1.38,0-.14-.14-.24-.2-.24-.26C43,82,43,81.28,43,80.72Z"/><path d="M55.45,58.62h1l.66,1.09v.68c-.32.46-.91.66-1,1.34a5.71,5.71,0,0,1-.72,1.44H53.84c-.56-.65,0-1.44-.31-2.05A5.82,5.82,0,0,1,55.45,58.62Z"/><path d="M49.32,73.19,48,72.54V71c.17-.32.74-.48.47-1l1.77-1.83c.65-.11.88.42,1.26.73v1.51C50.61,71.24,50.39,72.61,49.32,73.19Z"/><path d="M46.51,74l.73-.73h1L49,74a2.36,2.36,0,0,1,.05.66,14.47,14.47,0,0,1-1,2.32,3.57,3.57,0,0,1-.7.88H46.24l-.73-.74V76l1-.83Z"/><path d="M51.76,68.17l-.66-.66V65.4l.9-.9.17-.69a4,4,0,0,1,1.68-.12l.7.7c.42.69-.78.87-.47,1.52-.56.29-.35,1.07-.85,1.39S52.29,67.86,51.76,68.17Z"/><path d="M82.56,88.39h-4L78,87.84c-.35-.59,0-1.17-.18-1.65l.79-.79h3.54l1.24,1.3v1Z"/><path d="M85.64,88.43l-1.18-1.27c.12-.3.64-.48.43-1l1.43-.74h3l1.11,1.71v.58l-.69.71Z"/><path d="M81.87,38.92c-.67-.05-.39.56-.61.86-.52.31-1.1.09-1.65.15l-.54-.51h-.82l-1.38-.72V37.09l1.29-.62.39.39h2A5.82,5.82,0,0,1,81.87,38.92Z"/><path d="M81.92,39l1.33-1.15c.41.18.84.52,1.26.5s.86.47,1.3.52c.6.07.78.53,1.09.83v1l-.73.74h-1l-.37-.37c-.52-.27-1.11,0-1.67-.15A5.34,5.34,0,0,1,81.92,39Z"/><path d="M87.93,40H91.1l1.32.66v1.62l-1.27.64-.48-.44H89.39l-1.46-.75Z"/><path d="M60.15,104.2v-1.33l.49-.56v-1c.93-.52.91-1.74,1.85-2.31h1l.7.79v1.92l-1,1.71v.85c-.35.76-1.28.68-1.78,1.32C61,105.19,60.63,104.76,60.15,104.2Z"/><path d="M55.08,114l1-1c0-.16,0-.33,0-.52l1.31-.68,1.16,1.53v1.09a8.44,8.44,0,0,0-.93,1.74c-.21.71-.83,1-1.23,1.57l-1.14.06-1-1.41c-.05.13,0,0,0-.1C54.53,115.49,55.26,114.93,55.08,114Z"/><path d="M52.57,128.09c-1,.73-1.16,2.17-2.45,2.8-.73,0-1-.88-1.59-1.28v-1c.38-.5,1.1-.78,1-1.57.64-.35.39-1,.52-1.53l1.54-.74c.59.26.91.89,1.42,1.28-.14.68-.13.68-.49,1Z"/><path d="M43,142.74v-1.5c.61-.43.49-1.35,1.2-1.75s.27-1.33,1.07-1.55h1l.7.78v1.43c-.9,1.49-.9,1.49-1,2.51-.73.4-1.36,1.08-2.33.78Z"/><path d="M57.62,108.9c.61-.35.49-1.15,1-1.61.16-.15,0-.63,0-.94l1.48-.75c.52,0,.61.51,1,.65v2a6.47,6.47,0,0,0-1,2,2.51,2.51,0,0,0,0,.55l-1.78.92-.75-1.3Z"/><path d="M51.46,122.94l1.61-3.14V119c.13-.08.26-.24.39-.25.65,0,1.3,0,1.89,0,.13.13.24.19.24.25,0,.66,0,1.32,0,2-.87,1.1-1,2.71-2.42,3.34-.16,0-.27,0-.32,0C52.36,123.88,51.94,123.39,51.46,122.94Z"/><path d="M48.39,131.23a7.63,7.63,0,0,1,1.75,1.5,37.15,37.15,0,0,1-2.24,4.14H46.18c-.38-.53-.1-1.13-.18-1.69l.51-.56v-1.39Z"/></g></g></svg>