<svg xmlns="http://www.w3.org/2000/svg" viewBox="0 0 285.84 153.2"><title>Recurso 37GRAPHS</title><g id="Capa_2" data-name="Capa 2"><g id="Capa_1-2" data-name="Capa 1"><path d="M284.79,136H.24c-.11-.11-.21-.17-.23-.24a5,5,0,0,1,0-.55V.3C.34-.16.84.05,1.27,0s.92,0,1.38,0H284.52c.15.15.26.21.27.28a5.23,5.23,0,0,1,0,.56ZM98.44,63.61c-.1-.35.27-.85-.33-1.06-.24.73-.24.73.33.6v3.49c.32.24.47.7.94.72.59-.68-.26-.92-.36-1.39C98.81,65.2,99.24,64.35,98.44,63.61Zm-26,7.7c-.79,0-.47.84-.82,1.2a5.91,5.91,0,0,0-.84,1.55c.1.55-.27,1.2.3,1.69l.8-.8V73.86c.19-.2.37-.4.56-.59V71.35c.56-.32.56-.32.32-1.06C72.18,70.5,72.55,71,72.45,71.31Zm27.58-.5V69.3a2.07,2.07,0,0,0-.53-.15,1.58,1.58,0,0,0-.44.2,2.81,2.81,0,0,1,.46.8c.08.36.1.68.58.65v.82l.57.61v1l.52.61c.12.65-.27,1.33.3,1.9l.79-.88v-1.5a3.29,3.29,0,0,0,.77-1.45h1.56c-.52.75.21.94.48,1.42v2.14l.51.51v3.32l.58.58c0,.81,0,1.72,0,2.63,0,.14.2.27.31.42h1.37c.17.28.44.73.89,1.45.12-.69.17-.94.24-1.34l-1.2-.91V79.89l-.53-.53V76.59l-.54-.54c0-.86,0-1.77,0-2.69,0-.07-.09-.14-.14-.21l-.4-.4v-2.9c-.91.07-.32-.86-.77-1.2h-2.37l-.66.72c-.18.58.11,1.09-.36,1.43ZM5.54,105.92v24.33l.78.78c9.5.21,157,.12,160-.1l.62-.68v-24.4l-.78-.74H6.34ZM136.1,25.24c.12.1.19.21.26.21q33.13,0,66.29,0c.06,0,.13-.11.25-.21V2l-.74-.91H137.45a5,5,0,0,0-.55,0c-.07,0-.14.11-.2.17l-.6.6Zm67.46.22h23.72a1.18,1.18,0,0,0,.45-.18c.32-.45-.22-1.13.43-1.47.43.09.92-.2,1.29.22l.13,1.44H270a.5.5,0,0,0,.24-.06,1.31,1.31,0,0,0,.21-.2V1.92l-.81-.73H204.06V6.38l-.5.49ZM67.42,1.35c-.11-.11-.18-.22-.25-.22H1.92L1.17,2V25.25c.13.1.2.2.26.2H66.91a.87.87,0,0,0,.28,0c.07,0,.12-.13.23-.25Zm1.2,24.11h66c.07,0,.14-.1.32-.24,0-7.82,0-15.72,0-23.62a.51.51,0,0,0-.06-.25,1.26,1.26,0,0,0-.2-.2C107.89.94,72.93,1,69.24,1.27L68.62,2Zm155.3,85.71H204.34a3.35,3.35,0,0,0-.55,0c-.08,0-.13.12-.23.22v17.8l.5.49v1.59c0,.64,0,1.29,0,1.93a3.62,3.62,0,0,0,.2,1.74h65.67a.51.51,0,0,0,.25,0,1.64,1.64,0,0,0,.24-.23q0-11.55,0-23.17c0-.07-.1-.14-.19-.27H227l-.84.76c0,.77,0,1.5,0,2.24,0,.06-.12.13-.18.19h-1.26l-.79-.85ZM1.11,27.38V45.63a3.35,3.35,0,0,0,0,.55c0,.08.12.14.26.29H67a.51.51,0,0,0,.24-.07,1.39,1.39,0,0,0,.21-.21q0-9.64,0-19.32c0-.07-.1-.14-.21-.26H1.9Zm133.78-.59c-.12-.11-.18-.22-.25-.22H69.41l-.83.83V46.12c0,.07.09.14.18.28h54.9l.77-.76c.07-.62-.2-1.27.2-1.88h2.1c-.46,1.14.44,1.8.71,2.71h7.2c.07,0,.13-.11.25-.21Zm26,17.76c.07.6-.2,1.25.2,1.86h17.49V41.22l.52-.52V34.61l.49-.48.27-1.48h1.22l.82.82c0,1.63,0,3.28,0,4.93,0,.07.1.14.15.21l.39.39q0,3.33,0,6.64c0,.06.12.13.05.06l1.08-.69V41.8l.78-.87c.47.11,1-.19,1.36.24,0,.6.06,1.22.09,1.76l.5.5c0,.42,0,.88,0,1.34s-.15,1.09.18,1.64c.24,0,.5.06.76.06h13c.36,0,.74.09,1-.29V43.44l.57-.61v-4.4l.51-.5V34.06l.53-.54V27.33l-.78-.75H136.85l-.81.81V45.63a3.35,3.35,0,0,0,0,.55c0,.08.12.14.21.24H152a3,3,0,0,1,.15-.8,3,3,0,0,1,.54-.61V43.43l.78-.83h1.68L156.49,44c.09.27-.21.75.5.74V42.39l.58-.59V39.09l.84-.91h1.14l.81,1.56v4.19ZM1.11,90.43v18.83l.82.74H4.26a4.32,4.32,0,0,0,.16-1.94c0-.73,0-1.47,0-2.2s-.26-1.28.28-1.91H67.28a128.84,128.84,0,0,0,0-14.31H1.9Zm67.52,13.34c.13.1.2.2.27.2h65.47a.81.81,0,0,0,.27,0c.08,0,.14-.11.25-.22V89.82c-.12-.1-.19-.21-.25-.21q-32.46,0-64.92,0a2,2,0,0,0-.49.16l-.6.6Zm72.94-9.47V90.43l-.83-.83c-.59,0-1.23,0-1.86,0a7,7,0,0,0-2.14.1l-.65.72v13.32c.11.11.17.19.25.22a.81.81,0,0,0,.27,0h30.95a.87.87,0,0,1,.28,0c.07,0,.13.12.29.28v5.79h26.25l.83-.83c0-1,0-2,0-3a1.69,1.69,0,0,0-.17-.51l-.37-.35V97.63l-.59-.64c0-1.08,0-2.18,0-3.28,0-.06-.12-.13-.19-.19s-.18.06-.19.11c-.07.61-.13,1.23-.19,1.78a5.88,5.88,0,0,0-.48.7,3.33,3.33,0,0,0-.23.67H191.6l-.8-1.55v-3.1l-.57-.61c-.07-.61.21-1.26-.2-1.86H174.37a5.1,5.1,0,0,1-1.57,3.25h-1.08l-.66-.58c-.09.32-.16.56-.24.89-.54.44-.88,1.29-1.82,1.41l-2-2.12V91.43c-.92.06-.32-.86-.62-1.09l-1.61-.74H145.24c-.08,0-.15.09-.3.19,0,.56-.06,1.18-.09,1.78l-.51.51v2.23l-.84.79h-1.12Zm26.56,37.33H136.86l-.75.79v2.37a2.79,2.79,0,0,0,.56.15h65.77a.55.55,0,0,0,.26,0,.59.59,0,0,0,.18-.17V111.17c-.87,0-1.68,0-2.49,0a9.63,9.63,0,0,0-2.4.12v4c-.5.33-.51.91-.78,1.38h-1.38v-1.78c-.29-.32-.46-.53-.56-.63a24.51,24.51,0,0,0-.19-3.06H168.42c-.06,0-.13.1-.29.24Zm59.15-41.2v12.16l-.55.59v6.38a.59.59,0,0,0,0,.26.85.85,0,0,0,.19.19c8,.19,39.91.12,42.79-.09l.62-.68V90.37l-.79-.75H234.17l-.8.81v8.28l-.55.59c-.1.63.23,1.3-.26,1.91-.4-.08-.86.16-1.32-.16l-.14-1.24-.55-.66v-4.9l-.53-.53V89.79a3.67,3.67,0,0,0-2-.14ZM1.11,48.4q0,9.41,0,18.8c0,.07.12.13.22.23h.81V64.54l.65-.74V59.09l.81-1.56c.63.09,1.29-.22,1.88.21l.1,1.78.48.48v1.7l.87.72L7.48,62h1l.85.65c.06,1.21.11,2.11.17,3,0,0,.12.1.18.15l.88-.88V61.58l.49-.45V58.36l.78-.79c.44,0,.89-.17,1.23.06.27.53.5,1,.8,1.6v4.18l.81.75c.47-.62.15-1.28.25-1.91l1.12-1.18V55l.54-.53c0-1.15,0-2.43,0-3.7,0-.15.17-.3.26-.44.61.06,1.26-.2,1.95.24v2.8l.49.49c0,.09.05.17.05.25q0,3.73,0,7.47c0,.07.08.14.13.22l.41.41v1.9c0,1.05,0,1.05.37,1.6.06-.07.18-.13.18-.2,0-2,0-4.05,0-6.05l.59-.65c0-.9,0-1.81,0-2.73,0-.06.12-.13.21-.21h1.18l.78,1v2.06l.47.47c.07,1,.14,2,.23,3,0,0,.12.05.36.14.06-.85,0-1.66,0-2.47l.55-.6c.1-.42-.2-.91.21-1.29h1.26l.66.72c.18.58-.11,1.08.36,1.42l.78-.78c.14-1.16-.06-2.35.11-3.42l.48-.49V52.86l.42-.45c.3-.58-.09-1.08.35-1.45h1.26c.32.38.09.78.21,1.11a5.4,5.4,0,0,0,.58,1v3.12l.51.65c0,1.83,0,3.58,0,5.33,0,.12.2.23.3.35l.79-.79V59.45l.77-.72,1.39.66c0,1.14.09,2.31.15,3.48,0,.07.13.13.23.22l.81-.17V55.57l.5-.51V50c.88,0,.37-.83.8-1.24h1.23l.79.84v3.29l.52.51v4.36l.62.8v4.31l.47.48v1.07L42,65v1.66l.85.82h4.33c.07,0,.14-.09.35-.22.13-.46-.27-1.23.45-1.61l.18-1.84.51-.5V61.1c.22-.23.36-.36.49-.49.14-1.54-.11-3.09.12-4.55l.46-.47V51.18l.57-.61V49.5l.8-.8c.43,0,.9-.19,1.4.24v1.67l.58.59V54l.51.5v2.74l.57.61c.07.6-.2,1.26.25,1.94L55,58.6c.59.16,1.22-.14,1.76.15l.8,1.58v1.34l.5.66v1.51l.62.7v2.27c.51.27.73,1,1.54.48l.09-1.2.6-.69c-.52-1,.32-1.82.5-2.76a6.19,6.19,0,0,1,.87-1.84,1.75,1.75,0,0,1,.5-.46H64l1.28,2v2.23c1.12.17,0,1.36.83,1.76.42-.1.92.19,1.34-.28,0-6,0-12.09,0-18.17,0-.07-.08-.14-.22-.35H1.94Zm235.3-1.93h33.67c.07,0,.14-.09.28-.19V27.33l-.77-.77H231.51a5.23,5.23,0,0,0-.56,0c-.07,0-.14.09-.26.16-.2.23-.44.49-.6.66v2.76l.56.72V44.93l.84,1.59c.43-.17.94.16,1.39-.42V44.47l.49-.49c0-.92,0-1.84,0-2.76,0-.06.12-.12.24-.23h1.2l.79.84V44.9ZM123.88,50.62c0-.47,0-.93,0-1.39s.18-1.08-.21-1.61H69.49l-.9.73V66.67l.82.81H73a1.79,1.79,0,0,0,.46-.16l.7-1.63V63.55c.39-.74.63-1.18.82-1.56h1l.89.77V65l.54.6c.11.65-.27,1.32.25,1.87l.61,0,.83-.95V60l.48-.48c.13-1.17,0-2.35.12-3.58h1.93c.29.44.24,1,.77,1.36v3.27l.57.63v3.07l.85,1.66a7.82,7.82,0,0,0,.22-.81c0-.18,0-.4,0-.55a4.51,4.51,0,0,1,.5-.68c.13-.93-.06-1.93.1-2.82l.5-.49c0-1.27,0-2.56,0-3.84,0-.07.11-.14.17-.21l.39-.4V52.28l.56-.62V50l.81-.8h1.11L89,50.83c.11.72-.11,1.72.07,2.62l.48.47v3.29c.67.51.52,1.56,1.44,2,.35-.11.81.17,1.31-.23V56.82l.81-.94H94.3l.67.67c.31.54-.07,1,.3,1.42.66.38,1.49-.28,2,.33l.2.85,1.16-.65,1.51,1.7v2.07l.46.46c.19.82-.13,1.66.21,2.57l1-.18V63.34l.54-.59c.11-.64-.24-1.3.3-1.94.56.17,1.2-.15,1.93.27a6.68,6.68,0,0,0,.87,1.43c.5.51-.05,1.23.53,1.75a4.89,4.89,0,0,1,.8,1.58l.81,1.64h2.73c.07,0,.14-.1.31-.22V63.91l.58-.58V60.81c.4-.75.63-1.2.84-1.6h1.64c.67.36.75,1,1,1.56s.58,1,.94,1.67v1.44l.46.58c.06,1,.1,1.94.16,2.85,0,.06.13.11.24.21l.73-.19V65.08l.65-.74V62.16l.69-.69c1.3.14,2.17-1,3.33-1.21.33.3.33.3.93.38v-4l.48-.48c.09-1.73,0-3.46.07-5ZM67.47,89c0-5.47,0-10.72,0-16a2.26,2.26,0,0,0-.22-.57H65.37a3.39,3.39,0,0,0-.16-.84,3,3,0,0,0-.54-.61V69.51l-.77-.94-.92.92v2.23l-.49.46v1.65l-.43.47c-.26.57.1,1.07-.35,1.44a3.91,3.91,0,0,1-1.86-.11c0-.8-1-1.32-.67-2.21-.91-.52-.14-1.82-1.1-2.33V69.93c-.59-.35-.88-1.1-1.6-1.34h-.87l-1.15,1.09H53.12l-.79-1.13c-.8.15-1.49-.27-2,.34v1.63l-.57.62v6l-.51.52v4.16l-.86,1.64H47.27l-.81-.8V81.06c-.32-.26-.48-.71-1.11-.75V83.8l-.44.44c-.33.84.18,1.8-.37,2.6-.64-.08-1.3.2-2-.26V84.33l-.51-.51c-.08-1.52,0-3.07-.05-4.48l-.53-.52c0-.54,0-1.1,0-1.64s.19-1.27-.18-1.89l-1.24-.13c-.83-.55-.75-1.7-1.63-2.14-.63,1.14-1,2.44-2.15,3.25-.12.09-.34,0-.52.06a3.29,3.29,0,0,1-1.27-1.82l-.91,1.23H32.43L31.51,75V73.83L30.7,73l-.28.25v3.88l-.59.59v6.08l-.52.52c0,1.44,0,2.91,0,4.38,0,.07.1.14.2.26ZM103.9,77.48c-.23.11-.44.15-.47.24s.09.54-.21.75a2.33,2.33,0,0,0-.36.4c-.09.42.2.92-.23,1.28a3.84,3.84,0,0,1-1.79-.06c-.26-.51-.48-1-.79-1.58V77.17l-.51-.66V75L99,74.33c.4-.9-.42-1.54-.72-2.33s-1.07-1.61-1-2.58l-.74-.82H93l-.84,1.13c-.77-.14-1.45.25-1.94-.25L90,68.7c-.92-.34-1.15.38-1.59.84V70.9l-.8,1.55H86.09l-.58-1.17c-.54.54-.24,1-.35,1.46l-1.37,1.37H82.7l-.92-1.69V69.84l-.24.18c-.15-.32-.3-.63-.46-.94a6.89,6.89,0,0,0-.34,2.54l-.57.61v3.82l-.56.64v3.82a15.17,15.17,0,0,0-1.2,1.21,10.91,10.91,0,0,0-.76,1.21h-1l-.91-.77v-1.7l-.5-.5V77.75l-.53-.52c-.25-.81.22-1.76-.33-2.6l-.75.17c-.16.66.1,1.38-.6,1.76L73,78.31l-.34.34c-.33.58.07,1.09-.38,1.5H70.44l-.79-.84V77.1c-.75,0-.11-1.24-1-1.12V88.3l.75.7h38.77c.07,0,.14-.12.2-.19a10.69,10.69,0,0,0-1.9-3.61h-1.09l-.91-1.71V81l-.56-.56Zm130.78-8.82c-.08.08-.2.14-.2.21,0,.73,0,1.47,0,2.2l-.56.6V86.55l-.51.58v1.06l.77.86h35.42l.83-.83q0-6,0-12.1c0-.07-.09-.14-.17-.26l-2.09,1.07-1.08-.83a2.57,2.57,0,0,0-.58-2V70.06c-.24-.41-.38-.63-.49-.86s-.2-.43-.27-.59c-.8-.12-1,.52-1.41.85v1.08l-.89.89h-1.16c-.32.63.13,1.42-.63,1.79L261.51,75l-.45.45c0,.62-.07,1.24-.11,2.09-.77-.34-1.5.26-2-.27-.29-.72.12-1.39-.29-2l-.39-.43V71.08l-.53-.6c-.12-.65.26-1.32-.32-1.93-.56.19-1.21-.17-1.9.27v2.74l-.56.72V77.1l-.61.71V80l-.72.72h-1.39c0-.48-.05-.92-.07-1.35l-.49-.49v-2.4c-1.18-.19-.12-1.36-.89-1.79l-.53,1.1-.87.07-.7,1.07-1.43-.07-.07-1.35-.58-.66c0-1.07,0-2.16,0-3.26,0-.07-.12-.13-.3-.31-.1.58-.19,1.08-.28,1.57l-.46.46v4.42l-.53.54V81c-.49.34-.53.9-.78,1.39H243l-.86-.92c.5-.7-.16-1.12-.45-1.65.37-.82-.69-1.3-.52-2s-.75-1-.6-1.72-.6-1.22-.73-1.92H238.4c-.13,1.21,0,2.4-.07,3.34l-.8,1.56c-.43-.06-.9.19-1.3-.16,0-.17-.08-.34-.1-.52s0-.52,0-.74l-.47-.47V70.62l-.61-.7C234.79,69.6,235.45,68.92,234.68,68.66ZM245,60.2l.79-1.52a3.64,3.64,0,0,1,1.92.13c0,.59.06,1.21.09,1.8l.46.45c0,1.14.1,2.31.17,3.48,0,.06.12.12.23.21l.8-.19v-3l.36.26.88-1.49c.94-.05,1.14.53,1.52,1v.95l.51.63a6.69,6.69,0,0,0,.23,2.49l.82-.21c.19-1.24-.08-2.43.15-3.54l.47-.47c0-.89,0-1.81,0-2.73,0-.07.11-.14.26-.32l.29-.26c0-1.12,0-2.23,0-3.33,0-.07.12-.13.2-.21H257l.79.85v1l.57.71v2.93c.92.09,1.6-1,2.56-.47l.52.53c.32.31.2.8.54,1.17s.24,1,.34,1.47l.94-.68a2.36,2.36,0,0,1,.62-1.87V57.75l.49-.48c.1-.62-.16-1.27.21-1.9h2c.15.84,0,1.65.08,2.44l.44.48c.22.56-.11,1.07.36,1.44h1.08l.87,1.58v1.34l.9,1.5a156.67,156.67,0,0,0,0-15.93l-.59-.59c-6.28-.16-30.67-.1-33.44.09v6.84l.48.47v7.68l.49.63c.07,1.08.13,2,.2,2.88,0,0,.12.08.19.11s.18-.13.18-.19c0-1.47,0-2.94,0-4.38.5-.36.55-.92.8-1.41h2.09a2.09,2.09,0,0,0,.43,2c.23.41.07,1,.44,1.49s.11,1.22.15,1.85c0,.17.06.34.05.26l.86,1.64c.58-.33,1.27.21,1.92-.44V65.48L245,65ZM130.51,73V71.64l-.57-.61V69.4l-.81-.81h-5.5c-.07,0-.13.1-.24.19L123.26,70l-.51.52v2.36l-.7,1.67a3,3,0,0,1-2-.14c-.06-.84,0-1.65-.06-2.42-.65-.08-1.19-.37-1.62.2v1.06l-.57.63v1l-.57.67V77.1c-.86,1.15-1,2.6-2.18,3.34v1.14l-.55.6c.15,1-.49,1.65-.82,2.44H112c-.48-.46-.37-1.36-1.17-1.59-.06.06-.18.12-.19.19,0,1.1,0,2.2,0,3.29l-.58.62v1c-.07.38-.74.41-.36.86h25.24V79.92l-.52-.52V75.53l-.58-.58c0-.81,0-1.72,0-2.63,0-.13-.19-.26-.39-.54-.34.47-.66.91-.88,1.19Zm96.72-46.41h-22.9l-.82.84c0,1.22,0,2.51,0,3.79,0,.07.09.14.16.24l1.49.26v1.2c.19.21.37.41.57.61v1.62l.56.63v1.62l.52.51v2.21l.58.59v1.66l.49.49c.14,1.16-.06,2.35.12,3.51a44,44,0,0,0,9.32-.13v-3.3l.57-.62v-6.6l.57-.63V29.61l.46-.54c.16-.56-.13-1.06.35-1.4h1.1l.78.78c.14,1-.05,2,.11,2.88l.49.48v6.61l.56.61v6.91a.8.8,0,0,0,0,.27c0,.08.13.13.19.19h4c.09-.13.18-.21.18-.28,0-3.31,0-6.62,0-9.88l.5-.5Zm-66.3,21.85V49.5l.56.61v4.37l.57.65v3.26l.52.52v2.21l.58.58v2.22l.49.48c0,.44.06.87.09,1.19l.5.5c.11.43-.19.92.23,1.34h12.27c.1-.11.21-.18.21-.25,0-1.29,0-2.57,0-3.83l.58-.63V57.23l.51-.51V49l.53-.68-.82-.77H162a2.17,2.17,0,0,0-.25,0ZM1.11,88.22l.78.78c7.21.16,22.29.11,25.14-.1v-3l-.48-.48v-5L26,79.93c0-1.77,0-3.6,0-5.43,0-.12-.2-.23-.3-.34l-.79.79v1.64l-.57.61v1.08l-.79.8c-.44-.06-.91.18-1.34-.18,0-.41-.09-.85-.12-1.19l-.43-.55c-.08-.72-.13-1.25-.2-1.79,0,0-.13-.06-.23-.12l-.39,1.08c-.86,0-1.77,0-2.68,0-.15,0-.29-.17-.43-.26-.09-.27.21-.74-.49-.73v2.28l-.66.75V85c-.88.37-.2,1.39-.79,1.86H14.65c-.24-.46-.47-.92-.81-1.56C13.73,84,14,82.4,13.75,81l-.47-.47V73.3l-.59-.62c0-1.09,0-2.19,0-3.29,0-.07-.13-.13-.23-.24l-.78.08-.1,1.84-.76.83H9a3,3,0,0,0-.67-1.36c-.34-.31.35-1.06-.6-1.41v2.49l-.57.61v3.26l-.57.66v1.52l-.78.88H4.1l-.95,2.1c-.62.38-1.46-.28-2,.38ZM283.47,25.41c.1-.12.21-.19.21-.26q0-11.59,0-23.19a3.35,3.35,0,0,0,0-.55c0-.07-.13-.13-.25-.24H271.74c-.1.12-.21.19-.21.26q0,11.73,0,23.47a.81.81,0,0,0,0,.27c0,.08.13.13.25.24Zm-12,85.81c0,8,0,15.69,0,23.42,0,.07.11.14.26.31h10.64c.43,0,.92.18,1.26-.27q0-11.59,0-23.2c0-.06-.11-.13-.21-.25Zm-270.41,0c0,8,0,15.7,0,23.43,0,.07.11.14.26.3H67a.54.54,0,0,0,.25-.06,2.07,2.07,0,0,0,.21-.21c0-.9,0-1.82,0-2.74,0-.07-.11-.13-.25-.3H4.9a.52.52,0,0,1-.25-.07.85.85,0,0,1-.22-.21V112a3.37,3.37,0,0,0,0-.55c0-.08-.1-.14-.2-.27Zm144.6-22.17h18.81a3.37,3.37,0,0,0,.55,0c.07,0,.12-.13.23-.24v-4l-.45-.45c-.17-1.16.08-2.35-.13-3.45l-.47-.46V77.75l-.56-.61V75c-.47-.94-1.85-.76-2.21-1.81a2.07,2.07,0,0,0-.59-1.59v-2.2l-.84-.76c-1.64,0-3.21,0-4.77,0-.15,0-.29.18-.44.27v2.2l-.57.61V76c-.55.65-.6,1.58-1.37,2l-1.38-1.36c0-1.85,0-3.69,0-5.53,0-.06-.13-.13-.2-.2a.65.65,0,0,0-.92.27v1l-.56.64v2.71l-.52.52v2.76l-.59.59v2.76l-.58.59v1.81l-.73,1.73h-1.9v1.27l-.59.68ZM188.3,68.59H180a3.37,3.37,0,0,0-.55,0c-.08,0-.14.11-.3.26V71l-.61.8v2.1l-1,1v1.44c-.61.59-1.38,1.36-2.27,2.24v4.12l-.49.49c0,1.49,0,3,0,4.43l-.56.57.91.76h15.14V84.36c-.2-.21-.38-.41-.56-.62V76l-.5-.5V69.47Zm83.27,41.47h11.56a.88.88,0,0,0,.28,0,1.35,1.35,0,0,0,.23-.24c0-.21.05-.48.05-.74V90.58c0-.35.09-.74-.3-1h-11a3.37,3.37,0,0,0-.55,0c-.07,0-.12.13-.23.24Zm.14-83.45c-.26,2.62-.25,17.33,0,19.81H283.5c.26-2.62.25-17.33,0-19.81ZM147.65,67.44c0-.88,0-1.52,0-2.16a1.69,1.69,0,0,1,.18-.47l.37-.41V56.15l.56-.61V49l.5-.58-.77-.81H137.45a5,5,0,0,0-.55,0c-.08,0-.14.11-.21.17l-.65.65c0,5.26,0,10.58,0,15.9,0,.14.19.28.28.42H138l.78.78c0,.44.07.87.1,1.24l.78.7ZM68.62,135h66c.07,0,.14-.1.33-.24a12.78,12.78,0,0,0,0-1.51c0-.52.26-1.11-.26-1.56H70a5,5,0,0,0-.55,0c-.08,0-.15.08-.26.15l-.61.67ZM200.19,61.13V55.61l.56-.6V49.47c.36-.27.71-.57.48-1.13l-.77-.76H187.23c-.07,0-.14.11-.26.21v5.64l.44.44q.08,1.46.18,2.94s.12.09.28.21c.1-.56.18-1.06.26-1.58.39-.22.55-.77,1.14-.67,1,.32.88,1.45,1.55,2.06v3.22l.52.52c0,1.82,0,3.74,0,5.65,0,.43-.18.93.27,1.26,2.12,0,4.23,0,6.35,0a1.55,1.55,0,0,0,.49-.18c0-.43.1-.86.13-1.2l.56-.73V63.82l.55-.55V61.6Zm80.13-4.08c.44-.84.67-1.29.9-1.74.64.1,1.3-.23,1.92.26,0,.33,0,.7,0,1.06s-.16.71.33.84a58.53,58.53,0,0,0,0-9.78c-5-.28-10.26-.21-12,.15q0,9.94,0,19.87c0,.07.1.14.16.21.52.35.82,0,1.23-.45h6.34c0-1.07,0-2.07,0-3l.56-.63V60.54l.48-.47Zm3.37,32V78c0-.74,0-1.48,0-2.21s.2-1.45-.13-2.12l-.49-.08-1.6,1.64h-1.92c-.26-.26-.77-.56-.74-.77.11-.74-.88-1-.66-1.7,0,0-.23-.14-.35-.21l-.74.78c.16,1.47-1,2.37-1.38,3.55H274c-.24-.47-.47-.93-.8-1.55v-.89l-.56-.6c-.1-.42.19-.91-.24-1.34l-.7,0c-.25,3-.22,14.21,0,16.48Zm-79.35,21.06h7.46a.82.82,0,0,0,.27,0c.08,0,.13-.13.23-.23v-3.41l-.54-.54v-3.32l-.58-.58V99.77l-.48-.49V94.87l-.56-.6V90.43l-.83-.83H205a5,5,0,0,0-.55,0c-.07,0-.14.09-.26.17l-.6.67v18.81Zm11.88-19.63c0,2.11,0,4.23,0,6.34a1.4,1.4,0,0,1-.17.47l-.38.4v6l-.55.59v5.25a.8.8,0,0,0,0,.27c0,.08.13.13.2.21h7.87l.74-.8-.52-.51V98.79l-.62-.75V96.47l-.52-.53V90.39l-.82-.76H217Zm-.55-24.89c0-1.92,0-3.85,0-5.78a1.4,1.4,0,0,1,.17-.47l.37-.4V54.5l.57-.6V49.58l.57-.8c-.11-.67-.6-.84-.86-1.2h-7.7c-.07,0-.14.11-.26.21v3.44l.49.49v6l.61.77v4.32l.53.53V66.7l.84.78c1.25,0,2.45,0,3.64,0,.15,0,.3-.16.46-.25V66.14ZM204.33,89.05h4.42a3.35,3.35,0,0,0,.55,0c.07,0,.13-.13.24-.25V85.4l-.54-.53V80.44l-.49-.48c-.08-1.35,0-2.72,0-3.93l-.53-.53V71.1l-.37-.4c-.39-.8.08-1.48-.4-2h-2.91l-.72.78V88.24ZM188.57,63.9a3.42,3.42,0,0,1-.53-.62,2.22,2.22,0,0,1-.16-.72c-1.51,0-1.41-1.44-2.13-2.18V58.3l-.45-.45c0-.62-.07-1.24-.09-1.76l-.49-.48c-.1-.61.15-1.26-.22-1.91-.46.12-.32.5-.36.8l-.78.78c-.44,0-.89.17-1.18,0-.48-1-.9-1.79-1.29-2.55-.06-1-.12-1.86-.19-2.76,0,0-.12-.07-.36-.19-.18,1.67.09,3.3-.14,4.82l-.47.47c0,2.83,0,5.68,0,8.53a1.51,1.51,0,0,1-.16.48l-.39.39c0,.46,0,.92,0,1.38s-.17,1.09.24,1.66h7.9c.43,0,.92.18,1.25-.28ZM221.42,89l.87-.73V87.12l-.55-.63v-11l-.5-.5v-5.5l-.86-.89h-1.67l-.87.87v5l-.51.51q0,3.54,0,7.13c0,.07-.09.14-.14.21l-.4.4v6c0,.07.11.14.21.26ZM176.36,68.59H166.23c-.07,0-.14.1-.21.15-.45.65.31.91.49,1.56v1.31l.56.74V73.9l.55.55v2.21l.49.49v2.18c.5.32.49.91.76,1.35l.74.19a3,3,0,0,0,.74,1.38v1.37l.81,1.56.28-.29V82.68l.58-.58V79.89l.48-.48c0-.44.06-.87.08-1.19l.51-.5V76.63l1.12-1.18V72.14c.9-.36.25-1.36.62-1.72.59-.33,1.09,0,1.53-.39Zm25.77,21h-2.22l-.87.88v7.18l-.51.51c0,3.47,0,7,0,10.45,0,.07-.09.14-.14.21l-.41.41.82.76h3.42l.72-.78V90.42Zm-3.62-20-.67-1H192.1c-.1.13-.2.19-.2.26,0,2,0,4,0,6l.58.64v7.7l.41.41c.34.83-.18,1.8.37,2.61l.53-.49.72-.19c.33-.74.59-1.37.89-2,.08-.15.27-.25.38-.35V81.59l.57-.62v-1l.57-.66V77.72l.56-.7V74.9l.54-.54V71l.5-.5ZM156,56.82a6.32,6.32,0,0,0-.54,1.42c0,2.1,0,4.2,0,6.2-.23.22-.36.35-.5.5v2.54h1.92c.55,0,1.1,0,1.65,0s1.27.24,1.84-.19V61.62l-.53-.54V54.45L159.3,54a18.84,18.84,0,0,0-.38-4.4c-.14-.32-.27-.64-.57-1.31-.18,1.49-.75,2.06-1.76,2.21-.05.45-.1.88-.15,1.28l-.49.6Zm47,31.4V69.36c-.44-.19-.6-.9-1.41-.75l-.84.74v1.72l-.57.71v2.67l-.52.53V86l-.48.47a3.83,3.83,0,0,0,.09,1.87l.74.67h2a1.17,1.17,0,0,0,.24-.09ZM223,47.63a91.28,91.28,0,0,0,0,11.46l.37.39q0,3.85,0,7.71c0,.06.11.13.26.29.36,0,.81,0,1.25,0s.92.18,1.25-.29V52.06a1.77,1.77,0,0,1,.15-.48l.4-.41c0-.44,0-.9,0-1.35s.16-1.08-.14-1.57l-.63-.62Zm-94,1.6h1.21c.22.45.46.91.86,1.7v2.49l.57.57v2.77l.49.49v2.18c.51.31.5.9.76,1.34.75-.05,1.08.51,1.46,1a10.23,10.23,0,0,0,.14,2.45c.18-.13.3-.18.3-.22q.06-8,.11-15.91a.55.55,0,0,0,0-.26.86.86,0,0,0-.18-.2h-7c0,.95,0,1.85,0,2.75,0,.15.13.3.2.46Zm77.24,11.35V56.16l-.57-.61V51.73c-.19-.23-.37-.43-.56-.64v-2c-.34-.65-.57-1.11-.81-1.56l-.76.77V67.3c.46.34.93.14,1.37.18a6.73,6.73,0,0,0,1.1,0c.43,0,.92.19,1.29-.21,0-.19,0-.37,0-.57l-.56-.62c0-1.61,0-3.27,0-4.92,0-.07-.11-.14-.23-.28Zm5.53,11.59V77.7l.56.6v7.15l.59.65c0,.89,0,1.81,0,2.72,0,.07.12.13.2.2l.9-1.61v-7l.53-.53V73.26l.53-.52c0-1.24,0-2.53,0-3.81,0-.07-.09-.14-.23-.34-.53,0-1.16,0-1.79,0s-1.28-.28-1.84.26c0,.81,0,1.63,0,2.46a2.09,2.09,0,0,0,.18.51Zm-72.41.58a8.83,8.83,0,0,0-1.93-4.13l-1.4,1.4v7.67l.37.42c.33.56-.06,1.06.36,1.46.62.32,1.45-.31,2,.38V81l.54.6c.11.64-.25,1.31.25,1.88l.81-1.44v-5l-.47-.47V73.37Zm88.45-3.33V86.55l-.54.58v1.11l.8.79c.62,0,1.26.2,1.9-.18V78.77l-.54-.54V68.71C228.56,68.31,228.29,69.07,227.84,69.42Zm-7.19-6.07V52.29l-.58-.63c0-1.27,0-2.55,0-3.84,0-.06-.12-.13-.26-.26-.31.28-.63.56-.85.77v8.36l-.57.72v8.75c-.38.37-.77.68-.25,1.32.42,0,1,0,1.5,0s1.1.25,1.57-.26c0-1,0-2,0-3a1.84,1.84,0,0,0-.17-.52ZM112.22,79.45l.11,1.17c.49.2.81.19,1-.19s-.19-.91.25-1.29.43-1.11,1-1.56a6.71,6.71,0,0,0,1-1.64V72.2l-.54-.58v-2.2l-.86-.86c-.54.16-1.18-.15-1.88.23v2.26l-.58.58v5.53l-.49.49C111.55,78.23,111.87,78.82,112.22,79.45Zm15.53-18.88c0-.73,0-1.46,0-2.2,0-.06-.12-.13-.18-.19l-.51-.1c-.9.27-1,1.21-1.35,1.84a4,4,0,0,0-.81,2.4c-.87.43,0,1.66-1,2.06v3c3.5.26,5.1.24,5.4-.06.27-.55-.13-.82-.54-1.22V63.28l-.42-.42c-.23-.66.12-1.32-.25-1.9Zm13.82,11.07c0,1.09,0,2.19,0,3.28,0,.07.11.14.21.25h1.64l.92-.75V72.73l.82-.83c.39.11.85-.16,1.25.15l.33,1a3.86,3.86,0,0,0,.6,0c.07,0,.13-.1.25-.2V69.41l-.76-.82h-5.52a3.25,3.25,0,0,0-.54,0c-.08,0-.14.1-.28.22,0,.28-.58.25-.48.7.33.34.65.66,1,1V71Zm83,11.6c0,1.85,0,3.69,0,5.53,0,.06.23.12.49.25.1-2,0-3.9.07-5.81l.4-.39a2.27,2.27,0,0,0,.12-.5q0-6.63,0-13.27c0-.15-.16-.3-.25-.45h-1.15l-.73.81v1.73l.49.49v11c0,.07.1.14.16.21ZM231.71,65c0,1.94,0,1.94.38,2.39.06-.07.16-.14.16-.21,0-3.85,0-7.71,0-11.56l.55-.6c0-2.29,0-4.58,0-6.88a1.8,1.8,0,0,0-.2-.5h-1.28c-.23,2.59-.24,14.35,0,17Zm-89,13.5c0,2.7,0,5.24,0,7.78a2,2,0,0,0,.2.52h.9c0-1.21,0-2.38,0-3.55l.78-.78c.43,0,.88-.17,1.28.09s.4.4.65.2V80.43l-.42-.42c-.3-.84.22-1.79-.34-2.56h-.59c-.48.57-.4,1.62-1.48,1.65Zm11.61-23.44V51.18l.56-.6V48.5l1.17-.58c-.53-.54-1-.25-1.46-.35l-.86.89v2.19l-.49.49c-.08,1.71,0,3.44-.06,5l-.58.58c.06,2.92.13,5.93.21,8.93,0,0,.12,0,.24.09.41-1-.06-2.15.23-3.07l.49-.48c0-2.11,0-4.22,0-6.33a1.74,1.74,0,0,1,.18-.51ZM130,60v1.65l.56.6v2.19l.41.4c.39.83-.16,1.79.36,2.6.46,0,.92.18,1.32-.14a4.61,4.61,0,0,1,.21-.75,2.54,2.54,0,0,1,.41-.52l-.56-.55V63.16l-1.61-1v-.52l-.57-.62V58.34l-.53-.53c0-.42,0-1,0-1.49s.25-1.1-.28-1.57l-.75.82v1.2c.2.19.33.32.55.55v2.22Zm-22.12,8.61c0,.88,0,1.53,0,2.17a1.38,1.38,0,0,0,.18.46l.37.42v2.71l.6.67c0,1.07,0,2.16,0,3.26,0,.06.12.13.31.32.39-1.11,0-2.2.26-3.22l.48-.48V70l.5-.67-.78-.72Zm60.83,14.61-1.57-1.56-.37-1.15a3.57,3.57,0,0,0-.19,2.25l.47.46c0,1,0,2,0,3a1.71,1.71,0,0,0,.14.49l.4.39v.76l.75,1.21,1.25-.07c.37-.48.15-.93.19-1.35-.19-.21-.36-.41-.55-.61V85.46l-.53-.61Zm-130.51-26V65l-.5.51a3.67,3.67,0,0,0,.12,1.93,10,10,0,0,0,2.38,0c.07,0,.13-.12.21-.2v-.54l-.56-.6V64.45l-.57-.63V60l-.51-.61C38.61,58.75,39,58.06,38.16,57.26ZM228.6,50.79c-.26,2.52-.29,13.65,0,16.7l.95-.14c0-2.24,0-4.35,0-6.46a1.65,1.65,0,0,0-.16-.49l-.39-.38V51.2C228.94,51.14,228.83,51.07,228.6,50.79ZM3.32,72.18c0,.92,0,1.85,0,2.77,0,.06.12.13.22.22H5.1c-.57-.79.25-.94.47-1.5v-3l.65-1.06-1-1c-.41.09-.9-.2-1.36.36V71.7ZM195.76,89.8v5l.47.5c.3,1.81-.2,3.53.28,5.23a1.11,1.11,0,0,0,.19,0c.34-.59.13-1.24.16-1.85s0-1.46,0-2.19-.18-1.26.16-1.86l.38-.36V90.46C197,90.12,196.76,89.29,195.76,89.8Zm-57.51-2.7V85.47l-.42-.46c-.27-.57.09-1.08-.35-1.44l-.53,0-.86.68v4.08l.81.78c.65-.11,1.32.25,1.89-.26V87.68Zm63.6-26.51v2.73l-.56.59c0,1,0,2,0,3a1.49,1.49,0,0,0,.2.49h1.24c.1-.12.21-.19.21-.26,0-2.92,0-5.84,0-8.77,0-.08-.22-.17-.34-.25-.4.59-.12,1.24-.2,1.85Zm-174.75,8c0,1.24,0,2.24,0,3.25a2.15,2.15,0,0,0,.18.52l.33.28c.16,2-.18,3.86.21,5.75H28c.06-.06.18-.13.18-.19,0-.92,0-1.83,0-2.74l.55-.6q0-3,0-6c0-.07-.11-.13-.21-.25Zm23.23-4.25c0,1,0,1.89,0,2.8,0,.07.11.13.28.32.56-.27,1.3.35,1.92-.3V65.57L52,65V62.25l-.18-.2-.38-.39c0-1.38,0-1.38-.38-1.81-.06.07-.16.13-.16.2,0,1.28,0,2.55,0,3.85Zm232-3-.87.87V65l-.48.62v1.8a4.19,4.19,0,0,0,2.11,0v-3l-.42-.43C282.39,63.14,282.86,62.2,282.33,61.38Zm-194.4-.26c0-1.66,0-3.31,0-5,0-.06-.23-.13-.47-.24v1.8l-.65.74v3.81l-.47.47v2.33l1,.91c.12-.88,0-1.6.09-2.31a6.5,6.5,0,0,1,.08-2.08ZM44.35,68.64c0,.29-.09.54-.1.79s0,.54,0,.81,0,.54,0,.81.06.51.08.69c.42.32.6.83,1.43.67l.71-.93v-1l.54-.6c-.09-.43.19-.92-.23-1.29Zm238.23,2.44c0-.74,0-1.48,0-2.21,0-.07-.12-.13-.21-.22h-1.23l-.78.83c.51,1.06-1.34,1.89-.15,3.06A6.22,6.22,0,0,0,282.58,71.08Zm-20.05-3.6c.05-.29.1-.6.21-1.22-1,.42-1.23-.32-1.72-.7V64.28c-1.35.53,0-1.15-1.17-1.13.24.78-.26,1.35-.43,2a3.11,3.11,0,0,0,.16,2.35ZM126.22,52.41c-.31-.74.11-1.41-.33-2,0,0-.13,0-.29,0v1.71l-.62.7c0,1.24,0,2.44,0,3.63,0,.15.16.3.27.49l1.36-1.47V52.84ZM113,62c-.1.1-.22.16-.22.23,0,1.09,0,2.17,0,3.28l-.55.58c.07.42-.17.88.18,1.3a3,3,0,0,0,2-.14,4.54,4.54,0,0,0-.12-1.85l-.41-.41V63.39C113.42,63.07,113.45,62.39,113,62Zm144.72,5.47c-.15-1-.8-1.71-.71-2.58-1-.56,0-1.75-.82-2.45-.42,1.06,0,2.16-.27,3.18l-.39.38c0,.51-.32,1,.2,1.47ZM29.13,65.9a2.34,2.34,0,0,1-2.58.23c0-.58,0-1.12,0-1.67,0-.08-.22-.14-.53-.34v2l-.59.62.17.78c1.14,0,2.21,0,3.29,0,.15,0,.29-.16.43-.25C29.24,66.79,29.48,66.33,29.13,65.9Zm210.6,2.69-.83.82a7.68,7.68,0,0,0,.2,2.61c.69-.28,1.34.11,1.77-.19.68-.79-.27-1-.33-1.67-.27-.36.38-1.07-.27-1.57ZM40.93,71.31V69.4L40,68.58c-.69.18-1.58-.26-2.44.27l.13.76,1.32.14.74.72.17.84ZM197.38,84.16l-1.56,3.07v2c.56-.35,1.07.14,1.56-.36Zm72.48-12.54V70.54c-.74-.41-.4-1.72-1.51-1.82a1.74,1.74,0,0,0-.14.48q0,1.76,0,3.51c0,.07.11.14.22.25h.95C269,72.25,269.54,72,269.86,71.62ZM97,67.41c-.33-.62,0-1.11-.36-1.51a2.94,2.94,0,0,0-2,.14l-.16.79-1.65.28c.17.17.23.29.3.29ZM243.66,73.5c.08-.08.2-.15.21-.21,0-1.37,0-2.73,0-4.1a2.6,2.6,0,0,0-.19-.6l-.9.12V71.6l.55.6C243.55,72.57,242.9,73.23,243.66,73.5ZM6.14,67.44c-.45-.79-.78-1.38-1.16-2,0-1.82,0-1.82-.39-2.24,0,.07-.15.13-.15.2,0,.91,0,1.81,0,2.71l-.59.62.16.74Zm97.27-1.37c-.26.4-1,.67-.35,1.34a3.1,3.1,0,0,0,2-.15c0-.12,0-.22,0-.29-.39-.92-.95-1.76-1.29-2.71a1.75,1.75,0,0,0-.37,0Zm-73-1.95c0-1.7,0-3.16,0-4.61,0-.09-.22-.17-.34-.25-.49.62.08,1.42-.43,2.11l-.33.3c0,.75,0,1.47,0,2.2,0,.07.12.13.22.25ZM34,71.94l.9-.9c-.27-.55.34-1.3-.36-1.93l-.78.16V71l-.6.76Zm241.77-1.2c.34-.31.09-.87.55-1.15s.28-.59,0-.9c-.52-.09-1-.31-1.49.17V70ZM78.28,72.52a3.52,3.52,0,0,0,.24-2,3.57,3.57,0,0,0-.15-1.83c-1,.66-1,.66-1,1.18l.38.47C78.16,71.16,77.73,71.81,78.28,72.52Zm186.45-7.2c.32.83-.06,1.48.41,2.17l1-.17c-.27-.71.11-1.37-.32-2Zm2.92,1.89a.65.65,0,0,0,1.11,0c.19-.57-.33-.78-.55-1.14,0-1.36,0-1.36-.4-1.77-.05.07-.15.14-.15.21C267.65,65.4,267.65,66.3,267.65,67.21ZM168.93,91.83l.78-.78c0-.49.33-1-.28-1.48l-.7.16C168.7,90.48,168.49,91.18,168.93,91.83ZM150.14,62a6.71,6.71,0,0,0,0-3.87A6.71,6.71,0,0,0,150.14,62ZM56.21,65.2a3,3,0,0,0-.15,2.29l.89-.13V66.3Zm178.55,2.29c.15-.19.26-.25.26-.32,0-1.09,0-2.19,0-3.28,0-.07-.24-.13-.36-.19s-.17.16-.17.23c0,1.09,0,2.18,0,3.28C234.48,67.27,234.6,67.34,234.76,67.49Zm25.43,4.42a5.1,5.1,0,0,0,0-3.32A5,5,0,0,0,260.19,71.91ZM121.41,67.59c.38-.59.19-1,.27-1.55l.58-.49c-.06-.26-.1-.51-.23-1.17-.38.61-.6,1-.89,1.44A2.75,2.75,0,0,0,121.41,67.59ZM219.82,43.7a3.78,3.78,0,0,0,0,2.77A3.78,3.78,0,0,0,219.82,43.7Zm33.3,29.86a3.41,3.41,0,0,0,0-2.23l-1.1.2.69.6C252.9,72.61,252.4,73.22,253.12,73.56Zm-2.69-4.92c.09.48.14.73.21,1.09l1-.2c-.07-.37-.11-.61-.17-.89ZM61.31,70.43a.64.64,0,0,0-.93,0c-.09.52-.3,1,.17,1.49ZM205.42,41c-.34,2.56-.33,2.56.16,2.57A3.85,3.85,0,0,0,205.42,41Zm-51,5.44c1-.08.94-.08.69-.58s-.36-.72-.54-1.1C154.09,45.27,154.3,45.79,154.42,46.48ZM89.31,65.11a2.88,2.88,0,0,0,0,2.53A2.88,2.88,0,0,0,89.31,65.11Zm-74.08,10c.28-2.06.28-2.06-.14-2.61A3.87,3.87,0,0,0,15.23,75.12ZM205,41.09c.24-1.36.22-1.36-.17-1.7A1.55,1.55,0,0,0,205,41.09ZM70.68,68.67c-.51.1-.69.51-1,.76a.67.67,0,0,0,1.13-.05C70.78,69.16,70.73,68.92,70.68,68.67Zm79.43-5.78c-.27,1.3-.26,1.3.12,1.74C150.53,64.15,150.5,63.66,150.11,62.89Zm89.62,4.6a1.18,1.18,0,0,0,0-1.67A1.17,1.17,0,0,0,239.73,67.49ZM75.43,69c-.24,1.36-.23,1.36.16,1.71A1.54,1.54,0,0,0,75.43,69Zm176.64-1.75c-.84-.18-.89-.76-1.39-.77a.7.7,0,0,0,.1,1ZM204.51,37.7l-.35,0a6.06,6.06,0,0,0-.09.73c0,.06.13.19.17.18s.35-.12.35-.2A3.63,3.63,0,0,0,204.51,37.7ZM18,65.31c.36-.5.52-.85-.08-1.08C17.6,64.55,17.62,64.86,18,65.31Zm75.76-2.8a.67.67,0,0,0,0-1.11A.66.66,0,0,0,93.74,62.51ZM185,50.89a.65.65,0,0,0,0-1.1A.65.65,0,0,0,185,50.89Zm28.2,38.71a.67.67,0,0,0,0,1.11A.66.66,0,0,0,213.18,89.6Zm-191-22.31.19.19a1.37,1.37,0,0,0,.17-.37s-.11-.12-.17-.18Zm54,4.81-.2-.19a1.76,1.76,0,0,0-.17.37s.11.12.17.18ZM231.9,69.22l-.19.2a1.76,1.76,0,0,0,.37.17s.12-.11.18-.17ZM90.78,62.7l.19.36c.06-.06.19-.14.18-.18a1.81,1.81,0,0,0-.18-.37ZM152,48.48l-.2-.35c-.06.06-.18.13-.17.18a1.76,1.76,0,0,0,.17.37ZM1.74,69.5l.2.19a1.37,1.37,0,0,0,.17-.37s-.11-.12-.17-.18ZM225.55,98.65l-.2-.2a1.37,1.37,0,0,0-.17.37c0,.05.11.12.17.18ZM29.23,65.07,29,64.72c-.06.06-.19.13-.18.18a1.81,1.81,0,0,0,.18.37Zm177-20.46-.2-.35c-.06.06-.18.13-.17.18a1.76,1.76,0,0,0,.17.37Zm-2.6,1.5.19.36c.06-.06.19-.14.17-.18a1.37,1.37,0,0,0-.17-.37Z"/><path d="M60.27,144.66V150a16.83,16.83,0,0,1-1,1.66,17.23,17.23,0,0,1-1.41,1.44h-2.2A6.17,6.17,0,0,1,53,150.89c0-.08.39-.85-.4-1.23V145.2l.51-.58v-1a5.58,5.58,0,0,1,2.83-2h1.31c.51.63,1.4.65,2,1.31S59.63,144.27,60.27,144.66ZM58.62,149v-3.22c-.7-1-1-2.2-2.28-2.63-.67.3-1,1-1.58,1.43v1.64l-.55.59v1.09l.56.62V150l1.33,1.51h1.15l.81-.8v-1.08Z"/><path d="M217,141.9l1.35,2.21v1.49l.54.65v2.31l-.47.47v1.48a7.72,7.72,0,0,1-1,1.65,8,8,0,0,1-1.64,1h-2a7.61,7.61,0,0,1-1.55-.91,8.76,8.76,0,0,1-1-1.64v-6.48c.38-.61.79-1.27,1.16-1.88.26,0,.46-.16.59-.11.81.3,1.15-.77,2-.61S216.09,142.72,217,141.9Zm-.27,2.8-.37,0c-.34-.55-.67-1.1-.93-1.51l-1.33.06-1.21,2v4.39c.65.52.56,1.54,1.38,1.9h1.09l1.37-1.37Z"/><path d="M127.75,150.7a1.57,1.57,0,0,0-.61,1.12c0,.27-.44.67-.74.74a1.67,1.67,0,0,0-1.11.63h-2.21c-.48-.73-1.76-.45-2-1.57-.13-.66-.86-1.17-.54-2L120,149v-3.29l.55-.58v-1.11a1.57,1.57,0,0,0,.61-1.11,1.15,1.15,0,0,1,.75-.75,1.59,1.59,0,0,0,1.11-.61h1.66c.5.64,1.38.66,2,1.29s.34,1.44,1.1,1.69Zm-1.66-1.11v-4.28l-.93-1.61-.39-.39h-.86l-1.66,1.2v5.54l1.3,1.47h1.17l.8-.8v-.53Z"/><path d="M259.62,141.58l.61.57h1.14c.24.34.51.69.75,1.06s.32.6.56,1v1.5l.37.35a1.85,1.85,0,0,1,.17.5c0,.64,0,1.28,0,1.89l-.55.61v1.39c-.27.53-.55,1.06-.81,1.59s-1.15.45-1.62,1.09a19.7,19.7,0,0,1-2.17,0,8,8,0,0,1-1.63-1,7.37,7.37,0,0,1-1-1.59v-6.52a1.66,1.66,0,0,0,.62-1.12c.05-.3.48-.52.75-.79h1.08l.6-.57Zm-1.09,10h1.11l1.31-1.35v-5.28l-1.25-1.69-1.17.05c-.79.53-.79,1.46-1.37,2v4.37C257.81,150.14,257.73,151.15,258.53,151.54Z"/><path d="M79.06,141.58h1.26c1.29.74,2.74,1.3,3.15,3v6a6.68,6.68,0,0,1-.86,1.51,8.25,8.25,0,0,1-1.62,1H78.9c-.6-.49-1.68-.51-2-1.42-.25-.72-.81-1.37-.66-2.2-.8-.63-.43-1.51-.45-2.28s-.26-1.41.42-2c.25-.22.07-.87.24-1.25a5,5,0,0,1,1-1.51A7.31,7.31,0,0,1,79.06,141.58Zm2.79,8V145.2c-.66-.49-.52-1.54-1.39-1.94h-.59L78,144.5v5.36l1.28,1.65h1.16C81.33,151.12,81.19,150.07,81.85,149.58Z"/><path d="M194,142.14c.41.65.77,1.24,1.2,2v6.52c-.22.43-.51.95-.76,1.48s-1.18.39-1.6,1.11h-2.25a5.51,5.51,0,0,1-2.47-2.49v-2.16l-.54-.55v-1.23l.44-.44v-2c.45-.74.84-1.41,1.24-2.07a6.48,6.48,0,0,0,2.26-.63.92.92,0,0,1,1,.25,1.52,1.52,0,0,0,.7.28A4.52,4.52,0,0,0,194,142.14Zm-1.79,1.1h-1.09c-.81.38-.72,1.4-1.33,1.88v4.74l1.25,1.7,1.32-.06,1.22-2v-4.38C192.88,144.64,193,143.62,192.16,143.24Z"/><path d="M141.56,148v3.28l-1.38,1.42c-.55-.18-.82.26-1.09.52H136l-1.56-.8v-1.1c.53-.62.92-.21,1.34.22h2.89c.3-.37.7-.86,1.27-1.58,0,0,0-.38,0-.71-.26-.82-1.15-.78-1.62-1.25-.64-.64-1.42-.05-2.16-.42,0-.19-.09-.44-.13-.66.44-.67,1.3,0,1.73-.62s1,0,1.55-.4V144l-.75-.78h-2.21l-.58.54h-1.11c-.53-.48,0-1-.39-1.58h1.88l.72-.55c.7,0,1.48-.32,2.18.39.2.19.69.09,1.26.14l1.23,1.77v1.91l-1.17.82Z"/><path d="M66.93,143.72v-1.33c.52-.55,1.53.12,1.89-.79h2.23l.58.54h1.09c.81.38.8,1.34,1.32,1.94a1,1,0,0,1-.12,1.24c-.46.31-.21.86-.56,1.17a1.38,1.38,0,0,0-.27.32l1,1.83v2.75l-1.36,1c-.37.47-1.18,0-1.56.78H68.42l-1.4-.7c-.23-.34-.07-.79-.06-1.3l.71-.21.64.59h2.78l1.34-1.44v-1c-.32-.84-1.36-.73-1.87-1.38l-1.89-.1-.08-.79c.4-.44,1,0,1.29-.29a11.28,11.28,0,0,1,1.37-.72,4.93,4.93,0,0,0,.62-.6v-1.12l-1.48-.78c-.54,0-1.36-.36-2,.39-.09.1-.33.09-.51.09S67.34,143.75,66.93,143.72Z"/><path d="M205.9,142.18h1.83a1.8,1.8,0,0,1,.19.53c0,1.93,0,3.86,0,5.89l1.5.28c.34.41,0,.88.21,1.41l-1.65.26c0,.64-.07,1.26-.1,1.86-.4.43-.89.14-1.31.23-.11-.13-.29-.26-.3-.41,0-.53,0-1.07,0-1.53-.16-.15-.21-.23-.29-.26a.86.86,0,0,0-.28,0h-4.13c-.56-.54-.17-1.22-.28-1.82.24-.67,1.12-.84,1.16-1.75,0-.54,1-.72,1.06-1.48s1.22-.85,1.1-1.75Zm.11,2.18c-.64,1-.94,2.26-1.95,3,.5.59-.77.76-.31,1.38h2.17c.08,0,.15-.1.29-.19,0-1.31,0-2.66,0-4C206.2,144.5,206.08,144.43,206,144.36Z"/><path d="M275.39,148.69l1.47.16c.35.43.13.9.18,1.44l-1.59.26c0,.63-.07,1.25-.1,1.86-.38.43-.87.14-1.3.23-.71-.56-.06-1.38-.39-2-.08-.09-.14-.21-.2-.21H269c-.58-.53-.17-1.21-.29-1.86l1.67-1.49v-.87c.9-.36.9-1.48,1.58-2s.64-1.48,1.44-2h1.75a1.85,1.85,0,0,1,.2.51C275.4,144.63,275.39,146.56,275.39,148.69Zm-1.92-3.84c-.39.53-.88.77-.91,1.45,0,.33-.66.61-.91,1a8.06,8.06,0,0,0-.58,1.36,2.52,2.52,0,0,0,1.33.11c.43,0,.92.2,1.34-.26,0-1.05,0-2.15,0-3.25C273.73,145.18,273.64,145.11,273.47,144.85Z"/><path d="M279.54,142.14h5.66l.17.92a5.79,5.79,0,0,1-2.27.17c-.64.05-1.28,0-2,0a3.1,3.1,0,0,0-.12,2.1,10,10,0,0,0,2.17.12l1.59.81,1,1.06v4l-1.57,1.35h-.88l-.47.47h-2.75l-1.44-.8v-1.09c.36-.48.87-.14,1.27-.31l.65.59h1.54l1.57-.89.46-.46v-1.73l-1.47-1.31h-2.09c-.32.14-.51.73-1.08.52S279.1,144,279.54,142.14Z"/><path d="M146,145.41h2.28a8.06,8.06,0,0,1,1.64,1,7.51,7.51,0,0,1,1,1.63v2.66l-1.16,1.9-1.35.16-.45.44h-2.68l-1.41-.7c-.22-.35-.07-.8,0-1.31l.71-.2.63.59h2.2c.71-.67,1.38-1.38,1.94-1.93,0-.36,0-.49,0-.54l-1.92-1.95h-2.22l-.63.59-.79-.21.59-.67c0-1.43,0-2.9,0-4.36,0-.07.1-.14.2-.27h5.19l.17.71c-.09.11-.15.23-.21.23-1.17.07-2.34.12-3.5.17C145.8,143.91,146.07,144.56,146,145.41Z"/><path d="M197.37,151h2c.41.43.13.91.23,1.33-.62.65-1.36.06-1.92.31C197.24,152.17,197.52,151.69,197.37,151Z"/><path d="M132.12,151v1.48c-.62.39-1.27.13-1.88.2-.51-.43-.25-1-.19-1.48C130.63,150.8,131.28,151.05,132.12,151Z"/><path d="M265.49,152.69v-1.48c.43-.41.91-.13,1.33-.23.5.44.26,1,.18,1.49C266.62,152.82,266.14,152.55,265.49,152.69Z"/><path d="M62.56,151h1.3c.6.42.08,1,.32,1.36-.49.49-1,.2-1.39.3C62.14,152.1,62.67,151.54,62.56,151Z"/><path d="M108.39,126.1v.83c-.53.57-1.21.17-1.88.29l-.85-.79v-2.74l-.83-.89c-.77-.21-.93.53-1.37.71-.12,1.23.05,2.42-.11,3.63l-.8,0c-.11-.11-.23-.17-.23-.24,0-1.28,0-2.57,0-3.85l-.61-.66a5.33,5.33,0,0,1,1.45-2.4h1.79l.15,1-1.76.27c.71.72,1.44.23,2.13.5l.24-1.05.9-.17.21,1,1.5.26.08.86-1.6.24v3C107.3,126.28,107.87,126,108.39,126.1Z"/><path d="M23.18,110.24v1.29a125.37,125.37,0,0,1-13.72,0v-1.29A122.91,122.91,0,0,1,23.18,110.24Z"/><path d="M66.76,122.81H65.54l-.81.76v3.49l-.81.18c-.12-.17-.31-.31-.31-.45,0-1.64,0-3.28,0-4.92.75-.4,1.49-.13,2.2-.18s1.28,0,1.92,0c.29.79,1,1.42.83,2.51l.79.86c.54-.5.25-1,.34-1.41l.56-.6V122c.46-.48,1-.27,1.57-.14,0,.23.14.64,0,.7-.53.32-.35,1-.77,1.34-.62.46.06,1.29-.57,1.7s-.05,1-.4,1.51-.86,0-1.24.16l-.82-.82C68.17,125,67,124.08,66.76,122.81Z"/><path d="M23.29,124.4H9.64c-.43-.43-.14-.91-.23-1.34.14-.09.29-.27.43-.27H23C23.42,123.25,23.13,123.74,23.29,124.4Z"/><path d="M82.22,127.11c-.53.31-.83,0-1.16-.43l-.6.51H78.75l-1.29-1.49V123l1.63-1.26H81c.48-.47.19-1,.32-1.53l.8-.15c.15.17.26.24.26.31,0,2.2,0,4.39,0,6.59C82.39,127,82.28,127,82.22,127.11Zm-2.43-4.4c-.25.12-.69.27-.67.34.09.56-.33.81-.58,1.17-.05.06,0,.17,0,.38a3,3,0,0,1,.41.55,6.62,6.62,0,0,1,.34.94h.66l.74-.8v-1.76Z"/><path d="M31.53,123.93H29.59l-.79.73V127c-.25.11-.4.2-.56.25a.88.88,0,0,1-.28,0c-.1-.14-.29-.28-.29-.41,0-2,0-4,0-6.1l.79-.16c.69.62,0,1.45.51,2.21a19.85,19.85,0,0,0,2.32,0c.6-.6-.06-1.44.44-2.12H33c.31.31.33,3.12,0,6.51H31.73a1.8,1.8,0,0,1-.2-.5C31.52,125.82,31.53,125,31.53,123.93Z"/><path d="M61.94,113.79v-4.54c.33-.47.82-.28,1.25-.29,1,0,2,0,3,0,.24.92,1,1.57.78,2.59l.69.2c.72-.36.2-1,.46-1.48s.53-.88.78-1.31H70c.22.61-.44,1-.39,1.61a2.41,2.41,0,0,1-.71,1.59c-.45.49-.25,1-.36,1.52-.06.07-.12.18-.19.19a3.63,3.63,0,0,1-1.9-.08c0-1.43-1-2.5-1.5-3.71h-1.1L63,111v3Z"/><path d="M145.73,121.68h1.71c.1-.3.21-.62.34-1l.77-.12.37,1.07,1.34.12.2.71a3.65,3.65,0,0,0-1.69,1.19v1.65l.79.79.53,0a.65.65,0,0,1,.25.92c-.58.39-1.23.11-1.87.19l-.85-.9V123c-.5-.35-1-.18-1.38-.18-.83.38-.7,1.42-1.36,1.92v2.33l-.85.13c-.14-.18-.24-.25-.24-.32,0-1.65,0-3.3,0-4.93.61-.65,1-.13,1.37.26Z"/><path d="M160.93,127.16h-3.6c-.76-.24-.75-1.21-1.24-1.81a1.07,1.07,0,0,1,.14-1.46c.42-.38.21-.84.29-1.37l.75-.81h2.23c.52-.47.22-1,.35-1.53l.79-.18c.16.17.28.24.28.31C160.93,122.51,160.93,124.72,160.93,127.16Zm-3.32-3.55v1.66c.41.31.63.93,1.27.83.48-.16.29-.62.46-.89s.57-.47.48-.89l-.88-1.54C158.25,122.68,158,123.3,157.61,123.61Z"/><path d="M138.25,125.73V123l1.43-.95c.22-.47.69-.29,1.13-.33s.72,0,.94,0l1.46,1.46v1.64c-1,.51-2.15,0-3.22.35l-.06.74c.62.45,1.28.14,1.89.23l.59-.55H143l.25.74-.81.86h-3l-.88-1.44Zm3-1.84c.43-1,.39-1-.6-1.12-.1.39-.67.44-.69.94C140.41,124.05,140.87,123.8,141.29,123.89Z"/><path d="M108.39,125.94v-2.31l.56-.6v-.54l1.56-.79H112l1.27,1.47v1.73c-1.08.2-2.17,0-3.62.17l1.36,1h.76c1.35-.38,1.35-.38,1.56,0a2.07,2.07,0,0,1-.21.45,5.73,5.73,0,0,1-.6.61h-2.73Zm1.56-2.36a1.58,1.58,0,0,0,1.76.09l-.13-.88h-.08Z"/><path d="M76.87,123.06v1.65c-.14.1-.29.27-.43.27-.91,0-1.81,0-2.64,0-.12.17-.22.29-.22.3l.79.8h1.1c.34-.23.56-.74,1.2-.51l.26.69-.8.87H74l-1.39-.61a2.89,2.89,0,0,0-.73-1.32v-1.38c.24-.45.47-.9.78-1.51l.65-.15.53-.49H75.5Zm-3.48.65c1.84.19,1.84.19,2.27-.2-.35-.23-.49-.76-1.31-.71C74.15,122.84,74,123.29,73.39,123.71Z"/><path d="M51.2,127.19H48.38a1,1,0,0,1-.2-.21.44.44,0,0,1-.06-.25v-6.61l1-.11c.09.54.17,1,.25,1.62l1.85.08L52.47,123c.19.92,0,1.91.08,2.72Zm.22-3.64c-.43-.16-.55-.89-1.34-.75l-.83.76v1.76c.41.25.55.8,1.35.77.25-.06.45-.52.82-.79Z"/><path d="M118.35,127.16h-3.17l-1.2-1.62v-2.62l1.77-1.22,1.26-.07c.45-.37.08-.88.51-1.74,0,.08.27,0,.61.2.08.08.21.14.21.21C118.35,122.5,118.35,124.71,118.35,127.16Zm-2.49-1.06c.82,0,1-.55,1.41-.83-.16-.57.15-1.2-.18-1.81-.34-.25-.52-.78-1.38-.63l-.66.82v1.64Z"/><path d="M78.82,113.93l-.64.6a5.13,5.13,0,0,1-2.41-1.43v-2.76L77.14,109c.59-.11,1.24.13,1.86-.19l.16-1.37.71-.15c.4.38.43,1.57.23,6.45-.07.08-.13.2-.19.2C79.54,113.94,79.17,113.93,78.82,113.93Zm-1.95-3V112l1.31,1.29.85-.59v-1.88c-.41-.27-.56-.82-1.14-.76S77.23,110.64,76.87,110.89Z"/><path d="M49.39,114.49c-.51,0-1,.1-1.49-.42-.22-.25-.83-.15-1.24-.21-.08-.08-.17-.14-.2-.22a.82.82,0,0,1,0-.27v-5.93l1.06-.18c0,.58,0,1,.07,1.45.07.06.13.18.2.18.72,0,1.45,0,2.2,0l.84,1.59v2.68Zm-.77-4.69-1,1.3v1.47c.65.66.66.66,1.38.82l.75-.83v-1.75Z"/><path d="M94,120.07h.89c.41.42.12.9.24,1.4.73.41,1.56.12,2.44.22l.85.78c0,.7,0,1.51,0,2.31V127a1.56,1.56,0,0,1-.49.24,1.65,1.65,0,0,1-.58-.16v-3.36l-.86-.89c-.47.46-.92.91-1.37,1.37a27.71,27.71,0,0,1-.11,3h-.81a1.53,1.53,0,0,1-.2-.5C94,124.47,94,122.29,94,120.07Z"/><path d="M152.08,125.27l.8.8h1.66l.6-.52.4.84-1.39.82h-1.61L151,126.4V123l1.77-1.23h1.14l1.46.74c.21.24,0,.71,0,1.14a10.07,10.07,0,0,1,0,1.1c-.14.09-.28.27-.43.27-.82,0-1.64,0-2.46,0C152.36,125,152.22,125.18,152.08,125.27Zm.18-1.51a3.07,3.07,0,0,0,2.31-.15c-.75-.2-.82-.93-1.67-.8C152.73,123.05,152.49,123.42,152.26,123.76Z"/><path d="M44,109l1.37,1.36v2.73c-.42.85-1.36,1-2.09,1.41s-1.35-.73-2.27-.54c0-.54-.06-1-.08-1.4l-.46-.45a1.79,1.79,0,0,1,0-.7,5.43,5.43,0,0,1,.73-1.83c.53-.47.59-.57.66-.58Zm-1.14,4.36,1.4-1.29v-1.15c-.41-.34-.66-.92-.74-.91l-1.4.82v1.83Z"/><path d="M72.73,113.28c1,.63,1.38-.6,2.22-.44l.29.55c0,.17,0,.29-.1.33-.41.3-1,.24-1.33.76H72.73l-.63-.57H71l-.8-1.54v-1.48c.63-.51.56-1.53,1.38-1.93h2.74c.27.86,1.22,1.54.69,2.69-.94.18-2,0-3,.13l-.21.76Zm.9-2.16-.18-1c-.59-.08-1.12-.33-1.59.2l.15.75Z"/><path d="M61.66,127.21H59.45l-1.37-1.38V123l1.41-1.35h1.59c.31.46.88.49,1.36.75v2.43c-1.08.37-2.21-.14-3.29.34l.79.84h1.71l.51-.42C62.61,126.21,62.61,126.21,61.66,127.21Zm-.22-3.54c-.46-.34-.62-1-1.55-.85l-.62.91A2.83,2.83,0,0,0,61.44,123.67Z"/><path d="M42.63,126.29v-3.86c.52-.23,1.06-.31,1.38-.74H45.6L47,123.05v2.77l-1.37,1.38H43.37Zm3.27-1v-1.72c-.44-.2-.61-.9-1.3-.77l-.86.69v1.87c.41.27.56.82,1.14.76S45.54,125.53,45.9,125.27Z"/><path d="M57.2,109H60l.76.76v2H57.72l-.25.8.76.81c.52.09,1.05.32,1.49-.17a.74.74,0,0,1,1-.14l.11.66c-.35.5-1.13.18-1.35.81-.43,0-1,.1-1.26-.13-.53-.48-1.45-.32-1.83-1.36,0-.75,0-1.74,0-2.73C56.37,109.66,56.8,109.46,57.2,109Zm.4,2c.59.34,1.22.11,1.82.15.07,0,.16-.21.25-.33-.38-.23-.51-.76-1.28-.76C58.25,110.32,57.74,110.45,57.6,111Z"/><path d="M91,123.89h1.09a3.43,3.43,0,0,0,.62.54,2.94,2.94,0,0,0,.75.16v1.82a5.21,5.21,0,0,0-.6.25c-.23.11-.45.26-.82.49H89.94l-.91-.74,0-.69.7-.21.65.58h1.21l.17-.82c-.49-.46-1-.17-1.4-.29l-.8-.8v-1.73l.9-.72h2.18c.38.45.15.91.2,1.35-.47.53-.48-.32-.54-.28H91C90.54,123.13,90.59,123.5,91,123.89Z"/><path d="M54.5,126.09h1.24c0-.31.08-.62.13-1l-1.35-.1c-.52-.25-.89-.9-1.45-1.38,0-1,.94-1.24,1.39-1.9.72,0,1.45,0,2.18,0,.07,0,.14.1.26.2v1.25c-.51-.09-.51-.09-.78-.35H54.89l-.17,1h1.37c.5.65,1.19,1,1.5,1.72-.29.74-1,1.07-1.43,1.65H54l-.89-.74c.06-.37.09-.54.12-.71C53.83,125.1,54.1,125.85,54.5,126.09Z"/><path d="M128.85,127.15H128c-.1-.12-.21-.18-.21-.25,0-1.65,0-3.3,0-5,.55-.54,1-.27,1.32.28l.62-.54h1.69l.74.89v4.51l-.76.14c-.1-.1-.22-.17-.22-.23,0-1.09,0-2.18,0-3.43l-.85-.77c-.81-.12-1,.51-1.43.82Z"/><path d="M51.68,112.65l1.24.72H54l.23-.73c-.9-.71-2.16-.78-2.79-1.78v-1.09l.81-.81H55c.06,0,.13.12.25.22v.68c-.69.4-1.46.06-2.28.31l.84.91,1.27.15c.08.08.2.14.2.21,0,.73,0,1.47,0,2.23l-1.12.56c-.74.36-.88.35-1.69-.07-.31-.15-.63-.26-.94-.39,0-.08-.12-.16-.11-.23C51.49,113.29,51.57,113.05,51.68,112.65Z"/><path d="M133.83,125.26v-.83c-.44-.9-.8-1.58-1.08-2.29,0-.11.26-.35.37-.49.95.17,1.2.81,1.37,1.52.78.36.22,1.18.58,1.69.07,0,.17.09.19.07.27-.24.53-.5.78-.74v-1c.32-.6.55-1,.81-1.55l.71.07c.16.57.36,1.13-.12,1.54s0,1.15-.4,1.47c-.53.45-.42,1-.46,1.72l-.77.69h-1.18c-.47-.39-.1-.9-.39-1.48Z"/><path d="M34.29,109l-1.47-.16c-.58-.88.32-1.09.63-1.57H35.1c.1.13.28.26.28.4,0,1.65,0,3.3,0,4.85.48.49,1,.1,1.55.43l.1.72c-.2.13-.27.22-.34.22H32.8l-.2-.73c.38-.68,1-.17,1.49-.45.07-.07.19-.13.19-.2C34.29,111.44,34.29,110.34,34.29,109Z"/><path d="M37.06,120.85v4.53l1.59,1,0,.55c-.42.42-.9.19-1.34.23a11.36,11.36,0,0,1-1.65,0c-.44,0-.92.18-1.36-.2v-.68c.43-.44.93,0,1.49-.38-.08.08.05,0,.05,0,0-1.36,0-2.71,0-4.14l-1.38-.12c-.33-.3-.26-.62-.09-1h2.44C36.93,120.66,37,120.78,37.06,120.85Z"/><path d="M27.7,113.93v-6.51l.74-.15c.1.09.22.15.22.22.06,1.71.11,3.43.15,5.19,1,.41,2.16-.11,3.22.29v.74c-.11.1-.18.22-.25.22Z"/><path d="M86.27,126.36v-4.25c.53-.66.59-1.66,1.46-2.09.59.12,1,.53.74.75-.57.48-.42,1.36-1.09,1.75v3.16c.22.39.39.69.55,1a6.61,6.61,0,0,1,.53,1.15c0,.14-.24.37-.34.5C86.87,128.21,87,127,86.27,126.36Z"/><path d="M162.58,126.92v-1.09l.56-.58V122.5c-.69-.37-.51-1.29-1.1-1.74,0,0,0-.19,0-.26s.27-.37.37-.5c1.25.13,1.12,1.35,1.8,1.92v3.83c-.25.47-.93.87-.35,1.67l-1,.91-.73-.09-.18-.69Z"/><path d="M125.58,127.29v-5.5l.75-.15c.1.1.22.16.22.23,0,1.71,0,3.43,0,5.23Z"/><path d="M101.2,127.15h-.89c-.1-.12-.21-.19-.21-.26,0-1.64,0-3.29,0-5.07l.84-.15c.15.18.26.25.26.32Z"/><path d="M121.11,127.48l-.85.86-.75-.19c-.21-.69.23-.94.5-1.25v-1.23l.89-.13A4.46,4.46,0,0,1,121.11,127.48Z"/><path d="M126.37,121.12h-.68c0-.28-.12-.58-.2-1l.83-.16A.67.67,0,0,1,126.37,121.12Z"/><path d="M100.93,121.12h-.67l-.21-1,.83-.16A.67.67,0,0,1,100.93,121.12Z"/></g></g></svg>