<svg xmlns="http://www.w3.org/2000/svg" viewBox="0 0 111.82 111.82"><title>Recurso 56MANDALA</title><g id="Capa_2" data-name="Capa 2"><g id="Capa_1-2" data-name="Capa 1"><path d="M46.93,57.48h0C46,52,43.21,46.58,35.65,47.6a42,42,0,0,0-17.48,7.16A49.84,49.84,0,0,0,14.77,85c2.37,13.08,13.7,22,21.37,21.86h0A42,42,0,0,1,22.69,66.15C30.14,59.36,39.22,56.58,46.93,57.48Z"/><path d="M48.92,61.76h0c-3.5-4.28-8.68-7.58-14.71-2.92A42.1,42.1,0,0,0,22.65,73.78,49.88,49.88,0,0,0,34.84,101.7c8.59,10.14,22.86,12.19,29.44,8.24h0a42,42,0,0,1-32-28.55C35.31,71.78,41.8,64.84,48.92,61.76Z"/><path d="M52.79,64.47h0c-5.18-1.95-11.31-2.22-14.21,4.83A42.1,42.1,0,0,0,36.05,88,49.87,49.87,0,0,0,60.56,106.1c12.51,4.49,25.88-.87,29.61-7.58h0a42,42,0,0,1-42-8.72C46,80,48.15,70.7,52.79,64.47Z"/><path d="M57.48,64.89h0c-5.46.89-10.9,3.72-9.88,11.28a42,42,0,0,0,7.16,17.48A49.84,49.84,0,0,0,85,97.05c13.08-2.37,22-13.7,21.86-21.37h0A42,42,0,0,1,66.15,89.13C59.36,81.68,56.58,72.6,57.48,64.89Z"/><path d="M61.76,62.9h0c-4.28,3.5-7.58,8.68-2.92,14.71A42.1,42.1,0,0,0,73.78,89.17,49.88,49.88,0,0,0,101.7,77c10.14-8.59,12.19-22.85,8.24-29.44h0a42,42,0,0,1-28.55,32C71.78,76.51,64.84,70,61.76,62.9Z"/><path d="M64.47,59h0c-1.95,5.17-2.22,11.31,4.83,14.2A42.24,42.24,0,0,0,88,75.78,49.94,49.94,0,0,0,106.1,51.26c4.49-12.51-.87-25.88-7.58-29.61h0a42,42,0,0,1-8.72,42C80,65.81,70.7,63.67,64.47,59Z"/><path d="M64.89,54.34h0c.89,5.46,3.72,10.9,11.28,9.88a42,42,0,0,0,17.48-7.16,49.84,49.84,0,0,0,3.4-30.27c-2.37-13.08-13.7-22-21.37-21.85h0A42,42,0,0,1,89.13,45.68C81.68,52.46,72.6,55.24,64.89,54.34Z"/><path d="M62.9,50.06h0c3.5,4.28,8.68,7.58,14.71,2.92A42.1,42.1,0,0,0,89.17,38,49.88,49.88,0,0,0,77,10.12C68.39,0,54.13-2.07,47.54,1.88h0a42,42,0,0,1,32,28.56C76.51,40,70,47,62.9,50.06Z"/><path d="M59,47.35h0c5.17,1.95,11.31,2.23,14.2-4.83A42.22,42.22,0,0,0,75.78,23.8,49.94,49.94,0,0,0,51.26,5.72c-12.51-4.49-25.88.87-29.61,7.58h0a42,42,0,0,1,42,8.72C65.81,31.87,63.67,41.12,59,47.35Z"/><path d="M54.34,46.93h0c5.46-.89,10.9-3.72,9.88-11.28a42,42,0,0,0-7.16-17.48,49.84,49.84,0,0,0-30.27-3.4c-13.08,2.37-22,13.7-21.85,21.37h0A42,42,0,0,1,45.68,22.69C52.46,30.14,55.24,39.22,54.34,46.93Z"/><path d="M50.06,48.92h0c4.28-3.5,7.58-8.68,2.92-14.71A42.1,42.1,0,0,0,38,22.65,49.88,49.88,0,0,0,10.12,34.84C0,43.43-2.07,57.7,1.88,64.28h0a42,42,0,0,1,28.56-32C40,35.31,47,41.8,50.06,48.92Z"/><path d="M47.35,52.79h0c1.95-5.18,2.23-11.31-4.83-14.21A42.08,42.08,0,0,0,23.8,36.05,49.87,49.87,0,0,0,5.72,60.56c-4.49,12.51.87,25.88,7.58,29.61h0a42,42,0,0,1,8.72-42C31.87,46,41.12,48.15,47.35,52.79Z"/><path d="M59,47.35h0c5.17,1.95,11.31,2.23,14.2-4.83A42.22,42.22,0,0,0,75.78,23.8,49.94,49.94,0,0,0,51.26,5.72c-12.51-4.49-25.88.87-29.61,7.58h0a42,42,0,0,1,42,8.72C65.81,31.87,63.67,41.12,59,47.35Z"/></g></g></svg>