<svg xmlns="http://www.w3.org/2000/svg" viewBox="0 0 188.61 94.31"><title>Recurso 23ART</title><g id="Capa_2" data-name="Capa 2"><g id="Capa_1-2" data-name="Capa 1"><path d="M88.47,87.14l-.14,1.23-1,.06c-.46.45,0,1.09-.34,1.61H84.35c-.32-.44-.09-.94-.15-1.41-.11-.07-.21-.21-.32-.21-.83,0-1.66,0-2.46,0-.3.52-.11,1-.19,1.51a2.41,2.41,0,0,1-1.62.09l-.08-1.43c-.25-.25-3.07-.28-5.86,0v2.6c-.35.36-.72.14-1.14.24-.31-.94,0-1.92-.17-2.82-.09-.07-.14-.15-.2-.15H69.68c-.31.22-.19.52-.22.78s.1.56-.15.85H66.67c-.32-.43-.09-.94-.16-1.44A2.18,2.18,0,0,0,65,88.46c-.27.24-.11.54-.14.8a4.3,4.3,0,0,0,0,.62c-.12.08-.23.2-.35.2-.83,0-1.66,0-2.55,0,0-.57,0-1-.08-1.51-.12-.06-.23-.17-.35-.17H57.75l-.12-1.11a1,1,0,0,0-.37-.15H52c-.52-.48,0-1-.24-1.47.16-.13.2-.19.26-.21a.74.74,0,0,1,.21,0H66.31c.34-.38.23-.77.08-1.23h-22c-.49-.53,0-1.16-.42-1.7H16.64c-.12-.13-.19-.17-.21-.23a.44.44,0,0,1,0-.2V76.75l1.13-.21c.05-.06.11-.1.13-.16a.74.74,0,0,0,0-.21V72.62c.47-.49,1.11,0,1.64-.36l.08-1.36c.29-.33.67-.1,1-.18.08-.1.23-.2.23-.31,0-.83,0-1.66,0-2.46.51-.31,1-.11,1.56-.19.07-.36.14-.75.22-1.2l1-.08c.39-.46,0-1.07.23-1.61l1.44-.07c.33-.32.1-.69.2-1.1l1.12-.22c.24-.44.05-.94.14-1.41.46-.43,1.07,0,1.59-.25l.12-1c.29-.31.66-.09,1-.16.55-.42,0-1.06.3-1.54.05,0,.1-.14.15-.14H31l.21-1.15a3.31,3.31,0,0,1,1.43-.11c.42,0,.84,0,1.22,0,.47-.48,0-1.12.39-1.66h2.54c.38-.37.15-.74.25-1.15.88-.37,1.87,0,2.79-.2.29-.46,0-1,.19-1.44.08,0,.19-.17.31-.17h2.31c.06,0,.11-.07.21-.13l.11-1c.43-.33.93-.12,1.4-.15s.84,0,1.26,0a3,3,0,0,0,1.5-.16V50.31c.12-.12.17-.2.22-.21a2.94,2.94,0,0,1,.42,0h3.87l.2-1.14a.8.8,0,0,1,.18-.12.72.72,0,0,1,.21,0h3.53c.47-.48,0-1.12.36-1.63h38c.4.46-.07,1.09.32,1.6h26.21c.29-.48.09-1,.16-1.45.11-.06.22-.19.33-.19.83,0,1.66,0,2.56,0,0,.56,0,1,.08,1.5.11.06.23.18.35.18h4.62c.27,0,.56-.11.83.13l.11,1c.13.05.24.15.36.15h11.24c.07-.37.14-.75.22-1.13.05,0,.1-.12.15-.13a3,3,0,0,1,.42,0h3.77c.49-.46,0-1.09.31-1.57.06,0,.11-.11.17-.11h3.74c.43.55.06,1.08.24,1.6l-1.15.13c-.33.31,0,.69-.19,1,.15.1.26.23.37.23h3.83l.07-1.09c.43-.37.93-.14,1.4-.17s1.12,0,1.68,0a3.49,3.49,0,0,0,1.49-.13l.07-1.38c.14-.06.25-.16.37-.16h4.84a4.65,4.65,0,0,1,.61.08v1.45c-.48.28-1,.09-1.53.18L162,50c-.07.05-.12.11-.18.12a.72.72,0,0,1-.21,0h-5l-.24,0a2.73,2.73,0,0,0,0,1.63h7.26c.4.36.09.74.31,1.13-1,.34-2,0-2.88.2-.07.08-.15.13-.15.19,0,.84,0,1.67,0,2.5.45.4,1,.15,1.42.19s.85,0,1.27,0a3.57,3.57,0,0,1,1.47.13v1.4c-.43.32-.93.09-1.4.15s-1-.13-1.44.14l-.1,1a1.23,1.23,0,0,1-.39.14H150.5c-.48.49,0,1.05-.29,1.63l1.67.09c.06.37.12.75.18,1.15l1,.12c.32.45.1,1,.16,1.42-.11.07-.22.21-.33.21H143.3a3,3,0,0,0-.16,1.5c0,.42,0,.83,0,1.24-.43.41-.94.16-1.41.2s-1.12,0-1.68,0h-1.45c-.18,1,0,1.9-.12,2.78-.44.35-.94.13-1.41.16a9,9,0,0,1-1.27,0,3,3,0,0,1-1.49-.16V68c-.52-.32-1-.15-1.49-.18s-.84,0-1.26,0c-.42.41-.16.93-.19,1.39a13.15,13.15,0,0,0,0,1.4,3.36,3.36,0,0,0,1.51.15c.42,0,.83,0,1.23,0,.47.49,0,1.12.34,1.62l1,.12c.3.29.08.66.16,1-.11.07-.22.21-.33.21-1.25,0-2.5,0-3.68,0-.34-.37-.12-.74-.22-1.07a22.12,22.12,0,0,0-5.77-.09c0,.06-.1.11-.1.17,0,.27,0,.55,0,.88l.6.11a3.52,3.52,0,0,0,.46,0c.35.48.18,1,.15,1.54a1.21,1.21,0,0,1-.37.14H121c-.43.41-.16.92-.2,1.39s0,1,0,1.51h1.46c.1.18.22.3.22.41,0,.83,0,1.66,0,2.53H121c-.31-.44-.08-.94-.15-1.41-.1-.07-.21-.21-.32-.21-.83,0-1.66,0-2.42,0-.37-.37-.08-.75-.29-1.11,0,0-.15-.15-.27-.15-.83,0-1.66,0-2.42,0-.1.16-.17.21-.17.27V81c.49.46,1.13,0,1.64.37v.92c-.08.08-.12.18-.17.18h-2.6l-.22-1.14c-.46-.27-1,0-1.49-.19l-.2,1.26-1,.12c-.31.44-.09.94-.15,1.41-.11.08-.21.21-.32.22h-2.46a2.89,2.89,0,0,0-.16,1.49c0,.42,0,.84,0,1.25-.51.47-1.06,0-1.63.28,0-.65-.06-1.12-.09-1.59-.28-.32-.66-.1-1-.17-.47-.27-.08-.78-.31-1.13-.43-.28-.93-.08-1.4-.13-.07.11-.2.22-.2.33,0,1.25,0,2.5,0,3.69-.14.1-.19.18-.25.18H100.3l-.2-1.22H97.4c-.32.44-.09.94-.15,1.41s.13,1-.15,1.45H94.45a2.8,2.8,0,0,1-.14-1.45c0-.42,0-.84,0-1.34l-1.22-.21L93,85.58a2.85,2.85,0,0,0-1.64,0v1.37c-.12.12-.17.22-.22.22C90.3,87.15,89.46,87.14,88.47,87.14ZM113.6,54.73H99.16c-.06,0-.11.09-.23.2,0,.42,0,.9,0,1.38s.25,1-.21,1.36c-.47.07-1-.16-1.42.16v2.64c.52.39,1.15-.11,1.61.33,0,.33.13.68-.13,1.05-.44.2-1.06-.23-1.52.24,0,1.39,0,2.79,0,4.19,0,.06-.08.11-.13.16L96,66.65c0,.86,0,1.63,0,2.4a1.48,1.48,0,0,1-.16.38l-1.43.07-.18,1.18-1.17.1c0,.88,0,1.71,0,2.54,0,.11-.12.23-.19.34-.47.08-1-.11-1.41.14-.28.49.23,1.12-.3,1.56-.77,0-1.54,0-2.31,0-.12,0-.24.1-.37.15v1c.1.07.16.14.21.14q4.94,0,9.88,0c.11,0,.23-.1.35-.16l.1-1c.1-.06.15-.13.21-.13h3.57c.12,0,.23-.12.42-.22V73.72l2.74-.11c.06,0,.1-.09.15-.14.08-.33-.14-.7.22-1.07h2.55c.41-.54-.06-1.17.41-1.7h2.62c.08-.45.14-.84.2-1.2,1-.1,1.87,0,2.76-.08.26-.57-.18-1.19.29-1.64.47-.06,1,.14,1.43-.15l.12-1.12c.47,0,.95,0,1.43,0s1,.17,1.42-.16c0-.47,0-.94.07-1.37.11-.07.17-.14.22-.14.77,0,1.54,0,2.31,0,.12,0,.23-.11.35-.17l.07-1,1.2-.22c.08-.56-.12-1.05.2-1.57.37,0,.78,0,1.19,0,.11,0,.21-.14.31-.22.07-.32-.15-.7.16-1l1.11-.13c0-.49,0-1,0-1.44s.2-1-.2-1.43c-.4,0-.81,0-1.23,0a3.4,3.4,0,0,1-1.47-.13c-.21-.47.22-1.09-.25-1.55h-8.82c-.28,0-.56,0-.84,0-.05,0-.1-.08-.18-.14ZM67.79,67.83c-.55-.13-.92.1-1.23-.21l-.11-1c-.49-.38-1.12.11-1.58-.32-.12-.89,0-1.79-.1-2.68l-1.2-.21V59.38a.49.49,0,0,0,0-.21c0-.06-.08-.11-.19-.23-.34,0-.76,0-1.17,0-.11,0-.21-.14-.32-.22-.07-.32.15-.7-.16-1h-1L60.51,59H58.94c0,2.44,0,4.81,0,7.19,0,.11.13.22.15.26.51.21,1-.11,1.45.22.23.34-.16.85.35,1.14.24,0,.52,0,.8,0,0,0,.09.09.18.18,0,1.36,0,2.75,0,4.15,0,.06-.07.11-.1.17-.4.12-.79.24-1.09,0-.19-.51.09-1-.25-1.54-.78,0-1.61,0-2.44,0-.11,0-.22-.13-.32-.21-.08-.32.14-.7-.19-1l-1.43-.07c-.22-.54.17-1.15-.25-1.61l-1-.07-.21-1.13c-.56-.23-1.07.08-1.58-.29,0-1.76,0-3.58,0-5.39,0-.1-.14-.21-.22-.31-.33.07-.7-.15-1,.16v8.59l1.27.21v2.7c.55.34,1.19-.17,1.63.34.07.33-.15.7.16,1l1,.12c.38.49-.12,1.13.32,1.58l1.41.08.22,1.22c.5,0,.92,0,1.34,0s1-.14,1.4.12c.29.5-.24,1.14.31,1.56H79.16a.94.94,0,0,0,.37-.17l.08-1.38a4,4,0,0,1,1.48-.13c.46-.06,1,.19,1.4-.18l.07-1.08h2.56a.53.53,0,0,0,.26-.16c.21-.5-.1-1,.28-1.53h1.48c0-.54,0-1,0-1.49s-.19-1,.16-1.4l1.1-.11c0-1.29,0-2.54,0-3.79,0-.11.13-.23.19-.34.47-.08,1,.1,1.49-.18,0-2.13,0-4.29,0-6.46,0-.32.15-.7-.21-1h-4c-.12,0-.24.1-.38.16l-.07,1.43-1.19.18c0,.42-.14.77.1,1.11.31,0,.64.07,1,.13.06,0,.1.09.15.14,0,.47.15,1-.12,1.4-.35.24-.86-.16-1.11.32-.14.31.15.7-.17,1H79.57c0-.52,0-1,0-1.48s.21-1-.18-1.4l-1.08,0c0-.57,0-1.05,0-1.53s.24-1-.2-1.38c-.47.06-1-.16-1.49.2v5.59l-1.2.19c-.11,1,0,1.88-.1,2.78-.55.25-1.17-.19-1.63.29,0,.76,0,1.53,0,2.3a1.34,1.34,0,0,1-.14.36l-1.12.2c0,.53,0,1,0,1.37s.18,1-.14,1.4H69.55l-.19-1.21a5.37,5.37,0,0,1-.71,0c-.26,0-.55.12-.86-.19Zm-21.9-.12c0-1.9,0-3.65,0-5.4a1.29,1.29,0,0,0-.15-.39H44.25c-.17.54.15,1.14-.25,1.68H41.35l-.19,1.2-1,.06c-.36.57.14,1.21-.35,1.65-.47.06-1-.14-1.41.14-.23.35.16.85-.31,1.11-.31.13-.7-.16-1,.19L37,69.31c-.54.39-1.17-.12-1.62.34l-.06,1-1.23.23c0,.5,0,.92,0,1.34s.15,1-.17,1.49H32.6c-.41.54,0,1.17-.35,1.63l-1,.11a1.06,1.06,0,0,0,.07,1.17l.93.06c.36.57-.14,1.2.35,1.65H52.78c.06,0,.11-.07.26-.18,0-.34,0-.74,0-1.15,0-.12-.12-.23-.18-.34-.33-.09-.7.13-1-.18,0-.16,0-.37,0-.56a3.47,3.47,0,0,0-.13-.43c-.55-.25-1.06.09-1.53-.28l-.06-1.42-1.18-.18c-.11-1,0-1.87-.09-2.71-.54-.37-1.18.13-1.64-.35,0-.41,0-.83,0-1.25A3,3,0,0,0,47,67.83Z"/><path d="M185.59,13.47l.12,1.13a3.14,3.14,0,0,0,1.45.13c.42,0,.83,0,1.28,0a2.49,2.49,0,0,1,.07,1.64h-4c-.4-.46.07-1.09-.35-1.63h-5.49c-.39-.37-.09-.75-.34-1.18.07.06,0,0,0,0L171,13.44c0-.53-.05-1-.07-1.47-.12-.06-.23-.17-.35-.17-1.19,0-2.39,0-3.58,0-.05,0-.11-.07-.19-.13l-.11-1c-.13,0-.25-.15-.36-.15H161c-.52-.43,0-1.07-.29-1.55-.06,0-.1-.12-.16-.12a3,3,0,0,0-.42,0h-6.81l-.2-1.14a.8.8,0,0,0-.18-.12.74.74,0,0,0-.21,0H140.55a1.29,1.29,0,0,1-.19,0c-.43-.46.06-1.09-.33-1.6H121c-.32.45-.1.95-.16,1.42,0,0-.09.11-.14.15a.42.42,0,0,1-.19.06H103.34c-.34.37-.12.74-.22,1.07,0,0-.09.14-.14.14l-8.4.05c-.06,0-.11.07-.24.14,0,.43,0,.9-.08,1.37-.11.06-.23.17-.35.17H88c-.26,0-.55-.1-.81.12l-.12,1a1,1,0,0,1-.37.15H81.46c-.49.44,0,1.07-.25,1.52a1,1,0,0,1-.21.16.67.67,0,0,1-.2,0H75.46l-.2,1.24H68c-.47.53,0,1.16-.42,1.7H62.1c-.39.37-.09.75-.34,1.18.07-.06,0,0,0,0l-4,.1c0,.52,0,1-.08,1.47-.11.06-.23.17-.34.17H52.67c-.27,0-.56-.11-.82.13l-.12,1c-.12.05-.24.15-.36.15H46.11c-.53.43,0,1.07-.3,1.55-.05,0-.1.12-.16.13s-.28,0-.42,0H40.11l-.2,1.14c-.07.05-.13.12-.18.12H37.25c-.45.5,0,1.13-.39,1.68H34.33c-.13.13-.22.17-.22.22,0,.28,0,.56,0,.84-.05.05-.1.14-.15.15l-2.75.11V28c-.19.1-.3.22-.42.22H28.47c-.06,0-.11.07-.2.13l-.11,1c-.12.05-.24.15-.36.15-.77,0-1.54,0-2.32,0-.53.43,0,1.07-.3,1.56-.44.25-.94.06-1.49.15l-.21,1.18-1,.09c-.35.43-.1.94-.17,1.41-.42.53-1,0-1.61.34,0,.15-.05.34-.07.53s0,.28,0,.5l-1.22.23v1.36c-.18.1-.3.22-.41.22H16.5l-.13,1.11c-.44.31-.94.08-1.41.15-.54.43,0,1.07-.3,1.55-.3.28-.67,0-1.08.17l-.2,1.18L12,41.29c-.43.46.06,1.09-.32,1.59l-1,.11c-.3.3-.08.68-.16,1-.44.49-1.07,0-1.63.34v1.44L7.65,46l-.12,1c-.44.32-.94.08-1.41.15-.07.1-.21.21-.22.32,0,.83,0,1.66,0,2.42-.37.35-.74.13-1.06.22s-.19.49-.2.76,0,.53,0,.86L3,51.82,2.86,53l-1,.11c-.34.46,0,1-.26,1.54-.38.39-.94-.08-1.37.12-.13-.16-.2-.21-.2-.27C0,52.66,0,50.84,0,49c.48-.45,1.09,0,1.66-.28V46.13c.36-.39.73-.17,1.06-.24.07-.11.21-.21.22-.32,0-.83,0-1.66,0-2.45.52-.31,1-.12,1.48-.19.07-.11.19-.22.19-.34,0-.83,0-1.66,0-2.54L5.72,40c.28-.21.14-.51.17-.77s-.1-.56.18-.85l1.33-.06c.33-.32.1-.69.2-1.1L8.72,37c.24-.45,0-.94.14-1.42.46-.43,1.07,0,1.59-.24l.12-1c.29-.31.66-.09,1-.16.55-.43,0-1.07.3-1.55.45-.27.94-.07,1.49-.16l.22-1.19,1-.08c.39-.46,0-1.07.23-1.64h2.66c.37-.36.15-.73.24-1.14.88-.37,1.88.05,2.8-.21.25-.46.06-.95.15-1.42.11-.06.23-.18.34-.18.77,0,1.54,0,2.32,0,.05,0,.11-.07.2-.13l.11-1c.43-.33.94-.1,1.4-.16s1,.13,1.5-.16V23.75c.52-.31,1-.14,1.49-.17s.84,0,1.33,0l.23-1.21c.88-.12,1.78,0,2.68-.08.39-.46,0-1.07.23-1.63h2.65c.38-.37.16-.74.23-1.07.11-.07.22-.2.33-.21,1.39,0,2.78,0,4.12,0,.34-.53.07-1,.24-1.52.07,0,.19-.16.3-.16h5.47l.11-1.09c0-.05.09-.12.15-.15a.65.65,0,0,1,.2,0h5.26c.05,0,.1-.08.23-.18V15c.13-.14.17-.23.23-.24a2.91,2.91,0,0,1,.42,0h6.39L59,13.6a.59.59,0,0,1,.17-.12.72.72,0,0,1,.21,0h6.91c.45-.48,0-1.09.28-1.66h6.84c.39-.36.17-.73.24-1.05.11-.08.21-.23.31-.23h7.09c.31-.51.12-1,.19-1.48.11-.06.22-.19.34-.19h5.49c0-.42.06-.75.08-1.08a.75.75,0,0,1,.16-.15.4.4,0,0,1,.19,0H94c.06,0,.11-.07.22-.15,0-.43,0-.9.07-1.36.14-.06.26-.16.38-.16h4.06c0-.16.12-.34.16-.53s0-.4,0-.57.14-.15.2-.15a2.91,2.91,0,0,1,.42,0h6.29c.47-.47.05-1.09.3-1.68.62,0,1.24,0,1.86,0h5.53l.19-1.25h6.87c.34-.52.13-1,.19-1.49.11-.07.22-.2.34-.2h20.13c.28.53.09,1,.18,1.49.11.07.23.19.34.19,1.81,0,3.62,0,5.46,0l.12,1.11c.43.33.93.12,1.4.15s1.12,0,1.68,0a2.93,2.93,0,0,1,1.5.16V4.42c.12.12.17.2.22.2a3,3,0,0,0,.42,0h3.45l.21,1.14a.88.88,0,0,0,.17.12.74.74,0,0,0,.21,0h4c.45.49.06,1.1.27,1.67h3.91c.38.36.16.73.23,1.06.11.07.22.21.32.21,1.4,0,2.79,0,4.13,0,.35.52.06,1,.24,1.51.07,0,.19.17.3.17h5.48l.1,1.1c.43.35.93.12,1.4.16s.84,0,1.26,0a3.29,3.29,0,0,1,1.5.15v1.31c.12.12.16.21.22.21a2,2,0,0,0,.42,0ZM14.73,35.36H12.21a1.51,1.51,0,0,0-.42.16c0,.39,0,.8,0,1.21,0,.11-.15.21-.23.31-.33.07-.7-.15-1,.15v1c.11.07.16.13.22.13.77,0,1.54,0,2.31,0,.11,0,.23-.12.34-.18l.05-1,1.23-.24V35.36a6.38,6.38,0,0,0,1.58-.07,1.12,1.12,0,0,0-.13-1.23c-.43.23-1-.26-1.45.27ZM134.29,2.89c.42-.07.85.33,1.27-.17-.08-.32.14-.68-.15-1-.38,0-.8-.26-1.12.16Z"/><path d="M13.47,87.07l1.12.12a1.37,1.37,0,0,1,.14.38c0,1.19,0,2.38,0,3.57.45.5,1.08,0,1.56.3,0,0,.12.1.12.16,0,.83,0,1.67,0,2.53a2.45,2.45,0,0,1-1.63.09l-.1-1.1-1.2-.18V90.3c-.51-.4-1-.07-1.54-.3,0,0-.15-.13-.15-.23,0-2.37,0-4.75,0-7.08-.52-.32-1-.14-1.48-.17s-.84,0-1.34,0l-.23-1.23-1,0c-.06-.12-.17-.23-.17-.35,0-2.36,0-4.73,0-7.15l1.09-.09c.36-.43.11-.93.17-1.4s-.11-1,.13-1.47h2.66c.32.44.12.94.15,1.41s0,1.12,0,1.68A3,3,0,0,0,12,75.35h1.38A3.79,3.79,0,0,1,13.46,77c0,.56,0,1.12,0,1.68v8.35Z"/><path d="M93,36.93l.14,1.23c.08.07.13.14.18.14h15.54c.5.45,0,1.08.3,1.56,0,0,.1.11.16.12h7.22c.07.39.13.78.2,1.16a3.7,3.7,0,0,0,1.44.1c.41,0,.83,0,1.28,0a2.7,2.7,0,0,1,0,1.64h-5.64c-.36-.45,0-1-.26-1.49,0,0-.12-.14-.22-.14-2.79,0-5.59,0-8.32,0-.38-.36-.08-.74-.33-1.18.07.07,0,0,0,0L87.31,40c-.35-.47,0-1-.28-1.56-.33-.38-1,.12-1.45-.18-.23-.31-.08-.65-.1-1,.12-.06.23-.17.34-.18H90l.11,1.09c.28.32.66.1,1,.17.48-.27.09-.78.31-1.12C91.86,36.86,92.37,37.19,93,36.93Z"/><path d="M69.5,44.2V41.42c.09-.08.14-.16.19-.16h9.66c.52.43,0,1.06.3,1.56.44.25.93.09,1.4.11s.84,0,1.25,0c.37.35.22.75.12,1.14,0,0-.11.12-.16.12Z"/><path d="M48.83,45.89V47c-.91.3-1.89,0-2.89.18v1.39c-.19.1-.3.21-.42.22-.83,0-1.66,0-2.5,0l-.13,1.11c-.43.33-.93.12-1.4.15s-1,0-1.49,0v1.5c-.52.32-1,.12-1.57.2l-.2,1.12c-.07,0-.12.12-.18.12H34.31c-.41-.39-.06-.79-.28-1.17l1.18-.14c.31-.44.09-.94.15-1.41.11-.08.22-.21.33-.21.83,0,1.66,0,2.42,0,.34-.38.12-.75.22-1.08.41-.39.92-.14,1.39-.18s1,0,1.49,0c0-.57,0-1,.08-1.51.44-.35.94-.11,1.41-.17s1,.12,1.44-.13l.11-1a1.15,1.15,0,0,1,.38-.15Z"/><path d="M106.05,42.94v2.78c-.09.07-.14.16-.19.16H97.47c-.53-.43,0-1.07-.3-1.55,0,0-.09-.12-.15-.13a3,3,0,0,0-.42,0H93.25a1.53,1.53,0,0,1-.13-1.13s.11-.12.16-.12Z"/><path d="M48.83,45.89c0-.49,0-1,0-1.45,0,0,.08-.1.16-.2h2.65a2.52,2.52,0,0,1,.06,1.51c-.08.06-.13.13-.19.13Z"/><path d="M87.11,43.11v.94a1.62,1.62,0,0,1-.39.15h-2.3s-.1-.09-.19-.17v-.94a1.23,1.23,0,0,1,.39-.14c.77,0,1.53,0,2.3,0C87,43,87,43,87.11,43.11Z"/><path d="M79.6,69.46V66.67c.48-.29,1-.12,1.44-.15s.84,0,1.26,0c.44.4.16.92.2,1.37a13.32,13.32,0,0,1,0,1.41c-.51.31-1,.14-1.47.17S80.2,69.46,79.6,69.46Z"/><path d="M78.3,70.76h1.1c.08.09.16.14.16.19,0,.84,0,1.67,0,2.51-.34.38-.74.2-1.13.14,0-.06-.13-.11-.13-.16C78.3,72.61,78.3,71.77,78.3,70.76Z"/></g></g></svg>