<svg xmlns="http://www.w3.org/2000/svg" viewBox="0 0 140.34 142"><title>Recurso 106MANDALA</title><g id="Capa_2" data-name="Capa 2"><g id="Capa_1-2" data-name="Capa 1"><path d="M70.17,80.36h0a13,13,0,0,1,2.58-17A48.08,48.08,0,0,0,88.68,38.94L131,34.27S73.34,38.88,70.17,80.36Z"/><circle cx="85.77" cy="60.15" r="2.83"/><path d="M73.37,79.8h0A13,13,0,0,1,70,63,47.86,47.86,0,0,0,76.6,34.55L114.72,15.7S62.16,39.74,73.37,79.8Z"/><circle cx="81.12" cy="55.47" r="2.83"/><path d="M76.19,78.17h0a13,13,0,0,1-8.93-14.64,47.9,47.9,0,0,0-3.52-29L93.12,3.8S52,44.36,76.19,78.17Z"/><circle cx="75.15" cy="52.66" r="2.83"/><path d="M76.19,78.17h0a13,13,0,0,1-8.93-14.64,47.9,47.9,0,0,0-3.52-29L93.12,3.8S52,44.36,76.19,78.17Z"/><circle cx="75.15" cy="52.66" r="2.83"/><path d="M78.28,75.68h0A13,13,0,0,1,64.88,65a47.94,47.94,0,0,0-13.22-26L68.75,0S43.94,52.2,78.28,75.68Z"/><circle cx="68.57" cy="52.06" r="2.83"/><path d="M78.28,75.68h0A13,13,0,0,1,64.88,65a47.94,47.94,0,0,0-13.22-26L68.75,0S43.94,52.2,78.28,75.68Z"/><circle cx="68.57" cy="52.06" r="2.83"/><path d="M79.39,72.63h0a13,13,0,0,1-16.25-5.49A48,48,0,0,0,41.81,47.21L44.55,4.77S39.09,62.3,79.39,72.63Z"/><circle cx="62.19" cy="53.75" r="2.83"/><path d="M79.39,72.63h0a13,13,0,0,1-16.25-5.49A48,48,0,0,0,41.81,47.21L44.55,4.77S39.09,62.3,79.39,72.63Z"/><circle cx="62.19" cy="53.75" r="2.83"/><path d="M79.39,69.38h0a13,13,0,0,1-17.15.4A47.93,47.93,0,0,0,35.38,58.34L23.44,17.52S38,73.46,79.39,69.38Z"/><circle cx="56.77" cy="57.52" r="2.83"/><path d="M78.28,66.32h0a13,13,0,0,1-16,6.24A48.06,48.06,0,0,0,33.15,71L8,36.73S40.77,84.32,78.28,66.32Z"/><circle cx="52.97" cy="62.91" r="2.83"/><path d="M76.19,63.83h0A13,13,0,0,1,63.31,75.16a48,48,0,0,0-27.93,8.5L0,60.07S47.1,93.57,76.19,63.83Z"/><circle cx="51.24" cy="69.28" r="2.83"/><path d="M73.37,62.2h0a13,13,0,0,1-8.22,15A48,48,0,0,0,41.81,94.79L.49,84.73S56.21,100.1,73.37,62.2Z"/><circle cx="51.8" cy="75.86" r="2.83"/><path d="M70.17,61.64h0a13,13,0,0,1-2.58,17,48,48,0,0,0-15.93,24.47L9.39,107.73S67,103.12,70.17,61.64Z"/><circle cx="54.57" cy="81.85" r="2.83"/><path d="M67,62.2h0A13,13,0,0,1,70.34,79a47.94,47.94,0,0,0-6.6,28.43L25.62,126.3S78.18,102.27,67,62.2Z"/><circle cx="59.22" cy="86.53" r="2.83"/><path d="M64.15,63.83h0a13,13,0,0,1,8.92,14.64,48,48,0,0,0,3.53,29L47.22,138.2S88.39,97.64,64.15,63.83Z"/><circle cx="65.19" cy="89.34" r="2.83"/><path d="M62.06,66.32h0A13,13,0,0,1,75.45,77a48,48,0,0,0,13.23,26L71.58,142S96.4,89.8,62.06,66.32Z"/><circle cx="71.76" cy="89.94" r="2.83"/><path d="M61,69.38h0A13,13,0,0,1,77.2,74.86,47.92,47.92,0,0,0,98.52,94.79l-2.74,42.45S101.25,79.7,61,69.38Z"/><circle cx="78.14" cy="88.25" r="2.83"/><path d="M61,72.63h0a13,13,0,0,1,17.14-.41A48,48,0,0,0,105,83.66l11.94,40.82S102.35,68.54,61,72.63Z"/><circle cx="83.56" cy="84.48" r="2.83"/><path d="M62.06,75.68h0a13,13,0,0,1,16-6.24A47.91,47.91,0,0,0,107.18,71l25.19,34.27S99.57,57.69,62.06,75.68Z"/><circle cx="87.37" cy="79.09" r="2.83"/><path d="M64.15,78.17h0A13,13,0,0,1,77,66.84,48,48,0,0,0,105,58.34l35.39,23.59S93.24,48.43,64.15,78.17Z"/><circle cx="89.1" cy="72.72" r="2.83"/><path d="M67,79.8h0a13,13,0,0,1,8.22-15A47.92,47.92,0,0,0,98.52,47.21l41.32,10.07S84.13,41.9,67,79.8Z"/><circle cx="88.54" cy="66.14" r="2.83"/></g></g></svg>