<svg xmlns="http://www.w3.org/2000/svg" viewBox="0 0 83.16 83.16"><title>Recurso 34MANDALA</title><g id="Capa_2" data-name="Capa 2"><g id="Capa_1-2" data-name="Capa 1"><path d="M42.87,33.13l13-31.36A1.27,1.27,0,0,0,53.71.45L42.65,13.14a1.28,1.28,0,0,1-1.92,0L29.66.45a1.27,1.27,0,0,0-2.14,1.32l13,31.36A1.28,1.28,0,0,0,42.87,33.13Z"/><path d="M36.52,34.69l-13-31.35a1.28,1.28,0,0,0-2.46.57l1.15,16.8a1.27,1.27,0,0,1-1.36,1.36L4.07,20.92a1.28,1.28,0,0,0-.58,2.45l31.36,13A1.28,1.28,0,0,0,36.52,34.69Z"/><path d="M33.13,40.29,1.77,27.3A1.27,1.27,0,0,0,.45,29.44L13.14,40.51a1.28,1.28,0,0,1,0,1.92L.45,53.5a1.27,1.27,0,0,0,1.32,2.14l31.36-13A1.28,1.28,0,0,0,33.13,40.29Z"/><path d="M34.69,46.64l-31.35,13a1.27,1.27,0,0,0,.57,2.45l16.8-1.15a1.28,1.28,0,0,1,1.36,1.37L20.92,79.09a1.28,1.28,0,0,0,2.45.58l13-31.36A1.28,1.28,0,0,0,34.69,46.64Z"/><path d="M40.29,50l-13,31.35a1.28,1.28,0,0,0,2.14,1.33L40.51,70a1.28,1.28,0,0,1,1.92,0L53.5,82.71a1.28,1.28,0,0,0,2.14-1.33L42.65,50A1.28,1.28,0,0,0,40.29,50Z"/><path d="M46.64,48.46l13,31.36a1.27,1.27,0,0,0,2.45-.58L60.93,62.45a1.28,1.28,0,0,1,1.37-1.36l16.79,1.15a1.28,1.28,0,0,0,.58-2.46l-31.36-13A1.27,1.27,0,0,0,46.64,48.46Z"/><path d="M50,42.87l31.35,13a1.28,1.28,0,0,0,1.33-2.14L70,42.65a1.28,1.28,0,0,1,0-1.92L82.71,29.66a1.28,1.28,0,0,0-1.33-2.14L50,40.51A1.28,1.28,0,0,0,50,42.87Z"/><path d="M48.46,36.52l31.36-13a1.28,1.28,0,0,0-.58-2.46L62.45,22.22a1.27,1.27,0,0,1-1.36-1.36L62.24,4.07a1.28,1.28,0,0,0-2.46-.58l-13,31.36A1.27,1.27,0,0,0,48.46,36.52Z"/></g></g></svg>