<svg xmlns="http://www.w3.org/2000/svg" viewBox="0 0 112.77 139.69"><title>Recurso 16ART</title><g id="Capa_2" data-name="Capa 2"><g id="Capa_1-2" data-name="Capa 1"><path d="M96.7,96.72H91.56c-.37.28-.22.68-.22,1,0,1.41,0,2.81,0,4.15-.15.11-.2.19-.26.2H86.18c-.07-.08-.14-.12-.18-.18a.49.49,0,0,1,0-.21Q86,94,86,86.26c0-.06-.07-.12-.14-.23h-5c-.05,0-.12.09-.15.15a.53.53,0,0,0,0,.22v26a.81.81,0,0,1,0,.22,1.31,1.31,0,0,1-.19.25h-4.9c-.16.14-.26.18-.27.24a3.23,3.23,0,0,0,0,.44V118a.81.81,0,0,0,.16.16.36.36,0,0,0,.2.06h4.81a1.62,1.62,0,0,1,.19.26.87.87,0,0,1,0,.23v10.07c.56.36,1.17.13,1.74.17s1.19,0,1.78,0a5.51,5.51,0,0,1,1.8.1v5.12c-.55.32-1.15.09-1.73.13s-1.19,0-1.78,0a4.52,4.52,0,0,0-1.81.14v5c-.14.12-.19.21-.25.21H21.72a62.06,62.06,0,0,1-.13-10.61c.06,0,.11-.12.17-.12h10.3c.36.56.13,1.17.17,1.74s0,1.19,0,1.79a5.46,5.46,0,0,0,.1,1.79h5.12c.32-.55.09-1.15.13-1.72s0-1.2,0-1.79a4.53,4.53,0,0,1,.14-1.81h5c.12-.13.21-.19.21-.24v-4.94c-.54-.37-1.14-.14-1.71-.18s-1.2,0-1.79,0H37.8c-.11-.16-.17-.22-.18-.28a.81.81,0,0,1,0-.22v-9.85a.78.78,0,0,0,0-.21s-.09-.12-.16-.15a.49.49,0,0,0-.21,0H21.76c-.05,0-.11-.08-.25-.18V97c-.13-.13-.17-.2-.23-.23a.55.55,0,0,0-.22,0h-4.7c-.38-.27-.23-.67-.23-1q0-9.28,0-18.57V75.44c-.13-.11-.18-.19-.24-.2a3.38,3.38,0,0,0-.45,0H11a1,1,0,0,1-.18-.18.42.42,0,0,1-.05-.2V64.78c0-.06-.07-.12-.13-.21a6.14,6.14,0,0,0-1.72-.08c-.52,0-1,0-1.56,0H5.6c-.09-.1-.16-.14-.19-.2a.51.51,0,0,1,0-.22q0-5,0-10.07s-.08-.11-.18-.24H.24A1.44,1.44,0,0,1,0,53.52a.81.81,0,0,1,0-.22V43.23C.28,42.86.68,43,1,43c1.41,0,2.81,0,4.32,0,.07-1.78,0-3.48.05-5.21.54-.34,1.14-.11,1.71-.15s1.19,0,1.79,0h1.82V32.51a1.44,1.44,0,0,1,.24-.23.49.49,0,0,1,.21,0H21a.81.81,0,0,0,.22,0c.07,0,.12-.09.25-.2V27.11c.13-.13.18-.21.24-.22a3.38,3.38,0,0,1,.45,0h36.7c0,.06.11.1.15.16a.37.37,0,0,1,.07.2v4.81c.15.12.2.18.26.2a.88.88,0,0,0,.23,0H75c.36.56.13,1.17.18,1.74s0,1.19,0,1.79V37.6H80.4c.36.62.14,1.22.18,1.8s0,1.19,0,1.79v3.58c0,.59,0,1.19,0,1.79a4.53,4.53,0,0,0,.13,1.81H91.11c.12.13.21.18.21.24a2.16,2.16,0,0,1,0,.44V64.26a.83.83,0,0,0,.17.16.33.33,0,0,0,.19.06h4.82c.11.15.17.2.19.27a.81.81,0,0,1,0,.22v4.71c.57.35,1.18.11,1.75.16s1.19,0,1.79,0A5.13,5.13,0,0,1,102,70v5.09c-.06.06-.1.13-.16.16a.81.81,0,0,1-.22,0h-4.7c-.38.27-.23.67-.23,1,0,1.41,0,2.82,0,4.15.14.12.19.2.25.21a3.38,3.38,0,0,0,.45,0h4.48c.37.55.14,1.15.19,1.72s0,1.2,0,1.79v1.74a5.73,5.73,0,0,0,1.86.12c.52,0,1,0,1.56,0h1.78c.36.59.12,1.19.17,1.76a15.27,15.27,0,0,1,0,1.79,4.7,4.7,0,0,1-.13,1.81H97c-.14.14-.23.18-.24.24a3.38,3.38,0,0,0,0,.45ZM59.1,48.37H43.66a3.2,3.2,0,0,0-.44,0c-.06,0-.11.09-.2.17s0,.4,0,.61V63.7c0,.28-.07.59.24.79h4.69a.53.53,0,0,1,.22,0c.07,0,.11.1.24.22v5a4.9,4.9,0,0,0,1.81.12c.59,0,1.19,0,1.79,0s1.17-.19,1.79.18v5.06a5.41,5.41,0,0,0,1.82.11c.59,0,1.19,0,1.78,0s1.18-.19,1.74.17v4.7a.81.81,0,0,0,0,.22c0,.07.08.12.2.27h4.8a.36.36,0,0,0,.2-.06.83.83,0,0,0,.17-.16V76.15c0-.23,0-.45,0-.68,0,0,.09-.1.21-.24,1.33,0,2.73,0,4.14,0,.35,0,.75.16,1-.22V70.3a.79.79,0,0,1,0-.22,1.44,1.44,0,0,1,.23-.24h5A4.9,4.9,0,0,0,75.21,68a15.1,15.1,0,0,0,0-1.78c0-.58.19-1.18-.19-1.8H70a5.62,5.62,0,0,1-.11-1.81c0-.6,0-1.2,0-1.79s.19-1.18-.17-1.74H65a.81.81,0,0,1-.22,0,1.54,1.54,0,0,1-.27-.19V57.24c0-.6,0-1.2,0-1.79s.19-1.17-.19-1.71H59.34c-.06,0-.11-.09-.24-.21Z"/><path d="M75.22,10.73H59.28c-.08-.09-.17-.15-.17-.2,0-.3,0-.6,0-.9v-4c-.29-.37-.69-.22-1-.22H21.73c-.13-.12-.22-.16-.23-.22a3.38,3.38,0,0,1,0-.45V.25c.27-.37.67-.22,1-.22H64.3c.35.6.12,1.2.16,1.77s0,1.2,0,1.79a4.51,4.51,0,0,0,.13,1.81H75c.14.13.23.17.24.23a3.38,3.38,0,0,1,0,.45Z"/><path d="M5.42,10.77V5.58c.09-.09.15-.18.2-.18h4.91c.05.06.11.1.15.16a.37.37,0,0,1,.07.2v4.8c-.13.12-.19.21-.24.21Z"/><path d="M80.71,10.81h5.12A4.33,4.33,0,0,1,86,12.56a13.22,13.22,0,0,1,0,1.78,4.4,4.4,0,0,1-.12,1.76H80.72a4,4,0,0,1-.12-1.75,13.22,13.22,0,0,1,0-1.78A4.38,4.38,0,0,1,80.71,10.81Z"/><path d="M107.45,26.88h-5.11c-.06,0-.11-.08-.22-.16v-5a.67.67,0,0,1,.15-.14.45.45,0,0,1,.2,0h4.78c.11.15.19.21.19.27C107.45,23.48,107.45,25.18,107.45,26.88Z"/><path d="M107.45,26.88h5.1c.06,0,.12.08.22.16v5a.92.92,0,0,1-.14.14.49.49,0,0,1-.21,0h-4.77c-.12-.15-.2-.2-.2-.26Z"/><path d="M96.7,96.72h5.11c.06,0,.11.08.22.16v5a.67.67,0,0,1-.15.14.45.45,0,0,1-.2,0H96.9c-.11-.15-.19-.21-.19-.26C96.7,100.12,96.7,98.42,96.7,96.72Z"/><path d="M91.37,21.51V16.32c.09-.08.15-.17.2-.17h4.91a1.14,1.14,0,0,1,.15.16.34.34,0,0,1,.07.19v4.8c-.13.12-.18.21-.24.21Z"/></g></g></svg>