<svg xmlns="http://www.w3.org/2000/svg" viewBox="0 0 89.14 124.77"><title>Recurso 31ART</title><g id="Capa_2" data-name="Capa 2"><g id="Capa_1-2" data-name="Capa 1"><path d="M12.73,22.91q0,15.24,0,30.48s0,0,0,.07h2.44s0,0,0-.06a.57.57,0,0,0,0-.13V25.53l.07-.08h2.41s.06-.05.07-.07v-7.5l.05-.05.06,0h2.34l.06,0a.09.09,0,0,0,0-.05s0,0,0-.07V12.79l.06-.06h2.41s0,0,.07-.05V10.23c.19-.11.37,0,.54-.06h1.48a1.26,1.26,0,0,0,.54,0V7.69s.05-.06.07-.06H28L28,7.57s0,0,0-.06c0-1.63,0-3.26,0-4.89,0,0,0,0,0-.05l.05,0H33a.17.17,0,0,0,.06-.06s0,0,0-.06V.07s0,0,0-.07H56c.1.16,0,.34,0,.51S56,.82,56,1v.54c0,.15,0,.31,0,.46a1.48,1.48,0,0,0,0,.55h5s.06.05.07.07,0,0,0,.07V5c.09.11.21.07.31.07h2.18l.06.08s0,0,0,.06V7.56l.06.05h2.4s0,0,.08,0v2.44c.18.12.36.05.54.06h2v5s.06.07.07.07h2.48v5s0,0,.06.06H73.8s.06-.05.06-.06v-5h2.47s0,0,.08.06q0,3.76,0,7.58H74.06a.57.57,0,0,0-.13,0s0,0-.07.07V53.35a.13.13,0,0,0,0,.06s0,0,.06.06h2.39s0,0,.07,0q0-15.24,0-30.51h2.49c.12.15.06.34.06.5v30l.08.06h10s.05,0,.06.05a.13.13,0,0,1,0,.06v68.6s-.06,0-.08,0H86.71l-.06,0a.1.1,0,0,0-.05,0,.17.17,0,0,0,0,.07v2.34s0,0,0,.07H76.46l0-.06s0,0,0-.06V122.3c-.11-.13-.25-.06-.38-.06H63.73l-.06-.07v-2.41s0,0-.05,0H58.73a.51.51,0,0,0-.14,0v2.43l-.07.07h-5s0,0-.07-.06v-2.42s-.06-.06-.08-.06h-7.5l0,0a.14.14,0,0,0,0,.06v2.34s0,0,0,.06a.09.09,0,0,1-.05,0H40.82s0,0-.06,0a.17.17,0,0,1,0-.07v-2.34s0,0,0-.07h-5l-.05,0s0,0,0,.07v2.36a.64.64,0,0,1-.17,0H30.73l-.13,0,0,0v-2.41s0,0,0,0H15.37a.07.07,0,0,1,0,0,.1.1,0,0,1,0-.05V56.13s0,0,0-.06l0,0H7.72s0,0-.07,0V71.24s0,.05.06.05h2.41c.11.08.07.2.07.3v7.28l.07.06h2.41l.05,0a.13.13,0,0,1,0,.06v43.13s-.06,0-.08,0H10.3l-.06,0,0,0a.17.17,0,0,0,0,.07v2.34s0,0,0,.07H2.6s-.05,0-.05-.06a.57.57,0,0,1,0-.13V122.3c-.09-.11-.21-.06-.31-.06H.06s-.06-.06-.06-.07V56.08l.05,0H2.46s0,0,.09,0V53.54l.06-.06h7.5s0,0,.07-.06V23s.06-.07.07-.07a.66.66,0,0,1,.14,0Zm50.94-7.64v2.46s0,0,0,.05a15,15,0,0,0,2.49,0V15.32s0-.05-.06-.05H63.67V12.8a.07.07,0,0,0,0-.05,13.79,13.79,0,0,0-2.49,0v2.44l.06,0ZM25.47,22.9V48.24s0,0,0,.07l-.08.07H23a16.27,16.27,0,0,0,0,2.54h2.44s0,.07,0,.09v2.35a.13.13,0,0,0,0,.06l.06,0h40.6s0,0,.08-.06v-20c0-.1,0-.22-.07-.31H63.74s0,0-.07-.07V20.42l-.07-.06H61.19l-.07-.06V19.11c0-.23,0-.45,0-.67s0-.4,0-.57-.06-.06-.08-.06H58.63s0,0-.05-.05V15.34l-.06-.07H56.34c-.11,0-.23.05-.31-.06V12.85s0,0,0-.07L56,12.71H51s-.05-.05-.05-.07V10.29a.13.13,0,0,0,0-.06s0,0,0-.05c-2.51,0-9.36,0-10.1,0l0,0v2.35a.14.14,0,0,1,0,.06s0,0,0,.05h-7.5s0,0-.07.06V15.2s-.06.06-.08.06h-2.4l-.08.07v2.42s-.05,0-.07,0H28.13l-.06,0-.05.05v4.88a.17.17,0,0,1,0,.07s0,0-.05.07ZM71.26,53.46s0-.05,0-.07V33.3a.66.66,0,0,0,0-.14l-.06,0H68.82s0,0,0,.06V53.33s0,.05,0,.07l.06.06ZM22.87,35.63l.05-.06V23.11a.66.66,0,0,0,0-.14l-.06,0H20.43s-.05,0-.05.06q0,6.22,0,12.46a.57.57,0,0,0,0,.13s0,0,.05.06ZM66.22,20.37v10.1s0,0,.06.08h2.38l.06,0,0-.05q0-5,0-10l-.05-.06Z"/><path d="M12.73,22.91c0-1.67,0-3.34,0-5,0,0,0,0,0-.07h2.45l0,0a.13.13,0,0,1,0,.06v4.81s0,.08,0,.13l0,0Z"/><path d="M17.82,12.72v2.49s0,0-.06,0H15.35c-.11-.08-.07-.2-.07-.31V12.78s.05-.06.07-.06h2.47Z"/><path d="M71.31,15.27V12.79c.08-.11.2-.07.31-.07h2.17l.07.07v2.48Z"/></g></g></svg>