<svg xmlns="http://www.w3.org/2000/svg" viewBox="0 0 112.12 131.92"><title>Recurso 48ART</title><g id="Capa_2" data-name="Capa 2"><g id="Capa_1-2" data-name="Capa 1"><path d="M46.23,118.73v3.09c-.26.33-.62.2-.94.2-2.61,0-5.22,0-7.83,0h-.93c-.11.14-.19.19-.19.24v2.9c.51.32,1.07.09,1.59.16a6.71,6.71,0,0,1,1.66.1v3.07c-.5.29-1.06,0-1.59.13s-1.08-.13-1.66.13v3c-.12.11-.17.19-.22.19H33.25c-.06-.06-.12-.11-.16-.16a.45.45,0,0,1-.05-.19V122.3c0-.06-.06-.11-.13-.23-1-.14-2,0-3-.08-.05,0-.12-.09-.15-.15a.58.58,0,0,1,0-.19V109.08s-.08-.11-.17-.23h-3c-.29-.58-.09-1.13-.14-1.66s0-1,0-1.44c-.26-.34-.63-.21-.95-.21-3.64,0-7.28,0-10.92,0h-1.3c-.06-1.09,0-2.11,0-3.15-.49-.31-1.05-.08-1.58-.15a6.43,6.43,0,0,1-1.67-.11v-3c-.58-.34-1.13-.1-1.66-.18s-1.08.13-1.66-.13v-3A4.2,4.2,0,0,0,5,95.65c-.48,0-1,0-1.43,0a.73.73,0,0,1-.15-.16.37.37,0,0,1,0-.18V85.82c1.09-.16,2.11,0,3.15-.1.31-.49.09-1,.13-1.58s0-1.07,0-1.67H3.59c-.12-.12-.19-.16-.22-.22a.67.67,0,0,1,0-.2V66.18c-.26-.34-.62-.2-.94-.2C1.68,66,.94,66,.2,66,0,63.48-.06,52.66.09,39.75c.49-.32,1-.09,1.57-.15a7,7,0,0,0,1.68-.11V26.58c.57-.34,1.12-.1,1.65-.17s1.08.12,1.67-.13v-3a4.14,4.14,0,0,1,1.66-.13c.48,0,1,0,1.43,0A.73.73,0,0,0,9.9,23a.3.3,0,0,0,.06-.18V16.69a1.33,1.33,0,0,1,.25-.17.72.72,0,0,1,.21,0h6c.32-.52.1-1.08.15-1.6s0-1.07,0-1.68h3.13c.32-.57.11-1.13.15-1.65s0-1,0-1.45c.25-.34.62-.2.94-.21H23a4.23,4.23,0,0,0,.12-1.68c0-.47,0-1,0-1.41a1.19,1.19,0,0,1,.16-.16.45.45,0,0,1,.19,0h9.27c.06,0,.11-.07.26-.16,0-1,0-2,0-3,.53-.32,1.09-.13,1.61-.14a3.68,3.68,0,0,1,1.64.1V9.75c-.08.07-.12.15-.18.16a2.77,2.77,0,0,1-.41,0H30c-.34.26-.2.63-.2.95q0,5.46,0,10.92v1.28c-1.09.09-2.11,0-3.15.07-.31.49-.07,1.05-.14,1.57a6,6,0,0,1-.12,1.67h-3C23,27,23.2,27.51,23.16,28s0,1,0,1.44c.25.36.61.21.93.22.75,0,1.49,0,2.17,0,.11.13.18.18.19.23a2.84,2.84,0,0,1,0,.41v5.78c.5.34,1.06.13,1.58.17s1.07,0,1.54,0a1.67,1.67,0,0,1,.17.26.74.74,0,0,1,0,.21v.41q0,6,0,12a1.15,1.15,0,0,0,0,.22c.49.3,1.05.06,1.57.13s1.08-.12,1.67.13v2.93c.13.14.17.23.22.24a2.8,2.8,0,0,0,.41,0h9.09c.35.49.14,1,.17,1.57s0,1.07,0,1.7c1.09.08,2.11,0,3.16.06.3.49.09,1,.13,1.57s0,1.07,0,1.68h6.43a35.5,35.5,0,0,1,0,6.61h-3c-.11.13-.18.17-.19.23a2.8,2.8,0,0,0,0,.41v9.08c-.5.33-1.06.13-1.59.16s-1.07,0-1.54,0c-.1.16-.17.21-.17.26V79a1,1,0,0,0,.19.18.38.38,0,0,0,.19,0h9.27s.11.07.23.17v3a4,4,0,0,0,1.66.13c.48,0,1,0,1.44,0,.34.26.2.62.2.94,0,1.85,0,3.69,0,5.62,1.09.08,2.11,0,3.12.06,0,0,.11.09.14.14a.42.42,0,0,1,0,.19q0,6.2,0,12.37a2.5,2.5,0,0,1-.12.44h-3c-.33.57-.1,1.13-.17,1.65s.13,1.08-.13,1.67h-3a4.31,4.31,0,0,0-.12,1.66c0,.48,0,1,0,1.46-.5.34-1.06.13-1.58.17s-1.07,0-1.54,0c-.1.16-.15.21-.17.26a.74.74,0,0,0,0,.21v12.36a1.24,1.24,0,0,1,0,.23c-.49.3-1,.08-1.57.12s-1.07,0-1.67,0v-3.15a3.66,3.66,0,0,0-1.66-.13c-.55,0-1.1,0-1.65,0v-6.35c0-.06-.08-.11-.18-.25H40a.43.43,0,0,0-.19,0,.77.77,0,0,0-.13.12v6.29c.1.07.15.14.2.14Zm-29.55-33a4.52,4.52,0,0,1-.12-1.66c0-.55,0-1.1,0-1.64s0-1.1,0-1.64.15-1.08-.11-1.61H13.39a87.48,87.48,0,0,0,0,9.85c.73,0,1.48,0,2.22,0,.32,0,.68-.14.94.2,0,.48,0,1,0,1.44a4.18,4.18,0,0,0,.1,1.58c4,.17,5.3.14,6.49-.14,0-.48,0-1,0-1.44A3.93,3.93,0,0,0,23,89.05H19.85c0-.59,0-1.12,0-1.65a3.61,3.61,0,0,0-.13-1.65Z"/><path d="M62.72,59.37h3.17A4.52,4.52,0,0,0,66,57.71c0-.48,0-1,0-1.42a.81.81,0,0,1,.17-.16.37.37,0,0,1,.18-.05H78.71a2.92,2.92,0,0,1,.47.11c.07,1,0,2,0,3,0,0,.09.11.14.14a.43.43,0,0,0,.19,0h6c.06,0,.11.07.24.15v2.91c.12.12.16.18.22.21a.4.4,0,0,0,.19,0h6s.1.07.2.15V79c-.5.29-1.06.06-1.59.13a5.05,5.05,0,0,0-1.66.13v3a4,4,0,0,1-1.66.13c-.48,0-1,0-1.46,0-.35.48-.14,1-.17,1.56s0,1.08,0,1.55c-.14.1-.19.18-.24.18-2.06,0-4.11,0-6.19,0-.33-.5-.12-1.06-.16-1.58s0-1.07,0-1.54a1.67,1.67,0,0,0-.26-.17.74.74,0,0,0-.21,0H73c-.06,0-.13,0-.23,0-.3-.49-.06-1-.13-1.57a5.68,5.68,0,0,0-.12-1.67H66.18c-.33-.57-.09-1.13-.17-1.65s.14-1.08-.13-1.67h-3c-.11-.12-.2-.17-.2-.22Z"/><path d="M72.58,89.09H85.66a4.59,4.59,0,0,1,.11,1.64c0,.48,0,1,0,1.41a.89.89,0,0,0,.18.17.37.37,0,0,0,.18,0h9.28s.1.07.23.16v6.26c.57.34,1.13.13,1.66.16s1.07,0,1.63,0v3.14c-.09.07-.14.15-.19.15a2.84,2.84,0,0,1-.41,0H89.25c-.34.5-.13,1.06-.17,1.58s0,1.07,0,1.54c-.15.11-.2.17-.26.17H76.09a1,1,0,0,1-.18-.19.38.38,0,0,1,0-.19V95.89s-.08-.11-.18-.23H72.8c-.12-.12-.19-.16-.21-.22a.72.72,0,0,1,0-.21Z"/><path d="M75.88,115.43H72.81s-.1-.08-.19-.15V109a.93.93,0,0,1,.15-.13.38.38,0,0,1,.19,0h6c.11.14.18.19.18.25,0,1,0,1.9,0,2.87-.49.34-1.05.14-1.57.17s-1.07,0-1.53,0c-.11.13-.19.18-.19.23C75.88,113.38,75.88,114.41,75.88,115.43Z"/><path d="M95.67,16.51H102s.1.07.2.14V23c-.45.31-1,.1-1.53.14s-1.07,0-1.59,0A4.44,4.44,0,0,1,99,21.43c0-.47,0-.95,0-1.44-.49-.34-1-.13-1.56-.17s-1.07,0-1.54,0c-.11-.13-.19-.18-.19-.23C95.66,18.56,95.67,17.54,95.67,16.51Z"/><path d="M112.12,49.49v9.77a4.06,4.06,0,0,1-1.62.11c-.48,0-1,0-1.44,0a.66.66,0,0,1-.14-.15.39.39,0,0,1-.06-.18q0-4.71,0-9.43a4.14,4.14,0,0,1,1.66-.13C111,49.46,111.46,49.49,112.12,49.49Z"/><path d="M105.79,79.16h2.85c.35.25.21.61.21.93,0,1.84,0,3.68,0,5.53a3.85,3.85,0,0,1-1.64.13c-.48,0-1,0-1.44,0-.35-.24-.2-.61-.21-.93q0-2.46,0-4.92C105.56,79.64,105.47,79.34,105.79,79.16Z"/><path d="M69.31,122H62.83a4.25,4.25,0,0,1-.11-1.62c0-.48,0-1,0-1.44,1.21-.28,2.56-.31,6.49-.13.24.5.05,1,.09,1.58S69.31,121.34,69.31,122Z"/><path d="M72.58,3.32h6.34c.06,0,.11.07.21.14v3s-.07.1-.13.13a.38.38,0,0,1-.19,0h-6c-.11-.13-.19-.18-.19-.23C72.58,5.37,72.58,4.35,72.58,3.32Z"/><path d="M75.88,115.43h3.06s.1.08.2.15v3c-.48.29-1,.08-1.55.12s-1.06,0-1.52,0c-.11-.14-.18-.19-.18-.25C75.88,117.47,75.88,116.45,75.88,115.43Z"/><path d="M105.56,33h3.13c.08.08.16.13.16.18,0,1,0,1.91,0,2.89-.47.35-1,.14-1.55.18s-1.07,0-1.54,0c-.11-.13-.2-.18-.2-.23C105.55,35.12,105.56,34.16,105.56,33Z"/><path d="M92.37,13.22h3c.06,0,.11.06.16.1s.1.11.1.16c0,1,0,2,0,3h-3s-.11-.07-.16-.1-.1-.11-.1-.16Z"/><path d="M92.37,13.22H89.31s-.1-.07-.19-.15v-3c.47-.29,1-.08,1.54-.12s1.06,0,1.52,0c.11.14.18.19.18.24C92.37,11.18,92.37,12.2,92.37,13.22Z"/><path d="M82.51,9.92V6.74a4,4,0,0,1,1.61-.11c.48,0,1,0,1.44,0,.35.25.2.61.21.93,0,.74,0,1.49,0,2.23a3.87,3.87,0,0,1-1.64.13C83.65,10,83.17,9.92,82.51,9.92Z"/><path d="M69.31,3.32c-1,0-2,0-3,0-.06,0-.11-.07-.2-.15v-3c.47-.29,1-.08,1.54-.12s1.07,0,1.53,0c.1.14.18.19.18.24Z"/></g></g></svg>