<svg xmlns="http://www.w3.org/2000/svg" viewBox="0 0 112.56 172.36"><title>Recurso 49ART</title><g id="Capa_2" data-name="Capa 2"><g id="Capa_1-2" data-name="Capa 1"><path d="M70.35,109v3.3c-.27.36-.66.21-1,.21-2,0-3.93,0-5.89,0a4.82,4.82,0,0,0-.13,1.79c0,.51,0,1,0,1.55-.55.35-1.14.13-1.7.17s-1.15,0-1.79,0v3.33c-.61.36-1.2.11-1.76.18s-1.16-.13-1.78.14V123a4.56,4.56,0,0,1-1.78.14c-.51,0-1,0-1.53,0a.75.75,0,0,1-.15-.16.35.35,0,0,1-.06-.19c0-2.19,0-4.37,0-6.65-1.16-.08-2.25,0-3.36-.06-.33-.53-.1-1.12-.14-1.68s0-1.14,0-1.78H42.39c-.35-.62-.1-1.21-.18-1.77s.14-1.15-.12-1.74H31.84c-.08.09-.18.14-.18.2v6.6c.52.37,1.12.15,1.68.19s1.14,0,1.64,0c.11.15.17.2.19.27a.72.72,0,0,1,0,.21v9.9c.55.35,1.15.09,1.7.17a6.5,6.5,0,0,1,1.79.12V130c.61.35,1.2.13,1.77.17s1.17,0,1.75,0h7.05V144c.13.12.18.2.24.21a3.2,3.2,0,0,0,.44,0h6.16c.37.52.15,1.12.19,1.67s0,1.15,0,1.65c.15.11.2.17.27.19a.72.72,0,0,0,.21,0H80.68a1,1,0,0,1,.18.18.42.42,0,0,1,0,.2c0,2.12,0,4.25,0,6.37,0,.06.07.12.15.25h3.17a2.93,2.93,0,0,1,.17,1.76,3.88,3.88,0,0,1-.11,1.78H81.05a4.37,4.37,0,0,0-.14,1.78c0,.51,0,1,0,1.55-.52.37-1.11.15-1.67.19s-1.15,0-1.81,0c-.09,1.16,0,2.25-.06,3.32a.73.73,0,0,1-.16.15.36.36,0,0,1-.2,0H70.62c-.05,0-.11.07-.24.17v3.16c-.62.35-1.21.1-1.77.18s-1.15-.14-1.78.14v3.17c-.13.11-.18.2-.23.2H56.47c-.36-.53-.14-1.12-.18-1.68s0-1.15,0-1.78c-1.17-.15-2.26,0-3.38-.1-.31-.52-.08-1.11-.13-1.67s0-1.15,0-1.79H45.9c-.34-.61-.12-1.2-.16-1.76s0-1,0-1.54c-.26-.38-.66-.22-1-.23-.79,0-1.59,0-2.38,0a4.61,4.61,0,0,1-.13-1.79c0-.5,0-1,0-1.54-.54-.36-1.13-.14-1.69-.18s-1.14,0-1.77,0c-.13-1.18,0-2.26-.08-3.36-.55-.34-1.14-.08-1.7-.16a5.76,5.76,0,0,1-1.78-.13V151.4a4.34,4.34,0,0,0-1.77-.14c-.51,0-1,0-1.56,0-.38-.51-.15-1.11-.19-1.66s0-1.15,0-1.72a4.87,4.87,0,0,0-1.8-.13c-.5,0-1,0-1.54,0-.35-.55-.1-1.15-.18-1.7a6.5,6.5,0,0,0-.12-1.79H21.29a3.09,3.09,0,0,1-.17-1.76,4,4,0,0,1,.12-1.78H24.4a1.74,1.74,0,0,0,.22-.24.81.81,0,0,0,0-.22V119.6h3.3A61.51,61.51,0,0,0,28,109.07c-1.06-.07-2.15,0-3.26,0-.33-.53-.1-1.12-.15-1.68s0-1.15,0-1.76H21.24c-.31.53-.06,1.12-.13,1.68s.14,1.16-.13,1.74H14.19a4.63,4.63,0,0,1-.11-1.73c0-.51,0-1,0-1.55-.53-.37-1.13-.14-1.68-.19s-1.15,0-1.65,0a1.56,1.56,0,0,1-.18-.28.79.79,0,0,1,0-.22V98.88a1.57,1.57,0,0,0,0-.25c-.52-.32-1.12-.06-1.68-.14a6.11,6.11,0,0,1-1.78-.13V88.1C6.43,87.77,5.84,88,5.28,88s-1,0-1.54,0c-.36-.27-.22-.67-.22-1,0-3.88,0-7.76,0-11.65V74a4.84,4.84,0,0,0-1.79-.13c-.51,0-1,0-1.51,0-.07-.08-.14-.12-.17-.18a.35.35,0,0,1,0-.2V38.71c1.18,0,2.27,0,3.35,0,.35-.56.12-1.16.16-1.72s0-1.17,0-1.76,0-1.17,0-1.75a4.6,4.6,0,0,1,.12-1.79H6.81c.13-.13.21-.17.22-.23A3.23,3.23,0,0,0,7,31V24.82c.52-.37,1.11-.15,1.67-.19s1.15,0,1.8,0c.1-1.16,0-2.25.08-3.37.52-.32,1.12-.07,1.67-.14A6.52,6.52,0,0,0,14.05,21V17.83c.13-.13.17-.2.24-.23a.49.49,0,0,1,.21,0h6.37c.38-.27.22-.66.23-1,0-.79,0-1.59,0-2.38a4.56,4.56,0,0,1,1.78-.13c.51,0,1,0,1.55,0,.35-.54.13-1.13.17-1.69s0-1.15,0-1.8c1.18-.06,2.27,0,3.36,0,.34-.56.11-1.16.15-1.72s0-1.14,0-1.78H35a4.52,4.52,0,0,0,.14-1.77c0-.51,0-1,0-1.53.28-.36.67-.22,1-.22,2.78,0,5.57,0,8.35,0h1.15c.09-1.17,0-2.25.07-3.33.05,0,.09-.12.16-.15a.42.42,0,0,1,.2,0H73.38a1.46,1.46,0,0,1,.39.12,1.83,1.83,0,0,1,.09.39q0,4.94,0,9.88c-.59.33-1.18.11-1.74.15s-1.14,0-1.78,0v6.83c-.13.11-.18.2-.24.2h-6.6c-.37-.53-.14-1.13-.19-1.69s0-1.14,0-1.64c-.17-.11-.22-.18-.28-.19H60c-.35.57-.12,1.16-.16,1.72s0,1.15,0,1.78H56.43a4.21,4.21,0,0,0-.14,1.78c0,.58,0,1.17,0,1.75H53c-.37-.51-.15-1.11-.19-1.66s0-1.15,0-1.65c-.14-.12-.2-.2-.25-.2H49.44a72.79,72.79,0,0,0-.07,10.52h13.7c.13.13.19.17.22.24a.49.49,0,0,1,0,.21q0,6.48,0,13v.22a.81.81,0,0,0,0,.22c0,.07.09.11.2.24h6.61c.12.13.21.18.21.24a3.2,3.2,0,0,1,0,.44v6.17c.52.37,1.12.15,1.68.19s1.15,0,1.79,0c.12,1.16,0,2.25.08,3.37.53.32,1.12.06,1.68.14a6.64,6.64,0,0,1,1.76.12v3.27c-.55.3-1.14.08-1.7.12s-1,0-1.54,0c-.37.26-.22.66-.23,1,0,3.14,0,6.28,0,9.35.13.11.19.2.24.2h6.61c.35-.53.13-1.13.17-1.69s0-1.14,0-1.79c1.18-.08,2.27,0,3.32-.05a.89.89,0,0,0,.17-.18.49.49,0,0,0,0-.21q0-4.95,0-9.89c0-.06.08-.11.18-.25h3.18A4.16,4.16,0,0,0,87.93,51c0-.51,0-1,0-1.56.51-.37,1.11-.15,1.67-.19s1.15,0,1.71,0a5.13,5.13,0,0,0,.13-1.8c0-.51,0-1,0-1.53a34.12,34.12,0,0,1,7-.07v3.21c.61.36,1.2.14,1.76.18s1.18,0,1.76,0,1.18,0,1.76,0a4.39,4.39,0,0,1,1.78.14v3.23a4.51,4.51,0,0,0,1.77.13c.51,0,1,0,1.55,0,.36.53.14,1.13.18,1.69s0,1.14,0,1.76c1.18.17,2.27,0,3.33.1.06.06.13.1.16.17a.44.44,0,0,1,0,.2V70.09c0,.06-.08.11-.19.25h-3.09c-.13.12-.2.17-.23.23a.53.53,0,0,0,0,.22v6.37c-.27.36-.66.21-1,.22-.8,0-1.59,0-2.49,0-.06,1.15,0,2.24,0,3.35-.52.34-1.12.13-1.67.15a4.57,4.57,0,0,1-1.79-.1V77.63a1.24,1.24,0,0,0-.24-.22.49.49,0,0,0-.21,0H91.92a.81.81,0,0,1-.22,0c-.06,0-.11-.09-.24-.2V74.09c-.13-.12-.18-.21-.24-.22a3.23,3.23,0,0,0-.44,0H84.63a28.9,28.9,0,0,0-.11,7c1.07.12,2.16,0,3.23.08a78.1,78.1,0,0,1,.06,10.5H84.66c-.13.12-.2.17-.23.23a.77.77,0,0,0,0,.22v6.37c-.26.37-.66.22-1,.22-2,0-3.93,0-5.83,0-.11.14-.2.19-.2.25v10.08a.68.68,0,0,0,.17.17.46.46,0,0,0,.2.05h9.89c.06,0,.12.06.17.1s.11.11.11.17c0,1,0,2,0,3a1.08,1.08,0,0,1-.2.19.49.49,0,0,1-.21,0H74.12c-.05,0-.11-.09-.24-.19v-3.18a4.17,4.17,0,0,0-1.77-.14c-.58,0-1.17,0-1.76,0V95.24s-.08-.11-.19-.27c-.49,0-1.07,0-1.64,0s-1.15.18-1.69-.17V88.43a.81.81,0,0,0,0-.22,2.06,2.06,0,0,0-.19-.27c-.5,0-1.07,0-1.64,0s-1.15-.18-1.64.15v20.77c.09.08.15.17.2.17ZM45.73,84.42c0-1.09,0-2.17,0-3.26,0,0-.08-.11-.19-.26-.49,0-1.06,0-1.63,0s-1.14-.18-1.64.13v3.22c.1.08.15.15.21.15h3.26c0,.59,0,1.17,0,1.75a4.15,4.15,0,0,1-.14,1.77H38.85a39.41,39.41,0,0,0,0,7h3.36c0,.63,0,1.21,0,1.77s-.18,1.16.17,1.76h3.22a6.87,6.87,0,0,1,.12,1.78c.08.56-.18,1.16.17,1.72H49c.06,0,.11-.07.17-.11s.1-.11.1-.17q0-3.18,0-6.36a.42.42,0,0,1,0-.2.75.75,0,0,1,.15-.16c1.07-.07,2.16,0,3.17,0,.09-.16.15-.22.15-.28V84.8a.46.46,0,0,1,.05-.2.91.91,0,0,1,.17-.18h3c.06,0,.11.08.26.19,0,.5,0,1.07,0,1.64s-.18,1.15.19,1.68h3.08s.11-.09.16-.13c.19-4.06.16-5.63-.14-6.9H49.49c-.06,0-.11.09-.24.2,0,.72,0,1.52,0,2.31,0,.34.15.73-.22,1ZM35.14,63.32c-.7,0-1.21,0-1.72,0a4.46,4.46,0,0,0-1.76.14V73.52a.32.32,0,0,0,.07.19,1.07,1.07,0,0,0,.14.16c.52,0,1,0,1.54,0a4.24,4.24,0,0,0,1.73-.12Zm7.07,70.38c0,.7,0,1.21,0,1.72a4.45,4.45,0,0,0,.13,1.76c.58,0,1.15,0,1.72,0s1.15.19,1.66-.19c0-.53,0-1,0-1.55a4.44,4.44,0,0,0-.12-1.73ZM7.07,66.83c.7,0,1.21,0,1.72,0a4.27,4.27,0,0,0,1.76-.13c0-.58,0-1.15,0-1.72s.19-1.15-.19-1.65c-.53,0-1,0-1.55,0a4.42,4.42,0,0,0-1.73.12Z"/><path d="M98.49,102v3.29c.27.36.66.21,1,.22.8,0,1.59,0,2.31,0,.12.14.2.19.2.25,0,2.19,0,4.38,0,6.59-.54.36-1.13.14-1.69.18s-1.15,0-1.64,0c-.11.16-.17.22-.18.28a.79.79,0,0,0,0,.22v13.4c-.55.34-1.15.12-1.71.16s-1.14,0-1.78,0v6.85a3.09,3.09,0,0,1-1.76.17,3.91,3.91,0,0,1-1.78-.12v-6.75a4.15,4.15,0,0,0-1.77-.14c-.58,0-1.17,0-1.75,0v-3.51h3.29c.12-.12.19-.16.22-.23a.72.72,0,0,0,0-.21v-9.4c0-.15,0-.29,0-.44s.07-.11.15-.24h3.1a1.57,1.57,0,0,0,.23-.23.44.44,0,0,0,0-.2q0-4.92,0-9.84c0-.06,0-.12.07-.18s.11-.14.16-.14Z"/><path d="M87.94,126.63c0,3.42,0,6.85,0,10.27,0,.06-.07.12-.14.23H84.6a74.78,74.78,0,0,1-.1-10.36s.11-.13.16-.13Z"/><path d="M98.49,102c0-1.09,0-2.17,0-3.26,0-.06.07-.11.15-.21h3.22c.31.5.09,1.09.13,1.64s0,1.14,0,1.63c-.15.11-.21.19-.26.19Z"/><path d="M84.64,7H87.7s.11.09.2.17v3.22c-.57.28-1.15.07-1.71.11s-1.14,0-1.7,0c0-1.21,0-2.29,0-3.36C84.49,7.14,84.59,7.09,84.64,7Z"/><path d="M56.28,21.1h3.26c.05,0,.11.08.21.16v3.21c-.51.31-1.09.09-1.65.13s-1.13,0-1.62,0c-.12-.15-.19-.2-.19-.26C56.28,23.28,56.28,22.19,56.28,21.1Z"/><path d="M21.07,130.15v3.39a4.42,4.42,0,0,1-1.73.12c-.5,0-1,0-1.54,0-.39-.51-.16-1.1-.2-1.66s0-1.14,0-1.72a4.27,4.27,0,0,1,1.76-.13C19.86,130.12,20.37,130.15,21.07,130.15Z"/><path d="M24.62,119.6H21.36c-.05,0-.11-.08-.21-.16v-3.21c.51-.31,1.1-.09,1.65-.13s1.13,0,1.63,0c.11.15.19.2.19.26Z"/></g></g></svg>