<svg xmlns="http://www.w3.org/2000/svg" viewBox="0 0 110.77 110.77"><title>Recurso 7MANDALA</title><g id="Capa_2" data-name="Capa 2"><g id="Capa_1-2" data-name="Capa 1"><path d="M39.25,52.89A2.34,2.34,0,0,1,37,55.06L0,55.55,37,56a2.34,2.34,0,0,1,2.3,2.17l.33,4.35.35-4.5a2.34,2.34,0,0,1,2.16-2.16l4.5-.34-4.5-.34A2.34,2.34,0,0,1,39.93,53l-.35-4.49Z"/><path d="M40.17,61.29a2.35,2.35,0,0,1-.91,3L7.5,83.22,39.75,65.16a2.34,2.34,0,0,1,3.07.73l2.46,3.6-2-4.06a2.36,2.36,0,0,1,.79-3l3.73-2.55-4.07,2a2.34,2.34,0,0,1-3-.8l-2.55-3.72Z"/><path d="M45.16,68.11a2.34,2.34,0,0,1,.73,3.07L27.83,103.43l18.9-31.76a2.36,2.36,0,0,1,3-.91l3.93,1.89L50,70.11a2.36,2.36,0,0,1-.8-3l2-4.06-2.55,3.72a2.34,2.34,0,0,1-2.95.79l-4.07-1.95Z"/><path d="M52.89,71.52a2.34,2.34,0,0,1,2.17,2.29l.49,37,.48-37a2.34,2.34,0,0,1,2.17-2.29l4.35-.34-4.5-.34a2.35,2.35,0,0,1-2.16-2.16l-.34-4.5-.34,4.5A2.35,2.35,0,0,1,53,70.84l-4.49.34Z"/><path d="M61.29,70.6a2.35,2.35,0,0,1,3,.9l18.9,31.77L65.16,71A2.34,2.34,0,0,1,65.89,68l3.6-2.47-4.06,2a2.35,2.35,0,0,1-3-.8l-2.55-3.72,2,4.07a2.34,2.34,0,0,1-.8,3l-3.72,2.55Z"/><path d="M68.11,65.61a2.34,2.34,0,0,1,3.07-.73l32.25,18.05L71.67,64a2.36,2.36,0,0,1-.91-3l1.89-3.93L70.11,60.8a2.35,2.35,0,0,1-3,.79l-4.06-2,3.72,2.55a2.34,2.34,0,0,1,.79,3l-1.95,4.07Z"/><path d="M71.52,57.87a2.35,2.35,0,0,1,2.29-2.17l37-.48-37-.48a2.35,2.35,0,0,1-2.29-2.17l-.34-4.35-.34,4.49a2.35,2.35,0,0,1-2.16,2.17l-4.5.34,4.5.34a2.35,2.35,0,0,1,2.16,2.17l.34,4.49Z"/><path d="M70.6,49.47a2.34,2.34,0,0,1,.9-3l31.77-18.9L71,45.61A2.35,2.35,0,0,1,68,44.88l-2.47-3.6,2,4.06a2.36,2.36,0,0,1-.8,3l-3.72,2.54,4.07-2a2.35,2.35,0,0,1,3,.79l2.55,3.73Z"/><path d="M65.61,42.66a2.35,2.35,0,0,1-.73-3.08L82.93,7.34,64,39.1a2.34,2.34,0,0,1-3,.9l-3.93-1.88,3.72,2.54a2.35,2.35,0,0,1,.79,3l-2,4.06L62.19,44a2.34,2.34,0,0,1,3-.79l4.07,1.95Z"/><path d="M57.87,39.25A2.35,2.35,0,0,1,55.7,37L55.22,0l-.48,37a2.35,2.35,0,0,1-2.17,2.3l-4.35.33,4.49.35a2.34,2.34,0,0,1,2.17,2.16l.34,4.5.34-4.5a2.34,2.34,0,0,1,2.17-2.16l4.49-.35Z"/><path d="M49.47,40.17a2.34,2.34,0,0,1-3-.91L27.55,7.5,45.61,39.75a2.35,2.35,0,0,1-.73,3.07l-3.6,2.46,4.06-2a2.37,2.37,0,0,1,3,.79l2.54,3.73-2-4.07a2.35,2.35,0,0,1,.79-3l3.73-2.55Z"/><path d="M42.66,45.16a2.35,2.35,0,0,1-3.08.73L7.34,27.83,39.1,46.73a2.34,2.34,0,0,1,.9,3l-1.88,3.93L40.66,50a2.36,2.36,0,0,1,3-.8l4.06,2L44,48.58a2.34,2.34,0,0,1-.79-2.95l1.95-4.07Z"/></g></g></svg>