<svg xmlns="http://www.w3.org/2000/svg" viewBox="0 0 159.21 106.09"><title>Recurso 28ART</title><g id="Capa_2" data-name="Capa 2"><g id="Capa_1-2" data-name="Capa 1"><path d="M123.81,53v1.48c.44.5,1.07,0,1.65.35l.05.93c.12.07.23.18.35.18.77,0,1.54,0,2.31,0,.06,0,.11.07.23.15,0,.43,0,.9.07,1.36.3.32.68.1,1,.17.08.11.22.21.22.32,0,.83,0,1.66,0,2.46.52.3,1,.11,1.49.18.06.12.18.23.18.34,0,1.25,0,2.5,0,3.81l-1.51.08c-.42.46.07,1.1-.31,1.59l-1,.11c-.05.14-.15.25-.15.37,0,2.18,0,4.35,0,6.53-.45.5-1.08,0-1.64.34v2.7l-1.28.21v2.63c-.54.46-1.17,0-1.71.42V82.3c-.37.38-.75.08-1.21.35s.17.95-.15,1.43c-.06,0-.11.11-.17.11h-2.47a1,1,0,0,1-.18-.19.44.44,0,0,1,0-.2c0-1.75,0-3.51,0-5.26,0,0-.08-.11-.16-.22l-1.35-.06a1.11,1.11,0,0,1-.16-.39c0-1.75,0-3.5,0-5.26.44-.51,1.08,0,1.56-.3a.61.61,0,0,0,.12-.16.66.66,0,0,0,0-.2V66.62l1.21-.2V62c-.28-.31-.65-.08-1-.16-.08-.1-.22-.2-.22-.31,0-.83,0-1.66,0-2.46-.52-.31-1-.14-1.49-.17s-.84,0-1.34,0l-.22-1.22c-.88-.12-1.78,0-2.67-.08-.44-.45.06-1.09-.35-1.63h-2.68c0-.26-.07-.45-.09-.65a4,4,0,0,1,0-.49c-.91-.38-1.9,0-2.83-.22-.24-.45-.05-.95-.14-1.42-.12-.06-.23-.18-.34-.18h-4.2c0-.43-.08-.76-.12-1.1-.28-.33-.66,0-.95-.19-.11.13-.26.24-.26.34q0,9.67,0,19.36v2c-.51.33-1,.12-1.47.18-.07.12-.2.23-.2.34,0,1.81,0,3.62,0,5.51l-1.08.07a.66.66,0,0,0-.14.15.45.45,0,0,0,0,.2c0,1.75,0,3.5,0,5.26,0,0-.07.11-.15.22l-1.36.07c-.06.14-.16.26-.16.37,0,1.34,0,2.67,0,4.09l-1.12.21c0,.06-.13.11-.13.16,0,1.26,0,2.52,0,3.83a4.35,4.35,0,0,0,1.83.14c.7,0,1.4,0,2.1,0h1.91c0,.57.06,1,.09,1.51.28.34.66.06,1,.2.1-.13.25-.22.26-.33,0-.41,0-.82,0-1.17.11-.11.16-.2.21-.2h2.53c.49.44,0,1.08.34,1.63h1.32c.11.19.22.31.22.42,0,.83,0,1.66,0,2.53L106.3,99c-.35.3-.06.69-.28,1.12l-1,.19c-.31.44,0,1-.22,1.48-.38.41-1-.1-1.55.27,0,.28-.06.61-.09,1-.12,0-.23.16-.35.16-.77,0-1.54,0-2.31,0-.06,0-.11.08-.24.18v1.27c-.12.13-.17.22-.22.23a2.94,2.94,0,0,1-.42,0H96.15c-.07.37-.14.76-.21,1.14-.06,0-.11.12-.17.12H88.55c-.07-.4-.13-.79-.2-1.24H75.62c-.47-.54,0-1.16-.42-1.71H66.76c-.35-.37-.13-.74-.25-1.17a7.28,7.28,0,0,0-2-.09c-.63,0-1.26,0-1.89,0H44.29c0,.41-.06.75-.08,1.08-.11.06-.23.17-.34.17-.78,0-1.55,0-2.32,0,0,0-.11-.07-.19-.13,0-.3-.08-.64-.12-1-.12,0-.24-.15-.36-.15H37.3c-.52-.44,0-1.07-.3-1.57-.45-.25-.94-.08-1.41-.11s-.84,0-1.34,0c-.07-.39-.13-.77-.21-1.21l-1.42-.09c-.34-.43-.13-.94-.16-1.4s0-1,0-1.43l-1.11-.13a1.21,1.21,0,0,1-.14-.37c0-.78,0-1.55,0-2.32.41-.42.93-.16,1.39-.2s1,0,1.51,0c0,.41,0,.74.07,1.08.12.06.23.17.35.17.83,0,1.66,0,2.53,0V88.56c-.45-.32-.95-.09-1.42-.16a.66.66,0,0,1-.15-.14.36.36,0,0,1-.07-.17V68c-.37-.37-.75-.08-1.11-.28,0,0-.14-.16-.14-.27,0-1.25,0-2.5,0-3.8l1.13-.1a2.65,2.65,0,0,0,0-1.58l-1-.12c-.06-.06-.16-.11-.16-.16v-2.6l1.13-.22c0-.05.12-.1.12-.16,0-1.26,0-2.52,0-3.76-.38-.34-.77-.23-1.2-.08l-.11,1c-.44.32-.94.08-1.41.15-.54.43,0,1.07-.34,1.61-.84.19-1.75,0-2.72.12l-.21,1.16-1,.09c-.43.46.06,1.09-.36,1.64H26.78c-.37.36-.15.74-.24,1.14L25.35,62v1.33c-.53.53-1.17,0-1.67.39,0,.31-.08.64-.11,1-.16.16-.16.16-1,.16-.55.43,0,1.07-.31,1.56-.44.25-.94.06-1.49.15l-.2,1.12c-.33.24-.67,0-1,.11-.08-.08-.17-.13-.18-.18-.06-.89,0-1.78,0-2.68l1.12-.13a1,1,0,0,0,.15-.37c0-.84,0-1.68,0-2.53a5.7,5.7,0,0,0,1.74-.13c-.22-.35.14-.75-.24-1.1-.51,0-1.05-.2-1.5.18v1.05H17.83c-.3.91,0,1.9-.17,2.82a3.26,3.26,0,0,1-1.45.13c-.41,0-.83,0-1.23,0-.48.47,0,1.11-.34,1.62l-1,.11c-.31.29-.09.66-.16,1-.11.07-.21.21-.31.22-.84,0-1.67,0-2.43,0-.11-.12-.2-.18-.2-.23,0-1.26,0-2.52,0-3.86l1.19-.22c.18-.88,0-1.78.11-2.67.45-.44,1.09.06,1.61-.34l.07-1.34c.31-.33.69-.11,1-.19.44-.39.16-.91.2-1.37s0-1,0-1.41c.53-.28,1-.09,1.49-.18.07-.11.18-.22.19-.34,0-.83,0-1.66,0-2.52L17.55,53c.05,0,.12-.09.14-.15a.44.44,0,0,0,0-.2V47.39s.08-.1.18-.23h2.55c.36-.37.14-.74.22-1.07,0-.05.09-.14.15-.14l2.74-.11V44.43c.19-.11.31-.22.42-.22.77,0,1.55,0,2.32,0,.05,0,.11-.07.19-.13,0-.31.08-.64.12-1,.12-.05.23-.15.35-.15h4c.55-.43,0-1.07.3-1.55,0,0,.1-.12.16-.13a2.94,2.94,0,0,1,.42,0h3.44c.07-.39.14-.77.2-1.15A3.37,3.37,0,0,1,36.92,40c.42,0,.83,0,1.23,0,.44-.54,0-1.07.27-1.67H34.36c-.37-.36-.15-.73-.24-1.13L35.27,37c.29-.44,0-1,.18-1.43.08,0,.2-.16.31-.16h5.46c.05-.43.08-.76.12-1.09,0-.05.09-.12.15-.15a.43.43,0,0,1,.2,0H54.52s.11-.07.23-.17V32.64c.13-.13.17-.21.23-.22a2.91,2.91,0,0,1,.42,0H66.34c.35.26.2.64.21,1,0,.62,0,1.25,0,1.8.14.11.18.17.24.19a.74.74,0,0,0,.21,0h6.5c.48.47,0,1.1.31,1.58A1.51,1.51,0,0,0,74,37a.74.74,0,0,0,.21,0H94a1.85,1.85,0,0,1,.28.05c0,.35.11.74.18,1.19H100c.4.51.07,1,.33,1.61-.08-.07,0,0,0,0a.31.31,0,0,0,.18.07h5.54c0,.41,0,.74,0,1.08.42.39.93.14,1.4.18s.95,0,1.48,0c0,.57.06,1,.09,1.51a1,1,0,0,0,.36.16h4.16c.05.46.09.79.12,1.11a1.42,1.42,0,0,0,.38.15h2.31c.5.45,0,1.08.35,1.65.83.1,1.73,0,2.71.07l.18,1.16,1,.12c.31.44.08.94.15,1.41.11.07.21.21.32.21.83,0,1.66,0,2.42,0,.35.37.12.75.22,1.07.45.48,1.08,0,1.63.34l.08,1.45,1.18.18v1a1.86,1.86,0,0,1-.38.15h-2.52c-.06-.4.13-.82-.15-1.19s-.84.16-1.09-.31.18-1-.25-1.47h-2.63l-.19-1.24h-2.58c-.06,0-.11.06-.17.1-.12.39-.24.78.09,1.13l.93,0c.35.58-.14,1.21.35,1.66h2.51c.05,0,.1.08.15.13.07.38.14.76.21,1.12ZM51.74,93c.22.38-.08.8.28,1.28.28-.17.68.18,1-.18V93H51.82c0-.49,0-1,0-1.48s-.15-1,.15-1.43H56c0,.51,0,1,0,1.46s-.19,1,.15,1.41l1.43.08c.07.44.14.83.2,1.22H75.14s.11-.07.17-.12L75.52,93c.5,0,.92,0,1.34,0a2.81,2.81,0,0,1,1.49.17V95.9A6.34,6.34,0,0,0,79,96h4.83a1.34,1.34,0,0,0,.37-.17l.07-1.36c.12-.08.17-.15.23-.15.77,0,1.54,0,2.31,0,.12,0,.23-.11.35-.18l0-1,1.14-.22c.23-.55-.09-1.06.29-1.58H90a3.12,3.12,0,0,0,.15-1.49c0-.42,0-.85,0-1.26s-.18-1,.16-1.41l1.1-.11v-.83q0-3.17,0-6.31c0-.12.12-.23.22-.42h1.45a15.05,15.05,0,0,0,0-1.51c0-.46.24-1-.19-1.38H91.29c.29-.39-.1-.84.24-1.2s1.12.23,1.54-.3c.08-.48-.18-1,.17-1.41l1-.09c.08-.44.15-.83.21-1.19.55-.09,1,.11,1.57-.2,0-.79,0-1.62,0-2.45,0-.11.14-.21.16-.24.38-.2.76.1,1-.24V54.82L96,54.63V50.56a.74.74,0,0,0,0-.21,1.24,1.24,0,0,0-.15-.21c-.44,0-.91-.06-1.38-.11,0,0-.1-.09-.15-.14,0-.84,0-1.68,0-2.52,0,0-.09-.1-.14-.15-.34-.23-.84.16-1.11-.31-.08-.33.14-.7-.22-1H91.45c-.49,0-1,0-1.47,0a3.71,3.71,0,0,1-1.5-.12c-.2-.47.22-1.09-.25-1.56h-6.5a.67.67,0,0,1-.2,0,.48.48,0,0,1-.16-.13l-.22-1.13h-7a1.16,1.16,0,0,0-.36.14l-.12,1-1.19.19c0,.92,0,1.75,0,2.59,0,.06.07.11.12.18l1.14.2c0,.5,0,.92,0,1.34s-.14,1,.17,1.49H75.2c.1.13.19.18.19.23,0,.77,0,1.54,0,2.31a1,1,0,0,0,.16.36l1,.11c.21.52-.19,1.14.24,1.59.47.1,1-.09,1.5.19,0,.44,0,.93,0,1.4s-.23,1,.2,1.38a3.05,3.05,0,0,1,.43,0,5.58,5.58,0,0,1,.57.08c0,.4.08.73.12,1,.49.37,1.13-.12,1.58.31l.08,1.41,1.22.22c0,.5,0,.92,0,1.34s-.15,1,.11,1.41c.5.29,1.14-.24,1.56.31,0,.77,0,1.54,0,2.31a1,1,0,0,0,.16.36l1,.11A3.66,3.66,0,0,1,85.49,68c0,.42,0,.85,0,1.27s-.2,1,.18,1.39c1.46.07,2.91,0,4.41.06,0,2,.07,3.84.11,5.71,0,0,.09.1.14.15h1c-.07.53.14,1.1-.14,1.68H87.5c-.11,0-.21.14-.32.21-.07.33.15.7-.17,1H82.55V75.36a6.7,6.7,0,0,0,1.61-.09,2.55,2.55,0,0,0-.06-1.55H82.64a6.45,6.45,0,0,0-.09,1.63c-.28,0-.56,0-.84,0a1.25,1.25,0,0,0-.37.15l-.11,1c-.5.38-1.13-.1-1.63.35v1.43c0,.49,0,1,0,1.47a3.54,3.54,0,0,1-.11,1.44l-1,.18c-.24.42,0,.8-.24,1.08-.49.3-1.13-.21-1.56.31-.07.47.16,1-.16,1.42l-1,.12c-.06.4-.12.78-.18,1.15l-1.45.08c-.36.56.14,1.19-.34,1.63-.33.09-.7-.13-1,.15s.16.85-.3,1.12c-.47.07-1-.17-1.42.17,0,.47-.06.94-.08,1.41A55.73,55.73,0,0,1,62,89.9c-.09-.88,0-1.79-.07-2.66L60.67,87c-.07-.55.13-1-.19-1.56-.38,0-.79,0-1.2,0-.11,0-.2-.15-.23-.17-.19-.38.1-.77-.24-1l-1-.11a2.45,2.45,0,0,1,.08-1.59c.36-.11.73.11,1.06-.19a4,4,0,0,1,0-.57,4,4,0,0,1,.15-.52c.53-.07,1,.15,1.5-.18,0-.46,0-.93.07-1.42l1.18-.19L62,78.38c.56-.25,1.18.19,1.63-.28,0-.47.15-1-.17-1.48-.79,0-1.63,0-2.46,0-.1,0-.21-.15-.31-.22-.07-.33.15-.7-.16-1H59.07l-.2,1.2c-.41,0-.76.13-1.07-.11-.08-.38-.15-.77-.22-1.14H56c-.08-.53.14-1.09-.14-1.68H52.14c-.11,0-.22.14-.32.21-.06.47.16,1-.19,1.46H46.24c-.11,0-.21.15-.32.22-.07.33.15.7-.23,1.06H43.15c-.09.12-.17.17-.17.23,0,.77,0,1.53,0,2.3a1,1,0,0,0,.17.35l1.09.12v.82q0,3.15,0,6.29a1,1,0,0,0,.16.36l1.51.08c0,.88,0,1.7,0,2.53,0,.11.12.23.18.34l1,.07c.08.46.15.84.22,1.2.55.08,1-.11,1.48.15.29.49-.22,1.12.3,1.56Zm63.07-44.21a2,2,0,0,0,0-1.69c-.38.08-.75-.14-1.12.24.2.42-.27,1,.24,1.45Z"/><path d="M3,23.57v1.51c-.13.1-.18.17-.23.17H.24c-.4-.45-.17-1-.19-1.42a3,3,0,0,1,.12-1.49l1.38-.07c.37-.45,0-1,.27-1.5,0,0,.11-.14.21-.14.84,0,1.67,0,2.43,0,.35-.37.13-.74.24-1.15l1.19-.21c0-.47.05-.94.08-1.42.46-.4,1.07,0,1.57-.22,0-.4.09-.73.12-1.05.31-.31.68-.09,1-.16.5-.44,0-1.08.3-1.57.45-.24.94-.08,1.41-.11s.84,0,1.34,0l.2-1.21,1.41-.08c.39-.45,0-1,.21-1.42s.75-.08,1.1-.31,0-.66.14-1c.41-.41.92-.15,1.39-.19s.95,0,1.5,0L17.75,9c.46-.44,1.09.06,1.59-.32,0-.31.07-.64.11-1,.06-.06.11-.15.16-.15h2.52c.52-.44,0-1.08.34-1.63h2.71l.2-1.23A5.17,5.17,0,0,1,27,4.64c.63,0,1.26,0,1.89,0h3.32c.45-.5,0-1.13.39-1.67h4.23c.36-.37.14-.74.22-1.07,0,0,.09-.14.14-.14l9.91-.1V.23c.18-.11.3-.22.41-.22H69a2,2,0,0,1,.44.12c0,.45.06.92.08,1.39.13.06.24.17.36.17H83.14c.34,0,.7-.13,1,.12l.11,1a1,1,0,0,0,.37.15h6.53c.49.44,0,1.06.25,1.52.1.07.14.13.2.16a.74.74,0,0,0,.21,0h7l.2,1.23h6.83c.48.53,0,1.16.42,1.71h5.49c.37.36.14.74.22,1.06,0,0,.1.14.15.14l5.69.11V10.3a1.71,1.71,0,0,0,.42.22h5.26c.06,0,.11.07.2.13l.11,1a1,1,0,0,0,.36.16h5.26c.55.42,0,1.06.31,1.56.44.26.93.08,1.41.11s.84,0,1.34,0c.06.38.13.77.2,1.15a3.35,3.35,0,0,0,1.44.11c.49,0,1,0,1.47,0h2.7c.43.5,0,1.11.27,1.67h5.59c.38.36.16.73.23,1.06.11.07.22.21.33.21,1.39,0,2.78,0,4.14,0,.28.53.1,1,.18,1.49.11.06.23.18.34.19.83,0,1.66,0,2.52,0,.05.43.08.77.11,1.11.43.34.94.1,1.4.15s1-.12,1.5.17v1.28c.13.14.17.23.22.23a2,2,0,0,0,.42,0H159c.43.41.16.93.2,1.39s0,1,0,1.37c-.14.11-.2.18-.25.18H147.59c-.48-.47,0-1.11-.37-1.66h-8.43c-.4-.35-.18-.73-.25-1.05-.1-.08-.2-.23-.31-.23h-11.3c-.32-.51-.12-1-.18-1.48-.11-.06-.22-.19-.33-.19-2.39,0-4.77,0-7.16,0H118c0-.42,0-.75-.06-1.08a.66.66,0,0,0-.15-.14.34.34,0,0,0-.2,0H105.13s-.11-.07-.23-.14c0-.43-.05-.9-.07-1.37-.13-.06-.25-.16-.37-.16l-9.25,0c-.26,0-.56.13-.82-.14,0-.31-.07-.64-.1-1a1.15,1.15,0,0,0-.38-.15H87.39c-.48-.45,0-1.08-.26-1.56-2.56-.21-13.16-.25-26.28-.11-.47.45,0,1.09-.3,1.56a.39.39,0,0,1-.16.1.74.74,0,0,1-.21,0H43.35a1.91,1.91,0,0,0-.29,0l-.18,1.2H29.71c-.4.51-.06,1-.32,1.6.07-.07,0,0,0,0a.31.31,0,0,1-.18.07H20.87c-.34.38-.12.75-.22,1.07,0,.05-.1.15-.15.15l-6.71.05c-.06,0-.12.07-.24.14l-.08,1.37c-.12.06-.23.16-.35.16l-6.31,0c-.27,0-.56-.1-.82.12,0,.32-.07.66-.11,1a1,1,0,0,1-.37.15Zm100.21-13c0,.4-.12.82.18,1.27h2.39c.12,0,.23-.11.32-.16v-.95c-.1-.07-.16-.14-.21-.14h-2.68a5.7,5.7,0,0,0-.12-1.68H96.33c-.11,0-.21-.15-.31-.23-.07-.32.15-.7-.25-1H88.6c-.39-.55.11-1.18-.37-1.66H83a.74.74,0,0,1-.21,0,.88.88,0,0,1-.17-.12l-.21-1.14H70.14a3,3,0,0,1-.42,0s-.1-.08-.15-.13c-.28-.48.25-1.12-.3-1.54H44.87a2.94,2.94,0,0,0-.42,0c-.05,0-.1.1-.22.22V4.45c-.13.1-.18.17-.23.17H37.48a.62.62,0,0,0-.2,0,.54.54,0,0,0-.15.15c0,.33-.07.66-.12,1.09h-4.2c-.11,0-.22.12-.34.18-.09.47.1,1-.18,1.5-1.21,0-2.47,0-3.72,0-.11,0-.22.13-.33.2-.07.33.15.7-.22,1.06H23.79c-.41.55.07,1.18-.35,1.64-.89.12-1.79-.06-2.68.1l-.21,1.2c-.5,0-.92,0-1.34,0a3,3,0,0,0-1.49.16c0,.38,0,.79,0,1.2,0,.11-.14.21-.21.32-.33.07-.7-.15-1,.16l-.11,1c-.5.37-1.13-.13-1.65.37.16.41-.13.9.21,1.45.76,0,1.59,0,2.42,0,.12,0,.23-.13.34-.2.07-.46-.13-1,.18-1.48,2.34,0,4.72,0,7.09,0,.11,0,.21-.14.24-.16.2-.37-.1-.76.31-1.11h6.75c.41-.54-.09-1.18.38-1.66h6.9a.72.72,0,0,0,.21,0,.8.8,0,0,0,.18-.12l.2-1.14h29.1s.11-.08.16-.12c.3-.48-.2-1.11.3-1.56h8a3,3,0,0,1,.42,0s.1.08.15.13c.28.48-.25,1.12.3,1.54Z"/><path d="M53,76.78v1.37c-.31.3-.68.11-1,.15a4.6,4.6,0,0,1-.83,0,2.05,2.05,0,0,1-1.07-.13v-1c0-.29,0-.55.42-.55.77,0,1.53,0,2.3,0C52.9,76.62,53,76.71,53,76.78Z"/><path d="M45.88,78.34H47c.32.32.1.69.18,1-.32.45-.76.05-1,.24C45.78,79.2,46,78.84,45.88,78.34Z"/><path d="M56,75.28v1.29h-1.1c-.37-.33,0-.73-.18-1C55.22,75.19,55.65,75.5,56,75.28Z"/></g></g></svg>