<svg xmlns="http://www.w3.org/2000/svg" viewBox="0 0 121.97 121.97"><title>Recurso 17MANDALA</title><g id="Capa_2" data-name="Capa 2"><g id="Capa_1-2" data-name="Capa 1"><path d="M63,88.81c0,1.11,0,2.21,0,3.32a5.43,5.43,0,0,0,.61,2.43A3.73,3.73,0,0,1,64,95.82c0,.11,0,.22,0,.33,0,.59,0,1.19,0,1.78s0,1.16,0,1.73c0,.84,0,1.68,0,2.52s0,1.83,0,2.74c0,1.2,0,2.4,0,3.6v2.33c0,.5,0,1,0,1.49s0,1.28,0,1.93c0,1.07,0,2.14,0,3.21a12.72,12.72,0,0,1,0,1.38c0,.22-.18.42-.25.64a6.17,6.17,0,0,0-.19.74.21.21,0,0,0,.11.17.63.63,0,0,1,.17,1,1.34,1.34,0,0,1-.91.42,19.39,19.39,0,0,1-2,.14c-.8,0-1.6,0-2.4-.1a5.91,5.91,0,0,1-1.6-.32.77.77,0,0,1-.48-.7.51.51,0,0,1,.36-.56c.08,0,.13-.22.11-.32a5.3,5.3,0,0,0-.28-.88,1.54,1.54,0,0,1-.1-.63c0-.38,0-.75,0-1.12,0-.53,0-1.06,0-1.58,0-.76,0-1.51,0-2.26s0-1.57.07-2.35V111c0-1,0-1.92,0-2.88l.06-2.13c0-.43,0-.86,0-1.29,0-1,0-2,0-3,0-.53,0-1.07,0-1.6,0-1.43,0-2.87,0-4.3a2.79,2.79,0,0,1,.36-1.05A8.29,8.29,0,0,0,57.94,93a4.78,4.78,0,0,0,.08-.84c0-1.18,0-2.36,0-3.55,0-.45,0-.9,0-1.36a.36.36,0,0,1,.11-.25.32.32,0,0,0,.12-.28c0-.75.1-1.5.13-2.24a21.24,21.24,0,0,1,.71-4.41c.23-.86.51-1.7.78-2.55a.27.27,0,0,1,.19-.13,1.58,1.58,0,0,1,.38,0,5.79,5.79,0,0,1,.72,0s.07.07.09.12c.19.61.39,1.23.55,1.85s.34,1.49.51,2.24a16.43,16.43,0,0,1,.33,2.51c0,.58.05,1.17.07,1.75,0,.36,0,.71,0,1.07a.24.24,0,0,0,.09.13.18.18,0,0,1,.13.2c0,.51,0,1,0,1.53Zm-4.82,10,0,.07h.06l.11.1c-.18,0-.2.13-.23.24s0,.1.07.16l.17-.2c-.1-.06,0-.13,0-.2l.11.08a1.92,1.92,0,0,0,0-.22s0,0-.07,0c.1-.17,0-.27-.17-.29l.08-.13-.05-.13.13,0h.07a.5.5,0,0,0,0-.12s0-.06,0-.06-.11,0-.11-.09a.11.11,0,0,0,0,0l-.18.37.14.17.09.08-.24.08Zm0,1.35-.11,0,0,.37,0-.1.18-.07s0-.09,0-.16l.12.13.1-.21c-.07,0-.12.17-.14,0s-.05,0-.07,0Zm0,18.55-.16.14,0,0V119l0,0,.16-.39s0-.06,0-.08l-.26-.17a.15.15,0,0,0-.07.07s0,.06,0,.08.1.06.12,0,.11-.09.12,0Zm.6-6.76c0,.09,0,.17,0,.26a.13.13,0,0,0,0,.07l0-.09c0-.06,0-.13.05-.21l-.11,0c0-.06,0-.12,0-.18l0-.1-.1.09a1.13,1.13,0,0,0-.18,0,1.52,1.52,0,0,0-.21,0v0l.55-.28,0-.06-.12.06-.13-.18,0,.28h-.06c0-.16.08-.33-.18-.35l0,0h.2c-.11,0,.1-.21-.13-.17l0-.09.33-.19,0,0-.13,0,.16-.21,0,0-.08,0,0,0,.17-.19c-.06-.06-.13-.12-.19-.19l.08-.09-.15-.07c.2,0,.23,0,.21-.19s0-.08-.06-.13,0-.2-.07-.3.14-.2,0-.26v0c.05-.18.05-.18,0-.32s0,0,0,0c.23,0,0-.08,0-.11s.18-.1,0-.24a0,0,0,0,1,0-.05c0-.08,0-.08-.08-.12s0-.23,0-.35,0-.1,0-.1.12,0,.11-.11a.53.53,0,0,1,0-.13l.13.11-.17-.4-.06.09c-.11-.19,0-.34.08-.49l-.11,0,0,0,.12-.15,0,0-.19.14-.06,0s0,0,0-.07l0-.38-.16,0,.23-.21c-.06.27.07.29.27.29-.07,0,0-.2-.15-.1l-.05-.1c.2-.09-.09-.34.14-.42v0c0-.08,0-.17,0-.25s0-.08,0-.09-.09-.33-.13-.5,0-.2,0-.29l0,0,.09.27-.21-.13a1,1,0,0,1-.05.26c-.06.11.17.17,0,.28.09.17.06.3-.14.34l.16.09c-.09,0-.22,0-.12.2l.11-.07c0,.09-.09.19-.13.29a.29.29,0,0,0,0,.13c0,.1.07.19.1.29s0,0,0,0a1,1,0,0,0-.11.23s0,.08.08.11a1,1,0,0,0,.17.07l-.2,0c0,.1.05.2.08.29s.08,0,.11.07,0,0,0,.06l-.12-.06h-.07c.18.16,0,.28,0,.42H58l-.17.27.05,0,.22-.23s0-.08-.07-.12a.64.64,0,0,1,0-.1c-.16-.08,0-.12,0-.2a1.2,1.2,0,0,1,0,.36c0,.14,0,.18.15.2l0,.19c-.11-.25-.11-.25-.41,0l.17,0a0,0,0,0,1,0,0c-.12.1-.12.1-.05.2s0,0,0,.08-.11.26-.06.34,0,.35,0,.51,0,.06,0,.08l.1,0c.07,0,.15,0,.11.09-.05-.1-.06,0-.12,0s-.06.24-.16.31v0c.17,0,0,.13.09.16a.26.26,0,0,0,0,.31s-.05.11-.08.16-.07,0-.06.06l.12.59,0,.11s-.09,0-.1,0,0,.08,0,.09a.34.34,0,0,0,.12.09s.05,0,.08,0l.16-.1,0,.06c-.13,0-.17.19-.32.14a.47.47,0,0,0,0,.16.76.76,0,0,0,.08.15c-.19,0-.16,0-.12.13a1.45,1.45,0,0,1,.11.26h0a2,2,0,0,0-.13.25.78.78,0,0,0,0,.21c.06,0,.14.12.22.12s0,.12,0,.14l-.06,0L58,113l.06,0,.1,0a.18.18,0,0,1-.14.25c-.17,0,0,.17-.11.18a.52.52,0,0,0,.1.11s.08.06.11.1l-.16.11c.13.06.27.13.16.3l.15.07c-.14.1.11.15,0,.25s.1-.1.09-.14-.08-.07-.13-.11a1.25,1.25,0,0,1,0-.81h.09s0-.09,0-.09-.12-.07-.08-.17,0-.06-.07-.09l.06-.29c.11,0,.1.23.23.09s0-.11,0-.17h0l0,.14h0l0-.2-.15.12c0-.24.19-.17.25-.21l-.28-.35h.1c0,.07,0,.16.14.09a.6.6,0,0,1,.16-.05,1,1,0,0,1,.08-.22S58.74,111.94,58.77,111.91Zm-.62,4.77a.83.83,0,0,0,0,.15s0,0,0,0l0-.08.17.11L58,117l-.1-.19a.15.15,0,0,0,0,.17s.07,0,.11,0l0,.13.09,0s0,.13,0,.14c-.18,0-.06.17-.06.26a1.87,1.87,0,0,0,.07.22l.09.11.17-.17-.1.31.16-.09v0l-.16.19-.19-.21c.11.25.11.25-.11.35v-.44a.68.68,0,0,0-.09.37c0,.12.09.19.22.1a.23.23,0,0,1,.18,0s0,.12.06.18l-.1.07-.05-.21-.07,0a3.82,3.82,0,0,0,.18.51c0,.09.12.09.19,0a.71.71,0,0,0-.07-.09.26.26,0,0,0,0-.34c-.07-.15.08-.21.09-.32,0,.23,0,.35.11.34s0-.28,0-.36,0-.14,0-.2c.11-.07.13.15.24.07.09.17-.12,0-.13.13s0,0,0,.09l.37-.13c-.27-.21,0-.29,0-.44l-.36.25,0,0,.27-.23-.23,0,.12-.14.15.13s.06,0,.08,0,0,0,0-.07-.1-.05-.14-.11l-.09.07h0c0-.13-.16-.12-.15-.15.12-.18-.08-.07-.1-.1l0-.13,0,0-.19.16c0-.09-.07-.17-.1-.26l.18-.11-.24-.12.16,0c-.08-.16.07-.11.13-.17a.94.94,0,0,0-.3,0,.5.5,0,0,0,0,.15h-.1l0-.26H58.1ZM60,79.28a.7.7,0,0,0-.18.54.12.12,0,0,0,.07.07.08.08,0,0,0,.08,0,.09.09,0,0,0,0-.07.21.21,0,0,1,0-.26.21.21,0,0,0,0-.26c.08-.06.08-.06-.09-.18l0,.14Zm-1.92,24.15c0,.09.1.18.1.26s.1.21.23.26c0-.09-.11-.19-.09-.25s-.06-.24-.18-.31l-.06-.3C58,103.18,58,103.37,58.07,103.43Zm.49-9.8.2,0s0,0,0,.06,0,0,0,0c-.23,0-.26.13-.3.27-.15.45-.29.91-.43,1.36-.06.21,0,.43.12.47a1.27,1.27,0,0,0,.39,0c.4,0,.8,0,1.19-.09a1.4,1.4,0,0,0,.62-.19.44.44,0,0,0,.19-.41c0-.36,0-.73,0-1.1a.94.94,0,0,0-.06-.18.49.49,0,0,0,0-.17c-.06-.12-.06-.29-.24-.34a.08.08,0,0,1,0-.08c.05-.16-.06-.12-.15-.11l0-.21L60,93.1c-.05-.06-.12-.16-.13-.15s-.29-.07-.46,0-.25,0-.33.16l0-.12-.26.06c.22.17,0,.16-.14.19l.2.1C58.64,93.31,58.67,93.51,58.56,93.63Zm-.48,8.49.2-.13h.1l-.06-.17s0,0-.06-.06,0-.08,0-.12-.1-.19-.06-.3l.15.16,0,0a1.63,1.63,0,0,0-.09-.19,1,1,0,0,0-.16-.12l.15-.14,0-.06s0,.09-.05.09-.12,0-.11.12a1.35,1.35,0,0,0,.06.34c0,.09-.11.17,0,.26a.83.83,0,0,1,.15.17C58.05,102,58.05,102,58.08,102.12Zm2.23-23.87-.15.11a.27.27,0,0,1-.09,0l0,.07s0,.09,0,.1c-.22.1-.3.23-.23.45,0,0,.09.07.14.1s.07,0,.07-.08a.14.14,0,0,0,0-.11c-.18,0-.09-.12-.11-.16h.14c0-.11,0-.15.13-.13s0-.07,0-.1,0-.13.07-.19l.09-.12a.81.81,0,0,0-.16,0,.58.58,0,0,0-.16,0v0ZM58,121.08v.07l2.07.13v0Zm.33-16.63c.16-.15-.13-.28,0-.42h0a.66.66,0,0,0-.2-.14s-.08.06-.13.1l.18.13,0,0-.21,0c.13.26.17.28.33.19Zm.12-5.36h-.05c.07.2-.11.23-.2.33s-.1.3.1.4l-.07-.19c.26,0,.17-.26.25-.39S58.43,99.14,58.42,99.09Zm-.19,17.35s.09,0,.1-.08l.13-.61-.31.25s0,.08,0,.08c.16,0,0,.06,0,.1a.33.33,0,0,0,0,.1C58.36,116.21,58.21,116.36,58.23,116.44Zm2.24-38h0l-.25.38.25.1Zm-2.2,23.75,0-.11-.1.08s0,.06,0,.09,0,0-.05,0l.07,0c.11-.07.11,0,.14.08a.76.76,0,0,0,.08.11c0-.12-.16-.25.07-.32l0-.09Zm.2,16.53a1.13,1.13,0,0,1,.27,0c.06.16.13.06.18,0a1.36,1.36,0,0,1-.12-.12s0-.08,0-.12l-.1,0Zm1.28-3.85h0v1h0Zm-1.41-11.55,0-.33L58.2,103C58,103.15,58.33,103.2,58.34,103.34Zm0-.64-.16.09-.16.07a.5.5,0,0,0-.07.08l.11,0,.16,0C58.44,102.88,58.42,102.78,58.39,102.7Zm1.27-21.07c.29,0,.3,0,.19-.28Zm.54-.32h.07a.84.84,0,0,0-.05-.17s-.11,0-.11,0-.19.12,0,.24l.07-.16Zm-2,19.27,0-.07-.23.13v0c.24-.06,0,.12.12.14ZM60,80l-.05,0-.19.31.12.07Zm-1.5,39,.15,0,0,0-.14-.06a.11.11,0,0,0-.07,0l-.09.08.09.1Zm1.93-39.16-.16,0-.08,0s0,.09,0,.12S60.31,80,60.39,79.89Zm-2.12,21,.16-.35,0,0C58.34,100.62,58.19,100.69,58.27,100.89ZM60,80.68c0-.08.09-.14.12-.2s0,0,0-.06,0,0,0,0c0,.18-.08-.06-.15,0Zm-1.43,38.1c0,.13.08.2.32.23Zm.16-5.43-.14-.29-.07.12a.42.42,0,0,1,.11.13S58.64,113.35,58.73,113.35Zm.17,5.29H59c0-.24,0-.24-.08-.28a.58.58,0,0,1,0,.14A.66.66,0,0,1,58.9,118.64Zm-.43-3.2v0l-.13,0-.1,0s.05.09.08.1A.92.92,0,0,0,58.47,115.44Zm-.15-14.19h.07l0-.29h-.06Zm0-3.92-.06,0,.09.27,0,0Zm-.43,16,.08,0-.07-.17-.06,0A1.09,1.09,0,0,0,57.93,113.32Zm1.6,7.79v-.06l-.29,0v0ZM58,115.71s.06,0,.06,0,0-.12,0-.17,0,0,0,0-.08.09-.11.14S57.94,115.67,58,115.71Zm2.38-36.43a1.09,1.09,0,0,1,0-.14l.1-.11C60.33,79,60.31,79.08,60.35,79.28Zm-.76,38.44h0v-.29h0Zm-1.19-4.06h-.07l0,.18s.06,0,.06,0A.84.84,0,0,0,58.4,113.66Zm-.46,2.75,0,0,0,.3h0Zm.28,2.59-.22.15.16.08Zm0-16.48-.14-.12,0,0a.64.64,0,0,0,.1.13Z"/><path d="M76.62,84.09c.55,1,1.11,1.91,1.65,2.87A5.32,5.32,0,0,0,80,88.77a3.69,3.69,0,0,1,1,.87,2.49,2.49,0,0,1,.15.28c.31.51.62,1,.92,1.54s.55,1,.84,1.51l1.28,2.17,1.38,2.36,1.79,3.12,1.17,2c.24.43.47.86.72,1.29s.66,1.11,1,1.66l1.62,2.78c.23.4.5.78.7,1.19a3.71,3.71,0,0,1,.1.68,6.21,6.21,0,0,0,.2.74.26.26,0,0,0,.18.09.63.63,0,0,1,.65.78,1.3,1.3,0,0,1-.58.82,18.55,18.55,0,0,1-1.66,1.12c-.69.41-1.41.76-2.13,1.11a5.6,5.6,0,0,1-1.54.52.76.76,0,0,1-.77-.37.49.49,0,0,1,0-.66c0-.06,0-.25-.07-.33a5.09,5.09,0,0,0-.69-.62,1.45,1.45,0,0,1-.39-.5c-.18-.33-.36-.66-.53-1s-.49-.93-.75-1.39c-.36-.66-.74-1.31-1.11-2s-.75-1.38-1.12-2.07c0,0,0-.07,0-.1-.47-.84-.94-1.67-1.4-2.51-.35-.62-.68-1.25-1-1.87-.21-.38-.44-.74-.65-1.11-.51-.88-1-1.77-1.51-2.66L77,96.9c-.71-1.25-1.44-2.48-2.12-3.75a3,3,0,0,1-.22-1.09,7.37,7.37,0,0,0-.3-1.81,4.86,4.86,0,0,0-.34-.77c-.58-1-1.18-2-1.76-3.08-.22-.39-.45-.79-.66-1.19a.39.39,0,0,1,0-.28.32.32,0,0,0,0-.3c-.34-.67-.67-1.34-1-2a21.71,21.71,0,0,1-1.59-4.17c-.23-.86-.41-1.73-.6-2.6,0-.06,0-.16.1-.21a1.39,1.39,0,0,1,.31-.23c.21-.12.42-.23.64-.33,0,0,.1,0,.14.07.47.44,1,.86,1.4,1.32s1,1.13,1.56,1.69a16.48,16.48,0,0,1,1.54,2c.32.49.63,1,.94,1.48l.57.9a.15.15,0,0,0,.14.07.17.17,0,0,1,.21.11c.25.45.51.89.77,1.33Zm.8,11v.08l.06,0,.15,0c-.17.08-.11.21-.09.33s.09.06.15.1l0-.26c-.11,0-.08-.11-.11-.17l.14,0L77.69,95h-.08c0-.19-.1-.25-.29-.17v-.15l-.1-.09.12,0,.07,0a.61.61,0,0,0,0-.12l-.07,0c-.07.16-.09,0-.14,0s-.06,0-.06,0l0,.41.21.08.12,0-.16.19Zm.69,1.16-.13,0,.22.32-.1-.07.12-.15-.12-.12.17,0v-.23c0,.08,0,.2-.11.09s-.05,0-.08,0Zm9.28,16.07-.07.19s0,0,0,.06l.09.16h0l-.06-.4s0,0-.08,0a1.53,1.53,0,0,0-.3,0s0,.07,0,.1,0,.05.07.05.11,0,.12,0,0-.13.13,0S87.36,112.36,87.39,112.36Zm-2.86-6.16.12.22s0,0,.07,0,0-.06,0-.09l-.07-.22-.1,0a1.71,1.71,0,0,1-.11-.14l-.07-.07,0,.13a.85.85,0,0,0-.17.06,1,1,0,0,0-.16.13l0,0,.33-.52-.06,0-.07.11-.2-.09.1.26L84,106c0-.15-.09-.32-.33-.21v0l.18-.09c-.11,0,0-.24-.2-.08l-.08-.06.19-.34h0l-.1.1,0-.26h0l-.05.08h0l0-.26-.26-.07,0-.12-.17,0c.17-.1.19-.13.09-.27s-.08-.05-.12-.08l-.21-.23c-.06-.06,0-.24-.16-.2,0,0,0,0,0,0,0-.18,0-.18-.19-.25l0,0c.19-.13-.06-.06,0-.11s.11-.17-.07-.23c0,0,0,0,0,0s0-.07-.12-.07a3,3,0,0,1-.23-.27s0-.08,0-.1.1-.07,0-.14a1.05,1.05,0,0,0-.07-.11l.17,0-.35-.26v.11c-.18-.11-.18-.29-.18-.47l-.06.09h0l0-.19h0l-.09.22,0,.07s0,0-.06,0-.11-.23-.17-.34l-.11.11.1-.29c.07.26.2.22.37.12-.08,0-.09-.18-.18,0l-.09-.06c.13-.17-.26-.25-.09-.43,0,0,0,0,0,0a1.53,1.53,0,0,1-.14-.21s0-.09,0-.09c-.22,0-.25-.24-.37-.36s-.09-.19-.18-.23l0,0,.22.19h-.25a.63.63,0,0,1,.09.25c0,.13.24.06.17.23.17.1.21.22.06.36h.18c-.06.08-.17.15,0,.24l.06-.12c0,.1,0,.21,0,.32a.26.26,0,0,0,.07.11l.23.2s0,0,0,0a1.23,1.23,0,0,0,0,.27s.08,0,.13,0l.18,0-.16.12a2.18,2.18,0,0,0,.22.21s.08,0,.13,0a.18.18,0,0,0,0,.06h-.13s0,0-.06,0c.23,0,.15.23.18.38l.15-.09v.32h.06a2,2,0,0,0,.07-.31s-.08,0-.12-.08,0-.09,0-.09c-.17,0-.07-.1-.07-.19A1.27,1.27,0,0,1,82,103c0,.14.11.15.23.11l0,.18c-.22-.16-.22-.15-.34.24l.12-.13a0,0,0,0,1,0,0c0,.15,0,.14,0,.19s0,0,0,.08,0,.28.11.33.16.31.29.42a.12.12,0,0,1,0,.08.46.46,0,0,0,.07-.07s.11-.12.14,0c-.09-.06-.07,0-.1.06s.06.23,0,.34l0,0c.13-.11.08.09.15.09a.28.28,0,0,0,.19.25s0,.11,0,.18,0,.07,0,.08l.4.45.08.08s-.1,0-.1,0a.11.11,0,0,0,0,.1.43.43,0,0,0,.16,0s0,0,0-.08l.09-.16.06,0c-.1.08,0,.25-.2.29a.59.59,0,0,0,.06.14s.08,0,.15.09c-.19.06-.13.12,0,.18l.23.16h0a1.31,1.31,0,0,0,0,.28.75.75,0,0,0,.08.18c.08,0,.19,0,.26,0s0,.12.1.1l0,.06,0,.08.08,0,.11,0a.18.18,0,0,1,0,.29c-.14.09.09.14,0,.21l.14,0,.15,0-.09.18c.14,0,.3,0,.29.18h.16c-.07.16.17.07.15.2,0-.07,0-.14,0-.17s-.11,0-.16,0a1.35,1.35,0,0,1-.39-.72l.08,0s0-.07-.07-.06-.14,0-.15-.11-.07,0-.11,0l-.09-.27c.1-.06.2.14.25,0s0-.11-.06-.17l0,0,0,.14h0l-.11-.16-.08.18c-.1-.21.09-.25.12-.31l-.42-.16.09-.06c0,.06.09.13.15,0a.68.68,0,0,1,.12-.12,2.23,2.23,0,0,1,0-.23A.31.31,0,0,1,84.53,106.2Zm1.84,4.44,0,.15h.06l0-.07h.21l-.27.24-.19-.12a.22.22,0,0,0,.08.15s.08,0,.11,0l0,.13.07-.07s.07.11.06.13,0,.18.08.25a.87.87,0,0,0,.17.16l.13,0,.06-.23.07.32.09-.16h0l0,.25-.28-.09c.23.16.23.16.09.36l-.23-.38a.73.73,0,0,0,.11.36c.07.1.17.12.25,0a.2.2,0,0,1,.14-.1c.06,0,.1.08.15.13l0,.11-.15-.16,0,.08c.14.12.27.25.41.36s.15,0,.17-.09-.1,0-.1,0a.26.26,0,0,0-.15-.31c-.13-.09,0-.22-.08-.33.1.22.2.3.26.25s-.14-.23-.13-.33-.06-.14-.13-.17.18.07.24,0c.16.1-.08.11,0,.18a.66.66,0,0,1,0,.09l.25-.3c-.33,0-.14-.25-.18-.4l-.18.39,0,0,.12-.34-.22.09a1.62,1.62,0,0,0,0-.19l.2,0s0,0,.06,0,0,0,0-.06-.13,0-.18,0l-.05.11h0c0-.11-.2,0-.2,0,0-.22-.11,0-.14,0l0-.13h0l-.09.23-.22-.17.11-.18h-.28l.13-.1c-.15-.1,0-.14,0-.21a1.37,1.37,0,0,0-.23.19s.06.08.09.12l-.09,0-.14-.22-.06,0ZM69.27,77.33a.7.7,0,0,0,.11.55.19.19,0,0,0,.1,0s0,0,.06-.06a.11.11,0,0,0,0-.06c-.11,0-.12-.2-.11-.23s0-.18-.12-.23,0-.1-.16-.11l0,.14ZM79.68,99.2c.07.06.18.11.22.18s.19.13.32.11c-.06-.07-.18-.11-.19-.18s-.18-.17-.31-.18l-.21-.22C79.48,99,79.56,99.21,79.68,99.2Zm-4.47-8.73a.83.83,0,0,1,.18-.08s0,0,.06,0,0,0,0,0c-.22.06-.15.23-.12.38.1.46.2.93.31,1.39.05.21.21.38.34.34a1.19,1.19,0,0,0,.35-.15c.34-.22.68-.43,1-.67a1.33,1.33,0,0,0,.44-.47.49.49,0,0,0,0-.45c-.17-.33-.37-.64-.56-1a.92.92,0,0,0-.14-.13.39.39,0,0,0-.08-.14c-.12-.08-.2-.22-.38-.18,0,0-.06,0-.07-.05s-.11-.07-.18,0l-.08-.2,0,.14a.76.76,0,0,0-.19-.07c-.08.17-.28.09-.42.19s-.21.14-.2.3l0-.11-.2.17c.28,0,.09.13,0,.24h.22C75.11,90.15,75.24,90.31,75.21,90.47ZM79,98.06l.11-.21.09,0-.14-.11s0,0-.08,0,0-.08-.09-.09-.17-.12-.2-.23l.21.06v0a1.13,1.13,0,0,0-.18-.12,1.25,1.25,0,0,0-.19,0l.06-.19-.08,0s0,.09,0,.1-.1.07,0,.16a1.86,1.86,0,0,0,.22.27c.07.06,0,.2.13.22a.83.83,0,0,1,.22.08C79,98,79,98,79,98.06ZM69,76.27a1.22,1.22,0,0,1-.09.17s0,0-.06,0l.07,0s.05.07,0,.09a.33.33,0,0,0,0,.5s.11,0,.17,0a.14.14,0,0,0,0-.1s-.08-.08-.09-.07S69,76.9,69,76.87l.13-.07c-.09-.08-.07-.13,0-.17s0-.08,0-.12a1.62,1.62,0,0,0,0-.2.78.78,0,0,1,0-.14.59.59,0,0,0-.14.06,1.42,1.42,0,0,0-.12.13l0,0Zm19.38,38.27,0,.06,1.86-.92,0,0Zm-8-14.57c.06-.21-.25-.17-.2-.37h0a1.06,1.06,0,0,0-.25,0s0,.1,0,.15l.21,0v0l-.21.06c.24.16.29.16.38,0Zm-2.57-4.7,0,0c.16.14,0,.26,0,.39s.06.3.28.29l-.15-.12c.21-.15,0-.31,0-.47S77.85,95.31,77.82,95.27Zm8.5,15.12s.06-.09.05-.12-.12-.36-.19-.59a3.72,3.72,0,0,0-.14.37s0,.07,0,.07c.16-.06,0,0,.07.09s0,.05.05.08C86.32,110.13,86.27,110.33,86.32,110.39Zm-17-34,0,0,0,.46.26,0Zm10,21.67L79.16,98l0,.13s0,0,0,.07a.14.14,0,0,1,0,.07s.07,0,.08,0,.11,0,.16,0l.12,0c-.06-.1-.26-.13-.09-.3l-.09-.07Zm8.43,14.21c.11-.06.21-.15.24-.13s.14,0,.17-.06a.49.49,0,0,1-.16,0s-.06,0-.09-.08a.36.36,0,0,0-.07.1S87.73,112.15,87.68,112.26Zm-.81-4h0l.47.82h0Zm-7-9.3-.15-.3-.17,0C79.52,99,79.79,98.87,79.88,99Zm-.28-.58-.1.16-.1.14a.36.36,0,0,0,0,.11.6.6,0,0,0,.08-.08,1.31,1.31,0,0,0,.12-.11C79.72,98.54,79.66,98.47,79.6,98.41ZM70.16,79.53c.25-.16.25-.18,0-.34Zm.31-.55,0,0s-.08-.1-.13-.12-.1,0-.1,0-.1.19.08.22l0-.17Zm7.91,17.68-.06,0-.13.23v.05c.18-.17.09.07.17.06ZM69.61,78h-.07v.36h.14Zm18.22,34.56.15-.06v0h-.16l0,.06a.84.84,0,0,1,0,.12l.14,0ZM69.93,77.66l-.17,0h-.09s0,.08,0,.11S69.9,77.79,69.93,77.66ZM78.59,96.9l0-.39h-.06C78.51,96.63,78.41,96.77,78.59,96.9ZM70,78.53a1.76,1.76,0,0,0,0-.23s0,0,0,0,0,0,0,0c0,.18-.1,0-.11.1Zm17.81,33.71c.06.13.17.14.39.05Zm-2.58-4.78-.26-.18v.14l.16,0S85.14,107.51,85.21,107.46ZM88,112l0,0c-.07-.23-.07-.23-.21-.2l.1.11A.67.67,0,0,1,88,112Zm-2-2.56,0,0-.12,0-.1,0s.08,0,.12,0S86,109.43,86,109.4ZM78.81,97.18l.06,0-.1-.27-.07,0Zm-1.92-3.41,0,0,.22.19,0,0Zm7.62,14.06,0,0-.14-.12,0,.06Zm5.27,6,0,0-.27.13,0,0Zm-4-3.9s0,0,0-.06l-.08-.15,0,0a.58.58,0,0,0,0,.18S85.69,109.87,85.73,109.88ZM69.58,77.15a1.25,1.25,0,0,1,0-.15.89.89,0,0,1,0-.14C69.45,77,69.44,77,69.58,77.15Zm18.56,33.67,0,0-.17-.25,0,0Zm-3-2.92-.08,0,.06.18s.06,0,.06,0S85.1,108,85.09,107.9Zm1,2.6-.06,0,.13.27,0,0Zm1.54,2.12-.12.23h.18ZM79.34,98.35l-.19,0s0,.07,0,.07l.14.06S79.31,98.39,79.34,98.35Z"/><path d="M86.08,73.18,89,74.84a5.21,5.21,0,0,0,2.41.69,3.62,3.62,0,0,1,1.31.24c.1,0,.19.12.28.17.52.29,1,.58,1.56.88s1,.59,1.49.88c.72.42,1.46.83,2.19,1.24l2.37,1.36,3.12,1.81c.67.39,1.35.77,2,1.17L107,84c.55.32,1.12.62,1.68.94l2.79,1.6c.4.23.82.42,1.2.68.18.12.27.37.42.54a5.49,5.49,0,0,0,.55.53s.15,0,.2,0a.63.63,0,0,1,1,.36,1.29,1.29,0,0,1-.09,1c-.28.61-.55,1.22-.88,1.8s-.84,1.36-1.29,2a5.7,5.7,0,0,1-1.07,1.23.77.77,0,0,1-.85.06.49.49,0,0,1-.3-.59c0-.08-.13-.22-.22-.25a5,5,0,0,0-.91-.2,1.46,1.46,0,0,1-.59-.23l-1-.59c-.44-.28-.89-.57-1.34-.84-.64-.39-1.3-.76-1.94-1.15s-1.34-.82-2-1.23l-.09-.06-2.47-1.47c-.61-.37-1.21-.75-1.82-1.11l-1.12-.64-2.63-1.55-1.38-.8c-1.24-.72-2.49-1.43-3.71-2.19a3,3,0,0,1-.73-.83,7.63,7.63,0,0,0-1.17-1.42,4.69,4.69,0,0,0-.68-.49l-3.06-1.79-1.17-.7a.41.41,0,0,1-.16-.23.31.31,0,0,0-.19-.24c-.62-.41-1.24-.83-1.87-1.23a21.32,21.32,0,0,1-3.46-2.82c-.63-.63-1.22-1.29-1.82-2a.29.29,0,0,1,0-.23,1.89,1.89,0,0,1,.16-.36q.18-.3.39-.6a.24.24,0,0,1,.15,0c.63.14,1.26.27,1.88.45s1.46.45,2.19.68a15,15,0,0,1,2.34,1c.52.26,1,.54,1.55.81l.95.49a.19.19,0,0,0,.15,0c.09-.08.15-.07.25,0l1.32.76Zm6.21,9.16,0,.06,0-.05.15,0c-.11.15,0,.24.09.32s.11,0,.18,0l-.1-.24c-.1,0-.12-.06-.18-.09l.13-.06-.17-.14-.07,0c-.09-.17-.21-.17-.33,0L92,82l-.14,0,.09-.09s0-.06,0-.06l-.09-.08h-.08c0,.17-.06.08-.13,0s-.07,0-.06,0l.22.34.22,0,.12,0,0,.24Zm1.18.66-.1.08.34.17-.12,0,0-.18-.17,0,.17,0-.12-.19c0,.09.08.18-.05.13s0,0-.06.06Zm16.06,9.27c0,.07,0,.14,0,.2s0,0,0,.06a1.29,1.29,0,0,0,.16.09l0,0-.25-.33h-.09l-.28.13a.13.13,0,0,0,0,.1s.06,0,.09,0,.1-.06.1-.08,0-.14.09-.09S109.51,92.3,109.53,92.27ZM104,88.37l.22.14h.08l-.06-.07-.17-.15-.07.08-.16-.07-.1,0,0,.13a.81.81,0,0,0-.12.14,1.46,1.46,0,0,0-.07.19h0l0-.62h-.06v.13l-.22,0,.22.17,0,0c-.12-.1-.24-.23-.39,0l0,0,.11-.17c-.07.08-.13-.2-.21,0h-.1v-.39h0l0,.14-.1-.24h0v.09l0,0-.09-.25a1.11,1.11,0,0,1-.26.07l0-.11-.14.09c.1-.16.1-.2-.06-.28s-.09,0-.14,0l-.3-.1c-.08,0-.1-.22-.24-.09l0,0c-.12-.13-.12-.13-.29-.12h0c.1-.2-.08,0-.09-.07s0-.2-.17-.16c0,0,0,0,0,0s-.06,0-.15,0l-.33-.13s-.08,0-.08-.07,0-.11,0-.14l-.12-.06.16-.06-.43-.05,0,.1c-.22,0-.31-.15-.39-.32v.11h0l-.08-.17h0l0,.24a.17.17,0,0,1,0,.07s-.06,0-.08,0l-.31-.21,0,.16L98.68,86c.2.2.29.09.39-.08-.07,0-.17-.11-.17.07h-.11c0-.22-.34-.09-.29-.33h0l-.22-.11s-.06-.08-.07-.07c-.2.08-.34-.08-.5-.13s-.17-.12-.27-.11v0l.29,0-.23.12c.07.06.16.1.2.17s.24-.06.26.12c.2,0,.29.09.23.28l.16-.09c0,.09-.08.21.11.2V86c.07.08.13.18.19.26a.45.45,0,0,0,.12.06l.3.06s0,0,0,0a1.21,1.21,0,0,0,.15.22s.09,0,.13,0a.63.63,0,0,0,.15-.11l-.08.19a1.63,1.63,0,0,0,.3.07s.07,0,.11-.06,0,0,0,0l-.11.08s0,0,0,.06c.23-.08.25.12.35.24l.09-.16.15.28.06,0a2.46,2.46,0,0,0-.09-.29s-.09,0-.14,0-.06-.08-.07-.08-.11,0-.15-.12a1.51,1.51,0,0,1,.33.13c.11.1.17.08.25,0l.14.14c-.27,0-.27,0-.18.37l0-.17s0,0,0,0,0,.14.15.13,0,0,.07.05.17.23.26.23.29.19.46.22c0,0,0,0,.06.06s0-.06,0-.09,0-.17.14-.06c-.11,0-.06,0-.06.1s.17.17.18.29h0c.06-.16.12,0,.18,0a.28.28,0,0,0,.29.13s.07.09.1.14,0,.08,0,.09l.57.18.11,0-.08.06s0,.09.05.08a.34.34,0,0,0,.15-.06s0-.06,0-.09a1.28,1.28,0,0,0,0-.19h.07c0,.12.09.24,0,.35a.6.6,0,0,0,.13.09.43.43,0,0,0,.17,0c-.13.14,0,.16,0,.17a2.4,2.4,0,0,1,.28,0h0a1.94,1.94,0,0,0,.15.24,1.33,1.33,0,0,0,.16.12c.07,0,.18-.06.23-.13s.07.1.13,0,0,0,0,.06v.09l.08,0,.08-.07a.17.17,0,0,1,.15.24c-.08.16.15.09.11.19l.14,0,.14,0v.19c.12-.07.25-.16.35,0l.13-.09c0,.17.18,0,.23.09,0-.06,0-.13-.08-.15s-.1,0-.15.06a1.26,1.26,0,0,1-.69-.43l0-.08s-.08,0-.09,0-.12.06-.19,0-.07,0-.11,0l-.22-.19c.05-.1.25,0,.19-.16s-.08-.07-.13-.11l0,0,.11.09,0,0-.18-.08,0,.19c-.2-.13,0-.25,0-.32l-.45.07,0-.1c.08,0,.15.07.15-.07a.42.42,0,0,1,0-.16c-.05-.06-.11-.12-.15-.18A.59.59,0,0,1,104,88.37Zm3.81,2.92a.69.69,0,0,0,.13.11l0,0-.06-.05.18-.09-.11.34h-.22a.17.17,0,0,0,.14.09s0-.06.08-.09l.1.09,0-.09s.12.06.11.07c0,.19.12.15.2.19a1.42,1.42,0,0,0,.22.05l.15,0-.07-.23.22.24v-.18h0l.08.23-.28.06c.27,0,.28,0,.25.27l-.39-.22a.77.77,0,0,0,.28.26c.11,0,.21,0,.2-.15s0-.14.08-.15.12,0,.18,0v.12l-.2-.06v.09c.17,0,.35.08.53.1s.13-.06.1-.16-.1,0-.1,0a.29.29,0,0,0-.29-.19c-.16,0-.14-.18-.23-.24.19.14.32.16.35.08s-.25-.12-.29-.22-.11-.09-.19-.07.19,0,.18-.17c.19,0,0,.13,0,.18s0,0,.06.06l.07-.38c-.31.13-.25-.14-.36-.25l0,.43h0L109,91l-.14.18c0-.07,0-.12-.06-.18l.19-.06a.15.15,0,0,0,0-.08l-.06,0c0,.11-.1.06-.16.06V91s0,0,0,0h0c-.1-.08-.18.09-.2.06-.1-.19-.1,0-.13,0l-.1-.1h0l0,.25-.28,0V91l-.23.15,0-.15c-.17,0-.06-.12-.08-.2a1,1,0,0,0-.11.29.69.69,0,0,0,.14.06l0,.09-.23-.12,0,.07ZM76.33,71c0,.13.26.41.38.42a.13.13,0,0,0,.1,0s0,0,0-.07a.11.11,0,0,0-.06,0c-.13,0-.21-.11-.22-.14s-.12-.13-.22-.14,0-.11-.19,0l.08.11Zm20,13.74c.1,0,.21,0,.28,0s.23,0,.33-.07c-.08,0-.21,0-.25,0s-.24-.06-.36,0L96,84.57C96,84.69,96.18,84.8,96.28,84.74ZM88,79.4a1.28,1.28,0,0,1,.12-.15s0,0,.07,0,0,0,0,.05c-.16.17,0,.28.09.39l1,1c.15.16.37.22.47.13a1.39,1.39,0,0,0,.23-.31c.18-.35.36-.71.52-1.08a1.25,1.25,0,0,0,.15-.63.47.47,0,0,0-.26-.37c-.31-.2-.63-.37-1-.55l-.19,0s-.09-.08-.15-.08-.28-.09-.41,0a.08.08,0,0,1-.09,0c-.11-.12-.13,0-.17.08l-.17-.14,0,.15-.2,0c0,.19-.2.22-.27.38s-.11.22,0,.36l-.09-.08-.08.25c.26-.1.14.07.09.22l.19-.12C87.8,79.18,88,79.25,88,79.4Zm7.11,4.67a1.76,1.76,0,0,1,0-.23.18.18,0,0,1,0-.09l-.17,0a.11.11,0,0,0-.08,0c0-.12-.07-.06-.13,0s-.21,0-.29-.1l.21,0v0a1.48,1.48,0,0,0-.21,0,.64.64,0,0,0-.19.08l0-.2-.08,0s.06.06.06.08-.06.11,0,.16a2.19,2.19,0,0,0,.33.12c.09,0,.09.18.22.12a.85.85,0,0,1,.23,0C95.05,84.05,95.05,84.05,95.15,84.07ZM75.6,70.2a.66.66,0,0,1,0,.19s0,0,0,.08a.12.12,0,0,1,.08,0s.08,0,.08.06c0,.24.05.37.28.42,0,0,.1,0,.15-.07s0-.08,0-.1-.11,0-.11,0c-.09.17-.15,0-.2,0l.07-.12c-.11,0-.12-.08-.05-.17s0-.07-.06-.1-.09-.1-.13-.16l-.06-.13a.6.6,0,0,0-.09.13c0,.05,0,.11,0,.16l0,0Zm35.92,23.45.06,0L112.73,92l0,0Zm-14.23-8.6c-.06-.21-.31,0-.37-.22h0a.88.88,0,0,0-.22.1s0,.11,0,.16l.2-.09v0l-.15.16c.29,0,.32,0,.33-.2Zm-4.58-2.79,0,0c.2,0,.14.22.18.34s.21.23.4.11l-.2,0c.11-.25-.14-.29-.21-.42S92.75,82.28,92.71,82.26Zm14.92,8.84s0-.1,0-.12-.28-.26-.46-.42c0,.16,0,.28.06.39a.22.22,0,0,0,.06,0c.1-.13.07,0,.1,0l.08,0C107.5,90.88,107.55,91.08,107.63,91.1ZM75.86,70.17l0,0,.2.41.22-.16ZM95.33,84l-.11,0a.59.59,0,0,0,0,.13s.05,0,.07,0,0,.05,0,.07.06,0,.06,0,.07-.09.14-.08a.29.29,0,0,0,.13,0c-.1-.06-.29,0-.24-.21l-.1,0Zm14.41,8.1c.07-.11.11-.24.14-.23s.12-.09.12-.15a.47.47,0,0,1-.16,0,.25.25,0,0,1-.12,0,.25.25,0,0,0,0,.12A1.52,1.52,0,0,0,109.74,92.05Zm-2.69-3v0l.82.47v0Zm-10.7-4.56-.28-.19-.13.13C96,84.61,96.21,84.39,96.35,84.45Zm-.54-.36c0,.08,0,.13,0,.19a.88.88,0,0,0,0,.17.38.38,0,0,0,0,.1s0-.07,0-.11a.83.83,0,0,1,0-.15C96,84.14,95.9,84.11,95.81,84.09ZM78.2,72.46c.13-.26.13-.28-.15-.31Zm0-.64,0,0a.38.38,0,0,0-.17,0s-.08.07-.07.08,0,.22.18.16l-.11-.14Zm15.7,11.36h-.07v.26l0,0c.07-.23.12,0,.18,0ZM77,71.39l-.06,0,.17.31.12-.07ZM110,92.21l.1-.12,0,0-.13.1s0,0,0,.06l0,.13.14,0ZM77.06,71l-.12.12-.07,0s0,.07.09.08S77.11,71.08,77.06,71ZM94.18,83.29,94,83l0,0C94,83.1,94,83.26,94.18,83.29ZM77.55,71.69a2.21,2.21,0,0,1-.11-.21h-.07l0,0c.14.13-.09,0,0,.15ZM109.82,92c.12.07.22,0,.37-.16Zm-4.62-2.86-.31,0,.07.12a.62.62,0,0,1,.16,0S105.16,89.2,105.2,89.12Zm4.67,2.5,0,0c-.17-.17-.17-.17-.27-.07l.13,0Zm-3-1.22,0,0a.76.76,0,0,1-.08.11l-.06.08s.1,0,.12,0A.46.46,0,0,0,106.88,90.4Zm-12.36-7,0,0-.22-.18,0,0Zm-3.37-2,0,.06.29.06v0Zm13.63,8.37,0-.08-.19,0s0,.07,0,.07Zm7.54,2.51,0,0-.17.24,0,0ZM106.87,91s0-.06,0-.07l-.14-.09s0,0,0,0a.77.77,0,0,0,.07.16S106.82,91,106.87,91ZM76.51,70.68a.44.44,0,0,1-.09-.11.58.58,0,0,1,0-.14C76.3,70.58,76.32,70.62,76.51,70.68Zm32.91,19.89,0-.06-.26-.13,0,0Zm-4.11-1,0,.06.14.13s0,0,0-.06Zm2.15,1.77,0,0,.24.18,0,0Zm2.39,1.06,0,.27.15-.1ZM95.56,84.17l-.18.06a.39.39,0,0,1,0,.06l.16,0Z"/><path d="M88.81,59h3.32a5.29,5.29,0,0,0,2.43-.6A3.34,3.34,0,0,1,95.82,58c.11,0,.22,0,.33,0l1.78,0,1.73,0h2.52l2.74,0h5.93l1.49,0,1.93,0h3.21c.46,0,.93,0,1.38,0a2.87,2.87,0,0,1,.64.26,6.17,6.17,0,0,0,.74.19c.05,0,.14-.06.17-.11a.64.64,0,0,1,1-.18,1.38,1.38,0,0,1,.42.92,19,19,0,0,1,.14,2c0,.8,0,1.61-.1,2.41a5.76,5.76,0,0,1-.32,1.59.77.77,0,0,1-.7.48c-.31,0-.44-.11-.56-.36A.34.34,0,0,0,120,65a4.48,4.48,0,0,0-.88.27,1.39,1.39,0,0,1-.63.1l-1.12,0-1.58-.06-2.26,0c-.79,0-1.57,0-2.35-.06H111l-2.88,0L106,65.1c-.43,0-.86,0-1.29,0l-3,0c-.53,0-1.07,0-1.6,0-1.43,0-2.87,0-4.3,0a3.2,3.2,0,0,1-1.05-.36A8.33,8.33,0,0,0,93,64a4.78,4.78,0,0,0-.84-.08l-3.55,0-1.36,0a.33.33,0,0,1-.25-.11.34.34,0,0,0-.28-.12l-2.24-.13a21.24,21.24,0,0,1-4.41-.71c-.86-.23-1.7-.51-2.55-.77-.06,0-.11-.12-.13-.19a1.72,1.72,0,0,1,0-.39,5.53,5.53,0,0,1,0-.71s.07-.08.12-.1c.61-.18,1.23-.39,1.85-.55s1.49-.34,2.24-.5a15.27,15.27,0,0,1,2.51-.33c.58,0,1.17,0,1.75-.08l1.07,0a.18.18,0,0,0,.13-.08.16.16,0,0,1,.2-.13h1.53Zm10,4.83.07,0v-.06l.1-.11c0,.18.13.2.24.23s.1,0,.16-.07l-.2-.17c-.06.1-.13,0-.2,0l.08-.11-.22,0s0,.05,0,.07c-.17-.1-.27,0-.29.17l-.13-.08-.13,0,0-.12a.32.32,0,0,0,0-.08.25.25,0,0,0-.12,0s-.06,0-.06,0,0,.1-.09.11,0,.05,0,0l.37.19.17-.14.08-.09.08.23Zm1.35,0,0,.12.37,0-.1.05-.07-.18-.16,0,.13-.12-.21-.1c0,.07.17.12,0,.14s0,.05,0,.08Zm18.55,0,.14.15s0,0,0,0a1.2,1.2,0,0,0,.19,0l0,0-.39-.15a.3.3,0,0,0-.08,0,2.2,2.2,0,0,0-.17.25.17.17,0,0,0,.07.08.15.15,0,0,0,.08,0s.06-.1,0-.12-.09-.11,0-.12S118.67,63.84,118.67,63.81Zm-6.76-.61h.26l.07,0-.09,0-.21,0,0,.11-.18,0-.1,0,.09.1a1.08,1.08,0,0,0,0,.19,1.62,1.62,0,0,0,0,.2h0l-.28-.54-.06,0,.06.11-.18.13.28.05v0c-.16,0-.33-.07-.35.19l0,0v-.2c0,.1-.21-.11-.17.13l-.09,0-.19-.34,0,0,0,.13-.21-.15,0,0,0,.09,0,0-.19-.18a1.8,1.8,0,0,1-.19.2l-.09-.09-.07.15c0-.19,0-.22-.19-.21s-.08.05-.13.07l-.3.06c-.09,0-.2-.14-.26,0h0c-.18,0-.18,0-.32,0l0,0c0-.22-.08,0-.11,0s-.1-.19-.24-.06l-.05,0c-.08,0-.08,0-.12.07l-.35.06s-.1,0-.1,0,0-.13-.11-.11h-.13l.11-.12-.4.17.09.06a.44.44,0,0,1-.49-.08l0,.1,0,0-.15-.11,0,0,.14.19,0,.06-.07,0-.38,0,0,.15-.21-.23c.27.07.29-.07.29-.26,0,.06-.2,0-.1.14l-.1.06c-.09-.21-.34.09-.42-.15h0a1,1,0,0,1-.25,0s-.08,0-.09,0c-.14.17-.33.1-.5.13s-.2,0-.29,0l0,.05.27-.1-.13.21a1,1,0,0,1,.26,0c.11.06.17-.17.28,0,.17-.1.3-.07.34.13l.09-.16c0,.09,0,.23.2.13l-.07-.12.29.13a.29.29,0,0,0,.13,0l.29-.09,0,0a1.67,1.67,0,0,0,.23.12s.08-.05.11-.09a.84.84,0,0,0,.07-.16l0,.2a2.46,2.46,0,0,0,.29-.09s0-.07.07-.11l.06,0-.06.12a.35.35,0,0,1,0,.07c.16-.18.28,0,.42,0v-.18l.27.16,0,0c-.08-.07-.15-.15-.23-.21s-.08,0-.12.06l-.1,0c-.08.15-.12,0-.2,0a1.24,1.24,0,0,1,.36-.05c.14,0,.18,0,.2-.14l.19,0c-.25.11-.25.11,0,.42l0-.18s0,0,0,0,.1.11.2,0,0,0,.08,0,.26.11.34.07.35,0,.51,0,.06,0,.08,0a.29.29,0,0,0,0-.09c0-.07,0-.16.09-.12-.1,0,0,.06,0,.12s.24.06.31.16h0c0-.17.13,0,.16-.09a.27.27,0,0,0,.31,0s.11,0,.16.07,0,.07.06.07l.59-.13.11,0s0,.08,0,.09.08.06.09.05a.38.38,0,0,0,.09-.13s0-.05,0-.08a.86.86,0,0,1-.1-.16l.06,0c0,.12.19.16.14.31a.47.47,0,0,0,.16,0s.08,0,.15-.08c0,.19,0,.17.13.12l.26-.11h0l.25.12a.82.82,0,0,0,.21,0c0-.07.12-.15.12-.23s.12.05.14,0l0,.06A.35.35,0,0,0,113,64s0,0,0-.07a1,1,0,0,0,0-.1.18.18,0,0,1,.25.14c0,.17.17,0,.18.11l.11-.09.1-.12.11.16c.06-.12.13-.26.3-.16s0-.1.07-.14c.1.14.15-.12.25,0s-.1-.09-.14-.08-.07.08-.11.12a1.25,1.25,0,0,1-.81,0v-.09s-.09,0-.09,0-.07.12-.17.08-.06,0-.09.06l-.29-.06c0-.11.23-.1.09-.23s-.11,0-.17,0v.05l.14,0v0l-.2,0,.12.16c-.24,0-.17-.2-.21-.26l-.35.29v-.11c.07,0,.16,0,.09-.13a.84.84,0,0,1-.05-.17l-.22-.07S111.94,63.24,111.91,63.2Zm4.77.63.15,0s0,0,0,0h-.08l.11-.17L117,64l-.19.1a.2.2,0,0,0,.17,0s0-.08,0-.12l.13,0,0-.1h.14c0,.18.17.07.26.06a.63.63,0,0,0,.22-.07l.11-.09-.17-.16.31.1-.09-.16,0,0,.19.17-.21.19c.25-.12.25-.11.35.11h-.44a.59.59,0,0,0,.37.08c.12,0,.19-.08.1-.22a.21.21,0,0,1,0-.17s.12,0,.18-.07l.07.1-.21.05,0,.07c.18-.06.35-.1.51-.17s.09-.13,0-.2l-.09.07a.27.27,0,0,0-.34,0c-.15.08-.21-.08-.32-.09.23,0,.35,0,.34-.1s-.28,0-.36,0-.14,0-.2,0c-.07-.1.15-.12.07-.23.17-.09,0,.11.13.13l.09,0L118,62.9c-.21.27-.29,0-.44,0l.25.35,0,0-.23-.27,0,.23-.14-.13.13-.15s0-.06,0-.08,0,0-.07,0-.05.11-.11.14l.07.09h0v0c-.13,0-.12.17-.15.15-.18-.12-.07.09-.1.1l-.13,0,0,0,.16.19-.26.1-.11-.18-.12.24,0-.15c-.16.08-.11-.07-.17-.13a1,1,0,0,0,0,.3s.1,0,.15,0v.1l-.26,0v.07ZM79.28,62a.7.7,0,0,0,.54.18.12.12,0,0,0,.07-.07.08.08,0,0,0,0-.08H79.8c-.09.09-.24,0-.26,0s-.17-.06-.26,0-.06-.09-.18.08l.14,0Zm24.15,1.93c.09,0,.18-.11.26-.1s.21-.11.26-.23-.19.1-.25.08-.24.07-.31.18l-.3.06C103.18,64,103.37,64,103.43,63.91Zm-9.8-.5c0-.09,0-.15,0-.2l.06,0s0,0,0,0c0,.23.13.25.27.3l1.36.42c.21.06.43,0,.47-.12a1.2,1.2,0,0,0,0-.38c0-.4,0-.8-.09-1.2a1.4,1.4,0,0,0-.19-.62.46.46,0,0,0-.41-.19c-.36,0-.73,0-1.1,0a.83.83,0,0,0-.18,0s-.12,0-.17,0-.29.06-.34.23a.08.08,0,0,1-.08,0c-.16,0-.12.07-.11.16l-.21,0,.09.12-.15.12c.1.16-.07.29,0,.46s0,.26.16.33l-.12,0,.06.25c.17-.22.16,0,.19.14l.1-.19C93.31,63.33,93.51,63.3,93.63,63.41Zm8.49.49-.13-.2a.34.34,0,0,1,0-.1.85.85,0,0,0-.17.06l-.06.05c-.07-.09-.08,0-.12,0s-.19.09-.3.06l.16-.15,0,0a.5.5,0,0,0-.31.25l-.14-.15-.06.06.09,0c0,.12,0,.13.12.12s.23,0,.34-.06.17.11.26,0a.87.87,0,0,1,.17-.16C102,63.93,102,63.93,102.12,63.9ZM78.25,61.66l.11.16s0,0,0,.08l.07,0h.1c.1.22.23.3.45.23,0,0,.07-.09.1-.14a.19.19,0,0,0-.08-.07.19.19,0,0,0-.11,0c0,.19-.12.09-.16.11v-.14c-.11,0-.15,0-.13-.12s-.07,0-.1-.06l-.19-.07-.12-.09a.92.92,0,0,0,0,.16.49.49,0,0,0,0,.16h0ZM121.08,64h.07l.13-2.07h0Zm-16.63-.33c-.15-.15-.28.14-.42,0h0a.7.7,0,0,0-.14.21s.06.08.1.12l.13-.18,0,0,0,.21c.26-.13.28-.17.19-.33Zm-5.36-.12v.05c.2-.06.23.12.33.2s.3.1.4-.1l-.19.08c0-.27-.26-.18-.39-.26S99.14,63.54,99.09,63.55Zm17.35.19s0-.08-.08-.09l-.61-.13.25.31h.08c0-.17.06,0,.1,0h.1C116.21,63.61,116.36,63.76,116.44,63.74Zm-38-2.23v0l.38.26.1-.26Zm23.75,2.19-.11,0a.44.44,0,0,0,.08.1s.06,0,.09,0,0,0,0,0a.21.21,0,0,0,0-.07c-.07-.11,0-.11.08-.14s.07,0,.11-.07c-.12,0-.25.16-.32-.07l-.09,0Zm16.53-.19a1.08,1.08,0,0,1,0-.27c.16-.07.06-.13,0-.19a.68.68,0,0,1-.12.12l-.12,0a.37.37,0,0,0,0,.11A2.25,2.25,0,0,0,118.74,63.51Zm-3.85-1.29v0h1v0Zm-11.55,1.41-.33,0-.05.18C103.15,63.93,103.2,63.64,103.34,63.63Zm-.64-.05a1.46,1.46,0,0,1,.09.16s0,.11.07.16.06.05.08.08a.5.5,0,0,0,0-.12.76.76,0,0,1,0-.16C102.88,63.54,102.78,63.56,102.7,63.58ZM81.63,62.31c0-.29,0-.3-.28-.19Zm-.32-.54v-.06a.48.48,0,0,0-.17,0s0,.1,0,.11.12.18.24,0l-.16-.06Zm19.27,2-.07,0,.13.23h0c-.06-.23.12,0,.14-.11ZM80,62l0,.06.31.18.07-.11Zm39,1.5,0-.15,0,0-.06.15a.11.11,0,0,0,0,.06l.08.09.1-.09ZM79.89,61.58a1,1,0,0,1,0,.16l0,.08a.27.27,0,0,0,.12,0C80,61.8,80,61.67,79.89,61.58Zm21,2.12-.35-.16,0,.06C100.62,63.64,100.69,63.79,100.89,63.7ZM80.68,62l-.2-.13-.06,0s0,0,0,0c.18.05-.06.09,0,.15Zm38.1,1.43c.13,0,.2-.08.23-.32Zm-5.43-.17-.29.14.12.07a.42.42,0,0,1,.13-.11S113.35,63.33,113.35,63.24Zm5.29-.16v0c-.24-.06-.24-.06-.28.07l.14,0Zm-3.2.43h0a.68.68,0,0,0,0,.14s0,.06,0,.1.09,0,.1-.08A.86.86,0,0,0,115.44,63.51Zm-14.19.14v-.06l-.29-.05v.07Zm-3.92,0,0,.06.27-.09,0,0Zm16,.43,0-.08-.17.07,0,.07Zm7.79-1.59h-.06l0,.3h0ZM115.71,64s0-.06,0-.06h-.17s0,0,0,0a.67.67,0,0,0,.14.11S115.67,64,115.71,64ZM79.28,61.62l-.14,0a.5.5,0,0,1-.11-.1C79,61.64,79.08,61.67,79.28,61.62Zm38.44.77v-.06l-.29,0v0Zm-4.06,1.18v.07l.18,0s0-.06,0-.07Zm2.75.46,0,.06.3,0v0Zm2.59-.27.15.21.08-.16Zm-16.48,0-.12.14s0,0,0,0a.6.6,0,0,0,.13-.09Z"/><path d="M84.09,45.36,87,43.7A5.32,5.32,0,0,0,88.77,42a3.51,3.51,0,0,1,.87-1c.08-.06.19-.1.28-.16l1.54-.91L93,39l2.17-1.27c.78-.46,1.57-.93,2.36-1.38l3.12-1.79c.68-.39,1.35-.79,2-1.17l1.29-.73c.56-.32,1.11-.65,1.66-1l2.78-1.62c.4-.23.78-.5,1.19-.7a3,3,0,0,1,.68-.09,6.25,6.25,0,0,0,.74-.21s.09-.12.09-.18a.64.64,0,0,1,.78-.65,1.31,1.31,0,0,1,.82.59c.39.54.79,1.08,1.12,1.65s.76,1.41,1.11,2.13a5.55,5.55,0,0,1,.52,1.55.74.74,0,0,1-.37.76.48.48,0,0,1-.66,0,.39.39,0,0,0-.33.08,5,5,0,0,0-.62.68,1.48,1.48,0,0,1-.5.4l-1,.53-1.39.74c-.66.37-1.31.75-2,1.11l-2.07,1.12-.1.05L103.92,41c-.62.34-1.25.67-1.87,1-.38.2-.74.43-1.11.65l-2.66,1.5L96.9,45c-1.25.71-2.48,1.44-3.75,2.11a3,3,0,0,1-1.09.22,7.87,7.87,0,0,0-1.81.3,4.13,4.13,0,0,0-.77.35L86.4,49.71c-.39.23-.79.45-1.19.66a.39.39,0,0,1-.28,0,.32.32,0,0,0-.3,0c-.67.34-1.34.66-2,1A21.68,21.68,0,0,1,78.46,53c-.86.23-1.73.41-2.6.61a.32.32,0,0,1-.21-.1,1.44,1.44,0,0,1-.23-.32c-.12-.2-.23-.42-.33-.63a.17.17,0,0,1,.07-.14c.44-.48.86-1,1.32-1.41s1.13-1,1.69-1.56a17.55,17.55,0,0,1,2-1.54L81.66,47c.3-.19.6-.37.9-.57a.15.15,0,0,0,.07-.13.18.18,0,0,1,.11-.22l1.33-.76Zm11-.8.08,0,0,0,0-.15c.08.16.21.11.33.08s.06-.09.1-.14l-.26-.05c0,.12-.11.09-.17.12l0-.14-.21.08a.56.56,0,0,1,0,.07c-.19,0-.25.11-.17.3h-.15l-.09.11,0-.13,0-.07-.12,0,0,.07c.16.08,0,.1,0,.14a.12.12,0,0,0,0,.06l.41,0a1.94,1.94,0,0,0,.08-.21l0-.12.19.17Zm1.16-.69,0,.12.32-.21-.07.09-.15-.12-.12.12,0-.17h-.23c.08,0,.2,0,.09.12s0,.05,0,.07Zm16.07-9.28.19.06a.07.07,0,0,0,.06,0l.16-.09v0l-.4.06s0,0,0,.07a1.63,1.63,0,0,0,0,.31l.1,0a.12.12,0,0,0,.05-.07s0-.12,0-.13-.13,0,0-.12S112.36,34.62,112.36,34.59Zm-6.16,2.85a2.39,2.39,0,0,0,.22-.12s0,0,0-.06h-.09l-.22.07,0,.1-.14.11-.07.07.13,0a1,1,0,0,0,.06.18,1,1,0,0,0,.13.16l0,0-.52-.33,0,.06.11.07-.09.2.26-.1,0,0c-.15.06-.32.1-.21.33h0l-.09-.18c0,.1-.24,0-.08.2l-.06.07-.34-.19v0l.1.09-.26,0v0l.08,0v.05l-.26-.05a2,2,0,0,1-.07.26s-.08,0-.12,0l0,.16c-.1-.17-.13-.19-.27-.09s-.05.09-.08.12l-.23.21c-.06.06-.24,0-.2.17h0c-.18.05-.18.05-.25.19l0,0c-.13-.19-.06.06-.11,0s-.17-.12-.23.06a0,0,0,0,1,0,0c-.07,0-.07,0-.07.13s-.17.15-.27.22-.08,0-.1,0-.07-.11-.14-.05l-.11.07,0-.16-.26.35h.11a.45.45,0,0,1-.47.18l.09.07v0l-.19,0v0l.22.09.07,0s0,0,0,.06l-.34.17.11.12-.29-.1c.26-.08.22-.21.12-.37,0,.07-.18.08,0,.17l-.06.1c-.17-.13-.25.25-.43.08l0,0-.21.13s-.09,0-.09,0c0,.21-.24.25-.36.36s-.19.09-.23.19l0,0,.19-.22v.25a.84.84,0,0,1,.25-.09c.13,0,.06-.23.23-.17.1-.17.22-.2.36-.05v-.18c.08.05.15.17.24,0l-.12-.06.32,0s.08,0,.11-.07l.2-.22h0a1.23,1.23,0,0,0,.27,0s0-.08,0-.12a1.41,1.41,0,0,0,0-.18l.12.16a2.29,2.29,0,0,0,.21-.23s0-.08,0-.12h.06s0,.08,0,.13,0,0,0,.06c0-.24.23-.16.38-.18l-.09-.16h.32V40L103.1,40s0,.07-.08.11l-.09,0c0,.18-.1.07-.19.07.11-.08.18-.18.28-.21s.15-.12.11-.23l.18-.06c-.16.22-.15.22.24.35l-.13-.13h0c.15,0,.14,0,.19-.06s0,0,.08,0,.28,0,.33-.11.31-.15.42-.29l.08,0-.07-.07s-.12-.11,0-.14c-.06.09,0,.07.06.1s.23-.06.34,0l0,0c-.11-.13.09-.09.09-.16a.28.28,0,0,0,.25-.19s.11,0,.18,0,.07,0,.08,0l.45-.4.08-.07s0,.09,0,.1.09,0,.1,0a.38.38,0,0,0,0-.15s0,0-.08,0l-.16-.09,0-.06c.08.1.25.05.29.2a.59.59,0,0,0,.14-.06s0-.08.09-.14c.06.18.12.12.18,0s.11-.15.16-.22h0a2.64,2.64,0,0,0,.28,0,.49.49,0,0,0,.18-.08c0-.08,0-.18,0-.26s.12,0,.1-.1l.06,0,.08,0a.19.19,0,0,0,0-.08.36.36,0,0,1,0-.1.18.18,0,0,1,.29,0c.09.15.14-.08.21,0a.69.69,0,0,0,0-.13s0-.1,0-.15l.18.08c0-.14,0-.29.18-.29,0,0,0-.1,0-.16.16.07.07-.17.2-.15-.07,0-.14,0-.17,0s0,.1,0,.15a1.23,1.23,0,0,1-.72.39l0-.08s-.07.06-.06.07,0,.14-.11.16,0,.06,0,.1l-.27.09c-.06-.09.14-.2,0-.24s-.11,0-.17.06l0,.05.14-.05v0l-.16.12.18.07c-.21.11-.25-.08-.31-.12l-.16.42-.06-.08c.06,0,.13-.09,0-.16a.68.68,0,0,1-.12-.12,1,1,0,0,1-.23,0A.31.31,0,0,1,106.2,37.44Zm4.44-1.84.15-.05s0,0,0-.06l-.07,0v-.2l.24.26-.12.19a.16.16,0,0,0,.15-.08s0-.07,0-.11l.13,0-.07-.07s.11-.08.13-.07.18,0,.25-.07a1.37,1.37,0,0,0,.16-.18l0-.13-.23-.05.32-.07-.16-.1v0l.25,0-.09.27c.16-.23.16-.23.36-.08l-.38.22a.73.73,0,0,0,.36-.11c.1-.07.12-.17,0-.25a.2.2,0,0,1-.1-.14c0-.05.08-.1.13-.14l.11,0-.16.14.08,0c.12-.14.25-.26.36-.41s0-.15-.09-.17,0,.1,0,.1a.26.26,0,0,0-.31.15c-.09.14-.22,0-.33.08.22-.09.3-.2.25-.26s-.23.15-.33.14-.14,0-.17.13.07-.19,0-.24c.1-.17.11.07.18,0l.09,0-.3-.25c0,.34-.25.15-.4.19l.39.18,0,0-.34-.12.09.22-.19,0a1.29,1.29,0,0,0,0-.19s0,0,0-.06,0,0-.06,0,0,.12,0,.18l.11,0h0c-.11,0,0,.21,0,.2-.22,0,0,.11,0,.14l-.13,0v0l.23.08a1.84,1.84,0,0,1-.17.22l-.18-.1v.27l-.1-.12c-.1.14-.14,0-.21,0a.87.87,0,0,0,.19.23s.08-.06.12-.09l0,.09-.22.15,0,.05ZM77.33,52.7a.66.66,0,0,0,.55-.11.19.19,0,0,0,0-.1s0-.05-.06-.06a.11.11,0,0,0-.06,0c0,.12-.2.12-.23.12s-.18,0-.23.12-.1-.05-.11.16l.14,0ZM99.2,42.29c.06-.07.11-.18.18-.21s.13-.2.11-.33c-.07.06-.11.19-.18.2s-.17.17-.18.31l-.22.2C99,42.5,99.21,42.41,99.2,42.29Zm-8.73,4.48a1.13,1.13,0,0,1-.08-.19s0,0,0-.06h0c.06.23.23.16.38.13l1.39-.32c.21,0,.38-.2.34-.33a1.14,1.14,0,0,0-.15-.36c-.22-.34-.43-.67-.67-1a1.33,1.33,0,0,0-.47-.44.44.44,0,0,0-.45,0c-.33.16-.64.36-1,.55a.92.92,0,0,0-.13.14s-.11,0-.14.09-.22.2-.18.37,0,.06-.05.07-.07.11,0,.19l-.2.07.14.06a1,1,0,0,0-.07.18c.17.09.09.29.19.42s.14.22.3.21l-.11,0,.17.19c0-.28.13-.09.24,0v-.22C90.15,46.86,90.31,46.73,90.47,46.77Zm7.59-3.83-.21-.11a.56.56,0,0,1,0-.08.69.69,0,0,0-.11.13s0,0,0,.08-.08,0-.09.09-.12.18-.23.2l.06-.2,0,0a1.13,1.13,0,0,0-.12.18,1.2,1.2,0,0,0,0,.2L97,43.35l0,.07s.09,0,.1,0,.07.1.16,0a1.37,1.37,0,0,0,.27-.22c.06-.07.2,0,.22-.13a1.19,1.19,0,0,1,.08-.22C98,43,98,43,98.06,42.94Zm-21.79,10a1.44,1.44,0,0,1,.17.08.15.15,0,0,1,0,.07s0-.06,0-.07.07-.06.09-.05a.32.32,0,0,0,.5,0,.25.25,0,0,0,0-.17.1.1,0,0,0-.1,0s-.08.07-.07.08-.06.14-.09.18l-.07-.12c-.08.08-.13.06-.17,0s-.08,0-.12,0a1.2,1.2,0,0,1-.2,0l-.14,0a.67.67,0,0,0,.06.15l.13.11,0,0Zm38.27-19.39.06,0-.92-1.86,0,0Zm-14.57,8c-.21-.06-.17.26-.37.21v0a1,1,0,0,0,0,.24s.1,0,.15.06l0-.22h0l.06.2c.16-.24.16-.28,0-.38Zm-4.7,2.58,0,0c.14-.15.26,0,.39,0s.3-.07.29-.29l-.12.16c-.15-.22-.31,0-.47,0S95.31,44.12,95.27,44.16Zm15.12-8.51s-.09,0-.12,0l-.59.19.37.14.07,0c-.06-.16,0,0,.09-.06l.08-.05C110.13,35.65,110.33,35.7,110.39,35.65Zm-34,17.05,0,0,.46,0,0-.27Zm21.67-10-.09.09a.65.65,0,0,0,.13,0s0,0,.07,0l.07,0s0-.07,0-.08,0-.1,0-.16a.43.43,0,0,0,0-.12c-.1.06-.13.26-.3.1l-.07.08Zm14.21-8.43c-.06-.11-.15-.21-.13-.23s0-.14-.06-.18a.43.43,0,0,1,0,.16s0,.07-.08.1l.1.07Zm-4,.82v0l.82-.47v0Zm-9.3,7-.3.14,0,.17C99,42.46,98.87,42.18,99,42.1Zm-.58.28.16.09.14.1a.35.35,0,0,0,.11,0l-.08-.09a1.31,1.31,0,0,1-.11-.12C98.54,42.25,98.47,42.31,98.41,42.38ZM79.53,51.81c-.16-.24-.18-.24-.34,0ZM79,51.5l0,0s-.1.07-.12.12,0,.11,0,.11.19.09.22-.08l-.17,0Zm17.68-7.91,0,.06.23.14.05,0c-.17-.17.07-.09.06-.17ZM78,52.36v.07h.36V52.3Zm34.56-18.22a1,1,0,0,0-.06-.14h0a.76.76,0,0,0,0,.15s0,0,.06,0l.12,0,0-.13ZM77.66,52.05l0,.16a.28.28,0,0,1,0,.09l.11,0C77.87,52.17,77.79,52.07,77.66,52.05ZM96.9,43.39l-.39,0v.06C96.63,43.47,96.77,43.56,96.9,43.39ZM78.53,52H78.3s0,0,0,0,0,0,0,0c.18,0,0,.1.1.12Zm33.71-17.81c.13-.06.14-.18.05-.4Zm-4.78,2.57-.18.27h.14a1.56,1.56,0,0,1,0-.16S107.51,36.84,107.46,36.76ZM112,34l0,0c-.23.07-.23.07-.2.2l.11-.1Zm-2.56,2,0,0a1.12,1.12,0,0,1,0,.13l0,.09s0-.08,0-.11S109.43,36,109.4,35.94ZM97.18,43.16l0-.06-.27.11,0,.06Zm-3.41,1.93,0,0,.19-.21,0,0Zm14.06-7.62,0-.06-.12.15.06,0Zm6-5.28,0,0,.13.27,0,0Zm-3.9,4.05s0,0-.06,0l-.15.08s0,0,0,0l.18,0S109.87,36.28,109.88,36.24ZM77.15,52.39l-.15,0-.14,0C77,52.53,77,52.53,77.15,52.39Zm33.67-18.56,0,0-.25.16,0,0Zm-2.92,3.06,0,.07.18-.06s0,0,0,0Zm2.6-1,0,.06.27-.13,0,0Zm2.12-1.53.23.11v-.18ZM98.35,42.64l0,.18.07,0,.06-.15Z"/><path d="M73.18,35.9c.55-1,1.1-1.92,1.66-2.87a5.29,5.29,0,0,0,.69-2.42,3.66,3.66,0,0,1,.24-1.31c0-.1.12-.18.17-.28.29-.52.58-1,.88-1.56s.59-1,.88-1.48c.42-.73.83-1.46,1.24-2.19s.9-1.59,1.36-2.38l1.81-3.11c.39-.68.77-1.35,1.17-2,.25-.42.51-.84.76-1.27s.62-1.12.94-1.68c.53-.93,1.07-1.86,1.6-2.8.23-.39.42-.82.68-1.19.12-.18.37-.28.54-.43a5.39,5.39,0,0,0,.53-.54.2.2,0,0,0,0-.21.63.63,0,0,1,.36-1,1.34,1.34,0,0,1,1,.1,19.88,19.88,0,0,1,1.8.87c.69.4,1.36.84,2,1.29a5.75,5.75,0,0,1,1.23,1.08.77.77,0,0,1,.06.85.49.49,0,0,1-.59.29c-.08,0-.22.13-.25.23a4.61,4.61,0,0,0-.2.91,1.58,1.58,0,0,1-.23.59l-.59.95c-.28.45-.57.89-.84,1.34-.39.65-.76,1.3-1.15,1.95s-.82,1.33-1.23,2l-.06.09-1.47,2.48c-.37.6-.75,1.21-1.11,1.82-.22.36-.42.74-.64,1.11-.51.88-1,1.76-1.55,2.63l-.8,1.39c-.72,1.23-1.43,2.49-2.19,3.7a2.8,2.8,0,0,1-.83.73,8,8,0,0,0-1.42,1.17,4.79,4.79,0,0,0-.49.69c-.6,1-1.19,2-1.79,3.06-.23.39-.46.78-.7,1.16a.36.36,0,0,1-.23.16.31.31,0,0,0-.24.19c-.41.63-.83,1.24-1.23,1.87a21.32,21.32,0,0,1-2.82,3.46c-.63.63-1.29,1.22-2,1.82,0,0-.16,0-.23,0a1.84,1.84,0,0,1-.36-.15l-.6-.39a.27.27,0,0,1,0-.16c.14-.62.27-1.25.45-1.87s.45-1.47.68-2.2a15.39,15.39,0,0,1,1-2.34c.26-.52.54-1,.81-1.55l.49-.94a.22.22,0,0,0,0-.16.16.16,0,0,1,0-.24c.25-.44.51-.88.76-1.33Zm9.16-6.21.06-.05-.05,0,0-.15c.15.11.24,0,.32-.09s0-.1,0-.17l-.24.09c0,.1-.06.13-.09.18l-.06-.13-.14.17a.23.23,0,0,0,0,.07c-.17.1-.17.21,0,.34L82,30l0,.13L81.91,30l-.06,0a.39.39,0,0,0-.08.1.56.56,0,0,0,0,.07c.17,0,.08.07,0,.14s0,.06,0,.06l.34-.23s0-.13,0-.21l0-.12.24,0ZM83,28.51l.08.1.17-.35,0,.12-.18,0,0,.16,0-.17-.19.13c.09,0,.18-.09.13.05s0,0,.06.06Zm9.27-16.07.2,0,.06,0a1.29,1.29,0,0,0,.09-.16l0,0-.33.26a.27.27,0,0,0,0,.09c0,.09.08.19.13.28s.08,0,.1,0a.1.1,0,0,0,0-.09s-.06-.1-.08-.1-.14,0-.09-.09S92.3,12.46,92.27,12.44ZM88.37,18c0-.07.09-.14.14-.21a.21.21,0,0,0,0-.08l-.07.05-.15.17.08.07a1.11,1.11,0,0,1-.07.16s0,.07,0,.1l.13,0a.81.81,0,0,0,.14.12,1.54,1.54,0,0,0,.19.08v0l-.62,0v.07h.13l0,.22.17-.22,0,0c-.1.12-.23.24,0,.39l0,0-.17-.12c.08.08-.2.14,0,.22v.09h-.39v.05l.14,0-.24.1v0h.09l0,.06-.25.08a1.11,1.11,0,0,1,.07.26l-.11,0,.09.13c-.16-.1-.2-.1-.28.06s0,.1,0,.14l-.1.3c0,.08-.22.1-.09.24l0,0c-.13.13-.13.13-.12.29a.09.09,0,0,1,0,.05c-.2-.1,0,.08-.07.09s-.2,0-.16.17c0,0,0,.05,0,.06s0,.05,0,.14-.08.22-.13.33,0,.08-.07.08-.11-.05-.14,0l-.06.11-.06-.16-.05.43.1,0c0,.21-.15.3-.32.38l.11,0v0l-.17.07v0l.24,0h.07s0,.06,0,.08a3.37,3.37,0,0,1-.21.31l.16.05-.31.06c.2-.2.09-.29-.08-.38,0,.06-.11.16.07.16v.11c-.22,0-.09.34-.33.29a.06.06,0,0,0,0,0c0,.07-.07.15-.11.22s-.08.05-.07.06c.08.2-.08.34-.13.5s-.12.17-.11.27h0l0-.28.12.22c.06-.07.1-.16.17-.2s-.06-.24.12-.26c0-.2.09-.29.28-.23L86,23.67c.09,0,.21.07.2-.12H86c.08-.06.18-.12.26-.19a.45.45,0,0,0,.06-.12l.06-.3h0a1.18,1.18,0,0,0,.22-.14s0-.1,0-.14a.92.92,0,0,0-.11-.14l.19.07a1.63,1.63,0,0,0,.07-.3s0-.07-.06-.11l0,0,.08.11s0,0,.06,0c-.08-.23.12-.25.24-.35L87,21.84l.28-.15,0-.06a1.42,1.42,0,0,0-.29.1s0,.09,0,.13l-.08.07c.1.15,0,.11-.12.15a1.41,1.41,0,0,1,.13-.32c.1-.11.08-.18,0-.26l.14-.13c0,.26,0,.26.37.18l-.17-.05,0,0c.14,0,.14,0,.13-.14s0-.05.05-.07.23-.18.23-.26.19-.29.22-.47c0,0,0,0,.06-.06l-.09,0c-.07,0-.17,0-.06-.13,0,.1,0,.06.1.06s.17-.17.29-.19,0,0,0,0c-.16-.06,0-.12,0-.18a.27.27,0,0,0,.13-.28s.09-.08.14-.11.08,0,.09,0L88.7,19s0-.08,0-.11.05.08.06.08.09,0,.08-.05a.47.47,0,0,0-.06-.15s-.06,0-.09,0h-.19v-.07c.12.05.24-.08.35,0a.6.6,0,0,0,.09-.13s0-.08,0-.16c.14.13.16.05.17-.06s0-.18,0-.28h0a2,2,0,0,0,.24-.16.61.61,0,0,0,.12-.16c0-.07-.06-.18-.13-.22s.1-.08,0-.14h.15s0-.05,0-.08l-.07-.08a.17.17,0,0,1,.24-.14c.16.07.09-.15.19-.11a.8.8,0,0,0,0-.15.69.69,0,0,0,0-.13l.19,0c-.07-.12-.16-.25,0-.34L90,16.25c.17,0,0-.18.09-.23-.06,0-.13,0-.15.08s0,.1.06.16a1.29,1.29,0,0,1-.43.69l-.08-.05s0,.08,0,.09.06.13,0,.19,0,.08,0,.12l-.19.21c-.1-.05,0-.24-.16-.19s-.07.09-.11.13l0,0,.09-.11,0,0-.08.18.19,0c-.13.19-.25,0-.32.05l.07.44-.1,0c0-.07.07-.15-.07-.14a.43.43,0,0,1-.16-.05,1.19,1.19,0,0,1-.18.15A.2.2,0,0,1,88.37,18Zm2.92-3.81.11-.12s0,0,0-.06l-.05.07-.09-.19.34.12v.22a.18.18,0,0,0,.09-.15s-.06-.05-.09-.07l.09-.11-.09,0a.54.54,0,0,1,.07-.12c.19.05.15-.12.19-.19a1.55,1.55,0,0,0,.05-.23l0-.14-.23.07.24-.22h-.18v0l.23-.08.06.28c0-.28,0-.28.27-.26l-.22.39a.64.64,0,0,0,.26-.28c0-.11,0-.21-.15-.2s-.14,0-.15-.07,0-.12,0-.19h.12l-.06.21h.09c0-.18.08-.35.1-.53s-.06-.14-.16-.11,0,.11,0,.11a.27.27,0,0,0-.19.28c0,.16-.18.14-.24.24.14-.19.16-.32.08-.35s-.12.24-.22.28-.09.12-.07.2,0-.2-.17-.18c0-.2.13,0,.18-.05l.06-.07-.38-.06c.13.3-.14.24-.25.35l.43,0v.05L91,13l.18.14-.18.06L90.93,13s-.05,0-.08,0,0,0,0,.06.06.1.06.17l.11,0h0c-.08.1.09.19.06.2-.19.1,0,.1,0,.14l-.1.09v0l.25,0c0,.1,0,.19,0,.28H91l.15.23L91,14.06c0,.18-.12.07-.2.08a1,1,0,0,0,.29.11.69.69,0,0,0,.06-.14l.09.05-.12.24.07,0ZM71,45.64a.68.68,0,0,0,.42-.37.11.11,0,0,0,0-.1.06.06,0,0,0-.07,0s0,0,0,.06-.11.2-.14.21-.13.13-.14.22-.11,0,0,.2l.11-.09ZM84.74,25.69c0-.09,0-.21,0-.28s0-.23-.07-.33c0,.09,0,.22,0,.25s-.06.24,0,.36l-.09.29C84.69,26,84.8,25.79,84.74,25.69ZM79.4,33.93a.7.7,0,0,1-.15-.12s0,0,0-.07,0,0,.05,0c.17.16.28,0,.39-.08l1-1c.16-.14.22-.37.13-.46a1.18,1.18,0,0,0-.31-.24c-.35-.18-.71-.36-1.08-.52a1.5,1.5,0,0,0-.63-.15.5.5,0,0,0-.37.26c-.2.31-.37.64-.55,1,0,0,0,.11,0,.19s-.08.09-.08.14-.09.29,0,.42,0,.06,0,.08,0,.14.08.17l-.14.17.15,0a1,1,0,0,0,0,.19c.19,0,.22.2.38.27s.22.12.36,0l-.08.09.25.08c-.1-.26.07-.15.22-.1L79,34.06C79.18,34.17,79.25,34,79.4,33.93Zm4.67-7.11h-.23s-.06,0-.09,0a.86.86,0,0,0,0,.17s0,.05,0,.08-.06.06,0,.12a.22.22,0,0,1-.1.29l0-.21h0a1.55,1.55,0,0,0,0,.21.64.64,0,0,0,.08.19l-.2.05,0,.07s.06-.06.08-.05.11.05.16,0a1.75,1.75,0,0,0,.12-.32c0-.1.18-.09.12-.23a.85.85,0,0,1,0-.23C84.05,26.92,84.05,26.92,84.07,26.82ZM70.2,46.37h.19s0,0,.08,0a.11.11,0,0,1,0-.08s0-.08.06-.08c.24,0,.37,0,.42-.27,0-.05,0-.11-.07-.16s-.08,0-.1,0a.15.15,0,0,0,0,.11c.17.08,0,.15,0,.19l-.12-.07c0,.12-.08.13-.17,0l-.1.06-.16.13a.52.52,0,0,1-.13.06.6.6,0,0,0,.13.09l.16,0,0,0ZM93.65,10.45l0,0L92,9.24l0,0Zm-8.6,14.24c-.21,0,0,.31-.22.36v0a.74.74,0,0,0,.1.22s.11,0,.16,0L85,25.07h0l.16.14c0-.28,0-.32-.2-.32Zm-2.79,4.58,0,0c0-.21.22-.15.34-.19s.23-.21.11-.4l0,.2c-.25-.11-.29.14-.42.22S82.28,29.22,82.26,29.27ZM91.1,14.34s-.1,0-.12,0-.26.29-.42.47l.39-.07s0-.06,0-.06,0-.07,0-.09l0-.09C90.88,14.47,91.08,14.42,91.1,14.34ZM70.17,46.11l0,0,.41-.21-.16-.21ZM84,26.64l0,.12a.61.61,0,0,0,.13,0s0-.05,0-.06a.1.1,0,0,1,.07,0s0-.06,0-.06-.09-.08-.08-.15a.29.29,0,0,0,0-.13c-.06.11,0,.3-.21.24l0,.1Zm8.1-14.41c-.11-.06-.24-.11-.23-.14s-.09-.11-.15-.12a.53.53,0,0,1,0,.16.3.3,0,0,1,0,.13h.12Zm-3,2.69h0l.47-.81h0ZM84.45,25.63l-.19.27.13.13C84.61,26,84.39,25.76,84.45,25.63Zm-.36.53h.19l.17,0,.1,0-.11,0-.15-.05C84.14,26,84.11,26.08,84.09,26.16ZM72.46,43.77c-.26-.13-.28-.12-.31.15Zm-.64,0,0,0a.32.32,0,0,0,0,.16s.07.08.08.08.22,0,.16-.18l-.14.1ZM83.18,28.09v.07h.26l0,0c-.23-.06,0-.11,0-.18ZM71.39,45l0,.06.31-.16-.07-.12ZM92.21,12l-.12-.11,0,0a.64.64,0,0,0,.1.13h.06l.13,0,0-.13ZM71,44.91l.12.12a.3.3,0,0,1,0,.08s.07-.06.08-.09S71.08,44.86,71,44.91ZM83.29,27.79,83,28l0,0C83.1,28,83.26,28,83.29,27.79ZM71.69,44.43l-.21.11s0,0,0,.06,0,0,0,0,0,.09.15.05ZM92,12.15c.07-.11,0-.22-.16-.36Zm-2.86,4.62,0,.32.12-.08a.53.53,0,0,1,0-.16S89.2,16.81,89.12,16.77Zm2.5-4.67,0,0c-.17.18-.17.18-.07.28a.57.57,0,0,1,0-.14Zm-1.22,3,0,.05.11.08.08.07s0-.1,0-.13Zm-7,12.36,0,0-.18.23,0,0Zm-2,3.38h.06l.06-.28h0ZM89.8,17.2l-.08,0,0,.18h.07A1.36,1.36,0,0,0,89.8,17.2Zm2.51-7.55,0,0,.24.16,0,0ZM91,15.11h-.07l-.09.15s0,0,0,0a.46.46,0,0,0,.16-.07S91,15.15,91,15.11ZM70.68,45.46a.5.5,0,0,1-.11.1l-.14,0C70.58,45.68,70.62,45.66,70.68,45.46Zm19.89-32.9-.06,0-.13.27,0,0Zm-1,4.1.06.05.13-.14s0,0-.06,0Zm1.77-2.15,0,0,.18-.24,0,0Zm1.06-2.38.27,0-.1-.15ZM84.17,26.41l.06.18.06,0a.77.77,0,0,0,0-.15S84.22,26.41,84.17,26.41Z"/><path d="M59,33.16V29.85a5.3,5.3,0,0,0-.6-2.44A3.34,3.34,0,0,1,58,26.15c0-.11,0-.22,0-.33,0-.59,0-1.19,0-1.78s0-1.15,0-1.73c0-.84,0-1.68,0-2.52s0-1.82,0-2.73c0-1.2,0-2.4,0-3.6V11.12c0-.5,0-1,0-1.49s0-1.28,0-1.92c0-1.08,0-2.15,0-3.22,0-.46,0-.92,0-1.38a2.87,2.87,0,0,1,.26-.64,6.17,6.17,0,0,0,.19-.74c0-.05-.06-.14-.11-.17a.64.64,0,0,1-.18-1A1.33,1.33,0,0,1,59,.15,19,19,0,0,1,61,0c.8,0,1.61.05,2.41.11A5.42,5.42,0,0,1,65,.43a.75.75,0,0,1,.48.7.49.49,0,0,1-.36.55A.34.34,0,0,0,65,2a4.79,4.79,0,0,0,.27.89,1.37,1.37,0,0,1,.1.63l0,1.12c0,.52,0,1.05-.06,1.58,0,.75,0,1.5,0,2.25s0,1.57-.06,2.36c0,0,0,.07,0,.11,0,1,0,1.92,0,2.87,0,.71,0,1.43-.05,2.14,0,.42,0,.85,0,1.28l0,3.06c0,.53,0,1.06,0,1.59,0,1.44,0,2.87,0,4.31a3.28,3.28,0,0,1-.36,1A8.12,8.12,0,0,0,64,29a4.69,4.69,0,0,0-.08.84c0,1.18,0,2.36,0,3.54,0,.45,0,.91,0,1.36a.33.33,0,0,1-.11.25.36.36,0,0,0-.12.29c0,.74-.09,1.49-.13,2.24a21.15,21.15,0,0,1-.71,4.4c-.23.86-.51,1.7-.77,2.55,0,.06-.12.11-.19.13a1.29,1.29,0,0,1-.39,0c-.24,0-.48,0-.71,0,0,0-.08-.08-.1-.13-.18-.61-.39-1.22-.55-1.85s-.34-1.49-.5-2.24a15.13,15.13,0,0,1-.33-2.51c0-.58,0-1.16-.08-1.75,0-.35,0-.71,0-1.06a.15.15,0,0,0-.08-.13.17.17,0,0,1-.13-.21V33.16Zm4.83-9.95,0-.08h-.06L63.68,23c.18,0,.2-.13.23-.24s0-.1-.07-.16l-.17.2c.1.07,0,.14,0,.21l-.11-.09a2.07,2.07,0,0,0,0,.22s.05,0,.07,0c-.1.17,0,.27.17.3l-.08.12,0,.13-.12,0h-.08a.28.28,0,0,0,0,.13s0,.06,0,.06.1,0,.11.09.05.05,0,0l.19-.36-.14-.17-.09-.09.23-.08Zm0-1.36.12,0,0-.38.05.11-.18.06a1.08,1.08,0,0,1,0,.17l-.12-.13-.1.2c.07-.05.12-.16.14,0s.05,0,.08,0Zm0-18.55L64,3.16s0,0,0,0a1.08,1.08,0,0,0,0-.18l0,0-.15.38a.2.2,0,0,0,0,.08,2.2,2.2,0,0,0,.25.17s.07,0,.08-.06a.18.18,0,0,0,0-.09s-.1,0-.12,0-.11.09-.12,0Zm-.61,6.76a2.09,2.09,0,0,0,0-.25s0-.05,0-.08l0,.09c0,.06,0,.13,0,.22l.11,0a1,1,0,0,0,0,.17.36.36,0,0,0,0,.1l.1-.09a.58.58,0,0,0,.19,0l.2,0v0l-.54.29,0,.06.11-.06.13.17.05-.28h0c0,.15-.07.32.19.34l0,0-.2,0c.1,0-.11.22.13.17l0,.09-.34.2,0,0,.13,0-.15.21,0,0,.09,0,0,0-.18.19c.07.07.14.13.2.2l-.09.09.15.06c-.19,0-.22,0-.21.2a.75.75,0,0,0,.07.12l.06.31c0,.08-.14.19,0,.25a0,0,0,0,1,0,0c0,.17,0,.17,0,.31s0,0,0,0c-.22,0,0,.08,0,.12s-.19.09-.06.23a.11.11,0,0,1,0,.05c0,.08,0,.08.07.13l.06.34a.27.27,0,0,1,0,.11c-.06,0-.13,0-.11.1v.13l-.12-.11.17.4.06-.09a.44.44,0,0,1-.08.49l.1,0,0,0-.11.15,0,0,.19-.15.06,0a.15.15,0,0,1,0,.07c0,.13,0,.25,0,.38l.15,0-.23.2c.07-.27-.07-.29-.26-.29.06,0,0,.2.14.1l.06.1c-.21.09.09.35-.15.42,0,0,0,0,0,0a1,1,0,0,1,0,.24s0,.09,0,.1c.17.13.1.33.13.5s0,.2,0,.28l.05,0-.1-.27.21.14a1.17,1.17,0,0,1,0-.27c.06-.11-.17-.17,0-.28-.1-.17-.07-.29.13-.34l-.16-.08c.09,0,.23-.05.13-.2l-.12.07.13-.3a.3.3,0,0,0,0-.13L64,15.34l0,0c0-.08.09-.16.12-.24S64.07,15,64,15l-.16-.07.2,0a2.46,2.46,0,0,0-.09-.29s-.07,0-.11-.07a.2.2,0,0,0,0-.06l.12.06h.07c-.18-.16,0-.28,0-.42h-.18l.16-.28,0,0a2.41,2.41,0,0,0-.21.24s0,.08.06.12,0,.09,0,.09,0,.12,0,.2a1.22,1.22,0,0,1-.05-.35c0-.14,0-.19-.14-.21l0-.19c.11.25.11.25.42,0l-.18,0,0,0c.11-.1.11-.1,0-.19a.15.15,0,0,1,0-.09c0-.11.11-.26.07-.34s0-.34,0-.51c0,0,0,0,0-.08l-.09,0c-.07,0-.16,0-.12-.09,0,.1.06,0,.12,0s.06-.23.16-.31v0c-.17,0,0-.12-.09-.15a.27.27,0,0,0,0-.31s0-.11.07-.16.07,0,.07-.07c0-.19-.09-.39-.13-.58a.52.52,0,0,1,0-.11s.08,0,.09,0,.06-.07.05-.08a.41.41,0,0,0-.13-.1s-.05,0-.08.05l-.16.09,0-.06c.12,0,.16-.18.31-.14a.44.44,0,0,0,0-.16s0-.08-.08-.15c.19,0,.17,0,.12-.13S64,9.85,64,9.77h0a1.92,1.92,0,0,0,.12-.25.75.75,0,0,0,0-.2c-.07,0-.15-.12-.23-.13s.05-.12,0-.14l.06,0L64,9l-.07-.06-.1,0A.18.18,0,0,1,64,8.63c.17,0,0-.18.11-.19L64,8.33l-.12-.09L64,8.13c-.12-.07-.26-.14-.16-.31l-.14-.07c.14-.1-.12-.14,0-.24s-.09.1-.08.14.08.07.12.1a1.28,1.28,0,0,1,0,.82h-.09s0,.09,0,.09.12.08.08.17,0,.06.06.1l-.06.28c-.11,0-.1-.22-.23-.09s0,.12,0,.17h.05l0-.14h0l0,.19.16-.11c0,.23-.2.17-.26.2l.29.35-.11,0c0-.08,0-.16-.13-.09l-.17,0a1.42,1.42,0,0,1-.07.22A.23.23,0,0,1,63.2,10.06Zm.63-4.76,0-.16,0,0v.08l-.17-.12L64,5l.1.2a.21.21,0,0,0,0-.17S64,5,64,5l0-.14-.1,0a.45.45,0,0,1,0-.14c.18-.06.07-.18.06-.26a.68.68,0,0,0-.07-.23l-.09-.11-.16.18.1-.31-.16.08,0,0,.17-.18.19.21c-.12-.26-.11-.26.11-.36v.45a.62.62,0,0,0,.08-.37c0-.12-.08-.19-.22-.1s-.14,0-.17,0,0-.11-.07-.18l.1-.07.05.21.07,0c-.06-.17-.1-.35-.17-.51s-.13-.09-.2,0l.07.08a.29.29,0,0,0,0,.35c.08.14-.08.2-.09.32,0-.23,0-.36-.1-.34s0,.27,0,.35,0,.15,0,.21c-.1.07-.12-.15-.23-.07-.09-.18.11-.06.13-.14a.32.32,0,0,1,0-.09L62.9,4c.27.2,0,.28,0,.43l.35-.24,0,0L63,4.42l.23,0-.13.15a.87.87,0,0,0-.15-.13.11.11,0,0,0-.08,0s0,0,0,.07.11.06.14.11l.09-.07h0c0,.12.17.12.15.14-.12.18.09.07.1.1l0,.13,0,0,.19-.15a2.6,2.6,0,0,1,.1.25l-.18.11.24.12-.15,0c.08.16-.07.12-.13.17a1,1,0,0,0,.3,0s0-.1,0-.15h.1l0,.26h.07ZM62,42.69a.68.68,0,0,0,.18-.53.18.18,0,0,0-.07-.08s-.06,0-.08,0a.08.08,0,0,0,0,.07.21.21,0,0,1,0,.26.19.19,0,0,0,0,.26c-.09.07-.09.07.08.18l0-.13Zm1.93-24.14c0-.09-.11-.19-.1-.27s-.11-.21-.23-.25.1.19.08.24.07.24.18.32l.06.29C64,18.8,64,18.6,63.91,18.55Zm-.5,9.8a.85.85,0,0,1-.2,0s0,0,0-.06l0,0c.23.06.25-.13.3-.27l.42-1.36c.06-.2,0-.43-.12-.47a1.2,1.2,0,0,0-.38,0c-.4,0-.8,0-1.2.09a1.27,1.27,0,0,0-.62.18.48.48,0,0,0-.19.41c0,.37,0,.74,0,1.1a.9.9,0,0,0,0,.19s0,.11,0,.16.06.3.23.34a.08.08,0,0,1,0,.08c0,.16.07.12.16.11l0,.22.12-.09a1.2,1.2,0,0,0,.12.14c.16-.1.29.07.46.05s.26,0,.33-.16l0,.12.25-.05c-.22-.18,0-.16.14-.19l-.19-.11C63.33,28.67,63.3,28.47,63.41,28.35Zm.49-8.49-.2.12h-.1a1,1,0,0,0,.06.16s0,0,.05.06,0,.09,0,.12a.26.26,0,0,1,.06.31l-.15-.16,0,0a.57.57,0,0,0,.1.19.93.93,0,0,0,.15.13l-.15.14.06.05s0-.09,0-.09.13,0,.12-.11,0-.24-.06-.35.11-.17,0-.25a1.37,1.37,0,0,1-.16-.18C63.93,20,63.93,20,63.9,19.86ZM61.66,43.72a.79.79,0,0,1,.16-.1h.08a.18.18,0,0,1,0-.07.28.28,0,0,1,0-.1c.22-.09.3-.23.23-.44,0,0-.09-.08-.14-.1s-.06.05-.07.08a.19.19,0,0,0,0,.1c.19,0,.09.12.11.16h-.14c0,.12,0,.15-.12.13s0,.07-.06.11a1.34,1.34,0,0,1-.07.18.54.54,0,0,1-.09.12l.16,0,.16,0v0ZM64,.9V.83L61.94.69V.74Zm-.33,16.62c-.15.15.14.28,0,.43h0a1,1,0,0,0,.21.14S64,18,64,18l-.18-.12,0,0,.21,0c-.13-.25-.17-.27-.33-.18Zm-.12,5.36h.05c-.06-.19.12-.23.2-.33s.1-.29-.1-.4l.08.19c-.27,0-.18.26-.26.4S63.54,22.83,63.55,22.88Zm.19-17.34s-.08,0-.09.07c0,.19-.08.38-.13.61L63.83,6s0-.07,0-.07c-.17,0,0-.07,0-.11s0-.06,0-.09C63.61,5.76,63.76,5.61,63.74,5.54Zm-2.23,38h0l.26-.38-.26-.1ZM63.7,19.76l0,.12a.45.45,0,0,0,.1-.09s0-.06,0-.08,0,0,0-.05,0,0-.07,0-.11,0-.14-.09,0-.07-.07-.11c0,.13.16.25-.07.32l0,.1ZM63.51,3.23c-.13,0-.26,0-.27,0s-.13-.06-.19,0a.68.68,0,0,1,.12.12.5.5,0,0,1,0,.13.39.39,0,0,0,.11-.06ZM62.22,7.08h0V6.14h0Zm1.41,11.55,0,.33.18.05C63.93,18.83,63.64,18.78,63.63,18.63Zm-.05.65a1.84,1.84,0,0,1,.16-.1l.16-.07A.6.6,0,0,0,64,19l-.12,0a.75.75,0,0,1-.16,0C63.54,19.1,63.56,19.19,63.58,19.28ZM62.31,40.34c-.29,0-.3,0-.19.29Zm-.54.33h-.06a.49.49,0,0,0,0,.16s.1,0,.11,0,.18-.12,0-.23l-.06.16Zm2-19.27,0,.06.23-.13v0c-.23.06,0-.11-.11-.14ZM62,42l.06,0,.18-.3-.11-.07Zm1.5-39-.15,0,0,0a.94.94,0,0,0,.15.06s0,0,.06,0l.09-.09-.09-.1ZM61.58,42.08l.16.05.08,0s0-.08,0-.11S61.67,42,61.58,42.08Zm2.12-21-.16.35.06,0C63.64,21.36,63.79,21.29,63.7,21.09ZM62,41.3l-.13.19a.19.19,0,0,0,0,.07h0c.05-.18.09,0,.15,0ZM63.41,3.2c0-.14-.08-.21-.32-.24Zm-.17,5.43.14.28.07-.12a.57.57,0,0,1-.11-.12S63.33,8.63,63.24,8.63Zm-.16-5.3h0c-.06.23-.06.23.07.27l0-.14A.71.71,0,0,1,63.08,3.33Zm.43,3.2v.06l.14,0h.1s0-.08-.08-.09A.43.43,0,0,0,63.51,6.53Zm.14,14.2h-.06l-.05.28h.07Zm0,3.92.06,0-.09-.28,0,0Zm.43-16-.08,0,.07.18.07,0ZM62.45.87V.92l.3,0v0ZM64,6.27,64,6.3a1.09,1.09,0,0,0,0,.18l0,0a.49.49,0,0,0,.11-.14S64,6.3,64,6.27ZM61.62,42.69a.72.72,0,0,1,0,.14.5.5,0,0,1-.1.11C61.64,42.93,61.67,42.89,61.62,42.69Zm.77-38.44h-.06l0,.3h0Zm1.18,4.06.07,0,0-.19h-.07ZM64,5.57h.06l0-.3h0ZM63.76,3,64,2.82l-.16-.08Zm0,16.48.14.13s0,0,0,0a.54.54,0,0,0-.09-.12S63.82,19.43,63.78,19.45Z"/><path d="M45.36,37.88,43.7,35A5.41,5.41,0,0,0,42,33.2a3.33,3.33,0,0,1-1-.86c-.06-.09-.1-.19-.16-.29l-.91-1.53c-.29-.5-.56-1-.85-1.51-.42-.73-.85-1.45-1.27-2.17s-.93-1.58-1.38-2.37c-.6-1-1.2-2.08-1.79-3.12-.39-.67-.79-1.35-1.17-2-.25-.43-.48-.87-.73-1.3s-.65-1.1-1-1.66l-1.62-2.78c-.23-.39-.5-.77-.7-1.19a2.87,2.87,0,0,1-.09-.68,6.09,6.09,0,0,0-.21-.73c0-.05-.12-.1-.18-.09a.64.64,0,0,1-.65-.79,1.32,1.32,0,0,1,.59-.81c.54-.39,1.08-.79,1.65-1.13s1.41-.76,2.13-1.11a5.9,5.9,0,0,1,1.55-.52.76.76,0,0,1,.76.37.48.48,0,0,1,0,.66A.39.39,0,0,0,35,7.9a5.08,5.08,0,0,0,.68.63,1.35,1.35,0,0,1,.4.49l.53,1c.25.47.49.94.74,1.4.37.66.75,1.3,1.11,2s.75,1.38,1.12,2.07a.93.93,0,0,0,.05.1L41,18.05c.34.62.67,1.25,1,1.88.2.37.43.73.65,1.1l1.5,2.66c.26.46.53.92.8,1.38.71,1.25,1.44,2.49,2.11,3.75a3,3,0,0,1,.22,1.09,7.87,7.87,0,0,0,.3,1.81,4.13,4.13,0,0,0,.35.77l1.75,3.08c.23.4.45.79.66,1.19a.39.39,0,0,1,0,.28.32.32,0,0,0,0,.3c.34.67.66,1.34,1,2A21.43,21.43,0,0,1,53,43.52c.23.86.41,1.73.61,2.6a.32.32,0,0,1-.1.2,1.44,1.44,0,0,1-.32.23c-.2.12-.42.23-.63.33a.2.2,0,0,1-.14-.06c-.48-.44-1-.87-1.41-1.33s-1-1.12-1.56-1.69a16,16,0,0,1-1.54-2c-.32-.49-.63-1-.94-1.47-.19-.3-.37-.61-.57-.91a.17.17,0,0,0-.13-.07.18.18,0,0,1-.22-.11c-.25-.44-.51-.88-.76-1.33Zm-.8-11,0-.08,0,0-.15,0c.16-.07.11-.21.08-.32s-.09-.07-.14-.11l-.05.26c.12,0,.09.11.12.17l-.14,0c0,.08,0,.15.08.21s.05,0,.07,0c0,.19.11.25.3.16v.15l.11.09-.13,0s-.07,0-.07,0a1.17,1.17,0,0,0,0,.11.17.17,0,0,0,.07,0c.08-.15.1,0,.14,0a.06.06,0,0,0,.06,0l0-.41-.21-.07-.12,0,.17-.19Zm-.69-1.17.12,0-.21-.31.09.07-.12.14.12.13-.17-.06v.23c0-.08,0-.2.12-.09s.05,0,.07,0ZM34.59,9.62l.06-.2s0,0,0-.05a1.4,1.4,0,0,0-.09-.17h0l.06.41a.18.18,0,0,0,.07.05l.31,0s0-.06,0-.09a.1.1,0,0,0-.07-.06s-.12,0-.13,0,0,.14-.12,0S34.62,9.61,34.59,9.62Zm2.85,6.16a1.67,1.67,0,0,0-.12-.23s0,0-.06-.05a.31.31,0,0,0,0,.1l.07.21.1,0a1.71,1.71,0,0,0,.11.14l.07.07,0-.12a.56.56,0,0,0,.18-.07.65.65,0,0,0,.16-.13l0,0-.33.52.06,0,.07-.11.2.08-.1-.26,0,0c.06.14.1.31.33.2v.06l-.18.08c.1,0,0,.24.2.08l.07.06-.19.34,0,0,.09-.1,0,.25h0l0-.09.05,0-.05.25.26.07s0,.08,0,.12h.16c-.17.09-.19.12-.09.27s.09,0,.12.07l.21.24c.06.06,0,.24.17.2a0,0,0,0,1,0,0c.05.17.05.17.19.25s0,0,0,0c-.19.12.06.05,0,.1s-.12.17.06.23c0,0,0,0,0,0s0,.08.13.07l.22.27s0,.09,0,.1-.11.07-.05.15a.41.41,0,0,1,.07.11l-.16,0,.35.26v-.1a.44.44,0,0,1,.18.46l.07-.09h0l0,.19,0,0,.09-.22,0-.07s0,0,.06,0l.17.34.12-.11-.1.3c-.08-.27-.21-.22-.37-.13.07,0,.08.18.17,0l.1.06c-.13.18.25.25.08.44l0,0,.13.21s0,.09,0,.09c.21,0,.25.24.36.37s.09.18.19.22l0,0-.22-.19h.25a.75.75,0,0,1-.09-.25c0-.12-.23-.06-.17-.22-.17-.1-.2-.23-.05-.36h-.18c.05-.07.17-.15,0-.23l-.06.12a3.11,3.11,0,0,0,0-.32s0-.08-.07-.11L40.76,20s0,0,0,0a1.23,1.23,0,0,0,0-.27s-.08,0-.12,0a.62.62,0,0,0-.18,0l.16-.13a2.29,2.29,0,0,0-.23-.21s-.08,0-.12,0,0,0,0-.06h.13l.06,0c-.24-.05-.16-.24-.18-.39l-.16.09v-.31H40a2.84,2.84,0,0,0-.06.31s.07,0,.11.07,0,.1,0,.1c.18,0,.07.09.07.19A1.23,1.23,0,0,1,40,19c-.05-.13-.12-.15-.23-.1l-.06-.19c.22.16.22.16.35-.23l-.13.12s0,0,0,0,0-.14-.06-.19,0,0,0-.08,0-.28-.11-.32-.15-.32-.29-.43,0-.05,0-.08a.46.46,0,0,1-.07.07c0,.05-.11.12-.14,0,.09.06.07,0,.1-.06s-.06-.23,0-.34l0,0c-.13.11-.09-.1-.16-.09a.29.29,0,0,0-.19-.26s0-.11,0-.17,0-.08,0-.09l-.4-.44-.07-.09h.1s0-.1,0-.1a.26.26,0,0,0-.15,0s0,.05,0,.08l-.09.16-.06,0c.1-.07.05-.25.2-.28a.67.67,0,0,0-.06-.15,1.16,1.16,0,0,0-.14-.09c.18-.06.12-.11,0-.17a1.84,1.84,0,0,1-.22-.17h0a2.46,2.46,0,0,0,0-.28.54.54,0,0,0-.08-.19.76.76,0,0,0-.26,0c-.16.08,0-.12-.1-.1l0-.06a.2.2,0,0,0,0-.08H37.5l-.1,0a.18.18,0,0,1,0-.29c.15-.1-.08-.15,0-.22l-.13,0a.8.8,0,0,0-.15,0l.08-.17c-.14,0-.29,0-.29-.19h-.16c.07-.15-.17-.07-.15-.19,0,.06,0,.13,0,.16s.1,0,.15,0a1.23,1.23,0,0,1,.39.72l-.08,0s.06.07.07.06.14,0,.16.11.06,0,.1.05l.09.28c-.09.05-.2-.15-.24,0,0,0,0,.1.06.16l.05,0-.05-.13,0,0,.12.16.07-.18c.11.22-.08.25-.12.31l.42.16-.08.07c0-.06-.09-.14-.16,0l-.12.12a.85.85,0,0,1,0,.23A.31.31,0,0,1,37.44,15.78ZM35.6,11.34a.88.88,0,0,0-.05-.15h-.06l0,.08-.2,0,.26-.24.19.13a.17.17,0,0,0-.08-.16s-.07,0-.11,0l0-.13-.07.07s-.08-.11-.07-.12,0-.18-.07-.26a1.3,1.3,0,0,0-.18-.15L35,10.36,35,10.6l-.07-.32-.1.15h0l0-.24.27.09c-.23-.17-.23-.17-.08-.37l.22.39a.73.73,0,0,0-.11-.36c-.07-.1-.17-.13-.25,0s-.1.11-.14.1-.1-.08-.14-.12l0-.12.14.16,0-.08a4.47,4.47,0,0,0-.41-.35c-.07-.06-.15,0-.17.08s.1,0,.1.05,0,.23.15.3,0,.23.08.33c-.09-.21-.2-.29-.26-.24s.15.23.14.33,0,.14.13.16-.19-.07-.24.06c-.17-.11.07-.11,0-.18a.27.27,0,0,0,0-.09l-.25.29c.34,0,.15.25.19.4l.18-.39,0,0-.12.33.22-.09c0,.08,0,.13,0,.19l-.19,0s0,0-.06.06,0,0,0,.06.12,0,.18,0l0-.1v0h0c0,.12.21,0,.2,0,0,.22.11,0,.14,0l0,.14h0l.08-.23.22.17-.1.18h.27l-.12.1c.14.1,0,.14,0,.22a.9.9,0,0,0,.23-.2.87.87,0,0,0-.09-.12l.09-.05.15.22.05-.05Zm17.1,33.3a.66.66,0,0,0-.11-.55.19.19,0,0,0-.1,0s-.05,0-.06.06a.08.08,0,0,0,0,.06c.12,0,.12.2.12.23s0,.18.12.24-.05.09.16.11l0-.14ZM42.29,22.77c-.07-.06-.18-.1-.21-.18s-.2-.13-.33-.1c.06.06.19.11.2.17,0,.21.17.17.31.18l.2.22C42.5,23,42.41,22.77,42.29,22.77Zm4.48,8.74-.19.08-.06,0s0,0,0,0c.23-.07.16-.24.13-.38-.1-.47-.21-.93-.32-1.4,0-.2-.2-.37-.33-.34a1.14,1.14,0,0,0-.36.15c-.34.22-.67.44-1,.68a1.25,1.25,0,0,0-.44.47.45.45,0,0,0,0,.45c.16.32.36.64.55,1a.6.6,0,0,0,.14.13s0,.11.09.14.2.23.37.18a.12.12,0,0,1,.07.05c0,.16.11.08.19,0l.07.21.06-.14.18.06c.09-.17.29-.08.42-.18s.22-.14.21-.31l0,.12.19-.18c-.28,0-.09-.13,0-.23h-.22C46.86,31.82,46.73,31.67,46.77,31.51Zm-3.83-7.6-.11.21a.24.24,0,0,1-.08.06l.13.11.08,0c-.05.11,0,.08.09.09s.18.12.2.23l-.2-.06,0,.05a.67.67,0,0,0,.18.11.44.44,0,0,0,.2,0l-.06.2.07,0s0-.09,0-.1.1-.07,0-.16a1.37,1.37,0,0,0-.22-.27c-.07-.06,0-.2-.13-.22a1.11,1.11,0,0,1-.22-.07C43,24,43,24,42.94,23.91Zm10,21.79a1.44,1.44,0,0,1,.08-.17l.07-.05-.07,0s-.06-.08-.05-.09c.15-.2.15-.36,0-.5s-.12,0-.17,0a.1.1,0,0,0,0,.1s.07.08.08.07.14.06.18.09l-.12.07c.08.08.06.13,0,.17s0,.08,0,.12a1.38,1.38,0,0,1,0,.2.68.68,0,0,1,0,.14.67.67,0,0,0,.15-.06.47.47,0,0,0,.11-.13l0,0ZM33.55,7.44l0-.06-1.86.91,0,.05Zm8,14.56c-.06.21.26.18.21.37h0a.65.65,0,0,0,.24,0s0-.1.06-.15l-.22,0v0l.2-.06c-.24-.16-.28-.16-.38,0Zm2.58,4.7,0,0c-.15-.14,0-.26,0-.38s-.07-.31-.29-.3l.16.12c-.22.16,0,.32,0,.47S44.12,26.67,44.16,26.7ZM35.65,11.59c0,.05,0,.08,0,.11,0,.19.11.37.19.6l.14-.38a.24.24,0,0,0,0-.07c-.16.07,0,0-.06-.08a.22.22,0,0,0-.05-.08C35.65,11.84,35.7,11.64,35.65,11.59Zm17.05,34,0,0,0-.46-.27,0Zm-10-21.67.09.09a.56.56,0,0,0,0-.12s0-.05,0-.08a.19.19,0,0,1,0-.07h-.08c-.06.12-.1,0-.16,0a.45.45,0,0,0-.12-.06c.06.11.26.14.1.31l.08.06ZM34.29,9.71c-.11.06-.21.15-.23.13s-.14,0-.18.06L34,10a.39.39,0,0,1,.1.08l.07-.09Zm.82,4,0,0-.47-.81h0Zm7,9.3.14.3.17-.05C42.46,23,42.18,23.1,42.1,23Zm.28.58a1.31,1.31,0,0,1,.09-.17l.1-.14a.38.38,0,0,0,0-.1l-.09.07a.63.63,0,0,1-.12.11C42.25,23.43,42.31,23.51,42.38,23.57Zm9.43,18.88c-.24.16-.24.17,0,.34ZM51.5,43l0,0s.07.09.12.11.11,0,.11,0,.09-.2-.08-.23l0,.17ZM43.59,25.31l.06,0,.14-.22,0-.05c-.17.17-.09-.08-.17-.07ZM52.36,44h.07v-.35H52.3ZM34.14,9.44,34,9.49v0l.15,0a.1.1,0,0,0,0,0,.56.56,0,0,0,0-.12l-.13,0ZM52.05,44.32l.16,0h.09a.28.28,0,0,0,0-.11C52.17,44.1,52.07,44.18,52.05,44.32ZM43.39,25.08l0,.38h.06C43.47,25.34,43.56,25.21,43.39,25.08ZM52,43.44a1.93,1.93,0,0,0,0,.23s0,0,0,0l0,0c0-.18.1,0,.12-.1ZM34.19,9.73c-.06-.12-.18-.14-.4,0Zm2.57,4.78.27.18v-.14a.6.6,0,0,1-.16-.05S36.84,14.47,36.76,14.51ZM34,10l0,0c.07.23.07.23.2.2a.55.55,0,0,1-.1-.11A1.34,1.34,0,0,1,34,10Zm2,2.56,0,0,.13,0,.09,0a.34.34,0,0,0-.11,0A1.1,1.1,0,0,0,35.94,12.57Zm7.22,12.22-.06,0,.11.27.06,0Zm1.93,3.41,0,0-.21-.2,0,0ZM37.47,14.14l-.06.06.15.12,0-.06Zm-5.28-6,0,.05.27-.13,0,0Zm4.05,3.9s0,.05,0,.06a.71.71,0,0,0,.08.15s0,0,0,0a1.13,1.13,0,0,0,0-.18S36.28,12.11,36.24,12.09ZM52.39,44.83a1.21,1.21,0,0,1,0,.14l0,.14C52.53,45,52.53,45,52.39,44.83ZM33.83,11.16l0,0,.16.25,0,0Zm3.06,2.91.07,0-.06-.18,0,0A.85.85,0,0,0,36.89,14.07Zm-1-2.6.06,0-.13-.27,0,0ZM34.38,9.36l.11-.24h-.18Zm8.26,14.26.18,0a.25.25,0,0,0,0-.07l-.15-.05S42.66,23.58,42.64,23.62Z"/><path d="M35.9,48.79c-1-.55-1.92-1.1-2.87-1.66a5.54,5.54,0,0,0-2.42-.69,3.46,3.46,0,0,1-1.31-.24c-.1-.05-.18-.12-.28-.17l-1.56-.87c-.5-.29-1-.6-1.48-.89L23.79,43l-2.38-1.35L18.3,39.87l-2-1.17c-.42-.25-.84-.52-1.27-.76L13.32,37l-2.8-1.6c-.39-.22-.82-.42-1.19-.68-.18-.12-.28-.37-.43-.54a6.75,6.75,0,0,0-.54-.53.26.26,0,0,0-.21,0,.64.64,0,0,1-1-.35,1.33,1.33,0,0,1,.1-1,18.67,18.67,0,0,1,.87-1.8c.4-.7.84-1.37,1.29-2a5.47,5.47,0,0,1,1.08-1.22.75.75,0,0,1,.85-.07.5.5,0,0,1,.29.59c0,.08.13.22.23.25a4.61,4.61,0,0,0,.91.2,1.58,1.58,0,0,1,.59.23l.95.6,1.34.83L17.65,31c.67.4,1.33.82,2,1.23l.09.06,2.48,1.47L24,34.91c.36.22.74.42,1.11.63l2.63,1.55,1.39.8c1.23.73,2.49,1.43,3.7,2.19a3,3,0,0,1,.73.84,8.35,8.35,0,0,0,1.17,1.41,4.85,4.85,0,0,0,.69.5c1,.6,2,1.19,3.06,1.78l1.16.71a.35.35,0,0,1,.16.22.35.35,0,0,0,.19.25c.63.4,1.24.82,1.87,1.23a21.32,21.32,0,0,1,3.46,2.82c.63.62,1.22,1.29,1.82,1.94a.26.26,0,0,1,0,.23,1.61,1.61,0,0,1-.15.36c-.12.2-.26.4-.39.6,0,0-.11,0-.16,0-.62-.15-1.25-.28-1.87-.45s-1.47-.45-2.2-.68a15.44,15.44,0,0,1-2.34-1l-1.55-.8-.94-.5a.18.18,0,0,0-.16,0,.18.18,0,0,1-.24,0l-1.33-.77Zm-6.21-9.15-.05-.06,0,.05-.15,0c.11-.14,0-.23-.09-.32s-.1,0-.17,0l.09.25c.1,0,.13.05.18.09l-.13,0,.17.14s.05,0,.07,0c.1.17.21.16.34,0L30,40l.13,0-.09.09,0,.06a.39.39,0,0,0,.1.08s.07,0,.07,0c0-.17.07-.08.14,0s.06,0,.06,0l-.23-.35-.21,0-.12,0,0-.24ZM28.51,39l.1-.08-.35-.16h.12l0,.19.16,0-.17,0,.13.2c0-.09-.09-.19.05-.14l.06,0ZM12.44,29.7c0-.07,0-.13,0-.2s0-.05,0-.06l-.16-.09,0,0,.26.32s.06,0,.09,0l.28-.14s0-.07,0-.09a.1.1,0,0,0-.09,0s-.1.06-.1.09,0,.14-.09.08S12.46,29.68,12.44,29.7ZM18,33.61l-.21-.14H17.7a.22.22,0,0,0,.05.08l.17.15L18,33.6l.16.07.1,0,0-.13a.88.88,0,0,0,.12-.15,1.54,1.54,0,0,0,.08-.19l0,0,0,.61h.07v-.13l.22,0-.22-.18,0-.05c.12.1.24.23.39,0l0,0-.12.16c.08-.08.14.2.22,0h.09v.39h.05l0-.13.1.24h0v-.1l.06,0,.08.25.26-.07,0,.12.13-.1c-.1.17-.1.21.06.28s.1,0,.14,0l.3.09c.08,0,.1.22.24.09l0,0c.13.13.13.13.29.12H21c-.1.2.08,0,.09.07,0,.21,0,.21.17.17a.06.06,0,0,1,.06,0c.05.05.05.06.14,0l.33.12s.08,0,.08.07-.05.11,0,.15a.6.6,0,0,1,.11.06l-.16,0,.43,0,0-.1c.21,0,.3.16.38.32l0-.11h0l.07.18h0l0-.23s0,0,0-.08h.08l.31.21.05-.15.06.3c-.2-.19-.29-.08-.38.08.06,0,.16.11.16-.07h.11c0,.22.34.09.29.34h0l.22.12s.05.07.06.06c.2-.07.34.09.5.14s.17.11.27.1v0l-.28-.05.22-.12c-.07-.06-.16-.1-.2-.17s-.24.06-.26-.11c-.2,0-.29-.1-.23-.29l-.15.1c0-.1.07-.22-.12-.21V36a2.48,2.48,0,0,0-.19-.26.27.27,0,0,0-.12-.06l-.3-.07a0,0,0,0,0,0,0l-.14-.22s-.1,0-.14,0a.92.92,0,0,0-.14.11l.07-.19-.3-.07s-.07,0-.11.06,0,0,0,0l.11-.07,0-.06c-.23.07-.25-.13-.35-.24l-.09.15-.15-.28-.06,0a1.76,1.76,0,0,0,.1.3s.09,0,.13,0,.06.08.07.08.11,0,.15.13a1.06,1.06,0,0,1-.32-.14.16.16,0,0,0-.26,0L21.37,35c.26,0,.26,0,.18-.38l-.05.18s0,0,0,0,0-.15-.14-.14-.05,0-.07,0-.18-.23-.26-.23-.29-.2-.47-.23c0,0,0,0-.06,0a.29.29,0,0,1,0,.09c0,.07,0,.16-.13.05.1,0,.06,0,.06-.1s-.17-.16-.19-.29h0c-.06.17-.12,0-.18,0a.27.27,0,0,0-.28-.13s-.08-.09-.11-.15,0-.08,0-.08L19,33.27l-.11,0s.08-.05.08-.07a.12.12,0,0,0-.05-.08.47.47,0,0,0-.15.06s0,.06,0,.09v.19h-.07c.05-.11-.08-.23,0-.34a.41.41,0,0,0-.13-.1s-.08,0-.16,0c.13-.14.05-.16-.06-.16l-.28,0h0a2,2,0,0,0-.16-.24,1,1,0,0,0-.16-.12c-.07,0-.18.07-.22.13s-.08-.09-.14,0v-.07s0-.06,0-.09l-.08,0-.08.07a.18.18,0,0,1-.14-.25c.07-.15-.15-.09-.11-.19l-.15,0-.13.06,0-.2c-.12.08-.25.16-.34,0l-.14.1c0-.18-.18,0-.23-.1,0,.07,0,.14.08.15s.1,0,.16-.06a1.31,1.31,0,0,1,.69.44l-.05.07s.08,0,.09,0,.13-.07.19,0,.08,0,.12,0l.21.2c-.05.09-.24,0-.19.15s.09.08.13.12l0-.05-.11-.09,0,0,.18.08,0-.19c.19.13,0,.26.05.33l.44-.08,0,.1c-.07,0-.15-.07-.14.07a.55.55,0,0,1-.05.17.84.84,0,0,1,.15.18S18,33.56,18,33.61Zm-3.81-2.93-.12-.1s0,0-.06,0l.07,0-.19.09L14,30.4l.22,0a.19.19,0,0,0-.15-.1s-.05.06-.07.09l-.11-.09,0,.1a1.18,1.18,0,0,1-.12-.08c.05-.18-.12-.14-.19-.18a.86.86,0,0,0-.23-.05h-.14l.07.24L13,30.12v.18h0l-.08-.23.28-.06c-.28,0-.28,0-.26-.28l.39.22a.68.68,0,0,0-.28-.25c-.11-.06-.21,0-.2.14a.19.19,0,0,1-.07.16s-.12,0-.19,0v-.12l.21.06v-.08a5,5,0,0,0-.53-.11c-.09,0-.14.07-.11.16h.11a.25.25,0,0,0,.28.19c.16,0,.14.18.24.25-.19-.14-.32-.16-.35-.09s.24.13.28.22.12.09.2.08-.2,0-.18.17c-.2,0,0-.13-.05-.18l-.07-.07-.06.38c.3-.13.24.14.35.26l0-.43h.05L13,31l.14-.19a.94.94,0,0,1,.06.18l-.18.07s0,.05,0,.07,0,0,.06,0,.1-.07.17-.07l0-.11v0h0c.1.08.19-.08.2-.06.1.2.1,0,.14,0l.09.09h0l0-.24.28,0V31l.23-.15-.06.15c.18,0,.07.12.08.2a1,1,0,0,0,.11-.29l-.14-.06.05-.08.24.11,0-.06ZM45.64,51a.69.69,0,0,0-.37-.43.15.15,0,0,0-.1,0,.07.07,0,0,0,0,.08s0,0,.06,0,.2.11.21.14.13.14.22.15,0,.1.2,0l-.09-.11ZM25.69,37.24c-.09,0-.21,0-.28-.05s-.23,0-.33.07c.09,0,.22,0,.25.05s.24.07.36,0l.29.09C26,37.29,25.79,37.18,25.69,37.24Zm8.24,5.33a1.32,1.32,0,0,1-.12.16.08.08,0,0,1-.07,0s0,0,0,0c.16-.17,0-.28-.08-.39l-1-1c-.14-.15-.37-.22-.46-.13a1.18,1.18,0,0,0-.24.31c-.18.36-.36.72-.52,1.08a1.5,1.5,0,0,0-.15.63.5.5,0,0,0,.26.37c.31.2.64.37,1,.55a.49.49,0,0,0,.19,0s.09.08.14.08.29.1.42,0a.08.08,0,0,1,.08,0c.11.12.14,0,.17-.08l.17.14,0-.14.19,0c0-.19.2-.22.27-.37s.12-.23,0-.37l.09.08.08-.25c-.26.11-.15-.06-.1-.21l-.18.11C34.17,42.79,34,42.72,33.93,42.57ZM26.82,37.9c0,.08,0,.16,0,.24s0,.06,0,.09l.17,0,.08,0c0,.12.06,0,.12,0s.22,0,.29.1l-.21.05v0a1.55,1.55,0,0,0,.21,0,1.07,1.07,0,0,0,.19-.07l.05.2.07,0s-.06-.07-.05-.09.05-.11,0-.15a1.24,1.24,0,0,0-.32-.12c-.1,0-.09-.18-.23-.13a.85.85,0,0,1-.23,0C26.92,37.93,26.92,37.93,26.82,37.9ZM46.37,51.77c0-.09,0-.14,0-.19a0,0,0,1,0,0-.07l-.08,0c0-.24,0-.38-.27-.42a.23.23,0,0,0-.16.07s0,.08,0,.1.1,0,.11,0,.15,0,.19,0l-.07.12c.12,0,.13.09,0,.17l.06.1a1.83,1.83,0,0,1,.13.16.75.75,0,0,1,.06.13.94.94,0,0,0,.09-.12.85.85,0,0,0,0-.17l0,0ZM10.45,28.33l0,0L9.24,30l0,0Zm14.24,8.6c0,.21.31,0,.36.21h0a.76.76,0,0,0,.22-.11s0-.1,0-.16l-.19.09v0l.14-.16c-.28,0-.32,0-.32.19Zm4.58,2.78,0,0c-.21,0-.15-.22-.19-.34s-.21-.23-.4-.11l.2,0c-.11.24.14.28.22.41S29.22,39.7,29.27,39.71ZM14.34,30.87c0,.06,0,.11,0,.13l.47.42-.07-.4S14.7,31,14.7,31s-.07,0-.09,0l-.09,0C14.47,31.1,14.42,30.9,14.34,30.87ZM46.11,51.8l0,0-.21-.41-.21.17ZM26.64,38l.12,0a.61.61,0,0,0,0-.13s-.05,0-.06-.05,0,0,0-.07l-.06.05c0,.13-.08.09-.15.08a.57.57,0,0,0-.13,0c.11.06.3,0,.24.22h.1ZM12.23,29.93c-.06.11-.11.23-.14.23s-.11.08-.12.14a.53.53,0,0,1,.16,0l.13,0s0-.08,0-.12Zm2.69,3v0l-.81-.47v0Zm10.71,4.56.27.19.13-.13C26,37.36,25.76,37.58,25.63,37.52Zm.53.37V37.7c0-.06,0-.12,0-.17a.45.45,0,0,0,0-.11.49.49,0,0,0,0,.11s0,.11-.05.16S26.08,37.86,26.16,37.89ZM43.77,49.52c-.13.26-.12.27.15.3Zm0,.63,0,.06a.94.94,0,0,0,.16,0s.08-.08.08-.09,0-.22-.18-.16l.1.14ZM28.09,38.79h.07v-.26l0,0c-.06.23-.11,0-.18,0ZM45,50.59l.06,0-.16-.32-.12.07ZM12,29.77a1.13,1.13,0,0,0-.11.11l0,0,.13-.09s0,0,0-.07a.53.53,0,0,0,0-.12l-.13,0ZM44.91,51l.12-.11.08,0s-.06-.07-.09-.07S44.86,50.89,44.91,51ZM27.79,38.69,28,39l0,0C28,38.88,28,38.71,27.79,38.69Zm16.64,11.6c0,.07.07.14.11.2l.06,0s0,0,0,0,.09,0,.05-.14ZM12.15,30c-.11-.08-.22,0-.36.16Zm4.62,2.85.32,0L17,32.75a.53.53,0,0,1-.16,0S16.81,32.77,16.77,32.85Zm-4.67-2.5,0,0c.18.17.18.17.28.08l-.14,0A.37.37,0,0,1,12.1,30.35Zm3,1.23.05,0a1,1,0,0,0,.08-.11l.07-.07s-.1,0-.13,0A.46.46,0,0,0,15.09,31.58Zm12.36,7,0,.05.23.18,0-.05Zm3.38,2v-.07l-.28-.06v0ZM17.2,32.18l0,.07.18,0a.54.54,0,0,1,0-.08ZM9.65,29.66l0,0,.16-.25,0,0ZM15.11,31s0,.07,0,.07l.15.1h0a.51.51,0,0,0-.07-.17S15.15,31,15.11,31ZM45.46,51.29l.1.11a.57.57,0,0,1,0,.14C45.68,51.39,45.66,51.35,45.46,51.29ZM12.56,31.41l0,.05.27.13,0,0Zm4.1,1,.05,0-.14-.13s0,0,0,.05Zm-2.15-1.77,0,0-.24-.17,0,0Zm-2.38-1.06,0-.26-.15.1ZM26.41,37.8l.18-.06s0-.06,0-.06l-.15,0A.22.22,0,0,0,26.41,37.8Z"/><path d="M33.16,63H29.85a5.44,5.44,0,0,0-2.44.61,3.73,3.73,0,0,1-1.26.45h-.33L24,64l-1.73,0-2.52,0H11.12L9.63,64,7.71,64H4.49a12.71,12.71,0,0,1-1.38,0c-.22,0-.42-.18-.64-.25a6.17,6.17,0,0,0-.74-.19.21.21,0,0,0-.17.11.63.63,0,0,1-1,.17A1.28,1.28,0,0,1,.15,63,19.43,19.43,0,0,1,0,61c0-.8.05-1.6.11-2.4A5.55,5.55,0,0,1,.43,57a.75.75,0,0,1,.7-.48.5.5,0,0,1,.55.36c0,.08.22.13.32.11a5.73,5.73,0,0,0,.89-.28,1.52,1.52,0,0,1,.63-.1l1.12,0,1.58,0,2.25,0,2.36.07h.11l2.87,0,2.14.06h1.28l3.06,0h1.59c1.44,0,2.87,0,4.31,0a2.86,2.86,0,0,1,1,.36,8.09,8.09,0,0,0,1.72.64,4.69,4.69,0,0,0,.84.08c1.18,0,2.36,0,3.54,0,.45,0,.91,0,1.36,0a.36.36,0,0,1,.25.11.34.34,0,0,0,.29.12c.74,0,1.49.1,2.24.13a21.15,21.15,0,0,1,4.4.71c.86.23,1.7.51,2.55.78a.27.27,0,0,1,.13.19,1.2,1.2,0,0,1,0,.38q0,.36,0,.72s-.08.07-.13.09c-.61.19-1.22.39-1.85.55s-1.49.34-2.24.51a16.27,16.27,0,0,1-2.51.33l-1.75.07L35,62.8c-.05,0-.12.05-.13.09a.19.19,0,0,1-.21.13c-.51,0-1,0-1.53,0Zm-9.95-4.82-.08,0v.06l-.11.11c0-.18-.13-.2-.24-.23s-.1,0-.16.07l.2.17c.07-.1.14,0,.21,0l-.09.11.22,0s0,0,0-.07c.17.1.27,0,.3-.17l.12.08.13-.05,0,.13a.56.56,0,0,1,0,.07l.13,0s.06,0,.06,0,0-.11.09-.11.05,0,0,0l-.36-.18a1.33,1.33,0,0,0-.17.14l-.09.09-.08-.24Zm-1.36,0,0-.11-.38,0,.11,0,.06.18.17,0-.13.12.2.1c-.05-.07-.16-.12,0-.14s0-.05,0-.07Zm-18.55,0L3.16,58s0,0,0,0H2.94l0,0,.38.16.08,0c.06-.09.12-.17.17-.26s0-.06-.06-.07-.07,0-.09,0,0,.1,0,.12.09.11,0,.12S3.31,58.13,3.3,58.17Zm6.76.6H9.81s-.05,0-.08,0l.09,0,.22.05,0-.11.17,0,.1,0-.09-.1a.57.57,0,0,0,0-.18,1.52,1.52,0,0,0,0-.21h0l.29.55.06,0-.06-.12.17-.13-.28,0v-.06c.15,0,.32.08.34-.18l0,0,0,.2c0-.11.22.1.17-.13l.09,0,.2.33,0,0,0-.13.21.16,0,0,0-.08,0,0,.19.17.2-.19.09.08.06-.15c0,.2,0,.23.2.21s.08,0,.12-.06l.31-.07c.08,0,.19.14.25,0h0c.17.05.17.05.31,0l0,0c0,.23.08,0,.12,0s.09.18.23,0,0,0,.05,0,.08,0,.13-.08l.34,0s.1,0,.11,0,0,.12.1.11h.13l-.11.13.4-.17-.09-.06c.19-.11.34,0,.49.08l0-.11,0,0,.15.12,0,0-.15-.19,0-.06a.15.15,0,0,1,.07,0l.38,0,0-.16.2.23c-.27-.06-.29.07-.29.27,0-.07.2,0,.1-.15l.1-.05c.09.2.35-.09.42.14h.28s.09,0,.1,0,.33-.09.5-.13.2,0,.28,0l0,0-.27.09.14-.21a1.17,1.17,0,0,1-.27-.05c-.11-.06-.17.17-.28,0-.17.09-.29.06-.34-.14l-.08.16c0-.09-.05-.22-.2-.12l.07.11-.3-.13a.3.3,0,0,0-.13,0l-.29.1,0,0a1.28,1.28,0,0,0-.24-.11s-.08,0-.11.08l-.07.17,0-.2-.29.08s0,.08-.07.11l-.06,0,.06-.12v-.07c-.16.18-.28,0-.42,0V58l-.28-.17,0,.05a2.5,2.5,0,0,0,.24.22s.08,0,.12-.07l.09,0c.09-.16.12,0,.2,0a1.17,1.17,0,0,1-.35,0c-.14,0-.19,0-.21.15l-.19,0c.25-.11.25-.11,0-.41l0,.17h0c-.1-.12-.1-.12-.19-.05a.15.15,0,0,1-.09,0c-.11,0-.26-.11-.34-.06s-.34,0-.51,0c0,0,0,0-.08,0l0,.1c0,.07,0,.15-.09.11.1-.05,0-.06,0-.12s-.23-.06-.31-.16h0c0,.17-.12,0-.15.09a.26.26,0,0,0-.31,0s-.11-.05-.16-.08,0-.07-.07-.06l-.58.12-.11,0s0-.09,0-.1-.07,0-.08,0a.38.38,0,0,0-.1.12s0,.05.05.08l.09.16-.06,0c0-.13-.18-.17-.14-.32a.44.44,0,0,0-.16,0,.76.76,0,0,0-.15.08c0-.19,0-.16-.13-.12a1.36,1.36,0,0,1-.25.11h0a1.19,1.19,0,0,0-.25-.13.71.71,0,0,0-.2,0,.61.61,0,0,0-.13.22c0,.19-.12,0-.14,0l0-.06L9,58,8.91,58l0,.1A.17.17,0,0,1,8.63,58c0-.17-.18,0-.19-.11a.52.52,0,0,0-.11.1l-.09.11-.11-.16c-.07.13-.14.27-.31.16a1,1,0,0,1-.07.15c-.1-.14-.14.11-.24,0s.1.1.14.09.07-.08.1-.13a1.28,1.28,0,0,1,.82,0v.09s.09,0,.09,0,.08-.12.17-.08.06,0,.1-.07l.28.06c0,.11-.22.1-.09.23s.12,0,.17,0v0l-.14,0v0l.19,0-.11-.15c.23,0,.17.19.2.25l.35-.28,0,.1c-.08,0-.16,0-.09.14a.62.62,0,0,1,0,.16.83.83,0,0,1,.22.08S10,58.74,10.06,58.77ZM5.3,58.15l-.16,0s0,0,0,0l.08,0-.12.17L5,58l.2-.1a.15.15,0,0,0-.17,0S5,58,5,58l-.14,0,0,.09c-.05,0-.14,0-.14,0C4.7,57.88,4.58,58,4.5,58a2,2,0,0,0-.23.07l-.11.09.18.17L4,58.23l.08.16h0l-.18-.16.21-.19c-.26.11-.26.11-.36-.11h.45a.72.72,0,0,0-.37-.09c-.12,0-.19.09-.1.22a.19.19,0,0,1,0,.18s-.11,0-.18.06l-.07-.1.21-.05,0-.07a4.4,4.4,0,0,0-.51.18c-.08,0-.09.12,0,.19l.08-.07a.27.27,0,0,0,.35,0c.14-.07.2.08.32.09-.23,0-.36,0-.34.11s.27,0,.35,0,.15,0,.21,0c.07.11-.15.13-.07.24-.18.09-.06-.12-.14-.13l-.09,0,.14.37c.2-.27.28,0,.43,0l-.24-.36,0,0,.24.27,0-.23.15.12a.87.87,0,0,0-.13.15.11.11,0,0,0,0,.08h.07c0-.11.06-.1.11-.14l-.07-.09h0v0c.12,0,.12-.16.14-.15.18.12.07-.08.1-.1l.13,0,0,0-.15-.19.25-.1.11.18.12-.24,0,.16c.16-.08.12.07.17.13a.94.94,0,0,0,0-.3.54.54,0,0,0-.15,0v-.1l.26,0V58.1ZM42.69,60a.68.68,0,0,0-.53-.18.18.18,0,0,0-.08.07s0,.06,0,.08h.07a.21.21,0,0,1,.26,0,.21.21,0,0,0,.26,0c.07.08.07.08.18-.09l-.13,0ZM18.55,58.07a1.12,1.12,0,0,1-.27.1c-.18,0-.21.1-.25.23.09,0,.19-.11.24-.09s.24-.06.32-.18l.29-.06C18.8,58,18.6,58,18.55,58.07Zm9.8.49a.85.85,0,0,1,0,.2s0,0-.06,0l0,0c.06-.23-.13-.26-.27-.3L26.6,58c-.2-.06-.43,0-.47.12a1.26,1.26,0,0,0,0,.39c0,.4,0,.8.09,1.19a1.27,1.27,0,0,0,.18.62.46.46,0,0,0,.41.19c.37,0,.74,0,1.1,0a1,1,0,0,0,.19-.06.43.43,0,0,0,.16,0c.13-.06.3-.06.34-.24a.08.08,0,0,1,.08,0c.16.05.12-.06.11-.15l.22,0L28.88,60c.05-.05.15-.12.14-.13s.07-.29.05-.46,0-.25-.16-.33l.12,0L29,58.84c-.18.22-.16,0-.19-.14l-.11.2C28.67,58.64,28.47,58.67,28.35,58.56Zm-8.49-.48.12.2a.31.31,0,0,1,0,.1l.16-.06s0,0,.06-.06.09,0,.12,0a.24.24,0,0,1,.31-.06l-.16.15,0,0a.84.84,0,0,0,.19-.09,1,1,0,0,0,.13-.16l.14.15.05,0s-.09,0-.09-.05,0-.12-.11-.11a1.35,1.35,0,0,0-.35.06c-.09,0-.17-.11-.25,0a1.3,1.3,0,0,1-.18.15C20,58.05,20,58.05,19.86,58.08Zm23.86,2.23-.1-.15a.28.28,0,0,1,0-.09.18.18,0,0,1-.07,0s-.09,0-.1,0c-.09-.22-.23-.3-.44-.23,0,0-.08.09-.1.14s.05.07.08.07a.13.13,0,0,0,.1,0c0-.18.12-.09.16-.11v.14c.12,0,.15,0,.13.13l.11,0,.18.07.12.09a.78.78,0,0,0,0-.16,1.42,1.42,0,0,0,0-.16h0ZM.9,58H.83L.69,60H.74Zm16.62.33c.15.16.28-.13.43,0v0a.9.9,0,0,0,.14-.2S18,58,18,58l-.12.18,0,0,0-.21c-.25.13-.27.17-.18.33Zm5.36.12v-.05c-.19.07-.23-.11-.33-.2s-.29-.1-.4.1l.19-.07c0,.26.26.17.4.25S22.83,58.43,22.88,58.42ZM5.54,58.23s0,.09.07.1l.61.13L6,58.15s-.07,0-.07,0c0,.16-.07,0-.11,0H5.7C5.76,58.36,5.61,58.21,5.54,58.23Zm38,2.24v0l-.38-.25-.1.25Zm-23.75-2.2.12,0-.09-.1h-.08l-.05-.05s0,.06,0,.07,0,.11-.09.14l-.11.08c.13,0,.25-.16.32.07l.1,0Zm-16.53.2c0,.12,0,.25,0,.27s-.06.13,0,.18l.12-.12.13,0a.53.53,0,0,0-.06-.1A1.3,1.3,0,0,0,3.23,58.47Zm3.85,1.28v0H6.14v0Zm11.55-1.41.33,0L19,58.2C18.83,58,18.78,58.33,18.63,58.34Zm.65,0a1,1,0,0,1-.1-.16s0-.11-.07-.16A.27.27,0,0,0,19,58s0,.07,0,.11a.94.94,0,0,1,0,.16C19.1,58.44,19.19,58.42,19.28,58.39Zm21.06,1.27c0,.29,0,.3.29.19Zm.33.54v.07a1,1,0,0,0,.16-.05s0-.11,0-.11-.12-.19-.23,0l.16.07Zm-19.27-2,.06,0L21.33,58h0c.06.24-.11,0-.14.12ZM42,60l0-.05-.3-.19-.07.12Zm-39-1.5q0,.09,0,.15l0,0A.84.84,0,0,0,3,58.49s0-.05,0-.07l-.09-.09-.1.09Zm39.16,1.93s0-.1.05-.16l0-.08s-.08,0-.11,0S42,60.31,42.08,60.39Zm-21-2.12.35.16,0,0C21.36,58.34,21.29,58.19,21.09,58.27ZM41.3,60l.19.12a.07.07,0,0,0,.07,0v0c-.18,0,0-.08,0-.15ZM3.2,58.57c-.14,0-.21.08-.24.32Zm5.43.16.28-.14-.12-.07a.57.57,0,0,1-.12.11S8.63,58.64,8.63,58.73Zm-5.3.17V59c.23,0,.23,0,.27-.08a.58.58,0,0,1-.14,0Zm3.2-.43h.06a.59.59,0,0,1,0-.13s0-.07,0-.1-.08.05-.09.08S6.53,58.41,6.53,58.47Zm14.2-.15v.07l.28,0v-.06Zm3.92,0,0-.06-.28.09,0,0Zm-16-.43,0,.08.18-.07s0-.06,0-.06ZM.87,59.53H.92l0-.29h0ZM6.27,58s0,.06,0,.06h.18s0,0,0,0l-.14-.11S6.3,57.94,6.27,58Zm36.42,2.38.14,0,.11.1C42.93,60.33,42.89,60.31,42.69,60.35ZM4.25,59.59v0h.3v0ZM8.31,58.4l0-.07-.19,0s0,.06,0,.06Zm-2.74-.46v0l-.3,0v0ZM3,58.22,2.82,58l-.08.16Zm16.48,0,.13-.14,0,0a.58.58,0,0,0-.12.1S19.43,58.15,19.45,58.19Z"/><path d="M37.88,76.62c-1,.55-1.91,1.11-2.87,1.65A5.41,5.41,0,0,0,33.2,80a3.49,3.49,0,0,1-.86,1,2.64,2.64,0,0,1-.29.15l-1.53.92c-.5.28-1,.55-1.51.84-.73.42-1.45.85-2.17,1.28l-2.37,1.38L21.35,87.4l-2,1.17c-.43.24-.87.47-1.3.72s-1.1.66-1.66,1l-2.78,1.62c-.39.23-.77.5-1.19.7a3.47,3.47,0,0,1-.68.1,6.05,6.05,0,0,0-.73.2.2.2,0,0,0-.09.18.64.64,0,0,1-.79.65,1.3,1.3,0,0,1-.81-.58c-.39-.54-.79-1.08-1.13-1.66s-.76-1.41-1.11-2.13a6,6,0,0,1-.52-1.54A.78.78,0,0,1,6.91,87a.49.49,0,0,1,.66,0c.06,0,.26,0,.33-.07a5.16,5.16,0,0,0,.63-.69A1.33,1.33,0,0,1,9,85.93l1-.53c.47-.25.94-.49,1.4-.75.66-.36,1.3-.74,2-1.11l2.07-1.12.1,0L18.05,81c.62-.35,1.25-.68,1.88-1L21,79.3c.89-.51,1.78-1,2.66-1.51L25.07,77c1.25-.71,2.49-1.44,3.75-2.12a3,3,0,0,1,1.09-.22,7.37,7.37,0,0,0,1.81-.3,4.86,4.86,0,0,0,.77-.34l3.08-1.76c.4-.22.79-.45,1.19-.66a.39.39,0,0,1,.28,0,.32.32,0,0,0,.3,0l2-1a21.46,21.46,0,0,1,4.17-1.59c.86-.23,1.73-.41,2.6-.6.05,0,.15,0,.2.1a1.39,1.39,0,0,1,.23.31c.12.21.23.42.33.64,0,0,0,.1-.06.14-.44.47-.87,1-1.33,1.4s-1.12,1-1.69,1.56a15.07,15.07,0,0,1-2,1.54L40.32,75l-.91.57a.17.17,0,0,0-.07.14.17.17,0,0,1-.11.21l-1.33.77Zm-11,.8h-.08l0,.06,0,.15c-.07-.17-.21-.11-.32-.09s-.07.09-.11.15l.26,0c0-.11.11-.08.17-.11l0,.14.21-.08s0,0,0-.08c.19,0,.25-.1.16-.29h.15l.09-.1a.56.56,0,0,0,0,.12s0,.07,0,.07l.11,0s0-.07,0-.07,0-.09,0-.14,0-.06,0-.06l-.41,0s0,.13-.07.21l0,.12-.19-.16Zm-1.17.69,0-.13-.31.22.07-.1.14.12.13-.12-.06.17h.23c-.08,0-.2,0-.09-.11s0-.05,0-.08ZM9.62,87.39l-.2-.07s0,0-.05,0l-.17.09v0l.41-.06a.35.35,0,0,0,.05-.08c0-.1,0-.2,0-.3s-.06,0-.09,0-.06,0-.06.07,0,.11,0,.12.14,0,0,.13S9.61,87.36,9.62,87.39Zm6.16-2.86-.23.12s0,0-.05.07l.1,0,.21-.07,0-.1.14-.11a.23.23,0,0,0,.07-.07l-.12,0a.51.51,0,0,0-.07-.17.65.65,0,0,0-.13-.16l0,0,.52.33,0-.06-.11-.07.08-.2L16,84,16,84c.14,0,.31-.09.2-.33h.06l.08.18c0-.11.24,0,.08-.2l.06-.08.34.19,0,0-.1-.1.25,0v0l-.09-.05,0,0,.25,0c0-.08,0-.17.07-.26l.12,0v-.17c.09.17.12.19.27.09s0-.08.07-.12l.24-.21c.06-.06.24,0,.2-.16l0,0c.17,0,.17,0,.25-.19s0,0,0,0c.12.19.05-.06.1,0s.17.11.23-.07c0,0,0,0,0,0s.08,0,.07-.12l.27-.23s.09,0,.1,0,.07.1.15,0a1.05,1.05,0,0,1,.11-.07l0,.17.26-.35h-.1c.11-.18.28-.18.46-.18L20,81.53v0l.19,0,0,0L20,81.39l-.07,0s0,0,0-.06l.34-.17L20.16,81l.3.1c-.27.07-.22.2-.13.37,0-.08.18-.09,0-.18l.06-.09c.18.13.25-.26.44-.09a0,0,0,0,1,0,0l.21-.14s.09,0,.09,0c0-.22.24-.25.37-.37s.18-.09.22-.18l0,0-.19.22v-.25a.58.58,0,0,1-.25.09c-.12,0-.06.24-.22.17-.1.17-.23.21-.36.06v.18c-.07-.06-.15-.17-.23,0l.12.06-.32,0a.26.26,0,0,0-.11.07l-.21.23h0a1.23,1.23,0,0,0-.27,0s0,.08,0,.13a.65.65,0,0,0,0,.18l-.13-.16a2.18,2.18,0,0,0-.21.22s0,.08,0,.13h-.06a.53.53,0,0,0,0-.13s0,0,0-.06c-.05.23-.24.15-.39.18l.09.15h-.31v.06a1.55,1.55,0,0,0,.31.07s0-.08.07-.12l.1,0c0-.17.09-.07.19-.07A1.31,1.31,0,0,1,19,82c-.13,0-.15.11-.1.23l-.19,0c.16-.22.16-.22-.23-.34l.12.12h0c-.14,0-.14,0-.19,0s0,0-.08,0-.28,0-.32.11-.32.16-.43.29-.05,0-.08,0l.07.07c.05,0,.12.11,0,.14.06-.09,0-.07-.06-.1s-.23.06-.34,0l0,0c.11.13-.1.08-.09.15a.29.29,0,0,0-.26.19s-.11,0-.17,0-.08,0-.09,0l-.44.4-.09.08s0-.1,0-.1-.1,0-.1,0a.3.3,0,0,0,0,.16s.05,0,.08,0l.16.09,0,.06c-.07-.1-.25,0-.28-.2a.67.67,0,0,0-.15.06.83.83,0,0,0-.09.15c-.06-.19-.11-.13-.17,0s-.11.15-.17.23h0a1.29,1.29,0,0,0-.28,0,.84.84,0,0,0-.19.08.76.76,0,0,0,0,.26c.08.17-.12,0-.1.1l-.06,0-.08,0s0,0,0,.08a.43.43,0,0,0,0,.11.18.18,0,0,1-.29,0c-.1-.14-.15.09-.22,0s0,.09,0,.14a.8.8,0,0,0,0,.15l-.17-.09c0,.14,0,.3-.19.29,0,.06,0,.11,0,.16-.15-.07-.07.17-.19.15.06,0,.13,0,.16,0s0-.11,0-.16a1.35,1.35,0,0,1,.72-.39l0,.08s.07,0,.06-.07,0-.14.11-.15,0-.07.05-.11l.28-.09c.05.1-.15.2,0,.25,0,0,.1,0,.16-.06l0,0-.13,0,0,0,.16-.11-.18-.08c.22-.1.25.09.31.12l.16-.42.07.09c-.06,0-.14.09,0,.15l.12.12a1.57,1.57,0,0,1,.23,0A.31.31,0,0,1,15.78,84.53Zm-4.44,1.84-.15,0s0,0,0,.06l.08,0,0,.21L11,86.39l.13-.19a.22.22,0,0,0-.16.08s0,.08,0,.11l-.13,0,.07.07s-.11.07-.12.06-.18,0-.26.08a.83.83,0,0,0-.15.17l-.06.13.24.06-.32.07.15.09v0l-.24,0,.09-.28c-.17.23-.17.23-.37.09l.39-.23a.73.73,0,0,0-.36.11c-.1.07-.13.17,0,.25s.11.1.1.14-.08.1-.12.15l-.12,0,.16-.15-.08,0c-.12.14-.25.27-.35.41s0,.15.08.17,0-.1.05-.1.23,0,.3-.15.23,0,.33-.08c-.21.1-.29.2-.24.26s.23-.14.33-.13.14-.06.16-.13-.07.18.06.24c-.11.16-.11-.08-.18,0l-.09,0,.29.25c0-.33.25-.14.4-.18l-.39-.18,0,0,.33.12-.09-.22.19,0c0,.07,0,.13,0,.2s0,0,.06.06l.06,0c-.1-.08,0-.13,0-.18l-.1-.05h0v0c.12,0,0-.2,0-.2.22,0,0-.11,0-.14l.14,0v0l-.23-.09.17-.22.18.11v-.28l.1.13c.1-.15.14,0,.22,0a1.43,1.43,0,0,0-.2-.23.87.87,0,0,0-.12.09l-.05-.09.22-.14-.05-.06Zm33.3-17.1a.7.7,0,0,0-.55.11.19.19,0,0,0,0,.1s0,0,.06.06a.08.08,0,0,0,.06,0c0-.11.2-.12.23-.11s.18,0,.24-.12.09,0,.11-.16l-.14,0ZM22.77,79.68c-.06.07-.1.18-.18.22s-.13.19-.1.32c.06-.06.11-.18.17-.19.21,0,.17-.18.18-.31l.22-.21C23,79.48,22.77,79.56,22.77,79.68Zm8.74-4.47.08.18a.08.08,0,0,1,0,.06s0,0,0,0c-.07-.22-.24-.15-.38-.12l-1.4.31c-.2.05-.37.21-.34.34a1.19,1.19,0,0,0,.15.35c.22.34.44.68.68,1a1.25,1.25,0,0,0,.47.44.5.5,0,0,0,.45,0c.32-.17.64-.37,1-.56a.6.6,0,0,0,.13-.14.39.39,0,0,0,.14-.08c.08-.12.23-.2.18-.38a.12.12,0,0,1,.05-.07c.16,0,.08-.11,0-.18l.21-.08-.14,0a1.18,1.18,0,0,0,.06-.19c-.17-.08-.08-.28-.18-.42s-.14-.21-.31-.2l.12,0-.18-.2c0,.28-.13.09-.23,0v.22C31.82,75.11,31.67,75.24,31.51,75.21ZM23.91,79l.21.11s0,.06.06.09a1.34,1.34,0,0,1,.11-.14s0,0,0-.08.08,0,.09-.09.12-.17.23-.2l-.06.21h.05a.67.67,0,0,0,.11-.18.42.42,0,0,0,0-.19l.2.06,0-.08s-.09,0-.1,0-.07-.1-.16,0a1.86,1.86,0,0,0-.27.22c-.06.07-.2,0-.22.13a.81.81,0,0,1-.07.22C24,79,24,79,23.91,79ZM45.7,69,45.53,69s0,0-.05-.06l0,.07s-.08.05-.09,0c-.2-.14-.36-.14-.5,0s0,.11,0,.17a.14.14,0,0,0,.1,0s.08-.08.07-.09.06-.14.09-.18l.07.13c.08-.09.13-.07.17,0a.27.27,0,0,0,.12,0,1.38,1.38,0,0,0,.2,0l.14,0a.59.59,0,0,0-.06-.14.5.5,0,0,0-.13-.12l0,0ZM7.44,88.42l-.06,0,.91,1.86.05,0Zm14.56-8c.21.06.18-.25.37-.2v0a.71.71,0,0,0,0-.25s-.1,0-.15,0l0,.21h0l-.06-.21c-.16.24-.16.29,0,.38Zm4.7-2.57,0,0c-.14.16-.26,0-.38,0s-.31.06-.3.28l.12-.15c.16.21.32,0,.47,0S26.67,77.85,26.7,77.82Zm-15.11,8.5c.05,0,.08.06.11.05l.6-.19c-.16-.06-.27-.11-.38-.14s-.07,0-.07,0c.07.16,0,0-.08.07s-.06,0-.08.05C11.84,86.32,11.64,86.27,11.59,86.32Zm34-17,0,0-.46,0,0,.26Zm-21.67,10,.09-.09-.12,0s-.05,0-.08,0l-.07,0a.17.17,0,0,0,0,.08c.12.06,0,.11,0,.16a.67.67,0,0,0-.06.12c.11-.06.14-.26.31-.09l.06-.09ZM9.71,87.68c.06.11.15.21.13.24s0,.14.06.17,0-.11,0-.16l.08-.09-.09-.07Zm4-.81,0,0-.81.47v0Zm9.3-7,.3-.15-.05-.17C23,79.52,23.1,79.79,23,79.88Zm.58-.28-.17-.1-.14-.1-.1,0,.07.08.11.12C23.43,79.72,23.51,79.66,23.57,79.6Zm18.88-9.44c.16.25.17.25.34,0Zm.55.31,0,0a.45.45,0,0,0,.11-.13s0-.1,0-.1-.2-.1-.23.08l.17,0ZM25.31,78.38l0-.06-.22-.13h-.05c.17.18-.08.09-.07.17ZM44,69.61v-.07h-.35v.14ZM9.44,87.83c0,.06,0,.1.05.15h0s0-.11,0-.16l0,0-.12,0,0,.14Zm34.88-17.9c0-.06,0-.11,0-.17v-.09s-.09,0-.11,0S44.18,69.9,44.32,69.93ZM25.08,78.59l.38,0v-.06C25.34,78.51,25.21,78.41,25.08,78.59ZM43.44,70h.23a.07.07,0,0,0,0,0l0,0c-.18,0,0-.1-.1-.11ZM9.73,87.79c-.12.06-.14.17,0,.39Zm4.78-2.58.18-.26h-.14a.5.5,0,0,1-.05.16S14.47,85.14,14.51,85.21ZM10,88l0,0c.23-.07.23-.07.2-.21a.55.55,0,0,1-.11.1A.45.45,0,0,1,10,88Zm2.56-2,0,0a.61.61,0,0,0,0-.12l0-.1a.31.31,0,0,0,0,.12A.6.6,0,0,0,12.57,86Zm12.22-7.22,0,.06.27-.1,0-.07Zm3.41-1.92,0,0-.2.22,0,0ZM14.14,84.51l.06,0,.12-.14-.06,0Zm-6,5.27.05,0-.13-.27,0,0Zm3.9-4,.06,0,.15-.08s0,0,0,0a.55.55,0,0,0-.18,0S12.11,85.69,12.09,85.73ZM44.83,69.58l.14,0a.7.7,0,0,1,.14,0C45,69.45,45,69.44,44.83,69.58ZM11.16,88.14l0,0,.25-.17,0,0Zm2.91-3,0-.08-.18.06s0,.06,0,.06Zm-2.6,1,0-.06-.27.13,0,0ZM9.36,87.6l-.24-.12v.18Zm14.26-8.26,0-.19s-.06,0-.07,0a.58.58,0,0,0-.05.14S23.58,79.31,23.62,79.34Z"/><path d="M48.79,86.08,47.13,89a5.46,5.46,0,0,0-.69,2.41,3.42,3.42,0,0,1-.24,1.31c-.05.1-.12.19-.17.28-.29.52-.58,1-.87,1.56s-.6,1-.89,1.49c-.41.72-.82,1.46-1.24,2.19l-1.35,2.37-1.81,3.12-1.17,2c-.25.43-.52.85-.76,1.28s-.63,1.12-.95,1.68c-.53.93-1.06,1.86-1.6,2.79-.22.4-.42.82-.68,1.2-.12.18-.37.27-.54.42a6.88,6.88,0,0,0-.53.55.24.24,0,0,0,0,.2.63.63,0,0,1-.35,1,1.28,1.28,0,0,1-1-.09c-.61-.28-1.23-.55-1.8-.88s-1.37-.84-2-1.29a5.42,5.42,0,0,1-1.22-1.07.76.76,0,0,1-.07-.85.49.49,0,0,1,.59-.3c.08,0,.22-.13.25-.22a5,5,0,0,0,.2-.91,1.46,1.46,0,0,1,.23-.59l.6-1c.27-.44.56-.89.83-1.34.39-.64.76-1.3,1.15-1.94s.82-1.34,1.23-2l.06-.09,1.47-2.47,1.12-1.82c.22-.37.42-.75.63-1.12.52-.88,1-1.75,1.55-2.63l.8-1.38c.73-1.24,1.43-2.49,2.19-3.71a3.14,3.14,0,0,1,.84-.73,7.9,7.9,0,0,0,1.41-1.17,4.76,4.76,0,0,0,.5-.68c.6-1,1.19-2,1.78-3.06.23-.39.47-.78.71-1.17a.38.38,0,0,1,.22-.16.35.35,0,0,0,.25-.19c.4-.62.82-1.24,1.23-1.87a21.32,21.32,0,0,1,2.82-3.46c.62-.63,1.29-1.22,1.94-1.82a.3.3,0,0,1,.23,0,1.65,1.65,0,0,1,.36.16q.3.18.6.39s0,.1,0,.15c-.15.63-.28,1.26-.45,1.88s-.45,1.46-.68,2.19a15,15,0,0,1-1,2.34c-.26.52-.53,1-.8,1.55-.17.32-.34.63-.5.95a.16.16,0,0,0,0,.15.2.2,0,0,1,0,.25c-.26.43-.51.88-.77,1.32Zm-9.15,6.21-.06,0,.05,0,0,.15c-.14-.11-.23,0-.32.09s0,.11,0,.18l.25-.1c0-.1.05-.12.09-.18l0,.13.14-.17s0,0,0-.07c.17-.09.16-.21,0-.33L40,92l0-.14.09.09s.06,0,.06,0l.08-.09a.15.15,0,0,0,0-.08c-.17,0-.08-.06,0-.13s0-.07,0-.06l-.35.22a1.81,1.81,0,0,1,0,.22l0,.12-.24,0ZM39,93.47l-.08-.1-.16.34v-.12l.19,0a1,1,0,0,1,0-.17l0,.17.2-.12c-.09,0-.19.08-.14-.05s0,0,0-.06ZM29.7,109.53l-.2,0h-.06l-.09.16,0,0,.32-.25s0-.07,0-.09a2.44,2.44,0,0,0-.14-.28s-.07,0-.09,0,0,.06,0,.09.06.1.09.1.14,0,.08.09S29.68,109.51,29.7,109.53ZM33.61,104a1.64,1.64,0,0,0-.14.22.19.19,0,0,0,0,.08l.08-.06.15-.17L33.6,104s0-.1.07-.16l0-.1-.13,0a.88.88,0,0,0-.15-.12l-.19-.07,0,0,.61,0v-.06h-.13l0-.22-.18.22-.05,0c.1-.12.23-.24,0-.39l0,0,.16.11c-.08-.07.2-.13,0-.21v-.1h.39v0l-.13,0,.24-.1v0h-.1l0,0,.25-.09c0-.08,0-.17-.07-.26l.12,0-.1-.14c.17.1.21.1.28-.06s0-.09,0-.14.06-.2.09-.3.22-.1.09-.24l0,0c.13-.12.13-.12.12-.29s0,0,0,0c.2.1,0-.08.07-.09.21,0,.21,0,.17-.17a0,0,0,0,1,0,0c.05-.06.06-.06,0-.15l.12-.33s0-.08.07-.08.11,0,.15,0a.67.67,0,0,1,.06-.12l0,.16,0-.43-.1,0c0-.22.16-.31.32-.39h-.11v0l.18-.08v0l-.23,0h-.08a.22.22,0,0,1,0-.08l.21-.31-.15,0,.3-.07c-.19.2-.08.29.08.39,0-.07.11-.17-.07-.17v-.11c.22,0,.09-.34.34-.29v0l.12-.22s.07-.06.06-.07c-.07-.2.09-.34.14-.5s.11-.17.1-.27h0l-.05.29-.12-.23c-.06.07-.1.16-.17.2s.06.24-.11.26c0,.2-.1.29-.29.23l.1.16c-.1,0-.22-.08-.21.11H36l-.26.19a.27.27,0,0,0-.06.12c0,.1,0,.2-.07.3s0,0,0,0-.15.09-.22.15,0,.09,0,.13a.63.63,0,0,0,.11.15l-.19-.08c0,.1,0,.2-.07.3s0,.07.06.11l0,0-.07-.11-.06,0c.07.23-.13.25-.24.35l.15.09-.28.15,0,.06c.1,0,.2,0,.3-.09s0-.09,0-.14l.08-.07c-.09-.15,0-.11.13-.15a1.13,1.13,0,0,1-.14.33c-.09.11-.07.17,0,.25l-.13.14c0-.27,0-.27-.38-.18l.18,0,0,0c-.15,0-.15,0-.14.15s0,0,0,.07-.23.17-.23.26-.2.29-.23.46c0,0,0,0,0,.06l.09,0c.07,0,.16,0,.05.14,0-.11,0-.06-.1-.06s-.16.17-.29.18v0c.17.06,0,.12,0,.18a.28.28,0,0,0-.13.29s-.09.07-.15.1-.08,0-.08,0c-.07.19-.13.38-.19.57l0,.11s-.05-.08-.07-.08-.08,0-.08.05a.34.34,0,0,0,.06.15s.06,0,.09,0h.19v.07c-.11,0-.23.09-.34,0a.41.41,0,0,0-.1.13.43.43,0,0,0,0,.17c-.14-.13-.16,0-.16,0s0,.19,0,.28h0a1.94,1.94,0,0,0-.24.15s-.08.12-.12.16a.86.86,0,0,0,.13.23c.16.1-.09.07,0,.13h-.16s0,.06,0,.08l.07.08a.18.18,0,0,1-.25.15c-.15-.08-.09.15-.19.11l0,.14.06.14h-.2c.08.12.16.25,0,.35a1.13,1.13,0,0,1,.1.13c-.18,0,0,.18-.1.23.07,0,.14,0,.15-.08s0-.1-.06-.15a1.27,1.27,0,0,1,.44-.69l.07,0s0-.08,0-.09-.07-.12,0-.19,0-.07,0-.11l.2-.22c.09.05,0,.25.15.19s.08-.08.12-.13l-.05,0-.09.11,0,0,.08-.18-.19,0c.13-.2.26,0,.33,0l-.08-.45.1,0c0,.08-.07.15.07.15a.53.53,0,0,1,.17,0,1.3,1.3,0,0,1,.18-.15S33.56,104,33.61,104Zm-2.93,3.81a1.47,1.47,0,0,0-.1.13s0,0,0,0l0-.06.09.18L30.4,108l0-.22a.19.19,0,0,0-.1.14s.06,0,.09.08l-.09.1.1,0s-.07.12-.08.11c-.18,0-.14.12-.18.2a.79.79,0,0,0-.05.22v.15l.24-.07-.24.22h.18v0l-.23.08-.06-.28c0,.27,0,.28-.28.25l.22-.39a.83.83,0,0,0-.25.28c-.06.11,0,.21.14.2s.14,0,.16.08,0,.12,0,.18h-.12l.06-.2h-.08a4.52,4.52,0,0,0-.11.53c0,.09.07.13.16.1s0-.1,0-.1a.27.27,0,0,0,.19-.29c0-.16.18-.14.25-.23-.14.19-.16.32-.09.35s.13-.25.22-.29.09-.11.08-.19,0,.19.17.18c0,.19-.13,0-.18,0l-.07.06.38.07c-.13-.31.14-.25.26-.36l-.43,0v0L31,109l-.19-.14.18-.06a1.46,1.46,0,0,0,.07.19l.07,0s0,0,0-.06-.07-.1-.07-.16H31c.08-.1-.08-.18-.06-.2.2-.1,0-.1,0-.13l.09-.1v0l-.24,0c0-.09,0-.18,0-.28H31l-.15-.23.15,0c0-.17.12-.06.2-.08a1,1,0,0,0-.29-.11.69.69,0,0,0-.06.14l-.08,0,.11-.23-.06,0ZM51,76.33a.74.74,0,0,0-.43.38.19.19,0,0,0,0,.1s.05,0,.08,0a.17.17,0,0,0,0-.06.22.22,0,0,1,.14-.22c.13,0,.14-.12.15-.22s.1,0,0-.19l-.11.08Zm-13.74,20c0,.1,0,.21-.05.28s0,.23.07.33c0-.08,0-.21.05-.25s.07-.24,0-.36l.09-.29C37.29,96,37.18,96.18,37.24,96.28ZM42.57,88l.16.12a.08.08,0,0,1,0,.07s0,0,0,0c-.17-.16-.28,0-.39.09l-1,1c-.15.15-.22.37-.13.47a1.39,1.39,0,0,0,.31.23c.36.18.72.36,1.08.52a1.25,1.25,0,0,0,.63.15.47.47,0,0,0,.37-.26c.2-.31.37-.63.55-1a.53.53,0,0,0,0-.19.28.28,0,0,0,.08-.15c0-.14.1-.28,0-.41a.1.1,0,0,1,0-.09c.12-.11,0-.13-.08-.17l.14-.17-.14,0c0-.08,0-.2,0-.2-.19,0-.22-.2-.37-.27s-.23-.11-.37,0l.08-.09-.25-.08c.11.26-.06.14-.21.09l.11.19C42.79,87.8,42.72,88,42.57,88ZM37.9,95.15a1.92,1.92,0,0,1,.24,0,.18.18,0,0,1,.09,0l0-.17s0-.06,0-.08,0-.07,0-.13,0-.21.1-.29l.05.21h0a1.48,1.48,0,0,0,0-.21,1.07,1.07,0,0,0-.07-.19l.2,0,0-.08s-.07.06-.09.06-.11-.06-.15,0a1.46,1.46,0,0,0-.12.33c0,.09-.18.09-.13.22a.85.85,0,0,1,0,.23C37.93,95.05,37.93,95.05,37.9,95.15ZM51.77,75.6a.66.66,0,0,1-.19,0l-.07,0s0,.06,0,.08,0,.08,0,.08c-.24,0-.38.05-.42.28,0,0,0,.1.07.15s.08,0,.1,0,0-.11,0-.11,0-.15,0-.2l.12.07c0-.11.09-.12.17-.05s.07,0,.1-.06l.16-.13.13-.06a.94.94,0,0,0-.12-.09l-.17,0,0,0ZM28.33,111.52l0,.06L30,112.73l0,0Zm8.6-14.23c.21-.06,0-.31.21-.37v0a.91.91,0,0,0-.11-.22s-.1,0-.16,0l.09.2h0l-.16-.15c0,.29,0,.32.19.33Zm2.78-4.58,0,0c0,.2-.22.14-.34.18s-.23.21-.11.4l0-.2c.24.11.28-.14.41-.21S39.7,92.75,39.71,92.71Zm-8.84,14.92c.06,0,.11,0,.13,0l.42-.46-.4.06a.22.22,0,0,0-.05.06c.14.1,0,.07,0,.1a.2.2,0,0,0,0,.08C31.1,107.5,30.9,107.55,30.87,107.63ZM51.8,75.86l0,0-.41.2.17.22ZM38,95.33l0-.11-.13,0s0,.05-.05.07l-.07,0s0,.06.05.06.09.07.08.14a.57.57,0,0,0,0,.13c.06-.1,0-.29.22-.24v-.1Zm-8.09,14.41c.11.07.23.11.23.14s.08.12.14.12a.47.47,0,0,1,0-.16.53.53,0,0,1,0-.12.25.25,0,0,0-.12,0Zm3-2.69h0l-.47.82h0Zm4.56-10.7.19-.28-.13-.13C37.36,96,37.58,96.21,37.52,96.35Zm.37-.54H37.7l-.17,0a.45.45,0,0,0-.11,0l.11,0,.16,0C37.83,96,37.86,95.9,37.89,95.81ZM49.52,78.2c.26.13.27.13.3-.15Zm.63,0,.06,0a1.36,1.36,0,0,0,0-.17s-.08-.08-.09-.07-.22,0-.16.18l.14-.11ZM38.79,93.89v-.07h-.26l0,0c.23.07,0,.12,0,.18ZM50.59,77l0-.06-.32.17.07.12ZM29.77,110l.11.1,0,0-.09-.13h-.07l-.12,0,0,.14ZM51,77.06l-.11-.12,0-.07s-.07,0-.07.09S50.89,77.11,51,77.06ZM38.69,94.18,39,94l0,0C38.88,94,38.71,94,38.69,94.18Zm11.6-16.63a1.36,1.36,0,0,1,.2-.11.14.14,0,0,0,0-.07l0,0c-.13.14,0-.09-.14,0ZM30,109.82c-.08.12,0,.22.16.37Zm2.85-4.62,0-.31-.12.07a.62.62,0,0,1,0,.16S32.77,105.16,32.85,105.2Zm-2.5,4.67,0,0c.17-.17.17-.17.08-.27s0,.09,0,.13A.29.29,0,0,1,30.35,109.87Zm1.23-3,0,0-.11-.08-.07-.06s0,.1,0,.12S31.53,106.86,31.58,106.88Zm7-12.36.05,0,.18-.22-.05,0Zm2-3.37-.07,0-.06.29h0Zm-8.37,13.63.07,0,0-.19s-.08,0-.08,0Zm-2.52,7.54,0,0-.25-.17,0,0ZM31,106.87s.07,0,.07,0a.71.71,0,0,0,.1-.14.43.43,0,0,1,0,0l-.17.07S31,106.82,31,106.87ZM51.29,76.51l.11-.09a.58.58,0,0,1,.14,0C51.39,76.3,51.35,76.32,51.29,76.51ZM31.41,109.42l.05,0,.13-.26,0,0Zm1-4.11,0,0-.13.14s0,0,.05,0A.74.74,0,0,0,32.41,105.31Zm-1.77,2.15,0,0-.17.24,0,0Zm-1.06,2.39-.26,0,.1.15ZM37.8,95.56l-.06-.18-.06,0a.88.88,0,0,0,0,.16Z"/></g></g></svg>