<svg xmlns="http://www.w3.org/2000/svg" viewBox="0 0 124.71 124.77"><title>Recurso 100MANDALA</title><g id="Capa_2" data-name="Capa 2"><g id="Capa_1-2" data-name="Capa 1"><path d="M51.18,110.67c-1.57-9.3-1.27-15.12-.9-15,.53.13-.15,6.76,2.09,14.76a99.66,99.66,0,0,0,4.7,14.3A40.38,40.38,0,0,1,51.18,110.67Z"/><path d="M52.89,84.86c-3.25,8-2,14.27-2.65,14-.47-.18-.59-6.59.34-15.77.78-9.52,5.82-14.66,6.46-13.34S55.86,78.41,52.89,84.86Z"/><path d="M68.36,111.58c-4.65-8.21-6.36-13.77-6-13.75.55-.06,2.18,6.4,7,13.16a101,101,0,0,0,9.31,11.83A40.75,40.75,0,0,1,68.36,111.58Z"/><path d="M61.15,86.74c-.32,8.63,3,14.1,2.3,14.07-.51,0-2.81-6-5.07-14.93-2.53-9.21.45-15.76,1.5-14.75S61.73,79.66,61.15,86.74Z"/><path d="M84.83,106.56c-7.18-6.12-10.69-10.77-10.31-10.89s4.24,5.28,11.1,10a99.35,99.35,0,0,0,12.79,7.93A40.41,40.41,0,0,1,84.83,106.56Z"/><path d="M69.55,85.69c2.66,8.21,7.63,12.23,7,12.43-.48.17-4.7-4.67-9.88-12.3-5.52-7.79-5-15-3.63-14.37S67.68,78.84,69.55,85.69Z"/><path d="M98.58,96.21c-8.84-3.3-13.72-6.46-13.41-6.71S91,93,99,95.08a102.48,102.48,0,0,0,14.73,3.08A40.68,40.68,0,0,1,98.58,96.21Z"/><path d="M77.08,81.82c5.31,6.81,11.36,8.89,10.81,9.3-.39.32-6-2.78-13.48-8.18-7.86-5.43-9.79-12.36-8.33-12.27S73,76,77.08,81.82Z"/><path d="M108,81.78c-9.43-.07-15.1-1.38-14.89-1.72.23-.49,6.64,1.33,14.91.51a99.8,99.8,0,0,0,14.89-2.15A40.25,40.25,0,0,1,108,81.78Z"/><path d="M82.84,75.61c7.32,4.59,13.71,4.47,13.34,5s-6.59-.56-15.47-3.07c-9.24-2.42-13.42-8.27-12-8.68S77,71.57,82.84,75.61Z"/><path d="M111.84,65c-8.88,3.16-14.66,3.87-14.57,3.48s6.68-1,14.18-4.62a102.48,102.48,0,0,0,13.26-7.11A40.53,40.53,0,0,1,111.84,65Z"/><path d="M86.13,67.81c8.45,1.8,14.41-.49,14.26.17-.1.5-6.39,1.73-15.59,2.4-9.51.89-15.44-3.18-14.26-4S79.26,66,86.13,67.81Z"/><path d="M109.76,47.93c-7.27,6-12.46,8.65-12.51,8.25S103.18,52.93,109,47a99.72,99.72,0,0,0,10-11.22A40.49,40.49,0,0,1,109.76,47.93Z"/><path d="M86.55,59.35C95.1,58.16,99.92,54,100,54.64c.08.5-5.41,3.81-13.83,7.58-8.63,4.09-15.6,2.3-14.78,1.08S79.48,60,86.55,59.35Z"/><path d="M102,32.59C97.18,40.72,93.21,45,93,44.62s4.47-5.08,7.89-12.65a99.26,99.26,0,0,0,5.59-14A40.47,40.47,0,0,1,102,32.59Z"/><path d="M84.05,51.26c7.63-4,10.72-9.64,11-9,.25.44-3.77,5.43-10.39,11.85-6.71,6.8-13.87,7.5-13.53,6.07S77.63,54.29,84.05,51.26Z"/><path d="M89.38,20.84c-1.71,9.28-4,14.64-4.28,14.37s2.45-6.31,3.09-14.59a102.54,102.54,0,0,0,.47-15A40.55,40.55,0,0,1,89.38,20.84Z"/><path d="M78.94,44.51c5.78-6.41,6.78-12.73,7.28-12.26s-1.7,6.39-5.72,14.69c-4,8.68-10.47,11.79-10.63,10.34S73.94,49.55,78.94,44.51Z"/><path d="M73.54,14.11c1.56,9.3,1.26,15.11.89,15-.53-.14.15-6.77-2.09-14.77A100.18,100.18,0,0,0,67.64,0,40.49,40.49,0,0,1,73.54,14.11Z"/><path d="M71.82,39.91c3.25-8,2-14.27,2.65-14,.47.18.6,6.59-.34,15.76-.78,9.52-5.81,14.66-6.46,13.34S68.85,46.36,71.82,39.91Z"/><path d="M56.35,13.19C61,21.4,62.71,27,62.31,27s-2.18-6.41-7-13.16A100.53,100.53,0,0,0,46,2,40.65,40.65,0,0,1,56.35,13.19Z"/><path d="M63.56,38c.32-8.63-3-14.1-2.3-14.07.51,0,2.82,6,5.07,14.93,2.53,9.21-.44,15.77-1.5,14.75S63,45.11,63.56,38Z"/><path d="M39.89,18.21C47.07,24.33,50.57,29,50.19,29.1S46,23.82,39.1,19.13A99.84,99.84,0,0,0,26.3,11.2,40.5,40.5,0,0,1,39.89,18.21Z"/><path d="M55.16,39.09c-2.66-8.22-7.63-12.24-7-12.44.48-.16,4.69,4.67,9.87,12.3,5.52,7.79,5,15,3.63,14.37S57,45.94,55.16,39.09Z"/><path d="M26.13,28.56C35,31.86,39.85,35,39.54,35.27S33.75,31.76,25.7,29.7A99.37,99.37,0,0,0,11,26.62,40.54,40.54,0,0,1,26.13,28.56Z"/><path d="M47.63,43c-5.31-6.81-11.35-8.88-10.81-9.29s6,2.77,13.48,8.17c7.86,5.43,9.79,12.37,8.33,12.27S51.73,48.75,47.63,43Z"/><path d="M16.75,43c9.43.07,15.1,1.38,14.89,1.72S25,43.39,16.73,44.2A99.8,99.8,0,0,0,1.84,46.35,40.48,40.48,0,0,1,16.75,43Z"/><path d="M41.87,49.16c-7.32-4.58-13.71-4.47-13.34-5s6.6.56,15.47,3.08c9.24,2.41,13.43,8.26,12,8.67S47.7,53.21,41.87,49.16Z"/><path d="M12.87,59.76c8.89-3.16,14.66-3.87,14.58-3.48s-6.69,1-14.18,4.62A102.21,102.21,0,0,0,0,68,40.73,40.73,0,0,1,12.87,59.76Z"/><path d="M38.58,57c-8.44-1.81-14.41.49-14.25-.18.09-.5,6.38-1.73,15.58-2.4,9.51-.89,15.44,3.18,14.26,4S45.45,58.77,38.58,57Z"/><path d="M15,76.84c7.28-6,12.46-8.65,12.51-8.25s-5.93,3.25-11.74,9.19A100.92,100.92,0,0,0,5.69,89,40.49,40.49,0,0,1,15,76.84Z"/><path d="M38.16,65.43c-8.55,1.19-13.37,5.38-13.45,4.71-.09-.51,5.4-3.82,13.82-7.59,8.63-4.09,15.6-2.3,14.78-1.08S45.23,64.77,38.16,65.43Z"/><path d="M22.76,92.18c4.78-8.13,8.74-12.39,8.93-12S27.23,85.24,23.8,92.8a100.32,100.32,0,0,0-5.59,14A40.47,40.47,0,0,1,22.76,92.18Z"/><path d="M40.66,73.52c-7.63,4-10.72,9.63-11,9-.25-.45,3.78-5.44,10.39-11.86,6.71-6.8,13.88-7.49,13.53-6.07S47.08,70.48,40.66,73.52Z"/><path d="M35.34,103.93c1.71-9.28,4-14.63,4.27-14.36.45.3-2.45,6.3-3.08,14.59a101.62,101.62,0,0,0-.48,15A40.68,40.68,0,0,1,35.34,103.93Z"/><path d="M45.78,80.27C40,86.68,39,93,38.5,92.52s1.69-6.39,5.71-14.69c4-8.68,10.47-11.79,10.63-10.33S50.77,75.22,45.78,80.27Z"/></g></g></svg>