<svg xmlns="http://www.w3.org/2000/svg" viewBox="0 0 113.42 113.42"><title>Recurso 60MANDALA</title><g id="Capa_2" data-name="Capa 2"><g id="Capa_1-2" data-name="Capa 1"><path d="M99.73,50.86,102,59.49l-20.66.58A11.31,11.31,0,0,1,70.14,51.7h0Z"/><path d="M113.42,46.32h0l-29.59.83-2.31-8.62,20.66-.59A11.3,11.3,0,0,1,113.42,46.32Z"/><path d="M91,30.13l6.32,6.32L79.75,47.29a11.3,11.3,0,0,1-13.92-1.64h0Z"/><path d="M100.63,19.35h0L75.42,34.87,69.1,28.56,86.71,17.72A11.3,11.3,0,0,1,100.63,19.35Z"/><path d="M73.15,16.53l8.63,2.31L72,37a11.31,11.31,0,0,1-12.88,5.54h0Z"/><path d="M76.06,2.4h0L62,28.45l-8.62-2.32L63.19,8A11.3,11.3,0,0,1,76.06,2.4Z"/><path d="M50.86,13.69l8.63-2.31L60.07,32A11.3,11.3,0,0,1,51.7,43.28h0Z"/><path d="M46.32,0h0l.83,29.59L38.53,31.9l-.59-20.66A11.31,11.31,0,0,1,46.32,0Z"/><path d="M30.13,22.38l6.32-6.32L47.29,33.67a11.3,11.3,0,0,1-1.64,13.92h0Z"/><path d="M19.35,12.8h0L34.87,38l-6.31,6.32L17.72,26.72A11.3,11.3,0,0,1,19.35,12.8Z"/><path d="M16.53,40.27l2.31-8.63L37,41.47a11.3,11.3,0,0,1,5.54,12.87h0Z"/><path d="M2.4,37.36h0L28.45,51.43l-2.32,8.63L8,50.23A11.29,11.29,0,0,1,2.4,37.36Z"/><path d="M13.69,62.56l-2.31-8.62L32,53.35a11.3,11.3,0,0,1,11.24,8.38h0Z"/><path d="M0,67.11H0l29.59-.84L31.9,74.9l-20.66.58A11.31,11.31,0,0,1,0,67.11Z"/><path d="M22.38,83.29,16.06,77,33.67,66.14a11.3,11.3,0,0,1,13.92,1.63h0Z"/><path d="M12.8,94.07h0L38,78.55l6.32,6.31L26.72,95.7A11.3,11.3,0,0,1,12.8,94.07Z"/><path d="M40.27,96.89l-8.63-2.31,9.83-18.19a11.3,11.3,0,0,1,12.87-5.54h0Z"/><path d="M37.36,111h0L51.43,85l8.63,2.31-9.83,18.19A11.3,11.3,0,0,1,37.36,111Z"/><path d="M62.56,99.73,53.94,102l-.59-20.66a11.3,11.3,0,0,1,8.38-11.24h0Z"/><path d="M67.11,113.42h0l-.84-29.59,8.63-2.31.58,20.66A11.3,11.3,0,0,1,67.11,113.42Z"/><path d="M83.29,91,77,97.36,66.14,79.75a11.3,11.3,0,0,1,1.63-13.92h0Z"/><path d="M94.07,100.63h0L78.55,75.42l6.31-6.32L95.7,86.71A11.3,11.3,0,0,1,94.07,100.63Z"/><path d="M96.89,73.15l-2.31,8.63L76.39,72a11.31,11.31,0,0,1-5.54-12.88h0Z"/><path d="M111,76.06h0L85,62l2.31-8.62,18.19,9.82A11.31,11.31,0,0,1,111,76.06Z"/></g></g></svg>