<svg xmlns="http://www.w3.org/2000/svg" viewBox="0 0 127.7 134.46"><title>Recurso 40ART</title><g id="Capa_2" data-name="Capa 2"><g id="Capa_1-2" data-name="Capa 1"><path d="M87.39,131.12h3.25s0,0,0-.06,0,0,0-.06v-3.23a25.31,25.31,0,0,1,3.42,0v3.31l.07.07h3.17l0,.05v3.2c-.67.06-15.43.09-23.38,0,0,0,0,0-.05-.05a.07.07,0,0,1,0,0v-6.56l.07-.06h3.17l0,0a.13.13,0,0,0,0-.06v-3.11s0,0,.06-.07h3.3s.06,0,.06-.07a.13.13,0,0,0,0-.06v-6.53c-.08-.11-.19-.06-.29-.07H77.3l-.06-.07v-10s0,0,0,0H74s0,0-.08,0v-3.18l-.06-.06H70.65s0,0-.06,0l-.07-.06v-3.3s0-.06-.07-.06a1.2,1.2,0,0,0-.19,0H60.57s0,0,0,0a.14.14,0,0,1,0-.06v-3.1s0,0,0-.06c-.66,0-4.61-.06-6.63,0,0,0,0,0-.05,0a.07.07,0,0,0,0,0V110.9l-.05.07h-3.3l-.07.06s0,0,0,.07v3.1c-.08.11-.19.07-.29.07h-3l-.06.07v6.59L47,121H43.72s0,0-.07.05v13.32l-.07.07H27s0,0-.07-.06V131.2s0-.06-.07-.06H23.54s0,0-.05,0a.13.13,0,0,1,0-.06c0-1.09,0-2.19,0-3.26l.08-.06h10l0,0a.13.13,0,0,0,0-.06v-3.11l.05-.07h3.18l.06-.07a.13.13,0,0,0,0-.06v-3.23c.07-.11.19-.07.28-.07h3.08l.06-.07s0,0,0-.06v-3.1s0,0,0-.05l.06,0h3.11l0,0c0-.66.06-35.07,0-36.94l-.05,0H40.41l-.07,0V64l-.06-.06H37c-.1-.08-.06-.2-.06-.3V53.84l-.08-.06H33.68s0,0,0-.05a.13.13,0,0,1,0-.06V27s0,0,0-.08H30.25c-.1-.17,0-.34-.05-.51s0-.33,0-.5V21.2c0-.17,0-.34,0-.51a1.28,1.28,0,0,0,0-.51H23.54s-.06-.06-.06-.07a.57.57,0,0,1,0-.13V16.93c-.15-.1-.32-.05-.48-.05H.05c0-.7-.07-4.56,0-6.67l.05,0H3.24l.07-.06V6.8s0-.06.06-.06H10c.1-.07.06-.19.06-.29V3.5l.07-.06H26.84l0,0a.14.14,0,0,0,0-.06V.09l0,0C27.58,0,52,0,53.73,0c0,0,0,0,0,.05a.13.13,0,0,1,0,.06V3.36s0,0,.06.07H57s.07,0,.08.07,0,0,0,.06V6.67c.08.1.19.06.29.06h3.08s0,.06,0,.08,0,0,0,.06v6.52l.06,0h3.16s0,0,.07,0v3.31s.05.06.07.06h3.3l.07.06v3.18s0,.05.07.05h3.16l.05.05a.07.07,0,0,1,0,.05v6.53a.09.09,0,0,0,0,.05l0,0h3.29l0,0A.13.13,0,0,1,74,27v6.53s0,0,0,.07h6.59s.07.06.07.07a.57.57,0,0,1,0,.13V37c.08.1.19.06.29.06h3s0,.06,0,.08,0,0,0,.06v3.09l.06.06h3.29s0,0,.07,0V43.7c.16.11.31,0,.45.06s.34,0,.5,0h1.91a.9.9,0,0,1,.45.05V47s0,.06.06.06H94l0,0a.14.14,0,0,1,0,.06V53.7l0,0,0,0h3.16l.05.05s0,0,0,.06v6.53l0,.07h3.3l.07.07v10c.08.11.19.06.29.06h2.95l.06.07V77.3s0,0,.05.06h3.29s0,0,.07,0V80.6c.16.11.31.05.45.06s.34,0,.51,0h2.35v6.67s.05,0,.07,0h3.29l.05,0a.13.13,0,0,1,0,.06v3.24l0,0s0,0,0,0h3.16l0,.06s0,0,0,.06v6.53s0,0,.05.07h3.3s.07,0,.07.06a.56.56,0,0,1,0,.13v3c.08.11.2.07.29.07h3l.06.07v3.29l0,0h3.29s0,0,.07,0v3.2s0,0,0,0h-6.59l-.07-.06v-3.18l-.07-.06h-6.59l0,0a.11.11,0,0,1,0-.06v-3.23s0,0,0,0,0,0,0,0h-3.28s0,0,0,0a.13.13,0,0,0,0,.06v10l.05.07h3.3s.07,0,.07.07a.48.48,0,0,1,0,.12v3c.08.1.19.06.29.06h3l.06.07v3.29s0,0,.05.05h3.29s0,0,.08,0v3.18l.06.07h3.17l.06.05v6.63c-.68.06-7.42.08-13.37,0,0,0,0,0,0,0s0,0,0,0V124.5a.09.09,0,0,0,0,0s0,0,0,0h-6.59s0,0,0,0a.13.13,0,0,1,0-.06c0-1.08,0-2.16,0-3.24,0,0,0,0-.05-.07H100.9l-.07-.06v-3.17c-.08-.11-.19-.06-.29-.07H97.46s0,0,0-.07,0,0,0-.06v-3.23l-.06,0H94.19s0,0-.07,0v-6.6l-.07-.07h-3.3l-.07-.06v-3.18l-.06-.06H87.45s0,0,0,0,0,0,0,0v-3.24s0,0,0,0l0,0H84l-.06,0a.13.13,0,0,0,0,.06q0,11.7,0,23.4s0,0,0,.07h3.3s.06,0,.07.07v6.64Z"/></g></g></svg>