<svg xmlns="http://www.w3.org/2000/svg" viewBox="0 0 146.22 146.22"><title>Recurso 35MANDALA</title><g id="Capa_2" data-name="Capa 2"><g id="Capa_1-2" data-name="Capa 1"><path d="M77.78,76.73c-11.55,7.09-16,20.44-13.67,33.88a5,5,0,0,0,1.36,2.5c10.84,11,19.88,19.76,28.37,29.69,1.79,2.25,3.66,4.51,2,2.86-10-9.74-23.68-15.78-44.14-27.7-1.6-.93-3.27-2.82-3.54-4.17-3.7-17,4.48-34.8,24.9-40.68C76.57,72.26,80.4,75.3,77.78,76.73Z"/><path d="M79,72.37C75.82,85.55,82.09,98.16,93.26,106a5,5,0,0,0,2.73.81c15.48.15,28-.09,41.06.94,2.85.32,5.77.59,3.46.57-13.93.16-27.9,5.58-50.78,11.62-1.8.48-4.32.31-5.47-.45C69.61,110.06,62.83,91.7,73.11,73.11,75,70.07,79.82,69.5,79,72.37Z"/><path d="M76.73,68.45c7.09,11.54,20.44,16,33.88,13.67a5.08,5.08,0,0,0,2.5-1.36c11-10.85,19.76-19.89,29.69-28.37,2.25-1.79,4.51-3.67,2.86-2C135.92,60.3,129.88,74,118,94.47c-.93,1.61-2.82,3.27-4.17,3.55-17,3.7-34.8-4.49-40.68-24.91C72.26,69.66,75.3,65.82,76.73,68.45Z"/><path d="M72.37,67.26C85.55,70.41,98.16,64.13,106,53a5,5,0,0,0,.81-2.74c.15-15.47-.09-28,.94-41,.32-2.86.59-5.78.57-3.47.16,13.93,5.58,27.9,11.62,50.79.48,1.8.31,4.31-.45,5.46C110.06,76.62,91.7,83.4,73.11,73.11,70.07,71.28,69.5,66.41,72.37,67.26Z"/><path d="M68.45,69.5c11.54-7.09,16-20.45,13.67-33.88a5,5,0,0,0-1.36-2.5c-10.85-11-19.89-19.77-28.37-29.7-1.79-2.24-3.67-4.5-2-2.85C60.3,10.3,74,16.35,94.47,28.26c1.61.93,3.27,2.83,3.55,4.18,3.7,17-4.49,34.8-24.91,40.67C69.66,74,65.82,70.93,68.45,69.5Z"/><path d="M67.26,73.86C70.41,60.68,64.13,48.07,53,40.23a5,5,0,0,0-2.74-.8c-15.47-.15-28,.08-41-.94-2.86-.32-5.78-.59-3.47-.57,13.93-.16,27.9-5.58,50.79-11.63,1.8-.47,4.31-.31,5.46.45C76.62,36.17,83.4,54.52,73.11,73.11,71.28,76.16,66.41,76.72,67.26,73.86Z"/><path d="M69.5,77.78c-7.09-11.55-20.45-16-33.88-13.67a5,5,0,0,0-2.5,1.36c-11,10.84-19.77,19.88-29.7,28.37-2.24,1.79-4.5,3.66-2.85,2,9.73-10,15.78-23.68,27.69-44.14.93-1.6,2.83-3.27,4.18-3.54,17-3.7,34.8,4.48,40.67,24.9C74,76.57,70.93,80.4,69.5,77.78Z"/><path d="M73.86,79c-13.18-3.15-25.79,3.12-33.63,14.29a5,5,0,0,0-.8,2.73c-.15,15.48.08,28-.94,41.06-.32,2.85-.59,5.77-.57,3.46-.16-13.93-5.58-27.9-11.63-50.78-.47-1.8-.31-4.32.45-5.47,9.43-14.65,27.78-21.43,46.37-11.15C76.16,75,76.72,79.82,73.86,79Z"/></g></g></svg>