<svg xmlns="http://www.w3.org/2000/svg" viewBox="0 0 113.21 88.37"><title>Recurso 26ART</title><g id="Capa_2" data-name="Capa 2"><g id="Capa_1-2" data-name="Capa 1"><path d="M76.78,83.79h2.53c.43.4.16.92.2,1.38s0,1,0,1.37a1.31,1.31,0,0,1-.25.19.74.74,0,0,1-.21,0H73.83c-.48.48,0,1.12-.36,1.64h-38c-.4-.46.08-1.09-.35-1.63H30.89c-.35-.37-.13-.74-.24-1.17-.89-.29-1.87.05-2.77-.15-.07-.1-.14-.15-.14-.21,0-.83,0-1.67,0-2.49.45-.39,1-.16,1.43-.19s1.12,0,1.68,0a3.25,3.25,0,0,0,1.47-.13V79.73c-.45-.31-.95-.09-1.42-.15a1.06,1.06,0,0,1-.15-.15.4.4,0,0,1-.07-.18V72l-1.07,0c-.05,0-.14-.1-.14-.15l-.06-5.45c0-.06-.06-.11-.14-.23l-1.36-.08c-.06-.12-.17-.24-.17-.36,0-2.52,0-5,0-7.58,0-.26.12-.55-.15-.81l-1-.1a1.37,1.37,0,0,1-.14-.38q0-6.21,0-12.44a2.29,2.29,0,0,0-1.64-.1l-.08,1.08-1.19.19L23.5,47c-.47.33-1,.11-1.52.18l-.22,1.13c-.3.26-.67,0-1,.14-.47.45,0,1.09-.37,1.67H16.16c-.36.32-.14.7-.21,1-.1.08-.21.23-.31.23-.83,0-1.67,0-2.43,0-.11-.12-.19-.16-.2-.22a3,3,0,0,1,0-.42V44.42c.45-.49,1.09,0,1.65-.35,0-.42,0-.89.07-1.45l1.18-.18V39.75c-.3-.31-.67-.09-1-.17-.52.44,0,1.08-.3,1.56,0,0-.1.12-.15.12H10.22a2.48,2.48,0,0,1-.08-1.64l1.42-.08c.33-.29.11-.67.18-1,.27-.46.78-.07,1.13-.31.27-.43.07-.93.14-1.4.11-.07.22-.19.33-.19.83,0,1.66,0,2.55,0L16,35.55c.45-.44,1.09.06,1.62-.34l.06-1.35a1.11,1.11,0,0,1,.39-.16c.77,0,1.54,0,2.31,0,.35-.26.2-.63.21-1,0-.62,0-1.24,0-2l1.16-.05.2-1.21h4.3c.48-.54,0-1.16.42-1.71h3.81c.36-.37.13-.74.22-1.06,0,0,.1-.15.15-.15l5.69-.09c0-.53,0-1,.08-1.47.11-.06.23-.17.35-.17h24.2a5.5,5.5,0,0,1,.63.07l.07,1.45c.15.06.27.16.39.16h3.66l.21,1.14c.06,0,.1.1.16.12a.72.72,0,0,0,.21,0h4c.48.46,0,1.1.34,1.62.85.17,1.76,0,2.64.1.32.29.1.66.17,1,.1.07.2.22.31.22.83,0,1.66,0,2.46,0,.32.52.12,1,.18,1.48.12.07.23.2.34.2.83,0,1.66,0,2.56,0l.08,1.17,1.19.18.07,1.42c.46.37,1,0,1.52.28a3.47,3.47,0,0,1,.13.43c0,.2,0,.4.05.59a3.15,3.15,0,0,0,1.45.13c.42,0,.84,0,1.24,0,.48.47,0,1.1.35,1.62l1,.1c.31.29.09.66.16,1,.43.55,1.06,0,1.55.31.27.44.08.94.16,1.49l1.19.22.08,1c.46.44,1.09-.06,1.62.34l.06,1.36c.15.06.27.16.39.16H94c.35.26.2.64.21,1,0,.62,0,1.24,0,1.83a3.06,3.06,0,0,0,1.5.16c.42,0,.84,0,1.24,0,.41.44.16,1,.2,1.42s0,1,0,1.5h2.7c.13.12.22.17.22.22,0,.28,0,.56,0,.81.29.49.8.1,1.15.34.26.44.06.93.14,1.41.44.48,1.08,0,1.63.34l.08,1,1.21.19v2.65c.51.35,1,.14,1.48.2.07.1.21.21.21.32,0,2.38,0,4.75,0,7.09-.54.28-1,.09-1.5.18-.06.12-.18.23-.18.35,0,.77,0,1.54,0,2.31,0,.06-.07.11-.13.21l-1,.11c-.33.43-.1.93-.16,1.4s.13,1-.16,1.49h-1.31c-.36.37-.13.74-.25,1.15l-1.18.22-.08,1.41c-.46.43-1.09-.06-1.59.32l-.11,1c-.06.07-.11.16-.16.16-.84,0-1.68,0-2.62,0a6.13,6.13,0,0,1-.11-2c0-.69,0-1.38,0-2.14h1.43c.53-.53,0-1.16.39-1.67l1-.11c0-.12.15-.24.15-.36,0-2.52,0-5.05,0-7.57,0-.27.13-.56-.15-.82l-1-.1a1.37,1.37,0,0,1-.14-.38c0-.77,0-1.54,0-2.31-.46-.49-1.09,0-1.64-.35l-.09-1-1.18-.18-.07-1.42c-.47-.33-1-.11-1.52-.18-.07-.36-.14-.75-.24-1.22l-1-.06c-.46-.45.05-1.09-.34-1.62l-1.35-.07c-.33-.3-.11-.68-.2-1.1L88.49,50c-.26-.45-.07-.95-.15-1.42-.49-.47-1,0-1.5-.22A3.29,3.29,0,0,0,86.68,50c0,.49,0,1,0,1.47V53l-1.25.19V61.7c-.51.35-1,.14-1.58.21a6.07,6.07,0,0,0-.11,2c0,.69,0,1.38,0,2.16l-1.09.06c-.38.42-.14.93-.17,1.4s0,1.12,0,1.68a3.51,3.51,0,0,1-.13,1.49L81,70.77c-.06.13-.16.25-.16.37,0,1.19,0,2.38,0,3.68l-1.13.2a1.3,1.3,0,0,0-.13.36c0,1.34,0,2.67,0,4-.46.49-1.1,0-1.64.35-.13.84,0,1.74-.09,2.72l-1.13.17C76.57,83,76.41,83.44,76.78,83.79ZM60.15,38.31c0,1.42,0,2.61,0,3.8a1.44,1.44,0,0,0,.17.43h1.32c.42.55-.06,1.18.35,1.63l1,.1.2,1.12c.55.21,1.06-.07,1.51.22.26.92-.17,1.91.2,2.79.42.1.79-.12,1.11.21L66.08,50c.53.4,1.16-.1,1.62.33l.08,1c.26,0,.46,0,.65.07a5.09,5.09,0,0,1,.56.14c0,.47,0,.89,0,1.31,0,.05.08.1.13.15.48.28,1.12-.24,1.4.12s0,.89.3,1.17l1,.11c.37.51-.13,1.14.35,1.62h4.17c.05,0,.1-.08.16-.12.3-.48-.2-1.11.3-1.56h3.36a3,3,0,0,0,.42,0s.1-.09.22-.2V51.56c.55-.42,1.17,0,1.63-.35V42.68c-.1-.07-.15-.14-.21-.14-.77,0-1.54,0-2.31,0-.11,0-.23-.11-.34-.17l-.07-.94c-.56-.36-1.2.14-1.56-.25-.22-.56.09-1.06-.23-1.51-.34-.23-.85.17-1.12-.3-.07-.32.15-.7-.24-1.06H73.78c-.39-.54.11-1.18-.37-1.65-.39,0-.81,0-1.23,0a3.11,3.11,0,0,1-1.42-.11l-.22-1.15c-1.83,0-3.58,0-5.33,0a1.58,1.58,0,0,1-.44-.17V33.63c-.59.19-1.12-.14-1.64.22l-.08,1.43-1.22.2c0,.5,0,.92,0,1.34a3.12,3.12,0,0,1-.15,1.49Z"/><path d="M82.45,20.64V19c-1.52-.08-3,0-4.49-.06,0-.17-.09-.36-.13-.55s0-.39-.07-.66H73.85c-.47-.54,0-1.17-.42-1.71h-5.5c-.35-.37-.12-.74-.21-1.06,0,0-.1-.15-.15-.15l-7.37-.09c0-.53-.06-1-.08-1.47-.12-.06-.23-.17-.35-.17H52.19c-.26,0-.55.11-.82-.14l-.11-1a1.07,1.07,0,0,0-.36-.15H33.77l-.22,1.13s-.1.12-.16.13H23.73c-.48.47,0,1.1-.31,1.58-.05,0-.1.09-.16.1a.74.74,0,0,1-.21,0H16.31a1.85,1.85,0,0,0-.28.05c-.05.36-.11.75-.18,1.2H10.24c-.33.52-.13,1-.19,1.48-.11.07-.22.2-.33.2-1.89,0-3.79,0-5.68,0H2.94l-.07,1.08c-.11.06-.23.18-.34.18H0V16.17c.29-.31.66-.09,1.09-.18l.2-1.11c.45-.26.94-.07,1.41-.15.48-.44,0-1.08.34-1.62l1-.09c.06-.37.12-.76.19-1.21H6.92c.34-.52.13-1,.19-1.48.11-.07.22-.2.33-.21H10L10.08,9c.42-.38.93-.12,1.39-.17A4.28,4.28,0,0,0,13,8.72L13,7.34c.14-.06.25-.16.37-.16.78,0,1.55,0,2.42,0L16,6a1.26,1.26,0,0,1,.37-.13h2.3c.49-.46,0-1.1.31-1.59a3.56,3.56,0,0,1,1.42-.09c.41,0,.83,0,1.33,0L21.94,3h4.34c.34-.51.13-1,.2-1.58a6.13,6.13,0,0,1,2-.11c.69,0,1.38,0,2.16,0L30.71.1A6.82,6.82,0,0,1,32.52,0c.63,0,1.26,0,1.89,0H51.24l.11,1.1c.44.33.94.12,1.41.15s1.12,0,1.68,0a2.89,2.89,0,0,1,1.49.16V2.75c.13.11.17.19.23.2a3,3,0,0,0,.42,0H60l.21,1.15a3.45,3.45,0,0,0,1.43.11c.41,0,.83,0,1.22,0,.47.49,0,1.12.38,1.67H67.5c.38.36.15.73.23,1.06.11.07.21.21.32.21.83,0,1.66,0,2.46,0,.29.53.09,1,.18,1.49.12.06.23.18.34.18.83,0,1.66,0,2.52,0L73.66,10c.44.33.94.11,1.41.15s.84,0,1.26,0h1.49v1.5c.52.32,1,.14,1.49.17s.84,0,1.34,0L80.86,13a3.48,3.48,0,0,0,1.43.11c.42,0,.84,0,1.23,0,.47.49,0,1.12.38,1.67h2.67c0,.25.08.44.1.64s0,.28,0,.42.22.21.32.21h4.14c.29.53.11,1,.19,1.49.11.06.22.18.34.18.83,0,1.66,0,2.52,0,0,.43.08.76.11,1.1.43.34.93.12,1.4.16s1,0,1.5,0v1.5c.52.32,1,.14,1.48.17s.85,0,1.35,0l.23,1.23c1.29.09,2.61,0,3.92.06.45.45,0,1.09.34,1.62l1.35.07c.33.31.1.68.18,1,.1.07.21.21.32.21,1.25,0,2.5,0,3.72,0,.29.52.1,1,.18,1.49.45.47,1.09,0,1.62.33l.09,1c.28.32.66.1,1,.18.35.46.18,1,.15,1.49-.07.08-.11.17-.16.17h-3.79c-.49-.45,0-1.08-.36-1.67-1.38,0-2.84,0-4.35,0,0-.19-.09-.37-.12-.56s0-.4-.08-.66h-3.93c-.37-.51-.14-1-.21-1.48a.5.5,0,0,0-.14-.15.3.3,0,0,0-.17-.08H95.72c-.35-.37-.13-.74-.22-1.07,0-.05-.1-.14-.15-.14l-4-.09-.08-1.48c-.43-.35-.94-.12-1.41-.16s-1,0-1.43,0l-.12-1.11a1.26,1.26,0,0,0-.38-.14ZM51.24,3H29.84a1.6,1.6,0,0,0-.37.15l-.12,1.11H25.18c-.11,0-.23.1-.36.16l-.08,1.39a4.49,4.49,0,0,1-1.48.13c-.47.06-1-.21-1.4.18l-.05,1.08c-.78,0-1.47,0-2.16,0a6.73,6.73,0,0,0-2,.11c-.07.57.14,1.07-.19,1.57-.8,0-1.63,0-2.46,0-.11,0-.2.15-.3.24-.08.32.14.69-.22,1H12c-.06,0-.11.07-.17.1-.33.48.17,1.11-.31,1.58-.4,0-.82,0-1.24,0a3,3,0,0,0-1.45.14c0,.19,0,.39-.05.59s-.11.36-.15.52c-.54.07-1-.15-1.49.17v1.45a5.26,5.26,0,0,0,.63.07h.84c.21,0,.42,0,.63,0s.56.11.77-.17l.08-1.47L14.52,13c.05,0,.1-.09.15-.14.1-.33-.13-.7.22-1.07h6.63a.45.45,0,0,0,.18-.07c.05,0,.09-.1.15-.15,0-.42,0-.84,0-1.26,0-.05.09-.1.2-.2h10c.11,0,.21-.16.23-.18.19-.37-.09-.76.23-1h18.7l.19,1.22h10a.74.74,0,0,1,.21,0,.82.82,0,0,1,.17.11c.32.48-.19,1.11.3,1.57h6.3a3,3,0,0,1,.42,0s.1.08.15.12l.22,1.13h4.08a1.3,1.3,0,0,0,.37-.16V12c-.1-.07-.16-.14-.21-.15-.77,0-1.54,0-2.31,0-.12,0-.23-.11-.35-.17l-.08-1.44c-1-.2-2,.1-2.86-.15-.12-.44.1-.81-.25-1.18h-4.1a.31.31,0,0,1-.18-.07c-.06,0-.1-.1,0,0-.27-.6.07-1.11-.34-1.62H60.25l-.2-1.24H56.41a.72.72,0,0,1-.21,0A.57.57,0,0,1,56,5.79c-.32-.48.18-1.11-.31-1.57H51.54s-.1-.09-.18-.15Z"/></g></g></svg>