<svg xmlns="http://www.w3.org/2000/svg" viewBox="0 0 107.06 107.06"><title>Recurso 16MANDALA</title><g id="Capa_2" data-name="Capa 2"><g id="Capa_1-2" data-name="Capa 1"><path d="M12.67,54.43h3.67a6,6,0,0,0,2.7-.67,3.92,3.92,0,0,1,1.4-.5c.12,0,.24,0,.36,0l2,0,1.91,0,2.79,0,3,0h6.58c.54,0,1.09,0,1.64,0l2.14,0h3.56c.51,0,1,0,1.52,0a3.27,3.27,0,0,1,.71.28,5.8,5.8,0,0,0,.82.21.25.25,0,0,0,.19-.12.7.7,0,0,1,1.11-.19,1.46,1.46,0,0,1,.46,1c.07.74.16,1.48.16,2.21,0,.89,0,1.78-.12,2.66a6,6,0,0,1-.35,1.77.84.84,0,0,1-.78.53.54.54,0,0,1-.61-.4.4.4,0,0,0-.36-.11,5.06,5.06,0,0,0-1,.31,1.51,1.51,0,0,1-.69.1l-1.25,0c-.58,0-1.16,0-1.75-.06-.83,0-1.66,0-2.5,0l-2.6-.07h-.12l-3.19,0c-.79,0-1.57-.05-2.36-.06-.47,0-.95,0-1.42,0l-3.39,0H25.17c-1.59,0-3.18,0-4.77,0a3.51,3.51,0,0,1-1.17-.39,8.74,8.74,0,0,0-1.9-.72,4.88,4.88,0,0,0-.93-.09c-1.31,0-2.62,0-3.92,0-.51,0-1,0-1.51,0a.43.43,0,0,1-.28-.13.39.39,0,0,0-.32-.13l-2.48-.14A23.68,23.68,0,0,1,3,58.67c-1-.25-1.89-.56-2.83-.86-.06,0-.12-.13-.14-.21a2,2,0,0,1,0-.43c0-.26,0-.53,0-.79,0,0,.08-.08.14-.1.68-.21,1.36-.43,2.05-.61s1.65-.38,2.48-.56a17.49,17.49,0,0,1,2.78-.36l1.94-.09,1.18,0a.21.21,0,0,0,.14-.1c0-.11.11-.14.23-.14h1.69Zm11,5.34.08,0v-.07l.11-.12c0,.2.14.22.27.26s.11,0,.18-.08l-.23-.19c-.07.11-.15,0-.22,0L24,59.5a1.09,1.09,0,0,0-.24,0s0,0,0,.07c-.18-.1-.3,0-.32.19l-.14-.08-.14,0,0-.14a.32.32,0,0,0,0-.08.32.32,0,0,0-.14,0s-.07,0-.06,0c.1.16,0,.11-.1.12s-.06.05-.05.05l.4.2.19-.15.09-.1.09.26Zm1.5,0-.05.13.42,0-.12,0-.07-.2-.19,0,.15-.14-.23-.11c.05.08.18.13,0,.16,0,0,0,0,0,.08Zm20.54,0,.16.17,0,0h.21l0,0-.43-.17s-.07,0-.08,0a2.83,2.83,0,0,0-.2.28.2.2,0,0,0,.08.08s.07,0,.09,0,.06-.11,0-.13-.1-.13,0-.14S45.74,59.79,45.74,59.75Zm-7.48-.67h.28s.05,0,.08,0l-.1,0-.24,0,0,.12-.19,0a.45.45,0,0,0-.11,0l.1.1a.78.78,0,0,0,0,.21,1.85,1.85,0,0,0,0,.23H38l-.32-.61-.06,0,.07.13-.2.14.31,0v.06c-.17,0-.36-.08-.39.21l0,0,0-.22c0,.12-.24-.12-.19.15l-.1,0-.21-.37,0,0,0,.15-.23-.18,0,0,0,.1,0,0-.21-.19-.22.21-.1-.09-.07.17c0-.22,0-.26-.21-.24s-.09.06-.14.07l-.34.08c-.1,0-.22-.16-.29,0h0c-.19-.05-.19-.05-.35,0h0c0-.24-.09,0-.12,0-.11-.21-.11-.21-.26-.06a.07.07,0,0,1-.06,0c-.08,0-.08,0-.14.09l-.38.06s-.11,0-.12,0,0-.14-.11-.12H33.3l.12-.14-.44.19.1.07a.5.5,0,0,1-.55-.09l0,.11,0,0-.16-.13,0,0a1.56,1.56,0,0,0,.16.2l.05.07s-.05,0-.08,0l-.42,0,0,.17-.22-.25c.29.07.32-.08.32-.3-.05.07-.22,0-.12.16l-.1.06c-.1-.22-.39.11-.47-.16l0,0H31.2s-.09,0-.1,0c-.15.19-.37.11-.56.15s-.22,0-.31,0l0,.05.3-.1-.15.23a.88.88,0,0,1,.29.06c.12.06.19-.19.31,0,.19-.11.33-.07.38.14l.09-.17c0,.1.05.25.22.14l-.08-.13.33.14a.2.2,0,0,0,.15,0l.32-.1a0,0,0,0,0,0,0,.91.91,0,0,0,.26.13s.09-.05.12-.09,0-.1.08-.18l0,.22.32-.1s0-.08.08-.12l.07,0a.54.54,0,0,0-.07.13s0,0,0,.07c.18-.2.31,0,.47,0v-.2l.3.19,0-.06a2.83,2.83,0,0,0-.25-.24s-.09,0-.14.07l-.1,0c-.1.17-.13,0-.22,0a1.49,1.49,0,0,1,.39-.05c.15,0,.21,0,.23-.16l.21.06c-.28.11-.28.12,0,.45l0-.19,0,0c.11.12.11.12.21.05s.07,0,.1,0,.29.13.38.08.38,0,.56,0c0,0,.06,0,.09,0l0-.1c0-.08-.06-.18.1-.13-.11.05,0,.06,0,.13s.25.07.34.18h0c0-.19.14,0,.17-.1a.32.32,0,0,0,.35,0s.12,0,.18.08,0,.08.07.07l.64-.14.13,0s-.05.09,0,.1a.2.2,0,0,0,.09.06.42.42,0,0,0,.11-.15s0-.05,0-.08a1.74,1.74,0,0,1-.11-.18l.07,0c0,.14.2.18.15.35A.55.55,0,0,0,38,60s.09,0,.16-.08c0,.2,0,.18.15.12l.28-.12h0a1.47,1.47,0,0,0,.28.14.57.57,0,0,0,.22,0c0-.07.14-.15.14-.24s.13,0,.15,0a.25.25,0,0,1,0,.07l.06.08.06-.07s0-.07,0-.11a.2.2,0,0,1,.28.16c0,.18.19,0,.2.11a.58.58,0,0,0,.12-.1l.11-.13.12.18c.07-.14.15-.29.34-.18l.07-.16c.12.16.17-.12.28,0-.05,0-.12-.1-.16-.09s-.08.09-.12.13a1.33,1.33,0,0,1-.9,0v-.1s-.1,0-.1,0-.08.13-.19.09-.07.05-.11.07l-.31-.06c0-.12.25-.11.1-.26s-.13,0-.19,0v0l.15,0v0l-.22,0,.13.17c-.26,0-.19-.22-.23-.29l-.38.32,0-.12c.08,0,.18,0,.1-.15a.53.53,0,0,1,0-.18,2.5,2.5,0,0,1-.25-.09A.31.31,0,0,1,38.26,59.08Zm5.27.69.18,0s0,0,0-.06h-.08l.12-.19.08.39-.22.11a.19.19,0,0,0,.19,0s0-.08,0-.13L44,60l0-.1c.05,0,.15,0,.15,0,.06.19.19.07.29.06a.9.9,0,0,0,.25-.08l.12-.09-.19-.19.34.12-.09-.18,0,0,.2.18-.23.21c.28-.12.28-.12.39.13h-.49a.85.85,0,0,0,.41.09c.13,0,.21-.09.11-.25a.21.21,0,0,1,0-.19s.12,0,.19-.07l.08.11-.23,0,.06.08a5.27,5.27,0,0,0,.56-.19.12.12,0,0,0,0-.21s-.1.07-.1.07a.29.29,0,0,0-.38,0c-.16.08-.23-.09-.36-.1.26,0,.4,0,.38-.12s-.3,0-.39,0-.16,0-.23,0c-.08-.12.17-.14.08-.27.19-.09.06.13.15.15l.09,0-.14-.4c-.23.3-.32,0-.49,0l.28.39,0,0-.26-.3,0,.25-.16-.13a2.09,2.09,0,0,0,.14-.17s0-.07,0-.09h-.07c.05.12-.06.12-.12.16l.07.09,0,0v0c-.14,0-.13.18-.16.16-.2-.13-.08.1-.11.12l-.14,0,0,0,.18.21-.29.12-.12-.2-.14.26,0-.17c-.18.09-.13-.08-.19-.14a1.26,1.26,0,0,0,0,.33.66.66,0,0,0,.17,0v.11l-.29,0v.08Zm-41.41-2a.78.78,0,0,0,.59.2.13.13,0,0,0,.08-.08.1.1,0,0,0,0-.09H2.69c-.1.1-.26,0-.28,0a.23.23,0,0,0-.29,0c-.07-.09-.07-.09-.2.1l.15.05Zm26.74,2.13c.1,0,.2-.12.29-.11s.23-.12.28-.25c-.1,0-.21.11-.27.09-.22-.08-.26.07-.35.2l-.32.07C28.58,60,28.8,60,28.86,59.86ZM18,59.31c0-.1,0-.16,0-.22s0,0,.07,0a.08.08,0,0,1,0,0c-.07.25.14.28.29.33l1.51.47c.22.07.48,0,.52-.13a1.27,1.27,0,0,0,.05-.43c0-.44-.05-.89-.1-1.33a1.42,1.42,0,0,0-.21-.68.53.53,0,0,0-.45-.21c-.4,0-.81,0-1.22,0a.69.69,0,0,0-.2.07s-.13,0-.19,0-.32.07-.38.26c0,0-.06,0-.08,0s-.14.07-.12.17l-.24,0,.1.13a1.82,1.82,0,0,1-.17.14c.12.18-.07.33-.05.51s0,.28.18.37l-.13,0,.06.28c.19-.24.17,0,.21.16l.11-.22C17.65,59.23,17.87,59.19,18,59.31Zm9.4.54-.14-.22s0-.08,0-.11l-.18.06s0,.05-.06.07-.1,0-.14,0-.22.11-.34.07l.18-.17,0,0a1.39,1.39,0,0,0-.21.11c0,.05-.09.12-.14.17l-.15-.16-.06.06s.1,0,.1.05,0,.13.13.12a1.67,1.67,0,0,0,.38-.06c.1,0,.18.12.28,0a.82.82,0,0,1,.2-.17C27.3,59.88,27.3,59.88,27.41,59.85ZM1,57.37a.92.92,0,0,1,.12.18s0,.06,0,.09,0,0,.08,0,.1,0,.11,0c.1.24.25.33.49.25.05,0,.08-.1.11-.15s0-.08-.09-.08a.16.16,0,0,0-.11,0c0,.21-.14.1-.18.12v-.15c-.13,0-.17,0-.15-.14s-.07,0-.11-.06L1,57.35a.57.57,0,0,1-.13-.1,1.1,1.1,0,0,0,0,.18,1.27,1.27,0,0,0,.06.18l.06,0ZM48.41,60h.07l.16-2.29h-.06ZM30,59.6c-.16-.17-.31.15-.46,0h0a1.14,1.14,0,0,0-.15.23s.07.09.11.13l.14-.19,0,0-.06.23c.29-.14.31-.18.21-.36Zm-5.93-.13v.05c.22-.07.27.13.37.22s.33.11.44-.11l-.2.08c0-.28-.29-.19-.44-.27S24.11,59.46,24.06,59.47Zm19.21.21s-.06-.1-.09-.11l-.67-.14.28.34s.08,0,.08,0c0-.18.07,0,.11,0h.11C43,59.54,43.18,59.7,43.27,59.68ZM1.21,57.2v0l.42.28.12-.28Zm26.31,2.43-.13,0,.09.11h.09s0,0,.06.06,0-.07,0-.08,0-.13.1-.16a.42.42,0,0,0,.12-.08c-.14,0-.28.18-.35-.08l-.11,0Zm18.3-.21c0-.14,0-.29,0-.3s.07-.14,0-.2a1.59,1.59,0,0,1-.13.13l-.13,0a.61.61,0,0,0,0,.12ZM41.56,58v0h1v0ZM28.77,59.55l-.37,0-.06.19C28.55,59.89,28.6,59.57,28.77,59.55Zm-.72,0a1.25,1.25,0,0,1,.11.18,1.3,1.3,0,0,0,.08.17s.05.06.08.09a.59.59,0,0,0,0-.13,1.36,1.36,0,0,1,0-.17C28.25,59.45,28.14,59.47,28.05,59.5ZM4.72,58.1c0-.33,0-.34-.32-.21Zm-.36-.61v-.06a.53.53,0,0,0-.18,0s0,.11,0,.12.13.2.26,0l-.18-.07ZM25.7,59.7l-.07,0,.15.26h0c-.06-.26.13,0,.16-.13ZM2.93,57.76l0,.06.33.21.08-.13Zm43.23,1.67c0-.07,0-.12,0-.17l-.06,0a.76.76,0,0,0-.06.16s0,.05,0,.06a.52.52,0,0,0,.1.11l.11-.1ZM2.8,57.28l-.06.18a.41.41,0,0,1-.05.09.34.34,0,0,0,.13,0C2.93,57.52,2.91,57.38,2.8,57.28ZM26,59.63l-.38-.18,0,.07C25.75,59.56,25.82,59.73,26,59.63ZM3.66,57.72a1.73,1.73,0,0,0-.21-.13.09.09,0,0,0-.07,0s0,0,0,0c.2.05-.06.09,0,.17Zm42.2,1.59c.15,0,.23-.09.26-.36Zm-6-.19-.32.16.14.08c0-.06.08-.11.13-.13S39.85,59.23,39.85,59.12Zm5.86-.18v0c-.27-.07-.27-.07-.31.08a.76.76,0,0,1,.16,0Zm-3.55.48H42.1a.77.77,0,0,1,0,.15.43.43,0,0,1,0,.11s.1,0,.11-.09A.33.33,0,0,0,42.16,59.42Zm-15.72.16,0-.07-.32-.06v.08Zm-4.34,0,0,.07.3-.1,0,0ZM39.81,60l0-.09-.2.08s0,.07,0,.07Zm8.63-1.77h-.06l0,.33h0Zm-6,1.73,0-.07h-.19l0,0a.61.61,0,0,0,.16.12S42.42,60,42.46,60ZM2.12,57.33A.49.49,0,0,1,2,57.27a.9.9,0,0,1-.12-.1C1.85,57.35,1.9,57.38,2.12,57.33Zm42.57.85v-.06l-.33,0v0ZM40.2,59.49l0,.08.2,0s0-.07,0-.07Zm3,.51,0,.06.33,0v0Zm2.87-.31.16.24.09-.17Zm-18.25,0-.14.16.05,0a.71.71,0,0,0,.14-.1S27.88,59.77,27.86,59.72Z"/><path d="M18.6,74.74l3.18-1.84a6,6,0,0,0,2-1.93,3.69,3.69,0,0,1,1-1.12,3.14,3.14,0,0,1,.31-.18l1.7-1c.56-.32,1.12-.62,1.67-.94.81-.46,1.61-.94,2.41-1.41l2.61-1.53,3.46-2,2.24-1.29c.48-.28,1-.53,1.44-.81.62-.35,1.22-.72,1.84-1.08l3.08-1.8c.44-.26.86-.55,1.31-.77a3.66,3.66,0,0,1,.76-.11,4.66,4.66,0,0,0,.81-.23s.11-.13.1-.2a.71.71,0,0,1,.87-.72,1.46,1.46,0,0,1,.9.65,20.53,20.53,0,0,1,1.25,1.84c.45.76.84,1.56,1.23,2.36a5.94,5.94,0,0,1,.57,1.71.84.84,0,0,1-.4.85.55.55,0,0,1-.73-.05c-.07,0-.29,0-.37.08a5.51,5.51,0,0,0-.69.76,1.55,1.55,0,0,1-.55.44l-1.1.59-1.54.82c-.73.4-1.45.83-2.18,1.23l-2.29,1.24-.11.06-2.78,1.55-2.08,1.13c-.41.23-.81.48-1.22.72l-2.95,1.67-1.53.88c-1.38.79-2.75,1.59-4.15,2.34a3.22,3.22,0,0,1-1.21.24,8.54,8.54,0,0,0-2,.34,5.38,5.38,0,0,0-.85.38c-1.14.64-2.27,1.3-3.4,1.94-.44.25-.88.5-1.33.73a.35.35,0,0,1-.3,0,.37.37,0,0,0-.34.05c-.74.37-1.48.73-2.22,1.11a23.66,23.66,0,0,1-4.62,1.76c-.95.26-1.91.45-2.87.67a.33.33,0,0,1-.23-.11A1.77,1.77,0,0,1,9,83.45c-.13-.23-.25-.47-.36-.7a.23.23,0,0,1,.07-.16c.49-.52,1-1.06,1.47-1.55s1.24-1.16,1.87-1.73a17.8,17.8,0,0,1,2.23-1.71l1.63-1c.33-.21.67-.41,1-.63a.19.19,0,0,0,.08-.15.2.2,0,0,1,.12-.24l1.47-.85Zm12.22-.89h.08l0-.06,0-.17c.08.18.23.12.36.09s.07-.09.12-.16l-.29-.05c0,.13-.12.1-.19.13l0-.15-.23.08s0,.06,0,.09c-.22,0-.28.11-.19.32h-.16l-.1.11a.65.65,0,0,0,0-.13l0-.08a.31.31,0,0,0-.13.06S30,74,30,74c.17.09,0,.11,0,.16s0,.07,0,.06l.45,0s.06-.14.09-.23l0-.13.21.18Zm1.28-.76,0,.14.35-.24-.08.11L32.24,73l-.14.13.06-.19-.25,0c.08,0,.22,0,.1.12s0,.06,0,.09ZM49.9,62.81l.21.07.07,0,.18-.1v0l-.45.06s0,0-.06.08,0,.23,0,.34.07,0,.1,0a.1.1,0,0,0,.06-.08s0-.13,0-.14-.15-.06,0-.14S49.91,62.85,49.9,62.81ZM43.08,66l.25-.13s0,0,.05-.07h-.1l-.24.08,0,.12-.15.11-.08.08.14,0a.73.73,0,0,0,.07.19,1.24,1.24,0,0,0,.14.18l0,0-.58-.37,0,.07.13.07-.1.23.29-.11,0,0c-.16.06-.35.11-.23.37H42.6l-.1-.2c0,.12-.26,0-.08.22l-.07.09L42,66.82l0,.05.11.11-.29,0v0l.09,0v.06l-.28,0c0,.09,0,.19-.08.28s-.09,0-.13,0v.18c-.1-.19-.14-.21-.3-.1s0,.1-.08.13l-.26.24c-.07.06-.26,0-.22.18h0c-.2.06-.2.06-.28.22l0,0c-.14-.21-.07.07-.12,0s-.19-.13-.26.07a.07.07,0,0,1,0,.05c-.08,0-.08,0-.08.14l-.3.24s-.09,0-.11,0-.08-.11-.16-.05l-.12.08,0-.18-.29.38h.12a.51.51,0,0,1-.52.2l.1.07v0l-.21,0,0,0,.25.1.08,0s0,.06-.06.07l-.37.19.12.13-.32-.11c.29-.09.24-.23.13-.42,0,.09-.2.1,0,.2l-.06.1c-.2-.14-.28.28-.49.1l0,0-.24.15s-.09,0-.1,0c0,.23-.26.27-.4.4s-.2.1-.25.2l0,0,.21-.25v.28a.92.92,0,0,1,.28-.09c.14,0,.07-.26.25-.19.11-.19.25-.23.4-.07v-.19c.09.06.17.19.26,0L37.74,70a2,2,0,0,0,.35,0,.2.2,0,0,0,.13-.08c.07-.08.15-.16.22-.25h0a1.37,1.37,0,0,0,.29,0s0-.09,0-.14a.83.83,0,0,0,0-.2l.14.18a1.79,1.79,0,0,0,.23-.25s0-.09,0-.14,0,0,.07,0a.61.61,0,0,0,0,.14s0,0,0,.07c.05-.26.26-.17.42-.2l-.09-.17H40v-.07c-.12,0-.23-.06-.35-.07s0,.08-.08.13-.11,0-.11,0c0,.19-.1.08-.2.08a1.24,1.24,0,0,1,.31-.24c.15-.06.17-.13.12-.26l.21,0c-.18.23-.18.24.25.37L40,68.69h0c.16.06.15.06.21-.06s0,0,.08,0,.32,0,.37-.13.34-.17.47-.32l.09,0L41.18,68c0-.06-.14-.13,0-.16-.07.1,0,.07.06.11s.26-.07.39,0l0,0c-.12-.15.11-.09.1-.17a.31.31,0,0,0,.28-.21s.13,0,.2,0,.08,0,.09,0c.17-.14.33-.3.49-.44l.1-.09s0,.11,0,.11.11,0,.11,0a.33.33,0,0,0,0-.17s-.06,0-.09,0l-.18-.1,0-.07c.08.11.27,0,.31.22a.51.51,0,0,0,.17-.07s0-.08.1-.15c.06.2.12.13.19,0s.12-.16.18-.24h0a1.61,1.61,0,0,0,.31,0,1.21,1.21,0,0,0,.2-.09c0-.09,0-.21,0-.28s.14,0,.11-.12l.07,0,.09,0s0-.06,0-.09a.5.5,0,0,0,0-.12.2.2,0,0,1,.32,0c.11.16.17-.1.24,0a.88.88,0,0,0,.05-.15l0-.17.19.1c0-.16,0-.33.21-.32,0-.06,0-.12,0-.18.18.08.08-.19.22-.17-.07,0-.15,0-.18,0s0,.11,0,.17a1.4,1.4,0,0,1-.79.43l0-.09s-.07.06-.07.08,0,.16-.11.17,0,.08-.06.12l-.31.1c-.06-.11.17-.22,0-.27,0,0-.12,0-.18.06l0,.06.15-.06,0,0L44,66l.2.08c-.24.12-.28-.09-.34-.13l-.18.47-.07-.1c.06-.05.14-.1,0-.18s-.09-.08-.13-.13a1.19,1.19,0,0,1-.26,0S43.12,66,43.08,66Zm4.91-2,.17-.06s0,0,0-.07l-.09,0,0-.23.26.3-.13.2A.21.21,0,0,0,48.4,64s0-.09,0-.13l.15,0-.08-.08s.13-.08.14-.06.2,0,.28-.09a1.62,1.62,0,0,0,.18-.19l.06-.15-.27-.06.36-.07L49,63.05v0l.27,0-.1.3c.18-.25.18-.25.4-.09l-.42.24a.81.81,0,0,0,.4-.12c.11-.08.13-.19,0-.27s-.12-.11-.11-.16.09-.1.13-.16l.13.06L49.5,63l.09,0a5.6,5.6,0,0,0,.4-.45c.06-.08,0-.17-.1-.19a.54.54,0,0,1,0,.11.3.3,0,0,0-.34.16c-.09.16-.24,0-.36.09.24-.1.33-.21.27-.28s-.25.16-.36.15-.16.06-.18.14.07-.2-.07-.26c.12-.18.12.08.2.05l.1,0-.33-.27c0,.37-.27.16-.44.2l.43.2,0,0-.38-.13.1.24-.2,0c0-.07,0-.15,0-.22s0-.05-.06-.06,0,0-.07,0,0,.14,0,.2l.12,0h0v0c-.13,0,0,.22-.05.22-.24,0,0,.13,0,.16l-.15,0v0l.26.09c-.06.09-.13.17-.19.25l-.2-.12v.3l-.11-.13c-.11.16-.15,0-.24,0a.92.92,0,0,0,.22.26s.09-.06.13-.1l.06.1-.24.16.05.06ZM11.11,82.87a.76.76,0,0,0,.61-.12.2.2,0,0,0,0-.11.09.09,0,0,0-.06-.06s-.06,0-.07,0-.22.13-.26.13-.19,0-.25.13-.11,0-.13.18l.16,0ZM35.33,71.35c.07-.08.11-.2.2-.24s.14-.22.12-.36c-.08.07-.13.2-.19.21-.24,0-.2.2-.21.35l-.24.22C35.14,71.57,35.33,71.48,35.33,71.35Zm-9.68,5a1.16,1.16,0,0,1-.08-.2s0,0,0-.07,0,0,.06,0c.07.25.26.17.42.14l1.54-.35c.23,0,.42-.23.38-.37a1.05,1.05,0,0,0-.17-.39c-.24-.38-.48-.75-.75-1.1a1.37,1.37,0,0,0-.52-.49.52.52,0,0,0-.5,0c-.36.18-.7.4-1,.61-.05,0-.09.1-.15.16s-.12,0-.15.1-.25.22-.2.41c0,0,0,.07-.06.08s-.08.12,0,.2l-.22.09.15.06a1,1,0,0,0-.07.2c.18.1.09.32.2.47s.16.23.34.22l-.13,0,.2.21c0-.31.14-.1.26,0v-.24C25.31,76.4,25.48,76.26,25.65,76.3Zm8.42-4.24a1.67,1.67,0,0,1-.23-.12s0-.06-.06-.09l-.13.15a.13.13,0,0,0,0,.09c-.12-.06-.09,0-.1.09s-.14.2-.26.23l.07-.23-.06,0a2.12,2.12,0,0,0-.12.2.85.85,0,0,0,0,.22l-.21-.07,0,.09s.1,0,.12,0,.07.11.17,0a2.25,2.25,0,0,0,.3-.24c.07-.08.22,0,.24-.15A.78.78,0,0,1,33.8,72C34,72.15,34,72.15,34.07,72.06ZM9.94,83.14l.19.09s0,0,0,.07a.2.2,0,0,1,0-.08s.08-.06.1,0a.36.36,0,0,0,.55,0s0-.12,0-.18a.16.16,0,0,0-.11,0s-.09.09-.08.1c.11.17-.07.15-.1.2l-.08-.14c-.09.09-.14.07-.19,0s-.08,0-.13,0a1.46,1.46,0,0,1-.22,0,.92.92,0,0,1-.16,0c0,.05,0,.11.07.15a1.66,1.66,0,0,0,.14.13l0,0ZM52.31,61.67l.07,0-1-2.06,0,0ZM36.18,70.56c-.23-.07-.19.28-.41.23v0a.82.82,0,0,0,0,.27s.11,0,.17.06l0-.24h0l.07.22c.18-.26.17-.31,0-.41ZM31,73.41l0,0c.15-.17.29,0,.43,0s.33-.07.33-.32l-.14.17c-.17-.23-.35,0-.52,0S31,73.37,31,73.41ZM47.72,64c-.06,0-.1-.06-.13-.05l-.66.21.42.16s.07,0,.07,0c-.07-.18.06-.06.1-.07a.47.47,0,0,0,.09-.06C47.43,64,47.65,64.05,47.72,64ZM10.05,82.87l0,0,.51,0-.05-.3Zm24-11.05-.09.1.14,0,.08,0,.08,0s0-.07,0-.08,0-.12,0-.18a.59.59,0,0,0,.06-.14c-.11.07-.15.3-.34.11l-.07.09Zm15.74-9.34c-.07-.12-.16-.23-.14-.25s0-.16-.07-.2a.61.61,0,0,1,0,.18.43.43,0,0,1-.09.1l.11.08Zm-4.4.91,0,0,.9-.52v0Zm-10.3,7.74-.33.16.05.19C35.07,71.53,35,71.22,35.09,71.13Zm-.64.31.18.1.15.11.12,0-.08-.09a1.49,1.49,0,0,1-.12-.14C34.6,71.3,34.52,71.37,34.45,71.44ZM13.54,81.89c-.18-.27-.19-.27-.38,0Zm-.61-.34,0-.06c-.05.05-.11.09-.13.14s0,.12,0,.12.21.11.25-.09l-.19,0Zm19.58-8.76,0,.06.25.15.06,0c-.19-.19.08-.1.07-.19ZM11.82,82.5v.07h.39v-.15ZM50.1,62.32,50,62.16h0a.52.52,0,0,0,0,.17s0,0,.05,0l.14,0,0-.15ZM11.47,82.15c0,.06,0,.12,0,.18v.1s.1,0,.12-.05S11.62,82.18,11.47,82.15Zm21.31-9.59-.43,0v.07C32.49,72.65,32.63,72.75,32.78,72.56ZM12.44,82.09a2.25,2.25,0,0,0-.26,0s0,0,0,0,0,0,0,0c.19-.06,0,.11.11.12ZM49.77,62.37c.14-.07.16-.19,0-.44Zm-5.29,2.85-.2.29h.16a.65.65,0,0,1,.05-.18S44.53,65.31,44.48,65.22Zm5-3.09,0-.05c-.26.08-.26.08-.22.23a.43.43,0,0,1,.12-.11Zm-2.83,2.18-.05,0,.06.14a.42.42,0,0,0,0,.1s0-.09,0-.13A.6.6,0,0,0,46.63,64.31Zm-13.53,8,0-.07-.3.12,0,.07Zm-3.79,2.13.06,0,.21-.24,0,0ZM44.89,66l-.06-.06-.14.16.07.05Zm6.59-5.84-.06,0,.15.3,0,0Zm-4.32,4.48s-.06,0-.07,0a.7.7,0,0,0-.17.09s0,0,0,0a.65.65,0,0,0,.2,0S47.14,64.69,47.16,64.64ZM10.91,82.53l-.17,0a.42.42,0,0,1-.15,0C10.69,82.68,10.74,82.68,10.91,82.53ZM48.2,62l0,0-.28.18,0,0ZM45,65.36l0,.08.2-.06s0-.07,0-.06Zm2.89-1.08v.06l.3-.14v0Zm2.34-1.7.26.12v-.19Zm-15.8,9.15,0,.2.07,0a1,1,0,0,0,.06-.16S34.44,71.76,34.39,71.73Z"/><path d="M33.88,89.36c.61-1.06,1.22-2.12,1.84-3.17a6,6,0,0,0,.76-2.68,4,4,0,0,1,.27-1.45,3.21,3.21,0,0,1,.19-.31c.32-.58.64-1.16,1-1.73l1-1.64c.47-.81.92-1.62,1.38-2.43l1.5-2.63c.67-1.15,1.34-2.3,2-3.45.44-.74.86-1.49,1.3-2.24.28-.47.57-.94.84-1.41.36-.62.7-1.24,1.05-1.86l1.77-3.09c.25-.45.47-.91.75-1.33.14-.2.41-.3.6-.47a6.77,6.77,0,0,0,.59-.61.22.22,0,0,0,0-.22A.71.71,0,0,1,51,57.58a1.47,1.47,0,0,1,1.11.11,21.49,21.49,0,0,1,2,1c.77.44,1.51.93,2.25,1.43a6.14,6.14,0,0,1,1.35,1.19.85.85,0,0,1,.08.94.56.56,0,0,1-.66.33c-.09,0-.24.14-.28.25a5.57,5.57,0,0,0-.22,1,1.65,1.65,0,0,1-.25.66l-.66,1.05c-.31.5-.63,1-.93,1.49-.43.71-.84,1.44-1.27,2.15s-.91,1.48-1.36,2.22l-.07.11c-.54.91-1.08,1.82-1.63,2.73-.41.68-.83,1.34-1.23,2-.24.4-.47.82-.7,1.23-.57,1-1.15,2-1.72,2.92L46,81.91c-.8,1.37-1.58,2.76-2.42,4.11a3.5,3.5,0,0,1-.93.81A8.84,8.84,0,0,0,41,88.12a5.2,5.2,0,0,0-.54.76c-.67,1.12-1.32,2.26-2,3.38-.25.44-.51.87-.78,1.3a.45.45,0,0,1-.25.18.35.35,0,0,0-.27.2c-.45.7-.92,1.38-1.36,2.08a23.91,23.91,0,0,1-3.13,3.83c-.69.7-1.43,1.35-2.15,2a.31.31,0,0,1-.25,0,1.78,1.78,0,0,1-.4-.17c-.23-.13-.45-.28-.67-.43,0,0,0-.11,0-.17.16-.69.3-1.39.49-2.08s.5-1.62.76-2.43A17.66,17.66,0,0,1,31.56,94c.29-.58.6-1.15.9-1.72l.55-1a.2.2,0,0,0,0-.17.21.21,0,0,1,0-.28c.29-.48.56-1,.85-1.46ZM44,82.49l.07-.06-.06,0L44,82.23c.16.12.26,0,.36-.1s0-.12,0-.2l-.27.11c0,.11-.06.14-.1.2l-.06-.14-.16.18a.45.45,0,0,0,0,.08c-.19.1-.18.23,0,.37l-.14.08,0,.15-.1-.1-.07,0a.44.44,0,0,0-.08.11.21.21,0,0,0,0,.08c.2,0,.09.08.06.15s0,.07,0,.07l.38-.25a2.35,2.35,0,0,1,0-.24l0-.13.27.05Zm.73-1.31.09.11.19-.38L45,81l-.2,0a1.83,1.83,0,0,1-.06.19l0-.2-.21.14c.1,0,.2-.09.15.06s0,0,.06.07ZM55,63.38l.23,0,.06,0a1.62,1.62,0,0,0,.1-.18l0,0-.36.28a.33.33,0,0,0,0,.1,1.77,1.77,0,0,0,.15.31s.08,0,.1,0a.12.12,0,0,0,0-.1s-.07-.11-.09-.11-.16,0-.1-.1S55.05,63.41,55,63.38ZM50.7,69.54l.15-.24s0-.06,0-.09l-.08.06-.17.18.09.08-.07.18,0,.11.14,0a1,1,0,0,0,.16.13.83.83,0,0,0,.22.08l0,.06-.68,0v.08h.15l0,.24.19-.24,0,0c-.1.14-.25.27,0,.44l-.06,0-.18-.12c.09.08-.22.14,0,.23l0,.11h-.43v.05l.15,0-.27.11,0,0h.11v.06l-.27.09c0,.1.06.19.08.29a.5.5,0,0,1-.13,0l.11.15c-.19-.11-.23-.1-.31.07s0,.11,0,.15a3.38,3.38,0,0,1-.11.34c0,.09-.24.11-.1.27l0,0c-.14.14-.14.14-.13.32,0,0,0,0,0,0-.23-.11,0,.09-.08.1C49,73,49,73,49,73.2c0,0,0,0,0,.06s-.06.06,0,.16-.09.25-.14.37-.06.09-.08.09-.12-.06-.16,0l-.07.12-.06-.17-.05.47.1,0c0,.24-.16.34-.35.43l.13,0v0l-.2.08v.05l.26,0h.08s0,.06,0,.09a4,4,0,0,1-.23.34l.17,0-.34.07c.22-.22.1-.32-.09-.42,0,.07-.12.18.08.18v.12c-.24,0-.1.38-.37.32,0,0,0,0,0,0l-.12.25s-.08.06-.08.07c.09.22-.09.37-.15.55s-.12.19-.11.3h0l.06-.31.13.24c.07-.07.11-.17.19-.22s-.06-.26.13-.29c0-.22.1-.32.31-.25l-.1-.17c.1,0,.23.08.23-.12H48.1c.09-.07.19-.13.28-.21a.21.21,0,0,0,.07-.13c0-.11,0-.22.07-.33s0,0,0,0a1.1,1.1,0,0,0,.25-.17s0-.1,0-.14a.94.94,0,0,0-.11-.17l.2.09a2,2,0,0,0,.08-.33s0-.08-.06-.13l0,0,.08.12.07,0c-.08-.25.14-.27.27-.38l-.17-.1.3-.17,0-.07a3.38,3.38,0,0,0-.34.11s0,.1,0,.15-.09.07-.09.08-.05.12-.14.17a1.28,1.28,0,0,1,.16-.37c.1-.12.08-.19,0-.27l.15-.16c0,.3,0,.3.41.2l-.19,0,0,0c.17,0,.16,0,.15-.16s0-.06.06-.08.25-.19.25-.29.21-.32.25-.51c0,0,0,0,.06-.07l-.1,0c-.08,0-.18,0-.06-.15,0,.12,0,.07.11.07s.18-.19.32-.21,0,0,0,0c-.18-.07.05-.14,0-.2a.31.31,0,0,0,.14-.32s.1-.08.16-.11.09,0,.1,0c.07-.21.13-.42.2-.63,0,0,0-.09,0-.12s0,.09.07.09.09,0,.09-.06a.37.37,0,0,0-.07-.16h-.31v-.08c.13.06.26-.09.39,0a1.21,1.21,0,0,0,.1-.14.54.54,0,0,0,0-.19c.16.14.18.06.18-.06s0-.21,0-.31h0a1.53,1.53,0,0,0,.27-.17,1.18,1.18,0,0,0,.13-.18c0-.07-.07-.19-.15-.24s.11-.09,0-.16h.18l0-.08L52,68.75a.19.19,0,0,1,.27-.16c.17.08.1-.17.21-.12l0-.16-.06-.15.21,0c-.08-.14-.17-.28,0-.38l-.1-.15c.19,0,0-.2.1-.25a.24.24,0,0,0-.16.08s0,.11.06.17a1.41,1.41,0,0,1-.47.77l-.09,0s0,.09,0,.1.07.14,0,.2,0,.09,0,.13l-.22.25c-.1-.07,0-.28-.17-.22,0,0-.08.1-.12.15l0,0,.1-.11,0,0-.09.2.21,0c-.15.22-.28,0-.36.06l.08.49-.11,0c0-.07.08-.16-.08-.15a.61.61,0,0,1-.18-.05l-.2.17A.59.59,0,0,1,50.7,69.54Zm3.24-4.23.12-.13s0,0,0-.06l-.06.07-.1-.21.38.13,0,.25a.22.22,0,0,0,.11-.17s-.07,0-.1-.08l.1-.11-.11,0s.07-.14.09-.13c.2,0,.16-.13.2-.22a.92.92,0,0,0,0-.25l0-.16-.25.08.27-.24h-.21v0l.26-.08.07.31c0-.31,0-.31.3-.28l-.25.42a.83.83,0,0,0,.29-.3c.06-.13,0-.24-.16-.23s-.16,0-.17-.08,0-.13,0-.2l.14,0-.07.23h.1c0-.2.09-.39.11-.59s-.07-.15-.18-.12l0,.13a.29.29,0,0,0-.22.31c0,.18-.19.15-.26.26.15-.21.17-.36.09-.39-.09.12-.14.27-.24.32s-.11.12-.09.21c-.14,0,0-.21-.19-.2,0-.21.15,0,.2-.05l.07-.08-.42-.07c.15.35-.15.28-.28.4l.48,0v0L53.6,64l.2.15-.19.07L53.53,64a.07.07,0,0,0-.08,0s0,0,0,.06.07.11.07.18h.15v0c-.09.11.09.2.07.22-.22.11,0,.11,0,.15l-.11.11v0l.27,0c0,.11,0,.21,0,.31h-.24l.16.25-.16-.06c0,.2-.13.08-.22.09a1,1,0,0,0,.32.12.89.89,0,0,0,.06-.15l.1.05-.13.26.07,0ZM31.46,100.15c.15,0,.46-.27.47-.41a.15.15,0,0,0,0-.11.08.08,0,0,0-.08,0s-.05,0,0,.07-.13.23-.16.24-.15.13-.16.24-.11,0,0,.21l.12-.09ZM46.68,78.06a.78.78,0,0,1,0-.31c.12-.16,0-.25-.08-.37,0,.1,0,.24-.06.29s-.07.26,0,.39l-.1.32C46.62,78.35,46.75,78.17,46.68,78.06Zm-5.91,9.13-.17-.13s0-.06,0-.08l0,0c.19.18.32,0,.44-.09l1.16-1.07c.17-.16.25-.41.15-.51A1.52,1.52,0,0,0,42,85c-.39-.2-.79-.4-1.2-.58a1.43,1.43,0,0,0-.69-.16.51.51,0,0,0-.41.29c-.22.34-.41.7-.61,1a1.08,1.08,0,0,0-.05.21s-.08.1-.08.16-.11.32,0,.46a.07.07,0,0,1,0,.09c-.13.13,0,.16.09.2l-.16.18.17,0a1.22,1.22,0,0,0,0,.21c.21,0,.25.22.42.3s.25.13.41,0l-.1.1.28.09c-.11-.29.07-.16.24-.11l-.13-.2C40.52,87.45,40.6,87.24,40.77,87.19Zm5.17-7.88h-.26a.24.24,0,0,1-.1,0,1.48,1.48,0,0,0,0,.19s0,.06,0,.09-.06.07,0,.14,0,.24-.11.32l-.05-.23h-.06a1.93,1.93,0,0,0,0,.24.84.84,0,0,0,.08.2l-.22,0,0,.09a.26.26,0,0,1,.1-.07c.12.06.12.06.17,0a1.63,1.63,0,0,0,.13-.37c0-.1.2-.1.14-.24a2,2,0,0,1,0-.26C45.91,79.42,45.91,79.42,45.94,79.31ZM30.58,101l.21,0s.06,0,.08,0a.27.27,0,0,1,0-.09s0-.09.06-.09c.27,0,.42-.06.46-.3,0-.05,0-.12-.07-.17a.17.17,0,0,0-.11,0s0,.12,0,.13c.18.09,0,.16,0,.21l-.13-.08c0,.13-.1.14-.19.06s-.08,0-.11.07l-.18.14a.59.59,0,0,1-.14.06.53.53,0,0,0,.14.11l.18,0,0-.06Zm26-39.78,0-.07-1.9-1.27,0,0ZM47,77c-.23.06,0,.34-.24.4v0a1,1,0,0,0,.11.25s.12,0,.18,0l-.1-.22h0l.18.16c0-.32,0-.36-.22-.36ZM43.94,82l0,0c.05-.23.24-.17.38-.21s.25-.23.12-.44l0,.22c-.27-.12-.31.16-.46.24S44,82,43.94,82ZM53.73,65.5c-.06,0-.12,0-.14,0s-.29.31-.47.51l.44-.07s0-.07,0-.07,0-.07,0-.1,0-.07.05-.1C53.48,65.64,53.7,65.58,53.73,65.5ZM30.55,100.68l0,0,.46-.23-.19-.24ZM45.81,79.11l0,.13a.8.8,0,0,0,.15,0s0,0,0-.07l.08,0s0-.07,0-.07-.1-.08-.09-.16a.71.71,0,0,0,0-.14c-.07.11,0,.33-.24.26l0,.12Zm9-16c-.12-.07-.26-.12-.25-.15s-.1-.13-.16-.13a1.21,1.21,0,0,1,0,.18.61.61,0,0,1,0,.13l.13,0Zm-3.36,3h0l.52-.91h0ZM46.36,78l-.21.3.14.15C46.54,78.35,46.3,78.14,46.36,78Zm-.4.59h.21l.19,0a.35.35,0,0,0,.11,0,.43.43,0,0,0-.12,0,1.09,1.09,0,0,1-.17,0C46,78.38,46,78.49,46,78.58ZM33.08,98.09c-.29-.15-.31-.14-.34.17Zm-.7,0-.07,0a1.16,1.16,0,0,0,0,.18s.08.09.09.09.25,0,.18-.21l-.16.12ZM45,80.71v.08h.3l0,0c-.25-.07,0-.12,0-.19ZM31.89,99.47l0,.07.34-.19-.07-.13ZM55,62.86l-.13-.11,0,0a.71.71,0,0,0,.1.14.09.09,0,0,0,.07,0,.58.58,0,0,0,.14,0l0-.15ZM31.41,99.35l.13.13.05.09s.08-.07.08-.1S31.56,99.29,31.41,99.35Zm13.66-19-.35.24,0,.06C44.86,80.61,45,80.63,45.07,80.39ZM32.23,98.81l-.23.12A.14.14,0,0,0,32,99s0,0,0,0c.14-.15,0,.1.16,0ZM54.7,63.06c.08-.12,0-.24-.18-.4Zm-3.17,5.12,0,.35.13-.08a.74.74,0,0,1,0-.18S51.62,68.23,51.53,68.18ZM54.3,63l0,0c-.19.19-.19.19-.08.3a1.13,1.13,0,0,1,0-.15A1.48,1.48,0,0,0,54.3,63ZM53,66.32l0,.05.12.09a.6.6,0,0,1,.08.08c0-.05,0-.11,0-.14A.71.71,0,0,0,53,66.32ZM45.22,80l0,0-.21.25.06,0ZM43,83.75h.07l.07-.31h-.06Zm9.27-15.1-.08,0,0,.21h.08A1.06,1.06,0,0,0,52.28,68.65Zm2.79-8.35,0,.05.27.18,0,0Zm-1.5,6s-.07,0-.08,0l-.1.16s0,0,0,.06a1.54,1.54,0,0,0,.19-.08A.42.42,0,0,0,53.57,66.34ZM31.12,100c-.06,0-.09.08-.13.1a.44.44,0,0,1-.15,0C31,100.2,31.05,100.17,31.12,100Zm22-36.45-.05,0-.15.29,0,0ZM52,68.06l.06.06.15-.16s-.06,0-.06,0Zm2-2.38.05,0,.19-.27,0,0ZM55.16,63l.29,0-.11-.17ZM46.05,78.86l.07.2.07,0a.86.86,0,0,0,0-.17S46.11,78.86,46.05,78.86Z"/><path d="M54.43,94.39c0-1.22,0-2.45,0-3.67a6,6,0,0,0-.67-2.7,3.87,3.87,0,0,1-.5-1.39c0-.12,0-.24,0-.37,0-.65,0-1.31,0-2s0-1.28,0-1.92c0-.93,0-1.86,0-2.79s0-2,0-3c0-1.33,0-2.65,0-4V70c0-.55,0-1.1,0-1.65,0-.71,0-1.42,0-2.13,0-1.19,0-2.38,0-3.56,0-.51,0-1,0-1.53a3.49,3.49,0,0,1,.28-.71,5.8,5.8,0,0,0,.21-.82s-.06-.15-.12-.18a.7.7,0,0,1-.19-1.11,1.38,1.38,0,0,1,1-.46c.74-.08,1.48-.16,2.21-.17.89,0,1.78.06,2.66.12a6.33,6.33,0,0,1,1.77.36.81.81,0,0,1,.53.77.54.54,0,0,1-.4.61.4.4,0,0,0-.11.36,4.85,4.85,0,0,0,.31,1,1.53,1.53,0,0,1,.1.7c0,.41,0,.82,0,1.24,0,.58,0,1.17-.06,1.75,0,.83,0,1.67,0,2.5s0,1.74-.07,2.61c0,0,0,.08,0,.12,0,1.06,0,2.12,0,3.18,0,.79-.05,1.58-.06,2.36,0,.48,0,1,0,1.43l0,3.38c0,.59,0,1.18,0,1.77,0,1.59,0,3.18,0,4.76a3.44,3.44,0,0,1-.39,1.17,8.74,8.74,0,0,0-.72,1.9,4.88,4.88,0,0,0-.09.93c0,1.31,0,2.62,0,3.93,0,.5,0,1,0,1.51a.49.49,0,0,1-.13.28.37.37,0,0,0-.13.31c0,.83-.1,1.65-.14,2.48a23.77,23.77,0,0,1-.79,4.88c-.25,1-.56,1.88-.86,2.82,0,.07-.13.12-.21.14a1.54,1.54,0,0,1-.43,0,7,7,0,0,1-.79,0s-.08-.08-.1-.13c-.21-.69-.43-1.36-.61-2s-.38-1.66-.56-2.49a17.19,17.19,0,0,1-.36-2.78c0-.64-.06-1.29-.09-1.93,0-.4,0-.79,0-1.18a.23.23,0,0,0-.1-.15c-.11,0-.14-.11-.14-.23V94.39Zm5.34-11,0-.08h-.07l-.12-.12c.2,0,.22-.14.26-.27s0-.1-.08-.18l-.19.23c.11.07,0,.15,0,.23l-.12-.1a1.2,1.2,0,0,0,0,.24l.07,0c-.1.19,0,.3.19.32l-.08.14,0,.15-.14,0h-.08a.36.36,0,0,0,0,.14s0,.07,0,.07c.16-.11.11,0,.12.1s.05,0,.05,0l.2-.41-.15-.18-.1-.1.26-.09Zm0-1.49.13,0,0-.42,0,.11-.2.07,0,.19-.14-.14-.11.22c.08,0,.13-.18.16,0l.08,0Zm0-20.55.17-.15s0,0,0-.05a1.48,1.48,0,0,0,0-.21l0,0-.17.43a.16.16,0,0,0,0,.09l.28.19a.17.17,0,0,0,.08-.07s0-.08,0-.1-.11-.06-.13,0-.13.1-.14,0S59.79,61.33,59.75,61.32Zm-.67,7.49c0-.1,0-.19,0-.29a.2.2,0,0,0,0-.08,1,1,0,0,1,0,.1c0,.07,0,.14,0,.24l.12,0,0,.2a.38.38,0,0,0,0,.1l.1-.09a1.52,1.52,0,0,0,.21,0,.93.93,0,0,0,.23,0v.06l-.61.32,0,.06.13-.06.14.19,0-.31h.06c0,.17-.08.35.21.38l0,0-.22,0c.12,0-.12.24.15.19l0,.1-.37.22,0,0,.15,0-.18.23,0,0,.1-.05,0,0-.19.22c.07.07.14.13.21.21l-.09.1.17.07c-.22,0-.26,0-.24.22s.06.09.07.13.05.23.08.35-.16.21,0,.28c0,0,0,0,0,0-.05.2-.05.2,0,.35a.09.09,0,0,1,0,.05c-.24,0,0,.09,0,.13-.21.1-.21.1-.06.26s0,0,0,.05,0,.09.09.14l.06.38s0,.11,0,.12-.14,0-.12.12v.14l-.14-.12.19.44.07-.1c.11.21,0,.37-.09.55l.11-.05,0,0-.13.17,0,0,.2-.17a.18.18,0,0,0,.07,0,.2.2,0,0,1,0,.08l0,.42L60,75l-.25.23c.07-.3-.08-.33-.3-.33.07,0,0,.22.16.12l.06.11c-.22.09.11.38-.16.46,0,0,0,0,0,0s0,.18,0,.27,0,.1,0,.11c.19.15.11.36.15.55s0,.22,0,.31h.05l-.1-.31.23.15a.94.94,0,0,1,.06-.29c.06-.12-.19-.19,0-.31-.11-.19-.07-.33.14-.37l-.17-.1c.1,0,.25,0,.14-.22l-.13.08c.05-.11.1-.22.14-.33A.17.17,0,0,0,60,75c0-.11-.07-.22-.1-.32s0,0,0,0a1,1,0,0,0,.13-.27s-.05-.08-.09-.11l-.18-.08.22,0c0-.1-.06-.22-.1-.32s-.08,0-.12-.08l0-.06.13.06h.07c-.2-.18,0-.31,0-.47h-.2l.19-.3-.06,0a2,2,0,0,0-.24.26s0,.08.07.13,0,.1,0,.11c.17.09,0,.13,0,.22a1.56,1.56,0,0,1-.05-.4c0-.15,0-.2-.16-.22l.06-.21c.11.27.12.27.45,0l-.19.06s0,0,0,0,.12-.11.05-.21,0-.06,0-.1.13-.29.08-.37,0-.39,0-.57c0,0,0-.06,0-.09l-.1,0c-.08,0-.18.06-.13-.1.05.11.06.05.13,0s.07-.26.18-.34v0c-.19,0,0-.14-.1-.17a.3.3,0,0,0,0-.34s0-.12.08-.18.08-.06.07-.07c0-.22-.09-.43-.14-.65a.74.74,0,0,1,0-.12s.09,0,.1,0a.22.22,0,0,0,.06-.1.4.4,0,0,0-.15-.1s-.05,0-.08.05l-.18.1,0-.06c.14,0,.18-.21.35-.16a.55.55,0,0,0,0-.18s0-.09-.08-.16c.2,0,.18,0,.12-.15l-.12-.28h0a1.74,1.74,0,0,0,.14-.27.62.62,0,0,0,0-.23c-.07,0-.15-.13-.24-.14s0-.13,0-.15l.07,0,.08-.06a.18.18,0,0,0-.07,0l-.11,0a.19.19,0,0,1,.16-.28c.18,0,0-.19.11-.21l-.1-.12-.13-.1.18-.13c-.14-.07-.29-.15-.18-.34l-.16-.07c.16-.11-.12-.16,0-.27,0,0-.1.11-.09.15s.09.08.13.12a1.33,1.33,0,0,1,0,.9h-.1s0,.09,0,.1.13.08.09.18.05.07.07.11l-.06.32c-.12,0-.11-.25-.26-.1s0,.12,0,.19h0l0-.16h0l0,.22.17-.13c0,.26-.22.19-.29.23l.32.39h-.12c0-.08,0-.17-.15-.09a1,1,0,0,1-.18,0,2.34,2.34,0,0,1-.09.24S59.12,68.78,59.08,68.81Zm.69-5.28a1.36,1.36,0,0,0,0-.17l-.06,0v.09l-.19-.13.39-.08.11.22a.19.19,0,0,0,0-.19s-.08,0-.13,0l0-.15-.1,0c0-.06,0-.15,0-.16.19-.06.07-.19.06-.29a.75.75,0,0,0-.08-.24l-.09-.13-.19.2.12-.35-.18.1,0,0,.18-.2.21.23c-.12-.28-.12-.28.13-.39v.49a.85.85,0,0,0,.09-.41c0-.13-.09-.21-.25-.11a.19.19,0,0,1-.19,0s0-.13-.07-.2l.11-.08,0,.23.08-.05a5.44,5.44,0,0,0-.19-.57c0-.09-.14-.09-.21,0s.07.09.07.09a.29.29,0,0,0,0,.38c.08.16-.09.23-.1.36,0-.26,0-.39-.12-.38s0,.3,0,.4,0,.16,0,.22c-.12.08-.14-.17-.27-.07-.09-.2.13-.07.15-.15s0,0,0-.1l-.4.15c.3.22,0,.31,0,.48l.39-.27,0,0-.3.26.25,0-.13.15-.17-.14a.1.1,0,0,0-.09,0s0,.05,0,.07.12.06.16.13l.09-.08h0c0,.14.18.13.16.16-.13.2.1.08.12.11l0,.15,0,0,.21-.17.12.28-.2.12.26.14-.17,0c.09.17-.08.13-.14.19a1.28,1.28,0,0,0,.33-.06.71.71,0,0,0,0-.17h.11l0,.3.08,0Zm-2,41.41a.78.78,0,0,0,.2-.59.16.16,0,0,0-.08-.08.1.1,0,0,0-.09,0,.11.11,0,0,0,0,.08c.1.1,0,.26,0,.29s-.06.19,0,.29-.09.07.1.19l.05-.14ZM59.86,78.2c0-.1-.12-.2-.11-.29s-.12-.23-.25-.28c0,.1.11.21.09.27-.08.22.07.27.2.35l.07.32C60,78.48,60,78.27,59.86,78.2Zm-.55,10.86a1.06,1.06,0,0,1-.22,0s0,0,0-.06a.08.08,0,0,1,0,0c.25.06.28-.14.33-.3.16-.5.31-1,.47-1.51.07-.22,0-.47-.13-.51a1.27,1.27,0,0,0-.43,0c-.44,0-.89,0-1.33.09a1.42,1.42,0,0,0-.68.21.54.54,0,0,0-.21.45c0,.41,0,.82,0,1.22a.74.74,0,0,0,.07.21c0,.05,0,.13,0,.18s.07.32.26.38c0,0,0,.06,0,.09s.07.13.17.12l0,.24.13-.11.14.17c.18-.12.33.07.51,0s.28,0,.37-.18l0,.13.28,0c-.24-.2,0-.18.16-.22l-.22-.11C59.23,89.41,59.19,89.19,59.31,89.06Zm.54-9.4-.22.13s-.08,0-.11,0l.06.18s.05,0,.07.07,0,.09,0,.13a.27.27,0,0,1,.07.34l-.17-.18,0,0a1.39,1.39,0,0,0,.11.21,2.09,2.09,0,0,0,.17.14l-.16.15.06.06s0-.09.05-.09.13,0,.12-.13a1.59,1.59,0,0,0-.06-.38c0-.1.12-.19,0-.29a.77.77,0,0,1-.17-.19C59.88,79.76,59.88,79.76,59.85,79.66Zm-2.48,26.43.18-.12h.09s0,0,0-.07,0-.11,0-.11c.24-.11.33-.26.25-.5,0,0-.1-.08-.15-.11a.14.14,0,0,0-.08.09.17.17,0,0,0,0,.12c.21,0,.1.13.12.18h-.15c0,.12,0,.16-.14.14s0,.07-.06.11,0,.15-.08.21a.41.41,0,0,1-.1.13.55.55,0,0,0,.18,0l.18-.06,0,0ZM60,58.66v-.08l-2.29-.15v0ZM59.6,77.07c-.17.16.15.31,0,.47h0a.87.87,0,0,0,.23.16s.09-.08.13-.12l-.19-.14,0,0,.23,0c-.14-.28-.18-.31-.36-.2ZM59.47,83h.05c-.07-.22.13-.26.22-.37s.11-.33-.11-.44l.08.21c-.28,0-.19.29-.27.43S59.46,83,59.47,83Zm.21-19.2s-.1.05-.11.08c0,.21-.09.42-.14.68l.34-.28s0-.09,0-.09c-.18,0,0-.07,0-.11a.4.4,0,0,0,0-.11C59.54,64,59.7,63.88,59.68,63.8ZM57.2,105.85h0l.28-.43-.28-.11Zm2.43-26.3,0,.13a1.09,1.09,0,0,0,.11-.1s0-.06,0-.09,0,0,.06-.06-.07,0-.08,0-.13,0-.16-.09,0-.08-.08-.12c0,.13.18.27-.08.35l0,.1Zm-.21-18.31c-.14,0-.29,0-.3,0s-.14-.06-.2,0l.13.13a.57.57,0,0,1,0,.14l.12-.06ZM58,65.51h0V64.46h0ZM59.55,78.3l0,.37.19,0C59.89,78.52,59.57,78.46,59.55,78.3Zm0,.71a1.12,1.12,0,0,1,.18-.1l.17-.08s.06-.06.09-.09l-.13,0a.59.59,0,0,1-.17,0C59.45,78.81,59.47,78.92,59.5,79Zm-1.4,23.33c-.33,0-.34,0-.21.32Zm-.61.36h-.06a.53.53,0,0,0,0,.18s.11,0,.12,0,.2-.14,0-.26l-.07.18ZM59.7,81.36l0,.07.26-.14v-.06c-.26.07,0-.12-.13-.15Zm-1.94,22.77.06.05.21-.34-.13-.07ZM59.43,60.9l-.17,0,0,.05.16.07a.07.07,0,0,0,.06,0l.11-.09-.1-.12Zm-2.15,43.37.18,0,.09.05a.3.3,0,0,0,0-.13C57.52,104.13,57.38,104.15,57.28,104.27ZM59.63,81l-.18.38.07,0C59.56,81.31,59.73,81.24,59.63,81ZM57.72,103.4a1.79,1.79,0,0,0-.13.22s0,0,0,.07h0c.05-.2.09.06.17,0Zm1.59-42.2c0-.15-.09-.22-.36-.25Zm-.19,6,.16.31.08-.13c-.06-.06-.11-.09-.13-.14S59.23,67.22,59.12,67.22Zm-.18-5.86h0c-.07.26-.07.26.08.3a.66.66,0,0,1,0-.15A.75.75,0,0,1,58.94,61.36Zm.48,3.54V65l.15,0,.11,0s0-.1-.09-.11A1,1,0,0,0,59.42,64.9Zm.16,15.72h-.07l-.06.31.08,0Zm0,4.34.07,0-.1-.31,0,0ZM60,67.25l-.09,0,.08.19.07,0A1.06,1.06,0,0,0,60,67.25Zm-1.77-8.63v.07l.33,0v-.06Zm1.73,6s-.06,0-.07,0,0,.12,0,.19,0,0,0,0,.1-.1.12-.16S60,64.64,60,64.61Zm-2.64,40.33a.49.49,0,0,1-.06.16.53.53,0,0,1-.1.12C57.35,105.21,57.38,105.17,57.33,104.94Zm.85-42.56h-.06l0,.33h0Zm1.31,4.49.08,0,0-.21s-.07,0-.07,0A1.06,1.06,0,0,0,59.49,66.87Zm.51-3,.06,0,0-.33h0ZM59.69,61l.24-.16-.17-.09Zm0,18.26.16.14s0,0,0-.06a.64.64,0,0,0-.1-.13S59.77,79.18,59.72,79.21Z"/><path d="M74.74,88.47,72.9,85.29a5.86,5.86,0,0,0-1.93-2,3.84,3.84,0,0,1-1.12-1c-.07-.1-.12-.22-.18-.32-.33-.57-.68-1.13-1-1.7s-.62-1.12-.94-1.67c-.46-.8-.94-1.6-1.41-2.4l-1.53-2.62-2-3.46c-.43-.75-.87-1.49-1.29-2.24-.28-.48-.53-1-.81-1.44s-.72-1.22-1.08-1.83l-1.8-3.08c-.26-.44-.55-.86-.77-1.32a3.66,3.66,0,0,1-.11-.76,4.92,4.92,0,0,0-.23-.81s-.13-.1-.2-.1a.71.71,0,0,1-.72-.86,1.46,1.46,0,0,1,.65-.91c.6-.43,1.2-.87,1.84-1.25s1.56-.84,2.36-1.22a5.67,5.67,0,0,1,1.71-.58.84.84,0,0,1,.85.41.55.55,0,0,1-.05.73c0,.07,0,.28.08.36A6.31,6.31,0,0,0,64,56a1.55,1.55,0,0,1,.44.55L65,57.6c.27.52.54,1,.82,1.55.4.73.83,1.44,1.23,2.17s.83,1.53,1.24,2.3l.06.11c.51.92,1,1.85,1.55,2.78.38.68.75,1.38,1.13,2.07.23.41.48.82.72,1.23l1.67,2.94.88,1.53c.79,1.38,1.59,2.75,2.34,4.16a3.13,3.13,0,0,1,.24,1.2,8.54,8.54,0,0,0,.34,2,5.38,5.38,0,0,0,.38.85c.64,1.14,1.3,2.27,1.94,3.41.25.43.5.87.73,1.32a.36.36,0,0,1,0,.3.37.37,0,0,0,.05.34c.37.74.73,1.49,1.11,2.22a23.9,23.9,0,0,1,1.76,4.62c.26,1,.45,1.92.67,2.88a.31.31,0,0,1-.11.22,1.77,1.77,0,0,1-.35.26c-.23.13-.47.25-.7.36,0,0-.12,0-.16-.07-.52-.48-1.06-1-1.55-1.47S79.88,95.65,79.31,95A18.45,18.45,0,0,1,77.6,92.8c-.35-.54-.69-1.09-1-1.64-.21-.33-.41-.67-.63-1a.18.18,0,0,0-.15-.07.21.21,0,0,1-.24-.13c-.28-.49-.56-1-.85-1.47Zm-.89-12.22v-.09l-.06,0-.17,0c.18-.08.12-.23.09-.36s-.09-.07-.16-.11l-.05.29c.13,0,.1.11.13.18l-.15,0c0,.09,0,.16.08.23s.06,0,.09,0c0,.21.11.27.32.18v.16l.11.1-.13,0-.08,0a.27.27,0,0,0,.06.12S74,77,74,77c.09-.18.11,0,.16,0s.07,0,.06,0l0-.45L74,76.55l-.13,0L74,76.3ZM73.09,75l.14,0L73,74.59l.11.07-.14.16.13.14-.19-.06,0,.26c0-.09,0-.23.12-.1s.06,0,.09,0ZM62.81,57.17c0-.08,0-.15.07-.22l0-.06c0-.07-.07-.12-.1-.18h0l.06.46s0,0,.08,0l.34,0s0-.07,0-.1a.12.12,0,0,0-.08-.06s-.13,0-.14,0-.06.14-.14,0ZM66,64c0-.09-.08-.17-.13-.26s0,0-.07,0a.38.38,0,0,0,0,.1c0,.07,0,.14.08.23L66,64l.11.16.08.07,0-.13.19-.07a1.3,1.3,0,0,0,.18-.15l0,0-.37.58.07,0,.07-.12.23.09-.11-.29,0,0c.06.16.11.35.37.23v.06l-.2.1c.12,0,0,.26.22.09l.09.06-.22.38h.05L67,65l0,.29h0l0-.09.06,0,0,.28.28.07a.45.45,0,0,1,0,.14l.18,0c-.19.1-.21.14-.1.3s.1,0,.13.08l.24.26c.06.07,0,.27.18.22a.1.1,0,0,1,0,0c.06.19.06.19.22.27l0,0c-.21.14.07.06,0,.11-.13.2-.13.2.07.26a.1.1,0,0,1,.05,0c0,.09,0,.09.14.08l.24.3s0,.09,0,.11-.11.08-.05.16l.08.12-.18,0,.38.28V68.2a.51.51,0,0,1,.2.52l.07-.1h0l0,.21,0,0,.1-.24,0-.08s.06,0,.07,0,.13.25.19.38l.13-.13-.11.33c-.09-.3-.23-.24-.42-.14.09,0,.1.2.2,0l.1.07c-.14.19.28.28.1.48l0,0,.15.23s0,.1,0,.1c.23,0,.27.27.4.41s.1.2.2.24l0,0-.25-.21h.28a1,1,0,0,1-.09-.27c0-.14-.26-.08-.19-.25-.19-.12-.23-.25-.07-.4h-.19c.06-.08.19-.16,0-.26l-.07.13A2.21,2.21,0,0,0,70,69a.16.16,0,0,0-.08-.12l-.25-.23v0a1.51,1.51,0,0,0,0-.3s-.09-.05-.14-.05a.83.83,0,0,0-.2,0l.18-.14a2.73,2.73,0,0,0-.25-.23s-.09,0-.14,0,0,0,0-.07h.14s0,0,.07,0c-.26-.05-.17-.26-.2-.42l-.17.1v-.35h-.07a3.4,3.4,0,0,0-.07.34s.08,0,.13.08,0,.11,0,.11c.19,0,.08.1.08.21a1.27,1.27,0,0,1-.24-.32c-.06-.15-.13-.16-.26-.11l0-.21c.23.18.24.17.37-.26l-.13.14a.06.06,0,0,1,0,0c.06-.15.06-.15-.06-.21s0,0,0-.08,0-.31-.13-.36-.17-.35-.32-.47,0-.06,0-.09l-.07.07c-.06.06-.13.14-.16,0,.1.07.07,0,.11-.06s-.07-.26,0-.38,0,0,0,0c-.15.13-.09-.1-.17-.1a.31.31,0,0,0-.21-.28s0-.12,0-.19,0-.08,0-.1l-.44-.49a.75.75,0,0,1-.09-.09s.11,0,.11,0a.13.13,0,0,0,0-.11A.33.33,0,0,0,67,64s0,.06,0,.09a1.62,1.62,0,0,0-.1.18l-.07,0c.11-.08,0-.27.22-.31a.39.39,0,0,0-.07-.16.48.48,0,0,0-.15-.1c.2-.07.13-.13,0-.19l-.24-.19h0a1.58,1.58,0,0,0,0-.31,1,1,0,0,0-.09-.21c-.09,0-.21,0-.28,0s0-.13-.12-.11a.21.21,0,0,1,0-.06.36.36,0,0,1,0-.09l-.09,0-.12,0a.2.2,0,0,1,0-.32c.16-.1-.1-.16,0-.24l-.15,0-.17,0,.1-.2c-.16,0-.33,0-.32-.21l-.18,0c.08-.17-.19-.08-.17-.22,0,.07,0,.15,0,.19s.11,0,.17,0a1.43,1.43,0,0,1,.43.8l-.09,0s.06.07.08.07.16,0,.17.11.08,0,.12.06l.1.31c-.11.06-.22-.16-.27,0s0,.12.06.18l.06,0-.06-.15h0l.13.18.08-.2c.12.23-.09.27-.13.34l.47.17-.1.08c-.05-.07-.1-.15-.18,0s-.08.09-.13.14a1.11,1.11,0,0,1,0,.25S66,63.94,66,64Zm-2-4.92-.06-.17h-.07l0,.08-.23,0,.3-.26.2.14a.21.21,0,0,0-.08-.17s-.09,0-.13,0l0-.14-.08.07s-.08-.12-.06-.13,0-.21-.09-.29a1.54,1.54,0,0,0-.19-.17L63.29,58l-.06.26-.07-.35-.11.17,0,0,0-.26.3.09c-.25-.18-.25-.18-.09-.4l.24.43a.75.75,0,0,0-.12-.4c-.08-.12-.19-.14-.27,0s-.11.12-.16.11-.1-.08-.16-.13l.06-.13.16.18,0-.09a5.46,5.46,0,0,0-.45-.39c-.08-.06-.17,0-.19.09l.11,0a.3.3,0,0,0,.16.34c.16.1,0,.25.09.36-.1-.23-.21-.33-.28-.27s.16.25.15.37.06.15.14.18-.2-.08-.26.06c-.18-.12.08-.12.05-.2s0,0,0-.1l-.27.33c.37,0,.16.27.2.44l.2-.43,0,0-.13.37.24-.1a1.91,1.91,0,0,0,0,.21.85.85,0,0,0-.22,0s-.05,0-.06.06,0,0,0,.06.14,0,.2,0l0-.12h0c0,.13.22,0,.22,0,0,.25.13,0,.16.05l0,.14h0l.09-.26.25.19-.12.21.3,0-.13.11c.16.11,0,.15,0,.24a1.09,1.09,0,0,0,.26-.21s-.06-.09-.1-.14l.1,0,.16.24.06-.05ZM82.87,96a.78.78,0,0,0-.12-.62.2.2,0,0,0-.11,0s-.06,0-.06.07,0,.06,0,.06.13.23.13.26,0,.2.13.26,0,.1.18.12l0-.15ZM71.35,71.73c-.08-.06-.2-.11-.24-.2s-.22-.14-.36-.11c.07.07.2.12.21.19,0,.23.2.19.35.2l.22.24C71.57,71.93,71.48,71.73,71.35,71.73Zm5,9.68-.2.09a.13.13,0,0,1-.07,0s0,0,0,0c.25-.08.17-.26.14-.42-.11-.52-.23-1-.35-1.55,0-.22-.23-.41-.37-.38a1.25,1.25,0,0,0-.39.17c-.38.24-.75.48-1.1.75a1.44,1.44,0,0,0-.49.52.51.51,0,0,0,0,.5c.18.36.4.7.61,1a1.17,1.17,0,0,0,.16.15.35.35,0,0,0,.1.16c.12.08.22.24.41.19a.12.12,0,0,1,.08.06c0,.17.12.08.2,0l.09.23.06-.16a1.28,1.28,0,0,0,.2.08c.1-.19.32-.1.47-.21s.23-.16.22-.34l0,.13.21-.19c-.31,0-.1-.15,0-.26h-.24C76.4,81.76,76.26,81.59,76.3,81.41ZM72.06,73c0,.07-.07.15-.12.23l-.09.06.15.12s.06,0,.09,0,0,.09.09.1.2.13.23.26l-.23-.08,0,.06a2.26,2.26,0,0,0,.2.13,1.66,1.66,0,0,0,.22,0l-.07.22.09,0s0-.1,0-.11.11-.08,0-.18a1.68,1.68,0,0,0-.24-.29c-.08-.07,0-.23-.15-.25a1.13,1.13,0,0,1-.24-.08C72.15,73.07,72.15,73.07,72.06,73ZM83.14,97.13a1.79,1.79,0,0,1,.09-.19s0,0,.07-.06a.2.2,0,0,1-.08,0s-.06-.08,0-.1a.36.36,0,0,0,0-.55s-.12,0-.18,0a.19.19,0,0,0,0,.12.31.31,0,0,0,.1.08c.17-.12.15.06.2.09l-.14.08c.09.09.07.15,0,.19s0,.09,0,.13a1.66,1.66,0,0,1,0,.22.86.86,0,0,1,0,.16.69.69,0,0,0,.15-.07.86.86,0,0,0,.13-.14l0,0ZM61.67,54.75l0-.07-2.06,1,0,0Zm8.89,16.13c-.07.23.28.19.23.41h0a1.24,1.24,0,0,0,.27,0s0-.12.06-.18l-.24,0v0l.22-.07c-.26-.17-.31-.17-.41,0Zm2.85,5.21,0,0c-.17-.15,0-.29,0-.42s-.07-.34-.32-.33l.17.14c-.23.17,0,.34,0,.51S73.37,76.05,73.41,76.09ZM64,59.35s-.06.09-.05.12c.06.21.13.41.21.66.07-.17.12-.29.16-.41s0-.08,0-.08c-.18.07-.06,0-.07-.09s0-.06-.06-.09C64,59.63,64.05,59.41,64,59.35ZM82.87,97l0,0,0-.51-.3,0ZM71.82,73l.1.09S72,73,72,73s0-.06,0-.09a.19.19,0,0,1,0-.07s-.07,0-.08,0-.12,0-.18,0a.59.59,0,0,0-.14-.06c.07.12.3.15.11.34l.09.07ZM62.48,57.27c-.12.07-.23.16-.25.14s-.16,0-.2.07l.18.05a.32.32,0,0,1,.1.1.76.76,0,0,0,.08-.11A2.1,2.1,0,0,0,62.48,57.27Zm.91,4.4,0,0-.52-.9,0,0ZM71.13,72l.16.33.19,0C71.53,72,71.22,72.1,71.13,72Zm.31.65.1-.19.11-.15a.53.53,0,0,0,0-.12l-.09.08-.14.13C71.3,72.47,71.37,72.55,71.44,72.62Zm10.45,20.9c-.27.18-.27.2,0,.38Zm-.34.61-.06.05a1.66,1.66,0,0,0,.14.13.19.19,0,0,0,.12,0c0-.09.11-.22-.09-.26l0,.2ZM72.79,74.55l.06,0,.15-.25,0,0c-.19.18-.1-.09-.19-.07ZM82.5,95.24h.07v-.4h-.15ZM62.32,57l-.16.05v.06l.17,0a.08.08,0,0,0,0-.06s0-.09,0-.14l-.15,0ZM82.15,95.59l.18,0h.1s0-.1-.05-.12S82.18,95.45,82.15,95.59Zm-9.59-21.3,0,.42h.07C72.65,74.58,72.75,74.43,72.56,74.29Zm9.53,20.33a2.25,2.25,0,0,0,0,.26s0,0,0,.05l0,0c-.06-.2.11,0,.12-.11ZM62.37,57.29c-.07-.14-.19-.15-.44,0Zm2.85,5.3.29.19v-.15a.63.63,0,0,1-.18-.06S65.31,62.54,65.22,62.59Zm-3.09-5-.05,0c.08.26.08.26.23.22a.57.57,0,0,1-.11-.11A.61.61,0,0,1,62.13,57.6Zm2.18,2.83,0,0,.14,0,.1,0s-.09-.06-.13,0A.6.6,0,0,0,64.31,60.43Zm8,13.54-.07,0,.12.3.07,0Zm2.13,3.78,0,0-.24-.22,0,0ZM66,62.18l-.06.06.16.13.05-.07Zm-5.84-6.59,0,0,.3-.14,0,0Zm4.48,4.31s0,.06,0,.07a.56.56,0,0,0,.09.17l0,0a.71.71,0,0,0,0-.2S64.69,59.92,64.64,59.9ZM82.53,96.16a1.43,1.43,0,0,1,0,.16.53.53,0,0,1,0,.16C82.68,96.38,82.68,96.32,82.53,96.16ZM62,58.87l0,0,.18.28,0,0Zm3.38,3.23.08,0-.06-.2s-.07,0-.06,0A1.29,1.29,0,0,0,65.36,62.1Zm-1.08-2.88.06,0-.14-.3,0,0Zm-1.7-2.34.12-.27-.19,0Zm9.15,15.79.2,0a.45.45,0,0,0,0-.08l-.16-.06S71.76,72.63,71.73,72.67Z"/><path d="M89.36,73.18l-3.17-1.83a5.89,5.89,0,0,0-2.68-.77,3.81,3.81,0,0,1-1.45-.27,3.21,3.21,0,0,1-.31-.19c-.58-.32-1.16-.63-1.73-1l-1.64-1L76,66.8c-.88-.5-1.76-1-2.63-1.5l-3.45-2L67.63,62l-1.41-.84-1.86-1-3.09-1.76c-.45-.26-.91-.47-1.33-.76-.2-.14-.3-.41-.47-.6s-.4-.4-.61-.59c0,0-.16,0-.22,0A.7.7,0,0,1,57.58,56a1.47,1.47,0,0,1,.11-1.11,21.49,21.49,0,0,1,1-2c.44-.77.93-1.51,1.43-2.24a6.43,6.43,0,0,1,1.19-1.36.85.85,0,0,1,.94-.07.56.56,0,0,1,.33.65c0,.09.14.25.25.28a5.57,5.57,0,0,0,1,.22,1.53,1.53,0,0,1,.66.26l1.05.65c.5.31,1,.63,1.49.93.71.43,1.44.84,2.15,1.27s1.48.91,2.22,1.37l.11.06,2.73,1.63c.68.41,1.34.83,2,1.23.4.25.82.47,1.23.71l2.92,1.72,1.53.88c1.37.8,2.76,1.58,4.11,2.42a3.67,3.67,0,0,1,.81.93A8.84,8.84,0,0,0,88.12,66a5.26,5.26,0,0,0,.76.55l3.38,2,1.3.79a.43.43,0,0,1,.18.24.34.34,0,0,0,.2.27c.7.46,1.38.92,2.08,1.37a23.85,23.85,0,0,1,3.83,3.12c.7.69,1.35,1.43,2,2.16a.3.3,0,0,1,0,.25,1.92,1.92,0,0,1-.17.39c-.13.23-.28.45-.43.67,0,0-.11,0-.17,0-.69-.16-1.39-.31-2.08-.5s-1.62-.5-2.43-.75A18.88,18.88,0,0,1,94,75.5c-.58-.29-1.15-.59-1.72-.89-.35-.19-.69-.38-1-.55a.17.17,0,0,0-.17,0,.21.21,0,0,1-.28,0c-.48-.29-1-.57-1.46-.85ZM82.49,63,82.43,63l0,.05-.16,0c.12-.16,0-.26-.1-.35s-.12,0-.2,0L82,63c.11-.06.14.06.2.1l-.14.05a1.22,1.22,0,0,0,.18.16s0,0,.08,0c.1.19.23.19.37,0l.08.15.15,0-.1.11,0,.06a.48.48,0,0,0,.11.09s.08,0,.08,0c0-.19.08-.09.15-.06s.07,0,.07,0L83,63.21l-.24,0-.13,0,.05-.27Zm-1.31-.73.11-.09L80.91,62H81l0,.21.19.05-.2,0,.14.22c0-.1-.09-.21.06-.15l.07-.06ZM63.38,52c0-.07,0-.15,0-.22s0-.06,0-.07l-.18-.1,0,0,.28.36s.08,0,.1,0l.31-.14a.15.15,0,0,0,0-.11.09.09,0,0,0-.1,0s-.11.06-.11.09,0,.15-.1.09Zm6.16,4.33-.24-.16h-.09l.06.08.18.16.08-.09.18.07.11,0,0-.14a1,1,0,0,0,.13-.16A.76.76,0,0,0,70,56h.06l0,.69h.08V56.5l.24,0-.24-.2,0-.05c.14.11.27.25.44,0l0,0-.12.18c.08-.08.14.22.23,0h.11v.43h.05l0-.15L71,57h0v-.11l.06,0,.09.27.29-.07a.39.39,0,0,1,0,.13l.15-.11c-.11.18-.1.23.07.31s.11,0,.15,0a3.37,3.37,0,0,1,.34.1c.09,0,.11.24.27.1l0,0c.14.14.14.14.32.14h0c-.11.22.09,0,.1.07,0,.23,0,.23.19.19a.06.06,0,0,1,.06,0c.07.06.06.06.16,0l.37.13s.09.06.09.08-.06.13,0,.16l.12.07-.17.06.47.06,0-.11c.24,0,.34.17.43.35l0-.12,0,0,.08.2h.05c0-.09,0-.18,0-.26s0-.06,0-.09h.09l.34.23,0-.17.07.34c-.22-.21-.32-.09-.42.09.07,0,.18.12.18-.08h.12c0,.25.38.11.32.37h0l.25.13s.06.08.07.07c.22-.08.37.09.55.15s.19.13.3.11v-.05l-.31-.06.24-.13a1,1,0,0,1-.22-.19c-.07-.12-.26.07-.29-.12-.22,0-.32-.11-.25-.32l-.17.11c0-.11.08-.24-.12-.23V59a3.06,3.06,0,0,0-.21-.29.26.26,0,0,0-.13-.06L75,58.54s0,0,0,0a1.84,1.84,0,0,0-.17-.25s-.1,0-.14,0a.67.67,0,0,0-.17.12l.09-.21-.33-.08s-.08.05-.13.06l0,0,.12-.08s0,0,0-.07c-.25.09-.27-.14-.38-.26l-.1.17-.17-.31-.07,0c0,.11.06.22.11.33s.1,0,.15,0,.07.08.08.08.12,0,.17.14A1.66,1.66,0,0,1,73.7,58c-.12-.1-.19-.08-.27,0l-.16-.15c.3,0,.3,0,.2-.41l0,.19,0,0c0-.16,0-.16-.16-.15s-.06,0-.08-.05-.19-.25-.29-.25-.32-.22-.51-.25l-.07-.07a.43.43,0,0,1,0,.11c0,.07,0,.18-.15.06.12,0,.07,0,.07-.11S72,56.74,72,56.6h0c-.07.18-.14,0-.2,0a.3.3,0,0,0-.32-.14s-.08-.11-.11-.17,0-.09,0-.09l-.63-.2-.12,0s.09-.06.09-.08,0-.09-.06-.09a.56.56,0,0,0-.16.07s0,.07,0,.1a1.48,1.48,0,0,1,0,.21h-.08c.06-.13-.09-.26,0-.38a.67.67,0,0,0-.14-.11s-.1,0-.19,0c.14-.15.06-.17-.06-.18l-.31,0h0a1.45,1.45,0,0,0-.17-.26.55.55,0,0,0-.18-.13c-.07,0-.19.06-.24.14s-.09-.11-.16,0V55.1a.31.31,0,0,0,0-.1s-.06,0-.08,0l-.09.07a.19.19,0,0,1-.16-.27c.08-.17-.17-.1-.12-.21l-.16,0-.15.06,0-.21c-.14.08-.28.17-.38,0l-.15.1c0-.19-.2,0-.25-.1,0,.07,0,.15.08.16s.11,0,.17-.06a1.37,1.37,0,0,1,.77.48l0,.08s.09,0,.1,0,.14-.08.2,0,.09,0,.13,0l.25.22c-.07.11-.28,0-.22.17s.1.09.15.13l0,0-.11-.1,0,0,.2.09,0-.22c.22.15,0,.29.06.36l.49-.08,0,.12c-.07,0-.16-.08-.15.07a.61.61,0,0,1-.05.18c.06.07.12.13.17.2A.68.68,0,0,1,69.54,56.37Zm-4.23-3.24L65.18,53s0,0-.06,0l.07.05-.21.1.13-.37h.25a.21.21,0,0,0-.17-.1s0,.06-.08.1l-.11-.1,0,.1s-.14-.07-.13-.08c0-.21-.13-.16-.22-.2a.92.92,0,0,0-.25-.06l-.16,0,.08.26-.24-.27v.2h0l-.08-.26.31-.06c-.31,0-.31,0-.28-.31l.42.25a.83.83,0,0,0-.3-.29c-.13-.05-.24,0-.23.16a.19.19,0,0,1-.08.18c-.05,0-.13,0-.2,0l0-.14.23.07v-.09c-.2,0-.39-.1-.59-.12s-.15.07-.12.18.12,0,.13,0c0,.16.16.2.31.21s.15.19.26.27c-.21-.15-.36-.18-.39-.09.12.08.27.13.32.24s.12.1.21.08c0,.14-.21,0-.2.19-.21,0,0-.15-.05-.2l-.08-.07-.07.42c.35-.15.28.16.4.28l0-.47h0l.08.39.15-.2c0,.07,0,.14.07.2l-.21.07a.08.08,0,0,0,0,.08s0,0,.06,0,.11-.07.18-.07v-.14h0c.11.08.2-.1.22-.07.11.21.11,0,.15,0l.11.11,0,0,0-.27.31,0v.23l.25-.16-.06.16c.2,0,.08.14.09.22a.91.91,0,0,0,.12-.31l-.15-.07.05-.09.26.12,0-.07ZM100.15,75.6a.77.77,0,0,0-.41-.47.23.23,0,0,0-.11,0,.1.1,0,0,0,0,.09s0,0,.07,0,.23.12.24.15.13.15.24.16,0,.12.21,0l-.09-.12ZM78.06,60.39c-.1,0-.23,0-.31-.06s-.25,0-.37.08c.1,0,.24,0,.29.06s.26.07.39,0l.32.1C78.35,60.44,78.17,60.32,78.06,60.39Zm9.13,5.9-.13.18a.11.11,0,0,1-.08,0s0,0,0,0c.18-.19,0-.31-.09-.43-.35-.4-.71-.78-1.07-1.17-.16-.17-.41-.25-.51-.14A1.7,1.7,0,0,0,85,65c-.2.4-.4.79-.58,1.2a1.49,1.49,0,0,0-.16.69.51.51,0,0,0,.29.42c.34.22.7.4,1,.6a1.08,1.08,0,0,0,.21,0s.1.08.16.09.32.1.46,0,.08,0,.09,0,.16,0,.2-.08l.18.15,0-.16c.08,0,.21,0,.21,0,0-.21.22-.24.3-.41s.13-.26,0-.41l.1.09.09-.28c-.29.12-.16-.07-.11-.24l-.2.13C87.45,66.54,87.24,66.46,87.19,66.29Zm-7.88-5.17a2.35,2.35,0,0,1,0,.26.19.19,0,0,1,0,.1l.19,0,.09,0c0,.13.07.07.14,0a.27.27,0,0,1,.32.11l-.23.06v0a1,1,0,0,0,.24,0,.84.84,0,0,0,.2-.08l0,.22.09,0s-.07-.07-.07-.09.06-.13,0-.17a1.66,1.66,0,0,0-.37-.14c-.1,0-.1-.2-.24-.14a2,2,0,0,1-.26,0C79.42,61.15,79.42,61.15,79.31,61.12ZM101,76.48a2.06,2.06,0,0,1,0-.21s0,0,0-.08-.06,0-.09,0-.09,0-.09-.07c0-.26-.06-.41-.3-.46-.05,0-.12,0-.17.08s0,.09,0,.11a.22.22,0,0,0,.13,0c.09-.19.16,0,.21,0l-.08.14c.13,0,.14.09.06.19s0,.07.07.11.1.11.14.17a.67.67,0,0,1,.06.15,1.34,1.34,0,0,0,.11-.14c0-.06,0-.13,0-.19h-.06Zm-39.78-26-.07,0-1.27,1.91,0,0ZM77,60c.06.24.34,0,.4.24h0a1.45,1.45,0,0,0,.25-.12s0-.12,0-.18l-.22.1v0l.16-.17c-.32,0-.36,0-.36.21ZM82,63.13l0-.05c-.23,0-.17-.24-.21-.37s-.23-.26-.44-.13l.22,0c-.12.27.16.31.24.46S82,63.11,82,63.13ZM65.5,53.34c0,.06,0,.11,0,.13s.31.29.51.47L66,53.5s-.07,0-.07,0-.07,0-.1-.05l-.1,0C65.64,53.59,65.58,53.36,65.5,53.34Zm35.18,23.17,0,0-.23-.46-.24.19ZM79.11,61.25l.13,0a.58.58,0,0,0,0-.14s0,0-.07-.06,0-.05,0-.08-.07,0-.07.06-.08.09-.16.08h-.14c.11.07.33,0,.26.25h.12Zm-16-9c-.07.12-.12.26-.15.26s-.13.09-.13.15a1.16,1.16,0,0,1,.18,0s.09,0,.13,0a.68.68,0,0,0,0-.14C63.19,52.49,63.18,52.42,63.15,52.29Zm3,3.36v0l-.91-.52v0ZM78,60.7l.3.21.15-.14C78.35,60.52,78.14,60.77,78,60.7Zm.59.41V60.9c0-.07,0-.13,0-.19a.53.53,0,0,0,0-.12.61.61,0,0,0,0,.12.84.84,0,0,1,0,.17C78.38,61.05,78.49,61.08,78.58,61.11ZM98.09,74c-.15.28-.14.3.17.33Zm0,.7,0,.06a.39.39,0,0,0,.18,0s.09-.08.09-.09,0-.24-.21-.17l.12.15ZM80.71,62.11h.08v-.29l0,0c-.07.26-.12,0-.19,0ZM99.47,75.17l.07,0-.19-.35-.13.08ZM62.86,52.11l-.11.13,0,0a.71.71,0,0,0,.14-.1.08.08,0,0,0,0-.07.7.7,0,0,0,0-.14l-.15,0ZM99.35,75.65l.13-.12.09-.06s-.07-.07-.1-.08S99.29,75.51,99.35,75.65ZM80.39,62l.24.35.06,0C80.61,62.2,80.63,62,80.39,62ZM98.81,74.84c0,.08.08.16.12.22s0,0,.07,0,0,0,0,0c-.15-.14.1-.05,0-.16ZM63.06,52.37c-.12-.09-.24,0-.4.17Zm5.12,3.16.35,0-.08-.13a.74.74,0,0,1-.18,0S68.23,55.44,68.18,55.53ZM63,52.76l0,.05c.19.18.19.18.3.08l-.15,0Zm3.31,1.36.05,0,.09-.11.08-.09c-.05,0-.11,0-.14,0S66.35,54.07,66.32,54.12ZM80,61.84l0,0,.25.21,0-.06Zm3.74,2.21V64l-.31-.07V64Zm-15.1-9.27,0,.09.21,0s0-.08,0-.08ZM60.3,52l.05,0,.18-.27,0,0Zm6,1.49s0,.07,0,.08l.16.1a.07.07,0,0,0,.06,0,1,1,0,0,0-.08-.18S66.39,53.49,66.34,53.49ZM100,76a.57.57,0,0,1,.1.13.33.33,0,0,1,0,.15C100.2,76.06,100.17,76,100,76Zm-36.45-22,0,.06.29.14,0,0ZM68.06,55l.06-.06L68,54.84s0,0,0,.06Zm-2.38-2,0,0-.27-.19,0,0ZM63,51.91l0-.29-.17.1ZM78.86,61l.2-.07a.39.39,0,0,1,0-.06l-.17,0A.28.28,0,0,0,78.86,61Z"/><path d="M94.39,52.63H90.72a6,6,0,0,0-2.7.68,4.05,4.05,0,0,1-1.39.49c-.12,0-.24,0-.37,0-.65,0-1.31,0-2,0l-1.92,0-2.79,0-3,0H70l-1.65,0-2.13,0H62.64c-.51,0-1,.05-1.53,0a3,3,0,0,1-.71-.28,5.8,5.8,0,0,0-.82-.21s-.15.06-.18.12a.7.7,0,0,1-1.11.19,1.38,1.38,0,0,1-.46-1c-.08-.74-.16-1.47-.17-2.21s.06-1.78.12-2.66A6.33,6.33,0,0,1,58.14,46a.83.83,0,0,1,.77-.53.54.54,0,0,1,.61.4.43.43,0,0,0,.36.12,6.57,6.57,0,0,0,1-.31,1.54,1.54,0,0,1,.7-.11l1.24,0,1.75.06,2.5,0,2.61.07h.12l3.18,0,2.36.05c.48,0,1,0,1.43,0l3.38,0H81.9c1.59,0,3.18,0,4.76,0a3.26,3.26,0,0,1,1.17.4,9.25,9.25,0,0,0,1.9.71,5.88,5.88,0,0,0,.93.1h3.93l1.51,0a.42.42,0,0,1,.28.12.34.34,0,0,0,.31.13c.83,0,1.65.11,2.48.15a23.1,23.1,0,0,1,4.88.78c1,.25,1.88.57,2.82.86.07,0,.12.13.14.21a1.58,1.58,0,0,1,0,.43,7,7,0,0,1,0,.79s-.08.09-.13.1c-.69.21-1.36.44-2,.61s-1.66.38-2.49.56a17.2,17.2,0,0,1-2.78.37l-1.93.08-1.18.05a.21.21,0,0,0-.15.09.2.2,0,0,1-.23.15H94.39Zm-11-5.34-.08,0v.07l-.12.12c0-.2-.14-.22-.27-.26s-.1.05-.18.08l.23.19c.07-.1.15,0,.23,0l-.1.13.24,0s0,0,0-.08c.19.11.3,0,.32-.19l.14.09.15,0,0,.13a.78.78,0,0,1,0,.09.34.34,0,0,0,.14,0s.07,0,.07,0c-.11-.16,0-.12.1-.13s0,0,0,0l-.41-.21-.18.16-.1.1-.09-.27Zm-1.49,0,0-.13-.42,0,.11-.05.07.19.19,0-.14.13.22.11c0-.08-.18-.13,0-.15a.46.46,0,0,0,0-.09Zm-20.55,0-.15-.17s0,0-.05,0h-.21l0,0,.43.17a.25.25,0,0,0,.09,0c.07-.09.13-.19.19-.28a.18.18,0,0,0-.07-.09.18.18,0,0,0-.1,0s-.06.11,0,.14.1.12,0,.13S61.33,47.28,61.32,47.31Zm7.49.67h-.29l-.08,0,.1,0,.24.05,0-.12.2,0,.1,0L69,47.82a1.52,1.52,0,0,0,0-.21.85.85,0,0,0,0-.22h.06l.32.6.06,0-.06-.12.19-.15-.31-.05v-.06c.17,0,.35.08.38-.2l0,0,0,.22c0-.11.24.12.19-.14l.1,0,.22.37,0,0,0-.15.23.18,0,0-.05-.09,0-.05.22.19.21-.21.1.09.07-.16c0,.21,0,.25.22.23s.09-.06.13-.07l.35-.07c.09,0,.21.15.28,0h0c.2,0,.2,0,.35,0l.05,0c0,.25.09,0,.13,0,.1.21.1.21.26.07s0,0,.05,0,.09,0,.14-.08l.38-.07s.11,0,.12,0,0,.13.12.12h.14l-.12.14.44-.19-.1-.06c.21-.12.37,0,.55.08l-.05-.11,0,0,.17.13,0,0-.17-.21,0-.07s.06,0,.08,0l.42,0L75,47l.23.26c-.3-.08-.33.08-.33.29,0-.07.22,0,.12-.16l.11-.06c.09.22.38-.1.46.16h0l.27,0s.1,0,.11,0c.15-.18.36-.1.55-.15s.22,0,.31-.05v0l-.31.11.15-.24a1.35,1.35,0,0,1-.29,0c-.12-.07-.19.19-.31,0-.19.11-.33.07-.37-.14l-.1.17c0-.09,0-.24-.22-.13l.08.12L75.12,47A.33.33,0,0,0,75,47l-.32.1,0,0a1.34,1.34,0,0,0-.27-.13s-.08.05-.11.09a1.21,1.21,0,0,0-.08.19l0-.22c-.1,0-.22,0-.32.09s0,.08-.08.12l-.06,0,.06-.13s0,0,0-.08c-.18.2-.31,0-.47,0v.2L73,47l0,.06a1.94,1.94,0,0,0,.26.23s.08-.05.13-.07l.11,0c.09-.18.13,0,.22,0a1.56,1.56,0,0,1-.4,0c-.15,0-.2,0-.22.16l-.21-.05c.27-.12.27-.12,0-.46l.06.19h0c-.11-.13-.11-.13-.21,0a.19.19,0,0,1-.1,0c-.12,0-.29-.12-.37-.07s-.39,0-.57,0c0,0-.06,0-.09,0l0,.11c0,.07.06.17-.1.12.11-.05.05-.06,0-.13s-.26-.06-.34-.18h0c0,.19-.14,0-.17.11a.29.29,0,0,0-.34,0s-.12,0-.18-.08-.06-.07-.07-.07l-.65.14-.12,0s0-.09,0-.1-.09-.06-.1-.05a.45.45,0,0,0-.1.14s0,.06.05.09l.1.17-.06,0c0-.14-.21-.18-.16-.35a.55.55,0,0,0-.18,0,1,1,0,0,0-.16.09c0-.21,0-.18-.15-.13s-.19.08-.28.12h0L68.21,47A2,2,0,0,0,68,47c0,.07-.13.16-.14.25s-.13-.05-.15,0l0-.06-.06-.09,0,.07a.76.76,0,0,0,0,.11.19.19,0,0,1-.28-.15c0-.19-.19,0-.21-.12l-.12.11a.58.58,0,0,0-.1.12l-.13-.17c-.07.13-.15.29-.34.17l-.07.16c-.11-.15-.16.13-.27,0,0,.05.11.11.15.1s.08-.09.12-.14a1.46,1.46,0,0,1,.9,0v.1s.09,0,.1,0,.08-.13.18-.09.07,0,.11-.07l.32.06c0,.13-.25.11-.1.26s.12,0,.19,0v-.06l-.16,0v0l.22,0-.13-.17c.26,0,.19.22.23.28l.39-.31v.11c-.08,0-.17,0-.09.15a1,1,0,0,1,0,.18l.24.09S68.78,47.94,68.81,48Zm-5.28-.69-.17,0s0,0,0,.05h.09l-.13.19-.08-.39.22-.11a.21.21,0,0,0-.19,0s0,.09,0,.13l-.15,0,0,.11h-.16c-.06-.2-.19-.07-.29-.07a1.13,1.13,0,0,0-.24.08l-.13.09.2.19-.35-.11.1.18h0l-.2-.18.23-.21c-.28.12-.28.12-.39-.12h.49a.76.76,0,0,0-.41-.1c-.13,0-.21.1-.11.25a.19.19,0,0,1,0,.19c0,.05-.13.05-.2.07l-.08-.11.23,0-.05-.08a5.44,5.44,0,0,0-.57.19c-.09,0-.09.14,0,.22l.09-.07a.3.3,0,0,0,.38,0c.16-.08.23.09.36.11-.26,0-.39,0-.38.11a1,1,0,0,1,.4,0c.12.09.16,0,.22,0,.08.11-.17.14-.07.26-.2.1-.07-.13-.15-.15l-.1,0,.15.4c.22-.3.31,0,.48,0L62.25,48l0,0,.26.3,0-.25.15.14a.79.79,0,0,0-.14.17s0,.06,0,.08h.07c0-.12.06-.12.13-.15l-.08-.1s0,0,0,0h0c.14,0,.13-.19.16-.17.2.13.08-.1.11-.11l.15,0,0,0L63,47.62l.28-.12.12.21.14-.27,0,.17c.17-.08.13.08.19.15a1.14,1.14,0,0,0-.06-.33s-.11,0-.17,0v-.12h.3l0-.09Zm41.41,2a.78.78,0,0,0-.59-.2.18.18,0,0,0-.08.09.08.08,0,0,0,0,.08.11.11,0,0,0,.08,0c.1-.09.26,0,.29,0a.23.23,0,0,0,.29,0c.07.1.07.1.19-.09l-.14-.06ZM78.2,47.2c-.1,0-.2.12-.29.11s-.23.12-.28.26c.1,0,.21-.12.27-.1.22.09.27-.07.35-.19l.32-.07C78.48,47.11,78.27,47.09,78.2,47.2Zm10.86.55A1.06,1.06,0,0,1,89,48s0,0-.06,0,0,0,0,0c.06-.26-.14-.28-.3-.33-.5-.17-1-.32-1.51-.48-.22-.06-.47,0-.51.14a1.18,1.18,0,0,0,0,.42c0,.45,0,.89.09,1.33a1.42,1.42,0,0,0,.21.68.52.52,0,0,0,.45.22c.41,0,.82,0,1.22,0a1.15,1.15,0,0,0,.21-.06c.05,0,.13,0,.18,0s.32-.06.38-.26c0,0,.06,0,.09,0s.13-.07.12-.17l.24,0-.11-.13a1.1,1.1,0,0,0,.17-.14c-.12-.18.07-.32,0-.51s0-.28-.18-.37l.13,0,0-.28c-.2.24-.18,0-.22-.16l-.11.22C89.41,47.84,89.19,47.87,89.06,47.75Zm-9.4-.54.13.23s0,.07,0,.11l.18-.07s0,0,.07-.06.09,0,.13,0,.22-.1.34-.07l-.18.17,0,0a.84.84,0,0,0,.21-.11.79.79,0,0,0,.14-.17l.15.17.06-.06s-.09,0-.09-.06,0-.13-.13-.12a1.59,1.59,0,0,0-.38.06c-.1,0-.19-.12-.29,0a1.62,1.62,0,0,1-.19.17C79.76,47.18,79.76,47.18,79.66,47.21Zm26.43,2.48-.12-.17a.28.28,0,0,1,0-.09l-.07,0h-.11c-.11-.25-.26-.33-.5-.25,0,0-.08.09-.11.15a.24.24,0,0,0,.09.08.23.23,0,0,0,.12-.05c0-.21.13-.1.18-.12v.16c.12,0,.16,0,.14.13s.07,0,.11.06l.21.08.13.1a.52.52,0,0,0,0-.17,1,1,0,0,0-.06-.18h0ZM58.66,47.1h-.08l-.15,2.29h0Zm18.41.36c.16.18.31-.15.47,0v0a.82.82,0,0,0,.16-.22s-.08-.09-.12-.14l-.14.19h0l0-.24c-.28.14-.31.19-.2.37ZM83,47.6v-.06c-.22.07-.26-.13-.37-.22s-.33-.11-.44.11l.21-.08c0,.29.29.19.43.28S83,47.61,83,47.6Zm-19.2-.22s.05.1.08.11l.68.15-.28-.35h-.09c0,.18-.07,0-.11,0H64C64,47.53,63.88,47.36,63.8,47.38Zm42.05,2.48v0l-.43-.28-.11.28Zm-26.3-2.43.13,0s-.06-.09-.1-.12h-.09l-.06-.05s0,.06,0,.08,0,.12-.09.15a.5.5,0,0,0-.12.08c.13,0,.27-.17.35.08l.1,0Zm-18.31.22c0,.14,0,.28,0,.29s-.06.15,0,.21a.8.8,0,0,1,.13-.13.58.58,0,0,1,.14-.05.67.67,0,0,0-.06-.12Zm4.27,1.42v0H64.46v0ZM78.3,47.51l.37,0,0-.19C78.52,47.18,78.46,47.5,78.3,47.51Zm.71.06c0-.08-.08-.13-.1-.18l-.08-.18a.34.34,0,0,0-.09-.08s0,.08,0,.12a.58.58,0,0,1,0,.18C78.81,47.61,78.92,47.59,79,47.57ZM102.34,49c0,.32,0,.33.32.21Zm.36.6v.07a.55.55,0,0,0,.18-.06s0-.11,0-.12-.14-.2-.26-.05l.18.07Zm-21.34-2.2.07,0-.14-.26h-.06c.07.26-.12,0-.15.13Zm22.77,1.93.05-.06-.34-.21-.07.13ZM60.9,47.64a1.22,1.22,0,0,0,0,.17h.05l.07-.15a.11.11,0,0,0,0-.07l-.09-.11-.12.11Zm43.37,2.14c0-.06,0-.12,0-.18a.56.56,0,0,1,.05-.08s-.09,0-.13,0S104.15,49.68,104.27,49.78ZM81,47.43l.38.18,0-.06C81.31,47.5,81.24,47.33,81,47.43Zm22.38,1.91.22.14s0,0,.07,0v-.05c-.2,0,.06-.09,0-.16ZM61.2,47.76c-.15,0-.22.09-.25.35Zm6,.18.31-.16-.13-.07c-.06,0-.09.1-.14.12S67.22,47.84,67.22,47.94Zm-5.86.18v.06c.26.06.26.06.3-.09l-.15,0Zm3.54-.47H65s0-.1,0-.15a.52.52,0,0,1,0-.11s-.1,0-.11.09A1.15,1.15,0,0,0,64.9,47.65Zm15.72-.16v.07l.31,0,0-.08Zm4.34,0,0-.06-.31.09,0,.06Zm-17.71-.48,0,.09.19-.07,0-.08Zm-8.63,1.77h.07l0-.33h-.06Zm6-1.73s0,.07,0,.07h.19l0,0a1.67,1.67,0,0,0-.16-.12S64.64,47.06,64.61,47.09Zm40.33,2.64a.91.91,0,0,1,.16.06l.12.11C105.21,49.71,105.17,49.68,104.94,49.73Zm-42.56-.84V49l.33,0v0Zm4.49-1.32,0-.08-.21,0s0,.06,0,.07Zm-3-.5,0-.07-.33,0v0Zm-2.88.3-.16-.24-.09.18Zm18.26,0,.14-.15-.06,0a.69.69,0,0,0-.13.11S79.18,47.3,79.21,47.34Z"/><path d="M88.47,32.33l-3.18,1.83a6,6,0,0,0-2,1.93,4,4,0,0,1-1,1.13c-.1.07-.22.11-.32.17l-1.7,1c-.55.32-1.12.62-1.67.94-.8.46-1.6.94-2.4,1.41l-2.62,1.53-3.46,2-2.24,1.3c-.48.27-1,.52-1.44.8l-1.83,1.09-3.08,1.79c-.44.26-.86.55-1.32.77a3.1,3.1,0,0,1-.76.11,8.19,8.19,0,0,0-.81.23.26.26,0,0,0-.1.2.7.7,0,0,1-.86.72,1.46,1.46,0,0,1-.91-.65c-.43-.6-.87-1.2-1.25-1.83s-.84-1.57-1.22-2.37a5.7,5.7,0,0,1-.58-1.7.82.82,0,0,1,.41-.85.55.55,0,0,1,.73,0,.38.38,0,0,0,.36-.08,5.63,5.63,0,0,0,.7-.76,1.67,1.67,0,0,1,.55-.44l1.09-.58c.52-.28,1-.54,1.55-.83.73-.4,1.44-.82,2.17-1.23s1.53-.83,2.3-1.24l.11,0,2.78-1.56L68.58,36l1.23-.72,2.94-1.66,1.53-.88c1.38-.79,2.75-1.6,4.16-2.35a3.56,3.56,0,0,1,1.2-.24,9.08,9.08,0,0,0,2-.33,4.65,4.65,0,0,0,.85-.39l3.41-1.94c.43-.25.87-.5,1.32-.73a.45.45,0,0,1,.3,0,.37.37,0,0,0,.34,0c.74-.38,1.49-.74,2.22-1.12a23.24,23.24,0,0,1,4.62-1.75c1-.26,1.92-.46,2.88-.67.06,0,.17.05.22.1a2.11,2.11,0,0,1,.26.35c.13.23.25.47.36.71,0,0,0,.11-.07.15-.48.53-1,1.06-1.47,1.56S95.65,27.18,95,27.75a16.61,16.61,0,0,1-2.22,1.71l-1.64,1-1,.63a.19.19,0,0,0-.07.15.2.2,0,0,1-.13.24l-1.47.85Zm-12.22.88-.09,0,0,.06,0,.16c-.08-.18-.23-.12-.36-.09s-.07.1-.11.16l.29,0c0-.13.11-.09.18-.13l0,.16.23-.09s0-.06,0-.09c.21,0,.27-.11.18-.32h.16l.1-.11a.65.65,0,0,1,0,.13s0,.08,0,.08l.12-.05a.28.28,0,0,0,0-.08c-.18-.08,0-.1,0-.15s0-.08,0-.07l-.45,0-.08.23,0,.14-.21-.19ZM75,34l0-.14-.35.23.07-.1.16.13L75,34l-.06.19.26,0c-.09,0-.23,0-.1-.12s0-.06,0-.09ZM57.17,44.25,57,44.18s-.05,0-.06,0l-.18.1v0l.46-.07s0,0,0-.08,0-.23,0-.34a.13.13,0,0,0-.1,0s-.06.05-.06.07,0,.13,0,.14.14.06,0,.14S57.16,44.22,57.17,44.25ZM64,41.09l-.26.13s0,.05,0,.07h.1L64,41.2l0-.11.16-.12.07-.08-.13,0c0-.07,0-.14-.07-.2s-.1-.12-.15-.18l0,0,.58.36,0-.06-.12-.08.09-.22-.29.11,0-.06c.16-.06.35-.1.23-.36h.06l.1.2c0-.11.26,0,.09-.22l.06-.09.38.22v-.05L65,40.08l.29,0v0L65.19,40l0-.06.28.06a2.46,2.46,0,0,1,.07-.29s.09,0,.14,0l0-.18c.1.19.14.2.3.09s0-.09.08-.13l.26-.23c.07-.07.27,0,.22-.18l0,0c.19,0,.19,0,.27-.21l0,0c.14.2.06-.07.11,0,.2.12.2.12.26-.08,0,0,0,0,0,0s.09,0,.08-.14l.3-.25s.09-.05.11,0,.08.12.16,0l.12-.07,0,.17.28-.38H68.2a.5.5,0,0,1,.52-.19l-.1-.08v0l.21,0,0,0-.24-.1-.08,0s0-.06,0-.07l.38-.19-.13-.12.33.11c-.3.08-.24.23-.14.41,0-.08.2-.1,0-.2l.07-.1c.19.14.28-.28.48-.1l0,0,.23-.15s.1,0,.1,0c0-.24.27-.28.41-.41s.2-.09.24-.2l0,0-.21.25v-.28a1,1,0,0,1-.27.1c-.14,0-.08.26-.25.19-.12.18-.25.22-.4.06V37c-.08-.07-.16-.19-.26,0l.13.07-.35,0a.25.25,0,0,0-.12.08l-.23.25h0c-.1,0-.2,0-.3,0s-.05.09-.05.14a.75.75,0,0,0,0,.2l-.14-.17a2.61,2.61,0,0,0-.23.24s0,.1,0,.14,0,0-.07,0a.71.71,0,0,0,0-.14s0,0,0-.07c-.05.27-.26.17-.42.21l.1.17h-.35v.07a1.86,1.86,0,0,0,.34.07s0-.08.08-.12l.11,0c0-.2.1-.09.21-.08a1.57,1.57,0,0,1-.32.24c-.15,0-.16.12-.11.25l-.21.06c.18-.24.17-.24-.26-.38l.14.14h0c-.15-.05-.15-.05-.21.06s0,0-.08.05-.31,0-.36.12-.35.17-.47.32a.13.13,0,0,1-.09,0l.07.08c.06.06.14.12,0,.16.07-.1,0-.08-.06-.12s-.26.07-.38,0,0,0,0,0-.1.1-.1.18a.29.29,0,0,0-.28.2s-.12,0-.19,0-.08,0-.1,0l-.49.45-.09.08s0-.1,0-.11H64a.37.37,0,0,0,0,.18s.06,0,.09.05l.18.1,0,.06c-.08-.11-.27,0-.31-.22a.59.59,0,0,0-.16.07.44.44,0,0,0-.1.16c-.07-.21-.13-.14-.19,0s-.13.16-.19.25h0a1.58,1.58,0,0,0-.31,0,2.2,2.2,0,0,0-.21.09c0,.09,0,.21,0,.29s-.13,0-.11.11l-.06,0-.09,0a.29.29,0,0,0,0,.09.5.5,0,0,0,0,.12.19.19,0,0,1-.32,0c-.1-.15-.16.1-.24,0s0,.1,0,.16,0,.1,0,.16l-.2-.09c0,.15,0,.32-.21.32a1.11,1.11,0,0,1,0,.17c-.17-.07-.08.19-.22.17.07,0,.15,0,.19,0s0-.12,0-.18a1.36,1.36,0,0,1,.8-.42l0,.09s.07-.07.07-.09,0-.15.11-.17,0-.07.06-.11l.31-.11c.06.11-.16.23,0,.28s.12,0,.18-.07l0,0-.15,0v0l.18-.13-.2-.08c.23-.11.27.1.34.13l.17-.46.08.09c-.07.06-.15.1,0,.18a.57.57,0,0,1,.14.13l.25,0S63.94,41.07,64,41.09Zm-4.92,2-.17,0s0,0,0,.07l.08,0,0,.22-.26-.29.14-.21a.22.22,0,0,0-.17.09s0,.08,0,.12l-.14.05.07.08s-.12.08-.13.07-.21,0-.29.08a1.54,1.54,0,0,0-.17.19l-.06.15.26.06-.35.08.17.11,0,0-.26,0,.09-.31c-.18.25-.18.25-.4.1l.43-.25a.75.75,0,0,0-.4.12c-.12.08-.14.19,0,.27s.12.11.11.16-.08.11-.13.16l-.13-.05.18-.17-.09,0a5.46,5.46,0,0,0-.39.45c-.06.08,0,.17.09.19s0-.11,0-.11a.3.3,0,0,0,.34-.16c.1-.15.25,0,.36-.09-.23.1-.33.22-.27.29s.25-.17.37-.16.15,0,.18-.14c.12.06-.08.21.06.27-.12.18-.12-.08-.2-.06l-.1,0,.33.28c0-.37.27-.16.44-.21l-.43-.2,0,0,.37.13-.1-.24.21,0a.78.78,0,0,0,0,.21s0,.06.06.07l.06,0c-.1-.08,0-.13,0-.19l-.12,0h0v0c.13,0,0-.22,0-.22.25,0,0-.12.05-.15l.14,0v0l-.26-.09.19-.24.21.11,0-.3.11.14c.11-.17.15,0,.24,0a1.09,1.09,0,0,0-.21-.26s-.09.06-.14.1l0-.1.24-.16-.05-.06ZM96,24.19a.78.78,0,0,0-.62.12.23.23,0,0,0,0,.11.12.12,0,0,0,.07.07s.06,0,.06,0a.26.26,0,0,1,.26-.13c.14,0,.2,0,.26-.14.1.05.1.05.12-.17l-.15,0ZM71.73,35.72c-.06.08-.11.2-.2.24s-.14.21-.11.36c.07-.07.12-.21.19-.22.23,0,.19-.2.2-.34l.24-.23C71.93,35.49,71.73,35.58,71.73,35.72Zm9.68-5c0,.1.07.15.09.21a.11.11,0,0,1,0,.06s0,0,0,0c-.08-.25-.26-.17-.42-.13-.52.1-1,.22-1.55.34-.22.05-.41.23-.38.37a1.42,1.42,0,0,0,.17.4c.24.37.48.74.75,1.1a1.44,1.44,0,0,0,.52.49.51.51,0,0,0,.5-.05c.36-.18.7-.4,1-.61.06,0,.09-.09.15-.16a.43.43,0,0,0,.16-.09c.08-.13.24-.22.19-.42,0,0,0-.07.06-.07s.08-.13,0-.21l.23-.08-.16-.06a1.26,1.26,0,0,0,.08-.21c-.19-.09-.1-.31-.21-.46s-.16-.24-.34-.23l.13,0-.19-.22c0,.31-.15.1-.26,0v.25C81.76,30.66,81.59,30.8,81.41,30.76ZM73,35l.23.12.06.09a1.49,1.49,0,0,0,.12-.14.32.32,0,0,0,0-.09c.12.05.09,0,.1-.1s.13-.2.26-.23l-.08.23.06,0a1.37,1.37,0,0,0,.13-.2,1.46,1.46,0,0,0,0-.22l.22.07,0-.08s-.1,0-.11,0-.08-.11-.18,0a1.74,1.74,0,0,0-.29.25c-.07.07-.23,0-.25.14a1.13,1.13,0,0,1-.08.24C73.07,34.92,73.07,34.92,73,35ZM97.13,23.93l-.19-.09a.24.24,0,0,1-.06-.08.2.2,0,0,1,0,.08s-.08.06-.1.05a.35.35,0,0,0-.55,0s0,.12,0,.18.09,0,.12,0a.31.31,0,0,0,.08-.1c-.12-.17.06-.15.09-.19l.08.13c.09-.09.15-.07.19.05a.31.31,0,0,0,.13,0l.22,0,.16,0a.59.59,0,0,0-.07-.16.86.86,0,0,0-.14-.13l0,0ZM54.75,45.4l-.07,0,1,2.06,0,0Zm16.13-8.89c.23.06.19-.29.41-.23v0a1.41,1.41,0,0,0,0-.28s-.12,0-.18-.06l0,.24h0L71,35.93c-.17.26-.17.31,0,.42Zm5.21-2.86,0,0c-.15.18-.29,0-.42,0s-.34.07-.33.31l.14-.17c.17.24.34,0,.51,0S76.05,33.69,76.09,33.65ZM59.35,43.07s.09.06.12,0c.21-.06.41-.12.66-.21l-.41-.15s-.08,0-.08,0c.07.17,0,.05-.09.07s-.06,0-.09,0C59.63,43.08,59.41,43,59.35,43.07ZM97,24.19l0,0-.51,0,0,.29ZM73,35.24l.09-.09a.35.35,0,0,0-.13,0s-.06,0-.09,0l-.07,0s0,.08,0,.09,0,.12,0,.18a.75.75,0,0,0-.06.13c.12-.07.15-.29.34-.11l.07-.09ZM57.27,44.58c.07.12.16.23.14.26s0,.15.07.19,0-.12.05-.17a.27.27,0,0,1,.1-.11l-.11-.08Zm4.4-.9,0,0-.9.52,0,0ZM72,35.93l.33-.15,0-.2C72,35.54,72.1,35.84,72,35.93Zm.65-.31a1.09,1.09,0,0,1-.19-.1l-.15-.11-.12,0,.08.1.13.13C72.47,35.77,72.55,35.69,72.62,35.62Zm20.9-10.45c.18.28.2.28.38,0Zm.61.35.05.05c0-.05.1-.08.13-.14a.21.21,0,0,0,0-.12c-.09,0-.22-.1-.26.09l.2,0ZM74.55,34.28l0-.07-.25-.15,0,0c.18.19-.09.1-.07.19Zm20.69-9.71v-.08h-.4v.15ZM57,44.74c0,.07,0,.12.05.17h.06c0-.06,0-.12,0-.17a.15.15,0,0,0-.06,0l-.14,0,0,.15ZM95.59,24.91a1.49,1.49,0,0,0,0-.18v-.1s-.1,0-.12.05S95.45,24.89,95.59,24.91Zm-21.3,9.6.42,0V34.4C74.58,34.42,74.43,34.31,74.29,34.51ZM94.62,25h.26s0,0,.05-.05,0-.05,0,0c-.2.05,0-.11-.11-.13ZM57.29,44.7c-.14.06-.15.19,0,.43Zm5.3-2.85.19-.3h-.15a.56.56,0,0,1-.06.17S62.54,41.76,62.59,41.85Zm-5,3.08,0,0c.26-.07.26-.07.22-.22l-.11.1A.61.61,0,0,1,57.6,44.93Zm2.83-2.18,0,0a.69.69,0,0,1,0-.13.49.49,0,0,1,0-.11c0,.05-.06.09,0,.13S60.4,42.7,60.43,42.75Zm13.54-8,0,.07.3-.11,0-.08Zm3.78-2.13,0,0-.22.23,0,0ZM62.18,41.06l.06.06.13-.16-.07,0Zm-6.59,5.85,0,0-.14-.3,0,0Zm4.31-4.49.07,0,.17-.09s0,0,0,0a.75.75,0,0,0-.2,0S59.92,42.37,59.9,42.42ZM96.16,24.54a.34.34,0,0,1,.16,0l.16,0C96.38,24.38,96.32,24.38,96.16,24.54ZM58.87,45.09l0,0,.28-.18,0,0ZM62.1,41.7l0-.08-.2.07s0,.06,0,.06Zm-2.88,1.08,0-.06-.3.14,0,0Zm-2.34,1.7-.27-.12,0,.2Zm15.79-9.14,0-.21s-.07,0-.08,0l-.06.16Z"/><path d="M73.18,17.7l-1.83,3.18a5.85,5.85,0,0,0-.77,2.67A3.77,3.77,0,0,1,70.31,25a3.21,3.21,0,0,1-.19.31c-.32.58-.63,1.16-1,1.73s-.66,1.09-1,1.65L66.8,31.11c-.5.88-1,1.76-1.5,2.63-.66,1.15-1.33,2.3-2,3.45-.43.75-.86,1.5-1.3,2.24-.27.48-.57.94-.84,1.41s-.69,1.25-1,1.87c-.58,1-1.18,2.06-1.76,3.09-.26.44-.47.91-.76,1.33-.14.2-.41.3-.6.47a6.69,6.69,0,0,0-.59.6s0,.17,0,.22A.7.7,0,0,1,56,49.48a1.43,1.43,0,0,1-1.11-.11c-.67-.3-1.35-.6-2-1s-1.51-.94-2.24-1.44a5.91,5.91,0,0,1-1.36-1.19.85.85,0,0,1-.07-.94.54.54,0,0,1,.65-.32c.09,0,.25-.15.28-.25a5.87,5.87,0,0,0,.22-1,1.49,1.49,0,0,1,.26-.65c.21-.36.43-.71.65-1.06s.63-1,.93-1.49c.43-.71.84-1.43,1.27-2.15s.91-1.48,1.37-2.22l.06-.1c.55-.91,1.09-1.83,1.63-2.74.41-.67.83-1.34,1.23-2,.25-.4.47-.82.71-1.23l1.72-2.92c.29-.5.58-1,.88-1.53.8-1.37,1.58-2.75,2.42-4.1a3.32,3.32,0,0,1,.93-.81A8.84,8.84,0,0,0,66,19a6.66,6.66,0,0,0,.55-.76l2-3.39c.26-.44.52-.87.79-1.29a.39.39,0,0,1,.24-.18c.15,0,.2-.1.27-.21.46-.69.92-1.38,1.37-2.07a23,23,0,0,1,3.12-3.83c.69-.7,1.43-1.36,2.16-2,0,0,.17,0,.25,0a1.92,1.92,0,0,1,.39.17c.23.13.45.28.67.43,0,0,0,.12,0,.17-.16.7-.31,1.4-.5,2.08s-.5,1.62-.75,2.43a17.89,17.89,0,0,1-1.08,2.59c-.29.58-.59,1.15-.89,1.72-.19.35-.38.69-.55,1.05a.17.17,0,0,0,0,.17.2.2,0,0,1,0,.27c-.29.48-.57,1-.85,1.46ZM63,24.57l-.06.06.05,0,0,.16c-.16-.11-.26,0-.35.1s0,.12,0,.2L63,25c-.06-.11.06-.14.1-.21l.05.15a1.24,1.24,0,0,0,.16-.19s0-.05,0-.07c.19-.11.19-.24,0-.38l.15-.08,0-.14.11.09s.06.06.06.05a.48.48,0,0,0,.09-.11s0-.08,0-.08c-.19,0-.09-.07-.06-.15s0-.07,0-.06l-.38.24a1.48,1.48,0,0,0,0,.24l0,.14L63,24.41Zm-.73,1.31-.09-.11-.18.38V26l.21,0,.05-.18,0,.19.22-.14c-.1,0-.21.09-.15-.06s0,0-.06-.06ZM52,43.68l-.22,0-.07,0-.1.18,0,0,.36-.28s0-.07,0-.1a2.92,2.92,0,0,0-.14-.31.13.13,0,0,0-.11,0,.07.07,0,0,0,0,.09s.06.11.09.11.15,0,.09.11Zm4.33-6.15-.16.24s0,.06,0,.09l.08-.07.16-.18-.09-.08.07-.18a.35.35,0,0,0,0-.11l-.14,0a1,1,0,0,0-.16-.13,1.31,1.31,0,0,0-.21-.08V37l.69,0V37H56.5l0-.24-.2.24-.05,0c.11-.14.25-.27,0-.44l0,0,.18.13c-.08-.09.22-.15,0-.24v-.11h.43v-.05l-.15,0L57,36v0h-.11l0-.06.27-.09c0-.1-.05-.19-.07-.29l.13,0-.11-.15c.18.11.23.11.31-.07s0-.1,0-.15.07-.22.1-.33.24-.11.1-.27l0,0c.14-.14.14-.14.14-.33a.11.11,0,0,1,0-.05c.22.11,0-.09.07-.1.23,0,.23,0,.19-.19a.06.06,0,0,1,0-.06c.06-.06.06-.06,0-.16s.08-.24.13-.36.06-.1.08-.09.13.06.16,0,.05-.09.07-.13l.06.18.06-.48-.11.05c0-.23.17-.33.35-.43h-.12l0,0,.2-.09v0l-.26,0h-.09a.19.19,0,0,1,0-.08l.23-.35-.17-.05.34-.07c-.21.22-.09.32.09.43,0-.08.12-.19-.08-.18v-.13c.25,0,.11-.38.37-.32a.06.06,0,0,0,0,0c0-.08.08-.16.13-.24s.08-.06.07-.08c-.08-.22.09-.37.15-.55s.13-.19.11-.3h-.05l-.06.32-.13-.25a.82.82,0,0,1-.19.22c-.12.08.07.26-.12.29,0,.22-.11.32-.32.25l.11.17c-.11,0-.24-.08-.23.13H59l-.29.21a.31.31,0,0,0-.06.13c0,.11,0,.22-.08.33l0,0a1.75,1.75,0,0,0-.25.16s0,.1,0,.15a.66.66,0,0,0,.12.16l-.21-.08c0,.11-.06.21-.08.32s.05.09.06.13,0,0,0,0l-.08-.13-.07,0c.09.25-.14.27-.26.38l.17.1-.31.17,0,.07a2.13,2.13,0,0,0,.33-.11s0-.1,0-.15l.08-.07c-.1-.17,0-.12.14-.17a1.77,1.77,0,0,1-.15.36c-.1.12-.08.19,0,.28l-.15.15c0-.29,0-.29-.41-.2l.19,0,0,0c-.16,0-.16,0-.15.15s0,.06-.05.08-.25.19-.25.29-.22.32-.25.51a.16.16,0,0,1-.07.07l.11,0c.07,0,.18,0,.06.15,0-.12,0-.07-.11-.06s-.19.18-.33.2v0c.18.07,0,.14,0,.2a.3.3,0,0,0-.14.32s-.11.08-.17.11-.09,0-.09,0c-.07.21-.14.42-.2.63a.84.84,0,0,0,0,.12s-.06-.09-.08-.09a.23.23,0,0,0-.09.06.46.46,0,0,0,.07.16s.07,0,.1,0h.21v.07c-.13-.06-.26.09-.38,0a.38.38,0,0,0-.11.14s0,.1,0,.18c-.15-.14-.17,0-.18.07s0,.2,0,.3h0a2.33,2.33,0,0,0-.26.17.68.68,0,0,0-.13.18c0,.08.06.2.14.25s-.11.08,0,.15H55s0,.06,0,.08a.71.71,0,0,0,.07.09.19.19,0,0,1-.27.17c-.17-.09-.1.16-.21.12l0,.16.06.15-.21,0c.08.13.17.27,0,.38l.1.14c-.19,0,0,.2-.1.26.07,0,.15-.05.16-.09s0-.11-.06-.17a1.37,1.37,0,0,1,.48-.77l.08.06s0-.09,0-.11-.08-.13,0-.2,0-.09,0-.13l.22-.24c.11.06,0,.27.17.21s.09-.09.13-.14l0,0-.1.12,0,0,.09-.21-.22,0c.15-.22.29,0,.36,0l-.08-.5.12,0c0,.08-.08.16.07.16a1.16,1.16,0,0,1,.18,0c.07-.05.13-.12.2-.16A.25.25,0,0,1,56.37,37.53Zm-3.24,4.22a1.49,1.49,0,0,0-.12.14s0,0,0,.06l.05-.08.1.21L52.82,42v-.24a.18.18,0,0,0-.1.16s.06.05.1.08l-.1.12.1,0s-.07.13-.08.12c-.21,0-.16.13-.2.22a1.14,1.14,0,0,0-.06.25l0,.16.26-.08L52.5,43h.2v0l-.26.09-.06-.31c0,.3,0,.31-.31.28l.25-.43A.78.78,0,0,0,52,43c-.05.12,0,.23.16.22a.25.25,0,0,1,.18.08c0,.06,0,.14,0,.21h-.14l.07-.23h-.09c0,.2-.1.39-.12.59s.07.15.18.12,0-.12,0-.12c.16-.05.2-.17.21-.32s.19-.15.27-.25c-.15.21-.18.35-.09.38s.13-.27.24-.31.1-.13.08-.22c.14,0,0,.22.19.2,0,.22-.15,0-.2,0l-.07.08.42.07c-.15-.34.16-.27.28-.4l-.47.05v-.06l.39-.07-.2-.16.2-.07a1.72,1.72,0,0,0,.07.21s.06,0,.08,0,0,0,0-.06-.07-.12-.07-.19l-.12,0h0c.08-.12-.1-.21-.07-.22.21-.11,0-.12,0-.16l.11-.1,0,0-.27.05c0-.1,0-.21,0-.31h.23l-.16-.25.16.06c0-.19.14-.07.22-.09a.91.91,0,0,0-.31-.12.64.64,0,0,0-.07.16l-.09-.06.12-.26-.07,0ZM75.6,6.91a.8.8,0,0,0-.47.41.2.2,0,0,0,0,.11.1.1,0,0,0,.09,0s0,0,0-.06.12-.23.15-.24.15-.14.16-.25.12,0,0-.21l-.12.1ZM60.39,29c0,.11,0,.23-.06.31s0,.26.08.37c0-.1,0-.24.06-.28s.07-.27,0-.4l.1-.32C60.44,28.71,60.32,28.89,60.39,29Zm5.9-9.12.18.13a.08.08,0,0,1,0,.07s0,0,0,0c-.19-.18-.31,0-.43.09-.4.35-.78.71-1.17,1.07-.17.16-.25.41-.14.52A1.36,1.36,0,0,0,65,22c.4.21.79.41,1.2.58a1.38,1.38,0,0,0,.69.17.56.56,0,0,0,.42-.29c.22-.34.4-.7.6-1.06a.93.93,0,0,0,0-.21s.08-.1.09-.16.1-.31,0-.46a.1.1,0,0,1,0-.09c.13-.12,0-.15-.08-.19l.15-.19-.16,0c0-.08,0-.22,0-.22-.21,0-.24-.22-.41-.3s-.26-.12-.41,0l.09-.11-.28-.09c.12.3-.07.17-.24.11l.13.21C66.54,19.61,66.46,19.82,66.29,19.88Zm-5.17,7.87h.26a.19.19,0,0,1,.1.05c0-.06,0-.13,0-.19a.32.32,0,0,0,0-.09c.13,0,.07-.07,0-.13s0-.24.11-.33l.06.24,0,0a.89.89,0,0,0,0-.23.9.9,0,0,0-.08-.21l.22,0,0-.08s-.07.07-.09.06-.13-.06-.17,0a1.58,1.58,0,0,0-.14.36c0,.1-.2.1-.14.25a1.58,1.58,0,0,1,0,.25C61.15,27.64,61.15,27.64,61.12,27.75ZM76.48,6.1h-.21l-.08,0s0,.07,0,.09,0,.09-.07.09c-.26,0-.41.06-.46.31,0,.05,0,.12.08.17s.09,0,.11,0,0-.12,0-.12c-.19-.09,0-.17,0-.22l.14.08c0-.13.09-.14.19-.06s.07,0,.11-.07l.17-.14.15-.06a1.21,1.21,0,0,0-.14-.1.65.65,0,0,0-.19,0V6Zm-26,39.78,0,.06,1.91,1.28,0,0ZM60,30.11c.24-.05,0-.34.24-.4v0a1.92,1.92,0,0,0-.12-.25s-.12,0-.18,0l.1.22h0l-.17-.16c0,.32,0,.36.21.36ZM63.13,25l-.05,0c0,.22-.24.16-.37.2s-.26.23-.13.44l0-.22c.27.12.31-.15.46-.23S63.11,25.09,63.13,25ZM53.34,41.57c.06,0,.11,0,.13,0l.47-.51-.44.07s0,.06,0,.06,0,.08-.05.11a.73.73,0,0,0,0,.09C53.59,41.43,53.36,41.48,53.34,41.57ZM76.51,6.38l0,0L76,6.59l.19.23ZM61.25,28l0-.13a.58.58,0,0,0-.14,0s0,0-.06.07a.11.11,0,0,1-.08,0s0,.07.06.07.09.08.08.16,0,.1,0,.15c.07-.12,0-.33.25-.27v-.12Zm-9,16c.12.07.26.12.26.15s.09.13.15.14a1.16,1.16,0,0,1,0-.18c0-.05,0-.09,0-.14a.66.66,0,0,0-.14,0Zm3.36-3,0,0-.52.91h0ZM60.7,29.07l.21-.3-.14-.14C60.52,28.72,60.77,28.93,60.7,29.07Zm.41-.59H60.9l-.19,0a.28.28,0,0,0-.12,0l.12,0,.17.05C61.05,28.68,61.08,28.58,61.11,28.48ZM74,9c.28.14.3.14.33-.17Zm.7,0,.06,0a.39.39,0,0,0,0-.18s-.08-.09-.09-.08-.24,0-.17.2l.15-.12ZM62.11,26.35v-.08h-.29l0,0c.26.07,0,.13,0,.2ZM75.17,7.59l0-.07-.35.19.08.13ZM52.11,44.2l.13.12,0,0a.71.71,0,0,0-.1-.14h-.07l-.14,0,0,.15ZM75.65,7.72l-.12-.14-.06-.08s-.07.06-.08.1S75.51,7.77,75.65,7.72ZM62,26.68l.35-.25,0-.05C62.2,26.46,62,26.44,62,26.68ZM74.84,8.25l.22-.12s0-.05,0-.07l0,0c-.14.15-.05-.09-.16,0ZM52.37,44c-.09.12,0,.24.17.4Zm3.16-5.12,0-.35-.13.08a.86.86,0,0,1,0,.18S55.44,38.83,55.53,38.88Zm-2.77,5.17.05,0c.18-.2.18-.2.08-.31,0,0,0,.1,0,.15A.57.57,0,0,1,52.76,44.05Zm1.36-3.31,0-.05L54,40.6l-.09-.07s0,.1,0,.13A.48.48,0,0,0,54.12,40.74Zm7.72-13.69,0,.05.21-.25L62,26.8Zm2.21-3.73-.07,0-.07.31H64ZM54.78,38.41l.09,0,0-.2h-.08A1.29,1.29,0,0,0,54.78,38.41ZM52,46.77l0-.05-.27-.19,0,0Zm1.49-6.05h.08a1.4,1.4,0,0,0,.1-.16s0,0,0-.05a1,1,0,0,0-.18.07S53.49,40.67,53.49,40.72ZM76,7.11A.42.42,0,0,1,76.08,7l.15,0C76.06,6.87,76,6.89,76,7.11Zm-22,36.44.06,0,.14-.29,0,0ZM55,39,55,39l-.14.15.06,0A1.85,1.85,0,0,0,55,39Zm-2,2.38,0,0-.19.27h0ZM51.91,44l-.29,0,.1.16ZM61,28.2l-.07-.2s-.06,0-.06,0a1.11,1.11,0,0,0,0,.17S61,28.2,61,28.2Z"/><path d="M52.63,12.67c0,1.23,0,2.45,0,3.67a6,6,0,0,0,.68,2.7,4.1,4.1,0,0,1,.49,1.4c0,.12,0,.24,0,.36,0,.66,0,1.32,0,2s0,1.27,0,1.91c0,.93,0,1.86,0,2.79s0,2,0,3c0,1.33,0,2.66,0,4v2.6c0,.54,0,1.09,0,1.64l0,2.14c0,1.18,0,2.37,0,3.56,0,.51.05,1,0,1.52,0,.25-.2.47-.28.71a5.8,5.8,0,0,0-.21.82.25.25,0,0,0,.12.19.7.7,0,0,1,.19,1.11,1.46,1.46,0,0,1-1,.46c-.74.07-1.47.16-2.21.16s-1.78,0-2.66-.12A6,6,0,0,1,46,48.93a.85.85,0,0,1-.53-.78.54.54,0,0,1,.4-.61.43.43,0,0,0,.12-.36,7,7,0,0,0-.31-1,1.52,1.52,0,0,1-.11-.69c0-.42,0-.83,0-1.25,0-.58.05-1.16.06-1.75,0-.83,0-1.66,0-2.5s0-1.73.07-2.6a.49.49,0,0,0,0-.12c0-1.07,0-2.13,0-3.19,0-.79,0-1.57.05-2.36,0-.47,0-.95,0-1.42,0-1.13,0-2.26,0-3.39,0-.59,0-1.17,0-1.76,0-1.59,0-3.18,0-4.77a3.32,3.32,0,0,1,.4-1.17,9.25,9.25,0,0,0,.71-1.9,5.88,5.88,0,0,0,.1-.93c0-1.31,0-2.62,0-3.92,0-.51,0-1,0-1.51a.38.38,0,0,1,.12-.28.36.36,0,0,0,.13-.32c0-.82.11-1.65.15-2.48A23,23,0,0,1,48.39,3c.25-1,.57-1.89.86-2.83,0-.06.13-.12.21-.14a2.1,2.1,0,0,1,.43,0c.26,0,.53,0,.79,0,0,0,.09.08.1.14.21.68.44,1.36.61,2.05s.38,1.65.56,2.48a17.51,17.51,0,0,1,.37,2.78c0,.65.06,1.29.08,1.94,0,.39,0,.78.05,1.18a.19.19,0,0,0,.09.14.2.2,0,0,1,.15.23c0,.56,0,1.13,0,1.69Zm-5.34,11,0,.08h.07l.12.11c-.2,0-.22.14-.26.27s.05.11.08.18l.19-.23c-.1-.07,0-.15,0-.22l.13.09c0-.09,0-.16,0-.24s0,0-.08,0c.11-.18,0-.3-.19-.32l.09-.14,0-.14.13,0h.09a.32.32,0,0,0,0-.14s0-.07,0-.06c-.16.1-.12,0-.13-.1s0-.06,0-.05l-.21.4.16.19.1.09-.27.09Zm0,1.5-.13-.05,0,.42-.05-.12.19-.07a1.49,1.49,0,0,1,0-.19l.13.15.11-.23c-.08.05-.13.18-.15,0l-.09,0Zm0,20.54a1.29,1.29,0,0,1-.17.16l0,0a1.47,1.47,0,0,0,0,.21l0,0,.17-.43s0-.07,0-.08l-.28-.2s-.07,0-.09.08a.18.18,0,0,0,0,.09.22.22,0,0,0,.14,0c.07,0,.12-.1.13,0ZM48,38.26c0,.09,0,.19,0,.28s0,.05,0,.08a1,1,0,0,0,0-.1c0-.07,0-.14.05-.24l-.12,0c0-.06,0-.13,0-.19l0-.11-.11.1a.78.78,0,0,0-.21,0,1.7,1.7,0,0,0-.22,0V38l.6-.32,0-.06-.12.07-.15-.2-.05.31h-.06c0-.17.08-.36-.2-.39l0,0,.22,0c-.11,0,.12-.24-.14-.19l0-.1.37-.21,0,0-.15,0,.18-.23,0,0-.09,0-.05,0,.19-.21-.21-.22.09-.1L47.53,36c.21,0,.25,0,.23-.21s-.06-.09-.07-.14,0-.23-.07-.34.15-.22,0-.29v0c0-.19,0-.19,0-.35a.08.08,0,0,1,0,0c.25,0,0-.09,0-.12.21-.11.21-.11.07-.26a.07.07,0,0,1,0-.06c0-.08,0-.08-.08-.14s-.05-.25-.07-.38,0-.11,0-.12.13,0,.12-.11,0-.1,0-.14l.14.12L47.51,33l-.06.1a.48.48,0,0,1,.08-.55l-.11,0,0,0,.13-.16,0,0-.21.16-.07.05s0-.05,0-.08,0-.28,0-.42l-.17,0,.26-.22c-.08.29.08.32.29.32-.07-.05,0-.22-.16-.12l-.06-.1c.22-.1-.1-.39.16-.47,0,0,0,0,0,0a2.45,2.45,0,0,1,0-.27s0-.09,0-.1c-.18-.15-.1-.37-.15-.56s0-.22-.05-.31l0,0,.11.3-.24-.15a1.25,1.25,0,0,1,0,.29c-.07.12.19.19,0,.31.11.19.07.33-.14.38l.17.09c-.09,0-.24.05-.13.22l.12-.08c0,.11-.1.22-.14.33a.39.39,0,0,0,0,.15c0,.1.07.21.1.32a0,0,0,0,0,0,0,1.26,1.26,0,0,0-.13.26s.05.09.09.12l.19.08-.22,0a3,3,0,0,0,.09.32s.08,0,.12.08,0,0,0,.07l-.13-.07H47c.2.18,0,.31,0,.47h.2l-.18.3.06,0a2.73,2.73,0,0,0,.23-.25s-.05-.09-.07-.14l0-.1c-.18-.1,0-.13,0-.22a1.49,1.49,0,0,1,0,.39c0,.15,0,.21.16.23l-.05.21c-.12-.28-.12-.28-.46,0l.19,0s0,0,0,0-.13.11,0,.21a.18.18,0,0,1,0,.1c0,.13-.12.29-.07.38s0,.38,0,.56c0,0,0,.06,0,.09l.11,0c.07,0,.17-.06.12.1-.05-.11-.06,0-.13,0s-.06.25-.18.34v0c.19,0,0,.14.11.17a.3.3,0,0,0,0,.35s0,.12-.08.18-.07,0-.07.07c0,.21.09.43.14.64a.69.69,0,0,1,0,.13s-.09-.05-.1,0-.06.08-.05.09a.49.49,0,0,0,.14.11s.06,0,.09,0l.17-.11,0,.07c-.14,0-.18.2-.35.15A.55.55,0,0,0,47,38a.68.68,0,0,0,.09.16c-.21,0-.18,0-.13.15s.08.19.12.28h0a2.49,2.49,0,0,0-.15.28,1.8,1.8,0,0,0,0,.22c.07,0,.16.14.25.14s-.05.13,0,.15l-.06,0-.09.06.07.06.11,0a.2.2,0,0,1-.15.28c-.19,0,0,.19-.12.2a.63.63,0,0,0,.11.12,1.31,1.31,0,0,0,.12.11l-.17.12c.13.07.29.15.17.34l.16.07c-.15.12.13.17,0,.28.05-.05.11-.12.1-.16s-.09-.08-.14-.12a1.46,1.46,0,0,1,0-.9h.1s0-.1,0-.1-.13-.08-.09-.19,0-.07-.07-.11l.06-.31c.13,0,.11.25.26.1s0-.13,0-.19h-.06l0,.15h0l0-.22-.17.13c0-.26.22-.19.28-.23l-.31-.38.11,0c0,.08,0,.18.15.1a.53.53,0,0,1,.18,0,2.5,2.5,0,0,1,.09-.25A.31.31,0,0,1,48,38.26Zm-.69,5.27a1.13,1.13,0,0,0,0,.18s0,0,.05,0v-.08l.19.12-.39.08L47,43.64a.21.21,0,0,0,0,.19s.09,0,.13,0l0,.15.11,0a.53.53,0,0,1,0,.15c-.2.06-.07.19-.07.29a1.44,1.44,0,0,0,.08.25l.09.12.19-.19-.11.34.18-.09v0l-.18.2-.21-.23c.12.28.12.28-.12.39v-.49a.76.76,0,0,0-.1.41c0,.13.1.21.25.11a.21.21,0,0,1,.19,0c.05,0,.05.12.07.19l-.11.08,0-.23-.08.06a5.27,5.27,0,0,0,.19.56c0,.09.14.1.22,0s-.08-.1-.07-.1a.3.3,0,0,0,0-.38c-.08-.16.09-.23.11-.36,0,.26,0,.4.11.38a.93.93,0,0,1,0-.39c.09-.12,0-.16,0-.23.11-.08.14.17.26.08.1.19-.13.06-.15.15a.32.32,0,0,1,0,.09l.4-.14c-.3-.23,0-.32,0-.49l-.38.28,0,0,.3-.26-.25,0,.14-.16a.79.79,0,0,0,.17.14s.06,0,.08,0,0,0,0-.07-.12-.06-.15-.12l-.1.07,0,0h0c0-.14-.19-.13-.17-.16.13-.2-.1-.08-.11-.11l0-.14,0,0-.21.18-.12-.29.21-.12-.27-.14.17,0c-.08-.18.08-.13.15-.19a1.14,1.14,0,0,0-.33,0s0,.11,0,.17h-.12v-.29h-.09Zm2-41.41a.78.78,0,0,0-.2.59.14.14,0,0,0,.09.08.08.08,0,0,0,.08,0,.11.11,0,0,0,0-.08.23.23,0,0,1,0-.28.23.23,0,0,0,0-.29c.1-.07.1-.07-.09-.2l-.06.15ZM47.2,28.86c0,.1.12.2.11.29s.12.23.26.28c0-.1-.12-.21-.1-.27.09-.22-.07-.26-.19-.35l-.07-.32C47.11,28.58,47.09,28.8,47.2,28.86ZM47.75,18,48,18a.08.08,0,0,1,0,.07s0,0,0,0c-.26-.07-.28.14-.33.29-.17.5-.32,1-.48,1.51-.06.22,0,.48.14.52a1.18,1.18,0,0,0,.42.05c.45,0,.89-.05,1.33-.1a1.42,1.42,0,0,0,.68-.21.51.51,0,0,0,.22-.45c0-.4,0-.81,0-1.22a1.08,1.08,0,0,0-.06-.2.41.41,0,0,0,0-.19c-.06-.13-.06-.32-.26-.38,0,0,0-.06,0-.08s-.07-.14-.17-.12l0-.24-.13.1a2.09,2.09,0,0,0-.14-.17c-.18.12-.32-.07-.51-.05s-.28,0-.37.18l0-.13-.28.06c.24.19,0,.17-.16.21l.22.11C47.84,17.65,47.87,17.87,47.75,18Zm-.54,9.4.23-.14h.11c0-.06,0-.12-.07-.18s0,0-.06-.06,0-.1,0-.14-.1-.22-.07-.34l.17.18,0,0a.84.84,0,0,0-.11-.21,1.27,1.27,0,0,0-.17-.14l.17-.15-.06-.06s0,.1-.06.1-.13,0-.12.13a1.67,1.67,0,0,0,.06.38c0,.1-.12.18,0,.28a1.77,1.77,0,0,1,.17.2C47.18,27.3,47.18,27.3,47.21,27.41ZM49.69,1a.91.91,0,0,1-.17.12s-.06,0-.09,0,0,0,0,.08a.34.34,0,0,1,0,.11c-.25.1-.33.25-.25.49,0,.05.09.08.15.11s.07,0,.08-.09a.23.23,0,0,0-.05-.11c-.21,0-.1-.14-.12-.18h.16c0-.13,0-.17.13-.15s0-.07.06-.11L49.71,1c0-.05.07-.08.1-.13l-.17,0a1,1,0,0,0-.18.06V1ZM47.1,48.41v.07l2.29.16v-.06ZM47.46,30c.18-.16-.15-.31,0-.46l0,0a1.07,1.07,0,0,0-.22-.15s-.09.07-.14.11l.19.14v0L47,29.58c.14.29.19.31.37.21Zm.14-5.93h-.06c.07.22-.13.27-.22.37s-.11.33.11.44l-.08-.2c.29,0,.19-.29.28-.44S47.61,24.11,47.6,24.06Zm-.22,19.21s.1-.06.11-.09c0-.2.09-.41.15-.67l-.35.28a.25.25,0,0,0,0,.08c.18,0,0,.07,0,.11a.41.41,0,0,0,0,.11C47.53,43,47.36,43.18,47.38,43.27ZM49.86,1.21h0l-.28.42.28.12ZM47.43,27.52l0-.13-.12.09s0,.07,0,.09,0,0-.05.06.06,0,.08,0,.12,0,.15.1a.83.83,0,0,0,.08.12c0-.14-.17-.28.08-.35l0-.11Zm.22,18.3c.14,0,.28,0,.29,0s.15.07.21,0a.53.53,0,0,1-.13-.13A.69.69,0,0,1,48,45.6l-.12,0Zm1.42-4.26h0v1h0ZM47.51,28.77l0-.37-.19-.06C47.18,28.55,47.5,28.6,47.51,28.77Zm.06-.72-.18.11a1.42,1.42,0,0,0-.18.08.2.2,0,0,0-.08.08l.12,0a1.16,1.16,0,0,1,.18,0C47.61,28.25,47.59,28.14,47.57,28.05ZM49,4.72c.32,0,.33,0,.21-.32Zm.6-.36h.07a.55.55,0,0,0-.06-.18s-.11,0-.12,0-.2.13-.05.26l.07-.18ZM47.37,25.7l0-.07-.26.15v0c.26-.06,0,.13.13.16ZM49.3,2.93l-.06,0L49,3.22l.13.08ZM47.64,46.16l.17,0v-.06l-.15-.06s-.05,0-.07,0l-.11.1.11.11ZM49.78,2.8l-.18-.06-.08-.05c0,.05,0,.1,0,.13S49.68,2.91,49.78,2.8ZM47.43,26l.18-.38-.06,0C47.5,25.75,47.33,25.82,47.43,26ZM49.34,3.66l.14-.21s0-.05,0-.07h-.05c0,.2-.09-.06-.16,0Zm-1.58,42.2c0,.15.09.23.35.26Zm.18-6-.16-.32-.07.14s.1.08.12.13S47.84,39.85,47.94,39.85Zm.18,5.86h.06c.06-.27.06-.27-.09-.31,0,.05,0,.1,0,.16S48.12,45.66,48.12,45.71Zm-.47-3.55V42.1l-.15,0-.11,0s0,.1.09.11A.37.37,0,0,0,47.65,42.16Zm-.16-15.72.07,0,0-.32h-.08Zm0-4.34-.06,0,.09.3.06,0Zm-.48,17.71.09,0-.07-.2s-.08,0-.08,0Zm1.77,8.63v-.06l-.33,0v0Zm-1.73-6,.07,0a1.28,1.28,0,0,0,0-.19s0,0,0,0a1,1,0,0,0-.12.16S47.06,42.42,47.09,42.46ZM49.73,2.12A.91.91,0,0,1,49.79,2l.11-.12C49.71,1.85,49.68,1.9,49.73,2.12Zm-.84,42.57H49l0-.33h0ZM47.57,40.2l-.08,0,0,.2h.07A1.21,1.21,0,0,0,47.57,40.2Zm-.5,3-.07,0,0,.33h0Zm.3,2.87-.24.16.18.09Zm0-18.25-.15-.14,0,.05a.76.76,0,0,0,.11.14Z"/><path d="M32.33,18.6c.61,1.06,1.22,2.11,1.83,3.18a6,6,0,0,0,1.93,2,3.85,3.85,0,0,1,1.13,1,3.07,3.07,0,0,1,.17.31c.34.57.68,1.13,1,1.7s.62,1.12.94,1.67c.46.81.94,1.61,1.41,2.41l1.53,2.61,2,3.46,1.3,2.24c.27.48.52,1,.8,1.44.36.62.73,1.22,1.09,1.84.6,1,1.19,2,1.79,3.08.26.44.55.86.77,1.31a3.1,3.1,0,0,1,.11.76,7.49,7.49,0,0,0,.23.81.23.23,0,0,0,.2.1.71.71,0,0,1,.72.87,1.46,1.46,0,0,1-.65.9,21.92,21.92,0,0,1-1.83,1.25c-.77.45-1.57.84-2.37,1.23a6,6,0,0,1-1.7.57.83.83,0,0,1-.85-.4.55.55,0,0,1,0-.73.4.4,0,0,0-.08-.37,5,5,0,0,0-.76-.69,1.67,1.67,0,0,1-.44-.55l-.58-1.1c-.28-.51-.54-1-.83-1.54-.4-.73-.82-1.45-1.23-2.18s-.83-1.53-1.24-2.29a1.17,1.17,0,0,0,0-.11l-1.56-2.78L36,38.48c-.23-.41-.48-.81-.72-1.22l-1.66-2.95-.88-1.53C32,31.4,31.15,30,30.4,28.63a3.67,3.67,0,0,1-.24-1.21,9.08,9.08,0,0,0-.33-2,4.65,4.65,0,0,0-.39-.85c-.64-1.14-1.29-2.27-1.94-3.4-.25-.44-.5-.88-.73-1.33a.45.45,0,0,1,0-.3.37.37,0,0,0,0-.34c-.38-.74-.74-1.48-1.12-2.22a23,23,0,0,1-1.75-4.62c-.26-.95-.46-1.91-.67-2.87,0-.07.05-.17.1-.23A2.11,2.11,0,0,1,23.61,9c.23-.13.47-.25.71-.36,0,0,.11,0,.15.07.53.49,1.06,1,1.56,1.47s1.15,1.24,1.72,1.87a16.08,16.08,0,0,1,1.71,2.23c.35.54.7,1.08,1,1.63l.63,1s.11.09.15.08a.2.2,0,0,1,.24.12c.28.5.57,1,.85,1.47Zm.88,12.22,0,.08.06,0,.16,0c-.18.08-.12.23-.09.36s.1.07.16.12l0-.29c-.13,0-.09-.12-.13-.19l.16,0c0-.09-.06-.16-.09-.23h-.09c0-.22-.11-.28-.32-.19v-.16l-.11-.1.13,0,.08,0a.5.5,0,0,0-.05-.13s-.08,0-.08,0c-.08.17-.1,0-.15,0s-.08,0-.07,0l0,.45.23.09.14,0-.19.21ZM34,32.1l-.14,0,.23.35L34,32.4l.13-.16L34,32.1l.19.06,0-.25c0,.08,0,.22-.12.1s-.06,0-.09,0ZM44.25,49.9l-.07.21s0,0,0,.07a1.62,1.62,0,0,0,.1.18h0l-.07-.45a.24.24,0,0,0-.08-.06l-.34,0a.13.13,0,0,0,0,.1s.05.06.07.06S44,50,44,50s.06-.15.14,0S44.22,49.91,44.25,49.9Zm-3.16-6.82c0,.08.08.17.13.25s.05,0,.07.05a.31.31,0,0,0,0-.1c0-.07-.05-.14-.08-.24l-.11,0L41,42.93a.3.3,0,0,0-.08-.08l0,.14a.68.68,0,0,0-.2.07l-.18.14,0,0,.36-.58-.06,0-.08.13-.22-.1.11.29-.06,0c-.06-.16-.1-.35-.36-.23V42.6l.2-.1c-.11,0,0-.26-.22-.08L40,42.35l.22-.37-.05,0-.11.11,0-.29h0l-.06.09H40l.06-.28-.29-.08s0-.09,0-.13h-.18c.19-.1.2-.14.09-.3s-.09,0-.13-.08-.15-.17-.23-.26,0-.26-.18-.22c0,0,0,0,0,0,0-.2,0-.2-.21-.28l0,0c.2-.14-.07-.07,0-.12s.12-.19-.08-.26a0,0,0,0,1,0,0c0-.08,0-.08-.14-.08s-.17-.19-.25-.3-.05-.09,0-.11.12-.08,0-.16a.75.75,0,0,1-.07-.12l.17,0L38,38.74v.12a.5.5,0,0,1-.19-.52l-.08.1h0l0-.21,0,0a2.6,2.6,0,0,1-.1.25l0,.08s-.06,0-.07-.06-.13-.25-.19-.37l-.12.12.11-.32c.08.29.23.24.41.13-.08,0-.1-.2-.2,0l-.1-.06c.14-.2-.28-.28-.1-.49l0,0-.15-.24s0-.09,0-.1c-.24,0-.28-.26-.41-.4s-.09-.2-.2-.25l0,0,.25.21h-.28a.94.94,0,0,1,.1.28c0,.14.26.07.19.25.18.11.22.25.06.4H37c-.07.09-.19.17,0,.26l.07-.13c0,.12,0,.24,0,.35a.35.35,0,0,0,.08.13l.25.22s0,0,0,0a2.64,2.64,0,0,0,0,.29s.09,0,.14,0a.75.75,0,0,0,.2,0l-.17.14a1.73,1.73,0,0,0,.24.23s.1,0,.14,0,0,0,0,.07h-.14l-.07,0c.27.05.17.26.21.42l.17-.09V40h.07a2.17,2.17,0,0,0,.07-.35s-.08,0-.12-.08a.89.89,0,0,1,0-.11c-.2,0-.09-.1-.08-.2a1.53,1.53,0,0,1,.24.31c0,.15.12.17.25.12l.06.21c-.24-.18-.24-.18-.38.25l.14-.14s0,0,0,0c-.05.16-.05.15.06.21s0,0,.05.08,0,.32.12.37.17.34.32.47,0,.06,0,.09l.08-.08c.06,0,.12-.14.16,0-.1-.07-.08,0-.12.06s.07.26,0,.39,0,0,0,0,.1.11.18.1a.29.29,0,0,0,.2.28s0,.13,0,.2,0,.08,0,.09l.45.49.08.1H39.9s0,.11,0,.11a.37.37,0,0,0,.18,0s0-.06.05-.09a1.62,1.62,0,0,1,.1-.18l.06,0c-.11.08,0,.27-.22.31a.87.87,0,0,0,.07.17s.08,0,.16.1c-.21.06-.14.12,0,.19s.16.12.25.18h0a1.61,1.61,0,0,0,0,.31c0,.07.07.14.09.2s.21,0,.29,0,0,.14.11.11l0,.07,0,.09H41l.12,0a.19.19,0,0,1,0,.32c-.15.11.1.17,0,.24l.16.05.16,0-.09.19c.15,0,.32,0,.32.21l.17,0c-.07.18.19.08.17.22,0-.07,0-.15,0-.18s-.12,0-.18,0a1.33,1.33,0,0,1-.42-.79l.09,0s-.07-.07-.09-.07-.15,0-.17-.11-.07,0-.11-.06l-.11-.31c.11-.06.23.17.28,0,0,0,0-.12-.07-.18l0,0,0,.15,0,0L41.09,44l-.08.2c-.11-.24.1-.28.13-.34l-.46-.18.09-.07c.06.06.1.14.18,0a.53.53,0,0,1,.13-.13,2.38,2.38,0,0,1,0-.26S41.07,43.12,41.09,43.08Zm2,4.91c0,.06,0,.12,0,.17h.07l0-.09.22,0-.29.26-.21-.13a.22.22,0,0,0,.09.17s.08,0,.12,0l.05.15.08-.08s.08.13.07.14,0,.2.08.28a1.62,1.62,0,0,0,.19.18l.15.06.06-.27.08.36L44,49h0l0,.27-.31-.1c.25.18.25.18.1.4l-.25-.42a.81.81,0,0,0,.12.4c.08.11.19.13.27,0s.11-.12.16-.11.11.09.16.13l-.05.13L44,49.5l0,.09a5.6,5.6,0,0,0,.45.4c.08.06.17,0,.19-.1l-.11,0a.3.3,0,0,0-.16-.34c-.15-.09,0-.24-.09-.36.1.24.22.33.29.27s-.17-.25-.16-.36,0-.16-.14-.18c.06-.13.21.07.27-.07.18.12-.08.12-.06.2s0,0,0,.1l.28-.33c-.37,0-.16-.27-.21-.44l-.2.43,0,0,.13-.38-.24.1c0-.08,0-.14,0-.2l.21,0s.06,0,.07-.06,0,0,0-.07-.13,0-.19,0l0,.12s0,0,0,0h0c0-.13-.22,0-.22-.05,0-.24-.12,0-.15,0l0-.15h0l-.09.26-.24-.19.11-.2h-.3l.14-.11c-.17-.11,0-.15,0-.24a.92.92,0,0,0-.26.22s.06.09.1.13l-.1.06L43,47.73l-.06.05ZM24.19,11.11a.76.76,0,0,0,.12.61.23.23,0,0,0,.11,0s.06,0,.07-.06a.1.1,0,0,0,0-.07c-.13,0-.14-.22-.13-.26s0-.19-.14-.25c.05-.11.05-.11-.17-.13l0,.16ZM35.72,35.33c.08.07.2.11.24.2s.21.14.36.12c-.07-.08-.21-.13-.22-.19,0-.24-.2-.2-.34-.21L35.53,35C35.49,35.14,35.58,35.33,35.72,35.33Zm-5-9.68a1.19,1.19,0,0,1,.21-.08s.05,0,.06,0,0,0,0,.06c-.25.07-.17.26-.13.42.1.51.22,1,.34,1.54.05.23.23.42.37.38a1.18,1.18,0,0,0,.4-.17c.37-.24.74-.48,1.1-.75a1.37,1.37,0,0,0,.49-.52.52.52,0,0,0-.05-.5c-.18-.36-.4-.7-.61-1a.79.79,0,0,0-.16-.15s0-.12-.09-.15-.22-.25-.42-.2c0,0-.07,0-.07-.06s-.13-.08-.21,0l-.08-.22-.06.15a1,1,0,0,0-.21-.07c-.09.18-.31.09-.46.2s-.24.16-.23.34l0-.13-.22.2c.31,0,.1.14,0,.26h.25C30.66,25.31,30.8,25.48,30.76,25.65ZM35,34.07l.12-.23s.06,0,.09-.06l-.14-.13a.15.15,0,0,0-.09,0c.05-.12,0-.09-.1-.1s-.2-.14-.23-.26l.23.07,0-.06a1.32,1.32,0,0,0-.2-.12.78.78,0,0,0-.22,0l.07-.21-.08,0s0,.1,0,.12-.11.07,0,.17a2.34,2.34,0,0,0,.25.3c.07.07,0,.22.14.24a.78.78,0,0,1,.24.09C34.92,34,34.92,34,35,34.07ZM23.93,9.94c0,.08-.06.14-.09.19l-.08,0a.2.2,0,0,1,.08,0s.06.08.05.1a.35.35,0,0,0,0,.55s.12,0,.18,0,0-.08,0-.11-.09-.09-.1-.08c-.17.11-.15-.07-.19-.1l.13-.08c-.09-.09-.07-.14.05-.19s0-.08,0-.13A1.46,1.46,0,0,1,24,10a1,1,0,0,1,0-.16,1.26,1.26,0,0,0-.16.07,1.66,1.66,0,0,0-.13.14l0,0ZM45.4,52.31l0,.07,2.06-1,0,0ZM36.51,36.18c.06-.23-.29-.19-.23-.41h0a.9.9,0,0,0-.28,0s0,.11-.06.17l.24,0v0l-.23.07c.26.18.31.17.42,0ZM33.65,31l0,0c.18.15,0,.29,0,.43s.07.33.31.33l-.17-.14c.24-.17,0-.35,0-.52S33.69,31,33.65,31Zm9.42,16.74c0-.06.06-.1,0-.13-.06-.2-.12-.41-.21-.66-.06.17-.11.29-.15.42s0,.07,0,.07c.17-.07.05.06.07.1s0,.06,0,.09C43.08,47.43,43,47.65,43.07,47.72ZM24.19,10.05l0,0,0,.51.29-.05Zm11.05,24L35.15,34a.34.34,0,0,0,0,.14s0,0,0,.08a.24.24,0,0,1,0,.08h.09c.06-.13.12,0,.18,0a.75.75,0,0,0,.13.06c-.07-.11-.29-.15-.11-.34l-.09-.07Zm9.34,15.74c.12-.07.23-.16.26-.14s.15,0,.19-.07a.48.48,0,0,1-.17,0,.33.33,0,0,1-.11-.09.44.44,0,0,0-.08.11C44.65,49.61,44.63,49.67,44.58,49.79Zm-.9-4.4,0,0,.52.9h0Zm-7.75-10.3-.15-.33-.2.05C35.54,35.07,35.84,35,35.93,35.09Zm-.31-.64a1.45,1.45,0,0,1-.1.18l-.11.15a.53.53,0,0,0,0,.12l.1-.08a.74.74,0,0,1,.13-.12C35.77,34.6,35.69,34.52,35.62,34.45ZM25.17,13.54c.28-.18.28-.19,0-.38Zm.35-.61.05,0c-.05-.05-.08-.11-.14-.13s-.12,0-.12,0-.1.21.09.25l0-.19Zm8.76,19.58-.07,0-.15.25,0,.06c.19-.19.1.08.19.07ZM24.57,11.82h-.08v.39h.15ZM44.74,50.1l.17-.06v0a.47.47,0,0,0-.17,0s0,0,0,.05l0,.14.15,0ZM24.91,11.47l-.18,0h-.1s0,.1.05.12S24.89,11.62,24.91,11.47Zm9.6,21.31,0-.43H34.4C34.42,32.49,34.31,32.63,34.51,32.78ZM25,12.44c0-.1,0-.18,0-.26l-.05,0s-.05,0,0,0c.05.19-.11,0-.13.11ZM44.7,49.77c.06.14.19.16.43,0Zm-2.85-5.29-.3-.2v.16a.58.58,0,0,1,.17.05S41.76,44.53,41.85,44.48Zm3.08,5,0,0c-.07-.26-.07-.26-.22-.22a.63.63,0,0,1,.1.12A.54.54,0,0,1,44.93,49.46Zm-2.18-2.83,0-.05-.13.06-.11,0c.05,0,.09,0,.13,0S42.7,46.66,42.75,46.63Zm-8-13.53.07,0-.11-.3-.08,0Zm-2.13-3.79,0,.06.23.21,0,0Zm8.44,15.58.06-.06L41,44.69l0,.07A.86.86,0,0,0,41.06,44.89Zm5.85,6.59,0-.06-.3.15,0,0Zm-4.49-4.32,0-.07-.09-.17h0a.64.64,0,0,0,0,.2S42.37,47.14,42.42,47.16ZM24.54,10.91a.38.38,0,0,1,0-.17.8.8,0,0,1,0-.15C24.38,10.69,24.38,10.74,24.54,10.91ZM45.09,48.2l0,0L45,47.88l0,0ZM41.7,45l-.08,0,.07.2.06,0A1.8,1.8,0,0,0,41.7,45Zm1.08,2.89h-.06l.14.3h0Zm1.7,2.34-.12.26h.2Zm-9.14-15.8-.21,0s0,.07,0,.07a.76.76,0,0,0,.16.06S35.31,34.44,35.34,34.39Z"/><path d="M17.7,33.88l3.18,1.84a6,6,0,0,0,2.67.76,4,4,0,0,1,1.45.27,3.21,3.21,0,0,1,.31.19c.58.32,1.16.64,1.73,1l1.65,1c.8.47,1.61.92,2.42,1.38l2.63,1.5,3.45,2c.75.44,1.5.86,2.24,1.3.48.28.94.57,1.41.84s1.25.7,1.87,1.05l3.09,1.77c.44.25.91.47,1.33.75.2.14.3.41.47.6a5.57,5.57,0,0,0,.6.59.22.22,0,0,0,.22,0,.71.71,0,0,1,1.06.39,1.43,1.43,0,0,1-.11,1.11c-.3.67-.6,1.35-1,2s-.94,1.51-1.44,2.25a5.66,5.66,0,0,1-1.19,1.35.85.85,0,0,1-.94.08.55.55,0,0,1-.32-.66c0-.09-.15-.24-.25-.28a5.87,5.87,0,0,0-1-.22,1.6,1.6,0,0,1-.65-.25l-1.06-.66c-.49-.31-1-.63-1.49-.93-.71-.43-1.43-.84-2.15-1.27l-2.22-1.36-.1-.07-2.74-1.63c-.67-.41-1.34-.83-2-1.23-.4-.24-.82-.47-1.23-.7l-2.92-1.72L25.15,46c-1.37-.8-2.75-1.58-4.1-2.42a3.18,3.18,0,0,1-.81-.93A8.84,8.84,0,0,0,19,41a6.56,6.56,0,0,0-.76-.54l-3.39-2q-.66-.37-1.29-.78a.41.41,0,0,1-.18-.25.36.36,0,0,0-.21-.27c-.69-.45-1.38-.92-2.07-1.36a23.06,23.06,0,0,1-3.83-3.13c-.7-.69-1.36-1.43-2-2.15,0-.05,0-.18,0-.25a1.78,1.78,0,0,1,.17-.4c.13-.23.28-.45.43-.67,0,0,.12,0,.17,0,.7.16,1.4.3,2.08.49s1.62.5,2.43.76a16.8,16.8,0,0,1,2.59,1.07c.58.29,1.15.6,1.72.9l1.05.55A.2.2,0,0,0,16,33a.2.2,0,0,1,.27,0c.48.29,1,.56,1.46.85ZM24.57,44l.06.07,0-.06.16-.05c-.11.16,0,.26.1.36s.12,0,.2,0l-.1-.27c-.11,0-.14-.06-.21-.1l.15-.06-.19-.16-.07,0c-.11-.19-.24-.18-.38,0l-.08-.14-.14,0,.09-.1s.06-.07.05-.07l-.11-.08h-.08c0,.2-.07.09-.15.06s-.07,0-.06,0l.24.38.24,0,.14,0-.06.27Zm1.31.73-.11.09.38.19L26,45l0-.2-.18-.06.19,0-.14-.21c0,.1.09.2-.06.15s0,0-.06.06ZM43.68,55c0,.08,0,.15,0,.23s0,0,0,.06l.18.1,0,0L43.68,55a.34.34,0,0,0-.1,0,1.77,1.77,0,0,0-.31.15s0,.08,0,.1.07,0,.09,0,.11-.07.11-.09,0-.16.11-.1S43.65,55.05,43.68,55ZM37.53,50.7l.24.15s.06,0,.09,0a.27.27,0,0,0-.07-.08l-.18-.17-.08.09-.18-.07-.11,0,0,.14a1,1,0,0,0-.13.16,1.43,1.43,0,0,0-.08.22l-.05,0,0-.68H37v.15l-.24,0,.24.19,0,0c-.14-.1-.27-.25-.44,0l0-.06.13-.18c-.09.09-.15-.22-.24,0l-.11,0v-.43h-.05l0,.15L36,50.06l0,0v.11H36l-.09-.27-.29.08,0-.13-.15.11c.11-.19.11-.23-.07-.31s-.1,0-.15,0l-.33-.11c-.09,0-.11-.24-.27-.1l0,0c-.14-.14-.14-.14-.33-.13h-.05c.11-.23-.09,0-.1-.08,0-.23,0-.23-.19-.18,0,0,0,0-.06,0s-.06-.06-.16,0l-.36-.14s-.1-.06-.09-.08.06-.12,0-.16L33,48.58l.18-.06-.48-.05.05.1c-.23,0-.33-.16-.43-.35v.13h0l-.09-.2h0l0,.26a.22.22,0,0,1,0,.08s-.06,0-.08,0l-.35-.23-.05.17-.07-.34c.22.22.32.1.43-.09-.08,0-.19-.12-.18.08h-.13c0-.24-.38-.1-.32-.37h0l-.24-.12s-.06-.08-.08-.08c-.22.09-.37-.09-.55-.15s-.19-.12-.3-.11v0l.32.06-.25.13c.08.07.17.11.22.19s.26-.06.29.13c.22,0,.32.1.25.31l.17-.1c0,.1-.08.23.13.23V48.1l.21.28a.24.24,0,0,0,.13.07l.33.07s0,0,0,0a1.07,1.07,0,0,0,.16.25s.1,0,.15,0a.93.93,0,0,0,.16-.11l-.08.2a1.87,1.87,0,0,0,.32.08s.09,0,.13-.06l0,0-.13.08s0,0,0,.07c.25-.08.27.14.38.27l.1-.17.17.3.07,0a1.93,1.93,0,0,0-.11-.34s-.1,0-.15,0L33.17,49c-.17.11-.12-.05-.17-.14a1.34,1.34,0,0,1,.36.16c.12.1.19.08.28,0l.15.15c-.29,0-.29,0-.2.41l0-.19,0,0c0,.17,0,.16.15.15s.06,0,.08.06.19.25.29.25.32.21.51.25c0,0,0,0,.07.06s0-.07,0-.1,0-.18.15-.06c-.12,0-.07,0-.06.11s.18.18.2.32h0c.07-.18.14.05.2,0a.31.31,0,0,0,.32.14s.08.1.11.16,0,.09,0,.1l.63.2.12,0s-.09,0-.09.07a.23.23,0,0,0,.06.09.33.33,0,0,0,.16-.07s0-.07,0-.1v-.21h.07c-.06.13.09.26,0,.39a.5.5,0,0,0,.14.1.48.48,0,0,0,.18,0c-.14.16,0,.18.07.18l.3,0h0a2.46,2.46,0,0,0,.17.27,2,2,0,0,0,.18.13c.08,0,.2-.07.25-.15s.08.11.15,0V52s0,.06,0,.1l.08,0a.34.34,0,0,0,.09-.08.2.2,0,0,1,.17.27c-.09.17.16.1.12.21l.16,0,.15-.06,0,.21c.13-.08.27-.17.38,0l.14-.1c0,.19.2,0,.26.1,0-.06-.05-.14-.09-.16s-.11,0-.17.06a1.41,1.41,0,0,1-.77-.47l.06-.09s-.09,0-.11,0-.13.07-.2,0-.09,0-.13,0l-.24-.22c.06-.1.27,0,.21-.17,0,0-.09-.08-.14-.12l0,0,.12.1,0,0L38,51.48l0,.21c-.22-.15,0-.28,0-.36l-.5.08,0-.11c.08,0,.16.08.16-.08a1.16,1.16,0,0,1,0-.18c-.05-.07-.12-.13-.16-.2A.22.22,0,0,1,37.53,50.7Zm4.22,3.24.14.12L42,54,41.87,54l.21-.1-.13.38-.24,0a.19.19,0,0,0,.16.11s.05-.07.08-.1l.12.1,0-.11s.13.07.12.09c0,.2.13.16.22.2a1.11,1.11,0,0,0,.25,0l.16,0-.08-.25.24.27v-.21h0l.09.26-.31.07c.3,0,.31,0,.28.3l-.43-.25A.78.78,0,0,0,43,55c.12.06.23,0,.22-.16s0-.16.08-.17.14,0,.21,0v.14l-.23-.07v.1c.2,0,.39.09.59.11s.15-.07.12-.18l-.12,0a.31.31,0,0,0-.32-.22c-.17,0-.15-.19-.25-.26.21.15.35.17.38.09s-.27-.14-.31-.24-.13-.11-.22-.09c0-.14.22,0,.2-.19.22,0,0,.15,0,.2l.08.07.07-.42c-.34.15-.27-.15-.4-.28l.05.48h-.06l-.07-.39-.16.2c0-.07-.05-.13-.07-.19l.21-.08s0-.05,0-.08,0,0-.06,0-.12.07-.19.07l0,.13v0h0c-.12-.09-.21.09-.22.07-.11-.22-.12,0-.16,0l-.1-.11h0l.05.27-.31,0v-.24l-.25.16.06-.16c-.19,0-.07-.13-.09-.22a1,1,0,0,0-.12.32l.16.06-.06.1-.26-.13,0,.07ZM6.91,31.46a.74.74,0,0,0,.41.47.14.14,0,0,0,.11,0,.08.08,0,0,0,0-.08s0-.05-.06,0-.23-.13-.24-.16-.14-.15-.25-.16,0-.11-.21,0l.1.12ZM29,46.68a.75.75,0,0,1,.31,0c.17.12.26,0,.37-.08-.1,0-.24,0-.28-.06s-.27-.07-.4,0l-.32-.1C28.71,46.62,28.89,46.75,29,46.68Zm-9.12-5.91A.92.92,0,0,1,20,40.6s0,0,.07,0,0,0,0,0c-.18.19,0,.32.09.44.35.39.71.78,1.07,1.16.16.17.41.25.52.15A1.24,1.24,0,0,0,22,42a13.25,13.25,0,0,0,.58-1.2,1.33,1.33,0,0,0,.17-.69.56.56,0,0,0-.29-.41c-.34-.22-.7-.41-1.06-.61a.93.93,0,0,0-.21-.05s-.1-.08-.16-.08-.31-.11-.46,0-.07,0-.09,0-.15,0-.19.09L20.13,39l0,.17-.22,0c0,.21-.22.25-.3.42s-.12.25,0,.41l-.11-.1-.09.28c.3-.11.17.07.11.24l.21-.13C19.61,40.52,19.82,40.6,19.88,40.77Zm7.87,5.17c0-.09,0-.17,0-.26a.24.24,0,0,1,.05-.1l-.19,0s-.06,0-.09,0-.07-.06-.13,0-.24,0-.33-.11l.24-.05,0-.06a1.77,1.77,0,0,0-.23,0,.9.9,0,0,0-.21.08l0-.22-.08,0s.07.08.06.1-.06.12,0,.17a1.55,1.55,0,0,0,.36.13c.1,0,.1.2.25.14a1.58,1.58,0,0,1,.25,0C27.64,45.91,27.64,45.91,27.75,45.94ZM6.1,30.58c0,.1,0,.15,0,.21a.12.12,0,0,1,0,.08s.07,0,.09,0,.09,0,.09.06c0,.27.06.42.31.46.05,0,.12,0,.17-.07a.14.14,0,0,0,0-.11s-.12,0-.12,0c-.09.18-.17,0-.22,0l.08-.13c-.13,0-.14-.1-.06-.19s0-.08-.07-.11l-.14-.18-.06-.14a.5.5,0,0,0-.1.14.53.53,0,0,0,0,.18l0,0Zm39.78,26,.06,0,1.28-1.9,0,0ZM30.11,47c-.05-.23-.34,0-.4-.24h0a1.12,1.12,0,0,0-.25.11s0,.12,0,.18l.22-.1v0l-.16.18c.32,0,.36,0,.36-.22ZM25,43.94l0,0c.22.05.16.24.2.38s.23.25.44.12l-.22,0c.12-.27-.15-.31-.23-.46S25.09,44,25,43.94Zm16.53,9.79c0-.06,0-.12,0-.14L41,53.12a3.13,3.13,0,0,0,.07.44s.06,0,.06,0,.08,0,.11,0l.09.05C41.43,53.48,41.48,53.7,41.57,53.73ZM6.38,30.55l0,0,.23.46.23-.19ZM28,45.81l-.13,0a.8.8,0,0,0,0,.15s0,0,.07,0a.11.11,0,0,1,0,.08L28,46c0-.15.08-.1.16-.09a.76.76,0,0,0,.15,0c-.12-.07-.33,0-.27-.24l-.12,0Zm16,9c.07-.12.12-.26.15-.25s.13-.1.14-.16l-.18,0a.7.7,0,0,1-.14,0,.53.53,0,0,0,0,.13A2.42,2.42,0,0,0,43.91,54.77Zm-3-3.36,0,0,.91.52v0Zm-11.86-5-.3-.21-.14.14C28.72,46.54,28.93,46.3,29.07,46.36Zm-.59-.4a1.46,1.46,0,0,1,0,.21c0,.06,0,.12,0,.19a.21.21,0,0,0,0,.11s0-.07,0-.12,0-.12.05-.17S28.58,46,28.48,46ZM9,33.08c.14-.29.14-.31-.17-.34Zm0-.7,0-.07a1.16,1.16,0,0,0-.18,0s-.09.08-.08.09,0,.25.2.18l-.12-.16ZM26.35,45h-.08v.3l0,0c.07-.25.13,0,.2,0ZM7.59,31.89l-.07,0,.19.34.13-.07ZM44.2,55l.12-.13,0,0a.71.71,0,0,0-.14.1.17.17,0,0,0,0,.07l0,.14.15,0ZM7.72,31.41l-.14.13-.08.05s.06.08.1.08S7.77,31.56,7.72,31.41Zm19,13.66-.25-.35-.05,0C26.46,44.86,26.44,45,26.68,45.07ZM8.25,32.23,8.13,32l-.07,0s0,0,0,0c.15.14-.09,0,0,.16ZM44,54.7c.12.08.24,0,.4-.18Zm-5.12-3.17-.35,0,.08.13a.86.86,0,0,1,.18,0S38.83,51.62,38.88,51.53Zm5.17,2.77,0,0c-.2-.19-.2-.19-.31-.08l.15,0A1.48,1.48,0,0,1,44.05,54.3ZM40.74,53l-.05,0L40.6,53l-.07.08s.1,0,.13,0A.44.44,0,0,0,40.74,53ZM27.05,45.22l.05,0L26.85,45,26.8,45ZM23.32,43l0,.07.31.07v-.06Zm15.09,9.27,0-.08-.2,0s0,.08,0,.08Zm8.36,2.79-.05,0-.19.27,0,0Zm-6.05-1.5s0-.07,0-.08l-.16-.1s0,0-.05,0a1.46,1.46,0,0,0,.07.19A.42.42,0,0,0,40.72,53.57ZM7.11,31.12A1,1,0,0,1,7,31s0-.1,0-.15C6.87,31,6.89,31.05,7.11,31.12Zm36.44,22,0-.05-.29-.15,0,0ZM39,52l0,.06.15.15,0-.06Zm2.38,2,0,.05.27.19v0ZM44,55.16l0,.29.16-.11ZM28.2,46.05l-.2.07s0,.07,0,.07l.17,0S28.2,46.11,28.2,46.05Z"/></g></g></svg>