<svg xmlns="http://www.w3.org/2000/svg" viewBox="0 0 94.69 90.49"><defs><style>.cls-1{fill:none;stroke:#000;stroke-miterlimit:10;stroke-width:1.84px;}</style></defs><title>Recurso 18MODERN ICON</title><g id="Capa_2" data-name="Capa 2"><g id="Capa_1-2" data-name="Capa 1"><line class="cls-1" x1="11.96" x2="11.96" y2="23.92"/><line class="cls-1" x1="23.92" y1="11.96" y2="11.96"/><line class="cls-1" x1="47.35" x2="47.35" y2="23.92"/><line class="cls-1" x1="59.3" y1="11.96" x2="35.39" y2="11.96"/><line class="cls-1" x1="82.73" x2="82.73" y2="23.92"/><line class="cls-1" x1="94.69" y1="11.96" x2="70.78" y2="11.96"/><line class="cls-1" x1="11.96" y1="33.29" x2="11.96" y2="57.2"/><line class="cls-1" x1="23.92" y1="45.24" y2="45.24"/><line class="cls-1" x1="47.35" y1="33.29" x2="47.35" y2="57.2"/><line class="cls-1" x1="59.3" y1="45.24" x2="35.39" y2="45.24"/><line class="cls-1" x1="82.73" y1="33.29" x2="82.73" y2="57.2"/><line class="cls-1" x1="94.69" y1="45.24" x2="70.78" y2="45.24"/><line class="cls-1" x1="11.96" y1="66.57" x2="11.96" y2="90.49"/><line class="cls-1" x1="23.92" y1="78.53" y2="78.53"/><line class="cls-1" x1="47.35" y1="66.57" x2="47.35" y2="90.49"/><line class="cls-1" x1="59.3" y1="78.53" x2="35.39" y2="78.53"/><line class="cls-1" x1="82.73" y1="66.57" x2="82.73" y2="90.49"/><line class="cls-1" x1="94.69" y1="78.53" x2="70.78" y2="78.53"/></g></g></svg>