<svg xmlns="http://www.w3.org/2000/svg" viewBox="0 0 147.31 73.69"><title>Recurso 30ART</title><g id="Capa_2" data-name="Capa 2"><g id="Capa_1-2" data-name="Capa 1"><path d="M123.68,34.1v1.22c-.93.11-1.83,0-2.73.07-.38.43-.15.93-.17,1.4a3,3,0,0,0,.13,1.5h8.5c.36.51.14,1,.2,1.48,0,0,.09.11.14.15a.31.31,0,0,0,.18.07H137a2.8,2.8,0,0,1,.16,1.49c0,.42,0,.84,0,1.34l1.2.21c0,.33.07.67.1,1,.12.05.24.16.35.16h4c.06,0,.11.08.2.16v1.37c-.47.29-1,.11-1.44.15s-.84,0-1.34,0L140,47.11l-1.45.08a2.58,2.58,0,0,0,0,1.63h7.25c.41.36.11.74.34,1.17l1,.19a3.07,3.07,0,0,1,.11,1.41c-.12.07-.23.18-.35.19h-2.51c0,.43-.08.76-.12,1.09-.05,0-.09.12-.15.15a.65.65,0,0,1-.2,0H130.06a.74.74,0,0,0-.21,0c-.06,0-.11.09-.23.19v2.55c-.13.11-.17.18-.23.2a.74.74,0,0,1-.21,0H121c-.42.43-.16.94-.2,1.4s0,1,0,1.4a3.54,3.54,0,0,1-1.52.15c-.49,0-1,0-1.47,0h-2.7c-.46.49,0,1.13-.34,1.62l-1,.11c-.3.31-.08.68-.16,1-.1.08-.21.21-.33.21h-4.12c-.33.54-.06,1-.2,1.45.5.5,1.14,0,1.66.38v1c-.44.32-.94.09-1.41.16-.52.43,0,1.06-.28,1.53-.32.31-.69,0-1,.17-.51-.48,0-1.12-.33-1.59-.05,0-.11-.11-.16-.11-1.4,0-2.8,0-4.16,0-.09.08-.17.13-.18.18-.06.48,0,1,0,1.49h1.48c.36.37.14.74.21,1.06-.11.07-.22.2-.33.2-1.39,0-2.79,0-4.25,0l-.07-1.08A1.08,1.08,0,0,0,99,66.64l-.12,1s-.1.15-.15.15c-.84,0-1.68,0-2.51,0-.37.26-.22.64-.23,1,0,.62,0,1.24,0,1.82-.53.29-1,.13-1.57.16l-.19-1.13c-.08,0-.13-.12-.19-.12-.84,0-1.67,0-2.48,0-.37.47-.14,1-.19,1.44s.12,1-.14,1.45l-1,.1c-.31.32-.08.69-.17,1a2.38,2.38,0,0,1-1.63.09l-.08-1.09-1.19-.18-.06-1.43a1.29,1.29,0,0,0-.39-.15c-.77,0-1.55,0-2.32,0-.5.44,0,1.07-.25,1.52-.1.08-.15.16-.2.16H79.72c-.48-.47,0-1.1-.35-1.63h-1c-.29.91,0,1.9-.16,2.86H75.47c-.31-.33-.08-.7-.21-1.14-.88-.26-1.86,0-2.85-.15l-.09-1.49a2.65,2.65,0,0,0-1.63,0v1.41a2.14,2.14,0,0,1-.44.18c-.77,0-1.54,0-2.31,0-.5-.44,0-1.08-.3-1.56a.61.61,0,0,0-.16-.12.74.74,0,0,0-.21,0H59l-.19-1.21h-1c-.3.28-.08.66-.16,1a2.19,2.19,0,0,1-1.53.13c-.29-.31-.07-.68-.19-1.1l-1.11-.19A2.78,2.78,0,0,1,54.72,68c.11,0,.23-.16.35-.16h7.58c.26,0,.55.12.83-.16v-1a1.55,1.55,0,0,0-.39-.14h-4c-.5-.45,0-1.08-.3-1.57a.82.82,0,0,0-.17-.11.74.74,0,0,0-.21,0H51.83l-.2-1.25H35.52c-.37-.51-.15-1-.21-1.48a1,1,0,0,0-.14-.15.31.31,0,0,0-.18-.07H29.45c0-.41,0-.74-.05-1.07,0,0-.1-.14-.15-.15l-3.77-.05c-.06,0-.11-.07-.23-.14l-.08-1.37c-.44-.34-.94-.1-1.48-.18a3.07,3.07,0,0,1-.16-.51,3.91,3.91,0,0,1,0-.57c-.09-.08-.14-.17-.19-.17H16.47a7.25,7.25,0,0,0-.1,2c0,.69,0,1.38,0,2.12l1.13.1a2.56,2.56,0,0,1,0,1.6h-2.7c-.31-.46-.1-1-.16-1.49-.17,0-.35-.11-.54-.15s-.4,0-.67-.06V59.2c-.52-.53-1.16,0-1.68-.41V54.88c.43-.31.94-.08,1.4-.15a.66.66,0,0,0,.15-.14.3.3,0,0,0,.08-.17V50.3c.13-.11.17-.18.23-.19a3,3,0,0,1,.42,0h5.09a4.33,4.33,0,0,0,.15-1.82c0-.7,0-1.41,0-2.11v-1.9l1.09-.1c.35-.43.13-.93.16-1.4s0-1,0-1.5H22c.37-.37.15-.74.25-1.15l1.19-.22V38.57c.53-.52,1.16,0,1.66-.39l.12-1c0-.05.1-.14.15-.14h2.53s.13.08.14.13c.05.33.09.66.13,1,.33.27.68.09,1.1.14l.2-1.19c.9-.18,1.8,0,2.69-.11.41-.46-.07-1.09.35-1.64H35.1c.36-.37.13-.74.22-1.06,0-.05.1-.14.15-.14l5.69-.1c0-.53.05-1,.08-1.47.11-.06.23-.17.35-.17H47.9c.26,0,.55.09.82-.12l.11-1a1.6,1.6,0,0,1,.37-.15c.77,0,1.54,0,2.32,0,.51-.44,0-1.08.29-1.56.06,0,.11-.12.16-.12h2.5c.48.48,0,1.11.35,1.64h1c.32-.44.08-.94.15-1.41.1-.07.21-.22.31-.22q9.38,0,18.74,0a.45.45,0,0,1,.18.07c.31.44,0,.95.2,1.44.06,0,.17.16.28.16H91.24c0,.42.07.75.1,1.09,0,0,.09.11.15.14a.44.44,0,0,0,.2,0h11.15c.06,0,.11.07.24.17v1.32c.19.08.31.18.43.18ZM87.09,66.57H72.49a1.07,1.07,0,0,0,.05,1.18c7.8.15,13.48.08,14.55-.18v-1h4s.11-.06.2-.12a2.55,2.55,0,0,0-.07-1.52h-4A6.43,6.43,0,0,0,87.09,66.57ZM53,58.94a6.7,6.7,0,0,0,.09,1.61,2.55,2.55,0,0,0,1.55-.06V59a6.55,6.55,0,0,0-1.64-.1c-.05-.4.14-.83-.2-1.27H50.23c-.42-.55.07-1.18-.35-1.64l-1-.09-.19-1.12c-.56-.21-1.07.07-1.52-.22-.26-.92.17-1.91-.2-2.79-.42-.1-.79.12-1.15-.25V48.91c-.56-.22-1.17.16-1.67-.27V44.26c0-.49,0-1,0-1.47a3.62,3.62,0,0,0-.1-1.43,1.91,1.91,0,0,0-1.15.1c-.07.47.12,1-.18,1.48H40.26c-.1,0-.21.14-.32.22-.07.32.15.7-.18,1l-1.34.07c-.4.52.1,1.16-.34,1.61l-1,.07-.23,1.21c-.55.07-1-.13-1.48.15-.28.49.24,1.12-.31,1.55-.33.07-.7-.15-1,.16L34,50c-.52.22-1.14-.19-1.59.24-.1.48.09,1-.14,1.42l-1.15.22c0,.5,0,.92,0,1.34s-.16,1,.18,1.48h3.93L35.41,56h7.3c.41.58-.09,1.21.39,1.68h3.55a.74.74,0,0,1,.21,0,.48.48,0,0,1,.16.13l.22,1.13Zm28.2,3h9.69a1.21,1.21,0,0,0,.37-.14l.13-1.11h4.17c.12,0,.23-.11.35-.17L96,59l2.74-.1s.1-.1.15-.15c.09-.32-.13-.69.22-1.06.76,0,1.59,0,2.42,0,.11,0,.21-.14.32-.22.07-.47-.17-1,.15-1.41l1-.12.2-1.24h2.71c.34-.56-.17-1.19.34-1.63.47-.06,1,.15,1.42-.15l.12-1,1.16-.18.08-1.51c.56-.25,1.18.19,1.63-.28.09-.33-.14-.7.17-1l1-.11a3.08,3.08,0,0,0,.13-1.44,15.69,15.69,0,0,0,0-1.68c0-.47.18-1-.2-1.48h-3.9l-.21-1.24h-4.07a.74.74,0,0,1-.21,0,.76.76,0,0,1-.2-.16c-.22-.45.24-1.08-.26-1.52H97.61a.72.72,0,0,0-.21,0c-.06,0-.1.09-.22.22v5.57L96,47.25c-.1,1,0,1.87-.09,2.8l-1.47.11c-.06,0-.1.1-.16.15,0,.84,0,1.68,0,2.52,0,.05-.08.1-.15.17l-1,.1c-.39.5.09,1.13-.33,1.6l-1.41.08L91.2,56c-.41.13-.78-.1-1.08.17-.29.49.22,1.12-.3,1.56-.77,0-1.55,0-2.32,0a1,1,0,0,0-.36.15l-.12,1a24.22,24.22,0,0,1-5.83-.07c.09-.32-.13-.67.19-1.07.77,0,1.6,0,2.43,0,.11,0,.22-.13.33-.2.07-.47-.14-1,.14-1.4.35-.23.86.16,1.11-.32.13-.31-.15-.7.19-1l1.51-.09c0-.53,0-1,0-1.49s-.22-1,.18-1.39c.33-.1.7.13,1.08-.22V46.21a.31.31,0,0,1,.07-.18c0-.05.1-.09.15-.14.47-.07,1,.16,1.41-.15V43c-.54-.2-1.15.18-1.61-.23-.08-.9.05-1.8-.08-2.77-.55,0-1,0-1.5,0s-1-.23-1.39.2c0,1.19,0,2.38,0,3.57a1.26,1.26,0,0,1-.14.38l-1.07.12c-.19.5.18,1.11-.21,1.58l-1.52.08c0,.54,0,1,0,1.49s.22,1-.18,1.39c-.33.1-.7-.12-1,.15l-.2,1.12c-.57.08-1.07-.16-1.52.17l-.08,1.37c-.11.08-.16.15-.22.15H76.94c-.12,0-.23-.12-.42-.22V50.2L75.22,50c.21-.38-.1-.77.24-1.06l1.06-.13c.19-.5-.18-1.11.22-1.57l1.47-.08c0-1,.06-1.85.1-2.74,0-.06.09-.1.14-.15.33-.09.7.13,1.07-.22,0-1.18,0-2.44,0-3.69,0-.11-.15-.21-.25-.35-.3.15-.68-.14-1,.2l-.11,1c-.51.37-1.15-.13-1.56.29-.18.5.1,1-.19,1.45l-1.11.22c-.1.41.12.78-.19,1.08H64.87L64.69,43l-1-.08c-.36-.55.14-1.19-.25-1.54-.56-.23-1.06.08-1.5-.24-.24-.34.17-.85-.36-1.15-.27.14-.66-.14-1,.24,0,1.77,0,3.59,0,5.41,0,.06.06.11.11.19l1.14.19c0,.5,0,.92,0,1.34s-.13,1,.11,1.41c.5.3,1.13-.21,1.57.31,0,.42,0,.84,0,1.26s.17,1-.14,1.42H60.72c-.07-.1-.14-.16-.14-.21,0-.77,0-1.55,0-2.32,0-.11-.11-.23-.17-.34L59,48.8c-.36-.56.15-1.2-.35-1.65-.42,0-.84,0-1.26,0s-1,.15-1.48-.17c0-1.22,0-2.48,0-3.73,0-.1-.15-.2-.17-.23-.38-.19-.76.1-1-.25l-.08-1.42a2.42,2.42,0,0,0-1.64.08v3.81a2.94,2.94,0,0,1,0,.42c0,.05-.08.1-.13.15L51.73,46c0,.86,0,1.63,0,2.4,0,.12.1.24.15.36l1,.12c.06.08.13.13.13.19,0,1.19,0,2.38,0,3.58,0,.11.12.23.22.42h1.32c.35.55-.15,1.19.34,1.63.33.08.7-.15,1,.16l.12,1c.94.19,1.93-.13,2.84.18l.09,1.52,5.68.09s.1.1.15.15c.09.32-.13.69.21,1.06.77,0,1.6,0,2.43,0,.11,0,.21.14.32.22-.07.47.16,1-.15,1.41l-1.11.13c0,.49,0,1,0,1.44s-.2,1,.2,1.42H81c.06,0,.11-.08.24-.18Zm13,1.64c-.49.11-.86-.09-1.15.18-.06.39-.24.79.14,1.13.32-.07.68.13,1-.17Z"/><path d="M137.2,0V1.51a1.09,1.09,0,0,0,.24.17.72.72,0,0,0,.21,0h8.17c.34.38.24.77.07,1.24h-2.6c-.37.51-.14,1-.21,1.51a2.16,2.16,0,0,1-1.54.14c-.27-.47-.08-1-.15-1.43-.12-.07-.23-.19-.34-.19H125.89a2.14,2.14,0,0,0-.44.11l-.08,1.39c-.12.06-.24.17-.36.17H73.87c-.06,0-.11.08-.19.14l-.11,1a1.21,1.21,0,0,1-.37.14H59.1c-.5.44,0,1.08-.3,1.56a.61.61,0,0,1-.16.12.74.74,0,0,1-.21,0h-6.6l-.2,1.24H46.06c-.42.51-.07,1-.35,1.63.08-.09,0,0,0,0a.45.45,0,0,1-.18.07H41.41c-.34.37-.12.74-.22,1.07,0,.05-.1.14-.15.14l-5.45.06c-.06,0-.11.06-.23.13l-.08,1.38c-.44.34-1,.1-1.41.16s-1-.12-1.45.14l-.1,1a1.37,1.37,0,0,1-.38.14H28.37c-.5.45,0,1.08-.36,1.64-.83.12-1.73,0-2.71.08l-.19,1.21h-4.3c-.13.12-.22.17-.22.22,0,.42,0,.84,0,1.34-.9.38-1.9-.05-2.92.24,0,.31,0,.64-.05,1-.05,0-.1.14-.15.14-1.25,0-2.51,0-3.77.06,0,0-.11.06-.23.14l-.07,1.37c-.45.34-1,.13-1.42.16s-1,0-1.43,0l-.12,1.11a1.11,1.11,0,0,1-.38.14c-.77,0-1.54,0-2.3,0-.5.46,0,1.09-.36,1.64l-1.45.08-.17,1.16-1,.12c-.3.45-.09,1-.15,1.42-.44.5-1.07,0-1.65.31,0,.31,0,.64-.06,1-.11.06-.22.17-.34.17-.77,0-1.54,0-2.32,0,0,0-.11-.07-.21-.14v-1c.43-.36,1,0,1.48-.26,0,0,.14-.11.14-.22,0-.83,0-1.66,0-2.42.38-.35.75-.12,1.07-.22.48-.45,0-1.08.34-1.63l1.37-.08c.32-.28.1-.66.17-1,.27-.47.78-.08,1.13-.31.28-.43.08-.93.14-1.4.44-.5,1.08,0,1.64-.35l.07-1,1.19-.18.07-1.43c.14-.06.26-.16.38-.16.77,0,1.54,0,2.4,0l.22-1.15c.45-.24.94-.05,1.41-.14.47-.44,0-1.08.33-1.6l1-.1c.31-.29.09-.66.16-1,.11-.08.21-.22.31-.22.83,0,1.67,0,2.46,0,.32-.52.12-1,.19-1.49.44-.48,1.08,0,1.63-.34,0-.28.05-.61.08-.94.11-.06.23-.17.35-.17.77,0,1.54,0,2.31,0,0,0,.11-.07.22-.15L22.29,9c.15-.06.27-.16.39-.16h2.39l.24-1.22h2.58c.54-.52,0-1.16.43-1.7h5.49c.39-.36.17-.74.24-1.06.1-.08.21-.22.31-.22,1.82,0,3.63,0,5.41,0,.31-.52.11-1,.18-1.49.12-.07.23-.19.34-.19H51.67c0-.42.07-.76.1-1.09a.66.66,0,0,1,.15-.14.42.42,0,0,1,.2,0H64.53c.06,0,.11-.07.25-.18V.55c0-.29,0-.56.42-.55s1.12,0,1.69,0Zm-96,7.58H34.48a1.37,1.37,0,0,0-.38.14l-.11,1a4.12,4.12,0,0,1-.59.07H28.56c-.11,0-.23.1-.37.16l-.07,1.38a4,4,0,0,1-1.48.14c-.47.06-1-.19-1.4.17l-.09,1.09c-.88,0-1.71,0-2.54,0-.11,0-.22.12-.29.16-.18.49.11,1-.19,1.44-1.37.1-1.37.1-1.43.16-.24.46.06.84-.28,1.13l-1,.12a2.69,2.69,0,0,0-.09,1.43c0,.06.1.1.18.18H22c.06,0,.11-.07.17-.11.31-.48-.19-1.11.3-1.57H25c.05,0,.1-.08.15-.13l.21-1.12H29c.12,0,.23-.1.38-.16l.06-1.38c.52-.26,1-.08,1.48-.14s1,.19,1.4-.17l.1-1.09c.87,0,1.7,0,2.53,0,.11,0,.22-.12.34-.19.08-.46-.11-1,.18-1.48h5.4c.11,0,.22-.14.33-.21V7.58h4.36s.11-.07.2-.13a2.51,2.51,0,0,0-.09-1.55H41.93c-.26,0-.55-.07-.72.23Z"/><path d="M42.93,28.09V26.68c.46-.3,1-.11,1.43-.15s.84,0,1.34,0c.07-.37.14-.75.22-1.14,0,0,.1-.12.16-.12H89.81s.1.08.19.16v2.7a4.74,4.74,0,0,1-.6.08C69.21,28.35,45.43,28.29,42.93,28.09Z"/></g></g></svg>