<svg xmlns="http://www.w3.org/2000/svg" viewBox="0 0 74.02 120.56"><title>Recurso 46ART</title><g id="Capa_2" data-name="Capa 2"><g id="Capa_1-2" data-name="Capa 1"><path d="M71.11,33.35h1.37l.12.12v1.34c.1.07.19,0,.28,0h.86c.09,0,.18,0,.27,0v1.43l0,0H72.65s0,0,0,0a.06.06,0,0,0,0,0V37.7l0,0,0,0H71.15c-.07.1,0,.2,0,.3a2.62,2.62,0,0,0,0,.28v.9H66.84l0,0v1.33c0,.06-.12,0-.18,0H65.34s0,0,0,.05,0,0,0,0v1.36l0,0H63.94l0,0v1.34s0,0,0,0H61l0,0v1.32l-.1.11,0,0h-.08c-.4,0-.81,0-1.21,0h0c-.07.08,0,.18,0,.26a2.61,2.61,0,0,0,0,.28v.87H56.64l0,0v1.41c-.05.06-.12,0-.18,0H55.22l0,0v2.74l-.12.11H53.73c-.07,0,0,.12,0,.18v2.69l0,0H52.32l0,0a0,0,0,0,0,0,0v1.3l0,0H50.82a8.19,8.19,0,0,0,0,1.41h4.34s0,0,0,0V55.22l0,0h1.33l0,0,0,0s0,0,0,0V53.81l.12-.12H58c.07,0,0-.12,0-.18,0-.4,0-.81,0-1.2l.05,0H61l0,0a0,0,0,0,0,0,0V50.84s0,0,0-.05h1.34l0,0V49.42l0-.05h1.41s0,0,0,0a.22.22,0,0,0,0-.08V47.92l0,0h1.33l0,0c0-.08,0-.17,0-.26V46.51l0,0h2.82l0,0V45.1l.09-.1,0,0h2.75l0,0v0c0,.46,0,.92,0,1.38l0,0h1.43c.07.11,0,.22,0,.32s0,.21,0,.31v1.65c0,.1,0,.21,0,.31a.7.7,0,0,0,0,.32H74l0,0v1.41s0,0,0,0H72.66l0,0,0,0s0,0,0,0v1.26s0,0,0,0,0,0,0,0H71.16l0,0v1.42l0,0H69.74c-.06,0,0,.12,0,.18v1.19s0,0,0,0H68.25l0,0a.06.06,0,0,0,0,0v1.37s0,0,0,.05H66.84a.38.38,0,0,0,0,.27,2.62,2.62,0,0,0,0,.28v.59c0,.08,0,.18,0,.27H65.34s0,0,0,.05,0,0,0,.08v1.33l0,0H63.91s0,0,0,0V61l0,0H62.45l-.05,0v1.42l0,0H61c-.07.05,0,.12,0,.18v1.2l-.05,0h-1.4l0,0a0,0,0,0,0,0,0v1.38l0,0H58.12c-.07.1,0,.19,0,.28a2.44,2.44,0,0,0,0,.27v.32a2.43,2.43,0,0,1,0,.27.46.46,0,0,1,0,.28H55.22s0,0,0,0v1.33l-.12.12H52.28v1.37s0,0,0,0H50.82a6.41,6.41,0,0,0,0,1.39l0,0s0,0,0,0h1.29l.12.12v1.35l.1,0h2.7l.08,0s0,0,0,0V71.15l0,0h1.33l.05,0V69.73a9.24,9.24,0,0,1,1.49,0v1.35l-.09.09,0,0a.22.22,0,0,1-.08,0H56.63l0,0a0,0,0,0,0,0,0v2.79s0,0,0,0H55.22l0,0v1.33c0,.07-.12,0-.18,0H53.73s0,0,0,0V77s0,0,0,0H52.33l0,0v1.34l0,0s0,0,0,0H50.83l0,0v2.83l0,0H49.41l0,0s0,0,0,0v1.31l-.11.12H47.92l0,0v1.33c-.05.07-.12,0-.18,0H45l0,0s0,0,0,0v1.37l0,0H42.12l0,0v1.34s0,0,0,0H39.21l0,0v1.42s0,0,0,0H37.79s0,0,0,0a0,0,0,0,0,0,0V91.4l-.12.12H36.31s0,0,0,0a.06.06,0,0,0,0,0v1.3c.05.06.12,0,.18,0h1.28s0,0,0,0c0,.94,0,1.88,0,2.82l0,0H33.41l0,0v1.42l0,0H30.5l0,0v1.34l-.05,0s-.05,0-.08,0H24.69l0,0a.06.06,0,0,0,0,0v1.37l0,0,0,0H23.27a7.22,7.22,0,0,0,0,1.41h1.35l0,0v2.82c0,.07-.12,0-.18,0h-1.2l0,0v1.33l-.11.11H20.37l0,0v-1.42l0,0H18.88s0,0,0,0a0,0,0,0,1,0,0v-1.3l0,0,0,0H17.46s0,0,0,0V98.79s0,0,0,0h1.35s0,0,0,0v1.34a7.12,7.12,0,0,0,1.47,0s0,0,0,0V97.37s0,0,0,0H11.67l-.05,0V95.88l0,0H8.76l0,0V94.46l0,0a.22.22,0,0,0-.08,0H7.34l-.12-.12V93s0,0,0,0H4.36s0,0,0,0a.21.21,0,0,1,0-.08V87.17c0-.07.12,0,.18,0H5.77l0,0V81.36s0,0,0,0H8.62l.08,0V82.7l-.08.09,0,0H7.26l0,0s0,0,0,0v2.76H8.59l.12.11V87.1c.11.06.23,0,.34,0h2.53l0,0V84.26l0,0H13l0,0V82.84l0,0H11.66c-.07,0,0-.12,0-.18V79.94l0,0H10.24l-.11-.12V68.32l.13-.11H14.5c0-.47.05-6.77,0-8.6l0,0H13.15L13,59.47V56.71l.08-.09,0,0H15.9c.07-.09,0-.18,0-.27a2.43,2.43,0,0,0,0-.27v-.87h1.46l0,0a.22.22,0,0,0,0-.08V53.73a6.41,6.41,0,0,1,1.39,0l0,0v1.4s0,0,0,0h1.41l0,0v1.34s0,0,0,0h8.56l.11.13V61h7.18l0,.05v2.82l0,0h1.42l0,0a.25.25,0,0,1,0,.08v4.16l0,0H42s0,0,0,0,0,0,0,0V66.84l0,0h4.31l0,0V65.35l0,0s0,0,0,0h2.79c.07,0,0-.12,0-.18v-1.2l0,0H47.92l0,0a0,0,0,0,1,0,0v-1.3l0,0H45.1l-.1-.1,0,0a.22.22,0,0,1,0-.08V61l0,0H43.62l0,0c0-.08,0-.18,0-.26V59.62l0,0H34.9l0,0V58.13l0,0H33.4c-.07,0,0-.11,0-.17v-1.2l0,0H32l0,0s0,0,0,0V52.33s0,0,0,0H30.5l0,0s0,0,0,0V51s0,0,0,0l0,0H27.67l-.1-.09s0,0,0,0V48a.06.06,0,0,0,0,0,0,0,0,0,0,0,0H24.69l0,0v1.34l0,0s0,0,0,0h-1.3c-.06.05,0,.12,0,.18,0,.39,0,.79,0,1.19l-.1.11H17.46s0,0,0,0,0,0,0,0V49.42s0,0,0-.05H18.8s0,0,0,0V43.6l0,0H17.45c0-.42-.05-4.47,0-5.76l0,0h2.82l0,0V36.31l0,0H21.7c.07,0,0-.11,0-.18V32l.05,0h2.82l0,0s0,0,0,0V26.19s0,0,0-.05h1.41s0,0,0,0,0,0,0,0V23.32s0,0,0,0,0,0,0-.05h1.33l0,0V21.86l.12-.12H29l0,0V18.88l0,0s0,0,0,0h1.3c.06-.05,0-.12,0-.18,0-.4,0-.81,0-1.2l0,0h1.41l0,0s0,0,0,0V16l0,0h1.34c.07-.1,0-.19,0-.28V14.52h1.45l0,0V13.07l0,0H37.7l0,0,0,0a.06.06,0,0,0,0,0V11.65l0,0h1.33l.05,0V10.25l.09-.1,0,0a.21.21,0,0,1,.08,0H42l0,0a0,0,0,0,0,0,0V8.76l0,0h1.43c.06-.11,0-.22,0-.32a2.43,2.43,0,0,0,0-.27V7.81a2.44,2.44,0,0,1,0-.27.7.7,0,0,1,0-.32h1.35l0,0V5.85l0,0h2.82l0,0,0,0V4.46s0,0,0,0L48,4.32h2.75c.06-.05,0-.12,0-.18,0-.41,0-.81,0-1.2l0,0h2.82l0,0s0,0,0,0V1.53l.12-.12h2.75l0,0s0,0,0,0V0l0,0h2.79l.09,0V1.37l0,0h1.35l.11.14V2.87l0,0s0,0,0,0h1.28l0,0V5.76l0,0H59.54l0,0V7.26c0,.07-.12,0-.18,0h-1.2l0,0a.08.08,0,0,0,0,0V8.67s0,0,0,0H55.23l0,0v1.34l-.1.1-.07,0H53.73l0,0a.06.06,0,0,0,0,0v1.29l0,0a1,1,0,0,1-.3,0H50.82l0,0v0c0,.46,0,.91,0,1.37l0,0H49.41l0,0v1.33c0,.07-.12,0-.18,0H47.92l0,.05V16l0,0H46.52l-.05,0v2.75l-.09.1,0,0H43.6l0,0s0,0,0,0v1.3l0,0a.57.57,0,0,1-.26,0H42.11s0,0,0,0a.06.06,0,0,0,0,0v1.37s0,0,0,.05H39.21l0,0s0,0,0,0v1.29c-.05.07-.12,0-.18,0h-1.2s0,0,0,.05,0,0,0,0v1.29l-.12.12H36.31l-.05,0v2.83l0,0H34.89l0,0a0,0,0,0,0,0,0V29s0,0,0,0l0,0s0,0,0,0H32l0,0v1.34l-.14.11H27.59l0,0v1.33l0,0H29L29,32v2.83c.09.07.19,0,.27,0h.87a.69.69,0,0,1,.28,0v1.35l0,0s.05,0,.08,0h1.25l.12.12v1.33l0,0h2.84s0,0,0,0V36.38c0-.06.12,0,.18,0H36.3l.08-.08h1.33l0,0V34.89c.1-.07.19,0,.28,0h1.13V33.49l.1-.11,0,0h1.33c.06-.08,0-.17,0-.26v-.86a.69.69,0,0,1,0-.28H42s0,0,0,0V30.57l.12-.11h1.33l0,0V29.09l0-.05h1.34c.06,0,0-.12,0-.18V27.68l.11-.12h1.33s0,0,0,0a0,0,0,0,0,0,0v-1.3l0,0h1.34l0,0V24.76l.12-.11h2.74l0,0V23.28l0,0h4.32c.07,0,0-.11,0-.17V21.77c.53-.05,9.74-.06,13,0l0,0a.06.06,0,0,1,0,0v1.37s0,0,0,.05h4.32l0,0a.06.06,0,0,1,0,0v4.21l-.13.1H71.23l-.11-.1V26.18s0,0,0,0H68.25c-.06.05,0,.12,0,.18v1.27l0,0H63.93l0,0s0,0,0,0V29s0,0,0,.05H61l0,0v1.34l-.13.12H58.12l0,0a.06.06,0,0,0,0,0c0,.42,0,.84,0,1.26v0s0,0,0,0H56.64l0,0V33.4l-.05,0H55.22c-.06.05,0,.12,0,.18v1.19s0,0,0,0H52.32l0,0v1.34l-.12.12H50.82s0,0,0,0a.21.21,0,0,0,0,.08v1.26l0,0H49.39l0,0v1.33l-.12.12H47.92c-.06,0,0,.12,0,.18v1.19l-.05,0H46.51l0,0a.06.06,0,0,0,0,0V42l-.12.12H45l0,0v2.75a7.59,7.59,0,0,0,1.49,0V43.6l0,0h2.83l0,0V42.12l0,0h1.34c.06,0,0-.12,0-.18,0-.4,0-.81,0-1.2l0,0h1.41l0,0a.06.06,0,0,0,0,0V39.22l0,0h1.34l0,0V37.8c.05-.07.12,0,.18,0h1.27l0,0V36.3l0,0H58l0,0c0-.1,0-.22,0-.33s0-.24,0-.35v-.66l0,0h1.33l0,0V33.48l.09-.1,0,0h2.74l0,0V32l0,0h8.65s0,0,0,0,0,0,0,0ZM21.74,90V84.34a.21.21,0,0,0,0-.08s0,0,0,0H20.36a9.25,9.25,0,0,1,0-1.49h1.36a8,8,0,0,0,0-1.41H18.89l0,0s0,0,0,0v4.28a0,0,0,0,1,0,0l0,0H17.47l0,0c0,.39,0,.79,0,1.2,0,.06,0,.13,0,.18H16l0,0V85.74a8.19,8.19,0,0,0-1.41,0V87.1l0,0H13.06s0,0,0,0v1.32s0,0,0,0a.05.05,0,0,0,0,0h5.72l0,0V90s0,0,0,0Zm11.61-2.87,0,0H26.18l0,0v1.35c.1.06.19,0,.28,0h.86c.08,0,.18,0,.27,0V90c.4,0,2.56,0,2.91,0V88.65l.12-.11h2.74l0,0Zm2.91-14.54v-1.3a.21.21,0,0,0,0-.08s0,0,0,0H33.46l-.1,0v1.34l0,0h-1.2c-.06,0-.13,0-.17,0v1.29s0,0,0,0l0,0h2.77l.1,0V72.65s0,0,0,0Zm2.9-52.28H34.89l0,0v1.19c0,.07,0,.14,0,.18h4.24l0,0Zm-17.42,45V64a.22.22,0,0,0,0-.08l0,0H19c-.05,0-.11,0-.14,0v1.33s0,0,0,0Zm14.53,4.4h1.44l0,0c0-.39,0-.79,0-1.19,0-.06,0-.13,0-.18h-1.4s0,0,0,0ZM26.14,30.43a9.34,9.34,0,0,0,1.4,0V29.07a8.18,8.18,0,0,0-1.4,0ZM50.79,68.2V66.92a.19.19,0,0,0,0-.08s0,0,0,0h-1.2c-.06,0-.13,0-.18,0v1.33s0,0,0,0Z"/><path d="M7.21,47.88V43.59l0,0H5.85l0,0a0,0,0,0,1,0,0V42.16a.31.31,0,0,1,0-.08H7.18l0,0V37.8l0,0H5.85l0,0V36.3l0,0H7.2l0,0V34.89s0,0,0,0H5.86l-.05,0V33.48l0,0H4.43l-.11-.12V30.54H3s0,0,0,0a.06.06,0,0,1,0,0V29.13s0,0,0,0,0,0,0-.05H1.45l0,0V27.67l0,0H.05l0,0s0,0,0,0v-1.4l0,0H7.17l0,0v1.34l0,0h2.82c.07.05,0,.12,0,.18,0,.43,0,.86,0,1.28l0,0h1.41l0,0V30.4s0,0,0,.05H13l0,0V31.9s0,0,0,0h1.42l0,0v4.23c.05.07.12,0,.18,0h1.21c0,.48.05,3.82,0,5.86l0,0H14.57l0,0v4.24s0,0,0,0H13.07l0,0v4.33l0,0H11.66c-.07.06,0,.12,0,.19v7l0,0c-.47,0-.94,0-1.41,0l0,0v0c0-.43,0-.86,0-1.29l0,0H8.74l0,0v2.75l-.13.12H7.22v2.87a9.21,9.21,0,0,1-1.4,0V47.91l0,0H7.21Z"/><path d="M32,116.17H30.49s0,0,0,0,0,0,0,0V114.8l0,0H29.09l0,0v-1.45a1.29,1.29,0,0,1,.34,0h1.06v-1.38l.05,0h1.41l.05,0,0,0h1.32s0,0,0,0,0,0,0,0V109s0,0,0,0H32s0,0,0,0,0,0,0,0V107.5c-.05-.07-.12,0-.18,0H27.59s0,0,0,0v-2.82l0,0H29l.05,0V103.1l0,0h1.33l0,0v-1.34l.05,0h2.82l0,0s0,0,0,0v-1.31l.11-.11h5.67a9.12,9.12,0,0,1,0,1.48H37.79l0,0v7.14l0,0h1.33a.05.05,0,0,1,0,0s0,0,0,0v4.31l0,0h1.41l0,0v2.85l0,0H39.21c-.07,0,0,.12,0,.18V119s0,0-.05,0,0,0-.07,0H37.79l0,0v1.33l-.11.12H32s0,0,0,0a.21.21,0,0,1,0-.08Z"/><path d="M7.22,74.14,7.34,74H8.59l.12.11v5.66l-.09.09,0,0H7.34l-.12-.12Z"/><path d="M7.05,109.81H6.87c-.08-.06,0-.14,0-.19s.14,0,.2,0S7,109.73,7.05,109.81Z"/></g></g></svg>