<svg xmlns="http://www.w3.org/2000/svg" viewBox="0 0 76.57 76.57"><title>Recurso 40MANDALA</title><g id="Capa_2" data-name="Capa 2"><g id="Capa_1-2" data-name="Capa 1"><ellipse cx="38.29" cy="10.88" rx="1.16" ry="10.88"/><ellipse cx="24.58" cy="14.55" rx="1.16" ry="10.88" transform="translate(-3.98 14.24) rotate(-30)"/><ellipse cx="14.55" cy="24.58" rx="1.16" ry="10.88" transform="translate(-14.01 24.89) rotate(-60)"/><ellipse cx="10.88" cy="38.29" rx="10.88" ry="1.16"/><ellipse cx="14.55" cy="51.99" rx="10.88" ry="1.16" transform="translate(-24.05 14.24) rotate(-30)"/><ellipse cx="24.58" cy="62.02" rx="10.88" ry="1.16" transform="translate(-41.42 52.3) rotate(-60)"/><ellipse cx="38.29" cy="65.69" rx="1.16" ry="10.88"/><ellipse cx="51.99" cy="62.02" rx="1.16" ry="10.88" transform="translate(-24.05 34.3) rotate(-30)"/><ellipse cx="62.02" cy="51.99" rx="1.16" ry="10.88" transform="translate(-14.01 79.71) rotate(-60)"/><ellipse cx="65.69" cy="38.29" rx="10.88" ry="1.16"/><ellipse cx="62.02" cy="24.58" rx="10.88" ry="1.16" transform="translate(-3.98 34.3) rotate(-30)"/><ellipse cx="51.99" cy="14.55" rx="10.88" ry="1.16" transform="translate(13.39 52.3) rotate(-60)"/></g></g></svg>