<svg xmlns="http://www.w3.org/2000/svg" viewBox="0 0 126.1 126.1"><title>Recurso 69MANDALA</title><g id="Capa_2" data-name="Capa 2"><g id="Capa_1-2" data-name="Capa 1"><path d="M5.58,89.61A41.12,41.12,0,0,1,41.16,77.05a37.27,37.27,0,0,1,25,12.53A43.4,43.4,0,0,0,40.81,75.43,39.56,39.56,0,0,0,5.58,89.61Z"/><path d="M72.82,64.42C70.49,75.77,64.11,82.19,56.23,83,50.64,84,44.16,81.65,38,75.68c6.41,6.19,13,9,18.92,8.77C64.69,83.56,71,76.53,72.82,64.42Z"/><path d="M26.56,114.79A41.1,41.1,0,0,1,51.09,86.12,37.3,37.3,0,0,1,79,84.47a43.39,43.39,0,0,0-29,.42A39.55,39.55,0,0,0,26.56,114.79Z"/><path d="M72.2,59.35c3.65,11,1.34,19.75-5.1,24.36C62.76,87.37,56,88.6,47.67,86.51c8.64,2.16,15.78,1.28,20.77-1.86C74.72,80,76.64,70.77,72.2,59.35Z"/><path d="M57.32,126.1A41.07,41.07,0,0,1,64.23,89,37.27,37.27,0,0,1,87.58,73.62,43.42,43.42,0,0,0,62.65,88.5,39.54,39.54,0,0,0,57.32,126.1Z"/><path d="M69.12,55.27c8.67,7.7,11,16.43,7.77,23.65C75,84.25,69.71,88.71,61.46,91.06c8.57-2.46,14.3-6.78,17.06-12C81.63,71.89,78.68,62.94,69.12,55.27Z"/><path d="M89.61,120.52A41.11,41.11,0,0,1,77.05,85a37.27,37.27,0,0,1,12.53-25A43.43,43.43,0,0,0,75.43,85.29,39.56,39.56,0,0,0,89.61,120.52Z"/><path d="M64.42,53.28C75.77,55.61,82.19,62,83,69.88c1,5.58-1.32,12.06-7.29,18.22,6.19-6.41,9-13,8.77-18.92C83.56,61.41,76.53,55.14,64.42,53.28Z"/><path d="M114.79,99.54A41.1,41.1,0,0,1,86.12,75a37.3,37.3,0,0,1-1.65-27.92,43.39,43.39,0,0,0,.42,29A39.55,39.55,0,0,0,114.79,99.54Z"/><path d="M59.35,53.91c11-3.66,19.75-1.35,24.36,5.09,3.66,4.34,4.89,11.11,2.8,19.43,2.16-8.64,1.28-15.78-1.86-20.77C80,51.38,70.77,49.46,59.35,53.91Z"/><path d="M126.1,68.79A41.11,41.11,0,0,1,89,61.87,37.27,37.27,0,0,1,73.62,38.52,43.42,43.42,0,0,0,88.5,63.45,39.57,39.57,0,0,0,126.1,68.79Z"/><path d="M55.27,57c7.7-8.67,16.43-11,23.65-7.77,5.33,1.93,9.79,7.18,12.14,15.43-2.46-8.56-6.78-14.3-12-17C71.89,44.47,62.94,47.42,55.27,57Z"/><path d="M120.52,36.49A41.11,41.11,0,0,1,85,49.05a37.27,37.27,0,0,1-25-12.53A43.43,43.43,0,0,0,85.29,50.67,39.56,39.56,0,0,0,120.52,36.49Z"/><path d="M53.28,61.68C55.61,50.33,62,43.91,69.88,43.13c5.58-1,12.06,1.32,18.22,7.29-6.41-6.19-13-9-18.92-8.77C61.41,42.54,55.14,49.57,53.28,61.68Z"/><path d="M99.54,11.31A41.1,41.1,0,0,1,75,40a37.3,37.3,0,0,1-27.92,1.65,43.39,43.39,0,0,0,29-.42A39.55,39.55,0,0,0,99.54,11.31Z"/><path d="M53.91,66.75C50.25,55.75,52.56,47,59,42.39c4.34-3.65,11.11-4.89,19.43-2.8-8.64-2.16-15.78-1.28-20.77,1.87C51.38,46.11,49.46,55.33,53.91,66.75Z"/><path d="M68.79,0a41.11,41.11,0,0,1-6.92,37.09A37.27,37.27,0,0,1,38.52,52.48,43.42,43.42,0,0,0,63.45,37.6,39.57,39.57,0,0,0,68.79,0Z"/><path d="M57,70.83c-8.67-7.7-11-16.43-7.77-23.65,1.93-5.33,7.18-9.79,15.43-12.14-8.56,2.46-14.3,6.78-17,12C44.47,54.21,47.42,63.16,57,70.83Z"/><path d="M36.49,5.58A41.12,41.12,0,0,1,49.05,41.16a37.27,37.27,0,0,1-12.53,25A43.4,43.4,0,0,0,50.67,40.81,39.56,39.56,0,0,0,36.49,5.58Z"/><path d="M61.68,72.82c-11.35-2.33-17.77-8.71-18.55-16.59-1-5.59,1.32-12.07,7.29-18.23-6.19,6.41-9,13-8.77,18.92C42.54,64.69,49.57,71,61.68,72.82Z"/><path d="M11.31,26.56A41.1,41.1,0,0,1,40,51.09,37.3,37.3,0,0,1,41.63,79a43.39,43.39,0,0,0-.42-29A39.55,39.55,0,0,0,11.31,26.56Z"/><path d="M66.75,72.2c-11,3.65-19.75,1.34-24.36-5.1C38.74,62.76,37.5,56,39.59,47.67c-2.16,8.64-1.28,15.78,1.87,20.77C46.11,74.72,55.33,76.64,66.75,72.2Z"/><path d="M0,57.32a41.07,41.07,0,0,1,37.09,6.91A37.27,37.27,0,0,1,52.48,87.58,43.42,43.42,0,0,0,37.6,62.65,39.54,39.54,0,0,0,0,57.32Z"/><path d="M70.83,69.12c-7.7,8.67-16.43,11-23.65,7.77C41.85,75,37.39,69.71,35,61.46,37.5,70,41.82,75.76,47,78.52,54.21,81.63,63.16,78.68,70.83,69.12Z"/></g></g></svg>