<svg xmlns="http://www.w3.org/2000/svg" viewBox="0 0 288.28 309.36"><title>Recurso 13GRAPHS</title><g id="Capa_2" data-name="Capa 2"><g id="Capa_1-2" data-name="Capa 1"><path d="M7.63,179.54,7.07,179l-.41.35h-1l-1-.53v-1.33l1.31-.08.5-.42.72.42.44-.89V135.13c-.39-.3-.85-.1-1.27-.14s-.77,0-1.18,0l-.54-.6v-.74l.53-.56H7.43c.11-.12.17-.15.19-.21s0-.12,0-.19V90.82c-.37-.4-.84-.14-1.25-.18a12,12,0,0,0-1.21,0l-.55-.51v-.87c.1,0,.2-.14.31-.14.83,0,1.66,0,2.49,0,0,0,.09-.07.17-.14V46a3.8,3.8,0,0,0-1.5-.11c-.44,0-.89,0-1.33,0-.43-.37,0-.86-.26-1.24L5.11,44H7.42a1.76,1.76,0,0,0,.2-.2.57.57,0,0,0,0-.19q0-20.73,0-41.48c0-.05-.07-.09-.15-.17H5.21l-.53-.49c-.2-.31-.09-.62-.08-.92L5.14,0H8.08L9,.5l.5,1V265.91s.06.1.1.15c1.4.09,11.06.14,12.37.05,0,0,.09-.09.12-.12-.5-.56-1-1.1-1.49-1.67a2.56,2.56,0,0,1-.38-.8,1.53,1.53,0,0,1,0-.52l2.67-2.67v-.52c.51-.31,1.09-.09,1.78-.18L26,261.17h1l.76-.76h1.56c.29-.47.06-.93.21-1.39l2.41-2.41H33l1.83,1.83,1.82-1.81h1.23l2.62,2.62c0,.12.13.3.3.5a3.12,3.12,0,0,1,.29.64c.28.57.28.65,0,1.17a3.08,3.08,0,0,1-.42.78,5.43,5.43,0,0,1-1,.59l-1.37,1.36-1.22-.57-1.39-1.38H34.9c-.34.36-.74.76-1.13,1.19s-.84.43-1.26.73l-.73-.4c-.1,0-.19,0-.23,0L29.42,266c.1.09.14.18.19.18h244.3c.34.48,1.14.27,1.36,1.27V271a2.54,2.54,0,0,1-1.33.09l-.54-.54v-2.29c-.17-.26-.44-.19-.68-.19h-62.9c-.18,0-.36,0-.6,0a18.17,18.17,0,0,0-.08,2.08,1.2,1.2,0,0,0-.43.77c-.06.22-.32.37-.5.56l-1-1v-2.29c-.37-.4-.84-.19-1.26-.19H144l-.32-.32-1.1.94.52.95-.43.58v.42l-.6.88c-.92-.05-.8-.94-1.33-1.34v-2c-2.58-.21-51-.28-64.44-.1,0,.05-.13.09-.13.14,0,.5,0,1,0,1.49l-.41.46c-.08.28.12.61-.16.92H74.32c-.28-.3-.08-.64-.16-.93l-.34-.34v-1.56c-.17-.09-.28-.19-.39-.19H10.92a2.8,2.8,0,0,0-1.36.12v2.28l-.57.65h-.8l-.56-.57c0-.75,0-1.51,0-2.27,0,0-.07-.09-.16-.21H5.26l-.68-.54v-.82l.56-.56H7.43c.38-.29.19-.71.19-1.06q0-20.35,0-40.78l-.51-.55c-.77-.15-1.59,0-2.44-.1a2.4,2.4,0,0,1,0-1.48H7.4c.13-.11.21-.15.22-.2a2.41,2.41,0,0,0,0-.38Zm18.05,85.19-1.17,1.18a1,1,0,0,0,0,.24c.72,0,1.46,0,2.2,0a.78.78,0,0,0,.25-.1Z"/><path d="M71.49,244.93l-.36-.36,0-.8-.33-.38v-4.6c.11-.12.23-.19.28-.3a3.48,3.48,0,0,0,.17-.6c.52-.09,1.09,0,1.5,0l1.42-.75h1.42a1.46,1.46,0,0,0,.15-.4c0-1.59,0-3.18,0-4.77a.47.47,0,0,1,.14-.14.33.33,0,0,1,.16,0h5.63c.65-1.32,1.25-2.53,1.88-3.79H84.7l2.86,5.71c-.07.38-.41.5-.59.75H83.15c-.33.32-.19.68-.11,1a.53.53,0,0,0,.15.11h4.18l.56,1.08v4.46l-.39.42v.74l-.33.34-.07,1.2-1.07.56H82.39l-1.16,1.15H78.42v1.63l-1,1h-5l-1-.95Z"/><path d="M53.9,254.3v-1.41l2.67-2.68,0-.34s-.09-.12-.13-.12H53l-.59-.56v-5.87l1.13-.83h4.69l1,.49c.22.64-.13,1.42.18,2.13.07,0,.16-.06.16-.08.05-.81.1-1.62.14-2.43l.4-.41a1.07,1.07,0,0,1,.33-.11h5.92l.56.56v5.79l-.68.54H63.89v2.36c-.34.69-1,.64-1.39,1.07h-.77l-.27-.27a1,1,0,0,0-.34-.1H59.83l-.17.17c.4.3.3.92.79,1.23l-.62,1.36-1.68,1.68L60.74,259v1l-1.49,1.47v.68l-.69.23-.12.53c-.23.29-.58.05-.81.15l-2.94-2.93v-1.12l1.86-1.86c.09-.4-.12-.55-.3-.73l-2.16-2.16S54,254.3,53.9,254.3Z"/><path d="M78.94,306.3c-.13-.26-.26-.52-.4-.78a1.05,1.05,0,0,0-.15-.15V297a2.26,2.26,0,0,0,.5-1h3.55c.1.24.18.46.28.67a1.76,1.76,0,0,0,.2.2v1.53l.34.34c.21.45-.05,1,.23,1.5l1-1.92v-1.8l.64-.52h3.45l.51,1.23a10.07,10.07,0,0,0,0,1.09c0,.48-.16,1,.18,1.5.13-.3.25-.55.37-.81H90l.72-.72h2.82L94,299l.61.06c.28.56.58,1.13,1,1.85v4.84l-.5.53H93.53l-.69-.41-.51.43H90.07l-.88-.76c-.53.08-.69.48-1,.74h-1.6c-.2-.3-.18-.72-.54-.94,0-.63,0-1.26,0-1.9,0,0-.08-.09-.13-.13s-.13,0-.13,0c0,.49-.09,1-.15,1.58-.21.37-.48.84-.69,1.19-.16.12-.2.19-.25.19H82.77l-.57-.56v-.37l-.38-.42a11,11,0,0,0-.07-1.71c-.57.27-.25.69-.3,1a4.37,4.37,0,0,0,0,.94l-.57,1.11Zm10.34-5.37a2.14,2.14,0,0,0,0,1.6c.26-.6,1.18-.31,1.27-1.08-.26-.24-.58-.05-.92-.13Zm3.24-.17-.51-.51-1,1a2,2,0,0,0,1.54,0Zm-1,2.94.39.72.64-.59c-.06-.53-.06-.53-.62-.53Z"/><path d="M82.37,164.83h6.16c.25.3.64.48.55.95.41.17.29.65.55.93h3.81l.58.55v7.32c-.08.08-.11.15-.17.17s-.12,0-.19,0H86.91l-.74-1.11-.3.31h-7l-.42-.43c0-.05-.11-.09-.11-.14a2.44,2.44,0,0,1,0-.38v-6.09l.57-.57h2.32C81.37,165.71,81.88,165.34,82.37,164.83ZM92,168.64c-.38,0-.77,0-1.15,0s-.87-.13-1.34.16v3.06c-.25.37-.64.5-.71.94H92l.54-.52-.37-.4V170l.39-.56C92.46,169,92.13,168.89,92,168.64Zm-12,3.32,1,.43.47-.5V168.5l-.49-.58-1,.51Zm4.07-4-.64.45c0,.86,0,1.55,0,2.24,0,.1.11.2.19.33.27-.1.6.12.91-.16v-2.38Zm2.42-1a.47.47,0,0,0,.77,0A.46.46,0,0,0,86.4,166.92Z"/><path d="M85.56,217.85l-1,.49H82.41a1.37,1.37,0,0,0-.8-.38l-1.33-1.37v-.33l-.37-.4V214.1l.5-1a6.77,6.77,0,0,1,1.91-1.59h2.4c.27-.48.1-.93.16-1.35l.34-.34c0-.22,0-.53.07-.83l.67-.67.13-.52.82-.34a17,17,0,0,1,2.77-.18c.3-.47,1-.64.95-1.34a4.48,4.48,0,0,1,1.52-.93l.63-.38h1c.8.56,1.89.74,2.55,1.73l.09.79.31.31V209l-.34.4v.68c-.59,1-1.66,1.22-2.59,1.8h-1l-.4-.38H91.9a2.64,2.64,0,0,1-.24.65,6.23,6.23,0,0,1-.67.69v.38l-1.86,1a13,13,0,0,0-1.92.06v1.39a5.18,5.18,0,0,1-.52,1.1A12.38,12.38,0,0,1,85.56,217.85Z"/><path d="M129.23,299.9v.47l.37.4v3.44a2.62,2.62,0,0,0-.93,1.34h-.4l-.72.72h-3c-.49-.35-1.2-.52-1.57-1.11s-.53-1-.79-1.52c-.07.07-.16.11-.16.16,0,.63,0,1.27,0,1.94l-.65.54h-1.47l-.54-.51c0-1.91,0-3.87-.08-5.82,0-.05-.09-.09-.15-.16l-.37.79h-.39l-.56.55v4.61l-.62.54h-1.49l-.53-.49v-4.61a3.47,3.47,0,0,1-.75-.78c-.14-.25-.1-.61-.42-.73l.59-1.05.46-.46c.21-.36-.14-.91.4-1.17,0-.43.28-.66.58-1h5.84c.29.39.1.84.13,1.27s0,.89,0,1.33,0,.9,0,1.34a2.67,2.67,0,0,0,.12,1.31c.62-.15-.06-.69.1-.74a10.09,10.09,0,0,0,.83-.85,2.54,2.54,0,0,0,.24-.65h.43l.71-.72h2.78c.34.23.49.67,1,.76C128.56,299.14,128.86,299.59,129.23,299.9Zm-4.2,3.85.61.72,1.26-.61v-2.47c-.42-.54-.67-.88-.92-1.21a4,4,0,0,1-.46.46c-.47.34-.58.91-.85,1.36s.13.78.34,1.16C125.11,303.34,125,303.63,125,303.75Zm-7.36-5.7c.34.16.6.27.84.41s.34.47.65.52c.24-.21.12-.47.12-.7s.11-.49-.13-.72a1.3,1.3,0,0,0-.48,0c-.15.06-.27.23-.42.31A3.19,3.19,0,0,1,117.67,298.05Z"/><path d="M95.41,234.41l-1,1.87H89l-1-.53V230c.2-.29.66-.44.31-1h6c.34-.32.07-.67.29-1.05l.45-.46h6.89l.54.51v5.82l-.53.54Z"/><path d="M102.82,300.78c-.28.33-.95.06-1,.87,0,0,.1.07.17.21.18.37,1,.05.82.78.31.22.35.61.52,1h.92l.49-.5-.59-.62h-.39l-.56-1.08v-1c.44-.34.32-1.17.91-1.3s.8-.55,1.22-.84h3c.3.27.57.53.86.76.09.07.24,0,.42.06l.13.55.34.36v.76c-.34.31-.94.26-1.08.77l.48.56.43,0,.55,1.07v1c-.12.13-.38.31-.36.39.17.53-.64.67-.43,1.18l-1,.54h-3.91l-1.48-1.51c-.07,0-.22,0-.29.07-.46.43-.91.89-1.36,1.34,0,0-.09.09-.15.1H97.68L96,304.62v-.82c.07-.08.12-.17.16-.17h2.29l.72.72h.91l.11-.49c-.34-.46-1,0-1.31-.59h-1L96,301.39v-1c.45-.34.32-1.19.93-1.3s.79-.56,1.18-.82h3l.69.68c.32.1.81.05.64.65C102.91,299.9,102.89,300.33,102.82,300.78Zm3.28,2.42c-.29.15-.62-.1-.89.16,0,.41.31.22.57.3l.71.79c.29-.17.63.1,1-.25l-.11-.57h-.88Zm-6.74-3a2.07,2.07,0,0,0-.43.07l1.08,1.08.24-.61Zm7.12,0a.45.45,0,0,0,0,.76c.29-.06.61.12.89-.12-.05-.31-.35-.43-.52-.64Z"/><path d="M190.42,131.1,191,130h6.86c.59.2.51.93,1,1.29v5l-.33.4v.72l-.58.61h-4.57c-.13.12-.21.16-.22.2a2.54,2.54,0,0,0,0,.39v6.11l-.56.55h-6.89l-.54-.5V138.2l.42-.42s.09-.1.14-.11a2.54,2.54,0,0,1,.39,0h4.18l.55-.55-.3-.35s-.06,0-.06-.06Zm2.48,5h3.8c.05,0,.09-.07.22-.17v-3.7a.37.37,0,0,0,0-.18.56.56,0,0,0-.11-.11h-3.93l-.49.54v3.06Zm-3,7.21.72.41.49-.49v-3.55l-.53-.5h-3.06l-.56.55c0,1.15,0,2.29,0,3.43,0,0,.07.09.12.15s.23.41.52.37l.29-.29.41.36h1.13Z"/><path d="M186.59,306.3c-.12-.56-.77-.45-1.08-.84s-.35-.78-.65-1.07.07-1.05-.55-1.31v-1.16l.37-.4v-1.13c.43-.36.36-1.2.94-1.3s.79-.58,1.18-.8h1.91l.28.28c.73.52,1.21-.59,2.23-.06l.72,1c-.05-.22,0-.11,0,0,0,1.52,0,3.05,0,4.58,0,.24-.08.51.18.69.48-.4,0-1,.27-1.4l.29-.29V302l.39-.45v-1.11l.39-.42v-1.13l.4-.42v-1.13l.32-.33c0-.24.06-.55.09-.85a.8.8,0,0,1,.13-.13.41.41,0,0,1,.19,0,5.17,5.17,0,0,1,1.51.1v2.37l-.3.39c0,.25-.06.55-.09.82l-.36.36v1.53l-.35.35v.74l-.39.42V305c-.44.35-.39,1-1,1.33h-1.13l-.44-.4a6,6,0,0,1-.24.68c0,.11-.17.18-.27.29v.77L190.15,309h-.66l-.42.39h-1.52l-.35-.35L186,309l-.87-.83c-.13-.31-.18-.48-.26-.63s-.18-.3-.24-.41c.06-.43.43-.52.55-.79h1.37c.18.53.77.46,1,.73h1.12l.56-.6-.18-.5h-.42l-.41.37Zm.77-5.17v2.31l.94.93c.57-.31.64-1,.93-1.39v-1.36l-.55-1h-.75Z"/><path d="M111.64,150.86l.56-.56h6.51l.54.51v6.63l-1.35.85h-4.52c-.11.12-.17.15-.19.21a.36.36,0,0,0,0,.18v4.43l-.61.53H106l-.86-1.16v-6l1.15-.86h5.11c.12-.12.2-.16.21-.21s0-.25,0-.38Zm2.1,5.54h3.63a.6.6,0,0,0,.19,0,1.4,1.4,0,0,0,.2-.21v-3.7a.35.35,0,0,0-.06-.16.74.74,0,0,0-.12-.13h-4.2s-.09.08-.17.15v3.51Zm-6.69,1.72c0,1.15,0,2.29,0,3.43,0,0,.08.09.18.21h4.09a.34.34,0,0,0,.17-.05.62.62,0,0,0,.14-.14v-3.79s-.07-.09-.14-.18h-3.9Z"/><path d="M168.56,304.14l-.54,1-1.24,1.15h-2.93l-.79-.75c-.55-.07-.72.44-1.11.73h-2.73c-.59-.43-.61-1.25-1.27-1.61v-3.72c-.29-.54-.55-1-.8-1.47,0-.11,0-.27.1-.33.63-.53.82-1.36,1.41-1.92.13-.12,0-.42.39-.5s.83-.54,1.37-.34l.54.55v1.29l1,.84c.15.42.2.58.29.81.47-.77,1.41-.86,1.89-1.57h2.4l.44.73h.64a6.21,6.21,0,0,0,.4.77c.14.21.45.34.51.56s.12.6.43.74v1.59l-.57.52-.89.1c0,.12.08.29.1.28C168.1,303.52,168.29,303.9,168.56,304.14Zm-6.95.18c0-.05.12-.1.12-.14q0-1.69,0-3.39c0-.05-.07-.1-.11-.15-.32,0-.44.34-.65.52v2.64C161.18,304,161.3,304.27,161.61,304.32Zm2.84-.46c.32.2.73.17,1,.64l.64-.84c.27-.08.58.08.55-.42H164.8a1.17,1.17,0,0,0-.35.13Zm.35-2.71a.82.82,0,0,0,1.17,0l-.1-.49c-.41,0-.78-.23-1.07.14Z"/><path d="M145.68,299.22l1-.94h.74l.59.47.59-.47h1.68l.52.74c.74.1.78-.58,1.2-.73h3l1.8,1.81c0,1.92,0,4,0,6,0,.05-.07.09-.14.18H155.1l-.63-.4-.64.42h-2.66l-.92-1.1-.35-.77v-1c.48-.28.23-1.1.89-1.31l.94-.11.06-.51c-.27-.32-.62-.13-.93-.19l-.41-.38h-1.54l-.53.59v4.14l-.54.58H146.2l-.4-.4a1.1,1.1,0,0,1-.12-.33C145.67,303.43,145.68,301.34,145.68,299.22Zm7.78,2.12.64-.57c-.32-.35-.68-.19-1-.15l-.57.51C152.8,301.46,153.13,301.28,153.46,301.34ZM153,304c0,.39,0,.39.37.2s.51-.24.76-.36v-.43l-.58-.24Z"/><path d="M82.2,285.36c.46-.39.46-.84.8-1.1a2.68,2.68,0,0,0,.85-1.17c.15-.38.71-.59.89-1a3.81,3.81,0,0,1,.83-1.18c.33-.31.64-.63,1-1h1.23a1.1,1.1,0,0,1,.14.36c0,1.34,0,2.68,0,4l.73.72v1.29l-.71.45v.94l-.55.58h-.86c-.16-.61-.69-1.06-.55-1.72,0-.05-.09-.11-.14-.13a.36.36,0,0,0-.18,0h-2.9l-.37-.78-.57.57v.72a4.08,4.08,0,0,1-1.72,1.39H78.25l-.92-.53a4.41,4.41,0,0,0-.33-.63c-.14-.2-.49-.36-.5-.54a1.15,1.15,0,0,0-.41-.78V282.4a3.7,3.7,0,0,1,.28-.28c0-.12.07-.23.09-.35s0-.25,0-.51L77.7,280l1-.45h1c.17,0,.27.52.68.31l1.34,1.44.43.82Zm-1.92.48V282l-.55-.52H78.52l-.51,1v3c.48.37.37,1.23,1.23,1.32C79.66,286.61,79.91,286.15,80.28,285.84Zm5-1.89.1.58.67-.12c0-.66,0-.65-.23-1Z"/><path d="M129.23,299.8v-.57l1-1h1.14l.8,1.55a3.7,3.7,0,0,1,.55,2.29,7.6,7.6,0,0,0,.37-.8c.06-.23-.11-.52.15-.7s.24-.41.25-.67a1.52,1.52,0,0,1,.15-.5,3.75,3.75,0,0,1,.28-.65,4.11,4.11,0,0,1,.45-.52h1.22l.95,1V300c.44.36.38,1.06,1,1.37.07-.37,0-.81.21-1a1.33,1.33,0,0,0,.28-1.15l1.24-.9a.76.76,0,0,1,.55.08,2.38,2.38,0,0,0,.8.36c.22.3,0,.61.1.86l-.38.45v1a9.38,9.38,0,0,0-1.14,2.36v.75l-.39.42v.76l-.95.95h-1.53c-.29-.56-.58-1.14-.94-1.83l-.06-1.18c-.15.06-.32.1-.32.13a2.23,2.23,0,0,1-.58,1.28c-.24.37-.13.72-.23,1.06l-.55.54h-1.52c-.75-.5-.75-1.49-1.35-2.12v-1.12l-.39-.41v-.75l-.34-.34c0-.36,0-.79-.06-1.22C129.7,300.18,129.61,299.8,129.23,299.8Z"/><path d="M53.9,254.41v.46l1.5,1.5v.88l-1.13.92v1.3l-2.85,2.85H50.29c-.43-.41-1-.76-1.09-1.48h-1c-1.56-.62-2.38-1.94-3.5-2.88v-1.18c1-.94,1.89-1.89,2.85-2.85h.91l.89,1.12h.91l.56-.56v-.38l1.08-.56h1Z"/><path d="M87,227.15l-.54-.54a1.72,1.72,0,0,1,.17-1.05c.57-1,1-2,1.52-3,.18-.31.11-.59.2-.87a3.48,3.48,0,0,1,.36-.61c.09-.15.14-.33.23-.48a3,3,0,0,1,.31-.31h.85c.31.64.62,1.27.9,1.91a1.69,1.69,0,0,1,0,.6l.57.16c.16-.2.32-.39.52-.66.08-1.12,1-2,1.33-3.18l.89,0,.53.64v.73l.72.72V222l.79.44v1l.76.8v1.53c-.11.06-.21.17-.32.17H93.41l-.94,1.15Z"/><path d="M107.82,222a1.34,1.34,0,0,0,.43-.77c.07-.27.42-.46.69-.73l0-.87.73-.48v-.89c.23-.46.86-.62.79-1.23.39-.3.62-.8,1.15-1,.5.17.72.68,1.12,1l0,.37c.15.26.37.27.63.17.22-.47.43-1,.67-1.43a2,2,0,0,1,.41-.41h.81l.51.61v.75l.78.57v.89l.79.83v.74l.72.72V222a1,1,0,0,1-.35.14h-2.49l-1.06,1.1h-5.85l-.54-.53Z"/><path d="M184.31,162a3.72,3.72,0,0,0-.76-1.92v-2.65l-.39-.41.38-.41v-3a3.35,3.35,0,0,0,.74-1.68l1.88-1.87c.41.12.82-.41,1.34-.49l.44.41h.37l.95.95a8.73,8.73,0,0,1,.8.81,13,13,0,0,1,.75,1.2v1.83l.35.36v3.82l-.35.41v1.49c-.14.14-.4.33-.37.41.17.53-.65.66-.43,1.17l-1.25,1.25a5,5,0,0,1-1.45.06c-.44,0-.88,0-1.29,0Zm.75-6.51v2.67l.4.42v1.9c.29.18.29.52.44.77a1,1,0,0,0,.89.59c.23,0,.41.46.48.44l1.64-1.5V160l.33-.4v-5.85c-.69-.15-.15-.77-.42-1.09l-1.24-1.23s-.12,0-.17,0h-.58a4.28,4.28,0,0,0-1.43,2v1.69Z"/><path d="M130.18,208h-1.57l-.22-.66a1.64,1.64,0,0,1-1.06-.68V206l-.39-.42v-2.15l.53-1a4.25,4.25,0,0,1,2.84-1.64l.11-.54.52-.53h1.16a9.67,9.67,0,0,0,.8,1.53,11.62,11.62,0,0,0,1.2,1.23l.34.81c.34.42-.12,1,.34,1.4s.11.84.2,1.3l.37.44c0,.19,0,.44,0,.69,0,0-.07.1-.13.2h-1.39a4.14,4.14,0,0,1-1.67.78c-.56,0-.94.7-1.59.39Z"/><path d="M75,223.18l1,1.11a2.15,2.15,0,0,0,.42,1.31c.61,1.21,1.21,2.42,1.84,3.7l-.47.51H74.61a13,13,0,0,0-.07,1.76l-.59.52H68.63l-.48-.43a1.18,1.18,0,0,1,0-1c.35-.68.69-1.37,1-2.05s.61-1.27,1-1.88a2.78,2.78,0,0,0,.18-.92l.52-.52h.78c.24.5.5,1,.76,1.53l.39,0c.58-1,1-2.15,1.62-3.14C74.55,223.47,74.74,223.39,75,223.18Z"/><path d="M181.24,161.19v5.71l-.38.41V168c-.27.3-.65.54-.73.86a1.62,1.62,0,0,1-.49.76c-.26.28-.53.54-.89.89a2,2,0,0,0-.64,0,2.82,2.82,0,0,0-.64.39l-2-1-1.12-1.21c0-.16.1-.53,0-.64-.4-.34-.3-1-.75-1.22v-6.22l.77-.59v-.78c.72-.5.84-1.55,1.76-2.1h2.19c.42.36,1.05.46,1.47,1s.43,1.19,1.07,1.42v1.19Zm-2.3-1.07a3.55,3.55,0,0,0-1.8-1.35,7.42,7.42,0,0,0-1.68,2v2l-.34.34V165l.39.41v1.49c.58.65.59,1.63,1.34,2.13H178l.95-1v-1c.28-.49.52-.9.75-1.32v-3.35a2.13,2.13,0,0,1-.35-.48c-.06-.17,0-.39,0-.56s-.28-.4-.35-.62A1.77,1.77,0,0,1,178.94,160.12Z"/><path d="M181.05,304h-.39c-.39.37-.07.85-.2,1.25s-.53.52-.36,1h-1.74a5.54,5.54,0,0,1-.94-.94v-8.77L178,296h1.91l.59,1.13v2.59c.44.06.52-.31.74-.47s.33-.43.55-.51a2.8,2.8,0,0,0,.79-.4c.16-.13.49-.05.75-.07l.57.55v1.3l-.6.12a2.29,2.29,0,0,1-.23.61,5.3,5.3,0,0,1-.66.68c-.24.52.63.66.4,1.17.45.28.39.87.79,1.21a4.77,4.77,0,0,1,.7,1.13c.05.34,0,.77,0,1.23h-1.7C181.73,305.84,181.54,304.81,181.05,304Z"/><path d="M87,194.66h1.57l.3.3a1,1,0,0,0,.25-.13l2.08-2.07.56,0c.82.81,1.57,1.57,2.1,2.1l1,.34v.43l.7.67-.3.73c-1.21,1.2-2.28,2.27-3.43,3.43-.46.21-.78-.38-1.16-.42l-2.25,2.24-.79,0-2.7-2.7v-.17l-1.1-1.07a1.36,1.36,0,0,1,.14-.27c.58-.59,1.14-1.2,1.77-1.74.31-.27.25-.68.52-.93Zm.67,2.19c-.59.25-.83.73-1.22,1V199l1.34,1.33L89.08,199v-.73Zm4.1,1.24c1-.2.73-1.43,1.57-1.67L92,195h-.79c-.3.39-.78.63-1,1.19.29.32.72.61.8,1A1.15,1.15,0,0,0,91.73,198.09Z"/><path d="M123.3,194.25h-1.15l-.52-.52-.11-.52-.7-.24v-.43l-1.9-1.9v-.86c.48-.46,1-1,1.59-1.51.41-.38.43-1,.93-1.35a13.1,13.1,0,0,0,1.36-1.33l1.23-1.23h1.63a3.38,3.38,0,0,1,.13.37c0,.06,0,.12,0,.33l2.64,2.63v.64l-1.93,1.93V191Zm2.87-6.68-1.31-1.31s-.11,0-.19,0a.83.83,0,0,0-.78.72l1.83,1.83.45-.45ZM122.56,192c.57,0,.82-.38,1-.93-.43-.44-.86-.88-1.31-1.31-.07-.06-.23-.05-.35-.07-.35.23-.75.43-.66,1Z"/><path d="M106.1,202.67h3c.13.13.27.37.41.37.53,0,.74.33,1,.73.35.68.63,1.39,1,2a2,2,0,0,1,.12.71c0,.05,0,.16,0,.17-.64.35-.12,1.23-.74,1.61-.11.07-.09.35-.2.47a9.71,9.71,0,0,1-.78.79h-.76l-.69.69a.58.58,0,0,1-.17.06h-1.87l-.51-.75H105c-.81-.49-.79-1.49-1.39-2.12v-2.27c.16-.36.69-.5.74-1s.48-.55.67-.86S105.89,203.13,106.1,202.67Z"/><path d="M141.47,197.12l.34-.33v-1.15c.24-.24.42-.43.61-.6s.15-.73.53-.93l1.11-.58h3.15c.59.6,1.17,1.18,1.75,1.75.29.27-.12.85.53,1v1.6l-.37.4V199l-1.37,1.37c-.51-.1-.77.57-1.36.41-.31-.08-.56.52-1,.35-.65-.28-1.34-.46-2-.73a3.12,3.12,0,0,1-1.12-1c-.16-.18-.14-.58-.44-.76v-1.14Z"/><path d="M143.38,204.39l-.39.41v.75l-1.66,1.66-.85.09-.31.31h-1.6c-.45-.32-.45-.32-1.17-.36l-.39-.7-.67-.05-.61-1.05c.25-.56-.38-.88-.38-1.36v-.65l1.28-2.55,1.72-.88h2.15c.11.1.3.36.38.34.53-.21.65.67,1.17.42l1.33,2.64Z"/><path d="M108,227.53l.4-.37.31.31.87.1a.94.94,0,0,1,.14.33c0,2,0,3.95,0,5.95l-.59.54h-5.72l-.53-.5v-6.21c.06-.06.1-.14.15-.14a2.38,2.38,0,0,1,.38,0Z"/><path d="M118.33,208l-.72.72h-3.14l-.68-.68-.55-.14-.11-.52-.69-.69c.2-.69-.63-1.17-.33-2l.29-.33v-.74l.39-.42v-.3l1.34-1.42h.77l.33-.32h1.62c.23.43.64.32,1,.34l1.39,1.53c0,.3.68.66.43,1.3l.38.42v.75l-.38.42v.74a6.2,6.2,0,0,0-.67.69,2.41,2.41,0,0,0-.24.65Z"/><path d="M151.79,188.71l-.39.41v.6l-.5,1c-.18.16-.65.06-.83.46-.37-.1-.56.18-.77.38h-2.53l-.83-.42-1.29-1.28-.47-.9v-2.11a13.18,13.18,0,0,1,.94-1.46c.88-1,.93-1.06,2-1.09h.19c.2-.13.4-.26.61-.38,0,0,.12,0,.21,0l.42.37h1.11l.81.77.43,0a5.61,5.61,0,0,0,.23.65c.05.11.17.18.27.28v.75l.39.41Z"/><path d="M197.89,306.3c-.22-.42-.74-.35-1.07-.64s-.2-.87-.66-1.07v-.85l1.07-.19.09-.48-.43-.43c-.16-.17-.37-.31-.37-.61,0-.15-.18-.3-.33-.55V300c.59-.53,1.08-1.36,2-1.67h2.68a4.88,4.88,0,0,1,2.21,2.19l-1.3.95,1.61,1.61v1.14l-.37.4V305l-1.34,1.34Zm.37-3.06c-.13.32-.13.32.59.44l.51.74c.42-.08.77.12,1-.23-.27-.56-1-.51-1.33-.95Zm2-2.35-.46-.8-.61.28.11.52C199.7,300.92,200.06,301.11,200.25,300.89Z"/><path d="M69.39,177.05,68.83,176v-5.66l1-.88h6.39l.53.49v6.6l-.53.53Zm5.54-2.51c0-.93,0-1.88,0-2.84a1.44,1.44,0,0,0-.13-.32l-.4-.4H71.24l-.49.53v3.38l.52.63h3l1.06-.55Z"/><path d="M211.45,137.34c-.22.42-.38.74-.56,1.07h-6.57l-.88-1v-5.53l.51-1h7l.4.39a1.1,1.1,0,0,1,.12.33C211.45,133.53,211.45,135.5,211.45,137.34Zm-1.91-1.79v-2.68l-.57-.53h-3.48c-.08.08-.15.13-.15.17q0,2.09,0,4.17s.07.1.14.18h3.4l1-.53V136Z"/><path d="M226.74,121.41l-.55.56h-6.52l-.54-.52v-7c.08-.07.12-.14.18-.15s.25,0,.38,0H225l.35-.35.4.3.84.09a1,1,0,0,1,.13.34C226.75,117,226.74,119.18,226.74,121.41Zm-6.11-5v3.43s.08.09.18.2h3.71a.34.34,0,0,0,.17,0,.92.92,0,0,0,.14-.14v-3.79s-.07-.09-.14-.18h-3.52Z"/><path d="M155.85,159h-7.34a.35.35,0,0,1-.13-.14.34.34,0,0,1,0-.18V152l.53-.56h6.57l.55.53v6.86S155.92,159,155.85,159Zm-5.07-1.49h3.12l.53-.54v-3.53l-.54-.5h-3.43l-.58.55a1.27,1.27,0,0,0,.37.79v1.84l-.54.79Z"/><path d="M69.59,212.08l1.14,1.14V214l.28.28a2.72,2.72,0,0,1,.07,1.27c-.4.23-.36.62-.35,1.12-.63.54-1.1,1.37-2,1.69H66.39c-.37-.33-1.11-.33-1.29-.86a3.31,3.31,0,0,0-.86-1.19v-2.86a4,4,0,0,1,.48-.33c.36-.17.15-.59.4-.79s.38-.31.58-.44.43-.21.77-.37h2.08Z"/><path d="M287.16,282.6c.06.41.48.55.67.86a10.42,10.42,0,0,1,.45,1.06v2c-.46.6-.49,1.68-1.62,1.75h-2.35a1.9,1.9,0,0,0-.35-.3,2.83,2.83,0,0,0-.52-.14,2.13,2.13,0,0,0-.65-1.07,4.89,4.89,0,0,1-.58-1.07v-3.28c.44-.53.56-1.29,1-1.82s1.32-.55,1.83-1.08h1a4,4,0,0,1,1.89,1.37c-.14.36.26.5.33.69l-.51,1h-.58c0-.51-.43-.3-.64-.46s-.46-.58-.83-.69H285l-.6.57.2.57h.42l.58-.48.61.49Zm-2.41,1.52-.64.55v1.18l.95.95h.55l1.19-1-.05-.84-.2.15-.66-1Z"/><path d="M149.89,286.09v-1c.45-.27.37-.87.74-1.22.12-.13,0-.48,0-.7l-.35-.34v-2.05l1.21-.84.52-.06.3-.31h1.1l1.68.88c.21.42.51,1,.82,1.59l-.69,1.22v.56l.76,1.37v.93a4.37,4.37,0,0,1-2.09,2.19H152c-.22-.08-.34-.5-.83-.33l-.46-.55c-.15-.19-.3-.38-.43-.58A7.59,7.59,0,0,1,149.89,286.09Zm1.91-.16c.68-.09.18.59.55.84h.83l.88-.87v-.77l-.51-.61h-1.19l-.56.55Zm.89-3c.54-.26,1.09-.4,1.37-.91l-.53-.54c-.43,0-.88-.14-1.32.13v.85Z"/><path d="M140.33,50.64v.8l.28.28a2.72,2.72,0,0,1,.07,1.27l-.54.54H133.6l-.52-.62V51.85c1.06-1.71,1.69-3.73,3-5.53l.05-.77h1.29l.59.52v.78c.24.23.46.46.69.69s-.05.69.25,1C139.49,49.22,139.55,50.18,140.33,50.64Zm-3.27-2.07-.28.28c-.09.09-.27.22-.25.27.18.51-.62.66-.41,1.16a.93.93,0,0,0-.25,1.31h2l.47-.5C137.91,50.22,137.49,49.4,137.06,48.57Z"/><path d="M137.27,288.33h-2l-.3-.2c-.34-.25-.93-.24-1-.68s-.61-.77-.51-1.33c0-.2-.17-.43-.34-.84V282.8l.35-.4v-.69c.14-.29.58-.41.38-.77a4.11,4.11,0,0,1,1.89-1.4h1c.07.07.14.2.25.25.42.21.85.39,1.35.61.15.8,1,1.43.88,2.39l.35.39v1.53c-.11.11-.28.21-.27.29,0,.69-.61,1.2-.49,1.83Zm-2.3-5.91v3.43c.44.31.65.93,1.26,1l1-1V282l-.53-.5h-1.18C135.29,281.79,135.33,282.22,135,282.42Z"/><path d="M111.25,82.57v1l-.56.55H104.2l-.55-.52V82.32l.71-.49v-.91l.79-.83v-.75l.67-.68a3.45,3.45,0,0,1,1.45-2.54H108Zm-5-1.3c0,.42-.13.87.15,1.31l.41-.33c.67-.17,1.44.15,2.23-.21l-1.45-2.88c-.39.26-.48.7-.71,1S106.72,81.05,106.29,81.27Z"/><path d="M84.38,102.94c.54.36.57,1,1.05,1.49a5.28,5.28,0,0,1,.83,1.54c.25.53.5,1.07.79,1.58a8.79,8.79,0,0,0,.85,1.63v1.56c-.08.07-.13.15-.17.15H80.84l-.51-.58a1.32,1.32,0,0,1,.15-1,11.14,11.14,0,0,0,1-1.89,10.62,10.62,0,0,1,.86-1.72c.41-.6.48-1.37,1-1.88.11-.1.07-.34.09-.47Zm.88,6v-.78c-.36-.69-.65-1.27-1-1.86h-.39c-.26.52-.51,1-.81,1.56a1.09,1.09,0,0,0,0,1.08Z"/><path d="M238.7,81.45h-2.1c-.41-.34-1-.42-1.36-.86s-.8-.81-1.22-1.23v-.74l-.39-.43V77.06l.38-.41v-.56a4,4,0,0,1,1.38-1.9,2.93,2.93,0,0,0,1.66-.56,1,1,0,0,1,1.17,0c.54.25,1,.68,1.67.58.67.39.69,1.3,1.37,1.67V77l.38.49c.07.45-.26.52-.37.76v.58l-.51,1A5.21,5.21,0,0,1,238.7,81.45Zm-3.15-2.92h.25l.62,1h2.32l.62-.52v-2.7l-.94-1h-1.56l-1.31,1.4Z"/><path d="M10.89,280.3l.39,0,.71-.71h1.52c.35.21.77.45,1.16.71s.55.79.84,1.17-.13,1.08.52,1.32v2.3l-.37.4v1.15a1.11,1.11,0,0,0-.43.77.77.77,0,0,1-.52.52,1.08,1.08,0,0,0-.77.42h-2.3l-1-.95V287L10,286.3v-4.21Zm2.67,1.15H12.4l-.53.54v4c.49.17.58.85,1.33.83l.91-1v-3.29Z"/><path d="M205,280.5c-.18.51.58.67.38,1.2s.53.65.39,1.18a5.9,5.9,0,0,0,0,1.33v1.53a6.5,6.5,0,0,0-.77,1.59c-.2.6-.94.52-1.3,1h-1.9c-.36-.39-1-.4-1.32-.88l-.45-1.56-.37-.41v-3l.38-.4v-.71l1.34-1.39c.41.15.55-.25.81-.37h.93ZM202.52,287l1.25-1.11v-3.77l-.5-.67h-1.21l-.55,1.07v2.86Z"/><path d="M144.72,279.91c.42.15.55-.26.82-.37h1c.56.34,1.25.53,1.62,1.12s.6,1.15,1,1.87v3.28a6.07,6.07,0,0,0-.77,1.55c-.17.59-.94.51-1.3,1h-1.92c-.11-.11-.24-.34-.39-.35-.6,0-.79-.41-1-.91a8.73,8.73,0,0,0-.75-1.29v-3.36l.39-.41v-.68Zm.19,2.62v3.38c.52.13.58.94,1.36.9.26-.31.56-.64.9-1V282l-.54-.5h-1.16Z"/><path d="M271.87,283.16l.37.4v.75l-.37.42v1.35l-.57,1.1-1.12,1.11H267.9l-1.28-.75a4.78,4.78,0,0,0-.87-2.18v-2.1c0-.18,0-.47.08-.53.57-.34,0-1.13.65-1.48.11-.06,0-.44.27-.62s.42-.53.69-.65.59-.14.77-.43h1.55c.11.11.25.34.39.35a1,1,0,0,1,1,.73c.24.48.47,1,.77,1.58Zm-3.22,3.77,1.67-1.66v-2.43c-.37-.49-.43-1.1-.95-1.39h-.75l-.92.91v3.15Z"/><path d="M150.93,30.54c.65.23.85.75,1.26,1v.8l.73.73,0,.87.74.51v.91l.78.83v.74l.81.81-1.15.6.22.26h-6.54l-.63-.52c.08-.34,0-.62.16-.94,1-1.85,1.87-3.82,2.91-5.67C150.21,31,150.65,30.85,150.93,30.54Zm-1.42,6.17h2.85s.09-.08.14-.15,0-.21.08-.46l-.77-.55v-.89c-.29-.23-.4-.68-1-.6Z"/><path d="M18.9,279.54H20l.42.37h.71c.79.5.79,1.48,1.38,2.13v4.17c-.15.24-.51.39-.38.76l-1.32,1.36H18.65l-1-.55,0-.39-.77-.81v-.74l-.28-.28c0-.05-.09-.1-.09-.15,0-.89,0-1.77,0-2.65.63-.27.19-.95.57-1.32s.34-.74.66-1.07S18.55,280,18.9,279.54Zm1.15,7.26L21,285v-2.22c-.42-.44-.41-1.11-.93-1.31h-.75c-.6.3-.5,1-.95,1.35v2.65c.44.35.39,1,.95,1.33Z"/><path d="M240.89,88.51l0-.41c.48-.22,1-.42,1.44-.65.1,0,.17-.18.25-.26h2.3l.41.38.38,0c.54.54,1.08,1.07,1.66,1.66v3.53a2.6,2.6,0,0,0-.9,1.29l-.41,0-.71.71h-3.14c-.39-.09-.45-1-1.2-.7-.06-.29-.1-.47-.13-.64-.23-.22-.45-.45-.7-.7V91.71l-.48-.69c.13-.2.27-.39.44-.63V89.32Zm4,.59h-.72l-.62-.46a2.63,2.63,0,0,1-.64.44,2.43,2.43,0,0,1-.71,0l-.56,1.08V92l1,1h.76l.4.37.4-.36c.46-.08.93.19,1.31-.19V91.61l.37-.41-.38-.43V89.66Z"/><path d="M72.25,286.14l-.61,1.07-1.1,1.12H68.25l-.42-.39h-.37c-.29-.58-.59-1.16-.94-1.84v-4.42a1.49,1.49,0,0,0,.39-.86,9.47,9.47,0,0,1,.79-.73,9.06,9.06,0,0,1,1-.55h1l.4.38H71c.41.57.83,1.17,1.29,1.83Zm-3.56-4.38-.64,1.11v2.6c.45.35.39,1.06,1,1.33h.75c.19-.36.38-.72.55-1V282l-.54-.51H69Z"/><path d="M3.49,279.54l.87.45,1.16,1.09.54,1.07v3.74c-.43.23-.33.63-.34,1a3.6,3.6,0,0,1-1.9,1.41H2.14c-.4-.37-1.12-.37-1.4-1A3.38,3.38,0,0,0,0,285.87v-3.43a15.83,15.83,0,0,0,.89-1.69c.33-.61,1-.85,1.69-1.21Zm.7,3.24V282l-.17.16-.37-.76-.6,0-1.14.88v3.53c.4.3.62.79,1.09,1,.89-.31,1.1-1.14,1.57-1.82v-1.83Z"/><path d="M176.65,297.69l-.39.42v.73l-.39.45v1.49l-.33.32v2.37l.32.32v1.86l.39.47v1.09l.38.43a2.55,2.55,0,0,1-.11,1.3h-1.16a1,1,0,0,1-.64-.94c-.57-.76-.85-1.69-1.37-2.48-.2-.31-.08-.6-.16-.93l-.36-.39v-3.81c.42-.22.36-.73.64-1.07s0-.93.48-1.33a2.92,2.92,0,0,0,.47-1.12l.85-.85h1.22c.07.06.15.11.15.15C176.65,296.68,176.65,297.19,176.65,297.69Z"/><path d="M64.26,140.13a6,6,0,0,0,1.52-3l.92-1h.78c.43.29,0,.86.39,1.18s.16.72.55.91c-.21.5.61.66.4,1.16.52.46.58,1.16.93,1.71s.5,1.08.83,1.56c.21.31.08.6.17,1l-.69.52H63.68l-.6-.52V143A9.17,9.17,0,0,0,64.26,140.13Zm1.2,2.12h2.21c.23,0,.51.12.7-.13A11,11,0,0,0,67,139.19a.61.61,0,0,0-.19,0c-.06,0-.14,0-.16.07a21.8,21.8,0,0,1-1.26,2.51C65.34,141.87,65.42,142,65.46,142.25Z"/><path d="M91.39,102.82c1.11-2.21,2.16-4.32,3.22-6.44h.82l.89,1v.71l.79.6v1l.78.73v.71l.72.72v.82l1,.58-.92.7H91.52C91.24,103.55,91.43,103.1,91.39,102.82Zm5.34-.84c-.17-.45-.86-.57-.77-1.19-.47-.33-.32-1.08-1-1.35-.36,1-1,1.79-1.3,2.78,0,0,.06.11.09.17.27.2.59.07.9.09a10.65,10.65,0,0,0,1.13,0c.3,0,.63.13.89-.13Z"/><path d="M205.14,309h-.79l-.5-.56c0-.81,0-.81.71-1.91v-2.28l.39-.41v-2.67l-.25-.24c-.06-.07-.13-.12-.13-.17,0-.76,0-1.52,0-2.26a3.7,3.7,0,0,1-.79-2l.76-.5h1a2.41,2.41,0,0,0,.24.65,6,6,0,0,0,.66.67V298l.76,1.34v1l.35.46v3l-.35.44a4.73,4.73,0,0,0,0,.64,1.11,1.11,0,0,1-.33.83c-.12.16,0,.49-.07.72a3.55,3.55,0,0,1-.37.61c-.06.1,0,.28-.12.32C205.75,307.75,205.75,308.58,205.14,309Z"/><path d="M216.61,288.33c-.18-.24-.51-.37-.58-.74l.63-1.25c.32-.32.9-.9,1.5-1.47.27-.25.52-.62.84-.72a1.2,1.2,0,0,0,.88-.82,4.8,4.8,0,0,1,.69-.95l-1.18-.89h-.9c-.43.11-.45.68-.71,1.09h-1.17l-.51-.49c.26-.51.51-1,.84-1.65l1.71-.88H220c.22.08.35.5.74.36a3.81,3.81,0,0,1,1.37,2v1.27c-.68.54-.9,1.44-1.58,2s-1.47.68-1.82,1.48c.31.3.71.11,1.07.14s.76,0,1.14,0a2.42,2.42,0,0,1,1.15.11v.87l-.52.54Z"/><path d="M73.49,205.73l-.18-.69-.52-.11-2.49-2.49.57-1.24L74,198.09h.79a11.57,11.57,0,0,1,1.8,1.9,14.7,14.7,0,0,0,1.8,2.13l-2.31,2.31v.4a2.54,2.54,0,0,0-.65.24,7,7,0,0,0-.68.66Zm-1-3.36c.39.24.69.39,1,.6s.53.62.89.81l1.6-1.59L74.3,200.5a2.24,2.24,0,0,1-.82.38C73.47,201.5,72.86,201.74,72.53,202.37Z"/><path d="M147,173.61l3.63,3.63V178l-1.72,1.75h-.38a1.38,1.38,0,0,0-.57.92c-.55.18-.94.78-1.82.5a8.88,8.88,0,0,0-.92-.9c-.37-.31-.6-.75-1.12-.95a2.93,2.93,0,0,1-.93-.73l-.45-1s0-.07.06-.15a7.44,7.44,0,0,1,1.87-2.26l.52-.14c0-.11.08-.22.11-.33.15-.52.67-.72,1-1.12Zm0,5.34.74-.7.58-.16v-1l-.61-.49c-.29-.23-.47-.59-.86-.71-.37.17-.75.32-1.11.51s-.39.89-.78,1.17l1.38,1.37Z"/><path d="M103,196.94c-.34.47-.66,1-1,1.45s-.8.82-1.2,1.22H99.68L96,196a10.53,10.53,0,0,1,.64-1.05,8.83,8.83,0,0,1,.8-.82,2.58,2.58,0,0,1,1-.71c.28-.1.7-.39.48-.85l1.18-.57c.07,0,.16,0,.19,0l3.6,3.6c.09.36-.12.51-.27.71a2.39,2.39,0,0,0-.23.65Zm-2.59-2.71c-.33,0-.42,0-.45.06L98.24,196l1.81,1.7s.12,0,.16,0c.38,0,.35-.3.34-.63.32-.3.69-.64,1-1,.07-.07.07-.22.1-.33s0-.13,0-.17Z"/><path d="M160.63,174.38h.92a7,7,0,0,0,1,.93c.41.28.29.8.65,1.08a8.83,8.83,0,0,1,.82.8l.86.86c-.08.24-.09.38-.17.45-1.15,1.17-2.32,2.34-3.49,3.51h-.75a2.63,2.63,0,0,0-.82-1.14h-.36l-2.06-2.06v-1Zm1.11,2.86v-.39l-1-.51c-.54.7-1.36,1.14-1.8,2.18.86-.1,1.14.51,1.58.91a.69.69,0,0,0,.71.28c.39-.4.84-.84,1.27-1.29,0,0,0-.11,0-.18C162.49,177.73,162,177.59,161.74,177.24Z"/><path d="M165.35,164.45h.75l3.29,3.25c-.11.36.19.54.31.69L166,172.08h-.38l-2.15-2.15-.88-.19-.14-.55-.68-.72a11.43,11.43,0,0,1,.66-1.1,8.73,8.73,0,0,1,.8-.81C164,165.84,164.68,165.13,165.35,164.45Zm1.74,4.38v-1.14l-1-1h-.78l-1.19,1.2c-.08.08-.09.22-.14.33s0,.15,0,.18c.43.46.88.92,1.29,1.34h.81Z"/><path d="M136.67,180.88l.56,1-3,2.95-.14.57c-.53.2-1.1,0-1.62.1l-1-1v-.43l-.7-.23-.11-.53-1.45-1.45c.08-.28.54-.38.32-.75l2.89-2.88h1.64l.13.6.63.23c.08.22.15.44.23.65h.43Zm-5.2,1,1.23,1c-.09.53.06.73.56.66l1.68-1.69s0-.11,0-.19a.94.94,0,0,0-.86-.8c-.48-.07-.58-.83-1.25-.74l-1.3,1.3A2.4,2.4,0,0,0,131.47,181.86Z"/><path d="M50.07,234.6v-.82l.77-.55c0-.39-.11-.76,0-.87.43-.38.3-1.1,1-1.37h.71c.58.35.71,1,1,1.61s.69,1.23,1,1.87a10.42,10.42,0,0,0,.89,1.69v1.14c-.11.06-.22.16-.32.16h-6a2.71,2.71,0,0,1-.13-1.36c.28-.18.32-.48.43-.77S49.79,234.88,50.07,234.6Z"/><path d="M123.89,206.75v-.83c.25-.32.59-.13,1-.21l.9,1.15v.62l.79.5v1l.79.83v.93l.71.47c.1.59-.27.71-.48,1h-5.84l-.53-.53a.6.6,0,0,1,0-.19c.64-1.4,1.41-2.72,2-4.12C123.36,207.09,123.69,206.92,123.89,206.75Z"/><path d="M109.79,194.64h-.88c-.06,0-.14,0-.17,0L106.08,192l-.59-1.19c.26-.32.68-.61.76-1s.44-.58.6-.88h.4l1.51-1.5h1.06l3,2.95.28.68-.35.68Zm-.44-5.33-1.54,1.54,0,.61c.58.41.89,1.08,1.45,1.29l1.58-1.58c0-.13,0-.37,0-.34Z"/><path d="M65.94,253.91h.77l2.4,2.39c.18.42.35.79.56,1.27-.39.34-.89.61-1.1,1a4.8,4.8,0,0,1-.85,1.18l-1,1c-.2,0-.35,0-.42-.09-.47-.43-.91-.89-1.41-1.39l-.52-.11-.23-.73-1-.9v-.66c0-.06,0-.14,0-.18Z"/><path d="M80.51,254.27l-.21.2,0,.4-1.84,1.79-.15.6c-.54.25-1.11,0-1.68.15l-.17-.54-2.25-2.25v-.92c.43-.43.94-.89,1.39-1.41a16.53,16.53,0,0,0,1-1.43H77.8l1.62,1.62A2.65,2.65,0,0,1,80.51,254.27Z"/><path d="M212.39,279.93h1.2l.51.61v6.75l-.51,1-.86.05-.52-.87v-4.37c-.53-.26-1.1-.08-1.7-.14l-.56-.52a6,6,0,0,1,.83-.91,2,2,0,0,1,.92-.56C212.13,280.82,212.15,280.28,212.39,279.93Z"/><path d="M280.28,287.76l-.54.54h-.83c-.3-.29,0-.88-.54-.86v-4.66a3.62,3.62,0,0,0-1.35.59l-.54-.61v-.7a4.63,4.63,0,0,1,1.5-1.22,8.22,8.22,0,0,0,1.34-1.3l1,1Z"/><path d="M142.23,287.76l-.55.55h-.77l-.54-1,.66-.14c.05-.43.36-.33.66-.32l.54.55Z"/><path d="M74,286.81h.76c.17.27.54.37.55.65,0,.49-.4.55-.49.85H74l-.5-.95C73.53,287.13,73.81,287,74,286.81Z"/><path d="M273,287.38l.53-.54h.87c.24.43.08.87.13,1.29-.22.34-.56.15-1,.23-.11-.2-.25-.48-.54-1.05Z"/><path d="M206.89,287.8V287c.27-.31.61,0,.84-.17l.66.59c0,.61-.34.8-.75.95S207.17,288,206.89,287.8Z"/><path d="M7.66,288.33V287c.28-.29.61-.09.94-.17l.47.57-.49,1Z"/></g></g></svg>