<svg xmlns="http://www.w3.org/2000/svg" viewBox="0 0 325.02 311.67"><title>Recurso 15GRAPHS</title><g id="Capa_2" data-name="Capa 2"><g id="Capa_1-2" data-name="Capa 1"><path d="M318.33,270l.42.38h.38l.55,1.08v3l-1,.91-.88-1.08v-2.1l-.55-.6-.47.37h-67.4v1.85l-.61,1.19h-1.15l-.6-1.15v-2.35l-.59.43H178.77c-.31.4-.15.79-.18,1.16s0,.63,0,1c-.44.36-.39,1.06-1,1.35l-.92-1c-.07-.72.05-1.54-.07-2.4H108.09l-.51-.4a3.93,3.93,0,0,0-.11,1.55c0,.44,0,.88,0,1.31l-.56.57h-1.16c-.43-.3.07-1-.59-1.3v-2c-.32-.23-.33.1-.78.21H36.9c-.34.46-.15.91-.18,1.34s0,.76,0,1.18l-1,.89c-.5-.23-.55-.86-.91-1.33-.09-.61.05-1.3-.09-2H32.88c-.52-.39-1.2-.43-1.48-1l.89-.89c.72-.1,1.54,0,2.35-.06,0-.05.1-.08.13-.14a.34.34,0,0,0,0-.17v-41.3a1.41,1.41,0,0,0-.11-.38H32.33l-.87-1,.37-.82a.89.89,0,0,1,.3-.11h2.48c.31-.24.19-.58.19-.88v-41.9H32.94l-1.19-.61v-1.15c.09-.06.18-.19.28-.19.89,0,1.77,0,2.64,0,.18-1.81.23-23.35.12-42.27-.37-.37-.84-.13-1.26-.17s-.76,0-1.25,0l-.84-1,1.17-.88h2.06c.16-1.67.22-24.3.12-42.67-.45-.31-1-.12-1.45-.15s-1,0-1.45,0l-.49-1.15s.3-.08.43-.26a6.19,6.19,0,0,1,.46-.48h2.3a1.76,1.76,0,0,0,.2-.2.57.57,0,0,0,0-.19V49.93s-.08-.1-.17-.21h-2.7l-.53-.56,1-1h1.85l.56-.55V5.52L34.13,5H31.89l-.47-1,.4-.39c.05,0,.1-.11.14-.11h4.18c.34.27.11.62.27,1l.31.34V269.93H58c-.12-.52-.12-.51-.93-.82l-.11-.51-1.09-1.09v-.82c.56-.36.83-1.18,1.67-1.3l1.4-1.52,1.55.8a13.51,13.51,0,0,0,1.31-1.19h.65l1.4,1.53h.61l1,.95v1.25l-2.61,2.61a78.06,78.06,0,0,0,9.91,0c-.63-.75-1.35-1.33-1.93-2v-1.14l2.45-2.45c.56-.05,1.11,0,1.63,0l.17.63L77.17,267c-.34,1.23-1.47,1.85-2.18,2.79.07.07.12.15.17.15Zm-256.76-.19c-.22-.16-.33-.47-.54-.5l-.63.48A.83.83,0,0,0,61.57,269.79Z"/><path d="M199.91,308.6l-1.79-1.79-.16-.51c-.49.29-.61.78-.87,1.17a9.34,9.34,0,0,1-1.13,1.16h-2.69c-.44.52.14.69.26,1.11l-.85,1.49H191c-.19-.31-.18-.72-.52-.93v-8.77l.94-1h.77l.39.37h1.14l.43-.37h1.75c1,.45,1.09,1.77,2.06,2.26.23-.28.63-.45.54-.92.29-.22.45-.54.9-.62s.56-.46.84-.72h2.28c.23.23.42.55.69.66.46.2.85.34,1,.89a3.13,3.13,0,0,1,.4,1.41l.55.14a3,3,0,0,1,.25-.68c.15-.2.37-.34.3-.65l1.89-1.77h2.55a2.27,2.27,0,0,1,.48.54c.18.36.84,0,.82.58,0,.4.52.54.41,1,0,.1.24.27.34.38V305l-.55.55c-.43,0-.86,0-1.46,0,.52.38.52.38,1.48.4.35.38.09.84.17,1.26a4,4,0,0,1-1.88,1.39h-2.51c-.12-.11-.25-.35-.39-.35a1,1,0,0,1-1-.73c-.43-.91-.87-1.81-1.36-2.82-.09.3-.16.5-.22.71-.43.34-1-.06-1.43.28.17.58.69-.05.75.08l.75.76c0,.14,0,.36-.15.47s-.2.43-.29.65-.44.16-.62.29a6.14,6.14,0,0,0-.68.67Zm-6.41-5.55v3.07l.52.51,1-.47v-2.42l-.88-1.3Zm16.44,2.68c-1.12-.27-1.63-.28-1.91,0l.05.44,1,.46Zm-7.32-.06c-.34-.25-.73-.12-1.09-.12a1.63,1.63,0,0,0-1.16.17c.26.26.51.52.77.76a1.1,1.1,0,0,0,.26.15l.68-.68C202.27,305.87,202.58,306.05,202.62,305.67Zm-.72-2.07a1,1,0,0,0-.55-1.05l-.62.51.13.54Zm7.63,0c.12-.62-.27-.79-.49-1,0,0-.09,0,0,0l-.67.53.15.53Z"/><path d="M160.62,308.48a1.64,1.64,0,0,0-.67-.34,2.21,2.21,0,0,0-.65-1.08,4.46,4.46,0,0,1-.58-1.07v-2.16l-.61-.57c-.46-.09-.59.26-.83.45,0,.05-.09.09-.1.15a.53.53,0,0,0,0,.18v3.56l-.94,1h-1.16c-.57-.28-.53-1-1-1.33v-5l.4-.43v-.74l.55-.56h1.15l.47.44.61-.28c.26-.26.58-.13.89-.16s.5,0,.79,0l.15.56a1.57,1.57,0,0,0,1,.21l.37-.76h2.25l.4.37h.75l.4-.37h1.14l.56.55v.75l.39.42c0,.43,0,.86,0,1.33.66-.24.21-.7.4-1a2.54,2.54,0,0,0,.91-1.32h.41l.72-.72h2.27c.42.34,1.05.45,1.47.95s.43,1.19,1.08,1.43c0,.81,0,1.57,0,2.34,0,0-.07.09-.17.21h-1.62c.06.64.52.26,1,.51l.5.5c-.19.32-.45.56-.48.82a1,1,0,0,1-.51.74,5.16,5.16,0,0,1-1.05.45h-2.83a4.89,4.89,0,0,1-1.89-2.69c-.14.14-.22.19-.22.23,0,.76,0,1.53,0,2.1l-1.3,2.63-.46.1-.38.36h-1.13l-.28.28c-.43.14-.85.22-1.2-.26H160l-.88-1.19v-1.43c.49-.2,1,0,1.5-.21,0,.23.07.42.13.43a2.52,2.52,0,0,1,1.34.44c.17.11.47,0,.64,0l.6-.64-.18-.5h-.42l-.41.38A8.06,8.06,0,0,1,160.62,308.48Zm1.72-6c-.56.27-.5,1-.92,1.3v1.63c.47.34.31,1.11,1,1.22l.83-1.32v-1.88Zm7.61,4.11c.28-.11.49-.19.7-.29s.35-.2.53-.71h-1.63s-.08.08-.13.13v.42Zm1.15-3a8.17,8.17,0,0,0-.69-.68c-.16-.12-.22-.42-.51-.37l-.52.55.14.5Z"/><path d="M125.61,300.57h2.69c.13.13.32.29.48.48.32.39,1,.26,1.2.81s.34.87.54,1.3c0,.11.17.18.26.27v2.68c-.75.56-.88,1.64-1.79,2l-.82.41h-2.5a12.39,12.39,0,0,1-1.14-.69,11,11,0,0,1-1-1c0-.16,0-.34,0-.53s0-.23-.09-.39l-.54-.08a2.28,2.28,0,0,1-.25.68c-.16.2-.33.37-.26.67L121,308.6h-2.25l-.4-.38c-.42-.15-.54.27-.82.38h-1.08l-1-1.15v-4c-.4-.35-.86-.11-1.31-.18l-.56.54v3.33l-.87,1.45h-1.36l-.59-1-.18.18a1.5,1.5,0,0,1-.09-.35v-5.78l.92-1h1.18l.5.44.81-.45h1.39c.29-.34.13-.67.16-1a6.28,6.28,0,0,0,0-.75l.57-.58h1.88s.09.07.21.15v2c.53.3,1,.1,1.54.14s.89,0,1.35,0l1.34,1.36c-.07.26.08.44.25.64a2.35,2.35,0,0,1,.26.68l.59-.07,0-.8C123.91,301.48,125,301.38,125.61,300.57Zm2.5,5v-2.11c-.43-.31-.65-.92-1.17-1l-1.09.94v2.37c.42.31.62.83,1,.91Zm-7.59-1.06-1-2c-1-.08-.79,1-1.31,1.33a2.91,2.91,0,0,0,.08,1.25l.29.29v.74c.28.22.4.67.94.59l.6-.59V305Z"/><path d="M146.08,305.54a1.25,1.25,0,0,0,.87-1.09l1-.1.13-.53a3.08,3.08,0,0,1-1.48-1.06,3.7,3.7,0,0,1,2-2.16h2.76l.54.73h.57a2.9,2.9,0,0,0,.16.47,5.28,5.28,0,0,0,.35.52v1l.39.46V308l-.51.54H151.3l-.62-.4-.64.42h-2.25l-1.6-1.59-.15.7-.92.9H144l-.92-1v-4.51l-.51-.54c-.32,0-.31.34-.63.35-.06,1.49,0,2.93,0,4.39-.28.18-.33.47-.43.77s-.33.37-.49.54h-1.17l-1-1v-8.83l.62-.51h1.92a2.27,2.27,0,0,0,.53,1v1.09c.07.07.11.15.16.15h2.31l1.33,1.47v.63l.39.41v2.48c-.39.23-.39.23-.22.73C146.27,306.13,146,305.79,146.08,305.54Zm4,0-1,.57.23.58h.08l1-.57-.23-.58Zm-1.31-2.11c.33.33.67.13,1,.2l.53-.54-.37-.52Z"/><path d="M203.41,233.27V232l.56-.61h4.58l.54-.46,1.26.65a2.24,2.24,0,0,1,.31.31v5.81l-.52.55H204.4l-.56.56v.74l-.54.57h-5.87L196.6,239V234.3l.54-1Z"/><path d="M165,242.44h-5l-.56-.56v-5.74l.51-.54h5.82l.41.41a.88.88,0,0,1,.12.33c0,.95,0,1.9,0,2.85.24.31.58.19.87.19h4.64l.48.44a.38.38,0,0,1,.13.37v5.5l-.57.57h-5.73l-.51-.49a1.53,1.53,0,0,1-.07-.36c0-.7,0-1.39,0-2.09C165.61,242.93,165.31,242.79,165,242.44Z"/><path d="M148.19,252c-.36-.44-1.06-.39-1.34-.95v-5.23l.57-1.11h1.71c0-1,0-1.94,0-2.76l.93-1h5.77l.57.56c0,2.15,0,4.32,0,6.48,0,.05-.08.1-.18.21h-2a3.73,3.73,0,0,0-.12,1.54c0,.45,0,.89,0,1.31-.28.58-1,.53-1.34,1Z"/><path d="M239.2,300.57l.67.67c.19.2.55,0,.7.45a4.12,4.12,0,0,1,.36,1.36l.35.4v2.11c-.17.39-.27.61-.36.83s-.55,1.43-.6,1.47l-1.2.74h-2.28c-.28.6,0,1.18-.13,1.59l-.56,1.08h-1.92l-.59-1.14v-6.72c-.35-.27-.66-.13-1-.14l-.55.54v3l-.39.43V308l-.56.56H230l-.91-1v-6.1l1-.89h1l.61.44.62-.46h1.47l.41.37.32-.33h1.24l.76.77.45-.81Zm-1.49,1.94-1,1v2.06l.84,1.11,1-.87v-2C238.18,303.46,238.24,302.76,237.71,302.51Z"/><path d="M258.32,198.09l.42-.05c.23-.22.45-.45.7-.7h3.18l.9,1.12.55,0,.55,1.07v.61l.39.42v1.14c-.61.54-.61,1.42-1.2,2s-1.3.62-1.86,1.06v.76l.7.7a3,3,0,0,0,.54,1.65c.31.51.43,1.18,1.05,1.43v1.58c-.1.06-.2.18-.3.18h-7.18c-.31-.48-.06-.93-.15-1.2l2.61-5.17-.66-.65c-.27-.27-.67-.5-.77-.83s-.37-.54-.39-.78a1.64,1.64,0,0,0-.42-.78v-1Z"/><path d="M192.17,155.64l.55.56v6l-.51,1h-7l-.52-.52v-.78l-.64-.58h-5.32c-.09-.11-.16-.16-.16-.2v-7.24l1.08-.56h5.57l1.38.86v1.27a1.24,1.24,0,0,0,.39.14Zm-7.47,3.64v-3.46l-.54-.52h-3.53l-.49.53v2.29l.28.36-.41.74.59.6h3.53Zm2,2.33c.09.07.13.14.18.14h3.42l.54-.55v-3.52l-.56-.52H187a.52.52,0,0,0-.18,0,1.66,1.66,0,0,0-.14.13Z"/><path d="M253.16,307.51l-.56,1.07h-1.55l-.54-.51v-4.46l-.61-1.07-1,.89v4.2l-.94,1h-1.16l-1-1c0-1.65,0-3.3,0-4.95,0-.05-.07-.1-.12-.14-.48-.26-.65.19-.92.4a.51.51,0,0,0-.09.16.57.57,0,0,0,0,.19v4.28l-1,1h-1.08l-1-.94V301.9c.44-.35.39-1.06.95-1.33h1.14l.4.37h.75l.4-.35h1.92l.72.72h.84l.45-.74h2.17c.37.29.6.81,1.19.81,0,0,.1.2.15.31l.39.71Z"/><path d="M318.55,288.52l-.32.31a3.58,3.58,0,0,1-.63,1.78c-.35.55-1,.75-1.64,1.12h-1.47c-.33-.08-.44-.81-1.09-.72-.29-.82-1.06-1.44-1-2.44l-.52-.66c-.16.14-.24.19-.24.23,0,.38,0,.77,0,1l-1,1.85h-.39l-.61.66c-.53.24-1,0-1.5.13-.67-.37-1.42-.61-1.8-1.27a21.2,21.2,0,0,1-.84-1.95v-2.71l.35-.4c-.26-.59.31-1,.42-1.52s.94-.51,1.3-1h1.91c.19.37.65.3.92.53s.54.54.81.8v.77l.27.27c.33.43-.12,1,.28,1.43l.6-1c-.26-.57.28-.91.42-1.36s.56-.65.86-1l.42-.43h2.28c.35.47,1.24.33,1.36,1.08.08.47.75.77.33,1.31l.45.47Zm-8.82-3.14c-.45-.19-.58-.81-1.22-.88-.42.19-.67.66-1.05,1v3.47c.39.25.6.75,1.12.94l.64,0,.51-.55Zm6.9,0c-.48-.18-.6-.9-1.22-.92l-1,.93v3.83l.51.6h.81l.94-.94Z"/><path d="M164.44,285.85l.3-.31a6.18,6.18,0,0,1,.45-1.49c.22-.63.87-.6,1.5-1.14,0,0,.36.09.67.07s.63,0,.95,0c.5.32,1.2.39,1.47,1a5.41,5.41,0,0,0,.78,1.53v1.06c.16.26.34.24.32.08-.06-.44.49-.62.42-1-.11-.51.31-.78.42-1.18a6.9,6.9,0,0,1,.47-1l1-.5h2.16l.4.38.42,0c.2.86,1,1.49.92,2.47l.35.39v1.92l-.32.32v1c-.38.47-.51,1-.89,1.43s-1,.3-1.18.81h-1.67l-.58-.74h-.5l-.56-.56v-.74l-.4-.43v-.76l-.55-.53c-.06.06-.2.13-.2.21,0,.36,0,.71-.3,1-.17.16-.06.6-.17.87a6.92,6.92,0,0,1-.54.9l-.37,0-.71.7H167c-.48-.39-1.23-.5-1.58-1.13s-.6-1.15-.95-1.84Zm11.09,3.06v-3.05c-.47-.33-.35-1.06-1-1.33h-.79l-.56.5a1.52,1.52,0,0,1-.33,1.26v2.15c.35.56.44,1.15,1,1.41h.72Zm-9.18.41.57.5h1.2l.51-.54v-3.83c-.4-.3-.62-.81-1.15-1-.49.22-.74.69-1.13,1Z"/><path d="M105.65,266.15h-.93c-.6-.23-.82-.93-1.41-1.15-.13,0-.27,0-.35.12-1,1-2,2-3,3a5.15,5.15,0,0,1-1.67-1c-.61-.65-1.25-1.27-1.9-1.91v-.71l4.09-4.08h1.13l.74,1.12.6,0c.46-.22.71-.69,1.1-1s.6-.82,1.06-.94c.14,0,.23,0,.26,0l2.85,2.85v1.08Z"/><path d="M218.17,308.6l-.4-.37H217l-.4.35H214.7a5.79,5.79,0,0,1-1.19-1.25,4.44,4.44,0,0,0-.87-1.2V303l.74-.5v-.58l1.34-1.35h1.91l.4.37c.06-.06.14-.1.14-.15,0-.63,0-1.26,0-1.89l.56-.59h2.07a2.17,2.17,0,0,0,.09.54,2,2,0,0,0,.36.4v8c-.45.36-.39,1.06-.95,1.33Zm-1.89-6.09c-.59.3-.65,1-.94,1.38v2c.48.16.57.84,1.37.82l.5-.73v-2.51Z"/><path d="M131.18,264.06l-1.84-1.84c0-.57-.78-.88-.4-1.51l1.81-1.81.29,0,.19-.66c.52-.28,1.1,0,1.58-.13l.55.42c.18,0,.27,0,.3,0l1.49-1.48c.2.12.39.24.59.34s.64.31,1.13.55l2.7,2.69v.78l-.75.78c0,.14,0,.26,0,.17l-2.31,2.31A9.52,9.52,0,0,1,134,263.1l-1.5,1.5s-.12,0-.21,0Z"/><path d="M189.87,248.18l-.56-.56v-6.13l.52-.54H196c.12.3.24.57.22.52a5.3,5.3,0,0,1,.3.45,1.21,1.21,0,0,1,0,.19v5.49l-.57.58Z"/><path d="M118,253.15c-.13-.26-.26-.53-.4-.79a.8.8,0,0,0-.13-.13.58.58,0,0,1,0-.18v-5.16a2.17,2.17,0,0,0,.52-1h6.18l.45.41c0,.08.11.13.11.18a2.38,2.38,0,0,1,0,.38v5.68l-.57.58Z"/><path d="M256.21,156.58c0,.3-.07.6,0,.67.57.4.11,1.25.74,1.64v5.34l-.37.4v.75l-.39.41c.22.56-.22.94-.39,1.38a.92.92,0,0,1-.95.71c-.5.58-1.35.52-1.85,1.08a12.81,12.81,0,0,0-1.21-.66,2.93,2.93,0,0,1-1.36-1.33c-.27-.4-.3-.94-.74-1.23.08-.46-.19-.8-.34-1.2a4.14,4.14,0,0,1,0-1.45l-.35-.34v-2l.33-.33v-1.87l.4-.46c0-.22-.09-.53,0-.71a7.06,7.06,0,0,0,.73-1.42c.22-.49.71-.69.86-1l.46-.21c.37-.24.42-.3.47-.3H254c.45.29,1.1.34,1.34.86A3.71,3.71,0,0,0,256.21,156.58ZM255.07,160V158.9l-.4-.42v-1L253.35,156h-.72l-1,.93V158l-.73,1.3v4.53c.27,1,.85,1.51.78,2l.73,1.12c.93.39,1.28-.25,1.82-.31.2-.62.66-1.19.46-1.91.48-.33.32-.89.49-1.32,0-.11.17-.19.28-.3,0-.8,0-1.63,0-2.45a1.39,1.39,0,0,0-.1-.33Z"/><path d="M139.39,241.68l.55.55v5.83l-1.08.85h-5.29l-.83-1.15v-5.54l.53-.54Z"/><path d="M223.71,236.89c-.3.51-.9.61-1.43,1h-4.87c-.28-.18-.41-.68-.94-.32v-6.37l.49-.52h6.21l.54,1Z"/><path d="M170.54,190.45h1.26c1.08,1.09,2.16,2.16,3.32,3.32v.92L171.76,198h-1l-.29-.28a1,1,0,0,0-.25.15,5.48,5.48,0,0,1-1.71,1l-.33-.81a5.28,5.28,0,0,0-1.34-1.16c-.67-.32-1-1-1.56-1.31v-1.09l3.33-3.34H170Zm-2.66,5a1,1,0,0,0,.62.72c.05-.11.14-.21.13-.3a1.41,1.41,0,0,0-.16-.42.92.92,0,0,0-.55.1c-.08-.29,0-.59-.39-.33A1.18,1.18,0,0,0,167.88,195.41Zm4.21-1.91v.62a2.21,2.21,0,0,1,.48.15,3.67,3.67,0,0,1,.53.34c.38-.64-.23-.79-.44-1.11h-.57v-.57c-.23-.16-.33-.49-.71-.5l0,.51C171.61,193.12,171.71,193.5,172.09,193.5Z"/><path d="M261.57,151.39c.46-.9.86-1.69,1.33-2.63l1.12-1.12h2.24l1,.49c0,.12,0,.37.1.45.65.51.79,1.41,1.48,1.88v1.14l.39.41v5l-.39.41v1c-.26.88-1,1.44-1.37,2.27l-.37,0-.71.7h-2c-.18-.18-.41-.61-.71-.67-.66-.14-.8-.59-1.09-1.07a7.56,7.56,0,0,0-1-1.87Zm1.53,1.76v3l.39.42v.92a3.89,3.89,0,0,0,1.35,1.91h1.09l1-.94v-.76l.38-.42a1.4,1.4,0,0,1,.35-1.17v-3l-.36-.36a2.85,2.85,0,0,0,0-1.05,2,2,0,0,1-.34-1.32c-.4-.38-.86-.81-1.33-1.23,0,0-.12,0-.18,0h-.55c-.83.46-.77,1.49-1.45,2.16v1.52Z"/><path d="M133,177.05l-1.05-.54v-7.36l1.12-.47H139l.54.53v.38l.38.4v5.73c-.45.36-.4,1.07-1,1.33Zm1.79-6.13c-.27-.17-.47-.68-1-.18,0,1.2,0,2.46,0,3.71a.34.34,0,0,0,.05.17.92.92,0,0,0,.14.14h3.4c.05,0,.1-.07.23-.16v-3.7a.52.52,0,0,0,0-.18.56.56,0,0,0-.11-.11h-2.39Z"/><path d="M179.35,243l.54-.54h6.58c.07.08.14.13.14.17,0,2,0,4.06,0,6.12l-.59.53H179.9c-.33-.28.07-.9-.55-.86Z"/><path d="M107.66,246.27l.9.93v6.2c-.09.06-.14.13-.19.13h-6.46c-.26-1.15-.28-2.55-.13-6.74.3-.19.71-.17.92-.52Z"/><path d="M238.62,237.37a5.74,5.74,0,0,0-.63.17c-.11.05-.18.17-.3.29h-4.9l-.95-.48a.76.76,0,0,1-.09-.29c0-2,0-3.93,0-5.9l.54-.54h6.19c.07.09.15.13.15.18Z"/><path d="M170.24,206.5a3.54,3.54,0,0,1,1.7,1.22c.28.51.48,1.07.87,1.67v1.37c-.16.37-.37.62-.32.79.16.52-.37.74-.44,1.18s-.47.63-1,.73c-.26,0-.45.41-.7.66h-2.66l-.57-.35s-.12,0-.23,0l-1.3-1.41-.42-.82V209c.34-.2.28-.66.53-.91s.21-.84.65-1.07.73-.15.93-.52Z"/><path d="M252.2,211.09l-.72.72h-1.54c-.55-.49-1.43-.6-2.06-1.2s-.63-1.43-1.21-2v-1.39l.75-1.5a2.34,2.34,0,0,1,1.15-1.13c.48-.22.94-.48,1.48-.76h.68c.12,0,.32,0,.35.05.28.49.82.21,1.17.41s.44.22.62.33A2.17,2.17,0,0,1,254,206c0,.2.34.34.29.63-.09.58.67.94.37,1.59l-.37.4a1.69,1.69,0,0,1,0,.55c-.09.28-.28.52-.36.8-.16.53-.71.7-.92,1.13Z"/><path d="M236.13,204.59l.42.39h.66c.5.5.95.94,1.42,1.42a.57.57,0,0,0,0,.31c.14.2.42.33.34.63s.23.67.38,1c0,.06,0,.17,0,.19-.62.36-.09,1.25-.73,1.61-.06,0,0,.24,0,.4l-1.39,1.33h-.69l-.41.38h-1.91a7,7,0,0,1-2.86-2.89v-1.73l1-1.9.75-.73h.72l.42-.39Z"/><path d="M265.3,188.14h2.48c.46.39,1.08.52,1.51,1a9.48,9.48,0,0,1,1.07,1.58v2.57c-.44.35-.45,1-.9,1.36s-.95.31-1.23.77h-1.11l-.5.43-.76-.41H265l-1.16-.64c-.38-.19-.34-.63-.53-.93-.37-.6-.65-1.25-1-1.94a5.09,5.09,0,0,0,.29-.42c.06-.1.07-.22.13-.32s.19-.3.27-.46a.88.88,0,0,0,.1-.34,4.82,4.82,0,0,0,0-.53A5.72,5.72,0,0,1,265.3,188.14Z"/><path d="M184.14,211.86l-.41.36H182.2c-.26-.36-.59-.5-.88-.36-.64-.64-1.21-1.22-1.94-1.94v-2.8c.22-.35.43-.78.71-1.16a10.52,10.52,0,0,1,.94-1c.4-.09.89.09,1.16-.41h1.93l.4.36h.79l1.3,1.83v.64l.39.41V209l-.38.4V210c-.27.54-.41,1.28-1,1.46S184.73,212.13,184.14,211.86Z"/><path d="M162.53,255.68a2.41,2.41,0,0,0-.65.24c-.2.14-.35.35-.68.28l-.4-.37h-3l-.41.37h-.76l-1-.95V249.9l1-1h.75l.41.37h3.05l.34-.34.4.3.84.09a1,1,0,0,1,.13.34C162.53,251.68,162.53,253.66,162.53,255.68Z"/><path d="M184.63,308.6l-.89-.47-1.32-1.23v-.83l1.45-.65c-.06-.31-.34-.45-.54-.65l-.37,0c-.16-.32-.33-.63-.54-1.06v-1.4l1.73-1.72h3.34l1.79,1.74v.76c-.35.25-.82.29-1.06.68a.89.89,0,0,0,.91.67l.54,1.06v1c-.45.33-.44,1-.89,1.36s-1,.3-1.22.76Zm1-2.68-.36-.41-.49.1,1,1.08c.22-.1.56.15.86-.22l-.13-.55Zm-.11-2.53c.44-.26.78,0,1-.19l-.59-.72-.41.1Z"/><path d="M105.17,301.7v4l1,.87.38-.37c0-.05.1-.1.11-.15a2.41,2.41,0,0,0,0-.38v-3.8c.46-.36.4-1.06,1-1.33h1.14c.56.27.51,1,1,1.33v5.78l-1.06.9h-1l-.4-.35h-.75l-.4.37h-1.89l-.41-.38-.43,0-.22-.67-.67-.54v-5.47l1-.94h1.12Z"/><path d="M124.47,170.17c.56.27.51,1,1,1.33v5.34c-.34.21-.34.62-.53.95h-7.31l-.52-.49v-6.1l.52-1Zm-5.54,1.94c0,1.43,0,2.7,0,4,0,0,.07.1.18.21h3.72a.35.35,0,0,0,.16-.06.89.89,0,0,0,.14-.13c0-1.27,0-2.54,0-3.81,0,0-.08-.1-.15-.18Z"/><path d="M101,173.81c.43-.36.38-1.06,1-1.34h6.48l.56,1.06V180l-.44.44s-.09.09-.14.1h-6.45l-1-1Zm6.12,4.58V175s.09-.09.14-.13.36-.2.1-.4H103c-.06.1-.12.15-.13.2v3.77l.57.57.4-.37h2.27l.41.35Z"/><path d="M165.39,167.49l-.55-1.08v-5.19c.43-.34.34-1.05.94-1.35h6.5l.53.5v7a1.05,1.05,0,0,1-.15.15.61.61,0,0,1-.19,0Zm5.55-1.56v-4.17a.41.41,0,0,0,0-.19s-.08-.09-.18-.2c-.88,0-1.83,0-2.77,0-.3,0-.64-.13-.87.19v3.81a2.38,2.38,0,0,0,0,.38c0,.05.08.1.15.17Z"/><path d="M234.23,149.14l-.56-.56v-6.52l.51-.54h6.93l.45.41a.92.92,0,0,1,.12.18.61.61,0,0,1,0,.19V148l-.57,1.12Zm1.91-6.12-.54.53v3.53l.51.48.61-.38c.48.31.88.6,1.38.31l.61-.33.49.43.54-.52v-3.45l-.52-.6Z"/><path d="M273,125.43l-1.07-.56V118l.42-.46c.08,0,.13-.11.18-.12s.26,0,.38,0h6.46a36.66,36.66,0,0,1,.13,7.51c-.21.09-.43.17-.64.27a1.67,1.67,0,0,0-.28.25Zm4-6.43-.4.31c-1,0-1.95,0-2.9,0-.1,0-.19.13-.29.2a1.18,1.18,0,0,0,.37.77v1.83l-.48.72.93.67h3.2L278,123v-3.54Z"/><path d="M157,170.17l.55.54v6.94c-.08.08-.12.15-.17.16a2.38,2.38,0,0,1-.38,0h-6.91l-.51-.64v-5.89l.43-1a1,1,0,0,1,.31-.11Zm-1,1.91h-4.34s-.1.07-.19.14v3.52l.54.54h3a2.38,2.38,0,0,0,.38,0c.06,0,.1-.07.15-.11l.43-.43Z"/><path d="M271.92,140.48V134l1.2-.85H279l.45.41c.05.08.11.13.12.18s0,.25,0,.38v6.84a2.07,2.07,0,0,1-.17.16.36.36,0,0,1-.18,0h-6.75Zm1.88-3.76c0,.43,0,.88,0,1.33s-.14,1,.1,1.49h3.58l.5-.54v-3.42l-.53-.59h-3.52a2,2,0,0,1-.24.65c-.15.21-.34.37-.26.68Z"/><path d="M262.53,134.61l.55.56v6.57l-1.15.87h-5.61l-.83-1.14v-6.31l.52-.55Zm-1,5.55c0-1.16,0-2.29,0-3.43,0,0-.07-.1-.17-.21H257.3a.33.33,0,0,0-.17,0,1.05,1.05,0,0,0-.15.15v3.39c0,.05.07.1.1.15l.44.44H261Z"/><path d="M157.17,211v2.11c-.4.57-.58,1.28-1.2,1.63s-1.15.57-1.84.91h-1.36l-.71-.71-.85-.09c-.37-.75-.72-1.49-1.09-2.23-.28-.56-.33-.69,0-1.15.21-.3.14-.74.52-.93a1.64,1.64,0,0,1,1.12-1.34c.5-.15.59-.64,1-.8h1.53a15.07,15.07,0,0,0,1.69.9C156.57,209.66,156.81,210.34,157.17,211Z"/><path d="M94.65,300.19l-.56-.56v-.78l.51-.54h7.71l.56.53v.77l-.56.56c-.79,0-1.6,0-2.46,0V308l-.61.6H97.68l-.55-.63v-7.62c-.46-.28-.91-.12-1.34-.15S95,300.19,94.65,300.19Z"/><path d="M136.71,211.09l.41.39h.8l.24.75,1,.88v2.77c-.46.36-.38,1.15-1,1.3a10.1,10.1,0,0,0-1.42.75h-1.92a7,7,0,0,1-.75-.35,1.64,1.64,0,0,1-.56-.48c-.2-.32-.57-.21-.82-.39l-.1-.89-.31-.31v-1.95c.06-.2.5-.31.35-.74l1.38-1.28.85-.45Z"/><path d="M104.41,215.29h1.19a11.26,11.26,0,0,0,1.46.75,1.34,1.34,0,0,1,.78.71c.24.48.46,1,.76,1.59v1.34c-.61.59-.57,1.61-1.39,2.11h-.71l-.27.27a1.07,1.07,0,0,1-.33.11h-2c-.66-.47-1.45-.65-1.72-1.4l-.41-.84v-2.07l.85-1.7Z"/><path d="M126.21,217.36v1.18l.37.42c.08.54-.73.8-.34,1.46-.68.58-1.15,1.43-2.1,1.73H121.8c-.21-.07-.33-.5-.72-.36a3.9,3.9,0,0,1-1.37-1.9V217.4l.76-.79v-.37l1.85-1h1.39c.18.38.66.29.91.54s.82.24,1.07.66S125.72,217.28,126.21,217.36Z"/><path d="M134.83,306.67c.15-.26.56-.35.54-.73s.41-.45.5-.78c.28,0,.61-.11.76,0,.44.38,1.2.36,1.42,1a3.94,3.94,0,0,1-.39,1c-.39.49-.85.93-1.28,1.39h-3.09c-.11-.09-.24-.32-.38-.32a1.12,1.12,0,0,1-1-.73c-.09-.15-.12-.34-.22-.48s-.36-.36-.54-.55v-3.43l.37-.4v-.3l1.75-1.79h2.51l1.86,1.85v.5c-.24.79-1.15.57-1.44,1.13-.75-.27-1-1-1.56-1.2-.4,0-.5.34-.79.53v2.77C134.21,306.34,134.59,306.36,134.83,306.67Z"/><path d="M10.42,89.1l1.84,1.83v1l.32.33v1.94l-.32.41c-.19.37.18.88-.21,1.36s-.45,1.1-1.21,1.21c-.25,0-.45.42-.69.65H8.62l-.4-.37H7.84c-.27-.27-.55-.52-.8-.81s-.17-.71-.47-.89L7,94.93l.56-.21s0-.11,0-.13L6.51,93.5V90.8l.68-.62.12-.53,1-.55ZM9,93.31h.8c.24-.41.76-.61.92-1.09v-.45l-1-1.19-1.26.56v1.63ZM10.36,96c-.09-.45.09-.78-.15-1-.4-.29-.59.21-.91.24-.27-.28-.54-.54-.88-.09.06.29-.14.62.16.89Z"/><path d="M86.76,260.42h.83l3,3v.43a1.48,1.48,0,0,1-.15.31l-3.86,3.86H86c-.44-.19-.69-.64-1.06-1s-.63-.62-1-.94h-.37c-.56-.26-.51-1-.93-1.31.2-.35.42-.7.61-1.06s1.06-.16.92-.91L85,262l.52,0,.22-.67Z"/><path d="M19.12,47.24a2.5,2.5,0,0,0,.38-.43,1.09,1.09,0,0,0,0-.37l1.66-1.66h1.94a1,1,0,0,0,.33.27c.36.1.76.12.65.66.42.44,1,.8,1.11,1.46V51l-.34.4v.73l-1.46,1.35H21.24c-.12-.1-.25-.33-.39-.34-.61,0-.73-.47-1-.9s-.26-1-.73-1.23Zm3.64-.59H21.61L21,47.77v2.47c0,.13,0,.25,0,.38a2.85,2.85,0,0,0,.3.45c0-.06.09.22.22.52H22.8l.51-.54V47.21Z"/><path d="M14.86,133.86h2.55l1.3,1.41.41.8v4.07c-.42.22-.42.72-.62,1.08a2.12,2.12,0,0,1-.81.79c-.35.23-.85.21-1.08.63h-.95l-1.06-.52L13.45,141l-.11-.86-.3-.31v-3.46l.33-.4v-.73Zm2.35,6.31v-3.84c-.38-.31-.63-.78-1.17-1-.7.27-.76,1-1.08,1.48v2.64l.32.32.05.93h1.3Z"/><path d="M19.12,273.11l-.56,1.06-1.09,1.09a4.58,4.58,0,0,1-1.44.06c-.44,0-.88,0-1.2,0L13.37,274v-.76l-.32-.32v-3.53a.73.73,0,0,0,.32-.9l1.5-1.49c.34,0,.7-.68,1.37-.42l.4.36h.76l1.34,1.41v.29l.38.42Zm-1.91-.28v-3.3l-.54-1h-.92l-.81,1.35v3c.43.3.63.83,1.19.95A5.73,5.73,0,0,0,17.21,272.83Z"/><path d="M14.91,44.74h1.24c.42.34,1,.45,1.37.85s.39.89.81,1.22l0,.53V48l.38.45v1.45s-.06.1-.09.15l-.28.28v1.43l-.57,1-.47.16-.67.67-.19,0H14.33c-.4-.45-.83-.91-1.32-1.45v-.25l-.39-.42V49.91l-.37-.4v-.76l.34-.35V46.87c.25-.24.42-.43.61-.6s.16-.73.53-.92Zm-.37,2.49v3.82a2.41,2.41,0,0,0,0,.38s.09.09.16.16h1.62a2.24,2.24,0,0,1,.49-1V47.7l-.9-1h-.82Z"/><path d="M106.69,140.53v.88l.79.76v.68a2.86,2.86,0,0,1,1,1.33c.14.51.52.9.59,1.48a5.12,5.12,0,0,0,.67,1.43,1.81,1.81,0,0,0-.31.38,2.11,2.11,0,0,0-.12.51h-7l-.51-.57c.14-.82.91-1.35.76-2.33l.78-.57c0-.32,0-.51,0-.7a.81.81,0,0,1,.11-.33c.32-.49.43-1.14.82-1.54.6-.62.73-1.6,1.9-2C106.26,139.89,106.41,140.32,106.69,140.53Zm.39,5.55a7.45,7.45,0,0,0-1.32-2.66c-.78.54-.8,1.55-1.35,2.22,0,.06,0,.22.08.34s.1.09.15.09Z"/><path d="M22.15,0h1.36l.42.39h.76c.42.86.84,1.7,1.31,2.63V5.94l-.32.31-.1.87L23.93,8.77H22.05c-.37-.36-.92-.46-1.35-.84s-.26-1-.8-1.16V2.12c.12-.23.51-.37.38-.74A4.12,4.12,0,0,1,22.15,0Zm.29,6.91c.36-.15.82.13,1.27-.2V5.59l.35-.45V3.6l-.31-.31c0-.29-.06-.59-.06-.53-.42-.57-.67-.91-.93-1.24a4.53,4.53,0,0,0-.84.88,4.31,4.31,0,0,1-.49.9V5.48C21.79,6,21.87,6.59,22.44,6.91Z"/><path d="M25.64,90.85v.75l.32.32v3l-.85,1.63-1.34,1.28H21.94l-.59-.74h-.5c-.56-.27-.51-1-1-1.33V91.29l.57-1,1.14-1.18h2.18l1.06.54,0,.39Zm-4.22,3.8c.48.38.41,1.09,1,1.33.41-.06.86.15,1.28-.15l0-1.22.31-.3V92.69c-.13-.14-.22-.22-.31-.31l-.06-1.22-.83-.4c-.94.25-1,1.13-1.43,1.67Z"/><path d="M106.69,285.47l.4-.42v-.73l.94-1c.4.14.55-.23.79-.37h1.76l1.07.55c.38.19.35.62.54.92s.33.63.58,1.1V289a.72.72,0,0,0-.33.88l-1.91,1.92h-1.88a6.87,6.87,0,0,0-1-1.12c-.48-.37-.52-1-.93-1.4Zm4.21,3.3v-3.38c-.52-.12-.58-.94-1.36-.88l-.89,1v3.83l.53.5h1.16Z"/><path d="M13.39,96.05v-.62L13,95V91.58c.47-.2.27-.8.67-1.07a1.06,1.06,0,0,0,.54-1l.55-.11L15,89.2c.05,0,.1-.1.15-.1H16.8c.39.16.73.28,1,.44s.47.69.68,1.06.32.63.57,1.1v3.6l-.88,1.75-.47.13-.7.69H15.2ZM14.92,92V94.9l.54,1H16.7l.49-.54V91.56c-.42-.3-.61-.83-1.09-1a.89.89,0,0,0-.75.59A1.37,1.37,0,0,1,14.92,92Z"/><path d="M26,225.58v2.92c-.49.27-.34.76-.41,1.17l-1.65,1.65H22c-.85-.47-1.83-.89-2.12-2v-4.6l.35-.41v-.43a9.87,9.87,0,0,1,.81-.73,10.93,10.93,0,0,1,1.05-.55h1.39l.42.39h.75Zm-3.93-.81-.65,1.12v2.18c.41.41.4,1.08.94,1.35a2.74,2.74,0,0,0,1.32-.1l.06-1.24.32-.32v-1.2l-.38-.46v-1.48c-.28-.18-.38-.56-.93-.52Z"/><path d="M14.23,222.93h.89l.33-.33h1.23c.22.08.46.68,1,.23.26.28.62.49.63.73s.31.52.42.79.17.44.35.94v3.53a7.35,7.35,0,0,0-.75,1.54c-.21.55-.84.65-1.43,1H15.19l-1.8-1.81v-.65l-.38-.41v-3.34A10.57,10.57,0,0,1,13.7,224,1.54,1.54,0,0,0,14.23,222.93Zm2.09,6.5.86-.49V225c-.42-.31-.63-.83-1.13-.92-.79.18-.65,1-1.12,1.38v2.9l.55,1.07Z"/><path d="M178.59,39.19l.71-.7.09-.86.7-.7V36.1l.78-.57v-.94l.62-.53h.75c.11.11.37.25.45.46.33.95,1,1.74,1.26,2.71.05.16.23.29.37.45v.73l.78.81V40l.73.73,0,.74-.43.48c-.09.07-.14.14-.19.14h-6.86l-.65-1.31.86-.59Zm5,1c-.31-.59-.53-1.06-.79-1.5s-.41-1.13-.8-1.43l-.75.43v.81l-.7.7V40c.09.07.14.14.18.14Z"/><path d="M13,180.69l.39-.41v-.75l1.18-1.18.76-.39c1.08-.46,1.71.39,2.52.31.19.79,1,1.22,1.24,2v4.29c-.2.19-.58.41-.69.73A1.3,1.3,0,0,1,18,186c-.3.19-.63.33-1.08.56H15.14a1.45,1.45,0,0,0-.79-.37c-.3-.3-.26-.82-.67-1s-.22-.85-.67-1.06Zm1.91,0v3.06c.43.35.38,1,1,1.33h.74l.56-1v-3.7l-.5-.62h-.79Z"/><path d="M19.12,6.17a6,6,0,0,1-.54,1c-.28.32-.22.85-.66,1.06s-.71.2-.92.5H15.1L13.44,7.13l-.1-.86L13,6V2.51A22.87,22.87,0,0,0,14.3.41H15L15.5,0h1.13l.4.37h.74c.75.51.76,1.5,1.35,2.13Zm-1.91.15V2.49c-.38-.31-.63-.77-1.08-1-.59.36-.57.38-1.17,1.42v2.9l.55,1h1.12Z"/><path d="M249,290v-.68l-.38-.42v-3.43c.45-.2.29-.78.66-1.06a1,1,0,0,0,.53-1.1c.55.2.69-.18.93-.31h1.91c.35.45,1.16.37,1.29,1s.59.9.75,1.43v3.84c-.27.38-.36.94-.8,1.31s-.81.8-1.24,1.22h-1.54c-.22-.09-.35-.5-.77-.35Zm1.53-1.47.38.4c.07.31-.14.65.14.9h1.26l.49-.54v-3.85c-.42-.29-.62-.82-1.1-.94a.9.9,0,0,0-.74.59,1.4,1.4,0,0,1-.43.77Z"/><path d="M21.08,133.85h3.21c.65.45.62,1.39,1.35,1.67v.82l.33.33v2.7l-.32.4v.69c-.13.15-.26.28-.37.42s-.41.28-.43.59a1.08,1.08,0,0,1-.25.47.77.77,0,0,1-.63.33c-.15,0-.29.22-.46.36H22.4c-.23-.41-.73-.39-1.08-.62a2,2,0,0,1-.8-.79c-.2-.36-.2-.86-.63-1.08v-4.09Zm.34,5.19c.58.27.26.82.46,1.19l.5.48h.77l.5-.5c.17-.47-.08-.92.18-1.33l.27-.26v-1.14l-.39-.41v-1.13c-.25-.18-.37-.51-.72-.57l-1.13.51-.1.84-.34.43Z"/><path d="M150.67,286.23c.47-.26.39-.86.75-1.22.12-.13,0-.48,0-.69l1.33-1.34h2.09l1,.46,1.26,2.55v2.85c-.32.49-.5,1.14-.85,1.67a2.85,2.85,0,0,1-1.57,1.25h-1.55c-.23-.09-.34-.55-.75-.32l-1-1.06v-1.13l-.78-.57Zm3.55,3.61,1-.89v-3.14c-.46-.36-.38-1.08-1-1.29h-.8l-.2.67-.69.56v2.76c.47.33.35,1.06,1,1.33Z"/><path d="M88.52,283h1.87c.38.46,1.24.37,1.37,1.07.09.48.78.77.34,1.31l.44.49v3l-.38.41V290l-1.79,1.8H88.52a7.46,7.46,0,0,1-2.07-2.63v-3.62A5.38,5.38,0,0,0,87.2,284C87.4,283.37,88.15,283.45,88.52,283Zm1.16,1.53c-.26,0-.35,0-.38,0l-1,.95v3.79c0,.05.07.09.11.14l.43.44h1.23c.16-.36.22-.73.52-1v-3.41Z"/><path d="M36.72,285.07v-.74L38.05,283h2.18c.3.16.51.29.73.38a1.23,1.23,0,0,1,.74.74c.2.49.47,1,.74,1.5v3.18c-.36.7-.63,1.29-1,1.85s-1,.7-1.56,1.11H38.59l-1.86-1.85v-.55l-.39-.44v-3.42Zm1.52.4v3.83l.57.52H40l.51-1v-3.41c-.45-.2-.58-.82-1.22-.89C38.87,284.69,38.62,285.16,38.24,285.47Z"/><path d="M304.4,290.05l-.38.4,0,.43-.66.22-.49.67h-1.57a3.65,3.65,0,0,1-1.7-1.22c-.28-.51-.48-1.07-.86-1.67v-3.46l.69-.69v-.61c.23-.71,1-.64,1.33-1.1h1.89a4.14,4.14,0,0,1,1.78,1.42,1.56,1.56,0,0,0,0,.53,3,3,0,0,0,.37.61c.11.21.19.43.36.82v1.68l-.74,1.31Zm-3.82-1.44.9,1.27.85,0,.55-.58v-.73l.36-.41v-1.84c-.5-.67-.67-1.53-1.66-1.82l-1,1Z"/><path d="M295.78,90.63l.37-.34c.67.47,1.55.39,2.13.93a4.11,4.11,0,0,1,1.51,2.3v2.25a1.66,1.66,0,0,0-.36.72,4.1,4.1,0,0,1-1.88,1.41H297l-.4.37h-1.16c-.23-.42-.62-.39-1-.37l-1.4-1-.8-1.63V93.55a1.47,1.47,0,0,0,.35-1.2L294,91l.76-.4ZM297.89,93l-1.38-.82h-.94l-1.47,1.47v1.81c.23.66,1.06.39,1.34.88h1.15c.25-.62.94-.17,1.3-.54Z"/><path d="M229.69,291.06l-.62-.2c0-.2,0-.32,0-.45l-.71-.71v-4.76c0-.06.49-.16.36-.54l1.47-1.4h2.15c.22.08.34.5.8.33.08.23.15.44.21.66l.7.69v.73l.39.44v2.66l-.38.41v.58a4,4,0,0,1-1.39,1.9h-.33l-.36.35c-.47.08-1,0-1.54,0Zm.14-4.81v1.88l.38.41v.75l.56.56h.75c.58-.28.6-1,1-1.4v-2.27c-.55-.26-.25-.79-.42-1.16-.25-.16-.35-.54-.75-.51s-.54.46-.83.68S230.25,286,229.83,286.25Z"/><path d="M149.91,85.74l.78-.77V84.3l.72-.72v-.74c.9-.75,1.18-1.89,1.72-2.9H154a2.27,2.27,0,0,1,.53.64,13.2,13.2,0,0,0,.9,1.9c.35.68.66,1.37,1,2s.58,1.29,1,1.87a1.29,1.29,0,0,1,.12,1c-.32.15-.7.2-.93.51h-6.08l-.94-1,.37-.4Zm3.56-2.8a4.94,4.94,0,0,0-.44.56,3.71,3.71,0,0,0-.27.65,1.78,1.78,0,0,0-.17.49c0,.25,0,.49-.23.67s-.22.41,0,.7h1.81c.36.13.43.56.72.23V85.1C154.3,84.49,154.25,83.54,153.47,82.94Z"/><path d="M157.94,289.29l-.38-.4v-3.05l.31-.31a5.18,5.18,0,0,1,.44-1.49c.2-.65.9-.56,1.36-1.06h1.68c.39.17.73.28,1,.44s.47.69.67,1.06.33.62.58,1.1v3.07l-.45,1.34-1.77,1.77h-1.36c-.24-.13-.38-.51-.78-.36L157.94,290Zm1.53-3.81v3.95c.64-.15,1,.83,1.84.32l.43-.47v-3.9c-.46-.19-.57-.83-1.23-.88C160.09,284.71,159.83,285.16,159.47,285.48Z"/><path d="M295.65,291.77h-1.43l-.54-.76h-.56c-.14-.52-.53-.9-.61-1.47a6.35,6.35,0,0,0-.73-1.58v-1l.27-.27c.25-.4,0-.86.16-1.29.44-.25.3-.74.37-1.15l1.26-1.26h2.27c.42.28,1.08.37,1.4,1v.59l.73,1.4v2.88C297.56,289.85,297.39,291.37,295.65,291.77Zm-1.58-2.48.53.53h.62l1.13-.84v-3.6c-.46-.18-.58-.8-1.15-.88-.4.09-.56.47-.85.69s-.23.83-.66,1.05v1.88l.38.41Z"/><path d="M26,180.93v2.78l-.38.42v.73l-.72.76-.17.6H24l-.43.39H22c-.35-.44-1-.45-1.35-.91s-.31-.94-.75-1.21v-4.35a3.26,3.26,0,0,1,1.4-1.87l.83-.41h1.34c.37.41,1.24.29,1.42,1.15.06.32.47.55.67.86A7.89,7.89,0,0,1,26,180.93Zm-3.59-1.2c-.61.36-.57,1-1,1.38v2.64l.68.68.21.65h.83l.53-.57c.09-.35-.11-.85.4-1.12v-1.92l-.34-.39-.06-.83-.57-.52Z"/><path d="M166.94,48.34c.9.62,1,1.33,1.35,1.85a19.45,19.45,0,0,1,1.12,1.74v.65c.31.37.74.62.84,1.19a3.91,3.91,0,0,0,.66,1.14V56l-.49.53h-6.6l-.46-.46c-.37-.67.38-1,.31-1.6.45-.2.35-.74.65-1.07a6.23,6.23,0,0,0,.49-.93c.2-.35.23-.84.49-1.11s.24-.67.5-1a2.46,2.46,0,0,0,.53-1.1C166.42,48.87,166.87,48.86,166.94,48.34Zm-1.28,6.22s.08.12.13.12h2.65c.05,0,.1-.08.14-.12l.06-.36a12,12,0,0,1-.75-1,13.42,13.42,0,0,1-.62-1.26l-.68.79c-.35.21-.2.67-.52.94A2.58,2.58,0,0,0,165.66,54.56Z"/><path d="M93.31,285.6a5,5,0,0,1,.55-1c.28-.33.23-.82.65-1.08s.79,0,.87-.49h1.87a5.63,5.63,0,0,1,1.13.7,5.2,5.2,0,0,1,.68,1.13v1l.32.32v2.39l-.3.3V290a5.17,5.17,0,0,1-2.45,1.76H95.39a8.76,8.76,0,0,0-1.15-1.12c-.5-.35-.5-1-.93-1.35Zm4.21,3.29v-3.43c-.44-.31-.66-.94-1.33-1l-.92,1v3.86l.53.5H97C97.19,289.52,97.15,289.09,97.52,288.89Z"/><path d="M294.78,85.28a3.68,3.68,0,0,1-1.72-1.23,16.76,16.76,0,0,0-.86-1.67V80.55c.54-.78.73-1.87,1.73-2.52.31-.06.81.1,1.08-.39h.75l.42-.39a3.78,3.78,0,0,0,1.92.78,12.91,12.91,0,0,1,1,1,10.13,10.13,0,0,1,.71,1.13v2.59a7.87,7.87,0,0,1-.6,1,1.79,1.79,0,0,1-.84.7c-.53.09-.61.63-1.32.8Zm-.7-2.78a7.82,7.82,0,0,0,.93.81c.18.13.46.06.64.29s.6.08.89.15c.35-.45,1.07-.37,1.36-1,0-.84,0-1.73,0-2.61,0-.05-.07-.1-.11-.15-.56,0-.83-.48-1.21-.83H295.4l-1.32,1.43Z"/><path d="M245.7,291.77h-1.43c-.41-.35-1-.45-1.37-.85s-.39-.9-.81-1.22v-1.11l-.39-.44s0-.11,0-.17v-1.73l.38-.41v-1.13a1.13,1.13,0,0,0,.43-.78.78.78,0,0,1,.51-.52,1.13,1.13,0,0,0,.78-.43h1.91c.36.43,1.2.36,1.29.94s.61.76.81,1.24v4l-.51,1Zm.17-6.33c-.41-.3-.62-.82-1.07-.95-.84.15-.73,1-1.21,1.36v2.92l.55,1.05h1.23l.5-.54Z"/><path d="M222.18,284.32l.39-.42v-.75c.12-.06.22-.16.33-.16,1.33,0,2.67,0,4,0,.05,0,.1.06.19.12V284l-.52.54h-2.39l-.1.59c.43.32.83,0,1.18.2a8.11,8.11,0,0,1,1.4.78c.39.36.38.91.83,1.25v1.89c-.3.38-.38.95-.82,1.32s-.82.8-1.24,1.22h-1.53l-.4-.37h-.35l-1.1-1.07-.6-1.07.53-.53h1.14l.64,1.09h1.33l.51-.51c.14-.15,0-.48,0-.79s0-.5,0-.75l-.56-.56h-1.15l-.78.74h-.77l-.55-.55v-1.54l.37-.39Z"/><path d="M180.45,291.77a4.21,4.21,0,0,1-1.87-1.39v-.33l-.72-.72v-3.81a8.83,8.83,0,0,0,.73-1.51c.2-.61.93-.53,1.32-1h1.83l.3.2c.33.25.93.23,1,.68s.61.77.51,1.32c0,.15.12.33.2.49s.08.09.15.15v2.69l-.35.4V290l-1.82,1.77ZM182,289.3v-3.84c-.44-.31-.65-.94-1.26-1l-1,1v3.87l.53.5h1.12Z"/><path d="M100.19,288.52l-.36-.36a13.51,13.51,0,0,1,0-1.56l.34-.35v-1.53l.74-.74.13-.51,1.08-.45h2.13a10.87,10.87,0,0,1,.94,1,10.13,10.13,0,0,1,.71,1.13v4.52c-.5.83-.87,1.86-2,2.13h-1.55c-.11-.11-.26-.35-.38-.34a.81.81,0,0,1-.89-.57c-.12-.56-.54-.81-.85-1.18Zm2.49-4-.54.53c-.07.41.09.9-.42,1.17,0,.62,0,1.25,0,1.88,0,.05.06.1.09.15l.28.27v.64l.52.73.92-.05.85-1.35v-2.13l-1-1.84Z"/><path d="M26,272.45l-.4.43v.79c-.67.3-.65,1.15-1.22,1.56a1.3,1.3,0,0,1-.15.1h-3c-.49-.26-.55-.71-.74-1.09s-.33-.63-.59-1.1v-4l.86-1.7,1.39-.67c.54-.27.6-.26,1.17,0l1.44.68.14.51.68.69v.74l.4.42Zm-4.59-2.27v2.27l.34.37.13.54c.23.06.44.05.56.15s.36.35.46.33l.83-.58v-.79l.32-.41v-1.92l-.3-.31-.1-.87-.52-.5h-.78l-.56.56v.75C21.67,269.91,21.55,270.05,21.42,270.18Z"/><path d="M240.92,284.7v4.86a15.28,15.28,0,0,1-.84,1.37c-.36.37-.9.39-1.23.81H237.2l-.48-.69-.53,0c-.31-.12-.21-.41-.29-.62l-.69-.7v-4.58a2.63,2.63,0,0,0,.3-.37.93.93,0,0,0,.05-.34L237,283h2.07l1,.5c0,.12.06.3.1.47Zm-1.53,3.82v-2.66c-.45-.35-.37-1.06-.93-1.33-.3,0-.61-.12-.85.05l-.49,1v3.69l.52.6h.79C239,289.58,239,288.87,239.39,288.52Z"/><path d="M83.53,291.77H82.14a12.54,12.54,0,0,1-1.21-.73,9.55,9.55,0,0,1-1-1v-1.24c.45-.27.89,0,1.33-.18a5.68,5.68,0,0,0,.26.71,3.06,3.06,0,0,0,.44.45h1.26l.83-1.14v-1c-.31-.19-.73-.17-.93-.53h-.6l-1.68.86L80,286.68l.31-.55v-1.66l.87-1.45h4a2.66,2.66,0,0,1,0,1.48H82.31l-.11.57c.4.4.87.13,1.24.2.4.22.77.41,1.12.63.83.52.89,1.55,1.47,2.26a.74.74,0,0,1,0,.72c-.32.26-.31.65-.51.95s-.25.53-.41.78-.27.38-.4.38C84.15,291,84,291.44,83.53,291.77Z"/><path d="M319.69,284.7V284c.23-.59.84-.66,1.45-1h1.74c.53.41,1.36.5,1.68,1.29,0,0,.43,1.1.46,1.15v3.84c0,.2-.5.32-.37.68l-1.81,1.8H321.5c-.62-.38-1.32-.59-1.66-1.21s-.48-1.07-.87-1.67v-3.47Zm2.22-.22c-.43.19-.66.66-1,.94v3.31l.84,1.1h.84c.59-.3.51-1,.95-1.35v-2.12a4.93,4.93,0,0,0-.55-1C322.68,285,322.46,284.6,321.91,284.48Z"/><path d="M118.92,109.57v-.75l.79-.82v-.75c.39-.36.85-.11,1.28-.18a6.14,6.14,0,0,1,.53.89,4.24,4.24,0,0,1,.14.89c.23.22.45.44.69.69v.8l.79.63v.89l.66.65a1.11,1.11,0,0,1,.1.35c-.1.62.67,1.06.31,1.74-.19.08-.42.15-.63.26a3.38,3.38,0,0,0-.46.31l-.47-.33v0s-.1-.09-.15-.09h-4.15l-.34.34h-.85l-.53-.53v-1.12a11,11,0,0,0,1.12-2A5.73,5.73,0,0,1,118.92,109.57Zm0,3.24c.81,0,1.55,0,2.3,0,.23,0,.51.13.7-.12-.43-.87-.87-1.73-1.48-2.92C119.9,110.9,119.46,111.8,118.93,112.81Z"/><path d="M291.41,284.47v.61l.4.46a4.57,4.57,0,0,1-.75,1.41c-.41.39-.8.8-1.19,1.19l0,.44-.82.27-.64.77s0,.09.05.21c.78.09,1.6,0,2.4.05l.55.55v.79l-.6.53h-4.94l-.54-.5-.06-.86.59-.25c.24-.64.14-.93.45-1l.35,0,2.84-2.84v-1.16l-.58-.54h-.81L286.64,286c-.56.09-.7-.35-1-.57v-.57l.68-1.25c.27-.36.83-.23,1.06-.65h2.09A3.49,3.49,0,0,1,291.41,284.47Z"/><path d="M226.5,298.29h1.64c.32.42.1.87.16,1.3l-.39.42v.75l-.33.34v1.53l-.38.38v3.15l.3.3v1.78a3.56,3.56,0,0,1,.4.67c.06.17,0,.39,0,.56s.28.39.36.61a2,2,0,0,1,0,.6l-.54.57-.69,0c-.11-.07-.24-.11-.3-.21a5,5,0,0,0-.7-1c-.36-.3-.35-.78-.66-1.07s-.09-.6-.18-.88a3.55,3.55,0,0,0-.37-.61c-.12-.21-.23-.42-.39-.72v-4.08l.39-.42v-.74l.28-.28c.3-.29-.12-.76.27-1s.17-.71.53-.93A1.34,1.34,0,0,0,226.5,298.29Z"/><path d="M132,107.46v-1.21c1.07-2.13,2.12-4.23,3.2-6.4h1.22c.06.48.5.79.57,1.3,0,.25.41.45.64.68a2.87,2.87,0,0,0,.44,1.35,5.23,5.23,0,0,1,.63,1.25l.71,1.48.52.51-.38.91a1,1,0,0,1-.32.12Zm5.26-1.57c.33-.77-.36-1.14-.33-1.7-.44-.35-.38-1.06-.94-1.32a1.21,1.21,0,0,0-.38,0l-.94,1.82a2.26,2.26,0,0,0,.11,1.2Z"/><path d="M8.22,186.23H7.41c-.07-.21-.14-.43-.22-.65s-.45-.45-.68-.68v-.53l.52-.86c.29.07.44.06.51.14.5.48,1,1,1.42,1.43h.8l1-1.12v-.9c-.2-.41-.65-.67-1-1.1l-1.59.79H7c-.16-.34-.21-.7-.5-.94l.36-.36c0-.28,0-.66,0-1s.44-.42.39-.8a9.64,9.64,0,0,1,0-1.21l.44-.48a.61.61,0,0,1,.18-.12h3.3l1.06.94-.58.58H9.4c-.24.32-.83.47-.48,1.11h1.56c.16.16.23.31.34.33.37.09.77.21.9.56s.61.79.51,1.31.29.52.39.79c0,.5-.67.8-.35,1.42l-1.44,1.22.1.07-.94.45H8.62Z"/><path d="M254.83,298.27c1.12.8,1.4,2.11,2.12,3.39V303l.37.37v2.32l-.31.4v1.29a3.67,3.67,0,0,1-.52,1.07c-.31.27-.2.69-.51.95s-.16.73-.55.9-.25.68-.53.93a2.73,2.73,0,0,1-1.32-.11v-1.63l.3-.3.09-.86.35-.35v-1.92l.35-.34v-2.3l-.36-.4v-1.88l-.39-.42v-.64l-.72-1.3.53-.54Z"/><path d="M7.55,3.05h-1A8.84,8.84,0,0,1,6.5,1.31L7.63.36c.17,0,.68.18,1-.34H9.74l.4.35h.8l.21.64.69.69V2.86l-.36.39V4l.7.62a14.94,14.94,0,0,1,.06,1.8,3.28,3.28,0,0,1-1.41,1.88L10,8.75H8.29A3.92,3.92,0,0,1,6.55,7.4V5.88c.39-.3.85-.08,1.27-.14.21.35.42.71.67,1.11a13.16,13.16,0,0,0,1.66,0c.4-.39,0-.86.26-1.29l-1.14-1H8.61l-.43-.73c.17-.15.36-.53.82-.45.17-.41.66-.27.93-.55V2.19l-.57-.66c-.63,0-.79.48-1.11.75A9.06,9.06,0,0,0,7.55,3.05Z"/><path d="M12.24,224.27v1.11l-.79.89c.06.19.07.35.14.41.58.42.72,1.1,1,1.67-.2.37-.48.72-.4,1.1L10.64,231l-.67.29H8.62L8.23,231l-.4,0-1.32-1.39v-1.09c.35-.41.83-.12,1.24-.2.41.28.86.54.69,1.14h1.73l.51-.61V228l-1.11-.87-.63,0-.33-.7.69-.76.61-.16a2.7,2.7,0,0,0-.08-1.38H9l-.5.48-.13.58H6.64c-.23-.32-.11-.64-.11-.94a2.57,2.57,0,0,0,.92-1.32h.78l.28-.27a1.46,1.46,0,0,1,.34-.1,9.1,9.1,0,0,1,1.29.05A5.84,5.84,0,0,1,12.24,224.27Z"/><path d="M267.69,172.05v-.78a.47.47,0,0,1,0-.17c0-.06.09-.09.13-.14l3.09-3.08h1.15l3.22,3.22c.24.68-.33,1.12-.5,1.68,0,.05-.22.05-.23.05l-1.91,1.9c0-.08,0,0,0,.18a11.92,11.92,0,0,1-1.05.6,1,1,0,0,1-.45,0C270,174.36,268.88,173.25,267.69,172.05Zm5.35-1c-.85-.11-1.17-.88-1.75-1.23l-1.65,1.65c.17.44.82.58.72,1.22a2.73,2.73,0,0,1,.64.24c.2.14.34.36.42.34l1.62-1.62Z"/><path d="M168,223h.88c.79,1.56,1.59,3.07,2.33,4.61.25.53.73,1,.52,1.69l-.55.54h-5.73l-.49-.93C165.93,227,166.77,224.9,168,223Z"/><path d="M132.7,199.81l3.25-3.25h.74l3.65,3.64v.74l-3.25,3.26H136L132.7,201Zm3.59,2.44,1.76-1.7s0-.12,0-.19,0-.14,0-.18l-1.7-1.71c-.64.46-.66,1.36-1.34,1.7V201Z"/><path d="M117.78,235.37v-.76c.56-.5.65-1.26,1-1.86s.53-1.49,1-2,.61-1.34,1.23-1.67a1,1,0,0,1,.91.7c.71,1.68,1.7,3.23,2.37,4.92.05.11.18.19.26.27l-.46,1h-5.83Z"/><path d="M231.75,185.21l0,.47c-.38.35-.85.1-1.24.16l-1.8-1.82v-.27c-.29-.22-.44-.65-.9-.58-.31-.11-.18-.42-.3-.61s-.39-.33-.3-.76c.28-.27.64-.62,1-1s.62-.46.54-.92c.26-.17.36-.51.73-.56.58-.08.75-.55.87-1a2.82,2.82,0,0,1,1.33-.07l.2.71c.18.16.47.63.84.71.57.13.82.54,1.18.86s.63.62,1,.94V182a8.16,8.16,0,0,1-2.3,2.86A3.18,3.18,0,0,1,231.75,185.21Zm.11-2.51,1.16-.93-1-.22-.85-1h-.87c-.24.24-.08.62-.4.83a.85.85,0,0,0-.49.88,4.51,4.51,0,0,1,.56.58,3.91,3.91,0,0,1,.38.73h1.23Z"/><path d="M105.25,201.92l3.74,3.74V206l-1.53,1.53v.69l-.65.25L105.36,210c-.89-.42-1.78-.67-2.12-1.67a1.63,1.63,0,0,0-.44-.58l-1.53-1.47.55-1.23,2.12-2.13c.1-.33,0-.78.66-.67C104.76,202.29,104.88,201.86,105.25,201.92Zm-.09,5.7,1.51-1.5v-.61c-.43-.43-.83-.84-1.24-1.23-.08-.07-.23-.05-.35-.08a3.63,3.63,0,0,0-1.42,1.91Z"/><path d="M154,195.79h.64c.31.28.8.44.63,1l2.65,2.65v1.29l-.6.12-.22.66-.52.11-1.87,1.86h-.89L150.32,200l.49-1Zm-1.4,3.62v.83l.65.21,1.06,1.06,1.67-1.64-1.68-1.69-.93.47v.4Z"/><path d="M193.88,184.89c-.45.21-.3.78-.66,1.06s-.72.71-1.08,1.07l-.94.94-.95.94h-.75c-.28-.21-.45-.64-.88-.37l-.18-.7-.56-.12-.21-.62-.65-.23,0-.48c-.2-.06-.42-.13-.63-.21s-.17-.44-.27-.64a3.26,3.26,0,0,0-.26-.39c0-.14,0-.23,0-.26l3.59-3.62h.79Zm-2.68.08-.64-1.11-.71-.69c-.47.47-.94,1-1.43,1.44a.64.64,0,0,0-.26.68l1.73,1.67,1.31-1.32Z"/><path d="M179.73,302.28a2.11,2.11,0,0,0-.37.43,1.72,1.72,0,0,0-.11.52h-1.2l-.57.54v3.91l-1.25.87h-.93l-.54-.52v-.38l-.37-.4V301.9c.44-.36.39-1.06,1-1.33h1.14l.46.44.84-.39h1.41l.54,1Z"/><path d="M206.89,181.84v-.78c.25-.36.74-.5.78-1a.79.79,0,0,1,.45-.55c.92-.25,1.3-1.12,2-1.65h1.08c.87.64,1.41,1.71,2.52,2.1v.49l.76.6v.55l-3.95,4s-.18-.18-.37-.36Zm5.35-.77c-.4-.4-.84-.85-1.29-1.28a.37.37,0,0,0-.23,0l-1.54,1.54v.54c.4.4.83.85,1.29,1.28.07.07.23,0,.23,0l1.54-1.54Z"/><path d="M117.4,201.72c.63-.63,1.28-1.24,1.88-1.89a5.49,5.49,0,0,1,1.92-1.37c.43,0,.57.44.86.65.58.45.93,1.14,1.72,1.38.53.16.51.92.89,1.31v.84l-3.46,3.46h-.56l-3.25-3.25Zm4.07-1a3.18,3.18,0,0,0-1.76,1v1.11l.93,1h.78c.41-.41.82-.81,1.22-1.23a1.07,1.07,0,0,0,.12-.33c0-.06,0-.14,0-.18Z"/><path d="M231.41,225.34l-.49.54a1.77,1.77,0,0,1-.19.12h-5.68l-.64-.64,2.92-5.84h1.17C229.45,221.42,230.42,223.37,231.41,225.34Z"/><path d="M152.73,224.9l.74-.74c.44.11.57.59.91.73a4.52,4.52,0,0,0,1.26,2.06,4.77,4.77,0,0,0,0,.53.82.82,0,0,0,.09.34,11.53,11.53,0,0,1,.81,1.56c.11.22.35.36.53.54,0,.05.06.12,0,.13q-.4.42-.81.81a.67.67,0,0,1-.14.11.61.61,0,0,1-.19,0h-5.13l-.54-.54a1.93,1.93,0,0,1,.17-1C151.28,228,152,226.46,152.73,224.9Z"/><path d="M187.38,190.75v1.07l-1.51,1.28,0,.65-.74.24-.76.95c-1,.35-1.3-.46-1.91-.34v-.5l-1.73-1.75-.41,0c-.37-.35.09-1.05-.58-1.31,1.2-1,2.05-2.37,3.48-3.1v-.36c.25-.33.6-.1.82-.19Zm-5.45.54c.35.35.64.66,1,1a4.37,4.37,0,0,0,.9.82l1.36-1.36c.18-.17.38-.33.31-.63a3.46,3.46,0,0,0-1.93-1.39Z"/><path d="M213.58,226h-5.44l-1-.56c.36-.73.64-1.31,1-2.11l.55-.55,0-.89.72-.43v-1l1.11-.9h.64l.18.38c.59,1.15,1.2,2.29,1.76,3.47.25.52.72,1,.55,1.66l.35.4Z"/><path d="M139.39,234h-5.63l-.77-.57c.76-1.54,1.42-3,2.2-4.36.21-.37.07-.72.19-1l.55-.61h1.17a10.75,10.75,0,0,1,.7,1.81,15.59,15.59,0,0,0,.89,1.72,14,14,0,0,0,.89,1.72C139.51,233.19,139.78,233.66,139.39,234Z"/><path d="M117.05,263.65l.35-.38,0-.38,2.44-2.45h1l2.64,2.64.33.59a12.25,12.25,0,0,0-.62,1.06c-.17.35-.62.15-.77.41a4.8,4.8,0,0,1-.4.78,4.18,4.18,0,0,1-1.63,1l-1.4-1.42C117.71,265.26,117.54,264.3,117.05,263.65Z"/><path d="M182.79,234.62v.67c.49.52.59,1.32,1.07,2,.15.2.07.58.09.87a40.71,40.71,0,0,1-6.44,0c-.39-.71.53-1.21.28-2l.79-.6v-.88l.79-.83c0-.25-.1-.64,0-.72.5-.34.26-1.16,1.37-1.34h.36a2.45,2.45,0,0,0,.23.64,7.2,7.2,0,0,0,.67.69v.74Z"/><path d="M223.86,209.58h.82c0,.1.1.26.18.41.59,1.15,1.18,2.29,1.76,3.44.32.63.61,1.27.92,1.9,0,.35-.4.46-.54.68h-5.84c-.26-.39,0-.78-.16-1.08.49-1,.92-1.84,1.4-2.72A11.9,11.9,0,0,1,223.86,209.58Z"/><path d="M179.54,227.15l-.53-.54c.72-1.14,1.2-2.41,1.85-3.6a7.06,7.06,0,0,0,.81-1.76c0-.21.32-.37.51-.58H183c.36,1,1.24,1.92,1.34,3.3l.74.58v1l.75.6c.08.58-.35.72-.57,1Z"/><path d="M156.53,258.18a7.64,7.64,0,0,0-.7.72,4.81,4.81,0,0,0-.38.75l-.41,0-1.5,1.5h-.9c-1.09-1.1-2.07-2.08-3.09-3.09a.39.39,0,0,1,.07-.24c1.06-1.08,2.14-2.15,3.2-3.21l1.21.53.17.68Z"/><path d="M104,235.08l.91-1a.6.6,0,0,1,.72.27,15.65,15.65,0,0,1,1,2c.58,1.09,1.16,2.19,1.65,3.32a1.12,1.12,0,0,0,.27.26l-.56.56H102.3l-.5-.46c.2-.67.8-1.18.68-2,.83-.56.94-1.62,1.53-2.38C104.1,235.56,104,235.31,104,235.08Z"/><path d="M168.18,259.54l-1.27,1.26h-.75L163.33,258c-.27-.55.13-1.05.38-1.46a7.7,7.7,0,0,1,1.43-1.42c.12-.11.33-.12.46-.23a4.66,4.66,0,0,0,.55-.54h.61l3,3c0,.05,0,.21-.05.28-.44.46-.9.89-1.33,1.35C168.29,259.07,168.28,259.28,168.18,259.54Z"/><path d="M12.21,133.84v1.37a8.25,8.25,0,0,1-.59.58c-.24.21-.08.59-.38.81a1,1,0,0,0-.55.72,2.83,2.83,0,0,1-.36.8,2.43,2.43,0,0,0-.36.79,1.84,1.84,0,0,1-.33.83c-.15.24-.15.59-.45.77v1.19l-.64.52h-.8l-.47-.54c-.1-.79.35-1.3.73-2v-.83l.87-1.68L8.71,137,10,135.86l-.06-.36c-.33-.25-.72-.1-1.08-.12s-.77,0-1.14,0-.76.11-1.13-.14V134c.08-.08.12-.15.17-.15Z"/><path d="M148.76,291.2l-.56.56h-.77l-.58-1.12v-4.41c-.53-.53-.7.06-1,.17h-.78c-.33-.4-.1-.86-.17-1.28,1.09-.43,1.66-1.47,2.52-2.12h.75l.56.55Z"/><path d="M215.68,285.08c.27-.56,1-.52,1.33-.94s.72-.72,1.12-1.12H219c.18.32.19.72.52.94v6.48c-.45.36-.39,1.06-.95,1.33h-.39l-.6-1.17v-4.41c-.42-.34-.63-.07-.89.19h-.85C215.55,286,215.73,285.51,215.68,285.08Z"/><path d="M11.09,274.35c-.34.21-.33.63-.53.95h-.8l-.55-.5v-4.59c-.3-.38-.65-.14-.93-.26l-.45.41-.91-1,1.4-1.31h.43l1-1.12h.75c.31.28.11.62.17.92l.38.4Z"/><path d="M9.9,53.51H9l-.46-.42a1.46,1.46,0,0,1-.11-.18.61.61,0,0,1,0-.19V48.29a6.92,6.92,0,0,0-1.73-.11l-.49-.5.37-.9c.46-.11.79-.52,1.3-.54,0,0,.13-.08.12-.13,0-.92.91-.85,1.43-1.4l.48,1Z"/><path d="M3.29,44.78l.49.49v8.14a1.35,1.35,0,0,1-.94.09L2.3,53c0-1.51,0-3,0-4.55,0,0-.06-.09-.14-.21H.62L0,47.61a6.13,6.13,0,0,0,.67-.68,3,3,0,0,0,.24-.65H1.7C2.11,45.51,2.11,45.51,3.29,44.78Z"/><path d="M3.72,8.75H2.84L2.3,8.23c0-1.66,0-3.3,0-5,0,0-.07-.09-.1-.14-.36-.22-.53.08-.8.22a2.15,2.15,0,0,1-.84.09C.26,3,.43,2.52.39,2.06l.76-.28L2.42.27l.16.19L3.3.05c.14.13.27.27.4.4A71.52,71.52,0,0,1,3.72,8.75Z"/></g></g></svg>