<svg xmlns="http://www.w3.org/2000/svg" viewBox="0 0 66.77 116.12"><title>Recurso 33GRAPHS</title><g id="Capa_2" data-name="Capa 2"><g id="Capa_1-2" data-name="Capa 1"><path d="M1.37,45.78V32l.69-.69H29l.55-.49h.93l.5.47H56.6l3-3c-.08-.44-.46-.24-.7-.34L58.05,27H57l-.57-1H55.2l-1-1h-.91l-.7-.69V22c-.78-.56-1.83-.66-2.47-1.49-.15-.2-.62-.16-.77-.36-.43-.59-1.22,0-1.68-.63-.25-.35-.9-.42-1.39-.59a2.34,2.34,0,0,0-.62,0L44.91,18H42.39c-.34-.58-1.08-.49-1.53-.93-.16-.15-.6,0-.85,0-.41.37-.16.79-.25,1.15-.11.09-.23.26-.34.26-.59-.05-1.28.26-1.73-.4L36.28,18l-1.62-.92H32.74l-.89-.92h-1l-.15.63.5.54V27.56l-.68,1.31c-.37,0-.76.15-1.16-.14V7.86L30,7.08l.72.71v.93l.48.51v2.83l-.47.52c0,.17,0,.32,0,.48s.11.16.16.16h6.2l.48-.44h1.88c.08.12.23.25.23.37,0,.62,0,1.24,0,1.94h1.85l1.82,1h1.83l.67,1h1.61l1,1h1.26c.79.56,1.48,1,2.13,1.53s1.42.55,1.76,1.33l.94-.94h1.41c.38.26.85.55.81,1.19l2.7,2.7.16.67.82.3c0,.36.08.74.12,1.09.36.36.78.05,1.24.27l3.9-3.91c.48-.07.63.5,1,.76v1l-.72.21-.42.88h-.51L64,26.3l0,.44c-.61.37-1.46.5-1.46,1.48-.31.21-.48.55-.89.71-.75.29-.72.37-1.09,1.27l-.82.29v.58l-.87.3-.13.66-.85.85V58.1l.89.9c0,.84-.74.93-.94,1.72V83.66c-.31.38-.73.22-1.1.22H31c-.65.68.12.88.24,1.27.14.82-.48,1.37-.73,2h-.94c-.08-.14-.21-.27-.21-.39,0-.94,0-1.87,0-2.73a2.1,2.1,0,0,0-.31-.19.88.88,0,0,0-.23,0H2.26a1.43,1.43,0,0,1-.22,0l-.67-.67v-.94l-.46-.5v-.95l.4-.4V48L.58,47.8,0,47.15V45.47L.8,46Zm51.19-7.64c-.74.23-1.33,1-2.29.57A2.55,2.55,0,0,1,50.39,37h.28c1-1,1.86-1.86,2.71-2.71a.73.73,0,0,0-.32-.14c-8.2-.15-19.79-.07-22.21.13,0,.15-.12.32-.08.43a3.92,3.92,0,0,0,.41.64V38l-.49.95.69.86h1.16a8.25,8.25,0,0,0,1.65,0c.69-.14,1,.63,1.71.54.54-.07,1,.62,1.7.47.24,0,.51.57,1,.43.42.69,1.29.8,1.81,1.35s1.52.73,2,1.49c0,.07.3,0,.46,0l2.84,2.85c.41.78.72,1.36,1,1.95.39.79.74,1.59,1.14,2.37a7,7,0,0,1,1.06,2.65c0,.18.26.34.36.46v1.28l.53.7c-.2.39-.52.72-.5,1s-.72.46-.29.93h6.14c.06,0,.12-.08.18-.13a2.2,2.2,0,0,0,.09-.43q0-10.89,0-21.79c0-.13-.14-.25-.21-.38l-.46.41-.69.16c0,1.06-.85,1.19-1.48,1.55Zm-48.82-4V46.67s.11.11.16.17l.6.1.71-1c.54.05.94-.14,1.28.14l.27.81H7.3c.45.39.79.89,1.47,1,.47.1.62.81,1.29.89s.74.93,1.5.95c.28,0,.51.58,1,.38.17-.31.58-.43.68-.88a3.42,3.42,0,0,1,.66-1.37c.32-.35.21-.87.63-1.18a9.22,9.22,0,0,0,1.19-1.15l1.5-1.51c.91.17,1.05-1.17,2-1,.59-.84,1.72-1,2.3-1.84A3.58,3.58,0,0,0,22.8,41a2.67,2.67,0,0,1,2-.71l.54-.47h3.23l.73-.67V34.58a.57.57,0,0,0,0-.23.79.79,0,0,0-.18-.2ZM9.07,81H28.62a3.68,3.68,0,0,0,.47,0c.06,0,.11-.1.2-.19V78.73c-.72-.14-1.42,0-2.09-.07l-.54-.48H24.34l-.86-.86c-.41-.21-.92.13-1.3-.33s-.9-.2-1.13-.68c-.59.14-.85-.34-1.13-.68s-.9-.19-1.17-.65-.81-.44-1.11-.7c-1.17-1-2.25-2.21-3.37-3.32-.09-.87-.83-1.24-1.32-1.75H4.44l-.7.69v9.72a1.59,1.59,0,0,0,.17.43H5.44l.43-.43a8.76,8.76,0,0,1,.88,0c.38,0,.78-.12,1.1.19l1,.42Zm37-10.35-2.57,2.57a11.28,11.28,0,0,1-1.36,1.32,6.74,6.74,0,0,1-1.57.77c-.57.22-.73,1.05-1.49,1a9.2,9.2,0,0,1-1.74,1c-.58.32-1.17.62-1.87,1H33.33l-.46.46h-2a2.24,2.24,0,0,0-.12,1.21c0,.36-.17.78.16,1.08H46.26l.31-.88h1.92l.53-.49H50l.49.46h1.41l.49-.43h1.91c.29.31.54.63,1,.37a86.32,86.32,0,0,0,0-10.79H47Zm-22.88.4H25l.77,1h1c.21.35.68.47.67,1s-.47.55-.68.88a15.58,15.58,0,0,1-1.8,0L23.28,73h-.81l-.59-.53c-.46.26-1.05-.2-1.52.27l0,.33.59.86L22,74l.92.91c.29,0,.76-.13.89,0,.42.49,1.17.38,1.53.93h2.82c.36.8,1.39.13,1.8.85a.48.48,0,0,0,.41.08c.44-.55,1.11-.4,1.66-.59.13,0,.23-.21.35-.34h2.34c.35-.57,1.11-.44,1.53-.93.13-.16.59,0,1.21,0l.59-1h1l.7-.74a3,3,0,0,1-.86-.32c-.25-.2-.46-.41-.83-.32L37.6,73h-.79l-1.73,1c-.58-.23-1.32.22-2-.3.19-.49-.15-1.06.22-1.58L34.37,72l1-1h1.59v-3l.52-.67-.76-.11c-.6.87-1.73,1-2.37,1.95H32.37l-.43.43H29.36a1.25,1.25,0,0,1-.41-.14l-.35-.33H26.09l-.74-1h-1.3l-.62-1-.72.36.5.59ZM37.5,47.93l-1.08-.71.07-1.2h2.27l1.46-.74c-.93.07-1.09-1-1.76-1.21h-.8l-1-1h-.92l-.53-.48H33.82l-.43-.44H31.65l-1-.58-.65.54H26.81l-.54.47-1,.06-.43.44H23.28l-.77,1h-1c-.5.48-.9,1-1.7,1.1.6.6,1.31,0,1.85.42L22,46c.53.09,1.08-.12,1.63.18v1l-.38.49v2.91c.19.06.38.19.46.14.32-.2.59-.47.9-.67s.57-.19.8-.36a8.62,8.62,0,0,0,.87-.85h6.81a1,1,0,0,1,.24,0,.76.76,0,0,1,.19.12c.94.58,2.06.88,2.77,1.82.4-.14.83.13,1.13-.28V50l-.46-.49v-.93ZM16.73,62.13l.77.64v1.29c.4.73.56,1.44,1.17,1.81h2.38c.06,0,.11-.11.17-.17v-1l-.89-.9v-.82l-.93-1.63v-4.5c.83-1.63,1.61-3.06,2.3-4.61H18.58c-.31,1.11-1.21,1.94-1.18,3.11a5.4,5.4,0,0,1-2.29,1.06c0-.71,0-1.4,0-2.08l.48-.52V52.62l.86-.59c0-1.19,0-2.13,0-3.06,0,0-.1-.1-.16-.15l-.69.68v.93l-1,1v1.29l-.94.52a10.06,10.06,0,0,1,0,1.58c-.07.42-.44.83-.42,1.22,0,.55-.38.81-.52,1.22a8.85,8.85,0,0,1-.53,1.16l.55.59v1.86l.49.54v.88l.49.58v1.83l.87.87c.15.42-.09.89.31,1.31a4.12,4.12,0,0,1,.67,1.36,1.31,1.31,0,0,0,.91.89V66.52c-.83-.73-.71-1.93-1.38-2.89.13-.39-.17-.94.17-1.5Zm24-5.41v4.64c-.57.34-.48,1.08-.92,1.52-.15.16,0,.6,0,1.11l-1,.63.07,1.26c.9,0,1.74,0,2.53-.07s.57-1.25,1.22-1.61c-.16-.82.38-1.41.68-2.08a3.23,3.23,0,0,1,1.6.09l.58.64c-.24,1-1.11,1.69-1,2.76l-.93,1c0,.83,0,1.62,0,2.4,0,.06.1.11.25.25,1.1-1.4,1.59-3.12,2.57-4.64V63.27l.49-.54V60.88l.45-.46v-2.7a.83.83,0,0,0-.06-.21l-.36-.35c-.2-.84.23-1.84-.53-2.59.11-1-.69-1.61-.95-2.45v-.86l-.91-.72c-.1-.51.14-.94-.29-1.27l-.65.11v1.84c.42,1,1,1.61.91,2.46.21.55.9.69,1,1.33l-.69,1.36c-.65.39-.82-.79-1.45-.45l-.69-.69V53.78c-.68-.29-.38-1.3-1.17-1.6h-3a7.25,7.25,0,0,0,.47,1.18,5.68,5.68,0,0,0,.88.9,2.26,2.26,0,0,0,0,.86A16,16,0,0,0,40.71,56.72ZM11.32,63.46l-1-1.8a3.22,3.22,0,0,0-.15-1.42H4.41l-.67.65v5.69a2.57,2.57,0,0,0,0,.48c0,.06.1.11.24.24h7.93c.12,0,.23-.17.34-.25V66.4l-.94-.69Zm44.09,3.8V60.9a3.65,3.65,0,0,0,0-.47c0-.07-.11-.11-.19-.2H49.43a1.24,1.24,0,0,0-.18.22c-.29.58.62.7.44,1.34l-.5.71c.47.84-.33,1.51-.45,2.33A4.37,4.37,0,0,1,48,66.4a.63.63,0,0,0,0,.86Zm-45-11.1.49-.51v-.91l.44-.5v-1L10.58,53l-.95-.91H7a7.4,7.4,0,0,0-1-.45c-.28-.07-.59.06-.86-.22a1,1,0,0,0-1.43,0V57.8a1,1,0,0,0,0,.24c0,.07.1.11.23.25h6c.12,0,.24-.15.36-.23Zm22,1.55-.76-.62c.2-.38-.14-.83.26-1.12s.23-.86.65-1.17c.25-.19.14-.56-.14-.78-.53.07-1.09-.18-1.6.18v1.95l.36.49c.26.7-1,.91-.17,1.65,1.32,0,2.72,0,4.13,0,.12,0,.25-.15.37-.23v-.47l-1.21-1.21C33.88,57.16,33,57.31,32.4,57.71Zm-3.06.53c0-1.37,0-2.56,0-3.74a1.24,1.24,0,0,0-.17-.43H27.53l-.09.66a5.72,5.72,0,0,1,.69.71,8.12,8.12,0,0,1,.51,1c.05.1.09.22.13.31l-1,1-1.16-.55-.27-.79h-.55q-.22.47-.48,1c-.15.3-.65.37-.59.88ZM30.79,64h2.09c.06,0,.11-.1.09-.08l-1.26-1.26V61.38c.35-.27.52-.81,1.33-.69l1.17,1.48,1.32-1.3-.13-.65h-4l-.64.68.43.49c.19.55-.37.68-.42.87Zm-1.95-2.63c-.51.63-.66,1.51-1.45,1.93l.2.67a3.65,3.65,0,0,0,1.75-.14c0-.56,0-1.17,0-1.78s.2-1.23-.18-1.84c-1.25,0-2.49,0-3.74,0-.11,0-.23.16-.33.24-.09.36.12.56.32.82a4.15,4.15,0,0,1,.37,1L27,60.67h1.14Z"/><path d="M33.6,98c.27-.51.48-.9.69-1.32H45.66A6.77,6.77,0,0,1,46.38,98a4.67,4.67,0,0,1,0,1.29l-.58.59a.76.76,0,0,1-.19.12,1,1,0,0,1-.24,0H37.63l-.71.71.42.41v2.38a2.22,2.22,0,0,0,.25.24.42.42,0,0,0,.22,0h6.91l.69.66v2.47c-.1.08-.15.17-.21.18a3.85,3.85,0,0,1-.48,0H37.63l-.69.69.45.5v4.26c.3.38.72.23,1.09.23h6.64c.34.28.72.48.84,1s.57.89.42,1.57l-.53.57c-.1.07-.16.15-.22.15H34.32l-.72-.71Z"/><path d="M10.13,116.12l-.68-.7v-18l.61-.66H21.58c.34.28.1.7.18,1.1l.52.57L21.53,100H12.94c-.1.13-.19.19-.19.25,0,1.1,0,2.2,0,3.28a1.14,1.14,0,0,0,.2.19.5.5,0,0,0,.21,0h7.47l1.09,1.45v1.16l-.61.67H13.5l-.76.75c0,1.57,0,3.14,0,4.72,0,.06.1.12.22.25h8.17c.38.61.77,1.16,1.07,1.75a1.9,1.9,0,0,1,0,.82l-.7.75Z"/><path d="M52.8,13.26H51.47l-.55.41-.49-.38H49l-.73-1h-.67l-.66-.74V10.18l.61-.66h1.14l.17.72.67.62h.85l.52.45,1.1-.63a1.82,1.82,0,0,1,.22-.59c.18-.25.45-.43.33-1l-1.3-1c-.58.11-1.14-.53-1.92-.7v-2c.72-1,1-2.45,2-3.55h1.87L55.8,3.29h.81l.66.75V5l-.56.61c-.45.11-.92.29-1.28-.13s-.72-.2-1.31-.28l-.6-.87-.78,0a3.31,3.31,0,0,1-.25.77c-.16.26-.48.41-.37.9L54,6.83l0,.48.94,1v2.19l-.64,1.29Z"/><path d="M41.86,6.13h-.92l-.69-.69V4l1.21-1.15h.87l1-1h.93L45.19,1l1.08,0,.6-.91h1.19l.71.68a7.34,7.34,0,0,0,0,1.32c.09.54-.43.8-.47,1.23s0,.94-.47,1.23c.24.57-.53.72-.49,1.34l.46.7c0,.42,0,1.11,0,1.8-.52.52-1.23-.05-1.77.33a4.06,4.06,0,0,1-1.3,2.71h-1l-.69-.69V9.24c.56-.34.43-1.11.93-1.51.07-.05,0-.29,0-.45-.32-.36-.74-.11-1.13-.19Zm3.6-1.64c-.09-.37.16-.79-.17-1.12-.57.17-.74,1-1.48.89-.05,0-.12.2-.18.3.32.21.45.69,1.09.62C45,5.09,45.16,4.72,45.46,4.49Z"/><path d="M62.09,11.16c-.55.23-.76.3-1,.4a3.07,3.07,0,0,0-.36.27H59.13a5.77,5.77,0,0,1-1.34-.74,7.22,7.22,0,0,1-.91-1.4V7.87c.42-.6.6-1.54,1.37-1.92s1.2-1,2.07-.72c.33.08.46.66,1,.36.5.53,1,1,1.46,1.56a10.82,10.82,0,0,1,.62,1.17c.43.68-.3,1.27-.52,1.88A2.76,2.76,0,0,1,62.09,11.16Zm-2-.81c.4-.72.56-1.1.8-1.43a.59.59,0,0,0,0-.84h-2c-.05,0-.11.1-.16.16s0,.29,0,.18Z"/><path d="M24.36,109.49l-1.18-1.18v-.94c.44-.25.4-.77.66-1.17H31l.66.61v1.43L31,109.49Z"/><path d="M46.65,44.07H45.32c-.35-.28-.81-.46-.81-1,0-.07,0-.17.05-.21.66-.67,1.32-1.34,2-2l.8-.27V40c.29-.41.72-.18,1.24-.27l.67.75C48.94,42.12,47.68,43,46.65,44.07Z"/><path d="M11.36,42.17V40c.37-.38.79-.05,1-.16L15.56,43v.82c-.08.08-.14.19-.19.19-.63,0-1.25,0-1.92,0L13,43.13h-.52l-.43-1Z"/><path d="M11.49,75.9l.7-.18.14-.69.78-.27.18-.72a5.36,5.36,0,0,1,.62-.1,7.53,7.53,0,0,1,.95,0c.22,0,.43,0,.69.08l0,.85C14.48,76,13.43,77,12.27,78.19h-.72l-.75-.75C11,77,11.25,76.44,11.49,75.9Z"/><path d="M49.25,77v1c-.46.48-1,.14-1.46.21l-3.36-3.35c-.09-.32.52-.48.71-.88h1.45c.72.25.64,1.13,1.16,1.58S48.76,76.51,49.25,77Z"/><path d="M25.71,46l-.56-1.3,1.05-.54H27l.73-.55c.56-.33,1.06.4,1.73.51l.53-.45.5.43h.91l.75-.58.75.59h1.41a2.53,2.53,0,0,1,.13,1.73c-.09.07-.15.16-.2.16Z"/></g></g></svg>