<svg xmlns="http://www.w3.org/2000/svg" viewBox="0 0 102.75 102.98"><title>Recurso 93MANDALA</title><g id="Capa_2" data-name="Capa 2"><g id="Capa_1-2" data-name="Capa 1"><path d="M55.88,46.77a14.94,14.94,0,0,1,4.83-4.3,11,11,0,0,1,6.53-1.39,23.5,23.5,0,0,1,6.14,2.15,34.72,34.72,0,0,0,5.9,2.06A24.44,24.44,0,0,0,85.2,46a16.55,16.55,0,0,0,5.58-1.23,29,29,0,0,0,2.69-1.19c.87-.49,1.75-1,2.6-1.52s1.7-1.14,2.58-1.7,1.68-1.22,2.59-1.79l.17.17a25.36,25.36,0,0,1-4.17,4.86,19.24,19.24,0,0,1-5.47,3.6,14.45,14.45,0,0,1-6.63,1.12,15,15,0,0,1-3.28-.57,21.1,21.1,0,0,1-3-1.2A53.06,53.06,0,0,0,73.1,44a17.27,17.27,0,0,0-6-.85,22,22,0,0,0-2.84.28l-.71.13-.69.2a10.15,10.15,0,0,0-1.38.46A45.89,45.89,0,0,0,56.05,47Z"/><path d="M54,45.51a15,15,0,0,1,3.06-5.69,11,11,0,0,1,5.67-3.53,23.27,23.27,0,0,1,6.5-.09,35.21,35.21,0,0,0,6.25-.08,24.33,24.33,0,0,0,5.8-1.35,16.42,16.42,0,0,0,4.83-3.06,29,29,0,0,0,2.12-2c.64-.76,1.32-1.5,1.92-2.32S91.36,25.7,92,24.88s1.17-1.73,1.83-2.57l.22.1a25.63,25.63,0,0,1-2.26,6,19.32,19.32,0,0,1-3.91,5.27A14.58,14.58,0,0,1,82,37a15,15,0,0,1-3.29.59,20.7,20.7,0,0,1-3.25-.1A53.67,53.67,0,0,0,69.22,37a17,17,0,0,0-5.9,1.24,21.12,21.12,0,0,0-2.58,1.24l-.62.35-.57.43a9,9,0,0,0-1.15.91,43.94,43.94,0,0,0-4.19,4.46Z"/><path d="M51.79,45a15,15,0,0,1,.94-6.4,10.92,10.92,0,0,1,4.11-5.26A23.69,23.69,0,0,1,62.93,31a35.34,35.34,0,0,0,5.84-2.22,24,24,0,0,0,5-3.25A16.59,16.59,0,0,0,77.25,21a28.06,28.06,0,0,0,1.29-2.64c.35-.93.73-1.86,1-2.84s.57-2,.88-2.95.51-2,.84-3l.24,0a25.41,25.41,0,0,1-.08,6.4,19,19,0,0,1-1.87,6.28,14.51,14.51,0,0,1-4.36,5.11A14.92,14.92,0,0,1,72.33,29a21.91,21.91,0,0,1-3.09,1,53.54,53.54,0,0,0-6.06,1.71A16.86,16.86,0,0,0,58.07,35a19.25,19.25,0,0,0-2,2l-.46.55-.4.6a10.14,10.14,0,0,0-.76,1.23A43.13,43.13,0,0,0,52,45Z"/><path d="M49.54,45.23a14.93,14.93,0,0,1-1.31-6.33,11,11,0,0,1,2.07-6.35,23.41,23.41,0,0,1,4.93-4.25A34.92,34.92,0,0,0,60,24.22a24.13,24.13,0,0,0,3.58-4.76A16.77,16.77,0,0,0,65.27,14c.18-.95.22-1.94.31-2.93s0-2,0-3S65.43,6,65.38,5s-.21-2.07-.25-3.14l.24-.06a25.75,25.75,0,0,1,2.11,6,19.07,19.07,0,0,1,.39,6.54,14.55,14.55,0,0,1-2.35,6.3,15,15,0,0,1-2.13,2.56,21.93,21.93,0,0,1-2.56,2,53.47,53.47,0,0,0-5.1,3.68A16.91,16.91,0,0,0,52,33.67a20.17,20.17,0,0,0-1.18,2.6l-.24.67-.17.7a9.68,9.68,0,0,0-.3,1.42,44.74,44.74,0,0,0-.34,6.12Z"/><path d="M47.51,46.23a15,15,0,0,1-3.4-5.5,11,11,0,0,1-.23-6.67,23.42,23.42,0,0,1,3.19-5.68,35.21,35.21,0,0,0,3-5.45,24.32,24.32,0,0,0,1.73-5.7,16.61,16.61,0,0,0-.23-5.71c-.16-1-.46-1.9-.72-2.86s-.64-1.89-1-2.83S49,4,48.64,3,47.73,1.13,47.32.14l.2-.14a25.88,25.88,0,0,1,4.06,5,19.18,19.18,0,0,1,2.6,6,14.67,14.67,0,0,1,0,6.72A15.68,15.68,0,0,1,53,20.83a22.75,22.75,0,0,1-1.71,2.76,52.45,52.45,0,0,0-3.54,5.2,17.22,17.22,0,0,0-1.88,5.73,21.14,21.14,0,0,0-.21,2.85v.72l.08.71A8.93,8.93,0,0,0,46,40.24a42.7,42.7,0,0,0,1.77,5.86Z"/><path d="M46,47.87a14.9,14.9,0,0,1-5.08-4,11,11,0,0,1-2.5-6.19,24,24,0,0,1,1.05-6.42,33.62,33.62,0,0,0,1-6.17,24.21,24.21,0,0,0-.31-5.94,16.83,16.83,0,0,0-2.18-5.3c-.48-.84-1.08-1.62-1.65-2.43s-1.24-1.56-2-2.3-1.4-1.48-2.11-2.24S30.73,5.42,30,4.63l.13-.21a25.83,25.83,0,0,1,5.51,3.27,19,19,0,0,1,4.5,4.77,14.57,14.57,0,0,1,2.25,6.32,14.92,14.92,0,0,1,0,3.34,20.85,20.85,0,0,1-.66,3.18,53,53,0,0,0-1.55,6.1,17.33,17.33,0,0,0,.2,6,22.79,22.79,0,0,0,.77,2.75l.25.67.32.64a9.42,9.42,0,0,0,.69,1.29,44,44,0,0,0,3.67,4.9Z"/><path d="M45,50a15.11,15.11,0,0,1-6.14-2,11,11,0,0,1-4.47-5,23.46,23.46,0,0,1-1.21-6.39,34,34,0,0,0-1.17-6.14,23.86,23.86,0,0,0-2.33-5.48,16.85,16.85,0,0,0-3.85-4.23c-.74-.63-1.57-1.16-2.38-1.72s-1.71-1-2.62-1.5-1.83-.9-2.76-1.38-1.9-.85-2.84-1.35l.06-.24a25.69,25.69,0,0,1,6.29,1.19,18.88,18.88,0,0,1,5.86,2.94,14.64,14.64,0,0,1,4.28,5.18A15.49,15.49,0,0,1,32.91,27a22.36,22.36,0,0,1,.46,3.21A53.24,53.24,0,0,0,34,36.44,16.92,16.92,0,0,0,36.26,42a20.31,20.31,0,0,0,1.66,2.32l.46.55.52.49a10.07,10.07,0,0,0,1.09,1,43.1,43.1,0,0,0,5.12,3.35Z"/><path d="M44.89,52.21a15,15,0,0,1-6.46.19,11,11,0,0,1-5.9-3.14,24,24,0,0,1-3.32-5.59A34,34,0,0,0,26,38.3,23.83,23.83,0,0,0,22,34a16.62,16.62,0,0,0-5.07-2.66,28.79,28.79,0,0,0-2.83-.8c-1-.19-2-.4-3-.51s-2-.23-3.06-.36-2.08-.15-3.14-.29l0-.25a25.3,25.3,0,0,1,6.31-1,19.13,19.13,0,0,1,6.52.75,14.72,14.72,0,0,1,5.79,3.4,15.71,15.71,0,0,1,2.15,2.55,21.51,21.51,0,0,1,1.54,2.87,53.77,53.77,0,0,0,2.73,5.66,17.12,17.12,0,0,0,4,4.49,20.49,20.49,0,0,0,2.36,1.61l.62.36.66.29a9.22,9.22,0,0,0,1.35.53,42.25,42.25,0,0,0,6,1.4Z"/><path d="M45.53,54.38a14.93,14.93,0,0,1-6,2.39,11,11,0,0,1-6.61-.93,23.78,23.78,0,0,1-5-4.12A34.24,34.24,0,0,0,23,47.77a24.18,24.18,0,0,0-5.31-2.7,17,17,0,0,0-5.67-.76,29.27,29.27,0,0,0-2.93.21c-1,.16-2,.3-3,.54s-2,.48-3,.71-2,.57-3,.79L0,46.34a25.63,25.63,0,0,1,5.58-3.13A19.29,19.29,0,0,1,12,41.69a15,15,0,0,1,9.5,2.88,21.9,21.9,0,0,1,2.43,2.16,53.07,53.07,0,0,0,4.5,4.39A17.16,17.16,0,0,0,33.71,54a21.25,21.25,0,0,0,2.77.71l.7.12.72.05a10.14,10.14,0,0,0,1.46,0,44.29,44.29,0,0,0,6.07-.72Z"/><path d="M46.87,56.21A14.94,14.94,0,0,1,42,60.51a10.89,10.89,0,0,1-6.53,1.38,23.26,23.26,0,0,1-6.14-2.15,34.68,34.68,0,0,0-5.9-2.05A23.94,23.94,0,0,0,17.56,57,16.78,16.78,0,0,0,12,58.19c-.91.33-1.79.78-2.69,1.2s-1.75,1-2.6,1.52S5,62,4.1,62.61,2.42,63.83,1.51,64.4l-.17-.18a26,26,0,0,1,4.17-4.85A19.39,19.39,0,0,1,11,55.76a14.52,14.52,0,0,1,6.62-1.11,15.11,15.11,0,0,1,3.29.57,22.08,22.08,0,0,1,3,1.2A54,54,0,0,0,29.65,59a17.31,17.31,0,0,0,6,.84,20.69,20.69,0,0,0,2.84-.28l.7-.12.69-.21a10.1,10.1,0,0,0,1.38-.45A45.89,45.89,0,0,0,46.7,56Z"/><path d="M48.76,57.47a15,15,0,0,1-3.07,5.69A11,11,0,0,1,40,66.69a23.34,23.34,0,0,1-6.51.08,35.2,35.2,0,0,0-6.25.09,24.44,24.44,0,0,0-5.8,1.34,16.79,16.79,0,0,0-4.83,3.07,27,27,0,0,0-2.11,2c-.65.76-1.33,1.5-1.93,2.32s-1.21,1.65-1.84,2.47-1.17,1.73-1.82,2.57l-.23-.1a25.87,25.87,0,0,1,2.26-6,19.48,19.48,0,0,1,3.91-5.26A14.55,14.55,0,0,1,20.73,66,14.78,14.78,0,0,1,24,65.42a20.62,20.62,0,0,1,3.25.1,53.83,53.83,0,0,0,6.27.46,17.36,17.36,0,0,0,5.91-1.24A21.71,21.71,0,0,0,42,63.5l.62-.36.58-.43a8.65,8.65,0,0,0,1.14-.9,45,45,0,0,0,4.19-4.46Z"/><path d="M51,58A14.88,14.88,0,0,1,50,64.4a10.92,10.92,0,0,1-4.11,5.26A23.69,23.69,0,0,1,39.82,72,34.47,34.47,0,0,0,34,74.18a24.9,24.9,0,0,0-5,3.24A16.48,16.48,0,0,0,25.5,82c-.49.83-.87,1.74-1.29,2.64s-.73,1.86-1,2.84-.57,2-.88,3-.51,2-.83,3l-.25,0a25.88,25.88,0,0,1,.08-6.4,19.24,19.24,0,0,1,1.87-6.28,14.73,14.73,0,0,1,4.36-5.12,15.41,15.41,0,0,1,2.88-1.67,22.79,22.79,0,0,1,3.09-1,53.54,53.54,0,0,0,6.06-1.71A17.24,17.24,0,0,0,44.69,68a21.27,21.27,0,0,0,2-2l.46-.55.4-.6a9.14,9.14,0,0,0,.76-1.24A42.41,42.41,0,0,0,50.71,58Z"/><path d="M53.21,57.75a14.93,14.93,0,0,1,1.31,6.33,10.9,10.9,0,0,1-2.07,6.35,23.41,23.41,0,0,1-4.93,4.25,34.23,34.23,0,0,0-4.73,4.08,24.52,24.52,0,0,0-3.58,4.76A16.7,16.7,0,0,0,37.48,89c-.18,1-.22,1.94-.31,2.92s0,2,0,3,.13,2,.18,3.08.21,2.06.25,3.13l-.23.07a25.33,25.33,0,0,1-2.12-6,19.32,19.32,0,0,1-.39-6.54,14.5,14.5,0,0,1,2.35-6.3,16,16,0,0,1,2.13-2.56,21.93,21.93,0,0,1,2.56-2A53.47,53.47,0,0,0,47,74.06a16.91,16.91,0,0,0,3.72-4.75,20.17,20.17,0,0,0,1.18-2.6l.25-.67.16-.7a9.54,9.54,0,0,0,.3-1.43A44.5,44.5,0,0,0,53,57.8Z"/><path d="M55.24,56.75a14.91,14.91,0,0,1,3.4,5.5,11,11,0,0,1,.23,6.67,23.42,23.42,0,0,1-3.19,5.68,34.35,34.35,0,0,0-3,5.45,23.75,23.75,0,0,0-1.74,5.7,16.62,16.62,0,0,0,.24,5.71,26.36,26.36,0,0,0,.71,2.85c.33.94.64,1.9,1,2.83S53.71,99,54.12,100s.9,1.87,1.31,2.86l-.2.15a25.77,25.77,0,0,1-4-5,19.21,19.21,0,0,1-2.61-6,14.67,14.67,0,0,1,0-6.72,16.08,16.08,0,0,1,1.13-3.14,21,21,0,0,1,1.72-2.76A56.14,56.14,0,0,0,55,74.19a17.25,17.25,0,0,0,1.87-5.74,20.89,20.89,0,0,0,.22-2.84v-.72L57,64.18a8.93,8.93,0,0,0-.21-1.44A42.7,42.7,0,0,0,55,56.88Z"/><path d="M56.81,55.11a15.05,15.05,0,0,1,5.07,4,11,11,0,0,1,2.5,6.2,24,24,0,0,1-1,6.42,34.35,34.35,0,0,0-1,6.17,24.21,24.21,0,0,0,.31,5.94,16.91,16.91,0,0,0,2.18,5.29c.48.85,1.08,1.63,1.65,2.44s1.25,1.56,2,2.3,1.41,1.48,2.11,2.24,1.5,1.45,2.22,2.24l-.14.21a25.83,25.83,0,0,1-5.51-3.27,19.32,19.32,0,0,1-4.5-4.77,14.56,14.56,0,0,1-2.25-6.33,15.45,15.45,0,0,1,0-3.33A21.85,21.85,0,0,1,61,77.68a53,53,0,0,0,1.55-6.1,17.33,17.33,0,0,0-.2-6,21.09,21.09,0,0,0-.77-2.75l-.25-.67L61,61.48a8.83,8.83,0,0,0-.69-1.28,45.15,45.15,0,0,0-3.66-4.9Z"/><path d="M57.72,53a15.11,15.11,0,0,1,6.14,2,10.93,10.93,0,0,1,4.46,5,23.46,23.46,0,0,1,1.21,6.39,34.87,34.87,0,0,0,1.17,6.14A24,24,0,0,0,73,78a16.5,16.5,0,0,0,3.86,4.22A28.46,28.46,0,0,0,79.27,84c.85.51,1.7,1,2.62,1.5s1.82.9,2.75,1.38,1.9.85,2.84,1.35l-.06.24a25.61,25.61,0,0,1-6.28-1.19,19.49,19.49,0,0,1-5.87-2.94A14.51,14.51,0,0,1,71,79.15,15.52,15.52,0,0,1,69.84,76a22.29,22.29,0,0,1-.46-3.22,55.52,55.52,0,0,0-.63-6.26A17.36,17.36,0,0,0,66.5,61a21.7,21.7,0,0,0-1.67-2.32l-.46-.55-.52-.49a8.39,8.39,0,0,0-1.09-1,43.1,43.1,0,0,0-5.12-3.35Z"/><path d="M57.86,50.77a14.79,14.79,0,0,1,6.46-.19,10.9,10.9,0,0,1,5.9,3.14,23.42,23.42,0,0,1,3.32,5.59,34.76,34.76,0,0,0,3.2,5.37A24.16,24.16,0,0,0,80.8,69a16.83,16.83,0,0,0,5.07,2.65,28.82,28.82,0,0,0,2.83.81c1,.18,2,.4,3,.51s2,.23,3.06.36,2.08.15,3.14.29l0,.25a25.22,25.22,0,0,1-6.31,1,19.16,19.16,0,0,1-6.52-.75,14.63,14.63,0,0,1-5.79-3.41,15.23,15.23,0,0,1-2.15-2.54,22.14,22.14,0,0,1-1.54-2.87,53.94,53.94,0,0,0-2.73-5.67,17.23,17.23,0,0,0-4-4.48,21.94,21.94,0,0,0-2.36-1.62l-.62-.35L65.18,53a10,10,0,0,0-1.35-.54,43.69,43.69,0,0,0-6-1.39Z"/><path d="M57.22,48.6a15,15,0,0,1,6-2.4,11,11,0,0,1,6.61.94,23.53,23.53,0,0,1,5,4.12,35.55,35.55,0,0,0,4.84,4A24.4,24.4,0,0,0,85,57.91a17,17,0,0,0,5.67.76,29.27,29.27,0,0,0,2.93-.21c1-.16,2-.3,3-.54s2-.48,3-.71,2-.57,3.05-.8l.1.23a25.63,25.63,0,0,1-5.58,3.13,19.23,19.23,0,0,1-6.38,1.52,14.72,14.72,0,0,1-6.6-1.22,15.35,15.35,0,0,1-2.9-1.66,22.73,22.73,0,0,1-2.42-2.16,53.17,53.17,0,0,0-4.51-4.39A17.16,17.16,0,0,0,69,49a19.41,19.41,0,0,0-2.77-.71l-.7-.12-.72,0a10,10,0,0,0-1.45,0,44.43,44.43,0,0,0-6.08.72Z"/></g></g></svg>