<svg xmlns="http://www.w3.org/2000/svg" viewBox="0 0 100.57 100.57"><title>Recurso 21MANDALA</title><g id="Capa_2" data-name="Capa 2"><g id="Capa_1-2" data-name="Capa 1"><path d="M54.18,77.93h.51l0,0v.49s.08,0,.13,0h.25s.09,0,.13,0v2a.33.33,0,0,0,.17,0h.34l0,0v1h-.5l0,0V82s0,.06,0,.08h.5v.5s0,0,0,0h.41s.07,0,.09,0v-.5h.5s0,.06,0,.09v.41l0,0h.49a.43.43,0,0,0,0-.16V82.1h1s0-.09,0-.13v-.26a.3.3,0,0,1,0-.13h1v.51a.45.45,0,0,0,.16,0h.35a0,0,0,0,1,0,0v1h-1v1a0,0,0,0,0,0,0h.5v2.07s.06,0,.09,0h.42s0,0,0,0,0,0,0,0v1a8.64,8.64,0,0,0,1,0v-.5a2.34,2.34,0,0,1,.53,0v.49l0,0h1a.3.3,0,0,0,0-.16V86.8a.38.38,0,0,1,.15,0h1.39l0,0v-.48l0,0h.48l0,0v-2s.06,0,.09,0h.41s0,0,0,0v-.49H64.6v-.5s-.09,0-.13,0h-.39v-.5l0,0h-1a.43.43,0,0,1,0-.16v-.34l0,0H60.45a2.21,2.21,0,0,1,0-.52h5.7s0,0,0,0v.48s0,0,0,0h-.49l0,0v.49a.43.43,0,0,0,.16,0h.35v.52h-.49a0,0,0,0,1,0,0v3.09s0,0,0,0h.49s0,0,0,.08v.42l0,0h1s0,.11,0,.16v.36h1a.92.92,0,0,1,0,.16v.36h.5l0,0v-.48s0,0,0,0h3.1a0,0,0,0,1,0,0v.48l0,0h1.52l0,0v-.48l0,0H74s0,0,0,.08v.43c.21,0,1.26,0,2.59,0a.43.43,0,0,0,0-.16v-.35h1s0,0,0,0h0v.47l0,0h.48l0,0v2.57s0,0-.08,0h-.42l0,0v.48h1v1s-.08,0-.12,0H78.4a.56.56,0,0,0-.13,0s-.08,0-.13,0v1.53l0,0h-.48a.3.3,0,0,0,0,.16v.34l0,0h-1l0,0h0v-.49H48l0,0s0,0,0,0,0-.31,0-.46a0,0,0,0,0,0,0h-.49l0,0v1h-.5s0-.06,0-.09v-.41s0,0,0,0H45.35a2,2,0,0,1,0-.51.34.34,0,0,1,.14,0h.88a2.23,2.23,0,0,0,0-.52h-.49s0-.1,0-.15V89.91h-.5s0,0,0,0v-.5h.52V88.9h0a0,0,0,0,0,0,0h-.51v.5h-.5s0,0,0-.06v-1l0,0h1.52s0-.06,0-.08v-.42l0,0h.49a.43.43,0,0,0,0-.16,1.21,1.21,0,0,0,0-.19v-.16a.34.34,0,0,1,.14,0h.37s0,0,0,0h0v-1l0,0h.48s0,0,0,0,0,0,0,0v-1s0,0,0,0,0,0,0,0h.49a0,0,0,0,0,0,0s0,0,0,0v-.47s-.06,0-.09,0h-.94s0,0,0,0v-1h.52v-.49h-.52v.5h-.52v-1h-.49a0,0,0,0,0,0,0V81.07a.5.5,0,0,0-.17,0h-.34l0,0V80h.5s0,0,0,0v.41s0,.07,0,.09h.5V81l0,0h.49s0,0,0,0v-.49h-.52v-1h-.35c-.05,0-.11,0-.16,0v-1s0,0,0,0h-.49s0,0,0,0v-1l0,0h-1v-1l0,0h-.5v1h-.5s0,0,0-.08v-.94l0,0h-.5v-1l0,0h-.48l0,0h0V71.69h.49l0,0v-.49s0,0,.08,0h1.46s0,0,0,0v-2a.43.43,0,0,0-.16,0H44.3a0,0,0,0,0,0,0v-.48s0,0,0,0h.5v-.5h-.5s0-.06,0-.09v-.42h-.5l0,0h0V66s0,0,0,0h-.48l0,0v-2l0,0h-.48l0,0V62.33s-.06,0-.09,0h-.42v0s0,0,0,0V60.76a.49.49,0,0,0-.17,0H41.7v0c0-.16,0-.32,0-.48h.49l0,0v-.49h-.5s0,0,0,0h0c0-.16,0-.32,0-.48l0,0h-.48a2.63,2.63,0,0,1,0-.51h.49l0,0a0,0,0,0,0,0,0,3.69,3.69,0,0,0,0-.47v0h-.49l0,0v-.48a.29.29,0,0,0-.16,0h-.35c0-.21,0-1.36,0-2.07h5.71a0,0,0,0,1,0,0v1a2.87,2.87,0,0,0,.51,0v-.49l0,0h.49a.43.43,0,0,1,0,0v1.5h-1v0h0v1h.51s0-.08,0-.12a.56.56,0,0,0,0-.13v-.13c0-.05,0-.09,0-.13h.5s0,0,0,0v1.53h-.52v.47s0,0,0,0h.5v-.51h.52v1.55h-.52v.48a0,0,0,0,0,0,0h.51c0-.17,0-.34,0-.5h.53v1.55H48l0,0c0,.15,0,.31,0,.47v0h.5l0,0v-.5H49v2.08h-.5s0,0,0,0v.49H49s0,0,0,0v-.5h.5l0,0v1.55H49V67h.5s0,0,0,0v-.49H50V68h-.5s0,0,0,0v.47h0s0,0,0,0H50l0,0V68h.5l0,0V69.6H50l0,0v.49a0,0,0,0,1,0,0h.5a0,0,0,0,1,0,0v-.5H51s0,0,0,.07v1h-.5a1.7,1.7,0,0,0,0,.52h1.53s0,.09,0,.13v.26a.2.2,0,0,0,0,.13h.48s0,0,0,0v2h.51a0,0,0,0,1,0,0v1s0,0,0,0h-.5v.5h1s0,0,0,0v.48l0,0h.49s0,0,0,0h0v1h-.5a2.15,2.15,0,0,0,0,.51h.48s0,0,0,0,0,0,0,0v.48h-.5v0a8.1,8.1,0,0,0,0,1h.49v-1Zm1.56,11a0,0,0,0,0,0,0H54.2l0,0c0,.14,0,.28,0,.42s0,.06,0,.08h.49l0,0v.49h.5l0,0v-.48s.09,0,.13,0h.26s.08,0,.12,0Zm20.32,3.64H74.5V93s0,0,0,0H76s0,0,0,0ZM51.58,88.87v.5s0,0,0,0h1.55v-.51Zm.52-3.12h1.54l0,0v-.42s0-.06,0-.08H52.1Zm.53-1.06a8.85,8.85,0,0,0,1,0V84.2a8.85,8.85,0,0,0-1,0ZM43.26,73.77a9,9,0,0,0,0,1h.5c0-.18,0-.87,0-1ZM58.35,84.18v-1l0,0h-.5v1s0,0,0,0Zm-9.88,6.26a8.85,8.85,0,0,0,0,1H49a8.85,8.85,0,0,0,0-1Zm20.29-1.57h-1s0,0,0,0v.42s0,.06,0,.08h1Zm-12-2.6h1s0,0,0,0v-.42s0-.06,0-.08h-1Zm-3.65,6.25V93l0,0h.42s.06,0,.08,0v-.45s0,0,0,0,0,0,0,0Zm-1,0V93l0,0h.42s.06,0,.08,0v-.48s0,0,0,0ZM70.85,91v.5l0,0h.42s.06,0,.08,0V91a0,0,0,0,1,0,0ZM56.79,88.87h-.5l0,0v.49h.52Zm-8.33-1.56v-.5l0,0H48s-.06,0-.09,0v.46s0,0,0,0v0Zm3.62-2.6s0,0,0,0V84.2s0,0,0,0H51.6l0,0v.49h.5Zm-8.3-9.38a0,0,0,0,1,0,0v.48s0,0,0,0h.49s0,0,0,0v-.48l0,0ZM51.58,93v-.5s0,0,0,0h-.49s0,0,0,0V93a0,0,0,0,1,0,0Z"/><path d="M45.85,80h-.52V79h.52Z"/><path d="M44.81,78.46h-.52v-1h.52Z"/><path d="M47.41,94.08h.52v.5h-.5l0,0Z"/><path d="M55.75,81.58h.52v.5h-.52Z"/><path d="M45.33,79h-.51s0,0,0,0v-.49h.51s0,0,0,0Z"/><path d="M59.39,84.18v-.49l0,0h.49a0,0,0,0,1,0,0v.49h-.52Z"/><path d="M72.59,67.08l.36-.35h0l.35.35c.05,0,.07-.06.1-.08l.09-.09a.94.94,0,0,1,.1-.1s0-.06.1-.08l1.45,1.46a.26.26,0,0,0,.12-.11l.14-.13.11-.11h0l.73.72-.35.34s0,0,0,0v0l.3.3s0,0,.07,0l.35-.35.35.34h0s0,0,0,0l.29-.3s.05,0,.05-.07L77,68.55l.36-.35s0,0,.07,0l.3.3h0l.35-.35a.63.63,0,0,0-.11-.12l-.13-.13-.12-.12.72-.73s0-.07-.08-.1a.76.76,0,0,0-.09-.09l-.09-.1s-.07,0-.08-.1l.72-.71h0l0,0,.32.32c.06,0,.09-.07.13-.1l.13-.13.11-.11h0l.7.71s0,0,0,0,0,0,0,0l-.69.7v0l.72.72h0l0,0,.33-.32,1.46,1.46s0,0,.07,0l.29-.3h0l.69.7a9.84,9.84,0,0,0,.74-.73l-.35-.36a2.58,2.58,0,0,1,.37-.37l.35.35h0l.71-.71c0-.06-.06-.09-.1-.13l-.13-.13-.12-.11a.43.43,0,0,1,.11-.12l.11-.12.11-.1.1-.11.12-.12.11-.1.1-.11.11-.1.12-.12.1-.1v0h0L85.5,66v0l.34-.34v0h0l-1.44-1.43s0-.06,0-.08l.29-.29v0l-.35-.35a.63.63,0,0,0-.12.11,1.59,1.59,0,0,1-.13.13l-.12.12-.35-.35c-.06,0-.08.05-.11.08l-.09.09-.09.09-.1.09-.35-.35h0l0,0-.69.68c-.06,0-.08-.06-.12-.1l-.14-.13-.11-.11h0L80,65.59a2,2,0,0,1-.37-.36l4-4h0l.33.33v0l-.35.34v0c.11.11.22.23.34.34s.08-.07.12-.1l.14-.13.11-.12h0c.12.11.23.23.34.34v0s0,0,0,0l-.33.32v0l2.19,2.19h0v0l.33-.33s.06,0,.08,0l.29.3h0l.71-.7.12.11a1.59,1.59,0,0,0,.13.13,1.36,1.36,0,0,0,.12.12l.73-.73a.63.63,0,0,1,.12.11l.13.13.12.12.36-.36v0l0,0-.3-.3v0l2.17-2.17h0v0l.33.32h0l1.06-1.06v0l-.35-.34v0h0l.33-.33s.06,0,.08,0l.3.3c.16-.14.91-.88,1.84-1.82,0,0-.07-.08-.11-.12L95.18,58l-.11-.11v0l.7-.71h0l.33.33h0l.35-.34h0l0,0L98.36,59s0,.06,0,.08l-.29.29v0l.34.34h0l.69-.7h0l.71.72s0,.06-.08.09a.43.43,0,0,1-.09.1l-.09.09s-.07,0-.08.1l1.08,1.08v0l0,0-.32.32c0,.05.07.08.11.12l.13.13.11.11v0l-.71.71h0l-.33-.33h0L79.24,82.53s0,0,0,0a0,0,0,0,1,0,0l-.33-.33h0l-.35.35v0h0l.71.71-.35.36s-.06,0-.08,0l-.29-.29h0l0,0-1,1.06A2.27,2.27,0,0,1,77,84s.07-.07.1-.11l.11-.1.1-.11.09-.09.11-.11.1-.1.11-.11a3.17,3.17,0,0,0-.37-.37l-.35.35s-.08-.06-.11-.09l-.11-.11L76.68,83l-.1-.11-.11-.1-.1-.11-.12-.12-.1-.1L76,82.31l-.1-.1-.12-.12L75.71,82l-.1-.1-.11-.11-.12-.12-.1-.1-.11-.11-.35.36h0l0,0-.33-.33.36-.35v0l-.33-.33h0l-.35.35v0l.35.35-.35.36s0,0-.06,0l-.64-.64s0,0,0,0v0L74.42,80s0,0,0-.07l-.29-.3v0l0,0,.32-.32s-.07-.08-.11-.12a1.59,1.59,0,0,0-.13-.13l-.11-.12c0-.05,0-.07.08-.1l.09-.09.08-.08.09-.09v0l-.7-.69v0l.34-.34v0h0l-.68-.69a0,0,0,0,1,0,0s0,0,0,0l.35-.34a0,0,0,0,0,0,0h0l-.33-.33s0,0-.07,0c-.2.19-.39.39-.59.59l-.07.07h0l-.72-.72.35-.36v0l-.33-.34a0,0,0,0,1,0,0h0l-.35.35v0l.36.36-.37.37-.72-.73h0l-.33.33h0l-1.09-1.09a.26.26,0,0,0-.12.11l-.14.13-.11.11h0c-.25-.24-.49-.48-.73-.73l.33-.32,0,0h0a4,4,0,0,0,.29.29s0,.06.07.05l.36-.35c.12.11.23.23.35.35h0L70,74.1h0v0l-.35-.35h0l-.35.36-.72-.72h0l-.11.11a1.59,1.59,0,0,1-.13.13s-.07.09-.13.11L67.48,73l0,0h0l-.33.33a0,0,0,0,0,0,0h0l-.71-.71h0l-.72.72-.73-.72h0l-.36.35.74.74-.36.35s-.05,0-.07,0l-.59-.6-.08-.07s0,0,0,0h0l-.32.32s0,0,0,0h0c-.23-.24-.46-.47-.7-.7h0l-.34.35h0l-2.54-2.54v0l.35-.34v0h0L60.09,70s0-.05,0-.07c.32-.32.63-.64.95-1l.08-.09v0c-.48-.49-1-1-1.45-1.45-.05,0-.08.07-.12.1a1.59,1.59,0,0,0-.13.13l-.11.11h0L59,67.46v0s0,0,0,0l.33-.33v0L59,66.72h0s0,0,0,0l-.33.33s0,0-.07,0l-.3-.3s0,0,0,0h0l-.32.33h0L56.77,66h0a.57.57,0,0,0-.11.11l-.12.11-.12.12h0l-1.43-1.44h0l-.35.34s0,0,0,0l0,0-1-1s-.06,0-.08,0l-.29.3h0s0,0,0,0L52,63.41a.24.24,0,0,0-.12.1l-.14.13-.11.11h0l-.33-.34s0,0,0,0v0l.33-.33v0l-.35-.35h0l0,0-.31.31s0,0,0,0h0l-.33-.34h0l-.33.33a2.12,2.12,0,0,1-.37-.37l.35-.34s0,0,0,0h0l-.33-.33h0l-.35.34h0l0,0L49,61.93C49,62,49,62,48.91,62a.8.8,0,0,0-.13.13l-.12.11c-.16-.14-1-.94-1.46-1.45,0,0,0,0,0,0s0,0,0,0l4-4h0v0l0,0,.66.66h0a2.44,2.44,0,0,0,.37-.36L52,56.78v0h0l.33-.33,0,0,1,1,0,0v0h0l-.69.7v0h0l.7.71h0l.34-.34s0-.07-.08-.1l-.09-.09-.09-.1s-.07,0-.09-.1l.35-.34h0L54.92,59l-.36.35v0l.33.33h0l.35-.35v0L54.92,59l.35-.36h0l1.09,1.09-.35.36v0l.34.34h0l.34-.35v0l-.35-.36.35-.35h0l1.09,1.09c-.12.12-.23.24-.35.35v0l.33.33a0,0,0,0,0,0,0h0l.35-.34v0l-.35-.35.37-.37,1.47,1.47-.35.36v0l.33.34h0l.35-.35v0l-.36-.36.36-.35h0l1.1,1.09-.36.35v0l.33.33h0s0,0,0,0l.35-.34v0c-.12-.11-.24-.23-.35-.35l.35-.35h0L62.65,63c-.12.12-.24.23-.35.35v0l.34.33h0L63,63.4v0L62.65,63l.35-.35h0l1.09,1.09-.35.36v0l.33.34h0l.35-.35v0l-.36-.36.36-.35s0,0,.06,0l.64.65,0,0s0,0,0,0h0l-.33.33a2.9,2.9,0,0,0,.36.37l1.09-1.08c.05,0,.07,0,.1.08s.06.06.1.09l.09.09s0,.07.1.08l.35-.34h0l0,0,1.42,1.42s0,0,0,0h0l.34-.34h0l.7.7s0,0,0,0,0,0,0,0L69.3,66v0l.35.35h0l.66-.66h0l0,0h0l.34.34h0l0,0,.32-.31h0l.69.68s0,0,0,0v0h0l-.32.32h0a2.44,2.44,0,0,0,.36.37l.35-.35h0s0,0,0,0l.34.34c-.11.12-.23.23-.35.35v0a7.84,7.84,0,0,0,.73.72l.35-.35v0Zm8.85,6.64h0L80.34,74.8v0l.3.29s0,0,.07,0l.31-.32,0,0s0,0,0,0l.34.34h0l.31-.32,0,0v0l-.35-.35s.06-.07.09-.1a.76.76,0,0,1,.09-.09l.09-.09s.07,0,.08-.1ZM98.38,61.94h0L97.29,63h0v0l.35.34h0l1-1.05,0,0v0ZM78.49,76.66l.32.32,0,0h0l0,0,1-1s0,0,0,0l-.33-.33,0,0h0Zm-1.84-2.59L77.73,73v0l-.3-.3s0,0-.07,0l-1.08,1.07v0ZM76.27,73a8.38,8.38,0,0,0,.73-.73l-.35-.35a8.38,8.38,0,0,0-.73.73Zm-14.35-1.1a10.15,10.15,0,0,0,.74.73l.35-.35a10.15,10.15,0,0,0-.74-.73Zm18-3.31-.72-.72h0l-.34.33v0l.71.71h0ZM77.39,80c.12.14.61.63.73.73l.35-.35a8.38,8.38,0,0,0-.73-.73ZM90.64,64.5l-.72.72v0l.29.3s0,0,.07,0c.24-.23.48-.47.71-.71v0ZM80.33,71.13l.69-.7,0,0v0a2.76,2.76,0,0,0-.3-.29s0-.06-.07,0l-.68.68,0,0v0Zm1.84,7,.33.33s0,0,0,0h0l.3-.29s.05,0,0-.08l-.31-.31,0,0h0Zm-.74.74.33.32,0,0h0l.29-.3s0,0,0-.07l-.32-.33h0ZM93.59,64.5l.32.33,0,0h0l.29-.3s0,0,0-.07L94,64.17s0,0,0,0,0,0,0,0ZM82.17,73l-.36.36v0l.34.34h0a0,0,0,0,0,0,0c.12-.11.23-.22.34-.34v0Zm-7,4.79-.33-.33s0,0,0,0h0l-.3.3s0,0,0,.07l.33.33a0,0,0,0,0,0,0s0,0,0,0Zm.72-4.41v0L75.54,73h0l-.32.31,0,0v0l.35.35h0C75.67,73.58,75.78,73.47,75.89,73.35ZM63.4,72.59v0l.32.31,0,0h0l.35-.35v0l-.33-.33h0Zm18,7-.35-.35h0c-.11.1-.22.22-.33.33s0,0,0,0h0c.11.12.23.23.34.34h0Z"/><path d="M68.17,74.44l-.36.37-.74-.73.35-.36h0Z"/><path d="M66.33,74.08l-.37.36-.73-.73.37-.37Z"/><path d="M79.22,83.28l.36-.35h0l.35.35h0s0,0,0,0l-.34.33h0Z"/><path d="M76.28,68.55l.35-.35h0l.35.35-.37.37Z"/><path d="M67.07,74.08c-.12.11-.24.23-.35.35h0c-.11-.12-.23-.24-.35-.35l.35-.35h0Z"/><path d="M80.7,67.82l-.36-.36v0l.35-.35h0l.33.34v0Z"/><path d="M77.93,46.39v-.5l0,0h.49s0-.09,0-.13a.62.62,0,0,0,0-.13.56.56,0,0,1,0-.13s0-.09,0-.13h2a.33.33,0,0,0,0-.17v-.34l0,0h1v.51H82s.06,0,.08,0v-.51h.52v-.42s0-.06,0-.09h-.5v-.5s.06,0,.09,0h.41s0,0,0,0v-.49a.43.43,0,0,0-.16,0H82.1v-1a.2.2,0,0,0-.13,0h-.26a.3.3,0,0,1-.13,0v-1h.51a.43.43,0,0,0,0-.16v-.35h1v1l0,0h1v0s0,0,0,0v-.46h2.07s0-.06,0-.09v-.42h1a8.64,8.64,0,0,0,0-1h-.5a2.26,2.26,0,0,1,0-.52h.49s0,0,0,0v-1s-.11,0-.16,0H86.8a.38.38,0,0,1,0-.15V36.51l0,0h-.5V36l0,0h-2s0-.06,0-.08v-.42l0,0h-.49s0,.11,0,.16V36h-.5s0,.09,0,.13v.39h-.5l0,0v1c-.05,0-.11,0-.16,0h-.34s0,0,0,0h0v2.55a2.77,2.77,0,0,1-.52,0V34.42h.5s0,0,0,0v.48l0,0h.49a.43.43,0,0,0,0-.16v-.35h.52v.49h3.13v-.48s0,0,.08,0h.42l0,0v-1h.52v-1h.52v-.5l0,0h-.5v-3.1h.5l0,0h0V27.14s0,0,0,0h-.48l0,0v-.49s0,0,.08,0,.29,0,.43,0c0-.22,0-1.27,0-2.6a.43.43,0,0,0-.16,0h-.35V23s0,0,0,0h.48l0,0v-.48l0,0h2.57s0,.05,0,.08v.42l0,0h.48s0,0,0,0h0c0-.33,0-.66,0-1v0h1S92,22,92,22v.13a.56.56,0,0,0,0,.13s0,.08,0,.13h1.53l0,0v.49a.43.43,0,0,0,.16,0h.34l0,0v1l0,0h-.48l0,0V52.62H93v.49l0,0h1v.5s-.06,0-.09,0h-.41s0,0,0,0v1.52a1.59,1.59,0,0,1-.51,0,.33.33,0,0,1,0-.14v-.87a1.74,1.74,0,0,0-.52,0v.49a.26.26,0,0,1-.15,0H89.91v.5s0,0,0,0h-.5v-.5a0,0,0,0,0,0,0h-.5v.5h.51v.5s0,0-.06,0h-1l0,0V54.22s-.06,0-.08,0h-.42l0,0v-.49a.43.43,0,0,0-.16,0h-.35a.33.33,0,0,1,0-.14v-.36l0,0h-1l0,0v-.48s0,0,0,0h-1l0,0v-.48l0,0h-.49s0,.05,0,.08c0,.28,0,.56,0,.84v.1l0,0h-1v-.52h-.5v.51h.5v.52h-1l0,0h0v.47a0,0,0,0,0,0,0H81.07a.43.43,0,0,0,0,.16v.34l0,0H80v-.5l0,0h.41s.07,0,.09,0v-.5H81l0,0v-.49h-.51s0,0,0,0v.5h-1V54c0,.05,0,.11,0,.16h-1c0,.16,0,.31,0,.47h0l0,0h-1l0,0v1h-1l0,0v.5h1v.5s0,0-.08,0h-.94l0,0v.49h-1l0,0v.48l0,0H71.69v-.49l0,0h-.49s0,0,0-.08V55.78s0,0,0,0h-2a.43.43,0,0,0,0,.16v.35h-.52v-.49H68v.48s-.06,0-.09,0h-.42v.5s0,0,0,0H66s0,0,0,0A.85.85,0,0,0,66,57v.33H63.89l0,0v.48s0,0,0,0H62.33s0,.06,0,.09v.42l0,0H60.76a.42.42,0,0,0,0,.16v.34l0,0h-.48v-.5l0,0h-.5s0,0,0,0v.45H59.2l0,0v.48a2.63,2.63,0,0,1-.51,0v-.49l0,0h-.51v.49s0,0,0,0h-.48a.29.29,0,0,0,0,.16v.35c-.21,0-1.36,0-2.07,0,0,0,0,0,0,0h0V54.21h1a3,3,0,0,0,0-.52h-.49l0,0v-.49h1.55s0,0,0,0v1h0a0,0,0,0,0,0,0h1v-.5s-.08,0-.12,0h-.26a.28.28,0,0,1-.13,0v-.5h1.56v.5a0,0,0,0,0,0,0h.49s0,0,0,0v-.49h-.51v-.52h1.55v.52h.5v-.49h-.51v-.5s0,0,0,0h1.55v.49l0,0h.5v-.49h-.52v-.53h2.08v.5l0,0h.5v-.49h-.52V51.1l0,0h1.55v.52H67a0,0,0,0,0,0,0v-.49s0,0,0,0h-.49v-.52H68v.5s0,0,0,0h.5v-.49l0,0H68v-.5l0,0H69.6v.5l0,0h.5v-.49l0,0h-.5v-.5a.08.08,0,0,1,.07,0h1V50a2.2,2.2,0,0,0,.52,0V48.49s.09,0,.13,0h.26a.29.29,0,0,0,.13,0V48l0,0h2a0,0,0,0,1,0,0v-.5h1v.49h.52V47h0v0l0,0h.48l0,0v-.48l0,0h1v.48a2.74,2.74,0,0,0,.51,0v-.49l0,0h.5v.5h0a8.1,8.1,0,0,0,1,0V46.4h-1Zm11-1.56,0,0v1.52l0,0h.42s.06,0,.08,0v-.48l0,0h.49v-.51l0,0h-.48s0-.09,0-.13V45s0-.08,0-.12Zm3.64-20.31h0V26h0s0,0,0,0H93l0,0V24.53h-.51ZM88.87,49h.52v-1.5a.43.43,0,0,0,0,0h-.49l0,0Zm-3.12-.52V46.93l0,0h-.42s-.06,0-.08,0v1.54ZM84.69,48a9,9,0,0,0,0-1H84.2a9,9,0,0,0,0,1ZM73.77,57.31a9,9,0,0,0,1,0v-.49a9,9,0,0,0-1,0ZM84.18,42.22h-1l0,0v.49h1Zm6.26,9.88a8.85,8.85,0,0,0,1,0v-.49a8.85,8.85,0,0,0-1,0ZM88.87,31.81v1l0,0h.42s.06,0,.08,0v-1h-.52Zm-2.6,12v-1l0,0h-.42s-.06,0-.08,0v1s0,0,0,0Zm6.25,3.65H93l0,0V47s0-.06,0-.08h-.5Zm0,1H93l0,0V48s0-.06,0-.08h-.48l0,0ZM91,29.72h.5l0,0v-.42s0-.06,0-.08H91a0,0,0,0,1,0,0ZM88.87,43.79v.49l0,0h.49v-.5h-.52Zm-1.56,8.33h-.52v.42s0,.06,0,.09h.48l0,0Zm-2.6-3.63h-.53V49l0,0h.49v0C84.71,48.81,84.71,48.65,84.71,48.49Zm-9.38,8.3h.52V56.3s0,0,0,0h-.48l0,0ZM93,49h-.5l0,0v.49H93Z"/><path d="M80,54.72v.52H79v-.5a0,0,0,0,1,0,0Z"/><path d="M78.46,55.76v.52h-1v-.52Z"/><path d="M94.08,53.16v-.52h.51v.49l0,0Z"/><path d="M81.58,44.82v-.51h.51v.52Z"/><path d="M79,55.24v.5h-.52v-.5H79Z"/><path d="M84.18,41.18h-.49l0,0v-.49a0,0,0,0,1,0,0h.49v.52Z"/><path d="M67.08,28l-.35-.36v0l.35-.35c0-.05-.06-.07-.08-.1l-.09-.09L66.8,27a.87.87,0,0,1-.08-.1l1.46-1.46c0-.05-.07-.08-.11-.12a1.59,1.59,0,0,0-.13-.13L67.83,25v0l.72-.72.34.34h0l.3-.3s0,0,0-.07l-.35-.35.34-.34v0s0,0,0,0l-.3-.3s0-.05-.07-.05l-.36.36-.35-.36s0-.05,0-.07l.3-.3v0l-.35-.35a.63.63,0,0,0-.12.11l-.13.13-.12.12-.73-.72s-.07,0-.1.08l-.09.09-.1.09s0,.07-.1.08L66,21.73v0s0,0,0,0l.32-.32a.31.31,0,0,0-.1-.12l-.13-.14L66,21v0l.71-.7h0l.7.7h0l.72-.72v0l0,0-.32-.32,1.46-1.46s0-.06,0-.08l-.3-.29s0,0,0,0h0l.7-.7a9.84,9.84,0,0,0-.73-.74l-.36.35a2.15,2.15,0,0,1-.37-.37l.35-.34v0l-.71-.71c-.06,0-.09.06-.13.1l-.13.13-.11.12c-.06,0-.08-.07-.12-.1l-.12-.12-.1-.11-.11-.1-.12-.12-.1-.11-.11-.1-.1-.11-.12-.11-.1-.11h0l-.33.33h0l-.34-.35h0v0c-.48.47-1,.95-1.43,1.43,0,0-.06,0-.08-.05l-.29-.29h0l-.35.35a.63.63,0,0,0,.11.12l.13.13.12.12-.35.35c0,.06.05.08.08.11l.09.09.09.09.09.1-.35.35v0l0,0,.68.68c0,.06-.06.09-.1.13l-.13.13-.11.11v0h0l1.8,1.8a1.73,1.73,0,0,1-.36.37l-4-4v0s0,0,0,0l.33-.32h0l.34.35h0l.34-.35c0-.05-.07-.08-.1-.12a1.59,1.59,0,0,0-.13-.13l-.12-.12v0c.11-.12.23-.23.34-.34h0l.32.33h0L64.86,14v0h0l-.33-.33s0-.05,0-.07.2-.21.3-.3,0,0,0,0h0l-.7-.7a.43.43,0,0,1,.11-.12l.13-.14a.68.68,0,0,0,.12-.12l-.73-.73a.63.63,0,0,1,.11-.12,1.59,1.59,0,0,1,.13-.13l.12-.12-.36-.36h0s0,0,0,0l-.3.3h0L61.2,8.84v0h0l.32-.33v0h0L60.47,7.37h0l-.34.34h0l-.33-.33s0,0,0-.07l.3-.31c-.14-.16-.88-.91-1.82-1.84,0,0-.08.07-.12.11L58,5.39l-.11.11h0l-.71-.71v0l.33-.33v0l-.34-.34V4l0,0L59,2.21s.06,0,.08,0l.29.29h0l.34-.34v0h0c-.23-.24-.46-.47-.7-.7v0l.72-.72s.06.05.09.08l.1.09L60,1s0,.07.1.08L61.17,0h0l0,0,.32.32c.05,0,.08-.07.12-.11L61.8.11,61.91,0h0l.71.7v0a0,0,0,0,0,0,0l-.33.33v0L82.53,21.33s0,0,0,0a0,0,0,0,1,0,0l-.33.33v0l.35.35h0a0,0,0,0,0,0,0l.71-.71.36.35s0,.06,0,.08l-.29.29v0l0,0,1.06,1.05a2.27,2.27,0,0,1-.36.37s-.07-.07-.11-.1l-.1-.1-.11-.11-.09-.09L83.5,23l-.1-.1-.11-.11a3.17,3.17,0,0,0-.37.37l.35.35c0,.05-.06.08-.09.11a1.14,1.14,0,0,1-.11.11l-.11.12-.11.1-.1.11-.11.1-.12.12-.1.11-.11.1-.1.11-.12.11-.11.11-.1.1-.11.11-.12.12-.1.1-.11.11.36.35v0l0,0-.33.33-.35-.36h0l-.33.33v0h0l.35.35h0c.12-.12.23-.24.35-.35l.36.35s0,0,0,.06l-.64.65,0,0h0L80,26.15s0,0-.07.05l-.3.29h0l0,0-.32-.31s-.08.07-.12.1a1.59,1.59,0,0,0-.13.13l-.12.12c-.05,0-.07-.06-.1-.09l-.09-.09-.08-.08-.09-.09h0l-.69.7h0l-.34-.34h0a0,0,0,0,0,0,0l-.69.68s0,0,0,0h0l-.34-.34s0,0,0,0h0l-.33.33s0,.05,0,.07l.59.59.07.08v0l-.72.72-.36-.35h0l-.34.33v0h0l.35.35h0l.36-.36.37.37-.73.72v0h0l.33.33v0l-1.09,1.08c0,.06.07.09.11.13l.13.13.11.11v0l-.73.72-.32-.33,0,0v0l.29-.3s.06,0,.05-.07l-.35-.36.35-.35v0l-.33-.33h0l-.35.35v0l.36.35-.72.72v0l.11.11.13.13s.09.07.11.13l-.69.68,0,0a0,0,0,0,1,0,0v0l.33.33a0,0,0,0,0,0,0v0l-.71.71v0l.72.73-.72.72v0l.35.36.74-.74.35.36s0,0,0,.07l-.6.59-.07.08s0,0,0,0v0l.32.32s0,0,0,0v0l-.7.7v0l.35.34v0s0,0,0,0l-2.54,2.53h0l-.34-.35h0l-.33.33s-.05,0-.07-.05l-1-.95-.09-.08h0l-1.45,1.45s.07.08.1.12a1.59,1.59,0,0,0,.13.13l.11.12v0l-.34.34h0l-.33-.33h0l-.35.35v0h0l.33.33s0,0,0,.07l-.3.3a0,0,0,0,0,0,0h0l.33.33v0h0L66,43.8v0l.11.12.11.11.12.12v0s0,0,0,0l-1.44,1.43v0l.34.34s0,0,0,0l0,0-1,1.06s0,.05,0,.07l.3.29v0l0,0-1.06,1.06a.32.32,0,0,0,.1.13,1.59,1.59,0,0,1,.13.13l.11.11v0l-.34.34h0L63,49h0l-.35.35v0l0,0,.31.31s0,0,0,0v0l-.34.33s0,0,0,0h0l.33.33a2.12,2.12,0,0,1-.37.37l-.34-.34h0l-.33.33v0l.34.35v0l0,0-.31.31c0,.05.07.08.11.12a.8.8,0,0,0,.13.13l.11.12c-.14.16-.94,1-1.45,1.47h0l-4-4v0h0l0,0,.66-.66h0a2.44,2.44,0,0,0-.36-.37l-.35.35h0a0,0,0,0,0,0,0l-.33-.34,0,0c.35-.35.7-.69,1-1l0,0h0v0l.7.69h0l.71-.7v0l-.34-.34s-.07,0-.1.08l-.09.09a.43.43,0,0,1-.1.09s0,.07-.1.09l-.34-.35s0,0,0,0v0L59,45.66l.35.35h0l.33-.33s0,0,0,0h0l-.35-.35h0l-.35.36-.36-.36v0l1.09-1.1.36.35h0l.34-.33v0l-.35-.34h0l-.36.35-.35-.35v0l1.09-1.09c.12.12.24.23.35.35h0l.33-.34h0v0l-.34-.35h0l-.35.35-.37-.37,1.47-1.47.36.35h0l.34-.33h0v0l-.35-.35h0l-.36.35-.35-.36v0l1.09-1.1.35.36h0l.33-.33v0s0,0,0,0L62.67,39h0l-.35.35L61.94,39v0L63,37.92l.35.35h0l.33-.33v0l-.35-.34h0l-.35.35-.35-.35v0l1.09-1.09.36.35h0l.34-.34h0v0l-.35-.35h0l-.36.35-.35-.36s0,0,0-.06l.65-.64,0,0h0l.33.33a2.34,2.34,0,0,0,.37-.36l-1.08-1.09s0-.07.08-.1l.09-.09L64,34s.07-.05.08-.1l-.34-.34v0l0,0L65.22,32a0,0,0,0,0,0,0h0l-.34-.34v0l.7-.71h0l.33.33h0l.35-.35v0h0l-.66-.66h0s0,0,0,0v0l.34-.34v0l0,0-.31-.32v0a0,0,0,0,1,0,0c.23-.23.45-.46.68-.68l0,0h0l.32.32h0a2.44,2.44,0,0,0,.37-.36l-.35-.35v0h0l.34-.34.35.35h0a7.84,7.84,0,0,0,.72-.73l-.35-.35h0Zm6.64-8.85v0l1.08,1.08h0l.29-.29s0,0,0-.08l-.32-.31s0,0,0,0,0,0,0,0l.34-.34v0l-.32-.32,0,0h0l-.35.35s-.07-.06-.1-.08l-.09-.1-.09-.09s0-.07-.1-.08ZM61.94,2.19v0L63,3.28a0,0,0,0,1,0,0h0l.34-.35v0l-1.05-1,0,0h0ZM76.66,22.08l.32-.32,0,0v0l0,0-1-1,0,0-.33.33,0,0v0Zm-2.59,1.84L73,22.84h0l-.3.3s0,0,0,.07l1.07,1.08h0ZM73,24.3a8.38,8.38,0,0,0-.73-.73l-.35.35a8.38,8.38,0,0,0,.73.73Zm-1.1,14.35a10.15,10.15,0,0,0,.73-.74l-.35-.35a10.15,10.15,0,0,0-.73.74Zm-3.31-18-.72.73v0l.33.34h0s0,0,0,0l.71-.71v0ZM80,23.18c.14-.12.63-.61.73-.73l-.35-.35a8.38,8.38,0,0,0-.73.73ZM64.5,9.93l.72.72h0l.3-.3s0,0,0-.07c-.23-.24-.47-.48-.71-.71h0Zm6.63,10.31-.7-.69,0,0h0l-.29.3s-.06,0,0,.07l.68.68,0,0h0Zm7-1.84.33-.33,0,0v0l-.29-.29s0-.06-.08-.05L77.8,18l0,0v0Zm.74.74.32-.33,0,0v0l-.3-.3s0-.05-.07,0l-.33.32s0,0,0,0v0ZM64.5,7l.33-.32,0,0v0l-.3-.29s0,0-.07,0l-.32.32,0,0s0,0,0,0ZM73,18.41l.36.35h0l.34-.34h0s0,0,0,0-.22-.23-.34-.34h0Zm4.79,7-.33.33s0,0,0,0,0,0,0,0l.3.3s0,.05.07,0l.33-.32s0,0,0,0,0,0,0,0Zm-4.41-.72h0L73,25v0l.31.31,0,0h0L73.7,25v0C73.58,24.9,73.47,24.79,73.35,24.68Zm-.76,12.49h0l.31-.31,0,0v0l-.35-.35h0l-.33.33h0v0Zm7-18-.35.35v0l.33.34h0c.12-.11.23-.22.34-.34v0Z"/><path d="M74.44,32.4l.37.37-.73.73-.36-.35v0Z"/><path d="M74.08,34.24l.36.37-.73.73L73.34,35Z"/><path d="M83.28,21.35,82.93,21v0l.35-.34h0l.33.33v0Z"/><path d="M68.55,24.3l-.35-.36h0v0l.35-.35.37.37Z"/><path d="M74.08,33.5c.11.12.23.24.35.35v0c-.12.11-.24.23-.35.35l-.35-.35v0Z"/><path d="M67.82,19.88l-.36.35h0l-.35-.35h0s0,0,0,0l.34-.33h0Z"/><path d="M46.39,22.64h-.5l0,0v-.49s-.09,0-.13,0a.56.56,0,0,0-.13,0h-.13s-.09,0-.13,0V20.05c-.06,0-.11,0-.17,0h-.34l0,0V19h.51v0c0-.13,0-.27,0-.42s0-.06,0-.08h-.51V18s0,0,0,0v0h-.42s-.06,0-.09,0v.5h-.5s0-.06,0-.08V18s0,0,0,0h-.49a.43.43,0,0,0,0,.16v.36h-1a.2.2,0,0,0,0,.13v.26a.29.29,0,0,1,0,.13h-1s0,0,0,0v-.49a.43.43,0,0,0-.16,0h-.35a0,0,0,0,1,0,0v-1a0,0,0,0,0,0,0h1l0,0v-1h-.52V14.32s-.06,0-.09,0h-.42v-1a8.64,8.64,0,0,0-1,0v.5a2.26,2.26,0,0,1-.52,0v-.49l0,0h-1c0,.05,0,.11,0,.16v.35a.38.38,0,0,1-.15,0H36.51l0,0v.48s0,0,0,0H36l0,0v2.05s-.06,0-.08,0h-.42s0,0,0,0v.49a.43.43,0,0,0,.16,0H36v.5a.2.2,0,0,0,.13,0h.39v.5l0,0h1c0,.05,0,.11,0,.16v.34l0,0h2.56a2.77,2.77,0,0,1,0,.52H34.42s0,0,0,0h0v-.47l0,0h.48l0,0V18a.43.43,0,0,0-.16,0h-.35a0,0,0,0,1,0,0v-.48a0,0,0,0,0,0,0h.5V14.3h-.48s0-.05,0-.08V13.8l0,0h-1a.86.86,0,0,1,0-.16,1.2,1.2,0,0,1,0-.19v-.17h-1s0-.11,0-.16v-.36h-.5l0,0v.5h-3.1v-.5l0,0H27.14s0,0,0,0v.48l0,0h-.49s0,0,0-.08,0-.29,0-.43c-.22,0-1.27,0-2.6,0a.43.43,0,0,0,0,.16v.35H23v-.49l0,0h-.48l0,0V10.16s.05,0,.08,0h.42l0,0V9.64s0,0,0,0h-1l0,0v-1s.08,0,.13,0h.26s.08,0,.13,0V7l0,0h.49a.43.43,0,0,0,0-.16V6.51l0,0h1l0,0V7l0,0H52.62s0,0,0,0,0,0,0,0v.48h.49l0,0h0v-1h.5s0,.06,0,.09V7h1.54a1.64,1.64,0,0,1,0,.52h-1a1.74,1.74,0,0,0,0,.52h.49a.26.26,0,0,1,0,.15v2.46h.5l0,0v.5h-.5l0,0v.47h0v0h.5v-.52h.5s0,0,0,.07v1H54.22s0,.06,0,.09v.41l0,0h-.49a.43.43,0,0,0,0,.16v.35a.33.33,0,0,1-.14,0h-.36l0,0v1l0,0h-.48l0,0v1h0l0,0h-.48l0,0a0,0,0,0,0,0,0v.47s.05,0,.08,0h.94l0,0v1h-.52v.48h0a0,0,0,0,0,0,0h.51v-.5h.52v1s0,0,0,0h.5V19.5a.43.43,0,0,0,.16,0h.34l0,0v1H54.2v-.42s0-.06,0-.09h-.5v-.5l0,0h-.49a0,0,0,0,0,0,0V20h.52v1s0,0,0,0H54c.05,0,.11,0,.16,0v1s0,0,0,0h.49s0,0,0,0v1l0,0h1v1l0,0h.5v-1h.5s0,.05,0,.08v.94l0,0h.49a0,0,0,0,0,0,0v1l0,0h.48s0,0,0,0,0,0,0,0v3.61h-.49l0,0h0v.47s0,0-.08,0H55.78l0,0v2.05a.43.43,0,0,0,.16,0h.35V32h-.49v.51h.49s0,.06,0,.09V33h0a0,0,0,0,0,0,0h.46l0,0v1.52l0,0h.5v2l0,0h.48l0,0s0,0,0,0v1.48s.06,0,.09,0h.42s0,0,0,0v1.53c.05,0,.1,0,.16,0h.34l0,0v.48h-.52v.51h.49a0,0,0,0,1,0,0v.49l0,0h.48a2.74,2.74,0,0,1,0,.52h-.49l0,0h0v.47a0,0,0,0,0,0,0h.49s0,0,0,0v.49a.42.42,0,0,0,.16,0h.35c0,.21,0,1.36,0,2.07H54.21V44h0a2.88,2.88,0,0,0-.52,0v.49l0,0h-.49a.43.43,0,0,1,0,0V43h1v0h0v-1h-.5s0,.08,0,.13v.26a.3.3,0,0,1,0,.13h-.5V40.87h.5l0,0v-.49h-.51v.52h-.5l0,0V39.3h.52v-.47s0,0,0,0h-.51v.5h-.52V37.74h.49l0,0v-.47h0s0,0,0,0h-.49a0,0,0,0,0,0,0v.5h-.53V35.66h.5l0,0v-.47s0,0,0,0h-.5v0c0,.17,0,.33,0,.5H51.1l0,0V34.1h.52v-.49h-.5l0,0v.5h-.52V32.53h.52V32h-.52v.5H50V31h.5l0,0v-.47h0s0,0,0,0h-.49l0,0V31h-.5a.08.08,0,0,1,0-.07V30a.09.09,0,0,1,0,0H50a2.2,2.2,0,0,0,0-.52H48.49s0-.09,0-.13V29a.29.29,0,0,0,0-.13H48l0,0V26.82a0,0,0,0,1,0,0h-.5s0,0,0,0v-1h.5a0,0,0,0,0,0,0v-.49s0,0,0,0h-1l0,0v-.48l0,0h-.5v-1a0,0,0,0,1,0,0,0,0,0,0,1,0,0h.48a2.88,2.88,0,0,0,0-.52h-.49l0,0s0,0,0,0v-.48h.51a8.23,8.23,0,0,0,0-1H46.4s0,0,0,0Zm-1.56-11h1.54l0,0v-.42s0-.06,0-.08h-.48l0,0v-.48l0,0h-.49l0,0v.48a.2.2,0,0,1-.13,0H45a.25.25,0,0,0-.12,0ZM24.52,8a0,0,0,0,0,0,0h1.54V7.55l0,0H24.53V8ZM49,11.7v-.52H47.43v.49l0,0Zm-.52,3.12H46.91v.42s0,.06,0,.09h1.52l0,0ZM48,15.88a9,9,0,0,0-1,0v.5c.18,0,.87,0,1,0ZM57.31,26.8a8.85,8.85,0,0,0,0-1h-.49a8.85,8.85,0,0,0,0,1ZM42.22,16.39v1l0,0h.5v-1s0,0,0,0Zm9.88-6.26a8.85,8.85,0,0,0,0-1h-.49a8.85,8.85,0,0,0,0,1ZM31.81,11.7h1l0,0c0-.13,0-.28,0-.42s0-.06,0-.08h-1Zm12,2.6h-1l0,0v.42s0,.06,0,.08h1Zm3.65-6.25v-.5l0,0H47s-.06,0-.08,0V8s0,0,0,0Zm1,0v-.5l0,0H48s-.06,0-.08,0V8h0l0,0ZM29.72,9.61V9.12l0,0h-.42s-.06,0-.08,0V9.6h.52ZM43.79,11.7h.49l0,0v-.49h-.51Zm8.33,1.57v.46s0,0,0,0v0h.42s.06,0,.09,0v-.48h-.52Zm-3.63,2.6a0,0,0,0,0,0,0v.51H49l0,0v-.49h-.5Zm8.3,9.37s0,0,0,0v-.48s0,0,0,0H56.3l0,0v.48l0,0ZM49,7.54V8l0,0h.49a0,0,0,0,1,0,0V7.55H49Z"/><path d="M54.72,20.55h.52V21.6h-.5l0,0Z"/><path d="M55.76,22.12h.52v1h-.52Z"/><path d="M53.16,6.49h-.52V6s0,0,0,0h.49l0,0Z"/><path d="M44.82,19H44.3v-.5h.52Z"/><path d="M55.24,21.6h.51s0,0,0,0v.5h-.51s0,0,0,0Z"/><path d="M41.18,16.39v.5h-.52V16.4h.52Z"/><path d="M28,33.49l-.36.36h0l-.35-.35c-.05,0-.07.06-.1.08l-.09.1-.09.09s-.06.07-.1.08L25.41,32.4c-.05,0-.08.07-.12.1a1.59,1.59,0,0,0-.13.13l-.12.11h0L24.3,32l.34-.34s0,0,0,0v0l-.3-.3s0-.05-.07,0l-.35.35-.34-.34h0s0,0,0,0l-.3.29s-.05,0-.05.07l.36.36-.36.35s-.05,0-.07,0l-.3-.3h0l-.35.35a.63.63,0,0,0,.11.12l.13.13.12.12-.72.73c0,.05,0,.07.08.1l.09.1.09.09s.07,0,.08.1l-.71.71s0,0,0,0l0,0-.32-.32a.31.31,0,0,0-.12.1l-.14.13-.11.12h0l-.7-.71v0h0c.23-.24.46-.47.7-.7v0l-.72-.72h0l0,0-.32.33L18.42,31.3s-.06,0-.08,0l-.29.3h0v0l-.7-.69a7.06,7.06,0,0,0-.74.73l.35.35a2.15,2.15,0,0,1-.37.37L16.21,32h0l-.71.72s.06.08.1.12l.13.13.12.12a.55.55,0,0,1-.1.11l-.12.12-.11.11-.1.1-.12.12-.11.1-.1.11L15,34l-.11.11-.11.11v0h0l.33.33v0l-.35.34v0h0c.47.48.95,1,1.43,1.43,0,0,0,.06-.05.08l-.29.29v0l.35.35a.63.63,0,0,0,.12-.11l.13-.13.12-.12.35.35c.06,0,.08,0,.11-.08a.76.76,0,0,0,.09-.09l.09-.09.1-.09.35.35h0l0,0,.68-.69c.06,0,.09.07.13.1l.13.13.11.12h0L20.6,35a2,2,0,0,1,.37.36l-4,4h0L16.58,39v0l.35-.34v0l-.35-.34c-.05,0-.08.07-.12.1l-.13.14-.12.11h0c-.12-.11-.23-.23-.34-.34v0s0,0,0,0l.33-.33v0L14,35.72h0l-.33.33s-.05,0-.07-.05-.21-.2-.3-.3h0l-.7.7a.32.32,0,0,1-.12-.11l-.14-.13-.12-.12-.73.73a.63.63,0,0,1-.12-.11l-.13-.13L11,36.44l-.36.36v0l0,0,.3.3s0,0,0,0v0L8.84,39.37h0L8.47,39h0L7.37,40.11v0l.34.34v0s0,0,0,0l-.33.32s0,0-.07,0L7,40.5c-.16.14-.91.88-1.84,1.82,0,.06.07.09.11.13l.13.13.11.11v0l-.71.7h0l-.33-.33h0l-.34.34H4l0,0L2.21,41.61s0,0,0-.08l.29-.29v0l-.34-.34h0a0,0,0,0,0,0,0c-.24.23-.47.47-.7.7h0l-.72-.72s.05-.06.08-.09l.09-.1L1,40.58s.07,0,.08-.1L0,39.4v0l0,0L.35,39c0-.06-.07-.09-.11-.13l-.13-.13L0,38.66v0l.7-.71h0l.33.32h0L21.33,18h0a0,0,0,0,1,0,0l.33.33h0l.35-.35v0h0l-.71-.71.35-.36s.06,0,.08.05l.29.3s0,0,0,0l0,0,1.05-1.05a2.1,2.1,0,0,1,.37.35c0,.05-.07.07-.1.11l-.1.11-.11.1-.09.09-.11.11-.1.1-.11.11a2.54,2.54,0,0,0,.37.37l.35-.35c.05,0,.08.06.11.09l.11.11.12.12.1.1.11.11.1.1.12.12.11.1.1.11.11.11.11.11.11.11.1.1.11.11.12.12.1.1.11.11.35-.35s0,0,0,0l0,0,.33.33-.36.35v0l.33.33h0l.35-.35v0c-.12-.12-.24-.23-.35-.35l.35-.35s0,0,.06,0l.65.64,0,0v0l-1.08,1.08s0,.05.05.07l.29.3v0l0,0-.31.32c0,.05.07.08.1.12a1.59,1.59,0,0,0,.13.13l.12.12c0,.05-.06.07-.09.1l-.09.09-.08.08-.09.09v0h0l.7.7v0l-.34.34v0s0,0,0,0c.23.22.46.45.68.68h0v0l-.34.34s0,0,0,0h0l.33.33s.05,0,.07-.05l.59-.59.08-.07h0l.72.72-.35.36v0l.33.34h0l.35-.35v0l-.36-.36.37-.36.72.72h0a0,0,0,0,0,0,0l.33-.33h0l1.08,1.08c.06,0,.09-.07.13-.11l.13-.13.11-.11h0l.72.72-.33.32,0,0h0l-.3-.29s0-.06-.07-.05l-.36.36-.35-.36h0l-.33.33s0,0,0,0h0l.35.35h0l.35-.35.72.72h0l.11-.11.13-.13s.07-.09.13-.11l.68.69,0,0a0,0,0,0,0,0,0h0l.33-.32a0,0,0,0,1,0,0h0l.71.72h0l.73-.72.72.72h0l.36-.36-.74-.74.36-.35s0,0,.07,0c.2.19.4.39.59.59l.08.07h0l0,0,.32-.32h0s0,0,0,0l.7.69h0l.34-.35s0,0,0,0h0l2.53,2.53v0l-.35.34s0,0,0,0h0l.33.33s0,.06-.05.08l-.95.94-.08.09v0l1.45,1.44s.08-.06.12-.1a1.59,1.59,0,0,0,.13-.13l.12-.11h0l.34.34v0l-.33.33v0l.35.35h0s0,0,0,0l.33-.32s0,0,.07,0l.3.3h0s0,0,0,0l.33-.32h0a0,0,0,0,1,0,0l1.07,1.06h0l.12-.11.11-.12.12-.12h0l1.43,1.44h0l.34-.34h0l0,0,1.06,1.06s.05,0,.07,0l.29-.3s0,0,0,0h0l1.06,1.07c.06,0,.09-.07.13-.11a1.59,1.59,0,0,1,.13-.13l.11-.11h0l.34.34a0,0,0,0,1,0,0,0,0,0,0,1,0,0l-.32.33v0l.35.35h0l0,0,.31-.31h0l.33.34h0v0l.33-.32a1.71,1.71,0,0,1,.37.36l-.34.34s0,0,0,0v0l.33.32h0l.35-.35h0l0,0,.31.31c.05,0,.08-.07.12-.11a.8.8,0,0,0,.13-.13l.12-.11c.16.14,1,.94,1.47,1.45v0l-4,4h0v0l0,0-.66-.66h0a3,3,0,0,0-.37.36l.35.35v0h0l-.34.33,0,0-1-1,0,0v0h0l.69-.7v0h0l-.7-.7h0l-.34.34s0,.07.08.1l.09.1.09.09s.07,0,.09.1l-.35.34h0l0,0-1.07-1.08.35-.35v0l-.33-.33h0l-.35.35v0l.36.35L45.3,42h0l-1.1-1.09.35-.36v0l-.33-.34h0l-.34.35v0l.35.36-.35.35h0l-1.09-1.09.35-.35v0l-.34-.33h0l-.35.35v0l.35.35-.37.37L40.87,39l.35-.36v0l-.33-.34h0l-.35.35v0l.35.36-.36.35h0l-1.1-1.09.36-.35v0l-.33-.33h0L39,37.9v0c.12.11.24.23.35.35l-.35.35h0l-1.09-1.1.35-.35v0c-.11-.1-.22-.22-.33-.33h0l-.34.35v0c.12.12.23.24.35.35l-.35.36h0l-1.09-1.09.35-.36v0l-.34-.34a0,0,0,0,1,0,0h0l-.35.35v0l.35.36-.36.35s0,0-.06,0l-.64-.65,0,0v0h0l.33-.33a2.34,2.34,0,0,0-.36-.37L34.25,36.8s-.07-.06-.1-.08l-.09-.1-.1-.09s-.05-.07-.1-.08l-.34.34h0l0,0L32,35.35h0l-.34.33h0L30.94,35v0l.33-.33v0l-.35-.35h0l-.66.66v0h-.06l-.34-.34h0l0,0-.32.31h0a0,0,0,0,1,0,0c-.23-.22-.46-.45-.68-.68,0,0,0,0,0,0v0h0l.32-.32h0a2.44,2.44,0,0,0-.36-.37l-.35.35h0s0,0,0,0L28,33.49l.35-.35v0a7.84,7.84,0,0,0-.73-.72l-.35.35v0Zm-8.85-6.64h0l1.08-1.08v0l-.29-.3s0-.05-.08-.05l-.31.32,0,0s0,0,0,0l-.34-.35h0l-.32.32,0,0v0l.35.35c0,.05-.06.07-.08.1l-.1.09-.09.09s-.07.05-.08.1ZM2.19,38.64h0l1.07-1.06h0v0l-.35-.35h0l-1,1.05,0,0v0ZM22.08,23.92l-.32-.33,0,0h0l0,0-1,1,0,0L21,25h0Zm1.84,2.58-1.08,1.09v0l.3.3s0,.05.07,0l1.08-1.07v0Zm.38,1.11c-.14.12-.63.61-.73.73l.35.35a8.38,8.38,0,0,0,.73-.73Zm14.35,1.1a10.15,10.15,0,0,0-.74-.73l-.35.35a10.15,10.15,0,0,0,.74.73ZM20.61,32l.73.72h0l.34-.33v0s0,0,0,0c-.23-.24-.47-.48-.71-.71h0Zm2.57-11.41c-.12-.14-.61-.63-.73-.73l-.35.35a8.38,8.38,0,0,0,.73.73ZM9.93,36.07l.72-.72v0l-.3-.29s0-.06-.07-.05l-.71.71v0Zm10.31-6.63-.69.7,0,0v0l.3.3s0,.05.07,0l.68-.68,0,0v0Zm-1.84-7-.33-.32s0,0,0,0h0l-.29.29s-.06,0-.05.08l.31.31,0,0h0Zm.74-.73-.33-.33,0,0h0l-.3.3s-.05,0,0,.07l.32.33h0ZM7,36.07l-.32-.33,0,0h0L6.31,36s0,0,0,.07l.32.32s0,0,0,0h0ZM18.41,27.6c.12-.13.23-.24.35-.35v0l-.34-.34h0l-.34.34v0Zm7-4.79.33.33,0,0h0l.3-.3s.05,0,0-.07l-.32-.33h0Zm-.72,4.41v0l.35.35h0l.31-.32,0,0v0L25,26.88h0C24.9,27,24.79,27.1,24.68,27.22ZM37.17,28v0l-.31-.31,0,0h0l-.35.35v0l.33.33h0Zm-18-7,.35.35h0l.34-.34h0v0c-.11-.12-.22-.23-.34-.34h0Z"/><path d="M32.4,26.13l.37-.37.73.74-.35.35h0Z"/><path d="M34.24,26.5l.37-.37.73.73-.36.37Z"/><path d="M21.35,17.29c-.12.12-.24.23-.35.35h0l-.34-.34s0,0,0,0,0,0,0,0l.33-.33h0Z"/><path d="M24.3,32l-.36.35h0L23.56,32l.37-.37Z"/><path d="M33.5,26.5l.35-.36h0l.35.36c-.12.11-.24.23-.35.35h0C33.74,26.73,33.62,26.61,33.5,26.5Z"/><path d="M19.88,32.76l.35.35v0l-.35.35h0l-.33-.33v0Z"/><path d="M22.64,54.18v.51s0,0,0,0h-.49s0,.08,0,.13a.56.56,0,0,0,0,.13v.12s0,.09,0,.13H20.05c0,.06,0,.11,0,.17v.34l0,0H19v-.49h0l0,0h-.42s-.06,0-.08,0v.5H18l0,0v.41s0,.07,0,.09h.5v.5s-.06,0-.08,0H18l0,0v.49a.43.43,0,0,0,.16,0h.36v1s.09,0,.13,0h.26a.29.29,0,0,1,.13,0v1h-.51a.45.45,0,0,0,0,.16v.35h-1v-1h-1v.5H14.32s0,.06,0,.09v.42h0s0,0,0,0h-1a8.64,8.64,0,0,0,0,1h.5a2.34,2.34,0,0,1,0,.53h-.49l0,0v1a.3.3,0,0,0,.16,0h.35a.38.38,0,0,1,0,.15,1,1,0,0,1,0,.17v1.22l0,0h.48l0,0v.48l0,0h2.05s0,.06,0,.09v.41s0,0,0,0h.49a.43.43,0,0,0,0-.16V64.6h.5a.2.2,0,0,0,0-.13v-.39h.5l0,0v-1a.43.43,0,0,1,.16,0h.34l0,0V60.45a2.21,2.21,0,0,1,.52,0v5.7h-.52v-.49l0,0H18a.43.43,0,0,0,0,.16v.35h-.52v-.49H14.3v.49s-.05,0-.08,0H13.8l0,0h0v1h-.52v1h-.52v.5l0,0h.5v3.1h-.5l0,0v1.52l0,0h.48l0,0V74s0,0-.08,0h-.43c0,.21,0,1.26,0,2.59a.43.43,0,0,0,.16,0h.35v1a0,0,0,0,0,0,0h-.49l0,0v.48s0,0,0,0H10.16s0,0,0-.08v-.42l0,0H9.64s0,0,0,0h0v1s0,0,0,0h-1s0-.08,0-.12a.66.66,0,0,1,0-.14.56.56,0,0,0,0-.13s0-.08,0-.13H7l0,0v-.48a.3.3,0,0,0-.16,0H6.51l0,0v-1l0,0H7V48s0,0,0,0h.5v-.49l0,0h-1v-.5s.06,0,.09,0H7s0,0,0,0V45.35a2,2,0,0,1,.52,0,.65.65,0,0,1,0,.14.75.75,0,0,1,0,.15v.73a2.23,2.23,0,0,0,.52,0v-.49s.1,0,.15,0h2.46v-.5s0,0,0,0h.5v.5l0,0h.5v-.5h-.52v-.5s0,0,.07,0h1v1.54s.06,0,.09,0h.41l0,0v.49a.43.43,0,0,0,.16,0h.35a.34.34,0,0,1,0,.14v.37h1l0,0v.48l0,0h1v.49h.51s0-.06,0-.09v-.94l0,0h1v.5s0,0,0,0h.5v-.51h-.5v-.52h1v-.49H19.5a.5.5,0,0,0,0-.17v-.34l0,0h1v.47s0,0,0,0v0h-.42s-.06,0-.09,0v.5h-.5l0,0v.49H20v-.52h1v-.16a1.28,1.28,0,0,1,0-.19c0-.05,0-.11,0-.16h1v-.48l0,0h1l0,0v-1h1l0,0v-.5h-1v-.5s.05,0,.08,0h.94l0,0v-.5h1l0,0v-.48l0,0h3.63v.49l0,0h.48s0,0,0,.08v1.46l0,0h2.05a.43.43,0,0,0,0-.16V44.3H32s0,0,0,0h0v.47l0,0h.49s0,0,0,0v-.48s.06,0,.09,0H33v0s0,0,0,0v-.46l0,0h1.52l0,0v-.48a0,0,0,0,1,0,0h2l0,0v-.48l0,0h1.52s0-.06,0-.09v-.42h1.55c0-.06,0-.11,0-.17a1.08,1.08,0,0,0,0-.18V41.7h.52v.5h.51V41.7a0,0,0,0,1,0,0h.49l0,0v-.48a2.74,2.74,0,0,1,.52,0v.49l0,0h.5v-.49l0,0h.49A.42.42,0,0,0,43,41v-.35c.21,0,1.36,0,2.07,0h0v5.7H44a2.74,2.74,0,0,0,0,.51h.49l0,0v.49H43v-1h0a0,0,0,0,0,0,0h-1v.51s.08,0,.13,0h.26s.08,0,.13,0v.49h0s0,0,0,0H40.87v-.49s0,0,0,0h-.5v.49h.52v.5s0,0,0,0H39.3v-.52h-.47s0,0,0,0h0v.49h.51v.53H37.74V48l0,0h-.5v.49l0,0h.5V49H35.66v-.5l0,0h-.5V49l0,0h.5v.5l0,0H34.1c0-.17,0-.34,0-.5v0h-.5v.49l0,0h.5c0,.16,0,.33,0,.5v0H32.53v-.5s0,0,0,0H32V50h.5v.52H31V50l0,0h-.5v.5H31V51s0,0-.07,0h-1a0,0,0,0,0,0,0v-.48a1.7,1.7,0,0,0-.52,0v1.53s-.09,0-.13,0H29a.2.2,0,0,0-.13,0v.48l0,0H26.82s0,0,0,0h0v.48h-1v-.5h-.51v1h0l0,0h-.48s0,0,0,0v.49h-1s0,0,0,0v-.48a2.24,2.24,0,0,0-.52,0v.48l0,0h-.5v-.5h0a8.23,8.23,0,0,0-1,0v.49h1Zm-11,1.56h0V54.2s0,0,0,0h-.42s-.06,0-.08,0v.49l0,0h-.48l0,0v.48l0,0h.48a.2.2,0,0,1,0,.13v.26a.25.25,0,0,0,0,.12ZM8,76.06V74.53s0,0,0,0v0H7.55l0,0V76l0,0ZM11.7,51.58h-.52v1.55h.51Zm3.12.52c0,.53,0,1,0,1.54v0h.42s.06,0,.09,0V52.12l0,0Zm1.06.53a8.85,8.85,0,0,0,0,1h.5c0-.18,0-.87,0-1ZM26.8,43.26a8.85,8.85,0,0,0-1,0v.5c.17,0,.87,0,1,0ZM16.39,58.35h1l0,0v-.49h-1s0,0,0,0Zm-6.26-9.88a8.85,8.85,0,0,0-1,0V49a8.85,8.85,0,0,0,1,0ZM11.7,68.76v-1s0,0,0,0h-.42s-.06,0-.08,0v1h.52Zm2.6-12v1l0,0h.42s.06,0,.08,0v-1s0,0,0,0,0,0,0,0ZM8.05,53.14h-.5l0,0v.42s0,.06,0,.08H8s0,0,0,0h0Zm0-1h-.5l0,0v.42s0,.06,0,.08H8l0,0ZM9.61,70.85H9.12s0,0,0,0v.42s0,.06,0,.08h.49ZM11.7,56.79v-.5l0,0h-.49v.52Zm1.57-8.33h.49l0,0V48s0-.06,0-.09h-.48a0,0,0,0,0,0,0Zm2.6,3.62a0,0,0,0,0,0,0h.49s0,0,0,0V51.6l0,0h-.49v.5Zm9.37-8.3h-.52v.49l0,0h.48l0,0Zm-17.7,7.8H8l0,0v-.49H7.54Z"/><path d="M20.55,45.85v-.52H21.6v.5l0,0Z"/><path d="M22.12,44.81v-.52h1v.52Z"/><path d="M6.49,47.41v.5s0,0,0,0H6v-.49l0,0Z"/><path d="M19,55.75v.51h-.51v-.52Z"/><path d="M21.6,45.33v-.5h.52v.5H21.6Z"/><path d="M16.39,59.39h.5v.51h-.5v-.52Z"/><path d="M33.49,72.59l.36.36v0l-.35.35c0,.05.06.07.08.1l.1.09.09.1s.07,0,.08.1L32.4,75.16a.31.31,0,0,0,.1.12l.13.14.11.11v0l-.72.73-.34-.35h0l-.3.3s-.05,0,0,.07l.35.35-.34.35a0,0,0,0,0,0,0s0,0,0,0l.29.29s0,.05.07.05L32,77l.35.36s0,0,0,.07l-.3.3v0l.35.35A.63.63,0,0,0,32.5,78l.13-.13.12-.12.73.72c.05,0,.07,0,.1-.08s.06-.06.1-.09l.09-.09s0-.07.1-.08l.71.72s0,0,0,0a0,0,0,0,1,0,0l-.32.32c0,.06.07.09.1.13a.8.8,0,0,1,.13.13l.12.11v0l-.71.7h0a0,0,0,0,1,0,0l-.7-.69h0l-.72.72v0l0,0,.33.33L31.3,82.16s0,0,0,.07l.3.29v0l0,0-.69.69a7.06,7.06,0,0,0,.73.74l.35-.35a2.58,2.58,0,0,1,.37.37l-.35.35v0l.72.71s.08-.06.12-.1l.13-.13.12-.12a.38.38,0,0,1,.11.11l.12.11.11.11.1.1.12.12.1.11.11.1.11.11.11.12.11.1h0l.33-.33h0l.34.34h0l1.43-1.44s.06,0,.08,0l.29.29h0c.12-.11.23-.23.35-.35a.63.63,0,0,0-.11-.12,1.59,1.59,0,0,1-.13-.13L36.81,84l.35-.35c0-.06,0-.08-.08-.11a.76.76,0,0,0-.09-.09l-.09-.09-.09-.1.35-.35v0l0,0-.69-.69c0-.06.07-.08.1-.12l.13-.14.12-.11a0,0,0,0,1,0,0,0,0,0,0,1,0,0L35,80a2.39,2.39,0,0,1,.36-.37l4,4v0s0,0,0,0L39,84h0l-.34-.35h0l-.34.34c0,.06.07.08.1.12l.14.14.11.11v0c-.11.12-.23.23-.34.34h0s0,0,0,0l-.33-.33h0l-2.18,2.19s0,0,0,0,0,0,0,0l.33.33S36,87,36,87l-.3.29s0,0,0,0h0l.7.71a.6.6,0,0,1-.11.12l-.13.13a1.36,1.36,0,0,0-.12.12l.73.73a.63.63,0,0,1-.11.12,1.59,1.59,0,0,1-.13.13l-.12.12.36.36h0l0,0,.3-.3h0l2.17,2.17v0h0L39,92.1v0s0,0,0,0l1.07,1.06h0l.34-.35h.05l.32.33s0,.06,0,.08l-.3.3c.14.16.88.91,1.82,1.84.06,0,.09-.07.13-.11a1.59,1.59,0,0,1,.13-.13l.11-.11h0l.7.7v0h0l-.33.33v0l.34.35v0l0,0-1.79,1.79s0,0-.08,0L41.24,98h0l-.34.34v0s0,0,0,0l.7.69v0l-.72.71s-.06,0-.09-.08-.06-.06-.1-.09l-.09-.09s0-.07-.1-.08l-1.08,1.08h0l0,0-.31-.32c-.06,0-.09.07-.13.11l-.13.13-.11.11h0l-.71-.71s0,0,0,0,0,0,0,0l.32-.33v0L18,79.24v0h0l.33-.33v0L18,78.5h0l-.71.71-.36-.35s0-.06.05-.08l.3-.29s0,0,0,0,0,0,0,0l-1.05-1a2.1,2.1,0,0,1,.35-.37c.05,0,.07.07.11.1l.11.11.1.1.09.09.11.11.1.1.11.11a2.54,2.54,0,0,0,.37-.37L17.3,77s.06-.08.09-.11l.11-.11.12-.12.1-.1.11-.11.1-.1.12-.12.1-.1.11-.11.11-.1.11-.12.11-.11.1-.1.11-.11.12-.12.1-.1.11-.11-.35-.35s0,0,0,0,0,0,0,0l.33-.33.35.36h0l.33-.33s0,0,0,0h0l-.35-.35h0l-.35.35-.35-.35s0,0,0-.06l.64-.64,0,0h0l1.08,1.08s.05,0,.07,0l.3-.29h0l0,0,.32.32c.05,0,.08-.07.12-.11a1.59,1.59,0,0,0,.13-.13l.12-.11c.05,0,.07,0,.1.08l.09.09.08.08.09.09h0a0,0,0,0,0,0,0l.7-.7h0l.34.34h.05c.22-.23.45-.45.68-.68a0,0,0,0,1,0,0h0l.34.35h0a0,0,0,0,0,0,0l.33-.33s0,0-.05-.07c-.19-.2-.39-.39-.59-.59l-.07-.07v0l.72-.72.36.35h0l.34-.33h0v0L25,71.5h0l-.36.36-.36-.37.72-.72v0h0l-.33-.33v0l1.08-1.09a.26.26,0,0,0-.11-.12L25.51,69l-.11-.11v0l.72-.73.32.33,0,0v0l-.29.29s-.06,0-.05.07l.36.36-.36.35v0l.33.33h0l.35-.35v0c-.12-.12-.24-.23-.35-.35l.72-.72v0l-.11-.11L27,68.29s-.09-.07-.11-.13l.69-.68,0,0a0,0,0,0,0,0,0v0l-.32-.33a0,0,0,0,1,0,0s0,0,0,0l.72-.71v0l-.72-.72.72-.73v0l-.36-.36-.74.74-.35-.36s0-.05,0-.07c.19-.2.39-.4.59-.59l.07-.08v0l0,0-.32-.32v0l.69-.7v0l-.35-.34s0,0,0,0h0l2.53-2.54h0l.34.35h0s0,0,0,0l.33-.32s.06,0,.08,0l.94.95.09.08h0l1.44-1.45c0-.05-.06-.08-.1-.12a1.59,1.59,0,0,0-.13-.13l-.11-.11v0l.34-.34h0l.33.33h0l.35-.35v0h0l-.32-.33s0,0,0-.07l.3-.3v0l0,0-.32-.32s0,0,0,0h0l1.06-1.07v0l-.11-.11-.12-.12-.12-.12v0s0,0,0,0l1.44-1.43v0l-.34-.35s0,0,0,0l0,0,1.06-1s0-.06,0-.08l-.3-.29s0,0,0,0,0,0,0,0L37.17,52a.26.26,0,0,0-.11-.12l-.13-.14-.11-.11v0l.34-.33h0l.33.33h0l.35-.35v0l0,0-.31-.31v0l.34-.33v0h0l-.32-.33a1.71,1.71,0,0,1,.36-.37l.34.35h.05l.32-.33v0l-.35-.35v0l0,0,.31-.31c0-.05-.07-.08-.11-.12a.8.8,0,0,0-.13-.13l-.11-.12c.14-.16.94-1,1.45-1.46,0,0,0,0,0,0h0l4,4v0h0l0,0-.66.66h0a3,3,0,0,0,.36.37l.35-.35h0s0,0,0,0l.33.33a.08.08,0,0,1,0,0l-1,1,0,0h0s0,0,0,0l-.7-.69h0l-.7.7v0l.34.34s.07,0,.1-.08l.1-.09.09-.09s0-.07.1-.09l.34.35v0l0,0-1.08,1.08-.35-.36h0l-.33.33v0h0l.35.35h0l.35-.35.36.35v0l-1.09,1.09L40.5,56h0l-.34.34h0v0l.35.34h0l.36-.35.35.35v0l-1.09,1.09-.35-.35h0l-.33.33h0v0l.35.35h0l.35-.35.37.37L39,59.7l-.36-.35h0l-.34.33h0v0l.35.35h0L39,59.7l.35.36v0l-1.09,1.1-.35-.36h0l-.33.33s0,0,0,0h0l.34.35h0c.11-.12.23-.24.35-.35.12.11.24.23.35.35v0l-1.1,1.09c-.11-.12-.23-.24-.35-.35h0l-.33.34h0v0l.35.35h0c.12-.12.24-.23.35-.35l.36.35v0l-1.09,1.09-.36-.35h0l-.34.33a0,0,0,0,1,0,0v0l.35.35h0l.36-.36.35.36s0,0,0,.06l-.65.64,0,0h0l-.33-.33a2.9,2.9,0,0,0-.37.36l1.09,1.09c0,.05-.06.07-.08.1l-.1.1-.09.09s-.07,0-.08.1l.34.35s0,0,0,0,0,0,0,0l-1.42,1.42v0a0,0,0,0,0,0,0l.33.34v0l-.71.7s0,0,0,0h0l-.33-.32h0l-.35.35v0h0l.66.66h0v0a0,0,0,0,1,0,0v0l-.34.34v0l0,0,.31.32v0a0,0,0,0,1,0,0l-.68.69H34.2l-.32-.32h0a2.44,2.44,0,0,0-.37.36l.35.35v0h0l-.34.34c-.12-.11-.23-.23-.35-.35h0a7.84,7.84,0,0,0-.72.73l.35.35h0Zm-6.64,8.85v0l-1.08-1.08h0l-.3.3s-.05,0-.05.07l.32.31,0,0s0,0,0,0l-.35.34v0l.32.31,0,0h0l.35-.35c.05,0,.07.06.1.09a.76.76,0,0,1,.09.09l.09.09s.05.07.1.08ZM38.64,98.38v0l-1.06-1.07h0l-.35.35v0l1.05,1,0,0h0ZM23.92,78.49l-.33.32,0,0v0l0,0,1,1s0,0,0,0l.34-.33s0,0,0,0v0Zm2.58-1.84,1.09,1.08h0l.3-.3s.05,0,0-.07l-1.07-1.08h0Zm1.11-.38c.12.14.61.63.73.73l.35-.35a8.38,8.38,0,0,0-.73-.73Zm1.1-14.35a10.15,10.15,0,0,0-.73.74l.35.35a10.15,10.15,0,0,0,.73-.74ZM32,80l.72-.72v0l-.33-.34h0c-.24.23-.48.47-.71.71v0ZM20.61,77.39c-.14.12-.63.61-.73.73l.35.35a8.38,8.38,0,0,0,.73-.73ZM36.07,90.64l-.72-.72h0c-.09.09-.2.19-.29.29s-.06,0-.05.07c.24.24.47.48.71.71h0ZM29.44,80.33l.7.69,0,0h0q.15-.14.3-.3s.05,0,0-.07L29.85,80l0,0h0Zm-7,1.84-.32.33,0,0v0l.29.3s0,.05.08,0l.31-.31,0,0v0Zm-.73-.74-.33.33,0,0v0l.3.29s0,0,.07,0l.33-.32s0,0,0,0v0ZM36.07,93.59l-.33.32,0,0s0,0,0,0l.29.29s0,0,.07,0L36.4,94s0,0,0,0,0,0,0,0ZM27.6,82.17l-.35-.36h0l-.34.34h0v0l.34.34h0Zm-4.79-7,.33-.33,0,0v0l-.3-.3s0,0-.07,0l-.33.33a0,0,0,0,0,0,0v0Zm4.41.72h0l.35-.35h0l-.32-.32,0,0h0l-.34.35v0C27,75.67,27.1,75.78,27.22,75.89ZM28,63.4h0l-.31.32,0,0v0l.35.35h0l.33-.33h0v0Zm-7,18c.13-.12.24-.24.35-.35v0L21,80.72a0,0,0,0,0,0,0h0c-.12.11-.23.23-.34.34v0Z"/><path d="M26.13,68.17l-.37-.36.74-.74c.11.12.23.23.35.35v0Z"/><path d="M26.5,66.33,26.13,66l.73-.73.37.37Z"/><path d="M17.29,79.22l.35.36v0L17.3,80h0l-.33-.34v0Z"/><path d="M32,76.28c.12.11.23.23.35.35h0v0c-.12.12-.23.24-.35.35l-.37-.37Z"/><path d="M26.5,67.07l-.36-.35v0l.36-.35c.11.12.23.24.35.35v0C26.73,66.83,26.61,67,26.5,67.07Z"/><path d="M32.76,80.7l.35-.36h0l.35.35h0s0,0,0,0l-.33.33h0Z"/></g></g></svg>