<svg xmlns="http://www.w3.org/2000/svg" viewBox="0 0 135 133.19"><title>Recurso 84MANDALA</title><g id="Capa_2" data-name="Capa 2"><g id="Capa_1-2" data-name="Capa 1"><polygon points="76.62 29.81 72.53 29.81 72.53 8.59 76.62 0 76.62 29.81"/><polygon points="68.44 29.81 72.53 29.81 72.53 51.04 68.44 59.63 68.44 29.81"/><polygon points="53.53 31.2 50.17 33.54 38 16.16 36.42 6.77 53.53 31.2"/><polygon points="46.82 35.89 50.17 33.54 62.35 50.93 63.92 60.31 46.82 35.89"/><polygon points="35.4 45.58 34 49.42 14.05 42.16 7.38 35.38 35.4 45.58"/><polygon points="32.6 53.27 34 49.42 53.94 56.68 60.62 63.46 32.6 53.27"/><polygon points="28.8 67.75 29.86 71.7 9.36 77.2 0 75.47 28.8 67.75"/><polygon points="30.92 75.66 29.86 71.7 50.36 66.21 59.71 67.94 30.92 75.66"/><polygon points="36.11 89.7 39.24 92.33 25.6 108.59 16.95 112.54 36.11 89.7"/><polygon points="42.38 94.97 39.24 92.33 52.89 76.08 61.54 72.13 42.38 94.97"/><polygon points="54.69 103.49 58.77 103.85 56.92 124.99 52.09 133.19 54.69 103.49"/><polygon points="62.84 104.2 58.77 103.85 60.62 82.7 65.44 74.5 62.84 104.2"/><polygon points="77.82 104.13 81.37 102.08 91.98 120.46 92.73 129.95 77.82 104.13"/><polygon points="84.91 100.04 81.37 102.08 70.75 83.7 70 74.22 84.91 100.04"/><polygon points="97.13 91.38 98.86 87.67 118.1 96.64 124.15 103.98 97.13 91.38"/><polygon points="100.59 83.97 98.86 87.67 79.63 78.7 73.57 71.37 100.59 83.97"/><polygon points="105.64 69.87 104.93 65.84 125.83 62.15 135 64.69 105.64 69.87"/><polygon points="104.22 61.81 104.93 65.84 84.03 69.52 74.86 66.98 104.22 61.81"/><polygon points="100.27 47.36 97.38 44.47 112.39 29.46 121.35 26.28 100.27 47.36"/><polygon points="94.48 41.57 97.38 44.47 82.37 59.48 73.4 62.66 94.48 41.57"/></g></g></svg>