<svg xmlns="http://www.w3.org/2000/svg" viewBox="0 0 141.53 141.53"><title>Recurso 104MANDALA</title><g id="Capa_2" data-name="Capa 2"><g id="Capa_1-2" data-name="Capa 1"><path d="M73,53.56a3.93,3.93,0,0,1-1.24-2.88,154.63,154.63,0,0,1,2.05-21.9C76.44,13.11,72.43,0,70.77,0s-5.37,13.06-3,28.78A214.31,214.31,0,0,1,69.62,50.9a3.37,3.37,0,0,1-.9,2.61,3,3,0,1,0,4.26.05Z"/><path d="M64.09,54.76a3.87,3.87,0,0,1-2.52-1.88,154.76,154.76,0,0,1-9.18-20C46.85,18,36.83,8.65,35.38,9.48s1.88,14,11.78,26.44A212.82,212.82,0,0,1,59.84,54.14a3.38,3.38,0,0,1,.53,2.71,3,3,0,1,0,3.72-2.09Z"/><path d="M57,60.25a4,4,0,0,1-3.12-.37A154.39,154.39,0,0,1,35.92,47.16C23.67,37,10.31,33.94,9.48,35.38s8.63,11.19,23.42,17A212,212,0,0,1,53,61.83a3.36,3.36,0,0,1,1.81,2.08,3,3,0,0,0,1.43,1.9,3,3,0,0,0,3-5.27A3,3,0,0,0,57,60.25Z"/><path d="M53.56,68.55a3.89,3.89,0,0,1-2.88,1.24,155.82,155.82,0,0,1-21.9-2C13.11,65.09,0,69.1,0,70.77s13.06,5.37,28.78,3A211.52,211.52,0,0,1,50.9,71.92a3.33,3.33,0,0,1,2.61.89,3,3,0,1,0,.05-4.26Z"/><path d="M54.76,77.45A3.87,3.87,0,0,1,52.88,80a157.55,157.55,0,0,1-20,9.18c-14.9,5.53-24.25,15.56-23.42,17s14-1.88,26.44-11.78A212.82,212.82,0,0,1,54.14,81.69a3.34,3.34,0,0,1,2.71-.52,3,3,0,1,0-.68-5.56A3,3,0,0,0,54.76,77.45Z"/><path d="M60.25,84.56a4,4,0,0,1-.37,3.12,156.12,156.12,0,0,1-12.72,17.94C37,117.86,33.94,131.22,35.38,132.05s11.19-8.62,17-23.41a212.39,212.39,0,0,1,9.44-20.1,3.36,3.36,0,0,1,2.08-1.81,3,3,0,0,0,1.9-1.42,3,3,0,0,0-5.27-3A3,3,0,0,0,60.25,84.56Z"/><path d="M68.55,88a3.89,3.89,0,0,1,1.24,2.88,155.82,155.82,0,0,1-2,21.9c-2.66,15.67,1.35,28.78,3,28.78s5.37-13.06,3-28.78a211.09,211.09,0,0,1-1.87-22.12A3.33,3.33,0,0,1,72.81,88a3,3,0,0,0,.94-2.18,3,3,0,1,0-6.09,0A3,3,0,0,0,68.55,88Z"/><path d="M77.45,86.77A3.93,3.93,0,0,1,80,88.65a157.15,157.15,0,0,1,9.18,20c5.53,14.9,15.56,24.25,17,23.41s-1.88-14-11.78-26.43A214.3,214.3,0,0,1,81.69,87.39a3.32,3.32,0,0,1-.52-2.71,3,3,0,0,0-4.44-3.47,3,3,0,0,0,.72,5.56Z"/><path d="M84.56,81.29a3.91,3.91,0,0,1,3.12.36,157.4,157.4,0,0,1,17.94,12.72c12.24,10.14,25.6,13.22,26.43,11.78s-8.62-11.18-23.41-17a214.58,214.58,0,0,1-20.1-9.45,3.36,3.36,0,0,1-1.81-2.08,3,3,0,1,0-2.17,3.67Z"/><path d="M88,73a3.93,3.93,0,0,1,2.88-1.24,154.63,154.63,0,0,1,21.9,2.05c15.67,2.65,28.78-1.36,28.78-3s-13.06-5.37-28.78-3a213.87,213.87,0,0,1-22.12,1.87,3.37,3.37,0,0,1-2.61-.9,3,3,0,0,0-2.18-.93,3,3,0,1,0,0,6.08A3,3,0,0,0,88,73Z"/><path d="M86.77,64.09a3.93,3.93,0,0,1,1.88-2.52,154.37,154.37,0,0,1,20-9.18c14.9-5.54,24.25-15.56,23.41-17s-14,1.88-26.43,11.78A214.3,214.3,0,0,1,87.39,59.84a3.36,3.36,0,0,1-2.71.53,3,3,0,0,0-2.35.28,3,3,0,1,0,4.44,3.44Z"/><path d="M81.29,57a3.9,3.9,0,0,1,.36-3.12A155.64,155.64,0,0,1,94.37,35.92c10.14-12.25,13.22-25.61,11.78-26.44S95,18.11,89.15,32.9A214.2,214.2,0,0,1,79.7,53a3.36,3.36,0,0,1-2.08,1.81,3,3,0,0,0-.79,5.58A3,3,0,0,0,81,59.27,3,3,0,0,0,81.29,57Z"/><ellipse cx="80.19" cy="35.61" rx="9.62" ry="0.61" transform="translate(25.04 103.85) rotate(-75)"/><ellipse cx="61.35" cy="35.61" rx="0.61" ry="9.62" transform="translate(-7.13 17.09) rotate(-15)"/><ellipse cx="45.03" cy="45.03" rx="0.61" ry="9.62" transform="translate(-18.65 45.03) rotate(-45)"/><ellipse cx="35.61" cy="61.35" rx="0.61" ry="9.62" transform="translate(-32.87 79.86) rotate(-75)"/><ellipse cx="35.61" cy="80.19" rx="9.62" ry="0.61" transform="matrix(0.97, -0.26, 0.26, 0.97, -19.54, 11.95)"/><ellipse cx="45.03" cy="96.51" rx="9.62" ry="0.61" transform="translate(-55.05 60.1) rotate(-45)"/><ellipse cx="61.35" cy="105.93" rx="9.62" ry="0.61" transform="translate(-56.85 137.77) rotate(-75)"/><ellipse cx="80.19" cy="105.93" rx="0.61" ry="9.62" transform="matrix(0.97, -0.26, 0.26, 0.97, -24.68, 24.36)"/><ellipse cx="96.51" cy="96.51" rx="0.61" ry="9.62" transform="translate(-39.97 96.51) rotate(-45)"/><ellipse cx="105.93" cy="80.19" rx="0.61" ry="9.62" transform="translate(1.06 161.75) rotate(-75)"/><ellipse cx="105.93" cy="61.35" rx="9.62" ry="0.61" transform="translate(-12.27 29.51) rotate(-15)"/><ellipse cx="96.51" cy="45.03" rx="9.62" ry="0.61" transform="translate(-3.57 81.43) rotate(-45)"/></g></g></svg>