<svg xmlns="http://www.w3.org/2000/svg" viewBox="0 0 140.21 91.31"><title>Recurso 27ART</title><g id="Capa_2" data-name="Capa 2"><g id="Capa_1-2" data-name="Capa 1"><path d="M22.33,50.05V48.5l1.23-.23.06-1c.11-.06.22-.17.34-.18h2.31c.06,0,.11-.07.23-.14,0-.43.05-.91.07-1.37.13-.06.25-.16.37-.16h2.41l.21-1.12a1,1,0,0,1,.36-.13c.77,0,1.54,0,2.3,0,.49-.46,0-1.09.36-1.64L34,42.44l.18-1.21h2.66c.35-.52.13-1,.19-1.5,0,0,.09-.1.15-.14a.43.43,0,0,1,.18-.06h8.48c0-.41,0-.74.05-1.07,0-.05.1-.15.15-.15l6.72-.05c.06,0,.11-.07.23-.14l.07-1.37c.13-.06.25-.16.37-.16q16.41,0,32.82,0c.26,0,.56-.12.87.19v1.31a1.44,1.44,0,0,0,.43.17H103c.07.36.15.75.22,1.13a.61.61,0,0,0,.16.12.49.49,0,0,0,.21,0h6.92c.48.47,0,1.1.36,1.65h5.49c.4.36.18.73.25,1.06.1.08.2.22.3.23h3.69c.35.28.18.58.21.85a4.26,4.26,0,0,1,0,.62c.11.07.22.2.34.2.83,0,1.66,0,2.56,0l.07,1.09c.43.37.94.11,1.4.17s1-.11,1.48.14c0,.45,0,.92.07,1.38.46.33,1,.1,1.52.18.07.35.14.74.21,1.12.3.27.67,0,1,.15.47.45,0,1.08.34,1.62l1.37.08c.34.44.12.94.15,1.41s0,1,0,1.43l1.11.12c.3.31.09.68.15,1-.11.07-.22.19-.33.19-.83,0-1.66,0-2.57,0l-.07,1.51c-.11.06-.23.17-.35.17h-2.55v2.71c-.36.38-.73.16-1.06.23-.53-.43,0-1.07-.3-1.55-.44-.29-1,0-1.44-.19,0-.07-.15-.18-.16-.3,0-.82,0-1.65,0-2.52l-1.09-.11c-.32-.28-.1-.65-.17-1s-.2-.22-1.54-.3c-.32-.45,0-.95-.22-1.46,0,0-.15-.15-.26-.15-.83,0-1.66,0-2.57,0l-.07-1.09c-.42-.37-.93-.11-1.39-.17a4.28,4.28,0,0,1-1.49-.14c0-.45,0-.92-.07-1.37-.3-.36-.69-.06-1.11-.29l-.19-1c-.06,0-.11-.13-.16-.13h-4.19c-.49-.47,0-1.1-.31-1.58a2.65,2.65,0,0,0-1.22-.1c-.49,0-1,0-1.47,0h-1.32l-.19-1.22h-1.43c-.31.32-.09.69-.16,1-.35.38-.75.21-1.23.11,0-.31,0-.64-.06-1-.12-.06-.23-.17-.35-.17H94.79a2,2,0,0,0-.45.13v6.79c-.36.39-.73.16-1.06.24-.07.1-.21.2-.22.31,0,.83,0,1.66,0,2.44-.51.37-1,.06-1.51.26,0,.06-.16.17-.16.28,0,.83,0,1.66,0,2.54l-1.09.09c-.43.46.06,1.09-.34,1.62l-1.34.06c-.33.32-.1.7-.2,1.11l-1.19.22v1.36c-.19.11-.3.22-.42.22-.77,0-1.54,0-2.31,0-.06,0-.11.06-.2.12,0,.31-.08.64-.11,1a1.42,1.42,0,0,1-.36.16H81.5c-.55.43,0,1.07-.31,1.55,0,0-.09.12-.15.13a3,3,0,0,1-.42,0H76.76l-.21,1.14c-.06,0-.12.12-.17.12H62c-.06-.4-.12-.79-.2-1.24H57.9c-.37-.52-.15-1-.22-1.57-.89-.37-1.88,0-2.8-.21-.28-.3-.05-.67-.15-1-.46-.45-1.07,0-1.62-.26,0-.5-.06-1-.09-1.45-.43-.34-.94-.1-1.4-.16s-1,.12-1.45-.13c0-.33-.07-.66-.11-1-.31-.3-.68-.08-1-.16-.49-.44,0-1.08-.34-1.64l-1.45-.07L47.08,56l-1-.12c-.06-.06-.15-.1-.15-.15,0-.85,0-1.69,0-2.52-.44-.54-1.08,0-1.57-.32-.25-.44-.09-.93-.12-1.41s0-.83,0-1.33L43,50l-.08-1.42c-.12-.06-.24-.16-.35-.16h-4s-.11.08-.23.19v1.31c-.52.33-1,.15-1.49.18s-.84,0-1.34,0c-.07.38-.14.76-.23,1.22-.87.12-1.77,0-2.67.07-.45.46.06,1.09-.31,1.59l-1,.12c0,.05-.14.1-.14.15,0,.84,0,1.68,0,2.51-.44.55-1.08,0-1.56.32-.28.29-.05.66-.15,1-.35.41-.76,0-1.06.21-.11-.18-.17-.23-.18-.29a.72.72,0,0,1,0-.21v-5a.79.79,0,0,0,0-.2c-.43-.35-.93-.12-1.4-.16s-1,0-1.43,0l-.12-1.11a1.15,1.15,0,0,0-.38-.15Z"/><path d="M116.63,76.59H115c0,.4,0,.73-.06,1.06-.11.06-.23.18-.34.18-.77,0-1.55,0-2.32,0-.05,0-.11.07-.22.15,0,.43-.05.9-.08,1.35-.29.33-.67.11-1,.18-.08.11-.22.21-.23.31,0,.84,0,1.67,0,2.47-.51.31-1,.13-1.48.16s-.84,0-1.34,0l-.22,1.22c-.88.12-1.78,0-2.67.07-.44.46.06,1.09-.35,1.64H99.18c-.38.36-.16.73-.23,1.06-.44.53-1.07,0-1.55.3-.3.44,0,.95-.22,1.5l-1.12.2-.1,1c-.46.39-1.07,0-1.63.23v1.44a1.58,1.58,0,0,1-.44.17H82.74c-.51-.44,0-1.07-.29-1.55,0-.05-.1-.12-.16-.13a2.94,2.94,0,0,0-.42,0H73.8c-.06-.39-.13-.78-.19-1.15-.08,0-.13-.1-.19-.11a.72.72,0,0,0-.21,0h-5l-.19,0c-.4-.47,0-1.08-.24-1.64h-5.6c-.41-.36-.1-.74-.35-1.19-.78-.32-1.78.1-2.7-.16-.25-.46-.06-1-.16-1.51l-1.16-.19c0-.34-.08-.67-.11-1-.12-.06-.24-.16-.35-.16-.83,0-1.66,0-2.55,0V81c-.52-.32-1-.14-1.49-.17s-.84,0-1.34,0c-.06-.38-.14-.76-.22-1.22-.88-.12-1.78,0-2.71-.08a2.57,2.57,0,0,1-.06-1.58l1-.12c.33-.29,0-.67.19-1-.14-.1-.25-.24-.36-.24-1.25,0-2.5,0-3.71,0-.31-.53-.11-1-.19-1.49-.11-.07-.22-.19-.34-.19H40.07c0-.42-.07-.75-.09-1.09-.43-.36-.94-.13-1.4-.16s-1.12,0-1.69,0H35.42l-.07-1.52c-.15-.06-.26-.16-.38-.16H32.65c-.45-.39-.17-.91-.21-1.37s0-1,0-1.41A2.89,2.89,0,0,1,33.92,69c.45.46,0,1.08.22,1.51.13.09.19.16.24.16h3.81a2.79,2.79,0,0,0,0-1.67H35.47c0-.26-.07-.45-.09-.64s0-.28,0-.53c-.91-.29-1.9,0-2.9-.18v-1.5L31.22,66V65a1.23,1.23,0,0,1,.35-.16c2.94,0,5.89,0,8.83,0,.27,0,.56-.1.81.13l.11,1a1.11,1.11,0,0,0,.38.14c.77,0,1.54,0,2.31,0,.5.45,0,1.08.35,1.65.83.11,1.73,0,2.71.07.06.36.12.75.19,1.2h2.65c.37.52.14,1,.2,1.48a1.14,1.14,0,0,0,.14.16.4.4,0,0,0,.18.07h4.11c.37.37.08.75.33,1.18-.07-.07,0,0,0,0l4,.09c0,.53.05,1,.08,1.47.11.06.23.17.34.17h4c.05,0,.11.08.19.14,0,.3.07.64.11,1a1,1,0,0,0,.37.15h5.26c.52.44,0,1.07.3,1.55,0,0,.09.11.15.13a.72.72,0,0,0,.21,0H81.15l.2,1.13c.07.05.12.12.17.12h5.54l.2-1.24h8.52c.42-.51.07-1,.35-1.63-.08.1,0,0,0,0a.33.33,0,0,1,.18-.08h5.37c.37-.36.08-.75.32-1.17-.06.06,0,0,0,0l4-.1c0-.53,0-1,.08-1.47.11-.06.23-.17.34-.17H109c0-.44.09-.77.13-1.1a1,1,0,0,1,.36-.15h2.32c.51-.44,0-1.07.26-1.52a.76.76,0,0,1,.2-.16.67.67,0,0,1,.2,0h4.08c.06-.39.13-.78.19-1.15.34-.23.68-.06,1-.11.28.28.3,3.16.07,5.83l-1,.11a1.6,1.6,0,0,0-.15.37C116.62,74.82,116.63,75.59,116.63,76.59Z"/><path d="M0,0h2.9c.1.93,0,1.83.07,2.72.45.45,1.08-.05,1.59.32,0,.3.08.63.11,1,.29.31.67.08,1,.16.55.43,0,1.06.31,1.56.44.25.94.09,1.41.12s.84,0,1.34,0c.07.38.13.77.21,1.22l1.42.08c.06.12.16.23.16.35,0,.41,0,.81,0,1.28h2.73c.37.37.14.74.22,1.07.11.07.22.2.33.2h5.51v1.46c.19.1.3.22.42.22h6.71l.12,1.09a.75.75,0,0,0,.16.15.62.62,0,0,0,.2,0H39.56a.74.74,0,0,1,.21,0c.06,0,.11.08.23.19v1.28c.13.12.17.2.23.2a3,3,0,0,0,.42,0H50l.21,1.14a.88.88,0,0,0,.17.12.74.74,0,0,0,.21,0H64.64c.47.48,0,1.12.36,1.64h1.38c.31-.44.08-.94.15-1.41.11-.08.21-.21.32-.22h2.46c.29.53.1,1,.18,1.49.11.07.23.19.34.19H90.05c0,.42.06.75.09,1.08,0,.05.09.12.15.15a.44.44,0,0,0,.2,0h14.1s.1.07.21.15l.07,1.36c.15.06.26.16.38.16,5.12,0,10.24,0,15.45,0,.07.37.14.75.22,1.14,0,0,.09.11.15.12a3,3,0,0,0,.42,0h8c.49.46,0,1.1.31,1.57a.5.5,0,0,0,.17.11.67.67,0,0,0,.2,0h5a2.48,2.48,0,0,1,.29.06c0,.35.11.74.18,1.19h2.65c.38.52.06,1,.31,1.61.33.37,1-.09,1.42.13.29.35.07.71.16,1-.29.29-1.73.32-4.57.11l-.12-1c-.12-.05-.23-.15-.35-.15-1.19,0-2.39,0-3.58,0-.54-.43,0-1.07-.3-1.55,0,0-.1-.13-.16-.13H116.75l-.21-1.13c-.06-.05-.11-.11-.17-.12a.74.74,0,0,0-.21,0H76.84c-.47-.48,0-1.11-.37-1.66H62.14c-.39-.35-.17-.73-.24-1.05-.32-.43-.74-.2-1.13-.16-.28.29-.05.66-.16,1.05a2.17,2.17,0,0,1-.53.13H26.58c0-.42,0-.75-.07-1.08a1.06,1.06,0,0,0-.15-.15.4.4,0,0,0-.19,0H20.91c-.06,0-.11-.07-.23-.15,0-.43,0-.9-.07-1.36-.13-.06-.25-.16-.37-.16-.77,0-1.54,0-2.41,0-.07-.36-.14-.75-.21-1.13-.05,0-.1-.13-.15-.13H15c-.49-.46,0-1.1-.35-1.64l-1-.09c-.06-.37-.12-.76-.19-1.21H10.72c-.32-.52-.14-1-.17-1.48s0-.84,0-1.27c-.41-.43-.92-.16-1.39-.2s-1,0-1.51,0V10.32c-.52-.53-1.16,0-1.66-.4l-.13-1c-.17,0-.36-.07-.55-.09s-.28,0-.42,0-.22-.21-.22-.32c0-.41,0-.82,0-1.19-.53-.3-1-.11-1.57-.2C3,6.73,3,6.34,2.87,5.9l-1-.09c-.05-.11-.16-.23-.16-.35,0-.77,0-1.54,0-2.31,0,0-.07-.11-.17-.23H.2C-.13,2.4.05,1.9,0,1.43S0,.59,0,0ZM25.25,16c.08.64-.12,1.14.2,1.65h3.7c.11,0,.22-.13.34-.2-.06-.47.14-1-.16-1.44Zm-2.89,0c.51-.12.87.1,1.16-.19.05-.38.25-.79-.15-1.12-.32.07-.68-.14-1,.17Z"/><path d="M40,36.58v-1c.05-.05.1-.14.15-.14l4-.11V33.86c.19-.1.3-.21.41-.22H46.9c.05,0,.11-.07.2-.13,0-.3.07-.63.11-1,.44-.33.94-.12,1.41-.15s1,0,1.47,0,1,0,1.47,0a3,3,0,0,0,1.49-.16V30.9c.13-.12.17-.2.23-.21a2.94,2.94,0,0,1,.42,0H86.94c.53.43,0,1.07.3,1.55.05,0,.09.11.15.13a.74.74,0,0,0,.21,0h9.54c.07.38.14.77.21,1.18a5.37,5.37,0,0,0,1.65.08c.56,0,1.12,0,1.68,0h5.22c.44.49,0,1.1.27,1.66h2.65c.38.36.16.74.23,1.06-.11.08-.22.21-.32.21h-8.32c-.34-.37-.12-.74-.22-1.06,0-.05-.09-.15-.14-.15l-12.84-.08-.08-1.48c-.12-.06-.24-.17-.35-.17H56.7c-.2,0-.4,0-.65.06,0,.51,0,1-.08,1.45a1,1,0,0,1-.36.16l-7.57,0c-.26,0-.56-.12-.82.14l-.1,1a1.15,1.15,0,0,1-.38.15Z"/><path d="M40,36.58v1.64H37.2a2.41,2.41,0,0,1-.07-1.5c.08-.06.14-.13.19-.13Z"/><path d="M22.33,50.05V51.1c-.46.38-1,.16-1.5.19-.39-.35,0-.75-.24-1.11A6.38,6.38,0,0,1,22.33,50.05Z"/></g></g></svg>