<svg xmlns="http://www.w3.org/2000/svg" viewBox="0 0 110.67 110.67"><title>Recurso 28MANDALA</title><g id="Capa_2" data-name="Capa 2"><g id="Capa_1-2" data-name="Capa 1"><path d="M51.77,93.22h-.83V81.61h.82c0-.14,0-1.3,0-1.65h-.82V76.63l0,0h-.8s0,0,0-.06c0-.23,0-.46,0-.68v-.08c-.17,0-1.77,0-2.48,0h0v.81H45.13a.21.21,0,0,0,0,.11v.62a.17.17,0,0,1,0,.1H43.47v.82h-5v.78H36v.81a0,0,0,0,1,0,0h-.8s0,0,0-.06v-.76a0,0,0,0,1,0,0h-.81a7.57,7.57,0,0,1,0-.83h.81a.21.21,0,0,0,0-.11v-.62a.18.18,0,0,1,0-.1H36v-.81s.06,0,.09,0H41s0-.08,0-.11v-.71h1.66V75h3.31s0,0,0-.06v-.76h1.66V73.3h1.65s0,0,0,0h0V72.5h0v0h2.48l0,0h0v-.79s0,0,.06,0h1.59c0-.17,0-1.87,0-2.48H52.6v-3.3s.07,0,.11,0h.62a.18.18,0,0,0,.1,0V65h.83v-.79h0c.13,0,1.29,0,1.64,0h0V65h.82v.81s0,0,.06,0h.76c0,.17,0,1.79,0,2.48h-.83v3.31s.07,0,.11,0h1.55v.81l0,0H60.9v.79h1.67v.81h4.14v.8s0,0,.08,0H70v.81h0c.69,0,1.46,0,1.63,0V75h2.5V76.6h1.66v.8a.25.25,0,0,1-.12,0H75v.82H73.37v-.81s-.06,0-.1,0H66.72v-.81H62.57s0,0,0,0V75.8h-2.5v.82h-.8s0,0,0,.06v1.59h-.83v4.94s0,0,0,0h.81v0h0v8.27h-.81l0,0V94h-.83v8.28h-.83V109a0,0,0,0,0,0,0h-.82v1.64h-.83v-.79H52.6v-6.64h-.82s0,0,0,0Zm3.31,14.12h0V100.7h-.81v6.63h.82Zm0-7.47V95.73h-.78s0,0-.05,0v4.14Zm0-8.31h-.83v1.62s0,0,0,0h.78s0,0,0,0h0Z"/><path d="M79.6,84.65l-.58.58h0L70.8,77h0c.18-.19.37-.37.56-.56h0c-.09-.11-.91-.93-1.16-1.17h0l-.56.56h0L67.28,73.5h0l0,0-.55.55s0,0,0,0l-.48-.48-.06,0c-.13.11-1.27,1.24-1.76,1.74v0h0l.56.56v0l-1.75,1.74s.05.06.07.09a.46.46,0,0,1,.07.07l.08.08.07.06.08.08.07.07.07.08s.06,0,.07.08l-1.16,1.15v0l0,0,.55.55v0h0l-3.5,3.49h0v0h0c.19.18.37.36.55.55h0l-1.73,1.73v0l.56.57s0,0,0,0,0,0,0,0l-.55.56s0,0-.06,0l-.48-.47,0-.06h0l-.56.56a6.2,6.2,0,0,1-.59-.58l.57-.58a.14.14,0,0,0-.07-.08l-.06-.07-.08-.08L57,85.53l-.08-.08-.07-.06a.3.3,0,0,0-.08-.08s0,0-.06-.08l.57-.57v0s0,0,0,0l-.55-.55s0,0,.06-.07l3.36-3.36.09-.1s-.05-.06-.07-.08l-.09-.09L60,80.29l-.09-.09-.07-.08L59.72,80,59.64,80v0h0l1.14-1.14v0l-.57-.57v0a0,0,0,0,1,0,0l2.32-2.32s0,0,0-.06L62,75.31l0,0v0h0l1.15-1.14v0h0l-.56-.56v0l1.15-1.16h0l0,0-.51-.51h0v0L64.91,70v0a0,0,0,0,1,0,0l-.56-.55s0,0,0-.06l1-1,.08-.07c-.11-.13-1.31-1.33-1.75-1.76h0l-.56.56h0l-2.34-2.34s0-.05.07-.08l.07-.07.08-.08.07-.06.08-.08.07-.07.07-.08a.14.14,0,0,0,.07-.08l-.57-.57v0l0,0,.54-.54v0h0l-.56-.56h0c.09-.11.9-.93,1.15-1.17h0l.56.56h0l.56-.57h0a0,0,0,0,0,0,0l.54.55s0,0,.06,0l.48-.48,0-.06c.13.11,1.28,1.25,1.76,1.75h0l-.56.56v0l2.34,2.33a.14.14,0,0,0,.08-.07L68,65.7l.08-.08.08-.08.08-.08.07-.08.08-.07.08-.08.08-.08.08-.08.08-.08.07-.08.08-.07a.6.6,0,0,1,.08-.08.34.34,0,0,1,.09-.08l.57.58h0l1.72-1.73h0l.55.56h0l1.13-1.14h0l.56.56h0l2.92-2.91h0l.55.55s.05,0,.07,0l2.19-2.19.09-.1h0l.56.55h0c.49-.48,1-1,1.15-1.16l-.57-.57v0h0l1.73-1.73h0L83.71,57h0l0,0,1.13-1.13h0l.56.57a.29.29,0,0,1-.07.08l-.09.09-.08.08-.09.09-.08.08L85,57,84.9,57v0h0l.56.56h0l-1.16,1.16h0l-.56-.55s0,0-.08.06l-4.52,4.52-.09.1h0l-.56-.56h0l-2.91,2.9h0l0,0-.53-.52h0l-1.74,1.73v0l.57.57v0s0,0,0,0l-.55.55s0,0,0,0l1,1,.08.07v0h0l-.56.56h0l3.48,3.49h0l.57-.57h0l5.84,5.85v0l-.57.57v0l0,0,1.71,1.71h0l-.55.56h0v0h0L90.17,87v0h0l-.56.56h0l4.68,4.68v0h0l-.54.53h0v0L94.87,94v0l-.56.57h0c-.18-.19-.37-.37-.56-.56h0L92,95.79h0l-4.67-4.67h0l-.57.57h0Zm12.33,7.64h0L87.25,87.6h0l-.57.57h0l4.68,4.68h0ZM86.65,87l-2.92-2.93h0l0,0-.52.52s0,0,0,0l2.91,2.92h0Zm-5.87-5.87-.56.55,0,0v0l0,0,1.12,1.12,0,0,.55-.55,0,0v0Z"/><path d="M93.22,58.9v.82H81.59v-.79H79.93v.79h-3.3l0,0v.8s0,0-.06,0h-.76c0,.17,0,1.78,0,2.48h.83v2.47a.21.21,0,0,0,.11,0h.62a.17.17,0,0,1,.1,0V67.2h.83v5h0s0,0,0,0h.8v2.47h.81a0,0,0,0,1,0,0h0v.79s0,0-.06,0h-.76a0,0,0,0,1,0,0v.81a7.57,7.57,0,0,1-.83,0v-.81a.21.21,0,0,0-.11,0h-.62a.18.18,0,0,1-.1,0V74.7h-.82s0-.06,0-.1V69.71a.22.22,0,0,0-.11,0h-.72V68H75a0,0,0,0,0,0,0v-3.3s0,0-.06,0h-.76v0h0V63.07h-.83V61.41h-.82V58.92l0,0h-.8s0,0,0-.06V57.25c-.17,0-1.87,0-2.48,0h0v.81H65.82s0-.07,0-.11v-.62a.18.18,0,0,0,0-.1H65v-.81h-.82c0-.13,0-1.29,0-1.64H65v-.81h.82s0,0,0-.06V53.1c.17,0,1.79,0,2.48,0h0v.81h3.31s0-.08,0-.11a.41.41,0,0,0,0-.11V52.48a.41.41,0,0,1,0-.11.41.41,0,0,1,0-.11h.81l0,0V49.78h.83V48.13h.83V44h.8s0-.05,0-.08V40.64h.83v0c0-.69,0-1.46,0-1.63H75v0h0V36.47h1.65V34.83h.82a.25.25,0,0,1,0,.12v.7h.83v1.64h-.82a.21.21,0,0,0,0,.11v6.53a0,0,0,0,0,0,0h-.82v4.12h-.83V50.6h.82v.8s0,0,.06,0h1.6v.8h5v-.81h8.31v.8l0,0h2.47c0,.26,0,.53,0,.79h8.3v.81H109v.78h0s0,0,0,0h1.65v.81h-.83v2.44h-6.65v.81h-10Zm14.12-3.31H100.7v.81h6.64Zm-7.47,0H95.72v.77s0,0,0,0h4.14Zm-8.31,0v.82h1.66v-.78s0,0,0,0H91.56Z"/><path d="M84.65,31.07l.58.58h0L77,39.87h0l-.56-.56h0c-.11.09-.93.91-1.17,1.16h0l.56.56v0L73.5,43.39v0s0,0,0,0l.55.55s0,0,0,.05l-.48.48,0,.06c.11.13,1.24,1.27,1.74,1.76h0l.56-.56h0l1.74,1.75s.06,0,.09-.07a.23.23,0,0,1,.07-.07l.08-.08.06-.07.08-.08.07-.07.08-.07a.14.14,0,0,1,.08-.07l1.15,1.16h0l0,0,.55-.55h0L83.46,51h0l.55-.55h0l1.73,1.73h0l.57-.56h0l.56.56s0,0,0,.06l-.47.48-.06,0v0h0l.56.56a6.2,6.2,0,0,1-.58.59l-.58-.58a.2.2,0,0,0-.08.08l-.07.06-.08.08-.07.07-.08.08-.06.07-.08.08s0,.05-.08.06l-.57-.57h0s0,0,0,0l-.55.55s0,0-.07-.06l-3.36-3.36-.1-.09s-.06,0-.08.07l-.09.09-.08.08-.09.09-.08.07L80,51,80,51h0l-1.14-1.14h0l-.57.57h0l-2.32-2.32s0,0-.06,0l-.48.48,0,0h0l-1.14-1.15h0l-.56.56h0l-1.16-1.15h0l0,0-.51.51h0L70,45.76h0a0,0,0,0,1,0,0l-.55.56s0,0-.06,0l-1-1-.07-.08c-.13.11-1.33,1.31-1.76,1.75h0l.56.56v0l-2.34,2.33s-.05,0-.08-.06a.46.46,0,0,0-.07-.07l-.08-.08-.06-.07-.08-.08-.07-.07-.08-.07a.14.14,0,0,0-.08-.07l-.57.57h0l0,0-.54-.54h0l-.56.56h0c-.11-.09-.93-.9-1.17-1.16h0l.56-.56v0l-.57-.56v0a0,0,0,0,0,0,0l.55-.54s0,0,0-.06l-.48-.48-.06-.06c.11-.13,1.25-1.27,1.75-1.75h0l.56.56h0l2.33-2.33a.14.14,0,0,0-.07-.08l-.07-.08-.08-.08-.08-.08-.08-.08-.08-.07-.07-.08-.08-.08-.08-.08L65.07,42,65,42l-.08-.07-.07-.08a.6.6,0,0,1-.08-.08.34.34,0,0,1-.08-.09l.58-.57v0L63.51,39.3v0h0l.56-.55v0h0l-1.14-1.14h0s0,0,0,0h0l.56-.56v0L60.58,34s0,0,0,0h0l.55-.55s0,0,0-.07l-2.19-2.19-.1-.09v0h0l.55-.56v0h0c-.48-.49-1-1-1.16-1.15l-.57.57h0l-1.73-1.73v0L57,27v0l0,0-1.13-1.13v0h0l.57-.56a.29.29,0,0,1,.08.07l.09.09.08.08.09.09.08.08.09.08.07.08h0l.56-.56h0l1.16,1.16s0,0,0,0h0l-.55.55s0,.06.06.09c1.51,1.51,3,3,4.52,4.52l.1.09v0h0l-.56.56v0h0l2.9,2.91h0l0,0-.52.53h0l1.73,1.74h0L67,37h0l0,0,.55.55s0,0,0,0l1-1,.07-.08h0l.56.56h0l3.49-3.48a0,0,0,0,0,0,0l-.57-.57v0h0L78.18,27h0l.57.57h0l0,0,1.71-1.71h0l.56.55h0L87,20.5h0l.56.56h0l4.68-4.68h0l.53.54h0L94,15.8h0l.57.57v0h0l-.56.56h0c.58.57,1.15,1.15,1.72,1.72h0v0h0l-4.67,4.67v0l.57.57v0h0Zm7.64-12.33h0L87.6,23.42v0l.57.57h0l4.68-4.68v0ZM87,24l-2.93,2.92v0l0,0,.52.52s0,0,0,0l2.92-2.91v0Zm-5.87,5.87.55.56,0,0h0l0,0,1.12-1.12,0,0-.55-.55,0,0s0,0,0,0Z"/><path d="M58.9,17.45h.83v11.6h-.82c0,.14,0,1.3,0,1.65h.82V34l0,0h.8s0,0,0,.06v.76c.17,0,1.78,0,2.48,0h0v-.81h2.47a.21.21,0,0,0,0-.11v-.62a.17.17,0,0,1,0-.1H67.2v-.82h5s0,0,0,0v-.78h2.5v-.81a0,0,0,0,1,0,0h.8s0,0,0,.06v.75a0,0,0,0,1,0,0h.81a7.57,7.57,0,0,1,0,.83h-.81s0,.07,0,.11v.62a.18.18,0,0,1,0,.1h-.82v.81s-.06,0-.1,0H69.71a.22.22,0,0,0,0,.11v.71H68v.81H64.73s0,0,0,.06v.76H63.06v.82H61.41v0h0v.76h0v0H58.92l0,0h0V39s0,0-.06,0H57.25c0,.17,0,1.87,0,2.48h.83v3.3s-.07,0-.11,0h-.62a.18.18,0,0,0-.1,0v.81h-.83v.79h0c-.13,0-1.29,0-1.64,0h0v-.82h-.82v-.81s0,0-.06,0H53.1c0-.17,0-1.79,0-2.48h.83V39.05s-.08,0-.11,0H52.26v-.81l0,0H49.77V37.4H48.1v-.81H44v-.81s-.05,0-.08,0H40.63V34.9h0c-.69,0-1.46,0-1.63,0v.81h-2.5V34.07H34.81v-.8a.25.25,0,0,1,.12,0h.71v-.81H37.3v.81a.21.21,0,0,0,.11,0h6.53a0,0,0,0,0,0,0v.81H48.1v.78h2.5v-.82h.8s0,0,0-.06V32.41h.82v-5h-.81a0,0,0,0,1,0,0h0V19.12h.81l0,0V16.63h.83V8.32h.83V1.68a0,0,0,0,0,0,0h.82V0h.83V.81h2.49V7.48h.82ZM55.59,3.33h0V10h.81V3.34h-.82Zm0,7.47v4.14h.78s0,0,0,0V10.81h-.83Zm0,8.31h.83V17.48s0,0,0,0h-.82Z"/><path d="M31.07,26l.58-.58h0l8.21,8.21h0l-.56.56h0c.09.11.91.93,1.16,1.17h0l.56-.56h0l2.33,2.33h0l0,0L44,36.6s0,0,.05,0l.48.48.06.05c.13-.11,1.27-1.24,1.76-1.74v0h0l-.56-.56v0l1.75-1.74s0-.06-.07-.09l-.07-.07-.08-.08-.07-.06-.08-.08-.07-.07L47,32.55a.14.14,0,0,1-.07-.08l1.16-1.15v0l0,0-.55-.55v0h0L51,27.21v0h0c-.19-.18-.37-.36-.55-.55h0c.58-.58,1.15-1.16,1.73-1.73v0l-.56-.57s0,0,0,0h0l.56-.56s0,0,.06,0l.48.48,0,.06h0l.56-.56a6.2,6.2,0,0,1,.59.58l-.58.58s0,.05.08.08l.06.07.08.08.07.07.08.08.07.06.08.08s.05,0,.06.08L53.4,26v0l0,0,.55.55s0,0-.06.07L50.55,30l-.09.1s0,.05.07.08l.09.09.08.08.09.09.07.07.09.09.08.08v0h0l-1.14,1.14v0l.57.57v0h0l-2.32,2.32s0,0,0,0l.48.48,0,.06v0h0l-1.15,1.14v0h0l.56.56v0l-1.15,1.16s0,0,0,0h0l0,0,.51.51h0v0l-1.74,1.74v0h0l.56.56s0,0,0,.06l-1,1-.08.08c.11.13,1.31,1.33,1.75,1.76h0c.19-.18.38-.37.56-.56h0L49.85,46s0,0-.06.08l-.07.07-.08.08-.07.06-.08.08-.07.07-.07.08a.14.14,0,0,0-.07.08l.57.57v0l0,0-.54.54s0,0,0,0h0l.56.56h0c-.09.11-.9.93-1.16,1.17h0l-.56-.56h0l-.56.56h0l0,0-.54-.55s0,0-.06,0l-.48.48-.06.06c-.13-.11-1.27-1.25-1.75-1.75h0l.56-.56v0l-2.33-2.34s-.06,0-.08.07l-.08.08-.08.08-.08.08-.08.08-.07.08-.08.07-.08.08-.08.08L42,45.6l-.08.08-.07.08-.08.07a.6.6,0,0,1-.08.08.34.34,0,0,1-.09.08l-.57-.58h0l0,0L39.3,47.16h0l-.55-.56h0l-1.14,1.14h0L37,47.18h0L34,50.09h0l-.55-.55s0,0-.07,0l-2.19,2.19-.09.1h0l-.56-.55h0c-.49.49-1,1-1.15,1.17l.57.57v0h0l-1.73,1.73h0L27,53.64h0l0,0-1.13,1.13h0l-.56-.57a.71.71,0,0,1,.07-.09l.09-.08.08-.08.09-.09.08-.08.08-.09.08-.07v0h0l-.56-.56h0l1.16-1.16s0,0,0,0h0l.55.56s.06,0,.09-.06c1.51-1.51,3-3,4.52-4.52l.09-.1h0l.56.56h0l2.91-2.9h0l0,0,.53.52h0l1.74-1.73v0L37,43.65v0l0,0,.55-.55a.07.07,0,0,0,0-.05l-1-1-.08-.07v0h0l.56-.56h0v0l-3.48-3.48,0,0-.57.58h0L27,32.49v0l.57-.57v0l0,0-1.71-1.71h0l.55-.56v0h0L20.5,23.68v0h0l.56-.56h0l-4.68-4.69v0h0l.54-.53h0v0L15.8,16.63v0l.57-.57h0l.56.56h0c.57-.58,1.15-1.15,1.72-1.72h0l4.67,4.67h0L24,19h0ZM18.74,18.38h0l4.68,4.68h0L24,22.5v0l-4.68-4.67h0ZM24,23.67l2.92,2.93h0l0,0,.52-.52s0,0,0,0l-2.91-2.92h0Zm5.87,5.87.56-.55,0,0v0l0,0-1.12-1.12,0,0-.55.55,0,0s0,0,0,0Z"/><path d="M17.45,51.77V51H29.08v.79h0c.14,0,1.3,0,1.65,0h0V51H34l0,0v-.8s0,0,.06,0h.76c0-.17,0-1.77,0-2.48h-.83V45.13a.21.21,0,0,0-.11,0h-.62a.17.17,0,0,1-.1,0V43.47H32.4V38.49h-.83V36h-.82v-.8s0,0,.06,0h.77v-.81a7.57,7.57,0,0,1,.83,0v.81s.07,0,.11,0h.62a.18.18,0,0,1,.1,0V36h.82s0,.06,0,.09V41h.83v1.64h.82v3.3s0,0,.06,0h.76v0h0V47.6h.83v1.64h.82v2.48l0,0H39s0,0,0,.06v1.59c.17,0,1.87,0,2.48,0h0v-.81h3.31s0,.07,0,.11v.62a.18.18,0,0,0,0,.1h.82v.82h.81c0,.13,0,1.29,0,1.64h-.83v.82h-.81s0,0,0,.06v.76c-.17,0-1.79,0-2.48,0h0v-.81H39.05s0,.07,0,.11v1.33a.41.41,0,0,1,0,.11.41.41,0,0,1,0,.11h-.81l0,0v2.46h-.83v1.62h-.83V66.7a0,0,0,0,0,0,0h-.81s0,0,0,.08V70h-.83v0c0,.69,0,1.46,0,1.63h.81s0,0,0,0h0V74.2H34.06v1.63h-.82a.25.25,0,0,1,0-.12V75H32.4V73.38h.82s0-.06,0-.1V66.73h.83V62.58h.83V60.07h-.82v-.8s0,0-.06,0H32.4v-.82h-5v.81H19.11v-.8l0,0H16.61V57.6H8.31v-.81H1.66V56h0v0H0V55.1H.83V52.62H7.48v-.81h0s0,0,0,0ZM3.33,55.08H10v-.81H3.33Zm7.47,0H15v-.77s0,0,0-.05H10.8Zm8.31,0v-.82H17.45v.78s0,0,0,0h1.66Z"/><path d="M26,79.6,25.44,79h0l8.21-8.21h0c.19.18.37.37.56.56h0c.11-.09.93-.91,1.17-1.16h0l-.56-.56v0l2.33-2.33v0s0,0,0,0l-.55-.55s0,0,0,0l.48-.48.05-.06c-.11-.13-1.24-1.27-1.74-1.76h0l-.56.56h0l-1.74-1.75s-.06.05-.09.07a.46.46,0,0,1-.07.07l-.08.08-.06.07-.08.08-.07.07-.08.07s0,.06-.08.07l-1.15-1.16h0a0,0,0,0,0,0,0l-.55.55h0l-3.49-3.5h0l-.55.55h0l-1.73-1.73h0l-.57.56h0l-.56-.55s0,0,0-.06l.48-.48.06,0v0h0l-.56-.56a6.2,6.2,0,0,1,.58-.59l.58.57s.05,0,.08-.07l.07-.06.08-.08.07-.07.08-.08.06-.07.08-.08s0,0,.08-.06l.57.57h0l0,0,.55-.55s0,0,.07.06L30,60.12l.1.09s.05-.05.08-.07l.09-.09.08-.08.09-.09.07-.07.09-.09.08-.08h0l1.14,1.14h0l.57-.57h0a0,0,0,0,1,0,0l2.32,2.32s0,0,0,0l.48-.48.06,0h0l1.14,1.15h0l.56-.56h0l1.16,1.15h0l0,0,.51-.51h0l1.74,1.74h0l.56-.56s0,0,.06,0c.35.35.7.69,1,1l.08.08c.13-.11,1.33-1.31,1.76-1.75h0c-.18-.19-.37-.38-.56-.56v0L46,60.81s0,0,.08.07l.07.07.08.08.06.07.08.08.07.07.08.07a.14.14,0,0,0,.08.07l.57-.57h0l0,0,.54.54h0l.56-.56h0c.11.09.93.9,1.17,1.15v0h0l-.56.56v0l.56.56s0,0,0,0l0,0-.55.54s0,0,0,.06l.48.48.06,0c-.11.13-1.25,1.28-1.75,1.76h0l-.56-.56h0l-2.34,2.34s0,.06.07.08A.6.6,0,0,1,45,68l.08.08.08.08.08.08.08.07.07.08.08.08.08.08.08.08.08.08.08.07.07.08a.6.6,0,0,1,.08.08A.34.34,0,0,1,46,69l-.58.57v0s0,0,0,0l1.73,1.72h0v0l-.56.55v0h0l1.14,1.13v0h0l-.56.56v0l2.91,2.92v0h0l-.55.55s0,.05,0,.07l2.19,2.19.1.09v0h0l-.55.56v0h0c.49.49,1,1,1.17,1.15l.57-.57h0l1.73,1.73v0l-1.15,1.16v0l0,0,1.13,1.13h0v0l-.57.56a.71.71,0,0,1-.09-.07l-.08-.09L54,85.23l-.09-.09-.08-.08L53.71,85l-.07-.08h0l-.56.56h0l-1.16-1.16s0,0,0,0h0l.56-.56s0,0-.06-.08l-4.52-4.52-.1-.09v0h0l.56-.56v0h0l-2.9-2.91h0l0,0,.52-.53h0l-1.73-1.74h0l-.57.57h0l0,0-.55-.55a.07.07,0,0,0-.05,0l-1,1-.07.08h0l-.56-.56h0l-3.48,3.48,0,0,.58.57s0,0,0,0h0L32.49,83.7h0l-.57-.57h0l0,0-1.71,1.71h0l-.56-.55h0l-5.84,5.85h0l-.56-.56h0l-4.69,4.68h0l-.53-.54h0l-1.16,1.16h0L16,94.3v0h0c.19-.18.37-.37.56-.56h0L14.88,92h0v0h0c1.55-1.56,3.11-3.11,4.67-4.67v0L19,86.66v0a0,0,0,0,0,0,0ZM18.38,91.93h0l4.68-4.68v0l-.57-.57h0l-4.67,4.68v0Zm5.29-5.28,2.93-2.92v0l0,0-.52-.52s0,0,0,0l-2.92,2.91v0Zm5.87-5.87L29,80.22l0,0h0l0,0-1.12,1.12s0,0,0,0l.55.55,0,0h0Z"/></g></g></svg>