<svg xmlns="http://www.w3.org/2000/svg" viewBox="0 0 157.86 106.76"><title>Recurso 151GRAPHS</title><g id="Capa_2" data-name="Capa 2"><g id="Capa_1-2" data-name="Capa 1"><path d="M64.86,81.6,64.5,82H60.83c-.12-.7.48-1.13.62-1.78-.46-.18-.78-.58-1.32-.77a6.27,6.27,0,0,1-1.58-.74A2.73,2.73,0,0,0,57,78c-.07,0-.14-.15-.23-.2-1.79-.89-3.58-1.79-5.39-2.66-.64-.31-1.31-.55-2.08-.87H34v2.41l-.91.34-.57-.74v-2h-22v26l-.91.24c-.23-.22-.4-.4-.57-.57v-8c-.88-.25-1.94.28-2.7-.56a.83.83,0,0,1,.28-1H9V74.25H6.86l-.34-.62-.15.12v-.7c.74-.51,1.59-.2,2.4-.31l.29-.29q0-7.53,0-15.07c0-.28,0-.57-.54-.76s-1.39.22-2.16-.27v-.71l.78-.49H9V39H6.63l-.34-.88c.75-.93,1.78-.47,2.73-.63V21.67H7.19l-.82-.47v-.74l.28-.28h2.1L9,19.87V4.13l-.29-.29H6.53l-.27-.93.92-.53H9.76l.74.43V72.65c.91.15,32.57.21,35.53.06-1.16-.58-2.19-1.12-3.23-1.62-2-1-4.06-1.86-6-2.92a3.65,3.65,0,0,0-1.91-.45c-1.18,0-2.36,0-3.65,0,.51-1.23,1.12-2.32,1.7-3.52V45.13h-1.6v-3.2l-.57-.63.84-.59H32.9V24.59c-.52-.44-1.18-.1-1.64-.37l-.6-.25.76-.44h3.93a.61.61,0,0,1,.26.82H34.12c-.14.13-.23.23-.33.33v16H35.1l.59.58c-.1.48-.38.59-.81.5v1.62l2,1,2.16,1.11c.69.35,1.37.74,2.09,1a16.3,16.3,0,0,1,2.17,1.09c.66.37,1.42.61,2.13.93a21.92,21.92,0,0,1,2.15,1.12c.67.4,1.42.64,2.09,1a17.53,17.53,0,0,0,2.11,1c.74.32,1.34.94,2.19,1a6.46,6.46,0,0,0,2,1.16c.72.36,1.42.8,2.16,1.1s1.37.73,2.16,1.07h1.9V54.13H60.32l.24-.83h1.67V42.81H60.61l-.32-.8h4.88c.17.48-.41.49-.44.8H63.37V53.25h1.28l.6.74,1.24-1.47c.37-.44.78-.84,1.14-1.3.66-.84,1.51-1.54,2.26-2.32.45-.46.85-1,1.26-1.46s1-.84,1.27-1.47c.08-.18.29-.3.44-.45a24.32,24.32,0,0,0,2.52-2.93c0-.06.1-.1.14-.15,1.09-1.16,2.17-2.32,3.26-3.47a17.35,17.35,0,0,0,1.57-1.75c.46-.64,1.18-1,1.55-1.78.07-.14.24-.24.36-.37.82-.88,1.67-1.73,2.44-2.66,1-1.22,2.08-2.35,3.09-3.55.73-.87,1.57-1.63,2.36-2.54V23.13h1.66V8.78c0-.34.11-.71-.35-1H90l-.26-.55L90,7h4.49V7.8h-1.8V23.1h1.18v2.27c1,.77,2,1.55,3,2.31.69.51,1.46.93,2.09,1.5.83.74,1.79,1.28,2.65,2s1.69,1.18,2.49,1.84c1,.83,2.08,1.52,3.14,2.27a7.57,7.57,0,0,1,1,.65A21.5,21.5,0,0,0,111,38c.4.3.82.56,1.22.86s.84.66,1.26,1a7.6,7.6,0,0,0,.81.59c.89.56,1.74,1.2,2.58,1.82s1.41,1.15,2.15,1.67c.33.23.64.49,1,.76h1.1V26.08h-1.5l-.34-.36c0-.51.45-.44.68-.66a4.71,4.71,0,0,0,1.87.14,9,9,0,0,1,1.86.15l.69.29-.68.3c-.49.22-1.16-.14-1.59.28,0,.46.1.81.1,1.16V43.09c0,.11,0,.22,0,.32,0,.39-.11.78-.17,1.2l1.4.27c.12,0-.07-.52.33-.4,1-.7,2.08-1.38,3.11-2.1.65-.46,1.27-1,1.92-1.44.34-.25.73-.44,1.08-.68L132,38.71c.68-.46,1.38-.89,2.06-1.36.49-.34.92-.78,1.44-1.07A33.71,33.71,0,0,0,139,34c1.31-1,2.73-1.77,4-2.79,1-.83,2.18-1.48,3.27-2.2l.49-.34A17.55,17.55,0,0,1,149.23,27V24.38h1.12l.29-.29V8.1l-.27-.27h-1.22a.62.62,0,0,1-.3-.82h4.51V7.8h-1.8V24.36h1.18v3.73h-2.52l-3.47,2.35a6.05,6.05,0,0,0-.91.57,13.67,13.67,0,0,1-2.52,1.75,14,14,0,0,0-1.62,1.15c-1,.82-2.14,1.43-3.18,2.19s-2.14,1.56-3.24,2.29c-.72.48-1.43,1-2.12,1.47A17.7,17.7,0,0,1,131.43,41a9.28,9.28,0,0,0-1.68,1.25,6,6,0,0,1-1.23.82c-1.19.66-2.22,1.54-3.34,2.3-.63.43-1.27.83-1.92,1.26v1.84c-.69,0-1.35,0-2,0s-1.24.24-1.78-.25V46.28a7.79,7.79,0,0,0-2.37-1.81,3.6,3.6,0,0,1-.79-.62c-.68-.6-1.5-1-2.16-1.62a14.51,14.51,0,0,0-1.6-1.2c-.83-.61-1.7-1.16-2.49-1.83-1-.81-2-1.5-3-2.24l-2.18-1.56L101.45,33a1.86,1.86,0,0,1-.32-.23,10.46,10.46,0,0,0-2.24-1.67c-.48-.3-.89-.71-1.36-1s-.77-.68-1.17-1c-.74-.5-1.43-1.07-2.16-1.57L93,26.67h-1c-.88.95-1.83,1.87-2.63,2.89-.47.6-1.08,1.07-1.49,1.69-.67,1-1.78,1.68-2.39,2.77a.5.5,0,0,1-.14.15,13.86,13.86,0,0,0-1.9,1.93c-1.21,1.29-2.34,2.67-3.54,4-.43.47-.87,1-1.29,1.45s-.79.93-1.18,1.39a14.14,14.14,0,0,0-1.14,1.3,10.33,10.33,0,0,1-1.46,1.5,17.84,17.84,0,0,0-1.64,1.83c-.45.63-1.19,1-1.54,1.77,0,.06-.1.1-.15.15-.84.91-1.69,1.81-2.51,2.73a21.88,21.88,0,0,0-2,2.32c-.57.83-1.52,1.29-2,2.23-.08.16-.38.22-.6.34v2.45h-1v13.2H89.64l.38-.39h4.45l.32.41h26.3v-5h-1.53l.1-.14-.66-.36.66-.23-.11-.12h4.22l.36.37-.29.39c-.58.24-1.26-.21-1.82.32a1.79,1.79,0,0,1,.17,1.12v1.15c0,.42.14.91,0,1.23s.29.7-.25,1a3.34,3.34,0,0,0,.65.28,4.42,4.42,0,0,0,.73,0h15.36c.26-.26.54-.56.84-.84a35.91,35.91,0,0,1,2.74-2.5c.83-.63,1.48-1.44,2.27-2.09a57.15,57.15,0,0,0,4.93-4.53c.45-.46.85-1,1.26-1.44V41.44l-.33-.33h-1.61l.22-.79h4.4v.79h-1.84V60.39a2.33,2.33,0,0,0,.34,1.32c.5.83.89,1.72,1.34,2.63H150c-1.35,1.27-2.6,2.57-4,3.71A40.24,40.24,0,0,0,143,71c-.3.3-.9.27-.9.86L141,72.6l.1.12a.18.18,0,0,0,.09,0h16.09l.49.51c.15.5-.25.65-.47.94h-5.37c0,.48,0,.93,0,1.37a1.59,1.59,0,0,1-.52,1.36H151l-.53-.6V74.25H139.24c-.28.28-.62.63-1,1-.93.87-1.82,1.79-2.81,2.58-.63.48-1.16,1.06-1.76,1.57q-2.89,2.49-5.62,5.16a4.17,4.17,0,0,1-1.19,1.09c-.48.21-.8.77-1.21,1.14-1,.89-1.93,1.75-2.93,2.65l.87,1.71s0,0,0,0a.18.18,0,0,1-.09,0h-3.84l.39-.76s-.1-.08-.16-.08a2.82,2.82,0,0,0-1.18.19c-.33.12-.69,0-1.07.19A6.55,6.55,0,0,1,116,91c-.28,0-.67.25-.82.13-.35-.28-.49.27-.82.1a.66.66,0,0,0-.84.18,4,4,0,0,0-1.69.23,20.39,20.39,0,0,0-2.9.58,3.21,3.21,0,0,1-.83,0,2,2,0,0,0-.41.14,2.38,2.38,0,0,0-.56-.13c-.11,0-.22.18-.34.18a20.23,20.23,0,0,0-2.55.42,7,7,0,0,0-1.81.43h-.11c-.76-.16-1.46.27-2.22.22a5.34,5.34,0,0,0-2,.37c-.37.12-.82-.1-1.15.25a10.3,10.3,0,0,0-2.76.41,3.26,3.26,0,0,1-.63,0l.7,1.41h-4L91,94.31C88.76,93.18,86.6,92,84.35,91c-1.57-.68-3.07-1.52-4.64-2.18s-3-1.56-4.54-2.2c-1.87-.77-3.61-1.78-5.45-2.58-1.42-.62-2.79-1.37-4.18-2.07C65.31,81.88,65.09,81.73,64.86,81.6ZM60.62,59.27a1.33,1.33,0,0,0-.76-2c-3.25-1.44-6.3-3.28-9.59-4.63-1.2-.49-2.31-1.16-3.47-1.73l-7.47-3.7-4.28-2.07H33.81V64.45l.49,1c1.19.56,2.37,1.1,3.53,1.66,2.12,1,4.24,2.05,6.38,3,1.06.49,2,1.1,3.15,1.5a16.08,16.08,0,0,1,2.16,1.13H62.24c.13-3,.08-12.27-.07-13.17H60.91Zm60.54,28.94c-.13-4.25.2-8.66-.22-13a8.7,8.7,0,0,1,0-.88H93.07v1.93a1.56,1.56,0,0,0-.42,1.19V93.09c.23.06.6.27.7.18.42-.4,1,0,1.42-.4a26.46,26.46,0,0,0,3.61-.62,16.42,16.42,0,0,1,3-.38,26.62,26.62,0,0,1,3.06-.47c.34-.39.83-.13,1.24-.29A6.19,6.19,0,0,1,107,91c.42,0,.85-.14,1.27-.2a7,7,0,0,0,1.68-.24,15.1,15.1,0,0,1,2.8-.56,7.44,7.44,0,0,1,2.41-.27c.24,0,.5-.14.75-.18s.56,0,.82-.07a14,14,0,0,1,1.73-.37,3.67,3.67,0,0,0,1.55-.25C120.34,88.61,120.86,88.93,121.16,88.21ZM91.56,74.26H63.32c0,1.36,0,2.68,0,4a1.64,1.64,0,0,0,.48,1.37c.71.24,1.44.65,2.21,1,1.77.77,3.46,1.73,5.24,2.5,1.51.65,2.94,1.48,4.45,2.14,1.77.78,3.5,1.66,5.25,2.51,1.13.54,2.27,1.09,3.36,1.74.44.25,1,.34,1.44.55s.91.49,1.37.73c.14.08.3.13.44.2s.53.26.78.4a4.13,4.13,0,0,0,1,.57,16.41,16.41,0,0,1,1.78.76l.67.19V91.77c0-3.7,0-7.4,0-11.1C91.86,78.54,91.63,76.42,91.56,74.26Zm30.91,0c-.1,1.23-.25,2.38-.27,3.54,0,2.93,0,5.86,0,8.79,0,.35.09.71-.18,1l.27.27a4.07,4.07,0,0,1,.46-.63c.44-.41.93-.78,1.38-1.19,1.19-1.1,2.36-2.22,3.54-3.33.08-.07.14-.19.23-.21.56-.17.82-.7,1.24-1s.9-.72,1.32-1.11c1.19-1.1,2.38-2.2,3.53-3.34.18-.18.5-.11.6-.46s.51-.32.63-.56a4.63,4.63,0,0,1,2-1.7ZM62.28,78.83a6.64,6.64,0,0,0-.22-2.52A3,3,0,0,1,62,74.23H53s-.06,0-.08.06,0,0,0,0c.81.38,1.57.81,2.35,1.19s1.52.7,2.28,1.05,1.54.83,2.32,1.21S61.42,78.45,62.28,78.83Zm1.06-22.65,1.68-2H63.34Z"/><path d="M9.64,100.52l0,0L9,99.93a.08.08,0,0,1,0,0v-8a3.24,3.24,0,0,0-.94-.06,2,2,0,0,1-1.74-.51v0a.91.91,0,0,1,.3-1H9v-16H6.86a.05.05,0,0,1-.05,0l-.31-.56-.1.08a0,0,0,0,1-.06,0,.09.09,0,0,1,0,0v-.7s0,0,0,0A2.5,2.5,0,0,1,8,72.7a4.17,4.17,0,0,0,.79,0L9,72.42V57.32c0-.26,0-.49-.5-.65a2.39,2.39,0,0,0-.6,0,2.4,2.4,0,0,1-1.57-.28s0,0,0,0v-.71a.05.05,0,0,1,0,0l.78-.48H9v-16H6.63a.05.05,0,0,1,0,0l-.34-.88s0,0,0,0a2,2,0,0,1,1.88-.62,4.58,4.58,0,0,0,.83,0V21.72H7.16l-.82-.48a.05.05,0,0,1,0,0v-.74a.06.06,0,0,1,0,0l.29-.28H8.73L9,19.85V4.15l-.26-.26H6.53s0,0,0,0l-.27-.94s0,0,0-.06l.92-.53H9.78l.74.44a.05.05,0,0,1,0,0V72.6c1.58.16,31.32.21,35.28.07l-.9-.46-2.15-1.08-2.11-1c-1.3-.6-2.63-1.22-3.91-1.92a3.56,3.56,0,0,0-1.89-.44c-.83,0-1.65,0-2.51,0H31.22s0,0,0,0a0,0,0,0,1,0-.05c.34-.83.72-1.57,1.12-2.36.19-.37.39-.76.58-1.15v-19H31.32a.06.06,0,0,1-.06,0V42l-.55-.61s0,0,0,0a.05.05,0,0,1,0,0l.84-.6h1.28v-16a1.3,1.3,0,0,0-.89-.22,1.35,1.35,0,0,1-.72-.13L30.64,24s0,0,0,0a.08.08,0,0,1,0-.05l.77-.44h4a.64.64,0,0,1,.27.88s0,0,0,0H34.14l-.3.3V40.6H35.1l0,0,.58.58a.08.08,0,0,1,0,0,.75.75,0,0,1-.27.48.72.72,0,0,1-.54.07v1.53l.57.28,1.43.7,1.13.59,1,.52.57.29a14.14,14.14,0,0,0,1.52.73,17.7,17.7,0,0,1,2.18,1.09,9.7,9.7,0,0,0,1.27.58c.28.11.57.23.85.36a21.6,21.6,0,0,1,2.16,1.11,9.07,9.07,0,0,0,1.08.54c.33.15.68.3,1,.49a14.77,14.77,0,0,0,1.71.81l.39.17a5.75,5.75,0,0,1,.77.42,3.41,3.41,0,0,0,1.41.6h0a4.08,4.08,0,0,0,1.46.89l.56.26.75.4a13.2,13.2,0,0,0,1.41.7,10.16,10.16,0,0,1,1.1.54,11.41,11.41,0,0,0,1,.52H62.2V54.18H60.32l0,0a.07.07,0,0,1,0,0l.24-.82s0,0,.05,0h1.62V42.87H60.61a.07.07,0,0,1,0,0l-.32-.8a.11.11,0,0,1,0-.05l0,0h4.88a.07.07,0,0,1,0,0c.11.31-.08.45-.24.57s-.19.14-.2.24a0,0,0,0,1,0,0H63.42V53.2h1.23l0,0,.56.69.39-.46.81-1c.15-.18.31-.36.47-.53s.45-.5.67-.77A15.62,15.62,0,0,1,69,49.69c.28-.27.56-.55.83-.83s.62-.69.91-1l.35-.42c.15-.17.32-.32.48-.47a3,3,0,0,0,.79-1,1,1,0,0,1,.3-.34l.14-.12a22.79,22.79,0,0,0,2.51-2.93l.1-.11.06-.05,1-1.08c.73-.78,1.49-1.59,2.25-2.38.1-.12.21-.23.32-.34a12.89,12.89,0,0,0,1.24-1.41,4.78,4.78,0,0,1,.68-.74,3.9,3.9,0,0,0,.86-1,1.18,1.18,0,0,1,.24-.26,1.59,1.59,0,0,0,.13-.13l.74-.78c.57-.6,1.16-1.23,1.7-1.88s1.12-1.3,1.67-1.93,1-1.06,1.42-1.61.82-.91,1.26-1.37.73-.75,1.09-1.16V23.13a0,0,0,0,1,.05-.05h1.61V8.62a.67.67,0,0,0-.32-.76H90s0,0,0,0l-.27-.55a.07.07,0,0,1,0-.06L90,7l0,0h4.49a0,0,0,0,1,.05,0V7.8a0,0,0,0,1-.05,0H92.75v15.2h1.12a.05.05,0,0,1,0,.05v2.24l.89.68c.69.53,1.41,1.08,2.13,1.61.26.2.53.38.8.55a12.1,12.1,0,0,1,1.3,1,14.71,14.71,0,0,0,1.5,1.13c.38.27.77.54,1.14.84s.78.59,1.17.86.9.63,1.32,1c.72.6,1.51,1.14,2.27,1.66l.87.61.37.23a2.7,2.7,0,0,1,.62.42,11,11,0,0,0,1.8,1.42l.91.64.61.43.6.42c.26.19.51.4.75.6l.52.4.11.09c.22.17.44.35.68.5.8.49,1.56,1.06,2.29,1.6l.3.22c.33.24.65.5,1,.75s.78.63,1.19.92l.67.5.32.25h1V26.13h-1.49l-.34-.36s0,0,0,0c0-.37.21-.47.42-.55a.7.7,0,0,0,.27-.15.07.07,0,0,1,.06,0,2.68,2.68,0,0,0,1.29.15,5.19,5.19,0,0,1,.56,0h.4a6.12,6.12,0,0,1,1.47.14l.7.29a.06.06,0,0,1,0,.1l-.68.3a1.54,1.54,0,0,1-.71.07,1.12,1.12,0,0,0-.85.18c0,.15,0,.28,0,.4a6.88,6.88,0,0,1,.06.74V43.19a.81.81,0,0,1,0,.22c0,.29-.07.57-.12.86l0,.29,1.33.26s0-.07,0-.11,0-.21.1-.27a.27.27,0,0,1,.22,0l.91-.61c.72-.48,1.46-1,2.18-1.47.35-.25.71-.53,1-.79l.87-.66c.18-.13.38-.24.57-.36l.51-.31,1.06-.75,1.12-.8,1-.65,1.07-.71.57-.44a5.66,5.66,0,0,1,.88-.64A33.38,33.38,0,0,0,138.85,34l.09-.06c.54-.39,1.09-.76,1.63-1.12.79-.52,1.61-1.07,2.36-1.67a24.3,24.3,0,0,1,2.25-1.55c.34-.21.69-.43,1-.66l0,0c.15-.1.31-.2.45-.31A17.6,17.6,0,0,1,149.18,27V24.38a.05.05,0,0,1,0-.05h1.1l.26-.26V8.12l-.24-.24h-1.23A.66.66,0,0,1,148.8,7a0,0,0,0,1,0,0h4.51a.05.05,0,0,1,0,0V7.8a.05.05,0,0,1,0,0h-1.75V24.31h1.13a0,0,0,0,1,0,.05v3.73a0,0,0,0,1,0,.05h-2.51l-1,.7-2.42,1.64a2.22,2.22,0,0,1-.37.21,2.56,2.56,0,0,0-.53.35,12.17,12.17,0,0,1-2.27,1.61l-.26.16A13.79,13.79,0,0,0,141.74,34a21.42,21.42,0,0,1-1.89,1.32c-.43.28-.88.56-1.3.87l-.6.43c-.86.63-1.74,1.27-2.64,1.87-.65.42-1.4.92-2.12,1.46A16.58,16.58,0,0,1,131.46,41a9.65,9.65,0,0,0-1.68,1.25,6.48,6.48,0,0,1-1.23.83,19.13,19.13,0,0,0-2.17,1.46c-.38.28-.78.57-1.17.84l-1.31.86-.59.38v1.81a.05.05,0,0,1,0,0h-.63c-.47,0-.92,0-1.37,0a3.29,3.29,0,0,0-.54,0,1.49,1.49,0,0,1-1.27-.28.05.05,0,0,1,0,0V46.3a7.91,7.91,0,0,0-2.34-1.79,2.57,2.57,0,0,1-.66-.49l-.15-.13a7.5,7.5,0,0,0-1-.76,8.51,8.51,0,0,1-1.14-.86A9.34,9.34,0,0,0,113,41.4c-.16-.11-.32-.21-.47-.33l-.76-.54c-.58-.4-1.18-.82-1.74-1.29s-1.43-1.11-2.16-1.62c-.3-.2-.59-.41-.88-.62l-1.14-.81-1-.75-2.08-1.5L101.42,33a.47.47,0,0,0-.12-.07,1.06,1.06,0,0,1-.21-.16,8.42,8.42,0,0,0-1.91-1.46l-.32-.2a8.19,8.19,0,0,1-.73-.55,7.57,7.57,0,0,0-.63-.49,5.58,5.58,0,0,1-.6-.49,5.92,5.92,0,0,0-.57-.45c-.38-.26-.76-.55-1.13-.82s-.68-.52-1-.76L93.33,27l-.4-.26h-1l-.77.82c-.63.65-1.27,1.32-1.84,2a9.24,9.24,0,0,1-.66.73,6.56,6.56,0,0,0-.82.95,8.36,8.36,0,0,1-1.14,1.3,6.38,6.38,0,0,0-1.25,1.48.49.49,0,0,1-.16.16,8.31,8.31,0,0,0-1.4,1.38l-.49.54c-.64.69-1.27,1.4-1.87,2.1s-1.1,1.27-1.67,1.89c-.39.42-.81.89-1.29,1.44l-.78.91-.4.48c-.14.16-.29.32-.43.46a7.32,7.32,0,0,0-.71.84,5.73,5.73,0,0,1-1,1l-.48.46-.15.15a14.91,14.91,0,0,0-1.49,1.67,4.58,4.58,0,0,1-.67.72,3.84,3.84,0,0,0-.87,1.05.35.35,0,0,1-.1.11l-.05,0-.73.78c-.59.64-1.2,1.29-1.79,2-.16.18-.33.37-.51.55A16.6,16.6,0,0,0,67,54.55a6,6,0,0,1-.88.94A4.13,4.13,0,0,0,65,56.77c-.06.13-.23.2-.4.27l-.2.08v2.42a0,0,0,0,1,0,.05h-.94V72.68h26.2l.36-.36,0,0h4.45l0,0,.3.39H121v-4.9h-1.48a.05.05,0,0,1,0,0s0,0,0,0l.06-.1-.61-.32s0,0,0,0a.05.05,0,0,1,0-.05l.59-.2-.06-.07s0,0,0-.06a.09.09,0,0,1,0,0h4.22l0,0,.36.38a0,0,0,0,1,0,.06l-.29.39,0,0a1.72,1.72,0,0,1-.78.06,1.22,1.22,0,0,0-1,.22,1.39,1.39,0,0,1,.16.87,1.93,1.93,0,0,0,0,.24v1.15a2.66,2.66,0,0,0,0,.39,1.57,1.57,0,0,1-.07.87.52.52,0,0,0,0,.37.47.47,0,0,1-.17.58l.14.07a1.85,1.85,0,0,0,.4.16,2,2,0,0,0,.49,0h15.57l.22-.23q.28-.3.6-.6l.75-.71a22.61,22.61,0,0,1,2-1.79,12.14,12.14,0,0,0,1.24-1.13c.33-.32.67-.66,1-1a59.38,59.38,0,0,0,4.92-4.52c.31-.32.6-.66.87-1,.13-.15.25-.3.38-.44V41.46l-.31-.3h-1.58l0,0a.09.09,0,0,1,0,0l.21-.78a.05.05,0,0,1,.06,0h4.4a.05.05,0,0,1,0,0v.79a.05.05,0,0,1,0,0h-1.79V60.39a2.36,2.36,0,0,0,.34,1.3c.35.58.64,1.18,1,1.82.12.27.25.53.39.8a0,0,0,0,1,0,0,.05.05,0,0,1-.05,0H150l-1.19,1.15c-.93.9-1.81,1.75-2.78,2.55a34.06,34.06,0,0,0-2.61,2.47L143,71a1.23,1.23,0,0,1-.38.24c-.27.12-.5.23-.49.58a.05.05,0,0,1,0,0l-1,.73,0,0,0,.05.06,0h16.13l.49.51v0a.68.68,0,0,1-.28.78,1.3,1.3,0,0,0-.19.22l-.05,0H152c0,.13,0,.26,0,.38,0,.32,0,.62,0,.93a1.65,1.65,0,0,1-.55,1.4l0,0H151l0,0-.53-.61a0,0,0,0,1,0,0v-2H139.26l-.25.26c-.21.21-.45.46-.7.69l-.74.7c-.66.64-1.35,1.3-2.08,1.88a12.87,12.87,0,0,0-1,.91c-.23.22-.47.45-.72.66-1.87,1.6-3.76,3.34-5.62,5.16-.11.11-.2.22-.31.34a2.61,2.61,0,0,1-.9.76,2.39,2.39,0,0,0-.78.69,4.27,4.27,0,0,1-.41.44c-.68.63-1.36,1.23-2.07,1.88l-.83.74.84,1.66s0,0,0,0,0,.1,0,.1a.17.17,0,0,1-.12.06h-3.84s0,0,0,0a.07.07,0,0,1,0,0l.37-.71h0a.21.21,0,0,0-.1,0,2.94,2.94,0,0,0-1.15.19,1.62,1.62,0,0,1-.49.08,1.53,1.53,0,0,0-.58.11,3.59,3.59,0,0,1-1.14.2A5.11,5.11,0,0,0,116,91a2.14,2.14,0,0,0-.32.08c-.22.07-.43.14-.54,0s-.26-.06-.38,0a.39.39,0,0,1-.43.08.61.61,0,0,0-.78.16.05.05,0,0,1,0,0,3.51,3.51,0,0,0-1.51.17l-.16.05a9.85,9.85,0,0,1-1.19.2,7.09,7.09,0,0,0-1.7.38,1.28,1.28,0,0,1-.52,0h-.32a1.4,1.4,0,0,0-.29.09l-.11,0h0l-.18,0a1.29,1.29,0,0,0-.38-.08h0s-.08,0-.13.08a.41.41,0,0,1-.19.11,17.52,17.52,0,0,0-2.19.34l-.36.08-.53.08a4,4,0,0,0-1.27.33.23.23,0,0,1-.14,0,2.72,2.72,0,0,0-1.2.09,3.37,3.37,0,0,1-1,.13,5.27,5.27,0,0,0-2,.37,1.44,1.44,0,0,1-.46,0,.85.85,0,0,0-.67.19s0,0,0,0a6.32,6.32,0,0,0-2,.25c-.25.06-.5.12-.75.16a2,2,0,0,1-.42,0h-.13l.66,1.34a0,0,0,0,1,0,0,.05.05,0,0,1,0,0h-4s0,0,0,0a.07.07,0,0,1,0,0l.82-1.61-2-1c-1.5-.78-3.06-1.58-4.64-2.26-.76-.33-1.51-.7-2.24-1.06s-1.59-.78-2.4-1.13-1.51-.7-2.22-1.07-1.53-.79-2.32-1.12c-1-.41-2-.91-3-1.39s-1.66-.83-2.5-1.2c-1-.44-2-.95-3-1.45L65.52,82c-.16-.08-.31-.17-.47-.27l-.19-.11-.33.33,0,0H60.83a0,0,0,0,1,0-.05,1.53,1.53,0,0,1,.31-1.09,2.63,2.63,0,0,0,.3-.66,2.64,2.64,0,0,1-.55-.34,3.14,3.14,0,0,0-.72-.41,6.3,6.3,0,0,1-1.6-.75l-.08-.06A2.65,2.65,0,0,0,57,78c-.06,0-.11-.06-.16-.11s-.06-.08-.09-.09l-.93-.46c-1.46-.73-3-1.48-4.46-2.2-.43-.21-.88-.39-1.36-.58l-.71-.29H34.05v2.36a0,0,0,0,1,0,0l-.9.35s0,0-.06,0l-.57-.75a0,0,0,0,1,0,0V74.33H10.6v25.89a.07.07,0,0,1,0,0l-.91.24Zm-.52-.65.53.53.84-.22V74.27a.06.06,0,0,1,.06,0h22a0,0,0,0,1,0,0v2l.54.7.83-.32V74.26a.06.06,0,0,1,.06-.05H49.27l.72.29c.48.19.93.37,1.37.58,1.49.72,3,1.48,4.46,2.2l.93.46a.46.46,0,0,1,.12.12.29.29,0,0,0,.08.08h0a2.63,2.63,0,0,1,1.55.63l.08.05a6.09,6.09,0,0,0,1.57.74,3,3,0,0,1,.75.43,2.77,2.77,0,0,0,.57.34s0,0,0,.06a2.66,2.66,0,0,1-.32.73,1.59,1.59,0,0,0-.31,1h3.6l.35-.34s0,0,.06,0l.22.13c.16.1.31.19.47.27l1.18.6c1,.5,2,1,3,1.46.85.37,1.69.79,2.5,1.2,1,.48,1.94,1,3,1.38.79.33,1.57.73,2.32,1.12s1.46.76,2.22,1.08,1.63.74,2.41,1.13,1.48.72,2.23,1c1.58.68,3.14,1.49,4.65,2.27l2,1s0,0,0,0a.06.06,0,0,1,0,0l-.79,1.58h3.86l-.66-1.34a0,0,0,0,1,0,0s0,0,0,0h.22a1.75,1.75,0,0,0,.4,0l.74-.16a6.77,6.77,0,0,1,2-.26,1,1,0,0,1,.73-.2,1.53,1.53,0,0,0,.43,0,5.28,5.28,0,0,1,2.06-.37,3.62,3.62,0,0,0,1-.13,2.87,2.87,0,0,1,1.24-.09h.07a4.09,4.09,0,0,1,1.31-.34c.17,0,.35-.05.52-.09l.36-.07a15.77,15.77,0,0,1,2.2-.35.29.29,0,0,0,.14-.08c.06,0,.12-.11.19-.11h0a1.44,1.44,0,0,1,.4.09l.16,0,.08,0a1.15,1.15,0,0,1,.33-.1,1.93,1.93,0,0,1,.34,0,1,1,0,0,0,.47,0,7,7,0,0,1,1.72-.38,7.88,7.88,0,0,0,1.18-.21l.16,0a3.72,3.72,0,0,1,1.52-.18.71.71,0,0,1,.89-.17c.12.06.21,0,.33-.07a.38.38,0,0,1,.51,0c.07.06.26,0,.44-.06a2.25,2.25,0,0,1,.33-.08,5.54,5.54,0,0,1,.56,0,3.36,3.36,0,0,0,1.11-.2,1.75,1.75,0,0,1,.62-.12,1.63,1.63,0,0,0,.45-.07,2.83,2.83,0,0,1,1.2-.19.34.34,0,0,1,.14,0l0,0s0,0,0,0a0,0,0,0,1,0,0l-.35.68h3.75s0,0,0,0l-.86-1.68a.06.06,0,0,1,0-.07l.86-.77c.71-.64,1.39-1.25,2.07-1.88a5.49,5.49,0,0,0,.4-.43,2.65,2.65,0,0,1,.82-.72,2.48,2.48,0,0,0,.86-.73,3.47,3.47,0,0,1,.32-.34c1.86-1.83,3.75-3.57,5.62-5.17.25-.21.49-.44.72-.66s.67-.63,1-.92c.73-.57,1.42-1.23,2.08-1.86l.74-.71c.24-.22.48-.47.69-.69a3.44,3.44,0,0,0,.27-.27h11.25a0,0,0,0,1,.05,0v2.07l.5.57h.4a1.54,1.54,0,0,0,.49-1.31c0-.3,0-.61,0-.93,0-.14,0-.29,0-.44a.05.05,0,0,1,.05,0h5.35a1.8,1.8,0,0,1,.19-.2c.18-.18.34-.34.25-.66l-.46-.49H141.2a.18.18,0,0,1-.12,0,.17.17,0,0,1-.06-.06l-.05-.07s0,0,0,0,0,0,0,0l1-.75c0-.4.3-.54.55-.66a1.14,1.14,0,0,0,.36-.21l.44-.45A34.48,34.48,0,0,1,146,68c1-.79,1.84-1.65,2.77-2.55.39-.38.8-.78,1.21-1.16l0,0h3.11l-.36-.72c-.31-.64-.6-1.24-.94-1.82a2.46,2.46,0,0,1-.36-1.35q0-7.38,0-14.76V41.11a0,0,0,0,1,.05,0h1.78v-.69H149l-.19.68h1.54l0,0,.34.33a.06.06,0,0,1,0,0V61.36a0,0,0,0,1,0,0l-.38.45c-.28.34-.57.68-.88,1a61.28,61.28,0,0,1-4.93,4.53c-.36.3-.7.63-1,.95a12.46,12.46,0,0,1-1.26,1.14,25.8,25.8,0,0,0-2,1.78l-.75.72-.59.59-.24.25H123.06a2.27,2.27,0,0,1-.52,0,1.29,1.29,0,0,1-.43-.17l-.23-.11a.05.05,0,0,1,0,0s0,0,0,0c.29-.15.25-.32.21-.52a.56.56,0,0,1,0-.44,1.54,1.54,0,0,0,0-.81c0-.13,0-.27,0-.4v-1.4A1.24,1.24,0,0,0,122,68s0-.06,0-.07a1.26,1.26,0,0,1,1.11-.28,1.74,1.74,0,0,0,.72-.05l.25-.34-.31-.33h-4.08l0,0s0,0,0,0,0,0,0,0l-.55.19.56.3,0,0s0,0,0,.05l0,0h1.43a.06.06,0,0,1,0,.06v5a0,0,0,0,1,0,0H94.79l-.05,0-.3-.39H90l-.37.37,0,0H63.37a0,0,0,0,1,0-.05V59.54a0,0,0,0,1,0,0h.94v-2.4s0,0,0,0l.23-.11c.15-.06.3-.12.34-.22A4.34,4.34,0,0,1,66,55.41a5.36,5.36,0,0,0,.86-.92,16.9,16.9,0,0,1,1.5-1.77l.51-.55c.59-.66,1.2-1.31,1.79-2l.72-.78.06-.06s.07-.05.08-.08a3.69,3.69,0,0,1,.89-1.07,5.55,5.55,0,0,0,.66-.71,14.26,14.26,0,0,1,1.5-1.69l.15-.14c.15-.16.32-.31.48-.46a5.54,5.54,0,0,0,1-1,6.78,6.78,0,0,1,.73-.85l.42-.45.4-.48.78-.92c.48-.55.9-1,1.29-1.44.57-.62,1.13-1.27,1.67-1.89s1.23-1.41,1.87-2.1l.49-.54a8.5,8.5,0,0,1,1.42-1.39.53.53,0,0,0,.13-.13,6.57,6.57,0,0,1,1.26-1.51,7.6,7.6,0,0,0,1.13-1.27,6,6,0,0,1,.84-1c.22-.23.45-.47.65-.72.57-.73,1.21-1.4,1.84-2.06l.79-.83,0,0H93l.4.27.85.57c.35.24.7.5,1,.75s.75.56,1.13.82a4.78,4.78,0,0,1,.58.47c.19.16.38.33.59.48s.43.32.63.48a6.64,6.64,0,0,0,.73.55l.32.2a8.55,8.55,0,0,1,1.93,1.48.7.7,0,0,0,.19.13l.12.08,1.31,1,2.08,1.5,1,.74,1.14.82.88.62c.73.51,1.48,1,2.17,1.62s1.15.88,1.73,1.29l.76.54.47.32a9.52,9.52,0,0,1,1.13.88,8.15,8.15,0,0,0,1.13.85,9.51,9.51,0,0,1,1,.77l.16.14a2.31,2.31,0,0,0,.62.47,8,8,0,0,1,2.39,1.82s0,0,0,0v1.9a1.44,1.44,0,0,0,1.19.23,3.37,3.37,0,0,1,.55,0c.45,0,.89,0,1.36,0h.57V46.62s0,0,0,0l.61-.4,1.31-.86c.39-.27.78-.56,1.16-.84A21.79,21.79,0,0,1,128.49,43a5.8,5.8,0,0,0,1.22-.82,9.36,9.36,0,0,1,1.7-1.25c.59-.36,1.17-.72,1.72-1.13.72-.54,1.47-1,2.12-1.47.9-.59,1.78-1.24,2.64-1.86l.6-.44c.42-.3.87-.59,1.3-.87a21.81,21.81,0,0,0,1.88-1.31,13.64,13.64,0,0,1,1.62-1.15l.27-.16A11.86,11.86,0,0,0,145.8,31a2.43,2.43,0,0,1,.57-.37l.35-.2,2.42-1.65,1.05-.71h2.5V24.41h-1.13a0,0,0,0,1-.05-.05V7.8a0,0,0,0,1,.05,0h1.74V7.06h-4.42a.55.55,0,0,0,.28.71h1.21l0,0,.27.27a.05.05,0,0,1,0,0v16a.08.08,0,0,1,0,0l-.29.29,0,0h-1.07V27a.05.05,0,0,1,0,.05,18.32,18.32,0,0,0-2.5,1.64c-.14.11-.3.22-.45.32l0,0c-.34.23-.69.45-1,.66A23.91,23.91,0,0,0,143,31.22c-.76.61-1.58,1.15-2.37,1.68-.54.36-1.1.73-1.63,1.11l-.09.07a33.53,33.53,0,0,1-3.34,2.24,7.7,7.7,0,0,0-.87.63,6.17,6.17,0,0,1-.57.44l-1.07.72c-.33.21-.66.42-1,.65l-1.12.79-1.06.76-.52.31a6.65,6.65,0,0,0-.56.36c-.3.21-.59.44-.87.66s-.69.53-1,.78c-.72.5-1.46,1-2.18,1.48l-.93.62h0a.16.16,0,0,0-.15,0s0,.11-.06.19,0,.19-.09.21h0l-1.4-.27a.07.07,0,0,1,0-.06l0-.35.12-.85V40.09q0-6.36,0-12.71a6.56,6.56,0,0,0,0-.73c0-.13,0-.27,0-.42a.05.05,0,0,1,0,0A1.11,1.11,0,0,1,123,26a1.48,1.48,0,0,0,.67-.07l.57-.25-.58-.24a7,7,0,0,0-1.44-.14h-.4a5.19,5.19,0,0,0-.56,0,2.89,2.89,0,0,1-1.3-.14.74.74,0,0,1-.28.14c-.2.08-.38.15-.36.44l.31.33h1.48a.06.06,0,0,1,.06,0V44.66a.06.06,0,0,1-.06.06H120l-.33-.26-.67-.51c-.41-.29-.81-.61-1.19-.92l-1-.74-.3-.23c-.73-.54-1.49-1.1-2.28-1.59a6,6,0,0,1-.7-.51l-.11-.08-.51-.41c-.24-.2-.5-.4-.75-.59s-.4-.29-.6-.42-.42-.28-.62-.44-.6-.43-.9-.63A12.3,12.3,0,0,1,108.22,36a2.3,2.3,0,0,0-.59-.41c-.13-.08-.26-.15-.38-.24l-.87-.6A28.16,28.16,0,0,1,104.11,33c-.42-.35-.88-.66-1.32-1s-.79-.56-1.17-.87-.76-.57-1.14-.83A14.94,14.94,0,0,1,99,29.22a10,10,0,0,0-1.29-.95c-.27-.18-.54-.36-.8-.55-.72-.53-1.44-1.08-2.14-1.62l-.9-.69a.05.05,0,0,1,0,0V23.16H92.69a.06.06,0,0,1,0-.06V7.8a.05.05,0,0,1,0,0h1.75V7.07H90l-.21.2.24.49h1.43a.77.77,0,0,1,.39.85c0,.05,0,.11,0,.16q0,5.52,0,11v3.31a.06.06,0,0,1-.06.05H90.2v3.14s0,0,0,0c-.36.41-.74.8-1.1,1.17s-.86.9-1.26,1.37-1,1.09-1.42,1.61-1.13,1.27-1.67,1.93-1.13,1.28-1.7,1.88c-.25.26-.5.52-.74.79l-.14.13a.65.65,0,0,0-.21.23,4,4,0,0,1-.89,1.06,5.1,5.1,0,0,0-.67.72,13.14,13.14,0,0,1-1.24,1.42l-.33.34-2.25,2.38-1,1.08-.06.06-.08.09a23,23,0,0,1-2.53,2.94.64.64,0,0,1-.15.13,1.06,1.06,0,0,0-.27.3,2.9,2.9,0,0,1-.81,1,5.21,5.21,0,0,0-.47.47l-.35.42c-.29.35-.59.71-.91,1s-.56.55-.84.82a14.39,14.39,0,0,0-1.42,1.5c-.22.27-.45.52-.68.77l-.46.53-.81.95-.43.52,0,0h0l0,0-.58-.72H63.37a.06.06,0,0,1,0-.06V42.81a0,0,0,0,1,0-.05h1.32a.53.53,0,0,1,.23-.28c.15-.1.27-.19.21-.41H60.37l.27.69h1.59a.05.05,0,0,1,.05.05V53.3a0,0,0,0,1-.05.05H60.6l-.21.72h1.86a.06.06,0,0,1,0,.06V56a.05.05,0,0,1,0,.05H60.33a11.85,11.85,0,0,1-1.07-.53c-.37-.19-.72-.38-1.09-.53a14.46,14.46,0,0,1-1.42-.71c-.24-.13-.5-.27-.75-.39l-.56-.26A4.23,4.23,0,0,1,54,52.7a3.4,3.4,0,0,1-1.43-.61,8.09,8.09,0,0,0-.76-.42l-.39-.16a14.29,14.29,0,0,1-1.73-.82c-.32-.18-.66-.34-1-.49a8.48,8.48,0,0,1-1.09-.54,22.43,22.43,0,0,0-2.15-1.11c-.27-.13-.56-.24-.84-.35a11.43,11.43,0,0,1-1.28-.59,16.25,16.25,0,0,0-2.17-1.08,13.43,13.43,0,0,1-1.53-.73L39,45.51,38,45c-.37-.2-.75-.39-1.13-.58l-1.43-.71-.6-.29a.05.05,0,0,1,0,0V41.73a.08.08,0,0,1,0,0h0a.66.66,0,0,0,.52,0,.57.57,0,0,0,.22-.38l-.55-.54H33.79a.06.06,0,0,1-.06-.06v-16l0,0,.33-.33,0,0h1.45c.14-.32,0-.51-.24-.7H31.44l-.66.37.5.21a1.48,1.48,0,0,0,.67.12,1.38,1.38,0,0,1,1,.26.05.05,0,0,1,0,0V40.71a.05.05,0,0,1-.05,0H31.61l-.78.55.53.59v3.18h1.55a.06.06,0,0,1,.06.05V64.21s0,0,0,0c-.19.39-.39.78-.58,1.16-.39.76-.76,1.49-1.09,2.28h1.06c.86,0,1.68,0,2.51,0a3.68,3.68,0,0,1,1.94.45c1.27.69,2.61,1.32,3.9,1.92.7.32,1.41.66,2.11,1s1.42.7,2.16,1.08l1.07.54a0,0,0,0,1,0,.06,0,0,0,0,1,0,0c-3,.16-34.59.1-35.54-.06a.05.05,0,0,1-.05,0V2.84l-.7-.41H7.19l-.87.5.25.86H8.79l.29.29s0,0,0,0V19.87a.06.06,0,0,1,0,0l-.29.31H6.67l-.25.25v.69l.78.45H9a.05.05,0,0,1,.05.05V37.53a0,0,0,0,1-.05,0,5.31,5.31,0,0,1-.89,0,1.9,1.9,0,0,0-1.78.55l.32.82H9a0,0,0,0,1,.05,0V55.15a.06.06,0,0,1-.05.06H7.16l-.74.46v.65a2.35,2.35,0,0,0,1.49.24,3.31,3.31,0,0,1,.63,0c.59.2.58.5.58.76V72.45l0,0-.3.3s0,0,0,0a5.73,5.73,0,0,1-.83,0,2.35,2.35,0,0,0-1.52.27v.56l.06,0h0l0,0,.33.6H9a0,0,0,0,1,.05,0V90.38a0,0,0,0,1-.05.05H6.67a.76.76,0,0,0-.25.87,1.89,1.89,0,0,0,1.65.47,3.1,3.1,0,0,1,1,.07,0,0,0,0,1,0,0Zm84.15-6.53a1.15,1.15,0,0,1-.4-.12l-.23-.08a.05.05,0,0,1,0,0V89.78c0-4.26,0-8.27,0-12.38A1.59,1.59,0,0,1,93,76.19V74.28a.06.06,0,0,1,0-.06h27.86a.06.06,0,0,1,.06.06c0,.08,0,.17,0,.26a4.14,4.14,0,0,0,0,.61,79.06,79.06,0,0,1,.21,8.12c0,1.62,0,3.31,0,4.93,0,0,0,0,0,0a.8.8,0,0,1-.81.55,1.07,1.07,0,0,0-.4.1,2.33,2.33,0,0,1-1.2.24l-.38,0a7.63,7.63,0,0,0-1.28.25l-.44.11a1.79,1.79,0,0,1-.46,0l-.36,0a1.14,1.14,0,0,0-.3.09,1.27,1.27,0,0,1-.46.1,6.79,6.79,0,0,0-2.25.22l-.15,0c-.33.07-.66.11-1,.16a7.09,7.09,0,0,0-1.8.4,3.46,3.46,0,0,1-1.12.19,5.25,5.25,0,0,0-.57,0l-.57.09L107,91a3.87,3.87,0,0,1-.48,0,2.61,2.61,0,0,0-.81.1,1.54,1.54,0,0,1-.52.06.76.76,0,0,0-.7.22.05.05,0,0,1,0,0,7.07,7.07,0,0,0-1.78.24,10.69,10.69,0,0,1-1.28.22c-.24,0-.48,0-.73.06a11.21,11.21,0,0,0-2.23.32,17,17,0,0,1-2.64.49l-1,.13a.85.85,0,0,1-.74.22.87.87,0,0,0-.67.16A.12.12,0,0,1,93.27,93.34Zm-.57-.29.21.08c.14.05.36.14.4.1a1,1,0,0,1,.74-.2c.26,0,.5,0,.67-.19a.05.05,0,0,1,0,0l1-.14a17,17,0,0,0,2.62-.48,10.8,10.8,0,0,1,2.25-.32l.73-.06a10.52,10.52,0,0,0,1.27-.22,7.42,7.42,0,0,1,1.78-.25.92.92,0,0,1,.76-.24,1.1,1.1,0,0,0,.48,0,3,3,0,0,1,.85-.11,3.7,3.7,0,0,0,.47,0l.7-.11c.19,0,.38-.07.57-.09a5.67,5.67,0,0,1,.58,0,3.56,3.56,0,0,0,1.09-.19,7.43,7.43,0,0,1,1.83-.41c.32,0,.65-.09,1-.16l.16,0a7,7,0,0,1,2.28-.23,1,1,0,0,0,.42-.09,1.86,1.86,0,0,1,.31-.1,2.48,2.48,0,0,1,.38,0,2,2,0,0,0,.43,0l.44-.11a8.09,8.09,0,0,1,1.3-.26l.39,0a2.49,2.49,0,0,0,1.15-.23,1,1,0,0,1,.44-.11.72.72,0,0,0,.72-.48c0-1.63,0-3.31,0-4.94a76,76,0,0,0-.21-8.1,4.28,4.28,0,0,1,0-.62v-.21H93.12v1.88a.06.06,0,0,1,0,0,1.48,1.48,0,0,0-.41,1.15c0,4.11,0,8.12,0,12.38ZM91.81,93h0l-.25-.07-.43-.12a4.89,4.89,0,0,1-.77-.35,3.64,3.64,0,0,0-1-.41,2,2,0,0,1-.71-.36,1.85,1.85,0,0,0-.33-.21c-.26-.15-.52-.28-.77-.41l-.2-.08-.24-.11-.49-.27c-.29-.16-.58-.32-.88-.46s-.41-.15-.61-.22a4.11,4.11,0,0,1-.84-.34c-1.09-.64-2.24-1.2-3.36-1.74l-1.4-.68c-1.25-.62-2.54-1.25-3.84-1.82-.74-.32-1.46-.69-2.16-1s-1.51-.77-2.29-1.1-1.81-.84-2.68-1.28S66.85,81,66,80.67l-.86-.4a12.51,12.51,0,0,0-1.34-.59h0a1.69,1.69,0,0,1-.5-1.41c0-1,0-1.87,0-2.85V74.26a0,0,0,0,1,0-.05H91.56a0,0,0,0,1,0,.05c0,.82.08,1.64.13,2.44.08,1.3.16,2.65.14,4,0,2.6,0,5.25,0,7.81,0,1.09,0,2.18,0,3.28v1.14a.05.05,0,0,1,0,0Zm-28-13.38a13.88,13.88,0,0,1,1.35.59l.85.4c.87.38,1.73.81,2.56,1.23s1.77.88,2.68,1.27,1.55.73,2.29,1.1,1.43.72,2.16,1c1.3.56,2.59,1.2,3.85,1.81l1.4.69c1.11.54,2.27,1.1,3.36,1.74a3.91,3.91,0,0,0,.82.33,6.56,6.56,0,0,1,.62.23,9.34,9.34,0,0,1,.89.46l.49.27.23.1.21.09.78.4.33.22a2.16,2.16,0,0,0,.67.35,4,4,0,0,1,1,.42,7.35,7.35,0,0,0,.76.34l.43.12.18,0V91.77c0-1.1,0-2.19,0-3.28,0-2.56,0-5.21,0-7.82,0-1.32-.07-2.66-.14-4,0-.78-.1-1.59-.13-2.4H63.38v1.1c0,1,0,1.9,0,2.85A1.62,1.62,0,0,0,63.83,79.58Zm58.45,8.3,0,0L122,87.6a.06.06,0,0,1,0,0s0,0,0,0a.83.83,0,0,0,.17-.72c0-.07,0-.14,0-.22,0-1,0-1.9,0-2.85,0-2,0-4,0-5.94,0-.79.08-1.57.16-2.4,0-.37.07-.76.1-1.15a.07.07,0,0,1,.06,0h14.7s.05,0,.05,0a0,0,0,0,1,0,.06l-.33.21A3.89,3.89,0,0,0,135.25,76a.82.82,0,0,1-.34.29c-.13.08-.25.16-.28.25a.53.53,0,0,1-.39.37A.56.56,0,0,0,134,77c-1.15,1.14-2.36,2.26-3.52,3.34-.33.3-.68.59-1,.86l-.31.25c-.13.12-.26.26-.38.39a2,2,0,0,1-.88.67s-.08.06-.12.11a.73.73,0,0,1-.08.09l-.94.88-2.6,2.45c-.23.21-.47.41-.7.6s-.47.39-.69.59a2.45,2.45,0,0,0-.31.41l-.14.21,0,0Zm-.2-.32.19.18.1-.14a2.34,2.34,0,0,1,.33-.43c.22-.21.46-.41.7-.6s.46-.39.69-.6l2.6-2.44.94-.89.07-.07a.35.35,0,0,1,.17-.15,1.87,1.87,0,0,0,.83-.64,3.78,3.78,0,0,1,.4-.4l.31-.25c.33-.27.68-.56,1-.86,1.17-1.08,2.38-2.2,3.53-3.34a.73.73,0,0,1,.26-.14.42.42,0,0,0,.33-.29c0-.14.19-.23.33-.32a.76.76,0,0,0,.3-.25,4,4,0,0,1,1.66-1.52l.17-.11H122.51c0,.38-.06.75-.09,1.1-.08.83-.16,1.6-.17,2.39,0,2,0,4,0,5.94v2.85a1.7,1.7,0,0,0,0,.22A1,1,0,0,1,122.08,87.56Zm-59.8-8.68h0l-.79-.33c-.57-.25-1.12-.48-1.65-.74q-.55-.27-1.08-.57c-.4-.22-.82-.45-1.24-.64l-.82-.37c-.48-.22-1-.44-1.47-.68l-1-.52c-.42-.22-.85-.44-1.29-.65h0a0,0,0,0,1-.06,0,.07.07,0,0,1,0-.09.17.17,0,0,1,.12-.08h9a.05.05,0,0,1,0,0,.09.09,0,0,1,0,0,2.93,2.93,0,0,0,.05,2.05,4,4,0,0,1,.24,1.8c0,.24,0,.49,0,.73a0,0,0,0,1,0,.05ZM53,74.28c.44.21.87.43,1.28.65s.67.35,1,.51,1,.46,1.46.68l.82.37c.43.2.85.43,1.25.65s.71.39,1.07.57c.54.25,1.08.48,1.65.73l.72.3c0-.22,0-.44,0-.65A3.73,3.73,0,0,0,62,76.33a2.94,2.94,0,0,1-.08-2H53Zm9.27-1.5H49.5c-.25-.13-.48-.27-.71-.4a8.8,8.8,0,0,0-1.44-.72,16.4,16.4,0,0,1-2-.92c-.38-.2-.77-.4-1.17-.58-1.6-.73-3.2-1.5-4.76-2.25l-1.62-.79L35.39,66l-1.11-.51s0,0,0,0l-.5-1V45.13a.05.05,0,0,1,.05-.05h1.24s0,0,0,0l1.38.66,2.9,1.41,7.47,3.69c.41.2.81.41,1.2.62a22.7,22.7,0,0,0,2.27,1.11c1.82.75,3.59,1.66,5.31,2.54,1.39.71,2.83,1.45,4.28,2.1a1.37,1.37,0,0,1,.8,2l.26.26h1.23s0,0,0,0c.16.92.21,10.15.07,13.18A0,0,0,0,1,62.24,72.78Zm-12.7-.11H62.19c.12-2.94.08-12-.07-13.06H60.88l-.3-.3s0,0,0-.06a1.28,1.28,0,0,0-.73-1.93c-1.46-.64-2.9-1.38-4.29-2.1-1.71-.88-3.49-1.78-5.3-2.53-.78-.32-1.54-.72-2.28-1.11-.39-.21-.79-.43-1.19-.63L39.3,47.25l-2.89-1.4L35,45.19H33.86V64.44l.48.93,1.09.51c.8.37,1.62.75,2.42,1.14l1.63.78c1.55.75,3.16,1.53,4.75,2.26.4.18.8.38,1.18.58a17.71,17.71,0,0,0,2,.91,9.47,9.47,0,0,1,1.46.73Zm13.8-16.44h0a.07.07,0,0,1,0,0v-2a0,0,0,0,1,.05,0H65a.05.05,0,0,1,0,0s0,0,0,0l-1.68,2Zm.06-2V56l1.51-1.82Z"/><path d="M5.62,75.05,5,75.69H3.32l-.66-.64a5.59,5.59,0,0,1-.3-2.42,2.3,2.3,0,0,1,1-2.16H5a2.31,2.31,0,0,1,1,2.16A5.76,5.76,0,0,1,5.62,75.05Zm-2-3.25a7.23,7.23,0,0,0-.23,1.27,7.34,7.34,0,0,0,.23,1.28l.54.58a4.82,4.82,0,0,0,.47-1.86,4.82,4.82,0,0,0-.47-1.85Z"/><path d="M5,75.75H3.32l0,0-.65-.64,0,0a4.3,4.3,0,0,1-.3-2v-.48a2.31,2.31,0,0,1,1-2.2H5s0,0,0,0a2.35,2.35,0,0,1,1,2.2c0,.17,0,.34,0,.51a4.17,4.17,0,0,1-.3,1.93,0,0,0,0,0,0,0L5,75.73Zm-1.62-.11h1.6L5.58,75a4.22,4.22,0,0,0,.29-1.88v-.51A2.23,2.23,0,0,0,5,70.53H3.36a2.22,2.22,0,0,0-.95,2.1c0,.16,0,.32,0,.48A4.2,4.2,0,0,0,2.71,75Zm2.28-.59ZM4.2,75l0,0-.54-.58a0,0,0,0,1,0,0L3.52,74a4,4,0,0,1-.15-.9,4,4,0,0,1,.15-.89l.09-.39s0,0,0,0l.54-.58s0,0,0,0,0,0,0,0a4.91,4.91,0,0,1,.47,1.87A4.92,4.92,0,0,1,4.25,75s0,0,0,0Zm-.49-.66.47.51a4.61,4.61,0,0,0,.44-1.76,4.61,4.61,0,0,0-.44-1.75l-.47.51-.09.38a2.74,2.74,0,0,0,0,1.73Z"/><path d="M149.33,105h1.06l.56.68.7-.33.24-.73-.46-.74c-.3.1-.65.1-.84.28s-.58.14-.9.22c-.1-.19-.28-.38-.25-.54.13-.81.32-1.6.5-2.4,0-.09.14-.15.22-.23h2.58l0,1H151.2l-.44.6,1.23.1.94.94a2.23,2.23,0,0,1-1.4,2.79,3.18,3.18,0,0,1-1.87-.46Z"/><path d="M151.36,106.75a3.34,3.34,0,0,1-1.72-.47,0,0,0,0,1,0,0l-.33-1.2s0,0,0,0,0,0,0,0h1.06l0,0,.54.65.64-.3.22-.68-.43-.68-.25.05a1.18,1.18,0,0,0-.52.2.79.79,0,0,1-.61.2,1.19,1.19,0,0,0-.32,0,0,0,0,0,1-.06,0,1.74,1.74,0,0,0-.11-.18.62.62,0,0,1-.14-.39c.13-.79.31-1.59.49-2.36v0a.35.35,0,0,1,.15-.19l.08-.06a.05.05,0,0,1,0,0h2.57a.06.06,0,0,1,.06,0l.05,1a.07.07,0,0,1-.06.06h-1.55l-.37.5,1.13.09,0,0,.94.94a0,0,0,0,1,0,0,2.28,2.28,0,0,1-1.43,2.85h-.19Zm-1.66-.55a3.22,3.22,0,0,0,1.82.44,2.16,2.16,0,0,0,1.36-2.71L152,103l-1.21-.09s0,0,0,0a.06.06,0,0,1,0-.06l.44-.6,0,0h1.53l0-.91h-2.51l-.07.06a.29.29,0,0,0-.12.13v.05c-.18.77-.36,1.56-.49,2.35a.64.64,0,0,0,.13.32,1.19,1.19,0,0,1,.09.15l.31,0a.67.67,0,0,0,.54-.17,1.14,1.14,0,0,1,.57-.22l.28-.07a.06.06,0,0,1,.06,0l.46.73a.09.09,0,0,1,0,.05l-.24.73s0,0,0,0l-.69.32a.06.06,0,0,1-.07,0l-.55-.66h-1Z"/><path d="M62.73,105.42h1.52c.45.59.45.7,0,1.27H61.35c-.28-.21-.51-.44-.23-.83s.38-.92.88-1.08c.33-.1.14-.59.57-.63.17,0,.33-.39.45-.61s.24-.54.37-.85l-.7-.49-.47.71h-1v-.69c.42-1.24,1.47-.94,2.38-1l.92.91v1.09c-.22.34-.4.91-.77,1.13S63.32,105.3,62.73,105.42Z"/><path d="M64.28,106.74h-3c-.3-.22-.54-.48-.24-.9.08-.11.14-.24.21-.36a1.27,1.27,0,0,1,.7-.74c.12,0,.15-.14.19-.26s.11-.34.39-.37c.11,0,.24-.27.33-.45l.07-.14a4.11,4.11,0,0,0,.25-.56c0-.07.07-.16.11-.24l-.62-.43-.44.65a.05.05,0,0,1-.05,0h-1a.06.06,0,0,1,0,0v-.71c.37-1.06,1.17-1,2-1h.47l0,0,.91.91a.08.08,0,0,1,0,0v1.09a0,0,0,0,1,0,0c-.06.1-.12.22-.18.34a1.9,1.9,0,0,1-.61.8,1.23,1.23,0,0,0-.39.45,1.36,1.36,0,0,1-.41.48h1.24l0,0c.46.61.46.75,0,1.34A.05.05,0,0,1,64.28,106.74Zm-2.91-.11h2.88c.38-.52.38-.62,0-1.16H62.73s0,0,0,0a.07.07,0,0,1,0-.06c.32-.06.46-.29.61-.53a1.55,1.55,0,0,1,.43-.49,1.7,1.7,0,0,0,.56-.76q.09-.18.18-.33v-1.06l-.88-.88h-.46c-.77,0-1.51-.06-1.84.92v.63h.88l.45-.68,0,0h0l.7.49a0,0,0,0,1,0,.06l-.12.28c-.08.2-.16.39-.25.57a.61.61,0,0,0-.07.14c-.13.24-.25.49-.42.5s-.25.15-.3.3a.42.42,0,0,1-.26.33c-.34.11-.48.39-.64.69-.07.12-.13.25-.21.37C60.93,106.21,61.06,106.41,61.37,106.63Z"/><path d="M4,39.62l1.58-.22c.47.61.47.71.06,1.29H2.4a1.38,1.38,0,0,1,.42-1.38q.54-.57,1.11-1.11a4.19,4.19,0,0,0,.79-1.51L4,36.2l-.48.72H2.62A1.21,1.21,0,0,1,3,35.63a1.31,1.31,0,0,1,1.1-.37c.31,0,.62,0,.92,0l.95,1-.14.68.14.22C5.62,38.19,4.73,38.8,4,39.62Z"/><path d="M5.63,40.74H2.4a.07.07,0,0,1,0,0,1.42,1.42,0,0,1,.43-1.43l1.11-1.11A2.9,2.9,0,0,0,4.53,37c0-.11.08-.22.13-.33l-.61-.44L3.61,37l0,0H2.62a.05.05,0,0,1-.05,0,1.28,1.28,0,0,1,.35-1.34,1.42,1.42,0,0,1,1.14-.39,4.56,4.56,0,0,0,.64,0H5l1,1s0,0,0,0l-.13.66.12.2a.06.06,0,0,1,0,0,4.47,4.47,0,0,1-1.39,2c-.15.15-.31.3-.46.47l1.43-.2s0,0,.05,0c.48.63.49.75.06,1.35A.05.05,0,0,1,5.63,40.74Zm-3.18-.11H5.6c.38-.52.37-.61,0-1.17L4,39.67a.06.06,0,0,1-.06,0,0,0,0,0,1,0-.06L4.52,39a4.38,4.38,0,0,0,1.35-1.89l-.12-.19a.06.06,0,0,1,0,0l.13-.65L5,35.31H4.7c-.21,0-.43,0-.65,0a1.29,1.29,0,0,0-1,.36,1.16,1.16,0,0,0-.34,1.2h.87l.47-.7,0,0s0,0,0,0l.68.48a.06.06,0,0,1,0,.07l-.15.37A3,3,0,0,1,4,38.24c-.37.35-.74.72-1.11,1.1A1.29,1.29,0,0,0,2.45,40.63Z"/><path d="M93.91,104.14v1.41c-.07.66-.78.68-1.12,1.12h-1l-1-.5-.27-1.11h1.14l.49.59c.56,0,.48-.55.75-.78l-.3-.7h-.82l.26-.3-.27-.3.92-.92-.39-.43-.8.71h-.6l-.3-.3c-.06-.37.37-.89,1.14-1.38h1.22l.76.72v1.28l-.34.34Z"/><path d="M92.79,106.72H91.72l-1-.5s0,0,0,0l-.27-1.11s0,0,0,0a.05.05,0,0,1,0,0h1.14s0,0,0,0l.48.57c.3,0,.38-.2.47-.42a1,1,0,0,1,.19-.32l-.27-.63h-.79a.07.07,0,0,1,0,0s0,0,0,0l.23-.27-.23-.26a.06.06,0,0,1,0-.08l.88-.88-.33-.36-.75.67a.05.05,0,0,1,0,0h-.6a.05.05,0,0,1,0,0l-.29-.29s0,0,0,0c-.06-.39.37-.93,1.16-1.43H93l.76.73s0,0,0,0v1.28s0,0,0,0l-.31.31.52.51s0,0,0,0v1.4a1,1,0,0,1-.64.79,1.63,1.63,0,0,0-.49.37S92.81,106.72,92.79,106.72Zm-1-.1h1a1.66,1.66,0,0,1,.49-.38c.29-.16.56-.32.6-.7v-1.38l-.55-.53a.05.05,0,0,1,0,0s0,0,0,0l.33-.34V102l-.73-.7H91.73c-.73.47-1.15,1-1.11,1.3l.27.27h.56l.78-.69a.06.06,0,0,1,.08,0l.39.43a.06.06,0,0,1,0,.08l-.88.88.23.27a0,0,0,0,1,0,.07l-.18.21h.7a.05.05,0,0,1,.05,0l.3.7a.07.07,0,0,1,0,.06.81.81,0,0,0-.19.31c-.1.22-.2.48-.59.49l0,0-.47-.58H90.55l.25,1Z"/><path d="M4.24,5.48v-1h-2V3.36L4.3.12a.8.8,0,0,1,1,.25V3.58l.62.09v.76H5.34L5.26,5.48Zm0-3.57L3.14,3.5c.69.13.69.13,1.07-.17Z"/><path d="M5.26,5.53h-1a0,0,0,0,1,0,0V4.55h-2a0,0,0,0,1-.05,0V3.36a0,0,0,0,1,0,0L4.26.09l0,0a.84.84,0,0,1,1,.27,0,0,0,0,1,0,0V3.53l.58.09a.07.07,0,0,1,0,0v.76a.05.05,0,0,1,0,.05H5.39l-.08,1A0,0,0,0,1,5.26,5.53Zm-1-.11h.91l.08-1a0,0,0,0,1,0,0h.51V3.72l-.58-.09s0,0,0,0V.39A.74.74,0,0,0,4.34.16L2.26,3.38V4.45h2a.06.06,0,0,1,.06,0ZM3.71,3.64a4.18,4.18,0,0,1-.58-.09s0,0,0,0a0,0,0,0,1,0,0L4.16,1.88a0,0,0,0,1,.06,0,.07.07,0,0,1,0,0V3.33a.05.05,0,0,1,0,0C4,3.56,3.9,3.64,3.71,3.64Zm-.48-.18c.58.11.6.1.92-.16V2.08Z"/><path d="M2.37,21.64H3.44l.57.55.65-.65V21l-.81-.31V20l.33-.07.34-.83-.4-.43a2.29,2.29,0,0,1-.32.56,1.62,1.62,0,0,1-.46.25l-.77-.24c0-.68.28-1.13,1.13-1.37H5l.67.92v.94l-.62.54.88.88-.19.64.16.19-.87,1.1H3.34c-.32-.2-.79-.29-.86-.81C2.45,22.07,2.4,21.87,2.37,21.64Z"/><path d="M5.06,23.14H3.31L3.07,23c-.27-.14-.59-.29-.65-.72,0-.14,0-.28-.07-.43a1.55,1.55,0,0,0,0-.21l0,0a.05.05,0,0,1,0,0H3.44a.05.05,0,0,1,0,0l.53.51.6-.6v-.47l-.78-.29a0,0,0,0,1,0,0V20s0,0,0-.05l.31-.06.31-.77-.33-.36-.06.13a1.43,1.43,0,0,1-.23.38,1.1,1.1,0,0,1-.36.21l-.12.05s0,0,0,0l-.76-.24a.05.05,0,0,1,0-.05,1.34,1.34,0,0,1,1.17-1.42H5a.05.05,0,0,1,0,0l.68.91s0,0,0,0v.94a.08.08,0,0,1,0,0l-.58.5.83.84s0,0,0,.05l-.18.62L6,22A0,0,0,0,1,6,22l-.87,1.1ZM3.35,23H5L5.86,22l-.13-.15a0,0,0,0,1,0-.05l.18-.62L5,20.31a0,0,0,0,1,0,0s0,0,0,0l.6-.53v-.9L5,17.93H3.71c-.76.22-1.1.61-1.09,1.28l.71.23.11-.05a1.11,1.11,0,0,0,.32-.18A1.38,1.38,0,0,0,4,18.85l.09-.2,0,0,0,0,.4.44a0,0,0,0,1,0,.05L4.23,20s0,0,0,0l-.29.05v.63l.78.29a.05.05,0,0,1,0,.05v.52s0,0,0,0l-.65.65a.06.06,0,0,1-.08,0l-.55-.53h-1l0,.14c0,.15.06.29.08.44.05.37.32.5.59.63A1.71,1.71,0,0,1,3.35,23Z"/><path d="M120,105.63c-.53-.34-.21-.78-.3-1,.68-1.15,1.31-2.22,2-3.35h1.1v3.29l.61,0v.79l-.54.06v.78c-.28.57-.67.42-1.07.45v-.93l-.26-.26C120.46,105.41,120.46,105.41,120,105.63Zm1.73-1v-1.66l-1,1.66Z"/><path d="M121.79,106.76l0,0s0,0,0,0v-.91l-.23-.23c-1-.09-1-.09-1.49.11a0,0,0,0,1,0,0,.69.69,0,0,1-.32-.79.53.53,0,0,0,0-.22s0,0,0,0l2-3.35a.05.05,0,0,1,0,0h1.1a.06.06,0,0,1,0,.06v3.24l.56,0a0,0,0,0,1,0,.05v.79a.07.07,0,0,1,0,0l-.5.06v.75a.79.79,0,0,1-.89.48Zm.14-.11H122a.72.72,0,0,0,.79-.41v-.77a0,0,0,0,1,0,0l.5-.06v-.69l-.56,0a0,0,0,0,1-.05,0v-3.24h-1l-2,3.31a.54.54,0,0,1,0,.25.6.6,0,0,0,.26.67c.44-.21.48-.21,1.53-.11l0,0,.26.26a0,0,0,0,1,0,0v.88Zm-.2-2h-1l-.05,0a.06.06,0,0,1,0-.06l1.06-1.66a0,0,0,0,1,.06,0,0,0,0,0,1,0,0v1.66A.06.06,0,0,1,121.73,104.63Zm-1-.1h.91V103.1Z"/><path d="M33.15,102.85l-1.2.56-.06-1,1.41-1.16h.87v5.15c-.21.34-.57.33-1,.23Z"/><path d="M33.6,106.76a2,2,0,0,1-.46-.06.05.05,0,0,1,0,0v-3.71l-1.13.52a0,0,0,0,1,0,0,.05.05,0,0,1,0,0l-.06-1s0,0,0,0l1.41-1.16h.9a.06.06,0,0,1,.06,0v5.15a0,0,0,0,1,0,0A.66.66,0,0,1,33.6,106.76Zm-.4-.15c.43.08.73.08.92-.21v-5.07h-.8l-1.38,1.12.06.88,1.13-.52a0,0,0,0,1,0,0l0,0Z"/><path d="M4.18,52.89h.67v5.37h-1V54.5l-1.2.76c0-.41,0-.73-.07-1Z"/><path d="M4.85,58.32h-1a.06.06,0,0,1-.05-.06V54.59l-1.12.71H2.61a.05.05,0,0,1,0-.05l-.08-1a.05.05,0,0,1,0,0l1.62-1.38,0,0h.67a.06.06,0,0,1,.05.06v5.37A.06.06,0,0,1,4.85,58.32Zm-1-.11H4.8V52.94H4.2L2.61,54.29l.06.88,1.13-.72a0,0,0,0,1,.05,0,.05.05,0,0,1,0,0Z"/><path d="M4.84,93.46c-.36.05-.7.13-1-.3V89.75l-1.21.43-.06-.88,1.69-1.23h.59Z"/><path d="M4.46,93.55a.78.78,0,0,1-.67-.35s0,0,0,0V89.83l-1.14.4H2.59a.08.08,0,0,1,0,0l-.06-.89a.08.08,0,0,1,0,0L4.22,88h.62a0,0,0,0,1,0,0v5.39a0,0,0,0,1,0,.05H4.78A1.66,1.66,0,0,1,4.46,93.55Zm.38-.09Zm-1-.31a.78.78,0,0,0,.89.27h0v-5.3H4.27L2.62,89.33l0,.78,1.14-.41h0a.05.05,0,0,1,0,0Z"/><path d="M2.08,91l.27.27-.19.22.2.21L2.07,92H.1c0-.36-.14-.7.25-1Z"/><path d="M2.07,92.06H.1A.06.06,0,0,1,0,92v-.08a.85.85,0,0,1,.29-1h1.8l.27.27a0,0,0,0,1,0,.07l-.16.19.17.18a.06.06,0,0,1,0,.07L2.11,92ZM.14,92H2.05l.23-.23-.16-.18a.09.09,0,0,1,0-.07l.16-.18-.22-.22H.37c-.32.25-.28.52-.23.84Z"/></g></g></svg>