<svg xmlns="http://www.w3.org/2000/svg" viewBox="0 0 86.34 28.98"><title>Recurso 22GRAPHS</title><g id="Capa_2" data-name="Capa 2"><g id="Capa_1-2" data-name="Capa 1"><path d="M47.21,15.67l.62-1.19h.9a4.87,4.87,0,0,0,.18.47c.1.18.22.35.39.62V26.5l.52.58c.1.06.15.13.21.13a3,3,0,0,0,.42,0h5.07L56.14,26V21.48c.26-.22.44-.54.67-.63.56-.06.68.37,1,.58V26.2l1.34,1h4.91l.47-.47c0-.06.11-.11.12-.16a3.09,3.09,0,0,0,0-.43V18.49c.3-.2.42-.6.71-.62.56-.05.63.44,1,.56V24.9l.39.39V26.6l.72.59h2.94c.2-.06.33-.55.8-.38l.45.4h.71l1.17-.6V21.46l.55-.58c.65-.13.79.27,1.16.55.07,1,0,2,0,3.05l.37.38v1.65l.64.7h4.56l1.19-.61V15.51l1.15-1,1,1.3v9.51l-.39.45v2.57a3.24,3.24,0,0,0-.52.19,5.86,5.86,0,0,0-.59.39H46.11c-.19,0-.31-.55-.79-.38l-.45.4H43.18l-.44-.41H40.2l-.45.41c-.47.17-.6-.31-1-.45l-.76.42a.93.93,0,0,1-1.14-.36H35.53l-.45.39h-3l-.44-.41H18.51l-.44.41h-.84l-.48-.41H15.63L14.9,29l-.73-.46H13.4c-.2-.24-.6-.5-.6-.76a2.82,2.82,0,0,0-.56-1.45l.51-.58V24l-.41-.43.43-.46V14.66c.29-.19.41-.6.64-.61.62-.06.69.42,1.07.55v12a1.63,1.63,0,0,0,.24.17.74.74,0,0,0,.21,0h4l.53.46a3.73,3.73,0,0,1,1.7-.51,3.18,3.18,0,0,0,.13-1.46c0-.42,0-.85,0-1.25l.34-.34a.94.94,0,0,0,0-1c-.51-.59-.57-1.08,0-1.63.07-.07,0-.27.07-.39a1.37,1.37,0,0,1,.25-.3c.52-.07.69.4,1,.64v5.1a4.36,4.36,0,0,0,1.73,1.1l.64-.38c-.05,0,.07-.07.19-.07.5,0,1,0,1.48,0l.32.33a3.09,3.09,0,0,0,1.42.07c.29-.56.85-.32,1.29-.45a1,1,0,0,0,.15-.37q0-3.93,0-7.86c.27-.21.41-.58.78-.65s.55.4.92.56v8.2c.43.19.85.26,1.1.58h1.23l.57-.48.81.47h2.46l.61-.56V21.71l.67-1.29,1,1.06v4.68l1.07,1.05h2.11L44,26.8h.42l.4.4c.52.08,1.14,0,1.71,0l.65-.65Z"/><path d="M18.27,3.54V8.35L17.44,9v.55c-.36.31-.9.3-1.18.75s-.88.29-1.2.72c-.1.13-.54,0-.8,0l-.54.5a5.32,5.32,0,0,0-.83-.49c-.31-.11-.63,0-1-.2-1.57-1-2.07-1.21-2.56-3.36,0-.18-.25-.32-.41-.51V5.33l.42-.45V3.2c.48-.4.39-1.32,1-1.43s.88-.64,1.35-.93h.79L13,.42h1.51c.43.31,1,.36,1.37.79.71,0,1,.7,1.48,1S17.71,3.31,18.27,3.54Zm-1.67,3c-.06-.6,0-1.22,0-1.68l-.41-.45V3.61l-1.05-1H14.7l-.46-.43H13L11.06,4V7.31c.18.34.29.58.43.8s.38.55.57.81h.88l.46.43h1.28l1.48-1.52V7Z"/><path d="M85.49,7.06c0,.49-.08.94.4,1.2v2.65l-1.17,1a1.75,1.75,0,0,0-1.3.48l-1.33-.66-.83-1v-2l.39-.45V7l-.83-.87V5.31c.27-.36.65-.14,1-.22l.63-.59V.68L83.14,0H84l.62,1.2v2l-.4.45v.89l.69.56h.84l.59.69C86.42,6.42,85.81,6.57,85.49,7.06Z"/><path d="M0,1.05.64.46h.89c.08.09.17.14.17.2v3l-.65.54a2.37,2.37,0,0,0-.36-.29,3.29,3.29,0,0,0-.56-.15c0-.05-.12-.1-.12-.16C0,2.75,0,1.91,0,1.05Z"/><path d="M3.34.44h.72l.56,1.09-.35.38c-.08.47,0,1.1,0,1.72-.18.18-.18.18-1,.2L2.6,3.24V1Z"/></g></g></svg>