<svg xmlns="http://www.w3.org/2000/svg" viewBox="0 0 120.8 120.8"><title>Recurso 82MANDALA</title><g id="Capa_2" data-name="Capa 2"><g id="Capa_1-2" data-name="Capa 1"><path d="M117.9,88.31l-1.45,1c-.52.28-1,.6-1.55.86a10.49,10.49,0,0,1-3.53,1.09,5,5,0,0,1-2.08-.22,3.81,3.81,0,0,1-1-.5,4.49,4.49,0,0,1-.84-.72,8.68,8.68,0,0,1-1.82-3.5,45.7,45.7,0,0,1-1.32-6.94c-.34-2.27-.59-4.51-.89-6.74-.59-4.45-1.34-9-3.3-13.07A21.82,21.82,0,0,0,96.37,54a20.26,20.26,0,0,0-5.27-4,26.7,26.7,0,0,0-6.16-2.32,33.78,33.78,0,0,0-6.48-1,35,35,0,0,0-6.54.35,43,43,0,0,0-6.42,1.39A50.94,50.94,0,0,0,42.88,62.23L42.61,62A39.2,39.2,0,0,1,64.47,45a36.34,36.34,0,0,1,14.22-1.46,29.81,29.81,0,0,1,7,1.53,25.79,25.79,0,0,1,6.34,3.34,30.41,30.41,0,0,1,9,10.7,53.17,53.17,0,0,1,5.08,13.06c1.1,4.54,1.16,9.29,2,13.51a7.69,7.69,0,0,0,1,2.7,2.76,2.76,0,0,0,2.18,1.13,18.87,18.87,0,0,0,6.4-1.44Z"/><path d="M120.8,39.48l-.34,1.72c-.16.56-.29,1.13-.49,1.69a10.56,10.56,0,0,1-1.72,3.28,5.07,5.07,0,0,1-1.63,1.31,3.36,3.36,0,0,1-1.07.35,3.72,3.72,0,0,1-1.1.09,8.72,8.72,0,0,1-3.76-1.18,45.67,45.67,0,0,1-5.84-4c-1.84-1.36-3.61-2.77-5.4-4.13-3.55-2.73-7.28-5.39-11.57-6.91a21.73,21.73,0,0,0-6.59-1.3,20.11,20.11,0,0,0-6.6.86,27,27,0,0,0-6,2.72,33.86,33.86,0,0,0-5.25,3.9,35.65,35.65,0,0,0-4.38,4.88,44.8,44.8,0,0,0-3.56,5.52A51.08,51.08,0,0,0,49.3,74.08l-.33,0A39.2,39.2,0,0,1,52.35,46.6a36.27,36.27,0,0,1,9-11.1,29.19,29.19,0,0,1,6.06-3.88,25.5,25.5,0,0,1,6.84-2.13,30.38,30.38,0,0,1,13.94,1.2A52.85,52.85,0,0,1,101,36.32c4,2.44,7.4,5.76,10.95,8.16a7.57,7.57,0,0,0,2.64,1.19,2.72,2.72,0,0,0,2.33-.75,18.3,18.3,0,0,0,3.51-5.54Z"/><path d="M88.31,2.9l1,1.45c.28.51.6,1,.86,1.55a10.49,10.49,0,0,1,1.09,3.53A5,5,0,0,1,91,11.51a3.61,3.61,0,0,1-.5,1,4.2,4.2,0,0,1-.72.84,8.83,8.83,0,0,1-3.5,1.83,47,47,0,0,1-6.94,1.32c-2.27.34-4.51.58-6.74.89-4.45.58-9,1.34-13.07,3.29A22.12,22.12,0,0,0,54,24.43a20.1,20.1,0,0,0-4,5.27,26.53,26.53,0,0,0-2.32,6.16,33.68,33.68,0,0,0-1,6.47A34.91,34.91,0,0,0,47,48.87a42.7,42.7,0,0,0,1.39,6.42A51,51,0,0,0,62.23,77.92l-.21.26A39.18,39.18,0,0,1,45,56.33,36.41,36.41,0,0,1,43.49,42.1a29.73,29.73,0,0,1,1.53-7,25.85,25.85,0,0,1,3.34-6.35,30.39,30.39,0,0,1,10.7-9,53.17,53.17,0,0,1,13.06-5.08c4.54-1.11,9.29-1.16,13.51-2a7.5,7.5,0,0,0,2.7-1,2.77,2.77,0,0,0,1.13-2.18A18.87,18.87,0,0,0,88,3.05Z"/><path d="M39.48,0,41.2.34c.56.16,1.13.29,1.69.49a10.15,10.15,0,0,1,3.28,1.72,5,5,0,0,1,1.31,1.63,3.31,3.31,0,0,1,.35,1.06,3.82,3.82,0,0,1,.09,1.11,8.72,8.72,0,0,1-1.18,3.76,45.67,45.67,0,0,1-4,5.84c-1.36,1.84-2.77,3.6-4.13,5.39-2.73,3.56-5.39,7.28-6.91,11.57a21.79,21.79,0,0,0-1.3,6.6,20.05,20.05,0,0,0,.86,6.59,26.59,26.59,0,0,0,2.72,6,32.94,32.94,0,0,0,3.9,5.25,34.39,34.39,0,0,0,4.88,4.38,42.58,42.58,0,0,0,5.52,3.56,51,51,0,0,0,25.78,6.21l0,.34A39.15,39.15,0,0,1,46.6,68.44a36.38,36.38,0,0,1-11.1-9,29.19,29.19,0,0,1-3.88-6.06,25.57,25.57,0,0,1-2.13-6.85,30.34,30.34,0,0,1,1.2-13.93,53.09,53.09,0,0,1,5.63-12.83c2.44-4,5.76-7.39,8.16-10.95a7.61,7.61,0,0,0,1.19-2.63,2.74,2.74,0,0,0-.75-2.34A18.7,18.7,0,0,0,39.38.32Z"/><path d="M2.9,32.48l1.45-1c.51-.29,1-.6,1.55-.86a10.5,10.5,0,0,1,3.53-1.1,5,5,0,0,1,2.08.23,3.35,3.35,0,0,1,1,.5,4.2,4.2,0,0,1,.84.72,8.7,8.7,0,0,1,1.83,3.5,46.48,46.48,0,0,1,1.32,6.94c.34,2.26.58,4.51.89,6.74.58,4.44,1.34,9,3.29,13.06a22.17,22.17,0,0,0,3.75,5.59,20.31,20.31,0,0,0,5.27,4,26.5,26.5,0,0,0,6.16,2.31,32.91,32.91,0,0,0,6.47,1,34.9,34.9,0,0,0,6.54-.34,44,44,0,0,0,6.42-1.39A51.11,51.11,0,0,0,77.92,58.57l.26.2A39.09,39.09,0,0,1,56.33,75.84,36.23,36.23,0,0,1,42.1,77.31a29.75,29.75,0,0,1-7-1.54,25.49,25.49,0,0,1-6.35-3.33,30.42,30.42,0,0,1-9-10.71,53,53,0,0,1-5.08-13c-1.11-4.54-1.16-9.3-2-13.51a7.42,7.42,0,0,0-1-2.7,2.77,2.77,0,0,0-2.18-1.13,18.64,18.64,0,0,0-6.41,1.44Z"/><path d="M0,81.32.34,79.6c.16-.56.29-1.14.49-1.7a10.11,10.11,0,0,1,1.72-3.27,5,5,0,0,1,1.63-1.31A3.33,3.33,0,0,1,5.24,73a4.19,4.19,0,0,1,1.11-.08,8.59,8.59,0,0,1,3.76,1.18A46.67,46.67,0,0,1,16,78c1.84,1.37,3.6,2.78,5.39,4.14,3.56,2.73,7.28,5.38,11.57,6.91a22.1,22.1,0,0,0,6.6,1.3,20.6,20.6,0,0,0,6.59-.86,26.59,26.59,0,0,0,6-2.72,33,33,0,0,0,5.25-3.91A34.31,34.31,0,0,0,61.72,78a42.58,42.58,0,0,0,3.56-5.52,51,51,0,0,0,6.21-25.78l.34,0A39.18,39.18,0,0,1,68.44,74.2a36.34,36.34,0,0,1-9,11.09,29.65,29.65,0,0,1-6.06,3.89,25.57,25.57,0,0,1-6.85,2.13,30.48,30.48,0,0,1-13.93-1.2,53.52,53.52,0,0,1-12.83-5.64c-4-2.43-7.39-5.76-10.95-8.16a7.39,7.39,0,0,0-2.63-1.18,2.76,2.76,0,0,0-2.34.74A18.88,18.88,0,0,0,.32,81.42Z"/><path d="M32.48,117.9l-1-1.45c-.29-.52-.6-1-.86-1.55a10.5,10.5,0,0,1-1.1-3.53,5,5,0,0,1,.23-2.08,3.53,3.53,0,0,1,.5-1,4.49,4.49,0,0,1,.72-.84,8.55,8.55,0,0,1,3.5-1.82,45.24,45.24,0,0,1,6.94-1.32c2.26-.34,4.51-.59,6.74-.89,4.44-.59,9-1.34,13.06-3.3a21.87,21.87,0,0,0,5.59-3.74,20.48,20.48,0,0,0,4-5.27,26.67,26.67,0,0,0,2.31-6.16,33,33,0,0,0,1-6.48,35,35,0,0,0-.34-6.54,44.25,44.25,0,0,0-1.39-6.42A51,51,0,0,0,58.57,42.88l.2-.27A39.16,39.16,0,0,1,75.84,64.47a36.16,36.16,0,0,1,1.47,14.22,29.83,29.83,0,0,1-1.54,7,25.42,25.42,0,0,1-3.33,6.34,30.45,30.45,0,0,1-10.71,9,53,53,0,0,1-13,5.08c-4.54,1.1-9.3,1.16-13.51,2a7.61,7.61,0,0,0-2.7,1,2.76,2.76,0,0,0-1.13,2.18,18.64,18.64,0,0,0,1.44,6.4Z"/><path d="M81.32,120.8l-1.72-.34c-.56-.16-1.14-.29-1.7-.49a10.51,10.51,0,0,1-3.27-1.72,5.07,5.07,0,0,1-1.31-1.63,3.38,3.38,0,0,1-.36-1.07,4.08,4.08,0,0,1-.08-1.1,8.59,8.59,0,0,1,1.18-3.76,46.67,46.67,0,0,1,4-5.84c1.37-1.84,2.78-3.61,4.14-5.4,2.73-3.55,5.38-7.28,6.91-11.57a22,22,0,0,0,1.3-6.59,20.66,20.66,0,0,0-.86-6.6,27,27,0,0,0-2.72-6,33.93,33.93,0,0,0-3.91-5.25A35.57,35.57,0,0,0,78,59.07a44.8,44.8,0,0,0-5.52-3.56A51.11,51.11,0,0,0,46.72,49.3l0-.33A39.23,39.23,0,0,1,74.2,52.35a36.23,36.23,0,0,1,11.09,9,29.65,29.65,0,0,1,3.89,6.06,25.5,25.5,0,0,1,2.13,6.84,30.52,30.52,0,0,1-1.2,13.94A53.27,53.27,0,0,1,84.47,101c-2.43,4-5.76,7.39-8.16,10.95a7.36,7.36,0,0,0-1.18,2.64,2.74,2.74,0,0,0,.74,2.33,18.48,18.48,0,0,0,5.55,3.51Z"/></g></g></svg>