<svg xmlns="http://www.w3.org/2000/svg" viewBox="0 0 159.33 197.03"><title>Recurso 32GRAPHS</title><g id="Capa_2" data-name="Capa 2"><g id="Capa_1-2" data-name="Capa 1"><path d="M32.23,95.08l.66-.65c.1-1.5,0-3.2.06-4.88.17-.16.47-.33.47-.49,0-1.33,1.16-2.37.89-3.77-.08-.42-.1-1.13.13-1.27.9-.56.16-1.66.73-2.11s.17-1.7,1.18-1.81v-2c.83-1.59,1.42-3.1,2.25-4.43s1-3.13,2.59-4c-.56-.57-1-1.06-1.55-1.55A3.67,3.67,0,0,1,38,67.26c-1.2.2-1.33-1.56-2.53-1.37-.68-.72-1.82-.75-2.42-1.61-.13-.18-.31-.41-.5-.44-2.1-.35-3.29-2.43-5.39-2.76-1.13-1.6-3.31-1.65-4.56-3.1-.25-.29-.83-.27-1.14-.52s-.66-.6-1.17-.51c-1.21-1.66-3.58-1.69-4.79-3.36-.78.21-1.08-.7-1.75-.76-.9-.07-1.13-1.27-1.84-1.3s-1.06-.69-1.76-.81c-.94-.16-1.3-1.51-2.46-1.5-.55-.71-1.74-.48-2.15-1.45-.2-.47-.86-.29-1.13-.53-.45-.38-1.14-.41-1.4-.73-.82-1-2.15-1.17-3-2.17V42.61l1.29-.11a20.72,20.72,0,0,1,3.34,2c1,.66,2.06,1.11,3,1.82s2.59,1.1,3.51,2.25c2,.48,3.4,2.2,5.35,2.84.94.31,1.3,1.56,2.46,1.53.54.73,1.73.51,2.15,1.45a.83.83,0,0,0,.5.44c2.09.35,3.28,2.43,5.38,2.76,1.13,1.6,3.31,1.65,4.57,3.1.24.29.82.27,1.13.52s.67.6,1.18.5c1.21,1.67,3.58,1.69,4.78,3.37.88-.24,1.22,1,2.09.76l1.47,1.37,1.22-2.57a14.11,14.11,0,0,0,2.44-2.84c.66-1.29,1.89-1.92,2.73-3.23.06-.19.2-.58.34-1h.8l5.55-5.57a6.3,6.3,0,0,1,2.11-1.53c.78-.32,1.24-1.53,2-1.75s1.2-1.06,1.88-1.29,1.1-.76,1.71-.82a1.84,1.84,0,0,0,1.32-.95c.43-.63,1.28-.29,1.71-.93.29-.43,1-.17,1.41-.73a7.94,7.94,0,0,1,1.23-1.15l-1.3-1.3c0-.09-.15-.21-.12-.28.34-1.11-.67-1.8-.9-2.74-.12-.47-.76-.82-1.18-1.23,0-.33,0-.68,0-1,0-.7-.79-1-.79-1.76,0-.4-.74-.81-1.14-1.21-.05-.1-.15-.22-.13-.29.35-1.11-.66-1.79-.9-2.73-.11-.48-.75-.83-1.16-1.23V27.75l-1-1a1.05,1.05,0,0,0-.29-.06H49.85c-.09,0-.19-.11-.36-.22V24.93c.18-.08.37-.25.56-.25,3.78,0,7.56,0,11.44,0,.09.26.1.62.29.83a13.72,13.72,0,0,1,2.3,3.86c.56,1.25,1.18,2.5,1.84,3.7,1.48,2.7,2.73,5.51,4.11,8.26a8.41,8.41,0,0,0,1.11,1.36c1.38-.7,2.7-1.38,4.25-2.19H77.7l2.45-1.41h2.59l.51-.52a6.22,6.22,0,0,1,2.32-.15c.67,0,1.35,0,2,0l.62-.62h4.69l.85-.69,1.51-.17c.1-.13.23-.22.23-.31V20.85c-2.39-.4-12.38-.47-17.18-.11l.64.83v16l-1.07.85-.65,0c-.1-.19-.27-.38-.27-.57,0-5.16,0-10.31,0-15.46a3.36,3.36,0,0,0-.17-1.7H75.09l-.56.56H71.88l-.84.71H69.76l-.79.7H66.79c-.1-.58-.22-1.2-.33-1.82-.08-.08-.17-.22-.25-.22h-9.6a3,3,0,0,1-.18-1.87,1.16,1.16,0,0,1,.27-.18,1.29,1.29,0,0,1,.34,0H66a4,4,0,0,0,.46-.08l.3-1.91h4.92a5,5,0,0,0,1,.6c.31.11.71-.07,1,0s.71.5,1.1.64a3.47,3.47,0,0,0,1.08,0l1.06-1v-5.7l1-.18,1,1v5.51l-.65.7c.45.46,10,.58,17.08.2V16.16L96.49,15l.94,1.09c0,.42.11,1,.18,1.48a3.37,3.37,0,0,0,.66.19c.33,0,.88.08,1-.07.59-1.1,2.08-.1,2.64-1.25h4.88c.81.31.89,1.29,1.38,2h8.91c.08,0,.16.14.31.27v1.51c-.15.13-.22.25-.32.26a5.12,5.12,0,0,1-.68,0h-8.22c-.39.67-.76,1.33-1.19,2.06-.59,0-1.15,0-1.7,0a1.28,1.28,0,0,1-.86-.35c-.6-.85-2,.4-2.25-1H99.3l-.79-.71h-.65c-.12.17-.35.34-.35.51,0,5.48,0,11,0,16.58,1.1.17,2.12,0,3.12.1l.48.48c.09.06.18.18.27.18h6.1l.61.61h3.19A7.43,7.43,0,0,0,115,40.54l.67.6h2c.49.48,1,1,1.44,1.38.71,0,1.35-.12,1.93.52.29.31,1,.19,1.56.27l1.26,1.25h1.27c.52.28.77,1,1.48.72,1,.86,1.74,2,3.12,2.41.87,1.05,2.16,1.38,3.32,1.94l.24.93A15.51,15.51,0,0,1,136.2,52c.56.4.21,1.28.72,1.4a3,3,0,0,1,1.65,1l1.08,1.19h14.54c.34.34.67.66,1,1v.67c-.16.12-.33.35-.5.36-3.43,0-6.87,0-10.3,0h-1.91c-.55.56,0,.66.18.84A15.7,15.7,0,0,1,144.84,61a21.72,21.72,0,0,0,1.92,2.29c.18.24.08.72.28.9.45.4.5,1,.74,1.42a3.65,3.65,0,0,0,1.2,1.21c.62.42.58,1.17,1,1.66a5.44,5.44,0,0,0,1.07.89c.06.82-.09,1.45.15,1.68.8.79.61,2.27,1.94,2.49v1.53l.7.77c.08.62-.11,1.26.45,1.87a3,3,0,0,1,.86,2c-.09.93.83,1.32.77,2.13a2,2,0,0,0,.12,1c.33.67.75,1.3,1.22,2.09v3.24l.71.76v3.43l.47.45a2.12,2.12,0,0,1,.21.63c0,1.25,0,2.5,0,3.72l-.61.61v6.35l.55.54v3.56l-.66.66V113l-.63.63v3.49L156,118.21v2.14c-.36.43-.67.66-.75,1s0,.9-.13,1.33-.46.49-.56.79a5.3,5.3,0,0,0,0,1.31l-1.36.94v1.64l-1.39,1.46,0,.82c.59.12,1.39.05,1.8.41s1.06.31,1.52.69v.9c-.8.45-1.6.18-2.37.23s-1.37,0-2,0c-.41.53-1,.83-1.08,1.66,0,.44-.82.76-.63,1.43-1.09.69-1.23,2.12-2.2,2.86-1.18.91-1.48,2.45-2.64,3.4s-2.12,2.08-3.18,3.13-2,2.18-3.17,3.14c-.92.77-1.45,1.92-2.82,2.31-1.1.31-1.58,1.74-2.89,2.14-1,.31-1.29,1.88-2.63,1.91l-2.16,2.06h-1.11c-.89.21-1.07,1.53-2.18,1.38a2.47,2.47,0,0,1-2.12.72c-.38,0-.62.52-1.07.7a8.55,8.55,0,0,0-2.27,1.16c-.58.48-1.63-.21-2.09.75-1.26-.21-2.18,1.06-3.48.78l-.75.69h-2.7l-.77.7h-1.32l-.79.71h-6.12l-.59.59H89.61l-.71-.57H85.62l-.84-.7H83.5l-.79-.71H78.64l-.75-.7H76.74c-.74-.42-1.55-1.24-2.41-1.29-1.14-.07-2-1-3.35-.72l-1-1.42H68.26c-.52-1.06-1.71-1.27-2.59-1.9-.32-.23-.86-.15-1.51-.24a7,7,0,0,0-3.38-2l-2.26-2c-1.4-.08-1.65-1.8-2.92-2.06a2,2,0,0,0-.35,0l-5.1-5.11-.07-.72-1.35-.66v-.78c-.62-.6-1.24-1.28-1.95-1.86-1.39-1.15-1.85-3.07-3.39-4.09-.51-2-2.18-3.41-2.93-5.31a6.42,6.42,0,0,0-1.92-3c-.38-.57.17-1.32-.46-1.89a4.88,4.88,0,0,1-.76-1.39,7.46,7.46,0,0,0-.74-1.4c-.44-.53.07-1.3-.27-1.59-.72-.62-.61-1.66-1.33-2.22v-1.82l-.61-.8c-.36-.93.37-2.18-.46-3.11-.62-.69.15-1.9-1-2.35v-4.11l-.71-.76Zm98.24,54.62h1c.79-.71,1.53-1.4,2.3-2,.15-.12.42-.08.63-.12q3.51-3.51,7-7s0-.15-.09-.31l-1.16-.13c-.31.45-.68,1-1.07,1.59-1.38-.68-2.1,1-3.31.49a14.1,14.1,0,0,1-3.13,1.63c-.06.52-.11,1.06-.17,1.56l-1.27,1.26v1.34l-.7.75a1.55,1.55,0,0,0,.19.94c-.53.15-1.06.1-.6.7A1.92,1.92,0,0,0,130.47,149.7ZM100.24,82.36v27.82l.68.73c.13.56-.24,1.17.36,1.69h8.14c.09,0,.18-.11.44-.28v-1.54q0-6,0-12c0-.19.2-.37.3-.56l.75,0,1,1.19v12.93c.49.49,1,.3,1.4.3h41.2c.19,0,.38-.16.6-.26,0-.76.08-1.53.12-2.2l.62-.62c0-5.79,0-11.62,0-17.45a2.47,2.47,0,0,0-.18-.61l-.49-.48V87l-1.38-2.41a5.64,5.64,0,0,0,0-1.64c-.22-.71-.8-1.26-.69-2.13.06-.51-.74-.75-.7-1.43,0-.35-.48-.7-.62-1.1s.15-.9-.13-1.2l-.57-.57V75.09c-1.12-.45-1.26-1.7-1.91-2.58-.28-.38-.18-1.05-.25-1.55-.46-.65-1.23-.95-1.35-1.91-.07-.55-1.16-1-1.24-1.51-.13-1-1-1.21-1.28-1.89a4.63,4.63,0,0,0-1-1.65c-.52-.55-1.37-.91-1.28-1.53L138,57.71H133.3v3.78A4.83,4.83,0,0,0,132,62c-.36.29-.67.6-1.2.46l-.73-.68H126.7l-.78-.7h-3.38l-.56-.56-1.49-.17-.86-.69h-4c-.41-.54-.83-.86-1.56-.36v9c-.77.76-1.42,1.41-2.06,2.06-.18,1.91.13,3.83-.16,5.67-.57.45-.88,1.26-2,.64V69.38l-1.32-.94V45.86c.68-.84,1.18-1.45,1.55-1.92h2L114,45.56c0,3,0,5.87,0,8.73,0,.19.19.38.31.6.43,0,1.09.19,1.3,0,.62-.69,1.69-.55,2.22-1.36h3.39l.62-.63H125l2.49-1.34,2.81-.24c.05,0,.08-.15.12-.24a7.08,7.08,0,0,1-.72-.73c-.26-.36-.75-.07-.91-.26-.69-.74-1.89-.69-2.42-1.67s-1.43-1-2.12-1.49-1.29,0-1.57-.29c-.57-.62-1.39-.59-2-1.1a3.08,3.08,0,0,0-2-.85c-.93.1-1.37-.63-2.11-.83s-1.29-.73-2.14-.65c-.24,0-.51-.39-.82-.63h-2l-.76-.71h-1.34l-.76-.71h-4.08l-.67-.66c-.5,0-1.17,0-1.83,0s-1.38-.31-1.94.32V51c.46.81.88,1.54,1.29,2.28l-1.23,1.24v25.7a29.49,29.49,0,0,0,3.73.14l1,1c0,.27-.09.58-.15,1ZM127.38,136H124l-.76-.71H120L117.68,134h-3.42c-.13.14-.27.23-.27.31,0,2.74,0,5.49,0,8.22l-1.71,1.71h-2.75c-.29-.55-.58-1.12-1-1.84V120.63l1.29-2.39c0-.38,0-.95,0-1.52s.23-1.35-.25-2H101c0,.61-.07,1.15-.1,1.77l-1.09.34a7.41,7.41,0,0,0-2.31,3.28c0,.45,0,1.25,0,2a10.06,10.06,0,0,1,0,2.35c-1.19,1.24-2.14,2.22-3.1,3.2-.06.06-.23,0-.51,0l-.88-.66H90.24c-.55.88-1.34.69-2.12.56-.68-.46-.83-1.26-1.21-1.89l-.86-.19c-.29-.64-.55-1.18-.8-1.72.16-.17.32-.33.49-.49.11-.78.26-1.57-.57-2.1,0-.54-.06-1.08-.09-1.46l-.88-.89c-1.38.66-1.78,2.07-2.43,3.11V135.7l.59.58-.67.73v14.05a1,1,0,0,0,0,.34c0,.1.15.17.34.37h3.35c.45.35.71.54,1,.76h1.91l.69.7h3.46l.56.6h4.12l.76.7h1.3l.82.71h4l.65.64c.67,0,1.45,0,2.24,0s1.72-.25,2.54.54c.46.44,1.57-.09,2.05.8h3.4l1.09.87,1.08-.83c.55-.14,1.07,0,1.65-.26.93-.46,1.75-1.36,3-1.14a9.33,9.33,0,0,0,3.16-2.3c-.13-.76.75-1.11.75-1.74s1-1,.72-1.77.71-1.07.7-1.78.86-.95.79-1.75c0-.29.74-.6.55-1.11-.34-.93.67-1.31.78-2.11a8,8,0,0,1,.82-1.7c.34-.8,1.33-.69,1.88-1.22l1-1h1.34l.76-.7h1.12c.57-.3,1-.48,1.33-.69a7.28,7.28,0,0,1,1.1-.66c.3-.11.71.06,1-.05s.71-.52,1.1-.64a4.36,4.36,0,0,1,1.19,0l1.37-1.38c.42,0,1.08.2,1.29,0,.71-.74,2-.59,2.44-1.64,0-.54.22-1.1-.14-1.61-5.61-.34-11.37-.26-13.54.18v4.15l-1.07,1h-2l-.7-.61L128,136.6ZM77.23,153.82H73.12l-.75-.7h-2l-.81-.71H66.93l-1-1V150c2.35-2.35,4.69-4.7,7-7,.34-.33.61-.65.49-1.13l-2.61-2.62c-.1-.4-.19-.71-.29-1.11-.28,0-.7,0-.88-.17a2.88,2.88,0,0,1-1.1-1.61c-.12-.63-1.42-.47-1.79-1.25a8.84,8.84,0,0,1-.31-1c-1.55-1.56-3.17-3.18-4.79-4.79l-4.77-4.78v-9.68c-3.56-.32-17.65-.29-20.46,0-.52,1.07,1.27,1.65.6,2.76.31.44.81.75.72,1.44,0,.21.43.49.67.74v1.94c1.17,1.53,1.52,3.41,2.66,4.84.12.15.06.44.07.66s0,.45,0,.82c1.15.66,1.44,2,2.08,3.11s1.83,2.15,2.06,3.76c1.74,1.14,2.25,3.46,4,4.61.08.4.15.71.16.76l2,1.34v.8l1.71,1.71,1.7,1.7,1.69,1.7c1-.14,1.41.66,1.88,1.23s1.43.65,1.9,1.21a10.48,10.48,0,0,0,4.06,2.66,10.47,10.47,0,0,1,2.79,1.48A12.49,12.49,0,0,0,70,155.88H71l1.47,1.4h1.3l.82.71h1.77L79,159.4h1.76l.59.59h3.4l.75.7h1.35l.74-.68c3.33,0,6.65,0,10,0,.2,0,.39.17.58.26l.26,1.1h4.92l.88-.74h1.7l2.22-1.15c-1.6-.32-3,0-4.14-.24l-.59-.6c-1-.08-2,.08-2.8-.05l-.69-.66h-3.4l-.77-.71H93l-.63-.63H89.62l-.72-.72H84.78l-.73-.73H81.31l-.73-.72H77.83ZM74.82,80.26V55.48l-1-1.89a2.62,2.62,0,0,0-1.86.3c-.87.58-1.8,1.29-3,1l-.76.7H66.58l-.88,1.31c-.87.11-1.49-.16-1.9.42s-1.33,0-2,.64l-.55.61c-.59,1.77.77,2.92.69,4.35l1.23,1.23v1.36l.68.73V69l-1,1c-.62.15-1.3-.14-1.88.46-.42.44-1.16.47-1.68.91s-1.15-.23-1.56.34-1.28.18-1.87.48c-.4.4-.81.8-1.21,1.21-1.19-.23-2,.74-3,1-.33,6.36-.26,11.51.21,13.53H74.46c.08,0,.17-.14.3-.27V82.4a28.83,28.83,0,0,1-3.27-.13c0-.38-.08-.6-.12-1l1-1.06ZM114,120.72v7.33a5.12,5.12,0,0,0,0,.68c0,.09.15.17.27.3h2.88l.58-.59h3.37l.78-.69,1.43-.08L124,127h4.1l.82-.77c1.37.3,2.86-.17,4.4.28v3c.21.13.3.24.39.24h15c.77-1.35,1.09-2.91,2.35-3.75v-4.22c-1.1-.47-.29-1.71-1-2.34s0-1.74-.41-2.2c-.73-.76-.47-1.66-.8-2.43-.1-.06-.19-.17-.28-.17h-36a.73.73,0,0,0-.33,0,1.26,1.26,0,0,0-.24.22v3.66l1,.37C113.4,119.61,113.65,120.08,114,120.72ZM36.66,112.6H56.6c.09,0,.17-.14.38-.34-.07-.3-.15-.68-.23-1h-.56C55,110,53.92,109,52.78,107.89c0-5.58,0-11.28,0-17,0-.08-.15-.16-.28-.29l-.85.12c-.17.49-.3.89-.43,1.26H49.54l-1.09-1.37c-4.18,0-8.18,0-12.18,0-.19,0-.37.19-.56.29,0,.54-.08,1.08-.1,1.47L35,93v5.47l-.68.74v2.71l.7.78v6.1l.71.81v1.88Zm37.94-1.43c.31-3.26.3-17.38,0-20.44C66.47,90.38,57,90.48,54.9,91v15.12c.94.94,2,1.85,2.86,2.89a10.94,10.94,0,0,0,3.08,2.2ZM72,49.84c-.36-.65-.72-1.28-1-1.92s-.48-1.73-1.67-2a15.91,15.91,0,0,1-2.14,1.16A8.85,8.85,0,0,0,65,48.53a11.15,11.15,0,0,1-2.31,1,.47.47,0,0,0-.24.24c-.49,1-1.72.94-2.41,1.68A6,6,0,0,1,57.93,53c-.88.37-1.49,1.37-2.22,2.1l-3.63,3.64a23.82,23.82,0,0,0-3.57,3.68,22.75,22.75,0,0,1-2.81,3.35C44.51,68,44,69.86,42.56,71.11c0,.58-.06,1-.08,1.35-.42.43-.87.69-1,1.08-.85,1.83-1.77,3.61-2.68,5.41-.1.18-.23.36-.34.54v1.68l-1.36,2.41v1.85l-.7.75c.11.76-.27,1.58.25,2.3H48.46c.13-.16.25-.24.25-.33q0-8.06,0-16.12a.91.91,0,0,1,0-.33,1.09,1.09,0,0,1,.24-.24c.59-.26,1.33.21,1.88-.47.23-.28.91-.23,1.11-.52.44-.63,1.26-.32,1.72-.93s1.62.22,2.07-.75A4.28,4.28,0,0,0,57.48,68c.08,0,.22,0,.34,0a1.65,1.65,0,0,0,1.24-.34,5.55,5.55,0,0,1,1.34-.71c0-.29,0-.51-.09-1.07L59.1,65c-.2-2.17-1.33-3.51-2.13-5.21V56.61l1-1,1.49-.11.62-.62h1.57l1-1.32c.77-.16,1.39.19,1.82-.37s1-.31,1.56-.38.79-.64,1.42-.75,1-.68,1.78-.67c.48,0,.94-.54,1.44-.61C71.36,50.72,71.53,50.1,72,49.84Zm5.43,65a175,175,0,0,0-17.61,0c-.51.81.49,1.12.5,1.19v2.44l-.61.61c0,.52,0,1.09,0,1.65s-.18,1.34.16,2c.74.74,1.47,1.46,2.19,2.19L64,126.86c.72.73,1.45,1.45,2.18,2.18l2.17,2.18a14,14,0,0,0,2,1.9c.91.61.93,1.72,1.66,2.42,1.78,1.71,3.5,3.48,5.31,5.29C77.65,138,77.73,120.2,77.43,114.86ZM79,48.29c.66,1.1,1.87,1,2.5,1.87s1.92.9,2.8,1.48,1.32,1.46,2.29,1.91,1.95,1.56,3.21,1.88l.51-.51h1.33l1.48-1.41h1.34l.94-.94V40.7l-.95-.87H93l-.89.7H86.1l-.59.59H82.15l-.78.68-1.49.1c-.4.45-.7.77-.93,1Zm11,54.35V95.1l-.69-.74c0-.57,0-1.15,0-1.71s.25-1.36-.25-2H80.58c-.85.92.25,1.21.45,1.86v15.54c.71.81.76,2,1.72,2.44h2.06l1-1.9a4,4,0,0,0-.16-2.08l-.5-.47a8.09,8.09,0,0,1,3-1.83l.85.79h5.46l.7-.63a4.91,4.91,0,0,0,.82.62,3.93,3.93,0,0,0,.89.25v.77c.24.25.47.5.71.77,0,1.12,0,2.26,0,3.4,0,.07.3.13.66.28,0-5.91,0-11.71-.06-17.51,0-.06-.29-.12-.44-.17-.08.12-.19.21-.19.3,0,3.19,0,6.38,0,9.63-.56.17-.65,1-1.39.93-.53.09-.66-.51-1-.68H92.43l-1,.71C90.61,103.56,90.38,103,89.94,102.64Zm-12-14.08h11c.09,0,.17-.14.37-.33,0-1.7,0-3.51,0-5.32,0-.18-.22-.35-.25-.39-.61-.34-1.23.16-1.72-.4V80.46l2-.3c0-2.18,0-4.23,0-6.27,0-.09-.1-.19-.16-.28s-.18-.16-.27-.16H85.52l-.78.64-.58-.57H78.8l-2,1v4.78c-.26.29-.26.29-.31,1h5.14a2.51,2.51,0,0,1,.59.22l.86.87-1,1h-4.7l-1.25.94.74.83v3.35ZM89.25,71.33V67.62l.69-.73c0-2.42,0-4.81,0-7.21a1.87,1.87,0,0,0-.25-.59l-1.57-.18c-.45-.45-.83-1.17-1.26-1.2-1-.06-1.25-.89-1.91-1.25a6.34,6.34,0,0,1-1.66-1,11,11,0,0,0-1.87-1.24c-.37-.23-.53-.89-1.06-.72s-.68-.95-1.33-.48v6.36c.82.72.67,2,1.75,2.32l.93,0,2,1.58c.08,1.45-.27,2.68.66,3.77.29.33-.16,1.12.42,1.52s0,1.33.64,2l.7.64ZM95.43,69V62.11a4,4,0,0,0,0-.69c0-.09-.15-.16-.26-.27h-2.9c-.13.15-.25.24-.25.33,0,1.82,0,3.65,0,5.41l.66.75c.28.79-.56,1-.6,1.19v11.3a2.89,2.89,0,0,0,1.68.17c.54,0,1.14.25,1.61-.23V71.29c-.36-.74-.54-1.13-.71-1.48Zm0,31.89V93L95,92.51c-.52-1,.31-1.16.48-1.67V83a.65.65,0,0,0-.08-.31,2.13,2.13,0,0,0-.26-.27H92.37c-.08,0-.17.14-.31.27V92.84c.34.63.55,1,.74,1.36l-.8.92c0,1.75,0,3.58,0,5.4,0,.09.12.18.25.33ZM77.57,151.27c0-2.83,0-5.12,0-7.4,0-.08-.15-.16-.34-.34L72,148.76c-.2.2-.37.44-.7.84a30.36,30.36,0,0,0,3.19.12l.77.7h1.28ZM91.38,59h5.08a4,4,0,0,1,.69,0c.09,0,.16.15.34.33,0,3.09,0,6.28,0,9.47a.47.47,0,0,0,.14.28.81.81,0,0,0,.24.17c.1-.19.29-.37.29-.56q0-6.35,0-12.71c0-.12-.25-.24-.39-.36L96.51,56.9,94.34,57l-.71.7H91.38ZM90,115.35c.76,0,1.21,0,1.66,0s1.13.24,1.62-.22a3.54,3.54,0,0,0-.23-2.52,13,13,0,0,0-1.4,0c-.54.06-1.13-.24-1.65.25ZM71.91,45l1.3,2.44,1.53,1.89V44.85L73.88,44Zm25.93,7c.47-3.65.48-10.69.11-11.43,0,0-.15,0-.23,0A59,59,0,0,0,97.84,52ZM81.65,70.74,79,68.15c-.26.4,0,1-.11,1.51l-.65.72c.34.33.66.66,1,1a4.92,4.92,0,0,0,2.29-.17Zm1.24,44c-.42-.26-1-.11-1.54-.09s-1.14-.25-1.72.3c0,.83,0,1.73,0,2.63,0,.15.24.3.18.23ZM90.1,123c1.15-.24,2.16.09,3.18-.22l.07-.93-1-1h-.94l-1.51,1C90,122.25,90,122.46,90.1,123Zm64.42-5.92c-.09-.78.2-1.57-.2-2.28-.64-.13-1.29-.39-1.84.18a2.23,2.23,0,0,0,.19.24c.15.16.31.32.47.47,0,2.23,0,2.23.41,2.31ZM133.28,55.62c1.05-.12,1.83.16,2.55-.23,0-.1.06-.21,0-.25l-1.56-1.7-1,.25ZM78.35,111.36c.13.64.65.86,1,1.28l.9-.17c-.13-.64-.65-.85-1-1.28Zm11.39-3.22a3.6,3.6,0,0,0,3.14,0A3.54,3.54,0,0,0,89.74,108.14Zm-4.11,6.94c1.69.3,1.69.28,2.12-.2A1.93,1.93,0,0,0,85.63,115.08Zm10.25.17c.09-.09.16-.17.24-.24a2.15,2.15,0,0,0-.46-.22c-.06,0-.15.14-.23.22Z"/><path d="M109.52,176.49l3.64,3.64a3.81,3.81,0,0,0,.5,1.16c.37.39.25.82.34,1.24a10.19,10.19,0,0,0,.64,1.49v4.48l-.66.73a5.76,5.76,0,0,1,0,1.31c-.1.4-.53.62-.72,1.07a5.54,5.54,0,0,1-1.18,2.25c-.57.49-.91,1.36-1.89,1.22-.63,1-1.84,1.18-2.7,1.95H97.06c-.12-.16-.24-.25-.24-.34,0-7.08,0-14.17,0-21.23a1.58,1.58,0,0,1,.27-.26.68.68,0,0,1,.31-.08h8l.66.67h2C108.54,176.09,108.81,176.75,109.52,176.49Zm-8.59,17.18a24.88,24.88,0,0,0,3.6,0c.59-.08,1.1-.55,1.77-.71a4.09,4.09,0,0,0,2.51-1.31,16,16,0,0,0,1-2c.07-.66-.16-1.35.18-2l.49-.48a4.86,4.86,0,0,0-.21-2.35l-.47-.41v-1.95l-2-2.12-3.42-1.78a12.14,12.14,0,0,0-1.59,0c-.64.08-1.38-.34-1.91.33Z"/><path d="M134.93,38.41l-1.69-1.74V17.54a4,4,0,0,0,.9-1.74h13.41a21.8,21.8,0,0,1,.1,3.05l-1.05.94H139c-.23-.24-.39-.4-.6-.6l-1,.93V23.7c.13.12.21.25.3.27a5.15,5.15,0,0,0,.68,0h8.25l1,1v2.05l-1.87,1H139l-.71-.56-.81.8c0,.09-.16.18-.16.27,0,1.82,0,3.64,0,5.4a1.53,1.53,0,0,0,.31.29.68.68,0,0,0,.32.05h9.25c.09,0,.17.11.34.23v2.94l-.71.72a2.14,2.14,0,0,1-.59.22Z"/><path d="M149.09,151.76v4.55a1.47,1.47,0,0,0,.33.25,1,1,0,0,0,.35,0h8.53c.56.49.32,1.1.32,1.63a2.69,2.69,0,0,1-.23,1.77h-9c-.61.83-.27,1.65-.33,2.41a15.73,15.73,0,0,0,0,2.06c.05.78-.23,1.58.27,2.44H159c.18.2.31.29.32.37,0,.91,0,1.83,0,2.74-2.21.43-8.9.51-14.25.16-.06-.09-.17-.18-.17-.27q0-10.63,0-21.26a95.27,95.27,0,0,1,14.35-.08v3c-.11.11-.18.25-.27.26a4,4,0,0,1-.69,0Z"/><path d="M11.62,25.68v-2l.7-.75V21.56l3-3c.48-.06,1.23.08,1.52-.22,1.1-1.16,2-.41,2.94.13a1.43,1.43,0,0,0,1.41-1.19c.09-.85.85-1,1-1.55h1.6a3.69,3.69,0,0,1,.2.92,7.46,7.46,0,0,1-1.36,2.86,2.31,2.31,0,0,1,.78,1.39c.16.48.76.82,1.22,1.28V27c-.65,1.11-1.18,2.46-2.53,3.17-1.12.6-2.45.67-3.59,1.42l-1.28-.75c-1.57.27-1.35,2-2.51,2.72l-1.28.07-1-.88c0-.15.09-.31.14-.47.28-1,1.31-1.77,1-3.3l-1.3-.91V26.44C12.09,26.18,11.85,25.94,11.62,25.68Zm3.75,1c.4-.48,1-.71,1.11-1.53.05-.44.67-.83,1-1.24s.26-1.31.94-1.64c-.42-.72.77-.95.54-1.63-1-.05-1.3.31-2.42.51-1.59.28-1.31,1.87-2.18,2.54v2Zm5.44-4c-.39.5-.25,1.32-.95,1.64.22.86-.59,1.12-.94,1.65a12.25,12.25,0,0,0-1.09,1.93c-.1.22.13.59.2.88h1.51l2.38-2.49c0-1,0-2.13,0-3.26,0-.09-.12-.18-.18-.27s-.18-.15-.27-.15A4.93,4.93,0,0,0,20.81,22.68Z"/><path d="M84.81,1.31l.69,0L86.78,0h3.58c.52.74.17,1.55.27,2.39-.91.56-1.94.17-3.26.35C87,3.21,86.54,3.92,86,4.61l.73.17L87.66,4l2.17,1,2,2a4.46,4.46,0,0,1,.16,2c0,.56,0,1.13,0,1.64L89.78,12.8l-1.92.8h-1.6a7.63,7.63,0,0,1-1.81-1,9.81,9.81,0,0,1-1.31-2v-6Zm2.36,5.11L85.83,8.1V9.91l1,1H88L89.25,10V8.48Z"/><path d="M32.51,30.85l-1.77-1.13,1.06-2.11,4.54-4.54c-.05-.87.21-1.66-.22-2.46H32.55l-.76.59a4.9,4.9,0,0,1-.23-2.4l1-1h4.9l1.6,1.87v3.85l-1.91,1.75A4.5,4.5,0,0,1,35.63,28a16.83,16.83,0,0,0,3.18.16l.91,1.1v1.37c-.15.13-.23.26-.32.26Z"/><path d="M95.84,13H93.72a.78.78,0,0,1-.2-1.16c.67-.86.86-2.07,1.92-2.58V8.06c.39-.76.64-1.35,1-1.89s.77-.81,1-1.28a13.9,13.9,0,0,0,.74-1.7c-.1-.16-.15-.32-.21-.33-1.68-.1-3.36-.18-5.13-.27a4.38,4.38,0,0,1,0-2.59h7.83c.36.56.33,1.31,1.09,1.77-1,1.87-1.91,3.76-2.88,5.64S97.24,11.37,95.84,13Z"/><path d="M46.66,21.58,45,23.26l-1.6-1.5-1,1.47c-1.05.19-1.27-.48-1.7-.79-.06-.09-.17-.18-.17-.27,0-1.36,0-2.73,0-4l1-1h1.36l.72.67.51-.51a2.55,2.55,0,0,1,1.59-.1l1,1Z"/><path d="M111.92,92.62h-1.79c-.13-.15-.26-.24-.26-.32q0-5.11,0-10.23c0-.09.13-.17.21-.26.85-.48,1.16.32,1.65.71.06.09.18.17.18.26C111.92,86,111.92,89.15,111.92,92.62Z"/><path d="M70,80.66V82c-.17.12-.34.35-.52.35-1.57,0-3.14,0-4.78,0-.09-.36-.17-.67-.25-1l1.1-.94c1.33,0,2.77,0,4.21,0C69.85,80.43,69.93,80.58,70,80.66Z"/></g></g></svg>