<svg xmlns="http://www.w3.org/2000/svg" viewBox="0 0 97.86 97.86"><title>Recurso 74MANDALA</title><g id="Capa_2" data-name="Capa 2"><g id="Capa_1-2" data-name="Capa 1"><path d="M51.84,64.16a22.46,22.46,0,0,0,6.13,0A63.68,63.68,0,0,0,74.58,51.42,14.85,14.85,0,0,1,67,54.88c-11.26,6-24.36,9.57-39.87,6.91a25.24,25.24,0,0,0,3.13,6.82,24.37,24.37,0,0,0,2.08,2.74,27.5,27.5,0,0,1-5.38-4.29,60.19,60.19,0,0,1-25.46-8.4A40.15,40.15,0,0,0,3.83,73c22.73,6.85,42.64,1.62,56.51-7.53a17,17,0,0,1-4.68-.17A16.58,16.58,0,0,1,51.84,64.16Z"/><path d="M61.75,57.64a22,22,0,0,0,4.35-4.33,63.89,63.89,0,0,0,2.73-20.75,14.82,14.82,0,0,1-2.93,7.81c-3.72,12.21-10.46,24-23.31,33.09a25.74,25.74,0,0,0,7,2.6,23.32,23.32,0,0,0,3.4.46,27.07,27.07,0,0,1-6.83.78A60.13,60.13,0,0,1,22.26,89.36a39.92,39.92,0,0,0,11.82,8.5c20.92-11.23,31.3-29,34.63-45.29a16.53,16.53,0,0,1-7,5.07Z"/><path d="M64.16,46a22.46,22.46,0,0,0,0-6.13A63.68,63.68,0,0,0,51.42,23.28a14.85,14.85,0,0,1,3.46,7.59c6,11.27,9.57,24.37,6.91,39.88a25.54,25.54,0,0,0,6.82-3.13,24.37,24.37,0,0,0,2.74-2.08,27.79,27.79,0,0,1-4.29,5.38,60.1,60.1,0,0,1-8.4,25.45A39.71,39.71,0,0,0,73,94c6.85-22.72,1.62-42.64-7.53-56.51a17.06,17.06,0,0,1-.17,4.69A16.89,16.89,0,0,1,64.16,46Z"/><path d="M57.64,36.1a22.25,22.25,0,0,0-4.33-4.34A63.62,63.62,0,0,0,32.56,29,14.81,14.81,0,0,1,40.37,32c12.21,3.72,24,10.47,33.09,23.31a25.67,25.67,0,0,0,2.6-7,23.27,23.27,0,0,0,.46-3.41,27.18,27.18,0,0,1,.78,6.83A60.17,60.17,0,0,1,89.36,75.6a40,40,0,0,0,8.5-11.83c-11.23-20.91-29-31.29-45.29-34.63a16.53,16.53,0,0,1,5.07,7Z"/><path d="M46,33.7a21.7,21.7,0,0,0-6.13,0A63.86,63.86,0,0,0,23.28,46.43,14.84,14.84,0,0,1,30.87,43c11.27-6,24.37-9.57,39.88-6.91a25.4,25.4,0,0,0-3.13-6.82,24.37,24.37,0,0,0-2.08-2.74,28.13,28.13,0,0,1,5.38,4.28A60.27,60.27,0,0,1,96.37,39.2,39.71,39.71,0,0,0,94,24.83C71.3,18,51.38,23.2,37.51,32.36a17.06,17.06,0,0,1,4.69.17A16.4,16.4,0,0,1,46,33.7Z"/><path d="M36.1,40.22a22.19,22.19,0,0,0-4.34,4.32A63.71,63.71,0,0,0,29,65.3,14.81,14.81,0,0,1,32,57.49c3.72-12.22,10.47-24,23.31-33.09a26,26,0,0,0-7-2.61,24.71,24.71,0,0,0-3.41-.46,27.64,27.64,0,0,1,6.83-.77A60.17,60.17,0,0,1,75.6,8.5,39.78,39.78,0,0,0,63.77,0C42.86,11.23,32.48,29,29.14,45.29a17,17,0,0,1,3.43-3.2A16.38,16.38,0,0,1,36.1,40.22Z"/><path d="M33.7,51.84a21.7,21.7,0,0,0,0,6.13A63.86,63.86,0,0,0,46.43,74.58,14.83,14.83,0,0,1,43,67c-6-11.26-9.57-24.36-6.91-39.87a25.1,25.1,0,0,0-6.82,3.13,24.37,24.37,0,0,0-2.74,2.08,27.82,27.82,0,0,1,4.28-5.38A60.35,60.35,0,0,1,39.2,1.48,40.15,40.15,0,0,0,24.83,3.83C18,26.56,23.2,46.47,32.36,60.34a17,17,0,0,1,.17-4.68A16.11,16.11,0,0,1,33.7,51.84Z"/><path d="M40.22,61.75a22,22,0,0,0,4.32,4.35A64,64,0,0,0,65.3,68.83a14.82,14.82,0,0,1-7.81-2.93c-12.22-3.72-24-10.46-33.09-23.31a26.1,26.1,0,0,0-2.61,7,24.78,24.78,0,0,0-.46,3.4,27.53,27.53,0,0,1-.77-6.83A60.13,60.13,0,0,1,8.5,22.26,39.74,39.74,0,0,0,0,34.08C11.23,55,29,65.38,45.29,68.71a16.48,16.48,0,0,1-3.2-3.43A15.93,15.93,0,0,1,40.22,61.75Z"/></g></g></svg>