<svg xmlns="http://www.w3.org/2000/svg" viewBox="0 0 87.74 81.94"><title>Recurso 49MANDALA</title><g id="Capa_2" data-name="Capa 2"><g id="Capa_1-2" data-name="Capa 1"><path d="M53.77,33.07a10,10,0,0,0-20.05,0c0,5.54,4.49-3.49,10-3.49S53.77,38.61,53.77,33.07Z"/><path d="M38.42.63A21.65,21.65,0,0,0,21.86,22.17c.12,9,6.06-.84,14.36-5.6a3.67,3.67,0,0,1,5.5,2.93l1.2,18.42a7.56,7.56,0,0,1,.83,0,7.38,7.38,0,0,1,.82,0L45.78,19.5a3.66,3.66,0,0,1,5.43-3c8.41,4.79,14.42,14.83,14.42,5.36A21.92,21.92,0,0,0,38.42.63Z"/><path d="M26.57,45.71a10,10,0,0,0,10,17.37c4.8-2.77-5.26-2.15-8-6.94S31.36,42.94,26.57,45.71Z"/><path d="M6.14,75.22A21.66,21.66,0,0,0,33.08,78.8c7.7-4.59-3.76-4.83-12-9.63a3.67,3.67,0,0,1-.21-6.23L36.19,52.69c-.16-.23-.31-.46-.45-.7s-.26-.49-.38-.74L18.8,59.42a3.65,3.65,0,0,1-5.28-3.22C13.46,46.52,19.15,36.3,11,41A21.92,21.92,0,0,0,6.14,75.22Z"/><path d="M51.05,63a10,10,0,1,0,10.1-17.32c-4.79-2.79.75,5.64-2,10.42S46.26,60.2,51.05,63Z"/><path d="M86.81,66.07A21.66,21.66,0,0,0,76.54,40.91c-7.8-4.41-2.33,5.66-2.39,15.22a3.67,3.67,0,0,1-5.3,3.27L52.33,51.17c-.12.25-.24.49-.38.73s-.3.47-.46.7L66.8,62.91a3.66,3.66,0,0,1-.17,6.19c-8.38,4.86-20.07,5-11.89,9.76A21.92,21.92,0,0,0,86.81,66.07Z"/></g></g></svg>