<svg xmlns="http://www.w3.org/2000/svg" viewBox="0 0 300.09 167.43"><title>Recurso 11MODERN ICON</title><g id="Capa_2" data-name="Capa 2"><g id="Capa_1-2" data-name="Capa 1"><path d="M42,111.6H21.14c-.05,0-.09-.06-.1-.09a1.62,1.62,0,0,1,0-.22V69.89s0,0,.08-.1H41.75l.33.3V111.5S42,111.56,42,111.6Z"/><path d="M27.91,132.55V118.83s0-.06.09-.1H42s.08.06.09.09a1.62,1.62,0,0,1,0,.22v13.5c.13.19.33.12.5.12H55.92c.06.06.11.09.11.12v6.63c-.1.16-.26.11-.4.11H7.17c-.11-.94-.11-5.75,0-6.83l20.67-.06S27.88,132.57,27.91,132.55Z"/><path d="M272.18,90.78H258.3c-.12-1.4-.16-20.84-.06-27.78l.08-.08a.18.18,0,0,1,.1,0H265s.05,0,.12-.09V56.16l.27-.28c.07,0,.13-.07.2-.07h6.52s.07.06.08.09a.17.17,0,0,1,0,.1V76.76l-.14.09a.4.4,0,0,1-.11,0h-6.42l-.1,0-.08.08a.34.34,0,0,0,0,.1v6.54s0,0,.09.12h6.65c.07.06.11.09.12.12a1.61,1.61,0,0,1,0,.22Z"/><path d="M62.88,146.61v6.78c-.05,0-.08.08-.1.08H7.21c-.16-.1-.12-.25-.12-.39V147a2.66,2.66,0,0,1,0-.3s.07-.09.1-.09Z"/><path d="M174.54,132.57V118.8s.05-.07.08-.08.07,0,.11,0h27.55s.05,0,.08.05.06.06.06.09v6.61a.46.46,0,0,1-.1.1h-6.63s-.05,0-.12.08v6.64l-.34.36H174.64S174.59,132.61,174.54,132.57Z"/><path d="M209.51,83.69H195.42s-.08-.07-.08-.1c0-2.21,0-4.43,0-6.63,0,0,.06-.07.09-.09l.1,0h6.76s.05,0,.11-.07V63l-.07-.07h-6.67l-.3-.37V56.14l.28-.3H209.2c.08.07.15.15.23.23a.49.49,0,0,1,.07.19C209.51,65.38,209.51,74.49,209.51,83.69Z"/><path d="M146.53,90.78h-6.69l-.32-.31V56.15l.31-.32h6.69s.08.07.09.1a1.61,1.61,0,0,1,0,.22V90.66S146.57,90.72,146.53,90.78Z"/><path d="M76.94,55.83h6.69l.24.25s.06.05.06.08a1.62,1.62,0,0,1,0,.22v34.1l-.35.3H76.93s-.08-.08-.08-.11V55.94S76.9,55.88,76.94,55.83Z"/><path d="M111.51,0l.31.31V6.78l-.25.25c-1.4.11-22,.15-34.38.06-.1,0-.2,0-.32,0V.1S76.93,0,77,0h34.55Z"/><path d="M167.76,76.85l-.32-.32V56.15l.29-.32h13.56l.25.25s.06.05.06.08a1.62,1.62,0,0,1,0,.22v6.19l-.33.33h-6.75V76.73a1.25,1.25,0,0,1-.12.12.4.4,0,0,1-.11,0Z"/><path d="M265.43,7.09l-.33-.33V.34l.3-.32h27.49l.26.24a.46.46,0,0,1,.07.1.4.4,0,0,1,0,.11V6.76l-.33.33Z"/><path d="M202.44,7.09v-7c.05,0,.08-.08.1-.08h27.67c.15.1.11.26.11.4V6.7a2.51,2.51,0,0,1,0,.3s-.07.09-.1.09Z"/><path d="M118.69,49v6.77s-.08.09-.11.09H112c-.18.15-.11.34-.11.51V69.66c-.07.06-.1.1-.12.1h-6.85a.36.36,0,0,1-.09-.08.36.36,0,0,1,0-.1c0-6.85,0-13.71,0-20.53.07-.06.1-.1.12-.1Z"/><path d="M35,160.65v6.69s-.07.09-.09.09H7.21s-.06-.05-.1-.09v-6.69s.07-.08.1-.08H34.87S34.93,160.61,35,160.65Z"/><path d="M146.63,7V.09a.34.34,0,0,1,.09-.08H167.3l.33.31V6.76l-.3.33H146.74S146.68,7.05,146.63,7Z"/><path d="M300,69.74h-6.91s-.09-.07-.09-.09V49.06s.05-.05.09-.1H300s.08.08.08.1q0,10.3,0,20.59S300,69.7,300,69.74Z"/><path d="M223.24,48.94h7c.06-.06.1-.09.1-.11V42c.14-.18.34-.11.51-.11h6.23l.28.25s.07.08.07.11a1.62,1.62,0,0,1,0,.22V55.7s0,.07-.08.08a.19.19,0,0,1-.1,0H223.34c-.05-.06-.1-.09-.1-.12Z"/><path d="M83.73,139.44v-6.69s.07-.08.1-.09h20.8s.06.05.1.09v6.68s-.06.08-.09.09H83.84S83.78,139.48,83.73,139.44Z"/><path d="M83.72,146.63h20.93c0,.05.09.07.1.1a.4.4,0,0,1,0,.11v6.52c-.1.15-.25.12-.39.12H84.11l-.29,0c0-.05-.1-.07-.1-.1a1.61,1.61,0,0,1,0-.22Z"/><path d="M230.3,160.56v6.78s-.07.09-.1.09H209.4c-.15-.1-.11-.25-.11-.39V161a2.83,2.83,0,0,1,0-.3s.07-.08.1-.08Z"/><path d="M209.3,153.39V146.7s.07-.08.1-.08a.81.81,0,0,1,.22,0h20.59s0,0,.1.09v6.69c-.05,0-.07.08-.1.08H209.4S209.35,153.43,209.3,153.39Z"/><path d="M83.73,167.34v-6.69s.08-.08.1-.08h20.81s0,0,.1.08v6.69s-.08.09-.1.09H83.83S83.78,167.38,83.73,167.34Z"/><path d="M230.3,132.75v6.68s-.06.08-.09.09h-20.8s-.06,0-.1-.08v-6.69s.06-.08.09-.09h20.8S230.26,132.71,230.3,132.75Z"/><path d="M62.91,21V7.17c1-.11,6-.11,7,0V20.73l-.24.24s0,.06-.08.07a.4.4,0,0,1-.11,0Z"/><path d="M237.41,69.75H223.33s-.08-.07-.09-.1a1.62,1.62,0,0,1,0-.22V63a.9.9,0,0,1,.28-.08h13.61l.21,0s.06,0,.07.08a1.61,1.61,0,0,1,0,.22Z"/><path d="M146.63,153.48V146.7c.05,0,.08-.09.1-.09h13.72c.15.1.11.26.11.4v6.08a2.66,2.66,0,0,1,0,.3s-.07.08-.1.08Z"/><path d="M160.56,167.41H146.72c-.05,0-.1-.07-.11-.1a1.61,1.61,0,0,1,0-.22v-6.44a1,1,0,0,1,.28-.08h13.39a1,1,0,0,1,.19,0s.09.05.09.08a1.62,1.62,0,0,1,0,.22Z"/><path d="M160.56,139.51H146.7s-.08-.07-.09-.1a1.62,1.62,0,0,1,0-.22v-6.45a1,1,0,0,1,.29-.08h13.38a.78.78,0,0,1,.21,0s.06.05.07.08a.4.4,0,0,1,0,.11Z"/><path d="M286.13,167.41H272.29a.65.65,0,0,1-.11-.09,1.77,1.77,0,0,1,0-.23v-6.44a1,1,0,0,1,.28-.08h13.39a1,1,0,0,1,.19,0s.08.05.09.08a.4.4,0,0,1,0,.11Z"/><path d="M272.2,153.48V146.7c.05,0,.08-.09.1-.09H286c.15.1.11.26.11.4v6.08a2.66,2.66,0,0,1,0,.3s-.07.08-.1.08Z"/><path d="M286.11,132.75v6.68s-.06.08-.09.09H272.3s-.05,0-.1-.08v-6.69s.07-.08.1-.09H286S286.07,132.71,286.11,132.75Z"/><path d="M7.09,14v7c-.14.18-.33.11-.51.11H.35l-.28-.26a.46.46,0,0,1-.07-.1V14.29L.33,14Z"/><path d="M42.19,62.9l-.32-.32V56.15l.24-.27.11-.07h6.61l.09.09a.3.3,0,0,1,0,.1c0,2.27,0,4.55,0,6.79-.07.06-.1.11-.12.11Z"/><path d="M0,83.72V76.94s.07-.08.1-.09H7c.16.1.12.25.12.39v6.08c0,.11,0,.22,0,.31s-.07.08-.1.08H0Z"/><path d="M7.09,55.79h-7S0,55.72,0,55.69V49.06c.1-.15.26-.11.4-.11H6.7L7,49s.09.07.09.09Z"/><path d="M7.09,14V7.22s0-.06.08-.11h6.91a61.07,61.07,0,0,1,.05,6.78S14.07,14,14,14Z"/><path d="M125.59,14V7.18s.07-.08.1-.09h6.85c.16.1.12.25.12.39v6.08c0,.11,0,.22,0,.31s-.07.08-.1.08a1.61,1.61,0,0,1-.22,0Z"/><path d="M188.47,13.94h-7c-.05,0-.1-.07-.11-.1a1.62,1.62,0,0,1,0-.22V7.21c.1-.16.25-.12.39-.12h6.3l.29,0s.1.07.1.09a.83.83,0,0,1,0,.22Z"/><path d="M188.49,111.62v-6.77s.06-.09.09-.09h6.86c.15.1.11.26.11.4v6.08a2.83,2.83,0,0,1,0,.3s-.06.08-.09.09h-6.95Z"/><path d="M251.36,13.94h-7s-.09-.08-.09-.1V7.2c.1-.15.25-.11.39-.11H251l.3,0s.09.07.09.1Z"/></g></g></svg>