<svg xmlns="http://www.w3.org/2000/svg" viewBox="0 0 142.72 593.76"><title>Recurso 11ART</title><g id="Capa_2" data-name="Capa 2"><g id="Capa_1-2" data-name="Capa 1"><path d="M69.14,437.56,67,435.39a4.91,4.91,0,0,0-1.13,1c-.38.35-.73.73-1.06,1.06a1.25,1.25,0,0,1-.23,0l-4.23-4.23c0-.45.42-.59.65-.86s.45-.44.66-.67.58-.45.73-.87l-2-2.05c.07-.47.45-.62.68-.89s.45-.44.66-.68.59-.44.71-.88l-2-2c0-.13,0-.19,0-.23a1.52,1.52,0,0,1,.22-.22L62.39,422a6.12,6.12,0,0,0-1-1.13c-.35-.37-.73-.73-1.06-1.07.12-.4.41-.56.61-.78s.52-.52.78-.78l.65-.65c-.05-.45-.44-.6-.66-.87s-.46-.44-.67-.67-.58-.45-.71-.88l2-2c0-.14,0-.21,0-.24a1.61,1.61,0,0,0-.22-.23l-1.84-1.84a4.91,4.91,0,0,1,1-1.12c.35-.38.73-.74,1.14-1.15-.7-.79-1.45-1.43-2.11-2.17,0-.42.43-.56.65-.83s.45-.45.66-.68.58-.45.73-.87l-2-2.05c.08-.46.45-.62.68-.89s.44-.45.67-.67l.79-.79-2.13-2.13c0-.12,0-.19,0-.22a1.2,1.2,0,0,1,.22-.23l1.84-1.84a6.55,6.55,0,0,0-1-1.13c-.35-.37-.73-.73-1.06-1.07.12-.39.41-.55.62-.78s.51-.52.77-.78l.65-.65c-.05-.45-.44-.6-.66-.86s-.46-.44-.67-.68-.58-.44-.71-.88l2-2c0-.15,0-.22,0-.25l-.22-.23L58,381.79a5.15,5.15,0,0,1,1-1.12c.35-.38.72-.74,1.14-1.15-.71-.78-1.45-1.44-2.11-2.16,0-.43.42-.57.65-.84s.44-.45.67-.68l.79-.79-2.11-2.11a1.8,1.8,0,0,1,0-.24.38.38,0,0,1,.11-.11l1.89-1.9c.06-.32-.22-.45-.39-.62-.54-.56-1.1-1.11-1.62-1.63a1.23,1.23,0,0,1,0-.22c0-.05.07-.08.11-.12l1.88-1.89c0-.45-.42-.58-.64-.85a8.47,8.47,0,0,0-.67-.67l-.81-.82,1.15-1.15,1-1c-.06-.45-.44-.6-.67-.86s-.45-.44-.66-.68-.58-.44-.71-.88l2-2c0-.13,0-.2,0-.23a2.34,2.34,0,0,0-.22-.23L58,355a5.2,5.2,0,0,1,1-1.13c.35-.38.73-.74,1-1.06,0-.14,0-.19,0-.24s-.07-.07-.1-.11l-1.88-1.88c0-.45.43-.59.65-.86s.45-.44.67-.68.57-.44.71-.87l-2-2a1.8,1.8,0,0,1,0-.24s.07-.07.11-.11l1.9-1.9c0-.32-.23-.44-.4-.62-.54-.56-1.1-1.11-1.62-1.62a1.41,1.41,0,0,1,0-.23c0-.05.07-.08.11-.12l1.88-1.88c0-.45-.42-.59-.64-.86s-.45-.44-.67-.67-.57-.46-.72-.87l2-2c-.06-.47-.44-.62-.67-.89s-.44-.45-.67-.67l-.79-.8,2.12-2.12c0-.13,0-.19,0-.23a1.52,1.52,0,0,0-.22-.22L58,328.2a5.52,5.52,0,0,1,1-1.13c.35-.38.73-.73,1.07-1.07-.12-.4-.41-.56-.62-.78s-.51-.52-.77-.78l-.66-.65c0-.45.44-.6.66-.87s.45-.45.67-.67l.79-.79-2.11-2.12a1.61,1.61,0,0,1,0-.23c0-.05.07-.08.11-.12.63-.63,1.27-1.26,1.9-1.9,0-.32-.23-.44-.4-.62-.54-.56-1.1-1.1-1.7-1.7.69-.79,1.44-1.44,2.1-2.17,0-.43-.42-.56-.64-.83s-.46-.44-.67-.68-.57-.45-.72-.87l2-2.05c-.07-.47-.45-.62-.68-.89s-.45-.45-.67-.67l-.79-.79,2.12-2.13c0-.12,0-.19,0-.22a1.61,1.61,0,0,0-.22-.23l-4.07-4.07a5.52,5.52,0,0,1,1-1.13c.35-.37.73-.73,1.06-1.07-.12-.4-.4-.55-.61-.78s-.52-.52-.78-.78l-.65-.65c0-.45.43-.6.66-.87s.46-.44.67-.67.57-.45.71-.88l-2-2c0-.13,0-.19,0-.23s.07-.08.11-.12l2-1.95a5.1,5.1,0,0,0-1-1.12c-.36-.38-.73-.74-1.14-1.14.68-.8,1.44-1.44,2.1-2.18,0-.43-.42-.56-.65-.83s-.45-.44-.66-.68a2.64,2.64,0,0,1-.73-.87l2.05-2.05c-.07-.47-.45-.62-.68-.89s-.45-.44-.66-.67-.59-.44-.7-.88l2-2c0-.12,0-.19,0-.22a1.58,1.58,0,0,0-.22-.23l-1.83-1.84a6.12,6.12,0,0,1,1-1.13c.35-.37.73-.73,1.06-1.07-.12-.39-.41-.55-.61-.78s-.52-.52-.78-.78l-.65-.65c0-.45.44-.59.66-.86s.46-.44.67-.68.58-.44.71-.87l-2-2a1.73,1.73,0,0,1,0-.24.29.29,0,0,1,.11-.11l2-1.95a4.93,4.93,0,0,0-1-1.13c-.36-.38-.73-.74-1.14-1.15.69-.78,1.44-1.43,2.1-2.17,0-.42-.42-.56-.65-.83s-.45-.44-.66-.68-.58-.45-.73-.86l2.05-2.05c-.07-.47-.45-.63-.68-.89s-.45-.44-.66-.68-.59-.44-.7-.88l2-2c0-.12,0-.19,0-.22a2.34,2.34,0,0,0-.22-.23l-1.83-1.83a5.82,5.82,0,0,1,1-1.13c.36-.38.73-.74,1.07-1.07a2,2,0,0,0-.62-.78c-.25-.27-.52-.53-.78-.79l-.65-.65c0-.44.44-.59.67-.86s.45-.44.66-.68.58-.44.71-.87l-2-2a1,1,0,0,1,0-.25s.07-.07.1-.11l2-2a5.2,5.2,0,0,0-1-1.13c-.35-.38-.73-.73-1.14-1.14.7-.79,1.45-1.44,2.11-2.17,0-.43-.43-.57-.65-.84s-.45-.44-.66-.67-.58-.45-.73-.87l2-2a.68.68,0,0,0,0-.23c0-.05-.06-.08-.1-.12l-1.9-1.89c0-.33.23-.45.4-.62.54-.57,1.1-1.11,1.61-1.63a.92.92,0,0,0,0-.23s-.07-.07-.11-.11l-1.88-1.89c0-.45.41-.58.64-.85s.44-.45.66-.68l.74-.73a2,2,0,0,0-.63-.78c-.24-.27-.51-.52-.77-.78l-.65-.65c.06-.45.44-.6.67-.87s.44-.45.66-.67L58,212l-2.12-2.12a.68.68,0,0,1,0-.23c0-.05.07-.08.1-.12l2-1.95a5.15,5.15,0,0,0-1-1.12c-.35-.38-.73-.74-1.06-1.07,0-.13,0-.19,0-.23l.11-.11,1.88-1.88c0-.45-.43-.59-.65-.86s-.46-.44-.67-.68-.57-.45-.72-.87l2-2a.78.78,0,0,0,0-.24s-.06-.08-.1-.11l-1.9-1.9c0-.32.23-.45.4-.62.54-.56,1.1-1.11,1.62-1.63a1.23,1.23,0,0,0,0-.22c0-.05-.07-.08-.11-.12l-1.89-1.88c0-.45.43-.59.65-.86s.45-.44.66-.67.57-.46.73-.87l-2-2.05c.07-.47.45-.63.68-.89s.44-.45.66-.68l.8-.79-2.13-2.12a.92.92,0,0,1,0-.23.29.29,0,0,1,.11-.11l1.94-1.95a5.2,5.2,0,0,0-1-1.13c-.35-.38-.73-.74-1.07-1.07.12-.4.41-.56.61-.78s.52-.53.78-.79l.65-.65c0-.45-.43-.59-.66-.86s-.44-.45-.66-.67l-.8-.8L57.87,172a.78.78,0,0,0,0-.24s-.06-.07-.1-.11l-1.9-1.9c0-.32.23-.44.4-.62.54-.56,1.1-1.11,1.7-1.7-.69-.79-1.44-1.44-2.1-2.17,0-.43.42-.57.64-.84s.45-.44.67-.67.57-.46.72-.87l-2-2c.07-.47.45-.62.68-.89s.45-.44.66-.68.59-.44.71-.87l-2-2c0-.13,0-.19,0-.23a1.52,1.52,0,0,1,.22-.22L57.93,154a5.82,5.82,0,0,0-1-1.13c-.36-.37-.73-.73-1.07-1.07.12-.4.41-.56.62-.78s.51-.52.77-.78l.65-.65c0-.45-.43-.6-.66-.87s-.45-.44-.66-.67-.58-.45-.72-.88l2-2a.68.68,0,0,0,0-.23c0-.05-.07-.08-.1-.12l-1.95-1.95a4.65,4.65,0,0,1,1-1.12c.35-.38.73-.74,1.13-1.14-.67-.81-1.44-1.44-2.09-2.18,0-.43.42-.56.64-.83s.46-.44.67-.68.57-.45.72-.87l-4.28-4.28c.07-.47.45-.62.68-.89s.45-.44.66-.68.59-.44.7-.84l-6.53-6.53c-.09,0-.16,0-.19,0s-.15.15-.23.22l-1.83,1.84a5.82,5.82,0,0,1-1.13-1c-.38-.36-.74-.73-1.07-1.07-.4.12-.56.41-.78.62s-.53.51-.79.78l-.65.64c-.45,0-.59-.43-.86-.66s-.44-.45-.68-.66-.44-.58-.87-.72l-2,2a.61.61,0,0,1-.24,0s-.07-.07-.11-.1l-1.95-2a4.71,4.71,0,0,0-1.13,1c-.38.35-.73.73-1.14,1.14-.79-.69-1.44-1.44-2.17-2.11-.43,0-.57.43-.84.66s-.44.45-.67.66-.45.57-.87.72l-2.07-2.07c-.49.14-.68.55-1,.82s-.6.59-.9.88l-.89.9-.9.89-.9.9-2.13-2.12c-.12,0-.19,0-.22,0s-.15.14-.23.21l-1.83,1.84a5.82,5.82,0,0,1-1.13-1c-.38-.36-.74-.73-1.06-1.06-.14,0-.21,0-.24,0l-2,2c-.44,0-.59-.44-.86-.67s-.44-.45-.68-.66-.44-.58-.87-.71l-2,2a1,1,0,0,1-.25,0s-.07-.07-.11-.1l-2-1.95a5.15,5.15,0,0,0-1.13,1c-.38.36-.73.73-1.06,1.06a1.25,1.25,0,0,1-.23,0l-2-2c0-.45.43-.59.66-.86s.45-.44.66-.68.57-.45.72-.87L0,118.35a94.28,94.28,0,0,1,6.7-6.72l2.05,2.05a.92.92,0,0,0,.23,0c.08-.07.15-.15.22-.22L11,111.6a6.55,6.55,0,0,1,1.13,1c.37.35.73.72,1.07,1.06a2.06,2.06,0,0,0,.78-.62c.27-.25.52-.52.78-.78l.64-.64a.58.58,0,0,1,.2,0,.22.22,0,0,1,.12.09l4.13,4.13a.82.82,0,0,0,.22,0l2-2c.15,0,.22,0,.25,0a1.61,1.61,0,0,1,.23.22L24.43,116a5.2,5.2,0,0,0,1.13-1c.37-.35.73-.73,1.14-1.14.78.71,1.44,1.44,2.16,2.11.43,0,.58-.43.84-.65s.45-.45.68-.67l.79-.8,2.11,2.12a.75.75,0,0,0,.24,0,.35.35,0,0,0,.11-.1c.64-.63,1.27-1.27,1.9-1.9.33-.05.45.22.62.39l1.63,1.62a1,1,0,0,0,.23,0s.07-.07.11-.11L40,113.89c.45,0,.58.42.85.65s.45.44.67.66l.82.82,1.15-1.15c.33-.33.66-.67,1-1,.45,0,.6.44.87.67s.44.45.67.66.44.58.88.71l2-2c.13,0,.2,0,.23,0l.23.22L51.22,116a5.2,5.2,0,0,0,1.13-1c.38-.35.74-.73,1.07-1.06a1.09,1.09,0,0,1,.23,0,1.14,1.14,0,0,1,.11.11l1.89,1.89a38.13,38.13,0,0,0,4.49-4.43l-2-2a1.8,1.8,0,0,1,0-.24s.07-.07.11-.11c.63-.63,1.26-1.27,1.9-1.9,0-.32-.23-.44-.4-.62-.54-.56-1.1-1.11-1.62-1.62a1.41,1.41,0,0,1,0-.23s.07-.08.11-.12l1.88-1.88c0-.45-.42-.59-.64-.86s-.45-.44-.67-.67-.57-.46-.72-.87l4.28-4.28c-.07-.48-.45-.63-.68-.89s-.45-.44-.66-.68-.58-.44-.71-.88l2-2c0-.13,0-.2,0-.23a2.34,2.34,0,0,0-.22-.23l-1.83-1.83a5.47,5.47,0,0,1,1-1.13c.36-.38.73-.74,1.07-1.07-.12-.4-.41-.56-.61-.78s-.52-.53-.78-.79l-.65-.65c0-.45.43-.59.66-.86s.44-.45.66-.67l.8-.8-2.12-2.11a.78.78,0,0,1,0-.24s.07-.07.1-.11c.64-.63,1.27-1.27,1.9-1.9.05-.32-.23-.44-.4-.62-.54-.56-1.1-1.11-1.62-1.62a1.41,1.41,0,0,1,0-.23.63.63,0,0,1,.11-.12l1.89-1.88c0-.45-.43-.59-.65-.86s-.45-.44-.66-.67-.58-.46-.73-.87l2.05-2c-.07-.47-.45-.62-.68-.89s-.45-.44-.66-.68-.59-.44-.71-.87l2-2c0-.13,0-.19,0-.23a1.52,1.52,0,0,0-.22-.22l-1.78-1.78a.46.46,0,0,1,0-.17.24.24,0,0,1,.07-.13l4.13-4.13s0-.09,0-.15c-.1-.31-.39-.47-.59-.69s-.52-.53-.78-.79l-.65-.65c0-.45.43-.59.66-.86a8.47,8.47,0,0,1,.67-.67l.79-.8-2.11-2.11a.9.9,0,0,1,0-.24s.07-.07.11-.11c.63-.63,1.26-1.27,2-1.95a4.93,4.93,0,0,0-1-1.13c-.36-.38-.73-.73-1.14-1.14.68-.8,1.44-1.43,2.1-2.17,0-.43-.42-.57-.65-.84s-.45-.44-.66-.67-.57-.45-.73-.87l2-2.05c-.07-.47-.45-.62-.68-.89s-.44-.45-.66-.67l-.79-.8,4.35-4.35c0-.13,0-.2,0-.23l-.22-.23-6.31-6.3a6.12,6.12,0,0,1,1-1.13c.36-.37.73-.73,1.07-1.07.4.12.56.41.78.62s.52.52.78.78l.65.65c.45-.05.6-.44.87-.67a6.06,6.06,0,0,0,.67-.67c.24-.26.58-.44.71-.87l-4.26-4.26c0-.14,0-.19,0-.24a.38.38,0,0,1,.11-.11l2-2L69,22.09s.1,0,.24.05l4.37-4.37,4.32,4.32s.1,0,.24.05l4.37-4.37,2.11,2.11a.75.75,0,0,1,0,.2l-4.26,4.26c0,.47.43.61.66.88s.44.44.66.67l.72.72c0,.13,0,.2,0,.23l-4.32,4.33c-.7-.7-1.4-1.41-2.11-2.1,0,0-.09,0-.23,0L73.81,31a.27.27,0,0,0-.09.12.65.65,0,0,0,0,.14l2.06,2.06c.1,0,.16,0,.19,0,.71-.69,1.41-1.39,2.11-2.09l2.17,2.17a5.1,5.1,0,0,1-1,1.12c-.36.38-.73.74-1.14,1.15.68.79,1.44,1.44,2.1,2.17,0,.43-.42.56-.65.83s-.44.45-.66.68l-.8.79,2.12,2.12c-.06.48-.44.63-.67.9s-.46.44-.67.67-.58.44-.7.88l4.26,4.26a.68.68,0,0,1,0,.23s-.07.08-.11.12L80.37,51.2a4.93,4.93,0,0,0,1,1.13c.36.38.73.74,1.14,1.15-.69.78-1.44,1.43-2.1,2.17,0,.42.42.56.65.83s.45.44.66.68.57.45.72.86l-2,2c.08.47.45.63.68.89s.45.45.67.68l.79.79-2.12,2.12a.68.68,0,0,0,0,.23c.07.08.15.15.22.22l1.84,1.84a5.82,5.82,0,0,1-1,1.13c-.35.37-.73.73-1.07,1.07.12.4.41.55.62.78s.52.52.78.78l.65.65c0,.45-.44.6-.66.87s-.46.44-.67.67-.57.45-.71.87l2,2a1.77,1.77,0,0,1,0,.24.38.38,0,0,1-.11.11c-.63.64-1.26,1.27-1.9,1.9,0,.32.23.45.4.62l3.85,3.86c0,.13,0,.19,0,.22a2.44,2.44,0,0,1-.22.23l-1.84,1.84a6.55,6.55,0,0,0,1,1.13c.35.37.72.73,1.06,1.07a2.06,2.06,0,0,1-.62.78c-.25.27-.52.52-.78.78l-.64.65c0,.45.43.59.66.86s.45.44.66.68.58.44.72.87l-2,2c0,.13,0,.2,0,.24a1.52,1.52,0,0,0,.22.22l1.83,1.84a4.51,4.51,0,0,1-1,1.13c-.35.38-.73.73-1.14,1.14.69.79,1.44,1.44,2.11,2.17,0,.43-.43.57-.65.83s-.45.45-.66.68-.57.45-.73.87l2.05,2c-.07.48-.45.63-.68.9s-.45.44-.66.67-.58.45-.71.88l2,2c0,.13,0,.2,0,.23a1.58,1.58,0,0,1-.22.23l-1.78,1.78A32.24,32.24,0,0,0,87,116c.74-.65,1.38-1.4,2.12-2.06.42,0,.56.43.83.65s.44.46.68.67.45.57.87.72l2.06-2.07c.49.14.68.55,1,.81s.6.59.89.89l.9.89c.29.3.58.61.89.89s.51.66,1,.84l2.06-2.05c.12,0,.19,0,.22,0s.23.22.34.33l1.67,1.67a.85.85,0,0,0,.16,0,.29.29,0,0,0,.13-.08l4.13-4.12s.1,0,.14,0a.36.36,0,0,1,.15,0,1.14,1.14,0,0,1,.11.11l1.88,1.88c.45,0,.59-.43.86-.66s.44-.45.68-.66.45-.57.87-.72l2,2a.68.68,0,0,0,.23,0,.38.38,0,0,0,.12-.1l1.9-1.9c.32-.05.44.22.62.39l1.62,1.62c.13,0,.19,0,.23,0s.15-.15.23-.22l1.83-1.84a6.55,6.55,0,0,1,1.13,1c.38.35.73.73,1.07,1.06.4-.12.56-.41.78-.61s.52-.52.78-.78l.65-.65c.45,0,.6.43.87.66s.44.45.67.66.45.58.88.72l2-2c.13,0,.19,0,.23,0s.08.07.12.11l1.89,1.89c.32,0,.45-.23.62-.4.56-.54,1.11-1.1,1.71-1.7.78.69,1.43,1.44,2.16,2.11.43,0,.57-.42.84-.65s.44-.45.67-.66.46-.57.85-.72l2.09,2.08c-.05.4-.44.55-.66.82s-.45.45-.67.68l-.79.79,4.33,4.33c0,.15,0,.22,0,.25a1.52,1.52,0,0,1-.22.22l-4.07,4.07a5.1,5.1,0,0,1-1.12-1c-.38-.36-.74-.73-1.15-1.14-.79.69-1.43,1.44-2.17,2.1-.42,0-.56-.42-.83-.65s-.44-.45-.68-.66-.45-.57-.86-.72l-2.05,2c-.47-.08-.63-.45-.89-.68s-.44-.46-.68-.67-.44-.58-.88-.7l-2,2c-.13,0-.2,0-.23,0s-.22-.22-.34-.33L122.79,125a5.52,5.52,0,0,0-1.13,1c-.38.35-.73.73-1.06,1-.14,0-.19,0-.23,0s-.08-.07-.12-.11l-1.88-1.88c-.45,0-.59.44-.86.66s-.44.45-.67.66-.45.58-.87.72l-2-2a1.65,1.65,0,0,0-.23,0s-.08.07-.12.11l-1.89,1.89c-.33.06-.45-.22-.62-.39-.56-.54-1.11-1.1-1.63-1.62-.13,0-.19,0-.22,0a1.2,1.2,0,0,0-.23.22l-1.77,1.77a1.07,1.07,0,0,1-.18,0,.23.23,0,0,1-.12-.08l-4.14-4.12s-.09,0-.14,0c-.31.09-.47.38-.7.59s-.52.51-.78.78l-.65.64c-.45,0-.6-.43-.86-.66s-.44-.45-.68-.66-.45-.58-.87-.72l-2,2a.75.75,0,0,1-.24,0s-.08-.07-.11-.1l-1.9-1.9c-.25,0-.37.14-.51.28-2,2-4,4-5.92,5.92l-.27.32a.47.47,0,0,0,0,.19.52.52,0,0,0,.1.11l1.89,1.89a1,1,0,0,1,0,.17.57.57,0,0,1-.08.13L84.92,136s0,.09,0,.15c.11.31.39.47.6.69s.52.52.78.79l.64.64c-.05.45-.43.6-.66.87s-.45.44-.66.67-.58.45-.72.88l2,2c0,.13,0,.2,0,.23a1.58,1.58,0,0,1-.22.23l-1.9,1.9-1.89-1.9-.22-.22s-.1,0-.23,0c-.51.52-1.06,1.07-1.62,1.62-.18.17-.3.44-.62.39l-2.11-2.12,2.09-2.1s0-.1,0-.23l-1.94-1.93a.27.27,0,0,0-.12-.09.66.66,0,0,0-.14,0L76,140.52c0,.09,0,.16,0,.19l2.1,2.1c-.7.7-1.41,1.4-2.1,2.11,0,0,0,.09,0,.23l.72.71c.22.22.46.43.66.67s.62.41.65.88l-2,2c0,.1,0,.17,0,.2.69.7,1.4,1.4,2.1,2.1l-2.18,2.18a4.91,4.91,0,0,0,1,1.12c.35.38.73.74,1.13,1.15-.68.79-1.44,1.43-2.1,2.17,0,.43.43.56.65.83s.45.44.66.68.58.45.73.87l-2,2c.07.47.45.62.68.89s.44.45.66.67l.8.79L76,167.27c0,.12,0,.19,0,.22a1.58,1.58,0,0,0,.22.23L78,169.56a5.76,5.76,0,0,1-1,1.12c-.35.38-.73.74-1.06,1.08.12.39.41.55.61.78s.52.52.78.78L78,174c0,.45-.43.59-.66.86s-.44.45-.67.68l-.79.79L78,178.41c0,.14,0,.2,0,.24a2.28,2.28,0,0,1-.22.22l-1.84,1.84a4.75,4.75,0,0,0,1,1.13c.35.38.73.74,1.13,1.14-.68.8-1.44,1.44-2.1,2.18,0,.42.43.56.65.83s.45.44.66.67.58.46.73.87l-2,2.05c.07.47.45.63.68.89s.45.44.66.68.59.44.71.88l-2,2c0,.13,0,.19,0,.23a1.52,1.52,0,0,0,.22.22L78,196.35a5.82,5.82,0,0,1-1,1.13c-.35.38-.73.73-1,1.06,0,.14,0,.19,0,.23s.07.08.1.12l4,4a.54.54,0,0,1,.09.12c0,.42-.43.56-.66.83s-.45.44-.66.68-.58.44-.72.87l2,2c0,.13,0,.2,0,.24a1.52,1.52,0,0,1-.22.22l-1.83,1.84a4.71,4.71,0,0,0,1,1.13c.35.38.73.73,1.14,1.14-.69.79-1.45,1.44-2.11,2.17,0,.43.43.57.65.84s.46.44.67.67.57.45.72.87l-4.28,4.28c.07.47.45.63.68.89a5.3,5.3,0,0,0,.67.67c.26.24.44.59.88.71l4.26-4.27c.13,0,.2,0,.23,0l2.06,2a5.82,5.82,0,0,1-1,1.13c-.35.38-.73.74-1.06,1.07.12.4.41.56.61.78s.52.53.78.79l.65.65c0,.45-.43.59-.66.86s-.46.44-.67.68-.57.44-.71.87L86.9,232c0,.14,0,.2,0,.24a1.52,1.52,0,0,1-.22.22l-4.07,4.07a4.93,4.93,0,0,0,1,1.13c.36.38.73.74,1.14,1.14-.68.8-1.44,1.44-2.1,2.18,0,.42.42.56.65.83s.45.44.66.68a2.71,2.71,0,0,1,.73.86l-2,2.05c.07.47.45.63.68.9s.44.45.66.67l.79.79-2.12,2.13c0,.12,0,.19,0,.22a2.34,2.34,0,0,0,.22.23l1.83,1.83a5.82,5.82,0,0,1-1,1.13c-.35.38-.73.74-1.06,1.07.12.4.41.56.61.78s.52.53.78.79l.65.65c0,.45-.43.59-.66.86s-.45.45-.67.67l-.79.8L84.66,261c0,.13,0,.2,0,.24a2.28,2.28,0,0,1-.22.22l-1.9,1.9-2.1-2.1s-.1,0-.23,0l-1.94,1.93a.42.42,0,0,0-.08.12.65.65,0,0,0,0,.14l2.06,2.07c.09,0,.16,0,.19,0l2.1-2.1,2.12,2.12c0,.32-.23.44-.4.62-.54.56-1.1,1.11-1.61,1.62,0,.13,0,.19,0,.23a2.28,2.28,0,0,0,.22.22L84.72,270a6.12,6.12,0,0,1-1,1.13c-.35.37-.73.73-1.06,1.07.12.39.4.55.61.78s.52.52.78.78l.65.65c0,.45-.43.59-.66.86s-.45.44-.66.68-.58.44-.72.86l2.05,2c-.08.47-.45.62-.68.89s-.46.44-.66.68-.59.44-.71.87l2,2a.88.88,0,0,1,0,.22s-.07.08-.11.12l-1.94,1.94a5.2,5.2,0,0,0,1,1.13c.35.38.73.73,1.13,1.14-.68.8-1.44,1.43-2.1,2.17,0,.43.42.56.65.83s.45.45.66.68a2.71,2.71,0,0,1,.73.86l-2,2c.06.48.44.63.67.89s.44.45.67.68l.79.79-4.38,4.38c.14.48.55.67.81,1s.59.6.89.9L83,304c.3.3.61.58.89.9s.66.51.82.94l-2.08,2.08a.46.46,0,0,1-.18,0l-.34-.33-1.67-1.67h-.16a.27.27,0,0,0-.13.07l-6.42,6.41c0,.13,0,.2,0,.23l2,2c.45,0,.59-.42.86-.64s.45-.45.67-.67l.73-.73c.4.12.56.41.78.62s.52.51.78.77l.65.65c.45,0,.6-.43.87-.66s.44-.45.67-.66.45-.58.85-.71l2.09,2.09c-.12.43-.53.62-.8.93s-.59.6-.88.9l-.9.89-.89.89-.9.9,4.34,4.34c0,.14,0,.2,0,.24s-.07.08-.11.12l-2,2-2.17-2.17a4.93,4.93,0,0,0-1.13,1c-.38.36-.73.73-1.06,1.06a1.41,1.41,0,0,1-.23,0s-.08-.07-.12-.11l-4.11-4.12c-.45,0-.59.43-.86.66s-.45.44-.67.66l-.8.8,2.12,2.12c-.07.47-.45.62-.68.89s-.44.45-.66.68l-.79.79,2.12,2.12c0,.13,0,.19,0,.23a1.52,1.52,0,0,1-.22.22l-1.83,1.84a6.12,6.12,0,0,0,1,1.13c.35.38.73.73,1.06,1.06,0,.14,0,.2,0,.23l-2,2c0,.45.44.6.67.87s.45.44.66.67.58.45.71.88l-2,2c0,.14,0,.21,0,.24a2.44,2.44,0,0,0,.22.23l1.84,1.84a5,5,0,0,1-1,1.13c-.35.37-.72.73-1,1.06a1.41,1.41,0,0,0,0,.23.57.57,0,0,0,.11.11l1.88,1.88a.56.56,0,0,1,0,.19.28.28,0,0,1-.08.12l-4.13,4.13s0,.1,0,.22l2,2c-.08.47-.45.62-.68.89s-.44.45-.67.68l-.79.79,2.13,2.13a.88.88,0,0,1,0,.22.38.38,0,0,1-.11.11l-1.89,1.89c0,.45.42.58.65.85s.44.45.66.68l.73.73a1.92,1.92,0,0,1-.62.78c-.25.27-.52.52-.78.79l-.64.64c0,.45.44.6.66.87s.46.44.67.67.58.45.71.88l-2,2c0,.13,0,.2,0,.23a2.44,2.44,0,0,0,.22.23l1.84,1.84a5.2,5.2,0,0,1-1,1.13c-.35.37-.73.73-1.06,1.06a1.09,1.09,0,0,0,0,.23l.11.11,1.88,1.88c0,.45-.43.6-.66.86s-.44.45-.66.68l-.8.79,2.12,2.11a.75.75,0,0,1,0,.24.52.52,0,0,1-.1.11l-1.9,1.9c-.05.33.22.45.39.62l1.62,1.63a1,1,0,0,1,0,.23s-.07.07-.11.11l-1.89,1.89c0,.45.42.58.65.85s.45.44.66.68a2.71,2.71,0,0,1,.73.86l-2.05,2c.07.48.45.63.68.9s.45.44.66.67.58.44.71.88l-2,2c0,.13,0,.2,0,.23a2.34,2.34,0,0,0,.22.23l1.83,1.83a5.47,5.47,0,0,1-1,1.13c-.36.38-.73.74-1.07,1.08.12.39.41.55.61.77s.52.53.78.79l.65.65c0,.45-.43.59-.66.86s-.45.44-.66.68-.58.45-.72.87l2,2a.78.78,0,0,1,0,.24.52.52,0,0,1-.1.11l-1.9,1.9c-.05.32.23.44.4.62.54.56,1.1,1.11,1.61,1.62,0,.13,0,.19,0,.23s-.07.08-.1.12l-1.89,1.88c0,.45.43.59.65.86s.45.44.66.67.57.46.73.87l-2.05,2.05c.07.47.45.63.68.89s.45.44.66.68.59.44.71.88l-2,2c0,.13,0,.19,0,.23a2.34,2.34,0,0,0,.22.23l1.83,1.83a5.77,5.77,0,0,1-1,1.13c-.36.38-.73.73-1.07,1.07.12.4.41.56.61.78s.52.53.78.79l.65.65c0,.45-.43.59-.66.86s-.45.44-.66.68-.58.44-.72.87l2,2c0,.13,0,.2,0,.23a1.2,1.2,0,0,1-.22.23Zm-4.46-259-2.1,2.1s0,.1,0,.23l1.93,1.94a.32.32,0,0,0,.12.08.65.65,0,0,0,.14,0l2.07-2.06a1.25,1.25,0,0,0,0-.19l-2.1-2.1,2.1-2.1a1.25,1.25,0,0,0,0-.23l-1.93-1.94a.42.42,0,0,0-.12-.08.38.38,0,0,0-.15,0l-2.06,2.06c0,.09,0,.16,0,.19Zm0-26.8-2.1,2.11s0,.09,0,.23L64.48,156a.34.34,0,0,0,.12.09.65.65,0,0,0,.14,0L66.81,154a1,1,0,0,0,0-.19l-2.1-2.11,2.09-2.09a.34.34,0,0,0,0-.28l-2.09-2.09,2.09-2.09a.58.58,0,0,0,0-.14c0-.05,0-.12,0-.14l-2.09-2.1,2.1-2.1a1.25,1.25,0,0,0,0-.23l-1.93-1.93a.47.47,0,0,0-.12-.09.75.75,0,0,0-.15,0l-2.06,2.06c0,.09,0,.16,0,.19l2.1,2.1-2.09,2.1s0,.09,0,.14,0,.11,0,.14l2.09,2.09c-.7.7-1.4,1.39-2.09,2.09,0,0,0,.09,0,.14s0,.11,0,.14C63.28,150.35,64,151.05,64.68,151.74Zm-.11,66.88c.05,0,.12,0,.15,0l2.09-2.08c-.11-.39-.46-.56-.69-.83a7,7,0,0,0-.67-.66c-.26-.23-.43-.59-.83-.68l-2.16,2.15Zm-2,6.75c.11.41.46.58.69.84a7.06,7.06,0,0,0,.67.67c.27.23.43.59.84.68l2.07-2.07c-.1-.41-.45-.58-.69-.84a7,7,0,0,0-.66-.67c-.27-.23-.44-.59-.84-.68ZM67,87.09c-.41.1-.58.45-.84.69a8.36,8.36,0,0,0-.67.66c-.23.27-.59.44-.68.84l2.07,2.08c.41-.11.58-.46.84-.69a7.06,7.06,0,0,0,.67-.67c.23-.27.59-.43.68-.84Zm0,26.81s-.12,0-.15,0l-2.16,2.15.76.75c.22.23.43.46.67.67s.43.59.83.68L69.12,116Zm-2.23,10.94s0,.12,0,.15l2.15,2.16.76-.76c.22-.22.46-.43.66-.67s.59-.43.68-.83l-2.15-2.15Z"/><path d="M73.61,589.4l-4.35-4.35c-.05-.32.22-.45.39-.62l1.62-1.63a.82.82,0,0,0,0-.22c-.06-.08-.15-.15-.22-.23l-1.84-1.83a6.21,6.21,0,0,1,1-1.13c.35-.38.72-.73,1.08-1.09a3.61,3.61,0,0,0-.86-1c-.28-.32-.59-.6-.89-.9l-.78-.78-.89-.89-.87-.88c0-.45.43-.59.65-.86s.45-.45.67-.67l.79-.79-4.36-4.36c.08-.47.45-.62.68-.89s.46-.44.67-.67.58-.44.7-.88l-2-2a.68.68,0,0,1,0-.23.29.29,0,0,1,.11-.11l1.94-2a5.15,5.15,0,0,0-1-1.13c-.36-.38-.73-.73-1.06-1.06a1.41,1.41,0,0,1,0-.23.63.63,0,0,1,.11-.12L66.8,556c0-.45-.42-.58-.65-.85s-.45-.45-.66-.68-.57-.45-.72-.86l2-2c-.06-.48-.44-.63-.67-.9s-.44-.44-.67-.67l-.79-.79,2.11-2.11c0-.14,0-.2,0-.24a1.52,1.52,0,0,0-.22-.22l-1.83-1.84a4.71,4.71,0,0,1,1-1.13c.35-.37.73-.73,1.06-1.06a1.41,1.41,0,0,0,0-.23.38.38,0,0,0-.11-.11l-1.88-1.89c0-.45.42-.58.64-.85a8.47,8.47,0,0,1,.67-.67l.72-.73a1.45,1.45,0,0,0,0-.23l-.11-.11-4-4a.73.73,0,0,1-.09-.13c0-.41.43-.55.66-.82s.45-.44.66-.68.58-.45.72-.87l-2-2c0-.13,0-.19,0-.23s.07-.08.1-.12l1.9-1.9c.06-.32-.22-.44-.39-.62-.54-.56-1.1-1.1-1.62-1.62a.92.92,0,0,1,0-.23,2.28,2.28,0,0,1,.22-.22l1.84-1.84a6.12,6.12,0,0,0-1-1.13l-1.07-1.07c.12-.39.41-.55.61-.78s.52-.52.78-.78l.65-.65c0-.45-.43-.59-.65-.86s-.46-.44-.67-.68-.57-.44-.72-.86l2-2c-.08-.47-.45-.62-.68-.89s-.45-.44-.66-.68-.59-.44-.7-.87l2-2c0-.12,0-.19,0-.22l-.34-.34-1.72-1.72a5.77,5.77,0,0,1,1-1.13c.36-.38.73-.74,1.06-1.06a1.24,1.24,0,0,0,0-.24s-.07-.07-.11-.11l-1.88-1.88c0-.45.43-.59.65-.86s.46-.44.67-.67.57-.45.72-.87l-2.05-2c.07-.47.45-.62.68-.89s.44-.45.66-.67l.79-.79-2.12-2.12c0-.13,0-.2,0-.23l.22-.23,4.13-4.12L69,491s0,.1,0,.22l-2,2c.1.44.46.6.69.87s.45.45.67.67l.78.78L67,497.72c0,.14,0,.21,0,.24a2.34,2.34,0,0,0,.22.23L69,500c0,.33-.22.45-.39.62-.55.56-1.1,1.11-1.62,1.62a.68.68,0,0,0,0,.23,2.28,2.28,0,0,0,.22.22L69,504.43c0,.32-.23.45-.4.62-.54.56-1.09,1.11-1.61,1.62,0,.13,0,.2,0,.23l2,2c0,.32-.23.44-.4.62-.54.56-1.1,1.1-1.61,1.62,0,.12,0,.2,0,.22l2.11,2.12-2.08,2.09s0,.09,0,.14,0,.11,0,.14l2.08,2.09c-.7.71-1.4,1.4-2.09,2.11,0,0,0,.09,0,.23L69,522.21a.27.27,0,0,0,.12.09h.14l2.06-2.06c0-.1,0-.16,0-.19-.69-.71-1.4-1.4-2.1-2.11l2.09-2.09s0-.09,0-.14,0-.11,0-.14l-2.09-2.09,4.36-4.35c0-.32-.23-.45-.4-.62l-1.62-1.63a.68.68,0,0,1,0-.22c0-.05.07-.08.1-.12l1.89-1.88c0-.45-.42-.59-.64-.86a8.47,8.47,0,0,0-.67-.67l-.73-.73a1.92,1.92,0,0,1,.62-.78c.25-.27.52-.53.78-.79l.65-.65c-.06-.44-.44-.59-.67-.86s-.45-.44-.66-.68-.58-.44-.71-.87l2-2a.68.68,0,0,0,0-.23c0-.05-.07-.08-.1-.12l-1.9-1.89c0-.33.23-.45.4-.62.54-.57,1.1-1.11,1.62-1.63a1.62,1.62,0,0,0,0-.23s-.07-.07-.11-.11L71.49,489c0-.45.42-.59.64-.86a8.47,8.47,0,0,1,.67-.67l.79-.8-2.11-2.12c0-.47.44-.62.67-.89s.45-.44.66-.68.58-.44.71-.87l-2-2c0-.13,0-.2,0-.23a2.44,2.44,0,0,1,.22-.23l1.84-1.84a5.1,5.1,0,0,0-1-1.12c-.36-.38-.73-.74-1.14-1.15.69-.79,1.44-1.43,2.1-2.17,0-.43-.42-.56-.65-.83s-.45-.44-.66-.68a2.71,2.71,0,0,1-.73-.86L73.51,469c-.06-.48-.44-.63-.67-.89s-.46-.44-.66-.68-.59-.44-.71-.87l2-2c0-.15,0-.21,0-.25a1.52,1.52,0,0,0-.22-.22l-1.83-1.84a4.91,4.91,0,0,1,1-1.13c.35-.37.73-.73,1.13-1.14-.67-.8-1.44-1.43-2.09-2.17,0-.43.42-.56.64-.83s.45-.45.67-.68l.79-.79-2.12-2.12c.07-.48.45-.63.68-.9s.45-.44.66-.67.59-.44.71-.87L67,444.39c0-.14,0-.21,0-.24a1.58,1.58,0,0,1,.22-.23L69.14,442l4.35,4.34s.1,0,.19,0l2-2.05c0-.09,0-.16,0-.19s-.22-.23-.33-.34l-1.67-1.66a1,1,0,0,1,0-.17.83.83,0,0,1,.07-.13L78,437.66a.77.77,0,0,0,0-.23s-.07-.07-.11-.11L76,435.43c0-.44.42-.58.65-.85s.44-.45.66-.67l.73-.73a1.92,1.92,0,0,0-.62-.78c-.25-.27-.51-.53-.77-.79L76,431c0-.45.43-.6.66-.87s.44-.45.66-.67l.8-.79-2.13-2.13c.08-.46.45-.62.68-.89s.44-.45.67-.67l.78-.79L76,422c0-.13,0-.19,0-.23l.22-.22L78,419.75a5.15,5.15,0,0,0-1-1.12c-.35-.38-.73-.74-1.06-1.07,0-.13,0-.18,0-.23s.07-.07.1-.11L78,415.34c0-.45-.42-.59-.65-.86s-.44-.45-.66-.67l-.73-.73c.12-.4.41-.56.62-.78s.51-.52.77-.78l.65-.65c0-.45-.43-.6-.66-.86s-.45-.44-.66-.68-.58-.45-.72-.87l2-2c-.08-.46-.45-.62-.68-.88s-.44-.45-.67-.67l-.79-.79L78,401.94c0-.12,0-.19,0-.22a1.58,1.58,0,0,0-.22-.23l-1.83-1.83a5,5,0,0,1,1-1.13c.35-.38.73-.73,1-1.06a.77.77,0,0,0,0-.23c0-.05-.07-.08-.11-.12L76,395.24c0-.45.42-.58.65-.85s.44-.45.66-.67L78,393a2.06,2.06,0,0,0-.62-.78c-.25-.27-.51-.52-.77-.78l-.65-.65c0-.45.43-.59.66-.86s.45-.44.66-.68.58-.44.72-.86l-2-2.05c.08-.46.45-.62.68-.89s.45-.44.66-.67.59-.44.71-.88l-2-2c0-.13,0-.2,0-.23l4.35-4.35,2.17,2.17a4.93,4.93,0,0,1-1,1.13c-.35.38-.73.74-1.14,1.14.68.8,1.45,1.44,2.1,2.18,0,.42-.42.56-.65.83s-.44.45-.66.67l-.8.8,2.13,2.12c-.08.47-.45.62-.68.89s-.46.44-.67.68-.58.44-.7.88l2,2a.68.68,0,0,1,0,.23c-.07.08-.15.15-.22.22l-1.84,1.84a5.82,5.82,0,0,0,1,1.13c.35.38.73.73,1.07,1.07-.12.4-.41.56-.62.78s-.52.52-.78.78l-.65.65c0,.45.44.6.66.87s.46.44.67.67.58.45.71.88l-2,2a1.61,1.61,0,0,0,0,.23c0,.05.07.08.11.12l1.9,1.9c0,.32-.23.44-.4.62l-1.7,1.7c.69.79,1.44,1.44,2.1,2.16,0,.44-.42.57-.65.84s-.45.44-.66.68-.57.45-.72.87l2,2c-.07.48-.44.63-.67.9s-.45.45-.67.67l-.79.79,2.12,2.13c0,.12,0,.19,0,.22a2.39,2.39,0,0,1-.22.23l-1.84,1.83a5.82,5.82,0,0,0,1,1.13c.35.38.73.74,1.07,1.08-.12.39-.41.55-.62.77s-.52.53-.78.79l-.65.65c0,.45.44.59.66.86s.46.44.67.68.57.44.71.87l-2,2a1.8,1.8,0,0,0,0,.24s.07.07.11.11l1.9,1.9c0,.32-.23.44-.4.62-.54.56-1.1,1.11-1.7,1.71.69.78,1.44,1.43,2.1,2.16,0,.43-.42.57-.64.84s-.45.45-.67.67l-.8.8,2.14,2.13c-.12.5-.54.69-.8,1s-.6.6-.89.9l-.9.89c-.29.3-.61.58-.88.9s-.66.51-.84,1l2,2.05c0,.13,0,.19,0,.23s-.15.15-.22.22l-1.84,1.84a5.77,5.77,0,0,0,1,1.13c.36.38.73.73,1.07,1.07-.11.4-.4.56-.61.78s-.52.53-.78.79l-.65.65c0,.45.43.59.66.86s.45.44.66.67.58.45.72.88l-2,2c0,.13,0,.19,0,.23s.07.08.11.12l1.89,1.9c0,.32-.22.44-.39.62l-1.62,1.62c0,.13,0,.19,0,.23a.52.52,0,0,0,.1.11l1.89,1.89c0,.45-.42.58-.65.85s-.45.45-.66.68a2.71,2.71,0,0,0-.73.86l2,2.05c-.06.48-.44.63-.67.9s-.45.45-.67.67l-.79.79,2.12,2.12c0,.13,0,.2,0,.23a2.39,2.39,0,0,1-.22.23l-1.84,1.84a5.71,5.71,0,0,0,1,1.12c.36.38.73.74,1.06,1.07a1.09,1.09,0,0,1,0,.23s-.07.07-.11.11l-1.88,1.88c0,.45.43.59.66.86s.44.45.66.68l.8.79-2.11,2.11a.9.9,0,0,0,0,.24.52.52,0,0,0,.1.11l1.9,1.9c.06.32-.22.44-.39.62l-1.62,1.63a.88.88,0,0,0,0,.22,1.31,1.31,0,0,0,.11.12l1.89,1.88c0,.45-.42.59-.64.86s-.45.45-.67.67l-.81.81,1.14,1.15,1,1c-.06.44-.44.59-.67.86s-.45.45-.67.68l-.79.79,2.12,2.12a.68.68,0,0,1,0,.23,2.28,2.28,0,0,1-.22.22l-1.84,1.84a5.47,5.47,0,0,0,1,1.13c.36.38.73.73,1.15,1.15-.72.77-1.45,1.44-2.12,2.15,0,.44.43.58.66.85s.44.45.66.67l.8.8-2.11,2.11c0,.13,0,.19,0,.23s.07.08.1.12l1.9,1.89c.06.33-.22.45-.39.62-1.29,1.31-2.59,2.6-3.85,3.86,0,.13,0,.19,0,.23a2.28,2.28,0,0,0,.22.22L78,522.36a6.55,6.55,0,0,1-1,1.13c-.35.38-.73.73-1.06,1.07.12.4.41.56.62.78s.51.53.77.79l.65.64c0,.45-.44.6-.66.87s-.46.44-.67.67-.58.45-.71.88l2,2c0,.14,0,.21,0,.24a1.61,1.61,0,0,1-.22.23l-1.84,1.84a5.15,5.15,0,0,0,1,1.12c.35.38.73.74,1.14,1.15-.7.79-1.45,1.43-2.11,2.17,0,.42.43.56.65.83s.45.44.67.68.57.45.72.87l-2,2c.08.46.45.62.68.89s.44.45.67.67l.79.79L76,546.87c0,.12,0,.19,0,.22a1.58,1.58,0,0,0,.22.23L78,549.16a6.15,6.15,0,0,1-1,1.12c-.35.38-.73.74-1,1.07,0,.13,0,.2,0,.23l2,2c0,.45-.43.59-.66.86s-.46.44-.67.68-.58.44-.71.87l2,2c0,.14,0,.2,0,.24a2.28,2.28,0,0,1-.22.22l-1.84,1.84a4.75,4.75,0,0,0,1,1.13c.35.38.73.73,1.14,1.14-.7.79-1.45,1.44-2.11,2.18,0,.42.43.56.65.83s.45.44.66.67.58.45.73.87l-2,2c.08.47.45.62.68.89s.45.44.66.68.59.44.71.88l-2,2c0,.13,0,.19,0,.23a1.52,1.52,0,0,0,.22.22L78,576a6.12,6.12,0,0,1-1,1.13c-.35.37-.73.73-1.06,1.07.12.4.41.56.61.78s.52.52.78.78l.64.65c0,.09,0,.14,0,.19a.22.22,0,0,1-.09.12l-4.13,4.14s0,.09,0,.21l2,2a.9.9,0,0,1,0,.24s-.07.07-.11.11Z"/><path d="M64.68,17.77l-4.35-4.35c0-.32.22-.45.39-.62l1.62-1.63a.88.88,0,0,0,0-.22.63.63,0,0,0-.11-.12L60.32,9a.51.51,0,0,1,0-.18.29.29,0,0,1,.07-.12L69.05,0a1.09,1.09,0,0,1,.23,0s.07.08.11.11L71.27,2c.45,0,.59-.43.86-.65s.44-.46.68-.67.45-.57.84-.71l11,11c-.06.41-.44.55-.67.82s-.45.44-.66.68-.58.44-.71.87l2,2c0,.14,0,.21,0,.25a2.28,2.28,0,0,1-.22.22l-1.9,1.9-4.32-4.32s-.1,0-.24-.06l-4.37,4.38-4.32-4.32s-.1,0-.24-.06Z"/><path d="M82.54,325.91,84.66,328c0,.32-.23.45-.4.62-.54.56-1.1,1.11-1.61,1.62,0,.13,0,.2,0,.23s.15.15.22.23l1.84,1.83a6.55,6.55,0,0,1-1,1.13c-.35.38-.73.73-1.06,1.07.12.4.41.56.61.78s.52.52.78.78l.65.65c0,.45-.43.6-.66.86s-.44.45-.67.68l-.79.79,2.15,2.15c-.14.48-.55.67-.82,1s-.59.59-.88.89l-.9.89c-.29.3-.61.59-.88.9s-.67.51-.84,1l2.05,2.05c0,.13,0,.19,0,.23a2.28,2.28,0,0,1-.22.22l-1.83,1.84a5.42,5.42,0,0,0,1,1.13l1.14,1.14c-.69.79-1.44,1.43-2.1,2.17,0,.42.42.56.65.83s.45.44.66.68.57.45.72.84l-2.08,2.08a41.58,41.58,0,0,1-4.45-4.41l2-2.05c0-.13,0-.18,0-.23a.38.38,0,0,0-.11-.11L76,350.59c0-.32.22-.44.39-.62L78,348.35a.86.86,0,0,0,0-.23l-.22-.23L76,346.12a.46.46,0,0,1,0-.17.33.33,0,0,1,.07-.13q2.07-2.06,4.12-4.13s0-.09.07-.22c-.64-.68-1.36-1.36-2-2.06,0-.44.43-.58.66-.85s.44-.45.66-.68l.8-.79L78.17,335c.07-.47.45-.63.68-.89s.45-.44.66-.68.59-.44.71-.87l-2-2c0-.12,0-.19,0-.22a1.2,1.2,0,0,1,.22-.23Z"/><path d="M84.77,158.44l-6.69-6.7,6.69-6.69,2.11,2.1a.78.78,0,0,1,0,.21l-2,2c.05.46.43.61.66.88s.44.44.66.67l.79.78-2.11,2.11c0,.49.42.62.64.89s.44.45.66.67l.72.72a.86.86,0,0,1,0,.23Z"/><path d="M84.77,185.24c.71.7,1.42,1.41,2.12,2.12,0,.32-.22.44-.39.62-.55.56-1.11,1.1-1.62,1.62a.92.92,0,0,0,0,.23l.22.22L87,191.89a6.55,6.55,0,0,1-1,1.13c-.35.37-.72.73-1.06,1.07.12.39.41.55.61.77s.52.53.78.79l.65.65c0,.45-.43.59-.66.86a7,7,0,0,1-.66.67c-.27.24-.45.57-.85.71l-4.32-4.31c.07-.41.44-.56.67-.83s.46-.44.67-.67.58-.44.7-.88l-2-2a.68.68,0,0,1,0-.23.29.29,0,0,1,.11-.11Z"/><path d="M84.77,162.91l-2.08-2.09s0-.1,0-.14,0-.12,0-.14l2.08-2.1,2.09,2.1s0,.09,0,.14,0,.11,0,.14C86.17,161.52,85.47,162.21,84.77,162.91Z"/><path d="M84.77,162.91,86.86,165s0,.09,0,.14,0,.11,0,.14l-2.09,2.09-2.08-2.09s0-.09,0-.14,0-.11,0-.14Z"/><path d="M84.77,167.37l2.09,2.1s0,.09,0,.14,0,.11,0,.14l-2.09,2.09-2.08-2.09s0-.09,0-.14,0-.11,0-.14Z"/><path d="M84.77,176.31l-2.08-2.1s0-.09,0-.14,0-.11,0-.14l2.08-2.09c.7.7,1.4,1.39,2.09,2.09,0,0,0,.1,0,.14s0,.11,0,.14Z"/><path d="M84.77,180.77l-2.08-2.09s0-.09,0-.14,0-.11,0-.14l2.08-2.09c.7.69,1.4,1.39,2.09,2.09,0,0,0,.09,0,.14s0,.11,0,.14C86.17,179.38,85.47,180.08,84.77,180.77Z"/><path d="M84.77,185.24l-2.08-2.09s0-.1,0-.14,0-.12,0-.15l2.08-2.09,2.09,2.09s0,.1,0,.15,0,.11,0,.14Z"/><path d="M82.56,214.28l2.14-2.14c.09,0,.15,0,.19,0s.15.15.22.22l1.78,1.78c0,.32-.22.44-.39.62-.54.56-1.1,1.1-1.62,1.62-.12,0-.19,0-.22,0a2.28,2.28,0,0,1-.22-.22Z"/><path d="M80.31,377.27l-2.1-2.1s0-.1,0-.19l2.06-2.06a.38.38,0,0,1,.15,0,.42.42,0,0,1,.12.08l1.93,1.94a1.25,1.25,0,0,1,0,.23Z"/><path d="M69.14,442l-2.08-2.1s0-.09,0-.14,0-.11,0-.14l2.08-2.09,2.09,2.09s0,.09,0,.14,0,.11,0,.14Z"/><path d="M64.66,446.51l2.15,2.15c-.09.41-.45.57-.68.84s-.44.45-.67.67l-.76.77-2.15-2.15c.09-.41.45-.58.68-.84s.44-.45.66-.67Z"/><path d="M66.91,488.92l-2.1-2.11s0-.09,0-.18l2.07-2.07a.35.35,0,0,1,.14,0,.42.42,0,0,1,.12.08L69,486.58c0,.14,0,.2,0,.23Z"/><path d="M73.61,589.4l2.1,2.1s0,.1,0,.19l-2.07,2.06h-.14a.42.42,0,0,1-.12-.08l-1.93-1.94c0-.13,0-.2,0-.23Z"/></g></g></svg>