<svg xmlns="http://www.w3.org/2000/svg" viewBox="0 0 127.83 127.44"><defs><style>.cls-1{fill:none;stroke:#000;stroke-miterlimit:10;stroke-width:1.17px;}</style></defs><title>Recurso 77MANDALA</title><g id="Capa_2" data-name="Capa 2"><g id="Capa_1-2" data-name="Capa 1"><polygon class="cls-1" points="125.64 56.73 99.65 47.9 73.66 56.73 99.65 30.74 125.64 56.73"/><polygon points="125.64 56.73 99.65 47.9 99.65 39.85 99.65 30.74 125.64 56.73"/><polygon class="cls-1" points="105.77 18.46 80.18 28.4 65.95 51.87 69.15 15.26 105.77 18.46"/><polygon points="105.77 18.46 80.18 28.4 75.01 22.24 69.15 15.26 105.77 18.46"/><polygon class="cls-1" points="65.94 1.92 52.73 25.98 56.91 53.11 35.83 23 65.94 1.92"/><polygon points="65.94 1.92 52.73 25.98 44.8 24.58 35.83 23 65.94 1.92"/><polygon class="cls-1" points="24.8 14.84 30.14 41.77 50.79 59.86 15.28 50.35 24.8 14.84"/><polygon points="24.8 14.84 30.14 41.77 23.18 45.79 15.28 50.35 24.8 14.84"/><polygon class="cls-1" points="1.59 51.19 22.99 68.38 50.43 68.97 17.12 84.5 1.59 51.19"/><polygon points="1.59 51.19 22.99 68.38 20.24 75.94 17.12 84.5 1.59 51.19"/><polygon class="cls-1" points="7.17 93.96 34.62 93.37 56.02 76.18 40.49 109.49 7.17 93.96"/><polygon points="7.17 93.96 34.62 93.37 37.37 100.93 40.49 109.49 7.17 93.96"/><polygon class="cls-1" points="38.94 123.12 59.59 105.03 64.93 78.11 74.45 113.61 38.94 123.12"/><polygon points="38.94 123.12 59.59 105.03 66.56 109.06 74.45 113.61 38.94 123.12"/><polygon class="cls-1" points="82.03 125.05 86.21 97.92 73 73.86 103.11 94.94 82.03 125.05"/><polygon points="82.03 125.05 86.21 97.92 94.14 96.52 103.11 94.94 82.03 125.05"/><polygon class="cls-1" points="116.27 98.83 102.04 75.36 76.45 65.42 113.06 62.21 116.27 98.83"/><polygon points="116.27 98.83 102.04 75.36 107.21 69.19 113.06 62.21 116.27 98.83"/></g></g></svg>