<svg xmlns="http://www.w3.org/2000/svg" viewBox="0 0 204.98 114.77"><title>Recurso 48GRAPHS</title><g id="Capa_2" data-name="Capa 2"><g id="Capa_1-2" data-name="Capa 1"><path d="M205,64.09l-.07-.19,0-.1-.08-.21-.37-.88-1.09-2.61c-.78-1.83-1.55-3.65-2.32-5.48l-1.71-4q-1-2.4-2-4.81l-1.77-4.19c-.32-.76-.64-1.53-1-2.29-.41-1-.83-2-1.24-2.93L191.5,32.1c-.89-2.12-1.79-4.23-2.68-6.35L186.37,20c-.85-2-1.71-4-2.56-6l-2.36-5.6-2.54-6-.06-.14a1.53,1.53,0,0,0-.42-.68h0a1,1,0,0,0-.73-.18h-.1c-1.86,0-3.76,0-5.59,0-3.11,0-6.32,0-9.48-.11-.48,0-1,0-1.45,0H158c-1.78,0-3.62,0-5.43,0h-2.52c-1.78,0-3.63,0-5.44-.08C143,.94,141.36,1,139.78,1h-5.1c-3.14,0-6.38,0-9.57-.11-.41,0-.83,0-1.23,0H123c-1.84,0-3.71,0-5.52,0-2.87,0-5.84,0-8.75-.11-.5,0-1,0-1.48,0h-3.1c-1.76,0-3.59,0-5.38,0h-2.4c-1.83,0-3.71,0-5.56-.09-.52,0-1,0-1.56,0h-.66l-3.47,0-7.27,0c-1.6,0-3.27,0-5-.07-2,0-3.93,0-5.85,0H63.85l-2.46,0c-2.14,0-4.35,0-6.52-.08-1.57,0-3.16,0-4.7,0H47.12c-1.21,0-2.45,0-3.65,0-2.11,0-4.29,0-6.44-.08C35.15,0,33.24,0,31.39,0H29.05l-.41,0-.13,0H28.4l-.08.06a1.52,1.52,0,0,0-.49.71L27.77,1,25.53,5.88l-.72,1.58-2.1,4.63c-.61,1.36-1.23,2.73-1.85,4.09l-2.34,5.17-1.34,2.94c-.47,1-.94,2.06-1.4,3.09-.67,1.46-1.33,2.93-2,4.39l-2.14,4.74-1.37,3L8.84,42.68,6.5,47.84C5.66,49.71,4.81,51.59,4,53.46L2,57.82.51,61.06l-.2.47-.09.24L.13,62h0L0,62.05H.21l.35.39H.71c1.32,0,2.62,0,3.87,0s2.54,0,3.8.06c2.45.07,4.95.07,7.36.08s4.88,0,7.32.08,5,.08,7.36.08,4.88,0,7.32.08c2.23.06,4.5.06,6.7.06,2.61,0,5.32,0,8,.11h7.35c.3,0,.6,0,.89,0h.28c.23,0,.46,0,.67,0l.58,0c.61,0,1.22,0,1.82,0,1,0,1.93,0,2.9.08.52,0,1,0,1.55,0h.68l2.53,0,6.07,0,2.43,0c.73,0,1.48,0,2.23,0,1.2,0,2.42,0,3.6,0h2.16l.46,0h0c.2.46.43,1,.62,1.53a46.56,46.56,0,0,1,1.56,6c.17.83.32,1.68.46,2.5l.13.81c.17,1,.35,2,.5,3,.1.71.18,1.43.26,2.14,0,.27.06.55.1.82s.07.69.11,1,0,.46.08.69.06.48.08.72c.06.48.12,1,.17,1.47l.09,1.12c0,.46.07.93.11,1.39.13,1.19.25,2.47.3,3.75v.08c0,.08,0,.16,0,.25l.09,1.06c.06.76.12,1.54.16,2.31,0,.5.05,1,.07,1.52s0,1,.08,1.55c.11,2,.15,3.93.18,5.57,0,2.25,0,4.62,0,7.26a3.15,3.15,0,0,0,1.36,2.72,8,8,0,0,0,2,1,16.44,16.44,0,0,0,5.44,1h.21a12.55,12.55,0,0,0,2.06-.16,12.71,12.71,0,0,0,2.73-.73,6.19,6.19,0,0,0,2.11-1.32,2.91,2.91,0,0,0,1-2.32c0-.34,0-.7,0-1v-.44c0-.18,0-.35,0-.54a6.49,6.49,0,0,0,0-1.08,1,1,0,0,1,0-.25s0-.1,0-.15,0-.2,0-.3,0-.38,0-.58c0-.73,0-1.47,0-2.19,0-1.35,0-2.74.12-4.1,0-.56.06-1.12.07-1.67s0-1.35.1-2c0-.34,0-.67,0-1a6.31,6.31,0,0,1,.12-1.39V93.4c0-.86.06-1.74.13-2.59,0-.23,0-.45.05-.68,0-.61.09-1.21.13-1.82,0-.31,0-.62.07-.94V87.3a.17.17,0,0,0,0-.07l.07-.7c.07-.65.14-1.31.2-2,0-.23,0-.46.07-.7,0-.43.08-.89.13-1.33.09-.75.19-1.51.29-2.25,0-.32.09-.63.13-.94s.07-.59.11-.88c.07-.63.15-1.29.26-1.92l0-.32c.3-1.78.61-3.61,1-5.39a43.72,43.72,0,0,1,1.59-5.72l.06-.17a9.2,9.2,0,0,1,.51-1.2h.57c1.08,0,2.17,0,3.22,0,1.86,0,3.79,0,5.69.09.51,0,1,0,1.53,0h.69l2.52,0,6,0,2.47,0,2.26.05,3,0,3.07,0,2.57,0c1.77,0,3.6,0,5.39.07,2.23.06,4.5.06,6.69.07,2.6,0,5.28,0,7.91.1.59,0,1.19,0,1.77,0h3.3c1.78,0,3.63,0,5.44,0,1,0,2.05,0,3.05.06l1.67,0c1.54,0,3.1,0,4.61,0,1.18,0,2.41,0,3.61,0H195c1.32,0,2.69,0,4,.07,1.17.06,2.35.06,3.5,0h1.84l.17,0,.36-.47h0Zm-5.33-.57h-2.43l.56-.27,1.18-.59a3.56,3.56,0,0,1,.39.13,2,2,0,0,0,.71.17,5.39,5.39,0,0,0,1.61.6l.05.05h-.19l-1.05,0Zm-12.38-.08-2.29,0-2.59,0-6,0h-1c2.1-.62,4.15-1.27,6.12-1.94,2.54-.86,4.78-1.68,6.83-2.52h.31a5.06,5.06,0,0,0,1.6.59.76.76,0,0,0,.59.2,2.61,2.61,0,0,0,1.15.44.83.83,0,0,0,.6.19,5,5,0,0,0,1.71.61,4.85,4.85,0,0,0,1.63.61.73.73,0,0,0,.61.2,4.42,4.42,0,0,0,1,.45l-2.76,1.34h-3.3C190.13,63.46,188.69,63.46,187.27,63.44Zm-16.4-.2c-.42,0-.83-.05-1.24-.05h-4.57c-2.63,0-5.35,0-8-.07-2.22-.06-4.46-.07-6.64-.08h-1.66c2-.36,4.17-.79,6.67-1.32,3.9-.83,7.76-1.8,11.47-2.89a106.68,106.68,0,0,0,10.75-3.73l.15,0h0a2,2,0,0,1,.49.15,2,2,0,0,0,.77.19,5.07,5.07,0,0,0,1.6.6.82.82,0,0,0,.59.2,2.75,2.75,0,0,0,1.17.44.85.85,0,0,0,.59.19,5.19,5.19,0,0,0,1.7.61,5.23,5.23,0,0,0,1.64.61.71.71,0,0,0,.53.2l.06.05-.12,0c-1.08.41-2.2.84-3.31,1.24-3.82,1.39-7.69,2.54-10.62,3.38l-.22.05-.47.14A3.18,3.18,0,0,1,170.87,63.24Zm-63.51,49.21a2.17,2.17,0,0,1,0,.36,9.3,9.3,0,0,1-1.91.62,4.7,4.7,0,0,1,0-.65v-.1a7.17,7.17,0,0,1,1-.13C106.78,112.52,107.07,112.5,107.36,112.45ZM121,1.85c1,0,2,0,3.06,0,2.14.07,4.31.08,6.41.09h2.45l-1.95,1.14-.1.06-.21,0-.79-.08L129.15,3l-1.27-.13-.23,0-2.75-.27-1.76-.14-.68,0-2.73-.2-1-.08h-.16L117.3,2l-2.87-.14-1.22-.07h1.47c1.44,0,2.93,0,4.39,0ZM108.82,99.17v.62c0,.11,0,.23,0,.34v.35a.71.71,0,0,1-.33.1c0-.17,0-.33,0-.49a3.88,3.88,0,0,1,0-.84Zm0,2.43c0,.31,0,.62,0,1v.16a1.11,1.11,0,0,1-.32.09,8.25,8.25,0,0,1,0-1.12,2.1,2.1,0,0,1,.24-.06Zm-.12,4.79a.56.56,0,0,1-.23,0,4.6,4.6,0,0,1,0-.65,1,1,0,0,1,.24-.06A3.7,3.7,0,0,1,108.67,106.39Zm0,1.09a1.21,1.21,0,0,1,0,.18,1,1,0,0,1-.25,0,1.76,1.76,0,0,1,0-.19Zm-.25,1.38a.25.25,0,0,1,0-.08l.22,0a2.84,2.84,0,0,1,0,.65.48.48,0,0,1-.22,0Zm.22,2.3-.22,0h0v-.69l.24,0A2.59,2.59,0,0,1,108.65,111.16Zm-.21-7.16v-.1a.65.65,0,0,1,.28-.06,1.14,1.14,0,0,1,0,.77.73.73,0,0,1-.25.08Zm-4.59,8.71a3.13,3.13,0,0,1,.53,0q0,.3,0,.6v.28a1.72,1.72,0,0,1-.53.1C103.84,113.37,103.84,113.05,103.85,112.71Zm0-8.36a3.25,3.25,0,0,1,.54,0v.93h-.54A4.92,4.92,0,0,1,103.86,104.35Zm.53,3.77a1.83,1.83,0,0,1-.53,0v0a.88.88,0,0,1,0-.14,4.69,4.69,0,0,1,.53,0A.76.76,0,0,1,104.39,108.12Zm0,1.73h-.53v-.64h0a3.21,3.21,0,0,1,.54,0A2.86,2.86,0,0,1,104.38,109.85Zm-.54-3.28v-.22h.56a2.64,2.64,0,0,1,0,.56h-.55v-.15A1.21,1.21,0,0,0,103.84,106.57Zm.51,5.07h-.51v-.17a1.62,1.62,0,0,0,0-.22v0a1.4,1.4,0,0,1,0-.29h.5A1.71,1.71,0,0,1,104.35,111.64Zm0-8.36a3.24,3.24,0,0,1-.54,0v-1.2c.17,0,.35,0,.53,0A4.26,4.26,0,0,1,104.39,103.28Zm97.53-43.49-2.52,1.42-.65.37h-.27a4.83,4.83,0,0,0-1.6-.59.72.72,0,0,0-.6-.2h0a5,5,0,0,0-1.7-.62,5.13,5.13,0,0,0-1.64-.61.73.73,0,0,0-.59-.19,2.61,2.61,0,0,0-1.15-.44.8.8,0,0,0-.6-.2,4.57,4.57,0,0,0-.94-.42l.43-.19c.93-.41,1.89-.84,2.83-1.28a38.42,38.42,0,0,0,6.33-3.68L202,59.73A.24.24,0,0,1,201.92,59.79ZM118.41,3.14c1.37.09,2.79.18,4.18.3.9.07,1.82.17,2.7.26l1.45.14.93.09c.42,0,.85.07,1.27.12l.49.06-1.51,1.08c-.5.37-1,.76-1.49,1.14l-.54.42-1.08-.11c-1-.11-1.85-.21-2.77-.29-.56-.06-1.14-.1-1.7-.13l-1-.07L117.1,6l-1-.09h-.17l-1.33,0-3.09-.13c-1.63-.06-3.1-.11-4.5-.14-.63,0-1.27,0-1.89,0h-1.24a19.88,19.88,0,0,1,0-2.79h2c1.84,0,3.75,0,5.62.06,1,0,2,.07,3,.12l.78,0,2.91.16Zm44.41,4.74a121.49,121.49,0,0,1,19.06,7.54l-4.67.65-.43.06-.51-.28-1.27-.7c-1.61-.9-3.28-1.66-4.85-2.35a92,92,0,0,0-9.47-3.52l-1-.3q.4-.15.78-.33l0,0a.72.72,0,0,0,.5-.18A3.54,3.54,0,0,0,162.24,8l0,0Zm31.66,34.95c-.26.33-.53.68-.81,1a26,26,0,0,1-4.49,3.94,49.44,49.44,0,0,1-8.34,4.75l-2.31,1-.87.39-.62-.09a2.8,2.8,0,0,0-1.18-.45.78.78,0,0,0-.58-.19h0a5.07,5.07,0,0,0-1.6-.6.73.73,0,0,0-.59-.19,2.66,2.66,0,0,0-1.16-.44.79.79,0,0,0-.58-.2,2.83,2.83,0,0,0-1.17-.43.8.8,0,0,0-.58-.2h0a5.28,5.28,0,0,0-1.61-.59.69.69,0,0,0-.43-.19,70.61,70.61,0,0,0,6.84-3.1A42.56,42.56,0,0,0,181,43.06c.63-.49,1.22-1,1.84-1.55l.76-.66h.57a.34.34,0,0,0,.16.08l1.16.21.92.17c.76.13,1.55.28,2.33.39l.52.1a5.69,5.69,0,0,0,1.19.16h.06a.56.56,0,0,0,.22.1l.41.08a12.39,12.39,0,0,0,1.4.23c.18,0,.37.06.57.1a4.63,4.63,0,0,0,.93.13h.15a.9.9,0,0,0,.22.11l.11,0Zm-28.82,6.91a5,5,0,0,0-1.74-.62,4.79,4.79,0,0,0-1.62-.61.73.73,0,0,0-.53-.2l0,0A6,6,0,0,0,160,47.7a5,5,0,0,0-1.37-.56l.81-.35,1.74-.76a41.67,41.67,0,0,0,8.15-4.73,24.09,24.09,0,0,0,2.53-2.21c.09-.09.17-.18.26-.26h0l1.21.11a.45.45,0,0,0,.24.12l.4.08c.45.09.93.18,1.4.23.19,0,.37.06.57.1a4.73,4.73,0,0,0,.94.13h.08a.3.3,0,0,0,.16.08l2.09.37.95.16,1.3.22.86.17a33.8,33.8,0,0,1-5.06,3.81,55.35,55.35,0,0,1-6.63,3.52c-1.48.67-3,1.29-4.42,1.85Zm-44.72-6.9a1.63,1.63,0,0,0-.73-.6.56.56,0,0,0,0-.08.48.48,0,0,0-.13-.09.49.49,0,0,0-.2-.18,1.62,1.62,0,0,0-.73-.6s0,0,0,0h0l1.31-.25a50.2,50.2,0,0,0,8.19-2.18,3.66,3.66,0,0,1,1.83-.14l.15,0a1.73,1.73,0,0,0,.35,0,14.25,14.25,0,0,1,2,.29h0a3.17,3.17,0,0,0,.6.05h.13a.66.66,0,0,0,.28.12,2.42,2.42,0,0,0,.46,0h0l.06,0,.26.08a3,3,0,0,0,1,.21h0a4.12,4.12,0,0,0,.9.35,63.89,63.89,0,0,1-7.33,2.1l-4.92,1c-.62.12-1.26.22-1.88.31l-.12,0c-.19,0-.38,0-.55.05h-.1a2,2,0,0,1-.25-.18,1.34,1.34,0,0,0-.42-.28A.42.42,0,0,0,120.94,42.84Zm3.38,2.9a.54.54,0,0,0-.23-.22,1.58,1.58,0,0,0-.73-.6.38.38,0,0,0-.17-.16.48.48,0,0,0-.23-.19l-.14-.17.47-.08c1.6-.23,3.15-.55,4.74-.88,2.33-.49,4.45-1,6.49-1.67,1-.32,2-.63,2.85-1a2,2,0,0,1,.84-.15.81.81,0,0,0,.58.18,5.32,5.32,0,0,0,1.6.59.77.77,0,0,0,.59.2,2.45,2.45,0,0,0,1.16.44.83.83,0,0,0,.6.19,5.11,5.11,0,0,0,1.7.61,5,5,0,0,0,1.64.61.69.69,0,0,0,.52.2s0,0,0,0L146,44c-1,.35-2.08.71-3.13,1-2,.62-4.15,1.17-6.28,1.64l-.3.07c-1.4.31-2.86.63-4.3.87l-2.67.47-1.51.27-.22,0h-.07l-.23-.1a1.57,1.57,0,0,0-.74-.61.43.43,0,0,0-.22-.2,2.44,2.44,0,0,0-.9-.77.55.55,0,0,0-.22-.18A2.29,2.29,0,0,0,124.32,45.74Zm13.76-13.06a5,5,0,0,0,.86-3,1.93,1.93,0,0,1,0-.34l.11,0c2-.28,3.6-.43,5.06-.49,1.82-.08,3.77-.09,5.78,0h0v0a5.48,5.48,0,0,1-.63,2.63,9.27,9.27,0,0,1-1.49,2.1h0l-.08,0-2,0c-1.35,0-2.76.07-4.14.12s-2.61.11-3.95.26c-.21,0-.43,0-.65,0A8.22,8.22,0,0,0,138.08,32.68Zm11.06-6.55a6.58,6.58,0,0,1,.64,1.65h-2.51l-3,0a30.12,30.12,0,0,0-3.26.26l-1.71.19-.51.06-.19-.44a7.26,7.26,0,0,0-1.64-2.41c.22-.14.46-.25.71-.38l.34-.16c1.8-.93,4.17-2.12,6.61-3.21h0l.24.13a16.6,16.6,0,0,1,2.85,2.35A8.59,8.59,0,0,1,149.14,26.13ZM128.49,30.4c1.2-.82,2.54-1.64,4.33-2.68L135,26.53l.61-.34.34-.16a5.29,5.29,0,0,1,1.75,2.49l-.18,0h-.07a27.64,27.64,0,0,0-3.57.82,23.13,23.13,0,0,0-2.64.92A8.35,8.35,0,0,0,129,31.59l-.61-1.12A.27.27,0,0,1,128.49,30.4Zm1.44,1.82a9.08,9.08,0,0,1,1.58-.89,23.71,23.71,0,0,1,4.43-1.39c.5-.12,1-.21,1.54-.32l.39-.07a3.53,3.53,0,0,1-.29,1.8,7,7,0,0,1-1.83,2.44l-.44.35-.14.11-.14,0a55.85,55.85,0,0,0-6.31,1,3.15,3.15,0,0,0,.59-1.9A1.27,1.27,0,0,1,129.93,32.22Zm17.62,10.9a2.18,2.18,0,0,0-.61-.17.81.81,0,0,0-.57-.17,5.09,5.09,0,0,0-1.71-.61,5.07,5.07,0,0,0-1.63-.61.77.77,0,0,0-.59-.2,2.76,2.76,0,0,0-1.16-.44.77.77,0,0,0-.58-.19,5.13,5.13,0,0,0-1.53-.58,37.19,37.19,0,0,0,5.58-2.76A21.21,21.21,0,0,0,148,34.92l.18-.17,0,0a1.15,1.15,0,0,1,.61,0l3.09.56a2.74,2.74,0,0,0,.49,0h.05a.49.49,0,0,0,.23.11l.4.08c.46.09.93.18,1.41.23.18,0,.37.06.56.1a4.94,4.94,0,0,0,1,.12h.1a.51.51,0,0,0,.21.1l.41.08a13.18,13.18,0,0,0,1.4.23c.19,0,.37.06.57.1a4.73,4.73,0,0,0,.94.13h.06c-.28.26-.57.52-.88.78a27.8,27.8,0,0,1-4.46,3A49.1,49.1,0,0,1,148,43.25,1.76,1.76,0,0,1,147.55,43.12ZM160,35.83a.5.5,0,0,0-.22-.11l-.41-.08c-.45-.09-.92-.18-1.4-.23l-.57-.09a4.34,4.34,0,0,0-1-.12.51.51,0,0,0-.22-.11l-.41-.08c-.46-.09-.93-.18-1.4-.23-.19,0-.37-.06-.57-.1a4.34,4.34,0,0,0-1-.11.51.51,0,0,0-.22-.11l-1.86-.33-1.52-.26-.15,0,.13-.16,0,0A8.77,8.77,0,0,0,150.24,32a6.38,6.38,0,0,0,.71-3v-.32h1.81c1.26,0,2.57,0,3.84,0s2.74.08,4.07.08l2.47,0h.14a1,1,0,0,1,0,.15,7.76,7.76,0,0,1-1.62,5.43,8.48,8.48,0,0,1-1.22,1.43Zm3-8.24c0,.1.07.21.11.31v0h-.52c-.39,0-.8,0-1.19,0-1.79-.09-3.61-.11-5.39-.11h-1.29c-1.22,0-2.48,0-3.72,0h-.13a.93.93,0,0,1,0-.13,8.91,8.91,0,0,0-2.5-4.35,16.37,16.37,0,0,0-2.37-2l1.33-.19c3-.42,5.76-.82,8.59-1.19a5.52,5.52,0,0,1,.93.57l.23.16a19.8,19.8,0,0,1,3.55,3,10.81,10.81,0,0,1,2,2.87C162.75,26.87,162.88,27.22,163,27.59Zm-21.37-5.67-3.37,1.65c-.54.27-1.05.54-1.6.83l-.57.29a4.91,4.91,0,0,1-.63-.45,7.79,7.79,0,0,0-.72-.52l-.57-.34c-.34-.21-.7-.43-1.07-.63s-.71-.36-1.06-.53l-.64-.32a7.44,7.44,0,0,0-.72-.31l-.5-.2a46.8,46.8,0,0,1,6.11-3.55A37.79,37.79,0,0,1,143.51,21ZM135,25.26l-1.55.88c-.91.51-1.85,1-2.76,1.58-.65.38-1.28.79-1.9,1.18l-.85.55-.3.18a13.89,13.89,0,0,0-3.46-2.48l-.65-.34.06-.06A40,40,0,0,1,128,22.91l.82-.61.25-.18A22.85,22.85,0,0,1,135,25.26Zm-3.16,12.23.46-.24c.5-.25,1-.51,1.5-.8s.84-.52,1.27-.8l.51-.33a14.76,14.76,0,0,1,2-.19l2-.14,1.54-.12c.33,0,.67,0,1,0h.57l1.79,0,2.15-.07h0a20.19,20.19,0,0,1-2.14,1.58A36.23,36.23,0,0,1,138,39.46l-.6-.13a2.72,2.72,0,0,0-1.34-.47.61.61,0,0,0-.18-.11l-.22-.06a2.88,2.88,0,0,0-1-.17.62.62,0,0,0-.27-.13,3.54,3.54,0,0,0-.45,0,.38.38,0,0,0-.2-.1l-2.49-.37-.23,0C131.34,37.75,131.61,37.63,131.88,37.49Zm22.33-18.22c-.27,0-.56.06-.84.12-.49.1-1,.16-1.5.22l-.65.09-.28,0-1.89.26-.87.11c-.43,0-.88.1-1.31.17l-.64.1a9.89,9.89,0,0,1-1.4.17l-.5-.29c-.43-.25-.89-.52-1.34-.76s-1.19-.6-2-1l-1-.42-1-.41c-.27-.12-.55-.22-.82-.31l-.56-.21a56.87,56.87,0,0,1,6.1-2.46,53.27,53.27,0,0,1,10.92,4.51Zm-26.82,2.78c-.71.56-1.43,1.14-2.13,1.74s-1.37,1.23-2,1.85l-.72.67-.64-.24c-.64-.24-1.3-.49-2-.71-.87-.28-1.76-.53-2.62-.76l-.34-.1c-.52-.14-1-.25-1.55-.36l-1-.2a36.84,36.84,0,0,1,2.42-4.83,59.46,59.46,0,0,1,11,2.56Zm-5.65,5.12,0,0-.18.19-.44.52L121,28a2,2,0,0,0-.19.22l-.34.38-.5.63,0,.06-.49.63-.47.64-.33.48-.12.17-.3.43,0,0-.18-.05a34.93,34.93,0,0,0-5.4-1.33l-.29-.06A33.36,33.36,0,0,1,114.05,25,38.23,38.23,0,0,1,121.74,27.17Zm.39,6.33c-.42-.24-.85-.49-1.3-.72s-.87-.41-1.29-.6l-.29-.13,0,0a33.81,33.81,0,0,1,2.21-2.93c.35-.41.72-.81,1.07-1.21l.13-.14a.38.38,0,0,1,.09-.09,14,14,0,0,1,4,2.62c-.31.24-.63.46-.94.69s-.82.58-1.21.91L123,33.21l-.57.47ZM170,37.57a.49.49,0,0,0-.18-.08l-2-.37L166.72,37l-1.17-.19-1.64-.3-.75-.14-1.43-.25h0a12.3,12.3,0,0,0,1.64-2.37,8.11,8.11,0,0,0,1-4.28c0-.19,0-.37,0-.57v0h0l10,0h.13a4.15,4.15,0,0,1,.16.84v.12a3.32,3.32,0,0,0,0,.41,5.41,5.41,0,0,1-.12,2v.1a10.21,10.21,0,0,1-2.08,4.35l-.12.17a6.65,6.65,0,0,1-.77.89,2.25,2.25,0,0,1-.69-.07A3.15,3.15,0,0,0,170,37.57Zm-5.77-9.64h0a11.72,11.72,0,0,0-.61-1.78A12.17,12.17,0,0,0,161.47,23a21,21,0,0,0-3.85-3.25l-.1-.07,6.09-.82,1.47-.19.22.13.69.41a26.48,26.48,0,0,1,5.25,4.11,15.17,15.17,0,0,1,2.25,2.92,10.74,10.74,0,0,1,.77,1.69ZM134.79,17.38c-.52.28-1,.57-1.57.87s-1.43.81-2.18,1.28l-1.53,1-.56.37a1.77,1.77,0,0,1-.25-.08l-.13-.05a53.37,53.37,0,0,0-8.18-2.15l-1.16-.2-1.55-.28-.22-.05a38.11,38.11,0,0,1,2.73-3.91c1.41.17,2.82.39,4.29.66a79.31,79.31,0,0,1,10.39,2.5ZM111.87,32.31l0-.28c0-.23.09-.48.16-.73a29.06,29.06,0,0,1,5.51,1.32l-.31.6c-.39.71-.75,1.39-1.1,2.09a22.08,22.08,0,0,0-.93,2.21l-.24.64-.33-.11c-.51-.17-1-.33-1.47-.47s-1-.27-1.49-.39l-.46-.11v0c0-.21,0-.43,0-.64,0-.58.1-1.18.17-1.77C111.59,33.86,111.73,33.07,111.87,32.31Zm-.72,5.85a17.21,17.21,0,0,1,3.37,1,7.3,7.3,0,0,1,.67.36,40.21,40.21,0,0,1-4.06.41C111.11,39.33,111.12,38.73,111.15,38.16Zm5.18-.47c0-.1.09-.2.13-.31.23-.59.46-1.13.7-1.64s.52-1.07.78-1.52l.18-.33a6.7,6.7,0,0,1,.54-.9,15.1,15.1,0,0,1,3,1.5h0l-.09.09a14.42,14.42,0,0,0-2.27,2.93c-.18.32-.33.65-.5,1-.06.12-.12.25-.19.38a6.67,6.67,0,0,1-1.26.27c-.23,0-.47.06-.71.11l-.65-.57A6.17,6.17,0,0,1,116.33,37.69Zm6.21-2.54a4.48,4.48,0,0,1,1.19,1.46,1.72,1.72,0,0,1,.2.8,3.94,3.94,0,0,1-.66.26l-.15,0a27.81,27.81,0,0,1-3.19.91A11.4,11.4,0,0,1,122.54,35.15Zm1.56-1.48.43-.36c.44-.38.94-.77,1.52-1.2l.33-.24a11.52,11.52,0,0,1,1.11-.78,3,3,0,0,1,.59,3.1A3.28,3.28,0,0,1,126.45,36a3.76,3.76,0,0,0-.86.57,2,2,0,0,1-.61.37,4.81,4.81,0,0,0-1.56-2.45l-.12-.11A6.87,6.87,0,0,1,124.1,33.67Zm2.16,3.79.42-.27a4.19,4.19,0,0,1,.56-.34,6.12,6.12,0,0,1,1.11-.4,30.9,30.9,0,0,1,3.43-.68l.91-.14.61-.09a26.85,26.85,0,0,1-3.59,1.74l-.19.07a2.55,2.55,0,0,0-.35.14,1.31,1.31,0,0,1-.61.11c-.78,0-1.59-.05-2.37-.1Zm5.82,14.77-.05,0a.85.85,0,0,0-.33-.21.53.53,0,0,0-.2-.16,2.58,2.58,0,0,0-.86-.72.54.54,0,0,0-.23-.22,1.56,1.56,0,0,0-.73-.6.55.55,0,0,0-.21-.19,2.5,2.5,0,0,0-.62-.6l-.2-.14-.11-.07-.06,0h.07l1-.17c.68-.1,1.39-.22,2.08-.35,1.81-.34,3.39-.67,4.85-1,2.37-.52,4.78-1.16,7.17-1.89.94-.29,1.88-.62,2.79-.93l1.09-.38.19-.07a1.55,1.55,0,0,1,.67-.14,5,5,0,0,0,1.71.61,4.91,4.91,0,0,0,1.64.61.69.69,0,0,0,.52.2l0,0a6.16,6.16,0,0,0,1.77.6,5.42,5.42,0,0,0,1.63.61l.14.11-.33.12-.06,0a103.68,103.68,0,0,1-12.4,3.59c-1.94.45-3.94.83-5.87,1.21l-.34.07c-.94.18-1.9.33-2.83.48l-1,.15a2.68,2.68,0,0,1-.33,0h-.07l-.08-.08Zm24.52-5.78a.7.7,0,0,0-.51-.19l0,0a6.33,6.33,0,0,0-1.78-.6,5.32,5.32,0,0,0-1.63-.61.72.72,0,0,0-.52-.19l0,0a6.39,6.39,0,0,0-1.77-.6,4.43,4.43,0,0,0-.9-.41c1.3-.52,2.51-1.05,3.66-1.61a35.84,35.84,0,0,0,5.13-3,18.61,18.61,0,0,0,2.29-1.88l.34-.32.07-.06H161a2,2,0,0,1,.35,0l2.19.4,1.81.33c1.25.23,2.5.44,3.71.64a3.44,3.44,0,0,0,.54,0h.08a.49.49,0,0,0,.23.11l.91.15a21.85,21.85,0,0,1-2.63,2.22,43.72,43.72,0,0,1-8.15,4.57l-2.06.87-.8.33Zm7.16-28.52c-1.19.18-2.39.34-3.55.5s-2.55.34-3.81.54a54,54,0,0,0-10.91-4.87.6.6,0,0,0,.21-.13,3.39,3.39,0,0,0,1.22-.44h0a.7.7,0,0,0,.52-.2,6.42,6.42,0,0,0,1.67-.58.1.1,0,0,0,0,0,1.43,1.43,0,0,0,.39-.08,1.29,1.29,0,0,1,.91,0,82.81,82.81,0,0,1,8,2.84A55.34,55.34,0,0,1,163.76,17.93Zm-27.51-1.28-.05,0-.44-.13a74.56,74.56,0,0,0-8.26-2.15c-1.7-.33-3.24-.62-4.72-.88-.43-.08-.87-.13-1.29-.18l-.29,0h0l-.18,0a28.42,28.42,0,0,1,2.48-2.72h.13c.2,0,.41,0,.61.05a118.77,118.77,0,0,1,17.88,3.59C140.09,14.9,138.18,15.72,136.25,16.65Zm-31.54,1.46c.37,0,.74,0,1.08,0l.6.05.57,0,.83,0h.72l.81,0,.56.06.53.05.59,0,.59,0c.32,0,.64.06,1,.1l.21,0,.89.11.28,0,.31,0,.78.1a2.69,2.69,0,0,0,.4,0l.3,0c-1,1.79-1.72,3.33-2.36,4.81h0c-.17,0-.31,0-.44,0l-1.2-.18c-.55-.08-1.12-.17-1.69-.24s-1.22-.15-1.91-.18L106.71,23c-.75,0-1.51-.11-2.28-.11h-.57c0-1.58,0-3.18,0-4.77h.86Zm7.52,32.8c.83,0,1.71-.09,2.68-.16h.1c1.29-.1,2.61-.19,3.92-.31l2.58-.29,1.1-.13.85-.09,2.28-.27,1.19-.17.4-.06a1.11,1.11,0,0,1,.15.12,1.31,1.31,0,0,0,.39.25.49.49,0,0,0,.21.16,2.29,2.29,0,0,0,.86.72.45.45,0,0,0,.23.22,1.51,1.51,0,0,0,.73.6.46.46,0,0,0,.2.19,2.45,2.45,0,0,0,.64.61l.19.14.09,0a.6.6,0,0,0,.19.16,1.4,1.4,0,0,0,.28.31h-.12l-1.74.26-2,.27c-.55.07-1,.13-1.48.17l-1.08.11-1,.09-1.72.18-.7.08h-.23l-1,.07-1.74.13-1.37.1-2.08.16-.68,0-.66,0c-1.48.1-3,.13-4.45.16l-2.24.05-3.07.08h-.29V51.1h1.56l2.32,0C109.28,51,110.81,51,112.23,50.91ZM147.09,12.6s0,0,0,0a.76.76,0,0,0-.51.18,3.56,3.56,0,0,0-1.23.45h0a.68.68,0,0,0-.48.16.77.77,0,0,0-.28.07,1.42,1.42,0,0,1-1.11,0c-1.89-.53-3.75-1.05-5.64-1.52-2.13-.52-4-.92-5.87-1.22l-1.52-.28-1.58-.28c-.6-.1-1.21-.18-1.81-.26l-.85-.12-1.61-.23-.15,0a21,21,0,0,1,1.86-1.67,149.17,149.17,0,0,1,22.23,4.21A6.86,6.86,0,0,0,147.09,12.6ZM118,9.91c.46,0,.93.09,1.39.15l.87.1,1.21.12.63.06-2.19,2.44-.23.25-.73-.09-2.26-.27c-.52-.06-1.09-.11-1.73-.16l-1.18-.09c-.49,0-1-.06-1.49-.11-.81-.06-1.62-.09-2.41-.12-.58,0-1.19,0-1.77-.08-1-.07-2-.08-3-.09L104,12h-.14V9.3h.27a5.16,5.16,0,0,1,.79,0,9.79,9.79,0,0,0,1.42.07h.59l1.42,0,1.58,0c1.46.05,2.74.1,3.92.17S116.37,9.77,118,9.91Zm-14.14,3.15h1a20.6,20.6,0,0,1,2.35.09,4.1,4.1,0,0,0,.49,0h0c1.23,0,2.49.07,3.71.15l1.14.07c1,.06,2,.17,2.91.27l1.31.14.75.07L119,14h0c-.86,1.12-1.72,2.38-2.68,3.91l-.46-.05-2.22-.26-.11,0-.21,0-.86-.06c-.59,0-1.21-.08-1.8-.15s-1.12-.08-1.67-.1-.84,0-1.25-.07c-1.13-.09-2.28-.1-3.39-.11h-.47v0C103.85,15.65,103.85,14.32,103.86,13.06Zm0,10.88h.68a11.6,11.6,0,0,1,1.88.1,1.57,1.57,0,0,0,.29,0h.08c1,0,2.16.14,3.4.31l1.63.21,1.15.16h0a.67.67,0,0,0-.06.15c-.14.39-.28.79-.41,1.18s-.37,1.05-.54,1.58-.28,1-.41,1.43c-.06.23-.12.46-.19.69a2.76,2.76,0,0,1-.08.27c-1.36-.15-2.64-.29-3.93-.4-.75-.07-1.51-.08-2.24-.1l-1.25,0h0ZM183.1,39.78h-.24l-1.38-.26c-.86-.16-1.75-.33-2.64-.47l-.46-.09a4.94,4.94,0,0,0-1.17-.13.42.42,0,0,0-.22-.11l-.4-.07c-.46-.09-.93-.19-1.4-.24-.19,0-.37,0-.57-.09a4.31,4.31,0,0,0-1-.12.92.92,0,0,0-.44-.14l-.31,0a2,2,0,0,1,.17-.23c.33-.45.68-.91,1-1.39a10.12,10.12,0,0,0,1.59-3.73v-.06a7.16,7.16,0,0,0,.14-2.74,6.44,6.44,0,0,1-.11-.92v-.11h9.07a5.45,5.45,0,0,1,.68.05l.55.05H187a.35.35,0,0,1,0,.13,9.82,9.82,0,0,1,.17,2.79,11.78,11.78,0,0,1-2.62,6.18c-.33.43-.7.85-1.06,1.26l-.39.45ZM186.74,28H182l-6.16,0h-.47l0-.09c-.08-.22-.16-.44-.25-.65a13,13,0,0,0-2.49-4,24.66,24.66,0,0,0-5-4.24l-.92-.59.79-.11.33,0,.81-.1,2-.26a.44.44,0,0,0,.24-.1,7.15,7.15,0,0,0,1.4-.13l.77-.11c.43,0,.87-.1,1.28-.17l.6-.09,1-.14.33-.05c.7.4,1.42.86,2.28,1.44a31.77,31.77,0,0,1,3.27,2.53,17.88,17.88,0,0,1,4.24,5.26,8.58,8.58,0,0,1,.68,1.65ZM174.91,16.4l-.79.1c-.25,0-.51.05-.76.09l-.88.14-.75.12-.36,0-.42,0a.71.71,0,0,0-.29.13,5.85,5.85,0,0,0-1.37.13,7.48,7.48,0,0,1-1,.13l-.63.07-.9.14-.73.11a3.26,3.26,0,0,1-.45.05h-.09a58.93,58.93,0,0,0-7.13-3.43c-2.23-.89-4.49-1.69-6.74-2.37a4.4,4.4,0,0,0,1-.4h0a.77.77,0,0,0,.51-.2,6.54,6.54,0,0,0,1.67-.58l0,0a.73.73,0,0,0,.51-.18,3.73,3.73,0,0,0,1.23-.44h0a.71.71,0,0,0,.48-.16,2.9,2.9,0,0,0,.63-.18A1.92,1.92,0,0,1,158,9.6c4.82,1.19,13.87,4.83,17,6.78ZM103.85,30.58a44.65,44.65,0,0,1,6,.38c.14,0,.28,0,.42,0a2.48,2.48,0,0,1,.73.1,8.26,8.26,0,0,1-.17.95,6.37,6.37,0,0,0-.17.89c0,.41-.11.83-.17,1.23s-.1.63-.14.94c-.06.49-.11,1-.16,1.47,0,.12,0,.23,0,.35-.8-.16-1.61-.23-2.4-.31l-.84-.08c-.51-.06-1-.06-1.52-.07h-.64l-.82,0h-.11Zm0,6.91h0c.34,0,.67,0,1,0a15.59,15.59,0,0,1,2.18.12c.41.06.81.09,1.21.13l.76.07.9.12.18,0a2.8,2.8,0,0,1,0,.29,2.17,2.17,0,0,0,0,.26c0,.22,0,.45,0,.67v.19c0,.2,0,.4,0,.61v0l-.19.06h-.08l-1.92.09c-1.3.07-2.64.14-4,.11h0c0-.64,0-1.26,0-1.85Zm1.06,3.83c1.35,0,2.7-.06,4-.14l1.13-.07c.86,0,1.74-.15,2.59-.25l1.41-.16a46.76,46.76,0,0,0,5.16-.82,29.65,29.65,0,0,0,4.45-1.24l0,0a3.2,3.2,0,0,1,1.25-.29l1.51.09-.48.14-.51.15a57.25,57.25,0,0,1-5.78,1.36c-.92.17-1.87.31-2.79.44l-.61.09c-1,.15-2.09.29-3.11.41-.6.08-1.22.13-1.86.18-1.07.07-2.2.13-3.46.19-.94,0-1.93.09-3.22.13a7.28,7.28,0,0,1-.81,0,.48.48,0,0,1,0-.17h.06Zm-1,1.25h.63l.84,0,.85,0c1.12,0,2.27-.08,3.41-.14,1.3-.08,2.49-.18,3.63-.31.94-.11,1.89-.24,2.8-.37l1.42-.2.4,0H118l.14.1a1,1,0,0,0,.31.19.47.47,0,0,0,.19.15,1.51,1.51,0,0,0,.73.6.41.41,0,0,0,.16.16.64.64,0,0,0,.21.19,1.77,1.77,0,0,0,.73.6.54.54,0,0,0,.23.19h0l-.25,0c-.39.06-.79.11-1.18.15l-.53.07-2.12.26-.21,0-1,.08-1.67.12-1.4.12-1.82.14-.52,0h-.17l-.78,0-4.74.13h-.41A16.54,16.54,0,0,1,103.89,42.57Zm0,3.32h1l1.85,0c1.09,0,2.51-.08,3.95-.16s3-.21,4.17-.31c.5,0,1-.1,1.5-.16.26,0,.52-.07.78-.09l.72-.08c.35,0,.72-.07,1.08-.12l1-.13.87-.12.68-.07h.16l.07.06c.16.14.3.26.46.38a1.26,1.26,0,0,0,.26.13l0,.07a.4.4,0,0,0,.14.11.48.48,0,0,0,.2.17,1.63,1.63,0,0,0,.73.6.48.48,0,0,0,.24.2,2.19,2.19,0,0,0,.85.72.49.49,0,0,0,.25.22,2.4,2.4,0,0,0,.86.73.61.61,0,0,0,.23.22,2.26,2.26,0,0,0,.25.29l-.58.09-1.88.22-1.25.15-1.33.16-.7.09-.2,0h0l-3.45.31h-.07l-1.13.06c-.85,0-1.72.08-2.58.15s-1.61.09-2.4.11-1.38,0-2.08.08c-1,.06-1.94.07-2.89.07l-1.58,0h-.25c0-1.34,0-2.76,0-4.17ZM103.85,56h1.21l1.82,0c1.85,0,3.66-.1,5.37-.15,1,0,2-.09,3.16-.16,1.46-.09,3-.19,4.48-.32.91-.07,1.83-.17,2.71-.26l1.45-.15.9-.08,1.3-.13c.42,0,.84-.1,1.24-.16l.64-.09.76-.09.73-.1,2.14-.28.82-.11.11.09a1.05,1.05,0,0,0,.39.25.53.53,0,0,0,.14.12.48.48,0,0,0,.21.19,1.63,1.63,0,0,0,.73.6.48.48,0,0,0,.24.2,2.39,2.39,0,0,0,.85.73.58.58,0,0,0,.23.21,1.56,1.56,0,0,0,.73.6l0,.07a.56.56,0,0,0,.14.1l0,.06-.14,0c-.38.07-.77.12-1.15.17l-.16,0-.82.11-2.69.35-1.14.11-.89.09-1.08.13-1,.12c-.67.08-1.25.14-1.79.18l-1.39.11-1.29.09-2.07.18-.91.08h-.14l-1,.06c-.75,0-1.52.09-2.29.12l-3.22.12-2.84.11c-1.44,0-2.91.07-4.33.08l-2,0h-.13Zm33.22.59a.37.37,0,0,0-.13-.12.55.55,0,0,0-.21-.19,1.67,1.67,0,0,0-.74-.6.5.5,0,0,0-.23-.2,2.29,2.29,0,0,0-.86-.72.54.54,0,0,0-.23-.22,1.55,1.55,0,0,0-.72-.6l0-.06a.4.4,0,0,0-.14-.11l-.06-.08h.07l1.87-.31c1-.17,2-.34,3-.53,2.52-.48,5-1,7.31-1.62,3.54-.89,6.72-1.86,9.75-3l1.17-.43.44-.16.7.12a5,5,0,0,0,1.72.63,5.32,5.32,0,0,0,1.64.61.8.8,0,0,0,.6.2,5,5,0,0,0,1.71.61,4.25,4.25,0,0,0,1,.46l-.76.28a118,118,0,0,1-12.71,3.71c-2.35.57-4.81,1.09-7.51,1.6-1.43.26-2.88.5-4.29.74l-1.21.2a5.24,5.24,0,0,1-.53,0h-.15a.94.94,0,0,1-.2-.12A1,1,0,0,0,137.07,56.57ZM156.2,9.33a3.51,3.51,0,0,0-1.24.44h0a.67.67,0,0,0-.51.19,6.72,6.72,0,0,0-1.67.58l0,0a.73.73,0,0,0-.51.18,3.61,3.61,0,0,0-1.23.44h0a.72.72,0,0,0-.49.16,2.6,2.6,0,0,1-1-.12c-3.11-.88-5.92-1.57-8.59-2.1l-1.54-.31-2.94-.57c-.86-.16-1.74-.3-2.59-.42l-.68-.11c-1.32-.2-2.62-.4-3.9-.58-.45-.07-.92-.11-1.37-.16l-.49,0a36.15,36.15,0,0,1,3.69-2.62c1.88.17,3.74.44,5.8.75a159.27,159.27,0,0,1,19.64,4.09A.62.62,0,0,0,156.2,9.33ZM107.65,6.62c.82,0,1.64.07,2.45.08l1.73,0c1.14,0,2.43.1,3.7.18s2.79.17,4.39.31c.88.07,1.77.17,2.64.26l1.43.15.53,0,.27,0h0l-1.61,1.49-.15.15a4.91,4.91,0,0,1-.92-.05l-.19,0c-.37,0-.74-.08-1.11-.12L119.54,9l-2-.19-.87-.08h-.17l-1.1-.07-2.13-.12c-1.4-.09-2.81-.13-4.19-.16l-2-.06-1.66,0-1.57,0V6.59H105C105.84,6.57,106.75,6.56,107.65,6.62Zm74,7.52c-.82-.4-1.67-.82-2.51-1.21-2.23-1-4.63-2-7.79-3.26-2.42-.92-4.86-1.73-7-2.42l.08-.08a6.18,6.18,0,0,0,1.69-.58h0a.7.7,0,0,0,.51-.19A3.52,3.52,0,0,0,167.93,6h0a.67.67,0,0,0,.51-.2l.57-.11c1.52.29,9.95,3.05,11.72,3.83l0,0,.17.34,1.27,3,.83,1.95ZM109.44,84.25c0,.21,0,.42,0,.63l-.06.76,0,.61c0,.14,0,.28,0,.41l0,.47h0a1.91,1.91,0,0,1-.37.06h0l.07-2.86a.88.88,0,0,1,.38-.09Zm-4,26.59.17,0,1.52-.12h.21a3.76,3.76,0,0,1,0,.67,6.23,6.23,0,0,1-1.09.15c-.26,0-.53,0-.81.08A3.64,3.64,0,0,1,105.46,110.84Zm1.89-1.27a8,8,0,0,1-1.9.19,3.23,3.23,0,0,1,0-.44v-.19l.14,0,.54,0a10.24,10.24,0,0,0,1.22-.11Zm0-1.86a.71.71,0,0,1,0,.14,7.28,7.28,0,0,1-1.9.18v-.09l1.79-.22Zm0-2.88v.09a1.37,1.37,0,0,1-.51.09,2.89,2.89,0,0,0-.49.07,4.47,4.47,0,0,1-.92.1v0c0-.26,0-.52,0-.77v0a11.32,11.32,0,0,1,1.91-.26Zm0-1.84a1.87,1.87,0,0,1-.37.07l-.15,0c-.38.06-.78.1-1.16.13l-.21,0a5.7,5.7,0,0,1,0-1.25l1.87-.17Zm-1.13-3.46c.22,0,.42-.07.63-.08l.22,0,.28,0a4.85,4.85,0,0,1,0,1.32l-.3,0a9.22,9.22,0,0,1-1.54.15l0-1.21v-.13h.21a2.11,2.11,0,0,0,.35,0Zm-1.68-5.94v.14a1.37,1.37,0,0,1-.71,0c0-.63,0-1.27,0-1.9h.79a1.08,1.08,0,0,1,0,.38,1.93,1.93,0,0,0,0,.55A5.39,5.39,0,0,1,104.57,93.59Zm-.71,3.51a4.37,4.37,0,0,1,.63,0,5.11,5.11,0,0,1,0,1.46,4.21,4.21,0,0,1-.62,0v0A13.45,13.45,0,0,1,103.86,97.1Zm0-2.26a5,5,0,0,1,.67,0,4.51,4.51,0,0,1,0,1.17,1.54,1.54,0,0,1-.66,0C103.84,95.65,103.84,95.27,103.85,94.84Zm5.62-19.73c0-.77.1-1.52.16-2.31,0-.42.07-.86.1-1.3l.35-.07.49-.09a1.63,1.63,0,0,1,0,.37c0,.1,0,.2,0,.3s-.05.49-.09.75c0,.11,0,.21,0,.32l-.06.5c0,.2,0,.39-.07.59a1.77,1.77,0,0,0,0,.32,1.52,1.52,0,0,1-.07.48l-.25.06Zm-.68,13.22a1.59,1.59,0,0,1,.46-.11v.11c0,.58-.09,1.15-.13,1.74l0,.25-.34.06C108.74,89.71,108.76,89,108.79,88.33Zm.31,3.07c0,.1,0,.21,0,.31,0,.44-.07.9-.1,1.33l0,.28-.34,0v0a10.5,10.5,0,0,1,.06-1.24c0-.19,0-.39,0-.59Zm-1.22-8a9.34,9.34,0,0,1-1.94.17,11.73,11.73,0,0,1,.06-1.77l.06-.65.29,0,1.68-.17h0A9,9,0,0,1,107.88,83.39Zm.77-11.75a4.32,4.32,0,0,1-.07,1c0,.25-.07.51-.08.78,0,.46,0,.92-.09,1.4,0,.15,0,.3,0,.45h0l-2.07.19.22-3.54a2.74,2.74,0,0,1,1-.12,3.09,3.09,0,0,0,.63-.09A2.87,2.87,0,0,1,108.65,71.64Zm-3-2.42c0,.54-.09,1.1-.14,1.64v0h-1.64V66.11l.49,0a10.05,10.05,0,0,0,1.53-.12l.07,0C105.81,66.9,105.72,67.94,105.64,69.22Zm2.67,7.57a13.55,13.55,0,0,0-.13,1.89c0,.24,0,.49,0,.73v.11a1.33,1.33,0,0,1,0,.32,7.23,7.23,0,0,1-2.05.18v-.2c0-.1,0-.2,0-.31s0-.5,0-.75,0-.27,0-.41,0-.3,0-.45,0-.31,0-.46,0-.22,0-.33v-.27a2.35,2.35,0,0,1,0-.27,20,20,0,0,1,2.09-.19C108.32,76.54,108.32,76.67,108.31,76.79Zm1.3,5a7.44,7.44,0,0,1-.11,1.28,1,1,0,0,1-.47.12c0-.35,0-.71,0-1s0-.9,0-1.35l.17,0,.41-.09A11,11,0,0,0,109.61,81.8Zm-.88-11.24a15.51,15.51,0,0,1-2.16.23c.05-.73.12-1.47.18-2.19l0-.49,0-.31a1.79,1.79,0,0,0,0-.23c0-.47.09-.93.13-1.4l0-.3a2.38,2.38,0,0,1,.74-.14l.52-.06.36-.08a3.35,3.35,0,0,1,.69-.13ZM103.89,72h.44c.22,0,.46,0,.67,0h.43c-.06.53-.08,1.07-.09,1.58a14.64,14.64,0,0,1-.15,2c-.47,0-.91,0-1.33,0C103.82,74.68,103.84,72.72,103.89,72Zm1.29,4.59h0v0c0,.22,0,.44,0,.66l-.06,1,0,.91c0,.17,0,.34,0,.51a1,1,0,0,0,0,.17,2.72,2.72,0,0,1,0,.28,5.07,5.07,0,0,1-1.16.08h0c0-1,0-2.11,0-3.47v0l.6,0A6.25,6.25,0,0,1,105.18,76.56Zm-.2,4.87c0,.62-.08,1.24-.11,1.86l0,.39h-.47c-.16,0-.34,0-.52,0h0V81.25c.28,0,.54,0,.8,0H105Zm-1.13,9.36a1.6,1.6,0,0,1,0-.31V90.2c0-.2,0-.4,0-.61a1.93,1.93,0,0,0,0-.24v-.66c.31,0,.58,0,.85,0v.57c0,.5,0,1,0,1.53a5,5,0,0,1-.67,0Zm1-5.16c0,.33,0,.66,0,1s0,.67-.07,1h-.85v0c0-.93,0-1.86,0-2.82v0c.34,0,.66,0,1,0A5.3,5.3,0,0,1,104.82,85.63Zm1.12-.95.36-.06,1.36-.11.2,0v.3a18.19,18.19,0,0,1-.1,2.55,7.64,7.64,0,0,1-2,.16C105.79,86.93,105.87,85.38,105.94,84.68Zm3.84-5.41,0,.29-.55.11c0-.22,0-.45,0-.67a11.13,11.13,0,0,1,.1-1.75,7,7,0,0,0,.07-.9v-.13l.43-.09.12,0,.1,0C110,77.12,109.88,78.17,109.78,79.27Zm.14-9.93c0-.29.07-.59.1-.88s0-.41.07-.61.08-.56.11-.84,0-.37.08-.56,0-.23,0-.35a3.86,3.86,0,0,1,.16-.9l1.17-.31v0c0,.24-.1.49-.15.72s-.13.6-.18.9c-.1.59-.2,1.2-.3,1.78l-.15.93c0,.27-.09.53-.13.8l0,.16a3.86,3.86,0,0,1-.82.17A3.8,3.8,0,0,1,109.92,69.34Zm-2.54,37.24a8.49,8.49,0,0,1-1.92.26,3.85,3.85,0,0,1,0-.59,2.44,2.44,0,0,1,.48,0,2.9,2.9,0,0,0,.58,0c.26-.05.54-.09.82-.12h0A5.22,5.22,0,0,1,107.38,106.58Zm-1.55-8.09-.25,0c0-.2,0-.4,0-.6s0-.55,0-.84l1.93-.17v.5c0,.31,0,.61,0,.91l-.08,0Zm1.67-2.67-.11,0h0a5,5,0,0,0-.88.09,4.17,4.17,0,0,1-.91.07v-.09s0-.09,0-.14,0-.13,0-.2c0-.28,0-.55,0-.81l.07,0,1.68-.12h.15A4.48,4.48,0,0,1,107.5,95.82Zm.12-3.8a3.16,3.16,0,0,0,0,.55c0,.26,0,.52,0,.78v.15h-.1l-.16,0a7.83,7.83,0,0,1-1.7.12v0a11.09,11.09,0,0,1,.1-1.79,8.45,8.45,0,0,1,1.35-.16l.58,0A2.58,2.58,0,0,1,107.62,92Zm-1.85-3.3v-.09a4.78,4.78,0,0,1,.76-.09h.22l.87-.07h.09c0,.61,0,1.23,0,1.82v.22a5.81,5.81,0,0,1-1.94.23C105.74,90.13,105.75,89.5,105.77,88.72Zm2.83,9.4a6.45,6.45,0,0,1,0-1.39l.25,0h0c0,.19,0,.39,0,.59a6.57,6.57,0,0,0,0,.78l-.18,0Zm0-2.48h0s0,0,0-.08v-.46c0-.22,0-.43,0-.63a1,1,0,0,1,.34-.08v1.14a.62.62,0,0,1-.36.12Zm1.28,4c0-.24,0-.49,0-.76h0A6.49,6.49,0,0,1,109.87,99.69Zm.3-6.66-.12,0c0-.18,0-.35,0-.53l0-.28c0-.3,0-.59,0-.9V91.2l.06,0C110.22,91.75,110.2,92.35,110.17,93ZM108,64.62a35.33,35.33,0,0,1-3.86.42h-.29v0c0-.45,0-1,0-1.45h.21c.51,0,1,0,1.54,0,1.43,0,2.9,0,4.35.05l1.93,0h0A29,29,0,0,1,108,64.62Zm36.3-1.93a.42.42,0,0,0-.15-.11,1.63,1.63,0,0,0-.73-.6.52.52,0,0,0-.24-.2,2.25,2.25,0,0,0-.86-.73.52.52,0,0,0-.24-.22,2.38,2.38,0,0,0-.86-.72.49.49,0,0,0-.23-.22,1.62,1.62,0,0,0-.73-.6.48.48,0,0,0-.21-.19,2.53,2.53,0,0,0-.65-.62,1.09,1.09,0,0,1-.17-.13l-.1,0a.64.64,0,0,0-.15-.13,1.87,1.87,0,0,0-.33-.35h0l1.43-.25.95-.16,2.39-.43.62-.11c1.49-.29,3-.58,4.56-.91,2.28-.49,4.39-1,6.45-1.55,3.34-.89,6.23-1.77,8.83-2.69l1.69-.6.67-.24.82.18a.79.79,0,0,0,.6.2,5,5,0,0,0,1.6.59.79.79,0,0,0,.59.2,2.66,2.66,0,0,0,1.15.44.76.76,0,0,0,.59.19,2.7,2.7,0,0,0,1.17.44.77.77,0,0,0,.58.19,5,5,0,0,0,1.61.59.73.73,0,0,0,.59.2,2.27,2.27,0,0,0,.77.36,130.92,130.92,0,0,1-14,4.48c-2.22.58-4.51,1.13-6.79,1.64-1.46.32-3,.6-4.39.88l-.77.14c-1.61.31-3.19.61-4.78.87l-.43.08A4.34,4.34,0,0,1,144.3,62.69Zm58.25.33a.73.73,0,0,0-.51-.18s0,0,0,0a6.29,6.29,0,0,0-1.7-.58.45.45,0,0,0-.18-.14l-.07,0,2.22-1.24.15-.08v0l1.07,2.52h-.05l-.57-.2A2.61,2.61,0,0,0,202.55,63Zm-4.16-10.56,0,0-.65.42c-.67.44-1.36.9-2.06,1.3a60.56,60.56,0,0,1-7.46,3.57,2.07,2.07,0,0,1-.38-.12,2.57,2.57,0,0,0-.61-.18.72.72,0,0,0-.49-.16h0a5.86,5.86,0,0,0-1.77-.6,5.07,5.07,0,0,0-1.63-.61.77.77,0,0,0-.59-.2,2.66,2.66,0,0,0-1.15-.44.83.83,0,0,0-.6-.19,5.25,5.25,0,0,0-1.63-.6,1.18,1.18,0,0,0-.24-.17l.35-.17c.78-.35,1.52-.68,2.26-1a48,48,0,0,0,9.45-5.67,24,24,0,0,0,4.06-4h0l3.58,8.48A1.7,1.7,0,0,1,198.39,52.46Zm-4-10.63a.42.42,0,0,0-.21-.11l-.41-.07c-.45-.09-.92-.19-1.4-.24-.19,0-.37,0-.57-.09a4.17,4.17,0,0,0-1-.12.34.34,0,0,0-.17-.08l-2-.37-.71-.12c-.58-.11-1.18-.23-1.77-.3l-.55-.1a5.12,5.12,0,0,0-1.12-.13.34.34,0,0,0-.14-.08l.34-.4c.29-.33.58-.68.85-1a13.43,13.43,0,0,0,2.32-4.52,10.63,10.63,0,0,0,.45-3.46c0-.41-.09-.81-.15-1.2,0-.14,0-.29-.07-.44H189l0,.05c.06.13.12.25.17.38,2,4.74,3.67,8.7,5.24,12.42Zm-6-13.83-.49,0c0-.1-.07-.2-.1-.29a14.73,14.73,0,0,0-2.68-4.76,25.39,25.39,0,0,0-5.18-4.73c-.51-.36-1-.71-1.54-1l-.42-.28.28-.05,1.79-.26,1.08-.14.75-.1,1.2-.15a.7.7,0,0,1,.55.13c.43.88,4.29,9.92,5,11.71ZM179.3,7.78C176.79,6.88,174,6,170.66,5a3.79,3.79,0,0,0,1.22-.44h0a.78.78,0,0,0,.52-.2l.09,0,.55-.14c.24-.07.46-.16.7-.24l.21-.08c1.72.52,3.4,1.1,5.17,1.72.33.73.64,1.47.93,2.2,0,.1.09.21.14.32Zm-3.84-5.4a2.41,2.41,0,0,0-.35.07l-.76.26-.19.07-1.52-.48c.87,0,1.9,0,2.91,0Zm.14.87a.72.72,0,0,0,.22-.15.72.72,0,0,0,.49-.16,1.89,1.89,0,0,0,.61-.18l.28-.1.29-.1a.88.88,0,0,1,.3-.1,2,2,0,0,1,.28.59c.06.16.12.33.2.5s.2.45.3.68Zm-8.24-1H169c.65.22,1.28.41,1.9.6s1.1.33,1.65.51l-.35.13a.71.71,0,0,0-.17.11.72.72,0,0,0-.5.18,3.54,3.54,0,0,0-1.24.45h0a.71.71,0,0,0-.51.19l-.56.11c-3-.85-6.07-1.64-8.9-2.34l.85,0c.71,0,1.44,0,2.16,0Zm-11.27.08c1.57.35,3.19.71,4.77,1.11,2.17.54,4.37,1.11,6.62,1.71l.12,0,0,0a3.45,3.45,0,0,0-1.23.44h0a.68.68,0,0,0-.51.2,6.3,6.3,0,0,0-1.67.58s0,0,0,0a2.46,2.46,0,0,0-.71.19l-.37.14H163l-.25,0c-2.82-.88-5.94-1.72-9.52-2.56-1.84-.44-3.78-.86-5.93-1.28-1.34-.27-2.71-.5-4-.71L142.4,2h-.08c2.57.1,5.19.1,7.71.11,1.56,0,3.17,0,4.76,0a5.5,5.5,0,0,1,1.17.15Zm4.56,5.37h0a.7.7,0,0,0-.52.2,6.72,6.72,0,0,0-1.67.58h0a2.6,2.6,0,0,1-.59-.08c-3.11-.88-6.23-1.66-9.25-2.31-2-.43-4.11-.85-6.72-1.33-1-.19-2.06-.35-3.06-.5l-1.3-.19-.6-.1-2.13-.32c-.34-.05-.69-.09-1-.12L133,3.47l-.43-.06a20.34,20.34,0,0,1,2.52-1.35A161.81,161.81,0,0,1,161.3,7.42,5,5,0,0,0,160.65,7.72ZM104.43,101h0a1.88,1.88,0,0,1-.56.06,9.18,9.18,0,0,1,0-1.39,4.1,4.1,0,0,1,.6,0A4.41,4.41,0,0,1,104.43,101Zm5.46-3.15a4.44,4.44,0,0,1,0-.62c0,.15,0,.29,0,.43v.18Zm.17-2.64v.12l0,0c0-.33,0-.67,0-1v-.09h0C110.07,94.51,110.06,94.85,110.06,95.17Zm.48-7.18c-.05.56-.09,1.11-.15,1.69l0,.35-.16.06a10,10,0,0,1,.08-1.46c0-.2,0-.4,0-.6l.21-.07Zm.34-3.86c-.08.93-.16,1.81-.24,2.66l0,0-.27.07a5.78,5.78,0,0,1,.05-.83c0-.17,0-.34,0-.51,0-.41,0-.81,0-1.21,0-.11,0-.22,0-.33a1.17,1.17,0,0,1,.36-.12h0Zm-.26-1.24c0-.22,0-.43,0-.63a10.69,10.69,0,0,1,.16-1.81l.52-.17c-.06.63-.12,1.17-.19,1.71,0,.21,0,.4-.09.64l0,.13-.07,0A2.85,2.85,0,0,1,110.62,82.89Zm.21-3.58a3.34,3.34,0,0,1,0-.43,3.85,3.85,0,0,0,.07-.49c0-.41,0-.83.08-1.24V77l.09-.91c0-.07,0-.14,0-.21.25-.08.52-.15.77-.21h0c0,.38-.11.77-.16,1.11-.09.64-.21,1.49-.34,2.33A4.37,4.37,0,0,1,110.83,79.31Zm1.36-5.07c0,.08,0,.16,0,.24a4.47,4.47,0,0,1-.81.25h-.06c0-.33.06-.66.09-1,.07-.6.14-1.31.23-2,0-.19.05-.38.08-.57v-.07l.08,0,.61-.2.5-.14c-.1.51-.2,1-.3,1.53l-.21,1Zm-.37-4.3,0-.15c.12-.79.25-1.61.39-2.41l0-.31a22.57,22.57,0,0,1,.55-2.54l.45-.17,1.45-.58a.83.83,0,0,1,.21-.06,38,38,0,0,0-1.78,5.76A6.06,6.06,0,0,1,111.82,69.94Zm-8-7.41v0c0-.68,0-1.35,0-2v0H106l3.44,0c1.56,0,3.15-.1,4.69-.15h.28c.92,0,1.9-.09,3-.16,1.81-.11,3.29-.21,4.64-.31s2.57-.21,3.69-.32l2.39-.26L129.5,59l.84-.09c.37,0,.75-.07,1.12-.12s.82-.1,1.22-.16l.66-.09.63-.08.93-.12.87-.13,1.07-.15a4.36,4.36,0,0,1,.52-.05h.12l.09.09.51.44a.08.08,0,0,1,0,0,1.25,1.25,0,0,0,.33.2.54.54,0,0,0,.21.16,2.51,2.51,0,0,0,.86.73.47.47,0,0,0,.23.21,1.63,1.63,0,0,0,.73.6.43.43,0,0,0,.22.2,2.54,2.54,0,0,0,.9.77.55.55,0,0,0,.22.18,2.31,2.31,0,0,0,.86.72.47.47,0,0,0,.24.22,2.2,2.2,0,0,0,.34.38l-1,0-2.19,0-6.1,0h-3.69c-.9,0-1.83,0-2.74,0-2.61-.09-5.26-.09-7.82-.1-2.22,0-4.52,0-6.77-.06-1.76,0-3.55-.06-5.28-.07Zm-16.71-.17c-1.18,0-2.39,0-3.59,0-2.6-.09-5.25-.09-7.81-.1-2.22,0-4.52,0-6.78-.07l-4.19-.06-2.2,0a.54.54,0,0,0,.15-.15,1.66,1.66,0,0,0,.73-.6.53.53,0,0,0,.21-.18,1.76,1.76,0,0,0,.74-.6.55.55,0,0,0,.21-.19,1.6,1.6,0,0,0,.73-.6.57.57,0,0,0,.22-.19,1.5,1.5,0,0,0,.73-.6.56.56,0,0,0,.23-.2,1.56,1.56,0,0,0,.7-.57,1.1,1.1,0,0,0,.47-.31,1.11,1.11,0,0,1,.15-.12h0l1.26.2c.8.13,1.62.26,2.43.37l1.88.24,1.09.13.94.13.93.12c.63.08,1.12.14,1.58.18l1.13.1,1.07.1L82,59.5l.79.09h.17l.94.06,2,.14,2.28.17,1.18.09h.33c.58,0,1.18,0,1.76.06,1.28,0,2.6.09,3.9.16,1.77.11,3.56.12,5.29.13h2.17c0,.68,0,1.21,0,1.71,0,.12,0,.25,0,.37h0c-.47,0-.95,0-1.41,0-1.06,0-2.16,0-3.23,0-1.83-.08-3.69-.09-5.48-.09h-3l-1.91,0ZM81.93,1.52c.87,0,1.77,0,2.66,0,.71,0,1.48,0,2.35,0,3.62.1,7.3.11,10.86.12h2.59l-1.26,0H97.59l-2.09,0c-1.42,0-2.87.1-4.26.16h-.08c-1,0-1.86.09-2.68.15l-2.13.17-1,.09H85c-1.12,0-2.25.16-3.33.28l-.15,0-1.26.11-1,.09L78,3,77,3.1l-.8.07-.24,0-.31-.12a.57.57,0,0,0-.16-.15.53.53,0,0,0-.22-.2,5.19,5.19,0,0,0-.85-.84l.11,0,.91-.08,1.21-.11A38.56,38.56,0,0,1,81.93,1.52ZM96.15,103.64v.45l-.21-.12a2.48,2.48,0,0,0,0-.41c0-.11,0-.19,0-.27l.27.09A.52.52,0,0,1,96.15,103.64Zm0-1.4-.29-.15c0-.31,0-.63,0-1l.21.08,0,.12A4.26,4.26,0,0,1,96.13,102.24Zm-1.38-3.1a.77.77,0,0,1,0-.27c0-.11,0-.23,0-.34s0-.19,0-.27h0l0,0A8.14,8.14,0,0,1,94.75,99.14Zm-.27-5.61.07,0a6.67,6.67,0,0,1,0,1.21l0,0a1.57,1.57,0,0,1,0-.45c0-.12,0-.25,0-.39Zm-.2-3,.13.07h0v.23c0,.49.07,1,.1,1.51l-.1-.09A13.79,13.79,0,0,1,94.28,90.5ZM99,98.24v.07l-.24,0A9.42,9.42,0,0,1,97.09,98v-.14a8.55,8.55,0,0,1,0-1.13l1.91.26c0,.14,0,.26,0,.38C99,97.63,99,97.94,99,98.24Zm-3.13-6.17c0,.28,0,.55,0,.84l-.23-.07,0-.25a14.91,14.91,0,0,1-.12-1.6,2.42,2.42,0,0,1,.35.12,5,5,0,0,1,0,.56A2.67,2.67,0,0,0,95.88,92.07Zm0-2.11-.34-.12a.74.74,0,0,1,0-.12,6.76,6.76,0,0,0-.06-1.11,8.1,8.1,0,0,1-.06-.84l.16,0,.2.07A12.82,12.82,0,0,1,95.84,90Zm-.16-3.19a1.15,1.15,0,0,1-.34-.13c0-.36,0-.72-.08-1.07a17.34,17.34,0,0,1-.09-1.77l.37.11A15.06,15.06,0,0,1,95.68,86.77Zm-.61-12.13a1.82,1.82,0,0,1-.66-.21l0-.17c-.14-1.17-.28-2.3-.41-3.43l.79.24v0a4.23,4.23,0,0,1,.07.43C94.94,72.59,95,73.64,95.07,74.64ZM35,50.05h0a.79.79,0,0,0-.56.17,1.74,1.74,0,0,0-.88.3.8.8,0,0,0-.54.16.7.7,0,0,0-.47.16.67.67,0,0,0-.47.16.71.71,0,0,0-.48.16.71.71,0,0,0-.47.15.83.83,0,0,0-.48.16.76.76,0,0,0-.47.16.67.67,0,0,0-.47.16.73.73,0,0,0-.48.15.8.8,0,0,0-.47.16.78.78,0,0,0-.47.16.67.67,0,0,0-.51.19l-.53.08-.56-.26c-.52-.23-1.06-.47-1.6-.73a57.87,57.87,0,0,1-7.23-4.07A33.24,33.24,0,0,1,12,42.63c-.28-.3-.55-.61-.81-.92l-.06-.07h.12c.51-.06,1-.14,1.53-.22h0a.47.47,0,0,0,.19-.08h.11a7.87,7.87,0,0,0,1.2-.13l.66-.11c.51-.05,1-.14,1.51-.23l1-.17L19,40.48l1.16-.15a.67.67,0,0,0,.24-.11,7.36,7.36,0,0,0,1.25-.13c.28,0,.57-.09.87-.11a.52.52,0,0,1,.11.1,32.78,32.78,0,0,0,7.17,5.63,59,59,0,0,0,7.14,3.64l-.09.07a.73.73,0,0,0-.51.19A4,4,0,0,0,35,50.05ZM34.8,37a12,12,0,0,1-2-3.44,8,8,0,0,1-.48-2.89,8.42,8.42,0,0,1,.83-3.5l.21,0h.66a10.32,10.32,0,0,1,1.58,0,20.92,20.92,0,0,0,2.35.1h.84c.88,0,1.78,0,2.65,0h1.61a6.49,6.49,0,0,0-.37,2.06c0,.1,0,.19,0,.29a6,6,0,0,0,.19,1.73A10.11,10.11,0,0,0,45,35.64l0,0h0l-.34,0a.49.49,0,0,0-.24.12H44.3c-.22,0-.45,0-.68,0-.7.09-1.4.21-2,.31a.61.61,0,0,0-.27.12,6.2,6.2,0,0,0-1.31.12c-.25,0-.49.08-.73.1s-.66.1-1,.16l-.59.1-2,.29-.71.09Zm52.94,3.21-.27.08-.63-.11-1.73-.34a55.36,55.36,0,0,1-6.92-1.86,36.74,36.74,0,0,1,3.87-.11,34.73,34.73,0,0,0,6.06,2L88,40A.54.54,0,0,0,87.74,40.17ZM86,41.61a1.67,1.67,0,0,0-.74.59.55.55,0,0,0-.21.19,1.55,1.55,0,0,0-.73.6.54.54,0,0,0-.22.2l-.22.1a1,1,0,0,0-.17.1A80.49,80.49,0,0,1,68.78,39.7a25.09,25.09,0,0,1,3.29-.9c.87-.18,1.76-.33,2.61-.47l1-.17.53.19,1.21.44A47.08,47.08,0,0,0,83.3,40.5c.74.17,1.5.31,2.22.45l.94.19a1.66,1.66,0,0,0-.26.28A.46.46,0,0,0,86,41.61ZM68.46,31.11A3.46,3.46,0,0,1,68.32,29a35.88,35.88,0,0,1,7.5,3l.69.4.18.1.09.29a7.11,7.11,0,0,0,.34,1,5.39,5.39,0,0,0,.3.52h0c-.66-.13-1.28-.26-1.93-.37-1.1-.2-2-.33-2.81-.43l-2-.18-.79-.06A5.13,5.13,0,0,1,68.46,31.11Zm9.85-2.3a5.07,5.07,0,0,0-1.52,2.52l-.46-.24c-.66-.34-1.33-.69-2-1-.87-.4-1.8-.77-3-1.19-.7-.25-1.39-.47-2.13-.7L68.67,28a9.51,9.51,0,0,1,3.46-3.51,29.56,29.56,0,0,1,5.34,3.38c.3.24.64.5,1,.79Zm-19.68-1.3a2.89,2.89,0,0,0,.5,0h.18a38.74,38.74,0,0,1,3.9.42l.13,0c1.17.16,2.33.42,3.53.68l.41.12a.53.53,0,0,1,0,.13A4.75,4.75,0,0,0,68,32.5a7.91,7.91,0,0,0,.44.68H66.68c-1.11,0-2.25,0-3.37,0a30.48,30.48,0,0,0-3.5.27l-1.06.1-.39,0a7.2,7.2,0,0,1-2-3.56,5,5,0,0,1,.11-2.58h.65A9.37,9.37,0,0,1,58.63,27.51Zm1.43,7c.57,0,1.16-.08,1.74-.14a38.18,38.18,0,0,1,4-.13h1.07a15.91,15.91,0,0,1,2.55.15A17.68,17.68,0,0,0,72,36.29c.62.38,1.27.71,2,1.05h0c-1.1.18-2.08.38-3,.6a20.6,20.6,0,0,0-3.65,1.17,27.19,27.19,0,0,1-8-4.59Zm16,2.62H76a22.62,22.62,0,0,1-4.79-2.65l2,.23a32.26,32.26,0,0,1,4.43.81l.77.26.28.1,1.43.94h-.93l-.38,0-.56,0-.24,0-.23,0h-.59l-.35,0-.3,0-.18,0Zm5.29-.94c.06.07.13.14.19.22a9.67,9.67,0,0,1-2.86-2.15,3.8,3.8,0,0,1-.56-.79A17.89,17.89,0,0,1,81.35,36.15ZM77.8,31.94A1.8,1.8,0,0,1,78,31a4.33,4.33,0,0,1,1.22-1.55,27.18,27.18,0,0,1,4.07,4.8l-.08.09c-.19.23-.39.46-.57.72s-.23.4-.33.6A20.71,20.71,0,0,0,77.8,31.94Zm5.84-6.2A20.54,20.54,0,0,0,80,27.48l-.68.45-.08.06L79,27.75l-1.12-.89c-.6-.46-1.14-.86-1.67-1.22s-1-.65-1.68-1.07c-.23-.14-.47-.26-.69-.39l-.58-.31a28.06,28.06,0,0,1,6.41-2.62,24.43,24.43,0,0,1,4.06,4.47ZM71,24a11.44,11.44,0,0,0-1.85,1.57,7.43,7.43,0,0,0-1.44,2l-.06.13a6.86,6.86,0,0,1-1-.21c-.32-.08-.65-.17-1-.22s-.73-.12-1.09-.19-.77-.15-1.16-.21c-.71-.1-1.44-.18-2.15-.25l-.21,0c-.7-.07-1.5-.15-2.28-.2-.53,0-1-.06-1.6-.07h-.26l0,0a8.9,8.9,0,0,1,1.4-2,16.26,16.26,0,0,1,3.07-2.55l.53-.33.13-.08a3.75,3.75,0,0,1,1.21.13l.31.07A36.2,36.2,0,0,1,71,24ZM84,37.45l-.41-.16-.37-.57a2.21,2.21,0,0,1,.74-1.51A18,18,0,0,1,85.35,38C84.87,37.81,84.42,37.63,84,37.45Zm.21-3.9-.24-.33A22.57,22.57,0,0,0,82.2,31l-1.64-1.77-.45-.48a15.27,15.27,0,0,1,4.29-2.11h0a35.4,35.4,0,0,1,3,5.22A16.1,16.1,0,0,0,84.16,33.55ZM74,22.26l-1,.53-.43.23-.38.2-.06,0a1.43,1.43,0,0,1-.46-.17L71.47,23a35,35,0,0,0-6-2.08c-.62-.15-1.25-.29-1.86-.41l0,0A40.56,40.56,0,0,1,69,18.11c.89-.32,1.82-.61,2.71-.9l1.11-.36a22.89,22.89,0,0,1,5.87,3.54A32.66,32.66,0,0,0,74,22.26ZM87.87,32.85A38.39,38.39,0,0,1,90,39l-.08.17c-1.1-.21-2.16-.46-3.21-.77a27.79,27.79,0,0,0-2-3.88A12.66,12.66,0,0,1,87.87,32.85Zm1.18,0-.15-.37.09,0a29.8,29.8,0,0,1,3.76-.95l1.7-.31.52-.08a1.92,1.92,0,0,1,.11.46c0,.38.11.76.17,1.14s.14,1,.2,1.42a20.61,20.61,0,0,1,.26,2.7v0l-.59.13-1.87.4a9.5,9.5,0,0,0-2.32.81c-.1-.28-.18-.58-.25-.86s-.18-.63-.29-.94c-.23-.67-.48-1.38-.75-2.08C89.45,33.85,89.26,33.38,89.05,32.87ZM92,38.92a14.62,14.62,0,0,1,2.88-.77l.32-.07a2.12,2.12,0,0,1,.59-.09,8.11,8.11,0,0,1,0,2h-.33c-1.31-.12-2.73-.31-4.33-.59A3.26,3.26,0,0,1,92,38.92Zm2.49-8.78a34.66,34.66,0,0,0-4.13.82l-1.47.41-.44.13a4.91,4.91,0,0,1-.22-.46c-.07-.15-.13-.3-.21-.44s-.21-.38-.3-.57-.21-.41-.33-.62c-.21-.4-.45-.81-.71-1.24-.1-.18-.21-.36-.32-.53s-.26-.4-.37-.61-.19-.27-.28-.4a3.5,3.5,0,0,1-.23-.35,37.54,37.54,0,0,1,7.72-1.69,23.33,23.33,0,0,1,1.27,4.11c0,.16.09.32.13.47a4.39,4.39,0,0,1,.19.9A1.2,1.2,0,0,1,94.47,30.14Zm-2.66-6.47c-1,.18-2,.35-3,.57s-1.92.48-2.93.75l-1.11.3a.94.94,0,0,1-.1-.1,30.86,30.86,0,0,0-3.83-4.34,66.65,66.65,0,0,1,9.65-1.94,22.08,22.08,0,0,1,2.26,4.6ZM89.55,18A60.61,60.61,0,0,0,83,19.22l-2.16.54-.87.22a26.72,26.72,0,0,0-5.42-3.56l.45-.11c1-.26,2.08-.52,3.12-.75s2.38-.5,3.6-.72c1-.17,2-.32,2.92-.46l.57-.08.38-.07a3.3,3.3,0,0,1,.92-.09,14.64,14.64,0,0,1,3.45,3.77A2.29,2.29,0,0,1,89.55,18ZM57.77,20.59l1.44.18,1.44.18h.06a18.35,18.35,0,0,0-2.85,2.31,10.16,10.16,0,0,0-2.13,3.08,1.38,1.38,0,0,1-.1.22h0a1,1,0,0,1-.31,0h-.2l-4.15,0-1.84,0H48l-1.9-.08-.93,0h-.54A10.14,10.14,0,0,1,46.23,24a19.06,19.06,0,0,1,3.36-3l.06,0c.62-.43,1.26-.88,1.91-1.24.3,0,.6.08.89.12a9.4,9.4,0,0,0,1.69.17.82.82,0,0,0,.28.11ZM44.2,27.29a4.72,4.72,0,0,1,1.06,0l.24,0c.21,0,.43.05.65.05l5.68,0h2.64l.87.11h0c0,.14,0,.28-.07.42a6.69,6.69,0,0,0,1.12,4.82c.23.36.49.7.74,1l0,.07-.16,0-.93.12-.54.07h-.07c-.39.05-.79.1-1.19.17l-1.41.23-2.22.35c-.47.08-.95.14-1.42.2l-1.14.15-1.31.21-.46.08h0l-.27-.32a8.93,8.93,0,0,1-2.13-4.12A6.85,6.85,0,0,1,44.2,27.29Zm4.09,8.82,1.39-.19L51,35.7l1.25-.2,1.33-.19c.4-.05.83-.1,1.24-.17l1.53-.24,1.26-.2a2.24,2.24,0,0,1,.26,0h.07l.15.12a19.79,19.79,0,0,0,4.06,3A33.47,33.47,0,0,0,66,39.72l-.09.06a38,38,0,0,1-.93.31,2.36,2.36,0,0,0-.74.18l-.19.06L60,41.69l-2.12.7-.39.11-.08,0L57,42.39c-.32-.13-.62-.25-.93-.39a38.83,38.83,0,0,1-6.34-3.53,18.19,18.19,0,0,1-2.66-2.2Zm12.28,6.35,4-1.34.15,0a1.12,1.12,0,0,0,.56-.24,13.89,13.89,0,0,0,1-.31.8.8,0,0,0,.49-.18l.49-.09a78.65,78.65,0,0,0,15.43,4,1.37,1.37,0,0,0-.24.29,1.77,1.77,0,0,0-.78.62.48.48,0,0,0-.21.19,1.69,1.69,0,0,0-.74.6.52.52,0,0,0-.21.18,1.65,1.65,0,0,0-.73.6.48.48,0,0,0-.22.2,1.53,1.53,0,0,0-.73.59.58.58,0,0,0-.19.15,1.37,1.37,0,0,0-.38.23l-.16.13a98.52,98.52,0,0,1-19.35-5Zm41.9-12.94c-.24,0-.48,0-.71,0a24.44,24.44,0,0,0-2.72.11c-.43,0-.88.07-1.32.09s-.94.09-1.44.15l-.44.06a43.75,43.75,0,0,0-1.55-5.52h.11c.32,0,.63-.1.93-.13a68.86,68.86,0,0,1,7.43-.33c0,1.92,0,3.8,0,5.57h-.29ZM66.17,14.28a.76.76,0,0,0,.51.2.75.75,0,0,0,.48.15l0,0a6.25,6.25,0,0,0,1.68.58.73.73,0,0,0,.52.19l0,0a6.35,6.35,0,0,0,1.68.58.67.67,0,0,0,.35.17,47.69,47.69,0,0,0-7.89,3.12c-.4.2-.79.42-1.2.64l-.48.27-.68-.1-.42-.07-.9-.13-1.29-.15L57,19.57l-.71-.11c-.27-.05-.55-.1-.84-.13l-.84-.06H54.4a.83.83,0,0,0-.42-.14l-.37,0L52.82,19a63.71,63.71,0,0,1,12.52-4.91Zm36.39,22.16c-.52,0-1.06,0-1.58,0-.67,0-1.34,0-2,.1-.43,0-.89.08-1.33.1a2.22,2.22,0,0,0-.45.06,1.63,1.63,0,0,1-.43.05A49.93,49.93,0,0,0,96,31l.26,0h.09L98,30.78l.82-.06c1-.08,2.16-.17,3.35-.15h.59c0,1.74,0,3.64,0,5.8a.09.09,0,0,1,0,.05h-.2ZM82.88,10.66a.58.58,0,0,0,.12.1.51.51,0,0,0,.22.19,4,4,0,0,0,.87.83l.1.07s.06,0,.09.05a.53.53,0,0,0,.14.12.49.49,0,0,0,.16.16.48.48,0,0,0,.21.19,3.73,3.73,0,0,0,.81.78l-.81.12c-1.75.27-3.56.55-5.34.91-2.25.46-4.45,1-6.55,1.55a1.9,1.9,0,0,1-.39-.11,2.15,2.15,0,0,0-.58-.15.79.79,0,0,0-.49-.17h0a6.35,6.35,0,0,0-1.68-.58.73.73,0,0,0-.52-.19v0a7.06,7.06,0,0,0-1.69-.58.71.71,0,0,0-.49-.19.51.51,0,0,0-.13-.09l1.62-.43c2.21-.54,4.59-1.05,7.28-1.55,1-.19,2-.34,3-.48L80.23,11l.57-.09c.32-.06.65-.11,1-.15A5.07,5.07,0,0,1,82.88,10.66Zm-21.59,1.9a.73.73,0,0,0,.51.18h0a6.41,6.41,0,0,0,1.69.58.51.51,0,0,0,.16.11l-.6.2c-1,.34-2.09.69-3.13,1.06A51.68,51.68,0,0,0,52.34,18c-.27.14-.62.34-1,.55a1.35,1.35,0,0,1-.5.17.91.91,0,0,0-.35-.11h0l-.29,0-.57-.07a7.85,7.85,0,0,1-.81-.11,7.89,7.89,0,0,0-1.39-.13.93.93,0,0,0-.39-.13h0l-.52-.05A8.39,8.39,0,0,1,45.33,18a7.31,7.31,0,0,0-1.43-.13.61.61,0,0,0-.16-.09l.35-.18c.57-.31,1.17-.62,1.76-.9a79.81,79.81,0,0,1,11.08-4.12c.65-.19,1.33-.39,2-.58l.26-.05h.07l.38.13,1.25.43A3.11,3.11,0,0,0,61.29,12.56Zm-17.65,6a.74.74,0,0,0,.4.14h0l.53.06a11.4,11.4,0,0,1,1.21.16,7.37,7.37,0,0,0,1.3.12.8.8,0,0,0,.44.14h.07l.55.06a9.58,9.58,0,0,1,1.11.15,5.4,5.4,0,0,0,.6.09l-.08.06c-.5.34-1,.7-1.52,1.08a17.81,17.81,0,0,0-3.4,3.29A10.87,10.87,0,0,0,43.6,26l-.19.36h0c-2.28.06-4.59,0-6.83-.07l-2.91-.08,0-.06c.25-.41.51-.82.79-1.2a17.26,17.26,0,0,1,3-3.17,33.84,33.84,0,0,1,4.75-3.26l0,0Zm13.24,25.1.23-.05h0a82.26,82.26,0,0,0,10.09,3.3c3.1.8,6.3,1.48,9.77,2.07a1.16,1.16,0,0,0-.16.21,1.69,1.69,0,0,0-.74.6.48.48,0,0,0-.21.19,1.64,1.64,0,0,0-.73.59.59.59,0,0,0-.22.19,1.55,1.55,0,0,0-.73.6.48.48,0,0,0-.21.19,1.44,1.44,0,0,0-.73.6.5.5,0,0,0-.23.2l-.34.14c-4.22-.68-8.33-1.55-12.22-2.56a92.39,92.39,0,0,1-11.35-3.68ZM102.77,50v0H102c-.73,0-1.49,0-2.23,0l-4.49-.16c-.87,0-1.77-.09-2.74-.16h-.17c-1.28-.09-2.61-.18-3.91-.3-.87-.08-1.76-.19-2.62-.29l-1-.12-.87-.1c-.71-.08-1.45-.16-2.17-.26L81,48.52c-.56-.08-1.14-.15-1.71-.26l.06-.07a1.6,1.6,0,0,0,.73-.6.48.48,0,0,0,.21-.19,1.62,1.62,0,0,0,.74-.6.48.48,0,0,0,.21-.19,1.46,1.46,0,0,0,.74-.6.53.53,0,0,0,.22-.2,1.45,1.45,0,0,0,.74-.62,1.61,1.61,0,0,0,.78-.62l.2-.08.76.11c.68.1,1.38.21,2.08.3L88,45l.63.06,1.77.2.58.06h.17l.9.07,1.85.13c.8.06,1.62.09,2.4.12l1.7.08c1.3.08,2.61.09,3.88.1h.92a.43.43,0,0,0,0,0Zm-3.3-8.61a4.78,4.78,0,0,0-.53,0h-.28l-1.13,0c-.86,0-1.76-.07-2.63-.16l-1-.09c-1.3-.12-2.63-.24-3.93-.47-.42-.07-.84-.12-1.25-.17l.39-.33,0,0,.87.16c.8.15,1.62.3,2.43.41,1.27.19,2.52.31,3.46.4,1.38.12,2.51.2,3.55.25.81,0,1.63,0,2.42,0h.83l0,0a.49.49,0,0,1,0,.12h-.95A16.31,16.31,0,0,1,99.47,41.42ZM96.9,40.06c0-.08,0-.18,0-.28v-.31c0-.26,0-.52,0-.77v-.85a12.13,12.13,0,0,1,2-.23c.3,0,.61,0,.91-.06a27.1,27.1,0,0,1,2.87-.07h0a21.07,21.07,0,0,1,0,2.75A41,41,0,0,1,96.9,40.06Zm5.87-17.35a1,1,0,0,1,0,.16h-.91c-.4,0-.82,0-1.24,0-1.28,0-2.65.1-4,.19-.45,0-.91.09-1.36.15l-.83.1a3.23,3.23,0,0,1-.44,0h0l-.13-.3c-.17-.4-.34-.8-.52-1.2-.27-.58-.55-1.2-.85-1.79-.2-.39-.41-.78-.62-1.16a.64.64,0,0,1-.08-.14,104.94,104.94,0,0,1,11-.63v4.59Zm0-5.67H101l-1.13,0c-1.1,0-2.25.06-3.37.15l-1,.08c-1.1.07-2.24.15-3.36.33a6,6,0,0,1-.78.06H91.1a20.57,20.57,0,0,0-3.19-3.81l.36-.05,1.49-.14.62-.06,2.9-.27.22,0,1.25-.06c1-.05,1.94-.1,2.91-.13L99,13.13c1.07-.05,2.17-.11,3.26-.07h.47v0C102.77,14.45,102.77,15.79,102.76,17Zm0-5.75c0,.23,0,.47,0,.71H101.3l-1.15,0c-1.49,0-3,.08-4.53.15-.72,0-1.46.1-2.17.16l-1,.09-.74.06-1.62.13-1.4.16-1,.11L87,13h-.2l-.24-.1a.58.58,0,0,0-.21-.2,3.77,3.77,0,0,0-.82-.78l-.15-.12-.1-.06,0,0-.12-.09a.57.57,0,0,0-.16-.15.48.48,0,0,0-.21-.19,3.77,3.77,0,0,0-.79-.76l0,0,.82-.1,2.5-.28c.6-.06,1.15-.12,1.71-.16,1-.08,2-.15,2.82-.19l1.35-.07c.77,0,1.57-.07,2.36-.14,1.25-.1,2.52-.11,3.76-.12l2,0,.81-.06a5.52,5.52,0,0,1,.7,0C102.78,10,102.78,10.64,102.77,11.29ZM38.46,37.56c.31-.06.65-.11,1-.15l.33,0,.58-.07,1-.13a.49.49,0,0,0,.24-.12h.16c.22,0,.45,0,.68,0,.7-.09,1.4-.21,2-.31a.66.66,0,0,0,.28-.12l1.07,0,.21.19.79.72a25.11,25.11,0,0,0,5,3.56,39.27,39.27,0,0,0,4,2l.06,0-7,2.32-1,.34c-1.3-.51-2.53-1.13-3.79-1.77a36.83,36.83,0,0,1-5.76-3.59A25.26,25.26,0,0,1,35.7,38Q37.1,37.82,38.46,37.56ZM95.65,54.77,92,54.61l-2.35-.15-1.86-.17-1-.08-.24,0H86.4l-3-.29-1.64-.17-.89-.1c-.78-.08-1.59-.16-2.39-.26l-1.78-.26L75.79,53l-.69-.1-.79-.11-.37-.06a1.57,1.57,0,0,0,.56-.53.46.46,0,0,0,.22-.19,1.53,1.53,0,0,0,.73-.59.51.51,0,0,0,.22-.19,1.55,1.55,0,0,0,.73-.6.53.53,0,0,0,.21-.18,1.52,1.52,0,0,0,.74-.62.9.9,0,0,0,.26-.13c.16-.11.3-.24.46-.37l.09-.07h.34l1.68.25,2.13.32c.41.06.83.1,1.23.14l.66.07.94.11,1.17.14.25,0,1.56.15,1.87.14,1,.07,1.16.08c.81.06,1.64.13,2.46.17.38,0,.75,0,1.12,0s.78,0,1.17,0c1.82.12,3.68.13,5.47.14h.43v3.65c0,.05,0,.1,0,.16h-1a17.15,17.15,0,0,1-1.75-.06c-.47,0-.94,0-1.39,0H97.3ZM80,8.09a4.11,4.11,0,0,0,.85.82L81,9a.33.33,0,0,0,.1.06.69.69,0,0,0,.13.11.57.57,0,0,0,.16.15.5.5,0,0,0,.23.2l.1.13-.24,0-2,.27c-.67.1-1.47.22-2.25.36l-2.78.52-1.08.2c-2.08.4-4.32.91-7.06,1.63l-.14,0-.43.12a2,2,0,0,1-1,.12.69.69,0,0,0-.48-.17.72.72,0,0,0-.49-.16v0A6.76,6.76,0,0,0,62.17,12a.73.73,0,0,0-.5-.2.86.86,0,0,0-.25-.13h0l-.56-.2A144.46,144.46,0,0,1,79.81,8ZM102.77,44.2v.64H102l-2.27,0c-1.49,0-2.72-.09-3.85-.15-.71,0-1.43-.1-2.13-.16l-1-.09-.41,0c-.9,0-1.86-.13-3.1-.29l-1-.11-.8-.09c-.81-.09-1.66-.2-2.57-.32a1.57,1.57,0,0,0,.66-.57.48.48,0,0,0,.21-.19,1.55,1.55,0,0,0,.73-.6.49.49,0,0,0,.22-.18,1.19,1.19,0,0,0,.58-.46.55.55,0,0,0,.2-.17l.14,0,.86.12,2.15.3h.07c.65.08,1.31.18,2,.25l1.82.18.5,0c.59,0,1.2.1,1.8.12s1.38,0,2,.09c1.22.06,2.48.12,3.72.09h.19a1.71,1.71,0,0,1,0,.32,2.8,2.8,0,0,0,0,.29C102.78,43.52,102.77,43.85,102.77,44.2Zm0-36h-.16l-2.09,0-4.38.12c-.89,0-1.78.1-2.65.16l-1.21.09h-.39L91,8.72l-2.16.15-2.39.26L85,9.28l-1.56.16-.56.05-.06-.05a5.63,5.63,0,0,0-.45-.38.91.91,0,0,0-.26-.13.33.33,0,0,0-.06-.1L82,8.75a.46.46,0,0,0-.16-.15.48.48,0,0,0-.21-.19,3,3,0,0,0-.54-.57l.61-.06,1.18-.12,1-.11,1.44-.16,2-.16.26,0L90.66,7l.81-.06h.3c1,0,2.06-.07,3.07-.12s2.37-.1,3.55-.12l1.53,0,2.09,0h.73c0,.54,0,1.07,0,1.57A.2.2,0,0,1,102.76,8.22ZM76.38,4.79a.44.44,0,0,0,.15.12.45.45,0,0,0,.23.2A4.72,4.72,0,0,0,78,6.19a.54.54,0,0,0,.15.15.57.57,0,0,0,.16.15,1.08,1.08,0,0,0,.3.33l.1.09.14.14-.14,0-1.14.15-1.44.19c-1.45.21-2.73.41-3.89.61s-2.46.43-3.65.65c-2.5.45-5.07,1-7.64,1.68l-1.31.33-.55.14-.28-.09-1.06-.35a3.48,3.48,0,0,0-.41-.1h0a.73.73,0,0,0-.51-.2.78.78,0,0,0-.18-.11c-.61-.22-1.21-.44-1.78-.63a.75.75,0,0,0-.24,0,.72.72,0,0,0-.49-.16s0,0,0,0a6.59,6.59,0,0,0-1.53-.55l.78-.19c1.18-.29,2.39-.6,3.59-.86,2.08-.46,4.29-.92,6.77-1.41,1.53-.3,3.09-.55,4.56-.78.83-.13,1.68-.25,2.5-.36L72,4.81l1-.14,1.88-.27c.24,0,.49-.05.72-.06h.19a1.09,1.09,0,0,1,.22.18A1.53,1.53,0,0,0,76.38,4.79ZM51.49,9.08a.72.72,0,0,0,.52.18v0a6.73,6.73,0,0,0,1.68.58.72.72,0,0,0,.52.19.47.47,0,0,0,.18.12l1.78.63a1,1,0,0,0,.23,0,.72.72,0,0,0,.49.16.92.92,0,0,0,.42.21l.11,0,0,0-.34.1c-1,.31-2,.61-3,.93-1.28.42-2.79.93-4.25,1.49s-2.8,1.13-4.15,1.75c-.95.44-1.9.92-2.81,1.38l-1.12.56-9.55-1.3,1.13-.61a77.05,77.05,0,0,1,9.66-4.11c2.11-.75,4.44-1.49,7.33-2.31L50.88,9,51,9ZM30.88,17l.06,0a6.51,6.51,0,0,1,1.22.11,10.19,10.19,0,0,0,1.07.15l.51.07.85.12,1.17.16,1,.12.75.09.94.12L39,18l.46.06,1.3.17A30.35,30.35,0,0,0,37,20.83a18.27,18.27,0,0,0-4,4.46c-.14.23-.28.46-.42.71l-.12.21H29.3a11.5,11.5,0,0,1-1.16-.05c-.31,0-.63-.05-.94-.05l-3.69,0-2.23,0H21a13.62,13.62,0,0,1,1.45-2.19A22.56,22.56,0,0,1,26,20.3a36,36,0,0,1,4.62-3.19Zm-5,10a2.29,2.29,0,0,1,.75.06,1.56,1.56,0,0,0,.52,0h.13l4.45,0h.34a1,1,0,0,0,0,.1,1,1,0,0,0-.07.15,9.16,9.16,0,0,0-.63,3.2,9.86,9.86,0,0,0,1.41,5.22c.27.46.57.91.87,1.34l.2.3h-.07c-.22,0-.45,0-.68,0-.7.09-1.4.21-2,.31a.76.76,0,0,0-.27.11,5.57,5.57,0,0,0-1.3.13c-.25,0-.49.08-.73.1s-.73.1-1.07.17l-.51.09-1.85.29-1.24.18-.7.09-.23,0-.08-.06a13,13,0,0,1-3.11-5.74,9,9,0,0,1-.14-3.45A12,12,0,0,1,20.59,27h.21l4.89,0Zm-2.05,12.8c.26,0,.54-.08.8-.11l.61-.08,2.42-.36L28.72,39l.7-.1.42-.07,1-.15a.47.47,0,0,0,.19-.08h0a4,4,0,0,0,.48,0L34,38.25a.48.48,0,0,0,.19-.09h.24l0,0,.29.31a26.53,26.53,0,0,0,5.45,4.43,48.52,48.52,0,0,0,6.17,3.28l-3.28,1.09c-1.51.5-3.06,1-4.6,1.51a11,11,0,0,1-1.41-.58l-.44-.2a53.58,53.58,0,0,1-8.1-4.41A30.53,30.53,0,0,1,23.81,39.76Zm18.46,8.78,1.84-.61,3.06-1,.38-.11.09,0a112,112,0,0,0,24,6.62,1,1,0,0,0-.14.17.5.5,0,0,0-.2.18,1.76,1.76,0,0,0-.74.6.55.55,0,0,0-.21.19,1.55,1.55,0,0,0-.73.6.46.46,0,0,0-.22.19,1.55,1.55,0,0,0-.73.6.46.46,0,0,0-.21.18.84.84,0,0,0-.22.1l-.46.37-.06,0-.21,0c-.25,0-.51-.06-.77-.11l-2.05-.38c-1.78-.32-3.63-.66-5.43-1-3.37-.71-6.65-1.52-9.75-2.42-3.62-1.05-6.82-2.13-9.78-3.3ZM69,56.75a.54.54,0,0,0,.23-.19,1.6,1.6,0,0,0,.73-.6.48.48,0,0,0,.21-.19,1.57,1.57,0,0,0,.74-.6A.52.52,0,0,0,71.1,55a1.5,1.5,0,0,0,.71-.58.57.57,0,0,0,.19-.13l0,0a1.17,1.17,0,0,0,.6-.48l.23-.1.37.05,1.24.17.69.11.86.14,3.28.44,1.16.13.8.08,1.39.16.72.09.33,0,1.46.12c1,.07,2.11.16,3.16.25,1.26.11,2.54.18,3.78.24l1.74.1c.78.05,1.58.06,2.34.08s1.28,0,1.91.06c1.45.07,3,.11,4.66.11,0,1.12,0,2.26,0,3.39h-1.61c-1.18,0-2.39,0-3.58-.06l-2.45-.07-2-.06c-1.07,0-2.13-.1-3.22-.16l-2.43-.15-1.62-.14-1.35-.12-1.16-.08-1.51-.12-1.64-.17-.78-.09-.84-.09L77.65,58l-1-.1c-.77-.08-1.56-.16-2.33-.26l-1.85-.26-1-.15-2-.28-.6-.08Zm33.78,23.43L99.63,80a20,20,0,0,1-.2-3.51c.82,0,2.48.07,3.29.16A31.21,31.21,0,0,1,102.74,80.18Zm-.35-4.65h-.15c-.31,0-.62,0-.92,0a9,9,0,0,1-2-.15s0,0,0-.08a15.11,15.11,0,0,0-.09-1.79c0-.55-.09-1.11-.08-1.68a5,5,0,0,1,.85.07,4.63,4.63,0,0,0,.92.08c.48,0,.95,0,1.45,0h.41V72c0,1.17,0,2.35,0,3.46v0A1.52,1.52,0,0,1,102.39,75.53ZM97.65,80.8l.74.13.15,0,.06,2.09,0,.34a11.77,11.77,0,0,1-2-.35l-.09-2.42Zm-1.52-9.45.12,0,.42.07,1.2.2.18,0s0,.06,0,.08c.06,1.23.12,2.37.18,3.48l-.52-.06a7.73,7.73,0,0,1-1.55-.3l-.27-3.57Zm2.19,5a.49.49,0,0,1,0,.15c0,.2,0,.39,0,.6s0,.33,0,.49l.06,1.09c0,.31,0,.63,0,1a1.85,1.85,0,0,1,0,.24H98.4c-.27-.06-.54-.1-.81-.14a7.18,7.18,0,0,1-1.12-.23l0-.39-.12-1.45c0-.53,0-1-.06-1.62Zm4.44-5.45a10.9,10.9,0,0,1-1.4,0l-.38,0c-.48,0-1-.07-1.46-.12l-.48,0v0c-.12-1.4-.25-3-.4-4.86v0a1.37,1.37,0,0,1,.28,0l.14,0,.25,0a2.28,2.28,0,0,0,.39.06l1.84.1,1.14.06h.09Zm-6-.51c-.27-.05-.54-.11-.82-.15l-.17-.06-.57-4.86,1.91.29.36.06a4.51,4.51,0,0,1,.07.53c0,.58.1,1.16.16,1.72a23.43,23.43,0,0,1,.18,2.65A7.45,7.45,0,0,1,96.81,70.4Zm.08,13.8a15.63,15.63,0,0,0,1.71.27h0a23.88,23.88,0,0,1,.06,2.83A5.71,5.71,0,0,1,96.79,87l-.1-2.86Zm2.72-3.08a25,25,0,0,1,3.12.16,16,16,0,0,1,0,2.4,13.68,13.68,0,0,1-2.2-.09l-.8-.07a3.22,3.22,0,0,1-.08-.71v0c0-.11,0-.22,0-.33A11.91,11.91,0,0,1,99.61,81.12ZM44.9,7.1a1.24,1.24,0,0,1,.9,0,.93.93,0,0,0,.34.08.76.76,0,0,0,.48.17.72.72,0,0,0,.49.16h0a6.12,6.12,0,0,0,1.68.58.73.73,0,0,0,.53.2l0,0-.78.23-2.49.75c-2.71.84-5.41,1.81-8,2.9a61.21,61.21,0,0,0-6.91,3.33l-.51.28-.15.08h-.19l-2.25-.31-.63-.1-.92-.14-.84-.06h-.2a.77.77,0,0,0-.47-.14H25c-.54-.06-1.06-.13-1.63-.22,1.58-.81,3.24-1.58,5-2.35,3-1.28,6.25-2.45,9.8-3.57C40.51,8.3,42.88,7.65,44.9,7.1ZM102.72,65a5.35,5.35,0,0,1-.69,0l-.27,0-.55-.05-.63,0c-.69,0-1.38-.11-2-.19l-.66-.08c-1-.11-1.94-.27-3.23-.52-1.08-.21-2-.44-2.93-.7,1.15,0,2.34,0,3.5,0,1.67.07,3.36.08,5,.08l2.52,0A4.79,4.79,0,0,1,102.72,65Zm-8,4.87a2.79,2.79,0,0,1-.86-.29l0,0c-.2-1.57-.5-3.12-.82-4.7a4.08,4.08,0,0,1,1.13.25,12.79,12.79,0,0,1,.21,1.51c0,.34.08.68.13,1s.09.58.12.86.07.83.1,1.23Zm.47,5.89a2.11,2.11,0,0,1,.06.63c0,.15,0,.3,0,.45,0,.41.07.84.1,1.25v.15c0,.28,0,.58,0,.94h0l-.5-.18h0a6.26,6.26,0,0,1-.14-1.23c0-.19,0-.38,0-.58a5.06,5.06,0,0,0-.06-.53,9.63,9.63,0,0,1-.08-1.07A2.9,2.9,0,0,1,95.16,75.8Zm0,4.45.28.09a.31.31,0,0,1,0,.08c0,.69.09,1.44.14,2.37a2.41,2.41,0,0,1-.47-.18,2.67,2.67,0,0,1-.07-.82v-.46a4.93,4.93,0,0,0-.07-.57c0-.2-.06-.4-.07-.59Zm1.78,7.89a1.24,1.24,0,0,0,.4.08c.17,0,.35,0,.55.08l.35.06.25,0a.85.85,0,0,1,.36.07h0c0,.72,0,1.35,0,1.92a.49.49,0,0,1,0,.12v.06a14.16,14.16,0,0,1-2-.32v0c0-.63-.06-1.29-.1-2.07Zm1.77,6.4h.07a.92.92,0,0,1,.24.06c0,.37,0,.79,0,1.24l-1.59-.19a1.93,1.93,0,0,1-.34-.09c0-.43,0-.86,0-1.27Zm4.11-89h-1.48c-.77,0-1.57,0-2.35,0-1.68,0-3.33.1-4.57.14-1,0-2.06.1-3.08.16-1.53.1-2.94.2-4.32.31s-2.42.21-3.54.32L81,6.78l-1,.11a3.07,3.07,0,0,1-.44-.38l-.37-.33-.07-.07a1.05,1.05,0,0,0-.34-.23.44.44,0,0,0-.15-.12.43.43,0,0,0-.22-.2,4.41,4.41,0,0,0-1.2-1.08.36.36,0,0,0-.16-.14.46.46,0,0,0-.17-.17l.7-.1L78.82,4l1.06-.09,1.63-.18.72-.08h.15l.92-.07,1.9-.13,2.16-.17,1.22-.1.37,0h0l1.66-.06c1.21,0,2.47-.08,3.7-.16,1.77-.11,3.57-.12,5.32-.13l2.62,0c.16,0,.32,0,.49,0a4.9,4.9,0,0,1,0,.86c0,.18,0,.36,0,.55C102.78,4.59,102.78,5.06,102.77,5.53ZM33.21,2.65a2.43,2.43,0,0,0,.41.1h0a.73.73,0,0,0,.51.2.78.78,0,0,0,.18.11l1.54.55-.16,0-2.5.59-3.52.85c-.53.13-1.06.28-1.58.42l-1.41.38a.54.54,0,0,1,.05-.11c.3-.68.62-1.36.93-2L28,3.11l3.8-.95.32.11ZM93.8,79.78c0,.36,0,.72.09,1.07s.09.87.09,1.29a1.54,1.54,0,0,1-.4-.36l0-.07a.6.6,0,0,1-.07-.2c-.08-.65-.15-1.3-.22-2v0l.07,0,.41.21ZM94.57,96l.05,0,0,.68A3.57,3.57,0,0,1,94.57,96Zm.19,4.66h0v0Zm.9-6.66.25.06A3.64,3.64,0,0,1,96,95.35a1.3,1.3,0,0,1-.27-.1A6.87,6.87,0,0,1,95.66,94Zm.15,4.73.1,0,.08,0A5.12,5.12,0,0,1,96,100l-.19-.09A8.16,8.16,0,0,1,95.81,98.71Zm.37,8.52-.22-.09a.19.19,0,0,0,0-.08l.22.08S96.18,107.2,96.18,107.23Zm0-1.25h0a.77.77,0,0,1-.17-.07v-.72l.16.08A2,2,0,0,1,96.15,106Zm-.2,2.3a.67.67,0,0,1,.21.09s0,.11,0,.16a2.89,2.89,0,0,1,0,.51L96,109h0A3,3,0,0,1,96,108.28Zm.22,2.4-.2-.1a3.92,3.92,0,0,1,0-.49l.2,0A2,2,0,0,1,96.17,110.68ZM96,111.74a.77.77,0,0,1,.17.07v.28A.71.71,0,0,0,96,112l0,0a1.94,1.94,0,0,1,0-.24Zm2.89-20.07a2.14,2.14,0,0,1,0,.51v.43a7,7,0,0,1,0,.8v.08a8.56,8.56,0,0,1-1.89-.3h0a2.46,2.46,0,0,1,0-.62v-.49c0-.24,0-.47,0-.71C97.48,91.43,98.35,91.56,98.87,91.67ZM97.1,99.08l1.92.34v0c0,.38,0,.76,0,1.17v.12c-.54-.09-1.11-.19-1.85-.34l0,0C97.09,99.87,97.09,99.47,97.1,99.08ZM99,103a11,11,0,0,1-1.81-.39l0-1.09c.53.08,1.07.18,1.58.27l.26,0A5,5,0,0,1,99,103Zm.11,3.66a9.26,9.26,0,0,1-1.91-.35,5,5,0,0,1,0-.67l1.57.37.33.08A2.13,2.13,0,0,1,99.13,106.64Zm-1.92-2.94.19,0,.28.08.35.07.43.08.17,0a1.87,1.87,0,0,1,.41.09l.07.86c-.62-.13-1.24-.28-1.82-.42l-.08,0A7.11,7.11,0,0,1,97.21,103.7Zm.14,6.71a1.5,1.5,0,0,0,.39.08,4.64,4.64,0,0,1,.48.07l.33.06.29,0a1.23,1.23,0,0,1,.29,0,2.41,2.41,0,0,1,0,.66,5.68,5.68,0,0,1-1.27-.2l-.61-.14a1.11,1.11,0,0,1,0-.13v-.17c0-.11,0-.22,0-.32Zm-.13-3,1.75.34.18,0v.09a8.15,8.15,0,0,1-1.5-.23l-.42-.09A.76.76,0,0,1,97.22,107.39Zm1.92,2.21h0a7.26,7.26,0,0,1-1.57-.23l-.34-.08c0-.25,0-.45,0-.64l1.92.31A2.74,2.74,0,0,1,99.14,109.6Zm3.62-24.82a24.11,24.11,0,0,1,0,2.85h0L101,87.54l-1-.06h-.2c0-1,0-1.94,0-2.86ZM99.9,88.54a2.43,2.43,0,0,1,.7,0,3.29,3.29,0,0,0,.71.07c.39,0,.78,0,1.19,0h.26c0,.12,0,.23,0,.34,0,.65,0,1.23,0,1.76a15.21,15.21,0,0,1-2.84-.15c0-.2,0-.4,0-.6s0-.29,0-.43c0-.3,0-.6,0-.92Zm.69,6.18h.16l.65,0,.92.06h.44v.08c0,.33,0,.62,0,.92a1.09,1.09,0,0,1,0,.18,22.19,22.19,0,0,1-2.71-.07h0V94.7h0Zm2.14-1-1,0-.39,0h-.27l-.51,0-.54,0h0a11.41,11.41,0,0,1,0-1.87l2.77.11A10,10,0,0,1,102.73,93.77Zm-2.64,3.28,1.23,0,1.44,0v.36a6.71,6.71,0,0,1,0,1.1h-.16l-2.18-.07a1.07,1.07,0,0,1-.29-.06A6.17,6.17,0,0,1,100.09,97.05Zm0,2.48c.5,0,1,.06,1.49.06l1.16,0a10.59,10.59,0,0,1,0,1.38h-.09l-2.51-.14h0A6.82,6.82,0,0,1,100.1,99.53ZM102.77,111a4.92,4.92,0,0,1,0,.66,13.1,13.1,0,0,1-2.41-.14h-.14a3.52,3.52,0,0,1,0-.65h0C100.89,110.84,102.17,110.92,102.77,111Zm-2.58-4.33a1.27,1.27,0,0,0,0-.2,1,1,0,0,1,0-.24l2.57.17c0,.15,0,.32,0,.5v0a12.89,12.89,0,0,1-2.57-.15ZM101,108l-.72,0h-.06a.86.86,0,0,1,0-.16,10,10,0,0,0,1.62.11c.33,0,.64,0,1,0a.45.45,0,0,1,0,.16,1.54,1.54,0,0,1-.48,0h-.21a4.56,4.56,0,0,1-.62,0Zm.49,1.14h.64c.21,0,.42,0,.64,0a3.53,3.53,0,0,1,0,.65l-2.55-.15v-.64a3.4,3.4,0,0,1,.77.05C101.14,109.14,101.3,109.17,101.48,109.18ZM100.13,102c.72,0,2,.09,2.61.15a5.34,5.34,0,0,1,0,1.13,10.36,10.36,0,0,1-2.58-.14A3.52,3.52,0,0,1,100.13,102Zm.57,2.29a3.7,3.7,0,0,0,.76.07,9.43,9.43,0,0,1,1.06,0h.23a4.71,4.71,0,0,1,0,.92h-.09a2.36,2.36,0,0,1-.6,0,5.67,5.67,0,0,0-.91-.07,4.08,4.08,0,0,1-.93-.08c0-.11,0-.21,0-.31a2.12,2.12,0,0,1-.05-.6A4,4,0,0,1,100.7,104.26ZM73.37,2.08a.67.67,0,0,0,.22.19,4.65,4.65,0,0,0,.93.9l.18.15.07,0-.17,0-.73.09-3.05.42-2.65.39c-.74.11-1.47.22-2.18.35-1.42.25-2.71.49-3.95.74l-.56.1c-1.16.23-2.36.46-3.54.73-1.35.3-2.72.63-4,1l-1.15.28c-.6.14-1.05.26-1.47.39a1.18,1.18,0,0,1-.83,0l-.13-.06a2,2,0,0,0-.65-.19.75.75,0,0,0-.48-.15l0,0a6.66,6.66,0,0,0-1.69-.58A.76.76,0,0,0,47,6.62l0,0c2.69-.72,5.45-1.27,7.91-1.77C60.67,3.67,66.68,2.75,73.22,2Zm-3.62-.69-2.52.32-.72.1c-1,.13-2,.27-3,.42-1.48.24-3,.5-4.27.73l-1.11.2c-1.44.26-2.93.52-4.39.82-1.62.34-3.27.72-4.86,1.08l-1.67.38-1.42.34-.55.13-.42-.06a.81.81,0,0,0-.51-.18h0a6,6,0,0,0-1.69-.58.7.7,0,0,0-.49-.19.78.78,0,0,0-.48-.17h0a6.73,6.73,0,0,0-1.68-.58.62.62,0,0,0-.47-.19c.86-.18,1.75-.36,2.63-.52l.28,0c1.27-.25,2.59-.49,3.89-.71s2.35-.38,3.5-.56L50.66,2l1-.14c.71-.1,1.45-.2,2.17-.36a8.77,8.77,0,0,1,2-.13l6.72,0,5.74,0h1.47ZM48.48,1.23l-1.87.31h-.06c-1.26.21-2.55.43-3.82.67-1,.19-2.07.4-3.08.6l-1.25.25-.58.11-.2,0-.42-.06A.66.66,0,0,0,36.72,3a.72.72,0,0,0-.25-.14h0l-.59-.22-1-.37a1.81,1.81,0,0,0-.31,0A.7.7,0,0,0,34,2a.71.71,0,0,0-.17-.11l-.42-.16.41-.1.38-.09c.53-.12,1.07-.25,1.61-.36a4.22,4.22,0,0,1,.77-.06h0c2.18,0,4.4,0,6.54,0H44l4.63,0ZM31.3,1.05h.51a2.77,2.77,0,0,1-.42,0h-.06Zm-2.78.82c.11-.25.22-.5.34-.74l.07,0,.72.25.31.11-1.28.32Zm-2.4,5.3L26.67,7c.51-.15,1-.31,1.54-.44,1.83-.46,3.8-1,6-1.49,1-.25,2-.46,3-.68a1.44,1.44,0,0,1,1,0,.84.84,0,0,0,.36.08.67.67,0,0,0,.47.17.73.73,0,0,0,.49.16l0,0a6.29,6.29,0,0,0,1.67.58.7.7,0,0,0,.51.19.69.69,0,0,0,.48.16l0,0a7.23,7.23,0,0,0,1.43.53c-4,1.07-7.32,2.11-10.45,3.24a91.69,91.69,0,0,0-10.12,4.29l2.85-6.3Zm-3.88,8.57h.06a4,4,0,0,1,.49,0c.25,0,.5.07.74.12l.89.13a4.72,4.72,0,0,0,.64,0h.16a.59.59,0,0,0,.3.12c1,.12,2.13.27,3.32.47l.38,0h.09a37.45,37.45,0,0,0-3.6,2.52,22.49,22.49,0,0,0-4.52,4.62,15.87,15.87,0,0,0-.85,1.34L20,25.7c-.07.1-.12.2-.18.3a13.62,13.62,0,0,1-2.21-.09C19.16,22.51,20.71,19.09,22.24,15.74ZM17,27.39a.77.77,0,0,0,.07-.16,1.52,1.52,0,0,1,.19-.36c.42,0,.84,0,1.25,0s.67,0,1,0a.39.39,0,0,0,0,.09,10.89,10.89,0,0,0,.28,8.69,15.32,15.32,0,0,0,2.17,3.46l-.15,0c-.44.05-.89.1-1.33.17a.41.41,0,0,0-.24.11,6.38,6.38,0,0,0-1.25.13l-.14,0c-.42.07-.86.13-1.28.18L16.12,40c-1.05.18-2.1.33-3.08.46a.77.77,0,0,0-.29.12,8.93,8.93,0,0,0-1.47.15l-.41.07c.11-.23.21-.46.32-.7L12,38.3ZM10.22,42.23l.33.37c.28.32.57.66.88,1a34.73,34.73,0,0,0,6.11,4.94,49.83,49.83,0,0,0,4.93,2.88l2.19,1.08,1,.49.18.09a.59.59,0,0,0-.37.15.67.67,0,0,0-.47.16.75.75,0,0,0-.48.15.67.67,0,0,0-.47.16.71.71,0,0,0-.48.16.68.68,0,0,0-.47.16.67.67,0,0,0-.47.16.71.71,0,0,0-.47.15.69.69,0,0,0-.48.16.69.69,0,0,0-.48.16.67.67,0,0,0-.47.16.71.71,0,0,0-.47.15.71.71,0,0,0-.48.16.67.67,0,0,0-.47.16.71.71,0,0,0-.48.16.72.72,0,0,0-.47.15.67.67,0,0,0-.47.16.71.71,0,0,0-.48.16.67.67,0,0,0-.49.18l-.38,0a62.2,62.2,0,0,1-10.06-5.6l.18-.42,3-6.65ZM5.6,52.41c.13-.29.26-.58.4-.87.35.2.68.42,1,.64s.72.48,1.09.69l.95.57,1.57.91c.89.5,1.77,1,2.52,1.34.58.3,1.16.58,1.77.88l.09,0L8.54,58.78,7.83,59c-1.5-.8-2.86-1.58-4.14-2.37.14-.34.29-.68.44-1l.3-.65c.26-.6.54-1.23.84-1.85C5.39,52.9,5.5,52.65,5.6,52.41Zm.83,7.07L1.68,61.06c.5-1.14,1-2.28,1.56-3.41Zm-2.69,2H3.47c1.51-.52,3.47-1.16,4.09-1.32l.36.18,2.54,1.27-.44,0a15.34,15.34,0,0,0-1.78-.08H7.07C6,61.44,4.83,61.44,3.74,61.43Zm9.42.14H13c-1.34-.62-2.68-1.28-4-2l.67-.22,6.3-2.1.25-.05h.08l.9.4,2.31,1c1.16.48,2.31.92,3.38,1.33s2.27.84,3.33,1.22l1,.34.62.21c-.53,0-1.06,0-1.58,0-3.05-.1-6.15-.11-9.14-.12l-3.25,0h-.65Zm17.5,0c-4.18-1.35-7.37-2.5-10.34-3.73-.76-.31-1.53-.65-2.28-1l-.36-.16.08,0a.72.72,0,0,0,.47-.15.76.76,0,0,0,.47-.16.69.69,0,0,0,.48-.16.68.68,0,0,0,.47-.16.73.73,0,0,0,.48-.15.8.8,0,0,0,.47-.16.8.8,0,0,0,.47-.16.73.73,0,0,0,.48-.15.78.78,0,0,0,.47-.16.75.75,0,0,0,.48-.16A.72.72,0,0,0,23,54.9a.72.72,0,0,0,.47-.16.75.75,0,0,0,.48-.15.78.78,0,0,0,.47-.16.75.75,0,0,0,.48-.16.74.74,0,0,0,.47-.16.67.67,0,0,0,.47-.16.73.73,0,0,0,.48-.15.78.78,0,0,0,.48-.17H27l1.09.44c.82.34,1.67.69,2.51,1,2.51,1,5.19,1.93,8.21,2.85s5.78,1.68,8.6,2.36c1.87.46,4.09,1,6.31,1.41l.44.08,1.35.26c-.48,0-1,0-1.43,0-2.68-.1-5.39-.1-8-.11-1.53,0-3.13,0-4.69,0l-1.9,0-2,0c-1.73,0-3.57,0-5.45,0A4.44,4.44,0,0,1,30.66,61.54ZM41,57.46a113.21,113.21,0,0,1-12.4-4.38l.11-.07a.72.72,0,0,0,.47-.16.71.71,0,0,0,.48-.16.67.67,0,0,0,.47-.16.75.75,0,0,0,.48-.15.8.8,0,0,0,.47-.16.67.67,0,0,0,.47-.16A.71.71,0,0,0,32,51.9a.67.67,0,0,0,.47-.16.71.71,0,0,0,.47-.15.76.76,0,0,0,.48-.16.67.67,0,0,0,.47-.16,1.49,1.49,0,0,0,.89-.32.68.68,0,0,0,.55-.17,3.87,3.87,0,0,0,1.37-.44l0,0a.72.72,0,0,0,.49-.15,2.42,2.42,0,0,0,.68-.17l.33-.1a133.08,133.08,0,0,0,28.51,7.67,1.63,1.63,0,0,0-.71.59.57.57,0,0,0-.22.19,1.7,1.7,0,0,0-.73.59.55.55,0,0,0-.21.19,1.55,1.55,0,0,0-.73.6.51.51,0,0,0-.22.19,1.48,1.48,0,0,0-.73.6.57.57,0,0,0-.22.19,1.44,1.44,0,0,0-.73.6.46.46,0,0,0-.22.19,1.26,1.26,0,0,0-.26.13l-.46.37-.05,0-1.68-.31c-1.37-.24-2.79-.5-4.18-.78C53.13,60.5,51,60,49.3,59.64,46.63,59,43.82,58.31,41,57.46Zm50.8,7.11a18.71,18.71,0,0,1,.79,3.75,3.12,3.12,0,0,0,.09.44c0,.15.06.3.08.43a3.09,3.09,0,0,1-1.21-.84,1.65,1.65,0,0,1-.27-.5c-.07-.18-.11-.36-.17-.55S91,67,91,66.88c-.26-.81-.51-1.62-.78-2.46l-.1-.34Zm0,5.33.28.15.37.19.13.06.33.17,0,.36c.12,1,.24,2.11.36,3.16a1.89,1.89,0,0,1-1.11-1.62c-.09-.65-.23-1.3-.37-1.92,0-.2-.08-.4-.13-.6Zm1,5,.24.13.36.17h0c.17,1.09.24,2.2.31,3.28l-.19-.13-.29-.26,0-.06a2.62,2.62,0,0,1-.21-.91,2.51,2.51,0,0,0,0-.27c0-.27-.08-.53-.13-.79s-.07-.4-.1-.6l-.09-.66ZM94,83.36l.07,0a3.73,3.73,0,0,1,.08,1.07c0,.15,0,.32,0,.48a4.2,4.2,0,0,0,.06.62c0,.19,0,.38,0,.57l-.12-.08a.52.52,0,0,1-.22-.4c-.09-.9-.18-1.71-.25-2.48C93.77,83.23,93.87,83.3,94,83.36Zm.25,4a14.5,14.5,0,0,1,.15,1.89l-.15-.2a7.73,7.73,0,0,1-.17-1.78ZM96,96.46c0,.41,0,.81,0,1.2l-.21-.09c0-.25,0-.49-.06-.75l0-.43Zm3,16,.17,0q0,.41,0,.78a7.38,7.38,0,0,1-1.92-.6,5,5,0,0,1,0-.55C97.9,112.2,98.46,112.3,99,112.41Zm3.08,1.28H102c-.52,0-1-.1-1.57-.17l-.21,0a8.6,8.6,0,0,1,0-.88v0a3.31,3.31,0,0,1,.54.06,3.35,3.35,0,0,0,.71.07c.35,0,.71,0,1.06,0h.19a2.57,2.57,0,0,1,0,1A3.7,3.7,0,0,1,102.07,113.69Z"/></g></g></svg>