<svg xmlns="http://www.w3.org/2000/svg" viewBox="0 0 64.07 64.07"><title>Recurso 45MANDALA</title><g id="Capa_2" data-name="Capa 2"><g id="Capa_1-2" data-name="Capa 1"><path d="M24.15.07l7.64,4.08a.53.53,0,0,0,.52,0L40,.07A.55.55,0,0,1,40.6,1L32.44,9.11a.56.56,0,0,1-.78,0L23.5,1A.55.55,0,0,1,24.15.07Z"/><path d="M3.86,15l8.29-2.52a.58.58,0,0,0,.37-.36L15,3.83A.55.55,0,0,1,16.11,4V15.54a.55.55,0,0,1-.55.55H4A.55.55,0,0,1,3.86,15Z"/><path d="M.07,39.92l4.08-7.64a.53.53,0,0,0,0-.52L.07,24.12A.55.55,0,0,1,1,23.47l8.16,8.16a.56.56,0,0,1,0,.78L1,40.57A.55.55,0,0,1,.07,39.92Z"/><path d="M15,60.22l-2.52-8.29a.54.54,0,0,0-.36-.37L3.83,49A.55.55,0,0,1,4,48H15.54a.55.55,0,0,1,.55.55V60.06A.55.55,0,0,1,15,60.22Z"/><path d="M39.92,64l-7.64-4.08a.53.53,0,0,0-.52,0L24.12,64a.55.55,0,0,1-.65-.87L31.63,55a.54.54,0,0,1,.78,0l8.16,8.16A.55.55,0,0,1,39.92,64Z"/><path d="M60.22,49.06l-8.29,2.52a.53.53,0,0,0-.37.37L49,60.24A.55.55,0,0,1,48,60.08V48.54a.55.55,0,0,1,.55-.55H60.06A.55.55,0,0,1,60.22,49.06Z"/><path d="M64,24.15l-4.08,7.64a.53.53,0,0,0,0,.52L64,40a.55.55,0,0,1-.87.64L55,32.44a.54.54,0,0,1,0-.78l8.16-8.16A.55.55,0,0,1,64,24.15Z"/><path d="M49.06,3.86l2.52,8.29a.57.57,0,0,0,.37.37L60.24,15a.55.55,0,0,1-.16,1.08H48.54a.55.55,0,0,1-.55-.55V4A.55.55,0,0,1,49.06,3.86Z"/></g></g></svg>