<svg xmlns="http://www.w3.org/2000/svg" viewBox="0 0 105.98 152.89"><title>Recurso 38ART</title><g id="Capa_2" data-name="Capa 2"><g id="Capa_1-2" data-name="Capa 1"><path d="M75.12,116.68h1.31a2,2,0,0,0,0-.64c0-.22,0-.44,0-.64l.07-.06h2.54c.13.14,0,.3.07.45s0,.27,0,.4a1.15,1.15,0,0,0,0,.48h1.23c.12.16.06.32.07.47s0,.27,0,.4a1,1,0,0,0,.05.48h1.22s.07,0,.07.07v2.55l0,0h3.88s0,0,.06,0a.74.74,0,0,1,0,.39c0,.16,0,.31,0,.47V122l.06,0h9.25s0,0,.07,0v1.21l.08.07s0,0,.06,0c.38,0,.76,0,1.14,0,.12.09.07.21.07.31,0,.33,0,.66,0,1,0,0,.06.06.08.06h1.2s0,0,0,0a.13.13,0,0,1,0,.06v2.48s0,0,0,.05a.1.1,0,0,0,.05,0h3.89c.1.14,0,.3,0,.45a2.67,2.67,0,0,1,0,.4,1,1,0,0,1,0,.48H98s-.07.05-.07.07a.13.13,0,0,0,0,.06v2.55H96.66s0,0-.08.06v1.16a.17.17,0,0,0,0,.07l0,0h1.23s0,0,0-.07v-1.26h8a12.76,12.76,0,0,1,0,2.64.07.07,0,0,1,0,0h-2.53l-.06.06a.13.13,0,0,0,0,.06v2.48s0,0-.05.08h-2.57c-.12.16,0,.32-.06.47s0,.27,0,.4v.48H94s-.07.05-.07.07v1.2l-.05.05-.06,0H91.31l-.06,0a1,1,0,0,0,0,.39c0,.15,0,.31,0,.47v.38s0,.05-.06.06H85.93l-.07.06v1.21l-.07.07H84.55a2,2,0,0,1,0-.64v-.64s-.06-.06-.08-.06H81.89c-.12.14,0,.3-.06.45s0,.27,0,.4a1.32,1.32,0,0,1,0,.48h-16c-.12.16,0,.32-.06.47s0,.27,0,.41a.78.78,0,0,1,0,.47h-3.9l-.07.07v1.21s0,0-.05.05H56.44l-.06,0a1,1,0,0,0,0,.39c0,.16,0,.31,0,.47v.39l-.06,0H51.06l-.07.05v1.21l-.07.07H44.35c-.11.08-.07.2-.07.3,0,.33,0,.66,0,1l-.08.07H39c-.13.14,0,.3-.06.45a2.67,2.67,0,0,0,0,.4v.48H32.28c-.13.16-.06.32-.07.47s0,.27,0,.4a1,1,0,0,1-.05.48H26.91s-.06,0-.06.07a.57.57,0,0,0,0,.13v1.07a.12.12,0,0,1-.05.05l-.06,0H21.64l-.13,0a1,1,0,0,1,0-.39c0-.15,0-.31,0-.47v-.39c-.15-.12-.31-.05-.46-.06s-.27,0-.4,0h-.48v-1.27s-.05-.06-.07-.07,0,0-.06,0H18.87c-.12-.08-.07-.2-.07-.31,0-.33,0-.66,0-1-.05,0-.06-.06-.08-.06h-1.2l-.05-.06a.13.13,0,0,1,0-.06c0-1.27,0-2.55,0-3.82,0,0,0,0,0-.08H16.17a38.52,38.52,0,0,1,0-4h1.23s.06,0,.06-.07a.66.66,0,0,0,0-.14v-2.44a2.28,2.28,0,0,1,.64,0h.64a.71.71,0,0,0,.05-.42c0-.16,0-.31,0-.47v-.39c.14-.12.3-.05.45-.06s.27,0,.41,0h.47v-1.27l.07-.07s.05,0,.07,0h1.14c.11-.09.07-.21.07-.31v-1c.44,0,.86,0,1.28,0,.12-.14,0-.3.06-.45s0-.27,0-.4v-.48h1.27c.13-.16.06-.32.07-.47s0-.27,0-.4v-.48h-4s-.06-.05-.06-.07a.57.57,0,0,1,0-.13v-1.07l-.05,0-.06,0H13.48a.9.9,0,0,0-.05.42v.86c-.15.12-.31,0-.46.06h-.4a1,1,0,0,1-.47-.05v-1.22l-.08-.07H9.48c-.11-.08-.07-.2-.07-.31v-2.36c-.44,0-.86,0-1.28,0a.12.12,0,0,1-.05-.05s0,0,0-.06v-2.41a.68.68,0,0,1,0-.15h5.25c.13-.16.06-.32.07-.47s0-.27,0-.4a1,1,0,0,1,.05-.47h1.23s.06-.06.06-.08a.57.57,0,0,0,0-.13v-1.1a2,2,0,0,1,.65,0h.64a.68.68,0,0,0,.05-.41c0-.16,0-.32,0-.47v-.39c.15-.13.31,0,.46-.06a2.67,2.67,0,0,1,.4,0h.47v-1.29l-.05,0H14.81a2,2,0,0,0,0,.64v.64a.26.26,0,0,1-.08.06H12.16s-.05,0-.06.06a.13.13,0,0,0,0,.06v2.48s0,0,0,.07H8.12a18.17,18.17,0,0,1,0-2.67H9.34s.06,0,.07-.07v-1.24a2.81,2.81,0,0,1,.65,0h.64a.9.9,0,0,0,.05-.42v-.86c.15-.12.31,0,.46-.06s.27,0,.4,0a1,1,0,0,0,.48,0v-1.22s.05-.06.07-.07,0,0,.06,0h2.52a2.29,2.29,0,0,0,0-.64c0-.22,0-.44,0-.64l.08-.06s.05,0,.07,0h2.47c.13-.14.05-.31.06-.45s0-.27,0-.41a1,1,0,0,1,0-.47h3.91c.12-.17.06-.33.07-.48s0-.27,0-.4a1,1,0,0,1,.05-.47H24.1s.06-.06.06-.08a.57.57,0,0,0,0-.13V110a2.81,2.81,0,0,1,.65,0h.64s.05-.06.05-.08,0,0,0-.07v-5.09s0,0,0-.07.3,0,.45,0,.27,0,.4,0a1,1,0,0,0,.48,0v-3.9s.05-.06.07-.07,0,0,.07,0h1.17a2,2,0,0,0,0-.65c0-.22,0-.44,0-.68.45,0,.87,0,1.29,0,.12-.14,0-.3.05-.45s0-.27,0-.4a1,1,0,0,1,0-.48h2.57c.12-.16,0-.32.07-.47s0-.27,0-.4a1,1,0,0,1,0-.48h1.22s.06,0,.07-.07V95.25a2.81,2.81,0,0,1,.65,0h.64a.9.9,0,0,0,0-.42c0-.15,0-.31,0-.47V94l.06-.06h2.54s0,0,.08-.06V92.61s0-.07.07-.07a.57.57,0,0,1,.13,0h2.48v1.14a.57.57,0,0,1,0,.13s0,0-.07.07H38.91v.48c0,.13,0,.27,0,.4s.06.31-.06.47H37.62a1.16,1.16,0,0,0,0,.48c0,.13,0,.27,0,.4s.07.31-.06.44c-.41,0-.83,0-1.28,0,0,.25,0,.47,0,.69a2.28,2.28,0,0,1,0,.64H35s0,0-.07.06v1.22c-.17.1-.32,0-.48,0H34c-.15,0-.31-.06-.47.06v1.23a1,1,0,0,1-.48,0h-.4c-.15,0-.31-.07-.45.06v1.19l-.06.09c-.2,0-.42,0-.64,0a2.29,2.29,0,0,0-.64,0v1.1a.53.53,0,0,1,0,.13s0,0-.06.08h-1c-.1,0-.22,0-.3.07v2.48s0,0,0,.06l0,.06h2.58a1,1,0,0,0,.05-.47c0-.13,0-.27,0-.4s-.06-.31.07-.47h1.27v-.48c0-.13,0-.27,0-.4s-.07-.31.06-.45h2.54l.08-.06v-.64a2.3,2.3,0,0,1,0-.64H37.5s0,0,.07-.06v-1.22c.17-.1.33,0,.48,0h.4c.15,0,.31.06.47-.06V99.24h.48c.13,0,.27,0,.4,0s.31.07.45-.06V98.05a.13.13,0,0,1,0-.06s0,0,.05-.09H41a2.38,2.38,0,0,0,.65,0v-1.1a.56.56,0,0,1,0-.13s0,0,.06-.08h1c.11,0,.23,0,.31-.07V95.35s0,0,0-.06a.22.22,0,0,1,.07-.07h1.22a1,1,0,0,0,.05-.48c0-.13,0-.27,0-.4s-.06-.31.06-.46h.86a.91.91,0,0,0,.42,0v-.44c0-.13,0-.27,0-.4s-.07-.31.06-.45h1.2l.08-.06v-1c0-.1,0-.22.07-.3H48.3V95a.57.57,0,0,1,0,.13s0,0-.07.07H45.67a1,1,0,0,0-.05.48c0,.13,0,.27,0,.4s.05.31-.07.47H44.32a1.15,1.15,0,0,0,0,.48c0,.13,0,.27,0,.4s.06.31-.06.45c-.42,0-.84,0-1.28,0v.68a2.25,2.25,0,0,1,0,.64H41.67s0,0-.08.06v1.22c-.16.1-.32,0-.47,0h-.4c-.15,0-.31-.06-.47.06v1.28h-.48c-.14,0-.27,0-.4,0s-.31-.07-.46.06c0,.4,0,.8,0,1.2,0,0,0,0,0,.08h.64a2.26,2.26,0,0,1,.64,0v1.11a.57.57,0,0,0,0,.13s0,0,.05.06h1.24a.85.85,0,0,0,0-.47c0-.13,0-.27,0-.4s-.06-.31.06-.47h4v-.48c0-.13,0-.27,0-.4s-.06-.31.06-.45H50.9l.08-.06c0-.2,0-.42,0-.64a2,2,0,0,1,0-.64h2.57s0,0,.08-.06V99.24h1.61c.18,0,.36,0,.54,0s.35.06.53,0V98s.06-.06.08-.06H59l.06,0V97a.91.91,0,0,1,0-.42h.64a2.81,2.81,0,0,0,.65,0V95.29s0,0-.06-.07H59.09a.87.87,0,0,1-.06-.47c0-.14,0-.27,0-.4s0-.31-.06-.48H57.74s-.05-.05-.05-.07V90s0,0,0-.06a.17.17,0,0,1,.06-.06h.85a.78.78,0,0,0,.42,0v-.65a2.75,2.75,0,0,1,0-.64H60.3s0,0,.07-.06v-1c0-.11,0-.23.07-.31h1.14s.05,0,.07,0,0,0,.07-.07V85.89l.07-.06h2.55l.06,0v-.39c0-.16,0-.31,0-.47a.74.74,0,0,1,0-.39l0,0H67a.17.17,0,0,0,.06-.06V83.36a.56.56,0,0,1,0-.13s0,0,.06-.08h6.34c.1,0,.22,0,.3-.07v-7.9l.07-.08h1.21s.06,0,.06-.07v-8h2.61s0,0,.08-.07c0-.31,0-.64,0-1,0-.1,0-.22.07-.3h1.2s0,0,.07-.06V64.43c.17-.1.32,0,.48-.05H80c.15,0,.3.06.47-.06V63h.87c.15,0,.31.06.46-.06v-.39c0-.16,0-.31,0-.47a.91.91,0,0,1,0-.42h.44c.13,0,.27,0,.4,0s.31.07.45-.06c0-.42,0-.83,0-1.28h.69a2.29,2.29,0,0,0,.64,0V59.08L84.45,59h-1c-.11,0-.23,0-.31-.07V57.67h1.27l.08-.07V56.38a1,1,0,0,1,.47-.05c.14,0,.27,0,.4,0s.31.06.45,0V51l-.14,0H84.63l-.06,0-.06.05v3.81s0,0,0,.07l-.06.08c-.31,0-.64,0-1,0-.11,0-.23-.05-.31.06v2.62H82a.57.57,0,0,0-.13,0s0,0-.07.07v2.61H81c-.15,0-.31-.05-.48.06v1.23a1,1,0,0,1-.47,0c-.13,0-.27,0-.4,0s-.31,0-.47.07V63h-.48a2.67,2.67,0,0,0-.4,0c-.15,0-.31-.07-.45.05,0,.42,0,.84,0,1.28h-.68a2,2,0,0,0-.64,0v1.1a.57.57,0,0,1,0,.13s0,0-.06.08c-.31,0-.64,0-1,0-.1,0-.22,0-.31.07v1.27H74a.57.57,0,0,0-.13,0s0,0-.07.07v2.56a1,1,0,0,1-.48,0c-.13,0-.26,0-.4,0s-.31-.06-.46.06v.39c0,.16,0,.31,0,.47a.86.86,0,0,1,0,.39s0,0-.06,0H68.53l-.06,0,0,.05v2.54s0,0,.06.07h1c.11,0,.23,0,.31.07v3.82s0,0,0,.07,0,0,.07.07h1.23a16.84,16.84,0,0,1,0,2.68h-.39c-.16,0-.31,0-.47,0a.91.91,0,0,0-.42,0V81c0,.13,0,.27,0,.4s.07.31-.07.45H67.15l-.07-.06v-1c0-.1,0-.22-.07-.3h-5.3V79.2s0,0,.07-.07h.63a2.25,2.25,0,0,0,.64,0v-1a1.41,1.41,0,0,1,0-.2s0,0,0-.07h.64a3.29,3.29,0,0,0,.63,0V73.82s0-.06-.06-.06H63.05V72.62a.57.57,0,0,1,0-.13s0,0,.07-.07h1.22a1.15,1.15,0,0,0,0-.48c0-.13,0-.27,0-.4s-.06-.31.06-.46h1.19s0,0,.09.06,0,.41,0,.63a2.35,2.35,0,0,0,0,.65H67s0,0,.07,0V65.76c-.16-.09-.32,0-.47,0h-.4c-.15,0-.31.06-.47-.06V55h-.48c-.13,0-.27,0-.4,0s-.31-.06-.45.06v8.24c0,.18,0,.35,0,.53a1.73,1.73,0,0,1,0,.55H63.7a2,2,0,0,0-.65,0v3.78a.66.66,0,0,1,0,.14s0,0-.06.07H61.78s-.06,0-.07.07V71s0,0,0,.07,0,0-.07.07H60.41c0,.06,0,.1,0,.14V72.3s0,0,0,.07l0,0c.42,0,.84,0,1.28,0v.68a1.94,1.94,0,0,0,0,.64h1.3V75s0,0-.06.07H62c-.11,0-.23,0-.31.06v2.54s0,0-.06.08c-.31,0-.64,0-1,0-.11,0-.23-.05-.31.07v1.06a.66.66,0,0,1,0,.14l-.08.07H59v.47c0,.13,0,.27,0,.4s0,.31-.06.47H57.75s-.06.06-.06.07v2.61H56.43s0,0-.08.06v.44c0,.13,0,.26,0,.39s.06.31-.08.47H55V85a2.71,2.71,0,0,1,0,.4c0,.14.06.3-.06.46H53.67v1.33H52.41s0,0,0,0,0,0,0,.05c0,.42,0,.84,0,1.26H51c0-.87,0-1.74,0-2.61,0,0,0,0,.06-.08.19,0,.41,0,.63,0a2.26,2.26,0,0,0,.64,0V84.63a.17.17,0,0,1,0-.07s0,0,.06-.07c.31,0,.64,0,1,0,.11,0,.23.05.31-.07V83.15h1.26l.08-.06V81.93s0-.05,0-.06,0,0,0-.05H53.72s0,.05,0,.07v1.26H51.05l-.07.08v1.21a1,1,0,0,1-.47,0c-.14,0-.27,0-.41,0s-.31,0-.47.07v1.27h-.48a2.71,2.71,0,0,0-.4,0c-.15,0-.31-.07-.44,0,0,.42,0,.84,0,1.28H47.6a2,2,0,0,0-.64,0v1.24s0,0-.07.07H45.67a1,1,0,0,0-.05.47c0,.14,0,.27,0,.41s.06.31-.06.46h-.39c-.16,0-.31,0-.47,0a.8.8,0,0,0-.42,0v.44c0,.13,0,.26,0,.4s.06.31-.07.45H43.08s0,0-.07,0l-.07.06c0,.31,0,.64,0,1,0,.11,0,.23-.06.31H40.25V89.89a2.35,2.35,0,0,1,.65,0c.22,0,.44,0,.68,0,0-.45,0-.87,0-1.29.14-.12.3,0,.45,0h.4a1,1,0,0,0,.48,0V87.24c.16-.12.32,0,.47-.06h.4c.15,0,.31,0,.48,0V85.9s0-.06.07-.06h1.24a2.75,2.75,0,0,0,0-.64v-.65a.9.9,0,0,1,.42-.05h.86c.12-.15.05-.31.06-.46s0-.26,0-.4a1,1,0,0,1,0-.47h1.22l.07-.08s0,0,0-.06V81.88c.08-.11.2-.07.31-.07h1c0-.44,0-.86,0-1.28.13-.13.3,0,.44-.06s.27,0,.41,0a1.29,1.29,0,0,0,.47,0V79.19c.17-.12.33,0,.48-.06h.4a.87.87,0,0,0,.47-.06V77.85s.06-.06.08-.06a1.33,1.33,0,0,1,.2,0h1l0-.05a.14.14,0,0,0,0-.06V75.2s0,0,0-.06a.7.7,0,0,1,.38,0h.86l.06,0A.17.17,0,0,0,55,75V67.14s0,0-.06-.08H53.74s-.06,0-.07-.07,0,0,0-.06V63.17a.13.13,0,0,0,0-.06s0,0-.06-.08H52.39s-.06-.05-.06-.07a.57.57,0,0,1,0-.13V61.72a2.75,2.75,0,0,0-.64,0H51a.78.78,0,0,1,0-.42c0-.15,0-.31,0-.47v-.39c-.15-.12-.31,0-.46-.06h-.87V59.09L49.57,59h-1.2c-.11-.08-.07-.2-.07-.31V55c-.44,0-.86,0-1.28,0,0,0,0,0-.05,0a.13.13,0,0,1,0-.06V51.05s0,0-.05-.08H45.69l-.07-.07V47l-.06-.07H44.34s-.06,0-.06-.07V43a2,2,0,0,0-.65,0c-.22,0-.44,0-.65,0a1.55,1.55,0,0,1,0-.56c0-.2,0-.4,0-.6V39c-.15-.13-.31-.05-.46-.06a2.67,2.67,0,0,0-.4,0H41.6V37.62s-.05-.06-.07-.06H40.32c-.11-.08-.06-.2-.06-.3,0-.78,0-1.56,0-2.32l.08-.06h1.2c.13-.14,0-.3.06-.45s0-.27,0-.4a1,1,0,0,1,0-.48h1.23c.12-.16.05-.32.06-.47s0-.27,0-.4a1,1,0,0,1,.05-.48h1.22s.06,0,.07-.07V26.89c-.09-.11-.21-.06-.31-.07H41.61c0-.44,0-.86,0-1.28,0,0,0,0-.05-.05H32.36s-.08,0-.14,0v3.94c.14.1.3,0,.45,0h.4c.15,0,.31-.05.47,0v2.58l-.06.06H32.27l0,.05a.07.07,0,0,0,0,.06v3.82s0,0,0,.06a1,1,0,0,1-.39,0h-.86c-.12.15-.05.31-.06.46s0,.27,0,.4a1.16,1.16,0,0,1-.05.48H29.6l-.07.07s0,0,0,.06v2.49c.08.11.2.06.3.06.33,0,.66,0,1,0,0,.05.06.06.06.08,0,.85,0,1.7,0,2.54l-.06,0-.06,0H28.18V41.64l-.06-.06H25.58s0,0-.08,0V40.3s-.05-.06-.07-.06h-1.2c-.11-.08-.07-.2-.07-.31V37.61c-.05,0-.06-.06-.08-.06h-1.2c-.12.15,0,.31-.06.46s0,.26,0,.4v.47H20.19c-.1-.14,0-.3-.05-.45s0-.27,0-.4a.91.91,0,0,0-.06-.48H17.52s-.06,0-.06-.07a.66.66,0,0,1,0-.14v-2.4l-.06,0-.06,0H12.18l-.06,0a1,1,0,0,1,0-.39V33.6s0-.05-.06-.06H6.81s0,0-.08-.06V32.26l-.07-.07H5.45c-.11-.08-.06-.2-.06-.31,0-.33,0-.66,0-1-.45,0-.87,0-1.29,0-.12-.13,0-.3,0-.45s0-.26,0-.4a1.16,1.16,0,0,0,0-.48H2.77c-.12-.16,0-.32-.07-.47s0-.27,0-.4a1,1,0,0,0-.05-.47H1.43s-.07-.06-.07-.08V25.51a2.75,2.75,0,0,0-.64,0H.06c-.06-.8-.08-9.07,0-12,.13-.12.3,0,.44-.06h.88v-4c.17-.11.33,0,.48-.06H2.7V8.11s.06-.06.08-.06a.57.57,0,0,1,.13,0H4L4,8s0,0,0-.06c0-.82,0-1.65,0-2.48l0,0a.7.7,0,0,1,.38,0h.86c.12-.14,0-.3.06-.45s0-.27,0-.41a1.1,1.1,0,0,1,0-.47H6.65S6.72,4,6.72,4a.66.66,0,0,0,0-.14V2.72a1.94,1.94,0,0,1,.64,0H8l.06-.08V1.41s0,0,0-.06H12l.07-.05V.08L12.15,0h6.57s0,0,.08.06V1.28s.05.06.07.06h5.26a2.81,2.81,0,0,1,0,.65c0,.22,0,.44,0,.63s.06.06.08.06h1.2c.12.15,0,.31.06.46s0,.27,0,.4a1.16,1.16,0,0,0,.05.48h2.56s.06.05.07.07,0,0,0,.06V6.64c.08.11.2.06.31.06h1s.06,0,.06.07a.17.17,0,0,1,0,.07V9.32c.13.13.3,0,.44.07h.84l.06.08v3.88c-.15.12-.31.05-.46.06h-.87v5.31s0,.05.05.05h1.28v1.34H29.6l-.07.06v1.16a.13.13,0,0,0,0,.06s0,0,0,0h1.24l.05-.06V20.12h1.25a.29.29,0,0,0,.09-.09V18.78h1.27l.07.06v1.23c.6.06,3.34.06,4,0V18.84c.16-.11.32-.05.47-.06a2.67,2.67,0,0,1,.4,0c.15,0,.31-.05.47,0V20c0,.05.05.07.07.08h1.2c.12-.08.07-.2.07-.31,0-.33,0-.66,0-1,0,0,.06-.06.08-.06H41.6v1.13a.66.66,0,0,0,0,.14l.06.07h1c.11,0,.23,0,.31-.07V18.78h2.68v2.64a2,2,0,0,0,.64,0h.64c0-.05.05-.06.06-.08s0,0,0-.07V20.18a34.48,34.48,0,0,1,4,0v1.23l.08.07h3.82s0,0,.06,0l.08.06v1.21l.07.07H59c.11-.09.07-.21.07-.31V18.84s.06-.06.08-.06h1.2c.12.14,0,.3.06.45s0,.27,0,.4a1.22,1.22,0,0,0,.05.49h5.26c.11.15,0,.31,0,.46s0,.27,0,.4,0,.31.05.48H67l.07.07v3.92a2.81,2.81,0,0,0,.65,0h.64a.91.91,0,0,1,0,.42v.86l.06,0H71s0,0,.08.06v1.21l.07.07s0,0,.06,0h1.14c.11.09.07.21.07.31,0,.33,0,.66,0,1,.44,0,.86,0,1.28,0,.13.14,0,.3.06.45s0,.26,0,.4v.48H76.4c.12.16,0,.32.06.47s0,.27,0,.4v.48h1.27s.06.05.06.07a.13.13,0,0,1,0,.06v2.52a2.72,2.72,0,0,0,.64,0c.22,0,.44,0,.64,0,0,.05,0,.06.06.08v2.54c.14.12.3,0,.45.06s.27,0,.4,0a1.14,1.14,0,0,1,.48.05v2.57c.17.12.32,0,.47.06s.27,0,.41,0h.47v1.28l.07.06h1.24a2.81,2.81,0,0,1,0,.65c0,.21,0,.43,0,.64a.91.91,0,0,0,.42.05h.86l0,.06a.13.13,0,0,1,0,.06v2.48s0,0,.06.08h1.21s.06,0,.07.07,0,0,0,.06v2.55H84.59s0,0-.08.06V49.5s0,0,0,.06l0,0H85.8s0,0,0-.07V48.28h1.34v3.95c.15.14.31.06.46.07s.26,0,.4,0h.43c0,.06,0,.07,0,.09,0,1.31,0,2.63,0,3.94H87.26s0,0-.07.07v4h-.88c-.15,0-.3-.05-.47.07V63a1.1,1.1,0,0,1-.47,0c-.14,0-.27,0-.41,0s-.31-.07-.44.05c0,.42,0,.84,0,1.28h-.69a2,2,0,0,0-.64,0v1.31H81.92l-.06,0s0,0,0,0v1.26H80.69a.57.57,0,0,0-.13,0s0,0-.07.06v1c0,.1,0,.22.07.3h1.27v1.26s0,0,.06.08h1.22l0,0V68.45s0,0-.07,0H81.83V67.06h1.26l0,0a.09.09,0,0,0,0,0V65.72h2.61l.07,0V65a2.86,2.86,0,0,1,0-.65h1.24l0,0a.14.14,0,0,0,0-.06V61.81a.14.14,0,0,1,0-.06l0,0c.42,0,.84,0,1.29,0V56.33h1.29a.85.85,0,0,1,0,.17c0,2.12,0,4.25,0,6.37a.68.68,0,0,1,0,.15c-.41,0-.83,0-1.24,0l0,.05a.13.13,0,0,0,0,.06c0,.83,0,1.65,0,2.48,0,0,0,0,0,.08H87.26c-.12.16-.05.32-.06.47a2.67,2.67,0,0,0,0,.4c0,.15,0,.31,0,.48h1.22s.06,0,.06.07c0,.85,0,1.7,0,2.58a2.86,2.86,0,0,1-.65,0h-.66a1.74,1.74,0,0,0,0,.55c0,.18,0,.36,0,.54v6.89c-.14.13-.3,0-.45.06s-.27,0-.4,0a1.13,1.13,0,0,0-.48,0v5.25l-.07.07H84.58c-.11.08-.07.2-.07.31v2.31s.06.06.08.06,0,0,.07,0h1.13c.13.14,0,.31.06.45s0,.27,0,.41v.47h1.27l.07.08s0,0,0,.06c0,1.27,0,2.55,0,3.82,0,0,0,0,.06.08h1.21s.06,0,.06.07a.13.13,0,0,1,0,.06v1.18a2.81,2.81,0,0,1-.65,0h-.64s0,.06,0,.08c0,.4,0,.8,0,1.2.15.12.31,0,.46.06s.27,0,.4,0a1.09,1.09,0,0,1,.47,0v1.25l0,0s0,0-.07,0H87.24a.85.85,0,0,0,0,.17q0,3.19,0,6.37a.69.69,0,0,0,0,.13l0,0h1.2s0,0,0,0a.13.13,0,0,1,0,.06c0,1.29,0,2.58,0,3.86a1,1,0,0,1-.43,0h-.85s-.05,0-.06.06a.15.15,0,0,0,0,.07v2.41s0,.05,0,.07l-.06.07H85.92s-.06.05-.06.07a.66.66,0,0,0,0,.14v1.1a2,2,0,0,1-.64,0c-.22,0-.44,0-.69,0,0,.45,0,.87,0,1.28-.14.13-.3,0-.45.06h-.88v-1.26l-.07-.07H81.9c-.11-.08-.07-.2-.07-.3v-6.34l-.07-.06h-1.2l-.06,0a.13.13,0,0,0,0,.06v9.19s0,0,0,.05,0,0-.06,0H76.53c-.12-.15,0-.31-.06-.46s0-.27,0-.41v-.46H75.18l-.05,0a.66.66,0,0,0,0,.14v5.16H73.86l-.08.06v1.16s0,0,0,.06,0,0,0,.05h1.23s.05-.05.05-.07Zm18.78,8V126s0,0,.06.08h1.22l0,0v-1.23s0,0-.07,0H93.9v-1.27s0,0-.06-.08H92.62l-.05,0v1.24s.05,0,.07,0ZM59,51h1.26s0,0,.08-.06V48.28h1.27s0,0,0,0a37.68,37.68,0,0,0,0-4H60.42s-.05.06-.05.07v3.94H59.11s0,0-.08.06V51H57.77s0,0-.08.05v1.17a.13.13,0,0,0,0,.06s0,0,0,0H59s.05,0,.05-.06Zm18.78-4H76.54l-.07.06v4H75.2s0,0-.08.06v.43c0,.13,0,.27,0,.4s.07.31-.06.44c-.41,0-.83,0-1.28,0V55h-2.6s0,0-.05,0,0,0,0,.06v2.47a.13.13,0,0,1,0,.06l-.07.07H69.81s0,0,0,.07v2.6H68.5s0,0-.08.06v1.16s0,0,0,.06l0,0h1.24s.05,0,.05-.07V60.35H71l.07-.06v-.63a2.81,2.81,0,0,1,0-.65h1.23s0,0,.08-.06v-.43c0-.13,0-.27,0-.4s-.06-.31.08-.46h1.21s0-.06,0-.08V55h1.27l.07-.06v-.44a2.71,2.71,0,0,1,0-.4c0-.14-.07-.31.05-.44.42,0,.84,0,1.29,0V51h1.26s0,0,.08-.06v-4h1.26s0,0,.05,0a15.19,15.19,0,0,0,0-2.63H77.85s0,0,0,.07ZM68.42,45.6h1.27l0,0a34.62,34.62,0,0,0,0-4H68.46s0,0,0,.07V45.6H67.15s0,0-.07.06V48c0,.1,0,.22.07.3h1.27v2.61s0,0-.07.07h-1c-.1,0-.22,0-.3.06v2.54s0,0,.06.08h1c.11,0,.23,0,.31.07V55H67.16s0,0-.08.06v1.16a.13.13,0,0,0,0,.06s0,0,0,0h1.24s0,0,0-.06V55h1.26s0,0,0,0,0,0,0-.06V52.43s0,0,0-.06l.06-.07H71.1V51h1.27l0,0a17.43,17.43,0,0,0,0-2.62H71.15l-.05.06V51H69.83s0,0-.07-.06V48.59c0-.11,0-.23-.07-.31H68.42Zm5.38-1.34h1.25s0,0,.07-.07V39a.13.13,0,0,0,0-.06l0-.06H73.87s0,0-.07,0c0,1.76,0,3.54,0,5.32H72.52s0,0,0,0a15,15,0,0,0,0,2.62h1.24l0-.06C73.78,46,73.78,45.12,73.8,44.26Zm-20.13-4H52.39l0,0v2.58a.92.92,0,0,0,.46.05c.14,0,.27,0,.41,0s.3-.06.47.07v1.23a.51.51,0,0,0,.14,0h1.07l.06,0,.06-.05V41.65L55,41.58h-.64a1.94,1.94,0,0,1-.64,0V40.23h1.26l.08-.06V39A.13.13,0,0,0,55,39a.1.1,0,0,0,0,0H53.72l0,.06Zm28.16,92.54v-1.26s0,0-.06-.08H80.55l0,0v1.24s0,.05.07.05h1.26V134s0,0-.07.07h-1c-.1,0-.22-.05-.3.06v1.14s0,.05,0,.07l.07.07h1.27v.47c0,.13,0,.27,0,.4s0,.31,0,.45h2.58c.09-.15,0-.31.05-.46a2.67,2.67,0,0,0,0-.4c0-.15,0-.31-.06-.47H83.23s-.06,0-.06-.07v-2.61h4c0,.42,0,.85,0,1.27,0,0,0,0,.06.07h4v2.61l0,.05a15.38,15.38,0,0,0,2.63,0v-4H93c-.15,0-.31,0-.47.06v1.22l-.07.06H91.22v-1.26s0,0-.06-.08h-4v-1.14a.57.57,0,0,1,0-.13s0,0,.07-.07h1.22a1,1,0,0,0,0-.48,2.67,2.67,0,0,0,0-.4c0-.15.06-.31,0-.45H85.94l0,0s0,0,0-.06v-2.48a.13.13,0,0,0,0-.06l0,0h-1.2l-.08-.06c0-.31,0-.65,0-1,0-.1,0-.22-.07-.3h-1.2s0,0-.07-.06v-2.57a16.91,16.91,0,0,0-2.68,0v3.88s0,0,.05.09h.84c.15,0,.31-.07.45.06v1.14s0,0,0,.06l.06.08h1c.1,0,.22,0,.3.07v4ZM76.47,59H75.19l-.07.07V60.3a1,1,0,0,1-.47.05h-.41c-.15,0-.31-.05-.46.06v1.28h-.49a2.71,2.71,0,0,0-.4,0c-.15,0-.31-.07-.45.06v1.13s0,0,0,.07l-.06.07h-1c-.11,0-.23,0-.31.06v1.14s0,.05,0,.07,0,0-.07.07H69.82s-.06.06-.06.07v2.48a.17.17,0,0,1,0,.07l-.06.06h-.38c-.16,0-.31,0-.47,0a.8.8,0,0,0-.42,0v1.17s0,0,0,.06a.17.17,0,0,0,.06.06H71s0,0,.08-.06v-1c0-.1,0-.22.07-.3h1.2l.08-.07V64.42a1.09,1.09,0,0,1,.47,0h.4c.15,0,.31.06.46-.06v-.85a1,1,0,0,1,0-.43h.84c.15,0,.31.07.45-.06V61.84a.15.15,0,0,1,0-.07s0,0,.06-.08c.31,0,.64,0,1,0,.1,0,.22.05.31-.07V59h1.25a.09.09,0,0,0,0,0l0-.06V57.67h2.61l.07-.07V55c.17-.1.32,0,.47,0h.4c.15,0,.31.06.48-.06V52.35a1,1,0,0,1,.47,0h.4c.15,0,.31.06.45,0V45.64a1.09,1.09,0,0,0-.47,0h-.4c-.15,0-.31-.06-.47.07v5.25a1.13,1.13,0,0,1-.48,0c-.13,0-.27,0-.4,0s-.31-.07-.44.05c0,.42,0,.84,0,1.28h-.69a2,2,0,0,0-.64,0v2.57l-.07.08c-.31,0-.64,0-1,0-.1,0-.22-.05-.3.07v2.61H76.55s0,0,0,0l0,0C76.46,58.17,76.47,58.59,76.47,59ZM34.89,126.07h1.27s0,0,.07.07v2.57c.73.06,3.47,0,4,0v-2.59a1.15,1.15,0,0,1,.48,0c.13,0,.27,0,.4,0s.31.07.46-.06c0-.84,0-1.68,0-2.53,0,0,0,0-.05-.09H36.29l-.06,0v1.13s0,0,0,.07l-.06.08c-.31,0-.64,0-1,0-.11,0-.23,0-.31.06v1.28H33.63s0,0-.08.06v1.16a.13.13,0,0,0,0,.06s0,0,0,0h1.24s0,0,0-.06ZM14.77,17.44h1.28l.07-.07V16.14a16.91,16.91,0,0,1,2.68,0v.4c0,.15,0,.31,0,.47a.8.8,0,0,0,.05.42c.2,0,.42,0,.64,0a2,2,0,0,1,.65,0V18.7s0,0-.07.08H17.46v.47c0,.14,0,.27,0,.4s-.06.31.06.48h2.57s.05.05.05.07V24s0,.05,0,.06l.05.06h1.2s0,0,.08-.06V21.77c0-.11,0-.23.07-.31h1.2l.06-.06V20.16a1.09,1.09,0,0,0-.47,0c-.13,0-.27,0-.4,0s-.31.06-.46-.06V17.52s0,0,.05-.08h.64a2.35,2.35,0,0,0,.65,0V9.46s0,0,.06-.07h1.23a1,1,0,0,0,.05-.48,2.67,2.67,0,0,0,0-.4c0-.15.05-.31-.06-.47H22.87S22.82,8,22.82,8V4.14a.13.13,0,0,0,0-.06s0,0,0,0c-.42,0-.84,0-1.28,0V3.33a2.35,2.35,0,0,0,0-.65H10.82l-.07.07V4H9.87c-.15,0-.31-.06-.46.06V5.36H8.52c-.15,0-.31-.07-.45.06v1.2s0,0,.06.08h2.31c.11,0,.23,0,.31.07V8l-.07.07H6.78s0,.06,0,.08v5.16s0,.05,0,.06a.17.17,0,0,1-.06.06H5.8a.86.86,0,0,0-.41.05c0,.21,0,.43,0,.65a2,2,0,0,1,0,.64H2.77l-.07.07v2.56c-.17.1-.32,0-.47.05H1.82c-.15,0-.31-.06-.44,0v4h.47c.13,0,.27,0,.4,0s.31-.07.45.06c0,.42,0,.84,0,1.28H5.08c.1,0,.22,0,.31.07,0,.38,0,.76,0,1.14,0,0,0,0,0,.06l.07.08H6.67s0,.05,0,.07c0,.83,0,1.65,0,2.48,0,0,0,.05,0,.06l0,0c2,0,5.92,0,6.65,0,0-.21,0-.43,0-.65a2.81,2.81,0,0,0,0-.65H10.82s0,0-.06-.05V22.84a1.38,1.38,0,0,1,.53,0c.18,0,.36,0,.54,0H12.9c.17,0,.35.05.54-.06V20.17s.06-.05.08-.05H16l.06,0,.05-.05v-1.2s0,0-.06-.07h-.63a2,2,0,0,1-.65,0Zm8.05,119.35v7.92s0,0,0,.06l.08.08h1.21a1,1,0,0,1,.05.47c0,.14,0,.27,0,.4s-.06.31.06.46h1.2l.08-.05v-.43c0-.14,0-.27,0-.41s-.06-.31.07-.45h1.2s0,0,.07-.06c0-.76,0-1.53,0-2.31,0-.11-.05-.23.06-.31h1.21l.05,0v-5.27a1,1,0,0,0-.46,0H27.3c-.15,0-.31.06-.46-.06v-.38c0-.16,0-.32,0-.47a.85.85,0,0,0,0-.39l-.12,0c-.81,0-1.61,0-2.41,0h-.06l-.06.05v1.13s0,0,0,.07l-.06.07ZM25.5,28.16h4l.07.07v5.24a1,1,0,0,0,.47.05h.41c.14,0,.3,0,.44-.05V24.19s-.05-.05-.07-.05H26.9s0,0-.06-.06V23s0-.05,0-.07,0,0-.06-.08c-.19,0-.41,0-.63,0a2.35,2.35,0,0,0-.65,0v1.11a.57.57,0,0,1,0,.13s0,0-.07.07H24.16v.48c0,.13,0,.27,0,.4s.06.31-.07.47H21.52a.48.48,0,0,0,0,.15v1.07a.13.13,0,0,0,0,.06s0,0,.06.05h3.87l.08.06ZM64.4,40.24V35.07a.57.57,0,0,0,0-.13s0,0,0-.06H61.76a1,1,0,0,0,0,.47,2.67,2.67,0,0,0,0,.4c0,.15-.06.31.05.46h.86a1,1,0,0,1,.39,0s0,0,0,.06v5.16a.14.14,0,0,0,0,.06l0,.06h1.2s0,0,.08.06c0,.31,0,.64,0,1,0,.11,0,.23-.06.31H63.19s0,0-.07,0l0,0v1.24a1.1,1.1,0,0,0,.47,0h.4c.15,0,.31-.06.46.06v8.24c0,.17,0,.35,0,.53a1.81,1.81,0,0,0,0,.56h.66a2.29,2.29,0,0,0,.64,0c0-6,0-12.55,0-13.38Zm8,55H71.17l-.07.07v1.27h-.48c-.13,0-.27,0-.4,0s-.31-.06-.46.06v2.54a.07.07,0,0,0,0,0,.09.09,0,0,0,0,0h2.54s0,0,0,0v1.2a.17.17,0,0,0,.06.06h1.24c.09-.15,0-.31,0-.46s0-.27,0-.4-.06-.31.06-.47h1.23a.68.68,0,0,0,0-.15V94s0,0,0-.06l0-.06H72.52s0,0-.07.06ZM18.8,127.39v-1.12a.56.56,0,0,1,0-.13s0,0,.05-.06h2.63v.46c0,.14,0,.27,0,.41s-.06.31.05.44h1.25a1.27,1.27,0,0,0,0-.47c0-.13,0-.27,0-.4s-.06-.31.06-.45c.42,0,.84,0,1.28,0,0-.24,0-.46,0-.68a2.26,2.26,0,0,0,0-.64H14.85s0,0-.08.06c0,.31,0,.64,0,1,0,.11.05.23-.07.31H13.5s0,0-.05.05v1.25a18,18,0,0,0,2.67,0v-1.24a.68.68,0,0,1,.15,0H17.4l.05,0c0,.42,0,.83,0,1.26Zm59-49.6h2.62s0,0,.07-.06V75.15a1,1,0,0,1,.48,0h.4c.15,0,.31.06.46-.06V73.85s0,0-.06-.09h-.63a2.35,2.35,0,0,1-.65,0V72.49l-.06-.06H77.84a1.37,1.37,0,0,0,0,.53c0,.18,0,.36,0,.54V74a4.64,4.64,0,0,1,0,.53c0,.17.06.36,0,.54H76.47v1.22a.13.13,0,0,0,0,.06l0,0c.42,0,.84,0,1.28,0Zm-10.71,29.5h1.26s0,0,.05-.05V106h-.86c-.15,0-.31.06-.46-.06V105a.9.9,0,0,0,0-.42c-.21,0-.43,0-.65,0a2.75,2.75,0,0,0-.64,0v1.1a.66.66,0,0,1,0,.14s0,0-.06.07H64.44a38.37,38.37,0,0,0,0,4h3.81l.16,0v-1.18a.13.13,0,0,0,0-.06s0,0,0,0c-.42,0-.84,0-1.27,0ZM53.66,140.82h-2.6s0,0-.08.06c0,.31,0,.65,0,1,0,.1.05.22-.07.3h-1.2s0,0-.07.07v1.22a1,1,0,0,1-.47.05h-.4c-.15,0-.31-.05-.46.05v1.25a18.38,18.38,0,0,0,2.68,0v-1.25a1.66,1.66,0,0,1,.54,0h1.6a1.21,1.21,0,0,0,.53,0ZM63.05,28.18v1.25s0,0-.06.08c-.31,0-.64,0-1,0-.11,0-.23-.05-.31.06v1.21s0,0,.08.07h1.26v.47c0,.13,0,.27,0,.4s-.05.31,0,.47h2.32c.11,0,.22,0,.31-.07,0-.85,0-1.69,0-2.54,0,0,0,0-.06-.07H65a1.94,1.94,0,0,1-.64,0v-.9c0-.11,0-.22,0-.33s0,0,0-.06Zm8,73.76v3.87s0,0,0,.07,0,0,.07.07h2.31c.1,0,.22,0,.3-.07v-3.82s0,0,0-.06l0-.06ZM81.82,81.86l-.06,0H75.2s0,0-.06,0V83.1s0,.05.06.05h6.56l.06-.05ZM59,37.55H57.76s0,0-.07.08v4c0,.22,0,.45,0,.67a2.81,2.81,0,0,0,0,.65H59s0,0,.08-.06c0-.19,0-.41,0-.63a1.94,1.94,0,0,1,0-.64H60.3s0,0,.07-.06v-1c0-.11,0-.22-.07-.31H59.23a.57.57,0,0,1-.13,0s0,0-.07-.07ZM81.76,89.86s0,0,0,0l0,1.25a19.67,19.67,0,0,0,2.66,0V89.9c-.15-.09-.31,0-.46,0h-.4c-.15,0-.31.05-.47,0V88.56a19.82,19.82,0,0,0-2.67,0V89.8s0,0,.06,0ZM20.13,25.48H18.87a.22.22,0,0,0-.07.07v1.23a1.26,1.26,0,0,1-.54,0H17.19a4.87,4.87,0,0,0-.54,0,1.26,1.26,0,0,0-.54,0v1.25c.65.06,3.4.06,4,0ZM73.79,87.17H72.51l-.07.06v1c0,.11,0,.22.07.31h2.54s0,0,.07-.06c0-.2,0-.42,0-.64a2,2,0,0,1,0-.64h1.23s0,0,.08-.06c0-.31,0-.64,0-1,0-.11.05-.23-.06-.31H73.86s0,0-.07.06ZM55.05,139.49a19.67,19.67,0,0,0,0,2.66h2.59a18.16,18.16,0,0,0,0-2.66Zm-22.84,2.66V141a.57.57,0,0,1,0-.13s0,0,.08-.07H33.5a1,1,0,0,0,0-.47,2.67,2.67,0,0,0,0-.4c0-.15.05-.31-.06-.47H31.17c-.1,0-.22,0-.3.07v2.54s0,0,.05.06Zm6.7,0h1.27s0,0,.07-.06c0-.32,0-.65,0-1,0-.1,0-.22-.07-.3H37.64l0,0a12.4,12.4,0,0,0,0,2.64h1.2s0,0,.07-.06Zm4-6.69v1.12a.66.66,0,0,0,0,.14s0,0,.07.07h2.3c.11,0,.23.05.31-.06v-1.21l-.06-.05Zm34.87-55c0-.46,0-.86,0-1.26,0,0,0,0-.06-.07h-.63a2.26,2.26,0,0,0-.64,0c0,.44,0,.84,0,1.24l0,.06ZM24.17,12.07h1.26s0,0,.07-.08c0-.3,0-.63,0-1,0-.1.05-.22-.07-.3h-1.2s0,0-.06.06ZM71.1,91.19V89.93s0,0-.06-.07c-.2,0-.42,0-.64,0a2.26,2.26,0,0,0-.64,0v1.24s0,0,0,.06Zm-8,4h1.25s0,0,.08-.06c0-.2,0-.42,0-.64a2,2,0,0,0,0-.64H63.13s0,0-.06.05Zm-10.76,8H51.05l-.07.06c0,.2,0,.42,0,.64a1.72,1.72,0,0,0,0,.64h1.23s0,0,.06-.06ZM37.56,21.46H36.43a.56.56,0,0,0-.13,0s0,0-.07.06v1c0,.1,0,.22.07.3h1.2s0,0,.06-.06Zm18.79,89.87v1.19s0,0,0,.07l.06.07h1c.1,0,.22,0,.3-.06v-1.21l-.06,0ZM48.3,120.7h1.29c.1-.16,0-.32,0-.47a2.67,2.67,0,0,0,0-.4c0-.15,0-.31,0-.46H48.36s-.06,0-.06.06Zm8.05-84.5V34.94l-.07-.07h-1c-.1,0-.22,0-.3.07V36a.57.57,0,0,0,0,.13s0,0,.05.06Zm-2.69,9.4H52.4s0,0-.08.06c0,.31,0,.65,0,1,0,.1,0,.22.06.3H53.6l.06-.06Zm2.69,2.67V47l-.07-.07h-1c-.1,0-.22,0-.3.07v1.07a.57.57,0,0,0,0,.13s0,0,.05.06ZM51,52.35c-.15-.09-.31,0-.46,0a2.67,2.67,0,0,0-.4,0c-.15,0-.31-.05-.46,0V53.6c.16.09.32,0,.47,0h.4c.14,0,.3,0,.45,0ZM61.72,53.6c.16.09.32,0,.47,0h.4c.15,0,.3,0,.45,0V52.35c-.15-.09-.31,0-.46,0a2.67,2.67,0,0,0-.4,0c-.15,0-.31-.05-.46,0Zm-1.34,2.68a.92.92,0,0,0,.46,0c.14,0,.27,0,.4,0s.31,0,.46,0V55c-.15-.09-.31,0-.46,0a2.67,2.67,0,0,0-.4,0c-.15,0-.31-.05-.46,0Zm28.17,83.2h1.26l.07-.08c0-.3,0-.63,0-1,0-.1,0-.22-.06-.3H88.6s0,0,0,.06ZM59.08,57.68a.92.92,0,0,0,0,.46,2.67,2.67,0,0,0,0,.4c0,.15-.05.31,0,.46h1.24a.92.92,0,0,0,0-.46,2.67,2.67,0,0,0,0-.4c0-.15.05-.31,0-.46ZM67.14,63l0,0v1.25c.14.09.3,0,.45,0H68c.15,0,.31,0,.46,0V63Zm-36.27,81.8c0-.45,0-.86,0-1.26l-.06-.07h-.63a1.94,1.94,0,0,0-.64,0c0,.43,0,.83,0,1.23,0,0,0,0,0,.06Zm2.67-1.33H32.28s0,0-.07.08c0,.3,0,.63,0,1,0,.1-.05.22.07.3h1.2s0,0,.06-.06Z"/><path d="M30.87,18.78V17.51c.08-.12.2-.07.3-.07.33,0,.66,0,1,0a.22.22,0,0,1,.07.07v1.27Z"/><path d="M41.6,18.78V17.51c.08-.12.2-.07.3-.07.33,0,.66,0,1,0a.22.22,0,0,1,.07.07v1.27Z"/><path d="M45.62,18.78V17.51s0,0,.05-.06h1.24l0,0a.13.13,0,0,1,0,.06v1.17c-.05,0-.06.05-.08.05Z"/><path d="M14.77,17.44H13.51s0,0-.07-.05V14.81l.05-.05h1.23c0,.05,0,.07,0,.09Z"/><path d="M16.11,6.69H14.82c-.09-.15,0-.3-.05-.45v-.4c0-.15,0-.31.05-.46h1.25c.09.15,0,.3,0,.45s0,.27,0,.4Z"/><path d="M61.71,81.81h2.6s0,0,.07,0v1.23a16,16,0,0,1-2.63,0s0,0,0,0Z"/><path d="M61.71,80.47v1.34H60.44c-.11-.08-.06-.2-.07-.3v-1s.05-.06.07-.06a.66.66,0,0,1,.14,0Z"/><path d="M57.69,83.15H59s0,0,.07,0v1.24l-.05,0H57.75s-.06-.06-.06-.08Z"/><path d="M53.67,88.52V87.17h1.27c.11.08.06.2.07.31v1l-.07.06H53.67Z"/><path d="M52.32,89.86V88.52h1.35c0,.41,0,.83,0,1.25a.09.09,0,0,1,0,0s0,0-.05,0Z"/><path d="M48.3,91.2V89.94s0,0,0,0,0,0,.06,0h1.25V91.2Z"/><path d="M51,89.86h1.34c0,.42,0,.83,0,1.25a.09.09,0,0,1,0,0s0,0,0,0H51Z"/><path d="M51,91.2v1.27c-.08.11-.2.07-.3.07h-1l-.07-.07V91.2Z"/><path d="M51,88.52v1.34H49.64V88.6s0,0,0,0a.09.09,0,0,1,0,0Z"/></g></g></svg>