<svg xmlns="http://www.w3.org/2000/svg" viewBox="0 0 14.87 84.87"><title>Recurso 43ART</title><g id="Capa_2" data-name="Capa 2"><g id="Capa_1-2" data-name="Capa 1"><path d="M0,82a1.21,1.21,0,0,1,.62-1.3.7.7,0,0,0,.25-.94c-.16-.29-.36-.57-.52-.87a1.57,1.57,0,0,1-.23-.68c0-2,0-3.92.06-5.88,0-1.38,0-2.77.08-4.15L.43,62c0-1.39.06-2.78.11-4.16s.13-2.62.17-3.94c0-.79,0-1.59,0-2.38A13.69,13.69,0,0,0,.81,50a6.42,6.42,0,0,1,0-1.16c0-.38,0-.76,0-1.14,0-.55.06-1.1.07-1.64,0-.34,0-.68,0-1,0-1.18,0-2.35.07-3.53S.92,39,1,37.69a22.75,22.75,0,0,1,.15-3.1A13.42,13.42,0,0,1,2,32.11C2.47,30.74,3,29.38,3.51,28a5.52,5.52,0,0,0,.28-1.51c.06-.86.06-1.72.08-2.58,0-1.2,0-2.4.08-3.6,0-.1,0-.25.06-.28.46-.27.26-.71.28-1.09.1-1.85.18-3.71.27-5.56A45.5,45.5,0,0,1,6.3,3.76c.07-.23.25-.43.31-.66s.3-.38.1-.64c-.06-.08,0-.27,0-.4C7,1.52,7.17,1,7.39.45A.74.74,0,0,1,7.58.18,1.67,1.67,0,0,1,9.53.52a1,1,0,0,1,.15.37c.1.73.16,1.46.29,2.19s.3,1.16.43,1.74c.26,1.15.52,2.3.72,3.45s.4,2.5.51,3.76c.13,1.48.17,3,.23,4.46,0,1,.07,2,.06,2.93,0,.32,0,.54.29.74.12.08.13.37.12.57,0,.8-.09,1.61-.08,2.42,0,.55,0,1.09-.05,1.63a3.08,3.08,0,0,0,.12,1.15,1.49,1.49,0,0,1,0,.56,8.19,8.19,0,0,0,.72,3.16c.38,1.14.81,2.25,1.21,3.38a9.1,9.1,0,0,1,.46,1.54,10.49,10.49,0,0,1,.15,1.77c0,1,0,2.06,0,3.1,0,1.23,0,2.46,0,3.69,0,1.88-.06,3.77-.08,5.65,0,1.27,0,2.54,0,3.81,0,.87,0,1.75,0,2.62,0,2.47-.05,4.94-.08,7.41,0,2.11,0,4.22-.08,6.33,0,1.55-.09,3.11-.11,4.67s0,2.85,0,4.27a6.58,6.58,0,0,1,0,.89,1.56,1.56,0,0,1-.24.46c-.22.39-.65.68-.6,1.21,0,.12.07.31.15.35,1.23.58.84,2.58-.28,3.07a11.46,11.46,0,0,1-3.54.81c-.84.08-1.69.17-2.54.18a10.56,10.56,0,0,1-1.87-.13c-1.25-.2-2.49-.43-3.73-.68A2.38,2.38,0,0,1,.15,82.72,2.43,2.43,0,0,1,0,82ZM5,26.27l-.34-.46c.06.2-.11.55.3.51l.1.61C5.27,26.79,5.26,26.63,5,26.27ZM2.45,39.42c-.41.18-.05.42-.08.63.1-.21.26-.41.08-.64l.5.1.06,0-.43-.32Zm5-35.94.35-.36A5.86,5.86,0,0,0,7.09,3c-.08,0-.17.13-.26.2l.27.14.38.14s0,0,0,0a.1.1,0,0,1,0,0c-.18,0-.35,0-.52,0s-.26.08-.24.29a2.43,2.43,0,0,1-.08.52c0,.2-.25.4,0,.58a.18.18,0,0,1,0,.13.68.68,0,0,1-.17.09,2.21,2.21,0,0,1,.27.12A1.92,1.92,0,0,1,7,5.5l0,0L6.7,5.49l-.2,1L7,6.34c-.34-.15-.36-.2-.21-.47a2.52,2.52,0,0,0,.35.3s.15-.07.22-.12,0-.11,0-.11c-.27-.17.12-.26,0-.37-.19-.31.17-.12.2-.22a.62.62,0,0,1,0-.84c.09-.12.06-.33.08-.5l-.36.14c.1-.19.19-.33.26-.48a.66.66,0,0,0,.06-.2ZM6.7,28.54c.06-.08.2-.22.18-.26a3.83,3.83,0,0,0-.36-.44l-.09.07.15.37-.08,0-.59-.61-.06.06L5.9,28a4.3,4.3,0,0,1-.48-.26.53.53,0,0,0-.86.26c-.11.37-.19.74-.28,1.06l.28.11a1.6,1.6,0,0,1-.2.34c-.11.13-.33.2-.37.33-.13.43-.2.88-.29,1.33s-.12.63-.22.94-.29.59-.4.9c-.16.51-.29,1-.43,1.54-.06.2.12,1,.3,1a2.82,2.82,0,0,0,1.32.27c.27-.05.58.2.8-.09.31.24.59.29.8-.13.24.17.24-.1.35-.19a4.76,4.76,0,0,1,.47-.31L6.9,35l0-.07L6.52,35l.35-.54-.34-.09v-.08l.39,0c-.1-.25.25-.65-.22-.66,0-.15,0-.33,0-.38s-.31-.49.18-.33c0-.09.08-.25.06-.26-.2-.11-.07-.21,0-.33a4.42,4.42,0,0,0,.13-.61l-.06,0-.19.3c0-.24-.17-.5.21-.53,0,0,.07-.08.06-.08-.24-.29.11-.53.08-.81a4.49,4.49,0,0,1,.06-.73l-.14,0a1.2,1.2,0,0,1,0-.46A.62.62,0,0,0,6.7,28.54ZM1.81,82.88l0,.13,2.35.51,0-.13Zm3-59.58c0,.08,0,.21.05.23s.21.2.09.41a.56.56,0,0,0,.21.74c0-.16-.19-.39-.15-.43C5.41,23.86,5.11,23.59,4.85,23.3ZM2.48,37.84h.71l-.44-.44ZM5.72,20.52v.09l1.41.1V20.6ZM3,38.83c0-.12-.07-.27-.12-.42a.13.13,0,0,0-.09-.07.14.14,0,0,0-.11.06c0,.18-.08.36-.11.53Zm2.6,44.82v-.1l-1.25-.13v.12ZM1.94,41.92,2,42c.1-.22.22-.44.31-.66a.78.78,0,0,0-.21-.12Zm1,1c-.1.14-.2.26-.28.39s0,.13.06.17a.23.23,0,0,0,.16.06A.2.2,0,0,0,3,43.43C3,43.27,3,43.12,3,42.92ZM2.79,44.4c.18-.31.17-.35-.14-.5C2.69,44.07,2.74,44.23,2.79,44.4Zm.36,2.79-.14,0,.2.45.1,0ZM4.89,24.87l-.18,0c0,.14.07.28.11.41h.1ZM3.44,42.45c-.07-.09-.11-.17-.18-.21s-.1.06-.15.1a.93.93,0,0,0,.16.18S3.37,42.48,3.44,42.45Z"/></g></g></svg>