<svg xmlns="http://www.w3.org/2000/svg" viewBox="0 0 122.05 125.65"><defs><style>.cls-1{stroke:#211915;stroke-linecap:round;stroke-miterlimit:10;stroke-width:0.86px;}</style></defs><title>Recurso 5MODERN ICON</title><g id="Capa_2" data-name="Capa 2"><g id="Capa_1-2" data-name="Capa 1"><path class="cls-1" d="M3.12,52.3l.2-.2c0-.66,0-1.38,0-2.09l.18-.18V47.55l.22-.22V45.47l.19-.19V43.44l.22-.25v-.4a.24.24,0,0,0-.34-.08c-.16.13,0,.47-.28.45v.66c-.06.06-.15.11-.15.16,0,.4-.36.71-.26,1.13-.16.31-.21.67-.4,1a.34.34,0,0,0,0,.1v.52l-.21.22v.62l-.19.19,0,.44-.18.2,0,.64c-.34.16,0,.63-.38.79v.61l-.21.23v.61l-.21.23v.4l-.19.19c0,.19,0,.42,0,.66l-.16.16v.54L.52,54S.45,54,.45,54v-.85l.18-.21v-.6l.22-.23v-.61L1,51.32c.14-.19-.06-.47.21-.65s-.05-.39.15-.55,0-.46.1-.69l.2-.24V48.6l.22-.24V48L2,47.81c.15-.22,0-.47.1-.72L2.24,47c.1-.19,0-.4,0-.61s.3-.27.21-.52.19-.27.2-.43,0-.42.2-.55v-.61L3.12,44V43.4l.14-.13c.13-.23,0-.47.07-.69s.2-.17.19-.24a1.37,1.37,0,0,1,.2-.65c.08-.17,0-.36.18-.55s0-.39.06-.63l.19-.21v-.6l.21-.23v-.41c.16-.2.4-.33.45-.64a1,1,0,0,1,.36-.56c.21-.17.2-.42.35-.6s.16-.42.37-.57.08-.17.13-.25a1.71,1.71,0,0,1,.32-.58,2,2,0,0,0,.42-.66c.12-.2.17-.43.37-.58s.08-.17.13-.25a1.57,1.57,0,0,1,.33-.58A2.31,2.31,0,0,0,8,33.13c.11-.2.16-.44.37-.57a.36.36,0,0,0,.11-.16c.13-.26.15-.58.4-.76s.21-.57.51-.73c.14-.07.1-.23.16-.34A1.5,1.5,0,0,1,9.92,30c.21-.16.2-.41.35-.59s.16-.43.37-.57.09-.17.13-.25a1.9,1.9,0,0,1,.32-.58,2.27,2.27,0,0,0,.43-.66c.11-.2.16-.44.36-.58s.09-.17.13-.25a1.91,1.91,0,0,1,.33-.58,2.16,2.16,0,0,0,.42-.67c.12-.19.16-.43.37-.57.06-.05.08-.17.12-.25a1.91,1.91,0,0,1,.33-.58A2.16,2.16,0,0,0,14,23.2a2.22,2.22,0,0,1,.37-.57c.26-.25.23-.67.51-.92s.32-.67.65-.87c.11-.59.62-1,.83-1.52a1.17,1.17,0,0,1,.69-.65,5.35,5.35,0,0,0,1.1-.6c.21,0,.31-.12.41-.25s.33-.11.42-.22.37-.11.52-.28.38-.09.49-.3.34-.18.5-.29A14.69,14.69,0,0,0,21.84,16c.26.06.34-.19.5-.29a3.36,3.36,0,0,1,.42-.22c.29-.15.58-.29.85-.45s.4-.08.51-.29.33-.18.5-.28.56-.3.85-.45l.42-.22c.14-.08.21-.23.4-.29a11,11,0,0,0,1.29-.63c.25-.12.57-.2.73-.47s.36-.12.52-.27a2.61,2.61,0,0,1,.5-.27c.16-.1.37-.12.53-.22a4.28,4.28,0,0,0,.45-.4s.08,0,.1,0l.44-.2c.25-.14.5-.29.76-.41a2.58,2.58,0,0,0,.91-.55c.08-.08.26-.07.34-.16a2.85,2.85,0,0,1,.6-.31c.22-.12.48-.22.68-.35a4.32,4.32,0,0,1,.58-.36l.85-.43c.26-.13.53-.24.77-.38s.4-.32.65-.44a4.24,4.24,0,0,0,.85-.43c.16-.13.4-.08.51-.29s.36-.18.48-.3.36-.15.53-.26a1.32,1.32,0,0,1,.69-.31c.29-.45.85-.48,1.22-.81.2,0,.3-.18.43-.19s.3-.22.43-.21c.36,0,.4-.49.76-.43.47-.35,1-.48,1.52-.83.33.05.39-.33.65-.42a6.22,6.22,0,0,0,.69-.33,1.23,1.23,0,0,0,.35-.15c.11-.11.29-.08.35-.15a4.48,4.48,0,0,1,1.15-.73c.16-.1.4-.08.5-.29.21.06.3-.18.43-.19s.33-.21.5-.32.28-.14.42-.22L50,.52l.2.18h1l.19.18h.82l.21.21h1.2l.3.23h1.21l.2.19h1.22l.24.22h1.43l.23.21h1l.18.18h.83l.2.21h1.2l.3.23h1.43l.19.2H65l.24.21h1.22l.23.21H68l.14.15c.2.11.4,0,.65.06l.24.18h1.38l.3.23h1.22l.19.2h1.43l.24.21H75l.23.21h1.24l.15.15c.18.13.4,0,.61,0l.29.22h1.42l.22.22h1.24l.19.19h1.23l.23.21h1.43l.2.19c.32.06.69,0,1.06,0l.19.18h.82l.21.2h1.2a2.12,2.12,0,0,0,.24.2.58.58,0,0,0,.19,0c.38.22.58.64,1,.85a5.31,5.31,0,0,1,1,.8h.17l.88.88c.21.21.52.26.72.51a1.09,1.09,0,0,0,.71.52s0,.05.07.07c.33.22.47.69.94.73l.81.81H94l.4.43c.19.2.39.39.59.59.32,0,.44.27.64.44s.34.41.65.44c.08,0,.14.15.22.21.26.2.38.59.79.59.24.24.45.58.74.71.48.21.72.71,1.17.92s.66.69,1.07.91a5.7,5.7,0,0,1,1.1.92,1.69,1.69,0,0,1,.33.12,5.45,5.45,0,0,0,1,.83c.35.17.59.56.89.85s.42.16.58.36a5.22,5.22,0,0,0,.58.57c.3,0,.39.24.56.39s.33.37.52.5c.35.24.41.7.73.94s.38.71.73.94a.49.49,0,0,0,.22.43c.36.26.47.72.79,1s.44.75.82,1a1.51,1.51,0,0,0,.35.58,2.06,2.06,0,0,0,.45.64c.21.14.24.38.37.57s.32.31.38.57a1,1,0,0,0,.43.44c.17.11.08.32.21.43.46.36.64.95,1.1,1.3,0,0,.07.05.07.08,0,.33.34.4.4.65a.5.5,0,0,0,.19.34c.41.31.52.86.94,1.16.06,0,.13.11.12.16,0,.36.48.4.42.76.22.16.18.48.4.67s0,.26,0,.39l.22.23v.62c.33.14.08.52.3.7s0,.57.3.71v.61l.21.24v.39l.22.23v.41l.16.17c0,.27.2.53.23.8s.34.51.23.85.29.44.21.74.28.29.2.53.17.3.19.44a1.28,1.28,0,0,0,.21.64c.09.14,0,.38.17.55s-.06.49.23.63l0,.64.18.22V45l.22.24v.4l.21.23v.6c.07.09.21.19.19.24-.13.34.21.54.23.84s.24.53.25.83c0,.05.09.1.14.16v.6l.22.23v.41L120,50v.4c.35.14.08.53.3.71s0,.57.33.71v1.69l.19.19v3.71l.21.23v4.54l.12.12s.08.08.08.1c0,1.66,0,3.31,0,5l.19.2v2.06l.22.22V72a.47.47,0,0,1-.11.26c-.2.2,0,.57-.3.71v.62l-.21.23v.61l-.21.23V75l-.2.23v.57l-.19.24-.06.66c-.31.16,0,.62-.37.77v.62l-.21.23v.41l-.18.18v.62l-.23.23a3.44,3.44,0,0,1,0,.55c0,.19-.23.3-.22.54s-.16.28-.18.43,0,.41-.21.54v.61l-.21.23v.62l-.19.19,0,.43-.19.22c0,.28.11.58-.18.78l-.05.65-.18.21v.55a9.16,9.16,0,0,0-.86,1.55c-.35.27-.44.71-.68,1s-.37.69-.59,1a3.17,3.17,0,0,0-.57,1c-.34.24-.4.69-.72.94a.37.37,0,0,0-.1.17,5.22,5.22,0,0,1-.6,1A5,5,0,0,1,113,94c-.08.08-.08.24-.16.34s-.18.2-.15.35c-.48.35-.51,1-.93,1.38a1.15,1.15,0,0,0-.3.59c0,.3-.36.37-.45.65a1.14,1.14,0,0,1-.36.67c-.17.13-.18.36-.3.49s-.14.44-.34.6a1.13,1.13,0,0,0-.37.56,1.75,1.75,0,0,1-.37.58,1.83,1.83,0,0,0-.3.59c-.06.26-.38.34-.4.55s-.33.37-.38.57-.23.33-.25.52-.39.35-.4.55-.21.33-.24.54-.46.39-.45.74c-.21.21-.28.5-.49.73s-.2.57-.4.75a2.61,2.61,0,0,0-.47.75c-.14.23-.21.42-.5.54a1.53,1.53,0,0,0-.82.53c-.45.17-.85.44-1.28.65a5.94,5.94,0,0,0-1,.57,5.46,5.46,0,0,1-.93.49,6.14,6.14,0,0,0-.92.54,1.11,1.11,0,0,1-.69.31c-.1.21-.36.15-.5.29s-.39.09-.5.29-.33.2-.49.3-.57.29-.86.43-.53.24-.77.38a4.94,4.94,0,0,1-.65.44c-.29.13-.57.28-.86.42s-.53.24-.77.39a5.23,5.23,0,0,1-.65.43,4.57,4.57,0,0,0-.85.44c-.16.12-.38.09-.51.28s-.2.28-.41.24c-.46.35-1,.48-1.52.83-.33,0-.38.34-.65.42a6.22,6.22,0,0,0-.69.33c-.24.1-.43.29-.7.3a3.17,3.17,0,0,1-1.15.73,5,5,0,0,0-.77.38,4.07,4.07,0,0,1-.65.43,8.84,8.84,0,0,0-1.36.72c-.37-.08-.41.45-.76.41-.33.27-.78.32-1.08.62-.38-.09-.42.44-.76.42-.54.27-1.07.57-1.63.81-.23.1-.33.34-.55.43s-.36.12-.53.21-.39.22-.59.32-.27.07-.35.15c-.32.41-.84.49-1.24.76a2.81,2.81,0,0,1-.86.4c-.31.08-.38.51-.75.45-.25.28-.65.27-.93.51s-.39.08-.5.29-.34.18-.49.3-.67.25-.94.5c-.08.07-.26,0-.4,0l-.24-.21h-1l-.23-.22H69l-.15-.14s0-.06-.08-.06c-.41,0-.82,0-1.23,0l-.2-.2c-.46,0-1,0-1.46,0l-.2-.19H64.44l-.22-.22H63.4l-.19-.19H62l-.23-.22H60.51l-.1-.11c-.07-.05-.09-.09-.12-.09H59.06l-.2-.2c-.46,0-1,0-1.46,0l-.2-.2H56l-.22-.22h-.82l-.19-.19h-1l-.24-.21H52.23l-.11-.12s-.08-.08-.1-.08H50.58l-.19-.19H49.15l-.22-.22H47.69l-.22-.22H46.23l-.19-.19h-.82l-.23-.21H43.76l-.18-.18H42.34l-.22-.22H40.67l-.22-.22H39.21l-.2-.2H38l-.24-.21H37l-.23-.21H35.28l-.18-.18h-.62c-.24-.24-.4-.52-.63-.6a2.06,2.06,0,0,1-.64-.46c-.2-.17-.33-.44-.65-.45-.05,0-.09-.1-.14-.14-.38-.27-.56-.79-1.09-.88l-1-1c-.44,0-.57-.42-.83-.61s-.49-.34-.72-.52-.41-.55-.79-.58a3.8,3.8,0,0,0-.74-.71,4.32,4.32,0,0,1-.72-.53c-.25-.21-.38-.58-.77-.6a4.6,4.6,0,0,0-.92-.8c-.39-.2-.56-.64-.92-.78a2.35,2.35,0,0,1-.91-.76c-.24-.26-.58-.33-.82-.56s-.37-.59-.78-.61c-.05,0-.09-.09-.15-.13-.3-.21-.46-.56-.84-.72s-.47-.51-.76-.66a6.31,6.31,0,0,1-1.3-1.11c-.49-.13-.72-.58-1.08-.88-.5-.06-.65-.57-1.09-.82l-.22-.06c0-.41-.44-.61-.58-1s-.44-.32-.5-.62-.3-.35-.43-.54a2.3,2.3,0,0,0-.38-.56c-.23-.18-.2-.49-.42-.67a1.31,1.31,0,0,1-.45-.53c-.08-.24-.33-.41-.51-.61,0,0-.07-.06-.07-.08,0-.33-.37-.42-.41-.65a.76.76,0,0,0-.33-.49,2.07,2.07,0,0,1-.44-.65c-.13-.23-.46-.31-.49-.62s-.43-.32-.43-.65a.65.65,0,0,0-.32-.38C10,96.5,10,96.18,9.8,96a1.92,1.92,0,0,1-.54-.71c-.08-.24-.36-.4-.56-.59.09-.38-.38-.42-.43-.76s-.5-.43-.6-.78-.39-.46-.62-.75a3.21,3.21,0,0,1,0-.44c0-.21-.19-.27-.21-.43s.06-.34-.11-.47-.06-.32-.1-.5l-.2-.21v-.57L6,89.06v-.5c0-.19-.29-.29-.21-.53s-.19-.27-.2-.43,0-.42-.2-.55v-.61l-.21-.23v-.4L5,85.58v-.39c-.08-.09-.2-.18-.2-.25a1.21,1.21,0,0,0-.2-.64c-.07-.18,0-.37-.18-.56s0-.39-.05-.62l-.19-.22v-.39L4,82.28v-.41l-.22-.22v-.41l-.15-.15c-.14-.16.06-.41-.14-.56s-.1-.31-.11-.47,0-.27-.11-.37,0-.57-.3-.7v-.62l-.21-.23v-.35l-.42-.73a1.81,1.81,0,0,1,0-.4c0-.2-.18-.27-.21-.43s0-.31,0-.39a.65.65,0,0,1-.17-.45A1.76,1.76,0,0,0,1.68,75v-.52l-.22-.23v-.4l-.21-.23V71.73l-.19-.19V68L.84,67.8V63.46l-.19-.19V59.36l-.22-.25V54.38s0-.05.06-.08c.15.17.15.17.15.69v.82L.79,56s0,0,0,.08v4.32l.2.2v3.93l.2.2V68l.21.26c.07.21-.08.49.11.74.2-.25.08-.5.11-.73L1.88,68V65.94L2,65.8s.05-.06.05-.08c0-.69,0-1.38,0-2l.18-.18V61.25L2.5,61V59.12l.2-.2v-2l.21-.24v-2l.21-.23ZM98.88,87.66c0-.3-.19-.38-.3-.49s-.12-.46-.36-.58-.13-.36-.29-.5-.44-.32-.48-.52a1,1,0,0,0-.33-.48c-.15-.18-.15-.43-.36-.59s-.34-.22-.37-.46-.3-.35-.44-.54-.17-.15-.17-.23c0-.3-.36-.36-.39-.56s-.3-.44-.46-.64a.93.93,0,0,1-.21-.33c0-.15-.21-.26-.3-.4s-.13-.29-.22-.42-.43-.32-.47-.52a.91.91,0,0,0-.41-.55c-.21-.16-.17-.44-.36-.58s-.23-.4-.38-.57a3.19,3.19,0,0,1-.43-.65c-.12-.23-.45-.32-.51-.61s-.36-.4-.51-.62c0-.06-.12-.11-.11-.16,0-.33-.38-.37-.42-.65s-.34-.41-.49-.63-.08-.17-.13-.25-.22-.26-.31-.39-.13-.29-.22-.43S89,74,88.94,73.7s-.28-.38-.44-.54-.19-.51-.44-.65-.1-.31-.21-.43-.3-.29-.44-.44-.12-.1-.11-.15c0-.34-.39-.38-.42-.66s-.35-.4-.49-.62-.08-.18-.14-.26-.21-.25-.3-.39-.14-.29-.23-.42-.44-.32-.5-.62-.28-.37-.45-.53-.2-.49-.43-.66-.15-.51-.44-.64-.26-.54-.51-.71-.23-.57-.51-.72-.31-.51-.51-.73-.31-.51-.52-.7-.3-.52-.51-.73a1.54,1.54,0,0,1-.3-.49c-.11-.21-.34-.34-.5-.52s-.09-.39-.29-.5-.2-.48-.44-.65a1.33,1.33,0,0,1-.45-.63.37.37,0,0,0-.41-.26c-.14.12-.31.21-.36.45a1.17,1.17,0,0,1-.31.58c-.19.2,0,.5-.21.64-.38.81-.81,1.6-1.17,2.41-.32.15-.06.5-.27.72a3.09,3.09,0,0,0-.39.77c-.12.26-.24.52-.37.77a3.11,3.11,0,0,0-.37.78c-.36.15-.08.57-.34.8s-.19.39-.28.6a4.85,4.85,0,0,0-.26.51,2.49,2.49,0,0,1-.35.58c.11.27-.33.35-.22.63-.36.15-.09.57-.35.79s-.16.41-.27.6a3.05,3.05,0,0,1-.27.51c-.15.18-.1.47-.35.58.1.24-.24.32-.2.54s-.1.36-.2.54a4.06,4.06,0,0,0-.22.52,5.6,5.6,0,0,1-.33.59c-.1.16-.08.4-.29.5.1.27-.31.36-.22.63-.2.11-.13.38-.29.5s0,.45-.21.65a1.11,1.11,0,0,0-.3.59c0,.2-.23.29-.24.53s-.26.37-.34.57-.24.35-.24.51a1.48,1.48,0,0,1-.22.64c-.21.43-.4.87-.63,1.29-.12.23-.16.5-.38.67.06.26-.29.37-.24.63-.31.15-.12.5-.27.71s-.21.47-.35.68-.17.5-.38.67c.06.26-.29.37-.24.63-.32.15-.12.49-.27.71s-.21.47-.35.68-.17.5-.38.67c.06.26-.29.37-.24.63-.32.15-.12.49-.27.71s-.22.46-.35.68-.2.4-.31.6l-.31.59c-.09.2-.13.47-.28.6s-.08.44-.2.65c-.32.55-.59,1.13-.89,1.69a.29.29,0,0,0,0,.38h1.08l.2-.2h.83l.18-.18c.44,0,.88,0,1.27,0l.19-.19h1l.23-.21h1l.24-.22h.81l.19-.19H71l.3-.23h1l.17-.17c.43,0,.88,0,1.27,0l.19-.19h.72a.64.64,0,0,0,.18-.06L75,91.9h1.23l.19-.19h.82l.22-.22h.6l.3-.23h1l.19-.19h1s.06,0,.08,0l.15-.15h1l.23-.21h1.22l.24-.22h1c.15-.28.43-.16.61-.22l.26-.2h1l.17-.17c.36-.06.74,0,1.07,0l.18-.18c.37,0,.74,0,1.06,0l.2-.18h1.23l.23-.22h.8l.25-.21h.58l.26-.21h1l.2-.21h1l.19-.19c.33,0,.68,0,1,0,0,0,0,0,.11-.09l.11-.11h1.24l.23-.22h.74ZM79,58.5v-.62l.21-.23v-.39l.19-.22,0-.63c.31-.15.07-.52.29-.71s0-.53.14-.77l.16-.15v-.61l.21-.22v-.41l.21-.23V52.7l.08-.08c.26-.17,0-.55.29-.71,0,0,0-.19,0-.29s-.06-.34.11-.47,0-.4.15-.56l.15-.15v-.61l.21-.23v-.4l.21-.23v-.62c.35-.15.05-.61.38-.78l0-.65.19-.25v-.56l.2-.23v-.39l.21-.23v-.61l.21-.23V44l.19-.22,0-.64c.32-.14.07-.52.29-.71s0-.53.15-.76l.15-.15v-.61l.21-.23V40.3l.22-.23v-.61c.33-.14.08-.52.3-.71s.09-.23.1-.37-.06-.34.11-.47,0-.39.15-.56l.12-.12c.09-.25,0-.5.11-.74l.13-.12v-.62l.22-.23v-.39l.2-.23a3.05,3.05,0,0,0,0-.43c0-.16.11-.23.17-.35s0-.27,0-.39a1.31,1.31,0,0,1,.2-.3v-.56l.2-.22v-.4l.21-.23v-.61l.22-.23v-.61c.23-.13.19-.34.2-.55s.27-.23.2-.43.17-.34.21-.52-.05-.42,0-.61l.12-.12c.1-.25,0-.5.12-.75l.13-.11v-.41l.23-.26c-.12-.2.08-.46-.12-.66a1.35,1.35,0,0,0-.69,0l-.15.15H86l-.23.21h-1l-.24.22h-.6l-.2.19h-1l-.22.22h-1l-.22.22h-1l-.18.18h-1l-.23.21h-1l-.24.22h-.6l-.2.19h-1l-.22.22h-1l-.21.22h-1l-.18.18h-1l-.23.21h-1l-.25.22h-.6l-.19.19h-1l-.22.22h-1l-.22.22h-1l-.18.18h-1l-.23.22h-1l-.24.21h-.6l-.19.19h-1l-.3.23h-1l-.18.19h-1s0,0-.08.06l-.14.14h-1l-.23.22h-1l-.24.21h-.6l-.19.19h-1l-.27.21h-1l-.22.19-.79,0c.14.22-.05.43.16.6h.21l25.8,25.79s.12,0,.18.06S78.88,58.6,79,58.5ZM45.33,65.71a6.48,6.48,0,0,0,.48.91c.21.23.26.54.5.74,0,.35.36.45.45.74a1.76,1.76,0,0,0,.29.6,5.58,5.58,0,0,1,.44.64c.12.2.25.38.37.57s.08.4.27.51.23.4.37.57.08.4.29.5.17.45.37.57.24.55.49.73c0,.38.5.46.45.85.22.1.11.38.3.49s.21.44.37.56.26.55.5.74c0,.35.41.44.44.74s.3.29.22.53a2.87,2.87,0,0,1,.4.46c.12.19.14.44.27.61a1.8,1.8,0,0,1,.43.65c.28.15.29.51.51.72,0,.34.36.46.45.74a2.87,2.87,0,0,0,.62,1c0,.26.2.39.27.62s.37.37.41.65c.31.22.38.6.57.9a7.16,7.16,0,0,1,.62,1c0,.08.06.21.13.25.3.16.24.54.5.73s.28.5.4.76a.44.44,0,0,0,.12.15c.41.39.47,1,.91,1.38,0,.3.37.37.38.56s.34.36.25.63c0,0,0,.06.06.08.31.23.37.61.57.9a10.55,10.55,0,0,1,.59.89c.06.11,0,.27.16.35s.23.39.36.57.3.24.34.49a1,1,0,0,0,.33.57,1.62,1.62,0,0,1,.35.59,1.9,1.9,0,0,0,.66.82,1.86,1.86,0,0,0,.49-.83c.08-.17.23-.29.26-.51s.24-.38.35-.58,0-.37.13-.57c.38-.66.66-1.38,1.05-2,.12-.19,0-.43.14-.56s.09-.34.22-.42.14-.36.27-.52a8.45,8.45,0,0,0,.44-.85,6.88,6.88,0,0,0,.38-.77c.12-.29.37-.55.29-.91.21-.1.18-.34.29-.5s.23-.39.33-.59a2,2,0,0,1,.22-.52c.16-.18.14-.45.33-.6s0-.38.14-.56a2.39,2.39,0,0,0,.34-.58,3.73,3.73,0,0,1,.26-.61,7.45,7.45,0,0,0,.36-.68c.12-.19.14-.46.3-.59s0-.49.21-.65.11-.36.28-.51a.87.87,0,0,0,.24-.51c0-.22.3-.3.22-.53.19-.12.15-.37.28-.5s.1-.38.28-.51,0-.37.14-.56c.21-.35.38-.74.56-1.11a7.13,7.13,0,0,1,.54-1,10.6,10.6,0,0,0,.46-1.15c.24-.42.42-.86.63-1.29a6.13,6.13,0,0,0,.41-.86c.34-.2.06-.68.41-.87a6.07,6.07,0,0,1,.52-1.13c.16-.41.43-.78.58-1.2.31-.15,0-.56.29-.71.23-.66.68-1.23.89-1.9.33-.17.08-.6.35-.79.23-.66.68-1.23.89-1.9.33-.17.08-.59.35-.79.18-.51.5-1,.71-1.51l-.31-.33-.23.22h-1l-.22.22h-1l-.22.22h-.82l-.18.18h-1l-.23.22h-.82l-.19.18h-.82l-.22.22H69.82l-.22.22h-.83l-.22.22h-1l-.19.18h-1l-.23.22h-.61l-.24.21h-1l-.19.19H62.79l-.22.22h-.83l-.18.18c-.37.05-.74,0-1.07,0l-.19.18h-.82l-.23.22h-.81l-.23.21h-1l-.19.19H56l-.3.24h-1l-.17.16c-.37.05-.74,0-1.08,0l-.18.18h-.82l-.23.22h-.81l-.23.21h-1L50,64.8h-1l-.21.22h-1l-.22.22h-.82l-.19.18c-.3,0-.6,0-.84,0ZM57,63h.83l.22-.22h.81l.24-.21h1.22l.2-.19h1l.22-.22h1l.22-.22h.83l.18-.18h.83l.22-.22h.81l.24-.21h1l.19-.19h1.22l.29-.23h1l.2-.21h.83l.18-.18h.82l.23-.22h.81l.24-.21h1l.19-.19h1l.29-.23h1l.19-.19h.49c.2,0,.4,0,.52-.13l.36-.15-1-1-.88-.87-1-.95-.95-1-.88-.88-1-.95-.95-1-1-.95-.87-.87-1-.95-.95-1L67.05,48l-1-.95-.95-1-.88-.88-.94-1-.95-.94-.88-.88-1-1-.95-.95-1-1-.88-.88c-.31-.31-.62-.64-1-.94a3.88,3.88,0,0,0-1-.87,3.89,3.89,0,0,1-.9-.82c-.33-.3-.64-.63-.95-1l-1.61-1.6-.09-.26L51.8,33l-.29.56v.76l-.21.23v.8l-.2.23v.94a.36.36,0,0,1,0,.1l-.16.16-.06.88c-.33.17,0,.63-.4.8v.85l-.19.18v1l-.21.23v.81l-.21.23v1l-.21.25v.81c-.35.16,0,.63-.42.8v.85l-.19.18v1l-.21.23v.81l-.21.24v.81l-.19.19v.83L48.2,50v.62l-.22.22v.83c-.08.09-.13.13-.18.18,0,.3,0,.61,0,.86l-.19.18v1l-.21.23V55l-.19.19V56l-.24.29v.58l-.2.21v.82l-.22.22v.83l-.18.18v.82l-.21.23v1l-.19.19v.83l-.22.22v.62l-.22.22v.82l-.18.19a1.44,1.44,0,0,0,0,.71h.89l.19-.19h1l.22-.21h1l.18-.19c.3,0,.6,0,.86,0l.18-.19h.83L51,64h1l.19-.19h1l.22-.21h1l.22-.22h1l.21-.22h.83C56.9,63,56.94,63,57,63ZM26.6,89h1.23l.23.22h1l.24.21h1.22l.2.19H32l.22.22h1.24l.18.19c.44,0,.88,0,1.27,0a1.64,1.64,0,0,0,.19.19h1.24l.23.22h1l.24.21H39l.2.19h1.24l.22.22h1l.2.2h1.42s.06,0,.08.06l.15.15h1l.23.21H46l.24.21h1.22l.19.19h1l.22.22h1.24l.2.2H51.8s.05,0,.08.06l.15.15h1l.23.21h1.22l.24.21h1l.2.19h1.21l.3.24h1.2l.17.17c.44,0,.88,0,1.27,0l.19.19h1l.4.3c.08-.23.32-.26.35-.49,0-.07,0-.16-.07-.18-.33-.21-.33-.66-.65-.87s-.09-.4-.29-.5c0-.24-.18-.34-.29-.5a6,6,0,0,0-.51-.73c-.14-.15-.15-.41-.27-.6s-.14-.4-.26-.51a5.56,5.56,0,0,1-.7-1c-.25-.31-.33-.77-.68-1,.08-.24-.21-.32-.21-.53s-.38-.32-.4-.55-.23-.33-.34-.49-.14-.29-.22-.42-.09-.39-.29-.51-.15-.31-.23-.4-.12-.39-.28-.52-.24-.4-.38-.56a6.19,6.19,0,0,1-.56-.91,8.2,8.2,0,0,1-.61-1c0-.08-.07-.21-.13-.25-.29-.13-.22-.48-.44-.65,0-.35-.35-.46-.46-.74a2.36,2.36,0,0,0-.28-.6,2,2,0,0,1-.43-.65c-.3-.15-.27-.53-.51-.72,0-.37-.36-.45-.45-.75a3.88,3.88,0,0,0-.81-1.31c-.17-.21-.16-.52-.42-.66.09-.38-.4-.41-.43-.76a1,1,0,0,0-.31-.58,2.2,2.2,0,0,1-.37-.58c-.1-.19-.38-.28-.35-.57-.21-.11-.14-.37-.3-.5a1.56,1.56,0,0,1-.37-.57,1.57,1.57,0,0,0-.5-.72c0-.29-.3-.43-.43-.66a4.94,4.94,0,0,0-.39-.76c-.15-.18-.22-.4-.36-.57s-.14-.43-.35-.59a1.59,1.59,0,0,1-.36-.57c-.06-.11,0-.27-.16-.34-.3-.15-.24-.54-.5-.73s-.28-.57-.45-.84A1.85,1.85,0,0,0,45,66l-.42,0s-.05,0-.08.07v.18c-.33.48-.88.75-1.11,1.32a1.86,1.86,0,0,1-.65.66c-.27.18-.28.51-.5.73a4.65,4.65,0,0,0-1,1.14,2.66,2.66,0,0,1-.72.74c-.29.23-.38.61-.65.87A4.41,4.41,0,0,0,39,72.86a2.5,2.5,0,0,1-.72.73c-.3.24-.39.62-.65.88a3.59,3.59,0,0,0-.9,1.07c-.08.21-.33.34-.49.52s-.47.31-.44.65l-.51.51c-.17.17-.35.33-.51.51s0,.14,0,.21c-.22.22-.43.45-.67.65a4.39,4.39,0,0,0-.51.71,4.57,4.57,0,0,1-.65.67,4.5,4.5,0,0,0-.6.78,8,8,0,0,0-1,1.23,1.72,1.72,0,0,1-.58.59c-.28.18-.27.52-.5.73a8.07,8.07,0,0,0-.59.58c-.16.17-.39.33-.46.53s-.32.43-.5.62a4,4,0,0,0-.44.64,6.7,6.7,0,0,1-.64.67c-.17.21-.4.34-.52.61a2.51,2.51,0,0,1-.58.69c-.22.22-.46.42-.66.6,0,.23-.06.41.12.55h.4ZM47.79,50.64v-.82l.21-.23v-.82l.19-.19v-.82l.22-.22v-.83l.22-.22v-.83l.22-.22v-.83l.18-.17v-.83l.21-.23v-.81l.19-.19v-.83l.22-.22v-.62l.22-.22v-1l.19-.18c0-.3,0-.61,0-.87l.19-.17v-.62l.22-.24v-.81l.19-.19v-.83l.22-.22v-.82l.18-.19c.06-.36,0-.74,0-1.08.18-.17.18-.17.1-.26h-.7c-.12.27-.38.34-.61.46a7,7,0,0,1-.94.48c-.36.13-.56.43-.91.56a3.11,3.11,0,0,0-1,.55c-.37-.07-.41.46-.76.41-.47.35-1.06.48-1.52.83-.37-.07-.4.47-.76.41-.47.35-1.06.48-1.52.83-.21,0-.32.11-.41.24s-.35.16-.51.28a4.9,4.9,0,0,1-.85.44,4.58,4.58,0,0,0-.65.43,7.85,7.85,0,0,1-.77.38l-.86.43a5.65,5.65,0,0,0-.58.36,2.28,2.28,0,0,1-.68.34c-.21.07-.39.24-.59.33a3.25,3.25,0,0,0-.77.38,5,5,0,0,1-.91.54,2.66,2.66,0,0,0-.6.32c-.14.13-.36.13-.5.29a2.24,2.24,0,0,1-.57.37,4.16,4.16,0,0,1-.52.25c-.2.09-.41.16-.61.27s-.23.33-.47.35-.31.21-.52.25-.38.32-.58.33-.36.32-.63.24c-.44.52-1.13.62-1.65,1a1.26,1.26,0,0,0-.69.31,4.27,4.27,0,0,1-.92.54,5.48,5.48,0,0,0-1,.55,4.14,4.14,0,0,1-.84.48,7.65,7.65,0,0,1-1.29.62,2.07,2.07,0,0,1-.89.6,5.76,5.76,0,0,1-1,.48c-.1.21-.38.1-.5.29a1.54,1.54,0,0,1-.74.47,8.25,8.25,0,0,1-.95.45.45.45,0,0,0-.35.45.92.92,0,0,0,.43.37c.42.17.79.44,1.21.6a.84.84,0,0,1,.39.29c.13.18.36.12.52.27a2.15,2.15,0,0,0,.5.27c.16.1.37.12.53.22s.28.34.45.39c.42.11.73.4,1.13.53.28.41.82.4,1.15.72.06.06.22,0,.27.09a3,3,0,0,0,.91.55,6.25,6.25,0,0,1,.93.48,4.1,4.1,0,0,0,.92.54c.36.17.66.43,1,.62s.89.37,1.28.64a12.07,12.07,0,0,0,1.25.74c.2.11.44.15.57.37s.4.08.5.29c.26-.06.36.28.63.25,0,0,.09.08.15.11s.19.28.4.3a1.29,1.29,0,0,1,.43.2,10.43,10.43,0,0,1,1.09.6c.1.08.16.21.32.24a2.09,2.09,0,0,1,.44.19,10.33,10.33,0,0,0,1,.45c.5.59,1.35.65,1.88,1.2.12.13.35.14.53.22s.24.19.43.22.3.26.45.4c.24-.09.32.21.53.21s.31.25.52.24c.11.2.37.13.51.28s.23.37.49.3c.37.33.93.36,1.22.8.26-.07.37.3.49.27l.46-.3c0-.42,0-.42.2-.66v-1l.22-.23v-.61l.21-.23v-.82l.19-.18v-.83l.22-.22v-.83l.22-.22v-.82l.19-.19v-1l.21-.24V56l.21-.22V55l.19-.19V54l.22-.22v-.82l.22-.22v-.83l.22-.22v-.83ZM42.1,91.49H40.87l-.23-.22H39.41l-.19-.19h-.83l-.22-.22h-1l-.22-.21H35.47l-.22-.22H34l-.18-.19H32.59L32.36,90H30.94l-.25-.21h-.58l-.26-.21H28.64l-.2-.21H27l-.19-.18h-.64l-.26.31.59.62c-.08.37.39.42.43.76s.53.42.6.78.49.38.44.75a2.46,2.46,0,0,1,.5.52,2.56,2.56,0,0,0,.45.64.85.85,0,0,1,.28.4c0,.17.29.29.36.47s.08.32.24.41.17.35.29.5.45.38.52.61a1.15,1.15,0,0,0,.44.54c.22.18.16.52.43.66s.15.36.29.5l.51.51c0,.33.36.41.41.65s.4.46.53.72.3.43.43.65a1.94,1.94,0,0,0,.46.63c.22.14.2.41.36.58l.51.51c-.06.34.37.4.4.66s.25.41.42.54.16.53.43.66.15.36.29.5l.51.51c-.07.37.39.43.44.75s.51.45.6.78.39.46.57.7c0,.08,0,.22.08.27.38.3.46.83.87,1.09a.34.34,0,0,1,.15.36c.38.28.47.81.87,1.08a.41.41,0,0,1,.15.25c0,.32.5.38.44.75,0,0,.05,0,.07.07a2.4,2.4,0,0,1,.51.61c.11.29.37.4.51.62s.08.18.14.26a3.92,3.92,0,0,1,.37.46c.07.15.07.33.23.42s.18.35.29.5.46.38.53.61a1,1,0,0,0,.43.54c.23.18.19.49.42.67s.21.41.38.55.16.43.35.56h.41c.18-.18.37-.34.52-.52s.21-.42.38-.56.21-.48.42-.66.47-.31.44-.64c.2-.2.47-.36.57-.6a1,1,0,0,1,.39-.55c.27-.16.22-.48.43-.66a1.59,1.59,0,0,0,.45-.53,1,1,0,0,1,.36-.47c.2-.16.21-.42.37-.57a2.86,2.86,0,0,0,.44-.65c.14-.26.53-.34.5-.72a3,3,0,0,0,.6-.69c.12-.27.35-.4.5-.62a2.7,2.7,0,0,1,.51-.72.57.57,0,0,0,.26-.41c0-.26.46-.31.41-.65,0,0,0,0,.06-.08a3,3,0,0,0,.61-.78c.13-.31.51-.5.65-.87s.35-.4.54-.6c-.06-.36.48-.4.41-.76.19-.2.46-.37.55-.6a2.36,2.36,0,0,1,.53-.71c.22-.25.27-.62.59-.79s.15-.36.29-.5l.51-.51c-.07-.4.51-.46.44-.86.23-.27.6-.45.66-.86.44-.28.54-.85,1-1.15.21-.16.19-.42.36-.58s.33-.35.5-.52c-.07-.36.46-.4.41-.76l.62-.68c0-.15.07-.33-.12-.51H60.7l-.18-.18c-.51,0-1,0-1.47,0l-.2-.2H57.62l-.23-.22h-1l-.19-.18h-.83l-.22-.22H53.89l-.22-.22H52.22A1.49,1.49,0,0,0,52,93c-.44,0-.88,0-1.27,0-.09-.1-.14-.14-.19-.19H49.34l-.22-.22H47.89l-.19-.18h-.83l-.22-.22H45.41l-.22-.22H44l-.18-.19c-.51,0-1,0-1.47,0ZM19.46,47.13v.41l-.22.22v.6l-.21.25v.6l-.16.16c0,.19-.13.39.12.58l1.52-.77a3.36,3.36,0,0,0,.42-.22c.16-.12.25-.34.5-.29.32-.29.76-.36,1.09-.61.35,0,.38-.51.76-.42.47-.34,1-.52,1.52-.82.34,0,.38-.51.76-.42.47-.34,1-.52,1.52-.83.34,0,.38-.5.76-.41.31-.3.75-.36,1.08-.62.35,0,.39-.49.76-.41.47-.36,1-.5,1.52-.83.35,0,.39-.5.76-.41.26-.26.64-.31.92-.51s.44-.15.59-.36.45-.24.67-.37.4-.18.6-.3a3.25,3.25,0,0,0,1.14-.72c.27.09.36-.32.64-.23.11-.24.41-.17.58-.35s.31-.07.42-.22.2-.29.41-.25c.47-.35,1-.48,1.52-.83.21,0,.32-.12.41-.25s.35-.15.51-.28a4.84,4.84,0,0,1,.85-.43,6.16,6.16,0,0,0,.65-.44c.24-.15.51-.25.77-.38a5.19,5.19,0,0,0,.93-.5c.37.07.4-.46.76-.41.47-.35,1.05-.48,1.52-.83.21.05.32-.1.41-.24s.35-.15.51-.28a4.52,4.52,0,0,1,.85-.43,6.69,6.69,0,0,0,.65-.44c.25-.14.51-.26.77-.38s.68-.36,1-.49c.18-.07.25-.23.39-.31a4.11,4.11,0,0,1,.42-.21V32c-.11,0-.28,0-.35-.13-.19-.24-.51-.31-.71-.51s-.53-.27-.75-.47c-.35.05-.39-.48-.76-.41-.14-.14-.28-.37-.45-.4s-.36-.33-.57-.38a1.59,1.59,0,0,1-.57-.38c-.18-.13-.39-.2-.58-.35a3.62,3.62,0,0,0-.76-.39c-.26-.14-.38-.5-.69-.57s-.21-.16-.33-.22-.2,0-.27-.08a1.43,1.43,0,0,0-.57-.38c-.18,0-.3-.31-.47-.35s-.35-.4-.55-.41-.37-.33-.63-.25a2,2,0,0,0-.64-.46c-.22-.09-.38-.35-.65-.41-.16-.3-.54-.28-.72-.52s-.5-.2-.64-.44-.49-.19-.66-.43-.5-.27-.75-.41c-.06,0-.14-.06-.16-.11-.16-.29-.55-.26-.72-.51s-.5-.18-.66-.43-.54-.23-.72-.51-.39-.09-.49-.3-.34-.19-.5-.29a6.65,6.65,0,0,1-.66-.42,7.23,7.23,0,0,0-.64-.44c-.22-.14-.42-.32-.65-.44a2.76,2.76,0,0,1-.56-.38c-.17-.15-.43-.15-.57-.37s-.45-.13-.58-.35c-.3,0-.36-.32-.57-.36s-.44-.29-.64-.46c-.33,0-.41-.38-.65-.4s-.39-.37-.57-.41h-.73v.67l-.22.25c0,.23,0,.49-.05.62s-.11.38-.18.55a1.27,1.27,0,0,0-.2.65c0,.07-.12.15-.19.24s.05.46-.07.69l-.15.13v.62l-.21.23v.39l-.18.22c0,.23,0,.5-.06.63a.65.65,0,0,0-.16.55c.05.24-.19.35-.2.54s0,.41-.21.54v.41l-.22.23v.6l-.21.24v.61c-.33.14-.09.52-.3.71s0,.53-.15.76l-.14.15,0,.46-.18.18V30l-.21.23v.4l-.21.23v.6l-.2.23c0,.16,0,.3,0,.43s-.11.23-.17.35,0,.27,0,.39a1.34,1.34,0,0,1-.2.29v.57l-.21.22v.4l-.21.23v.62c-.22.12-.19.33-.21.54s-.25.29-.21.53a.63.63,0,0,1-.15.56c-.11.13,0,.39-.06.63l-.18.21,0,.44-.19.18v.41l-.21.23v.6l-.22.24v.59l-.22.27c.2.45-.24.79-.23,1.23,0,0-.09.09-.15.15v.61l-.21.23v.4l-.21.23v.39l-.22.25v.6l-.19.19v.59l-.21.27v.57l-.19.22,0,.43Zm25,18.59a.44.44,0,0,0-.23-.41c-.14-.13-.36-.12-.51-.29a1.52,1.52,0,0,0-.56-.37c-.19-.07-.35-.17-.52-.25s-.46-.13-.6-.28a2.84,2.84,0,0,0-.91-.55c-.36-.17-.66-.42-1-.61s-.89-.38-1.28-.65a13.12,13.12,0,0,0-1.25-.73c-.11-.06-.27-.07-.35-.16a2.74,2.74,0,0,0-.91-.55c-.23-.11-.44-.26-.66-.39s-.16-.21-.33-.23a1.66,1.66,0,0,1-.43-.2,8.25,8.25,0,0,0-1-.45c-.51-.58-1.36-.64-1.88-1.2a7.5,7.5,0,0,1-1-.44,5.5,5.5,0,0,1-.9-.58,9.05,9.05,0,0,0-.94-.45,2.23,2.23,0,0,1-.89-.6c-.24.07-.32-.21-.53-.22a2.06,2.06,0,0,1-.52-.25c-.2-.08-.28-.4-.57-.36-.11-.2-.37-.15-.5-.29s-.4-.08-.5-.29-.39-.22-.58-.36-.57-.27-.85-.44a1.86,1.86,0,0,1-.51-.29,1.09,1.09,0,0,0-.56-.35c-.22,0-.33-.22-.52-.25s-.15,0-.18-.07a1.63,1.63,0,0,0-.65-.44c-.24-.08-.46-.22-.69-.32s-.32-.46-.66-.41c-.15-.24-.45-.25-.67-.4s-.53-.21-.76-.39c-.06-.05-.18,0-.26,0s-.08.08-.08.1V52.5l.21.24v1l.2.2v1l.22.22V56l.21.22v.82l.19.19v1l.21.23v1l.22.24v1l.19.19v1l.19.2,0,.65.21.21v.83l.18.18v1l.21.23v1l.22.24v1l.19.19v1l.22.22v.83l.22.21v.83l.18.18v1l.22.23v1l.21.24v1l.19.2v1l.22.22v.83l.22.22V78l.18.18V79l.22.23v1l.19.19v1l.22.22v1l.21.22v1l.19.18c0,.23-.05.48.07.7l.15.14v1l.21.23v1l.19.23c.05.25-.1.5.11.71h.22a2.81,2.81,0,0,0,.59-.79c.07-.2.32-.34.49-.51a8,8,0,0,0,.58-.59,6.1,6.1,0,0,1,.36-.58,3,3,0,0,0,.84-1,1.62,1.62,0,0,1,.64-.66c.3-.21.32-.57.57-.81A4.64,4.64,0,0,0,30.76,82a1.61,1.61,0,0,1,.58-.58c.27-.19.28-.52.5-.73a6.33,6.33,0,0,0,1-1.14c.23-.41.73-.65,1-1.05a7.67,7.67,0,0,1,1-1.15c0-.07,0-.16,0-.2.21-.23.44-.44.65-.66l.58-.59c0-.37.34-.48.53-.71s.34-.34.5-.52,0-.13,0-.2c.22-.22.46-.43.66-.66s.58-.39.6-.81a6.81,6.81,0,0,1,.72-.7c.29-.22.32-.58.57-.81a3,3,0,0,0,.84-1,1.83,1.83,0,0,1,.64-.66c.3-.2.32-.57.57-.8a5.78,5.78,0,0,0,1.12-1.29c.22-.37.68-.61.88-1S44.23,66.08,44.48,65.72Zm56.67,13.66c.36-.23.1-.6.21-.79l.2-.28v-.56l.2-.23v-.6l.22-.23v-.61l.21-.24v-.6l.19-.19v-.6l.24-.29v-.79l.17-.18v-.6l.22-.24v-.61l.21-.23v-.6l.21-.24v-.59l.2-.23a4.86,4.86,0,0,1,0-.54c0-.16.24-.23.21-.43a2.25,2.25,0,0,1,0-.45l.19-.2,0-.65.19-.19c0-.24,0-.48,0-.72,0-.06,0-.12.07-.17l.14-.16v-.6l.21-.24v-.59l.22-.26v-.56l.21-.28v-.58l.21-.2v-.62l.18-.19V61.4l.21-.23v-.39l.22-.25v-.6l.19-.19v-.62l.22-.22v-.83l.22-.22v-.62l.18-.18v-.82l.21-.23v-.4a.48.48,0,0,0,.11-.72H105.6l-.23.21h-1l-.23.21h-1l-.19.2h-1l-.22.22h-.82l-.22.22h-.83l-.18.18h-1l-.23.21h-1l-.24.22h-1l-.2.19H94.63l-.19.2h-1l-.25.21h-.39l-.23.21h-1l-.22.22h-1l-.24.21H88.83l-.2.19h-1l-.22.22h-.83l-.22.22H85.5l-.17.18h-1l-.23.22H83l-.19.19h-1l-.22.22H80.3c-.09.39-.43.08-.63.28s-.27.17-.23.45l.39.39a.73.73,0,0,1,.24.42c.05.17.27.29.42.44a1,1,0,0,1,.2.33c.08.21.32.36.38.56s.39.34.41.55.26.39.4.57a.86.86,0,0,1,.25.41c.05.25.45.32.41.66,0,0,0,0,.07.07.18.2.45.38.52.61a1.09,1.09,0,0,0,.44.54c.23.18.16.52.43.66s.15.36.29.5l.51.51c-.07.37.35.45.45.75s.47.43.55.69.36.48.54.71c0,.06.12.11.12.16,0,.33.36.39.41.65s.39.46.56.71c0,.07,0,.22.08.27.38.29.46.82.87,1.09a.31.31,0,0,1,.15.35c.39.29.46.83.88,1.08.2.12.11.38.29.51s.38.27.42.44c.08.38.51.53.53.92a2.85,2.85,0,0,1,.67.86c.08.2.28.34.37.57s.37.4.56.59c-.06.35.37.4.41.66s.3.44.48.63.15.51.43.66.15.41.36.57c.41.3.52.86,1,1.15,0,.39.5.53.51.92a2.47,2.47,0,0,1,.67.86c.06.18.27.26.34.48a1.17,1.17,0,0,0,.46.53c.18.14.08.39.28.51s.28.61.59.79.33.66.66.86c.1.47.52.66.77,1l.32-.3v-.42l.22-.23v-.6l.21-.25v-.8l.2-.19v-.59l.19-.27c0-.24,0-.45.06-.64l.15-.15v-.61l.22-.23v-.61L101,81v-.6l.2-.23ZM107,54.08c-.19-.22-.42-.38-.46-.57s-.21-.34-.34-.49-.08-.39-.29-.5-.16-.38-.3-.49c-.29-.21-.3-.59-.57-.8s-.29-.6-.59-.79c.06-.26-.15-.36-.29-.5s-.12-.46-.37-.57-.12-.38-.29-.5-.22-.43-.38-.56-.29-.59-.56-.81-.29-.6-.59-.78c.06-.26-.16-.36-.3-.5s-.12-.46-.36-.57-.12-.39-.29-.5-.22-.43-.38-.56-.3-.59-.57-.81-.28-.6-.58-.79c0-.25-.16-.36-.3-.49s-.12-.46-.36-.58-.12-.38-.29-.49-.23-.44-.38-.56-.3-.6-.57-.82-.29-.59-.59-.78c.06-.26-.16-.36-.29-.5s-.12-.46-.36-.57-.12-.38-.3-.5-.25-.38-.37-.57a2.36,2.36,0,0,1-.38-.57c-.07-.22-.35-.36-.43-.64s-.39-.28-.35-.58c-.3-.19-.34-.58-.59-.79s-.27-.61-.57-.8c-.09-.06-.09-.24-.16-.34s-.3-.25-.32-.38-.21-.34-.33-.49-.09-.4-.29-.5-.18-.34-.3-.49a2,2,0,0,1-.38-.57c-.08-.23-.35-.37-.43-.65s-.4-.28-.35-.58c-.3-.18-.34-.57-.59-.78s-.27-.62-.58-.8c-.15-.09,0-.32-.22-.43a.82.82,0,0,1-.28-.39,1.26,1.26,0,0,0-.57-.61c-.25.05-.32.23-.45.33v.61l-.22.23v.39l-.21.25v.6l-.16.15c-.13.24.11.55-.14.77s0,.57-.29.7l0,.45-.19.19V32l-.22.23v.6l-.19.22c0,.23,0,.49,0,.62s-.11.38-.18.55-.23.39-.2.65c0,.07-.12.15-.19.25v.59l-.21.23v.41l-.22.22v.61l-.21.24V38l-.19.24c0,.28.1.58-.18.77,0,.41-.33.72-.26,1.09l-.18.18v.61l-.22.23v.4l-.21.24v.59l-.19.23c0,.28.1.58-.18.78,0,.41-.33.71-.26,1.08l-.18.18v.62l-.22.23v.6l-.21.24v.61c-.35.15,0,.62-.37.78l0,.64-.17.21,0,.44-.18.18v.41l-.22.23v.6l-.21.24v.59l-.19.23c0,.25.11.51-.11.7s0,.44-.15.55-.07.46-.22.64l-.14.15v.61l-.22.24V55l-.21.24v.38l-.19.23c0,.25.11.52-.11.7s0,.45-.15.55-.07.46-.22.65l-.14.15v.61l-.23.24.06.26h1.32l.21-.2h1L82,58.6h1l.23-.21h.81l.24-.21h1l.19-.19h1l.29-.24h.79l.17-.16c.37-.05.74,0,1.07,0l.19-.19h1s.05,0,.08-.06l.15-.15h1l.23-.21h1l.19-.19h.83l.22-.22h1l.22-.22h1l.18-.18h1l.22-.22h.82l.23-.21h1l.19-.19h1l.21-.22h.83l.22-.22h1l.2-.19h1s.06,0,.08-.06l.15-.15h1l.23-.21h.81ZM78.39,112l1.46,1.46.21-.09v-.19c.2-.34.58-.49.67-.9,0-.17.27-.31.43-.44s.13-.44.35-.58a.87.87,0,0,0,.39-.46c.06-.27.27-.39.43-.54s.16-.36.29-.5.43-.32.49-.52a1.38,1.38,0,0,1,.46-.64c.22-.21.21-.56.51-.72s.3-.42.44-.64.58-.46.71-.85.56-.54.7-1,.44-.45.58-.79.5-.5.65-.87.46-.44.6-.78.5-.51.65-.87.45-.45.59-.79.5-.5.65-.87.45-.45.59-.79.5-.5.65-.86.45-.45.59-.79.51-.5.65-.87.42-.4.56-.7a3.14,3.14,0,0,1,.67-.75c.11-.11.09-.29.15-.35.39-.33.51-.88.94-1.17.11-.07.27-.19.27-.29,0-.35.3-.45.47-.64s.2-.58.51-.72.22-.48.43-.65c.44-.33.57-.92,1-1.23.07-.39.42-.59.66-.86,0-.42.45-.56.64-.87-.13-.26.46-.41.1-.7h-.62l-.22.21H96.9l-.18.19h-.83l-.22.21h-1l-.3.24h-1l-.17.17c-.37,0-.74,0-1.07,0l-.18.19h-1l-.23.21h-.6l-.24.21h-1l-.19.19h-1l-.3.24h-1l-.17.17c-.37,0-.74,0-1.07,0l-.19.19h-1l-.23.21h-.61l-.23.21h-1l-.19.19h-1l-.3.24h-1l-.17.17c-.37,0-.74,0-1.07,0l-.19.19h-.82l-.23.21H76l-.23.21h-1l-.19.19h-1l-.3.24h-1l-.17.17c-.37,0-.75,0-1.08,0l-.18.18H70l-.23.21H69l-.24.21h-1l-.19.19h-1l-.3.24h-1l-.17.18h-1l-.23.21c-.16,0-.34-.07-.5.08v.44A5,5,0,0,1,64.23,96c.1.24.37.4.57.59l.58.59a2.67,2.67,0,0,1,.59.68,2.42,2.42,0,0,0,.51.62c.3.33.63.63,1,1v.24c.21.2.44.41.66.63a6.65,6.65,0,0,0,.66.64c.26.2.3.51.5.73a9.33,9.33,0,0,1,1.41,1.59,4.23,4.23,0,0,0,.94,1c.37.31.49.79.86,1.1a16.15,16.15,0,0,1,1.18,1.16v.18c.49.63,1.21,1,1.54,1.77.36.36.7.76,1.1,1.09s.54.84.93,1.17a16.15,16.15,0,0,1,1.18,1.16ZM70.85,28.62h.82l.23-.22h1l.25-.21h1l.19-.19h1l.22-.22h.82l.22-.22h.83l.18-.18h1l.23-.22h1l.24-.21h1l.19-.19h1l.22-.22h.82l.22-.22h.83l.18-.18h1l.23-.22h1.23l.26-.25c-.14-.5-.69-.5-1-.85-.11-.17-.32-.08-.43-.21s-.42-.16-.58-.36-.42-.22-.55-.38-.43-.17-.59-.36a.79.79,0,0,0-.49-.31c-.14,0-.24-.31-.37-.33s-.33-.21-.52-.26a.71.71,0,0,1-.26-.13c-.15-.12-.26-.27-.49-.3s-.28-.35-.56-.41-.31-.25-.46-.38c-.37.07-.44-.36-.74-.45a1.06,1.06,0,0,1-.67-.36c-.15-.21-.46-.16-.57-.36s-.47-.25-.66-.43-.19-.24-.3-.26a.62.62,0,0,1-.34-.18,1.49,1.49,0,0,0-.32-.24,4.75,4.75,0,0,1-.6-.28,6.74,6.74,0,0,0-.64-.45,5.14,5.14,0,0,1-.64-.44c-.2-.19-.48-.24-.65-.43s-.54-.26-.74-.48c-.34,0-.38-.39-.66-.4s-.35-.41-.65-.43-.33-.34-.56-.4a2.07,2.07,0,0,1-.68-.34,5.65,5.65,0,0,0-.58-.36c-.19-.1-.29-.34-.57-.37s-.29-.33-.46-.37-.36-.29-.55-.42c-.28.11-.36-.33-.64-.22-.14-.13-.28-.36-.45-.39s-.35-.34-.56-.39a1.41,1.41,0,0,1-.5-.31c-.23-.17-.53-.26-.71-.51a.16.16,0,0,0-.09,0,1.66,1.66,0,0,1-.68-.33c-.19-.14-.4-.23-.57-.37a2.18,2.18,0,0,0-.66-.42c-.14-.3-.54-.26-.71-.52s-.51-.17-.65-.43c-.38.09-.41-.45-.76-.41-.32-.34-.81-.46-1.1-.82h-.41l-.3.29,0,.44-.19.19V10a2.47,2.47,0,0,0-.2.4c0,.18-.23.29-.23.53a1.57,1.57,0,0,1-.23.62c0,.09-.15.16-.16.24s0,.41-.2.54c.1.27-.33.36-.22.63s-.21.32-.22.54-.16.21-.18.33,0,.38-.17.55.05.49-.23.63c0,.23-.26.33-.22.52s-.2.41-.21.64-.21.21-.21.32a1,1,0,0,1-.2.65.75.75,0,0,0-.2.52c.06.29-.26.39-.24.65,0,.1-.2.23-.18.32.07.3-.27.46-.22.74-.35.13-.08.54-.3.7s-.05.44-.2.65a1.23,1.23,0,0,0-.33.89c-.15.14-.15.4-.28.5s0,.49-.21.64-.1.38-.28.51.05.4-.15.55-.09.39-.29.51c0,0,0,.13,0,.19s-.09.3-.18.44.06.41-.16.56,0,.34-.22.42a.12.12,0,0,0-.06.08c.07.56-.49.92-.45,1.47-.21.17-.21.46-.38.67.1.26-.14.42-.21.63a2.56,2.56,0,0,0-.23.74c0,.19-.24.37-.34.57s0,.45-.21.65,0,.47-.24.62c0,.16-.06.33.06.5h.87l.26-.2h1l.2-.21h.83l.18-.18h1l.23-.21h.81l.23-.22h1l.19-.19h1l.22-.22h1l.22-.21h.83l.18-.19h1l.22-.21h.82l.23-.22H66.1l.19-.19h.83l.21-.21h1l.22-.22h.82l.22-.22h1ZM18.09,51.33c-.19.36-.57.51-.71.89s-.61.52-.67,1c-.47.35-.64,1-1.1,1.31a.25.25,0,0,0-.08.17c0,.33-.5.38-.43.75,0,0,0,.05-.07.08a3,3,0,0,0-.61.78c-.15.31-.48.52-.65.86s-.44.47-.59.79-.5.51-.65.87-.41.39-.5.62a1.34,1.34,0,0,1-.45.54c-.21.18-.17.51-.43.65s-.13.37-.29.5-.36.27-.42.44a2.5,2.5,0,0,1-.68.86c0,.32-.24.48-.44.64s-.19.49-.43.66a1.56,1.56,0,0,0-.46.63A6.2,6.2,0,0,1,8,65a5.48,5.48,0,0,1-.71.74c.06.39-.51.45-.44.85a3.06,3.06,0,0,0-.5.52,1.78,1.78,0,0,1-.45.63c-.21.14-.22.43-.38.57-.43.38-.63.95-1.08,1.32-.06,0,0,.22-.08.26-.29.2-.32.6-.59.79s-.41.61-.65.88a2,2,0,0,0-.46.63c-.09.24-.37.4-.56.6.14.27-.37.35-.2.63a1.52,1.52,0,0,0,.22.22c.19.11.44.14.57.36s.4.09.5.3.42.19.57.37a1.81,1.81,0,0,0,.57.37c.19.11.3.33.57.37s.29.32.47.36.36.3.55.43c.27-.12.35.33.63.22a2,2,0,0,0,.64.46,6.52,6.52,0,0,1,.64.43c.22.13.43.29.64.44s.44.28.65.43a3.56,3.56,0,0,0,.58.37c.2.09.29.34.57.37s.29.33.46.37.37.29.56.42c.27-.11.35.32.63.21.2.17.33.45.64.44.2.23.51.34.7.53s.47.24.67.42a6.21,6.21,0,0,0,.72.51,2.76,2.76,0,0,1,.56.38c.16.2.41.19.59.35s.38.11.49.3.36.14.5.29.24.3.49.32.29.35.46.37.36.33.56.39a1,1,0,0,1,.5.31c.15.19.43.14.58.36s.49.29.75.41.42.55.78.61c.2,0,.29.25.53.25s.22.27.37.33a.85.85,0,0,1,.49.31c.11.17.3.12.43.21s.25.3.47.37.36.34.56.38.37.29.56.42.33.07.5-.06v-.86l-.2-.26V86l-.17-.16c-.05-.37,0-.75,0-1.08l-.18-.18c0-.3,0-.6,0-.83L24,83.51v-1l-.21-.23v-.81l-.19-.2v-1L23.37,80V79l-.21-.2v-.83L23,77.73c0-.23,0-.47,0-.71a.64.64,0,0,0-.06-.18l-.15-.15v-1l-.21-.24v-1l-.19-.19v-.8l-.24-.3v-1L22,72c-.05-.37,0-.74,0-1.07l-.19-.19c0-.23,0-.48,0-.72a.41.41,0,0,0-.07-.17l-.14-.16v-1l-.21-.24v-.81l-.19-.19v-1l-.24-.3v-1l-.2-.21v-.83l-.19-.18v-1l-.21-.23v-.81l-.21-.24v-1l-.2-.2v-1l-.22-.22v-.83l-.18-.18c0-.37,0-.74,0-1.07l-.19-.18v-1L19,55.59v-.82l-.19-.18v-.83l-.22-.22v-1l-.22-.21v-.86ZM62.6,94.74c-.2.24-.46.42-.52.65s-.52.38-.44.75a3.06,3.06,0,0,0-.5.52,1.69,1.69,0,0,1-.45.64c-.21.14-.24.39-.37.57s-.42.32-.48.52a1.23,1.23,0,0,1-.47.63c-.21.16-.15.45-.36.58s-.25.46-.43.65-.49.3-.45.64c-.19.2-.48.36-.56.59a1.84,1.84,0,0,1-.54.71c-.18.19-.15.51-.43.66a.67.67,0,0,0-.32.37c0,.29-.37.36-.39.56s-.31.43-.46.65-.24.38-.37.56-.39.29-.44.54-.36.4-.5.62a.68.68,0,0,0-.12.26c-.07.27-.46.32-.43.66,0,.05-.07.11-.12.15s-.42.33-.47.53a.94.94,0,0,1-.33.48,2.18,2.18,0,0,0-.38.57c-.13.26-.42.41-.56.7s-.49.49-.59.79-.52.38-.44.75c-.2.19-.47.36-.56.59a1.06,1.06,0,0,1-.4.55c-.27.16-.23.47-.42.67a1.41,1.41,0,0,0-.5.62c0,.2-.31.35-.46.53s-.18.51-.44.64a1.94,1.94,0,0,1-.66.86c-.12.13,0,.33-.21.44a1.16,1.16,0,0,0-.37.36,4.14,4.14,0,0,0-.31.59s0,.12.06.24c.35,0,.72,0,1.08,0l.19-.19H48.9l.3-.24H51l.18-.18h2s0,0,.08-.06l.15-.15h1.64l.23-.21h2l.24-.21h1.64l.19-.19H61.1l.3-.24h1.82l.18-.18h2.05s0,0,.08-.06l.15-.15h1.64l.24-.21h2l.23-.21h1.64l.19-.19H73.1l.29-.24h2l.19-.18h2s0,0,.08-.06l.15-.15h1l.3-.32a4.35,4.35,0,0,1-.48-.48,5.21,5.21,0,0,0-.43-.65A7.61,7.61,0,0,1,77,110.94a4.69,4.69,0,0,0-1.08-1.1c-.39-.33-.53-.85-.94-1.17s-.64-.63-1-1v-.14c-.54-.76-1.38-1.19-1.76-2-.31-.31-.61-.65-1-.94s-.49-.79-.87-1.1-.78-.77-1.18-1.16v-.23l-1.45-1.41v-.23L67,99.6a4.3,4.3,0,0,1-.68-.85,5.2,5.2,0,0,0-.86-.9,3.33,3.33,0,0,1-.66-.75,3.26,3.26,0,0,0-.66-.76c-.23-.26-.49-.49-.72-.74-.06-.07,0-.2-.09-.27A1.92,1.92,0,0,0,62.6,94.74ZM57.71,16.31c0-.18,0-.34.08-.51a2.64,2.64,0,0,0,.38-.77c.31-.17,0-.62.36-.78-.06-.28.13-.49.21-.73s.31-.37.22-.64c.16-.2.16-.49.37-.67a.11.11,0,0,0,0-.09c-.06-.25.16-.43.19-.64s.32-.3.22-.53.33-.36.21-.64c.26-.14.2-.4.22-.63.26-.15.17-.41.22-.62l.17-.21-.3-.28-.22.19c-.25,0-.51-.11-.71.11s-.53,0-.76.14c-.14.3-.45.08-.64.22l-.15.15h-.61L57,9.59h-.4l-.23.21h-.8l-.22.19c-.24,0-.5-.05-.63.06a.62.62,0,0,1-.55.15c-.24,0-.35.19-.54.21s-.41,0-.53.19-.48,0-.72.1l-.12.13h-.62l-.23.21h-.6l-.22.19c-.23,0-.49-.05-.62.06a.64.64,0,0,1-.56.15c-.24,0-.35.19-.54.21s-.41,0-.52.19-.49-.05-.72.09l-.13.14h-.62l-.23.21H46l-.24.22h-.6l-.16.16c-.23.13-.54-.12-.76.14s-.57,0-.71.3H43l-.23.21h-.61l-.23.21h-.6l-.24.22h-.59l-.26.21c-.45-.13-.81.24-1.24.24-.05,0-.09.09-.15.15h-.61l-.23.21h-.61l-.23.21h-.6l-.24.22h-.59l-.23.19a3.23,3.23,0,0,1-.44,0c-.16,0-.23.12-.34.17s-.27,0-.39.05a1.12,1.12,0,0,0-.3.2h-.56l-.22.2H32.6l-.23.21h-.6l-.24.22h-.59l-.26.21c-.49-.18-.87.36-1.33.18l-.57.34v.43c.12.05.28.06.35.14s.45.12.59.36.46.22.65.43.41.22.55.38.35.17.51.29.23.35.48.33a6.13,6.13,0,0,0,1.15.71c.22.11.4.34.66.42.14.3.54.25.71.51s.49.18.65.43.55.23.73.51c.07.12.27.15.41.23s.2.26.39.3a1.93,1.93,0,0,1,.44.2c.05,0,.14,0,.17.08.15.3.55.26.71.51s.5.19.66.44.51.26.73.49a3.34,3.34,0,0,0,.75.4c.22.13.38.36.65.42.16.3.54.28.72.52s.5.19.64.43.49.19.66.44.5.26.75.41a.61.61,0,0,1,.24.18c.12.18.33.19.49.29s.29.34.58.38.28.34.55.4.36.32.56.38.34.4.55.41.36.32.63.25a2.09,2.09,0,0,0,.63.46c.22.1.39.35.66.42.15.29.53.27.71.51s.5.2.65.44.52.24.74.49a2.46,2.46,0,0,0,.83.45l.14.07.27-.29c0-.13,0-.25,0-.33a3.07,3.07,0,0,0,.46-1.16c.21-.09.1-.37.28-.5s0-.41.15-.55.09-.4.29-.51c0,0,.06-.13.05-.18-.11-.3.25-.44.23-.74s.2-.46.31-.69c0-.06.09-.13.07-.17-.08-.27.2-.41.21-.64s.29-.29.22-.54.27-.36.24-.62c0-.07.15-.15.16-.24s0-.41.19-.54c-.07-.26.31-.37.23-.63S55,23.23,55,23s.2-.3.18-.43c-.06-.28.26-.41.21-.64s.29-.44.26-.72c.29-.14.05-.48.22-.63s.1-.38.29-.51-.06-.42.15-.55.08-.4.28-.51a.19.19,0,0,0,0-.18c-.1-.27.19-.4.23-.64s.19-.31.2-.53a1,1,0,0,1,.27-.6c.16-.19.11-.38.13-.57ZM100.2,87.15l.65-.63c.37,0,.47-.36.72-.52a1.57,1.57,0,0,1,.26-.1c.25-.09.32-.46.66-.42,0,0,.05,0,.07-.06.36-.46,1-.64,1.3-1.1.08-.11.23,0,.28-.08.3-.38.82-.46,1.09-.87a.41.41,0,0,1,.25-.15c.32,0,.38-.5.75-.44,0,0,0,0,.07-.07a2.4,2.4,0,0,1,.61-.51c.29-.11.4-.37.62-.51s.18-.08.26-.13.25-.22.39-.31.3-.13.42-.22.35-.34.52-.51c.34,0,.42-.29.64-.44a.81.81,0,0,1,.34-.19c.26,0,.31-.46.66-.4,0,0,0,0,.07-.07.17-.17.31-.42.52-.49a1.2,1.2,0,0,0,.63-.46c.15-.22.41-.19.59-.36a6.42,6.42,0,0,0,1.07-.88c.38.07.44-.38.76-.44s.42-.47.69-.56a1.74,1.74,0,0,0,.7-.54c.15-.16.39-.09.52-.28s.26-.39.43-.43.42-.39.65-.43.44-.3.63-.47.52-.18.65-.43.31-.11.43-.22.29-.3.44-.44.19-.06.26-.12c.36-.37,1-.48,1.2-1v-.43c-.15-.13-.43-.27-.54-.49a2.36,2.36,0,0,0-.53-.71l-.59-.58v-.19c-.28-.39-.7-.62-.89-1.1s-.58-.53-.78-.91a4.71,4.71,0,0,0-.81-.94v-.15c-.28-.4-.71-.63-.9-1.1-.1-.27-.48-.42-.62-.68a2.2,2.2,0,0,0-.61-.77c-.25-.2-.31-.51-.5-.73a2.61,2.61,0,0,0-.45-.43c-.22-.14-.17-.43-.35-.58a4.52,4.52,0,0,0-.45-.43c-.21-.15-.22-.4-.36-.58s-.58-.47-.73-.84-.55-.59-.81-.92v-.19a5.6,5.6,0,0,1-.95-1.15c-.15-.33-.53-.49-.72-.84a6.3,6.3,0,0,0-.8-1v-.12l-1-1-.29.29V56l-.21.23v.6l-.21.24v.6l-.2.19v.83l-.19.2,0,.65-.18.17,0,.45-.17.17c-.07.31,0,.63,0,.86l-.19.21V62l-.21.24v.6l-.2.2v.82l-.19.2,0,.65-.18.18,0,.44-.19.19v.62l-.21.22v.81l-.22.24V68l-.19.2v.62l-.22.22v.82l-.18.19,0,.44-.19.19v.62l-.21.22v.61l-.19.19v.83l-.22.22V74l-.21.27v.57l-.2.23v.6l-.21.23v.61l-.22.23v.6l-.21.24v.6l-.19.19v.8l-.23.31V80l-.21.21v.62l-.18.18v.62l-.22.23v.6l-.21.24v.58l-.21.27v.77l-.22.28v.57l-.15.16c-.08.24,0,.49-.1.72l-.13.13V87s0,0,.07.07Zm4.36-56.47H104l-.74-.42a1.13,1.13,0,0,1-.82-.18c-.14-.09-.36,0-.55-.18s-.45,0-.65-.07l-.21-.2h-.62l-.18-.19h-.41l-.23-.21h-.41c-.12-.22-.34-.18-.54-.21s-.3-.25-.53-.2a.67.67,0,0,1-.56-.16c-.13-.1-.39,0-.63-.06l-.21-.18-.43,0-.19-.19h-.41L95.44,28h-.39l-.24-.21h-.59L94,27.57c-.45.13-.8-.24-1.24-.25,0,0-.09-.09-.15-.14H92L91.73,27h-.4l-.23-.21h-.39l-.24-.21h-.61l-.2-.21c-.13.1-.35-.1-.51.12v.38l.62.7c0,.33.41.36.41.66s.39.35.43.65.45.4.44.75a1.65,1.65,0,0,1,.45.64c.09.2.34.29.38.57s.32.29.36.46.37.35.4.56a.78.78,0,0,0,.32.49c.17.16.11.46.36.58s.12.37.29.49.23.43.38.56.3.59.56.81.29.6.59.79c0,.25.16.36.3.49s.12.46.36.58.12.38.29.5.23.42.38.55.3.6.57.82.29.6.59.78c-.06.26.15.36.29.5s.12.46.36.57.12.38.3.5.22.43.37.56.3.59.57.81.29.6.59.79c-.06.25.16.36.29.49s.13.46.37.58.13.36.28.5a.72.72,0,0,1,.32.49c0,.21.35.28.41.55s.24.31.37.46c-.05.39.5.46.44.85.3.19.34.58.59.79s.26.62.58.8c.15.09,0,.32.21.43a.71.71,0,0,1,.3.39c0,.18.31.3.35.47s.24.39.38.57.11.37.29.51a1.85,1.85,0,0,1,.47.62c.12.25.37.46.48.73s.32.43.42.66a2.19,2.19,0,0,0,.54.7s.11,0,.18.06.25-.21.38-.31v-.41l.22-.23v-.53c.12-.24.22-.41.29-.58a2.29,2.29,0,0,1,.24-.62c.15-.19,0-.45.14-.56s0-.46.21-.65l.14-.14V49.2l.22-.23v-.41c.27-.14.18-.41.22-.63.28-.14.08-.49.23-.62s0-.51.22-.63,0-.46.21-.65l.15-.14v-.41l.21-.23v-.4c.05-.06.12-.1.15-.16.09-.23,0-.54.26-.72-.14-.3.2-.47.21-.74,0-.09,0-.24,0-.28.21-.14.1-.47.36-.58v-.62l.21-.22V41.2a2.12,2.12,0,0,1,.3-.57c.22-.19,0-.49.21-.64s0-.44.16-.55.06-.46.21-.64l.15-.15v-.41l.21-.23V37.6c.26-.14.18-.41.22-.63.28-.14.08-.49.23-.62s0-.51.22-.63.06-.46.21-.65l.15-.14v-.41l.2-.22v-.62l-.3-.3h-.61l-.23-.22h-.4L112.4,33H112l-.23-.2a3.21,3.21,0,0,1-.54,0c-.08,0-.16-.15-.23-.15-.44,0-.78-.42-1.23-.23l-.26-.22h-.4l-.22-.22h-.61l-.22-.19c-.17-.05-.37.07-.49-.1s-.56,0-.72-.28c0-.05-.19,0-.29-.05s-.34.07-.47-.11-.39,0-.56-.14-.09-.1-.18-.18h-.62Zm-88,73.55c.39.61,1.19.67,1.74,1.11.3-.12.5.13.74.22a2.08,2.08,0,0,1,.59.31c.21.18.57,0,.71.29a3.84,3.84,0,0,1,1.12.53c.2.11.44,0,.56.14s.37.12.51.28.36.13.51.28.41-.07.55.16c.58.17,1,.64,1.67.7a.9.9,0,0,1,.5.26c.19.24.46.06.65.2a6.84,6.84,0,0,0,.85.44,2.21,2.21,0,0,0,1,.37c.18.2.45.23.67.37a.93.93,0,0,0,.74.21c.1.21.36.15.49.3s.37.11.52.28.37,0,.56.14a2.81,2.81,0,0,0,.84.44,2.48,2.48,0,0,0,.91.33c.22,0,.43.27.67.36s.43.34.73.22c.17.22.51.16.66.41.28,0,.44.34.74.21a6.86,6.86,0,0,0,.76.4c.39.15.71.48,1.17.42.11.2.34.19.5.29a2.42,2.42,0,0,0,.59.32,1.79,1.79,0,0,1,.56.17,3.86,3.86,0,0,0,.76.38c.3.12.55.39.91.3.11.21.38.14.5.29s.47,0,.64.22.35.13.51.27a1.06,1.06,0,0,0,.42.22c.17,0,.3.21.42.22a1.86,1.86,0,0,1,1,.38s.09,0,.14-.06v-.4c-.15-.16-.37-.3-.4-.46s-.35-.36-.39-.56-.29-.45-.46-.65-.19-.15-.19-.22c0-.3-.32-.37-.37-.57a1.16,1.16,0,0,0-.46-.63c-.22-.16-.16-.45-.36-.58s-.24-.47-.44-.66-.4-.28-.44-.53-.35-.41-.51-.61-.13-.46-.37-.58-.12-.36-.28-.5-.44-.32-.48-.52-.34-.36-.39-.56a1.1,1.1,0,0,0-.46-.64c-.21-.15-.15-.44-.36-.58s-.21-.49-.44-.64-.39-.62-.66-.86-.42-.68-.72-1c-.11-.1-.13-.29-.23-.42s-.24-.24-.36-.37-.12-.1-.12-.15c0-.3-.33-.36-.37-.57a1.09,1.09,0,0,0-.47-.63c-.21-.16-.14-.45-.35-.58s-.22-.49-.44-.64-.39-.63-.67-.86-.41-.69-.71-1c-.09-.08-.09-.25-.16-.35s-.24-.24-.36-.37-.19-.15-.19-.22c0-.34-.38-.39-.42-.66s-.32-.42-.49-.62-.08-.29-.15-.35c-.37-.3-.46-.82-.87-1.09a.33.33,0,0,1-.15-.35c-.38-.29-.47-.82-.87-1.09A.37.37,0,0,1,29,94.4c0-.33-.5-.39-.44-.76,0,0-.05,0-.07-.07A2.68,2.68,0,0,1,28,93c-.1-.28-.36-.4-.5-.62s-.08-.17-.14-.25-.21-.26-.3-.4-.14-.28-.22-.42-.46-.31-.51-.62-.49-.38-.44-.74c-.21-.16-.33-.44-.42-.46-.5,0-.31.25-.44.35s-.33.24-.33.37-.25.37-.28.62a.92.92,0,0,1-.35.56c-.21.16-.22.4-.34.59a1.48,1.48,0,0,0-.31.7c-.61.49-.62,1.37-1.22,1.87a2,2,0,0,1-.46.85,4.3,4.3,0,0,0-.5.92c-.12.2-.17.43-.38.57s-.08.4-.29.5c.06.26-.28.37-.24.63,0,0-.07.11-.12.15-.28.21-.33.55-.49.83a3.22,3.22,0,0,1-.32.58c-.52.53-.59,1.31-1.13,1.82-.12.12-.14.35-.21.53s-.19.24-.23.43-.33.28-.38.45C17.27,103.33,16.8,103.69,16.6,104.23ZM20.08,44v-.41l.21-.22v-.66c.42-.08,0-.59.37-.74l.06-.66.18-.24v-.56l.2-.22,0-.44.19-.19v-.61l.21-.23v-.4l.2-.23c0-.31-.07-.62.21-.85a.89.89,0,0,1,.16-.56c.11-.17,0-.45.07-.66l.17-.17,0-.65.19-.19v-.41l.21-.22v-.64a.34.34,0,0,0,.2-.41c0-.21.18-.28.2-.44a1.13,1.13,0,0,0,0-.41c0-.2.19-.26.2-.43a4.6,4.6,0,0,0,0-.53l.2-.23V31l.21-.24v-.61L24,30v-.4l.21-.24V28.7c.33-.14.09-.52.3-.71a.23.23,0,0,0,.1-.16,4.6,4.6,0,0,0,0-.53l.2-.24v-.38l.21-.24v-.61l.21-.23V25l.21-.23a1,1,0,0,1,.19-.65c.07-.17,0-.36.17-.55s.05-.45.07-.63l.18-.25c0-.24,0-.45.06-.64l.15-.15v-.41l.21-.23v-.6l.21-.24V20l.2-.24v-.43c0-.26.33-.43.22-.74,0-.05.14-.15.17-.23a1,1,0,0,0,0-.31h-.53l-.8.81-.8.8-.8.8-.73.73-.81.81a10.06,10.06,0,0,0-.8.8c-.24.3-.61.39-.87.65s-.68.69-1,1l-.95.95-1,1a10.62,10.62,0,0,0-.94,1c-.3.38-.77.53-1.1.87L14.6,29.85c-.51.51-1,1-1.54,1.53a15,15,0,0,1-1.48,1.39A14.47,14.47,0,0,0,10,34.24L8.48,35.77,7,37.3H6.74L5,39.06s0,.06,0,.1a.33.33,0,0,0,0,.1l.75.73h.15c.39.25.61.64,1,.85a4.88,4.88,0,0,1,1,.91s0,.06.08.07c.3,0,.44.27.64.43s.29.35.54.45a2.11,2.11,0,0,1,.62.51c.17.16.33.34.49.51h.19c.39.24.56.72,1,.82l.95.93s.05.07.08.07c.31,0,.44.28.64.44s.29.35.54.44a2.28,2.28,0,0,1,.62.51c.17.17.33.35.48.51H15c.45.26.65.73,1.14.9.24.08.4.37.6.56a1.83,1.83,0,0,0,.63.46c.23.1.39.38.57.56.19,0,.37.07.51-.08s0-.49.22-.64v-.61l.22-.23V48l.21-.23v-.4l.21-.24v-.6l.18-.17c.1-.23-.12-.53.13-.75s0-.57.29-.71v-.61ZM99.91,89.94l-.22-.23v-.39l-.19-.23c0-.18.07-.36-.11-.5H99a1.9,1.9,0,0,1-.3.49c-.16.14-.18.34-.29.5s-.46.44-.6.78-.5.51-.65.87-.45.45-.59.79-.5.5-.65.87-.46.45-.6.78-.49.51-.65.87-.53.42-.56.8l-.74.73a2.45,2.45,0,0,1-.14.35c-.2.26-.49.43-.6.79s-.58.38-.57.8a2.88,2.88,0,0,0-.59.68c-.12.27-.36.4-.5.62s-.25.55-.52.71-.2.42-.36.58l-.5.51c0,.35-.29.45-.46.64s-.2.59-.5.72-.24.47-.44.65a1.82,1.82,0,0,0-.53.71c-.11.3-.56.4-.57.8-.23.28-.6.45-.65.86a3.15,3.15,0,0,0-.68.86c-.11.23-.37.39-.57.59s-.27.51-.5.73-.5.79-.88,1.07c.07.4-.51.46-.44.85-.23.28-.56.47-.68.86-.06.21-.3.37-.5.51s-.24.46-.42.66-.5.29-.46.64l-.63.66c0,.17-.06.36.11.48s.3-.11.44-.2h.61a.39.39,0,0,1,.43-.2c.21,0,.28-.18.44-.21a1.41,1.41,0,0,1,.41,0c.2,0,.26-.2.43-.21s.34,0,.53,0l.23-.19.43,0,.19-.18h.62l.22-.21h.4l.24-.22H87c.16-.35.62,0,.78-.37l.67-.05.17-.17.65,0,.19-.18h.41l.23-.22h.61c.19-.35.67-.07.87-.4.42.16.74-.26,1.15-.22.1,0,.21-.14.29-.2h.56l.23-.2h.4l.23-.22H95l.24-.21h.61c.16-.35.62,0,.78-.37l.64,0,.21-.17.44,0,.19-.18h.61l.23-.22h.61c.13-.21.34-.18.54-.21s.29-.19.43-.18.35-.18.54-.21a2.32,2.32,0,0,1,.52,0l.31-.23c.2,0,.42.09.6,0l.16-.15h.61l.23-.22h.4l.23-.21h.4l.3-.3v-.41l-.22-.24a1.27,1.27,0,0,0,0-.39c0-.12-.2-.17-.19-.34s0-.28-.09-.37,0-.46-.22-.64-.06-.45-.1-.7l-.2-.22v-.4l-.21-.22v-.41l-.2-.21c0-.18.08-.37-.1-.5s0-.55-.28-.72c0,0,0-.18,0-.28s.06-.35-.11-.47,0-.4-.15-.56l-.14-.15,0-.44-.19-.19V98l-.2-.21c0-.17.07-.37-.1-.49s0-.41-.15-.56a.81.81,0,0,1-.18-.45c0-.18-.17-.35-.19-.53a.52.52,0,0,0-.21-.44v-.61l-.21-.23v-.41l-.22-.22v-.4l-.19-.21c0-.24.05-.5,0-.63s-.11-.38-.18-.55-.23-.39-.2-.64c0-.08-.12-.16-.19-.25l0-.42-.19-.19ZM62.05,8.65a1.56,1.56,0,0,0,.27.26c.17.08.38.11.49.29s.29.15.43.23.23.35.46.36.3.23.54.24.28.34.45.37.35.35.56.39a1.41,1.41,0,0,1,.5.31,3.25,3.25,0,0,1,.72.51c.08.09.25.08.34.16s.41.08.51.29.42.17.57.36a.82.82,0,0,0,.5.31c.14,0,.23.31.37.33s.33.21.52.26a.6.6,0,0,1,.25.13c.16.12.26.27.5.31s.28.34.56.4.28.3.46.36.33.09.42.24.36.16.5.29.44.14.58.36.5.19.63.45.32.09.43.21.25.32.38.33c.29,0,.36.37.56.38s.37.33.63.25c.15.14.29.38.45.4s.36.32.57.39a1.42,1.42,0,0,1,.5.3c.25.2.54.35.8.55s.57.17.76.41.62.26.8.58c.4.07.61.46,1,.6.17.06.41.07.5.28s.41.19.58.35.49.34.71.53.61.28.8.58c.24-.09.31.22.53.21s.27.19.39.3.39.09.5.29.38.17.49.3.54.28.72.51.49.21.65.43c.37-.05.44.41.75.44s.33.38.56.4.37.28.48.35l.39-.2V23.55l-.21-.27V19.39l-.19-.18V15.92s0-.05,0-.08l-.15-.15V11.56l-.21-.23V8l-.22-.24v-1l-.29-.31h-.42l-.23.21H83.66l-.19.19H81.2L81,7.11h-2.9l-.21.22H75l-.18.18c-.92,0-1.84,0-2.72,0l-.18.2H69.2L69,7.94H67.12l-.18.18h-.87L65.9,8l-.26.21h-1l-.19.19H62.18a.24.24,0,0,0-.08.06Zm-45.8,95.24.51-.5c-.1-.27.33-.36.22-.63.2-.3.42-.59.6-.89a2.88,2.88,0,0,0,.43-1s.08-.11.13-.15c.22-.13.26-.37.37-.57a2.49,2.49,0,0,1,.43-.66,1.19,1.19,0,0,0,.3-.59c0-.15.19-.21.21-.32a1.13,1.13,0,0,1,.14-.36,2.43,2.43,0,0,1,.37-.57,1.25,1.25,0,0,0,.31-.59c.05-.28.37-.34.41-.55.09-.39.39-.67.46-1.06a1.75,1.75,0,0,0,.59-1c.26-.18.24-.52.49-.74s.29-.56.46-.83.07-.4.28-.5.16-.37.3-.49.12-.36.27-.52.16-.34.3-.49a1.2,1.2,0,0,0,.35-.57c0-.23.23-.32.24-.53s.32-.33.4-.52V88.9c-.14-.25-.39-.27-.58-.39s-.25-.29-.48-.35-.36-.34-.56-.38-.35-.41-.65-.44-.39-.47-.75-.44c-.23-.23-.6-.28-.79-.58-.29,0-.37-.28-.57-.35s-.43-.35-.65-.43a2.1,2.1,0,0,1-.57-.38c-.1-.08-.24-.09-.34-.16s-.25-.31-.38-.32c-.38,0-.46-.52-.84-.48-.25-.21-.6-.29-.8-.57-.29,0-.37-.31-.57-.36s-.42-.37-.65-.43-.38-.25-.57-.38-.24-.09-.34-.16-.25-.3-.39-.31-.36-.38-.55-.39-.37-.34-.63-.25c-.21-.16-.35-.37-.64-.45s-.35-.4-.66-.42c-.17-.26-.51-.31-.7-.52s-.49-.21-.66-.43a1,1,0,0,0-.49-.3c-.2-.09-.28-.4-.58-.36-.1-.2-.35-.16-.5-.29s-.34-.34-.51-.51c0,0-.06,0-.09,0a2.16,2.16,0,0,1-1-.62c-.3,0-.37-.3-.58-.36s-.42-.36-.64-.42-.37-.3-.57-.38-.43-.34-.65-.43a2,2,0,0,1-.64-.46c-.27.09-.36-.32-.63-.22-.15-.14-.29-.37-.45-.39s-.37-.3-.56-.41-.19,0-.27,0a.51.51,0,0,0,0,.5,7.58,7.58,0,0,0,.38.67c.12.22.23.45.34.68a2.64,2.64,0,0,0,.38.77c.22.22,0,.58.27.72.51,1.1,1.05,2.18,1.62,3.25.11.2,0,.41.26.7l.24.23v.34c.09.17.15.29.2.4a3.7,3.7,0,0,0,.32.59c.12.16.08.41.28.51-.07.26.3.36.23.63.23.12.19.4.35.58a1.22,1.22,0,0,1,.25.51,1.89,1.89,0,0,0,.22.63c.3.57.56,1.15.84,1.72.09.2.2.4.3.6s.22.39.32.59.22.46.34.69.27.41.26.6.2.41.23.64.2.32.25.52.31.37.33.57.21.33.25.53a1.52,1.52,0,0,0,.29.6c.13.15.12.36.27.51a.89.89,0,0,1,.24.61c0,.24.16.36.23.54.45,1,1,1.94,1.44,2.89v.39l.4.32c0,.2,0,.4,0,.46s.15.36.28.52a1.48,1.48,0,0,1,.29.59c0,.2.32.29.22.53.21.1.19.34.29.5a2.13,2.13,0,0,1,.32.59c.05.19,0,.41.2.54.06.39.4.66.43,1.06C16,103.36,15.94,103.74,16.25,103.89ZM4.38,44.17l-.09.08a1.14,1.14,0,0,0-.13.35c0,.72,0,1.44,0,2.11l-.2.21c0,.74,0,1.49,0,2.25,0,0,0,0,0,.08l-.15.15v2.27s0,0-.07.07l-.14.15v2.26l-.21.24v1l-.23.35.28.44-.24.28c0,.49,0,1,0,1.47l-.19.19v2.26s0,0-.06.08l-.15.15v2.26l-.21.23v2.26l-.19.19v2.07l-.22.22v1L1.89,69V71.5l-.21.23c0,.16-.07.34.06.49l.23,0c.2-.2.43-.4.63-.63s.08-.24.15-.35.32-.3.4-.56.43-.37.53-.61a1.11,1.11,0,0,1,.39-.55c.26-.16.23-.49.44-.65.43-.34.56-.92,1-1.24.14-.1,0-.32.21-.43s.38-.26.43-.44a.84.84,0,0,1,.39-.55c.26-.16.22-.5.43-.65s.22-.41.37-.58a4.25,4.25,0,0,0,.6-.78c.16-.31.51-.51.65-.87s.45-.33.5-.62.28-.38.44-.54.19-.49.43-.65.21-.47.44-.65a1.66,1.66,0,0,0,.66-.86c.25-.14.29-.44.44-.64s.42-.33.47-.53a1,1,0,0,1,.34-.48,2.15,2.15,0,0,0,.37-.57c.14-.26.43-.4.57-.7s.48-.49.58-.79.52-.38.45-.75c.19-.19.47-.35.56-.59a1,1,0,0,1,.39-.55c.27-.16.22-.49.44-.66.43-.33.56-.92,1-1.23.08-.39.42-.59.66-.86,0-.42.45-.57.63-.86v-.41c-.16-.14-.25-.35-.5-.31-.4-.32-.66-.8-1.13-1s-.71-.81-1.26-1a4.87,4.87,0,0,0-1-.9c-.41-.22-.63-.6-1-.85h-.18l-1-1c-.38,0-.53-.31-.71-.53s-.52-.28-.74-.49a4.11,4.11,0,0,0-1.14-1c-.33-.15-.48-.57-.84-.71s-.55-.5-.83-.74c-.11-.09-.19-.21-.3-.29s-.14,0-.21,0L6.5,41c-.24-.23-.58-.3-.8-.58A6,6,0,0,0,5,39.77l-.25.1v.43l-.21.23v1.23l-.18.17Zm100.89,61.66a2.37,2.37,0,0,0,.43-.7l.29-.6c.11-.2.23-.39.32-.59s.13-.48.28-.6,0-.46.2-.65a4.37,4.37,0,0,0,.35-.68,3.8,3.8,0,0,0,.31-.6c.08-.24.3-.42.31-.69.33-.15.13-.5.28-.72s.21-.46.35-.68.22-.46.36-.68a3,3,0,0,0,.37-.77c.09-.24.32-.42.3-.7.34-.14.09-.52.3-.71s.08-.4.29-.5c0-.22.22-.33.23-.52s.3-.29.21-.53c.2-.11.16-.37.3-.5s.09-.37.27-.51,0-.36.14-.56c.21-.35.38-.74.56-1.11a8.3,8.3,0,0,1,.54-1,8.89,8.89,0,0,0,.46-1.15q.34-.69.66-1.38a4.8,4.8,0,0,0,.64-1.49c.22-.1.13-.35.28-.51a1.68,1.68,0,0,0,.29-.6c.06-.18.21-.31.25-.52s.25-.37.35-.57,0-.39.14-.57.18-.41.3-.59.2-.47.36-.69a7.17,7.17,0,0,0,.3-.69,2.33,2.33,0,0,0,.37-.78c.35-.13.11-.5.28-.71a2.62,2.62,0,0,0,.33-.59,4.18,4.18,0,0,1,.27-.61c.15-.21.22-.46.35-.68s.15-.45.31-.59.07-.44.19-.65c.45-.81.84-1.65,1.26-2.48a2.28,2.28,0,0,0,.36-1c.26-.3.33-.7.56-1a.39.39,0,0,0-.06-.47l-.22,0-.66.62c-.33,0-.43.29-.63.46s-.55.22-.73.5c-.06.09-.24.09-.34.16a1.37,1.37,0,0,0-.36.36c-.13.2-.37.14-.51.29s-.34.34-.51.51c-.38-.09-.42.38-.76.43s-.42.53-.78.59-.38.5-.75.44a2.46,2.46,0,0,1-.52.5,2.56,2.56,0,0,0-.64.45.71.71,0,0,1-.4.29c-.14,0-.25.2-.39.29s-.3.13-.42.23-.35.33-.52.5c-.34,0-.42.31-.64.45s-.15.16-.24.16c-.29,0-.35.37-.55.4s-.39.25-.57.39-.21.24-.41.27-.32.44-.66.4a.1.1,0,0,0-.07.06c-.26.37-.72.49-1,.81s-.75.43-1,.79c-.06.08-.15.2-.22.19-.34,0-.39.37-.66.42s-.46.38-.7.56c0,0-.05.07-.08.06-.26,0-.34.18-.49.31s-.42.15-.58.35-.23.35-.46.38-.36.29-.54.44a.75.75,0,0,1-.34.19c-.26,0-.32.44-.66.41,0,0-.09.09-.15.13s-.34.38-.61.5a3.48,3.48,0,0,0-.69.59c-.07,0-.19,0-.3,0v.85l.39.74v.53l.21.22v.4l.21.23v.4l.21.24V92a8.46,8.46,0,0,1,.61,1.84l.21.22v.4l.21.23v.61l.21.23a1,1,0,0,0,.19.65c.07.16,0,.36.17.55s0,.45.07.67c.25.14.17.37.18.57l.21.23v.4l.21.23v.6l.21.23c-.14.31.2.5.19.75s.35.51.22.84c.28.17.15.49.26.72l.15.15v.61l.21.23v.4l.21.23a.74.74,0,0,0,.2.65c-.06.4.37.72.21,1.15,0,0,0,.06,0,.09ZM94.52,27.38a3.34,3.34,0,0,0,.47.2c.12,0,.27,0,.37.1s.32.07.47.12a1,1,0,0,1,.29.2h.56l.23.2h.4l.23.21h.6l.24.22h.39l.22.19c.25,0,.52-.12.71.11s.44,0,.55.15.46.07.64.21l.15.15h.61l.23.21h.61l.26.24c.33-.25.5.19.82.19s.59.3,1,.17l.24.21.44,0,.18.18H106l.23.21h.39l.24.22h.61c.13.23.34.18.54.2s.24.27.43.2.35.18.53.21h.54l.22.2h.4l.23.22H111l.23.2a.75.75,0,0,1,.64.21c.3-.14.49.25.74.19s.38.29.64.22.26-.18.3-.35l-1.17-1.17-1.1-1.09-1.17-1.17L109,28.08l-1.17-1.17-1.1-1.09-1.17-1.17-1.17-1.17-1.09-1.1c-.39-.39-.77-.79-1.17-1.17a7.59,7.59,0,0,0-1.14-1,7.59,7.59,0,0,1-1.19-1.15l-12-12-.28.05V8.89l.16.16a.44.44,0,0,1,0,.1c0,1.07,0,2.13,0,3.2,0,0,0,.06.05.08l.15.16v4.12s0,.05.09.11l.12.11v3.51l.21.23v4.12l.21.24v.6l.59.3h.54l.22.21a1,1,0,0,1,.66.19c.16.07.36,0,.55.17s.45.05.66.07l.17.17.45,0,.18.18h.61l.23.21h.4l.23.21Zm13.25,27.24c.14.13.32.28.49.45a1.41,1.41,0,0,1,.39.56,1.35,1.35,0,0,0,.49.52c.2.15.23.39.37.57a4.54,4.54,0,0,0,.58.58c.21.18.16.51.43.66s.32.4.46.63a3.4,3.4,0,0,0,.49.52c.17.2.47.31.44.64a4.18,4.18,0,0,0,.52.51c.24.16.26.46.44.65a5.63,5.63,0,0,1,.81,1c.21.37.62.59.8,1,.1.24.41.39.5.62a1.94,1.94,0,0,0,.52.61,3.54,3.54,0,0,1,.44.65,2.13,2.13,0,0,0,.58.58c.26.19.3.51.5.73a4.54,4.54,0,0,1,.76.92c.22.4.65.65.87,1.09s.52.49.71.84a5.84,5.84,0,0,0,.81,1v.16c.24.18.34.53.71.53,0,0,.05,0,.1-.08v-.87l-.19-.19v-.63l-.18-.18c-.06-.36,0-.74,0-1.07l-.17-.18c0-.37,0-.74,0-1.09l-.18-.15v-1l-.21-.23v-.81l-.19-.19v-.83l-.22-.22v-1l-.22-.22v-1l-.22-.21V59.5l-.18-.17v-1l-.21-.23v-1l-.19-.19V56l-.22-.22v-1l-.22-.22v-.83l-.21-.22v-1l-.19-.18v-1l-.21-.23v-.81l-.21-.24V49l-.2-.2v-1l-.21-.22V46.7l-.22-.21v-.83l-.19-.19v-1l-.21-.23v-1L116,43v-.81l-.19-.19v-1l-.22-.22v-1l-.22-.22v-.83l-.18-.18c0-.37,0-.75,0-1.09L115,37.2v-1l-.21-.23v-.82l-.31-.3-.28.3c.1.38-.36.64-.23,1-.19.11-.15.38-.29.49s0,.49-.21.64,0,.57-.29.71c0,0,0,.06,0,.09v.51l-.41.74v.34l-.21.22v.41l-.21.22c.16.34-.21.54-.22.85s-.25.52-.23.83c-.31.17,0,.62-.37.78v.41l-.21.22V44l-.22.24c0,.12,0,.35,0,.38-.32.19,0,.63-.35.8,0,.34-.27.59-.25.93s-.25.36-.23.64-.16.4-.25.6-.15.19-.13.25c.09.31-.23.46-.23.75s-.26.52-.23.83c-.29.13,0,.49-.23.62s-.05.46-.21.64l-.14.15v.41l-.21.22v.41c-.27.15-.12.47-.24.62s-.12.38-.19.55-.23.39-.2.65c0,.07-.11.15-.19.25Zm-53.88,65h.62l.23.21h.39l.24.22H56l.18.17c.22.11.53-.11.75.13s.56,0,.7.3H58l.23.21h.61l.23.22h.39l.22.18c.23,0,.49,0,.62.06s.38.11.56.18a1.3,1.3,0,0,0,.64.2c.07,0,.16.12.25.19h.59l.23.21H63l.23.22h.6s.07,0,.08.08c.17.25.56,0,.72.28,0,0,.19,0,.29,0s.34-.06.47.12.4,0,.56.14l.15.15h.4l.23.22h.61l.23.21H68l.23.2a3,3,0,0,0,.43,0c.16,0,.24.11.35.17s.27,0,.39,0a1.12,1.12,0,0,1,.3.2h.56l.23.2h.39l.23.21h1a2.28,2.28,0,0,0,.22-.22c.13-.15.09-.4.3-.5s.15-.43.36-.57a1.14,1.14,0,0,0,.31-.49c.1-.21.34-.34.49-.52s.08-.25.16-.35.3-.25.31-.38c0-.3.36-.36.39-.56s.3-.44.46-.65a6.65,6.65,0,0,1,.62-.88c0-.29.35-.35.38-.56a.8.8,0,0,1,.32-.49c.18-.16.14-.43.36-.58a1.74,1.74,0,0,0,.46-.63c.11-.22.31-.41.43-.65s.28-.33.38-.57.36-.4.56-.59c0-.33.3-.42.42-.66s.07-.34-.11-.49H77.17a.64.64,0,0,0-.18.06l-.14.14H75l-.23.21H72.7l-.18.19H70.45l-.22.22h-1l-.21.22H67.11l-.18.19c-.71,0-1.43,0-2.09,0l-.19.19H62.79l-.23.21H60.5l-.18.19H58.25l-.22.22H57l-.21.22H54.91l-.19.2h-2s-.05,0-.08.06l-.15.14H50.59l-.23.22h-2a2.37,2.37,0,0,1-.43.19c-.12,0-.27,0-.38.12l0,.27.48,0,.24.19h.57l.22.19.43,0c.1.09.14.14.19.19h.41l.23.21H51l.23.2a3.07,3.07,0,0,1,.53,0c.12,0,.21.16.33.19s.35,0,.47.12.44,0,.55.15.46.06.64.22ZM43.75,12.69l.23-.21h.4l.24-.21h.6l.15-.16c.24-.14.55.11.77-.15s.53,0,.77-.14l.14-.15.65,0,.19-.19h.62l.23-.21h.39l.24-.21H50l.24-.2h.53c.16,0,.23-.25.43-.21a2.34,2.34,0,0,0,.46,0l.19-.19.65,0,.19-.19h.61l.23-.21h.4l.23-.21h.6l.23-.2h.54c.16,0,.22-.25.43-.21a2.9,2.9,0,0,0,.42,0l.28-.2h.56L57.41,9H58l.23-.21h.4l.24-.21h.82c.06-.28.49-.08.5-.41s-.22-.33-.37-.46-.59-.3-.79-.57c-.3,0-.36-.3-.57-.37A.9.9,0,0,1,58,6.43c-.15-.2-.43-.15-.59-.35a2.3,2.3,0,0,0-.56-.38l-.72-.51a3.39,3.39,0,0,1-.8-.56c-.3,0-.36-.32-.56-.37a1.54,1.54,0,0,1-.58-.38c-.18-.12-.41-.16-.57-.36s-.28-.14-.42-.23S52.94,3,52.7,3s-.32-.44-.66-.42c-.09,0-.19-.18-.3-.26s-.23-.36-.48-.34c-.32-.34-.8-.46-1.1-.83h-.41c-.19.13-.27.38-.55.43s-.39.45-.74.45c-.25.37-.71.5-1,.81s-.75.44-1,.79a.53.53,0,0,1-.33.22c-.14,0-.25.21-.39.3a3.36,3.36,0,0,0-.42.22c-.18.15-.35.33-.52.5-.34,0-.42.31-.64.45s-.16.17-.23.16c-.33,0-.36.41-.66.43s-.38.27-.54.43-.48.21-.66.43a1,1,0,0,1-.55.4c-.23.07-.37.43-.6.54a2,2,0,0,0-.57.38c-.12.09-.29.13-.42.22a4.21,4.21,0,0,0-.37.36s-.1.13-.15.13c-.3,0-.36.32-.57.37a1,1,0,0,0-.56.39c-.16.19-.39.23-.57.36s-.32.42-.53.49a1.24,1.24,0,0,0-.63.46c-.15.21-.45.15-.57.36s-.41.21-.58.37-.34.34-.51.51c-.41,0-.5.48-.8.56s-.51.53-.92.53c-.17.17-.31.41-.51.5a1.35,1.35,0,0,0-.63.46c-.15.21-.41.19-.59.35s-.3.46-.62.5-.32.46-.65.41l-.74.7s0,.05,0,.08a1.42,1.42,0,0,0,.68,0l.22-.19c.19,0,.36,0,.54,0s.22-.25.43-.21a1.94,1.94,0,0,0,.42,0l.27-.2c.25,0,.45.05.64-.06l.15-.15h.61l.23-.21H34l.24-.21h.59l.23-.2h.54c.16,0,.22-.25.43-.21a3.05,3.05,0,0,0,.43,0l.27-.2c.24,0,.45,0,.64-.06a.93.93,0,0,0,.14-.14c.23-.05.48,0,.7-.07l.14-.15H39l.23-.21h.39l.24-.21h.6l.2-.2h.59l.3-.23h.58l.2-.21H43l.18-.18Zm57.87,95.15c-.11.39-.6,0-.75.37l-.69.05c-.14.32-.45.09-.64.24l-.15.15h-.61l-.23.21h-.4l-.24.21h-.59l-.23.2c-.16,0-.3,0-.43,0s-.23.11-.35.17-.27,0-.39,0a1.72,1.72,0,0,0-.3.19h-.56l-.22.21h-.4l-.23.21h-.4l-.24.21H93l-.25.22c-.49-.18-.88.36-1.36.17l-.25.21-.44,0-.18.18h-.61l-.23.21h-.4l-.24.22h-.61c-.16.35-.62,0-.78.37L87,112l-.17.17-.66,0-.18.18h-.41l-.23.21h-.4l-.23.22h-.59l-.24.19a2.31,2.31,0,0,0-.53,0c-.18,0-.3.23-.54.21s-.29.13-.44.2-.4,0-.59,0l-.14.15H81l-.23.21h-.35c-.24.14-.44.25-.63.38s-.13.43-.36.57-.22.56-.51.72-.3.59-.59.79-.14.43-.36.57c-.38.24-.45.74-.8,1,0,.39-.5.46-.45.85-.36.26-.44.75-.8,1-.08.06-.2.16-.19.23,0,.33-.37.39-.42.65s-.39.46-.56.71c0,.07,0,.19-.08.27s-.35.28-.42.56-.33.35-.37.56-.39.35-.45.64a1.86,1.86,0,0,1-.37.54c.22.15.47.05.7.07.2-.17.33-.43.64-.44.37-.32.93-.35,1.22-.8a2.4,2.4,0,0,0,.87-.41c.25-.13.56-.16.76-.39.39.06.46-.51.85-.44.31-.3.76-.36,1.09-.62.35,0,.39-.49.76-.41.47-.35,1-.51,1.52-.83.35,0,.38-.5.76-.41.25-.27.63-.32.93-.51.13-.08.28-.13.42-.22s.24-.32.49-.32.23-.25.43-.19c.11-.2.34-.19.51-.29.38-.24.85-.35,1.14-.73.27,0,.46-.21.7-.3a5,5,0,0,0,.77-.38c.25-.14.45-.37.73-.5s.57-.28.86-.42.39-.23.58-.36.45-.23.67-.35.41-.18.6-.31a6,6,0,0,0,.76-.39,5.68,5.68,0,0,1,.92-.54,5.71,5.71,0,0,0,.6-.31c.17-.14.39-.2.57-.37a3.6,3.6,0,0,1,.68-.34c.2-.1.39-.22.59-.33a3.23,3.23,0,0,0,.77-.37,3.18,3.18,0,0,1,.92-.54,4.13,4.13,0,0,0,.58-.33c.17-.11.4-.08.5-.29s.34-.19.51-.29.56-.3.85-.44.29-.14.42-.22.24-.35.5-.29c.16-.24.45-.25.67-.4s.54-.19.76-.4.26,0,.35-.15.31-.23.35-.44A1.63,1.63,0,0,0,101.62,107.84ZM51.29,1.42c.18.16.35.43.58.49s.35.35.56.4a.88.88,0,0,1,.49.32c.15.19.43.14.59.35s.37.25.55.37.48.35.72.51a2.33,2.33,0,0,1,.72.52c.39,0,.47.48.85.45.21.27.56.35.78.58s.64.25.81.57a1.16,1.16,0,0,1,.64.44c.15.25.49.21.64.44s.51.2.65.44.47.21.66.43a2.73,2.73,0,0,0,.62.4h1l.27-.22h2.65l.19-.18h2.45s0,0,.08-.06L68,7.52h2.27s0,0,.07-.06l.15-.15h2.68l.23-.21H76l.19-.19H78.7l.22-.22h2.89L82,6.48h1.84l.57-.29c-.24-.14-.46-.14-.58-.33H82.43l-.24-.21h-1L81,5.46H79.74l-.22-.22H78.28L78.07,5H77l-.18-.19H75.61l-.23-.21H74.16l-.24-.21H72.7l-.19-.19H71.29L71,4H70l-.17-.16c-.37,0-.74,0-1.07,0l-.18-.19H67.14l-.23-.21H65.68l-.23-.21h-1L64.24,3H62.79l-.22-.22h-1l-.19-.18c-.36-.06-.74,0-1.07-.05l-.18-.18H58.66s0,0-.08-.06l-.15-.15h-1l-.23-.21H56l-.19-.19H54.31l-.22-.22h-.82l-.22-.22H51.81c-.16-.16-.28-.3-.46-.13ZM44.48,117.06s-.08-.12-.13-.13c-.28-.05-.51-.3-.83-.24-.21-.22-.53-.24-.76-.4s-.52-.15-.66-.4a.64.64,0,0,1-.64-.21c-.24.08-.32-.27-.54-.2s-.4-.19-.63-.23-.43-.33-.67-.37-.5-.37-.83-.24c-.1-.21-.37-.15-.5-.29s-.36-.12-.51-.28-.37,0-.56-.15a3.6,3.6,0,0,0-.85-.44c-.29-.12-.55-.37-.91-.3a3.67,3.67,0,0,0-1.48-.66c-.08-.2-.33-.08-.42-.22s-.38-.1-.52-.28-.29-.08-.42-.22-.38,0-.56-.15a2.37,2.37,0,0,0-.59-.31c-.24-.11-.45-.3-.74-.21-.11-.24-.44-.14-.57-.36-.28,0-.43-.28-.73-.27a.93.93,0,0,1-.6-.26c-.18-.16-.47-.1-.59-.35a.59.59,0,0,1-.63-.21c-.36-.05-.63-.32-1-.41-.15,0-.23-.27-.43-.2s-.34-.17-.53-.22-.29-.17-.44-.19-.22-.23-.32-.2c-.31.08-.5-.15-.74-.23a1.88,1.88,0,0,1-.59-.32c-.22-.17-.57,0-.71-.29-.28.11-.36-.33-.64-.21-.15-.24-.47-.21-.65-.41-.26.06-.44-.09-.64-.21s-.48-.12-.6-.27-.46-.06-.65-.21-.59-.26-.85-.45a.46.46,0,0,0-.63,0c.17.17.33.35.51.51s.28.36.54.44.36.29.54.44.28.4.58.37l.8.8c.35,0,.53.29.71.52s.51.29.73.5a5.09,5.09,0,0,0,1.14,1c.38.19.61.59,1,.81s.65.65,1.09.87c.26.13.41.49.68.62a2.09,2.09,0,0,1,.7.54,4.07,4.07,0,0,0,.72.51c.19.14.33.35.52.5s.26.43.56.39a5.22,5.22,0,0,1,.58.57c.16.2.41.22.59.36s.46.58.83.73.55.49.83.74c.11.08.19.2.3.28s.13,0,.2,0a4.61,4.61,0,0,1,.58.59c.17.23.48.2.66.43a2.74,2.74,0,0,0,.51.51,3.91,3.91,0,0,0,.56.31h1l.2-.2h.83l.22-.22h.84l.16-.18h.83l.23-.22h.82l.19-.19h.82l.22-.22h.83l.19-.19h1l.23-.2c.29,0,.6,0,.87,0S44.52,117.28,44.48,117.06ZM25.14,19.31l1.76-1.75a.82.82,0,0,0-.49-.32l-.27.23h-.81l-.19.19h-.82l-.23.21h-.81l-.19.19h-.83l-.22.21H21l-.22.22H20l-.19.19h-1l-.23.21h-.61l-.23.22h-.61c-.46.18-.46.73-.8,1a.94.94,0,0,0-.22.42c-.11.38-.51.6-.59,1-.28.16-.3.51-.51.72,0,.35-.36.46-.46.74-.19.59-.71,1-.85,1.61A2.44,2.44,0,0,0,13,25.68c-.46.4-.55,1-1,1.46,0,.22-.22.3-.23.53s-.37.28-.39.55-.28.3-.23.53a2.3,2.3,0,0,0-.66,1.07c-.46.39-.55,1-1,1.46,0,.22-.22.3-.23.53s-.37.27-.39.55-.21.31-.25.52-.36.27-.39.57-.34.29-.4.55a2,2,0,0,1-.3.6c-.13.18-.35.31-.36.57-.21.1-.1.39-.29.5s-.27.37-.36.57A2.35,2.35,0,0,1,6,37c.07.17-.06.36.14.47l1.09-1.1a11,11,0,0,0,1-1c.32-.41.83-.55,1.17-.94s.53-.54.8-.8l.87-.88.81-.8.8-.81a12,12,0,0,0,.87-.88c.24-.3.62-.38.87-.65s.59-.59.88-.88l.8-.8.88-.88.87-.87.88-.88.8-.8c.47-.05.66-.47.94-.74,1.49-1.47,3-3,4.46-4.45ZM51.41,121.68l.22.21h1l.18.19h1.24l.22.22h1.24l.22.22h1l.19.19h1.43s0,0,.08,0l.15.15h1l.23.21h1.23l.23.21h1.23l.19.2h1l.29.23h1.21l.18.18H67.1s.05,0,.08,0l0-.07c-.2-.1-.41-.28-.61-.27s-.4-.24-.63-.22a.71.71,0,0,1-.54-.21c-.42.15-.75-.24-1.15-.22-.11,0-.21-.14-.29-.19-.24,0-.45,0-.64-.06l-.12-.12c-.25-.09-.5,0-.74-.11l-.12-.13H62l-.23-.21h-.39l-.23-.2a3.21,3.21,0,0,1-.54,0c-.08,0-.16-.16-.23-.16-.44,0-.78-.42-1.23-.22l-.26-.23h-.39l-.23-.21h-.41l-.23-.21H57c-.16-.35-.61-.06-.78-.38l-.66,0-.24-.19h-.56l-.23-.2h-.4l-.22-.21h-.41l-.23-.21h-.39l-.24-.22a1.2,1.2,0,0,1-.86-.17c-.14-.1-.36,0-.55-.18s-.45-.06-.65-.07l-.21-.21h-.62l-.18-.18h-.41l-.23-.21H48.5c-.12-.23-.33-.19-.54-.21s-.3-.27-.53-.2-.43-.13-.64-.2a2.05,2.05,0,0,0-.55,0l-.2-.2a8,8,0,0,0-.85,0l-.19.2h-.82L44,118h-.81l-.24.21h-1l-.2.2h-1l-.21.21c-.21,0-.45,0-.68,0s-.44.33-.75.2l-.23.21h-1l-.23.21h-.61l-.37.37a1.29,1.29,0,0,1,.87.27h1.18l.17.17c.43,0,.88,0,1.28,0l.18.18h1.23s.05,0,.08.07l.15.14h1.23l.23.21h1l.19.19h1.45l.21.22h1l.22.22h1.24l.22.22H50l.18.18ZM18.84,18.17s.05.07.07.07H20l.18-.18h1s0,0,.08-.05l.14-.15c.3,0,.61,0,.87,0l.17-.2h1l.22-.2h.94l.1,0a.46.46,0,0,0,.07-.07c.17-.26.56,0,.7-.29l.89-.06.2-.2h.82l.19-.18H28a4.44,4.44,0,0,0,.43-.44c.17-.22.48-.2.66-.43a1.12,1.12,0,0,1,.55-.41c.23-.06.4-.35.6-.54a.18.18,0,0,1,.08-.05c.34.05.38-.38.66-.41s.43-.32.61-.5.39-.09.52-.28.26-.38.43-.42.38-.28.58-.38a1.44,1.44,0,0,0,.63-.45c.14-.22.4-.21.58-.36s.31-.45.61-.51.38-.28.54-.45.51-.18.65-.43.37-.1.5-.29a1.1,1.1,0,0,1,.44-.42,1,1,0,0,0,.56-.39c.16-.25.48-.24.64-.44s.4-.22.58-.36.38-.42.62-.51a1.8,1.8,0,0,0,.6-.52c.16-.15.39-.09.52-.28s.27-.39.43-.42c.31-.06.42-.38.65-.43a1,1,0,0,0,.56-.4c.18-.22.5-.2.65-.43s.35-.18.5-.3.31-.43.52-.48c.39-.12.54-.55.86-.66s.61-.52,1-.77c-.13,0-.24-.11-.31-.08a4.24,4.24,0,0,0-.59.33c-.16.1-.4.08-.5.29s-.34.19-.5.29-.56.3-.85.44-.29.14-.42.22-.22.24-.4.3a5.4,5.4,0,0,0-1,.51,2.86,2.86,0,0,0-.52.27c-.1.09-.32.09-.41.24s-.34.19-.5.28-.57.3-.85.44-.29.14-.43.23-.23.35-.49.29a8.84,8.84,0,0,1-1.36.72,4.07,4.07,0,0,0-.65.43,5,5,0,0,1-.77.38,3.14,3.14,0,0,0-1.14.73,1.75,1.75,0,0,0-.7.3,2.8,2.8,0,0,0-.93.51c-.28.3-.69.34-1,.57s-.39.09-.5.29c-.27-.08-.37.31-.63.23a1.85,1.85,0,0,1-.64.45,5,5,0,0,0-.77.38,1.56,1.56,0,0,0-.51.27,2.51,2.51,0,0,1-.92.54c-.2.08-.38.25-.58.32s-.45.24-.7.32-.38.33-.64.44a7.92,7.92,0,0,0-.78.37,2.65,2.65,0,0,0-.5.27,2.73,2.73,0,0,1-1,.58c-.21.09-.38.33-.58.34s-.36.33-.63.25a7,7,0,0,1-1.74,1s-.13,0-.18.06-.23.35-.47.35-.29.27-.53.25C19,17.89,18.93,18.07,18.84,18.17ZM7.05,90.78a.72.72,0,0,0,.21.64c-.12.34.14.57.26.82a1.85,1.85,0,0,0,.56.8c.09.06.2.16.2.23,0,.33.39.39.41.65s.26.41.43.55.18.49.42.66a.89.89,0,0,1,.45.64c.26.18.34.48.51.72a2.4,2.4,0,0,1,.53.71c.1.3.57.39.57.8l.62.67c-.05.35.48.39.41.76.21.22.5.42.6.68a2.59,2.59,0,0,0,.49.63c.18.23.23.55.51.72.07,0,.12.09.28.21,0-.27,0-.48-.06-.58s-.23-.46-.37-.68-.23-.46-.34-.69a2.71,2.71,0,0,0-.38-.76c-.2-.22,0-.58-.28-.72.06-.26-.29-.37-.24-.63-.17-.13-.16-.36-.28-.5s-.12-.45-.34-.58c0-.26-.23-.37-.26-.63s-.31-.37-.32-.57-.21-.33-.26-.53a1.14,1.14,0,0,0-.29-.59c-.21-.2,0-.46-.2-.65a2.1,2.1,0,0,1-.32-.59,2.76,2.76,0,0,0-.28-.6c-.15-.18-.12-.46-.35-.59.07-.26-.23-.37-.25-.63s-.24-.37-.33-.57,0-.49-.23-.63c.1-.27-.33-.36-.22-.63-.21-.11-.18-.34-.29-.51a5.45,5.45,0,0,1-.33-.58A2.62,2.62,0,0,0,8,87.62c-.16-.18-.11-.47-.35-.58.09-.24-.19-.33-.22-.53a1.11,1.11,0,0,0-.3-.59c-.2-.2,0-.46-.2-.66a1.08,1.08,0,0,1-.3-.59c0-.2-.24-.29-.25-.53s-.23-.37-.34-.57-.15-.43-.26-.62-.14-.4-.27-.5,0-.46-.2-.65a6.2,6.2,0,0,1-.54-1c-.18-.33-.33-.69-.5-1s-.36-.75-.55-1.11-.35-.68-.54-1l-.3.09.22.24v.61l.21.23v.32a1.58,1.58,0,0,1,.19.42.71.71,0,0,0,.17.46c.07.08,0,.26.05.39s.25.22.21.43a3.08,3.08,0,0,0,0,.43l.2.23v.39l.21.23v.4l.21.23v.41c.34.14.09.52.3.71s.1.23.11.37-.06.34.11.47,0,.39.15.56l.14.14,0,.44L5.6,86v.42l.21.22V87l.19.21c0,.24,0,.5.06.63s.11.38.18.55a1.31,1.31,0,0,1,.2.65c0,.07.12.15.19.24v.39l.21.23v.61Zm110-9.34c0,.19,0,.38,0,.44s-.15.36-.27.52a1.5,1.5,0,0,0-.3.59c0,.21-.31.29-.22.53-.21.11-.18.34-.29.51a2.19,2.19,0,0,0-.32.58c0,.19,0,.42-.19.54.06.26-.29.37-.23.63-.24.16-.18.5-.41.66.06.26-.3.36-.23.62-.32.15-.15.48-.28.72-.45.8-.84,1.64-1.26,2.47-.1.2-.29.4-.28.59a1.34,1.34,0,0,1-.24.64c-.11.26-.29.51-.39.77a5.83,5.83,0,0,0-.69,1.67,9.61,9.61,0,0,0-.56,1.11,5.54,5.54,0,0,1-.32.59c-.12.16-.08.4-.29.5.09.27-.31.36-.22.63-.23.12-.17.42-.36.58s0,.38-.14.56a2.73,2.73,0,0,0-.33.58c-.23.49-.46,1-.7,1.47-.26.15,0,.45-.21.64a2.51,2.51,0,0,0-.31.59l.29,0c.16-.15.08-.42.3-.52s.15-.38.3-.48.27-.54.51-.73c0-.36.41-.44.43-.75s.23-.29.25-.52.36-.27.39-.56.23-.31.25-.52c0,0,.08-.1.14-.14.23-.2.28-.5.43-.75s.15-.47.31-.59.31-.58.56-.81.29-.65.53-.91a2.88,2.88,0,0,0,.46-.84.33.33,0,0,1,.12-.16c.26-.14.29-.43.42-.65a3.5,3.5,0,0,1,.36-.58,2.55,2.55,0,0,0,.34-.68.33.33,0,0,1,.12-.16c.26-.14.29-.43.43-.65a3.2,3.2,0,0,1,.35-.58,2.55,2.55,0,0,0,.34-.68.64.64,0,0,1,.11-.16c.44-.37.47-1,.93-1.37,0-.26.22-.32.31-.49a1.49,1.49,0,0,0,.31-.91l.2-.23v-.61l.22-.22v-.62c.22-.12.18-.33.21-.54s.25-.3.2-.53a.67.67,0,0,1,.16-.56c.1-.13,0-.39,0-.63l.18-.21,0-.43.18-.19v-.61l.22-.23V80l.21-.24v-.63c.39-.12,0-.61.37-.76l.06-.68c.25-.14.17-.36.18-.57l.2-.23v-.6l.23-.24-.07-.28h-.3c-.1.26-.19.5-.3.73a3.89,3.89,0,0,0-.35.58c-.07.25-.25.44-.3.7-.3.15-.06.49-.27.72a3.41,3.41,0,0,0-.48.93,3.32,3.32,0,0,0-.43,1,.61.61,0,0,0-.21.63Zm3.92-15V63.88l-.21-.23V60.36l-.21-.24v-3.7l-.2-.2c0-1,0-2,0-3a6.63,6.63,0,0,0-.27-1.34c0-.08-.11-.15-.15-.2v-.57l-.21-.23v-.4l-.21-.23v-.32a2.11,2.11,0,0,1-.2-.41.65.65,0,0,0-.16-.46c-.07-.08,0-.26,0-.39s-.25-.22-.21-.43a3.08,3.08,0,0,0,0-.43l-.19-.22,0-.45-.18-.18v-.41l-.21-.23v-.39l-.21-.24V45a.39.39,0,0,1-.2-.44c0-.21-.2-.27-.2-.43a.75.75,0,0,0-.19-.56c-.08-.09,0-.31-.05-.44l-.18-.18v-.4l-.21-.23v-.61l-.21-.23c.16-.34-.19-.54-.22-.85s-.3-.59-.17-1c-.09-.14-.23-.23-.24-.43s-.16-.26-.4-.32c0,.39,0,.76,0,1.12l.22.24v.8l.21.25V42l.21.27v1l.17.16c0,.37,0,.75,0,1.08l.18.18c0,.37,0,.74,0,1.06l.18.2v1l.22.23V48l.19.19V49l.22.22v1l.21.22v.83l.19.18a9.78,9.78,0,0,0,0,1.09l.18.16V54l.22.23V55l.19.19V56l.22.22v.83l.21.21v1l.22.22v1l.18.17v1l.22.23v1l.19.19V63l.21.22v.83l.22.21v1l.22.22v.88Zm-9-36.32c-.19-.36-.52-.49-.53-.83-.37-.25-.5-.71-.81-1s-.44-.75-.8-1a.57.57,0,0,1-.22-.33c0-.14-.2-.25-.29-.39a3.42,3.42,0,0,0-.23-.42,6.14,6.14,0,0,0-.5-.52c0-.29-.2-.42-.37-.56s-.21-.4-.36-.58-.45-.32-.51-.62-.28-.37-.45-.53-.2-.49-.43-.66-.16-.49-.43-.65a.89.89,0,0,1-.4-.56.41.41,0,0,0-.48-.29l-1-1H104a7.93,7.93,0,0,0-1.1-.91c-.4-.2-.66-.63-1.08-.87a5.19,5.19,0,0,1-1-.91c-.48-.1-.65-.58-1-.83H99.6a7.14,7.14,0,0,0-1.15-1c-.37-.22-.61-.67-1-.88a11.78,11.78,0,0,1-1-.85h-.19l-.81-.8h-.2a7.48,7.48,0,0,0-1.38-1.18c-.23-.11-.37-.4-.59-.56a2.76,2.76,0,0,1-.65-.44c-.11-.15-.26-.17-.38,0l19.3,19.3s.07,0,.13,0Zm3.79,8.6.07-.07a.46.46,0,0,0-.14-.07s0,0-.07.07Z"/></g></g></svg>