<svg xmlns="http://www.w3.org/2000/svg" viewBox="0 0 125.58 125.58"><title>Recurso 64MANDALA</title><g id="Capa_2" data-name="Capa 2"><g id="Capa_1-2" data-name="Capa 1"><path d="M25.93,23A61.78,61.78,0,0,1,44.8,76.44,56,56,0,0,1,26,114a65.2,65.2,0,0,0,21.28-38.1A59.47,59.47,0,0,0,25.93,23Z"/><path d="M63.79,124C46.72,120.54,37.07,111,35.91,99.1c-1.5-8.4,2-18.14,11-27.39-9.31,9.62-13.52,19.57-13.18,28.43C35,111.82,45.58,121.25,63.79,124Z"/><path d="M11,46.73A61.77,61.77,0,0,1,54,83.61a56,56,0,0,1,2.48,42A65.18,65.18,0,0,0,55.89,82,59.48,59.48,0,0,0,11,46.73Z"/><path d="M94.29,115.34c-16.54,5.49-29.69,2-36.63-7.66-5.49-6.53-7.34-16.7-4.2-29.21-3.25,13-1.92,23.72,2.8,31.22C63.25,119.14,77.12,122,94.29,115.34Z"/><path d="M9.87,74.8A61.78,61.78,0,0,1,65.62,85.2a56,56,0,0,1,23.14,35.11A65.19,65.19,0,0,0,66.39,82.83,59.46,59.46,0,0,0,9.87,74.8Z"/><path d="M116.34,92.55c-11.57,13-24.7,16.6-35.55,11.68-8-2.91-14.71-10.79-18.24-23.19,3.68,12.87,10.19,21.5,18,25.63C91.36,111.36,104.81,106.92,116.34,92.55Z"/><path d="M23,99.66A61.78,61.78,0,0,1,76.44,80.78,56,56,0,0,1,114,99.62a65.2,65.2,0,0,0-38.1-21.28A59.48,59.48,0,0,0,23,99.66Z"/><path d="M124,61.79C120.54,78.86,111,88.51,99.1,89.68c-8.4,1.49-18.14-2-27.39-11C81.33,88,91.28,92.24,100.14,91.9,111.82,90.56,121.25,80,124,61.79Z"/><path d="M46.73,114.63A61.77,61.77,0,0,1,83.61,71.54a56,56,0,0,1,42-2.48A65.24,65.24,0,0,0,82,69.69,59.49,59.49,0,0,0,46.73,114.63Z"/><path d="M115.34,31.3c5.49,16.53,2,29.68-7.66,36.62-6.53,5.49-16.7,7.35-29.21,4.21,13,3.24,23.72,1.92,31.22-2.81C119.14,62.33,122,48.46,115.34,31.3Z"/><path d="M74.8,115.72A61.79,61.79,0,0,1,85.2,60a56,56,0,0,1,35.11-23.13A65.17,65.17,0,0,0,82.83,59.19,59.47,59.47,0,0,0,74.8,115.72Z"/><path d="M92.55,9.24c13,11.58,16.6,24.7,11.68,35.55C101.32,52.81,93.44,59.5,81,63c12.87-3.68,21.5-10.19,25.63-18C111.36,34.22,106.92,20.77,92.55,9.24Z"/><path d="M99.66,102.62A61.77,61.77,0,0,1,80.78,49.14,56,56,0,0,1,99.62,11.55a65.23,65.23,0,0,0-21.28,38.1A59.48,59.48,0,0,0,99.66,102.62Z"/><path d="M61.79,1.54C78.86,5.05,88.51,14.63,89.68,26.48c1.49,8.4-2,18.14-11,27.4C88,44.25,92.24,34.3,91.9,25.44,90.56,13.76,80,4.33,61.79,1.54Z"/><path d="M114.63,78.85A61.77,61.77,0,0,1,71.54,42,56,56,0,0,1,69.06,0a65.27,65.27,0,0,0,.63,43.64A59.46,59.46,0,0,0,114.63,78.85Z"/><path d="M31.3,10.25c16.53-5.5,29.68-2,36.62,7.66,5.49,6.52,7.35,16.7,4.21,29.2,3.24-13,1.92-23.71-2.81-31.22C62.33,6.45,48.46,3.56,31.3,10.25Z"/><path d="M115.72,50.78A61.79,61.79,0,0,1,60,40.39,56,56,0,0,1,36.83,5.28,65.18,65.18,0,0,0,59.19,42.75,59.45,59.45,0,0,0,115.72,50.78Z"/><path d="M9.24,33c11.58-13,24.7-16.59,35.55-11.67,8,2.9,14.71,10.78,18.24,23.18C59.35,31.67,52.84,23.05,45,18.91,34.22,14.23,20.77,18.66,9.24,33Z"/><path d="M102.62,25.93A61.77,61.77,0,0,1,49.14,44.8,56,56,0,0,1,11.55,26a65.23,65.23,0,0,0,38.1,21.28A59.47,59.47,0,0,0,102.62,25.93Z"/><path d="M1.54,63.79C5.05,46.72,14.63,37.07,26.48,35.91c8.4-1.5,18.14,2,27.4,11C44.25,37.56,34.3,33.35,25.44,33.69,13.76,35,4.33,45.58,1.54,63.79Z"/><path d="M78.85,11A61.77,61.77,0,0,1,42,54,56,56,0,0,1,0,56.52a65.21,65.21,0,0,0,43.64-.63A59.44,59.44,0,0,0,78.85,11Z"/><path d="M10.25,94.29c-5.5-16.54-2-29.69,7.66-36.63,6.52-5.49,16.7-7.34,29.2-4.2-13-3.25-23.71-1.92-31.22,2.8C6.45,63.25,3.56,77.12,10.25,94.29Z"/><path d="M50.78,9.87A61.78,61.78,0,0,1,40.39,65.62,56,56,0,0,1,5.28,88.76,65.19,65.19,0,0,0,42.75,66.39,59.43,59.43,0,0,0,50.78,9.87Z"/><path d="M33,116.34c-13-11.57-16.59-24.7-11.67-35.55,2.9-8,10.78-14.71,23.18-18.24-12.87,3.68-21.49,10.19-25.63,18C14.23,91.36,18.66,104.81,33,116.34Z"/><path d="M25.93,23A61.78,61.78,0,0,1,44.8,76.44,56,56,0,0,1,26,114a65.2,65.2,0,0,0,21.28-38.1A59.47,59.47,0,0,0,25.93,23Z"/><path d="M63.79,124C46.72,120.54,37.07,111,35.91,99.1c-1.5-8.4,2-18.14,11-27.39-9.31,9.62-13.52,19.57-13.18,28.43C35,111.82,45.58,121.25,63.79,124Z"/></g></g></svg>