<svg xmlns="http://www.w3.org/2000/svg" viewBox="0 0 102.48 103.07"><title>Recurso 91MANDALA</title><g id="Capa_2" data-name="Capa 2"><g id="Capa_1-2" data-name="Capa 1"><polygon points="83.06 11.38 93.21 21.53 42.34 38.76 32.19 28.61 83.06 11.38"/><polygon points="49.79 0 64.09 1.25 36.19 47.15 21.89 45.89 49.79 0"/><polygon points="16.98 12.67 28.74 4.44 36.87 57.52 25.11 65.76 16.98 12.67"/><polygon points="0 43.46 3.71 29.59 44.07 65.04 40.35 78.9 0 43.46"/><polygon points="6.78 77.96 0.71 64.95 54.41 66.17 60.47 79.18 6.78 77.96"/><polygon points="34.15 100.04 21.14 93.97 63.05 60.39 76.06 66.45 34.15 100.04"/><polygon points="69.31 99.35 55.45 103.07 65.96 50.4 79.83 46.68 69.31 99.35"/><polygon points="95.8 76.23 87.57 87.99 61.77 40.88 70.01 29.12 95.8 76.23"/><polygon points="101.23 41.48 102.48 55.78 52.44 36.28 51.19 21.98 101.23 41.48"/></g></g></svg>