<svg xmlns="http://www.w3.org/2000/svg" viewBox="0 0 102.76 104.82"><defs><style>.cls-1{fill:#020100;}</style></defs><title>Recurso 2MANDALA</title><g id="Capa_2" data-name="Capa 2"><g id="Capa_1-2" data-name="Capa 1"><path class="cls-1" d="M17.65,12.7a27.87,27.87,0,0,0,3.17,13l6.45-3.8,9.81,17.32a26.37,26.37,0,0,0,7.63,1.12V12.7Z"/><path class="cls-1" d="M0,48.66a26.71,26.71,0,0,0,11.23,6.88l1.93-7.34L32.1,53.37a27.25,27.25,0,0,0,6.17-4.71L19.13,29.14Z"/><path class="cls-1" d="M12.45,86.82a26.54,26.54,0,0,0,12.71-3.23L21.43,77l17-10a28.13,28.13,0,0,0,1.1-7.78H12.45Z"/><path class="cls-1" d="M47.7,104.82a27.54,27.54,0,0,0,6.75-11.45l-7.21-2,5.08-19.32a27.31,27.31,0,0,0-4.62-6.29L28.57,85.31Z"/><path class="cls-1" d="M85.11,92.12a27.94,27.94,0,0,0-3.17-13L75.48,83l-9.8-17.32a26.72,26.72,0,0,0-7.63-1.12v27.6Z"/><path class="cls-1" d="M102.76,56.16a26.92,26.92,0,0,0-11.23-6.88L89.6,56.63,70.66,51.45a27,27,0,0,0-6.17,4.71L83.62,75.68Z"/><path class="cls-1" d="M90.31,18A26.51,26.51,0,0,0,77.6,21.23l3.73,6.59-17,10a28.39,28.39,0,0,0-1.09,7.78H90.31Z"/><path class="cls-1" d="M55.05,0a27.52,27.52,0,0,0-6.74,11.45l7.2,2L50.44,32.74A27.61,27.61,0,0,0,55.05,39L74.19,19.52Z"/></g></g></svg>