<svg xmlns="http://www.w3.org/2000/svg" viewBox="0 0 128.15 128.15"><title>Recurso 38MANDALA</title><g id="Capa_2" data-name="Capa 2"><g id="Capa_1-2" data-name="Capa 1"><path d="M86.92,89.69c0-18.16-19.41-23.53-17.47-23.53S94,71.53,94,89.69s17.94,19,16,19S86.92,107.85,86.92,89.69Z"/><path d="M98.34,66C85.5,53.19,68,63.12,69.35,61.75s21.12-13.53,34-.69,26.11.74,24.74,2.11S111.19,78.87,98.34,66Z"/><path d="M89.69,41.23c-18.16,0-23.53,19.41-23.53,17.47s5.37-24.5,23.53-24.5,19-17.94,19-16S107.85,41.23,89.69,41.23Z"/><path d="M66,29.8c-12.84,12.85-2.91,30.37-4.28,29s-13.53-21.12-.69-34S61.8-1.27,63.17.1,78.87,17,66,29.8Z"/><path d="M41.23,38.46C41.23,56.62,60.64,62,58.7,62S34.2,56.62,34.2,38.46s-17.94-19-16-19S41.23,20.29,41.23,38.46Z"/><path d="M29.8,62.12C42.65,75,60.17,65,58.8,66.4s-21.12,13.53-34,.69S-1.27,66.35.1,65,17,49.27,29.8,62.12Z"/><path d="M38.46,86.92C56.62,86.92,62,67.51,62,69.45S56.62,94,38.46,94s-19,17.94-19,16S20.29,86.92,38.46,86.92Z"/><path d="M62.12,98.34C75,85.5,65,68,66.4,69.35s13.53,21.12.69,34-.74,26.11-2.11,24.74S49.27,111.19,62.12,98.34Z"/></g></g></svg>