<svg xmlns="http://www.w3.org/2000/svg" viewBox="0 0 108.55 104.69"><title>Recurso 36ART</title><g id="Capa_2" data-name="Capa 2"><g id="Capa_1-2" data-name="Capa 1"><path d="M82.39,101.6H80.08c-.07,0,0-.13,0-.2v-1.3s0,0-.06,0H78.53c-.07.12,0,.24,0,.35a2.36,2.36,0,0,1,0,.37H76.27s0,0,0,0,0,0,0,0c0-.47,0-.93,0-1.4l0,0h.65a1,1,0,0,0,0-.37v-.32a.74.74,0,0,1,.39,0h.42c0-.27,0-.52,0-.77,0,0,0,0,0,0h3.71l0,0V95.49l.05,0s0,0,0,0h.69c.07-.13,0-.26,0-.39s0-.27,0-.39l0,0H78.52a1.33,1.33,0,0,0,0,.4c0,.13,0,.26,0,.41h-3c-.08.12,0,.25,0,.36s0,.24,0,.37h-3s0,0,0,0v.72c-.06.07-.14,0-.21,0h-4.4c0,.25,0,.47,0,.69l0,0H61.62l0,0v.72s0,0,0,0,0,0,0,0H59.35c-.08.06-.05.14-.05.21v.49a1,1,0,0,0,.37,0H60a.86.86,0,0,1,0,.39c0,.14,0,.27,0,.4a.94.94,0,0,0,.37,0h1.13a8.58,8.58,0,0,1,0,1.53H57.8l0,0v-.73c.11-.08.23,0,.35,0s.23,0,.34,0,0,0,0-.06V99.28c-.12-.07-.24,0-.36,0a1.54,1.54,0,0,1-.36,0v-.65c-.1-.08-.19,0-.28,0a1.22,1.22,0,0,0-.27,0,.43.43,0,0,0-.27,0v.65l-.05,0h-.64c-.07-.11,0-.23,0-.35v-.35c-.47,0-3.49,0-4.58,0-.07.11,0,.23,0,.35s0,.23,0,.36H45.47a1,1,0,0,1,0-.35c0-.11,0-.22,0-.33a.53.53,0,0,0-.12,0H41.66l-.1,0c0,.21,0,.44,0,.67-.11.06-.23,0-.35,0a1,1,0,0,1-.37,0v-.66c-.38,0-2.61,0-3.07,0v.66s0,0,0,0h1.46a1,1,0,0,1,0,.39v.42h-.78c-.07.12,0,.24,0,.36s0,.23,0,.36H37c-.06-.12,0-.24,0-.35s0-.22,0-.33-.23,0-.35,0h-.34l0,0v-.73c.11-.07.24,0,.35,0s.24,0,.37,0c0-.25,0-.47,0-.69,0,0,0,0,0,0H34.77s0,0-.05,0l0,0v-.73l-.05,0H32.36a7.23,7.23,0,0,1,0-1.54h.76c.07-.12,0-.24,0-.35s0-.24,0-.37h1.52a1.09,1.09,0,0,1,0,.36c0,.1,0,.21,0,.31s.14,0,.21,0h4.4c0,.27,0,.52,0,.77l0,0h3l0,0v.65a8.84,8.84,0,0,0,1.55,0V97s0,0,.05,0H59.27a1,1,0,0,0,0-.39c0-.13,0-.26,0-.38s0,0,.06,0h6.79c.07-.11,0-.24,0-.35a1.58,1.58,0,0,1,0-.37h3c.07-.09,0-.19,0-.27a2.43,2.43,0,0,0,0-.27c0-.09,0-.18,0-.28h2.29a.78.78,0,0,0,0-.37c0-.1,0-.21,0-.31s0,0,0,0h2.17l.06,0v-.73s0,0,0,0h2.26l0,0v.75a.78.78,0,0,0,.37,0h.32a.87.87,0,0,0,0-.39v-.39l.05,0h3.81c.07-.11,0-.24,0-.35a1.58,1.58,0,0,1,0-.37h2.19c.08-.09,0-.19,0-.27s0-.18,0-.27a.4.4,0,0,1,0-.28h.73s0,0,0,0V90.05a.87.87,0,0,0-.39,0h-.41c0-.24,0-.46,0-.68l0,0H80.91s0,0,0,0V90l0,.05h-3a.74.74,0,0,0,0,.39c0,.13,0,.27,0,.39l0,0H75.46c-.08.11,0,.23,0,.35a2.42,2.42,0,0,1,0,.37H73.93c-.08.09,0,.18-.05.27a2.43,2.43,0,0,0,0,.27c0,.09,0,.18,0,.28H71.65a.9.9,0,0,0,0,.36c0,.11,0,.21,0,.32l0,0h-3l-.06,0c0,.24,0,.5,0,.74l0,0H64.7l0,0v.64l-.05,0H60.89c-.08.06,0,.14,0,.21v.56l-.05,0H40.86a1.08,1.08,0,0,1,0-.4c0-.13,0-.26,0-.38l-.06,0H35.43c-.07-.11,0-.23,0-.34a1.58,1.58,0,0,0,0-.37H33.91s0,0,0,0a.27.27,0,0,1,0-.09v-.68h.77c.08-.1,0-.23,0-.34s0-.24,0-.34l0,0h.64c.07.11,0,.23,0,.35a1.11,1.11,0,0,0,0,.36h.76c.07-.11,0-.23,0-.35s0-.23,0-.36h.67a.89.89,0,0,1,0,.36c0,.11,0,.21,0,.32l0,0h5.34l.06,0v.74l0,0h2.17l.05,0v-.73l0,0h3c.07.12,0,.26,0,.39s0,.27,0,.38l0,0h3a1.35,1.35,0,0,0,0-.4V93.1h3.86c.07.08,0,.17,0,.26a2.43,2.43,0,0,1,0,.27c0,.09,0,.18,0,.27h3.73l0,0v-.72l0,0h2.26l0,0c0-.21,0-.43,0-.65a18.16,18.16,0,0,1,2.25,0V93l0,0h.72c.08,0,.05-.13.05-.2v-.48l0,0s0,0,0,0h3.67a.91.91,0,0,0,0-.4c0-.13,0-.26,0-.39a1.27,1.27,0,0,1,.38,0h1.13c.07-.12,0-.24,0-.35s0-.24,0-.37h3.85s0,0,0,0a.28.28,0,0,0,0-.09v-.63c0-.08.13,0,.2,0h2c0-.24,0-.46,0-.68l0,0h3l0,0v-.73c.1-.08.19,0,.28,0a2.43,2.43,0,0,0,.27,0c.09,0,.18,0,.27,0v-.64l0,0H80c.07.11,0,.23,0,.35v.34s0,0,.06,0h.72c.07-.12,0-.24,0-.35s0-.24,0-.36h3s0,0,0,0v1.44c.06.08.14.05.21.05h1.32c0,.24,0,.46,0,.69.1.07.23,0,.34,0a1.58,1.58,0,0,1,.37,0v.75a20.42,20.42,0,0,0,2.35,0v-.75l0,0h-.73c-.07-.11,0-.23,0-.35s0-.23,0-.36c-.24,0-.46,0-.68,0-.07-.08,0-.17,0-.26a2.43,2.43,0,0,1,0-.27v-.28h-2.3l0,0a.27.27,0,0,1,0-.09V87c0-.07.13,0,.2,0h1.33c0-.24,0-.46,0-.68,0,0,0,0,0,0h1.45l0,0V84.7c-.09-.07-.2,0-.3,0s-.21,0-.32,0h-.91V83.9l0,0H84.69a.91.91,0,0,0,0,.4c0,.13,0,.26,0,.41-.25,0-.47,0-.7,0-.07.11,0,.23,0,.35a.91.91,0,0,1,0,.36h-.73l0,0a.27.27,0,0,0,0,.09v.63c-.06.08-.14,0-.21,0h-2c0,.24,0,.46,0,.68,0,0,0,0,0,0H78.55l0,0v.74c-.12.07-.24,0-.36,0s-.24,0-.37,0v.68s0,0,0,0H77c-.08-.11,0-.23,0-.34s0-.24,0-.34,0,0-.06,0H74.74l0,0s0,0,0,0c0,.47,0,.94,0,1.41,0,0,0,0,0,0H72.38s0,0,0,0V87.79c-.11-.08-.23,0-.34,0s-.24,0-.38,0c0,.24,0,.46,0,.68s-.17,0-.25,0a1.31,1.31,0,0,1-.28,0,.52.52,0,0,1-.27,0v-.65a.6.6,0,0,0-.37,0,.76.76,0,0,0-.36,0v.65l0,0a.27.27,0,0,1-.09,0H69.3a.91.91,0,0,0,0,.4v.41c-.24,0-.46,0-.69,0-.07.12,0,.24,0,.35a1.58,1.58,0,0,1,0,.37h-3s-.05,0-.05,0v.73c-.12.07-.26,0-.39,0h-.38s0,0,0-.06c0-.48,0-1,0-1.44l0,0h1.45l.05,0v-.73c.09-.08.19,0,.27,0a2.43,2.43,0,0,0,.27,0c.09,0,.18,0,.27,0v-.66l0,0H64.68c-.07.11,0,.23,0,.35s0,.23,0,.33l0,0s0,0,0,0H61.6c-.07.08,0,.17,0,.26s0,.18,0,.27a.46.46,0,0,1,0,.28H57.79a.88.88,0,0,0,0,.36V90l0,0h-1.5c0-.24,0-.46,0-.68,0,0,0,0,0,0h-1.4l-.1,0V90l0,.05H48.58l0,0v-.64l-.05,0h-.73a.87.87,0,0,1,0-.39v-.4a1.23,1.23,0,0,1,.37,0h5c.07-.11,0-.24,0-.35a1.58,1.58,0,0,1,0-.37h8.35s0,0,0,0,0,0,0,0V87c0-.08.13,0,.2,0h.57l0,0v.73c.11.07.23,0,.35,0s.23,0,.37,0c0-.28,0-.53,0-.77.09-.08.18,0,.27,0h.27a.46.46,0,0,0,.28,0v-.64s0-.05,0-.05h2.18a.74.74,0,0,0,0-.39c0-.13,0-.27,0-.39l.06,0h3c.07-.11,0-.23,0-.35s0-.23,0-.37h1.49l0,0V83.9c.06-.07.14,0,.21,0h1.3a.9.9,0,0,0,0-.36c0-.11,0-.21,0-.33a1,1,0,0,1,.39,0h.39a.15.15,0,0,0,0-.06c0-.48,0-1,0-1.43,0,0,0,0,0,0h-3l0,0v-2.3a1,1,0,0,1,.35,0h.32c.07-.06,0-.14,0-.21V77c.27,0,.53,0,.78,0l0,0s0,0,0,0V74a.54.54,0,0,0,0-.1H70.11c-.07.12,0,.24,0,.35s0,.27,0,.41v1.13a1,1,0,0,1,0,.37h-.74l0,0v1.45c-.11.07-.23,0-.35,0h-.33s0,0,0,0,0,0,0,0v1.36s0,0,0,0l0,0H67.05l0,0V80l0,0h-.77v-1.5c.12-.07.26,0,.39,0H67s0,0,0-.05v-3c.11-.07.23,0,.35,0h.33s0,0,0-.05,0,0,0,0V73.12c.08-.07.17,0,.26,0a2.43,2.43,0,0,1,.27,0h.27v-.69s0,0,0,0,0,0,0,0h-1.4c-.08,0,0,.13,0,.2v1.29l0,0a.27.27,0,0,1-.09,0h-.64a.61.61,0,0,0,0,.35c0,.12,0,.24,0,.37-.24,0-.46,0-.68,0l0,0v3.8s0,0,0,.05h-.74c-.07.13,0,.25,0,.36s0,.21,0,.32-.13,0-.2,0H64s0,0,0,.05V80l0,0H62.44l0,0c0,.21,0,.44,0,.66l0,0H60.89l0,0v.73l0,0H59.35c-.08.06-.05.14-.05.21v.47l0,0H57.79a1,1,0,0,0,0,.39v.38s0,0-.06,0H55.44c-.07.11,0,.23,0,.34a1.58,1.58,0,0,1,0,.37H46.2c-.06-.11,0-.24,0-.35a1,1,0,0,0,0-.37h-.65s0,0,0,0,0,0,0,0v-.68c-.06-.07-.14,0-.21,0H43.1c0-.24,0-.47,0-.7-.11-.06-.23,0-.35,0a1.2,1.2,0,0,1-.37,0V80.8a1.36,1.36,0,0,0-.4,0c-.12,0-.25,0-.37,0h-.4a.94.94,0,0,1-.37,0V79.28l0,0h-.72c-.08-.11,0-.23,0-.35s0-.23,0-.37c-.24,0-.46,0-.68,0l0,0s0,0,0,0V77s0,0,0,0h-.73l-.05,0s0,0,0,0a.27.27,0,0,1,0-.09V74.71a.06.06,0,0,0,0,0s0,0,0,0H37.8l0-.05v-3a5.93,5.93,0,0,0-1.51,0s0,0,0,0v2.27c.11.07.24,0,.35,0a1.46,1.46,0,0,1,.36,0v1.49c-.1.06-.22,0-.34,0h-.36v.7a.85.85,0,0,0,.35,0h.32c.07.06,0,.14,0,.21,0,.43,0,.87,0,1.32.26,0,.52,0,.77,0l0,0a.09.09,0,0,1,0,0V80s0,0,0,.06h.65c.08.1,0,.21,0,.31s0,.21,0,.32v.91h.76s0,0,0,0v1.49h-.78a.74.74,0,0,1,0-.39c0-.13,0-.27,0-.4a1,1,0,0,0-.37,0h-.32c-.08-.12,0-.24,0-.36s0-.23,0-.36H37c-.08-.11,0-.22,0-.32s0-.21,0-.32v-.27c0-.11,0-.21,0-.32a.6.6,0,0,0,0-.32h-.64s0,0,0,0v-.73a.85.85,0,0,0-.39,0h-.39l0-.06s0,0,0,0v-2.9s0,0,0,0-.23,0-.35,0a1.5,1.5,0,0,1-.36,0V74.67l0,0H33.9c-.07-.06,0-.14,0-.21V73.12l0,0h-.66a1.7,1.7,0,0,0,0,.39v.42h-.77a17.08,17.08,0,0,0,0,2.27h.74s0,0,0,0a.27.27,0,0,1,0,.09v.63c.11.08.23,0,.35,0s.23,0,.35,0a1.27,1.27,0,0,1,0,.38v.3c.08.08.17,0,.26,0h.54v.78l0,0H33.9c-.07.06,0,.14,0,.21V80l0,0s0,0,0,0h.68l0,0a.06.06,0,0,1,0,0v3s0,0-.06,0H33.9c-.08-.09,0-.18,0-.27a2.43,2.43,0,0,1,0-.27v-.27h-.69l0,0v.74a1,1,0,0,1-.39,0c-.13,0-.26,0-.38,0s0,0,0,0,0,0,0,0v-.68c-.12-.07-.24,0-.35,0a1.58,1.58,0,0,1-.37,0v-.66c-.11-.07-.22,0-.32,0H29.56c-.1,0-.21,0-.32,0v-.73l0,0a.27.27,0,0,0-.09,0H26.2c-.08-.11,0-.24,0-.35s0-.24,0-.34l-.06,0h-.62l0,0v0c0,.7,0,1.41,0,2.12a.09.09,0,0,1,0,0H23.13l-.05,0v.73c-.06.07-.14,0-.21,0H21.58s0,0,0,.05v.63c.08.08.18,0,.26,0h.27a.54.54,0,0,1,.28,0v1.48l0,0s0,0,0,0H19.33l0,0v1.48a1,1,0,0,0,.35,0H20a.9.9,0,0,1,0,.4c0,.13,0,.26,0,.39a1,1,0,0,0,.33,0h2c.07.11,0,.24,0,.35a1.17,1.17,0,0,0,0,.37h1.47s0,0,0,0a.06.06,0,0,1,0,0V90c0,.07-.11.05-.16.05h-2.9a1.09,1.09,0,0,1,0-.36c0-.1,0-.21,0-.31l0,0H16.24s0,0,0,.06V90c.12.07.24,0,.36,0s.23,0,.36,0V91.5s0,0,0,0h.73c.07.12,0,.26,0,.39v.39l.05,0h1.45c.07.11,0,.23,0,.35a1.09,1.09,0,0,0,0,.36h1.49c.06-.11,0-.23,0-.35a1.11,1.11,0,0,1,0-.36h.68a1.12,1.12,0,0,1,0,.36c0,.11,0,.21,0,.33a1.07,1.07,0,0,0,.4,0h.38s0,0,0,.06v1.44c-.09.07-.18,0-.27,0a2.43,2.43,0,0,1-.27,0c-.09,0-.18,0-.27,0v1.47s0,0,0,0h.72a6.49,6.49,0,0,1,0,1.51l0,0H20.84a1.33,1.33,0,0,0,0,.4c0,.13,0,.26,0,.41H20a.76.76,0,0,0,0,.36v.37h-.68l0,0v3l0,0h1.45l0,0c.05.08,0,.17,0,.26v.49s0,0,0,0H22.3l.05,0v.65l0,0h-.72c-.08,0-.05.13-.05.2v.57l-.05,0h-3a1.29,1.29,0,0,1,0-.39v-.42H16.24c-.08-.12,0-.24,0-.36s0-.24,0-.37H13.89s0,0,0,0,0-.06,0-.09v-1.36c.12-.07.26,0,.39,0h.38s0,0,0,0v-.72l0,0h1.44s0,0,.05,0v-.66s0,0,0,0H14.71c-.08,0-.05-.13-.05-.2v-.57l-.05,0s0,0,0,0h-.68c-.07-.11,0-.23,0-.35s0-.24,0-.34l-.06,0h-3c-.07-.08,0-.18,0-.26a2.43,2.43,0,0,1,0-.27c0-.09,0-.18,0-.27h-3s0,0,0,0,0,0,0,0v.69a.74.74,0,0,0,.39,0c.13,0,.26,0,.38,0s0,0,0,.06,0,0,0,0V100c.12.07.24,0,.35,0a1.58,1.58,0,0,1,.37,0v.65l0,0h2.94s0,0,0,0l.05,0v1.45l0,0h.73l0,0a.06.06,0,0,1,0,0v2.24s0,0-.06,0H10.81c-.08-.08,0-.18,0-.26a2.43,2.43,0,0,1,0-.27c0-.09,0-.18,0-.28h-.65a.77.77,0,0,1,0-.36v-.33c-.12-.07-.26,0-.39,0H9.26a1,1,0,0,0,0,.37c0,.11,0,.21,0,.32s-.24,0-.35,0a1.17,1.17,0,0,0-.37,0v.74l0,.05H0l0,0v-1.47l0,0H.76c.07-.06,0-.14,0-.21,0-.43,0-.87,0-1.3a1.18,1.18,0,0,1,.37,0h.31s0,0,0,0,0,0,0,0v-1.4s0,0,0-.05H2.3c.08-.1,0-.19,0-.28a2.44,2.44,0,0,0,0-.27v-.27H3l0,0V97a.86.86,0,0,1,.39,0h.39l0,0s0,0,0-.05c0-.45,0-.9,0-1.36v0c.11-.06.23,0,.35,0a1.58,1.58,0,0,0,.37,0v-.74s0-.05,0-.05h.72c.08-.11,0-.23,0-.34s0-.24,0-.38c.24,0,.47,0,.69,0l0,0a.06.06,0,0,0,0,0V92.42s0,0,0,0h.74c.08-.11,0-.22,0-.32s0-.21,0-.31v-.59c0-.1,0-.21,0-.32h.64l.05,0V89.32a1,1,0,0,1,.39,0c.13,0,.27,0,.39,0a.57.57,0,0,0,0-.28,1.76,1.76,0,0,0,0-.23v-.27a.64.64,0,0,1,.36,0h.36V87l0,0H10c.07-.05,0-.13,0-.2V85.42a.94.94,0,0,1,.37,0h.31l0,0s0,0,0,0V83.91l0,0h.76a1.43,1.43,0,0,0,0-.41v-.77a.91.91,0,0,1,0-.36h.67a.78.78,0,0,0,0-.37c0-.1,0-.21,0-.32s.26,0,.39,0h.39a1,1,0,0,0,0-.37c0-.14,0-.27,0-.41v-.72c.12-.08.24,0,.35,0h.37V78.56l.05,0h.72c.08-.05.05-.13.05-.2V77A1.18,1.18,0,0,1,15,77h.31s0,0,0,0a.08.08,0,0,0,0,0c0-.47,0-.94,0-1.41l0,0h.73c.08-.09,0-.19.05-.27V74.9c0-.09,0-.18,0-.28h.64s0,0,0-.05a.27.27,0,0,0,0-.09V72.39a.74.74,0,0,1,.39,0c.14,0,.27,0,.39,0a.19.19,0,0,1,0-.06v-.73c.11-.07.24,0,.35,0s.24,0,.37,0V70.05l.05,0h.72c.08,0,.05-.13.05-.2V68.49a1,1,0,0,1,.37,0H20l0,0a.09.09,0,0,0,0-.05V67s0,0,0-.06h.73s0,0,0,0a.06.06,0,0,0,0,0V65.43s0,0,0-.05h.65a.88.88,0,0,0,0-.36c0-.11,0-.21,0-.33a1,1,0,0,1,.39,0h.39l0-.06V62.34c.11-.07.23,0,.35,0a1.17,1.17,0,0,0,.37,0v-.65c.09-.08.18,0,.27-.05h.55V60.07a.91.91,0,0,1,.36,0h.32l0,0s0,0,0,0v-1.4s0,0,0,0l0,0h1.44c.07-.07,0-.17,0-.25a2.61,2.61,0,0,0,0-.28.54.54,0,0,1,0-.27h1.47a1,1,0,0,0,0-.37c0-.12,0-.24,0-.36h.76l.05,0v-.73l0,0h-.75s0,0,0,0V57H27c-.06,0,0-.1,0-.16q0-1,0-2a.92.92,0,0,1,0-.15c.22,0,.45,0,.67,0l0,0a.06.06,0,0,0,0,0V53.12s0,0,0,0h.75c.07-.12,0-.25,0-.36a1.46,1.46,0,0,1,0-.36h.66l0,0v1.45a7,7,0,0,0,1.51,0s0,0,0,0V51.57l0,0H29.29l0,0V50s0,0,0,0H30c.08-.11,0-.23,0-.34s0-.24,0-.38h.69l0,0a.08.08,0,0,0,0,0V47.78l0-.05h.74a.38.38,0,0,0,0-.27,2.43,2.43,0,0,0,0-.27v-.28h.68l0,0V44.68a.85.85,0,0,1,.39,0h.42v-.78c.12-.08.24,0,.36,0a.91.91,0,0,0,.36,0V42.34l0-.05h.73c.07,0,0-.14,0-.21V40.76c.24,0,.46,0,.69,0l0,0s0,0,0,0v-1.4s0,0,0-.05h.74c.08-.11,0-.22,0-.32s0-.21,0-.32V38c0-.1,0-.2,0-.32h.66a.89.89,0,0,0,0-.36c0-.11,0-.21,0-.33a1,1,0,0,1,.39,0h.38s0,0,0-.06v-1.4a.43.43,0,0,0,0-.05c.11-.07.23,0,.35,0s.23,0,.36,0V33.92s0-.05.05-.05h.73c.07-.12,0-.26,0-.39s0-.27,0-.42c.24,0,.46,0,.68,0l0,0v0c0-.47,0-.94,0-1.41,0,0,0,0,0-.05h.74c.07-.11,0-.22,0-.32v-.59c0-.1,0-.21,0-.31s0-.21,0-.32h.64s0,0,0-.05a.27.27,0,0,0,0-.09V28.47a1.08,1.08,0,0,1,.4,0c.13,0,.26,0,.38,0s0-.05,0-.06v-.63c.12-.07.24,0,.35,0a1.17,1.17,0,0,0,.37,0V26.23l0-.05h.72c.08-.05,0-.13,0-.2V24.64c.24,0,.46,0,.68,0s0-.17,0-.26a2.43,2.43,0,0,0,0-.27.69.69,0,0,1,0-.28h.74c.08-.11,0-.21.05-.31v-.59c0-.11,0-.21,0-.32a.6.6,0,0,1,0-.32h.65l0-.05V20.77a1.07,1.07,0,0,1,.4,0H47a1.23,1.23,0,0,0,0-.37V19.24c.11-.07.24,0,.35,0a1,1,0,0,0,.37,0v-.64l0-.05a.27.27,0,0,1,.09,0h.63s0,0,0,0a.05.05,0,0,0,0,0V17c.24,0,.46,0,.68,0,0,0,0,0,0,0a.06.06,0,0,0,0,0V14.64l0-.05H50c.07-.13,0-.25,0-.37s0-.21,0-.31.13-.05.2-.05h.48l0,0V12.35a1,1,0,0,1,.39,0h.4a1,1,0,0,0,0-.37c0-.14,0-.28,0-.41v-.72c.12-.08.25,0,.36,0h.37V9.29s0,0,.05,0h.73a.74.74,0,0,0,0-.39c0-.13,0-.27,0-.41.24,0,.47,0,.69,0l0,0a.06.06,0,0,0,0,0V6.94s0,0,0-.05h.72s0,0,0,0,0,0,0,0V5.4c.06-.08.14-.05.21-.05h.49a1,1,0,0,0,0-.37V4.67a6.56,6.56,0,0,1,1.52,0A1.35,1.35,0,0,1,57,5V6.12c.08.08.18,0,.26,0h.27a.46.46,0,0,0,.28,0V5.39l.05,0h1.45c.08-.11,0-.23,0-.35s0-.23,0-.37c-.27,0-.52,0-.77,0-.08-.08,0-.17,0-.26a2.43,2.43,0,0,1,0-.27V3.81H57a.12.12,0,0,1,0-.05s0,0,0,0V1.59c0-.07.13,0,.2,0h.57s0,0,0-.05,0,0,0,0V.05a6.67,6.67,0,0,1,1.53,0v2.2c.13.08.25,0,.37,0a.9.9,0,0,1,.36,0V3.76l0,.05h.73l0,0a.06.06,0,0,1,0,0V5.29l0,0c.21,0,.44,0,.66,0l0,0s0,0,0,0v1.4a.09.09,0,0,0,0,0h.73l.05,0V9.19c0,.08.14.05.21.05h.49a.94.94,0,0,1,0,.37c0,.1,0,.21,0,.33a1.35,1.35,0,0,0,.4,0h.41v1.5c.13.07.25,0,.37,0h.36V13l0,0a.27.27,0,0,0,.09,0h.63l0,0v1.44l0,.06c.21,0,.43,0,.65,0l0,0v2.26s0,0,0,.05H67L67,17v1.45c0,.08.13,0,.2.05h.48s0,0,0,.05,0,0,0,0V20a1.35,1.35,0,0,0,.4,0h.41v2.22c.13.08.25,0,.36,0s.24,0,.37,0v1.46s0,.05,0,.05H70s0,0,0,0,0,0,0,0v2.22a.15.15,0,0,0,0,.06c.21,0,.43,0,.65,0,0,0,0,0,0,0a.09.09,0,0,1,0,.05v1.4s0,0,0,.05h.73s0,0,0,.05a.06.06,0,0,1,0,0v1.41c0,.07.13,0,.2,0s.33,0,.48,0,0,0,0,.05v1.47a1.33,1.33,0,0,0,.4,0c.13,0,.26,0,.41,0V33c.12.07.25,0,.36,0a1.17,1.17,0,0,1,.37,0v.75l.05,0h.72c.08.11,0,.23,0,.35s0,.23,0,.36c.24,0,.46,0,.68,0,0,0,0,0,0,0s0,0,0,0v1.4s0,0,0,.05h.73l0,0s0,0,0,0v2.22c.06.08.14.05.21.05h.49a1,1,0,0,1,0,.37v.33a1.28,1.28,0,0,0,.39,0h.42v2.32a.76.76,0,0,0,.36,0h.37v2.22s0,0,0,0h.73a.86.86,0,0,1,0,.39c0,.14,0,.27,0,.41.24,0,.47,0,.7,0,.07.11,0,.23,0,.35v.37h.76s0,0,0,.05,0,0,0,0v2.22c.06.07.14,0,.21,0h.48l0,.05v.63c-.12.08-.24,0-.35,0h-.37v.79c.11.06.23,0,.35,0s.24,0,.37,0v.68s0,.05,0,.05h.73a1,1,0,0,1,0,.39c0,.13,0,.27,0,.41.24,0,.47,0,.7,0,.06.11,0,.23,0,.35a1.18,1.18,0,0,0,0,.37h.74l.05,0s0,0,0,0v2.22c.11.08.23,0,.34,0h.34s0,0,0,.06a.06.06,0,0,1,0,0V56.1c.08.08.17,0,.26,0h.27a.52.52,0,0,1,.27,0v1.47c.13.07.25,0,.37,0a1.11,1.11,0,0,1,.36,0v1.47l0,0H87a1,1,0,0,1,0,.39V60c.24,0,.47,0,.69,0l0,0v0c0,.47,0,.94,0,1.41l0,0h.73a.12.12,0,0,1,0,.05V63.8c.1.08.23,0,.34,0h.34s0,0,0,.06,0,0,0,0v2.24a1.79,1.79,0,0,0,.4,0h.41v1.5c.13.07.25,0,.37,0a.91.91,0,0,1,.36,0v.65l0,0h.73a.87.87,0,0,1,0,.39v.41c.24,0,.46,0,.68,0a.08.08,0,0,1,0,0v1.44l0,0h.73l0,0v1.45c.1.08.23,0,.34,0h.34l0,0s0,0,0,0V74.6a1.79,1.79,0,0,0,.4,0h.41v.78c.13.07.25,0,.37,0s.23,0,.36,0v.65s0,0,0,0h.72l0,0a.08.08,0,0,1,0,0v2.22a.09.09,0,0,0,0,0c.21,0,.43,0,.65,0l0,0a.09.09,0,0,1,0,0v2.12s0,0,0,0h.73l0,0a.28.28,0,0,1,0,.09v1.36c.1.08.22,0,.34,0h.34l0,.05v1.44c.08.08.18,0,.26,0H99a.46.46,0,0,1,.28,0v1.47c.13.07.25,0,.36,0s.24,0,.37,0v1.5l0,0h.72s0,0,0,0a.06.06,0,0,1,0,0c0,.47,0,.93,0,1.4a.17.17,0,0,0,0,0c.22,0,.44,0,.66,0s0,.17,0,.26a2.43,2.43,0,0,0,0,.27.46.46,0,0,0,0,.28h.73s.05,0,.05,0,0,0,0,0v2.13c.11.08.23,0,.35,0s.23,0,.34,0l0,.06v1.44c.08.08.17,0,.26,0h.27a.69.69,0,0,1,.28,0v1.47c.12.08.25,0,.36,0s.24,0,.37,0v1.5s0,0,0,0h.72l0,0s0,0,0,0v1.4s0,0,0,0c.21,0,.44,0,.66,0l0,0a.06.06,0,0,1,0,0V100l0,0H107a1,1,0,0,1,0,.37c0,.1,0,.21,0,.32s.23,0,.35,0h.34s0,0,0,0a.09.09,0,0,1,0,0v1.39c.08.08.17,0,.26,0a2.43,2.43,0,0,1,.27,0,.5.5,0,0,1,.27,0v2.29l0,0H99.37l-.05,0v-.73s0,0,0,0H97.82a.85.85,0,0,0,0,.39c0,.13,0,.27,0,.4-.48,0-2.66,0-3.86,0,0,0,0,0,0,0a.06.06,0,0,1,0,0v-1.4s0,0,0-.06h-.63s0,0,0,0,0,0,0,0v-.68c0-.06-.11,0-.16,0H90.85l0,0v.72s0,0,0,0h-3l-.05,0v.65c-.38,0-2.61,0-3.08,0v-1.48l0,0a.27.27,0,0,1,.09,0h.64c.08-.11,0-.23,0-.35s0-.24,0-.34l.06,0H87c.07-.07,0-.17,0-.25a2.43,2.43,0,0,0,0-.27v-.27h1.5l0,0v.73c.06.07.14,0,.21,0h2s0,0,0,0v-.72s0,0,0,0H89.33l0,0v-.64l0,0H87.78l0,0v-.73s0,0,0,0H82.43c-.07.12,0,.26,0,.39V100a.55.55,0,0,1-.28,0h-.5a.64.64,0,0,0,0,.36.89.89,0,0,0,0,.36h.74s0,0,0,0,0,0,0,0ZM59.3,73.89h-.76l0,0c0,.11,0,.22,0,.34s0,.23,0,.34h.75s0,0,0,0v-.68H60l.06,0v-.73l0,0h-.66l0,0Zm9.24-47v-.67s0,0,0-.06h-.74l0,0v.66l0,0h.76v.76s0,0,0,.05h.33c.12,0,.24,0,.34,0v-.75l0,0ZM77,80.05h.76l0,0v-.73s0,0,0,0H77s0,0,0,0v.76h-.67l-.06,0c0,.1,0,.22,0,.34s0,.23,0,.34H77ZM68.54,69.28V70l0,0c.1,0,.22,0,.33,0s.24,0,.34,0v-.69h-.71v-.77s0,0,0-.05h-.74l0,0v.78ZM42.37,41.57h2.2s0,0,.06,0v-.7a.06.06,0,0,0,0,0s0,0,0,0H42.4l0,0v.77h-2.3l-.06,0c0,.1,0,.21,0,.33s0,.24,0,.34h2.29s0,0,0,0ZM75.42,65.38V63.9s0,0,0,0a9,9,0,0,0-1.51,0v.78h.54c.08,0,.17,0,.27,0v.64s0,0,0,0h.67v.77l0,0c.12,0,.25,0,.38,0a1.26,1.26,0,0,1,.39,0c0,.12,0,.23,0,.33a.94.94,0,0,0,0,.37h1.51v.77l0,0a7.55,7.55,0,0,0,1.5,0V66.2H79a2.43,2.43,0,0,0-.27,0c-.09,0-.18,0-.27,0v.64l0,0h-.68v-.67s0,0,0,0h-.38a1.29,1.29,0,0,1-.39,0v-.79ZM56.22,77.7h.36a1,1,0,0,0,.37,0V77a.54.54,0,0,1,.27,0,2.43,2.43,0,0,0,.27,0,.4.4,0,0,0,.28,0v-.75a1.12,1.12,0,0,1,.36,0c.12,0,.24,0,.36,0v-.63l0,0a7.26,7.26,0,0,0-1.51,0c0,.23,0,.45,0,.66,0,0,0,0-.06,0H55.44l0,0v.72s0,0,0,0H56c.07,0,.15,0,.2,0v.68h-1.4a.27.27,0,0,0-.09,0s0,0,0,0v.72l0,0H52.37s0,0,0,0v.62l0,0,.08,0h2.94l0,0c0-.1,0-.2,0-.31a1,1,0,0,1,0-.37h.39c.13,0,.27,0,.39,0Zm4.62-26.9c0,.12,0,.25,0,.37a.91.91,0,0,1,0,.36h-.75a.46.46,0,0,0,0,.28,1.22,1.22,0,0,0,0,.27c0,.08,0,.18,0,.26h3l.05,0c0,.1,0,.22,0,.34s0,.24,0,.35h.73s0,0,.05,0v-.63l0,0h3l0-.05v-.76h.37c.12,0,.24,0,.35,0,0-.23,0-.46,0-.7.45,0,.89,0,1.32,0,.08,0,.16,0,.21,0V50l0,0H70s0,0,0-.05V47.81s0,0,0,0a.08.08,0,0,0,0,0h-.71l-.06,0c0,.11,0,.23,0,.34s0,.24,0,.35h-.63l0,0v-.64l-.05,0h-3.8l0,.05v.64l0,0H63.14l0,0c0,.25,0,.51,0,.77H62.9c-.61,0-1.23,0-1.85,0-.07,0-.15,0-.21,0V48.5a.12.12,0,0,1,0,0h.68c0-.13,0-.25,0-.37s0-.24,0-.35h1.46l.05,0c0-.12,0-.25,0-.39a.74.74,0,0,1,0-.39h.73s0,0,0,0v-.65l0,0H62.42l-.05.05v.64l0,0H57l0,0c0,.25,0,.51,0,.76H54c-.06,0-.12,0-.16,0V46.19h2.29s0,0,.06,0v-.74l0,0H53.9s0,0,0,0v.77H50.11l0,0v.64l0,0H48.57l0,.05v.73l-.05,0h-3l0,0c0,.22,0,.45,0,.67a7.9,7.9,0,0,1-1.53,0v-.32a.9.9,0,0,0,0-.36H41.76c-.07,0-.15,0-.21,0v1.4a.07.07,0,0,0,0,0l0,.05h1.47a1.12,1.12,0,0,1,0,.36c0,.12,0,.24,0,.36h.78v.42a1,1,0,0,1,0,.39h-.74l0,0c0,.15,0,.31,0,.47s0,.15,0,.21h-.32c-.12,0-.24,0-.35,0v.76a1.09,1.09,0,0,0,.36,0c.11,0,.24,0,.34,0a.11.11,0,0,1,0,.05v1.41l0,.05h2.28l0,0v-.68s0,0,0,0l0,0h2.83c.07,0,.15,0,.21,0s0-.21,0-.31a1,1,0,0,1,0-.37h.69v-.55c0-.08,0-.17,0-.25h.79c0,.14,0,.28,0,.41a1.7,1.7,0,0,0,0,.39c2.33,0,6.3,0,6.87,0,0-.13,0-.27,0-.4a.86.86,0,0,1,0-.39h2.27l0,0V51c0-.07,0-.15.05-.21Zm-1.54,10v.77l0,0h4.55c.06-.09,0-.18,0-.27a2.43,2.43,0,0,1,0-.27c0-.08,0-.17,0-.26h.66a.46.46,0,0,1,0,.28c0,.09,0,.18,0,.27s0,.18,0,.26h.49a.72.72,0,0,1,.28,0c0,.11,0,.23,0,.35s0,.23,0,.34h.63s0,0,.05,0V61c0-.07,0-.15,0-.21h3v.77s0,0,0,0h.74a1.58,1.58,0,0,1,0,.37c0,.11,0,.24,0,.35h1.45l.06,0c0-.11,0-.22,0-.34s0-.24,0-.35h-.73l0,0V61c0-.07,0-.15,0-.21h-1.5c0-.12,0-.24,0-.36a.9.9,0,0,0,0-.36H67.72v-.28a2.43,2.43,0,0,0,0-.27c0-.09,0-.18,0-.26h-3l-.06,0c0-.11,0-.22,0-.34s0-.24,0-.35h-.31a1,1,0,0,1-.37,0v-.75a.46.46,0,0,0-.28,0h-.27c-.08,0-.18,0-.27,0V57l-.05,0H60.88l0,0V56.2s0,0,0-.05h.34c.12,0,.24,0,.35,0V54.7a.09.09,0,0,0,0-.05l0,0H60.06l0,0v1.4a.09.09,0,0,1,0,0l0,0H57l0,0c0-.11,0-.22,0-.34s0-.24,0-.35h.72s0,0,0,0V53.92l0,0H47l-.05,0v.64l0,0H44.67s0,0,0,0c0,.25,0,.5,0,.77h-2c-.07,0-.15,0-.21,0v.68H40.06l-.05,0v.74c-.11.06-.22,0-.32,0h-.9c-.1,0-.21,0-.32,0v.65l0,0H37l0,0V58a1.77,1.77,0,0,1,0,.23c0,.09,0,.18,0,.26a.05.05,0,0,1,0,0H35.43l0,0c0,.1,0,.2,0,.31a.94.94,0,0,1,0,.37h-.49c-.07,0-.15,0-.21,0v1.49H33.18l0,0v.72c-.1.06-.19,0-.28,0h-.27c-.08,0-.18,0-.27.05v3a2.36,2.36,0,0,1-.37,0c-.11,0-.24,0-.35,0s0,.21,0,.31a1,1,0,0,1,0,.37h-1.3c-.07,0-.15,0-.21,0s0-.22,0-.32,0-.24,0-.35h-.79c0,.12,0,.24,0,.36s0,.24,0,.34H27.76l-.06,0v.38a1.07,1.07,0,0,1,0,.4c-.12,0-.22,0-.33,0a.88.88,0,0,0-.36,0v.65l-.05,0s0,0-.05,0H24.67a.12.12,0,0,0-.05,0v1.47a1.17,1.17,0,0,1-.37,0c-.12,0-.24,0-.35,0V70l0,0h2.19l0,0V68.51s0,0,0-.05H27c0-.13,0-.25,0-.36s0-.24,0-.37h1.5v-.27a2.53,2.53,0,0,1,0-.28c0-.08,0-.18,0-.25.23,0,.45,0,.69,0,0-.13,0-.25,0-.37s0-.23,0-.34h3s0,0,0,0v-.72l0-.05h1.44a.12.12,0,0,0,0,0v-.64l0,0h1.45l0,0V63.22s0,0,0,0,0,0,0-.05h.38a1,1,0,0,1,.39,0v.33c0,.12,0,.24,0,.35h3c0-.12,0-.24,0-.35s0-.24,0-.37h1.5v-.27a2.61,2.61,0,0,1,0-.28c0-.08,0-.18,0-.26H43s0,0,0,0l.05,0v-.34c0-.11,0-.23,0-.34h4.53s0,0,.05,0v-.75a8.83,8.83,0,0,1,1.55,0v.75l.09,0H50l0,0v-.67s0,0,0,0,0,0,0-.06h3l0,0v.63a.28.28,0,0,0,0,.09l0,0h3V61c0-.08,0-.18,0-.25H57c0,.14,0,.27,0,.4a1.33,1.33,0,0,0,0,.4h.74l0,0v-.39a.87.87,0,0,1,0-.39ZM70.8,33.87h1.5s0,0,0,0v-.75a1.09,1.09,0,0,0-.36,0c-.11,0-.24,0-.34,0a.13.13,0,0,1,0-.05V30.85l0,0,0,0H69.3l0,0V30s0,0,0-.05H67.76c-.07-.12,0-.22,0-.32v-.59c0-.11,0-.21,0-.32s0-.21,0-.32h-2.2a1.17,1.17,0,0,1,0-.37c0-.11,0-.23,0-.35H63.16s0,0-.06,0c0-.46,0-.94,0-1.42,0,0,0,0,0,0l0,0h.72s0,0,.05,0v-.77h.37c.12,0,.24,0,.35,0,0,.26,0,.51,0,.78H67s0,0,0,0v-.72s0,0,0-.05h1.47a8.84,8.84,0,0,0,0-1.55h-.75a1.54,1.54,0,0,1,0-.36c0-.12,0-.24,0-.35H66.24s0,0-.06,0,0-.37,0-.56,0-.15,0-.21H62.43a.12.12,0,0,1,0-.05v-.64l-.05,0H60.88l0,0V20.07s0,0,0,0l0,0h1.41l0,0,0,0v-.72s0,0,0,0h1.47c0,.09,0,.18,0,.27a2.43,2.43,0,0,0,0,.27c0,.09,0,.18,0,.27h1.47a2.36,2.36,0,0,1,0,.37c0,.12,0,.24,0,.35h.63l.05,0V19.41c0-.07,0-.15,0-.21s-.22,0-.32,0-.24,0-.36,0V17.7c-.1-.06-.19,0-.28,0a2.43,2.43,0,0,1-.27,0c-.09,0-.18,0-.26,0,0-.23,0-.45,0-.69H61.05c-.07,0-.15,0-.21-.05v-.72s0,0,0,0H53.87v.54c0,.09,0,.18,0,.27H50.09a.58.58,0,0,0,0,.1v2.08a.09.09,0,0,0,0,.05l0,0h.31a1,1,0,0,1,.37,0v.58c0,.07,0,.15.05.21h8.42s0,0,0,0v.66a.5.5,0,0,1-.27,0,2.43,2.43,0,0,1-.27,0c-.09,0-.18,0-.26,0,0,.25,0,.5,0,.75l-.06,0H57l0,0v.32a.85.85,0,0,1,0,.35H55.41v-.36c0-.11,0-.23,0-.34h-.7c0,.13,0,.24,0,.36s0,.24,0,.35H50.12l0,0c0,.18,0,.38,0,.57s0,.15,0,.21H47.8s0,0,0,0,0,0,0,0v2.23h.54c.09,0,.18,0,.27,0v.72l0,.05H48.1a.74.74,0,0,0-.39,0c0,.11,0,.22,0,.32a.88.88,0,0,0,0,.36h1.49c.05-.12,0-.24,0-.36s0-.24,0-.36h1.44l0,0a7.86,7.86,0,0,1,0,1.51H46.22l0,.05v.47c0,.07,0,.15-.05.21H44l0,0v2.3a1.09,1.09,0,0,0,.36,0c.11,0,.24,0,.35,0,0,.23,0,.46,0,.68a6.77,6.77,0,0,0,1.53,0v-.31a.88.88,0,0,1,0-.36h3s0,0,0,0V33s0,0,0,0H47.09s0,0,0,0l0,0a7.19,7.19,0,0,0,0,1.52h1.45l.05,0c0,.18,0,.37,0,.57s0,.15,0,.2h-.72a.12.12,0,0,0,0,.05v.64l-.05,0H46.21l0,0c0,.26,0,.51,0,.78H43.3c-.07,0-.15,0-.21,0v.31a1,1,0,0,0,0,.37h6.1a7.72,7.72,0,0,1,0,1.53h-.68c0,.15,0,.28,0,.42a.86.86,0,0,0,0,.39H50l0,0V37.7c.13-.06.25,0,.37,0s.24,0,.36,0V37s0,0,.06,0h1.44l0,0c0-.25,0-.51,0-.78h.4a.74.74,0,0,1,.39,0v.64a.28.28,0,0,0,0,.09s0,0,0,0h3.74c0-.09,0-.18,0-.27a2.43,2.43,0,0,1,0-.27c0-.09,0-.18,0-.27h1.12a1,1,0,0,0,.38,0c0-.12,0-.23,0-.35s0-.24,0-.35H60s0,0,0,0v3l0,0H56.27a.12.12,0,0,0-.05,0v.65a7.43,7.43,0,0,1-1.53,0c0-.22,0-.44,0-.68-.16,0-.29,0-.42,0a1,1,0,0,0-.39,0v2.14s0,0,0,.05l0,0H56.2a1.09,1.09,0,0,0,0-.36c0-.11,0-.23,0-.35h2.17l.06,0c0,.1,0,.22,0,.34s0,.23,0,.34H60l.05,0v.72l0,0h8.41a.12.12,0,0,1,.05,0V43.8l.1,0h2.94s0,0,0,0c0-.22,0-.44,0-.66a14.18,14.18,0,0,1,2.26,0c0,.11,0,.21,0,.32a.88.88,0,0,0,0,.36h.75a.46.46,0,0,1,0,.28c0,.09,0,.18,0,.27s0,.18,0,.26.45,0,.69,0c0,.13,0,.25,0,.36s0,.24,0,.35h2.26s0,0,0,0V43.86c-.11-.06-.22,0-.32,0h-.59c-.1,0-.21,0-.31,0s-.21,0-.32,0v-.65l0,0H74.73l0,0c0-.25,0-.51,0-.78H73.36c-.07,0-.15,0-.2,0V40h2.21l0,0v-1.5h-.36a.77.77,0,0,1-.36,0v-.78h-.55c-.08,0-.18,0-.25,0,0-.23,0-.45,0-.69H73.5c-.11,0-.24,0-.34,0v-.59a.66.66,0,0,0,0-.14l0,0H71c-.07,0-.15,0-.21,0ZM45.45,68.46v2.22a.27.27,0,0,0,0,.09s0,0,0,0H47c0,.13,0,.25,0,.37s0,.23,0,.34c.23,0,.45,0,.69,0V72a1.08,1.08,0,0,0,0,.4h.65a.27.27,0,0,1,.09,0l.05,0v.65a.75.75,0,0,0,.36,0c.12,0,.24,0,.37,0v-.65l.05,0h1.44l0,0V70.05l0,0h1.29c.07,0,.15,0,.21,0s0-.22,0-.32,0-.24,0-.35H50.09a1.46,1.46,0,0,0,0,.36c0,.11,0,.23,0,.35h-.72l-.06,0c0-.1,0-.22,0-.34s0-.23,0-.34h-.32a.74.74,0,0,1-.36,0v-3c-.48,0-2.71,0-3.09,0v1.51H45a1.35,1.35,0,0,0-.4,0v.65s0,0,0,0Zm6.16-53.88h3.75l0-.05V13.9l.05,0h2.26l.05,0v-.74a14.85,14.85,0,0,1,2.26,0v.67s0,0,0,.05l0,0h2.6a2.07,2.07,0,0,0,.43,0v-.7s0,0,0-.05l0-.05h-.64l0,0V11.55l0,0h-9.2v.27a2.62,2.62,0,0,1,0,.28c0,.08,0,.17,0,.26h-.74s0,0,0,.06v1.4s0,0,0,0a.08.08,0,0,1,0,0H52a1.12,1.12,0,0,0-.36,0Zm40,80.87h-.76l0,0v-.74c-.13-.06-.25,0-.37,0s-.23,0-.36,0v-.65l0,0H88.59l0,0c0-.25,0-.51,0-.76l-.09,0H86.23l0,0v.62s0,.07,0,.09,0,0,0,.06h-3l0,0v.63s0,0,0,0h.77v.55c0,.08,0,.18,0,.27h.68c0,.13,0,.25,0,.37s0,.23,0,.34h1.45l0,0c0,.11,0,.25,0,.38a.85.85,0,0,0,0,.39h4.53l0,0v-.39a1,1,0,0,1,0-.39h.73l0,0ZM67.73,53.88h-.37c-.12,0-.24,0-.35,0v.66l0,0h3.71l0,0v-.64s0,0,0,0h3l0,0v-.77h.42a1.79,1.79,0,0,0,.4,0c0-.5,0-1,0-1.47l0,0h-.38c-.13,0-.27,0-.39,0V50s0,0,0,0H71c-.06,0-.12,0-.16,0v1.4s0,0,0,0a.12.12,0,0,1,0,.05H69.26v.28a2.43,2.43,0,0,1,0,.27c0,.08,0,.18,0,.26h-.68v.37c0,.11,0,.24,0,.35h-.72s0,0,0,0Zm23.9,33.87h-1.5s0,0,0,0V87c-.1-.06-.19,0-.28,0h-.27c-.09,0-.18,0-.27,0v.77c-.14,0-.25,0-.37,0s-.24,0-.36,0,0,.45,0,.68h.51c.07,0,.15,0,.2,0v.68a.06.06,0,0,0,0,0s0,0,0,.05h.77c0,.13,0,.25,0,.37s0,.24,0,.34h6.82s0,0,0,0v-1.4a.06.06,0,0,1,0,0l0,0h2.21s0,0,0,0l0,0a6.67,6.67,0,0,0,0-1.52h-.72s0,0,0,0v-.65a8.83,8.83,0,0,0-1.55,0v.65l0,0H95.47l0,0v.72l0,0c.12,0,.25,0,.39,0a1,1,0,0,1,.39,0c0,.12,0,.23,0,.33a.78.78,0,0,1,0,.37h-.75c-.06.09,0,.18,0,.27a2.43,2.43,0,0,1,0,.27c0,.09,0,.18,0,.27H94l-.06,0c0-.12,0-.25,0-.38a1.35,1.35,0,0,0,0-.4H91.73s0,0,0,0l-.05,0Zm7.69,7.69V94a.27.27,0,0,0,0-.09s0,0,0,0h-.73c-.07-.1,0-.19,0-.28v-.27c0-.09,0-.18,0-.27h-.66a1.58,1.58,0,0,1,0-.37c0-.11,0-.24,0-.34H93.92c0,.5,0,2.69,0,3.06ZM16.2,97h3l0,0V95.48c-.09-.06-.18,0-.27,0h-.27c-.08,0-.18,0-.27,0v-.73l-.05,0H17s0,0,0,0c0-.22,0-.44,0-.68H13.16s0,0,0,0v.63s0,0,0,0h.34c.12,0,.24,0,.35,0v1.41s0,0,0,0,0,0,.05,0h.76v.28a2.43,2.43,0,0,0,0,.27c0,.08,0,.18.05.27h.65a1.58,1.58,0,0,1,0,.37c0,.11,0,.24,0,.35h.73l.05,0Zm-3.08-10h2.22s0,0,0,0v1.45a.4.4,0,0,0,.28,0,1.22,1.22,0,0,0,.27,0c.09,0,.18,0,.27,0v-.64l.05,0h2.17s0,0,0,0V87l0,0H17l0,0c0-.22,0-.44,0-.68-.14,0-.26,0-.37,0s-.24,0-.35,0v-.73l0,0c-.18,0-.38,0-.57,0s-.15,0-.21,0,0-.21,0-.32,0-.24,0-.36h-.66a.69.69,0,0,1,0-.28,2.43,2.43,0,0,0,0-.27c0-.09,0-.18,0-.25H12.31v.27a2.44,2.44,0,0,1,0,.27c0,.08,0,.18,0,.25s-.45,0-.67,0a7.82,7.82,0,0,0,0,1.53h1.45l0,0Zm4.62-3.8h3s0,0,0,0V81.62c-.09-.05-.18,0-.27,0h-.27c-.09,0-.18,0-.27,0v-.74s0,0-.06,0H18.5l0,0V78.61s0,0,0,0,0,0,0,0h-.34c-.11,0-.24,0-.34,0V80l0,0H15.41a8.79,8.79,0,0,0,0,1.55H16.9a1.17,1.17,0,0,1,0,.37c0,.11,0,.23,0,.35h.73l0,0ZM97,100.06V98.57l0,0H95.47c-.07-.09,0-.18,0-.27a2.43,2.43,0,0,0,0-.27c0-.09,0-.18,0-.26h-.66c-.06.09,0,.18,0,.27a2.43,2.43,0,0,0,0,.27c0,.08,0,.18,0,.27H90.84a8.59,8.59,0,0,0,0,1.53ZM20,77V75.57a.27.27,0,0,0,0-.09s0,0,0,0h-.65a21.47,21.47,0,0,0,0,2.27H20v.55c0,.08,0,.18.05.27h.74a1.58,1.58,0,0,1,0,.37c0,.11,0,.23,0,.34h.69V80.7s0,0,0,0l0,0h3l.05,0c0-.1,0-.22,0-.33s0-.24,0-.35-.22,0-.32,0a.88.88,0,0,1-.36,0v-.78H22.67c-.1,0-.21,0-.32,0v-.68h-.54c-.09,0-.18,0-.27,0,0-.25,0-.5,0-.77h-.37c-.12,0-.24,0-.35,0v-.32a.88.88,0,0,0,0-.36ZM10,89.29v1.49l.05,0h1.29c.07,0,.15,0,.2,0V93l0,0h.66c.06-.12,0-.24,0-.35s0-.24,0-.37h.75c0-.48,0-2.68,0-3.07Zm80.05-4.62H92.3s0,0,0,0a6.14,6.14,0,0,0,0-1.51H90.87s0,0-.06,0,0-.25,0-.39,0-.26,0-.38h-3l-.06,0c0,.11,0,.25,0,.38a.86.86,0,0,0,0,.39h.73l0,0c0,.11,0,.22,0,.34s0,.24,0,.34H90l0,0ZM57,8.43v.72s0,0,0,0,0,0,0,.05h3.4a1.61,1.61,0,0,0,.44,0V8.48l0-.05h-.39a.7.7,0,0,1-.38,0c0-.11,0-.22,0-.33a.75.75,0,0,0,0-.36H56.61a.87.87,0,0,0-.39,0v.64l0,0Zm19.29,47h2.21l0,0V54.09c0-.07,0-.15,0-.21h-.31a1,1,0,0,1-.37,0V52.37a8.64,8.64,0,0,0-1.53,0ZM80.86,57h-.78s0,0,0,0v.65l0,0h1.45l0,0c0,.25,0,.5,0,.77H82a1,1,0,0,0,.39,0v-.73s0,0,0-.05H83.9a.79.79,0,0,0,0-.37c0-.12,0-.24,0-.36h-1.5v-.42a1.28,1.28,0,0,0,0-.39H80.91s0,0,0,0ZM77.78,70H77s0,0,0,0V69.3a1.17,1.17,0,0,0-.37,0c-.11,0-.24,0-.36,0v-.75a7.52,7.52,0,0,0-1.53,0c0,.24,0,.48,0,.72,0,0,0,0,0,.06s.22,0,.33,0,.24,0,.35,0,0,.21,0,.32a.91.91,0,0,0,0,.36h.75a.46.46,0,0,1,0,.28c0,.09,0,.18,0,.27s0,.18,0,.27H77c0,.13,0,.25,0,.37s0,.23,0,.35h1.45l.06,0v-.34c0-.11,0-.23,0-.34h-.32a.88.88,0,0,1-.36,0Zm6.15-3.8v-.77s0,0-.05-.05h-.74a1.17,1.17,0,0,1,0-.37c0-.11,0-.23,0-.35H80.91l-.06,0V65c0,.11,0,.23,0,.34h.32a1,1,0,0,1,.37,0v.75c.09.06.19,0,.27,0a2.43,2.43,0,0,1,.27,0c.09,0,.18,0,.28,0v.66a.94.94,0,0,0,.37,0c.11,0,.23,0,.34,0,0-.23,0-.45,0-.69ZM76.23,60a9.9,9.9,0,0,0,1.54,0v-.75a.6.6,0,0,1,.32,0H79c.1,0,.2,0,.3,0v-.65l0,0H75.47l0,0c0,.11,0,.22,0,.34s0,.24,0,.35h.73s0,0,0,0Zm-4.62,6.91h1.5l0,0c0-.1,0-.22,0-.34s0-.24,0-.34h-.72s0,0,0,0v-.56c0-.07,0-.15,0-.21s-.21,0-.31,0a.88.88,0,0,1-.36,0v-.66a9.76,9.76,0,0,0-1.53,0,6.06,6.06,0,0,0,0,1.51h1.45s0,0,0,0Zm20,10.78v1.44s0,0,0,0,0,0,0,0h3a.05.05,0,0,0,0,0s0,0,0,0v-.63s0,0,0,0H94.1c-.07,0-.15,0-.21,0v-.68s0,0,0-.05l0,0Zm10,21.55h2.29s0,0,0,0V97.92c0-.07,0-.16,0-.21h-2.26s0,0,0,0ZM46.16,33.87c-.14,0-.24,0-.35,0a.88.88,0,0,1-.36,0v-.75a9.9,9.9,0,0,0-1.54,0v.74c-.1.07-.19,0-.28,0a2.43,2.43,0,0,1-.27,0c-.08,0-.17,0-.26,0v.66c.43,0,2.64,0,3.06,0ZM19.29,73.08c.14,0,.25,0,.35,0a.88.88,0,0,1,.36,0v1.3c0,.07,0,.15.05.21h.72l.05-.05v-.68c.13,0,.25,0,.36,0s.24,0,.35,0V72.38a18.58,18.58,0,0,0-2.24,0ZM39.29,40v-.76l0,0H40a.88.88,0,0,0,0-.36.69.69,0,0,0,0-.35H38.48c0,.12,0,.24,0,.35s0,.24,0,.37H37c-.06.09,0,.18,0,.27a1.22,1.22,0,0,0,0,.27c0,.08,0,.18,0,.26ZM36.94,53a22.63,22.63,0,0,0,2.33,0,5.63,5.63,0,0,0,0-1.51H37.8l0,0v.57c0,.07,0,.15,0,.2H37l0,0ZM73.88,57c0,.15,0,.26,0,.36a1,1,0,0,0,0,.37h.75a7.82,7.82,0,0,0,0-1.53,15.16,15.16,0,0,0-2.32,0v.72s0,0,0,.05Zm-36.95-.78a18.76,18.76,0,0,0-2.25,0v.75a21.11,21.11,0,0,0,2.25,0ZM30.79,80.05h.76l0,0v.65a.78.78,0,0,0,.37,0,.7.7,0,0,0,.35,0V79.27a9.64,9.64,0,0,0-1.52,0Zm37.74-16.9a22.82,22.82,0,0,0-2.34,0v.66a20.29,20.29,0,0,0,2.34,0ZM96.24,81.62a22.83,22.83,0,0,0-2.34,0v.67a20.28,20.28,0,0,0,2.34,0ZM31.59,77.69V76.21l0,0h-.38c-.13,0-.27,0-.39,0v1.46l0,0Zm23.82,3.89v-.76l0,0a6.19,6.19,0,0,0-1.51,0v.68s0,0,0,0,0,0,0,0ZM87.73,66.92H86.24l0,0c0,.11,0,.25,0,.38a.74.74,0,0,0,0,.39h1.46s0,0,0,0ZM80,63.12l0,0v-.76a8.43,8.43,0,0,0-1.51,0v.78ZM50.8,40a9.64,9.64,0,0,0,1.52,0v-.76a9.64,9.64,0,0,0-1.52,0ZM75.43,50.8h1.48l0,0v-.38c0-.13,0-.27,0-.39H75.47l0,0Zm5.43,33a7.82,7.82,0,0,0,1.53,0v-.66a9.77,9.77,0,0,0-1.53,0Zm-.81-2.23h.53c.09,0,.18,0,.26,0v-.75c-.08-.06-.17,0-.26,0a1.22,1.22,0,0,0-.27,0c-.09,0-.18,0-.26,0Zm1.53-20h.76l0,0V61c0-.07,0-.15,0-.21h-.72l0,0Zm-23-7,0,0v.75c.08.06.17,0,.26,0H59c.09,0,.18,0,.26,0v-.75l0,0Zm-27.75,0v.77l0,0h.56c.07,0,.15,0,.2-.05v-.63a.27.27,0,0,0,0-.09l0,0ZM67,45.37h-.76l0,0v.39a.87.87,0,0,0,0,.39H67l0,0ZM89.27,73.09v.67a.28.28,0,0,0,0,.09s0,0,0,0c.18,0,.37,0,.56,0s.15,0,.21,0v-.72l0,0Zm10,30c.06-.08,0-.17,0-.26a1.22,1.22,0,0,0,0-.27c0-.09,0-.18,0-.27h-.75c-.06.09,0,.18,0,.27v.27c0,.09,0,.18,0,.26ZM29.19,78.51l0,0c0-.25,0-.5,0-.76a.84.84,0,0,0-.35,0,.88.88,0,0,0-.36,0v.79Zm2.4-19.29c0-.12,0-.24,0-.36a1,1,0,0,0,0-.35h-.79c0,.12,0,.24,0,.35a1.09,1.09,0,0,0,0,.36ZM70.8,70.82v.36c0,.11,0,.24,0,.35h.79c0-.12,0-.24,0-.35a.73.73,0,0,0,0-.36ZM68.54,86.94v.76l0,0c.1,0,.22,0,.34,0s.24,0,.34,0V87s0,0,0,0ZM26.21,60l0,0v.66a.4.4,0,0,0,.26,0,1.22,1.22,0,0,0,.27,0c.09,0,.18,0,.27,0v-.65l0,0ZM78.49,85.39h-.35a.78.78,0,0,0-.37,0c0,.2,0,.39,0,.58s0,.15,0,.21.21,0,.32,0a.85.85,0,0,0,.35,0ZM47.72,79.2c.09.06.18,0,.26,0h.28c.08,0,.17,0,.26,0v-.65c-.09-.06-.18,0-.27,0H48c-.08,0-.18,0-.26,0ZM90.09,70v-.35a.88.88,0,0,0,0-.36c-.19,0-.39,0-.58,0s-.15,0-.21,0,0,.21,0,.32a.7.7,0,0,0,0,.35ZM7,94.63c.15,0,.25,0,.36,0a.91.91,0,0,0,.36,0v-.49c0-.07,0-.15-.05-.2H7.33a1.09,1.09,0,0,0-.36,0Zm-1.54,7.7h.36a.91.91,0,0,0,.36,0v-.49c0-.07,0-.15-.05-.21H5.79a.88.88,0,0,0-.36,0ZM83.07,79.24s0,0,0,0v-.67a.69.69,0,0,0-.35,0,.7.7,0,0,0-.35,0v.66l0,0Z"/><path d="M69.27,100.79v-.69l0,0h1.46a1.28,1.28,0,0,0,0-.39v-.42h.78c.07-.12,0-.24,0-.36a1.17,1.17,0,0,1,0-.37h.66l0,0v-.74a1,1,0,0,1,.39,0h.39a.46.46,0,0,1,0,.28,1.77,1.77,0,0,1,0,.23v.27c.11.07.23,0,.35,0a1.58,1.58,0,0,1,.37,0v.65l0,0h.73c.07,0,0,.13,0,.2,0,.44,0,.87,0,1.3l-.06,0h-.71l0,0a.08.08,0,0,0,0,0v2.24l.06,0h1.44c.07-.08,0-.18,0-.26a2.43,2.43,0,0,0,0-.27c0-.09,0-.18,0-.27h1.47l0,0v.74c.12.07.26,0,.39,0s.26,0,.38,0l0,0v1.45s0,0,0,0H72.38l0-.06v-2.94a.06.06,0,0,0,0,0s0,0,0,0H70.13l0,0v-.72s0,0,0,0,0,0,0,0Z"/><path d="M82.39,101.6h.68c.07.06,0,.14.05.21v.48l0,0h.72a7.76,7.76,0,0,1,0,1.51c-.08,0-.17,0-.26,0h-.49c-.08.08,0,.17,0,.26a2.43,2.43,0,0,0,0,.27c0,.09,0,.18,0,.27H78.54a8.25,8.25,0,0,1,0-1.52h2.29c.07-.1,0-.19,0-.28a2.43,2.43,0,0,0,0-.27.54.54,0,0,1,0-.27h1.47a1,1,0,0,0,0-.37C82.4,101.84,82.39,101.72,82.39,101.6Z"/><path d="M21.55,100.75V98.56c.38,0,2.59,0,3.07,0v.65s0,0,.05,0h.72c.07,0,0,.13,0,.2,0,.44,0,.87,0,1.29,0,0,0,.05-.05.05h-3.8S21.57,100.77,21.55,100.75Z"/><path d="M67.72,100.07h.78s0,0,0,0v1.45l0,0H64c-.07-.09,0-.18,0-.26a2.43,2.43,0,0,1,0-.27v-.28h.69c.07-.13,0-.25,0-.36s0-.21,0-.32.14,0,.21,0h1.28s.05,0,.05,0,0,0,0,0v-.68c.06-.07.14,0,.21,0h1.29s0,0,0,0a.27.27,0,0,1,0,.09Z"/><path d="M66.19,104.65v-.75l0,0s0,0,0,0H67c.08-.06,0-.14,0-.21v-.47l0,0h3.7s0,0,0,0v1.46s0,0,0,0H66.24S66.21,104.66,66.19,104.65Z"/><path d="M32.32,103.14v-1.5c.12-.07.26,0,.39,0h.42c0-.27,0-.52,0-.77a7.27,7.27,0,0,1,1.53,0v.75c.12.08.24,0,.36,0s.23,0,.36,0v1.5s0,0,0,0a.27.27,0,0,1-.09,0Z"/><path d="M33.86,93.09h-.69c-.07.12,0,.26,0,.39v.38l-.05,0h-.73a.91.91,0,0,1,0-.4c0-.13,0-.26,0-.38l-.06,0H30.09a8.21,8.21,0,0,1,0-1.51l.08,0h2.93c.07.09,0,.18,0,.27a2.43,2.43,0,0,1,0,.27c0,.09,0,.18,0,.27h.66a1,1,0,0,1,0,.37Z"/><path d="M23.9,104.65v-1.47l0,0h3.71s0,0,0,0v1.46s0,0,0,0H24Z"/><path d="M28.51,102.33v-.69s0,0-.05,0H27a6.16,6.16,0,0,1,0-1.51c.39,0,2.59,0,3.06,0v.66a.77.77,0,0,0,.36,0h.36v.78a.55.55,0,0,1-.31,0c-.1,0-.21,0-.31,0h-.59c-.1,0-.21,0-.32,0v.66a.91.91,0,0,1-.36,0Z"/><path d="M52.34,102.3v-1.48c.1-.06.2,0,.3,0s.22,0,.32,0h.59c.1,0,.2,0,.32,0v-.65a8.67,8.67,0,0,1,1.53,0v1.49a1,1,0,0,1-.35,0c-.11,0-.21,0-.32,0s0,.14,0,.21v.49A22.83,22.83,0,0,1,52.34,102.3Z"/><path d="M28.51,90v1.51l0,0h-3.8l0,0v-.65s0,0,0,0a.27.27,0,0,1,.09,0h.64a.74.74,0,0,0,0-.39c0-.13,0-.27,0-.39l0,0Z"/><path d="M64.64,81.59v1.49c0,.08-.13,0-.2,0H64s0,0,0,.05v.63s0,0,0,0h2.16l0,0,0,0v.71s0,0,0,0H63.21l-.08,0s0,0,0,0c0-.75,0-1.51,0-2.25.09-.08.18,0,.27,0h.27a.46.46,0,0,0,.28,0v-.66a.9.9,0,0,1,.36,0C64.4,81.58,64.52,81.59,64.64,81.59Z"/><path d="M23.9,86.9V85.43c.41-.05,2.63-.05,3.07,0V86.9C26.57,86.94,24.34,87,23.9,86.9Z"/><path d="M36.94,103.15h3l0,0a.27.27,0,0,1,0,.09v1.35c0,.07-.1.05-.16.05H37s0,0,0,0,0-.06,0-.09Z"/><path d="M24.62,95.45v-.78l.05,0h.72c.08-.11,0-.23,0-.34s0-.24,0-.34,0,0,0,0h.63c.08.1,0,.23,0,.34s0,.24,0,.38c.27,0,.52,0,.77,0a6.74,6.74,0,0,1,0,1.51c-.45,0-2.65,0-3.06,0v-.67c.12-.06.24,0,.36,0S24.47,95.45,24.62,95.45Z"/><path d="M38.48,88.47v-.69l0,0h.74a1,1,0,0,0,0-.39c0-.13,0-.27,0-.39l.05,0H40.8a1.08,1.08,0,0,1,0,.4v.38l.05,0h2.17c.08.11,0,.23,0,.35s0,.23,0,.33l-.05,0Z"/><path d="M32.32,103.14v1.49s0,0,0,0h-3a1,1,0,0,1,0-.38c0-.13,0-.27,0-.38l.05,0a.66.66,0,0,1,.14,0h1.31c.07-.11,0-.23,0-.35v-.34l0,0Z"/><path d="M43.9,100.09v1.48a22.83,22.83,0,0,1-2.34,0V100.1A20.26,20.26,0,0,1,43.9,100.09Z"/><path d="M61.57,104.68v-1.5s0,0,0,0h2.26c.08.06.05.14.05.21v1.29l-.05,0Z"/><path d="M30.05,97h-.78a9.77,9.77,0,0,1,0-1.53h1.48c.06.12,0,.24,0,.35a1,1,0,0,0,0,.37h.74c.07.09,0,.18,0,.27a1.22,1.22,0,0,1,0,.27c0,.09,0,.18,0,.27h-.75c-.07.13,0,.25,0,.37s0,.23,0,.35h-.7a.7.7,0,0,1,0-.35C30.05,97.24,30.05,97.14,30.05,97Z"/><path d="M46.18,101.6v-.78a.55.55,0,0,1,.31,0c.12,0,.24,0,.36,0H48.2c.11,0,.21,0,.32,0v-.65a.68.68,0,0,1,.37,0,.7.7,0,0,1,.35,0v1.48c-.1.07-.2,0-.3,0s-.21,0-.32,0H48a.74.74,0,0,0-.32,0v.65a.64.64,0,0,1-.36,0,.75.75,0,0,1-.36,0v-.65l-.05-.05h-.76Z"/><path d="M56.23,92.37V90.86l0,0h2.17l0,0a.08.08,0,0,1,0,0v1.42s0,.05-.05.05Z"/><path d="M56.22,103.15h2.23l0,0v1.45c-.06.07-.14,0-.21,0h-2s-.05,0-.05-.05Z"/><path d="M61.56,90.79v-.74a8.77,8.77,0,0,1,1.54,0v.76a.88.88,0,0,1-.36,0h-.31c-.08,0,0,.13,0,.2v.49a23,23,0,0,1-2.35,0v-.66a.56.56,0,0,1,.31,0c.11,0,.21,0,.32,0h.58C61.35,90.82,61.45,90.86,61.56,90.79Z"/><path d="M31.56,88.47H30.8a1.09,1.09,0,0,1,0-.36c0-.1,0-.21,0-.32s-.14,0-.21,0H29.28l0,0V87a13.86,13.86,0,0,1,2.32,0A9.64,9.64,0,0,1,31.56,88.47Z"/><path d="M40.82,90v.75c-.08.07-.17,0-.26,0a2.43,2.43,0,0,0-.27,0c-.09,0-.18,0-.27,0v.66a.79.79,0,0,1-.37,0,.76.76,0,0,1-.36,0v-.65l0,0a.27.27,0,0,0-.09,0h-.64a.74.74,0,0,1,0-.39c0-.13,0-.26,0-.4A22.83,22.83,0,0,1,40.82,90Z"/><path d="M43.92,89.26V88.5c.11-.06.23,0,.35,0a1.12,1.12,0,0,0,.36,0v-.66c.1-.07.19,0,.27,0a2.43,2.43,0,0,1,.27,0h.28v.69a.88.88,0,0,0,.36,0c.1,0,.21,0,.31,0s.05.14.05.21v.58A21.11,21.11,0,0,1,43.92,89.26Z"/><path d="M47,90.84h1.5s0,0,0,0c0,.48,0,1,0,1.44a6.22,6.22,0,0,1-1.51,0s0,0,0,0Z"/><path d="M43.91,103.15h2.23c.07.11,0,.23,0,.35a.74.74,0,0,1,0,.36h-.65a.4.4,0,0,0,0,.28,2.43,2.43,0,0,0,0,.27v.26h-.78c-.07-.08,0-.17,0-.26a2.43,2.43,0,0,0,0-.27c0-.09,0-.18,0-.27h-.65a1,1,0,0,1,0-.37C43.9,103.4,43.91,103.29,43.91,103.15Z"/><path d="M53.86,90.86v.67a1,1,0,0,1-.35,0c-.12,0-.24,0-.37,0v.77l0,.05h-.72c-.08-.06-.05-.14-.05-.21V91.6s0,0,0,0h-.63c-.08-.1,0-.23,0-.34s0-.24,0-.35A21.3,21.3,0,0,1,53.86,90.86Z"/><path d="M42.38,91.55v-.69l0,0h3c.08,0,0,.13.05.2v.48l-.05,0Z"/><path d="M36.2,88.5v.76a22.83,22.83,0,0,1-2.34,0V88.5A22.83,22.83,0,0,1,36.2,88.5Z"/><path d="M52.34,104.65v-.75a22.83,22.83,0,0,1,2.34,0v.75A22.83,22.83,0,0,1,52.34,104.65Z"/><path d="M29.23,82.32v.77l0,0H27c-.07,0,0-.13,0-.2s0-.39,0-.57c0,0,0,0,0,0Z"/><path d="M50.06,103.14v1.51a9.63,9.63,0,0,1-1.52,0v-.76c.11-.06.23,0,.35,0s.23,0,.36,0v-.65l0,0h.76Z"/><path d="M66.18,80.05v1.48a.08.08,0,0,1,0,0l0,0H64.64c0-.25,0-.51,0-.76,0,0,0,0,0,0h.74c.07-.12,0-.24,0-.35s0-.24,0-.34l.05,0Z"/><path d="M39.29,83.13h1.48s0,0,0,0v1.48a1,1,0,0,1-.38,0h-.38l0,0a.66.66,0,0,1,0-.14V83.9c-.1-.08-.22,0-.34,0h-.34s0,0,0,0Z"/><path d="M68.55,83.13v-.78l0,0H70c.08.05,0,.13,0,.2v.57l0,0Z"/><path d="M51.6,85.39v.78l0,0h-.73c-.07-.12,0-.26,0-.39s0-.26,0-.38l.05,0h.76Z"/><path d="M31.6,85.39V84.7a.88.88,0,0,1,.36,0c.1,0,.21,0,.31,0s0,.23,0,.34v.35a.91.91,0,0,1-.36,0C31.85,85.4,31.75,85.39,31.6,85.39Z"/><path d="M73.16,40h-.78c-.08.1,0,.23,0,.34s0,.24,0,.34l0,0H70.12c-.08-.11,0-.23,0-.35s0-.23,0-.33L70,40H67.76c-.07-.08,0-.17,0-.26a2.43,2.43,0,0,0,0-.27.44.44,0,0,0,0-.27H62.42c-.08-.13,0-.25,0-.37s0-.23,0-.36H60.89s0,0,0-.05V37c.11-.08.23,0,.35,0s.23,0,.36,0c0-.27,0-.52,0-.78l0,0h3.76l.09,0v.74c.11.09.22,0,.32.05h.91c.1,0,.2,0,.32,0v.65s0,0,0,0H68.5c.07-.1,0-.22,0-.34V37l0,0h.64c.07.11,0,.24,0,.35a1.58,1.58,0,0,0,0,.37h2.28c.08.09,0,.18,0,.27s0,.18,0,.27a.46.46,0,0,0,0,.28H73.1s.05,0,.05,0a.28.28,0,0,1,0,.09Z"/><path d="M70.8,33.87H69.31c-.08.06,0,.14,0,.21v.47l-.05,0h-3c-.07-.11,0-.24,0-.35s0-.24,0-.36c-.24,0-.46,0-.68,0-.07-.07,0-.17,0-.25a2.43,2.43,0,0,1,0-.27c0-.09,0-.18,0-.27h-.75l0,0a.07.07,0,0,0,0,0v.68c-.1.08-.22,0-.34,0s-.23,0-.34,0l0,0V33.1s0,0,0,0h-3l0,0,0,0V30.84l0,0h3.66l.1,0v1.47a7.83,7.83,0,0,0,1.54,0v-.73s0-.05,0-.05H67c.07-.11,0-.23,0-.35v-.34l0,0h.64c.07.12,0,.24,0,.35a1.58,1.58,0,0,0,0,.37H70c.08.11,0,.22,0,.32v.59c0,.1,0,.21,0,.31a.6.6,0,0,0,0,.32h.64l0,.05v.77Z"/><path d="M50.07,33.06V31.55s0,0,0,0h2.17c.07-.11,0-.23,0-.35s0-.23,0-.34l.05,0h2.27c.07.12,0,.24,0,.35s0,.24,0,.37h1.51c.07-.11,0-.23,0-.35s0-.23,0-.36h2.24a.7.7,0,0,1,0,.35c0,.12,0,.24,0,.37h.77s0,0,0,.05V33a1.56,1.56,0,0,1-.43,0H56.25a1.18,1.18,0,0,1,0-.37v-.32a7.84,7.84,0,0,0-1.52,0c0,.22,0,.45,0,.67l0,0H52.39s0,0-.06,0v.74a7.84,7.84,0,0,1-1.54,0v-.75c-.13-.07-.25,0-.36,0S50.22,33.06,50.07,33.06Z"/><path d="M58.49,26.9v.77c-.06.07-.14,0-.21,0H55.44a1,1,0,0,0,0,.37c0,.11,0,.21,0,.31l0,0h-3s0-.05,0-.06V26.22c.08-.08.18,0,.26,0h.27a.46.46,0,0,0,.28,0v-.73l0-.05h4.52l0,0v1.47a.91.91,0,0,0,.36,0C58.24,26.91,58.37,26.9,58.49,26.9Z"/><path d="M58.49,26.89v-.72h.77s0,0,0,0v-.72c0-.07.1-.05.16-.05h2.88a8.38,8.38,0,0,1,0,1.53Z"/><path d="M36.22,60v-.78l0,0h1.45c.08-.12,0-.24,0-.36s0-.23,0-.36H40c.06.11,0,.23,0,.35s0,.23,0,.37h-.68s0,0,0,0V60a1,1,0,0,1-.39,0h-.41c0,.24,0,.47,0,.69a8.51,8.51,0,0,1-1.53,0v-.67a1,1,0,0,0-.37,0Z"/><path d="M42.37,56.15H44.6c.07.12,0,.25,0,.38s0,.27,0,.4a1,1,0,0,1-.37,0H44c-.08.11,0,.24,0,.35a2.17,2.17,0,0,1,0,.36h-3c-.07-.1,0-.22,0-.34s0-.23,0-.37h1.49l0,0v-.77Z"/><path d="M59.3,60.76V59.28l0-.05h2.19a8.08,8.08,0,0,1,0,1.51l0,0Z"/><path d="M53.87,56.14H52.36a9.63,9.63,0,0,1,0-1.52h.74c.07.09,0,.18,0,.27s0,.18,0,.27a.44.44,0,0,0,0,.27h.66a.91.91,0,0,1,0,.36Z"/><path d="M47.71,56.14H46.2a.88.88,0,0,1,0-.36v-.31a6.25,6.25,0,0,1,1.52,0,1,1,0,0,1,0,.35C47.72,55.89,47.71,56,47.71,56.14Z"/><path d="M53.88,60v-.78s0,0,0,0h.73c.07.12,0,.25,0,.38s0,.27,0,.39l0,0h-.76Z"/><path d="M34.67,61.58v-.82h.68c.08.06,0,.14,0,.21v.58a1,1,0,0,1-.37,0C34.91,61.59,34.79,61.58,34.67,61.58Z"/><path d="M34.67,61.58v.67l0,0h-.75c-.07-.1,0-.22,0-.34s0-.23,0-.33l0,0Z"/><path d="M48.53,50v.77l-.05,0h-.72a6.34,6.34,0,0,1,0-1.51,20.31,20.31,0,0,1,2.34,0V50l0,0H48.53Z"/><path d="M55.4,50v.79a1,1,0,0,1-.35,0c-.11,0-.21,0-.32,0s0-.13,0-.2V50a1,1,0,0,1,.37,0C55.15,50,55.26,50,55.4,50Z"/><path d="M63.11,51.53v-.69l0,0h.72c.08.06.05.14.05.21v.47s0,.05-.05.05h-.76Z"/><path d="M60.84,50.8V50l0,0h.66l0,0a.06.06,0,0,0,0,0v.69l-.06,0Z"/><path d="M70.08,53.07v-.69l0,0h1.44c.08.06,0,.14.05.21V53l-.05,0H70.08Z"/></g></g></svg>