<svg xmlns="http://www.w3.org/2000/svg" viewBox="0 0 93.36 93.36"><title>Recurso 78MANDALA</title><g id="Capa_2" data-name="Capa 2"><g id="Capa_1-2" data-name="Capa 1"><path d="M93.36,41.08c0,10.35-.44-12.93-18.74-12.93-18.75,0-18.75,23.28-18.75,12.93a18.75,18.75,0,1,1,37.49,0Z"/><path d="M84.31,18.49c5.17,9-6.86-11-22.7-1.83C45.37,26,57,46.2,51.84,37.23A18.74,18.74,0,0,1,84.31,18.49Z"/><path d="M65.17,3.45c9,5.18-11.42-6.08-20.57,9.77-9.37,16.24,10.79,27.88,1.82,22.7A18.75,18.75,0,1,1,65.17,3.45Z"/><path d="M41.08,0C51.43,0,28.15.45,28.15,18.75c0,18.74,23.28,18.74,12.93,18.74A18.75,18.75,0,1,1,41.08,0Z"/><path d="M18.49,9.06c9-5.18-11,6.85-1.83,22.7C26,48,46.2,36.35,37.23,41.53A18.74,18.74,0,0,1,18.49,9.06Z"/><path d="M3.45,28.19c5.18-9-6.08,11.42,9.77,20.57C29.46,58.14,41.1,38,35.92,46.94A18.75,18.75,0,0,1,3.45,28.19Z"/><path d="M0,52.28C0,41.93.45,65.21,18.75,65.21c18.74,0,18.74-23.28,18.74-12.93A18.75,18.75,0,1,1,0,52.28Z"/><path d="M9.06,74.87c-5.18-9,6.85,11,22.7,1.83C48,67.32,36.35,47.16,41.53,56.13A18.74,18.74,0,1,1,9.06,74.87Z"/><path d="M28.19,89.91c-9-5.18,11.42,6.08,20.57-9.77C58.14,63.9,38,52.26,46.94,57.44A18.75,18.75,0,0,1,28.19,89.91Z"/><path d="M52.28,93.36c-10.35,0,12.93-.44,12.93-18.74,0-18.75-23.28-18.75-12.93-18.75a18.75,18.75,0,1,1,0,37.49Z"/><path d="M74.87,84.31c-9,5.17,11-6.86,1.83-22.7C67.32,45.37,47.16,57,56.13,51.84A18.74,18.74,0,1,1,74.87,84.31Z"/><path d="M89.91,65.17c-5.18,9,6.08-11.42-9.77-20.57-16.24-9.37-27.88,10.79-22.7,1.82A18.75,18.75,0,1,1,89.91,65.17Z"/></g></g></svg>