<svg xmlns="http://www.w3.org/2000/svg" viewBox="0 0 315.31 33.34"><title>Recurso 25GRAPHS</title><g id="Capa_2" data-name="Capa 2"><g id="Capa_1-2" data-name="Capa 1"><path d="M22.89,28.52c.42.07.48-.47.85-.57l0-1.42.48-.5-.43-.49,0-1.39.68-.65.47,0,.7,1.41-.09,4.93c.42.23.42-.05.45-.24a7.6,7.6,0,0,1,.13-1.79l.66-.16c.06-.05.16-.11.16-.16,0-1.08.05-2.16.07-3.25l.69-.67c.67-.06.79.4,1.17.67l-.1,5.12c.38.43,1.08,0,1.07.93.19-.37.31-.49.32-.62,0-1.78.07-3.55.1-5.33,0-.22.06-.43.08-.63l.56-.12.7.64-.05,2.35.49.5-.05,2.78c.13.14.18.24.24.24.3,0,.61,0,.94,0,.69-.66.07-1.19-.22-1.81l.76-1.4c.66-.09.8.46,1.13.74,0,.15,0,.3,0,.5l.89.34-.13.84-.59-.54a1.25,1.25,0,0,0-.21.37,7.71,7.71,0,0,0,0,.81c.45.33.83.14,1.18.21.08-.17.2-.29.2-.42,0-1.93.08-3.87.12-5.86l.79-.63.57,1.14L37.62,30c.55.47,1.12.1,1.6.33L40,28.86l-.88-1.69.29-.29c0-.06.13-.11.13-.17,0-.93,0-1.85.05-2.73l.71-.69L41,24a2.77,2.77,0,0,1,0,.42L40.89,30c0,.06.07.12.15.24l1.05,0c.06-.13.18-.26.18-.39,0-1.31.06-2.62.08-3.94l.48-.5,0-1.49.89-.11,0,2,.47.57c.18.55-.41.66-.47,1.13l.48.91-.51.88a1.34,1.34,0,0,0,.85,1c.48.07.61-.4,1-.64l.11-6.19.68-.12.71.73c0,1.66-.06,3.35-.09,5.05,0,.06.08.12.13.19.47-.07.65-.53,1-.79l.49.45c.47-.67.07-1.47.33-2.17.33-.29.73-.06,1.09-.12.08.13.21.25.21.38,0,1.06,0,2.13-.05,3.37.37-.23.57-.38.8-.49a4.44,4.44,0,0,1,.6-.16l.1-5.63.7-.66.61.59c.21.47-.16,1.12.5,1.45l0,1.42-.43.48,0,1.82c.38.26.39.75.6,1.15l1,0a1.62,1.62,0,0,0,.17-.23,1.69,1.69,0,0,0,0-.23l.11-6.29.63-.18.75.74-.07,3.79c.74.17.28-.53.94-.74l.28-.06c.19-.17.19-.17.21-1.55l.48-.49,0-1,.63-.22.71,1.4-.06,3.44.67.8h1c.56-.5.11-.8-.21-1.14l.07-4.16c.34-.26.5-.79,1.18-.68,0,.13.12.32.21.5s.21.38.4.73l0,2.5.55.9-.51.78a2,2,0,0,0,0,.93c.76.45.95-.27,1.33-.54L64.19,23l-.33-.34c-.23-.43-.06-.9-.1-1.34L64.48,20h.93l.66.69,0,.93-.44.48-.15,8.32c.38.28.54,1,1.25.62.33-.41-.15-1.12.57-1.43l0-2.43-.38-.39,0-2.9.73-.59c.51-.09.68.32,1,.56,0,.06.12.11.14.17a.89.89,0,0,1,0,.23l-.11,6.23.66.69.46,0c.08-.11.25-.22.25-.33.06-2.31.09-4.62.13-6.71l.65-.8c.7-.13.83.46,1.21.64l-.12,6.55.68.68.67-.61.1-5.6-.33-.43.57-1.16,1,0c.07.08.17.13.17.19q0,3.24-.11,6.49l.65.67a1.69,1.69,0,0,0,1.17-.12l.12-6.9.73-.8.69.72c0,2.29-.08,4.6-.11,6.91,0,.06.08.12.16.23l1,0a2,2,0,0,0,.17-.42c.07-3.32.12-6.64.18-10l.66-.64c.72.27.62,1.13,1.16,1.57l-.44.49,0,2.3.44.49,0,.91-.45.48,0,.93.42.43-.06,3.38.69.16.71-.71.07-3.7-.43-.49,0-2,.59-.92c.75-.1.85.38,1.25.58L84,30.22l.67.83.52,0c0-.05.16-.1.16-.16,0-2.31.09-4.62.13-6.87l.75-.78c.6-.1.73.36,1,.53a1.8,1.8,0,0,1,.14.22.88.88,0,0,1,0,.23l-.11,6.2.68.71h.53c.4-.78,0-1.65.33-2.58a1.65,1.65,0,0,0,.37-1.32l-.45-.51,0-2.39.61-1c.75-.08.86.39,1.24.65l-.11,6.53c.4.39.8.17,1.16.25.08-.12.22-.24.23-.37,0-1.22.05-2.44.07-3.56l-.44-.46,0-1.85c.2-.35.83-.48.39-1.13l1.29,0c.09.1.15.15.17.22a.45.45,0,0,1,0,.23l-.12,6.69c.41.39.85.27,1.36.11l.18-10.2.74-.77,1.14,1.18-.17,9.73c.37.43.81.25,1.25.17a1,1,0,0,0,.14-.17.89.89,0,0,0,0-.23L98,24.09c.36-.29.59-.77,1.15-.67.24.67.83,1.22.67,2.06l-.45.5,0,2.3.44.49,0,2,.72.13a1.66,1.66,0,0,0,.21-.27.87.87,0,0,0,0-.23l.1-6,.71-1.32H102l.71,1.42-.12,6.3c.43.3.81.12,1.14.18l.71-1.29,0-2.63-.32-.34a1.48,1.48,0,0,1-.12-.41c0-.84,0-1.69,0-2.52.33-.23.5-.62.67-.65.74,0,.8.5,1.22.63l-.13,7.2,1.18,0a1.26,1.26,0,0,0,.18-.37c0-2.24.09-4.49.13-6.78l.73-.6.64.61-.12,6.42.68.82.51,0c.06-.05.16-.1.16-.16.07-3.39.13-6.78.19-10.14l.78-.79c.41,0,.67.06.68.5,0,.19.17.39.1.24a5.78,5.78,0,0,1,.33.5,1.76,1.76,0,0,1,0,.23l-.17,9.46a1.2,1.2,0,0,0,1.37.08l.13-7.46c.41-.44.83-.1,1.15-.27l.7.73-.12,6.46.76.83.35-.82c.43-.32.29-.87.32-1.39s0-.91,0-1.33l-.41-.42.06-3.24.61-.73,1,0c.07.15.2.27.19.4,0,2-.06,4-.09,6,0,.29-.13.61.15.93l1,0c.07-.14.18-.27.18-.4.05-2.24.09-4.48.13-6.75l.75-.67,1.11,1.46-.11,6.26c.42.31.8.17,1.17.17a1.21,1.21,0,0,0,.16-.16.49.49,0,0,0,0-.21c0-2.4.08-4.79.13-7.19,0-.06.09-.12.17-.23l1,0c.22.38.2.89.63,1.16l-.12,6.59.88.12.19-10.36.73-.77c.39.41.77.79,1.14,1.19l-.09,5.54.44.51-.4.38,0,2.86.6.68h.5c.08-.13.21-.25.22-.38.05-2.24.09-4.48.13-6.82l.75-.66c.36,0,.7,0,.64.48s.35.46.44.72l0,2.29-.54.6.53,1,0,2.59c.14.13.19.21.25.22a3.27,3.27,0,0,0,.44,0c.07-.07.17-.12.18-.17q.06-3.46.13-6.93l.7-.72,1.05,0a1.48,1.48,0,0,1,.15.43c0,1.47-.05,2.93-.07,4.4l.4.42,0,2.32a.62.62,0,0,0,.93.14l0-1.79.45-.56c.07-.48.35-1-.34-1.33l.06-3.37.55-.62c.72-.12.87.32,1.15.54a.76.76,0,0,1,.12.19.88.88,0,0,1,0,.23l-.12,6.75.69.21.68-.81.12-6.91.92-.47.36.38c.05.05.13.11.14.17a3.53,3.53,0,0,1,0,.46l-.12,6.47.66.68.45,0c.56-.4.18-1,.3-1.48l.57-.9-.54-.66c0-2.55.09-5.17.14-7.79,0-.06.08-.12.16-.23h1l.68.65-.17,9.75c.38.47.84.07,1.16.27a1.46,1.46,0,0,0,.22-.32.88.88,0,0,0,0-.23q.06-3,.11-6a.8.8,0,0,1,0-.21l.66-.65c.57.13.57.13,1.15.72,0,2.12-.08,4.28-.11,6.44,0,.06.08.12.15.23l.56,0c.09-.09.19-.14.19-.19,0-2.32.09-4.64.13-6.56.34-.59.53-.92.62-1.06.75-.08.85.41,1.24.6l-.12,7c.4.39.81.17,1.17.25.07-.13.21-.25.22-.37,0-1.78.07-3.55.1-5.37l-.42-.51.44-.48v-.9c.29-.41.71-.15,1.1-.26l.72.69-.12,7c.38.44.8.2,1.16.29.09-.11.25-.22.25-.34.06-2.3.09-4.61.13-6.85L154,23l.47.05c.06.06.16.11.16.17,0,.92,0,1.84-.05,2.75l.49.54-.08,4.27.71.14a1.4,1.4,0,0,0,.22-.27,1.62,1.62,0,0,0,0-.23l.17-9.93c.37-.29.59-.77,1.17-.67.18.38.37.76.7,1.42l-.17,9.54c.78.51,1-.25,1.37-.49q.07-3.48.13-7l.67-.64c.68.29.66,1.1,1.2,1.67L161,30.47l.67.08c.09-.08.19-.14.19-.19,0-2,.08-4,.12-5.9l.71-1.19.41-.15.74.72-.11,6.5c.39.46.82.14,1.13.32.12-.16.27-.27.27-.39.06-2.31.1-4.61.14-6.83l.58-.57c.06,0,.15-.08.16-.06.38.38.75.77,1.12,1.15L167,30.52l.67.2.67-.8.07-3.69-.39-.4,0-1.86c.16-.34.83-.46.37-1.13l1.3,0c.08.09.16.14.17.21a3.53,3.53,0,0,1,0,.46l-.12,6.94c.39.4.83.26,1.26.15a.94.94,0,0,0,.12-.18.6.6,0,0,0,0-.23l.18-9.74a.78.78,0,0,1,0-.21l.67-.65,1.13,1.18L173,29.43l.66,1.33.56,0c.08-.11.14-.16.16-.23a.87.87,0,0,0,0-.23c0-2.16.07-4.33.11-6.49a1.6,1.6,0,0,1,.05-.21l.66-.65c.57-.1.78.39,1.15.71,0,2.28-.08,4.6-.12,6.91,0,.06.08.12.16.23l1.05,0c.34-.31.11-.73.19-1.08l-.44-.51.09-4.93L178,23l.92,0c.05,0,.15.08.15.13,0,.92.07,1.83.1,2.87l.37.48,0,1.86c-.08.25-.61.38-.43.9l.43.49v1l.7.15c.13-.15.2-.2.22-.26a.6.6,0,0,0,0-.23l.12-6.7.7-.67.92,0c.08.1.23.22.23.33,0,2.47-.08,4.93-.12,7.44L183,31l.72-.68.09-5.11-.44-.49,0-.92,1.22-1.17c.19.22.57.47.55.68-.06.6.68.84.52,1.44l-.47.49,0,1.83.47.53-.06,3.22A1.36,1.36,0,0,0,186,31a1.84,1.84,0,0,0,.5-.13l.19-10.63.71-.8,1.16,1.18-.17,9.74c.38.41.82.24,1.25.15a.55.55,0,0,0,.13-.18.59.59,0,0,0,0-.23l.12-6.67.71-.69L191.7,24c0,2.1-.08,4.26-.11,6.43,0,.05.09.11.17.21h.56c.08-.08.18-.14.18-.19q.08-3.48.13-6.95c.32-.21.47-.63.89-.67s.59.43,1,.69l-.13,7c.42.34.81.17,1.17.2.07-.12.2-.25.21-.37,0-1.47.06-2.94.09-4.43l-.45-.52,0-1.87.7-.6,1.12,0,0,2,.48.5-.09,5.23.68.15c.51-.46.19-1,.3-1.6l.44-.5,0-.91-.43-.49.06-3.36.6-1c.75-.08.87.38,1.24.64l-.11,6.4.66.85.53,0c0-.05.15-.1.16-.16,0-2.62.1-5.24.14-7.92l-.41-.47,0-1.23.68-1.25,1.08,0a5.64,5.64,0,0,1,.07,1.87c0,.69,0,1.39,0,2.08l0,1.86,0,1.79.45.46-.05,2.79c.13.13.18.22.24.23a3.53,3.53,0,0,0,.46,0,1.37,1.37,0,0,0,.17-.17.47.47,0,0,0,.06-.2c.05-2.46.09-4.92.13-7.32.62-.33,1.15-.05,1.6-.18.12.12.19.16.22.23a.51.51,0,0,1,0,.22c0,1.15,0,2.31-.06,3.49l.45.51-.05,3.23c.12.08.23.21.36.23a1.06,1.06,0,0,0,.42-.07c.05,0,.12-.1.14-.17a.59.59,0,0,0,0-.23l.12-6.7c.34-.21.47-.65.9-.67s.59.45,1,.71l-.13,7c.79.53.95-.3,1.38-.43l.06-3.31-.32-.32a1.36,1.36,0,0,1-.13-.42c0-.84,0-1.69,0-2.51l.7-.68.93,0c.19.37.38.76.7,1.42l-.11,6.39.68.08c.08-.09.19-.14.19-.19,0-2.47.09-4.94.14-7.41l1.3-.66.55,1.15-.12,6.43c.39.43.81.19,1.16.28.09-.11.24-.23.25-.34,0-1.69.07-3.38.1-5l-.43-.45.07-4.15a2.49,2.49,0,0,0,.6-1.11c.59-.32.79.23,1.11.5a.71.71,0,0,1,.12.18.59.59,0,0,1,0,.23l-.09,5.28.4.42,0,2.36-.38.48c-.42.84.6,1.33.51,2.11l.63-.06c.38-.47.15-1,.19-1.55s0-1.08,0-1.62l0-1.85c0-.54,0-1.08,0-1.62a3.34,3.34,0,0,1,.18-1.61l1.05,0,.51.53a.76.76,0,0,1,.12.19.88.88,0,0,1,0,.23l-.12,6.67.69.71.68-.68,0-1.39-.42-.49,0-.9.45-.48,0-.91-.43-.49,0-2.33.69-.66h.93l.65,1.33L225,30.46c.24.29.41.61.78.71.34-.49,0-1.05.25-1.61l.38-.4,0-1.4-.38-.41.06-3.68.63-.75c.74,0,1,.4,1.18.93a1.74,1.74,0,0,0,.15.4,3.31,3.31,0,0,0,.31.36l-.11,6.12.73.1c.11-.17.18-.23.18-.29,0-1.84.08-3.69.11-5.46l-.48-.6.63-1.4c.34-.22.71-.07,1.08-.06.21.22.43.44.64.67L231,30.75l.71.14c.12-.15.19-.2.21-.26a.6.6,0,0,0,0-.23l.18-9.89,1.2-1.16L234,20l-.17,9.24.47.52,0,1L235,31a1.51,1.51,0,0,0,.21-.27.87.87,0,0,0,0-.23l.12-6.68.7-.68.92,0c.08.11.23.22.23.34,0,1.54,0,3.07-.07,4.52l.48.5,0,2.37c.42.19.43-.07.43-.27,0-1.16.05-2.32.07-3.49l.47-.48,0-.91-.44-.49,0-1.31,1.15-1.22,1.16,1.21-.12,6.58.72.13c.12-.16.18-.21.2-.28a.59.59,0,0,0,0-.23l.12-6.74a3,3,0,0,1,1.84,0l0,2.89.44.46-.42.5,0,1.83.42.49v1l.7.17c.13-.14.22-.19.23-.25,0-.23,0-.47,0-.7l.11-6.25c.3-.23.49-.6.73-.66.64,0,.75.43,1.13.68l-.09,5.13.42.44-.44.49,0,1,.69.16c.13-.15.22-.2.23-.26a3.53,3.53,0,0,0,0-.46l.17-9.09.69-1.3,1,0c.15.5.3,1,.59,2l-.13,7-.47.64.64,1.45h.57c.09-.09.17-.14.18-.21a2.36,2.36,0,0,0,0-.46l.12-6.93c.32-.4.74-.15,1.13-.22l.71.69-.12,7c.4.4.8.17,1.16.25.08-.12.22-.24.23-.37,0-2.24.09-4.48.13-6.87l.75-.6c.52-.11.68.32,1.08.63,0,2-.09,4-.07,5.95l.64,1.29c.09-.1.24-.2.25-.31.05-2.24.09-4.48.13-6.9l1.35-.95c.44.27.45,1,.93,1.56l-.12,6.53.68.18c.11-.14.27-.25.27-.37.06-2.24.09-4.48.14-6.9l.92-.6h.74c.07.15.19.28.19.41,0,2.09-.07,4.17-.11,6.26.4.28.41.76.7,1.32l.67-1.3.17-9.58.72-.8L265,20.6l-.17,9.84.71.13c.13-.16.19-.21.21-.28a.87.87,0,0,0,0-.23l.11-6.14,1.22-1.18c.65.33.58,1.18,1.09,1.63l-.11,6.13.72.12c.12-.16.19-.21.21-.27a1.77,1.77,0,0,0,0-.23l.12-6.69c.35-.21.47-.67.89-.67s.61.47.91.67a.52.52,0,0,1,0,.21q0,3.36-.11,6.72c0,.07.07.13.15.25l1.05,0c.06-.13.18-.25.18-.38,0-1.16.05-2.32.07-3.48l-.45-.5,0-2.16.69-1.29.94,0,.69,1.39-.11,6.4.68.11c.08-.09.19-.14.19-.2q.08-3.46.13-6.92l.7-.71,1,0c.15.37.28.69.25.63.28.43.34.49.35.56a.87.87,0,0,1,0,.23l-.12,6.29.63.18c.12-.14.29-.25.29-.36.06-2.46.1-4.92.14-7.31l-.42-.44.41-.49c.09-.79,0-1.63.09-2.5l1.22-.06.61,1.05-.18,9.89c.39.47.85.07,1.17.27.14-.19.21-.25.21-.31,0-.92,0-1.85.06-2.72l-.41-.43.06-3.86,1.52-1.05c-.43.11-.35.07-.33.09.33.32.65.66,1.05,1.08l-.12,7.07.67.19c.11-.14.28-.25.28-.37.05-2.31.09-4.61.13-6.7l.66-.81,1,0,.65,1.31-.12,6.44.71.14c.13-.15.22-.21.22-.27,0-2,.08-4,.11-6l-.49-.57c.13-.75.8-1,1.24-1.5l1,1c0,.06.12.11.12.18a2.36,2.36,0,0,1,0,.46l-.1,6,.55.57,1-.67-.59-.88.09-5a1.35,1.35,0,0,0,.51-.93c0-.23.41-.43.7-.72l1.08,1.45-.11,6.14.89.64c-.06.05,0,0,0-.06,0-.23,0-.46,0-.69l.18-10,.67-.65c.29.36.74.42,1.19.66l-.05,3.28.42.44-.44.49-.1,5.54.43.49c.08.23-.16.62.33.61a.92.92,0,0,0,.14-.2,1.77,1.77,0,0,0,0-.23q0-3.26.11-6.49c0-.07,0-.15,0,0l.72-1.34h.93l.67,1.37c0,1.92-.07,4.08-.11,6.24,0,.06.08.12.15.23l.56.05c.09-.09.19-.14.19-.2,0-2.31.09-4.63.14-7l.73-.65.91,0,.68.65-.13,7.1.68.15a1.68,1.68,0,0,0,.19-.19.37.37,0,0,0,.07-.2c.05-2.46.09-4.92.13-7.34a3.19,3.19,0,0,1,1.66-.11.61.61,0,0,1,.15.17.38.38,0,0,1,0,.21c0,1.93-.07,3.87-.1,5.82l.46.52c.16.32-.33.84.37,1.16.15-.75,0-1.44.12-2.1l.53-.58-.47-.94.06-3.68,1.31-.89c.39.28.47.93.92,1.6l-.12,6.48.68.18c.11-.14.27-.25.28-.37q.12-5.91.22-11.82l0-2,.73-.67c.6-.08.78.44,1.13.71,0,.31,0,.62,0,.92l.44.5-.4.38,0,2.89.36.38-.17,9.68c-.19.34-.38.72-.6,1.13l-1.34.54L291,32.86l-.5.48-27.82-.49-.43.42-31.95-.57-.54.47-23.14-.42-.52.47-31.05-.56-.33.33c-.06,0-.13.12-.19.12l-25.9-.46-.42.41-24-.43-.67.51-26.83-.48-.44.42-26.38-.47-.55.47-2.29,0-.33-.31a1.17,1.17,0,0,0-.39-.15c-.54,0-1.08,0-1.61,0l-.34.33c-.06,0-.12.12-.18.12l-24.06-.43-.42.41-21.23-.38-.62.47L4.48,32.82l-1.61-1L3,27.44l.68-.62.66.7c0,.92,0,1.85,0,2.78a1.68,1.68,0,0,0,1.25.16c0-.06.11-.11.13-.17a.6.6,0,0,0,0-.23l.11-5.76.72-.7.69.83L7.06,30c.43.31.81.11,1.15.19.09-.17.21-.29.21-.42,0-1.32.06-2.63.08-4L9,25.2l-.52-1.1a1.35,1.35,0,0,1,.94-.9c.46,0,.57.46.9.68l0,2.75.53.63,0,2.88h.68c.08-.08.18-.13.19-.19,0-1.7.06-3.4.09-4.93l.68-1.27.48,0,.7,1.4-.07,3.73c.35-.21.55-.36.77-.46a4.44,4.44,0,0,1,.63-.15c0-1.66.05-3.26.08-4.78.74-.39.94.16,1.26.43a.71.71,0,0,1,.12.18.88.88,0,0,1,0,.23l-.07,4.06,1-.44.73.61.84-.47.59.5.79-.46.41.36c.08-.09.24-.19.25-.29,0-1.38.06-2.76.08-4l.68-.8.52,0,.64,1.3c0,1.15-.05,2.47,0,3.76-.29.07-.65,0-.35.44A3.75,3.75,0,0,0,22.89,28.52Zm34.7,1.11h-.72l-.43-1c-.09.17-.22.29-.23.42,0,.44,0,.89,0,1.51a3.22,3.22,0,0,1,.8-.49c.31-.07.63,0,.6-.47.48-.27.48-.27.29-.88C57.37,28.91,57.68,29.33,57.59,29.63Zm-40.86.66a2.92,2.92,0,0,0,.51,0c.13,0,.26-.1.38-.15a1.29,1.29,0,0,0-.16-.31c-.14-.17-.3-.31-.55-.56Zm6.3.11a.55.55,0,0,0,0-.92A.55.55,0,0,0,23,30.4Z"/><path d="M313.81,2.22l.66.7,0,.91-1.34.68-2.56,0c-.15.13-.25.18-.26.24a4.54,4.54,0,0,0,0,.55,3.17,3.17,0,0,1,1.22.29,2.49,2.49,0,0,0,1,.38,8.43,8.43,0,0,1,1.56.74,5.28,5.28,0,0,1,1.23,2l-.05,3c-.46.22-.38.78-.67,1.1s-.65.65-1,1h-.46l-.5.44-1.68,0-2.12-1.13a2.22,2.22,0,0,0-.53-1v-.91c.33-.37.74-.12,1.12-.2l.95.94,1.84,0,1.18-1.13c0-.32,0-.62,0-.93-.65-.35-.31-1.38-1.12-1.64l-1.85,0-.5.45a.58.58,0,0,1-.23,0l-1.35-.69,0-.91-.47-.52,0-2.22c.52-.79.79-1.71,2-2.14Z"/><path d="M250.49,4.54,252.1,3h1l.67.67,0,1.4.39.41-.43.73.54,1-.55.69c-.08.29.08.51.31.75a1.87,1.87,0,0,1,.22.68l1.25,1.3,0,.94c-.2.44-.86.27-1.22.72a4.54,4.54,0,0,1-1.29.79l-1.55-.86-3.13-.06-1.11-1.33a.79.79,0,0,1,0-.47,7.39,7.39,0,0,1,.92-1.7,14.15,14.15,0,0,0,1.4-1.95A6.53,6.53,0,0,0,250.49,4.54Zm1,2.48a11,11,0,0,0-1,1.18,8,8,0,0,0-.58,1.34c0,.05.05.13.09.24a2.83,2.83,0,0,0,1.73,0c0-.84,0-1.65,0-2.47C251.77,7.28,251.68,7.23,251.48,7Z"/><path d="M2.66,1.75,4,1.78c.29.35.88.36,1.08.65s1.23,0,1,.92L7,4.42v.87l.45.51,0,2.3L7,8.52c-.13.88,0,1.87-.12,2.84-.49.49-1,1-1.49,1.44l-1.31.52-1.52,0-1.2-.64-.88-.91L.37,10.7,0,10.32l.11-6c.42-.44.55-1.12,1-1.6S2.25,2.28,2.66,1.75ZM1.93,4.29,1.81,11a.88.88,0,0,0,0,.23c0,.07.1.11.18.19l2.91.05a2.68,2.68,0,0,1,.6-1.15l.09-4.7c-.31-1-.56-1.62-1.12-2l-1.85,0Z"/><path d="M192.46,7.22l-.47.49,0,.72a8.18,8.18,0,0,1,.44,1c.13.41.6.67.46,1.2a5.47,5.47,0,0,1-.78,1.52,8.36,8.36,0,0,1-1.33,1.33l-2.77,0a5.51,5.51,0,0,1-2.07-1.69v-.86l.56-.58a3.68,3.68,0,0,1,1.91,1.3l1.42,0a2.16,2.16,0,0,1,.48-.42,2.53,2.53,0,0,1,.67-.11c0-.35,0-.65.07-1.12l-1.24-.85.18-.23-1.13-.08-.57-.9,0-.72c.06-.06.13-.17.17-.16.72.17,1.23-.44,1.94-.53L191.17,5l-.67-.76-2.45,0-.36.35-1.58,0c0-.22-.16-.54-.07-.62.5-.47.47-1.3,1.15-1.6.2-.09.43-.08.63-.17a1.18,1.18,0,0,0,.32-.31l2.32.05c.25.54.91.42,1.29.81s.23,1,.77,1.31Z"/><path d="M127.87,2.12c.51.2.67-.31,1-.43a2,2,0,0,1,1.44.48,11.23,11.23,0,0,1,1.5.8,5.44,5.44,0,0,1,.85,1.38l0,1.36c-.08.24-.61.38-.44.87l-3.77,3.63,0,1c.14.08.26.2.39.21,1,0,2,0,3,.06l.72.62c0,1.24-1.12,1-1.59,1.64l-2.55-.05-1.54-.54c-.74-.19-.75-1-1.11-1.6l1.06-2c.22-.23.89-.65,1.12-1.24.3-.79,1-1.15,1.46-1.7s1-1,1.39-1.37c.14-.59-.29-.76-.5-1.06-.65-.35-1.36,0-2-.21l-.45.44-1,0-.64-.59C126.8,3.21,127.34,2.66,127.87,2.12Z"/><path d="M65.41,6.78,65,6.35,65,3.56l1.2-1.15L67.3,3.73l-.15,8.32-.67.57c-.65.09-.81-.44-1.16-.71Z"/><path d="M3.44,16.78l.9.85c0,.1.13.16.12.22,0,1.22,0,2.45-.06,3.64l-.35.35c-.56.73.23,1.22.34,2l-.8.55L3,23.8l.08-4.6-.45-.53v-.74Z"/><path d="M33.11,25.27l.08-4.65.58-.59c.07,0,.14-.05.17,0,.41.34.81.69,1.05.9l0,1.15-.43.43-.06,3.3C33.79,26,33.79,26,33.11,25.27Z"/><path d="M10.28,1.1l.78-.56.65.67,0,1L10.52,3.3c-1-.09-1-.94-1.36-1.42l-.49.45a1.6,1.6,0,0,1-1.1-.7C8.15,1.21,8,.15,8.87,0c.1,0,.21,0,.25,0C9.46.32,9.79.63,10.28,1.1Z"/><path d="M19.72,20.84l0,2.32c-.3.22-.49.58-.74.66-.62.06-.74-.41-1.08-.64l.05-2.46.95-.63C19.2,20.05,19.37,20.57,19.72,20.84Z"/><path d="M48.88,23.68l0-1.85-.45-.5c-.05-.67.4-.91.91-1.12.47,0,.58.44.92.66l0,3-.66.57Z"/><path d="M19,24.3a2.64,2.64,0,0,0,.27.79c.17.25.42.44.34.77l-.72.75c-.69.07-.82-.47-1.12-.74l0-.91.69-.67Z"/><path d="M304.88,12.54l1-.73.83,0c.39.28.16.69.24,1.2l-1.28.68C305.54,13.72,305.29,13.27,304.88,12.54Z"/><path d="M244.69,11.76l.83-.13.6,1a3.74,3.74,0,0,1-.31.48c-.24.31-.53.5-.92.28C244.6,12.91,244.89,12.38,244.69,11.76Z"/><path d="M123.18,11.18c.65.43,1.09.7,1,1.32-.35.44-.8.18-1.22.16l-.53-.55Z"/><path d="M184.52,12.85l-1.24,0c-.34-.37-.1-.76-.17-1.12.36-.43.81-.2,1.24-.14C184.65,11.9,184.41,12.29,184.52,12.85Z"/><path d="M38.75,29.23l-.17-.17a1.48,1.48,0,0,1,.32-.14s.1.09.15.15Z"/></g></g></svg>