<svg xmlns="http://www.w3.org/2000/svg" viewBox="0 0 123.57 86.04"><title>Recurso 17ART</title><g id="Capa_2" data-name="Capa 2"><g id="Capa_1-2" data-name="Capa 1"><path d="M5.38,59.17H.21C.1,59,0,59,0,58.92,0,57.28,0,55.65,0,54c.55-.36,1.16-.13,1.73-.17s1.19,0,1.79,0a5.7,5.7,0,0,0,1.82-.11v-5c.13-.13.17-.2.24-.23a.49.49,0,0,1,.21,0H15.87c.05,0,.11-.08.24-.19V43.3c.14-.13.18-.22.24-.23a3.38,3.38,0,0,1,.45,0h9.84c.37-.27.22-.67.22-1,0-1.4,0-2.81,0-4.14.14-.12.19-.19.25-.2a3.38,3.38,0,0,1,.45,0h9.85c.37-.55.14-1.15.18-1.72s0-1.19,0-1.79V32.44c3.27-.23,47.82-.3,69.66-.11.35.53.13,1.14.17,1.71s0,1.19,0,1.79v1.73a5.39,5.39,0,0,0,1.85.12c.59,0,1.19,0,1.79,0h12.25c.09.09.16.13.19.2a.44.44,0,0,1,0,.2q0,7.6,0,15.22a1.78,1.78,0,0,1-.14.47h-5c-.36.62-.14,1.23-.18,1.8s0,1.19,0,1.79a4.54,4.54,0,0,1-.14,1.81h-5c-.12.13-.21.18-.21.24,0,.3,0,.59,0,.89V69.7a1.21,1.21,0,0,1-.16.16.39.39,0,0,1-.2.06h-4.81a1.64,1.64,0,0,0-.2.27.81.81,0,0,0,0,.22v4.71c-.56.35-1.17.12-1.74.16s-1.19,0-1.79,0a5.19,5.19,0,0,0-1.82.12v5c-.13.13-.17.2-.24.23a.49.49,0,0,1-.21,0H91.81a.88.88,0,0,0-.23,0c-.06,0-.11.09-.24.2v4.95c-.13.12-.18.2-.24.21a3.38,3.38,0,0,1-.45,0H70.07c-.36-.28-.21-.68-.22-1,0-1.4,0-2.81,0-4.14-.15-.11-.2-.19-.26-.2a3.38,3.38,0,0,0-.45,0h-26C42.81,80.12,43,79.52,43,79s0-1.19,0-1.79V75.49c-.17-.12-.22-.19-.28-.19H27c-.35.56-.12,1.17-.16,1.74s0,1.19,0,1.79v1.79H.19C0,78.9-.07,67.12.15,64.56h5c.14-.13.23-.18.23-.24a2.14,2.14,0,0,0,0-.44Zm54-16.11c-.06.06-.16.11-.16.16v5.06c.08.07.14.15.19.15H69.44a.49.49,0,0,1,.21,0c.06,0,.1.1.2.19v1.73c0,.53,0,1,0,1.57A5.67,5.67,0,0,0,70,53.81h1.73c.6,0,1.2,0,1.79,0s1.18-.19,1.72.18v4.49a3.38,3.38,0,0,0,0,.45c0,.06.09.11.18.2h5.06a4.45,4.45,0,0,0,.12-1.77c0-.6,0-1.2,0-1.79s-.19-1.18.18-1.8h5.06A5.72,5.72,0,0,0,86,52c0-.6,0-1.2,0-1.79s-.18-1.18.17-1.73h4.71a.79.79,0,0,0,.22,0c.07,0,.12-.08.26-.2V43.42a.37.37,0,0,0-.07-.2c0-.06-.1-.11-.14-.16ZM32.24,69.69c.21.31.52.23.8.23H47.78a2.26,2.26,0,0,0,.58-.16V65.23a3.38,3.38,0,0,0,0-.45c0-.06-.09-.1-.22-.23h-5A4.52,4.52,0,0,1,43,62.74c0-.59,0-1.19,0-1.78s.18-1.17-.14-1.74H32.42c-.08.1-.17.15-.17.21Q32.24,64.56,32.24,69.69Zm-16.08.23h4.66a3.38,3.38,0,0,0,.45,0c.05,0,.1-.11.23-.25,0-3.09,0-6.28,0-9.47,0-.35.15-.75-.22-1H16.8a2.14,2.14,0,0,0-.44,0c-.06,0-.1.1-.2.2ZM96.71,48.48V58.93c0,.06.09.11.21.25h4.81a.49.49,0,0,0,.19-.07c.06,0,.11-.1.16-.14q0-5.16,0-10.29c0-.06-.09-.11-.17-.2Z"/><path d="M32.24,10.83V5.68c.28-.36.68-.21,1-.21H48.33c.07-1.78,0-3.48.05-5.17a1.21,1.21,0,0,1,.16-.16.49.49,0,0,1,.21,0C63.17-.07,93.69,0,96.59.2c0,.06.11.12.11.18,0,1.63,0,3.27,0,4.86a1.47,1.47,0,0,1-.21.19.49.49,0,0,1-.21,0H54c-.06,0-.11.09-.25.2v4.92c-.14.14-.18.22-.24.25a.81.81,0,0,1-.22,0Z"/><path d="M16.13,16.2V10.83H32.24V16c0,.05-.09.11-.21.25Z"/><path d="M112.82,10.8H102.26c-.08-.09-.17-.14-.18-.2a3.38,3.38,0,0,1,0-.45V5.69c.27-.37.67-.22,1-.22h9.5c.12.12.21.17.21.23a2.26,2.26,0,0,1,0,.45Z"/><path d="M10.75,21.58c0,1.7,0,3.41,0,5.12,0,.05-.09.11-.17.2H.19s-.11-.08-.14-.15a.42.42,0,0,1,0-.2V21.77c.16-.12.22-.19.28-.19Z"/><path d="M16.13,16.2c0,1.7,0,3.39,0,5.09,0,.06-.07.12-.11.17s-.11.11-.17.11H10.75c0-1.7,0-3.4,0-5.09,0-.06.07-.12.11-.17s.11-.11.17-.11Z"/></g></g></svg>