<svg xmlns="http://www.w3.org/2000/svg" viewBox="0 0 115.41 115.41"><title>Recurso 47MODERN ICON</title><g id="Capa_2" data-name="Capa 2"><g id="Capa_1-2" data-name="Capa 1"><polygon points="115.41 57.7 57.7 53.31 57.7 62.1 115.41 57.7"/><polygon points="0 57.7 57.7 62.1 57.7 53.31 0 57.7"/><polygon points="57.7 115.41 62.1 57.7 53.31 57.7 57.7 115.41"/><polygon points="57.7 0 53.31 57.7 62.1 57.7 57.7 0"/><polygon points="79.94 79.94 59.4 56.01 56.01 59.4 79.94 79.94"/><polygon points="35.47 35.47 56.01 59.4 59.4 56.01 35.47 35.47"/><polygon points="35.47 79.94 59.4 59.4 56.01 56.01 35.47 79.94"/><polygon points="79.94 35.47 56.01 56.01 59.4 59.4 79.94 35.47"/></g></g></svg>