<svg xmlns="http://www.w3.org/2000/svg" viewBox="0 0 127.07 127.07"><title>Recurso 89MANDALA</title><g id="Capa_2" data-name="Capa 2"><g id="Capa_1-2" data-name="Capa 1"><path d="M45.89,76.54l8.23.23A11.53,11.53,0,0,0,65.24,69.3l8.57-22.83a11.54,11.54,0,0,1,11-7.25L76.62,39a11.56,11.56,0,0,0-11.13,7.48L56.92,69.29A11.53,11.53,0,0,1,45.89,76.54Z"/><path d="M48,0l8.23.23a11.54,11.54,0,0,1,10.7,8l7.3,23.15a11.52,11.52,0,0,0,10.61,7.81L76.62,39a11.53,11.53,0,0,1-10.7-8L58.62,7.81A11.55,11.55,0,0,0,48,0Z"/><path d="M54.76,83.62,62,79.71a11.56,11.56,0,0,0,5.9-12l-4-24.05a11.56,11.56,0,0,1,5.93-11.8l-7.24,3.92a11.56,11.56,0,0,0-5.9,12l4,24A11.55,11.55,0,0,1,54.76,83.62Z"/><path d="M18.32,16.28l7.23-3.92A11.56,11.56,0,0,1,38.84,14l17.89,16.4a11.54,11.54,0,0,0,13.1,1.45l-7.24,3.92a11.54,11.54,0,0,1-13.28-1.61L31.42,17.73A11.55,11.55,0,0,0,18.32,16.28Z"/><path d="M66,85.32l4.31-7a11.56,11.56,0,0,0-.91-13.38L53.9,46.1a11.53,11.53,0,0,1-.77-13.18l-4.31,7a11.56,11.56,0,0,0,.91,13.38L65.21,72.14A11.53,11.53,0,0,1,66,85.32Z"/><path d="M.75,45.22l4.31-7A11.53,11.53,0,0,1,17.36,33l23.7,5.25a11.53,11.53,0,0,0,12.07-5.29l-4.31,7a11.53,11.53,0,0,1-12.31,5.25L12.82,39.93A11.52,11.52,0,0,0,.75,45.22Z"/><path d="M76.54,81.18,76.77,73A11.53,11.53,0,0,0,69.3,61.83L46.47,53.26a11.54,11.54,0,0,1-7.25-11L39,50.45a11.56,11.56,0,0,0,7.48,11.13l22.82,8.57A11.53,11.53,0,0,1,76.54,81.18Z"/><path d="M0,79.07l.23-8.23a11.54,11.54,0,0,1,8-10.7l23.15-7.3a11.52,11.52,0,0,0,7.81-10.61L39,50.45a11.53,11.53,0,0,1-8,10.7L7.81,68.45A11.55,11.55,0,0,0,0,79.07Z"/><path d="M83.62,72.31l-3.91-7.24a11.56,11.56,0,0,0-12-5.9l-24.05,4a11.56,11.56,0,0,1-11.8-5.93l3.92,7.24a11.56,11.56,0,0,0,12,5.9l24-4A11.55,11.55,0,0,1,83.62,72.31Z"/><path d="M16.28,108.75l-3.92-7.23A11.56,11.56,0,0,1,14,88.23l16.4-17.89a11.54,11.54,0,0,0,1.45-13.1l3.92,7.24a11.54,11.54,0,0,1-1.61,13.28L17.73,95.65A11.55,11.55,0,0,0,16.28,108.75Z"/><path d="M85.32,61.09l-7-4.31a11.56,11.56,0,0,0-13.38.91L46.1,73.17a11.53,11.53,0,0,1-13.18.77l7,4.31a11.56,11.56,0,0,0,13.38-.91L72.14,61.85A11.54,11.54,0,0,1,85.32,61.09Z"/><path d="M45.22,126.32l-7-4.31A11.54,11.54,0,0,1,33,109.7L38.21,86a11.53,11.53,0,0,0-5.29-12.07l7,4.31a11.53,11.53,0,0,1,5.25,12.31l-5.25,23.69A11.52,11.52,0,0,0,45.22,126.32Z"/><path d="M81.18,50.53,73,50.3a11.53,11.53,0,0,0-11.12,7.47L53.26,80.6a11.55,11.55,0,0,1-11,7.25l8.22.23A11.56,11.56,0,0,0,61.58,80.6l8.57-22.82A11.53,11.53,0,0,1,81.18,50.53Z"/><path d="M79.07,127.07l-8.23-.23a11.54,11.54,0,0,1-10.7-8l-7.3-23.15a11.52,11.52,0,0,0-10.61-7.81l8.22.23a11.53,11.53,0,0,1,10.7,8l7.3,23.15A11.55,11.55,0,0,0,79.07,127.07Z"/><path d="M72.31,43.45l-7.24,3.91a11.56,11.56,0,0,0-5.9,12l4,24.05a11.56,11.56,0,0,1-5.93,11.8l7.24-3.92a11.56,11.56,0,0,0,5.9-12l-4-24.05A11.55,11.55,0,0,1,72.31,43.45Z"/><path d="M108.75,110.79l-7.23,3.92a11.56,11.56,0,0,1-13.29-1.61L70.34,96.7a11.54,11.54,0,0,0-13.1-1.45l7.24-3.92a11.54,11.54,0,0,1,13.28,1.61l17.89,16.4A11.55,11.55,0,0,0,108.75,110.79Z"/><path d="M61.09,41.75l-4.31,7a11.55,11.55,0,0,0,.91,13.37L73.17,81a11.53,11.53,0,0,1,.77,13.18l4.31-7a11.56,11.56,0,0,0-.91-13.38L61.85,54.93A11.54,11.54,0,0,1,61.09,41.75Z"/><path d="M126.32,81.85l-4.31,7a11.54,11.54,0,0,1-12.31,5.25L86,88.86a11.53,11.53,0,0,0-12.07,5.29l4.31-7a11.53,11.53,0,0,1,12.31-5.25l23.69,5.25A11.52,11.52,0,0,0,126.32,81.85Z"/><path d="M50.53,45.89l-.23,8.23a11.53,11.53,0,0,0,7.47,11.12L80.6,73.81a11.55,11.55,0,0,1,7.25,11l.23-8.22A11.56,11.56,0,0,0,80.6,65.49L57.78,56.92A11.53,11.53,0,0,1,50.53,45.89Z"/><path d="M127.07,48l-.23,8.23a11.54,11.54,0,0,1-8,10.7l-23.15,7.3a11.52,11.52,0,0,0-7.81,10.61l.23-8.22a11.53,11.53,0,0,1,8-10.7l23.15-7.3A11.55,11.55,0,0,0,127.07,48Z"/><path d="M43.45,54.76,47.36,62a11.56,11.56,0,0,0,12,5.9l24.05-4a11.56,11.56,0,0,1,11.8,5.93l-3.92-7.24a11.56,11.56,0,0,0-12-5.9l-24.05,4A11.55,11.55,0,0,1,43.45,54.76Z"/><path d="M110.79,18.32l3.92,7.23a11.56,11.56,0,0,1-1.61,13.29L96.7,56.73a11.54,11.54,0,0,0-1.45,13.1l-3.92-7.24a11.54,11.54,0,0,1,1.61-13.28l16.4-17.89A11.55,11.55,0,0,0,110.79,18.32Z"/><path d="M41.75,66l7,4.31a11.55,11.55,0,0,0,13.37-.91L81,53.9a11.53,11.53,0,0,1,13.18-.77l-7-4.31a11.56,11.56,0,0,0-13.38.91L54.93,65.21A11.53,11.53,0,0,1,41.75,66Z"/><path d="M81.85.75l7,4.31a11.53,11.53,0,0,1,5.25,12.3l-5.25,23.7a11.53,11.53,0,0,0,5.29,12.07l-7-4.31a11.53,11.53,0,0,1-5.25-12.31l5.25-23.69A11.52,11.52,0,0,0,81.85.75Z"/></g></g></svg>