<svg xmlns="http://www.w3.org/2000/svg" viewBox="0 0 161.63 162.46"><title>Recurso 96MANDALA</title><g id="Capa_2" data-name="Capa 2"><g id="Capa_1-2" data-name="Capa 1"><path d="M75.82,86.06c-.2-.73-12.46,4.8-33,7.44-38.59,4.94-30.14,31.69-29.95,32.42s-1.24-35.27,36.11-24.73C61.47,104.73,76,86.78,75.82,86.06Z"/><circle cx="28.59" cy="111.92" r="2.31"/><path d="M77.77,87.47c-.43-.61-10.07,8.78-28.51,18.3-34.57,17.85-17.48,40.09-17,40.71S19,113.77,57.68,110.89C70.67,109.93,78.2,88.09,77.77,87.47Z"/><circle cx="42.24" cy="127.93" r="2.31"/><path d="M80.09,88.14c-.62-.43-6.46,11.69-20.53,26.94-26.39,28.6-2.72,43.65-2.1,44.09S33.84,133,69.22,117C81.1,111.67,80.71,88.57,80.09,88.14Z"/><circle cx="60.54" cy="138.31" r="2.31"/><path d="M82.5,88c-.73-.2-2.07,13.19-10.08,32.34-15,35.89,12.37,41.95,13.1,42.14s-31.16-16.55-3.36-43.63C91.49,109.73,83.22,88.16,82.5,88Z"/><circle cx="81.28" cy="141.8" r="2.31"/><path d="M84.7,87c-.75.06,2.57,13.1,1.59,33.83-1.83,38.87,26,35.19,26.73,35.12s-34.95-4.89-18.08-39.85C100.6,104.36,85.45,86.92,84.7,87Z"/><circle cx="101.97" cy="137.98" r="2.31"/><path d="M86.43,85.31c-.68.32,6.9,11.44,13.07,31.25,11.58,37.15,36.45,24.18,37.13,23.86s-34.51,7.35-30.62-31.26C107.32,96.2,87.12,85,86.43,85.31Z"/><circle cx="120.11" cy="127.33" r="2.31"/><path d="M87.49,83.14c-.53.53,10.39,8.39,23,24.9C134,139,153,118.3,153.51,117.76S123.59,136.47,114,98.86C110.84,86.23,88,82.61,87.49,83.14Z"/><circle cx="133.5" cy="111.11" r="2.31"/><path d="M87.74,80.74c-.31.68,12.64,4.33,30.1,15.54,32.75,21,43.46-4.9,43.78-5.59s-21.71,27.82-43.55-4.26C110.74,75.66,88.06,80.06,87.74,80.74Z"/><circle cx="140.55" cy="91.28" r="2.31"/><path d="M87.16,78.4c-.07.75,13.35-.25,33.6,4.31,38,8.55,39.16-19.47,39.23-20.22S149.1,96.05,117.6,73.37C107,65.76,87.23,77.65,87.16,78.4Z"/><circle cx="140.38" cy="70.25" r="2.31"/><path d="M85.81,76.4c.2.73,12.46-4.8,33.05-7.44C157.45,64,149,37.26,148.8,36.54s1.25,35.26-36.1,24.72C100.16,57.73,85.62,75.67,85.81,76.4Z"/><circle cx="133.03" cy="50.54" r="2.31"/><path d="M83.86,75c.43.62,10.06-8.77,28.5-18.29C146.94,38.84,129.85,16.6,129.42,16S142.65,48.69,104,51.56C91,52.53,83.43,74.37,83.86,75Z"/><circle cx="119.39" cy="34.53" r="2.31"/><path d="M81.54,74.32c.62.43,6.46-11.69,20.53-26.94,26.38-28.6,2.72-43.66,2.1-44.09S127.79,29.5,92.4,45.44C80.53,50.79,80.92,73.89,81.54,74.32Z"/><circle cx="101.09" cy="24.15" r="2.31"/><path d="M79.13,74.49c.73.19,2.07-13.19,10.08-32.34C104.22,6.25,76.83.2,76.1,0s31.17,16.56,3.37,43.63C70.13,52.72,78.4,74.29,79.13,74.49Z"/><circle cx="80.34" cy="20.66" r="2.31"/><path d="M76.93,75.47c.75-.07-2.57-13.11-1.59-33.84,1.83-38.86-26-35.18-26.73-35.12s34.94,4.9,18.08,39.85C61,58.1,76.18,75.53,76.93,75.47Z"/><circle cx="59.66" cy="24.47" r="2.31"/><path d="M75.19,77.15c.68-.32-6.89-11.44-13.07-31.26C50.55,8.75,25.68,21.71,25,22S59.51,14.68,55.62,53.3C54.31,66.26,74.51,77.46,75.19,77.15Z"/><circle cx="41.52" cy="35.13" r="2.31"/><path d="M74.13,79.31c.54-.53-10.38-8.38-23-24.89C27.59,23.47,8.65,44.16,8.11,44.69S38,26,47.58,63.6C50.79,76.23,73.6,79.85,74.13,79.31Z"/><circle cx="28.12" cy="51.35" r="2.31"/><path d="M73.88,81.71c.32-.68-12.63-4.33-30.1-15.54C11,45.16.32,71.08,0,71.76S21.72,44,43.56,76C50.89,86.8,73.56,82.4,73.88,81.71Z"/><circle cx="21.08" cy="71.17" r="2.31"/><path d="M74.47,84.05c.06-.75-13.35.26-33.6-4.3C2.91,71.2,1.7,99.22,1.64,100S12.53,66.41,44,89.08C54.6,96.7,74.4,84.81,74.47,84.05Z"/><circle cx="21.24" cy="92.21" r="2.31"/></g></g></svg>