<svg xmlns="http://www.w3.org/2000/svg" viewBox="0 0 122.81 122.81"><title>Recurso 20MANDALA</title><g id="Capa_2" data-name="Capa 2"><g id="Capa_1-2" data-name="Capa 1"><path d="M26.89,75.1l-.44-.43v0l.42-.42c0-.07-.06-.09-.1-.13a1.14,1.14,0,0,0-.11-.11.57.57,0,0,0-.11-.11s-.08-.07-.1-.13L28.22,72a.32.32,0,0,0-.13-.15,1.21,1.21,0,0,0-.16-.16l-.13-.14v0l.88-.88.42.41a0,0,0,0,0,0,0h0c.11-.12.24-.24.36-.36s.06,0,0-.09l-.43-.43.42-.42h0s0,0,0,0l-.37-.36s0-.06-.09,0l-.43.43-.43-.43s0-.07.06-.09.24-.25.36-.36,0,0,0,0-.27-.27-.42-.42a.93.93,0,0,0-.15.13,1.21,1.21,0,0,1-.16.16l-.14.15-.89-.88c-.06,0-.09.06-.12.09l-.12.12-.11.11s-.06.08-.12.1l-.88-.88s0,0,0,0l0,0L26,67a.49.49,0,0,0-.13-.15c-.05-.06-.11-.11-.16-.16l-.14-.14s0,0,0,0l.86-.87h0l0,0,.85.85h0l.88-.87v0l0,0-.41-.4,1.78-1.78s0-.07,0-.09L29.15,63v0h0l.85-.85a9.2,9.2,0,0,0-.89-.9l-.43.42a2.76,2.76,0,0,1-.46-.45l.43-.42v0l-.87-.87a.32.32,0,0,0-.15.13l-.16.16-.15.14c-.06,0-.09-.09-.14-.13L27.06,60l-.13-.13-.13-.13-.14-.14-.13-.13-.13-.13-.13-.13-.14-.14L26,59s0,0,0,0h0l-.4.4h0L25.11,59s0,0,0,0h0l-1.75,1.75s-.06,0-.09-.06l-.36-.36h0l-.43.42a.93.93,0,0,0,.13.15l.16.16.15.14-.43.44c0,.06.06.09.1.12l.11.12.11.11.11.11-.43.44v0l0,0,.84.84c0,.07-.08.1-.13.15s-.1.11-.16.16l-.13.14v0l0,0,2.2,2.19a2.69,2.69,0,0,1-.45.45l-4.91-4.92a0,0,0,0,1,0,0v0l.4-.4h0l.42.42h0l.42-.42c0-.07-.08-.1-.12-.15s-.11-.11-.16-.16l-.14-.14s0,0,0,0l.41-.42h0l0,0,.4.4h0L24.17,58s0,0,0,0a0,0,0,0,0,0,0l-.4-.4c0-.05,0-.07.06-.09l.36-.36s0,0,0,0h0l-.86-.86a.93.93,0,0,1,.13-.15l.16-.16.15-.14-.89-.89a.73.73,0,0,1,.14-.16l.16-.16.14-.14L22.85,54h0l0,0-.37.37h0s0,0,0,0l-2.66-2.65a.08.08,0,0,0,0,0h0l.4-.4v0a0,0,0,0,1,0,0L18.82,50h0l-.42.42h0s0,0,0,0l-.4-.4s0-.06.06-.09l.36-.36c-.17-.21-1.07-1.12-2.22-2.25a.49.49,0,0,0-.15.13c-.06,0-.11.11-.16.16l-.14.14h0l-.87-.86v0l0,0,.4-.4v0l-.41-.42s0,0,0,0l0,0L17,43.67s.06,0,.09.06l.36.36h0l.42-.42v0l0,0L17,42.78v0l.87-.87c.06,0,.08.06.12.09l.12.11.11.12s.06.08.12.1L19.68,41h0l0,0,.39.39c.06,0,.1-.08.15-.13l.16-.16.13-.13h0l.86.86v0a0,0,0,0,1,0,0l-.4.4a0,0,0,0,0,0,0L45.74,67s0,0,0,0a0,0,0,0,1,0,0l-.4.41v0l.42.43h0s0,0,0,0l.87-.87.43.44s0,.06,0,.09l-.37.36s0,0,0,0l0,0L48,69.25a2.32,2.32,0,0,1-.43.45.5.5,0,0,1-.13-.12,1.59,1.59,0,0,1-.13-.13l-.13-.13-.11-.11-.13-.13L46.79,69l-.13-.12a2.55,2.55,0,0,0-.45.44l.43.43c0,.07-.08.09-.12.14l-.13.13-.14.14-.13.13-.13.13-.13.12-.14.15-.13.13-.13.13-.12.12-.15.15-.13.13-.12.12-.13.13-.15.15-.13.13L44.4,72l.44.44v0l0,0-.4.4L44,72.42h0l-.41.41h0v0l.43.43s0,0,0,0,.29-.28.43-.43l.44.44a.1.1,0,0,1,0,.07c-.27.26-.53.52-.79.79l0,0h0l-1.32-1.31s-.06,0-.09.06l-.36.36s0,0,0,0l0,0-.39-.38c-.07,0-.1.08-.15.12l-.16.16-.14.14c-.06,0-.09-.07-.13-.1L41,73.07,40.94,73l-.11-.11h0c-.28.29-.56.57-.85.85h0l-.42-.42h0l-.83.84h-.05l-.42-.42h-.05l-.4.4s0,.07.06.09l.72.73.09.08v0c-.3.29-.59.58-.88.88l-.43-.43h0l-.4.41,0,0v0l.43.42h0c.14-.14.28-.29.43-.43l.44.45-.88.88v0l0,0,.4.4v0l-1.32,1.33c0,.07.08.1.13.15a1.21,1.21,0,0,0,.16.16l.13.14v0l-.88.88-.4-.4,0,0s0,0,0,0l.36-.37s.06,0,.05-.09l-.43-.43c.14-.14.29-.28.43-.43v0l-.41-.41h0l-.42.42v0c.14.15.29.29.43.43-.29.3-.59.59-.88.88v0l.13.13c.06,0,.11.11.16.16s.11.08.13.15l-.83.84,0,0v0l.4.4,0,0v0l-.87.87v0l.88.88-.88.89v0l.44.44.89-.9.43.44s0,.06,0,.09l-.72.72-.09.09v0l0,0,.4.39a0,0,0,0,1,0,0s0,0,0,0l-.85.85v0l.42.42v0l0,0L31.4,90.35h0L31,89.94H30.9l-.4.41c-.05,0-.07,0-.09-.06l-1.16-1.16-.1-.1h0l-1.76,1.77c0,.07.08.1.12.15l.16.16.14.14s0,0,0,0-.27.28-.41.41h0l-.41-.4h0l-.43.42v0l0,0,.4.4s0,.07-.06.09-.24.25-.36.36,0,0,0,0h0l.4.4v0h0c-.43.44-.87.87-1.3,1.3a.08.08,0,0,1,0,0l.14.13.14.15.14.14v0h0l-1.75,1.75v0l.41.42s0,0,0,0l0,0-1.28,1.28s0,.06.06.09l.36.36s0,0,0,0a0,0,0,0,1,0,0l-1.3,1.3c0,.07.08.1.12.15l.16.16.14.14s0,0,0,0l-.41.42h0s0,0,0,0-.26-.27-.4-.4h0l-.43.42v0l0,0,.39.38v0c-.14.13-.28.27-.41.41a0,0,0,0,0,0,0s0,0,0,0l.4.39a2.24,2.24,0,0,1-.44.46l-.42-.42h0a0,0,0,0,0,0,0c-.14.13-.27.27-.4.4a0,0,0,0,0,0,0l.42.42v0s0,0-.05,0l-.37.37c0,.07.08.11.13.16l.16.16.14.14c-.17.2-1.16,1.19-1.78,1.79h0l0,0-4.9-4.89a.08.08,0,0,0,0,0h0l0,0,.8-.8v0a3,3,0,0,0-.44-.44l-.42.42h0s0,0,0,0l-.41-.4,0-.06,1.27-1.26,0,0h0l.85.85h0l.86-.86s0,0,0,0L16.57,98c-.06,0-.09.07-.12.1l-.12.11a.57.57,0,0,1-.11.11s-.06.09-.12.1L15.67,98v0h0L17,96.66c.15.14.29.29.43.43h0l.4-.4,0,0v0l-.43-.42h0l-.43.43-.43-.43v0l1.33-1.34.43.43h0l.4-.41s0,0,0,0,0,0,0,0l-.42-.42h0c-.14.15-.28.29-.43.43l-.43-.43v0l1.33-1.33c.14.14.29.28.43.43h0l.41-.4a0,0,0,0,0,0,0v0l-.42-.43h0l-.43.43-.45-.45,1.8-1.8.43.43h0c.13-.14.27-.27.41-.41s0,0,0,0v0l-.42-.42h0l-.43.43c-.15-.14-.29-.29-.43-.43s0,0,0,0L21.05,89c.14.15.28.29.43.43h0l.41-.41h0v0l-.43-.42h0l-.43.43c-.15-.14-.29-.28-.43-.43s0,0,0,0L22,87.23l.43.43h0l.4-.4,0,0v0l-.43-.43h0c-.15.14-.29.28-.43.43l-.44-.43v0l1.33-1.33c.15.14.29.29.43.43h0l.4-.41,0,0v0L23.3,85h0c-.14.14-.28.29-.43.43L22.41,85s0-.06,0-.08l.79-.78,0,0h0l0,0,.4.4a2.53,2.53,0,0,0,.45-.44l-1.32-1.33c0-.06.06-.09.09-.12l.12-.12.11-.11s.08-.06.1-.13l-.42-.42v0l0,0,1.73-1.73s0,0,0,0a0,0,0,0,0,0,0l-.4-.4v0c.29-.29.58-.57.86-.86h.05c.13.14.27.27.4.4h0L26,78.7v0s0,0,0,0l-.81-.8v0h0s0,0,0,0,0,0,0,0l.42-.42v0l0,0-.38-.39s0,0,0,0,0,0,0,0c.27-.28.55-.56.83-.83l0,0h0l.39.39h0a3.59,3.59,0,0,0,.45-.44l-.43-.42v0h0l.42-.42c.14.14.28.29.43.43h0a11.69,11.69,0,0,0,.88-.89l-.43-.42h0ZM35,64.31v0l1.31,1.31h0l.36-.36s.07,0,.06-.09l-.38-.38,0,0s0,0,0,0l.42-.42v0l-.38-.38,0,0h0l-.42.42a.31.31,0,0,1-.12-.1l-.12-.12L35.53,64s-.06-.08-.12-.09ZM20.61,43.65s0,0,0,0L21.91,45l0,0h0l.42-.42v0L21.1,43.26l0,0h0Zm18,24.26.4-.4,0,0v0l0,0-1.26-1.26-.06,0-.4.4,0,0v0Zm-3.15,2.25-1.33-1.33h0c-.12.11-.24.24-.36.36s-.07,0-.06.09L35,70.59h0Zm-1.36.46c-.14-.17-.74-.77-.89-.9l-.43.43a12.45,12.45,0,0,0,.89.89ZM32.72,88.11a12.45,12.45,0,0,0,.89-.89l-.43-.43a12.57,12.57,0,0,0-.89.9Zm-4-22L27.8,67v0l.41.41h0l.86-.87s0,0,0,0ZM42.6,69.25a10.77,10.77,0,0,0,.89-.9l-.43-.42c-.17.14-.76.74-.89.89ZM23.74,53.09l.88.88h0l.36-.36s.06,0,.05-.09l-.86-.86h0Zm8.08,12.57L31,64.82l0,0h0l-.36.37s-.06,0-.05.08l.83.84,0,0h0Zm8.54-2.24.4-.4,0,0s0,0,0,0-.23-.24-.36-.36,0-.07-.09-.06l-.38.38,0,0v0Zm.9.9.4-.4,0,0s0,0,0,0l-.36-.36s0-.06-.09-.05l-.4.4h0s0,0,0,0ZM23.74,49.49l.4-.39,0,0s0,0,0,0l-.37-.36s0-.06-.08-.05l-.39.38,0,0v0ZM34.08,63.42l.43.43h0c.13-.14.27-.28.41-.41v0a0,0,0,0,0,0,0L34.54,63h0ZM39.91,72l-.4.4,0,0v0l.36.36a.1.1,0,0,0,.09.06l.4-.4s0,0,0,0,0,0,0,0Zm-5.37-.89h0l-.43.43v0l.38.39,0,0h0l.43-.42s0,0,0,0Zm-.93,15.24h0l.38-.38,0,0v0l-.43-.42s0,0,0,0-.27.26-.4.4h0v0Zm8.55-22-.43.43s0,0,0,0l.41.41h0l.42-.41v0Z"/><path d="M35.87,80.49l.45.45-.9.9c-.14-.15-.29-.29-.43-.43v0Z"/><path d="M35.42,82.74l.45.44-.9.9-.45-.45Z"/><path d="M46.65,67c-.14-.14-.29-.28-.43-.43v0l.42-.43h0s0,0,0,0,.27.27.4.4v0C46.94,66.73,46.79,66.87,46.65,67Z"/><path d="M28.68,70.61c-.14-.14-.28-.29-.43-.43v0c.15-.14.29-.29.43-.43l.45.45Z"/><path d="M35.42,81.84l.43.43v0l-.43.43L35,82.31v0Z"/><path d="M27.78,65.22l-.43.43h0l-.43-.42v0c.14-.14.28-.27.41-.41,0,0,0,0,0,0S27.64,65.07,27.78,65.22Z"/><path d="M46.68,95.5h-.61l0,0v-.6s-.1,0-.15,0h-.16a.85.85,0,0,1-.16,0,.3.3,0,0,1-.16,0V92.34c-.06,0-.13,0-.2,0h-.42l0,0V91.05h.61l0,0v-.51s0-.08,0-.1h-.61v-.59s0,0,0,0,0,0,0,0h-.51s-.07,0-.1,0v.61h-.61s0-.07,0-.11V89.8l0,0h-.6a.69.69,0,0,0,0,.2v.43H41.62c0,.06,0,.11,0,.16a.85.85,0,0,0,0,.16v.16s0,.11,0,.16H40.35l0,0v-.6a.45.45,0,0,0-.2,0h-.42s0,0,0,0V89.17l0,0h1.23l0,0V87.89h-.63V85.36s-.07,0-.11,0-.34,0-.51,0l0,0V84.09a8.65,8.65,0,0,0-1.27,0v.6a2.61,2.61,0,0,1-.63,0v-.6l0,0H36.53a.41.41,0,0,0,0,.19,1.77,1.77,0,0,0,0,.23v.2a.62.62,0,0,1-.19,0h-1.7l0,0v.59l0,0H34s0,0,0,0,0,0,0,0v2.47s-.06,0-.1,0h-.51l0,0v.6a.66.66,0,0,0,.2,0H34v.61c.06,0,.11,0,.16,0h.48v.61l0,0h1.23c0,.06,0,.13,0,.2v.42l0,0H39a3.26,3.26,0,0,1,0,.63H32.09s0,0,0,0v-.59l0,0h.59s0,0,0,0V89.8c-.06,0-.13,0-.19,0h-.42s0,0,0,0v-.58s0,0,0,0h.59l0,0V85.35h0s0,0,0,0h-.57s0-.07,0-.11v-.51l0,0H30.81a.66.66,0,0,1,0-.2v-.43H29.54a.74.74,0,0,1,0-.21v-.43h-.62l0,0v.61H25.1l0,0v-.59l0,0H23.2l0,0V84l0,0h-.59s0-.07,0-.11v-.52c-.26,0-1.55,0-3.16,0a.44.44,0,0,0,0,.2,1.62,1.62,0,0,0,0,.22v.2H18.12l0,0s0,0,0,0v-.56l0,0h-.58l0,0V80.28s.07,0,.1,0h.51l0,0v-.59s0,0,0,0H16.85l0,0V78.36c.05,0,.1,0,.15,0h.32c.05,0,.1,0,.16,0V76.46l0,0h.6a.41.41,0,0,0,0-.19,1.76,1.76,0,0,0,0-.23v-.19l0,0h1.22s0,0,0,0v0c0,.19,0,.38,0,.57a0,0,0,0,0,0,0h34.9l0,0v.59s0,0,0,0h.6l0,0V75.81h.61s0,.07,0,.1v.51l0,0h1.86a3,3,0,0,1,0,.63,1.09,1.09,0,0,1-.18,0H56.23a2.52,2.52,0,0,0,0,.63h.6c0,.06,0,.12,0,.18a1.08,1.08,0,0,1,0,.18v2.82h.61l0,0v.61h-.61l0,0v.6a0,0,0,0,0,0,0h.6s0,0,0,0v-.61h.61s0,.06,0,.08v1.18H56.23s0,.07,0,.11v.51l0,0h-.59c0,.06,0,.13,0,.2v.42a.3.3,0,0,1-.16,0H55a0,0,0,0,0,0,0v1.22l0,0h-.59l0,0v1.22s0,0,0,0h-.59l0,0s0,0,0,0v.57s.06,0,.1,0h1.15l0,0v1.24h-.61l0,0v.58a0,0,0,0,0,0,0h.61l0,0v-.61h.63v1.25l0,0h.59l0,0v1.87a.71.71,0,0,0,.2,0h.42l0,0V93h-.61l0,0v-.51s0-.08,0-.11h-.61v-.61l0,0H55l0,0v.6h.63v1.25l0,0H56a.68.68,0,0,1,.2,0v1.22a0,0,0,0,0,0,0s0,0,0,0h.56s0,0,0,0l0,0v1.23h1.26v1.25s0,0,0,0h.62V96.13h.61s0,.07,0,.11v1.14l0,0H60v1.23l0,0h.59s0,0,0,0v4.4s0,0,0,0H60l0,0v.59s-.07,0-.1,0H58.13l0,0v2.5a.68.68,0,0,0,.2,0h.42s0,0,0,0v.58l0,0h-.59l0,0v.6l0,0h.59s0,.07,0,.1v.51l0,0h.59l0,0v1.86s0,0,0,0H60l0,0v2.49l0,0h.59l0,0s0,0,0,0v1.81s.07,0,.11,0h.51l0,0v1.87a.44.44,0,0,0,.2,0h.42v.61s0,0,0,0h-.61v.6l0,0h.59l0,0v.6s0,0,0,0h.59a2.49,2.49,0,0,1,0,.63H62l0,0a0,0,0,0,0,0,0c0,.19,0,.37,0,.56,0,0,0,0,0,0h.59l0,0v.6a.44.44,0,0,0,.2,0,1.62,1.62,0,0,0,.22,0h.2c0,.27,0,1.66,0,2.52v0h-7s0,0,0,0v-1.22a3.29,3.29,0,0,0-.63,0v.59s0,0,0,0H55s0,0,0-.06v-1.79s0,0,0,0,0,0,0,0h1.22a0,0,0,0,0,0,0s0,0,0,0V119l0,0h-.59s0,.11,0,.16v.32s0,.1,0,.15H55s0,0,0,0,0,0,0,0v-1.86h.61l0,0v-.59s0,0,0,0H55a0,0,0,0,1,0,0v.61h-.61l0,0v-1.88h.61l0,0v-.58s0,0,0,0h-.61s0,0,0,0v.61h-.61l0,0v-1.89h.61l0,0v-.59s0,0,0,0h-.6v.63H53v-2.54h.61l0,0v-.57a0,0,0,0,0,0,0h-.61l0,0v.61h-.61l0,0v-1.89H53s0,0,0,0v-.59l0,0h-.6a0,0,0,0,0,0,0v.6h-.61l0,0v-1.88h.61l0,0V107a0,0,0,0,0,0,0h-.61l0,0v.61h-.61l0,0v-1.89h.6l0,0v-.59l0,0h-.6v.63h-.62s0,0,0-.08v-1.11a.13.13,0,0,1,0-.06l0,0h.59a3.22,3.22,0,0,0,0-.63H49.24c0-.05,0-.11,0-.16v-.32a.31.31,0,0,0,0-.16h-.59l0,0a.09.09,0,0,1,0,0V100.6H48s0,0,0,0V99.33l0,0h.59l0,0v-.6h0s0,0,0,0h-1.2l0,0v-.59l0,0H46.7s0,0,0,0v-1.2s0,0,0,0h.61a3.29,3.29,0,0,0,0-.63h-.6s0,0,0,0V95.5h.63a12.34,12.34,0,0,0,0-1.26h-.61s0,0,0,0Zm-1.9-13.36,0,0h1.85l0,0v-.51s0-.08,0-.11h-.55s0,0,0,0l0,0v-.59s0,0,0,0h-.59l0,0v.6a.3.3,0,0,1-.16,0,.86.86,0,0,1-.16,0h-.16s-.1,0-.15,0ZM20,77.69l0,0h1.84s0,0,0,0,0,0,0,0V77.1s0,0,0,0H20l0,0Zm29.86,4.47v-.57a.06.06,0,0,0,0,0s0,0,0,0H48v.6l0,0ZM49.22,86H47.34l0,0c0,.17,0,.34,0,.51s0,.08,0,.11H49.2l0,0Zm-.64,1.29c-.22,0-1.06,0-1.26,0v.6c.22,0,1.06,0,1.26,0ZM60,100.58c0-.22,0-1.06,0-1.27h-.6c0,.22,0,1.07,0,1.27ZM41.6,87.88v1.24l0,0h.61V87.9l0,0Zm12-7.63c0-.22,0-1.07,0-1.26h-.6c0,.22,0,1.06,0,1.26ZM28.9,82.16h1.24l0,0v-.51s0-.08,0-.11H28.92s0,0,0,0Zm14.6,3.18H42.3s0,0,0,0l0,0v.51s0,.07,0,.1h1.22s0,0,0,0ZM48,77.71V77.1l0,0h-.51s-.08,0-.11,0v.54a.09.09,0,0,0,0,0s0,0,0,0Zm1.27,0V77.1l0,0h-.5s-.08,0-.11,0v.57a0,0,0,0,0,0,0s0,0,0,0ZM26.35,79.62V79s0,0,0,0h-.51s-.08,0-.1,0v.59l0,0Zm17.16,2.54h.6l0,0v-.58s0,0,0,0,0,0,0,0h-.59l0,0Zm10.16,1.91v.61l0,0h.51s.07,0,.1,0v-.59s0,0,0,0Zm-4.43,3.17s0,0,0,0v.6a0,0,0,0,0,0,0h.59l0,0v-.6s0,0,0,0ZM59.37,98.67s0,0,0,0v-.54s0,0,0,0l0,0h-.59l0,0v.59l0,0ZM49.86,77.08v.61l0,0h.59s0,0,0,0V77.1l0,0Z"/><path d="M56.84,93h.64v1.27h-.61l0,0Z"/><path d="M58.11,94.86h.64v1.27h-.64Z"/><path d="M54.94,75.81h-.61l0,0v-.6h.61s0,0,0,0Z"/><path d="M44.77,91.05h-.62a0,0,0,0,1,0,0v-.6h.63Z"/><path d="M57.48,94.23h.62s0,0,0,0v.6h-.63Z"/><path d="M40.33,87.88v.61l0,0h-.6s0,0,0,0,0,0,0,0V87.9l0,0Z"/><path d="M75.1,95.93l-.43.43h0l-.42-.42c-.07,0-.09.07-.13.1l-.11.11-.11.11s-.07.09-.13.1L72,94.59a.49.49,0,0,0-.15.13l-.16.16-.14.14h0l-.88-.88.41-.41,0,0v0l-.36-.36s0-.07-.09-.06l-.43.43-.42-.41v0h0c-.11.12-.24.24-.36.36s-.06,0,0,.09l.43.43-.43.43s-.07,0-.09,0l-.36-.36h0c-.14.14-.27.28-.42.42a.93.93,0,0,0,.13.15l.16.16.15.15-.88.88c0,.07.06.09.09.13l.12.11.11.11s.08.07.1.13l-.88.87h0l0,0L67,96.84a.32.32,0,0,0-.15.13,1.21,1.21,0,0,0-.16.16l-.14.13h0l-.87-.87v0s0,0,0,0l.85-.85v0l-.87-.87h0l0,0-.4.4-1.78-1.78s-.07,0-.09.06-.25.24-.36.36h-.05l-.85-.85a9.2,9.2,0,0,0-.9.89l.42.43a2.73,2.73,0,0,1-.45.45l-.42-.42h0l-.87.87c0,.06.08.1.13.15s.1.11.16.16l.14.14c0,.07-.09.1-.13.14l-.14.15-.13.12-.13.13-.14.15-.13.12-.13.13-.13.13-.14.15-.12.12s0,0,0,0v0l.4.4v0l-.41.42s0,0,0,0,0,0,0,0l1.75,1.74s0,.07-.06.09l-.36.37a0,0,0,0,0,0,0q.2.21.42.42a.93.93,0,0,0,.15-.13c.05,0,.1-.11.16-.16l.14-.15.44.44c.06,0,.09-.07.12-.1l.12-.11.11-.12.11-.11.44.43h0l0,0,.84-.84c.07,0,.1.09.15.13l.16.16.14.14h0l2.19-2.2a2.25,2.25,0,0,1,.45.44l-4.92,4.92h0l0,0-.4-.4v0l.42-.42v0l-.42-.42c-.07,0-.1.08-.15.13a1.21,1.21,0,0,0-.16.16l-.14.13h0l-.42-.42v0s0,0,0,0,.26-.27.4-.4v0L58,98.64h0l-.4.41c-.05,0-.07,0-.09-.06l-.36-.36h0s0,0,0,0l-.86.85a.61.61,0,0,1-.15-.13c-.05,0-.1-.11-.16-.16l-.14-.15-.89.9a1.14,1.14,0,0,1-.16-.14c-.05,0-.1-.11-.16-.16l-.14-.15L54,100s0,0,0,0l0,.05.37.36v0l-2.65,2.65h0l-.4-.4h-.05L50,104a0,0,0,0,0,0,0l.42.42v0h0l-.4.4s-.06,0-.09,0l-.36-.37c-.21.17-1.12,1.08-2.25,2.23a.93.93,0,0,0,.13.15c0,.05.11.1.16.16l.14.13a.08.08,0,0,0,0,0c-.29.29-.58.57-.86.86h0c-.13-.14-.27-.27-.4-.4h0l-.42.42h0l0,0-2.19-2.18s0-.07.06-.09l.36-.36v0l-.42-.41h0l-.85.85h0l-.87-.88c0-.06.06-.08.09-.12a1.14,1.14,0,0,0,.11-.11l.12-.11s.08-.07.1-.13L41,103.13v0l0,0,.39-.39c0-.07-.08-.1-.13-.15a1.21,1.21,0,0,0-.16-.16l-.13-.14v0l.86-.87h0l0,0,.4.4h0L67,77.08H67l.41.4s0,0,0,0l.43-.43v0l0,0L67,76.16l.44-.43s.06,0,.09.06l.36.36h0l0,0,1.29-1.28a2.46,2.46,0,0,1,.45.44,1.42,1.42,0,0,1-.12.13,1.59,1.59,0,0,0-.13.13l-.13.12-.11.12-.13.13L69,76l-.12.13a2.25,2.25,0,0,0,.44.45l.43-.42c.07,0,.09.07.14.11l.13.13.14.14.13.13.13.13.12.13.15.14.13.13.13.13.12.13.15.14.13.13.12.13.13.13.15.14.13.13.12.13.44-.43s0,0,0,0l0,0,.4.4-.43.43v0c.13.14.27.27.41.41h0l.43-.42s0,0,0,0-.28-.29-.43-.43l.44-.43s0,0,.07,0l.79.78a.1.1,0,0,0,0,0s0,0,0,0l-1.31,1.31s0,.06.06.09l.36.36s0,0,0,0,0,0,0,0l-.38.38a.36.36,0,0,0,.12.15l.16.16.14.14c0,.07-.07.09-.1.13l-.12.11-.09.1-.11.11v0h0l.85.85s0,0,0,0l-.42.42v0a0,0,0,0,0,0,0l.84.83s0,0,0,0,0,0,0,0l-.42.42v0a0,0,0,0,0,0,0l.4.4s.07,0,.09-.06l.73-.72.08-.08h0l.88.88c-.15.14-.29.28-.43.43s0,0,0,0,.27.27.41.41h0l.42-.42v0L76,85.15l.45-.45.88.88h0c.13-.14.26-.27.4-.4s0,0,0,0l1.33,1.33c.07,0,.1-.09.15-.13l.16-.16.14-.14h0l.88.87-.4.4,0,0h0L79.66,87s0-.07-.09-.06l-.43.43L78.71,87h0l-.41.41h0v0l.42.43s0,0,0,0c.15-.14.29-.28.43-.43l.88.88h0l.13-.14.16-.16c.05,0,.08-.1.15-.13l.84.84,0,0h0l.4-.4h0l.87.87s0,0,0,0c.3-.29.59-.58.88-.88l.89.88h0l.44-.43-.9-.9.44-.43s.06,0,.09.06l.72.72.09.09h0l.39-.4h0c.28.28.56.57.85.85h0l.42-.42h.05l3.09,3.1s0,0,0,0l-.42.42v0s0,0,0,0l.41.4s0,.06-.06.09l-1.16,1.15-.1.11v0l1.77,1.77c.07,0,.1-.09.15-.13s.11-.11.16-.16l.14-.14h0l.41.41v0s0,0,0,0l-.4.4v0l.42.42h0l.4-.41s.07,0,.09.06l.36.36h0v0l.4-.4h0s0,0,0,0l1.3,1.29h0l.13-.13.15-.15.14-.14h0s0,0,0,0l1.75,1.74h0l.42-.42h0l0,0,1.28,1.29s.06,0,.09-.06.24-.25.36-.36h0a0,0,0,0,1,0,0l1.3,1.3c.07,0,.1-.09.15-.13s.11-.11.16-.16l.14-.14h0l.42.41v0l0,0-.4.4v0l.42.42h0l0,0,.38-.38s0,0,0,0h0c.13.14.27.28.41.41h0s0,0,0,0l.39-.4a2.67,2.67,0,0,1,.46.45l-.42.42s0,0,0,0,0,0,0,0l.4.4h0l.42-.42h0l0,0,.37.37c.07,0,.11-.08.16-.12s.1-.11.16-.16l.14-.14c.2.17,1.19,1.15,1.79,1.77v0l0,0-4.89,4.9h0l0,0-.8-.81h0a3.63,3.63,0,0,0-.44.44l.42.43v0l0,0-.4.4s0,0-.06,0l-1.26-1.26,0,0s0,0,0,0,0,0,0,0l.85-.85v0s0,0,0,0c-.29-.29-.58-.57-.86-.86h0l-.42.41c0,.07.07.09.1.13l.11.11a1.14,1.14,0,0,1,.11.11s.09.07.1.13l-.42.42h0v0l-1.32-1.31.43-.43v0l-.4-.41h0l-.42.42v0l.43.43-.43.43h0l-1.34-1.33c.15-.14.29-.29.43-.43s0,0,0,0l-.41-.41h0l-.42.42v0l.43.43c-.14.15-.28.29-.43.43h0L93.07,104l.43-.43v0l-.4-.41h0l-.43.43s0,0,0,0c.14.15.28.29.43.43l-.45.45-1.8-1.79c.14-.15.29-.29.43-.43a.08.08,0,0,1,0,0l-.41-.4,0,0h0l-.42.43v0c.14.14.29.28.43.43l-.43.43h0L89,101.77l.43-.43s0,0,0,0l-.41-.4a0,0,0,0,0,0,0s0,0,0,0l-.42.42v0l.43.43-.43.43h0l-1.33-1.33.43-.43v0l-.4-.41h0l-.43.42s0,0,0,0,.28.29.43.43c-.15.14-.29.29-.43.43h0L85.43,100l.43-.43a.08.08,0,0,1,0,0l-.41-.41h0l-.42.42v0l.43.43-.43.43s-.06,0-.08,0l-.78-.78,0,0v0h0l.4-.4a2.89,2.89,0,0,0-.44-.46L82.75,100c-.06,0-.09-.07-.12-.1l-.12-.11a.57.57,0,0,0-.11-.11s-.06-.09-.13-.11l-.42.43h0l0,0-1.73-1.73h0l-.4.41h0l-.86-.86v0h0l.4-.41s0,0,0,0l-.43-.43h0l0,0-.8.8,0,0h0l0,0h0l-.42-.42h0l0,0-.39.38h0L76,96.86l0,0v0s0,0,0,0l.39-.38v0a2.61,2.61,0,0,0-.44-.45l-.42.42h0l-.42-.42c.14-.15.29-.29.43-.43v0a8.8,8.8,0,0,0-.89-.88l-.42.42v0Zm-10.79-8.1h0c.44-.43.87-.87,1.31-1.31v0l-.36-.36a.1.1,0,0,0-.09-.06l-.38.39,0,0h0l-.42-.42h0l-.38.39,0,0s0,0,0,0l.42.42c0,.06-.07.09-.1.13l-.12.11-.11.11s-.08.06-.09.12ZM43.65,102.2h0l1.3-1.3h0v0l-.42-.42h0c-.43.42-.86.85-1.28,1.28,0,0,0,0,0,0a0,0,0,0,0,0,0Zm24.26-18-.4-.4,0,0h0l0,0-1.26,1.27s0,0,0,0l.4.4,0,0h0Zm2.25,3.15-1.33,1.32v0l.36.36s0,.06.09,0l1.31-1.31v0Zm.46,1.35c-.17.15-.77.74-.9.9l.43.43a10.77,10.77,0,0,0,.89-.9ZM88.11,90.1a12.62,12.62,0,0,0-.89-.9l-.43.43a10.77,10.77,0,0,0,.9.89Zm-22,4c.3.31.59.59.88.88h0l.41-.4a0,0,0,0,1,0,0v0l-.87-.87h0Zm3.13-13.92a12.57,12.57,0,0,0-.9-.89l-.42.43a12.45,12.45,0,0,0,.89.89ZM53.09,99.07c.31-.3.59-.59.88-.88v0l-.36-.36s0-.07-.09-.06l-.86.87v0ZM65.66,91l-.84.85,0,0s0,0,0,0l.37.36s0,.07.08.06l.84-.83,0,0v0Zm-2.24-8.54-.4-.4,0,0h0l-.36.36s-.07,0-.06.09l.38.38s0,0,0,0,0,0,0,0Zm.9-.9-.4-.4,0,0h0l-.36.36s-.06,0-.05.09l.4.4s0,0,0,0h0ZM49.49,99.07l-.39-.4,0,0h0c-.11.12-.24.24-.36.36s-.06,0-.05.09l.38.38,0,0h0ZM63.42,88.74c.16-.15.29-.29.43-.43s0,0,0,0-.28-.27-.41-.41h0l-.42.42v0ZM72,82.9l.4.4,0,0s0,0,0,0l.36-.37s.06,0,.06-.08l-.4-.4s0,0,0,0h0Zm-.89,5.38v0c.15.14.29.28.43.43,0,0,0,0,0,0l.39-.38,0,0v0l-.42-.42h0Zm15.24.92s0,0,0,0l-.38-.38,0,0s0,0,0,0l-.42.42s0,0,0,0l.4.4h0Zm-22-8.54.43.43h0l.41-.41s0,0,0,0v0l-.41-.42h0Z"/><path d="M80.49,86.94l.45-.44.9.89-.43.43h0Z"/><path d="M82.74,87.39l.44-.45.9.9-.45.45Z"/><path d="M67,76.16c-.14.15-.28.29-.43.43h0l-.43-.43v0h0l.4-.41h0Z"/><path d="M70.61,94.13l-.43.43h0l-.43-.43.45-.45Z"/><path d="M81.84,87.39l.43-.42s0,0,0,0h0l.43.42-.43.43h0s0,0,0,0S82,87.54,81.84,87.39Z"/><path d="M65.22,95c.14.14.28.29.43.43v0l-.42.42h0l-.41-.41s0,0,0,0S65.07,95.17,65.22,95Z"/><path d="M95.5,76.13v.62l0,0h-.6s0,.11,0,.16v.16a.75.75,0,0,1,0,.15c0,.06,0,.11,0,.16H92.34a.71.71,0,0,0,0,.2V78l0,0H91.05v-.61s0,0,0,0h-.51s-.08,0-.1,0V78h-.61l0,0v.51s0,.08,0,.11h.61v.61s-.07,0-.11,0H89.8s0,0,0,0v.6h.63v1.24c.06,0,.11,0,.16,0h.16a.85.85,0,0,1,.16,0s.11,0,.16,0v1.24l0,0h-.6a.41.41,0,0,0,0,.19v.42l0,0H89.17s0,0,0,0V81.88l0,0H87.88v.62H85.36s0,.07,0,.1,0,.35,0,.51l0,0H84.09a8.69,8.69,0,0,0,0,1.27h.6a2.7,2.7,0,0,1,0,.64h-.6l0,0v1.23c.06,0,.13,0,.19,0h.43a.62.62,0,0,1,0,.19v1.69s0,0,0,0h.59l0,0v.59s0,0,0,0h2.49s0,.07,0,.1v.51l0,0h.6a.61.61,0,0,0,0-.19v-.44h.61s0-.11,0-.16V88.2h.61l0,0V87c.06,0,.13,0,.2,0h.42l0,0V83.78a2.52,2.52,0,0,1,.63,0v7h-.61l0,0v-.59l0,0H89.8c0,.06,0,.13,0,.2v.42h-.61s0,0,0,0v-.58s0,0,0,0H85.35a0,0,0,0,1,0,0,0,0,0,0,0,0,0v.57s-.07,0-.11,0h-.51l0,0V92a1.23,1.23,0,0,1-.2,0h-.43v1.26h-.64v.61l0,0H84l0,0v3.77l0,0h-.59l0,0v1.86s0,0,0,0H84l0,0a0,0,0,0,1,0,0v.57s-.07,0-.11,0h-.52c0,.27,0,1.55,0,3.16a.44.44,0,0,0,.2,0h.42s0,0,0,0c0,.41,0,.81,0,1.22l0,0h-.58l0,0v.59l0,0H80.28s0-.07,0-.11v-.51l0,0h-.59l0,0V106s0,0,0,0H78.36s0-.11,0-.16v-.31c0-.06,0-.11,0-.16H76.46s0,0,0,0v-.59a.41.41,0,0,0-.19,0h-.42s0,0,0,0v-1.22l0,0h.59l0,0V68.54l0,0h.61v-.6a0,0,0,0,0,0,0H75.81v-.62s.07,0,.1,0h.51l0,0V65.36a2.42,2.42,0,0,1,.63,0c0,.05,0,.11,0,.17v1.07a3.26,3.26,0,0,0,.63,0V66c.06,0,.12,0,.18,0h3v-.61l0,0s0,0,0,0h.56v.6s0,0,0,0h.6v-.62h-.63v-.62s.06,0,.08,0h1.18s0,0,0,0v1.85s.07,0,.11,0h.51l0,0v.6a.44.44,0,0,0,.2,0h.42c0,.06,0,.11,0,.17a.76.76,0,0,1,0,.15v.29a0,0,0,0,0,0,0h1.24v.6l0,0h1.22s0,0,0,0v.59l0,0h.59s0-.07,0-.11V67.9l0,0h1.24v.61l0,0h.6s0,0,0,0v-.6h-.63v-.64h1.25s0,0,0,0v-.59l0,0h1.87a.68.68,0,0,0,0-.2V66l0,0H93v.61s0,0,0,0h-.51s-.08,0-.11,0v.61h-.61l0,0v.6h.62s0,0,0,0v-.61h1.25l0,0V66.8c0-.06,0-.13,0-.19h1.24a0,0,0,0,0,0,0V66s0,0,0,0l0,0h1.23a0,0,0,0,0,0,0V64.7h1.25s0,0,0,0v-.61H96.13v-.62s.07,0,.11,0h1.14s0,0,0,0,0,0,0,0V62.8h1.25v-.59l0,0h4.4l0,0v.59l0,0h.59s0,.06,0,.1v1.78l0,0h2.5c0-.06,0-.13,0-.2v-.42h.61a0,0,0,0,1,0,0v.58s0,0,0,0h.6l0,0v-.59s.07,0,.1,0h.51l0,0a0,0,0,0,0,0,0v-.57h1.88l0,0v-.59l0,0h2.52v-.6l0,0h1.86s0-.07,0-.1v-.51s0,0,0,0h1.87a.41.41,0,0,0,0-.19v-.42l0,0h.58l0,0v.59a0,0,0,0,1,0,0h.6l0,0v-.59h.62l0,0v-.59a3.24,3.24,0,0,1,.63,0v.59l0,0h.59l0,0v-.59l0,0h.6a.41.41,0,0,0,0-.19,1.77,1.77,0,0,0,0-.23v-.2c.27,0,1.66,0,2.52,0l0,0v7l0,0h-1.22a3.29,3.29,0,0,0,0,.63h.59l0,0v.6l-.06,0h-1.83l0,0V66.63l0,0H119s0,0,0,0v.58s.11,0,.16,0h.32a.26.26,0,0,1,.15,0v.6l0,0h-1.88v-.61l0,0h-.57s0,0,0,0h0v.6l0,0h.61v.61l0,0h-1.88V67.9l0,0h-.6a0,0,0,0,0,0,0v.61h.63v.61l0,0h-1.89v-.61s0,0,0,0h-.61v.6l0,0h.61v.63h-2.54v-.61l0,0h-.6a0,0,0,0,0,0,0v.6h.63v.61s0,0,0,0h-1.89v-.61s0,0,0,0h-.57s0,0,0,0h0v.6l0,0h.6V71s0,0,0,0h-1.88v-.61l0,0H107s0,0,0,0V71h.63v.61s0,0,0,0h-1.89v-.61s0,0,0,0h-.57s0,0,0,0h0v.6l0,0h.61v.61s0,0-.08,0h-1.17s0,0,0,0v-.59a2.48,2.48,0,0,0-.63,0v1.87c-.05,0-.11,0-.16,0h-.32s-.1,0-.16,0v.6l0,0h-2.5s0,0,0,0,0,0,0,0v.57s0,0,0,0H99.31v-.59s0,0,0,0h-.6s0,0,0,0a0,0,0,0,0,0,0v1.18a0,0,0,0,1,0,0l0,0h-.59l0,0v.59l0,0H96.77v-.59a2.57,2.57,0,0,0-.63,0v.6l0,0s0,0,0,0H95.5v-.6a0,0,0,0,0,0,0,10,10,0,0,0-1.26,0v.6H95.5ZM82.14,78l0,0V76.16l0,0h-.51s-.08,0-.11,0v.54s0,0,0,0l0,0h-.59l0,0v.59s0,0,0,0h.6s0,.11,0,.16a.75.75,0,0,1,0,.15.81.81,0,0,0,0,.16c0,.05,0,.11,0,.16Zm-4.45,24.77,0,0V101a0,0,0,0,0,0,0l0,0H77.1l0,0v1.86l0,0ZM82.16,73h-.61s0,0,0,0,0,0,0,0c0,.59,0,1.19,0,1.79a.43.43,0,0,0,0,0h.57s0,0,0,0l0,0ZM86,73.6v1.88l0,0h.51s.08,0,.11,0V73.62s0,0,0,0Zm1.29.63c0,.22,0,1.07,0,1.27h.6c0-.22,0-1.07,0-1.27Zm13.32-11.42c-.22,0-1.06,0-1.27,0v.61a10.73,10.73,0,0,0,1.27,0ZM87.88,81.22h1.24l0,0v-.58a0,0,0,0,0,0,0s0,0,0,0H87.9l0,0ZM80.25,69.16c-.22,0-1.07,0-1.26,0v.61c.22,0,1.06,0,1.26,0Zm1.91,24.76V92.68s0,0,0,0h-.51s-.08,0-.11,0V93.9l0,0Zm3.18-14.61v1.2s0,0,0,0l0,0h.51s.07,0,.1,0V79.34s0,0,0,0Zm-7.63-4.45H77.1l0,0v.51s0,.07,0,.1h.59s0,0,0,0Zm0-1.27H77.1l0,0v.51s0,.07,0,.1h.59s0,0,0,0Zm1.91,22.87H79l0,0V97s0,.08,0,.11h.59l0,0Zm2.54-17.15V78.7s0,0,0,0h-.6l0,0v.59s0,0,0,0Zm1.91-10.16h.61l0,0v-.51s0-.08,0-.11h-.59l0,0Zm3.17,4.42s0,0,0,0h.6l0,0V73s0,0,0,0h-.6l0,0ZM98.67,63.45l0,0h-.59l0,0v.6h.63ZM77.08,73h.61l0,0v-.6l0,0H77.1l0,0Z"/><path d="M93,66v-.63h1.27v.6s0,0,0,0Z"/><path d="M94.86,64.7v-.63h1.27v.63Z"/><path d="M75.81,67.88v.61l0,0h-.6s0,0,0,0,0,0,0,0V67.9l0,0Z"/><path d="M91.05,78v.61h0a0,0,0,0,1,0,0h-.6V78Z"/><path d="M94.23,65.34v-.61s0,0,0,0h.62v.61h0a0,0,0,0,1,0,0Z"/><path d="M87.88,82.49h.63v.6s0,0,0,0H87.9l0,0Z"/><path d="M95.93,47.71l.43.44v0l-.42.42c0,.06.07.09.1.12l.11.12a.57.57,0,0,1,.11.11s.09.06.1.12l-1.77,1.77a.7.7,0,0,0,.13.16l.16.16.14.13a.08.08,0,0,0,0,0l-.88.88-.41-.42,0,0h0l-.36.36s-.07,0-.06.09l.43.44-.41.41s0,0,0,0v0l.36.36s0,.06.09.06l.43-.44.43.44s0,.06,0,.09-.25.24-.36.36v0l.42.43a1,1,0,0,0,.15-.14l.16-.16L95,54l.88.89c.07,0,.09-.07.13-.1l.11-.11a1.14,1.14,0,0,1,.11-.11s.07-.09.13-.1l.87.87v0l0,0-.39.39c0,.06.08.1.13.15l.16.16.13.13v0l-.87.86h0l-.85-.85h0l-.87.88s0,0,0,0l0,0,.4.4-1.78,1.78s0,.06.06.09l.36.36s0,0,0,0,0,0,0,0l-.85.85a12.15,12.15,0,0,0,.89.9l.43-.43a3.18,3.18,0,0,1,.45.45l-.42.42v0L95,63c.06,0,.1-.08.15-.12l.16-.16.14-.14a.42.42,0,0,1,.14.12l.15.14.12.13.13.13.15.14.12.13.13.13.13.13.15.14.12.13h0l.4-.41h0l.42.42h0l0,0L99.5,62.1s.07,0,.09.06l.37.36h0l.42-.42c0-.07-.09-.1-.13-.15s-.11-.11-.16-.16l-.15-.15.44-.43c0-.07-.07-.09-.1-.13L100.2,61l-.12-.12-.11-.11.43-.43s0,0,0,0l0,0-.84-.83c0-.07.09-.11.13-.16l.16-.16L100,59a.08.08,0,0,1,0,0h0l-2.2-2.2a2.55,2.55,0,0,1,.44-.45l4.92,4.92v0l0,0-.4.4h0l-.42-.42h0c-.14.14-.28.27-.42.42,0,.06.08.1.13.15l.16.16.13.13v0l-.42.41h0l-.4-.4h0l-2.67,2.67v0h0l.41.41s0,.06-.06.08l-.36.37v0l0,0,.85.85a.61.61,0,0,1-.13.15l-.16.16-.15.15.9.89c0,.06-.1.1-.14.15l-.16.16-.15.14.44.44h0l.05,0,.36-.37h0l2.65,2.66s0,0,0,0,0,0,0,0l-.4.39v0s0,0,0,0l1.3,1.3h0l.42-.42h0a0,0,0,0,1,0,0l.4.4c0,.05,0,.07,0,.09l-.37.37c.17.2,1.08,1.11,2.23,2.24.06,0,.1-.08.15-.13l.16-.16.13-.13h0L108,76v0a0,0,0,0,1,0,0l-.4.4a0,0,0,0,0,0,0l.42.42v0l0,0-2.18,2.18s-.07,0-.09-.06-.25-.24-.36-.36h0c-.14.13-.28.27-.41.41v0a0,0,0,0,0,0,0l.85.86v0l-.88.88c-.06,0-.08-.07-.12-.1l-.11-.11-.11-.11s-.07-.09-.13-.1l-1.32,1.32s0,0,0,0l0,0-.39-.39c-.07,0-.1.09-.15.13s-.11.11-.16.16l-.14.14s0,0,0,0l-.87-.86v0l0,0,.4-.4v0L77.08,55.82v0c.14-.13.27-.27.4-.4a0,0,0,0,0,0,0l-.43-.42h0l-.87.87-.43-.43s0-.07.06-.09.24-.25.36-.36v0l0,0-1.28-1.28a2.46,2.46,0,0,1,.44-.45s.08.08.13.12l.13.12.12.13.12.12.13.12.12.13.13.13a3,3,0,0,0,.45-.44l-.42-.43a.31.31,0,0,1,.11-.14,1.59,1.59,0,0,1,.13-.13l.14-.15.13-.12.13-.13.13-.13.14-.14.13-.13.13-.13.13-.13.14-.14.13-.13.13-.13.13-.13.14-.14.13-.13.13-.13L78,50.43s0,0,0,0l0,0,.4-.4.43.43h0l.41-.4s0,0,0,0v0l-.42-.42h0l-.43.43L78,49.53s0-.06,0-.08l.78-.78,0,0h0l1.31,1.31s.06,0,.09,0,.24-.25.36-.36h0l0,0,.38.39a.49.49,0,0,0,.15-.13c.06,0,.11-.11.16-.16l.14-.14a.36.36,0,0,1,.13.11l.11.11.1.1.11.1s0,0,0,0h0l.85-.85h0l.42.41h0s0,0,0,0c.28-.28.56-.55.83-.83l0,0h0l.42.42h0l0,0,.4-.4c0-.05,0-.06-.06-.09-.23-.24-.48-.48-.72-.72l-.08-.09v0c.29-.3.58-.59.88-.88l.43.43h0l.41-.41h0v0l-.42-.43h0l-.43.43-.45-.45.88-.88v-.05l-.4-.4s0,0,0,0l1.33-1.32a.7.7,0,0,0-.13-.16,1.21,1.21,0,0,1-.16-.16l-.14-.13s0,0,0,0l.87-.88.4.4s0,0,0,0v0l-.36.36s-.07,0-.06.09l.43.43c-.14.15-.28.29-.43.43v0l.41.4h0a0,0,0,0,0,0,0l.43-.42a0,0,0,0,0,0,0l-.43-.43c.3-.29.59-.58.88-.88,0,0,0,0,0,0l-.14-.14s-.11-.1-.16-.16-.1-.08-.13-.15l.84-.83,0,0s0,0,0,0a0,0,0,0,1,0,0l-.4-.4v0l.87-.87s0,0,0,0l-.88-.88.88-.88v0l-.43-.43-.9.89-.43-.43s0-.07.06-.09l.72-.72.09-.09s0,0,0,0v0l-.4-.4v0h0l.85-.85a0,0,0,0,1,0,0l-.42-.42v0h0l3.1-3.1h0l.42.42h0l.4-.4s.06,0,.09.06l1.15,1.15.11.1h0L95.47,32a.93.93,0,0,0-.13-.15c0-.05-.11-.1-.16-.16L95,31.56a.08.08,0,0,0,0,0c.14-.13.28-.27.41-.41h.05c.13.14.27.27.4.4s0,0,0,0l.42-.43v0s0,0,0,0l-.41-.4s0-.06.06-.09l.36-.36v0l0,0-.4-.4v0l0,0,1.29-1.3s0,0,0,0l-.13-.14L97,28.11,96.84,28v0l0,0,1.74-1.75s0,0,0,0l-.42-.42v0l0,0,1.29-1.29s0-.06-.06-.09l-.36-.36v0s0,0,0,0l1.3-1.3a.93.93,0,0,0-.13-.15l-.16-.16-.14-.14s0,0,0,0l.41-.41h0l.4.4h0l.42-.43v0l0,0-.38-.38s0,0,0,0v0l.41-.41v0a0,0,0,0,0,0,0l-.4-.4a2.68,2.68,0,0,1,.45-.45l.42.42h0s0,0,0,0l.4-.4v0l-.42-.42v0l0,0,.37-.37c0-.07-.08-.1-.12-.15s-.11-.11-.16-.16l-.14-.14c.17-.2,1.15-1.19,1.77-1.79h0s0,0,0,0c1.64,1.63,3.27,3.27,4.9,4.9,0,0,0,0,0,0s0,0,0,0l0,0-.81.8v0a3,3,0,0,0,.44.45l.43-.42h.05l.4.41s0,0,0,.05l-1.26,1.27,0,0h0s0,0,0,0l-.85-.84s0,0,0,0h0l-.86.85a.08.08,0,0,1,0,0l.41.41c.07,0,.09-.06.13-.09l.11-.12.11-.11s.07-.08.13-.1l.42.42v0l0,0-1.31,1.31c-.14-.14-.29-.28-.43-.43h0l-.41.41h0v0l.42.43s0,0,0,0,.29-.28.43-.43l.43.44v0L104.91,28l-.43-.43h0l-.41.4s0,0,0,0v0l.42.42h0l.43-.43c.15.14.29.29.43.43s0,0,0,0L104,29.75c-.14-.15-.28-.29-.43-.43,0,0,0,0,0,0l-.41.41v0l.43.42h0l.43-.43.45.45L102.67,32c-.15-.14-.29-.28-.43-.43h0l-.4.4s0,0,0,0v0l.43.43h0l.43-.43.43.43v0l-1.33,1.33-.43-.43h0c-.13.13-.27.26-.4.4v0s0,0,0,0l.42.42h0l.43-.43c.14.14.28.29.43.43v0l-1.33,1.34c-.14-.15-.29-.29-.43-.43h0l-.41.41s0,0,0,0v0l.42.42h0c.14-.15.29-.29.43-.43.14.14.29.28.43.43v0L100,37.38,99.54,37h0l-.41.4v0l.42.43h0l.43-.43.43.44s0,0,0,.07l-.78.79a.1.1,0,0,0,0,0h0l-.4-.4a2.89,2.89,0,0,0-.46.44L100,40.06c0,.07-.07.09-.1.13l-.11.11-.11.11s-.09.07-.11.13L100,41s0,0,0,0l0,0-1.73,1.73v0l.41.41s0,0,0,0c-.28.29-.57.58-.86.86h0l-.41-.4h0l-.43.42v0h0l.8.8,0,0v0h0v0l-.42.41v0l0,0,.38.38v0h0l-.84.84,0,0h0l0,0-.38-.39h0a2.37,2.37,0,0,0-.45.45l.42.42v0l-.42.41c-.15-.14-.29-.28-.43-.43h0a10,10,0,0,0-.88.89l.42.43h0ZM87.83,58.5s0,0,0,0l-1.31-1.32h0l-.36.36s-.06,0-.06.09l.39.39,0,0v0l-.42.42v0l.39.39,0,0h0l.42-.42c.06,0,.09.06.13.1l.11.11a1.14,1.14,0,0,0,.11.11s.06.09.12.1ZM102.2,79.17v0l-1.3-1.3h0l-.42.43s0,0,0,0l1.28,1.28,0,0h0Zm-18-24.27-.4.4,0,0s0,0,0,0l0,0,1.27,1.27,0,0,.4-.41a0,0,0,0,0,0,0v0Zm3.15-2.24L88.72,54h0c.11-.12.24-.24.36-.36s.06-.05,0-.09l-1.31-1.32h0Zm1.35-.46c.15.17.74.76.9.89l.43-.43a12.57,12.57,0,0,0-.9-.89ZM90.1,34.7c-.17.14-.77.74-.9.9l.43.42a10.68,10.68,0,0,0,.89-.89Zm4,22,.88-.87s0,0,0,0l-.4-.4h0l-.87.86v0ZM80.21,53.57c-.17.14-.76.74-.89.89l.43.43a10.77,10.77,0,0,0,.89-.9ZM99.07,69.72l-.88-.88h0l-.36.36s-.07,0-.06.09l.87.87h0ZM91,57.15l.85.85,0,0h0l.36-.36s.07,0,.06-.09l-.83-.83,0,0h0ZM82.45,59.4l-.4.39,0,0v0c.12.11.24.24.36.36s0,.06.09.05l.38-.38,0,0a0,0,0,0,0,0,0Zm-.9-.9-.4.4,0,0v0l.36.36s0,.06.09.06L82,59l0,0v0ZM99.07,73.32l-.4.4,0,0v0l.36.36s0,.07.09.06l.38-.39s0,0,0,0,0,0,0,0ZM88.74,59.39,88.31,59h0l-.41.41s0,0,0,0v0l.42.41h0ZM82.9,50.86l.4-.4,0,0s0,0,0,0L83,50s0-.06-.08-.05l-.4.4h0v0Zm5.38.88h0l.43-.43s0,0,0,0l-.38-.38,0,0h0l-.42.43v0ZM89.2,36.5h0l-.38.39,0,0s0,0,0,0l.42.42h0l.4-.4v0s0,0,0,0Zm-8.54,22,.43-.43v0l-.41-.41h0l-.42.42v0Z"/><path d="M86.94,42.32l-.44-.44.89-.9c.15.14.29.28.43.43s0,0,0,0Z"/><path d="M87.39,40.08l-.45-.45.9-.9.45.45Z"/><path d="M76.16,55.8c.15.14.29.29.43.43s0,0,0,0l-.43.42h0l-.41-.41v0Z"/><path d="M94.13,52.21l.43.42v0l-.43.42-.45-.44Z"/><path d="M87.39,41,87,40.55v0s0,0,0,0l.42-.43c.15.14.29.28.43.43s0,0,0,0v0Z"/><path d="M95,57.6l.43-.43s0,0,0,0l.42.43v0h0l-.41.41h0Z"/><path d="M76.13,27.31h.62s0,0,0,0v.59s.11,0,.16,0h.31a.29.29,0,0,1,.16,0v2.5a.47.47,0,0,0,.2,0H78l0,0v1.24h-.61s0,0,0,0c0,.17,0,.34,0,.51s0,.08,0,.11H78V33l0,0h.51s.08,0,.11,0V32.4h.61s0,.07,0,.1V33l0,0h.6c0-.06,0-.13,0-.2V32.4h1.24c0-.06,0-.11,0-.16v-.16a.86.86,0,0,1,0-.16c0-.05,0-.1,0-.15h1.24a0,0,0,0,1,0,0v.59c.06,0,.13,0,.19,0h.42l0,0v1.22l0,0s0,0,0,0H81.86v1.26h.62v2.52s.07,0,.1,0h.51l0,0v1.23a10.38,10.38,0,0,0,1.27,0v-.61a3.41,3.41,0,0,1,.64,0v.6l0,0h1.23c0-.06,0-.13,0-.2v-.42a.65.65,0,0,1,.19,0h1.69l0,0v-.58l0,0h.59l0,0V35s.07,0,.1,0h.51s0,0,0,0v-.6a.61.61,0,0,0-.19,0h-.44v-.61s-.11,0-.16,0a.85.85,0,0,0-.16,0H88.2v-.62l0,0H87c0-.06,0-.13,0-.19v-.42l0,0H83.78a2.52,2.52,0,0,1,0-.63h7a0,0,0,0,1,0,0c0,.19,0,.38,0,.57,0,0,0,0,0,0h-.59l0,0V33a.44.44,0,0,0,.2,0h.42s0,0,0,0c0,.2,0,.39,0,.58l0,0s0,0,0,0h-.59v3.78l0,0h.59s0,.07,0,.1,0,.35,0,.51l0,0H92a1.5,1.5,0,0,1,0,.2v.44h1.26c0,.07,0,.13,0,.2v.43h.61l0,0v-.59s0,0,0,0h3.77l0,0v.58l0,0h1.89v-.6l0,0h.59s0,.07,0,.1v.52c.27,0,1.55,0,3.16,0a.41.41,0,0,0,0-.19v-.42l0,0h1.22l0,0v.59l0,0h.59l0,0a.06.06,0,0,1,0,0v3.09s-.07,0-.11,0h-.51s0,0,0,0v.58l0,0H106v1.24s-.11,0-.16,0h-.31c-.06,0-.11,0-.16,0v1.87l0,0h-.59a.44.44,0,0,0,0,.2V47l0,0h-1.22l0,0V46.4l0,0H68.54l0,0s0,0,0,0v-.59h-.6l0,0s0,0,0,0V47h-.62s0-.07,0-.11v-.51l0,0H65.36a2.34,2.34,0,0,1,0-.62c.05,0,.11,0,.17,0a1.08,1.08,0,0,1,.18,0h.89a3.37,3.37,0,0,0,0-.64H66c0-.06,0-.12,0-.18v-3h-.61l0,0s0,0,0,0v-.57h.6l0,0v-.6h-.62v.63h-.62s0,0,0-.08V40.1a.13.13,0,0,1,0-.06l0,0h1.85s0-.07,0-.1v-.51l0,0h.6a.41.41,0,0,0,0-.19v-.42a.33.33,0,0,1,.17,0h.44s0,0,0,0V37.51a0,0,0,0,1,0,0h.6l0,0V36.23l0,0h.59l0,0V35.6s-.07,0-.11,0H67.9l0,0V34.3h.61l0,0v-.59l0,0h-.6v.63h-.64V33.06l0,0h-.59l0,0V31.14a.45.45,0,0,0-.2,0H66l0,0V29.86h.61l0,0v.51s0,.07,0,.1h.61v.61l0,0h.61v-.6s0,0,0,0h-.61V29.25s0,0,0,0H66.8a.41.41,0,0,1-.19,0V28s0,0,0,0H66l0,0V26.7l0,0H64.7V25.43l0,0h-.61v1.27h-.62s0-.07,0-.1V25.43l0,0h-.58l0,0v0c0-.4,0-.8,0-1.2,0,0,0,0,0,0h-.59l0,0v-4.4l0,0h.59l0,0a0,0,0,0,0,0,0v-.57s.06,0,.1,0h1.78l0,0v-2.5a.44.44,0,0,0-.2,0h-.42a.08.08,0,0,1,0,0V15.9l0,0h.58l0,0v-.6h-.61s0-.07,0-.11,0-.34,0-.51l0,0h-.59v0s0,0,0,0V12.73l0,0h-.59l0,0s0,0,0,0c0-.82,0-1.65,0-2.47v0h-.6l0,0V8.28s-.07,0-.1,0h-.51l0,0s0,0,0,0V6.37c-.06,0-.13,0-.19,0h-.42l0,0V5.74s0,0,0,0h.59l0,0V5.1l0,0h-.6v-.6l0,0h-.59a3.34,3.34,0,0,1,0-.64h.59l0,0V3.2l0,0h-.59l0,0V2.56a.41.41,0,0,0-.19,0h-.43c0-.26,0-1.65,0-2.52l0,0h7l0,0V1.25a2.57,2.57,0,0,0,.63,0V.66l0,0s0,0,0,0h.57a.08.08,0,0,1,0,0v1.8s0,0,0,0H66.63l0,0V3.79l0,0h.58c0-.05,0-.1,0-.15V3.34a.3.3,0,0,1,0-.16h.6l0,0V5.08h-.61l0,0v.58a0,0,0,0,0,0,0h.61l0,0V5.08h.61l0,0V7H67.9l0,0V7.6s0,0,0,0h.61V7h.61l0,0V8.89h-.61l0,0v.6h.61l0,0V8.89h.63v2.54h-.61l0,0v.6h.62s0,0,0,0v-.61h.61s0,0,0,0v1.88h-.61l0,0v.57a0,0,0,0,0,0,0h.61l0,0v-.61H71l0,0v1.89h-.61l0,0v.59l0,0H71s0,0,0,0v-.6h.61l0,0v1.88h-.61l0,0v.58a0,0,0,0,0,0,0h.61l0,0v-.61h.61s0,.05,0,.08V18.4l0,0h-.59a2.49,2.49,0,0,0,0,.63h1.87c0,.06,0,.11,0,.16a.85.85,0,0,1,0,.16v.16s0,.1,0,.16h.6l0,0v2.49l0,0h.59s0,0,0,0V23.5h-.59l0,0v.6l0,0h1.23l0,0v.59l0,0s0,0,0,0h.54l0,0V26s0,0,0,0h0s0,0,0,0h-.56a2.57,2.57,0,0,0,0,.63h.6l0,0a0,0,0,0,1,0,0v.59h-.62a9.8,9.8,0,0,0,0,1.25h.6a0,0,0,0,0,0,0ZM78,40.67H76.16l0,0c0,.16,0,.33,0,.51s0,.07,0,.1h.59l0,0v.59l0,0h.59l0,0v-.59a.3.3,0,0,1,.16,0h.31c.05,0,.11,0,.16,0Zm24.77,4.45,0,0h-1.86l0,0v.6l0,0h1.86l0,0ZM73,40.66v.61h1.85l0,0V40.7s0,0,0,0l0,0Zm.64-3.82h1.88l0,0v-.51s0-.07,0-.1H73.62l0,0Zm.63-1.28c.22,0,1.07,0,1.27,0V35c-.22,0-1.07,0-1.27,0ZM62.81,22.24c0,.21,0,1.06,0,1.26h.61a10.56,10.56,0,0,0,0-1.26ZM81.22,34.93V33.69l0,0h-.6l0,0v1.22s0,0,0,0ZM69.16,42.56c0,.23,0,1.07,0,1.27h.61c0-.23,0-1.07,0-1.27Zm24.76-1.91H92.68s0,0,0,0v.51s0,.07,0,.1H93.9l0,0ZM79.31,37.48h1.25l0,0V37s0-.08,0-.11H79.34l0,0ZM74.86,45.1v.57a.06.06,0,0,0,0,0l0,0h.51s.07,0,.1,0v-.59l0,0Zm-1.27,0v.61l0,0h.51s.07,0,.1,0v-.59l0,0Zm22.87-1.9v.61l0,0H97s.08,0,.11,0v-.59l0,0ZM79.31,40.65H78.7s0,0,0,0v.59l0,0h.59l0,0Zm-10.16-1.9v-.61l0,0h-.51s-.08,0-.11,0v.58l0,0Zm4.42-3.18h0V35H73l0,0v.59l0,0ZM63.45,24.14l0,0v.59s0,0,0,0h.6s0,0,0,0c0-.19,0-.38,0-.57v0ZM73,45.73v-.6s0,0,0,0h-.62v.59l0,0Z"/><path d="M66,29.86h-.63V28.59h.6s0,0,0,0Z"/><path d="M64.7,28h-.63V26.68h.63Z"/><path d="M67.88,47h.63v.6l0,0H67.9l0,0Z"/><path d="M78,31.76h.62l0,0v.61H78Z"/><path d="M65.34,28.59H64.7V28h.62s0,0,0,0Z"/><path d="M82.49,34.94v-.63h.62v.6l0,0Z"/><path d="M47.71,26.89l.44-.44h0l.42.42c.06,0,.09-.06.12-.1l.12-.11.11-.11s.06-.08.12-.1l1.77,1.77c.07,0,.11-.08.16-.13l.16-.16.13-.13h0c.29.3.58.59.88.88l-.42.42,0,0v0l.36.36s0,.06.09,0l.44-.43.41.42h0s0,0,0,0l.36-.37a.1.1,0,0,0,.06-.09l-.44-.43.44-.43s.06,0,.09.06l.36.36s0,0,0,0l.43-.42a1,1,0,0,0-.14-.15l-.16-.16L54,27.79l.89-.89c0-.06-.07-.09-.1-.12l-.11-.12-.11-.11s-.09-.06-.1-.12l.87-.88h0l0,0,.39.39a.93.93,0,0,0,.15-.13l.16-.16.13-.14h0l.86.86v0s0,0,0,0c-.29.28-.57.56-.85.85,0,0,0,0,0,0l.88.88h0l0,0,.4-.41,1.78,1.78s.06,0,.09,0l.36-.36h0l0,0,.85.85a12.15,12.15,0,0,0,.9-.89l-.43-.43a3.22,3.22,0,0,1,.45-.46l.42.43h0L63,27.8a.36.36,0,0,0-.12-.15l-.16-.16-.14-.15a.81.81,0,0,1,.12-.14,1.85,1.85,0,0,0,.14-.14l.13-.13.13-.13.14-.14.13-.13.13-.13.13-.13.14-.14.13-.13v0a0,0,0,0,0,0,0l-.41-.4v0l.42-.42v0h0c-.58-.59-1.16-1.17-1.75-1.75,0,0,0-.06.06-.09l.36-.36v0l-.42-.43c-.07,0-.1.09-.15.13l-.16.16-.15.15-.43-.43c-.07,0-.09.06-.13.1a.57.57,0,0,0-.11.11l-.12.11-.11.11-.43-.43h0l0,0-.83.84c-.07,0-.11-.08-.16-.13L59.09,23,59,22.86h0s0,0,0,0l-2.2,2.2a3.13,3.13,0,0,1-.45-.45l4.92-4.91h0l.4.4v0l-.42.42s0,0,0,0,.27.28.42.42c.06,0,.1-.08.15-.12l.16-.16.13-.14h0l.41.41v0s0,0,0,0l-.4.4s0,0,0,0l2.67,2.67h0l.41-.4s.06,0,.08.06l.37.36h0l.85-.86a.93.93,0,0,1,.15.13c0,.06.11.11.16.16s.09.1.15.15l.89-.89a1,1,0,0,1,.15.14c.05.05.11.1.16.16l.14.14.44-.44v0l0,0-.37-.37v0a0,0,0,0,1,0,0l2.66-2.66h0l.39.4h0l1.3-1.3v0l-.42-.42s0,0,0,0,0,0,0,0l.4-.4c.05,0,.07,0,.09.06l.37.36c.2-.17,1.11-1.07,2.24-2.22a.32.32,0,0,0-.13-.15,1.21,1.21,0,0,0-.16-.16l-.13-.14v0l.87-.87h0l0,0c.14.13.27.27.4.4h0l.42-.41h0l0,0L79.14,17s0,.06-.06.09l-.36.36s0,0,0,0l.41.42h0s0,0,0,0L80,17h0l.88.87c0,.06-.07.08-.1.12l-.11.12a.57.57,0,0,0-.11.11s-.09.06-.1.12l1.32,1.32s0,0,0,0l0,0-.39.39a.93.93,0,0,0,.13.15c0,.05.11.1.16.16l.14.13s0,0,0,0l-.86.86h0c-.13-.14-.26-.27-.4-.4s0,0,0,0L55.82,45.74s0,0,0,0h0l-.4-.4h0l-.42.42v0h0l.87.87-.43.43s-.07,0-.09,0l-.36-.37h0l0,0L53.57,48a2.32,2.32,0,0,1-.45-.43c0-.06.08-.09.12-.13l.12-.13.13-.13.12-.11.12-.13.13-.13.13-.13a3.56,3.56,0,0,0-.44-.45l-.43.43c-.07,0-.1-.08-.14-.12l-.13-.13-.15-.14-.12-.13L52.45,46l-.13-.13-.14-.14-.13-.13-.13-.13-.13-.12-.14-.15-.13-.13-.13-.12-.13-.13-.14-.15L51,44.53l-.13-.13-.43.44h0l0,0-.4-.4.43-.43v0l-.4-.41h0l-.42.43v0l.43.43-.43.44a.1.1,0,0,1-.08,0L48.67,44a.1.1,0,0,1,0,0v0l1.31-1.32s0-.06,0-.09l-.36-.36v0l0,0,.39-.39c0-.07-.09-.1-.13-.15s-.11-.11-.16-.16l-.14-.14a.47.47,0,0,1,.11-.13,1.14,1.14,0,0,1,.11-.11l.1-.09.1-.11s0,0,0,0v0l-.85-.85v0l.41-.42s0,0,0,0,0,0,0,0l-.83-.83,0,0v0l.42-.42v0l0,0-.4-.4c-.05,0-.06,0-.09.06l-.72.72-.09.09h0l-.88-.88.43-.43v0l-.41-.4v0h0l-.43.43a0,0,0,0,0,0,0l.43.43-.45.44-.88-.88h0l0,0-.4.4h0l-1.32-1.32c-.07,0-.11.08-.16.13l-.16.16-.13.13h0l-.88-.88.4-.4,0,0h0l.36.36s0,.06.09.05l.43-.43.43.43h0l.4-.41v0s0,0,0,0L44.13,35h0l-.43.43c-.29-.29-.58-.59-.88-.88h0l-.14.13a1.21,1.21,0,0,1-.16.16c-.05.05-.08.11-.15.13l-.83-.83,0,0h0l-.4.4,0,0h0l-.87-.87h0l-.88.88-.88-.88h0l-.43.44.89.89-.43.43s-.07,0-.09,0l-.72-.72-.09-.09h0a0,0,0,0,0,0,0L37,35h0a0,0,0,0,1,0,0l-.85-.85h0l-.42.42h0v0l-3.1-3.09v0l.42-.42s0,0,0,0a0,0,0,0,0,0,0l-.4-.4c0-.05,0-.07.06-.09l1.15-1.16.1-.1s0,0,0,0L32,27.35c-.06,0-.1.08-.15.12a1.21,1.21,0,0,1-.16.16l-.13.14h0l-.41-.41v0h0l.4-.41s0,0,0,0l-.43-.43h0l0,0-.4.4s-.06,0-.09-.06l-.36-.36s0,0,0,0h0l-.4.4h0l-1.3-1.3h0a1.85,1.85,0,0,0-.14.14l-.14.14L28,26h0c-.58-.59-1.16-1.17-1.75-1.75h0l-.42.41h0l0,0-1.29-1.28s-.06,0-.09.06l-.36.36h-.05l-1.3-1.3c-.06,0-.1.08-.15.12l-.16.16-.14.14h0c-.14-.14-.28-.27-.41-.41v0a0,0,0,0,0,0,0c.14-.13.27-.26.4-.4s0,0,0,0l-.43-.43h0l0,0-.38.39h0l-.41-.41h-.05l-.4.4a2.24,2.24,0,0,1-.45-.44l.42-.42v0h0c-.13-.14-.26-.27-.4-.4s0,0,0,0l-.42.42h0l0-.05L19,20.61c-.07,0-.1.08-.15.13a1.21,1.21,0,0,0-.16.16l-.14.14c-.2-.17-1.19-1.16-1.79-1.78v0l4.9-4.9h0s0,0,0,0l0,0,.8.8h0a2.61,2.61,0,0,0,.45-.44l-.42-.42s0,0,0,0h0l.41-.41.05,0,1.27,1.27,0,0v0h0l-.84.85s0,0,0,0h0l.85.86h0c.14-.13.28-.27.41-.41s-.06-.09-.09-.12l-.12-.12-.11-.11s-.08-.06-.1-.12l.42-.43h0l0,0L26.15,17c-.14.15-.28.29-.43.43v0l.41.4s0,0,0,0h0l.43-.43a0,0,0,0,0,0,0L26.15,17l.44-.43h0L28,17.9c-.14.15-.29.29-.43.43v0c.13.13.26.27.4.4h0l.42-.42v0c-.14-.14-.29-.28-.43-.43.14-.14.29-.28.43-.43h0l1.34,1.33-.43.43s0,0,0,0l.41.41h0l.42-.42v0l-.43-.43.45-.45L32,20.15c-.14.14-.28.29-.43.43v0L32,21h0l.43-.42s0,0,0,0-.28-.29-.43-.43l.43-.43h0l1.33,1.34c-.14.14-.29.28-.43.43v0l.4.41h0l.42-.43v0c-.14-.15-.29-.29-.43-.43.14-.15.29-.29.43-.43h0L35.59,22c-.15.14-.29.28-.43.43s0,0,0,0l.41.4s0,0,0,0h0L36,22.4v0L35.59,22l.43-.44h0l1.33,1.33-.43.43v0l.4.4s0,0,0,0h0l.43-.43a0,0,0,0,0,0,0l-.43-.43.44-.43s0,0,.07,0c.26.26.52.53.79.79l0,0v0s0,0,0,0l-.4.4a2.53,2.53,0,0,0,.44.45l1.32-1.32c.07,0,.09.06.13.09l.11.12a1.14,1.14,0,0,1,.11.11s.07.08.13.1l.42-.42h0l0,0,1.73,1.73h0l.41-.4h0l.86.86s0,0,0,0v0l-.4.4v0l.42.42h0l.8-.81h0l0,0h0l.41.42h0l0,0,.38-.38h0a0,0,0,0,1,0,0l.84.83,0,0v0h0l-.39.39a0,0,0,0,1,0,0,3.15,3.15,0,0,0,.45.45l.42-.43h0l0,0,.41.42-.43.43v0c.28.3.76.78.89.88l.43-.43a0,0,0,0,0,0,0ZM58.5,35h0L57.16,36.3v0l.36.36s0,.07.09.06l.39-.38,0,0s0,0,0,0l.42.42h0l.39-.38,0,0v0l-.42-.42c0-.06.06-.09.1-.12l.11-.12.11-.11s.09-.06.1-.12ZM79.17,20.61s0,0,0,0l-1.3,1.29s0,0,0,0,0,0,0,0l.43.42h0c.42-.43.85-.86,1.28-1.28l0,0v0Zm-24.27,18,.4.4,0,0h0l0,0,1.27-1.26,0-.06-.41-.4,0,0h0Zm-2.24-3.15L54,34.09v0l-.36-.36s-.05-.07-.09-.06L52.22,35v0Zm-.46-1.36c.17-.14.76-.74.89-.89l-.43-.43c-.17.14-.76.74-.89.89ZM34.7,32.72a12.57,12.57,0,0,0,.9.89l.42-.43a12.45,12.45,0,0,0-.89-.89Zm22-4-.87-.88h0l-.4.41s0,0,0,0,0,0,0,0l.86.86h0ZM53.57,42.6a12.45,12.45,0,0,0,.89.89l.43-.43a12.57,12.57,0,0,0-.9-.89ZM69.72,23.74c-.3.31-.59.59-.88.88v0l.36.36s0,.06.09.05l.87-.86v0ZM57.15,31.82,58,31l0,0v0c-.12-.11-.24-.24-.36-.36s0-.06-.09-.05l-.83.83,0,0a0,0,0,0,0,0,0Zm2.25,8.54.39.4,0,0h0c.11-.11.24-.23.36-.36s.06,0,.05-.09L59.89,40l0,0h0Zm-.9.9.4.4,0,0s0,0,0,0l.36-.36s.06,0,.06-.09l-.4-.4h0ZM73.32,23.74l.4.4,0,0h0l.36-.37s.07,0,.06-.08l-.39-.39,0,0h0ZM59.39,34.08l-.43.43v0l.41.41h0l.41-.42a0,0,0,0,0,0,0Zm-8.53,5.83-.4-.4,0,0h0c-.11.12-.24.24-.36.36s-.06,0-.05.09l.4.4h0Zm.88-5.37v0c-.14-.15-.28-.29-.43-.43h0l-.38.38s0,0,0,0,0,0,0,0l.43.43h0ZM36.5,33.61v0l.39.38,0,0h0l.42-.43v0l-.4-.4s0,0,0,0h0Zm22,8.55-.43-.43h0l-.41.41v0l.42.42h0Z"/><path d="M42.32,35.87l-.44.45-.9-.9.43-.43h0Z"/><path d="M40.08,35.42l-.45.45-.9-.9.45-.45Z"/><path d="M55.8,46.65l.43-.43h0l.42.42v0s0,0,0,0l-.41.4h0Z"/><path d="M52.21,28.68l.42-.43h0l.42.43-.44.45Z"/><path d="M41,35.42l-.43.43h0l-.43-.43.43-.43h0Z"/><path d="M57.6,27.78l-.43-.43s0,0,0,0l.43-.43h0l.41.41v0Z"/><path d="M27.31,46.68c0-.2,0-.41,0-.61l0,0h.59s0-.1,0-.15v-.32a.31.31,0,0,1,0-.16h2.5a.44.44,0,0,0,0-.2v-.42l0,0h1.24v.61l0,0h.51s.08,0,.11,0v-.61H33l0,0v-.51s0-.07,0-.1H32.4v-.61s.07,0,.1,0H33l0,0v-.6a.66.66,0,0,0-.2,0H32.4V41.62c-.06,0-.11,0-.16,0h-.32c-.05,0-.1,0-.15,0V40.35l0,0h.59a.68.68,0,0,0,0-.2v-.42l0,0h1.22l0,0V41h1.24s0,0,0,0v-.61h2.52s0-.07,0-.11v-.51l0,0h1.23a10.32,10.32,0,0,0,0-1.27h-.61a3.3,3.3,0,0,1,0-.63h.6s0,0,0,0V36.53a.44.44,0,0,0-.2,0,1.62,1.62,0,0,0-.22,0h-.2a.65.65,0,0,1,0-.19v-1.7l0,0h-.58l0,0V34l0,0H35s0-.06,0-.1v-.51l0,0h-.6a.66.66,0,0,0,0,.2V34h-.61c0,.06,0,.11,0,.16a.86.86,0,0,0,0,.16v.32h-.62l0,0v1.23a.31.31,0,0,1-.19,0h-.42l0,0s0,0,0,0V39a3.26,3.26,0,0,1-.63,0V32.09a0,0,0,0,1,0,0h.59l0,0v.59l0,0H33a.41.41,0,0,0,0-.19v-.42l0,0h.58s0,0,0,0v.59a0,0,0,0,1,0,0h3.78l0,0v-.59s.07,0,.1,0h.51l0,0s0,0,0,0V30.81a.69.69,0,0,1,.2,0h.44V29.54a.67.67,0,0,1,.2,0h.43v-.62l0,0h-.61V25.1l0,0h.58s0,0,0,0V23.18h-.6s0,0,0,0v-.59s.07,0,.1,0h.52c0-.26,0-1.55,0-3.16a.41.41,0,0,0-.19,0h-.42l0,0V18.12s0,0,0,0h.59l0,0v-.58l0,0h3.13s0,.07,0,.1v.51l0,0h.58a0,0,0,0,0,0,0V16.85a0,0,0,0,1,0,0h1.24c0,.05,0,.1,0,.15v.16a.86.86,0,0,0,0,.16.3.3,0,0,0,0,.16h1.87l0,0v.6a.44.44,0,0,0,.2,0,1.62,1.62,0,0,0,.22,0H47l0,0v1.22l0,0h-.62v34.9l0,0h-.59l0,0v.6l0,0H47v.61s-.07,0-.11,0h-.51l0,0v1.86a2.88,2.88,0,0,1-.62,0,.37.37,0,0,1,0-.18,1.08,1.08,0,0,1,0-.18v-.88a2.62,2.62,0,0,0-.64,0v.6c-.06,0-.12,0-.18,0h-3v.61l0,0h-.61v-.61l0,0h-.61v.6l0,0h.61v.61s0,0-.08,0H40l0,0V56.23s-.07,0-.1,0h-.51l0,0v-.59c-.06,0-.13,0-.19,0h-.42a.31.31,0,0,1,0-.16V55s0,0,0,0H37.51l0,0v-.59s0,0,0,0H36.23l0,0v-.59l0,0s0,0,0,0H35.6s0,.06,0,.1v1.15l0,0H34.3v-.61l0,0h-.57s0,0,0,0h0v.6l0,0h.61v.63H33.06l0,0v.59l0,0H31.14a.46.46,0,0,0,0,.2,1.77,1.77,0,0,0,0,.23v.19l0,0H29.86v-.56s0,0,0-.05l0,0h.51s.07,0,.1,0v-.61h.61l0,0V55s0,0,0,0,0,0,0,0h-.6l0,0v.61H29.25l0,0V56a.46.46,0,0,1,0,.2H28a0,0,0,0,0,0,0v.58l0,0H26.7l0,0v1.24H25.43l0,0v.62h1.27v.61s-.07,0-.1,0H25.43l0,0V60H24.17l0,0v.59l0,0h-4.4l0,0V60l0,0h-.59s0-.07,0-.1V58.13l0,0h-2.5a.45.45,0,0,0,0,.2,1.77,1.77,0,0,0,0,.23v.19l0,0H15.9l0,0v-.59l0,0h-.6s0,0,0,0,0,0,0,0v.57s-.07,0-.11,0h-.51l0,0v.59l0,0H12.73l0,0V60l0,0H10.19l0,0v.59l0,0H8.28s0,.07,0,.11v.51l0,0H6.37c0,.06,0,.13,0,.2v.42H5.74l0,0v-.58l0,0H5.1l0,0v.59s0,0,0,0h-.6l0,0a0,0,0,0,0,0,0v.57a2.58,2.58,0,0,1-.64,0V62l0,0H3.2s0,0,0,0v.59l0,0H2.56a.44.44,0,0,0,0,.2v.42c-.26,0-1.65,0-2.52,0H0v-7l0,0H1.25a2.57,2.57,0,0,0,0-.63H.66s0,0,0,0a0,0,0,0,1,0,0V55h1.9v1.22s0,0,0,0H3.79l0,0v-.59c-.05,0-.1,0-.15,0H3.34s-.11,0-.16,0V55s0,0,0,0H5.08v.61l0,0h.6a0,0,0,0,0,0,0V55H5.08v-.61l0,0H7v.61s0,0,0,0h.61v-.6l0,0H7v-.61l0,0H8.89v.61l0,0h.6v-.62H8.89V53h2.54v.61l0,0h.61v-.6l0,0h-.61v-.61l0,0h1.88V53l0,0H14s0,0,0,0v-.6h-.63v-.61l0,0h1.89v.61s0,0,0,0h.61v-.6l0,0h-.6v-.61l0,0h1.88v.6s0,0,0,0h.6v-.62h-.63v-.62s.05,0,.08,0H18.4s0,0,0,0v.59a3.24,3.24,0,0,0,.63,0V49.24c.06,0,.11,0,.16,0h.32a.31.31,0,0,0,.16,0v-.59l0,0h2.51V48l0,0h1.22l0,0v.59l0,0h.6l0,0V47.34s0,0,0,0h.59l0,0s0,0,0,0V46.7a0,0,0,0,0,0,0H26v0s0,0,0,0v.57a3.29,3.29,0,0,0,.63,0v-.6l0,0h.61c0,.2,0,.41,0,.61v0a12.13,12.13,0,0,0,1.25,0v-.61H27.31Zm13.36-1.9v0c0,.62,0,1.24,0,1.85,0,0,0,0,0,0h.51s.07,0,.1,0v-.59l0,0h.59l0,0c0-.18,0-.36,0-.54,0,0,0,0,0,0l0,0h-.59a.31.31,0,0,1,0-.16v-.32s0-.1,0-.15ZM45.12,20l0,0v1.86s0,0,0,0h.6s0,0,0,0V20s0,0,0,0ZM40.66,49.86h.62a.06.06,0,0,0,0,0V48a.14.14,0,0,0,0-.06h-.59l0,0Zm-3.82-.64V47.34s0,0,0,0h-.51s-.07,0-.1,0V49.2l0,0Zm-1.28-.64c0-.22,0-1.06,0-1.26H35c0,.22,0,1.06,0,1.26ZM22.24,60c.21,0,1.06,0,1.26,0v-.6c-.22,0-1.06,0-1.26,0ZM34.93,41.6H33.69l0,0v.6h1.24l0,0Zm7.63,12c.23,0,1.07,0,1.27,0v-.6c-.23,0-1.07,0-1.27,0ZM40.65,28.9c0,.42,0,.83,0,1.24l0,0h.51s.07,0,.1,0V28.92s0,0,0,0ZM37.48,43.5V42.26l0,0H37s-.08,0-.11,0v1.22s0,0,0,0ZM45.1,48h.61l0,0v-.51s0-.08,0-.11H45.1Zm0,1.27h.61l0,0v-.5s0-.08,0-.11h-.59l0,0ZM43.2,26.35h.61l0,0v-.51s0-.08,0-.1h-.59l0,0ZM40.65,43.51c0,.21,0,.41,0,.6l0,0h.61v-.59l0,0Zm-1.9,10.16h-.61l0,0v.51s0,.07,0,.1h.58l0,0Zm-3.18-4.43h-.63v.59s0,0,0,0h.59s0,0,0,0ZM24.14,59.37h.61s0,0,0,0v-.59s0,0,0,0h-.59l0,0Zm21.59-9.51h-.6l0,0v.57s0,0,0,0v0h.59l0,0Z"/><path d="M29.86,56.84v.64H28.59v-.61l0,0Z"/><path d="M28,58.11v.64H26.68v-.64Z"/><path d="M47,54.94v-.63h.62v.6l0,0Z"/><path d="M31.76,44.77v-.6s0,0,0,0h.63v.63Z"/><path d="M28.59,57.48c0,.2,0,.4,0,.6,0,0,0,0,0,0H28v-.62h.63Z"/><path d="M34.94,40.33h-.61l0,0v-.6h.61l0,0Z"/></g></g></svg>