<svg xmlns="http://www.w3.org/2000/svg" viewBox="0 0 81.86 148.65"><title>Recurso 61ART</title><g id="Capa_2" data-name="Capa 2"><g id="Capa_1-2" data-name="Capa 1"><path d="M26.5,83.42v-.11l-.07-.09c.05-.06.12,0,.19,0l.08.07h.16a.09.09,0,0,0,0-.05.17.17,0,0,0,0-.12c-.07-.14-.14-.28-.23-.44v-.52l-.07-.08v-.16l.08-.1-.17-.32s0,0,0,0a.61.61,0,0,1,.07-.1s0,0,0-.07-.13-.29-.24-.42l.08-.15v-.23s-.11,0-.2.12c0-.09,0-.18,0-.26l.08-.09a.48.48,0,0,1,0-.12c0-.07.11-.11.08-.2a2.44,2.44,0,0,0-.1-.24.17.17,0,0,0-.06-.06v-.38l-.08-.09v-.23L26,78.83v-.19s0,0,0,0-.09-.15-.14-.23a.35.35,0,0,1,.05-.31s0-.15,0-.22l-.16-.28v-.21l-.08-.09v-.15L25.64,77v-.52l-.15-.28V76l-.08-.09v-.32l.07-.07-.22-.42v-.26l-.16-.29v-.13l.15-.16c0-.12-.09-.15-.16-.24V73.6c-.13-.07,0-.26-.15-.33V73l-.08-.09v-.38l-.08-.09v-.16a.92.92,0,0,1-.24-.34l.15-.28-.07-.08a.37.37,0,0,0-.07-.25.54.54,0,0,1,0-.22L24.46,71v-.55l-.07-.07V70l-.08-.09v-.16l-.16-.16c0-.08,0-.17-.07-.22V68.8L24,68.73V68.2c0-.07-.1-.1-.08-.18s-.06-.11-.07-.16a.28.28,0,0,0-.09-.16v-.64l-.21,0s0,0,0,0,0-.21,0-.31l.07-.07s-.06,0-.06-.07-.08-.21-.09-.32a.22.22,0,0,1,0-.08l-.08-.09v-.47l-.05,0s0,0,0,0v-.39L23.22,65V64.9l.09-.13-.09-.16v-.28l-.07-.08V64c-.1-.06-.07-.19-.17-.25v-.6l-.15-.29v-.52l-.07-.07v-.46l-.09-.1v-.3l-.08-.09V61L22.5,61v-.46l-.06-.07v-.69l-.08-.1,0-.57c-.11-.05,0-.17-.08-.24s0,0-.06,0v-.16l-.08-.08v-.24L22,58.22c0-.2,0-.42,0-.59S22,57.5,22,57.46s-.06-.14-.08-.21a1.64,1.64,0,0,1,0-.23s0,0-.06-.06v-.3l-.08-.09v-.15l-.08-.09V55.7c-.05,0-.06-.1-.09-.16s-.08-.09-.14-.14-.12-.24-.07-.39l-.09-.09v-.31l-.08-.09v-.38l-.05-.06c0-.09,0-.2-.1-.28s0-.1,0-.15-.1-.31-.1-.47,0,0-.06-.06v-.38l-.08-.09v-.31l-.08-.09v-.39l-.07-.06v-.22l-.08-.12v-.3l-.09-.08v-.32l-.07-.07v-.31l-.08-.09V50l-.08-.08v-.31c-.13-.06,0-.2-.11-.27s0-.2,0-.3a2.8,2.8,0,0,1,0-.29L20,48.65v-.38l-.08-.09v-.62l-.08-.09v-.39L19.77,47v-.39l-.08-.08v-.39l-.09-.09v-.31l-.07-.08v-.46l-.08-.09v-.54l-.08-.09v-.62l-.07-.07c0-.15,0-.32,0-.49l-.07-.06v-.61l-.09-.12v-.3l-.07-.07v-.3c0-.07-.11-.09-.08-.17l.08-.09V41.2L19,41.13v-.25l-.06-.06V40l-.09-.11v-.31l-.07-.07v-.62l-.08-.09v-.54l-.09-.09v-.39l0-.06s0,0,0,0v-.38c-.1-.05-.08-.13-.08-.21l.09-.14-.09-.13v-.37l-.08-.09V32.42l0-.05,0,0V31.4l.06-.06s0,0,0,0v-.7l.07-.06v-.18l-.06-.06v-.56l.06-.07v-.39l.08-.09v-.7l-.07-.07c0-.1,0-.21,0-.32l.05-.06s0,0,0,0V26.8s0,0,0,0l.06-.06,0-.18.07-.07V26l.08-.08v-.3l.08-.09v-.63l0,0s0,0,0,0c0-.18,0-.37,0-.54l.07-.08V23.8l.08-.08v-.3l.08-.1V23.1l.08-.09v-.54l.08-.09v-.15l.08-.09v-.39s0,0,0-.05c0-.17.17-.3.09-.47l.1-.11v-.31l.07-.07v-.48l.15-.13v-.32s.06,0,.07-.07,0-.21.09-.28.05-.16.08-.24a.67.67,0,0,0,0-.2l.08-.08c0-.06,0-.13,0-.19a.28.28,0,0,0-.13.15c-.07.16-.15.3-.23.45a2.51,2.51,0,0,1-.24.46c0,.12-.12.15-.16.24s-.08.18-.12.27l-.19.38v.17a.33.33,0,0,0-.08.24c-.08.07,0,.2-.1.27s0,.18-.13.22v.29l-.16.28a.75.75,0,0,0,0,.15c0,.08-.06.1-.07.16s0,.12,0,.15a.26.26,0,0,0-.07.17c0,.05,0,.09-.07.17v.27l-.08.09v.23l-.08.08v.63l-.07.07V25a.31.31,0,0,0-.09.23l.08.1V26l-.08.08v.62l0,0,.15-.07c.13.22.13.22.13.37l-.06.06v.77l-.08.09.08.13-.09.12v.7l-.07.07c0,.15,0,.32,0,.49l-.07.07v.31l-.09.08v.32a.55.55,0,0,0-.21.12h-.22c-.08.09,0,.2-.05.28l-.24-.07-.14.24c.06.16-.1.29-.09.46s-.08.18-.14.25-.07.16-.08.25-.11.11-.08.2-.1.12-.08.2-.06.14-.07.21,0,.14-.07.2,0,.1,0,.16l-.07.08V33l-.08.09v.49h-.13s0,0,0-.05V32l.08-.08v-.47l.08-.08v-.71l.07-.07v-.31l.08-.09v-.47l.05,0,0,0v-.62l.08-.07v-.32l.08-.08v-.31l.08-.09v-.47l.07-.07v-.39l.09-.08v-.32l.06-.06v-.4l.08-.08V26.1l.09-.12V25.6l.08-.08V25.2l.08-.07V24.9l.08-.09V24.5l.07-.07v-.17l.07-.07v-.32a.22.22,0,0,0,.09-.17c0-.07.06-.14.07-.21a.15.15,0,0,1,.08-.16V23.1L18,23v-.23l.07-.07c0-.14.11-.26.09-.41s.06-.19.07-.29l.16-.27v-.21l.08-.09v-.15l.06-.07s0-.09,0-.14.06-.08.07-.12,0-.09,0-.12,0-.08.07-.13l.08-.17v-.18c.06-.05.06-.14.11-.19A.31.31,0,0,0,19,20s.07-.09.07-.12.11-.14.09-.25a.34.34,0,0,1,.08-.2.41.41,0,0,0,.08-.24s.06-.08.07-.13.11-.11.08-.2.11-.14.08-.24,0-.14.08-.2.1-.26.23-.33v-.23a.7.7,0,0,0,.15-.26,1.4,1.4,0,0,1,.21-.5c0-.07,0-.13,0-.19l.15-.17a.37.37,0,0,1,0-.15,1.59,1.59,0,0,1,.13-.22c0-.06,0-.15,0-.22a.52.52,0,0,0,.12-.22l.11-.23a.68.68,0,0,0,.12-.22,1,1,0,0,1,.08-.24c.17-.35.34-.7.52-1,0-.06,0-.11.08-.16s.09-.08.12-.15a3.68,3.68,0,0,1,.23-.49,1.69,1.69,0,0,1,.17-.29,2.32,2.32,0,0,0,.22-.41c.07-.12.1-.27.23-.33v-.18c.14-.06.17-.21.23-.32a1.56,1.56,0,0,0,.17-.37c.12-.07.14-.23.24-.33s.05-.08.08-.12.1-.26.22-.34.08-.06.08-.08.13-.16.16-.25.06-.14.11-.27l.27-.24c0-.15.16-.2.21-.31a1.65,1.65,0,0,1,.43-.48c.09-.1.14-.21.22-.31s.18-.18.27-.28l.28-.28c0-.21.25-.18.33-.32V7.8L27,6.66h.09l0-.08.45-.45,0-.15a.33.33,0,0,0,.22-.14V5.78l.37-.37h.06a2.57,2.57,0,0,0,.33-.33c.12-.16.32-.21.45-.36a.21.21,0,0,0,.16-.08c.08-.14.25-.16.36-.28s.1,0,.15-.08.08-.11.15-.12S30,4,30.16,4s.2-.09.28-.19.14-.08.22-.12a1.12,1.12,0,0,0,.28-.16,3.42,3.42,0,0,1,.42-.23c.11-.07.26-.1.34-.21s.14,0,.22-.06.43-.21.64-.33a.9.9,0,0,1,.19,0c.06,0,.09-.13.2-.15s.13-.06.21-.08a1.92,1.92,0,0,0,.29-.14l.36-.17.36-.17.06-.06h.15l.09-.08h.15l.09-.08h.46l.08-.07c.06,0,.15,0,.2,0a1,1,0,0,1,.28-.09A2.1,2.1,0,0,0,36,1.41h.14l.08-.08h.15l.09-.08h.21a.35.35,0,0,1,.12-.07c.05,0,.13,0,.17-.05s.1,0,.14,0A.68.68,0,0,0,37.24,1h.43l.09-.08h1.8l0,0,0,0h.55l.07-.07h.56l.07.07h.39l.08.08h.35l.61.3h.31c0-.08.13-.05.2-.07a.44.44,0,0,0,.19-.1c.07-.06.18,0,.22-.13s.13-.07.21-.08a1,1,0,0,0,.2-.15h0a.77.77,0,0,0,.15,0L44,.55h.14l.09-.08h.23l.08-.08h.14l.1-.07h.3l.09-.09h.31l.07-.07h.54l.09-.08h1L47.32,0h1.81l0,.06,0,0h.86l.07.07h.53l.11.09H51l.07.07h.31l.09.08h.23l.08.08H52l0,.06c.07,0,.19,0,.25.1a1.62,1.62,0,0,1,.22,0c.06,0,.09.1.17.07s.16.1.28.09.17.11.28.07l0,.05c.08,0,.16.11.23.1s.16.11.25.08.16.12.28.09.14.11.24.07a1.26,1.26,0,0,0,.26.13,2.39,2.39,0,0,1,.44.18s.14,0,.21.07.1.05.16.08.14,0,.21.06.14,0,.19.11c.2,0,.32.21.51.28s.2.1.27.2.19.1.29.15l.29.16c.1.06.24.08.31.19s.21.09.27.19.18.08.25.16a.42.42,0,0,0,.2.17c.09,0,.15.14.24.19s.16.06.21.14.17.06.22.14a1.8,1.8,0,0,0,.19.2l1,1h.08l.69.69a.35.35,0,0,1,.15.22.18.18,0,0,0,.14.11c.09,0,.13.07.16.15s0,0,0,.06.22.18.27.29a1.06,1.06,0,0,0,.2.26c.07.08.07.19.17.25a.54.54,0,0,1,.15.21c0,.09.13.16.21.23s.07.13.11.19a.8.8,0,0,1,.08.16.7.7,0,0,0,.17.25.27.27,0,0,1,.12.18c0,.05.11.09.12.14a.52.52,0,0,0,.18.25l.63.63L64,9.6a1.6,1.6,0,0,1,.28.35c.07.12.21.2.3.31s.1.21.19.27.08.19.17.25,0,.05,0,.08a2.08,2.08,0,0,1,.48.77c.07.12.2.18.25.34s.21.14.21.3a.94.94,0,0,1,.23.26.62.62,0,0,0,.19.23,1.73,1.73,0,0,1,.19.28c.06.07.17.11.18.24s0,0,0,.05a1.22,1.22,0,0,1,.25.26.76.76,0,0,0,.2.27c.08.06.06.19.16.25a.37.37,0,0,1,.15.21,1.08,1.08,0,0,0,.21.22c0,.19.25.22.25.41.18.1.18.32.3.46s0,.07,0,.1l.12.13v.15c0,.08.17.11.15.23s.08.15.13.23a1,1,0,0,0,.18.25.34.34,0,0,0,0,.14c0,.06.08.12.09.19s0,.19.08.24,0,.15.11.2,0,.14.06.21a.59.59,0,0,1,.12.22c0,.07,0,.14.07.21s0,.15,0,.24l.07.08v.15l.08.09v.31l.07.07V19l.07.07v.31l.08.08v.32l.08.07v.29l.16.28v.22l.07.07V21l.07.07c.06.1,0,.24.08.32l0,.32.15.26v.21l.08.09v.15l.07.07v.17l.07.07v.35c0,.09.1.13.09.23s.06.1.07.16,0,.16.08.2V24l.08.08v.24l.06,0c0,.09,0,.21.1.27-.05.13.09.2.08.32s.12.17.07.29l.08.08v.23l.08.08c0,.09,0,.21,0,.32l.07.07v.32l.09.08v.23l.08.09v.31l.07.07v.23l.08.09v.39l.08.07c0,.1,0,.21,0,.33l.07.07v.31l.09.08v.32l.08.08v.39l.07.07V30l.08.09v.47l0,0s0,0,0,0v.55l.08.07v.31l.08.09v.62l.08.09v.31l.07.07v.62l.08.09v.78l.06.06s0,0,0,0v.46l.08.08v.78l.08.08v.79l.08.08v.78l.07.08v.62l.08.09v1.4l.06.06a.19.19,0,0,1,0,.07v.75l-.1,0a.25.25,0,0,1-.14-.27l-.18.18h-.25c-.07-.06,0-.13-.06-.21a.91.91,0,0,1-.19-.2.92.92,0,0,0-.17-.25c0-.13-.07-.23-.12-.34s-.09-.15-.12-.22a.9.9,0,0,0-.06-.22.77.77,0,0,1,0-.31l-.07-.09v-.14l-.08-.09v-.15l.07-.09v-.15l.12-.12c.08,0,.11,0,.15.07l.2-.1v-.24l.08-.08a.36.36,0,0,1,.08-.28c.06-.11.06-.11.23-.18v-.31l.08-.1v-.22l.08-.09V36L72.76,36v-.12c0-.08-.12-.1-.08-.2l-.17-.17.09-.15v-.78l-.07-.07v-.31l-.08-.09v-.59l-.11-.23-.11.11a1.87,1.87,0,0,1-.25.59v.21l-.09,0c-.14,0-.12-.2-.23-.28v-.39l-.07-.08V32.9l-.08-.09v-.62l-.08-.09v-.23l-.06-.06s0-.12,0-.18l.14-.15v-.2l.11-.22.11,0s0-.09,0-.13,0,0,0-.06v-.23l.06-.06a.19.19,0,0,0,0-.07v-.27l-.07-.07.06-.08V28.88l-.06-.06v-.23l-.08-.09v-.16l-.08-.06c0-.1,0-.22,0-.33l-.07-.07v-.32l-.07-.07v-.21a.82.82,0,0,0-.14-.23c-.06-.07-.08-.16-.14-.22s0-.14,0-.22l-.11-.11H71l-.11-.22v-.2a.34.34,0,0,1-.08-.09s0-.07,0-.11h-.11c-.06.09,0,.18,0,.27s-.14,0-.2,0l-.11.11v.18l-.15.1-.08,0,0-.05c0-.08-.07-.16-.11-.23s-.08-.23-.23-.32l-.25.25c-.12,0-.15-.13-.16-.26l0,0a2.46,2.46,0,0,0,0,.26c-.09.06-.19,0-.26,0l-.08-.08h-.47L68.31,26l-.47.24h-.21c-.13-.06-.1-.23-.26-.3h-.2l-.12-.11,0-.18-.11-.11h-.31l-.06-.06c-.06,0-.12,0-.19,0l0,.09.35.35a.52.52,0,0,1,.31.32l.36.36v.71c.06,0,.09.12.18.13a.17.17,0,0,1,.14.16s0,.06.07.11V28l-.06.06v.28H68l.32.32h.32c0,.09.17.08.24.16l.58.59c0,.18.25.22.25.4l.22.1.31-.32a1,1,0,0,1,0-.11l.09-.1a.46.46,0,0,1,.26,0l.11.11v.16l-.07.08v.23l.12.13.23-.1c.08.13,0,.26.06.38l0,.06v.39a.19.19,0,0,1,.09.16s.08.06.07.15l-.07.09v.16l.07.07v1.33l.08.08V33l.08.1V34l-.08.08v.7l0,.06,0,0c0,.13,0,.26,0,.38s-.2,0-.3.07v.25l-.07.07V36l-.16.08s0,0,0,0v-.54s-.09-.07-.08-.14.09-.11.14-.18a.17.17,0,0,0,0-.1.12.12,0,0,0,0-.1s0-.09,0-.14a.15.15,0,0,0,0-.1c-.06-.06,0-.12,0-.19l-.07-.08V34l-.08-.08v-.39l-.06-.06,0,0v-.77a.33.33,0,0,1-.08-.25l-.14-.09s0,0,0,0v.49s.1.07.07.15l-.07.08v.15l.07.08v.4c-.09,0-.06.13-.08.21a.82.82,0,0,1-.1.17l.18.14v.26l-.11.11h-.23c-.08-.09-.24-.07-.29-.22l.09-.15c0-.09-.08-.11-.11-.17h-.23a1.88,1.88,0,0,0-.12-.18l-.13-.14H68.8l-.11-.11v-.08c.11,0,.2-.14.33-.12l.13.09.16-.09a.23.23,0,0,1,.18.22.37.37,0,0,0,.18,0l.11-.22V33.2L69.59,33h-.24c-.07-.06,0-.14,0-.22s.18,0,.26,0l.11-.22v-.21l-.38-.2V31.8l-.24-.18v-.45L69,31.08v-.23c0-.07-.12,0-.17,0s-.12-.19-.22-.27V30l-.08-.08v-.46l-.08-.09v-.15a.58.58,0,0,0-.31-.2A.21.21,0,0,1,68,28.9c0-.13-.13-.18-.21-.28h-.24l-.07.07c-.11,0-.19,0-.28-.07s-.13-.12-.21-.16h-.14l-.17.16-.09,0-.14-.14h-.23c-.09-.07,0-.21-.11-.27,0-.1-.12-.13-.09-.24l-.23-.21v-.3c-.09-.14-.13-.31-.29-.38s0,.13,0,.19v.15s-.07.11-.15.12-.1-.07-.15-.11l.14-.27V27l-.11-.11-.27.15s-.06,0-.07,0l-.27-.25.1-.2a1.3,1.3,0,0,0-.43-.38H64L64,26.11h-.39L63.47,26h-.08l-.29-.3c-.12,0-.19-.14-.33-.09l-.16-.32h-.08l-.12-.11c.06-.13-.09-.2-.07-.32s-.08-.15-.09-.23l-.07-.09a.71.71,0,0,1,.28-.41h.27L63,24h.52a.47.47,0,0,1,.2-.1l.16-.09v-.16c0-.07-.16,0-.21-.13s-.13-.06-.19-.11a1.07,1.07,0,0,0-.24-.12l-.11.09h-.39l-.06.06h-.49c-.09-.05-.09-.14-.14-.21a1.37,1.37,0,0,0-.17-.17h-.15l-.1-.09-.16.08h-.38a.5.5,0,0,1-.1-.11.35.35,0,0,1,0-.11h-.16a.69.69,0,0,1-.23-.3c0-.09-.23-.16-.41-.18L60,22.19a2.59,2.59,0,0,0-.42-.39c-.15-.09-.31-.14-.45-.24l-.1,0-.13-.12h-.55l-.07-.07h-.23c-.06-.1-.19-.07-.25-.16h-.23l-.07-.07h-.2c-.1-.07-.25-.08-.29-.19a.52.52,0,0,0-.33-.32s-.06-.06-.09-.09v-.15l.08-.09L56.47,20c-.07-.17-.07-.17-.38-.3-.08-.18-.08-.18-.24-.22a1.31,1.31,0,0,0-.2-.21,1,1,0,0,0-.24-.1l-.06-.05c-.05-.07-.14-.09-.21-.14a.93.93,0,0,1-.2-.19c-.1-.18-.13-.31-.25-.4h-.62L54,18.35a1.5,1.5,0,0,0-.3,0l-.27-.16h-.2c-.13-.07-.24-.18-.41-.16l-.16-.15h-.13c-.07,0-.1-.12-.19-.09s-.13-.06-.21-.07-.08-.06-.12-.08a1.26,1.26,0,0,1-.26-.13c-.08-.06-.22,0-.27-.1s-.15-.13-.25-.16a.94.94,0,0,1-.23-.1,1.37,1.37,0,0,1-.2-.22h-.23c-.08,0-.12-.11-.2-.17l-.23-.14h-.22l-.12-.13-.09,0h-.49l-.09-.07c-.11,0-.17.14-.31.06l-.12.16c0,.09.15.15.08.27s.14.16.15.25a.71.71,0,0,0,.09.28.44.44,0,0,1,.08.28l.11,0a.51.51,0,0,0,.17.23h.07l.73.73,0,.1.11,0,.35.35v.07s0,0,0,0h.1c.09.12.23.2.29.37s.13.13.19.2l.58.58c.09.08.16.2.26.24a.86.86,0,0,1,.26.2,2,2,0,0,0,.26.25c.12.07.25.13.3.26a.25.25,0,0,0,.08.12l.08.09v.13l.14.25.41.41v.07l.39.39V23a.06.06,0,0,0,0,0c.07,0,0,.14.11.19s0,.1,0,.13l.27.28.14.29.2.2a.52.52,0,0,0,0,.18s.07.08.05.14l.32.29v.2l.3.24c0,.17.13.26.1.38s.09.21.19.28A.58.58,0,0,1,56,26a.64.64,0,0,1,.13.26c0,.09.15.11.16.21s.1.11.08.2,0,.07.08.08.26.2.39.3v.09l.11.1h.17c.07-.08,0-.12-.05-.18v-.57l-.13,0,0-.09.12-.13.08.06c.1,0,0-.13,0-.18l-.08-.09v-.23L57,25.76v-.38l-.08-.09V25c.07-.05.14,0,.19,0s0,.13,0,.19l.08.09v.19a3.42,3.42,0,0,0,.16.33c.05.08.06.18.14.25s.13.19.21.29h.33l0,.12.58.58h.08l.27.28v.23l.2.19h.08c.06.07,0,.17.13.22a.17.17,0,0,1,.06.1.91.91,0,0,0,.28.39h.08c0,.05,0,.12.08.16s0,.1,0,.14a.51.51,0,0,0,.07.17l.08.14v.29c.14.08,0,.24.15.34s.1.19.16.32v.35l.08.09v.12c.07.19.23.32.32.57v.33l.07.08v.3L61,32V32l.15.15v.25l-.22.15v.3c-.09.1-.12.23-.22.31s-.13.25-.25.32-.23.11-.28.21c-.22,0-.17-.27-.32-.32h-.17l0,.13-.11.1h-.46s-.08-.05-.13,0v-.35h-.14s0,0,0,.06a1.35,1.35,0,0,0,.15.29v.31l.23.23v.25l.16.11V35c.1.06.07.19.16.25v.2l.15.28,0,.23c.12.07,0,.24.15.3v.15l.08.09v.15l.05.06a.19.19,0,0,1,0,.07A2.08,2.08,0,0,1,60,37a2.29,2.29,0,0,1,.15.24.37.37,0,0,1,0,.11c0,.09.11.14.08.24s.1.11.08.21.05.05.08.08v.28l.11.22.3.31c.08,0,.11-.1.19-.16l.19.24c.16,0,.18-.12.26-.13a.41.41,0,0,0,.21-.15l.19-.18c.15,0,.18.15.27.19s0,.09.07.12h0c.08,0,.11-.15.21-.15h0l.29.27-.09.17.09.08c.07,0,.15,0,.24,0a1,1,0,0,1,.21.2v.46l.06.07,0,.18.14.14v1l-.07.08v.22c-.06.14-.23.12-.31.25v.5l-.09.19s0,.06,0,.07-.05.2-.1.28,0,.12-.08.16,0,.14-.05.21-.12,0-.19,0l-.09-.07-.08.07h-.15s-.11-.07-.12-.15l.08-.15s0-.06,0-.07-.23-.2-.28-.36v-.22l-.16-.28v-.13l-.16-.17V41.5l-.14,0V41l-.24-.24v-.49l-.24-.46v-.2l-.07-.07v-.33L60.61,39v-.11l-.14-.15c0-.06,0-.15-.06-.21s0-.12,0-.2l-.15-.1V38a1.72,1.72,0,0,1-.26-.4c-.08-.13-.09-.29-.21-.39V37c-.26-.16-.3-.47-.47-.71v-.22c-.07-.13-.23-.12-.32-.25v-.38c-.07-.07-.13,0-.19,0s-.14-.1-.12-.19-.07-.12-.08-.2a.61.61,0,0,0-.11-.23c-.07-.07,0-.15-.06-.21a2.1,2.1,0,0,0-.14-.24v-.21l-.08-.09v-.24c-.15-.09-.16-.28-.31-.38v-.16a1.73,1.73,0,0,1-.26-.28,1.31,1.31,0,0,0-.21-.27v-.17l-.17-.13c.06-.14-.08-.22-.07-.34-.17-.11-.19-.31-.3-.46s0-.12-.09-.16-.06-.14-.11-.19,0-.12,0-.17a1.12,1.12,0,0,0-.11-.22l-.34-.34c0-.19-.23-.27-.33-.42.05-.1-.13-.13-.08-.23s-.09-.14-.19-.12-.19-.13-.21-.26-.1-.12-.15-.18v-.19l-.39-.38h-.05c-.06.08,0,.17,0,.26l.21.12c.05.09,0,.19.09.26s0,.18.09.24v.24l-.29.27-.16.08h-.21l-.06.06c-.07,0-.15,0-.23,0l-.3.17-.12-.07c-.12-.08-.2.06-.31.06s-.26.15-.36.27v.79l.06.05s0,0,0,0v.54l.07.07c0,.16,0,.33,0,.49l.07.07c0,.06,0,.16,0,.21a.69.69,0,0,1,.08.28c.1,0,0,.19.14.2v.17l.08.09v.15l.23.23,0,.19a1.79,1.79,0,0,0,.32,0l.29-.16H55l.07-.07h.23L55.4,34h.15l.08-.08h.55l.07.07h.14l.13-.09.15.08h.49c.08,0,.11.11.18.09l.68.68.19.41.28.27v.47l.08.09v.15l.08.08v.47l-.07.07c0,.15,0,.32,0,.45l-.11.23H58.3l-.2.19v.25L58,38h-.1c-.06.06,0,.09,0,.2v.23l-.12.12-.21-.3a3.41,3.41,0,0,1-.17-.33h-.16c-.12.06-.11.22-.23.3a1,1,0,0,1-.2-.11c-.08-.06-.13-.13-.2-.19h-.16l-.05-.06-.07,0h-.31l-.22.1,0,.12c0,.09-.19.08-.26.17h-.19l-.19.23a.14.14,0,0,1-.16-.06l-.45-.44v-.13l-.11-.22h-.07c-.16-.1-.22-.27-.34-.49s-.21-.15-.26-.32v-.41l-.07-.07V36l-.09-.09v-.15l-.08-.09v-.31l-.07-.07v-.17L53.41,35v-.38l-.08-.1c0-.09,0-.2.1-.25l-.11-.16v-.24l-.12,0c-.1.11,0,.15,0,.2s0,.14,0,.19L53.09,34v-.36l.06-.08a.19.19,0,0,0,0-.08l-.07-.08v-.15L53,33.21c0-.09,0-.21,0-.32l-.11-.11H52.7V32.6s0-.05,0-.06-.17-.23-.32-.26-.07,0-.09-.08a.58.58,0,0,0-.1-.19c0-.13-.11-.23-.08-.36s-.15-.11-.23-.17-.13-.13-.19-.19-.19,0-.24-.09c-.11.05-.14-.1-.25-.08s-.11.1-.2.09-.06,0-.11.07h-.29l-.22.24h-.27l-.14.15h-.24l-.27-.15-.07,0c-.07.05-.11.15-.22.14s-.13.09-.11.18-.07.13-.11.2-.12.08-.19.11-.05,0-.09.09a.38.38,0,0,1,0,.1.22.22,0,0,1,0,.08c-.08,0-.17,0-.27,0l0-.14-.2-.17H48l-.11.1v.19c0,.05,0,.06,0,.07l0,0c-.12.06-.11.23-.22.3l-.11,0,0,0V34c.06.12.23.11.31.23v.22l.08.1v.22l.08.09v.47l-.08.08v.16l.31.31V36l-.07.09v.31c.09,0,.07.17.15.25s0,.1,0,.14l.08.08v.55l.12.11.06-.06c.08,0,.12.09.16.14a.86.86,0,0,1,.12.22v.26a1.53,1.53,0,0,1,.16.26c0,.08,0,.19.09.24s.07.17.18.2.09.1.17.07l.08-.07h.13l.28.15h.3l.09-.09.09-.06.14-.07c.07.07,0,.16,0,.28l-.15.1v.12a1.07,1.07,0,0,1,.48.33c.14,0,.21.13.3.22l.27.12c.12,0,.19.13.32.08a.27.27,0,0,0,.16.08c.05,0,.09.09.15.14s.33.2.55.17l.16.15h.08l.7.69h.07a1.31,1.31,0,0,0,.17.24c.06.07.07.19.17.23s.09,0,.11-.07a.44.44,0,0,1,.13-.24c.1,0,.14.07.18.13l.14.3c.05.09.07.18.19.2s.06,0,.09.07.11.14.17.15.13.08.19.12l.24.13h.27l.08.07H56l.19-.21v-.29l.11-.12h.25l.08.08h.31l.07.07h.22c.06,0,.09.11.18.08l.22.23h.15a.59.59,0,0,1,.25.31.59.59,0,0,0,.17.24,2.39,2.39,0,0,1,.22.23h.16l.08.08,0,0v-.56s-.07-.11-.16-.12-.1-.1-.15-.12.11-.15.15-.21,0-.11.09-.22v-.2s-.11-.06-.07-.15l.07-.08V41.2l.12-.11H59l.07.07h.15l.09.08h.12a.78.78,0,0,1,.39.29v.06l.39.4s0,.06,0,.07.05.15.11.19.23.35.36.52.09.15.15.23v.21l.08.12v.38l.08.07V44l.15.27-.06.06v.27l-.24.47v.27l-.08.1v.62c-.1.07-.09.2-.19.28s-.09.19-.15.28-.09.24-.21.3v.15l-.27.29h-.09l0,0c0,.08,0,.15,0,.23l.18.2c0,.11-.15.16-.21.24h-.24l-.11.12v.39l-.37.26-.15-.14h-.08l0,0c0,.11,0,.21,0,.31l-.26.25-.21.42V50l-.14.1h-.37l-.24.25c-.08.08-.22.08-.27.18a.16.16,0,0,0,.07.17v.16l-.06.06v.22l-.08.11v.24l-.14.11H57l-.11.22v.13l.08.09v1l.07.07v.48a.23.23,0,0,1,.09.18c0,.07.06.13.07.2s.05.11.07.17,0,.12.09.15v.45l.23.45v.18c.1.07.05.21.11.27s0,.2.13.21v.22l.23.44v.19c.13.19.18.41.32.58v.21s0,0,.06.08.12.16.1.28.11.13.07.24.11.11.08.2.08.12.08.2.09.11.09.2a.68.68,0,0,0,.14.24v.23l.16.12c0,.08,0,.16,0,.18s.06.19.15.26v.19a.41.41,0,0,1,.07.17c0,.12.11.22.1.35s0,.14.07.2.09.13.07.21a.11.11,0,0,0,0,.07c.07.05.05.17.13.22a.36.36,0,0,0,.07.24c0,.05,0,.12,0,.18a2.69,2.69,0,0,1,.2.38v.12l.08.09v.15l.07.07v.2a.28.28,0,0,0,0,.08c.1.14.1.33.19.47s.07.16.08.24.11.11.08.2.08.12.07.16.07.19.09.29.09.08.08.16a.13.13,0,0,0,0,.14c.08.06,0,.16.08.24a.37.37,0,0,1,.11.27c0,.1.12.13.08.24s0,.07,0,.1.12.17.11.27.12.17.08.28l.24.48v.16l.23.45V67l.16.27v.2a.24.24,0,0,1,.06.08,1.75,1.75,0,0,1,.2.51s0,0,0,0v.23c.12.12.13.3.24.42s.19.32.16.52l.08.09v.15l.08.09v.15a.79.79,0,0,1,.23.42c.06.15.15.3.24.49v.16c0,.07.11.1.08.19s.06.14.08.21a.48.48,0,0,0,.09.19c.07.07,0,.14.06.22l.16.16V72c.06.19.23.35.23.57a1.35,1.35,0,0,1,.16.29,1.51,1.51,0,0,0,.11.22c.07.07,0,.15,0,.22s.1.14.14.21.13.25.09.4l.08.09v.11c.08.17.15.33.24.49a.44.44,0,0,1,.08.25s0,0,.07.09v.15l.08.08v.16a.28.28,0,0,1,.09.16s.08.09.14.15a.33.33,0,0,0,0,.14,1.28,1.28,0,0,0,.15.25c0,.06.29.54.31.61a.21.21,0,0,1,0,.08c0,.1.18.12.16.25l0,0,.28.28c0,.12,0,.21.09.31a1.09,1.09,0,0,0,.23.25V78l.07.09v.21s.07.06.07.09.14.19.09.32.07.18.16.25,0,.1,0,.15l.2.2a.2.2,0,0,0,.11,0v.13c0,.05-.1.08-.07.16a1.14,1.14,0,0,0,.11.11l0,0v-.34s0,0-.07,0v-.61l-.24-.22,0-.09c.07,0,.12.13.18.14s.11.07.16.11.09.12.17.14a.86.86,0,0,0,.19-.3,1,1,0,0,1,.3,0h.31a1,1,0,0,0,.45.18l0,.18.07.08v.19l.34.33c0,.2.18.28.28.42v.21c0,.06.12.09.09.17.14.19.35.31.47.52v0l.27.27h.09l0,.15h.14c.09,0,.14-.12.21-.17s.09-.13.17-.15a.26.26,0,0,1,.17.15l-.11.23-.18,0c-.06.09,0,.18,0,.27l-.08.08v.08c.07.05.16.06.23.16l-.18.1a.53.53,0,0,1-.3-.21l.08-.16v-.22l0,0c-.11,0-.21,0-.32,0l-.12.12,0,0h-.38s0-.06-.06-.06c-.17,0-.3-.15-.49-.08l-.09.07-.08,0-.34-.33V81l-.11-.11H68.5l-.09-.08H68.1c0-.05-.1-.08-.13-.16l.08-.12-.35-.35h-.08c-.07.08,0,.18,0,.26l.09.09v.31c.09.06.07.19.15.25s.05.12.1.16.13,0,.19.1.1,0,.15,0l.06-.07.21.1v.09l.12.11s.11,0,.15,0,.23.1.3.23h.22a1.28,1.28,0,0,1,.26.16c.07.08.19.06.25.16h.29l.28.16c.17-.07.32.14.5.07l.1.08h.15l.09.08h.23l.16.16h.21c.09.12.23,0,.35.09s.25,0,.28.14h.24a.72.72,0,0,0,.26.31l.11-.11v-.23a.28.28,0,0,0,.07-.09.35.35,0,0,0,0-.12h.42l.06-.15h.09a.69.69,0,0,1,0-.13l.17-.17c.07,0,.11.09.16.14a.6.6,0,0,1,.08.16h.16s0,0,0,.06v.36c0,.06.14.1,0,.2l-.17,0-.12.1v.16l-.11.12h-.24c-.06-.13-.22-.14-.33-.23s0,0-.07,0,0,.12,0,.18.16.2.3.22.21.12.3.21h.22l.13.12s.07.1.11.11a.17.17,0,0,1,.15.09h.48s0,0,0,0l-.16.1v.44c.06,0,.09.14.19.12s.21.06.22.21.14.09.21.14v.15c.12.19.34.23.47.39a3.91,3.91,0,0,1,.37.44,3.41,3.41,0,0,0,.42.44.56.56,0,0,0,0,.13.85.85,0,0,0,.1.19c0,.06,0,.13.08.16s0,.15.06.22.09.09.08.16.06.14.11.19l.11.12V88l.17.12c0,.16,0,.26.11.37s.14.11.13.22c.17.11.18.32.31.46s.09.15.14.22a.51.51,0,0,0,.14.36c.09.09.09.22.19.28s.14.17.07.29.11.19.16.28.19.4.29.59,0,.14.12.18,0,.15.11.2a.35.35,0,0,1,.05.12l.22.23c0,.14.16.16.16.29s.08.09.12.15a.39.39,0,0,1,.06.13s0,0,0,.06.12.22.07.4l-.14.1a.23.23,0,0,1-.17-.21l-.19-.18h-.38a.51.51,0,0,1-.17-.24h0l-.29-.29,0-.1h-.1l-.07-.16h-.07a.93.93,0,0,1-.31-.47H77.9l-.16-.31h-.23L77.42,91H77.3c-.09,0-.13-.12-.2-.17a.8.8,0,0,1-.21-.15c-.07-.07-.17-.06-.23-.15h-.32a.71.71,0,0,0-.32-.23h-.26a.69.69,0,0,0-.2-.22,2.49,2.49,0,0,1-.28-.15c-.09-.06-.22,0-.28-.11h-.22l-.27.16h-.3l-.07-.07-.08.06h-.31l-.09-.06h-.21c-.07-.09-.2-.07-.25-.17s-.18-.11-.22-.21l0,0-.15.08H72.5a.09.09,0,0,0,0,0,2.39,2.39,0,0,0-.43-.2s0,0-.06,0l-.09-.1h-.26l0-.12,0,0c-.12,0-.21-.1-.31-.08s-.15-.13-.24-.09-.14-.12-.25-.08-.05,0-.08-.08h-.21c-.15-.11-.36-.14-.49-.31h-.31c-.07-.09-.2-.09-.28-.19a.55.55,0,0,0-.26-.21c-.1,0-.17-.15-.25-.23h-.14a1,1,0,0,1-.21-.2c-.07-.06-.13-.13-.19-.19s-.16-.09-.23-.14a1,1,0,0,1-.27-.09A1.12,1.12,0,0,1,67.6,87v-.24c-.08-.07-.14-.16-.23-.19s-.1-.09-.16-.09a.16.16,0,0,1-.15-.1c0-.16-.17-.22-.25-.33v-.16s0,0,.26,0l.08.07a.35.35,0,0,0,.11,0c0,.14,0,.28,0,.42l.22.11h.29l.07.07H68l.06.06c.16.09.27-.13.43-.05a2.12,2.12,0,0,0,0-.42l.27-.38H69s0,0,0,0v-.32l.24-.17c0-.07,0-.19,0-.29L69,84.72v-.15l-.11-.12-.18,0,0,0v-.28l-.12-.22h-.23l-.12-.12v-.61L68,83l.09-.12a1.74,1.74,0,0,1-.1-.19c0-.07-.13-.09-.13-.19s0,0,0-.06-.13-.16-.24-.17a1.63,1.63,0,0,1-.11-.23c0-.1-.13-.15-.2-.23s-.13-.12-.19-.19v-.71l-.31-.31v-.21c0-.07-.11-.1-.08-.18L66.5,80v-.28l-.33-.33c0-.12,0-.15-.07-.2v-.2A.33.33,0,0,1,66,78.7a.21.21,0,0,0,0-.06c-.06-.08-.18-.12-.19-.23s-.08-.09-.08-.13c0-.2-.15-.33-.19-.5h-.17c-.08-.08,0-.18,0-.26s.14-.1.05-.2-.14.09-.25.06l-.11-.1V77l-.07-.06.08-.25-.12-.12c-.15,0-.16.11-.26.13s0,0,0,0v-.39l-.31-.14v-.18l-.24-.19v-.27c.1-.06.07-.15.08-.25l-.13,0-.11-.11c0-.07,0-.16,0-.22a2.39,2.39,0,0,1-.12-.22c-.05-.1-.13-.19-.11-.31s-.05-.06-.06-.09a.45.45,0,0,1,0-.11l-.3-.3V73.5l-.06,0c0-.09,0-.21-.1-.27S63,73,63,72.89l-.15-.27v-.3c-.12,0-.14-.19-.22-.29s-.16-.35-.09-.53l-.16-.29v-.29l-.09-.09V70.6l-.14-.15v-.18s.08,0,.1,0l.18.17c.05-.13,0-.25,0-.35s-.23-.13-.31-.24l0-.18-.06-.06v-.3L62,69.17c0-.11.11-.14.16-.22v-.19l-.08-.17a.19.19,0,0,0-.16-.14c-.08,0-.1-.08-.15-.12s-.12-.16-.08-.27h.12c0-.06.13-.09.12-.17l-.12-.16-.12,0v.29c-.08,0-.11-.11-.2-.09s-.07,0-.08-.08c-.1-.19-.18-.37-.27-.56,0,0,0-.08,0-.11s-.09-.15-.14-.24v-.29l-.08-.09v-.15l-.08-.07c0-.1,0-.21,0-.33l-.14-.14c0-.07,0-.18-.09-.24v-.43h-.2s0,0,0-.07,0-.29,0-.43l-.16-.17v-.27l.18-.12-.11-.2.08-.12v-.22c-.06,0-.06-.13-.1-.19l-.18,0c-.05-.06,0-.13,0-.19l.07-.06L60,62.94l-.22.11-.1-.1s0-.05,0-.07.09-.12.15-.19v-.25s0,0-.2.13c-.1,0-.12-.09-.18-.11V61.9l.06-.06a1.51,1.51,0,0,0,0-.3s0,0,0-.09a.5.5,0,0,1-.19.29v.19h-.13s0-.1,0-.11.08-.16.13-.23.06-.13.1-.19,0,0,0-.08v0a2.1,2.1,0,0,0-.14-.24l0,.23c-.12.07-.15,0-.22-.1V61L58.9,61v-.2c0-.09-.11-.16-.09-.26s0,0,0,0l.22-.23v-.33l-.14,0,0,.23c-.14-.05-.13-.19-.21-.26v-.42l.08,0,.07,0-.16-.16v-.15l-.14-.15c0-.09,0-.2-.06-.29s0-.21-.11-.26v-.53l-.13-.23-.1-.1c0-.16-.14-.29-.08-.46L58,57v-.14l0,0-.13-.13v-.24l-.2-.19h-.12v-.44l-.19-.19h-.23l-.09.07-.19-.19v-.16l.12-.11H57v.28l.11,0,.12-.13v-.31c-.11-.06-.15-.19-.21-.3a.53.53,0,0,1,0-.18l-.1-.11h-.24a.34.34,0,0,1-.14-.22.28.28,0,0,1-.21-.14V54l-.15-.14c0-.06,0-.14,0-.18s-.08-.19-.17-.25-.05-.16-.13-.22,0-.1,0-.15l-.2-.2h-.08l-.24-.24-.06.13,0,0v.19l.12,0c.07,0,0,.13,0,.19s-.14,0-.2,0a.37.37,0,0,0-.14.22.89.89,0,0,0-.35.11c0,.08,0,.17,0,.26V54s.06,0,.06.06.12.3.1.47,0,.52,0,.81l-.15.11h-.07v-.06l-.11-.16c-.15,0-.18.1-.25.15H54l0,.15h-.1c-.07,0,0-.12,0-.19l-.14-.14-.15.09h-.24l-.18-.22a.56.56,0,0,1-.22-.1l-.23.07L52.58,55H52.2l-.11-.09H52l-.32.35-.05-.18,0,.05,0-.19-.07-.06v-.21a1,1,0,0,0-.16-.26c-.09-.07,0-.2-.17-.23l.09-.09a.56.56,0,0,0,0-.13c0-.06-.06-.11-.07-.16a.56.56,0,0,1,0-.18l-.08-.08v-.4L51.05,53v-.78L51,52.18c0-.08,0-.11.08-.17v-.3l0,0s.05,0,0-.06.11-.23.08-.39l.15-.09V51l.13,0s.07-.08.13-.06l.11.07c.09,0,.11-.07.17-.1v-.57c0-.09-.15-.09-.23-.15v-.31c-.1-.07-.06-.25-.23-.28s-.1.07-.15.11v.17l-.16.12v.9l-.2.18L50.85,51h-.24l-.15.16H50l-.35.34c0,.16,0,.16-.24.25v.07s0,0-.06,0-.14,0-.37-.15H48.5l-.08.08h-1l-.06-.06-.07,0h-.65s0,.06-.07.06c-.18,0-.35.15-.59.07l-.23-.13h-.21l-.09-.08h-.38L45,51.53l0,0h-.7l-.08-.08h-1a.23.23,0,0,0-.1,0c-.08.08-.22,0-.27.12h-.62l-.45-.45V51l-.07-.07v-.36l-.16-.29v-.37l-.11-.12h-.18a.51.51,0,0,0,0,.27l.08.09v.38l.14.15v.41l-.07.07v.47l.08.08v.23l.08.09v.46l.06.07a1,1,0,0,1,0,.3v.26l.07.08v.39l.09.08V54l.07.08v.15l.08.09v.23l.08.07c0,.1,0,.21,0,.32l.07.07v.21a.27.27,0,0,1,0,.38s0,.07,0,.12l.08.09c0,.12,0,.25,0,.38l0,0a.09.09,0,0,1-.13,0,.37.37,0,0,1-.09-.16c0-.06-.12-.09-.13-.14s-.09-.15-.14-.22a1.35,1.35,0,0,0-.14-.22c-.09-.09-.1-.25-.19-.35s-.1-.17-.17-.25-.1-.19-.08-.31S41,54.4,41,54.34a.8.8,0,0,1-.12-.22c0-.08,0-.16-.08-.21s-.08-.23-.09-.36a1.09,1.09,0,0,0-.15-.31v-.18c-.13-.08-.06-.23-.09-.34s0-.25-.14-.29V52.2l-.16-.28v-.33s0,0,0,0l-.06-.06a1.51,1.51,0,0,1,0-.3,1.57,1.57,0,0,1,0-.22,1.73,1.73,0,0,1-.08-.18s0-.11,0-.14,0-.09,0-.14,0-.09-.07-.13a.42.42,0,0,1,0-.16l-.07-.08V49.9c-.13-.06-.15-.2-.22-.3s0-.09,0-.18l-.15-.1h0l0,0v.47l-.08.09v.16c-.18.09-.18.31-.31.46v.26H39c.08-.08,0-.18.05-.26s.07-.06.12,0,0,.13,0,.19a.71.71,0,0,1,.15.37l-.08.12a.37.37,0,0,0,.13.17c.06-.1.15-.08.24-.06a.9.9,0,0,0,.26.41v.17l.16.12v.1l.08.09v.62l.08.09v.2s.07.11.07.16.06.14.08.21,0,.12,0,.17,0,.12,0,.19l.08.08v.61l-.17.31.17.19c0,.07,0,.07-.13.18s-.11-.06-.18-.08l-.14.08h-.2L39.62,55H39.4c0-.1-.18-.08-.25-.17a1.52,1.52,0,0,0-.22-.22l-.08.08h-.08l-.14-.32h-.25c-.07-.06,0-.13,0-.19l.14-.14v0l-.22-.22v-.22l-.12-.2-.1,0L38,53.16V53c.08-.06.18,0,.28-.05a.16.16,0,0,0-.05-.24v-.24l.07-.08c0-.08,0-.11-.07-.17s0-.09-.06-.13a1.88,1.88,0,0,1,0-.33l.09-.1-.2-.4-.11.07a.37.37,0,0,1-.17-.13c.09,0,.07-.13.08-.23l-.16-.15-.24-.25c0-.12-.15-.14-.08-.26h-.11c-.11-.09-.18-.22-.33-.26s-.11-.19-.18-.27-.12-.23-.09-.36,0-.06-.07-.1v-.22a.54.54,0,0,1-.15-.29c0-.11-.1-.17-.09-.28s-.09-.2-.16-.28,0-.2-.15-.26v-.23l-.08-.08c0-.23-.16-.36-.23-.54v-.23l-.08-.09v-.15l-.08-.09v-.15l-.08-.09v-.15l-.08-.09v-.23l-.15-.08v-.3l-.16-.17v-.2l-.23-.44v-.27a1.12,1.12,0,0,1-.17-.37,1,1,0,0,0-.15-.31v-.27l-.06-.08c-.1-.18-.1-.4-.25-.56a.36.36,0,0,0-.08-.28.47.47,0,0,1-.09-.28c-.08-.05-.07-.13-.07-.2v-.24a.66.66,0,0,1-.15-.41l-.08-.08v-.16l-.08-.07c0-.1,0-.21,0-.32s.13,0,.19,0,0,0,0,.05.16.28.06.46l.18.12v.19l.08.09v.13c.09.16.15.32.31.39v.17l.08.09v.15l.23.24-.07.07V43c0,.05.07,0,.12,0s0,0,.08.07l.15-.15a.74.74,0,0,0,.13.12s.1,0,.13.06.1,0,.13.06a1.2,1.2,0,0,1,.23.22H36c.07.09.2.1.28.19s.21.08.28.27l.07-.23s0,0,0,0v-.3l-.07-.08V43l-.09-.1.23-.16v-.39l.1,0,.38.38v.07l.14,0,.19.19.33.33c.18,0,.22.21.36.27a2.56,2.56,0,0,1,.43.36h.16l.11-.11v-.16l.08-.08v-.16l0,0,0,0c0-.09,0-.21-.1-.28v-.38l-.15-.11v-.34l-.08-.09v-.39l-.08-.09v-.15l-.08-.08v-.22l-.07-.09v-.46c0-.07.11-.16,0-.26s-.13,0-.19.05-.11-.05-.17-.1,0-.32,0-.46-.08-.16-.12-.22-.08-.09-.11-.14a1.13,1.13,0,0,1-.09-.2l.08-.09v-.53a2.52,2.52,0,0,1-.15-.27,1.5,1.5,0,0,1,0-.3.19.19,0,0,1-.08-.18s0-.09-.07-.17v-.34c-.09-.06-.07-.2-.17-.25s-.07-.18-.16-.25-.06-.24-.06-.36-.17-.19-.08-.31l-.09-.1V36l-.08-.09v-.15l-.07-.08a3.21,3.21,0,0,0-.24-.7v-.39l-.08-.08v-.16l-.08-.08v-.16c-.08,0-.07-.12-.08-.2s-.09-.12-.08-.21a.24.24,0,0,0,0-.21c0-.05,0-.15,0-.23l-.07-.09v-.3l-.16-.17V32.5l-.08-.08a1.09,1.09,0,0,1,0-.17c0-.08-.07-.1-.08-.16s0-.13,0-.18,0-.12-.09-.16,0-.13-.05-.21l-.06-.06v-.24l-.05,0s0,0,0,0V30.8c0-.09-.07-.16-.11-.22s-.12-.11-.17-.17a1.5,1.5,0,0,1-.11-.22v-.12L35,30v-.32l-.12-.11-.12,0v-.26l.08-.07c0-.1,0-.2,0-.31v0l-.06-.06v-.62l-.08-.09v-.16c-.12-.06-.15-.19-.23-.31v-.39l-.16-.1v-.37l-.14-.13a1.08,1.08,0,0,1,0-.31v-.26L34,25.92c0-.09,0-.18.07-.24V25.3L33.87,25v-.35l-.13-.25c-.06-.12,0-.28-.09-.39,0-.14-.13-.25-.08-.39l-.09-.09v-.15l-.08-.09v-.15s0,0,0-.06-.14-.3-.1-.45l-.43-.86-.2-.2c0-.05,0-.13,0-.15s-.06-.16-.13-.22a.55.55,0,0,1-.22-.3.45.45,0,0,0-.17.08h-.2c-.12,0-.17-.19-.29-.24l-.07,0a1.09,1.09,0,0,0-.09.23,1.24,1.24,0,0,1-.19.36c-.07,0-.13-.14-.21,0s.19.26.16.45l-.08.08v.16c0,.05.08,0,.14.05l0,.11.07.08v.15l.07.08-.07.07v.14c0,.12.16.12.24.18v.15l.16.17c-.05.1.1.12.07.22l-.07.11s0,.06,0,.07a.61.61,0,0,1,.19.28,1,1,0,0,1,.12.3c0,.09.08.18.14.3v.29l.16.11v.12l.07.08v.21l.11.2.08,0,.06.05.12,0c.05.08.18.12.18.26s.18.13.21.22.14.18.2.29l-.09.13v.14c.23.1.36.32.54.47v.3l.16.28v.18a.65.65,0,0,1,.08.17.29.29,0,0,0,.06.17s0,.12,0,.19c.2,0,.2.19.3.29v.55l.07.06v.44l.17.31v.29l.07.07v.62l.08.09v.31l-.07.08c0,.06,0,.1,0,.14a.29.29,0,0,1,.05.13H35l.11.12v.46l.09.09v.31l-.08.08V33H35l-.28-.28v-.15l-.07-.07s0-.14,0-.17,0-.15-.11-.19,0-.13,0-.18a1.65,1.65,0,0,0-.1-.19.47.47,0,0,1-.07-.17l-.12,0a.35.35,0,0,0-.1-.19v-.2c-.06-.08-.07-.18-.15-.25s-.13-.28-.24-.41,0-.1,0-.15l-.14-.14c0-.06,0-.16-.06-.21s-.22-.31-.19-.51-.13-.26-.22-.38a.39.39,0,0,1-.09-.23c0-.12-.15-.2-.09-.33l-.07-.08v-.17c-.18-.09-.18-.31-.31-.46v-.53s-.07-.06-.08-.09,0-.16-.06-.21,0-.12-.07-.17a.28.28,0,0,1-.1-.22c0-.11-.09-.16-.09-.25s-.17-.32-.24-.49v-.15l-.08-.09v-.39l-.22-.22c0-.11-.14-.19-.09-.32s-.05-.2-.16-.23v-.32c-.12-.15-.13-.36-.31-.46v-.15l-.13-.23-.25-.25a.2.2,0,0,0-.14-.19c-.06.08,0,.17,0,.25l.08.08v.17l.08.09c-.1.18.13.29.06.47l.13,0,0,0v.37l.16.29v.21c-.05.07-.12,0-.18,0l-.29-.31-.26-.54-.2-.2,0-.26-.13,0,0-.11-.07-.08v-.15L29.63,23l-.22-.23c0-.15-.16-.16-.19-.27H29c-.05-.07,0-.15,0-.22s-.23.07-.28.2a1.1,1.1,0,0,0,.32,0,.49.49,0,0,0,0,.12l.07.08v.47l-.07.07v.36l-.17.3-.28,0,0,.16-.18.15-.06.15h-.4l-.08.08h-.15s-.06-.07-.1-.07-.14,0-.21-.07a.16.16,0,0,0-.21,0c-.05.06-.12,0-.18,0l-.09-.07h-.23l-.09.07h-.31c0,.1-.16.07-.22.14s-.14,0-.21.05a1.08,1.08,0,0,1-.24.14l-.12-.09h-.23c-.07,0,0,.11,0,.21l-.19.1h-.1c-.05.11,0,.23,0,.36l-.06.07.15.26v.2l.08.1a.7.7,0,0,1,0,.2c0,.09.07.14.08.21a.35.35,0,0,0,.07.21c.05,0,0,.14.06.21s0,.14.11.19v.31c.14.05,0,.19.11.27a.84.84,0,0,1,.11.21c-.06,0-.12,0-.19,0s0-.12,0-.23L25,27.34V27.1L24.94,27v-.28c-.06-.15-.18-.25-.16-.43s-.15-.19-.22-.29-.06-.24-.17-.33v-.4l-.16-.13v-.23L24,24.48v-.22l-.13-.11h-.08l0,0c0,.19,0,.37,0,.56l.08.08V25l.06.06c0,.06,0,.12,0,.18l-.12.11h-.09l0,.12.17.13v.56l-.15.27v.69l.06.07v.23l-.11.21c-.08-.15,0-.31-.05-.45s-.12,0-.17,0a.69.69,0,0,1-.13,0v.24l.31.31c0,.08,0,.11-.07.16v.47c-.08.09-.18,0-.2,0-.24.1-.25.32-.4.42H22.7l-.08-.07-.09.09c-.05.08,0,.17,0,.26l-.14.15v.26l.14.1v.24l.45.45s0-.09.05-.13a.36.36,0,0,1,.09-.08h.17l0,.07c0,.08-.08.1-.11.14l-.12,0v.11c.09.06.19,0,.26,0l.08-.07.17,0c.07-.08,0-.17,0-.28s.12-.11.18-.18a.86.86,0,0,0,.12-.22v-.17c.05-.15.2-.14.27-.23a1,1,0,0,1,.19.17l.09.21v.22a.21.21,0,0,1-.2-.05h-.17l0,.11.23.21,0,.06-.15.31H23.8a1.06,1.06,0,0,0-.11.25c0,.07-.12.11-.09.2s-.07.1-.07.16a.18.18,0,0,1-.13.17c-.13,0-.18.14-.27.21v.13l-.11.22h-.16l-.16-.31h-.08l-.42-.42v-.24l.06-.07-.12-.21-.09-.09c0-.22-.16-.38-.23-.58l0,0a.21.21,0,0,0,0-.07V29.6l-.15-.15v-.38L21.64,29v-.62l-.07-.07V26.7l.07-.08v-.08l-.08-.08c0-.09,0-.18,0-.27a.27.27,0,0,0-.08.07c-.12.25-.25.5-.4.79l-.26.27s0,.06,0,.07-.06.19-.15.25v.7c.05.07.12,0,.18,0s.08-.11.19-.05l.09.1v.29l-.15.27v.13c-.06.08-.17.13-.17.25l-.24.12-.2-.18-.1.05s-.08.06-.08.13,0,.06-.07.13v.29L20,30v.72s0,.07,0,.07,0,.21.11.27l0,0v.23c.09.05.07.17.14.23l.18.17v.16l.34.35c.18,0,.23.19.36.27v.95c-.11.07-.15.19-.23.34v.28l-.16.16v.22c0,.06-.11.09-.08.17l.08.09v.15l.08.09v.46l.07.07v.36l.24.46v.28l.16.16c0,.07,0,.13,0,.2s.13.16.12.26.11.16.09.28.06.11.07.16,0,.13.06.18,0,.12,0,.18.09.07.07.13.07.15.09.24.09.12.15.2V39l.2,0c.1.09,0,.13,0,.19s.12.14.09.24,0,.13.07.2a2.53,2.53,0,0,0,.12.23,2,2,0,0,1,.11.21v.21l.15.15v.27c.11.21.19.4.3.57a1,1,0,0,1,.13.22.68.68,0,0,0,.2.27.31.31,0,0,1,.11.2h.32c.05.05.1.14.16.15s.13.07.2.12v.22c.05.07.07.14.11.2a2.37,2.37,0,0,0,.27.28.68.68,0,0,0,.11.34c0,.08.15.11.14.22s.07.13.11.19l.05.06v.2l.23.44v.2l.08.09v.13l.08.15.08.13v.22l.14.15c0,.07,0,.19.09.22V46l.08.08c0,.08,0,.15.05.22s.05.14.11.19.09.2.08.32A.62.62,0,0,0,26,47v.33l.08.1v.15l.08.08-.08.1c0,.1.08.12.12.17l.08-.07h.08l.1.2-.08.09.18.35-.08.1v.25s0,0,0,0,.08,0,.1,0,.12,0,.19,0,.14.13.21.2v.13l.16.2.08.16v.12l.08.09v.21a1.25,1.25,0,0,0,.23.35c0,.15.17.19.23.31s.09.19.09.31.08.06.08.12a.45.45,0,0,0,0,.11.76.76,0,0,1,.19.25c0,.1.18.14.2.27s.18.12.16.24l.18.2c.07.06.06.17.13.23s0,.1,0,.14a1.74,1.74,0,0,1,.52.61c0,.1.13.18.1.33a.74.74,0,0,0,.13.12.64.64,0,0,1,.14.22A.66.66,0,0,0,30,54v.17l-.14.06v.17c.06.06.13,0,.18,0l.09-.07,0,0v.37l.11.2.1,0c0,.1.12.16.1.27s.13.14.08.24.07.22.16.29.08.12.08.2.11.12.08.21.08.11.08.2.06.08.07.1.23,0,.31.07c-.09,0-.2.09-.24.2s.17.17.24.29v.27l.16.29v.21l.23.14v.49a.51.51,0,0,1,.2.27H32l.11.22v.2l.08.09v.12l.15.29v0c0,.08,0,.17,0,.26s0,.18.09.24.05.14.05.22l.16.16v.31l.08.09v.46l.07.07v.2l.24.46v.17a2.43,2.43,0,0,1,.24.53c0,.1.12.17.08.28a.25.25,0,0,1,.07.25c.09,0,.08.15.14.22a.33.33,0,0,1,.09.23c0,.12.14.19.08.34l.16.09v.21l.08.09v.15l.06.06a3.37,3.37,0,0,0,.33.76v.17l.32.6c0,.09.1.12.08.21s0,.11.07.16,0,.15.06.22a1.65,1.65,0,0,1,.1.19c.05.09.06.21.15.29a.43.43,0,0,0,.09.28s0,.1.08.16a.6.6,0,0,0,.08.16.48.48,0,0,1,.08.28c.09.08.09.2.15.29s.06.19.16.25.12.16.15.25v.12a0,0,0,0,1,0,0,1.85,1.85,0,0,1,.14.14c0,.14.09.23.11.35s.13.18.19.27,0,.2.1.27.06.16.08.25.11.13.08.24.11.11.08.2,0,.17.09.23a.29.29,0,0,1,.06.21c.15.15,0,.35.1.51l.06.06v.23l.08.09v.23l.08.09V73l.07.08c0,.07,0,.1-.05.14a.52.52,0,0,0-.06.15c-.07-.1-.2-.15-.2-.3L36.64,73a1,1,0,0,0-.14-.37h-.08c-.12-.09-.15-.26-.27-.36a2.2,2.2,0,0,1-.31-.3c0-.11-.05-.19-.08-.28a.29.29,0,0,0-.23-.18v-.26s0-.07,0-.08-.17-.23-.32-.26-.12-.15-.17-.23-.12,0-.14,0l-.18-.1.12-.17s0-.1,0-.13-.12-.33-.27-.44h-.15c0-.06-.14-.09-.12-.19s-.06-.16-.13-.22l-.2-.11a.93.93,0,0,1,.05-.1.31.31,0,0,1,.07-.12L33.87,69h-.12c-.07-.08,0-.17,0-.26l.07-.09v-.15l-.15-.17v-.23c-.06,0-.08-.12-.16-.11a.18.18,0,0,0-.13-.15c0,.06,0,.11,0,.15h.11v.27c0,.07-.12,0-.18,0-.21-.34-.21-.34-.19-.53l.11,0s0,0,0-.17l-.13-.17,0,.16c0,.06-.13,0-.2,0a.5.5,0,0,1,0-.27c0-.09,0-.17,0-.28l-.1.09-.2-.2v-.14l0-.07c-.05-.07,0-.17,0-.25l-.07-.07c0-.13,0-.27,0-.41l-.12-.12-.16.23L32,66v-.37a1,1,0,0,0-.08-.15c-.05-.08-.06-.19-.14-.25s-.21-.34-.32-.5a1.92,1.92,0,0,1-.14-.29.89.89,0,0,0-.18-.24c0-.12-.15-.19-.06-.32a.67.67,0,0,1-.25-.34c0-.07-.11-.11-.08-.2l-.16-.17a1,1,0,0,0-.2-.51c-.08-.15-.11-.33-.27-.42v-.16a.29.29,0,0,1-.08-.21.25.25,0,0,0,0-.07,1.41,1.41,0,0,1-.27-.55s-.08-.08-.07-.12-.12-.14-.1-.24a.36.36,0,0,1-.13-.25.75.75,0,0,0-.09-.24,1,1,0,0,1-.09-.28c0-.09-.12-.17-.14-.26s-.11-.14-.16-.21v-.15l-.08-.09c0-.06,0-.12,0-.18a.51.51,0,0,1-.12-.26c0-.11-.09-.17-.1-.28s-.09-.2-.08-.31-.05-.21-.19-.2-.08-.06-.11-.09v-.21a.79.79,0,0,0-.23-.34v-.23l-.08-.09v-.32l-.29-.27c-.05-.1,0-.21-.1-.27v-.23L27.46,56a.9.9,0,0,0,0-.19.61.61,0,0,0-.2-.28v-.29a1.22,1.22,0,0,0-.24-.34c0-.11-.13-.14-.08-.24s-.09-.12-.08-.21,0-.11-.06-.17-.14-.18-.1-.31,0-.06-.07-.1v-.22l-.08-.09c0-.12-.1-.2-.09-.32s-.14-.2-.22-.32v-.29s-.08-.06-.08-.08a.5.5,0,0,0-.12-.34A1,1,0,0,1,26,52c-.12-.06-.14-.2-.22-.31v-.21l-.08-.1v-.22c-.1-.06-.07-.19-.16-.25s-.13-.16-.09-.28-.08-.12-.08-.21-.07-.13-.06-.2-.07-.13-.09-.2a.44.44,0,0,0-.08-.15v-.13L25,49.62c-.05-.08,0-.19-.08-.25s0-.16-.06-.21,0-.17-.08-.25a.66.66,0,0,1-.12-.22,2.4,2.4,0,0,0-.11-.23s-.05-.07,0-.1-.14-.19-.07-.34l-.17-.12v-.19l-.08-.08v-.15l-.08-.09c0-.22-.15-.36-.23-.6v-.16c0-.06-.11-.09-.08-.17l-.15-.16c0-.07,0-.13,0-.2a.52.52,0,0,1-.12-.26c0-.11-.12-.16-.08-.28a.19.19,0,0,0,0-.07c-.08-.05-.05-.17-.14-.21a.26.26,0,0,0-.08-.25.36.36,0,0,0-.07-.24c0-.06,0-.14-.07-.21s0-.15,0-.24l-.07-.08v-.15L22.82,44v-.31c-.1-.08-.08-.25-.23-.28v-.38l-.23-.23c0-.12,0-.2-.06-.27a.28.28,0,0,1-.1-.22c0-.11-.07-.16-.09-.24s-.06-.16-.08-.25-.09-.15-.07-.24l-.08-.09v-.13l-.16-.28v-.2l-.07-.09v-.2l-.16-.29v-.13l-.08-.09v-.23l-.15-.15v-.3s-.07-.06-.07-.09-.14-.19-.1-.31-.06-.19-.15-.26,0-.1,0-.14l.07-.09V38.3l-.07-.08v-.31l-.08-.08v-.32l-.08-.07v-.23L20.62,37v-.46l-.08-.09c.05-.14-.11-.23-.07-.36-.12-.12-.07-.27-.09-.41a.31.31,0,0,1-.07-.24l-.08-.08v-.15l-.08-.09v-.39l-.06-.06c0-.07,0-.15,0-.22l-.16-.3v-.36l-.08-.07v-.39c-.1-.07-.07-.22-.2-.28,0,.12-.16.21-.11.36l.08.07v.71l.07.07c0,.11,0,.22,0,.34s-.1-.08-.16-.1v-.16l-.08-.09V33.12l-.06-.07V31.61l.12,0,.1-.11V31.1l.06-.06s0-.05,0-.07a2.61,2.61,0,0,0,0-.28l-.05-.05c-.05-.09,0-.2-.05-.31a.44.44,0,0,0,0,.27l-.07.09,0,.19h-.11s0,0,0,0V30.3l.07-.08v-.15L19.29,30v-.94L19.23,29c-.05-.1,0-.22,0-.32l.07-.07v-.27l-.1,0s0,0,0,.06,0,.13,0,.2,0,.1,0,.11,0,.17-.08.24L19,29v.15l-.08.09.09.09-.09.18v.09s0,.08,0,.11l-.06.07v.3l-.08.1v.15l.07.08v1.41l.08.09v.85l.07.07c0,.16,0,.32,0,.49l.06.06v.93l.08.1v.32l-.07.07v.31l.15.17v.39l.06,0a.45.45,0,0,1,0,.23v.19c.14.06,0,.24.15.3v.37l.16.29v.21l.08.09v.15l.07.06v.22a2,2,0,0,1,.24.49v.32l.17.17V39c.1.06.06.16.08.24s.05.16.09.24a1.23,1.23,0,0,0,.14.24v.44l.15.17-.09.1.09.17V41l.08.07v.38l.08.1v.54l.15.16v.24l-.06.06.3.59v.21l-.07.08v.16l.14.14c0,.08,0,.18.09.24v.47l.08.09v.23l-.08.08v.63l.07.06c0,.16,0,.33,0,.44a.53.53,0,0,1,.07.18c0,.06,0,.13,0,.19s.07.07.07.13a.81.81,0,0,0,0,.16l.08.09V47c.07,0,.06.15.11.19s0,.19.08.24,0,.17.06.21a.25.25,0,0,1,.06.24l.15.11c0,.2,0,.37,0,.53l.12,0,.12-.19s.07.06.07.08V49l.12.14,0-.11-.08-.1v-.15c.08-.09.15-.2.3-.22v-.9l-.12,0-.11-.12v-.68l-.23-.15v-.57L22.27,46a.29.29,0,0,0-.05-.22.44.44,0,0,1-.1-.19c0-.07,0-.16-.08-.21v-.45l-.16-.28V44.5l-.08-.09c0-.06,0-.09.06-.14s0-.08.05-.14,0,.22.12.28.09.17.11.27,0,.16.08.24a1.58,1.58,0,0,1,.13.26l.15.28v.29c.14.06.15.22.24.32s.11.25.15.37v.39c.09.08.09.21.19.28l.13.26a.46.46,0,0,0,.13.3c.07.08-.05.23.1.25v.25l.08.09v.15l.08.09c0,.07,0,.14.06.21a.41.41,0,0,1,.09.23c0,.12.14.2.08.33.18.12.2.34.32.49V50l.07.09v.18l.24.49s0,.08,0,.11l.07.09v.2l.15.29v.17l.25.46v.21l.07.08v.2c0,.08.17.13,0,.26l.19.12v.27l.08.09v.15l.08.09v.15l.08.08c0,.14.11.23.07.37.11.08.08.2.08.32l.08.09v.15l.08.09V55c.08,0,.05.14.11.19s0,.18.08.24,0,.17.06.21,0,.18.08.24.06.14.06.21l.08.09v.15l.08.09v.13c.1.16.09.36.23.49v.22l.08.09v.15l.08.09v.13l.16.28a1.21,1.21,0,0,0,0,.19c0,.07.09.11.08.2s.06.11.07.17,0,.15.08.2a.17.17,0,0,0,.08.16v.23l.08.09v.15l.07.07v.25l.15.15v.23l.08.09v.23l.16.16v.22s.06.05.06.07.12.16.1.28.11.14.08.24.1.11.07.2,0,.12.08.17.12.13.08.24.09.14.1.23.08.15.13.22.1.23.09.36.09.14.08.24a.45.45,0,0,0,.11.23c.1.14.1.32.2.46s.11.2.07.32a1.35,1.35,0,0,0,.16.29c0,.08.09.12.07.16s.09.19.09.29,0,.09,0,.1,0,.18.13.22v.16l0,0c.06.06,0,.12,0,.16s.06.08.08.13a.37.37,0,0,1,.07.2c0,.09.09.14.08.2s.07.16.08.25.12.11.08.2.12.14.09.24.07.13.07.2.07.09.08.13.11.13.08.24.11.11.08.2.07.15.13.22,0,.21.1.27c0,.12.05.19.09.28s.09.15.07.25.06.13.11.18,0,.18.12.23.08.12.09.2a.4.4,0,0,0,.12.22c.06.08,0,.22.11.27s.07.18.09.28a.52.52,0,0,0,.21.34s0,.08,0,.11a1.05,1.05,0,0,0,.13.26c.06.08,0,.19.08.24.12.29.29.56.41.85a1.4,1.4,0,0,0,.16.2.31.31,0,0,0,0,.13.59.59,0,0,0,.12.22c.07.07,0,.18.08.25s0,.11.08.15a.44.44,0,0,0,.11.09v.18l.15.15v.15c0,.09.17.11.15.24s.07.16.09.24.06.1.08.16.09.1.13.14,0,.14,0,.18a7,7,0,0,1,.37.72c.12.23.25.47.35.71.09.06,0,.15.06.23s.16.08.15.2.17.34.26.51.17.33.26.5l.21-.11.41.42s0,.08,0,.1.06.29.27.28l.19.19c0,.16.17.21.24.32s0,.13,0,.16.07.18.16.25.19.36.3.54l.23.22v.14l.39.39v.14l.36.36a.79.79,0,0,1,0,.09c0,.12.07.18.08.28s0,.06.07.09.08.06.08.08.09.12.08.2v0l.39.39v.24l.08.07V82c.09.1.2.17.23.28s.14.13.17.24a1.14,1.14,0,0,0,.15.29c.05.09.06.21.15.29s.08.2.08.32.1.17.16.25.07.2.14.29,0,.1,0,.18l.22.19v.16l.11.22.12.12v.22l.08.1v.22l.1.13-.08.11a.69.69,0,0,0,.3.37v.18l.08.09v.15l.08.09v.15l.2.2a.75.75,0,0,1,.11.22c0,.08,0,.16.08.2a.17.17,0,0,0,.05.14,1.5,1.5,0,0,1,.26.52.61.61,0,0,0,.11.23c.07.07,0,.14.06.22l.21.21a.77.77,0,0,0,.2.35S42,89,42,89s0,.11.08.16,0,0,0,.08l.31.31v.15l.08.09v.07l.31.31v.23a.34.34,0,0,1,.08.09s0,.07,0,.1l.12,0a1.76,1.76,0,0,0,.09.2,2.64,2.64,0,0,1,.15.29c0,.08.05.18.09.27s.12.11.08.2l.16.13v.16c0,.11.15.13.16.25a.82.82,0,0,0,.15.27v.14c.16,0,.24.18.36.27s.12.25.25.33.13.26.22.38h.07l.2.19v.08l.15.15v.2l.11.22a.3.3,0,0,1,.21.14v.16c.18.12.25.34.41.49s.3.29.45.44v.15a1.13,1.13,0,0,1,.18.12l1.61,1.6c.05,0,.11.08.1.16s0,0,0,0l0,0,0,0s0,0,0,0,.17.13.28.17a.8.8,0,0,1,.16.08h0l.28.28v.08l.11,0a.69.69,0,0,1,.1.17c0,.12.08.2.22.22s.08.07.12.11V99l.22.22.22.12.11-.11c-.15-.08-.16-.25-.28-.36s-.2-.2-.31-.3,0-.15-.11-.19-.13-.19-.24-.24V98c-.12-.06-.15-.19-.22-.29s0-.1,0-.19l-.17-.16a.15.15,0,0,1-.06-.13c-.09-.07-.09-.2-.18-.28a.89.89,0,0,1-.15-.29,1.17,1.17,0,0,1-.14-.3c-.15-.11-.18-.29-.27-.43s0-.14-.11-.19-.12-.11-.17-.15v-.17c-.16-.13-.2-.34-.31-.5s-.11-.11-.08-.21-.07-.11-.07-.16-.1-.14-.16-.23v-.14a.21.21,0,0,0,0-.06c-.07,0-.09-.14-.14-.21s0-.18-.13-.22-.06-.14-.11-.19,0-.12,0-.2-.12-.09-.14-.15a.32.32,0,0,0-.09-.16v-.16l-.22-.22c0-.19-.15-.31-.17-.48s-.14-.31-.27-.44-.12-.33-.28-.42v-.16L45.33,91l0-.17c0-.08-.14-.11-.15-.22s-.09-.11-.08-.2a.06.06,0,0,0,0-.07c-.08,0,0-.19-.13-.2v-.25l-.06-.06s0-.08,0-.1c-.19-.14-.18-.42-.38-.54v-.13a1.08,1.08,0,0,1-.14-.26,1.71,1.71,0,0,1-.09-.27.91.91,0,0,0-.24-.45v-.19s0,0,0,0l-.22-.23V87.4c-.09-.08-.1-.2-.19-.29s-.07-.21-.2-.25v-.24c-.1-.11-.11-.27-.24-.33v-.12a1.88,1.88,0,0,1-.24-.58L43,85.5v-.39L42.89,85v-.94L42.81,84v-.16l-.11-.11a.44.44,0,0,1-.17.23s0,0,0,0v-.48l-.33-.23.16-.15V82.6l-.07-.08v-.14c0-.06-.11-.09-.08-.17L42,82v-.29c-.08-.14-.19-.25-.17-.42l-.07-.08V81l-.08-.08v-.12l-.15-.29v-.27L41.22,80l0,0-.08-.2v-.22l-.24-.46v-.47a.67.67,0,0,1-.14-.11,1.74,1.74,0,0,0-.1-.19s0-.13,0-.18,0-.12,0-.21-.1-.08-.14-.15,0-.12-.09-.15v-.4c-.11-.07-.15-.2-.22-.33v-.51l-.09-.11V76L40,75.94V75.6l-.23-.19v-.24l-.08-.1v-.2l-.16-.29v-.2c-.08-.1-.13-.21-.21-.31a1.3,1.3,0,0,1-.18-.39v-.24l-.08-.09V73L39,73V72.8l-.07-.07v-.27l-.12-.25a.79.79,0,0,0-.09-.23c-.06-.07,0-.16,0-.22l-.13-.05V71.6l-.13-.11s-.1-.08-.1-.12-.07-.1-.08-.16V71l-.07-.09.06-.08v-.17L38,70.52a.82.82,0,0,0-.32-.45v-.4l-.08-.09v-.15l-.09-.1.09-.18v-.62c-.12.19-.05.32-.09.45s-.08-.09-.14-.09v-.16l-.09-.09v-.31l-.15-.16v-.23L37,67.86v-.4l-.07-.07v-.46l-.09-.09v-.15l-.08-.09v-.23l-.05-.06c-.06-.07,0-.19-.09-.24v-.34l-.17-.1v-.19l-.08-.09v-.23L36.31,65v-.47l0,0c0-.08,0-.15,0-.22l-.07.16h-.08c-.07,0,0-.13,0-.18a.83.83,0,0,0-.09-.16l.09-.09v-.55L36,63.35l-.08.08-.19-.21v-.46l.07-.08v-.15l-.22-.23c0-.07,0-.18-.08-.24v-.32c0-.05.14-.08,0-.18s-.1.1-.16.14l-.11-.2.06-.07c0-.13,0-.23-.11-.33a.6.6,0,0,1,0-.22l-.08-.08v-.22l-.07-.09v-.28c-.08-.14-.19-.25-.17-.42l-.07-.09c0-.2,0-.41,0-.62l0,0-.08.07-.11-.1v-.77l-.08-.1v-.31s-.14-.1-.16-.16a.24.24,0,0,0-.09-.16V56.8l-.14-.14c0-.07,0-.19-.08-.24v-.23L34,56.1v-.39c-.1-.05-.07-.19-.17-.25v-.3l-.06-.07,0-.26c-.13,0,0-.23-.15-.3v-.32l-.08-.07v-.23l-.16-.17v-.3s-.07-.07-.07-.1a.41.41,0,0,0-.08-.24.56.56,0,0,0-.06-.21s0-.15,0-.24L33,52.57v-.31l-.08-.08v-.24l-.08-.08v-.15l-.07-.08v-.25c-.13-.06,0-.23-.15-.29v-.23l-.08-.1s0-.12,0-.14-.07-.19-.16-.26v-.69l-.07-.07v-.22l-.07-.09c0-.08.12-.14.09-.26l-.22-.17a1.16,1.16,0,0,1-.11-.27c0-.06,0-.13-.08-.16V48l-.16-.28v-.13c-.06-.06-.14-.12-.15-.18s-.11-.11-.09-.2-.05-.13-.08-.22l.08-.13v-.21c-.27-.29-.3-.35-.32-.65-.11.05-.13.05-.14.13s-.12.11-.09.2a.23.23,0,0,0-.08.16s-.07.07-.11.11,0,0,0-.06a1.21,1.21,0,0,0,0-.19s-.06-.08-.08-.13a.75.75,0,0,1,0-.15l-.12,0s0,0,0,0v.39c.08.06.07.18.15.25s0,.1,0,.15l-.06.06a.6.6,0,0,0,.22.32v.46L31,48v.21l.06.07v.5l-.1,0a.76.76,0,0,1-.23-.3l-.06-.13s-.09,0-.12-.06-.16-.13-.18-.2-.16-.14-.24-.21v-.16L30,47.63v-.16c-.14-.1-.17-.28-.3-.38,0-.1-.1-.14-.1-.24s-.15-.1-.15-.21a2.65,2.65,0,0,1-.31-.52V46L29,45.76c0-.13-.08-.23-.11-.35l-.12,0a1.4,1.4,0,0,1,0-.36c-.07-.06-.17-.12-.21-.21a.61.61,0,0,0-.18-.24v-.24c0-.05.11-.07.08-.16s-.15,0-.21,0a.44.44,0,0,0-.1-.19l.07-.08c0-.11-.08-.13-.12-.19h-.16c-.06-.05,0-.12-.05-.2l-.06-.07v-.15l-.08-.09V43l-.08-.09v-.2l-.12-.22h-.07l-.12-.12v-.3l0,0c-.09-.13-.14-.28-.22-.42s0,0,0-.08-.07-.1-.12-.14a.68.68,0,0,1-.19-.39c0-.08-.11-.11-.08-.2s-.18-.14-.21-.23-.12-.16-.18-.25v-.11a.86.86,0,0,0-.23-.34v-.15a1,1,0,0,1-.15-.21c0-.1-.12-.13-.16-.21a.4.4,0,0,0,0-.11.53.53,0,0,0-.08-.17l-.23-.27v-.14l-.08-.09v-.15L25,38.07v-.23c-.06-.05-.07-.14-.11-.19s0-.12-.06-.17a1.6,1.6,0,0,0-.1-.23c-.06-.11-.11-.23-.17-.32s0-.13,0-.23l-.22-.18v-.15l.1-.19-.18-.09a.57.57,0,0,0-.07-.34c0-.09-.13-.12-.16-.21v-.19a2.29,2.29,0,0,0-.19-.35,2.11,2.11,0,0,0-.21-.31v-.31l-.15-.15v-.47a.75.75,0,0,1-.15-.16c0-.06,0-.12-.09-.15V33.2l.14-.13.08.12a1.31,1.31,0,0,0,.12.27,1.94,1.94,0,0,0,.21.2v.17a.26.26,0,0,1,.08.21.06.06,0,0,0,0,0l.14.14v.07c.08.05.18.08.23.17v.13l.2.38h.07c.05.11.14.21.12.34l.08.09v.3c.13.19.18.43.39.55v.17a1.36,1.36,0,0,1,.41.64l.3.14v.55c.11.11.11.11.22.1l0-.18.11-.11c.1,0,.13.07.2.1v.24c0,.08.11,0,.2.05l.2.2a.66.66,0,0,1,.14.26.36.36,0,0,0,.08.12l.52.52.09,0c.05-.05,0-.12,0-.18s.18,0,.27,0l.12.11v.17c-.09.06-.18,0-.29,0l0,.14a2.25,2.25,0,0,0,.36,0l.09-.07c.05.09.17.12.19.24s.1.14.08.24.08.24.21.3h.14a1.36,1.36,0,0,1,.17.17c.06.08.18.05.22.14h.16l.39.39h.08l.11.12V41l.11.11h.13l.24.25c.14-.06.17.12.27.07s.17.12.2.23a1,1,0,0,0,.11.23H31l.27.28.12.26.19.19v.34l-.24.1H31a.93.93,0,0,0-.3.37c0,.1.14.17.06.32l-.22.22c-.07.06-.19.06-.24.19l.07.12-.09.18-.1,0c0,.06,0,.14-.11.18v.13l.12.22.09-.08.05.15h.09s0,0,0,0v-.39a.34.34,0,0,0,.08-.09s0-.07,0-.11H31l.27.15h.14l.21.22c.1,0,.21.05.29,0s.12,0,.19,0l.12.11v.39l.16.16v.18l.25.2c-.07.15.09.23.07.35l.12.26a.52.52,0,0,0,.27.19v.08l.2.2h.31l.08-.08h.15l.09.07h.37l.13-.08.63.63h.11c.12.06.11.2.2.27a1.2,1.2,0,0,1,.22.23,1.74,1.74,0,0,0,.1.19.72.72,0,0,1,0,.15l.31.26v.2c-.05.07-.13,0-.17,0l-.14-.08c0-.07,0-.15,0-.23h-.12c0,.09-.05.16,0,.22h.11a.94.94,0,0,0,.19.39L36,49h.17a.58.58,0,0,0,.05.14.86.86,0,0,0,.14.13v.33c.25.16.29.47.46.7,0,0,0,.1,0,.15l0,.06c0,.09-.11.16,0,.25s-.19,0-.18.23l-.07-.23.18-.14s0-.11,0-.11c-.17,0-.19-.15-.25-.25h-.08c-.08.11,0,.25-.05.37l-.07,0c-.12,0-.14-.13-.18-.23h-.2l-.23-.11,0-.18c-.08-.06-.17,0-.27,0l-.08.17-.05-.15c-.06,0-.12,0-.18,0s-.11.13-.16.25l-.06-.15c-.07,0,0-.12,0-.19s0-.16.09-.2.06-.14.07-.24l-.25-.2c0-.12-.06-.16-.11-.22l-.1.12.06.08v.14l.08.09v.29l-.11.21c-.06.12-.06.14,0,.24a.59.59,0,0,0,.06.14s.07.07.06.14-.19,0-.28,0l-.11.11v.39c.09,0,0,.17.14.19s.15-.15.21-.23l0,0a.76.76,0,0,1,0,.15l-.08.09v.15l-.08.09V52a.65.65,0,0,1,.16.37.21.21,0,0,1,0,.06l0,.08.09.13v.21c.1.13.13.29.24.42v.38l.07.07v.36c.08.13.11.27.24.34v.15l.15.26v.3l.24.24v.22c.1.13.14.29.23.42a.15.15,0,0,1,0,.11c.12.26.41.24.55.43s-.06.11-.08.17V57l.07.09v.2a1.57,1.57,0,0,0,.13.23l.19.19v.16l.07.07v.59l.17.32v.36l.07.07v.23c.1.06,0,.2.16.24v.37l.16.29V61l.07.07v.56l.16.13v.18c.09,0,.06.16.14.22a1.26,1.26,0,0,1,.2.2l-.1.14a.26.26,0,0,0,0,.17c.09,0,0-.07.06-.1s0,0,.36,0l.09.09s0,0,0,0-.22.08-.28.2v.39l.06.06c.05.08,0,.17,0,.26l.08.08c0,.06,0,.12,0,.19s.1.22.17.32,0,.12,0,.2.23.32.46.37v.13c0,.12.18.14.16.27a.22.22,0,0,1,.08.24c.06.12.2.11.27.2h.2a.2.2,0,0,0,.13.14s.05-.1,0-.14h-.11v-.2l-.07-.07v-.17L39.37,65v-.31l-.08-.08v-.33l-.16-.11v-.59l-.13,0-.1-.23V63l-.19-.12.1-.19s0,0,0-.06-.07-.09-.11-.1a.35.35,0,0,1-.25-.22c0-.08-.15-.16-.06-.32l.18-.14s0,0,0,0,.05.09.09.12.14,0,.19.11.1.1.1.15.12.11.09.21.05,0,.08.08v.44l.15.28v.29l.33.29c0,.13.1.17.08.27l.22.22c0,.13.11.17.16.26v.22l.08.09v.35l.23.45v.12l.08.09v.21l.16.28v.19l.15.28v.2l.08.09s0,.13,0,.15.06.19.15.25v.23l.14.14,0,.27c.11,0,0,.18.09.23s0,.17.08.25.08.15.13.23v.18l.15.29v.19a1,1,0,0,1,.17.37c0,.09.07.18.08.28s.1.17.15.26.07.23.07.35.16.19.07.31l.09.1v.15l.08.09v.15c.11.06.07.16.09.24s0,.17.08.24.09.15.14.24v.22l.08.08v.16l.08.08c-.06.13.08.21.09.32s.09.2.08.32,0,.23.14.29v.23c.1.06.07.2.16.25v.22s0,0,.06.07c.06.18.19.32.2.51,0,0,0,0,.06.06v.23c.09.06.08.17.15.25s0,.15.06.21,0,.12.09.16.19.29.17.48.07.15.13.22a.28.28,0,0,0,.17.07v.47l.08.11,0,.24.06.07V78a.65.65,0,0,1,.22.3.54.54,0,0,1,0,.19c0,.05.12,0,.18,0l.09-.07a.6.6,0,0,1,.11.34l.08.09V79l.16.15v.14c-.06.06-.13,0-.19,0a.09.09,0,0,0,0,.15.46.46,0,0,0,.07.07l.11-.07.48.48v.26l.08.09v.15l.23.23a.45.45,0,0,0,.09.31,1.09,1.09,0,0,0,.23.25,1.22,1.22,0,0,0,.16.37,1.49,1.49,0,0,0,.2.31,3.84,3.84,0,0,1,.18.35s0,.08,0,.16l.26.18h0l0,.11.07.08v.31l.22.22c.05.11,0,.19-.06.28a.19.19,0,0,0,0,.07c.08.12.23.15.32.25s.1.23.18.32a1.65,1.65,0,0,1,.18.32s0,.06,0,.06.19.06.21.18.17.13.15.25.08.18.16.26,0,.09,0,.14l.12.12h.15l.09-.08c.09,0,.13.07.19.12a.38.38,0,0,1,0,.1.89.89,0,0,0-.13.35,1.15,1.15,0,0,0,.22.23l.17-.17h.06c.05.08,0,.18,0,.26s.23.12.32.24a.65.65,0,0,0,0,.14s0,.05.07.09a.24.24,0,0,0,0,.13s0,.07.05.13l.29.28a.37.37,0,0,0,.09.28c0,.11.09.17.07.28s.27.08.35.19.11.22.17.32h.08c.06.09.2.13.19.27l.22.22.25.23v.23c0,.09.13.14.2.22l.19.19c0,.08,0,.12.08.16v.16a.83.83,0,0,0,.17.16.64.64,0,0,1,.22.14l.16.17c0,.14.11.23.08.36l.17.32,0,0c.06.06.14.11.2.18s.08.15.13.23V92l.25.25,0,0,.1.17v.14a.52.52,0,0,1,.19.27h.16c0,.06.13.1.12.21l.3.29c0,.15.18.17.18.32s.08.1.13.14a.9.9,0,0,1,.25.36c.05.13.17.19.19.23.12.25.18.45.41.5a1,1,0,0,0,.13.22c.07.07.09.18.17.24a1.89,1.89,0,0,1,.2.2v.07c.06.06.16.06.22.14a.92.92,0,0,0,.22.22c.1.06.09.18.16.25s0,0,.18,0a.75.75,0,0,0,0-.15s-.06-.08-.07-.12,0-.11,0-.15-.06-.08-.07-.13-.05-.09-.07-.13a.68.68,0,0,1-.08-.15V95.3l-.08-.08v-.16a.67.67,0,0,1-.23-.34c0-.07-.11-.11-.08-.2l-.16-.17s0-.09,0-.11A1.3,1.3,0,0,0,56,94c0-.07,0-.19-.09-.24a.47.47,0,0,0-.11-.26.47.47,0,0,1,0-.22l-.14-.14c0-.06,0-.14,0-.21s-.21-.47-.36-.68c0-.09-.08-.12-.12-.18s0-.11-.08-.16l-.08-.17c0-.06,0-.14-.11-.19s-.06-.11-.09-.15-.17-.4-.36-.52a.44.44,0,0,0-.17-.25s0-.07,0-.11v-.12L54,90.17V90l-.15-.15v-.2a2.6,2.6,0,0,0-.13-.24l-.19-.19v-.14l-.16-.27c0-.12-.06-.19-.08-.28a2.52,2.52,0,0,0-.15-.27v-.14L53,88v-.24a.3.3,0,0,1-.08-.16.92.92,0,0,0-.14-.14v-.19l.11,0a.91.91,0,0,0,.09.17s.1.07.1.11a.19.19,0,0,0,.09.16v.24c.12.06.13.21.22.3v.26l.24.19v.23c.07.09.09.2.17.29a.9.9,0,0,1,.17.32.66.66,0,0,0,.2.27v.3l.25.22v.22l.14,0s0-.09,0-.12-.08-.07-.07-.09-.08-.18-.08-.28a.85.85,0,0,1,0-.16c-.09-.1-.1-.26-.24-.33v-.39l-.08-.09V89L54,88.86s0,0,0,0a1.55,1.55,0,0,1,.12-.22h.07l.51.5v.16c0,.06-.08,0-.14.06l0,.11-.07.07.19.19a.79.79,0,0,0,.14-.37c.17,0,.17,0,.44.14l.24-.11v-.71l.07-.07v-.33l-.06-.07v-.62c-.1-.06-.06-.2-.17-.24l.08-.08v-.38l-.15-.15.08-.12v-.37l0,0c-.07-.05-.11,0-.17.06L55.05,86v-.64l-.32-.63v-.2l-.07-.08c0-.08,0-.12.06-.15s-.12-.24,0-.4l-.17-.12v-.19l-.08-.08v-.47L54.34,83c0-.08,0-.17-.07-.21v-.72L54,81.88v-.22l.09-.1-.19-.36a.52.52,0,0,0,.16-.17s0-.12.09-.15v-.26L54,80.48v-.27a1,1,0,0,0-.25-.35v-.47l.16-.16L53.64,79v-.23l-.08-.09v-.46l-.08-.09v-.31l-.08-.09V77.5l-.09-.09V77L53.25,77l0-.33c-.11-.06,0-.17-.09-.24l0-.06v-.39L53,75.85v-.13l-.15-.27v-.82l-.08-.11v-.24l-.16-.12v-.49l.08-.11s0-.07,0-.08l-.2-.21V73.1l.16-.12-.14-.24c0-.06,0-.12,0-.19a1.18,1.18,0,0,1,0-.19l.15-.16c0-.08-.1-.11-.15-.19v-.08l-.14-.05-.16-.16c0-.09,0-.18.06-.25V70.9L52,70.79l0,0-.1-.17v-.29l-.06-.07v-.33a.91.91,0,0,0-.11-.24c-.07-.06-.05-.14-.06-.21s0-.06-.08-.09V69L51.59,69v-.32l-.08-.08v-.24c-.1,0,0-.18-.09-.23s-.05-.19-.06-.29a2.08,2.08,0,0,1,0-.25l-.08-.09v-.31l-.08-.07v-.31l-.08-.09v-.29L51,66.12v-.2c-.08-.11-.1-.26-.24-.32v-.33c-.11-.07-.15-.19-.23-.33v-.41l-.16-.3v-.67l-.08-.09v-.39l-.16-.17c0-.1,0-.16-.07-.25s0-.15,0-.21l-.09-.08v-.71l-.07-.07v-.23l-.08-.09V60.8l0,0c-.06-.1,0-.19,0-.27s.15,0,.22,0l0,0V61c.06.07.15.15.23.23v.15l.08.09v.15l.08.09v.46l-.09.11.09.17v.1c0,.05,0,.1,0,.14a.23.23,0,0,1,0,.1s0,.1,0,.12l0,0v-.63l.08-.09v-.42l-.15-.11.1-.12.13,0v-.33s-.11-.07,0-.18l0-.06v-.17l.14,0,0,0v-.78l-.07-.06c.06-.1.08-.23.2-.29s.13.07.18.12v.31l.08.07v.16c0,.06.14.1.07.2l.32.32V61l.14.14c0,.06-.07.09-.11.13l-.06-.06c-.07,0-.08.08-.13.09v.25c.07.07.07,0,.13,0h.14l0,.05V63l.07.09v.15l-.09.11c-.08,0-.08-.09-.14-.1v-.19h-.14v.36l.26.27.19.39v.35l.09.08v.39l.07.07v.23l.08.09v.31l.08.09v.15l.06.06a.87.87,0,0,0,.1.31,1.55,1.55,0,0,0,.12.22c.07.07,0,.16.06.21s0,.17.13.23,0,.1,0,.14l.08.09v.21s.08.08.07.11a.92.92,0,0,0,.08.25c0,.08.12.13.09.24s.11.11.07.2.08.15.14.22,0,.21.1.27.13.17.08.28c.1.12.12.3.23.42v.21s.08.07.08.11.11.13.09.24,0,.14.07.2a.35.35,0,0,1,.08.24s.08.06.08.13.1.11.07.2.12.14.09.24.05.14.11.19,0,.16.06.21,0,.14.1.19,0,.14.11.19c0,.2.14.34.2.5l0,0v.21l.17.28v.13c.05.06.14.12.14.18s.1.14.1.24a.71.71,0,0,0,.1.31,1.64,1.64,0,0,0,.21.39v.22l.14.15c0,.08,0,.18.08.24s.08.12.09.2.07.11.07.16a.54.54,0,0,0,.08.21,3.18,3.18,0,0,0,.16.32c0,.13.13.22.08.36s.06.16.13.22a.28.28,0,0,1,.11.15,3.81,3.81,0,0,0,.23.45.48.48,0,0,1,0,.12l.39.38c0,.07-.12.12-.07.17s.06.19.15.25v.22c.06.07.14.12.15.19s.16.14.24.21v.47l.12.1.16-.08.08.29h0v.33l.07.07v.3c.17.22.19.52.44.68,0,0,0,0,0-.06a2.89,2.89,0,0,0-.15-.31s0-.11,0-.16.1.18.19.25.1.17.17.25v.24l-.16.07c0,.11.11.14.1.24s.06.08.11.14l0-.25h.1c.07.08,0,.18,0,.27l-.07.08c0,.09,0,.18,0,.29l.13-.21.3.41v.14l.07.08c-.1.06-.08.15-.06.24s.16-.12.33,0a.33.33,0,0,0,0,.18l.24.19c-.07.15.07.23.07.34s.18.22.32.27a.34.34,0,0,1,.2.17.62.62,0,0,0,.2.27c.08.08.15.18.27.2s.18.12.18.24l.35.36c.13,0,.17.11.24.17a4,4,0,0,0,.43.39c.18.09.28.26.44.39h.23l.22.22c.08.08.14.17.27.19s.29.16.38.31l.09.06.24.11.24.27v0l.23.12h.26l.29.29a1.37,1.37,0,0,1,.43.17l.22.22a.39.39,0,0,0,.19.12.52.52,0,0,1,.22.14c.05.06.13.07.19.11a3.18,3.18,0,0,1,.32.16c.06,0,.15,0,.19.11s.14.07.19.12.14,0,.2.1.1,0,.12.06.3.11.35.28h.16c.06,0,.09.11.17.08l.13.13c.08.06.18,0,.25.09s.15,0,.21.06.17,0,.29,0l.18.22c.15,0,.24.12.36.1s.19,0,.31.08l.25.14h.13l.09.08h.16c.1.18.32.18.47.31h.3l.09.08h.22l.09.08h.36l.16.08.12.07h.26a1.73,1.73,0,0,1,.24.13,1,1,0,0,0,.31.19,1.55,1.55,0,0,1,.32.2,1,1,0,0,0,.21.11h.28l.09.08h.62l.09.08h.15s.06.07.09.08H75s0,.06.09.07h.14l.09.15h.2c.09.05.12.15.22.16s.11.09.2.1.1.13.21.15.12.09.18.15h.11c.11,0,.21.14.33.14s.29.21.5.16a2.73,2.73,0,0,1,.23.25.58.58,0,0,0,.29.15.73.73,0,0,1,.39.21,1.16,1.16,0,0,0,.2.18c.06,0,.14,0,.2.08s.22.11.31.21a2.56,2.56,0,0,0,.26.2c.08.06.15.15.23.22s0,0,.08,0l.27.27s.07.11.11.11c.21,0,.2.2.28.31s.09.23.19.32a1.26,1.26,0,0,1,.13.23v.18l.2.39c0,.06.11.1.12.19s.11.11.16.17a1.64,1.64,0,0,1,.14.22s0,.1,0,.15l.07.09v.15l.06.05c0,.09,0,.18,0,.27l.06.06v.22l.09.12v.22l.08.09v.39l.07.07V98l.08.09v.7l0,0s0,0,0,0v.54l.07.07v2.6l-.07.07v.32l-.07.07v.78c.1.12.12.28.23.4V105l-.07.06v.22l-.08.11v.18c-.09.18-.17.33-.24.49s0,.07,0,.11l-.08.09v.46l-.07.07V107a.48.48,0,0,0-.08.19.44.44,0,0,1-.07.17s0,.13-.09.15v.4L81,108v.23c-.08.08-.18,0-.28,0l-.11.11v.39l-.16.16v.38a.53.53,0,0,0-.11.21h-.16a.62.62,0,0,1-.18-.18,2.77,2.77,0,0,0-.26-.48c0-.11,0-.19-.08-.28a.18.18,0,0,0-.15-.15.16.16,0,0,1-.14-.12c-.07-.2-.25-.28-.37-.43a.18.18,0,0,1-.16-.08H78.6s0,0,0,.06,0,.29,0,.44l.07.08a.41.41,0,0,1,0,.19h-.54c-.12.09-.28.11-.33.25h-.17l-.09-.08H76.25l-.06.06-.07,0h-.94c-.09.07-.23.07-.29.2.12,0,0,.19.11.27s0,.2,0,.29a.78.78,0,0,0,.26,0l.08-.07c.12.07.11.23.23.3h.47c.09.09.2.16.22.3a.35.35,0,0,1,.11,0l.06.06h.38l.09.08H77l.09-.08h.39l.08.08h.23l.06.05,0,0h.73a1.12,1.12,0,0,0,.18.08,1.66,1.66,0,0,1,.33.15c.08.1.2.16.22.3l.21.2c0,.08,0,.15,0,.18s-.1.28-.22.38c0,.14-.13.25-.09.39s-.06.16-.13.22-.11.11-.17.17,0,.14,0,.21-.09.2-.15.29-.11.16-.16.25a.43.43,0,0,0,0,.21s-.13.08-.13.14-.08.13-.1.2a.49.49,0,0,1-.11.23,1.91,1.91,0,0,0-.39.62l-.1,0c0,.12-.14.21-.12.33l-.18.21h-.1l0-.23c-.07.06-.06.16-.14.2l-.22.11H76.8c-.06,0,0-.16-.13-.21a.41.41,0,0,1-.17-.24c0-.1-.15-.08-.22-.14s-.17-.06-.22-.16,0-.11,0-.13,0-.2-.1-.27,0-.12-.08-.17l-.08-.08h-.16a.6.6,0,0,1-.08-.08l-.21-.42.09-.1c0-.06,0-.12,0-.18s0,.17-.11.15-.12-.07-.18-.11v-.23l.17-.31c-.1-.12-.22,0-.3-.07l-.25-.16c0-.14-.08-.24-.11-.37h-.25l-.13-.12v-.17c-.12-.12-.26-.25-.38-.38s-.17-.12-.18-.24-.09-.09-.12-.14-.12,0-.17-.08a.9.9,0,0,1-.27-.2H72.9c-.1-.1-.24-.17-.23-.33h-.09a2.38,2.38,0,0,0-.27-.22l-.13-.08c-.08,0-.18,0-.24-.08s-.17-.08-.2-.19,0-.08-.07-.13,0,0,0,0l-.13,0a.33.33,0,0,0-.13-.07.21.21,0,0,1-.14-.17.17.17,0,0,0-.09-.11.76.76,0,0,1-.3-.23l-.19-.19c-.1,0-.13-.07-.21-.09s-.15-.13-.23-.19v-.09l-.11,0-.12.17h-.35l-.08.08h-.54a.83.83,0,0,0-.23-.14.55.55,0,0,1-.28-.09c-.12,0-.17-.1-.29-.08l-.19-.19a1.08,1.08,0,0,0-.22-.12h-.2l-.09-.08H67.4l-.09-.08h-.86l-.21.22s0,0-.06,0-.18-.19-.27-.27h-.25l0,.14c-.17.06-.27-.07-.46-.14H65l-.1-.08H64.5l-.09-.08H64.2l-.28-.16h-.28c-.12-.14-.33-.12-.5-.23H63L62.5,107h-.61c-.1-.19-.32-.2-.47-.32h-.69l-.07-.07c-.15,0-.32,0-.49,0l-.06-.07H59.9a1.16,1.16,0,0,0-.26-.15c-.08,0-.19,0-.24-.09h-.23l-.06,0-.07,0h-.27l-.09-.08c-.15,0-.25-.08-.41-.15h-.22c0,.06,0,.1,0,.14a.73.73,0,0,0,.39.17l.09.08h.2c.08,0,.14.1.24.08s.18.07.28.09.19,0,.2.14h.33c.06.12.2.14.3.22s.16.17.25.25h.23c0,.06.13.09.12.18s0,0,.05,0,.17.14.28.08.15.06.19.11a3.37,3.37,0,0,0,.31.21h.62l.06.06c.06,0,.16,0,.21,0s.12,0,.18,0,.1,0,.11,0,.21,0,.27.11l0,0h.23l.09.08h.31l.07.07h.17l.06.07h.38l.11.09h.23l.07.07h.45l.28.16h.22a.26.26,0,0,0,.16.09s.09.09.14.13.19,0,.24.09h.55l.09.08h.3l.09.08h.39l.06.06,0,0h.61l.07.07h1.09l.09.08a.51.51,0,0,1,.25,0c.07.05.15,0,.2.1s.12,0,.18,0,.06.07.13.08a.15.15,0,0,1,.15.14.11.11,0,0,0,.08.12c.2.08.31.27.47.39v.09l.16.08s.09.1.15.11.09.08.15.1v.16c.12.1.31.13.33.33,0,0,.09.1.13.14.35.34.69.69,1,1,.09.08.16.2.3.22a.26.26,0,0,1,.13.14c.08.19.25.29.36.44a.76.76,0,0,0,.17.32l.37.36a.26.26,0,0,1,.1.16.14.14,0,0,0,.09.11c.19,0,.28.22.41.34s.13.16.25.16,0,0,0,.06a1.2,1.2,0,0,0,.19.27,3,3,0,0,1,.25.25s0,0,0,.08.2.21.31.3.1.27.25.31v.17l0,.06c.07.16-.06.25-.1.37H76.1l-.2.2c0,.11-.08.15-.14.22l-.19.19c-.06.06-.12.13-.22.11v.1l-.67.67c-.12,0-.16.11-.24.17a1.31,1.31,0,0,1-.24.17c-.09,0-.14.15-.21.22s-.12,0-.15,0-.18.19-.32.18-.22.07-.28.18,0,0,0,0A1.31,1.31,0,0,0,73,119a2,2,0,0,1-.24.16c-.15.09-.33.13-.44.28a2.77,2.77,0,0,0-.46.22c-.18.09-.38.16-.55.26s-.37.18-.55.29-.13,0-.18,0-.1.08-.17.07-.17.13-.28.08c-.07.1-.18.07-.27.1s0,0-.06.06h-.23l-.09.08h-.15l-.09.08H69l-.08.07c-.09,0-.19,0-.24,0a.25.25,0,0,1-.21.06c-.09,0-.13.07-.2.08s-.16,0-.21.08h-.55c-.07.13-.22.15-.33.23s-.1,0-.14,0l-.07-.07h-.63a.34.34,0,0,1-.24.07l-.08.08h-.15l-.09.08h-.23l-.08.08c-.07,0-.13,0-.19,0s-.44.22-.65.33a.53.53,0,0,1-.19,0l-.07.07h-.2A.41.41,0,0,1,64,122c-.06,0-.12,0-.16.08h-.42L63.4,122H63l-.08.08h-.86l-.06.07h-.32l-.08.08H60.11c-.1.1-.19.13-.28,0s-.13,0-.2,0l-.11.16h-.2l-.08.07c-.14,0-.31,0-.48,0l-.07.07h-.31l-.08.09h-.47l-.08.07h-.62l-.09.08H56.5l-.09.08h-.78l-.05.06-.07,0H54.06l-.07-.07H53c-.06,0-.12.12-.2.14s-.11.12-.2.09a.27.27,0,0,1-.24.08l-.09.08h-.7l-.06.06h-.32l-.08-.06c-.08,0-.17,0-.24.07h-.47l-.11-.11,0-.18a.42.42,0,0,1-.19-.09L50,123h-.28l-.29.16H49.2l-.08-.07h-.23l-.08.07H48.6l-.26-.13c-.12,0-.23.16-.43.13l-.3-.32-.31.16h-.21l-.08-.07h-.09c0-.26-.28-.24-.42-.36v-.07l.15-.15V122c-.06-.06-.13,0-.19,0l-.07.07H46l-.12.23v.28s0,0-.26,0l-.21.23H45l-.06-.06c-.08,0-.21,0-.27-.1s-.18,0-.22-.08l-.08.08h-.42l0-.29-.11,0c-.09-.13-.12-.32-.27-.42v-.21l-.15-.29v-.28c-.06-.06-.13-.1-.15-.16s0-.12-.09-.15v-.24c-.1-.06-.08-.18-.16-.25a.66.66,0,0,1-.15-.23V120l-.11-.21-.29-.14.08-.09v-.13c0-.09-.13-.14-.21-.23l-.18.09h-.44c-.05.1-.13.08-.24.08l-.18.2c0,.13.1.16.15.23v.14c0,.07.09,0,.13.07l.26.26v.48l-.07.07v.38l.15.27v.37l.06.06s0,0,0,.08l-.06.13a1,1,0,0,1,0,.12l.32.23-.15.29c0,.09.15.14.1.27l-.16.11h-.14l-.07-.07H41l-.08-.08h-1l-.07-.08h-.55l-.08-.08h-.24l-.08.08h-.47l-.07-.07h-2.9l-.08-.09h-1l-.08-.07h-.62l-.09-.08h-.15l-.08-.08h-.47l-.08-.08c-.09,0-.12.06-.17.08h-.18c-.08,0-.17,0-.21-.1s-.14-.05-.22-.06l-.09.08h-.23l-.08-.08h-.47l-.05,0s0,0,0,0H29.55l-.28-.15H29l-.11-.16h-.58l-.08-.08h-.63l-.06-.06-.06,0h-.35l-.07.07h-.63l-.08-.06h-.3l-.1-.08h-.14l-.09-.08h-.31l-.09-.08h-.15l-.06-.06c-.07,0-.19,0-.24-.08l-.26,0-.06-.06h-.3l-.1-.09s-.12,0-.14,0-.2-.06-.26-.15h-.31l-.05-.06c-.08,0-.15,0-.25,0l-.09-.07-.16,0-.07-.06H22.4l-.09-.08h-.15l-.09-.08h-.32c-.16-.26-.47-.31-.71-.48h-.27l-.44-.22h-.18l-.29-.17h-.53l-.27-.29v-.06l-.19-.11c-.07,0-.15,0-.22,0s-.14,0-.18-.11-.12-.1-.21-.08-.12.16-.23.07l-.22-.23h-.12a.59.59,0,0,1-.17-.24c-.05-.08-.05-.2-.2-.24l-.11.08c-.05-.08-.18-.06-.24-.15a.86.86,0,0,1-.35-.19.94.94,0,0,0-.22-.12c-.12-.06-.12-.06-.19-.23H16l-.22-.23h-.29a2.6,2.6,0,0,1-.24-.13c-.06,0-.09-.12-.19-.12s0-.08-.06-.14h-.26l-.08.08,0-.13,0,0,0-.27-.5-.5h-.23l-.09-.08h-.15c-.08-.09-.22-.08-.28-.19s-.16-.12-.24-.17-.06,0-.05,0-.1-.13-.17-.17a1.41,1.41,0,0,1-.52-.35s0,0-.07,0l-.06,0,.17.1v.21l-.08,0c-.2-.09-.23-.32-.39-.43v-.22c0-.07-.11-.09-.08-.17a.57.57,0,0,1-.35-.36H11.2l-.2-.11-.09-.17.13-.14L11,114l-.24-.24s0,0,0,0,0,.12,0,.18l.08.08c-.12.15-.17-.11-.27,0l-.13-.24v-.29c-.16-.07-.26.07-.38.11v.16l-.13,0-.23-.26c-.07-.08-.22-.07-.27-.2v-.16l-.13,0-.18-.2v-.13l-.11-.12H8.74l-.34-.34a2,2,0,0,1-.28-.35,2,2,0,0,0-.36-.35v-.1l-.46-.47V111l-.3-.31c0-.1-.13-.13-.09-.24l-.15-.15c0-.13.1-.16.14-.23l-.09-.19a.09.09,0,0,0-.13,0c0,.07-.12,0-.2.05s-.1-.09-.11-.14-.08-.12-.13-.18-.16-.12-.22-.22-.06-.19-.16-.25-.06-.15-.14-.22a.74.74,0,0,1-.16-.32,2.21,2.21,0,0,1-.17-.16,2.3,2.3,0,0,1-.12-.23V108s-.08-.1-.14-.12a.26.26,0,0,1-.19-.2c0-.08-.1-.14-.12-.22s0-.15-.12-.19,0-.18-.14-.22v-.15l-.08-.09v-.13c-.15-.24-.21-.55-.45-.7a5.42,5.42,0,0,1-.35-.83l-.06-.06V105c0-.08-.07-.15-.11-.21s-.11-.1-.13-.19a.6.6,0,0,0-.15-.18V104l-.08-.09v-.15l-.06-.06a.89.89,0,0,0-.17-.42v-.35l-.16-.29v-.13l-.08-.09v-.15l-.15-.15c0-.12-.06-.22-.1-.34s-.09-.14-.14-.21-.13-.14-.08-.24a.26.26,0,0,1-.09-.16c0-.06-.09-.1-.14-.14a1.07,1.07,0,0,1-.17-.37.67.67,0,0,0-.22-.34v-.26l-.16-.1V99.7l-.08-.09v-.15l-.08-.09v-.15s-.08-.06-.08-.09a.48.48,0,0,0-.07-.24c0-.07,0-.14-.07-.21s0-.18-.09-.24v-.15L.87,98.2V98L.8,98v-.24l-.08-.08,0-.25-.06-.06,0-.34c-.12-.06,0-.24-.14-.29v-.16l-.09-.09v-.31l-.07-.07c0-.12,0-.26,0-.4l-.06-.07V94.38l-.09-.11v-.62l-.07-.07v-.23L0,93.26V91.85l.08-.08v-.55L0,91.16a.46.46,0,0,1,0-.26l.06-.06v-.46l.08-.1v-.37l.09-.1v-.14l.08-.09v-.31l.08-.09V89c.08,0,.07-.13.08-.21s.09-.11.08-.2a.24.24,0,0,1,0-.21s0-.15,0-.23,0-.19.15-.25.09-.16.08-.28A.42.42,0,0,1,1,87.35a1.7,1.7,0,0,0,.15-.22c.05-.07,0-.15.05-.21s.12-.24.19-.35.06-.16.13-.23a.33.33,0,0,0,.14-.21c0-.11.11-.14.14-.22A.41.41,0,0,1,2,85.68v-.19l.23-.18v-.13c.13-.06.13-.21.22-.29l.25-.25v-.08L3,84.25c0-.16.16-.22.25-.32s.2-.21.3-.31v-.08L4,83l.11,0,0-.11.11-.1h.06l.27-.24c.13,0,.15-.18.28-.16l.26-.23h.12a.26.26,0,0,0,.15-.2c0-.06.12-.1.15-.17a1.26,1.26,0,0,1,.13-.26.74.74,0,0,1,.17-.18A2,2,0,0,1,6.06,81a.3.3,0,0,1,.26-.2.41.41,0,0,1,.3-.14c.1,0,.16-.12.28-.09s.11,0,.16-.08l.46-.22.22,0c.06-.14.25,0,.28-.14h.23l.19-.1a.29.29,0,0,1,.24,0h.14l.08-.07h.46c.12-.08.12-.21.21-.29a.86.86,0,0,0,0-.16c0-.08.06-.1.08-.16s0-.12,0-.15a.32.32,0,0,0,.06-.17s0-.09.07-.16v-.12l.08-.09v-.23l.07-.07V78s.09-.08.09-.11,0-.16.07-.24,0-.14.07-.21,0-.18.09-.24V77l.16-.27v-.2a1,1,0,0,0,.08-.11c0-.06,0-.13,0-.18s0-.09,0-.14a1.56,1.56,0,0,1,.07-.17v-.19l.08-.09v-.23l.08-.09v-.15l.07-.07s0-.13,0-.17A.24.24,0,0,0,11,74.7c0-.06.1-.08.08-.16s0-.13.07-.16v-.24l.08-.09V73.9l.09-.09v-.23l.07-.08c0-.08,0-.17.07-.22V73c.08-.14.19-.26.17-.42l.08-.09v-.31l.08-.08v-.15l.08-.09v-.31s.05,0,.05-.06.15-.3.09-.47l.09-.09v-.23l.08-.09v-.31l.07-.07V70l.08-.09v-.31l.08-.08v-.24l.08-.07V69l.08-.09v-.23l.08-.09v-.23l.08-.09v-.38l.06-.07v-.22l.09-.1v-.22l.08-.1v-.22l.08-.09v-.31l.08-.08v-.32l.07-.07v-.31l.08-.08v-.32l.08-.08V65l.08-.08v-.22l.08-.1v-.3l.08-.09v-.31l.07-.07v-.31l.08-.08V63l.09-.11v-.23l.07-.07v-.39l.08-.09v-.3l.08-.09v-.47l.07-.07v-.31l.08-.09v-.31l.09-.08V60l.07-.08v-.3l.08-.09v-.47L14.5,59c0-.1,0-.21,0-.33l.07-.07v-.55l.08-.07v-.3l.08-.1v-.22l.08-.1v-.38l.08-.09v-.31l.08-.08V56l.07-.07v-.47l.09-.09V55l.07-.07V54.7l.08-.09v-.39l.08-.08v-.31l.08-.09v-.23l.08-.09V53l.08-.08v-.31l.07-.07v-.31l.08-.09v-.39l.06-.05s0,0,0-.07v-.27l.08-.09V51c0-.07.11-.1.08-.2s.11-.13.08-.24a1.22,1.22,0,0,1,0-.27l.15-.28V49.9l.13-.11h.26c0-.2,0-.4,0-.58l.15-.16v-.33l.13,0,.11-.21V48l-.16-.16c0-.07,0-.1.06-.15s0-.08,0-.13.11.2.2.28V48l.06,0c.05.09,0,.18,0,.27l.06.07v.21l.09.12v.22l.07.08v.71s-.1.07-.07.15l-.16.17v.51l-.2.12.17,0s0,0,0,.36l-.05.06v.3l-.1.13.09.12V53l-.07.09.06.06a.15.15,0,0,1,0,.07c0,.35,0,.7,0,1.06,0,.17.1.3.1.47,0,0,0,0,.06,0v.16l.08.08v.55l.06.06,0,0V56l.07.07v.45l.09.12v.69l.07.08V58c.07.09.07.09.08.17l-.08.09v.15l.08.09v.7l.07.07v2.4c.08.1.09.22.19.29l.21.21a3.11,3.11,0,0,0,.23.71v.38l.08.09v.23l.09.09v.16c.1.05,0,.16.08.23a2.1,2.1,0,0,0,.14.24v.21l.08.1v.22l.09.09v.47l0,.05s0,0,0,0v.39l.07.07v.43c.09.21.26.37.25.59.07,0,.05.15.11.19s0,.18.08.24,0,.17.06.21,0,.18.08.24,0,.14.06.21.05.06.08.1v.15l.08.08v.16l.08.08v.16c.14.08.14.27.3.35l.15-.08h.21l.1.1a1,1,0,0,1,0,.3v.26l.07.07v.68l.16.29v.76l.08.09V72l.06.06s0,0,0,0v.7l.06.06s0,0,0,0v.38l.07.07v.85l.08.1v.22l.08.09v.46l.08.09v.47l.05,0c0,.09,0,.18,0,.27l.06,0c0,.08,0,.15,0,.25l.08.1v.22l.07.08V77l.08.09v.16c.14.06.15.22.24.32a.85.85,0,0,1,0,.16c0,.08.07.1.08.16s0,.12,0,.15a.29.29,0,0,1,.06.17s0,.09.07.17v.19l.08.09v.23c.1,0,.07.16.14.22s0,.19.09.24l0,.26.07.07v.47l.07.08v.3l.09.09v.23l.07.08v.17c.07,0,.1.11.07.18l.33.33c-.05.13.08.17.08.27s.09.14.13.22,0,.18.09.24v.31l.08.09V83a1.67,1.67,0,0,1,.25.4c.08.13.1.28.22.39V84l.07.07c0,.1,0,.21,0,.33l.07.07v.31l.08.08v.32l.08.07v.46l.08.09V86l.08.09v.39c.06.07.13.12.19.2a1.35,1.35,0,0,1,.12.22v.2l.08.09v.15l.08.08v.47l.07.07v.23s.08.08.08.11.05.16.08.24.13.17.09.28,0,.06.07.09v.23l.08.09v.15l.06.06c.06.06,0,.15.05.21a.63.63,0,0,1,.12.23c0,.07,0,.15.08.2v.31l.08.09v.23l0,.06s0,0,0,.06v.28l.06.06a1.81,1.81,0,0,0,.09.31c0,.16.15.32.07.48l.09.08v.31l.08.09v.23l.08.09v.21l.16.29c-.09.17.16.31.06.49l.09.1V94l.08.09v.63l.05,0c.05.09,0,.18,0,.27l.07.06c0,.16,0,.33,0,.49s.06.13.07.25l.12.09,0,0V94.52l-.07-.08v-.63l-.05,0,0,0V92.64l-.08-.08v-.39l-.08-.08v-.71l-.08-.08v-.47l-.07-.07v-.71L27,90v-.39l-.07-.07v-.39L26.82,89v-.62l-.07-.08v-.19l.11,0,0,0v.38a.48.48,0,0,1,.12.22s0,0,0-.05V87.8a2.25,2.25,0,0,0-.11-.22c0-.07-.12-.07-.19-.11s0,0,0-.07.11-.19.17-.3L26.82,87c0-.07,0-.11.08-.15v-.22s-.06,0-.06-.07a4.64,4.64,0,0,1-.11-.51c0-.38,0-.76,0-1.15l-.08-.09v-.31l.16-.16v-.08l-.31-.14v-.18l.15-.11h.21c.05,0,.06-.1,0-.13a.27.27,0,0,1-.06-.17A.54.54,0,0,1,26.5,83.42Zm-.16-44.95c0,.07,0,.13.08.07l-.07,0v0s-.11-.27-.11-.27l0,0v.18C26.25,38.42,26.27,38.5,26.34,38.47ZM5,106.89c0-.06,0-.12-.08-.07a.1.1,0,0,0,.07,0v.23c.19-.08,0,.16.14.15a.31.31,0,0,0,0-.19C5,107,5.07,106.87,5,106.89Zm28.38-10c0-.13-.09-.2-.11-.31H33s0,0,0,0,.14.18.2.27h.12v.17l.11.22h.11V97l-.11-.11ZM4.38,104.75c0-.08,0-.17,0-.23,0,.13,0,.13,0,.15V105a.2.2,0,0,1,.09.16s.08.07.07.13a.21.21,0,0,0,.06.17.52.52,0,0,1,0,.18l.12.12a1,1,0,0,1,0-.12s0-.07,0-.08-.06-.19-.15-.25v-.2A1.56,1.56,0,0,0,4.38,104.75ZM30.66,45.32v-.16l-.16,0,0,.14h.13v.33a1.15,1.15,0,0,1,.08.14c0,.08.05.08.13.08l.1-.1v-.35s-.11,0-.13-.05A.21.21,0,0,0,30.66,45.32Zm28,41.55v1.22l.4.4v.27c.14,0,.19,0,.23.16s.12.23.17.36.06.08.07.1h.33l.21-.19v-.41l-.15,0a2.1,2.1,0,0,1-.23-.26c-.09-.12-.27-.11-.33-.26V88l-.11-.22h-.08L59,87.7v-.16l.08-.08V87.3L59,87.22c0-.14-.07-.24-.11-.35h-.28v-.19l-.08-.09a.37.37,0,0,0,0-.15s-.06-.07-.07-.13a.48.48,0,0,0-.08-.16.91.91,0,0,0-.08-.13v-.4l-.18-.15-.2-.39c0-.16-.1-.3-.1-.46s0,0-.06-.06l.08-.08c0-.06,0-.13,0-.19l-.08.07H57.6l-.13-.1c0-.14.16-.22.06-.35l-.05,0v-.23c-.08,0-.07-.13-.12-.21H57c0-.1,0-.19,0-.28s.2,0,.23-.17-.06-.16-.07-.24a.3.3,0,0,0-.11-.15l0,0h0c-.1,0-.06.16-.15.21V83c0,.1-.14.11-.23.15v.19c0,.09.13.16.08.28s0,0,.05.06,0,.14.11.19.06.1.09.15.1.11.16.17l-.1.17v.13c.13.1.2.26.38.3a2.24,2.24,0,0,0,.25.6v.13a1.7,1.7,0,0,1,.3.3,3.63,3.63,0,0,1,.22.47l.19.15a1.6,1.6,0,0,0,0,.22c0,.08,0,.16,0,.22ZM38.89,107.26v.17l.12.22h.09c.08-.16-.05-.26-.09-.38h-.12v-.51c-.11-.1-.13-.26-.21-.38a1.59,1.59,0,0,0-.26-.41v-.15l-.08-.08c0-.23-.15-.39-.23-.58v-.21c-.18-.1-.19-.33-.32-.49v-.2a.9.9,0,0,1-.07-.11.53.53,0,0,1-.08-.17s0-.12,0-.17a1.59,1.59,0,0,0-.13-.22,1.08,1.08,0,0,1-.14-.24v-.19a.68.68,0,0,1-.14-.24c0-.09-.1-.12-.09-.2s-.08-.15-.08-.24-.12-.22-.09-.36-.13-.16-.14-.25a1,1,0,0,0-.08-.24c0-.09-.12-.17-.08-.28s-.09-.15-.13-.22a.59.59,0,0,1-.11-.27.33.33,0,0,0-.1-.23c-.09-.07,0-.18-.08-.25l-.05-.05v-.16l-.08-.08c0-.06,0-.12,0-.19s-.16-.35-.28-.51c.05-.12-.09-.2-.08-.32s0-.21-.14-.3,0-.18-.08-.23l0-.26c-.11-.11-.11-.28-.22-.39s0-.07,0-.11-.11-.14-.08-.24,0-.06-.06-.09-.07-.24-.17-.33a.42.42,0,0,0-.12-.26c-.07-.09,0-.24-.12-.3a.26.26,0,0,0-.08-.25c0-.13,0-.24-.08-.35s0-.08,0-.11a1.93,1.93,0,0,0-.13-.24v-.22l-.08-.08v-.13a1,1,0,0,0-.12-.21c0-.06,0-.16-.11-.2s-.11-.14-.09-.23-.09-.13-.07-.21-.09-.16-.08-.24-.1-.17-.09-.28-.08-.17-.11-.26a2.53,2.53,0,0,0-.12-.23v-.2L33.4,93s0-.09,0-.12l-.24-.48v-.16l-.24-.49,0,0-.26-.23v-.28c-.08-.13-.11-.26-.23-.32v-.56l.08-.08v-.21l-.2-.38c-.06,0-.09,0-.13,0a.69.69,0,0,0-.13,0V89.5l.08-.08c0-.09,0-.18,0-.27H32L32,89.3h-.09a.12.12,0,0,1-.05,0c-.11-.12-.13-.29-.23-.39v-.14l-.08-.09V88.4l-.08-.09v-.14l-.08-.1v-.19l-.31-.61v-.2L31,87v-.15l-.11-.11h-.11c0-.11,0-.17-.11-.22s0-.15-.11-.19a.13.13,0,0,1,0-.11.2.2,0,0,0-.06-.13c-.05-.08-.06-.19-.12-.26a1.35,1.35,0,0,1-.18-.26c-.07,0-.15,0-.19,0v-.08l.07-.08v-.15l-.2-.2-.1,0v.26l.08.08v.32l.07.07v.1L30,86v.27c.13,0,0,.15.08.22l.14.14v.17l.08.07v.31l.08.09v.21l.23.44v.18a1.68,1.68,0,0,1,.15.3c0,.06,0,.12.06.18s.05.13.11.19V89c.07,0,.07.1.08.17s.06.1.07.16,0,.16.08.2a.16.16,0,0,0,.08.16v.32a.85.85,0,0,0,.24.32v.31l.08.08v.32l.11.1c.16,0,.16,0,.19,0v.3l-.08.11c0,.19.25.15.32.29v.3l.08.09v.14l.16.28V93a.49.49,0,0,1,.19.28c0,.1.15.18.12.3s.06.08.08.13,0,.13,0,.18,0,.13.1.2a.85.85,0,0,1,.1.19.48.48,0,0,1,.08.16c0,.08.11.11.08.2s0,.14.08.2a1.28,1.28,0,0,0,.31.51v.23l.16.17V96c.1.06,0,.18.09.24a1.74,1.74,0,0,1,.1.19,2.39,2.39,0,0,1,.12.22v.2l.08.09v.15c.12.11.11.28.22.38a1.12,1.12,0,0,0,.17.44V98l.08.08-.08.09c0,.16.09.28.17.42V99l.3.28s0,0,0,0l-.08.15c0,.13.15.13.24.19a.41.41,0,0,0,0,.11,3.29,3.29,0,0,0,.21.42l0,0v.28l.18.2.12,0c0,.15,0,.29,0,.43l.15.14c0,.09,0,.11.08.17v.22l.08.1V102c.06.12.14.2.14.29s.07.16.09.24.12.13.16.22v.38c.09.06.24,0,.23.21s.12.24.19.35,0,.15,0,.22a.71.71,0,0,1,.25.48,1.31,1.31,0,0,1,.11.12s0,.09.05.13a.66.66,0,0,0,.2.27c.06,0,.07.14.11.19s0,.14.11.19,0,.14.11.19a1.06,1.06,0,0,1,.15.15c0,.21.09.32.32.56v.12l.12.24.27.26v.24C38.75,107.12,38.78,107.23,38.89,107.26Zm3-72-.08-.08v-.31l-.07-.07v-.32l-.08-.08v-.24l-.09-.08v-.39l-.08-.08v-.24l-.07-.07v-.23L41.32,33v-.3l-.08-.1v-.22l-.08-.1v-.3l-.08-.07v-.32L41,31.48v-.31c-.09-.05-.07-.16-.13-.22s0-.19-.09-.24l0-.34-.07-.07v-.38l-.07-.1c0-.09,0-.17,0-.24l-.06-.06v-.39l-.08-.08v-.16l-.08-.09v-.3l-.07-.08v-.31L40.22,28v-.24l-.07-.07v-.39l0,0-.06-.05v-.71L40,26.46v-.22L39.85,26c0-.08,0-.19-.08-.24l0-.31-.15-.28v-.36l-.08-.09v-.21l-.16-.27a1.58,1.58,0,0,1,0-.31.38.38,0,0,0-.09-.25c.08-.12-.1-.17-.07-.28l.07-.09a.41.41,0,0,0,0-.21c-.06-.1-.16-.2-.12-.3l.1-.15-.1-.15V22.3l-.07-.07v-.39L39,21.76V21.6l-.08-.08v-.15l-.08-.1v-.54l-.06-.06,0-.18-.08-.07v-.31L38.57,20v-.23l-.07-.07v-.24l-.08-.08v-.15l-.08-.09v-.23c-.14-.13-.12-.33-.23-.48v-.14l-.21-.2h-.22c0,.06-.12.07-.19.11s-.07.15-.13.21a.84.84,0,0,1-.18.15.46.46,0,0,0-.27.29.23.23,0,0,1-.07.11h-.19l-.22.23-.09-.08h-.2a.86.86,0,0,0-.38.29v.14c-.07.08-.17.13-.17.25s0,.23-.14.29l.08.15c-.09.1-.09.1-.19.13s-.17-.19-.31-.24l-.18.16h-.17a.75.75,0,0,0-.25.38.32.32,0,0,1-.14.16s-.1,0-.11.08-.07.11-.07.17a.75.75,0,0,1-.15.35v.47L34,22v.39l.07.07v.39l0,0,0,0v.55l.08.09V24c.09.08.08.22.2.27s.18,0,.27,0v.26l-.08.17.1.17h.18a.29.29,0,0,0,0-.2c-.1-.06-.08-.15-.07-.24l.14-.14,0-.25.11-.11h.16l.23-.23h.08c.07-.05.1-.14.21-.17a.7.7,0,0,0,.2-.15h.12c.19-.09.21-.31.37-.43v-.16l.12-.11h.24c.07-.07,0-.17.07-.22s0-.19.08-.24.11.05.16.07h.16l.11-.11v-.08l.2-.2H38l.46.46a.27.27,0,0,0,.06.2c0,.06,0,.17,0,.25l.07.08v.34l.11.23.13.14v.22L39,24c0,.1,0,.22.07.29l0,.31.14.28v.44l.09.09v.23l.08.09v.23l.07.07v.39l.08.08v.32l.08.08v.31l.08.07v.16l.08.08v.39l.08.09v.47a.61.61,0,0,0,.23.3v.63l.08.08v.78l.15.16v.16l-.06.06a1,1,0,0,1,.07.23,1,1,0,0,0,.15.28v.13l.08.09v.3l.08.1V32c.15.14.12.35.23.49s0,.17,0,.24l.06,0v.37l.24.46v.32l.14.28c-.05,0-.06.09-.12.09l-.1-.11c0-.1-.06-.17-.07-.25a1,1,0,0,0-.09-.24c0-.09-.12-.17-.08-.28s-.06-.16-.13-.22,0-.1-.06-.13,0-.12,0-.18-.06-.08-.07-.13a1.08,1.08,0,0,1,0-.18l-.4-.78v-.22A2.72,2.72,0,0,0,39.9,31a1,1,0,0,0-.27-.45l-.09,0c0,.09,0,.13.06.18v.62l0,0H39.4l-.07-.05-.13.07L38.74,31l-.14,0c0-.14-.13-.21-.23-.3l0,.11.08.09v.23l-.27.28H38l-.11-.15h-.17l-.08.06H37L37,31.21h-.24l-.16.15c-.06,0-.13,0-.19,0v1.28l.15.14v.86l.08.09v.39c.07.07.17.13.17.24s0,.24.15.3V35l.07.06v.19l.16.12v.24a1.18,1.18,0,0,1,.14.23c0,.08,0,.19.09.24s0,.23,0,.33l.07.07V37l.08.08v.21l.16.28c0,.08,0,.18,0,.25l.11-.11-.07-.09v-.15l.08-.09v-.23L38,37v-.36c-.09-.16-.13-.32-.31-.33v-.17c.1-.11.23-.19.28-.35l.11,0v.41a.46.46,0,0,0,.1.1l.13,0v.07c.08.13.23.18.26.34a.17.17,0,0,0,.15.11s.1.07.14.11v.27l-.15.11.11.14.09-.09a.88.88,0,0,1,.16,0s0,.06,0,.1a1.89,1.89,0,0,0-.2.2,1.14,1.14,0,0,0-.12.22v.51c-.1.07-.07.18-.1.27l0,0,0,0,.09.1-.14,0c0-.13-.11-.21-.12-.33s-.07-.15-.07-.24-.08-.14-.15-.26c0,.19,0,.33,0,.47l-.08.08V39l.16.12c0,.1,0,.17-.06.24s0,.15,0,.21a1.53,1.53,0,0,1,.16.31c0,.12.2.16.18.31h.17l.09-.08,0,.09c0,.11-.19.13-.16.27a1.14,1.14,0,0,1,.19.19.59.59,0,0,0,.17.24h.15l.08.08H40a.15.15,0,0,0,.07,0v-.08l.21-.11.06.07h.08l.19.19c0,.1.13.14.09.24.13.18.18.42.38.53a.13.13,0,0,1,0,0v.28l0,0c.06.07.15.13.18.2s.13.17.08.28.09.15.13.22l0,.07v.2l.08.08v.23l.08.09a.37.37,0,0,0,.07.25c0,.06,0,.13.06.21s0,.17,0,.24l.07.09v.22s.1.08.08.15l-.1.13L42,45v.69l0,.06c.05.13,0,.25.09.32l0,.25-.24.23c-.06.17-.07.18-.39.47v.18l-.12,0-.08.15-.06.13-.06,0-.11-.08H41c-.1.12-.25.2-.3.37a.22.22,0,0,1-.12.09c-.09,0-.12.08-.16.13v.23l.15.15v.16s0,.06-.08.16a.84.84,0,0,0,.3.22c.05,0,.11.08.08.21l-.14.12,0,0h.33L41.2,49h.09l.1.12-.06.08c0,.06,0,.12,0,.18l.18.08.09-.19-.08-.13.14-.14h.09l.1,0c.15,0,.22-.2.38-.23s0,0,0-.05.14-.21.12-.33l.2-.22h.13l.15.11v.21l.19.24.11,0v-.32l-.08-.09V48l-.08-.1v-.38L43,47.4v-.61s0,0,0-.06h.08s.09.07.1.11a.28.28,0,0,0,.09.16v.16l.08.08v.24c.12.1.11.27.23.38a3.43,3.43,0,0,1,.33.33,1.26,1.26,0,0,0,.37.27h.21c.06,0,.1.11.17,0s0-.17,0-.25l-.08-.09v-.54l-.07-.08v-.39l-.08-.07V46.7l-.08-.09v-.15l-.08-.09V46l-.08-.09v-.23l-.07-.09a1.34,1.34,0,0,0,0-.2c0-.06-.09-.08-.07-.16a1,1,0,0,0,0-.17L44,45c0-.09,0-.17,0-.24l-.06-.06c0-.11,0-.23,0-.32l-.08-.07V44l-.08-.09V43.4l-.08-.1v-.22l-.08-.1v-.3l-.08-.07v-.3L43.36,42v-.13l-.08-.09v-.23l-.07-.07V41.2l-.09-.08V40.9l-.07-.11v-.21L43,40.49v-.15l-.08-.09v-.31a.15.15,0,0,1-.08-.16c0-.08-.06-.11-.07-.16s0-.12,0-.15a.31.31,0,0,1-.07-.17c0-.06,0-.11-.07-.17v-.2l-.08-.08v-.23l-.08-.09v-.16c-.13,0,0-.23-.14-.29l0-.34-.06-.06v-.23l-.08-.09v-.15L42,37.12V37L42,36.88v-.15l-.08-.09v-.38l-.07-.08v-.24l.15-.15v-.15l-.08-.09Zm7.06-14,.27.29h.09l.11.11v.16l.55.54v.08l.11.12h.17l.14.2h0l.33.33h.09l.09.13.34.34.07,0a.47.47,0,0,0,0-.12c0-.05-.08-.09-.07-.13s-.15-.14-.16-.22v-.19c-.16,0-.13-.17-.21-.26s-.12-.18-.19-.27-.11-.22-.22-.3a1.66,1.66,0,0,1-.23-.23V21.6a3.69,3.69,0,0,1-.28-.29l-.14-.22a.79.79,0,0,1-.13-.26s0,0,0-.06-.14-.09-.11-.19a.28.28,0,0,1-.09-.16c0-.06-.11-.11-.15-.17a1.6,1.6,0,0,0-.1-.23.65.65,0,0,0-.17-.17l-.14-.31c-.06-.06-.14-.13-.21-.21s0,0,0,0v-.2l-.15-.17c0-.1-.12-.14-.09-.24l-.27-.27-.14-.3-.22-.22c-.09-.08-.09-.21-.2-.28s0-.08,0-.1a.25.25,0,0,0-.13-.05L47,17.05c-.06-.06-.09-.15-.14-.21a2.39,2.39,0,0,0-.22-.23c-.07-.05-.15-.08-.22-.14s-.11-.09-.12-.14-.14-.17-.2-.25l-.12.11v.23l-.08.09v.23s.07.06.08.09,0,.15.06.21a.91.91,0,0,1,.11.24v.33l.14.15v.15l.08.09v.11l.14.1v.18c.06.08.15.11.16.22s.17.12.16.25l.18.19h.1l0,.14c0,.08.17.13.21.26a.59.59,0,0,0,.26.28,1.17,1.17,0,0,1,.26.2l.12.26c.18.24.45.39.58.66a.33.33,0,0,0,.24.18s.08.06.11.09Zm-26-2v-.63l0,0h-.11v.41l-.09.1v.23l-.08.09a1.34,1.34,0,0,1,0,.2c0,.06-.09.08-.08.16a1.09,1.09,0,0,1,0,.17l-.08.08v.23c-.07.05-.07.14-.11.18l-.21-.16V20L22,19.84c-.14.05-.09.26-.29.3.05-.16-.06-.26-.1-.38h-.16l-.11.11,0,.17-.07.07v1.68s0,.05,0,.07l.06.05v.92l.24.45v.18l.19.37c.11,0,.14-.07.2-.12v-.15l.08-.09v-.23l.07-.07v-.23l.09-.11v-.29l.07-.09c0-.09,0-.17,0-.24l.06-.06c0-.14,0-.28,0-.4l.07-.08v-.38l.08-.09v-.39l.07-.07v-.47l.08-.08v-.31l.09-.11v-.22l.08-.08v-.23ZM42,18.93l.21.19.05.16h.09l.11-.21L42.34,19v-.47l-.09-.09v-.39L42.19,18V17.6l-.08-.08v-.37l-.17-.29v-.38l-.11,0-.11-.11v-.16l-.29-.27s-.09.06-.09.1a.24.24,0,0,1-.22.22s-.08.07-.11.09a1,1,0,0,1,0,.18l0,0c-.17,0-.34,0-.49,0l-.26.26V17l-.07.07v.16l-.09.09v.62l0,0-.11,0a.44.44,0,0,0,0,.3H40l.08-.08h.44l.31.16.3-.32h.28l.15.15a1.73,1.73,0,0,0,.21.37.84.84,0,0,1,.15.26S42,18.88,42,18.93Zm3.92-.54c-.09-.05-.07-.15-.13-.22a.43.43,0,0,1-.1-.23c0-.12-.11-.17-.1-.28s0-.17-.08-.24l-.06-.05v-.3c-.08-.11-.13-.22-.21-.32a.46.46,0,0,1-.11-.35l-.23-.13V16.2c-.07-.12-.23-.17-.24-.33l-.31-.3v-.26c-.06,0-.06-.1-.15-.08v1.36l.06.06a.74.74,0,0,0,0,.26c.14.22.22.48.38.71v.19l.27.54.26.26a1.15,1.15,0,0,0,.1.23,1.22,1.22,0,0,0,.17.19c.07.13.11.18.13.23s0,.12,0,.18a.6.6,0,0,1,.08.16H46l0,0v-.25L46,19.25v-.17L45.87,19Zm-20.42.27c-.1.08-.17.2-.31.26L25,18.74l-.17.11.11.22-.09.1v.28l.27.54h.16l.08.08h.2l.09-.15H26l.21.07.14.13.1,0a1.79,1.79,0,0,0,.12-.24c.05-.09.11-.17.09-.26l.1-.21h.35l.18-.24h.11l.1-.19c-.08-.16-.17-.31-.24-.48s-.05-.14-.06-.21,0,0,0,0l-.11.09,0,.14h-.62l-.28.15ZM56.3,80.8v-.24l-.08-.08v-.13l-.11-.21-.1,0c-.07-.11,0-.14.05-.21v-.23l-.23-.19v-.11l-.36-.18-.08.07,0-.11c.09-.06.22-.08.24-.21a.46.46,0,0,1-.08-.28l-.31-.3v-.24l.08-.08v-.24l-.11-.1-.11,0c0-.09,0-.2-.08-.26s-.08-.15-.14-.2h-.16c0,.07,0,.15-.1.2s.06.1.09.16a.75.75,0,0,0,.15.16v.62l.06.07v.25l.08.07A1.76,1.76,0,0,0,55,79c0,.09,0,.18,0,.22l.23.17v.37l.25.48-.09.1v.29l.24.45v.26a.89.89,0,0,0,.36.29h.36s0,0,.06,0,0,.13,0,.19h.26a.64.64,0,0,0,0-.27c-.09-.08-.08-.22-.2-.28h-.15l-.12-.21a.52.52,0,0,1,0-.24Zm-5-14.86.24.22v.53l.08.08v.39l.07.07s0,.11,0,.15a2.64,2.64,0,0,1,.15.29v0l.16.09a.46.46,0,0,1,.07.07V68l-.15.15v.27l.24.19c0,.1.06.13.07.17V69l-.07.09v.27l.15.2.16.07v.39s0,.06,0,0c.08.14,0,.23.08.31h.15a.74.74,0,0,1,.26.32,1.22,1.22,0,0,0,0-.26l-.1-.16,0,0L52.69,70c0-.16-.1-.29-.09-.45l-.14,0,.09-.13-.18-.31v-.83l-.08-.1.16-.32v-.52l-.07-.08v-.15L52.3,67V66.5l-.17-.13c0-.1.06-.2,0-.28s0-.2-.06-.28l-.1-.18h-.08l-.11-.22v-.13l-.08-.09V65l-.11-.22-.09.08h-.15l0,0v.49l.07.06c0,.09,0,.18,0,.26l-.06.06ZM5.61,94.24h.78l.08-.07h.24l.07.06c.17-.08.19-.27.32-.38s.23,0,.34,0,.12-.2.17-.3,0,0,0-.07l-.25,0-.07-.07H7l-.08-.08H6.47l-.08-.08H6.05l-.07,0-.06.06H5.61l-.08.08H5.35l-.13.16H5c0,.11-.17.14-.26.2a2.49,2.49,0,0,0-.23.23c0,.17.15.17.23.23l0,.11H5l.09-.06.07.07h.35l.07,0ZM67.17,20.62h.08c.14-.11.14-.31.27-.44v-.38l.06-.06v-.25l-.07-.08V19l-.1-.23-.33-.33L67,18.5h-.25l0-.13-.26-.26-.11.1v.34l.06.06c0,.09,0,.21.06.29s0,.22.11.27v.31l.16.16v.16l.08.08v.23l.21.21a2.61,2.61,0,0,0,.12.28ZM54.5,114.54a.72.72,0,0,1,.51.25h.16c0,.08.12.07.2.08a.46.46,0,0,1,.16.07l.19.16h.14l.09.08h.35l.11.16c.13,0,.25,0,.37,0l-.26-.25c-.08-.08-.07-.22-.22-.27h-.12l-.31-.31h-.08c-.06,0-.11-.11-.17-.15s-.17,0-.23-.1a2.39,2.39,0,0,1-.23-.22h-.23l-.1-.09c-.09.06-.16,0-.23-.07s-.18-.07-.28-.07a.54.54,0,0,1-.13.07h-.14l0,0-.11,0,.11.22h.22l.21.19ZM69.63,20.42v-.54l-.08-.09v-.47l-.07-.07v-.31l-.09-.08a.81.81,0,0,0,0-.22.94.94,0,0,0-.12-.22l-.11-.22v-.13a.6.6,0,0,1-.08-.08s0-.1-.07-.1v.5l.07.07v.79l.08.08v.31l.08.09V20l.07.07v.39l.08.09v.15l.08.07V21c0,.11.07.15.08.2s0,.1,0,.14,0,.09,0,.14.05.08.07.13a.75.75,0,0,1,0,.15l.16.17v.23c.1.06.08.19.17.25s0,0,.06,0v-.22l-.15-.27v-.13l.08-.09V21.6c-.06-.08-.17-.15-.24-.24v-.61l-.07-.09V20.5Zm-41.09-.86v-.39l-.08-.08v-.55l-.08-.09v-.3l-.07-.07v-.32l-.08-.08v-.24l-.08-.08v-.28L28,16.85l-.1,0v.47l-.08.09v.23l.07.08v.39l-.07.09a.71.71,0,0,0,.23.38v.15l.08.09v.31l.08.08v.19a2.38,2.38,0,0,1,.25.61l.1.1s0,0,0,0v-.42a.14.14,0,0,0,0-.07Zm29,73-.24-.14H57l-.09-.07-.11.11c.09.08.16.2.29.22l.15.29c0,.06.1.06.16.09a.86.86,0,0,1,.16.13l0,.17h.25l.16.16a.64.64,0,0,1,.14.22,1.21,1.21,0,0,0,.16.16.5.5,0,0,0,.27,0c0-.11-.14-.13-.15-.24a.82.82,0,0,0-.15-.27v-.14a2.79,2.79,0,0,0-.39-.38A1.87,1.87,0,0,1,57.5,92.58Zm-35-79.52c-.06.06-.09.08-.11.12s0,.07,0,.1-.07.13-.11.19-.12.09-.12.14-.08.13-.12.19l0,0V14l-.14.14c0,.08,0,.16-.06.22s0,.14-.1.19,0,.07,0,.1h.12l.19-.24.16.11s.09-.08.11-.12a1,1,0,0,0,.11-.23c0-.11.16-.12.16-.24s.07-.13.08-.21a1.76,1.76,0,0,1,.15-.32v-.12l.08-.09,0-.1c-.07,0-.09.1-.17.07ZM51,63.51c0,.21.16.39.11.53l-.16.29c.09.13.12.32.26.43l.2-.19V64.1L51.28,64v-.38l-.08-.09v-.23l-.07-.07,0-.17L51,62.93v-.31c-.11.14-.14.29-.23.39v.43s0,0,0,.07ZM11.61,90v.16c.15.15.15.15.23.44.09.08.06.19.1.28a1.3,1.3,0,0,1,.14.29.17.17,0,0,0,.13.11s0,0,0,0,0-.26,0-.35-.08-.13-.07-.17-.07-.18-.1-.27-.12-.15-.17-.24,0-.18-.13-.22-.07-.19-.16-.25v-.23a1.76,1.76,0,0,0-.31-.3,1.93,1.93,0,0,1-.36-.28s0,.08,0,.1.1.23.21.31a.47.47,0,0,1,.14.14.6.6,0,0,1,.08.16A1.06,1.06,0,0,0,11.61,90ZM8.32,85.45c-.06-.1-.09-.2-.15-.24s-.05-.21-.11-.27,0-.17-.1-.22l-.07-.13a.84.84,0,0,1-.39.25l-.09-.08c-.06,0-.13,0-.18,0l0,.09a1.62,1.62,0,0,0,.19.18c.07,0,0,.15.11.19s.08.15.14.22,0,.09.13.08l.31-.16A.32.32,0,0,0,8.32,85.45ZM52,49.15l-.12.12v.25l.11.11c.07,0,.14,0,.19,0v.25l.24.2v.18c.06.05.09.13.2.11l.09-.1-.21-.21v-.52c-.08-.06-.15-.16-.23-.18s-.07-.18-.18-.21Zm-28.91-33v.27l-.16.11.08.08V17l-.07.1v.59s0,0,0,.05l.11-.11v-.15l.08-.09v-.31L23.14,17v-.24c.1-.05.06-.15.08-.24l.14-.13v-.28h-.11ZM48.58,96c-.07.11,0,.2,0,.31l.17.13c0,.07,0,.15,0,.16s.07.19.16.25,0,0,.06,0v-.32l-.22-.23v-.12ZM3.14,101c0-.06,0-.13,0-.2l-.12,0V101c.1,0,.06.16.14.22s0,.07,0,.1a.66.66,0,0,0,.2.34c.07-.08,0-.17,0-.26a1.74,1.74,0,0,1-.11-.18C3.21,101.1,3.23,101,3.14,101ZM62.88,72c.07,0,.09.12.17.11s.09-.08.15-.11v-.24c-.06,0-.09-.13-.21-.11l-.11.09ZM43.13,85.81l.1.11c.07,0,.15,0,.21,0v-.18l-.2-.25-.09,0s0,0,0,0Zm12,3.88-.23.18,0,.15c.1,0,.19,0,.28,0l.1-.12c0-.11,0-.23,0-.33h-.09ZM37.85,69.31c-.11,0-.15.06-.21.11l.08.09c-.06.12.09.19.08.31s.06.1.14.1v-.35C37.84,69.52,37.89,69.42,37.85,69.31ZM20.23,21v.31l0,0h.13v-.19l.07-.07v-.3s0,0,0-.05-.1.08-.1.11A.22.22,0,0,1,20.23,21Zm40,68.57H60.1l-.11.11v.16a.5.5,0,0,0,.07.08l.24.12c0-.11,0-.19,0-.24ZM54.34,76.8c.07,0,.09.16.23.09s0-.24,0-.37,0,0,0-.07h-.17l0,0Zm-1.57-5.9c-.18-.07-.27.07-.39.1v.07l0,0,.08.15h.15l.13-.11ZM23.92,18.46l-.08.09v.38s0,0,0,0l.15-.11c0-.16,0-.34,0-.52t0,0C23.86,18.32,24,18.41,23.92,18.46Zm-.28,23.88c-.07.08,0,.12,0,.17s0,.05,0,.07l-.08.15c0,.08.08.11.12.16l0,0a1.21,1.21,0,0,0,0-.19c0-.08.07-.1.08-.16v-.12l0,0-.08.07Zm33,39.89-.14,0,0,.14-.12,0c0,.08,0,.16,0,.22l.1,0,0-.13.13,0Zm-3.73-9c0,.06,0,.15-.11.19s.07.09.09.15a.14.14,0,0,0,.12.11.24.24,0,0,0,0-.08,1.93,1.93,0,0,0,0-.34l0,0Zm-29.08-54c-.09.08,0,.19-.05.28s-.11.11-.07.15l.24-.15c0-.12,0-.21,0-.28ZM55.66,120.27h-.41s0,0,0,0l.11.11c.11,0,.23,0,.34,0ZM54.14,52.45l-.11.12s0,.12,0,.15l.05.14.14-.15Zm-13.71,16a.4.4,0,0,0,0-.32h-.1c0,.07-.12.08-.1.22l.16.1ZM40,67.08c0,.18,0,.18,0,.26l0,0v-.47a.12.12,0,0,1,0,0l-.12,0V67Zm19.09-6.63-.11.11c.08.08.07.22.2.28,0-.33,0-.34,0-.39ZM45.63,122l-.13,0c-.07.1,0,.13,0,.2l0,0,.1.16.14-.07A.51.51,0,0,1,45.63,122Zm-1.83-3.61.11-.11-.12-.11h-.23l0,0C43.57,118.32,43.72,118.31,43.8,118.38ZM56.11,81.86,56,82c.07,0,.09.13.22.11l.1-.13,0-.09ZM32,47.26c-.05.08-.13.1-.13.19s.17,0,.2.14h.08s0,0,0,0ZM54,74.32v-.26c-.05,0-.07-.1-.14-.11s0,.17,0,.26,0,.07,0,.11ZM23.38,26.39c.06.05.1.18.22.08v-.09l-.11-.21ZM43.44,86.27l.12.14a.47.47,0,0,0,0-.28L43.47,86A.69.69,0,0,0,43.44,86.27ZM39.71,66.09l-.1,0v.19l.19.1,0-.08ZM31.28,75c-.09,0-.16,0-.21,0s.06.15.1.21l.11,0Zm31,43.35h.11s.05.1.11.06.05-.16,0-.22-.12,0-.18,0ZM50.41,99.47c-.12,0-.21,0-.32.07l.17.11s.1,0,.15,0ZM34.1,50.28l-.11-.1c-.05.06-.13.1-.11.2l.11.1ZM20.25,21.49a.51.51,0,0,0,0,.34l.12-.18s0-.11,0-.16Zm6.83,61.85,0,.12.17.12h.05l0-.12-.18-.12Zm3.41-60.76c-.09,0-.15,0-.21,0v0l.18.19C30.53,22.75,30.5,22.68,30.49,22.58Zm40,2.74a.16.16,0,0,0,0-.24l-.1,0c0,.09,0,.16,0,.22ZM60.45,64.38c0,.12,0,.21,0,.29s.05,0,.05-.06l0-.07s0-.06,0-.09a.21.21,0,0,0,0-.07ZM52.54,25.05c-.14-.06-.15-.06-.16.09s.06.09.13.09S52.52,25.11,52.54,25.05ZM23.93,24c0-.1,0-.16,0-.22a.19.19,0,0,0-.13.14s0,.06,0,.07ZM40.66,69.41c0-.06,0-.08,0-.1a.41.41,0,0,0,0-.09.64.64,0,0,1,0-.07l0-.09c0,.08,0,.15,0,.13Zm9.81,30.41a.57.57,0,0,1,.08.08s0,.09.06.15l.13,0-.06-.07s0-.08,0-.13Zm13.9-24.27,0,.11.15,0c0-.08,0-.17-.06-.21ZM60.74,64.91l-.12.21s.06.09.13.1A.47.47,0,0,0,60.74,64.91ZM17,49.08c.1,0,.15,0,.14-.13L17,48.86C17,48.91,17,49,17,49.08ZM50.81,61.9A.33.33,0,0,0,51,62c0-.08,0-.15,0-.23l-.12,0Zm5.65-8.18.16,0,0-.15-.13,0ZM53,74.25s.09-.07.1-.12L53,74A.16.16,0,0,0,53,74.25ZM23,48.92s-.1.07-.11.14c.15,0,.15,0,.21,0Zm33.52,72h.15l.07,0,0-.05c-.09.07-.11-.1-.19,0Zm5.68-98.08c-.06.05-.06.1,0,.16l.11,0,0-.13ZM60.84,65.55l.13.23a.24.24,0,0,0,0-.23Zm1.49,3.51-.16,0,0,.15.13,0ZM24.14,43c-.12,0-.13-.11-.2-.11a.1.1,0,0,0,0,.15Zm19.65,43.6c0,.19,0,.19,0,.25S43.84,86.72,43.79,86.61ZM70.14,32.07a.18.18,0,0,0,0-.24A.16.16,0,0,0,70.14,32.07Zm-32,5.79a.11.11,0,0,0,0,.17l.11,0ZM51.64,64.63c0-.19,0-.19,0-.25A.23.23,0,0,0,51.64,64.63Zm7.49,29.61H59l-.06,0s0,0,0,0l.09.09Zm-7.82-32c0,.19,0,.19,0,.24S51.37,62.34,51.31,62.23Zm16.46-36.3c-.07-.05-.09-.11-.16-.12a.09.09,0,0,0,0,.14Zm-7.25,6.38h-.05a.31.31,0,0,0,0,.1s0,0,0,0l.05,0S60.52,32.35,60.52,32.31ZM23.9,30.12h0s0,.07,0,.1a0,0,0,0,0,0,0s0,0,0,0A.17.17,0,0,0,23.9,30.12ZM37.29,68a.1.1,0,0,0,0-.16C37.23,67.87,37.23,67.92,37.29,68Zm1.12-16.3h0a.41.41,0,0,0,0,.11s0,0,0,0,.05,0,.05,0S38.41,51.71,38.41,51.68ZM8.67,112.35a.09.09,0,0,0,0-.15A.08.08,0,0,0,8.67,112.35ZM57.79,119a.09.09,0,0,0-.16,0A.09.09,0,0,0,57.79,119ZM35.9,78.1h0a.41.41,0,0,0,0,.11s0,0,0,0,0,0,0,0S35.9,78.14,35.9,78.1ZM30.39,45.55a.09.09,0,0,0,0-.15A.08.08,0,0,0,30.39,45.55ZM61,65.85c0,.07-.07.12,0,.16S61.09,65.92,61,65.85Zm-9.41-1.72a.1.1,0,0,0,0,.16C51.69,64.24,51.69,64.19,51.63,64.13ZM9.46,87l0,0-.05,0s0,0,0,0ZM76.8,114.78s0,0,0,0a.08.08,0,0,0,0,0l0,0ZM69,17.65l0,0,0,0s0,0,0,0Zm-47-2.83,0,0,0,.06s0,0,0,0S21.93,14.84,21.92,14.82ZM62.87,118.26l0,0,0,.06,0,0Zm-4.23,1.18,0,0s0,0,0,0,0,0,0,0ZM41.32,70.92l0,0-.06,0,0,0Zm-22-43.23,0,0,.05,0,0,0ZM53.46,73.12l0-.05,0,0,0,.05Zm-20.8-6.55s0,0,0,0l0,0s0,0,0,0A.08.08,0,0,0,32.66,66.57Zm1.46-16.68,0,0,0,0a.08.08,0,0,0,0-.05ZM70.19,23.41l0,0s0,0,0-.05,0,0,0,0ZM49.05,97l0,0,0,.06,0,0S49.05,97,49.05,97ZM23.8,20.31s0,0,0,0a.08.08,0,0,0,0,.05s0,0,0,0A.08.08,0,0,0,23.8,20.31Z"/><path d="M59.28,146.46c0,.08-.08.1-.11.15H59l-.08.08c-.13-.05-.21.09-.32.09s-.35.17-.51.28-.13,0-.19,0l-.08.08h-.24l0,0c-.09.06-.19,0-.28,0l-.06.06h-.33c-.06.14-.24,0-.3.16h-.32l-.08.08h-.3l-.09.08h-.24l-.06.07h-.32l-.08.08H54.7l-.08.07H54.4l-.11.09H54l-.07.08h-.7l-.09.08h-.47l-.07.07h-.31l-.08.08h-.55l-.08.08h-.63l-.08.08h-.93l-.09.08h-.54l-.09.08H46.15l-.09.07-.06-.06h-.33l-.07.06h-2l-.06-.06h-1.2l-.06.06-.09-.07H41.05l-.06-.06,0,0H40l-.06-.06c-.13-.09-.21.05-.32.06l-.1-.08h-.62l-.07-.08H38l-.09-.08h-.39l-.07-.07h-.17l-.07-.07h-1.1L36,148h-.53l-.13-.09h-.05l-.08.08-.08-.08h-.39l-.07-.07h-.32l-.08-.08h-.45l-.11-.09h-.39l-.07-.07h-.23l-.09-.08h-.3l-.09-.08h-.39l-.06-.06c-.07,0-.15,0-.22,0s-.11-.08-.17-.07-.13-.06-.2-.08a.66.66,0,0,0-.2,0l-.09-.07h-.31l-.09-.08s-.12,0-.14,0-.19-.06-.26-.15h-.27l-.06,0a.63.63,0,0,1-.28-.2h-.31l-.09-.08h-.23l-.08-.08-.13,0,.12-.15.08.09h.49l.12.16h.29l.15-.16c.11,0,.12.11.27.15h.27l.11-.1c0-.09,0-.09-.16-.24v-.11l.26,0,.14-.12-.18-.18c0-.16.22,0,.18-.17h.33c.13,0,.11-.19.2-.28s0-.1,0-.14l.2-.2h.31l.19-.2v-.09l.23-.15,0-.08.3-.3v-.32c.15-.09.33-.12.43-.27h.16c.07,0,0-.12,0-.18s-.15-.1-.05-.21h.23a.27.27,0,0,0,.08-.07,2.1,2.1,0,0,0,.13-.26,1.58,1.58,0,0,1,.12-.15h.08l.2-.19a.35.35,0,0,1,.18-.13c.08,0,.13-.11.2-.18v-.17l.27-.2s.12,0,.2.09l.07,0c.07-.05.1-.16.22-.14s.2-.13.19-.27.12-.17.23-.2.14-.11.25-.07.18-.07.25-.15l.28-.27v-.08a1,1,0,0,0,.17-.12.72.72,0,0,1,.19-.11.18.18,0,0,0,.11-.15s.07-.1.11-.14h.16l.23-.23h.22c.15-.13.36-.14.47-.3a.44.44,0,0,1,.23,0h.18l.12-.11,0-.13h.34l.07-.07h.23l.09-.08H40l0-.06,0,0h.55l.05-.06,0,0h.7l.07-.07h.17c.08,0,.1-.07.17-.08h.2l.09-.07h.38l.09-.08h.78l0-.05,0,0h1.8l.06-.06.07,0h.34l.07.07h.25l.07-.06h.72l.07.06h.23l.08-.07h.4l0,.05a.15.15,0,0,0,.07,0h1.76l.07-.07.25,0,.14-.14h.54l.42.22.06-.07h.49l0-.13.11-.1h.24s.09.07.1.13a.84.84,0,0,0,.27.4.7.7,0,0,1,.25.33s0,0,.09.09l.17-.09h.59a1.5,1.5,0,0,1,.23.15.44.44,0,0,1,.19.19c0,.07.06.16.12.18.22.08.33.29.49.43s0,.14.12.18.1.3.15.45a1.55,1.55,0,0,0,.12.22c0,.06,0,.15.11.19s.13.14.09.24.06.14.11.19a1.29,1.29,0,0,0,.16.17c.11.09.14.23.23.37l.24.24a.68.68,0,0,1,.47.4.38.38,0,0,0,.16.23l.16-.16.13.23,0,0v.17a.23.23,0,0,1,.07.07c0,.07.14,0,.19.11s.12.11.16.17.13.07.19.11.15.1.16.17.14.18.2.27a.2.2,0,0,0,.16.09.16.16,0,0,1,.11.1c0,.09.09.13.09.2s.15.13.15.21.1.12.12.19.13.18.13.3a.64.64,0,0,0,.07.16v.12l.08.09v.15l-.08.09V146c0,.06.12,0,.19,0l.08.08h.16l.06-.07a.49.49,0,0,1,.29,0l-.12.12h-.47l-.12.13.22.11Zm-28-.17c0,.09-.19.12-.05.25l.1,0C31.28,146.44,31.32,146.36,31.23,146.29Zm.17-.3s0,0,0,0,0,0,0,0,0,0,0,0S31.41,146,31.4,146Zm-.18.21,0,0a.14.14,0,0,0,0-.06l0,0Z"/><path d="M51.66,130h.67c.05,0,.08.11.19.05l.06-.05c.08,0,.1.05.16.07l.06-.07h.33l.07.08h.55l.08.07h.38l.09.08h.39l.08.08h.09s0,.08,0,.1a1.8,1.8,0,0,0,.19.21l.24-.23.19.19c-.06.13-.23.1-.29.24l.05.08-.1.11H55l-.1.13v.12c0,.09-.14.14-.2.22h-.32l-.14.3c-.08,0-.19,0-.25,0s-.14.05-.24.06l-.1.15h-.36L53.2,132H53l-.14.14a1.45,1.45,0,0,0-.56.17H52l-.08.08h-.16l0,.05a.5.5,0,0,1-.27,0l-.06-.06h-.49l-.07.07h-.18s-.08,0-.09,0-.23.05-.26-.14c-.06.12-.09.21-.18.26H48.73l-.08-.08c-.12.06-.19-.06-.3-.07l-.1.08H48l-.08.07H47.7l-.17-.25a.31.31,0,0,1-.13,0l-.07.07H46l-.08.08h-.73l0,.13,0,0h-.67l-.17-.22h-.19l-.06-.06c-.06,0-.12,0-.19,0l-.14.14h-.48l-.07-.07h-.55l-.17-.16H42.3l-.09-.08h-1.1l0-.11a.72.72,0,0,0-.21-.12c-.07,0-.16,0-.21-.08h-.23c-.1-.09-.25-.11-.32-.24s-.17,0-.23-.07l-.09.07h-.15l-.07-.07a2.55,2.55,0,0,1-.14-.24l.09-.13V131s.08-.11.14-.12a.19.19,0,0,0,.17-.13c0-.09.08-.13.12-.18s.13-.13.24-.09.11-.05.17-.07.13,0,.18,0,.09,0,.13,0l.18-.07h.83l.07.07h1.09l.09.08h1.49l.07-.07a2.6,2.6,0,0,1,.4,0l.06-.06c.07,0,.15,0,.24,0l.09-.07h.39l.07.06.14.05.09,0,.12-.11.2.25c.14,0,.17-.1.25-.15h.69l.09-.08h.94l.06,0s0,0,0,0h.71l.05-.06a.9.9,0,0,1,.23,0,1,1,0,0,1,.24-.08c.08,0,.15-.06.24-.08s.15-.09.25-.07l.08.08h.16l.08-.08h.15l.09-.08c.08,0,.16,0,.22.07h.52Z"/><path d="M32.89,37l.09.07L33,37h.29c.1-.08.22-.1.29-.19s.14-.15.2-.22h.57l.22-.23h.17l.27.3v.15a.24.24,0,0,0,.11.08.5.5,0,0,1,.32.33c.07.15.15.29.33.33s.08.06.1.08v.15l-.09.17c.09.1.19.18.28.28l-.11.13v.24l.14.14c0,.08,0,.17-.06.24l.06.07c.08.13,0,.22-.07.32s-.17.13-.28.2h-.14l-.08-.07h-.23l-.09-.08h-.12l-.06,0c-.1-.08-.16-.19-.3-.22s-.08,0-.08-.08-.17-.2-.32-.29H34l-.08-.08c-.14.11-.16.32-.35.4a.08.08,0,0,0,0,0s0,0,0,0l0,.18-.19,0c0,.06,0,.15-.11.19v.31l.07.07,0,.17.05.06-.1.21h-.08c-.07-.09-.21-.13-.2-.27a2.28,2.28,0,0,1-.22-.22c0-.05-.05-.11-.08-.17a.34.34,0,0,0-.09-.15c0-.12-.08-.15-.14-.23a1.12,1.12,0,0,0-.11-.34c-.12-.06,0-.23-.14-.29v-.2l-.31-.62v-.33a1,1,0,0,1-.08-.14s0-.07-.05-.09,0-.1,0-.15,0-.05,0-.07-.05-.17-.14-.22v-.23l-.07-.07v-.39l-.08-.08v-.28l-.24-.46V35c-.09,0-.06-.16-.13-.22s0-.07,0-.11,0-.06,0-.07,0-.24-.13-.3-.11-.16-.17-.25v-.15l-.08-.08v-.16a.15.15,0,0,1-.08-.16c0-.08-.06-.11-.07-.17s0-.13-.05-.18,0-.12,0-.19a1.25,1.25,0,0,1-.24-.37l.07-.08h0l0,0v-.38l.08-.08v-.39l.08-.09V31h.11l.12.12v.23l.08.08v.16l-.08.08v1.14l.15.29v.27c.1.11.11.27.24.33V34l.15.15v.51c0,.09.11.13.09.22s.1.14.08.25.06.12.11.23c.22.17.3.48.5.81l.14.14h.08c0,.15.19.22.21.37l.1,0,.31.31Z"/><path d="M47.71,63.9l-.07.16s0,0,0,0v-.63l-.16-.13V63.1l-.09-.16c-.05-.09-.07-.1-.07-.11V62l.15,0V61.8l-.11,0-.09.08-.08-.16,0,0a.57.57,0,0,1,0-.26h.05l.47.47s0,.08,0,.09,0,.2.1.27,0,.18.13.22v.39l-.08.08.15.15c0,.06,0,.15,0,.17s0,.25.13.3V64l-.07.09.07.08v.08s0,0-.22,0l0-.26-.11-.11Z"/><path d="M69.42,35.37l.21.11v.08l-.21.11H69.2l-.08.08H69l-.12-.23.08-.15c0-.09-.08-.11-.11-.16l-.27,0v-.43c-.14-.06-.15-.2-.24-.31v-.39l.18-.19h.18l.07.15h.39l.19.24v.13s-.08.1-.13.1-.12.08-.18.13v.15l.31.31v.16c0,.09-.15.1-.23.16S69.29,35.46,69.42,35.37Z"/><path d="M16.63,38.38l-.06-.06a.14.14,0,0,1,0-.07v-.5l.05,0,.12.17h.18l.2.19v.16l.07.08v.63l-.05.06s0,0,0,0v.85L17,40H16.9l-.11-.23v-.19l-.08-.09V39l-.08-.08Z"/><path d="M50.33,55l.08.12v.15l-.1.11H49.9c-.06-.09,0-.18,0-.27L49.8,55v-.17l-.08-.08v-.22l.08-.1v-.22l0,0h.47c.07,0,0,.12,0,.18l-.09.11.24.18C50.51,54.82,50.37,54.85,50.33,55Z"/><path d="M72.05,45.38v.28l-.11.14s-.09,0-.11,0l-.47-.47v-.17L71.5,45l.06,0a.16.16,0,0,0,.18-.12c0-.09.07-.13.12-.19H72l.1.14C72.11,45,72.2,45.2,72.05,45.38Z"/><path d="M52.5,57.94h.15l0,0v.42l-.19.16,0,0a.8.8,0,0,1-.13-.13s0-.13-.09-.16-.1-.17-.16-.25v-.31l.07-.08c0-.06,0-.13,0-.19s.16.21.2.32A.41.41,0,0,0,52.5,57.94Z"/><path d="M73.78,61s-.06.05-.07.08a.37.37,0,0,0,0,.14c-.09-.11,0-.22-.06-.31l-.06-.06v-.32l.06-.08V60l-.07-.07v-.38l.12-.2,0,0v.31l.08.09Z"/><path d="M31.52,43.68l-.23-.2c0-.12.07-.14.12-.2a.17.17,0,0,1,.19.15c0,.08.11.11.08.2l.15.16c0,.08,0,.12-.07.16v.12a.28.28,0,0,1,.06.28s-.09,0-.12,0-.08.07-.14.05,0-.13,0-.19l-.18-.19.1-.13Z"/><path d="M16.4,36.66V36c.07,0,.14-.05.19-.11l.14.3.05,0v.24l.06.06a.6.6,0,0,1,0,.27s-.08,0-.1,0A1.78,1.78,0,0,0,16.4,36.66Z"/><path d="M17.72,36.5l.11-.11.05,0v.38l.07.07v.41l-.07.07v.88c-.13,0-.05-.11-.08-.17L17.72,38Z"/><path d="M42.93,121.61l.11.11v.22c0,.06.12.09.09.17s-.17,0-.27,0l-.1-.1-.14-.14a.57.57,0,0,1-.11-.11s-.09-.06-.09-.12.08-.09.12-.2l.11.19h.2Z"/><path d="M57.47,56.22v.11l.08.08v.24c-.06.07-.13,0-.2,0s-.06-.22-.21-.22-.1-.08-.13-.11v-.17c.05,0,.07-.1.14-.11s.13.12.24.16Z"/><path d="M56,130.15h-.17l-.21-.12.2-.34h.28l.1.13V130Z"/><path d="M50.19,58.65c0-.09-.12-.11-.08-.19s.07-.06.13,0l0,.12.12,0a1.66,1.66,0,0,1,0,.68c-.1.05-.13,0-.19-.08s0-.16,0-.23l-.08-.12C50.08,58.75,50.17,58.72,50.19,58.65Z"/><path d="M32.38,27.24v.41c-.08,0-.09,0-.12-.06s0-.14-.11-.19a.13.13,0,0,1-.08-.15c-.07,0-.06-.14-.11-.19s0-.14,0-.22l.09,0C32.2,26.9,32.22,27.13,32.38,27.24Z"/><path d="M42.49,122.59a2.16,2.16,0,0,0,.64.39v.08c-.08.08-.18,0-.25,0l-.29-.15-.24-.12C42.33,122.71,42.42,122.68,42.49,122.59Z"/><path d="M50.09,57.15h-.16c-.09,0-.14-.14-.22-.2v-.25l.14-.05,0-.22c.1.09,0,.18.06.26S50.15,57,50.09,57.15Z"/><path d="M70.57,28.85h-.13c-.06-.12,0-.24,0-.38l-.13-.12v-.16c0-.05,0-.05.21,0s0,.17.1.17Z"/><path d="M70.1,27.64s.07-.06.11-.11h.17c.06.08,0,.17,0,.26s-.11,0-.2.05Z"/><path d="M51,58.83v.34l-.13,0L50.77,59l0,0V59l.13-.16Z"/><path d="M21.8,43.38v.25l.08.08v.09s-.07,0-.1,0a.26.26,0,0,1-.1-.07.14.14,0,0,0,0,0v-.36Z"/><path d="M51.38,39l.38.21.06,0s0,0,0,0-.17,0-.26,0l-.2-.2Z"/><path d="M50.18,57.66v.08s-.07.1-.13.11,0-.12,0-.18.06-.13.11-.19h.18l0,.11Z"/><path d="M24.45,29.29c.08-.05.11-.14.21-.12l.1.2c0,.05-.07.06-.1.11S24.5,29.41,24.45,29.29Z"/><path d="M50.42,60.44v-.06l.12-.16c.11,0,.14.07.19.12v.08A.55.55,0,0,1,50.42,60.44Z"/><path d="M29.48,30v.18l-.11,0c0-.11-.12-.18-.12-.3l.11,0Z"/><path d="M42.85,121.34l-.07.11c-.13,0-.14-.09-.2-.11v-.09c0-.06.11,0,.2,0Z"/><path d="M68.84,85.42l-.11.11s0,0,0,0,0-.2,0-.32l.12,0C68.87,85.25,68.83,85.34,68.84,85.42Z"/><path d="M21.23,42.19h.15c.06.09,0,.18,0,.28l-.13,0C21.22,42.4,21.27,42.31,21.23,42.19Z"/><path d="M42.42,84.4v.08c-.06.08-.13,0-.21,0a.22.22,0,0,1,0-.21Z"/><path d="M54.9,88.75H55c.07,0,0,.12,0,.21l-.14.09A.51.51,0,0,1,54.9,88.75Z"/><path d="M21.53,43l-.12-.2v-.13l.13,0A.47.47,0,0,1,21.53,43Z"/><path d="M50.53,38.57c-.06,0,0-.11,0-.2l.17-.1h.06C50.67,38.39,50.64,38.51,50.53,38.57Z"/><path d="M38,54.06l.11-.11h.19l0,.11A.44.44,0,0,1,38,54.06Z"/><path d="M67.61,78.09h.1l.1.12c0,.05-.07.07-.1.12S67.55,78.23,67.61,78.09Z"/><path d="M52.69,86.83V87l-.11,0c-.07-.07,0-.13,0-.19S52.64,86.78,52.69,86.83Z"/><path d="M53.78,88.13H54l0,.11c-.07.08-.14,0-.23,0Z"/><path d="M35.13,33c.08,0,.1.08.15.11v.18c-.08,0-.1-.06-.15-.1Z"/><path d="M39.32,50.18h.08c.08.06,0,.14,0,.22l-.1,0A.17.17,0,0,1,39.32,50.18Z"/><path d="M26.49,83.42v.22l-.11,0,0-.1C26.39,83.5,26.42,83.43,26.49,83.42Z"/><path d="M38.27,71.86l.1-.11c.06,0,.06,0,0,.29-.08,0,0-.07-.06-.1Z"/><path d="M44.26,70.25l.11.12-.1.12-.12-.12Z"/><path d="M18.44,26.48s0-.12,0-.2l.11,0,.06.12Z"/><path d="M30,31.51h-.12a.2.2,0,0,1,0-.21c.07,0,.09.07.13.1Z"/><path d="M31,25.33h.15l0,.13-.15,0Z"/><path d="M26.63,86.57c-.07-.07,0-.12-.05-.17s0-.1,0-.14S26.66,86.33,26.63,86.57Z"/><path d="M71.13,81.74a.54.54,0,0,1,.37,0C71.42,81.78,71.42,81.78,71.13,81.74Z"/><path d="M47.79,64.61l.12.11c0,.06-.09,0-.14,0l-.11,0Z"/><path d="M21.4,45.29l.13-.13.09.11S21.58,45.32,21.4,45.29Z"/><path d="M62.24,43.38l.13,0,.14.14-.13,0Z"/><path d="M21.48,32.52l-.11,0a.09.09,0,0,1,0-.16S21.46,32.45,21.48,32.52Z"/><path d="M31,33l-.09-.15.11,0C31.06,32.91,31.07,33,31,33Z"/><path d="M29.92,146.38l-.11-.1c0-.08.07-.05.11-.05A.09.09,0,0,1,29.92,146.38Z"/><path d="M70.37,27.05c-.06-.06,0-.1,0-.15S70.42,27,70.37,27.05Z"/><path d="M58.4,59.1a.16.16,0,0,1-.1,0s0,0,0,0l0,0h.1Z"/><path d="M43,57.93h-.11s0,0,0,0,0,0,0,0l.11,0Z"/><path d="M35,50.81a.1.1,0,0,1,0-.16C35.07,50.7,35.07,50.75,35,50.81Z"/><path d="M26.33,84.22a.36.36,0,0,1,0,.1l-.05,0a0,0,0,0,1,0,0s0-.07,0-.1Z"/><path d="M42.54,85c-.06,0-.06-.1,0-.16A.1.1,0,0,1,42.54,85Z"/><path d="M26.6,86.94a.17.17,0,0,1,0-.1s0,0,.05,0,0,0,0,0,0,.07,0,.11Z"/><path d="M54.1,88.24a.1.1,0,0,1,.16,0C54.21,88.3,54.16,88.3,54.1,88.24Z"/><path d="M59.28,146.46c0-.08,0-.08.15-.05C59.37,146.46,59.37,146.46,59.28,146.46Z"/><path d="M48.85,55.39l-.05,0,0,0,0,0Z"/><path d="M42.17,121.66l0,0,0-.05,0,0Z"/><path d="M43.29,122.28l0,0s0,0,0,0l0,0Z"/><path d="M50.29,129.75l0,0,.05,0,0,0Z"/><path d="M40.25,132l0,0,0,0a.09.09,0,0,1-.05,0Z"/><path d="M30.63,146.14l-.05,0,0,0,.05,0Z"/><path d="M58,50.49l0,0,0,0s0,0,0,0S58,50.5,58,50.49Z"/><path d="M10.55,114.39a.14.14,0,0,1,0,.06l0,0,0,0S10.54,114.4,10.55,114.39Z"/><path d="M39,40c.1-.07.19,0,.28,0s.21-.34.4-.46H40l.11.1v.26L40,40h-.16l-.08.07H39Z"/><path d="M41.67,35.61l-.11-.22h0l.12,0A.21.21,0,0,1,41.67,35.61Z"/><path d="M42.81,46.53l.11-.1c0,.06,0,.06,0,.21C42.88,46.63,42.86,46.57,42.81,46.53Z"/><path d="M42.1,46.92c.07-.05.11-.05.15,0S42.17,47,42.1,46.92Z"/><path d="M41.36,34.73a.09.09,0,0,1,0-.15A.08.08,0,0,1,41.36,34.73Z"/><path d="M55.77,80.69c.12,0,.15.06.21.11V81c-.06.07-.13,0-.22,0s0-.07,0-.11A.78.78,0,0,1,55.77,80.69Z"/><path d="M52,66.59l0,0s0,0,0,.05l0,0Z"/><path d="M22.31,13.88l-.11,0c0-.08.09-.09.1-.15A.1.1,0,0,1,22.31,13.88Z"/></g></g></svg>