<svg xmlns="http://www.w3.org/2000/svg" viewBox="0 0 114.54 114.54"><title>Recurso 72MANDALA</title><g id="Capa_2" data-name="Capa 2"><g id="Capa_1-2" data-name="Capa 1"><path d="M39.39,45.42a16.17,16.17,0,0,0,3.12,3.12,45.81,45.81,0,0,0,14.94,2,10.61,10.61,0,0,1-5.62-2.11C43,45.73,34.55,40.87,28,31.63a18.25,18.25,0,0,0-1.88,5.06,17,17,0,0,0-.33,2.45,19.87,19.87,0,0,1-.56-4.92A43.42,43.42,0,0,1,16.56,17a28.57,28.57,0,0,0-6.11,8.51C18.53,40.55,31.32,48,43,50.43A12.48,12.48,0,0,1,40.74,48,12.64,12.64,0,0,1,39.39,45.42Z"/><path d="M53,36.25a15.88,15.88,0,0,0,0,4.41,45.87,45.87,0,0,0,9.17,12,10.75,10.75,0,0,1-2.48-5.47c-4.33-8.11-6.89-17.54-5-28.7a17.65,17.65,0,0,0-6.87,3.75,19.21,19.21,0,0,1,3.08-3.87A43.33,43.33,0,0,1,57,0,28.59,28.59,0,0,0,46.62,1.7c-4.93,16.35-1.16,30.69,5.43,40.67a12,12,0,0,1,1-6.12Z"/><path d="M69.12,39.39A15.9,15.9,0,0,0,66,42.51a45.54,45.54,0,0,0-2,14.94,10.68,10.68,0,0,1,2.1-5.62C68.81,43,73.67,34.55,82.91,28a18.37,18.37,0,0,0-5.06-1.88,17.34,17.34,0,0,0-2.45-.33,19.84,19.84,0,0,1,4.91-.56,43.54,43.54,0,0,1,17.24-8.68A28.7,28.7,0,0,0,89,10.45C74,18.53,66.51,31.32,64.11,43a12.48,12.48,0,0,1,2.47-2.3A12.13,12.13,0,0,1,69.12,39.39Z"/><path d="M78.29,53a15.88,15.88,0,0,0-4.41,0,45.87,45.87,0,0,0-12,9.17,10.71,10.71,0,0,1,5.47-2.48c8.11-4.33,17.54-6.89,28.7-5a18.33,18.33,0,0,0-2.26-4.91,16.85,16.85,0,0,0-1.49-2,19.78,19.78,0,0,1,3.87,3.08,43.33,43.33,0,0,1,18.32,6,28.59,28.59,0,0,0-1.69-10.35c-16.36-4.93-30.69-1.16-40.67,5.43a11.85,11.85,0,0,1,3.37.12A12,12,0,0,1,78.29,53Z"/><path d="M75.14,69.12A15.58,15.58,0,0,0,72,66a45.54,45.54,0,0,0-14.94-2,10.68,10.68,0,0,1,5.62,2.1C71.5,68.81,80,73.67,86.53,82.91a18.34,18.34,0,0,0,1.87-5.06,19,19,0,0,0,.34-2.45,19.83,19.83,0,0,1,.55,4.91A43.28,43.28,0,0,1,98,97.55,28.74,28.74,0,0,0,104.09,89C96,74,83.22,66.51,71.5,64.11a12.48,12.48,0,0,1,2.3,2.47A11.64,11.64,0,0,1,75.14,69.12Z"/><path d="M61.53,78.29a16.27,16.27,0,0,0,0-4.41,45.9,45.9,0,0,0-9.18-12,10.73,10.73,0,0,1,2.49,5.47c4.32,8.11,6.89,17.54,5,28.7a18.19,18.19,0,0,0,4.91-2.26,16.15,16.15,0,0,0,2-1.49,20.16,20.16,0,0,1-3.08,3.87,43.33,43.33,0,0,1-6,18.32,28.5,28.5,0,0,0,10.34-1.69c4.93-16.36,1.17-30.69-5.42-40.67a11.85,11.85,0,0,1-.12,3.37A12,12,0,0,1,61.53,78.29Z"/><path d="M45.42,75.14A15.84,15.84,0,0,0,48.54,72a45.81,45.81,0,0,0,2-14.94,10.61,10.61,0,0,1-2.11,5.62C45.73,71.5,40.87,80,31.63,86.53a18.22,18.22,0,0,0,5.06,1.87,18.5,18.5,0,0,0,2.45.34,19.86,19.86,0,0,1-4.92.55A43.17,43.17,0,0,1,17,98a28.61,28.61,0,0,0,8.51,6.12C40.55,96,48,83.22,50.43,71.5A12.48,12.48,0,0,1,48,73.8,12.11,12.11,0,0,1,45.42,75.14Z"/><path d="M36.25,61.53a16.27,16.27,0,0,0,4.41,0,45.9,45.9,0,0,0,12-9.18,10.76,10.76,0,0,1-5.47,2.49c-8.11,4.32-17.54,6.89-28.7,5a18.16,18.16,0,0,0,2.25,4.91,17.32,17.32,0,0,0,1.5,2,19.56,19.56,0,0,1-3.87-3.08A43.33,43.33,0,0,1,0,57.57,28.5,28.5,0,0,0,1.7,67.91c16.35,4.93,30.69,1.17,40.67-5.42a12,12,0,0,1-6.12-1Z"/></g></g></svg>