<svg xmlns="http://www.w3.org/2000/svg" viewBox="0 0 144.09 144.09"><title>Recurso 51MANDALA</title><g id="Capa_2" data-name="Capa 2"><g id="Capa_1-2" data-name="Capa 1"><path d="M55.68,73.66C65.15,38.31,90.79,14.48,113,20.42c8.06,2.16,14.54,8,19.08,16.18-4.36-12.19-12.13-21-22.49-23.77-22.16-5.94-47.8,17.9-57.27,53.24-6,22.48-4,44.19,3.9,58.55C51.2,110.74,50.64,92.47,55.68,73.66Z"/><path d="M61.61,84.75c-18.29-31.68-17-66.67,2.85-78.14C71.69,2.44,80.39,2,89.4,4.56,77.69-1,66-1.71,56.69,3.66,36.82,15.13,35.54,50.11,53.84,81.8,65.48,102,82.23,115.91,98,120.45,84.67,114.15,71.35,101.62,61.61,84.75Z"/><path d="M73.66,88.4C38.31,78.93,14.48,53.29,20.42,31.13c2.16-8.06,8-14.54,16.18-19.08-12.19,4.37-21,12.13-23.77,22.5-5.94,22.16,17.9,47.8,53.24,57.27,22.48,6,44.19,4,58.55-3.9C110.74,92.88,92.47,93.44,73.66,88.4Z"/><path d="M84.75,82.47c-31.68,18.29-66.67,17-78.14-2.85C2.44,72.39,2,63.7,4.56,54.69-1,66.39-1.71,78.11,3.66,87.4c11.47,19.87,46.45,21.14,78.14,2.85C102,78.61,115.91,61.86,120.45,46.09,114.15,59.41,101.62,72.73,84.75,82.47Z"/><path d="M88.4,70.43c-9.47,35.34-35.11,59.18-57.27,53.24-8.06-2.16-14.54-8-19.08-16.19,4.37,12.2,12.13,21,22.5,23.78,22.16,5.93,47.8-17.9,57.27-53.24,6-22.49,4-44.2-3.9-58.56C92.88,33.34,93.44,51.62,88.4,70.43Z"/><path d="M82.47,59.33c18.29,31.69,17,66.67-2.85,78.14-7.23,4.18-15.92,4.65-24.93,2.05,11.7,5.54,23.42,6.27,32.71.91C107.27,129,108.54,94,90.25,62.29,78.61,42.13,61.86,28.18,46.09,23.64,59.41,29.94,72.73,42.47,82.47,59.33Z"/><path d="M70.43,55.68c35.34,9.47,59.18,35.11,53.24,57.27-2.16,8.06-8,14.54-16.19,19.08,12.2-4.36,21-12.13,23.78-22.49,5.93-22.16-17.9-47.8-53.24-57.27-22.49-6-44.2-4-58.56,3.9C33.34,51.2,51.62,50.64,70.43,55.68Z"/><path d="M59.33,61.61C91,43.32,126,44.6,137.47,64.46c4.18,7.23,4.65,15.93,2.05,24.94,5.54-11.71,6.27-23.42.91-32.71C129,36.82,94,35.54,62.29,53.84,42.13,65.48,28.18,82.23,23.64,98,29.94,84.67,42.47,71.35,59.33,61.61Z"/></g></g></svg>