<svg xmlns="http://www.w3.org/2000/svg" viewBox="0 0 155.73 101.91"><title>Recurso 19ART</title><g id="Capa_2" data-name="Capa 2"><g id="Capa_1-2" data-name="Capa 1"><path d="M29.91,53.94H24.13c-.12-.15-.21-.22-.21-.28,0-1.83,0-3.65,0-5.45a.94.94,0,0,1,.2-.2.46.46,0,0,1,.23,0H35.59c.06,0,.13-.08.28-.18v-5.6c.7-.4,1.37-.15,2-.19s1.33,0,2,0h8V36.22c.15-.14.2-.24.27-.24.25,0,.5,0,.75,0h4.75c.42-.6.17-1.27.21-1.91s0-1.33,0-2V30.12C57,29.89,102,29.81,113.65,30c.37.6.11,1.27.16,1.91s0,1.33,0,2a6.08,6.08,0,0,0,.14,2h11.65c.39.67.14,1.34.18,2s0,1.33,0,2v2h17.75c.13.14.22.2.23.27a4.17,4.17,0,0,1,0,.5v5c.61.41,1.28.16,1.92.21s1.33,0,2,0h1.93a6.14,6.14,0,0,1,.14,2.06c0,.58,0,1.16,0,1.75v2c.64.4,1.32.13,2,.18s1.34,0,2,0h2v5.8c-.08.08-.13.16-.2.19a.68.68,0,0,1-.25,0H144.05c-.41-.31-.25-.76-.25-1.15,0-1.56,0-3.13,0-4.62-.16-.13-.22-.2-.29-.22a.64.64,0,0,0-.24,0H132c-.4-.62-.15-1.29-.19-1.93s0-1.33,0-2a5.94,5.94,0,0,0-.12-2H108s-.13.1-.16.17a.48.48,0,0,0,0,.24c0,3.75,0,7.49,0,11.24,0,.06-.09.12-.22.27h-5.51c-.14.15-.22.2-.25.27a.7.7,0,0,0,0,.25v5.26c-.6.42-1.27.17-1.91.21s-1.33,0-2,0H96.06a1.68,1.68,0,0,0-.21.3.7.7,0,0,0,0,.25v5.19c-.09.1-.14.18-.21.21a.47.47,0,0,1-.23,0h-29a2.3,2.3,0,0,1-.53-.16V66.14c-.7-.39-1.37-.14-2-.19s-1.33,0-2,0h-4c-.67,0-1.34,0-2,0a5,5,0,0,1-2-.15v-5.6c-.15-.13-.2-.22-.27-.23a4.17,4.17,0,0,0-.5,0h-5c-.41-.61-.16-1.29-.21-1.92s0-1.33,0-2V54.16c-.18-.12-.25-.2-.31-.2H36.1c-.4.65-.14,1.32-.19,2s0,1.33,0,2a5.4,5.4,0,0,1-.12,2H30.11c-.08-.09-.18-.14-.19-.2a2.8,2.8,0,0,1,0-.5Z"/><path d="M77.85,101.9V96.13c-.15-.12-.21-.19-.28-.21a.7.7,0,0,0-.25,0H66.07c-.39-.62-.14-1.3-.19-1.94s0-1.33,0-2a6.16,6.16,0,0,0-.13-2H54.09c-.4-.7-.15-1.37-.19-2s0-1.33,0-2a5,5,0,0,0-.16-2H42.14c-.14-.15-.23-.2-.24-.27a4.17,4.17,0,0,1,0-.5v-5c-.61-.42-1.28-.17-1.92-.21s-1.33,0-2,0H36.11c-.12-.18-.2-.25-.2-.31,0-1.83,0-3.66,0-5.44.11-.1.16-.18.23-.21a.43.43,0,0,1,.23,0H53.59c.07,0,.13.09.28.21v5.51c.15.15.2.25.27.26a2.77,2.77,0,0,0,.5,0h17a1,1,0,0,1,.17.18.4.4,0,0,1,.07.21c0,1.82,0,3.64,0,5.45,3.13.26,33.29.34,47.77.12.38-.59.12-1.27.17-1.9s0-1.34,0-2a5.92,5.92,0,0,1,.11-2h17.7c.36.6.1,1.28.15,1.92s0,1.33,0,2v2h-5.75c-.14.15-.23.21-.24.27a4.17,4.17,0,0,0,0,.5v5c-.61.41-1.28.16-1.92.21s-1.33,0-2,0H126a6.14,6.14,0,0,0-.14,2.06c0,.58,0,1.16,0,1.74v1.94a1.49,1.49,0,0,1-.22.22.63.63,0,0,1-.24,0H114.12c-.07,0-.13.09-.28.21v5.51c-.15.15-.2.23-.27.26a.7.7,0,0,1-.25,0Z"/><path d="M17.92,12H6c-.07-2,0-3.87,0-5.79C5.31,5.8,4.64,6.06,4,6S2.67,6,2,6H0V.2a96.18,96.18,0,0,1,11.92,0V5.75c.15.14.2.23.27.24a2.77,2.77,0,0,0,.5,0h17c.06.07.13.12.18.19a.4.4,0,0,1,.07.21v5.37c.17.13.23.2.3.22a1,1,0,0,0,.25,0h71.17c.4.61.15,1.28.2,1.92s0,1.33,0,2v1.86a1.65,1.65,0,0,0,.32.2.68.68,0,0,0,.25,0h46.94a2.33,2.33,0,0,1,.27.05c.37.59.11,1.26.16,1.9s0,1.33,0,2v2H84c-.35-.61-.1-1.28-.14-1.92s0-1.33,0-2V18H18.18c-.14-.14-.24-.2-.25-.26a2.79,2.79,0,0,1,0-.5Z"/></g></g></svg>