<svg xmlns="http://www.w3.org/2000/svg" viewBox="0 0 129.93 697.24"><title>Recurso 10ART</title><g id="Capa_2" data-name="Capa 2"><g id="Capa_1-2" data-name="Capa 1"><path d="M124,598.64l-.29.39c0,.66,0,1.4,0,2.13s0,1.22,0,1.83c-.54.49-.24,1.13-.3,1.7a7.73,7.73,0,0,1-.06,1.81,7.15,7.15,0,0,0-.27,2.33c0,.74,0,1.48,0,2.22l-.31.3c0,1.14,0,2.28,0,3.44l-.13.13c0,.05-.13.1-.13.15,0,1.28,0,2.57,0,3.9l-.31.47.3.66-.29.49c0,.88,0,1.76,0,2.63a8.46,8.46,0,0,1-.26,2.33c-.24.74.12,1.67-.11,2.41-.53,1.71-.08,3.45-.35,5.21l-.24.23a23.25,23.25,0,0,0,0,2.64c.09.94-.42,1.78-.35,2.72a7.66,7.66,0,0,1-.06,2.62,12.78,12.78,0,0,0-.25,3.74c0,.74-.45,1.35-.36,2.11a16.59,16.59,0,0,1,0,2.23c0,.74,0,1.49,0,2.23,0,.41-.4.65-.32,1.1a6.11,6.11,0,0,1,0,1.21l-.29.32.29.85-.32.31c0,1.13,0,2.28,0,3.43-.09.1-.22.18-.27.29a1.33,1.33,0,0,0,0,.4,21.78,21.78,0,0,1-.2,3.78,15.45,15.45,0,0,0-.14,3.6c0,.6-.45,1.07-.34,1.71a10.28,10.28,0,0,1,0,1.84l-.32.52.31.53-.29.6a7.46,7.46,0,0,1-.06,2,5.65,5.65,0,0,0-.26,1.72c0,.67,0,1.35,0,2.09l-.31.47.3.64c-.09.17-.19.33-.31.52v2.19l-.33.32.34.71-.31.46c0,.73,0,1.47,0,2.23l-.32.31c0,.71,0,1.45,0,2.19a18.86,18.86,0,0,0-.32,2.52c.08.87,0,1.75,0,2.63,0,.43-.41.65-.33,1.1a5.92,5.92,0,0,1,0,1.19c-.3.74-1.11.58-1.61.94-.61-.18-1.14.31-1.71.25s-1.22.43-1.92.31a10,10,0,0,0-1.82,0,1.76,1.76,0,0,0-.77.08,2.47,2.47,0,0,1-2.23-.11l-.32.32-.66-.33-3.45,0a4,4,0,0,1-2.11-.3c-.68.2-1.23-.44-1.9-.31S96.54,696,96,696a2.41,2.41,0,0,1-1.1-.29,2.61,2.61,0,0,0-1.29-.3,3.06,3.06,0,0,1-1.09-.32,7.6,7.6,0,0,1-2.77-1.16c-.12-.1-.37,0-.55-.06a4.69,4.69,0,0,1-.49-2.27,9.33,9.33,0,0,0,0-1.83c-.13-.94.41-1.78.34-2.72s0-1.75,0-2.63c.65-1.68.11-3.44.38-5.19l.24-.23,0-2.24.26-.3c0-.54,0-1.07,0-1.61s0-1.22,0-1.82-.21-1.09.29-1.5c0-.61,0-1.22,0-1.83s0-1.07,0-1.51l.35-.39c0-1,0-2,.06-3A9.69,9.69,0,0,0,91,663c0-.6,0-1.21,0-1.79l.31-.31c0-1,0-2,0-3,0-.47.44-.78.33-1.3a7.38,7.38,0,0,1,0-1.41c0-.48,0-.95,0-1.37l.33-.33a23.27,23.27,0,0,0,0-2.64c-.1-.95.41-1.78.35-2.72a7.66,7.66,0,0,1,0-2.62,17.34,17.34,0,0,0,.29-3.38c.35-.79.35-.79,0-1.75l.25-.3a.58.58,0,0,0,0-.19c0-.47,0-.94,0-1.42A11,11,0,0,1,93,637c0-.44.25-.87.27-1.3a12.6,12.6,0,0,1,.09-2.62,10.46,10.46,0,0,0,.26-2.53c0-.88,0-1.75,0-2.56l.33-.36c0-.88.07-1.76,0-2.63,0-.68.45-1.22.34-1.92a10.06,10.06,0,0,1,0-1.82c0-.67,0-1.35,0-2s.41-1.22.32-1.91a13.82,13.82,0,0,1,0-1.82c0-.59.42-1.08.32-1.71a13.82,13.82,0,0,1,0-1.82c0-.61,0-1.21,0-1.78l.33-.32c0-1,0-1.9,0-2.85a5.69,5.69,0,0,1,.18-1.95,6.46,6.46,0,0,0,.13-2c0-.68,0-1.35,0-2s.41-1.22.33-1.91a18.27,18.27,0,0,1,0-2.22c0-.67,0-1.34,0-1.93l.29-.38c0-1.36,0-2.71,0-4.06,0-.64.41-1.22.31-1.91a13.82,13.82,0,0,1,0-1.82c0-.68,0-1.35,0-2.05l.33-.52-.32-.53.3-.6c0-1.48,0-3,0-4.46l.33-.36c0-.87,0-1.81,0-2.76s0-1.89,0-2.84c.58-.77.24-1.67.3-2.51s0-1.89,0-2.84c0-.79.43-1.49.34-2.31a23.08,23.08,0,0,1,0-2.63c0-.82,0-1.63,0-2.44,0-.59.44-1.06.33-1.7a11,11,0,0,1,0-1.9l.31-.46c-.09-.19-.2-.42-.3-.65l.33-.66-.36-.36c.11-.2.22-.42.33-.64q0-4,.08-7.92l.28-.27a2.52,2.52,0,0,1-.06-2.24,1.2,1.2,0,0,0,.09-.57c0-.94,0-1.89,0-2.84a12.73,12.73,0,0,1,.26-2.93,11,11,0,0,0,.08-2.82c0-1.42,0-2.84,0-4.26l.33-.66-.35-.36.33-.65a1.74,1.74,0,0,1-.27-1.32l.31-.31c0-.84,0-1.72,0-2.59s0-1.76,0-2.64-.29-1.73.29-2.51l0-2.43c0-.88,0-1.76,0-2.64l0-2.63a14,14,0,0,0,0-1.83c-.07-.62.4-1.09.34-1.7a14,14,0,0,1,0-1.83c0-.61,0-1.21,0-1.82s0-1.22,0-1.83,0-1.22,0-1.82.43-1.21.34-1.91a16.59,16.59,0,0,1,0-2.23c0-.67,0-1.35,0-2s0-1.49,0-2.23,0-1.36,0-2l0-2,0-2.23c0-.67,0-1.35,0-2,0-1.82,0-3.64,0-5.46l.33-.32-.24-.48c0-1.07,0-2.15,0-3.29l.23-.25-.32-.68.3-.47c0-.55,0-1.09,0-1.63s.11-1-.35-1.38l.33-.37q.22-22.56.45-45.06l-.29-.3.33-.63c-.1-.68.22-1.54-.25-2.36a1,1,0,0,1,.09-.76,2.53,2.53,0,0,0-.07-2.23l.32-.31c-.1-.22-.21-.45-.32-.67l.33-.66-.32-.36L102,415l-.33-.34.35-.7-.32-.5.31-.63c-.1-.23-.21-.45-.31-.67l.36-.35-.32-.66c0-2.5,0-5,.08-7.5,0-1.28,0-2.57.05-3.85s-.39-2.47-.29-3.74,0-2.56.06-3.85,0-2.57,0-3.85,0-2.57.05-3.85a1.55,1.55,0,0,0-.33-.93l.35-.52-.3-.59c0-3.23.09-6.6.09-10a18.91,18.91,0,0,0-.19-3.75,19.7,19.7,0,0,1,0-3.84c0-1.29,0-2.57,0-3.85l-.32-.32.34-.69-.3-.48.09-9.11-.31-.33.35-.69L101,349c0-1.86,0-3.75.06-5.65l-.29-.32.31-.84-.29-.3c0-1.76.06-3.52,0-5.28a7.91,7.91,0,0,0-.1-2.37,7.81,7.81,0,0,1-.12-2.17c0-.82,0-1.63,0-2.44l-.28-.49.32-.66-.29-.33c0-.13,0-.26,0-.39,0-.34,0-.68,0-1,0-.94,0-1.89,0-2.84s.24-1.72-.25-2.52c0-.94,0-1.89,0-2.83,0-.54-.38-.95-.29-1.51a12.48,12.48,0,0,0,0-1.62c0-.54,0-1.08,0-1.62,0-.05-.08-.1-.12-.15a.91.91,0,0,0-.34-.15c-1.09,0-2.17,0-3.25,0l-.59-.6c-.86.28-1.61-.52-2.48-.25l-1.18-1.2c-.28-.57.33-1.05.26-1.67l1.36-1.33c.31-.74-.25-1.56.4-2.16,0-.81,0-1.62,0-2.43s0-1.49,0-2.23,0-1.48,0-2.16l.33-.35,0-2.5-.63-.64c-.08,0-.18,0-.22,0L90,299.31h-.36c-.1,0-.19,0-.23,0l-4.9,4.8a4.14,4.14,0,0,0-1.56.23c-.43.19-1,.12-1.5.29s-1.15-.12-1.56.11a2.82,2.82,0,0,1-1.35.17c-.54,0-1.08,0-1.62,0l-1.55,0-.51-.52c-.25-.49,0-1-.12-1.52l.89-.87,0-.62,1.71-1.68v-.49L79.62,297l.09-.73,2.86-2.81V293l.87-.86.57,0,3.45-3.39.62,0,2.59-2.54h.46l.4-1a10.55,10.55,0,0,0-.34-1c-.14-.31-.08-.69-.28-.9-.34-.36-.17-.76-.2-1.14s-.4-.66-.29-1.1a1,1,0,0,0-.24-.91.83.83,0,0,1,0-.78,2,2,0,0,0,.06-2,2.32,2.32,0,0,1,0-1c0-1.42,0-2.84,0-4.26,0-.94,0-1.89,0-2.83-.65-.7.08-1.68-.5-2.43-.17-.21,0-.66,0-1l.06-6.29-.26-.3c-.1-.49.17-1-.27-1.51-.14-.15,0-.53,0-.79.06-.71.57-1.41.27-2.1a5.36,5.36,0,0,1-.23-2.13c0-.74,0-1.48,0-2.28l-.3-.47c.09-.21.2-.43.31-.66L89,248.7c.19-.66-.07-1.37.22-2.12a6.51,6.51,0,0,0,.14-2.18c0-.67,0-1.35,0-2s0-1.48,0-2.23c0-.59.42-1.06.34-1.7s-.22-1.2.28-1.7c0-.75,0-1.49,0-2.24l.3-.29c0-1.68,0-3.37,0-5.05a5.21,5.21,0,0,0-.26-1.52,5.53,5.53,0,0,1,0-1.41c-.48-.42-.12-1-.31-1.49a10.39,10.39,0,0,1-.54-1.6c-.1-.49-.44-.92-.52-1.4a8.54,8.54,0,0,1,0-1.53l-.33-.38c0-1.08,0-2.16,0-3.32l-.28-.43a2.1,2.1,0,0,0,0-2l.28-.27c0-.35,0-.69,0-1a.51.51,0,0,1,.07-.17l.8-.79H90l1.45-1.41H92L93.46,209c-.14-.69.28-1.51-.26-2.24a6.71,6.71,0,0,0,0-2.2A4.6,4.6,0,0,1,93,202.6a8.66,8.66,0,0,0-.29-1.31,13.28,13.28,0,0,1,0-1.41,4.41,4.41,0,0,0,0-1.41,13.18,13.18,0,0,1-.24-3.54l-.27-.29c0-.95,0-1.9.06-2.84.05-.51-.39-.82-.31-1.31a8.15,8.15,0,0,0,0-1.21,8.42,8.42,0,0,0,0-1.42,6.16,6.16,0,0,1-.26-1.71c0-.54,0-1.08,0-1.62s0-1.22,0-1.83c-.1-.16-.19-.33-.28-.49a2.36,2.36,0,0,0,.34-.93c.41-1,1.51-.86,2.07-1.51.49.13.68-.35,1-.49a9.24,9.24,0,0,0,1-.44,5.92,5.92,0,0,1,2.12-.72,14.93,14.93,0,0,0,2-.51c.54-.13,1.07-.5,1.68-.34.42.1.67-.44,1.1-.28a4.23,4.23,0,0,1,2.74-.54l1.61-.57a11.57,11.57,0,0,0,2.88,0c1.66-.4,3.31-.06,4.93-.23l.35.36c.65-.27,1.23.22,1.87.29.22,0,.41.31.66.52a7.75,7.75,0,0,1,0,1.36c-.07.44.44.67.3,1.11s.22.86.27,1.3-.08.74.21,1.14-.18,1.05.33,1.47c-.17,1.06.28,2.07.29,3.16l.21.21a10.09,10.09,0,0,0,.15,2.43c.26.81-.12,1.64.17,2.35.38.92.1,1.83.26,2.77l.26.26c0,1.14,0,2.29,0,3.45l.28.28,0,2.84c.59.79.09,1.69.34,2.65l.2.36c-.1.23-.21.45-.31.66l.27.34c.2.83-.13,1.67.17,2.55a8.63,8.63,0,0,1,.14,2.41l.28.29-.34.68.29.47c0,.75,0,1.49,0,2.24l.33.33c0,1.3,0,2.65,0,4l.25.29c0,.61,0,1.22,0,1.82s.45.92.31,1.51a3.47,3.47,0,0,0,0,1.81c.4,1.12.13,2.23.24,3.37.52.69.22,1.52.22,2.29s.38,1.64.32,2.52a5.91,5.91,0,0,0,.11,2.36,9.54,9.54,0,0,1,.14,2.42l1.09,1.11a4.37,4.37,0,0,0,0,1.62,3.44,3.44,0,0,1,.23,1.32,5.41,5.41,0,0,0,0,1.61,10.55,10.55,0,0,1,.19,3.75c0,.74.43,1.36.32,2.12a5.15,5.15,0,0,0,0,2.21,9.07,9.07,0,0,1,.21,2.74c0,.72.38,1.37.29,2.11a12.5,12.5,0,0,0,0,2c0,.3.22.59.26.9a9.18,9.18,0,0,1,0,1.05l-1.18,1.16c.1.66.21,1.35.32,2l-.32.32.38,1.23.73.74,0,1.2.27.31-.06,5.27a9.2,9.2,0,0,1,0,1.82c-.12.64.41,1.13.28,1.71s.41.94.31,1.51a10.93,10.93,0,0,0,0,1.62V279l.29.3c-.17.85.36,1.63.28,2.51a4.29,4.29,0,0,1-.32,1.5,9.1,9.1,0,0,0-.56,1.59,6.8,6.8,0,0,0,0,1.81l.25.3a2.3,2.3,0,0,1-.25,1.48l.26.3,0,3.65a5.67,5.67,0,0,1,.26,2.52c0,.88,0,1.76,0,2.63l.28.35-.3.84.32.32c0,1.32,0,2.67-.08,4l.33.33-.34.7.3.46a14.6,14.6,0,0,0,0,3,13.91,13.91,0,0,1,.21,2.94c0,.94,0,1.89,0,2.83l.28.33-.31.84.31.31c0,1.14,0,2.29,0,3.45l.31.31-.34.7.3.47c0,1.27,0,2.55,0,3.84l.31.54-.33.51.29.62,0,3.24c.07.11.15.21.28.39,0,.66,0,1.4,0,2.13a6.25,6.25,0,0,0,.21,2.34,1.74,1.74,0,0,1-.27,1.69l.3.5q0,2.82-.06,5.67l.31.31-.34.7.3.47c0,1.67,0,3.36-.05,5.05l.27.34-.29.84.28.29c0,2.3-.06,4.6-.09,6.87l.33.33-.31.84.28.32q0,4.26-.08,8.52l.27.34-.29.83.32.36c0,1.23-.05,2.51-.06,3.79s0,2.57-.06,3.85.39,2.33.29,3.54,0,2.57-.06,3.85,0,2.57,0,3.85c0,.68,0,1.35,0,2,0,.51-.15,1.06.25,1.51,0,.05-.05.25-.13.34a.85.85,0,0,0-.12.94c.11.3.32.57.24.91s-.2.59-.3.88l.29.29v1.43l-.29.29c0,.44.3.81.29,1.3-.07,3-.08,5.94-.11,8.92l.29.5a3.11,3.11,0,0,0-.31,1.9l.28.28a2.45,2.45,0,0,0-.21,2.07,2.73,2.73,0,0,1-.11,2.24l.18.18-.3,29.71-.22.45.31.32a2.94,2.94,0,0,1-.31,1.89l.33.56-.31.46a3,3,0,0,1,0,2.57l.29.33-.32.66.31.67-.35.34.33.72-.33.49a2.41,2.41,0,0,1,.28.63,2.15,2.15,0,0,1,0,1c-.59,1.62-.14,3.29-.32,4.74l.32.68-.33.32q-.06,6.78-.13,13.57c0,.47,0,.95,0,1.42a10.94,10.94,0,0,0,0,1.62c.08.51-.36.82-.33,1.3,0,.73,0,1.47,0,2l.31.68-.31.31q-.06,6.6-.13,13.18l-.31.31.3.86-.3.29c0,4-.08,8-.12,12l-.22.27c0,3.88-.07,7.72-.11,11.49l-.36.35c0,.55.56,1,.09,1.66-.2.26-.11.76-.12,1.16l-.09,8.51a3.15,3.15,0,0,1-.28,1.72c-.24.42.24.83.25,1.29l-.28.28,0,2.43c0,1,0,1.9,0,2.84a14.2,14.2,0,0,1-.18,3,12.26,12.26,0,0,0-.15,2.79c0,1,0,2,0,3s0,1.89,0,2.84a13.24,13.24,0,0,0-.31,2.11,20.76,20.76,0,0,1,0,2.23c0,.74,0,1.48,0,2.24l-.29.28c0,2.49,0,5-.07,7.47l-.29.3c0,1.7,0,3.38,0,5.07l-.29.49.3.66-.29.33c0,.13,0,.26,0,.39,0,1.49,0,3,0,4.46a3.2,3.2,0,0,1-.3,1.5l.31.32-.25.47c0,2.5,0,5-.07,7.42l-.37.35c0,2.31,0,4.6,0,6.88l-.31.3C124,595.26,124,597,124,598.64ZM96.59,645.48c0,1.15,0,2.3,0,3.44l-.29.29,0,2.22-.36.6c.59.24.45.82.29,1.17a2.33,2.33,0,0,0-.24.92c0,.54,0,1.08,0,1.62l-.24.3c-.17,1,.15,2-.35,2.88l.3.46-.4.67,0,2.06-.28.33c0,.74,0,1.48,0,2.23a13.08,13.08,0,0,0-.32,2.11,18.29,18.29,0,0,1,0,2.22l-.24.25c-.18.94.21,1.9-.35,2.75a8.15,8.15,0,0,1-.28,2.73,4.39,4.39,0,0,0,0,1.41,9.9,9.9,0,0,1,0,1.22c-.05.43-.26.86-.27,1.29,0,1.29,0,2.57,0,3.86-.6,1.27-.25,2.62-.31,3.93-.09,1.69,0,3.38-.07,5.07l-.1,0-.22,1.14.32.61c-.1.25-.46.36-.23.67h1l.72.35.28-.54-.33-.51.32-.55a3.17,3.17,0,0,1-.27-1.9l.59-.58-.29-.84c.2-.3.61-.4.58-.84l-.58,0,.06-1.44.69-.68c.1-.46.17-.78.2-.93l-.67-.77c.18-.45-.08-.91.19-1.37l.94.7.4-.48-.23-.39-.09-1.61.89-.25c-.07-.31.14-.66-.16-1s0-.43.11-.66,0-.68.09-1a2.67,2.67,0,0,0,.28-1.31,2.71,2.71,0,0,1,.28-1.48l-.28-.32c.12-1-.18-2.11.33-3.11l-.28-.28c0-.55,0-1.09,0-1.63l-.3-.51c.06-.3.37-.49.33-.87a4.16,4.16,0,0,1,.57-2c0-.61,0-1.22,0-1.82l-.36-.57c.88-.51.25-1.12.1-1.72.29-.16.86.14.86-.55l-.56-.72c0-.83,0-1.64,0-2.46a2.56,2.56,0,0,0,.07-2.33l.27-.49-.33-.52.32-.52a14.38,14.38,0,0,1,.07-2.63,15.2,15.2,0,0,0,.27-1.5,1.5,1.5,0,0,1,.28-.58l-.32-.56.33-.39a9,9,0,0,1,0-1.15,3.44,3.44,0,0,1,.31-1.29,2.57,2.57,0,0,0,0-2.41l.58-.57c0-1.15,0-2.3,0-3.43l.27-.27c0-1.85,0-3.67.08-5.43l-.31-.52.63-.78-.33-.72c.61-.22,0-1,.62-1.2,0,0,0-.26,0-.39a1.52,1.52,0,0,0-.22-.72,1.54,1.54,0,0,1,.14-1.11,3.44,3.44,0,0,0,.15-3l.59-.57c-.26-1.27.51-2.44.28-3.57l.33-.6-.29-.34a2.16,2.16,0,0,0,0-2l.29-.43c0-1.21.08-2.36,0-3.5,0-.69.38-1.25.33-1.91a1,1,0,0,1,.2-.73c.31-.42-.16-1.07.36-1.48,0,0,0-.12,0-.18a.35.35,0,0,0-.06-.18c-.59-.57,0-1.08.08-1.61l-.28-.45c0-.45-.13-.93,0-1.24a2.69,2.69,0,0,0,.28-1.12,1.63,1.63,0,0,0-.28-1.1.19.19,0,0,1,0-.18c.45-.29.1-.93.42-1.11,0-.75,0-1.42.07-2l-.22-.53.51-.51c0-1,0-1.84,0-2.71l-.24-.48.35-.35a5.13,5.13,0,0,1,.61-3.08,1.52,1.52,0,0,1-.3-1.15l.32-.47-.32-.56a3,3,0,0,0,.31-1.89l-.28-.29c.66-1.77.66-1.77.33-2.89l.6-.59-.26-.55c.12-.53.21-1,.3-1.36l-.29-.29c0-.73,0-1.4,0-2,.7-1.52.7-1.52.32-2.55l.29-.49a9.27,9.27,0,0,1,.07-2.42,10.91,10.91,0,0,0,.28-2.33l.31-.31-.21-.45c0-.9,0-1.77,0-2.75l.48-1.28c-.1-.21-.39-.36-.24-.69l.25-.28c0-1.22,0-2.43,0-3.65a1.62,1.62,0,0,1,.21-1.14c.33-.39-.09-1,.34-1.49s-.1-1-.19-1.45l.18-.22.09-1.35-.32-.61.29-.33c.17-.69-.2-1.47.34-2.1,0-.74,0-1.49,0-2.23s0-1.49,0-2.23l.06-6.08-.28-.29a4.91,4.91,0,0,0,.32-2.31l.28-.28a8.57,8.57,0,0,0-.28-.9c-.2-.46.38-.68.3-1.1l-.31-.32c.1-.61.26-1.24.32-1.87s0-1.35,0-2l.29-.52c-.17-.45-.61-.53-.56-1l.61-.7-.35-.74.32-.31,0-2c-.52-.55-.17-1.19-.27-1.75l.61-.61-.33-.69c.14-.74-.12-1.52.3-2.3.27-.51-.16-1.13-.36-1.64a1.78,1.78,0,0,1-.1-1.13,3.89,3.89,0,0,0,0-2.82l.39-.38-.11-.86.35-.72-.33-.33c.1-.29.19-.59.31-.88.19-.45-.33-.7-.28-1.11l.3-.29c0-.63.15-1.31-.29-1.87l.34-.68a2.5,2.5,0,0,0-.2-.2c0-1.2,0-2.27,0-3.45l.44-.43c0-1.27,0-2.49.05-3.69-.18-.29-.58-.39-.57-.8l.59-.74-.31-.69.28-.33a2.3,2.3,0,0,0-.22-1.48l.27-.29c-.07-.5-.49-.94-.22-1.45l.53-.57c0-.8,0-1.55,0-2.29a3.55,3.55,0,0,0-.27-1.3,3.08,3.08,0,0,1,0-2.79,5,5,0,0,0,.26-1.91c-.57-.65-.22-1.42-.22-2.12s-.23-1.43.21-2.15c.21-.35.07-.91.08-1.38a1.11,1.11,0,0,0-.23-.93.79.79,0,0,1,0-.76,2.34,2.34,0,0,0,.27-1.52c0-1.69,0-3.38.06-5.07,0-.47,0-.95,0-1.42a3.64,3.64,0,0,0-.08-1.36l-.72-.74a4.5,4.5,0,0,1,.56-2.78l-.28-.49c.12-.36.39-.67.32-1.09.18-.26.59-.37.55-.89l-1.19-1.21.64-.8a2.51,2.51,0,0,0-.27-1.32l.92-1-.34-.55a9.12,9.12,0,0,1,.07-1.38,8.14,8.14,0,0,0,0-4l.11-.13c0-1,0-1.91,0-2.85-.07-.07-.22-.21-.36-.36s0-.12-.07-.18a2.28,2.28,0,0,0,.15-2,2.31,2.31,0,0,1,0-1.7c.22-.4,0-.82.16-1.16a2.14,2.14,0,0,0,.27-1.31l-.56-.57a3,3,0,0,0,0-2.61l.53-.52c0-.44-.05-.93.15-1.21s.14-.75.16-1.15l-.51-.52c.26-1.32,1.23-2.46.77-3.81-.43-.57-.68.3-1,0,0-.41.38-.51.56-.78.34-.08.88.17.88-.53-.53-.33-.47-1-.78-1.47l0-3.2.26-.47-.32-.38c0-.63.06-1.31.09-2l.51,0,0-1.41c-.56-.23,0-1-.57-1.19a2,2,0,0,0,.28-.69c0-.53.57-.93.31-1.51l-.61-.78.67-.81-.27-.47c0-.86,0-1.73,0-2.59l.1-.11a1.44,1.44,0,0,0-.11-1.52l.6-.73v-.82l-.56-.57c0-.56,0-1.1,0-1.64-.59-.6-.15-1.19,0-1.74l-.3-.5.63-.78a2.37,2.37,0,0,0-.18-1,2.17,2.17,0,0,1-.08-1.17,3.82,3.82,0,0,1,.28-.89l-.57-.58c0-.41,0-.81,0-1.21a8.51,8.51,0,0,0-.26-1.11l.29-.28c-.43-1.36-.41-1.58.31-3.29-.32-.54-.3-1.25-.75-1.59-.32-.9.24-1.61.23-2.4s0-1.62,0-2.43l-.26-.3c-.05-.46.44-.81.28-1.29-.08-.23-.33-.55-.25-.68a1.31,1.31,0,0,0,.27-.91c.41-.28.26-.71.29-1.09-.58-.41-.51-1.14-.88-1.74l.82-.81.12-.95-.59-.6c0-.57,0-1.11,0-1.65l-.31-.47c.12-.18.32-.37.3-.5-.09-.44.37-.7.31-1.1a5.39,5.39,0,0,0-.29-1.29,2.87,2.87,0,0,1-.27-1.11,2.42,2.42,0,0,0-.29-1.28,2.08,2.08,0,0,1-.25-1.26l1.15.21c-.57-.45,0-1.19-.53-1.54q0-.9,0-1.77l-.35-.44a1,1,0,0,0,.28-1.35,2.07,2.07,0,0,1-.06-1.7,2.34,2.34,0,0,0-.07-2,4.34,4.34,0,0,1-.25-1l.29-.53-.7-.72c.49-.34.39-.87.4-1.39s0-1.08,0-1.62l-.28-.48.32-.67-.29-.33a2.45,2.45,0,0,1,.24-1.43l-.27-.51.29-.34c.09-.46-.29-.81-.28-1.29s.44-1,.33-1.5.37-.82.3-1.16l-.3-.57.34-.5c-.19-.45-.36-.85-.52-1.26,0,0-.08-.13-.06-.17a2.46,2.46,0,0,0,.32-1.3,2.73,2.73,0,0,1,.28-.88l-.29-.29v-1.43l.87-.85c0-.55-.61-1.06-.07-1.63,0-.66.07-1.33.1-2,0,0,0-.07-.08-.11h-.41a2.52,2.52,0,0,1-1-1.14l.62-.05v-.55l.89-.88c-.22-.6-.41-1.13-.59-1.61l.32-.49-.34-.7.65-.64c-.1-.22-.21-.44-.31-.67a2.59,2.59,0,0,0,.28-1.77c-.14-.42-.59-.49-.54-.94l.53-.53.1-.79c-.3-.47-.66-.6-.62-1s-.42-.67-.27-1.1a2.55,2.55,0,0,0,.28-.89c0-.5.55-.57.6-1s0-.69,0-1l.29-.28c-.13-.43-.24-.85-.37-1.26s-.31-.82-.46-1.23a4.22,4.22,0,0,0,.52-2.77c-.57-.34-.4-1.06-.76-1.51,0,0,0-.12,0-.18l.28-.35-.11-.18-.25-1.06.63-.7c0-1.17,0-2.25,0-3.33l.3-.48-.31-.67.29-.33a2,2,0,0,0-.23-1.3c-.22-.43.23-.84.28-1.28-.16-.29-.56-.39-.57-.78l.32-.64-.32-.37c.19-.51.4-1,.61-1.58l-.44-.56-.16-1.54.68-.66-.34-.54,0-.78.55-.55,0-1.19.53-.52c.23-.15.6.18.62-.28l-.29-.34-.88.31c.14-.74.91-1,1.2-1.62l-.3-.47c0-.72,0-1.46,0-2.2l-.61-.69.37-.74-.34-.36a2.91,2.91,0,0,0-.36-2,1.26,1.26,0,0,1,.13-1.43c0-.74,0-1.49,0-2.23l.31-.3-.3-.84.29-.32,0-2.44-.3-.62.36-.53-.76-.77-1,.93h-.9c0-.47,0-.94,0-1.44l.61-.65-.31-.49-2.55,0c-.79.57-1.69.11-2.55.3-.28.4-1.2-.06-1.27.8.74.11.74.11,1.16.87l-.26.26,0,2.06.3.3-.33.66a2.08,2.08,0,0,1,.29,1.1,4.47,4.47,0,0,0,.24,1.05l-.3.49.31.51c0,1.31,0,2.6,0,3.89l.33.33c0,.29,0,.63-.06,1s-.17.71-.25,1.05c.09.13.17.23.24.34,0,1.49,0,3,0,4.44l.3.48-.35.69.32.32a3,3,0,0,1-.33,1.91l.6.76c-.19.49-.55.93-.19,1.47.06.11.16.22.16.34a9.78,9.78,0,0,0,0,2.42,10.28,10.28,0,0,1,.22,2.52l-.3.47.29.52c0,1.48,0,3,0,4.46l.2.25c0,1.94,0,3.83,0,5.68.88.84-.17,1.63.06,2.44l.27.28a10.44,10.44,0,0,0,.23,2.94,1.9,1.9,0,0,1-.27,1.65l.29.33c0,1.55,0,3.11,0,4.66,0,.34-.15.79,0,1,.52.65.13,1.21,0,1.8l.26.3c0,.88,0,1.76,0,2.64a6,6,0,0,0,.25,2.52,1.16,1.16,0,0,1,0,.8,8.94,8.94,0,0,0-.31,3.12l.31.39a4.41,4.41,0,0,1-.17,1.48,3.45,3.45,0,0,0-.15,1.55c0,.5-.26,1.08.27,1.53,0,.66,0,1.33,0,2s0,1.35,0,2a16.54,16.54,0,0,1,0,2.23c-.09.69.27,1.27.28,1.91,0,1.09,0,2.17,0,3.25a3.26,3.26,0,0,0,.26,1.49l-.29.32c.13.69-.17,1.42.17,2.14s-.14,1.57.36,2.28c0,.07-.18.31-.27.47,0,.41,0,.82,0,1.22a8.4,8.4,0,0,1,0,1.42c-.08.44.38.68.31,1.1s.11.77,0,1A2.55,2.55,0,0,0,107,380a13,13,0,0,0,.11,2.56,13,13,0,0,1,.1,2.79c0,.88,0,1.76,0,2.64,0,1.28,0,2.57,0,3.84a.71.71,0,0,1,.3.71c0,3.11-.07,6.21-.09,9.32a2.08,2.08,0,0,0,.24,1.53.81.81,0,0,1,0,.77c-.49.54-.16,1.16-.28,1.72l.28.29c-.57,1.41-.18,2.89-.34,4.28l.33.39-.3.54c.05.49-.22,1.08.19,1.64a.84.84,0,0,1,0,.77,3,3,0,0,0-.27,1.92c0,.44-.16.88.19,1.34.19.26.05.78.06,1.18s0,1,0,1.42l-.3.28c0,.48,0,.95,0,1.43l.56.57c.11.8-.44,1.51-.33,2.31,0,.14-.2.3-.31.44l.62.81-.33.68.28.34a5,5,0,0,0-.25,1.07c0,.38-.14.78.15,1.15s-.42.78-.19,1.25c.11.23.19.47.28.7a5.46,5.46,0,0,0-.61,2.39c0,1.55,0,3.1,0,4.63l-.32.31.28.85-.29.35a20.62,20.62,0,0,0,.21,3.12,16.63,16.63,0,0,1,.06,3.38c-.47.34-.29.78-.34,1.16l.27.28a2.84,2.84,0,0,1,0,.41c-.09,1.11.17,2.24-.3,3.34a1.41,1.41,0,0,0,0,1.16,1.8,1.8,0,0,1,.19,1.14c0,.67,0,1.35-.06,1.9a1.64,1.64,0,0,1,.32,1.24l-.29.29v2l.25.26a4.91,4.91,0,0,0-.32,2.31l-.29.29.28.84-.16.2-.07,2.08.25.55-.3.29c-.13.72.17,1.47-.31,2.14a.84.84,0,0,0,0,.77c.43.56.14,1.16.2,1.72l-.3.34.24.47,0,3.28-.51.5c0,.41.45.68.28,1.12s.37.82.27,1.3c0,.18,0,.42-.14.54a.93.93,0,0,0-.13,1,3.31,3.31,0,0,1,.26.91,6.93,6.93,0,0,0,.23,2.93c.07.16.07.48,0,.57-.31.27-.24.6-.24.92,0,.74,0,1.48,0,2.19l-.35.35.22.47c0,1.29,0,2.56,0,3.85l-.21.42.33.52c-.8,1,.13,1.83.23,2.73l-.58.56c.05.38-.17.82.23,1.12a10,10,0,0,1-.26,1.08c-.13.38.32.56.3.88l-.31.5c0,.81,0,1.62,0,2.44l.27.28a8.82,8.82,0,0,0-.27,1.1,9.65,9.65,0,0,0,0,1.2l-.41.41c.5.26.4.74.38,1.19a3.34,3.34,0,0,1-.14,1.36c-.26.47-.08.92-.18,1.36l-.31.31.36.77-.16,1.3a1.73,1.73,0,0,1,.37,1.28l-.31.47.34.71-.36.35c0,1.12,0,2.27,0,3.41l-.29.29c.1.31.17.62.29.9.2.46-.4.68-.3,1.1l.32.32-.31.62c-.14,1.35.18,2.69-.33,4a.85.85,0,0,0,.15.73,2.33,2.33,0,0,1,.12.91l-.31.34c0,.75,0,1.49,0,2.23l-.27.3c.06.57-.16,1.13.18,1.73a1.58,1.58,0,0,1,0,1.36,3.28,3.28,0,0,0-.26,1.73c0,2,0,3.92-.07,5.88a2.54,2.54,0,0,1-.28.63c0,1,0,2.15,0,3.28l-.3.3a2.11,2.11,0,0,1,0,2l.26.27c-.5,1.3-.18,2.64-.32,4l-.35.58c.58.22.3.73.35,1.18-.4.28-.29.71-.29,1.09,0,1,0,1.89,0,2.84,0,.33,0,.67.06.88l-.47.54a.79.79,0,0,1,.34,1.16,3.14,3.14,0,0,0-.26,1.52c0,1.42,0,2.84,0,4.26a4.27,4.27,0,0,1-.13,1.57,4.37,4.37,0,0,0-.17,1.55c-.05.54,0,1.08,0,1.62s0,1.08,0,1.62c0,.1-.17.19-.27.28,0,1.9,0,3.79,0,5.67l-.3.49.3.65-.31.46c0,.76,0,1.43,0,2.11a13.82,13.82,0,0,0,0,1.82c.08.69-.32,1.26-.33,1.91,0,1.08,0,2.16,0,3.18l.33.51-.67.83c.11.17.28.31.31.48s.12.64,0,.79c-.58.61-.14,1.2,0,1.79l-.25.3c0,.74,0,1.49,0,2.24l-.33.31.34.69c-.15.74.21,1.57-.33,2.28l0,3.25-.25.3c-.21,1.36.13,2.76-.34,4.13-.21.6.1,1.4-.15,2a6.35,6.35,0,0,0-.19,2.15,19.59,19.59,0,0,0,0,2c0,.4,0,.81,0,1.22l-.27.26q0,1.76,0,3.45l-.33.32c0,.79,0,1.6,0,2.41a9.56,9.56,0,0,1-.16,2.37,10.32,10.32,0,0,0-.21,2.4c-.38.25-.23.69-.24,1.07s0,.94,0,1.42v1.2l-.27.26c-.2,1.55.17,3.08-.33,4.59a4.39,4.39,0,0,0,0,2c.1.76-.32,1.39-.35,2.11a9.93,9.93,0,0,1-.27,3.34,3.37,3.37,0,0,0,0,1.81c.12.6-.37,1-.34,1.5s0,1.22,0,1.8l-.31.47.33.7ZM101.16,212l.14.14c.29.43.08.91.13,1.36,0,.26-.05.54.21.72,0,1,.06,2,.08,2.91l.8,0,.5-.49a4,4,0,0,0,.37-1.2c0-.56.72-.63.61-1.18s.54-.56.61-1.12c0-.31,0-.78-.1-1.24a2.87,2.87,0,0,0-.3-.88,1.55,1.55,0,0,0-.37-.39l-.1-1.68.91-.18c.27-.25.69-.49.84-.91-.4-1.42-1.12-2.71-1.14-4.19l-.57-.06c.07-.41.43-.55.68-.9-.32-.54-.37-1.27-.92-1.73l.35-.72-.44-.44.18-1.61-.9-.92.61-1.63-.67-.68.18-1.41-.39-.75.32-.36c-.09-.28-.2-.56-.27-.86s.11-.66-.07-.94l-.62-.63c.07-.63.15-1.43.22-2-.31-.46-.71-.58-.65-.93l.36-.53-2.16-2.2-.46.34v.8l.31.48-.33.65.35.58-.45.38-.7-.34-.36.31.29.81-.34.5.66.84c-.12.16-.29.3-.33.47a4.45,4.45,0,0,0,0,.82l.26.26c.08.79-.15,1.6.29,2.33-.16.55.28,1,.25,1.51a7.37,7.37,0,0,0,.58,2.79l-.3.3c-.08.41.48.65.28,1.1s.33.82.28,1.3a1.68,1.68,0,0,0,.23,1.12c.22.36-.11.86.22,1.33.2.27.08.77.1,1.2l.27.27a13.5,13.5,0,0,1,0,2c-.12.7.42,1.24.29,1.91-.09.47.4.8.29,1.31a6.62,6.62,0,0,0,0,1.41C101.16,211.41,101.16,211.68,101.16,212Zm4.78,16.6c-.14.55-.24,1-.38,1.4s-.77.59-.58,1.18a3,3,0,0,0-.54,1.39c-.12.42-.5.78-.36,1.28L103,234.87c-.29,1.33-1.07,2.44-1,3.77l-.48.47a7.72,7.72,0,0,0-.27.83c-.07.32-.11.64-.17,1l.89,0,.5-.49,1.15.05,1.7-1.67,1.73,0a3.59,3.59,0,0,1,1.82-.69c.31-.34.76-.55.9-1.06-.23-.06-.46-.11-.68-.19s-.52-.2-.64-.25l-.4-1,.65-.81q-.31-.37-.63-.72c-.07-.72.21-1.46-.25-2.13a.62.62,0,0,1,0-.59c.4-.42.14-.8,0-1.19a8.44,8.44,0,0,1,0-1.59,9.41,9.41,0,0,0,.34-1.29,3,3,0,0,1,.84-1.88v-.76c-.1,0-.2,0-.23,0l-1.48,1.44,0,.55-.57.56,0,.6ZM100.05,212c-.16-.65.07-1.3-.17-2s0-1.32-.25-1.91,0-1.31-.17-2l-.28-.33.33-.67-.63-.91.34-.34c-.09-.37-.07-.84-.29-1.07s-.1-.73-.48-1l-.42.57.35.36,0,2.19c.1.19.2.35.29.51l-.31.65.3.48c0,.79,0,1.53,0,2.27a5.5,5.5,0,0,0,.23,2.12c.19.46,0,1.07,0,1.61a2.65,2.65,0,0,0,.17,1.34c.23.41.06,1,.08,1.57a3.67,3.67,0,0,0,.23,1.72,1.7,1.7,0,0,1-.06,1.36c-.33.58-.14,1.15-.2,1.75l.49.26,1.22-1.19c-.19-.57.58-1,.28-1.67l-.56-.71.34-.69-.29-.33a.4.4,0,0,1,0-.19c0-.88,0-1.75,0-2.63-.09-.16-.25-.32-.26-.49S100.31,212.15,100.05,212Zm.91,48.14c-.28.36-.75.55-.87,1.07l.53.55c1,.34,1.8-.26,2.65-.17.39,0,.66-.4,1.1-.29.08,0,.24-.26.36-.39-.25-.35-.46-.66-.66-1L105,259c0-.3-.05-.62-.1-.94,0-.05-.09-.09-.14-.14-1.17-.31-2.16.32-3.21.57V259l-.56.55Zm6.52,4.08a13.75,13.75,0,0,0-3,0c-.9.19-1.78.56-2.74.86-.12.19-.53.29-.53.69.25.28.36.74.87.65l.3-.27,2,0,1.18-.38.51-.5a10.1,10.1,0,0,0,1.36,0,6.5,6.5,0,0,0,1.19-.36.44.44,0,0,0,0-.2C108.43,264.25,107.71,264.74,107.48,264.21ZM86.34,296.62,88,295s0-.13,0-.35l-.89.09c-.31.27-.51.68-1,.53-.3.29-.81.15-1,.39s-.82.34-1.18.58-.57.56-1,.43l-.57.56h-.6l-.57.57v.84l3-.93.68-.67Zm6-6.46-.57.55,0,.59a9.37,9.37,0,0,0-1.33,1.47c.75-.12,1-.67,1.27-.84l.79-.16c.26-.81.49-1.51.73-2.24l-.5-.27-.34.3Zm15-22.69.57-.56,1,.22.29-.57-.32-.32a6,6,0,0,0-1.53,0l-.57.65Zm.1-58.16a5.11,5.11,0,0,0-.56-.73c-.24-.21-.36-.56-.83-.61l-.38.51.62.64v-.25Zm2.59,55.53.26.61.74-.14.26-.85-.64-.23ZM99.22,310.07a2.18,2.18,0,0,0,.11-.35c0-.19,0-.39,0-.59l-.49-.34a3.51,3.51,0,0,0-.1.35c0,.19,0,.39,0,.59Zm0,1.13.17-.19c-.11-.14-.21-.29-.33-.43s-.17,0-.18,0-.12.24-.08.28A2.31,2.31,0,0,0,99.19,311.2Zm-3.58-68.33H95.4a2.31,2.31,0,0,0,.1.28s.12,0,.19,0Zm3.47,63.32V306a1.33,1.33,0,0,0-.28.1s0,.12,0,.18Zm-.1,1.52h-.2a1.33,1.33,0,0,0,.1.28s.12,0,.18,0ZM95.89,687.55v-.21a1.16,1.16,0,0,0-.28.1s0,.12,0,.19Z"/><path d="M95.09,681.11l.29-.08c0,.06,0,.17,0,.18a1.33,1.33,0,0,1-.28.1Z"/><path d="M99.1,188.09l.63.28-.23.92c-.33,0-.48-.38-.72-.74Z"/><path d="M103.85,235.21h.74c.17,1.08.9,2.07.53,3.24l-.32.2c-.38,0-.49-.4-.75-.59C104.22,237.1,103.51,236.2,103.85,235.21Z"/><path d="M21.7,166.59l.32-.36,1.38-.53,3.09-.2.22-.3c-.07-.54-.62-.67-.92-1l-1.17.05c-.43-.18-.25-.61-.42-.87s-.42-.37-.15-.67a1.35,1.35,0,0,1,.33-.18,8.36,8.36,0,0,0,1.43-.12c.42-.1.79-.42,1.2-.56a7.57,7.57,0,0,1,1.23-.18l.27-.31-.18-.4-2.81.19c-.27.48-1,.51-1.56.8-.27.15-.72,0-1,.15-.66.39-1.44.52-2.08.94l-2.66.18-.48.32-1,.07-.57.64-.8,0a5,5,0,0,1-.41-1.15,3.69,3.69,0,0,1,.18-1.12.69.69,0,0,1-.32-.88,4.7,4.7,0,0,0,.13-2.17c-.14-2.25-.29-4.51-.43-6.77l-.39-.38a1.91,1.91,0,0,1,0-.7c.17-.38.41-.7-.08-1,0,0,0-.14,0-.2-.15-.43.23-.77.19-1.13s-.39-.52-.31-.89.13-.49.23-.88a7.52,7.52,0,0,1-.07-1.48c.08-.65-.49-1.1-.42-1.71s.35-1,.18-1.54l-.31-.27c0-.12,0-.28.08-.37a.89.89,0,0,0,0-1.12c-.58-.59-.11-1.11,0-1.65l-.22-.25c-.09-1.41-.18-2.77-.27-4.06l-.43-.38c.09-.22.19-.45.28-.68,0-.61,0-1.23-.13-1.84s-.29-1.14-.38-1.71-.09-1.23-.13-1.84l.31-.35-.25-.44c-.38-5.84-.75-11.64-1.12-17.32l-.38-.4c-.17-.31.09-.49.19-.66-.31-4.77-.61-9.48-.91-14.2L10,94.5s-.14-.09-.14-.13c.11-1.37-.73-2.6-.51-4l.13-.18c-.08-1.16-.15-2.24-.23-3.43l-.19-.17-.15-2.27L8.66,84c-.36-1.26.49-2.52-.21-4,.13.14,0,0-.06,0a4.82,4.82,0,0,0,.17-1.11,3.08,3.08,0,0,0-.32-.89l.28-.41L8.27,76l-.53-1.15c.47-.5,0-1.17.3-1.7a1.15,1.15,0,0,0-.1-1.29c-.17-.25-.09-.65-.17-1s-.24-.59-.34-.89a.85.85,0,0,1,.29-.89c-.28-.73.15-1.54-.45-2.17-.06-.82-.14-1.63-.2-2.44S7,63,7,62.24l-.33-.3c0-.39-.19-.81.22-1.17-.06-.65-.13-1.33-.2-2.08l-.25-.22c0-.67-.06-1.35-.09-2.07l.23-.27a12.92,12.92,0,0,0-.2-2.66C5.69,51.29,6,49,5.6,46.82l-.27-.26c0-.82-.11-1.64-.16-2.46.66-1-.19-1.69-.51-2.91-.17-2.66-.37-5.73-.57-8.83l-.32-.28.3-.72-.37-.5c.2-1.19-.53-2.28-.51-3.51S3.06,25,3,23.87l-.37-.66.25-.28c.22-1.09-.47-2-.46-3-.45-.26-.26-.72-.33-1.1a1.73,1.73,0,0,1,.19-.94.83.83,0,0,0-.35-1.1L1.77,13c.51-.67-.17-1.46.23-2.13a.52.52,0,0,1,.14-.16L1.9,7.19,3.26,5.65l.42,0a4.61,4.61,0,0,1,2.12-1l.83-1,1,.11.94-1.07h.78a6.61,6.61,0,0,1,.43,1c.13.43-.11,1,.39,1.29-.13.45.35.7.35,1.09s.43.63.74.85c.07,0,.17,0,.2,0,.28-.3.55-.62.85-1,.69.24,1.24-.29,1.88-.4.22,0,.4-.33.73-.64l1.17.1-.35-.7-2.37.16c0-.52-.06-1-.09-1.48l.28-.32.7.28c.48-.17.61-.69,1-.92l-.18-.42c0-.05-.11-.14-.16-.13-.57.09-1.19-.15-1.73.33-.21.18-.68,0-.86.39-.76-.14-1.38.43-2.11.43h-.2c-.06-.59.61-.7.67-1.07L12.86.65l2-.12L15.1.26l1.47.21.29-.33L19,0l.27.24.42,0c.07,0,.15,0,.19,0l1.38,1.2.82,2.12-.25.34.12,1.84c0,.44.71.45.64,1s.53.57.65,1c-.32,1-.32,1,.14,2.22-.16.51.39.8.4,1.3s-.43.84-.24,1.33c-.32.27-.19.47,0,.83a2.59,2.59,0,0,1,.08,1.56,2.53,2.53,0,0,0,.14,1.89,1.92,1.92,0,0,1,.15,1.38,3.17,3.17,0,0,0-.17,1.35c0,.34-.09.82.09,1,.51.49.12,1.19.51,1.67a.9.9,0,0,1,.11,1.1c-.25.35-.08.75-.33,1.12a1.11,1.11,0,0,0,.31,1.26c.05.82.11,1.64.16,2.46l-.29.37c.11.19.23.41.36.62,0,.55.07,1.09.1,1.65L25,31c0,.92-.94,1.79-.1,2.74.12,1.84.24,3.69.36,5.61l.34.46-.27.6c.07.55.15,1.22.24,2,0,0,.07.07.19.18,0,.86.11,1.74.16,2.62l-.26.32c.12.3.25.59.35.89s-.11.69.22,1,.05.66.24.94l-.55.62a2.64,2.64,0,0,0,.51,1.87,1.4,1.4,0,0,1-.08,1.54,14.11,14.11,0,0,0,.35,2.53A13.47,13.47,0,0,1,27,57.52c.09.81.11,1.64.17,2.46s.11,1.78.17,2.67c.1.09.28.17.29.27a8.67,8.67,0,0,0,.42,2.34,1.42,1.42,0,0,1-.15,1.52c0,.68.05,1.37.14,2a6.23,6.23,0,0,0,.31,2.38c.39.7.05,1.56.54,2.28.31.45-.13,1-.21,1.52s-.33.69.11,1a4.51,4.51,0,0,0,.37,1.72c.11.23-.08.61-.19,1.16s.09,1.39.15,2.25l.59.52.14,1.49-.5.57c-.26,1.57.72,3,.49,4.5.45.89.45.89.14,1.89l.63.56a6.13,6.13,0,0,0-.11,2.73c0,.89.11,1.78.17,2.74l.35.46-.27.58a3.76,3.76,0,0,0,.58,2.33,1.41,1.41,0,0,1-.05,1.47l.12,1.85c.64.56.24,1.19.12,1.81l.27.23c.22.95-.1,1.94.5,2.77a6.6,6.6,0,0,1-.09,1.58,6,6,0,0,0,0,2l.31.32c.1,1.56.2,3.12.3,4.64l.34.32a15.2,15.2,0,0,1,.09,1.65c0,.51-.36,1-.18,1.54l.31.27.15,2.25.32.36c-.6,1.22,0,2.32.53,3.41l-.29.34c0,.68.08,1.36.13,2l.33.29c-.09.72.24,1.44,0,2.19s.08,1.46,0,2.13l.54.47c.3.49,0,1.06.23,1.51l-.29.38c.09,1.44.19,2.88.28,4.32l.31.27c.06,1,.11,1.91.17,2.85l.32.33c.1,1.53.21,3.1.3,4.63l.32.31a26.27,26.27,0,0,0,.23,3.08,11,11,0,0,1,.39,1.91c0,.69.08,1.37.13,2.11l.32.43c0,.26,0,.54,0,.81l-.3.35c.11.21.24.42.37.64,0,.69.08,1.37.13,2.11l.33.43-.48,1.62c.26.69,1,.5,1.66.94a4.23,4.23,0,0,1,1.43-.13c.45.08.91.11,1.34.2a6.67,6.67,0,0,1,1.47.39c.32.16.79,0,1.2,0l.47.42,3.47.87.81.72c.55-.25,1,.47,1.45.16l3.11,2.73c-.89.05-1.09-.59-1.56-.76l-1.06.07-1.15-1c-.36-.13-.76.11-1-.29a6.12,6.12,0,0,0-1.56.15l-.18.4a6.79,6.79,0,0,0,1.41.36c.41.06.68.67,1.24.47.16.43-.3.54-.36.74l-4.07.26-.15-.13c-.06-.64.71-.78.8-1.42-.61,0-1.13-.54-1.86-.15l-.24.3.74.91-.62.71-.82.09-.94-.82-.83.05-.31.31.36.84-.28.33.45,1.15,1.44-.23.68-.77c.6,0,1.17-.26,1.77.07.26.14.66,0,1,0a.93.93,0,0,0,.72-.26c.25-.26.45.09.68.15a2.94,2.94,0,0,0,.83,0l.53-.61.62-.06.53-.61.84,0,.07.58,3.08,2.71c0,.82.1,1.64.16,2.55l-.53.73,0,.47-2.19,2.49a1.69,1.69,0,0,0-.47.08c-.39.2-.57.79-1.16.65-.34.29-.57.71-1.16.69-.26,0-.37.49-.74.61a30.43,30.43,0,0,0-3.35,1.35,2.88,2.88,0,0,1-1,.09l-.64.73-1.07-.11,0,.54a3.54,3.54,0,0,1-2,.51v.65c-.71-.2-1.27.31-2,.41l.33.9-.47.54c.06,1,.13,1.91.19,2.87,0,.27-.07.62.07.8a1.39,1.39,0,0,1,.33,1.11,11.05,11.05,0,0,1-.48,1.44l.12,1.85c.65.56.25,1.19.12,1.81l.31.27c-.13.61-.46,1.19.09,1.83.3.35-.07.87-.18,1.31l.26.3a1.69,1.69,0,0,1,.07.38q.6,9.13,1.19,18.26a2.79,2.79,0,0,0,.41,1.69l-.31.36.35.61c0,.53,0,1.21,0,2l-.13.18a.66.66,0,0,0,.3.66c0,.55.07,1.1.11,1.65l.21,3.28.21,3.28c-.53,1.12-.06,2.26-.06,3.39s.13,2.18.2,3.28l.21,3.28c.07,1.09.15,2.19.22,3.28s.15,2.33.22,3.49l.21,3.28c.08,1.09.15,2.19.21,3.28,0,.46.18.94-.19,1.34,0,0,0,.14,0,.2-.14.51.36.82.4,1.3s-.44.84-.23,1.33c.13.29.24.58.35.85l-.3.39.33.53a3.33,3.33,0,0,0-.16,1.65c.13,1.71.2,3.42.36,5.13,0,.49-.23.88-.23,1.33l.31.27c-.12.62-.52,1.24.11,1.82.08.07.06.27,0,.4a5.61,5.61,0,0,0-.17,2c.1.6.09,1.23.13,1.84s.09,1.37.13,2.05.08,1.23.09,1.84c0,.11-.15.21-.27.36l.28.46c.07,1.08.14,2.17.21,3.31l-.22.29.36.65-.28.56c.2,3,.41,6.1.61,9.19l-.29.33.38.68-.27.5c.12,1.9.25,3.82.37,5.73l-.3.35.39.69-.3.53.35.62-.28.69.36.32,0,1.46-.23.3.36.83-.29.34q.22,3.46.46,7l-.31.34.39.69-.29.52.35.64-.24.47c-.06,1.37.42,2.71-.05,4l.31.27c0,.46-.31.85-.22,1.34s.09,1.23.13,1.84c.09,1.44.23,2.87.27,4.31s.45,2.81,0,4.21c.09,1.43.19,2.87.28,4.3a1,1,0,0,0-.14.16,7.58,7.58,0,0,0,0,2.18l.36.32-.27.64c.1,1.63.22,3.4.33,5.11l-.29.39c.06.38.56.66.36,1.08a5.58,5.58,0,0,0-.14,2.37l-.29.33.38.68-.27.49.36,5.54a9,9,0,0,1,.1,2.24,8.61,8.61,0,0,0-.1,2.37l.15,2.26-.27.35.36.83-.28.32c.1,1.58.18,3.15.31,4.72a1.67,1.67,0,0,1-.27,1l.38.5-.34.77c0,.18.1.65.14,1.12s.1,1.1.11,1.64.25.95-.21,1.36c.08,1.28.17,2.58.26,3.88.06.82.11,1.64.16,2.46-.54.68-.12,1.44-.14,2.15s.17,1.65.12,2.46a9.26,9.26,0,0,0-.16,1.75c.08.61.09,1.23.13,1.85s0,1.23.13,1.84a9.19,9.19,0,0,1-.17,1.75,20.27,20.27,0,0,0,.11,2.05,6.06,6.06,0,0,1,.09,1.84c-.35,1.35,0,2.67,0,4.07l-.27.5.36.52-.27.69.36.48-.17.43c.1,1.59.2,3.16.3,4.62l-.41.46.4.69-.28.49a22.4,22.4,0,0,0,.17,2.44c.15.81-.31,1.54-.17,2.36s.12,1.64.18,2.46.15,1.64.14,2.46a9.19,9.19,0,0,0-.17,1.75,14.2,14.2,0,0,1,.11,1.84c0,.1-.16.21-.27.33.08,1.08.2,2.17.21,3.26a10.93,10.93,0,0,1,0,2.8c-.2.83.21,1.8,0,2.63a12.1,12.1,0,0,0,0,3.8c.06.7-.34,1.28-.22,2a4.62,4.62,0,0,1,.11,1.84c-.38,1.49,0,2.94,0,4.41,0,.59.36,1.22-.17,1.75a15,15,0,0,1,.09,1.64,1.8,1.8,0,0,1-.26.64l.38.39-.36.77.26,1.37-.35.49c.07.38.53.66.36,1.09a6,6,0,0,0-.12,2.57,4.53,4.53,0,0,1-.13,2c-.23.58.29,1.32-.2,1.94l.12,1.84.17,2.67c-.68.73.28,1.74-.42,2.46.07,1,.13,2.05.2,3.08,0,.41.08.82.07,1.23a2,2,0,0,1-.11,1.17c-.18.3,0,.79,0,1.19,0,.17-.19.32-.28.46l.39.58-.26.46c-.12,1.06.37,2.14-.11,3.41a13.74,13.74,0,0,1-.06,2.76c-.16.92.27,1.94.09,2.85a12,12,0,0,0,0,3c0,.54-.33,1-.21,1.54a8.6,8.6,0,0,1,.1,1.43c0,.32-.22.59-.27.92s.8.74.18,1.23l0,1.41c0,.14,0,.27,0,.38l-.29.33c0,.76.09,1.51.14,2.27l-.26.35.35.84-.31.35c.06.72.17,1.47.16,2.22s-.13,1.42-.21,2.23l-.23.26.37.65-.28.69.37.36-.26.62.13,2.9c-.55.53.21,1.35-.45,1.81l.39.7-.35.45c.06.59.13,1.26.18,1.94s.1,1.37.14,2c-.52.66,0,1.41-.2,2a4.53,4.53,0,0,0-.13,2,7.52,7.52,0,0,1,0,2,15.38,15.38,0,0,0-.08,2l-.24.27c0,.55.08,1.1.11,1.65a14.71,14.71,0,0,0,.12,1.63c.1.5-.24.9-.2,1.34a4,4,0,0,1-.18,1.52l.32.33-.28.6c-.14.8.29,1.7-.08,2.66-.3.77.36,1.72-.17,2.55l.18,2.87-.3.35.39.69-.28.49c.05.73.09,1.48.14,2.24l-.37.47c.08.45.19,1,.24,1.37-.18.45-.25.63-.31.8l.34.29c0,.47-.31.85-.22,1.34a11.06,11.06,0,0,1,.09,1.63c-.45.4-.23.91-.14,1.34s-.29.87-.24,1.34.07,1.09.11,1.64l.09,1.44-.25.34,0,1.2-.29.33.38.68-.27.49.09,1.44a16.1,16.1,0,0,0,.14,1.84c.1.55-.34,1-.2,1.54s-.35,1.12-.21,1.75a11.11,11.11,0,0,1,.13,1.64l.06,1-.24.31a25.15,25.15,0,0,1,0,2.6,10.57,10.57,0,0,0,.06,2.63c0,.47-.36.84-.22,1.34s-.33,1-.19,1.54a9.63,9.63,0,0,1,.11,1.43l-.29.69.35.3a5,5,0,0,0-.15,2.36c-.66.58.32,1.5-.58,1.93l.45.4c0,.45-.3.84-.22,1.34s.26.94-.19,1.33l.09,1.43.1,1.44-.28.31.16,2.24c-.42.48-.19,1-.2,1.55l-.28.32.24,3.48c-.1.1-.26.2-.27.31,0,.72.32,1.47-.16,2.15.05.76.05,1.52.17,2.26.07.44-.26.73-.25,1.13a2,2,0,0,1-.06,1,1.38,1.38,0,0,0-.11.76c0,.62.05,1.24.13,1.85s-.34,1-.21,1.54-.41,1-.21,1.55a5.61,5.61,0,0,1,.12,1.43c0,.41,0,.82.08,1.23l-.29.33c.28.66-.16,1.27-.14,1.93s.07,1.23.11,1.82c-.58.68.11,1.51-.25,2.14s.23,1.36-.38,1.85l.39.68-.28.31,0,1.86c-.53.66.18,1.45-.23,2.12a1,1,0,0,1-.13.15l.18,2.89-.26.3,0,1.11-.27.6.35.36c-.38.66,0,1.42-.2,2.09a7.22,7.22,0,0,0-.11,2.17c-.51.68-.06,1.44-.21,2.22l-.25.29.37.64a2.62,2.62,0,0,0-.24,1.12c0,.44-.18.89-.16,1.34a2.24,2.24,0,0,1-.24,1.12l.36.54-.28.51c.16.88-.29,1.76-.23,2.68-.5.48.26,1.24-.37,1.68.2.55-.37,1-.21,1.54s-.42,1.13-.17,1.75c0,0-1.11,4-1.12,4l-.38.44.23.95c-.42.48-.79.81-.62,1.36-.53.26,0,1-.53,1.23s0,.78-.39,1.07a1,1,0,0,0-.34.48c-.12.44-.17.88-.27,1.42l-1,1.15v.64l-.79.9v.62l-1.35,1.53c0,.15,0,.28,0,.42a1.39,1.39,0,0,1-.16.35l-4.17,4.75-.52,0-1.74,2a6.67,6.67,0,0,1-1.19.53,8.42,8.42,0,0,1-1.28.1c-.07-.7-.86-1.32-.19-2.11,0-.41-.05-.82-.08-1.23a11.06,11.06,0,0,0-.14-1.84c-.16-.64.35-1.17.19-1.75s.34-1,.23-1.55A2.23,2.23,0,0,1,23.8,662c.2-.46-.06-1.08,0-1.6a17.29,17.29,0,0,0,.48-2c.64-.31.43-1.05.76-1.55a2.4,2.4,0,0,0,.44-1.65c.47-.34.5-.89.64-1.39s.16-1,.64-1.38c-.09-.35.11-.63.2-.94a3.16,3.16,0,0,0,0-1l.58-.65-.26-1,.6-.67c.1-.43.18-.74.31-1.24l-.06-.88.56-.7-.27-1.39a8.66,8.66,0,0,0,.83-2.48c.15-.55.28-1.11.47-1.65.1-.3-.09-.68.26-.91-.22-.74.27-1.43.16-2.15a1,1,0,0,0-.16-.34c.12-.14.3-.27.35-.43s-.07-.31-.11-.46a1,1,0,0,0,.19-1.47l.41-.47-.15-2-.55.24c0,.62.19,1.28-.2,1.83l.49.44a1,1,0,0,0-.19,1.47c-.13.14-.3.26-.35.42s.07.31.11.47l-.68.77,0,.42c-.12.48-.53.74-.83,1.09-.07,0-.19,0-.2,0a6.32,6.32,0,0,0-.35-.85c-.11-.44.26-.82.17-1.31s-.26-.94.19-1.34l-.15-2.24c.49-.68.08-1.44.17-2.15.42-.32.16-.75.2-1.13s-.12-.75.13-1.17,0-.79,0-1.22l.25-.28-.24-3.47.3-.35c-.28-.65.16-1.26.14-1.92a2.78,2.78,0,0,1,.19-1.73l-.36-.54.35-.65-.17-.92.3-.42c-.06-1-.15-1.91-.17-2.87,0-.45-.19-.89.08-1.38s0-.92.17-1.34a1.87,1.87,0,0,0,.09-.77,10.24,10.24,0,0,1,0-2.41,16.08,16.08,0,0,0,0-2.19,4.24,4.24,0,0,0,.2-1.55,9.63,9.63,0,0,1-.1-1.43l.3-.35a5.3,5.3,0,0,1-.28-.47,2,2,0,0,1-.09-.37l.26-.3-.15-2.26c.63-.5-.16-1.35.47-1.85a1.77,1.77,0,0,0-.38-1.28l.31-.63c-.05-.65-.12-1.4-.18-2.14.59-.51-.13-1.34.45-1.85-.06-.89-.07-1.79-.19-2.66-.07-.5.23-.88.22-1.34a1.36,1.36,0,0,0-.53-.33l.46-.53a4.19,4.19,0,0,1,.16-1.55c.2-.44-.05-1.08,0-1.62,0-.17.18-.33.26-.47l-.39-.7.38-.43-.19-1,.31-.43a14.45,14.45,0,0,1-.16-3.07,15.66,15.66,0,0,0,.06-3l.27-.31-.15-2.25c.5-.76.07-1.58.14-2.36a2.66,2.66,0,0,1,.16-.55c.2-.56-.19-1.2.28-1.71a1.71,1.71,0,0,1-.37-1.31l.29-.32c-.09-1.14-.17-2.3-.23-3.22.18-.65.31-1.07.47-1.62l-.1-1.5a12.66,12.66,0,0,0-.12-1.64c-.11-.55.25-1,.23-1.54s-.33-1.08.18-1.56l-.12-1.62a12.59,12.59,0,0,0-.14-1.85c-.12-.56.38-1,.23-1.54a4.73,4.73,0,0,1,.13-1.75,11.88,11.88,0,0,0-.1-2.05,6.86,6.86,0,0,1,.11-2.16,6.73,6.73,0,0,0-.09-2l.26-.52-.36-.64.27-.48c0-1-.29-1.93.12-2.84l-.34-.31a2,2,0,0,0,.26-.68,9.35,9.35,0,0,1,.13-2.17,4.53,4.53,0,0,0-.12-2c-.17-.77.25-1.44.18-2.16,0-.55-.1-1.1-.1-1.65s-.29-1.07.18-1.53c0-.53-.19-1.07.2-1.54-.14-.36-.53-.68-.35-1.09a3.89,3.89,0,0,0,.11-2.16c-.07-.49.28-.87.21-1.34l-.33-.29a2.41,2.41,0,0,0,.27-.7,6.85,6.85,0,0,0-.06-1l.28-.32c-.07-1,0-2.07-.22-3.07s.3-2,.12-3c.57-.64.09-1.22-.11-1.82l.26-.3-.18-2.88.26-.3a7.66,7.66,0,0,1,.11-3L32.66,500l.32-.42a3.71,3.71,0,0,1-.11-1.52,4.23,4.23,0,0,0,.13-1.76c0-.54-.12-1.08-.16-1.51l.35-.47c-.11-.21-.24-.43-.36-.65a3.65,3.65,0,0,0,.18-.34c.29-.69-.35-1.47.23-2.13-.12-1.36-.23-2.72-.34-4l.36-.42,0-.8-.35-.46.31-.61L33,482.71l.28-.31c-.06-1-.13-1.93-.19-2.89l.27-.3c-.08-.38.11-.84-.32-1.11A8.51,8.51,0,0,0,33.2,477a10,10,0,0,0-.07-1.23c0-.41-.09-.82-.13-1.13l.35-.45-.36-.65.31-.61c-.08-.86-.16-1.81-.24-2.73l.3-.38-.37-.65c.09-.17.18-.34.27-.54l-.16-2.23.29-.32-.36-.83.25-.33c.06-1-.34-1.89.13-2.8-.06-1-.06-2.06-.22-3.07s.34-2,.13-3a12.75,12.75,0,0,1-.15-1.58l.32-.37-.35-.83.26-.37-.09-1.43c0-.48-.07-1-.1-1.44a8.75,8.75,0,0,0-.12-1.63c-.13-.52.27-.87.23-1.34a11,11,0,0,1,0-2.63,15.15,15.15,0,0,0,0-2.61c0-1.33-.34-2.65,0-4a7.14,7.14,0,0,0-.09-1.83,4.47,4.47,0,0,1,.13-1.77,5.14,5.14,0,0,0-.07-1.82c-.08-1.1-.15-2.19-.22-3.29l.29-.32-.37-.84.28-.34c0-.55-.08-1.1-.11-1.64a5.44,5.44,0,0,1,.12-2.37c.16-.4-.18-.74-.35-1.08l.32-.63L33,419.76l.28-.37-.44-.7a2.4,2.4,0,0,1,0-.95,8.59,8.59,0,0,0,.08-3c0-.6-.26-1.22,0-1.79s0-1.07,0-1.59-.07-1.23-.11-1.85c0-.07,0-.17,0-.2.58-.63.06-1.21-.07-1.75l.24-.55-.34-.33a5.38,5.38,0,0,0,.22-.9,26.26,26.26,0,0,1,0-2.81,15.79,15.79,0,0,0,0-2.83c0-.27-.11-.6,0-.79.37-.59.07-1.17.09-1.67l-.33-.54.35-.45c-.05-.52-.12-1.13-.17-1.75a14.11,14.11,0,0,0-.14-1.84c-.14-.63.24-1.15.2-1.75-.06-.81-.12-1.63-.17-2.26a3,3,0,0,0,.26-.71c0-.75-.09-1.51-.14-2.26a17.51,17.51,0,0,0-.15-2.05,11.71,11.71,0,0,1,.16-2.15,13,13,0,0,1,.07-3,7.42,7.42,0,0,0-.09-2c-.05-.69,0-1.38-.15-2s.37-1.26.2-2a11.15,11.15,0,0,1-.14-1.84c0-.68,0-1.37-.15-2.05a9.19,9.19,0,0,1,.18-1.75,20.3,20.3,0,0,0-.12-2.05l-.12-1.84c0-.69-.09-1.37-.13-2.05a4.67,4.67,0,0,1,0-1.82,4.59,4.59,0,0,0,.06-2c0-1-.11-1.92-.17-2.87l.31-.63c-.6-.2-.34-.74-.43-1.18l.27-.31c-.16-2.46-.3-4.93-.49-7.39a9.1,9.1,0,0,1,.22-1.29l-.35-.46.28-.57-.35-.65.28-.49c-.06-.95-.15-1.84-.17-2.73a14.08,14.08,0,0,1,0-2.6,12.19,12.19,0,0,0,0-2.63c0-.89-.11-1.78-.17-2.66s-.11-1.78-.17-2.67c0-.48-.07-1-.1-1.43l.31-.35-.38-.67a1.33,1.33,0,0,0-.12-1.75l.27-.55c-.14-2.26-.29-4.52-.43-6.77l.25-.52-.35-.65.22-.3c-.17-2.57-.33-5.1-.49-7.55l.35-.41c0-.86-.84-1.68-.13-2.56l-.4-.34c.09-.23.19-.46.28-.7l-.34-.62.29-.53-.39-.69.3-.34q-.35-5.34-.68-10.67a4.78,4.78,0,0,1,0-1,1.52,1.52,0,0,1,.23-.5l-.35-.31-.1-1.39.29-.51-.37-.56A1.34,1.34,0,0,0,29.5,285l.27-.54c-.05-.82-.11-1.64-.16-2.47l-.34-.45a1.74,1.74,0,0,0,.24-1.15c-.28-4.24-.55-8.47-.82-12.56l.29-.64-.3-.29c-.85-13.09-1.69-26.14-2.54-39.26l.25-.29-.36-.64c-.13-2-.27-4.1-.4-6.15l-.35-.61.3-.53-.36-.64.29-.56-.36-.5c0-.71-.09-1.4-.13-2.08s-.09-1.37-.13-2-.09-1.37-.14-2.05-.05-1.38-.14-2.05-.74-1.17-.11-1.82a4.77,4.77,0,0,0-.41-1.91c0-.41-.05-.82-.08-1.19l.29-.5-.4-.69.34-.39-.38-.65c-.09-1.5-.19-3-.29-4.51l-.3-.27c0-.48-.07-1-.09-1.39l.31-.55-1.26-.31a2,2,0,0,0-.16.19.65.65,0,0,0-.09.16c-.07.75.53,1.36.45,2.12,0,.21.23.44.34.65l-.3.35c.15.56-.15,1.2.37,1.73a.83.83,0,0,1,.06.78,3.28,3.28,0,0,0-.1,2.16,4.11,4.11,0,0,0,.39,2.35.82.82,0,0,1-.06,1c-.28.31,0,.65-.08,1,.47.33.34.85.37,1.3.17,2.46.32,4.92.49,7.38a1.78,1.78,0,0,0,.07.39c.09.09.17.19.31.35-.05.27-.42.49-.29.87s.23.71.32,1l-.23.53.37.49-.31.73.38.34c.23,3.45.45,6.94.68,10.45l.31.27-.28.7c.05.82.11,1.64.16,2.47l.3.26a2.59,2.59,0,0,0,.06,2.27,1.56,1.56,0,0,1,0,1.13,10.57,10.57,0,0,0-.05,2.09l.35.4c0,.38-.39.7-.22,1.12l.35.89c.17.42-.27.73-.22,1.13a1.41,1.41,0,0,0,.2.75,2.4,2.4,0,0,1,.23.93l-.32.37c.28,1.62,0,3.34.62,5a1.37,1.37,0,0,1,.06,1c-.43.79-.06,1.58-.11,2.37.64.56.24,1.19.12,1.81l.3.26A5.91,5.91,0,0,1,27,259.3a.69.69,0,0,0,0,.6c.65.57.19,1.2.15,1.74l.31.53-.29.34c.05.89.11,1.77.16,2.63l.34.34-.26.59A3.31,3.31,0,0,0,27.8,268l-.25.54.37.49-.28.69.37.49-.31.71c.15.16.25.25.24.25.08.78.16,1.46.21,2l-.27.63.4.39c0,.39.2,1,0,1.33-.32.55-.14,1-.15,1.56s0,.95.07,1.41l.33.29a3,3,0,0,0,.15,2.63l-.32.41.9,13.89-.2.27c.14.49.65.94.28,1.47s.15,1.1.21,1.6l-.29.5.39.68-.3.37.34.83-.25.36a5.47,5.47,0,0,0,.45,2.53l-.27.31L30,311l-.26.33a1.11,1.11,0,0,0,.08.36,5.3,5.3,0,0,0,.28.47l-.26.3L30,314.5l.36.34-.26.6a3.51,3.51,0,0,0,.37,2l-.25.34c.11,1.71.22,3.42.33,5.11l-.28.5.39.68-.31.36.36.84-.29.34c.18,1-.07,2.16.51,3.14l-.36.41c.1,1.47.2,3,.31,4.6l-.21.5.32.29.1,1.47-.23.3c0,.46.55.82.33,1.27a4.23,4.23,0,0,0-.15,2,16.18,16.18,0,0,1,0,3.81,2.92,2.92,0,0,0,.4,2.25c-.11.16-.26.27-.26.37,0,.89.12,1.78.16,2.67a6.2,6.2,0,0,1-.1,2.57.88.88,0,0,0,.2.74,1.16,1.16,0,0,1,.13.94,1.57,1.57,0,0,0-.2.74c.05.48.07,1,.1,1.44l.09,1.43c0,.48.09,1,.09,1.44a2.48,2.48,0,0,1-.13,1.36c-.2.36,0,.93,0,1.41s.07.95.1,1.43c.09,1.37.17,2.74.26,4.12l-.26.29c.2.6.64,1.16.13,1.83-.13.17,0,.53,0,.81l.17,2.49-.28.63.37.48a2.74,2.74,0,0,0-.25.77c0,.62.06,1.23.1,1.85l.12,1.85c0,.54.09,1.09.1,1.64s.25,1.2-.17,1.74a4.32,4.32,0,0,1-.17,1.75.68.68,0,0,0,.26.72c.07.05.05.24.07.38l-.55.63c.12.22.24.44.37.66-.1.23-.19.47-.28.69l.33.3a4.53,4.53,0,0,0,.19,3.24l-.24.31a9.9,9.9,0,0,0,.13,1.64c.13.57-.31,1-.24,1.55.16,1.22.19,2.46.26,3.69a2.54,2.54,0,0,1,0,.39l-.25.36.35.65c-.08.17-.17.34-.2.42-.12,1.63.45,3.17-.05,4.71.07,1,.14,2.05.2,3.08-.53,1-.06,2-.08,3a19.77,19.77,0,0,0,.13,2c-.1.12-.27.22-.27.32,0,.41,0,.82.07,1.23s.08,1,.08,1.44-.31.69-.23,1.13a14.11,14.11,0,0,1,.14,1.84,11.27,11.27,0,0,0,.14,1.85c.16.63-.27,1.14-.21,1.75a14.17,14.17,0,0,1,.14,2.25c0,.72.42,1.47-.1,2.17,0,.75.1,1.5.11,2.24a17,17,0,0,1,0,4.22,7.85,7.85,0,0,0,.09,2,5.71,5.71,0,0,1,0,1.8,7.9,7.9,0,0,0,0,2c0,1.33.46,2.67,0,4,.07,1,.06,2.06.22,3.07s-.32,2-.14,3a23.45,23.45,0,0,1,.19,2.66l-.24.32c.18.59.64,1.16.1,1.81-.09.12,0,.4,0,.6l.15,2.26c-.1.1-.27.21-.26.31,0,.62.06,1.23.1,1.85a11.35,11.35,0,0,1,.1,1.84,7.27,7.27,0,0,0-.16,1.75c.07.54.08,1.09.11,1.64a12.79,12.79,0,0,0,.12,1.64c.12.56-.19,1-.19,1.54,0,.82.09,1.64.14,2.46-.5.76-.12,1.58-.12,2.36s.09,1.64.15,2.46v.21l-.26.3.18,2.84-.29.51.39.69-.31.35.24,3.48-.29.33c.08,1.14.16,2.3.24,3.47-.09.1-.26.21-.26.31,0,.61.07,1.23.11,1.84s0,1.1.11,1.64-.29,1.12-.22,1.75a9.76,9.76,0,0,1,0,3.19c-.18.91.25,1.93.09,2.85a15,15,0,0,0-.05,3l-.28.31.24,3.48-.24.26c-.08,1.06.29,2.08,0,3.08s.26,2.12-.24,3.13a11.55,11.55,0,0,1,.13,2.86,13.61,13.61,0,0,0,0,3c0,.54.07,1.09.1,1.64l-.24.33a11.81,11.81,0,0,1-.1,3c-.2.69.21,1.45,0,2.19a7,7,0,0,0,0,2.42,11.12,11.12,0,0,1-.09,2.37,9.68,9.68,0,0,0,.11,2.45,1.23,1.23,0,0,1,0,.19l-.26.36.36.65a1.51,1.51,0,0,0-.25.51,11.4,11.4,0,0,1-.11,2.17c-.18.88.13,1.83-.14,2.76a4.65,4.65,0,0,0,.07,1.43,10.14,10.14,0,0,1,.07,1.23c0,.45-.18.89-.19,1.34a16.54,16.54,0,0,1-.06,3c-.17.92.26,1.94.09,2.86a18.48,18.48,0,0,0-.07,3l-.3.39.22,3.44-.24.32.39.71c-.69.64.07,1.51-.3,2.25s.29,1.73-.33,2.48l.35.3c0,.46-.33.85-.22,1.34a2.59,2.59,0,0,1-.12,1.83c-.1,1,.34,2-.15,2.85l.18,2.67-.26.51c.12.22.24.45.36.65l-.28.37.05,1.19-.26.32.21,3.29a2.72,2.72,0,0,0-.14,1.94c.12.75-.3,1.41-.2,2.16a3.37,3.37,0,0,1-.11,2.36c0,.69.09,1.37.13,2.05-.47.69-.15,1.44-.14,2.16a17.09,17.09,0,0,0,.21,2.26l-.28.32a6.28,6.28,0,0,1-.06,1.88,5.29,5.29,0,0,0,0,2c0,.61-.37,1.11-.22,1.75a13.8,13.8,0,0,1,.16,2l-.27.31c0,.42.06.83.08,1.24a5.93,5.93,0,0,1-.12,2.17c-.2.59.14,1.27-.16,1.95a4,4,0,0,0,.07,1.63l-.28.32.36.85-.28.32c.06,1,.13,1.92.19,2.88l-.26.3c0,.53.16,1-.17,1.57a.77.77,0,0,0,.18.93c.05,0,.12.08.14.14s.05.17,0,.2c-.54.49,0,1.18-.32,1.7a2.2,2.2,0,0,0-.13.36l.36.52c-.09.14-.26.3-.28.47s.05.55,0,.82a4.17,4.17,0,0,1-.17.54,5.65,5.65,0,0,0,0,.59,8.72,8.72,0,0,1,0,2.6c-.25.75.25,1.59-.24,2.32a7.94,7.94,0,0,1-.11,2.17,6.6,6.6,0,0,0,.1,2l-.32.36c.33.65-.17,1.26-.13,1.92s.09,1.22.14,1.81l-.25.28c-.14.92.34,1.79-.13,2.64a21.36,21.36,0,0,1,.11,2.65c0,.51-.14,1-.2,1.54s-.15,1-.18,1.54-.4,1-.43,1.44-.28.64-.24.92a8.45,8.45,0,0,1-.19,1.75,2.43,2.43,0,0,1-.21,1.14,2.54,2.54,0,0,0-.21,1.32c0,.43-.25.78-.21,1.13.11.87-.37,1.68-.17,2.57.13.63-.44,1.27-.12,1.91l-.71.81a1.35,1.35,0,0,1,.05-1.47l-.35-.53.29-.55c-.26-.59.17-1.21.16-1.86s-.07-1.23-.11-1.85l.3-.35-.37-.64a6.14,6.14,0,0,0,.47-1.85c.58-.51-.09-1.3.41-1.87.21-.23-.21-.43-.28-.66a3.08,3.08,0,0,1-.05-.61c0-.21-.12-.49,0-.6.43-.54.05-1.18.26-1.73,0-.12.16-.22.17-.34,0-.6-.23-1.2.06-1.79s0-1.06,0-1.6-.1-1.09-.09-1.64-.26-1.18.08-1.77-.25-1.08.26-1.52c-.09-.95-.18-1.9-.26-2.7l.37-.67-.38-.53.22-.43c.08-.76.2-1.48.22-2.19s-.08-1.37-.12-2c0-.33.38-.54.23-.93s.26-1,.2-1.54a4.08,4.08,0,0,1-.08-1.62,4.07,4.07,0,0,0,.13-1.76c-.06-.54.32-1,.22-1.54a4.44,4.44,0,0,1-.1-1.84,11.46,11.46,0,0,0,.07-3,9.14,9.14,0,0,0,.17-1.33c-.09-.56.33-1,.23-1.55a3.13,3.13,0,0,1-.08-1.42,12.39,12.39,0,0,0,.06-3.5l.26-.46-.36-.66.58-.84-.38-.52c.05-.11.13-.28.2-.45a.43.43,0,0,0,.06-.18,8.65,8.65,0,0,1,.15-1.54,28,28,0,0,0-.17-3.29l.24-.27c.11-.75-.31-1.5.18-2.18l-.17-2.22L28,585c-.07-1.13-.15-2.29-.22-3.48l.19-.22c.15-.92-.35-1.8.14-2.64-.05-.88-.11-1.77-.13-2.66,0-.44.29-.84.21-1.33s-.26-.95.19-1.33c0-.48-.06-1-.1-1.44s-.06-1-.1-1.43l.32-.35-.4-.69.28-.49c0-.53-.25-1.15-.05-1.6a3.36,3.36,0,0,0,.13-1.56c0-.55-.06-1.09-.09-1.62.16-.5.32-1,.49-1.48a2.5,2.5,0,0,1-.38-.86c-.06-.44.38-.69.26-1.14a3.85,3.85,0,0,1-.08-1.22,2.26,2.26,0,0,1,.25-.67l-.33-.32,0-.83.25-.3a11.8,11.8,0,0,1,.11-2.37c.17-.77-.26-1.69-.06-2.44a7.47,7.47,0,0,0,.05-2.58c-.06-.68.35-1.26.21-1.95a15.59,15.59,0,0,1-.16-2.05l.23-.26a10.14,10.14,0,0,1,0-2.47c.21-.83-.09-1.6,0-2.49l.24-.48-.37-.51.32-.75c-.05-.63-.09-1.38-.14-2.16l.21-.28-.24-3.7a7.66,7.66,0,0,0,.11-3l.26-.29c0-.69-.09-1.38-.13-2.06a15.93,15.93,0,0,0-.14-1.84c-.1-.56.32-1,.21-1.55s.34-1.26.19-2a11.23,11.23,0,0,1-.14-1.84c.08-.17.17-.34.25-.52l-.36-.64.36-.47a13.34,13.34,0,0,0-.18-1.51c-.12-.56.25-1,.22-1.55s-.32-1.08.18-1.54c-.07-1-.13-1.91-.19-2.87l.31-.4c-.05-.67-.16-1.41-.17-2.16,0-.58.14-1.16.15-1.75a8.12,8.12,0,0,1-.07-1.83,9.64,9.64,0,0,0,.08-2.84l.28-.51-.31-.48a2.33,2.33,0,0,0,.14-1.48c-.19-.57.22-1,.2-1.54s-.06-1-.09-1.44l-.1-1.64.24-.28c.08-1.24-.34-2.45-.06-3.67,0-.06.08-.1.18-.21l-.3-4,.26-.33c-.06-.89-.12-1.78-.17-2.67a5.2,5.2,0,0,1-.08-1.83,4.41,4.41,0,0,0,.13-1.76,6.41,6.41,0,0,1-.08-1.84,9,9,0,0,0,.06-3c0-1-.14-1.91-.2-2.84l.29-.33c-.06-.9-.12-1.79-.17-2.68a10.57,10.57,0,0,1,.08-2.57,9.92,9.92,0,0,0-.12-2.47l.29-.68-.34-.29a3.13,3.13,0,0,0,.19-1.54c-.09-.89-.12-1.78-.18-2.67,0-.34-.17-.74,0-1s.1-.71.24-.92a1.07,1.07,0,0,0,0-1.29.87.87,0,0,1-.19-.74c.43-1.48,0-2.95,0-4.42,0-.47-.07-1-.1-1.41.11-.13.24-.21.28-.33a1.15,1.15,0,0,0,0-.41,21.28,21.28,0,0,1-.2-3.89,25.45,25.45,0,0,0,0-3.6,1.13,1.13,0,0,1,.14-.75c.34-.54-.16-1-.29-1.47l.21-.28c-.06-1-.12-1.94-.18-2.81l.27-.41-.38-1.44.33-.37c-.08-1.22-.11-2.46-.26-3.68s.25-2.24.1-3.39a34.49,34.49,0,0,1-.22-3.56c0-.28.22-.47.21-.64-.06-1.23-.11-2.47-.24-3.69-.06-.49.22-.88.22-1.34l-.31-.27c0-.45.36-.85.21-1.33a3.18,3.18,0,0,1,0-.62c-.07-1-.06-2.06-.23-3.07s.28-1.83.15-2.78-.15-2-.21-3.07a1,1,0,0,1,.07-.57c.47-.64-.14-1.11-.22-1.65l.28-.31-.27-4.1a2.83,2.83,0,0,1,.17-1.56c.21-.42-.25-.84-.35-1.28l.31-.39c-.06-.68-.08-1.43-.2-2.17s.35-1.26.2-2a16.79,16.79,0,0,1-.17-2.25c0-.68-.09-1.37-.13-2.05s-.11-1.37-.12-2.05c0-.18.12-.36.31-.86L29.37,381l.25-.58-.38-.34.3-.74-.37-.48.26-.65-.36-.65.36-.47c0-.22-.09-.56-.12-.9-.06-.68-.13-1.36-.13-2.05s-.33-1.33.16-1.95l-.14-2.05c0-.68-.12-1.37-.12-2,0-.44.16-.89.19-1.33s-.05-.82-.07-1.23a3.89,3.89,0,0,1-.07-1.43,7.49,7.49,0,0,0,.06-3,4.31,4.31,0,0,1,.47-2.4l-.4-.72.31-.36-.37-.84.32-.36-.39-.69.28-.48c0-.62-.1-1.23-.12-1.85a12.79,12.79,0,0,1-.05-2.83c.17-1-.21-1.91,0-2.8a10,10,0,0,0,.11-2.38l.26-.3c-.08-.54-.66-1-.22-1.65.13-.18.07-.51.06-.77,0-.82-.1-1.64-.15-2.46L29,340c.1-.61.49-1.25-.15-1.79-.06-.68-.13-1.36-.18-1.94l.34-.46c-.11-.2-.24-.42-.36-.65l.29-.57L28.6,334c-.15-.45.16-.94.19-1.45a11.35,11.35,0,0,0-.09-1.64l-.28-.28a4.13,4.13,0,0,0,.18-1.53c-.27-3.76-.5-7.52-.74-11.28l.27-.31a2.68,2.68,0,0,1-.25-2.25,1.78,1.78,0,0,0,0-1.38,3.69,3.69,0,0,1-.36-1.73,2.44,2.44,0,0,1,.18-1.74c-.06-1-.11-2.05-.16-3l-.38-.36.27-.69-.37-.66.29-.32a3,3,0,0,0-.4-1.92l.26-.52-.12-1.84c0-.62-.12-1.23-.11-1.85s-.32-1.21.17-1.79c-.08-1.12-.17-2.28-.25-3.42l.31-.35-.37-.84.28-.32c-.18-2.75-.34-5.48-.55-8.22a2,2,0,0,1,.27-.94l-.37-.49a6.64,6.64,0,0,1,0-2,4.74,4.74,0,0,0,.06-1.66l-.33-.55.27-.34c-.35-5.34-.7-10.67-1-16l-.31-.27.29-.73-.33-.46c-.07-1-.13-2-.2-3.06l.22-.33c-.13-.48-.27-1-.39-1.42l.35-.4-.23-.44c-.49-7.55-1-15.06-1.45-22.33l-.49-.88.29-.38c-.06-.86-.12-1.74-.19-2.64l-.29-.25c0-.56.52-1.07,0-1.68a.89.89,0,0,1,.16-1.28l-.36-.57.23-.82-.33-.29c-.17-2.59-.34-5.18-.49-7.78a3.13,3.13,0,0,0-.39-1.5l.26-.3A5.81,5.81,0,0,0,21.3,212a1,1,0,0,1,0-.61,1.67,1.67,0,0,1,.28-.46l-.36-.53c-.15-2.46-.31-4.93-.47-7.39-.1-.09-.19-.19-.31-.32l.24-.87-.33-.29.25-.89-.32-.28-.33-5.15-.64-.71.28-.71-.33-.34c0-.73-.06-1.47-.08-2.12l-.43-.63.31-.53-.27-.48c0-.7-.07-1.44-.09-2L18.2,187l.27-.73-1.23-1.09c-.53,0-1.07-.42-1.66-.24s-1.17-.27-1.75-.17-1-.32-1.54-.21a1,1,0,0,0-1.12-.2c-.4.12-.6-.34-.93-.24s-.7-.27-1.13-.26c-.62,0-1.17-.53-1.88-.43l-.84-.74-1.67-.34-.85-.74-.41,0a1.61,1.61,0,0,1-.35-.16l-2-1.73,0-.52-.74-.65c-.08-1.23-.15-2.31-.24-3.72l.21-.74.59.51-.13,1.23.69-.5,1.11-.1.55-.62,0-.46c.25-.27.6,0,.84-.16l.29.22c1.24.22,2.28-.42,3.42-.45.24-.39.73-.24,1-.48a3.29,3.29,0,0,0,.43-.47v-.6l2.8-.15.33-.31a.92.92,0,0,1,.37,0A1.57,1.57,0,0,1,13,172c.42,0,.45-.47.91-.64l.43,0,1.08-1.23c0-.08,0-.21,0-.21a3,3,0,0,1-1.09-.32l-.75.84a2,2,0,0,1-.44.13c-.72,0-1.47.33-2.16-.15-.5.12-1.05-.07-1.55.29-.23.17-.61.13-.94.18,0-.61.52-.8.77-1.21.88.12,1.61-.58,2.56-.46l.61-.62a3.85,3.85,0,0,0,1.78-.43,6.1,6.1,0,0,1,2.8-.78,2.18,2.18,0,0,0,.85-.33l.38.3a2.41,2.41,0,0,1,.65-.35c.28-.05.53-.06.69-.37.72.07,1.46-.24,2.19,0-.13.16-.27.31-.4.46.3.55.31,1.27.93,1.64.09.05.24,0,.35,0,.27-.19.22-.45.24-.72a2.54,2.54,0,0,1,.27-.69l-.65-.58a5.72,5.72,0,0,1-.59,0C21.8,166.72,21.75,166.64,21.7,166.59ZM32.34,596.25a.35.35,0,0,0,0-.58.35.35,0,0,0,0-.58l.41-.47a7,7,0,0,1-.05-1,2.36,2.36,0,0,1,.27-.69l-.36-.32.27-.91-.52-.29L32,592.53c0,.78.1,1.6.16,2.42,0,0,.09.09.14.14a.35.35,0,0,0,0,.58.35.35,0,0,0,0,.58.35.35,0,0,0,0,.58,1,1,0,0,0-.2,1.47l-.42.48a8.81,8.81,0,0,0,.38,2.61c-.14.3-.38.52.08.55a1.25,1.25,0,0,0-.12-.43l.4-.46a4.92,4.92,0,0,1,.14-2.35l-.46-.4a1,1,0,0,0,.2-1.47A.35.35,0,0,0,32.34,596.25Zm6.92-102.77c.3.14.52.38.55-.08a1.32,1.32,0,0,0-.43.12c-.25-.11-.35-.57-.75-.34C38.92,493.68,38.92,493.68,39.26,493.48Zm5.22-119.16-.41.46c.07.28-.07.62.22.9l.41-.38c-.11-.34.09-.72-.22-1,0-.16.11-.36.05-.48s-.26-.25-.4-.37l.33-.38.25-2.4-.49-.44c.11-.24.56-.34.33-.75-.49.29-.49.29-.33.75-.28.44.1,1-.12,1.35a2.09,2.09,0,0,0,0,1.87c0,.16-.11.35-.05.47S44.34,374.19,44.48,374.32ZM31.61,612c-.11.45-.23.9-.34,1.34l.45.39-.5.65.62.48a1.23,1.23,0,0,0-.11-1.12l.42-.49,0-.82c-.2-.18-.34-.31-.49-.43l.41-.46c-.07-.29.07-.63-.22-.91l-.4.38C31.5,611.39,31.31,611.76,31.61,612Zm8.94-145.39c.22-.33.63-.52.67-1l-.34-.42-.84.08.05.9.46.41a1.08,1.08,0,0,0,0,1c.37-.06.56-.24.43-.64ZM28,191.25c.48.09.48.09.7-.44-.43-.17-.47.29-.7.44l-.47-.42-.81.07c-.2.28-.71.38-.54.9a2,2,0,0,0,.6-.05C27.16,191.61,27.56,191.42,28,191.25Zm3.56,428.36.4-.46a5.8,5.8,0,0,0-.18-1.59l-.5-.12c0,.39,0,.73.06,1.07l-.28.66.5.44c-.12.25-.57.34-.34.75C31.68,620.07,31.68,620.07,31.52,619.61Zm-.63,8.2-.41.46c.05.66.1,1.33.15,2l.55-.23c0-.63-.19-1.29.2-1.84l-.49-.43c.12-.25.57-.35.34-.75C30.73,627.35,30.73,627.35,30.89,627.81Zm.51-5.58c-.21.34-.63.53-.67,1a1.32,1.32,0,0,1,.24.3,2.11,2.11,0,0,1,.09.38l-.21.23c0,.74,0,1.41.07,2.15l.69-.4a7,7,0,0,0-.21-1.15c-.17-.5.35-.85.23-1.33s.07-.81-.27-1c.14-.3.37-.52-.08-.55A1,1,0,0,0,31.4,622.23Zm-2-451.71c-.3-.15-.52-.38-.54.08a1.39,1.39,0,0,0,.43-.12l.57.5,1.68.08c.22-.37.63-.51.43-1-.72-.29-1.51,0-2.26,0A.92.92,0,0,0,29.35,170.52ZM33.6,566.16l-.4.45c0,.4.17.87,0,1.17a2.23,2.23,0,0,0-.18.93,10.31,10.31,0,0,1-.2,1.11l.28.28a2.86,2.86,0,0,0-.19,1.42l.35.45c0,.36-.54.59-.1.91l-.5.57.2,1.5-.29.67.36.35a3.3,3.3,0,0,0-.14,2c.11,0,.31,0,.34-.13a3.8,3.8,0,0,0,.39-1.24,17.71,17.71,0,0,0-.14-2.41c0-.45.09-.94-.22-1.35l.77-.88c-.08-.67-.18-1.46-.26-2.17l.28-.41c-.15-.52-.64-1-.2-1.61a3.76,3.76,0,0,0,.3-1.26l-.45-.39c.53-.4.35-1.08.63-1.57l-.38-.58.24-.31c-.06-1-.11-1.83-.16-2.75l-.48-.22c-.16.48.18.95-.12,1.37s-.1.79,0,1.16-.22.87-.22,1.28l.34.45-.31.72Zm9.79-208.67c-.48-.1-.48-.1-.7.43.43.18.47-.28.7-.43.15.2.49.26.48.63l-.55.76.36.68-.3.65.31.3.18,2.05-.33.37c.9.77,0,1.7.23,2.55l.84.74a3.45,3.45,0,0,0-1,1.17c.5.43.32,1.07.46,1.59.39-.09.53-.26.52-.58a7,7,0,0,1,0-2.24c0-.12.15-.27.11-.36a4.77,4.77,0,0,0-.34-.63l.29-.34c-.05-.76-.1-1.5-.14-2.25a8.44,8.44,0,0,1,.09-2.35,8,8,0,0,0-.1-2.23c0-.14-.08-.32,0-.4.55-.64.09-1.21-.1-1.79l.25-.32c-.1-1.49-.16-3-.31-4.47,0-.49.25-.87.22-1.33l-.46-.4.41-.47c.06-.42-.55-.61-.36-1.09a7.43,7.43,0,0,0,.1-3l.28-.32-.36-.83.3-.39c-.12-.2-.24-.42-.37-.65l.27-.65-.37-.49.29-.56c-.1-1.51-.2-3-.3-4.53l.28-.32-.35-.8.3-.54c-.18-.24-.46-.39-.34-.72l.23-.3c0-.55-.07-1.1-.11-1.64l-.1-1.65a6.91,6.91,0,0,1-.08-1.63,5.06,5.06,0,0,0,.17-1.55c-.07-.54-.08-1.09-.11-1.64l-.24-3.69.25-.51-.35-.63.3-.53-.39-.68.29-.34-.33-5.11.27-.54c-.22-.4-.58-.87-.34-1.27a1.89,1.89,0,0,0,.18-1.15c0-.62,0-1.23-.08-1.81L43,309l.2-.49c-.17-2.54-.33-5.06-.49-7.5l.37-.42-.35-.8.29-.52c-.15-.28-.46-.4-.33-.74l.24-.33c-.18-1,.07-2.13-.5-3.12l.26-.3c0-.56-.07-1.1-.1-1.65l.26-.52c-.27-.39-.59-.9-.35-1.27.46-.7.05-1.22-.11-1.82l.27-.37q-.2-3.11-.41-6.32l.27-.33-.28-.47c-.06-.88-.11-1.76-.17-2.73l.22-.26-.38-.67a1.33,1.33,0,0,0-.12-1.75l.28-.54-.48-7.38c0-.61-.06-1.23-.09-1.84.46-.55.09-1.16.13-1.74l-.33-.32.28-.65c-.26-4.08-.53-8.31-.81-12.54l-.08-1.23c.57-.63.09-1.21-.09-1.8l.25-.32q-.57-8.72-1.14-17.43c0-.32.12-.69-.2-1a1,1,0,0,0-.08-1.16l.42-.48-.36-.83c.11-.13.19-.24.27-.35-.11-.53-.67-1-.2-1.64a.91.91,0,0,0-.15-1.11c-.08-.08-.17-.3-.13-.34.55-.65.08-1.22-.08-1.77l.24-.51-.35-.47c-.28-4.44-.57-8.82-.85-13.19l-.34-.48c.09-.18.18-.34.28-.51-.11-1.57-.24-3.14-.29-4.72,0-.49-.34-.84-.39-1.25l.29-.5c-.14-.22-.25-.38-.36-.53l.27-.69-.36-.48.3-.73-.32-.28c-.08-1.18-.16-2.34-.21-3.21-.32-.72-.52-1.19-.71-1.63l.26-.64-.65-.57-.86,0-.27.31-2.16.14-1.46.68-2,.13c-.42.58-1.15.17-1.65.52s-1.32.13-2,.37l-.18.49.8.71-.71.81.42.74c-.65.51-.12,1.2-.23,1.83l.36.32-.36.86a10,10,0,0,0,.17,1.07,2.11,2.11,0,0,0,.32.53l-.29.63.42.43c0,.36,0,.83,0,1.31-.65.51.12.92.12,1.4s-.31.59-.28.91l.32.47c.16.66,0,1.32.4,2s-.2,1.25-.16,1.93.51,1.06.45,1.7a15.65,15.65,0,0,0,.11,2c.05.69.09,1.37.14,2.05l.13,2.06.3.26a2.9,2.9,0,0,0,.08,2.27,3.06,3.06,0,0,1-.07,2.09l.34.44-.31.73.38.34c-.09.23-.18.46-.28.7l.37.65-.36.44a1.86,1.86,0,0,0,.12.71,2.29,2.29,0,0,1,.16,2.24.9.9,0,0,0,.34,1.08,5,5,0,0,1,.07,1.83,4.08,4.08,0,0,0-.09,1.85l.33.57a2.64,2.64,0,0,0-.29.34c0,.05,0,.13,0,.2a1.4,1.4,0,0,1,.22,1.44,6.37,6.37,0,0,0-.06,1c.71.54.17,1.19.17,1.72l.3.54-.29.34a2.86,2.86,0,0,1,.25,2.26,2,2,0,0,0,.18,1.72,2.94,2.94,0,0,1,.18.86l-.3.58.36.51-.28.7.39.38c0,.61.05,1.29.08,2a.82.82,0,0,0-.18,1.11c.41.55.25,1.16.37,1.73l-.26.52a1.74,1.74,0,0,1,.38,1.22l-.3.53.39.67-.32.41.37.65-.29.69.27.23c.09,1,.17,1.84.24,2.61l-.28.6.34.36c0,.64,0,1.32.06,2.09l-.21.38.4.68-.34.39.37.65-.28.69.35.35c.06,1,.13,2,.19,3a3,3,0,0,0-.14,1.94c.54.48.24,1.15.37,1.72l-.3.34.37.65-.26.67.36.48-.3.73.41.37a3.86,3.86,0,0,0,.1,3.17l-.24.33q.42,6.35.83,12.71L32,292a3.81,3.81,0,0,0,.22.93c.1.18.26.36.13.51-.57.63,0,1.1.17,1.63l-.26.48.21,3.32-.27.48.38.69-.29.33a3.32,3.32,0,0,1,.39,1.51c.05.59-.47,1.12-.26,1.52l.41.64-.29.54.36.64-.3.53.36.64-.29.56.38.55c-.09.16-.18.33-.28.49.07,1,.13,2,.2,3.08l.33.46-.27.67.36.49-.3.73.38.34c-.09.22-.18.46-.28.69l.36.65-.26.35c.07.95.14,1.91.2,2.76-.14.27-.22.45-.31.62l.36.64-.3.39c.1,1.53.2,3.1.3,4.64l-.26.35c.13.43.53.83.36,1.28a4.1,4.1,0,0,0,.18,3l-.24.32c.14,2.19.3,4.38.42,6.56a3.26,3.26,0,0,1-.13,2,1,1,0,0,0,.2.93,1.17,1.17,0,0,1,.14.95,2,2,0,0,0-.21.73c0,1.2.42,2.41,0,3.6l.24,3.69c.13,2.05.27,4.1.4,6.15a3.9,3.9,0,0,1,0,1.6,3.25,3.25,0,0,0-.07,1.38c0,.54.1,1.09.08,1.64a2,2,0,0,1-.26.68l.34.31c0,.45-.27.84-.22,1.33.16,1.7.24,3.41.34,4.95l-.29.67.34.3.18,2.63-.3.37.37.66-.2.39c-.14,1.45.42,2.79-.09,4.12.09,1.43.18,2.87.28,4.3l-.27.5.38.67-.29.33a1.46,1.46,0,0,0,0,.21c0,.62.11,1.23.1,1.85s.3,1.09,0,1.59.23,1.22-.33,1.71c0,0,.06.26.14.33a.62.62,0,0,1,.2.74,7.48,7.48,0,0,0-.08,3c0,.75.11,1.5.13,2.26,0,.1-.17.2-.3.35.11,1.32.21,2.69.31,4l-.3.38.36.65-.28.69.46.41c-.43.3-.35.76-.32,1.22s.11,1.1.1,1.64a3.11,3.11,0,0,1-.08,1.38,3.9,3.9,0,0,0,0,1.6c0,.47.06.94.08,1.22l-.28.7.34.3a2.91,2.91,0,0,0,.17,2.63l-.27.31.12,1.85c0,.54,0,1.09.12,1.64s-.34,1.11-.22,1.75.34,1.2-.17,1.82c0,.47.09,1,.13,1.56s.07,1.09.1,1.64l.12,1.84a6.52,6.52,0,0,1,.08,1.64,3.53,3.53,0,0,0-.15,1.54c.13.49-.25.87-.21,1.34l.34.3-.28.69c.06,1,.17,2.12.2,3.28,0,1.4.41,2.8,0,4.21-.16.56.31,1.21-.2,1.74l.12,1.85c0,.61.11,1.23.12,1.84,0,1.47.41,2.93,0,4.42-.18.7.22,1.45,0,2.2a6.73,6.73,0,0,0,0,2.41c0,.61.14,1.21.17,1.49l-.35.85.33.29c.06.47-.25.85-.21,1.34a15.37,15.37,0,0,1,0,3.39,19.45,19.45,0,0,0,.16,3.48,2.6,2.6,0,0,1-.2.8l.34.57-.32.36.37.85-.28.32a9.87,9.87,0,0,0,.11,1.44c.12.55-.18,1-.19,1.54a11.4,11.4,0,0,1,.08,2.25,8.58,8.58,0,0,0-.09,2.37c0,.75.1,1.5.15,2.25,0,.14,0,.28,0,.41,0,.39.14.78-.19,1.15-.13.15,0,.53,0,.8a7.24,7.24,0,0,1-.22.92c.48.25.28.72.36,1.1-.52.53-.1,1.16-.18,1.74l.39.52c-.6.57-.07,1.29-.26,1.9s0,1.5-.18,2.15a5.43,5.43,0,0,0-.1,2c0,.76.08,1.51.14,2.26s.1,1.36.14,2a1.77,1.77,0,0,0-.15.18c-.38.68.28,1.47-.23,2.13.07,1.57.14,3.13.21,4.73l-.21.24c-.12.69.11,1.33-.07,2a7.81,7.81,0,0,0,0,2.21c0,.62,0,1.24.13,1.85s-.41,1.27-.18,1.95a1,1,0,0,0,.08,1.2l-.26.51.15,2.25-.27.31c0,.75.09,1.51.14,2.26-.5.68-.06,1.43-.18,2.15l-.27.34.36.65-.28.69.34.3a11.15,11.15,0,0,0-.2,1.13c0,.34.07.69.05,1s-.4.72-.2,1.12-.33.73-.23,1.14l.31.27a2.91,2.91,0,0,0,.16,2.63l-.26.3c0,.76.1,1.51.14,2.26-.46.47-.21,1-.17,1.54s-.38,1.12-.22,1.75a7.07,7.07,0,0,1,.13,1.84A4.69,4.69,0,0,1,34,532.7a6.84,6.84,0,0,0,0,1.81c0,.1-.17.21-.27.32.07.95.15,1.9.19,2.86a8.54,8.54,0,0,1-.07,3c-.21.75.39,1.6-.16,2.36.06.88.11,1.77.17,2.66l.08,1.23c-.62.75.21,1.73-.41,2.47.06.89.11,1.78.16,2.66l0,.41a4.17,4.17,0,0,1-.15,2.16c.16.8-.41,1.55-.11,2.33l-.31.35c.12.29.22.59.36.87.21.44-.29.73-.22,1.14l.29.26c.07.61.07.61.28.59l.62-.7-.37-.68c.12-.21.21-.38.28-.49,0-.69-.1-1.3-.12-1.92a6.18,6.18,0,0,1,.11-2c.18-.67,0-1.41.15-2.15a12.07,12.07,0,0,0-.1-2.46,4.2,4.2,0,0,1,.07-1.57,5.78,5.78,0,0,0,0-1.81c.51-.54.09-1.17.17-1.75,0-.1,0-.2.08-.3l.51,0a2,2,0,0,0-.26-.46c-.16-.2-.46-.31-.42-.64l.57-.07v-.62l.53-.61c-.12-.32.11-.7-.26-.85.14-.3.37-.51-.08-.54a1.16,1.16,0,0,0,.12.43c-.21.15-.26.5-.56.48l0-1.43.59-.22a3.69,3.69,0,0,0-.31-2.13c.09-.36.55-.46.48-.91l-.52-.45-.17-1.23c.25-.87.59-1,1.05-1,.17-.55-.18-1-.3-1.38.09-.38.55-.48.49-.9l-.64-.71.28-.72-.68-.68c.09-.54.44-.51.77-.58a.44.44,0,0,0,.33-.61l-.22-.2-.19-2,.28-.6-.33-.33h-.7l.38-.63.74.29c-.06-.87-.12-1.74-.17-2.61h-.39l-.39-1,.33-1.18c.46.2.9.27,1.23-.14l-.15-2.26-1-.86.57-.46L37,517a13.51,13.51,0,0,0-.12-1.68c-.1-.5.25-.9.2-1.34a4.43,4.43,0,0,1,.17-1.48l-.3-.48.3-.53-.39-.69.31-.35c-.12-.29-.22-.59-.36-.88-.21-.44.29-.72.22-1.14-.09-.08-.19-.17.06.06l-.46-1.17.58-.66a8.34,8.34,0,0,0-.07-.95c-.08-.37-.22-.72-.34-1.1l.54-.6c-.21-.57.27-.85.5-1.25-.11-.3.1-.68-.23-1a.91.91,0,0,1-.16-.95c.07-.3.27-.45,0-.85a2.32,2.32,0,0,1,0-2.1l-.37-.32c.69-.77-.12-1.79.46-2.68l-.17-2.67c.09-.46.55-.55.53-.95l-.38-.65.58-.65-.05-.83-.72-.72.89-1.12c0-.58-.08-1.13-.11-1.68.35-.48.83-.87,1.13-1.36l-.38-.55c0-.82-.11-1.65-.16-2.49l.32-.37c.46-.82-.14-1.2-.15-1.72.15-.29.56-.42.51-.85l-1.06-1c.46-.45.79-1,1.38-1.47,0,0,.47.31.38-.2l-2.63-2.31L39,471.56s.13,0,.22,0,.43.13.33-.36L38.22,470l.39-1.9.72-.12a6,6,0,0,0-.42-2.52l.25-.59-.32-.31a3.7,3.7,0,0,0,.08-2.11c-.19-.26-.61-.34-.58-.77l.86-.16c0-.45-.06-.84-.08-1.24a8.12,8.12,0,0,1,0-1.51c.44.38.73.65,1,.91s.47,0,.68-.22c-.29-.78.31-1.51.14-2.31l-.66-.65c.25-.73,1-1,1.11-1.77-.53-.28-.83-.86-1.39-1.08l-.68.4-1.74-1.52.49-.57c.15,0-.41-.45.11-.5.63.41,1.09,1,1.77,1.41a7.08,7.08,0,0,0,1.2-1.38s0-.13,0-.21l-.3-.26a2.1,2.1,0,0,0-.14-2l.59-.76-.75-1,.62-.7c-.22-.74.14-1.61-.47-2.3a4.75,4.75,0,0,0-.38-2.2c.14-.54.74-.69.75-1.24-1.31-1.2-1.31-1.2-1.52-1.06l0,.53c-.38-.05-.74.18-1-.14s-.09-.64-.15-1c.34-.31.5-.82,1-.94.53.19.69.67.85,1.15.38-.27.74-.46.71-.95l-.39-.34c.29-.6.33-1.33.84-1.84l-.09-.84-1.54-1.35a3.77,3.77,0,0,1,.15-.38,1.07,1.07,0,0,0-.06-1.13c-.06-.09-.23-.1-.35-.16l-1,.82c.09-.68.16-1.18.24-1.68l-.27-.3a5.84,5.84,0,0,1,.11-2.56.67.67,0,0,0-.06-.59c-.52-.51-.23-1.15-.36-1.73l.57-.65-.37-.65a1.78,1.78,0,0,0,.21-1.33l-.47-.41.69-.78-.08-.91-1.24-1.09c0-.38.2-.55.51-.57l.75.56c.75-.25.36-.8.42-1.17l-.36-.48.47-.67c-.2-3.15-.39-6.13-.59-9.14l-.26-.47,1.37-.13-.27-1c.27-.45.67-.6.55-1L38.31,405l.68-.77a2.13,2.13,0,0,1-.15-1.95c-.13-.37-.6-.4-.62-.84l.55-.78a1.9,1.9,0,0,1-.36-1.46l1-1.12-.35-1.38,1.39-1.59.56-.08,0-.65,1.32-1.51c-.06-.43-.45-.52-.65-.78s-.61-.34-.63-.77l.85-1.08-.23,0,.22-.79c-1,.17-1.91,0-2.65.51l-1-.83-.06-.93,1.12-1.27-.41-.71c1-1.12,1.93-2.2,2.76-3.32.3.14.52.37.55-.08a1.16,1.16,0,0,0-.43.12l-1.39-1.23,0-.92,1.19-1.36c-.45-.39-.88-.72-1.25-1.11s-.92-.58-1.1-1.22l1.43-1.63-.74-1c.55-.63,1-1.19,1.53-1.76.26.12.36.58.76.34-.07-.27.08-.59-.23-.87l-.52.53a1,1,0,0,1-.09-1.11c.09-.19.23-.39.08-.53-.57-.48-.1-1.27-.61-1.83-.35-.38.26-1,.16-1.5s-.67-1-.36-1.48-.07-1.16.22-1.52c.5-.62-.39-.94-.16-1.44a1.13,1.13,0,0,0,.06-.36l.35-.44c.28-.93-.5-1.42-.33-2l.33-.58c-.15-.21-.26-.37-.36-.53l.27-.69a1,1,0,0,1-.2-1.44c.54-.34,1,.07,1.55.11l.33-.51L40.51,355l-.12-.84.3-.59-.38-.51c.3-.78,1.17-1.14,1.39-2l-1.65-1.45.63-.91-.42-.54.19-1.35-.3-.52.84-1,.63-.07a2.8,2.8,0,0,1-.37-.67.82.82,0,0,0-.46-.76l.08-1.66-.69-.6-.07-.85.54-.62a1.72,1.72,0,0,0-.37-1.3A4.3,4.3,0,0,0,41,336.8a11.66,11.66,0,0,1-1.3-1.23l.88-1.12c0-.42-.05-.76-.08-1.1l.27-.31c0-.5-.6-.87-.34-1.38l.8-.25-.07-1-.37.15c-.12.06-.22.13-.45.27-.06-.91-.12-1.76-.17-2.6a.38.38,0,0,1,.08-.17c.33-.47.88-.79,1.05-1.49l-.83.35c-.08-.5-.15-1-.22-1.44l.53-.31.78.62,1-.76.37.33c-.13.61-.52,1.23.1,1.82.11.1.06.4.05.6a1.91,1.91,0,0,1-.16.42l-.71.15c-.16.28-.56.42-.49.87l.84-.36.32.29c-.07.57.34,1.2-.16,1.74a5.43,5.43,0,0,1,0,1.8,4.81,4.81,0,0,0-.05,1.77l.51.45.19,1.49-.56.64.05.84.62.54a3.07,3.07,0,0,0-.19,1.12c.12.52-.35.87-.23,1.34s.22.72.32,1l-.25.53c.12.14.22.23.31.33a4.43,4.43,0,0,0,.24,3.22,1,1,0,0,0-.29.51c-.3-.15-.52-.38-.54.07a1.24,1.24,0,0,0,.42-.11c.41.78.13,1.66.34,2.48l.43.38-.67.76a3.47,3.47,0,0,0,.43,2l-.59.09.05.83.42.37V355l.32.34C43.78,356.05,43.58,356.77,43.39,357.49ZM8.5,177.22c-.06.3-.53.39-.49.78s.51.39.93.34l1.2,1,.68.06.53.54,0,.52,1.52,1.33,3.24-.21.43-.48.31-1.26-.6-.53a2.52,2.52,0,0,1-.05-.6c0-.25.21-.48.23-.72s-.41-.48-.36-.88-.24-.43-.54-.41l-.73.71-.77-.68c-.12-.43.17-1-.34-1.32-.81-.23-1.46.57-2.27.4,0,0-.11.06-.12.07l-.54.55-1.11.07-.53.6Zm18.07-30.9c-.46,0-1,.2-1.47-.2a22.18,22.18,0,0,1-3.33-.82,1.39,1.39,0,0,0-1.13.06,8.36,8.36,0,0,1-.82.32L18,147.74l0,.62L17,149.58l.05.84c.48-.17.85.35,1.31.22s.88.21,1.34.21l.41-.47,1,.12.58-.66a3.87,3.87,0,0,0,.85-.06c.91-.28,1.74-.77,2.66-1,.49-.15.68-.86,1.34-.73.07,0,.18-.19.27-.3s.15-.21.22-.31Zm-15-86.59a3.05,3.05,0,0,1-.86,1.78l0,.5L9,64c.39.33.72.66,1.06.91.43,0,.92-.14,1.21,0s.77.09,1.16.11l.52-.59.62-.07.8-.92c.37.07.61-.21.9-.3a2,2,0,0,0,.85-.43,2.83,2.83,0,0,1,.89-.42c.29-.45.88-.75,1-1.37l-.71-.63c-.46.43-.76-.35-1.28-.18-.15.05-.42-.26-.64-.41l-.17-.09a4.55,4.55,0,0,1-2.4-.41Zm2.23,36.15c-.58.66-1.17,1.32-1.75,2a1.38,1.38,0,0,0-.14.38l1,.87L15.21,99l.84-.34a8.87,8.87,0,0,0,1.21-.54c.27-.18.42-.5.83-.48S18.55,97,19,97c.3,0,.58-.29.88-.32.51,0,.63-.43.85-.75l-.07-.75c-.23,0-.52,0-.61-.05-.35-.37-.94,0-1.25-.5s-.89-.07-1.23-.52a8.73,8.73,0,0,0-2.76-.61l-.61.69,0,.5-.53.6Zm-2-53.8c-.17.44-.58.3-.86.39L9.27,44.3v.64L8.2,46.16c.37.46-.58.84,0,1.34.25.19.6,0,.92,0s.82,0,1.11,0C11,46.85,12,47,12.52,46.2a4.36,4.36,0,0,0,2.16-1.09l.46,0,.82-.92-.06-.84h-.59c-.14-.11-.27-.32-.45-.37C13.83,42.64,12.79,42.37,11.75,42.08ZM16,140.63c.21.45.37.77.53,1.11l1.62-.13.31.28,1.44-.09.53-.61.61-.06.72-.81,1-.39,0-.25,1.82-.11.73-.83c-.21-.41-.44-.71-.89-.73l-.46.34a3.8,3.8,0,0,0-.94-.29c-.34,0-.65-.35-1-.53l-.36.41c-.34-.08-.67-.41-1.08-.26s-.75-.16-1.13-.22c-.61-.08-1.09.34-1.71.53-.08.35-.58.48-.63.93l0,.42Zm2.2-20.27a1.26,1.26,0,0,1,0,.91l-.37-.21-2.1,0-.84,1c.11.61-.44,1.14-.17,1.74l.61.54,1.44-.09.26-.3.44,0c.47-.17.49-.65.91-.64.24.08.41.37.69.17a3.55,3.55,0,0,1,2.07-.93,5.26,5.26,0,0,0,.52-.08l.74-.84V121l.62-.84c-.44-.38-.83-.74-1.24-1.08a.87.87,0,0,0-.37-.08c-.37.28-.55.76-1.08,1l-1-.86c-.44.14-.73.48-1.2.4-.08.31-.53.41-.47.86ZM8.65,38.17c1.06.64,1.95,0,2.87-.18.38-.62,1.1-.63,1.65-.94a4,4,0,0,0,.5-.27c.16-.11.32-.37.45-.35.46.07.66-.44,1.1-.4.15,0,.33-.16.13-.06.17-.56.27-.89.37-1.2l-2-.48-.5-.45c-1,.23-2-.45-2.95-.05L8.7,35.62l0,.53-1,1.19v1l.51.26ZM14.8,76.32l-1.16.39-1,1.17v.62l-.53.61c.32.65-.54.88-.48,1.44l.69.61,1-.17.4.31a5.29,5.29,0,0,0,1.82-1c.45.13.64-.39,1.09-.39a4,4,0,0,0,1.05-.4c.33-.12.47-.57,1-.61a.8.8,0,0,0,.66-.87l-.92-.81c-.54.17-1-.34-1.51-.27-.18,0-.4-.32-.59-.48l-1.05.06ZM12.9,51.06l-.3-.27-1.25.48c-.23.32-.6.54-.7.95l0,.44c-.22.24-.45.48-.66.75s-.62.53-.69,1l0,.67.62.54a4,4,0,0,0,2.39-.51c.46-.2,1.07-.22,1.29-.82a7.78,7.78,0,0,0,1.61-.59c.29-.11.69-.17.85-.39s.64-.36,1-.54c-.16-.29.08-.68-.34-1s-1,.32-1.45-.19c-.61.16-.94-.37-1.41-.56Zm1.61,56.67a4.35,4.35,0,0,0,2.45-.54c.32-.57,1-.65,1.48-.8s.64-.45,1.16-.86l.91.14c.41-.58.95-.92,1.12-1.52l-.35-.3-1.15,0c-.33-.16-.46-.57-.87-.51s-.82-.32-1.33-.23a5.09,5.09,0,0,1-1.32-.17,1.29,1.29,0,0,0-.35,0l-1.06,1.21v.6c-.52.59-1,1.15-1.5,1.72-.07.09,0,.25-.08.38Zm7.61,4.55c-.83-.07-1.59-.46-2.41-.55-.22,0-.4-.32-.43-.34l-2.84.18L15.17,113l0,.55-1.38,1.56c.11.39-.08.77.27,1,.05,0,.11.1.16.1l1.37,0,.95-1.08a7.32,7.32,0,0,1,2.25-.73c.42-.09.78-.45,1.2-.54a9.09,9.09,0,0,1,1.54-.07l.6-.68Zm-8.66-26c.14.53-.37.95-.25,1.48l-.55.07c-.3.22-.22.5-.25.76a2.59,2.59,0,0,1-.26.67l.7.62a14.19,14.19,0,0,0,3-1.12l3-1.18c.23-.34.62-.55.71-1l-.95-.83a4.88,4.88,0,0,1-2.24-.78L14.54,85ZM9.56,29.8a4.39,4.39,0,0,1,.71-.35,1.94,1.94,0,0,0,1-.51c.18-.22.63-.2.84-.41s.85,0,1-.51c.57.08.85-.29,1.12-.68l-.06-1-1.7.31-1.16-1-2.17.08-1.32,1.5,0,.55L6.8,29.05c.11.39-.08.78.14.92Zm6,38.9c-.91,0-1.8.09-2.68.15,0,0-.09.09-.21.23l0,.69L10.76,71.9c.06.39-.08.84.28,1.07,1.24.26,2.17-.55,3.25-.75.53-.48,1.32-.47,1.87-.9a1.64,1.64,0,0,1,.84-.45,3.84,3.84,0,0,0,1-.46l.78-.89L18.48,69A4.42,4.42,0,0,1,15.56,68.7Zm-.93,103.73-.83.36-.38-.3a4,4,0,0,1-.65.36c-.37.13-.82-.11-1.15.23s-.82,0-1,.5c-.33,0-.69,0-.79.37l0,.55a9.39,9.39,0,0,0-2.1.18c-.5.16-1,.21-1.5.38-.64.23-1.29.52-1.92.8-.06,0-.09.1-.17.19l.19.44,1.28.33,2.33-.15.3-.3,1.17-.1.54-.62c0-.35-.12-.7.4-.93l2.75-.14.46-.51,1,.17c.31-.5.86-.68.81-1.26Zm.64-39.64a2.13,2.13,0,0,0,1.06,1.09,6.18,6.18,0,0,0,1.21-.59,6.67,6.67,0,0,0,.92-1l1.12-.08.73-.82,1.68-.59.48-.67-.82-.73-.5.38a3.93,3.93,0,0,1-1.25-.36c-.57-.42-.77.52-1.26.24-.1-.06-.26,0-.39,0-.28-.16-.42-.56-.92-.48-.14.4-.68.57-.75,1.09l.37.64Zm6,24.32c1.3.21,2.2-1,3.41-.75.27-.45.82-.64.79-1.22-.2-.18-.44-.54-.61-.51-.5.1-.86-.38-1.33-.24s-.88-.22-1.33-.21l-.27.3-.6.06c-.69.78-1.37,1.55-2,2.33a1.22,1.22,0,0,0-.11.38l.62.55.83,0Zm19.68,22a1.23,1.23,0,0,0,1.41.08,11.17,11.17,0,0,1,2.29-.88c.51-.69,1.42-.68,2.11-1.17l-.75-.67c-.56-.18-1,.34-1.47.41a1.78,1.78,0,0,0-.56.31l-2.09.14-.8.38ZM13.79,19.24c.29-.5.84-.83,1.08-1.36l-.21-.28-2.35.14-.67.77-.49,0-.85,1,0,.84,1.46-.1c.17-.18.34-.55.52-.55C12.85,19.68,13.2,19.12,13.79,19.24ZM43.16,171.76l-.59,0c-.3-.16-.42-.56-.92-.51l-1.33,1.51-.6.12c.1.39-.08.77.14.91l2.47-.15.58-.66,1,.23.21-.65ZM2.42,178.12l.68.6.54,0,.53.28.51-.35,1.61.49a3.07,3.07,0,0,0,.89-1.2l-.52-.35-.52.4-.73-.31-.29.34A6.42,6.42,0,0,1,4,177.78a1,1,0,0,1-.73-.84c0-.09-.08-.18-.13-.26-.33.08-.71-.1-1.06.45Zm4.9,3c.25-.29.47-.55.7-.8s.09-.47-.13-.65a4.94,4.94,0,0,0-.45-.35c-.51.18-.69.66-1,1-.82-.06-1.54-.7-2.46-.35l-.18.49.81.7,2.07-.23Zm31.31-14.41.74.64.71,0c0,.39-.07.77-.11,1.19l1.26-.49-.16-1c.24-.26.44-.46,0-.85-.57.21-1.15-.58-1.81-.2ZM4.2,8.94c.26-.29.55-.47.58-.69C4.87,7.62,5.3,7,5,6.32c-.27-.11-.4-.53-.83-.44l-.81.92a6.06,6.06,0,0,0,.14,1.51ZM32.48,585.35c.34-.1.46-.45.82-.74-.07-.53-.15-1.12-.23-1.64l.17-.25c-.06-1-.12-1.88-.18-2.81l-.56-.23.2,1.2-.31.39c.07,1.15.15,2.29.22,3.43C32.52,584.9,32.16,585,32.48,585.35ZM8.68,182.52l1.07-.17.61.53,1.63,0c-.31-.39-.52-.7-.83-.81l-.61,0-.83-.73-1.56,0-.21.59ZM32.21,586.43c.07,1.1.14,2.17.21,3.25a.83.83,0,0,0,.75-.87l-.37-.48c.22-.31.4-.57.69-1-.82-.27-.3-1-.57-1.52C32.53,585.88,32.42,586.25,32.21,586.43Zm.11,20.82c0-.86-.12-1.89-.19-2.91,0,0-.09,0-.14-.06s-.27.11-.31.21c-.24.54.14,1.18-.27,1.72-.07.09.22.43.3.66.15.41-.09.76-.24,1.21l.55.33ZM24.17,192.5l.2-.5a1.91,1.91,0,0,0-.33-.06l-.59.06-.69.78-1.71.1-.11.41.38.31a2.51,2.51,0,0,1,.64-.35,6.9,6.9,0,0,1,1-.08l.53-.61ZM5.17,21v.91c.54-.16,1.08,0,1.56-.24l.19-.38a3,3,0,0,0-1.15-1Zm11,149.52c.52.37.75.82,1.29.91l.39-.44c-.14-.29-.47-.46-.42-.85s-.21-.45-.54-.44Zm17.76-2.21c0,.49.42.61.7.81l.84,0,.29-.5-.71-.62-.84,0Zm7,229.25c.12.3-.14.82.23,1.21s.59,0,.69-.36l-.37-.66.33-.37-.3-.62-1,.14ZM31.61,190c-.53.08-.9,0-1.26.35s-.75.08-1.23.11l.36.53c.74.14,1.28-.31,1.88-.5C31.44,190.44,31.47,190.26,31.61,190Zm5.18-28.79c-.5-.25-.69-.78-1.36-.9l-.33.56.67.59C36.07,161.4,36.39,161.51,36.79,161.19Zm3.08,266.47c1.29-.94,1.29-.94,1.32-1.62l-1,1.15A3.82,3.82,0,0,0,39.87,427.66Zm.43-257.37L39,170a1.08,1.08,0,0,0,.87.8Zm5.94.27c.33.19.64,0,1,.06l.45-.77-1.29.49C46.42,170.24,46.33,170.39,46.24,170.56Zm-4-4c.4,0,.59-.22.53-.66l-.54-.32-.36.65ZM43.4,377.91c.06.41,0,.72.17,1,.3,0,.45-.21.45-.62Zm1.05,4.59a3.56,3.56,0,0,0-.34-.3,3.59,3.59,0,0,0-.35-.12,2,2,0,0,0-.07.31c0,.19,0,.38.06.69ZM35.37,535.43a2.71,2.71,0,0,0,.34.29c.11,0,.23.08.34.12a1.08,1.08,0,0,0,.07-.31c0-.19,0-.38,0-.69ZM24.76,191.72a3.56,3.56,0,0,0,.34.3,3.59,3.59,0,0,0,.35.12,2,2,0,0,0,.07-.31c0-.19,0-.38-.06-.69Zm20,185.89c-.38-.51-.12-.86-.4-1.11-.3.06-.46.22-.45.63ZM43,390c.44-.1.71-.22.48-.64C43.16,389.41,43,389.59,43,390ZM38.11,169.59l-.2-.16c-.14.12-.28.24-.41.37a.21.21,0,0,0,0,.19c.09,0,.25.1.29.06A2.47,2.47,0,0,0,38.11,169.59ZM31.78,603.42a.5.5,0,0,0,.55-.62A.5.5,0,0,0,31.78,603.42ZM45.3,433.87c-.11-.45-.22-.71-.65-.49C44.69,433.71,44.87,433.85,45.3,433.87Zm-.86-52.12.06-.3c-.06,0-.17,0-.18,0a1.4,1.4,0,0,0-.09.29Zm-.3,3a1.27,1.27,0,0,0,0,.2,1.39,1.39,0,0,0,.28-.12s0-.12,0-.19Zm.37,1.26v-.21a1.2,1.2,0,0,0-.28.13s0,.12,0,.18Zm-2.57,18.9c-.06,0-.16,0-.18,0a1.49,1.49,0,0,0-.09.3c.07,0,.17,0,.19,0A1,1,0,0,0,41.94,404.93Zm3.31,15-.3-.07c0,.07,0,.17,0,.19a1.4,1.4,0,0,0,.29.09Zm-.12,2.63-.3-.07c0,.07,0,.17,0,.19a1.4,1.4,0,0,0,.29.09Zm0,1.95.07-.29c-.07,0-.17,0-.19,0a1.49,1.49,0,0,0-.09.3Zm-.08,2v-.2a.88.88,0,0,0-.28.12s0,.12,0,.19Zm.07,1-.3-.06c0,.06,0,.16,0,.18a1.4,1.4,0,0,0,.29.09Zm-.36,18.3h-.21a1.43,1.43,0,0,0,.13.28s.12,0,.18,0Zm-.25,7-.07.3c.07,0,.17,0,.19,0a1.23,1.23,0,0,0,.09-.29ZM42.3,347.42v-.2a.88.88,0,0,0-.28.12s0,.12,0,.19Zm1.45,138.1-.06.29c.06,0,.17,0,.18,0a1.49,1.49,0,0,0,.09-.3Zm.3,1.35,0-.2a.93.93,0,0,0-.27.12s0,.12,0,.18ZM24.23,121.12h.21a1.43,1.43,0,0,0-.13-.28s-.12,0-.18,0ZM1.58,177.57v-.2a1.18,1.18,0,0,0-.28.12s0,.12,0,.19Zm41,367.67V545a1.43,1.43,0,0,0-.28.13s0,.12,0,.18Zm.3-184.37c-.07,0-.17,0-.19,0a1.38,1.38,0,0,0-.08.29c.06,0,.17,0,.18,0A1.23,1.23,0,0,0,42.88,360.87ZM33.11,578.94l-.29-.06c0,.06,0,.17,0,.19a1.47,1.47,0,0,0,.3.08ZM20,169.76c0,.07,0,.17,0,.19a.89.89,0,0,0,.29.08c0-.06,0-.16,0-.18A1.23,1.23,0,0,0,20,169.76Zm23.11,194.8,0-.21a1.34,1.34,0,0,0-.27.13s0,.12,0,.18ZM22.9,170.74l.07-.29c-.07,0-.17,0-.19,0a1.57,1.57,0,0,0-.08.29Zm9.21,439.07h-.2a1.18,1.18,0,0,0,.12.28s.12,0,.19,0ZM47.39,165.08c-.07,0-.17,0-.19,0a1,1,0,0,0-.08.3c.06,0,.16,0,.18,0A1.61,1.61,0,0,0,47.39,165.08ZM31.47,616.55c0,.07,0,.17,0,.19a.89.89,0,0,0,.29.08c0-.06,0-.16,0-.18A1.4,1.4,0,0,0,31.47,616.55ZM43.18,371.34l.07-.29c-.07,0-.17,0-.19,0a1,1,0,0,0-.08.29Z"/><path d="M0,174.47c.39-1.11.35-1.81.92-2.28v-.61L2,170.36l.61-.06,1.19-1.36a18.53,18.53,0,0,0,2.78-1.3c.55-.43,1.34-.41,1.88-.91.82.1,1.5-.5,2.35-.44-.21.86-1,1.19-1.32,1.83l-.61,0v.59l-1.52,1.74-1.56,0,.07.74.85,0L7,170.9l1.17.29.07.68s-.07.11-.1.12l-1.89.12-.63-.55a14.14,14.14,0,0,0-2.21,1c-.59.38-1.42.47-1.62,1.23C1.19,174.05.66,173.68,0,174.47Z"/><path d="M12.78,4.15l-.56.64H11.3l.17-1,.39-.44A.87.87,0,0,1,12.78,4.15Z"/><path d="M55,169.52c0,.43-.16.61-.48.64C54.27,169.74,54.53,169.62,55,169.52Z"/><path d="M24.77,649.65l.08.55C24.4,650.17,24.63,650,24.77,649.65Z"/><path d="M41,312.84c.19-.23.33-.38.46-.53a3.23,3.23,0,0,1,.15-1.56c.18-.36,0-.9-.05-1.45l-.54.35v.65l-.26.3c-.58.06-.76-.5-1.15-.73-.3-.53.09-1,.13-1.48l-.38-.5,1.19-1.35c.17-.12.73.12.8-.56l-.61-.11c0-.41.37-.54.52-.83.43-.12.57.28.84.45.33.53-.07,1-.12,1.5l.35.34-.31.71.37.5c.21.65-.36,1.31-.2,2.07a13.8,13.8,0,0,1,.16,2c.06.75.13,1.49.19,2.17l-.86,1c0,.39.23.21.38.26a5.61,5.61,0,0,1,.59.22l-.33.79.36.49-.27.68.36.5-.29.59a2.09,2.09,0,0,0,.18.84,1.45,1.45,0,0,1,.22.74c.05.46-.36.83-.22,1.33a4,4,0,0,1,.08,1c-.33.44-.55.36-.92,0l.13-.91c-.65-.68-1.25-1.12-1.81-1.66l.92-1.16c-.11-.53-.64-.68-.94-1a3.07,3.07,0,0,1,.15-1.94l-.37-.65.34-.38-.42-.73c.31-.47.77-.86,1.1-1.32l.67-.07.24-.54Z"/><path d="M39.41,228.67l-.53.62.61.54-.71.81.37.64c0,.38-.37.53-.55.8-.66,0-.78-.65-1.38-.84l.82-.94.37-1.28c-.06-.29-.47-.55-.35-1a.69.69,0,0,1-.33-.88,6.5,6.5,0,0,0,.12-2.56l-.56-.5c-.2-.35.08-.52.2-.81l-.36-.52V222l.48-.55,0-.88-.65-.64,0-1.41c.47,0,.67.52,1,.74.07,1.11.14,2.19.21,3.32L38,223l.63,0a2.48,2.48,0,0,0-.14,1.48l.29.26c.08,1.16.15,2.31.23,3.47Z"/><path d="M38.62,445.79l.84.74-.57.91c0,.09,0,.19,0,.22.4.37.81.72,1.22,1.08a2.81,2.81,0,0,1-.29,1.78c-.5,0-.49-.39-.51-.78L38,448.6l-.41,0-.46-1s0-.1,0-.14C37.63,446.91,38.13,446.35,38.62,445.79Z"/><path d="M38.62,445.79l-.82-.72c.66-.77-.12-1.79.4-2.61a1.19,1.19,0,0,1,.43.06c.51.43,1,.88,1.47,1.28,0,.17,0,.26,0,.3Z"/><path d="M40.45,322.63l-1.06-.93.29-.53c.16,0,.32,0,.4,0a3.26,3.26,0,0,1,.94,2.22l-.67.75-.19.23-.56-.34C39.68,323.46,40.21,323.28,40.45,322.63Z"/><path d="M40.16,435.61l-.34,1.28-.81.92-.5-.29.33-1.28.81-.92Z"/><path d="M26.18,195.15l.43-.5c.15.07.44.11.47.22.19.78.74,1.5.44,2.38a1,1,0,0,1-.86-.9A4.86,4.86,0,0,0,26.18,195.15Z"/><path d="M27.32,199.45c.32.26.2.7.47,1s-.12,1.56-.55,2.17a12.76,12.76,0,0,1-.34-2.74Z"/><path d="M37.09,260.79c-.15-.69-.45-1.18.16-1.53.11,0,.19,0,.23,0l.91.79a.5.5,0,0,1-.54.62A7.21,7.21,0,0,0,37.09,260.79Z"/><path d="M27.27,202.61c.15.23.39.42.43.64.09.55.71,1,.32,1.64a.61.61,0,0,1-.66.06c-.24-.2-.12-.49-.16-.74a4.25,4.25,0,0,1-.05-.8C27.15,203.16,27,202.88,27.27,202.61Z"/><path d="M41.05,291l-.4.37a2.64,2.64,0,0,1-.63-1.64l.63-.71c.1,0,.19,0,.2.06Z"/><path d="M38.3,454.87l.57.44.54.48a2.06,2.06,0,0,1,0,.26c-.31.06-.65,0-.86.35,0,.06-.34-.06-.66-.13l.18-1.15C38,455.19,38.11,455.09,38.3,454.87Z"/><path d="M41.22,299.47l.47-.36c.12.55.58.93.48,1.47s-.2.81-.32,1.28l-.49-.33A2.11,2.11,0,0,0,41.22,299.47Z"/><path d="M37.6,452.56l-.43.49-.6-.21v-1.59l.51.27c0,.23,0,.43.06.63Z"/><path d="M36.53,485.55l-.46-.41,0-.9.84-.08.34.42C37.16,485,36.75,485.22,36.53,485.55Z"/><path d="M36.35,478.28a1,1,0,0,1,.2-1.47l.49.43V478Z"/><path d="M36.11,491.67l.21-.17c.09.06.16.08.16.11,0,.45.07.91.11,1.41l-.68-.24Z"/><path d="M38.43,392.34c.56-.08.73.33,1,.64l-.26.47C38.23,393.51,38.71,392.71,38.43,392.34Z"/><path d="M37.77,217c0,.51.08,1,.12,1.47l-.52-.2.17-1.1Z"/><path d="M42.08,302.65l-.26.89-.56,0C41,302.94,41.8,303,42.08,302.65Z"/><path d="M35.05,314l-.53.59-.58-.34.4-.67Z"/><path d="M33.32,298.28l.25-1.28.56.37A1.12,1.12,0,0,1,33.32,298.28Z"/><path d="M36.32,369.89c-.3-.26-.11-.64-.21-1l.4-.38c.3.28.15.61.22.9Z"/><path d="M37.37,474l-.83.05c-.12-.51.33-.65.59-.92.13.05.48-.11.23.29C37.28,473.55,37.36,473.79,37.37,474Z"/><path d="M35.58,520.28l-.47-.41,0-.87.47.12A1.23,1.23,0,0,1,35.58,520.28Z"/><path d="M35.26,346.69l-.07-1.05c.11,0,.25,0,.33,0a8.83,8.83,0,0,1,.7.59Z"/><path d="M37.2,388.39a1.16,1.16,0,0,1-1-.75C36.55,387.59,36.55,387.58,37.2,388.39Z"/><path d="M34.52,319.6l-.43-.38c-.12-.39.07-.58.44-.64A1.08,1.08,0,0,1,34.52,319.6Z"/><path d="M36.32,495.76l-.43-.38c-.13-.4.06-.58.44-.64A1.08,1.08,0,0,1,36.32,495.76Z"/><path d="M38.06,394.67l.44-.35c.3.3.06.64.24.91C38.29,395.28,38.11,395.07,38.06,394.67Z"/><path d="M34.78,311l-.16.93-.49-.31C34.15,311.21,34.29,311,34.78,311Z"/><path d="M41.09,312.76a1.19,1.19,0,0,1-1.13.12l.47-.62Z"/><path d="M37.64,381,37,380.2l1.12-.09Z"/><path d="M34.52,319.6c.16.46.16.46-.33.75C34,320,34.41,319.85,34.52,319.6Z"/><path d="M36.89,448.06c0,.43-.16.61-.48.65C36.19,448.29,36.45,448.17,36.89,448.06Z"/><path d="M34.84,317.42c-.43,0-.61-.16-.64-.49C34.62,316.71,34.74,317,34.84,317.42Z"/><path d="M40.59,311.33a2.77,2.77,0,0,1-.31.45s-.2,0-.29-.06a.21.21,0,0,1,0-.19c.13-.13.27-.24.41-.36Z"/><path d="M41.09,274a2.11,2.11,0,0,1-.31.45s-.2,0-.29-.06-.05-.15,0-.18a3.6,3.6,0,0,1,.41-.37Z"/><path d="M36.89,470.81a.49.49,0,0,1-.62-.54A.49.49,0,0,1,36.89,470.81Z"/><path d="M39.74,253.54c0,.43-.16.61-.49.65C39,253.76,39.29,253.65,39.74,253.54Z"/><path d="M35.9,349.82c-.15-.24-.61-.27-.43-.7C36,349.34,36,349.34,35.9,349.82Z"/><path d="M35.67,488.35c.43,0,.61.16.65.49C35.89,489.06,35.78,488.8,35.67,488.35Z"/><path d="M37.53,214.5a2.55,2.55,0,0,1-.31.45c0,.05-.2,0-.3-.06a.22.22,0,0,1,0-.18c.13-.13.28-.25.41-.37Z"/><path d="M35.78,514.44c0,.16.16.34.12.47s-.23.28-.35.42c0-.16-.16-.33-.12-.46S35.66,514.58,35.78,514.44Z"/><path d="M35.55,515.33c.15.23.61.27.43.7C35.45,515.81,35.45,515.81,35.55,515.33Z"/><path d="M36,376.2c0-.43.16-.61.49-.64C36.69,376,36.43,376.1,36,376.2Z"/><path d="M36.07,391.48a3.58,3.58,0,0,1,.31-.45s.2,0,.29.06a.21.21,0,0,1,0,.19c-.13.13-.28.25-.41.37Z"/><path d="M39.08,234.35c0,.43-.16.61-.49.65C38.37,234.58,38.63,234.46,39.08,234.35Z"/><path d="M33.94,309.17a2.51,2.51,0,0,1,.32-.46s.2,0,.29.07,0,.15,0,.18-.27.25-.41.37Z"/><path d="M35.82,378.25c0-.43.16-.61.49-.64C36.53,378,36.27,378.15,35.82,378.25Z"/><path d="M36.75,410.22a.5.5,0,0,1-.54.62C36.17,410.43,36.35,410.23,36.75,410.22Z"/><path d="M41.79,297.08a2.14,2.14,0,0,1,.45.32s0,.2-.06.29-.15,0-.18,0a4.72,4.72,0,0,1-.37-.41Z"/><path d="M36.13,359.4a2.77,2.77,0,0,1-.31.45s-.2,0-.29-.06,0-.15,0-.18a3.6,3.6,0,0,1,.41-.37Z"/><path d="M34.89,322.19a3.58,3.58,0,0,1-.31.45s-.2,0-.3-.06,0-.16,0-.19.27-.24.41-.37Z"/><path d="M35.9,349.82c.15.46.15.46-.34.75C35.33,350.16,35.78,350.06,35.9,349.82Z"/><path d="M34.3,304.9a.49.49,0,0,1-.62-.54A.49.49,0,0,1,34.3,304.9Z"/><path d="M35.76,343.12c-.46.16-.46.16-.75-.34C35.41,342.55,35.51,343,35.76,343.12Z"/><path d="M36.53,485.55c.16.46.16.46-.34.75C36,485.89,36.41,485.8,36.53,485.55Z"/><path d="M36.31,385.48a1.49,1.49,0,0,1,.3.09s0,.12,0,.18a1.38,1.38,0,0,1-.29-.08S36.32,385.54,36.31,385.48Z"/><path d="M31.4,258.77l-.11-.29c.07,0,.17,0,.19,0a1.39,1.39,0,0,1,.12.28Z"/><path d="M32.46,267.52l0,.21a1.49,1.49,0,0,1-.3-.09s0-.12,0-.18Z"/><path d="M36,389.08l.28-.1c0,.07,0,.17,0,.19a1.39,1.39,0,0,1-.28.12Z"/><path d="M32,268.34h.2a1.38,1.38,0,0,1-.08.29s-.12,0-.19,0Z"/><path d="M33,281.68l.11.28c-.07,0-.17,0-.19,0a1.18,1.18,0,0,1-.12-.28Z"/><path d="M38.16,275.81l.1.28c-.06,0-.16,0-.18,0a1.2,1.2,0,0,1-.13-.28Z"/><path d="M33.36,284.57l-.1-.29c.06,0,.16,0,.18,0a1.2,1.2,0,0,1,.13.28Z"/><path d="M41.59,287l0,.21a1.49,1.49,0,0,1-.3-.09s0-.12,0-.18Z"/><path d="M41.79,291.31h-.21a1.38,1.38,0,0,1,.08-.29s.13,0,.19,0Z"/><path d="M38.43,405.06l-.55.08C37.91,404.68,38.13,404.92,38.43,405.06Z"/><path d="M33.77,301.23l.29-.1c0,.07,0,.17,0,.19a1.18,1.18,0,0,1-.28.12Z"/><path d="M36.54,417.22l.1.29c-.06,0-.16,0-.19,0a2.36,2.36,0,0,1-.12-.28Z"/><path d="M36.31,419.83l-.08-.55C36.68,419.31,36.45,419.53,36.31,419.83Z"/><path d="M36.39,419.6l.08.54C36,420.11,36.25,419.9,36.39,419.6Z"/><path d="M38.16,423.43l-.55.08C37.64,423.06,37.86,423.29,38.16,423.43Z"/><path d="M35.15,304.47l-.29.11c0-.07,0-.17,0-.19a1.39,1.39,0,0,1,.28-.12Z"/><path d="M36.44,435.59l-.1-.29c.06,0,.16,0,.18,0a1.43,1.43,0,0,1,.13.28Z"/><path d="M40.17,299.54l-.08-.55C40.54,299,40.31,299.24,40.17,299.54Z"/><path d="M40.25,299.3l.08.55C39.88,299.82,40.11,299.6,40.25,299.3Z"/><path d="M41.85,304.5l.28-.1c0,.06,0,.16,0,.18a.88.88,0,0,1-.28.12Z"/><path d="M37.25,449.44v-.21a1.38,1.38,0,0,1,.29.08s0,.13,0,.19Z"/><path d="M34.94,320.6l.1.28c-.06,0-.16,0-.18,0a1,1,0,0,1-.12-.28Z"/><path d="M36.38,457.15h.21a1.4,1.4,0,0,1-.09.29s-.12,0-.19,0Z"/><path d="M34.76,326.73h-.21a1.23,1.23,0,0,1,.09-.29s.12,0,.18,0Z"/><path d="M36.38,459.77l.1.29c-.06,0-.16,0-.18,0a1.43,1.43,0,0,1-.13-.28Z"/><path d="M38.11,458.2a1.23,1.23,0,0,1,.29.09s0,.12,0,.19a1.4,1.4,0,0,1-.29-.09S38.12,458.27,38.11,458.2Z"/><path d="M37,324.83l-.2,0a1.23,1.23,0,0,1,.08-.29s.12,0,.19,0Z"/><path d="M35.36,327l.1.28c-.07,0-.17,0-.19,0a1.18,1.18,0,0,1-.12-.28Z"/><path d="M42.77,324.46h-.21a1.4,1.4,0,0,1,.09-.29s.12,0,.18,0Z"/><path d="M35.1,336.61l.11.28c-.07,0-.17,0-.19,0a1.18,1.18,0,0,1-.12-.28Z"/><path d="M36.51,476.92l-.08-.54C36.88,476.41,36.65,476.62,36.51,476.92Z"/><path d="M36.81,334.67v-.21a1.4,1.4,0,0,1,.29.09s0,.12,0,.18Z"/><path d="M36.39,478.16l.08.55C36,478.68,36.25,478.46,36.39,478.16Z"/><path d="M35.64,343.08l.55-.08C36.16,343.46,35.94,343.22,35.64,343.08Z"/><path d="M37.7,477.46h.2a1.38,1.38,0,0,1-.08.29s-.13,0-.19,0Z"/><path d="M36,481.36l.1.28c-.06,0-.16,0-.18,0a1.43,1.43,0,0,1-.13-.28Z"/><path d="M35.44,347.22a.35.35,0,0,1,0-.58A.35.35,0,0,1,35.44,347.22Z"/><path d="M38.28,483.33l0,.21a2.63,2.63,0,0,1-.3-.08s0-.13,0-.19Z"/><path d="M35.48,347.11l.08.54C35.11,347.62,35.34,347.41,35.48,347.11Z"/><path d="M36.73,487.72h-.2a1.57,1.57,0,0,1,.08-.29s.13,0,.19,0Z"/><path d="M35.85,489.53l.21,0a2.63,2.63,0,0,1-.08.3s-.13,0-.19,0Z"/><path d="M36.34,493.78l-.29.1c0-.06,0-.16,0-.18a1.34,1.34,0,0,1,.27-.13Z"/><path d="M35.64,357.05l.28-.1c0,.07,0,.17,0,.19a1.18,1.18,0,0,1-.28.12Z"/><path d="M36.36,495.64l.08.55C36,496.16,36.22,495.94,36.36,495.64Z"/><path d="M39.69,302.6l.28-.1c0,.06,0,.16,0,.18a1.2,1.2,0,0,1-.28.13Z"/><path d="M36,510.2l-.1-.28c.06,0,.16,0,.18,0a.88.88,0,0,1,.12.28Z"/><path d="M36,511.16l.28-.1c0,.06,0,.16,0,.19a2.36,2.36,0,0,1-.28.12Z"/><path d="M35.7,514l-.08-.55C36.08,513.46,35.85,513.68,35.7,514Z"/><path d="M35.78,514.44a.35.35,0,0,1,0-.58A.35.35,0,0,1,35.78,514.44Z"/><path d="M35.84,363.37l-.1-.29c.06,0,.16,0,.18,0a1.34,1.34,0,0,1,.13.27Z"/><path d="M35.41,532.09l-.11-.28c.07,0,.17,0,.19,0a1.39,1.39,0,0,1,.12.28Z"/><path d="M36.37,366.8l-.08-.55C36.74,366.28,36.51,366.5,36.37,366.8Z"/><path d="M36.41,366.68a.35.35,0,0,1,0,.58A.35.35,0,0,1,36.41,366.68Z"/><path d="M36.49,367.14l.08.55C36.11,367.66,36.34,367.44,36.49,367.14Z"/><path d="M36.37,369.77l.07.55C36,370.29,36.22,370.07,36.37,369.77Z"/><path d="M36.16,374.61l-.54.08C35.64,374.24,35.86,374.47,36.16,374.61Z"/><path d="M35.93,374.53l.54-.08C36.45,374.91,36.23,374.67,35.93,374.53Z"/><path d="M37.78,376.56l0-.21a1.49,1.49,0,0,1,.3.09s0,.12,0,.19Z"/><path d="M36.53,378.47h.2a.89.89,0,0,1-.08.29s-.12,0-.19,0Z"/><path d="M27.28,199.56,27.2,199C27.66,199,27.43,199.26,27.28,199.56Z"/><path d="M35.55,193.73l-.29.1c0-.06,0-.16,0-.18a1.2,1.2,0,0,1,.28-.13Z"/><path d="M36,200.4v-.2a1,1,0,0,1,.29.08s0,.12,0,.19Z"/><path d="M36.12,381.12l-.11-.28c.07,0,.17,0,.19,0a1.18,1.18,0,0,1,.12.28Z"/><path d="M36.75,204.52l.1.28c-.07,0-.17,0-.19,0a1.39,1.39,0,0,1-.12-.28Z"/><path d="M36.5,214.15l.1.28c-.07,0-.17,0-.19,0a1.18,1.18,0,0,1-.12-.28Z"/><path d="M35.93,384.05a1.23,1.23,0,0,1,.29.08s0,.13,0,.19a1.23,1.23,0,0,1-.29-.09S35.93,384.11,35.93,384.05Z"/><path d="M36.72,217.63l.1.28c-.06,0-.16,0-.18,0a.88.88,0,0,1-.12-.28Z"/></g></g></svg>