<svg xmlns="http://www.w3.org/2000/svg" viewBox="0 0 120.57 120.57"><defs><style>.cls-1{fill:#020100;}</style></defs><title>Recurso 5MANDALA</title><g id="Capa_2" data-name="Capa 2"><g id="Capa_1-2" data-name="Capa 1"><path class="cls-1" d="M46.14,120.57C47.34,70.58,67,85.88,67,85.88l8.27-14.32S41.49,56,54.41,106.25Z"/><path class="cls-1" d="M78.18,119.57c-24-43.9.69-40.45.69-40.45V62.58s-37,3.4-.69,40.45Z"/><path class="cls-1" d="M105.42,102.68C62.73,76.64,85.79,67.3,85.79,67.3L77.52,53S47.18,74.42,97.15,88.36Z"/><path class="cls-1" d="M120.57,74.43c-50-1.2-34.69-20.82-34.69-20.82L71.56,45.34S56,79.08,106.25,66.16Z"/><path class="cls-1" d="M119.57,42.4c-43.9,23.95-40.45-.7-40.45-.7H62.58s3.4,37,40.45.7Z"/><path class="cls-1" d="M102.68,15.15C76.64,57.84,67.3,34.78,67.3,34.78L53,43.05S74.42,73.39,88.36,23.42Z"/><path class="cls-1" d="M74.43,0c-1.2,50-20.82,34.69-20.82,34.69L45.34,49S79.08,64.56,66.16,14.32Z"/><path class="cls-1" d="M42.4,1c23.95,43.9-.7,40.46-.7,40.46V58s37-3.4.7-40.45Z"/><path class="cls-1" d="M15.15,17.89c42.69,26,19.63,35.38,19.63,35.38l8.27,14.32S73.39,46.15,23.42,32.21Z"/><path class="cls-1" d="M0,46.14C50,47.34,34.69,67,34.69,67L49,75.23S64.56,41.49,14.32,54.41Z"/><path class="cls-1" d="M1,78.18c43.9-24,40.46.69,40.46.69H58s-3.4-37-40.45-.69Z"/><path class="cls-1" d="M17.89,105.42c26-42.69,35.38-19.63,35.38-19.63l14.32-8.27S46.15,47.18,32.21,97.15Z"/></g></g></svg>