<svg xmlns="http://www.w3.org/2000/svg" viewBox="0 0 121.97 121.97"><defs><style>.cls-1{fill:#020100;}</style></defs><title>Recurso 6MANDALA</title><g id="Capa_2" data-name="Capa 2"><g id="Capa_1-2" data-name="Capa 1"><path class="cls-1" d="M58,56.25c-23.64-43.32.68-39.93.68-39.93V0S22.2,3.36,58,39.93Z"/><path class="cls-1" d="M56.06,58.37C13.92,32.66,36.69,23.44,36.69,23.44L28.52,9.31S-1.42,30.47,47.9,44.23Z"/><path class="cls-1" d="M55.41,61.18C6.07,60,21.17,40.62,21.17,40.62L7,32.46S-8.32,65.76,41.27,53Z"/><path class="cls-1" d="M56.25,63.94c-43.32,23.65-39.93-.68-39.93-.68H0s3.36,36.52,39.93.68Z"/><path class="cls-1" d="M58.37,65.91C32.66,108.05,23.44,85.29,23.44,85.29L9.31,93.45s21.16,29.94,34.92-19.38Z"/><path class="cls-1" d="M61.18,66.56C60,115.91,40.62,100.8,40.62,100.8l-8.16,14.14S65.76,130.29,53,80.7Z"/><path class="cls-1" d="M63.94,65.72c23.65,43.33-.68,39.93-.68,39.93V122s36.52-3.35.68-39.93Z"/><path class="cls-1" d="M65.91,63.61c42.14,25.7,19.38,34.92,19.38,34.92l8.16,14.14S123.39,91.5,74.07,77.75Z"/><path class="cls-1" d="M66.56,60.79C115.91,62,100.8,81.35,100.8,81.35l14.14,8.16S130.29,56.21,80.7,69Z"/><path class="cls-1" d="M65.72,58c43.33-23.64,39.93.68,39.93.68H122S118.62,22.2,82,58Z"/><path class="cls-1" d="M63.61,56.06c25.7-42.14,34.92-19.37,34.92-19.37l14.14-8.17S91.5-1.42,77.75,47.9Z"/><path class="cls-1" d="M60.79,55.41C62,6.07,81.35,21.17,81.35,21.17L89.51,7S56.21-8.32,69,41.27Z"/></g></g></svg>