<svg xmlns="http://www.w3.org/2000/svg" viewBox="0 0 212.4 406.63"><title>Recurso 36GRAPHS</title><g id="Capa_2" data-name="Capa 2"><g id="Capa_1-2" data-name="Capa 1"><path d="M26.66,387.12l-.63-.64V333.59c.11-.26.62-.39.29-1l-.31-.33v-.86l.32-.32c.21-.32.09-.67.07-1l-.38-.38V294.45l-.7-.14-.29.82c-.71-.05-1,.68-1.48.95-.78.09-.87-.85-1.62-.92s-.7-1-1.11-1.54v-2.06a1.46,1.46,0,0,0,.4-.78l2.07-2.08c.28-.06.47.14.68.35.45.47.91.92,1.38,1.39h.43s.14-.09.14-.14c0-.85.09-1.71.12-2.57l-.43-.53.39-.45v-1.26c-.48-.32-.37-1-.77-1.31.12-.26.22-.51.35-.75s.22-.34.39-.61v-5.2l-.34-.34v-1.85l.37-.37v-5.2a1.2,1.2,0,0,1-.46-.88c0-.22-.46-.34-.4-.71s.54-.62.83-1v-4.42l-.37-.37v-2.17l.41-.46c0-1.56,0-3.15,0-4.73,0-.06-.08-.11-.13-.16l-.49-.1-2.63,2.63c-.87-.06-1-.86-1.56-1.08a2,2,0,0,1,.76-1.12H23.2c.36-.29.14-.68.21-1.05l-1.55-1.45L21.27,254v1.13l-1.91,1.65-.55.27-.41-.38h-.34l-1.58-1.57v-3.41c.52-.73,1.57-.7,1.89-1.51h.78c.47.18.73.63,1.1,1s.59.59.91.91a3.28,3.28,0,0,0,1.53-1.83h1.85l.59.62-.82.82v1l.56.52c.66.1.82-.4,1.13-.64v-3l-.39-.39.35-.47v-1.69l-.75-1.36L26,244.2v-5l-.76-1.42.75-1.45v-5.49l-.85-.89c-.09-.64.56-.78.83-1.44v-4.65l-.35-.34v-2.27l.37-.37V200l.73-.59H211.77l.6.54V386.51l-.59.61Zm52.91-186H43.14l-.46.39h-.84l-.46-.36H27a3,3,0,0,0-.13,1.48l.4.44v9.54c-.38.53-.38.53-.34,1.5.5.47,1.08,1,1.65,1.56,0,0,0,.14,0,.29-.13.72-.89,0-1.27.53v4.28l-.44.54.65.61H79c.12,0,.24-.12.35-.18-.45-.35-.36-1-.76-1.31l.57-1.1h1.8c.16.62,1,.37,1.3.9s1.05.56,1.59.84.94.53,1.49.85h3.35l.48-.44H90c.68-.38.64-1.26,1.26-1.67l1-.12.34-.34a13.54,13.54,0,0,1,1.91,0c0,.29.08.53,0,.67-.23.35-.54.64-.79,1a2.31,2.31,0,0,0-.22.51H92.16l-.82.71a8.23,8.23,0,0,0,2.23.13c.71,0,1.42,0,2,0l.48.49h1.75l.37.38h1.73l.48.45H102c.94.62,2.11.49,2.73,1.28H106l.49.44c.25,0,.66-.12.8,0,.32.32.81.29,1.06.58s.91.07,1.17.32.77.3,1.08.58a1.16,1.16,0,0,0,.55.22,6,6,0,0,1,.61.11c.19.07.33.27.51.32a2.54,2.54,0,0,0,.68,0l.92.88h.7c.48.25.86.41,1.2.62s.51.61,1,.71.65.52,1,.82a2.62,2.62,0,0,1,1.14.28c.81.26,1.27,1,2.08,1.25.53.68,1.5.78,2,1.53a1.24,1.24,0,0,0,.47.41c.43.19.87.34,1.31.51l1.38,1.38c.41.41.84.8,1.22,1.24s1,.68,1.49,1.08c.88.75,1.65,1.62,2.47,2.43l.25.74h.54l.24.7,1.65,1.75c0,1,1.32,1.09,1.31,2.06a11.42,11.42,0,0,1,1,1.95l.43,0c.42.28.31.88.76,1.18s.58.92.77,1.4.67.71.91,1.18v1.08a8.9,8.9,0,0,0,.64,1.22c.45.6.47,1.43,1.06,1.94,0,.5-.06,1,.45,1.33-.21.62.26,1,.43,1.56,0,.13-.05.32,0,.43.29.45.35,1,.79,1.41,0,0,0,.12.11.32v1.08l.35.35c.11.77-.05,1.56.09,2.26l.38.38v2.15l.43.47v5.18l-.45.5v3.4l-.41.5a3.12,3.12,0,0,1,0,1.11c-.18.44-.53.82-.4,1.35s-.59.92-.46,1.56c.1.46-.51.75-.46,1.33,0,.41-.34.85-.56,1.27s-.62.81-.65,1.23a2.88,2.88,0,0,1-.48,1.33c.35.66-.53,1-.43,1.56-.52.39-.55,1.07-1,1.56a2.77,2.77,0,0,0-.8,2.09c-.85.33-.79,1.42-1.53,1.92-.18.12-.21.48-.32.72a3.66,3.66,0,0,1-.91,1.37c-.18.15-.17.51-.33.72s-.5.51-.74.78c0,0,0,.14,0,.33l.44.57c.14,1-.59,1.63-.9,2.44a2.75,2.75,0,0,1-1.68,1.42l.39.45c-.33.28-.53.73-1.06.63l-.64-.64.86-.91v-1.09a13.42,13.42,0,0,1,.88-1.78,18.24,18.24,0,0,1,1.4-1.67l-.54-.65v-6l.4-.47-.41-.4V288l-1.49-1.42-1.92-3.78.37-.36v-7.37l-.44-.48V270.7l-.4-.39v-2.17l-.87-.87V266l-.44-.51v-1.26l-.87-.91c0-.32.08-.69-.06-.88-.81-1.09-1-2.55-2.12-3.46v-.86c-.55-.29-.41-1-.92-1.37s-.45-1.19-1.08-1.49-.49-1.18-1.08-1.51c-.42-.23-.3-.75-.61-1.05-.52-.5-1-1.07-1.54-1.52s-.8-1.3-1.37-1.82c-.37-.35-.72-.72-1.07-1.07s-.64-.6-.92-.93-.91-.28-1.22-.75a6.75,6.75,0,0,0-1.06-1.08.57.57,0,0,0-.35-.18c-.65,0-.76-.78-1.37-.9s-.9-1-1.46-1.18a4.25,4.25,0,0,1-1.34-1h-.64l-1.17-1.3-.82,0a3.34,3.34,0,0,0-.66-.65c-1.18-.64-2.43-1.14-3.58-1.84-.21-.13-.55-.06-.83-.09a.71.71,0,0,1-.18-.08l-.77-.76a3.3,3.3,0,0,1-1.19-.27c-.56-.34-1.14-.82-1.87-.65l-.51-.43H96.13l-1.56-.84c-.42,0-.86.1-1.26-.11L93,235c-.48-.08-1,.11-1.49-.17l-.25-.28h-.87l-.49-.45H88.2l-.38-.38-1.32-.06-.57-.45H82.54l-.37-.37H76.66l-1.54-.88H73.46c-.21.31-.56.35-.87.49a3.47,3.47,0,0,0-.83.78l-1,.05.18.24-1.15.73,0,1-1.43,1.43c-.55-.13-.77.6-1.31.51-.07,0-.17.18-.29.31l.19.54h.91l.45-.42h3.48l.39.39h4.16l1.74.95H80.9l.43.43h1.74l.38.38h1.29l.48.45h.83l.51.45h1.11l1.66.89h1.12l.8.82h.86l.47.43c1.19-.17,1.93,1.08,3,.9l.79.79c.42.14.84-.09,1.23.31s.85.37,1.24.61c1.4.83,3.1,1.18,4.06,2.6.82-.13,1.35.39,2,.64v.47l1.66.75,1.45,1.45,1.59.73.19.66.6.13,2.5,2.5.49,0c.12.72.7,1.14,1.17,1.63a7.77,7.77,0,0,1,1.57,1.74,7,7,0,0,0,1.35,1.6c.53.59,1.12,1.13,1.58,1.6a17.93,17.93,0,0,1,1,2.11,2.09,2.09,0,0,0,.8.95c.46.38.49,1,.89,1.39.15.16.06.55.1,1l1.28,1v1.3l.63,1.22a4.42,4.42,0,0,1,.62,1.25c.07.43.65.62.47,1.11a1.29,1.29,0,0,1,.44,1.33l.44.48v.82l.45.52v1.73a16.52,16.52,0,0,0,1.61,1.42,3.11,3.11,0,0,1,1.48,1.56l-.87.61c-.82-.14-1.41-.89-2.2-1.26s-1.12-1.07-1.61-1.39l-.6-1.17v-.7l-.45-.48v-1.32c-.68-.42-.87-1.2-1.29-1.83v-1.08c-.57-.68-.75-1.58-1.28-2.3-.14-.18,0-.55,0-.82-.79-.56-1-1.59-1.71-2.14.22-.52-.5-.66-.45-1.24l-.06-.64-.69-.18a2.69,2.69,0,0,0-.32-.73c-.32-.39-.89-.67-1-1.1s-.55-.79-.8-1.19a13.16,13.16,0,0,1-.74-1.58l-2.19-2.2-.62-.16-.13-.6a13.74,13.74,0,0,0-2.55-2.16,7.76,7.76,0,0,1-1.55-1.49,6.17,6.17,0,0,0-1.44-1.24c-.69-.31-1-1-1.65-1.35h-.8L103,250.16c-.58.22-.75-.53-1.33-.52-.41,0-.58-.72-1.15-.84a3.91,3.91,0,0,1-1.25-.64c-.39-.26-.92-.29-1.21-.75s-.94-.27-1.2-.76H95.4l-.63-.89a2,2,0,0,1-1.57-.45H92a3.52,3.52,0,0,0-1.53-1.11,4,4,0,0,0-1-.2l-.46-.4H87.76l-.33-.33a4.15,4.15,0,0,1-2.78-1H82.52l-.37-.38H80l-.48-.45H78.23l-.39-.39h-3l-.46-.46H70.87l-.37-.38H64.32l-1.89,1.89v.43c-.31.64-1.11.58-1.51,1.08-.51-.29-.66-.83-.94-1.3h-1.7l-.64-1.24,1.11-.77a6.71,6.71,0,0,0-.86-.14c-15-.15-28.17-.09-30.58.14v3.49l-.4.52.61.6h22.1l.41.41a1.75,1.75,0,0,0,.6,0c.47-.18.92-.41,1.47-.66l-.91-.36v-1l.61-.58h1.77a3.41,3.41,0,0,0,1.52,1.09c.29.66,1.13.53,1.52,1.07h2.12l.46.39H60.5l.33-.33.83.42.54-.47.45.41H66.1l.48.45H70l.4.39H73l.46.46h2.17l.46.46h1.73l.4.4h.84l.48.44h2.15l.48.45h1.15l1.53.85c.64-.31,1,.48,1.55.43.35.47,1.07.35,1.38.88h1.56l.59.93c1.06-.41,1.77.53,2.68.43l.78.79c.33.09.71-.14,1,.15l.25.73h.9l.5.45h.86c.72,1.12,2.28,1,3,2.16h.88c.42.38.72.9,1.36.92.21.44.74.32,1.06.6s.71,1.13,1.5,1.09c.45.46.91.93,1.38,1.38s1.1.53,1.52,1.06a2.48,2.48,0,0,0,1.48,1.11.87.87,0,0,1,.55.61c.06.68.68.88,1,1.33.76.13,1.12.79,1.67,1.22.73.58,1,1.54,1.66,2.14s1.34,1.32,2,2c0,.05.14.1.15.15,0,.74.74,1,1.06,1.52a6.88,6.88,0,0,0,1.23,1.66,4,4,0,0,1,.6.94l.63.2c0,.34-.12.75,0,.89.46.45.38,1.24,1.1,1.56.22,0,.64-.12.76,0,.44.49,1.26.35,1.55,1.05a2.91,2.91,0,0,1-.09,1.48h-2.74l-2.3-2.3a1.08,1.08,0,0,0,0-.41,4,4,0,0,1-.47-.9c-.16-.48-.84-.7-.9-1.36,0-.22-.4-.4-.58-.62s-.66-.5-.69-1c0-.25-.45-.63-.73-.66-.51-.07-.42-.41-.58-.69a12.83,12.83,0,0,1-.94-1.35c-.24-.56-.87-.94-1.33-1.4l-1.07-1.07-.18-.7c-.84.13-1.07-.71-1.63-1.12v-.43c-.37-.31-.87-.36-1.22-.75-.51-.59-1.13-1.09-1.7-1.63-.62,0-.75-.72-1.18-.8a1.93,1.93,0,0,1-1-.65l-1.08-1.08c-.43-.17-.88-.32-1.3-.51a1.14,1.14,0,0,1-.48-.41c-.26-.5-.84-.43-1.22-.74a7.21,7.21,0,0,0-1.55-.7l-1.6-1.62H95.14a1.68,1.68,0,0,0-.87-.49c-.36-.16-.61-.57-.94-.89-.8.42-1.24-.72-2-.34l-.93-.88h-.73l-1.52-.86c-.34,0-.81.14-1,0a4.66,4.66,0,0,0-1.54-.51,9.33,9.33,0,0,1-1.32-.76c-.51,0-1.15,0-1.63,0l-.46-.42H80.85l-.49-.45H79.09l-.4-.4H77.14l-1.62-.86c-.9-.09-2,.06-2.94-.05l-.4-.4H69.59l-.48-.45H65.68l-.45-.4H57.88l-.66.62v.45l-1.12.58-.4-.37c-.48.06-1-.15-1.45.14l-.17.67c-.66-.07-1.11.82-2.1.31-.51-.12-.31-1-.79-1.38.23-.31.66-.48.75-.91-.07-.05-.12-.13-.18-.13H27.7a.44.44,0,0,0-.2,0,.84.84,0,0,0-.19.19c0,1,0,2,0,3,0,.06-.07.11-.11.17l-.31.31c.06.33-.15.71.14,1a.44.44,0,0,0,.19.07H45.63c.1,0,.2-.15.27-.2l-.46-.66a5.66,5.66,0,0,1,1.18-1.28h1.07l.52.78c.52.08.86,0,1.06.17.56.4,1.32.53,1.63,1.19h1.34c.42-.41.82-.83,1.24-1.22.08-.08.26-.05.55-.1l.62.66v1c.34.11.41.61,1,.56l.55-.41h4.32l.41.41H67l.46.46h1.73l.39.38c.76.08,1.55,0,2.23.07l.4.4c.5,0,1,0,1.51,0a1.34,1.34,0,0,1,.36.14l.33.3h2.45l1.59.89h2.46l.82.82h1.69a10.14,10.14,0,0,0,1.61.88,2.37,2.37,0,0,0,1.53.48c.45.7,1.2.21,1.76.46l.78.78h1.28l.94.9h.86c.3.56.87.36,1.34.47a3.53,3.53,0,0,0,1.86,1.22c.4.12.61.65,1.11.47a2,2,0,0,0,.88.49c.36.15.61.56.87.82a1.89,1.89,0,0,1,1.44.42c1,.53,2.21.81,2.93,1.8.28.39.77.27,1.06.6s.71.71,1.07,1.06c.78-.17.86,1,1.6.87.47.43.93.87,1.42,1.28.08.07.28,0,.42,0l1.48,1.48.15.67h1l1.36,1.35c.51.51,1,1,1.53,1.53s.42,1.21,1.15,1.5h1.15l1.12,1v.9l-.64.64c-.27,0-.7-.12-.82,0-.38.45-1,.34-1.35.79l-.65-.43-.71.43-.37-.37L108.13,284c-.35,0-.72,0-.89-.12a10.56,10.56,0,0,0-2-1c-.57-.32-1.14-.81-1.9-.63-.7-.92-1.86-1.1-2.68-1.71-.49-.05-.93.11-1.33-.13l-.3-.31H98l-.61-.89H96l-.41-.41H94.51L91,277H89.92c-.29-.7-1.09-.17-1.47-.63s-1.19.06-1.51-.69H85.15l-.39-.39H82.69l-1.54-.89H78.23l-.86-.86h-2.6l-.41-.41c-1-.07-2.1,0-3.08,0l-.39-.4a20.06,20.06,0,0,1-2.23-.06l-.41-.39H66.12l-.5-.45H58.29l-.41-.4H51.81l-.4-.4H50l-.35.35c-.34,0-.69.14-1-.07l-.33-.32H46.62c-.06,0-.11.09-.24.21v1.25l-.48.63v1.26c-.61,0-1,.65-1.56.54a4.58,4.58,0,0,1-.56-.15v-1.79l.44-.47c-.08-.34.15-.73-.33-1.14-1.07.66-2.34,1.08-3.41,1.79H39.19l-.59-.62v-.83c.1-.27.58-.35.2-.68H27.53c-.48.48-.6.47-.66,1l.44.49c0,.76,0,1.56,0,2.35a1,1,0,0,1-.13.37l-.28.31.64.64H37.9c.05,0,.1-.08.21-.16-.08-.35-.38-.25-.62-.27l-.45-.87.8-1.29c.46,0,.74-.09.88,0,1.15.84,2.68,1,3.59,2.15.5,0,.95-.08,1.21.4a1.77,1.77,0,0,0,.2,0H57.81c.06,0,.12.07.17.11l.33.32h4.74c.06,0,.11.08.16.13l.32.3h4.63l1.58.89h5l.57.45h4.25l.35.35,1,.09.38.38h1.28l.49.44h3.43l.5.45h1.71a1.07,1.07,0,0,0,.92.44c.39,0,.74.35,1.13.38a1.09,1.09,0,0,1,.91.44h3l.49.45H96l.48.45h.83l.5.44h1.26l.41.41H101l1.67.87h1.1c.32.5,1,.37,1.38.88h1.27l.57,1.1a4.1,4.1,0,0,0-1.3,2.64c-.26.25-.63.47-.74.78a1.47,1.47,0,0,1-.49.87l.41.47-.62.62h-.87l-.92-.87h-1.73c-.29-.7-1-.31-1.49-.61-1-.62-2.23,0-3.32-.32l-.31-.31a.71.71,0,0,0-.2,0h-5s-.11-.07-.17-.11l-.3-.31c-.63-.05-1.27,0-1.76,0l-.45-.42H80.42l-.49-.45H73.46l-.4-.4H70l-.46-.46H48.32l-.4-.4H45.35l-.49-.45H43.8l-1.1,1.33H41.19c-.57.24-1,.29-1.16.52s-.87.17-1.06.59-.76-.1-.75.45a6.7,6.7,0,0,0,2.91,1.35l.09-1.08.58-.16c.45-.16.56-.81,1.15-.83s.29.91.83,1.07v1.3c-.2.26-.59.45-.42.89l.63.63h59a1.33,1.33,0,0,1,.89-.42c.34.44.88.71,1.16,1.33l-.52.67v1.69l-.63.62-.45,0-.86-1.72H43.27a4.51,4.51,0,0,0-1.2.65c-.38.44-1-.1-1.26.32l-.19.75c-.33,0-.73-.12-.87,0-.41.4-1.08.33-1.39.83l-.45-.41c-.37-.08-.75.15-1-.21v-.86c.27-.29.55-.6.82-.92l-.18-.18H27.58c-.06,0-.11.07-.21.14l-.59.65.5.81v32.41l-.41.48a10.11,10.11,0,0,0,.11,1.81c.33.69,1.34.48,1.57,1.25-.4.61-1.29.57-1.67,1.24V334l.42.45v33.76l-.47.64c.21.61.67.86,1,1.23a.79.79,0,0,1,.31.85l-1,.88c-.45.87.09,1,.15,1.19v10.77l-.54.92.77.72H40l.77.47c.41-.3.82-.48.84-1s.33-.38.82-.36l1,1.26h1l.45-.36H77.42l.35.35a3.09,3.09,0,0,0,1.45-.06c.11-.77.71-1.15,1.17-1.56l1,.92.19.7a3.14,3.14,0,0,0,1.5-.06l.32-.33h33l.45.42h.86c.42-.41.82-.83,1.24-1.22.09-.08.27,0,.4-.07.59.23.66.84,1,1.29h.87l.45-.42h22.53l.45.41c.49.18.62-.33.81-.38h1.82c.38.55.86.44,1.35.3l.34-.33h5.81a1.39,1.39,0,0,1,.38.12l.31.31h1.08l1.21-1.34.48.2.2.86c.8-.78,1.1.42,1.78.28l.46-.43H194c.21.27.44.55.88.39l1.22-1.21s.1,0,.16.06l.75.76h9.53l.45.41h.85l.46-.37.43.35h1.77c.08-.1.16-.15.16-.2,0-4.77,0-9.54,0-14.27l-.42-.47c-.18-.49.34-.61.38-.79V332.68l-.81-.82.84-.9V294.55a6.13,6.13,0,0,1-.62-.63c-.2-.25-.58-.36-.6-.82l1.23-.71V255.55c-.37-.38-1.08-.28-1.24-.89l.52-.58.69-.17V216.54l-.39-.45v-.85l.42-.46V201.57a.81.81,0,0,0,0-.22c0-.06-.1-.1-.16-.16H197.18l-.91.45-.55-.5H159l-1.46.82-.77-.77H120.43c-.64.28-.79.93-1.69.77l-.54-.8h-37l-.17.7-.58.52C79.83,202.21,79.91,201.51,79.57,201.15Zm58.72,55.7v-1.3c-.28-.4-.82-.56-.89-1.16,0-.38-.5-.64-.49-1.09-.61-.28-.18-.93-.49-1.37l-.77-.75c.25-.45-.24-.58-.41-.91v-.85a4.08,4.08,0,0,1-1.33-2.07l-1.19-.79-.16-.7-.65-.17-.65-1.51a7,7,0,0,1-1.46-1.52,6.88,6.88,0,0,0-1.26-1.64h-.49l-.27-.79a1.47,1.47,0,0,1-.56-.11,4.52,4.52,0,0,1-.63-.61v-.42c-.34-.35-.91-.32-1.2-.77s-1-.34-1.37-.91a6,6,0,0,0-1-1.09l-.72-.24,0-.53a5,5,0,0,1-1.6-.76c-.47-.47-1.07-.63-1.55-1a14.16,14.16,0,0,0-4-2L114,230.62h-.92l-2.46-1.31h-1a19.82,19.82,0,0,1-2.08-1.1c-.47-.33-1.19.06-1.5-.59l-.94-.08-.39-.39h-1.18l-1.57-.89h-1.61l-.4-.41h-3L96,225H88.69s-.11-.08-.16-.12l-.31-.31H84.76l-.46.43c-.35.08-.74-.15-1,.17l-.12.63-1.15.13L80,228c-.45,0-.85-.08-1.22.32s-1-.13-1.31.48L76.3,229v.52l.64.63h.86l.46-.42h1.28l.48.45h3l.4.4H86l.46.46H88.6l.55.42c.51.05.94-.09,1.34.11l.32.32h.84l.49.45h1.27l.52.47c.79-.29,1.35.63,2.14.44l.8.8h1.26l.51.45c.25,0,.64-.12.81,0,.69.58,1.63.69,2.33,1.31h1a8.46,8.46,0,0,1,1.24.66,8.74,8.74,0,0,1,.88.9c.41.17.65.19.78.32a1,1,0,0,0,.76.27,2.57,2.57,0,0,1,.54.11l.15.74h1.21l1.3.67,0,.45c.29.29.85.15,1,.61.55-.12.76.33,1,.62s1,.26,1.21.76.75.29,1,.61c.75.79,1.53,1.54,2.3,2.3,1.15.25,1.63,1.32,2.41,2s1.75,1.72,2.62,2.59v.45l2.14,2.13c-.07.7.77.87.86,1.37.14.74.84,1,1.12,1.5a3.6,3.6,0,0,0,.93,1.34c.06.05.15.11.15.15,0,.32.18.51.29.76.44,1,1,1.88,1.41,2.88.15.37.65.61.47,1.1s.43.68.45,1.12.68.69.88,1.24v1.54a2.46,2.46,0,0,1,.39.59c.08.26,0,.56.11.82a3.31,3.31,0,0,0,.34.52c.13.23.24.48.43.86V269l.44.49v.84l.45.49v2.13l.4.41v3.9l.4.4v5.72l-.39.39c0,.25-.12.65,0,.79.41.41.32,1.09.85,1.4v1.94l.83.53-.54.94c.63.31.81,1.05,1.64,1.15.2-.23.55-.45.64-.74.22-.72.66-1.32.91-2,.14-.38.45-.66.44-1.13,0-.3.34-.59.39-.91s.62-.62.47-1.11c.54-.31.38-.86.5-1.58l.78-.48v-1.34l.48-.56v-1.27l.39-.38v-1.29l.42-.46v-13l-.39-.39v-1.55l-1-1.75v-2l-.79-.28-.06-1Zm-91.45,2.83.56.87,1-.05c.14-.72.76-1.23.62-2l.89-.21.52-.81.71.69v1.3l-.43.47c.07.35-.16.74.18,1l.44,0,.47-.44c.49,0,1,0,1.5,0a1,1,0,0,1,.37.14L54,261h6.46l.5.45H63.1l.4.41h4.72l.63.48h2.08l.43.44h1.73l.39.38H75.2l.48.45h.84l.4.39h1.73l.46.46h2l1.67.87h1.11l.46.43H86c.54.32,1,.78,1.48.83.69.07.79.81,1.67,1H90l.37.37h1.28l.93.88a1.48,1.48,0,0,1,1.35.43c.64-.27,1,.28,1.55.47a2.47,2.47,0,0,0,1.45.38l.7.89h.83a1.57,1.57,0,0,1,.94,1.21c.41.24,1-.15,1.32.45l1.44.12.29.8h.84c.48.23.65.82,1.2.88s.67.81,1.16.85.78.58,1.17.85c.57-.2.75.68,1.34.47l1.58,1.62c.59.25,1.09.45,1.57.68.12.05.21.19.31.3.49-.05,1,.15,1.48-.16V277.7c-.23-.72-1.11-.48-1.25-1.1s-.7-.75-1.17-1a7,7,0,0,1-1.24-1.2l-1.23-1.23-.68-.08c-.23-.27-.58-.73-1-1.14a3.9,3.9,0,0,0-1.48-1.12c-.49-.18-.82-.78-1.22-1.18h-.47l-.42-.88h-.88a14.32,14.32,0,0,0-1.25-1.22c-.19-.15-.51-.09-.74-.32s-.81-.19-1-.61c0,0-.14,0-.21,0h-.62a3.14,3.14,0,0,0-.51-.42.61.61,0,0,0-.34,0c-.59-.38-.89-1-1.42-1.27h-.76l-.92-.88h-.85c-.11-.11-.19-.27-.31-.3-.93-.2-1.58-1.06-2.63-1a2.23,2.23,0,0,1-1.21-.68c-.41-.34-1,.11-1.35-.44s-.8,0-1.18-.3a7.43,7.43,0,0,0-1.3-.74H84.28l-.88-.88H81.67l-.39-.39H80l-.47-.44h-.83l-.51-.45H77l-.58-.48H73.84c-.29-.61-.93-.19-1.33-.47-.11-.08-.2-.2-.32-.31H70.05l-.48-.45H67.85l-.48-.45H62.19l-.37-.37H51.31c-.28.59-.89.27-1.33.46l-1,1-2.26,1.11A3.74,3.74,0,0,1,45.47,257c.15-.39.48-.57.72-.81s.58.18.54-.33c-.06,0-.12-.12-.18-.12H27.7a.42.42,0,0,0-.2,0,1.22,1.22,0,0,0-.18.16v3.41c-.17.32-.61.49-.43,1l.66.62c5.13,0,10.32,0,15.52,0,.08,0,.16-.16.24-.24l-1.24-1.24a5.28,5.28,0,0,1,1.16-1.11c.28,0,.57-.09.7,0,.59.47,1.44.57,1.79,1.3Zm62,20.11c-.37-.25-.55-.52-.93-.65a2.63,2.63,0,0,1-1.39-.79c-.39-.55-1.09-.56-1.55-1a11.16,11.16,0,0,0-1.5-1.06,10,10,0,0,0-1.6-.8l-.36-.18h-.65c-.2,0-.4,0-.58-.07l-.27-.8H98.85l-1.19-1.3c-.23,0-.48.08-.65,0-.79-.39-1.55-.82-2.42-1.29h-1l-3.37-1.73H89.13l-.48-.42h-.83l-.93-.88c-.45.16-.6-.3-1-.46H84.28c-.33-.74-1.31-.07-1.64-.78l-1.4-.11-.36-.35L79.51,267l-.39-.38H77.4l-.48-.45H75.33l-1.58-.89h-2l-.41-.41H67.83l-.45-.46H65.64l-.39-.39H61.37l-.47-.44h-.85l-.46.42c-.47.17-.61-.31-.87-.4h-10l-.64.62v2.61c-.31.31-.64.6-.92.92s-.66.47-.74.9c.09.05.14.12.2.12h13l.4.41h6.76l1.73.94h3.73l.81.81H76.5l.48.45h1.26l.5.44h1.69l.41.4h1.68l.62.49h2.38l1.53.82h1.58c.23.41.71.39,1.05.6l1.23.69c.45.23,1-.27,1.41.23s1,0,1.36.44a4.39,4.39,0,0,0,1.21.65H96l.47.43h.87a1.67,1.67,0,0,0,.86.5,2.71,2.71,0,0,1,.81.76c.5.09.89-.09,1.15.28s.83,0,1.32.44l.61.62H103l.48.45h1l.58.83,1,.05.82.82a3,3,0,0,0,1.46-.11l.51-.56Zm-22.76,6.32h5.63l.48.44h3l.39.4h2.17l.46.46H99.6a5.56,5.56,0,0,1,1.08,0c.24.05.49.42.68.39.75-.14,1.23.77,1.66.6l1-.73,0-1c-.33-.22-.71-.15-1-.46-.13-.15-.52-.1-.8-.12h-1c-.34-.77-1.32-.1-1.65-.82l-1.4-.1-.44-.43H96.4l-.38-.39H94.73l-.48-.44H92.54l-.4-.4H89.72L88,282.59H86.43l-.37-.37H83.92l-.48-.45H82.16l-.48-.44h-3l-.4-.4H76.1l-.46-.46h-3l-.46-.46H66.67l-1.56-.84H63.52l-.46.42h-1.3l-.4-.39H55.44l-.8-.49c-.47.1-.59.62-1.06.45-.28-.11-.43-.58-.9-.41l-.45.42H50.51l-.45-.42H45.29a2.64,2.64,0,0,0-.47.48c-.28.53-.52,1.08-.77,1.63-.34.21-.86-.24-1.09.3.12.06.23.13.36.18l.38.13a1.12,1.12,0,0,1,.07.4c0,.34-.42.48-.45.9s.37.73.47,1.12a2.56,2.56,0,0,0,.19.46h.88l.45-.37h4.36l.35.34h5.74l.36-.37.47.43H60l.45.41h1.31l.37-.37h5.3l.39.39h5.2l.45.46H83l.46.46h2.17C85.85,285.9,86,286,86.05,286.11ZM73.47,229.32l.48-.45h1.9l.52-.75c.58-.18,1,.06,1.23-.36v-.83l1.24-1.24.15-.58c.1-.32.74.12.67-.51H27.55l-.68.58.42.46v2.61c-.34.33-.68.63-.2,1.07H66.54a3.09,3.09,0,0,0,.43,0s.1-.1.23-.25v-1.92c.7,0,1.33,0,2,0l1.23,1.23c1-.1,1.61.65,2.44.92Zm-7.81,3H33.6l-.45-.42H31.87l-.51.44H27.5l-.64,1.25.94.63-.5.49v1.1l-.45.86.62.85H58.6c.12,0,.23-.14.32-.19-.35-.6-1.11-.88-1.26-1.47,0-.72.59-.37.82-.65.37-.47.84-.41,1.31-.1.17.1.4.27.54.23.59-.2.85.41,1.34.49s.65.51,1,.82h.8l.92.88c.5-.08,1,.19,1.48-.2v-1.43l1.31-1.09c0-1,0-1.76,0-2.55,0-.12-.12-.24-.19-.36h-.87ZM42.84,263.71c-.05,0-.1-.14-.15-.14H27.53c-.24.32-.73.49-.65,1.05l.42.47v1.28l-.43.46c.08.33-.15.72.22,1.07H39.14c.09,0,.19-.15.28-.23-.25-.25-.52-.5-.75-.77-.08-.09-.06-.26-.12-.56l.73-.58H41a5.51,5.51,0,0,0,2.32,1.72H44l.47.43c.48-.07,1,.16,1.45-.15l-.41-.65a7.91,7.91,0,0,1,1.27-2.16,14.63,14.63,0,0,0-3.17,1.3c-.3-.53-1-.75-1.12-1.36C42.54,264.41,43.17,264.22,42.84,263.71Zm-15,20.23h9.64c.05,0,.1-.09.22-.18l-.87-1,.06-.84.39-.38a21.65,21.65,0,0,1,.07-2.29l.9-.3c-1.39-.33-4.82-.38-10.71-.19l-.66.58.42.47v2.52l-.55.82Zm9.36,2.73s-.11-.12-.16-.12H27.87l-.76.44c-.38.84-.22,1.2.2,1.5,0,.48,0,1,0,1.48a5.49,5.49,0,0,0,.12,1.78h9.44c.12,0,.24-.11.36-.16.07-.5.17-1-.36-1.32.21-.44.79-.6.85-1.09,0-.68-.95-.73-.87-1.42C36.94,287.38,37.53,287.18,37.19,286.67Zm4.67-7.47a10.64,10.64,0,0,1-3.24,1.89l0,.42c.27.43.88.31,1.17.77s1,.44,1.39.8c.42-.05.86.11,1.25-.13.41-.57-.49-.8-.34-1.3l.52-.74-.54-.74C42,279.94,42.19,279.55,41.86,279.2ZM19.47,251.38c-.52.12-.9-.1-1.21.21,0,1.18,0,2.38,0,3.58,0,.05.09.1.15.15h.46l.59-.65Zm3.72,39.06-.61,1.17v1.52l.64,1.25.62-.16c0-1.18,0-2.31,0-3.45,0-.11-.14-.22-.21-.33Z"/><path d="M54.19,52c0-.47-.49-.51-.57-.86H51.83l-.57.43a1.26,1.26,0,0,1-1-.81c0-.62.69-.7.81-1.2-.06,0-.17-.16-.29-.16H25.73l-1-1.26V47l.48-.52a.65.65,0,0,1,.2-.12.81.81,0,0,1,.22,0H51.09c-.17-.74-.73-1.27-.84-1.92.12-.11.17-.21.22-.21h2.18c.24.33.71.33,1,.57a3.25,3.25,0,0,1,.59.73h1.08l.31.84H67l.41.41h6.46l.51.45h.82l.48.44h1.6l1.56.84h2.45a9.16,9.16,0,0,1,2,.72c.47.33,1.21-.12,1.49.6H86l.48.44h2.21l.28.82h2a11.67,11.67,0,0,0,2,.89c.73.18,1.37.78,2.24.36l.76,1h1l.46.42c1.56,0,2.52,1.31,3.87,1.74h.85l.49.44h.85l.83.84.85,0c.47.25.79.81,1.45,1,.48.15.82.76,1.18,1.11.36,0,.75-.06.91.09.5.48,1.33.52,1.63,1.22h1.3c.51.28.7,1,1.4.9a9.43,9.43,0,0,0,1.24,1.21,7.94,7.94,0,0,0,1.46.63c.06.2.11.39.16.59.24.1.5.19.74.31a6.25,6.25,0,0,1,.89.46c.23.16.39.44.62.6s.53.16.73.32c.38.32.72.71,1.08,1.06.62-.08.82.48,1.19.78.17.13.31.43.47.43.74,0,.93.86,1.56,1s.65.52,1,.76.63.17.92.43.17.68.43.92a5,5,0,0,0,1.49,1.11c.5.21.79.88,1.29,1.09a2.58,2.58,0,0,1,1.49,1.59.92.92,0,0,0,1,.63A13.83,13.83,0,0,0,133,76.85c.71.61,1.32,1.34,2,2,.42.39.21,1.18.91,1.37h.45l1.52,1.53c.56.56,1.32,1,1.63,1.71a6.73,6.73,0,0,0,1.29,1.63c.45.51,1.05.91,1.15,1.64l.5,0c.18-.11.22-.24.06-.3-.41-.18-.23-.63-.45-.91-.49-.65-.61-1.51-1.23-2.09s-.64-1.33-1.07-1.94a3.73,3.73,0,0,1-.31-.74l-.61-.16c-.18-.26-.1-.64-.43-.89A4.1,4.1,0,0,1,137,77.41c-.09-.31-.53-.49-.42-.91a3.67,3.67,0,0,1-.73-.32,2.61,2.61,0,0,1-.56-.63c-.11-.16-.1-.41-.22-.55-.34-.38-.71-.72-1.07-1.08.09-.62-.42-.89-.78-1.18s-.43-.87-.76-1.22c-.64-.68-1.32-1.33-2-2-.41-.41-1-.76-1.18-1.25a3.13,3.13,0,0,0-.82-1.18c-.39-.42-.8-.82-1.2-1.22h-.5a4,4,0,0,1-.58-.83,2.81,2.81,0,0,0-1.26-1.33c-.17-.11-.4-.15-.53-.28a10.2,10.2,0,0,0-1.72-1.64,8.3,8.3,0,0,1-1.79-1.42c-.57-.55-1.16-1.09-1.67-1.69a3.46,3.46,0,0,0-1.21-.77,3.25,3.25,0,0,1-1.5-1.07c-.29-.47-.88-.4-1.21-.76l-.76-.82a24.5,24.5,0,0,1-2.34-1.11,13.91,13.91,0,0,0-1.85-1.29h-.87c-.41-.41-.75-1-1.24-1.19-1-.47-1.9-1-2.88-1.41-.31-.13-.64-.45-.9-.4-.71.15-1.07-.8-1.73-.41a4.44,4.44,0,0,0-1.22-.89c-.55-.15-.74-.64-1.16-.9H99.5L99,47.24H97.92l-1.58-.84H95.25L94.72,46H93.9l-.94-.9H91.41l-.86-.42-.66-.39H88l-1.62-.9H85.23l-.49-.44h-2.6l-.2-.23c-.14-.12-.2-.2-.25-.2h-3l-.38-.38c-.71-.16-1.5,0-2.26-.1l-.39-.38h-5.2L70,41.2H66.58l-.57.41c-.67,0-.77-.69-1.25-.85-.31-.1-.51.09-.72.3a1.5,1.5,0,0,1-.85.58c-.28,0-.72.42-.73.67,0,.79-1.09.95-1,1.77l-1,.47-.55-.49-.16-.64c-.5-.25-.71.08-1,.34h-1.3l-.62-1.19.82-.55v-.63c-.21-.22-.21-.22-2-.14l-.33.33H52.68l-.45-.4H50.08l-.45.42H25.79l-1.08-1.08v-.9c.68-.38.87-1.14,1.22-1.78l-.77-.77.41-.46c0-.72,0-1.44,0-2.16,0-.05.1-.1.26-.27l.58,1.17v3c.13.13.17.19.23.22a.49.49,0,0,0,.21,0H57.42s.11-.09.21-.18l-.87-1c.1-.77.81-.91,1-1.33.8-.44,1.23.38,1.85.32.56.75,1.58.92,2.15,1.71h3.11c.2-.47.41-1,.68-1.55s.77-.54,1.18-.76c.33-.54-.41-.69-.38-1.14l.5-1c-.2-.12-.32-.25-.43-.25H27.14l-.49.42h-.89l-1-1.15s0,0,0-.09c0-.41-.1-.85.11-1.25l.59-.15c.05,0,.15-.11.15-.16V25.78l-.83-.87V23.59l.81-.82V18.84l.64-.7c.15.16.25.21.25.26,0,1,0,2,0,3l-.4.44L27.11,23H55.7l.33-.32a2.92,2.92,0,0,1,1.44-.08l.41.41a6.48,6.48,0,0,0,.91-.08c.19-.05.32-.32.5-.35a7.79,7.79,0,0,1,1.08,0c.34.07.45.62,1.07.31l.34-.3h.85l.45.42h9.09l.47-.43c.43,0,.91-.15,1.21.39h4.52l.12-.57L78,21.87V21l.63-.63h.87c.4.25.59.73,1.14.89a4.68,4.68,0,0,1,1.43.75c.35.27,1-.08,1.31.5h6.15a2.5,2.5,0,0,1,1.15-1.59c.53-.4,1.3-.41,1.81-1h1.2l.72-.52.87.5a1.12,1.12,0,0,0,.41-.17c.37-.34.69-.75,1.09-1.05A6.29,6.29,0,0,1,98,18.2l1.13.57.53,1-1.34,1H93.81c-.47,1.1-.47,1.1-2.28,1.89.07.41.4.22.63.28s.51.15,1.2.38h2.53l.62.48h3.42l.4.41h1.27l.5.45h.83l.48.44h.84l.49.45h2.14l.37.37h1.13l1.63.89h1.11c.36.5,1.08.37,1.39.89.59-.11.92.73,1.56.43l1.24.66c.12.06.28.23.34.2.66-.31,1,.51,1.56.45a3.45,3.45,0,0,1,.46,0l.92.88h.92c.27.72,1.1.74,1.62,1.21.16.16.54.08.9.11s.58,1,1.3.84c.43.47,1.1.51,1.58.88a2.88,2.88,0,0,0,1.59.5l.13.64.82.29,1,1.27.16-.19c.29.17.56.46.86.48a1.19,1.19,0,0,1,.86.55,1.12,1.12,0,0,0,.92.38l.14.71c.23.08.59.09.71.27.24.37.67.18.92.44a2.13,2.13,0,0,0,.8.68,1.57,1.57,0,0,1,.71.4c.24.26.5.51.76.76s.61.62.92.92.63.79,1.2.6v.6c.58.33,1.36.45,1.35,1.36l1,1,.7.22c0,.19,0,.33,0,.48A5,5,0,0,0,142.07,47a4.78,4.78,0,0,1,1.25,1.19c.26.54.43.91.61,1.26a2.47,2.47,0,0,0,.31.52,8,8,0,0,0,.92.92,5.88,5.88,0,0,1,1.53,2.4l.59.16a4.86,4.86,0,0,0,1.22,2.09,5,5,0,0,1,1.06,1.73c.22.41.32,1,.65,1.23.7.54.61,1.64,1.53,1.9-.2.86.3,1.41.61,2,.23.41.77.63.75,1.21.47.27.34.73.37,1.15,0,.11.21.21.23.33.13.6.63,1,.68,1.69a3,3,0,0,0,.82,1.59c-.29.7.41,1.14.47,1.77a3.11,3.11,0,0,0,.67,1.44c.25.35.08.69.17,1.06l.42.44v1.73l.82.81v1.21l.44.58v1.2l.45.54V82.5l.45.51v2.13l.44.47v13l-.38.39v1.62l-.5.74,2.84,2.84.39,1.13.53,0c.44.69,1.38,1,1.5,2L165.6,109v.47c.13.13.3.27.45.42.46.46.91.93,1.39,1.37a4.52,4.52,0,0,1,.93,1.35c.28.55,1,.78,1.14,1.48s1,.68.86,1.38c.35.36.67.75,1,1.08s.17.84.61,1,.4.87.76,1.2.72.71.87.87a5.43,5.43,0,0,0,.63,1.32c.86.91,1.08,2.23,2,3.08.17.16.19.49.26.7l.7.15,0,.75L178.6,127v1.11l.87.93c-.05,1.12.7,1.91,1.13,2.8a5.06,5.06,0,0,0,1.5,2.38v.93c.81.34,1.69,0,2.46.21.35.67-.14,1.09-.29,1.59s.06,1-.54,1.2c.49.84.63,1.71,1.38,2.09v1.19c.43.69.63,1.52,1.33,1.86-.09.87-.81,1-1,1.52-.36-.12-.49-.64-.92-.37-.23-.39-.36-.84-.66-1-.45-.33-.38-.88-.73-1.24s-.23-.79-.62-1v-1.27l-.63-.63h-.43l-.63-1.23v-1l-.9-1.57v-.71c-.3-.35-.75-.64-.82-1s-.49-.67-.71-1-.37-.72-.62-1.21v-.77a6.17,6.17,0,0,1-.75-.71c-.16-.2-.17-.52-.33-.72-.31-.37-.26-1-.75-1.21s-.3-.74-.6-1.07-.32-.91-.78-1.18c-.29-.16-.17-.56-.33-.72-.45-.45-.42-1.22-1.05-1.52a2.9,2.9,0,0,0-.92-1.36c-.32-.27-.66-.55-.62-1-.67-1-1-2.12-2-2.88-.28-.23-.28-.74-.61-1s-.8-.54-.88-1.15c0-.35-.53-.64-.83-1v-.45l-.76-.27c-.17-.27-.09-.66-.43-.89a4.2,4.2,0,0,1-1.39-2c-.08-.21-.11-.43-.33-.44-.71-.06-.8-.59-1.06-1.11s-.87-.87-1-1.5l-.39,0-1.14-1.08c.09-.72-.62-.9-.93-1.35s-.63-.78-.79-1c-.85-.15-1,.41-1.3.55v2.66c1.12.9,1.29,2.39,2.15,3.51v.8l.44.47,0,.43.81.81v1.39l.86.59c0,.68-.05,1.21.47,1.52-.08.59.52.93.48,1.56a2,2,0,0,0,.62,1.23c.4.45-.07,1.2.59,1.5l.08,1.34.39.45v.83l.9.94v1.27l.39.4v1.66c.22.31.46.5.44.64-.14.74.69,1.25.45,2a1.49,1.49,0,0,1,.46,1.12c0,.31.26.61.41.91s.28.46.45.75v2.52c.58.3.21,1,.5,1.3.51.51.31,1.07.34,1.61s0,1,0,1.4l.41.41v2.13l.45.5v2.13l.44.48v8.66l.4.39.06.84.47.67-.42.72.34.41v1.69c-.49.38-.4,1.19-1.06,1.53h-.84c-.65-.22-.56-1-1.09-1.45v-2.63l.39-.45v-.79l-.65-.86c-.82.35-1.18,1-1.75,1.44h-1.49v-.82c1.1-1.09,2.06-2.06,3.11-3.11l.35-.17v-2.2l-.4-.4v-2.6l-.46-.46v-3l-.48-.64v-1.21l-.37-.37v-3l-.45-.48v-1.71l-.4-.45.39-.47c-.63-.3-.28-.92-.5-1.34s-.48-.81-.78-1.31v-2.4l-.89-1.53v-1.83l-.89-.6V125c-.3-.29-.7-.51-.77-.81a1.54,1.54,0,0,0-.49-.88V122l-.45-.49v-1.23a4.06,4.06,0,0,1-.41-.54c-.17-.36-.47-.78-.4-1.11.12-.6-.54-.81-.5-1.35,0-.21-.3-.44-.4-.69s0-.67-.16-.78c-.35-.25-.26-.63-.42-.93a10.6,10.6,0,0,1-1.15-2.34c-.07-.26,0-.52-.24-.77a3.74,3.74,0,0,1-.44-.84l-.45.05-.62,1.21v.69l-.41.45v3l.4.4v2.61l.46.45v3l.42.42v14a1.43,1.43,0,0,1-.11.39l-.32.32c0,1,0,2,0,3,0,.05-.08.11-.19.24l-.24.21v3l-.45.48v1.71l-.39.4V150l-.94,1.76v1.1l-.37.37v1.71l-.45.48v.84l-.45.49V158c-.73.32-.1,1.28-.78,1.63.06.58-.54.89-.55,1.52a5.3,5.3,0,0,1-.8,1.74c.05.34-.19.85.16,1.33H152l1.61-1.6c.93-.1,1.24-1.09,2.08-1.48l.67.51h.6v.61l-1.56,1.56H155l-.81.82H152.5l-.54.43-1,.12-.13.62-1.21,1.21c-.17.37.09.81-.28,1.19a4.84,4.84,0,0,0-.64,1.24l-.55,1.16-1,.53-1-1.12a1.13,1.13,0,0,1,.43-1.22c-.18-.5.44-.69.46-.93-.08-.59-.47-.72-.7-1-.41.83-1.34,1-2,1.52a9.75,9.75,0,0,1-2.07,1.11h-.71c-.22-.47-.87-.34-1.13-.67.07-.26.07-.43.15-.51.25-.23.42-.52.85-.58s.63-.5,1.12-.43c.23,0,.49-.2.92-.39H145l.49-.45h.84c.34-.57.46-1.35,1.36-1.35l1.06-1.05V162.4c.62-.83.47-2,1.26-2.63v-1.18l.89-1.57v-1.19l.39-.38v-2.17c.18-.18.36-.28.37-.38,0-.9.77-1.65.51-2.6l.44-.54v-2.09l.45-.51v-.83l.44-.47V142.4l.38-.38v-2.17l.44-.44V120.23c-.66-.28-.15-1.07-.6-1.46l-.63.63v1.27l-.89.94v.85l-.38.38c0,.27-.06.61-.09,1l-.31.31c0,.06-.09.13-.08.18.34,1-.83,1.82-.38,2.82l-.47.56v1.24l-.45.5v.83l-.44.49v1.14l-1.3,2.43c.19.73-.7,1.23-.43,2l-.43.48v.89c-.75.35-.81,1.22-1.31,1.79v1l-1.34,1.33a2.62,2.62,0,0,1-.58,2.1c-.21.41-.76.64-.74,1.21-.46.28-.26.77-.4,1.14a3.31,3.31,0,0,1-.85,1.36c-.4.36-.33.92-.74,1.23a1.91,1.91,0,0,0-.64,1c-.14.44-.86.56-.78,1.2-.74.47-.78,1.5-1.5,2s-.58,1.1-1.06,1.53a7.81,7.81,0,0,0-1.21,1.23c-.22.32-.26.77-.63,1s-.44,1-.91,1.36-.79.84-1.24,1.2c-1.07.85-1.55,2.17-2.58,3.06a37.69,37.69,0,0,0-2.76,2.75,3.67,3.67,0,0,0-.46.88h-.44L126,167.26l-.59.15a1.89,1.89,0,0,1-.77,1.21h-.92l-.26.76c-.76.08-1.12.75-1.64,1.18v1.1l-1.25.6-1.08,1.07a3.62,3.62,0,0,0-1,.19c-.24.13-.42.38-.82.28-.32.34-.64.73-1,1.07a2.21,2.21,0,0,1-1,.73c-.42.11-.76.57-1.07.83-.17,0-.28,0-.31,0-.39-.4-.9-.69-1.12-1.21,0-.62.63-.78.87-1.2l0-.43a6.58,6.58,0,0,1,1.26-.6,1,1,0,0,0,.79-.63c.14-.71.73-1,1.14-1.53h1.18l1.58-1.63.79-.18c.49-1.08.49-1.08,2.24-1.81.09-.25.18-.5.26-.74h.49l1.87-1.9.13-.59.77-.21c.25-.26.65-.67,1-1.11s.86-.58.77-1.19c.52-.34.73-1,1.51-1.12.45-.06.66-.66.76-1.15l.66-.18.14-.64c.65-.26.69-1.09,1.18-1.59L134,155.4v-.48l.8-.27.12-.59,1.44-1.45c.69-1.19.92-2.28,1.75-3.05.22-.2.57-.4.59-.62,0-.66.74-.88.89-1.37s.44-.6.45-.89c0-.62.56-.79.85-1.21l.12-1,.69-.14c.07-.35,0-.87.25-1.11s.19-.81.57-1.09,0-.81.19-1c.39-.29.28-.79.59-1.07l.42,0c.06,0,.16-.09.16-.13-.07-.78.68-1.36.51-2.29l.88-.55v-1.13l.45-.48v-1.29c1-.75,1.12-2,1.82-2.83-.36-.53-.65-.49-1-.19v.45c-.4.4-1,.74-1.18,1.23s-.76.87-.91,1.35a2.56,2.56,0,0,1-.67,1c-2.14,2.15-4.31,4.27-6.42,6.45-.5.52-1.26.58-1.69,1.2a14.72,14.72,0,0,1-1.39,1.51l-.62,0-.19.64a4.29,4.29,0,0,0-.79.41c-.39.32-.67.9-1.09,1a3,3,0,0,0-1,.66c-.44.33-1,.42-1.36.92a11,11,0,0,1-1.07,1.09h-.88c-.5.79-1.56.9-2.1,1.68a2.71,2.71,0,0,0-1,.17c-.87.52-1.84.84-2.67,1.39-.42.28-.81.13-1.2.28-.53.77-1.58.91-2.1,1.69h-.87l-.48.44h-1.71l-.78.78c-.35.24-.83-.11-1.19.29a3,3,0,0,1-.88.47,5.32,5.32,0,0,0-.88.48c-.34.27-.82-.05-1,.16-.39.46-1,.39-1.4.85H107.8l-.5.38c-.73.28-1.66-.3-2.39.29-.46.37-1.21-.1-1.49.62h-2.6l-.47.44h-3l-.4.4c-.82.11-1.75,0-2.66.06-.1.11-.21.21-.41.41H79.61c.56.73,1.13.2,1.67.33l.67.94.63,0,1.6,1.67,1.08.12c.29.34,0,.71.18,1.08l-.71.23-.28-.8c-.26-.29-.65-.06-1-.13l-.47.42a3.86,3.86,0,0,0-1.89-.84l-1.63-1.64.23-.3c-.22-.55-.74-.07-1.07-.29l-.77-.76a4.19,4.19,0,0,1-3.09-.93h-3l-.23-.25c-.12-.09-.17-.18-.23-.18H69.13c-.4-.77-1.42-.15-1.82-.87H65.18c-.15-.66-.74-1.1-.58-1.82.19-.53.75-.77,1.06-1.23l.42.42h1.78a.87.87,0,0,0,1,.46c.34-.05.48.28.72.36s.67.16.87.5h1.32l.45-.42.4.39c.82.11,1.75,0,2.66.07l.36.35h2.51l.63.49h2.55l.4.41h7.38l.45-.4h3.87l.48-.45h3.46l.31-.31s.11-.11.16-.12h3.42c.14-.14.24-.33.34-.33.91,0,1.65-.82,2.61-.5l.53-.45h.8l.5-.45h2.39c.69-.34,1.23-.81,1.78-.82s1-.69,1.55-.48,1-.42,1.55-.44h.59l.64-.86h1.27l5.14-2.6h.64a10.68,10.68,0,0,1,1.47-1.27c.22-.14.51-.4.69-.39.68.06,1.15-.44,2-.59l1-1.22h.71c.65-.67,1.26-1.27,1.76-1.79.77.16,1-.3,1.28-.57a7.38,7.38,0,0,1,.81-.67,12.78,12.78,0,0,1,1.29-.56c.66-.51,1.2-1.51,2.27-1.83.27-.4.8-.57.89-1.15a1,1,0,0,1,.86-.8c.07,0,.18,0,.21,0,.38-.44.32-1.27,1.17-1.29.52-.48,1.05-1,1.57-1.44s.92-.92,1.37-1.38v-.48l.79-.27.12-.59a7.18,7.18,0,0,0,1.42-1.78c.27-.61,1.13-1,1.43-1.58a5.91,5.91,0,0,1,1-1.33c-.13-.77.88-.89.91-1.57s.94-.69.86-1.38l1.31-1.48c0-.34-.09-.74.27-1.13s.26-.76.59-1c-.11-.53.22-.91.4-1.35a3.47,3.47,0,0,0,0-1.29v-2.43l.41-.51v-1.18l.55-.76-.55-.75c-.13-.35.28-.52.45-.78v-.85l-.4-.47.37-.37v-7.36l-.81-1.46v-1.14c-.51-.34-.39-1.06-.88-1.39.09-.82-.48-1.38-.76-2.07s-.78-1-.57-1.73c0-.11-.24-.32-.4-.51v-.82a2.85,2.85,0,0,1-1.75-1.63c-.19-.58-1-.82-1-1.54,0-.16-.26-.37-.44-.45a5.48,5.48,0,0,1-2.09-1.24c-.56-.64-1.46-.81-2-1.52-.37-.49-1-.63-1.84-1-.16-.16-.52-.52-.84-.91s-.84-.17-1.05-.61-.86-.4-1.21-.76a1.67,1.67,0,0,0-1-.66c-.43-.05-.58-.73-1.16-.85-.36-.08-.65-.51-1-.79-.57.21-.74-.7-1.45-.37l-1.17-1.42-.52.08c-.34.46,0,1-.18,1.4.3.43.7.19,1.26.37l.52.47-.69.79a1.66,1.66,0,0,1-.57-.24c-.53-.49-1-1-1.54-1.52-.83.15-1-1.08-1.79-.92l-1-1.05c-.17-.48.28-.64.4-.9V79l-.79-.21a8,8,0,0,0-1-1.1c-.36-.27-1-.26-1.26-.57-1.08-1.12-2.73-1.26-3.82-2.34a4.3,4.3,0,0,0-1.23-.67c-.43-.2-1-.27-1.25-.6-.55-.69-1.61-.66-1.94-1.54-.8.16-1.36-.34-2-.61a3.25,3.25,0,0,1-1.64-1.15h-.7c-.44-.14-.64-.55-1-.82l-1-.12-.13-.63c-.38-.41-1.19.14-1.46-.6-.58.24-.75-.68-1.33-.46a4.38,4.38,0,0,0-1.39-.8,5.81,5.81,0,0,1-1.33-.46c-.5-.19-.92-.69-1.56-.47-.06,0-.2-.18-.31-.26A6.54,6.54,0,0,1,99,65c-.22-.2-.72.15-1-.21s-.81-.13-1.18-.3l-.77-.77c-.43-.19-1.08.27-1.25-.47H93.07c-.3-.12-.37-.48-.74-.45s-.61-.6-1.12-.43-.59-.33-.9-.42-.73.13-1-.22-.49-.23-.77-.22a1.41,1.41,0,0,1-1.17-.37c-.19-.19-.66-.1-1-.19-.12,0-.21-.19-.32-.3h-.84l-.48-.45h-.85l-.49-.45H80.83l-.42-.41a5,5,0,0,0-.94,0c-.44.07-.57-.4-.91-.44s-.72,0-1.13,0l-.49-.41h-2.1l-.5-.45h-3l-.48-.44H67l-.39-.39H64.85l-.43-.43H58l-.51-.4-.73.42-.68-.49h-3.4l-.47.43h-.85l-.6.6-.14.68-.77-.47-.72.47h-.76l-.93.89c-.45-.17-.6.3-.85.4H45.27c-.4-.46,0-1-.23-1.42l.9-1c-.15-.07-.26-.18-.38-.19-4.82-.12-17.1,0-19.06.12a8.63,8.63,0,0,1-.14,1c0,.07-.23.11-.35.16l-.17-.4H24.48c-.38.12-.49.78-1.05.83s-.69.64-1.06.8l-1.13-.58v-.89l.65-.6,1.38-.07.14-.45c0-.06,0-.15,0-.19L22,55l-.58.07c-.05,0-.15.1-.15.15,0,.43,0,.86,0,1.29-.5.26-.43.84-.74,1.22s-1,.22-1.22.76H17.57A4.52,4.52,0,0,1,16,56.56V54.4l.44-.47v-.32L18,52H19.3l.63.63v.42c.43.37.72.88,1.21,1.12.18-.06.39-.06.43-.14.38-.78.73-1.57,1.1-2.39a1.22,1.22,0,0,1,1,0c.24.09.39.33.7.41s.54.4.79.6c0,.88-.65,1-1.27,1.25v.56c.49.3,1,.11,1.53.16l.26-.75c.4-.34.64,0,.94.27H45.35c.46-.44,0-.71-.25-1,0-.34-.14-.7.14-1.06h2.19l1,1.25h1.16l.9.86h.87l1.55-1.55L54.19,52a5.54,5.54,0,0,0,.12,1.74h1.63l1,.48.53-.48.47.42h3l.5.45h6.76l1.64.89H74l.37.37h3.44l.94.9h2.57l.5.44H83l.54.45h1.24c.13.14.22.3.34.33a9.3,9.3,0,0,0,1,.13l.8.8c.5,0,1,0,1.51,0a1,1,0,0,1,.37.14l.33.3h1.14l1.57.87c.7-.27,1.28.31,2,.39a2.26,2.26,0,0,1,.92.41c.33.21.85-.13,1.17.33.2.3.72,0,.88.46.61.09,1,.72,1.72.56.42.43,1.07.3,1.5.56a6.82,6.82,0,0,1,1.42.74h.67l.47.44h.81c.82.68,2,.73,2.54,1.66.4.07.87,0,1,.21s.73.15.91.44.69.15.91.45.55.18.72.33.65.28.89.47.69.23.89.45.66.23.91.44.49.53.71.76h.94c.21.32.55.36.87.49a2.12,2.12,0,0,1,.77.75c.27.37.71.4,1.05.62a4,4,0,0,1,.69.74H118a11.16,11.16,0,0,1,2.08,1.11,9.63,9.63,0,0,0,2.11,1.2l.14.53c.87.44,1.72.84,2.54,1.29.41.23.92.3,1.21.76s.88.31,1.22.75a1.84,1.84,0,0,0,1.14.89c.35.07.64.53.95.81.58-.23.75.7,1.33.46.56.65,1.49.64,2.11,1.21.39.37.61,1,1.33,1l1.4,1.35.61-.23-3.26-3.26-.6,0c.11-.59-.36-.93-.75-1.31a5,5,0,0,0-.78-.75c-.28-.17-.62-.2-.89-.46a13.58,13.58,0,0,0-2.39-2.06,13.72,13.72,0,0,1-2.33-2.25c-.15-.15-.29-.42-.46-.44a1.92,1.92,0,0,1-1.33-1c-.32-.44-.89-.36-1.23-.75s-.81-.82-1.21-1.23-.7-.73-1-1.07h-.86c-.52-.45-1-.9-1.49-1.28a10.06,10.06,0,0,0-1.46-.66,5,5,0,0,0-1.22-1.24c-.7-.38-1.18-1-1.81-1.39a2.46,2.46,0,0,0-2-.6l-.61-.87-1,0c-.39-.76-1.37-.75-1.78-1.43s-1.12-.57-1.52-1.06c-.79.1-1.38-.66-2.34-.48l-1.06-1.35h-1.22a9.09,9.09,0,0,1-1.14-.48c-.35-.23-.54-.66-1-.8s-.87.09-1.27-.11c-.1-.11-.2-.21-.32-.32h-.93a9.47,9.47,0,0,0-.7-.75c-.25-.22-.61-.25-.91-.43s-1-.18-1.51-.53c-.29-.19-.82,0-1.28,0-.21-.67-.72-.36-1.15-.44l-.47-.42H89.63l-1.56-.9H86.6L85,52H83.84l-.36-.35-1.37-.08-.39-.39H79.56l-.48-.44H76.52l-.5-.45H74.76l-.41-.4H71.8l-.62-.49h-6L64.82,49H57.53c-.51.18-.66.72-1.2.88a4.51,4.51,0,0,0-1.16.83c-.33.07-.72-.16-1.07.38l1.3.84Zm98.43,47.34c.23.46.32,1,.61,1.13.6.32.4,1.2,1.1,1.37.29.6.59,1.18.86,1.79a1.33,1.33,0,0,0,.83.79V102c-.46-.36-.37-1.17-.92-1.32-.87-.25-1.26-1.06-1.94-1.47ZM98.19,34.67h2.17A4.87,4.87,0,0,1,102,35.89s.12,0,.28.12h1.15c.3.65,1,.22,1.39.52l.72.74h1l.69.9c.92-.21,1.47.66,2.22.42l.79.79c.38.07.85,0,1,.21s.82.18,1.09.58a1.4,1.4,0,0,0,.83.6c.37.1.66.49,1,.8.38.07.93-.1,1.28.52h1l.17.67c.65.18,1.16.77,1.92.62,0,0,.1.09.15.14l0,.57a1.37,1.37,0,0,1,1.15.64c.25.41.79.24,1.06.6a8.22,8.22,0,0,0,.7.8l1.5.68a1.08,1.08,0,0,1,.34.21c.72.71,1.45,1.42,2.15,2.15s1.64,1,2.29,1.81c.84,1,1.82,1.86,2.74,2.78s1.89,2,2.92,2.89,1.36,2.17,2.43,2.85l.13.63.78.27v.54c.39.37.81.76,1.22,1.17a2.87,2.87,0,0,1,.51.65c.22.41.34.88.57,1.28s.84.59.76,1.2c.71.5.86,1.44,1.53,2a3.78,3.78,0,0,1,1,1.74c.15.37.5.61.55,1.08s.54.61.71.77c.08.48,0,.81.17,1,.78,1.18,1.22,2.53,2,3.74a3.39,3.39,0,0,1,.61,1.88l.79.79v.86l.45.48v.74c.29.5.54.9.77,1.31s0,.94.43,1.36c.29.26-.07,1,.51,1.3v1.2l.89,1.53v1.65c.74.32.11,1.28.77,1.63l.14,1.4.43.55v2.24l.51,1.22L153,96v.53a6.3,6.3,0,0,0,.81.6c.41.23.85.39,1.28.59s.4.86.76,1.19l.49.44.56-.21V85.62l-.44-.48v-1.7l-.45-.5V79.52l-.4-.41V76.94l-.84-.84-.08-1.37-.39-.39V72.71l-.89-1.56V70a3.72,3.72,0,0,1-.4-.55c-.17-.37-.3-.75-.45-1.12s-.56-.48-.42-.9-.38-.71-.46-1.12a4.11,4.11,0,0,0-.41-.91,3.48,3.48,0,0,1-.42-.9,5.67,5.67,0,0,0-1.32-2.7c-.37-.44-.35-1.07-.87-1.39a3.81,3.81,0,0,0-1.27-2.12l-.06-.92-.83-.83v-.43a10.79,10.79,0,0,0-1.08-1.06c-.47-.36-.61-.91-.92-1.36s-.89-.68-1-1.1a2.16,2.16,0,0,0-.69-1c-.34-.38-.71-.72-1-1.05l-.12-.59-.79-.27v-.37l-2.07-2.08-.36,0a2.37,2.37,0,0,0-.17-.36c-.34-.58-.42-1.46-1.07-1.68a3.3,3.3,0,0,1-1.18-.83c-.62-.59-1.23-1.22-1.84-1.83-.61.08-.89-.41-1.18-.78s-1-.48-1.38-.9a6.94,6.94,0,0,0-1.7-1.64c-.73-.38-1.3-1-2-1.31a9.54,9.54,0,0,1-1.19-.76c-.4-.28-.91-.28-1.25-.72a2.29,2.29,0,0,0-1.18-.75,3,3,0,0,1-1.36-1h-.83a4.2,4.2,0,0,0-2.78-1.38c-.31-.76-1.17-.82-1.79-1.23h-1.09a1.26,1.26,0,0,0-.89-.48c-.21,0-.41-.37-.62-.58l-.72-.72H112.5L112,29.9h-1.27L110,29h-1.85l-.49-.45h-.82l-.52-.45c-1,.4-1.82-.74-2.8-.38L102,26.86a12.18,12.18,0,0,1-1.68-.05l-.35-.38H96L95.55,26H93.84l-.32-.32a1.79,1.79,0,0,0-.4-.09H83.88c-.2.21-.35.37-.51.51s-.31.26-.41.34l-.9.06c-.37,1.7-2,1.76-3.11,2.6h-1.2l-1.23,1.26-.63-.62c0-.34-.13-.69.11-1l1-.12c.22-.35.2-.82.6-1.06-.11-.44.25-.63.47-.89s.65-.48.75-.92c-2.67-.21-29.71-.26-52.22-.11-.11.32-.57.4-.6.87-.05.31.42.43.41.64,0,.42.24.62.45.89l-.37.36v1.82l1.19.61H66.54s.1-.1.27-.28l-1-.66c.64-.53.55-1.33,1.22-1.64h.93c.23.69,1,.85,1.59,1.14a5.38,5.38,0,0,1,1.33,1H73.1l.81-.81H75l1.23,1.33h2.49l.42.43h6.07l.46.45h2.17l.38.39h1.72l.48.44h.83l.51.45h2.09l.57.47c.88-.49,1.53.55,2.4.37C97.17,34.25,97.89,34.13,98.19,34.67ZM92.55,42.9h1.3l.48.45h1.18l1.3.78c.37.22.82-.08,1.2.29a4.9,4.9,0,0,0,1.22.65h.67l.47.44h.9c.37.73,1.21.83,1.86,1.34h1.19c.55.82,1.62.91,2.09,1.62.39.17.8-.1,1.07.26s.82.18,1,.61.69.42,1,.63c.58.35,1.28.56,1.64,1.19h.88a3.36,3.36,0,0,0,1.52,1.09,4.46,4.46,0,0,1,1.37.9,8.47,8.47,0,0,0,1.61.76l0,.48c.28.15.59.27.86.45s.5.66,1,.67c.28,0,.47.54.9.39L121.54,58l.6.12.27.79h.49a15.22,15.22,0,0,0,2.4,2,13.29,13.29,0,0,1,2.15,2l0,.57.9.29a2.32,2.32,0,0,1,.59.74,7.27,7.27,0,0,0,1.86,2.26c.34.37.71.72,1.07,1.07s.84.8,1.22,1.24.72.59.89,1.15.72.85,1.11,1.27.72.71,1.07,1.07c.14.15.36.34.36.49,0,.7.83.76.89,1.38s.72.84,1,1.29c.21.29.6.52.65.81.09.6.78.74.84,1.17a1.67,1.67,0,0,0,.66,1c.36.35.32.89.74,1.23s.48.83.8,1.17c.49.5.71,1.17,1.17,1.71a14.17,14.17,0,0,1,1,1.94c.1.17.16.37.25.54s.29.61.47.9.48.44.61.83c.26.82.93,1.5.91,2.43l.78.78v.84a6,6,0,0,0,1.22,1.14c.17,0,.35,0,.42-.14.4-.5-.23-.71-.37-1.23V90l-.39-.52V88.27c-.14-.23-.3-.45-.43-.69s-.31-.59-.44-.85v-.68l-.45-.49V84.31l-.44-.52V82.61c-.3-.49-.58-.88-.79-1.31a1.17,1.17,0,0,1,0-.62c.05-.46-.63-.62-.44-1.12s-.3-.77-.47-1.11a7,7,0,0,0-1.67-2.78c.17-.75-.38-1.29-.62-1.91s-.84-1.25-.75-2.07c-.41-.41-.82-.81-1.23-1.23,0,0,0-.13,0-.2V69.6a24.86,24.86,0,0,1-1.72-2.32c-.29-.33-.3-.91-.57-1.27A9,9,0,0,0,137,64.87v-1l-.79-.27-.12-1-2-2c-.61-.61-1.19-1.27-1.85-1.82s-.95-1.54-1.67-2.15a15.46,15.46,0,0,1-2.13-2.15c-.64-.8-1.62-1.1-2.3-1.82S124.7,51.21,124,50.5c-.21-.21-.4-.57-.62-.59-.67-.06-1-.56-1.34-1s-1.18-.44-1.52-1.06-1.34-.71-1.83-1.36c-.22-.28-.77-.25-1-.59-.79.06-1-1-1.77-1-.26,0-.51-.47-.77-.73h-.87A9.28,9.28,0,0,0,113,43c-.43-.3-1-.38-1.46-.65-1.15-.7-2.45-1.11-3.56-1.86-.42-.27-.84,0-1.2-.27l-.84-.85h-1.3l-.38-.38h-1.44l-.57-.73c-.85-.29-1.52.08-2.06-.3l-.15-.71H98.68l-.57-.43H97L95.47,36H93.86l-.48-.44H91.8l-1.54-.85H87.45c-.37-.55-1-.36-1.51-.55-.06,0-.1-.1-.15-.15l-.17-.17H79.57s-.11-.08-.26-.21l-.19-.22h-3.9L74.77,33h-.85l-.53.45H72.21c-.61.48-1.35.65-1.75,1.25-.92,0-1,.84-1.37,1.34a22.56,22.56,0,0,1-1.68,1.71H67c-.19.25-.55.37-.58.87h8.22l1.67.91h4.6l.38.39h2.13s.11.08.16.12l.31.31h1.3c.24.51.87.37,1.22.75s1-.14,1.31.47l1.86.14.41.4h1.73ZM153,105.46l.86,1.48V109c.25.18.37.54.74.57.44-.49-.15-.71-.27-1.08l.74-.27c.33-.5-.24-.7-.38-1.18v-1c-.32-.42-.69-.71-.8-1.08a1.49,1.49,0,0,0-.74-.87C152.86,104.54,153.09,105,153,105.46ZM19.49,54.37c-.34-.28-.54-.73-1.07-.63L17.77,55v1.08c.47.24.21,1,.82,1.16l.49-.21V55.7l.41-.45Z"/><path d="M41.61,89.29c.13,0,.33.07.36.16.22.64.61,1.19.94,2,0,.38,0,1,0,1.61.27,0,.42.13.53.09a3.79,3.79,0,0,0,.55-.37l.44.37h2.15l.45-.42h5.2l.28.3a2.32,2.32,0,0,0,.4.13c.93,0,1.87,0,2.78,0l.38-.38h4.45l.33.34h5.72l.36-.36h2.19a3.16,3.16,0,0,0,.41.36,1.2,1.2,0,0,0,.44,0l.47-.43h.85l.31.29a1.28,1.28,0,0,0,.37.14c.5,0,1,0,1.5,0l.39-.39.47.35H77.8l.44-.35H80l.37.37H81.7l.45-.4h3l.46.42h3.45l.54-.5.91.45h3.8l.33-.32.69.39.88-.49.91.53.74-.55.89.44h1.1l.74-.44.82.57.72-.5h1.22c.55.34.76.94,1.09,1.82v1l-.41.45v.84c-.26.39-.66.16-1,.25-.66-.22-.67-.87-1-1.27H41.76a1.65,1.65,0,0,0-.11.2l1.24,1.25v2.62l-.57.61H40.91l-.4-.94c-.35-.6-.07-1.24-.22-1.79.29-.39.7-.57.82-1a2.23,2.23,0,0,0-1.24-.1C38.7,97.09,38.05,98,37,98.3a10.65,10.65,0,0,1-.95-.92c-.26-.72.84-.91.18-1.55H26.17c-.3.41-.1.85-.16,1.26H23.92l-.71.9c-.86,0-1.05-1.08-1.86-1a6.45,6.45,0,0,1-.52-1.29,1.49,1.49,0,0,0-.38-.94.59.59,0,0,1,0-.55c.45-.32.25-.78.35-1.17s.54-.48.43-.91c0,0,.08-.11.13-.16l.58-.15c.21-.5.3-1.1,1-1.23.13,0,.32,0,.38.13.4.63,1.18.7,1.69,1.16.07.06.27,0,.44,0,.31-.52.08-1.11.13-1.66s0-1.13,0-1.68c.46,0,.53.33.76.45a3.66,3.66,0,0,1,.11,1.47c0,.43,0,.86,0,1.23l-.4.49.49.49s.1.12.16.12H36.2c.43-.38-.23-.39-.21-.43V91.25l.88-.93L36,90V88.61l.35-.44c-.1-.09-.15-.17-.2-.17-.29,0-.58,0-.87,0H25.79l-1.08-1.08V85.55l.73-.24.29-.8.5.44h6l.69.54.71-.55h2.56c.06-.06.17-.14.16-.16-.26-.46-.52-.92-.79-1.38l1.05-1.05h.62c.24.59.86.58,1.28.86s1.08.54,1.75.87H41l.38-.8.65-.19a12.93,12.93,0,0,0,0-1.87l-.54-.49c-.86-.48-1.17.39-1.75.33,0,0-.12,0-.17.1a.62.62,0,0,0-.11.17c0,.14,0,.28,0,.4l-1.19.62h-1c0-.55-.65-.7-.84-1.15-.08-.64.56-.78.83-1.19-.08-.08-.16-.25-.24-.25H27.27l-1.35.7.85,1.73-.31.4,0,1-.61.58c-.41-.53-.16-1-.24-1.54l-.42-.46.31-.31c.22-.4.07-.83.11-1.18a3.66,3.66,0,0,0-.51-1.14,1.47,1.47,0,0,1-.32-1.36l.83-.6V76.08l-.49-.53.47-1,.06-1.13.44-.12L27,74l-.54.82V76l-.46.5.7.61h8.94c.36.15.51.62,1,.42l.61-.7-.87-.58V75.16c.57-.34,1.23-.1,1.72-.17,1.24.61,2.38,1.18,3.53,1.72a1.47,1.47,0,0,0,.59,0l.39.39h4.69l.62.49h13l.4.4h3.43l.5.44h8.63l.49.45h4.18l1.53.82h3.24l.57.44h5.54l.53.45h.81l.49.45h2.57l.32.3s.1.13.16.13h2.58l.4.39H99l.43.43h2l1.62.89h1.57l.49.45h1.29c.51-1,.51-1,1.51-1.5v-1c-.56-.28-1.21-.07-1.88-.15l-.5-.39h-1.14l-1.57-.9h-1.17l-.48-.44h-2l-1.54-.82H96.21l-1.6-.89h-2l-.48-.45H90.52L89,76.31H87.38L87,75.93c-1.09-.3-2.3.29-3.32-.34-.49-.29-1.21.12-1.49-.59h-2.6l-.48-.45h-.85l-.48-.45H73.46l-.37-.37h-5l-1.64-.89h-5l-.48-.43-.67.5-.71-.54H58.31l-.57-.5-.82.47H52.63L52.24,72h-6c-.06,0-.12.07-.19.12,0,.89-.73,1.64-.47,2.73l-1.42,1-.52,0L43,75.35a3.71,3.71,0,0,1-.1-1.66l.94-.65-.29-.67c-1.24.22-2,1.25-3.32,1.73H38.45l-.75-.67.11-.53.68-.15.08-.63c-.16-.1-.21-.17-.27-.17H26.69l-.53.44a1,1,0,0,1-1-.92,3.84,3.84,0,0,0-.46-.76L25.55,69V65.3l-.84-1.47v-.77l.85-.85v-4l.45-.18.45,1c-.1-.3,0-.18,0-.05,0,.94,0,1.87,0,2.78.31.37.7.15,1.06.22l.45.42L28.4,62h4.33l.32.31a1.43,1.43,0,0,0,.39.11h5.33l.61-.51.86.51c.29,0,.79,0,1.29,0a3.24,3.24,0,0,0,.4-.09c.26-.32,0-.68.12-1l-.41-.47V59.56c.48-.38,1,0,1.45-.23l.84.88.94.06c.43.07.51.9,1.22.87.22,0,.44.3.69.39a2.41,2.41,0,0,0,.72,0l.58-.72V60l1.34-1,.72,0,.58.73c.09.64-.61.74-.82,1.46v.72c.42.3.69.12,1-.24h2.73L54,62h3.9l.41.41h6.46l.51.44H70l.35.33c.43.27,1,.06,1.43.12l.38.39c1.13.12,2.34,0,3.54.07l.36.36h2.81c.58.2.86.86,1.42.4l.59.49h2.64l.7.89h1.86l.33.33c.53.24,1.11,0,1.78.16a5.64,5.64,0,0,0,.8.37c.33.1.47.54.9.45a.81.81,0,0,1,.92.4h1.63l1.55.89h1c.07,0,.15,0,.21,0l1.29.8H98c.66.5,1.49.62,1.87,1.34h.89l.49.45h1.25c.18.16.4.44.5.4.72-.26,1.13.48,1.78.48s.94.48,1.45.66c.13.05.26.2.36.17.56-.17.88.46,1.33.42.71-.06,1.12.47,1.7.65a3.15,3.15,0,0,1,1.51,1.06c.46.1,1-.08,1.33.46.57-.21.75.69,1.33.46s.75.67,1.32.46c.31.55.9.29,1.32.48s.8.67,1.21.7.76.68,1.33.52l.46-.42H121a8.08,8.08,0,0,1,1.19.62,7.22,7.22,0,0,1,1.07,1.07,2.26,2.26,0,0,0,1.07.61c0,.39-.45.46-.62.83l-1-.49H121.3l-.57-.44h-1.21l-.53-.45h-.85l-.45.41H116l-.64.71a2.84,2.84,0,0,1-1.35.16c-.43,0-.87,0-1.3,0-.51.33-1.15.45-1.56.95s-.79.84-1.16,1.23h-.54l-.26.77-1.11.92-.91.11-.08,1-.61.61h-.86l-.48-.44h-1.26l-.48-.42h-1.18l-.52-.39h-1.18l-.61-.5h-3l-.4-.4H93l-.48-.44h-1.3l-.41-.42c-1-.06-2,0-3.08,0l-.38-.39h-3.9L83,82.35H81.71l-.4-.4H76.66l-1.56-.9H68.27l-.3-.31c-.06,0-.11-.11-.17-.11H59.61l-.42-.41h-3.9l-.42-.42H44.48c-.27.21-.65.39-.71.89s-.43.64-.46,1.12-.48,1.1-.5,1.73c0,.11-.23.19-.29.31a1.57,1.57,0,0,0,0,.46,7.75,7.75,0,0,1,.86.44c.29.19.45.54.89.71l.69-.49H57l.47.43H68.71l.32.31s.11.12.16.12h8.62l.39.39H82l.55.44h1.36l.37-.37H86l.45.4h3.87l.48.45h4.74l.46.41c.48.18.61-.33,1.06-.45l.94.55c.22.08,1-.4,1.42.33h4.33a2.88,2.88,0,0,1,.91-1.27h.87c.42.44.12,1,.21,1.46-.13.15-.41.33-.39.46.09.5-.5.67-.48,1.11v.21L103.83,91H103l-.54-.49-.81.38-1.5-.78H96.87l-.4-.39H89.12l-.48-.45h-3L85.33,89c-.07-.06-.13-.14-.18-.14h-6.9l-.33-.33c-.6-.3-1.06,0-1.52.33-.54,0-.91-.74-1.62-.41l-.44.39h-.85L73,88.42h-.84L71.7,88H47.89l-.37-.37H43.18l-1.38.74L41.37,88c-.55-.32-.7.75-1.28.45a5.33,5.33,0,0,1-2.38,1.43l0,.54a1.35,1.35,0,0,0,.36.18,4.68,4.68,0,0,0,.65,0c.45.37.34,1.25,1,1.31s.68-.44,1-.64v-.88l.88-.42ZM59.61,65l-.47-.44H50.07l-.51-.46c-.43.18-.88.34-1.29.55a3.71,3.71,0,0,0-.6.46v1.62a7.17,7.17,0,0,1-.49,1.14c-.22.35-.66.54-.81,1l.06.87H61.35c.35.79,1.28.17,1.68.81.09.15.54.08.82.09h5.29l.47.46h4.33l.46.46h1.74l.37.38h3l.48.45h1.69l.51.44h2.55l.41.41h2l1.73.91h1.53l.39.39h.85l.48.44h1.7l.5.45H96l.53.45c1-.3,1.7.5,2.6.5.1,0,.21.19.32.31h2.14l.49.45h.84l.48.44h.73l1.58.9h1.6l.37.37,1.43.06c.36.72,1.15.79,1.66,1.26.08.07.28,0,.39,0l.48-.44c.85,0,.85,0,1-.19l0-.43a2.44,2.44,0,0,0,1.3-1,2.55,2.55,0,0,1-.59-.14,3.24,3.24,0,0,1-.51-.42h-1.28a1.71,1.71,0,0,0-.87-.49c-.36-.12-.61-.56-.9-.85h-1.13L106.28,75H105l-.67-.89h-.91l-.53-.45h-1.25c-.28-.29-.5-.66-.81-.77a1.52,1.52,0,0,1-.87-.49h-.86l-.49-.45h-1.7l-.49-.44H94.76l-.37-.76c-.76-.19-1.41.16-1.81-.51h-2a12.5,12.5,0,0,1-1.3-.75c-.28-.21-.58,0-.82-.14-.55-.25-1.07-.55-1.73-.89h-2l-.34-.34a1.84,1.84,0,0,1-1.32-.46c-.77-.11-1.56.06-2.26-.09l-.37-.37a21,21,0,0,1-2.27-.07l-.34-.38h-3l-.49-.44H72.6l-.4-.4H69.6l-.46-.46H64.8L64.35,65H62l-1-.48-.54.5ZM45.52,67.39v-.85L46,66l-.58-.18-.85.89h-1l-.45.42h-.87l-.63-.63v-.87l.85-.89c-.08-.07-.13-.17-.18-.17-.93,0-1.86,0-2.8,0a1.47,1.47,0,0,0-.38.11L38.8,65l-.45-.42H36.63l-.45.41h-1.3l-.37-.37h-6.6l-.3.3-1.17.22v2.67l-.37.4.58,1.13H38.3c.06,0,.12-.07.22-.13l-.89-1.75L39,66.74l3.84,1.93.23.66c.79,0,1.51,0,2.23,0,0,0,.1-.1.17-.17l-.4-.47v-.85ZM23.81,92.72c-.52.11-.89-.1-1.22.2,0,1,0,2.09,0,3.14,0,0,.09.1.15.16h.47l.59-.67Z"/><path d="M210.69,173.19l-1.23-.73c0-.45.4-.56.6-.81a7.34,7.34,0,0,1,.62-.63V133.93l-1.45-1.14.86-.2.57-.61V95.6c-.24-.49-.78-.66-1.27-.89v-.43a1.87,1.87,0,0,1,1.25-.78V56l-.71-.16-.14-.7.71-.15c.05-.09.18-.21.18-.33q0-14.83,0-29.69V17.61l-1.35-.89,1.31-1.3V1.89c-.1-.08-.15-.17-.2-.17H197l-.32.32c-.41.21-.84.07-1.32.12l-.53-.4H158.32l-.13.66a2.37,2.37,0,0,1-1.61.09l-.13-.61c-.1-.06-.22-.17-.34-.17H119.92a5.11,5.11,0,0,0-.59.06l-.27.8h-.51l-.71-.74a1.6,1.6,0,0,0-.42-.12H80.33l-.19.7-.6.27-.63-.95H42.71l-.89.84H40.9l-.26-.75c-.06,0-.11-.11-.17-.11H27.09l-.5.5a1.12,1.12,0,0,0-.14.37q0,6.18,0,12.35c.39.29.56.9,1.25.6v1.64a2.4,2.4,0,0,0-.73.31.77.77,0,0,1-.77.24s-.13-.09-.13-.14c0-.86,0-1.72,0-2.56l-.47-.53V2.12L26.63,0H211.38l1,1.31V187.88c-.2.65-1,.55-1.45,1.08H165.78l-.34-.34H163.6l-.37.37-.46-.42h-.85l-.45.42h-1.3l-.37-.37H158l-.34.34h-4.88c-.16,0-.28-.55-.77-.38l-.46.41H121.18l-.45-.42-.31.31a1.27,1.27,0,0,1-.38.11H116l-.58-.51-.84.47H87.31l-.37-.37H85.63l-.45.4H73.93l-.31-.28a1.78,1.78,0,0,0-.36-.14H71.74l-.31.31c-2.57.2-34,.27-44.8.09l-.62-.62v-.41l-.43-.47v-13l.32-.32a1.54,1.54,0,0,0,.07-1l-.4-.47c0-.6.76-.95.39-1.68l-.35-.42c-.16-8.12-.1-32.42.09-34.86l.55,0c.08.08.18.13.18.19V171l.86.36.83,1.11a8.88,8.88,0,0,1-1.68,1.1v13l.65.61h13.4c.28-.41.41-1,.95-1.29.78,0,1,.63,1.18,1.27H78.8l.14-.66.64-.61,1.06,1.51c-.32-.29-.27-.21-.21-.2a3.09,3.09,0,0,0,.43,0h36.88l.74-1.65c.87.19.63,1.32,1.39,1.64h36.39a3.45,3.45,0,0,1,1.32-1.65l.66.55v.91c.13.07.25.19.37.19h36.63c.29-.45.42-1,.94-1.29l.71,1.24h13.63c.06-.07.14-.11.16-.17a.53.53,0,0,0,0-.22Z"/><path d="M119.28,406.62h-1.16l-.64-.64c0-1.72,0-3.45,0-5.19,0-.05-.08-.1-.13-.15-.76.22-.88,1-1.12,1.55-.34.78-1,1.47-.9,2.47l-1.63,1.52h-1.16l-.48.45h-.94l-.91-1.37c-.71.22-1,.92-1.63,1.36H108l-.92-.68c.13-.73.73-1,1.1-1.49h1.34c.11-.13.19-.18.19-.24,0-.72,0-1.44,0-2.13l-1.3-1.3,1.43-1.1c.39,0,.54.59,1,.87h.86l.88-.84h.88l.63.63c.08.82-.82.93-1,1.51h-.93c-.08.12-.22.23-.22.34,0,.65,0,1.3,0,2l.52.56a1.52,1.52,0,0,0,1,.09l2.79-5.57v-.65l.88-.92,0-.44,1.09-.56c.17.21.54.36.61.75,0,.59-.6.75-.86,1.15v1.29c.46.5.75.12,1.06-.2l.46.41h.85l.46-.43h.69l1.46.76c.65-.26,1.26-.87,2.19-.75l1.49,1.63v3.73l.44.58c0,.58-.48.64-.58,1a15,15,0,0,1-2,0v-5.06l-.64-.13-.66.66v3c.14.27.58.42.4.92l-.62.57h-1.85a5.18,5.18,0,0,1-.1-1.74c0-.51,0-1,0-1.52v-1.76l-.59-.16c-.11.13-.27.23-.27.33,0,1.38,0,2.75,0,4.33Z"/><path d="M189.14,182.05h-.79a3,3,0,0,0-1.51-1.06v-.45l-.77-.77c-.27-.65.14-1.41-.29-2.05-.47.42-.15.95-.24,1.42a5.07,5.07,0,0,0-.86,1.8,3.74,3.74,0,0,0-1.49,1.1h-1.51c-.15-.18-.43-.51-.69-.85s-.61-.5-.69-1c-.06-.35-.53-.63-.83-.95V174.6l1.48-2.08h.9l.47-.43a2.41,2.41,0,0,1,.66,0,3.42,3.42,0,0,1,.9.44c.45.32.85.71,1.22,1,0,.5,0,.89.32,1.28s.17.76.26,1.21c.53-.48.21-1,.3-1.48.41-.45.54-1.07,1-1.55s1.11-.32,1.33-.92h1.35a2.37,2.37,0,0,0,1,.55c0,.84,1.06,1.09,1.08,1.93,0,.1.19.2.3.31v3.88c-.47.26-.43.83-.7,1.22s-.36,1.08-1,1.19S189.64,181.87,189.14,182.05Zm-1-8v5.63c.33.24.51.73,1.05.65l.65-1.14v-4.66c-.18-.28-.3-.45-.39-.63s-.14-.35-.2-.49C188.64,173.32,188.47,173.8,188.14,174.05Zm-6.48,5.68c.35.23.53.72,1.07.6l.67-1.33v-1.72l.48-1-.5-.54v-1.28c-.32-.24-.48-.74-1.16-.64l-.56.53Z"/><path d="M3.68,291.31l-.62-.62v-2.12l-.43-.5c0-.12-.08-.33,0-.38.34-.29.31-.78.58-1.06s.24-.78.27-1.33l-.86-.65V284l1.56-1.56L4,282.29l.18-.08,1-.4H8.85s.06,0,.11.05.31.3.47.46a3,3,0,0,1,.07,1.44l-.62.61H4.57c-.05,0-.1.09-.2.17v.52c.08.07.14.17.19.17H8.87c.64.3.58,1.1,1.11,1.53l-1.24,1.11H4.4l-.06.62c.08.08.13.18.18.18H8.83l.66.63v1.84a1.24,1.24,0,0,1-.4.15Z"/><path d="M203.75,181.42l-.64.62h-1.29l-.6-1.13.32-.32V177c-.36-.31-.73-.07-1-.17-.09.15-.21.27-.21.39,0,1.37,0,2.73,0,4.15l-.6.64-.85.05-.54-.48a1,1,0,0,1-.17-.22.81.81,0,0,1,0-.22v-4.07l-.44-.48v-.75c.24-.46.74-.76,1.18-1.23l.94.45h1.11l.61-.42,1.76.91c.57,0,.73-.63,1.14-.87h1.29c.78.64.9,1.68,1.49,2.43.09.12-.14.49-.27.91l.25.34v3l-.57.71h-.92l-.64-.64V177.1s-.09-.1-.17-.2h-1a1.33,1.33,0,0,0-.15.4C203.75,178.67,203.75,180,203.75,181.42Z"/><path d="M9.37,81.92,9.86,83l-.51,1.07H5.11l-.78.63c0,.21,0,.35,0,.49s.1.15.16.15H9.28l.59,1.12c-.36.44-.36,1.22-1.18,1.56l-.77-.45h-3l-.56.72c0,.1,0,.24,0,.38s.1.15.15.15H9.35a3.58,3.58,0,0,0,.19.55,5.26,5.26,0,0,0,.35.52c-.35.45-.41,1.11-.94,1.48-.49.09-1,.22-1.34-.34H5l-.58.42c-.73-.08-.87-.8-1.35-1a1.8,1.8,0,0,1,.44-1.69L2.6,87.71c-.08-.63.54-.78.83-1.23V85.09l-.83-.62v-1a4.72,4.72,0,0,1,2.11-1.57Z"/><path d="M150,172.74c.36-.35.72-.71,1.07-1.07.54.09.55.08,1.08.61v1.32l-.4.45v1.25l-.46.51.64.26,1.16-1.51a6.5,6.5,0,0,0,.64.56c.11.06.28,0,.42,0l.62,1.21v.7l-.43.47v.84l-.43.47c0,.16,0,.3,0,.44.57.69.81-.31,1.25-.25s.55.42.86.62v4.79l-.58.63-1,.05-.54-1,.4-.86c-.1.34,0,.22,0,.09,0-.79,0-1.58,0-2.41l-.77-.22-1.17,1.3-1.08-1v-.92l.81-.82V177l-.58-.1c-.52.35,0,1-.48,1.37a4.11,4.11,0,0,0-.63,1.18v1.15l-1.11,1.07h-.82a.79.79,0,0,1-.15-.12.34.34,0,0,1-.09-.18l.06-1.7c.71-.34,0-1.31.79-1.64v-1.71l.44-.5v-.83l.44-.47Z"/><path d="M178.3,155.63H179l.61.89.62-.12.13-.61c.39-.39.92-.09,1.4-.17l.89,1.35,1.32-1.33.77,0c.79.26.61,1.17,1.22,1.51l-.42.42v1.25l-.45.52v2.11a5.84,5.84,0,0,1-1.28,1.19,4.13,4.13,0,0,1-1.42-1.32l.51-.75v-.77l.45-.47c0-.57,0-1.15,0-1.73,0,0-.1-.1-.18-.19-.38.69-.75,1.36-1.11,2,.18.73-.67,1.24-.45,1.94l-1,1.17c-.63.1-.76-.33-1.09-.56v-1.48l.82-.51v-2.35s-.07-.11-.14-.22c-.7,0,.3,1.3-.73.89v1a4.19,4.19,0,0,0-.88,2.17l-.5.51-.5.5-1.14-.59V161l.44-.49v-1.26l.37-.37v-2.68Z"/><path d="M16.48,135v-.76l-.44-.47v-1.58a3.81,3.81,0,0,1,1.7-2.08l.92-.46c.09,0,.19,0,.23.05L21,131.77c.29,0,.66.06.64-.34s.42-.65.49-1.11c.1-.69,1-.6,1.41-1.08l1.11.53,0,.86-.9,1c.05.21.05.37.13.46.54.57,1.1,1.12,1.6,1.61a.75.75,0,0,1-.33.81L22.77,137h-.92l-.58-.69v-.82l.57-.62.48.36h.91c.32-.33.11-.71.17-1l-1.54-1.58-.6.14v1.31c-.48.45-.44,1.31-1.05,1.51a3.74,3.74,0,0,0-1.35,1H18Zm2-3.61-.67,1.23a5.07,5.07,0,0,0,0,1c.05.25.32.44.4.68s-.12.71.28,1l.6-.13v-2.28l.36-.36c.06-.4.25-.81-.14-1.16Z"/><path d="M83.23,196a2.35,2.35,0,0,0-.65-.06L81,197.55l-2.15-2.15-.35-.69v-2.47l1.57-1.5h.35l.41-.38,1.1.56L83,192h.85c.19-.3.37-.65.6-1s.48-.52.69-.75h1.36c.2.29.59.43.64.81-.07.79-.82.81-1.29,1.15.71.71,1.43,1.42,2.13,2.14,0,0,0,.13,0,.31-.13.5-.73.73-1,1.18l-.49.05a3.74,3.74,0,0,1-1.32,1.73H84.4c-.45-.21-.73-.74-1.17-1.08V196a5.59,5.59,0,0,0,.69-.5h1.7c.06,0,.1-.09.18-.17v-1l-1-1h-1c-.23.37-.2.85-.61,1.08Zm-1.73-4.28-.69-.13c-.2.45-.26.87-.61,1.13v2.55c0,.06.09.11.14.16a1.68,1.68,0,0,0,1.16-.14V194l.43-.45v-.42l-.43-.46Z"/><path d="M173.6,182.06h-1c-.17-.2-.38-.72-.72-.81a1.48,1.48,0,0,1-.86-.52,9.88,9.88,0,0,1-.62-1.19v-.7l-.44-.48v-2.93c.31-.53.6-1,.86-1.45.5-.93.54-.85,1.53-1.51.63-.42,1-.55,1.67-.05.27.22.76.18,1.14.25v.51l.8.8.11,1,.31.31a.48.48,0,0,1,.08.18v2.8c0,.07,0,.17-.07.19-.66.3-.12,1.08-.59,1.49-.18.16-.17.51-.33.72s-.41.51-.63.52C174.2,181.19,174.05,181.76,173.6,182.06Zm.24-6.71c0-.51,0-1,0-1.52a1.12,1.12,0,0,0-.14-.37c-.65-.25-.83.32-1.17.67v1.21l-.38.45v2.62l.33.34c.26.5-.23,1.14.31,1.58.34-.07.73.15,1.09-.26v-2.16l.39-.38a17.4,17.4,0,0,0,0-1.78Z"/><path d="M21.86,333l.45.37a2.8,2.8,0,0,0,1.43-.08,12.66,12.66,0,0,0-.56-1.64c-.27-.59-1.1-.18-1.27-1-.27.54-.31,1-.69,1.25v.83l-1.9,1.9-.66,0-2.17-2.17v-2.84l1.72-1.52.83-.41c.1,0,.2,0,.24,0,.72.71,1.43,1.43,2.2,2.21l.8-1.16.07.09,1.56-1.57c.49.09.72.69,1.24,1.06l-1.31,1.32,1.72,1.72v1.29l-2,2H21.88c-.22-.28-.57-.45-.69-.87.11-.16.21-.33.33-.49A3.62,3.62,0,0,1,21.86,333Zm-2.53-.07c.08-.09.17-.14.17-.19,0-.93,0-1.85,0-2.77a1.63,1.63,0,0,0-.14-.43c-.24,0-.24-.44-.59-.4l-.57.6c0,.95,0,1.87,0,2.8a1.11,1.11,0,0,0,.16.39Z"/><path d="M88.43,393c-.49.4-.43,1.2-1.06,1.5-.7-.29-.73,1-1.43.43l-.22.85-.81.06c-.67-.27-.93-1.06-1.66-1.34-.44.23-.92.47-1.38.74a1.06,1.06,0,0,1-1.17,0l-1-1-.76-.73v-1.76l.4-.4,0-.82,1.58-1.58h1.24a5.65,5.65,0,0,0,.78.77c.37.22.16.67.45.9s.44.6.92.46c.49-.84.75-1.89,1.81-2.56l.85,0,.57.74v1l-.83.84s0,.24.07.29c.34.2.81.2,1,.62s.31.59.46.89A1.06,1.06,0,0,0,88.43,393Zm-7.29-2.83c.07,1.1-.92,1.89-.64,2.47s.47.78.56,1,.15.34.22.5l.47-.06.61-1.18v-1.45l-.62-1.2Zm4.69,4.66c0-.81,0-1.1,0-1.38s.13-.7-.11-1c-.57.09-.83-.79-1.54-.42a2.21,2.21,0,0,0-.07.54c0,.48-.13,1,.11,1.43C84.69,394.19,85.33,393.84,85.83,394.8Z"/><path d="M204.19,154.57v2.51l-1.75,1.55v.73l-.79.28-.06.54c.08.08.13.17.19.18l2.8.06.06,1.11-1.13.78.14.14a1.86,1.86,0,0,1-.39.1h-4.08c-.22-.31-.59-.47-.68-.91a3.91,3.91,0,0,1,.35-.48c.5-.51,1-1,1.52-1.53s.56-1.29,1.22-1.62v-.89l.37-.37c.18-.56,0-1.2.08-1.77-.49-.47-1-.06-1.4-.26-.55.32-1,.58-1.47.86l-.58-.58.61-1.08,1.11-1.16,1.07-.48c.47.21,1,.48,1.63.72S203.66,154,204.19,154.57Z"/><path d="M26.22,97.09c.06,0,.15.11.15.16.15,11,0,22.06.08,33.11-.49,0-.6-.35-.87-.52V97.76c.13-.14.37-.28.4-.45S26,97,26.22,97.09Z"/><path d="M12.34,172.08h1.33c.4-.45.12-1,.19-1.38l2.41-2.41a4,4,0,0,1,1,.56c.34.32.79.56.93,1.12.09.37.48.67.8,1.09v1.67l-.38.45V174a4.74,4.74,0,0,1-2.17,1.61l-1.31-.65-1.09-1.09a2.78,2.78,0,0,0-.76,0,2.87,2.87,0,0,0-.67.44l-1.31-.59C11.2,173.12,11.1,172.55,12.34,172.08Zm5,.66V171a1.7,1.7,0,0,0-1-.65l-.69,1.19c-.45.91.61,1.55.44,2.42,0,.08.17.19.28.32l.55-.17.05-1Z"/><path d="M8.92,133l.77-1.63,1.76-1.76.82,0a4.86,4.86,0,0,1,1.2,1.37,8,8,0,0,0,1.25,1.52v1.23c-.14.26-.58.42-.41.88L12,136.9s-.06,0-.08,0l-1.23-1.22-.51,0L9.91,135c-.46-.31-1-.09-1.42-.15l-.57.44c-.58,0-.65-.48-1-.59a3.14,3.14,0,0,1,.11-1.5C7.72,132.93,8.46,133.23,8.92,133Zm2.51-1.65c-.08.1-.16.15-.16.21V135s.09.1.17.19H12c.18-.41.23-.83.59-1.09,0-.79,0-1.57,0-2.36,0-.12-.1-.24-.16-.38Z"/><path d="M17.63,373.1l-.95.46-.2-.08a4.4,4.4,0,0,1-1.37-.9,5.35,5.35,0,0,0-1.31-.68l-.62.48h-.65c-.31,0-.31,0-1.26-1.32,0-.07,0-.19,0-.2.35-.2.71-.38,1.1-.58l.41.37h.85c0-.06.14-.1.15-.16a4.49,4.49,0,0,1,.08-.83c.06-.19.32-.31.37-.5a4.33,4.33,0,0,0,.07-1l2.08-1.47,1.25.57,1.42,1.42v2.93C18.51,372.21,18,372.72,17.63,373.1Zm-.47-1.19c.08-.09.17-.14.17-.19,0-.93,0-1.85,0-2.78a1.75,1.75,0,0,0-.14-.43c-.24,0-.24-.43-.59-.39l-.56.59c0,1,0,1.88,0,2.81,0,.12.1.24.16.39Z"/><path d="M11.92,334.72c-.43-.89-1.55-.89-2.11-1.76H7.59c-.23-.36-.65-.47-.66-1,0-.34.42-.45.65-.81h1.9c0-.4-.05-.81.11-1.07s.3-.59.45-.89a2.7,2.7,0,0,1,.9-.91,9.45,9.45,0,0,1,1.25-.58.58.58,0,0,1,.21.06l2.31,2.3v2.09l-.56,1.12-.54.11c-.41.41-.81.82-1.22,1.22C12.35,334.66,12.26,334.65,11.92,334.72Zm.65-1.4c0-1.46,0-2.74,0-4,0-.05-.07-.11-.17-.26l-.66.09-.05,1-.41.41v1.71c.35.25.41.67.59,1.07Z"/><path d="M195.09,192.18v3.65l1.17.19c.4.69-.29.85-.55,1.23-.8,0-1-.62-1.18-1.21-.05,0-.13-.06-.15,0l-1.24,1.23h-1.32l-.4-.85H191l-1.08-2.09v-1.57c.16-.27.58-.44.41-.91a11.1,11.1,0,0,1,.93-.88,6.72,6.72,0,0,1,.88-.47c.36-.2.42-.24.73,0s.55.17.73.31A17.39,17.39,0,0,1,195.09,192.18Zm-1.91,3.28c.08-.1.16-.15.16-.21,0-1,0-2,0-3-.25-.19-.38-.53-.75-.57l-.55.59c0,1,0,1.89,0,2.81a1.66,1.66,0,0,0,.16.37Z"/><path d="M195.47,156.64v1.45l-.74.26-.08.4c.13.55,1,.66.86,1.4l-1.29.67h-3.94l-1.26-.64v-.92l.78-.27.1-.54c-.45-.34-1.1-.34-1.35-1.12-.07-.37.48-.49.63-.84h6.07C195.31,156.49,195.36,156.57,195.47,156.64Zm-1.73,1.58c-1.17,0-2.17,0-3.17,0-.07,0-.14.17-.2.24l.58.62h2.59c.05,0,.11-.08.2-.16Z"/><path d="M20.37,216.87v.52c-.35.39-.76.22-1.22.13l-.13-.61c-.25-.32-.64-.1-1.07-.19l-.63.89h-1.5l-1.91-1.9c-.14-.63,0-1.35-.06-2,.44-.83.74-1.79,1.62-2.11.49-.18.88-.85,1.28-.62l2.35,2.35v2.73Zm-4.21-4.37c0,.05-.12.11-.12.16,0,1.07,0,2.14,0,3.22a1.11,1.11,0,0,0,.16.39h1c.08-.09.17-.14.17-.19,0-1,0-2,0-3C17,212.81,16.82,212.16,16.16,212.5Z"/><path d="M14.74,56.12l-.45.47v.34L13,58.31l-1.09.51-.18-.07L10,57.85l0-.44-.81-.81V54.91l.58-1.14L11.46,52h.79l2,2s0,.14,0,.29l.44.46Zm-3.47-2.34c0,.88,0,1.72,0,2.56,0,.27-.14.57.13.8.65.29.82-.33,1.16-.62,0-.79,0-1.57,0-2.36,0-.12-.1-.24-.16-.38Z"/><path d="M113.16,393.47v-2.2c.13-.27.58-.43.41-.89.66-.64,1.33-1.28,2-2a.94.94,0,0,1,1,.82c.16.66.57.89,1.23,1l.14.61c.1.11.24.27.39.42v2.15l-.44.46v.43a6.79,6.79,0,0,0-.89.46,5,5,0,0,0-.62.6h-1.29a1.23,1.23,0,0,0-.88-.46c-.2,0-.49-.34-.59-.58S113.54,393.61,113.16,393.47Zm3,1c0-.94,0-1.86,0-2.78a2.71,2.71,0,0,0-.14-1.48h-.72c0,.95,0,1.86,0,2.78a2.62,2.62,0,0,0,.15,1.48Z"/><path d="M6.41,296.51h.86l.85.87h.6a1,1,0,0,1,.35.2c.34.42.93.64.95,1.34a.85.85,0,0,0,.58.58c.79,0,1,.79,1.51,1v1.39l-.57.61h-1c-.23-.35-.2-.83-.61-1.06v-1.29c-.12-.07-.23-.2-.35-.2H4.66c-.34.06-.45.59-1.14.35L3,299.82v-.77c0-.07,0-.15.05-.2L4,297.8H5l.32-.32c.49-.33,1.14.18,1.6-.29Z"/><path d="M41.4,190.31c.28.54,1,.4,1.37.9a5.91,5.91,0,0,0,1,.89v2.31a5.58,5.58,0,0,1-1.88,2.79H40.56c-1-.44-1.08-1.69-2-2.32v-2.17a2,2,0,0,0,.42-.91l1.12-1.05h.79Zm.65,4.53c0-.85,0-1.71,0-2.56,0-.05-.08-.11-.12-.16-.49-.44-.49-.44-1-.44,0,0-.13.11-.13.16v3.41c0,.06.08.11.13.17C41.52,195.75,41.69,195.1,42.05,194.84Z"/><path d="M11.87,257.26a5.81,5.81,0,0,1-.5-.76c-.19-.4-.67-.18-.9-.45a6.36,6.36,0,0,1-.5-.66c-.14-.23-.24-.48-.43-.87v-2.46l1.59-1.49h.33l.47-.44h.8l1.58,1.51v.45l.43.42v1.89Zm.48-1.93a11,11,0,0,0,0-4.3c-.67.32-.68,1.11-1.08,1.55v1.52l.62,1.23Z"/><path d="M41,395.36l-.9-.91-.61-1.26c-.15-.3-.31-.59-.45-.86a4.49,4.49,0,0,0,.49-1.37c0-.42.39-.83.61-1.24h.43l1.22-1.23a1.4,1.4,0,0,1,.3.15l2.13,2.13a.91.91,0,0,0,0,.41,3.1,3.1,0,0,0,.41.5v1.2L44,394.07l-1.26,1.29ZM42.34,394c0-.05.14-.1.14-.16v-3s-.08-.11-.12-.16c-.65-.35-.82.32-1.18.57,0,.71,0,1.42,0,2.13,0,.05.08.1.12.16C41.8,394,41.8,394,42.34,394Z"/><path d="M17,13c1.08.64,1.34,1.78,1.9,2.72.24.31.1.67.13,1s0,.57,0,.82c-.49.38-.45,1.06-.95,1.39-.23.15-.4.41-.64.54a7.24,7.24,0,0,1-1.12.44.88.88,0,0,1-.32,0l-2.15-2.15V15l2-2ZM15.6,15.82v.85l.43.46c.08.49-.18,1,.2,1.49l.6-.06.12-1,.35-.43v-2.2l-.67-.63-.58.17v.91Z"/><path d="M152.38,197.24h-.87a13.22,13.22,0,0,0-1.3-1.29c-.53-.4-.68-1-1.07-1.62v-1.67l1.16-1.08.18-.67,1.18-.6h.59l2.06,2v3Zm.22-2.36v-2.62c-.62-.59-.62-.59-1.3-.56,0,1,0,2.09,0,3.15a4,4,0,0,0,.07.54C152,195.72,152.17,195.23,152.6,194.88Z"/><path d="M117.91,192.64v2.21c-.67.71-1.5,1.29-1.6,2.15-.7.38-1.2.14-1.64.26-.4-.42-1-.74-1-1.15-.12-.58-.56-.8-.88-1.23v-2.15a4.47,4.47,0,0,1,1.6-2c.59.1.85-.95,1.27-.54C116.93,190.8,117,192.09,117.91,192.64Zm-2.72,2.84,1-.54v-2.35c-.34-.16-.45-.62-1.15-.52l-.54.92v1l.34.38c.19.44-.08.84.28,1.12C115.21,195.49,115.35,195.49,115.19,195.48Z"/><path d="M75.19,190.73l1.54,1.52v2.46l-.62,1.2-1.68,1.67c-.05,0-.12,0-.14,0a2.94,2.94,0,0,1-.31-.3l-1.83-1.82-.62-1.2v-1.5c.47-.76.72-1.62,1.84-2.05Zm-1.49,1.51c0,1,0,2,0,3,0,.06.08.11.12.16.4.1.81.25,1.12-.07v-3.16l-.6-.55Z"/><path d="M3,98.61a21.83,21.83,0,0,1,2.36-1.07H6.67l.48-.44H8.44l3.67,3.72v.9l-.68.55H10.6l-.63-.62c0-.58,0-1.16,0-1.73,0,0-.09-.1-.14-.15-.41-.24-.64,0-.9.32H3.19C2.88,99.6,3.09,99.1,3,98.61Z"/><path d="M149.56,392.68v-1.35c.09-.33.6-.46.42-.94l1.65-1.52h1.21l1.48,1.58v.33l.44.47v2c-.74.73-1.39,1.39-2.08,2.09h-.88l-1.57-1.58-.14.14Zm1.74.15.63,1.22.64-.07v-1.71l.52-.85c-.7-.83-.7-.83-1.17-.83-.31.19-.13.89-.62,1.08Z"/><path d="M77.16,391v.68l.44.47a6.79,6.79,0,0,1-1.87,3.14c-.29.2-.65.05-1,.08a7.54,7.54,0,0,1-.82,0L72.52,394A2.32,2.32,0,0,0,72,392.9v-1.06c.19-.36.37-.71.64-1.25l2.09-2.08Zm-3,2.46c.38.27.59.9,1.24.45,0-1.17,0-2.37,0-3.56,0-.05-.09-.1-.14-.15l-.36,0-.73.55Z"/><path d="M194.21,174.49l-.42-.46v-.85c.31-.65,1.11-.59,1.46-1l1.1.57v8.64l-.59.7H195c-.45-.2-.74-.73-1.17-1.08l.31-.31a1.29,1.29,0,0,0,.12-.38C194.22,178.36,194.21,176.42,194.21,174.49Z"/><path d="M193.7,389.72h.73l.63,1.23v2.91l-1.78,1.56-.62.3c-.6-.78-1.85-.89-2.34-2.15V390.8l2.23-2.23Zm-.39.83c-.51.11-.89-.11-1.26.25,0,.93,0,1.92,0,2.92,0,.11.13.22.2.34.34-.08.71.14,1.05-.18Z"/><path d="M55.49,138.19l.85.68c.09.66-.39.82-.67,1.17-.4-.57-.76-1.16-1.2-1.68s-1-1-1.37-1.38L52,134.88v-1.1c-.25-.44-.78-.61-.9-1.17a1.16,1.16,0,0,0-1-.88c-.41-.09-.37-.81-.76-1.15a5.19,5.19,0,0,1-.79-1.29v-1l.67-.91a1.21,1.21,0,0,1,1.08,1,25,25,0,0,0,1.26,2.45V132l.89.93v.91l.7.24,1.47,1.62a.43.43,0,0,0,.11.34c.42.31.23,1,.75,1.21Z"/><path d="M43.35,104v.65l.35.47c-.08.33-.43.57-.39,1s-.28.73-.44,1.08l.47.53V109l1.26,1.18V113l-.6.61c-.4-.5-1.2-.44-1.51-1.09v-.84c-.15-.16-.3-.31-.44-.47v-1.71l.42-.46-.37-.37v-1.1l-.89-1.66v-3l.54-.48Z"/><path d="M196.44,96.76l-.44.51.81,1.44v1.64l-.82.82v3.56l.36.35-.38.47v1.63a1.45,1.45,0,0,1-1.55.79l.62,1.09a1.08,1.08,0,0,1-1.16.06c-.39-.52.23-.72.37-1.2l-.42-.68V105.5l.37-.37v-.85l.87-.91v-1.29l-.4-.45v-4l.72-.19c.37-.21,0-.73.2-1.09C195.91,96.17,196.23,96,196.44,96.76Z"/><path d="M188.76,127l-.61-.65c-.22-1.13,1-1.8.85-3,.3-.31.63-.68,1-1s.26-1,.75-1.21v-1.72l.39-.38v-1.68l1.1-1.17h.9l.66,1.28c-.15.28-.3.58-.45.87s-.28.61-.44.9a4.54,4.54,0,0,1-.48.67c-.24.26-.5.51-.76.76-.23.51.23,1.16-.3,1.6s0,1-.45,1.34.13,1.19-.61,1.47c.33.61-.87.68-.32,1.33l-.78.23c-.34.31-.24,1-1.1,1.22l-.61-.15Z"/><path d="M199.41,194.42v-.82l.45-.59c-.06-.63-.58-.68-.73-1.18l-.85.64h-.82c-.36-.27-.16-.66-.24-1.13l1.3-1h1.37l1.66,1.67v.68l-1.68,1.63v1c.31.36.69.13,1.11.22l.52.63c-.26.46-.56,1-.87,1.48h-2.21l-1.13-.57,0-.72a2.3,2.3,0,0,1,1-1.12C198.62,195,199.12,194.87,199.41,194.42Z"/><path d="M199.44,388.44c.69.69,1.34,1.35,2.24,2.24.13.33-.39.82-.38,1.56L200,393.52c.26.25.64,0,1,.11l.57,1.11a1.69,1.69,0,0,0-.34.39,2.75,2.75,0,0,0-.11.62h-3.22a3,3,0,0,0-.56-1.09c.52-.33.75-1,1.5-1.11.55-.1,1-1.49,1.06-2.38-.6-.29-1.25-.09-2-.17l-.61-.57c0-.29,0-.46.09-.55a5.28,5.28,0,0,1,.92-.91A7.62,7.62,0,0,1,199.44,388.44Z"/><path d="M163.4,195.5v-1.17l-1.25-1-.73-.08c-.29-.33-.09-.7-.13-.93a10.93,10.93,0,0,1,.61-1.15,9.32,9.32,0,0,1,.78-.89h1.42c.2.3.61.42.64.88s-.65.68-.87,1.12c0,.13,0,.33,0,.4.3.28.83.19,1,.62l.46.9c.09.18.16.36.21.46l-3,3h-.79l-.84-1.31c-.26-.36.23-.53.47-.86Z"/><path d="M194.51,75.19l-.44,1.06-.92.06L192,75v-.66l-.42-.49V72.73l.58-1L191.12,71l.5-.67c0-.75-.82-.84-.91-1.49a6.25,6.25,0,0,0-.86-1.65v-2l-.38-.38c.17-.31.42-.28.7-.17.33.29,0,.68.25,1.1l.72.28.73,1c.31.33,0,.94.63,1.26v2.21l.37.37-.47.83c.5.4,1.16.4,1.37,1.08,0,.21-.07.57.07.76a1.4,1.4,0,0,1,.39.94A2.63,2.63,0,0,0,194.51,75.19Z"/><path d="M106.45,18.19l-.48-.41a10.81,10.81,0,0,1-1.08,1.06,8.17,8.17,0,0,1-1.21.64h-1.53l-.75-.58c.26-1.19,1.24-1.41,2-2h2.16l.37.36.46-.4h1.17l1.57-.88c.35-.12,1,.1,1.58,0,.43.55,1.23.48,1.51,1.12l-1.06,1.07Z"/><path d="M163.15,388.44h1.39c.2.3.62.42.63.87s-.64.68-.85,1.08v.86l1.25,1.26v1.32c-.6,1-2.14.8-2.7,1.94h-1l-.61-.57v-1c.31-.33.69-.1,1-.17l.47.43c.55-.12.55-.12,1.07-.82,0-.58-.54-.81-.89-1.12a6.44,6.44,0,0,0-1.23-.73v-1.5l.45-.45a1.09,1.09,0,0,0,.39-.7C162.63,388.93,162.92,388.73,163.15,388.44Z"/><path d="M122.74,170.79h1.37a5.55,5.55,0,0,1,.62-.42.7.7,0,0,1,.43,0c.6.14,1.06.56,1.72.75l.36-.31h1.26l.92-.87H132c.2.29.59.42.66.91-.13.53-.73.75-1.06,1.23H129l-.46-.39h-.85l-.45.41h-1.69c-.33.5-1.05.37-1.37.86h-1.28c-.31-.31-.6-.63-.93-.92s.14-.36.23-.52S122.62,171,122.74,170.79Z"/><path d="M1.53,92.25,0,90.71l0-.37c.28-.35.68-.08,1-.22L2,91h.9c.29.71,1.09.77,1.62,1.21.18.15.55.08.9.11a5.18,5.18,0,0,0,2,1.28,4.42,4.42,0,0,1,2.13,1.53l-.61.62a2,2,0,0,1-1.19-.24c-.48-.34-1.11-.47-1.6-.81s-1-.25-1.21-.75-.71-.36-1.06-.58A19.87,19.87,0,0,0,1.53,92.25Z"/><path d="M123.12,395.14c-.29.2-.42.58-.89.66-.55-.12-.78-.72-1.23-1V389a3,3,0,0,1,1.5-.09l.62.61Z"/><path d="M.06,291.13.63,290c.39.5,1.21.38,1.5,1a3.4,3.4,0,0,1,1.49,1.07l.21.05c.21,0,.48-.08.64,0,1.08.67,2.26,1.16,3.39,1.72a2,2,0,0,1,.35.2l.88.76v1c-.3.35-.69.13-1.18.23l-1.07-1.33H6a15.68,15.68,0,0,0-3.83-2.16A4.94,4.94,0,0,1,.06,291.13Z"/><path d="M121.56,197.62a1.86,1.86,0,0,0-.44-.37,2.13,2.13,0,0,0-.59-.13v-1.39l.41-.45V194l-.41-.45L121,193l-.46-.89v-1.25l1-.56h.54l.63,1.22v4.16l.44.48c0,.62-.36.86-.83,1.07C122,197.35,121.81,197.49,121.56,197.62Z"/><path d="M23.41,17.55l.3.29a1.39,1.39,0,0,1,.12.38c0,.5,0,1,0,1.49-.43.47-1,0-1.41.29l-.72-.68V15l-.45-.52c-.09-.39.17-.54.33-.77a3.1,3.1,0,0,0,.26-.72h.9c.68.29.51,1.16,1.08,1.49V15.8l-.42.45Z"/><path d="M159.53,395.18c-.4.29-.54.71-1.2.54l-.92-1.2v-1.46a4.82,4.82,0,0,0,.37-.85.64.64,0,0,0-.2-.76c-.29-.2-.17-.51-.23-.77a4.47,4.47,0,0,0-.33-.79,1.57,1.57,0,0,0,.31-.37,2.2,2.2,0,0,0,.12-.62h1.43l.65.59Z"/><path d="M167.34,177.08l-.64.63h-5.65l-.61-.58v-1l.59-.25c.4-.26.45-.33.51-.33h4.28l.43.43a6.28,6.28,0,0,1,.74,0,.35.35,0,0,1,.35.43C167.32,176.64,167.34,176.86,167.34,177.08Z"/><path d="M159.1,191v4.72c.16.21.32.43.46.6a1.57,1.57,0,0,1-.17.45c-.29.31-.6.61-.9.91-.43-.43-1.15-.42-1.49-1,0-.81,0-.81.34-1.35v-3l-.38-.46V191l.56-.6h1Z"/><path d="M22.32,175.56l-.66-.67v-4.61l-.56-1,1.34-.94.85.36c.25.29-.07.91.71.91l-.54,1.08v2.07l.33.34v1.28l-.6,1.15Z"/><path d="M166.43,178.16l.94.69c-.12.73-.72,1-1.07,1.44h-4.87l-1.05-1.19c-.08-.46.47-.59.62-.94Z"/><path d="M21.69,216.94l.3-.3c0-.06.11-.11.11-.17,0-1.28,0-2.57,0-3.84l-.32-.32c-.23-.32-.08-.67-.09-1l1.12-.57,1,1.11v3.31l.43.51V217L23,218h-.76C22.06,217.64,22.06,217.19,21.69,216.94Z"/><path d="M164.73,156.92v.66l-.64.6-.94.1c-.21.51-.3,1.09-1,1.25a.94.94,0,0,0-.53.25c-.52.67-1.52.69-1.9,1.47h-1.31l-.46.44h-1.07V161l.62-.6,1.08-.11c0-.87.71-1.15,1.15-1.67.91,0,1.11-1,1.83-1.3.42,0,.87-.08,1.2.52l.69-1Z"/><path d="M23.19,366.74l.63.63v4.24l.51.72a3.65,3.65,0,0,1-1.2,1.34c-.52.08-.65-.34-1-.58v-4.38c-.59-.37-.49-.87-.42-1.35l.6-.62Z"/><path d="M161.68,30.34l-.74-.05c-.05-.64-.05-.64.55-1.26H162l.27.8c.59.19,1.23,0,1.88.11a9.07,9.07,0,0,1,.87.88c.27.37.73.34,1,.54V32l.85.7c.09.63-.39.81-.63,1.13-.59.32-.73-.73-1.31-.43-.4-.27-.59-.74-1.14-.9a2.37,2.37,0,0,1-1.09-.93C162.46,31.15,162.44,30.6,161.68,30.34Z"/><path d="M194.65,91.26l.43-.46V89.41l.68-.13c.33.54.13,1,.19,1.53.25.25.51.5.81.81l.09.94.4.46v1.26l-1.31,1.1c-.55,0-.8-.75-1.29-1.1Z"/><path d="M135.23,92.46V95l-.62,1.23h-.87l-.63-.63V91.22l.72-.69a2.37,2.37,0,0,1,.55.29c.07.07,0,.37,0,.4C134.9,91.48,134.69,92.17,135.23,92.46Z"/><path d="M173,37.91c0,.66-.44.72-.54,1.06h-1l-1.55-1.71h-.62c-.71-.35-.54-1.25-1.08-1.52,0-.61.39-.72.6-1.05l.9,0Z"/><path d="M177.52,145.65h-.87l-.59-.62c.18-.48.91-.64.81-1.31.67-.8,1.62-1.35,2-2.41h1.38l.21-1.22L181,140c.06.21.21.44.15.58a4.78,4.78,0,0,1-.68,1.21c-.28.34-.1.68-.18,1a3,3,0,0,0-1.29.92v.42Z"/><path d="M70.61,156.05a7.75,7.75,0,0,1-1.2-.62c-.34-.25-.6-.62-.93-.89s-.62-.28-.84-.5-.18-.48-.31-.89a1.06,1.06,0,0,0,.21-.28,2.94,2.94,0,0,0,.16-.58c.46-.31,1,0,1.41-.18.42.49.39,1.2,1.19,1.39.48.11.85.68,1.25,1v.92l.92.43C71.72,156.23,71.07,155.91,70.61,156.05Z"/><path d="M131.15,104.07l-.61-.69.36-.44v-1.21c.54-.56.57-1.45,1.32-1.78V99L133.27,98c.67.25.58,1.06,1.06,1.43l-.81,1.55a2.68,2.68,0,0,0-.41.9c0,.57-.55.3-.75.51s-.53.41-.6.83S131.38,103.76,131.15,104.07Z"/><path d="M146.64,23h-.59a8.29,8.29,0,0,1-1.22-.63c-.39-.29-.66-.87-1.08-1a1.82,1.82,0,0,1-1.08-.8c.3-.32.68-.1,1-.17l.54.51.87-.5h.68c1,.65,2.24.92,2.88,2l-1.13,1.15Z"/><path d="M90.87,167.37l-.38-.37s-.11-.1-.16-.1h-2a9,9,0,0,1-1.32-.8,1.72,1.72,0,0,0-1.17-.6v-1l.61-.61c.43-.16.66.12.87.39a4.22,4.22,0,0,1,1.56.44c.6.31.61.31,1,1.24l1,.11.63.62C91.39,167,90.89,167,90.87,167.37Z"/><path d="M108.17,171.66l-.45.42h-2.45l-1.59-1.59c.25-.63,1.07-.49,1.51-1,.12-.14.54,0,.81,0a1,1,0,0,0,1,.44l1.4,1.42c.36-.07.72-.26.76.16C108.88,171.81,108.5,171.58,108.17,171.66Z"/><path d="M182.84,51.57h-.52l-1.51-1.47a4.39,4.39,0,0,0-1.33-2.24c-.06-.62.42-.77.71-1,.14,0,.32,0,.4,0,.63.59,1.23,1.21,1.85,1.82,0,.65.54,1,.92,1.37v.85Z"/><path d="M195,83.12,193.84,82a2,2,0,0,0-.51-1.22V80l-.33-.33c.14-.34.28-.69.43-1,.46-.3,1,0,1.42-.18l.65,1.27v.68l.43.47c.14.43-.17.65-.42.87v1.75l-.62.62C194.38,83.66,194.71,83.37,195,83.12Z"/><path d="M123.94,16.28v1.31c-.1.08-.15.16-.2.16h-3L120,17l-1.24-.24.71-.69h.82l.5-.45h2.63Z"/><path d="M125.84,16.89c.21-.46,1-.37,1.46-.86h1.12l1.54.87h1.24l.2.59-2.06,1.07-.34-.34h-2.25Z"/><path d="M107.59,105.45l.6-.55h.69a1.68,1.68,0,0,1,.34.2c.52.44.89,1,1.63,1.24.36.1.66.54.91.88a6,6,0,0,1,.46,1.07l-.59.51h-.72a3.79,3.79,0,0,1-.34-.2c-.52-.44-.89-1-1.64-1.24-.36-.1-.65-.54-.9-.88A5.46,5.46,0,0,1,107.59,105.45Z"/><path d="M110.33,172.09l-.61-.61a4.5,4.5,0,0,1,2.15-1.58c.78.59,1.87.72,2.57,1.52v.94a4,4,0,0,0-.53.17c-.13.05-.23.16-.35.22s-.36.18-.53.26l-.54-.47h-.83l-.47-.45Z"/><path d="M135.9,171.23H135l-.62-.66v-.86l.5-.53c.08-.05.14-.12.19-.12,1.1.17,1.76-1,3.05-.84l.57.95v.54c-.31.64-1.11.57-1.51,1.08h-.85Z"/><path d="M187.71,58.73v.5c1.51.1,1.31,1.7,2.14,2.52v1.31l-.53.57-1-.43-1-2.09V59.63l-1-1,.73-.57Z"/><path d="M56.35,140.66l.57-.55,3.32,3.32v.73c-.46.38-1,.11-1.4.18l-2.49-2.48Z"/><path d="M172.18,148.85a6.56,6.56,0,0,1,1.26-.58c.4-.08.57-.73,1.11-.4.31.28.08.67.14.95L174,150l-1.12,1.12-1.26.62c-.42-.06-.56-.45-.84-.65v-.88Z"/><path d="M62,148.3l-.4-.76,1-.93,2.85,2.85v1.18c-.27.37-.66.15-.91.2Z"/><path d="M127.29,108.39c-.73,0-.81-.5-1.13-.62v-.89c.27-.66,1-.6,1.47-1.07s.91-.91,1.33-1.34h1.33a.52.52,0,0,1,.09.75c-.45.54-.5,1.5-1.5,1.5Z"/><path d="M192.49,113.49V112l.38-.38c0-.27,0-.61.08-.94.29-.63,1.09-.55,1.48-1l.65.65a5.14,5.14,0,0,0,0,.78,1.24,1.24,0,0,1-.38.92c-.13.19,0,.56-.07.82s-.47.47-.46.89c0,.21-.34.42-.51.62-.07,0-.14,0-.17,0C193.12,114.05,192.75,113.72,192.49,113.49Z"/><path d="M156.5,27l.6-1.05c.32.08.5.07.57.15a5.68,5.68,0,0,0,2.13,1.33c.5,1,.59,1.23.52,1.91-.46.25-1,.07-1.44.12-.62-.85-1.85-1-2.38-2.06Z"/><path d="M122.09,107.93h1.25L124.4,109l-1.62,1.5h-2.14l-.58-.7C120.26,108.7,121.33,108.5,122.09,107.93Z"/><path d="M116.32,110.89l-.33-.33h-1.27l-.68-.63L114,109l1.17-1,.33.33h1.39l.56.81.88.19A3.69,3.69,0,0,1,116.32,110.89Z"/><path d="M114.74,15.62h2.46l1.15.67c.08,1.13-1.15.86-1.55,1.46h-2.15l-.63-.63V16.2Z"/><path d="M133.74,16.9l.46.43h1.28l.63.63v.93l-.71.57h-2.14l-1-1.09v-.91a2.39,2.39,0,0,0,.75-.28A.78.78,0,0,1,133.74,16.9Z"/><path d="M185.11,131.56c.5-.4.48-1.13,1-1.52a9.46,9.46,0,0,0,1.32-1.29l.66.63v1.28c-.29.33-.76.62-.82,1-.08.51-.44.7-.7,1s-.57.58-.85.86l-.66-.63Z"/><path d="M195.54,88.87c-.92-.16-.79-1.13-1.32-1.54V86l.4-.4,0-.93c.28-.34.67-.12,1-.19l.64.6v3.2Z"/><path d="M183.82,53.94c.27-.2.44-.54.72-.64.88.07.79.94,1.23,1.27s.54,1.12,1,1.51v1.41c-.37.27-.72.11-1.06.14-.53-.3-.54-1-.92-1.32s-.45-.84-.75-1.18S183.85,54.35,183.82,53.94Z"/><path d="M101.66,170.79h-1.29l-.46-.43H98.62l-.62-.65v-.86l.56-.61h1.26l.76.36,1.64,1.63Z"/><path d="M46,116.4v.85l.5.53a5,5,0,0,1-1.14,1.84,4.14,4.14,0,0,1-1.51-2.29v-1.45l.61-.63C45.22,115.38,45.48,116,46,116.4Z"/><path d="M91.47,166.89h.64l.46-.43h.73c.74.59,1.84.68,2.5,1.53v.86l-.89.45a.45.45,0,0,0-.12.12l-2-1c-.3-.29-.81-.8-1.31-1.31C91.44,167.06,91.47,167,91.47,166.89Z"/><path d="M138.29,18.84l1.12-.57.4.34h.78c.33.16.48.6.92.45.05,0,.13.08.16.13.18.42.36.85.52,1.25-.08.42-.4.31-.65.38s-.3.26-.45.39l-.38-.38-1.34-.07-1.08-1Z"/><path d="M152.38,25.56c-.21-.42-.72-.34-1-.6s-.61-.6-.91-.91V23.2c.37-.49.91-.14,1.4-.25.91.71,2.25.85,2.85,2l-.56.62Z"/><path d="M178.14,43.52v.95c-.49.32-1,.11-1.47.17-.5-.31-.62-.89-.93-1.33a8.49,8.49,0,0,0-1.06-1c.19-.49-.25-.64-.37-.94.29-.19.4-.61.82-.62a1,1,0,0,1,.37.16Z"/><path d="M130.49,85.17l.61-.6c1.14.71,1.65,2,2.48,3-.23.56-.78.83-1.11,1.25-1-.5-1.13-1.73-2-2.35Z"/><path d="M103.62,100.83v-.94c.29-.21.45-.57.84-.67,1.33.63,1.55,2,2.19,3.1a1.21,1.21,0,0,1-.86.84,1.66,1.66,0,0,1-.37-.14C104.53,102.49,104.47,101.3,103.62,100.83Z"/><path d="M48.55,125.06l-.62.62A5.51,5.51,0,0,1,46,123.12v-1.27l.91-.06c.49.23.77.75,1.21,1.09v.43c.14.16.29.31.43.46Z"/><path d="M3.06,96.47l-.05-1,1.2-.88a.62.62,0,0,0,.27.2c.31.12.65.15.89.46a1.23,1.23,0,0,0,.65.47c.43,0,.56.4.83.6,0,0,0,.1,0,.15s-.11.13-.16.13H3.26S3.16,96.57,3.06,96.47Z"/><path d="M6.5,296.51H3.28s-.11-.08-.22-.17l-.05-1,1-.59H5l1.52,1.52S6.5,296.44,6.5,296.51Z"/><path d="M176.87,179.93h1.6l.59.74c-.06.69-.82.88-1.05,1.38-.64.09-.81-.39-1.14-.64Z"/><path d="M26.44,45.46h-.7c-.08-.09-.16-.14-.16-.2,0-.86,0-1.71,0-2.68l.67-.11c.11.14.2.19.2.24Z"/><path d="M25.87,132.25l1.26-.06.41.87c.35.34-.18.49-.36.85h-1C25.83,133.42,26.14,132.91,25.87,132.25Z"/><path d="M26.19,52.43l-.62-.65V50.5a.51.51,0,0,1,.87,0v.45l1,.44-.83.27c-.35.48.07,1.1-.29,1.6C25.6,53.08,26.37,52.49,26.19,52.43Z"/><path d="M179.86,46.19c-.24.17-.37.55-.76.62-.55,0-.59-.55-.91-.63-.08-.68.42-.81.69-1.11.29,0,.55,0,.61.4A2.59,2.59,0,0,0,179.86,46.19Z"/><path d="M77.81,197.24H77c-.37-.27-.15-.66-.25-1l.56-.61c.07,0,.14-.07.17-.05.38.3.76.62,1.13.93Z"/><path d="M60.47,146.52l-.67-.68,1.18-1,.58.54a8.52,8.52,0,0,1-.08.94c0,.07-.23.13-.36.15S60.69,146.52,60.47,146.52Z"/><path d="M118.54,195.57l.67.55v.9c-.35.38-.76.2-1.15.14-.29-.29-.07-.66-.15-1Z"/><path d="M156.05,196.6l-.61.61c-.55.18-.73-.32-1.22-.66l1.33-.73c.25-.25,0,.14.09.32A2.22,2.22,0,0,0,156.05,196.6Z"/><path d="M176.46,146.71l-.65.65-.51,0c-.28-.35-.1-.71-.15-1,.34-.38.75-.19,1.21-.12Z"/><path d="M67.19,151.93l-.65.66-.62-.55c-.09-.74.36-.89.66-1.15l.61.61Z"/><path d="M19.11,19.93v-1.2l.6-.14.59.68c0,.31-.45.37-.54.66Z"/><path d="M107.48,103.61v1.18l-.62.14-.57-.69A1.08,1.08,0,0,1,107.48,103.61Z"/><path d="M20.21,174.19c.38.85-.23,1-.5,1.36-.27-.35-.82-.56-.6-1.12C19.46,174.11,19.83,174.37,20.21,174.19Z"/><path d="M15.38,257.08l-.63-.68c-.11-.6.43-.72.65-1.2.13.38.2.64.31.88a1.38,1.38,0,0,0,.32.32Z"/><path d="M167.54,35.1,167,33.94c.33-.27.69-.08,1-.15C168.57,34.48,167.85,34.71,167.54,35.1Z"/><path d="M15,333.77c-.27-.14-.22-.46.5-.38l.43.76-.58.52Z"/><path d="M119.53,395.35h-.4l-.65-.78.51-.51C119.25,394.41,119.86,394.58,119.53,395.35Z"/><path d="M154.76,395.24v-.55l.63-.56c.33,0,.38.45.71.54l-.7.7Z"/><path d="M183,51.57c.44,0,.48.55.83.63l-.09.62-.74,0Z"/><path d="M19.72,373.25H19.2l-.15-.66a1.15,1.15,0,0,1,1.24-.08C20.25,372.87,19.9,373,19.72,373.25Z"/><path d="M58.56,45.5v-.69c.41-.35.8,0,1.22-.25-.09.57-.43.7-.62.94Z"/><path d="M184.9,134.81l-.71-.7.77-.53A.91.91,0,0,1,184.9,134.81Z"/><path d="M136.12,145.87v-.53l.76-.16.13.65A.53.53,0,0,1,136.12,145.87Z"/><path d="M15.57,57.58v.84l-.71.14-.15-.82Z"/><path d="M120.82,62.75l.14.76c-.32.28-.56.27-.81.07C120.22,63.23,120.54,63.09,120.82,62.75Z"/><path d="M155.49,25.45l.15.77a.54.54,0,0,1-.8.08C154.89,25.94,155.24,25.82,155.49,25.45Z"/><path d="M139.38,143.92l-.6-.6c.06-.4.37-.24.6-.27A.54.54,0,0,1,139.38,143.92Z"/><path d="M77.63,394.58l.59-.11a.53.53,0,0,1,0,.91c-.13-.15-.28-.3-.4-.46A2,2,0,0,1,77.63,394.58Z"/><path d="M195.64,395.45l-.13-.76c.32-.28.55-.27.8-.07C196.24,395,195.92,395.11,195.64,395.45Z"/><path d="M103.55,98.47l.19-1c.27.35.6.48.67.88Z"/><path d="M15.67,135.6l-.2,1c-.27-.35-.6-.47-.67-.88Z"/><path d="M133.29,89.28l.61.6c-.06.41-.37.24-.6.28A.55.55,0,0,1,133.29,89.28Z"/><path d="M35.45,84.23c-.23.36-.47.37-.72.14C34.89,83.79,35.24,84.32,35.45,84.23Z"/><path d="M96.7,80c-.35.28-.59.3-.84.06C96,79.56,96.31,79.69,96.7,80Z"/><path d="M125.07,16.86c.28.35.3.59.06.85C124.66,17.53,124.79,17.25,125.07,16.86Z"/><path d="M164.79,102.81a3,3,0,0,1,.58-.07c.06,0,.12.18.15.28s-.09.14-.13.14c-.2,0-.39,0-.58-.07Z"/><path d="M41.61,89.29c-.27-.08-.66.21-.83-.25C41.36,88.85,41.36,88.85,41.61,89.29Z"/><path d="M148.63,138.87l-.15.28c0-.05-.15-.11-.14-.15a1.28,1.28,0,0,1,.14-.29Z"/><path d="M22.76,78.89a1.28,1.28,0,0,1,.13.29s-.09.09-.13.14a1.28,1.28,0,0,1-.14-.29S22.71,78.93,22.76,78.89Z"/><path d="M133.8,170l.15.15a1.3,1.3,0,0,1-.29.14s-.09-.09-.14-.14Z"/><path d="M99.64,67.46l-.15.15a1.3,1.3,0,0,1-.14-.29s.09-.09.14-.14Z"/><path d="M179.1,125.55l.16-.28c.05,0,.14.11.13.15a1.23,1.23,0,0,1-.13.29Z"/><path d="M94.22,66.25l-.15-.15a1.28,1.28,0,0,1,.29-.14s.1.09.14.14Z"/><path d="M45.8,120.57l.15.15a1.92,1.92,0,0,1-.29.14s-.1-.09-.14-.14Z"/><path d="M154.48,61.61l.28.15c0,.05-.1.15-.14.14a1.92,1.92,0,0,1-.29-.14Z"/><path d="M177.35,370.21a4.77,4.77,0,0,1,2.12,1.56c-.16.42.28.58.44.88s-.16.72.19,1c.22-.62.81-1.09.67-1.83a4.48,4.48,0,0,1,1.73-1.44,3.17,3.17,0,0,1,1-.19l.5.43h.74c.75.28.8,1,1.12,1.51a6.89,6.89,0,0,1,.73,1.57c.37-.4.08-.83.25-1.1a7.56,7.56,0,0,0,.47-.89,4.84,4.84,0,0,1,1-1.09c.5.18.65-.27,1-.44a3.17,3.17,0,0,1,2.73,1.82,6.49,6.49,0,0,0,.83,1.07v3.35c-.22.39-.46.79-.68,1.21a5.8,5.8,0,0,0-.58,1.27c-.13.64-.91.27-1.09.81-.06.19-.29.32-.43.46h-.72a10,10,0,0,1-1.2-.62,9.56,9.56,0,0,1-.93-.86c.18-.5-.27-.66-.42-.95-.07-.48.21-1-.19-1.46a23.44,23.44,0,0,0-1.09,2.11,2.17,2.17,0,0,1-1.25,1.31c-.51.16-.85.94-1.55.48l-.93-.88h-.42a3.28,3.28,0,0,0-.48-.89c-.36-.36.1-.91-.3-1.17s-.18-.67-.44-.92c-.59.22-.07.78-.32,1.05a2.11,2.11,0,0,0-.47.9,5.48,5.48,0,0,1-.6,1h-.42l-.81.82h-1.14l-1.77-1.78-.81-1.58v-3.65a12.62,12.62,0,0,1,.73-1.26c.24-.33.64-.55.62-1.05,0-.05.22-.11.34-.17l.82-.44Zm.82,5.42v-.86l-.44-.47v-2.14l-.64-.65-.65.09a3,3,0,0,1,0,.86,2.4,2.4,0,0,1-.38.63v4.24c.17.26.3.42.39.6a3,3,0,0,1,.19.52l.49,0,.61-.61c.07-.63-.05-1.27,0-1.79Zm6.07,2.17v-5.06l-.62-1.19-.42,0-.65,1.14v5.2c.32.21.44.65,1,.59C183.8,378.35,184,378,184.24,377.8Zm4.77.48.66.25.64-.77v-5.37a.74.74,0,0,0,0-.21.76.76,0,0,0-.15-.17c-.21-.1-.25-.47-.59-.41l-.56.59Z"/><path d="M200.5,380.18l-.63-.63v-4.29l-.44-.5v-.9l.68-.58h2l.5-.43c.83,0,.83,0,2.42.83.46-.08.65-.52,1.1-.87.22,0,.64-.08.87.09a2.33,2.33,0,0,0,.88.41l1,2.06v4.2l-.5.5a3,3,0,0,1-1.43.09l-.63-1.22v-3.72c0-.05-.09-.1-.14-.17-.65-.3-.82.33-1.14.61V377l.37.37V379l-.62,1.14h-1.29l-.63-.63v-1.74l.42-.45v-1.72c-.35-.29-.58-.83-1.27-.58v4.44l-.68.68Z"/><path d="M177.92,360.46l-1.15-.89.95-1.86v-1.1l.45-.49v-1.75l.7-.6h.9l.77,1,1-1H182l1.36,1.37a2.51,2.51,0,0,0,1.12-1.36h.84l1.09,1.09v1.28l-.45.48v.82l-.42.48v1.7l-1.26,1.09c-.41.06-.58-.42-.9-.67v-1.16l.81-1.52v-1.76l-.67-.16c-.08.43,0,.94-.25,1.18s-.27.77-.56,1.09a5.54,5.54,0,0,0-.63,1.18v.72L181,360.68l-.6-.72v-1.65l.39-.46v-1.21c.16-.34.66-.47.35-1l-.4-.16c-.55.24-.36.91-.8,1.16.17.87-.79,1.53-.44,2.31Z"/><path d="M165.25,371.21c.54-.1.92-.57,1.48-.61.62-.78,1.22-.34,1.82,0,0,0,.14,0,.19,0l1.6,1.69v1l.44.52v2.58l-.39.44c.14.59-.24,1-.44,1.53a1.34,1.34,0,0,1-1,.9c-.37.09-.65.54-1,.83h-.67a4.67,4.67,0,0,1-2.11-1.56c.15-.41-.28-.58-.46-.89v-.79l-.42-.48v-2.84A5.32,5.32,0,0,0,165.25,371.21Zm2.8,7.17a33.76,33.76,0,0,0,0-6.36l-.55-.55-.64.65v1.34l-.36.45V377c.53.42.44,1.24,1.15,1.47Z"/><path d="M202.45,357.86c0,.18,0,.32,0,.46s.1.15.16.15h2.14l.63.59c0,.06,0,.13,0,.16L204,360.64h-4l-.57-.85v-.46c.06-.12.09-.27.19-.35.42-.35.64-1,1.34-.92.2-.29.51-.45.66-.81a3.76,3.76,0,0,1,1.22-1.92v-2.28l-.59-.61h-.87l-1.23,1.23c-.35-.09-.51-.39-.72-.63-.08-.63.64-.76.76-1.19a2.49,2.49,0,0,1,.76-1.15h2c.41.22.82.45,1.24.65s.32.92.82,1.23v2.24c-.28.34-.71.64-.78,1-.12.58-.59.78-.89,1.15A12.36,12.36,0,0,1,202.45,357.86Z"/><path d="M198.53,372.13v1.75l-.4.45,0,.43-2.61,2.54.08.59c.88.57,1.43-.62,2.53-.09l.44.6V379a6.11,6.11,0,0,1-1.11,1.17H194c-.34-.45-.88-.72-1.1-1.22.17-.69.8-.89,1.06-1.37h.46c.38-.32.3-.94.78-1.19s.23-1,.76-1.19v-.86l.44-.47v-1.29c-.06,0-.11-.15-.16-.15H194l-.39.33a1.89,1.89,0,0,1-.24-1.33c.39-.89,1.32-1.14,2-1.66C196.78,370.08,197.55,371.23,198.53,372.13Z"/><path d="M146.09,374.55v-.65l.64-.63h1.36l1,1.15a1.1,1.1,0,0,1-.19,1.05,5.61,5.61,0,0,0-.63,1.19v.7c.45.53,1.11,0,1.6.31l.52.51v4.43l-.59.61h-.88l-.63-1.23v-1.14l.41-.46v-.88l-.66-.61-1.26,1.26-1.1-1v-.75l.81-1.54v-2.12Z"/><path d="M160.83,227.85a2.55,2.55,0,0,1,.73.27,6.2,6.2,0,0,1,.78.76h1.75l1.57,1.65.68.17c.12.65.84,1.14.47,2-.24.27-.63,0-1.05.14a7.91,7.91,0,0,0-.69-.76,2.51,2.51,0,0,0-.73-.31,3.82,3.82,0,0,1-1.71-1.31l-.21-.67h-.89l-.77-1.26H159c-.51-.34-.66-.92-1.27-.93-.17,0-.33-.24-.5-.36-.4-.31-.25-1-.76-1.2s-.94-.29-1.22-.81l.54-.58c.43.11.61.52.94.78h1.72c.61.89,1.91.93,2.41,2.26Z"/><path d="M117.9,216.54l-1,.47,0,.06c-.06,0-.11.1-.17.1H115.1l-.39-.39h-2.15l-1.46.79h-2.54c-.36-.31.07-1-.71-1l1.56-1.56c.55-.16,1.18,0,1.75-.07l.49.44h3l.37-.37h1.09a2.15,2.15,0,0,1,1.63-.44l.92,1.07Z"/><path d="M146.09,374.55v.64l-.44.47v.85l-.82.81v1.39l-1.63,1.11c-.09,0-.25-.49-.57-.73V377.5c.18-.34.3-.59.43-.82l.43-.68v-1.16l.43-.56V373l.41-.41v-1.76l1.07-1.07c.69-.11.78.46,1.13.58v1.16c-.41.92-1.14,1.74-.81,2.86Z"/><path d="M163,357.35v.53c-.87.91-2.14,1.11-3.14,1.8a2.82,2.82,0,0,1-1,.18l-.76.76-1,.11-.12.59-1.49,1.53c-.46-.16-.62.27-.89.41h-1.29l-.59-.59c.16-.3.32-.58.56-1a4.5,4.5,0,0,0,.72-.37c.23-.16.39-.54.61-.57a1.22,1.22,0,0,0,.88-.48H157l1.15-1.19.26.26c.41,0,.22-.39.32-.66.63-.6,1.28-1.27,2-1.86a3.26,3.26,0,0,1,1.1-.44,2.2,2.2,0,0,1,.61,0Z"/><path d="M195.07,293.71V292l-.37-.37v-1.34l.34-.45v-2.15l-.4-.5v-1.26l-.4-.4.4-.46v-.82c.39-.26.4-.71.65-1.17l.89,1.18c.35.36-.12,1.08.75,1.26l-1,1.86v.72l.41.43c.08.49,0,1.13,0,1.6l.82,1.54v1.57c-.35.46-.41,1.22-1,1.53Z"/><path d="M196.38,305.4c-.55.29-.4,1-.91,1.37a7.69,7.69,0,0,0-1,1c-.44-.48,0-1-.44-1.77l-.31-.4.53-.69v-1.1l.83-1.59v-1.65l-.37-.37v-3l1-1.12c1-.14.48.85,1.06,1v2.12l-.5,1.15-.58.12c-.46.43-.06.71.26,1v1.27l.44.48Z"/><path d="M140.8,367.18l.7-.88a3.69,3.69,0,0,0,2.32-.83h1c.42-.13.55-.62,1-.46s.32.42.19.77c-1.18-.07-1.06,1.25-1.82,1.77l-1,.11-.36.35h-3.46c-.24.23-.5.47-.73.73s-.67.09-.91.45-.67.07-1,.18l-.29.29c-.84.43-1.38-.32-2.06-.52.48-.41.42-1.2,1.07-1.52h.83l.48-.44Z"/><path d="M45.52,312.78v1.29l.59.59c.53.54-.13,1.26.67,1.43v1.53l-1.05.66s-.32-.31-.47-.59c-.35-.65-.63-1.32-1-2-.13-.2,0-.55,0-.79l.92-.92-1-.5c.41-1-.28-1.44-.37-2.06-.06-.42-.49-.79-.72-1.2a10.44,10.44,0,0,1-.44-1l.38-.38v-1.78c.12-.05.2-.11.22-.09s.21.2.31.3l1.57,1.56v1c.09.55.65.65.34,1.28l-.3.34v.85Z"/><path d="M143.14,220.65l-.63-.81c-.6-.18-.76.27-1.17.43l-.75-.46h-.74l-1.43-1.58a7.27,7.27,0,0,1,.88-.53,1.19,1.19,0,0,1,.82-.07c.8.37,1.55.81,2.42,1.28h.74l.81.82h1.34l.38-.29c.34.14.81.2,1,.46.5.64,1.37.72,1.84,1.37a2,2,0,0,1-.06,1.06h-1.91l-.79-.79H145l-.71-.89Z"/><path d="M103.39,216.75c.3-.54,1-.45,1.39-.85.14-.14.54,0,.77,0l.73.71-.7,1.46c-.26,0-.66-.12-.8,0-.41.4-1.09.31-1.4.85a1.2,1.2,0,0,0-.88-.49c-.23,0-.34-.46-.7-.38s-.7.85-1.2.41l-1.31,1.32H96.48s-.1-.08-.21-.17l0-.74c.18-.79,1-.69,1.5-1.19h1.81c.23.24.46.54.95.27l.12-.58c.29-.29.39-.28,1.1.29l.66-.9Z"/><path d="M154.32,377.39l1.09-1.11H161l.59,1.15-1.3,1h-4.85Z"/><path d="M190.54,358.94c-.36-.43-.88-.71-1.09-1.15,0-.56.4-.67.6-1h5.68l.53.49a1.54,1.54,0,0,1,.08,1l-1.19.62Z"/><path d="M70.83,352l1.56,1.53s0,.14,0,.34c-.18.44-.72.71-1,1.12a4.51,4.51,0,0,0-.71-.39,1.11,1.11,0,0,1-.83-.83,1.09,1.09,0,0,0-.79-.88,1.39,1.39,0,0,1-.69-.42,3.62,3.62,0,0,1-.29-.34v-.8c-.3-.36-.69-.13-.91-.18l-.79-.68c-.11-.67.51-.72.58-1.06.64-.1.81.39,1.14.63v.45a4.87,4.87,0,0,1,.88.45c.33.24.8.18,1.06.59S70.44,352.13,70.83,352Z"/><path d="M161.9,375l-.78.85H155.4l-.63-.58c-.1-.57.36-.77.63-1.09h5.49Z"/><path d="M52.89,332.5h.65L55.05,334c-.08.6.48.8.83,1.26l.08,1.36.79.79v1a.55.55,0,0,1-.79,0c-.54-.45-.61-1.22-1.19-1.67a2.49,2.49,0,0,1-1.11-1.47c-.06-.3-.49-.51-.73-.78s-.48-.32-.5-.79l.46-.59Z"/><path d="M78.45,358l0,.8.81.29c-.12.29-.12.29-1.8.26a6.06,6.06,0,0,1-1.18-.62,4.07,4.07,0,0,0-1.2-.78c-.36-.14-.62-.58-1-.92v-1l.7-.57c.42.17,1,.24,1.25.55C76.78,356.74,77.87,356.9,78.45,358Z"/><path d="M168.62,235.15l0-.9c.51-.33,1,0,1.43-.19.66.5,1,1.26,1.85,1.44.25.05.48.41.62.79a3,3,0,0,1,.36,1.52l-.6.61h-.23c-.07,0-.17,0-.21,0C170.82,237.36,169.76,236.3,168.62,235.15Z"/><path d="M121,370.44c-.16,1.09-1.13,1-1.58,1.5h-1.67c-.38-.56-1.38-.36-1.56-1.26.1-.58.69-.81,1-1.29h2.63Z"/><path d="M170.8,350.27v-1.08l2-1.95h.49l.72-.86h.93c.37.28.12.68.23,1-.23.54-.93.69-.92,1.39a.82.82,0,0,1-.56.58c-.86.15-1.18.93-1.79,1.37l-.45-.41Z"/><path d="M179.91,245.79h.76l.64.78.73.22.05.63,1.28,1.07v1.44c-.3.19-.42.59-.81.63-.09,0-.19,0-.23,0l-1.54-1.7v-.73l-.88-.72Z"/><path d="M85.64,363.3l-1-.06c-.07-.51.47-.5.49-1l1.22.6.63-.47a3.88,3.88,0,0,1,2.08,1.27h1l.58.59c.13,1-.91.61-1.07,1.17h-1l-.7-.86h-.9Z"/><path d="M188.14,327.29v.65l.44.45a.81.81,0,0,1,0,.22c-.31,1-1.15,1.65-1.54,2.59-.07.17-.35.44-.44.4-.57-.19-.73.79-1.33.41-.34-.43-.09-.95-.17-1.51l.88-.73v-1l1.37-1.37.15-.15Z"/><path d="M132,368.48l.62.65v.9c-.19.16-.43.55-.7.58s-.58.36-.88.47h-1.21a5.4,5.4,0,0,0-.68-.66,5.59,5.59,0,0,0-.88-.45c.09-.75.76-1,1.13-1.49Z"/><path d="M188.25,327.3l-.52-.68.8-.8v-1l-.32-.32c.58-1.09,1.11-2.21,1.68-3.26.33,0,.54,0,.74,0a2.76,2.76,0,0,1,.4.06c.33.45,0,1,.17,1.34-.73,1.08-1,2.38-2.19,3.06v1.55Z"/><path d="M114.45,370.16v.67l-.51.55c-.09.06-.15.13-.2.13h-2.07l-1.12-1.07v-.88l.63-.63h2.24Z"/><path d="M131.65,216.32h1.19l.54-.51c.2.11.42.25.65.36s.5.18.73.3a1.71,1.71,0,0,0,1.16.29l.62.62v.85l-1.27.73c-.22-.13-.5-.46-.77-.45-.53,0-.89-.33-1.32-.43a1.21,1.21,0,0,1-1-1.15C132.15,216.77,131.94,216.65,131.65,216.32Z"/><path d="M113.36,308.22l-.61-.61c.21-.42.28-.41,1.16.18a1.59,1.59,0,0,0,.39-.09c.42-.23.82-.48,1.25-.73l.42.38h1.15l1.21.63v.89l-.59.61H116l-.45-.37h-.9l-.7-.89Z"/><path d="M190.41,264.48c.32.15.75.33,1.15.56a2.73,2.73,0,0,1,.49.48c0,.25-.12.65,0,.78.41.4.31,1.09.8,1.36l-.78,1.37.29.29c.21.4.06.78,0,1.43l-.81-1a1.32,1.32,0,0,0,0-.62c-.15-.36-.37-.69-.53-1.06s-.47-.52-.74-.78v-.84l-.44-.47v-.85Z"/><path d="M41.83,299.55l-.63-1.23v-2l.58-.61h1.4l.55.55c.18.54,0,1.18.08,1.77-.54.44-.48,1.23-1.12,1.54Z"/><path d="M181.86,338.13l-.61-.61c-.37-.59.66-.76.39-1.31.3-.45,1-.67.9-1.36l1.05-1.05c.55-.09.75.36,1,.58.41.74-.42,1.16-.36,1.79-.73.48-.8,1.47-1.57,2Z"/><path d="M193.8,315.9c.26.65-.29,1.16-.55,1.67s-.81.9-1,1.48l-.56.05-.19,1.27-.85-.14.48-.49c.1-1.11,0-2.32.05-3.36l1.55-1.55Z"/><path d="M122.68,370.86V370c.3-.63,1.1-.57,1.51-1.08h1.74l.63.61,0,1-1.17.75.17.22h-2.32Z"/><path d="M195.51,279l.43.45v1.3l-.63.62h-.87l-.58-.54c-.22-.43.15-1-.48-1.34v-1.71l.64-.79a2.24,2.24,0,0,1,.58.25c.33.28.62.59.91.88Z"/><path d="M192.05,273.75v-.83l-.43-.54c0-.22,0-.33,0-.36.43-.35.7-.89,1.24-1.11.94.3,1,1.17,1.35,1.88-.2.51.33.72.44,1.11l-.58,1.32h-1C192.47,274.94,192.55,274.14,192.05,273.75Z"/><path d="M189.56,355.85c-.33-.63.17-.82.42-1.13.05,0,.11-.11.16-.11h5.61l.59.65-.54.59Z"/><path d="M166.22,355.47h-.81l-.58-.54c0-.07-.05-.14,0-.16.4-.41.8-.82,1.21-1.22,0-.14,0-.28,0-.49.92-.15,1.34-1.06,2-1.48.55-.05.67.38,1,.59l0,.77C168.45,354.13,167.16,354.54,166.22,355.47Z"/><path d="M105.55,370.65l-1.06-1.1v-.84l1.14-.6.33.34h1.77l1.07,1.14c.11.6-.45.71-.59,1.06Z"/><path d="M126.58,216.87c-.27-.6.46-1.09.54-1.75.06,0,.11-.1.17-.1h1.57l1.62,1.52c.08.57-.39.75-.64,1.08H127.2Z"/><path d="M84.4,362.33l-.52.51c-.19,0-.54.11-.73,0-.63-.41-1.45-.55-1.82-1.27h-.52a2.67,2.67,0,0,0-.27-.73c-.15-.22-.41-.38-.3-.87l.75-.67C82.25,360.14,84,360.32,84.4,362.33Z"/><path d="M154.84,224.23l-1.26.76c-.55.06-.86-.81-1.43-.49l-1.73-1.73c0-.39.44-.54.73-.82.74-.22,1.25.61,1.87.46Z"/><path d="M127.66,306.9h-1.31c-.35-.32-.13-.7-.2-1,.32-.25.47-.64,1-.72.35,0,.66-.43,1.08-.5a1.37,1.37,0,0,1,.61-1c.33-.2.76-.24,1-.55l.61.61v.87c-.49.35-.71,1.09-1.48,1.09Z"/><path d="M56.81,340.53c0-.33-.14-.7.14-1h1.13l2.28,2.28.39.88-.75.7c-.18,0-.37,0-.45-.07C58.63,342.36,57.72,341.45,56.81,340.53Z"/><path d="M91.17,364.49l.38.39a1.39,1.39,0,0,0,.38.12c.5,0,1,0,1.48,0l.47.44h.69l1.1.55.52,1-.67.55h-1.6c-.5-.49-1.53-.42-1.65-1.52-.06-.47-.7-.6-1.25-.77Z"/><path d="M42.7,301.28l.88.88.63,1.21v1.15a2.67,2.67,0,0,0-.42.47,2.08,2.08,0,0,0-.1.59H42.2c-.28-.36-.11-.72-.15-1.06s0-.57,0-.84l-.42-.46v-.86Z"/><path d="M123.78,215l1.08,1.12-1.19,1h-2.58c-.13-.69-.86-1.17-.49-2l1-.53.4.37Z"/><path d="M187.71,260.31l-.38-.38v-1.7l-.52-.61.65-.15c.35.59.47,1.37,1.37,1.36a5.82,5.82,0,0,1,.45.9c.22.63.8,1.15.62,1.89l.37.43-.59.64h-.94a2.91,2.91,0,0,0-.28-.73,6.11,6.11,0,0,0-.75-.78Z"/><path d="M186.93,256.6h-1.2c-.12-.12-.44-.29-.49-.52a2.93,2.93,0,0,0-.94-1.35c-.15-.51.18-1.17-.5-1.36,0-.65.43-.84.77-1.08.13,0,.3,0,.39.09a6,6,0,0,1,.91.91c.19.26.11.69.47.88,0,.65.55,1,.91,1.35C187.07,255.87,186.48,256,186.93,256.6Z"/><path d="M178.78,343.09l-.75,1.1h-.95l-.6-.6.48-.83c.45-.69,1.15-1.16,1.43-2,.2-.57,1-.36,1.32-.86l.62.62v.89l-1.67,1.6Z"/><path d="M193.68,309.09h.72l.56.51c.25.5,0,1,.14,1.41l-.39.39-.11.94L194,313h-.89l-.63-.63v-1.3l.4-.45v-.88Z"/><path d="M121.16,309.52l-.62-.64V308l.53-.57c.91.06,1.64-.78,2.87-.39l.46.6v.81l-.63.63h-.84l-.47.44Z"/><path d="M147,364.36l.63-.63h1.18l1.48-.85.28.28c.49.36,1.14-.16,1.61.31-.22.43-.62.17-.82.21l-1.82,1.83c-.62-.23-.78.22-1,.35h-.87l-.63-.63Z"/><path d="M51.15,328l.72.7c.07.1.14.15.14.21,0,.56,0,1.13,0,1.68-.28.38-.67.16-1,.22-.31-.25-.65-.44-.76-.92a5.87,5.87,0,0,0-.61-1.23l-.59-1.16,1.13-.86,1,.48Z"/><path d="M63.5,345.5c.63.3.54,1.13,1.07,1.47s1,.43,1.32.92v1.27c-.24.4-.63.17-.84.23l-2.59-2.59v-1.12C62.8,345.36,63.17,345.57,63.5,345.5Z"/><path d="M47.46,320.35l1.4,1.4.51,1.22v1.16l-.7.42-.83-.39-1.32-2.71C47.07,321.37,46.45,320.36,47.46,320.35Z"/><path d="M108.38,303.88h.43c.43,0,.61.61,1.1.45.63.86,1.86,1,2.35,2v.83c-.44.44-1,0-1.36.23l-2.52-2.53Z"/><path d="M177.49,244a19.75,19.75,0,0,1-2.07-2.12c-.4-.55-1-1.18-.66-2l.36-.17c.07,0,.17,0,.2,0l3.19,3.27Z"/><path d="M107.45,300.77l-1.55,1.29-1-.95c-.13-.17,0-.57-.35-.82-.18-.13-.15-.53-.33-.7s-.2-.65-.25-1.2l.75-.49c.09.08.24.29.42.33s.61,0,.58.42.64.61.44,1.11Z"/><path d="M99.92,368.91h-.47l-1-.55c-.1-.69.36-.8.51-1.14h2.24l1.12,1.13c.07.47-.39.66-.64,1h-1.3Z"/><path d="M172.64,380.18h-.72l-.63-.58v-1.42c.26-.19.41-.56.84-.65.55.23.81.78,1.26,1.12v.92Z"/><path d="M180,245.79h-.7l-1.06-1.08.59-.61h1C180.09,244.66,179.79,245.24,180,245.79Z"/><path d="M170.8,350.27v1.08c-.26.37-.65.16-1.14.25l-.61-.65.67-.68Z"/><path d="M108.38,303.88c-.4,0-.82.11-1.25-.14v-1l.61-.21.64.84Z"/><path d="M190.21,264.43h-.59l-.26-.65.83-.56.54.55Z"/><path d="M168,234.09h-.43c-.41-.34-.19-.76-.15-1.22l.55-.11A.92.92,0,0,1,168,234.09Z"/><path d="M98,368H96.76l-.11-.59c.36-.42.78-.22,1.24-.16Z"/><path d="M101.37,263c-.31.3-.68,0-1,.16-.36-.31-.35-.6-.05-.89h.42C101,262.5,101.3,262.64,101.37,263Z"/><path d="M181.67,339.19l-.63.62c-.64-.2.05-.75-.59-1.08l1.09-.19Z"/><path d="M86.33,220.11c.08-.38.4-.52.6-.75.17.44.78.31,1.1.73A2.75,2.75,0,0,1,86.33,220.11Z"/><path d="M164.11,355.5l.64.64-.68.59-.56-.52C163.57,355.86,163.88,355.71,164.11,355.5Z"/><path d="M73.75,355.2l-.71.71-.58-.59C72.8,355,72.8,355,73.75,355.2Z"/><path d="M183,251.2a.94.94,0,0,1,1.31,0l-.64.56C183.32,251.72,183.19,251.4,183,251.2Z"/><path d="M61.34,345.07a1,1,0,0,1,0-1.33l.55.71C61.86,344.69,61.52,344.82,61.34,345.07Z"/><path d="M54.6,250.76l.1-.57c.41.06.53.41.81.6l-.1.57C55,251.3,54.87,251,54.6,250.76Z"/><path d="M176,345.28v.53l-.76.16-.14-.65A.54.54,0,0,1,176,345.28Z"/><path d="M95.72,219l.11.57-.78.78-.14-.73C95.18,219.38,95.32,219.05,95.72,219Z"/><path d="M52.9,332.5c-.43-.07-.64-.38-.88-.81l.82-.05Z"/><path d="M122,259.54a1.23,1.23,0,0,1,.11,1.35C121.81,260.59,121.8,260.59,122,259.54Z"/><path d="M117.4,267.09a3,3,0,0,1,.07.58c0,.06-.18.12-.28.15s-.14-.09-.14-.14,0-.38.07-.57Z"/><path d="M193.29,314.21a3.8,3.8,0,0,1-.58.06c-.06,0-.12-.17-.15-.27s.09-.14.14-.14.38.05.57.07Z"/><path d="M101.44,252.51a.52.52,0,0,1,.87,0A.52.52,0,0,1,101.44,252.51Z"/><path d="M73.2,251.78a2.78,2.78,0,0,1-.57.07c-.06,0-.13-.17-.16-.28s.09-.14.14-.14.39,0,.58.07Z"/><path d="M199.93,221.45a2.78,2.78,0,0,1-.07-.57c0-.06.18-.13.28-.15s.14.09.14.13c0,.2-.05.39-.07.58Z"/><path d="M123.24,260.92l-.38.44C122.57,261,122.9,261,123.24,260.92Z"/><path d="M49.36,325.84l-.16.15a1.08,1.08,0,0,1-.13-.29s.08-.09.13-.14Z"/><path d="M107.45,266.75l-.16.28c-.05,0-.14-.1-.13-.14a1.23,1.23,0,0,1,.13-.29Z"/><path d="M108.22,267.84l-.28-.16s.11-.14.15-.13a1.85,1.85,0,0,1,.29.13Z"/><path d="M78.51,276.26l-.44-.38C78.45,275.59,78.42,275.92,78.51,276.26Z"/><path d="M78.41,276l.45.37C78.48,276.69,78.51,276.35,78.41,276Z"/><path d="M173.9,239.13l.16-.27s.14.1.13.14a1.85,1.85,0,0,1-.13.29Z"/><path d="M115.68,370.49l-.15.16a1.64,1.64,0,0,1-.14-.3s.09-.09.14-.14Z"/><path d="M149.93,222.1l-.15.28c-.05,0-.15-.11-.14-.14a1.55,1.55,0,0,1,.14-.29Z"/><path d="M185.05,332.78l-.16.15a1.85,1.85,0,0,1-.13-.29s.09-.1.13-.14Z"/><path d="M123,261l.37-.44C123.67,261,123.33,260.92,123,261Z"/><path d="M92.6,266.43c.78-.43,1.3-.16,1.84-.29C94.42,266.63,94.42,266.63,92.6,266.43Z"/><path d="M83.17,269.79l-.15.28c0-.05-.15-.11-.14-.14a1,1,0,0,1,.14-.29Z"/><path d="M144.3,57.36l-.16.28s-.14-.1-.13-.14a1.23,1.23,0,0,1,.13-.29Z"/><path d="M139.44,51.51l-.28-.15s.1-.15.14-.14a1.28,1.28,0,0,1,.29.14Z"/><path d="M110.92,36.68l-.16.15a1,1,0,0,1-.13-.29s.08-.09.13-.14Z"/><path d="M148.48,76.28a1.14,1.14,0,0,1,.13.3s-.08.09-.13.14a1.28,1.28,0,0,1-.14-.29S148.43,76.33,148.48,76.28Z"/><path d="M124.78,54.46l.73-.73.54.61C125.79,54.61,125.79,54.62,124.78,54.46Z"/><path d="M72.61,35.1a.52.52,0,0,1,0,.87A.52.52,0,0,1,72.61,35.1Z"/><path d="M136.64,69.72a2.78,2.78,0,0,1-.07-.57c0-.06.17-.13.27-.16s.14.09.14.14a5.73,5.73,0,0,1-.07.58Z"/><path d="M125.56,58.88l-.28-.15s.11-.15.15-.14a1.28,1.28,0,0,1,.29.14Z"/><path d="M140.67,77.15a1.28,1.28,0,0,1,.14.29s-.09.1-.14.15a1.6,1.6,0,0,1-.13-.3S140.63,77.2,140.67,77.15Z"/><path d="M117.48,69.35h-.67a1.83,1.83,0,0,1-.18-.48c0-.1.09-.22.15-.34A1.16,1.16,0,0,1,117.48,69.35Z"/><path d="M117.48,69.35c.28.08.67-.21.83.25C117.74,69.79,117.74,69.79,117.48,69.35Z"/><path d="M60.32,50.79a2.78,2.78,0,0,1,.57-.07c.06,0,.13.17.16.27a.24.24,0,0,1-.14.14,3.68,3.68,0,0,1-.58-.07Z"/><path d="M154.21,101.91l.38-.44C154.88,101.85,154.55,101.82,154.21,101.91Z"/></g></g></svg>