<svg xmlns="http://www.w3.org/2000/svg" viewBox="0 0 131.13 133.14"><title>Recurso 111MANDALA</title><g id="Capa_2" data-name="Capa 2"><g id="Capa_1-2" data-name="Capa 1"><path d="M69.06,33.28c-3.5,20.62-1.57,33.29-3.5,33.29s-.72-14.76-3.49-33.29C59.35,15.1,63.64,0,65.56,0S72.13,15.16,69.06,33.28Z"/><path d="M57.46,34.1c3.77,20.56,9.92,31.81,8.1,32.47S59.84,52.94,50.9,36.49C42.13,20.33,41,4.67,42.8,4S54.15,16,57.46,34.1Z"/><path d="M46.84,38.83c10.58,18,20.2,26.5,18.72,27.74s-10-10.85-24.07-23.25C27.73,31.14,21.3,16.81,22.77,15.57S37.54,23,46.84,38.83Z"/><path d="M38.48,46.9c16.11,13.33,28.05,18,27.08,19.67S52.42,59.81,35,53C17.89,46.22,7,35,7.91,33.28S24.32,35.18,38.48,46.9Z"/><path d="M33.39,57.35c19.69,7,32.51,7.32,32.17,9.22S50.9,64.72,32.18,64.23C13.8,63.75-.33,56.91,0,55S16.08,51.18,33.39,57.35Z"/><path d="M32.18,68.91c20.9-.14,33.05-4.24,33.38-2.34s-14.41,3.27-32.17,9.22C16,81.62.34,80,0,78.13S13.8,69,32.18,68.91Z"/><path d="M35,80.19C54.59,72.91,64.6,64.9,65.56,66.57s-12.42,8-27.08,19.67C24.1,97.68,8.88,101.52,7.91,99.85S17.76,86.59,35,80.19Z"/><path d="M41.49,89.82c15.93-13.54,22.6-24.49,24.07-23.25S56.63,78.34,46.84,94.31C37.24,110,24.25,118.8,22.77,117.57S27.49,101.73,41.49,89.82Z"/><path d="M50.9,96.65C61.23,78.48,63.75,65.91,65.56,66.57S61.19,80.69,57.46,99c-3.66,18-12.85,30.74-14.66,30.09S41.82,112.64,50.9,96.65Z"/><path d="M62.07,99.85c3.49-20.61,1.57-33.28,3.49-33.28s.72,14.76,3.5,33.28c2.72,18.19-1.57,33.29-3.5,33.29S59,118,62.07,99.85Z"/><path d="M73.67,99c-3.77-20.56-9.92-31.81-8.11-32.47S71.29,80.2,80.23,96.65c8.77,16.16,9.91,31.82,8.1,32.48S77,117.12,73.67,99Z"/><path d="M84.29,94.31c-10.58-18-20.2-26.5-18.73-27.74s10,10.85,24.07,23.25c13.77,12.18,20.2,26.51,18.72,27.75S93.58,110.17,84.29,94.31Z"/><path d="M92.64,86.24c-16.1-13.33-28-18-27.08-19.67s13.15,6.76,30.58,13.62c17.1,6.73,28,18,27.08,19.66S106.81,98,92.64,86.24Z"/><path d="M97.74,75.79c-19.69-7-32.51-7.32-32.18-9.22S80.23,68.42,99,68.91c18.38.48,32.51,7.32,32.17,9.22S115.05,82,97.74,75.79Z"/><path d="M99,64.23c-20.9.14-33,4.24-33.39,2.34S80,63.3,97.74,57.35c17.43-5.83,33.05-4.24,33.38-2.34S117.33,64.1,99,64.23Z"/><path d="M96.14,53c-19.6,7.28-29.61,15.29-30.58,13.62S78,58.57,92.64,46.9C107,35.46,122.25,31.62,123.22,33.28S113.37,46.55,96.14,53Z"/><path d="M89.63,43.32C73.71,56.86,67,67.81,65.56,66.57S74.5,54.8,84.29,38.83c9.6-15.68,22.59-24.49,24.06-23.26S103.64,31.41,89.63,43.32Z"/><path d="M80.23,36.49C69.9,54.66,67.38,67.23,65.56,66.57s4.38-14.12,8.11-32.47C77.33,16.08,86.52,3.36,88.33,4S89.31,20.5,80.23,36.49Z"/></g></g></svg>