<svg xmlns="http://www.w3.org/2000/svg" viewBox="0 0 444.89 233.52"><defs><style>.cls-1{stroke:#211915;stroke-miterlimit:10;stroke-width:0.67px;}</style></defs><title>Recurso 20GRAPHS</title><g id="Capa_2" data-name="Capa 2"><g id="Capa_1-2" data-name="Capa 1"><path class="cls-1" d="M14.05,141.57c-.21.25-.28.34-.36.42s.08.13.13.13c.57.09,13.74,0,15-.06V90c.53-.32,1-.12,1.52-.16s.89,0,1.33,0h4.55c.44,0,.89,0,1.33,0a4,4,0,0,0,1.5-.1V85.79c-.42-.27-.87-.08-1.34-.15l-.17-.49.55-.59h2.31l.59.51,0,.49-1.07.18v3.94a.34.34,0,0,0,.12.12.4.4,0,0,0,.19,0q4.45,0,8.91,0s.09-.07.2-.17V72.57c.12-.1.16-.18.21-.19h9.85a1.85,1.85,0,0,0,.14-.14.34.34,0,0,0,.05-.17V68a1.68,1.68,0,0,1-1.14-.7l.61-.56h2.56s.1.06.2.13v.87c-.25.29-.59,0-.93.21,0,0-.15.11-.15.21,0,1.38,0,2.76,0,4.08.11.1.15.18.2.18a2.38,2.38,0,0,0,.38,0h9.49c.32.45.16,1,.16,1.45q0,33.18,0,66.36V142a1.63,1.63,0,0,0,.22.17.61.61,0,0,0,.19,0h15l.55,1.08v1.38c-.29.25-.49.73-1.1.51v-1.61c-.11-.11-.15-.17-.2-.19a.36.36,0,0,0-.18,0H14.27s-.09.06-.19.14L14,144.58l-.53.62-.47,0c-.25-.56,0-1.21-.15-1.84l-1.28-.06-.6-.54.63-.62h1.24V101.34c-.41-.28-.86-.08-1.28-.14-.21-.32-.83-.46-.44-1.11H12.7c.11-.11.17-.15.19-.2a.4.4,0,0,0,0-.19V58.94s-.08-.1-.15-.18H11.53l-.5-.62.55-.55h1.14c.06-.1.18-.2.18-.3,0-.57,0-1.14,0-1.71V16.29c-.61-.1-1.17,0-1.82-.07L11,15.54h2.5l.54,1Zm56.1-68.43H51a2.41,2.41,0,0,0-.38,0s-.08.09-.16.17,0,.32,0,.5v67.68c0,.24-.07.5.2.67H69.8a.54.54,0,0,0,.18,0c.06,0,.09-.09.17-.17Z"/><path class="cls-1" d="M1.57,157.19V156c.07-.07.11-.14.16-.15H444.31s.09.08.17.15v1.21c-.07.07-.11.14-.16.15a2.41,2.41,0,0,1-.38,0H1.74S1.65,157.26,1.57,157.19Z"/><path class="cls-1" d="M444.49,173l.05.84-1,.53H2.12l-.55-.52V173c.08-.07.13-.14.17-.14H444.28C444.33,172.89,444.38,173,444.49,173Z"/><path class="cls-1" d="M1.72,233.19l-.61-.61.94-.49H444.34a1.66,1.66,0,0,1,.1,1c-.05,0-.1.1-.15.1Z"/><path class="cls-1" d="M312.19,143.41c.13.21.23.4.34.59,0,.45-.37.6-.65.82l-.36-.06c-.25-.4-.07-.85-.13-1.27-.1-.06-.2-.18-.3-.18H271.34c-.26.48-.08.93-.16,1.35l-.57.56-.53-.64-.06-1.23-1.32-.07a1,1,0,0,1,0-1.07l1.24-.06c0-.13.14-.24.14-.35V101.41c-.21-.35-.56-.16-1.05-.25l-.46-.59,0-.35c.41-.38,1,.06,1.44-.3V58.86c-.4-.28-.85-.07-1.27-.14-.37-.29-.18-.66-.13-1,.4-.23.85-.05,1.27-.12.06-.11.17-.21.17-.31,0-4.55,0-9.1,0-13.65V16.29h-1.31a1.32,1.32,0,0,1-.19-.38,1.43,1.43,0,0,1,.1-.38h2.4a1.66,1.66,0,0,1,.13.14.57.57,0,0,1,0,.19q0,63,0,126.06c0,.05.06.1.12.21h81.57l.6.6v1.92l-.58.51-.54-.5v-1.2a1.55,1.55,0,0,0-.39-.15h-38.3A3.3,3.3,0,0,0,312.19,143.41Z"/><path class="cls-1" d="M362.73,142.13h81.19l.6.6c0,.62,0,1.25,0,1.88,0,0-.07.1-.14.18h-.47c-.26-.44-.08-.89-.15-1.31-.1-.06-.2-.17-.31-.17H403.6v1.29a1,1,0,0,1-1.14.11l-.07-1.25c-.12,0-.23-.14-.33-.14H363.39c-.24,0-.51-.11-.78.17v1.14c-.33.33-.67.13-1,.2-.45-.4,0-1-.31-1.47h-1.16l-.63-.63.61-.53,1.19-.06c.18-2.36.23-31.28.09-40.76-.39-.35-.84-.1-1.3-.17l-.64-.61.67-.28-.14-.2,1.27-.08a.74.74,0,0,0,.15-.31q0-20.19,0-40.38c0-.18,0-.35-.06-.58l-1.23-.06-.62-.53.63-.63h1.24V16.39c-.4-.29-.85-.08-1.31-.15l-.5-.54c.06-.06.12-.2.19-.2.76,0,1.51,0,2.22,0l.58.56V141.93S362.66,142,362.73,142.13Z"/><path class="cls-1" d="M182.44,101.23H181.1l-.4-.72.41-.45h1.15c.06-.11.18-.21.18-.31v-41l-1.35-.07-.55-.55.56-.53,1.3-.08V16.38c-.39-.29-.84-.07-1.31-.14l-.48-.55s.1-.19.17-.19c.75,0,1.51,0,2.23,0l.57.57q0,62.94,0,125.9s.07.09.17.2h80.79l.47.47c.2.34.08.72.1,1.09s0,.62,0,.91c-.22.26-.44.22-.72.09l-.06-1.27c-.13,0-.24-.14-.34-.14H224.75c-.49.39,0,1-.28,1.4-.27.24-.59.07-.89.11-.43-.41,0-1-.27-1.41-2-.15-33.17-.2-39.58-.07-.32.39-.08.85-.16,1.34l-.63.51-.28-.58-.18.12-.07-1.27c-.4-.3-.86-.09-1.31-.15l-.52-.57.51-.56h1.19a1.14,1.14,0,0,0,.16-.39Z"/><path class="cls-1" d="M94.1,143.3v1.36l-.53.55-.64-.57v-1.16c-.41-.43-1,0-1.42-.27a1.43,1.43,0,0,1-.06-.89c.42-.38,1,.06,1.45-.3V101.34c-.42-.27-.87-.08-1.29-.14,0,0-.13-.08-.13-.13,0-.3,0-.59-.08-1l1.37-.06c.06-.1.16-.21.16-.31q0-20.19,0-40.39a4.57,4.57,0,0,0-.06-.58l-1.29-.06c-.3-.28-.09-.62-.16-.91.1-.07.19-.19.29-.19.37,0,.74,0,1.05,0,.1-.12.17-.17.17-.21q0-20.48,0-40.95c-.42-.42-1,0-1.46-.24l0-.52c.07-.07.11-.15.16-.16.81,0,1.61,0,2.47,0V142c.11.11.15.18.21.2a.54.54,0,0,0,.18,0h80.22l.57.58c0,.59,0,1.21,0,1.84,0,0-.06.1-.12.19l-.47,0c-.31-.42-.1-.87-.16-1.29-.1-.07-.19-.19-.29-.2-.5,0-1,0-1.51,0H134.81c-.27.47-.1.92-.17,1.39l-.49.16-.58-.53-.1-.88a1,1,0,0,0-.33-.13Z"/><path class="cls-1" d="M93.69,3.06,93,4.34l1.08,1.09v1.5L92.28,8.66H87.45c-.32-.23-.2-.56-.2-.86,0-2.32,0-4.65,0-6.9.1-.11.14-.18.19-.2a.6.6,0,0,1,.19,0h4.74l1.32,1.36ZM91.23,5.25c-.59,0-1.15,0-1.71,0-.37,0-.4.24-.37.49s-.19.75.19,1h2.25s.09-.07.17-.14V5.78Zm.42-2.38-1-.65c-.39,0-.94-.06-1.47,0-.08,1.3-.08,1.3.12,1.49h1.48s.1-.07.18-.13S91.29,3.28,91.65,2.87Z"/><path class="cls-1" d="M52,163.76l0,.65-.89.32,1.29,1v1.17c-.15.42-.56.63-.83,1a2.24,2.24,0,0,0-.94.49h-.94a1.72,1.72,0,0,0-1.17-.38c-.56-.16-.56-.74-.83-1.11l-.44,0c-.07.2-.14.42-.21.63-.75.19-1.31.91-2.09.87s-1.23-.67-1.9-.76c-.12-.28-.2-.5-.3-.71,0-.05-.08-.09-.17-.17V164.4a4.41,4.41,0,0,1,.57-1,5.56,5.56,0,0,1,1.12-.72H45.8L47,164.12c.69.11.87-.06.8-.54l1.05-.91h2.25Zm-2.28,2.68c.22.39.22.39.73.22-.14-.41-.49-.15-.69-.12-.08-.29-.05-.58-.38-.33A1,1,0,0,0,49.7,166.44Zm-2.54,0a1.73,1.73,0,0,0,.51,0c.16-.06.28-.22.44-.31a3.26,3.26,0,0,1,.44-.15l-.93-1C47.22,165.28,47.67,166,47.16,166.41ZM44.42,165c.44-.23.78,0,1.11-.31l-.12-.65c-.36.19-.69-.07-1,.23Zm0,1.21c.22.15.33.45.57.49l.91-.74C45.14,166.17,44.76,165.83,44.39,166.25Zm5.29-1.89c.34.24.58.35.75-.11A.57.57,0,0,0,49.68,164.36Z"/><path class="cls-1" d="M405,182.37c.39.5.82.93,1.17,1.43a5.76,5.76,0,0,1,.5,1.19l1.28.06a5.55,5.55,0,0,0,.24.64,2.92,2.92,0,0,0,.43.45l.74,0,.51-.47a2.65,2.65,0,0,0,.08-1.28c-.41-.39-1,.06-1.45-.29v-1.24c.26-.3.6,0,.89-.16s.15-.55.23-1l-.68-.53c-.7,0-.78.6-1,1.11h-.86c-.3-.43,0-.88-.16-1.23.3-.62,1-.57,1.35-1h1.52l1.32,1.35v1.11l-.44.47c.23.45.46.92.79,1.56v1a4.94,4.94,0,0,1-.58,1,5.8,5.8,0,0,1-1.17.75h-1.35a5.4,5.4,0,0,1-1.18-.75c-.3-.35-.38-.87-.84-1.15l-.65,1.43-1,.44h-1.28a4.4,4.4,0,0,1-1-.6,5.19,5.19,0,0,1-.71-1.11V182.3c.29-.59.58-1.17.88-1.76l1-.42h1.25l.94.47c0,.56.78,1,.39,1.66-.31.24-.7.07-1.1.12,0-.19,0-.38,0-.22l-.51-.94-.86,0-.53.57c.06.33-.13.67.19.91l.4-.37Zm-.6,3.79.64-.54v-1.16l-.9-.91-1,.51v1.47c0,.06.06.1.11.18l.49.45Z"/><path class="cls-1" d="M401.66,204.93v-.75c.23-.33.58-.13.85-.21.41.3.87.54.7,1.15h1.32l.52-.59v-.73l-.5-.54-1.21-.06c-.32-.28,0-.63-.22-.93l1.53-.69v-.87c-.39-.29-.84-.08-1.26-.14a2.15,2.15,0,0,1-.82,1.14c-.48.1-.6-.38-1-.56l.56-1.21L404,199l.57.44h.7c.6.27.53,1,.93,1.35.13.12,0,.48,0,.72l-.32.32c-.35,1,.76,1.61.79,2.59l.56-.48c.68.13.9.83,1.52,1.16h.71l.49-.58v-1.65a13.52,13.52,0,0,0-1.68,0c-.29.49-.74.34-1.12.37-.09-.09-.17-.14-.17-.18,0-.76,0-1.51,0-2.28l.37-.41v-.74c.11-.07.21-.18.31-.18H411a1.36,1.36,0,0,1,.14,1c-.39.33-.84.11-1.26.16s-.87-.1-1.29.1c-.09.36-.22.72.1,1l.44-.4c.51,0,.9.62,1.48.43l.55.55v.37l.37.4v1.52c-.44.29-.44.84-.79,1.21s-.85.45-1.23.76a.8.8,0,0,1-1-.08,4.15,4.15,0,0,0-.87-.37l-1.29-1.31-.19.68a6.46,6.46,0,0,1-.71.63,8.18,8.18,0,0,1-1,.54h-.62l-.41-.37h-.74C402.05,206,402.1,205.28,401.66,204.93Z"/><path class="cls-1" d="M268.72.7c.27.46.9.34,1.19.76.47-.08.62.35.9.56-.06.57.65.93.39,1.51l.35.41v1.9c-.42.24-.35.63-.36.89l-2,2a.72.72,0,0,0-.84.33h-3.06l-.54-.51V1.24l.53-.54Zm-2.08,1.92c0,1.49,0,2.82,0,4.14a1.17,1.17,0,0,0,.13.35H268l1.26-.83V3.7l-.84-1.08Z"/><path class="cls-1" d="M136.39,225.6,135,224.28v-.77c.24-.32.58-.13,1-.21l1,1.2c.79-.05,1-.67,1.44-1v-.75l-.95-.95h-.87l-.58.74c-.58.09-.73-.34-1-.55v-1.13l.39-.42V219l.55-.56h3c.23.26.63.42.59.94-.13.06-.28.12-.42.2l-.64.36h-1.87l-.14.6c.53.32,1.11.11,1.59.17l1,.5.66,1.46a9.25,9.25,0,0,1,1.09-1.49c.44-.38.56-.92.91-1.34s.7-1,1-1.38h.82c.06.06.15.11.15.15v3.77a2.14,2.14,0,0,1,1.13.82l-.5.51-.61.12v1.63c-.33.31-.66.13-1,.18-.37-.37-.11-.84-.19-1.31l-.5-.54h-2.38c0,.05-.12.09-.13.14a2.41,2.41,0,0,0,0,.38l-1.37,1.33Zm6.23-3.06v-1.27s-.07-.09-.11-.14-.11,0-.12,0c-.32.29-.63.59-.94.89l.12.55Z"/><path class="cls-1" d="M25.43,202.85c-.05.6.6.24.79.58a4.14,4.14,0,0,0,.69.71v1.2a2.59,2.59,0,0,0-.42.44c-.29.43-.82.48-1.2.77s-.89-.08-1.32-.28a1.49,1.49,0,0,0-.56,0c-.52-.21-.61-.81-.85-1.19a2,2,0,0,0-.48.18,4.79,4.79,0,0,1-1.57,1.21c-.56.2-.63.25-1.17,0-1-.51-1-.51-1.86-1.88v-1.88c.12-.22.39-.38.39-.75,0-.18.29-.4.49-.53a6.85,6.85,0,0,1,1-.43h1.25a5.88,5.88,0,0,1,1.06.62,3.86,3.86,0,0,1,.55.88l.42,0,.21-.66,1-.81h1.87l.84,1.09v.63c-.36.27-.74.1-1.1.15-.16-.43-.34-.81-.85-.77l-.83.6A5,5,0,0,0,25.43,202.85ZM24,204.36c-.17-.16-.27-.34-.4-.36a1,1,0,0,1-.88-1s-.16-.07-.31-.12l-.06.9-.34.4.55.54.4-.38h.91l.06.7a2.44,2.44,0,0,0,1.47-.08l-.06-.62Zm-5.11.12.6.61c.46,0,.94.17,1.39-.17l-.12-.56A7,7,0,0,0,18.91,204.48Zm.05-1.81c.16.11.2.17.25.17h1.48s.08-.16.09-.18l-.44-.57h-.8Z"/><path class="cls-1" d="M22.39,183.5c.31-.49.41-1.11.93-1.47a3.59,3.59,0,0,0,.86-.14c.2-.09.32-.39.74-.19l.32.28H26l.57.54,0,.67a1.1,1.1,0,0,1-.76.69c0-.37-.38-.46-.54-.72-1.23-.06-1.23,0-1.32.18l1,.54h.82c0,.11.09.31.13.31.43,0,.65.29,1,.6v1.13l-.54,1c-.37-.12-.55.17-.74.36H23.46l-1.15-1.16c-.16,0-.27.24-.46.38s-.28.39-.59.43a1.86,1.86,0,0,0-.64.35H19.25a6.13,6.13,0,0,1-1.13-.69,5.43,5.43,0,0,1-.65-1.08v-1.63a3.85,3.85,0,0,1,1.36-1.9c.35-.07.79.2,1-.32.42.13.74.42,1.3.29l.7,1c.31.06.08.55.59.5v1.33l-.34.34c.4.3.4.3.94-.15h.54a.78.78,0,0,0,.14.32c.31.28.52.69,1,.83l.72,0,0-.55L24.35,185h-.82c0-.06,0-.14,0-.17a3.48,3.48,0,0,1-1-1.34S22.45,183.5,22.39,183.5Zm-2.84,2.66h.81l.84-.9s0-.09,0-.14a2.6,2.6,0,0,0-1.24-.09c-.29,0-.61-.12-.91.12l0,.46C19.2,185.81,19.37,186,19.55,186.16Zm0-3c-.08.24-.46.3-.48.63.21.23.47.12.7.11a1.84,1.84,0,0,0,1.06-.1c0-.32-.34-.43-.5-.64Z"/><path class="cls-1" d="M12,7.18H9.27c-.28.3-.08.64-.17.93l-.54.54a14.65,14.65,0,0,1-1.74,0c0-.38-.06-.79.1-1,.32-.32.22-.68.33-1s.35-.58.38-1a1.7,1.7,0,0,1,.49-1.09c.42-.36,0-.91.38-1.17s0-.89.4-1.17.11-.7.23-1L9.67.7h1.92a4.23,4.23,0,0,1,.94,1.88,1.33,1.33,0,0,0,.13.33,2.58,2.58,0,0,1,.58,1.25c0,.55.46.83.46,1.36s.44,1,.44,1.51c0,.09.16.18.24.26V8.54c-.1.06-.15.12-.2.12H12.69ZM10.9,3.28l-.64.64a2.55,2.55,0,0,1,0,.67,2,2,0,0,1-.36.56,2.34,2.34,0,0,0,1.41,0c.24-.4-.08-.57-.2-.82A4.09,4.09,0,0,1,10.9,3.28Z"/><path class="cls-1" d="M356.18,8.66V.85c.09-.07.13-.15.18-.15h5.7a2,2,0,0,1,.09,1.41,3.25,3.25,0,0,1-1.31.1c-.44,0-.88,0-1.32,0h-1.35a2.5,2.5,0,0,0,0,1.51h3.5c.11.11.2.15.2.2,0,.38,0,.75,0,1.14a1.42,1.42,0,0,1-.12.13.35.35,0,0,1-.17.06h-3.35a2.63,2.63,0,0,0-.13,1.34c.1.06.2.17.31.17h3.25l.56.52V8.52c-.13.05-.24.14-.35.14Z"/><path class="cls-1" d="M8.36,220.87c0,.5,0,1,0,1.5,0,0,.08.09.23.23l.3-.63.17.12v-1a3.59,3.59,0,0,0,.41-.91,1.58,1.58,0,0,1,.32-.83c.15-.21.1-.58.13-.87a2.59,2.59,0,0,1,1.29-.09l.55.54v1.12l.38.41v.75l.28.28c.23.43,0,1,.2,1.51a2.13,2.13,0,0,0,.28-1.34l.37-.49v-1.09l.37-.36,0-1.21c.46-.28.9,0,1.27-.16.35.28.16.62.22.93l-.38.42v.73l-.38.41V222l-.34.34v1c-.56.77-.47,1.63-1,2.22h-.75l-.55-.55v-1.11l-.39-.43v-.73l-.39-.42c0-.42,0-.85,0-1.43l-.69.64c0,.39.08.91-.13,1.21s-.19.7-.32,1A2.12,2.12,0,0,0,9.5,225l-.52.56H8.12c-.18-.32-.18-.72-.53-.94v-1.11l-.27-.28c-.18-.35-.06-.73-.11-1.17l-.32-.43-.09-.81-.3-.3v-2c.31-.25.63-.1.93-.13L8,219.47v1Z"/><path class="cls-1" d="M179.6,2.21l-.55.56v.72l-.39.44V5.05l.37.4V6.2l.55.55h1.54l.75-1.5h.64l1.05.54c.06.45.08.87-.35,1.16.07.54-.43.71-.67,1s-.84.23-1,.66h-2.27c-.25-.48-.88-.36-1.2-.79s-.64-.59-.82-1l-.41-.79v-3c.44-.24.33-.64.35-1.16l1.28-1,1.31-.67h1.37l.4.36h.73a4,4,0,0,1,1.35,2.1l-.55.53a.57.57,0,0,1-.15,0h-.95l-.74-1.14Z"/><path class="cls-1" d="M25.62,225.6l-1.49-1.48c-.31.26-.26.75-.65,1s-.71.16-.91.51H21.12l-1.4-1.33c.12-.39-.2-.56-.36-.77v-1c.17-.37.48-.7.35-1.28l1.1-1h.63l.45-.37a3.94,3.94,0,0,1,1.42.74c.31.35.78.6.84,1.18a2.18,2.18,0,0,1,.23-.65,8.83,8.83,0,0,1,.8-.82c.46-.06,1,0,1.32-.44a1.22,1.22,0,0,1,.34.1,1.75,1.75,0,0,1,.28.27h.72c.79.49.79,1.47,1.34,2.1.13.14,0,.48,0,.76l-.36.38v.75l-1.33,1.33ZM20.88,222v1.51c.42.32.64.91,1.23,1a2,2,0,0,0,.83-1.1c.31-.18.65.1.91-.18,0-.36.23-.73-.15-1h-.86l-.59-.74h-.82Zm5.17-.53-.62.5v1.56c.45.3.64.95,1.31.95l1-1v-1.09a2.08,2.08,0,0,1-.5-.94Z"/><path class="cls-1" d="M34.53,180.66l.57-.57h4.5s.1.06.19.12v1.25c-.39.29-.84.1-1.26.13s-.76,0-1.14,0-.87-.12-1.31.13v.85c.08.07.12.14.17.15a2.41,2.41,0,0,0,.38,0h2.64c.18.26.53.37.57.71s-.35.5-.56.81h-3.1a2.61,2.61,0,0,0-.11,1.34.53.53,0,0,0,.13.13.37.37,0,0,0,.18,0h3.21l.61.57c.09.49-.27.61-.45.85,0,0-.1.09-.15.09H35.1l-.57-.57Z"/><path class="cls-1" d="M255.05,162.64l1.21,1.19.35.82a4,4,0,0,1,.15,1.62c-.44.28-.35.9-.8,1.19-.2.12-.41.5-.54.46-.47-.12-.56.54-1,.41s-.48-.68-1.1-.15c-.09.11.06.44,0,.73s0,.51,0,.85a8.52,8.52,0,0,1-1.72.1c-.11-.13-.17-.18-.17-.23q0-3.21,0-6.42c.18-.17.36-.35.55-.55h.75l.6.45.6-.47Zm-1.68,2.07c0,.54,0,1,0,1.53,0,0,.08.09.15.16h.8l.56-.52v-1.13c-.27-.21-.39-.66-.92-.58Z"/><path class="cls-1" d="M1,57.21l-.53-.53.49-.87.91-.48h1a1.8,1.8,0,0,0,.38.33,1.71,1.71,0,0,0,.49.1l.16.62.53.1.25-.73a1.44,1.44,0,0,0,.5-.1,1.43,1.43,0,0,0,.39-.34H6.72l.67,1,.12-.12a1.31,1.31,0,0,1,.09.34v3.16l-.87.88c-.26.17-.58,0-.88.07s-.5,0-.71,0l-.32-.32-.63-1.09c0-.62,0-1.3,0-2-.45.12-.3.42-.4.63L2.29,59.29c.37.39.84.12,1.39.22l.55.5-.49.49a1.1,1.1,0,0,1-.33.12c-1,0-1.89,0-2.82,0-.34-.25-.11-.6-.2-.83L3,57.17l-.45-.71C1.77,56.41,1.71,57.2,1,57.21Zm4.38,1.68.55.63.51-.13c0-1,0-1.89,0-2.8,0-.05-.08-.09-.12-.14h-.4L5.35,57Z"/><path class="cls-1" d="M3.08,16.41l-1.46-.66s-.05-.1,0-.11c.35-.37.71-.72,1.07-1.08.06-.36,0-.63-.44-.59S1.62,15.05.8,14.6l0-.67c.22-.72,1-.64,1.46-1.17l1.44.82a2.48,2.48,0,0,1,.12,1.35l-.28.34.48.62c.39-.42.14-.88.21-1.31.16-.24.41-.41.41-.78,0-.18.29-.44.5-.52s.59-.14.75-.41l1.05.59.7.7v3L6.2,18.57,5,18,4,17c-.06.17-.11.31-.17.45a1.16,1.16,0,0,1-.77.72,2.32,2.32,0,0,0-.62.36,3.91,3.91,0,0,1-2-1.38l0-.37c.25-.28.59-.08.88-.14.28.25.55.51.84.78A1,1,0,0,0,3.08,16.41ZM5.94,14l-.58.42v2.43l.53.48.57-.51v-2.3Z"/><path class="cls-1" d="M35.42,205.81l-.51-1v-.6l-.38-.42v-4.16c.24-.19.39-.48.59-.55.51-.06.61.32.89.51v4.06l.86,1.44h1.3l.92-1.06v-4.41l.55-.55c.47-.11.64.29.94.54v4.46l-.88,1.7-1.69.87H37c-.12-.11-.24-.34-.39-.35A.88.88,0,0,1,36,206C35.85,205.89,35.63,205.88,35.42,205.81Z"/><path class="cls-1" d="M318.22,204.55v-3.38l.37-.41,0-.45a7.56,7.56,0,0,1,.92-.83c.18-.12.44-.09.65-.27a.73.73,0,0,1,1,0c.21.17.47.17.64.28a6.75,6.75,0,0,1,.95.9v.77c-.23.32-.57.14-1,.21l-.58-.77h-.89c-.23.31-.81.45-.46,1.09.63.1,1.32,0,2,.07l.81.8a2,2,0,0,0,.49.93v.86a8.8,8.8,0,0,1-.44,1,4.35,4.35,0,0,1-1.45,1.07.89.89,0,0,1-1.15,0c-1-.52-1-.52-1.59-1.58A1.69,1.69,0,0,0,318.22,204.55Zm3.42-1.05-.54-.64h-.8l-.56.55v.88l.5.83h.86l.54-.5Z"/><path class="cls-1" d="M318.23,224.21v-1.36l.8-1.46-.39-.54v-1.6l1.15-.81h1.53l1,.43c.24.23-.12.82.46.8v1.19l-.42.49c.25.46.49.93.8,1.53v.94a5.7,5.7,0,0,1-.64,1.08,5.63,5.63,0,0,1-1.13.69h-1.84Zm1.51-1.45v1.14l.55.55h.61l.7-.48v-1.25l-.54-.51h-.77Zm1.39-1.75c.22-.37.09-.75.12-1.1s-.22-.38-.47-.37l-.55,0c-.17.31-.63.45-.48.92l.52.52Z"/><path class="cls-1" d="M321.63,182.37c.13.56.86.37,1.14,1.09a1.22,1.22,0,0,0,0,.48,3.1,3.1,0,0,1,0,1.76,2.17,2.17,0,0,0,0,.57c-.21.58-.89.57-1.33,1H320l-1-.56,0-.37-.7-.7v-3.4a11.18,11.18,0,0,1,.69-1.14,9.61,9.61,0,0,1,.95-1h1.51l1.33.81v1.29c-.36.27-.75.1-1.11.15,0-.19,0-.38,0-.56-.29-.21-.42-.65-1-.57l-1,1,.21.56.43-.4Zm0,1.44c-.52.39-.64-.12-.93-.28l-.94.92v1.14l.53.54a1.47,1.47,0,0,0,.92-.08l.42-.46Z"/><path class="cls-1" d="M389.14,205.25v-1l-.34-.45v-2.23a4.18,4.18,0,0,0,.67-1.16c.08-.42.28-.8.58-.88.51-.14.89-.72,1.51-.47.26.13.4.52.77.39a4.23,4.23,0,0,1,1.37,1.85v3.12a4.14,4.14,0,0,1-1.37,1.84c-.37-.13-.51.26-.79.4a1.66,1.66,0,0,1-.71-.06A4,4,0,0,1,389.14,205.25Zm3-.69v-3.42l-.54-.54c-.3,0-.6-.11-.88.07l-.41.41s-.05.1,0,.07v3.45l.53.51h.77Z"/><path class="cls-1" d="M131.88,206.65c-.28-.14-.42-.53-.83-.38l-.93-1v-.71l-.39-.41v-2.64l.39-.42v-.74q.4-.42.81-.81a2.09,2.09,0,0,0,.94-.52c.24,0,.53,0,.72.06a4.05,4.05,0,0,1,1.69,1.35c0,.36-.13.77.34,1v2.65a1.46,1.46,0,0,0-.34,1.13,4,4,0,0,1-1.69,1.34A1.66,1.66,0,0,1,131.88,206.65Zm1.26-2.09v-3.42l-.54-.54c-.3,0-.6-.11-.88.07s-.28.27-.41.41-.05.1,0,.07v3.45l.53.51h.77Z"/><path class="cls-1" d="M305.33,204.17l-.39.42v.7l-.94,1c-.41-.15-.55.24-.83.38a1.66,1.66,0,0,1-.71-.06,3.87,3.87,0,0,1-1.68-1.34c0-.36.12-.78-.35-1v-2.65a1.45,1.45,0,0,0,.35-1.12,4,4,0,0,1,1.68-1.35c.19-.11.49,0,.71-.06.28.15.42.53.83.39l.94,1v.7l.39.42Zm-2.85,1h.76l.57-.57v-3.36c0-.05-.07-.1-.1-.15a1.06,1.06,0,0,0-1.3-.4l-.48.5v3.43Z"/><path class="cls-1" d="M221.51,201.49l.37.41v1.88l-.38.42v.74c-.44.35-.39,1.05-.94,1.32h-.75l-.41.38c-1.44-.55-1.44-.55-2.4-2.07v-3.34a6.25,6.25,0,0,1,.42-.92,8.45,8.45,0,0,1,.66-.68c.25-.28.68-.19.94-.51a.7.7,0,0,1,.7,0c.32.3.8.27,1.09.6A5,5,0,0,1,221.51,201.49Zm-3-.35v3.42l.57.56c.27-.06.58.11.81-.06l.49-1v-2.47l-.55-1H219Z"/><path class="cls-1" d="M141.54,182.32H143c.53.31.89.51,1.24.73s.23.83.64,1v1a10.37,10.37,0,0,1-.69,1.14,11.13,11.13,0,0,1-1,1h-1.72L140,185.74v-.57c.41-.3.86-.09,1.28-.15a2.16,2.16,0,0,0,.8,1.13h.76l.54-1.07v-1l-1.09-.6-1.52.78c-.43-.07-.62-.37-.84-.78l.41-.61V181.1a2.2,2.2,0,0,0,.53-1h3l.6.5c.08.52-.32.68-.55,1h-1.87C141.89,181.81,141.61,181.94,141.54,182.32Z"/><path class="cls-1" d="M264.37,165.75l.73-.58c.15-.64-.82-.86-.4-1.3.21-.82.93-.73,1.34-1.18h1.89l.79.7.53,1.1v3.32c-.38.3-.83.1-1.25.14s-.76,0-1.15,0l-.41.38c-.11,0-.28.06-.35,0a3.26,3.26,0,0,0-.78-.42c-.37-.16-.64-.58-.94-.89Zm3,.43a1,1,0,0,0-1.09,0l.11.59h.45C267,166.61,267.27,166.49,267.34,166.18Zm-1.49-1.42.44.17,1.11-.58c-.29-.35-.66-.16-1-.14Z"/><path class="cls-1" d="M312.91,201.14v3.4c-.46.26-.42.83-.76,1.21s-.86.44-1.22.77a.7.7,0,0,1-.86.07c-.36-.36-1-.29-1.19-.78s-.63-.89-.54-1.5c0-.13-.16-.3-.32-.57V201.8c0-.09.47-.22.33-.58s.37-.72.43-1.16.51-.65,1-.69c.64-.83,1.27-.1,1.78.11a1.87,1.87,0,0,1,1.11,1.38C312.66,201,312.81,201,312.91,201.14Zm-3.41,0v3.41l.54.54A1.38,1.38,0,0,0,311,205l.41-.45V201.1l-.54-.51h-.77Z"/><path class="cls-1" d="M122.64,205.4c-.15-.35-.25-.56-.19-.43-.24-.37-.31-.42-.31-.47v-3.12a6.08,6.08,0,0,1,.45-1c.17-.25.45-.43.65-.68s.71-.16.94-.52c.06-.1.37-.12.52-.06.59.24,1.34.35,1.59,1,.16.43.62.79.42,1.36,0,.09.2.28.34.47v1.86l-.36.41c0,.22.11.58,0,.71-.39.4-.34,1.08-.93,1.35H125l-.48.45a7.12,7.12,0,0,0-.92-.43C123.12,206.09,122.9,205.6,122.64,205.4Zm2.9-4.24c-.44-.57-.86-.73-1.41-.5l-.45.48v3.4l.53.58H125l.55-.56Z"/><path class="cls-1" d="M221.89,185h1.32c.34.34.25,1,.87,1.12h.67l.51-.5c.17-.46-.06-1,.07-1.54l-.58-.58H224l-.78.74h-.75c0-.06-.13-.1-.14-.15a7.06,7.06,0,0,1,0-1.59l.34-.33v-1.55l.62-.51h3.05a2.54,2.54,0,0,1,.11,1.3c-.1.06-.2.17-.3.17h-2.27l-.07.66a7.64,7.64,0,0,0,1.73.1l1.3,1.44v1.76c-.41.22-.35.73-.63,1.07s-.87.19-1.06.65H223.6c-.35-.47-1.23-.34-1.33-1.1C222.22,185.77,221.7,185.51,221.89,185Z"/><path class="cls-1" d="M221.89,185c-.35.21-.35.21-.38.85l-1.48,1.4h-1.3a4.37,4.37,0,0,1-1-.61,5.64,5.64,0,0,1-.71-1.13v-3.34c.1-.1.3-.22.33-.38a1.09,1.09,0,0,1,.28-.65c.11-.11.12-.32.2-.54l1-.51h1.4l1.31,1.4v.64l.39.41Zm-2.47-3.79c-.56,0-.66.37-.9.53v3.89l.52.48h1c-.29-.49.12-.66.32-.94v-3Z"/><path class="cls-1" d="M309.67,180.1h1.41l1.05.53,0,.39.76.79v3.77c-.29.38-.81.59-.8,1.18,0,.05-.2.1-.3.16l-.73.38h-1.4l-1.32-1.36v-.71c-.13-.14-.25-.28-.38-.41v-2.26l.39-.41v-.67Zm1.7,1.67a2.62,2.62,0,0,0-.3-.29c-.14-.11-.29-.2-.44-.3-.51.24-.76.69-1.13,1v2.9l.54,1a1.44,1.44,0,0,0,.91-.08l.42-.46Z"/><path class="cls-1" d="M123,180.63l1-.52h1.41l1.29,1.49v.89l.39.45v1.88l-.36.4V186l-1.4,1.32h-1.43c-.31-.47-1.06-.32-1.31-.91-.08-.39.08-.88-.41-1.15v-3c.1-.11.3-.23.33-.39a1.09,1.09,0,0,1,.28-.65C122.87,181.05,122.88,180.84,123,180.63Zm2.59,4.57v-3c-.25-.24-.51-.52-.79-.76a2.44,2.44,0,0,0-.51-.22l-.56.69v3.77c.27.18.37.56.93.52C124.86,185.9,125.21,185.56,125.55,185.2Z"/><path class="cls-1" d="M282.57,165.86l-.37.4.28.28a2.17,2.17,0,0,1-.63,1.17,10.33,10.33,0,0,1-1.09.62h-.92a4.28,4.28,0,0,1-2.18-2.07v-1.52c.09-.22.5-.34.35-.77l1.4-1.32h1.44c.22.42.74.34,1.07.64s.2.86.65,1.06Zm-2.47-1.7c-.15.23-.46.33-.49.65a1,1,0,0,0,1.08-.07l-.13-.58Zm0,2.62.56-.53a.83.83,0,0,0-1.16,0Z"/><path class="cls-1" d="M277.26,167.93h-2.33l-.67.45-.45-.27c-.16-.08-.32-.13-.65-.27l-.81-.94v-3.68l.51-.55.75,0,.6.55c0,1,0,2,0,3.08l.57.57.53-.67v-2.89l.53-.58h.85l.54.51Z"/><path class="cls-1" d="M144.48,199.43v1c-.44.25-.89.1-1.31.13s-.76,0-1.13,0l-.5,1c.41.52.66-.14,1-.22a12.37,12.37,0,0,1,1.4.72c.48.37.48,1,.93,1.35v1.14c-.12.24-.55.35-.33.74l-1,1h-.71l-.6.48-.63-.48h-.7c-.59-.27-.55-.95-.93-1.35-.13-.13,0-.48,0-.73.24-.32.58-.13.87-.19.42.28.79.59.69,1.14h1.29l.54-.57v-1.13l-.54-.58-1.2.06c-.44.53-1,.29-1.52.27-.24-.3-.09-.61-.12-.91l.34-.33V200.6l.59-1.17Z"/><path class="cls-1" d="M221.89,220.83v2.26l-.36.43v.65l-1.48,1.41h-1.29l-.92-.46-.86-1.74v-2.84a1.42,1.42,0,0,0,.36-1.12c.23-.57.87-.59,1.35-1H220l1.33,1.33C221.63,220,221.31,220.56,221.89,220.83Zm-2.73,3.73a4.74,4.74,0,0,0,1.2-1.06v-2.89l-.54-1.07H219l-.5.6v3.8Z"/><path class="cls-1" d="M304.77,181.24l.22.47c.27.42.33.47.33.52,0,1,0,2,0,2.88a12,12,0,0,1-.69,1.15,12.76,12.76,0,0,1-1,1h-1.48l-.9-.41-.89-1.8V182.3l.45-.87,1.23-1.33h1.48Zm-1,.91c-.41-.29-.61-.81-1.14-1-.34.1-.49.41-.74.6,0,1.25,0,2.51,0,3.77,0,.05.07.09.14.19l.47.42.77,0a2.13,2.13,0,0,1,.49-1Z"/><path class="cls-1" d="M123.85,225.6l-.41-.38h-.36l-.94-1.84v-2.87a4,4,0,0,0,.73-1.39c.13-.32.3-.3.54-.36s.28-.22.45-.35h1.53l1.29,1.44v.6l.39.42v1.88l-.38.4v1.12l-1.32,1.33Zm-.19-5.28v3.62c.3.13.41.62.76.39l1.1-.73v-3.16c-.42-.31-.63-.83-1.26-.93Z"/><path class="cls-1" d="M390.64,180.11H392c.22.08.33.53.73.32l1,1.87v2.8c-.27.53-.54,1-.88,1.69l-.92.48h-1.24l-1.57-1.58s.27-.56-.27-.82v-2.3l.34-.4v-.73Zm-.36,4.93.58,1.11h.76l.56-.56c0-1.24,0-2.5,0-3.76,0-.05-.06-.09-.1-.14-.24-.18-.36-.54-.87-.44l-.92.9Z"/><path class="cls-1" d="M401.27,181.88v3.68c-.14.23-.4.39-.4.76,0,.18-.28.4-.49.53a7.13,7.13,0,0,1-1,.43h-1.29a3.47,3.47,0,0,1-1.34-2v-.75l-.39-.45v-.74l.37-.4v-1l.62-1.1.7-.7h1.5c.22.41.8.26,1,.64S401,181.44,401.27,181.88Zm-1.51,3.36v-3.43c-.27-.21-.4-.65-.87-.58-.62.27-.63,1-1,1.39v2.69c.47.17.56.83,1.28.86Z"/><path class="cls-1" d="M402.3,219.09l.68-.68h1.92l1.3,1.39v1l.39.42v1.49l-.38.41v.59a4.13,4.13,0,0,1-1.37,1.86h-1.47c-.21-.44-.74-.33-1.06-.64s-.2-.86-.65-1.06v-3.71Zm2.77,1.36c-.48-.34-.67-.88-1.37-.94l-.53.63v1.12c-.48.29-.39.73-.34,1.14l.37.43v1.09c.46.46.47.46.93.54l.94-.94Z"/><path class="cls-1" d="M388.77,223.13v-2.25l.38-.41v-.73l1.32-1.34H392l.41.38h.37l.93,1.83v2.88c-.14.24-.51.38-.37.79L392,225.6h-1.5l-1.31-1.37v-.69Zm1.51-2.52v2.93c.26.25.51.53.8.77a2.45,2.45,0,0,0,.51.21l.55-.66v-3.8l-.53-.51h-.78Z"/><path class="cls-1" d="M398.92,206.66a1.93,1.93,0,0,0-.55-.38,1.85,1.85,0,0,0-.61,0c-.67-.25-.55-.91-1-1.3v-1.48l-.48-.57.42-.72v-1.3l.89-1.46a2.68,2.68,0,0,0,.75,0,2.91,2.91,0,0,0,.6-.39l1.32.66a3,3,0,0,1,.47.53,9.85,9.85,0,0,1,.55,1.05v3.22c-.38.59-.58,1.29-1.2,1.62A5,5,0,0,1,398.92,206.66Zm-1.05-2.51c.33.21.34.6.54,1,.39,0,.81,0,1.23-.08,0,0,.08-.08.12-.13,0-1.37,0-2.75,0-4.12,0-.05-.07-.1-.13-.19h-1.22l-.54,1Z"/><path class="cls-1" d="M129.73,220.87l.38-.41v-.69l1.31-1.37h1.41l1.08.56c.09.09-.06.58.35.75a.81.81,0,0,0,.4.77v2.64l-.38.4v.75L133,225.6h-1.52l-1.32-1.34v-.73c-.13-.14-.26-.27-.38-.41Zm3.4-.36c-.32-.22-.34-.61-.51-.94h-1.08c.38.54-.16.65-.28.92v2.91l.56,1.06h.76l.55-1.07Z"/><path class="cls-1" d="M303.59,218.4l1.36,1.36v.35l.28.27c0,.05.09.1.09.15,0,1,0,2,0,2.75a5,5,0,0,1-.45,1c-.36.44-.79.81-1.23,1.25h-1.39L300.72,224l-.31-.68v-2.86l.36-.39v-.38l1.39-1.32Zm-1.68,5.5.57.56c.27-.05.58.12.81-.05l.49-1v-2.91c-.16-.25-.27-.4-.35-.55s-.12-.31-.17-.43h-.79l-.56.55Z"/><path class="cls-1" d="M131.44,187.3l-.41-.39h-.37l-.54-1.07v-.59l-.39-.42v-2.26l.37-.4v-.75l1.36-1.33H133l1.31,1.38v.68l.39.41v2.25l-.38.41V186L133,187.3Zm.32-6c-.17.32-.19.72-.51.93v2.89l.55,1.06h.76l.53-1v-2.78l-.46-1.11Z"/><path class="cls-1" d="M41,167.92H39.22a.81.81,0,0,1-.14-.19,1.2,1.2,0,0,1,0-.19V162.8c-.57-.36-1.24,0-1.85-.28v-1.21l.5-.56h4.58l.56.57c0,.35,0,.73,0,1.1,0,.05-.07.1-.16.21H41.18c-.11.12-.19.16-.2.21a2.29,2.29,0,0,0,0,.37Z"/><path class="cls-1" d="M313,186.75c.26-.52.53-1.09.82-1.67l.48-.12,2-2v-.36l.38-.41c-.39-.3-.63-.78-1-1-.51.07-.64.5-1,.68s-.17.71-.39.83c-.65.09-.76-.35-1-.57v-.75l1.31-1.31h1.73l1.11.57V181l.36.36a12.9,12.9,0,0,1,0,1.53,2.84,2.84,0,0,0-.36.45,1.09,1.09,0,0,0-.05.38c-.74.6-1.25,1.5-2.21,1.85.38.35.83.13,1.25.16s.87,0,1.34,0v1.37a.8.8,0,0,1-.13.13.52.52,0,0,1-.18,0h-4Z"/><path class="cls-1" d="M45.15,188.62c-.25.18-.37.51-.7.57s-.5-.33-.82-.54v-1.31c-.6-.09-1.17,0-1.63-.05L40.61,186v-2.52l.45-1,1.69-.82.3.3h1.89c.12.11.18.15.2.2s0,.12,0,.19Zm-1.41-4.43c-.22-.4,0-.75-.26-1H42c.38.53-.15.64-.3,1-.23.55.24.91.38,1.35a1.06,1.06,0,0,0,.86.73c.62-.36.77-1.08,1.1-1.65Z"/><path class="cls-1" d="M224,205.09h1.15c.07-.08.14-.13.15-.17V203c-.25-.31-.59-.17-.88-.19s-.61,0-.83,0l-.36.36a2,2,0,0,1-.92-.07v-1.61l.35-.44V199.6c.11-.09.16-.16.21-.16h3.38c.38.34.05.71.29,1.12H224c-.11.11-.2.15-.2.2,0,.3-.12.61.11.92l.64-.39.62.42h.61c.64.24.57,1,1,1.32v1.92l-1.39,1.28-.8.42h-.4c-.44,0-.56-.6-1-.4l-.94-.9c.17-.42-.22-.56-.33-.82l.56-.56C223.2,204,223.41,204.72,224,205.09Z"/><path class="cls-1" d="M54.05,201l.4.36.4-.35c.5-.08.64.36.92.57V208a2.16,2.16,0,0,1-1.47.1v-1.61c-.38-.36-.42.09-.67.15h-.7l-.78-.75-.39,0-.54-1v-2.54L52.57,201Zm-1.13,4.17c.43-.05.87.13,1.27-.12a1.83,1.83,0,0,1,.45-1.34c-.35-.53-.37-1.28-1.09-1.58l-.69,0a2.13,2.13,0,0,1-.49,1v1Z"/><path class="cls-1" d="M213.92,223.89c-.37.19-.29.64-.53.91s-.53.54-.79.8h-1.92c-.16-.17-.35-.34-.51-.53a6.13,6.13,0,0,1-.42-.58c-.12-.2-.22-.42-.38-.7v-3.68c.38-.19.3-.64.53-.91s.53-.54.8-.8h1.91a8.34,8.34,0,0,1,.77.8,7.06,7.06,0,0,1,.54,1Zm-2.44-4.38-.55.56c-.08.4.08.88-.43,1.16.05.53,0,1.08,0,1.55l.35.35v.78c.21.17.44.37.68.55,0,0,.12,0,.19,0,.67-.22.59-1,1-1.38v-2.24C212.3,220.48,212.41,219.63,211.48,219.51Z"/><path class="cls-1" d="M315,219.53l-.28.72-.92.72-.47-.91v-.19c0-.06,0-.14,0-.18l1.24-1.25h1.88l1,.49.09.45.24.25s.1.09.1.14c0,.5,0,1,0,1.24a3.28,3.28,0,0,1-1.88,2.14c-.3.12-.52.49-.78.75.43.35.88.15,1.31.18s.86,0,1.31,0v1.36c-.06.06-.1.14-.15.15a2.41,2.41,0,0,1-.38,0h-3.79l-.55-.55a1.41,1.41,0,0,0,.34-.39,3.72,3.72,0,0,1,1.45-1.83c.57-.49,1.08-1.06,1.61-1.59v-.38l.31-.31-.49-1Z"/><path class="cls-1" d="M209.37,204.44v-3.19c.34-.41.44-1,.84-1.36s.94-.49,1.42-.89l.65.41H213a7.69,7.69,0,0,1,.57.67,6.09,6.09,0,0,1,.35.93v4a13.47,13.47,0,0,1-1.08,1.06,8.64,8.64,0,0,1-1.08.61,3.24,3.24,0,0,1-2.36-2.2Zm3-3.87h-1.27c-.05,0-.09.08-.2.19v1.08l-.37.5v1l.38.42c0,.35,0,.73,0,1.11,0,0,.08.09.13.15a1.92,1.92,0,0,0,1.39-.13v-.76l.36-.4v-1.9l-.31-.31Z"/><path class="cls-1" d="M46.27,205.3c.12-.4-.22-.56-.36-.77v-1.37c.06-.1.12-.2.17-.3a2.32,2.32,0,0,1,.21-.48c.4-.48.83-.93,1.25-1.4h1.53a4.53,4.53,0,0,1,1,.6,6,6,0,0,1,.71,1.12v1.08l-.34.39.36.39a5.36,5.36,0,0,1-1,1.7h-.74l-.41.37h-.62a6.69,6.69,0,0,1-1-.55A9.78,9.78,0,0,1,46.27,205.3Zm1.24-.77.4.57h1.22l.59-.55A3.63,3.63,0,0,0,47.51,204.53Zm0-1.76a4.88,4.88,0,0,0,1.43.07.35.35,0,0,0,.21-.08l-.56-.7-.83.41-.3.15S47.5,202.7,47.52,202.77Z"/><path class="cls-1" d="M317.84,200.38v2L315.22,205c.36.33.82.11,1.24.15s.86,0,1.33,0v1a.75.75,0,0,1-.3.14h-4l-.45-.56.49-.91,2.89-2.85-.14-.1.42-.74-.52-.53H315a2.07,2.07,0,0,1-.78,1.12h-.77c-.32-.41-.1-.86-.17-1.37a8.06,8.06,0,0,1,.8-.71,10.65,10.65,0,0,1,1-.55h1l.41.38h.36Z"/><path class="cls-1" d="M51.9,183.86c-.24,0-.56,0-.87,0-.33-.23-.13-.57-.24-1l1.11-.86c.39.06.83-.32,1.33-.48l.46.4h.68c.59.26.59.92,1,1.32v4l-.8.05-.64-.44-.68.4H51.77c-.19-.06-.31-.49-.7-.35a4.64,4.64,0,0,1-.63-1.76l1-.72c.09-.31.63,0,.48-.58.67,0,1.27,0,2,0l0-.69H52.53A5.22,5.22,0,0,0,51.9,183.86Zm1.45,2.3a3.4,3.4,0,0,0,.46-.52.43.43,0,0,0-.14-.62H53l-1.1.63.21.51Z"/><path class="cls-1" d="M65.89,206.19c-.71.05-.71.05-1.16-.26a2,2,0,0,1-.58.32c-.42.06-.67.59-1.16.39l-1.37-.79-.54-.53c-.27-.62.43-1,.39-1.54.53-.24,1-.65,1.67-.55l.41-.38c.28-.07.61.13,1-.24l-.71-.5h-.69l-.71.7H61.6c-.25-.31-.1-.63-.13-.92.27-.56,1-.5,1.31-.94h1.9L66,202.31c0,1.23,0,2.49,0,3.75C66,206.1,65.93,206.15,65.89,206.19Zm-1.36-1.67-.17-.48-.54.34c-.29.12-.83-.24-1.25.2l.11.51h1.25Z"/><path class="cls-1" d="M209.37,185.59v-3.78c.43-.22.35-.74.64-1.06s.87-.2,1.07-.66h1.13c.21.43.74.35,1.06.65s.2.86.65,1.06v3.78c-.42.22-.35.73-.64,1.06s-.86.2-1.06.66h-1.13c-.22-.44-.74-.35-1.07-.65S209.83,185.79,209.37,185.59Zm2.43.58c.58-.2.58-1,.95-1.39V182.5c-.51-.35-.36-1.25-1.36-1.28l-.5.85v.48l-.38.4v1.5l.39.42v.78C211.19,185.75,211.25,186.15,211.8,186.17Z"/><path class="cls-1" d="M66.34,183.86c-.27,0-.58,0-.9,0-.32-.23-.13-.57-.24-1l1.11-.86c.39.06.83-.32,1.34-.48l.45.4h.68c.59.26.59.92,1,1.32v4l-.79.05-.64-.44-.69.4H66.29l-.93-.46-.5-1a9.58,9.58,0,0,0,.6-1.2c.17-.45.88-.15.88-.74.65,0,1.25,0,1.93,0l0-.69H66.94A4.11,4.11,0,0,0,66.34,183.86Zm1.34,2.27.63-.55-.11-.49c-.78-.29-1.22.35-1.84.52l.12.52Z"/><path class="cls-1" d="M231.74,181.88v3.63a5.24,5.24,0,0,1-.65,1.09,6.13,6.13,0,0,1-1.13.69h-1.42a4.33,4.33,0,0,1-1.34-1.68v-3.73a5.73,5.73,0,0,1,.66-1.09,6,6,0,0,1,1.12-.69h1c.22.41.8.26,1,.64S231.49,181.45,231.74,181.88Zm-2.16,4.3a1.45,1.45,0,0,0,.31-.25c.25-.4.48-.8.69-1.15v-2.26c-.49-.37-.37-1.23-1.23-1.3a1,1,0,0,0-.59.58,1.25,1.25,0,0,1-.42.76v2.26C228.83,185.16,228.67,186,229.58,186.18Z"/><path class="cls-1" d="M139.21,201.88l-.33.37.67,1.26v1.35l-.46.92-1.38.65c-.56.28-.64.28-1.16,0a3.62,3.62,0,0,1-.63-.27,11,11,0,0,1-.85-.83v-1.21c.29-.29.62-.09.92-.16.13.26.25.53.4.78a2.19,2.19,0,0,0,.31.32H138a13.3,13.3,0,0,0,.09-1.81l-1.37-.07c-.3-.28-.1-.62-.17-.92l1.51-.76c.08-.5-.34-.66-.56-1h-.75c-.43.26-.57.74-.81,1.14-.46.07-.62-.35-.9-.57v-.79a7.19,7.19,0,0,1,.94-.88c.17-.11.43-.09.64-.27a.74.74,0,0,1,1,0c.21.17.47.16.64.27a6.79,6.79,0,0,1,1,.91Z"/><path class="cls-1" d="M227.2,200.8l1.33-1.37c.4.14.54-.25.86-.4l1.12.49,1.21,1.21v4.05l-1.52,1.5-.74.39c-.12-.08-.26-.18-.41-.26s-.33-.13-.62-.24l-1.23-1.28Zm3.41,3.36v-2.51l-.54-1.05a2.59,2.59,0,0,0-1.29.08l-.11.86-.3.37v1.94c.56.26.2.82.5,1.28a11.77,11.77,0,0,0,1.26,0,1.73,1.73,0,0,1,.11-.49A2.42,2.42,0,0,1,230.61,204.16Z"/><path class="cls-1" d="M408.06,220.67h-.9l-.54-.53c.11-.27.5-.4.34-.8l1-.93h1.89c.41.42.84.88,1.31,1.38v1.06l-.44.48.82,1.58v.86a4.72,4.72,0,0,1-.61,1.08,5.2,5.2,0,0,1-1.11.72s0,0-.08,0c-.44,0-.89,0-1.33,0a5.34,5.34,0,0,1-1.19-.75,5.92,5.92,0,0,1-.7-1.31c.23-.23.46-.43.6-.57.6-.09.73.34,1,.56-.09.47.32.64.55.93h.81l.51-.61v-1.09l-.47-.51-.88-.1c-.28-.26-.08-.6-.16-1l1-.19c.28-.41,0-.86.15-1.23-.27-.36-.62-.17-.91-.23C408.36,219.84,407.91,220.09,408.06,220.67Z"/><path class="cls-1" d="M227.2,219.76l1.31-1.36h1.91l1,.94c-.14.4.23.55.43.89l-.77,1.5.71.44v2.12l-1.37,1.31h-1.82l-1.35-1.31v-.78l.57-.56,1.56,1.56c.65-.17.92-.67,1.29-1.06-.07-.66-.72-.82-.94-1.29h-.81c-.32-.28,0-.63-.18-.88.25-.36.6-.18,1.07-.26l.46-.51c.08-.56-.35-.7-.57-1h-.75l-.63,1.09h-.92C227.06,220.35,227.27,220,227.2,219.76Z"/><path class="cls-1" d="M135.14,185H136a2.11,2.11,0,0,1,.8,1.12h.75l.55-.55v-1.13c-.22-.44-.68-.06-.95-.25l-.6-.55a1.43,1.43,0,0,1,.19-.49,1.35,1.35,0,0,1,.57-.42c.42-.08.59-.38.8-.67.08-.5-.45-.55-.53-.86-.41,0-.41,0-1.51,1.09h-1l0-.7c0-.11,0-.19,0-.23l1.24-1.25a7.32,7.32,0,0,1,1.42,0c.5.31,1.15.39,1.47,1v1.81l-.36.4.71.71v1.89a3.67,3.67,0,0,1-1.91,1.37,2.1,2.1,0,0,0-.79,0c-.51.14-.71-.46-1.17-.42-.18,0-.22-.2-.28-.38C135.24,186.08,134.86,185.7,135.14,185Z"/><path class="cls-1" d="M75.49,204.56l.38-.4,0-.38,1-.54h.61l.41-.39c.29-.07.62.13,1-.24l-.67-.52h-.7l-.72.72H76c-.24-.32-.1-.63-.12-1,.22-.16.46-.35.72-.51s.41-.22.7-.38h1.78l.94,1v2.25l.39.41v1.5c-.31.33-.67.29-1.31-.15-.12.1-.25.32-.37.31-.51,0-.81.6-1.35.42L76,205.85l-.53-.53Zm1.55.56h1.11l.84-.56-.25-.59-.23.21c-.61.34-1.06,0-1.47.34Z"/><path class="cls-1" d="M9.88,187.27h-1l-.54-.5v-5c-.62-.38-1.29,0-1.89-.3v-1.21c.07-.08.11-.16.16-.16a2.29,2.29,0,0,1,.37,0h4.55c.18.24.51.37.57.7s-.33.5-.54.81H10a1.46,1.46,0,0,0-.15.4C9.87,183.7,9.88,185.4,9.88,187.27Z"/><path class="cls-1" d="M39.92,225.61l-.68,0c-.08-.1-.15-.14-.15-.19,0-1.63,0-3.27,0-4.9.29-.38.7-.14,1.05-.19a7.9,7.9,0,0,1,1,0l.42-.34.4.33h.72l.53.51c.19.37-.12.91.43,1.17v3.17l-.6.47c-.47.1-.59-.38-.89-.52,0-1.22,0-2.4,0-3.61H40.75c-.06.06-.12.09-.14.15s0,.12,0,.18v3.26Z"/><path class="cls-1" d="M37.37,220.29c.18.18.37.35.53.54a4.75,4.75,0,0,1,.42.58c.12.2.22.41.38.71v1.76c-.42.22-.36.73-.63,1.06s-.87.19-1.07.66H35.5c-.22-.42-.8-.27-1-.64s-.42-.71-.68-1.14v-2.2l1.41-1.31h.62l.42-.38.4.36Zm-2.08,2.08-.37.4a1.52,1.52,0,0,1,.41,1.15l.52.54h.77l.56-.56c0-.6,0-1.22,0-1.85,0-.05-.06-.1-.11-.17l-.5-.46c-.45.09-.92-.19-1.28.2Z"/><path class="cls-1" d="M8.35,205.65v-4.91c-.55-.37-1.21,0-1.79-.26-.19-.28-.07-.59-.07-.89l.54-.53h4.33l.76.47c.09.61-.28.71-.49,1H10.05c-.08.17-.17.28-.17.39,0,1.57,0,3.15,0,4.72,0,.18,0,.35,0,.5C9.23,206.4,8.81,206.24,8.35,205.65Z"/><path class="cls-1" d="M264,164.72l-.38.41a1.54,1.54,0,0,1,0,.57c-.36.74-.75,1.46-1.08,2.09a2.6,2.6,0,0,1-1.4.14l-.54-.54v-.74l-.39-.42v-.61L259,163.23l.82-.57h.64a11.64,11.64,0,0,1,1.45,2.63c.44-.25,0-.77.29-1s.29-.65.31-1.07l.51-.55h1.24c.28.25.08.58.15.88L264,164Z"/><path class="cls-1" d="M60.57,206.23H59.09l-.51.41a1.4,1.4,0,0,1-.64,0c-.48-.23-.92-.54-1.38-.82v-4.7c.28-.28.61-.08.91-.15.06.1.18.19.19.29,0,1.13,0,2.25,0,3.2l.54.67H59c.06-.06.15-.1.15-.15V202c.18-.38.7-.5.34-1h1.06C60.78,201.22,60.78,204,60.57,206.23Z"/><path class="cls-1" d="M226.75,218.52c.36.67-.26,1.11-.42,1.66-.1.37-.72.5-.65,1-.35.2-.28.67-.53.9s-.17.7-.24,1l-.38.43v1.48l-.55.55h-.8c-.3-.5-.09-1.07-.16-1.64l.36-.45v-1c.63-.75.69-1.82,1.56-2.39-.14-.07-.24-.18-.34-.18h-2.19l-.52-.6c-.07-.5.37-.63.58-.91h4.14S226.7,218.48,226.75,218.52Z"/><path class="cls-1" d="M31.33,224.11c-.44.4-1,.72-1.06,1.4a1.36,1.36,0,0,1-.89.06l-.55-.55c.69-.45.81-1.37,1.51-1.85v-.78c-.15-.35-.64-.49-.75-1a5,5,0,0,0-.42-.91c.45-.4.91-.16,1.33-.23.24.4.37.88.82,1.13l1.08-1.09h1.23l.12.18c-.58.39-.7,1.13-1.21,1.58a3.31,3.31,0,0,0-.26.27,6.25,6.25,0,0,0,.62,1.42c.47.34.52.94.86,1.36.05.06,0,.22-.06.35-.26.26-.6,0-.86.13Z"/><path class="cls-1" d="M53.11,164.75l-.74-.79v-.76l.54-.54c.29-.3.25-.8.66-1s.77,0,.81-.59c.41.53.19,1,.25,1.4.33.34.95.27,1.13,1.05V164l-1.09.62v1.69c.35.2.79.28,1.06.7v.84c-.55.1-.89.7-1.53.49-.46-.17-.71-.63-1.09-.94Z"/><path class="cls-1" d="M41.36,201c.82-.07.82-.07,1.3.26l.41-.33h1.57L45.5,202v4.07c-.28.29-.61.09-.91.16-.06-.09-.19-.19-.19-.28,0-.94,0-1.89,0-2.82l-.6-1.09c-.65,0-.85.65-1.3,1,0,1,0,2,0,3,0,0-.07.09-.17.21a5.12,5.12,0,0,1-.67,0c-.1,0-.2-.11-.29-.18s0-.12,0-.19Z"/><path class="cls-1" d="M46.1,182h.75c.07.1.19.19.19.29,0,1.12,0,2.25,0,3.23l.6.7a1.75,1.75,0,0,0,.5-.21c.29-.24.54-.52.8-.77V182h1a1.06,1.06,0,0,1,.13.36q0,2.35,0,4.71s-.07.09-.14.17h-.84l-.31-.32-.41.34H46.8L46,186.2c0-1.22,0-2.65,0-4.08C46,182.08,46.05,182,46.1,182Z"/><path class="cls-1" d="M111.41,99.06c.06.12.18.39.32.64,0,.06.09.09.15.16V101c-.11.17-.32.36-.34.57a1,1,0,0,1-.54.71,3.57,3.57,0,0,1-1.13.45c-.51.11-.86-.34-1.29-.51s-.55-.5-.82-.77a1.22,1.22,0,0,1,0-.17V99.94c.45-.34.25-1.12.93-1.31.34-.17.86.08,1.1-.4Z"/><path class="cls-1" d="M336.43,82.8l-.38.4,0,.43-.66.21-.54.68H334c-.2-.45-.75-.33-1.06-.65s-.2-.86-.65-1.07V81.67c.45-.2.33-.74.65-1.06s.86-.2,1.06-.65h.87l.6.75.52.06.14.55.34.36Z"/><path class="cls-1" d="M245.22,39h-1.5c-.26-.43-.92-.28-1.17-.76s-.38-.72-.57-1.1l.58-1.16,1.16-1.14h1a2.49,2.49,0,0,0,.66.37c.37,0,.47.39.72.55-.15.48.55.66.41,1.15,0,.11.05.32,0,.36-.33.23-.29.65-.51.92A8.71,8.71,0,0,1,245.22,39Z"/><path class="cls-1" d="M289.55,76.66l1.59-.81c.08.08.26.33.34.3.52-.18.65.65,1.16.42l.54,1.06v1c-.08.22-.3.33-.39.59a2.05,2.05,0,0,1-1.85,1.13,3.8,3.8,0,0,1-1.1-.51A6.17,6.17,0,0,1,289,79V77.58Z"/><path class="cls-1" d="M244.75,71.24h-1a6.3,6.3,0,0,1-1.19-.75,4.31,4.31,0,0,1-.63-1.11,8.47,8.47,0,0,1,.62-1.19,9.73,9.73,0,0,1,1.06-1.07.49.49,0,0,1,.16-.05h.94a2.56,2.56,0,0,0,.6.37c.84.23.92,1,1.18,1.64a.69.69,0,0,1-.18.67c-.3.36-.31,1-.84,1.08C245.17,70.89,245,71.17,244.75,71.24Z"/><path class="cls-1" d="M386.39,83.38h.51a6.88,6.88,0,0,1,.77.38c.26.16.63.34.68.57a1.09,1.09,0,0,0,.41.74v1.12l-1.35,1.36c-.37-.15-.5.24-.76.35-.26-.49-.76-.3-1.11-.38L385,87V86.6l-.31-.31c-.2-.5,0-1.06-.09-1.55l.72-.73Z"/><path class="cls-1" d="M198.56,93.62l-1.32-1.34V90.77l1.33-1.32h1.51l1.33,1.33v1.51l-1.34,1.33Z"/><path class="cls-1" d="M377.58,77.31h2l.84,1.3V80l-1.49,1.48h-1c-.1,0-.28-.27-.58-.37-.68-.24-.8-1-1-1.58a.66.66,0,0,1,.17-.68c.15-.16.15-.45.29-.63A11.57,11.57,0,0,1,377.58,77.31Z"/><path class="cls-1" d="M200.92,77.85l.47.91v1.4L200,81.47h-1c-.23-.12-.37-.51-.78-.36l-.93-1V78.62l1.42-1.3H200Z"/><path class="cls-1" d="M111.9,91.53v1l-.51,1-1,.43h-1.74a3.6,3.6,0,0,1-.52-.59,4.81,4.81,0,0,1-.35-1V91.11a5.59,5.59,0,0,1,.69-.67,6.29,6.29,0,0,1,1.07-.61c.55-.27.89.29,1.35.4a1,1,0,0,1,.71,1C111.6,91.3,111.76,91.39,111.9,91.53Z"/><path class="cls-1" d="M341.05,80.33h-1.4l-1.31-1.43V77.5l1.43-1.31h1.4l1.31,1.43V79Z"/><path class="cls-1" d="M249.36,81.48h-1.84a4.27,4.27,0,0,1-1.36-1.91l.89-1.81.46-.11.37-.34H249l1.33,1.33V79l.38.41A3.53,3.53,0,0,1,249.36,81.48Z"/><path class="cls-1" d="M328.08,58.16v1.43c-.28.46-.56.91-.84,1.38h-1.92l-1-.49a1.85,1.85,0,0,0-.09-.46,2.57,2.57,0,0,0-.34-.39v-1a4.52,4.52,0,0,1,.61-1.08,3.86,3.86,0,0,1,1.2-.73.77.77,0,0,1,.7.06c.24.26.57.22.8.4A9.72,9.72,0,0,1,328.08,58.16Z"/><path class="cls-1" d="M377,91.53V91l-.76-.61a2.32,2.32,0,0,1,0-.66,3,3,0,0,1,.38-.79c.25-.35.55-.66.85-1h2.08l.84,1.35v1.47L379.19,92c-.35.19-.73.06-1.09.1Z"/><path class="cls-1" d="M294.53,75a3.67,3.67,0,0,0-.43-.37,1,1,0,0,0-.36,0l-.54-1V72.17l1.4-1.3h1c.22.42.74.35,1.07.63s.19.87.65,1.07v1.14L296,75Z"/><path class="cls-1" d="M379,115.23h-1c-.22-.41-.73-.35-1.06-.63s-.19-.87-.66-1.06v-.76l.38-.41V112l.95-1h1.51c.35.43,1,.39,1.32,1v1.92Z"/><path class="cls-1" d="M116.07,71.42l-.39.41v.37l-1.88,1-1.12-.56-.78-.78V69.9l1-.92h.68l.4-.36,1,.58,1.11,1.09Z"/><path class="cls-1" d="M204.63,109.17c.55.27.5,1,.94,1.32v1.13c-.42.22-.34.74-.63,1.06s-.87.2-1.07.66h-.76c-.2-.46-.76-.31-1.06-.66s-.22-.84-.64-1.06v-1l.48-.95,1-.51Z"/><path class="cls-1" d="M146.42,58.86V57.45l1.37-1.37h1.42l1.37,1.37v.82a3.77,3.77,0,0,1-1.34,2h-1.45Z"/><path class="cls-1" d="M156.65,95.7v1l-.5,1-1,.43h-1.24l-.94-.47-.43-1V95.29a5.58,5.58,0,0,1,.69-.68,7.14,7.14,0,0,1,1.08-.61c.55-.27.88.3,1.35.41a1,1,0,0,1,.7,1C156.35,95.48,156.51,95.56,156.65,95.7Z"/><path class="cls-1" d="M156.12,69.45l.53.92v.92c-.17.34-.25.56-.38.76s-.37.47-.56.71c-.44-.17-.59.37-1,.39A2.48,2.48,0,0,1,152.86,72a2.22,2.22,0,0,0-.14-.32,3,3,0,0,0-.23-.27v-1l.47-1,1.63-.8Z"/><path class="cls-1" d="M293.18,95.72v1l-.49,1-.48.11-.36.33h-1.37l-1-.47-.5-1V95.32a6.79,6.79,0,0,1,1-.91c.17-.11.43-.11.64-.28a.87.87,0,0,1,1,0c.72.39.73.37,1.32,1.32A1.94,1.94,0,0,0,293.18,95.72Z"/><path class="cls-1" d="M205.57,70.31v1.1c-.08.21-.3.32-.4.58a2.21,2.21,0,0,1-1.84,1.16c-.39,0-.53-.56-1-.39-.19-.24-.4-.46-.57-.71a6.06,6.06,0,0,1-.37-.76v-1l.37-.39v-.37l1.69-.87a9.73,9.73,0,0,0,1.38.65c.33.11.3.3.35.54S205.43,70.14,205.57,70.31Z"/><path class="cls-1" d="M338.78,62.9H338l-1.49-1.51V60.13l.47-.94,1-.42h1.13l1.48,1.48v.9a5.5,5.5,0,0,1-.7,1.13A4.49,4.49,0,0,1,338.78,62.9Z"/><path class="cls-1" d="M117,81.49h2l.91,1v1.86l-1.41,1.31h-1c-.24-.13-.38-.5-.79-.36a2.5,2.5,0,0,0-.94-1.33,2,2,0,0,1,0-.54c.09-.27.29-.52.36-.79C116.2,82.08,116.77,81.93,117,81.49Z"/><path class="cls-1" d="M243.7,89.83h1.13a9.38,9.38,0,0,1,1,1,12.75,12.75,0,0,1,.73,1.2,6.85,6.85,0,0,1-.5,1.1,6.33,6.33,0,0,1-.81.84h-1.88c-.68-.36-1-1.11-1.4-1.82a6.81,6.81,0,0,1,.63-1.19A9.75,9.75,0,0,1,243.7,89.83Z"/><path class="cls-1" d="M240.09,75.19a4.22,4.22,0,0,1-1.89,1.36,4.08,4.08,0,0,1-1.9-1.36c.11-.52-.7-.78-.22-1.64a8,8,0,0,1,.83-.82c.37-.28.8-.49,1.21-.74a12.7,12.7,0,0,1,1.41.74c.48.36.48,1,.93,1.34l-.37.4Z"/><path class="cls-1" d="M159.5,77.31l.94.94V79l.39.42c-.09.08-.21.15-.26.25-.2.42-.39.85-.61,1.36a1.09,1.09,0,0,0-.42.09,2.42,2.42,0,0,0-.43.37h-1.17l-1.28-1.32c.23-.46-.44-.57-.39-1a3.51,3.51,0,0,1,1.47-1.87Z"/><path class="cls-1" d="M161.17,60.24H160a4,4,0,0,1-1.44-1.79v-.84l1.51-1.5h1.16l1.47,1.47v1.16Z"/><path class="cls-1" d="M421.76,81.29v.88l-1.55,1.54h-1.7c-.56-.2-.44-.86-.88-1.26-.14-.2,0-.52,0-.82s0-.5,0-.72c.3-.29.56-.56.83-.83a2.09,2.09,0,0,0,.93-.49c.62-.26,1,.32,1.51.46S421.28,81,421.76,81.29Z"/><path class="cls-1" d="M427.26,81.48c-.2-.45-.75-.32-1.06-.65s-.21-.85-.64-1.06V78.68l1.31-1.37h1.4l1,.49.49,1v1.4l-1.35,1.32Z"/><path class="cls-1" d="M386.11,94H387a5.09,5.09,0,0,1,1.08.62,5.55,5.55,0,0,1,.71,1.12v1l-1.44,1.38h-1.37c-.22-.08-.34-.5-.75-.35l-.56-1.07V95.47Z"/><path class="cls-1" d="M323.36,81.48,322,80.13V78.76l.49-1,1-.5h1.4l1.31,1.37v1.09c-.43.21-.34.74-.64,1.06s-.86.2-1.06.65Z"/><path class="cls-1" d="M208.44,80.72l.92,1v.68l.35.4-.59,1L208,84.89h-1.16l-1.29-1.31c.22-.47-.45-.57-.39-1a4.11,4.11,0,0,1,1.37-1.9Z"/><path class="cls-1" d="M421.76,61.35V60.2l.51-1,1-.43h1.36c.11.11.31.33.54.53a2.9,2.9,0,0,1,.72,1.4c.17.56-.34,1-.6,1.43s-.76.52-1.17.77h-.84Z"/><path class="cls-1" d="M205.58,101.65c-.16.3-.29.51-.38.72-.14.37-.35.68-.74.72s-.54.43-1,.42-.67-.59-1.16-.44c-.16-.26-.56-.35-.53-.73s-.3-.38-.37-.59v-1l.48-1,.48-.11.37-.34h1.37l.95.48.51,1Z"/><path class="cls-1" d="M156.65,62v1l-.5,1-1,.43H154l-1.47-1.48V61.54c.18-.18.4-.55.71-.68.58-.24,1.09-.94,1.78-.52.52.31,1.33.4,1.34,1.29C156.34,61.72,156.51,61.8,156.65,62Z"/><path class="cls-1" d="M149.82,81.48H151l1,.51.42,1v1.3a2.3,2.3,0,0,0-.28.34c-.28.54-.92.56-1.34.91a.84.84,0,0,1-.84,0c-.28-.29-.67-.25-.95-.49s-.26-.67-.52-.93a1.49,1.49,0,0,1-.2-.29V83Z"/><path class="cls-1" d="M283,99.7V98.53l1.48-1.47h1.32l.25.18a5.15,5.15,0,0,1,1.11,1.61.66.66,0,0,1,0,.55,4.23,4.23,0,0,1-1.37,1.78h-1.32Z"/><path class="cls-1" d="M283,76V74.14a4.08,4.08,0,0,1,2-1.42l.55.42h.34l1.32,1.34v.73c-.35.2-.32.62-.52.91a3.75,3.75,0,0,1-1.43,1.06c-.31.17-.37.21-.64,0s-.46-.15-.63-.27A6.79,6.79,0,0,1,283,76Z"/><path class="cls-1" d="M424.22,70.86H423.1l-1.34-1.32v-1.4c.19-.36.32-.62.5-1l1-.49h1.44a6.91,6.91,0,0,1,.85.92c.12.18.06.46.28.64s.08.59.14.88c-.53.35-.32,1.4-1.29,1.36C424.5,70.49,424.36,70.73,424.22,70.86Z"/><path class="cls-1" d="M385.93,70.86c-.45-.44-.89-.89-1.34-1.32V68l1.33-1.34h1.51L388.77,68v1.14a1.11,1.11,0,0,0-.43.77.77.77,0,0,1-.51.51,1.14,1.14,0,0,0-.77.42Z"/><path class="cls-1" d="M206.91,94h1.16a9.28,9.28,0,0,0,1,1c.39.28.08.91.69,1l-.44.48v.72l-.93,1h-1.84c-.76-.44-1-1.21-1.42-1.84l.59-1.19Z"/><path class="cls-1" d="M385.36,112.78l-.76-.76V110.1l1-.92h1.86l1.31,1.41v1c-.13.23-.5.37-.36.77l-1.89,1Z"/><path class="cls-1" d="M384.59,77.49l.94-.92c.46.21.57-.45,1.08-.39l.5.38h.72l.55.56v.36l.38.41V79l-1.31,1.38h-1.91c-.56-.28-.51-1-1-1.33Z"/><path class="cls-1" d="M327.29,84.14H329c.42.45.83.92,1.38,1.52v.93A1.92,1.92,0,0,0,330,87a1.37,1.37,0,0,0-.09.43l-1.82.92a6.82,6.82,0,0,1-1.07-.49,5.74,5.74,0,0,1-.83-.81V85Z"/><path class="cls-1" d="M111.92,109.62v-1.4l1.43-1.31h1.4l1.3,1.43v1a4.83,4.83,0,0,1-.62,1.06,6,6,0,0,1-1.12.7h-1.09Z"/><path class="cls-1" d="M116.06,97.23c.12-.55-.67-.82-.37-1.39a.43.43,0,0,1,0-.17L117.36,94h1l1.46,1.47v1.81l-1,.6.17.21h-2Z"/><path class="cls-1" d="M238.2,81.49v-.87a2.7,2.7,0,0,0,.37-.6c.23-.85,1-1,1.63-1.18s.85.36,1.3.49.54.5.84.8v1.4L240.89,83h-1.22Z"/><path class="cls-1" d="M250.82,74.65H250l-1.51-1.51V72L250,70.52h1.31a2.3,2.3,0,0,0,.34.28c.54.29.57.91.91,1.33a.89.89,0,0,1,0,.85c-.3.27-.27.66-.49,1s-.66.27-.93.52Z"/><path class="cls-1" d="M380.23,72.37c.42.15.55-.25.81-.37a4.7,4.7,0,0,1,1.55.81c.47.36.38,1,.9,1.28a4.83,4.83,0,0,1-.86,1.6c-.38.43-.95.48-1.34.86a3.57,3.57,0,0,1-2-1.34V73.35Z"/><path class="cls-1" d="M109.17,77.33h1.41l1.3,1.43v1c-.11.17-.32.36-.34.57A1,1,0,0,1,111,81a3.8,3.8,0,0,1-1.13.44c-.52.11-.87-.34-1.3-.51s-.54-.5-.82-.79V78.63Z"/><path class="cls-1" d="M378.33,98.17l.41.38h.74l.94.94v1.85a4.08,4.08,0,0,1-1.88,1.39l-1.15-.58-1.16-1.2c0-.23,0-.63.16-.79s.14-.71.5-.94.41-.55.68-.62A1.32,1.32,0,0,0,378.33,98.17Z"/><path class="cls-1" d="M296,95.5c.4.12.57-.2.78-.37h1c.06,0,.14,0,.18,0,.44.43.88.88,1.31,1.31-.15.42.28.53.4.92-.11.19-.36.42-.39.68a.92.92,0,0,1-.64.81,2,2,0,0,0-.74.42h-1c-.48-.34-1.13-.41-1.46-1v-.72l-.31-.3Z"/><path class="cls-1" d="M292.3,106.48h-2.42l-.65-.93c-.34-.42-.12-1-.24-1.49.48-.38.42-1.07,1-1.34h1.9l1.31,1.41v1C292.72,105.46,292.94,106.25,292.3,106.48Z"/><path class="cls-1" d="M269.68,161.31l.57-.54H271l.53.49v6.56c-.21.26-.55.11-.84.13s-.61,0-.85,0c-.09-.13-.16-.17-.16-.22C269.67,165.59,269.68,163.46,269.68,161.31Z"/><path class="cls-1" d="M332.3,53.4l.93.5,1.3,1.29a1.89,1.89,0,0,1,0,.53,2.82,2.82,0,0,1-.38.78c-.28.4-.62.75-.89,1.08h-1.94l-.95-.94v-1.9c.39-.28.6-.78,1.11-1A7.38,7.38,0,0,0,332.3,53.4Z"/><path class="cls-1" d="M71.25,200.83c.52.37.91.59.87,1.11.37.19.23.69.53.9s-.09.88.39,1.13a2.87,2.87,0,0,0,.55-1.66c.48-.33.33-1.08,1-1.34a1.77,1.77,0,0,1,.82,0,1,1,0,0,1,.06.92,12.48,12.48,0,0,1-.71,1.22c.27.56-.39.85-.4,1.35,0,.14-.21.28-.35.45v.76l-.62.52h-.72l-.47-.43c0-.13-.07-.24-.09-.35s.08-.5-.17-.69-.22-.66-.51-.93,0-.68-.18-.84c-.33-.32-.23-.68-.3-1,0-.16-.21-.29-.3-.39Z"/><path class="cls-1" d="M59.89,182h1.33c.06,0,.23.13.22.18-.07.52.69.79.4,1.36l.57,1.08.51-.52c.06-.32,0-.69.18-.89.31-.38.24-1,.78-1.2h.86c.45.6-.44.82-.28,1.37s-.59.79-.35,1.35l-.75,1.31v.68l-.6.53H62a1.62,1.62,0,0,0-.18-.39c-.53-.72-.39-1.75-1.09-2.38C60.85,183.59,60,183,59.89,182Z"/><path class="cls-1" d="M400.12,218.4V225l-.53.56c-.49.09-.66-.31-1-.58v-4.36a1.44,1.44,0,0,1-1.35.35c-.27-.25-.08-.59-.15-.94l.65-.22,1.44-1.45Z"/><path class="cls-1" d="M311.77,225.06l-.58.53c-.47.08-.59-.28-.83-.45a1.3,1.3,0,0,1-.1-.15.6.6,0,0,1,0-.19v-3.94c-.31-.37-.35.15-.38.14h-1.09v-1l.77-.22,1.17-1.38c.64-.09.77.35,1,.56Z"/><path class="cls-1" d="M4.19,141.22l.38-.4v-.38l1.06-.54h.62c.23.13.37.5.76.36l.56,1.08v3l-1.13.83H5.09c-.17-.18-.35-.35-.27-.28l-.63-1.1ZM5.51,141c-.28,1.23-.28,2.75,0,3H5.9l.56-.08c0-.92,0-1.79,0-2.66,0-.1-.12-.2-.18-.29Z"/><path class="cls-1" d="M6.08,103.11a3.54,3.54,0,0,1-1.89-1.49v-2.5c.46-.2.31-.77.65-1.07s.84-.22,1-.58a7,7,0,0,1,.94.49,7,7,0,0,1,.78.7v3l-.47,1ZM6,98.61l-.6.42v2.38l.56.57.52-.1v-2.8Z"/><path class="cls-1" d="M15.86,180.46l.71,0c.24.45.08.89.15,1.35l.64.22c.2.28.07.59.08.93l-.69.24V186l.29.15.38.12v.88c-.39.29-.84.08-1.3.14l-.92-1v-2.92l-.38-.45v-.74l.36-.4V181Z"/><path class="cls-1" d="M30,186.68l-.56.61H28.27l-.56-.55V186l-.38-.43v-2.25l-.39-.41v-.64c0-.31.57-.45.42-.9.44-.15.2-.69.53-.91h.76c.45.4,0,1,.26,1.4l.64.23V183l-.56.12c0,.05-.13.09-.13.14v2.49Z"/><path class="cls-1" d="M15.19,202.29l-.38-.4v-.75l.39-.42V200l1-.51.49.57v.75l.78.49c-.05.67-.1.72-.62.86,0,.05-.13.09-.13.13,0,.88,0,1.76,0,2.67l.75.35v.78c-.55.44-1.18,0-1.66.23l-.5-.5s-.1-.09-.11-.14,0-.25,0-.37Z"/><path class="cls-1" d="M28.84,199.58v1.23l.65.21c.26.26,0,.6.16.91l-.7.24s-.11.09-.11.14V205l.66.22c.23.27,0,.6.11.86-.19.19-.19.19-1.23.2-.64-.2-.56-.92-1.05-1.3v-2.64l-.39-.48c0-.51.66-.82.35-1.44l1-1Z"/><path class="cls-1" d="M67.78,206.22H66.54c-.06-.06-.12-.09-.14-.15s0-.12,0-.18v-6.25l.57-.57c.47-.09.59.26.81.41A35.22,35.22,0,0,1,67.78,206.22Z"/><path class="cls-1" d="M55.77,180.66l.53-.52h.85c.07.09.13.14.13.19,0,2.26,0,4.51,0,6.77-.23.33-.57.15-.91.21l-.49-.45c0-.08-.12-.13-.12-.18Z"/><path class="cls-1" d="M83.83,201c0,.44,0,.75,0,1.06a2.21,2.21,0,0,1-.09.41H82.52a1.57,1.57,0,0,0-.2.38c0,1.07,0,2.15,0,3.22,0,0-.06.1-.12.2H80.94c0-.05-.1-.09-.12-.14a.36.36,0,0,1,0-.18v-4.12l.6-1,.74.51.38-.34Z"/><path class="cls-1" d="M70.18,182h1.61l.45-.36,1.3.77c-.08.37-.35.5-.57.71h-.72l-.55.55c0,1.12,0,2.25,0,3.38,0,.05-.06.1-.14.2l-.86,0-.51-.86Z"/><path class="cls-1" d="M19,225.57H18c-.07-.08-.14-.13-.14-.18q0-3.39,0-6.8c.3-.35.67-.18,1-.12,0,0,.11.09.11.14C19,220.87,19,223.14,19,225.57Z"/><path class="cls-1" d="M1.91,99.75l-1-.12c-.27-.35-.06-.55.15-.8s.81-.24,1.07-.66a5.05,5.05,0,0,1,.76-.78,1.14,1.14,0,0,1,.16.39c0,1.62,0,3.25,0,4.9h-1a1.12,1.12,0,0,1-.13-.34C1.91,101.52,1.91,100.7,1.91,99.75Z"/><path class="cls-1" d="M17,225.57h-.87a1,1,0,0,1-.14-.35q0-2.35,0-4.71s.07-.1.17-.22h.66a.34.34,0,0,1,.17,0,.35.35,0,0,1,.13.14.54.54,0,0,1,0,.18v4.53A1.42,1.42,0,0,1,17,225.57Z"/><path class="cls-1" d="M14.81,203.42v.74c-.1.07-.19.19-.29.2H12c-.08-.08-.16-.12-.16-.16,0-.25,0-.5,0-.79l.51-.53h2Z"/><path class="cls-1" d="M14.78,184l.05.85-.85.51H12.33l-.52-.57V184c.08-.07.12-.14.17-.14h2.61C14.64,183.89,14.69,184,14.78,184Z"/><path class="cls-1" d="M216.22,187.26l-1,.05-.53-1V186a2.08,2.08,0,0,1,1.39-.12C216.33,186.24,216.15,186.68,216.22,187.26Z"/><path class="cls-1" d="M214.68,224.12H216c.21.19.21.19,0,1.46l-.88,0-.52-.89Z"/><path class="cls-1" d="M73.19,185.81h1.39c.31.27,0,.61.2.9l-.65.56h-.77C73.09,186.84,73.26,186.4,73.19,185.81Z"/><path class="cls-1" d="M216.2,205.31v.76c-.42.33-.91.15-1.36.16-.29-.26-.1-.59-.17-.9l.5-.56C215.79,204.67,215.91,205.12,216.2,205.31Z"/><path class="cls-1" d="M308,224.84l-1.19.76h-.54a2.12,2.12,0,0,1-.12-1.38c.27-.29.61,0,.76-.11Z"/><path class="cls-1" d="M395.44,187.27h-.86c-.27-.49,0-1-.16-1.45h1l.53.52C396.08,186.8,395.69,187,395.44,187.27Z"/><path class="cls-1" d="M307.61,186.54c0,.39-.42.44-.5.72h-.9c-.23-.44-.08-.87-.13-1.29.23-.32.57-.14,1-.22Z"/><path class="cls-1" d="M128.27,187.25l-.81-.45c0-.64.37-.77.6-1h.76a2.18,2.18,0,0,1,.09,1.38A.68.68,0,0,1,128.27,187.25Z"/><path class="cls-1" d="M127.45,224.85c0-.38.37-.48.53-.72h.86c.23.44.08.87.13,1.28-.23.32-.56.15-1,.22Z"/><path class="cls-1" d="M30,182.51l.51-.51h.77l.51.49-.45.95c-.24.17-.55,0-.82.06Z"/><path class="cls-1" d="M394.43,224.12l1-.05.39.71c.22.33-.16.51-.41.79h-.85C394.33,225.14,394.5,224.71,394.43,224.12Z"/><path class="cls-1" d="M85.37,205.32l-.05.81c-.44.24-.87.08-1.29.13-.33-.22-.15-.55-.22-1l1-.6C84.86,204.65,85,205,85.37,205.32Z"/><path class="cls-1" d="M128.94,205.27v.83c-.28.29-.6.1-.86.15l-.63-.57c0-.6.34-.79.74-.94S128.66,205.1,128.94,205.27Z"/><path class="cls-1" d="M395.4,206.26h-.73c-.22-.17-.22-.17-.18-1l.52-.52c.52-.1.72.3,1,.63C396,205.67,396,205.67,395.4,206.26Z"/><path class="cls-1" d="M31.32,187.3h-.78c-.32-.42-.14-.91-.15-1.36.25-.29.58-.1.89-.17l.53.51Z"/><path class="cls-1" d="M31.31,201l.53,1.06-.6.45h-.73a2.12,2.12,0,0,1-.1-1.38C30.69,200.83,31,201,31.31,201Z"/><path class="cls-1" d="M306.11,206.26l0-1,.85-.52H307l.52,1-.7.33.16.16Z"/><path class="cls-1" d="M31.27,204.74h0l.52,1.06-.67.46h-.62c-.31-.23-.13-.57-.21-1Z"/><path class="cls-1" d="M15.93,218.43h1c.27.43.09.87.14,1.29-.3.35-.66.18-1,.13C15.82,219.45,16,219,15.93,218.43Z"/></g></g></svg>