<svg xmlns="http://www.w3.org/2000/svg" viewBox="0 0 120.64 122.45"><title>Recurso 101MANDALA</title><g id="Capa_2" data-name="Capa 2"><g id="Capa_1-2" data-name="Capa 1"><path d="M62.1,33.28c-2.27,20.62-1,33.29-2.27,33.29s-.47-14.76-2.27-33.29C55.8,15.1,58.58,0,59.83,0S64.09,15.16,62.1,33.28Z"/><path d="M57.66,89.16c2.26-20.61,1-33.28,2.26-33.28s.47,14.76,2.27,33.28c1.76,18.18-1,33.29-2.27,33.29S55.67,107.29,57.66,89.16Z"/><path d="M52.52,34.24C57.44,54.38,63,65.86,61.78,66.29s-5.49-13.71-13.51-30.5C40.39,19.31,37.83,4.16,39,3.73S48.2,16.52,52.52,34.24Z"/><path d="M67.47,88.26C62.54,68.12,57,56.64,58.21,56.21S63.7,69.92,71.72,86.72C79.6,103.2,82.15,118.34,81,118.77S71.79,106,67.47,88.26Z"/><path d="M43.86,38.41c11.51,17.24,20.61,26.15,19.66,27s-9.85-11-23.14-24c-13-12.79-20.61-26.15-19.66-26.95S33.73,23.24,43.86,38.41Z"/><path d="M76.37,84.07c-11.51-17.25-20.61-26.15-19.66-27s9.85,11,23.14,24c13,12.79,20.61,26.15,19.66,27S86.5,99.23,76.37,84.07Z"/><path d="M37.14,45.29c16.71,12.27,28.31,17.52,27.69,18.6s-13-7-30-14.68C18.24,41.65,6.55,31.69,7.18,30.61S22.44,34.5,37.14,45.29Z"/><path d="M83.31,77.07C66.59,64.8,55,59.55,55.62,58.47s13,7,30,14.68c16.62,7.56,28.31,17.52,27.69,18.6S98,87.86,83.31,77.07Z"/><path d="M33.18,54.05c19.9,5.81,32.6,6.78,32.38,8S50.94,60,32.39,58.52C14.18,57.1-.21,51.74,0,50.51S15.67,48.94,33.18,54.05Z"/><path d="M87.43,68.13c-19.9-5.81-32.6-6.78-32.38-8s14.62,2.1,33.17,3.55c18.21,1.41,32.6,6.77,32.39,8S104.94,73.24,87.43,68.13Z"/><path d="M32.45,63.65c20.69-1.35,33-4.79,33.17-3.55s-14.45,3-32.38,8C15.64,73,.28,72.89.07,71.66S14.26,64.83,32.45,63.65Z"/><path d="M88.25,58.31c-20.69,1.35-32.95,4.78-33.17,3.55s14.46-3,32.39-8c17.59-4.9,33-4.78,33.17-3.55S106.45,57.13,88.25,58.31Z"/><path d="M35.05,72.91c19-8.35,29.33-15.77,30-14.68S52.46,66,37.32,76.83C22.46,87.45,8,92.59,7.36,91.51S18.36,80.24,35.05,72.91Z"/><path d="M85.66,48.81c-19,8.34-29.33,15.76-30,14.68s12.56-7.79,27.7-18.6c14.86-10.62,29.33-15.77,30-14.68S102.36,41.47,85.66,48.81Z"/><path d="M40.66,80.72c15-14.33,22.17-24.85,23.13-24S54.66,68.29,44.13,83.63C33.8,98.69,22,108.48,21,107.67S27.49,93.32,40.66,80.72Z"/><path d="M80,40.77c-15,14.33-22.17,24.84-23.13,24S66,53.2,76.51,37.85C86.84,22.79,98.68,13,99.64,13.81S93.16,28.16,80,40.77Z"/><path d="M48.61,86.14c9.18-18.59,12.33-30.93,13.51-30.5s-4.61,14-9.26,32.05c-4.55,17.69-12.33,30.93-13.51,30.5S40.54,102.49,48.61,86.14Z"/><path d="M71.89,35.15c-9.18,18.59-12.34,30.93-13.51,30.5s4.61-14,9.25-32.05C72.19,15.91,80,2.67,81.14,3.1S80,18.8,71.89,35.15Z"/></g></g></svg>