<svg xmlns="http://www.w3.org/2000/svg" viewBox="0 0 117.06 117.06"><title>Recurso 54MODERN ICON</title><g id="Capa_2" data-name="Capa 2"><g id="Capa_1-2" data-name="Capa 1"><path d="M94.24,44.73c5,10.75-13.34,10.3-32.4,10.49.19-19.06-.26-37.41,10.49-32.4C80,26.37,61.14,0,58.53,0S37.09,26.37,44.73,22.82c10.75-5,10.3,13.34,10.49,32.4-19.06-.19-37.41.26-32.4-10.49C26.37,37.09,0,55.92,0,58.53S26.37,80,22.82,72.33c-5-10.75,13.34-10.3,32.4-10.49-.19,19.06.26,37.41-10.49,32.4-7.64-3.55,11.19,22.82,13.8,22.82S80,90.69,72.33,94.24c-10.75,5-10.3-13.34-10.49-32.4,19.06.19,37.41-.26,32.4,10.49-3.55,7.64,22.82-11.19,22.82-13.8S90.69,37.09,94.24,44.73Z"/></g></g></svg>