<svg xmlns="http://www.w3.org/2000/svg" viewBox="0 0 116.86 117.37"><title>Recurso 109MANDALA</title><g id="Capa_2" data-name="Capa 2"><g id="Capa_1-2" data-name="Capa 1"><path d="M5.78,32.51A21.08,21.08,0,0,1,13.08,28,16.68,16.68,0,0,1,22,27.22,19.77,19.77,0,0,1,30.23,31a26.26,26.26,0,0,1,6,6.45A50.69,50.69,0,0,1,40.27,45c1.16,2.59,2.22,5.19,3.27,7.79s2,5.24,3,7.88c.48,1.31.93,2.69,1.41,3.9a11.55,11.55,0,0,0,.83,1.73,3,3,0,0,0,.95,1.08c.13.06.17,0,.2,0a1.63,1.63,0,0,0,.28-.15,5.31,5.31,0,0,0,1.12-1.06A31.49,31.49,0,0,0,53.55,63l4.31-7.13a67.16,67.16,0,0,1,4.94-7.07,24.54,24.54,0,0,1,6.86-6,13.56,13.56,0,0,1,4.64-1.57,11.94,11.94,0,0,1,5,.37A18,18,0,0,1,87,46.54a39.17,39.17,0,0,1,5.22,6.87A56.9,56.9,0,0,1,96,60.94l-.35.21c-3.35-4.46-6.75-8.93-10.84-12.31a16,16,0,0,0-6.54-3.5,8.89,8.89,0,0,0-6.52,1.23,23.83,23.83,0,0,0-5.64,5A69.91,69.91,0,0,0,61.25,58c-1.57,2.26-3,4.61-4.72,6.93a26,26,0,0,1-2.85,3.43A7.92,7.92,0,0,1,51.55,70a3.53,3.53,0,0,1-1.72.33,3,3,0,0,1-1.73-.67,5.55,5.55,0,0,1-1.58-2.2,14.75,14.75,0,0,1-.73-2.15c-.39-1.44-.59-2.77-.93-4.12a57.65,57.65,0,0,0-2.47-7.92,45.7,45.7,0,0,0-8.67-13.89A44.21,44.21,0,0,0,28,33.9a19.61,19.61,0,0,0-6.71-3.5,16.82,16.82,0,0,0-3.74-.56,19.54,19.54,0,0,0-3.87.3A31.12,31.12,0,0,0,6,32.85Z"/><path d="M0,52.1a21.11,21.11,0,0,1,5.3-6.79,16.81,16.81,0,0,1,8.14-3.74,19.71,19.71,0,0,1,9,.71,26,26,0,0,1,7.82,4A51.34,51.34,0,0,1,36.67,52c2,2,3.87,4.11,5.74,6.2s3.69,4.23,5.51,6.38c.89,1.07,1.79,2.21,2.65,3.19a14.15,14.15,0,0,0,1.37,1.33,3.12,3.12,0,0,0,1.26.7c.15,0,.18,0,.2,0a1.43,1.43,0,0,0,.22-.24,5.7,5.7,0,0,0,.68-1.38,31.26,31.26,0,0,0,1-3.77l1.61-8.18a66.25,66.25,0,0,1,2.22-8.33,24.52,24.52,0,0,1,4.41-7.94,13.6,13.6,0,0,1,3.83-3.07,12.11,12.11,0,0,1,4.77-1.34,18,18,0,0,1,8.93,2,38.57,38.57,0,0,1,7.25,4.67,57.46,57.46,0,0,1,6.21,5.75l-.27.32c-4.67-3-9.39-6.08-14.39-7.86a16,16,0,0,0-7.34-1,8.9,8.9,0,0,0-5.71,3.38,23.76,23.76,0,0,0-3.58,6.65,68.88,68.88,0,0,0-2.39,7.73c-.7,2.66-1.29,5.38-2.07,8.13a25.9,25.9,0,0,1-1.5,4.2,7.82,7.82,0,0,1-1.47,2.18,3.68,3.68,0,0,1-1.51.91,3.13,3.13,0,0,1-1.85,0A5.63,5.63,0,0,1,50.22,71a16.19,16.19,0,0,1-1.42-1.77c-.86-1.22-1.5-2.41-2.28-3.56a59.54,59.54,0,0,0-5-6.6A45.73,45.73,0,0,0,28.59,49a45,45,0,0,0-7.24-3.15,19.66,19.66,0,0,0-7.5-1,17.7,17.7,0,0,0-3.71.75,18.85,18.85,0,0,0-3.52,1.61A31.06,31.06,0,0,0,.33,52.33Z"/><path d="M1.27,72.48a21.16,21.16,0,0,1,2.66-8.19A16.83,16.83,0,0,1,10.3,58,19.68,19.68,0,0,1,19,55.57a26,26,0,0,1,8.72,1.11,51.29,51.29,0,0,1,8,3.17c2.55,1.24,5,2.55,7.52,3.87s4.91,2.71,7.35,4.11c1.21.7,2.45,1.47,3.59,2.09a12.6,12.6,0,0,0,1.74.78,2.91,2.91,0,0,0,1.42.22c.15,0,.16-.07.17-.11a1.29,1.29,0,0,0,.12-.3A5.26,5.26,0,0,0,57.79,69a31.9,31.9,0,0,0-.35-3.89l-1.28-8.24a65.14,65.14,0,0,1-.76-8.59,24.43,24.43,0,0,1,1.42-9,13.79,13.79,0,0,1,2.55-4.19,11.92,11.92,0,0,1,4-2.89,18,18,0,0,1,9.07-1.17A38.47,38.47,0,0,1,80.89,33a58.17,58.17,0,0,1,7.8,3.28l-.14.39c-5.44-1.26-10.91-2.5-16.22-2.46a15.86,15.86,0,0,0-7.25,1.52,8.87,8.87,0,0,0-4.21,5.13,24,24,0,0,0-1.1,7.47,71.58,71.58,0,0,0,.41,8.08c.24,2.74.62,5.5.83,8.35a25.45,25.45,0,0,1,0,4.46,7.88,7.88,0,0,1-.64,2.55,3.58,3.58,0,0,1-1.11,1.37,3.1,3.1,0,0,1-1.75.6A5.77,5.77,0,0,1,54.91,73,15.86,15.86,0,0,1,53,71.85c-1.22-.85-2.23-1.75-3.36-2.56a58.77,58.77,0,0,0-7-4.49,45.91,45.91,0,0,0-15.57-5.06,44.83,44.83,0,0,0-7.88-.48A19.66,19.66,0,0,0,11.8,60.9a16.53,16.53,0,0,0-3.23,2A19.15,19.15,0,0,0,5.8,65.58a31,31,0,0,0-4.13,7Z"/><path d="M9.43,91.2a21.28,21.28,0,0,1-.3-8.61A16.86,16.86,0,0,1,13,74.49a19.77,19.77,0,0,1,7.35-5.25,26.07,26.07,0,0,1,8.57-1.94,52.11,52.11,0,0,1,8.58.25c2.82.3,5.6.67,8.38,1.07s5.55.87,8.32,1.35c1.38.24,2.8.54,4.09.73a12.61,12.61,0,0,0,1.9.14,3,3,0,0,0,1.41-.28c.13-.08.13-.12.13-.16a1.53,1.53,0,0,0,0-.32,5.53,5.53,0,0,0-.35-1.5,32.63,32.63,0,0,0-1.66-3.53l-4-7.3A65.67,65.67,0,0,1,52,49.94,24.39,24.39,0,0,1,50.29,41a13.56,13.56,0,0,1,1-4.81,11.79,11.79,0,0,1,2.8-4.1,18,18,0,0,1,8.12-4.2,38.82,38.82,0,0,1,8.56-1.08,58.13,58.13,0,0,1,8.46.42v.41c-5.53.67-11.1,1.38-16.07,3.23a15.84,15.84,0,0,0-6.3,3.92,8.89,8.89,0,0,0-2.2,6.26,23.86,23.86,0,0,0,1.53,7.39,70.06,70.06,0,0,0,3.14,7.46c1.17,2.49,2.46,4.95,3.64,7.56a25.93,25.93,0,0,1,1.55,4.17,7.88,7.88,0,0,1,.27,2.62,3.66,3.66,0,0,1-.57,1.67,3.08,3.08,0,0,1-1.45,1.16,5.54,5.54,0,0,1-2.69.26,15.18,15.18,0,0,1-2.23-.44c-1.44-.38-2.69-.88-4-1.26a59.1,59.1,0,0,0-8.09-1.82,45.85,45.85,0,0,0-16.37.57,44.47,44.47,0,0,0-7.57,2.24,19.53,19.53,0,0,0-6.37,4.06,17,17,0,0,0-2.37,3,18.76,18.76,0,0,0-1.66,3.5,31,31,0,0,0-1.5,8Z"/><path d="M23.51,106a20.93,20.93,0,0,1-3.23-8,16.84,16.84,0,0,1,.83-8.92,19.85,19.85,0,0,1,5.12-7.45,26.23,26.23,0,0,1,7.39-4.76,51.83,51.83,0,0,1,8.15-2.69c2.75-.69,5.49-1.29,8.24-1.87s5.51-1.08,8.28-1.58c1.37-.24,2.81-.45,4.09-.7a14.12,14.12,0,0,0,1.84-.52,3.06,3.06,0,0,0,1.23-.75c.09-.12.07-.16,0-.2a1.31,1.31,0,0,0-.1-.3A5.22,5.22,0,0,0,64.56,67a32.82,32.82,0,0,0-2.77-2.76l-6.27-5.48a63.74,63.74,0,0,1-6.1-6.09,24.34,24.34,0,0,1-4.68-7.79A13.5,13.5,0,0,1,44,40a11.91,11.91,0,0,1,1.22-4.8,18,18,0,0,1,6.2-6.73,38.52,38.52,0,0,1,7.68-3.95A58,58,0,0,1,67.18,22l.14.39c-5,2.53-10,5.09-14,8.54a16,16,0,0,0-4.58,5.83,8.92,8.92,0,0,0,.07,6.64,24.37,24.37,0,0,0,4,6.42,70.76,70.76,0,0,0,5.5,5.93c1.95,1.94,4,3.81,6,5.86a26.42,26.42,0,0,1,2.88,3.4,7.42,7.42,0,0,1,1.15,2.36,3.57,3.57,0,0,1,0,1.76,3.15,3.15,0,0,1-1,1.59A5.63,5.63,0,0,1,65,71.93a15.26,15.26,0,0,1-2.24.35c-1.49.13-2.83.09-4.22.2a58.24,58.24,0,0,0-8.23,1A48.25,48.25,0,0,0,28.73,84.35a19.76,19.76,0,0,0-4.6,6,17.24,17.24,0,0,0-1.21,3.59,18.93,18.93,0,0,0-.37,3.86,31.14,31.14,0,0,0,1.33,8Z"/><path d="M41.8,115.08A21,21,0,0,1,36,108.69,16.84,16.84,0,0,1,33.76,100,19.84,19.84,0,0,1,36,91.27a26.14,26.14,0,0,1,5.32-7A52.23,52.23,0,0,1,48.07,79c2.35-1.59,4.73-3.09,7.11-4.57s4.81-2.9,7.24-4.32c1.21-.69,2.49-1.38,3.6-2.06a12.31,12.31,0,0,0,1.55-1.12,2.91,2.91,0,0,0,.9-1.12c0-.14,0-.17,0-.2a2,2,0,0,0-.2-.25A5.36,5.36,0,0,0,67,64.39a32.26,32.26,0,0,0-3.54-1.64l-7.78-3A64.67,64.67,0,0,1,47.9,56.1a24.15,24.15,0,0,1-7.06-5.72,13.47,13.47,0,0,1-2.36-4.29A12.06,12.06,0,0,1,38,41.15a18,18,0,0,1,3.53-8.44,38.5,38.5,0,0,1,5.86-6.34,57.15,57.15,0,0,1,6.74-5.11l.26.32c-3.8,4.07-7.61,8.19-10.23,12.81a15.86,15.86,0,0,0-2.31,7,8.87,8.87,0,0,0,2.34,6.21,24,24,0,0,0,5.92,4.69A73.67,73.67,0,0,0,57.3,56c2.5,1.15,5.07,2.21,7.65,3.45a26.23,26.23,0,0,1,3.87,2.2,7.7,7.7,0,0,1,1.89,1.83,3.57,3.57,0,0,1,.63,1.64A3.06,3.06,0,0,1,71,67a5.55,5.55,0,0,1-1.89,1.93,15.7,15.7,0,0,1-2,1.1c-1.35.63-2.63,1-3.9,1.62a58.37,58.37,0,0,0-7.37,3.81A45.93,45.93,0,0,0,43.66,86.38,44.89,44.89,0,0,0,39.3,93,19.57,19.57,0,0,0,37,100.18a16.52,16.52,0,0,0,.09,3.78,18.82,18.82,0,0,0,1,3.75,31.16,31.16,0,0,0,4,7.09Z"/><path d="M62.09,117.37a21,21,0,0,1-7.6-4A16.86,16.86,0,0,1,49.38,106a19.83,19.83,0,0,1-.86-9,26.19,26.19,0,0,1,2.6-8.4,52,52,0,0,1,4.51-7.3c1.66-2.3,3.38-4.52,5.11-6.73s3.53-4.36,5.33-6.53c.9-1.06,1.87-2.15,2.68-3.17a11.58,11.58,0,0,0,1.07-1.58,3.08,3.08,0,0,0,.47-1.36c0-.15-.05-.17-.09-.19a1.92,1.92,0,0,0-.27-.17,5.42,5.42,0,0,0-1.47-.43,33.14,33.14,0,0,0-3.89-.34l-8.33-.16a66.45,66.45,0,0,1-8.59-.75,24.36,24.36,0,0,1-8.59-3,13.43,13.43,0,0,1-3.68-3.23,11.87,11.87,0,0,1-2.15-4.47,18,18,0,0,1,.42-9.14,38.77,38.77,0,0,1,3.34-8A57.9,57.9,0,0,1,41.58,25l.36.21c-2.19,5.13-4.36,10.3-5.24,15.54a16,16,0,0,0,.24,7.41,8.89,8.89,0,0,0,4.32,5,24.11,24.11,0,0,0,7.17,2.38,73.68,73.68,0,0,0,8,1c2.74.23,5.51.34,8.36.62a26.38,26.38,0,0,1,4.39.75A7.84,7.84,0,0,1,71.62,59a3.63,3.63,0,0,1,1.15,1.33,3,3,0,0,1,.29,1.83,5.67,5.67,0,0,1-1.12,2.47,14.79,14.79,0,0,1-1.5,1.71c-1,1.06-2.11,1.89-3.1,2.86a59.05,59.05,0,0,0-5.63,6.1A46.13,46.13,0,0,0,54,89.76a44.62,44.62,0,0,0-1.84,7.68,19.52,19.52,0,0,0,.33,7.55,17.12,17.12,0,0,0,1.38,3.53,19.23,19.23,0,0,0,2.19,3.19A30.85,30.85,0,0,0,62.26,117Z"/><path d="M81.94,112.58a20.92,20.92,0,0,1-8.53-1.2,16.76,16.76,0,0,1-7.31-5.18,19.72,19.72,0,0,1-3.89-8.15,26,26,0,0,1-.43-8.78,51.71,51.71,0,0,1,1.74-8.4c.78-2.73,1.64-5.41,2.5-8.08s1.83-5.3,2.78-8c.48-1.31,1-2.66,1.43-3.9a12,12,0,0,0,.47-1.85,3,3,0,0,0,0-1.44c-.06-.13-.1-.14-.14-.15s-.13,0-.31-.06a5.36,5.36,0,0,0-1.54.09,32.33,32.33,0,0,0-3.77,1L57,61.24a64.69,64.69,0,0,1-8.32,2.24,24.65,24.65,0,0,1-9.08.16,13.61,13.61,0,0,1-4.57-1.79,11.84,11.84,0,0,1-3.55-3.46,18.1,18.1,0,0,1-2.73-8.74A39.09,39.09,0,0,1,29.19,41a57.36,57.36,0,0,1,1.88-8.25l.41.07c-.3,5.57-.57,11.17.39,16.39a15.88,15.88,0,0,0,2.76,6.88,8.88,8.88,0,0,0,5.78,3.26A24.12,24.12,0,0,0,48,59.17a71.55,71.55,0,0,0,7.89-1.8c2.66-.72,5.3-1.57,8.08-2.27a24.49,24.49,0,0,1,4.38-.8,7.64,7.64,0,0,1,2.63.18,3.63,3.63,0,0,1,1.53.85,3.18,3.18,0,0,1,.9,1.63,5.67,5.67,0,0,1-.21,2.7,14.81,14.81,0,0,1-.82,2.12c-.62,1.35-1.34,2.5-1.94,3.75a58,58,0,0,0-3.2,7.65A45.79,45.79,0,0,0,64.92,89.4a43.87,43.87,0,0,0,.89,7.84,19.62,19.62,0,0,0,2.89,7,17.25,17.25,0,0,0,2.5,2.84,20,20,0,0,0,3.16,2.25A30.83,30.83,0,0,0,82,112.17Z"/><path d="M99,101.29a20.94,20.94,0,0,1-8.42,1.79,16.72,16.72,0,0,1-8.64-2.37,19.62,19.62,0,0,1-6.45-6.33,26.25,26.25,0,0,1-3.4-8.1,52.85,52.85,0,0,1-1.24-8.49c-.2-2.83-.31-5.64-.41-8.44s-.1-5.61-.11-8.43c0-1.4,0-2.85,0-4.15a12.6,12.6,0,0,0-.19-1.9,3.07,3.07,0,0,0-.52-1.34c-.1-.11-.15-.1-.19-.09a1.38,1.38,0,0,0-.31,0,5.49,5.49,0,0,0-1.41.61,31.74,31.74,0,0,0-3.19,2.25L58,61.57a67.13,67.13,0,0,1-7,4.95,24.48,24.48,0,0,1-8.49,3.25,13.5,13.5,0,0,1-4.9-.11,11.9,11.9,0,0,1-4.52-2,18,18,0,0,1-5.55-7.28,39,39,0,0,1-2.55-8.24,56.91,56.91,0,0,1-1.06-8.4l.41-.07c1.62,5.34,3.28,10.7,6,15.27a15.86,15.86,0,0,0,4.94,5.53,9,9,0,0,0,6.55,1.08,24.33,24.33,0,0,0,7-2.79,69.86,69.86,0,0,0,6.79-4.39C57.8,56.75,60,55,62.37,53.43a25.84,25.84,0,0,1,3.84-2.25,7.87,7.87,0,0,1,2.53-.72,3.59,3.59,0,0,1,1.74.27A3.18,3.18,0,0,1,71.88,52a5.82,5.82,0,0,1,.73,2.61,17,17,0,0,1,0,2.27c-.13,1.49-.4,2.81-.54,4.19a57.4,57.4,0,0,0-.39,8.29,46,46,0,0,0,3.4,16,44.7,44.7,0,0,0,3.52,7.06A19.78,19.78,0,0,0,83.66,98,17.46,17.46,0,0,0,87,99.78a19.3,19.3,0,0,0,3.74,1,30.66,30.66,0,0,0,8.13.08Z"/><path d="M111.08,84.86a21.08,21.08,0,0,1-7.3,4.56,16.78,16.78,0,0,1-8.93.74,19.78,19.78,0,0,1-8.22-3.75,25.9,25.9,0,0,1-6-6.45,50.69,50.69,0,0,1-4.07-7.56c-1.16-2.59-2.22-5.18-3.27-7.79s-2-5.24-3-7.88c-.48-1.31-.93-2.69-1.41-3.9a13.06,13.06,0,0,0-.83-1.72,3.13,3.13,0,0,0-1-1.09c-.13-.06-.17,0-.2,0a1.63,1.63,0,0,0-.28.15,5.59,5.59,0,0,0-1.12,1.06,31.49,31.49,0,0,0-2.23,3.2L59,61.55a66.49,66.49,0,0,1-4.93,7.06,24.39,24.39,0,0,1-6.86,6,13.56,13.56,0,0,1-4.64,1.57,11.94,11.94,0,0,1-5-.37,18,18,0,0,1-7.7-4.94A38.33,38.33,0,0,1,24.69,64a56.35,56.35,0,0,1-3.87-7.53l.36-.2c3.35,4.45,6.75,8.92,10.84,12.3A16,16,0,0,0,38.56,72a8.85,8.85,0,0,0,6.52-1.23,24,24,0,0,0,5.64-5,73.35,73.35,0,0,0,4.89-6.46c1.57-2.25,3-4.6,4.72-6.93A26,26,0,0,1,63.18,49a7.55,7.55,0,0,1,2.13-1.54A3.53,3.53,0,0,1,67,47.09a3,3,0,0,1,1.73.67A5.65,5.65,0,0,1,70.34,50a14.75,14.75,0,0,1,.73,2.15c.39,1.44.58,2.78.93,4.12a57.78,57.78,0,0,0,2.47,7.93A45.65,45.65,0,0,0,83.14,78a45,45,0,0,0,5.72,5.44A19.76,19.76,0,0,0,95.57,87a17.34,17.34,0,0,0,3.74.57,20.34,20.34,0,0,0,3.87-.31,31.12,31.12,0,0,0,7.67-2.71Z"/><path d="M116.86,65.27a21.11,21.11,0,0,1-5.3,6.79,16.8,16.8,0,0,1-8.15,3.74,19.82,19.82,0,0,1-9-.7,26.26,26.26,0,0,1-7.82-4,51.43,51.43,0,0,1-6.41-5.71c-2-2-3.86-4.11-5.73-6.2s-3.69-4.23-5.51-6.38c-.89-1.07-1.79-2.21-2.65-3.19a14.15,14.15,0,0,0-1.37-1.33,3,3,0,0,0-1.27-.69c-.14,0-.17,0-.2,0a2.63,2.63,0,0,0-.21.24,5.43,5.43,0,0,0-.68,1.37,31.26,31.26,0,0,0-1,3.77l-1.61,8.18a67.53,67.53,0,0,1-2.22,8.33,24.42,24.42,0,0,1-4.41,7.94,13.43,13.43,0,0,1-3.83,3.07,12,12,0,0,1-4.77,1.34,18,18,0,0,1-8.93-2,39,39,0,0,1-7.26-4.67,58.31,58.31,0,0,1-6.2-5.75l.26-.32c4.68,3,9.4,6.08,14.4,7.86a15.83,15.83,0,0,0,7.34,1A8.88,8.88,0,0,0,50,74.64,23.76,23.76,0,0,0,53.61,68,71,71,0,0,0,56,60.26c.7-2.66,1.29-5.37,2.07-8.13a25.47,25.47,0,0,1,1.5-4.19A8,8,0,0,1,61,45.75a3.66,3.66,0,0,1,1.51-.9,3.06,3.06,0,0,1,1.85,0,5.71,5.71,0,0,1,2.24,1.53,16.19,16.19,0,0,1,1.42,1.77c.86,1.22,1.5,2.41,2.28,3.56a58.62,58.62,0,0,0,5,6.6,45.73,45.73,0,0,0,12.9,10.08,43.74,43.74,0,0,0,7.24,3.15,19.66,19.66,0,0,0,7.5,1,17,17,0,0,0,3.7-.75,18.65,18.65,0,0,0,3.53-1.61A31,31,0,0,0,116.52,65Z"/><path d="M115.59,44.89a21.16,21.16,0,0,1-2.66,8.19,16.76,16.76,0,0,1-6.37,6.3,19.68,19.68,0,0,1-8.71,2.42,26.23,26.23,0,0,1-8.72-1.1,51.33,51.33,0,0,1-8-3.18c-2.55-1.24-5-2.54-7.52-3.86s-4.91-2.72-7.35-4.12c-1.21-.7-2.45-1.46-3.59-2.09A12.6,12.6,0,0,0,61,46.67a3,3,0,0,0-1.42-.22c-.15,0-.16.08-.17.11a1.29,1.29,0,0,0-.12.3,5.29,5.29,0,0,0-.18,1.53,32.26,32.26,0,0,0,.35,3.89l1.28,8.23a65.14,65.14,0,0,1,.76,8.59,24.43,24.43,0,0,1-1.42,9,13.79,13.79,0,0,1-2.55,4.19,12.09,12.09,0,0,1-4,2.9,18,18,0,0,1-9.07,1.16A39,39,0,0,1,36,84.42a58.22,58.22,0,0,1-7.8-3.29l.14-.38c5.44,1.26,10.91,2.5,16.22,2.45a15.88,15.88,0,0,0,7.25-1.52A8.87,8.87,0,0,0,56,76.55a24,24,0,0,0,1.1-7.47A71.58,71.58,0,0,0,56.68,61c-.24-2.74-.62-5.5-.83-8.35a25.33,25.33,0,0,1,0-4.45,7.93,7.93,0,0,1,.64-2.56,3.66,3.66,0,0,1,1.11-1.37,3.1,3.1,0,0,1,1.75-.6,5.65,5.65,0,0,1,2.63.68,14.67,14.67,0,0,1,1.94,1.17c1.22.85,2.23,1.75,3.36,2.56a58.77,58.77,0,0,0,7,4.49A45.91,45.91,0,0,0,89.8,57.63a44.83,44.83,0,0,0,7.88.48,19.65,19.65,0,0,0,7.38-1.63,17.55,17.55,0,0,0,3.23-2,19.75,19.75,0,0,0,2.77-2.72,31,31,0,0,0,4.13-7Z"/><path d="M107.42,26.18a21,21,0,0,1,.31,8.6,16.78,16.78,0,0,1-3.84,8.1,19.66,19.66,0,0,1-7.35,5.25A26.07,26.07,0,0,1,88,50.07a51,51,0,0,1-8.58-.25c-2.82-.29-5.61-.67-8.38-1.06s-5.55-.88-8.32-1.35c-1.38-.25-2.8-.54-4.09-.74a12.61,12.61,0,0,0-1.9-.14,3.07,3.07,0,0,0-1.42.28c-.12.08-.12.13-.12.17a2,2,0,0,0,0,.32,5.64,5.64,0,0,0,.36,1.49,30.84,30.84,0,0,0,1.66,3.53l4,7.31a65.52,65.52,0,0,1,3.65,7.8,24.59,24.59,0,0,1,1.73,8.92,13.56,13.56,0,0,1-1,4.81,11.79,11.79,0,0,1-2.8,4.1,18,18,0,0,1-8.12,4.2,39.46,39.46,0,0,1-8.57,1.09,58.06,58.06,0,0,1-8.45-.42v-.41c5.54-.68,11.11-1.38,16.08-3.24a15.93,15.93,0,0,0,6.3-3.91,8.92,8.92,0,0,0,2.2-6.26,24.15,24.15,0,0,0-1.53-7.4,69.91,69.91,0,0,0-3.14-7.45c-1.17-2.49-2.46-5-3.64-7.56a26.41,26.41,0,0,1-1.55-4.18,7.85,7.85,0,0,1-.27-2.62,3.59,3.59,0,0,1,.57-1.66,3.13,3.13,0,0,1,1.44-1.17,5.58,5.58,0,0,1,2.7-.26,15.18,15.18,0,0,1,2.23.44c1.44.38,2.69.88,4,1.26a57.66,57.66,0,0,0,8.09,1.82A45.63,45.63,0,0,0,87.55,47a45,45,0,0,0,7.56-2.23,19.66,19.66,0,0,0,6.38-4.07,17.49,17.49,0,0,0,2.37-3,18.76,18.76,0,0,0,1.66-3.5,31,31,0,0,0,1.5-8Z"/><path d="M93.35,11.38a21.1,21.1,0,0,1,3.23,8,16.88,16.88,0,0,1-.83,8.93,19.81,19.81,0,0,1-5.12,7.44,26,26,0,0,1-7.39,4.76,50.82,50.82,0,0,1-8.15,2.69c-2.75.69-5.49,1.29-8.24,1.87s-5.51,1.08-8.28,1.58c-1.38.24-2.81.45-4.09.7a12.71,12.71,0,0,0-1.84.53,3.06,3.06,0,0,0-1.23.74c-.09.12-.07.16-.06.2a2.61,2.61,0,0,0,.11.3,5.22,5.22,0,0,0,.84,1.28,31.4,31.4,0,0,0,2.77,2.76l6.27,5.49a62.6,62.6,0,0,1,6.1,6.09,24.29,24.29,0,0,1,4.68,7.78,13.5,13.5,0,0,1,.74,4.85,12,12,0,0,1-1.22,4.81,18.08,18.08,0,0,1-6.2,6.72,38.52,38.52,0,0,1-7.68,4,58,58,0,0,1-8.08,2.5l-.14-.39c5-2.52,10-5.09,14-8.54a15.91,15.91,0,0,0,4.58-5.83,8.89,8.89,0,0,0-.07-6.63,24.26,24.26,0,0,0-4-6.43,70.76,70.76,0,0,0-5.5-5.93c-1.95-1.94-4-3.81-6-5.86a27,27,0,0,1-2.88-3.39A7.82,7.82,0,0,1,48.53,50a3.7,3.7,0,0,1,0-1.76,3.15,3.15,0,0,1,1-1.59,5.7,5.7,0,0,1,2.45-1.17,16.73,16.73,0,0,1,2.24-.35C55.64,45,57,45,58.37,44.9a58.26,58.26,0,0,0,8.23-1.06,45.78,45.78,0,0,0,15.18-6.13A44.93,44.93,0,0,0,88.13,33a19.64,19.64,0,0,0,4.6-6,17,17,0,0,0,1.21-3.59,18.93,18.93,0,0,0,.37-3.86,31.14,31.14,0,0,0-1.33-8Z"/><path d="M75.06,2.29a21,21,0,0,1,5.77,6.4,16.81,16.81,0,0,1,2.27,8.67,19.76,19.76,0,0,1-2.26,8.74,26.14,26.14,0,0,1-5.32,7,50.81,50.81,0,0,1-6.74,5.32C66.44,40,64.06,41.51,61.68,43s-4.81,2.89-7.24,4.31c-1.21.69-2.49,1.38-3.6,2.06a12.31,12.31,0,0,0-1.55,1.12,2.91,2.91,0,0,0-.9,1.12c0,.14,0,.18,0,.21a1.73,1.73,0,0,0,.2.25,5.43,5.43,0,0,0,1.23.91,31.42,31.42,0,0,0,3.54,1.64l7.78,3A66.24,66.24,0,0,1,69,61.27,24.31,24.31,0,0,1,76,67a13.42,13.42,0,0,1,2.36,4.3,12,12,0,0,1,.49,4.93,18.09,18.09,0,0,1-3.53,8.45A38.84,38.84,0,0,1,69.48,91a57.15,57.15,0,0,1-6.74,5.11l-.26-.31c3.8-4.08,7.61-8.2,10.23-12.82a15.86,15.86,0,0,0,2.31-7,8.87,8.87,0,0,0-2.34-6.21,23.78,23.78,0,0,0-5.92-4.68,71.58,71.58,0,0,0-7.2-3.7c-2.5-1.15-5.07-2.2-7.65-3.45A25.73,25.73,0,0,1,48,55.7a7.7,7.7,0,0,1-1.89-1.83,3.69,3.69,0,0,1-.64-1.64,3.18,3.18,0,0,1,.36-1.82,5.69,5.69,0,0,1,1.9-1.94,14.46,14.46,0,0,1,2-1.09c1.35-.64,2.63-1.06,3.9-1.63A58.37,58.37,0,0,0,61,41.94,45.76,45.76,0,0,0,73.2,31a44.89,44.89,0,0,0,4.36-6.58,19.77,19.77,0,0,0,2.27-7.21,16.59,16.59,0,0,0-.09-3.79,18.82,18.82,0,0,0-1-3.75,30.89,30.89,0,0,0-4-7.08Z"/><path d="M54.77,0a21.1,21.1,0,0,1,7.6,4,16.76,16.76,0,0,1,5.1,7.37,19.69,19.69,0,0,1,.87,9,26.11,26.11,0,0,1-2.6,8.4,51.47,51.47,0,0,1-4.51,7.3c-1.66,2.3-3.38,4.52-5.11,6.73s-3.53,4.37-5.33,6.53c-.9,1.07-1.87,2.15-2.68,3.17A11.58,11.58,0,0,0,47,54.11a3.08,3.08,0,0,0-.47,1.36c0,.15,0,.17.09.19a1.25,1.25,0,0,0,.27.17,5.76,5.76,0,0,0,1.47.44,31.18,31.18,0,0,0,3.89.33l8.33.17a64.69,64.69,0,0,1,8.59.74,24.36,24.36,0,0,1,8.59,3,13.43,13.43,0,0,1,3.68,3.23,11.84,11.84,0,0,1,2.15,4.48,18,18,0,0,1-.42,9.14,38.92,38.92,0,0,1-3.34,8,57.9,57.9,0,0,1-4.59,7.11l-.36-.2c2.19-5.14,4.36-10.31,5.24-15.55a16,16,0,0,0-.24-7.41,8.89,8.89,0,0,0-4.32-5,24.11,24.11,0,0,0-7.17-2.38,71.31,71.31,0,0,0-8-1c-2.74-.24-5.52-.34-8.36-.63a26.38,26.38,0,0,1-4.39-.75,7.84,7.84,0,0,1-2.41-1.07A3.74,3.74,0,0,1,44.08,57a3.09,3.09,0,0,1-.28-1.83,5.72,5.72,0,0,1,1.12-2.47A16.76,16.76,0,0,1,46.41,51c1.06-1.05,2.12-1.89,3.11-2.86a58,58,0,0,0,5.63-6.1,45.92,45.92,0,0,0,7.69-14.45,44.73,44.73,0,0,0,1.84-7.67,19.77,19.77,0,0,0-.33-7.56A16.82,16.82,0,0,0,63,8.86a18.4,18.4,0,0,0-2.2-3.2A30.84,30.84,0,0,0,54.6.37Z"/><path d="M34.92,4.79A21.09,21.09,0,0,1,43.45,6a16.76,16.76,0,0,1,7.31,5.18,19.85,19.85,0,0,1,3.89,8.15,26,26,0,0,1,.43,8.78,53.15,53.15,0,0,1-1.74,8.41c-.78,2.72-1.64,5.4-2.51,8.07s-1.82,5.31-2.77,8c-.48,1.32-1,2.67-1.43,3.9a11.42,11.42,0,0,0-.47,1.85,2.89,2.89,0,0,0,0,1.44c.05.14.1.14.14.15a1.77,1.77,0,0,0,.31.06,5,5,0,0,0,1.54-.09,32.21,32.21,0,0,0,3.77-1l7.88-2.7a67,67,0,0,1,8.33-2.24,24.44,24.44,0,0,1,9.08-.15,13.38,13.38,0,0,1,4.57,1.78A11.84,11.84,0,0,1,85.36,59a18.1,18.1,0,0,1,2.73,8.74,39.18,39.18,0,0,1-.42,8.62,57.36,57.36,0,0,1-1.88,8.25l-.41-.08c.3-5.57.57-11.17-.39-16.39a15.88,15.88,0,0,0-2.76-6.88A8.92,8.92,0,0,0,76.45,58a24.43,24.43,0,0,0-7.55.22A73.91,73.91,0,0,0,61,60c-2.66.72-5.3,1.57-8.08,2.27a24.49,24.49,0,0,1-4.38.8,7.64,7.64,0,0,1-2.63-.18A3.72,3.72,0,0,1,44.38,62a3.12,3.12,0,0,1-.89-1.63,5.67,5.67,0,0,1,.21-2.7,14.24,14.24,0,0,1,.82-2.11c.62-1.36,1.34-2.5,1.94-3.76a57.49,57.49,0,0,0,3.2-7.65A45.76,45.76,0,0,0,51.94,28a43.87,43.87,0,0,0-.89-7.84,19.49,19.49,0,0,0-2.89-7,17.25,17.25,0,0,0-2.5-2.84A19.4,19.4,0,0,0,42.5,8.06,30.46,30.46,0,0,0,34.88,5.2Z"/><path d="M17.9,16.08a21.16,21.16,0,0,1,8.43-1.79A16.72,16.72,0,0,1,35,16.66,19.71,19.71,0,0,1,41.42,23a26.46,26.46,0,0,1,3.4,8.1,52.81,52.81,0,0,1,1.24,8.5c.2,2.82.31,5.63.41,8.44s.1,5.61.11,8.42c0,1.4,0,2.85,0,4.15a14,14,0,0,0,.2,1.9,3,3,0,0,0,.52,1.35c.1.1.15.09.18.09s.14,0,.32,0a5.29,5.29,0,0,0,1.41-.61A33.29,33.29,0,0,0,52.38,61l6.5-5.23a64.29,64.29,0,0,1,7.05-5,24.42,24.42,0,0,1,8.49-3.26,13.5,13.5,0,0,1,4.9.11,12.07,12.07,0,0,1,4.52,2A18,18,0,0,1,89.39,57a39,39,0,0,1,2.55,8.24A57.08,57.08,0,0,1,93,73.67l-.41.07c-1.62-5.34-3.28-10.69-6-15.27A15.74,15.74,0,0,0,81.67,53a8.92,8.92,0,0,0-6.55-1.09,24.33,24.33,0,0,0-7,2.79A71.23,71.23,0,0,0,61.3,59c-2.24,1.59-4.44,3.29-6.81,4.9a25.84,25.84,0,0,1-3.84,2.25,8.13,8.13,0,0,1-2.53.73,3.73,3.73,0,0,1-1.74-.28A3.13,3.13,0,0,1,45,65.42a5.82,5.82,0,0,1-.73-2.61,15.46,15.46,0,0,1,0-2.27c.13-1.49.4-2.81.54-4.19a57.4,57.4,0,0,0,.39-8.29,45.85,45.85,0,0,0-3.4-16A45.24,45.24,0,0,0,38.31,25a19.61,19.61,0,0,0-5.11-5.57,17,17,0,0,0-3.32-1.82,19.3,19.3,0,0,0-3.74-1A30.66,30.66,0,0,0,18,16.48Z"/></g></g></svg>