<svg xmlns="http://www.w3.org/2000/svg" viewBox="0 0 106.35 106.35"><title>Recurso 14MANDALA</title><g id="Capa_2" data-name="Capa 2"><g id="Capa_1-2" data-name="Capa 1"><path d="M55.13,11v.49c.09,0,.18,0,.26,0s0,0,0,0V12c.08,0,.15,0,.23,0v8s-.07,0-.1,0a.4.4,0,0,1-.11,0l0,0v1s-.08,0-.13,0a.15.15,0,0,1-.13,0v-.47s-.08,0-.12,0-.08,0-.12,0V21s-.09,0-.13,0h-.12c0,.05,0,.11,0,.16v.32s-.08,0-.12,0H54.4V22l0,0h.19s0,.09,0,.13v.12s-.06,0-.09,0h-.12s0,0,0,0v.19l0,0h.47a1.8,1.8,0,0,0,0-.22s.07,0,.11,0,.07,0,.11,0v-.47s.1,0,.14,0a.48.48,0,0,1,.12,0c0-.09,0-.18,0-.26h.21s0,.08,0,.13a.56.56,0,0,1,0,.13h.26c0,.05,0,.1,0,.14a.48.48,0,0,1,0,.12v.25h.22l0,0V23s.08,0,.12,0h.13l0,0v7.25s-.06,0-.09,0h-.17v0s0,0,0,0v.67c-.08,0-.15,0-.23,0a.38.38,0,0,0,0,.15,1,1,0,0,0,0,.17v.15s-.08,0-.13,0a.29.29,0,0,0-.13,0v.24s0,0,0,0h-.49v-.49c-.08,0-.15,0-.23,0v-.24h-.27v-.23h.14s.08,0,.13,0a.56.56,0,0,0,0-.13s0-.09,0-.12h-.25V25.85s0,0,0,0h-.19l0,0v-.46l0,0h.2a.33.33,0,0,0,0-.14s0-.08,0-.13H54.4v-.12s0-.08,0-.11h.1s.07,0,.11,0V23.06s.1,0,.14,0,.09,0,.13,0v-.19a0,0,0,0,0,0,0h-.47l0,0a.74.74,0,0,1,0,.21h-.13s-.09,0-.13,0v-.1a.15.15,0,0,0,0-.11H52.64a.34.34,0,0,1,0-.14s0-.09,0-.13h.11a.29.29,0,0,0,.13,0c0-.07,0-.15,0-.22h.2l0,0v-.24c-.21,0-1.08,0-1.24,0v.26h-.13s-.09,0-.13,0,0-.16,0-.24-.16,0-.23,0v-.21h.21l0,0c0-.08,0-.17,0-.26h.25s0,0,0,0v-.2h.71s0,0,0,0v-.23s.11,0,.16,0a.75.75,0,0,1,.15,0h.31s.1,0,.15,0v-.19s0,0,0,0a8,8,0,0,0-1,0v.22H52s-.06,0-.08,0v.25h-.5a0,0,0,0,1,0,0v.48a.57.57,0,0,0-.13,0s-.09,0-.14,0v.22H51s-.08,0-.12,0v.15a1,1,0,0,1,0,.17.45.45,0,0,1,0,.16h-.13s-.09,0-.13,0c0,2.18,0,7.23,0,7.5a.56.56,0,0,1,.13,0s.09,0,.12,0v1h.23V30.1a0,0,0,0,1,0,0h.26v.33a1.11,1.11,0,0,0,0,.17h.22V31s0,.06,0,.09h.11s.09,0,.14,0v-.2a.22.22,0,0,1,.11,0s.08,0,.11,0,0-.16,0-.25h.14s.09,0,.13,0v-.19s0,0,0,0h1.21c0,.07,0,.15,0,.22h.48a.22.22,0,0,0,0-.11s0-.08,0-.11h.23a0,0,0,0,1,0,0c0,.07,0,.15,0,.22h.21v.27a.41.41,0,0,0-.11,0,.25.25,0,0,0-.12,0V31s0,.08,0,.11h.21v.5h.14s.09,0,.13,0v.23l0,0h.21v.71s.06,0,.09,0h.17a.08.08,0,0,1,0,0v7.74h-.26v1s0,0,0,0h-.2l0,0v-.75h-.25s0,.1,0,.15v.62h-.21s0,0,0,0v.71h-.13c-.05,0-.09,0-.14,0v.13s0,.09,0,.12h.25v.71s-.06,0-.09,0h-.17v.25s-.08,0-.12,0a.26.26,0,0,1-.12,0v-.23l0,0h-1v-.2s-.09,0-.14,0h-.11s0-.08,0-.12V42.6h-.22c0-.08,0-.16,0-.23h-1c0,.07,0,.15,0,.22h-.25v0a.13.13,0,0,1,0-.06v-.63c-.07,0-.14,0-.22,0s0-.16,0-.24-.08,0-.13,0a.29.29,0,0,1-.13,0v-.2a.18.18,0,0,0-.12,0h-.1s0-.06,0-.09V32.86s.09,0,.14,0h.36v-.25s0,0,0,0h-.46c0-.07,0-.15,0-.23s-.16,0-.24,0v0h0v-.47h-.2c0-.05,0-.09,0-.13v-.12s-.06,0-.09,0h-.16l0,0v-.47c-.07,0-.15,0-.22,0,0-.23,0-5.78,0-8.73.07,0,.15,0,.22,0s0,0,0,0h0v-.45a2.45,2.45,0,0,1,.27,0v-.25c.08,0,.16,0,.23,0v-.21c.05,0,.1,0,.14,0a.4.4,0,0,1,.11,0s0-.09,0-.13a.66.66,0,0,0,0-.14h.22c0-.07,0-.15,0-.22h.25c0-.05,0-.1,0-.14a.65.65,0,0,0,0-.14,1.47,1.47,0,0,0,.21,0h0a.4.4,0,0,0,0-.11s0-.07,0-.1h-.2s0,0,0,0v.2h-.25s0,0,0-.06V13.6s0,0,0-.06a.29.29,0,0,1,.13,0h.11l0,0h0v-.68l0,0h.2s0-.08,0-.13a.56.56,0,0,0,0-.13h-.21s0-.08,0-.12v-.09s-.08,0-.12,0a.66.66,0,0,0-.14,0c0-.09,0-.18,0-.26s-.07,0-.11,0-.07,0-.12,0v-.2s-.09,0-.13,0a.48.48,0,0,0-.12,0s0-.06,0-.09V11.3H49.9a.43.43,0,0,1,0-.16V10.8h-.27V2.3l0,0h.23l0,0V1.79c.07,0,.15,0,.23,0V1.53c0-.05.09,0,.13,0a.33.33,0,0,0,.14,0v-.2c.08,0,.16,0,.23,0V1c.05,0,.1,0,.14,0h.11s0-.07,0-.11a.34.34,0,0,0,0-.1.19.19,0,0,1,.12,0h.1s0-.09,0-.13,0-.09,0-.14h.47s0-.08,0-.11V.29s0,0,.08,0h.41V0l0,0H53.9V.25s0,0,0,0h.69l0,0v.2a.34.34,0,0,0,.14,0h.12c0,.09,0,.18,0,.26a.22.22,0,0,0,.11,0h.09s0,0,0,0v.46l0,0h.47s0,.08,0,.12a.27.27,0,0,1,0,.09s.06,0,.09,0h.17s0,0,0,0,0,0,0,0V2c.08,0,.15,0,.23,0v.48s.1,0,.14,0,.09,0,.14,0V4.76a.15.15,0,0,0,.11,0h.1s0,.06,0,.09v5.41a.26.26,0,0,1-.12,0h-.1s0,0,0,0V11l0,0h-.24c0,.05,0,.09,0,.14a.41.41,0,0,0,0,.11v.26h-.22s0,.09,0,.13v.12s-.08,0-.12,0h-.13a.3.3,0,0,1,0-.16,1.09,1.09,0,0,1,0-.18v-.15c-.07,0-.15,0-.23,0V11s-.09,0-.13,0h-.14V10.8H54.9v-.24s0,0,0,0h-.12s-.09,0-.12,0v.24h.26V11h.23Zm-.5-8.51v.13s0,.09,0,.13h-.49V2.64c0-.05,0-.09,0-.14h-.47c0-.08,0-.15,0-.23h-.49V1.8a0,0,0,0,0,0,0s0,0,0,0H53s-.07,0-.11,0V2h-.49s0,0,0,0v.24h-.13s-.09,0-.14,0v.21h-.49V2.06s0,0,0,0,0,0,0,0h.23s0,0,0,0V1.54s0,0,0,0h-.26v.13c0,.05,0,.09,0,.14h-.21a.48.48,0,0,1,0,.12s0,.07,0,.1h-.12s-.09,0-.14,0v.47s-.08,0-.11,0-.08,0-.12,0V3s0,0,0,0H51s.08,0,.11,0a.45.45,0,0,0,0,.11s0,.09,0,.14h.17s.06,0,.08,0v.48H50.9v6.73c.07,0,.15,0,.23,0V11h.13c.05,0,.09,0,.13,0s0,.17,0,.25a.48.48,0,0,0,.12,0s.08,0,.11,0v-.48h.75l0,0v-.25h.11s.08,0,.12,0v-.19l0,0H54.9V10h-.14s-.09,0-.13,0V3.81s0,0,0,0h.13s.08,0,.13,0V2.57s0,0,0-.06h-.25V2.27h-.11s-.07,0-.1,0v.2h.22Zm-1,30.34V33a.22.22,0,0,1,0,.11h-.21c0-.08,0-.16,0-.22h-.76a2.35,2.35,0,0,0,0-.26h-1l0,0a.56.56,0,0,0,0,.13s0,.08,0,.12h.11a.24.24,0,0,1,.14,0v.2h.5c0,.08,0,.16,0,.25h-.33c-.05,0-.11,0-.16,0,0,2.58,0,7,0,7.22.07,0,.15,0,.22,0a.47.47,0,0,0,0,.12c0,.05,0,.09,0,.14h.25c0,.08,0,.16,0,.23h.71c0-.07,0-.15,0-.22h.47l0,0v-.16s0-.07,0-.09h.12a.21.21,0,0,0,.13,0V36.09c.08,0,.16,0,.23,0v-3c-.08,0-.16,0-.23,0v-.2Zm0-12.54c0,.09,0,.16,0,.23h.26v-.11s0-.08,0-.11h.2a0,0,0,0,0,0,0V16.55h.26s0,0,0,0V13.06h0s0,0,0,0h-.25v-.33a.43.43,0,0,0,0-.16h-.2l0,0v.16s0,.06,0,.09h-.12s-.08,0-.13,0v-.24H52.14v.27a.56.56,0,0,1,.13,0s.09,0,.13,0v.46h0c-.08,0-.17,0-.25,0V20a0,0,0,0,0,0,0H53.4v.12a.3.3,0,0,0,0,.13Zm-1.22-19h.48a0,0,0,0,0,0,0V1a0,0,0,0,0,0,0h-.46s0,0,0,0ZM51.9,13v-.12s0-.07,0-.11h-.47l0,0a.28.28,0,0,0,0,.09s0,.08,0,.12Z"/><path d="M54.4,42.09h.21s0,.09,0,.13a.57.57,0,0,1,0,.13.22.22,0,0,1-.11,0H54.4Z"/><path d="M51.12,23.56h.26a0,0,0,0,1,0,0v5.24s-.08,0-.12,0a.56.56,0,0,1-.13,0s0,0,0,0C51.12,27.06,51.12,25.32,51.12,23.56Z"/><path d="M51.13,29.83v-.75s.09,0,.13,0h.11s0,.06,0,.09c0,.22,0,.45,0,.67,0,0-.09,0-.13,0A.56.56,0,0,1,51.13,29.83Z"/><path d="M51.4,3.78h.21s0,0,0,.07V9.77s-.07,0-.11,0a.22.22,0,0,1-.11,0Z"/><path d="M51.63,10.79H51.4v-.24s.07,0,.1,0h.11s0,0,0,0Z"/><path d="M33.8,15.69l.24.43c.09,0,.15-.09.23-.12h0s0,0,0,0l.22.38a.81.81,0,0,0,.21-.1l4,6.93s-.06,0-.08.07l-.1.05v0h0l.47.82c0,.05-.07.06-.1.08a.39.39,0,0,1-.13.06L38.57,24s-.08,0-.11,0a.24.24,0,0,0-.1.08l.24.4c0,.05-.08.06-.11.08l-.1.06a.33.33,0,0,0,.07.16s0,.08.07.13l.09.14a.3.3,0,0,1-.1.07l-.08.05a0,0,0,0,1,0,0,0,0,0,0,0,0,0l.22.38,0,0,.17-.1s.06.07.08.11l.06.1s0,0-.07.06l-.11.06v0a1.4,1.4,0,0,0,.1.16h0c.14-.07.27-.15.4-.23a1.14,1.14,0,0,0-.1-.19s.06-.05.09-.07.07,0,.09-.07l-.23-.41a.21.21,0,0,1,.11-.08l.11-.06c0-.09-.09-.15-.12-.23a0,0,0,0,0,0,0l.17-.1c.05,0,.05.07.08.11l.07.12.21-.13c.06,0,.06.07.09.11a.31.31,0,0,1,0,.1l.07.11.06.11.18-.11h0l0,0,.33.57s.08,0,.12-.05l.11-.06h0q1.81,3.14,3.62,6.27s0,0-.06.06l-.14.09v0s0,0,0,0l.34.58c0,.07-.13.08-.18.14a.33.33,0,0,0,.07.13,1.09,1.09,0,0,0,.08.15l.08.13c0,.05-.07.06-.11.08s-.08,0-.11.08l.12.21a0,0,0,0,0,0,0l0,0-.39.22L44,33.29c-.08,0-.13.09-.22.1l-.12-.21h0l-.22.12-.11-.2a.41.41,0,0,0,.11-.07s.09,0,.11-.08l-.06-.11s0-.09-.08-.1l-.22.13Q42,30.82,40.77,28.78s0,0,0,0l-.17.1h0l-.22-.39h0s0,0,0,0l.17-.1a.23.23,0,0,0-.06-.12s0-.09-.08-.11l-.18.1a.27.27,0,0,1-.06-.1s-.06-.06,0-.1l.08-.05s.07,0,.09-.07l-.87-1.51c0-.05.08-.06.11-.08s.09,0,.11-.08L39.51,26h0l-.39.23h0s0,0,0,0a1.65,1.65,0,0,1,.1.19.67.67,0,0,1-.12.06s-.07.07-.12.05a.22.22,0,0,0,0-.08s0-.08-.07-.1l-1.28.74a.26.26,0,0,1-.07-.11s-.06-.07-.06-.12l.1-.06a.41.41,0,0,0,.11-.07c0-.08-.09-.13-.09-.21l.17-.1a0,0,0,0,1,0,0l-.07-.13-.05-.08c-.19.09-.94.52-1.07.62l.13.22-.12.07s-.07.06-.12.05-.08-.14-.13-.21-.13.09-.21.09L36,26.91l.19-.11v0c0-.08-.09-.14-.11-.23l.21-.12v0l-.1-.18.6-.34h0a0,0,0,0,0,0,0l-.12-.21a.31.31,0,0,1,.13-.08l.14-.08.13-.08.13-.08s.1,0,.13-.09l-.1-.16h0a7,7,0,0,0-.86.51l.1.18-.35.21S36,26,36,26l.13.21-.41.24s0,0,0,0,0,0,0,0,.16.28.23.42l-.11.07s-.09,0-.11.08l.11.18-.11.06s-.07,0-.08.07l.07.13.09.15a.69.69,0,0,1,.07.15l-.11.06s-.09,0-.11.08c1.08,1.91,3.61,6.27,3.76,6.49l.12-.06s.06-.07.11,0l.47.8s0,0,0,0h0l.17-.1a0,0,0,0,1,0,0l-.48-.82v0l.22-.12.09.15.08.13a.42.42,0,0,0,.09.14l.19-.11c.07.13.14.24.21.36s0,.06.06.06l.1,0s.08,0,.11-.09l-.1-.17s.06,0,.09-.07.08,0,.09-.07S41,34.2,41,34.12l.12-.07s.08,0,.1-.08l-.1-.17v0l1-.61c.05.06.06.14.12.19l.42-.24s0-.07,0-.11,0-.06,0-.1l.2-.12h0s.06.13.13.17l.18-.1.14.23-.1.06s-.07,0-.09.07a.41.41,0,0,0,.05.09s0,.08.07.09l.18-.11.25.43.13-.06a.2.2,0,0,1,.12-.06l.12.21h0l.18-.1.36.61s.06,0,.09,0l.14-.09,0,0L48.69,41l-.21.13v0h0l.47.82v0h0l-.16.1h0a0,0,0,0,1,0,0l-.36-.62h0l-.21.12c0,.06,0,.09.06.14l.08.13.08.13.07.14.08.13-.18.11a0,0,0,0,0,0,0l0,0,.34.58-.12.07a.21.21,0,0,0-.11.08.41.41,0,0,0,.07.11s0,.09.07.1l.22-.12.36.61s0,0-.07.06L49,44l.12.22s-.06,0-.09.07a.19.19,0,0,1-.11,0l-.11-.2h-.05l-.82.47h0l-.1-.17c-.06,0-.09,0-.13.05l-.1.06c-.05,0-.05-.07-.08-.1a.75.75,0,0,0-.07-.12l-.18.1c-.07,0-.08-.13-.14-.18l-.85.49c0,.07.08.12.09.2l-.21.12h0l0-.05-.32-.56c-.08,0-.13.08-.21.1s-.08-.15-.13-.21-.08,0-.12.05a.45.45,0,0,1-.12.06l-.1-.18a.19.19,0,0,0-.11.05l-.08,0s-.05,0-.07-.06Q42.73,40.63,40.63,37a.08.08,0,0,0,0-.05s.07-.06.1-.08l.1-.06.12-.07.1,0-.13-.22h0l-.05,0-.35.2c-.07,0-.08-.13-.14-.18l-.21.12h0c-.08-.13-.15-.26-.22-.39h0l-.17.1s-.06-.07-.08-.11l-.06-.1s-.06,0-.09,0l-.14.08h0s0,0,0,0l-.22-.37c-.08,0-.13.08-.2.09-.13-.19-2.91-5-4.37-7.55,0-.07.13-.08.18-.13v0s0,0,0,0l-.23-.39c.07-.06.16-.09.23-.14l-.13-.22c.06-.07.14-.08.19-.14l-.1-.18c0-.05.08-.05.11-.08l.1-.06c0-.05,0-.08,0-.12l-.06-.11a1.13,1.13,0,0,1,.18-.12c0-.08-.08-.13-.1-.21L35,26.3c0-.06,0-.09-.06-.13l-.07-.11.19-.11v0L35,25.84s0-.08-.06-.09l-.18.1v0a1.62,1.62,0,0,1,.1.18l-.21.12s0,0-.05-.05q-1.73-3-3.44-6l0-.05s.08-.05.11-.07l.1-.06s0,0,0,0,0,0,0,0c-.11-.19-.22-.39-.34-.58v0c.05-.05.12-.07.18-.12s0-.07-.06-.11a.67.67,0,0,0-.06-.12l-.19.1s-.05-.06-.07-.09a.56.56,0,0,1-.05-.08c-.05,0-.08,0-.12.05l-.12.06c-.05-.07-.08-.14-.13-.21s-.07,0-.1,0-.07.05-.11.05l-.1-.18c-.06,0-.09,0-.13.06l-.1.05s-.05,0-.06-.06-.14-.23-.2-.35a1.24,1.24,0,0,0-.2.1.42.42,0,0,1-.09-.14l-.08-.13-.09-.15a1.55,1.55,0,0,0-.22.12h0l-4.23-7.33v0l.2-.11V10.7l-.22-.39c0-.06.13-.07.18-.13L24.7,10c0-.06.07-.06.11-.08s.08,0,.11-.08l-.1-.18c.05-.07.13-.08.19-.14l-.12-.21S25,9.22,25,9.2l.1-.06s0-.07,0-.1a.93.93,0,0,1,0-.1s.06,0,.09-.07l.08,0c0-.05,0-.08-.05-.12s-.05-.07-.05-.12l.4-.24c0-.05,0-.07,0-.11a.35.35,0,0,0-.05-.08s0-.05.07-.06l.35-.21-.12-.21s0,0,0,0h0l1.47-.85h0l.12.21h0L28,6.65h0l.1.17c.06,0,.09,0,.13,0l.11-.06c.06.06.08.15.14.21s.07,0,.1,0l.08,0h0c.07.13.14.26.22.39h0L29.34,7s.05.06.07.09l.05.09s.06,0,.09,0l.14-.08h0s0,0,0,0l.23.38c.07,0,.13-.07.21-.09l.23.41c.06,0,.09,0,.13,0s.07-.06.13-.06l1.12,1.94c.05,0,.07,0,.11,0L32,9.54s0,0,.06.07l2.66,4.6,0,.08c0,.05-.06.05-.09.07l-.08.05v0c.11.19.22.39.34.58v0l-.2.12c0,.06,0,.09,0,.13l.06.1.07.11,0,.1-.18.11a.25.25,0,0,0,.05.13l.06.1c0,.05-.07.05-.1.08l-.11.06a.34.34,0,0,1-.09-.13l-.09-.15-.08-.13c-.08,0-.13.08-.21.09L34,15.57a.25.25,0,0,0-.13,0l-.11.07-.11-.18h0l-.18.11-.12-.22h0l-.11.06s-.08,0-.1.08l.12.21h0l.21-.12.1.18h0s0,0,0,0ZM29.1,8.56a.75.75,0,0,1,.07.12s.06.07,0,.12l-.42.25a.47.47,0,0,0-.07-.12s0-.09-.08-.11l-.41.24c-.06-.06-.07-.14-.13-.19l-.39.22h0l-.23-.39a0,0,0,0,0,0,0h0l-.08.05s-.08,0-.1.07l.1.17s0,0,0,0L27,9.23h0v0l.13.21-.12.07s-.09,0-.11.09l.11.18-.4.23h0l-.21-.37,0,0v0l.2-.11v0l-.22-.38v0h0L26,9.2a1.27,1.27,0,0,0,.07.12s.06.07.05.13l-.18.1a.54.54,0,0,1,0,.11s.06.05,0,.1l-.1.06s-.08,0-.11.08l.24.41s-.07,0-.1.07-.07,0-.09.07.16.26.23.4h0l.09,0s.06-.06.11,0l.05.1s0,.08.08.11l.15-.08s.05-.05.08,0l.24.41-.38.23,0,0s0,0,0,0l3.36,5.82c.08,0,.13-.09.21-.1l.25.42.12-.06s.06-.06.11-.05.08.14.14.21l.1-.06s.08,0,.08-.07l-.24-.42.64-.36h0s0,0,0,0l-.12-.21a.53.53,0,0,1,.1-.06s.07,0,.09-.08l-.1-.17v0h0l1.9-1.1h0s0,0,0,0l-.13-.22L33,15s-.06.06-.12.05q-1.55-2.69-3.1-5.37h0s0,0,0,0l.09-.06s.09,0,.11-.08l0,0-.57-1s0-.05-.05-.05l-.22.12L29,8.38h0l-.09.06s-.07,0-.08.06l.1.18h0ZM43.4,35.34a.37.37,0,0,1,.06.1s0,.06,0,.1l-.18.1c-.06,0-.06-.13-.13-.18h0l-.6.35h0c-.05-.06-.08-.15-.14-.21l-.84.48a0,0,0,0,1,0,0l.06.11s0,.09.08.1l.1-.06s.07-.06.13-.05l.1.17h0l.38-.22h0l.12.22-.15.09a.57.57,0,0,0-.13.08s-.11,0-.14.09c1.28,2.25,3.51,6.09,3.62,6.25.07,0,.12-.09.2-.09l.06.1s0,.09.08.11l.22-.12c.06.06.07.14.13.19l.6-.35a0,0,0,0,0,0,0c0-.08-.09-.13-.09-.21l.37-.21,0,0s0,0,0,0l-.08-.14s0,0,0-.08l.1-.06s.09,0,.11-.08L45.26,38c.06-.06.14-.07.19-.13L44,35.3c-.08,0-.13.08-.21.09l-.11-.18ZM37.13,24.49c.06.07.08.14.13.19l.23-.13-.06-.1s0-.06,0-.1a1.63,1.63,0,0,1,.17-.11v0L35.7,21v0s0,0,0,0l.2-.12a0,0,0,0,1,0,0,.06.06,0,0,1,0,0c-.58-1-1.15-2-1.72-3a0,0,0,0,0,0,0h0a1.55,1.55,0,0,1-.22.12l-.09-.15-.08-.13c0-.05,0-.11-.09-.14l-.17.1s0,0,0,0l.08.14s0,.05,0,.08l-.1.06s-.07.06-.13.05l-.12-.2s0,0,0,0L32,18.48h0a0,0,0,0,1,0,0l.12.2h0l.11-.06s.07-.06.12-.05l.23.4v0c-.06.06-.16.08-.21.14,1.12,1.95,2.23,3.88,3.35,5.81h0s0,0,0,0l1.06-.6a0,0,0,0,1,0,0h0l.06.09s0,.09.08.12ZM26.55,8.6h0l.36-.21,0,0v0l-.12-.21h0l-.36.21,0,0v0ZM32,19l0-.09s0-.08-.08-.1l-.39.23h0s0,0,0,0l.05.09s0,.07.07.09Z"/><path d="M48.7,43l.18-.1s0,.06.08.1l.06.11s-.06,0-.09.07l-.1.06Z"/><path d="M36.59,28.55l.22-.13h0Q38.15,30.7,39.45,33c0,.05-.06.05-.1.08l-.11.06h0C38.34,31.59,37.47,30.07,36.59,28.55Z"/><path d="M39.73,34l-.38-.65s.08,0,.11-.08l.1-.06s0,0,.06.07l.34.58s-.08,0-.11.08Z"/><path d="M26.94,11.28l.18-.1s0,0,.05.05l2.94,5.1,0,0c0,.05-.05.05-.09.07a.19.19,0,0,1-.1.05Z"/><path d="M30.64,17.24l-.18.11h0l-.12-.21s.05-.05.08-.07l.09-.05h0Z"/><path d="M17.65,30.4l.43.25c.06-.06.08-.16.14-.22h0l.38.22c.06-.05.08-.13.14-.19l6.92,4s0,.07,0,.1l-.05.09s0,0,0,0h0l.82.47s0,.08-.05.12a.28.28,0,0,1-.08.11l-.41-.23s-.05.06-.07.09a.14.14,0,0,0,0,.11l.4.23a.25.25,0,0,1-.05.13l-.06.1c0,.05.09.07.13.1l.14.08.14.08a.19.19,0,0,1-.05.11l0,.08v0h0l.38.23h0l.1-.17s.08,0,.12,0l.1.06s0,.06,0,.09l-.07.11v0l.17.1h0l.23-.4-.18-.12s0-.07,0-.1a.19.19,0,0,0,.05-.11L27,35.81c0-.06,0-.09.06-.13a.41.41,0,0,1,.06-.11c-.06-.06-.15-.08-.22-.14v0l.1-.17s.08,0,.12,0l.12.07.12-.21c.06,0,.09,0,.13.05l.1,0,.12.07.1.06.1-.18h0l0,0,.57.33c.05,0,.06-.07.08-.1s0-.08.06-.11h0L35,39s0,0,0,.08l-.08.14s0,0,0,0h0l.59.34c0,.08-.08.13-.09.2a.32.32,0,0,0,.12.08l.15.09.13.08s0,.08-.05.12,0,.07,0,.13l.2.11a0,0,0,0,0,0,0l0,0-.22.39-.43-.25c-.06.06-.07.14-.14.19l-.2-.12h0l-.12.22-.2-.12.07-.12s0-.06,0-.12a.6.6,0,0,0-.11-.06s-.07-.07-.12,0l-.12.22-4.09-2.36h0l-.1.17h0l-.39-.23a0,0,0,0,1,0,0s0,0,0,0l.1-.17s-.08-.06-.12-.08-.06-.06-.12-.05l-.11.18-.1-.06s-.08,0-.08-.07l0-.09s.05,0,.05-.1l-1.51-.88c0-.05,0-.08.05-.12s.06-.07.06-.12l-.17-.1h0l-.22.39a0,0,0,0,0,0,0v0a1.4,1.4,0,0,1,.18.12l-.07.11s0,.09-.08.1l-.09-.05a.28.28,0,0,0-.11,0l-.73,1.28a.39.39,0,0,1-.13-.06s-.08,0-.1-.08l.05-.1s.06-.07.06-.12-.14-.06-.18-.13l.1-.17v0l-.12-.07-.08,0a10.87,10.87,0,0,0-.62,1.07l.22.12a.35.35,0,0,1-.07.12s0,.09-.08.11L25.45,39c-.06,0-.07.14-.13.18l-.19-.1c0-.06.07-.12.1-.19v0c-.06,0-.15-.08-.22-.14l.13-.21v0L25,38.35l.34-.6s0,0,0,0v0l-.2-.12a.31.31,0,0,1,.07-.14c0-.05.05-.09.07-.14l.08-.13.08-.13s.06-.08.06-.14l-.17-.1h0a6.49,6.49,0,0,0-.49.87l.18.11c-.07.12-.14.23-.2.35s-.05,0,0,.09l.22.12-.24.41a0,0,0,0,0,0,0v0l.41.24-.07.11a.25.25,0,0,0,0,.13l.18.11a.31.31,0,0,0-.05.1s-.06.06-.05.1l.13.08.15.09a.31.31,0,0,1,.14.09l-.07.11s-.06.07-.05.12c1.89,1.11,6.26,3.62,6.5,3.74A.75.75,0,0,1,32,43.7s0-.08.08-.1l.8.47h0s0,0,0,0l.1-.17v0c-.28-.15-.55-.31-.82-.47h0v0l.13-.22.15.09.13.08a.59.59,0,0,0,.16.07l.11-.19.35.21s0,0,.09,0a.31.31,0,0,0,0-.1s.06-.07.06-.12l-.18-.1s0-.08,0-.11,0-.06,0-.1-.14-.08-.21-.14l.06-.12s.07-.06,0-.12L33,42.44v0l.6-1.05c.08,0,.13.08.21.09l.23-.41S34,41,34,41s-.07,0-.09-.07l.12-.2h0c.07,0,.12.09.2.09l.11-.18.23.13-.06.1s0,.06,0,.11l.09,0s.06.06.1,0l.11-.18.43.25.07-.12s0-.09.09-.11l.2.12h0l.11-.18.61.35s.05,0,.06-.06l.09-.15h0l6.71,3.87c0,.08-.09.15-.12.22v0h0l.82.48h0v0l-.09.16h0l-.62-.35h0l-.13.21s.09.06.13.08l.13.08.13.08.14.07.13.08-.1.19v0l0,0,.58.34-.07.12a.22.22,0,0,0,0,.12.39.39,0,0,0,.11.06s.07.07.12.05l.12-.22.62.36s0,.06,0,.09a1.09,1.09,0,0,1-.08.15l.21.12c0,.06,0,.08,0,.11a.23.23,0,0,1-.07.1l-.2-.12h0v0l-.47.81h0l-.17-.1s-.06.08-.08.11l-.06.1s-.08,0-.12,0l-.12-.07-.11.18c-.08,0-.13-.08-.21-.09l-.49.85c0,.06.13.07.18.13l-.12.21h0l0,0-.55-.32c-.07,0-.08.13-.14.18L42,49.37c-.05,0-.06.07-.08.1s0,.08-.08.11l-.18-.1s0,.06-.07.09l0,.09a.08.08,0,0,1-.08,0l-7.24-4.18-.05,0c0-.05,0-.08.05-.12l.06-.1.07-.12.05-.1-.22-.12h0l0,0-.2.36c-.08,0-.13-.08-.21-.09s-.08.14-.13.2h0l-.39-.22h0l-.1.17c-.06,0-.09,0-.13,0l-.1-.06s0,0-.06.07l-.08.14h0l0,0-.37-.22c-.07,0-.08.14-.13.18-.21-.1-5-2.87-7.57-4.35,0-.08.08-.13.09-.2v0h0l-.39-.22a1.79,1.79,0,0,1,.12-.24l-.22-.13c0-.08.08-.13.1-.21l-.18-.11s0-.08.06-.12a.93.93,0,0,1,.05-.1c0-.05-.06-.06-.1-.08a.41.41,0,0,0-.11-.07,1.14,1.14,0,0,1,.1-.19c-.05-.06-.14-.07-.19-.14L24,39s-.07,0-.11-.08l-.11-.07.1-.18v0l-.09,0s-.06,0-.1,0l-.1.18s0,0,0,0l.18.1-.13.22s0,0-.07,0l-6-3.44,0,0c0-.05,0-.08.06-.12a.47.47,0,0,1,.05-.1v0h0L17.09,35s0,0,0,0,.07-.11.09-.18-.07-.05-.1-.08L17,34.62l-.11.19c-.05,0-.07,0-.11,0l-.08-.05s-.06.07-.08.1a.75.75,0,0,0-.07.12l-.22-.12c-.05,0-.05.06-.07.08a.3.3,0,0,1-.07.1L16,34.9c-.05,0-.05.07-.08.11l-.06.1s-.06,0-.08,0l-.35-.2a.94.94,0,0,0-.12.18.3.3,0,0,1-.15-.07L15,34.92l-.15-.09c-.05.07-.08.15-.13.21h0L7.34,30.81s0,0,0,0l.11-.21v0h0L7,30.32c0-.08.08-.12.09-.21L6.92,30c0-.06,0-.09,0-.13s0-.07,0-.13l-.17-.1c0-.08.08-.13.09-.21l-.21-.13c0-.05,0-.08.06-.12a.31.31,0,0,1,0-.1s0,0-.08-.07L6.66,29c0-.05,0-.07,0-.11l0-.08c0-.05-.07-.05-.11-.08s-.08,0-.11-.08l.24-.41s-.07-.05-.1-.07l-.08-.05a.08.08,0,0,1,0-.08c.06-.12.13-.24.2-.36l-.21-.12v0a0,0,0,0,1,0,0c.28-.49.56-1,.85-1.46t0,0l.2.11h0s0,0,0,0l.33-.57h0s0,0,0,0l.17.1c.05,0,.06-.08.08-.11l.07-.11c.08,0,.15.09.23.11s0-.06.07-.09,0-.05,0-.08h0l.39.22h0l.24-.4c.05,0,.07,0,.11,0l.08.05s0,0,.06-.07L9.78,25h.05l.38.23c.07,0,.08-.13.13-.19l.42.24c.05,0,.05-.08.08-.11s0-.08.08-.11l1.94,1.12c.05,0,.06-.06.08-.09L13,26s.06,0,.08,0l4.61,2.66.08.05c0,.05,0,.07-.05.11a.56.56,0,0,0-.05.08s0,0,0,0h0l.59.34a0,0,0,0,0,0,0l-.12.21c0,.05.07.06.11.08l.1.06.11.07.11.05-.11.19a.21.21,0,0,0,.11.08l.1.06c0,.05,0,.08-.05.12a.41.41,0,0,1-.07.11.37.37,0,0,1-.14-.07l-.15-.08-.13-.08c-.07.05-.08.13-.14.19l-.21-.13c-.05,0-.06.08-.08.11a.75.75,0,0,0-.07.12l-.18-.1h0a1.62,1.62,0,0,0-.1.18l-.22-.13h0l-.06.1s-.06.07-.05.12l.21.12h0a2.39,2.39,0,0,1,.13-.21l.17.1h0ZM10,26.58l.12.06s.08,0,.11.08l-.25.42-.11-.06s-.07-.06-.13,0l-.24.41c-.07,0-.13-.09-.2-.1l-.23.39h0s0,0,0,0l-.4-.22a0,0,0,0,0,0,0h0a.35.35,0,0,0-.05.08.14.14,0,0,0,0,.11l.17.1v0l-.22.38s0,0,0,0a0,0,0,0,0,0,0l.21.13a.67.67,0,0,0-.06.12s-.07.07-.05.13l.18.1-.24.4s0,0,0,0,0,0,0,0L8.14,29l0,0v0l.11-.2a0,0,0,0,0,0,0l-.38-.22h0l-.12.22a.41.41,0,0,1,.11.07s.09,0,.11.09L7.77,29a.39.39,0,0,1,.11.06s.07,0,.08.07l-.06.1a.26.26,0,0,0-.05.12l.41.24c0,.05,0,.07,0,.11s-.05.06,0,.1.26.16.4.23h0A.41.41,0,0,1,8.65,30s0-.07.07-.09l.1.06a.45.45,0,0,0,.12.06L9,29.84s0-.06.06-.06l.42.24-.23.38s0,0,0,0,0,0,0,0l5.82,3.36c.06-.06.07-.14.14-.19l.42.24a.75.75,0,0,1,.07-.12s0-.08.07-.1a2.53,2.53,0,0,1,.23.12l.06-.1s.05-.06,0-.11l-.41-.24.36-.63v0l-.22-.13.06-.1s.05-.06,0-.11l-.17-.1v0h0c.36-.64.73-1.27,1.09-1.9,0,0,0,0,0,0v0l-.22-.13-.07.12s0,.09-.08.1l-5.37-3.09s0,0,0,0a0,0,0,0,0,0,0l.06-.1s.06-.07.06-.13l-.05,0-1-.56a.06.06,0,0,0-.07,0l-.13.22-.18-.11h0l-.05.09s0,.05,0,.09l.18.11h0Zm25.78,16,.09.06s.08,0,.09.07l-.1.18c-.08,0-.13-.09-.2-.1l0,0c-.11.2-.23.4-.35.6,0,0,0,0,0,0h0c-.08,0-.14-.09-.23-.12q-.24.43-.48.84v0a.6.6,0,0,0,.11.06s.07.07.12,0l.06-.1a.21.21,0,0,1,.08-.11l.17.1h0l.22-.38v0h0c.06.05.14.08.21.13l-.09.16-.08.13a.69.69,0,0,0-.07.15c2.24,1.3,6.09,3.52,6.26,3.6s.07-.13.14-.17a.31.31,0,0,0,.1.05s.07.06.12.06l.13-.21c.08,0,.13.08.21.09l.34-.6s0,0,0,0-.13-.06-.18-.13l.22-.37s0,0,0,0,0,0,0,0l-.14-.08s-.06,0-.07-.06l.06-.1s.06-.07,0-.13L38.74,44c0-.08.09-.13.1-.21L36.25,42.3c-.06.05-.07.14-.14.19l-.18-.11ZM24.94,36.35c.08,0,.14.09.21.1l.13-.22-.1-.06s-.08,0-.09-.07a1,1,0,0,0,.09-.18s0,0,0,0L22,34h0v0l.12-.2v0l0,0-3-1.71s0,0,0,0h0a1.27,1.27,0,0,1-.13.22l-.15-.09-.13-.08a1,1,0,0,0-.15-.07l-.1.17v0l.14.08s.07,0,.07.06l-.06.1s0,.09-.08.11l-.21-.12h0l-.72,1.26a0,0,0,0,0,0,0v0l.19.11h0l.06-.11s0-.09.08-.1.27.15.4.23,0,0,0,0-.1.14-.11.23l5.81,3.35h0l.61-1.05h0l.1.06a.39.39,0,0,0,.13.06ZM7.83,27.88h0l.21-.37,0,0s0,0,0,0l-.2-.12h0l-.21.37,0,0s0,0,0,0Zm9.94,6.33-.1-.06s-.06,0-.11,0-.15.26-.23.39v0l.09,0a.19.19,0,0,0,.1.05Z"/><path d="M44.19,46.57l.11-.18c.05,0,.08,0,.11,0l.12.07s0,.07-.05.1l-.06.1Z"/><path d="M26.5,40.14l.13-.22h0l4.54,2.62c0,.06,0,.08-.05.12l-.06.11h0Z"/><path d="M31.94,43.28l-.66-.38a.23.23,0,0,1,.06-.12.93.93,0,0,1,.05-.1s.06,0,.09,0l.58.34c0,.05,0,.08-.06.12A.45.45,0,0,1,31.94,43.28Z"/><path d="M9.51,30l.1-.18s.05,0,.07,0l5.1,2.95,0,0s0,.07,0,.1,0,.07-.07.09Z"/><path d="M15.7,33.32l-.11.18h0l-.21-.12s0-.06,0-.1a.41.41,0,0,0,0-.09h0Z"/><path d="M11,51.21h.49c0-.08,0-.17,0-.25l0,0H12c0-.07,0-.15,0-.23h8s0,.07,0,.11a.4.4,0,0,1,0,.11h1c0,.05,0,.09,0,.13a.17.17,0,0,1,0,.14h-.47s0,.08,0,.12,0,.07,0,.11H21c0,.05,0,.1,0,.14v.12c.05,0,.11,0,.16,0h.32s0,.09,0,.12v.1H22l0,0v-.2s.09,0,.13,0h.12s0,.06,0,.09v.13s0,0,0,0h.19l0,0v-.48h-.22s0-.07,0-.11,0-.07,0-.12h-.47s0-.09,0-.13a.56.56,0,0,1,0-.13c-.09,0-.18,0-.26,0v-.21s.08,0,.13,0h.13v-.25c.05,0,.1,0,.14,0h.37v-.21l0,0H23s0-.08,0-.13V50l0,0h7.25s0,.06,0,.09v.16l0,0h.69c0,.07,0,.15,0,.22a.38.38,0,0,0,.15,0h.32c0,.05,0,.09,0,.13a.33.33,0,0,0,0,.14h.24l0,0v.48h-.49c0,.08,0,.16,0,.24h-.24v.26h-.23v-.13s0-.09,0-.14h-.13s-.09,0-.12,0v.25H25.85l0,0v.2l0,0h-.46l0,0v-.19a.17.17,0,0,0-.14,0s-.08,0-.13,0V52h-.12s-.08,0-.11,0a.33.33,0,0,0,0-.1s0-.08,0-.12H23.06s0-.09,0-.13,0-.09,0-.14h-.19l0,0v.47h.23v.14s0,.09,0,.13h-.1s-.07,0-.11,0v1.48a.34.34,0,0,1-.14,0s-.09,0-.13,0v-.11a.28.28,0,0,0,0-.13c-.07,0-.15,0-.22,0v-.19s0,0,0,0h-.24c0,.2,0,1.07,0,1.23h.26v.14s0,.09,0,.13h-.24c0,.08,0,.16,0,.23h-.21v-.21l0,0a2.35,2.35,0,0,1-.26,0v-.24l0,0h-.2v-.71l0,0h-.23a.3.3,0,0,1,0-.16.75.75,0,0,1,0-.15V53.1c0-.05,0-.1,0-.15h-.21a7.78,7.78,0,0,0,0,1h.22v.41s0,.07,0,.09h.25v.48h0a0,0,0,0,0,0,0h.48a.66.66,0,0,0,0,.14s0,.09,0,.13h.22v.12s0,.08,0,.11h.32c.05,0,.1,0,.16,0v.13s0,.09,0,.13c2.18,0,7.23,0,7.5,0a.57.57,0,0,1,0-.13s0-.09,0-.13h1v-.2a0,0,0,0,0,0,0h-1V55h.33a.5.5,0,0,0,.17,0v-.22H31s.06,0,.09,0v-.11c0-.05,0-.09,0-.14h-.2a.25.25,0,0,1,0-.12s0-.07,0-.11a2.18,2.18,0,0,1-.25,0v-.13s0-.09,0-.13h-.19l0,0V52.72c.07,0,.15,0,.22,0v-.48a.22.22,0,0,0-.11,0s-.08,0-.11,0V52c.07,0,.15,0,.22,0v-.22h.27a.48.48,0,0,0,0,.12.26.26,0,0,0,0,.12H31s.08,0,.11,0v-.22h.5v-.13s0-.09,0-.14h.23l0,0v-.21h.71s0-.05,0-.08V51l0,0h7.74c0,.09,0,.17,0,.26h1s0,0,0,0v.19h-.75l0,0v.24s.1,0,.15,0h.62v.22l0,0h.71v.13s0,.09,0,.14h.13s.09,0,.12,0V52h.71s0,0,0,.08a1.08,1.08,0,0,1,0,.18h.25s0,.08,0,.12a.22.22,0,0,1,0,.11h-.23l0,0v1h-.2s0,.09,0,.13v.12s-.08,0-.12,0H42.6v.21c-.08,0-.16,0-.23,0v1c.07,0,.15,0,.22,0v.25h-.71c0,.07,0,.15,0,.23h-.24s0,.08,0,.12a.33.33,0,0,1,0,.14h-.2a.17.17,0,0,0,0,.12v.09s-.06,0-.09,0H32.86s0-.09,0-.13v-.36h-.27v.47c-.07,0-.15,0-.23,0s0,.16,0,.24h-.48l0,0v.2c-.05,0-.09,0-.13,0h-.12s0,0,0,.08v.17h-.49c0,.07,0,.15,0,.22-.23,0-5.78,0-8.73,0,0-.07,0-.15,0-.22h-.48a2.45,2.45,0,0,1,0-.27h-.25c0-.08,0-.16,0-.24h-.21s0-.09,0-.13a.48.48,0,0,1,0-.12s-.09,0-.13,0h-.14c0-.07,0-.14,0-.21s-.15,0-.22,0v-.24c-.05,0-.1,0-.14,0h-.14a1.47,1.47,0,0,0,0-.21v0h-.11s-.07,0-.1,0v.2h.22v.25s0,0-.06,0H13.54a.3.3,0,0,1,0-.13v-.12H12.8c0-.06,0-.13,0-.2s-.08,0-.13,0h-.13v.22a.25.25,0,0,1-.12,0h-.09s0,.09,0,.13a.65.65,0,0,0,0,.14H12s0,.07,0,.1,0,.08,0,.12h-.2s0,.1,0,.14a.4.4,0,0,0,0,.11s-.06,0-.09,0H11.3c0,.08,0,.15,0,.22s-.11,0-.16,0H10.8c0,.09,0,.17,0,.25H2.28v-.23l0,0H1.79c0-.07,0-.15,0-.23H1.53c-.05,0,0-.09,0-.14a.3.3,0,0,0,0-.13h-.2c0-.08,0-.16,0-.24H1s0-.09,0-.13v-.12s-.07,0-.11,0H.79a.17.17,0,0,1,0-.12v-.09s-.09,0-.13,0a.34.34,0,0,1-.14,0v-.47a.15.15,0,0,0-.11,0H.29s0-.06,0-.09v-.41H0l0,0H0v-1.7s0,0,0,0H.25l0,0v-.69s0,0,0,0h.2a.29.29,0,0,0,0-.13v-.13c.09,0,.18,0,.26,0a.25.25,0,0,0,0-.12v-.09h.5v-.47s.08,0,.12,0h.09s0-.06,0-.09v-.16l0,0H2c0-.07,0-.15,0-.23h.48s0-.09,0-.13,0-.09,0-.14H4.76a.17.17,0,0,0,0-.12v-.09s.06,0,.09,0h5.41a.25.25,0,0,1,0,.12v.09l0,0H11s0,0,0,0v.23c.05,0,.09,0,.14,0h.37v.22a.29.29,0,0,0,.13,0h.12s0,.09,0,.13a.57.57,0,0,1,0,.13.45.45,0,0,1-.16,0h-.33c0,.08,0,.15,0,.23H11c0,.05,0,.1,0,.14v.13H10.8s0,0,0,0v.2h-.24l0,0v.13s0,.08,0,.12h.24s0,0,0,0v-.25H11Zm-8.51.5h.13s.09,0,.13,0v.49H2.64c-.05,0-.09,0-.14,0v.47c-.08,0-.15,0-.23,0v.45a0,0,0,0,1,0,0v0H1.79l0,0v.09s0,.08,0,.12H2v.46s0,0,0,0l0,0h.24v.14s0,.09,0,.13h.21v.47s0,0,0,0H2l0,0v-.23l0,0H1.52v.27h.13c.05,0,.09,0,.14,0V55H1.9s.07,0,.1,0v.12s0,.09,0,.13h.47s0,.08,0,.12,0,.08,0,.11H3a.4.4,0,0,1,0-.11s0-.07,0-.11h.11a.34.34,0,0,0,.14,0V55s0-.06,0-.09h.48v.48s0,0,0,0h6.73c0-.07,0-.15,0-.23H11v-.14S11,55,11,55h.25a.48.48,0,0,0,0-.12s0-.08,0-.11h-.48V54l0,0h-.25a.48.48,0,0,0,0-.12s0-.07,0-.11h-.19s0,0,0,0h0V51.46H10v.13c0,.05,0,.09,0,.13H3.78v-.12s0-.09,0-.13H2.57s0,0-.06,0v.25H2.3l0,0v.11s0,.07,0,.1h.2v0A1.48,1.48,0,0,0,2.51,51.71Zm30.34,1H33s.07,0,.11,0v.21c-.08,0-.16,0-.22,0v.72h0s0,0,0,0-.17,0-.26,0v1l0,0h.13s.08,0,.12,0v-.11a.23.23,0,0,1,0-.14h.2V54h0v0h.25v.33c0,.06,0,.12,0,.17,2.58,0,7,0,7.22,0,0-.07,0-.15,0-.22h.12a.23.23,0,0,0,.14,0V54c.08,0,.16,0,.23,0v-.7h0c-.07,0-.15,0-.22,0v-.46s0,0,0,0h-.16s-.07,0-.09,0v-.12a.2.2,0,0,0,0-.13H36.09c0-.08,0-.16,0-.23h-3c0,.08,0,.15,0,.23h-.2Zm-12.54,0a1.62,1.62,0,0,0,.23,0v-.26h-.11s-.08,0-.11,0,0-.14,0-.2H16.54V52H13c0,.08,0,.17,0,.26h-.33s-.11,0-.16,0v.2l0,0h.16s.06,0,.09,0v.11c0,.05,0,.09,0,.14h-.24s0,0,0,0V54.2l0,0h.22l0,0a.48.48,0,0,1,0-.12s0-.09,0-.13h.47c0,.09,0,.18,0,.26H20s0,0,0,0V53h.13s.08,0,.13,0ZM1.26,54a0,0,0,0,1,0,0v-.46l0,0H1l0,0v.46l0,0Zm11.77.5h-.12a.15.15,0,0,0-.11,0v.47h.11a.25.25,0,0,0,.12,0Z"/><path d="M42.09,52v-.22s.09,0,.13,0h.13a.25.25,0,0,1,0,.12V52Z"/><path d="M23.56,55.22V55h5.24s0,.09,0,.13a.48.48,0,0,1,0,.12l0,0Z"/><path d="M29.83,55.22h-.75s0-.09,0-.13V55s.06,0,.09,0h.67s0,.09,0,.14A.56.56,0,0,1,29.83,55.22Z"/><path d="M3.78,55v-.21s0,0,.07,0H9.77s0,.08,0,.11a.25.25,0,0,1,0,.12Z"/><path d="M10.79,54.72V55h-.24s0-.07,0-.11v-.1l0,0Z"/><path d="M15.69,72.55l.43-.24c0-.09-.09-.15-.12-.23a0,0,0,0,1,0,0s0,0,0,0l.38-.23c0-.07-.07-.13-.1-.21l6.93-4s0,0,.07.08a.73.73,0,0,0,.05.09h0l.82-.47c.05,0,.06.06.08.1a.45.45,0,0,1,.06.12l-.41.24s0,.08,0,.11,0,.07.08.09l.4-.23a.21.21,0,0,1,.08.11l.06.1c.06,0,.11,0,.16-.07l.13-.08.14-.08a.3.3,0,0,1,.07.1.22.22,0,0,1,.05.08h0l.38-.23s0,0,0,0l-.1-.17s.07-.06.11-.08a.33.33,0,0,1,.1-.06s0,0,.06.06l.06.11h0l.16-.1s0,0,0,0a0,0,0,0,1,0,0c-.07-.13-.15-.26-.23-.39s-.13.07-.19.09-.05-.06-.07-.08a.3.3,0,0,0-.07-.1l-.41.24c-.05,0-.06-.08-.08-.11l-.06-.11c-.09,0-.15.09-.23.11h0l-.1-.17c0-.05.07-.06.11-.08l.12-.07-.13-.22s.07-.06.11-.08l.1-.06.11-.07.11-.05L25,66.05s0,0,0,0l0,0,.57-.33c0-.05,0-.08-.05-.12l-.06-.11a0,0,0,0,0,0,0l6.27-3.62s0,0,.06.07l.09.14h0l.58-.34c.07,0,.08.13.14.18a.54.54,0,0,0,.13-.07l.15-.09.13-.07c.05,0,.06.07.08.1s0,.09.08.12l.21-.12h0s0,0,0,0l.22.38-.43.25c0,.08.09.13.1.21l-.21.12s0,0,0,0l.12.21-.2.12A.75.75,0,0,0,33,63s0-.08-.08-.11l-.11.07s-.09,0-.1.08l.13.21-4.09,2.36a0,0,0,0,0,0,0l.1.17a0,0,0,0,0,0,0l-.39.23h0l-.1-.17a.17.17,0,0,0-.12.06s-.09,0-.11.08l.1.18-.1.06s-.06.06-.1,0a.56.56,0,0,0-.05-.08s0-.08-.07-.1L26.37,67a.21.21,0,0,1-.08-.11s0-.08-.08-.1l-.17.09v0l.23.39h0a.85.85,0,0,1,.19-.1.67.67,0,0,1,.06.12s.07.06.05.12l-.08,0s-.08,0-.1.08l.74,1.27a.21.21,0,0,1-.11.08s-.07.06-.12,0l-.06-.1a.36.36,0,0,0-.07-.1c-.08,0-.13.08-.21.09a1,1,0,0,0-.1-.17h0l-.13.07-.08,0c.09.19.52.94.62,1.07l.22-.13a.75.75,0,0,1,.07.12s.06.07.05.12l-.21.12c0,.09.09.14.09.21l-.18.11-.11-.18h0c-.08,0-.14.09-.23.12l-.12-.21h0l-.18.11-.34-.6v0h0l-.21.12c-.05,0-.06-.09-.08-.13l-.08-.13-.08-.13-.08-.14s0-.09-.09-.12l-.16.1h0a7.82,7.82,0,0,0,.51.86l.18-.11c.07.13.14.24.21.36s0,.06.06.06l.21-.12.24.41h0l.42-.24a.75.75,0,0,0,.07.12s0,.08.08.11l.18-.11.06.1s0,.08.07.09l.13-.07.15-.09a.69.69,0,0,1,.15-.07l.06.11s0,.09.08.1c1.91-1.07,6.27-3.6,6.49-3.75a.67.67,0,0,1-.06-.12s-.07-.07,0-.12l.8-.46,0,0s0,0,0,0l-.1-.18h0l-.82.47h0l-.12-.22.15-.09.13-.08a.67.67,0,0,0,.14-.09l-.11-.2.36-.2s.06,0,.06-.06l0-.1s0-.08-.09-.11l-.17.1s0-.07-.07-.09,0-.08-.07-.09l-.22.12a.75.75,0,0,1-.07-.12s0-.09-.08-.1l-.17.09s0,0,0,0l-.61-1c.06-.06.14-.07.19-.13l-.24-.41s-.07,0-.11.05-.06,0-.1,0l-.12-.2v0c0-.06.13-.06.17-.13l-.1-.19.23-.13.06.1s0,.07.07.09l.09-.05s.08,0,.09-.07L33.3,63l.43-.25a.67.67,0,0,1-.06-.12s-.06-.07-.06-.12l.21-.12v0l-.1-.18.61-.35s0-.06,0-.09l-.09-.14,0,0L41,57.65c0,.07.08.15.13.22h0l.82-.47h0l.1.17v0h0l-.62.36v0l.12.21c.06,0,.09,0,.14-.07l.13-.07.13-.08.14-.08.13-.07.11.18h0l0,0,.58-.34a.75.75,0,0,1,.07.12s0,.08.08.11a.41.41,0,0,0,.11-.07s.09,0,.1-.08l-.12-.21.61-.36s0,0,.06.07l.09.15.22-.12s0,.05.07.08,0,.07,0,.11l-.2.12v0l.47.81v0l-.17.1s0,.09.05.12l.06.1c0,.06-.07.06-.1.08l-.12.07.1.19c0,.07-.13.08-.18.14l.49.85c.07,0,.12-.08.2-.1l.12.22v0l-.05,0-.56.32c0,.08.08.12.1.21l-.21.12s0,.08.05.12a.39.39,0,0,1,.06.13l-.18.1s0,.07.05.11,0,0,0,.08,0,.05-.06.06L37,65.71l-.05,0s-.06-.07-.08-.11l-.06-.1-.07-.11,0-.1-.22.12a0,0,0,0,0,0,0l0,0,.2.35c0,.07-.13.07-.18.14s.08.13.12.21v0h0l-.39.22a.08.08,0,0,1,0,0l.1.17s-.07.06-.11.08l-.1.06a.08.08,0,0,0,0,.08,1.09,1.09,0,0,1,.08.15v0l0,0-.37.21c0,.08.08.13.09.21-.19.13-5,2.91-7.55,4.37-.07,0-.08-.13-.13-.18h0l-.39.22a1.64,1.64,0,0,1-.14-.22l-.22.12c-.07,0-.08-.13-.14-.19l-.18.11c-.05,0-.05-.08-.08-.11l-.06-.1c-.05,0-.08,0-.12,0a.6.6,0,0,0-.11.06c-.05-.06-.08-.13-.12-.18s-.13.08-.21.09l-.12-.21c-.06,0-.09,0-.13.06l-.11.06L26,71.28h0l-.09,0s-.08,0-.09.07l.1.17h0l.18-.11.12.22s0,0-.05,0l-6,3.44-.05,0s-.05-.07-.07-.11L20,75h0l-.58.33s0,0,0,0-.07-.12-.12-.17-.07,0-.11,0l-.12.07.1.19s-.06.05-.09.07l-.08,0s0,.08.05.12a1.34,1.34,0,0,1,.06.12l-.21.13s0,.07,0,.1.05.06.05.11l-.18.1c0,.06,0,.09.06.13a.93.93,0,0,0,.05.1s0,0-.06.06l-.35.2a1.86,1.86,0,0,0,.1.2.67.67,0,0,1-.14.09l-.13.08-.15.08a1.67,1.67,0,0,0,.12.23s0,0,0,0h0l-7.33,4.23h0l-.11-.2s0,0,0,0h0l-.39.23c-.06,0-.07-.13-.13-.19l-.21.12c-.06,0-.06-.07-.08-.1s0-.08-.08-.11l-.18.1c-.07,0-.08-.14-.14-.19l-.21.12a.21.21,0,0,1-.08-.11l-.06-.1s-.07,0-.1,0a.93.93,0,0,0-.1,0s0-.06-.07-.1a.56.56,0,0,1,0-.08c-.05,0-.08,0-.12,0s-.07.06-.12.06l-.24-.4c-.05,0-.07,0-.11,0l-.08,0s-.05,0-.06-.07l-.21-.35-.21.12h0c-.28-.49-.56-1-.85-1.47a.08.08,0,0,0,0,0L7,79V79l-.33-.56s0,0,0,0v0l.17-.1s0-.08,0-.12L6.7,78c.06-.06.15-.08.21-.14s0-.07,0-.11a.56.56,0,0,1,0-.08v0h0l.39-.22v0L7,77c0-.05.06-.05.09-.07l.09,0s0-.06,0-.09l-.08-.14s0,0,0,0h0l.38-.22c0-.08-.07-.13-.09-.21L7.8,76s0-.08,0-.12-.06-.07-.06-.13l1.94-1.12s0-.08,0-.11a.56.56,0,0,0-.05-.08s0,0,.07-.06l4.6-2.66.08,0c.05,0,.05.07.07.1a.22.22,0,0,1,.05.08h0l.58-.34h0l.12.21c.06,0,.09,0,.13,0l.1-.06.11-.07.1-.06.11.19c.06,0,.09,0,.13-.06l.1,0c.05,0,.05.06.08.1l.06.11s-.09.06-.13.09l-.15.09-.13.07c0,.08.08.14.09.22l-.21.12a.26.26,0,0,0,0,.12l.07.12-.18.1v0l.11.18-.22.12a.08.08,0,0,1,0,0l.06.1s0,.09.08.1l.21-.12v0l-.12-.21.18-.11h0s0,0,0,0A1.62,1.62,0,0,0,15.69,72.55ZM8.56,77.24l.12-.06s.07-.06.12-.06l.25.42-.12.07s-.09,0-.11.09l.24.41c-.06,0-.14.07-.19.13l.22.39a0,0,0,0,1,0,0s0,0,0,0l-.39.23h0s0,0,0,0a.56.56,0,0,0,.05.08s0,.07.07.09L9,79H9l.22.38h0l.21-.12a.75.75,0,0,1,.07.12s0,.08.09.1l.18-.1.23.4s0,0,0,0a0,0,0,0,0,0,0l-.37.21,0,0h0l-.11-.2h0c-.13.07-.26.14-.38.22s0,0,0,0v0l.12.22.12-.07s.07-.06.13,0l.1.18.11-.06s.05,0,.1,0l.06.1s0,.08.08.1l.41-.23s0,.06.07.09,0,.08.07.09l.4-.23v0a.41.41,0,0,1,0-.09s-.06-.06,0-.11l.1-.06s.08,0,.11-.08a.64.64,0,0,1-.08-.14s-.05,0,0-.09l.41-.24.23.39s0,0,0,0h0l5.82-3.36c0-.07-.09-.12-.1-.21l.42-.24a.67.67,0,0,1-.06-.12s-.06-.07-.05-.12l.21-.13-.06-.1s0-.08-.07-.09l-.42.24-.36-.63s0,0,0,0h0l-.21.12-.06-.1s0-.07-.08-.09l-.17.1h0a0,0,0,0,1,0,0l-1.1-1.9s0,0,0,0h0l-.22.13.07.11s.06.07.05.12l-5.37,3.1h0l-.06-.1s0-.08-.08-.11l0,0-1,.57s-.05,0-.05,0l.12.21-.18.11a0,0,0,0,1,0,0,.47.47,0,0,0,.06.09s0,.08.06.09l.18-.1v0Zm26.78-14.3.1,0a.19.19,0,0,1,.1,0l.1.18c0,.06-.13.07-.18.13a0,0,0,0,1,0,0c.11.2.23.4.35.6v0s0,0,0,0-.15.07-.21.13l.48.85h0l.11-.07s.09,0,.1-.08l-.06-.1s-.06-.07-.05-.12l.17-.1v0l-.22-.38v0l.22-.13.09.16.08.13s0,.11.09.14c2.25-1.29,6.09-3.51,6.25-3.62,0-.08-.09-.13-.09-.21a.33.33,0,0,0,.1-.06s.09,0,.11-.08L42.9,60c.06-.06.14-.07.19-.13l-.35-.61h0c-.08,0-.13.08-.21.09L42.31,59l0,0h0l-.14.09s0,0-.08,0L42,59s0-.08-.08-.11L38,61.09c-.06-.06-.07-.14-.13-.19L35.3,62.39c0,.08.08.13.09.22l-.18.1ZM24.49,69.21a1.57,1.57,0,0,0,.19-.12l-.13-.23-.1.06s-.06,0-.1,0-.07-.12-.11-.17,0,0,0,0L21,70.64h0l-.12-.2h-.05l-3,1.71s0,0,0,0v0a1.55,1.55,0,0,1,.12.22l-.15.09-.13.07c-.05,0-.11,0-.14.1l.1.17h0l.14-.08s.05,0,.08,0l.06.1s.06.07.05.13l-.2.11s0,0,0,0l.72,1.25v0h0l.2-.11a.08.08,0,0,1,0,0l-.06-.1s-.06-.07-.05-.13l.4-.22h0c.06.06.08.15.14.21L25,70.66s0,0,0,0,0,0,0,0l-.6-1.05s0,0,0,0v0l.09,0s.09,0,.12-.08ZM8.6,79.8s0,0,0,0l-.21-.37,0,0h0l-.21.12v0l.21.36,0,0h0ZM19,74.35l-.09.06s-.08,0-.1.07l.23.4a0,0,0,0,1,0,0h0l.09,0s.07,0,.09-.06Z"/><path d="M43,57.65l-.1-.18c0-.06.06-.06.1-.08a.41.41,0,0,1,.11-.07.3.3,0,0,1,.07.1l.06.1Z"/><path d="M28.55,69.76l-.13-.22a0,0,0,0,1,0,0L33,66.89c.05,0,.05.07.08.1l.06.11v0Z"/><path d="M34,66.61l-.65.38s0-.07-.08-.1l-.06-.1s0-.05.07-.06l.58-.34s0,.07.08.11Z"/><path d="M11.28,79.41l-.1-.18s0,0,.05,0l5.1-3h0c.05,0,.05,0,.07.08a.19.19,0,0,1,.05.11Z"/><path d="M17.24,75.7l.11.18v0l-.21.12s-.05-.06-.07-.09a.41.41,0,0,1-.05-.09,0,0,0,0,0,0,0Z"/><path d="M30.4,88.7l.25-.43c-.06-.07-.16-.08-.22-.14v0s0,0,0,0l.22-.39c-.05-.06-.13-.07-.19-.13l4-6.92s.07,0,.1,0a.36.36,0,0,1,.09,0h0s0,0,0,0l.47-.81s.08,0,.12,0a.21.21,0,0,1,.11.08l-.23.4s.06.06.09.08a.14.14,0,0,0,.11,0l.23-.4a.25.25,0,0,1,.13,0l.1.06c.05,0,.07-.09.1-.14L36,80l.08-.14a.28.28,0,0,1,.11,0l.08,0h0a0,0,0,0,0,0,0l.23-.39v0l-.17-.1c0-.06,0-.09,0-.13l.06-.1s.06,0,.09,0l.11.06h0a1.4,1.4,0,0,0,.1-.16s0,0,0,0,0,0,0,0l-.4-.23c0,.06-.07.13-.12.19a.19.19,0,0,1-.1,0,.28.28,0,0,0-.11,0l-.23.4c-.06,0-.09,0-.13,0l-.11-.06c-.06.06-.08.15-.14.21h0l-.17-.1s0-.08,0-.12l.07-.12L35.15,79c0-.06,0-.09.05-.13a.31.31,0,0,1,0-.1l.07-.12.06-.1-.18-.11v0l0,0,.33-.56c0-.06-.07-.06-.1-.08l-.11-.07s0,0,0,0L39,71.35s0,0,.08,0l.14.08h0v0l.34-.58c.08,0,.13.08.2.09a.29.29,0,0,0,.08-.13,1.19,1.19,0,0,0,.09-.15l.08-.13s.08,0,.12,0,.07.06.13.06l.11-.2h0l0,0,.39.22-.25.42c.06.07.14.08.19.14l-.12.21v0l.22.13-.12.2-.12-.07a.19.19,0,0,0-.12,0,.39.39,0,0,0-.06.11s-.07.06,0,.12l.22.12-2.36,4.09s0,0,0,0l.17.09a0,0,0,0,0,0,0l-.23.39h0l-.17-.1a.21.21,0,0,0-.08.11s-.06.07-.05.13l.18.1L38,77s0,.07-.07.08l-.09,0s0,0-.1,0l-.88,1.51c-.05,0-.08,0-.12-.06s-.07-.06-.12,0l-.1.17v0l.39.23h0a.94.94,0,0,1,.12-.18.41.41,0,0,1,.11.07s.09,0,.1.08a.35.35,0,0,1-.05.08s0,.06,0,.11l1.28.74a.34.34,0,0,1-.06.12s0,.09-.08.11l-.1-.06a.26.26,0,0,0-.12-.05C38,79.89,38,80,38,80l-.17-.09h0l-.07.13,0,.08a10.72,10.72,0,0,0,1.07.61l.12-.22.12.07s.09,0,.11.08-.09.14-.12.21.14.07.18.14l-.1.19-.19-.11h0c0,.06-.08.15-.14.21l-.21-.12h0l-.11.18-.6-.35h0l-.12.21a.46.46,0,0,1-.14-.07l-.14-.08L37.18,81,37.05,81s-.08-.06-.14-.06a1.4,1.4,0,0,0-.1.16v0a7.85,7.85,0,0,0,.87.49l.11-.18.35.2s0,0,.09,0l.12-.22.41.24h0l.24-.41.11.07s.07,0,.13,0l.11-.19a.33.33,0,0,0,.1.06s.06.05.1,0l.08-.13.09-.15a.34.34,0,0,1,.09-.13.39.39,0,0,0,.11.06s.07.07.12,0c1.11-1.88,3.62-6.25,3.74-6.5l-.12-.06s-.08,0-.1-.08l.47-.8s0,0,0,0,0,0,0,0l-.17-.1h0l-.47.82h0s0,0,0,0l-.22-.13.09-.15.08-.13a.77.77,0,0,0,.07-.16l-.19-.11.21-.35s0,0,0-.09l-.1-.06a.26.26,0,0,0-.12,0l-.1.17a.28.28,0,0,1-.11,0s-.06,0-.1,0-.08.14-.14.21l-.12-.07s-.06-.06-.12,0l-.09.16h0l-1.05-.61c0-.07.08-.12.09-.2l-.41-.24a.3.3,0,0,0-.07.1s0,.07-.07.08l-.2-.11v0c0-.07.09-.12.09-.2L40.61,72l.13-.23.1.06a.28.28,0,0,0,.11,0,.31.31,0,0,0,0-.1s.06-.05,0-.1l-.18-.1.25-.44a.35.35,0,0,1-.12-.07s-.09,0-.11-.08l.12-.2a0,0,0,0,1,0,0l-.18-.1.35-.62s0,0-.06-.06L41,69.91a.08.08,0,0,0,0,0l3.87-6.71.22.12h0s0,0,0,0l.48-.81a0,0,0,0,1,0,0h0l.16.09v0a0,0,0,0,1,0,0c-.12.21-.24.41-.35.62,0,0,0,0,0,0l.21.12s.06-.08.08-.12l.08-.13.08-.14.07-.13.08-.13.19.1h0l0,0,.34-.58.12.06a.23.23,0,0,0,.12.06.6.6,0,0,0,.06-.11s.07-.07.05-.12l-.22-.13.36-.61s.06,0,.09,0l.15.09.12-.21c.06,0,.08,0,.11,0a.15.15,0,0,1,.1.06l-.12.21a0,0,0,0,1,0,0h0l.81.47s0,0,0,0l-.1.18s.08.05.11.08l.1.06c0,.05,0,.08,0,.11l-.07.12.18.11c0,.09-.08.14-.09.22l.85.49c.06-.05.07-.13.13-.19l.21.13s0,0,0,0l0,0L49.3,64c0,.07.13.07.18.14s-.08.14-.11.21.07,0,.1.08.08,0,.11.08l-.1.17s.06.06.09.08l.09,0s0,.06,0,.09l-4.18,7.24,0,0c-.05,0-.08,0-.12,0l-.1-.06L45.08,72l-.1-.06-.12.22v0l0,0,.36.21c0,.08-.08.13-.09.21s.14.08.2.13h0a0,0,0,0,1,0,0l-.22.38v0l.17.1c0,.06,0,.09,0,.13l-.06.1s0,0,.07.06l.14.08s0,0,0,0l0,0-.22.37c0,.07.14.07.18.13-.1.21-2.87,5-4.35,7.56-.08,0-.13-.07-.2-.09h0s0,0,0,0l-.22.39a1.83,1.83,0,0,1-.24-.13l-.13.22c-.08,0-.13-.08-.21-.09l-.11.17a.26.26,0,0,1-.12,0l-.1-.06c-.05,0-.06.07-.08.11a.41.41,0,0,0-.07.11,1.14,1.14,0,0,1-.19-.1c-.06,0-.07.13-.14.19L39,82.34s0,.08-.08.11a.75.75,0,0,1-.07.12l-.18-.1s0,0,0,0a.41.41,0,0,1,0,.09s0,.06,0,.1l.18.1h0l.1-.18.22.13s0,0,0,.07l-3.44,6,0,0c-.05,0-.08,0-.12-.06l-.1,0h0l-.34.59h0c-.06,0-.11-.07-.18-.09s-.05.06-.08.1l-.07.12.19.1a.28.28,0,0,1,0,.11.41.41,0,0,0-.05.09s.07,0,.1.08l.12.07a2.39,2.39,0,0,0-.12.22s.06.05.08.07a.3.3,0,0,1,.1.07l-.1.17c0,.05.07.06.11.09l.1,0s0,.06,0,.09-.13.23-.2.35.12.07.18.12a.3.3,0,0,1-.07.15l-.07.13-.09.15a1.73,1.73,0,0,0,.21.13,0,0,0,0,1,0,0h0L30.81,99h0l-.21-.12h0s0,0,0,0l-.23.39c-.08,0-.12-.08-.21-.1l-.11.21c-.06,0-.09,0-.13-.05a.39.39,0,0,0-.13-.06l-.1.18c-.08,0-.13-.08-.21-.1l-.13.22c-.05,0-.08,0-.12-.06l-.1-.06s0,.06-.07.09l-.06.09c-.05,0-.07,0-.11-.05l-.08,0c-.05,0-.05.07-.08.1s0,.09-.08.12l-.41-.24s-.05.06-.07.09l-.05.09s-.06,0-.08,0-.24-.13-.36-.21l-.12.22h-.05L26,98.88s0,0,0,0l.11-.2v0h0l-.57-.33h0s0,0,0,0l.1-.17s-.08,0-.11-.08l-.11-.06c0-.09.09-.15.11-.23s-.06,0-.09-.07l-.08,0v0h0c.08-.13.15-.26.22-.39s0,0,0,0l-.4-.23a.14.14,0,0,1,0-.11.35.35,0,0,1,.05-.08s0,0-.07-.06L25,96.56a0,0,0,0,0,0,0s0,0,0,0l.23-.39c0-.06-.13-.07-.19-.13l.24-.41s-.08-.06-.11-.08-.08,0-.11-.09l1.12-1.94s-.06,0-.09-.07l-.09,0s0-.06,0-.09l2.66-4.6.05-.08c.05,0,.07,0,.11,0l.08,0h0a0,0,0,0,0,0,0c.11-.19.23-.38.34-.58h0l.21.12c.05,0,.06-.08.08-.11l.06-.1.07-.12.05-.1.19.11c.05,0,.06-.08.08-.11l.06-.1c.05,0,.08,0,.12,0l.11.06a.31.31,0,0,1-.07.14.8.8,0,0,1-.08.16l-.08.13c.05.06.13.07.19.14l-.13.21s.08,0,.11.08l.12.07-.1.17v0s0,0,0,0l.18.1a1.59,1.59,0,0,0-.13.22v0a.33.33,0,0,0,.1.06s.07.06.12.06l.12-.21a0,0,0,0,1,0,0L30.49,89a1.62,1.62,0,0,1,.1-.18v0h0Zm-3.82,7.62.06-.11s0-.09.08-.11l.42.24-.06.12s-.06.07,0,.13l.41.23c0,.08-.09.13-.1.21l.39.22a0,0,0,0,0,0,0,0,0,0,0,1,0,0l-.22.39s0,0,0,0,0,0,0,0l.08,0s.06,0,.11,0l.1-.17s0,0,0,0l.38.22h0s0,0,0,0l.13-.22.12.07s.07.06.13.05l.1-.18.4.23s0,0,0,0a0,0,0,0,1,0,0l-.21.37,0,0h0l-.2-.11h0l-.22.38v0h0l.22.13a.75.75,0,0,1,.07-.12s0-.08.09-.1l.18.1a.33.33,0,0,1,.06-.1s0-.08.07-.08a.31.31,0,0,0,.1,0s.07.06.12.06l.24-.41c.05,0,.07,0,.11,0s.06,0,.1,0l.23-.4v0l-.09,0s-.07,0-.09-.07l.06-.1A.39.39,0,0,0,30,97.4l-.15-.08s-.06,0-.06-.06l.24-.42.38.22,0,0h0l3.36-5.83c-.06,0-.14-.06-.19-.13l.24-.42-.12-.07s-.08,0-.1-.08.08-.14.12-.22l-.1-.06s-.06,0-.11,0l-.24.42-.63-.37h0l-.13.22-.1-.06a.14.14,0,0,0-.11,0l-.1.17h0c-.64-.36-1.27-.73-1.9-1.1h0l-.13.22.12.07s.09,0,.1.08l-3.09,5.36,0,0h0l-.1,0S27,95.1,27,95.1l0,.05c-.19.32-.37.65-.56,1a.06.06,0,0,0,0,.07l.22.12-.11.18a0,0,0,0,0,0,0,.19.19,0,0,0,.09,0s.05.06.09,0l.11-.17v0Zm16-25.77s0-.07.06-.1,0-.07.07-.09l.18.11c0,.08-.09.13-.1.2l0,0,.6.34h0v0c0,.08-.09.15-.12.23l.84.49h0a.39.39,0,0,0,.06-.11s.07-.06,0-.11l-.1-.06s-.08,0-.11-.09l.1-.17a0,0,0,0,1,0,0L43.83,71h0a0,0,0,0,0,0,0c.05-.06.08-.14.13-.21l.16.09.13.07a.3.3,0,0,0,.15.07c1.3-2.23,3.52-6.08,3.6-6.26s-.13-.06-.17-.13a.47.47,0,0,0,.05-.1s.06-.07.06-.13l-.21-.12c0-.08.08-.13.09-.21l-.6-.35h0c-.06,0-.06.14-.13.18l-.37-.21,0,0h0l-.08.14s0,.06-.06.06l-.1,0s-.07-.06-.13-.06L44,67.61c-.08,0-.13-.09-.21-.1L42.3,70.1c.05.06.14.06.19.14l-.11.18ZM36.35,81.41c0-.09.09-.14.1-.21l-.22-.13-.06.1s0,.07-.07.09a1,1,0,0,0-.18-.1h0L34,84.39s0,0,0,0h0l-.2-.11h0s0,0,0,0l-1.71,3a0,0,0,0,0,0,0v0l.22.13-.09.16-.08.13a.69.69,0,0,0-.07.15l.17.1h0s.05-.09.08-.14,0-.06.06-.06a.33.33,0,0,1,.1.06s.09,0,.11.08l-.12.2v0l1.26.72h0l.11-.2v0l-.11-.07s-.09,0-.1-.08l.23-.4h0c.08,0,.14.09.23.11l3.35-5.81v0a0,0,0,0,0,0,0l-1.05-.61h0a0,0,0,0,0,0,0l.06-.09a.39.39,0,0,0,.06-.13ZM27.88,98.52v0l-.37-.21,0,0h0l-.12.2v0l.37.21,0,0h0Zm6.33-9.94a.37.37,0,0,0-.06.1.14.14,0,0,0,0,.11l.39.22h0l0-.08a.19.19,0,0,0,.05-.11Z"/><path d="M46.57,62.16l-.18-.11s0-.08,0-.12l.07-.11s.07,0,.1,0l.1.05Z"/><path d="M40.14,79.85l-.22-.13a0,0,0,0,0,0,0l2.62-4.54c.06,0,.08,0,.12,0l.11.06s0,0,0,0C41.89,76.81,41,78.32,40.14,79.85Z"/><path d="M43.28,74.41l-.38.65s-.09,0-.12,0l-.1-.06s0-.06,0-.08c.11-.2.23-.39.34-.58a.26.26,0,0,1,.12,0Z"/><path d="M30,96.84l-.18-.1s0,0,0-.07c1-1.7,2-3.41,2.95-5.11,0,0,0,0,0,0s.07,0,.1,0,.07,0,.09.07Z"/><path d="M33.32,90.65l.18.1a0,0,0,0,1,0,0l-.12.2s-.06,0-.1,0l-.09,0v0Z"/><path d="M51.21,95.32v-.49c-.08,0-.17,0-.25,0s0,0,0,0v-.47c-.07,0-.15,0-.23,0v-8s.07,0,.11,0h.11a0,0,0,0,0,0,0v-1c.05,0,.09,0,.13,0a.33.33,0,0,1,.14,0v.47a.17.17,0,0,0,.12,0,.22.22,0,0,0,.11,0v-.47a.24.24,0,0,1,.14,0h.12s0-.11,0-.17a.75.75,0,0,0,0-.15v-.17a.26.26,0,0,1,.12,0h.1s0,0,0,0,0,0,0,0v-.44l0,0h-.2s0-.09,0-.14v-.11s.06,0,.09,0h.13l0,0v-.19l0,0h-.48c0,.07,0,.14,0,.21s-.07,0-.11,0a.26.26,0,0,0-.12,0v.47a.2.2,0,0,1-.13,0H51c0,.08,0,.17,0,.26h-.21s0-.09,0-.13v-.14h-.25s0-.09,0-.13V84h-.21l0,0v-.69s-.08,0-.13,0H50s0,0,0,0V76S50,76,50,76h.16l0,0v-.7c.07,0,.15,0,.22,0a.38.38,0,0,0,0-.15V74.8c.05,0,.09,0,.13,0s.09,0,.14,0v-.23l0,0h.48V75c.08,0,.16,0,.24,0v.24l0,0h.24v.23h-.13a.24.24,0,0,0-.14,0,.49.49,0,0,0,0,.12s0,.09,0,.13h.25V80.5s0,0,0,0h.2l0,0V81a0,0,0,0,1,0,0s0,0,0,0h-.19a.17.17,0,0,0,0,.14s0,.09,0,.14H52a.49.49,0,0,1,0,.12s0,.07,0,.1h-.1s-.08,0-.12,0v1.74s-.09,0-.13,0-.09,0-.14,0v.19s0,0,0,0h.45s0,0,0,0h0c0-.07,0-.14,0-.21h.14s.09,0,.13,0a.27.27,0,0,0,0,.09s0,.08,0,.12h1.48a.33.33,0,0,1,0,.14s0,.09,0,.13h-.11a.28.28,0,0,0-.13,0c0,.07,0,.15,0,.22h-.19s0,0,0,0v.24c.2,0,1.07,0,1.23,0V84h.14s.09,0,.13,0a1.92,1.92,0,0,1,0,.24c.08,0,.16,0,.23,0v.22h-.23a2.26,2.26,0,0,1,0,.26h-.24l0,0V85h-.71s0,0,0,0v.24a.45.45,0,0,1-.16,0H53.1c-.05,0-.1,0-.15,0v.19h0a6.27,6.27,0,0,0,1,0V85.3h.41s.07,0,.09,0V85H55v-.48h.14a.2.2,0,0,0,.13,0V84.3h.12s.08,0,.11,0V84s0-.1,0-.16h.13s.09,0,.13,0c0-2.19,0-7.23,0-7.5h-.13s-.09,0-.13,0v-1s0,0,0,0h-.2l0,0v1s0,0,0,0H55V76a.55.55,0,0,0,0-.18h-.22v-.4s0-.07,0-.09h-.11c-.05,0-.09,0-.14,0v.2a.25.25,0,0,1-.12,0s-.07,0-.11,0a2.18,2.18,0,0,1,0,.25h-.13s-.09,0-.13,0V76s0,0,0,0H52.72c0-.08,0-.16,0-.23h-.48a.25.25,0,0,0,0,.12s0,.08,0,.11H52c0-.07,0-.15,0-.22h-.22v-.27h.12a.18.18,0,0,0,.12,0,.45.45,0,0,0,0-.11s0-.07,0-.1h-.22v-.5h-.13s-.09,0-.14,0v-.24h-.23V73.8s-.05,0-.08,0a1,1,0,0,0-.17,0s0,0,0,0V66h.26s0,0,0,0h0V65h.23v.73l0,0h.24s0-.1,0-.15a.75.75,0,0,0,0-.15V65h.22s0,0,0,0v-.72a.57.57,0,0,0,.13,0s.09,0,.14,0a.57.57,0,0,0,0-.13s0-.09,0-.13H52v-.71s0,0,.08,0h.18V63s.08,0,.12,0a.15.15,0,0,1,.11,0v.23l0,0h1l0,0v.2s.09,0,.13,0a.48.48,0,0,0,.12,0s0,.09,0,.13v.14h.21c0,.08,0,.15,0,.23h1c0-.07,0-.15,0-.22h.26v.7c.07,0,.15,0,.23,0s0,.16,0,.24.08,0,.12,0a.33.33,0,0,1,.14,0V65s.08,0,.12,0h.09s0,.05,0,.08v8.42s-.09,0-.13,0h-.36v.25h.48c0,.07,0,.14,0,.22h.25v.46l0,0h.2s0,.09,0,.13a.49.49,0,0,1,0,.12s0,0,.08,0h.17v0s0,0,0,0v.42c.07,0,.15,0,.22,0,0,.22,0,5.78,0,8.72-.07,0-.15,0-.22,0h0s0,0,0,0v.45a2.44,2.44,0,0,1-.27,0v.26c-.08,0-.16,0-.24,0V85a.29.29,0,0,1-.13,0H56s0,.09,0,.13a.57.57,0,0,0,0,.13,1.48,1.48,0,0,1-.21,0c0,.07,0,.15,0,.23h-.24s0,.09,0,.14v.13h-.21s0,0,0,0v.1s0,.08,0,.11h.2V85.8h.25s0,0,0,.07V92.8s-.09,0-.13,0h-.13v.69s0,0,0,0a1.27,1.27,0,0,1-.2,0s0,.09,0,.13v.14h.22a.25.25,0,0,1,0,.12.27.27,0,0,1,0,.09s.09,0,.13,0h.14c0,.09,0,.17,0,.25s.07,0,.1,0,.08,0,.12,0v.2s.1,0,.14,0h.11s0,.06,0,.09V95a1.8,1.8,0,0,0,.22,0s0,.11,0,.16a.76.76,0,0,1,0,.15v.18h.26s0,0,0,0q0,4.23,0,8.46a0,0,0,0,1,0,0h-.23s0,0,0,0,0,0,0,0v.45c-.07,0-.15,0-.23,0v.24s-.09,0-.14,0-.08,0-.13,0v.2c-.08,0-.16,0-.24,0v.25s-.09,0-.13,0h-.12s0,.08,0,.11v.11s-.08,0-.12,0h-.09s0,.08,0,.13a.29.29,0,0,1,0,.13h-.47a.18.18,0,0,0,0,.12v.1s-.06,0-.09,0h-.41v.24s0,0,0,0H52.45v-.24l0,0h-.69l0,0v-.2s-.09,0-.13,0h-.13c0-.09,0-.18,0-.26a.25.25,0,0,0-.12,0,.27.27,0,0,0-.09,0v-.5h-.47s0-.08,0-.12v-.1s-.06,0-.09,0h-.16s0,0,0,0v-.47a1.69,1.69,0,0,0-.23,0v-.48s-.09,0-.13,0a.34.34,0,0,1-.14,0v-2.25a.25.25,0,0,0-.12,0h-.09s0-.06,0-.09V96.07a.25.25,0,0,1,.12,0,.27.27,0,0,1,.09,0s0,0,0,0v-.69l0,0h.23s0-.09,0-.13v-.37h.22a.3.3,0,0,0,0-.13v-.12s.09,0,.13,0h.13a.45.45,0,0,1,0,.16V95c.08,0,.15,0,.23,0v.25c.05,0,.1,0,.14,0h.13v.21h.23v.25l0,0a.56.56,0,0,0,.13,0s.08,0,.12,0v-.24s0,0,0,0h-.25v-.22a0,0,0,0,0,0,0Zm.5,8.52v-.13s0-.09,0-.13h.49a.57.57,0,0,0,0,.13s0,.09,0,.13h.47c0,.08,0,.16,0,.23h.47s0,0,0,0v.47h0a.27.27,0,0,0,.09,0s.08,0,.12,0v-.2l0,0h.46s0,0,0,0v-.25a.65.65,0,0,0,.14,0s.09,0,.13,0v-.21h.5v.46s0,0,0,0h-.23l0,0v.47h.27v-.14s0-.09,0-.13H55v-.12s0-.08,0-.11h.12s.09,0,.13,0v-.47s.08,0,.12,0,.08,0,.11,0v-.45a0,0,0,0,0,0,0h-.11s-.07,0-.11,0v-.11a.33.33,0,0,0,0-.14H55s-.06,0-.09,0v-.48h.48l0,0V95.83c-.07,0-.15,0-.23,0v-.49a.66.66,0,0,1-.14,0s-.09,0-.13,0a2.26,2.26,0,0,0,0-.26h-.12s-.08,0-.11,0v.48H54l0,0v.25h-.12s-.07,0-.11,0V96h0a0,0,0,0,1,0,0h-2.2a0,0,0,0,0,0,0h0v.25h.13c.05,0,.09,0,.13,0v6.2h0s0,0,0,0h-.12a.29.29,0,0,0-.13,0s0,0,0,.06v1.13a.08.08,0,0,0,0,.07h.25v.21l0,0a.4.4,0,0,0,.11,0s.07,0,.1,0v-.2l0,0Zm1-30.34a.4.4,0,0,1,0-.11s0-.08,0-.11h.21c0,.07,0,.15,0,.22h.72s0,0,0,0h0c0,.08,0,.17,0,.26h1v-.13s0-.09,0-.12h-.11c-.05,0-.09,0-.14,0v-.2l0,0H54s0,0,0,0V73h.18a.75.75,0,0,0,.15,0c.06,0,.12,0,.17,0,0-2.59,0-7,0-7.22-.07,0-.15,0-.22,0v-.12a.2.2,0,0,0,0-.13H54c0-.08,0-.16,0-.23h-.71c0,.07,0,.15,0,.22h-.46s0,0,0,0v.16s0,.06,0,.09h-.12s-.09,0-.13,0v4.48c-.08,0-.16,0-.23,0v3c.08,0,.15,0,.23,0v.21Zm0,12.53a1.55,1.55,0,0,0,0-.22h-.26v.11s0,.08,0,.11a1.27,1.27,0,0,0-.2,0s0,0,0,0v3.71s0,0,0,0,0,0,0,0H52V93.3s0,0,0,0h.26v.18a.75.75,0,0,0,0,.15c0,.06,0,.12,0,.17h.2l0,0v-.16s0-.07,0-.09h.11a.23.23,0,0,1,.14,0v.23s0,0,0,0H54.2l0,0v-.23l0,0h-.12s-.09,0-.13,0v-.46a0,0,0,0,0,0,0c.09,0,.18,0,.26,0V86.33s0,0,0,0H53a0,0,0,0,1,0,0v-.11s0-.09,0-.14ZM54,105.09h-.5v.24H54Zm.5-11.77v.11a.17.17,0,0,0,0,.12H55v-.1a.22.22,0,0,0,0-.11Z"/><path d="M52,64.25h-.22s0-.08,0-.12a.57.57,0,0,1,0-.13s.08,0,.12,0H52Z"/><path d="M55.22,82.79H55s0,0,0,0V77.53s.09,0,.13,0h.12s0,0,0,0Z"/><path d="M55.22,76.51v.76s-.09,0-.13,0a.48.48,0,0,1-.12,0s0,0,0-.08v-.67s.09,0,.14,0Z"/><path d="M55,102.57h-.21s0,0,0-.07V96.57s.08,0,.11,0a.25.25,0,0,1,.12,0Z"/><path d="M54.72,95.55h.21l0,0v.24s-.07,0-.11,0a.34.34,0,0,1-.1,0s0,0,0,0Z"/><path d="M72.55,90.66l-.24-.43c-.09,0-.15.09-.23.12h0s0,0,0,0l-.23-.39c-.07,0-.13.08-.21.1l-4-6.92s0,0,.08-.07l.09-.05s0,0,0,0v0l-.47-.81s.06-.06.1-.08a.2.2,0,0,1,.12-.06l.24.4a.14.14,0,0,0,.11,0s.07,0,.09-.07l-.23-.41s.07-.05.11-.08l.1-.06c0-.06,0-.1-.07-.15l-.08-.13-.08-.15a.3.3,0,0,1,.1-.07.2.2,0,0,1,.08,0v0h0l-.23-.39h0l-.17.1s-.06-.07-.08-.11a.33.33,0,0,1-.06-.1s0,0,.06-.06l.11-.06a0,0,0,0,1,0,0c0-.06-.07-.11-.1-.16h0l-.39.22c0,.08.07.13.09.2s-.06,0-.08.07-.07,0-.1.07l.24.4s-.08.06-.11.09l-.11.06c0,.08.09.15.11.23v0l-.17.09c-.05,0-.06-.06-.08-.1a.75.75,0,0,0-.07-.12l-.22.13s-.06-.08-.08-.11l-.06-.1-.07-.12-.05-.1-.19.11h0s0,0,0,0l-.33-.57c-.05,0-.08,0-.12,0a.39.39,0,0,0-.11.06h0L61.8,74.58s0,0,.07-.06l.14-.08s0,0,0,0h0l-.34-.59c0-.07.13-.07.18-.13a.91.91,0,0,0-.07-.14l-.09-.15-.07-.13c0-.05.07-.05.1-.08s.09,0,.12-.08l-.12-.2s0,0,0,0l0,0,.38-.22.25.42c.08,0,.13-.08.21-.09l.12.21h0l.21-.12.12.2-.12.06s-.08,0-.11.09l.07.11s0,.08.08.1l.21-.13,2.36,4.09h0l.17-.1h0c.08.13.15.26.23.38v0l-.17.1a.2.2,0,0,0,.06.12s0,.09.08.11l.18-.11a.6.6,0,0,1,.06.11s.06,0,0,.1l-.08.05s-.08,0-.1.07L67,80s-.07,0-.11.08-.08,0-.1.08l.09.16s0,0,0,0l.39-.23h0s0,0,0,0a1.14,1.14,0,0,1-.1-.19l.12-.07s.06-.06.12,0a.59.59,0,0,1,0,.08s0,.07.08.09l1.27-.73a.21.21,0,0,1,.08.11s.06.07,0,.12l-.1.06s-.08,0-.1.07.08.13.09.21l-.17.09s0,0,0,0l.07.13,0,.08c.19-.09.94-.53,1.07-.63l-.13-.22.12-.06s.07-.06.12,0l.12.2c.09,0,.14-.09.21-.09l.11.19-.18.1a0,0,0,0,1,0,0,2.42,2.42,0,0,1,.12.23l-.21.12a0,0,0,0,1,0,0l.11.18-.6.35h0v0l.12.2c0,.05-.09.06-.13.09l-.13.08-.13.08-.14.07s-.09,0-.12.09l.1.17h0a7.82,7.82,0,0,0,.86-.51l-.11-.18.36-.21s.06,0,.06-.06l-.12-.22.41-.23v0l-.24-.41.12-.07s.08,0,.11-.08l-.11-.19a.33.33,0,0,0,.1-.06s.08,0,.09-.07l-.07-.13-.09-.15a.46.46,0,0,1-.07-.14.41.41,0,0,0,.11-.07s.09,0,.1-.07c-1.07-1.91-3.6-6.27-3.75-6.49l-.12.06s-.07.06-.12,0l-.46-.8s0,0,0,0h0l-.18.1v0l.47.82s0,0,0,0h0l-.22.13a1.19,1.19,0,0,1-.09-.15L66.1,72a1.19,1.19,0,0,0-.09-.15l-.2.11-.2-.35s0-.06-.06-.07l-.1.06s-.08,0-.11.08l.1.18s-.07,0-.09.07-.08,0-.09.07.08.14.12.22l-.12.07s-.09,0-.1.08l.09.17s0,0,0,0l-1,.6c-.06,0-.07-.13-.13-.18l-.41.24a.19.19,0,0,0,.05.1s0,.06,0,.11l-.2.11s0,0,0,0-.06-.14-.13-.18l-.19.11-.13-.23.1-.06s.07,0,.09-.07,0-.07-.05-.1,0-.07-.07-.08l-.19.11-.25-.44-.12.07s-.07.06-.12,0l-.12-.2s0,0,0,0l-.18.1L61.79,72s-.06,0-.09,0l-.14.08,0,0-3.87-6.7.22-.13v0c-.16-.27-.32-.54-.47-.81a0,0,0,0,1,0,0v0l.17-.09h0s0,0,0,0l.36.62h0l.21-.13s0-.09-.07-.13,0-.09-.07-.13L58,64.4l-.08-.13-.07-.14L58,64s0,0,0,0l0,0-.34-.59.12-.06s.08,0,.11-.08a.75.75,0,0,0-.07-.12s0-.08-.08-.09l-.21.12-.36-.62s0,0,.07-.06l.15-.09-.12-.21c0-.05.05-.06.08-.08l.11-.05.12.21h0l.81-.47h0l.1.17a.22.22,0,0,0,.12-.05l.1-.06c.06,0,.06.07.08.1a.75.75,0,0,1,.07.12l.19-.11c.07,0,.08.14.14.19l.85-.49c0-.08-.08-.13-.1-.2l.22-.13h0l0,.05.32.55c.08,0,.12-.07.21-.09s.08.14.12.21.08,0,.12,0a.39.39,0,0,1,.13-.06l.1.17s.07,0,.11,0l.08,0s.05,0,.06.07c1.4,2.41,2.79,4.83,4.18,7.24l0,0c0,.05-.07.05-.11.08l-.1.06-.11.06-.1.06.12.22s0,0,0,0l0,0,.35-.21c.07,0,.07.13.14.19s.13-.09.21-.12h0l.22.38s0,0,0,0l.17-.09s.06.07.08.1l.06.1s.06,0,.08,0l.15-.08h0l0,0,.21.37c.08,0,.13-.08.21-.09.13.19,2.91,5,4.37,7.55,0,.07-.13.07-.18.13v0s0,0,0,0l.22.39c-.06.06-.15.08-.22.14l.12.22c0,.06-.13.08-.19.13l.11.18s-.08.06-.11.09l-.1,0c0,.06,0,.08,0,.12a.67.67,0,0,0,.06.12c-.06.05-.13.07-.18.12s.08.13.09.21l-.21.12s0,.08.06.12l.06.12-.18.11v0l0,.09s0,.07.07.09l.17-.11s0,0,0,0l-.11-.18.22-.12s0,0,0,0l3.44,6a.17.17,0,0,1,0,0s-.07.06-.11.08l-.09.06s0,0,0,0a0,0,0,0,0,0,0l.33.59s0,0,0,0a1.63,1.63,0,0,1-.17.11s0,.08,0,.12l.07.12.19-.11s.05.06.07.09l0,.09s.08,0,.12,0l.12-.07c.05.07.08.15.13.22s.07,0,.1,0,.06,0,.11,0l.1.17c.06,0,.09,0,.13,0l.1-.06s0,0,.06.07.13.23.2.35a1.86,1.86,0,0,0,.2-.1A.48.48,0,0,1,77,88l.08.13.08.15.23-.12h0l4.23,7.33a0,0,0,0,1,0,0l-.2.12s0,0,0,0v0l.23.38c0,.07-.13.08-.19.14l.12.2c0,.06-.07.06-.1.09s-.08,0-.11.08l.1.18c0,.06-.14.07-.19.13l.12.22s-.07.05-.11.08l-.1.06s0,.07,0,.1,0,.06,0,.09-.06,0-.1.08l-.08,0c0,.06,0,.08,0,.12s.06.08.06.13l-.4.23c0,.06,0,.08,0,.11a.41.41,0,0,0,0,.09s0,0-.07.06l-.35.2.12.22a0,0,0,0,0,0,0s0,0,0,0l-1.47.84h0l-.12-.2H79l-.56.33h-.05l-.1-.17s-.08,0-.12.06a.3.3,0,0,0-.11.06c-.06-.06-.08-.15-.14-.22s-.07,0-.11,0l-.08,0h0l-.22-.39h0l-.4.23c-.05,0-.05-.06-.07-.09a.22.22,0,0,1,0-.08s-.06,0-.09,0l-.14.08h0v0l-.22-.39c-.08,0-.13.08-.21.1L76,98.55s-.08,0-.12,0-.07.06-.13.06l-1.12-2a.19.19,0,0,0-.11.05l-.08,0s0,0-.06-.07c-.89-1.54-1.78-3.07-2.66-4.61l0-.07a.24.24,0,0,1,.1-.08l.08,0v0h0l-.34-.59v0l.21-.12c0-.06,0-.09,0-.13l-.06-.1-.07-.12-.06-.1.19-.1c0-.06,0-.09-.06-.13l0-.1s.06-.06.1-.08l.11-.07a.42.42,0,0,1,.09.14l.09.15.07.13c.08,0,.14-.08.22-.09l.12.21s.08,0,.12-.06l.12-.06.1.17h0l.18-.1L73,91l0,0,.1-.07s.09,0,.1-.07l-.12-.21s0,0,0,0l-.21.12-.11-.18a0,0,0,0,1,0,0h0Zm4.69,7.12-.06-.11s-.06-.07-.06-.12l.42-.25a.75.75,0,0,1,.07.12s0,.08.09.1l.41-.23c0,.06.07.14.13.19l.39-.23h0l.23.39a0,0,0,0,0,0,0h0l.08,0s.07,0,.09-.08L79,97.36s0,0,0,0,.25-.15.38-.22a0,0,0,0,1,0,0,0,0,0,0,0,0,0l-.12-.22.12-.07s.08,0,.1-.08l-.1-.18.4-.24h0l.21.36s0,0,0,0a0,0,0,0,0,0,0l-.2.11s0,0,0,0l.22.38s0,0,0,0h0l.22-.13L80.28,97s-.06-.07,0-.13l.18-.11-.06-.1s0-.06,0-.1l.1-.06s.08,0,.1-.08L80.29,96s.06-.05.09-.07.08,0,.09-.07l-.23-.4h0l-.09.05s-.06,0-.11,0a.53.53,0,0,0-.06-.1.21.21,0,0,0-.08-.11l-.14.08s0,0-.09,0l-.24-.42.39-.22,0,0v0L76.47,89c-.07,0-.12.08-.21.1L76,88.65l-.12.07s-.07.06-.12,0l-.13-.22-.1.07s-.08,0-.09.06l.24.42-.63.37h0v0l.12.22-.1.06s-.07,0-.09.08l.1.17v0h0l-1.9,1.1h0v0l.13.22.11-.07s.07-.06.12,0l3.1,5.36v0s0,0,0,0l-.1.06s-.08,0-.11.08l0,0,.57,1s0,0,0,0l.21-.13.11.18s0,0,0,0l.09,0s.08,0,.09-.06l-.1-.18h0ZM62.94,71a.93.93,0,0,1,0-.1.19.19,0,0,1,0-.1L63,70.7c.06,0,.07.14.13.18h0l.6-.35h0a1.59,1.59,0,0,0,.13.22l.85-.49a0,0,0,0,1,0,0,.41.41,0,0,0-.07-.11s0-.09-.08-.1l-.1.06s-.07,0-.12,0l-.1-.17h0l-.38.23h0c0-.07-.09-.14-.13-.22l.16-.09.13-.08s.11,0,.14-.09c-1.29-2.25-3.51-6.1-3.62-6.25-.08,0-.13.08-.21.08a.53.53,0,0,0-.06-.1s0-.08-.08-.11l-.21.12c-.06,0-.07-.14-.13-.18l-.61.34v0c0,.08.08.12.09.2L59,64l0,0v0l.09.14s0,0,0,.09l-.1.06s-.08,0-.11.08l2.25,3.88c-.06.06-.14.07-.19.13l1.49,2.59c.08,0,.13-.09.22-.09l.1.18Zm6.27,10.85a1.57,1.57,0,0,0-.12-.19l-.23.13.06.1s0,.06,0,.1a1,1,0,0,0-.17.11s0,0,0,0l1.85,3.22s0,0,0,0v0l-.2.11s0,0,0,0,0,0,0,0l1.71,3,0,0h0l.22-.12.09.15c0,.05,0,.09.07.14a.61.61,0,0,0,.1.14l.17-.1a.08.08,0,0,1,0,0,.64.64,0,0,1-.08-.14s0,0,0-.09l.1,0s.07-.06.13-.06l.11.21h0l1.25-.72h0v0l-.11-.19s0,0,0,0l-.1.07s-.07.06-.13,0-.15-.27-.22-.4a0,0,0,0,1,0,0c.06-.06.15-.08.21-.15-1.12-1.94-2.24-3.87-3.35-5.81h0L69.57,82h0l0-.1s0-.08-.08-.11ZM79.8,97.75h0l-.37.21,0,0v0l.12.2h0l.36-.21,0,0v0ZM74.35,87.3l.06.1s0,.07.07.09l.4-.22v0l0-.08s0-.07-.06-.09Z"/><path d="M57.65,63.38l-.18.11c-.06,0-.06-.07-.08-.1l-.07-.11a.3.3,0,0,1,.1-.07l.1-.06Z"/><path d="M69.76,77.8l-.22.13h0c-.87-1.51-1.74-3-2.62-4.54,0,0,.07,0,.1-.08l.11-.06s0,0,0,0Z"/><path d="M66.61,72.36,67,73s-.07,0-.1.08l-.1.05s-.05,0-.06-.06l-.34-.58a.21.21,0,0,1,.11-.08Z"/><path d="M79.41,95.06l-.18.11s0,0,0,0l-3-5.1v0s0,0,.08-.06a.19.19,0,0,1,.11,0Z"/><path d="M75.7,89.1l.18-.1h0l.12.21s-.06,0-.09.06a.47.47,0,0,1-.09.06h0A1.59,1.59,0,0,0,75.7,89.1Z"/><path d="M88.7,76l-.43-.25c-.07.06-.08.15-.14.21h0l-.39-.23c-.06,0-.07.13-.13.2l-6.92-4s0-.07,0-.1a.93.93,0,0,1,0-.1,0,0,0,0,1,0,0h0l-.81-.47c0-.06,0-.09,0-.12s0-.09.08-.12l.4.24s.06-.06.08-.09,0-.06,0-.11l-.4-.24a.26.26,0,0,1,0-.12l.06-.11c0-.05-.09-.06-.14-.09L80,70.34l-.14-.08a.28.28,0,0,1,0-.11.56.56,0,0,1,0-.08,0,0,0,0,0,0,0,0,0,0,0,1,0,0l-.39-.22h0l-.1.18c-.06,0-.09,0-.13-.06l-.1-.06s0-.05,0-.08l.06-.11a0,0,0,0,0,0,0l-.16-.09h0l0,0c-.07.13-.15.26-.23.39a1,1,0,0,0,.19.12s0,.07,0,.11a.28.28,0,0,0,0,.11l.4.23c0,.06,0,.09,0,.13l-.06.1c.06.07.15.09.21.14s0,0,0,0a1.4,1.4,0,0,0-.1.16s-.08,0-.12,0L79.1,71,79,71.2c-.06,0-.09,0-.13,0l-.1-.06L78.63,71l-.1-.06-.11.18h0l0,0-.56-.33c-.06,0-.06.07-.08.1l-.07.11h0L71.35,67.4s0-.06,0-.08a1.09,1.09,0,0,0,.08-.15,0,0,0,0,0,0,0s0,0,0,0l-.58-.34c0-.08.08-.13.09-.21s-.08,0-.13-.08l-.15-.09-.13-.07s0-.08,0-.12.06-.07.06-.13l-.2-.12a0,0,0,0,1,0,0,.05.05,0,0,1,0,0l.22-.38.42.24c.07,0,.08-.14.14-.19l.21.12h0a2.39,2.39,0,0,0,.13-.21l.2.12-.07.11a.25.25,0,0,0,0,.13l.11.06s.06.06.12,0l.12-.22,4.09,2.36h0l.09-.16h0l.39.22a0,0,0,0,0,0,0,0,0,0,0,0,0,0l-.1.17a.21.21,0,0,0,.11.08s.07.06.13,0l.1-.18.11.06s.07,0,.08.07a.35.35,0,0,1,0,.08s0,.06,0,.11l1.51.87c0,.06,0,.09-.06.13s-.06.07,0,.12l.17.1h0c.08-.12.15-.26.23-.39a0,0,0,0,0,0,0h0a1.88,1.88,0,0,1-.18-.12.75.75,0,0,1,.07-.12s0-.08.08-.1l.08.05s.06,0,.11,0l.74-1.27a.23.23,0,0,1,.12.06s.09,0,.11.08l-.06.1s-.05.07-.05.11.13.07.17.14l-.09.17v0l.13.07.08,0a12,12,0,0,0,.61-1.07l-.22-.13a.75.75,0,0,0,.07-.12s0-.08.08-.1.14.09.21.12.07-.15.14-.19l.19.11-.11.18s0,0,0,0,.15.07.21.14l-.12.21a0,0,0,0,1,0,0l.18.11-.35.6h0v0l.21.12a.46.46,0,0,1-.07.14.57.57,0,0,1-.08.13l-.07.14L81,69.3s-.06.08-.06.14l.16.1h0a7,7,0,0,0,.49-.86l-.18-.11c.07-.12.13-.24.2-.35s0,0,0-.09L81.4,68l.24-.42h0v0l-.41-.24.07-.12s0-.07,0-.12L81.15,67s0-.07.06-.1a.14.14,0,0,0,0-.11l-.13-.07L81,66.59s-.09,0-.13-.09a.6.6,0,0,0,.06-.11s.07-.07,0-.12c-1.88-1.11-6.25-3.62-6.5-3.74l-.06.11s0,.09-.08.1l-.8-.46,0,0h0l-.1.17v0l.82.47s0,0,0,0h0l-.13.22-.15-.08L73.79,63l-.16-.08-.11.19-.35-.2s0,0-.09,0L73,63a.25.25,0,0,0,0,.13l.17.1c0,.05,0,.07,0,.11s0,.06,0,.1.14.08.21.14l-.07.11s-.06.07,0,.12l.16.1s0,0,0,0L72.72,65c-.07,0-.12-.08-.2-.1l-.24.42s.07,0,.1.07.07,0,.08.07l-.11.2h0c-.07,0-.12-.08-.2-.09l-.11.19-.23-.13.06-.1s0-.06,0-.11l-.1-.06s-.05,0-.1,0l-.1.18-.44-.25a.75.75,0,0,1-.07.12s0,.08-.08.1l-.2-.11h0l-.1.18-.62-.36s0,0-.06.07l-.08.14h0c-2.24-1.28-4.47-2.57-6.71-3.87a2.39,2.39,0,0,0,.12-.22v0h0l-.81-.47s0,0,0,0,0,0,0,0l.09-.17h0l.62.35h0l.12-.21c0-.05-.08-.06-.12-.09l-.13-.07-.14-.08-.13-.08-.13-.08.1-.18a0,0,0,0,0,0,0l0,0-.58-.33.06-.12s.06-.07.06-.12l-.11-.07s-.07-.06-.12,0l-.13.21-.61-.35s0-.06,0-.09l.09-.15-.21-.13c0-.05,0-.08,0-.11a.13.13,0,0,1,.06-.09l.21.11h0v0L62,58h0l.18.1s.05-.07.08-.11l.06-.1c.05,0,.08,0,.11.05l.12.07.11-.19c.09,0,.14.08.22.1l.49-.85c-.05-.06-.13-.07-.19-.13l.13-.22h0l0,0,.55.32c.07,0,.07-.13.14-.19s.14.09.21.12,0-.07.08-.1,0-.09.08-.12l.17.1s.06-.06.08-.09l0-.08s.06,0,.09,0l7.24,4.18,0,0s0,.08,0,.12l-.06.1-.07.11-.06.1.22.13h0s0,0,0,0l.21-.35c.08,0,.13.08.21.09s.08-.14.13-.21h0c.13.07.26.14.38.22h0l.1-.17c.06,0,.09,0,.13.06l.1,0s0,0,.06-.06.05-.1.08-.14h0l0,0,.37.21c.07,0,.07-.13.13-.18.21.1,5,2.88,7.56,4.36,0,.08-.07.13-.09.2s0,0,0,0h0l.39.22c0,.09-.09.15-.13.24l.22.13c0,.08-.08.13-.09.21l.17.1a.25.25,0,0,1,0,.13l-.06.1s.07,0,.11.08l.11.06a1.24,1.24,0,0,1-.1.2c0,.06.13.07.19.13l-.13.21s.08.06.11.09l.12.06-.1.18s0,0,0,0l.09,0s.06,0,.1,0l.1-.17a0,0,0,0,0,0,0l-.18-.11.13-.21s0,0,.07,0l6,3.44,0,0c0,.06,0,.09-.06.13a.41.41,0,0,0,0,.09v0s0,0,0,0l.59.33s0,0,0,0-.07.12-.09.19.06,0,.1.07l.12.07.1-.18a.14.14,0,0,1,.11,0l.09,0s0-.07.08-.1a.75.75,0,0,1,.07-.12,2.39,2.39,0,0,1,.22.12s.05-.06.07-.09,0-.07.07-.09l.17.1c.05,0,.06-.08.09-.11l0-.1s.06,0,.09,0l.35.21c.05-.06.07-.13.12-.19a.44.44,0,0,1,.15.08l.13.07.15.09a1.27,1.27,0,0,0,.13-.22h0a0,0,0,0,1,0,0L99,75.54v0l-.12.2s0,0,0,0h0l.39.22c0,.08-.08.13-.1.21l.21.12c0,.06,0,.09-.05.13a.45.45,0,0,0-.06.12l.18.11c0,.08-.08.13-.1.21l.22.12c0,.06,0,.09-.06.13l-.06.1s.06,0,.09.07l.09,0a.19.19,0,0,1-.05.11.59.59,0,0,1,0,.08c0,.06.07.06.1.09s.09,0,.12.08l-.24.4s.06.06.09.08l.09,0s0,0,0,.08-.13.23-.21.35l.22.13v0h0l-.85,1.47s0,0,0,0l-.2-.12h0s0,0,0,0l-.33.56a0,0,0,0,1,0,0h0l-.17-.1s0,.08-.08.11l-.06.11c-.09,0-.15-.09-.23-.12a.23.23,0,0,0-.07.1.56.56,0,0,0,0,.08h0a0,0,0,0,1,0,0l-.39-.22h0l-.23.4c-.05,0-.08,0-.11,0l-.08,0s0,0-.06.07l-.09.14h0l-.39-.22c-.06.05-.07.13-.13.19l-.41-.24s-.06.07-.08.11,0,.08-.09.11l-1.94-1.12s0,.06-.07.09a.56.56,0,0,1,0,.08s-.06,0-.09,0l-4.6-2.65-.08,0a.19.19,0,0,1,0-.11l0-.08v0h0l-.58-.34a0,0,0,0,0,0,0l.12-.21s-.08-.06-.11-.08l-.1-.06-.12-.07-.1-.06.11-.18s-.08-.06-.11-.09l-.1-.05c0-.06,0-.08,0-.12l.06-.12a.46.46,0,0,1,.14.07l.16.09.13.08c.06,0,.07-.14.14-.19l.21.12s0-.07.08-.11A.41.41,0,0,1,88.7,76l.17.1h0l.1-.18.22.12h0a.39.39,0,0,0,.06-.11s.06-.06.06-.11l-.21-.12s0,0,0,0a2.39,2.39,0,0,0-.13.21l-.18-.1h0A1.62,1.62,0,0,0,88.7,76Zm7.62,3.82a.41.41,0,0,1-.11-.07s-.09,0-.11-.07l.24-.43.12.07s.07.06.13,0l.23-.41c.08,0,.13.09.21.1l.22-.39s0,0,0,0h0l.39.23h0a.56.56,0,0,1,0-.08s0-.06,0-.11l-.17-.1s0,0,0,0,.14-.26.22-.38v0s0,0,0,0L97.64,78l.07-.12s.06-.07.05-.13l-.18-.1c.08-.14.16-.27.23-.41h0l.37.21,0,0v0l-.11.2s0,0,0,0,.25.15.38.22,0,0,0,0h0l.13-.22-.12-.07s-.08,0-.1-.09l.1-.18-.1-.06s-.08,0-.08-.07a.47.47,0,0,0,0-.1s.06-.07.06-.13l-.41-.23a.19.19,0,0,1,0-.11s0-.06,0-.11l-.4-.22h0l0,.09s0,.07-.07.08l-.1,0s-.07-.06-.13-.06a.64.64,0,0,1-.08.14s0,.07-.06.07l-.42-.24.22-.38a.05.05,0,0,0,0,0v0l-5.83-3.36s-.06.14-.13.19l-.42-.24-.07.11s0,.09-.08.11a1.55,1.55,0,0,0-.22-.12l-.06.1s0,.06,0,.1l.42.24-.37.64a0,0,0,0,1,0,0s0,0,0,0l.22.13-.06.1a.14.14,0,0,0,0,.11l.17.1v0s0,0,0,0l-1.1,1.9v0l.22.12a1.05,1.05,0,0,1,.07-.11s0-.09.08-.11l5.36,3.1h0v0l0,.1s-.06.07-.06.12l.05,0,1,.57s0,0,.07,0l.12-.22.18.1h0a.26.26,0,0,0,0-.09s.06-.06,0-.1l-.17-.1h0Zm-25.77-16-.1,0s-.07,0-.09-.07l.11-.18c.08,0,.13.08.2.09h0l.34-.6v0h0a2.4,2.4,0,0,0,.23.11c.17-.28.33-.56.49-.84v0l-.11-.07s-.06-.06-.11,0l-.06.1s0,.08-.09.11l-.17-.1h0l-.22.38v0h0a1.73,1.73,0,0,1-.21-.13l.09-.15.07-.13A.34.34,0,0,0,71,62c-2.23-1.31-6.08-3.52-6.26-3.61s-.06.14-.13.18l-.1-.06a.25.25,0,0,0-.13-.05l-.12.21c-.08,0-.13-.09-.21-.1l-.35.61v0s.14.06.18.13l-.21.36s0,0,0,0v0l.14.08s.06,0,.06.06a.31.31,0,0,0,0,.1s-.06.07-.06.12l3.89,2.25c0,.08-.09.13-.1.2L70.1,64c.06-.05.06-.13.14-.18l.18.1ZM81.41,70c-.09,0-.14-.08-.21-.1l-.13.23.1.06s.07,0,.09.06-.08.12-.1.18a0,0,0,0,1,0,0c1.08.61,2.15,1.23,3.22,1.85l0,0v0l-.11.19v0l0,0,3,1.71h0c0-.06.08-.14.13-.21l.16.09.13.07a.3.3,0,0,0,.15.07,1,1,0,0,0,.1-.17,0,0,0,0,0,0,0L87.85,74s-.06,0-.06-.06,0-.06.06-.1,0-.08.08-.11l.2.12h0l.72-1.25a0,0,0,0,0,0,0,0,0,0,0,1,0,0l-.2-.11h0l-.07.11s0,.08-.08.1l-.4-.23v0c0-.08.09-.14.11-.23l-5.81-3.36h0c-.21.35-.41.7-.61,1.05,0,0,0,0,0,0h0l-.09,0s-.07-.06-.13-.06Zm17.11,8.47h0l-.21.37s0,0,0,0v0l.2.12s0,0,0,0l.21-.36a.08.08,0,0,0,0,0v0Zm-9.94-6.32.1.06a.28.28,0,0,0,.11,0l.22-.39s0,0,0,0,0,0,0,0l-.08,0a.28.28,0,0,0-.11,0Z"/><path d="M62.16,59.78l-.11.18s-.08,0-.12-.05a.6.6,0,0,1-.11-.06c0-.05,0-.07,0-.11l.05-.1Z"/><path d="M79.85,66.21l-.13.22h0l-4.54-2.62c0-.05,0-.08,0-.12l.06-.1h0Z"/><path d="M74.41,63.07l.65.38s0,.08,0,.12l-.06.1s-.06,0-.08,0l-.58-.33a.22.22,0,0,1,0-.12Z"/><path d="M96.84,76.33l-.1.18s0,0-.07,0l-5.11-3,0,0s0-.07,0-.1a.3.3,0,0,1,.07-.1Z"/><path d="M90.65,73l.1-.18h0L91,73s0,.07,0,.1a.19.19,0,0,1,0,.09h0Z"/><path d="M95.32,55.13h-.49c0,.09,0,.18,0,.26h-.49c0,.08,0,.15,0,.23h-8s0-.07,0-.1v-.11l0,0h-1s0-.08,0-.13a.29.29,0,0,1,0-.13h.47a.17.17,0,0,0,0-.12.25.25,0,0,0,0-.12h-.47a.21.21,0,0,1,0-.13v-.12s-.11,0-.17,0h-.32a.25.25,0,0,1,0-.12v-.09l0,0h-.46l0,0v.19s-.09,0-.14,0h-.11s0-.06,0-.09v-.12l0,0h-.19s0,0,0,0h0v.46a1.49,1.49,0,0,0,.21,0S84,55,84,55a.22.22,0,0,0,0,.11h.47a.24.24,0,0,1,0,.14v.12c.08,0,.17,0,.26,0s0,0,0,0v.19s-.09,0-.13,0h-.14v.26s-.09,0-.13,0H84v.22l0,0h-.69s0,.08,0,.12a.56.56,0,0,0,0,.13l0,0H76s0-.06,0-.09v-.17h-.72c0-.08,0-.15,0-.23a.38.38,0,0,0-.15,0H74.8s0-.08,0-.13,0-.09,0-.13h-.23l0,0v-.49H75c0-.08,0-.15,0-.23h.24l0,0v-.25h.23v.14a.21.21,0,0,0,0,.13h.12s.09,0,.13,0v-.25H80.5s0,0,0,0v-.19l0,0H81l0,0v.2a.34.34,0,0,0,.14,0s.09,0,.14,0V54.4h.12s.07,0,.1,0v.1s0,.07,0,.11h1.74s0,.1,0,.14,0,.09,0,.13h.22v-.46h0s0,0,0,0a.74.74,0,0,1-.21,0,.57.57,0,0,1,0-.13s0-.09,0-.13h.09a.17.17,0,0,0,.12,0V52.64a.33.33,0,0,1,.14,0s.09,0,.13,0v.11a.29.29,0,0,0,0,.13c.07,0,.15,0,.22,0v.2l0,0h.24c0-.21,0-1.08,0-1.24H84v-.13s0-.09,0-.13h.24c0-.08,0-.16,0-.23h.22v.23c.09,0,.17,0,.26,0v.25l0,0H85v.71l0,0h.24a.43.43,0,0,1,0,.16v.46s0,.1,0,.15h.2a6.42,6.42,0,0,0,0-1H85.3V52s0-.06,0-.08H85v-.48s0,0,0,0h-.49v-.13a.24.24,0,0,0,0-.14H84.3V51s0-.08,0-.12H84a.45.45,0,0,1-.16,0v-.13s0-.09,0-.13c-2.19,0-7.23,0-7.5,0v.13s0,.09,0,.12h-1l0,0v.2h1s0,0,0,0h0v.25H76a1.1,1.1,0,0,0-.18,0v.22h-.4s-.07,0-.09,0v.11s0,.09,0,.14h.2a.22.22,0,0,1,0,.11s0,.08,0,.11h.25v.14s0,.09,0,.13H76v1.21c-.08,0-.16,0-.23,0v.48a.25.25,0,0,0,.12,0s.08,0,.11,0v.23h0c-.07,0-.15,0-.22,0v.21h-.27v-.11a.17.17,0,0,0,0-.12h-.11s-.07,0-.1,0v.21h-.5v.14s0,.09,0,.13h-.24v.23H73.8s0,.06,0,.09a1,1,0,0,0,0,.17H66a2.08,2.08,0,0,1,0-.25H65a0,0,0,0,1,0,0h0v-.19s0,0,0,0h.75v-.25s-.1,0-.15,0H65v-.21l0,0h-.72a.57.57,0,0,0,0-.13c0-.05,0-.09,0-.14h-.13s-.09,0-.13,0v.25h-.71s0-.06,0-.09v-.17H63s0-.08,0-.12a.18.18,0,0,1,0-.12h.23l0,0v-1l0,0h.2s0-.09,0-.14a.41.41,0,0,0,0-.11s.09,0,.13,0h.14v-.22c.08,0,.15,0,.23,0v-1c-.07,0-.15,0-.22,0v-.25h.71c0-.07,0-.14,0-.22h.24s0-.08,0-.13a.29.29,0,0,1,0-.13H65c0-.05,0-.08,0-.12v-.1s.05,0,.08,0h8.42s0,.09,0,.14v.36h.25s0,0,0,0a.11.11,0,0,0,0,0v-.41c.07,0,.14,0,.22,0s0-.16,0-.24h.5v-.2s.09,0,.13,0h.12s0-.06,0-.09v-.16l0,0h.46c0-.07,0-.15,0-.22.22,0,5.78,0,8.72,0,0,.07,0,.15,0,.22h.48a2.44,2.44,0,0,1,0,.27h.26c0,.08,0,.16,0,.23H85a.34.34,0,0,1,0,.14v.11s.09,0,.13,0h.13a1.7,1.7,0,0,1,0,.22c.07,0,.15,0,.23,0v.25s.09,0,.14,0h.13v.21l0,0a.34.34,0,0,0,.1,0s.08,0,.11,0v-.2l0,0H85.8v-.25a.1.1,0,0,1,.07,0H92.8s0,.09,0,.13v.11a0,0,0,0,0,0,0h.69l0,0a1.27,1.27,0,0,1,0,.2s.09,0,.13,0a.66.66,0,0,0,.14,0v-.21s.08,0,.12,0H94s0-.08,0-.12v-.14h.25s0-.07,0-.11,0-.07,0-.12h.2s0-.09,0-.13v-.12s.06,0,.09,0H95a1.5,1.5,0,0,0,0-.22.43.43,0,0,1,.16,0h.33c0-.09,0-.17,0-.25s0,0,0,0h8.48l0,0v.23l0,0h.47c0,.07,0,.15,0,.23h.24s0,.09,0,.13,0,.09,0,.14h.2c0,.08,0,.16,0,.23h.25c0,.05,0,.1,0,.14a.4.4,0,0,1,0,.11s.08,0,.11,0h.11s0,.09,0,.12v.1s.08,0,.13,0,.09,0,.13,0v.47s.08,0,.12,0h.1s0,0,0,.08v.41h.24l0,0v1.72s0,0,0,0h-.24s0,0,0,0v.69l0,0h-.2s0,.1,0,.14a.48.48,0,0,0,0,.12c-.09,0-.18,0-.26,0a.22.22,0,0,0,0,.11.27.27,0,0,0,0,.09l0,0h-.46l0,0v.47s-.08,0-.12,0h-.1s0,.06,0,.09v.17h-.49a1.77,1.77,0,0,0,0,.23h-.48s0,.1,0,.14a.34.34,0,0,1,0,.14h-2.25a.22.22,0,0,0,0,.11v.1s-.06,0-.09,0H96.07a.26.26,0,0,1,0-.12.34.34,0,0,1,0-.1h-.71l0,0v-.24s-.09,0-.13,0h-.37v-.22s-.09,0-.13,0h-.12s0-.08,0-.12v-.13a.3.3,0,0,1,.16,0H95c0-.07,0-.15,0-.23h.25s0-.09,0-.13v-.14h.21a0,0,0,0,0,0,0h0V54.9h.25s0,0,0,0a.48.48,0,0,0,0-.12s0-.09,0-.12h-.24l0,0v.24h-.22s0,0,0,0Zm8.52-.5h-.13s-.09,0-.13,0v-.49h.13s.09,0,.13,0v-.47c.08,0,.16,0,.23,0v-.47l0,0h.48a.33.33,0,0,0,0-.1s0-.07,0-.11h-.2l0,0v-.47l0,0h-.25a.56.56,0,0,0,0-.13s0-.09,0-.14h-.21v-.46s0,0,0,0h.43s0,0,0,0l0,0v.23l0,0h.48v-.25h-.14s-.09,0-.13,0v-.21h-.12s-.08,0-.11,0v-.12s0-.09,0-.14h-.47s0-.08,0-.11,0-.08,0-.12h-.45l0,0V51s0,.08,0,.11h-.11s-.09,0-.14,0v.17s0,.06,0,.08h-.48v-.48H95.83c0,.07,0,.15,0,.23h-.49a.56.56,0,0,1,0,.13c0,.05,0,.09,0,.13h-.26v.12s0,.08,0,.11h.48v.75s0,0,0,0h.25v.11s0,.08,0,.12H96v0s0,0,0,0v2.2s0,0,0,0v0h.25a.66.66,0,0,1,0-.14s0-.09,0-.13h6.23v.12a.3.3,0,0,0,0,.13h1.19s0,0,.07,0v-.25h.23a.41.41,0,0,0,0-.11s0-.07,0-.1h-.22Zm-30.34-1h-.11s-.08,0-.11,0v-.21c.07,0,.15,0,.22,0v-.72a0,0,0,0,1,0,0v0a2.35,2.35,0,0,0,.26,0c0-.33,0-.65,0-1v0a.56.56,0,0,0-.13,0s-.09,0-.12,0v.11s0,.09,0,.14h-.2s0,0,0,0v.46l0,0H73v-.17a.85.85,0,0,0,0-.16c0-.05,0-.11,0-.16-2.59,0-7,0-7.22,0,0,.07,0,.15,0,.22a.48.48,0,0,0-.12,0s-.09,0-.13,0v.25c-.08,0-.16,0-.23,0v.71c.07,0,.15,0,.22,0v.47l0,0h.16s.06,0,.09,0v.12s0,.08,0,.13h4.48c0,.08,0,.16,0,.23h3c0-.08,0-.16,0-.23h.21Zm12.53,0c-.08,0-.15,0-.22,0v.26h.11s.08,0,.11,0a1.41,1.41,0,0,0,0,.2h3.75l0,0v.23H93.3s0,0,0,0a2.08,2.08,0,0,1,0-.25h.33a.47.47,0,0,0,.17,0v-.2l0,0h-.16s-.07,0-.09,0v-.12a.21.21,0,0,1,0-.13h.23l0,0V52.14h-.27v.13s0,.09,0,.13h-.46l0,0c0-.08,0-.17,0-.25H86.3v1.22h0l0,0h-.11a.34.34,0,0,0-.14,0Zm19.06-1.22s0,0,0,0,0,.28,0,.42a.06.06,0,0,0,0,0h.26v-.43s0,0,0,0,0,0,0,0Zm-11.77-.5h.11s.08,0,.12,0v-.46a0,0,0,0,0,0,0v0h-.1s-.07,0-.11,0Z"/><path d="M64.25,54.4v.21s-.08,0-.12,0H64s0-.08,0-.11a.49.49,0,0,1,0-.12Z"/><path d="M82.79,51.12v.26H77.53s0-.08,0-.12a.62.62,0,0,1,0-.13h5.28Z"/><path d="M76.51,51.13h.76s0,.09,0,.13a.4.4,0,0,1,0,.11s0,0-.08,0h-.67s0-.09,0-.13Z"/><path d="M102.57,51.4v.21a.08.08,0,0,1-.07,0H96.57s0-.07,0-.11a.22.22,0,0,1,0-.11Z"/><path d="M95.55,51.63v-.21s0,0,0,0h.24s0,.07,0,.1a.4.4,0,0,1,0,.11s0,0,0,0Z"/><path d="M90.66,33.8l-.43.24c0,.09.09.15.12.23v0h0l-.39.22c0,.08.08.14.1.21l-6.92,4s0-.06-.07-.08a.47.47,0,0,1-.05-.1h0l-.81.47s-.06-.07-.08-.1A.2.2,0,0,1,82,38.8l.4-.23a.14.14,0,0,0,0-.11s0-.07-.07-.1l-.41.24s-.05-.08-.08-.11l-.06-.1a.3.3,0,0,0-.15.07l-.13.07-.15.09a.3.3,0,0,1-.07-.1.59.59,0,0,1,0-.08h0l-.39.22s0,0,0,0l.1.17s-.07.06-.11.08l-.1.06s0,0-.06-.07l-.06-.11h0l-.16.1s0,0,0,0a0,0,0,0,0,0,0c.07.14.15.27.22.4a1.24,1.24,0,0,0,.2-.1s0,.06.07.09,0,.07.07.09l.4-.23s.06.07.09.11,0,.07.06.11a2.53,2.53,0,0,0,.23-.12h0l.09.17c0,.05-.06.05-.1.08l-.12.07.13.21c0,.06-.08.06-.11.09l-.1,0-.12.07-.1.06.11.18v0l0,0-.57.33s0,.08,0,.12a.6.6,0,0,0,.06.11,0,0,0,0,0,0,0q-3.14,1.81-6.28,3.62s0,0-.06-.06,0-.1-.08-.14h0l-.59.34c-.07,0-.07-.13-.13-.18a.46.46,0,0,0-.14.07l-.15.08-.13.08c-.05,0-.05-.07-.08-.11s0-.08-.08-.11l-.2.12h0l0,0-.22-.39.42-.24c0-.08-.08-.13-.09-.22l.21-.12v0l-.12-.22.2-.11.06.11s0,.09.09.11l.11-.06s.08,0,.1-.08l-.13-.22,4.09-2.36a0,0,0,0,1,0,0l-.1-.17s0,0,0,0l.38-.22h0l.1.17s.08,0,.12-.06.09,0,.11-.08l-.11-.18a.3.3,0,0,1,.11-.06s0-.06.1,0a.22.22,0,0,0,.05.08s0,.07.07.09L80,39.38s0,.08.08.11,0,.09.08.11l.16-.09,0,0-.23-.39a0,0,0,0,0,0,0h0l-.19.1-.07-.12s-.06-.07,0-.12l.08,0s.07,0,.09-.07l-.73-1.28a.26.26,0,0,1,.11-.07s.07-.06.12-.06l.06.1a.26.26,0,0,0,.07.11c.08,0,.13-.09.21-.09l.09.17h0l.13-.07.08-.05c-.09-.19-.53-.94-.63-1.07l-.22.13a1.34,1.34,0,0,0-.06-.12s-.06-.07,0-.12.14-.08.2-.13-.09-.13-.09-.21l.19-.11c0,.07.07.13.1.19h0c.07,0,.14-.09.23-.11l.12.21h0l.18-.1.35.6h0l.2-.12c.05,0,.06.09.09.13l.08.14L81,37l.07.13s0,.1.09.13l.17-.1a0,0,0,0,1,0,0,7,7,0,0,0-.51-.86l-.18.1-.21-.35s0-.06-.06-.07l-.22.13c-.08-.14-.15-.28-.23-.41h0l-.41.23-.07-.11s0-.09-.08-.11l-.19.11a.39.39,0,0,0-.06-.11s0-.07-.07-.08l-.13.07-.15.09a.46.46,0,0,1-.14.07.41.41,0,0,0-.07-.11s0-.09-.07-.11c-1.91,1.08-6.27,3.61-6.49,3.76l.06.12s.06.06,0,.11l-.8.47,0,0v0l.1.17h0l.82-.48h0l.13.22-.15.09-.13.08a.6.6,0,0,0-.15.09l.11.19-.35.21s-.06,0-.07.06l.06.1s0,.08.08.11l.18-.1s0,.06.07.09,0,.08.07.09.14-.09.22-.12,0,.08.07.12,0,.08.08.1l.17-.1h0l.6,1c0,.05-.13.06-.18.12l.24.42s.07,0,.1,0,.06,0,.11,0a2,2,0,0,1,.11.2s0,0,0,0-.14.06-.18.13l.11.18-.23.14-.06-.1s0-.07-.07-.09l-.1.05s-.07,0-.08.07l.11.18-.44.25.07.13s.06.06,0,.12l-.2.12s0,0,0,0a1.62,1.62,0,0,0,.1.18l-.62.36s0,.06,0,.09a1,1,0,0,1,.08.14l0,0-6.7,3.87c0-.07-.08-.14-.13-.21h0l-.81.47h0l-.09-.16v0h0l.62-.36v0l-.13-.21s-.09,0-.13.06a.57.57,0,0,0-.13.08l-.14.08-.13.07-.14.08-.1-.18h0l0,0-.59.34-.06-.12s0-.08-.08-.11l-.12.07s-.08,0-.09.07l.12.22-.62.36s0,0-.06-.07a1.19,1.19,0,0,0-.09-.15l-.21.12c-.05,0-.06-.06-.08-.09a.28.28,0,0,1-.05-.11l.21-.11s0,0,0,0v0c-.16-.27-.32-.54-.47-.82,0,0,0,0,0,0l.17-.1a.25.25,0,0,0-.05-.13l-.06-.1c0-.05.07-.05.1-.08l.12-.07L62,47.23c0-.07.14-.08.19-.14l-.49-.85c-.08,0-.13.08-.2.09l-.13-.21v0l.05,0,.55-.32c0-.08-.07-.13-.09-.21s.14-.08.21-.13,0-.08,0-.12a.45.45,0,0,1-.06-.12l.17-.1a.14.14,0,0,0,0-.11.22.22,0,0,0,0-.08s0-.05.07-.07l7.24-4.18,0,0c.05,0,.05.07.08.1l.06.1.06.12.06.1.22-.13s0,0,0,0,0,0,0-.05l-.21-.35c0-.07.13-.08.19-.14s-.09-.14-.12-.21,0,0,0,0h0l.38-.22a0,0,0,0,0,0,0L70,39.68s.07-.06.1-.08l.1-.06s0-.06,0-.09l-.08-.14a0,0,0,0,1,0,0h0l.37-.22c0-.08-.08-.13-.09-.2.19-.13,5-2.91,7.55-4.37.07,0,.07.13.13.18h0l.39-.23c.06.07.08.16.14.23l.22-.13c.06.06.08.14.13.19l.18-.1s.06.08.09.11l0,.1c.06,0,.08,0,.12,0l.12-.06c.05,0,.07.12.12.18s.13-.08.21-.1l.12.22s.08,0,.12-.06l.12-.07.11.19h0l.09-.06s.07,0,.09-.06l-.11-.18h0l-.18.1-.12-.21s0,0,0-.05l6-3.44,0,0s.06.08.08.11l.06.1h0L87,31h0a1.08,1.08,0,0,1,.11.18s.08,0,.12-.06l.12-.06-.11-.19s.06-.05.09-.07l.09-.05c0-.05,0-.08,0-.12a.75.75,0,0,0-.07-.12l.22-.13s0-.07,0-.1,0-.07,0-.11l.17-.1c0-.06,0-.09,0-.13l-.06-.1s0-.05.07-.06l.35-.2a1.24,1.24,0,0,0-.1-.2s.09-.06.14-.09l.13-.08.15-.09-.12-.22s0,0,0,0h0l7.33-4.23h0l.12.2h.05l.38-.22c.07,0,.08.13.14.18l.2-.12c.06,0,.06.07.09.11s0,.08.08.11l.18-.1c.06.05.07.13.13.19l.22-.12s.05.07.08.11l.06.1s.07,0,.1,0l.09,0s0,.06.08.09a.59.59,0,0,0,0,.08c.06,0,.08,0,.12-.05s.08-.05.13-.05l.23.4c.06,0,.08,0,.11,0l.09-.05s0,0,.06.07.13.23.2.35l.22-.12h0l.84,1.47s0,0,0,0l-.2.12s0,0,0,0h0l.33.57s0,0,0,0a0,0,0,0,1,0,0l-.17.1c0,.06,0,.09.06.13a.41.41,0,0,0,.06.11c-.06.06-.15.08-.22.14a.19.19,0,0,0,0,.1.22.22,0,0,0,0,.08,0,0,0,0,0,0,0,0,0,0,0,0,0,0l-.39.22a0,0,0,0,1,0,0l.23.41s-.06.05-.09.07l-.08.05s0,.06,0,.09a1,1,0,0,0,.08.14,0,0,0,0,0,0,0h0l-.39.23c0,.07.08.13.1.21l-.41.23c0,.06,0,.09,0,.13s.06.07.06.13l-2,1.12c0,.05,0,.07.05.11a.35.35,0,0,0,0,.08s0,0-.07.06l-4.61,2.66-.07,0s-.06-.06-.08-.09l0-.08h0l-.59.34h0l-.12-.2c-.06,0-.09,0-.13,0l-.1.06-.12.07-.1,0-.1-.18a.25.25,0,0,0-.13.05l-.1.06s-.06-.07-.08-.1a.41.41,0,0,0-.07-.11.31.31,0,0,1,.14-.09l.15-.09.13-.08c0-.08-.08-.13-.09-.21l.21-.12c0-.06,0-.09-.06-.13l-.06-.11.17-.11h0s0,0,0,0l-.1-.18.21-.12,0,0-.07-.11s0-.08-.07-.1l-.21.12s0,0,0,0l.12.21-.18.1s0,0,0,0v0Zm7.12-4.7-.11.07s-.07.06-.12,0l-.25-.42.12-.07s.08,0,.1-.08l-.23-.41c.06-.06.14-.07.19-.13l-.23-.39a0,0,0,0,1,0,0v0l.39-.23h0s0,0,0,0a.56.56,0,0,0,0-.08s0-.08-.08-.1l-.17.1s0,0,0,0L97.12,27s0,0,0,0h0l-.22.13a.75.75,0,0,0-.07-.12s0-.09-.08-.11l-.18.11-.24-.4v0s0,0,0,0l.36-.21,0,0h0l.11.2h0l.38-.22h0v0L97.14,26l-.11.07s-.07.06-.13.05l-.11-.18-.1,0s-.06.06-.1,0l-.06-.1s0-.08-.08-.11l-.41.24A.3.3,0,0,1,96,26s0-.07-.07-.09l-.4.23v0a.41.41,0,0,0,.05.09s0,.06,0,.11l-.1.05s-.08,0-.11.08l.08.15a.08.08,0,0,1,0,.08l-.42.24-.22-.38,0,0h0L89,29.87c0,.08.08.13.1.21l-.43.25a.75.75,0,0,1,.07.12s.06.06,0,.11l-.22.14a.86.86,0,0,0,.07.1s0,.08.06.08l.42-.24.37.64h0s0,0,0,0l.22-.12.06.1s0,.07.08.09l.17-.1h0s0,0,0,0l1.1,1.9h0l.22-.13a.75.75,0,0,1-.07-.12s-.06-.06,0-.12q2.68-1.55,5.36-3.1h0l.06.09s0,.09.08.11l0,0,1-.57s0,0,0-.05l-.13-.22L98,29s0,0,0,0l0-.09s0-.07-.06-.08l-.18.1v0ZM71,43.4l-.1.06s-.06,0-.1,0l-.11-.18c0-.06.14-.06.18-.13v0l-.35-.6h0v0a1.64,1.64,0,0,0,.22-.14c-.17-.28-.33-.56-.49-.84h0l-.11.06s-.09,0-.1.08l.06.1s0,.07,0,.13L70,42s0,0,0,0,.15.25.23.38v0l-.22.12-.09-.15-.08-.13s0-.11-.09-.14c-2.25,1.28-6.1,3.51-6.25,3.62,0,.07.08.12.08.2l-.1.06s-.08,0-.11.08l.12.22c0,.06-.14.07-.18.13l.34.6h0c.08,0,.12-.09.2-.09l.22.37,0,0h0l.14-.08s0,0,.09,0l.06.1s0,.09.08.11l3.88-2.24c.06.06.07.14.13.19L71.05,44c0-.08-.09-.13-.09-.21l.18-.11Zm10.85-6.27c-.07.06-.14.08-.19.13l.13.23.1-.06s.06,0,.1,0a1.63,1.63,0,0,0,.11.17h0l3.22-1.86h0s0,0,0,0a1.28,1.28,0,0,1,.11.2h0l3-1.72h0v0c0-.07-.08-.14-.12-.22l.15-.09.14-.08s.1,0,.14-.09l-.1-.17h0l-.14.08s0,0-.09,0l0-.1s-.06-.07-.06-.13l.21-.12v0L87.87,32a0,0,0,0,0,0,0h0l-.19.12s0,0,0,0l.07.11s.06.07,0,.12l-.4.23h0c-.06-.06-.08-.16-.15-.21l-5.81,3.35a0,0,0,0,1,0,0h0c.21.35.41.7.61,1.06h0s0,0,0,0l-.1.06s-.08,0-.11.08ZM97.75,26.55s0,0,0,0l.21.36,0,0h0l.2-.12s0,0,0,0L98,26.47s0,0,0,0h0ZM87.3,32l.1,0s.07,0,.09-.08l-.22-.39h0l-.08.05s-.07,0-.09.07Z"/><path d="M63.38,48.7l.11.18s-.07,0-.1.08l-.11.06s-.05-.06-.07-.09l-.06-.1Z"/><path d="M77.8,36.59l.13.22v0l-4.54,2.62s0-.06-.08-.1l-.06-.11s0,0,0,0Z"/><path d="M72.36,39.73l.66-.38s0,.08.08.11,0,.07.05.1,0,0-.06.06l-.58.34c-.05,0-.06-.08-.08-.11Z"/><path d="M95.06,26.94l.11.18s0,0,0,.05L90,30.11l0,0s0-.05-.06-.09a.19.19,0,0,1,0-.1Z"/><path d="M89.1,30.64l-.1-.18v0l.21-.12s0,.05.06.08,0,.07.06.09v0Z"/><path d="M76,17.65l-.25.43c.06.06.15.08.21.14v0s0,0,0,0l-.23.38c0,.06.13.08.2.14l-4,6.92s-.07,0-.1,0l-.1-.05s0,0,0,0h0l-.47.82c-.06,0-.09,0-.12-.05a.32.32,0,0,1-.12-.08l.24-.41s-.06-.05-.09-.07-.06-.05-.11,0l-.24.4a.26.26,0,0,1-.12-.05l-.11-.06c-.05,0-.06.09-.09.13l-.08.14-.08.14a.19.19,0,0,1-.11-.05l-.08,0h0s0,0,0,0l-.22.38v0l.18.1s0,.08-.06.12a.33.33,0,0,1-.06.1s-.05,0-.08,0l-.11-.07h0l-.09.17v0h0l.39.23a.94.94,0,0,0,.12-.18s.07,0,.11,0a.19.19,0,0,0,.11.05l.23-.41c.06,0,.09,0,.13.06l.1.06c.07-.06.09-.15.14-.22h0l.16.1s0,.08,0,.12l-.07.12.22.12c0,.06,0,.09,0,.13l-.06.1-.06.12-.06.1.18.1a0,0,0,0,0,0,0s0,0,0,0l-.33.57c0,.05.07.06.1.08l.11.06v0Q69.22,31.85,67.4,35s-.06,0-.08,0l-.15-.08h0l-.34.59c-.08,0-.13-.08-.21-.09s0,.08-.08.12l-.09.15-.07.13s-.08,0-.12-.05-.07,0-.13,0l-.12.2h0l0,0-.38-.22.24-.43c0-.06-.14-.07-.19-.14l.12-.2s0,0,0,0l-.21-.12.12-.2.11.07s.07,0,.13,0l.06-.11s.06-.07,0-.12l-.22-.12,2.36-4.09a0,0,0,0,0,0,0l-.16-.1a0,0,0,0,1,0,0l.22-.39h0l.17.1c.05,0,.06-.08.08-.12s.06-.06,0-.12l-.18-.11.06-.1s0-.08.07-.08l.08,0s.06.05.11.05l.87-1.51c.06,0,.09,0,.13.05s.07.06.12.06l.1-.17a0,0,0,0,1,0,0l-.39-.22h0c0,.05-.07.12-.12.18l-.12-.07s-.08,0-.1-.08a.41.41,0,0,0,.05-.09.14.14,0,0,0,0-.11l-1.27-.73c0-.06,0-.09.06-.13s0-.08.08-.1l.1.05s.07.06.11.06.07-.14.14-.18a1,1,0,0,0,.17.1h0l.07-.12,0-.08a12.17,12.17,0,0,0-1.07-.62l-.13.22-.12-.07s-.08,0-.1-.08a2.25,2.25,0,0,0,.12-.21c-.06-.06-.15-.07-.19-.13l.11-.19.18.1h0a2,2,0,0,1,.14-.22l.21.13h0L68,25l.6.34a0,0,0,0,0,0,0h0l.12-.2a.31.31,0,0,1,.14.07l.13.07.14.08.13.08s.08.06.14.06l.1-.17a0,0,0,0,0,0,0,5.9,5.9,0,0,0-.86-.49l-.11.18-.35-.2s0-.05-.09,0L68,25l-.42-.24s0,0,0,0h0l-.24.41-.12-.07a.22.22,0,0,0-.12,0l-.11.18-.1-.05s-.06-.06-.11-.05l-.07.13-.09.15a.42.42,0,0,1-.09.14l-.11-.07s-.07-.06-.12-.05c-1.11,1.89-3.62,6.26-3.74,6.5a.41.41,0,0,1,.11.07s.09,0,.1.08l-.46.8,0,0s0,0,0,0l.17.1h0l.47-.82,0,0h0l.22.13-.08.15-.08.13a.6.6,0,0,0-.08.16l.19.11-.2.35s0,0,0,.09l.1,0s.07.06.13.06l.1-.18c.05,0,.07,0,.11,0s.06,0,.1,0,.08-.14.14-.21l.11.06s.07.07.12,0a1.4,1.4,0,0,0,.1-.16h0l1.05.6c0,.08-.08.13-.1.21l.42.23s0-.06.07-.09,0-.07.07-.09l.2.12v0c0,.07-.08.12-.09.2l.19.11-.13.23-.1-.06s-.06,0-.11,0l-.06.09s0,.06,0,.1l.18.11-.25.43.12.07s.08,0,.1.09l-.11.2s0,0,0,0l.18.11-.36.61s0,.05.07.06l.14.09s0,0,0,0q-1.92,3.35-3.87,6.71a2.39,2.39,0,0,0-.22-.12h0l-.47.82h0l-.17-.09v0h0c.11-.21.23-.41.35-.62v0L60.74,43c-.05,0-.06.09-.09.13a.83.83,0,0,0-.07.13l-.08.13-.08.14-.08.13-.18-.1h0l0,0-.33.58-.12-.07a.26.26,0,0,0-.12,0l-.07.11s-.06.07,0,.12l.21.12-.35.62s-.06,0-.09,0l-.15-.08-.13.21a.14.14,0,0,1-.11,0s-.07,0-.09-.07l.11-.2v0h0L58,44.32v0l.1-.17S58,44.06,58,44l-.1-.06s0-.08.05-.12l.07-.12-.19-.11c0-.08.08-.13.1-.21l-.85-.49c-.06,0-.07.13-.13.18L56.7,43v0l0,0,.32-.55c0-.07-.13-.08-.19-.14S57,42.09,57,42s-.07-.06-.1-.08-.09,0-.12-.08l.1-.18s-.06,0-.09-.07l-.08,0s0-.06,0-.08q2.09-3.63,4.18-7.24l0-.05s.08,0,.12.05l.1.06.11.07.1.05.13-.22s0,0,0,0l0,0-.35-.2c0-.08.08-.13.09-.21s-.14-.08-.21-.13v0a0,0,0,0,1,0,0c.07-.13.14-.26.22-.39v0l-.17-.1c0-.06,0-.09.06-.13a.47.47,0,0,1,0-.1s0,0-.06-.06l-.14-.08v0l0,0,.21-.37c0-.07-.13-.08-.18-.13.1-.21,2.88-5,4.36-7.57.08,0,.13.08.2.09h0s0,0,0,0l.22-.39c.09,0,.15.09.24.12l.13-.22c.08,0,.13.08.21.1l.1-.18c.06,0,.09,0,.13.06l.1.05s0-.06.08-.1l.06-.11a1.24,1.24,0,0,1,.2.1c.06-.05.07-.14.13-.19l.21.12s.06-.07.09-.11l.06-.11.18.1h0a.41.41,0,0,0,0-.09s0-.06,0-.1l-.17-.1s0,0,0,0l-.11.18-.21-.13s0,0,0-.07q1.72-3,3.44-6l0,0c.06,0,.09,0,.13.06l.09.05h0l0,0,.33-.58h0c.07,0,.12.07.19.09s0-.07.07-.1a.75.75,0,0,0,.07-.12l-.18-.11c0-.05,0-.07,0-.11a.35.35,0,0,1,0-.08s-.07-.06-.1-.08l-.12-.07a1.55,1.55,0,0,1,.12-.22c0-.05-.06-.05-.09-.07s-.07,0-.09-.07l.1-.18c0-.05-.08-.05-.11-.08l-.1-.06s0-.06,0-.08l.21-.35a1,1,0,0,0-.19-.12.44.44,0,0,1,.08-.15s0-.09.07-.14l.09-.15-.22-.13v0l4.23-7.32h0l.2.11h0a0,0,0,0,1,0,0L76,7c.08,0,.13.08.21.09l.12-.2c.06,0,.09,0,.13,0s.07,0,.12,0l.11-.17c.08,0,.13.08.21.09L77,6.73c.06,0,.09,0,.13.06l.1,0s0,0,.07-.08l0-.1a.58.58,0,0,1,.11,0l.08,0c.06,0,.06-.07.09-.11s0-.08.08-.11l.4.24s.06-.07.08-.1l0-.08s0,0,.08,0l.35.2.13-.21h0l1.47.85s0,0,0,0l-.12.2s0,0,0,0h0l.56.33h0v0l-.1.17c0,.05.08.06.11.08a1.05,1.05,0,0,0,.11.07,2.53,2.53,0,0,1-.12.23.23.23,0,0,0,.1.07l.08,0v0s0,0,0,0-.14.26-.22.39v0l.4.24c0,.05,0,.07,0,.11a.56.56,0,0,0,0,.08s0,0,.07.06l.14.08v.05l-.22.38c.05.07.13.08.19.13l-.24.42c0,.05.07.05.11.08s.08,0,.11.08l-1.12,1.94c0,.05.06.06.09.08l.08.05s0,.06,0,.08l-2.65,4.61,0,.08a.19.19,0,0,1-.11-.05l-.08-.05h0l-.34.59h0l-.21-.12s-.06.07-.08.11l-.06.1-.07.11-.06.11-.18-.11s-.06.07-.09.11,0,.07-.05.1-.08,0-.12-.05L76,18.57c0-.06,0-.09.07-.14l.09-.15.08-.13c0-.07-.14-.08-.19-.14l.12-.21c0-.05-.07-.06-.11-.08L76,17.65a1.62,1.62,0,0,1,.1-.18v0h0l-.18-.1.12-.22s0,0,0,0L75.87,17s-.06-.06-.11-.05l-.12.21s0,0,0,0l.21.13-.1.17v0ZM79.77,10a.75.75,0,0,1-.07.12.26.26,0,0,1-.07.11L79.2,10l.07-.11s.06-.07,0-.13l-.41-.24c0-.07.09-.13.1-.2l-.39-.23h0v0l.23-.4h0v0l-.08-.05s-.06-.05-.11,0l-.1.17h0l-.38-.22h-.05L78,8.7a1.33,1.33,0,0,0-.12-.06s-.07-.07-.13-.05l-.1.18-.41-.24h0v0l.21-.36s0,0,0,0h0l.2.11s0,0,0,0l.22-.38v0l-.22-.12-.07.11s0,.09-.09.11l-.18-.11-.06.11s0,.07-.07.08l-.1-.06A.25.25,0,0,0,77,7.85l-.23.41s-.08,0-.11,0-.06-.05-.11,0-.15.26-.22.4,0,0,0,0l.09.05s.07,0,.08.07a.31.31,0,0,0,0,.1s-.06.07-.06.12L76.5,9s.07,0,.07.06l-.24.42L76,9.28h-.06l-3.36,5.82c0,.06.14.07.19.14l-.24.42a.41.41,0,0,1,.11.07s.09,0,.11.07a2.53,2.53,0,0,0-.12.23l.1.06s.06.05.1,0L73,15.7l.64.36a0,0,0,0,0,0,0h0l.13-.22.1.06S74,16,74,16l.1-.17h0l1.9,1.09s0,0,0,0h0l.12-.22-.11-.07s-.09,0-.11-.08l3.1-5.37h0l.1.06s.07.06.12.06l0-.05.57-1s0,0,0-.07L79.77,10a1.62,1.62,0,0,0,.1-.18s0,0,0,0l-.09-.05s-.06,0-.1,0l-.1.18v0Zm-16,25.78a.36.36,0,0,1,0,.09s0,.08-.07.09l-.18-.1c0-.08.08-.13.09-.2a0,0,0,0,1,0,0l-.6-.35s0,0,0,0,0,0,0,0a1.63,1.63,0,0,0,.11-.23l-.84-.48h0l-.07.11s-.06.07,0,.12l.1.06s.08,0,.11.08l-.1.17s0,0,0,0l.38.22h0v0a1.73,1.73,0,0,1-.13.21l-.15-.09-.13-.08a1,1,0,0,0-.15-.07c-1.31,2.24-3.52,6.09-3.61,6.26s.14.07.18.14l-.06.1a.26.26,0,0,0-.05.12l.21.13c0,.08-.09.13-.1.21l.61.34h0s.06-.13.13-.18l.36.22,0,0h0l.08-.14s0-.06.06-.07l.1.06s.07.06.12,0l2.25-3.88c.08,0,.13.09.2.1L64,36.25c-.05-.06-.13-.07-.18-.14l.1-.18ZM70,24.94c0,.08-.08.14-.1.21l.23.13.06-.1s0-.08.06-.09.12.07.18.09h0L72.3,22h0l.19.12h0l0,0,1.71-3v0a0,0,0,0,0,0,0,1.73,1.73,0,0,1-.21-.13l.09-.15.07-.13a.34.34,0,0,0,.07-.15,1,1,0,0,0-.17-.1h0l-.09.14s0,.07-.06.07l-.1-.06s-.08,0-.11-.08l.12-.21s0,0,0,0l-1.25-.72h0l-.11.19v0l.11.06s.08,0,.1.08l-.23.4h0c-.08,0-.14-.1-.23-.11l-3.36,5.81v0h0l1.05.61h0v0l0,.1s-.06.07-.06.13ZM78.46,7.83v0l.37.21,0,0h0l.12-.2a0,0,0,0,0,0,0l-.36-.21,0,0h0Zm-6.32,9.94a.44.44,0,0,1,.06-.1s0-.06,0-.11l-.39-.23h0a.41.41,0,0,1,0,.09s0,.06,0,.1Z"/><path d="M59.78,44.19l.18.11c0,.05,0,.08-.05.11a.67.67,0,0,1-.06.12c-.05,0-.07,0-.11-.05l-.1-.06Z"/><path d="M66.21,26.5l.22.13v0l-2.62,4.54c-.05,0-.08,0-.12-.05l-.1-.06v0Z"/><path d="M63.07,31.94l.38-.66s.08,0,.12.06l.1.05s0,.06,0,.09l-.33.58a.23.23,0,0,1-.12-.06Z"/><path d="M76.33,9.51l.18.1s0,.05,0,.07l-3,5.1,0,0s-.07,0-.1,0a.3.3,0,0,1-.1-.07Z"/><path d="M73,15.7l-.18-.11v0l.12-.21s.07,0,.1,0l.09,0v0Z"/></g></g></svg>