<svg xmlns="http://www.w3.org/2000/svg" viewBox="0 0 125.78 125.78"><defs><style>.cls-1{fill:#020100;}</style></defs><title>Recurso 11MANDALA</title><g id="Capa_2" data-name="Capa 2"><g id="Capa_1-2" data-name="Capa 1"><path class="cls-1" d="M32.1,116.6C36.65,99.51,45.66,96.44,52,96.66c6.92.24,4.57-18.37,11-21,0,0,18.63-3.82,15.75-.17C68.78,88.13,42.21,89.57,42.21,89.57a12.49,12.49,0,0,0-12.47,13.29C30.29,111.41,31.13,120.27,32.1,116.6Z"/><path class="cls-1" d="M63.08,124.8c-4.61-17.08,1.66-24.23,7.26-27.22,6.11-3.25-5.23-18.2-1-23.67,0,0,14.21-12.62,13.55-8C80.61,81.81,58.32,96.34,58.32,96.34a12.49,12.49,0,0,0-4.15,17.75C58.91,121.21,64.07,128.47,63.08,124.8Z"/><path class="cls-1" d="M94,116.41c-12.53-12.48-10.68-21.82-7.32-27.2,3.66-5.87-13.63-13.15-12.7-20,0,0,6-18,7.73-13.73,6,14.94-6.06,38.67-6.06,38.67a12.49,12.49,0,0,0,5.27,17.44C88.6,115.39,96.7,119.09,94,116.41Z"/><path class="cls-1" d="M116.6,93.68c-17.09-4.54-20.16-13.55-19.94-19.9.24-6.91-18.37-4.57-21-11,0,0-3.82-18.62-.17-15.75C88.13,57,89.57,83.58,89.57,83.58a12.5,12.5,0,0,0,13.29,12.47C111.41,95.5,120.27,94.66,116.6,93.68Z"/><path class="cls-1" d="M124.8,62.7c-17.08,4.61-24.23-1.66-27.22-7.26-3.25-6.11-18.2,5.23-23.67,1,0,0-12.62-14.21-8-13.55,15.92,2.3,30.45,24.59,30.45,24.59a12.5,12.5,0,0,0,17.75,4.15C121.21,66.87,128.47,61.71,124.8,62.7Z"/><path class="cls-1" d="M116.41,31.77c-12.48,12.54-21.82,10.68-27.2,7.32-5.87-3.66-13.15,13.63-20,12.7,0,0-18-6-13.73-7.72,14.94-6,38.67,6.06,38.67,6.06a12.49,12.49,0,0,0,17.44-5.28C115.39,37.18,119.09,29.08,116.41,31.77Z"/><path class="cls-1" d="M93.68,9.18c-4.54,17.1-13.55,20.16-19.9,19.94-6.91-.23-4.57,18.38-11,21,0,0-18.62,3.83-15.75.17C57,37.65,83.58,36.21,83.58,36.21A12.5,12.5,0,0,0,96.05,22.92C95.5,14.38,94.66,5.51,93.68,9.18Z"/><path class="cls-1" d="M62.7,1C67.31,18.06,61,25.22,55.44,28.2c-6.11,3.26,5.23,18.2,1,23.67,0,0-14.21,12.63-13.55,8C45.18,44,67.47,29.44,67.47,29.44A12.49,12.49,0,0,0,71.62,11.7C66.87,4.57,61.71-2.68,62.7,1Z"/><path class="cls-1" d="M31.77,9.37c12.54,12.49,10.68,21.82,7.32,27.2-3.66,5.88,13.63,13.15,12.7,20,0,0-6,18-7.72,13.72-6-14.93,6.06-38.66,6.06-38.66a12.5,12.5,0,0,0-5.28-17.45C37.18,10.4,29.08,6.69,31.77,9.37Z"/><path class="cls-1" d="M9.18,32.1C26.28,36.65,29.34,45.66,29.12,52c-.23,6.92,18.38,4.57,21,11,0,0,3.83,18.63.17,15.75C37.65,68.78,36.21,42.21,36.21,42.21A12.48,12.48,0,0,0,22.92,29.74C14.38,30.29,5.51,31.13,9.18,32.1Z"/><path class="cls-1" d="M1,63.08c17.08-4.61,24.24,1.66,27.22,7.26,3.26,6.11,18.2-5.23,23.67-1,0,0,12.63,14.21,8,13.55C44,80.61,29.44,58.32,29.44,58.32A12.48,12.48,0,0,0,11.7,54.17C4.57,58.91-2.68,64.07,1,63.08Z"/><path class="cls-1" d="M9.37,94c12.49-12.53,21.82-10.68,27.2-7.32,5.88,3.66,13.15-13.63,20-12.7,0,0,18,6,13.72,7.73-14.93,6-38.66-6.06-38.66-6.06a12.5,12.5,0,0,0-17.45,5.27C10.4,88.6,6.69,96.7,9.37,94Z"/></g></g></svg>