<svg xmlns="http://www.w3.org/2000/svg" viewBox="0 0 118.17 118.17"><title>Recurso 79MANDALA</title><g id="Capa_2" data-name="Capa 2"><g id="Capa_1-2" data-name="Capa 1"><path d="M62.52,67.43l5.09,6.86a12,12,0,0,0,13.23,4.29L105,71a12,12,0,0,1,13,4.36l-5.08-6.86a12,12,0,0,0-13.23-4.3L75.51,71.79A12,12,0,0,1,62.52,67.43Z"/><path d="M66.23,64.59,74.07,68a12,12,0,0,0,13.6-2.89l17.07-18.67a12,12,0,0,1,13.43-2.71l-7.83-3.4a12,12,0,0,0-13.6,2.89L79.66,61.87A12,12,0,0,1,66.23,64.59Z"/><path d="M68,60.28l8.48-1A12,12,0,0,0,86.85,50L92.3,25.3a12,12,0,0,1,10.27-9.07l-8.48,1a12,12,0,0,0-10.34,9.31L78.3,51.21A12,12,0,0,1,68,60.28Z"/><path d="M67.43,55.65l6.86-5.08a12,12,0,0,0,4.29-13.23L71,13.22a12,12,0,0,1,4.36-13L68.46,5.31a12,12,0,0,0-4.3,13.23l7.63,24.12A12,12,0,0,1,67.43,55.65Z"/><path d="M64.59,51.94,68,44.11A12,12,0,0,0,65.1,30.5L46.43,13.43A12,12,0,0,1,43.72,0l-3.4,7.83a12,12,0,0,0,2.89,13.61L61.87,38.51A12,12,0,0,1,64.59,51.94Z"/><path d="M60.28,50.14l-1-8.48A12,12,0,0,0,50,31.33L25.3,25.87A12,12,0,0,1,16.23,15.6l1,8.48a12,12,0,0,0,9.31,10.34l24.7,5.45A12,12,0,0,1,60.28,50.14Z"/><path d="M55.65,50.74l-5.08-6.86a12,12,0,0,0-13.23-4.29L13.22,47.22a12,12,0,0,1-13-4.37l5.08,6.87A12,12,0,0,0,18.54,54l24.12-7.63A12,12,0,0,1,55.65,50.74Z"/><path d="M51.94,53.58l-7.83-3.4a12,12,0,0,0-13.61,2.9L13.43,71.74A12,12,0,0,1,0,74.46l7.83,3.4A12,12,0,0,0,21.44,75L38.51,56.3A12,12,0,0,1,51.94,53.58Z"/><path d="M50.14,57.89l-8.48,1a12,12,0,0,0-10.33,9.31l-5.46,24.7a12,12,0,0,1-10.27,9.07l8.48-1a12,12,0,0,0,10.34-9.31L39.87,67A12,12,0,0,1,50.14,57.89Z"/><path d="M50.74,62.52l-6.86,5.09a12,12,0,0,0-4.29,13.23L47.22,105a12,12,0,0,1-4.37,13l6.87-5.08A12,12,0,0,0,54,99.63L46.38,75.51A12,12,0,0,1,50.74,62.52Z"/><path d="M53.58,66.23l-3.4,7.84a12,12,0,0,0,2.9,13.6l18.66,17.07a12,12,0,0,1,2.72,13.43l3.4-7.83A12,12,0,0,0,75,96.74L56.3,79.66A12,12,0,0,1,53.58,66.23Z"/><path d="M57.89,68l1,8.48a12,12,0,0,0,9.31,10.34l24.7,5.45a12,12,0,0,1,9.07,10.27l-1-8.48a12,12,0,0,0-9.31-10.34L67,78.3A12,12,0,0,1,57.89,68Z"/></g></g></svg>