<svg xmlns="http://www.w3.org/2000/svg" viewBox="0 0 163.85 163.85"><title>Recurso 37MANDALA</title><g id="Capa_2" data-name="Capa 2"><g id="Capa_1-2" data-name="Capa 1"><path d="M77.9,111.51c35.44,0,45.92-37.89,45.92-34.1s-10.48,47.81-45.92,47.81-37.05,35-37.05,31.22S42.45,111.51,77.9,111.51Z"/><path d="M100,105.69c25.07-25.06,5.69-59.26,8.36-56.58s26.4,41.21,1.34,66.28-1.44,51-4.12,48.27S74.93,130.75,100,105.69Z"/><path d="M111.51,86C111.51,50.51,73.62,40,77.41,40S125.22,50.51,125.22,86s35,37.05,31.22,37.05S111.51,121.4,111.51,86Z"/><path d="M105.69,63.86C80.63,38.79,46.43,58.17,49.11,55.5s41.21-26.4,66.28-1.34,51,1.44,48.27,4.12S130.75,88.92,105.69,63.86Z"/><path d="M86,52.34C50.51,52.34,40,90.23,40,86.44S50.51,38.63,86,38.63,123,3.62,123,7.41,121.4,52.34,86,52.34Z"/><path d="M63.86,58.16c-25.07,25.06-5.69,59.26-8.36,56.58S29.1,73.53,54.16,48.46,55.6-2.49,58.28.19,88.92,33.1,63.86,58.16Z"/><path d="M52.34,77.9c0,35.44,37.89,45.92,34.1,45.92S38.63,113.34,38.63,77.9,3.62,40.85,7.41,40.85,52.34,42.45,52.34,77.9Z"/><path d="M58.16,100c25.06,25.07,59.26,5.69,56.58,8.36s-41.21,26.4-66.28,1.34S-2.49,108.25.19,105.57,33.1,74.93,58.16,100Z"/></g></g></svg>