<svg xmlns="http://www.w3.org/2000/svg" viewBox="0 0 97.01 97.01"><title>Recurso 36MANDALA</title><g id="Capa_2" data-name="Capa 2"><g id="Capa_1-2" data-name="Capa 1"><path d="M40.18,89.22c-8,0-10.4,8.59-10.4,7.73s2.38-10.83,10.4-10.83,8.4-7.93,8.4-7.07S48.21,89.22,40.18,89.22Z"/><path d="M56.92,89.23c8,0,10.43,8.58,10.43,7.72S65,86.12,56.92,86.12s-8.41-7.93-8.41-7.07S48.87,89.23,56.92,89.23Z"/><path d="M71.41,83.18C65.74,88.86,70.13,96.61,69.52,96s-6-9.34-.3-15,.32-11.54.93-10.94S77.09,77.51,71.41,83.18Z"/><path d="M83.25,71.35C89,65.66,96.7,70,96.09,69.44s-9.34-6-15-.28-11.56.34-11,.94S77.56,77.05,83.25,71.35Z"/><path d="M89.22,56.83c0,8,8.59,10.4,7.73,10.4s-10.83-2.37-10.83-10.4-7.93-8.39-7.07-8.39S89.22,48.8,89.22,56.83Z"/><path d="M89.23,40.09c0-8.05,8.58-10.43,7.72-10.43S86.12,32,86.12,40.09s-7.93,8.42-7.07,8.42S89.23,48.14,89.23,40.09Z"/><path d="M83.18,25.6c5.68,5.68,13.43,1.29,12.82,1.89s-9.34,6-15,.31-11.54-.33-10.94-.94S77.51,19.92,83.18,25.6Z"/><path d="M71.35,13.76C65.66,8.07,70,.32,69.44.92s-6,9.34-.28,15,.34,11.56.94,11S77.05,19.45,71.35,13.76Z"/><path d="M56.83,7.79c8,0,10.4-8.58,10.4-7.72S64.86,10.9,56.83,10.9,48.44,18.83,48.44,18,48.8,7.79,56.83,7.79Z"/><path d="M40.09,7.78C32,7.78,29.66-.8,29.66.06S32,10.89,40.09,10.89s8.42,7.93,8.42,7.07S48.14,7.78,40.09,7.78Z"/><path d="M25.6,13.83C31.28,8.15,26.89.41,27.49,1s6,9.34.31,15S27.47,27.57,26.86,27,19.92,19.51,25.6,13.83Z"/><path d="M13.76,25.66C8.07,31.36.32,27,.92,27.58s9.34,6,15,.28,11.56-.34,11-.95S19.45,20,13.76,25.66Z"/><path d="M7.79,40.18c0-8-8.58-10.4-7.72-10.4S10.9,32.16,10.9,40.18s7.93,8.4,7.07,8.4S7.79,48.21,7.79,40.18Z"/><path d="M7.78,56.92C7.78,65-.8,67.35.06,67.35S10.89,65,10.89,56.92s7.93-8.41,7.07-8.41S7.78,48.87,7.78,56.92Z"/><path d="M13.83,71.41C8.15,65.74.41,70.13,1,69.52s9.34-6,15-.3,11.54.32,10.93.93S19.51,77.09,13.83,71.41Z"/><path d="M25.66,83.25C31.36,89,27,96.7,27.58,96.09s6-9.34.28-15-.34-11.56-.95-11S20,77.56,25.66,83.25Z"/></g></g></svg>