<svg xmlns="http://www.w3.org/2000/svg" viewBox="0 0 117.76 117.76"><title>Recurso 76MANDALA</title><g id="Capa_2" data-name="Capa 2"><g id="Capa_1-2" data-name="Capa 1"><polygon points="58.87 19.55 65.12 17.47 73.75 0 62.51 0 43.87 37.72 49.89 37.72 55.11 37.72 55.18 37.72 49 39.53 40.23 57.27 51.48 57.27 70.11 19.55 64.09 19.55 58.87 19.55"/><polygon points="31.06 31.08 34.01 25.19 27.76 6.73 19.81 14.68 33.3 54.53 37.56 50.27 41.25 46.58 41.3 46.53 38.21 52.19 44.55 70.93 52.51 62.98 39.01 23.13 34.75 27.39 31.06 31.08"/><polygon points="19.55 58.89 17.47 52.64 0 44.01 0 55.26 37.72 73.89 37.72 67.87 37.72 62.65 37.72 62.58 39.53 68.76 57.27 77.53 57.27 66.28 19.55 47.65 19.55 53.67 19.55 58.89"/><polygon points="31.08 86.7 25.19 83.75 6.73 90 14.68 97.95 54.53 84.46 50.27 80.2 46.58 76.51 46.53 76.46 52.19 79.55 70.93 73.21 62.98 65.25 23.13 78.75 27.39 83.01 31.08 86.7"/><polygon points="58.89 98.21 52.64 100.29 44.01 117.76 55.26 117.76 73.89 80.04 67.87 80.04 62.65 80.04 62.58 80.04 68.76 78.23 77.53 60.49 66.28 60.49 47.65 98.21 53.67 98.21 58.89 98.21"/><polygon points="88.98 88.96 85.79 95.33 92.55 115.3 101.15 106.7 86.56 63.59 81.95 68.19 77.95 72.19 77.9 72.24 81.25 66.12 74.38 45.85 65.78 54.45 80.38 97.56 84.98 92.96 88.98 88.96"/><polygon points="98.21 58.87 100.29 65.12 117.76 73.75 117.76 62.51 80.04 43.87 80.04 49.89 80.04 55.11 80.04 55.18 78.23 49 60.49 40.23 60.49 51.48 98.21 70.11 98.21 64.09 98.21 58.87"/><polygon points="86.68 31.06 92.57 34.01 111.03 27.76 103.08 19.81 63.23 33.3 67.49 37.56 71.18 41.25 71.22 41.3 65.58 38.21 46.83 44.55 54.78 52.51 94.63 39.01 90.38 34.75 86.68 31.06"/></g></g></svg>