<svg xmlns="http://www.w3.org/2000/svg" viewBox="0 0 157.2 104.02"><title>Recurso 50GRAPHS</title><g id="Capa_2" data-name="Capa 2"><g id="Capa_1-2" data-name="Capa 1"><path d="M14.3,81.44l.29.29H60.44c-.19-.43-.33-.82-.52-1.18-.81-1.51-1.63-3-2.44-4.54-.92-1.71-1.82-3.43-2.75-5.14S53,67.62,52.08,66c-.39-.72-.74-1.45-1.12-2.16-.26-.49-.56-1-.81-1.45a6.43,6.43,0,0,0-.8-1.45,6.55,6.55,0,0,1-.54-1.13c-.85-1.57-1.74-3.12-2.58-4.69-1-1.88-2-3.81-3-5.65-.38-.65-.66-1.34-1-2s-.69-1.32-1-2c-.45-.82-.92-1.64-1.37-2.45l-1.47-.27-.14.39H34.47V39.91l.25-.26h1.33V37.37H34.56c.15-.35.25-.61.38-.86a11.19,11.19,0,0,0,1.11-2.25,11,11,0,0,0,0-2.51V26.49H34.25l0-.85H36V8.45H34.25V7.61h4.37l.29.81H37.16V25.57h1.09l.66.43-.39.45H37.14v7.44a3.23,3.23,0,0,0,.5,1.58,4.86,4.86,0,0,1,.79,1.88,2.69,2.69,0,0,0,.66,1.38A6.21,6.21,0,0,1,40,40.35a4.46,4.46,0,0,0,.94,1.32,5.5,5.5,0,0,1,1.24.22c.38.16.77,0,1.17.22a5.09,5.09,0,0,0,1.47.23,12,12,0,0,1,2.13.44,1.79,1.79,0,0,0,.52,0,7.25,7.25,0,0,1,2.56.39,11.25,11.25,0,0,0,1.48.2,17,17,0,0,1,2.12.45,1.47,1.47,0,0,0,.42,0,10.33,10.33,0,0,1,3,.4c.58.15,1.23.06,1.79.25.91.29,1.88.26,2.79.58a4.85,4.85,0,0,0,1.48,0v-.81h1.47V31.94H63.41l-.82-.64.39-.43h4.24l.35.36L67,31.9H65.68V44.24h1v.92c.66-.26,1.22-.5,1.79-.69.93-.3,1.87-.56,2.8-.83,1.19-.33,2.35-.74,3.54-1.07s2.36-.7,3.54-1.08a4.41,4.41,0,0,0,1.16-.3,2.77,2.77,0,0,1,1.16-.47c.48,0,.88-.28,1.33-.35,1.46-.22,2.79-.88,4.23-1.19a22.46,22.46,0,0,0,3.3-1.11c.24-.1.63-.34.69-.28.32.33.52-.1.79,0s.48-.17.78-.28v-2h1.46a3.25,3.25,0,0,1-.16-.7q0-5.44,0-10.89a5.55,5.55,0,0,1,.17-.94c-.45-.57-1.17-.14-1.77-.31-.22-.33,0-.56.21-.79h4.13l.26.78H94.24c-.17.89-.22,9.83-.08,12.79H95l.34.34v1.94c.3.21.63.44.95.68,1.51,1.11,3.14,2,4.66,3.14s3.15,2.07,4.66,3.2c1,.72,2,1.34,3,2l3.93,2.65c1.23.81,2.49,1.59,3.7,2.42s2.46,1.52,3.63,2.4a1.9,1.9,0,0,0,1.75.49l.26-.25V40.32h-1.67c-.46-.52-.46-.52-.12-1.06h4l.53.48-.53.54h-1.31V54.45c.2.43.61.21,1,.32V56c.3,0,.57,0,.83,0,1.93,0,3.84.38,5.78.22a9.43,9.43,0,0,0,3.26.19,15,15,0,0,0,2.12.24,6.19,6.19,0,0,1,2.19,0,13.13,13.13,0,0,0,3.06.16c1.13,0,2.23.31,3.37.24s2.31,0,3.46,0h.86V56h1.68V45.35h-1.52l-.51-.63.68-.45h3.76c.41.46.41.46.08,1h-1.57V56h1v3.77h-3.23l-.27-.28v-1h-.94c-1.61,0-3.22,0-4.82,0-.76,0-1.45-.32-2.22-.24a6.19,6.19,0,0,1-2.19,0,17.86,17.86,0,0,0-3.17-.18c-.71-.06-1.41-.17-2.11-.2a12.26,12.26,0,0,1-2.19,0c-1.21-.29-2.41,0-3.59-.2a21,21,0,0,0-3.27-.19h-.43l0,.83h-1v.79q0,8.26,0,16.55a10.4,10.4,0,0,0,.15,1.25,12.35,12.35,0,0,1,2.73.48.94.94,0,0,0,.41,0,10.51,10.51,0,0,1,3.39.41,4.89,4.89,0,0,0,.94,0c.29,0,.59.23.85.18.45-.07.77.24,1.18.24s.83-.14,1.17.2c.61-.07,1.21.2,1.8.18,1,0,2,.24,3,.25.35,0,.67.24,1.06.22a5.12,5.12,0,0,1,1.07.19c.36.05.76-.14,1.06.21.63-.14,1.19.19,1.8.22a3.9,3.9,0,0,1,1.72.15c.47.23,1,0,1.58.22a9.26,9.26,0,0,0,2,.25c.5.07,1,.17,1.43.25l.33-.33V63.34h-1.52l-.58-.63.29-.41h4.28c.37.48.37.48,0,1h-1.54V80.17l.84,1.58c1.25,0,2.47,0,3.69,0a11.77,11.77,0,0,1,1.28.16v.83l-.63.35.12.12h-1.26c-.66,0-1.33,0-2,0s-1.19.17-1.83.27c-.18.76.22,1.66-.34,2.43h-.84c-.58-.73-.2-1.62-.36-2.45-.72-.09-1.45-.21-2.19-.25s-1.53,0-2.3,0H123.1c-.25.87.26,1.87-.53,2.66a.78.78,0,0,1-1-.26v-2.4H105.64a4.18,4.18,0,0,0-1.39.2c-.76.26-1.58.39-2.35.65a23.26,23.26,0,0,1-2.35.64c-1.2.28-2.35.73-3.52,1.1-.34.11-.68.2-1.09.31l.67,1.34a12.4,12.4,0,0,1-3.77.08l.21-.9c-.61,0-1.14.09-1.66.15s-.92.15-1.38.2a8.25,8.25,0,0,0-1.39.17,6.54,6.54,0,0,1-1.88,0,20.93,20.93,0,0,1-2.74.21c-.45.35-1,.15-1.48.21l-1.38.21c-.43,0-.89-.11-1.28.2,0,0-.14,0-.21,0a19,19,0,0,0-2.73.23,20,20,0,0,1-3.27.19c-.43,0-.85.14-1.28.21s-.89-.16-1.28.2c-.06,0-.2,0-.31,0-1,.07-1.9.13-2.84.22a1.17,1.17,0,0,0-.43.22l.57,1.13-.28.3H63.38l-.29-.34,1-2.07-2.78-5.08H37.17c0,.33,0,.7,0,1.07v1c-.24.27-.42.64-1,.55l-.48-.74V83.26H14.34V98.58a1.63,1.63,0,0,1-1.35.57c-.48,0-1,0-1.46,0A11,11,0,0,1,10.42,99l-.23-.55.2-.72h2.4V83.26c-.8-.15-1.65.17-2.41-.3l-.3-.67.68-.54h2.08V68.47c0-.29-.13-.63.21-.86l-.32-.3H10.67c-.26-.27-.66-.44-.54-1l.74-.49h1.94V51.42H10.45l-.35-1c.74-.86,1.77-.41,2.7-.58V35.74l-2.33-.24-.38-.68a2.43,2.43,0,0,0,.21-.29,1.73,1.73,0,0,0,.07-.32h2.35L13,34l.06-.07c0-.05-.14-.1-.14-.15,0-4.63,0-9.26,0-13.92-.86-.21-1.72.19-2.53-.39l-.26-.49.3-.65h2.43V4.86A10,10,0,0,1,13,3.79a1.73,1.73,0,0,0-.53-.17c-.66,0-1.33,0-2,0L10.11,3c.13-.48.61-.58,1-.85h2.49l.72.77Zm22.82-43,0,0L37,38.2l-.06.07c.06,0,.11.09.22,0v1.42l.68-.07A5,5,0,0,0,37.12,38.41ZM64.54,85.52h-.19l.08.41.14,0c0-.13,0-.27-.23-.3V83.27H63.07A11.72,11.72,0,0,0,64.54,85.52Zm21.56-45a11.2,11.2,0,0,1-2,.7c-1.44.51-3,.76-4.35,1.38a21,21,0,0,1-2.36.63c-.4.13-.8.26-1.18.42-.67.28-1.39.35-2.07.58-1.1.37-2.19.8-3.32,1.07a26.63,26.63,0,0,0-4.19,1.37v1.11H63.12c0-.79,0-.79-.28-1.16a12,12,0,0,1-2.43-.28c-1.23-.38-2.53-.39-3.76-.78a10.9,10.9,0,0,0-2.31-.24c-.27,0-.61.06-.8-.08s-.63,0-.89-.14a2.58,2.58,0,0,0-.86-.21c-.95-.12-1.9-.28-2.85-.44-.19,0-.38-.19-.55-.16-1.28.16-2.45-.47-3.7-.43-.5-.43-1.17-.08-1.73-.39a4.7,4.7,0,0,0-1.51-.23,2.25,2.25,0,0,1,.17.17c.84,1.65,1.77,3.25,2.63,4.88,1.08,2,2.21,4,3.29,6.07.21.4.35.84.6,1.22.72,1.09,1.22,2.29,1.91,3.4.16.27.13.68.32.91a23.65,23.65,0,0,1,1.74,3.06c.85,1.41,1.62,2.89,2.4,4.34,1,1.78,1.91,3.54,2.88,5.3a7.89,7.89,0,0,0,1.1,2,.78.78,0,0,1,.21.53,2.08,2.08,0,0,0,.49,1.15c.52.7.75,1.54,1.22,2.23a25.74,25.74,0,0,1,1.25,2.31,9.8,9.8,0,0,0,.65,1h2.23V67.07H62.77c-.21-.39,0-.61.25-.82h4.21l.35.49-.44.35H65.67V81.73H93l.25-.27a6.06,6.06,0,0,1-.17-.92c0-3.11,0-6.21,0-9.32a4.85,4.85,0,0,1,.14-.77h-1.5a1.34,1.34,0,0,1-.31-.34,1.07,1.07,0,0,1,0-.4l.28-.28h4c.34.54.34.54-.12,1.06H94.16V81.75h10.59a1,1,0,0,0,.4,0,24.22,24.22,0,0,1,2.91-.84,8.52,8.52,0,0,0,1.4-.38c.43-.18.9-.25,1.28-.45a3.92,3.92,0,0,1,1.26-.33,23.42,23.42,0,0,1,2.55-.68c.55-.5,1.31-.34,2-.6.83-.35,1.74-.51,2.59-.84a14.26,14.26,0,0,1,2.3-.53L122,76V58.27h-1.68V57.06l-.43-.36.17-.63c-1.15-.81-2.39-1.54-3.58-2.37s-2.45-1.53-3.61-2.39-2.47-1.52-3.61-2.43-2.43-1.57-3.61-2.42-2.49-1.48-3.6-2.4-2.47-1.54-3.6-2.48a34,34,0,0,0-3.71-2.34c-1-.14-2.11.22-3.18-.22a.34.34,0,0,0-.2,0c-.27.11-.58.38-.79.32s-.57.12-.86.12-.53.23-.8.3A10.18,10.18,0,0,1,86.1,40.5Zm6.74,42.74h-27a13.46,13.46,0,0,1-.19,2.54,7.07,7.07,0,0,0,0,1.72.77.77,0,0,0,1,.25,2.52,2.52,0,0,1,.47-.13l2.73-.21c.07,0,.17,0,.21,0,.39-.32.85-.16,1.28-.21s.84-.17,1.27-.2a16.56,16.56,0,0,0,3.06-.19c.56-.16,1.19,0,1.79-.21s1.26,0,1.9-.21,1.26,0,1.9-.21a12,12,0,0,1,1.9-.2,22.23,22.23,0,0,1,4-.25c.17,0,.41.08.51,0,.4-.32.86-.14,1.28-.2a6.39,6.39,0,0,1,1.28-.19c.89.08,1.72-.35,2.62-.21Zm17.63-1.64,0,.15h37.14s.05,0,.07-.07,0,0,0-.14c-.37,0-.82.13-1.1,0s-.59-.11-.88-.17a5.19,5.19,0,0,0-.85-.19,2.77,2.77,0,0,0-.77.18c-.09,0-.2-.17-.32-.19-.43,0-.88.1-1.27-.21-.59.15-1.12-.2-1.69-.22s-1.2-.13-1.8-.2c-.14,0-.33,0-.4,0-.36-.35-.85,0-1.17-.21a2.36,2.36,0,0,0-1.19-.18c-.35,0-.74.1-1,0a7.76,7.76,0,0,0-1.39-.2,4.73,4.73,0,0,0-1.49-.19c-.07,0-.17,0-.2,0-.34-.39-.83,0-1.17-.22a2.55,2.55,0,0,0-1.18-.19c-.13,0-.34,0-.4,0-.25-.3-.58-.13-.87-.18a4.69,4.69,0,0,0-1-.2,12.13,12.13,0,0,1-3.71-.45l.45,1h-4.07l.24-.6a3.52,3.52,0,0,0-1,.09,13.74,13.74,0,0,1-2,.71,14.3,14.3,0,0,1-2,.52,6,6,0,0,0-1.67.48,9.85,9.85,0,0,1-2,.54A8.82,8.82,0,0,0,110.47,81.6Zm-16.1,1.67v1.41c1.9-.16,3.55-1.19,5.41-1.41ZM38.22,40.12v1.21l.58,0Z"/><path d="M13.09,99.2H13c-.23,0-.46,0-.68,0h-.79a7,7,0,0,1-.8-.12l-.31,0s0,0,0,0l-.23-.55s0,0,0,0l.2-.73s0,0,.05,0h2.35V83.3a4.83,4.83,0,0,0-.85,0A2.59,2.59,0,0,1,10.36,83l0,0-.3-.67a0,0,0,0,1,0-.06l.67-.55h2.07V78.36c0-3.24,0-6.59,0-9.89a1.28,1.28,0,0,0,0-.19.67.67,0,0,1,.19-.67l-.26-.25h-2a0,0,0,0,1,0,0l-.18-.16a.81.81,0,0,1-.37-.87s0,0,0,0l.74-.5h1.92V51.48H10.45a0,0,0,0,1,0,0l-.35-1a.07.07,0,0,1,0,0,2,2,0,0,1,1.83-.57,4.94,4.94,0,0,0,.86,0v-14l-2.28-.23,0,0L10,34.84a0,0,0,0,1,0-.05l.06-.08a1.49,1.49,0,0,0,.15-.2.48.48,0,0,0,.05-.18s0-.08,0-.13a.07.07,0,0,1,0,0H12.7l.26-.27h0l0,0s-.09-.08-.09-.14c0-4.37,0-8.83,0-13.15v-.73a3.66,3.66,0,0,0-.93-.05,2.36,2.36,0,0,1-1.57-.33s0,0,0,0l-.26-.5a0,0,0,0,1,0,0l.29-.65a.05.05,0,0,1,.05,0h2.38V14.66c0-3.27,0-6.53,0-9.8a5.88,5.88,0,0,1,.06-.68c0-.11,0-.23,0-.36l-.07,0a1.24,1.24,0,0,0-.4-.11c-.48,0-1,0-1.43,0h-.56a.05.05,0,0,1,0,0L10.06,3V3a1.13,1.13,0,0,1,.67-.68l.33-.2h2.52a.05.05,0,0,1,0,0l.72.77a.05.05,0,0,1,0,0V81.42l.25.25H60.36l-.14-.33a7.6,7.6,0,0,0-.35-.76c-.48-.91-1-1.83-1.45-2.72l-1-1.82-1.11-2.1-1.63-3c-.45-.84-.92-1.68-1.37-2.5L52,66c-.21-.38-.41-.78-.6-1.16l-.51-1-.35-.61c-.16-.27-.32-.55-.46-.83L50,62.1A5.1,5.1,0,0,0,49.31,61a2.31,2.31,0,0,1-.35-.68,4.58,4.58,0,0,0-.2-.46L47.6,57.72c-.47-.84-1-1.71-1.42-2.58-.36-.66-.71-1.34-1.06-2-.63-1.2-1.28-2.45-2-3.65-.19-.32-.36-.67-.52-1s-.32-.66-.51-1-.42-.77-.61-1.16-.28-.55-.43-.82c-.31-.58-.64-1.16-1-1.72-.13-.24-.26-.48-.4-.71l-1.4-.26-.12.35a.07.07,0,0,1,0,0H34.47a.06.06,0,0,1-.06-.06V39.91l0,0,.26-.25,0,0H36V37.43H34.56a.05.05,0,0,1-.05,0s0,0,0,0l.14-.33c.08-.2.16-.37.24-.53s.26-.48.39-.71A5.83,5.83,0,0,0,36,34.24a6.07,6.07,0,0,0,.07-1.71q0-.39,0-.78V26.54H34.25a.06.06,0,0,1-.06-.05l0-.85a.06.06,0,0,1,0,0H36V8.5H34.25a0,0,0,0,1,0-.05V7.61a.05.05,0,0,1,0-.05h4.37a.07.07,0,0,1,.05,0l.29.8a0,0,0,0,1,0,0l-.05,0h-1.7v17h1.07l.66.42a.05.05,0,0,1,0,0s0,0,0,0l-.39.45,0,0H37.19v7.39a3.22,3.22,0,0,0,.49,1.55l.19.33a3.94,3.94,0,0,1,.61,1.57,2.55,2.55,0,0,0,.65,1.36A5.63,5.63,0,0,1,40,40.26l0,.07A4.22,4.22,0,0,0,41,41.62l.4.05a2.72,2.72,0,0,1,.83.17,1.54,1.54,0,0,0,.52.09,1.62,1.62,0,0,1,.66.13,2.38,2.38,0,0,0,1,.18l.48,0a11.75,11.75,0,0,1,2.14.44.81.81,0,0,0,.35,0h.15a6.94,6.94,0,0,1,2.58.39,3.2,3.2,0,0,0,.83.13,5,5,0,0,1,.65.07l.66.12a8.42,8.42,0,0,1,1.47.33.65.65,0,0,0,.28,0h.12a10.49,10.49,0,0,1,3,.41,4.71,4.71,0,0,0,.84.11,3.83,3.83,0,0,1,.95.14,10.11,10.11,0,0,0,1.33.27,7.61,7.61,0,0,1,1.46.31,2.58,2.58,0,0,0,1,0A3.15,3.15,0,0,1,63,45v-.76a0,0,0,0,1,0-.05H64.5V32H63.38l-.82-.64s0,0,0,0a.05.05,0,0,1,0,0l.38-.44,0,0h4.24l0,0,.35.37a0,0,0,0,1,0,.07l-.56.67H65.73V44.19h.94a.06.06,0,0,1,.06.05v.84l.53-.21c.41-.17.8-.32,1.19-.45.92-.29,1.85-.56,2.8-.83.57-.16,1.15-.34,1.71-.52s1.21-.38,1.83-.55c1.08-.3,2.16-.64,3.21-1l.32-.11.45-.09a1.76,1.76,0,0,0,.71-.2,2.64,2.64,0,0,1,1.18-.48,2.74,2.74,0,0,0,.71-.18,3.25,3.25,0,0,1,.61-.17,14.41,14.41,0,0,0,2.36-.64,14.88,14.88,0,0,1,1.87-.55A21.16,21.16,0,0,0,89.44,38l.06,0,.27-.13c.27-.13.41-.2.48-.13s.28.1.44,0a.47.47,0,0,1,.32-.1.86.86,0,0,0,.47-.14l.25-.12V35.49a0,0,0,0,1,0-.05h1.39a1.94,1.94,0,0,1,0-.2,1.5,1.5,0,0,1-.09-.45c0-4,0-7.52,0-10.89a2.28,2.28,0,0,1,.1-.61c0-.1.05-.2.07-.32a1.08,1.08,0,0,0-1-.25,1.8,1.8,0,0,1-.73,0l0,0c-.25-.37,0-.64.23-.86h4.16a.05.05,0,0,1,.05,0l.26.78s0,0,0,.05l0,0h-1.8c-.15,1.08-.2,9.73-.07,12.68H95l0,0,.34.34s0,0,0,0v1.91l.26.18.67.48c.8.59,1.65,1.14,2.47,1.67s1.48,1,2.19,1.48,1.41,1,2.11,1.43,1.72,1.15,2.55,1.77c.63.46,1.3.89,2,1.31.36.22.73.46,1.09.7l1.66,1.12,2.27,1.52,1.47,1c.74.47,1.5,1,2.23,1.46.47.33,1,.64,1.44.94.73.46,1.48.94,2.19,1.47a1.92,1.92,0,0,0,1.7.49l.23-.23v-14h-1.62l0,0c-.48-.55-.48-.57-.12-1.13,0,0,0,0,0,0h4l.53.48a.08.08,0,0,1,0,0l0,0-.52.53,0,0h-1.26V54.44c.12.24.31.24.55.24a1.26,1.26,0,0,1,.38,0,.05.05,0,0,1,0,.05V55.9h.24a3.25,3.25,0,0,0,.54,0,25.26,25.26,0,0,1,2.62.12,18.37,18.37,0,0,0,3.15.09h0a5.58,5.58,0,0,0,2.29.21c.32,0,.64,0,1,0a5.27,5.27,0,0,1,.9.13,3.71,3.71,0,0,0,1.2.11,6.32,6.32,0,0,1,2.21,0,8.08,8.08,0,0,0,2.18.16h.87c.47,0,.94.07,1.39.12a10.86,10.86,0,0,0,2,.12c.8,0,1.62,0,2.41,0h1.86V56a0,0,0,0,1,0-.05h1.63V45.4h-1.47l0,0-.51-.63s0,0,0,0l0,0,.68-.45h3.83c.43.48.43.51.08,1.07a.05.05,0,0,1,0,0h-1.52V55.92h.91a0,0,0,0,1,.05,0v3.77a0,0,0,0,1-.05,0h-3.23l0,0-.28-.27s0,0,0,0v-.91h-2.3c-1.12,0-2.27,0-3.41,0a4.83,4.83,0,0,1-1-.12,3.71,3.71,0,0,0-1.2-.11,6.5,6.5,0,0,1-2.2,0,8,8,0,0,0-2-.16,11.47,11.47,0,0,1-1.17,0c-.29,0-.58-.05-.86-.09s-.84-.09-1.26-.11a7.48,7.48,0,0,0-.82,0,4.89,4.89,0,0,1-1.38-.06,7.19,7.19,0,0,0-2-.13,8.83,8.83,0,0,1-1.62-.07,19.77,19.77,0,0,0-3-.18h-.68l0,.77a.05.05,0,0,1-.05,0h-1v4.05c0,4.34,0,8.82,0,13.24a6.13,6.13,0,0,0,.09.85l.06.36.72.08a7.82,7.82,0,0,1,2,.39.65.65,0,0,0,.28,0h.12a10.57,10.57,0,0,1,3.41.41,1.28,1.28,0,0,0,.52,0,1.87,1.87,0,0,1,.41,0,1.7,1.7,0,0,1,.37.1,1.14,1.14,0,0,0,.47.08A1.33,1.33,0,0,1,132,78a1.41,1.41,0,0,0,.49.12l.27,0a1.11,1.11,0,0,1,.92.22,2.94,2.94,0,0,1,1,.09,3.61,3.61,0,0,0,.79.09,9.5,9.5,0,0,1,1.62.12,10,10,0,0,0,1.34.13,1.66,1.66,0,0,1,.49.11,1.56,1.56,0,0,0,.57.11,2.42,2.42,0,0,1,.7.1c.12,0,.25.07.38.09a1.93,1.93,0,0,0,.34,0,.81.81,0,0,1,.73.2,2.53,2.53,0,0,1,1.1.1,3.14,3.14,0,0,0,.68.13,4.47,4.47,0,0,0,.52,0,2.37,2.37,0,0,1,1.22.16,1.74,1.74,0,0,0,.76.11,2.35,2.35,0,0,1,.82.11,4.45,4.45,0,0,0,1.28.2c.23,0,.47,0,.7,0l1,.17.4.08.29-.3V63.39h-1.51l-.58-.63a.06.06,0,0,1,0-.07l.3-.41,0,0h4.28a.05.05,0,0,1,0,0c.39.5.39.53,0,1.09l-.05,0h-1.49V80.15l.82,1.55h1c.9,0,1.76,0,2.63,0a5.52,5.52,0,0,1,.88.1l.41.06a0,0,0,0,1,0,0v.83a.05.05,0,0,1,0,0l-.56.32.06.06a.07.07,0,0,1,0,.06.05.05,0,0,1-.05,0h-1.87c-.45,0-.92,0-1.38,0s-.81.1-1.24.17c-.18,0-.36.07-.55.09a3.51,3.51,0,0,0,0,.86,2.28,2.28,0,0,1-.3,1.56s0,0-.05,0h-.84a0,0,0,0,1,0,0,2.18,2.18,0,0,1-.34-1.58,4.15,4.15,0,0,0,0-.86l-.62-.08c-.5-.06-1-.13-1.52-.16s-1.07,0-1.6,0H123.14a3.29,3.29,0,0,0-.06.94,2.08,2.08,0,0,1-.47,1.71h0a.83.83,0,0,1-1.06-.28s0,0,0,0V83.27H105.63a4.11,4.11,0,0,0-1.36.19c-.39.14-.8.24-1.2.34s-.77.19-1.15.32c-.81.27-1.61.47-2.36.64a24.86,24.86,0,0,0-2.41.74l-1.1.36c-.23.08-.47.14-.72.21l-.32.09.65,1.28v0l0,0a12.57,12.57,0,0,1-3.8.08l0,0a0,0,0,0,1,0,0L92,86.7l-.48,0-1.11.1c-.22,0-.44.06-.66.1L89,87l-.4,0a4.82,4.82,0,0,0-1,.14,4,4,0,0,1-1.39.07,4.07,4.07,0,0,0-.5,0,6.54,6.54,0,0,0-1.17.12,5,5,0,0,1-1.55.1,1.5,1.5,0,0,1-1,.2,3.84,3.84,0,0,0-.48,0l-.66.1-.72.11a2.67,2.67,0,0,1-.4,0,1.28,1.28,0,0,0-.85.19s-.1,0-.16,0h-.07l-.84,0a9.93,9.93,0,0,0-1.89.19,9.83,9.83,0,0,1-2.15.16c-.37,0-.75,0-1.13,0a5.79,5.79,0,0,0-.82.12l-.45.08a2.16,2.16,0,0,1-.44,0,1,1,0,0,0-.81.19.29.29,0,0,1-.23,0h-.11l-.57,0c-.75,0-1.52.11-2.28.18a.67.67,0,0,0-.27.13l-.09.06.55,1.09a0,0,0,0,1,0,0l-.28.3,0,0H63.38l0,0-.29-.34s0,0,0-.06l1-2-2.75-5H37.22v.25c0,.24,0,.51,0,.77v1s0,0,0,0l-.12.14a.9.9,0,0,1-.91.42.05.05,0,0,1,0,0l-.48-.74V83.31H14.39V98.58a.05.05,0,0,1,0,0A1.64,1.64,0,0,1,13.09,99.2Zm-.44-.11H13a1.53,1.53,0,0,0,1.28-.53V83.26a.06.06,0,0,1,.06-.06H35.68a.06.06,0,0,1,0,.06v1.92l.46.7a.78.78,0,0,0,.79-.39l.11-.13v-.31c0-.24,0-.48,0-.72s0-.53,0-.78v-.29a0,0,0,0,1,.05-.05H61.34l0,0,2.78,5.08s0,0,0,0l-1,2,.26.29h3.37l.24-.25-.56-1.1a.07.07,0,0,1,0-.07.57.57,0,0,0,.13-.08.72.72,0,0,1,.32-.15c.76-.07,1.54-.12,2.29-.17l.56,0a.57.57,0,0,1,.13,0c.06,0,.13,0,.15,0a1.06,1.06,0,0,1,.88-.21,1.46,1.46,0,0,0,.42,0l.45-.07a5.74,5.74,0,0,1,.83-.13c.38,0,.77,0,1.14,0a9.05,9.05,0,0,0,2.13-.17,11,11,0,0,1,1.9-.19l.84,0h.09a.14.14,0,0,0,.09,0,1.27,1.27,0,0,1,.92-.21,2.41,2.41,0,0,0,.38,0c.24,0,.48-.06.71-.1l.67-.1a2.67,2.67,0,0,1,.49,0,1.38,1.38,0,0,0,1-.2h0a5,5,0,0,0,1.54-.09,5.93,5.93,0,0,1,1.19-.12l.51,0a4,4,0,0,0,1.35-.06,4.54,4.54,0,0,1,1-.14l.4,0c.24,0,.48-.06.71-.1l.67-.1q.54-.06,1.11-.09l.55,0,0,0a.07.07,0,0,1,0,0l-.2.83a12.77,12.77,0,0,0,3.64-.06l-.65-1.28V86.1l0,0,.38-.1c.24-.07.48-.13.7-.21l1.11-.36a24.22,24.22,0,0,1,2.42-.74c.74-.17,1.54-.37,2.35-.64.38-.13.77-.23,1.15-.32s.81-.2,1.2-.33a4.06,4.06,0,0,1,1.39-.2h15.94a0,0,0,0,1,.05,0V85.6a.72.72,0,0,0,.92.23,1.92,1.92,0,0,0,.44-1.61,3.1,3.1,0,0,1,.07-1s0,0,0,0h23.13c.53,0,1.07,0,1.61,0s1,.09,1.52.16l.66.08s0,0,0,0a4.05,4.05,0,0,1,0,.92,2.1,2.1,0,0,0,.31,1.49h.79a2.31,2.31,0,0,0,.27-1.47,3.13,3.13,0,0,1,0-.92,0,0,0,0,1,0,0l.59-.1c.43-.07.83-.14,1.25-.17s.93,0,1.39,0h1.73l0,0a.06.06,0,0,1,0,0s0,0,0,0l.6-.34V82l-.37-.06a6.63,6.63,0,0,0-.87-.1h-3.68a.05.05,0,0,1-.05,0l-.84-1.59V63.33a0,0,0,0,1,.05,0h1.52c.35-.49.35-.5,0-.92h-4.22l-.26.35.54.58h1.5a.06.06,0,0,1,.06.05V80.21a.05.05,0,0,1,0,0l-.33.33-.05,0-.41-.08c-.33-.07-.67-.13-1-.18s-.47,0-.7,0a4.12,4.12,0,0,1-1.31-.2,2.1,2.1,0,0,0-.78-.1,1.67,1.67,0,0,1-.8-.13,2.25,2.25,0,0,0-1.17-.15,4.64,4.64,0,0,1-.53,0,3.21,3.21,0,0,1-.7-.13,2.34,2.34,0,0,0-1.08-.09.07.07,0,0,1-.06,0,.74.74,0,0,0-.67-.19,1.45,1.45,0,0,1-.36,0l-.39-.09a2.58,2.58,0,0,0-.66-.1,1.7,1.7,0,0,1-.61-.11,1.59,1.59,0,0,0-.46-.1,11.87,11.87,0,0,1-1.35-.13,9.42,9.42,0,0,0-1.6-.13,3.75,3.75,0,0,1-.82-.09,3.23,3.23,0,0,0-1-.09s0,0,0,0a1,1,0,0,0-.85-.2h-.28a1.58,1.58,0,0,1-.53-.12,1.26,1.26,0,0,0-.64-.12,1.06,1.06,0,0,1-.52-.09l-.34-.09a2.67,2.67,0,0,0-.4,0,1.68,1.68,0,0,1-.55,0,10.36,10.36,0,0,0-3.38-.4H126a.69.69,0,0,1-.32,0,7.33,7.33,0,0,0-2-.38l-.77-.09a.07.07,0,0,1,0-.05l-.06-.39a5,5,0,0,1-.09-.87c0-4.42,0-8.9,0-13.24v-4.1a0,0,0,0,1,0-.05h1l0-.78a.05.05,0,0,1,0-.05h.73a18.79,18.79,0,0,1,3,.19,9.52,9.52,0,0,0,1.6.06,7.92,7.92,0,0,1,2,.14,4.6,4.6,0,0,0,1.34.05,7.85,7.85,0,0,1,.84,0c.42,0,.85.07,1.26.11l.85.09c.39,0,.79,0,1.17,0a7.22,7.22,0,0,1,2,.16,6.09,6.09,0,0,0,2.17,0,3.87,3.87,0,0,1,1.23.12,4.72,4.72,0,0,0,1,.12c1.14,0,2.3,0,3.42,0h2.34a0,0,0,0,1,.05,0v.94l.24.25h3.16V56h-.91a0,0,0,0,1-.05-.05V45.27a.05.05,0,0,1,.05-.05h1.54c.3-.48.29-.49-.07-.9H149.1l-.61.41.46.57h1.49a.06.06,0,0,1,.06.05V56a.06.06,0,0,1-.06,0h-1.63v1a.06.06,0,0,1-.05.06h-1.92c-.78,0-1.6,0-2.39,0a11,11,0,0,1-2-.11,12.63,12.63,0,0,0-1.38-.12h-.87A8.34,8.34,0,0,1,138,56.7a6.33,6.33,0,0,0-2.17,0,3.9,3.9,0,0,1-1.23-.11,5.31,5.31,0,0,0-.89-.13c-.31,0-.63,0-.94,0a5.79,5.79,0,0,1-2.33-.22,18.46,18.46,0,0,1-3.16-.09,20.56,20.56,0,0,0-2.61-.12l-.55,0-.28,0a0,0,0,0,1,0,0V54.81a1.62,1.62,0,0,0-.31,0c-.25,0-.5,0-.65-.32V40.28a.06.06,0,0,1,.05-.06h1.29l.47-.48-.47-.43h-4c-.3.48-.3.49.11,1H122a0,0,0,0,1,0,0V54.45a.06.06,0,0,1,0,0l-.26.25h0a2,2,0,0,1-1.81-.5c-.7-.53-1.45-1-2.18-1.46-.47-.3-1-.61-1.44-.94-.73-.5-1.49-1-2.22-1.46l-1.48-1-2.27-1.52-1.66-1.13-1.08-.7c-.66-.41-1.33-.84-2-1.31-.83-.62-1.71-1.2-2.55-1.76s-1.42-.94-2.11-1.44-1.46-1-2.19-1.47S97.09,39,96.29,38.43L95.62,38l-.28-.2,0,0V35.79L95,35.48h-.85a0,0,0,0,1,0,0c-.15-3-.09-11.9.08-12.8,0,0,0,0,0,0H96l-.23-.68H91.71c-.25.22-.37.42-.2.7a2.14,2.14,0,0,0,.67,0,1.11,1.11,0,0,1,1.11.31s0,0,0,0,0,.24-.07.35a2.62,2.62,0,0,0-.1.58c0,3.37,0,6.93,0,10.89a1.38,1.38,0,0,0,.09.42c0,.08,0,.17.07.27a.06.06,0,0,1,0,0l0,0H91.83v1.92a.05.05,0,0,1,0,0,2.21,2.21,0,0,0-.27.12,1.07,1.07,0,0,1-.53.16.38.38,0,0,0-.26.08.4.4,0,0,1-.57,0,1.42,1.42,0,0,0-.35.15l-.28.13-.06,0a21.39,21.39,0,0,1-3.25,1.09,16.43,16.43,0,0,0-1.85.55,14.64,14.64,0,0,1-2.38.64,3.28,3.28,0,0,0-.59.17,3,3,0,0,1-.75.18,3,3,0,0,0-1.13.46,1.87,1.87,0,0,1-.74.23,3.11,3.11,0,0,0-.44.08l-.32.11c-1,.33-2.13.67-3.21,1-.62.17-1.23.37-1.83.55s-1.14.36-1.71.52c-1,.27-1.88.54-2.8.83-.39.13-.77.28-1.18.44l-.61.25h0a.08.08,0,0,1,0,0V44.3h-.94a.06.06,0,0,1-.06-.06V31.9a.06.06,0,0,1,.06,0H67l.52-.61-.3-.32H63l-.34.37.76.6h1.12a.06.06,0,0,1,.06.05V44.28a.06.06,0,0,1-.06,0H63.14v.76a.06.06,0,0,1-.06.06l-.49,0a2.54,2.54,0,0,1-1-.05,7.42,7.42,0,0,0-1.44-.31,8.22,8.22,0,0,1-1.36-.28,4,4,0,0,0-.92-.13,4.94,4.94,0,0,1-.86-.11,9.92,9.92,0,0,0-3-.4h-.12a.81.81,0,0,1-.31,0,8.42,8.42,0,0,0-1.45-.33c-.22,0-.45-.07-.67-.12s-.43,0-.64-.07a3.5,3.5,0,0,1-.85-.13,6.94,6.94,0,0,0-2.54-.39h-.15a1,1,0,0,1-.39,0,12.42,12.42,0,0,0-2.12-.44l-.48,0a2.62,2.62,0,0,1-1-.19,1.41,1.41,0,0,0-.62-.13,1.81,1.81,0,0,1-.55-.09,3.24,3.24,0,0,0-.8-.17l-.42-.05h0a4.69,4.69,0,0,1-1-1.33l0-.08a5.91,5.91,0,0,0-.87-1.54,2.62,2.62,0,0,1-.67-1.41,3.86,3.86,0,0,0-.6-1.53l-.19-.33a3.25,3.25,0,0,1-.5-1.6V26.45a.06.06,0,0,1,0-.06h1.35l.34-.38-.59-.39H37.16a0,0,0,0,1,0-.05V8.42a.06.06,0,0,1,0-.06h1.68l-.26-.69H34.3V8.4H36a.06.06,0,0,1,.06,0V25.64a.06.06,0,0,1-.06.05H34.25l0,.75h1.8a0,0,0,0,1,0,0v5.26c0,.26,0,.52,0,.77a6,6,0,0,1-.07,1.75,6,6,0,0,1-.72,1.56c-.14.23-.28.47-.4.7s-.15.33-.23.53-.07.17-.11.26h1.41a.06.06,0,0,1,.06,0v2.28a.06.06,0,0,1-.06.06H34.74l-.22.22v3.19H38.1l.13-.35s0,0,.05,0l1.48.27,0,0c.14.25.28.49.41.74.32.56.65,1.14,1,1.72.15.27.29.55.43.83s.39.77.61,1.14.36.67.52,1,.32.68.51,1c.7,1.2,1.35,2.45,2,3.65.34.66.69,1.34,1.05,2,.47.87.95,1.74,1.42,2.58l1.17,2.11a3.9,3.9,0,0,1,.2.47,2.27,2.27,0,0,0,.33.66,5.15,5.15,0,0,1,.67,1.15c0,.1.09.21.14.31.14.28.3.56.46.83s.24.41.35.62.35.66.51,1,.4.78.6,1.16l1.29,2.37c.45.82.92,1.66,1.37,2.5l1.63,3c.37.7.74,1.4,1.12,2.1s.65,1.22,1,1.82L60,80.53c.13.24.23.5.35.77l.17.41a0,0,0,0,1,0,.05l-.05,0H14.59l0,0-.28-.28a.08.08,0,0,1,0,0V3l-.69-.75H11.11a2.9,2.9,0,0,1-.33.2c-.27.15-.52.29-.61.6l.29.56H11c.47,0,1,0,1.44,0a1.4,1.4,0,0,1,.45.13l.09,0s0,0,0,0,0,.28-.05.41a5.39,5.39,0,0,0-.06.66V18.28a0,0,0,0,1-.05,0h-2.4l-.27.6.24.46a2.2,2.2,0,0,0,1.49.3,3.47,3.47,0,0,1,1,.07,0,0,0,0,1,0,0V33.73l.06.06.07.06s0,.07,0,.11l0,0-.26.26,0,0h-2.3s0,0,0,.07a.55.55,0,0,1-.06.22.89.89,0,0,1-.16.22l0,0,.36.63,2.3.24a0,0,0,0,1,0,.05V49.87s0,.05,0,.05a4.12,4.12,0,0,1-.93,0,2,2,0,0,0-1.72.5l.32.91h2.33a0,0,0,0,1,0,.05V65.83a.05.05,0,0,1,0,0H10.89l-.71.47c-.08.39.13.56.34.75a1.29,1.29,0,0,1,.17.16h2.08l.32.3a.09.09,0,0,1,0,.05.08.08,0,0,1,0,0c-.24.15-.22.37-.2.61a1.5,1.5,0,0,1,0,.2c0,3.3,0,6.65,0,9.89v3.39a.05.05,0,0,1-.05,0H10.78l-.63.51.28.61a2.44,2.44,0,0,0,1.46.25,4,4,0,0,1,.91,0,0,0,0,0,1,0,.05V97.7a.06.06,0,0,1-.06,0H10.43l-.19.67.21.5.29,0a5.18,5.18,0,0,0,.79.11c.26,0,.52,0,.78,0Zm53.56-11.2a.7.7,0,0,1-.62-.36s0,0,0,0,0-.33,0-.52a3.84,3.84,0,0,1,0-1.22A7.6,7.6,0,0,0,65.77,84c0-.26,0-.53,0-.8a.05.05,0,0,1,0,0h27a.06.06,0,0,1,.06,0v1.88a.08.08,0,0,1,0,0h0a4.17,4.17,0,0,0-1.37.1,5.28,5.28,0,0,1-1.26.12,2.31,2.31,0,0,0-.81.1l-.45.08a2.06,2.06,0,0,1-.43,0,1.18,1.18,0,0,0-.83.18c-.1.09-.28.06-.44,0l-.11,0a12.09,12.09,0,0,0-2.76.13c-.4,0-.81.1-1.22.13l-.47,0a7.34,7.34,0,0,0-1.41.16,4.17,4.17,0,0,1-1,.11,5.28,5.28,0,0,0-.91.1,5,5,0,0,1-1,.12,4.43,4.43,0,0,0-.9.09,4.29,4.29,0,0,1-.93.11,3.52,3.52,0,0,0-.87.1,7.56,7.56,0,0,1-2,.17c-.35,0-.71,0-1.07,0a5.65,5.65,0,0,0-.7.11c-.18,0-.38.07-.57.09h-.4a1.17,1.17,0,0,0-.85.19.27.27,0,0,1-.16,0h-.07l-.52,0c-.73.06-1.48.11-2.22.18a1.66,1.66,0,0,0-.37.09l-.08,0A1.5,1.5,0,0,1,66.21,87.89Zm-.53-.4c.26.36.56.35.95.21l.08,0a1.49,1.49,0,0,1,.4-.11l2.22-.17.52,0h.09a.14.14,0,0,0,.09,0,1.25,1.25,0,0,1,.91-.21,1.7,1.7,0,0,0,.39,0,5,5,0,0,0,.56-.09,5.93,5.93,0,0,1,.72-.1c.36,0,.72,0,1.07,0a7.29,7.29,0,0,0,2-.16,4.51,4.51,0,0,1,.89-.11,4,4,0,0,0,.91-.1,4.14,4.14,0,0,1,.93-.1,4,4,0,0,0,1-.11,4.29,4.29,0,0,1,.94-.1,4.49,4.49,0,0,0,1-.11A8.58,8.58,0,0,1,82.69,86l.47,0c.4,0,.81-.08,1.2-.13a12.35,12.35,0,0,1,2.79-.12h.11c.13,0,.3,0,.37,0a1.2,1.2,0,0,1,.9-.2,2.81,2.81,0,0,0,.41,0l.44-.09a3,3,0,0,1,.84-.1,4.59,4.59,0,0,0,1.23-.11,4.27,4.27,0,0,1,1.34-.11V83.3H65.9c0,.24,0,.5,0,.74a7.47,7.47,0,0,1-.17,1.75,3.92,3.92,0,0,0,0,1.19C65.67,87.15,65.68,87.32,65.68,87.49ZM64.43,86a.07.07,0,0,1-.05,0l0-.28a0,0,0,0,1,0,0v-.31a12.75,12.75,0,0,1-1.26-2,0,0,0,0,1,0-.05l0,0h1.27a.06.06,0,0,1,.06.06v2a1.68,1.68,0,0,0,.18.21.06.06,0,0,1,0,.06s0,0,0,0h-.12c.18,0,.19.2.2.33s0,0,0,0l-.14,0Zm0-.28,0,.17h0A.22.22,0,0,0,64.44,85.71Zm0-.27v0h0Zm-1.24-2.12a12.45,12.45,0,0,0,1.13,1.82V83.32Zm31.21,1.41a.05.05,0,0,1,0,0l0,0V83.27a.06.06,0,0,1,.06,0h5.41a0,0,0,1,1,0,.1,12.41,12.41,0,0,0-2.56.69,11.8,11.8,0,0,1-2.85.72Zm0-1.41v1.3a11.66,11.66,0,0,0,2.76-.71,18.47,18.47,0,0,1,2-.59Zm2.89-1.51H94.16a.06.06,0,0,1-.06-.06V70.49a.06.06,0,0,1,.06,0h1.43c.41-.47.42-.48.12-1h-4l-.25.25a.45.45,0,0,1,0,.11.67.67,0,0,0,0,.25.6.6,0,0,0,.17.21l.11.1h1.48l0,0a.06.06,0,0,1,0,0c0,.1,0,.18-.06.27a2.18,2.18,0,0,0-.08.49c0,3.42,0,6.47,0,9.32a2.43,2.43,0,0,0,.1.58,3.2,3.2,0,0,1,.07.33s0,0,0,0l-.25.27s0,0,0,0H65.67a0,0,0,0,1,0,0V67.09a0,0,0,0,1,0,0h1.45l.39-.31-.31-.42H63c-.23.19-.4.37-.24.71h1.74a.05.05,0,0,1,0,0V81.73a.06.06,0,0,1,0,.06H62.31s0,0,0,0l-.18-.25a6.58,6.58,0,0,1-.48-.73c-.14-.27-.28-.54-.4-.8a11.79,11.79,0,0,0-.84-1.51,7.21,7.21,0,0,1-.57-1.06,7.08,7.08,0,0,0-.65-1.17,2,2,0,0,1-.5-1.18.77.77,0,0,0-.2-.5,4.28,4.28,0,0,1-.8-1.32,5.38,5.38,0,0,0-.31-.64c-1-1.73-1.92-3.51-2.88-5.3l-.37-.7c-.65-1.21-1.31-2.46-2-3.65-.22-.37-.42-.77-.61-1.16a9.51,9.51,0,0,0-1.12-1.89,1.17,1.17,0,0,1-.19-.49A1.16,1.16,0,0,0,50,59c-.31-.51-.59-1-.86-1.56a21.05,21.05,0,0,0-1-1.84,4.31,4.31,0,0,1-.38-.74c-.07-.16-.15-.33-.23-.48-.53-1-1.09-2-1.63-3s-1.11-2-1.66-3.07c-.36-.68-.74-1.38-1.11-2-.51-.92-1-1.87-1.52-2.83l0,0-.11-.1a.07.07,0,0,1,0-.06.05.05,0,0,1,.05,0l.54,0a2.33,2.33,0,0,1,1,.19,1.56,1.56,0,0,0,.79.14,1.42,1.42,0,0,1,.93.24,7.32,7.32,0,0,1,1.69.23,5.77,5.77,0,0,0,2,.2.76.76,0,0,1,.35.09l.22.08.27,0c.84.14,1.72.29,2.58.4h.06a2.66,2.66,0,0,1,.82.2.74.74,0,0,0,.34,0,.76.76,0,0,1,.55.11.84.84,0,0,0,.49.07h.29l.71,0a6.18,6.18,0,0,1,1.61.2,12.6,12.6,0,0,0,1.9.4,12.16,12.16,0,0,1,1.85.38,7.3,7.3,0,0,0,1.65.23l.78,0,0,0c.28.37.28.39.29,1.14H66.6V46.65s0,0,0,0a25.19,25.19,0,0,1,4.2-1.38,22.63,22.63,0,0,0,2.42-.76l.89-.31c.3-.1.61-.17.91-.24a7.26,7.26,0,0,0,1.16-.34c.36-.15.74-.28,1.11-.4l.08,0a8.44,8.44,0,0,1,1-.25,5.85,5.85,0,0,0,1.36-.38,18.36,18.36,0,0,1,2.54-.83c.6-.17,1.22-.34,1.81-.55.22-.08.44-.14.66-.2a5.23,5.23,0,0,0,1.31-.49h0A4.57,4.57,0,0,0,87.88,40c.32-.12.64-.24,1-.33a1.36,1.36,0,0,0,.33-.14,1.13,1.13,0,0,1,.49-.16,1.08,1.08,0,0,0,.31-.07.81.81,0,0,1,.56-.05c.12,0,.3-.07.48-.17A2.49,2.49,0,0,1,91.3,39a.33.33,0,0,1,.24,0,4.29,4.29,0,0,0,2,.2,6,6,0,0,1,1.2,0h0c.39.24.8.47,1.19.7a17.9,17.9,0,0,1,2.52,1.64,14.79,14.79,0,0,0,1.78,1.22A16,16,0,0,1,102,44a19,19,0,0,0,2.08,1.41c.51.31,1,.63,1.52,1s1,.7,1.57,1a21.57,21.57,0,0,1,2,1.39,22,22,0,0,0,1.94,1.31c.56.35,1.13.72,1.67,1.12s1.36.94,2,1.37c.51.33,1,.66,1.56,1s1.18.79,1.76,1.16,1.23.8,1.82,1.21a0,0,0,0,1,0,.06l-.17.59.42.34s0,0,0,0v1.16H122a0,0,0,0,1,.05.05V76a0,0,0,0,1,0,0l-.57,1.09a0,0,0,0,1,0,0l-.73.14a7.58,7.58,0,0,0-1.56.39c-.42.16-.84.28-1.26.4a10.84,10.84,0,0,0-1.33.43,3.21,3.21,0,0,1-.8.19,1.9,1.9,0,0,0-1.13.41h0a4.07,4.07,0,0,0-1.38.35,5.13,5.13,0,0,1-1.16.33,3.7,3.7,0,0,0-1.24.33,4.16,4.16,0,0,1-.7.25c-.19.06-.4.12-.59.2a6.67,6.67,0,0,1-1.08.31l-.33.07a23.49,23.49,0,0,0-2.9.84.77.77,0,0,1-.37,0H97.31Zm-3.1-.11H104.8a1,1,0,0,0,.34,0,23.15,23.15,0,0,1,2.91-.84l.32-.07a6.56,6.56,0,0,0,1.07-.31c.2-.08.4-.14.6-.2a4.17,4.17,0,0,0,.68-.24,3.83,3.83,0,0,1,1.27-.34,4.83,4.83,0,0,0,1.14-.33,4.38,4.38,0,0,1,1.4-.36,2.17,2.17,0,0,1,1.18-.42,2.87,2.87,0,0,0,.77-.17,11.64,11.64,0,0,1,1.34-.44c.42-.12.84-.24,1.25-.4a7.7,7.7,0,0,1,1.59-.39l.69-.14.56-1.06V58.32h-1.63a0,0,0,0,1,0,0V57.08l-.42-.34a.11.11,0,0,1,0-.06l.17-.58c-.58-.41-1.19-.81-1.79-1.19s-1.18-.76-1.76-1.16-1-.7-1.56-1c-.68-.44-1.39-.89-2-1.38s-1.11-.76-1.67-1.11a20.72,20.72,0,0,1-1.94-1.32,24.21,24.21,0,0,0-2-1.38c-.53-.33-1.07-.67-1.58-1s-1-.67-1.51-1A17.09,17.09,0,0,1,102,44.1a16.68,16.68,0,0,0-1.81-1.25,15,15,0,0,1-1.79-1.23A18.67,18.67,0,0,0,95.87,40l-1.19-.7a6.5,6.5,0,0,0-1.17,0,4.49,4.49,0,0,1-2-.21.22.22,0,0,0-.16,0,1.74,1.74,0,0,0-.27.14.78.78,0,0,1-.56.18.69.69,0,0,0-.49,0,1.28,1.28,0,0,1-.35.07,1.15,1.15,0,0,0-.44.15,1.54,1.54,0,0,1-.35.15c-.33.09-.65.21-1,.32a4.56,4.56,0,0,1-1.81.42,5,5,0,0,1-1.32.5c-.23.06-.44.12-.66.2-.59.21-1.21.38-1.81.55a18.24,18.24,0,0,0-2.53.83,6.86,6.86,0,0,1-1.37.39,6.8,6.8,0,0,0-1,.24l-.07,0c-.37.12-.75.25-1.11.4a7.48,7.48,0,0,1-1.18.34,9,9,0,0,0-.89.24l-.89.31a22.27,22.27,0,0,1-2.44.76,26.07,26.07,0,0,0-4.14,1.36v1.07a.06.06,0,0,1-.06.06H63.12a.06.06,0,0,1-.06-.06c0-.76,0-.78-.25-1.11l-.75,0a6.66,6.66,0,0,1-1.67-.23A14.66,14.66,0,0,0,58.55,46a13,13,0,0,1-1.91-.4,6,6,0,0,0-1.58-.2c-.24,0-.49,0-.72,0h-.28a.9.9,0,0,1-.55-.08.65.65,0,0,0-.48-.1.78.78,0,0,1-.4,0,2.36,2.36,0,0,0-.78-.2h-.06c-.87-.12-1.74-.26-2.59-.41l-.27,0a1.17,1.17,0,0,1-.24-.09.72.72,0,0,0-.3-.07,5.79,5.79,0,0,1-2-.21,6.71,6.71,0,0,0-1.67-.22h0a1.24,1.24,0,0,0-.88-.23,1.66,1.66,0,0,1-.84-.16,2.2,2.2,0,0,0-.94-.17l-.4,0a.17.17,0,0,1,.07.08c.49,1,1,1.9,1.52,2.82.37.67.75,1.37,1.12,2.06.54,1,1.11,2.06,1.66,3.06s1.09,2,1.62,3c.09.16.16.32.24.49a4.84,4.84,0,0,0,.36.72,20,20,0,0,1,1.06,1.85c.26.52.54,1,.85,1.55a1.49,1.49,0,0,1,.15.45,1,1,0,0,0,.17.45,9.79,9.79,0,0,1,1.13,1.91c.19.39.39.79.61,1.16.72,1.19,1.38,2.44,2,3.65l.37.7c1,1.79,1.93,3.57,2.88,5.3.12.21.22.43.32.65a4.09,4.09,0,0,0,.78,1.29.89.89,0,0,1,.23.57,2,2,0,0,0,.48,1.12,7.26,7.26,0,0,1,.65,1.19,8.7,8.7,0,0,0,.56,1,10.86,10.86,0,0,1,.85,1.52c.13.27.26.54.4.8a6.72,6.72,0,0,0,.47.71l.17.24h2.15V67.13H62.77a.05.05,0,0,1-.05,0c-.23-.43,0-.68.26-.89h4.25a.05.05,0,0,1,0,0l.35.49a0,0,0,0,1,0,.07l-.44.35,0,0H65.72V81.68H93l.22-.24c0-.1,0-.2-.07-.29a2.68,2.68,0,0,1-.1-.61c0-2.85,0-5.9,0-9.32a2.43,2.43,0,0,1,.08-.52c0-.06,0-.13,0-.19H91.72a.05.05,0,0,1,0,0l-.12-.12a.73.73,0,0,1-.2-.24.61.61,0,0,1,0-.3v-.12a.05.05,0,0,1,0,0l.28-.28,0,0h4a.05.05,0,0,1,0,0c.35.56.35.58-.13,1.13H94.21Zm16.29.11a0,0,0,0,1,0,0l0-.15s0,0,0-.06l.43-.16a5.55,5.55,0,0,1,1-.3,9.69,9.69,0,0,0,2-.54,6,6,0,0,1,1.69-.48,5.23,5.23,0,0,0,1.21-.3c.25-.08.51-.16.78-.22a10,10,0,0,0,1.57-.54l.43-.17a1.66,1.66,0,0,1,.64-.08h.34l0,0a.09.09,0,0,1,0,0l-.21.53h3.91l-.41-.95s0,0,0-.05,0,0,0,0a12.15,12.15,0,0,0,3.69.45,2.05,2.05,0,0,1,.64.11l.33.09h.28a.68.68,0,0,1,.62.2s.14,0,.22,0H130a2.1,2.1,0,0,1,1,.19.79.79,0,0,0,.44,0,.78.78,0,0,1,.74.2h.16a4.88,4.88,0,0,1,1.5.19,3.43,3.43,0,0,0,.56.06,2.08,2.08,0,0,1,.84.15,1.58,1.58,0,0,0,.63,0,1.62,1.62,0,0,1,.38,0h.28a1.68,1.68,0,0,1,.93.19.78.78,0,0,0,.46,0,.82.82,0,0,1,.72.17s.12,0,.2,0a.54.54,0,0,1,.18,0l.58.07c.4,0,.81.11,1.21.12a3.14,3.14,0,0,1,.68.13,1.9,1.9,0,0,0,1,.1,0,0,0,0,1,0,0,1.3,1.3,0,0,0,.88.2,2.29,2.29,0,0,1,.37,0,.48.48,0,0,1,.25.14.18.18,0,0,1,.07,0l.22-.07a1.45,1.45,0,0,1,.54-.11,2.22,2.22,0,0,1,.56.11l.3.08.29,0a1.22,1.22,0,0,1,.61.15,1.26,1.26,0,0,0,.71.05l.36,0a.06.06,0,0,1,.06.05v.08a.22.22,0,0,1,0,.09s-.07.09-.12.09Zm0-.17v.06h37.1l0,0a.1.1,0,0,1,0,0v0l-.3,0a1.3,1.3,0,0,1-.77-.06,1.12,1.12,0,0,0-.57-.14l-.3,0-.31-.08a2.78,2.78,0,0,0-.53-.11,1.61,1.61,0,0,0-.51.11l-.25.07h0L144,81.3c-.07,0-.13-.11-.2-.11h-.36a1.34,1.34,0,0,1-.92-.21,2.1,2.1,0,0,1-1-.09,2.88,2.88,0,0,0-.65-.13c-.41,0-.82-.07-1.22-.13l-.59-.07h-.15a.37.37,0,0,1-.28,0,.72.72,0,0,0-.64-.14.91.91,0,0,1-.52-.06,1.55,1.55,0,0,0-.88-.17h-.28l-.38,0a1.41,1.41,0,0,1-.68-.05,2.44,2.44,0,0,0-.79-.14,2.29,2.29,0,0,1-.58-.06,4.77,4.77,0,0,0-1.47-.19h-.06c-.08,0-.15,0-.19,0a.68.68,0,0,0-.65-.17.85.85,0,0,1-.5,0,1.84,1.84,0,0,0-.94-.18h-.35c-.13,0-.25,0-.31,0a.53.53,0,0,0-.54-.16,1.51,1.51,0,0,1-.3,0,2.14,2.14,0,0,1-.34-.09,1.9,1.9,0,0,0-.61-.1,12.25,12.25,0,0,1-3.61-.43l.4.92a.11.11,0,0,1,0,.05.05.05,0,0,1,0,0h-4.07l0,0a0,0,0,0,1,0-.05l.21-.52h-.26a2,2,0,0,0-.61.08l-.42.17a9.93,9.93,0,0,1-1.59.54c-.26.06-.52.14-.76.22a5.57,5.57,0,0,1-1.25.3,5.86,5.86,0,0,0-1.65.48,10.06,10.06,0,0,1-2,.54,5.34,5.34,0,0,0-1,.3ZM38.22,41.38h0a.06.06,0,0,1,0,0V40.12a.07.07,0,0,1,0,0,.07.07,0,0,1,.06,0l.58,1.17a0,0,0,0,1,0,0,.05.05,0,0,1,0,0l-.59,0Zm.05-1v.92l.45,0Zm-1.1-.64h0a.08.08,0,0,1,0,0V38.49l0,0a.06.06,0,0,1,0-.08h0a.17.17,0,0,1-.18-.06s0,0,0,0,0,0,0,0l.07-.07h0s0,0,0,0l.06.06,0,0a0,0,0,0,1,0,0,.07.07,0,0,1,0,.05v.21a5.54,5.54,0,0,1,.67,1.12v0l0,0-.68.07Zm.06-1.09v1l.54-.05A5.83,5.83,0,0,0,37.23,38.62Z"/><path d="M7.49,69l-.89-.65a8,8,0,0,1,0-4l.86-.73H8.8l.9,1.06c0,.85,0,1.65,0,2.45a1.87,1.87,0,0,1-.66,1.62c-.11.09-.2.2-.3.3ZM8,64.42a2.73,2.73,0,0,0-.57,2.13c.11.46-.07,1.17.68,1.42a2.75,2.75,0,0,0,.52-1.66A2.24,2.24,0,0,0,8,64.42Z"/><path d="M8.75,69H7.46l-.89-.65,0,0a7.94,7.94,0,0,1,0-4.08s0,0,0,0l.85-.73,0,0H8.8l0,0,.9,1.06s0,0,0,0c0,.26,0,.52,0,.77,0,.58,0,1.13,0,1.68a1.94,1.94,0,0,1-.68,1.66c-.07.06-.13.13-.2.2L8.79,69Zm-1.24-.11H8.73a.6.6,0,0,0,.08-.08,2,2,0,0,1,.21-.2,1.77,1.77,0,0,0,.63-1.57c0-.56,0-1.11,0-1.69v-.75l-.87-1H7.44l-.83.71a7.82,7.82,0,0,0,0,4Zm.6-.9h0c-.6-.2-.63-.68-.67-1.1a3.6,3.6,0,0,0,0-.36A2.77,2.77,0,0,1,8,64.39s0,0,0,0a.05.05,0,0,1,0,0,2.31,2.31,0,0,1,.64,1.94l0,.3A2.32,2.32,0,0,1,8.15,68ZM8,64.5a2.61,2.61,0,0,0-.53,2,2.32,2.32,0,0,1,0,.38c0,.4.06.82.56,1a2.19,2.19,0,0,0,.45-1.31c0-.1,0-.2,0-.3A2.21,2.21,0,0,0,8,64.5Z"/><path d="M7.42.05H8.74L9.5.91a7.66,7.66,0,0,1,0,3.86l-.71.73H7.28L6.6,4.81a7.68,7.68,0,0,1,0-4Zm.71,1c-.79.18-.3.93-.74,1.19a5.6,5.6,0,0,0,.3,2c0,.12.24.2.45.35a3.27,3.27,0,0,0,.49-1.84A2.83,2.83,0,0,0,8.13,1.07Z"/><path d="M8.76,5.55H7.28l0,0-.69-.68v0a7.8,7.8,0,0,1,0-4,0,0,0,0,1,0,0L7.38,0H8.74l0,0,.76.85a0,0,0,0,1,0,0,7.66,7.66,0,0,1,0,3.89l0,0-.7.72ZM7.31,5.44H8.74l.68-.7a7.46,7.46,0,0,0,0-3.81L8.72.1H7.44L6.61.82a7.5,7.5,0,0,0,0,4Zm.83-.83h0L7.9,4.47c-.13-.08-.24-.15-.26-.25s-.08-.34-.12-.5a3.47,3.47,0,0,1-.18-1.47.08.08,0,0,1,0,0c.17-.09.18-.27.2-.47s.06-.61.56-.72a0,0,0,0,1,.05,0,2.56,2.56,0,0,1,.49,1.46c0,.08,0,.15,0,.23a3.26,3.26,0,0,1-.49,1.86s0,0,0,0Zm-.7-2.32a3.49,3.49,0,0,0,.18,1.4c0,.17.09.34.13.51s.1.11.21.18l.16.1a3.05,3.05,0,0,0,.46-1.75l0-.23a2.43,2.43,0,0,0-.44-1.37c-.39.1-.42.35-.44.62A.65.65,0,0,1,7.44,2.29Z"/><path d="M9.72,51.91,8.84,53H7.26l-.68-.69a7.66,7.66,0,0,1,0-4.06l1-.66H8.77l.72.79C9.88,49.5,9.6,50.71,9.72,51.91ZM7.94,48.54a2.8,2.8,0,0,0-.52,2c.11.49,0,1.15.58,1.47a2.13,2.13,0,0,0,.65-1.49A2.86,2.86,0,0,0,7.94,48.54Z"/><path d="M8.84,53.08H7.26l0,0-.68-.68v0a7.78,7.78,0,0,1,0-4.09s0,0,0,0l1-.67H8.77l0,0,.72.79a0,0,0,0,0,0,0,6,6,0,0,1,.21,2.2,11.66,11.66,0,0,0,0,1.32.06.06,0,0,1,0,0l-.88,1.11ZM7.28,53H8.81l.85-1.07a11.48,11.48,0,0,1,0-1.31,5.73,5.73,0,0,0-.21-2.16l-.7-.76H7.58l-1,.64a7.9,7.9,0,0,0,0,4ZM8,52.09s0,0,0,0A1.21,1.21,0,0,1,7.42,51a2.32,2.32,0,0,0,0-.38,2.85,2.85,0,0,1,.52-2.07s0,0,0,0l.05,0a2.94,2.94,0,0,1,.72,2A2.22,2.22,0,0,1,8,52.08Zm0-3.47a2.67,2.67,0,0,0-.48,1.94,2.3,2.3,0,0,1,0,.39c0,.39.07.79.47,1a2.06,2.06,0,0,0,.61-1.42A2.85,2.85,0,0,0,8,48.62Z"/><path d="M7.47,95.37H8.76l.65.66c.51,1.2.18,2.44.31,3.65l-.89,1.12H7.29l-.75-.86a7.64,7.64,0,0,1-.2-2.55A1.8,1.8,0,0,1,7,95.88C7.16,95.72,7.32,95.53,7.47,95.37Zm.44,4.43c.69-.13.37-.77.74-1a5.29,5.29,0,0,0-.3-2.16c0-.13-.25-.2-.45-.35a3.27,3.27,0,0,0-.49,1.84A2.83,2.83,0,0,0,7.91,99.8Z"/><path d="M8.83,100.85H7.29l0,0L6.5,100h0a3.92,3.92,0,0,1-.21-1.71,8,8,0,0,0,0-.85A1.86,1.86,0,0,1,7,95.84c.12-.11.23-.23.34-.35l.14-.15,0,0H8.76l0,0,.66.65s0,0,0,0a5.58,5.58,0,0,1,.29,2.38,11.11,11.11,0,0,0,0,1.29,0,0,0,0,1,0,0l-.89,1.12Zm-1.52-.1H8.8l.86-1.08a11,11,0,0,1,0-1.28,5.32,5.32,0,0,0-.27-2.33l-.64-.63H7.49l-.12.13L7,95.92a1.7,1.7,0,0,0-.63,1.47,8.42,8.42,0,0,1,0,.87,3.79,3.79,0,0,0,.2,1.65Zm.6-.9a.05.05,0,0,1,0,0,2.48,2.48,0,0,1-.49-1.45,1.79,1.79,0,0,1,0-.23,3.18,3.18,0,0,1,.49-1.86s0,0,0,0h0l.2.13c.13.08.23.14.27.24a5.43,5.43,0,0,1,.3,2.18s0,0,0,0a.5.5,0,0,0-.19.38c-.06.25-.12.53-.56.61Zm0-3.46a3.05,3.05,0,0,0-.46,1.75l0,.23a2.43,2.43,0,0,0,.44,1.37c.34-.07.39-.29.44-.52a.66.66,0,0,1,.23-.43,5.25,5.25,0,0,0-.3-2.11c0-.07-.11-.12-.22-.19Z"/><path d="M6.56,16.72,7.28,16H8.76c.17.17.34.35.52.51a1.38,1.38,0,0,1,.42,1.09c0,.62,0,1.25,0,1.88A1.82,1.82,0,0,1,8.5,21.4H7.38c-.11-.13-.32-.36-.51-.61s-.35-.48-.53-.74c0-.57,0-1.17,0-1.76A3,3,0,0,1,6.56,16.72ZM8.11,17c-.78.16-.27.92-.72,1.18a5.6,5.6,0,0,0,.3,1.95c0,.12.24.2.45.35a4,4,0,0,0,.51-1.83A2.32,2.32,0,0,0,8.11,17Z"/><path d="M8.5,21.45H7.34l-.11-.13-.4-.49c-.13-.16-.24-.33-.37-.5a1.88,1.88,0,0,0-.16-.23s0,0,0,0V18a2.46,2.46,0,0,1,.23-1.35h0l.71-.74,0,0H8.76l0,0L9,16.1l.36.36a1.38,1.38,0,0,1,.44,1.12c0,.62,0,1.24,0,1.88a1.85,1.85,0,0,1-1.23,2Zm-1.09-.1H8.49a1.75,1.75,0,0,0,1.15-1.89c0-.64,0-1.26,0-1.89a1.28,1.28,0,0,0-.41-1c-.12-.11-.24-.24-.36-.36L8.73,16H7.3l-.7.72A2.36,2.36,0,0,0,6.39,18c0,.08,0,.17,0,.25V20l.15.22.36.5c.14.18.29.35.4.48Zm.73-.82h0l-.2-.13c-.13-.08-.24-.15-.26-.25s-.08-.35-.13-.53a3.48,3.48,0,0,1-.17-1.44s0,0,0,0,.18-.27.19-.47.05-.61.54-.71a0,0,0,0,1,.05,0,2.36,2.36,0,0,1,.55,1.69,4,4,0,0,1-.52,1.86l0,0Zm-.7-2.32a3.59,3.59,0,0,0,.17,1.38,4.56,4.56,0,0,1,.13.53c0,.06.11.11.21.18l.17.1a3.8,3.8,0,0,0,.48-1.75,2.31,2.31,0,0,0-.51-1.6c-.38.1-.4.35-.42.62A.66.66,0,0,1,7.44,18.21Z"/><path d="M4.1,1.91H5.17l.73.73V4.53a2.17,2.17,0,0,1-2.44.92,1.67,1.67,0,0,1-1.1-1.6H3.52l.35.58H4.6l.32-1.11-.67-.56a3.19,3.19,0,0,1-.71.39,4.33,4.33,0,0,1-1,0,2.29,2.29,0,0,1,0-.91c.34-.68.14-1.52.65-2.17H5.64a.71.71,0,0,1,.08,1.13l-1.3-.15C4.1,1.29,3.93,1.52,4.1,1.91Z"/><path d="M4.11,5.56a3.74,3.74,0,0,1-.65-.06h0A1.73,1.73,0,0,1,2.31,3.85a0,0,0,0,1,0-.05H3.52l0,0,.33.56h.66l.3-1-.62-.51a1.1,1.1,0,0,0-.14.09,1.73,1.73,0,0,1-.54.28,2.38,2.38,0,0,1-.66,0H2.58a.06.06,0,0,1-.05-.06,2.83,2.83,0,0,0,0-.29,1.23,1.23,0,0,1,.05-.64,3.17,3.17,0,0,0,.23-.93A2.43,2.43,0,0,1,3.21.05a.05.05,0,0,1,0,0H5.68A.89.89,0,0,1,6,.62a.91.91,0,0,1-.26.63h0L4.44,1.12c-.29.21-.44.41-.31.74h1l0,0,.73.73s0,0,0,0V4.53a0,0,0,0,1,0,0A2,2,0,0,1,4.11,5.56ZM3.48,5.4a2.1,2.1,0,0,0,2.36-.88V2.66L5.14,2h-1a.05.05,0,0,1,0,0c-.19-.44,0-.7.34-.91h0l1.27.15A.79.79,0,0,0,5.91.63a.75.75,0,0,0-.29-.5H3.28a2.47,2.47,0,0,0-.39,1.19,2.89,2.89,0,0,1-.24,1,1,1,0,0,0,0,.59,2.11,2.11,0,0,0,0,.25h.27a2.52,2.52,0,0,0,.62,0A1.92,1.92,0,0,0,4,2.83l.18-.11a.06.06,0,0,1,.06,0L5,3.28s0,0,0,.06l-.32,1.1a.05.05,0,0,1-.05,0H3.87l-.05,0L3.49,3.9H2.42A1.59,1.59,0,0,0,3.48,5.4Z"/><path d="M150.71,99.56a2.77,2.77,0,0,0,0,.37,1.24,1.24,0,0,0,0,.23h.87l1,1v1.76l-1.15,1A2.11,2.11,0,0,1,149,103v-.65h1.2a.64.64,0,0,0,.86.55l.56-1-.8-.62-1.35.38-.3-.33.37-2.12-.17-.18.31-.43h2.65v1Z"/><path d="M150.75,104a2.17,2.17,0,0,1-1.78-1,0,0,0,0,1,0,0v-.65a0,0,0,0,1,0,0h1.2a.05.05,0,0,1,.06,0c.09.44.32.59.77.51l.52-1-.74-.57-1.33.37s0,0-.05,0l-.3-.32s0,0,0,0l.36-2.1,0,0-.13-.14a0,0,0,0,1,0-.06l.3-.44.05,0h2.65a.06.06,0,0,1,0,.06v1a0,0,0,0,1,0,0h-1.58a.38.38,0,0,0,0,.1,1.86,1.86,0,0,0,0,.22.69.69,0,0,0,0,.13v0h.87l.94.95a.05.05,0,0,1,0,0v1.76a.05.05,0,0,1,0,0l-1.15,1h0A2.61,2.61,0,0,1,150.75,104Zm-1.69-1a2,2,0,0,0,2.31.86l1.12-1v-1.72l-.91-.92h-.85a.05.05,0,0,1,0,0s0-.06,0-.09a.8.8,0,0,1,0-.15c0-.06,0-.13,0-.22a.76.76,0,0,0,0-.15.06.06,0,0,1,.06,0h1.58V98.6h-2.58l-.26.37.14.15h0a.07.07,0,0,1,0,.06l-.37,2.09.27.28,1.32-.37h.05l.79.62a0,0,0,0,1,0,.06l-.55,1s0,0,0,0a.67.67,0,0,1-.91-.55h-1.11Z"/><path d="M6.33,80.79l.87-1.1H8.83l.85,1v3l-.85,1.11H7.27l-.73-.84A12.29,12.29,0,0,1,6.33,80.79Zm1.87-.34a2.46,2.46,0,0,0,0,3.65,3.93,3.93,0,0,0,0-3.65Z"/><path d="M8.83,84.94H7.27l0,0-.73-.83s0,0,0,0A5.1,5.1,0,0,1,6.29,82c0-.39,0-.8,0-1.2a0,0,0,0,1,0,0l.87-1.11,0,0H8.83a.05.05,0,0,1,0,0l.85,1.06a0,0,0,0,1,0,0v3a0,0,0,0,1,0,0l-.85,1.11Zm-1.54-.11H8.8l.82-1.07v-3l-.81-1H7.23L6.38,80.8c0,.41,0,.81,0,1.2a5.34,5.34,0,0,0,.19,2Zm.91-.67h0a2.52,2.52,0,0,1,0-3.74h0l0,0a4.89,4.89,0,0,1,.45,1.85,4.84,4.84,0,0,1-.45,1.84s0,0,0,0Zm0-3.62a2.46,2.46,0,0,0,0,3.48,4.64,4.64,0,0,0,.43-1.74A4.55,4.55,0,0,0,8.17,80.54Z"/><path d="M8.76,31.9l.51.51a1.38,1.38,0,0,1,.43,1.08c0,.84,0,1.67,0,2.53l-.87,1.09H7.29l-.76-.87a6.72,6.72,0,0,1,.07-3.66l.71-.68Zm-.62,4.41a3.36,3.36,0,0,0,.48-2.08,2.6,2.6,0,0,0-.48-1.51,2.66,2.66,0,0,0-.47,3.12Z"/><path d="M8.83,37.17H7.29a.05.05,0,0,1,0,0l-.76-.87s0,0,0,0a6.73,6.73,0,0,1,.07-3.69s0,0,0,0l.71-.69,0,0H8.76l0,0L9,32l.36.35a1.47,1.47,0,0,1,.44,1.12c0,.59,0,1.17,0,1.78V36s0,0,0,0l-.87,1.09Zm-1.52-.11H8.8L9.64,36v-.74c0-.61,0-1.19,0-1.78a1.35,1.35,0,0,0-.42-1l-.36-.36L8.73,32H7.33l-.69.66a6.73,6.73,0,0,0-.06,3.61Zm.83-.7h0l-.47-.48h0a2.74,2.74,0,0,1,.48-3.18,0,0,0,0,1,.07,0,1.82,1.82,0,0,1,.45,1.16,2.32,2.32,0,0,0,.06.38,3.41,3.41,0,0,1-.5,2.12l0,0Zm-.43-.55.42.41a3.25,3.25,0,0,0,.44-2l-.06-.39a1.75,1.75,0,0,0-.37-1.06A2.64,2.64,0,0,0,7.71,35.81Z"/><path d="M64.28,100.18c-.42,0-.78.07-1-.45l.88-1.2h1.77l.73.84c.3,1.38-.66,2.31-1.76,3.29H66.7c-.1.48.19.94-.33,1.29h-3l-.28-.39s0-.13.1-.22a6,6,0,0,1,1.18-1.6,4.64,4.64,0,0,0,.73-.74,5.62,5.62,0,0,0,.46-1L65,99.18a6.48,6.48,0,0,1-.34.61A4.55,4.55,0,0,1,64.28,100.18Z"/><path d="M66.37,104h-3l0,0-.28-.38a.07.07,0,0,1,0-.06l0,0a1,1,0,0,1,.09-.18,6.07,6.07,0,0,1,1.18-1.62l.05,0a5.53,5.53,0,0,0,.68-.69,2.8,2.8,0,0,0,.3-.6c.05-.1.09-.2.14-.31L65,99.29l-.09.18c-.08.14-.13.25-.2.35a3.31,3.31,0,0,1-.26.27l-.13.12a.05.05,0,0,1,0,0h0c-.4,0-.78.06-1-.48,0,0,0,0,0,0l.88-1.2,0,0h1.77a0,0,0,0,1,0,0l.73.83s0,0,0,0c.31,1.42-.72,2.39-1.67,3.24H66.7l0,0a.07.07,0,0,1,0,0,1.63,1.63,0,0,0,0,.44.86.86,0,0,1-.34.88Zm-3-.11h2.93c.32-.21.3-.47.28-.77a2.81,2.81,0,0,1,0-.41H64.91a.07.07,0,0,1,0,0,0,0,0,0,1,0,0c1.19-1.07,2-1.92,1.74-3.23l-.71-.81H64.19l-.84,1.16c.19.44.5.42.88.39h0l.12-.12a1.48,1.48,0,0,0,.24-.26,2.84,2.84,0,0,0,.2-.33l.13-.26a.05.05,0,0,1,0,0,.05.05,0,0,1,0,0l.59.86a.06.06,0,0,1,0,.06c-.06.11-.1.22-.15.33a3,3,0,0,1-.32.62,4.62,4.62,0,0,1-.69.71l0,0a5.86,5.86,0,0,0-1.16,1.59.85.85,0,0,0-.08.17v0Zm.86-3.71Z"/><path d="M2.6,49.25c0-.72.11-1,1.12-1.64H5l.9.94v1A6.5,6.5,0,0,1,4,52H5.88V53H2.33c.07-.24.11-.45.19-.65a5.2,5.2,0,0,1,1.4-1.82,2.88,2.88,0,0,0,.75-1.06c0-.17,0-.26,0-.31s-.23-.37-.38-.61a2.51,2.51,0,0,0-.33.28,2.08,2.08,0,0,0-.18.39Z"/><path d="M5.88,53.08H2.33a0,0,0,0,1,0,0,.06.06,0,0,1,0,0l.06-.23a3.06,3.06,0,0,1,.13-.43,5.26,5.26,0,0,1,1.42-1.84,2.94,2.94,0,0,0,.73-1v-.15a.23.23,0,0,0,0-.12c-.08-.14-.16-.27-.26-.42l-.09-.14-.08.06a1.18,1.18,0,0,0-.2.17,1.67,1.67,0,0,0-.11.23l-.06.15a.05.05,0,0,1,0,0H2.6l0,0,0,0c0-.72.11-1,1.15-1.68H5l0,0,.9.94a0,0,0,0,1,0,0v1A4.43,4.43,0,0,1,4.6,51.42c-.16.15-.32.31-.47.48H5.88a0,0,0,0,1,0,.05V53A0,0,0,0,1,5.88,53.08ZM2.4,53H5.83V52H4a.05.05,0,0,1,0,0s0,0,0,0c.18-.2.37-.39.56-.57a4.48,4.48,0,0,0,1.31-1.84v-.94L5,47.66H3.74c-1,.59-1.07.88-1.08,1.53H3.74s0-.07,0-.11a1.05,1.05,0,0,1,.13-.26,1.44,1.44,0,0,1,.22-.19l.12-.09h0l0,0,.12.19.26.43s0,.1,0,.18a.66.66,0,0,0,0,.15v0A3,3,0,0,1,4,50.6a5.15,5.15,0,0,0-1.4,1.8,4.21,4.21,0,0,0-.12.42S2.41,52.92,2.4,53Z"/><path d="M120.32,102.74v-1c.68-1.09,1.32-2.12,2-3.15h1.16v3.28h.6l0,.8-.78.24.18.77-.34.31c-.32,0-.67.11-.94-.31v-.89Zm1.83-2.4-.87,1.49h.87Z"/><path d="M122.81,104a.74.74,0,0,1-.66-.36v-.87h-1.83a0,0,0,0,1,0-.05v-1a0,0,0,0,1,0,0l2-3.15a.05.05,0,0,1,0,0h1.16a0,0,0,0,1,0,.05v3.23H124a0,0,0,0,1,0,0l.06.79a.07.07,0,0,1,0,.06l-.73.23.16.71a0,0,0,0,1,0,0l-.35.32h-.08Zm-.56-.41a.72.72,0,0,0,.83.28h0l.31-.28-.17-.74a.05.05,0,0,1,0-.06l.74-.23,0-.71h-.55a0,0,0,0,1-.05-.05V98.59H122.3l-1.93,3.11v1h1.83a0,0,0,0,1,0,0Zm-.1-1.73h-.87l0,0a.06.06,0,0,1,0-.06l.86-1.49s0,0,.06,0a.05.05,0,0,1,0,0v1.49A0,0,0,0,1,122.15,101.88Zm-.77-.1h.72v-1.24Z"/><path d="M95.38,102.7a4.34,4.34,0,0,1-.45.75,4.27,4.27,0,0,1-.8.48H93.2l-1-.5-.29-1.1h1.13l.43.54a1,1,0,0,0,.8-.7c-.26-.33-.27-1-1-.68l0-.49.76-1-.31-.57-.83.81-1-.33,1-1.38h1.61l.68.68v1.21l-.5.33.74.81Z"/><path d="M94.13,104h-.95l-1-.5,0,0-.29-1.11a.06.06,0,0,1,0,0l0,0h1.13a.05.05,0,0,1,0,0l.41.51a.94.94,0,0,0,.72-.63,2.69,2.69,0,0,1-.16-.29c-.14-.3-.27-.57-.76-.35h0a.08.08,0,0,1,0,0l0-.49s0,0,0,0l.73-1-.26-.48-.78.76a0,0,0,0,1-.05,0l-1-.33s0,0,0,0a0,0,0,0,1,0,0l1-1.38,0,0H94.5l.68.68a.06.06,0,0,1,0,0v1.21a0,0,0,0,1,0,0l-.45.3.7.77a0,0,0,0,1,0,0v1.13a0,0,0,0,1,0,0l-.15.28a1.89,1.89,0,0,1-.31.48,2.1,2.1,0,0,1-.48.31l-.32.18Zm-.91-.1h.9l.31-.17a1.66,1.66,0,0,0,.46-.3,2.06,2.06,0,0,0,.29-.45,1.82,1.82,0,0,1,.15-.27v-1.1l-.73-.79a.09.09,0,0,1,0,0s0,0,0,0l.48-.32V99.24l-.65-.65H92.88L92,99.89l.93.3.81-.78a0,0,0,0,1,0,0s0,0,0,0l.31.57a.06.06,0,0,1,0,.06l-.75,1,0,.4c.53-.21.69.13.83.43a1.35,1.35,0,0,0,.16.29.07.07,0,0,1,0,0,1,1,0,0,1-.84.73s0,0-.05,0l-.41-.52H92l.27,1Zm2.16-1.18Z"/><path d="M2.67,36.76,2.34,36c.34-.49.34-.49,1-.5.33.22.28.8.93.7l.39-.55c0-.68,0-.68-.77-.83v-.72l.53-.3c0-.11,0-.17.06-.23a.72.72,0,0,0-.36-.81l-.39.61H2.58a1.69,1.69,0,0,1,.73-1.44H5l.69.7v1.11l-.6.6c1,.32.84,1.14.84,1.88l-.9.9C3.53,37.17,3.53,37.17,2.67,36.76Z"/><path d="M4,37.18a2.47,2.47,0,0,1-1.35-.37l0,0L2.29,36a0,0,0,0,1,0-.05c.36-.5.38-.51,1-.52h0a.86.86,0,0,1,.27.33c.12.22.23.41.6.36l.37-.52c0-.62,0-.62-.73-.76a.05.05,0,0,1,0-.05v-.72s0,0,0,0l.51-.3,0-.07a.83.83,0,0,0,0-.13.67.67,0,0,0-.28-.73l-.36.57,0,0H2.58a.07.07,0,0,1-.05,0,1.79,1.79,0,0,1,.74-1.49H5l.7.7a.05.05,0,0,1,0,0v1.11l0,0-.54.55c.82.3.81,1,.8,1.62v.28a.08.08,0,0,1,0,0l-.9.9H5C4.57,37.17,4.25,37.18,4,37.18Zm-1.29-.46c.83.39.84.4,2.29.32l.87-.87V35.9c0-.65,0-1.27-.8-1.54a.08.08,0,0,1,0,0s0,0,0,0l.58-.59V32.62L5,32H3.33a1.67,1.67,0,0,0-.7,1.34H3.68l.38-.59a.06.06,0,0,1,.07,0,.78.78,0,0,1,.38.86l0,.15,0,.09s0,0,0,0l-.51.29v.65c.76.15.78.17.78.87,0,0,0,0,0,0l-.4.55,0,0a.62.62,0,0,1-.73-.41.91.91,0,0,0-.22-.28c-.59,0-.61,0-.92.44Z"/><path d="M5.26,19.29l.63.07v1l-.58.09v1H4.25v-.9l-.32-.32c-.43.05-.94-.14-1.36.23-.63-.26-.34-.77-.4-1.05L4.22,16h1Zm-1-1.35-.12-.11c-.16.25-.33.49-.48.75s-.24.48-.36.72h1Z"/><path d="M5.31,21.43H4.25a0,0,0,0,1,0-.05V20.5l-.29-.28c-.12,0-.25,0-.37,0a1.16,1.16,0,0,0-.93.21.07.07,0,0,1-.06,0,.69.69,0,0,1-.44-.84,1.09,1.09,0,0,0,0-.25,0,0,0,0,1,0,0L4.18,16s0,0,0,0h1a.06.06,0,0,1,0,.06v3.24l.58.07a.06.06,0,0,1,.06.05v1s0,0,0,.05l-.54.09v.91A0,0,0,0,1,5.31,21.43Zm-1-.1h1v-.91s0-.05,0-.05l.54-.09v-.87l-.59-.07s0,0,0-.05V16.05h-1l-2,3.3a1.13,1.13,0,0,1,0,.26c0,.27-.05.55.34.72a1.35,1.35,0,0,1,1-.22,2.54,2.54,0,0,0,.39,0,0,0,0,0,1,0,0l.32.31a.06.06,0,0,1,0,0Zm-.08-2h-1l0,0a.06.06,0,0,1,0-.06,2.26,2.26,0,0,0,.11-.22,4.74,4.74,0,0,1,.26-.5c.1-.18.22-.35.33-.52l.15-.23s0,0,0,0h0l.12.11a.08.08,0,0,1,0,0V19.3A.06.06,0,0,1,4.22,19.35Zm-.88-.1h.83V18l-.06-.05a1.74,1.74,0,0,0-.11.18c-.11.16-.23.34-.33.51s-.17.33-.25.49S3.37,19.2,3.34,19.25Z"/><path d="M2.6,65.57v-.82l1.65-1.2h.6v5.39l-1,0V65.23C3.39,65.36,3.09,65.76,2.6,65.57Z"/><path d="M3.84,69h0a.08.08,0,0,1,0,0V65.3a1.91,1.91,0,0,0-.32.16,1,1,0,0,1-.88.16.05.05,0,0,1,0-.05v-.82a.08.08,0,0,1,0,0l1.65-1.2h.63a.05.05,0,0,1,.05,0v5.39a.05.05,0,0,1-.05,0l-1,.05Zm0-3.87h0a.08.08,0,0,1,0,0v3.7l.9,0V63.6H4.27L2.65,64.78v.75a.87.87,0,0,0,.76-.16,1.92,1.92,0,0,1,.41-.19Z"/><path d="M5.05,100.8h-1V97l-1.24.73v-1l1.58-1.33h.64Z"/><path d="M5.05,100.85h-1a.06.06,0,0,1-.06,0V97.11l-1.16.68H2.8s0,0,0,0v-1a.08.08,0,0,1,0,0l1.58-1.33h.68a0,0,0,0,1,0,0v5.41A0,0,0,0,1,5.05,100.85Zm-.93-.11H5v-5.3H4.42L2.88,96.75v.91L4,97a0,0,0,0,1,0,0s0,0,0,0Z"/><path d="M34.86,100.69v-1l1.66-1.21h.59v5.39c-.36,0-.7.13-1-.29v-3.51Z"/><path d="M36.72,104a.77.77,0,0,1-.67-.35s0,0,0,0V100.2l-1.16.53h-.05a.08.08,0,0,1,0,0v-1a.08.08,0,0,1,0,0l1.66-1.2h.62a.05.05,0,0,1,0,0v5.39a0,0,0,0,1,0,0H37A1.66,1.66,0,0,1,36.72,104Zm-.57-.4a.76.76,0,0,0,.88.27h0v-5.3h-.52l-1.62,1.18v.84l1.16-.53h0a.05.05,0,0,1,0,.05Z"/><path d="M2.35,98.55v.77H.09l0-.77Z"/><path d="M2.35,99.37H.09a.05.05,0,0,1,0-.05l0-.77a.06.06,0,0,1,0,0H2.35a.05.05,0,0,1,0,0v.77A.05.05,0,0,1,2.35,99.37ZM.14,99.26H2.29V98.6H.11Z"/></g></g></svg>