<svg xmlns="http://www.w3.org/2000/svg" viewBox="0 0 118.09 91.35"><title>Recurso 18ART</title><g id="Capa_2" data-name="Capa 2"><g id="Capa_1-2" data-name="Capa 1"><path d="M102,75.23V59.35c-.28-.38-.67-.22-1-.23H96.86c-.11-.14-.18-.19-.2-.26a.77.77,0,0,1,0-.22V54c-.07-.07-.11-.14-.17-.17a.38.38,0,0,0-.21,0h-4.8c-.11.17-.17.23-.18.29a.81.81,0,0,0,0,.22V64.1a1,1,0,0,1,0,.25c-.53.32-1.13.08-1.7.13s-1.2,0-1.79,0a4.9,4.9,0,0,0-1.81.12V80.36c-.13.13-.18.21-.24.23a.53.53,0,0,1-.22,0h-4.7c-.38.27-.22.67-.23,1,0,2.83,0,5.67,0,8.5v1c-.14.11-.19.2-.25.2H27s-.1-.1-.14-.16a.37.37,0,0,1-.07-.19V86c1.78-.06,3.47,0,5.17,0,.05-.06.12-.1.15-.17a.33.33,0,0,0,0-.2V75.36a5.67,5.67,0,0,0-1.85-.12c-.52,0-1.05,0-1.57,0H27a1.08,1.08,0,0,1-.19-.2.49.49,0,0,1,0-.21q0-13.09,0-26.18c0-.06-.08-.11-.15-.22h-5a.83.83,0,0,0-.16.17.55.55,0,0,0,0,.22v4.7c-.27.38-.67.23-1,.23H10.92c-.12-.13-.21-.19-.21-.24q0-7.83,0-15.67c.54-.38,1.15-.15,1.71-.19s1.2,0,1.79,0h1.68a1.48,1.48,0,0,0,.19-.28.81.81,0,0,0,0-.22v-4.7c.57-.35,1.18-.12,1.75-.16s1.19,0,1.79,0a5.19,5.19,0,0,0,1.82-.12v-5c.13-.13.17-.2.23-.23a.55.55,0,0,1,.22,0q26.52,0,53,0s.11.08.24.19V32a1.44,1.44,0,0,0,.24.23.54.54,0,0,0,.22,0H85.68c.37.27.22.67.22,1,0,1.4,0,2.81,0,4.14.14.12.19.18.25.2a.59.59,0,0,0,.23,0h4.7c.37.55.14,1.15.18,1.72s0,1.2,0,1.79v1.73a5.41,5.41,0,0,0,1.85.12c.53,0,1.05,0,1.57,0h1.78c.36.58.12,1.19.16,1.76s0,1.19,0,1.79a4.91,4.91,0,0,0,.13,1.81h5a1.44,1.44,0,0,1,.23.24.54.54,0,0,1,0,.22v4.7c.27.36.67.21,1,.22h4.32c.07,1.78,0,3.48,0,5.21.53.34,1.14.11,1.71.16s1.19,0,1.79,0a5.83,5.83,0,0,1,1.8.1v10.5c-.53.32-1.14.09-1.71.13s-1.19,0-1.79,0a4.71,4.71,0,0,0-1.81.13v5c-.13.15-.18.22-.24.25a.81.81,0,0,1-.22,0ZM64.47,48.37h4.65a3.38,3.38,0,0,1,.45,0c.06,0,.11.1.24.23v5a4.91,4.91,0,0,0,1.81.13c.6,0,1.2,0,1.79,0s1.18-.2,1.76.16V55.7c0,.53,0,1,0,1.57a5.69,5.69,0,0,0,.13,1.85h4.87a.49.49,0,0,0,.2,0,1.35,1.35,0,0,0,.17-.17V54.43a2.16,2.16,0,0,1,0-.44c0-.06.09-.11.2-.25h5a85.71,85.71,0,0,0,0-10.77H75.29a5.43,5.43,0,0,1-.12-1.82c0-.59,0-1.19,0-1.79s.18-1.17-.17-1.73H64.68c-.05,0-.11.09-.21.17Z"/><path d="M112.77,26.88c-5.29,0-10.58,0-15.87,0-.06,0-.11-.09-.24-.21V21.73c-.13-.12-.18-.2-.24-.21a3.38,3.38,0,0,0-.45,0H80.77c-.37-.27-.22-.67-.23-1,0-1.4,0-2.81,0-4.14-.14-.12-.2-.2-.25-.2h-21a1.14,1.14,0,0,1-.15-.16.37.37,0,0,1-.07-.19V11a2.55,2.55,0,0,1,.26-.21.81.81,0,0,1,.22,0h4.7c.37-.55.14-1.16.18-1.72s0-1.2,0-1.79V5.58c.17-.11.23-.18.29-.18H75c.34.57.11,1.17.16,1.74s0,1.19,0,1.79a5.12,5.12,0,0,0,.12,1.81H85.72c.37.62.14,1.22.18,1.79s0,1.19,0,1.79a4.84,4.84,0,0,0,.12,1.8h15.81c.35.62.13,1.22.17,1.8s0,1.19,0,1.78v1.81h10.48c.15.13.24.18.25.23a2.26,2.26,0,0,1,0,.45Z"/><path d="M16.08,5.4v5.17c.13.11.19.19.24.19H26.59a.81.81,0,0,1,.16.16.37.37,0,0,1,.07.2v4.8c-.15.12-.2.21-.26.21H.21C.15,16.13.1,16.05,0,16V10.9c.58-.29,1.18-.08,1.75-.12s1.19,0,1.79,0H7.11c.6,0,1.19,0,1.79,0a4.66,4.66,0,0,0,1.8-.13v-5c.13-.12.18-.21.24-.22a3.23,3.23,0,0,1,.44,0Z"/><path d="M48.31,5.4V.28c0-.06.09-.11.17-.21H58.87A.67.67,0,0,1,59,.22a.45.45,0,0,1,0,.2V5.21c-.16.11-.22.18-.28.18Z"/><path d="M102,75.23c0,1.7,0,3.41,0,5.11,0,.06-.08.11-.16.22h-5a1,1,0,0,1-.14-.15.44.44,0,0,1,0-.2c0-1.62,0-3.24,0-4.78.16-.11.21-.19.27-.19Z"/><path d="M21.49,5.27V.15A4.33,4.33,0,0,1,23.24,0,15.1,15.1,0,0,1,25,0a4.59,4.59,0,0,1,1.76.12V5.27A4.34,4.34,0,0,1,25,5.39a13.22,13.22,0,0,1-1.78,0A4.58,4.58,0,0,1,21.49,5.27Z"/><path d="M48.31,5.4c0,1.7,0,3.4,0,5.1,0,.06-.08.12-.16.22h-5a.92.92,0,0,1-.14-.14.49.49,0,0,1,0-.21c0-1.62,0-3.23,0-4.77.16-.12.21-.2.27-.2Z"/><path d="M112.77,26.88h5.11c.05,0,.11.08.21.16v5a.47.47,0,0,1-.14.14.49.49,0,0,1-.21,0H113c-.11-.16-.19-.21-.19-.27C112.77,30.29,112.77,28.59,112.77,26.88Z"/></g></g></svg>