<svg xmlns="http://www.w3.org/2000/svg" viewBox="0 0 125.52 96.83"><defs><style>.cls-1{fill:none;stroke:#211915;stroke-miterlimit:10;stroke-width:2.1px;}</style></defs><title>Recurso 30MODERN ICON</title><g id="Capa_2" data-name="Capa 2"><g id="Capa_1-2" data-name="Capa 1"><line class="cls-1" x1="67.59" y1="56.45" x2="124.47" y2="56.45"/><line class="cls-1" x1="124.47" y1="48.37" x2="124.47" y2="64.52"/><line class="cls-1" x1="67.59" y1="72.6" x2="103.58" y2="72.6"/><line class="cls-1" x1="103.58" y1="64.52" x2="103.58" y2="80.68"/><line class="cls-1" x1="67.59" y1="88.75" x2="87.64" y2="88.75"/><line class="cls-1" x1="87.64" y1="80.68" x2="87.64" y2="96.83"/><line class="cls-1" x1="57.93" y1="56.45" x2="1.05" y2="56.45"/><line class="cls-1" x1="1.05" y1="48.37" x2="1.05" y2="64.52"/><line class="cls-1" x1="57.93" y1="72.6" x2="21.93" y2="72.6"/><line class="cls-1" x1="21.93" y1="64.52" x2="21.93" y2="80.68"/><line class="cls-1" x1="57.93" y1="88.75" x2="37.88" y2="88.75"/><line class="cls-1" x1="37.88" y1="80.68" x2="37.88" y2="96.83"/><line class="cls-1" x1="57.93" y1="40.38" x2="1.05" y2="40.38"/><line class="cls-1" x1="1.05" y1="48.46" x2="1.05" y2="32.3"/><line class="cls-1" x1="57.93" y1="24.23" x2="21.93" y2="24.23"/><line class="cls-1" x1="21.93" y1="32.3" x2="21.93" y2="16.15"/><line class="cls-1" x1="57.93" y1="8.08" x2="37.88" y2="8.08"/><line class="cls-1" x1="37.88" y1="16.15" x2="37.88"/><line class="cls-1" x1="67.59" y1="40.38" x2="124.47" y2="40.38"/><line class="cls-1" x1="124.47" y1="48.46" x2="124.47" y2="32.3"/><line class="cls-1" x1="67.59" y1="24.23" x2="103.58" y2="24.23"/><line class="cls-1" x1="103.58" y1="32.3" x2="103.58" y2="16.15"/><line class="cls-1" x1="67.59" y1="8.08" x2="87.64" y2="8.08"/><line class="cls-1" x1="87.64" y1="16.15" x2="87.64"/></g></g></svg>