<svg xmlns="http://www.w3.org/2000/svg" viewBox="0 0 109.36 131.38"><title>Recurso 57ART</title><g id="Capa_2" data-name="Capa 2"><g id="Capa_1-2" data-name="Capa 1"><path d="M1.68,92.68V87.54l.07-.05H3.3c.11-.18,0-.37.05-.54s0-.38,0-.56v-.57H5a24.94,24.94,0,0,0,0-3.24H3.42l-.07-.08V79.28c-.17-.12-.36,0-.54-.06s-.37,0-.56,0H1.73c0-.06-.06-.07-.06-.09v-15c-.18-.12-.37,0-.55-.06H0V38.75l.06-.06H1.6c.11-.09.07-.21.07-.32v-8c.05,0,.06-.06.08-.06s.05,0,.07,0H3.28l.06-.06a.17.17,0,0,0,0-.07V27s0,0,.06-.08H5c.11-.2,0-.39,0-.57s0-.37,0-.56a1.35,1.35,0,0,1,0-.56H6.65s.06-.06.06-.08a.66.66,0,0,0,0-.14V21.92c.17-.11.36,0,.54-.05a5.19,5.19,0,0,1,.56,0h.54a1.67,1.67,0,0,0,0-.58c0-.16,0-.32,0-.49v-.55c.18-.12.37,0,.55-.06s.38,0,.56,0a1.6,1.6,0,0,0,.57,0V16.89s.06-.07.08-.07H11.7l.05,0s0,0,0-.06c0-.51,0-1,0-1.51l.08-.06h3.23c.11-.18,0-.37.05-.54s0-.38,0-.56a1.59,1.59,0,0,1,0-.57h1.57l.07-.08s0-.05,0-.07V11.84c.09-.12.21-.07.32-.07h1.3s.06-.06.06-.08a.17.17,0,0,0,0-.07V10.14c.17-.11.36,0,.54-.05s.37,0,.56,0a1.85,1.85,0,0,0,.57,0V8.46c.19-.12.38,0,.56-.06H23a1.55,1.55,0,0,0,.56,0V6.79s.06-.07.08-.07h4.91c.12-.17,0-.36.06-.54s0-.37,0-.56V5.08a1.67,1.67,0,0,1,.58,0H31.9c.12-.18,0-.37.05-.55s0-.38,0-.56a1.78,1.78,0,0,1,0-.56h6.5l.16.15,0,0V5l-.21.21h-1.4L37,5.23V6.62l-.17.19-.07.05H33.7s0,0-.05,0a.15.15,0,0,0,0,.07V8.34l-.25.21H30.34s-.06,0-.06.07a.16.16,0,0,0,0,.07V10l-.21.21H28.61v4.86s0,.05.06.05h1.4l.2.21v1.42L30,17H28.65l-.06.08v4.75l-.21.21H27c-.12.09-.07.21-.07.32v2.83l-.19.21h-3.1c-.13.17-.06.34-.07.49a5.23,5.23,0,0,0,0,.56.88.88,0,0,0,.05.5H25l.17.17,0,.06v3a.17.17,0,0,0,0,.07s0,0,.05.05h1.42l.19.23v3.06l-.19.2H25.28a26.67,26.67,0,0,0,0,3.23H30l.19.17s0,0,0,.07a.61.61,0,0,1,0,.14v2.87a.2.2,0,0,0,0,.07l.05,0h1.42l.19.24V42l-.19.2H28.65c-.07.6-.08,4.21,0,4.9H30l.19.18s0,0,0,.06a.71.71,0,0,1,0,.14v1.24l-.21.22H28.66l-.05,0a.14.14,0,0,0,0,.06v1.37l.09.06h4.75l.21.21v1.4c.09.12.21.07.32.07h6.19l.21.2v1.4l.08.08s0,0,.06,0c1,0,2,0,3,0l.21.24v1.4a1.11,1.11,0,0,0,.5.05h1l.21.21v3.08c.09.12.21.07.32.07h2.82l.22.2v3.11c.19.11.38,0,.56.06h.56a1.62,1.62,0,0,0,.57,0V57.27l.07-.07h1.4l.21.21v3.07s0,0,.06.08h1.41l.17.18a.07.07,0,0,1,0,0,.65.65,0,0,1,0,.14v2.93l.06.06H55.3l.2.2v1.42l-.15.16s0,0-.06,0a.65.65,0,0,1-.14,0H53.89c-.11-.18,0-.37,0-.55a5.19,5.19,0,0,1,0-.56v-.55H52.21l-.06,0v1.4l-.21.21H50.47v6.52l-.17.17s0,0,0,0H48.86s0,0-.06.05a.15.15,0,0,0,0,.07v3l-.21.22H47.17l-.07.08V79l.06,0,.06,0h1.35l.21.2v1.4a.28.28,0,0,0,.08.08h3.22c.12-.09.07-.21.07-.32v-1.3c.05,0,.06-.06.08-.06h3.08l.21.21v1.46H57l.2.18a1.12,1.12,0,0,1,0,.48v1l.06.06h1.42l.21.25v4.74l.08.06s0,0,.06,0h1.32l.21.21c0,1,0,2,0,3.08,0,0,0,0,0,.06H62l.2.19c0,.71.07,11.4,0,13.23l-.19.2H60.63s0,0-.05.05a.13.13,0,0,0,0,.06c0,.44,0,.89,0,1.35l-.19.21H57.28l-.08.08s0,0,0,.07v1.34l-.21.19H53.92s0,0-.08.05V111l-.21.23H52.22a19.38,19.38,0,0,0,0,3.19,1.3,1.3,0,0,0,.48,0c.16,0,.32,0,.49,0h.47l.21.21v6.46l-.21.21H48.79v-1.63c-.19-.11-.38,0-.56,0a3.49,3.49,0,0,0-.56,0,1.71,1.71,0,0,0-.55,0v1.41l-.19.2a1.11,1.11,0,0,1-.48,0h-1a.17.17,0,0,0-.06.06.13.13,0,0,0,0,.06v1.36l-.22.18H40.42l-.05-.07v-1.53a24,24,0,0,0-3.35,0v4.82s0,0,0,0,0,0,.07,0h3l.19.22v3.08l-.19.21H37.09c-.05,0-.08.05-.08.07a.66.66,0,0,0,0,.14v1.26l-.21.21H32l-.08-.06v-10s-.05-.06-.07-.07-.05,0-.07,0c-.49,0-1,0-1.49,0a.61.61,0,0,1,0-.18V112.9a.69.69,0,0,1,0-.13l.05,0h1.54l.05-.06a.11.11,0,0,0,0-.06v-1.38a1.69,1.69,0,0,0-.58,0H30.33c-.11-.19,0-.37,0-.55s0-.38,0-.56a1.39,1.39,0,0,0,0-.57H28.66l-.07-.08v-1.54c-.16-.12-.35,0-.53-.06a5.28,5.28,0,0,0-.56,0H27a1.62,1.62,0,0,1,0-.57c0-.17,0-.33,0-.49v-.55s0,0-.06-.06H23.63s0,0-.08-.06v-1.55l-.08-.07H11.84c-.12-.09-.07-.21-.07-.32,0-.44,0-.88,0-1.36-.56,0-1.09,0-1.63,0-.11-.17,0-.36-.05-.54s0-.37,0-.56a1.85,1.85,0,0,0,0-.57H8.46c-.12-.19,0-.38-.06-.56s0-.38,0-.56v-.57H6.79s-.07-.06-.07-.08a.65.65,0,0,1,0-.14v-1.4c-.17-.12-.36-.05-.54-.06s-.37,0-.56,0H5.08a1.67,1.67,0,0,1,0-.58c0-.16,0-.33,0-.49V96.1c-.18-.11-.37,0-.54,0a5.42,5.42,0,0,0-.57,0H3.36V92.75l-.08-.07s0,0-.07,0Zm13.45-5v1.4s0,0,.08.08h1.4l.2.21v1.35a.14.14,0,0,0,0,.06l.05.06h1.26a.65.65,0,0,1,.14,0l0,0,.17.17v1.47h.57a5.23,5.23,0,0,0,.56,0c.18,0,.37.07.55,0v-.55c0-.17,0-.33,0-.49a1.93,1.93,0,0,1,0-.54s.05,0,.07,0h3.22l.05,0v-1.4s0,0-.06-.08h-3c-.11,0-.23,0-.32-.07V87.7l-.07-.07H18.54a1.4,1.4,0,0,1,0-.57c0-.18,0-.37,0-.56s.06-.37,0-.56H16.87l-.06-.08V82.71a.17.17,0,0,0,0-.07l-.06-.06H16.2c-.16,0-.33,0-.49,0a1.94,1.94,0,0,1-.54,0s0,0,0-.07V79.34a.08.08,0,0,0,0-.07l0,0H13.53s0,0-.08-.06V74.49c0-.11,0-.23-.07-.32H12a.66.66,0,0,0-.14,0s0,0-.05,0a.51.51,0,0,0,0,.13c0,3.19,0,6.39,0,9.59a.53.53,0,0,0,.05.18h1.42l.22.23v3.09s.06,0,.08,0h1.38Zm30.3,31.76h1.46a.65.65,0,0,0,.14,0s0,0,.06-.06v-3.16h-.56a5.28,5.28,0,0,1-.56,0c-.18,0-.37.06-.56,0v-3.26a.65.65,0,0,0-.15,0H40.43s0,0-.06.06v.48c0,.16,0,.32,0,.49a1.13,1.13,0,0,1,0,.48l-.19.18h-1.4c-.07.69-.07,4.29,0,4.88h1.59a1.53,1.53,0,0,0,0-.56c0-.19,0-.38,0-.56s-.07-.37,0-.53h4.81l.2.21Zm-5-23.56H42s0,0,.05-.06a.37.37,0,0,0,0-.12c0-1.51,0-3,0-4.54A.48.48,0,0,0,42,91H40.58a.65.65,0,0,0-.14,0s0,0-.06.07ZM42,104.31c.06-.65.06-4.24,0-4.89H40.42c-.07.65-.07,4.23,0,4.89Zm11.82,3.36v-1.39s0,0,0-.07,0,0-.07-.07h-3c-.11,0-.24,0-.32.07v1.26a.65.65,0,0,0,0,.14s0,0,.06.06Zm-32-77.39h1.6s0,0,.07-.06V28.84a.14.14,0,0,0,0-.06l0-.05H21.94s0,0-.07.05ZM43.67,106s0,0,0,0c0-.48,0-1,0-1.49H42.61a1.24,1.24,0,0,0-.54,0v1.44s0,.06.06.06Zm1.74.14h-1.6s0,0-.07.07v1.36a.11.11,0,0,0,0,.06.12.12,0,0,0,.05.05h1.53s0,0,.07-.05ZM37,127.86a.88.88,0,0,0,0-.48,5.23,5.23,0,0,0,0-.56.84.84,0,0,0,0-.47H35.32v.48c0,.18,0,.37,0,.56a.84.84,0,0,0,0,.47Z"/><path d="M77.18,55.52l.21.21v1.46h3.14l.23.22v1.4l0,0,.06,0h4.72l.21.2v1.41s0,.06.07.07H89l.21.23v1.4a1.1,1.1,0,0,0,.5,0h1l.21.21v1.4s0,0,.05,0l.06,0h1.36l.21.2v1.41l.07.07s.05,0,.07,0H94l.19.22v3.08l-.19.2H92.61l-.07.08s0,0,0,.07v8.07l-.24.21H90.91s0,.06,0,.08a.17.17,0,0,0,0,.07v3a.13.13,0,0,1,0,.06l-.2.2h-1.4s0,0,0,0a.14.14,0,0,0,0,.06v1.35l-.19.21H87.57s-.07.06-.07.08a.15.15,0,0,0,0,.07v1.34l-.24.21h-1.4a1.09,1.09,0,0,0,0,.5c0,.16,0,.33,0,.49v.48L85.6,86H80.83c-.12-.09-.07-.21-.07-.32,0-.44,0-.88,0-1.3-.05,0-.06-.06-.08-.06H79.13c-.11-.17,0-.36,0-.53a5.42,5.42,0,0,1,0-.57v-.52L79,82.58H75.78l-.06.06a.17.17,0,0,0,0,.07v1.35l-.23.19h-1.4s0,0,0-.07,0,0,0-.07V81s0,0-.06-.06H70.75s0,0-.08-.05V79.3s0-.07-.07-.08,0,0-.07,0H67.38s0,0-.08-.06V77.61s-.06-.07-.08-.07H65.68c-.11-.08-.06-.21-.07-.32v-3l-.08-.06s0,0-.07,0H64c-.12-.18,0-.37-.06-.54s0-.38,0-.57a1.62,1.62,0,0,0,0-.57H60.64s-.06,0-.07-.07a.15.15,0,0,1,0-.07c0-.53,0-1.07,0-1.61,0,0,0,0,.06-.08h3.23s.07,0,.07-.07v-10c.09-.12.21-.07.32-.07h1.3l.06-.08V59.08c-.17-.11-.36,0-.54,0s-.37,0-.56,0A1.78,1.78,0,0,1,64,59V57.25s0,0,0,0h3.23l.07-.06V55.6c0-.05.06-.08.08-.08a.65.65,0,0,1,.14,0Z"/><path d="M90.85,100.94h3.36c0-.55,0-1.08,0-1.61l0,0H97.5l.08,0V97.65c.19-.12.38-.05.56-.06s.37,0,.56,0a1.4,1.4,0,0,0,.57,0V96s0-.06.07-.06h1.54a.12.12,0,0,0,.05-.05.14.14,0,0,0,0-.06V94.28l.08-.06h1.39l.21.21v1.41l-.23.21H101a1.27,1.27,0,0,0,0,.5v1l-.21.22h-1.4a.12.12,0,0,0,0,0,.14.14,0,0,0,0,.06v1.35l-.2.21H97.66l-.07.08s0,0,0,.07v1.34l-.24.21H96a1.25,1.25,0,0,0,0,.5v1l-.21.21H89.24s0,0,0,0a.14.14,0,0,0,0,.07v1.35l-.19.21H77.47s-.06,0-.07.07a.17.17,0,0,0,0,.07v1.35l-.22.19H75.76a.68.68,0,0,0-.05-.07.16.16,0,0,1,0-.07v-1.46l-.06-.06H72.43s0,0-.07,0v-5.1c.17-.1.36,0,.54,0H74V97.78s0,0-.06,0a.65.65,0,0,0-.14,0h-1.4l0-.06a.11.11,0,0,1,0-.06V94.46s0,0,0-.07a1.62,1.62,0,0,0-.54,0c-.17,0-.33,0-.49,0h-.55l-.06-.06a.15.15,0,0,1,0-.07V91.08s0,0-.06-.08H69.05S69,91,69,90.93s0-.05,0-.07V89.25c.08-.12.21-.07.32-.08h1.14l.19.17a1.3,1.3,0,0,1,0,.48c0,.17,0,.33,0,.49v.48l.07.06H85.61l.2.26v1.36l.08.06h4.75l.21.21c0,.46,0,.93,0,1.39,0,0,0,0,.06.08h1.4l.18.17,0,.06v1.4c.17.11.36,0,.54.05h.56a1.6,1.6,0,0,0,.57,0V94.3s.06-.07.08-.07H95.7l.19.21v3.09l-.19.2H90.93s-.07.06-.07.08a.61.61,0,0,0,0,.14Zm-1.68-6.58H87.49v.5c0,.18,0,.37,0,.55s0,.33.05.48h1.57s.06,0,.06-.06Zm0,3.23h1.6s0,0,.07-.06c0-.37,0-.77,0-1.16,0-.11.05-.23-.07-.32H89.24l-.06,0Z"/><path d="M101,23.54h1.45l.22.19v1.44l-.15.15a.31.31,0,0,1-.12.05H101c-.11-.17,0-.36-.06-.54s0-.37,0-.56v-.54a1.67,1.67,0,0,0-.58,0c-.16,0-.33,0-.49,0h-.56c-.11-.19,0-.38,0-.56s0-.37,0-.56V22h-1.6c0-.05-.07-.06-.08-.08s0-.05,0-.07V18.71l-.06-.05-.06,0H96l-.06-.09V17L95.84,17H92.62s0,0-.08-.05V15.35l-.07-.07H90.93c-.12-.08-.07-.21-.07-.32,0-.44,0-.88,0-1.29l-.08-.07H89.23c-.11-.17,0-.36-.06-.54s0-.37,0-.56v-.58H85.86c-.11-.19,0-.38,0-.56s0-.37,0-.56a1.35,1.35,0,0,0,0-.56H84.19c0-.05-.06-.06-.06-.08a.66.66,0,0,1,0-.14V8.61s0,0-.05,0l-.06,0H80.85s0,0-.07,0a1.93,1.93,0,0,1,0-.54c0-.16,0-.32,0-.49V6.93l-.06-.06H77.48s0,0-.08-.06V5.25l-.08-.07h-4.9c-.12-.09-.07-.22-.07-.32,0-.44,0-.88,0-1.3l-.08-.07H69C68.92,3.32,69,3.13,69,3s0-.37,0-.56a1.6,1.6,0,0,0,0-.57H64l-.07-.08s0,0,0-.06V.06L64,0h6.46l.17.15a1.13,1.13,0,0,1,0,.48c0,.17,0,.33,0,.5V1.6l.06.06h3.11l.2.25V3.29a.26.26,0,0,0,.08.06h3.07l.21.21V5h3.13l.2.18a1.32,1.32,0,0,1,0,.48v1l.06.06h3.1l.21.24V8.34l.08.06h3.07l.21.21V10c.08.12.21.07.32.07H89l.19.17a1.31,1.31,0,0,1,0,.48c0,.17,0,.33,0,.5v.47l.07.06h3.09l.21.24V13.4a1.1,1.1,0,0,0,.5,0c.17,0,.33,0,.49,0H94l.21.21v1.4c.09.12.21.07.32.07h2.82l.22.2v1.41s0,.06.07.07,0,0,.07,0h1.34l.22.24v3.08a1.08,1.08,0,0,0,.5.05c.16,0,.32,0,.49,0h.47l.21.21Z"/><path d="M109.36,60.5l-.21.21h-1.38l-.08,0V49c-.19-.12-.38-.05-.56-.06H106V38.75l.06-.06h1.4l.22.23v9.82a1.25,1.25,0,0,0,.5,0h1l.21.21Z"/><path d="M72.13,109.37a2.08,2.08,0,0,1,.21.21c0,2.13,0,4.28,0,6.43l0,.07H74c.1-.17,0-.36,0-.54s0-.37,0-.56a1.47,1.47,0,0,1,0-.55h1.45l.16.15s0,0,0,.06v3.07l-.21.21H74v1.45l-.18.19s0,0-.06,0a.65.65,0,0,1-.14,0H72.41l-.06-.06a.15.15,0,0,1,0-.07v-3.15s0,0-.06-.08H70.74s-.07,0-.08-.07v-1.54c-.08-.12-.21-.07-.32-.07H69s-.06-.06-.06-.08v-6.72s0,0,0,0l.07,0h1.34l.22.2v1.41s0,.07.07.07h1.4Z"/><path d="M62.25,119.47h1.47l.2.19v1.43c.2.11.39,0,.57,0a3.49,3.49,0,0,0,.56,0,1.35,1.35,0,0,0,.56,0v-1.57s.06-.07.08-.07h3.08l.2.21c0,.48,0,1,0,1.47h1.46l.17.17s0,0,0,.06a.65.65,0,0,1,0,.14v1.25l-.21.21H67.37s0,0-.06,0v1.39l-.18.2s0,0-.06,0H64c-.11-.18,0-.37,0-.55s0-.37,0-.56a1.6,1.6,0,0,0,0-.57H62.32s-.07,0-.07-.07a.65.65,0,0,1,0-.14Z"/><path d="M107.68,82.37l-.21.21H106v4.83l-.22.22h-1.4l-.07-.06V84.34l-.07-.07h-1.54c-.12-.08-.07-.2-.07-.31,0-1,0-2.1,0-3.12,0,0,.06-.07.08-.07a.65.65,0,0,1,.14,0h1.4c.11-.09.06-.21.06-.32,0-.89,0-1.78,0-2.66v-.32l.07-.06h1.4l.21.21V79s0,0,0,.08h1.4l.23.21Z"/><path d="M102.65,30.42V27l.06-.05h1.4l.21.21V30.2s0,0,.06.07h1.41l.17.18,0,.05v6.44l-.21.21h-1.4s0,0-.07-.07V30.49l-.08-.07s0,0-.06,0Z"/><path d="M74,107.69H75.5l.17.16a1.3,1.3,0,0,1,0,.48v1l.06.06h1.42l.19.22v3.07l-.18.19H75.75c-.1-.16,0-.35,0-.53s0-.37,0-.56a1.6,1.6,0,0,0,0-.57H74.1s-.07,0-.07-.07a.65.65,0,0,1,0-.14Z"/><path d="M38.48,15.13l.2.22v1.39l-.18.2H33.7l0,0a.14.14,0,0,1,0-.06V15.19l.08-.06Z"/><path d="M106,63.94h1.43l.21.2v3.09l-.22.19H106A33.66,33.66,0,0,1,106,63.94Z"/><path d="M104.11,90.86l.2.2v1.4l-.16.18-.06,0H102.7l0-.06a.14.14,0,0,1,0-.06V90.92c.05,0,.06-.06.08-.06C103.18,90.85,103.64,90.86,104.11,90.86Z"/></g></g></svg>