<svg xmlns="http://www.w3.org/2000/svg" viewBox="0 0 131.76 130.13"><title>Recurso 56ART</title><g id="Capa_2" data-name="Capa 2"><g id="Capa_1-2" data-name="Capa 1"><path d="M78.08,89.46V87.89c.07-.09.17-.06.25-.06h3s0,0,0-.06V84.63l0,0H79.78s0,0-.06,0V83c-.15-.09-.3,0-.44,0s-.25,0-.38,0h-.82V81.38s0,0,0,0H74.86a1.78,1.78,0,0,0,0,.52v1.06a.77.77,0,0,1-.39,0H73.26l-.05,0v0c0,1.57,0,3.14,0,4.72,0,0,0,0,0,0H71.62l0,0s0,0,0-.06V86.26c-.07-.09-.16-.05-.25-.05H70l0-.06v-8a2.27,2.27,0,0,0-.52,0H68.36c0-.56-.06-3.49,0-4.83l0,0h1.52l.06,0V71.63s0-.06.06-.06h3.14c.09-.07,0-.17,0-.25,0-.45,0-.9,0-1.33l.07,0h1.51a26.19,26.19,0,0,0,0-3.24H71.61c-.07.13,0,.28,0,.42s0,.25,0,.38v.43a.84.84,0,0,1,0,.38H70s-.06,0-.06.06v1.54a1.82,1.82,0,0,1-.52,0H68.37a.77.77,0,0,0,0,.39c0,.15,0,.29,0,.44v.74a.23.23,0,0,0,0,0H66.76l-.06,0V82.89l0,.06H65.13c-.09.07-.06.16-.06.25v1.33l-.06,0H63.47a1.82,1.82,0,0,0,0,.52c0,.18,0,.37,0,.55v.53c-.63,0-17.55.06-19.47,0l0,0a.11.11,0,0,1,0,0V84.64s0,0,0,0H42.35l0,0a.13.13,0,0,0,0,.06v1.46c0,.07-.12,0-.19,0h-3l0,0V83L39,83H35.87s0,0-.07,0V81.37c-.14-.09-.29,0-.43,0s-.29,0-.43,0H29.73a1,1,0,0,1-.44,0V79.76l-.05-.06s0,0-.06,0H27.72c-.09-.07,0-.17,0-.25,0-.45,0-.9,0-1.33l-.07-.05H26.09a7.55,7.55,0,0,1,0-1.62h1.54l.05-.06a.07.07,0,0,0,0,0V70.05s0,0,0,0,0,0,0,0h1.54s0,0,0,0a.4.4,0,0,1,0,.11v1.4l0,0,.05,0H39a.91.91,0,0,0,0-.39V70l.05,0h6.39l.06,0V68.37s0-.05.06-.05h4.77c.09-.06,0-.16,0-.24,0-.45,0-.9,0-1.33,0,0,0,0,.06,0H52a2.27,2.27,0,0,1,0,.52c0,.18,0,.36,0,.55v.52c.57,0,5,.06,6.46,0l0,0a.13.13,0,0,0,0-.06V66.75s0,0,0-.06h1.52s.06,0,.06-.06a.4.4,0,0,0,0-.11v-1.4c-.06-.09-.16-.06-.25-.06H58.62s0,0,0-.06,0,0,0-.06v-4.7l0-.05H57s0,0-.06,0V57c-.15-.09-.3,0-.44,0H55.7a.84.84,0,0,1-.38,0V55.36l-.06-.06H53.74s0,0,0,0a.07.07,0,0,1,0,0V52.12l0,0a1.46,1.46,0,0,0-.42,0H50.48a7.77,7.77,0,0,1,0-1.62h3.16s0,0,.06-.06V48.85c-.07-.09-.16-.05-.25-.05H52.11l0-.06V44a6.67,6.67,0,0,1,1.6,0l0,0v3.09a.43.43,0,0,1,0,.05s0,0,0,0h1.51s0,0,.06,0v3.14l.06.06h3.14c.09-.06.06-.16.06-.25V48.85l.06-.05h1.51s0,0,0,0a.07.07,0,0,0,0,0V47.24s0,0,0-.06h6.44c.07.14,0,.28,0,.42s0,.25,0,.38v.82h1.57s0,0,0,.06a.34.34,0,0,1,0,.1V50.4a1.8,1.8,0,0,0,.52,0h1.06a.78.78,0,0,1,0,.07s0,0,0,.06V52s0,0,0,.06l0,0h1.51s0,0,.06.05v1.52l.06.05h1.52c.09.06,0,.16,0,.24,0,3,0,6,0,8.95v.51s0,0,.07,0H78l0,0a.07.07,0,0,0,0,0c0-.48,0-1,0-1.46a.17.17,0,0,1,0-.05.93.93,0,0,1,.37,0c.14,0,.29,0,.43,0h.75s0,0,0-.05a.09.09,0,0,0,0,0V60.24s0,0,.05-.06h6.4l0,0a.41.41,0,0,0,0-.11V58.61c.06-.09.16,0,.24,0,.45,0,.9,0,1.33,0,0,0,0-.05,0-.07s0,0,0-.05V57l0,0H89.4s0,0,.06,0V55.35c.15-.09.3,0,.44,0h.38c.14,0,.29,0,.43,0a.67.67,0,0,0,.39,0V53.73s0,0,.05,0h1.52l0,0a.06.06,0,0,0,0,0V50.5s0,0,0,0a.05.05,0,0,1,0,0H94.3l0,0a.11.11,0,0,0,0-.05V48.86l0-.06h3.15s0,0,.06-.06,0,0,0-.05V47.23c-.07-.09-.16-.06-.25-.06H96l0-.06a.13.13,0,0,1,0-.06V44a6.77,6.77,0,0,0-1.61,0V45.5a8,8,0,0,1-1.63,0v-4.8s0,0,0,0a.4.4,0,0,1,.11,0h1.4c.09-.07.06-.17.06-.26V37.46l.06-.05h1.51l0,0v0c0-.49,0-1,0-1.47,0,0,0,0,0-.06h1.52s0,0,.06-.06V31l.05-.06h1.53a.16.16,0,0,1,0-.06V29.34a.1.1,0,0,1,0-.05h3.14l0,0,0,0V27.75s0,0,0-.05a7.72,7.72,0,0,1,1.61,0v1.53s.05.06.06.06H109v3.19s0,0,.05.06h1.32c.09,0,.18,0,.25.05v3.14s0,0,0,0a5.64,5.64,0,0,0,1.59,0V34.32a.34.34,0,0,1,0-.1s0,0,.05-.06h1.53a.64.64,0,0,0,0-.38c0-.15,0-.29,0-.44s0-.25,0-.38-.05-.28,0-.43h3.17a8.75,8.75,0,0,0,0-1.62h-4.6c-.08,0-.18,0-.24-.06V29.28h3.19l0,0a6,6,0,0,0,0-1.6H114a.41.41,0,0,1-.11,0l-.06,0c0-.43,0-.88,0-1.33,0-.08,0-.18,0-.24h-1.57V24.46c-.07-.09-.17-.06-.25-.06h-1.33l0-.06V22.83s0,0,0,0h-1.52l0,0V21.19s0,0,0,0h6.39l.06.05v1.52s0,.05.06.05h1.51a.08.08,0,0,1,0,0,.08.08,0,0,1,0,0v1.49l.06,0s0,0,.06,0h1.45s0,0,0,.05a.07.07,0,0,1,0,.05c0,.49,0,1,0,1.46,0,0,0,0,0,.06h1.52l.06.06v3.14l0,.06H122l0,.06v3.17a1.82,1.82,0,0,0,.52,0h1.07a1.42,1.42,0,0,1,0,.45c0,.16,0,.33,0,.49v2.26l0,.05h1.51s0,0,.06,0v11.3a1,1,0,0,0,.44,0h.81a.78.78,0,0,1,.39,0V52s0,0,.05,0h1.52l0,0a.09.09,0,0,1,0,0v3.09s0,0,0,.05a.88.88,0,0,0,.36,0c.15,0,.29,0,.44,0h.74l.05.05a.09.09,0,0,1,0,0v3.09l0,.06h1.53s.05,0,.05.06a.07.07,0,0,1,0,0c0,2.66,0,5.31,0,8,0,0,0,0-.05.06h-1.52s-.05,0-.05.06v4.79a2.33,2.33,0,0,1-.53,0h-1.07c0,.64-.06,9.18,0,11.34l0,0h1.51s0,0,.06,0V95.93c-.14.08-.28,0-.42,0s-.25,0-.38,0h-.43a.78.78,0,0,0-.39.05v3.15s0,0-.06,0H126.9a1.8,1.8,0,0,0,0,.52c0,.18,0,.36,0,.54v.51s0,0-.07,0h-6.39l0,0a.07.07,0,0,0,0,0v1.46s0,0,0,.06H118.8l0,.06a.11.11,0,0,0,0,0c0,1.58,0,3.15,0,4.72l0,.06h1.52s.05,0,.05.06v3.14s0,0,0,0h-4.71l-.1,0a.93.93,0,0,1,0-.37V109a7.68,7.68,0,0,0-1.61,0v3.17s0,0,0,0h3.14c.09.06.06.16.06.24v1.33l-.06,0a.41.41,0,0,1-.11,0h-1.41a7.19,7.19,0,0,0,0,1.6c.12.06.24,0,.37,0h1.18a7.19,7.19,0,0,1,0,1.62h-1.53s-.06.05-.06.06v1.57h-4.82c-.09.07-.06.17-.06.25v1.33l-.06,0H109l0,0a.11.11,0,0,0,0,0c0,.49,0,1,0,1.47,0,0,0,0,0,0h-1.56c-.07-.13,0-.27,0-.41s0-.26,0-.38v-.44a.8.8,0,0,0,0-.37h-3.17s0,0,0,0,0,0,0,0v1.46c-.09.1-.21,0-.31,0h-11l0,.06v3.13l0,0h1.51l.06,0v4.8c-.44,0-2.67,0-3.24,0v-4.79l-.06-.05H89.5a1.82,1.82,0,0,1,0-.52c0-.18,0-.37,0-.55v-.51l-.07,0H86.27l0,0v0c0-.48,0-1,0-1.46,0,0,0,0,0-.06H84.65s-.05,0-.06-.06v-1.51c-.07-.1-.16-.06-.25-.06H79.76s-.05,0-.05-.06v-4.8a3,3,0,0,0-.52,0H78.13s0,0,0-.07a.09.09,0,0,1,0,0V114a.07.07,0,0,0,0,0l0,0H76.52l-.06,0v-3.15l-.06-.06H71.63c-.09-.07,0-.16,0-.25V109l-.06,0H68.38a.08.08,0,0,1,0,0,.07.07,0,0,1,0-.05c0-.49,0-1,0-1.46,0,0,0,0,0-.06h-4.8a8.08,8.08,0,0,1,0-1.64h3.16s.06,0,.06,0v-1.52l0,0H65.12l-.05-.07v-1.51l0,0H63.51l-.06,0v-1.54a8,8,0,0,0-1.63,0v1.54l-.06,0H60.22a2.27,2.27,0,0,0,0,.52v1.06s0,0-.07,0H58.61s0,0,0,0v1.52s0,0,0,.06H57l-.06.06v1.51c-.07.09-.16.06-.25.06H55.36l0,.06a.13.13,0,0,0,0,.06v1.45l0,0h-.05c-3.18,0-7.34,0-8,0v-1.54l-.06-.06H44l-.06,0v-1.52s0,0-.06-.06H42.33a2.27,2.27,0,0,1,0-.52v-1.06l-.06,0H40.73s0,0,0,0a.11.11,0,0,0,0,0v1.47s0,0,0,.06H31c-.08.15,0,.29,0,.43s0,.25,0,.38v.81H24.46l-.05,0v-1.54a2.27,2.27,0,0,0-.52,0H22.83a.77.77,0,0,1,0-.39c0-.15,0-.29,0-.43v-.75l-.05-.05H19.6s0,0-.06,0v-1.52l-.06-.06s0,0-.05,0H16.34c-.09-.07-.06-.16-.06-.25v-3s0,0-.06,0,0,0,0,0H14.71l0,0a.07.07,0,0,1,0,0c0-1,0-2.06,0-3.09,0,0,0,0,0,0a1.16,1.16,0,0,0-.37,0H13.08s0,0-.05,0V94.4s0,0,0-.06H11.47l-.07-.06V92.76c-.07-.08-.16-.05-.25-.05H9.82s0,0,0-.06,0,0,0-.06V91.14l0,0H8.22s0,0-.06,0V87.88a.86.86,0,0,0-.44,0c-.13,0-.25,0-.38,0H6.52v-3.2s0,0-.06,0a.34.34,0,0,0-.1,0H5l0,0a.11.11,0,0,1,0-.05V79.77l0,0c-.12-.06-.24,0-.37,0s-.28,0-.43,0H3.32l0,0a.07.07,0,0,1,0-.05V76.51s0,0,0-.06H1.7s-.05,0-.05-.06a.07.07,0,0,1,0,0V70c-.06-.09-.16-.06-.24-.06H.05C0,69.38,0,58.75,0,52.1a6,6,0,0,1,1.6,0,.87.87,0,0,1,0,.36c0,.15,0,.29,0,.44v.74l.05.05H3.2s0,0,.06,0v3.17l0,0H1.68a.58.58,0,0,0,0,.14c0,1.53,0,3.07,0,4.6,0,0,0,.07,0,.1l0,0H4.87a2.27,2.27,0,0,1,0,.52V63.4a.88.88,0,0,0,.39,0H6.47l0,0V65s0,0,.05.06H9.72s0,0,0,.06a.34.34,0,0,1,0,.1v3.09H8.2c-.09-.06,0-.16,0-.24V66.74l-.06,0H6.58l0,0s0,0,0,0V71.5s0,0,0,0a1.08,1.08,0,0,1-.36,0H5s0,0,0,.05V78l0,.06H6.46s0,0,.06.06,0,0,0,.05v1.48a.74.74,0,0,0,.14,0h4.61l.1,0s0,0,0,0V78.12a7.19,7.19,0,0,1,1.6,0l0,0V79.6a.07.07,0,0,0,0,.05.08.08,0,0,0,0,0h1.51s0,0,.06,0v1.52s0,0,.06,0h3.14c.09.06.06.16.06.24V82.9s0,0,.06,0h9.67a1.87,1.87,0,0,1,0,.53c0,.18,0,.36,0,.54v.53a1.34,1.34,0,0,0,.44,0h4.38s0,0,0,0v.05c0,.48,0,1,0,1.46,0,0,0,0,0,.06h3.16c.09.15,0,.3,0,.44s0,.25,0,.37v.82H39s0,0,0,.06V89.4l0,0,0,0h3.09l.05,0a.93.93,0,0,1,0,.37c0,.14,0,.29,0,.43V91a7.76,7.76,0,0,0,1.62,0V89.5a29.54,29.54,0,0,1,3.26,0V91l.06,0h9.65s0,0,0,0,0,0,0,0V89.51s.05-.05.07-.05h6.38s0,0,0,0a.43.43,0,0,0,0,0V87.9s0,0,0-.06h4.8a7.86,7.86,0,0,1,0,1.62H66.76s-.06,0-.06.05v3.14c0,.08.13.06.19.06h3l0,0s0,0,0-.06V91.13a28.37,28.37,0,0,1,3.25,0v1.55a7.9,7.9,0,0,0,1.63,0V89.52s0-.06.06-.06h3.19c0,.52,0,1,0,1.56,0,0,0,0,0,.06h1.53s0,0,0,0V89.5l0,0ZM97.6,118.73v1.56s0,0,.05.07h1.53l0,0v-1.55s0,0-.06,0H97.6v-3.19s0,0,0-.06h-8s0,0,0,0v1.55l.06,0h4.7s0,0,.05,0l.06,0v1.52l.06,0Zm3.25-8.13v3.2s0,0,0,0H99.26a8,8,0,0,0,0,1.63h1.54s0,0,0,.06v3.09a.07.07,0,0,0,0,.05.08.08,0,0,0,0,0h6.42s0,0,0,0v-1.46a.07.07,0,0,1,0,0s0,0,0-.06h3.15l0-.06v-4.71a.07.07,0,0,1,0,0,.08.08,0,0,1,0,0h1.51l0,0a7.25,7.25,0,0,0,0-1.6h-3.14l-.06,0c0-.48,0-1,0-1.49a.11.11,0,0,0,0,0l0,0h-1.35a.86.86,0,0,1-.16,0s0,0-.06,0v-1.57h-3.25v-1.52s0,0,0,0,0,0,.06-.06h1.51s0,0,0-.06V104.2a.13.13,0,0,1,0-.06l.05,0h1.54a7.42,7.42,0,0,0,0-1.62H105.8l-.07,0V92.8a.08.08,0,0,1,0,0s0,0,0,0h3.14l.06,0V91.13a.63.63,0,0,1,.38,0h.43c.13,0,.26,0,.38,0s.29,0,.44,0V89.5s0,0,.06,0h1.51l0,0V88s0,0,0,0,0,0,.05-.07h1.53s0,0,0,0v-3a.81.81,0,0,1,0-.16s0,0,0-.06h1.57v-.82c0-.13,0-.25,0-.38s0-.28.05-.43h1.54s0,0,0-.07V81.42a.09.09,0,0,1,0,0l0,0h1.51a.05.05,0,0,0,0,0,.05.05,0,0,0,0,0V78.16l0,0,0,0h3a.85.85,0,0,0,.16,0l0,0V74.86c-.13-.08-.25,0-.38,0h-.43c-.13,0-.25,0-.38,0s-.28,0-.43,0V73.24s-.05,0-.07,0h-1.51l-.05,0v-.75c0-.14,0-.29,0-.43a.77.77,0,0,0,0-.39h-1.06a2.27,2.27,0,0,1-.52,0V70l-.05-.06h-1.54a.84.84,0,0,1,0-.38v-.44c0-.12,0-.25,0-.38s0-.28,0-.41H113.9a.09.09,0,0,0,0,0c0,.49,0,1,0,1.46v0l0,0H112.3l0,0s0,0,0,0v6.34a.08.08,0,0,1,0,0s0,0,0,0h-1.51l-.06,0V74.86a31.82,31.82,0,0,0-3.24,0v1.55l0,0h1.52s0,0,0,0c0,1.49,0,4.25,0,4.84h-.53c-.18,0-.36,0-.55,0a1.82,1.82,0,0,0-.52,0v1.54l0,.06h-4.58c-.09,0-.18,0-.25.06v1.57H101a.4.4,0,0,0-.11,0s0,0-.06.06v1.52s0,0-.06,0H97.65l-.06.06v1.52s0,0-.06,0H94.39l0,0V91s0,0,0,0l.1,0h3.08s0,0,0,0V89.52s0,0,.05-.06h3.16a.67.67,0,0,0,0-.39c0-.14,0-.29,0-.43s0-.25,0-.38,0-.28,0-.42h1.55s0,0,0,.06v1.46a.07.07,0,0,0,0,0l0,0H104s0,0,0,0a.29.29,0,0,1,0,.1v3s0,0,0,0l0,0h-1.51s0,0,0,0a.3.3,0,0,0,0,.1v4.6a.57.57,0,0,0,0,.14h1.53l0,0v1.55s0,0,0,0h-1.51l0,0v1.5s0,0,0,.07h1a2.36,2.36,0,0,1,.53,0c0,1.07,0,2.12,0,3.16,0,0,0,0,0,.07h-3c-.08,0-.18,0-.25.05v3.2H97.66l0,0a5.89,5.89,0,0,0,0,1.59h1.52l.06,0v1.33c0,.08,0,.18,0,.24ZM11.4,86.2V84.64s0,0-.05-.06H9.82l0,0v1.54l.05,0H11.4v3.2s0,0,.06.06H13a.84.84,0,0,1,0,.38v.44c0,.12,0,.25,0,.37a1,1,0,0,0,0,.44h1.54s0,0,0,.06v1.46a.43.43,0,0,0,0,0s0,0,.05,0h3.13l.07.05v.51c0,.18,0,.36,0,.54a1.87,1.87,0,0,0,0,.53h1.44a.34.34,0,0,1,.1,0s0,0,.06,0v.3c0,.88,0,1.77,0,2.65,0,.09,0,.18.05.25h1.46s0,0,.05,0,0,0,.06.06v1.52l.06,0h1.46s0,0,.06,0l.05.06v1.53a6.88,6.88,0,0,0,1.62,0V99.28l.05-.06H26l.05,0s0,0,0,0V97.65s0,0,.05-.06h1.54a32.13,32.13,0,0,0,0-3.26H26.08s0,0,0-.06V91.18a.11.11,0,0,0,0-.05l-.05,0H19.57s0,0,0-.06V89.55a.11.11,0,0,0,0,0s0,0,0,0H18l-.06,0V88.35a2.27,2.27,0,0,0,0-.52H13.09l-.06,0V86.45c0-.08,0-.18-.06-.25Zm109-40.66H118.8s0,0-.06.05v1.54a8.75,8.75,0,0,1-1.63,0V45.58l-.06,0h-1.51s0,0-.05,0V40.78s0,0,0-.05l0-.06h-1.53l0,0V39.26a.86.86,0,0,0,0-.16s0,0,0,0l-.1,0h-4.61a.65.65,0,0,0-.13,0v6.3a.41.41,0,0,1,0,.11l0,0h-4.83v-.8c0-.13,0-.26,0-.38s.05-.29,0-.42h-1.55s0,0,0,.06v1.46a.09.09,0,0,1,0,0l0,0H99.29l0,0a6.31,6.31,0,0,0,0,1.6h4.77l.06,0c0,.43,0,.88,0,1.33,0,.09,0,.18,0,.25h4.77l.06.06v1.52s0,0,.06,0h4.76l.06,0V52l.06,0h3.14l.05,0v1.46s0,0,0,0,0,0,0,.07h3.12l0,0,0,0V52.11l0-.06h1.33c.09,0,.18,0,.25-.06V50.53s0,0,0-.05l.06-.06h1.52l0-.06V47.22l0,0h-1.51s0,0,0,0l0,0V44s0,0,0,0l0,0h-1.51l-.06,0ZM91.08,87.83h-4.8s0,0,0,0a6,6,0,0,0,0,1.6H91s0,0,0,0ZM109,107.3s0,0,.05,0h4.77a.23.23,0,0,1,0,0v-1.53s0,0,0,0H109l-.05,0ZM73.2,105.71v-1.45a.4.4,0,0,0,0-.11s0,0,0-.05h-3c-.09,0-.18,0-.25.05v1.52l0,0ZM109,71.57h-1.56s0,0-.06.06V73c0,.08,0,.18.06.24h1.4a.41.41,0,0,0,.11,0l0,0ZM11.4,82.94V81.49a.41.41,0,0,0,0-.11l-.06,0c-.42,0-.87,0-1.32,0-.08,0-.18,0-.24,0v1.46s0,0,0,.06l.05,0Zm89.44-40.65H99.28l0,.06v1.32c0,.09,0,.18,0,.25h1.52l0-.05ZM84.58,86.2H83l0,0a5.61,5.61,0,0,0,0,1.59h1.51l0,0ZM94.38,109a8.76,8.76,0,0,0,0,1.62h1.55a8.77,8.77,0,0,0,0-1.62Z"/><path d="M87.84,4.88h4.84s0,.06,0,.07,0,0,0,.06V6.46l0,0H95.9l0,0s0,0,0,0a1.62,1.62,0,0,1,0,.22V8.08l0,0,0,0h1.49s0,0,0,.06V9.76h-8l0,0s0,0,0,0V8.19l0,0h1.54s0-.05,0-.07c0-.5,0-1,0-1.5l0-.05H87.89s0,0,0-.06Z"/><path d="M83,3.26H74.89c-.09-.07-.06-.16-.06-.25V1.68l-.06-.05H68.38a6.62,6.62,0,0,1,0-1.61h8.07l0,0a.13.13,0,0,1,0,.06V1.57s0,0,.05.06h6.4s0,0,0,.06a.34.34,0,0,1,0,.1Z"/><path d="M89.47,40.67H87.89s0,0,0,.06v1.51s0,0,0,0h1.54s0,.05,0,.07v1.5l0,0H84.64l0-.06V40.72s0,0,0,0h1.54s0-.05,0-.07a1.48,1.48,0,0,0,0-.21v-3a2.21,2.21,0,0,1,.52,0h2.68l0,.06Z"/><path d="M53.69,1.62V.06c.06-.09.16,0,.24,0H66.65a7.51,7.51,0,0,1,0,1.61Z"/><path d="M53.69,1.63V3.2c-.07.09-.17.06-.25.06H47.23l0,.06V4.83l0,0H42.43l-.1,0s0,0,0-.05V3.31l.05-.05h3.14s0,0,.06,0V1.7l.06-.07h8.08Z"/><path d="M115.49,118.73h3.2c.09-.06,0-.16,0-.24,0-.45,0-.9,0-1.33l.06,0a1,1,0,0,1,.17,0h1.37a1.87,1.87,0,0,0,0-.53v-1s0,0,.07,0h1.5s0,0,0,0a.43.43,0,0,1,0,0V117l0,.06h1.54a8,8,0,0,1,0,1.63h-1.54s0,0,0,.06,0,0,0,0v1.48a.74.74,0,0,1-.14,0h-6.23l-.09,0a.1.1,0,0,1-.05,0v-1.57Z"/><path d="M9.78,24.4v3.2c-.07.09-.17,0-.25,0-.45,0-.9,0-1.33,0,0,0,0,.05,0,.06v3.14l0,0,0,0H6.57L6.52,31v1.51a6.59,6.59,0,0,1-1.6,0s0,0,0,0V29.34l0-.05H6.46l.06,0V26.07c.15-.08.29,0,.43,0s.25,0,.38,0h.43a.88.88,0,0,0,.39,0V24.47l0-.07H9.78Z"/><path d="M9.78,24.4V21.19l.06,0h1.51l0,0a.11.11,0,0,0,0-.05V19.6s0,0,0-.05l0,0H13v3.21l-.07,0h-1.5a.1.1,0,0,0-.05,0,.43.43,0,0,0,0,.05v1.45s0,0,0,.05l0,0Z"/><path d="M35.8,4.88V3.32s0,0,0,0h4.79a7.27,7.27,0,0,1,0,1.59l0,0Z"/><path d="M83,3.26h4.83l0,.06V4.88H83s-.05,0-.05-.06Z"/><path d="M30.92,6.51V5s0,0,0-.07H35.8V6.45l0,.06Z"/><path d="M109,29.28V27.72s0,0,0-.06h1.52l0-.05a.11.11,0,0,0,0-.05V26.1s0,0,0,0,0,0,0,0h1.56v3.25Z"/><path d="M100.85,13h1.57l.06.05V14.6c.15.09.29,0,.43,0h.81a.84.84,0,0,1,.38,0v1.55l0,0H101l-.1,0s0,0,0,0Z"/><path d="M30.92,6.51V8.13H27.71s0,0,0,0V6.56l.06,0Z"/><path d="M9.78,68.31h1.56l.05,0v3.16l0,0H9.82s0-.06,0-.07Z"/><path d="M45.52,50.41H44c0-.48,0-2.72,0-3.23h1.55C45.57,47.67,45.57,49.9,45.52,50.41Z"/><path d="M99.23,11.39H97.67l0,0s0,0,0,0V9.76h1.56l0,0,0,0Z"/><path d="M99.23,11.39h1.55s0,0,0,0a.08.08,0,0,1,0,0V13H99.3s0,0,0,0,0,0,0,0Z"/><path d="M17.91,14.64V13h1.58l0,0a.11.11,0,0,1,0,0v1.48l-.06.05Z"/><path d="M91.1,14.64V13.06l.05,0h1.52c.09.06,0,.16,0,.24v1.33s0,.05-.06.05H91.1Z"/><path d="M84.58,48.8v1.58l0,0H83a5.61,5.61,0,0,1,0-1.59l0,0Z"/><path d="M48.81,63.44h1.58s0,0,0,.05a.13.13,0,0,1,0,.06V65c-.07.09-.17,0-.25,0H48.86l0-.06s0,0,0,0Z"/><path d="M21.16,73.18H19.58s0,0,0,0a.13.13,0,0,1,0-.06V71.62c.07-.09.17-.05.25-.05h1.33s.05,0,.05.05v1.56Z"/><path d="M24.41,79.71H26s.05,0,.05.05v1.51c-.07.09-.16,0-.25,0H24.48l-.07-.06V79.71Z"/><path d="M3.27,40.66H1.7l-.05,0a.41.41,0,0,1,0-.11V39.1c.07-.1.16-.06.25-.06H3.21s.06,0,.06.06v1.56Z"/><path d="M50.38,37.41H48.87s0,0,0,0V35.83a7.76,7.76,0,0,1,1.6,0A6.08,6.08,0,0,1,50.38,37.41Z"/><path d="M71.58,47.18h1.58l0,0c0,.5,0,1,0,1.51a5.5,5.5,0,0,1-1.59,0l0,0Z"/><path d="M19.52,48.8v1.58l0,0H18c-.09-.06-.05-.16-.05-.24V48.85s0-.05.05-.05h1.56Z"/><path d="M3.27,34.17H4.85s0,0,0,0a.07.07,0,0,1,0,.05v1.46c-.07.09-.17.05-.25.05H3.32l0-.06s0,0,0,0Z"/><path d="M14.65,17.9v1.55s0,0,0,.05l-.05,0H13V18s0,0,0,0a.05.05,0,0,1,0,0Z"/><path d="M16.28,16.27v1.56s0,0,0,0l0,0H14.65c0-.52,0-1,0-1.56a.05.05,0,0,1,0,0l0,0Z"/><path d="M16.28,16.27V14.71s0,0,0,0l0,0h1.56V16.2s0,0,0,0l0,0Z"/><path d="M86.22,128.5H87.8s0,0,0,.05v1.51a5.56,5.56,0,0,1-1.59,0l0,0Z"/><path d="M35.35,127.2h.3c.07.08,0,.18,0,.26s-.19.05-.29,0S35.38,127.33,35.35,127.2Z"/><path d="M100.85,110.6v-3.25h3.26v3.19l0,0h1.52l.06.06v3.13s0,0,0,0l0,0h-3.13l0,0a.07.07,0,0,1,0,0v-3.11l-.06-.05Z"/><path d="M102.48,84.58H104s0,0,0,0v1.54s0,0,0,0h-1.53s0,0,0-.06Z"/><path d="M110.62,45.54V44s0,0,0,0a.4.4,0,0,1,.11,0h1.4c.09.06.06.16.06.24v1.33s0,0-.06,0h-1.56Z"/></g></g></svg>