<svg xmlns="http://www.w3.org/2000/svg" viewBox="0 0 112.83 112.83"><defs><style>.cls-1{fill:#020100;}</style></defs><title>Recurso 4MANDALA</title><g id="Capa_2" data-name="Capa 2"><g id="Capa_1-2" data-name="Capa 1"><path class="cls-1" d="M112.83,42.25c-39,64-53,29.43-53,29.43L38.32,84.07s32.15,45.48,53-29.42Z"/><path class="cls-1" d="M98.19,15.94c-1.8,75-31.22,52-31.22,52L54.58,89.41s50.57,23.32,31.21-52Z"/><path class="cls-1" d="M72.36.48c35.91,65.8-1,60.64-1,60.64V85.91s55.46-5.1,1-60.64Z"/><path class="cls-1" d="M42.25,0c64,39,29.43,53,29.43,53L84.07,74.51s45.48-32.15-29.42-53Z"/><path class="cls-1" d="M15.94,14.64c75,1.8,52,31.22,52,31.22L89.41,58.25S112.73,7.68,37.41,27Z"/><path class="cls-1" d="M.48,40.47c65.8-35.91,60.64,1,60.64,1H85.91s-5.1-55.46-60.64-1Z"/><path class="cls-1" d="M0,70.58c39-64,53-29.43,53-29.43L74.51,28.76s-32.15-45.48-53,29.42Z"/><path class="cls-1" d="M14.64,96.89c1.8-74.95,31.22-52,31.22-52L58.25,23.42S7.68.1,27,75.42Z"/><path class="cls-1" d="M40.47,112.35c-35.91-65.8,1-60.64,1-60.64V26.92s-55.46,5.1-1,60.64Z"/><path class="cls-1" d="M70.58,112.83c-64-39-29.43-53-29.43-53L28.76,38.32s-45.48,32.15,29.42,53Z"/><path class="cls-1" d="M96.89,98.19c-74.95-1.8-52-31.22-52-31.22L23.42,54.58S.1,105.15,75.42,85.79Z"/><path class="cls-1" d="M112.35,72.36c-65.8,35.91-60.64-1-60.64-1H26.92s5.1,55.46,60.64,1Z"/></g></g></svg>