<svg xmlns="http://www.w3.org/2000/svg" viewBox="0 0 95.81 95.81"><title>Recurso 26MANDALA</title><g id="Capa_2" data-name="Capa 2"><g id="Capa_1-2" data-name="Capa 1"><path d="M33.45,37.67a3.76,3.76,0,0,1-3.69,3.48L0,41.93l29.76.78a3.76,3.76,0,0,1,3.69,3.48l.53,7L34.53,46A3.77,3.77,0,0,1,38,42.48l7.22-.55L38,41.38a3.78,3.78,0,0,1-3.48-3.48L34,30.68Z"/><path d="M30.27,46.26a3.78,3.78,0,0,1-1.46,4.87L3.43,66.68,29.59,52.47a3.77,3.77,0,0,1,4.94,1.18l4,5.78L35.35,52.9a3.77,3.77,0,0,1,1.27-4.75l6-4.08L36.07,47.2a3.77,3.77,0,0,1-4.75-1.27l-4.08-6Z"/><path d="M31.81,55.3A3.76,3.76,0,0,1,33,60.24L18.78,86.4,34.33,61a3.78,3.78,0,0,1,4.87-1.46l6.31,3-6-4.09a3.77,3.77,0,0,1-1.27-4.75l3.13-6.53-4.08,6a3.77,3.77,0,0,1-4.75,1.27L26,51.35Z"/><path d="M37.67,62.36a3.75,3.75,0,0,1,3.48,3.69l.78,29.76.78-29.76a3.75,3.75,0,0,1,3.48-3.69l7-.54L46,61.28a3.78,3.78,0,0,1-3.47-3.48l-.55-7.22-.55,7.22a3.78,3.78,0,0,1-3.48,3.48l-7.22.54Z"/><path d="M46.26,65.54A3.79,3.79,0,0,1,51.13,67L66.68,92.38,52.47,66.22a3.77,3.77,0,0,1,1.18-4.94l5.78-4L52.9,60.46a3.79,3.79,0,0,1-4.75-1.27l-4.08-6,3.13,6.54a3.76,3.76,0,0,1-1.27,4.74l-6,4.09Z"/><path d="M55.3,64a3.77,3.77,0,0,1,4.94-1.18L86.4,77,61,61.48a3.78,3.78,0,0,1-1.46-4.87l3-6.31-4.09,6a3.77,3.77,0,0,1-4.75,1.27l-6.53-3.14,6,4.09a3.77,3.77,0,0,1,1.27,4.75l-3.13,6.53Z"/><path d="M62.36,58.14a3.75,3.75,0,0,1,3.69-3.48l29.76-.78L66.05,53.1a3.75,3.75,0,0,1-3.69-3.48l-.54-7-.54,7.22a3.78,3.78,0,0,1-3.48,3.48l-7.22.55,7.22.55a3.78,3.78,0,0,1,3.48,3.47l.54,7.23Z"/><path d="M65.54,49.54A3.77,3.77,0,0,1,67,44.68L92.38,29.13,66.22,43.33a3.77,3.77,0,0,1-4.94-1.17l-4-5.78,3.14,6.53a3.78,3.78,0,0,1-1.27,4.74l-6,4.09,6.54-3.13a3.76,3.76,0,0,1,4.74,1.27l4.09,6Z"/><path d="M64,40.51a3.77,3.77,0,0,1-1.18-4.94L77,9.41,61.48,34.79a3.77,3.77,0,0,1-4.87,1.45l-6.31-3,6,4.09a3.77,3.77,0,0,1,1.27,4.75l-3.14,6.53,4.09-6a3.78,3.78,0,0,1,4.75-1.28l6.53,3.14Z"/><path d="M58.14,33.45a3.76,3.76,0,0,1-3.48-3.69L53.88,0,53.1,29.76a3.76,3.76,0,0,1-3.48,3.69l-7,.53,7.22.55A3.78,3.78,0,0,1,53.33,38l.55,7.22L54.43,38a3.77,3.77,0,0,1,3.47-3.48L65.13,34Z"/><path d="M49.54,30.27a3.77,3.77,0,0,1-4.86-1.46L29.13,3.43l14.2,26.16a3.77,3.77,0,0,1-1.17,4.94l-5.78,4,6.53-3.14a3.76,3.76,0,0,1,4.74,1.27l4.09,6-3.13-6.53a3.77,3.77,0,0,1,1.27-4.75l6-4.08Z"/><path d="M40.51,31.81A3.76,3.76,0,0,1,35.57,33L9.41,18.78,34.79,34.33a3.76,3.76,0,0,1,1.45,4.87l-3,6.31,4.09-6a3.77,3.77,0,0,1,4.75-1.27l6.53,3.13-6-4.08a3.79,3.79,0,0,1-1.28-4.75L44.46,26Z"/></g></g></svg>