<svg xmlns="http://www.w3.org/2000/svg" viewBox="0 0 352.02 52.75"><title>Recurso 14GRAPHS</title><g id="Capa_2" data-name="Capa 2"><g id="Capa_1-2" data-name="Capa 1"><path d="M.58,52.75,0,52.17V1.12l.52-1S.59,0,.64,0H351.47l.55.61v52c-.09.08-.14.15-.2.15Zm1.88-1c.09.08.14.16.19.16h347a.67.67,0,0,0,.2,0c.06,0,.1-.09.17-.16V2.21c-.08-.08-.13-.16-.18-.16H2.84a.66.66,0,0,0-.2,0c-.06,0-.1.09-.18.16Z"/><path d="M157.41,31.16l.77,1.43v3.24c-.09.1-.28.2-.27.29.05.86-.84,1.54-.47,2.38L156.59,40v.75l-1.94,1.39h-2.76l-.59-.59c-.32-.32-.9-.25-1.13-.72s-.34-.81-.53-1.21-.51-.75-.43-1.27c0-.13-.21-.31-.36-.53V30.52l.79-1.39v-.71l2.22-2.21h2.94a16.51,16.51,0,0,1,1.58,1.63,12.71,12.71,0,0,1,1,2Zm-5.72-.68v7.25l.61,1.06c.27.19.49.86,1.24.91.28-.45.82-.67,1-1.2v-.64l.4-.45v-.78l.42-.45V32.12l-.41-.44v-.8l-.42-.45v-.8c-.43-.32-.67-.85-1.33-1.1a10.47,10.47,0,0,1-.82.81C152,29.65,152.15,30.24,151.69,30.48Z"/><path d="M14.89,32.72l.6,1.15V39c-.12.23-.43.4-.42.8,0,.2-.33.4-.53.62H8.67l-.89-1.22v-5.4l.58-1.11Z"/><path d="M226.31,9.41l.6,1.15V17l-1.13.93H219l-.57-.51V10l.57-.56Zm-1.46,2.18a2.71,2.71,0,0,0-1.4-.13,14.77,14.77,0,0,0-1.63,0,2.58,2.58,0,0,0-1.43.16v4a.39.39,0,0,0,.06.18,1,1,0,0,0,.14.15H224a.49.49,0,0,0,.21,0,.79.79,0,0,0,.15-.12l.45-.45Z"/><path d="M105.07,38.64c-.47.38-.42,1.14-1,1.43h-.81l-.59-1.15V33.78a2.29,2.29,0,0,0,.51-1h4.15l.39.3c.75,0,.75,0,1.25-.33h2a4.33,4.33,0,0,1,1.45,2V39c-.34.23-.36.65-.55,1h-.94l-.52-1.25V35.05l-.58-.65-1.07.55V38.6c-.55.38-.35,1.35-1.2,1.48-.41,0-.52-.37-.86-.59V35c-.34-.35-.94,0-1-.67l-.68.67Z"/><path d="M189.72,41.92l-.6.59h-.82l-.59-1.12V36.13l1.09-1.05.74.43.39-.32h2l.42.38h.8l.43-.4h2.44c.61.3.56,1,1,1.43v.81l.4.43v3.27c-.52.4-.41,1.31-1.11,1.43-.52,0-.63-.42-.92-.61,0-1.54,0-3.09,0-4.67H194c-.07.06-.15.11-.16.16a2.8,2.8,0,0,0,0,.41v3.68l-1,1h-.9l-.2-1.08-.36-.37v-3.7a1.42,1.42,0,0,0-1-.12c-.2.19-.39.38-.58.58Z"/><path d="M41.68,16.14l-.42.45v.8c-.27.34-.63.13-1,.2L39.65,17V12.47c-.49-.39-1-.06-1.39-.25-.11.15-.25.25-.25.35,0,1.29,0,2.58,0,3.93a2.39,2.39,0,0,0-.34.41,2.64,2.64,0,0,0-.15.55c-.44.27-.92,0-1.33.15-.44-.42,0-1.17-.62-1.43v-4.1l.39-.43v-.8c.11-.07.21-.2.31-.21.54,0,1.07,0,1.54,0l.38-.38h1.74l.56.75c.76.14.94-.4,1.3-.67,0,0,.1-.1.16-.1h1.94L45,11.3v.36l.3.3s.1.1.1.16V17l-.61.61h-.84l-.57-.64V12.83l-.61-.55c-.59-.09-.74.38-1,.61Z"/><path d="M110.38,12.87l-.58-.55h-.93a3.54,3.54,0,0,0-.12,1.43c0,.48,0,.95,0,1.43V16.4l-.61,1.18h-.84l-.62-.66V12.41a2.85,2.85,0,0,0-1.43-.12,1.06,1.06,0,0,0-.15.15.58.58,0,0,0,0,.19V16.5c-.16.35-.73.47-.33,1h-1.56c-.2-.35-.21-.77-.56-1V11.79l.59-1.15h1.61l.46-.41H107l.64.8c.72.09.86-.49,1.28-.78h2.14l.77,1c.3.3,0,.89.55,1.17v4l-.54,1.07H111l-.58-.55Z"/><path d="M326.51,11l.77-.77H329a12,12,0,0,1,1,1,11.82,11.82,0,0,1,.76,1.22v4l-.54,1.08-.92.06-.56-.92V12.88l-.59-.6h-.81c-.07.09-.22.18-.22.28,0,1.29,0,2.59,0,3.84l-.55,1.1a3,3,0,0,1-1.31.06l-.59-1.14c0-1.26,0-2.67,0-4.12l-1,0-.54.48a.65.65,0,0,0-.12.2.66.66,0,0,0,0,.2V17l-.61.61h-.82L321,17v-5.3a2.47,2.47,0,0,0,.55-1.06h1.68l.38-.38h1.72l.52.79Z"/><path d="M187.7,16.92V11.25l.54-.59h1.65l.4-.4H192l.87.79c.65,0,.8-.58,1.18-.82h1.56l1.51,1.43v.82l.35.35V16.2l-.31.31-.1.92c-.3.29-.66.08-1,.15l-.59-.59V12.92l-.58-.61H194a1.37,1.37,0,0,0-.14.38c0,1.29,0,2.58,0,3.73l-.59,1.13a2.73,2.73,0,0,1-1.36-.07c-.26-.38.14-1-.47-1.27v-3l.36-.35-.54-.59h-.92l-.45.45c0,.05-.1.09-.12.15a.67.67,0,0,0,0,.2V17l-.6.6h-.87Z"/><path d="M179.49,37.83v3.54l-.59,1.14h-.82l-.59-1.12V36.25l.59-1.07h.79l.44.37.35-.34h2.18l.59.87,1-.9h2.45c.74.6.82,1.6,1.41,2.25v4.06l-1,1c-.52.09-.71-.34-1-.6V37.86l-.59-.62-.8,0-.54.49a1.14,1.14,0,0,0-.12.19.67.67,0,0,0,0,.2v3.84l-.61.61h-.82l-.64-1.25V37.36a1.45,1.45,0,0,0-1-.11Z"/><path d="M45.77,35.37v3.54l-.62,1.16h-.82l-.59-1.15V33.77c.32-.24.37-.64.55-1H48l.4.33c.44.07.91.15,1.23-.35h2.5l1,1.07v5.62c-.25.25-.38.71-1.08.64l-.93-1.28v-3.7l-.6-.74-1,1v3.55L48.87,40l-.37,0c-.66-.24-.58-1-1.07-1.4V35l-.54-.57c-.06,0-.13,0-.15,0Z"/><path d="M183.79,10.24h1.67a5.29,5.29,0,0,1,1.77,2.7v3.6a1.91,1.91,0,0,0-.31.38,3,3,0,0,0-.15.55,2.77,2.77,0,0,1-1.37.09c-.06-.11-.17-.22-.17-.33,0-1.42,0-2.85,0-4.32l-.57-.61-.9-.05-.58,1.09v4c-.39.46-.91,0-1.32.28l-.69-.64V12.5c-.11-.11-.16-.2-.21-.2h-.89l-.53.66V17l-.87.57h-.61l-.6-.6V11.68c.19-.32.74-.45.31-1.06h2l.38-.38h1.71l.62.78C183.14,11.12,183.33,10.59,183.79,10.24Z"/><path d="M37.81,40.09l-.62-.62V35.36l-1.09-.93-.5.47a3.4,3.4,0,0,1-.48,1.59l.47.67-.51.91.45.59c-.46.37-.4,1.12-1,1.41h-.89c-.06-.35-.13-.72-.2-1.09l-.31-.31V34.19a9,9,0,0,0,.5-1.43h4.21l.51.44.78-.45h2.44l.75,1,.1-.09.47,1.1V39l-.53,1c-.25.18-.58,0-.9,0l-.58-.58V34.94l-.62-.51-1.39.82v4A1.28,1.28,0,0,1,37.81,40.09Z"/><path d="M122.65,11.71v5.66c-.37.5-.91,0-1.3.3l-.61-.56a.8.8,0,0,1-.13-.19.67.67,0,0,1,0-.2V12.48c-.3-.37-.67-.11-1-.25l-.63.61v3.49l-.59,1.18c-.25.17-.59,0-.91,0l-.58-.59V12.31h-1.47c-.08.07-.16.12-.16.17a2.81,2.81,0,0,0,0,.41v3.53l-.59,1.15h-.84l-.58-.55V11.29l.56-.67h1.26l.35-.35h2l.78.78c.44,0,.59-.56,1-.82h2.06Z"/><path d="M116.93,35l-.58-.57a2.81,2.81,0,0,1-1,.52v3.6c-.47.5-.46,1.28-1.11,1.56-.45.09-.6-.29-.83-.46-.06-.08-.14-.13-.14-.18v-6.1l.6-.61h3.68l.84.8.77-.77h2.58a1.56,1.56,0,0,0,.89,1.25v5.43l-.54.64h-.87l-.59-1.15V35l-.67-.58L119,35.6v2.9a2.81,2.81,0,0,0-.42.7,2.45,2.45,0,0,0,0,.71,1.5,1.5,0,0,1-1,.13l-.58-1.13Z"/><path d="M265,13.43l-.59-1.14h-.84l-.61.58v4.54c-.51.31-1,.13-1.44.16l-.61-.6V12.31H259.4a1.19,1.19,0,0,0-.16.16.74.74,0,0,0,0,.21V17l-.62.61c-.36,0-.77,0-1.17,0-.05,0-.11-.07-.21-.14V11.2l.53-.53c.19-.17.55,0,.87,0a7.15,7.15,0,0,1,.8,0c.11-.1.2-.2.3-.3a1.61,1.61,0,0,1,.36-.1h1.59l.52.8c.73.09.71-.28.73-.62.05,0,.1-.13.15-.13h2.1l1.41,1.52v5.8c-.45,0-.78,0-1.11,0s-.54,0-.53-.4C265,15.88,265,14.59,265,13.43Z"/><path d="M266.13,35.78l.45,1V42l-.63.54c-.55.09-.69-.39-1-.63V37.82l-.59-.59h-.84l-.61.58v4l-.58.7h-.91c-.09-.23-.15-.48-.26-.7s-.18-.2-.3-.31v-4c0-.05-.07-.11-.15-.2H259.4a.53.53,0,0,0-.15.15.66.66,0,0,0,0,.2v3.87c-.37.23-.36.67-.58,1h-.85l-.57-.52V35.74l1.24-.62.57.44.29-.29a2.42,2.42,0,0,1,.36-.1c.61,0,1.21,0,1.79,0l.87.87.38-.86h2.35Z"/><path d="M55.59,17.55H54.11c-.32-.33,0-.7-.27-1.1l-.32-.35V12.46c-.28-.35-.66-.09-1-.24l-.59.73V16.9l-.52.56a1.46,1.46,0,0,1-1,.09c-.06-.11-.16-.23-.16-.34,0-1.43,0-2.86,0-4.31l-.57-.59h-.92c-.11.26-.2.5-.31.73,0,.06-.09.1-.14.14s-.08.11-.1.16a.74.74,0,0,0,0,.21v3.84c-.44.41-.94,0-1.35.25L46.21,17v-5.8l.54-.53h1.63l.41-.41h2l.77.77c.43,0,.58-.55,1-.82h1.63l1.44,1.46Z"/><path d="M248.61,41.92l-.61.59h-.85c-.05-.12-.1-.29-.18-.45s-.2-.33-.37-.61V36.13l1.13-1c.34-.12.45.36.89.47l.73-.44a5.3,5.3,0,0,1,1.42,0c.41.11.71.64,1.27.39l.46-.42h2.43c.6.27.54,1,1,1.41v5.31l-.48.6c-.64.12-.77-.28-1-.43a1.08,1.08,0,0,1-.13-.19,1.34,1.34,0,0,1,0-.2v-4.3a2.4,2.4,0,0,0-1.59-.07v3.53a9.09,9.09,0,0,1-.46,1,7.57,7.57,0,0,1-.58.72h-.87c-.06-.13-.17-.24-.17-.35,0-1.56,0-3.13,0-4.69,0-.06-.07-.11-.13-.22h-1.34l-.57.56Z"/><path d="M335.3,16.88V12.46c-.12-.1-.17-.18-.22-.19h-.8l-.6.6V16.5a2.29,2.29,0,0,0-.57,1.05h-.91l-.46-.46c0-.06-.11-.11-.11-.16,0-1.9,0-3.8,0-5.68l.6-.61H333l.43.4.75-.77H336l.71.71,1.41-.75h1.48A4.21,4.21,0,0,1,341,12.29c0,1.53,0,3.29,0,5.06,0,0-.07.1-.15.19h-1.32c-.06-.06-.13-.1-.15-.16a.44.44,0,0,1,0-.2V12.86l-.64-.57H338l-.59.55v4.54c-.48.38-1,.14-1.48.21Z"/><path d="M250.68,17.72V13l-.51-.56a1.56,1.56,0,0,0-1-.09l-.57.58v4.49c-.39.44-.9.13-1.39.22l-.53-.48c-.06-.09-.12-.14-.12-.19,0-1.9,0-3.8,0-5.67l.61-.61h1.62l.39-.37c.49-.17,1.1.05,1.78-.1l.65.86c.74.07.88-.52,1.28-.79h1.66l1.42,1.6c0,1.68,0,3.58,0,5.48,0,.06-.06.11-.13.21h-.92l-.58-.55v-4.1l-.58-.58a1.48,1.48,0,0,0-1,.11v3.71l-.39.39-.1.92C251.8,17.76,251.3,17.45,250.68,17.72Z"/><path d="M76.33,32.69h.75l.35-.35h2.43a2.57,2.57,0,0,0,.59.36,2.89,2.89,0,0,0,.78,0A1.67,1.67,0,0,0,82,34c.28.42,0,.85.33,1.2s.29,1-.19,1.39v1.11c-.48,1.05-1.7,1.12-2.22,2h-2.5a1.4,1.4,0,0,0-.82-.46c-.28-.06-.49-.44-.73-.69A5,5,0,0,1,75.23,37a1.27,1.27,0,0,0-.3-.7.86.86,0,0,1-.1-.75C75.37,34.67,75.26,33.5,76.33,32.69Z"/><path d="M240.83,11.45c.11.51.61.7.87,1.07s.46.76.75,1.23v1.47L241.51,17l-1.83.94H238.6l-.43-.4h-.37l-1.47-1.43c.16-.43-.25-.58-.39-.84V11l.52-1.11,1.27-1.26h2.69l1.6,1.61v1c-.38.29-.8.1-1.19.16.08-.6-.49-.28-.69-.49s-.48-.64-.92-.74l-1.18.56a2.2,2.2,0,0,0-.06.37c0,.06,0,.11.13.3Zm0,3c-.49-.38-.41-1.13-1-1.39h-1.25c-.26.43-.81.65-1,1.13s.33.48.38.71.05.51.3.68.29.25.36.3h1.32Z"/><path d="M25.31,15.78V14.51L25,14.16V12l.31-.31a6.89,6.89,0,0,1,.15-1.35,4.7,4.7,0,0,1,.34-.67,5.47,5.47,0,0,1,.94-1.07H30c.62.24.62,1,1,1.51a4.42,4.42,0,0,1,.39.92v4.16L30.5,17,28.67,18H27.59c-.38-.47-1-.49-1.46-1S25.87,16,25.31,15.78Zm4.1-.43V10.8a3,3,0,0,1-.67-.25c-.22-.15-.37-.39-.86-.28l-.54.52v.86l-.35.43v2.33c.37.63.48,1.26,1,1.52h.8Z"/><path d="M314,18h-.87c-.55-.45-1.34-.56-1.72-1.23s-.64-1.24-1-2v-3.5c.67-.88.79-2.12,2-2.7H315L316.5,10v.82l.29.3a1.21,1.21,0,0,1,.1.36c0,1.15,0,2.31,0,3.44a.9.9,0,0,0-.41,1l-1.79,1.78Zm-1.57-6.74V15c.55.16.65,1,1.39.95l1-1V13.34c.18-.28.57-.45.43-.86l-.43-.45v-.8c-.43-.32-.67-.87-1.33-1.09C313.15,10.5,312.77,10.87,312.4,11.25Z"/><path d="M226.11,34.14c.07.84.07.84.79,2V37.4c-.08.1-.34.27-.32.39.09.48-.46.64-.47,1v.23l-1.48,1.42h-1.16l-.43.41h-.66c-.37-.18-.62-.42-.82-.38-.6.13-.89-.55-1.44-.49-.36-.46-.9-.74-1-1.42a4.75,4.75,0,0,0-.72-1.23V35.9l1-2,1.25-1.19h1.57l.5-.47,1,.44,1,.06Zm-1.22,2.29c-.47-1-.81-1.7-1.47-2h-1.64c-.41.49-1.18.42-1.36,1V38a6.13,6.13,0,0,1,1.85,1.28l.8,0,.77-.76.4,0,.65-1.15Z"/><path d="M171.32,39.33v-.69l-.6-.59h-1.64l-.43.38H167.4l-.54-.61c-.06-.41-.16-.88.35-1.2v-2c.17-.3.58-.45.42-.88l1.16-.59h3.14l.57.54v.91c-.3.34-.67,0-1.11.28l-.37.35-1.15-.57-.59,1v.16c.74.4,1.58,0,2.33.25l.25.7.51,0a4.15,4.15,0,0,0,.18.48,6.37,6.37,0,0,0,.37.58v2.37c-.51.91-1,1.95-2.19,2.27h-2a5.09,5.09,0,0,1-1.17-.69,5.63,5.63,0,0,1-.74-1.19,2.46,2.46,0,0,1,.12-1.34l.8,0,1.48,1.65h1.1c.18-.25.39-.51.56-.78S171.14,39.66,171.32,39.33Z"/><path d="M94,8.61h3.15l1.4,1.58v1.86c-.13.24-.55.39-.38.85l-2.89,2.83c.07.07.12.16.17.16h2.52l.59.6v1l-.88.53H93l-1-1c.45-.24.47-.77.66-1.15a7.18,7.18,0,0,1,.9-1.26c.27-.34.74-.19,1-.56a9.51,9.51,0,0,1,1-1l.9-.9V10.73l-.58-.51h-.69c-.45.18-.69.6-1,.91s-.56.56-.72.73c-.61,0-.71-.4-1-.58V10Z"/><path d="M298,16.63l-.53.53H290l-.58-.68c1.18-2.36,2.35-4.72,3.54-7.07.09-.17.29-.28.41-.4h.82Zm-4.2-4.35c-.84.59-.88,1.65-1.44,2.4-.12.16,0,.5,0,.71a3.23,3.23,0,0,0,1.48.14c.4,0,.8,0,1.2,0,0,0,.1-.09.15-.14s.05-.14,0-.18Z"/><path d="M93.39,34l-1-.07V32l.63-.15c.05-.17.13-.4.21-.64l.53-.22c.36-.25.42-.31.47-.31h2c.4.5,1.3.42,1.39,1.06s.69.79.86,1.3-.64.65-.81,1.09V35l.79.83v2.34l-1.22,1.32L96.15,40H94.69a2.62,2.62,0,0,0-.58-.35,2.9,2.9,0,0,0-.78,0,1.72,1.72,0,0,0-.9-1.32V37c.47-.29.94-.11,1.4-.14.64.33.58,1.18,1.2,1.59h.82c.59-.18.5-1,1-1.34L96,35.59H94.65c-.39-.35-.09-.72-.25-1L95,34l1-.09v-1c-.26-.18-.4-.54-.6-.56s-.34,0-.38,0Z"/><path d="M172.13,13.82l.8.64v.95l-.79.28v1.18l-.58.7h-.87L170.1,17c-.08-.46.11-.94-.17-1.44h-3.35c-.12-.3-.21-.54-.32-.76a1.18,1.18,0,0,0-.21-.26,4.6,4.6,0,0,1,.71-1.14c.42-.37.41-1,.84-1.3s.65-.7,1-1,.18-.75.56-1a4.38,4.38,0,0,0,.86-.86c.11-.13.08-.37.13-.59h1.38l.58.55Zm-2.22-1.58c-.36.37-.72.7-1.07,1.09l.11.51a1.72,1.72,0,0,0,1.18-.16C170,13.26,170.23,12.79,169.91,12.24Z"/><path d="M153.52,18.41c-.55,0-.66-.3-.86-.47a9,9,0,0,0-2.11-1.75,3,3,0,0,1-1.31-1.66v-.82l3.49-3.46h1.1l1.93,1.94s0,.12,0,.25a3.79,3.79,0,0,1,1.63,1.31v.61c0,.07,0,.14,0,.19a3.76,3.76,0,0,1-.28.29ZM155,14.25c-.29-.54-.89-.81-1-1.46,0-.23-.35-.58-.63-.54l-1.65,1.65v.68c.58.45,1,1.11,1.54,1.4Z"/><path d="M81.35,14.52l.79.79,0,.78-.44.5c-.11.09-.16.17-.21.17h-5.7l-.64-.64a2.28,2.28,0,0,1,.16-.9c.52-.87.89-1.81,1.4-2.69s.76-1.73,1.31-2.52c.1-.14.07-.37.1-.6l1.52.88,0,.85c.25.34.54.69.8,1.07s.39,1.08.81,1.5c0,0,0,.13,0,.2Z"/><path d="M10.59,11l0-.54,1-.53,1.06.6,2.4,2.4a1.71,1.71,0,0,1,0,.71,5,5,0,0,1-.78,1.3c-.58.66-1.23,1.25-1.86,1.88H11.22A9.59,9.59,0,0,0,9,14.88c-.53-.25-.53-1-.85-1.53a7.15,7.15,0,0,0,1.13-1.52C9.54,11.36,9.94,10.87,10.59,11Z"/><path d="M235.93,33.74l.59-.6h4.82l1.09,1c.1.51-.2.63-.33.85a1.61,1.61,0,0,0-.1.53l-.58.15L239.22,40v1l-.42.46c-.09.3.13.66-.17,1H237.3l-.43-1,.66-1.3v-1c.92-1.3,1.12-3,2.58-3.81l-.26-.59c-.44-.15-.63.18-.87.36l-.38-.38h-2.46C235.78,34.41,236,34.05,235.93,33.74Z"/><path d="M25.15,34l-.41.33H23.32l-.06-.84a4.15,4.15,0,0,1,1.6-1.36,8.09,8.09,0,0,0,1.46-1.41c.54-.2.66.35,1,.5v8.35l-.73.52h-.69l-.6-1.14V34.15S25.23,34.06,25.15,34Z"/><path d="M307.9,17l-.62.58h-.8l-.61-1.16V12.09c-.63-.74-.82.32-1.26.18s-.51-.42-.79-.6v-.9l1.05-.71.11.14,1.49-1.59h.83l.6.59Z"/></g></g></svg>