<svg xmlns="http://www.w3.org/2000/svg" viewBox="0 0 120.19 120.19"><defs><style>.cls-1{fill:none;stroke:#000;stroke-miterlimit:10;stroke-width:2.6px;}</style></defs><title>Recurso 88MANDALA</title><g id="Capa_2" data-name="Capa 2"><g id="Capa_1-2" data-name="Capa 1"><path class="cls-1" d="M22.58,46.22A54.77,54.77,0,0,0,22,57.56C21.9,64.45,31,71.65,42.38,70.43A58.39,58.39,0,0,0,86.79,42c5.78-9.22,11.72-18.93,18.46-23.64a67.7,67.7,0,0,1-11.74,6.09c-7.12,3.15-13.53,10.1-18.93,17a47,47,0,0,1-38,18.75C27.46,60,21.19,52.68,22.58,46.22Z"/><path class="cls-1" d="M20.67,66.83A54.82,54.82,0,0,0,25.79,77c3.41,6,14.88,7.67,24.13.93A58.41,58.41,0,0,0,74.16,31.06c.39-10.88.68-22.25,4.16-29.7A67.5,67.5,0,0,1,71.2,12.5C66.61,18.79,64.53,28,63.32,36.7A46.93,46.93,0,0,1,39.78,71.94C31.77,76.32,22.69,73.12,20.67,66.83Z"/><path class="cls-1" d="M29.32,85.64a54.85,54.85,0,0,0,9.51,6.22c5.94,3.48,16.72-.79,21.36-11.26a58.41,58.41,0,0,0-2.44-52.69C52.65,18.3,47.22,8.3,46.51.11a67.54,67.54,0,0,1-.59,13.21c-.84,7.74,2,16.77,5.27,24.9a46.93,46.93,0,0,1-2.77,42.29C43.68,88.3,34.22,90.08,29.32,85.64Z"/><path class="cls-1" d="M46.22,97.6a54.77,54.77,0,0,0,11.34.64c6.89,0,14.09-9,12.87-20.44A58.43,58.43,0,0,0,42,33.39c-9.22-5.77-18.93-11.71-23.64-18.45a68,68,0,0,1,6.09,11.73c3.15,7.12,10.1,13.54,17,18.94a46.94,46.94,0,0,1,18.75,38C60,92.73,52.68,99,46.22,97.6Z"/><path class="cls-1" d="M66.83,99.52A54.87,54.87,0,0,0,77,94.39c6-3.4,7.67-14.88.93-24.13A58.4,58.4,0,0,0,31.06,46c-10.88-.39-22.25-.68-29.7-4.17A67.5,67.5,0,0,1,12.5,49c6.29,4.59,15.51,6.68,24.2,7.89A46.91,46.91,0,0,1,71.94,80.41C76.32,88.41,73.12,97.49,66.83,99.52Z"/><path class="cls-1" d="M85.64,90.87a55.24,55.24,0,0,0,6.22-9.51C95.34,75.42,91.07,64.63,80.6,60a58.41,58.41,0,0,0-52.69,2.43C18.3,67.53,8.3,73,.11,73.67a67.53,67.53,0,0,1,13.21.6c7.74.83,16.77-2,24.9-5.27a46.93,46.93,0,0,1,42.29,2.76C88.3,76.5,90.08,86,85.64,90.87Z"/><path class="cls-1" d="M97.6,74a54.87,54.87,0,0,0,.64-11.35c0-6.88-9-14.08-20.44-12.86A58.43,58.43,0,0,0,33.39,78.21c-5.77,9.22-11.71,18.93-18.45,23.63a67.22,67.22,0,0,1,11.73-6.08c7.12-3.15,13.54-10.1,18.94-17A46.89,46.89,0,0,1,83.61,60C92.73,60.2,99,67.51,97.6,74Z"/><path class="cls-1" d="M99.52,53.36a54.64,54.64,0,0,0-5.13-10.15c-3.4-6-14.88-7.67-24.13-.92A58.4,58.4,0,0,0,46,89.13c-.39,10.87-.68,22.25-4.17,29.7A67.08,67.08,0,0,1,49,107.69c4.59-6.29,6.68-15.51,7.89-24.21A46.91,46.91,0,0,1,80.41,48.25C88.41,43.87,97.49,47.06,99.52,53.36Z"/><path class="cls-1" d="M90.87,34.55a55.28,55.28,0,0,0-9.51-6.23c-5.94-3.48-16.73.8-21.36,11.27a58.39,58.39,0,0,0,2.43,52.68c5.1,9.62,10.54,19.61,11.24,27.8a67.39,67.39,0,0,1,.6-13.2C75.1,99.12,72.29,90.1,69,82a46.91,46.91,0,0,1,2.76-42.28C76.5,31.88,86,30.11,90.87,34.55Z"/><path class="cls-1" d="M74,22.58A54.87,54.87,0,0,0,62.62,22C55.74,21.9,48.54,31,49.76,42.38A58.39,58.39,0,0,0,78.21,86.79c9.22,5.78,18.93,11.72,23.63,18.46a67,67,0,0,1-6.08-11.74c-3.15-7.12-10.1-13.53-17-18.93A46.9,46.9,0,0,1,60,36.58C60.2,27.46,67.51,21.19,74,22.58Z"/><path class="cls-1" d="M53.36,20.67a54.59,54.59,0,0,0-10.15,5.12c-6,3.41-7.67,14.88-.92,24.13A58.41,58.41,0,0,0,89.13,74.16c10.87.39,22.25.68,29.7,4.16a67.08,67.08,0,0,1-11.14-7.12c-6.29-4.59-15.51-6.67-24.21-7.88A46.93,46.93,0,0,1,48.25,39.78C43.87,31.77,47.06,22.69,53.36,20.67Z"/><path class="cls-1" d="M34.55,29.32a54.9,54.9,0,0,0-6.23,9.51c-3.48,5.94.8,16.72,11.27,21.36a58.39,58.39,0,0,0,52.68-2.44c9.62-5.1,19.61-10.53,27.8-11.24a67.4,67.4,0,0,1-13.2-.59c-7.75-.84-16.77,2-24.91,5.27a46.91,46.91,0,0,1-42.28-2.77C31.88,43.68,30.11,34.22,34.55,29.32Z"/></g></g></svg>