<svg xmlns="http://www.w3.org/2000/svg" viewBox="0 0 109.38 109.38"><title>Recurso 71MANDALA</title><g id="Capa_2" data-name="Capa 2"><g id="Capa_1-2" data-name="Capa 1"><path d="M53.7,31.68a17.88,17.88,0,0,0-3.14,3.13,45.68,45.68,0,0,0-2.74,14.28,11.44,11.44,0,0,1,2.33-5.45A48.79,48.79,0,0,1,67.44,20.08a15.46,15.46,0,0,0-4.69-1.49,16.07,16.07,0,0,0-2.3-.17,19.55,19.55,0,0,1,4.69-.81A47.53,47.53,0,0,1,82,8.37a22.93,22.93,0,0,0-7.71-5.31C59.53,11.6,51.7,24.17,48.74,35.43a13.92,13.92,0,0,1,2.47-2.33A12.88,12.88,0,0,1,53.7,31.68Z"/><path d="M42.33,35.25a18,18,0,0,0-1.16,4.29,46.12,46.12,0,0,0,4.77,13.74,11.44,11.44,0,0,1-.71-5.89,48.78,48.78,0,0,1,3.2-29,15.35,15.35,0,0,0-4.81,1.06,16.54,16.54,0,0,0-2.08,1,19.57,19.57,0,0,1,3.66-3A47.72,47.72,0,0,1,55.17.92,22.83,22.83,0,0,0,45.84.19C37.34,15,36.84,29.76,39.9,41a13.61,13.61,0,0,1,1-3.25A12.45,12.45,0,0,1,42.33,35.25Z"/><path d="M34.26,44a18.07,18.07,0,0,0,1.15,4.29,45.79,45.79,0,0,0,11,9.51,11.47,11.47,0,0,1-3.56-4.74A48.88,48.88,0,0,1,31.09,26.34a15.61,15.61,0,0,0-4.93,5.23A19.25,19.25,0,0,1,27.8,27.1a47.71,47.71,0,0,1,.43-19.22,23.09,23.09,0,0,0-8.46,4c0,17,7,30.11,15.26,38.3a13.36,13.36,0,0,1-.77-3.31A13,13,0,0,1,34.26,44Z"/><path d="M31.68,55.68a18.59,18.59,0,0,0,3.13,3.14,46,46,0,0,0,14.28,2.74,11.44,11.44,0,0,1-5.45-2.33,48.81,48.81,0,0,1-23.56-17.3,15.52,15.52,0,0,0-1.49,4.7,16.07,16.07,0,0,0-.17,2.3,19.63,19.63,0,0,1-.81-4.69A47.62,47.62,0,0,1,8.37,27.39,22.83,22.83,0,0,0,3.06,35.1C11.6,49.85,24.17,57.68,35.43,60.64a14,14,0,0,1-2.33-2.48A12.8,12.8,0,0,1,31.68,55.68Z"/><path d="M35.25,67.05a18.47,18.47,0,0,0,4.29,1.16,46.13,46.13,0,0,0,13.74-4.78,11.45,11.45,0,0,1-5.89.72,48.86,48.86,0,0,1-29-3.2,15.47,15.47,0,0,0,1.06,4.81,16.54,16.54,0,0,0,1,2.08,19.57,19.57,0,0,1-3-3.66A47.76,47.76,0,0,1,.92,54.2a22.88,22.88,0,0,0-.73,9.34C15,72,29.76,72.54,41,69.47a13.6,13.6,0,0,1-3.25-1A13,13,0,0,1,35.25,67.05Z"/><path d="M44,75.11A18.53,18.53,0,0,0,48.33,74a46.17,46.17,0,0,0,9.51-11,11.47,11.47,0,0,1-4.74,3.56A48.8,48.8,0,0,1,26.34,78.28a15.38,15.38,0,0,0,3.32,3.64,15.66,15.66,0,0,0,1.91,1.3,19.25,19.25,0,0,1-4.47-1.64,47.71,47.71,0,0,1-19.22-.43,23,23,0,0,0,4,8.45c17,0,30.11-7,38.3-15.26a13.85,13.85,0,0,1-3.31.78A13,13,0,0,1,44,75.11Z"/><path d="M55.68,77.7a18.59,18.59,0,0,0,3.14-3.13,46,46,0,0,0,2.74-14.29,11.43,11.43,0,0,1-2.33,5.46A48.81,48.81,0,0,1,41.93,89.3a15.5,15.5,0,0,0,4.7,1.48,14.76,14.76,0,0,0,2.3.18,19.63,19.63,0,0,1-4.69.81A47.78,47.78,0,0,1,27.39,101a22.66,22.66,0,0,0,7.71,5.3C49.85,97.77,57.68,85.2,60.64,74a14,14,0,0,1-2.48,2.33A13.34,13.34,0,0,1,55.68,77.7Z"/><path d="M67.05,74.13a18.47,18.47,0,0,0,1.16-4.29A46.13,46.13,0,0,0,63.43,56.1,11.45,11.45,0,0,1,64.15,62,48.86,48.86,0,0,1,61,91,15.76,15.76,0,0,0,65.76,90a16.54,16.54,0,0,0,2.08-1,20,20,0,0,1-3.66,3,47.72,47.72,0,0,1-10,16.42,22.72,22.72,0,0,0,9.34.74c8.5-14.77,9-29.57,5.93-40.8a13.43,13.43,0,0,1-2.42,5.74Z"/><path d="M75.11,65.34A18.53,18.53,0,0,0,74,61.05a46.17,46.17,0,0,0-11-9.51,11.41,11.41,0,0,1,3.56,4.74A48.76,48.76,0,0,1,78.28,83a15.53,15.53,0,0,0,4.94-5.23,19.42,19.42,0,0,1-1.64,4.47,47.66,47.66,0,0,1-.43,19.21,22.66,22.66,0,0,0,8.45-4c0-17-7-30.11-15.26-38.29a13.77,13.77,0,0,1,.78,3.3A13.11,13.11,0,0,1,75.11,65.34Z"/><path d="M77.7,53.7a17.88,17.88,0,0,0-3.13-3.14,45.74,45.74,0,0,0-14.29-2.74,11.43,11.43,0,0,1,5.46,2.33A48.79,48.79,0,0,1,89.3,67.44a15.44,15.44,0,0,0,1.48-4.69,14.76,14.76,0,0,0,.18-2.3,19.55,19.55,0,0,1,.81,4.69A47.69,47.69,0,0,1,101,82a22.76,22.76,0,0,0,5.3-7.71C97.77,59.53,85.2,51.7,74,48.74a13.92,13.92,0,0,1,2.33,2.47A13.42,13.42,0,0,1,77.7,53.7Z"/><path d="M74.13,42.33a18,18,0,0,0-4.29-1.16A46.12,46.12,0,0,0,56.1,45.94,11.44,11.44,0,0,1,62,45.23,48.78,48.78,0,0,1,91,48.43,15.63,15.63,0,0,0,90,43.62a16.54,16.54,0,0,0-1-2.08,20,20,0,0,1,3,3.66,47.68,47.68,0,0,1,16.42,10,22.67,22.67,0,0,0,.74-9.33c-14.77-8.5-29.57-9-40.8-5.94a13.69,13.69,0,0,1,3.26,1A13,13,0,0,1,74.13,42.33Z"/><path d="M65.34,34.26a18.07,18.07,0,0,0-4.29,1.15,45.79,45.79,0,0,0-9.51,11,11.41,11.41,0,0,1,4.74-3.56A48.84,48.84,0,0,1,83,31.09a15.61,15.61,0,0,0-5.23-4.93,19.42,19.42,0,0,1,4.47,1.64,47.66,47.66,0,0,1,19.21.43,22.78,22.78,0,0,0-4-8.46c-17,0-30.11,7-38.29,15.26a13.29,13.29,0,0,1,3.3-.77A13.11,13.11,0,0,1,65.34,34.26Z"/></g></g></svg>