<svg xmlns="http://www.w3.org/2000/svg" viewBox="0 0 69.32 69.32"><title>Recurso 39MANDALA</title><g id="Capa_2" data-name="Capa 2"><g id="Capa_1-2" data-name="Capa 1"><polygon points="34.72 9.51 40.21 0 29.23 0 34.72 9.51"/><polygon points="16.92 16.83 14.08 6.22 6.31 13.99 16.92 16.83"/><polygon points="9.51 34.6 0 29.11 0 40.09 9.51 34.6"/><polygon points="16.83 52.4 6.22 55.24 13.99 63.01 16.83 52.4"/><polygon points="34.6 59.8 29.11 69.32 40.09 69.32 34.6 59.8"/><polygon points="52.4 52.48 55.24 63.09 63.01 55.33 52.4 52.48"/><polygon points="59.8 34.72 69.32 40.21 69.32 29.23 59.8 34.72"/><polygon points="52.48 16.92 63.09 14.08 55.33 6.31 52.48 16.92"/></g></g></svg>