<svg xmlns="http://www.w3.org/2000/svg" viewBox="0 0 301.89 32.35"><title>Recurso 21GRAPHS</title><g id="Capa_2" data-name="Capa 2"><g id="Capa_1-2" data-name="Capa 1"><path d="M163.47,26.44V25.17l-.42-.45c-.09-.35.13-.53.3-.76a2.57,2.57,0,0,0,.28-.73h.94l.6.65v1.27c-.1.25-.57.4-.4.86l.43.46v3c0,.05.1.1.26.27l.3-.8.28.19V24.39l.63-.73c.58-.09.78.37,1.11.64,0,1.71,0,3.43,0,5.15,0,.05.08.11.13.16.54.31.73-.2,1-.45a.5.5,0,0,0,.11-.17.72.72,0,0,0,0-.21V19.13c.31-.38.7-.15,1.1-.23l.63.81v9.9l.63.09c.08-.08.18-.13.18-.18,0-1.72,0-3.44,0-5.12l.57-.71c.68-.12.81.29,1.08.49,0,.06.1.11.11.18a.72.72,0,0,1,0,.21v5l.59.16c.1-.13.26-.23.26-.34,0-1.71,0-3.43,0-5l.61-.74h.92l.57,1.1-.37.41v3.87l.62.62.43,0c.08-.1.23-.21.23-.31,0-.85,0-1.71,0-2.49l.4-.4-.38-.47V24.25l1.15-1,1,1.26v5.09l.63.07c.08-.09.18-.14.18-.19V25.22l.46-.5v-.9l.61-.23c.1.2.17.37.25.53s.2.35.41.74v4.71l.64.15c.09-.14.24-.24.24-.35,0-4.53,0-9.06,0-13.53l.58-1.16c.28-.18.63-.07,1,0l.61.61V28.17l-.36.4.57,1.12h.43c.08-.11.22-.22.22-.33,0-1.65,0-3.31,0-5.14l.64-.55c.61-.12.73.44,1.09.59v5.27l.62.22a5.46,5.46,0,0,1,.24-.54c.09-.18.2-.35.41-.72v-4.6c.37-.39.76-.16,1.09-.24l.63,1.22s0,.1,0,.24c0,1.43,0,2.87,0,4.31,0,.06.07.11.13.22l.54,0c.36-.48.14-1,.18-1.48s0-1,0-1.51,0-1,0-1.51a3,3,0,0,1,.15-1.5l.87,0,.56.51c.06.09.12.14.13.2a.81.81,0,0,1,0,.22v4.91a.55.55,0,0,0,.85,0V24.42l.62-.75h.92c.4.44.12,1,.2,1.47l.41.45-.41.45v2.43l.62,1.2.43,0c.08-.1.23-.21.23-.31q0-4.1,0-8.19V19.68l.62-.78c.68.09.67.24,1.11.66v9.91c0,.05.09.1.17.18h.54c.27-.5.08-1,.17-1.49l.38-.38V23.91c.37-.41.75-.18,1.08-.26.08.11.23.21.23.32,0,1.72,0,3.43,0,5.08l.67.64.45,0c.05-.05.14-.1.14-.16,0-1.57,0-3.15,0-4.71a2.43,2.43,0,0,0,.44-.49,2.21,2.21,0,0,0,.11-.6h1.15v1.41l.38.38c.16.49.25,1-.29,1.35v2.27l.79.38c.22-.28,0-.8,0-1.29l.43-.46V23.87l.63-.64.63.59v1.24l.49.6v4l.63.06c.08-.08.18-.13.18-.18,0-1.73,0-3.45,0-4.94l.56-.87c.68-.1.81.32,1.16.57v5.08l.65.8c.09-.09.18-.14.18-.19,0-.71,0-1.43,0-2.12l.47-.52v-1.7l-.43-.46c-.16-.45.28-.61.45-.94V19.53c.31-.19.42-.62.85-.62s.53.43.86.63v9.88c0,.06.08.12.15.22l.52,0c.08-.08.17-.13.17-.18,0-1.73,0-3.45,0-5.19l.64-.59h1a3.56,3.56,0,0,1,.12,1.51c0,.5,0,1,0,1.51v2.73l.64.67.65-.65c0-1.83,0-3.7,0-5.56,0-.06.07-.11.16-.23l1-.06.59.93v5l.8.1V24.91c.47-.53.47-1.33,1.16-1.66l.61.62v5.61l.64.62.62-.57V24.25l.72-.58h.86c.07.14.18.26.18.38,0,1.8,0,3.59,0,5.39.23.22.38.54.82.61V28.23l.43-.43V25.11l-.35-.34V20l.66-1.13c.54-.08.71.41,1,.66v9.48c.38.24.54.94,1.28.47V23.87c.52-.41,1-.07,1.48-.27.11.16.25.28.25.39,0,1.79,0,3.59,0,5.58l.59.57.71-.66V24.29c.29-.19.42-.59.81-.64s.56.4.92.63v5.33l.63.09c.08-.08.18-.13.18-.19,0-1.71,0-3.43,0-5.15l.64-.67h1c.08.09.15.14.16.2a3.09,3.09,0,0,1,0,.43v5.16l.63.63.63-1.2V23.82l.63-.6c.41,0,.67,0,.72.42,0,.25.24.47.42.78v5.07l.67.67a3.33,3.33,0,0,1,.19-.56,3.84,3.84,0,0,1,.37-.56v-2.2l-.36-.37.41-.45V15.25c.32-.24.49-.73,1.1-.64a4.5,4.5,0,0,0,.2.48c.09.18.21.35.39.64v9.38l-.47.69.49.72v.79l-.41.45V28.9l.63,1.21.62-.59V24.27l.84-.6h.74c.07.14.18.26.18.38,0,1.8,0,3.6,0,5.45l.73.6.27-.72.28.19V23.89c.37-.39.75-.16,1.1-.24l.62.65v5.13l.59.62c.35,0,.35-.38.57-.4s.15-.16.15-.22a3.12,3.12,0,0,0,0-.43V24a1.52,1.52,0,0,1,0-.21c.28-.35.68-.07,1-.21a6.12,6.12,0,0,1,.62,1.05c.16.47.23,1-.31,1.32l.48.7-.57.74.3.67c.39.61,0,1.37.39,2.08l.62-.8V24.25l.63-.6c.42,0,.67,0,.72.42a2.52,2.52,0,0,0,.42.78V30l.68.09a2.15,2.15,0,0,0,.17-.27.81.81,0,0,0,0-.22v-.21q0-4.43,0-8.85a.65.65,0,0,1,0-.19L254,20l.11-1c.32-.3.69-.09,1-.16l.64.65V30c.46.07.51-.3.77-.42a5.13,5.13,0,0,0,.09-1.66c0-.5,0-1,0-1.47l.44-.49c0-.43.14-.9-.36-1.17l.49-1.07c.29-.19.64-.06,1,0,.36.44.09,1,.17,1.45l.43.46v2.57l-.42.45v.87l.65.65.66-.77V23.81a1.57,1.57,0,0,1,1.09-.12c.33.29.1.68.18,1l.42.45-.41.44v3c.57.3.36.87.49,1.39l.54.12c.1-.14.24-.25.24-.36,0-1.51,0-3,0-4.53a1.61,1.61,0,0,0,.38-1.56c.35,0,.59-.07.73,0a3.69,3.69,0,0,1,.62.56v5.21l.63.63.63-.59V24.25l.64-.58c.64-.1.8.4,1.12.65V30l.57.19.67-.63v-6l-.44-.7.47-.72V21.3c-.14-.26-.57-.42-.41-.87l.44-.47v-.84c.28-.37.67-.12,1-.25l.65,1.24V23l-.45.7.48.72v2.51l-.42.45v2.14c.37.24.53.94,1.27.5V24.36l.66-.7h.88c.07.12.2.23.2.35,0,1.8,0,3.59,0,5.39.31.34.5.89,1.13.67.06-.06.16-.11.16-.16V24.3c.29-.2.42-.58.81-.65s.56.39.88.6v5.28l.68.6c.1-.1.19-.15.19-.2,0-1.86,0-3.73,0-5.4l.56-.84c.69-.11.81.32,1.17.56V30l.64.14c.2-.38.39-.73.7-1.35V23.71h1.08l.62.58V30l.57.21.7-.66V19.66l.63-.73c.62-.14.76.4,1.12.57V30.33l.78-.78a5,5,0,0,0,.07-1.64c0-.64,0-1.29,0-1.94V24.29c.33-.21.43-.64.86-.64s.54.43.86.64c0,1.84,0,3.7,0,5.56,0,.06.07.12.14.22l.52,0c.08-.08.18-.13.18-.18,0-1.73,0-3.45,0-5l.63-1.23h.91a4,4,0,0,0,.2.46c.09.18.2.35.41.71V30l.64.13c.08-.08.17-.13.17-.18,0-1,0-2,0-2.78.15-.54.68-.65.36-1.27l-.3-.33v-.85c.46-.22.34-.86.56-1.06.68-.09.78.37,1.16.54V30l.63.11.65-.65v-5l.55-.77c.68-.11.81.31,1.16.56V30l.64.15c.1-.13.24-.24.24-.35,0-4.53,0-9.06,0-13.57L297,15c.78,0,.91.84,1.45,1v1.79l-.45.51V31.66c-.32.37-.71.06-1.17.31l-.32.3h-1.29l-.39-.38-.46.35h-3.5l-.34-.34h-1.82l-.37.36h-3l-.45-.41h-4.73l-.46.42-.36-.37H276.2l-.33.34h-1.81l-.34-.34H271l-.37.37h-1.29l-.45-.42h-1.28l-.53.5-1-.48h-47.2l-.38-.38c-.49-.1-1-.23-1.34.33h-1.31l-.45-.39h-.85l-.45.42h-1.71l-.45-.42c-.48-.17-.61.31-1,.46l-.78-.44H209l-.45.38h-1.71l-.44-.39-.45.41h-.84l-.45-.42h-1.3l-.37.37h-1.33l-.44-.34c-.75-.4-1.3.7-2.31.22l-.29-.26h-.84l-.45.42h-.86c-.11-.1-.21-.21-.31-.31-.47-.25-1,0-1.37-.13l-.61.52-.8-.46h-3l-.37.37h-2.16l-.45-.41h-.85l-.45.42h-1.28l-.55-.49-.88.46h-1.13c-.34-.15-.64-.74-1.26-.41l-.5.43h-.85l-.45-.41h-.84l-.45.42h-1.3l-.39-.39H58.47L58.05,31H51.6l-.7.45L50.18,31H13.56L13,30.26V15.13l.59-.52c.63-.09.79.4,1.11.65v13.9l.8.11c0-.44.06-.78.09-1.12l.38-.39V23.45c.38-.38.76-.15,1.1-.23.07.12.2.23.2.34,0,1.66,0,3.31,0,5.13l.63.58.51-.06c.33-.45.12-1,.15-1.44s0-1,0-1.51,0-1,0-1.51-.14-1,.15-1.5l.87,0,.57.51a1.1,1.1,0,0,1,.13.21.74.74,0,0,1,0,.21v5l.59.16c.11-.13.26-.24.26-.34,0-1.72,0-3.43,0-5l.61-.74h.93c.07.13.18.25.18.37,0,1.65,0,3.3,0,5,.33.31.52.88,1.13.65.07-.09.14-.14.16-.2a.81.81,0,0,0,0-.22V23.43c.29-.22.45-.58.66-.63.61,0,.73.4,1.09.63v5.75l.63.08.64-.64V19.13c.28-.21.42-.58.8-.65s.57.38.89.59v4l-.34.34v3.55l.43.43v1.85h.64c.07-.08.16-.13.16-.18,0-1.72,0-3.45,0-5.17l.61-.61a1.53,1.53,0,0,1,1.09.13v5.75l.66.15.64-.69V23.49l.57-.62c.76.13.6,1,1.13,1.37v1.83l-.34.34c0,.59-.22,1.19.32,1.75.18.2.09.66.13,1l.6.05c.08-.09.17-.14.17-.19,0-1.72,0-3.44,0-5.2l.69-.59H37a3.42,3.42,0,0,1,.13,1.51c0,.5,0,1,0,1.51v2.76a1.11,1.11,0,0,0,1.28.05V23.59l.63-.8c.7.33.61,1.13,1.11,1.52v3l-.41.46c-.09.37.15.54.31.77a2.61,2.61,0,0,1,.27.72h.48c.07-.12.21-.23.21-.34,0-1.86,0-3.72,0-5.48l.44-.43c0-1.26,0-2.55,0-3.84,0-.05.07-.11.15-.21h1c.31.3.08.68.17,1l.28.26a2.85,2.85,0,0,1,.12,1.47l-.3.3a1.9,1.9,0,0,0-.11.39v2.74l.37.38c0,.58.22,1.16-.28,1.75-.22.26-.09.82-.11,1.27l.6.65.52,0c.09-.09.18-.14.18-.19,0-1.73,0-3.45,0-5.18l.64-.63.62.58V28L46,29.26c.54.08.72-.4,1-.65V23.44c.36-.39.77-.21,1.17-.13,0,.06.1.1.12.17a.72.72,0,0,1,0,.21v4.92l.64.65h.42c.08-.11.22-.22.22-.33,0-1.65,0-3.3,0-5l.51-.56a1.57,1.57,0,0,1,1-.09c.06.12.17.24.17.36,0,1.66,0,3.31,0,5l.69.59.45,0a1.24,1.24,0,0,0,.15-.21.74.74,0,0,0,0-.21V23.87l.64-.64h.49a4.72,4.72,0,0,0,.17.54,3.39,3.39,0,0,0,.23.34c.09.17.16.36.24.53l-.47.53v3.47l.69.59.49,0a5,5,0,0,0,.1-1.72c0-.5,0-1,0-1.51V19.73l.64-1.25h.87c.07.11.2.22.2.34,0,3.23,0,6.47,0,9.87l.64.58.49-.06c0-.05.15-.1.15-.15,0-1.58,0-3.16,0-4.76l1.14-1.08.62.87v5c.39.29.75.14,1.09.15.06-.11.18-.23.18-.35,0-1.51,0-3,0-4.53.6-.62.6-.62,1.22-.62.17.76,0,1.55.1,2.33l.34.34c.17.85,0,1.78.1,2.69l.37.17a.74.74,0,0,0,.21,0c.08-.1.23-.21.23-.31,0-1.72,0-3.43,0-5l.61-.76c.61-.08.79.39,1.12.64V28.6c.63.61.63.61,1.26.54V23.93l.66-.7c.56-.1.76.35,1.09.62v4.78l.74.61.54-1.11V14.84c.37-.4.75-.17,1.11-.25l.67.74V29.19l.62.06c.09-.08.18-.13.18-.18,0-1.58,0-3.16,0-4.78l.73-.59H74a1.24,1.24,0,0,1,.15.21.79.79,0,0,1,0,.22v4.48l.64.65h.43c.07-.11.21-.22.21-.33,0-1.65,0-3.31,0-5.14l.67-.57c.33,0,.58,0,.64.4a3.15,3.15,0,0,0,.42.81v4.73l.81.12V27.36l.46-.45V23.46c.37-.42.77-.11,1.07-.28.1.15.23.27.23.38,0,1.86,0,3.71,0,5.51.4.31.76.15,1.1.17.07-.12.19-.23.19-.35,0-1.66,0-3.31,0-5l.52-.63c.67-.13.81.29,1.06.45a.82.82,0,0,1,.14.2.81.81,0,0,1,0,.22V29l.65.65c.2-.2.41-.4.63-.63V19.22l.55-.7c.67-.12.81.29,1.08.49a.82.82,0,0,1,.11.17.81.81,0,0,1,0,.22v9.73l.64.17.63-.73V23.82l.62-.62.54.08s.15.1.15.15V29c.35.41.77.21,1.17.15,0-.06.11-.1.13-.16a.81.81,0,0,0,0-.22V23.86c.3-.22.46-.58.66-.63.62,0,.73.4,1.09.63v5.23c.73.47.9-.24,1.28-.48l-.31-.28a1.64,1.64,0,0,1-.12-.4c0-1.22,0-2.43,0-3.46l.64-1.24h.89l.65.72v5.24l.63.06c.08-.08.15-.12.18-.18a.49.49,0,0,0,0-.21c0-1.65,0-3.3,0-5,0,0,.08-.1.15-.2h1.39c.07.07.16.12.17.17a3.09,3.09,0,0,1,0,.43v4.75c.35.38.76.21,1.16.12.05-.05.12-.11.12-.16,0-2.73,0-5.46,0-8.16L98,20.51c0-.45.81-.7.15-1.31l.86-.72c.57-.08.73.41,1.06.65v10l.67.11a1.34,1.34,0,0,0,.18-.26.79.79,0,0,0,0-.22V24.47l.64-1.25h.88c.14.29.29.59.44.88a.91.91,0,0,0,.17.18v3.46c-.12.29-.81.54-.26,1,.33.27.17.67.48.95l.65-.6V24l.63-.76c.35,0,.62,0,.69.38a4.68,4.68,0,0,0,.42.87c0,1.4,0,3,0,4.56,0,0,.09.1.13.16.54,0,.54,0,1-.46a.4.4,0,0,0,.12-.39V23.88l.64-.66h.44c.07.12.2.23.2.35,0,1.8,0,3.59,0,5.48l.81.48.35-.35c0-.05.12-.1.13-.16a3.09,3.09,0,0,0,0-.43V24.46l.63-1.22.47,0,.6.71V29l.63.73c.16-.16.25-.21.25-.26,0-2.16,0-4.31,0-6.48l.36-.34c.19-.71,0-1.5.1-2.19l-.49-.56c.11-.69.73-1,1.09-1.38l1.09,1.09v6.85l-.33.33c-.1.39-.27.83.12,1.15s.06.82.34,1.24l.52.08c.09-.14.21-.26.21-.37,0-1.51,0-3,0-4.57l.59-.63h1c.08.07.17.12.17.18,0,1.72,0,3.45,0,5.16l.63.64.63-.59V23.82l.66-.59c.62-.09.78.4,1.1.65v5.28l.73.1a5,5,0,0,0,.12-1.77c0-.65,0-1.3,0-1.95V23.87l.64-.65h.87c.07.12.2.23.2.34,0,1.8,0,3.6,0,5.56l.58.59.72-.65V23.43c.37-.36.78-.22,1.25-.09l.08,1.43.36.36-.34.43c-.08.46-.19,1,.34,1.29.1.91,0,1.84.08,2.7.73.4.89-.26,1.26-.54V15.23c.29-.2.41-.6.81-.63s.56.4.92.63v14l.63.08c.08-.08.18-.13.18-.18,0-1.58,0-3.16,0-4.78l1.15-1,.57.54v5.25l.89.42c-.12.11,0,.06,0,0,0-1.72,0-3.44,0-5.12.23-.38.78-.54.39-1.11h1.2c.07.1.13.14.15.21a.72.72,0,0,1,0,.21v4.76l.65,1.26L135,29V23.89l.68-.65c.53-.1.67.31.92.47a.42.42,0,0,1,.15.42V29l.65.66L138,29v-5.1l.59-.62c.32,0,.39.32.61.44a2.7,2.7,0,0,1,.11,1.26c0,.5,0,1,0,1.51v1.24l.34.34c.32.49-.2,1.14.31,1.61l.63-.65V19.62l.55-.67c.67-.12.81.29,1.08.49a.82.82,0,0,1,.11.17.81.81,0,0,1,0,.22v9.73l.65.18.62-.78V23.82l.6-.58c.69-.1.84.4,1.16.66v5.15l.62.62c.08-.1.22-.19.23-.29,0-1,0-2,0-2.92l.4-.41-.39-.46V24.33c.38-.27.4-.8.58-1.08.62-.1.75.31,1.1.57V29l.67.73.66-.65c0-1.7,0-3.42,0-5.14,0-.06.08-.11.15-.21h1.4c.07.07.14.11.16.17a.49.49,0,0,1,0,.21v5.44l.59.23.68-1.29V23.34l.61-.14c.61.37.77,1,1.07,1.57l-.36.4v3.88l.64.64.63-.08v-10l.64-.72h.9c.08.12.2.24.2.36q0,4.63,0,9.27v1c.76.45.93-.24,1.29-.49V23.87l.64-.64.66.64V29.5c.39.34.76.1,1.07.21.09-.16.21-.27.21-.39,0-1.8,0-3.6,0-5.42l.53-.64c.67-.12.81.29,1.08.49a.82.82,0,0,1,.11.17.81.81,0,0,1,0,.22v5.42l.62.17.65-1.25V27.33l-.37-.43Z"/><path d="M300.84,1.66l.63.63v.87l-.54.57c-.08,0-.14.08-.2.08h-4.1c-.33-.07-.45-.59-.81-.46l-1.21,1.06c-.09.63.34.76.56,1.08h4.17a13.53,13.53,0,0,1,1.45.88,11.15,11.15,0,0,1,1.1,1.08V10.5c-.08.24-.56.37-.38.87l-1.17,1.05h-.74l-.49.44h-3.43l-.47-.43h-.84l-1.07-1.07v-.91c.58-.32,1.23-.1,2-.19l.56.88h2.33c.76-.47,1.61-.72,2-1.81V8.84l-1.48-1.57h-3l-.37.37h-1.83L293,7.19a1.36,1.36,0,0,1-.13-.37c0-1.37,0-2.73,0-4.09l1.08-1.07Z"/><path d="M123.38,4.42V2.75c.11-.26.57-.4.4-.86L125.87.81h4.07l2,2.05V5.34l-1.56,1.49h-.8l-.46.43h-.66c-.7.36-1.43.69-2.12,1.09a5.94,5.94,0,0,0-.84.67V10.1a1.29,1.29,0,0,0,.38.18h4.4l.78.65c.09.57-.34.69-.48,1-.1.06-.15.12-.21.12h-6.35L122.93,11V9.63c.28-.4.88-.55.86-1.16A4.88,4.88,0,0,1,126,6.61c.62-.26,1.15-.75,1.9-.64l.47-.43h.87l1.05-1.11v-.8c-.25-.65-1.06-.57-1.47-1.09h-2.16l-.46.4h-.77c-.51.11,0,.88-.73.9C124.3,3.85,124,4.15,123.38,4.42Z"/><path d="M9.94,9V8.4L9.5,7.9V7.08l-.3-.32a1.28,1.28,0,0,1-.14-.37c0-.5,0-1,0-1.5l.31-.31c.23-.39.07-.82.12-1.24,0-.06,0-.15,0-.2A6.9,6.9,0,0,0,10,2.47,12.84,12.84,0,0,1,11.3.87l1-.13L12.69.4h2.17l.46.37h.82l1.52,1.67s0,.17,0,.23c.46.36.34,1.06.86,1.37V7.77L17.93,9c-.75.6-1.33,1.74-2.55,2.16h-2.6C11.93,10.42,10.58,10.38,9.94,9ZM11.21,7.4a7,7,0,0,0,.87,1.33,4.84,4.84,0,0,0,1.14.65h1a6.73,6.73,0,0,0,1.18-.5c.34-.25.78-.55.88-.91.21-.69,1.15-1.38.17-2.2-.15-.13-.06-.54-.07-.83l.42-.47L16.39,4V3.17c-.3-.63-1.09-.56-1.5-1.08-.34,0-.69,0-1,0S13,2,12.68,2.25c-.93.33-1,1.27-1.47,1.9Z"/><path d="M180.29,10.43V9.78c.11-.46.56-.55.67-.78.27,0,.37,0,.41,0l1.7,1.69h2.16l.46-.39h.91a4,4,0,0,1,.23-.72,3,3,0,0,1,.43-.52l-1-1.78H184c-.38-.38-.15-.76-.23-1.1l.64-.62h1.68l.66-.61V3.55l-.48-.47c-.05,0-.11-.12-.16-.12h-2.56l-1.26,1.26h-1l-.54-.58c0-.66.66-1.29,2.36-2.37h3.39c.42.37,1,.5,1.51.93s.33,1.09.91,1.32v1.8l-.39.45V7l.41.45v3l-1.26,1.24-1.19.69h-3.64A6.08,6.08,0,0,1,180.29,10.43Z"/><path d="M239.44,9.85h-3.3l-1.06-1.08c-.25-.74.39-1.24.57-1.87.62-.31.59-1.08,1.06-1.5s.83-.8,1.21-1.22a1.87,1.87,0,0,0,.22-.56l1.91-1.95h1.26c.7.29.53,1.16,1.09,1.48v4.9l.86.85v.59c-.28.79-1.4,1-1.35,2l-.74,0Zm.19-1.73.61-.68c0-.87,0-1.66,0-2.45,0-.1-.14-.2-.18-.25L239,5.3l0,.61-1.29,1c0,1,0,1,.21,1.17Z"/><path d="M69.87,3.18l-.41-.45c-.09-.34.11-.53.29-.76A2.63,2.63,0,0,0,70,1.24h1l.56.71V10.1l-.61.61h-.87l-.62-.64V8a6.67,6.67,0,0,0,.42-.89l-.43-.47V4.9l.42-.45Z"/><path d="M0,.58,1.12,0l.57.53V3.28L1,3.81c-.52.08-.7-.4-1-.65Z"/><path d="M4.31,1V2.73c-.28.2-.42.58-.8.65S3,3,2.63,2.79V1L3.25.37C3.82.28,4,.77,4.31,1Z"/></g></g></svg>