<svg xmlns="http://www.w3.org/2000/svg" viewBox="0 0 117.71 117.71"><title>Recurso 65MANDALA</title><g id="Capa_2" data-name="Capa 2"><g id="Capa_1-2" data-name="Capa 1"><rect x="11.21" y="91.69" width="5.84" height="3.14" transform="translate(-44.74 19.56) rotate(-30)"/><rect x="14.7" y="86.04" width="5.84" height="3.14" transform="translate(-41.45 20.55) rotate(-30)"/><rect x="18.19" y="80.4" width="5.84" height="3.14" transform="translate(-38.16 21.54) rotate(-30)"/><rect x="23.25" y="77.48" width="5.84" height="3.14" transform="translate(-36.02 23.68) rotate(-30)"/><rect x="28.31" y="74.56" width="5.84" height="3.14" transform="translate(-33.88 25.82) rotate(-30)"/><rect x="34.94" y="74.36" width="5.84" height="3.14" transform="translate(-32.89 29.11) rotate(-30)"/><rect x="41.58" y="74.15" width="5.84" height="3.14" transform="translate(-31.9 32.39) rotate(-30)"/><rect x="48.21" y="73.95" width="5.84" height="3.14" transform="translate(-30.91 35.68) rotate(-30)"/><rect x="34.4" y="109.44" width="5.84" height="3.14" transform="translate(-77.47 87.83) rotate(-60)"/><rect x="34.6" y="102.81" width="5.84" height="3.14" transform="translate(-71.63 84.69) rotate(-60)"/><rect x="34.81" y="96.17" width="5.84" height="3.14" transform="translate(-65.79 81.55) rotate(-60)"/><rect x="37.73" y="91.11" width="5.84" height="3.14" transform="matrix(0.5, -0.87, 0.87, 0.5, -59.94, 81.55)"/><rect x="40.65" y="86.05" width="5.84" height="3.14" transform="translate(-54.1 81.55) rotate(-60)"/><rect x="46.29" y="82.56" width="5.84" height="3.14" transform="matrix(0.5, -0.87, 0.87, 0.5, -48.25, 84.69)"/><rect x="51.94" y="79.07" width="5.84" height="3.14" transform="translate(-42.41 87.83) rotate(-60)"/><rect x="57.58" y="75.58" width="5.84" height="3.14" transform="translate(-36.56 90.97) rotate(-60)"/><rect x="63.37" y="113.21" width="5.84" height="3.14" transform="translate(-48.5 181.07) rotate(-90)"/><rect x="60.22" y="107.37" width="5.84" height="3.14" transform="translate(-45.8 172.09) rotate(-90)"/><rect x="57.08" y="101.53" width="5.84" height="3.14" transform="translate(-43.09 163.1) rotate(-90)"/><rect x="57.08" y="95.68" width="5.84" height="3.14" transform="translate(-37.25 157.26) rotate(-90)"/><rect x="57.08" y="89.84" width="5.84" height="3.14" transform="translate(-31.41 151.41) rotate(-90)"/><rect x="60.22" y="83.99" width="5.84" height="3.14" transform="translate(-22.42 148.71) rotate(-90)"/><rect x="63.37" y="78.15" width="5.84" height="3.14" transform="translate(-13.43 146.01) rotate(-90)"/><rect x="66.51" y="72.31" width="5.84" height="3.14" transform="translate(-4.45 143.31) rotate(-90)"/><rect x="90.34" y="102" width="5.84" height="3.14" transform="translate(50.19 236.12) rotate(-120)"/><rect x="84.69" y="98.51" width="5.84" height="3.14" transform="translate(44.75 226) rotate(-120)"/><rect x="79.05" y="95.02" width="5.84" height="3.14" transform="translate(39.3 215.88) rotate(-120)"/><rect x="76.13" y="89.96" width="5.84" height="3.14" transform="translate(39.3 205.76) rotate(-120)"/><rect x="73.21" y="84.9" width="5.84" height="3.14" transform="translate(39.3 195.64) rotate(-120)"/><rect x="73" y="78.27" width="5.84" height="3.14" transform="translate(44.75 185.51) rotate(-120)"/><rect x="72.8" y="71.64" width="5.84" height="3.14" transform="translate(50.19 175.39) rotate(-120)"/><rect x="72.6" y="65" width="5.84" height="3.14" transform="translate(55.63 165.27) rotate(-120)"/><rect x="108.09" y="78.81" width="5.84" height="3.14" transform="translate(166.95 205.5) rotate(-150)"/><rect x="101.45" y="78.61" width="5.84" height="3.14" transform="translate(154.68 201.81) rotate(-150)"/><rect x="94.82" y="78.41" width="5.84" height="3.14" transform="translate(142.4 198.11) rotate(-150)"/><rect x="89.76" y="75.49" width="5.84" height="3.14" transform="translate(134.42 190.13) rotate(-150)"/><rect x="84.7" y="72.56" width="5.84" height="3.14" transform="translate(126.44 182.15) rotate(-150)"/><rect x="81.21" y="66.92" width="5.84" height="3.14" transform="translate(122.75 169.87) rotate(-150)"/><rect x="77.72" y="61.28" width="5.84" height="3.14" transform="translate(119.06 157.6) rotate(-150)"/><rect x="74.23" y="55.63" width="5.84" height="3.14" transform="translate(115.36 145.32) rotate(-150)"/><rect x="111.86" y="49.85" width="5.84" height="3.14" transform="translate(229.57 102.84) rotate(-180)"/><rect x="106.02" y="52.99" width="5.84" height="3.14" transform="translate(217.88 109.12) rotate(-180)"/><rect x="100.17" y="56.13" width="5.84" height="3.14" transform="translate(206.19 115.41) rotate(-180)"/><rect x="94.33" y="56.13" width="5.84" height="3.14" transform="translate(194.51 115.41) rotate(-180)"/><rect x="88.49" y="56.13" width="5.84" height="3.14" transform="translate(182.82 115.41) rotate(-180)"/><rect x="82.64" y="52.99" width="5.84" height="3.14" transform="translate(171.13 109.12) rotate(-180)"/><rect x="76.8" y="49.85" width="5.84" height="3.14" transform="translate(159.44 102.84) rotate(-180)"/><rect x="70.95" y="46.71" width="5.84" height="3.14" transform="translate(147.75 96.55) rotate(-180)"/><rect x="100.65" y="22.88" width="5.84" height="3.14" transform="translate(205.5 -6.16) rotate(150)"/><rect x="97.16" y="28.52" width="5.84" height="3.14" transform="translate(201.81 6.11) rotate(150)"/><rect x="93.67" y="34.16" width="5.84" height="3.14" transform="translate(198.11 18.39) rotate(150)"/><rect x="88.61" y="37.09" width="5.84" height="3.14" transform="translate(190.13 26.37) rotate(150)"/><rect x="83.55" y="40.01" width="5.84" height="3.14" transform="translate(182.15 34.35) rotate(150)"/><rect x="76.92" y="40.21" width="5.84" height="3.14" transform="translate(169.87 38.04) rotate(150)"/><rect x="70.29" y="40.41" width="5.84" height="3.14" transform="translate(157.6 41.73) rotate(150)"/><rect x="63.65" y="40.61" width="5.84" height="3.14" transform="translate(145.32 45.43) rotate(150)"/><rect x="77.46" y="5.13" width="5.84" height="3.14" transform="translate(126.37 -59.56) rotate(120)"/><rect x="77.26" y="11.76" width="5.84" height="3.14" transform="matrix(-0.5, 0.87, -0.87, -0.5, 131.81, -49.44)"/><rect x="77.06" y="18.39" width="5.84" height="3.14" transform="translate(137.26 -39.32) rotate(120)"/><rect x="74.13" y="23.45" width="5.84" height="3.14" transform="matrix(-0.5, 0.87, -0.87, -0.5, 137.26, -29.2)"/><rect x="71.21" y="28.51" width="5.84" height="3.14" transform="translate(137.26 -19.08) rotate(120)"/><rect x="65.57" y="32" width="5.84" height="3.14" transform="translate(131.81 -8.95) rotate(120)"/><rect x="59.93" y="35.49" width="5.84" height="3.14" transform="matrix(-0.5, 0.87, -0.87, -0.5, 126.37, 1.17)"/><rect x="54.28" y="38.98" width="5.84" height="3.14" transform="translate(120.93 11.29) rotate(120)"/><rect x="48.5" y="1.35" width="5.84" height="3.14" transform="translate(54.34 -48.5) rotate(90)"/><rect x="51.64" y="7.2" width="5.84" height="3.14" transform="translate(63.33 -45.8) rotate(90)"/><rect x="54.78" y="13.04" width="5.84" height="3.14" transform="translate(72.31 -43.09) rotate(90)"/><rect x="54.78" y="18.88" width="5.84" height="3.14" transform="translate(78.16 -37.25) rotate(90)"/><rect x="54.78" y="24.73" width="5.84" height="3.14" transform="translate(84 -31.41) rotate(90)"/><rect x="51.64" y="30.57" width="5.84" height="3.14" transform="translate(86.7 -22.42) rotate(90)"/><rect x="48.5" y="36.42" width="5.84" height="3.14" transform="translate(89.41 -13.43) rotate(90)"/><rect x="45.36" y="42.26" width="5.84" height="3.14" transform="translate(92.11 -4.45) rotate(90)"/><rect x="21.53" y="12.56" width="5.84" height="3.14" transform="translate(24.46 -14.11) rotate(60)"/><rect x="27.17" y="16.05" width="5.84" height="3.14" transform="translate(30.31 -17.25) rotate(60)"/><rect x="32.81" y="19.54" width="5.84" height="3.14" transform="translate(36.15 -20.39) rotate(60)"/><rect x="35.74" y="24.6" width="5.84" height="3.14" transform="translate(42 -20.39) rotate(60)"/><rect x="38.66" y="29.66" width="5.84" height="3.14" transform="translate(47.84 -20.39) rotate(60)"/><rect x="38.86" y="36.3" width="5.84" height="3.14" transform="translate(53.68 -17.25) rotate(60)"/><rect x="39.06" y="42.93" width="5.84" height="3.14" transform="translate(59.53 -14.11) rotate(60)"/><rect x="39.26" y="49.56" width="5.84" height="3.14" transform="translate(65.37 -10.97) rotate(60)"/><rect x="3.78" y="35.75" width="5.84" height="3.14" transform="matrix(0.87, 0.5, -0.5, 0.87, 19.56, 1.65)"/><rect x="10.41" y="35.96" width="5.84" height="3.14" transform="matrix(0.87, 0.5, -0.5, 0.87, 20.55, -1.64)"/><rect x="17.04" y="36.16" width="5.84" height="3.14" transform="translate(21.54 -4.93) rotate(30)"/><rect x="22.1" y="39.08" width="5.84" height="3.14" transform="translate(23.68 -7.07) rotate(30)"/><rect x="27.16" y="42" width="5.84" height="3.14" transform="translate(25.82 -9.2) rotate(30)"/><rect x="30.65" y="47.64" width="5.84" height="3.14" transform="matrix(0.87, 0.5, -0.5, 0.87, 29.11, -10.19)"/><rect x="34.14" y="53.29" width="5.84" height="3.14" transform="matrix(0.87, 0.5, -0.5, 0.87, 32.39, -11.18)"/><rect x="37.63" y="58.93" width="5.84" height="3.14" transform="translate(35.68 -12.17) rotate(30)"/><rect y="64.72" width="5.84" height="3.14"/><rect x="5.84" y="61.57" width="5.84" height="3.14"/><rect x="11.69" y="58.43" width="5.84" height="3.14"/><rect x="17.53" y="58.43" width="5.84" height="3.14"/><rect x="23.38" y="58.43" width="5.84" height="3.14"/><rect x="29.22" y="61.57" width="5.84" height="3.14"/><rect x="35.06" y="64.72" width="5.84" height="3.14"/><rect x="40.91" y="67.86" width="5.84" height="3.14"/></g></g></svg>