<svg xmlns="http://www.w3.org/2000/svg" viewBox="0 0 82.83 82.83"><title>Recurso 23MANDALA</title><g id="Capa_2" data-name="Capa 2"><g id="Capa_1-2" data-name="Capa 1"><path d="M63.48,52.86a1.09,1.09,0,0,0-.42.49,1.83,1.83,0,0,0-.13.55A4.11,4.11,0,0,0,63,55a12.46,12.46,0,0,0,.56,1.92c.23.63.46,1.25.64,1.88s.35,1.28.54,1.93.34,1.32.5,2,.33,1.39.56,2.15a21.89,21.89,0,0,0,.87,2.42,10,10,0,0,0,.72,1.35,3.35,3.35,0,0,0,1.21,1.16,2.14,2.14,0,0,0,1.61,0,2.92,2.92,0,0,0,1.18-.87,5.11,5.11,0,0,0,1.08-2.6,11.18,11.18,0,0,0-1.08-5.78,19.18,19.18,0,0,0-1.33-2.64,18.72,18.72,0,0,0-1.64-2.39,9.38,9.38,0,0,0-2.13-2A5.33,5.33,0,0,0,65,52.83a2.75,2.75,0,0,0-.75-.13A1.38,1.38,0,0,0,63.48,52.86Zm-.07-.08a1.65,1.65,0,0,1,.82-.19,3.67,3.67,0,0,1,.81.11,7.58,7.58,0,0,1,1.5.57,13.88,13.88,0,0,1,2.71,1.83,13.16,13.16,0,0,1,1.19,1.17,11.44,11.44,0,0,1,1,1.31,11.89,11.89,0,0,1,1.41,2.89,12.14,12.14,0,0,1,.26,6,7.77,7.77,0,0,1-1.07,2.75,3.85,3.85,0,0,1-1.11,1.09,2.17,2.17,0,0,1-.93.31,3.05,3.05,0,0,1-1.52-.25,5.81,5.81,0,0,1-1.49-1,7.89,7.89,0,0,1-.87-.91,11.39,11.39,0,0,1-1-1.52A15.19,15.19,0,0,1,64,64.6a21.22,21.22,0,0,1-1.09-3.86,19.1,19.1,0,0,1-.28-3.67c0-.65,0-1.32,0-2a7.44,7.44,0,0,1,.11-1.11,2.38,2.38,0,0,1,.19-.59A1.27,1.27,0,0,1,63.41,52.78Z"/><path d="M66.78,59.92a2.3,2.3,0,0,0,1.11.45,1.23,1.23,0,0,0,1-.52,2.12,2.12,0,0,0,.4-1A4.74,4.74,0,0,0,69,56.63a11.24,11.24,0,0,0-2.73-4A21.43,21.43,0,0,0,64.46,51a18.24,18.24,0,0,0-2-1.41,8.82,8.82,0,0,0-2.18-1,4.2,4.2,0,0,0-1.16-.19,1.76,1.76,0,0,0-.56.07.62.62,0,0,0-.49.77,2,2,0,0,0,.14.47,5.26,5.26,0,0,0,.47.77l.16.21c.31.4.64.76,1,1.12l.5.54c.22.24.43.48.64.73.37.43.71.87,1.07,1.31l1,1.36c.39.54.79,1.09,1.23,1.64l.59.72c.28.33.57.66.9,1l.26.25A6.31,6.31,0,0,0,66.78,59.92Zm-.78.35a9.28,9.28,0,0,1-1.16-.79A14.19,14.19,0,0,1,63.28,58,24.18,24.18,0,0,1,61.1,55.2a25.53,25.53,0,0,1-1.73-2.9c-.28-.53-.56-1.07-.85-1.64-.14-.29-.29-.59-.41-.91a2.62,2.62,0,0,1-.13-.5.89.89,0,0,1,.1-.55.82.82,0,0,1,.47-.34,2.36,2.36,0,0,1,.59-.11,6.37,6.37,0,0,1,1.23.09,11.64,11.64,0,0,1,2.5.73c.41.18.82.37,1.21.59a11.56,11.56,0,0,1,1.14.73,11.23,11.23,0,0,1,4.24,6.2,6.84,6.84,0,0,1,.3,2.31A3,3,0,0,1,69.47,60a1.42,1.42,0,0,1-.45.51,1.72,1.72,0,0,1-1,.31,3.3,3.3,0,0,1-1.2-.21A5.14,5.14,0,0,1,66,60.27Z"/><path d="M62.49,52.68a1.34,1.34,0,0,0,.82,0,.75.75,0,0,0,.32-.67,2.28,2.28,0,0,0-.19-.85,5.21,5.21,0,0,0-1.09-1.55,11.45,11.45,0,0,0-3.41-2.19c-.63-.27-1.26-.52-1.91-.73a18.71,18.71,0,0,0-2-.53,8.33,8.33,0,0,0-2-.19,3.77,3.77,0,0,0-.91.14,1.37,1.37,0,0,0-.36.19.38.38,0,0,0-.16.31.72.72,0,0,0,.19.35,2.5,2.5,0,0,0,.34.31,6.68,6.68,0,0,0,.67.41l.19.11c.39.2.78.38,1.16.55l.56.26.74.35c.42.21.83.43,1.24.66s.81.45,1.22.69l1.68,1,.74.42c.34.19.69.38,1.06.55l.28.13A5.37,5.37,0,0,0,62.49,52.68Zm-.29.49a6.08,6.08,0,0,1-1-.25,12,12,0,0,1-1.6-.7c-1-.5-1.82-1-2.67-1.56s-1.7-1.11-2.61-1.77l-1.42-1c-.25-.17-.5-.35-.75-.55A3.61,3.61,0,0,1,51.8,47a.82.82,0,0,1-.2-.42.44.44,0,0,1,.17-.35,1.72,1.72,0,0,1,.37-.22,4.33,4.33,0,0,1,.91-.23,9.84,9.84,0,0,1,2.05-.09,10.06,10.06,0,0,1,1.07.13,10.28,10.28,0,0,1,1.07.24,10.8,10.8,0,0,1,2,.8,12.22,12.22,0,0,1,3.32,2.58,7.61,7.61,0,0,1,1.15,1.6,2.83,2.83,0,0,1,.31.9,1.13,1.13,0,0,1,0,.51.93.93,0,0,1-.42.53,1.71,1.71,0,0,1-.76.21A3.23,3.23,0,0,1,62.2,53.17Z"/><path d="M44.5,46.88a1.6,1.6,0,0,0,.78.26c.3,0,.59.07.87.08.56,0,1.09,0,1.6.05a27.14,27.14,0,0,1,2.92.2c.94.1,1.84.25,2.75.37.45.06.91.11,1.36.13.23,0,.45,0,.67,0a.66.66,0,0,0,.48-.23.61.61,0,0,0-.18-.54,2.6,2.6,0,0,0-.57-.52,6.21,6.21,0,0,0-1.48-.74,11.4,11.4,0,0,0-3.38-.51,18.62,18.62,0,0,0-3.42.24,7.82,7.82,0,0,0-1.6.43,2.3,2.3,0,0,0-.64.35C44.5,46.56,44.37,46.73,44.5,46.88Zm-.07,0a.24.24,0,0,1,0-.27.69.69,0,0,1,.18-.24,3.4,3.4,0,0,1,.59-.41,8.66,8.66,0,0,1,1.51-.62,10.09,10.09,0,0,1,3.58-.4,12.37,12.37,0,0,1,3.52.79,8.22,8.22,0,0,1,1.55.75A3.69,3.69,0,0,1,56,47a1.29,1.29,0,0,1,.25.36.62.62,0,0,1,0,.47.73.73,0,0,1-.33.36,2.3,2.3,0,0,1-.38.15,3.86,3.86,0,0,1-.74.1,10.32,10.32,0,0,1-1.37-.06c-.89-.09-1.76-.21-2.67-.35l-2.92-.47-1.67-.24c-.3,0-.6-.08-.9-.14l-.47-.1A1.06,1.06,0,0,1,44.43,46.9Z"/><path d="M65.11,33.9a1.08,1.08,0,0,0,0,.65,2,2,0,0,0,.3.49,4,4,0,0,0,.79.69,12.55,12.55,0,0,0,1.76,1c.6.29,1.21.56,1.78.88s1.15.65,1.75,1,1.17.69,1.77,1.07,1.22.75,1.92,1.12a22.06,22.06,0,0,0,2.32,1.1,9.3,9.3,0,0,0,1.46.44,3.4,3.4,0,0,0,1.68,0,2.12,2.12,0,0,0,1.13-1.15A3,3,0,0,0,82,39.64,5.2,5.2,0,0,0,81,37.05a11.25,11.25,0,0,0-4.86-3.33,20.41,20.41,0,0,0-2.8-.93,18.66,18.66,0,0,0-2.86-.52,9.49,9.49,0,0,0-2.91.09,5.6,5.6,0,0,0-1.41.48,2.92,2.92,0,0,0-.62.44A1.31,1.31,0,0,0,65.11,33.9Zm-.1,0a1.55,1.55,0,0,1,.44-.71,3.13,3.13,0,0,1,.65-.5A7.64,7.64,0,0,1,67.56,32a13.22,13.22,0,0,1,4.88-.64,12.46,12.46,0,0,1,1.64.2,12.28,12.28,0,0,1,3,1,12,12,0,0,1,4.45,4.09,7.61,7.61,0,0,1,1.19,2.7,3.91,3.91,0,0,1,0,1.56,2.34,2.34,0,0,1-.43.87,3.22,3.22,0,0,1-1.26.9,5.8,5.8,0,0,1-1.72.37,7.34,7.34,0,0,1-1.27,0,10.55,10.55,0,0,1-1.81-.33,15.16,15.16,0,0,1-2.51-.91,20.89,20.89,0,0,1-3.5-2,18.72,18.72,0,0,1-2.79-2.39c-.46-.46-.92-1-1.41-1.47a7.74,7.74,0,0,1-.71-.86,3.55,3.55,0,0,1-.29-.55A1.23,1.23,0,0,1,65,33.9Z"/><path d="M72.43,36.57a2.34,2.34,0,0,0,1.11-.47,1.24,1.24,0,0,0,.3-1.05,2.29,2.29,0,0,0-.42-1,4.71,4.71,0,0,0-1.74-1.39,11.11,11.11,0,0,0-4.76-.9,22.21,22.21,0,0,0-2.45.12,19.54,19.54,0,0,0-2.39.4,8.94,8.94,0,0,0-2.25.83,4.16,4.16,0,0,0-1,.68,2.05,2.05,0,0,0-.34.45.71.71,0,0,0-.09.51.67.67,0,0,0,.28.38,1.69,1.69,0,0,0,.44.23,4.72,4.72,0,0,0,.88.22l.25,0c.5.07,1,.09,1.49.11l.73,0,1,.06c.56,0,1.12.12,1.68.18l1.7.22c.65.1,1.32.21,2,.29.3,0,.61.07.93.09s.86.06,1.33.06h.35A7.68,7.68,0,0,0,72.43,36.57Zm-.3.79a7.33,7.33,0,0,1-1.38.26,13.38,13.38,0,0,1-2.16.05,25.39,25.39,0,0,1-3.51-.42,28.67,28.67,0,0,1-3.28-.83L60,35.86c-.3-.11-.62-.21-.92-.35a2.56,2.56,0,0,1-.45-.27.86.86,0,0,1-.32-.46.88.88,0,0,1,.09-.57,2.38,2.38,0,0,1,.34-.49,5.65,5.65,0,0,1,.94-.81A11.37,11.37,0,0,1,62,31.66a11.2,11.2,0,0,1,1.27-.44,12.48,12.48,0,0,1,1.32-.29,11.25,11.25,0,0,1,2.65-.1A11.68,11.68,0,0,1,72,32.32a6.76,6.76,0,0,1,1.84,1.42,2.79,2.79,0,0,1,.59,1,1.5,1.5,0,0,1,0,.68,1.72,1.72,0,0,1-.48.91A3.27,3.27,0,0,1,73,37,6.26,6.26,0,0,1,72.13,37.36Z"/><path d="M64.28,34.48a1.34,1.34,0,0,0,.58-.58.72.72,0,0,0-.25-.7,2.34,2.34,0,0,0-.74-.47A5.12,5.12,0,0,0,62,32.41a11.07,11.07,0,0,0-4,.87c-.63.24-1.26.52-1.86.82a19.09,19.09,0,0,0-1.76,1,8.88,8.88,0,0,0-1.53,1.25,3.73,3.73,0,0,0-.54.75,1.17,1.17,0,0,0-.12.39.41.41,0,0,0,.11.33.64.64,0,0,0,.38.12,3.29,3.29,0,0,0,.45,0c.27-.05.53-.11.77-.18l.21-.06c.42-.13.82-.28,1.21-.43L56,37l.77-.27c.45-.16.9-.29,1.35-.42L59.41,36l1.91-.47.83-.22c.37-.11.75-.22,1.14-.36l.28-.11A6.59,6.59,0,0,0,64.28,34.48Zm.14.55a5.27,5.27,0,0,1-.88.53,10.84,10.84,0,0,1-1.63.63c-1,.33-2,.58-3,.8s-2,.41-3.09.59l-1.71.3c-.3,0-.61.1-.92.13a2.66,2.66,0,0,1-.49,0,.7.7,0,0,1-.43-.15.42.42,0,0,1-.13-.37,1.67,1.67,0,0,1,.11-.41,4.47,4.47,0,0,1,.47-.81,9.8,9.8,0,0,1,1.39-1.51c.27-.23.55-.46.85-.67a9.54,9.54,0,0,1,.92-.58,10.85,10.85,0,0,1,2-.88,11.89,11.89,0,0,1,4.17-.52,7.72,7.72,0,0,1,1.95.31,2.78,2.78,0,0,1,.86.43,1.23,1.23,0,0,1,.33.38.91.91,0,0,1,.07.67,1.59,1.59,0,0,1-.38.69A3.1,3.1,0,0,1,64.42,35Z"/><path d="M47.46,43.1a1.66,1.66,0,0,0,.74-.37c.24-.18.46-.37.67-.56.42-.37.79-.74,1.16-1.09.73-.71,1.47-1.34,2.21-1.93s1.48-1.12,2.21-1.68q.54-.42,1-.87c.16-.16.32-.32.46-.49s.22-.37.17-.5-.27-.23-.5-.26a2.87,2.87,0,0,0-.77,0,5.82,5.82,0,0,0-1.57.53,10.94,10.94,0,0,0-2.75,2,17.79,17.79,0,0,0-2.25,2.58A7.53,7.53,0,0,0,47.46,42a2.56,2.56,0,0,0-.21.69C47.23,42.87,47.26,43.08,47.46,43.1Zm0,.06A.23.23,0,0,1,47.2,43a.75.75,0,0,1,0-.3,2.74,2.74,0,0,1,.13-.71,7.57,7.57,0,0,1,.62-1.5,9.86,9.86,0,0,1,2.25-2.82,12.53,12.53,0,0,1,3.05-1.93,8.19,8.19,0,0,1,1.62-.56,4,4,0,0,1,.84-.1,1.29,1.29,0,0,1,.43.07.64.64,0,0,1,.36.31.72.72,0,0,1,0,.48,1.67,1.67,0,0,1-.16.38,3.06,3.06,0,0,1-.45.59,9.67,9.67,0,0,1-1,.93c-.7.57-1.4,1.1-2.14,1.64l-2.4,1.74-1.35,1c-.24.18-.47.36-.73.54a3.34,3.34,0,0,1-.4.25A1,1,0,0,1,47.43,43.16Z"/><path d="M52.86,19.35a1,1,0,0,0,.49.42,1.86,1.86,0,0,0,.55.14A4.61,4.61,0,0,0,55,19.84a13.71,13.71,0,0,0,1.92-.57c.63-.22,1.25-.46,1.88-.64s1.28-.35,1.93-.54,1.32-.34,2-.5,1.39-.33,2.15-.56a21.89,21.89,0,0,0,2.42-.87,10,10,0,0,0,1.35-.72,3.35,3.35,0,0,0,1.16-1.21,2.14,2.14,0,0,0,0-1.61,2.92,2.92,0,0,0-.87-1.18,5.19,5.19,0,0,0-2.6-1.08,11.29,11.29,0,0,0-5.78,1.08,21.72,21.72,0,0,0-2.64,1.33,18.72,18.72,0,0,0-2.39,1.64,9.6,9.6,0,0,0-2,2.13,5.39,5.39,0,0,0-.66,1.34,2.68,2.68,0,0,0-.13.74A1.38,1.38,0,0,0,52.86,19.35Zm-.08.07a1.65,1.65,0,0,1-.19-.82,3.67,3.67,0,0,1,.11-.81,7.27,7.27,0,0,1,.57-1.49,13.94,13.94,0,0,1,1.83-2.72,13.16,13.16,0,0,1,1.17-1.19,12.69,12.69,0,0,1,1.31-1A11.89,11.89,0,0,1,60.47,10a12.14,12.14,0,0,1,6-.26,7.61,7.61,0,0,1,2.75,1.08,3.73,3.73,0,0,1,1.09,1.11,2.13,2.13,0,0,1,.31.92,3.05,3.05,0,0,1-.25,1.52,5.64,5.64,0,0,1-1,1.49,9.06,9.06,0,0,1-.91.88A11.39,11.39,0,0,1,67,17.76a15.05,15.05,0,0,1-2.41,1.12A21.22,21.22,0,0,1,60.74,20a18.33,18.33,0,0,1-3.67.28c-.65,0-1.32,0-2,0a7.44,7.44,0,0,1-1.11-.11,2.83,2.83,0,0,1-.59-.18A1.36,1.36,0,0,1,52.78,19.42Z"/><path d="M59.92,16.06a2.37,2.37,0,0,0,.45-1.12,1.23,1.23,0,0,0-.52-.95,2.22,2.22,0,0,0-1-.4,4.74,4.74,0,0,0-2.22.24,11.24,11.24,0,0,0-4,2.73A20.11,20.11,0,0,0,51,18.38a18.12,18.12,0,0,0-1.41,2,8.82,8.82,0,0,0-1,2.18,4.2,4.2,0,0,0-.19,1.16,1.76,1.76,0,0,0,.07.56.8.8,0,0,0,.29.42.68.68,0,0,0,.48.07,2,2,0,0,0,.47-.14,5.26,5.26,0,0,0,.77-.47l.21-.16c.4-.3.76-.64,1.12-1l.54-.5.73-.64c.43-.37.87-.71,1.31-1.07l1.36-1c.54-.39,1.09-.79,1.64-1.23.24-.19.48-.38.72-.59s.66-.57,1-.9l.25-.25A8.73,8.73,0,0,0,59.92,16.06Zm.35.77A9.28,9.28,0,0,1,59.48,18,14.19,14.19,0,0,1,58,19.55a25.48,25.48,0,0,1-2.78,2.19,27,27,0,0,1-2.9,1.72l-1.64.85a8.38,8.38,0,0,1-.91.41,2.62,2.62,0,0,1-.5.13.89.89,0,0,1-.55-.1.82.82,0,0,1-.34-.47,2.36,2.36,0,0,1-.11-.59,6.43,6.43,0,0,1,.09-1.23,11.64,11.64,0,0,1,.73-2.5c.18-.41.37-.82.59-1.21a10.36,10.36,0,0,1,.73-1.13,11.54,11.54,0,0,1,1.8-2,11.8,11.8,0,0,1,4.4-2.3,7.1,7.1,0,0,1,2.31-.3,3,3,0,0,1,1.13.29,1.42,1.42,0,0,1,.51.45,1.75,1.75,0,0,1,.31,1A3.4,3.4,0,0,1,60.64,16,5,5,0,0,1,60.27,16.83Z"/><path d="M52.68,20.34a1.34,1.34,0,0,0,0-.82A.75.75,0,0,0,52,19.2a2.12,2.12,0,0,0-.85.2,5,5,0,0,0-1.55,1.08,11.5,11.5,0,0,0-2.19,3.42c-.27.62-.52,1.25-.73,1.9a18.71,18.71,0,0,0-.53,1.95,8.33,8.33,0,0,0-.19,2,3.77,3.77,0,0,0,.14.91,1.37,1.37,0,0,0,.19.36.38.38,0,0,0,.31.16A.64.64,0,0,0,47,31a2.5,2.5,0,0,0,.31-.34,6.68,6.68,0,0,0,.41-.67l.11-.19c.2-.39.38-.78.55-1.16L48.6,28c.11-.25.23-.49.35-.74.21-.42.43-.83.66-1.24s.45-.81.69-1.21c.33-.56.68-1.11,1-1.68l.42-.75c.19-.34.38-.69.55-1.06l.13-.27A6,6,0,0,0,52.68,20.34Zm.49.29a6.48,6.48,0,0,1-.25,1,11.84,11.84,0,0,1-.7,1.59c-.5,1-1,1.82-1.56,2.67s-1.11,1.7-1.77,2.61l-1,1.42c-.17.25-.35.5-.55.75A3.61,3.61,0,0,1,47,31a.82.82,0,0,1-.42.2.44.44,0,0,1-.35-.17,1.51,1.51,0,0,1-.22-.37,4.33,4.33,0,0,1-.23-.91,9.78,9.78,0,0,1-.09-2,9.94,9.94,0,0,1,.13-1.08,10.75,10.75,0,0,1,1-3.11,12,12,0,0,1,2.58-3.31,7.32,7.32,0,0,1,1.6-1.16,3.1,3.1,0,0,1,.9-.31,1.13,1.13,0,0,1,.51,0,.93.93,0,0,1,.53.42,1.75,1.75,0,0,1,.21.77A3.17,3.17,0,0,1,53.17,20.63Z"/><path d="M46.88,38.33a1.6,1.6,0,0,0,.26-.78c0-.3.07-.59.08-.87,0-.56,0-1.09.05-1.6a27.32,27.32,0,0,1,.2-2.92c.1-.93.25-1.84.37-2.75.06-.45.11-.91.13-1.36,0-.22,0-.45,0-.67a.66.66,0,0,0-.23-.48.61.61,0,0,0-.54.18,2.6,2.6,0,0,0-.52.57,6.21,6.21,0,0,0-.74,1.48,11.41,11.41,0,0,0-.51,3.39,18.57,18.57,0,0,0,.24,3.41,7.82,7.82,0,0,0,.43,1.6,2.3,2.3,0,0,0,.35.64C46.56,38.33,46.73,38.46,46.88,38.33Zm0,.07a.24.24,0,0,1-.27.05.69.69,0,0,1-.24-.18,3.4,3.4,0,0,1-.41-.59,8.66,8.66,0,0,1-.62-1.51,10.07,10.07,0,0,1-.4-3.58,12.37,12.37,0,0,1,.79-3.52,8.22,8.22,0,0,1,.75-1.55,3.69,3.69,0,0,1,.52-.66,1.54,1.54,0,0,1,.36-.25.68.68,0,0,1,.47,0,.78.78,0,0,1,.36.33,2.3,2.3,0,0,1,.15.38,4,4,0,0,1,.1.74,10.32,10.32,0,0,1-.06,1.37c-.09.89-.21,1.76-.35,2.67s-.29,1.86-.47,2.93c-.08.53-.16,1.08-.24,1.67,0,.29-.08.59-.14.9,0,.15-.06.31-.1.46A.91.91,0,0,1,46.9,38.4Z"/><path d="M33.9,17.72a1.08,1.08,0,0,0,.65,0,2,2,0,0,0,.49-.29,4.31,4.31,0,0,0,.69-.8,12.55,12.55,0,0,0,1-1.76c.29-.6.56-1.2.88-1.78s.65-1.15,1-1.75.69-1.17,1.07-1.77.75-1.22,1.12-1.91a23.28,23.28,0,0,0,1.1-2.33,9,9,0,0,0,.44-1.46,3.4,3.4,0,0,0,0-1.68A2.12,2.12,0,0,0,41.1,1,2.88,2.88,0,0,0,39.64.8a5.1,5.1,0,0,0-2.59,1.06,11.25,11.25,0,0,0-3.33,4.86,20.88,20.88,0,0,0-.93,2.8,18.66,18.66,0,0,0-.52,2.86,9.49,9.49,0,0,0,.09,2.91,5.6,5.6,0,0,0,.48,1.41,2.69,2.69,0,0,0,.44.62A1.31,1.31,0,0,0,33.9,17.72Zm0,.11a1.64,1.64,0,0,1-.71-.44,3.42,3.42,0,0,1-.5-.65A8,8,0,0,1,32,15.27a13.22,13.22,0,0,1-.64-4.88,12.67,12.67,0,0,1,.2-1.64,12.28,12.28,0,0,1,1-3,12,12,0,0,1,4.09-4.45A7.61,7.61,0,0,1,39.44.07,3.91,3.91,0,0,1,41,.09a2.34,2.34,0,0,1,.87.43,3.22,3.22,0,0,1,.9,1.26,5.79,5.79,0,0,1,.37,1.73,7.25,7.25,0,0,1,0,1.26,10.87,10.87,0,0,1-.33,1.82,15,15,0,0,1-.91,2.5,20.89,20.89,0,0,1-2,3.5,18.72,18.72,0,0,1-2.39,2.79c-.46.46-1,.92-1.47,1.41a7.74,7.74,0,0,1-.86.71,2.86,2.86,0,0,1-.55.29A1.3,1.3,0,0,1,33.9,17.83Z"/><path d="M36.57,10.4a2.39,2.39,0,0,0-.47-1.11A1.24,1.24,0,0,0,35.05,9a2.29,2.29,0,0,0-1,.42,4.79,4.79,0,0,0-1.39,1.74,11.13,11.13,0,0,0-.9,4.76,22.21,22.21,0,0,0,.12,2.45,19.54,19.54,0,0,0,.4,2.39A9,9,0,0,0,33.12,23a4.32,4.32,0,0,0,.68.95,1.78,1.78,0,0,0,.45.34.71.71,0,0,0,.51.09.67.67,0,0,0,.38-.28,1.69,1.69,0,0,0,.23-.44,4.53,4.53,0,0,0,.22-.88l0-.25c.07-.5.09-1,.11-1.48l0-.74.06-1c0-.56.12-1.11.18-1.68s.14-1.12.22-1.69.21-1.33.29-2c0-.3.07-.61.09-.92s.06-.87.06-1.34v-.35A7.68,7.68,0,0,0,36.57,10.4Zm.79.3a7.47,7.47,0,0,1,.26,1.38,13.38,13.38,0,0,1,.05,2.16,25.39,25.39,0,0,1-.42,3.51A28.16,28.16,0,0,1,36.42,21c-.18.56-.37,1.15-.56,1.76-.11.3-.21.62-.35.93a3.57,3.57,0,0,1-.27.45.84.84,0,0,1-.46.31.82.82,0,0,1-.57-.09,2.38,2.38,0,0,1-.49-.34,5.65,5.65,0,0,1-.81-.94,11.37,11.37,0,0,1-1.25-2.28,11.2,11.2,0,0,1-.44-1.27,12,12,0,0,1-.29-1.32,11.23,11.23,0,0,1-.1-2.65,11.58,11.58,0,0,1,1.49-4.73A6.66,6.66,0,0,1,33.74,9a2.94,2.94,0,0,1,1-.59,1.5,1.5,0,0,1,.68-.05,1.72,1.72,0,0,1,.91.48,3.27,3.27,0,0,1,.71,1A6.26,6.26,0,0,1,37.36,10.7Z"/><path d="M34.48,18.55A1.34,1.34,0,0,0,33.9,18a.72.72,0,0,0-.7.25,2.34,2.34,0,0,0-.47.74,5.12,5.12,0,0,0-.32,1.86,11,11,0,0,0,.87,4,19.4,19.4,0,0,0,.82,1.86,17.86,17.86,0,0,0,1,1.76,8.51,8.51,0,0,0,1.25,1.53,3.73,3.73,0,0,0,.75.54,1.17,1.17,0,0,0,.39.12.44.44,0,0,0,.33-.1A.69.69,0,0,0,38,30.1a3.4,3.4,0,0,0,0-.45c-.05-.27-.11-.52-.18-.77l-.06-.21c-.13-.42-.28-.82-.43-1.21L37,26.88c-.1-.26-.19-.52-.27-.77-.16-.45-.29-.9-.42-1.35s-.25-.89-.37-1.34c-.16-.63-.31-1.27-.47-1.91-.07-.27-.14-.55-.22-.83s-.22-.75-.36-1.13l-.11-.29A6.59,6.59,0,0,0,34.48,18.55Zm.55-.14a5,5,0,0,1,.53.89,10.75,10.75,0,0,1,.63,1.62c.33,1,.58,2,.8,3s.41,2,.59,3.09c.09.55.19,1.12.3,1.72,0,.3.1.6.13.92a2.55,2.55,0,0,1,0,.48.7.7,0,0,1-.15.43.42.42,0,0,1-.37.13,1.32,1.32,0,0,1-.41-.11,4.47,4.47,0,0,1-.81-.47,9.8,9.8,0,0,1-1.51-1.39c-.23-.27-.46-.55-.67-.85a9.54,9.54,0,0,1-.58-.92,10.85,10.85,0,0,1-.88-2,11.84,11.84,0,0,1-.52-4.17,7.72,7.72,0,0,1,.31-2,2.89,2.89,0,0,1,.43-.86,1.37,1.37,0,0,1,.38-.33.91.91,0,0,1,.67-.07,1.6,1.6,0,0,1,.69.39A2.66,2.66,0,0,1,35,18.41Z"/><path d="M43.1,35.37a1.66,1.66,0,0,0-.37-.74c-.18-.24-.37-.46-.56-.67-.37-.42-.74-.79-1.09-1.16-.71-.73-1.34-1.47-1.93-2.2S38,29.11,37.47,28.38q-.42-.54-.87-1.05a5.12,5.12,0,0,0-.49-.45c-.17-.13-.37-.23-.5-.18s-.23.27-.26.51a2.82,2.82,0,0,0,0,.76,5.82,5.82,0,0,0,.53,1.57,11.18,11.18,0,0,0,2,2.76,18.34,18.34,0,0,0,2.58,2.24,7.53,7.53,0,0,0,1.44.83,2.56,2.56,0,0,0,.69.21C42.87,35.6,43.08,35.57,43.1,35.37Zm.06,0a.22.22,0,0,1-.15.22.75.75,0,0,1-.3,0,2.74,2.74,0,0,1-.71-.13,7.57,7.57,0,0,1-1.5-.62,9.86,9.86,0,0,1-2.82-2.25,12.53,12.53,0,0,1-1.93-3.05A8.19,8.19,0,0,1,35.19,28a4,4,0,0,1-.1-.84,1.33,1.33,0,0,1,.07-.43.67.67,0,0,1,.31-.36.72.72,0,0,1,.48,0,1.67,1.67,0,0,1,.38.16,3.52,3.52,0,0,1,.59.45,9.67,9.67,0,0,1,.93,1c.57.7,1.1,1.4,1.64,2.14s1.11,1.52,1.74,2.4c.32.43.65.88,1,1.35.18.24.36.47.54.73A3.45,3.45,0,0,1,43,35,.94.94,0,0,1,43.16,35.41Z"/><path d="M19.35,30a1,1,0,0,0,.42-.49,1.86,1.86,0,0,0,.14-.55,4.49,4.49,0,0,0-.07-1.05A13.45,13.45,0,0,0,19.27,26c-.22-.62-.46-1.25-.64-1.88s-.35-1.27-.54-1.93-.34-1.32-.5-2S17.26,18.74,17,18a21.07,21.07,0,0,0-.87-2.41,8.91,8.91,0,0,0-.72-1.35,3.2,3.2,0,0,0-1.21-1.16,2.09,2.09,0,0,0-1.61,0,2.94,2.94,0,0,0-1.18.88,5.16,5.16,0,0,0-1.08,2.59,11.29,11.29,0,0,0,1.08,5.78A21.72,21.72,0,0,0,12.77,25a18.72,18.72,0,0,0,1.64,2.39,9.6,9.6,0,0,0,2.13,2,5.39,5.39,0,0,0,1.34.66,2.68,2.68,0,0,0,.74.13A1.38,1.38,0,0,0,19.35,30Zm.07.08a1.55,1.55,0,0,1-.82.19,2.78,2.78,0,0,1-.81-.11,7.27,7.27,0,0,1-1.49-.57,13.94,13.94,0,0,1-2.72-1.83,12,12,0,0,1-1.19-1.17A12,12,0,0,1,10,22.36a12.14,12.14,0,0,1-.26-6,7.61,7.61,0,0,1,1.08-2.75,3.73,3.73,0,0,1,1.11-1.09,2.43,2.43,0,0,1,.92-.31,3.05,3.05,0,0,1,1.52.25,5.64,5.64,0,0,1,1.49,1,9.06,9.06,0,0,1,.88.91,12.07,12.07,0,0,1,1.05,1.52,15.05,15.05,0,0,1,1.12,2.41A21.45,21.45,0,0,1,20,22.09a18.33,18.33,0,0,1,.28,3.67c0,.65,0,1.32,0,2a7.31,7.31,0,0,1-.11,1.11,2.83,2.83,0,0,1-.18.59A1.3,1.3,0,0,1,19.42,30.05Z"/><path d="M16.06,22.91a2.37,2.37,0,0,0-1.12-.45A1.21,1.21,0,0,0,14,23a2.14,2.14,0,0,0-.4,1,4.71,4.71,0,0,0,.24,2.21,11.24,11.24,0,0,0,2.73,4,20.22,20.22,0,0,0,1.82,1.65,18,18,0,0,0,2,1.4,9.22,9.22,0,0,0,2.18,1,5.11,5.11,0,0,0,1.16.19,2.1,2.1,0,0,0,.56-.08.75.75,0,0,0,.42-.29.68.68,0,0,0,.07-.48,2,2,0,0,0-.14-.47,5.26,5.26,0,0,0-.47-.77,1.56,1.56,0,0,0-.16-.2c-.3-.4-.64-.77-1-1.13l-.5-.54c-.22-.24-.43-.48-.64-.73-.37-.43-.71-.87-1.07-1.31l-1-1.36c-.39-.54-.79-1.08-1.23-1.64-.19-.24-.38-.48-.59-.72s-.57-.66-.9-1l-.25-.24A7.15,7.15,0,0,0,16.06,22.91Zm.77-.34a8.32,8.32,0,0,1,1.16.78,14.19,14.19,0,0,1,1.56,1.5,26.48,26.48,0,0,1,2.19,2.78,27,27,0,0,1,1.72,2.9c.28.53.56,1.07.85,1.65a8.21,8.21,0,0,1,.41.9,2.72,2.72,0,0,1,.13.51.87.87,0,0,1-.1.54.82.82,0,0,1-.47.34,2.36,2.36,0,0,1-.59.11,6.43,6.43,0,0,1-1.23-.09,11.64,11.64,0,0,1-2.5-.73c-.41-.18-.82-.37-1.21-.59a10.36,10.36,0,0,1-1.13-.73,11.54,11.54,0,0,1-2-1.8,11.8,11.8,0,0,1-2.3-4.4,7.1,7.1,0,0,1-.3-2.31,3.1,3.1,0,0,1,.29-1.13,1.51,1.51,0,0,1,.45-.51,1.83,1.83,0,0,1,1-.31,3.4,3.4,0,0,1,1.21.21A5,5,0,0,1,16.83,22.57Z"/><path d="M20.34,30.15a1.34,1.34,0,0,0-.82,0,.75.75,0,0,0-.32.67,2.12,2.12,0,0,0,.2.85,5,5,0,0,0,1.08,1.55,11.5,11.5,0,0,0,3.42,2.19c.62.27,1.25.52,1.9.73a18.71,18.71,0,0,0,1.95.53,8.33,8.33,0,0,0,2,.19,3.77,3.77,0,0,0,.91-.14,1.37,1.37,0,0,0,.36-.19.38.38,0,0,0,.16-.3.64.64,0,0,0-.19-.36,2.43,2.43,0,0,0-.34-.3,5.32,5.32,0,0,0-.67-.42l-.19-.1c-.39-.21-.78-.38-1.16-.56L28,34.23l-.74-.35c-.42-.21-.83-.43-1.24-.66s-.81-.45-1.21-.68l-1.68-1-.75-.43c-.34-.19-.69-.38-1.06-.55l-.27-.13A6,6,0,0,0,20.34,30.15Zm.29-.49a6.48,6.48,0,0,1,1,.25,11.84,11.84,0,0,1,1.59.7c1,.5,1.82,1,2.67,1.56s1.7,1.11,2.61,1.77l1.42,1c.25.18.5.35.75.55a3.73,3.73,0,0,1,.35.34.75.75,0,0,1,.2.41.44.44,0,0,1-.17.35,1.51,1.51,0,0,1-.37.22,4.33,4.33,0,0,1-.91.23,9.78,9.78,0,0,1-2,.09A8,8,0,0,1,26.66,37a9.91,9.91,0,0,1-3.11-1,11.83,11.83,0,0,1-3.31-2.58,6.87,6.87,0,0,1-1.16-1.6,3.1,3.1,0,0,1-.31-.9,1.13,1.13,0,0,1,0-.51.93.93,0,0,1,.42-.53,1.75,1.75,0,0,1,.77-.21A4.16,4.16,0,0,1,20.63,29.66Z"/><path d="M38.33,36a1.6,1.6,0,0,0-.78-.26c-.3,0-.59-.07-.87-.08-.56,0-1.09,0-1.6,0-1,0-2-.09-2.92-.19s-1.84-.26-2.75-.38c-.45-.06-.91-.11-1.36-.13a5,5,0,0,0-.67,0c-.21,0-.42.1-.48.22a.61.61,0,0,0,.18.54,2.37,2.37,0,0,0,.57.52,6.21,6.21,0,0,0,1.48.74,11.41,11.41,0,0,0,3.39.51,18.57,18.57,0,0,0,3.41-.24,7.82,7.82,0,0,0,1.6-.43,2.58,2.58,0,0,0,.64-.34C38.33,36.27,38.46,36.1,38.33,36Zm.07,0a.24.24,0,0,1,.05.27.69.69,0,0,1-.18.24,3.4,3.4,0,0,1-.59.41,8,8,0,0,1-1.51.62,10.07,10.07,0,0,1-3.58.4,12.37,12.37,0,0,1-3.52-.79,7.66,7.66,0,0,1-1.55-.75,3.69,3.69,0,0,1-.66-.52,1.48,1.48,0,0,1-.25-.35.71.71,0,0,1,0-.48.78.78,0,0,1,.33-.36,2.3,2.3,0,0,1,.38-.15,4,4,0,0,1,.74-.1,10.32,10.32,0,0,1,1.37.06c.89.09,1.76.22,2.67.36s1.86.28,2.93.46l1.67.24c.29,0,.59.08.9.14l.46.1A1,1,0,0,1,38.4,35.93Z"/><path d="M17.72,48.93a1,1,0,0,0,0-.64,1.81,1.81,0,0,0-.29-.49,4,4,0,0,0-.8-.7,12.55,12.55,0,0,0-1.76-1c-.6-.28-1.2-.56-1.78-.88s-1.15-.65-1.75-1-1.17-.69-1.77-1.07-1.22-.75-1.91-1.12A23.28,23.28,0,0,0,5.28,41a9,9,0,0,0-1.46-.44,3.4,3.4,0,0,0-1.68,0A2.12,2.12,0,0,0,1,41.73,2.88,2.88,0,0,0,.8,43.19a5.17,5.17,0,0,0,1.06,2.6,11.31,11.31,0,0,0,4.86,3.32,20.88,20.88,0,0,0,2.8.93,18.66,18.66,0,0,0,2.86.52,9.49,9.49,0,0,0,2.91-.09A5.6,5.6,0,0,0,16.7,50a2.69,2.69,0,0,0,.62-.44A1.31,1.31,0,0,0,17.72,48.93Zm.11,0a1.67,1.67,0,0,1-.44.72,3.82,3.82,0,0,1-.65.49,8,8,0,0,1-1.47.65,13.22,13.22,0,0,1-3.22.63,11.5,11.5,0,0,1-1.66,0,11.13,11.13,0,0,1-1.64-.2,12.28,12.28,0,0,1-3-1,12,12,0,0,1-4.45-4.09,7.61,7.61,0,0,1-1.19-2.7,3.86,3.86,0,0,1,0-1.55A2.3,2.3,0,0,1,.52,41a3.11,3.11,0,0,1,1.26-.89,5.54,5.54,0,0,1,1.73-.38,7.25,7.25,0,0,1,1.26,0,10.87,10.87,0,0,1,1.82.33,15,15,0,0,1,2.5.91,20.89,20.89,0,0,1,3.5,2,18.72,18.72,0,0,1,2.79,2.39c.46.46.92.95,1.41,1.47a7.74,7.74,0,0,1,.71.86,2.86,2.86,0,0,1,.29.55A1.3,1.3,0,0,1,17.83,48.93Z"/><path d="M10.4,46.26a2.39,2.39,0,0,0-1.11.47A1.24,1.24,0,0,0,9,47.78a2.24,2.24,0,0,0,.42,1,4.79,4.79,0,0,0,1.74,1.39,11.13,11.13,0,0,0,4.76.9,20,20,0,0,0,2.45-.12,17.79,17.79,0,0,0,2.39-.4A9,9,0,0,0,23,49.71,4.32,4.32,0,0,0,24,49a1.78,1.78,0,0,0,.34-.45.71.71,0,0,0,.09-.51.67.67,0,0,0-.28-.38,1.69,1.69,0,0,0-.44-.23,5.39,5.39,0,0,0-.88-.22l-.25,0c-.5-.07-1-.09-1.48-.11l-.74,0-1-.06-1.68-.17L16,46.61c-.66-.1-1.33-.21-2-.29L13,46.23c-.43,0-.87-.06-1.34-.06h-.35A7.62,7.62,0,0,0,10.4,46.26Zm.3-.79a9.63,9.63,0,0,1,1.38-.26,12.25,12.25,0,0,1,2.16,0,24,24,0,0,1,3.51.41,28.16,28.16,0,0,1,3.28.83l1.76.56a9.84,9.84,0,0,1,.93.36,2.6,2.6,0,0,1,.45.26.88.88,0,0,1,.31.46.81.81,0,0,1-.09.57,2.38,2.38,0,0,1-.34.49,5.65,5.65,0,0,1-.94.81,11.37,11.37,0,0,1-2.28,1.25,11.2,11.2,0,0,1-1.27.44,12,12,0,0,1-1.32.29,11.23,11.23,0,0,1-2.65.1,11.73,11.73,0,0,1-4.73-1.48A6.89,6.89,0,0,1,9,49.09a2.94,2.94,0,0,1-.59-1,1.5,1.5,0,0,1-.05-.68,1.75,1.75,0,0,1,.48-.91,3.27,3.27,0,0,1,1-.71A6.26,6.26,0,0,1,10.7,45.47Z"/><path d="M18.55,48.35a1.31,1.31,0,0,0-.58.59.71.71,0,0,0,.25.69,2.18,2.18,0,0,0,.74.47,5.12,5.12,0,0,0,1.86.32,11.23,11.23,0,0,0,4-.86,19.46,19.46,0,0,0,1.86-.83,16.05,16.05,0,0,0,1.76-1,8.51,8.51,0,0,0,1.53-1.25,3.73,3.73,0,0,0,.54-.75,1.1,1.1,0,0,0,.12-.39.4.4,0,0,0-.1-.32.7.7,0,0,0-.39-.13l-.45,0c-.27.05-.52.11-.77.18l-.21.07c-.42.13-.82.27-1.21.42l-.58.21-.77.28c-.45.15-.9.28-1.35.41s-.89.26-1.34.37l-1.91.47-.83.22c-.37.11-.75.22-1.13.36l-.29.11A6.59,6.59,0,0,0,18.55,48.35Zm-.14-.55a5,5,0,0,1,.89-.53,10.75,10.75,0,0,1,1.62-.63,30.14,30.14,0,0,1,3-.79c1-.21,2-.42,3.09-.6l1.72-.3c.3,0,.6-.1.92-.13a2.55,2.55,0,0,1,.48,0,.7.7,0,0,1,.43.15.42.42,0,0,1,.13.37,1.25,1.25,0,0,1-.11.41,4.15,4.15,0,0,1-.47.81,9.8,9.8,0,0,1-1.39,1.51c-.27.23-.55.46-.85.67a9.61,9.61,0,0,1-.92.59,10.81,10.81,0,0,1-2,.87,11.84,11.84,0,0,1-4.17.52,7.3,7.3,0,0,1-2-.31A3.12,3.12,0,0,1,18,50a1.29,1.29,0,0,1-.33-.39.9.9,0,0,1-.07-.67,1.6,1.6,0,0,1,.39-.69A2.66,2.66,0,0,1,18.41,47.8Z"/><path d="M35.37,39.73a1.66,1.66,0,0,0-.74.37c-.24.18-.46.37-.67.56-.42.38-.79.74-1.16,1.1-.73.71-1.47,1.33-2.2,1.92s-1.49,1.12-2.22,1.68q-.54.42-1.05.87a5.12,5.12,0,0,0-.45.49c-.13.17-.23.37-.18.5s.27.23.51.26a2.46,2.46,0,0,0,.76,0,5.82,5.82,0,0,0,1.57-.53,11.18,11.18,0,0,0,2.76-2,18.34,18.34,0,0,0,2.24-2.58,7.53,7.53,0,0,0,.83-1.44,2.46,2.46,0,0,0,.21-.69C35.6,40,35.57,39.75,35.37,39.73Zm0-.06a.22.22,0,0,1,.22.16.71.71,0,0,1,0,.3,2.67,2.67,0,0,1-.13.7,7.9,7.9,0,0,1-.62,1.51,10,10,0,0,1-2.25,2.81,12.53,12.53,0,0,1-3.05,1.93,8.92,8.92,0,0,1-1.62.57,3.43,3.43,0,0,1-.84.09,1.33,1.33,0,0,1-.43-.07.67.67,0,0,1-.36-.31.72.72,0,0,1,0-.48,1.89,1.89,0,0,1,.16-.38,4.58,4.58,0,0,1,.45-.59A10.9,10.9,0,0,1,28,45c.7-.57,1.4-1.09,2.14-1.64l2.4-1.74,1.35-1c.24-.18.47-.36.73-.54s.27-.17.41-.25A.94.94,0,0,1,35.41,39.67Z"/><path d="M30,63.48a1,1,0,0,0-.49-.42,1.83,1.83,0,0,0-.55-.13,4,4,0,0,0-1.05.07,12.26,12.26,0,0,0-1.93.56c-.62.23-1.25.46-1.88.64s-1.27.35-1.93.54-1.32.34-2,.5-1.4.33-2.16.56a21.07,21.07,0,0,0-2.41.87,8.91,8.91,0,0,0-1.35.72,3.2,3.2,0,0,0-1.16,1.21,2.09,2.09,0,0,0,0,1.61A2.94,2.94,0,0,0,14,71.39a5.07,5.07,0,0,0,2.59,1.08,11.18,11.18,0,0,0,5.78-1.08A19.18,19.18,0,0,0,25,70.06a18.72,18.72,0,0,0,2.39-1.64,9.38,9.38,0,0,0,2-2.13A5.33,5.33,0,0,0,30,65a2.75,2.75,0,0,0,.13-.75A1.38,1.38,0,0,0,30,63.48Zm.08-.07a1.55,1.55,0,0,1,.19.82,2.78,2.78,0,0,1-.11.81,7.58,7.58,0,0,1-.57,1.5,13.88,13.88,0,0,1-1.83,2.71,12,12,0,0,1-1.17,1.19,10.63,10.63,0,0,1-1.31,1,11.72,11.72,0,0,1-2.89,1.41,12.14,12.14,0,0,1-6,.26,7.77,7.77,0,0,1-2.75-1.07,3.85,3.85,0,0,1-1.09-1.11,2.48,2.48,0,0,1-.31-.93,3.05,3.05,0,0,1,.25-1.52,5.81,5.81,0,0,1,1-1.49,7.89,7.89,0,0,1,.91-.87,12.07,12.07,0,0,1,1.52-1A15.19,15.19,0,0,1,18.23,64a21.45,21.45,0,0,1,3.86-1.09,19.1,19.1,0,0,1,3.67-.28c.65,0,1.32,0,2,0a7.31,7.31,0,0,1,1.11.11,2.38,2.38,0,0,1,.59.19A1.22,1.22,0,0,1,30.05,63.41Z"/><path d="M22.91,66.78a2.3,2.3,0,0,0-.45,1.11,1.21,1.21,0,0,0,.53,1,2,2,0,0,0,1,.4A4.71,4.71,0,0,0,26.2,69a11.24,11.24,0,0,0,4-2.73,21.56,21.56,0,0,0,1.65-1.81,18.15,18.15,0,0,0,1.4-2,9.22,9.22,0,0,0,1-2.18,5.11,5.11,0,0,0,.19-1.16,2.1,2.1,0,0,0-.08-.56.75.75,0,0,0-.29-.42.8.8,0,0,0-.48-.07,2,2,0,0,0-.47.14,5.26,5.26,0,0,0-.77.47l-.2.16c-.4.31-.77.64-1.13,1l-.54.5-.73.64c-.43.37-.87.71-1.31,1.07l-1.36,1c-.54.39-1.08.79-1.64,1.23l-.72.59c-.33.28-.66.57-1,.9l-.24.26A5.45,5.45,0,0,0,22.91,66.78ZM22.57,66a8.32,8.32,0,0,1,.78-1.16,14.19,14.19,0,0,1,1.5-1.56,25.07,25.07,0,0,1,2.78-2.18,25.53,25.53,0,0,1,2.9-1.73l1.65-.85c.29-.14.58-.29.9-.41a2.72,2.72,0,0,1,.51-.13.87.87,0,0,1,.54.1.82.82,0,0,1,.34.47,2.36,2.36,0,0,1,.11.59,6.37,6.37,0,0,1-.09,1.23,11.64,11.64,0,0,1-.73,2.5c-.18.41-.37.82-.59,1.21a11.56,11.56,0,0,1-.73,1.14,11.23,11.23,0,0,1-6.2,4.24,6.84,6.84,0,0,1-2.31.3,3.1,3.1,0,0,1-1.13-.29,1.51,1.51,0,0,1-.51-.45A1.8,1.8,0,0,1,22,68a3.3,3.3,0,0,1,.21-1.2A5.11,5.11,0,0,1,22.57,66Z"/><path d="M30.15,62.49a1.34,1.34,0,0,0,0,.82.75.75,0,0,0,.67.32,2.28,2.28,0,0,0,.85-.19,5.21,5.21,0,0,0,1.55-1.09,11.45,11.45,0,0,0,2.19-3.41c.27-.63.52-1.26.73-1.91a18.71,18.71,0,0,0,.53-2,8.33,8.33,0,0,0,.19-2,3.77,3.77,0,0,0-.14-.91,1.37,1.37,0,0,0-.19-.36.38.38,0,0,0-.3-.16.7.7,0,0,0-.36.19,2.43,2.43,0,0,0-.3.34,5.32,5.32,0,0,0-.42.67,1.74,1.74,0,0,0-.1.19c-.21.39-.38.78-.56,1.16-.09.19-.17.38-.26.56s-.23.5-.35.74c-.21.42-.43.83-.66,1.24s-.45.81-.68,1.22l-1,1.68c-.15.24-.29.48-.43.74s-.38.69-.55,1.06c0,.09-.09.18-.13.28A5.37,5.37,0,0,0,30.15,62.49Zm-.49-.29a6.08,6.08,0,0,1,.25-1,12,12,0,0,1,.7-1.6c.5-1,1-1.82,1.56-2.67s1.11-1.7,1.77-2.61l1-1.42c.18-.25.35-.5.55-.75a3.73,3.73,0,0,1,.34-.35.75.75,0,0,1,.41-.2.44.44,0,0,1,.35.17,1.72,1.72,0,0,1,.22.37,4.33,4.33,0,0,1,.23.91,9.84,9.84,0,0,1,.09,2.05A8,8,0,0,1,37,56.17a10.22,10.22,0,0,1-.23,1.07,10.84,10.84,0,0,1-.81,2,12,12,0,0,1-2.58,3.32,7.13,7.13,0,0,1-1.6,1.15,2.83,2.83,0,0,1-.9.31,1.13,1.13,0,0,1-.51,0,.93.93,0,0,1-.53-.42,1.71,1.71,0,0,1-.21-.76A4.23,4.23,0,0,1,29.66,62.2Z"/><path d="M36,44.5a1.6,1.6,0,0,0-.26.78c0,.3-.07.59-.08.87,0,.56,0,1.09,0,1.6,0,1-.09,2-.19,2.92s-.26,1.84-.38,2.75c-.06.45-.11.91-.13,1.36a4.93,4.93,0,0,0,0,.67c0,.21.1.42.22.48a.61.61,0,0,0,.54-.18,2.37,2.37,0,0,0,.52-.57,6.21,6.21,0,0,0,.74-1.48,11.4,11.4,0,0,0,.51-3.38,18.62,18.62,0,0,0-.24-3.42,7.82,7.82,0,0,0-.43-1.6,2.58,2.58,0,0,0-.34-.64C36.27,44.5,36.1,44.37,36,44.5Zm0-.07a.24.24,0,0,1,.27,0,.69.69,0,0,1,.24.18,3.4,3.4,0,0,1,.41.59,8,8,0,0,1,.62,1.51,10.09,10.09,0,0,1,.4,3.58,12.37,12.37,0,0,1-.79,3.52,7.66,7.66,0,0,1-.75,1.55,3.69,3.69,0,0,1-.52.66,1.24,1.24,0,0,1-.35.25.66.66,0,0,1-.48,0,.73.73,0,0,1-.36-.33,2.3,2.3,0,0,1-.15-.38,3.86,3.86,0,0,1-.1-.74,10.32,10.32,0,0,1,.06-1.37c.09-.89.22-1.76.36-2.67s.28-1.86.46-2.92c.08-.53.16-1.09.24-1.67,0-.3.08-.6.14-.9s.06-.31.1-.47A1.24,1.24,0,0,1,35.93,44.43Z"/><path d="M48.93,65.11a1,1,0,0,0-.64,0,1.84,1.84,0,0,0-.49.3,3.71,3.71,0,0,0-.7.79,12.55,12.55,0,0,0-1,1.76c-.28.6-.56,1.21-.88,1.78s-.65,1.15-1,1.75-.69,1.17-1.07,1.77-.75,1.22-1.12,1.92A22.06,22.06,0,0,0,41,77.55,9.3,9.3,0,0,0,40.55,79a3.4,3.4,0,0,0,0,1.68,2.12,2.12,0,0,0,1.15,1.13,3,3,0,0,0,1.46.22A5.28,5.28,0,0,0,45.79,81a11.31,11.31,0,0,0,3.32-4.86,20.41,20.41,0,0,0,.93-2.8,18.66,18.66,0,0,0,.52-2.86,9.49,9.49,0,0,0-.09-2.91A5.6,5.6,0,0,0,50,66.13a2.92,2.92,0,0,0-.44-.62A1.31,1.31,0,0,0,48.93,65.11Zm0-.1a1.58,1.58,0,0,1,.72.44,3.46,3.46,0,0,1,.49.65,7.64,7.64,0,0,1,.65,1.46,13.22,13.22,0,0,1,.63,3.22,11.5,11.5,0,0,1,0,1.66,11,11,0,0,1-.2,1.64,12.28,12.28,0,0,1-1,3,12,12,0,0,1-4.09,4.45,7.61,7.61,0,0,1-2.7,1.19,3.86,3.86,0,0,1-1.55,0,2.3,2.3,0,0,1-.88-.43,3.11,3.11,0,0,1-.89-1.26,5.54,5.54,0,0,1-.38-1.72,7.34,7.34,0,0,1,0-1.27,10.55,10.55,0,0,1,.33-1.81A15.16,15.16,0,0,1,41,73.74a20.89,20.89,0,0,1,2-3.5,18.72,18.72,0,0,1,2.39-2.79c.46-.46.95-.92,1.47-1.41a7.74,7.74,0,0,1,.86-.71,3.55,3.55,0,0,1,.55-.29A1.23,1.23,0,0,1,48.93,65Z"/><path d="M46.26,72.43a2.34,2.34,0,0,0,.47,1.11,1.24,1.24,0,0,0,1.05.3,2.24,2.24,0,0,0,1-.42,4.71,4.71,0,0,0,1.39-1.74,11.11,11.11,0,0,0,.9-4.76,20,20,0,0,0-.12-2.45,17.79,17.79,0,0,0-.4-2.39,8.94,8.94,0,0,0-.83-2.25,4.16,4.16,0,0,0-.68-1,2.05,2.05,0,0,0-.45-.34.71.71,0,0,0-.51-.09.67.67,0,0,0-.38.28,1.69,1.69,0,0,0-.23.44,5.66,5.66,0,0,0-.22.88l0,.25c-.07.5-.09,1-.11,1.49l0,.73c0,.32,0,.65-.06,1,0,.56-.12,1.12-.17,1.68s-.15,1.13-.23,1.7-.21,1.32-.29,2q0,.45-.09.93c0,.42-.06.86-.06,1.33,0,.12,0,.23,0,.35A7.62,7.62,0,0,0,46.26,72.43Zm-.79-.3a9.38,9.38,0,0,1-.26-1.38,12.25,12.25,0,0,1,0-2.16,24,24,0,0,1,.41-3.51,28.67,28.67,0,0,1,.83-3.28c.18-.56.37-1.15.56-1.76a8.74,8.74,0,0,1,.36-.92,2,2,0,0,1,.26-.45.9.9,0,0,1,.46-.32.87.87,0,0,1,.57.09,2.38,2.38,0,0,1,.49.34,5.65,5.65,0,0,1,.81.94A11.37,11.37,0,0,1,51.17,62a11.2,11.2,0,0,1,.44,1.27,12.48,12.48,0,0,1,.29,1.32,11.25,11.25,0,0,1,.1,2.65A11.82,11.82,0,0,1,50.52,72a7,7,0,0,1-1.43,1.84,2.79,2.79,0,0,1-1,.59,1.5,1.5,0,0,1-.68,0A1.75,1.75,0,0,1,46.5,74a3.27,3.27,0,0,1-.71-1A6.26,6.26,0,0,1,45.47,72.13Z"/><path d="M48.35,64.28a1.31,1.31,0,0,0,.59.58.71.71,0,0,0,.69-.25,2.18,2.18,0,0,0,.47-.74A5.12,5.12,0,0,0,50.42,62a11.27,11.27,0,0,0-.86-4c-.25-.63-.52-1.26-.83-1.86a17,17,0,0,0-1-1.76,8.88,8.88,0,0,0-1.25-1.53,3.73,3.73,0,0,0-.75-.54,1.1,1.1,0,0,0-.39-.12.37.37,0,0,0-.32.11.64.64,0,0,0-.13.38,3.29,3.29,0,0,0,0,.45c.05.27.11.53.18.77a1.72,1.72,0,0,0,.07.21c.13.42.27.82.42,1.21l.21.58c.1.26.19.52.28.77.15.45.28.9.41,1.35s.26.89.37,1.34c.16.63.31,1.27.47,1.91.07.27.14.55.22.83s.22.75.36,1.14c0,.09.07.19.11.28A6.59,6.59,0,0,0,48.35,64.28Zm-.55.14a5.27,5.27,0,0,1-.53-.88,10.84,10.84,0,0,1-.63-1.63,30.14,30.14,0,0,1-.79-3c-.21-1-.42-2-.6-3.09q-.14-.82-.3-1.71c0-.3-.1-.61-.13-.92a2.66,2.66,0,0,1,0-.49.7.7,0,0,1,.15-.43.42.42,0,0,1,.37-.13,1.56,1.56,0,0,1,.41.11,4.15,4.15,0,0,1,.81.47,9.8,9.8,0,0,1,1.51,1.39c.23.27.46.55.67.85a9.61,9.61,0,0,1,.59.92,10.81,10.81,0,0,1,.87,2,11.89,11.89,0,0,1,.52,4.17A7.3,7.3,0,0,1,50.4,64a3,3,0,0,1-.42.86,1.16,1.16,0,0,1-.39.33.9.9,0,0,1-.67.07,1.59,1.59,0,0,1-.69-.38A3.1,3.1,0,0,1,47.8,64.42Z"/><path d="M39.73,47.46a1.66,1.66,0,0,0,.37.74c.18.24.37.46.56.67.38.42.74.79,1.1,1.16.71.73,1.33,1.47,1.92,2.21s1.12,1.48,1.68,2.21q.42.54.87,1c.16.16.32.32.49.46s.37.22.5.17.23-.27.26-.5a2.51,2.51,0,0,0,0-.77,5.82,5.82,0,0,0-.53-1.57,10.94,10.94,0,0,0-2-2.75,17.79,17.79,0,0,0-2.58-2.25,7.53,7.53,0,0,0-1.44-.83,2.46,2.46,0,0,0-.69-.21C40,47.23,39.75,47.26,39.73,47.46Zm-.06,0a.22.22,0,0,1,.16-.23.71.71,0,0,1,.3,0,2.67,2.67,0,0,1,.7.13,7.9,7.9,0,0,1,1.51.62,10,10,0,0,1,2.81,2.25,12.53,12.53,0,0,1,1.93,3.05,8.92,8.92,0,0,1,.57,1.62,3.43,3.43,0,0,1,.09.84,1.29,1.29,0,0,1-.07.43.64.64,0,0,1-.31.36.72.72,0,0,1-.48,0,1.89,1.89,0,0,1-.38-.16,3.82,3.82,0,0,1-.59-.45,10.9,10.9,0,0,1-.93-1c-.57-.7-1.09-1.4-1.64-2.14s-1.11-1.52-1.74-2.4c-.32-.43-.65-.88-1-1.35-.18-.24-.36-.47-.54-.73s-.17-.26-.25-.4A1,1,0,0,1,39.67,47.43Z"/></g></g></svg>