<svg xmlns="http://www.w3.org/2000/svg" viewBox="0 0 169.95 151.75"><title>Recurso 34GRAPHS</title><g id="Capa_2" data-name="Capa 2"><g id="Capa_1-2" data-name="Capa 1"><path d="M89.4,44.16v32.4l-.76.83H85l-.79.65-.91-.55H56.23a5.88,5.88,0,0,0-.12,2.08c0,.77,0,1.55,0,2.33V86l-.78.78h-1c-.08-.13-.25-.27-.25-.4,0-2.52,0-5,0-7.54V77.67c-.17-.14-.23-.24-.3-.24H27.79l-.68.6-1.05-.55H22.35l-1.5-.76a.32.32,0,0,1-.09-.13.75.75,0,0,1,0-.26V44.42a1.49,1.49,0,0,0-.22-.22.64.64,0,0,0-.24,0H12.65L12,43.29v-1c.11-.09.17-.17.24-.19a.75.75,0,0,1,.26,0h8a1,1,0,0,0,.2-.21.44.44,0,0,0,.06-.23V21.89a1.65,1.65,0,0,0-.13-.47l-.6-.17-1.57,1.56-1.57,1.57H15.79l-.95-.95c-.59-.09-1.19-.21-1.6.44H1.3c-.3-.42-.83-.46-1.3-.7v-1.1l.69-.75H12.86A14.5,14.5,0,0,0,13,19c.71-1,2-1.09,2.92-1.84h2c.31-.3.62-.61,1-1l1.66-.09c.08-.17.2-.31.2-.46,0-1.82,0-3.64,0-5.47l1.47-.76h1.86a1.4,1.4,0,0,0,1.85.24l.29-.26h1.54l.54.5H53.77a1.25,1.25,0,0,0,.2-.2A.49.49,0,0,0,54,9.4V.84L54.66,0c.81-.15,1,.35,1.3.59a.67.67,0,0,1,.13.21.75.75,0,0,1,0,.26v8.5a1.61,1.61,0,0,0,.23.23.52.52,0,0,0,.25,0H82.84l.56-.52h1.54l.54.51c.57.21.74-.36,1.11-.51h1.27l1.37.7a1.12,1.12,0,0,1,.13.37q0,15.72,0,31.42a1.29,1.29,0,0,0,.21.2.44.44,0,0,0,.23.06h8.57c.07,0,.14.07.23.12.27.38,0,.81.12,1.17l-.78.78Zm-6.27-12c-.45-.87-.76-1.43-1-2a6.22,6.22,0,0,0-.73-1.51c-.37-.39-.18-1-.7-1.28s-.54-1-.93-1.43a15.35,15.35,0,0,1-2.07-2.52C77.11,22.5,76,21.88,75.35,21c-.55-.71-1.51-.73-2-1.44a1.09,1.09,0,0,0-.62-.34c-.66-.11-.79-1-1.39-1s-.93-.71-1.43-1.05h-1l-1.13-1.07H66.34l-.56-1H64.29l-1.83-1H59.53c-.4-.61-1.27-.46-1.7-1.13-.52.28-1.17-.2-1.69.29-.12.92,0,1.87-.12,2.8a2.91,2.91,0,0,1-2-.12c0-.89,0-1.76,0-2.62,0-.07-.11-.13-.16-.19L53.47,13l-1,1H48.08l-.58.54h-1l-.58.53H44.44c-1,.84-2.44.88-3.08,2.05H40.28l-1.1,1.05-.59,0-.33.91-1.21.14a3.87,3.87,0,0,1-1.66,1.22l-.27.79h-.57a9.14,9.14,0,0,1-.76,1.24,17.29,17.29,0,0,1-1.27,1.3c-.43.43-.88.84-1.28,1.29s-1,.71-1.12,1.35-.79.86-1.07,1.43v1.73l-1,.65L28,31.46l-1,1v1.43l-1.07,1.86v3c-.09.08-.14.15-.21.2-.62.44.07,1.41-.73,1.79-.08,0-.06.31-.08.48a2.9,2.9,0,0,0,0,.51c0,.08.06.15.13.28.93.32,2-.16,3,.27v1.12l-.66.69c-.8.29-1.7-.19-2.43.33V46l.38.38c.36.4-.13,1,.36,1.41s.25.95.28,1.43c0,.7,0,1.39,0,2.08a3.85,3.85,0,0,0,.08.49l.94.94v1.52c.63.39.49,1.22,1,1.68.17.15,0,.66,0,1.19l1,.72L29.1,59a6.81,6.81,0,0,1,1.36,1.82,17.12,17.12,0,0,0,1.63,1.67.29.29,0,0,1,.09.22c-.06.41.23.61.47.85.79.8,1.59,1.6,2.39,2.39,1-.17,1.16,1.25,2.14,1.1A8.05,8.05,0,0,0,39,68.87c1.06.53,2,1.38,3.4,1.34.65,1.14,2.07,1.21,3.06,2h1.88l1.83,1c.74,0,1.52,0,2.3,0a9.94,9.94,0,0,0,2.4-.08c.29-.9-.12-1.69.27-2.46h1.2l.39.41c.55.94,0,1.6.57,2.13H61c.38-.59,1.25-.43,1.64-1.05h2.28l.69-1a2.77,2.77,0,0,0,.75,0c.73-.33,1.45-.68,2.18-1h.77c.76-.91,2-1.23,2.78-2.08.88.1,1-1.24,1.91-1l.92-.9,4-4v-.59c.85-.35.93-1.3,1.46-1.94s1.07-1.47,1.66-2.31V56.18l1-.77c0-.61-.17-1.17,0-1.45a4.54,4.54,0,0,0,.61-1.85c0-.14.23-.24.44-.46V49.71l1-1.75c0-1.14,0-2.35,0-3.56,0-.06-.11-.12-.27-.27h-2.1c-.3-.42-.81-.58-.7-1.27l1-.81H85c.06,0,.12-.12.21-.2v-2.6l-.5-.55v-1l-.53-.58V35.2l-1-1.83ZM31.41,73.27c-.58.07-1.2-.19-1.82.22a4,4,0,0,1,0,1,2.91,2.91,0,0,1-.47.76c2.1.13,13.74.18,15.36.06.07,0,.13-.12.22-.21l-.87-.76a2.15,2.15,0,0,1-.87,0,18.36,18.36,0,0,1-1.76-1H34.52l-.73-.74c0-.41-.17-.83.1-1.22.78-.34,1.69.16,2.45-.35v-.54c-.48-.85-1.58-.86-2.18-1.64A26.82,26.82,0,0,0,32,66.56c-1.17-1.16-2.34-2.32-3.49-3.5-.17-.18-.25-.24-.41.06a6.58,6.58,0,0,1-.06.67,4.88,4.88,0,0,1-.2.65c-.65-.09-1.27.2-1.9-.27V58.6l-1-1.86V55.68l-1.07-.82v-2l-.76-1.46c-.09.16-.24.3-.24.44q0,9.23,0,18.45c0,.1.2.2.3.3.28-.51.4-1.11.94-1.46L25.27,69l.66-.72c.09-.48-.17-1,.27-1.27.59.06,1.2-.19,1.74.16.33.6-.29,1.39.38,1.91l.58,0,.18.59,1.34,1.52H32a1.81,1.81,0,0,1,.13,1.28Zm44.19,0H68.83a4.19,4.19,0,0,1-3.06,1.09l-.85.7c.28.4.65.28,1,.28H80.7c.3,0,.68.14.77-.15L79.7,73.33l-.51-.18-.7-1.24A2.33,2.33,0,0,1,79.91,71l.3-.88h.6l.51-1.06h1.05l.75-.75c.1-.41-.17-.87.21-1.26H85c.49.63-.11,1.41.4,2l1.14.11c.5.4-.22,1.21.64,1.33a.6.6,0,0,0,.09-.22q0-9,0-17.93c0-.13-.17-.25-.26-.38l-.75,1.46v1.85c-.61.4-.46,1.26-1.05,1.66v7a.49.49,0,0,1,0,.24,1.07,1.07,0,0,1-.18.19,3.54,3.54,0,0,1-1.74-.09c-.35-.79.16-1.7-.35-2.46h-.54c-.42.39-.37,1.08-.91,1.43s-.52,1.15-1.08,1.64c-1.67,1.5-3.21,3.15-4.79,4.74-.42-.11-.64.14-.92.36a3.32,3.32,0,0,1-.92.34l.14.84h1.74c.28.43.81.57.73,1.27C76.26,72.74,75.85,72.94,75.6,73.27Zm-31.39-61-.13-.33H33.49c-.78,0-1.56,0-2.34,0a4.61,4.61,0,0,0-2.27.26c1.16.28.45,1.16.9,1.76l1.74.1c.12.39.71.47.65,1.28,0,.2-.48.39-.79.81H29.71c-.13,1.15-1.12,1.54-1.67,2.33v1c-.39.31-.58.91-1.37.79L26,19.61c-.12-.65.13-1.12-.31-1.44H23.61l-.78.78V33.43c0,.7,0,1.39,0,2.08,0,.1.2.19.33.31.32-.39.12-.84.19-1.26l.52-.56V32.7a16.53,16.53,0,0,0,1-2.17,2.57,2.57,0,0,1,.45-1.12A6.31,6.31,0,0,0,26,28c0-1.54,0-3.18,0-4.83,0-.07.08-.14.13-.21.32-.23.48-.74,1-.64.77.22.78,1,1.14,1.52l.51,0c.58-1.48,2-2.25,2.83-3.35l.23-.74.76-.16.32-.95h.59c.42-.43.83-.88,1.29-1.28S36,17,36.35,16.15a14.35,14.35,0,0,0-1.88-.06c-.15-.41-.83-.53-.71-1.27l.76-.84H40.8l1-1,1.73-.09-.27-.34ZM87.07,34.57c.28-2.61.28-15.4.05-17.87-.77.18-.73,1-1.08,1.42l-.75.15-.14,1.27c-.36.23-.5.75-1.23.7-.25-.08-.45-.5-.79-.76a4.21,4.21,0,0,0,0-.5c0-.24-.05-.48-.09-.73l-1.36-.15-1.84-1.94L79,16a3.79,3.79,0,0,1,.07-1.81l.91-.31v-.55a2.54,2.54,0,0,0,.84-1.35q-7.28,0-14.53,0c-.1,0-.19.19-.27.27l.7.76h1.75L69.31,14h6.32c.24.38.76.51.74,1.05s-.52.62-.75,1l-1.28.08v.8a6.06,6.06,0,0,1,2,.95c1.41,1.27,2.72,2.66,4,4a.69.69,0,0,1,.17.44c0,.75,1,.87,1.11,1.63.12.55.8,1,1.42,1.7.15-1.09,0-1.94.1-2.62.45-.38.66-.83,1.38-.69l.71.68v7.37l1,1v2.17l.26-.17ZM23.25,73.34h-.33c0,.24-.07.47-.08.7,0,.06.13.18.17.17s.32-.12.32-.19A2.71,2.71,0,0,0,23.25,73.34Zm-.34-60,.18.18a1.11,1.11,0,0,0,.16-.35s-.1-.11-.16-.17Z"/><path d="M162.66,64.39h1.21l.8.74v2.1L163.73,69v3.75L162.55,75c.15.13.22.24.28.24l6.93.14a3.68,3.68,0,0,1,.15,1.79c-.14.08-.28.22-.42.23-.87,0-1.73,0-2.6,0H90.57l-.65-.68c-.15-.85.52-1,.69-1.4h68.67c.5-.41.19-1,.25-1.46a11.09,11.09,0,0,0,0-1.29A2.48,2.48,0,0,1,159,71l-.52-.57V67.32l-.51-.56V65.2l.83-.83h1.7V22.53c-.55-.44-1.18,0-1.92-.36l-.6-.62V20l.49-.55v-3l1-1.78V12.17a.88.88,0,0,0-.21-.19.49.49,0,0,0-.24-.05H90.69l-.76-.71V10.06c.1-.09.16-.2.22-.2h70.67l.55-.51h.52l.37.38c.07,0,.14.13.21.13h7.2c.45.4.18.86.28,1.32L169,12h-6.27l-.11.76,1,1v4l1.08,1.94c0,.68,0,1.54,0,2.4,0,.07-.1.13-.22.29H163c-.18.16-.27.2-.3.28a.7.7,0,0,0,0,.25Z"/><path d="M89.36,150.54l-.78,1.2c-.71.08-.86-.44-1.29-.72V144.6l-.76-.14-.4.4c-.07,0-.13.13-.2.13H82.35c-.16.16-.29.39-.41.39-1.09,0-2,1-3.11.61l-.63.52-.54-.47h-1c-.69-.54,0-1.32-.39-1.92a1.62,1.62,0,0,0-.45-.16H34c-.62.56,0,1.34-.44,2l-1.16.09-.44.43-.53-.4-1.69-.17c-.43-.79-1.57,0-2-.94H24.16c-.06,0-.13.1-.28.23v5.57l-.73.93H22c-.08-.16-.22-.31-.22-.45,0-2.08,0-4.16,0-6.24,0-.32.14-.68-.13-1l-.71-.19c-.37-.36-.1-.82-.19-1.23l1-1v-63c.44-.27.57-.79,1.07-.79s.66.52,1.05.77q0,31.13,0,62.32c0,.07.08.13.18.3l.59-.44h2.89l1.92-1.07H33l.68.85.12,1.05c3.16.28,22.91.34,42.32.14.42-.33.15-.8.25-1.27l.7-.74h3.64l1.75,1h3.45l.58.54H87c.09-.13.25-.26.25-.4,0-.78,0-1.56,0-2.34v-60l.85-.68c.63-.1.83.49,1.22.78Z"/><path d="M134.59,60.28h1.83c.14.15.24.22.24.28,0,1.56,0,3.11,0,4.48l-1,1.92v2.92l-.59.59,1.39.69h5.08l.86.78c.11.68-.44.92-.76,1.31H101.1l-.77-.62c-.15-.81.36-1,.55-1.27a1.23,1.23,0,0,1,.25-.17,1,1,0,0,1,.25,0h30.35l.79-.79-.94-.86a6.51,6.51,0,0,1-.1-2.06c0-.69,0-1.38,0-2.07l-1-1.9V61.05l.64-.69,1.2-.15c.07-.15.19-.29.19-.44,0-10.82,0-21.64,0-32.55l-2-.9s-.1-.07-.11-.14V23.11l1-1V18.17l1.11-2.06H101.16l-.87-.77c-.11-.69.44-.92.76-1.32h31.67l.56-.51c.52-.17.78.21,1.05.51h7.29c.26.34.68.53.75.76.07.78-.52.87-.67,1.33h-6.38c-.32.43.13.45.28,1.09V20c1,.38.05,1.63,1,1.91v4.28l-.67.7-1.2.14a1.56,1.56,0,0,0-.18.46Z"/><path d="M26,115.11l-.94-.93c.09-.52.61-.71.91-1.13v-24l.86-.72c.58-.13.77.35,1.06.57.08.09.16.15.18.23a.69.69,0,0,1,0,.25v23.1c.55.6.9.15,1.28-.24h1.53l.58-.53h2.45l1.78-1h1.47l.79.75v1c.14.09.28.24.42.24H71.57a3.71,3.71,0,0,0,.61-.12c0-.38,0-.79,0-1.2l.75-.75h1.56l.55.52h1l.58.53h2.57c.14.14.24.33.39.38a5.16,5.16,0,0,1,1.84.6c.33.24,1,0,1.4,0,.14-.16.24-.22.24-.29,0-.26,0-.52,0-.78V89.12c.35-.24.51-.72,1.05-.79s.58.53,1,.68v33.43l-.75.72c-.7.14-.86-.52-1.28-.71V116.1c-.7-.41-1.48-.13-2.22-.2a.94.94,0,0,0-.93.27c-.45.55-1.44-.14-1.77.75H76.15l-.57.53H72.47c-.59-.56,0-1.33-.32-1.93-3.21-.25-16.93-.3-34-.13-.43.33-.16.8-.25,1.27l-.7.74H34.48l-.47-.47a6.14,6.14,0,0,1-2-.05c-.54-.18-1-.58-1.64-.46l-.57-.52H28.3c-.09.12-.26.26-.26.39,0,2,0,4,0,6.17l-1.09.75c-.42.09-.57-.58-1-.76Z"/><path d="M56.34,93.55H59.5l.73.79v1.54l-.72.77h-3.1c-.76.53-.83,1.33-1.29,1.89.07.07.12.17.19.18a3,3,0,0,0,.52,0l.54-.5h1.56c.37.64,1.22.51,1.65,1.1a13.81,13.81,0,0,0,1.47,1.5,2.77,2.77,0,0,0,.22-2,2.89,2.89,0,0,1,.55-1.61c-.39-.77.65-1.15.52-1.86a5.49,5.49,0,0,1,2.33-1.85h2.62a7,7,0,0,0,.91.9,3.33,3.33,0,0,0,.88.33v.56l1.08,1.13V98l.44.45v4.71l-.43.54v1.58l-1.47,1.21-.26,1.08H66.88l-.91.66-.83-.64H63.63l-1.29-1.29v-.5l-.52-.57c-.09-.4.18-.87-.21-1.22a2.54,2.54,0,0,0-.88,1.09,4.54,4.54,0,0,1-1.85,2.45H57.57l-.94.66-.86-.6H54.4c-1.4-.8-1.61-2.34-2.45-3.44V98.51c.8-.91.94-2.12,1.82-3S55.7,94.48,56.34,93.55Zm8.07,3.87v6.78c.37.36.71.74,1.1,1.08a1.28,1.28,0,0,0,.5.21l1.06-.71v-1.67l.4-.41V98.42L67.05,98,67,96.72H65.18Zm-9.34,6.85c.65.23.81,1.23,1.62,1.25l1.43-1.27v-2.2l-.76-.72a10.09,10.09,0,0,0-2.29.13Z"/><path d="M121.67,42.94l-.83-.83-.56.48h-1.53l-.55-.51h-1.89l-1.44-.74-1.51-1.51a7.14,7.14,0,0,1-.08-2c0-.6,0-1.2,0-1.76l2.21-2.21,1.41-.61h6.95c.65.55,1.7.63,2.11,1.53h.58l.75,1.47V39.2l-.49.55v.44a5.59,5.59,0,0,1-2.71,1.93,2.38,2.38,0,0,0-1.59.26l1,.42-.2.27,1.74.09,2.25,2.25V49l-.66,1.33-.65.13-.9.91c-.5.22-1.23-.17-1.58.57h-1.53l-.6.52L120.8,52h-2.08l-.33-.36c-.57-.31-1.18-.08-1.76-.18a.81.81,0,0,1-.18-.19c-.37-.75-1.37-.65-1.79-1.29a5.68,5.68,0,0,0-1.34-1.81V44.37l.59-.58c.56-.33,1.16,0,1.7-.19l.78,1.51v2.4c.43.32.63,1.12,1.51.64V46c.21-.21.38-.31.45-.46a3.78,3.78,0,0,0,.19-.7q.83-.81,1.65-1.65ZM124,36.36h-7.31l-.7.75v1.15l.79.74h1.48l.54.44h3.15l.44-.44,1.65-.08.69-.74v-1ZM120.6,48.84h2.79c.28-.48.84-.46,1.28-.73V46.34a2.23,2.23,0,0,1-.73-.12,1.82,1.82,0,0,1-.44-.5H122l-1.43.74Z"/><path d="M148,33.24c-.07-.89.53-1.15.83-1.55H150l.76,1.31c-.06-.27,0,0,.05.21H154l.79.74v1.69l-.66.66h-3.3a8.06,8.06,0,0,0-.13,2.33c0,.69,0,1.39,0,2.11l-.5.56,1.44.75h1.26l1.93,2v4.59l-1,.74v.73a24.06,24.06,0,0,0-2.13,1.13c-.42.28-.83.08-1.23.17-.87-.91-2.4-.8-3-2.07-.35.41-.35.41-.41.81-.06.06-.12.18-.18.18h-3.72l-1.77-1.89V48.1l-.52-.57V45.45l.46-.46c0-.31.06-.72.09-1.13.56-.55,1.11-1.1,1.72-1.72h3.51l.65,1c.39-.1.58-.09.69-.19a8.23,8.23,0,0,0,.73-.72l-.26-.71h-.52c-.74-.47-1.14-1.23-2-1.61a7.91,7.91,0,0,1-1.9-1.69c-.62-.6-1.21-1.24-1.85-1.82-.16-.15-.46-.14-.69-.2,0-.07-.13-.13-.13-.2,0-.69,0-1.38,0-2l.78-.79Zm3.37,11.35c-.55.26-1.13.53-1.7.83s-.46,1.24-1.07,1.61a5.91,5.91,0,0,0,2.17,1.34c.73-.69,1.35-1.29,2-1.9,0,0,0-.17,0-.4C152.54,45.54,151.9,45.21,151.41,44.59Zm-4.87.61h-3.13c0,.68,0,1.26,0,1.85l1.29.66,1.8-1.8Zm.79-7.27.76-.8-.79-.79c-.36.16-.82-.18-1.24.24.14.16.27.34.42.5S147,37.64,147.33,37.93Z"/><path d="M64.93,133.82l.39-.38a3.69,3.69,0,0,0,.11-1.72c-.14-.08-.28-.22-.43-.22-1.12,0-2.24,0-3.37,0l-.69-.52c-.65,0-.79.49-1.16.72.2.79-.46,1.35-.62,2.19l-1.93,1.75H56.4l-.57.53h-1l-.46-.46H52.93l-2-1.91v-1l-.5-.58V131a12.83,12.83,0,0,1,.63-1.38c.26-.42.81-.63.93-1.16,0-.61-.61-.8-.9-1.2,0-.06-.13-.13-.13-.2,0-1,0-2.06,0-3.06l2.29-2.29H56.9a4.77,4.77,0,0,0,2.27,1.46v3.94l-1,1.15a2.53,2.53,0,0,0,.19.56,8.21,8.21,0,0,0,.66.66,2.29,2.29,0,0,0,.58-.13c.74-.47.71-1.48,1.46-2a4.61,4.61,0,0,0,1.61-1.65,7.7,7.7,0,0,1,1.71-2.15c.59-.62,1.22-1.22,1.86-1.86h1.06l.77.72V128a3.33,3.33,0,0,0,1.55,1.07v1.54l-1.53,1v1.13l.51.56v.9c-.26.55-.88.9-1.31,1.4h-1C65.46,135.26,65.53,134.3,64.93,133.82Zm-10.54-3.89-.88.73v1.59l1.28,1.31h1.05l.78-.77c0-.64,0-1.33,0-2,0-.07-.08-.14-.14-.24l-.67-.61Zm-.79-4.45,1.17,1.35,1.11-.06.72-.75v-1l-.75-.75H54.77Zm11.06,3.37.85-.77c-.2-.38.15-.83-.26-1.23h-.54c-.91.35-.67,1.38-1.33,1.79l.22.21Z"/><path d="M116.43,61.26l-1.1-1.43V59l-.75-.77h-.53l-.75-.75V56.31l1.45-1.23h9.7c.48-.43.1-.9.43-1.47l.61-.58h1l.74,1.41v5l-1.2,1.33c-.71.11-.94-.44-1.32-.75-.1-.57.13-1.18-.19-1.78h-6.91c-.41.53-.11,1.15-.16,1.5Z"/><path d="M143.16,59.23c-.62-.94-.79-2.18-1.81-2.81V54.81l.77-.77H152c.06,0,.13-.1.26-.2l.07-1.18,1.16-.68h.65l.76.77c0,2.06,0,4.14,0,6.21,0,.07-.1.13-.2.24h-2.2c-.35-.6-.11-1.21-.21-1.79-.14-.08-.27-.23-.41-.23-2.07,0-4.13,0-6.25,0-.05.52-.09.93-.12,1.34l-.74.73Z"/><path d="M45.44,121.61h1l.82.82V133l1.3.1.74.74v1.06l-.78.74H42.85l-.75-.7L42,133.75l1.11-.72h.76c.08-.15.23-.29.23-.43,0-2.23,0-4.46,0-6.78l-1.86-.09c-.4-.34-.13-.8-.22-1.23l.71-.75,1.27-.14.16-.75Z"/><path d="M44.92,95.62c.29-.49.57-1,.86-1.5H48.1a1.13,1.13,0,0,1,.19.44c0,3.37,0,6.74,0,10.2l2,.9a3.66,3.66,0,0,1,.09,1.69c-.14.07-.28.21-.43.22h-6l-.77-.74-.06-1.17,1-.71H45c.09-.17.22-.31.22-.45,0-1.82,0-3.63,0-5.47l.53-.58-.83-.73-1.6-.08a1.91,1.91,0,0,1-.13-1.29l.73-.74Z"/><path d="M98.16,71.4l.07,1.17-1.19.7H92.19l-.7-.83v-1c.11-.1.17-.2.24-.2q3.08,0,6.17,0C98,71.2,98,71.29,98.16,71.4Z"/><path d="M28,6.49l-.71.68L26,6.55V.68a2.85,2.85,0,0,1,1.85-.1c.07.1.16.16.16.23C28,2.69,28,4.58,28,6.49Z"/><path d="M83.13.56H85s.11.09.15.16a.49.49,0,0,1,0,.24c0,1.62,0,3.24,0,5.08l-1.46,1-.62-.61Z"/><path d="M92.22,16.09c-.26-.32-.66-.53-.76-.81-.07-.69.45-.84.7-1.22h5.36l.72,1.06c.05.37-.53.58-.82,1Z"/><path d="M12.48,16.09V14.16c.67-.33,1.36-.09,2-.14a17.7,17.7,0,0,1,2.06,0,5.85,5.85,0,0,1,2.07.13l.07,1.21-1.43.73Z"/><path d="M27.25,86.26c-.77,0-.9-.5-1.26-.73V80.22c.59-.37,1.19-.13,1.77-.19.09.13.26.26.26.39,0,1.71,0,3.41,0,5.06Z"/><path d="M17.82,73.23h-4.6l-.78-.72V71.45c.14-.09.27-.25.41-.25,1.87,0,3.75,0,5.56,0,.48.4.12.88.33,1.28Z"/><path d="M85.21,85l-.67,1.25c-.82.12-1-.42-1.35-.61v-5.4c.27-.37.74-.09,1.15-.23l.71.66c.07.1.15.17.15.23C85.21,82.41,85.21,84,85.21,85Z"/><path d="M56.1,38.92h1.35L58.23,40h.69c.49.31.23.78.32,1.29l.57.63a1.23,1.23,0,0,0,.25.17,1.13,1.13,0,0,0,.26,0h9.55c.45.38.18.85.28,1.33l-.94.71h-8.5a8.57,8.57,0,0,0-2.63,3.07l-1.18.14-.81.71V58c-.34.26-.53.68-.79.75-.73,0-.86-.47-1.24-.71V48.74a3,3,0,0,0-1.37-1.06c-.67-.28-1.13-1-1.77-1.68V44.38a1.81,1.81,0,0,0-.54-.21H40.76L40,43.41a1.87,1.87,0,0,1,.14-1.29h9.89l.84-.81V40.2a3.69,3.69,0,0,0,.88-.32,8,8,0,0,0,.93-.91h1c.1-.14.27-.27.27-.4,0-3.21,0-6.41,0-9.84l.84-.68c.66-.13.82.53,1.24.72Z"/></g></g></svg>