<svg xmlns="http://www.w3.org/2000/svg" viewBox="0 0 130.1 130.09"><title>Recurso 8ART</title><g id="Capa_2" data-name="Capa 2"><g id="Capa_1-2" data-name="Capa 1"><path d="M105.69,40.64h2c.14-.1.08-.25.08-.38,0-1.08,0-2.15,0-3.22v-.39a.37.37,0,0,1,.1-.07h1.84a.45.45,0,0,0,.07-.07.12.12,0,0,0,0-.08V32.62s0,0,.07-.1h3.9a.7.7,0,0,0,.09-.09.19.19,0,0,0,0-.08V28.62s0-.06,0-.08,0,0,.08-.09h1.87c0-.06.07-.07.08-.1V26.49c.2-.14.43-.06.65-.07s.45,0,.68,0h.63l.07-.1a.27.27,0,0,0,0-.09V22.49a.51.51,0,0,1,0-.09c.2-.12.43,0,.65,0s.45,0,.67,0h.69V20.41c0-.05.07-.09.09-.09h3.9l.06.07a.19.19,0,0,1,0,.07v1.82l-.1.08H122l-.07.07a.19.19,0,0,0,0,.08v9.91s0,0-.07.09H120a.7.7,0,0,0-.09.09.28.28,0,0,0,0,.09v3.81c-.1.14-.25.08-.38.09H118l-.08.09a.27.27,0,0,0,0,.09v3.81c-.21.14-.44,0-.65.07s-.45,0-.68,0h-.7v4c-.22.14-.45,0-.67.07h-.68a1.94,1.94,0,0,0-.67,0v1.91s0,.07.07.07h1.87a25,25,0,0,1,0,4,2.08,2.08,0,0,1-.66,0h-1.25a.45.45,0,0,0-.07.07.19.19,0,0,0,0,.08c0,1.27,0,2.54,0,3.81,0,0,0,0-.06.1h-1.88c0,.05-.07.06-.08.09a.19.19,0,0,0,0,.08v1.78c-.1.14-.25.08-.38.09h-1.64c0,.67,0,1.31,0,2l-.06.06a.11.11,0,0,1-.08,0h-7.87s0,0-.1.06v1.88l-.09.09H95.62s0,0-.09.07v1.87s-.07.08-.09.08H93.57c-.14.2-.06.43-.07.64s0,.46,0,.68V65l-.11.07H89.58l-.09,0c-.13.2,0,.43-.06.64s0,.45,0,.68v.69H87.49c0,.05-.08.06-.09.09s0,0,0,.08v3.81c-.11.14-.26.08-.39.09H85.42c-.09,1-.1,4.29,0,8.07.21.13.43,0,.65.06s.45,0,.68,0a1.9,1.9,0,0,1,.7,0v6c.22.14.45,0,.67.07s.45,0,.68,0a1.78,1.78,0,0,1,.68,0v1.9c0,.05.07.08.09.08h1.87c.14.21,0,.44.07.65s0,.45,0,.68v.63c.07,0,.09.07.11.07h3.89s.05,0,.06.06a.19.19,0,0,1,0,.08v5.85s0,0,.07.09h1.87s.09.07.09.09a1,1,0,0,1,0,.17v3.73l.06,0a.11.11,0,0,0,.08,0h1.82c0,.06.07.08.07.1a.27.27,0,0,1,0,.09v3.81c.22.13.45.05.66.06s.46,0,.68,0a2,2,0,0,1,.69,0v1.9l.09.08h7.88a.21.21,0,0,1,.08,0l.09.08v1.87l.09.08h1.87c.14.21,0,.44.07.65s0,.46,0,.68v.63c.07,0,.09.07.11.07h3.9c.13.21,0,.43,0,.65s0,.45,0,.68a1.77,1.77,0,0,0,0,.68h3.93c0,.06.07.07.08.1s0,0,0,.08v1.78c.11.13.26.08.4.08H130c.05.06.08.08.08.1v1.87c-.22.13-.45,0-.66.06s-.45,0-.68,0a2,2,0,0,0-.68,0v1.92l.07.06H130c.14.1.09.25.09.38v1.57c-.05.05-.07.07-.1.08h-1.86c-.14.21,0,.44-.07.65s0,.46,0,.68a2,2,0,0,1,0,.69h-3.95c-.14.24,0,.46-.07.68s0,.45,0,.68V124h-4c-.05.05-.08.07-.08.1a2,2,0,0,0,0,.25v1.6l-.06.07-.08,0h-5.84l-.08,0a2.08,2.08,0,0,0,0,.66c0,.19,0,.39,0,.59V128l-.08.07h-14s0,0-.1-.07v-1.87l-.09-.09s-.06,0-.08,0H93.58c-.14-.11-.08-.26-.08-.39,0-.53,0-1.06,0-1.57l-.1-.07a.27.27,0,0,0-.09,0H89.5c-.14-.22,0-.44-.07-.66s0-.45,0-.68a2.07,2.07,0,0,0-.05-.69H85.43c-.13-.23-.05-.46-.06-.68s0-.45,0-.67a1.64,1.64,0,0,0,0-.69h-1.9l-.08-.09V118c-.2-.14-.43,0-.65-.07s-.45,0-.68,0h-.65a1.9,1.9,0,0,1,0-.7c0-.2,0-.4,0-.6v-.67c-.22-.14-.45-.05-.67-.06s-.45,0-.67,0h-.69v-1.94l-.09-.09H77.32s0,0-.06-.06a.11.11,0,0,1,0-.07v-1.83a.37.37,0,0,0-.1-.07H75.27c-.14-.22,0-.44-.07-.66s0-.45,0-.68v-.69h-4c-.13-.23,0-.46-.06-.68s0-.45,0-.68v-.68H69.18l-.08-.09v-12c-.21-.14-.44-.06-.65-.07s-.45,0-.68,0h-.63l-.07-.1a.27.27,0,0,1,0-.09V91.61a.51.51,0,0,0,0-.09c-.2-.12-.43,0-.65,0s-.45,0-.68,0a2,2,0,0,1-.68,0V89.54c-.06-.06-.07-.1-.09-.1h-3.9L61,89.37a.19.19,0,0,1,0-.07V87.48l-.1-.08H57c-.13-.21,0-.44-.06-.66s0-.45,0-.67a2,2,0,0,0,0-.68h-6l-.06.06a.25.25,0,0,0,0,.08v1.78c-.1.15-.25.09-.38.09H44.78c0,.06-.07.07-.07.1a.19.19,0,0,0,0,.08v1.78c-.2.14-.43.06-.65.07s-.45,0-.68,0a2,2,0,0,0-.69,0v1.91c-.23.15-.46.06-.68.07s-.45,0-.67,0a1.82,1.82,0,0,0-.69,0v1.9s-.07.08-.09.08a1,1,0,0,1-.17,0H38.69l-.06.06a.24.24,0,0,0,0,.08c0,1.27,0,2.54,0,3.81a.2.2,0,0,1,0,.08,2,2,0,0,1-.65,0c-.23,0-.45,0-.68,0H34.61c-.14.21,0,.44-.07.66s0,.45,0,.68a2,2,0,0,1,0,.68H30.56l-.08.09a.28.28,0,0,0,0,.09v1.78c-.1.14-.25.08-.38.08H26.42c0,.68,0,1.32,0,2-.2.13-.43.05-.65.06s-.45,0-.67,0h-.69v2c-.24.14-.47.05-.69.07H22.34v2c-.05,0-.07.08-.09.08H20.38c-.14.21-.05.44-.07.65s0,.45,0,.68v.66a2.12,2.12,0,0,1-.7,0H18.36l-.07.08a.19.19,0,0,0,0,.08c0,1.27,0,2.54,0,3.81,0,0,0,0-.07.1H16.33s-.07.06-.08.09a.19.19,0,0,0,0,.08v3.81s0,0-.06.06l-.07,0H14.29s-.07.07-.08.1,0,0,0,.08v3.82c-.21.13-.44,0-.66.06s-.45,0-.67,0H12.2v4c.2.11.43,0,.65,0s.45,0,.68,0,.44-.06.66,0v4s0,.06-.07.06h-3.9c-.14-.2-.06-.43-.07-.65s0-.45,0-.67v-.66a2.43,2.43,0,0,0-.7-.05H8.2s-.07-.05-.08-.08a.19.19,0,0,1,0-.08v-3.81s0,0-.07-.09H6.18c-.06,0-.09-.07-.1-.09a.27.27,0,0,1,0-.09V120L6,120l-.08,0H4.12c0-.06-.07-.08-.07-.1a.27.27,0,0,1,0-.09v-3.81c-.22-.13-.45-.05-.66-.06s-.46,0-.68,0a2,2,0,0,1-.68,0V93.57a.17.17,0,0,1,.06-.06H4c.14-.1.08-.25.08-.38,0-1.7,0-3.39,0-5.09v-.55l.09-.08H6c.13-.21,0-.44.06-.65s0-.45,0-.68v-.65a2.14,2.14,0,0,1,.7,0c.2,0,.4,0,.59,0H8c.14-.22.05-.45.07-.67s0-.45,0-.68V81.31h2s.07-.07.08-.1,0,0,0-.08V79.35c.21-.15.44-.06.65-.08h1.34a2.11,2.11,0,0,0,0-.7,5.76,5.76,0,0,0,0-.59V77.3c.21-.13.44,0,.66-.06s.45,0,.68,0a1.77,1.77,0,0,0,.68,0V75.3l.09-.09h1.87c.14-.1.08-.25.08-.38,0-.53,0-1.07,0-1.64.68,0,1.32,0,2,0,.13-.2.05-.43.06-.64s0-.46,0-.68a2,2,0,0,1,0-.69h1.92c.14-.24.05-.46.07-.68s0-.45,0-.68a2,2,0,0,1,.05-.68h1.9s.08-.07.08-.1a.86.86,0,0,0,0-.16V67.16a.46.46,0,0,1,.07-.07l.07,0h9.91s0,0,.08,0a2.08,2.08,0,0,0,0-.66,5.76,5.76,0,0,0,0-.59v-.66l.07-.07h3.89s.05,0,.1-.07V63.1c0-.05.06-.08.09-.09h1.86c.14-.11.08-.26.08-.39,0-.53,0-1.07,0-1.57,0,0,.07-.07.1-.07h1.86c.14-.21,0-.44.06-.65s0-.45,0-.68V59h1.94l.08-.09s0,0,0-.08v-14s0,0-.08-.09H40.72c0-.05-.08-.07-.08-.09a1,1,0,0,1,0-.17V40.72c-.21-.14-.44-.06-.65-.07s-.45,0-.68,0h-.66a2.11,2.11,0,0,1,0-.7c0-.19,0-.39,0-.59V38.7l-.08-.08H34.64s0,0-.1-.07V36.68c0-.06-.06-.09-.09-.1H32.59l-.06-.06a.24.24,0,0,1,0-.08V34.62c-.06,0-.08-.07-.1-.07H30.56s-.06,0-.07-.07a.19.19,0,0,1,0-.08V30.58s0,0-.06-.09H28.53l-.08-.09a.28.28,0,0,1,0-.09V26.5c-.1-.14-.25-.08-.38-.08H26.49l-.08-.09a.27.27,0,0,1,0-.09V24.45c-.21-.14-.44-.05-.65-.07H24.42a2.12,2.12,0,0,1,0-.7c0-.2,0-.4,0-.59v-.68c-.22-.13-.45,0-.66-.06s-.45,0-.68,0a1.82,1.82,0,0,1-.69,0V20.4c-.05,0-.06-.08-.09-.08H20.38c-.14-.2-.05-.43-.07-.64s0-.45,0-.68v-.63l-.1-.08h-3.9c-.13-.21,0-.44-.06-.66s0-.45,0-.68a1.77,1.77,0,0,0,0-.68H12.27c0-.05-.08-.07-.09-.1s0-.05,0-.08V14.3c-.11-.14-.26-.08-.39-.08H4.06c0-.68,0-1.32,0-2L4,12.2l-.08,0H.09s0,0-.09,0V10.2c.2-.12.43,0,.65,0H2v-2c.05,0,.07-.08.09-.08H4c.14-.21.06-.44.07-.65s0-.45,0-.68V6.16c.06,0,.08-.07.1-.07H8.06c.12-.2,0-.43,0-.65s0-.45,0-.68a2,2,0,0,1,.05-.68h6L14.21,4a.27.27,0,0,0,0-.09V2.11c.08-.12.2-.09.3-.09H36.28l.28,0c0,.65,0,1.29,0,1.93a.17.17,0,0,0,.06.06.11.11,0,0,0,.08,0h5.84s0,0,.1.06V6a.7.7,0,0,0,.09.09h3.89s0,0,.1.07V8c0,.05.07.08.09.08H48.7c.14.2,0,.43.07.65s0,.45,0,.67v.66a2.46,2.46,0,0,0,.7.05h1.27c.13.22,0,.45.06.66s0,.46,0,.68a1.81,1.81,0,0,0,0,.69h1.89c.06.05.09.07.09.09a.91.91,0,0,1,0,.17v1.69s0,0,.06.06l.07,0h1.82c.05,0,.07.07.08.1s0,0,0,.08v1.78c.21.14.44.05.66.06s.45,0,.67,0a2,2,0,0,1,.69,0v1.92c.24.14.47.05.68.07h1.37v2c.05,0,.07.07.09.07a1,1,0,0,0,.17,0h1.68l.07.07a.19.19,0,0,1,0,.08v3.72a.55.55,0,0,1,0,.17,2.35,2.35,0,0,1-.65,0c-.2,0-.4,0-.6,0H59s-.06.05-.07.08,0,.05,0,.08v5.84s0,0,.07.1h1.87c0,.05.08.06.09.09v3.89l.06.06.08,0h1.82a.58.58,0,0,1,.07.11s0,.05,0,.08v1.78c.22.14.45.05.66.06s.45,0,.68,0a1.83,1.83,0,0,1,.69.05v1.89s.06.08.09.09H69c.14.1.09.25.09.39v1.56c.05,0,.07.07.1.08h8c.14.21,0,.44.07.66s0,.45,0,.67a2.72,2.72,0,0,0,0,.69h1.94c.12-.21,0-.43.05-.65s0-.45,0-.68a1.59,1.59,0,0,1,0-.68h6s.08-.07.08-.1a1,1,0,0,0,0-.17V38.7a.46.46,0,0,1,.07-.07l.07,0h3.81s0,0,.09,0a2.33,2.33,0,0,0,0-.65c0-.19,0-.39,0-.59v-.68c.22-.13.45,0,.66-.06s.45,0,.68,0h.69V34.64c.05,0,.06-.08.09-.09h1.86c.14-.11.08-.26.08-.39,0-1.72,0-3.45,0-5.17v-.47l.09-.07h5.94c.13-.21,0-.44.06-.66s0-.45,0-.68v-.69h4c.14-.23,0-.46.07-.68s0-.45,0-.67a2,2,0,0,1,0-.69h1.9c0-.05.08-.07.08-.09a1,1,0,0,0,0-.17v-1.7c.21-.14.44-.05.65-.07s.45,0,.68,0h.66a2.12,2.12,0,0,0,0-.7,5.86,5.86,0,0,0,0-.59v-.68c.22-.14.44,0,.66-.06s.45,0,.68,0a1.77,1.77,0,0,0,.68,0V18.37c.06-.05.07-.08.1-.09h1.86c.14-.1.08-.26.08-.39v-3.6c.06,0,.08-.07.1-.07h1.85s.06-.05.07-.08a.17.17,0,0,0,0-.07c0-1.27,0-2.55,0-3.82,0,0,0,0,.06-.09h1.87a.7.7,0,0,0,.09-.09.25.25,0,0,0,0-.08V.16s0-.06,0-.08,0,0,.07-.08h1.89s.07.06.07.08a1,1,0,0,1,0,.17V2c.21.13.44.05.65.06s.45,0,.68,0h.66c.06.89.08,10,0,12.14-.21.12-.43,0-.65.05s-.45,0-.68,0a1.65,1.65,0,0,0-.69,0v3.91c0,.06-.06.1-.09.1h-1.86l-.06.06a.19.19,0,0,0,0,.08v1.82l-.1.07a.27.27,0,0,1-.09,0h-1.76s-.06.05-.07.08a.19.19,0,0,0,0,.08c0,1.27,0,2.54,0,3.81,0,0,0,0-.06.09h-1.87l-.09.09a.28.28,0,0,0,0,.09v1.77c-.1.15-.25.09-.38.09-.53,0-1.07,0-1.57,0,0,.06-.07.07-.08.1s0,0,0,.08v1.77l-.07.07-.08,0H105.8s0,0-.09.06v1.9c-.24.14-.47.05-.68.07h-1.37v6a.7.7,0,0,1-.09.09h-1.86l-.06.06a.19.19,0,0,0,0,.08v7.79a.42.42,0,0,0,0,.15s0,.05.06.05h1.86c.14-.22,0-.45.07-.66s0-.45,0-.68a2.07,2.07,0,0,1,0-.69h1.89c.05,0,.08-.06.09-.09s0-.05,0-.08Zm-6.1-6.1h-4s0,0-.1.07v1.81a.17.17,0,0,0,0,.07l.06.06h3.93s.06-.06.06-.08c0-.64,0-1.29,0-1.94h1.94s0,0,.1-.07V32.66a.13.13,0,0,0,0-.08l0,0h-1.9s-.06.06-.06.08C99.59,33.26,99.59,33.9,99.59,34.54ZM67.07,73.16V71.39a1,1,0,0,1,0-.17s0,0,.09-.08h3.92a1.64,1.64,0,0,0,0-.69c0-.22,0-.45,0-.68a1.3,1.3,0,0,1,.06-.67h2v-.69c0-.23,0-.45,0-.68s-.07-.44.06-.66H75s.06,0,.08,0L75.2,67V59.09a.19.19,0,0,0,0-.08L75.12,59c-.64,0-1.28,0-2,0V57a.11.11,0,0,0,0-.07l-.06-.06H71.22l-.09-.09V55s-.07-.07-.09-.07h-10s0,0-.09.08v1.95h-.69c-.22,0-.45,0-.68,0s-.44-.07-.67.07v1.91a1.83,1.83,0,0,1-.69,0c-.23,0-.45,0-.68,0s-.44-.07-.64.05v8a2,2,0,0,0,.68,0c.23,0,.46,0,.68,0s.44-.07.66.06V71a.27.27,0,0,0,0,.09s0,0,0,.06.05,0,.07,0h5.84l.08,0,.06.06v1.69a1,1,0,0,0,0,.17s0,0,.06.08Zm32.51-34.5a1.9,1.9,0,0,0-.67,0h-.67c-.22,0-.44-.06-.66,0V40.6a1.64,1.64,0,0,0,.66,0,3.86,3.86,0,0,0,.68,0,1.65,1.65,0,0,0,.66,0ZM71.13,85.38v1.85a.19.19,0,0,0,0,.08s0,0,.08.09h1.56c.13,0,.28.06.39-.09V85.54a.19.19,0,0,0,0-.08s0,0-.06-.08Z"/><path d="M121.87,18.28h-1.93v-2c.22-.11.44,0,.66-.05s.45,0,.67,0,.45-.06.66,0v1.93S121.89,18.26,121.87,18.28Z"/><path d="M105.69,40.64h-1.93s0,0-.08-.06v-1.9a.12.12,0,0,1,0,0,.13.13,0,0,1,.08,0h1.81c0,.06.07.08.07.1Z"/></g></g></svg>