<svg xmlns="http://www.w3.org/2000/svg" viewBox="0 0 131.8 136.11"><title>Recurso 83MANDALA</title><g id="Capa_2" data-name="Capa 2"><g id="Capa_1-2" data-name="Capa 1"><path d="M52.42,77.53l-.6-1.73c-.14-.6-.33-1.19-.45-1.8a11.12,11.12,0,0,1-.15-3.88A5.41,5.41,0,0,1,52,68.07a3.67,3.67,0,0,1,.79-.88,4.22,4.22,0,0,1,1-.65,9.08,9.08,0,0,1,4-.9,46.54,46.54,0,0,1,7.39.55c2.39.27,4.73.62,7.07.92,4.67.62,9.44,1.08,14.14.21A22.8,22.8,0,0,0,93.06,65,21.31,21.31,0,0,0,98.6,60.8a28.21,28.21,0,0,0,4-5.61,35.45,35.45,0,0,0,2.72-6.3,43.09,43.09,0,0,0,1.76-13.61A53.59,53.59,0,0,0,99.22,8.6l.28-.22a41.1,41.1,0,0,1,11.36,26.79,37.07,37.07,0,0,1-.45,7.51,36.39,36.39,0,0,1-1.93,7.3A31.35,31.35,0,0,1,105,56.69a26.55,26.55,0,0,1-5.11,5.52,31.91,31.91,0,0,1-13.29,6.22A55.48,55.48,0,0,1,72,70c-4.91-.12-9.74-1.36-14.23-1.67a8,8,0,0,0-3,.3A2.92,2.92,0,0,0,53,70.58a19.47,19.47,0,0,0-.28,6.87Z"/><path d="M60.42,83.65l-1.48-1.08c-.46-.41-.95-.79-1.4-1.22a11,11,0,0,1-2.35-3.09,5.43,5.43,0,0,1-.52-2.13A3.83,3.83,0,0,1,54.8,75a4.46,4.46,0,0,1,.41-1.09A9.08,9.08,0,0,1,58,70.82,49.18,49.18,0,0,1,64.37,67c2.12-1.15,4.24-2.2,6.33-3.3,4.17-2.17,8.35-4.53,11.7-7.93a23.17,23.17,0,0,0,4.16-5.7,21.49,21.49,0,0,0,2.1-6.65,28,28,0,0,0,.07-6.9,34.29,34.29,0,0,0-1.39-6.72A43,43,0,0,0,81,17.67,53.44,53.44,0,0,0,59.22.34L59.33,0A41.12,41.12,0,0,1,84,15.42a38.28,38.28,0,0,1,6.55,13.5,31,31,0,0,1,1,7.48,26.74,26.74,0,0,1-1,7.46,31.93,31.93,0,0,1-7.33,12.71,55.57,55.57,0,0,1-11,9.7C68.1,69,63.43,70.74,59.57,73.06a7.86,7.86,0,0,0-2.3,2A2.87,2.87,0,0,0,57,77.59c.63,2,2.2,4,3.71,5.8Z"/><path d="M70.49,84.06l-1.83,0c-.61-.07-1.23-.1-1.85-.2a10.73,10.73,0,0,1-3.69-1.18,5.36,5.36,0,0,1-1.66-1.44,3.71,3.71,0,0,1-.55-1,4.11,4.11,0,0,1-.29-1.12,9.14,9.14,0,0,1,.53-4.11,47.83,47.83,0,0,1,3.05-6.75C65.27,66,66.4,64,67.49,61.86c2.17-4.17,4.23-8.5,5-13.21a22.86,22.86,0,0,0,.15-7,21.22,21.22,0,0,0-2.1-6.66,27.2,27.2,0,0,0-3.9-5.69,34.23,34.23,0,0,0-5-4.71,42.76,42.76,0,0,0-12.18-6.31,53.51,53.51,0,0,0-27.77-1.72l-.1-.34a41.08,41.08,0,0,1,29.05-1.52A38.37,38.37,0,0,1,63.78,22a31.34,31.34,0,0,1,5.11,5.56,26.64,26.64,0,0,1,3.45,6.68,32.06,32.06,0,0,1,1.3,14.62,55.67,55.67,0,0,1-3.49,14.27c-1.78,4.57-4.6,8.69-6.43,12.8A7.83,7.83,0,0,0,63,78.82a2.89,2.89,0,0,0,1.2,2.28,19.58,19.58,0,0,0,6.37,2.62Z"/><path d="M79,78.63l-1.53,1c-.53.3-1.06.63-1.62.9a10.76,10.76,0,0,1-3.7,1.15,5.22,5.22,0,0,1-2.19-.23,3.84,3.84,0,0,1-1-.53,4.59,4.59,0,0,1-.88-.75,9.08,9.08,0,0,1-1.91-3.67,49,49,0,0,1-1.39-7.28c-.35-2.38-.61-4.73-.93-7.07-.62-4.67-1.41-9.4-3.46-13.71a22.88,22.88,0,0,0-3.93-5.86,21.32,21.32,0,0,0-5.53-4.25,28,28,0,0,0-6.46-2.43,34.66,34.66,0,0,0-6.79-1A43,43,0,0,0,24,36.75,53.55,53.55,0,0,0,.28,51.26L0,51.05A41.08,41.08,0,0,1,22.93,33.14a36.2,36.2,0,0,1,7.38-1.5,35.85,35.85,0,0,1,7.54,0,31.61,31.61,0,0,1,7.38,1.62,26.65,26.65,0,0,1,6.66,3.5A31.89,31.89,0,0,1,61.33,48a55.87,55.87,0,0,1,5.34,13.69c1.15,4.76,1.21,9.75,2.06,14.17a7.94,7.94,0,0,0,1.08,2.84,2.88,2.88,0,0,0,2.29,1.18,19.5,19.5,0,0,0,6.71-1.51Z"/><path d="M82.81,69.31,82.15,71c-.27.55-.51,1.12-.81,1.66A11.06,11.06,0,0,1,79,75.76,5.26,5.26,0,0,1,77,76.82a3.83,3.83,0,0,1-1.16.17,4.44,4.44,0,0,1-1.16-.11A9.1,9.1,0,0,1,71.05,75a48.29,48.29,0,0,1-5.31-5.17c-1.66-1.74-3.22-3.52-4.82-5.26-3.18-3.46-6.54-6.89-10.7-9.24a22.93,22.93,0,0,0-6.57-2.55,21.51,21.51,0,0,0-7-.31A28.24,28.24,0,0,0,30,54.16a35.16,35.16,0,0,0-6.13,3.08,43.08,43.08,0,0,0-10.1,9.29A53.55,53.55,0,0,0,2.65,92H2.3A41.07,41.07,0,0,1,10.81,64.2a38.17,38.17,0,0,1,11.34-9.82,31.33,31.33,0,0,1,7-2.91,26.94,26.94,0,0,1,7.46-.95A32,32,0,0,1,50.76,54.3,55.34,55.34,0,0,1,63,62.46c3.68,3.24,6.59,7.29,9.83,10.42a7.83,7.83,0,0,0,2.5,1.7,2.89,2.89,0,0,0,2.55-.34,19.6,19.6,0,0,0,4.64-5.09Z"/><path d="M80.61,59.48l.44,1.78c.09.61.23,1.21.29,1.83A10.92,10.92,0,0,1,81.15,67a5.3,5.3,0,0,1-1,2,3.89,3.89,0,0,1-.86.81,4.59,4.59,0,0,1-1,.57,9.07,9.07,0,0,1-4.1.54,48,48,0,0,1-7.32-1.19c-2.35-.48-4.65-1-7-1.54-4.59-1-9.31-1.89-14.06-1.44A23.17,23.17,0,0,0,39,68.38a21.43,21.43,0,0,0-5.89,3.74,27.73,27.73,0,0,0-4.49,5.25,35.16,35.16,0,0,0-3.26,6,42.9,42.9,0,0,0-2.94,13.4A53.55,53.55,0,0,0,28,124.07l-.3.19a41.08,41.08,0,0,1-9-27.67A38.35,38.35,0,0,1,22.35,82a31.41,31.41,0,0,1,4-6.38A26.76,26.76,0,0,1,32,70.6a31.87,31.87,0,0,1,13.78-5,55.55,55.55,0,0,1,14.69-.33c4.87.54,9.58,2.19,14,2.9a7.83,7.83,0,0,0,3,0,2.89,2.89,0,0,0,1.89-1.74,19.61,19.61,0,0,0,.88-6.83Z"/><path d="M73.16,52.69l1.39,1.21c.42.44.88.86,1.28,1.33a11.07,11.07,0,0,1,2.08,3.28,5.32,5.32,0,0,1,.33,2.17A3.46,3.46,0,0,1,78,61.83a4.26,4.26,0,0,1-.51,1.05,9,9,0,0,1-3,2.8,48,48,0,0,1-6.68,3.22c-2.2,1-4.41,1.82-6.59,2.73-4.34,1.8-8.71,3.79-12.34,6.89a22.78,22.78,0,0,0-4.64,5.31,21.5,21.5,0,0,0-2.68,6.44,28,28,0,0,0-.67,6.87,35.48,35.48,0,0,0,.8,6.82,42.85,42.85,0,0,0,5.27,12.66A53.53,53.53,0,0,0,67.1,135.79l-.14.32A41.09,41.09,0,0,1,43.73,118.6a36.45,36.45,0,0,1-3.36-6.73,36,36,0,0,1-2-7.28A31.3,31.3,0,0,1,38,97a27.15,27.15,0,0,1,1.66-7.34,32,32,0,0,1,8.4-12A55.8,55.8,0,0,1,59.94,69c4.3-2.35,9.11-3.7,13.16-5.67a7.82,7.82,0,0,0,2.45-1.77A2.88,2.88,0,0,0,76.1,59a19.46,19.46,0,0,0-3.19-6.1Z"/><path d="M63.17,51.4l1.83.19c.6.12,1.21.2,1.82.36a10.81,10.81,0,0,1,3.57,1.5A5.26,5.26,0,0,1,71.92,55a4.91,4.91,0,0,1,.65,2.23,9,9,0,0,1-.89,4,47.62,47.62,0,0,1-3.62,6.46c-1.26,2-2.57,4-3.83,6-2.53,4-5,8.1-6.16,12.72a23.15,23.15,0,0,0-.76,7,21.44,21.44,0,0,0,1.51,6.82,27.75,27.75,0,0,0,3.39,6,35.23,35.23,0,0,0,4.56,5.13,43.07,43.07,0,0,0,11.58,7.34A53.6,53.6,0,0,0,105.87,123l.07.34a41.09,41.09,0,0,1-29.07-1,36.54,36.54,0,0,1-6.62-3.59,36.12,36.12,0,0,1-5.8-4.82,31.52,31.52,0,0,1-4.62-6,27,27,0,0,1-2.85-7,32,32,0,0,1,0-14.67,55.66,55.66,0,0,1,4.72-13.92c2.18-4.4,5.34-8.25,7.53-12.19a7.82,7.82,0,0,0,1-2.86,2.88,2.88,0,0,0-1-2.38,19.81,19.81,0,0,0-6.11-3.16Z"/><path d="M54.24,56.07l1.61-.89c.56-.24,1.11-.53,1.7-.75a11,11,0,0,1,3.79-.82,5.21,5.21,0,0,1,2.15.42,3.56,3.56,0,0,1,1,.62,4.6,4.6,0,0,1,.82.83,9.08,9.08,0,0,1,1.58,3.82,49,49,0,0,1,.75,7.37c.14,2.4.2,4.77.31,7.13.21,4.7.58,9.48,2.25,14a23,23,0,0,0,3.4,6.18,21.54,21.54,0,0,0,5.14,4.72,28.29,28.29,0,0,0,6.23,3,34.8,34.8,0,0,0,6.67,1.58,43.25,43.25,0,0,0,13.71-.62,53.61,53.61,0,0,0,24.91-12.4l.26.24a41.11,41.11,0,0,1-24.4,15.84,38.12,38.12,0,0,1-15,.23,30.8,30.8,0,0,1-7.21-2.25,26.9,26.9,0,0,1-6.33-4.06,31.9,31.9,0,0,1-8.43-12A55.54,55.54,0,0,1,65,74.07c-.74-4.85-.36-9.82-.83-14.3a8,8,0,0,0-.82-2.92,2.89,2.89,0,0,0-2.18-1.37c-2.07-.27-4.51.33-6.82.92Z"/><path d="M49.61,65l.81-1.65c.32-.52.6-1.07,1-1.59A11,11,0,0,1,54,58.93a5.24,5.24,0,0,1,2-.88A3.54,3.54,0,0,1,57.19,58a3.9,3.9,0,0,1,1.14.21,9,9,0,0,1,3.49,2.22A48.06,48.06,0,0,1,66.66,66c1.5,1.88,2.9,3.79,4.35,5.66,2.86,3.73,5.91,7.43,9.85,10.14a23.1,23.1,0,0,0,6.32,3.11,21.43,21.43,0,0,0,6.92.91,27.78,27.78,0,0,0,6.81-1.12,35.06,35.06,0,0,0,6.38-2.54,43,43,0,0,0,10.86-8.37,53.47,53.47,0,0,0,13.3-24.44l.35.05a41.13,41.13,0,0,1-10.9,27,37.17,37.17,0,0,1-5.64,5,36.28,36.28,0,0,1-6.52,3.8,30.89,30.89,0,0,1-7.19,2.29,26.75,26.75,0,0,1-7.52.3,31.88,31.88,0,0,1-13.8-5,55.87,55.87,0,0,1-11.46-9.19c-3.38-3.55-5.93-7.84-8.88-11.24a8,8,0,0,0-2.35-1.92,2.89,2.89,0,0,0-2.57.12,19.72,19.72,0,0,0-5.06,4.67Z"/></g></g></svg>