<svg xmlns="http://www.w3.org/2000/svg" viewBox="0 0 142.85 142.85"><title>Recurso 25MANDALA</title><g id="Capa_2" data-name="Capa 2"><g id="Capa_1-2" data-name="Capa 1"><path d="M101.68,66.79c-3.2-.83-5.24-4.37-4.93-8.23A143.92,143.92,0,0,0,89.13,0a142.66,142.66,0,0,1,5,58.3c-.44,3.82-3.47,6.57-6.75,6.32q-5.94-.39-11.87-.86,6,1.42,11.94,2.95c3.07.76,5.08,4,4.53,7.72q-1.07,7.09-2.85,14.14A141.67,141.67,0,0,0,93.8,74.82c1-3.56,4-6.07,7.13-5.87,4.1.29,8.19.56,12.3.79C109.38,68.73,105.54,67.75,101.68,66.79Z"/><path d="M95.31,52.28c-3.19.89-6.73-1.16-8.38-4.66A143.93,143.93,0,0,0,51,.72a142.27,142.27,0,0,1,33.48,48c1.53,3.53.29,7.42-2.68,8.85q-5.34,2.63-10.71,5.18Q77,61,83,59.32c3-.87,6.42,1,7.78,4.43a142.42,142.42,0,0,1,4.6,13.67A141.14,141.14,0,0,0,92.5,63.18c-.89-3.6.41-7.25,3.24-8.65,3.7-1.8,7.38-3.61,11-5.46Q101,50.63,95.31,52.28Z"/><path d="M82.54,42.9c-2.32,2.36-6.41,2.36-9.59.16A144,144,0,0,0,18.42,20.38a142.56,142.56,0,0,1,53,24.82c3.09,2.29,4,6.28,2.1,9q-3.3,4.95-6.68,9.84,4.23-4.47,8.52-8.87c2.2-2.27,6.05-2.37,9-.06a143,143,0,0,1,10.82,9.54Q90.62,59,85.56,53.74C83,51.08,82.28,47.27,84,44.63q3.45-5.1,6.83-10.25Q86.67,38.61,82.54,42.9Z"/><path d="M66.79,41.16c-.83,3.21-4.37,5.25-8.23,4.93A144.1,144.1,0,0,0,0,53.72a142.66,142.66,0,0,1,58.3-5c3.82.44,6.57,3.46,6.32,6.75q-.39,5.94-.86,11.87,1.42-6,2.95-12c.76-3.06,4-5.07,7.72-4.52a139.9,139.9,0,0,1,14.14,2.85A144.48,144.48,0,0,0,74.82,49c-3.56-1-6.07-4-5.87-7.13q.43-6.13.79-12.29Q68.23,35.38,66.79,41.16Z"/><path d="M52.28,47.53c.89,3.19-1.16,6.73-4.66,8.39A143.9,143.9,0,0,0,.72,91.8a142.55,142.55,0,0,1,48-33.48c3.53-1.53,7.42-.28,8.85,2.69q2.63,5.34,5.18,10.71Q61,65.83,59.32,59.9c-.87-3,1-6.42,4.43-7.78a142.42,142.42,0,0,1,13.67-4.6,143.93,143.93,0,0,0-14.24,2.82c-3.6.9-7.25-.4-8.65-3.24-1.8-3.69-3.61-7.37-5.46-11Q50.63,41.82,52.28,47.53Z"/><path d="M42.9,60.31c2.36,2.32,2.36,6.4.16,9.59a144,144,0,0,0-22.68,54.53,142.49,142.49,0,0,1,24.82-53c2.29-3.09,6.28-4,9-2.1q4.95,3.3,9.84,6.68-4.47-4.23-8.87-8.53c-2.27-2.19-2.37-6-.06-8.95q4.47-5.61,9.54-10.82Q59,52.24,53.74,57.29c-2.66,2.57-6.47,3.27-9.11,1.52Q39.53,55.36,34.38,52,38.61,56.18,42.9,60.31Z"/><path d="M41.16,76.06c3.21.83,5.25,4.37,4.93,8.23a144.1,144.1,0,0,0,7.63,58.56,142.66,142.66,0,0,1-5-58.3c.44-3.82,3.46-6.57,6.75-6.33q5.94.39,11.87.87-6-1.43-12-3c-3.06-.76-5.07-4-4.52-7.72a139.34,139.34,0,0,1,2.85-14.14Q51,61,49,68c-1,3.57-4,6.08-7.13,5.88q-6.13-.45-12.29-.8Q35.38,74.63,41.16,76.06Z"/><path d="M47.53,90.57c3.19-.89,6.73,1.16,8.39,4.66a144,144,0,0,0,35.88,46.9,142.55,142.55,0,0,1-33.48-48C56.79,90.61,58,86.72,61,85.29q5.34-2.62,10.71-5.18-5.89,1.76-11.82,3.41c-3,.88-6.42-1-7.78-4.42a143.36,143.36,0,0,1-4.6-13.67,143.93,143.93,0,0,0,2.82,14.24c.9,3.59-.4,7.24-3.24,8.65q-5.54,2.69-11,5.46Q41.82,92.22,47.53,90.57Z"/><path d="M60.31,100c2.32-2.37,6.4-2.36,9.59-.16a144,144,0,0,0,54.53,22.68,142.49,142.49,0,0,1-53-24.82c-3.09-2.29-4-6.29-2.1-9q3.3-5,6.68-9.84-4.23,4.45-8.53,8.87c-2.19,2.27-6,2.37-8.95,0a140.61,140.61,0,0,1-10.82-9.54A144,144,0,0,0,57.29,89.1c2.57,2.67,3.27,6.48,1.52,9.12q-3.45,5.09-6.83,10.25Q56.18,104.24,60.31,100Z"/><path d="M76.06,101.68c.83-3.2,4.37-5.24,8.23-4.93a143.92,143.92,0,0,0,58.56-7.62,142.66,142.66,0,0,1-58.3,5c-3.82-.44-6.57-3.47-6.33-6.75q.39-5.94.87-11.87-1.43,6-3,11.94c-.76,3.07-4,5.08-7.72,4.53q-7.1-1.07-14.14-2.85A142.41,142.41,0,0,0,68,93.8c3.57,1,6.08,4,5.88,7.13-.3,4.1-.56,8.19-.8,12.3C74.12,109.38,75.1,105.54,76.06,101.68Z"/><path d="M90.57,95.31c-.89-3.19,1.16-6.73,4.66-8.38A144,144,0,0,0,142.13,51a142.27,142.27,0,0,1-48,33.48c-3.53,1.53-7.42.29-8.85-2.68q-2.62-5.34-5.18-10.71Q81.87,77,83.52,83c.88,3-1,6.42-4.42,7.78a143.36,143.36,0,0,1-13.67,4.6A141.14,141.14,0,0,0,79.67,92.5c3.59-.89,7.24.41,8.65,3.24q2.69,5.55,5.46,11Q92.22,101,90.57,95.31Z"/><path d="M100,82.54c-2.37-2.32-2.36-6.41-.16-9.59a144,144,0,0,0,22.68-54.53,142.56,142.56,0,0,1-24.82,53c-2.29,3.09-6.29,4-9,2.1q-5-3.3-9.84-6.68,4.45,4.23,8.87,8.52c2.27,2.2,2.37,6.05,0,9a138.76,138.76,0,0,1-9.54,10.82A141.72,141.72,0,0,0,89.1,85.56C91.77,83,95.58,82.28,98.22,84q5.09,3.45,10.25,6.83Q104.24,86.67,100,82.54Z"/></g></g></svg>