<svg xmlns="http://www.w3.org/2000/svg" viewBox="0 0 112.95 112.95"><title>Recurso 53MANDALA</title><g id="Capa_2" data-name="Capa 2"><g id="Capa_1-2" data-name="Capa 1"><path d="M62.68,78.77c0,16.6-8.45,30.07-18.86,30.07-3.79,0-7.31-1.79-10.27-4.86,3.35,4.84,7.79,7.78,12.66,7.78,10.41,0,18.85-13.46,18.85-30.07,0-10.56-3.42-19.85-8.59-25.22C60.28,62,62.68,69.93,62.68,78.77Z"/><path d="M68.23,76.4c4.3,16-.37,31.23-10.43,33.93-3.66,1-7.52.16-11.17-2,4.48,3.8,9.53,5.5,14.24,4.24,10.06-2.7,14.73-17.89,10.43-33.93C68.56,68.4,62.85,60.32,56.47,56.47,61.58,60.8,66,67.86,68.23,76.4Z"/><path d="M73,72.68c8.3,14.38,7.73,30.26-1.29,35.47-3.28,1.89-7.23,2.11-11.32.93,5.31,2.51,10.63,2.85,14.85.41,9-5.21,9.6-21.09,1.29-35.47-5.28-9.15-12.89-15.48-20-17.55C62.52,59.34,68.57,65,73,72.68Z"/><path d="M76.62,67.85c11.75,11.75,15.3,27.24,7.93,34.6-2.68,2.68-6.43,3.91-10.69,3.83,5.78,1,11,0,14.45-3.45,7.36-7.36,3.81-22.85-7.93-34.6-7.47-7.47-16.46-11.62-23.91-11.76C63.06,57.67,70.37,61.6,76.62,67.85Z"/><path d="M78.88,62.25c14.38,8.3,21.82,22.35,16.61,31.37-1.89,3.28-5.2,5.44-9.33,6.46C92,99.6,96.79,97.23,99.22,93,104.43,84,97,70,82.61,61.65c-9.15-5.29-18.91-7-26.14-5.18C63.14,55.93,71.22,57.83,78.88,62.25Z"/><path d="M79.61,56.25c16,4.3,26.86,15.94,24.17,26-1,3.66-3.62,6.6-7.35,8.66,5.54-2,9.53-5.5,10.79-10.21,2.7-10.06-8.12-21.7-24.16-26C72.85,52,63,52.87,56.47,56.47,62.77,54.22,71.07,54,79.61,56.25Z"/><path d="M78.77,50.27c16.6,0,30.07,8.45,30.07,18.86,0,3.79-1.79,7.31-4.86,10.27,4.84-3.35,7.78-7.79,7.78-12.66,0-10.41-13.46-18.85-30.07-18.85-10.56,0-19.85,3.42-25.22,8.58C62,52.67,69.93,50.27,78.77,50.27Z"/><path d="M76.4,44.72c16-4.3,31.23.37,33.93,10.43,1,3.66.16,7.52-2,11.17,3.8-4.48,5.5-9.53,4.24-14.24C109.84,42,94.65,37.35,78.61,41.65,68.4,44.39,60.32,50.09,56.47,56.47,60.8,51.37,67.86,47,76.4,44.72Z"/><path d="M72.68,40c14.38-8.31,30.26-7.73,35.47,1.29,1.89,3.28,2.11,7.23.93,11.32,2.51-5.31,2.85-10.63.41-14.85-5.21-9-21.09-9.6-35.47-1.29-9.15,5.28-15.48,12.89-17.55,20C59.34,50.43,65,44.38,72.68,40Z"/><path d="M67.85,36.33C79.6,24.58,95.09,21,102.45,28.4c2.68,2.68,3.91,6.43,3.83,10.69,1-5.78,0-11-3.45-14.45-7.36-7.36-22.85-3.81-34.6,7.93C60.76,40,56.61,49,56.47,56.47,57.67,49.89,61.6,42.58,67.85,36.33Z"/><path d="M62.25,34.07c8.3-14.38,22.35-21.82,31.37-16.62,3.28,1.9,5.44,5.21,6.46,9.34C99.6,20.93,97.23,16.16,93,13.73,84,8.52,70,16,61.65,30.34c-5.29,9.15-7,18.91-5.18,26.13C55.93,49.81,57.83,41.73,62.25,34.07Z"/><path d="M56.25,33.34c4.3-16,15.94-26.86,26-24.17,3.66,1,6.6,3.62,8.66,7.35C88.93,11,85.41,7,80.7,5.73,70.64,3,59,13.85,54.71,29.89,52,40.1,52.87,50,56.47,56.47,54.22,50.17,54,41.88,56.25,33.34Z"/><path d="M50.27,34.18c0-16.61,8.45-30.07,18.86-30.07C72.92,4.11,76.44,5.9,79.4,9c-3.35-4.84-7.79-7.78-12.66-7.78-10.41,0-18.85,13.46-18.85,30.07,0,10.56,3.42,19.85,8.58,25.21C52.67,51,50.27,43,50.27,34.18Z"/><path d="M44.72,36.55c-4.3-16,.37-31.23,10.43-33.93,3.66-1,7.52-.17,11.17,2C61.84.85,56.79-.85,52.08.41,42,3.11,37.35,18.3,41.65,34.34c2.74,10.21,8.44,18.29,14.82,22.13C51.37,52.15,47,45.09,44.72,36.55Z"/><path d="M40,40.27C31.65,25.89,32.23,10,41.25,4.8c3.28-1.9,7.23-2.11,11.32-.93C47.26,1.36,41.94,1,37.72,3.46c-9,5.21-9.6,21.09-1.29,35.47,5.28,9.15,12.89,15.48,20,17.54C50.43,53.61,44.38,47.93,40,40.27Z"/><path d="M36.33,45.1C24.58,33.35,21,17.86,28.4,10.5c2.68-2.68,6.43-3.91,10.69-3.83-5.78-1-11,0-14.45,3.45-7.36,7.36-3.81,22.85,7.93,34.6C40,52.19,49,56.34,56.47,56.47,49.89,55.28,42.58,51.35,36.33,45.1Z"/><path d="M34.07,50.7C19.69,42.39,12.25,28.35,17.45,19.33c1.9-3.28,5.21-5.44,9.34-6.46-5.86.48-10.63,2.85-13.06,7.07C8.52,29,16,43,30.34,51.3c9.15,5.29,18.91,7,26.13,5.17C49.81,57,41.73,55.12,34.07,50.7Z"/><path d="M33.34,56.69c-16-4.29-26.86-15.93-24.17-26,1-3.66,3.62-6.6,7.35-8.66C11,24,7,27.54,5.73,32.25c-2.7,10.06,8.12,21.69,24.16,26C40.1,61,50,60.08,56.47,56.47,50.17,58.73,41.88,59,33.34,56.69Z"/><path d="M34.18,62.68c-16.61,0-30.07-8.45-30.07-18.86C4.11,40,5.9,36.51,9,33.55,4.13,36.9,1.19,41.34,1.19,46.21c0,10.41,13.46,18.85,30.07,18.85,10.56,0,19.85-3.42,25.21-8.59C51,60.28,43,62.68,34.18,62.68Z"/><path d="M36.55,68.23c-16,4.3-31.23-.37-33.93-10.43-1-3.66-.17-7.52,2-11.17C.85,51.11-.85,56.16.41,60.87,3.11,70.93,18.3,75.6,34.34,71.3c10.21-2.74,18.29-8.45,22.13-14.83C52.15,61.58,45.09,66,36.55,68.23Z"/><path d="M40.27,73C25.89,81.29,10,80.72,4.8,71.7c-1.9-3.28-2.11-7.23-.93-11.32C1.36,65.69,1,71,3.46,75.23c5.21,9,21.09,9.6,35.47,1.29,9.15-5.28,15.48-12.89,17.54-20C53.61,62.52,47.93,68.57,40.27,73Z"/><path d="M45.1,76.62c-11.75,11.75-27.24,15.3-34.6,7.93-2.68-2.68-3.91-6.43-3.83-10.69-1,5.78,0,11,3.45,14.45,7.36,7.36,22.85,3.81,34.6-7.93,7.47-7.47,11.62-16.46,11.75-23.91C55.28,63.06,51.35,70.37,45.1,76.62Z"/><path d="M50.7,78.88C42.39,93.26,28.35,100.7,19.33,95.49c-3.28-1.89-5.44-5.2-6.46-9.33.48,5.86,2.85,10.63,7.07,13.06C29,104.43,43,97,51.3,82.61c5.29-9.15,7-18.91,5.17-26.14C57,63.14,55.12,71.22,50.7,78.88Z"/><path d="M56.69,79.61c-4.29,16-15.93,26.86-26,24.17-3.66-1-6.6-3.62-8.66-7.35,2,5.54,5.5,9.53,10.21,10.79,10.06,2.7,21.69-8.12,26-24.16C61,72.85,60.08,63,56.47,56.47,58.73,62.77,59,71.07,56.69,79.61Z"/></g></g></svg>