<svg xmlns="http://www.w3.org/2000/svg" viewBox="0 0 223.66 503.18"><title>Recurso 2ART</title><g id="Capa_2" data-name="Capa 2"><g id="Capa_1-2" data-name="Capa 1"><path d="M55.92,432v4.91c.21.28.51.17.77.17h9.24a1,1,0,0,1,.15.19.48.48,0,0,1,0,.17V442a21.58,21.58,0,0,0,5.06.07v-9.93a24.49,24.49,0,0,1,5.1,0v4.77c.11.12.14.18.19.2a.42.42,0,0,0,.16,0h9.66c.27-.22.16-.52.16-.78q0-4.15,0-8.3v-.94a1.63,1.63,0,0,1,.2-.15h9.79a.92.92,0,0,0,.14-.14.37.37,0,0,0,0-.15q0-4.83,0-9.66s0-.09.12-.19h4.76c.1-.1.15-.14.18-.18a.47.47,0,0,0,0-.17q0-55.63,0-111.28c0-.05,0-.09.08-.14a3,3,0,0,1,1.15-.08c.45,0,.9,0,1.36,0h2.35a25,25,0,0,0,0-5.08h-4.78c-.11-.1-.18-.14-.19-.18a1.93,1.93,0,0,1,0-.34V295c.21-.27.51-.16.77-.16h4.16c.08-.11.14-.16.14-.2,0-5,0-9.93,0-14.88-.06-.06-.09-.11-.14-.13a.29.29,0,0,0-.16,0h-4.57s-.09-.06-.21-.14V0h15.1c.06.06.13.09.14.14a1.93,1.93,0,0,1,0,.34V5.05h-4.74s-.12,0-.16,0-.08.08-.18.2v10h-2.56c-.39,0-.79,0-1.18,0s-.89-.14-1.3.1v9.94c.08.06.12.12.16.12h4.57a.27.27,0,0,1,.16,0s.08.07.15.14v4.7c0,.05-.06.09-.14.21h-1.61c-.56,0-1.13,0-1.69,0a6.43,6.43,0,0,0-1.64.07v4.82s.07.08.16.19h4.15c.26,0,.56-.11.77.17v4.57a.47.47,0,0,0,0,.17s.07.08.13.14h4.82c.06-.08.12-.12.12-.16V5.05h4.92c.27.21.15.51.16.78s0,.67,0,1V421.69c.08.08.11.13.16.15a.44.44,0,0,0,.16,0h9.49a.48.48,0,0,1,.17,0c.05,0,.08.07.18.16v4.76c.1.09.14.15.19.15a1.82,1.82,0,0,0,.33,0h9.57a6.41,6.41,0,0,1,.08,1.64c0,.56,0,1.12,0,1.69v1.66c1.82.13,10.17.17,15.11.07a.45.45,0,0,0,.11-.13.25.25,0,0,0,0-.15v-4.58s.06-.09.14-.19h9.84c.1-.1.16-.13.18-.18a.48.48,0,0,0,0-.17V422c.21-.28.51-.17.78-.17h9.23c.09-.11.16-.15.16-.2v-4.72a1.54,1.54,0,0,0-.14-.13.26.26,0,0,0-.15,0H173s-.08,0-.17-.11v-9.92a.32.32,0,0,1,.12-.11.27.27,0,0,1,.16,0h9.48a.47.47,0,0,0,.17,0s.09-.06.16-.12v-4.82c-.06-.06-.1-.12-.14-.13a2,2,0,0,0-.34,0h-4.4a18.78,18.78,0,0,1-.09-5,.41.41,0,0,1,.13-.1h4.7a.7.7,0,0,0,.15-.15.36.36,0,0,0,0-.15V381.4s-.06-.09-.12-.17H173c-.05,0-.1.08-.12.13a.43.43,0,0,0,0,.16v4.58c-.21.28-.51.17-.77.17H167.9a1.15,1.15,0,0,0-.15.19.43.43,0,0,0,0,.16v9.64a.53.53,0,0,1-.13.13.26.26,0,0,1-.15,0h-4.58s-.09.06-.14.09a2.92,2.92,0,0,0-.07,1.14c0,.46,0,.91,0,1.36v2.35a24.11,24.11,0,0,1-5.07,0V386.47c-.11-.11-.14-.18-.19-.19a1.82,1.82,0,0,0-.33,0h-4.41a19.07,19.07,0,0,1-.09-5s.08-.08.13-.09a.47.47,0,0,1,.17,0h14.71c.06-.06.11-.09.13-.14a.27.27,0,0,0,0-.16c0-1.52,0-3.05,0-4.57,0,0,.06-.09.13-.19h4.81c.27-.47.1-.93.13-1.36s0-.79,0-1.19V371h4.92c.09-.11.16-.15.16-.19V350.77a6.41,6.41,0,0,0-1.64-.07c-.56,0-1.13,0-1.69,0H173c-.08-.12-.14-.16-.14-.21v-4.7a1,1,0,0,1,.15-.15.39.39,0,0,1,.16,0h9.65c.05,0,.09.06.19.14v4.75a1.4,1.4,0,0,0,.18.18.49.49,0,0,0,.17,0h4.58c.27.21.16.52.16.78,0,1.4,0,2.81,0,4.15.11.09.15.14.19.15a.5.5,0,0,0,.17,0H193a.92.92,0,0,1,.14.14.37.37,0,0,1,0,.15v4.58s.06.09.13.19h4.76c.1.1.16.13.18.18a.43.43,0,0,1,0,.16v9.49a.47.47,0,0,0,0,.17c0,.05.06.08.15.18h4.76c.09.11.15.14.16.19a1.9,1.9,0,0,1,0,.34v9.56a6.35,6.35,0,0,0,1.63.08c.56,0,1.13,0,1.69,0h1.66a4,4,0,0,1,.09,1.4c0,.5,0,1,0,1.52v7.08c.07.07.1.12.15.14a.27.27,0,0,0,.16,0h4.57s.09.06.19.14v4.76c.1.1.13.15.18.17a.47.47,0,0,0,.17,0h4.57c.28.21.17.51.17.77,0,4.41,0,8.81,0,13.22v1.1a1.19,1.19,0,0,0,.2.16h4.72a1.54,1.54,0,0,1,.13.14.26.26,0,0,1,0,.15v35.17a3,3,0,0,1-1.24.12h-3.7a24.25,24.25,0,0,0,0,5.08h4.8c.1.1.17.14.17.18a1.93,1.93,0,0,1,0,.34v4.4a1.42,1.42,0,0,1-.13.12.27.27,0,0,1-.15.05h-4.65c-.09.11-.14.15-.15.2a.47.47,0,0,0,0,.17v14.71a.92.92,0,0,1-.14.14.38.38,0,0,1-.16,0H213.7s-.09.06-.19.13v9.9c-.47.26-.93.09-1.36.13s-.79,0-1.19,0-.9,0-1.35,0-.78-.12-1.2.13v4.79c-.1.08-.14.14-.19.15a1.9,1.9,0,0,1-.34,0H203.5c-.06.05-.11.08-.13.13a.26.26,0,0,0,0,.15q0,4.83,0,9.66s0,.09-.08.13a.6.6,0,0,1-.13.09h-4.57l-.16,0a1.36,1.36,0,0,0-.12.12.44.44,0,0,0,0,.16V503s-.06.08-.13.16h-9.89c-.06-.06-.13-.09-.14-.14s0-.22,0-.34v-4.4c-.22-.27-.52-.16-.78-.16h-4.15c-.09-.11-.14-.15-.15-.2a.47.47,0,0,1,0-.17v-4.54a.92.92,0,0,0-.14-.14.37.37,0,0,0-.15,0h-4.58s-.09-.05-.19-.12V483a24.73,24.73,0,0,0-5.1,0v4.8c-.1.09-.14.16-.19.16h-4.82a6.45,6.45,0,0,1-.07-1.64c0-.57,0-1.13,0-1.7V483c-1.8-.14-10.51-.17-15.1-.07,0,0-.1.08-.12.12a.44.44,0,0,0,0,.16c0,1.53,0,3,0,4.58,0,0-.06.08-.12.16h-4.82a.52.52,0,0,1-.13-.13.49.49,0,0,1,0-.17V483c-.21-.27-.51-.16-.77-.16h-4.16a1.63,1.63,0,0,1-.15-.2.86.86,0,0,1,0-.16v-4.55a.92.92,0,0,0-.14-.14.38.38,0,0,0-.16,0h-4.57s-.09-.06-.21-.14v-9.9c-.45-.26-.91-.08-1.34-.12s-.79,0-1.19,0h-2.55v-4.91c-.11-.1-.15-.16-.19-.16h-4.73a.8.8,0,0,0-.13.13.37.37,0,0,0,0,.15v14.74s0,.09-.08.14a2.75,2.75,0,0,1-1.14.09h-3.69a1,1,0,0,0-.15.15.39.39,0,0,0,0,.16c0,1.52,0,3.05,0,4.57,0,0-.06.09-.12.17H101.8a.79.79,0,0,1-.13-.13.48.48,0,0,1,0-.17V467.78c-.15-.23-.39-.18-.6-.18h-9c-.17,0-.33,0-.46,0a.76.76,0,0,0-.13.16.86.86,0,0,0,0,.16v4.56a.83.83,0,0,1-.14.13l-.15,0H86.64s-.09.05-.14.08a.5.5,0,0,0-.08.14.86.86,0,0,0,0,.16v9.49c0,.05,0,.11,0,.18-.41.25-.86.07-1.3.11s-.79,0-1.18,0-.91,0-1.36,0a2.29,2.29,0,0,0-1.2.12v4.78c-.1.1-.14.16-.18.17a1.93,1.93,0,0,1-.34,0h-4.4a1.42,1.42,0,0,1-.12-.13.27.27,0,0,1,0-.15V483c-1.9-.15-8.91-.18-15.1-.07A.68.68,0,0,0,61,483a.37.37,0,0,0,0,.15v4.58s-.06.08-.13.19H56.05c-.26.47-.09.93-.12,1.36a11.78,11.78,0,0,0,0,1.19V493h-10c-.09.1-.15.14-.15.19a1.82,1.82,0,0,0,0,.33V498a7.49,7.49,0,0,1-1.64.07H40.79a2.83,2.83,0,0,0-.12,1.23c0,.45,0,.91,0,1.36V503a.84.84,0,0,1-.15.14.3.3,0,0,1-.16,0H30.7s-.09-.06-.19-.14v-4.75c-.1-.11-.14-.18-.18-.18a1.9,1.9,0,0,0-.34,0H20.51c-.28-.21-.17-.51-.17-.78,0-2.76,0-5.53,0-8.3v-.93c-.12-.09-.15-.14-.2-.15a.48.48,0,0,0-.17,0H15.42a.55.55,0,0,1-.13-.15.25.25,0,0,1,0-.15c0-1.53,0-3.05,0-4.58,0,0-.06-.08-.13-.19H10.36a1.43,1.43,0,0,1-.18-.18.43.43,0,0,1,0-.16V473a.48.48,0,0,0,0-.17c0-.05-.07-.08-.16-.18H5.25c-.09-.1-.15-.14-.16-.19s0-.22,0-.34V457.52a6.41,6.41,0,0,0-1.64-.08c-.56,0-1.13,0-1.69,0H.15c-.08-.13-.14-.17-.14-.21v-9.79a.47.47,0,0,1,.15-.14.25.25,0,0,1,.15,0H4.89s.08-.06.16-.12v-15c0-.06-.08-.11-.13-.13a.47.47,0,0,0-.17,0H.18c-.23-.15-.17-.39-.17-.6,0-3,0-6,0-9,0-.16,0-.32,0-.46a.66.66,0,0,1,.16-.12.48.48,0,0,1,.17,0H4.92c.06-.06.11-.09.13-.14a.29.29,0,0,0,0-.16v-24.9c0-.05.06-.09.12-.19H10c.1-.1.15-.14.17-.19a.27.27,0,0,0,0-.16v-9.48a.47.47,0,0,1,0-.17c0-.05.06-.09.15-.19h4.75c.1-.1.16-.14.17-.18a1.93,1.93,0,0,0,0-.34v-9.48a.71.71,0,0,1,.13-.12.27.27,0,0,1,.15-.05h4.66c.08-.12.13-.16.14-.21a.43.43,0,0,0,0-.16V371.2a1.08,1.08,0,0,1,.14-.15.44.44,0,0,1,.16,0h4.57c.05,0,.09-.06.19-.13v-9.84c.1-.1.14-.16.19-.18a.42.42,0,0,1,.16,0h4.58c.28-.2.17-.51.17-.77,0-1.4,0-2.8,0-4.15a2.22,2.22,0,0,1,.19-.16.49.49,0,0,1,.17,0h4.56a1.54,1.54,0,0,0,.13-.14.37.37,0,0,0,0-.15c0-1.53,0-3.05,0-4.57,0-.05,0-.09.08-.14,1.68-.12,11.09-.15,15,0,0,0,.09.07.11.12a.27.27,0,0,1,0,.16q0,4.83,0,9.66s.06.08.15.18h4.73c.12.11.19.14.19.18a1.93,1.93,0,0,1,0,.34v4.4c.21.28.51.17.78.17h4.15a1.26,1.26,0,0,1,.15.21.86.86,0,0,1,0,.16v4.55a1.82,1.82,0,0,0,.14.14.45.45,0,0,0,.16,0h4.58s.08.06.19.13V376c.47.27.92.1,1.36.13s.79,0,1.18,0,.91,0,1.36,0,.78-.11,1.17.12v9.91c-.08.06-.11.12-.16.13a1.9,1.9,0,0,1-.34,0H66.25c0,.05-.1.08-.12.13a.26.26,0,0,0,0,.15q0,7.37,0,14.74s0,.09-.08.14-.08.07-.13.08a.48.48,0,0,1-.17,0H51.13l-.15,0s-.1.08-.12.13a.36.36,0,0,0,0,.15v19.83s.06.08.14.18h4.76c.1.1.15.14.17.19a.42.42,0,0,1,0,.16v4.75H51c-.05,0-.09.07-.18.16,0,1.35,0,2.75,0,4.16,0,.26-.11.56.17.76Zm-30.5-20.33H20.54s-.09.07-.2.15v4.63a.3.3,0,0,0,0,.16.52.52,0,0,0,.1.11H25.3c.06-.08.12-.12.12-.17v-4.88H30.3c.05,0,.09-.06.2-.15v-4.63a.3.3,0,0,0,0-.16.52.52,0,0,0-.1-.11H25.42Zm142.32,40.66h4.9s.08-.07.12-.1a90.31,90.31,0,0,0-.07-10h-4.95v10.12h-4.88s-.08.06-.2.15v4.63a.37.37,0,0,0,0,.15s.08.08.1.11h4.83c.06-.08.12-.12.12-.16C167.75,455.61,167.74,454,167.74,452.35Zm-91.49,0v4.89s.07.08.15.2H81a.45.45,0,0,0,.16,0l.11-.11v-4.95h-5v-4.89s-.07-.08-.11-.12a84.63,84.63,0,0,0-10,.08v9.89c.08.06.12.12.16.12h4.56a.4.4,0,0,0,.16,0,1.21,1.21,0,0,0,.18-.17v-4.75c.09-.09.13-.15.18-.15Zm35.44-244c.07-.07.12-.1.14-.15a.48.48,0,0,0,0-.17V183.47a1.93,1.93,0,0,1,0-.34s.07-.08.16-.18h4.76c.08-.1.15-.14.15-.18V163a.48.48,0,0,0,0-.17.79.79,0,0,0-.13-.13h-9.9c-.06.07-.13.11-.13.15v45.38s.07.08.13.15Zm5.2,5.11h-4.71a.46.46,0,0,0-.17,0c-.05,0-.08.08-.18.19v9.2c0,.26.11.57-.18.77h-4.57s-.11,0-.16,0-.08.07-.14.13v4.83a2.53,2.53,0,0,0,1.18.11c.45,0,.9,0,1.35,0s.79,0,1.18,0,.89-.14,1.36.13v15a25.48,25.48,0,0,0,5,0Zm-10.11-81.32h4.54a1.93,1.93,0,0,1,.34,0s.08.08.14.14v4.94h-2.53c-.39,0-.79,0-1.18,0s-.89-.13-1.31.11v10c1.79.16,8.71.14,10.11,0,0-.16,0-.33,0-.49V127.65c0-.22.06-.46-.17-.61h-9.81s-.08.07-.15.13Zm30.47,310.09v9.62c0,.11,0,.23,0,.34s.07.08.14.15h4.82a2.16,2.16,0,0,0,.11-1.17c0-.45,0-.9,0-1.35s0-.8,0-1.19-.14-.89.12-1.35h9.92a26.55,26.55,0,0,0,0-5Zm-20.46-361c.06-.08.12-.12.12-.16V66.56a1.93,1.93,0,0,0,0-.34s-.07-.08-.16-.17H112.6c-.26,0-.57-.11-.77.17v4.57a.49.49,0,0,1,0,.17,1,1,0,0,1-.18.17h-4.79a26.16,26.16,0,0,0,0,5.09h5v2.55c0,.39,0,.79,0,1.18s-.14.89.1,1.31Zm-10,30.53h10s.08-.07.18-.16V101.9a.42.42,0,0,0,0-.15,1.36,1.36,0,0,0-.12-.12H112s-.08.07-.19.16c0,1.34,0,2.74,0,4.14,0,.27.11.57-.17.78h-4.73s-.08.07-.15.14Zm55.77,360.87a27.57,27.57,0,0,0,0-5.06H157.7a26.72,26.72,0,0,0,0,5.06Zm-50.69-10.14h4.87s.08-.07.12-.11a18.31,18.31,0,0,0-.1-5H112s-.08.07-.15.13Zm5-40.69c0-1.72,0-3.3,0-4.87,0,0-.07-.09-.11-.13a18.16,18.16,0,0,0-5,.11c0,1.58,0,3.16,0,4.73,0,0,.06.09.13.16ZM40.64,371H35.93a.43.43,0,0,0-.16,0c-.05,0-.09.07-.18.16,0,1.35,0,2.75,0,4.15,0,.26-.11.56.17.77h4.39a1.9,1.9,0,0,0,.34,0s.08-.07.15-.13Zm5.08-10.17H40.85s-.08.06-.12.1c-.14,3.09-.12,4,.11,5h4.73s.08-.07.15-.13ZM112,335.47a26.41,26.41,0,0,0,0,5h4.85a26.4,26.4,0,0,0,0-5Zm4.93-244H112s-.08.06-.12.1a18.13,18.13,0,0,0,.11,5h4.73s.08-.07.15-.13Zm-5-40.69V45.9s-.07-.09-.11-.13a18,18,0,0,0-5,.11v4.73s.07.09.14.16Z"/><path d="M55.92,426.94h4.9c.29.2.17.5.18.77,0,1.4,0,2.8,0,4.15-.1.09-.13.15-.18.16h-4.9Z"/></g></g></svg>