<svg xmlns="http://www.w3.org/2000/svg" viewBox="0 0 77.15 77.15"><title>Recurso 44MANDALA</title><g id="Capa_2" data-name="Capa 2"><g id="Capa_1-2" data-name="Capa 1"><path d="M39.55,46.16a1.38,1.38,0,0,0-1.95,0L20,63.76A1.38,1.38,0,0,0,21.63,66l14-7.48L37.2,75.9a1.38,1.38,0,0,0,2.75,0l1.57-17.42,14,7.48a1.38,1.38,0,0,0,1.63-2.2Z"/><path d="M75.9,37.2,58.48,35.63l7.48-14A1.38,1.38,0,0,0,63.76,20L46.16,37.6a1.39,1.39,0,0,0,0,2l17.6,17.6A1.38,1.38,0,0,0,66,55.53l-7.48-14L75.9,40A1.38,1.38,0,0,0,75.9,37.2Z"/><path d="M37.6,31a1.39,1.39,0,0,0,2,0l17.6-17.6a1.38,1.38,0,0,0-1.63-2.2l-14,7.49L40,1.26a1.38,1.38,0,0,0-2.75,0L35.63,18.68l-14-7.49A1.38,1.38,0,0,0,20,13.39Z"/><path d="M31,37.6,13.39,20a1.38,1.38,0,0,0-2.2,1.63l7.49,14L1.26,37.2a1.38,1.38,0,0,0,0,2.75l17.42,1.57-7.49,14a1.38,1.38,0,0,0,2.2,1.63L31,39.55A1.38,1.38,0,0,0,31,37.6Z"/></g></g></svg>