<svg xmlns="http://www.w3.org/2000/svg" viewBox="0 0 105.14 105.14"><defs><style>.cls-1{fill:#020100;}</style></defs><title>Recurso 12MANDALA</title><g id="Capa_2" data-name="Capa 2"><g id="Capa_1-2" data-name="Capa 1"><path class="cls-1" d="M36.65,65.84c13.61,3.62,16,10.79,15.87,15.84-.18,5.51,14.63,3.64,16.72,8.74,0,0,3.05,14.83.14,12.54C59.31,95,58.16,73.89,58.16,73.89A9.94,9.94,0,0,0,47.58,64C40.78,64.4,33.72,65.07,36.65,65.84Z"/><path class="cls-1" d="M45.42,72C59,68.36,64.71,73.35,67.09,77.81c2.59,4.86,14.48-4.17,18.84-.79,0,0,10,11.31,6.39,10.79C79.64,86,68.07,68.23,68.07,68.23a10,10,0,0,0-14.13-3.3C48.28,68.71,42.5,72.82,45.42,72Z"/><path class="cls-1" d="M56.1,73C66,63,73.47,64.5,77.76,67.17c4.68,2.92,10.46-10.85,15.92-10.11,0,0,14.37,4.78,10.93,6.15C92.72,68,73.83,58.39,73.83,58.39a9.94,9.94,0,0,0-13.89,4.2C56.92,68.69,54,75.14,56.1,73Z"/><path class="cls-1" d="M65.84,68.5c3.62-13.61,10.79-16,15.84-15.88,5.51.19,3.64-14.63,8.74-16.72,0,0,14.83-3,12.54-.13C95,45.83,73.89,47,73.89,47A9.94,9.94,0,0,0,64,57.56C64.4,64.36,65.07,71.42,65.84,68.5Z"/><path class="cls-1" d="M72,59.73c-3.67-13.6,1.32-19.3,5.78-21.67,4.86-2.59-4.17-14.49-.79-18.85,0,0,11.31-10,10.79-6.39C86,25.5,68.23,37.07,68.23,37.07a10,10,0,0,0-3.3,14.13C68.71,56.87,72.82,62.65,72,59.73Z"/><path class="cls-1" d="M73,49c-10-9.94-8.5-17.37-5.83-21.66,2.92-4.67-10.85-10.46-10.11-15.92,0,0,4.78-14.36,6.15-10.93C68,12.42,58.39,31.32,58.39,31.32a9.93,9.93,0,0,0,4.2,13.88C68.69,48.22,75.14,51.17,73,49Z"/><path class="cls-1" d="M68.5,39.3c-13.61-3.62-16-10.79-15.88-15.84C52.81,18,38,19.82,35.9,14.72c0,0-3-14.82-.13-12.54C45.83,10.1,47,31.26,47,31.26a9.94,9.94,0,0,0,10.58,9.92C64.36,40.74,71.42,40.08,68.5,39.3Z"/><path class="cls-1" d="M59.73,33.12c-13.6,3.67-19.3-1.33-21.67-5.79-2.59-4.86-14.49,4.17-18.85.79,0,0-10-11.31-6.39-10.78C25.5,19.16,37.07,36.91,37.07,36.91a10,10,0,0,0,14.13,3.3C56.87,36.43,62.65,32.33,59.73,33.12Z"/><path class="cls-1" d="M49,32.14c-9.94,10-17.37,8.51-21.66,5.83-4.67-2.91-10.46,10.85-15.92,10.11,0,0-14.36-4.77-10.93-6.15,11.89-4.76,30.79,4.83,30.79,4.83a9.94,9.94,0,0,0,13.88-4.2C48.22,36.45,51.17,30,49,32.14Z"/><path class="cls-1" d="M39.3,36.65c-3.62,13.61-10.79,16-15.84,15.87-5.51-.18-3.64,14.63-8.74,16.72,0,0-14.82,3.05-12.54.14C10.1,59.31,31.26,58.16,31.26,58.16a9.94,9.94,0,0,0,9.92-10.58C40.74,40.78,40.08,33.72,39.3,36.65Z"/><path class="cls-1" d="M33.12,45.42C36.79,59,31.79,64.71,27.33,67.09c-4.86,2.59,4.17,14.48.79,18.84,0,0-11.31,10-10.78,6.39,1.82-12.68,19.57-24.25,19.57-24.25a10,10,0,0,0,3.3-14.13C36.43,48.28,32.33,42.5,33.12,45.42Z"/><path class="cls-1" d="M32.14,56.1C42.12,66,40.65,73.47,38,77.76c-2.91,4.68,10.85,10.46,10.11,15.92,0,0-4.77,14.37-6.15,10.93-4.76-11.89,4.83-30.78,4.83-30.78a10,10,0,0,0-4.2-13.89C36.45,56.92,30,54,32.14,56.1Z"/></g></g></svg>