<svg xmlns="http://www.w3.org/2000/svg" viewBox="0 0 155.1 73.63"><title>Recurso 39MODERN ICON</title><g id="Capa_2" data-name="Capa 2"><g id="Capa_1-2" data-name="Capa 1"><circle cx="77.2" cy="36.29" r="2.24"/><polygon points="77.2 0 75.57 28.42 78.83 28.42 77.2 0"/><polygon points="77.2 73.63 78.83 45.21 75.57 45.21 77.2 73.63"/><polygon points="155.1 36.29 85.3 34.66 85.3 37.92 155.1 36.29"/><polygon points="0 36.29 69.81 37.92 69.81 34.66 0 36.29"/><polygon points="63.61 23.25 72.09 33.58 73.94 31.73 63.61 23.25"/><polygon points="90.46 50.1 81.98 39.77 80.13 41.62 90.46 50.1"/><polygon points="90.46 23.25 80.13 31.73 81.98 33.58 90.46 23.25"/><polygon points="63.61 50.1 73.94 41.62 72.09 39.77 63.61 50.1"/></g></g></svg>