<svg xmlns="http://www.w3.org/2000/svg" viewBox="0 0 132.69 133.3"><title>Recurso 112MANDALA</title><g id="Capa_2" data-name="Capa 2"><g id="Capa_1-2" data-name="Capa 1"><path d="M66.46,66.57H56.26a14.33,14.33,0,0,0-13.54,9.64L32.88,104.8a14.32,14.32,0,0,1-13.42,9.37h10.2a14.34,14.34,0,0,0,13.54-9.65L53,75.94A14.33,14.33,0,0,1,66.46,66.57Z"/><path d="M66.46,66.57l-9.17-4.46a14.32,14.32,0,0,0-16.4,2.75L19.54,86.26A14.31,14.31,0,0,1,3.37,88.81l9.18,4.46a14.32,14.32,0,0,0,16.39-2.75l21.35-21.4A14.31,14.31,0,0,1,66.46,66.57Z"/><path d="M66.46,66.57l-6.3-8a14.31,14.31,0,0,0-15.94-4.69l-28.56,9.9A14.3,14.3,0,0,1,0,59l6.3,8a14.31,14.31,0,0,0,15.94,4.69l28.56-9.9A14.3,14.3,0,0,1,66.46,66.57Z"/><path d="M66.46,66.57l-2.15-10A14.32,14.32,0,0,0,52,45.4L22,41.81A14.31,14.31,0,0,1,10,30.66l2.15,10a14.34,14.34,0,0,0,12.29,11.2l30,3.58A14.31,14.31,0,0,1,66.46,66.57Z"/><path d="M66.46,66.57l2.43-9.91a14.33,14.33,0,0,0-6.15-15.44L37.32,24.86A14.32,14.32,0,0,1,31.41,9.59L29,19.5A14.32,14.32,0,0,0,35.13,35L60.56,51.3A14.32,14.32,0,0,1,66.46,66.57Z"/><path d="M66.46,66.57,73,58.72a14.34,14.34,0,0,0,1.23-16.58L58.5,16.32A14.31,14.31,0,0,1,59.87,0L53.35,7.85a14.34,14.34,0,0,0-1.23,16.58L67.83,50.25A14.31,14.31,0,0,1,66.46,66.57Z"/><path d="M66.46,66.57l9.3-4.21A14.32,14.32,0,0,0,84.11,48l-2.83-30.1A14.32,14.32,0,0,1,89.65,3.82L80.36,8A14.33,14.33,0,0,0,72,22.4l2.83,30.1A14.32,14.32,0,0,1,66.46,66.57Z"/><path d="M66.46,66.57l10.2.28a14.31,14.31,0,0,0,13.8-9.27l10.62-28.3a14.31,14.31,0,0,1,13.68-9L104.56,20a14.31,14.31,0,0,0-13.79,9.26L80.14,57.58A14.3,14.3,0,0,1,66.46,66.57Z"/><path d="M66.46,66.57l9.05,4.71A14.31,14.31,0,0,0,92,69l21.94-20.81a14.3,14.3,0,0,1,16.23-2.1l-9-4.72a14.34,14.34,0,0,0-16.46,2.3L82.7,64.47A14.32,14.32,0,0,1,66.46,66.57Z"/><path d="M66.46,66.57l6.08,8.2A14.3,14.3,0,0,0,88.35,79.9l28.82-9.11A14.31,14.31,0,0,1,132.69,76l-6.08-8.2a14.29,14.29,0,0,0-15.8-5.13L82,71.78A14.31,14.31,0,0,1,66.46,66.57Z"/><path d="M66.46,66.57l1.88,10a14.32,14.32,0,0,0,12,11.53l29.91,4.41A14.31,14.31,0,0,1,121.89,104L120,94a14.33,14.33,0,0,0-12-11.53L78.14,78.05A14.34,14.34,0,0,1,66.46,66.57Z"/><path d="M66.46,66.57l-2.7,9.84A14.33,14.33,0,0,0,69.48,92l25,17a14.31,14.31,0,0,1,5.48,15.42l2.7-9.84a14.32,14.32,0,0,0-5.72-15.6l-25-17A14.34,14.34,0,0,1,66.46,66.57Z"/><path d="M66.46,66.57l-6.73,7.67a14.32,14.32,0,0,0-1.68,16.53L73,117a14.34,14.34,0,0,1-1.82,16.28L78,125.63a14.31,14.31,0,0,0,1.68-16.54l-15-26.25A14.32,14.32,0,0,1,66.46,66.57Z"/><path d="M66.46,66.57,57,70.47a14.33,14.33,0,0,0-8.82,14.09L50,114.73a14.3,14.3,0,0,1-8.83,13.79l9.43-3.9a14.33,14.33,0,0,0,8.83-14.09L57.63,80.36A14.33,14.33,0,0,1,66.46,66.57Z"/></g></g></svg>