<svg xmlns="http://www.w3.org/2000/svg" viewBox="0 0 100.37 103.12"><title>Recurso 54ART</title><g id="Capa_2" data-name="Capa 2"><g id="Capa_1-2" data-name="Capa 1"><path d="M64.61,44H63.29l0,0V42.67c-.12-.08-.24,0-.35-.05h-.34c-.11,0-.23,0-.34,0a.66.66,0,0,1-.34,0V37.16a1.1,1.1,0,0,0-.44,0h-.9s0,0,0-.06c0-.89,0-1.79,0-2.69h1.28s0,0,.05,0l0,0V33.22c0-.08,0-.16,0-.22H60.48V31.72s0,0,0,0,0,0,0-.06H59.33c-.07,0-.16,0-.22.05V33H57.78c-.08-.06,0-.15,0-.23,0-.37,0-.74,0-1.1l-.06-.05h-1.3a1.57,1.57,0,0,0,0,.43V33h-2.7c-.09.12,0,.24,0,.35s0,.23,0,.34,0,.23,0,.35,0,.22,0,.33H50.9l0,0V33a1.23,1.23,0,0,0-.43,0h-.9s0,0,0-.06V30.3l0-.05h2.65l0,0V27.54s0,0,0,0H50.86V22.05c-.06-.08-.15-.05-.22-.05H49.53s0,0,0-.06,0,0,0-.05v-2.6a22.41,22.41,0,0,0-2.75,0v1.3a5.74,5.74,0,0,1-1.38,0V19.3l0-.05H42.65a1,1,0,0,0,0,.42v.92a.94.94,0,0,1-.4,0H38.54s0,0,0,.05v1.27l0,0H37.16l0,.06v5.4c-.06.08-.15.05-.22.05H35.78s0,0,0,.05v1.3a1.48,1.48,0,0,0,.42,0h.94V30.2c.12.09.24,0,.35.05h1v1.32s0,.05.06.05H41.2a.9.9,0,0,1,0,.43c0,.16,0,.32,0,.49V33l.06,0h6.77a6,6,0,0,1,0,1.36H33l0,0s0,0,0,0V33.05l0,0h1.28s0,0,0-.06V31.66a1,1,0,0,0-.42,0H33s0-.05,0-.06V30.3l0,0H34.3s0,0,.05,0V22a.08.08,0,0,0,0,0s0,0-.05,0H33c-.08-.06,0-.15,0-.23,0-.37,0-.74,0-1.1l-.06-.05H30.26a1.48,1.48,0,0,1,0-.42c0-.17,0-.33,0-.5v-.44H27.51a1.74,1.74,0,0,1,0-.45c0-.16,0-.33,0-.49v-.44H26.15s0,0,0,.05V19.2s0,0,0,0H17.91l-.05-.06V17.92l0,0h-4s0,0-.06,0V19.2l-.05.05H12.41c-.08-.06-.05-.15-.05-.22V17.91c-.57-.06-3.34-.07-6.84,0a1.18,1.18,0,0,0,0,.42c0,.16,0,.33,0,.49v.42l-.06,0H2.79l0-.05V17.93l-.05-.05H1.42s0,0,0-.06a.28.28,0,0,1,0-.09V11.05c.07-.08.15-.05.23-.05h1.1l.05-.06V9.67l0,0H.05l0,0V6.91c.1-.07.22,0,.33,0H1c.11,0,.22,0,.34,0v-4s0,0,.06,0H2.7a1,1,0,0,0,0-.43v-.9s0,0,.06,0H5.44l0,0a.06.06,0,0,1,0,0V2.69s0,0,0,.05H81.05s0,0,0,0a.09.09,0,0,1,0,0V4.07l0,0h1.29s0,0,0,0,0,0,0,0V1.37h1.33c.08.07,0,.15,0,.23V2.7l0,0h4A5.54,5.54,0,0,1,88,4.1a1,1,0,0,1-.38,0h-2.3a6,6,0,0,0,0,1.37h1.31c.08.14,0,.27,0,.4s0,.26,0,.39v6.09h1.32l0,.05a.33.33,0,0,1,0,.1v1.23H86.67s0,0-.06,0V15a.06.06,0,0,0,0,0,0,0,0,0,0,0,0H88l0,0V13.75h1.33c.06,0,0,.11,0,.17v2.41s0,.09,0,.13l0,0h-4c-.08.06,0,.15,0,.22v1.11l0,0H83.89a1.25,1.25,0,0,0,0,.43c0,.16,0,.33,0,.49v.42a.93.93,0,0,1-.36,0h-1l0,0a.07.07,0,0,0,0,.05v2.6l0,0H81.16a.23.23,0,0,1,0,.05v2.65l0,.06H79.79s-.05,0-.05.05a.07.07,0,0,0,0,.05v1.22c.06.09.15.05.23.05h2.48s0,0,0,.06v2.69H81.17s0,0-.06.05v1.24a.09.09,0,0,0,0,.05l0,0h1.3s0,0,0,0V28.87h1.38v2.7l0,.05h1.27s0,0,0,0v4.05a1.12,1.12,0,0,0,.44,0h.9s0,0,0,.06V38.5H85.29l-.06,0c0-.36,0-.73,0-1.11,0-.07,0-.16,0-.22H83.86V35.81s0,0,0-.06H82.53s0,0,0,0v1.3l.05,0h1.32v2.69s0,0,0,.06h.91a1,1,0,0,1,.42,0v2.65l0,0,0,0h1.27l.05,0v2.65s0,0,0,0h2.69v2.7l0,0h1.33V45.37h1.33c.08.06,0,.15,0,.23v2.48l0,0s0,0,0,0h1.22l0,0a.09.09,0,0,1,0,.05v2.6l0,0H94.8s0,0,0,.06a.06.06,0,0,1,0,0v9.48s0,0,0,.05H93.54s-.05,0-.06.06v1.27c-.06.08-.14,0-.22,0H89.4s0,0,0,.06v5.41a1.19,1.19,0,0,0,.42,0h.91s0,0,0,.06V68.7l0,0H89.42s0,0,0,0v1.3a.08.08,0,0,0,0,0h1.27c.08.06,0,.15,0,.23v1.1l.06,0h1.27a.08.08,0,0,1,0,0s0,0,0,0v4l0,.06h1.28l0,0v5.39s0,0,0,.06h1.28a.23.23,0,0,0,0,0v4c.06.09.15,0,.22,0,.38,0,.75,0,1.11,0,0,0,0,.05,0,.06s0,0,0,0v4a1.25,1.25,0,0,0,.43,0h.91s0,0,0,.06V90.7l0,0s0,0,0,0H96.29l-.05,0v1.3s0,0,0,0h1.28l0,0a.05.05,0,0,1,0,0v1.25s0,0,.06,0,0,0,0,0h1.23a5.91,5.91,0,0,1,0,1.37h-1.3l0,.06v1.27s0,0,0,0h1.28s0,0,0,.06v1.28a1.05,1.05,0,0,0,.43,0h.92c0,.57,0,3.58,0,5.46l0,0h-15a.19.19,0,0,0,0-.06v-2.61a.06.06,0,0,0,0,0,6,6,0,0,0-1.36,0v1.29l0,0s0,0,0,0H82.52a.53.53,0,0,1,0-.12c0-1.3,0-2.59,0-3.88,0,0,0-.06,0-.09l0,0h2.64l0,0a.07.07,0,0,0,0,0V94.91l-.06,0H83.9c-.08.11,0,.23,0,.34s0,.23,0,.34v.34c0,.11,0,.23,0,.34h-1.3a.1.1,0,0,1,0,0V92.12H83.8l.06,0V90.83a.06.06,0,0,0,0,0s0,0,0,0h-1.3l0,0v1.32H81.16l0-.05V88h1.32l0,0V86.66l0,0h-1.3s0,0,0,.05V88H79.79l-.06,0V83.87h1.32l.06,0V82.58a.06.06,0,0,0,0,0s0,0,0,0h-1.3l0,0v1.32H78.36v-5.5h1.32l0,0V77a.07.07,0,0,0,0,0H78.39l0,0v1.32H77L77,78.32V74.25H78.3s0,0,.06,0V73a.09.09,0,0,0,0,0l0,0H77a.09.09,0,0,0,0,.05c0,.44,0,.88,0,1.32H75.67s0,0-.06,0V70.12h1.32l0,0V68.79a.07.07,0,0,0,0,0h-1.3l0,0v1.32H74.29l-.06,0V66h1.32s0,0,.06,0V64.71a.09.09,0,0,0,0,0l0,0h-1.3a.09.09,0,0,0,0,.05c0,.44,0,.88,0,1.32H72.91c-.07,0,0-.12,0-.18V63.41s0-.09,0-.13,0,0,0,0h1.27a5.87,5.87,0,0,0,0-1.37h-4c-.09-.12,0-.24,0-.35s0-.23,0-.34v-.34c0-.11,0-.23,0-.35H68.78s0,0,0-.06a.28.28,0,0,1,0-.09v-5.3l0,0H67.4s0,0,0-.06V52.3s0,0,0,0h1.27s0,0,0,0v-1.3s0,0,0,0h-2.6s0,0,0,0,0,0-.06,0V49.54l0,0H64.66l0,0a.07.07,0,0,1,0-.05V46.86s0-.06,0-.09l0,0h1.27a5.51,5.51,0,0,0,0-1.36H64.66l0-.06V44h1.32l0,0a22.61,22.61,0,0,0,0-2.71h-1.3s0,0,0,.05ZM60.49,15.09l0,0h4l0,0V14c0-.07,0-.16,0-.22H63.29s0,0-.06-.05V12.42l0,0H61.91l0,0v1.28c-.12.07-.24,0-.35,0h-.68c-.11,0-.23,0-.34,0ZM6.87,5.46s0,0,0,0h4l0,0V4.16s0,0-.05,0h-4l0,0Zm64.61,9.66V13.9a.33.33,0,0,0,0-.1s0,0,0,0h-4a.28.28,0,0,0-.12,0V15s0,0,0,0l0,0ZM70.1,23.37H66l-.06.05c0,.36,0,.73,0,1.11,0,.07,0,.16.05.22h4l0,0Zm-1.37,2.79a25,25,0,0,0-2.74,0v1.31c.48,0,2.3,0,2.74,0ZM93.45,55c0-.47,0-2.3,0-2.73H92.14c0,.47,0,2.29,0,2.73ZM53.61,27.51v2.68s0,0,0,.06h1.25l0,0,0,0c0-.88,0-1.77,0-2.65,0,0,0,0,0,0ZM79.7,11c0-.48,0-2.3,0-2.73H78.39c0,.48,0,2.3,0,2.73ZM26.12,15.12h2.69l.05,0V14c0-.07,0-.16-.05-.22H26.16s0,0,0,0ZM57.73,22H55s0,0,0,.05c0,.35,0,.73,0,1.1,0,.08,0,.17,0,.22h2.64s0,0,0,0ZM67.36,5.49V4.18s0,0,0-.06h-1.1c-.08,0-.17,0-.23,0V5.35a.34.34,0,0,0,0,.1l0,0Zm2.75,0V4.18s0,0-.06-.06H69c-.08,0-.17,0-.23,0V5.4a.07.07,0,0,0,0,0l0,0ZM20.61,9.62V8.4a.34.34,0,0,0,0-.1s0,0-.05-.05h-1.1c-.08,0-.16,0-.22.05V9.48a.27.27,0,0,0,0,.09s0,0,0,0Zm37.13,5.5h1.32l0,0V13.83s0,0,0-.05l0,0H57.79l0,0Zm22,4.14v1.21a.31.31,0,0,0,0,.1s0,0,0,.05h1.11c.07,0,.16,0,.22-.05V19.3l0,0Zm-9.57,6.86s0,0,0,0c0,.43,0,.87,0,1.3l0,0h1.27l0,0v-1.3l0,0ZM92.07,50.86l0,0V49.55a.1.1,0,0,0,0,0H90.77l0,0v1.27s0,0,0,0ZM71.48,4.13c0,.47,0,.89,0,1.32l0,0h1.25l0,0s0,0,0,0V4.18l0,0Z"/><path d="M86.61,38.5H88v2.75H86.67s0,0-.06,0Z"/><path d="M89.36,42.62h1.37v2.75H89.36Z"/><path d="M82.48,1.37H81.17s0,0,0,0V0l0,0h1.29l0,.06Z"/><path d="M60.48,34.37H59.17l0,0,0,0V33h1.37Z"/><path d="M88,41.25H89.3l0,0s0,0,0,0v1.31H88.05l0,0,0,0Z"/><path d="M50.86,27.5v1.32l0,0h-1.3l0,0V27.54l0,0Z"/></g></g></svg>