<svg xmlns="http://www.w3.org/2000/svg" viewBox="0 0 104.38 104.38"><defs><style>.cls-1{fill:#020100;}</style></defs><title>Recurso 1MANDALA</title><g id="Capa_2" data-name="Capa 2"><g id="Capa_1-2" data-name="Capa 1"><polygon class="cls-1" points="57.31 86.83 57.31 74.72 57.31 62.51 47.6 62.51 47.6 96.54 57.31 96.54 57.31 86.83"/><rect class="cls-1" x="67.03" y="86.83" width="14.61" height="9.72"/><polygon class="cls-1" points="80.31 73.06 71.75 64.5 63.11 55.86 56.24 62.73 80.31 86.8 87.18 79.93 80.31 73.06"/><rect class="cls-1" x="88.47" y="59.6" width="14.61" height="9.72" transform="translate(-17.53 86.6) rotate(-45)"/><polygon class="cls-1" points="86.83 47.06 74.72 47.06 62.51 47.06 62.51 56.78 96.54 56.78 96.54 47.06 86.83 47.06"/><rect class="cls-1" x="86.83" y="22.74" width="9.72" height="14.61"/><polygon class="cls-1" points="73.06 24.07 64.5 32.63 55.86 41.27 62.73 48.14 86.8 24.07 79.93 17.2 73.06 24.07"/><rect class="cls-1" x="59.6" y="1.3" width="9.72" height="14.61" transform="translate(12.8 48.1) rotate(-45)"/><polygon class="cls-1" points="47.06 17.55 47.06 29.65 47.06 41.87 56.78 41.87 56.78 7.83 47.06 7.83 47.06 17.55"/><rect class="cls-1" x="22.74" y="7.83" width="14.61" height="9.72"/><polygon class="cls-1" points="24.07 31.32 32.63 39.88 41.27 48.52 48.14 41.65 24.07 17.58 17.2 24.45 24.07 31.32"/><rect class="cls-1" x="1.3" y="35.06" width="14.61" height="9.72" transform="translate(-25.71 17.77) rotate(-45)"/><polygon class="cls-1" points="17.55 57.31 29.65 57.31 41.87 57.31 41.87 47.6 7.83 47.6 7.83 57.31 17.55 57.31"/><rect class="cls-1" x="7.83" y="67.03" width="9.72" height="14.61"/><polygon class="cls-1" points="31.32 80.31 39.88 71.75 48.52 63.11 41.65 56.24 17.58 80.31 24.45 87.18 31.32 80.31"/><rect class="cls-1" x="35.06" y="88.47" width="9.72" height="14.61" transform="translate(-56.03 56.28) rotate(-45)"/></g></g></svg>