<svg xmlns="http://www.w3.org/2000/svg" viewBox="0 0 230.43 38.55"><title>Recurso 32ART</title><g id="Capa_2" data-name="Capa 2"><g id="Capa_1-2" data-name="Capa 1"><path d="M171.85,30.55h-2.6c-.16.44,0,.92-.09,1.36,0,0-.06.06-.09.07h-2.48c-.15.38,0,.79-.1,1.22H124c-.19-.17-.07-.38-.09-.57a5.56,5.56,0,0,1,0-.57L123.8,32h-5.1c-.2-.23-.09-.47-.1-.7a1.44,1.44,0,0,1,.07-.73h2.49c.17-.21.09-.42.09-.62a.87.87,0,0,0-.08-.62h-2.49a1.3,1.3,0,0,1-.08-.72c0-.21,0-.41,0-.64a2.23,2.23,0,0,0-.89-.07c-.27,0-.55,0-.82,0H116a1.33,1.33,0,0,1-.07-.64c0-.17,0-.34,0-.49s-.06-.07-.09-.08a.13.13,0,0,0-.09,0h-2.36s0,0-.11.08v1.05c-.25.17-.49.08-.72.1H112c-.18-.12-.1-.31-.11-.47s0-.46,0-.66-.09-.1-.12-.1h-1l-.08.08a.29.29,0,0,0,0,.09v2.44c.41.1.78,0,1.15.07.15.18,0,.39.08.58s-.06.4.08.63h2.49c.16.25.07.49.09.72s0,.41,0,.66a12.4,12.4,0,0,0,1.36.08s.07.07.07.09c0,.34,0,.68,0,1-.21.19-.46.07-.69.09s-.46,0-.73,0v1.34c-.24.18-.49.08-.72.09s-.4,0-.61,0h-1.34v1.12c-.06.06-.08.1-.11.1h-3.68c-.21.2-.08.45-.1.67s0,.47,0,.67-.1.09-.12.09H69.34c-.17-.13-.09-.31-.1-.47s0-.6,0-.87c-.07,0-.09-.08-.12-.09a.34.34,0,0,0-.1,0H65.43c-.2-.38,0-.8-.13-1.19a2.71,2.71,0,0,0-.8,0H62.78c-.18-.23-.07-.48-.1-.7a1.7,1.7,0,0,0-.07-.73H61.36c-.06-.06-.1-.08-.11-.11a1.33,1.33,0,0,1,0-.2V30.55h2.61c.14-.42,0-.84.13-1.24h1.27s.08-.08.08-.11c0-.43,0-.87,0-1.31h1.22c0,.24,0,.48,0,.71a1.3,1.3,0,0,0,.08.72c.21,0,.45,0,.68,0s.48.11.67-.1V27.89H93.09s0-.05.11-.1v-1c.06-.06.09-.1.11-.1h2.46s0,0,.11.1v1.05a1.43,1.43,0,0,0,.73.06c.22,0,.47.11.71-.11V26.66c.24,0,.44,0,.63,0s.41-.09.58.1c0,.17,0,.34,0,.51s-.07.41.09.62h9.25c.14.26,0,.5.08.73s-.09.47.09.7h1s0,0,.13-.08V26.83a.16.16,0,0,0,0-.09.16.16,0,0,0-.07-.07,11.16,11.16,0,0,1-1.13-.05c0-.26,0-.49,0-.72s-.12-.48.1-.67a4.47,4.47,0,0,0,.52,0c.19,0,.4.07.61-.09V17.31a1.44,1.44,0,0,1,.73-.07c.23,0,.48-.09.7.1,0,.19,0,.39,0,.59a1.66,1.66,0,0,0,0,.7c.38.14.81-.08,1.18.13v1s0,.05.1.11h1.26a65.29,65.29,0,0,0,0-6.57h-1.35c0-.26,0-.49,0-.73s-.1-.47.09-.68c.43,0,.87,0,1.29,0,.14-.43-.07-.85.14-1.22h1.14v1.11s0,.06.08.11c.43.07.9-.05,1.37.06v1.3c0,.05.08.08.1.08h1.11V17s0,.07,0,.1,0,.05.11.11h1.26a2.16,2.16,0,0,1,0,.83c0,.27,0,.55,0,.82v.82c0,.27,0,.55,0,.82s-.09.54.08.8c.34,0,.68,0,1,0,0,0,.06,0,.09,0a39,39,0,0,0,0-5.3H118.6c0-.74,0-1.45,0-2.16,0-.16.07-.35-.1-.47h-1.33V10.82s0-.06,0-.08,0-.05-.08-.05H114.5c0-.23,0-.47,0-.71s.07-.47-.09-.73h-1.14c0-.22,0-.42,0-.62s.08-.41-.1-.6h-1.71a2.28,2.28,0,0,1-.85-.06c0-.22,0-.46,0-.69s.1-.47-.09-.68c-11.63-.09-38.41-.06-39.85.06,0,.23,0,.46,0,.69s.11.48-.1.68H65.45s0,0-.08.07V9.17s.07.08.09.08h5.12l.07.07v1.35H68.9a3.22,3.22,0,0,0-.92.05v1.17H65.81c-.16,0-.34-.07-.46.1s0,.41,0,.61-.08.47.09.72H66.5c.13.23,0,.44.08.63s-.08.41.08.58c.43,0,.87,0,1.35,0,0,.25,0,.49,0,.72s-.11.47.1.68h1s.05,0,.09.08v6.43c-.4.13-.81,0-1.19.1v2.54c.22.11.42,0,.62.07s.41-.09.59.1c0,.39,0,.8,0,1.21,0,0,0,.05,0,.08-.38.13-.8-.08-1.17.12v1.15H66.57c0-.2,0-.41,0-.61s.06-.4-.08-.62a5.61,5.61,0,0,0-.58,0c-.19,0-.41-.1-.56.11v1.12H62.68c0,.28,0,.51,0,.74s.09.46-.1.7H61.34c-.05.06-.09.08-.09.11v1.11H57.47c-.18.12-.1.31-.11.47s0,.6,0,.89a1.06,1.06,0,0,1-.22.07H16c-.05-.48,0-.92,0-1.35a.46.46,0,0,0-.07-.07l-.09,0h-5s-.06,0-.09-.05-.05-.05-.05-.08v-1s.06-.07.09-.08a.18.18,0,0,1,.1,0h3.78s0,0,.1-.07V28c-.25-.14-.52,0-.79-.06s-.54,0-.81,0H10.66V26.76c-.06-.05-.08-.09-.11-.1a1.33,1.33,0,0,0-.2,0H6.77c0-.24,0-.48,0-.71s.07-.47-.08-.72c-.22,0-.46,0-.69,0s-.47-.12-.67.1v1.33H1.55c-.17-.13-.1-.31-.1-.47s0-.6,0-.94H.14c-.21-.2-.12-.42-.12-.61A1.08,1.08,0,0,1,.08,24H1.33c.06-.06.09-.08.1-.11s0-.06,0-.1c0-1.67,0-3.34,0-5,0,0,0-.05.09-.11h1c.15-.26.06-.5.08-.73s0-.41,0-.61c.2-.21.45-.08.68-.1s.46,0,.73,0V16.1c.41-.2.83,0,1.23-.14V10.74c-.37-.14-.79,0-1.19-.1V9.33s.07-.07.1-.08H7.91c.21-.37,0-.79.14-1.21.42,0,.86,0,1.3,0,.17-.21.05-.46.08-.68A2.08,2.08,0,0,1,9.5,6.6h1.06c.17-.22.08-.43.1-.62s0-.34,0-.51.31-.11.46-.11H55.84c.17.23.06.47.08.7s0,.41,0,.61V8h1.36s.07-.06.07-.09,0-.2,0-.3V5.45c.37-.21.79,0,1.21-.15,0-.42,0-.86,0-1.29l.08-.07h2.45s0,0,.11-.08v-1c.25-.17.49-.07.72-.09s.41,0,.62,0,.1-.31.1-.47,0-.6,0-.87c.07-.05.09-.09.12-.09h2.46c.2-.37,0-.8.13-1.17C66.6,0,96.13,0,111.75,0c.21.37,0,.79.13,1.16a.21.21,0,0,0,.08.06.4.4,0,0,0,.11,0h2.39c.11.46,0,.94.06,1.43h1.36c.14.41,0,.82.1,1.24h1.1a1.3,1.3,0,0,1,.08.72c0,.21,0,.41,0,.61.21.2.46.08.69.1h.71c.08.41,0,.78.06,1.16.37.17.79,0,1.2.12V7.93c.25.16.49.08.72.09h.72V9.13s0,0,.09.12h.55c.19,0,.4.08.57-.08V8.1s-.08-.08-.1-.08h-1.11V6.69c.09-.14.24-.1.37-.1h36.55l.29,0a1.45,1.45,0,0,1,.06.71c0,.2,0,.4,0,.6l.08.08.09,0h3.58s.06,0,.11.07c.07.34,0,.72,0,1.08.21.17.45.06.68.08h.73V8.11c.22-.15.42-.07.62-.09H165c.21-.2.08-.45.1-.68s0-.46,0-.72c.48-.07.91,0,1.35,0,.16-.17.06-.38.08-.57s-.05-.41.08-.63h1.06c.17-.25.07-.49.09-.72s0-.41,0-.62.31-.1.47-.1c.71,0,1.42,0,2.15,0a11.61,11.61,0,0,0,.06-1.17,2.35,2.35,0,0,1,.88-.06c.27,0,.54,0,.82,0h.92c.06-.48,0-.92,0-1.34a.36.36,0,0,1,.08-.09h45.05s.05,0,.11.08V2.59l.11.1h2.48c.2.36,0,.78.14,1.2h1.26c.22.24.09.49.12.71a2.39,2.39,0,0,0,.06.74h1.1c.16.41,0,.82.12,1.24H225c.15.25.06.49.08.72s0,.41,0,.61c.17.19.39.08.58.1a5.41,5.41,0,0,0,.57,0,1.23,1.23,0,0,1,.08.64c0,.17,0,.34,0,.49.23.19.47.07.7.1s.47-.06.73.07v2.5c.21.16.42.07.62.09h.51c.17.13.1.31.1.47,0,.71,0,1.42,0,2.17h1.31l.11.11a.29.29,0,0,1,0,.09q0,4.52,0,9a.73.73,0,0,1-.06.22h-1.25l-.11.11a.34.34,0,0,0,0,.1v3.48a.33.33,0,0,1,0,.1.51.51,0,0,1-.09.12h-1.05a1.3,1.3,0,0,0-.08.72c0,.2,0,.41,0,.66-.44.14-.92,0-1.36.08a1.18,1.18,0,0,0-.07.61c0,.17,0,.34,0,.49a.75.75,0,0,1-.09.09h-2.45s0,0-.11.09v2.47c-.22.17-.43.09-.62.1h-.52c-.17.13-.09.31-.1.47s0,.6,0,.87c-.07.06-.09.09-.12.1h-2.48c-.15.38,0,.79-.1,1.21h-2.52c-.19.25-.08.49-.11.72s.07.47-.08.73H205.12c-.15.22-.07.42-.09.62s0,.34,0,.51-.31.1-.47.1H175.82a1.31,1.31,0,0,1-.08-.63c0-.17,0-.34,0-.5a.59.59,0,0,1-.08-.08l-.1,0H172s-.06,0-.12-.08V36c-.25-.18-.49-.08-.72-.1s-.41,0-.61,0h-1.34V34.73a1.35,1.35,0,0,0-.73-.08h-.61c-.2-.21-.07-.46-.09-.69s0-.46,0-.69a2.49,2.49,0,0,1,.85-.05c.3,0,.61,0,.92,0h.82c.18-.39,0-.81.13-1.22h1.29c.16-.25.07-.49.09-.72s0-.48,0-.72H173s.05,0,.08-.05.05-.05.05-.08v-1.1h1.31s.05,0,.12-.09,0-.43,0-.65.09-.47-.08-.67h-1.28c0,.05-.07.07-.07.1v1.31H172l-.08.05s-.05.06-.05.08Zm45.26-2.66h-.71c-.23,0-.47.07-.7-.07V25.23c.25,0,.48,0,.71,0s.47.09.72-.1V22.6c.41-.1.83,0,1.21-.1V20.12a.34.34,0,0,1,0-.1s0-.05.1-.12h2.4a.16.16,0,0,0,.09,0,.46.46,0,0,0,.07-.07,4.34,4.34,0,0,0,0-.51c0-.2.07-.4-.09-.62h-1c-.05-.06-.09-.09-.09-.11V16.2a.18.18,0,0,0,0-.1l-.1-.11h-1.32c0-.26,0-.49,0-.73s.1-.47-.12-.71h-1.11V12.08a.24.24,0,0,1,0-.09l.08-.08h2.45s.05,0,.11.11v1.23c.06.05.09.08.11.08h2.45a.46.46,0,0,0,.07-.07V11.91c-.25,0-.48,0-.72,0s-.47.1-.71-.12V10.68c-.24,0-.44,0-.63,0s-.41.1-.57-.1c0-.2,0-.41,0-.61s.08-.47-.08-.72h-2.5c-.13-.23-.05-.43-.08-.63s.08-.4-.09-.6h-2.44s-.05,0-.13.09a5.22,5.22,0,0,1,0,.56c0,.19.09.4-.1.58h-.6a1.57,1.57,0,0,0-.73.08c0,.28,0,.59,0,.89s.07.34-.1.46h-2.56V8.33a1.33,1.33,0,0,0,0-.2s0-.05-.08-.09H174.55c-.12.4,0,.81-.11,1.22h-2.59c0,.27,0,.5,0,.73s.1.48-.09.68c-.43,0-.87,0-1.34,0,0,.23,0,.43,0,.63s-.1.41.1.57h2.56V15.8a.34.34,0,0,0,0,.1s0,0,.1.11h1.33a6.2,6.2,0,0,0,0,.62c0,.2-.08.41.1.62h1a.8.8,0,0,1,.08.12.33.33,0,0,1,0,.1V29.13a.34.34,0,0,0,0,.1s.05,0,.07.07h1.35c0-.25,0-.49,0-.72s-.1-.47.09-.69h32.92a.16.16,0,0,1,.09,0,.16.16,0,0,1,.07.07c0,.2,0,.41,0,.61s-.07.47.07.7l.28,0h6c.13,0,.27,0,.36-.1V27.89h1.11s.05,0,.12-.09a5.22,5.22,0,0,0,0-.56c0-.19.08-.4-.08-.56h-1.07c0,.05-.07.07-.07.1C217.11,27.15,217.11,27.52,217.11,27.89ZM55.9,22.56c-.25,0-.42,0-.59,0s-.4.07-.59-.07V21.38c.39-.14.81.05,1.18-.11a.65.65,0,0,0,0-.11V17.47a.34.34,0,0,1,0-.1s0-.06.07-.11c.43-.08.91,0,1.36-.07V12s0,0-.1-.12-.43,0-.67,0-.47-.12-.67.1c0,.21,0,.41,0,.61s.08.48-.09.73h-1c-.05.06-.08.08-.08.11,0,.79,0,1.57,0,2.36a.28.28,0,0,1,0,.09l-.09.1c-.42,0-.85,0-1.33,0v-.94c0-.27,0-.55,0-.82a2.18,2.18,0,0,0-.07-.88c-13.75-.06-37.37,0-38.39.06-.14.38.08.8-.13,1.17H14a1.3,1.3,0,0,0-.72.08V16c-.42.14-.83-.05-1.23.12,0,1.24,0,2.46,0,3.69,0,0,0,.05.05.09.37.14.8-.07,1.17.13v2.25a1.48,1.48,0,0,0,0,.21s0,.05.09.11h.87c.16,0,.34-.07.47.1s0,.41,0,.62-.08.47.09.71H38.67c.14.41-.05.83.11,1.2H54.64c.15-.4,0-.82.15-1.23H55.9Zm66.59,0c-.47.08-.84,0-1.21.07V24c.21,0,.41,0,.61,0s.4-.08.58.08c.06.36,0,.74,0,1.08,0,0,.08.06.1.06h19.85s.05.05.09.09v1.2s0,0,.05.08a.67.67,0,0,0,.19.05h18.31l.08-.08c0-.43,0-.86,0-1.34h.93c.28,0,.55,0,.82,0a2.06,2.06,0,0,0,.89-.07v-1s0-.05-.09-.11h-.88c-.16,0-.34.07-.46-.1s0-.41,0-.61-.08-.47.09-.72h1.26c0-.07.08-.09.08-.12V14.77a.31.31,0,0,0,0-.1s0-.05-.09-.09h-1.2s-.05,0-.13.08,0,.43,0,.66.11.48-.09.69h-2.45s0,0-.09-.07c-.1-.44.07-.92-.08-1.36H124.05s0,0-.08.05,0,0,0,.08v6.45a.15.15,0,0,1,0,.09s0,.05-.08.08h-.6a1.56,1.56,0,0,0-.73.07ZM223.75,16s-.08.07-.08.09v2.24a1.47,1.47,0,0,0,0,.21s.05,0,.09.08H225s.08-.06.08-.09V16.32a1.47,1.47,0,0,0,0-.21s0,0-.09-.08Zm-62.53-2.68a5.38,5.38,0,0,0,.59,0c.2,0,.4.07.62-.08V10.85a.24.24,0,0,0,0-.09l-.07-.08a4.3,4.3,0,0,0-.51,0c-.2,0-.41-.07-.6.07Z"/><path d="M6.77,26.66v1.12c-.19.22-.44.08-.67.1a5.17,5.17,0,0,1-.68,0c-.15-.22-.07-.42-.08-.62s0-.41,0-.61Z"/><path d="M105.26,9.25v1.36s-.07.07-.09.07H77.33c-.22-.19-.08-.44-.1-.67s0-.46,0-.66.1-.1.12-.1Z"/><path d="M71.9,9.27h4c.15.23.06.47.07.7s0,.41,0,.61-.31.1-.47.1H72c-.15-.24-.06-.48-.08-.71S71.9,9.56,71.9,9.27Z"/><path d="M210.35,10.71v1.1c-.09.14-.23.1-.36.1h-31.5c-.17-.17-.07-.39-.08-.58a1,1,0,0,1,.06-.61Z"/><path d="M173.08,11.91V10.8s0-.05.07-.09h1.28c.16.16.06.37.08.56a5,5,0,0,1,0,.55c-.07.06-.09.09-.12.09Z"/></g></g></svg>