<svg xmlns="http://www.w3.org/2000/svg" viewBox="0 0 133.95 133.95"><defs><style>.cls-1{fill:none;stroke:#000;stroke-miterlimit:10;stroke-width:1.52px;}</style></defs><title>Recurso 94MANDALA</title><g id="Capa_2" data-name="Capa 2"><g id="Capa_1-2" data-name="Capa 1"><path d="M61.29,61.53c0,1.66-16.55-20.16-30.65-10.79C13.09,62.4,0,49.39,0,47.72s13.72-3,30.64-3S61.29,59.86,61.29,61.53Z"/><path d="M59.1,67.14c1.18,1.18-25.95-2.55-29.3,14C25.64,101.84,7.18,101.89,6,100.71s7.57-11.83,19.53-23.8S57.92,66,59.1,67.14Z"/><path d="M61.53,72.66c1.66,0-20.16,16.55-10.79,30.64,11.66,17.56-1.35,30.65-3,30.65s-3-13.72-3-30.65S59.86,72.66,61.53,72.66Z"/><path d="M67.14,74.85c1.18-1.18-2.55,26,14,29.29,20.66,4.17,20.71,22.63,19.53,23.8s-11.83-7.56-23.8-19.53S66,76,67.14,74.85Z"/><path d="M72.66,72.42c0-1.67,16.55,20.15,30.64,10.79,17.56-11.67,30.65,1.35,30.65,3s-13.72,3-30.65,3S72.66,74.09,72.66,72.42Z"/><path d="M74.85,66.8c-1.18-1.18,26,2.55,29.29-14,4.17-20.66,22.63-20.71,23.8-19.53S120.38,45.07,108.41,57,76,68,74.85,66.8Z"/><path d="M72.42,61.29c-1.67,0,20.15-16.55,10.79-30.65C71.54,13.09,84.56,0,86.23,0s3,13.72,3,30.64S74.09,61.29,72.42,61.29Z"/><path d="M66.8,59.1c-1.18,1.18,2.55-25.95-14-29.3C32.1,25.64,32.05,7.18,33.23,6S45.07,13.57,57,25.53,68,57.92,66.8,59.1Z"/><circle class="cls-1" cx="66.97" cy="66.97" r="20.65"/></g></g></svg>