<svg xmlns="http://www.w3.org/2000/svg" viewBox="0 0 166.56 112.82"><title>Recurso 20ART</title><g id="Capa_2" data-name="Capa 2"><g id="Capa_1-2" data-name="Capa 1"><path d="M85.94,112.81v-5.17c-.13-.11-.19-.19-.24-.19-.23,0-.45,0-.67,0H32.45a63.85,63.85,0,0,1-.12-10.62.88.88,0,0,1,.17-.12.81.81,0,0,1,.22,0H37.4A75.78,75.78,0,0,0,37.48,86h-5a1.44,1.44,0,0,1-.23-.24.52.52,0,0,1,0-.22V59.57a.81.81,0,0,0,0-.22.92.92,0,0,0-.17-.21h-5c-.1.08-.19.13-.2.18a2.26,2.26,0,0,0,0,.45v4.47c-.28.36-.68.22-1,.22-2.83,0-5.67,0-8.5,0h-1c-.12.15-.18.2-.2.27a.81.81,0,0,0,0,.22v4.66a1,1,0,0,1-.19.18.49.49,0,0,1-.21,0q-2.24,0-4.47,0a1.66,1.66,0,0,1-.45-.13V59.23c.53-.32,1.14-.09,1.71-.13s1.19,0,1.79,0h1.81V48.57c.13-.12.18-.21.24-.22a3.23,3.23,0,0,1,.44,0h4.47a.85.85,0,0,0,.16-.17.34.34,0,0,0,.07-.19V43.18c.15-.12.2-.18.26-.2A.88.88,0,0,1,22,43H32.05c.36-.56.13-1.17.17-1.74s0-1.19,0-1.79a5.43,5.43,0,0,1,.11-1.82h5.07c.36-.62.13-1.22.17-1.8s0-1.19,0-1.78a4.69,4.69,0,0,1,.12-1.78H69.65c.08.08.17.13.18.19a3.23,3.23,0,0,1,0,.44v4.48c.27.36.67.22,1,.22h31c.11.14.19.19.2.25a3.38,3.38,0,0,1,0,.45v4.45c.07.07.11.14.17.17a.38.38,0,0,0,.21,0h15.43c.06,0,.12.07.22.12a6.16,6.16,0,0,1,.08,1.72c0,.52,0,1,0,1.57v1.73a1.08,1.08,0,0,0,.2.19.38.38,0,0,0,.21,0h10.07c.06,0,.11.08.25.18v4.95c.13.13.17.2.24.23a.53.53,0,0,0,.22,0h4.76a2.19,2.19,0,0,1,.16.57q0,12.85,0,25.73a1.86,1.86,0,0,1-.08.41c-.05,0-.1.13-.16.14a3.38,3.38,0,0,1-.45,0h-4.49c-.37.54-.14,1.14-.18,1.71s0,1.2,0,1.79v1.68c-.16.11-.22.19-.28.19h-4.87c-.09-.09-.16-.13-.19-.19a.49.49,0,0,1,0-.21q0-13.1,0-26.18c0-.06-.07-.12-.17-.25H113c-.37-.62-.14-1.23-.18-1.8s0-1.19,0-1.79a4.65,4.65,0,0,0-.11-1.77h-5.07c-.08.09-.17.14-.17.2,0,.44,0,.89,0,1.34V80.36c-.06,0-.1.11-.16.15a.37.37,0,0,1-.2.07h-4.81c-.12.15-.2.21-.2.26V96.47a1,1,0,0,0,.18.18.49.49,0,0,0,.21,0h10.06c.06,0,.12.07.24.14v10.43c-.05,0-.09.11-.15.14a.51.51,0,0,1-.22,0H102.33c-.06,0-.12.08-.25.19v4.93c-.13.13-.18.23-.24.23a2.24,2.24,0,0,1-.45,0ZM91.32,86H86.63a2.26,2.26,0,0,1-.45,0c-.06,0-.1-.1-.24-.25v-5a4.51,4.51,0,0,0-1.81-.13,13.37,13.37,0,0,0-1.79,0c-.57,0-1.17-.19-1.79.18v5.06a5.18,5.18,0,0,1-1.82.11c-.59,0-1.19,0-1.79,0s-1.17-.19-1.73.17v4.7a.87.87,0,0,1,0,.23,1.62,1.62,0,0,1-.19.26H70.2a.36.36,0,0,0-.2.06.81.81,0,0,0-.16.16V96a3.38,3.38,0,0,0,0,.45c0,.06.1.11.15.16a1.85,1.85,0,0,0,.41.07q10.18,0,20.35,0a2.09,2.09,0,0,0,.57-.16V86h5.11c.06,0,.11-.08.27-.2,0-1.54,0-3.16,0-4.77a.49.49,0,0,0,0-.21.92.92,0,0,0-.14-.14h-5c-.08.1-.16.16-.16.21C91.32,82.55,91.32,84.25,91.32,86Zm5.39-37.6H86.63a3.38,3.38,0,0,1-.45,0c-.06,0-.1-.1-.23-.24v-5a86.05,86.05,0,0,0-10.69,0V53.61a5.46,5.46,0,0,0,1.79.1c.6,0,1.2,0,1.79,0s1.17-.19,1.74.16V58.6a.81.81,0,0,0,0,.22,1.29,1.29,0,0,0,.2.27h1.67c.6,0,1.2,0,1.79,0s1.18-.18,1.71.19v9.63c0,.23,0,.45,0,.67,0,.06.09.11.2.24h5.16v1.81c0,.6,0,1.2,0,1.79s-.18,1.17.13,1.73H96.7V73.37c0-.59,0-1.19,0-1.79s-.2-1.17.16-1.74h1.79c.52,0,1,0,1.56,0a5.41,5.41,0,0,0,1.85-.13V54.1a.46.46,0,0,0,0-.2,1,1,0,0,0-.18-.18H97.17a.55.55,0,0,1-.22,0c-.06,0-.11-.08-.24-.19Zm-37.62,43V81.26a3.23,3.23,0,0,0,0-.44c0-.06-.1-.11-.22-.24H43.34a.47.47,0,0,0-.2.06,1.21,1.21,0,0,0-.16.16V91.07c0,.06.09.11.21.25H48a.47.47,0,0,1,.2.06,1.21,1.21,0,0,1,.16.16v4.69a.81.81,0,0,0,0,.22,1.74,1.74,0,0,0,.22.24H64.1a.36.36,0,0,0,.2-.06.81.81,0,0,0,.16-.16c0-1.63,0-3.27,0-4.91,0,0-.09-.1-.21-.23Z"/><path d="M26.86,5.37v5.14c.2.31.52.23.8.23h41.4c.21,0,.42,0,.6,0s.16-.15.17-.21a3.2,3.2,0,0,0,0-.44V.22A1.36,1.36,0,0,1,70,.05a.49.49,0,0,1,.2,0h31.73a5.33,5.33,0,0,1,.12,1.84c0,.52,0,1.05,0,1.57V5.15a1.66,1.66,0,0,0,.19.19.49.49,0,0,0,.21,0h20.81c.06,0,.12.07.25.17v5c.14.13.18.2.24.23a.55.55,0,0,0,.22,0h15.22a.54.54,0,0,1,.22,0c.06,0,.11.09.24.21V15.9c.14.12.19.2.25.21a3.23,3.23,0,0,0,.44,0H161c.37.54.15,1.14.19,1.71s0,1.19,0,1.79v1.74a5.33,5.33,0,0,0,1.84.12c.52,0,1.05,0,1.57,0h1.79c.36.57.12,1.18.16,1.75s0,1.19,0,1.79v1.78H150.59a.83.83,0,0,1-.16-.17.54.54,0,0,1,0-.22v-4.7c-.27-.38-.67-.23-1-.23H113c-.12-.13-.2-.18-.21-.24a3.38,3.38,0,0,1,0-.45V16.34a1.36,1.36,0,0,0-.17-.17.46.46,0,0,0-.2-.05H26.89c-.07,1.77,0,3.47-.05,5.17a1.14,1.14,0,0,1-.16.15.5.5,0,0,1-.21,0H.19C.08,21.32,0,21.26,0,21.2V16.29c.58-.36,1.19-.12,1.76-.16s1.19,0,1.79,0H7.13c.59,0,1.19,0,1.79,0A4.91,4.91,0,0,0,10.73,16V11c.14-.14.18-.23.24-.24a3.38,3.38,0,0,1,.45,0h4.7c0,1.71,0,3.41,0,5.11,0,.06.08.11.2.27h4.77a.49.49,0,0,0,.21,0c.06,0,.1-.1.14-.14v-5.2H16.12c0-1.7,0-3.4,0-5.1,0-.06.08-.12.2-.27Z"/><path d="M26.86,5.37V0H42.79c.05,0,.12.09.15.15A.49.49,0,0,1,43,.4C43,2,43,3.64,43,5.19c-.17.11-.23.18-.29.18Z"/></g></g></svg>