<svg xmlns="http://www.w3.org/2000/svg" viewBox="0 0 125.91 123.62"><defs><style>.cls-1{fill:#211915;}</style></defs><title>Recurso 2GRAPHS</title><g id="Capa_2" data-name="Capa 2"><g id="Capa_1-2" data-name="Capa 1"><path class="cls-1" d="M125.67,62.18v-.83a.23.23,0,0,0-.16-.23c-.07,0-.09,0-.09-.24a.82.82,0,0,0-.11-.48,1.15,1.15,0,0,1-.11-.75,2.26,2.26,0,0,0,0-.73.24.24,0,0,0-.06-.11l-.14-.14v-.79a.28.28,0,0,0,0-.15l-.17-.23v-.33a.25.25,0,0,0-.06-.17l-.17-.18V55.76a.26.26,0,0,0-.07-.17l-.17-.19V54.17a.27.27,0,0,0,0-.12l-.45-.8v-.77a.27.27,0,0,0-.05-.15l-.19-.24V50.58a.28.28,0,0,0-.07-.17l-.13-.13v-.35a.24.24,0,0,0-.07-.16l-.17-.19V49a.28.28,0,0,0-.07-.17l-.17-.18V47.09a.25.25,0,0,0-.15-.22s-.07,0-.08-.24a.74.74,0,0,0-.2-.55l-.07-.66a.21.21,0,0,0-.07-.15l-.14-.15v-1.4a.2.2,0,0,0,0-.11l-.33-.69,0-.06-.3-.31v-.1a.7.7,0,0,0-.13-.5,2.2,2.2,0,0,1-.19-.3,5,5,0,0,0-.3-.45,2.07,2.07,0,0,1-.39-.77.4.4,0,0,0-.16-.21,1.05,1.05,0,0,1-.32-.52,2.26,2.26,0,0,0-.17-.35c-.09-.15-.16-.32-.24-.48s-.15-.33-.24-.48a1.92,1.92,0,0,1-.12-.25,1.75,1.75,0,0,0-.5-.7,2,2,0,0,0-.16-.36.68.68,0,0,1-.13-.46.26.26,0,0,0-.07-.22l-.6-.6a.89.89,0,0,0-.24-.73.78.78,0,0,0-.32-.54.94.94,0,0,1-.17-.18V34a.23.23,0,0,0-.07-.17l0,0a1,1,0,0,1-.39-.56.22.22,0,0,0-.14-.18s0,0,0-.13a.77.77,0,0,0-.21-.41s0-.08-.06-.13a.66.66,0,0,0-.33-.45c-.06,0-.08-.09-.12-.22a1.06,1.06,0,0,0-.1-.26,3.82,3.82,0,0,0-.31-.47L115,30.7l-.06-.1a1,1,0,0,1-.25-.75.22.22,0,0,0-.1-.26,1.44,1.44,0,0,1-.57-.86,1.34,1.34,0,0,0-.44-.58c-.17-.14-.26-.22-.28-.36a.75.75,0,0,0-.32-.5l-.09-.08a.53.53,0,0,1-.1-.2,1.08,1.08,0,0,0-.21-.39s0-.08-.06-.12a.94.94,0,0,0-.2-.34,1.62,1.62,0,0,0-.19-.18c-.19-.15-.25-.22-.24-.36a.26.26,0,0,0-.07-.19l-.62-.62v-.43a.25.25,0,0,0-.09-.19l-.54-.42-.13-.35a1.64,1.64,0,0,0-.47-.76,1.53,1.53,0,0,1-.38-.48,1.87,1.87,0,0,0-.34-.47,1.6,1.6,0,0,1-.29-.53c0-.1-.07-.19-.11-.27a1.44,1.44,0,0,0-.4-.47.94.94,0,0,1-.29-.33.29.29,0,0,0-.06-.25,1.08,1.08,0,0,1-.16-.28.61.61,0,0,0-.07-.14,1.3,1.3,0,0,0-.36-.41.79.79,0,0,1-.24-.25,2,2,0,0,0-.5-.73l-.07-.07-.58-.6-.24-.23a.24.24,0,0,0-.23-.07,3.84,3.84,0,0,1-.8-.72,5.74,5.74,0,0,0-.66-.64.3.3,0,0,0-.15-.05h-.1l-.23-.23a4.68,4.68,0,0,0-.39-.38,3.89,3.89,0,0,0-.39-.28,4.17,4.17,0,0,1-.4-.3,2.79,2.79,0,0,0-.51-.36l-.24-.16a4.31,4.31,0,0,1-.86-.85,1.7,1.7,0,0,0-.6-.46,1.58,1.58,0,0,1-.41-.29l-.21-.22a3.31,3.31,0,0,0-1.25-1,.63.63,0,0,1-.2-.2,1,1,0,0,0-.54-.39c-.15,0-.25-.14-.38-.31L97.13,10a3.46,3.46,0,0,0-.47-.34,2.61,2.61,0,0,1-.28-.17A4.21,4.21,0,0,1,96,9.1a2.77,2.77,0,0,0-.71-.61A2.37,2.37,0,0,1,94.65,8a3,3,0,0,0-.42-.39l-.08,0a1.1,1.1,0,0,1-.55-.38,1.64,1.64,0,0,0-.37-.32,5.5,5.5,0,0,0-.77-.38,2.07,2.07,0,0,1-.34-.15l-.1,0h-.24l-.18-.17a.27.27,0,0,0-.17-.06h-.82l-.19-.17a.24.24,0,0,0-.16-.07H88.51l-.21-.17c-.1-.09-.25-.06-.39,0a.82.82,0,0,1-.21,0A1.61,1.61,0,0,0,87,5.39l-.16,0,0,0a.27.27,0,0,0-.07-.08.25.25,0,0,0-.17-.08h-2L84.36,5a.24.24,0,0,0-.16-.07h-.36l-.19-.17a.26.26,0,0,0-.17-.07H82.9l-.2-.18a.27.27,0,0,0-.17-.06H80.79a.88.88,0,0,0-.58-.23A.79.79,0,0,1,80,4.14,1,1,0,0,0,79.6,4c-.2,0-.26,0-.32-.14a.26.26,0,0,0-.21-.11H77.53l-.16-.16a.28.28,0,0,0-.17-.07h-.58l-.79-.45a.24.24,0,0,0-.12,0h-1l-.14-.15a.29.29,0,0,0-.18-.07h-.77l-.88-.47-.12,0H71.9l-.14-.14a.23.23,0,0,0-.17-.07h-1l-.79-.45a.27.27,0,0,0-.12,0H69.1L69,1.5a.24.24,0,0,0-.18-.07H67.61a1.23,1.23,0,0,1-.34,0s-.06,0-.09-.06a.45.45,0,0,0-.38-.15c-.1,0-.19,0-.34-.11a1,1,0,0,0-.63-.17L65.67.79a.23.23,0,0,0-.16-.06h-1.3L64,.55a.23.23,0,0,0-.16-.06h-.34a.51.51,0,0,0-.21-.16A1.39,1.39,0,0,0,63,.26a.64.64,0,0,1-.4-.15.66.66,0,0,0-.76,0,.48.48,0,0,1-.27.1l-.15,0a5,5,0,0,0-.69.3l-.28.15h-1a.24.24,0,0,0-.23.22A.34.34,0,0,1,59,1a.6.6,0,0,0-.43.22h-.13a.7.7,0,0,0-.58.21h-.31a.74.74,0,0,1-.15,0,.65.65,0,0,0-.65.22s0,0-.14,0a.58.58,0,0,0-.46.12l-.12.11h-.35a.27.27,0,0,0-.17.06l-.18.18h-.83a.27.27,0,0,0-.17.06l-.17.16a1.92,1.92,0,0,0-1,.36L53,2.85h-.55a.24.24,0,0,0-.17.07l-.16.16h-.76a.27.27,0,0,0-.12,0l-.77.42H50.1a.23.23,0,0,0-.17.07l-.19.17h-.69l-.09,0-.25.1a2.65,2.65,0,0,0-.41.18l-.13.1a.14.14,0,0,1-.08.06.72.72,0,0,0-.67.23,4.47,4.47,0,0,1-.52,0,2.29,2.29,0,0,0-.47,0l-.06,0L45,5.17h-1.7a.3.3,0,0,0-.17.08L43,5.4h-.1a3.23,3.23,0,0,0-.44,0,.58.58,0,0,0-.34.18s-.06.06-.08.06a2.2,2.2,0,0,0-.44,0,.38.38,0,0,0-.29.07l-.16.16H39.34a.28.28,0,0,0-.17.07L39,6.1h-.35a3.07,3.07,0,0,0-.53,0,.31.31,0,0,0-.13.06l-.15.15-.61,0a.23.23,0,0,0-.16.06l-.19.17H35.6a.22.22,0,0,0-.17.07l-.15.14H34a.25.25,0,0,0-.17.08L33.65,7l-.64,0a.26.26,0,0,0-.16.07l-.13.14h-.48a3.75,3.75,0,0,0-.67,0,.29.29,0,0,0-.12.07l-.14.14H29.74a.24.24,0,0,0-.23.21l-.1,0a.7.7,0,0,0-.37.16L28.93,8c-.14.15-.22.23-.36.23a.22.22,0,0,0-.21.12,1.83,1.83,0,0,0-.11.26c0,.13-.06.18-.09.19a2.57,2.57,0,0,0-1,.76l-.2.21c-.61.6-1.21,1.2-1.81,1.81l-.75.75a.24.24,0,0,0-.07.12l0,.18-.29.1a.24.24,0,0,0-.16.23v.17a1.09,1.09,0,0,1-.48.28.69.69,0,0,0-.41.49l-.05.13h-.11a.33.33,0,0,0-.13,0,1.23,1.23,0,0,0-.48.67l-.28.09a.26.26,0,0,0-.17.23v.16l-1.84,1.84H19.7a.25.25,0,0,0-.23.17l-.11.34-.88.87a.74.74,0,0,0-.68.53,1.09,1.09,0,0,1-.37.52.65.65,0,0,0-.17.36c0,.08,0,.11-.05.13a.76.76,0,0,0-.21.35c0,.1-.06.15-.1.18a.76.76,0,0,0-.35.54.67.67,0,0,0-.22.58.57.57,0,0,1,0,.14l-.41.41a.28.28,0,0,0,0,.29l0,.05a.56.56,0,0,0-.23.45l0,.05a1.36,1.36,0,0,0-.43.7,1,1,0,0,1-.14.21.93.93,0,0,0-.24.46c0,.15-.11.23-.25.37a1.38,1.38,0,0,0-.22.26.24.24,0,0,0,0,.14v.35l-.08.08a1.14,1.14,0,0,0-.41.64,1.73,1.73,0,0,0-.31.58,1.31,1.31,0,0,1-.27.48,1.57,1.57,0,0,0-.42.67,1.33,1.33,0,0,1-.26.47.29.29,0,0,0-.07.16c0,.16-.1.26-.27.42l-.17.16a.25.25,0,0,0-.06.17v.34l-.08.08a1.14,1.14,0,0,0-.36.45l-.06.15a2.12,2.12,0,0,1-.41.72,2.29,2.29,0,0,0-.46.77,3.49,3.49,0,0,1-.15.34,4.13,4.13,0,0,1-.25.38c-.08.11-.17.23-.24.34a7.37,7.37,0,0,0-.44.9l0,0,.17.18h0l-.19-.14h0a2.25,2.25,0,0,0-.55,1,.55.55,0,0,1-.19.23.87.87,0,0,0-.34.59,1.86,1.86,0,0,0-.28.43,1.6,1.6,0,0,1-.2.34,1.41,1.41,0,0,0-.42,1.2l-.62.62a.24.24,0,0,0-.07.16v.18a1.06,1.06,0,0,1-.2.26.77.77,0,0,0-.27.51A1.51,1.51,0,0,0,6,39.7a1.42,1.42,0,0,1-.22.34,2.08,2.08,0,0,0-.43.71L5.26,41l-.08.09a.45.45,0,0,1-.07.07.61.61,0,0,0-.23.39,1.5,1.5,0,0,1-.12.27,1.09,1.09,0,0,0-.08.15,2,2,0,0,0-.1.21,2.4,2.4,0,0,1-.23.42,1.49,1.49,0,0,1-.12.14,1.11,1.11,0,0,0-.31.52.63.63,0,0,0-.19.37.55.55,0,0,1,0,.12,1.09,1.09,0,0,0-.43.57.53.53,0,0,1-.08.17l-.09.19A1.26,1.26,0,0,1,3,45a1.75,1.75,0,0,1-.23.24l-.1.09a.33.33,0,0,0-.07.16c0,.36,0,.36-.18.57a.25.25,0,0,0-.05.15v1.75l-.17.19a.23.23,0,0,0-.07.17v.59l-.17.19a.23.23,0,0,0-.07.17v1.05l-.18.21a.23.23,0,0,0-.06.16v2.44l-.15.15a.28.28,0,0,0-.07.17v1.06l-.21.27a.3.3,0,0,0,0,.15v.55L1,55.58a.24.24,0,0,0-.07.17v2.7h0l-.16.15a.28.28,0,0,0-.07.17v1.07L.5,60a.27.27,0,0,0-.06.17v.58l-.14.15a.21.21,0,0,0-.08.17v2.47l-.15.15A.28.28,0,0,0,0,63.9v2.15a.28.28,0,0,0,.07.17l.14.14,0,.75a.43.43,0,0,0,0,.11l.67,1.31v1a.23.23,0,0,0,.15.22c.05,0,.07,0,.07.22a.69.69,0,0,0,.21.54.36.36,0,0,1,0,.19.71.71,0,0,0,.22.56v1a.23.23,0,0,0,.06.16l.18.2V73a.27.27,0,0,0,0,.12l.45.77v.8a.25.25,0,0,0,.06.16l.16.18a1.08,1.08,0,0,0,.14.79.93.93,0,0,1,.12.42.54.54,0,0,0,.2.44l0,0a1,1,0,0,1,0,.16.78.78,0,0,0,.11.6l.11.1v.78a.27.27,0,0,0,0,.12l.45.78v.57A.22.22,0,0,0,3.8,80l.14.15v.73A.2.2,0,0,0,4,81l.46.87a.4.4,0,0,1,0,.19.69.69,0,0,0,.12.57l.1.1v1.06a.23.23,0,0,0,.06.16l.18.19v.22a.26.26,0,0,0,.1.2l.36.26v.12a.79.79,0,0,0,.17.54,1.61,1.61,0,0,1,.2.37,2.1,2.1,0,0,0,.13.26c.06.11.12.23.17.34s.14.3.22.44a1.73,1.73,0,0,1,.14.31c.06.13.11.26.18.38a1.75,1.75,0,0,1,.11.24,1.58,1.58,0,0,0,.28.48.72.72,0,0,0,.19.42c.07.08.09.12.09.15a.23.23,0,0,0,.1.25c.06,0,.09.12.13.25a1.1,1.1,0,0,0,.22.39.69.69,0,0,0,.19.43c.06.09.1.14.1.19a.88.88,0,0,0,.24.47,1.08,1.08,0,0,1,.13.2,1,1,0,0,0,.2.44,1.18,1.18,0,0,1,.1.19l0,.06a1.6,1.6,0,0,0,.37.72s.05.07.05.2a.63.63,0,0,0,.18.53.31.31,0,0,1,.06.16.8.8,0,0,0,.32.44c.14.12.16.15.16.22a.36.36,0,0,0,.11.29l.18.18.59.59s0,.07,0,.07a.26.26,0,0,0-.17.23V96a.45.45,0,0,0,0,.11l.27.64,0,.07,1,1,0,.09a1,1,0,0,0,.17.34,7.37,7.37,0,0,0,.54.57,4.62,4.62,0,0,1,.86,1,2.3,2.3,0,0,0,.54.62,2.08,2.08,0,0,1,.45.5,3.42,3.42,0,0,0,.66.79,4.12,4.12,0,0,1,.41.43l.1.13,0,.15a.17.17,0,0,0,.07.14l2.86,2.86,11.17,11.19L30,117a2.21,2.21,0,0,1,.68.88.61.61,0,0,0,.46.4.34.34,0,0,1,.24.1.82.82,0,0,0,.36.2.54.54,0,0,1,.17.07,1.08,1.08,0,0,0,.44.14c.16,0,.26,0,.32.12a.33.33,0,0,0,.34.08l.29.12.28.12.09,0h1.37l.14.14a.28.28,0,0,0,.17.07H36l.18.17a.23.23,0,0,0,.17.07h.36l.19.18a.27.27,0,0,0,.17.06h1.28l.2.17c.08.07.22,0,.33,0a1.12,1.12,0,0,1,.26,0l.32.12a1.82,1.82,0,0,0,.57.17h0l.12.12a.28.28,0,0,0,.17.07h.84l.14.14a.21.21,0,0,0,.17.07h1.06l.19.18a.23.23,0,0,0,.16.06h.36l.2.18a.23.23,0,0,0,.16.06h.58l.15.15a.26.26,0,0,0,.17.07h1.3l.15.14a.19.19,0,0,0,.14.07l.43,0,.22.16a.22.22,0,0,0,.12,0h.31a.82.82,0,0,1,.29,0l.14.14a.24.24,0,0,0,.18.07h1l.78.45a.27.27,0,0,0,.12,0h2.41l.14.15a.28.28,0,0,0,.17.07h3.87l.18.18a.28.28,0,0,0,.17.07h1.77l.16.15a.21.21,0,0,0,.17.08H59q.41,0,.84,0l.15.15a.25.25,0,0,0,.18.08h5.37a.24.24,0,0,0,.16-.07l.19-.17h.35a.23.23,0,0,0,.16-.06l.19-.17h.83a.21.21,0,0,0,.17-.07l.15-.15H70a.23.23,0,0,0,.17-.07l.17-.17h.57a.24.24,0,0,0,.14-.05l.25-.18h.18a1,1,0,0,0,.57-.09l0,0,.1-.1h2.23a.23.23,0,0,0,.16-.06l.19-.18h.82a.27.27,0,0,0,.17-.06l.2-.18h.58a.29.29,0,0,0,.18-.07l.14-.15h2a.3.3,0,0,0,.15,0l.27-.21h1a.2.2,0,0,0,.11,0l1.28-.65h.49a.17.17,0,0,0,.12,0l.25-.16a2.08,2.08,0,0,1,.41-.22,1.14,1.14,0,0,1,.25-.06,1.94,1.94,0,0,0,.64-.24.57.57,0,0,1,.22,0h.2a.43.43,0,0,0,.16,0l.73-.42h.33a.27.27,0,0,0,.17-.06l.19-.18h.51l.11,0,1.24-.65.79,0a.22.22,0,0,0,.15-.06,2.91,2.91,0,0,1,.55-.31,2.91,2.91,0,0,0,.62-.34h.74a.27.27,0,0,0,.12,0l1.27-.66h.77a.25.25,0,0,0,.16-.06l.19-.17h0a.53.53,0,0,0,.5-.1.71.71,0,0,1,.26-.14,1,1,0,0,0,.43-.24h.49l.11,0,.66-.34a.23.23,0,0,0,.13-.21v-.14l.19-.18H96l.13.13a.23.23,0,0,0,.17.07h.49a.22.22,0,0,0,.19-.09,4.79,4.79,0,0,1,.5-.51,3.07,3.07,0,0,0,.9-1.13l1.69-1.69a.41.41,0,0,0,.07-.11l0-.2.27-.09a.25.25,0,0,0,.16-.22.48.48,0,0,0,0-.12v0c.36-.38.72-.75,1.09-1.11l.83-.84.33-.32a.23.23,0,0,0,.06-.12,1.5,1.5,0,0,1,.58-.76,4,4,0,0,0,.36-.35c.25-.28.53-.55.78-.78l.29-.28a.47.47,0,0,0,.06-.09,1.08,1.08,0,0,0,.06-.2.87.87,0,0,1,.05-.12c.19-.21.39-.4.58-.6l.48-.47c.2-.19.39-.39.6-.61a3.52,3.52,0,0,0,.71-.92,1.84,1.84,0,0,1,.47-.51,3.58,3.58,0,0,0,.28-.26l.83-.82.1-.09a.71.71,0,0,0,.28-.37,1,1,0,0,1,.43-.57,1.39,1.39,0,0,0,.34-.5c.07-.16.11-.26.21-.32a1.59,1.59,0,0,0,.54-.71l0-.1a1,1,0,0,1,.2-.21.9.9,0,0,0,.4-.55.6.6,0,0,1,.28-.35.86.86,0,0,0,.14-.13,1.19,1.19,0,0,0,.27-.43.47.47,0,0,1,.17-.27.63.63,0,0,0,.31-.45c0-.08,0-.12.06-.14l.06-.06a2.45,2.45,0,0,0,.64-.68l0-.07a1.69,1.69,0,0,1,.48-.64,1,1,0,0,0,.32-.48c0-.15.08-.21.14-.24a.65.65,0,0,0,.33-.46.3.3,0,0,1,.07-.15l.4-.41.16-.16a.21.21,0,0,0,.07-.12l0-.18.29-.1a.25.25,0,0,0,.16-.23v-.31L117,92a.25.25,0,0,0,.08-.18v-1.2a.68.68,0,0,0,.2-.49s0-.07,0-.1a.51.51,0,0,1,.08-.17,1.19,1.19,0,0,0,.14-.32c0-.07.06-.11.15-.19a.89.89,0,0,0,.23-.27s0,0,.12,0a.77.77,0,0,0,.32-.13.22.22,0,0,0,.09-.17,2.53,2.53,0,0,0,0-.28.82.82,0,0,1,0-.37,1,1,0,0,0,.17-.48.61.61,0,0,1,0-.17l0-.07a1.32,1.32,0,0,0,.22-.7l.16-.17a.23.23,0,0,0,.06-.16v-.83l.17-.18a.26.26,0,0,0,.07-.2,1.21,1.21,0,0,1,.28-.81l.18-.3a.2.2,0,0,0,0-.11v-.75L120,83a.25.25,0,0,0,0-.15v-.53l.43-.77a.17.17,0,0,0,0-.12v-.54l.17-.19a.24.24,0,0,0,.07-.16v-.56a.68.68,0,0,0,.22-.56c0-.08,0-.16,0-.19a.67.67,0,0,0,.21-.53c0-.19,0-.21.1-.24a.24.24,0,0,0,.15-.22v-.82l.42-.79a.2.2,0,0,0,0-.11v-.3l.17-.19a.23.23,0,0,0,.07-.17v-1c0-.08.06-.15.08-.22a1.92,1.92,0,0,1,.14-.31l.06-.07a.57.57,0,0,0,.18-.49.22.22,0,0,1,.11-.26.23.23,0,0,0,.11-.2v-.83l.18-.2a.25.25,0,0,0,.06-.16v-.34l.45-.78a.27.27,0,0,0,0-.12v-.77l.18-.21a.25.25,0,0,0,.06-.16v-.53l.42-.8a.27.27,0,0,0,0-.12v-.5l.17-.18a.27.27,0,0,0,.06-.17v-.81l.42-.44A.27.27,0,0,0,125,66v-.58l.19-.22a.28.28,0,0,0,0-.16V64.4a1.92,1.92,0,0,1,.18-.29,1.17,1.17,0,0,0,.29-.79l.15-.17a.26.26,0,0,0,.07-.16v-.46a.28.28,0,0,0-.07-.17ZM122.4,53a.24.24,0,0,0,.07.16l.15.15v.11a5.42,5.42,0,0,0,0,.57,1.2,1.2,0,0,1,0,.19.88.88,0,0,0,.25.79v.12a.55.55,0,0,0,.21.56v.57a.24.24,0,0,0,.06.17l.18.19v1.54a.25.25,0,0,0,.08.18l.12.11a.53.53,0,0,1,0,.3,1.22,1.22,0,0,0,0,.45.22.22,0,0,0,.05.08l.14.15v.06a.75.75,0,0,0,.22.63v1.24a.23.23,0,0,0,0,.15l.21.27a.91.91,0,0,1-.11.67,2.7,2.7,0,0,0-.14.4,1.33,1.33,0,0,1-.57.91.24.24,0,0,0-.12.21v.16a1.33,1.33,0,0,1,0,.2.47.47,0,0,1-.09.17.78.78,0,0,0-.19.41,1.22,1.22,0,0,1-.16.14,1.17,1.17,0,0,0-.16.15.21.21,0,0,0-.07.14,1.92,1.92,0,0,1-.65,1.29.29.29,0,0,0-.07.12.9.9,0,0,0,0,.28c0,.11,0,.14,0,.17a1.63,1.63,0,0,0-.32.59,1.37,1.37,0,0,1-.24.45.59.59,0,0,0-.12.48v.1L121,69v0a.25.25,0,0,0-.14-.16v-.33a.24.24,0,0,0,0-.14l-.21-.28V66.5a.24.24,0,0,0-.07-.17l-.15-.15v-.81a.22.22,0,0,0-.06-.15l-.17-.21V62.56a.27.27,0,0,0-.06-.17l-.18-.19V60.67a.2.2,0,0,0-.07-.16l-.17-.19V59.5a.27.27,0,0,0-.06-.17l-.16-.17,0-2.72a.23.23,0,0,0-.07-.17l-.14-.14a6,6,0,0,1,0-.74,6,6,0,0,0,0-.85.35.35,0,0,0-.07-.15l-.14-.14v-.83a.26.26,0,0,0-.07-.17l-.16-.15V51.87l0,0a1.11,1.11,0,0,0,.38-.44s0-.08,0-.13.06-.17.11-.19a.25.25,0,0,0,.13-.22v-.38l.17-.19a.28.28,0,0,0,.07-.17v-.35l.37-.37a.28.28,0,0,0,.07-.17v-.54l.69-1.31a.2.2,0,0,0,0-.11V47l.33-.33.12.14v.07a.73.73,0,0,0,.22.6v.8a.2.2,0,0,0,.07.16l.17.19v.6a.2.2,0,0,0,.07.16l.17.19v1.06a.24.24,0,0,0,.07.17l.14.14,0,0V52a.24.24,0,0,0,.07.17l.15.15Zm-3.52,24.14-.43.77a.27.27,0,0,0,0,.12v.53l-.17.18a.23.23,0,0,0-.07.17v1.3l-.13.13a.25.25,0,0,0-.08.17v.59h0a.43.43,0,0,0-.19.3,1.55,1.55,0,0,1-.14.53,1.77,1.77,0,0,0-.16.91,2.11,2.11,0,0,1,0,.83.88.88,0,0,1-.09.2,1.15,1.15,0,0,0-.15.55l0,0-.11.12a.3.3,0,0,0,0,.15v.58l-.18.19a.23.23,0,0,0-.06.16v1.06l-.13.12a.25.25,0,0,0-.08.18v.84l-.06.07a.31.31,0,0,0-.12.16,1.15,1.15,0,0,0-.07.34c0,.2,0,.29-.14.35a.26.26,0,0,0-.1.2v1a1.13,1.13,0,0,0-.24.74c-.85.85-1.7,1.71-2.53,2.53a1.29,1.29,0,0,0-.76.52,1.42,1.42,0,0,1-.2.22,6.69,6.69,0,0,0-.54.52l-.14.15a.35.35,0,0,0-.3.08c-.18.16-.34.32-.51.49l-.17.17-.2.21A4.57,4.57,0,0,1,110,96l-.21.21a1.24,1.24,0,0,1-.41.32,1.73,1.73,0,0,0-.63.5l-.14.15c-.43.42-.85.85-1.26,1.26l-.38.39c-.05,0-.08,0-.15-.11l-.1-.09v-.51a.77.77,0,0,0,.24-.51h0a.51.51,0,0,0,.2-.45c0-.2,0-.23.08-.27a.26.26,0,0,0,.13-.22v-1a1.61,1.61,0,0,0,.09-.26,1.06,1.06,0,0,1,.14-.3.81.81,0,0,0,.25-.62.66.66,0,0,0,0-.13l.07-.08a.52.52,0,0,0,.1-.11.2.2,0,0,0,.06-.15V92.77l.41-.43a.28.28,0,0,0,.07-.17v-.35l.18-.21a.23.23,0,0,0,.06-.16v-1a.67.67,0,0,0,.21-.57c0-.06,0-.13,0-.17l.27-.45.15-.24a.28.28,0,0,0,0-.13v-1l.17-.19a.22.22,0,0,0,.07-.17v-.57l.44-.76a.27.27,0,0,0,0-.12v-.52l.16-.21a.3.3,0,0,0,0-.15v-.76a1.2,1.2,0,0,0,.26-.76,2,2,0,0,0,.54-.8,1.76,1.76,0,0,1,.35-.58h.17a.23.23,0,0,0,.17-.08l.24-.23c.19-.19.39-.39.57-.61a.93.93,0,0,1,.35-.25,2.09,2.09,0,0,0,.34-.21,5.53,5.53,0,0,0,.55-.53c.07-.07.14-.15.22-.22l.18-.19.44-.44h.06a.53.53,0,0,0,.29-.12.52.52,0,0,1,.11-.1.65.65,0,0,0,.34-.52l.16,0a.24.24,0,0,0,.12-.07l.25-.25.57-.57c.09-.08.17-.17.25-.25a1.67,1.67,0,0,1,.52-.46,1.66,1.66,0,0,0,.56-.41,2,2,0,0,1,.36-.3h.43a1,1,0,0,1,0,.31A1.52,1.52,0,0,0,118.88,77.11ZM97.15,111.26h0a1,1,0,0,0-.34.47.63.63,0,0,1-.11.19,3.85,3.85,0,0,0-.63.78,3,3,0,0,1-.66.78.34.34,0,0,0-.11.33l-.83.83a.29.29,0,0,0-.07.16v.1l-.48.28h-.51a.24.24,0,0,0-.12,0l-.23.14a1.31,1.31,0,0,1-.84.3.22.22,0,0,0-.19.06l-.19.17h-.59A.25.25,0,0,0,91,116s-.08.07-.2.11a.84.84,0,0,0-.4.22.68.68,0,0,1-.15,0,.93.93,0,0,0-.49.18c-.15.1-.19.11-.26.08a.58.58,0,0,0-.64.14c-.06,0-.12.09-.14.08s-.42,0-.56.16c0,0-.08.06-.18.08a.83.83,0,0,0-.41.22H87a.23.23,0,0,0-.17.07l-.18.17h-.28a.24.24,0,0,0-.12,0,1.83,1.83,0,0,0-.26.16,1.47,1.47,0,0,1-.5.25,2.54,2.54,0,0,0-.53.17l-.23.09a1.4,1.4,0,0,1-.3,0,.5.5,0,0,0-.3,0l-.77.43H83a.28.28,0,0,0-.17.07l-.15.16-.4,0a.27.27,0,0,0-.16.08l-.17.14s-.06,0-.12-.1l-.1-.1,0,0a1.27,1.27,0,0,1,.16-.33,5.7,5.7,0,0,0,.75-1.24c.11-.23.23-.46.36-.68a1.12,1.12,0,0,0,.11-.25c0-.12.07-.19.14-.23a.69.69,0,0,0,.28-.41s0-.08,0-.08a1,1,0,0,0,.26-.46,1.59,1.59,0,0,1,.08-.18c0-.08.1-.16.14-.24a1.07,1.07,0,0,1,.35-.44.23.23,0,0,0,.14-.21v-.41a.46.46,0,0,0,.07-.07,1.11,1.11,0,0,0,.42-.66,2.73,2.73,0,0,0,.33-.6,1.6,1.6,0,0,1,.47-.68.31.31,0,0,0,.1-.15,1.55,1.55,0,0,1,.2-.44,2.4,2.4,0,0,0,.24-.54c0-.08.08-.14.18-.24a.78.78,0,0,0,.33-.53l.06,0,.45-.24.63-.31.29-.13h.29a.28.28,0,0,0,.17-.07l.18-.17h.34a4,4,0,0,0,.65-.33,1.81,1.81,0,0,1,1-.36.26.26,0,0,0,.2-.1.68.68,0,0,1,.31-.18,1.18,1.18,0,0,0,.28-.12l.12-.07a1.31,1.31,0,0,1,.68-.25.85.85,0,0,0,.43-.15c.15-.08.19-.1.24-.07a.27.27,0,0,0,.28-.05l.4-.4H94a.81.81,0,0,0,.62-.24h0a.88.88,0,0,0,.69-.22.59.59,0,0,0,.41-.2.23.23,0,0,1,.11-.07.54.54,0,0,0,.58-.15.23.23,0,0,1,.08-.07.88.88,0,0,0,.69-.23l.25-.09a.78.78,0,0,0,.48-.25c.06-.08.13-.09.29-.1a.76.76,0,0,0,.5-.17.56.56,0,0,1,.22-.1,1,1,0,0,0,.37-.2,1,1,0,0,0,.58-.16c.15-.08.24-.13.34-.1a.27.27,0,0,0,.19,0,3.76,3.76,0,0,1,.91-.44.71.71,0,0,0,.29-.2h.36a.28.28,0,0,0,.17-.07l.18-.17h.24v.08a.71.71,0,0,0,0,.15.1.1,0,0,1,0,0,.51.51,0,0,0-.18.46l-.1.1-.47.43a1.22,1.22,0,0,0-.29.42,1.62,1.62,0,0,1-.1.18,1.86,1.86,0,0,0-.18.34c-.09.21-.15.33-.28.4a.88.88,0,0,0-.43.54.83.83,0,0,1-.13.25l-.15.13a1.17,1.17,0,0,0-.46.71s-.08.09-.13.14a.82.82,0,0,0-.33.52,2.78,2.78,0,0,0-.49.65,2.39,2.39,0,0,1-.48.6l-.1.07a1.18,1.18,0,0,0-.56.78s-.06.09-.14.16A.69.69,0,0,0,97.15,111.26Zm-18.67,8.6-.23-.18a.3.3,0,0,0-.15-.05h-2l-.17-.17a.24.24,0,0,0-.18-.07h-1.3l-.14-.15a.28.28,0,0,0-.17-.07h-2L72,119a.25.25,0,0,0-.16-.06H67.49l-.18-.17a.28.28,0,0,0-.17-.07h-.76a2.19,2.19,0,0,1-1-.67v-5.17l.44-.44h.6a.23.23,0,0,0,.17-.08l.15-.15c.19,0,.4,0,.61,0a6.12,6.12,0,0,0,.74,0,.26.26,0,0,0,.15-.07l.13-.14h2.24a.23.23,0,0,0,.17-.07l.18-.17h1.3a.25.25,0,0,0,.17-.08l.17-.17h1.3a.29.29,0,0,0,.18-.07l.14-.14h2a.24.24,0,0,0,.16-.07l.19-.17h1.54a.21.21,0,0,0,.18-.09l.09-.1.06,0h1.3a.24.24,0,0,0,.18-.07l.16-.16h1.77a.25.25,0,0,0,.17-.08l.14-.13h2.36a.6.6,0,0,1,0,.19,1.91,1.91,0,0,0,0,.24.84.84,0,0,0-.21.39c0,.09,0,.14-.08.16a.84.84,0,0,0-.36.48.53.53,0,0,1-.1.2.66.66,0,0,0-.19.55v.15l-.61.49a.22.22,0,0,0-.09.19v.45a2.24,2.24,0,0,0-.55.77,1.51,1.51,0,0,1-.11.22,3.54,3.54,0,0,0-.16.34,1.24,1.24,0,0,1-.46.64.24.24,0,0,0-.12.21v.39a2.26,2.26,0,0,0-.51.74c-.06.15-.13.29-.2.43a3.68,3.68,0,0,0-.21.45.61.61,0,0,1-.16.17.86.86,0,0,0-.33.53.75.75,0,0,0-.22.6.22.22,0,0,1,0,.09l-.2.23h-.37a.26.26,0,0,0-.17.07l-.14.14a.63.63,0,0,1-.29,0h-.21Zm-13.76,1.86H61.64l-.17-.15a.24.24,0,0,0-.33,0l-.17.15H60.7l-.22-.19a.23.23,0,0,0-.16-.06h-.76l.21-.18h1.52a.2.2,0,0,0,.16-.07l.19-.17h1.54a.28.28,0,0,0,.17-.07l.13-.14h.84a.23.23,0,0,0,.17-.07l.16-.16h.79l.13.13a.25.25,0,0,0,.18.08h.83l.15.14a.23.23,0,0,0,.17.08h.71l.09,0a.58.58,0,0,0,.21-.16l.06,0,.18.17a.34.34,0,0,0,.12.06h-.2a.24.24,0,0,0-.17.07l-.15.15h-.6a.21.21,0,0,0-.17.08l-.18.17H65a.28.28,0,0,0-.17.07Zm-9-1.78-.11.12a.64.64,0,0,1-.3,0,1,1,0,0,0-.45,0,.21.21,0,0,0-.1.06l-.1.11a.7.7,0,0,1-.3,0c-.1,0-.2,0-.31,0l-.12,0-.24.18h-2a.23.23,0,0,0-.17.07l-.15.15H50a1,1,0,0,0-.21-.36s0,0,0-.15a.57.57,0,0,0-.07-.32c0-.09-.09-.17-.13-.26a1.93,1.93,0,0,0-.52-.74v-.61a.25.25,0,0,0-.14-.22.81.81,0,0,1-.33-.42,2.59,2.59,0,0,0-.19-.31,1.31,1.31,0,0,0-.16-.57.9.9,0,0,1-.12-.52.22.22,0,0,0-.06-.21l-.4-.4a.88.88,0,0,0-.26-.75,2.88,2.88,0,0,0-.44-1l-.07-.1a2,2,0,0,1-.16-.45,1.58,1.58,0,0,0-.29-.69,1.16,1.16,0,0,1-.18-.37c0-.09-.07-.18-.12-.27a.83.83,0,0,0-.12-.16v-.44l.47-.25H47l.18.17a.23.23,0,0,0,.16.06h2.23l.1.1,0,0a.35.35,0,0,0,.23.1H53l.14.13a.22.22,0,0,0,.17.07h4.78l.27.22a.25.25,0,0,0,.15.05h2.67l.15.14a.22.22,0,0,0,.17.07h2a1.23,1.23,0,0,0,.47.26l0,.38a.26.26,0,0,0,.07.15l.11.11v3.82l-.13.13a.24.24,0,0,0,0,.33l.07.08-.09.09a.24.24,0,0,0-.06.17v.35l-.66.66c-.24,0-.48,0-.74,0a7.69,7.69,0,0,0-.83,0,.24.24,0,0,0-.16.07l-.13.13a1.61,1.61,0,0,1-.54,0,1.54,1.54,0,0,0-1,.18s-.13,0-.22,0a.72.72,0,0,0-.58.25h-1a.23.23,0,0,0-.16.06l-.19.18H55.93A.25.25,0,0,0,55.75,119.94Zm-13.82-.54h-.59l-.19-.17a.28.28,0,0,0-.17-.07h-.36l-.19-.17a.24.24,0,0,0-.16-.07H38.75l-.1-.09-.06,0a1.18,1.18,0,0,0-.57-.09,1.08,1.08,0,0,1-.18,0l-.21-.15a.31.31,0,0,0-.12-.05l-.41,0-.15-.15a.29.29,0,0,0-.18-.07h-1.3l-.14-.15a.28.28,0,0,0-.17-.07h-.59l-.2-.17a.24.24,0,0,0-.16-.07h-.35l-.19-.17a.28.28,0,0,0-.17-.07h-.59l-.63-.63-.11-.23c-.1-.2-.2-.41-.29-.61a7.55,7.55,0,0,0-.45-.9l-.11-.19a3.19,3.19,0,0,0-.46-.69,2.39,2.39,0,0,1-.38-.73l-.06-.15a2.34,2.34,0,0,0-.51-.73v-.38a.27.27,0,0,0-.12-.21,1.28,1.28,0,0,1-.47-.67,2.63,2.63,0,0,0-.36-.63l-.05-.13a.87.87,0,0,0-.11-.25,1.34,1.34,0,0,0-.26-.27l0,0v-.34a.24.24,0,0,0-.07-.17l-.39-.41a.61.61,0,0,0-.2-.47.44.44,0,0,1-.09-.13l0-.1a1.29,1.29,0,0,0-.48-.78.49.49,0,0,1-.18-.29,1.68,1.68,0,0,0-.15-.3,5.38,5.38,0,0,1-.37-.72,3,3,0,0,0-.15-.32v-.42h.23l.18.16a.23.23,0,0,0,.16.06h.36l.19.18a.25.25,0,0,0,.17.06h.58l.1.1.08,0a1.13,1.13,0,0,0,.39.08c.2,0,.25,0,.3.11a.24.24,0,0,0,.3.11c.07,0,.14,0,.29.09a.74.74,0,0,0,.65.14c.09,0,.14,0,.28.08a.75.75,0,0,0,.5.18.56.56,0,0,1,.13,0,.68.68,0,0,0,.44.22h.09v0a.24.24,0,0,0,.25.22h.84a.86.86,0,0,0,.44.26.84.84,0,0,1,.21.08,1.07,1.07,0,0,0,.49.19,1,1,0,0,1,.34.11,1.1,1.1,0,0,0,.69.08l.18,0,.76.43a.27.27,0,0,0,.12,0h.29l.19.18a.24.24,0,0,0,.17.06h.36l.09.1,0,0a1,1,0,0,0,.58.11H38l.15.08.49.25.32.1a1.21,1.21,0,0,1,.34.13,1,1,0,0,0,.66.14h.16l.79.45a.21.21,0,0,0,.12,0h.53l.18.17a.28.28,0,0,0,.17.07h.58l.09.07a.62.62,0,0,0,.4.21.83.83,0,0,0,.65.2l.7.85a.79.79,0,0,0,.1.35,6.77,6.77,0,0,1,.37.71,6.37,6.37,0,0,0,.38.73.65.65,0,0,1,0,.21.93.93,0,0,0,.09.3,2.06,2.06,0,0,1,.12.26,2.19,2.19,0,0,0,.31.55,1,1,0,0,1,.21.56,1.71,1.71,0,0,0,.32.81l.06.09a.56.56,0,0,1,.06.17.69.69,0,0,0,.29.46.38.38,0,0,1,0,.1.56.56,0,0,0,.2.55.41.41,0,0,1,.1.2,1,1,0,0,0,.14.33,1.6,1.6,0,0,1,.26.5.62.62,0,0,1,0,.16,1,1,0,0,0,0,.18.25.25,0,0,0,.09.2l.33.25a.19.19,0,0,0,0,.14l.25.43v.49l-.2.2h-.27l-.18-.16a.24.24,0,0,0-.16-.07h-.6l-.13-.13a.24.24,0,0,0-.18-.07h-.82a.67.67,0,0,0-.58-.26.36.36,0,0,1-.18,0,.76.76,0,0,0-.72-.21.56.56,0,0,1-.18,0l-.19-.18a.21.21,0,0,0-.17-.07h-1.3l-.14-.15A.28.28,0,0,0,41.93,119.4ZM16.31,100.75a1.81,1.81,0,0,1-.37-.43,2.74,2.74,0,0,0-.41-.63,3,3,0,0,0,.39.29,1.3,1.3,0,0,0,.33.14.79.79,0,0,1,.24.1,3.73,3.73,0,0,1,.52.45l.2.19.09,0a2.17,2.17,0,0,1,1,.63.26.26,0,0,0,.16.09c.2,0,.32.14.5.34a2,2,0,0,0,.4.36.26.26,0,0,0,.2,0,.84.84,0,0,0,.37.18l.11,0a1.11,1.11,0,0,0,.54.4.56.56,0,0,1,.28.18.87.87,0,0,0,.49.34c.13,0,.21.08.25.15a1,1,0,0,0,.49.35c.16.07.26.11.31.21a.51.51,0,0,0,.27.21,1.92,1.92,0,0,0,.37.15c.21.07.33.12.39.22a4.07,4.07,0,0,0,.38.6,4,4,0,0,1,.44.77,2.42,2.42,0,0,0,.66,1v.29a.23.23,0,0,0,0,.11l0,0a.33.33,0,0,0,.11.17,2.26,2.26,0,0,1,.58.91,2.87,2.87,0,0,0,.64,1,.72.72,0,0,0,.2.4c.07.09.09.12.08.15a.27.27,0,0,0,.09.24.46.46,0,0,1,.11.21,1.21,1.21,0,0,0,.18.33.59.59,0,0,1,.1.21,1,1,0,0,0,.21.4.75.75,0,0,0,.33.51l.1.09a.68.68,0,0,1,.06.16.76.76,0,0,0,0,.11h0l0-.17a.29.29,0,0,0-.07-.12l-.83-.78a.24.24,0,0,0-.17-.07h0l-.09-.26a.26.26,0,0,0-.18-.16l-.2,0-.06-.2-.06-.09a.92.92,0,0,0-.11-.14l-2.85-2.85q-2.67-2.65-5.32-5.32l-.29-.28a2.93,2.93,0,0,1-.67-.76A2.18,2.18,0,0,0,16.31,100.75Zm-5.62-9.64-.18-.19V90.4a.27.27,0,0,0,0-.12l-.42-.79V88.7a.21.21,0,0,0-.08-.17l-.15-.16-.06-.68a.28.28,0,0,0-.13-.2s-.06,0-.07-.23a.72.72,0,0,0-.22-.56v-.33a.23.23,0,0,0-.07-.17L9.11,86V85A.25.25,0,0,0,9,84.72c-.05,0-.06,0-.1-.19a.81.81,0,0,0-.23-.41V84a.67.67,0,0,0-.18-.53V82.3a.27.27,0,0,0,0-.12l-.71-1.34V79.57a.25.25,0,0,0-.15-.22c-.06,0-.08-.07-.13-.23a1.29,1.29,0,0,0-.17-.36.75.75,0,0,1-.06-.22A1,1,0,0,0,7,78v-.65h.13l.13,0a1.74,1.74,0,0,1,.77.53.91.91,0,0,0,.48.33c.13,0,.21.08.24.14a.83.83,0,0,0,.51.38.61.61,0,0,1,.26.14,1.35,1.35,0,0,0,.74.57,1,1,0,0,1,.36.31,2.55,2.55,0,0,0,.23.24.29.29,0,0,0,.27.12c.07,0,.11,0,.23.16a.71.71,0,0,0,.45.3.43.43,0,0,1,.3.21,1.73,1.73,0,0,0,.6.47l.27.16a2.09,2.09,0,0,1,.22.2,1.72,1.72,0,0,0,.53.38,1.77,1.77,0,0,1,.46.39,1.81,1.81,0,0,0,.24.24.25.25,0,0,0,.2.07c.07,0,.11,0,.23.15a.73.73,0,0,0,.43.3.72.72,0,0,1,.42.3,1.37,1.37,0,0,0,.16.18,1.21,1.21,0,0,0,.41.23c.17.06.24.09.28.18a.56.56,0,0,0,.44.31.41.41,0,0,1,.15,0,1.4,1.4,0,0,0,.28.31,1.29,1.29,0,0,1,.2.21.94.94,0,0,0,.45.3.54.54,0,0,1,.17.08,2,2,0,0,1,.65.82v.42a.29.29,0,0,0,.07.18l.14.13v.6a.22.22,0,0,0,.07.17l.17.18v.85a.26.26,0,0,0,.12.21c.11.07.12.13.14.34a1.42,1.42,0,0,0,.13.38.78.78,0,0,1,.09.24.79.79,0,0,0,.23.56v.82a.28.28,0,0,0,.07.17l.17.18v.53a.2.2,0,0,0,0,.11l.43.79v.79a.21.21,0,0,0,.07.17l.15.16.07.68a.23.23,0,0,0,.12.2s.06,0,.07.23a.76.76,0,0,0,.22.57v.56a.24.24,0,0,0,.07.16l.17.19v.6a.23.23,0,0,0,.08.17l.15.15,0,.4a.35.35,0,0,0,.06.14l.15.18a.76.76,0,0,1,0,.15,1,1,0,0,0,.12.61.49.49,0,0,1,.13.43.71.71,0,0,0,.16.56s.07.09.07.12a.49.49,0,0,1,0,.12.81.81,0,0,0,.23.59v.33a.21.21,0,0,0,.05.15l.18.22a.64.64,0,0,1-.12.14.3.3,0,0,0-.08.08h-.56l-.06-.08a1.81,1.81,0,0,0-.52-.51l-.18-.09a.93.93,0,0,1-.36-.26,1.28,1.28,0,0,0-.57-.44,1.67,1.67,0,0,1-.23-.12,1.14,1.14,0,0,1-.19-.19,1,1,0,0,0-.62-.41c-.05,0-.09,0-.18-.14a.77.77,0,0,0-.58-.34.68.68,0,0,1-.11-.12.75.75,0,0,0-.51-.33c-.06,0-.1,0-.19-.15a.72.72,0,0,0-.55-.33.7.7,0,0,1-.18-.18,2.35,2.35,0,0,0-.71-.53l-.17-.1a1.5,1.5,0,0,1-.24-.21,1.53,1.53,0,0,0-.48-.37,1.53,1.53,0,0,1-.47-.39L15,96.34a.31.31,0,0,0-.19-.06c-.12,0-.19,0-.33-.22a1.52,1.52,0,0,0-.22-.22l0,0a1.06,1.06,0,0,0-.42-.24,1.84,1.84,0,0,1-.58-.31,3.23,3.23,0,0,1-.37-.37l-.16-.18a.29.29,0,0,0-.18-.07h-.15a4.68,4.68,0,0,0-.38-.39,2.08,2.08,0,0,1-.55-.67c-.14-.3-.29-.58-.46-.89q-.11-.18-.21-.39v-1A.23.23,0,0,0,10.69,91.11ZM5.58,79.77,5.14,79v-.57a.25.25,0,0,0-.08-.18l-.13-.13v-.74a.13.13,0,0,0,0-.06.46.46,0,0,0,.08.13.57.57,0,0,1,.13.37.88.88,0,0,0,.14.38s.05.09.07.15V79a.17.17,0,0,0,0,.12l.44.77v.82a.28.28,0,0,0,.07.17l.14.14a.63.63,0,0,1,0,.29c0,.1,0,.21,0,.31a.39.39,0,0,0,.07.16l.14.19,0,.36a.36.36,0,0,0,0-.09l-.09-.1-.09-.11a.75.75,0,0,0-.16-.38l-.06-.09a.49.49,0,0,1,0-.13.86.86,0,0,0,0-.27.71.71,0,0,0-.18-.29l0,0v-1A.21.21,0,0,0,5.58,79.77Zm-1.2-4.06-.15-.18V75a1.19,1.19,0,0,0,.13.25c.09.16.12.22.08.29a.37.37,0,0,0,.07.3l.14.15a.22.22,0,0,0,0,.08,2.26,2.26,0,0,1,0,.27.56.56,0,0,0,.18.51l.06.07V77a1.18,1.18,0,0,0,0,.26s0,0,0,0l-.46-.83v-.54A.25.25,0,0,0,4.38,75.71Zm-.47-5.86a1.93,1.93,0,0,1-.56-1l-.15-.41a1.65,1.65,0,0,0-.63-.91v-.35a.25.25,0,0,0-.06-.17l-.18-.19v-.13a.24.24,0,0,0-.07-.18l-.35-.34a3,3,0,0,0-.42-1.13c-.11-.2-.22-.4-.32-.63V64l.16-.18a.24.24,0,0,0,.07-.16V62.4l.1-.11,0,0a1.1,1.1,0,0,0,.09-.6v-.18l.1-.11s0,0,0,0a.32.32,0,0,0,.09-.22c0-.68,0-1.36,0-2v-.18L2,58.75a.25.25,0,0,0,.08-.17v-1l.21-.27a.27.27,0,0,0,0-.15v-1l.14-.15a.21.21,0,0,0,.07-.17V53.54l.18-.2a.27.27,0,0,0,.06-.16v-1L3,51.94A.27.27,0,0,0,3,51.77V50.48h0l.05-.06s0,0,0,0a.32.32,0,0,0,.12-.23V48.61l.36-.36.31.16,0,.19a.26.26,0,0,0,.09.17l.6.49,0,.22a.26.26,0,0,0,.07.15l.11.11c.07.07.14.13.21.21a5,5,0,0,0,.45.47,4.37,4.37,0,0,1,.6.69,2.8,2.8,0,0,0,.54.6,2.33,2.33,0,0,1,.49.58,3.26,3.26,0,0,0,.67.84,4.2,4.2,0,0,1,.29.32l.28.57v.69l-.16.18a.28.28,0,0,0-.07.17v1.06L8,56.25a.25.25,0,0,0-.08.17v.84l-.17.17a.24.24,0,0,0-.07.18v.83l-.18.17a.29.29,0,0,0-.07.18v1.53l-.17.18a.21.21,0,0,0-.07.17v.83l-.14.14a.25.25,0,0,0-.08.17v.6l-.17.18a.28.28,0,0,0-.07.17v1.29l-.07.07,0,0a.32.32,0,0,0-.12.23v1.06l-.11.1,0,0a.82.82,0,0,0-.11.44.94.94,0,0,1-.08.44h0l-.07.09a.23.23,0,0,0,0,.14v1.48l-.21.27a.2.2,0,0,0-.06.15v.8l-.14.15a.23.23,0,0,0-.07.17v.59l-.18.2a.23.23,0,0,0-.06.16v1a1,1,0,0,0-.23.4l0,.06H5a1.3,1.3,0,0,1-.28-.76A.82.82,0,0,0,4.35,71c-.13-.11-.16-.15-.16-.23A.55.55,0,0,0,4,70.38L4,70.28a.56.56,0,0,1,0-.13A.62.62,0,0,0,4,70,.27.27,0,0,0,3.91,69.85ZM4.42,44.9a.26.26,0,0,1,.07-.1.81.81,0,0,0,.2-.37s.12-.16.18-.22L5,44.12a.74.74,0,0,0,.18-.35c0-.11,0-.15.09-.16a.28.28,0,0,0,.13-.21,1.32,1.32,0,0,1,.27-.61l0,0a1.77,1.77,0,0,1,.16-.22A2,2,0,0,0,6.16,42a1.38,1.38,0,0,1,.41-.63.5.5,0,0,0,.15-.3v0A1,1,0,0,0,7,40.54a.69.69,0,0,1,.16-.28,1.84,1.84,0,0,0,.44-.64l0-.07a2.13,2.13,0,0,0,.14-.35A1.66,1.66,0,0,1,8,38.8l.09-.12A3.82,3.82,0,0,0,8.47,38l0-.07a2.29,2.29,0,0,1,.39-.63,1.68,1.68,0,0,0,.42-.8,3.42,3.42,0,0,0,.7-1.1,3.18,3.18,0,0,1,.54-.91,1.72,1.72,0,0,0,.31-.54,1.49,1.49,0,0,1,.21-.4,2.34,2.34,0,0,0,.29-.46,1.66,1.66,0,0,1,.23-.37.38.38,0,0,0,.1-.29l.4-.4a1.07,1.07,0,0,1,.36,0,2.08,2.08,0,0,0,.35,0c.17.08.33.17.5.27a2.67,2.67,0,0,0,1.17.44l.18.17a.25.25,0,0,0,.17.06h.41l.31.39a.22.22,0,0,0,.26.08.6.6,0,0,1,.43.09,1,1,0,0,0,.58.15l.19.17a1.27,1.27,0,0,1,0,.44s0,.07,0,.1l-.35.35-.06.09a1,1,0,0,0,0,.33c0,.19,0,.22-.09.25a.24.24,0,0,0-.12.28s0,0-.08.13a.75.75,0,0,0-.19.41.86.86,0,0,0-.23.71,1.22,1.22,0,0,0-.28.47,1.17,1.17,0,0,1-.13.25,1.86,1.86,0,0,0-.2.43,1,1,0,0,1-.21.39.22.22,0,0,0-.08.25c0,.11,0,.2-.1.36a1.22,1.22,0,0,0-.15.39,1,1,0,0,0-.25.43.44.44,0,0,1-.13.24.24.24,0,0,0-.08.29c0,.12,0,.2-.11.38a1.47,1.47,0,0,0-.14.28,2.64,2.64,0,0,1-.2.36,2.36,2.36,0,0,0-.22.38.89.89,0,0,0-.06.35s0,.11,0,.1a.77.77,0,0,0-.21.41c0,.1,0,.13-.07.15a.5.5,0,0,0-.2.38s0,.07,0,.08a.23.23,0,0,0-.15.19,4.11,4.11,0,0,1-.65,1.55l-.25.43a.84.84,0,0,0-.08.42c0,.15,0,.2-.08.25a1.12,1.12,0,0,0-.3.54c0,.08,0,.15-.08.22a1.09,1.09,0,0,0-.08.15,1.11,1.11,0,0,0-.2.67l-.06.08A1.88,1.88,0,0,0,11,48a2.59,2.59,0,0,0-.14.29,2.27,2.27,0,0,1-.23.44.72.72,0,0,0-.12.48c0,.15,0,.16,0,.18a.23.23,0,0,0-.13.17,1.15,1.15,0,0,1-.15.35,2,2,0,0,0-.19.42.93.93,0,0,1-.17.3,1.73,1.73,0,0,0-.2.32,1,1,0,0,0-.07.41v.1l-.5.41H8.86l-.12-.11a.88.88,0,0,1-.35-.44.79.79,0,0,0-.28-.4l-.06-.07-.35-.32a2.82,2.82,0,0,1-.58-.63,4.15,4.15,0,0,0-.64-.83l-.19-.21v0s0-.07,0-.11a.21.21,0,0,0-.08-.17L4.9,47.23V47.1a.23.23,0,0,0-.07-.17L4,46.08v0c0-.18,0-.23.05-.3a.76.76,0,0,0,.19-.35c0-.1,0-.15.09-.17A.26.26,0,0,0,4.42,44.9ZM15.27,26.07a2.59,2.59,0,0,0,.15-.37.51.51,0,0,1,.13-.14.76.76,0,0,0,.33-.52s0-.08.08-.14a.62.62,0,0,0,.19-.43,1.22,1.22,0,0,1,.16-.14l.19-.16a.28.28,0,0,0,.07-.17v-.36h0a2,2,0,0,0,.61-.89c.13-.3.24-.55.35-.76a2.26,2.26,0,0,1,.21-.28,1.7,1.7,0,0,0,.37-.58,1.19,1.19,0,0,1,.08-.21l.11-.23h0a2.37,2.37,0,0,0,.49-.48.37.37,0,0,1,.16-.06.6.6,0,0,0,.43-.24h.34a.28.28,0,0,0,.17-.07l.15-.15.4,0a.22.22,0,0,0,.16-.07l.11-.1.57,0a.27.27,0,0,0,.15-.05l.11-.11.05-.05a.92.92,0,0,0,.47-.19c.12-.1.17-.13.25-.11a.69.69,0,0,0,.53-.14c.1-.07.15-.11.23-.1a.86.86,0,0,0,.46-.14c.14-.07.22-.11.31-.08a.26.26,0,0,0,.29-.11c0-.07.12-.1.25-.15a1,1,0,0,0,.38-.2h.49A.19.19,0,0,0,25.4,18a1.9,1.9,0,0,1,.58-.23,2.15,2.15,0,0,0,.85-.41h.49l.22.17v.06c-.14.16-.29.31-.44.46l-.18.17a.29.29,0,0,0-.05.27s-.05.07-.08.1a.63.63,0,0,0-.2.44.18.18,0,0,1-.07,0,1,1,0,0,0-.34.5.5.5,0,0,1-.18.23.71.71,0,0,0-.28.4.69.69,0,0,1-.27.42.86.86,0,0,0-.24.4c0,.14-.06.18-.11.21a.63.63,0,0,0-.34.47.77.77,0,0,1-.06.15.56.56,0,0,0-.14.29s0,.07,0,.07h0a1.51,1.51,0,0,0-.39.51,1.29,1.29,0,0,1-.21.31,1.31,1.31,0,0,0-.28.44.66.66,0,0,1-.17.27.89.89,0,0,0-.35.49c-.05.13-.08.21-.15.25a.39.39,0,0,0-.12.36v0l-.1.09a3.15,3.15,0,0,0-.49.48,1.67,1.67,0,0,0-.21.45,1.19,1.19,0,0,1-.11.26.56.56,0,0,1-.16.19l-.19.23a1,1,0,0,0-.1.25s0,.08,0,.07a1.35,1.35,0,0,0-.43.57,1,1,0,0,1-.24.35,1.1,1.1,0,0,0-.32.47.61.61,0,0,1-.22.33.49.49,0,0,0-.2.33s0,.08,0,.08a1.08,1.08,0,0,0-.25.41.46.46,0,0,1-.14.25,1.72,1.72,0,0,0-.52.87.5.5,0,0,1-.18.23.66.66,0,0,0-.27.42.53.53,0,0,1-.17.26.87.87,0,0,0-.24.34,1.82,1.82,0,0,1-.51.67l0,0H17.5a1.63,1.63,0,0,0-.59-.44,2.27,2.27,0,0,1-.34-.19.24.24,0,0,0-.14-.05h-.51l-1.3-.69a.2.2,0,0,0-.11,0h-.46a2.24,2.24,0,0,1-1-.67v-.5a2.1,2.1,0,0,0,.54-.75c0-.08.08-.17.12-.24s.12-.23.17-.34a1.24,1.24,0,0,1,.45-.64.24.24,0,0,0,.13-.21v-.39l.6-.61a.24.24,0,0,0,.06-.23A.64.64,0,0,1,15.27,26.07Zm15.08-17,.22-.18h.58a.23.23,0,0,0,.16-.06l.19-.18h1.07a.2.2,0,0,0,.16-.07l.17-.15h1.54a.24.24,0,0,0,.18-.07l.14-.14a.63.63,0,0,1,.29,0,1.74,1.74,0,0,0,.32,0,.28.28,0,0,0,.12,0L35.71,8h.83a.22.22,0,0,0,.17-.07l.18-.17h1.77a.25.25,0,0,0,.17-.08L39,7.53h.58a.3.3,0,0,0,.18-.08l.19-.16h.49l-.07.06-.19.18L40,7.66a3.88,3.88,0,0,1-.51.49,1,1,0,0,1-.2.11.94.94,0,0,0-.5.38s-.06,0-.14.06a.73.73,0,0,0-.41.22l-.09,0a.73.73,0,0,0-.4.23,1.9,1.9,0,0,1-.31.33l-.07.06h0a.66.66,0,0,0-.41.19s-.08.08-.1.08a.69.69,0,0,0-.43.22l-.21.21a1,1,0,0,1-.32.25,1.06,1.06,0,0,0-.42.28.94.94,0,0,1-.16.14c-.12.07-.26.13-.39.19l-.28.12a3,3,0,0,0-.32.21,1.45,1.45,0,0,0-.22.21.94.94,0,0,1-.31.25,1.12,1.12,0,0,0-.43.29.87.87,0,0,1-.15.13l-.39.19-.28.13a2.63,2.63,0,0,0-.33.2l-.21.21a1,1,0,0,1-.32.25,1.15,1.15,0,0,0-.42.29,1.53,1.53,0,0,1-.15.13,2,2,0,0,1-.3.14,3.54,3.54,0,0,0-.39.19,2.8,2.8,0,0,0-.33.24,3.3,3.3,0,0,1-.3.22.86.86,0,0,1-.21.07,1.11,1.11,0,0,0-.42.21.9.9,0,0,1-.26.13,1.21,1.21,0,0,0-.41.23.79.79,0,0,1-.16.08.84.84,0,0,0-.36.19h-.72a.2.2,0,0,0-.11,0l-1.27.65h-.74a.23.23,0,0,0-.16.06,2.62,2.62,0,0,1-.57.32,3.05,3.05,0,0,0-.61.34H23a.3.3,0,0,0-.16,0l-.12.12,0,0a1.71,1.71,0,0,0-.92.31,1.08,1.08,0,0,1-.18.11.48.48,0,0,1-.33.05.94.94,0,0,1,.1-.1l.12-.1h.14a.25.25,0,0,0,.23-.16l.12-.33a1.85,1.85,0,0,0,.28-.28,1.26,1.26,0,0,1,.54-.43.84.84,0,0,0,.53-.4.56.56,0,0,0,.06-.31l6.24-6.25h.57A.23.23,0,0,0,30.35,9.11Zm86.43,41.58v.05l-.15.14c-.16.16-.32.31-.46.48a1.35,1.35,0,0,1-.63.42,1.65,1.65,0,0,0-.85.59.58.58,0,0,1-.3.2,1.56,1.56,0,0,0-.28.16,1.9,1.9,0,0,0-.33.3l-.18.19-.07,0a.73.73,0,0,0-.23.1.75.75,0,0,1-.22.11.89.89,0,0,0-.38.23,1.43,1.43,0,0,1-.41.29,1.4,1.4,0,0,0-.59.46,1.12,1.12,0,0,1-.4.29,2.2,2.2,0,0,0-.26.15,2.64,2.64,0,0,0-.46.42l-.07.08h0a.65.65,0,0,0-.43.21.42.42,0,0,1-.12.08.26.26,0,0,0-.25.05l-.17.19c-.13.13-.26.26-.39.37a.82.82,0,0,1-.21.11,1.05,1.05,0,0,0-.48.36,1.11,1.11,0,0,1-.59.4,2,2,0,0,0-.92.64l-.09.1,0,.06a.84.84,0,0,0-.56.34l-.12.12a.78.78,0,0,0-.4.16c-.07.06-.11.09-.18.08l-.4-.55v-.57a.23.23,0,0,0,0-.11l-.7-1.33v-.77a.3.3,0,0,0,0-.16,2.43,2.43,0,0,1-.33-.57,3.09,3.09,0,0,0-.32-.59v-.54a.24.24,0,0,0,0-.14l-.17-.22v-.51a.5.5,0,0,0,0-.12l-.18-.3a1.26,1.26,0,0,1-.29-.81.22.22,0,0,0-.06-.19l-.17-.18v-.6a.22.22,0,0,0-.12-.21c-.07,0-.1-.12-.15-.26a1.21,1.21,0,0,0-.18-.36,1.29,1.29,0,0,0-.18-.61c-.1-.21-.15-.33-.08-.46a.24.24,0,0,0,0-.22L101.38,47v-.73a.27.27,0,0,0,0-.12l-.09-.16-.15-.28-.1-.15-.12-.2a2.68,2.68,0,0,1-.1-.28c0-.07-.05-.16-.09-.26v-.93a.21.21,0,0,0-.07-.17l-.16-.15a1,1,0,0,1-.24-.26.49.49,0,0,1,0-.11,1.16,1.16,0,0,0-.21-.37V42a.27.27,0,0,0-.06-.17l-.18-.19v-.36a.22.22,0,0,0-.07-.17l-.37-.37v-.57a.17.17,0,0,0,0-.07L98.93,39a.26.26,0,0,0-.1-.13l-.25-.15V37.62l.45-.43h.33a.24.24,0,0,0,.17-.06l.19-.18h.37a.23.23,0,0,0,.17-.07l.35-.35a2.34,2.34,0,0,0,1.44-.74h.35a.36.36,0,0,0,.19-.08l.16-.16h.37a.24.24,0,0,0,.18-.07l.3-.31c.07-.07.13-.07.26-.07a.57.57,0,0,0,.5-.23s0,0,.17,0a1.16,1.16,0,0,0,.3,0,.68.68,0,0,0,.34-.28c.12-.14.15-.17.23-.16a.24.24,0,0,0,.23-.09c.1-.13.23-.17.5-.14a.22.22,0,0,0,.24-.14c0-.06.09-.08.23-.12a1.17,1.17,0,0,0,.38-.2.86.86,0,0,1,.52-.22,1,1,0,0,0,.52-.18c.17-.1.24-.13.3-.11a2.21,2.21,0,0,1,.78,1.08,5.11,5.11,0,0,0,.41.76s0,.07,0,.17a.93.93,0,0,0,0,.32.21.21,0,0,0,.06.1,1.78,1.78,0,0,1,.6,1l0,.1a4.41,4.41,0,0,0,.58,1.23.72.72,0,0,1,.09.37c0,.05,0,.11,0,.16a.27.27,0,0,0,.07.14,2,2,0,0,1,.65,1.13,3.94,3.94,0,0,0,.35.78,4.89,4.89,0,0,1,.26.51,1.87,1.87,0,0,0,.17.31c.15.23.2.34.14.48a.24.24,0,0,0,0,.23,1.43,1.43,0,0,0,.26.28c.12.12.19.18.2.29a1,1,0,0,0,.14.33c.07.1.09.14.08.19a.55.55,0,0,0,.18.5.33.33,0,0,1,.06.08.23.23,0,0,0,0,.24l.41.43v.5a.82.82,0,0,0,0,.14.3.3,0,0,0,0,.1,1.42,1.42,0,0,0,.23.25c.12.1.19.16.2.27a.72.72,0,0,0,.15.33c.06.11.08.15.07.2a.52.52,0,0,0,.18.49.8.8,0,0,1,.06.08.25.25,0,0,0,0,.25l.41.44v.08a.62.62,0,0,0,.16.53,1.44,1.44,0,0,1,.22.43,1.54,1.54,0,0,0,.32.59.76.76,0,0,1,0,.17c0,.09,0,.2,0,.32a.28.28,0,0,0,.09.17l.33.26a.62.62,0,0,0,.19.39l.07.08A.73.73,0,0,0,116.78,50.69ZM105.85,66.86l.18.2v.35a.25.25,0,0,0,.06.17l.17.18v.61a.28.28,0,0,0,.07.17l.14.14v.83a.24.24,0,0,0,.07.17l.16.16.06.91a.24.24,0,0,0,.15.21s0,0,0,.19a.69.69,0,0,0,.23.58v.81a.4.4,0,0,0,.09.2l.15.16v.83a.24.24,0,0,0,.07.16l.17.19v.59a.25.25,0,0,0,.06.16l.18.2v.59a.28.28,0,0,0,.07.17l.13.13v1a.25.25,0,0,0,.06.16l.18.23v.57a.25.25,0,0,0,.06.16l.18.21v.58a.28.28,0,0,0,.07.17l.17.19V80a.24.24,0,0,0,.07.16l.18.19v.35a.23.23,0,0,0,.06.16l.16.19v.8l-.8.8-.1,0a.63.63,0,0,0-.48.22,2.07,2.07,0,0,0-.58.17l-.19.08a1.24,1.24,0,0,0-.47.34l-.15.14h-.85a.23.23,0,0,0-.2.11c0,.06-.11.09-.24.13l-.12,0a1.08,1.08,0,0,0-.4.33.18.18,0,0,1,0,.07h-.83a.21.21,0,0,0-.17.07.93.93,0,0,0-.16.18c-.07.09-.16.2-.22.21a1.32,1.32,0,0,0-.5.26h-.5a.22.22,0,0,0-.11,0l-.12.06a2.54,2.54,0,0,0-.9.6h-.55a.22.22,0,0,0-.19.09.71.71,0,0,1-.26.15.89.89,0,0,0-.43.24,1,1,0,0,0-.4.16c-.12.07-.19.11-.27.09a.56.56,0,0,0-.46.17s-.1.09-.12.08a.24.24,0,0,0-.24.08,1.09,1.09,0,0,1-.71.34,1,1,0,0,0-.46.17c-.14.09-.2.12-.29.1a.5.5,0,0,0-.5.17l-.08.06a.26.26,0,0,0-.31.12s0,0-.16.09a.7.7,0,0,0-.36.19s0,0-.14,0a.65.65,0,0,0-.32.06l-.22.12a2,2,0,0,0-.78.54H93.4a.2.2,0,0,0-.11,0L92,89.49h-.5a.27.27,0,0,0-.14.05,3.3,3.3,0,0,1-.32.18,1.77,1.77,0,0,0-.64.47h-1L89.25,90v-.32a.23.23,0,0,0-.06-.16L89,89.29V88a.24.24,0,0,0-.07-.17l-.17-.19V84.48a.23.23,0,0,0-.08-.17l-.13-.14v-.83a.26.26,0,0,0-.07-.17L88.31,83v-1.3a.22.22,0,0,0-.07-.17l-.18-.18v-3.4a.21.21,0,0,0-.07-.17l-.17-.18V76.52a.28.28,0,0,0-.07-.17l-.15-.14v-.82a.27.27,0,0,0-.06-.17L87.36,75v-3.4a.23.23,0,0,0-.07-.17l-.13-.14v-.83a.23.23,0,0,0-.08-.17l-.16-.16V69.4l.06-.09a1.39,1.39,0,0,1,.73-.51l.06,0a2.49,2.49,0,0,0,.7-.49,1.37,1.37,0,0,0,.87-.27,1.18,1.18,0,0,1,.19-.11l.33-.16a3.29,3.29,0,0,0,.76-.41l.16,0a1.52,1.52,0,0,0,.28,0,.69.69,0,0,0,.33-.27c.11-.15.15-.18.24-.17a.26.26,0,0,0,.23-.1c.06-.09.13-.11.33-.12l.24,0a1,1,0,0,0,.3-.14.77.77,0,0,1,.19-.11.87.87,0,0,0,.42-.33l0-.07h.07a.84.84,0,0,0,.5-.13,1.83,1.83,0,0,1,.39-.21,2,2,0,0,0,.36-.18l.06,0c.24-.15.39-.24.58-.18a.26.26,0,0,0,.26-.09.7.7,0,0,1,.36-.18,1,1,0,0,0,.41-.33.39.39,0,0,1,.08-.1h.14a.77.77,0,0,0,.5-.15,3.89,3.89,0,0,1,.76-.4,6.77,6.77,0,0,0,.66-.33.8.8,0,0,1,.26,0l.21,0a.21.21,0,0,0,.13-.07l.34-.34h.08A.92.92,0,0,0,100,63a5.46,5.46,0,0,1,.64-.32,7,7,0,0,0,.81-.43.51.51,0,0,1,.27-.07.78.78,0,0,0,.32-.06.26.26,0,0,0,.09,0,1.15,1.15,0,0,0,.14-.17l.13-.15a1,1,0,0,0,.43-.2.71.71,0,0,1,.17-.09h.32a.27.27,0,0,0,.17-.06l.15-.15.39,0a.2.2,0,0,0,.16-.07l.18-.16.07,0c.12.1.23.21.34.32l.07.06v.61a.27.27,0,0,0,.06.17l.18.19v.94a.16.16,0,0,0,0,.1,2.68,2.68,0,0,0,.12.24l.07.13a.78.78,0,0,0,.17.56.61.61,0,0,1,.07.14,1.76,1.76,0,0,1,0,.34,3,3,0,0,0,0,.31.41.41,0,0,0,.17.26V66.7A.23.23,0,0,0,105.85,66.86ZM44.79,108.22a.81.81,0,0,1-.18-.66c0-.22,0-.44,0-.65v-.24a.25.25,0,0,0-.08-.17l-.15-.15v-.58a.25.25,0,0,0-.06-.16l-.18-.2v-.36a.26.26,0,0,0-.07-.17l-.17-.18v-1.07a.23.23,0,0,0-.07-.17l-.13-.13v-1a.2.2,0,0,0,0-.11l-.47-.83v-.55a.27.27,0,0,0-.05-.15l-.17-.2V99a.35.35,0,0,0-.06-.17l-.18-.19v-.36a.23.23,0,0,0-.06-.16l-.18-.19v-.36a.25.25,0,0,0-.06-.17l-.18-.19V95.69a.24.24,0,0,0-.07-.18l-.07-.06-.07-.08a.26.26,0,0,1,0-.16.67.67,0,0,0-.2-.55l-.05-1,.22-.19h.28l.12.13a.24.24,0,0,0,.18.07h1l.26.21a.24.24,0,0,0,.15.06H47l.15.14a.23.23,0,0,0,.17.07h2l.2.18a.23.23,0,0,0,.16.06h1.29l.18.18a.27.27,0,0,0,.17.06H52.8l.13.13a.32.32,0,0,0,.22.1H55.6l.15.15a.28.28,0,0,0,.17.07h1.3l.18.17a.22.22,0,0,0,.17.07h1.54l.14.15a.24.24,0,0,0,.18.07h2.92l.2.18a.25.25,0,0,0,.16.06h1.06a.59.59,0,0,1,.22.31,1.2,1.2,0,0,0,.22.37v14.07l-.5.4h-3l-.13-.13a.28.28,0,0,0-.17-.07H58.17l-.21-.18a.28.28,0,0,0-.16-.06h-2l-.19-.17a.28.28,0,0,0-.17-.07H49.73l-.14-.14a.21.21,0,0,0-.17-.08h-2.5l-.14-.13a.23.23,0,0,0-.17-.08h-1c-.21-.09-.26-.23-.33-.43a1.33,1.33,0,0,0-.09-.21A1.55,1.55,0,0,0,45,109c-.14-.22-.22-.36-.18-.53A.25.25,0,0,0,44.79,108.22Zm-20.08-5.88-.18-.2v-.78a.24.24,0,0,0,0-.12l-.45-.78v-.57a.26.26,0,0,0-.07-.17l-.13-.13v-.92a.3.3,0,0,0,0-.1c0-.09-.07-.18-.1-.26a1.24,1.24,0,0,0-.27-.49c-.08-.07-.09-.14-.1-.29a.75.75,0,0,0,0-.21.61.61,0,0,0-.19-.31l0,0V96a.25.25,0,0,0-.11-.21c-.08,0-.11-.13-.16-.27a1.25,1.25,0,0,0-.23-.42s0-.08,0-.12a1,1,0,0,0,0-.16.25.25,0,0,0-.06-.16l-.19-.22V93.33a.23.23,0,0,0-.14-.21c-.06,0-.07-.05-.08-.23a.83.83,0,0,0-.07-.39L21.84,92l-.11-.18v-1a.23.23,0,0,0-.07-.17l-.17-.19v-.36a.29.29,0,0,0-.07-.18l-.16-.15,0-.4a.24.24,0,0,0-.07-.16l-.12-.12v-.85a.28.28,0,0,0-.07-.17l-.16-.15v-.54a.24.24,0,0,0,0-.14c-.17-.24-.24-.38-.2-.52h1.35l1.29.66a.2.2,0,0,0,.11,0h.5l.2.18a.39.39,0,0,0,.34,0h.11a1.21,1.21,0,0,0,.43.23c.13.05.21.08.25.14a.25.25,0,0,0,.21.12h.59a.67.67,0,0,0,.4.22c.1,0,.13,0,.14.06a.23.23,0,0,0,.25.14.62.62,0,0,1,.36.11,1,1,0,0,0,.57.14c.05,0,.08,0,.18.09a.56.56,0,0,0,.61.14l.1.08a.65.65,0,0,0,.42.21h0a.9.9,0,0,0,.68.21l.22.17a.25.25,0,0,0,.16.06h.54l.09,0a2.11,2.11,0,0,0,.84.38,2.49,2.49,0,0,1,.58.22.44.44,0,0,0,.35,0h0a1.23,1.23,0,0,0,.4.22,1,1,0,0,1,.19.08,1,1,0,0,0,.63.18l.19.17a.23.23,0,0,0,.16.06h.57a1.69,1.69,0,0,0,.61.34,1,1,0,0,1,.47.27.27.27,0,0,0,.19.08h.59a2.91,2.91,0,0,0,.62.34,2.91,2.91,0,0,1,.55.31.22.22,0,0,0,.15.06h.76a3.37,3.37,0,0,0,.56.3,2.1,2.1,0,0,1,.57.32.21.21,0,0,0,.2.06.26.26,0,0,1,.27.16,1.34,1.34,0,0,0,.18.38c.13.19.17.28.12.41a.23.23,0,0,0,0,.25l.17.19v.59a.23.23,0,0,0,.07.17l.17.18v1.3a.23.23,0,0,0,.06.16l.18.19v.36a.24.24,0,0,0,.07.17l.14.14,0,.64a.24.24,0,0,0,.07.16l.15.15v1.3a.29.29,0,0,0,.07.18l.15.14V101a.23.23,0,0,0,.06.16l.18.2V102a.23.23,0,0,0,.07.17l.17.19v1.06a.29.29,0,0,0,.07.18l.14.13v.6a.22.22,0,0,0,.07.17l.16.16v.55a.25.25,0,0,0,0,.15l.21.28v.82a.26.26,0,0,0,.07.17l.18.18v.83a.22.22,0,0,0,.07.17l.14.14v.36a.2.2,0,0,0,.07.16l.17.19v.5l-.2.2h-.53l-.26-.36a.26.26,0,0,0-.2-.1h-.69l-.18-.17a.23.23,0,0,0-.16-.06h-.52a1.66,1.66,0,0,0-.35-.18,1.83,1.83,0,0,1-.34-.18.67.67,0,0,0-.43-.13c-.17,0-.19,0-.21-.06a.24.24,0,0,0-.22-.14h-.82a3.5,3.5,0,0,0-.62-.35,2.62,2.62,0,0,1-.57-.32.3.3,0,0,0-.15-.05h-1L35,106.59l-.11,0h-1l-.25-.38a.26.26,0,0,0-.2-.1h-.26L33,105.9a.23.23,0,0,0-.16-.06h-1a2.37,2.37,0,0,0-.65-.27,1.33,1.33,0,0,1-.66-.33.27.27,0,0,0-.19-.08h-.58l-.21-.18a.23.23,0,0,0-.16-.06h-.53l-1.28-.66-.11,0h-.92l-.2-.11a4.76,4.76,0,0,1-.45-.24.81.81,0,0,1-.14-.12,1,1,0,0,0-.49-.28c-.08,0-.19-.15-.29-.26l-.12-.14v-.59A.23.23,0,0,0,24.71,102.34ZM13.54,45.58l.07-.08a.61.61,0,0,0,.19-.41l.38-.4a.28.28,0,0,0,.07-.17V44a5.2,5.2,0,0,1,.27-.52,2.45,2.45,0,0,0,.44-1.2.26.26,0,0,1,.07-.1.88.88,0,0,0,.12-.17l.06-.1a1.71,1.71,0,0,0,.19-.46.62.62,0,0,1,.08-.12.58.58,0,0,0,.16-.6s0-.06.06-.08a.84.84,0,0,0,.17-.26,2.86,2.86,0,0,1,.2-.44,2.65,2.65,0,0,0,.25-.54.34.34,0,0,1,.09-.13.61.61,0,0,0,.16-.63s0,0,.07-.14a.67.67,0,0,0,.18-.31,1.76,1.76,0,0,1,.21-.44,1.87,1.87,0,0,0,.29-.84,1.93,1.93,0,0,0,.23-.38c.09-.19.14-.3.27-.35a.24.24,0,0,0,.16-.23v-.61l.26-.46.46-.23h.69l.18.15a.2.2,0,0,0,.16.07h.36l.19.17a.21.21,0,0,0,.17.07H21l1.27.65a.2.2,0,0,0,.11,0h.49l.14.09a1.9,1.9,0,0,0,1,.4h0a.76.76,0,0,0,.52.19l.16,0a1.47,1.47,0,0,0,.28.14.83.83,0,0,1,.3.17c.09.08.22.21.39.14s.13,0,.29.09a1,1,0,0,0,.46.17h.42l.29.29.1.1a.23.23,0,0,0,.17.07h.37l.18.17a.28.28,0,0,0,.17.07h.58l.38.37a.24.24,0,0,0,.22.06.76.76,0,0,1,.43.12,1.23,1.23,0,0,0,.85.13l.42.54v.43l-.41.73a.27.27,0,0,0,0,.12v.53l-.18.18a.27.27,0,0,0-.06.17v.32l0,.06c-.06.1-.11.22-.18.33s-.1.16-.15.24l-.07.12a.2.2,0,0,0,0,.13V43h0a.72.72,0,0,0-.24.58.39.39,0,0,1,0,.22,1.33,1.33,0,0,0-.27.46c0,.08-.07.16-.12.24a.43.43,0,0,0,0,.11v.51l-.18.19a.23.23,0,0,0-.06.16v.36l-.17.19a.2.2,0,0,0-.07.16v.31l-.42.81a.36.36,0,0,0,0,.11v.7l-.14.22a1.84,1.84,0,0,0-.36,1l-.16.17a.27.27,0,0,0-.06.17v.54l-.66,1.27a.23.23,0,0,0,0,.11v.71l-.1.17a1.88,1.88,0,0,0-.39,1.06l-.16.18a.24.24,0,0,0-.07.16v.56l-.68,1.28a.23.23,0,0,0,0,.2c.06.15,0,.3-.09.54a1.4,1.4,0,0,0-.15.83l-.37.28a.24.24,0,0,0-.1.19v.68l-.17.19a.28.28,0,0,0-.07.17v.55l-.7.7h-.09a.36.36,0,0,1-.22,0c-.34-.21-.7-.38-1-.56l-.41-.2L21.52,59a8.71,8.71,0,0,1-.91-.48,1,1,0,0,0-.44-.1h-.09s-.1-.06-.17-.15a.72.72,0,0,0-.59-.32l-.08-.06a.74.74,0,0,0-.23-.14.76.76,0,0,0-.33,0,1.63,1.63,0,0,0-.77-.54l-.22-.11-.64-.31-.53-.25-.13-.06c-.31-.16-.62-.31-.92-.49a4.66,4.66,0,0,0-.6-.28,5.85,5.85,0,0,1-.56-.27,10.83,10.83,0,0,0-1.08-.53l0-.05-.06-.07a.24.24,0,0,0-.18-.07h-.34a1.3,1.3,0,0,0-.58-.43,2.48,2.48,0,0,1-.29-.17.71.71,0,0,0-.45-.11H11.2l-.69-.84v-.75a1.92,1.92,0,0,0,.22-.39c.1-.23.17-.36.32-.42a.22.22,0,0,0,.16-.22v-.41l.18-.2a.23.23,0,0,0,.06-.16v-.35l.35-.35a.21.21,0,0,0,.07-.21.77.77,0,0,1,.11-.42,1.37,1.37,0,0,0,.17-.63,1.43,1.43,0,0,0,.42-.57,1.92,1.92,0,0,1,.22-.35.28.28,0,0,0,.07-.17V47a1.14,1.14,0,0,1,.11-.11.91.91,0,0,0,.36-.58.33.33,0,0,1,.07-.13A.67.67,0,0,0,13.54,45.58Zm8.15-16.53a.26.26,0,0,1,.07-.1.57.57,0,0,0,.2-.41s0-.07.13-.15a.81.81,0,0,0,.25-.29l.05-.12a1,1,0,0,1,.22-.36,1.92,1.92,0,0,0,.46-.8c0-.08.07-.17.11-.26l.05,0a3.08,3.08,0,0,0,.48-.48,1.1,1.1,0,0,0,.18-.4.58.58,0,0,1,.11-.25,3.39,3.39,0,0,0,.56-.87,2.3,2.3,0,0,1,.6-.85.61.61,0,0,0,.29-.47c0-.06,0-.1.16-.21a.74.74,0,0,0,.33-.6h0a.65.65,0,0,0,.21-.35c0-.13.12-.22.28-.36a1.33,1.33,0,0,0,.39-.45l.12-.28a1.38,1.38,0,0,1,.28-.52,1.92,1.92,0,0,0,.34-.48,1.25,1.25,0,0,1,.37-.47.72.72,0,0,0,.25-.34.26.26,0,0,1,0-.09l.22-.38a2.19,2.19,0,0,1,.34-.53,1.9,1.9,0,0,0,.33-.59,3.09,3.09,0,0,1,.14-.32l.08-.11a.77.77,0,0,0,.61-.34,1.84,1.84,0,0,1,.14-.14h.1c.2,0,.22,0,.25.07a.25.25,0,0,0,.23.12c.05,0,.1,0,.18.09a.87.87,0,0,0,.36.18h.16c.18,0,.23,0,.27.1a.25.25,0,0,0,.22.12h.81l.08.06a.9.9,0,0,0,.37.17.35.35,0,0,1,.12.08.63.63,0,0,0,.58.17s.09,0,.16.08a.66.66,0,0,0,.72.13s.07,0,.22.09a.94.94,0,0,0,.51.19h0a1.14,1.14,0,0,1,.39.12,2,2,0,0,0,.45.14l0,0,.07.09a.26.26,0,0,0,.17.07h.59l.19.17a.28.28,0,0,0,.17.07h.33l.76.41a.27.27,0,0,0,.12,0h.7l.2.12.55.32a.76.76,0,0,0,.41,0h.12a.12.12,0,0,1,0,.05.24.24,0,0,0,.23.19h.64l.19.18a.27.27,0,0,0,.17.06h.32l.77.41a.27.27,0,0,0,.12,0h.68l.54.27c0,.2,0,.42,0,.65v.05l-.11.1a1.93,1.93,0,0,0-.43.47l-.07.13a1.92,1.92,0,0,1-.39.53l-.3.3a3.7,3.7,0,0,1-.28.28,1.33,1.33,0,0,0-.3.44.69.69,0,0,1-.18.29l-.09.07a.87.87,0,0,0-.43.64l-.23.24a3.47,3.47,0,0,0-.64.79,2.69,2.69,0,0,1-.46.55,2.81,2.81,0,0,0-.34.35,1.45,1.45,0,0,0-.19.34.57.57,0,0,1-.16.27,1.85,1.85,0,0,0-.6.8.69.69,0,0,1-.21.21,1.06,1.06,0,0,0-.34.41,1.21,1.21,0,0,1-.36.53,4.71,4.71,0,0,0-1.14,1.39l0,.08a5.63,5.63,0,0,1-.73.92l-.16.14a1,1,0,0,0-.38.47,1.16,1.16,0,0,1-.29.45l-.09.1-.1.09a.66.66,0,0,0-.3.54l-.14.13a2.05,2.05,0,0,0-.51.63,1.63,1.63,0,0,1-.5.6,1.68,1.68,0,0,0-.39.53,1.18,1.18,0,0,1-.2.31l-.15.16a1.31,1.31,0,0,0-.48.71l-.86.86h-.51l-.33-.35a.25.25,0,0,0-.16-.08l-.45-.05L30.2,37A.23.23,0,0,0,30,37h-.54l-1.31-.7-.12,0H27.3L27,35.87a.23.23,0,0,0-.14-.07l-.46,0-.12-.12a.25.25,0,0,0-.17-.08h-.54l-1.31-.69-.12,0h-.73l-1.24-.67a.21.21,0,0,0-.15,0,.73.73,0,0,1-.43-.11,1,1,0,0,0-.78-.13l0,0-.28-.17-.29-.16L20,33.46a.23.23,0,0,0-.11,0h-.3l-.4-.4a2.13,2.13,0,0,1,.38-.72,2.7,2.7,0,0,0,.64-.89l.06-.15c.07-.19.12-.32.24-.38a.6.6,0,0,0,.28-.44c0-.09,0-.12.05-.14a1.16,1.16,0,0,0,.46-.68c0-.05.1-.12.18-.18l.15-.14A.26.26,0,0,0,21.69,29.05Zm79.78-5.11a2.76,2.76,0,0,1,.61.73,3.8,3.8,0,0,0,.63.77,1.7,1.7,0,0,0,.53.75,2.83,2.83,0,0,1,.24.25,5.92,5.92,0,0,1,.35.48l.22.31a3,3,0,0,0,.29.32,1.34,1.34,0,0,1,.33.42,2.17,2.17,0,0,0,.5.62l.15.15a.89.89,0,0,0,.39.63,1.17,1.17,0,0,1,.16.15,2.68,2.68,0,0,0,.28.3,2.28,2.28,0,0,1,.46.61,1.93,1.93,0,0,0,.59.68l.21.19v.41l-.77.76h-.4a.22.22,0,0,0-.15.06,1.9,1.9,0,0,1-.37.22,1.45,1.45,0,0,0-.61.45h-.35a.24.24,0,0,0-.18.07l-.13.13h0a.84.84,0,0,0-.5.1l-.18.09a1.16,1.16,0,0,0-.33.18.43.43,0,0,1-.19.1.77.77,0,0,0-.41.24h-.11a.57.57,0,0,0-.37.08,2.57,2.57,0,0,1-.33.18,1.47,1.47,0,0,0-.64.46h-.47a.27.27,0,0,0-.12,0l-.25.12a1.67,1.67,0,0,0-.76.54,2.46,2.46,0,0,0-1.43.71h-.94l-.07-.06c-.13-.12-.16-.16-.14-.26a.29.29,0,0,0-.07-.22l-.23-.21-.51-.5-.52-.51-.22-.23L95.4,34a6,6,0,0,1-.5-.51,2.66,2.66,0,0,0-.24-.23c-.19-.16-.3-.26-.3-.46a.21.21,0,0,0-.08-.17l-.37-.37-.76-.75-.79-.79-.31-.31a1.84,1.84,0,0,0-.7-.94,2.58,2.58,0,0,1-.34-.32c-.25-.29-.53-.56-.81-.83L89.85,28l-.34-.35c-.27-.27-.54-.56-.83-.81a2.38,2.38,0,0,1-.43-.55,2.53,2.53,0,0,0-.55-.69,9.57,9.57,0,0,1-.8-.77l-.35-.36-.35-.35q-.39-.42-.81-.81a1,1,0,0,1-.19-.3,1.22,1.22,0,0,0-.41-.55A3.44,3.44,0,0,1,84.3,22l-.22-.24-.68-.68v-.52a1,1,0,0,1,.45-.29l.24-.12a.82.82,0,0,0,.55-.16.75.75,0,0,1,.18-.09.83.83,0,0,0,.51-.33.92.92,0,0,1,.14-.14H86a.28.28,0,0,0,.13,0l.25-.14a2.17,2.17,0,0,0,.73-.5,1.32,1.32,0,0,0,.59-.17,1.89,1.89,0,0,1,.21-.09,1.17,1.17,0,0,0,.46-.32.53.53,0,0,1,.13-.13,1,1,0,0,0,.6-.14.67.67,0,0,1,.46-.1.22.22,0,0,0,.26-.1l.24-.36h.11a1,1,0,0,0,.69-.23.69.69,0,0,0,.42-.19.41.41,0,0,1,.12-.09,1.64,1.64,0,0,0,.79-.39s.07,0,.19,0a.66.66,0,0,0,.44-.12,1.7,1.7,0,0,1,.3-.18,1.3,1.3,0,0,0,.56-.42h1.41a2.23,2.23,0,0,1,.56.73,1.4,1.4,0,0,0,.36.47,1.44,1.44,0,0,1,.3.41,2.13,2.13,0,0,0,.41.56,2,2,0,0,1,.34.43,2.17,2.17,0,0,0,.4.54,2.05,2.05,0,0,1,.34.45,2.5,2.5,0,0,0,.6.66l.18.15a.9.9,0,0,0,.42.67l.15.13a.88.88,0,0,1,.16.27,1.15,1.15,0,0,0,.35.49A3.22,3.22,0,0,1,100,22c.11.11.22.23.34.33a.66.66,0,0,1,.17.27,1,1,0,0,0,.33.48,3.29,3.29,0,0,1,.43.41.8.8,0,0,0,.13.13A.34.34,0,0,0,101.47,23.94Zm-13.83,67a.24.24,0,0,0-.11.06l-.15.15c-.22,0-.45,0-.7,0a8.75,8.75,0,0,0-.88,0,.18.18,0,0,0-.15.07.27.27,0,0,0-.07.08h0a1.67,1.67,0,0,0-.6.17.91.91,0,0,1-.64.11.24.24,0,0,0-.23,0l-.22.19H81.43a.23.23,0,0,0-.16.06l-.2.18h-.36a.23.23,0,0,0-.16.06l-.19.18h-.6a.22.22,0,0,0-.17.07l-.14.14,0,0h-2.7a.29.29,0,0,0-.18.07l-.15.16a.57.57,0,0,1-.23,0,.69.69,0,0,0-.67.2c0,.06-.1.06-.28,0a.85.85,0,0,0-.53.07l0,0-.1.11H72.33a.23.23,0,0,0-.16.06l-.21.18h-.59a.23.23,0,0,0-.16.06L71,93.7h-.6a.21.21,0,0,0-.17.07l-.16.15c-.31,0-.63,0-1,0H68.06a.25.25,0,0,0-.16.08l-.14.13h-.83a.26.26,0,0,0-.17.07l-.16.16h-1l-.14-.13c-.1-1.75-.13-11,0-19.73a.58.58,0,0,1,.31-.2,1.54,1.54,0,0,0,.38-.23h1.05a.22.22,0,0,0,.17-.07l.17-.17h.1a.56.56,0,0,0,.56-.2s0,0,.14,0a.69.69,0,0,0,.24,0,.64.64,0,0,0,.27-.15s.08-.06.1-.06a1.29,1.29,0,0,1,.48,0,1.5,1.5,0,0,0,.86-.16,1.1,1.1,0,0,1,.47-.14.34.34,0,0,0,.28-.17h.34a.24.24,0,0,0,.17-.06l.19-.18h1.06a.24.24,0,0,0,.18-.07l.13-.13h.63a.25.25,0,0,0,.22-.15c0-.08.07-.09.27-.11a.72.72,0,0,0,.53-.2L75.6,72a.24.24,0,0,0,.16-.07l.12-.12h.76a.28.28,0,0,0,.13,0l.78-.45h.81a.21.21,0,0,0,.17-.07l.14-.13h1.09a.25.25,0,0,0,.23-.16c0-.1.07-.11.27-.12a.93.93,0,0,0,.46-.12,1.72,1.72,0,0,1,.5-.2l.39-.12h1.15a.25.25,0,0,0,.16-.06l.21-.18h.35a.27.27,0,0,0,.17-.06l.18-.18h.37a.23.23,0,0,0,.16-.06l.18-.17h1a.57.57,0,0,0,.11.11c.08.06.1.09.11.14a1.09,1.09,0,0,0,.17.36l.06.09v2.91a.22.22,0,0,0,.07.17l.15.15a6.05,6.05,0,0,1,0,.61,4.76,4.76,0,0,0,0,.75.21.21,0,0,0,.07.14l.11.12v1a.2.2,0,0,0,.06.15l.21.27v2.93a.23.23,0,0,0,.07.17l.17.18v1.3a.28.28,0,0,0,.07.17l.13.13v1.3a.24.24,0,0,0,.07.16l.17.19v2.94a.25.25,0,0,0,.08.17l.13.13v1.07a.26.26,0,0,0,.07.17l.18.18v1.3a.23.23,0,0,0,.07.17l.15.16V90.9h-.1A.92.92,0,0,0,87.64,90.91ZM65.34,72.18,65.17,72V57.49l.18-.19a.27.27,0,0,0,.06-.17v-.36a.55.55,0,0,0,.2-.3.36.36,0,0,0,0-.11s0,0,0,0a.78.78,0,0,0,.32-.14.64.64,0,0,1,.16-.07.67.67,0,0,0,.41-.24l.06-.07a.4.4,0,0,0,.13-.13,3.11,3.11,0,0,0,1-.52,2.67,2.67,0,0,1,.8-.45A.92.92,0,0,0,69,54.4c.1-.12.16-.17.25-.18a1.31,1.31,0,0,0,.82-.44,1.35,1.35,0,0,1,.52-.34l.14-.07a3.92,3.92,0,0,0,.66-.42l.12-.1a2,2,0,0,1,.39-.18,2.76,2.76,0,0,0,.4-.16,2.42,2.42,0,0,0,.66-.45.51.51,0,0,1,.22-.12.8.8,0,0,0,.34-.2.69.69,0,0,1,.21-.1.94.94,0,0,0,.49-.34.88.88,0,0,1,.59-.31,1,1,0,0,0,.51-.33.57.57,0,0,1,.24-.19,3.73,3.73,0,0,0,1.23-.61,3.58,3.58,0,0,1,1-.55.91.91,0,0,0,.37-.29c.13-.14.18-.18.26-.17a.25.25,0,0,0,.24-.12c0-.08.08-.1.28-.1a2.4,2.4,0,0,0,.28,0,.19.19,0,0,0,.11-.07l0,0,.1.07a.91.91,0,0,0,.21.05l.24.46a.34.34,0,0,1,0,.22.76.76,0,0,0,.21.67c.06.05.06.1,0,.28a1.52,1.52,0,0,0,0,.37.34.34,0,0,0,.06.12l.16.18v.35a.27.27,0,0,0,.06.17l.18.19V52a.27.27,0,0,0,.06.17l.18.18a2.47,2.47,0,0,1,0,.38c0,.13,0,.26,0,.35a.29.29,0,0,0,0,.09l.19.37a3.1,3.1,0,0,1,.26.57,3.58,3.58,0,0,0,.11.35,1.29,1.29,0,0,1,.12.88.23.23,0,0,0,0,.2l.45.8v.33a.23.23,0,0,0,.06.16l.18.19c0,.11,0,.24,0,.37a3.84,3.84,0,0,0,0,.48.35.35,0,0,0,.06.14l.16.18a1.81,1.81,0,0,0,.29.9,2.27,2.27,0,0,1,.17.31v.74a.22.22,0,0,0,.06.15l.18.22h0a.58.58,0,0,0,.09.49.7.7,0,0,1,.13.26,1.05,1.05,0,0,0,.26.45v.8a.24.24,0,0,0,.07.18l.15.14s0,.09,0,.21a.85.85,0,0,0,0,.39.2.2,0,0,0,0,.08,1.13,1.13,0,0,0,.1.13l.09.11a1,1,0,0,0,.19.43l0,0s0,.05,0,.07a.78.78,0,0,0,0,.21,2.47,2.47,0,0,0,.13.33l.08.17v.69a.21.21,0,0,0,0,.12l.45.79V67a.24.24,0,0,0,.07.17l.16.16c0,.22,0,.47,0,.72l-.42.44a.63.63,0,0,0-.44.21l0,0h-.55a.52.52,0,0,0-.19.08l-.17.13H82.21a.24.24,0,0,0-.12,0l-.27.17a1.3,1.3,0,0,1-.84.29.34.34,0,0,0-.21.08l-.17.15H79.08a.26.26,0,0,0-.17.07l-.19.17h-.29a.2.2,0,0,0-.11,0l-.77.41H76.13a.33.33,0,0,0-.14,0l-.15.11a.62.62,0,0,1-.18.11h-.12a.54.54,0,0,0-.53.22h-.08a.9.9,0,0,0-.22,0,1.4,1.4,0,0,0-.33.15l-.13.06H73a.24.24,0,0,0-.16.07l-.19.17h-.36a.25.25,0,0,0-.18.08l-.14.14-.42,0a.26.26,0,0,0-.15.07l-.12.12H70.11a.23.23,0,0,0-.11,0,1.13,1.13,0,0,0-.22.11.72.72,0,0,1-.26.11,1.19,1.19,0,0,0-.62.25l-.1,0a.68.68,0,0,0-.35.19h-1a.28.28,0,0,0-.17.07l-.18.17h-.83a.28.28,0,0,0-.17.07l-.17.16h-.27l-.2-.2v-.35A.23.23,0,0,0,65.34,72.18ZM87.12,43.75l.52-.25a9.82,9.82,0,0,0,1.24-.65l.19-.12a2.44,2.44,0,0,1,.78-.41A.25.25,0,0,0,90,42.2c0-.06.1-.08.23-.13a.81.81,0,0,0,.51-.36.16.16,0,0,1,0-.06l.26-.1a2.12,2.12,0,0,0,.57-.27l.15-.12a2.79,2.79,0,0,1,.53-.34c.36-.16.69-.33,1-.5l.34-.16a2.69,2.69,0,0,0,.65-.38,3.29,3.29,0,0,1,.68-.4l.22-.12.18-.08a2.55,2.55,0,0,0,.83-.58h1l.47.58a.74.74,0,0,0,.18.79v.55a.21.21,0,0,0,.05.15,3.34,3.34,0,0,1,.35.62,4,4,0,0,0,.31.57v.72a.23.23,0,0,0,0,.11L99.25,44v.75a.28.28,0,0,0,0,.16,2.73,2.73,0,0,1,.33.58,3.15,3.15,0,0,0,.33.59v.73a.36.36,0,0,0,0,.1,1.19,1.19,0,0,1,.08.16,2,2,0,0,1,.14.3.7.7,0,0,0,.17.27s.06.07.06.09a.67.67,0,0,0,.22.67v.56a.25.25,0,0,0,.06.16,2.41,2.41,0,0,1,.32.57,3.93,3.93,0,0,0,.33.6v.54a.24.24,0,0,0,0,.14l.16.22v.64a.25.25,0,0,0,.11.21l.37.24v.9a.2.2,0,0,0,.07.16l.18.21v.08a.8.8,0,0,0,.21.62.48.48,0,0,1,.08.16,1.05,1.05,0,0,0,.15.3.82.82,0,0,0,.16.58.64.64,0,0,1,.09.22,1.31,1.31,0,0,1,0,.28v.14a.52.52,0,0,0,0,.11l.67,1.27V58a.2.2,0,0,0,0,.11l.42.76s0,.09,0,.21v.2c0,.11,0,.21,0,.29v0c-.06.12-.15.16-.32.23a1.35,1.35,0,0,0-.34.17.47.47,0,0,1-.23,0,1.46,1.46,0,0,0-.22,0,.2.2,0,0,0-.13.06l-.1.11a1.83,1.83,0,0,1-.64.48h-.63l-.11,0a1.15,1.15,0,0,0-.35.29c-.1.1-.15.16-.23.17a1.34,1.34,0,0,0-.36.15.42.42,0,0,1-.29.1.59.59,0,0,0-.47.17.55.55,0,0,1-.18.1.74.74,0,0,0-.45.34l-.06.06h-.54l-.09,0a.8.8,0,0,0-.26.19l0,0a.21.21,0,0,0-.27,0l-.44.41h0a1.43,1.43,0,0,0-.29,0,.85.85,0,0,0-.37.18.54.54,0,0,1-.22.1.75.75,0,0,0-.44.34l0,.06h-.34a.28.28,0,0,0-.17.07l-.19.17H95a.25.25,0,0,0-.19.09,2.11,2.11,0,0,1-1,.63,2.13,2.13,0,0,0-1.24.69h-.59a.36.36,0,0,0-.19.08l-.07.07-.53.53H90.6a.19.19,0,0,0-.14.05,3.25,3.25,0,0,1-.37.21,1.76,1.76,0,0,0-.62.45.89.89,0,0,0-.75.27,3.43,3.43,0,0,0-.76.33,4,4,0,0,1-.66.32h-.62L86,66.12v-.76a.23.23,0,0,0-.06-.16l-.18-.2v-.59a.27.27,0,0,0-.06-.17l-.42-.44v-.59a.23.23,0,0,0-.07-.17l-.13-.13v-.72a.36.36,0,0,0,0-.11l-.7-1.33v-.93a.52.52,0,0,0,0-.11l-.66-1.28V57.28a.23.23,0,0,0,0-.11l-.69-1.32v-.93a.2.2,0,0,0,0-.11l-.66-1.3,0-.85a.21.21,0,0,0-.11-.18c-.1-.07-.11-.14-.09-.39a2.25,2.25,0,0,0,0-.36.21.21,0,0,0-.07-.13l-.38-.39v-.82a.28.28,0,0,0-.07-.17L81.29,50v-.52a.2.2,0,0,0,0-.11l-.41-.77v-1l.07-.09a1,1,0,0,1,.47-.37,1.06,1.06,0,0,0,.44-.31c.13-.13.2-.2.32-.2h0a.24.24,0,0,0,.2-.12s.08-.06.2-.1a.93.93,0,0,0,.45-.28,1.07,1.07,0,0,1,.51-.32,1.64,1.64,0,0,0,.75-.49s.08,0,.15-.06a.84.84,0,0,0,.35-.18.64.64,0,0,0,.41-.21l.1-.08a.25.25,0,0,0,.27,0l.39-.39h.39a.24.24,0,0,0,.2-.11l.39-.56A.28.28,0,0,0,87.12,43.75ZM25.87,59.36v0a.72.72,0,0,0,0-.19,2.17,2.17,0,0,0,0-.26c0-.21,0-.25.08-.3a.24.24,0,0,0,.11-.19l.06-.68.34-.24a.23.23,0,0,0,.1-.2V56.8l.18-.19a.27.27,0,0,0,.06-.17v-.79l.66-1.26a.43.43,0,0,0,0-.11v-.69l.7-1.3a.5.5,0,0,0,0-.12v-.72l.66-1.26a.52.52,0,0,0,0-.11v-.73l.19-.22a.3.3,0,0,0,.05-.16v-.36l.39-.31a.23.23,0,0,0,.1-.19v-.67l.13-.13a.28.28,0,0,0,.07-.17v-.61l.42-.42a.23.23,0,0,0,.07-.17v-.6l.15-.15a.25.25,0,0,0,.08-.17v-.6l.37-.25a.25.25,0,0,0,.11-.21v-.72l.16-.18a.23.23,0,0,0,.07-.17v-.54L32,41.06A.2.2,0,0,0,32,41V40.2l.52-.43h.42a1.16,1.16,0,0,0,.76.22l.43.51a.16.16,0,0,0,.08.06l.49.22c.33.15.59.26.85.4a1.13,1.13,0,0,1,.22.22l.14.15a.28.28,0,0,0,.17.07h.35A1.45,1.45,0,0,0,37,42a1.33,1.33,0,0,1,.31.18.23.23,0,0,0,.18.05c.09,0,.15,0,.28.18a.84.84,0,0,0,.54.34,1.61,1.61,0,0,0,.41.25.82.82,0,0,1,.34.21,1.61,1.61,0,0,0,.64.4l.09.05a.78.78,0,0,0,.37,0h0l.44.59a.22.22,0,0,0,.19.1h.53a1.56,1.56,0,0,0,.63.47l.26.14a1.82,1.82,0,0,0,.43.19,1.34,1.34,0,0,1,.34.15l.16.13a4.43,4.43,0,0,0,.6.39L44,46c.2.08.33.13.39.26a.23.23,0,0,0,.15.14,1.09,1.09,0,0,1,.29.14,1.48,1.48,0,0,0,.75.24l.41.5a.2.2,0,0,0,.13.08,2.6,2.6,0,0,1,.5.2,1.86,1.86,0,0,0,.41.17.51.51,0,0,1,.14.13.9.9,0,0,0,.5.33,1.6,1.6,0,0,1,.58.34l.07.06a3.27,3.27,0,0,1,.38.37,1.31,1.31,0,0,1,.11.12v.48a1.15,1.15,0,0,0-.17.33.4.4,0,0,1-.08.16.73.73,0,0,0-.17.47.56.56,0,0,1,0,.1,3.56,3.56,0,0,0-.25.66,1.51,1.51,0,0,1-.38.78.29.29,0,0,0-.07.18v.58l-.18.21a.25.25,0,0,0-.06.16v.35L47,54a.27.27,0,0,0-.06.17v.59l-.14.13a.29.29,0,0,0-.07.16l0,.65-.36.37a.22.22,0,0,0-.07.17v.35l-.18.21a.23.23,0,0,0-.06.16v.57a3.11,3.11,0,0,0-.34.61,2.73,2.73,0,0,1-.32.56.28.28,0,0,0-.05.16v.75l-.67,1.27a.5.5,0,0,0,0,.12v.5a3.11,3.11,0,0,0-.34.61,2.73,2.73,0,0,1-.32.56.22.22,0,0,0-.05.16v.54a.88.88,0,0,1-.07.13.73.73,0,0,0-.19.54.76.76,0,0,1-.21.49.91.91,0,0,0-.23.7L43,65.4a.24.24,0,0,0-.07.16v.59l-.4.42a.28.28,0,0,0-.07.17v.56h0a1.1,1.1,0,0,0-.2.32.88.88,0,0,0,0,.31v.13a.12.12,0,0,1-.05.05.43.43,0,0,0-.15.3c0,.06,0,.09-.11.18l0,0-.22.22,0,.06H40.9l-.6-.67a.28.28,0,0,0-.2-.06.27.27,0,0,0-.12,0L39.64,68a.27.27,0,0,0-.12,0h-.3a1.22,1.22,0,0,0-.54-.41,1.49,1.49,0,0,1-.31-.18.66.66,0,0,0-.47-.12h-.11a.45.45,0,0,1-.12-.12.9.9,0,0,0-.48-.34.88.88,0,0,1-.21-.09,1.23,1.23,0,0,0-.26-.12.81.81,0,0,0-.3,0,1.27,1.27,0,0,0-.55-.4,1.19,1.19,0,0,1-.3-.18.65.65,0,0,0-.47-.12H35l-.31-.4a.23.23,0,0,0-.19-.1h0a.27.27,0,0,0-.12,0L34,65.23a.17.17,0,0,0-.12,0H33.6a2.89,2.89,0,0,0-1.26-.69,2.15,2.15,0,0,1-.77-.39,2.33,2.33,0,0,0-1.24-.56l0-.07a.75.75,0,0,0-.45-.33.49.49,0,0,1-.21-.1.75.75,0,0,0-.38-.18H29a2.54,2.54,0,0,0-1.14-.62l-.21-.07a5.34,5.34,0,0,1-1.09-.58.87.87,0,0,0-.48-.12H25.9L25.47,61v-.29a.34.34,0,0,0-.09-.19l-.06-.07.08-.09a.23.23,0,0,0,.06-.16v-.36l.34-.34A.21.21,0,0,0,25.87,59.36ZM63,94.62l-.17-.15a.26.26,0,0,0-.16-.07H61.65l-.19-.17a.24.24,0,0,0-.16-.07H60l-.09-.09,0,0a.35.35,0,0,0-.23-.1H56l-.14-.14a.28.28,0,0,0-.17-.07h-1l-.27-.21a.27.27,0,0,0-.15-.05H53l-.14-.15a.28.28,0,0,0-.17-.07h-3.4l-.19-.18a.27.27,0,0,0-.17-.06H47.87l-.19-.17a.23.23,0,0,0-.17-.07h-1l-.1-.1,0,0a.35.35,0,0,0-.22-.1H42.49l-.13-.13a.26.26,0,0,0-.15-.07l-.44,0-.17-.17,0,0V86.68l.15-.14a.29.29,0,0,0,.07-.18V84.13L42,84a.21.21,0,0,0,.07-.17V81.55l.18-.18a.23.23,0,0,0,.07-.17V74.06l.14-.14a.25.25,0,0,0,.08-.18v-2l.17-.19a.24.24,0,0,0,.07-.16v-.13l.2-.2h2.37l.18.16a.23.23,0,0,0,.16.06h.82l.19.17a.22.22,0,0,0,.17.07h.82l.14.14a.22.22,0,0,0,.14.06,3.87,3.87,0,0,0,.76,0c.2,0,.4,0,.6,0l.13.13a.28.28,0,0,0,.17.07h1.28l.27.21a.25.25,0,0,0,.15,0h.57l.15.15a.24.24,0,0,0,.17.07H53l.2.18a.23.23,0,0,0,.16.06h1.52l.19.18a.27.27,0,0,0,.17.06h.59l.14.14a.24.24,0,0,0,.17.07H57l.16.16a.23.23,0,0,0,.17.07h1.74l.27.21a.22.22,0,0,0,.15.06h.58l.14.14a.23.23,0,0,0,.17.07H61l.2.18a.23.23,0,0,0,.16.06h2a.89.89,0,0,0,.54.26.25.25,0,0,1,.12.13.91.91,0,0,0,.26.53V94.38l-.48.24Zm0-21.73-.15-.16a.28.28,0,0,0-.17-.07h-.84l-.14-.14a.23.23,0,0,0-.17-.07H59.79l-.19-.18a.23.23,0,0,0-.16-.06h-.37L58.89,72a.27.27,0,0,0-.17-.06H57.9l-.14-.14a.23.23,0,0,0-.17-.07h-2l-.17-.18a.23.23,0,0,0-.17-.07h-.6l-.15-.15a.24.24,0,0,0-.18-.07h-.58l-.21-.18a.23.23,0,0,0-.16-.06H51.15L51,70.87a.27.27,0,0,0-.17-.06H50l-.18-.18a.27.27,0,0,0-.17-.06h-.35l-.21-.18a.23.23,0,0,0-.16-.06H46.68l-.14-.14a.22.22,0,0,0-.23-.06,1,1,0,0,1-.63-.11,1.75,1.75,0,0,0-.84-.15l-.19-.17a.3.3,0,0,0-.16,0H43.43l-.2-.25v-.71l.41-.74a.16.16,0,0,0,0-.12v-.29l.12-.13a.84.84,0,0,0,.12-.57.74.74,0,0,1,0-.26l.33-.34a.23.23,0,0,0,.08-.18,1.2,1.2,0,0,1,.13-.5,1.32,1.32,0,0,0,.15-.82l.67-1.25a.2.2,0,0,0,0-.11v-.72L46,61.39a.2.2,0,0,0,0-.11v-.7a2.05,2.05,0,0,0,.23-.4c.11-.23.19-.38.35-.45a.25.25,0,0,0,.14-.23v-.81l.65-1.27a.2.2,0,0,0,0-.11v-.49l.18-.22a.22.22,0,0,0,.06-.15V56.1l.42-.43a.24.24,0,0,0,.06-.17v-.59l.14-.14a.21.21,0,0,0,.07-.15l0-.65.35-.36a.21.21,0,0,0,.07-.14l.05-.45.13-.13a.21.21,0,0,0,.07-.17v-.53l.67-1.31a.43.43,0,0,0,0-.11V50L50,49.8h.71c.69.38,1.4.73,2.08,1.07s1.32.65,2,1a.68.68,0,0,0,.37,0h0l.06.09h0l0,0h0a1.62,1.62,0,0,0,.51.29c.13.06.16.08.18.12a.27.27,0,0,0,.33.11l.1.08a.8.8,0,0,0,.34.19.92.92,0,0,1,.28.2l.16.13v0a.28.28,0,0,0,.15.08h.1l.08,0c.09,0,.14,0,.31.09a1,1,0,0,0,.37.18,1,1,0,0,1,.24.21,1.07,1.07,0,0,0,.18.19.23.23,0,0,0,.16.06h.32a.75.75,0,0,0,.39.21c.11,0,.15,0,.17.07a.81.81,0,0,0,.5.38.75.75,0,0,1,.2.1.76.76,0,0,0,.28.16c.84.27.84.27,1.25.65a.25.25,0,0,0,.16.06h.32a.71.71,0,0,1,.16.15,1.22,1.22,0,0,0,.29.25l.14.07a1.88,1.88,0,0,0,.38.18,1,1,0,0,1,.73.75.45.45,0,0,0,.16.21V72.44a1.28,1.28,0,0,0-.23.45ZM61.63,54a1.25,1.25,0,0,0-.53-.38,1.5,1.5,0,0,1-.31-.19.64.64,0,0,0-.48-.12h-.05a1.72,1.72,0,0,0-.65-.47l-.22-.12a1.15,1.15,0,0,0-.47-.11h-.08a1.3,1.3,0,0,0-.53-.39A1.3,1.3,0,0,1,58,52a.61.61,0,0,0-.47-.12h-.09a.77.77,0,0,1-.12-.13.88.88,0,0,0-.51-.33.75.75,0,0,1-.18-.09.77.77,0,0,0-.55-.16l-.17-.09a1.62,1.62,0,0,1-.66-.47.21.21,0,0,0-.17-.1A2,2,0,0,1,54,50.07a1.43,1.43,0,0,0-.48-.29,1.15,1.15,0,0,1-.29-.16.52.52,0,0,0-.42-.08h0l0,0a1.31,1.31,0,0,0-.43-.37l-.16-.06C52,49,52,49,52,49a.26.26,0,0,0-.21-.11h-.61l-.19-.22v-.75h0a.59.59,0,0,0,.21-.48l.09-.09a5.87,5.87,0,0,1,.46-.41,1.12,1.12,0,0,0,.35-.49.88.88,0,0,1,.16-.27l.15-.13a.88.88,0,0,0,.42-.67,1.59,1.59,0,0,0,.13-.13,2.87,2.87,0,0,1,.44-.42,1,1,0,0,0,.33-.48.9.9,0,0,1,.11-.22,1,1,0,0,1,.19-.17,1.08,1.08,0,0,0,.44-.63c0-.11.1-.19.24-.3l.21-.19c.14-.16.29-.3.44-.45l.2-.19A.25.25,0,0,0,55.6,42v-.14l.21-.18a2.38,2.38,0,0,0,.64-.74,1.73,1.73,0,0,1,.3-.38,1.32,1.32,0,0,0,.38-.54,1.2,1.2,0,0,1,.36-.49,1.42,1.42,0,0,0,.48-.75l.27-.27a10,10,0,0,1,.74-.72,1,1,0,0,0,.31-.47.7.7,0,0,1,.17-.28l.11-.08a1,1,0,0,0,.48-.7,3.8,3.8,0,0,0,.66-.8,2.84,2.84,0,0,1,.65-.76,3.61,3.61,0,0,0,.79-.92,4,4,0,0,1,.53-.67A1.45,1.45,0,0,0,63,32.4a.56.56,0,0,0,0-.12h.09a.27.27,0,0,0,.17-.06l.16-.16.26.12L78.61,47c-.23.36-.38.55-.66.65a1.37,1.37,0,0,0-.47.35l-.11.11a.65.65,0,0,0-.47.2s-.08.08-.11.08a.24.24,0,0,0-.25.06l-.37.37H75.8a.26.26,0,0,0-.17.09,3,3,0,0,1-1,.64l-.21.09a1.73,1.73,0,0,0-.72.46,1,1,0,0,1-.41.22,2,2,0,0,0-.4.18,4,4,0,0,0-.58.5c0,.06-.11.11-.16.16h-.35a.28.28,0,0,0-.17.07l-.63.63h-.14a.88.88,0,0,0-.51.15l-.31.21c-.14.09-.29.19-.43.3a.87.87,0,0,1-.29.12,1.13,1.13,0,0,0-.5.25,3.62,3.62,0,0,1-1.14.68.23.23,0,0,0-.12.1.9.9,0,0,1-.45.32,2.38,2.38,0,0,0-.41.23,1,1,0,0,1-.32.14,3.24,3.24,0,0,0-.33.13,1.16,1.16,0,0,0-.28.25c-.07.1-.11.13-.16.14a.77.77,0,0,0-.52.31.63.63,0,0,1-.18.16h-.43l-.2-.11c-.2-.12-.4-.23-.61-.33a5.85,5.85,0,0,1-1-.58A1.59,1.59,0,0,0,61.63,54Zm23.15-29.5a.24.24,0,0,0,.07.16l3.2,3.2V28a.25.25,0,0,0,.16.21l.28.1,0,.19a.24.24,0,0,0,.06.11l.14.13L89,29l.44.44a8.42,8.42,0,0,1,1,1.05,7,7,0,0,0,1,1.07l.46.47c.23.25.47.48.71.71s.52.52.76.78a2,2,0,0,1,.23.34,2.1,2.1,0,0,0,.46.59,3.22,3.22,0,0,1,.5.48l.23.23,1.5,1.5v.23l-1,.95H95a.27.27,0,0,0-.15.05l-.18.16a.87.87,0,0,1-.3.24.84.84,0,0,0-.34.18c-.1.09-.11.09-.14.08a.25.25,0,0,0-.22,0,2.33,2.33,0,0,1-.35.22,1.72,1.72,0,0,0-.6.43h-.29a.38.38,0,0,0-.23.09l-.53.52,0,.06a1.25,1.25,0,0,0-.69.21,1.14,1.14,0,0,1-.31.13.26.26,0,0,0-.16.13c-.06.11-.17.16-.34.24a2,2,0,0,0-.34.2.87.87,0,0,0-.58.34c-.12.13-.17.19-.27.18a.27.27,0,0,0-.21.09.68.68,0,0,1-.31.19,1.23,1.23,0,0,0-.52.36,1.22,1.22,0,0,1-.44.26l-.12,0h-.1a.28.28,0,0,0-.26.07l-.62.62h-.51a.23.23,0,0,0-.17.08l-.57.59a1.64,1.64,0,0,0-.65.18,1.39,1.39,0,0,1-.26.1.83.83,0,0,0-.39.31c-.09.11-.13.14-.17.14a.72.72,0,0,0-.41.19.23.23,0,0,1-.11.07.25.25,0,0,0-.27.09,1.7,1.7,0,0,1-.72.5,2.45,2.45,0,0,0-.81.54.66.66,0,0,0-.41.19s-.09.08-.11.08a.76.76,0,0,0-.39.19l0,0h-.44L79.42,46v-.08a.29.29,0,0,0-.07-.18L65.48,31.9a.19.19,0,0,0-.14-.07l-.12,0-.28-.48v-.48l0,0a.91.91,0,0,1,.18-.17c.16-.06.31-.14.46-.21a3.07,3.07,0,0,1,.41-.2,1.5,1.5,0,0,0,.61-.39l.11-.09a.82.82,0,0,0,.58-.17.5.5,0,0,1,.28-.1.25.25,0,0,0,.2-.09,2.57,2.57,0,0,1,1-.62l.15-.06a1.23,1.23,0,0,0,.38-.33l0,0a1.27,1.27,0,0,0,.71-.22,1.45,1.45,0,0,1,.29-.13.24.24,0,0,0,.15-.13.66.66,0,0,1,.35-.25,1.23,1.23,0,0,0,.4-.23h.16l.29,0a.72.72,0,0,0,.32-.27c.12-.15.16-.17.24-.16a.24.24,0,0,0,.23-.11c0-.06.12-.09.25-.14a1,1,0,0,0,.4-.22.83.83,0,0,0,.54-.33l.13-.14h.36a.22.22,0,0,0,.2-.1,2,2,0,0,1,.93-.61,2.91,2.91,0,0,0,1.07-.67h.06a.81.81,0,0,0,.49-.12,1.57,1.57,0,0,1,.29-.16,1.29,1.29,0,0,0,.59-.44h.35a.28.28,0,0,0,.17-.07l.59-.59a1.65,1.65,0,0,0,.75-.23,2.1,2.1,0,0,1,.26-.13.93.93,0,0,0,.39-.34l0,0h.37a.25.25,0,0,0,.2-.1c.06-.08.14-.11.3-.16l0,0a1,1,0,0,0,.41-.33l.06-.07h.49a1.59,1.59,0,0,0,.34.18c.29.13.39.19.39.42a.25.25,0,0,0,.08.16l1.75,1.75Zm-5.59-2.94h-.56a.2.2,0,0,0-.11,0,1.58,1.58,0,0,0-.44.37,2.65,2.65,0,0,1-.29.29h-.46a.25.25,0,0,0-.19.09l-.29.36h0a.69.69,0,0,0-.42.19.41.41,0,0,1-.12.09,1.84,1.84,0,0,0-.65.3l-.11.07a.85.85,0,0,0-.22.2c-.11.12-.12.12-.17.11a.27.27,0,0,0-.19.05,4.45,4.45,0,0,1-.81.44,4.76,4.76,0,0,0-.83.44.7.7,0,0,0-.54.33.58.58,0,0,1-.18.16,1.41,1.41,0,0,0-.8.39,1.77,1.77,0,0,1-.62.39,2.47,2.47,0,0,0-.61.34,1.08,1.08,0,0,0-.64.4l-.08.09h-.38a.23.23,0,0,0-.17.08l-.57.58a2,2,0,0,0-1.16.48,4.09,4.09,0,0,1-.67.4l-.24.13-.24.12a1.81,1.81,0,0,0-.77.54h-.41a.22.22,0,0,0-.19.09l-.51.63h-.44a.25.25,0,0,0-.16.06l-.19.17h-.67l-.16-.08-.45-.25-.11-.1a.64.64,0,0,0-.53-.28l-.05,0a.65.65,0,0,0-.36-.19.83.83,0,0,0-.38-.2c-.1,0-.16-.05-.17-.08a.89.89,0,0,0-.49-.36.53.53,0,0,1-.2-.11.93.93,0,0,0-.35-.17c-.12,0-.15,0-.17-.09a.68.68,0,0,0-.45-.33.64.64,0,0,1-.14-.06.71.71,0,0,0-.4-.21c-.11,0-.12,0-.13-.05a.26.26,0,0,0-.2-.14.79.79,0,0,1-.46-.31l-.14-.13a.21.21,0,0,0-.17-.07h-.4L56.64,26a.23.23,0,0,0-.18-.08H56a2.17,2.17,0,0,0-.76-.54L55,25.29l-.29-.16A3.63,3.63,0,0,1,54,24.7a2,2,0,0,0-.53-.3,1.66,1.66,0,0,1-.49-.28,1.58,1.58,0,0,0-.58-.34,1.17,1.17,0,0,1-.37-.19,2.6,2.6,0,0,0-.5-.34,2.84,2.84,0,0,1-.34-.22.76.76,0,0,0-.43-.12l-.62-.62a.26.26,0,0,0-.17-.07h-.53l0,0a1.08,1.08,0,0,0-.38-.35,6.19,6.19,0,0,1-.58-.28l-.69-.33-.37-.37v-.58a.5.5,0,0,1,.22-.12A1.17,1.17,0,0,0,48,20a3.07,3.07,0,0,0,.26-.25,1.3,1.3,0,0,1,.37-.29,1.34,1.34,0,0,0,.52-.39,1.07,1.07,0,0,1,.22-.21l.22-.11a1.24,1.24,0,0,0,.59-.47c.06-.11.16-.16.33-.24a1.21,1.21,0,0,0,.34-.2c.17-.14.32-.3.47-.45l.21-.21a.75.75,0,0,1,.22-.13,1.1,1.1,0,0,0,.46-.3l.06-.09c.15-.19.22-.26.35-.25a.24.24,0,0,0,.2-.06l.19-.21a1.17,1.17,0,0,1,.33-.31,3.35,3.35,0,0,0,1-.81l.19-.18a1.41,1.41,0,0,0,.71-.48,1,1,0,0,1,.5-.35c.23,0,.38-.26.49-.42a1.72,1.72,0,0,1,.55-.44,2.39,2.39,0,0,0,.61-.46.87.87,0,0,0,.53-.31l.64-.64.21-.21a1.4,1.4,0,0,0,.74-.5,2.49,2.49,0,0,1,.22-.23h0a.3.3,0,0,0,.28-.06l.85-.85a1.33,1.33,0,0,0,.72-.49,2.23,2.23,0,0,1,.21-.22h.75a2.23,2.23,0,0,0,.65.48c.28.15.46.25.52.43a.23.23,0,0,0,.14.15,2.6,2.6,0,0,1,1.14.68.26.26,0,0,0,.16.09c.2,0,.31.13.49.33a1.86,1.86,0,0,0,.42.35,1.69,1.69,0,0,0,.28.12,1.57,1.57,0,0,1,.59.35,2.08,2.08,0,0,0,.91.64,1.76,1.76,0,0,1,.42.27l.28.19.21.12a.82.82,0,0,1,.34.24,1.33,1.33,0,0,0,.61.47l.21.1a1.33,1.33,0,0,0,.24.11.62.62,0,0,1,.32.22.52.52,0,0,0,.4.24s0,0,0,0a1,1,0,0,0,.39.22l.14.06a1,1,0,0,1,.33.33.82.82,0,0,0,.45.31.91.91,0,0,1,.17.08,1.52,1.52,0,0,1,.22.22,3.45,3.45,0,0,0,.28.26.7.7,0,0,0,.27.12s.07,0,.07,0a.72.72,0,0,0,.43.26l.12,0a.9.9,0,0,0,.56.44.61.61,0,0,1,.28.17,1.58,1.58,0,0,0,.49.47,2.83,2.83,0,0,0,.53.26.76.76,0,0,1,.42.26,1.2,1.2,0,0,0,.53.41.81.81,0,0,1,.29.19,1.13,1.13,0,0,0,.46.31.63.63,0,0,1,.27.17.25.25,0,0,0,.21.1c.11,0,.19.05.33.2a1.38,1.38,0,0,0,.28.25.2.2,0,0,0,.13,0h0l.93.93A1.33,1.33,0,0,1,79.19,21.52ZM47.55,22.58a1,1,0,0,0,.26.12l.14.06a3.74,3.74,0,0,0,.52.28,2.68,2.68,0,0,1,.67.41,2,2,0,0,0,.6.36,1.35,1.35,0,0,1,.57.37.24.24,0,0,0,.18.1.69.69,0,0,1,.28.13.89.89,0,0,0,.53.19l.6.6a.22.22,0,0,0,.17.07h.5l.1.11a1.07,1.07,0,0,0,.59.38.71.71,0,0,0,.38.2l.15.06.09.1a.72.72,0,0,0,.56.33,2.08,2.08,0,0,0,.53.28,2,2,0,0,1,.51.3,2.33,2.33,0,0,0,.67.4,3,3,0,0,1,.4.21l.37.25.35.25a1,1,0,0,0,.53.15l.13,0,.07.06a1.5,1.5,0,0,0,.72.46,1.06,1.06,0,0,1,.51.32,1,1,0,0,0,.51.34,1,1,0,0,1,.21.1l.23.14a1.7,1.7,0,0,1,.38.26,1.69,1.69,0,0,0,.57.31,1,1,0,0,1,.45.25.25.25,0,0,0,.19.09c.17,0,.27.05.36.37a.91.91,0,0,0,.2.33l-.16.23a.19.19,0,0,0-.05.14v.07l-.27.09a.2.2,0,0,0-.15.18l-.06.24h0l-.18.19a4.07,4.07,0,0,1-.42.41,2.93,2.93,0,0,0-.76.93,2.06,2.06,0,0,1-.41.49,1.83,1.83,0,0,0-.6.82L58,36.42a.21.21,0,0,0-.08.17v.13L57.7,37a5.71,5.71,0,0,0-.84,1,4,4,0,0,1-.72.77l-.38.35a.24.24,0,0,0-.06.09,2.53,2.53,0,0,1-.79,1c-.14.12-.27.25-.4.38a2.42,2.42,0,0,0-.33.48,1.54,1.54,0,0,1-.37.49,2.94,2.94,0,0,0-.88.91,3.8,3.8,0,0,1-.72.9,2,2,0,0,0-.39.54,1.85,1.85,0,0,1-.4.51,5,5,0,0,0-.67.63l-.23.25a.19.19,0,0,0-.07.14l0,.19-.88.88h-.73a2,2,0,0,0-.86-.59l-.12-.06-.43-.2c-.22-.1-.43-.21-.65-.3s-.6-.28-1-.46l-.49-.25-.57-.3-.36-.18a3.83,3.83,0,0,1-.57-.31.89.89,0,0,0-.5-.14l-.22,0-.29-.36a.23.23,0,0,0-.27-.07s-.05,0-.17-.09a.89.89,0,0,0-.25-.16,9.36,9.36,0,0,1-1-.46l-.58-.29-.11,0a1.37,1.37,0,0,1-.67-.49.26.26,0,0,0-.25-.12,1,1,0,0,1-.82-.3,1.54,1.54,0,0,0-.46-.29,1.19,1.19,0,0,1-.35-.24.26.26,0,0,0-.19-.1h-.35a1.52,1.52,0,0,0-.59-.44,2.69,2.69,0,0,1-.29-.16.79.79,0,0,0-.43-.11h-.12l0,0a1.19,1.19,0,0,0-.42-.37l-.17-.06c-.12,0-.15-.06-.16-.09a.26.26,0,0,0-.22-.14h-.38l-.08-.09a.94.94,0,0,0-.5-.35c-.12,0-.18-.08-.3-.2a1.59,1.59,0,0,0-.13-.13,3.14,3.14,0,0,1-.32-.31l0,0,0-.09a1.46,1.46,0,0,1,.15-.33c.17-.22.38-.43.59-.66l.29-.3a.23.23,0,0,0,.06-.12l0-.15.3-.12a1,1,0,0,0,.4-.51.71.71,0,0,1,.14-.26l.13-.1a1,1,0,0,0,.44-.66v0a2.34,2.34,0,0,1,.22-.23,1.81,1.81,0,0,0,.49-.66,1.19,1.19,0,0,1,.38-.45c.08-.08.17-.16.25-.25a.25.25,0,0,0,.06-.15V33l1.23-1.24,0-.06.14-.3a5.23,5.23,0,0,1,.29-.58,1,1,0,0,1,.2-.21,1,1,0,0,0,.41-.62l.14-.14.44-.46.75-.75a.21.21,0,0,0,.07-.17v-.13a3.08,3.08,0,0,1,.25-.27,1.73,1.73,0,0,0,.5-.73.92.92,0,0,1,.22-.24.94.94,0,0,0,.44-.66.65.65,0,0,1,.12-.11l.13-.12.18-.18a2.08,2.08,0,0,1,.37-.36.86.86,0,0,0,.31-.46c0-.1.06-.16.1-.19a1.28,1.28,0,0,0,.39-.53.66.66,0,0,1,.25-.35,1.08,1.08,0,0,0,.45-.56.74.74,0,0,1,.17-.29c.2-.19.4-.39.59-.59l.87-.86a.85.85,0,0,0,.44.2s.07,0,.15.08a.72.72,0,0,0,.43.19.55.55,0,0,1,.1.11A1.11,1.11,0,0,0,47.55,22.58ZM20.27,84.15a.25.25,0,0,0,.06-.16v-.56a.79.79,0,0,0,.23-.6c0-.19,0-.26.11-.29a.27.27,0,0,0,.12-.22v-1l.17-.17A.23.23,0,0,0,21,81v-.84l.15-.14a.28.28,0,0,0,.07-.17v-.36l.17-.19a.26.26,0,0,0,.07-.17v-.59l.17-.18a.27.27,0,0,0,.06-.17V76.68A.64.64,0,0,0,22,76.1a.42.42,0,0,1,0-.18.75.75,0,0,0,.21-.71.66.66,0,0,1,0-.2l.13-.14a1.05,1.05,0,0,0,.07-.11.57.57,0,0,0,0-.16V73.4a1.07,1.07,0,0,0,.24-.73l.16-.18a.2.2,0,0,0,.07-.16v-.59l.17-.19a.26.26,0,0,0,.07-.16V69.86l.16-.17a.32.32,0,0,0,.06-.15v-.2s0-.13,0-.14a1,1,0,0,0,.26-.66.77.77,0,0,1,.08-.19c0-.07.07-.16.11-.27a.29.29,0,0,0,0-.09V66.65a1.07,1.07,0,0,0,.25-.75l.17-.18a.25.25,0,0,0,.06-.16V65.2l.17-.19a.2.2,0,0,0,.07-.16V63.09a1.24,1.24,0,0,0,.22-.38.63.63,0,0,1,.18-.29h.49a4,4,0,0,1,.46.24,3.15,3.15,0,0,0,1.21.46,2.69,2.69,0,0,0,1,.68l.09,0h.34a1.4,1.4,0,0,0,.58.43,1.57,1.57,0,0,1,.29.16.78.78,0,0,0,.45.12h.11l0,0a1.09,1.09,0,0,0,.44.37l.1,0a.52.52,0,0,1,.26.15.24.24,0,0,0,.19.1h.36a1.35,1.35,0,0,0,.57.43,1.24,1.24,0,0,1,.3.17.72.72,0,0,0,.44.11h.1l.22.43a.26.26,0,0,0,.19.13.25.25,0,0,0,.21-.08h0l.38.19a.2.2,0,0,0,.11,0h.3l.09.1a.94.94,0,0,0,.66.39,21.3,21.3,0,0,0,1.89,1c.54.26,1.09.53,1.61.82a.21.21,0,0,0,.15,0c.06,0,.11,0,.22.2a.55.55,0,0,0,.43.25h.06a.68.68,0,0,0,.62.25H40l.08.08a1.15,1.15,0,0,0,.63.41.65.65,0,0,0,.35.18l.11,0c.11.09.22.2.33.31l.08.09v.79l-.12.12a.24.24,0,0,0-.07.18v2.69l-.18.19a.27.27,0,0,0-.06.17v2.92l-.18.19a.23.23,0,0,0-.06.16v6.2l-.13.13a.32.32,0,0,0-.1.22c0,.76,0,1.52,0,2.27v.18l-.14.15a.23.23,0,0,0-.07.17v3.17l-.18.18a.22.22,0,0,0-.07.17v.4c0,.06,0,.11,0,.16h0a1.29,1.29,0,0,0-.4.21,1.77,1.77,0,0,1-.87-.57.25.25,0,0,0-.19-.09h-.82a3.05,3.05,0,0,0-.61-.34,3,3,0,0,1-.56-.32.26.26,0,0,0-.2,0,.81.81,0,0,1-.45-.11,1.16,1.16,0,0,0-.75-.14L34,89.53a.2.2,0,0,0-.11,0h-.69l-1.28-.66-.12,0h-.68l-.08,0a2.54,2.54,0,0,0-.95-.69h-.88L28,87.42a.27.27,0,0,0-.12,0h-.49a1.15,1.15,0,0,0-.73-.23l-.2-.35a.24.24,0,0,0-.21-.11h-.75l-.19-.18a.28.28,0,0,0-.17-.07h-.55l-1.27-.65a.2.2,0,0,0-.11,0h-.74l-.21-.36a.27.27,0,0,0-.21-.12h-.52l-.16-.13a1,1,0,0,0-.62-.11h-.17a2.17,2.17,0,0,1-.4-.65l0-.06Zm45.14,26.58V96.31l.24-.48h.55a.24.24,0,0,0,.16-.07l.19-.17h1.77a.28.28,0,0,0,.17-.07l.13-.14h.84a.23.23,0,0,0,.17-.07l.16-.16h.55a.27.27,0,0,0,.15-.05l.27-.21h1.53a.28.28,0,0,0,.17-.07l.17-.18H73.7a.22.22,0,0,0,.17-.07l.14-.14h.59a.24.24,0,0,0,.16-.07l.2-.17h1.52a.24.24,0,0,0,.17-.07l.16-.15v0h1.31a.23.23,0,0,0,.17-.07l.14-.14h.83a.29.29,0,0,0,.18-.07l.16-.16h1a.36.36,0,0,0,.17-.07l.25-.19H82.8a.25.25,0,0,0,.18-.08l.14-.14h.58a.23.23,0,0,0,.16-.06l.2-.18h.83a.2.2,0,0,0,.16-.07l.19-.17H87.8L88,93l-.15.17a.23.23,0,0,0-.06.16v.82l-.18.19a.27.27,0,0,0-.06.17v.82l-.1.1s0,0,0,0a.29.29,0,0,0-.1.22c0,.57,0,1.14,0,1.71v.27l-.15.15a.24.24,0,0,0-.07.17v1.07l-.17.17a.23.23,0,0,0-.07.17v.84l-.18.17a.23.23,0,0,0-.07.17v2l-.14.14a.21.21,0,0,0-.07.17V104l-.18.19a.23.23,0,0,0-.06.16v.83l-.08.07s0,0,0,.05a.31.31,0,0,0-.11.23c0,.58,0,1.17,0,1.74v.25l-.14.14a.26.26,0,0,0-.07.15l0,.65-.2.2H84a.21.21,0,0,0-.17.07l-.15.14a6.91,6.91,0,0,1-.92,0c-.29,0-.59,0-.9,0a.21.21,0,0,0-.15.07l-.14.13h-.83a.38.38,0,0,0-.2.1l-.15.15H78.6a.24.24,0,0,0-.18.07l-.17.17H75.78a.26.26,0,0,0-.17.07l-.13.13-.83,0a.23.23,0,0,0-.16.06l-.2.18H73a.27.27,0,0,0-.17.06l-.16.16H69.25a.23.23,0,0,0-.17.08l-.14.13h-.83a.29.29,0,0,0-.18.07l-.17.18H66.69a.28.28,0,0,0-.17.07l-.17.17a.89.89,0,0,1-.7-.13l-.24-.11ZM6.31,73.84l.14-.15a.24.24,0,0,0,.07-.16l0-.4.18-.21a.28.28,0,0,0,.06-.16v-1l.1-.11A.26.26,0,0,0,7,71.5a2.67,2.67,0,0,0,0-.84,1.39,1.39,0,0,1,.11-.89.86.86,0,0,0,.1-.45c0-.2,0-.22.1-.25a.23.23,0,0,0,.16-.22V68l.17-.19a.24.24,0,0,0,.07-.16V65.89l.17-.19A.24.24,0,0,0,8,65.54v-.35L8.13,65a.25.25,0,0,0,.06-.16v-.58l.11-.1A.22.22,0,0,0,8.36,64l0-.06a1.06,1.06,0,0,0,0-.2v-.36a7.55,7.55,0,0,0,0-1,1.5,1.5,0,0,1,.13-.68,2.39,2.39,0,0,0,.17-.61h0l.09-.07a.29.29,0,0,0,.07-.18v-.82L9,59.88a.22.22,0,0,0,.07-.17v-2l.17-.19a.26.26,0,0,0,.05-.25c0-.1,0-.19.09-.36a1.09,1.09,0,0,0,.17-.56,1.44,1.44,0,0,0,.22-1v-.21L10,55a1,1,0,0,1,.3,0,1.34,1.34,0,0,0,.2,0l0,0a1.06,1.06,0,0,0,.56.42,1.3,1.3,0,0,1,.29.16.58.58,0,0,0,.47.11h.06a2.4,2.4,0,0,0,1.08.59l.26.1a1.69,1.69,0,0,1,.88.59.25.25,0,0,0,.2.1h.37l.19.18a.28.28,0,0,0,.17.07h.13l.34.34a.27.27,0,0,0,.14.07,1.87,1.87,0,0,1,1.28.64.22.22,0,0,0,.14.08l.2,0a.94.94,0,0,1,.28.05l.2.11a1.14,1.14,0,0,1,.52.37l0,.05a.65.65,0,0,0,.49.13.16.16,0,0,1,.12,0,.72.72,0,0,0,.4.24.42.42,0,0,1,.19.09,2.57,2.57,0,0,0,1.18.58,1.87,1.87,0,0,1,.43.21l.37.27.22.17a.19.19,0,0,0,.13.05h.35a1,1,0,0,0,.56.44.75.75,0,0,1,.28.18.29.29,0,0,0,.23.08c.07,0,.1,0,.22.13l.06.07v.74l-.16.17a.27.27,0,0,0-.06.17v.59l-.18.19a.27.27,0,0,0-.06.17V65l-.13.12a.26.26,0,0,0-.07.16l0,.63a.71.71,0,0,0-.22.56c0,.19,0,.22-.11.26a.25.25,0,0,0-.14.22V68l-.14.14a.23.23,0,0,0-.07.17v.83l-.18.19a.23.23,0,0,0-.06.16v.37l-.18.18a.27.27,0,0,0-.06.17v1l-.14.15a.21.21,0,0,0-.08.17v.83l-.15.16a.22.22,0,0,0-.07.17v.58l-.22.26a.27.27,0,0,0-.05.15v.81l-.14.14a.24.24,0,0,0-.07.18V76l-.18.18a.27.27,0,0,0-.06.17v.59L20.4,77a.24.24,0,0,0-.07.17v.6l-.18.18a.26.26,0,0,0-.07.17v1.07l-.17.17a.25.25,0,0,0-.08.18v.6l-.14.14a.25.25,0,0,0-.08.18v.58l-.18.21a.28.28,0,0,0-.06.16v1.28l-.17.19a.24.24,0,0,0-.07.16v.37l-.19.19h-.58l-.06-.07a3.55,3.55,0,0,0-.47-.5,1.86,1.86,0,0,0-.47-.23l-.26-.1a.78.78,0,0,1-.26-.21,1.89,1.89,0,0,0-.63-.49L16,81.9a2.25,2.25,0,0,1-.24-.21,1.62,1.62,0,0,0-.51-.38,1.45,1.45,0,0,1-.46-.39l-.24-.24a.25.25,0,0,0-.17-.06c-.15,0-.22-.09-.36-.26a1.07,1.07,0,0,0-.46-.37,1.22,1.22,0,0,1-.51-.37,4,4,0,0,0-.31-.27,1.61,1.61,0,0,0-.29-.15c-.12,0-.18-.06-.23-.13a2.16,2.16,0,0,0-.57-.51,1.58,1.58,0,0,0-.43-.18L11,78.3l-.05,0-.09-.07a1.23,1.23,0,0,1-.19-.2,1,1,0,0,0-.66-.42l-.15-.16a1.59,1.59,0,0,0-.66-.49A.6.6,0,0,1,9,76.73a.84.84,0,0,0-.61-.33l-.13-.14a1.94,1.94,0,0,0-.63-.51,1.34,1.34,0,0,1-.43-.33c-.06-.07-.13-.13-.2-.2a5.9,5.9,0,0,1-.51-.49l-.15-.16Zm114.14-30a2.18,2.18,0,0,1-.53.72.27.27,0,0,0-.08.22.82.82,0,0,1-.12.45c0,.09-.08.18-.11.27a.63.63,0,0,1-.18.24,1,1,0,0,0-.3.4s0,0,0,.07v.15a.57.57,0,0,1,0,.19,2.16,2.16,0,0,1-.21.35c-.06.09-.13.19-.18.28l-.07.12a1.1,1.1,0,0,0-.22.6.54.54,0,0,1-.09.3,1,1,0,0,0-.15.38s0,.06-.09.13a1.35,1.35,0,0,0-.12.12h-.32l-.1-.08a1.48,1.48,0,0,0-.48-.75l0,0v-.69a.25.25,0,0,0-.09-.2l-.1-.07a1,1,0,0,1-.25-.2.34.34,0,0,1,0-.1.6.6,0,0,0-.19-.33s-.05,0-.05-.2a.69.69,0,0,0-.24-.61.67.67,0,0,1-.12-.28,1.63,1.63,0,0,0-.2-.45,1.61,1.61,0,0,1-.2-.37,1.64,1.64,0,0,0-.18-.35.38.38,0,0,1,0-.1s0-.1,0-.15a.24.24,0,0,0-.07-.17l-.41-.43v-.36a.22.22,0,0,0-.12-.21c-.09,0-.11-.11-.11-.32a1.64,1.64,0,0,0,0-.22.27.27,0,0,0-.07-.14l-.36-.36s0-.08,0-.12a.71.71,0,0,0-.23-.6V40.6a.23.23,0,0,0-.06-.16,2.31,2.31,0,0,1-.66-1.27.55.55,0,0,0-.14-.21l0,0a1.91,1.91,0,0,0-.29-.63,1.13,1.13,0,0,1-.23-.7.25.25,0,0,0,0-.19,1.74,1.74,0,0,1-.22-.35,1.68,1.68,0,0,0-.43-.59V36a.27.27,0,0,0,0-.12c0-.08-.09-.16-.13-.24a2.23,2.23,0,0,0-.53-.76v-.55a.36.36,0,0,0,0-.1A1.14,1.14,0,0,0,111,34a.3.3,0,0,1-.07-.1.22.22,0,0,0,0-.25l-.37-.39a.89.89,0,0,0-.17-.64.59.59,0,0,1-.11-.27,1.76,1.76,0,0,0-.19-.64s0-.07,0-.11l.2-.21h.87a.25.25,0,0,0,.22-.15c0-.08,0-.09.24-.1a.67.67,0,0,0,.53-.21s.09,0,.19,0a.74.74,0,0,0,.56-.22h.67a.62.62,0,0,0,.08.24.89.89,0,0,0,.25.26c.14.12.16.15.16.23a.24.24,0,0,0,0,.18,2.08,2.08,0,0,1,.31.55,2.67,2.67,0,0,0,.33.59.63.63,0,0,0,.28.51l.1.11a.91.91,0,0,1,.09.17,1,1,0,0,0,.2.34s0,.07,0,.2a2.44,2.44,0,0,0,0,.27.27.27,0,0,0,.07.13l.1.1a1.9,1.9,0,0,1,.24.25.43.43,0,0,1,0,.11.69.69,0,0,0,.17.31.51.51,0,0,1,.11.21.92.92,0,0,0,.3.47.84.84,0,0,1,.3.46.79.79,0,0,0,.21.44c.08.11.1.15.09.2a.23.23,0,0,0,.11.25c.06,0,.09.1.13.24a1.35,1.35,0,0,0,.19.38,1,1,0,0,1,.13.26,1.13,1.13,0,0,0,.19.4,7.55,7.55,0,0,1,.8,1.42,11,11,0,0,0,.6,1.12c.32.5.59,1,.86,1.54l.38.73A.46.46,0,0,1,120.45,43.84Zm-8.11-14.59-.2.2h-.81a.23.23,0,0,0-.16.06l-.2.18h-.36a.23.23,0,0,0-.16.06l-.19.18h-.36a.23.23,0,0,0-.16.06l-.2.18H109a.2.2,0,0,0-.13,0l-.28.18,0-.06-.41-.4a1.14,1.14,0,0,1-.25-.4l0-.08a1.2,1.2,0,0,0-.36-.41c-.17-.14-.26-.23-.26-.39a.28.28,0,0,0-.1-.2,2.84,2.84,0,0,1-.63-.74,3.29,3.29,0,0,0-.78-.89,1.12,1.12,0,0,1-.31-.42,2.19,2.19,0,0,0-.32-.45l-.52-.52-.15-.14v-.17a.25.25,0,0,0-.15-.23c-.13-.05-.2-.18-.29-.37a1.34,1.34,0,0,0-.29-.44l-.53-.52-.13-.13a.41.41,0,0,0-.07-.31c-.06-.07-.14-.14-.21-.21a1.08,1.08,0,0,1-.18-.2,2,2,0,0,0-.37-.35c-.21-.17-.34-.28-.34-.48a.24.24,0,0,0,0-.14,3.47,3.47,0,0,0-.32-.34.89.89,0,0,1-.38-.53.51.51,0,0,0-.22-.3l-.06-.06a1.76,1.76,0,0,0-.31-.3c-.2-.16-.31-.26-.31-.45a.23.23,0,0,0-.07-.17l-.28-.25a2.12,2.12,0,0,1-.48-.53,2.84,2.84,0,0,0-.41-.54,1.67,1.67,0,0,1-.32-.42,3,3,0,0,0-.51-.71l-.2-.22a.41.41,0,0,0,0-.07.65.65,0,0,0-.07-.21.83.83,0,0,0-.11-.15l-.06-.07h.7l.13.13a.28.28,0,0,0,.17.07h.59a3.73,3.73,0,0,0,.61.34,2,2,0,0,1,.56.32.27.27,0,0,0,.15,0h.52a2.48,2.48,0,0,0,.66.27,1.52,1.52,0,0,1,.71.34.23.23,0,0,0,.18.08h.82a3.28,3.28,0,0,0,.6.34,2.25,2.25,0,0,1,.55.31.27.27,0,0,0,.16.06h.55l.06,0,.63.63.11.11a2.43,2.43,0,0,1,.48.66,2.82,2.82,0,0,0,.24.36,1.56,1.56,0,0,1,.23.36l.06.13a1.34,1.34,0,0,0,.53.72.56.56,0,0,1,.2.28.94.94,0,0,0,.29.41.75.75,0,0,1,.22.34,1.56,1.56,0,0,0,.2.38.94.94,0,0,1,.11.18,1.19,1.19,0,0,0,.25.4l.13.12c.15.12.24.2.26.36a.77.77,0,0,0,.28.46c.11.1.18.17.19.27a.62.62,0,0,0,.28.42c.1.09.17.14.18.22a.71.71,0,0,0,.26.41.47.47,0,0,1,.12.13,2.18,2.18,0,0,1,.2.37l0,.08a1.21,1.21,0,0,1,.08.19l.07.18a.19.19,0,0,0,0,.09l.11.11.4.39a.53.53,0,0,1,.1.2.84.84,0,0,0,.37.49s0,.06.08.16a.71.71,0,0,0,.21.4ZM100.57,15.44h-.17a1.08,1.08,0,0,0-.7-.25l-.36-.36a.23.23,0,0,0-.17-.07h-.59l-.21-.18a.23.23,0,0,0-.16-.06h-.34l-.19-.18a.27.27,0,0,0-.17-.06h-.36L97,14.1A.27.27,0,0,0,96.8,14h-.36l-.1-.11,0,0a.81.81,0,0,0-.43-.11.81.81,0,0,1-.44-.09,6.31,6.31,0,0,0-.6-.28,1,1,0,0,1-.3-.22,1.21,1.21,0,0,0-.46-.29.58.58,0,0,1-.28-.18,1,1,0,0,0-.34-.23A1.76,1.76,0,0,1,92.8,12a.21.21,0,0,0-.17-.07h-.37l0,0a3.06,3.06,0,0,0-.32-.3.74.74,0,0,0-.26-.12s-.08,0-.07,0a1.32,1.32,0,0,0-.57-.44,1,1,0,0,1-.35-.23,1.23,1.23,0,0,0-.66-.39,2.21,2.21,0,0,1-.27-.12.61.61,0,0,1-.17-.16.76.76,0,0,0-.41-.29.75.75,0,0,1-.17-.1.69.69,0,0,0-.36-.15c-.08,0-.12,0-.22-.14a.94.94,0,0,0-.21-.18A1.67,1.67,0,0,0,88,9.18a.62.62,0,0,1-.2-.1,2.49,2.49,0,0,0-1-.62.41.41,0,0,1-.18-.13,1,1,0,0,0-.22-.19L86,8l-.14-.07a3.13,3.13,0,0,0-.32-.15A1.94,1.94,0,0,1,85,7.41a2,2,0,0,0-.46-.29,1,1,0,0,1-.41-.31.68.68,0,0,0-.42-.25c-.1,0-.14,0-.16-.07a.58.58,0,0,0-.1-.12h1.18l.16.15a.25.25,0,0,0,.16.06h.59l.18.16a.21.21,0,0,0,.13.07,3,3,0,0,0,.52,0h.35l.14.14A.27.27,0,0,0,87,7a4.83,4.83,0,0,0,.76,0h.6l.15.14a.21.21,0,0,0,.17.07h.83l.18.18a.24.24,0,0,0,.17.07h.6l.15.15a.24.24,0,0,0,.17.07h1l.06,0a2.29,2.29,0,0,0,.29.18.25.25,0,0,0,.14,0l.22.23a2.92,2.92,0,0,0,.79.65,1.76,1.76,0,0,1,.47.4,1.59,1.59,0,0,0,.58.47,2.36,2.36,0,0,1,.75.59l.23.21a1.61,1.61,0,0,0,.41.27,1,1,0,0,1,.38.27l0,.05a1.36,1.36,0,0,0,.85.62v0l.18.17.4.41a.86.86,0,0,1,.13.14.9.9,0,0,0,.52.38c.13,0,.2.08.31.21a1.19,1.19,0,0,0,.2.19,3.23,3.23,0,0,1,.37.37,2.34,2.34,0,0,0,.8.64,1.14,1.14,0,0,1,.4.31,1.61,1.61,0,0,0,.71.47s.07.07.13.22a1.11,1.11,0,0,0,.07.16ZM83.92,8.73a.82.82,0,0,0,.36.2c.11,0,.14,0,.16.07a.24.24,0,0,0,.26.14c.1,0,.14,0,.27.16a.88.88,0,0,0,.47.33,1.52,1.52,0,0,1,.73.41,1.76,1.76,0,0,0,.92.49,3,3,0,0,0,.87.59,2.29,2.29,0,0,1,.86.63.45.45,0,0,0,.31.16h0a.85.85,0,0,0,.43.24c.1,0,.16.06.19.1a1.34,1.34,0,0,0,.68.48l.16.07a2.61,2.61,0,0,1,.53.36l.06.05a.54.54,0,0,0,.26.09h0a.92.92,0,0,0,.39.22.62.62,0,0,1,.16.07,2.38,2.38,0,0,0,.59.44,1.53,1.53,0,0,1,.48.35l-.18.35H92.7l-.1,0c-.2.09-.38.19-.56.29a3.45,3.45,0,0,1-.94.4,2.11,2.11,0,0,0-.69.28,3.07,3.07,0,0,1-.51.28l-.33.16-.11.06c-.22.13-.37.21-.54.17a.22.22,0,0,0-.24.07,1,1,0,0,1-.45.25,1.6,1.6,0,0,0-.58.32s-.06,0-.2,0a1.62,1.62,0,0,0-.3,0,.24.24,0,0,0-.15.09l-.23.31a.21.21,0,0,0-.15,0l-.44.25h-.24l-.11,0-.14.07a2.48,2.48,0,0,0-.88.59h-.55a.21.21,0,0,0-.17.08,1.32,1.32,0,0,1-.37.21,1.22,1.22,0,0,0-.57.43h-.26a.2.2,0,0,0-.11,0l-1.29.66H81l-.23-.32a.27.27,0,0,0-.17-.1h0a.27.27,0,0,0-.22,0s-.07-.05-.1-.08a.66.66,0,0,0-.47-.22.27.27,0,0,1-.08-.1.65.65,0,0,0-.45-.3.36.36,0,0,1-.18-.1,5.58,5.58,0,0,0-.49-.48.56.56,0,0,0-.27-.1h0a1.37,1.37,0,0,0-.42-.26.68.68,0,0,1-.35-.25,1.66,1.66,0,0,0-.61-.49,1.33,1.33,0,0,1-.45-.34.21.21,0,0,0-.23-.1c-.08,0-.12,0-.23-.15a1.22,1.22,0,0,0-.27-.23l-.2-.09a.91.91,0,0,1-.3-.19,1.67,1.67,0,0,0-.74-.44l-.35-.15,0,0a3.19,3.19,0,0,0-.46-.49,1.22,1.22,0,0,0-.42-.19,1.06,1.06,0,0,1-.26-.12c-.19-.15-.39-.28-.59-.41L72,13.85a.8.8,0,0,1-.16-.16.82.82,0,0,0-.45-.32c-.13,0-.19-.09-.3-.2a.74.74,0,0,0-.13-.12.83.83,0,0,0-.34-.17c-.11,0-.16-.06-.18-.1a.38.38,0,0,0-.36-.14h0l-.07-.09a3.15,3.15,0,0,0-.48-.49,2,2,0,0,0-.66-.31l-.1,0a.49.49,0,0,1-.17-.16.83.83,0,0,0-.55-.33l-.12-.12a4.51,4.51,0,0,0-.51-.46,2.52,2.52,0,0,0-.69-.31l-.06,0a.52.52,0,0,1-.18-.16.76.76,0,0,0-.53-.33,4.17,4.17,0,0,0-.78-.62,3.19,3.19,0,0,1-.76-.64l.11-.12h.37A.23.23,0,0,0,65,8.37l.14-.13H66a.24.24,0,0,0,.17-.07L66.28,8A1.35,1.35,0,0,0,67,7.75h.84A.25.25,0,0,0,68,7.67l.12-.12.6,0a.25.25,0,0,0,.17-.06l.19-.18h.36a.23.23,0,0,0,.17-.07l.18-.17h.86A.3.3,0,0,0,70.83,7L71,6.84h.84A.23.23,0,0,0,72,6.77l.17-.17.67,0a.24.24,0,0,0,.2-.14s0,0,.22-.06a.73.73,0,0,0,.57-.22h1A.27.27,0,0,0,75,6.07l.2-.18h.35a.34.34,0,0,0,.19-.09l.16-.15h.6a.24.24,0,0,0,.17-.07l.13-.13h0l.05,0h1.86a2.58,2.58,0,0,0,.73.51l.15.06a1,1,0,0,1,.49.32.76.76,0,0,0,.45.29c.11,0,.16.05.19.09a.23.23,0,0,0,.24.13c.12,0,.19,0,.32.23s.13.16.2.23a.93.93,0,0,0,.35.17l.11,0a.83.83,0,0,0,.42.24c.14,0,.18.06.2.1a.76.76,0,0,0,.56.42l.19.08.19.11A2,2,0,0,1,83.92,8.73ZM74.05,4.46a.77.77,0,0,0-.42,0,4.67,4.67,0,0,0-.57.33l-.18.11h-.83a.28.28,0,0,0-.17.07l-.14.15h-1.1a.26.26,0,0,0-.23.16c0,.06,0,.07-.21.07a.67.67,0,0,0-.54.21s-.08,0-.19,0a.69.69,0,0,0-.56.22H67.66a.23.23,0,0,0-.16.06l-.21.18h-.35a.23.23,0,0,0-.16.06l-.2.18h-.36a.23.23,0,0,0-.16.06l-.19.18H64.4a.28.28,0,0,0-.13,0L64,6.75,63.57,7l-.16,0a.69.69,0,0,0-.59.24l-1.9-.06A.75.75,0,0,0,60.38,7c-.2,0-.22,0-.24-.08a.24.24,0,0,0-.22-.15h-.84l-.18-.17a.27.27,0,0,0-.17-.06H56.27l-.13-.14A.29.29,0,0,0,56,6.36h-.83L55,6.2a.23.23,0,0,0-.17-.07h-.57L54,5.92a.25.25,0,0,0-.15,0H52.07l-.15-.15a.23.23,0,0,0-.17-.07H50.46l-.21-.18a.23.23,0,0,0-.16-.06h-.34l-.09-.09L50.14,5h.42a.25.25,0,0,0,.17-.08l.15-.15h.76a.24.24,0,0,0,.12,0l.8-.45h.32a.27.27,0,0,0,.17-.06L53.24,4h.33a2.37,2.37,0,0,0,.53,0,.25.25,0,0,0,.2-.14c0-.06.06-.08.22-.12a1.34,1.34,0,0,0,.37-.17.69.69,0,0,1,.28-.1,1.29,1.29,0,0,0,.5-.17.84.84,0,0,1,.39,0c.14,0,.29.05.4,0l.77-.43h.32a.25.25,0,0,0,.17-.06l.19-.18h1a.27.27,0,0,0,.12,0l.28-.18a1.25,1.25,0,0,1,.44-.23,2.26,2.26,0,0,0,.5-.16l.25-.09a1.9,1.9,0,0,1,.54,0c.16,0,.33.05.43-.06l.16-.16H63l.07,0h0l.13.13a.25.25,0,0,0,.17.08h1.06l.19.17a.25.25,0,0,0,.17.06h.36l.18.18a.27.27,0,0,0,.17.06h.35l.2.18a.27.27,0,0,0,.16.06H67.5a.65.65,0,0,0,.56.22c.1,0,.17,0,.19,0a.65.65,0,0,0,.54.2c.19,0,.19,0,.21.08a.24.24,0,0,0,.23.14h1.06l.2.18a.27.27,0,0,0,.17.06h.58l.19.18a.23.23,0,0,0,.16.06h.6l.13.14A.24.24,0,0,0,72.5,4h.83l.17.17a.24.24,0,0,0,.16.07l.59,0h0ZM50.87,7.22a.23.23,0,0,0,.16.06h.83l.19.18a.23.23,0,0,0,.16.06h1.06l.15.16a.28.28,0,0,0,.17.07h1.55l.14.14a.24.24,0,0,0,.16.07l.64,0,.15.15a.24.24,0,0,0,.18.07h1.3l.14.15a.24.24,0,0,0,.18.07H59.8l.21.19v.06l-.24.25a7.6,7.6,0,0,1-.87.84l-.27.18a2.94,2.94,0,0,0-.47.34,1.54,1.54,0,0,0-.17.19c-.15.16-.24.27-.41.29a.77.77,0,0,0-.44.31c-.12.14-.15.16-.22.15a.25.25,0,0,0-.21.07l-.21.23a1.17,1.17,0,0,1-.38.34,2.38,2.38,0,0,0-.8.57l-.63.63-.21.21a.82.82,0,0,0-.56.34c-.13.13-.18.18-.27.18a.26.26,0,0,0-.19.06,2.09,2.09,0,0,0-.2.22,2,2,0,0,1-.43.37l-.12.07a2,2,0,0,0-.58.4c-.18.2-.37.39-.56.57l-.19.18a1,1,0,0,0-.59.39.52.52,0,0,1-.21.19,2,2,0,0,0-.63.46,2,2,0,0,1-.37.29,2.33,2.33,0,0,0-.52.38,1.9,1.9,0,0,1-.37.28,2.3,2.3,0,0,0-.57.43,2.21,2.21,0,0,1-.41.31,3.73,3.73,0,0,0-.94.73.4.4,0,0,1-.16.07.73.73,0,0,0-.44.29,2.89,2.89,0,0,1-.29.32l-.05.06h-1l-.36-.36a.21.21,0,0,0-.15-.07l-.44-.05-.13-.13a.21.21,0,0,0-.17-.07H42.49l-.29-.39a.25.25,0,0,0-.2-.09h-.21l-.19-.18a.23.23,0,0,0-.16-.06h-1l-1.27-.66a.2.2,0,0,0-.11,0h-.93l-1.3-.69a.27.27,0,0,0-.12,0h-1l-.1-.09a.21.21,0,0,0-.14-.07,2.79,2.79,0,0,1-1.17-.48.28.28,0,0,0-.13,0h-.76a1.19,1.19,0,0,0-.69-.27h0a.94.94,0,0,1-.3-.13l-.27-.14-.36-.4,0-.25h0a.55.55,0,0,1,.1-.11l.33-.16a2.57,2.57,0,0,0,.66-.38,2.45,2.45,0,0,1,.5-.3,3.36,3.36,0,0,0,.42-.22l.24-.19a1.56,1.56,0,0,1,.2-.16,3.55,3.55,0,0,1,.39-.2l.06,0,.26-.11.13-.05a.24.24,0,0,0,.14-.17l0-.21h.13a.39.39,0,0,0,.4-.12.41.41,0,0,1,.23-.13.85.85,0,0,0,.42-.25,3.48,3.48,0,0,1,.69-.55l.14-.09a5.06,5.06,0,0,1,.89-.51,1,1,0,0,0,.42-.31c.14-.14.2-.2.31-.19a.23.23,0,0,0,.22-.09,1,1,0,0,1,.32-.21,1.27,1.27,0,0,0,.5-.34,1.08,1.08,0,0,1,.42-.22,3.19,3.19,0,0,0,.35-.14.18.18,0,0,0,.07-.05l.53-.53h.41a.21.21,0,0,0,.18-.09l.52-.63a2.94,2.94,0,0,0,1.05-.51,2.28,2.28,0,0,1,.93-.44.29.29,0,0,0,.14-.08l.53-.61h.37a.29.29,0,0,0,.18-.07l.13-.13H47l.15.15a.26.26,0,0,0,.17.07h1.77l.14.14a.23.23,0,0,0,.17.07h1.29ZM6.31,82.46v.21a.26.26,0,0,0,.14.2s0,0,.06.23a.76.76,0,0,0,.22.57v0a1.87,1.87,0,0,1,0,.41s0,0,0,0L6.61,84c-.07-.06-.08-.08-.08-.12a.85.85,0,0,0-.19-.38l0,0Zm95.77,19.63h-.58a.26.26,0,0,0-.2.11,1.42,1.42,0,0,1-.62.46l-.27.15H100l-.11,0-.16.08a2.38,2.38,0,0,0-.85.59H98a1,1,0,0,0-.27.18.2.2,0,0,1-.09.07.22.22,0,0,0-.25,0l-.43.41h-.59a.27.27,0,0,0-.22.12c-.05.09-.1.1-.3.11l-.25,0a.29.29,0,0,0-.12.07l-.36.36h0c-.17,0-.39,0-.5.13s-.13.09-.3.1a.92.92,0,0,0-.46.13,3,3,0,0,1-.47.24,3.5,3.5,0,0,0-.62.35h-.58a.23.23,0,0,0-.17.07.77.77,0,0,0-.12.13,1.1,1.1,0,0,1-.27.26l-.11,0a.66.66,0,0,0-.36.2h-.57a.23.23,0,0,0-.16.06,2.45,2.45,0,0,1-.55.31,3.5,3.5,0,0,0-.62.35h-.58a.29.29,0,0,0-.18.07l-.37.37h-.75l-.1-.09.09-.12a.25.25,0,0,0,.05-.15V104.9l.15-.15a.24.24,0,0,0,.07-.17V104l.18-.19a.27.27,0,0,0,.06-.17v-.82l.17-.19a.24.24,0,0,0,.07-.16V100l.14-.14a.28.28,0,0,0,.07-.17v-.84l.16-.16a.21.21,0,0,0,.07-.16l0-.64.16-.16a.23.23,0,0,0,.07-.17V95.79l.15-.15a.24.24,0,0,0,.07-.17V93.72l.18-.2a.27.27,0,0,0,.06-.17v-.58a1.06,1.06,0,0,0,.25-.52l.12-.1a1,1,0,0,0,.24-.26s0,0,.13,0a.75.75,0,0,0,.29-.11,1.71,1.71,0,0,1,.23-.13,2,2,0,0,0,.57-.43h.55a.22.22,0,0,0,.17-.07,2.09,2.09,0,0,1,.53-.3,2.34,2.34,0,0,0,.6-.33,1.18,1.18,0,0,0,.72-.2l.15-.08.39-.2.29-.14.09,0s.08,0,.07,0a.87.87,0,0,0,.56-.15c.19-.11.26-.14.38-.08a.25.25,0,0,0,.3-.1l.24-.37h.48a.24.24,0,0,0,.16-.07l.19-.17h.36a.23.23,0,0,0,.17-.08l.36-.35a1.48,1.48,0,0,0,.76-.24.66.66,0,0,0,.56-.17.56.56,0,0,1,.18-.1.24.24,0,0,0,.25-.1c0-.06.12-.09.24-.14a1.13,1.13,0,0,0,.38-.19,1,1,0,0,0,.65-.19l.19-.1a5.23,5.23,0,0,0,.58-.29l.23-.14h.53a.22.22,0,0,0,.17-.07,1.14,1.14,0,0,1,.36-.21,1.22,1.22,0,0,0,.57-.43H104a3.33,3.33,0,0,0,.65-.34,1.76,1.76,0,0,1,1-.35.23.23,0,0,0,.18-.08.68.68,0,0,1,.21-.11.91.91,0,0,0,.35-.21.24.24,0,0,1,.13,0,.56.56,0,0,0,.39-.22s0,0,.16,0a.64.64,0,0,0,.39-.08l.07,0a.64.64,0,0,1,.32-.14,1.29,1.29,0,0,0,.42-.13l.22-.09a1.66,1.66,0,0,1,.32,0h0c0,.35,0,.71,0,1.06v.11l-.1.1,0,.06a1,1,0,0,0-.1.57,1.33,1.33,0,0,1,0,.2s0,.06-.06.09a.61.61,0,0,0-.17.61.38.38,0,0,1-.07.11.66.66,0,0,0-.17.6c.07.25,0,.31-.09.34a.23.23,0,0,0-.13.21v.6l-.18.19a.27.27,0,0,0-.06.17v.35l-.17.19a.22.22,0,0,0-.07.17v.59l-.11.11a.18.18,0,0,0,0,.07,1.27,1.27,0,0,0-.07.6,2.11,2.11,0,0,1,0,.36l-.4.77a.27.27,0,0,0,0,.12V93l-.18.21a.25.25,0,0,0-.06.16v.81l-.18.2a.23.23,0,0,0-.06.16v.35l-.18.19a.27.27,0,0,0-.06.17v.36l-.14.13a.29.29,0,0,0-.07.18v.83a.86.86,0,0,0-.27.61.59.59,0,0,1-.08.22,1.21,1.21,0,0,0-.12.38c0,.2,0,.27-.13.32a.25.25,0,0,0-.11.21v1.06l-.18.2a.23.23,0,0,0-.06.16v.36a.86.86,0,0,1-.13.14,1.27,1.27,0,0,0-.38.62,1.73,1.73,0,0,1-1,.4.24.24,0,0,0-.16.07l-.38.38h-.13A.68.68,0,0,0,102.08,102.09Zm3,1.69.2-.06a.22.22,0,0,0,.17-.19,1,1,0,0,1,.31-.43,2.23,2.23,0,0,0,.21-.22,3.61,3.61,0,0,0-.23.36,1.26,1.26,0,0,1-.34.46,3.25,3.25,0,0,0-.44.38A1.34,1.34,0,0,0,105.11,103.78Zm1-1.12a4.06,4.06,0,0,1,.72-.91l.31-.3c.2-.2.41-.4.6-.62a1.85,1.85,0,0,1,.14-.14,1.55,1.55,0,0,0-.21.35,1.62,1.62,0,0,1-.45.56,3.31,3.31,0,0,0-.33.32,5.93,5.93,0,0,1-.7.72l-.1.09-.1.11A1.4,1.4,0,0,0,106.15,102.66Zm12.42-29.4a1.27,1.27,0,0,1-.31.18,1.31,1.31,0,0,0-.55.42,2.94,2.94,0,0,1-.46.48l-.24.23-.66.67a.39.39,0,0,0-.27.05.94.94,0,0,0-.23.21l-1.77,1.77a4.11,4.11,0,0,0-1.35,1.12c-.15.16-.31.33-.47.48a.5.5,0,0,1-.18.09.72.72,0,0,0-.42.26,2.05,2.05,0,0,1-.45.44.72.72,0,0,0-.26.43v0h-.7s0-.06,0-.1a.9.9,0,0,0,0-.28.21.21,0,0,0-.06-.1l-.17-.19V79.1a.3.3,0,0,0-.08-.18l-.14-.13V78a.23.23,0,0,0-.07-.17l-.18-.18v-.83a.22.22,0,0,0-.07-.17l-.14-.15v-.58a.26.26,0,0,0-.07-.16l-.18-.2v-.59a.27.27,0,0,0-.06-.17l-.18-.18V73.5a.22.22,0,0,0-.07-.17l-.14-.15,0-.64a.2.2,0,0,0-.07-.16l-.13-.13,0-.64a.24.24,0,0,0-.07-.16l-.15-.15v-.84a.22.22,0,0,0-.07-.17l-.15-.15v-.58a.25.25,0,0,0-.06-.16l-.18-.2v-.59a.23.23,0,0,0-.06-.16l-.18-.19V67.19a.23.23,0,0,0-.07-.17l-.14-.14V66a.24.24,0,0,0-.14-.22c-.08,0-.09-.07-.11-.27a.75.75,0,0,0-.21-.54l0-.88a.25.25,0,0,0-.08-.15l-.12-.12v-1.3a.23.23,0,0,0-.06-.16l-.17-.19v-.35a.27.27,0,0,0-.06-.17l-.18-.19v-.36A.25.25,0,0,0,106,61l-.17-.18v-.22h0a.21.21,0,0,0,0-.06l.68-.68.17-.17a1.41,1.41,0,0,0,.77-.53,1.66,1.66,0,0,1,.18-.19.77.77,0,0,0,.55-.33c0-.06.11-.13.15-.14a1.17,1.17,0,0,0,.7-.46l.13-.15a.75.75,0,0,1,.28-.15,1.21,1.21,0,0,0,.49-.33,2.41,2.41,0,0,1,.73-.51,2.06,2.06,0,0,0,.39-.28,1,1,0,0,1,.29-.2,1.34,1.34,0,0,0,.67-.43,1.84,1.84,0,0,1,.52-.38l.15-.08a1.7,1.7,0,0,0,.34-.31.75.75,0,0,1,.22-.22,2,2,0,0,0,.52-.28h.06a.53.53,0,0,0,.27-.1,3.19,3.19,0,0,0,.26-.26,1.51,1.51,0,0,1,.37-.29,1.51,1.51,0,0,0,.53-.4,2.09,2.09,0,0,1,.22-.2l.1-.09a.82.82,0,0,0,.58-.34c.06-.07.11-.14.17-.16l.43-.17.06,0,.4.49v.47a.28.28,0,0,0,0,.16l.19.22v2a.23.23,0,0,0,.06.16l.18.2v1.76a.23.23,0,0,0,.06.16l.18.19v1.07a.23.23,0,0,0,.07.17l.14.14,0,0v2a.24.24,0,0,0,.07.17l.14.14v2.19a.27.27,0,0,0,0,.15l.21.27v.82a.29.29,0,0,0,.07.18l.15.14V67.4a.27.27,0,0,0,.06.16l.18.2v2.45a.27.27,0,0,0,.06.17l.18.19a1.21,1.21,0,0,1,0,.33,2.15,2.15,0,0,0,0,.56.23.23,0,0,0,.06.12l.11.12A3.37,3.37,0,0,1,118.57,73.26Zm3.77-22.47ZM88.48,6V6.1h0V6Z"/></g></g></svg>