<svg xmlns="http://www.w3.org/2000/svg" viewBox="0 0 91.95 91.95"><defs><style>.cls-1{fill:none;stroke:#211915;stroke-miterlimit:10;stroke-width:1.16px;}</style></defs><title>Recurso 19MANDALA</title><g id="Capa_2" data-name="Capa 2"><g id="Capa_1-2" data-name="Capa 1"><path class="cls-1" d="M5.37,43.8H28.5a6.46,6.46,0,0,1,4.58,1.9L48.15,60.77"/><circle class="cls-1" cx="2.97" cy="43.8" r="2.39"/><circle class="cls-1" cx="49.62" cy="62.06" r="2.39"/><path class="cls-1" d="M15.72,73.15,32.08,56.8a6.46,6.46,0,0,1,4.58-1.9H58"/><circle class="cls-1" cx="14.03" cy="74.85" r="2.39"/><circle class="cls-1" cx="59.92" cy="54.77" r="2.39"/><path class="cls-1" d="M43.8,86.59V63.45a6.44,6.44,0,0,1,1.9-4.57L60.77,43.8"/><circle class="cls-1" cx="43.8" cy="88.98" r="2.39"/><circle class="cls-1" cx="62.06" cy="42.34" r="2.39"/><path class="cls-1" d="M73.15,76.23,56.8,59.87a6.45,6.45,0,0,1-1.9-4.58V34"/><circle class="cls-1" cx="74.85" cy="77.92" r="2.39"/><circle class="cls-1" cx="54.77" cy="32.03" r="2.39"/><path class="cls-1" d="M86.59,48.15H63.45a6.47,6.47,0,0,1-4.57-1.89L43.8,31.18"/><circle class="cls-1" cx="88.98" cy="48.15" r="2.39"/><circle class="cls-1" cx="42.34" cy="29.9" r="2.39"/><path class="cls-1" d="M76.23,18.8,59.87,35.16a6.48,6.48,0,0,1-4.58,1.89H34"/><circle class="cls-1" cx="77.92" cy="17.11" r="2.39"/><circle class="cls-1" cx="32.03" cy="37.18" r="2.39"/><path class="cls-1" d="M48.15,5.37V28.5a6.5,6.5,0,0,1-1.89,4.58L31.18,48.15"/><circle class="cls-1" cx="48.15" cy="2.97" r="2.39"/><circle class="cls-1" cx="29.9" cy="49.62" r="2.39"/><path class="cls-1" d="M18.8,15.72,35.16,32.08a6.5,6.5,0,0,1,1.89,4.58V58"/><circle class="cls-1" cx="17.11" cy="14.03" r="2.39"/><circle class="cls-1" cx="37.18" cy="59.92" r="2.39"/></g></g></svg>