<svg xmlns="http://www.w3.org/2000/svg" viewBox="0 0 68.52 323.57"><title>Recurso 7ART</title><g id="Capa_2" data-name="Capa 2"><g id="Capa_1-2" data-name="Capa 1"><path d="M32.85,57.45l-2.74,2.74c0,.23.16.32.28.44L32.78,63a1.09,1.09,0,0,1,0,.17.6.6,0,0,1-.08.08l-2.42,2.41a.45.45,0,0,0,0,.13s0,.06.05.09l2.43,2.43s0,.07,0,.15l-2.67,2.67a.92.92,0,0,0,0,.17s0,.05.07.08l2.51,2.51s.06,0,.07.08,0,.07,0,.15l-2.51,2.52c0,.09,0,.14,0,.16l2.5,2.5a.47.47,0,0,0,.12,0l.09,0,2.43-2.43s.07,0,.1,0l.1,0a.3.3,0,0,1,.08.08l2.51,2.51.09.06h.11a.27.27,0,0,0,.08-.07l5.25-5.25s0-.07,0-.15l-2.67-2.67a.87.87,0,0,1,0-.17.6.6,0,0,1,.08-.08l5.25-5.25c0-.23-.16-.31-.28-.44L43.9,63.17c0-.1,0-.14,0-.16l2.65-2.66h.13a.24.24,0,0,1,.08.06L52,65.59a.64.64,0,0,1,.12.21l-2.69,2.7c0,.33.31.44.48.62s.36.37.54.55l.47.47.55.55.56.56-2.59,2.59c0,.09,0,.13,0,.16l.15.15,5.17,5.17a.47.47,0,0,1,0,.12.26.26,0,0,1,0,.09c-.87.86-1.73,1.72-2.59,2.59,0,0,0,.06,0,.1a.38.38,0,0,0,0,.1s.05.05.07.08l5.18,5.17.05.09a.4.4,0,0,1,0,.11.24.24,0,0,1-.06.08l-2.43,2.43s0,.07,0,.16l2.67,2.67c0,.09,0,.14,0,.16a1.21,1.21,0,0,1-.16.16l-2.5,2.51c0,.22.16.31.28.43L59.78,101l.43.43c0,.1,0,.13,0,.16a.2.2,0,0,1-.08.08l-2.41,2.42a.55.55,0,0,0,0,.13.24.24,0,0,0,.06.09l2.43,2.43s0,.06,0,.15L52,115.07c.58.74,4.59,4.77,5.49,5.51l2.69-2.7h.16l5.32,5.33a.48.48,0,0,1,0,.12.22.22,0,0,1,0,.08L63.06,126s0,.07,0,.1a.16.16,0,0,0,0,.1l.08.08,2.5,2.51a.47.47,0,0,1,.06.09.4.4,0,0,1,0,.11.24.24,0,0,1-.06.08l-2.43,2.43s0,.07,0,.16L68.51,137c0,.09,0,.14,0,.17s-.05.05-.07.08l-2.59,2.58c0,.23.16.32.28.44l2.24,2.24c0,.09,0,.13,0,.16s0,.05-.07.08L52.05,159a.53.53,0,0,0,0,.13.22.22,0,0,0,0,.08c.86.87,1.73,1.73,2.59,2.59,0,0,0,.07,0,.13l-5.38,5.38c-.28,0-.39-.3-.58-.47s-.37-.36-.55-.54l-.63-.63c-.18-.18-.35-.37-.55-.55s-.31-.41-.59-.49L41.08,170c0,.06,0,.11,0,.13a1.14,1.14,0,0,0,.15.16l2.51,2.5a.41.41,0,0,1,0,.12.11.11,0,0,1-.05.09l-2.42,2.43s0,.07,0,.1a.15.15,0,0,0,0,.1.29.29,0,0,0,.07.08L43.69,178l.06.08A22.11,22.11,0,0,1,41,180.93l-2.53-2.53a.87.87,0,0,0-.17,0s0,0-.08.08l-2.45,2.45a1.35,1.35,0,0,1-.26-.15l-5.09-5.09a1.13,1.13,0,0,1-.12-.18s0-.07,0-.1,0,0,.07-.08l2.42-2.42a.56.56,0,0,0,0-.13.16.16,0,0,0-.06-.08l-2.58-2.59s0-.07,0-.15l2.67-2.67a.87.87,0,0,0,0-.17s-.05-.05-.07-.08l-.08-.08-5-5-.08-.08-.08-.08a.58.58,0,0,1,0-.16L30,159.11c0-.08,0-.13,0-.15a1.14,1.14,0,0,0-.15-.16l-2.35-2.35a.48.48,0,0,1,0-.12.41.41,0,0,1,0-.09l2.59-2.59s0-.06,0-.09,0-.08,0-.11a.6.6,0,0,0-.08-.08l-2.51-2.5-.06-.09a.4.4,0,0,1,0-.11.18.18,0,0,1,.07-.08c.81-.81,1.62-1.62,2.42-2.44,0,0,0-.06,0-.15l-2.52-2.51a.87.87,0,0,1,0-.17.6.6,0,0,1,.08-.08L32.77,140A17.58,17.58,0,0,0,30,137.17h-.1a.3.3,0,0,0-.08.08l-2.42,2.42h-.13s-.06,0-.08,0l-2.44-2.43s-.06,0-.14,0L22,139.83h-.16a.18.18,0,0,1-.08-.07l-5.18-5.17-.08-.08h-.16L11,139.84c-.09,0-.14,0-.16,0a1.14,1.14,0,0,1-.16-.15l-2.5-2.5H8l-.09.05L2.7,142.47s-.07,0-.1,0-.08,0-.1,0C1.66,141.65.83,140.81,0,140a.65.65,0,0,1,0-.14.24.24,0,0,1,.06-.08l2.59-2.59s0-.07,0-.15L0,134.36a.87.87,0,0,1,0-.17s0-.05.08-.08l2.43-2.43c0-.22-.17-.31-.29-.43L0,129a1.08,1.08,0,0,1,0-.16.3.3,0,0,1,.08-.08l5.24-5.24v-.13a.47.47,0,0,0-.06-.09l-2.59-2.58s0-.07,0-.15l2.69-2.69c0-.33-.32-.44-.48-.62a7.14,7.14,0,0,0-.55-.55l-.47-.47c-.18-.19-.37-.36-.54-.55s-.41-.31-.5-.62l5.35-5.35c0-.09,0-.13,0-.16s-.1-.1-.15-.16l-2.51-2.5a.49.49,0,0,1,0-.12.14.14,0,0,1,0-.09L8,104.27s0-.06,0-.1a.18.18,0,0,0,0-.1L7.9,104l-2.35-2.35a.7.7,0,0,1-.06-.09.45.45,0,0,1,0-.11.21.21,0,0,1,.06-.08l5.25-5.25s0-.07,0-.16L8.16,93.28a.79.79,0,0,1,0-.16A.3.3,0,0,1,8.24,93l2.58-2.59c0-.22-.16-.31-.28-.43L8.31,87.78a1.08,1.08,0,0,1,0-.16.3.3,0,0,1,.08-.08l5.24-5.24a.49.49,0,0,0,0-.13.41.41,0,0,0-.05-.09L11,79.5s0-.07,0-.15L16.32,74c-.05-.33-.31-.44-.48-.63s-.36-.37-.54-.55l-.47-.47c-.18-.18-.38-.36-.55-.55s-.41-.31-.49-.62l2.52-2.52c0-.09,0-.14,0-.16a1.14,1.14,0,0,0-.15-.16l-2.5-2.5a.47.47,0,0,1,0-.12.26.26,0,0,1,0-.09L19,60.38s0-.07,0-.1a.29.29,0,0,0,0-.1s-.05-.06-.07-.08l-2.35-2.35a.47.47,0,0,1-.06-.09.4.4,0,0,1,0-.11.47.47,0,0,1,.06-.09l2.59-2.58s0-.07,0-.16l-2.67-2.67a.79.79,0,0,1,0-.16.2.2,0,0,1,.08-.08l5.25-5.25c0-.23-.16-.32-.29-.44-.74-.76-1.5-1.51-2.23-2.24a.4.4,0,0,1,0-.16s.05,0,.07-.08l2.42-2.41a.55.55,0,0,0,0-.13.47.47,0,0,0-.06-.09l-2.59-2.59s0-.06,0-.15l5.35-5.35c0-.32-.31-.43-.47-.62s-.37-.37-.55-.55L23,31.28c-.18-.19-.37-.36-.55-.55s-.41-.31-.49-.62l2.68-2.68c0-.09,0-.14,0-.16a1.14,1.14,0,0,0-.15-.16L22,24.61a.41.41,0,0,1,0-.12A.12.12,0,0,1,22,24.4l5.25-5.25s0-.07,0-.1a.16.16,0,0,0,0-.1s-.05-.06-.07-.08l-2.35-2.36a.24.24,0,0,1-.06-.08.4.4,0,0,1,0-.11.47.47,0,0,1,.06-.09l2.43-2.43s0-.07,0-.15L24.62,11a.92.92,0,0,1,0-.17.6.6,0,0,1,.08-.08L30,5.4l2.82,2.82-2.6,2.6c.07.31.32.43.49.62s.36.36.54.55l.47.47c.18.18.37.35.55.55s.41.3.49.61l-2.67,2.67a.55.55,0,0,0,0,.17,1.21,1.21,0,0,0,.16.16l2.5,2.5c0,.22-.16.31-.28.43l-2.23,2.24c0,.08,0,.13,0,.15a1.14,1.14,0,0,0,.15.16l2.35,2.35c0,.23-.16.31-.28.43l-2.39,2.4c0,.08,0,.13,0,.15.89.89,1.77,1.78,2.66,2.66,0,.23-.16.32-.28.44l-2.23,2.23c0,.09,0,.14,0,.16l2.58,2.58-2.72,2.73a.15.15,0,0,0,0,.1.13.13,0,0,0,0,.09l2.72,2.73c-.86.85-1.71,1.71-2.57,2.57,0,0,0,.07,0,.1A20,20,0,0,0,32.9,46.4l2.6-2.6-2.65-2.65,2.72-2.73a.13.13,0,0,0,0-.09.15.15,0,0,0,0-.1L32.85,35.5l2.58-2.58c.23,0,.32.16.44.28.81.8,1.61,1.61,2.39,2.39.09,0,.14,0,.16,0l.24-.23,2.42-2.43a16.94,16.94,0,0,1,2.67,2.58s0,.08,0,.11a.6.6,0,0,1-.08.08l-2.57,2.57a.47.47,0,0,0,0,.12.15.15,0,0,0,.06.09l5.24,5.25s0,.06,0,.12c-.12.26-.39.41-.58.63s-.47.47-.7.7l-.63.63-.61.61a.55.55,0,0,0,0,.13.47.47,0,0,0,.06.09l2.59,2.58s0,.07,0,.15l-5.34,5.34a.83.83,0,0,0,0,.16.24.24,0,0,0,.06.08l2.43,2.43s0,.07,0,.13L41,60.2c-.28-.05-.39-.31-.58-.47s-.37-.37-.55-.55l-.47-.47c-.18-.18-.36-.37-.55-.54s-.31-.41-.61-.5L35.75,60.2h-.16s-.05,0-.08-.08l-2.66-2.66,2.57-2.57s0-.07,0-.1A20,20,0,0,0,32.8,52.2l-2.54,2.55c0,.06,0,.11,0,.13ZM19.21,120.63l-2.73,2.73s0,.07,0,.1A19.79,19.79,0,0,0,19.1,126l2.7-2.69c0-.07,0-.12,0-.14l-2.57-2.57,2.57-2.58s0-.06,0-.1A22.07,22.07,0,0,0,19,115.23l-2.55,2.54c0,.06,0,.11,0,.13ZM32.85,90.37l2.57-2.57s0-.07,0-.1a19.11,19.11,0,0,0-2.64-2.57l-2.54,2.54c0,.06,0,.11,0,.13l2.57,2.57L30.12,93.1s0,.07,0,.11a21.45,21.45,0,0,0,2.79,2.72l2.76-2.75Z"/><path d="M41,279.75,49.23,288c.23,0,.31-.16.43-.28l2.4-2.39c.09,0,.14,0,.16,0l5.32,5.32a.4.4,0,0,1,0,.11.19.19,0,0,1,0,.09l-2.58,2.59s0,.06,0,.1a.18.18,0,0,0,0,.1s.05.05.07.08l2.41,2.41a.55.55,0,0,1,0,.13.15.15,0,0,1-.06.09l-2.42,2.43s0,.07,0,.15l2.68,2.68c0,.33-.31.44-.48.63s-.36.37-.54.55l-.63.63c-.18.18-.37.35-.54.55s-.42.3-.5.61l2.53,2.53c0,.09,0,.14,0,.16l-16.3,16.29c-.22,0-.31-.15-.43-.27l-2.24-2.24c-.09,0-.13,0-.16,0a1.14,1.14,0,0,0-.16.15l-2.34,2.35h-.12a.12.12,0,0,1-.09-.05L33,320.93s-.06,0-.1,0l-.1,0-.08.08-2.5,2.51-.09.06H30a.16.16,0,0,1-.08-.06l-2.44-2.43-.15,0-2.51,2.52c-.09,0-.13,0-.17,0s-.05,0-.08-.07L11,309.94s0-.07,0-.16l2.51-2.51c0-.09,0-.14,0-.16a1.14,1.14,0,0,0-.15-.16l-5.17-5.17c0-.23.16-.32.28-.44L10.83,299a1.08,1.08,0,0,0,0-.16.2.2,0,0,0-.08-.08l-2.41-2.42a.56.56,0,0,1,0-.13.22.22,0,0,1,0-.08l2.43-2.44s0-.06,0-.14l-2.69-2.7A22.56,22.56,0,0,1,11,288l2.69,2.69c.09,0,.13,0,.16,0s0-.05.08-.07l13.4-13.4s0-.07,0-.16l-8.16-8.15c0-.09,0-.13,0-.16s.05-.06.07-.08l5.33-5.33,8.21,8.21s.07,0,.14,0l2.68-2.68h.16a.16.16,0,0,1,.08.06l2.43,2.42s.06,0,.12,0a3.39,3.39,0,0,0,.62-.58c.25-.22.47-.47.71-.7l.62-.63.61-.61h.14a.16.16,0,0,1,.08.06l5.28,5.27c0,.1,0,.14,0,.16L41,279.75c-.86-.86-1.71-1.72-2.57-2.57,0,0-.07,0-.1,0a20,20,0,0,0-2.58,2.64l2.55,2.54c.06,0,.11,0,.13,0Zm-8.15,35.74-5.25-5.25a1.14,1.14,0,0,1-.15-.16s0-.07,0-.13l2.69-2.69c.06,0,.1,0,.13,0a.18.18,0,0,1,.08.07l2.35,2.35s0,.06.09.07H33l2.52-2.52c.08,0,.12,0,.14,0l2.59,2.58.09.06h.11c3.75-3.65,7.34-7.27,8.2-8.28L44,299a.26.26,0,0,1-.05-.09v-.11l2.35-2.35a1.14,1.14,0,0,0,.15-.16s0-.07,0-.16l-2.58-2.59.55-.55.55-.55.63-.63c.18-.18.37-.35.54-.55s.43-.29.47-.58l-5.37-5.37c-.07,0-.12,0-.14,0l-2.58,2.58-.09.06h-.13L33,282.75a.2.2,0,0,0-.08-.08s-.06,0-.1,0a.38.38,0,0,0-.1,0l-5.25,5.25a.19.19,0,0,1-.09.05h-.12l-2.5-2.5-.16-.16H24.5l-.23.2-4.94,4.94c-.1.1-.23.18-.19.36l2.58,2.58a.6.6,0,0,1,.08.08.9.9,0,0,1,0,.17l-2.52,2.51c0,.08,0,.13,0,.15l2.42,2.43a.28.28,0,0,1,.07.09.4.4,0,0,1,0,.11l-.06.08-2.51,2.51-.08.08s0,.07,0,.1,0,.08,0,.1l2.58,2.59a.18.18,0,0,1,.06.09v.12l-2.35,2.34a1.14,1.14,0,0,0-.15.16s0,.07,0,.11a1.77,1.77,0,0,0,.12.17L30,318a.92.92,0,0,0,.25.15l2.61-2.61,2.57,2.57s.07,0,.11,0a21.41,21.41,0,0,0,2.72-2.79l-2.54-2.54c-.06,0-.11,0-.13,0Zm10.9-.08s.09,0,.1,0l2.72-2.71a25.23,25.23,0,0,0-2.79-2.78l-2.7,2.7c0,.06,0,.11,0,.13Z"/><path d="M32.85,222.06l2.66-2.67,2.75,2.75c.09,0,.13,0,.16,0s.1-.1.16-.15l2.5-2.51A14.84,14.84,0,0,1,43.75,222s0,.08,0,.1l-.39.4-2.27,2.26c0,.23.16.32.28.44l2.39,2.39c0,.09,0,.14,0,.16l-5.39,5.4-2.82-2.82L32.85,233l-2.43-2.42-.15-.16s-.07,0-.16,0l-2.39,2.4c-.12.12-.31.21-.27.43L30,235.85l-2.58,2.58s0,.07,0,.11a.25.25,0,0,0,0,.09l2.57,2.58a.13.13,0,0,1,.05.09.41.41,0,0,1,0,.12L27.54,244s-.06.05-.07.08a.58.58,0,0,0,0,.17l5.42,5.42-2.56,2.57s0,.06,0,.1,0,.07,0,.09L32.85,255l-8.31,8.31L22,260.7c0-.22.16-.31.28-.43l2.39-2.4a1.08,1.08,0,0,0,0-.16l-.08-.08L22,255.06a.53.53,0,0,1,0-.13.22.22,0,0,1,.05-.08l2.43-2.43a.35.35,0,0,0,0-.12,3.15,3.15,0,0,0-.58-.63c-.22-.25-.47-.47-.7-.71l-.63-.63-.61-.6a.49.49,0,0,1,0-.14.47.47,0,0,1,.06-.09l2.59-2.58s0-.07,0-.16L22,244.09c0-.09,0-.13,0-.16s.05-.05.07-.08l2.43-2.43c0-.22-.16-.31-.28-.44L22,238.75c0-.09,0-.13,0-.16s.05-.06.07-.08l2.58-2.58a.47.47,0,0,0,0-.12.18.18,0,0,0-.06-.09L22,233.13s0-.06,0-.16l.82-.82.86-.86.84-.84a.63.63,0,0,0,0-.14s0-.06-.07-.09L22,227.79s0-.07,0-.15L24.62,225a.9.9,0,0,0,0-.17l-.16-.16L22,222.14c0-.23.17-.32.29-.44l2.23-2.23a1.09,1.09,0,0,0,0-.17l-.08-.08L22,216.81a.49.49,0,0,1,0-.13.41.41,0,0,1,.05-.09L24.6,214s0-.07,0-.15L22,211.18c0-.34.31-.44.47-.63s.36-.37.54-.55l.47-.47c.19-.18.38-.36.55-.55s.41-.31.5-.62L22,205.85a.87.87,0,0,1,0-.17s.05-.06.07-.08l2.67-2.67,2.56,2.57s.07,0,.1,0,.08,0,.1,0L30,202.93l2.74,2.74c0,.23-.16.32-.28.44L28,210.65l-.51.5c0,.1,0,.15,0,.17a1.14,1.14,0,0,0,.15.16c.78.78,1.57,1.56,2.35,2.35,0,.22-.16.31-.28.43l-2.23,2.24c0,.09,0,.14,0,.16l5.4,5.4-2.73,2.73s0,.07,0,.1a21,21,0,0,0,2.79,2.73l2.76-2.76Z"/><path d="M38.34,238.52,43.82,244l-2.75,2.76c.07.31.32.43.48.61s.37.37.55.55l.62.63c.19.18.38.36.55.55s.41.31.49.61l-2.52,2.53a.79.79,0,0,0,0,.16l.16.15,2.37,2.37a1.1,1.1,0,0,1-.15.26l-7.9,7.91-.17.12a.4.4,0,0,1-.11,0,.3.3,0,0,1-.08-.08l-2.43-2.42c0-.23.16-.32.28-.44l2.39-2.39c0-.09,0-.13,0-.16l-.16-.16L32.85,255l2.56-2.57s0-.06,0-.09,0-.08,0-.1l-2.56-2.57,2.58-2.58.16-.16s0-.07,0-.16L32.85,244Z"/><path d="M24.54,186.47l2.74,2.74c.23,0,.31-.15.44-.27l2.39-2.39c.09,0,.14,0,.16,0l2.5,2.5c0,.23-.16.31-.28.44L28,194l-.51.51c0,.09,0,.14,0,.16l5.4,5.4L30,202.93l-2.57-2.56a.15.15,0,0,0-.1,0s-.08,0-.1,0l-2.56,2.56-2.82-2.81,2.58-2.58a.83.83,0,0,0,0-.16s0,0-.06-.08L22,194.88s0-.07,0-.14l2.67-2.67a.83.83,0,0,0,0-.16.16.16,0,0,0-.06-.08L22,189.25s0-.06,0-.1,0-.08,0-.1Z"/><path d="M5.49,150.68,8,148.14c.06,0,.11,0,.13,0a1.14,1.14,0,0,1,.16.15l16.13,16.14s0,.07,0,.13l-2.53,2.54a.31.31,0,0,1-.14,0s-.05,0-.07-.07L5.5,150.81S5.5,150.74,5.49,150.68Z"/><path d="M38.34,205.6l-5.49-5.49,5.47-5.47,2.77,2.76c-.06.29-.32.41-.48.59s-.36.37-.55.55l-.62.63c-.19.18-.38.36-.55.55s-.41.3-.49.61l2.53,2.53c0,.08,0,.13,0,.15a1.21,1.21,0,0,1-.16.16Z"/><path d="M38.34,211.24l-2.72-2.72s0-.07,0-.1,0-.08,0-.1l2.72-2.72,2.72,2.72s0,.07,0,.1,0,.08,0,.1Z"/><path d="M30,5.4c-.86-.85-1.72-1.71-2.57-2.57,0,0,0-.07,0-.13L30.14,0a19.79,19.79,0,0,1,2.63,2.57.15.15,0,0,1,0,.1C31.85,3.59,30.94,4.49,30,5.4Z"/><path d="M24.54,186.47,22,183.9s0-.07,0-.13l2.7-2.7a18.64,18.64,0,0,1,2.63,2.57s0,.08,0,.1Z"/><path d="M38.34,211.24l2.57,2.58s0,.06,0,.13l-2.54,2.54a19.14,19.14,0,0,1-2.64-2.57s0-.08,0-.1Z"/><path d="M38.34,233.19l2.56,2.57a.13.13,0,0,1,0,.09.15.15,0,0,1,0,.1l-2.56,2.57-2.67-2.67Z"/><path d="M30,235.85,32.85,233l2.82,2.82L33,238.57s-.07,0-.1,0-.08,0-.1,0Z"/></g></g></svg>