<svg xmlns="http://www.w3.org/2000/svg" viewBox="0 0 126.81 126.81"><title>Recurso 92MANDALA</title><g id="Capa_2" data-name="Capa 2"><g id="Capa_1-2" data-name="Capa 1"><rect x="68.42" y="54.82" width="7.3" height="3.92"/><rect x="75.72" y="50.9" width="7.3" height="3.92"/><rect x="83.02" y="46.97" width="7.3" height="3.92"/><rect x="90.31" y="46.97" width="7.3" height="3.92"/><rect x="97.61" y="46.97" width="7.3" height="3.92"/><rect x="104.91" y="50.9" width="7.3" height="3.92"/><rect x="112.21" y="54.82" width="7.3" height="3.92"/><rect x="119.51" y="58.74" width="7.3" height="3.92"/><rect x="63.95" y="51.38" width="7.3" height="3.92" transform="translate(-17.61 40.94) rotate(-30)"/><rect x="68.31" y="44.33" width="7.3" height="3.92" transform="translate(-13.5 42.18) rotate(-30)"/><rect x="72.66" y="37.28" width="7.3" height="3.92" transform="translate(-9.4 43.41) rotate(-30)"/><rect x="78.98" y="33.63" width="7.3" height="3.92" transform="translate(-6.73 46.09) rotate(-30)"/><rect x="85.31" y="29.98" width="7.3" height="3.92" transform="translate(-4.05 48.76) rotate(-30)"/><rect x="93.59" y="29.73" width="7.3" height="3.92" transform="translate(-2.82 52.87) rotate(-30)"/><rect x="101.87" y="29.48" width="7.3" height="3.92" transform="translate(-1.58 56.97) rotate(-30)"/><rect x="110.16" y="29.23" width="7.3" height="3.92" transform="translate(-0.35 61.08) rotate(-30)"/><rect x="58.35" y="50.63" width="7.3" height="3.92" transform="translate(-14.54 79.99) rotate(-60)"/><rect x="58.6" y="42.35" width="7.3" height="3.92" transform="translate(-7.25 76.07) rotate(-60)"/><rect x="58.85" y="34.06" width="7.3" height="3.92" transform="translate(0.05 72.14) rotate(-60)"/><rect x="62.5" y="27.74" width="7.3" height="3.92" transform="translate(7.35 72.14) rotate(-60)"/><rect x="66.15" y="21.42" width="7.3" height="3.92" transform="translate(14.65 72.14) rotate(-60)"/><rect x="73.2" y="17.06" width="7.3" height="3.92" transform="translate(21.95 76.07) rotate(-60)"/><rect x="80.25" y="12.7" width="7.3" height="3.92" transform="translate(29.25 79.99) rotate(-60)"/><rect x="87.3" y="8.34" width="7.3" height="3.92" transform="translate(36.55 83.91) rotate(-60)"/><rect x="53.13" y="52.78" width="7.3" height="3.92" transform="translate(2.04 111.52) rotate(-90)"/><rect x="49.21" y="45.48" width="7.3" height="3.92" transform="translate(5.42 100.3) rotate(-90)"/><rect x="45.28" y="38.18" width="7.3" height="3.92" transform="translate(8.79 89.08) rotate(-90)"/><rect x="45.28" y="30.88" width="7.3" height="3.92" transform="translate(16.09 81.78) rotate(-90)"/><rect x="45.28" y="23.58" width="7.3" height="3.92" transform="translate(23.39 74.48) rotate(-90)"/><rect x="49.21" y="16.28" width="7.3" height="3.92" transform="translate(34.61 71.1) rotate(-90)"/><rect x="53.13" y="8.99" width="7.3" height="3.92" transform="translate(45.83 67.73) rotate(-90)"/><rect x="57.06" y="1.69" width="7.3" height="3.92" transform="translate(57.06 64.36) rotate(-90)"/><rect x="49.69" y="57.25" width="7.3" height="3.92" transform="translate(28.73 135.01) rotate(-120)"/><rect x="42.64" y="52.89" width="7.3" height="3.92" transform="translate(21.93 122.37) rotate(-120)"/><rect x="35.59" y="48.53" width="7.3" height="3.92" transform="translate(15.13 109.73) rotate(-120)"/><rect x="31.94" y="42.21" width="7.3" height="3.92" transform="translate(15.13 97.09) rotate(-120)"/><rect x="28.29" y="35.89" width="7.3" height="3.92" transform="translate(15.13 84.44) rotate(-120)"/><rect x="28.04" y="27.61" width="7.3" height="3.92" transform="translate(21.93 71.8) rotate(-120)"/><rect x="27.79" y="19.32" width="7.3" height="3.92" transform="translate(28.73 59.16) rotate(-120)"/><rect x="27.54" y="11.04" width="7.3" height="3.92" transform="translate(35.52 46.52) rotate(-120)"/><rect x="48.94" y="62.85" width="7.3" height="3.92" transform="translate(65.73 147.23) rotate(-150)"/><rect x="40.66" y="62.59" width="7.3" height="3.92" transform="translate(50.4 142.62) rotate(-150)"/><rect x="32.38" y="62.34" width="7.3" height="3.92" transform="translate(35.07 138.01) rotate(-150)"/><rect x="26.05" y="58.69" width="7.3" height="3.92" transform="translate(25.1 128.04) rotate(-150)"/><rect x="19.73" y="55.04" width="7.3" height="3.92" transform="translate(15.13 118.07) rotate(-150)"/><rect x="15.37" y="48" width="7.3" height="3.92" transform="translate(10.52 102.74) rotate(-150)"/><rect x="11.02" y="40.95" width="7.3" height="3.92" transform="translate(5.91 87.41) rotate(-150)"/><rect x="6.66" y="33.9" width="7.3" height="3.92" transform="translate(1.3 72.07) rotate(-150)"/><rect x="51.09" y="68.06" width="7.3" height="3.92" transform="translate(109.48 140.05) rotate(-180)"/><rect x="43.79" y="71.99" width="7.3" height="3.92" transform="translate(94.88 147.9) rotate(-180)"/><rect x="36.49" y="75.91" width="7.3" height="3.92" transform="translate(80.29 155.75) rotate(-180)"/><rect x="29.2" y="75.91" width="7.3" height="3.92" transform="translate(65.69 155.75) rotate(-180)"/><rect x="21.9" y="75.91" width="7.3" height="3.92" transform="translate(51.09 155.75) rotate(-180)"/><rect x="14.6" y="71.99" width="7.3" height="3.92" transform="translate(36.49 147.9) rotate(-180)"/><rect x="7.3" y="68.06" width="7.3" height="3.92" transform="translate(21.9 140.05) rotate(-180)"/><rect y="64.14" width="7.3" height="3.92" transform="translate(7.3 132.2) rotate(-180)"/><rect x="55.56" y="71.51" width="7.3" height="3.92" transform="translate(147.23 107.49) rotate(150)"/><rect x="51.2" y="78.56" width="7.3" height="3.92" transform="translate(142.62 122.82) rotate(150)"/><rect x="46.85" y="85.6" width="7.3" height="3.92" transform="translate(138.01 138.15) rotate(150)"/><rect x="40.52" y="89.25" width="7.3" height="3.92" transform="translate(128.04 148.12) rotate(150)"/><rect x="34.2" y="92.9" width="7.3" height="3.92" transform="translate(118.07 158.09) rotate(150)"/><rect x="25.92" y="93.15" width="7.3" height="3.92" transform="translate(102.74 162.7) rotate(150)"/><rect x="17.64" y="93.41" width="7.3" height="3.92" transform="translate(87.41 167.31) rotate(150)"/><rect x="9.35" y="93.66" width="7.3" height="3.92" transform="translate(72.07 171.92) rotate(150)"/><rect x="61.16" y="72.26" width="7.3" height="3.92" transform="translate(161.49 55.2) rotate(120)"/><rect x="60.91" y="80.54" width="7.3" height="3.92" transform="matrix(-0.5, 0.87, -0.87, -0.5, 168.28, 67.84)"/><rect x="60.66" y="88.82" width="7.3" height="3.92" transform="translate(175.08 80.49) rotate(120)"/><rect x="57.01" y="95.14" width="7.3" height="3.92" transform="matrix(-0.5, 0.87, -0.87, -0.5, 175.08, 93.13)"/><rect x="53.36" y="101.46" width="7.3" height="3.92" transform="matrix(-0.5, 0.87, -0.87, -0.5, 175.08, 105.77)"/><rect x="46.31" y="105.82" width="7.3" height="3.92" transform="translate(168.28 118.41) rotate(120)"/><rect x="39.26" y="110.18" width="7.3" height="3.92" transform="translate(161.49 131.05) rotate(120)"/><rect x="32.21" y="114.54" width="7.3" height="3.92" transform="matrix(-0.5, 0.87, -0.87, -0.5, 154.69, 143.7)"/><rect x="66.38" y="70.11" width="7.3" height="3.92" transform="translate(142.09 2.04) rotate(90)"/><rect x="70.3" y="77.4" width="7.3" height="3.92" transform="translate(153.32 5.42) rotate(90)"/><rect x="74.23" y="84.7" width="7.3" height="3.92" transform="translate(164.54 8.79) rotate(90)"/><rect x="74.23" y="92" width="7.3" height="3.92" transform="translate(171.84 16.09) rotate(90)"/><rect x="74.23" y="99.3" width="7.3" height="3.92" transform="translate(179.14 23.39) rotate(90)"/><rect x="70.3" y="106.6" width="7.3" height="3.92" transform="translate(182.51 34.61) rotate(90)"/><rect x="66.38" y="113.9" width="7.3" height="3.92" transform="translate(185.89 45.83) rotate(90)"/><rect x="62.45" y="121.2" width="7.3" height="3.92" transform="translate(189.26 57.06) rotate(90)"/><rect x="69.82" y="65.63" width="7.3" height="3.92" transform="translate(95.28 -29.83) rotate(60)"/><rect x="76.87" y="69.99" width="7.3" height="3.92" transform="translate(102.57 -33.75) rotate(60)"/><rect x="83.92" y="74.35" width="7.3" height="3.92" transform="translate(109.87 -37.68) rotate(60)"/><rect x="87.57" y="80.67" width="7.3" height="3.92" transform="translate(117.17 -37.68) rotate(60)"/><rect x="91.22" y="86.99" width="7.3" height="3.92" transform="translate(124.47 -37.68) rotate(60)"/><rect x="91.47" y="95.28" width="7.3" height="3.92" transform="translate(131.77 -33.75) rotate(60)"/><rect x="91.72" y="103.56" width="7.3" height="3.92" transform="translate(139.07 -29.83) rotate(60)"/><rect x="91.97" y="111.84" width="7.3" height="3.92" transform="translate(146.37 -25.91) rotate(60)"/><rect x="70.57" y="60.04" width="7.3" height="3.92" transform="matrix(0.87, 0.5, -0.5, 0.87, 40.94, -28.8)"/><rect x="78.85" y="60.29" width="7.3" height="3.92" transform="translate(42.18 -32.91) rotate(30)"/><rect x="87.13" y="60.54" width="7.3" height="3.92" transform="matrix(0.87, 0.5, -0.5, 0.87, 43.41, -37.02)"/><rect x="93.46" y="64.19" width="7.3" height="3.92" transform="matrix(0.87, 0.5, -0.5, 0.87, 46.09, -39.69)"/><rect x="99.78" y="67.84" width="7.3" height="3.92" transform="translate(48.76 -42.36) rotate(30)"/><rect x="104.14" y="74.89" width="7.3" height="3.92" transform="translate(52.87 -43.6) rotate(30)"/><rect x="108.49" y="81.94" width="7.3" height="3.92" transform="translate(56.97 -44.83) rotate(30)"/><rect x="112.85" y="88.98" width="7.3" height="3.92" transform="translate(61.08 -46.07) rotate(30)"/></g></g></svg>