<svg xmlns="http://www.w3.org/2000/svg" viewBox="0 0 116.84 115.84"><title>Recurso 86MANDALA</title><g id="Capa_2" data-name="Capa 2"><g id="Capa_1-2" data-name="Capa 1"><path d="M4,48.61A28.67,28.67,0,0,0,.64,53.69c-1.86,3.17.42,8.93,6,11.41a31.21,31.21,0,0,0,28.16-1.3c5.13-2.72,10.48-5.63,14.85-6a36.32,36.32,0,0,1-7-.31c-4.14-.45-9,1.05-13.31,2.81A25.07,25.07,0,0,1,6.7,58.82C2.54,56.28,1.59,51.22,4,48.61Z"/><path d="M4.06,67.79a29.85,29.85,0,0,0-1.39,5.92C2,77.33,6.13,82,12.23,82.37a31.2,31.2,0,0,0,26-10.85c3.9-4.32,7.92-8.87,11.91-10.72a36.09,36.09,0,0,1-6.74,2.11c-4,1-8.06,4.06-11.54,7.2a25.07,25.07,0,0,1-21.74,6.34C5.35,75.49,2.73,71.06,4.06,67.79Z"/><path d="M10.72,85.79a28.93,28.93,0,0,0,.71,6c.62,3.63,6.07,6.57,12,4.88A31.22,31.22,0,0,0,44.11,77.6c2.19-5.39,4.41-11,7.52-14.15A35.27,35.27,0,0,1,46,67.74c-3.45,2.32-6.19,6.57-8.38,10.72A25.08,25.08,0,0,1,19.38,91.85C14.56,92.59,10.58,89.32,10.72,85.79Z"/><path d="M23.13,100.43a29.61,29.61,0,0,0,2.73,5.42c1.82,3.19,8,4.1,12.9.49a31.22,31.22,0,0,0,13-25c.21-5.81.36-11.89,2.23-15.87a36.25,36.25,0,0,1-3.81,6c-2.45,3.36-3.57,8.29-4.21,12.94a25.13,25.13,0,0,1-12.58,18.83C29.06,105.5,24.21,103.79,23.13,100.43Z"/><path d="M39.79,109.93a29.2,29.2,0,0,0,4.43,4.16c2.8,2.38,8.87,1.13,12.28-3.94a31.19,31.19,0,0,0,3.61-28c-1.79-5.53-3.72-11.29-3.33-15.67a36.55,36.55,0,0,1-1.54,6.9c-1.16,4-.52,9,.46,13.59a25.06,25.06,0,0,1-5.38,22C47.1,112.67,42,112.72,39.79,109.93Z"/><path d="M58.71,113.17a29.22,29.22,0,0,0,5.58,2.39c3.45,1.28,8.72-2,10.19-7.91a31.22,31.22,0,0,0-6.17-27.5c-3.57-4.59-7.36-9.34-8.49-13.59a36.14,36.14,0,0,1,.91,7c.28,4.15,2.6,8.64,5.09,12.62a25.07,25.07,0,0,1,2.46,22.5C66.51,113.24,61.7,115.05,58.71,113.17Z"/><path d="M77.59,109.74a29.71,29.71,0,0,0,6.06.34c3.68,0,7.52-4.84,6.87-10.92a31.18,31.18,0,0,0-15.2-23.73c-4.93-3.09-10.11-6.26-12.63-9.87a36.09,36.09,0,0,1,3.25,6.28c1.69,3.8,5.4,7.23,9.1,10.11a25.09,25.09,0,0,1,10,20.31C84.94,107.13,81,110.48,77.59,109.74Z"/><path d="M94.15,100.06A29.94,29.94,0,0,0,100,98.3c3.46-1.23,5.41-7.12,2.72-12.61a31.19,31.19,0,0,0-22.4-17.1c-5.69-1.21-11.65-2.42-15.24-5a36.25,36.25,0,0,1,5.2,4.78c2.88,3,7.54,5,12,6.4A25.07,25.07,0,0,1,98.61,90.47C100.18,95.09,97.65,99.58,94.15,100.06Z"/><path d="M106.41,85.29a29.14,29.14,0,0,0,4.86-3.63c2.84-2.35,2.66-8.55-1.75-12.79a31.21,31.21,0,0,0-26.9-8.4c-5.76.8-11.77,1.7-16,.56a36.27,36.27,0,0,1,6.52,2.71c3.73,1.84,8.78,2.08,13.47,1.91a25.08,25.08,0,0,1,20.73,9.11C110.37,78.57,109.53,83.65,106.41,85.29Z"/><path d="M112.88,67.23a28.67,28.67,0,0,0,3.32-5.08c1.86-3.18-.42-8.94-6-11.42A31.24,31.24,0,0,0,82,52c-5.13,2.72-10.48,5.62-14.85,6a36.31,36.31,0,0,1,7,.32c4.14.45,9-1.06,13.31-2.82A25.1,25.1,0,0,1,110.14,57C114.3,59.56,115.25,64.61,112.88,67.23Z"/><path d="M112.78,48a29.76,29.76,0,0,0,1.39-5.91c.66-3.62-3.46-8.25-9.56-8.67a31.2,31.2,0,0,0-26,10.85C74.7,48.63,70.68,53.19,66.69,55a36.9,36.9,0,0,1,6.74-2.12c4-1,8.06-4.05,11.54-7.19a25.07,25.07,0,0,1,21.74-6.34C111.49,40.34,114.11,44.77,112.78,48Z"/><path d="M106.12,30.05a28.78,28.78,0,0,0-.71-6c-.62-3.63-6.07-6.58-12-4.88A31.2,31.2,0,0,0,72.73,38.23c-2.19,5.39-4.41,11.05-7.52,14.15a36.49,36.49,0,0,1,5.61-4.29c3.45-2.32,6.19-6.57,8.38-10.71A25.08,25.08,0,0,1,97.46,24C102.28,23.25,106.26,26.52,106.12,30.05Z"/><path d="M93.71,15.41A29.29,29.29,0,0,0,91,10c-1.82-3.2-8-4.1-12.9-.49a31.22,31.22,0,0,0-13,25c-.21,5.81-.36,11.89-2.23,15.87a36.78,36.78,0,0,1,3.81-6c2.45-3.36,3.57-8.29,4.21-12.93A25.11,25.11,0,0,1,83.5,12.68C87.78,10.34,92.63,12.05,93.71,15.41Z"/><path d="M77.05,5.9a29.14,29.14,0,0,0-4.43-4.15C69.82-.64,63.75.61,60.34,5.69a31.17,31.17,0,0,0-3.61,28c1.79,5.53,3.72,11.3,3.33,15.68a36.37,36.37,0,0,1,1.54-6.9c1.16-4,.52-9-.46-13.59a25,25,0,0,1,5.38-22C69.74,3.17,74.88,3.11,77.05,5.9Z"/><path d="M58.13,2.67A28.6,28.6,0,0,0,52.55.28C49.1-1,43.83,2.25,42.36,8.19a31.19,31.19,0,0,0,6.17,27.49C52.1,40.27,55.89,45,57,49.27a36,36,0,0,1-.91-7c-.28-4.15-2.6-8.65-5.09-12.62A25.09,25.09,0,0,1,48.56,7.14C50.33,2.6,55.14.79,58.13,2.67Z"/><path d="M39.25,6.1a29,29,0,0,0-6.06-.34c-3.68,0-7.52,4.84-6.87,10.92a31.18,31.18,0,0,0,15.2,23.73c4.93,3.09,10.11,6.26,12.63,9.86A35.66,35.66,0,0,1,50.9,44c-1.69-3.8-5.4-7.23-9.1-10.12a25.08,25.08,0,0,1-10-20.3C31.9,8.7,35.8,5.35,39.25,6.1Z"/><path d="M22.69,15.78a29.23,29.23,0,0,0-5.82,1.75c-3.46,1.24-5.41,7.12-2.72,12.62a31.19,31.19,0,0,0,22.4,17.1c5.69,1.21,11.65,2.42,15.24,5a36.3,36.3,0,0,1-5.2-4.79c-2.88-3-7.54-4.95-12-6.39A25.08,25.08,0,0,1,18.23,25.36C16.66,20.74,19.19,16.26,22.69,15.78Z"/><path d="M10.43,30.54a29.2,29.2,0,0,0-4.86,3.64C2.73,36.53,2.91,42.72,7.32,47a31.21,31.21,0,0,0,26.9,8.41c5.76-.8,11.77-1.71,16-.56a36.3,36.3,0,0,1-6.52-2.72C40,50.26,34.93,50,30.24,50.19A25.09,25.09,0,0,1,9.51,41.07C6.47,37.27,7.31,32.19,10.43,30.54Z"/></g></g></svg>