<svg xmlns="http://www.w3.org/2000/svg" viewBox="0 0 107.93 107.93"><title>Recurso 55MANDALA</title><g id="Capa_2" data-name="Capa 2"><g id="Capa_1-2" data-name="Capa 1"><path d="M57.29,25.27h0c-3.14,2.57-5.57,6.37-2.14,10.8a30.66,30.66,0,0,0,11,8.48A36.57,36.57,0,0,0,86.61,35.6c7.45-6.3,9-16.77,6-21.61h0a30.82,30.82,0,0,1-21,23.51C64.65,35.26,59.55,30.5,57.29,25.27Z"/><path d="M42.5,27.45h0c-1.44,3.8-1.64,8.3,3.54,10.43a31,31,0,0,0,13.74,1.86,36.65,36.65,0,0,0,13.28-18c3.29-9.18-.64-19-5.57-21.74h0a30.83,30.83,0,0,1-6.4,30.84C53.86,32.42,47.07,30.85,42.5,27.45Z"/><path d="M30.77,36.73h0c.66,4,2.74,8,8.29,7.26a30.87,30.87,0,0,0,12.83-5.26,36.59,36.59,0,0,0,2.5-22.22C52.65,6.91,44.33.37,38.7.47h0a30.83,30.83,0,0,1,9.88,29.9C43.11,35.36,36.43,37.4,30.77,36.73Z"/><path d="M27.45,65.43h0c3.8,1.44,8.3,1.64,10.43-3.54a31,31,0,0,0,1.86-13.74,36.59,36.59,0,0,0-18-13.28c-9.18-3.29-19,.64-21.74,5.56H0a30.81,30.81,0,0,1,30.84,6.41C32.42,54.06,30.85,60.86,27.45,65.43Z"/><path d="M36.73,77.15h0c4-.66,8-2.73,7.26-8.28A30.87,30.87,0,0,0,38.73,56a36.59,36.59,0,0,0-22.22-2.5C6.91,55.28.37,63.6.47,69.23h0a30.81,30.81,0,0,1,29.9-9.88C35.36,64.82,37.4,71.49,36.73,77.15Z"/><path d="M50.64,82.66h0c3.14-2.57,5.56-6.37,2.14-10.8a30.74,30.74,0,0,0-11-8.48,36.55,36.55,0,0,0-20.49,8.94c-7.45,6.31-9,16.78-6.05,21.61h0a30.8,30.8,0,0,1,21-23.51C43.28,72.67,48.38,77.43,50.64,82.66Z"/><path d="M65.43,80.48h0c1.44-3.8,1.64-8.3-3.54-10.43a31,31,0,0,0-13.74-1.86,36.55,36.55,0,0,0-13.28,18c-3.29,9.18.64,19,5.56,21.74h0a30.81,30.81,0,0,1,6.41-30.84C54.06,75.51,60.86,77.08,65.43,80.48Z"/><path d="M77.15,71.19h0c-.66-4-2.73-8-8.28-7.26A31,31,0,0,0,56,69.19a36.63,36.63,0,0,0-2.5,22.23c1.74,9.6,10.06,16.13,15.69,16h0a30.83,30.83,0,0,1-9.88-29.91C64.82,72.57,71.49,70.53,77.15,71.19Z"/><path d="M82.66,57.29h0c-2.57-3.14-6.37-5.57-10.8-2.14a30.66,30.66,0,0,0-8.48,11,36.55,36.55,0,0,0,8.94,20.49c6.31,7.45,16.78,9,21.61,6h0a30.82,30.82,0,0,1-23.51-21C72.67,64.65,77.43,59.55,82.66,57.29Z"/><path d="M80.48,42.5h0c-3.8-1.44-8.3-1.64-10.43,3.54a31,31,0,0,0-1.86,13.74,36.61,36.61,0,0,0,18,13.28c9.18,3.29,19-.64,21.74-5.57h0a30.83,30.83,0,0,1-30.84-6.4C75.51,53.86,77.08,47.07,80.48,42.5Z"/><path d="M71.19,30.77h0c-4,.66-8,2.74-7.26,8.29a31,31,0,0,0,5.26,12.83,36.63,36.63,0,0,0,22.23,2.5c9.6-1.74,16.13-10.06,16-15.69h0a30.85,30.85,0,0,1-29.91,9.88C72.57,43.11,70.53,36.43,71.19,30.77Z"/><path d="M25.27,50.64h0c2.57,3.14,6.37,5.56,10.8,2.14a30.74,30.74,0,0,0,8.48-11A36.57,36.57,0,0,0,35.6,21.32c-6.3-7.45-16.77-9-21.61-6.05h0a30.8,30.8,0,0,1,23.51,21C35.26,43.28,30.5,48.38,25.27,50.64Z"/><path d="M30.77,36.73h0c.66,4,2.74,8,8.29,7.26a30.87,30.87,0,0,0,12.83-5.26,36.59,36.59,0,0,0,2.5-22.22C52.65,6.91,44.33.37,38.7.47h0a30.83,30.83,0,0,1,9.88,29.9C43.11,35.36,36.43,37.4,30.77,36.73Z"/></g></g></svg>