<svg xmlns="http://www.w3.org/2000/svg" viewBox="0 0 168.15 168.15"><title>Recurso 97MANDALA</title><g id="Capa_2" data-name="Capa 2"><g id="Capa_1-2" data-name="Capa 1"><path d="M168.15,78.65c0-1-17.67,1.88-45-1.82-51.3-6.93-49.65,30.36-49.65,31.36s5.28-45.88,49.65-19.47C138,97.58,168.15,79.65,168.15,78.65Z"/><path d="M154.17,37.34c-.5-.87-14.36,10.46-39.91,20.94-47.9,19.65-27.82,51.12-27.32,52S68.57,67.89,120.2,68.57C137.54,68.8,154.67,38.21,154.17,37.34Z"/><path d="M121.41,8.55c-.87-.5-7.2,16.24-24.09,38.09-31.65,41,1.46,58.18,2.33,58.69s-37.09-27.52,8-52.74C122.74,44.12,122.28,9.05,121.41,8.55Z"/><path d="M78.65,0c-1,0,1.88,17.67-1.82,45-6.93,51.31,30.36,49.66,31.36,49.66S62.31,89.41,88.72,45C97.58,30.14,79.65,0,78.65,0Z"/><path d="M37.34,14c-.87.5,10.46,14.36,20.94,39.91,19.65,47.89,51.12,27.82,52,27.32S67.89,99.58,68.57,47.94C68.8,30.61,38.21,13.48,37.34,14Z"/><path d="M8.55,46.74c-.5.86,16.24,7.2,38.09,24.09,41,31.65,58.18-1.47,58.69-2.33s-27.52,37.09-52.74-8C44.12,45.41,9.05,45.87,8.55,46.74Z"/><path d="M0,89.5c0,1,17.67-1.88,45,1.82C96.34,98.25,94.69,61,94.69,60S89.41,105.84,45,79.43C30.14,70.57,0,88.5,0,89.5Z"/><path d="M14,130.81c.5.87,14.36-10.46,39.91-21,47.89-19.65,27.82-51.11,27.32-52s18.37,42.38-33.27,41.69C30.61,99.35,13.48,129.94,14,130.81Z"/><path d="M46.74,159.6c.86.5,7.2-16.24,24.09-38.1,31.65-41-1.47-58.18-2.33-58.68s37.09,27.52-8,52.74C45.41,124,45.87,159.1,46.74,159.6Z"/><path d="M89.5,168.15c1,0-1.88-17.67,1.82-45C98.25,71.81,61,73.46,60,73.46s45.88,5.28,19.47,49.65C70.57,138,88.5,168.15,89.5,168.15Z"/><path d="M130.81,154.17c.87-.5-10.46-14.36-21-39.91-19.65-47.9-51.11-27.82-52-27.32s42.38-18.37,41.69,33.26C99.35,137.54,129.94,154.67,130.81,154.17Z"/><path d="M159.6,121.41c.5-.87-16.24-7.2-38.1-24.09-41-31.65-58.18,1.46-58.68,2.33s27.52-37.09,52.74,8C124,122.74,159.1,122.28,159.6,121.41Z"/></g></g></svg>