<svg xmlns="http://www.w3.org/2000/svg" viewBox="0 0 554.26 22.98"><defs><style>.cls-1,.cls-2{fill:none;stroke:#000;stroke-miterlimit:10;}.cls-1{stroke-width:3.41px;}.cls-2{stroke-width:2.65px;}</style></defs><title>Recurso 1MODERN ICON</title><g id="Capa_2" data-name="Capa 2"><g id="Capa_1-2" data-name="Capa 1"><line class="cls-1" x1="11.84" y1="11.49" x2="97.31" y2="11.49"/><circle cx="11.49" cy="11.49" r="11.49"/><path d="M178.74,3.37v16H100.68v-16h78.06m.1-3.37H100.58a3.26,3.26,0,0,0-3.27,3.27V19.5a3.27,3.27,0,0,0,3.27,3.27h78.26a3.28,3.28,0,0,0,3.27-3.27V3.27A3.27,3.27,0,0,0,178.84,0Z"/><line class="cls-1" x1="193.94" y1="11.49" x2="469.46" y2="11.49"/><circle cx="193.6" cy="11.49" r="11.49"/><rect x="469.46" width="84.8" height="22.77" rx="3.27" ry="3.27"/><line class="cls-2" x1="389.51" y1="1.17" x2="389.51" y2="21.81"/></g></g></svg>