<svg xmlns="http://www.w3.org/2000/svg" viewBox="0 0 102.92 102.92"><title>Recurso 73MANDALA</title><g id="Capa_2" data-name="Capa 2"><g id="Capa_1-2" data-name="Capa 1"><polygon points="89.42 50.01 91.39 51.95 102.92 51.97 101.65 47.78 76.75 47.74 78.02 51.93 90.02 51.95 89.42 50.01"/><polygon points="89.42 50.01 77.43 49.99 78.03 51.96 76.24 49.99 64.53 49.97 65.8 54.16 90.7 54.2 89.42 50.01"/><polygon points="79.33 77.28 79.34 80.04 87.49 88.21 89.55 84.35 71.97 66.72 69.91 70.58 78.38 79.07 79.33 77.28"/><polygon points="79.33 77.28 70.87 68.78 69.9 70.6 70.02 67.94 61.76 59.65 59.69 63.51 77.27 81.14 79.33 77.28"/><polygon points="52.91 89.42 50.97 91.39 50.95 102.92 55.14 101.65 55.17 76.75 50.98 78.02 50.97 90.02 52.91 89.42"/><polygon points="52.91 89.42 52.93 77.43 50.96 78.03 52.93 76.24 52.95 64.53 48.76 65.8 48.72 90.7 52.91 89.42"/><polygon points="25.64 79.33 22.88 79.34 14.71 87.49 18.57 89.55 36.2 71.97 32.34 69.91 23.85 78.38 25.64 79.33"/><polygon points="25.64 79.33 34.13 70.87 32.32 69.9 34.98 70.02 43.27 61.76 39.41 59.69 21.78 77.27 25.64 79.33"/><polygon points="13.49 52.91 11.53 50.97 0 50.95 1.27 55.14 26.17 55.17 24.9 50.98 12.9 50.97 13.49 52.91"/><polygon points="13.49 52.91 25.49 52.93 24.89 50.96 26.68 52.93 38.39 52.95 37.12 48.76 12.22 48.72 13.49 52.91"/><polygon points="23.59 25.64 23.58 22.88 15.43 14.71 13.37 18.57 30.95 36.2 33.01 32.34 24.55 23.85 23.59 25.64"/><polygon points="23.59 25.64 32.05 34.13 33.02 32.32 32.9 34.98 41.16 43.27 43.23 39.41 25.65 21.78 23.59 25.64"/><polygon points="50.01 13.49 51.95 11.53 51.97 0 47.78 1.27 47.74 26.17 51.93 24.9 51.95 12.9 50.01 13.49"/><polygon points="50.01 13.49 49.99 25.49 51.96 24.89 49.99 26.68 49.97 38.39 54.16 37.12 54.2 12.22 50.01 13.49"/><polygon points="77.28 23.59 80.04 23.58 88.21 15.43 84.35 13.37 66.72 30.95 70.58 33.01 79.07 24.55 77.28 23.59"/><polygon points="77.28 23.59 68.78 32.05 70.6 33.02 67.94 32.9 59.65 41.16 63.51 43.23 81.14 25.65 77.28 23.59"/></g></g></svg>