<svg xmlns="http://www.w3.org/2000/svg" viewBox="0 0 119.07 119.07"><defs><style>.cls-1{fill:#020100;}</style></defs><title>Recurso 13MANDALA</title><g id="Capa_2" data-name="Capa 2"><g id="Capa_1-2" data-name="Capa 1"><path class="cls-1" d="M100.66,15.81C95.56,35,85.46,38.41,78.35,38.17,70.59,37.9,73.23,58.77,66,61.71c0,0-20.88,4.29-17.66.19C59.54,47.73,89.33,46.11,89.33,46.11a14,14,0,0,0,14-14.9C102.7,21.63,101.75,11.69,100.66,15.81Z"/><path class="cls-1" d="M73.29,1.1c5.17,19.15-1.87,27.18-8.15,30.52C58.29,35.27,71,52,66.26,58.16c0,0-15.94,14.16-15.2,9C53.63,49.31,78.63,33,78.63,33a14,14,0,0,0,4.65-19.89C78,5.13,72.17-3,73.29,1.1Z"/><path class="cls-1" d="M42.23,2.06c14.05,14,12,24.46,8.21,30.5C46.33,39.14,65.72,47.3,64.67,55c0,0-6.72,20.23-8.66,15.39C49.31,53.63,62.81,27,62.81,27A14,14,0,0,0,56.89,7.46C48.29,3.21,39.21-.95,42.23,2.06Z"/><path class="cls-1" d="M15.81,18.41c19.16,5.1,22.6,15.2,22.36,22.31C37.9,48.48,58.77,45.85,61.71,53c0,0,4.29,20.88.19,17.66C47.73,59.54,46.11,29.74,46.11,29.74a14,14,0,0,0-14.9-14C21.63,16.38,11.69,17.32,15.81,18.41Z"/><path class="cls-1" d="M1.1,45.79c19.15-5.17,27.18,1.86,30.52,8.14,3.65,6.85,20.41-5.86,26.54-1.11,0,0,14.16,15.93,9,15.19C49.31,65.44,33,40.45,33,40.45a14,14,0,0,0-19.89-4.66C5.13,41.11-3,46.9,1.1,45.79Z"/><path class="cls-1" d="M2.06,76.85c14-14.06,24.46-12,30.5-8.21C39.14,72.75,47.3,53.36,55,54.4c0,0,20.23,6.73,15.39,8.66C53.63,69.76,27,56.27,27,56.27A14,14,0,0,0,7.46,62.18C3.21,70.79-.95,79.86,2.06,76.85Z"/><path class="cls-1" d="M18.41,103.27c5.1-19.17,15.2-22.6,22.31-22.36,7.76.26,5.13-20.61,12.31-23.54,0,0,20.88-4.3,17.66-.2C59.54,71.35,29.74,73,29.74,73a14,14,0,0,0-14,14.91C16.38,97.44,17.32,107.38,18.41,103.27Z"/><path class="cls-1" d="M45.79,118c-5.17-19.15,1.86-27.17,8.14-30.52,6.85-3.65-5.86-20.4-1.11-26.54,0,0,15.93-14.16,15.19-9C65.44,69.76,40.45,86.06,40.45,86.06A14,14,0,0,0,35.79,106C41.11,113.94,46.9,122.08,45.79,118Z"/><path class="cls-1" d="M76.85,117c-14.06-14-12-24.47-8.21-30.51,4.11-6.58-15.28-14.73-14.24-22.42,0,0,6.73-20.23,8.66-15.39,6.7,16.74-6.79,43.35-6.79,43.35a14,14,0,0,0,5.91,19.56C70.79,115.87,79.86,120,76.85,117Z"/><path class="cls-1" d="M103.27,100.66c-19.17-5.1-22.6-15.2-22.36-22.31C81.17,70.59,60.3,73.23,57.37,66c0,0-4.3-20.88-.2-17.66C71.35,59.54,73,89.33,73,89.33a14,14,0,0,0,14.91,14C97.44,102.7,107.38,101.75,103.27,100.66Z"/><path class="cls-1" d="M118,73.29c-19.15,5.17-27.17-1.87-30.52-8.15C83.8,58.29,67.05,71,60.91,66.26c0,0-14.16-15.94-9-15.2,17.85,2.57,34.15,27.57,34.15,27.57A14,14,0,0,0,106,83.28C113.94,78,122.08,72.17,118,73.29Z"/><path class="cls-1" d="M117,42.23c-14,14.05-24.47,12-30.51,8.21-6.58-4.11-14.73,15.28-22.42,14.23,0,0-20.23-6.72-15.39-8.66,16.74-6.7,43.35,6.8,43.35,6.8a14,14,0,0,0,19.56-5.92C115.87,48.29,120,39.21,117,42.23Z"/></g></g></svg>