<svg xmlns="http://www.w3.org/2000/svg" viewBox="0 0 129.55 129.55"><title>Recurso 87MANDALA</title><g id="Capa_2" data-name="Capa 2"><g id="Capa_1-2" data-name="Capa 1"><path d="M79.12,68.49a35.78,35.78,0,0,0,3.36,6.65c2.24,3.93,9.76,5,15.83.61A38.31,38.31,0,0,0,114.2,45c.25-7.13.44-14.59,2.73-19.47a44.74,44.74,0,0,1-4.67,7.31c-3,4.12-4.38,10.17-5.17,15.87a30.78,30.78,0,0,1-15.43,23.1C86.41,74.71,80.45,72.62,79.12,68.49Z"/><path d="M79.06,60.82A35.87,35.87,0,0,0,85.3,64.9c3.89,2.28,11-.52,14-7.38A38.31,38.31,0,0,0,97.71,23c-3.35-6.31-6.91-12.86-7.37-18.23a44,44,0,0,1-.4,8.66c-.54,5.07,1.3,11,3.46,16.33a30.75,30.75,0,0,1-1.81,27.72C88.48,62.57,82.27,63.73,79.06,60.82Z"/><path d="M75.17,54.21a36,36,0,0,0,7.44.41c4.51,0,9.23-5.93,8.44-13.4A38.32,38.32,0,0,0,72.39,12.1C66.34,8.32,60,4.42,56.89,0a43.44,43.44,0,0,1,4,7.7C63,12.37,67.5,16.57,72,20.11A30.77,30.77,0,0,1,84.34,45C84.2,51,79.41,55.12,75.17,54.21Z"/><path d="M68.49,50.43a36.41,36.41,0,0,0,6.65-3.36c3.93-2.24,5-9.76.61-15.83A38.31,38.31,0,0,0,45,15.35c-7.13-.25-14.59-.45-19.47-2.73a44.08,44.08,0,0,1,7.31,4.67C37,20.3,43,21.67,48.74,22.46a30.78,30.78,0,0,1,23.1,15.43C74.71,43.14,72.62,49.1,68.49,50.43Z"/><path d="M60.82,50.49a35.87,35.87,0,0,0,4.08-6.24c2.28-3.89-.52-11-7.38-14A38.27,38.27,0,0,0,23,31.84c-6.31,3.35-12.86,6.91-18.23,7.37a44.84,44.84,0,0,1,8.66.39c5.07.55,11-1.29,16.33-3.45A30.75,30.75,0,0,1,57.45,38C62.57,41.07,63.73,47.28,60.82,50.49Z"/><path d="M54.21,54.38a36,36,0,0,0,.41-7.44c0-4.51-5.93-9.24-13.4-8.44A38.32,38.32,0,0,0,12.1,57.16C8.32,63.21,4.42,69.57,0,72.66a44.17,44.17,0,0,1,7.7-4C12.37,66.6,16.57,62,20.11,57.5A30.79,30.79,0,0,1,45,45.21C51,45.35,55.12,50.14,54.21,54.38Z"/><path d="M50.43,61.06a36.41,36.41,0,0,0-3.36-6.65c-2.24-3.93-9.76-5-15.83-.61A38.3,38.3,0,0,0,15.35,84.51C15.1,91.65,14.9,99.1,12.62,104a43.67,43.67,0,0,1,4.67-7.31c3-4.12,4.38-10.17,5.17-15.87a30.77,30.77,0,0,1,15.43-23.1C43.14,54.83,49.1,56.93,50.43,61.06Z"/><path d="M50.49,68.73a35.87,35.87,0,0,0-6.24-4.08c-3.89-2.28-11,.52-14,7.38a38.28,38.28,0,0,0,1.59,34.55c3.35,6.3,6.91,12.86,7.37,18.23a44.8,44.8,0,0,1,.39-8.66c.55-5.08-1.29-11-3.45-16.33A30.77,30.77,0,0,1,38,72.09C41.07,67,47.28,65.82,50.49,68.73Z"/><path d="M54.38,75.34a36,36,0,0,0-7.44-.41c-4.51,0-9.24,5.93-8.44,13.39a38.32,38.32,0,0,0,18.66,29.13c6.05,3.78,12.41,7.68,15.5,12.1a44.17,44.17,0,0,1-4-7.7C66.6,117.18,62,113,57.5,109.44A30.79,30.79,0,0,1,45.21,84.52C45.35,78.54,50.14,74.43,54.38,75.34Z"/><path d="M61.06,79.12a35.78,35.78,0,0,0-6.65,3.36c-3.93,2.24-5,9.76-.61,15.83A38.3,38.3,0,0,0,84.51,114.2c7.14.25,14.59.44,19.48,2.73a44.31,44.31,0,0,1-7.31-4.67c-4.12-3-10.17-4.38-15.87-5.17a30.77,30.77,0,0,1-23.1-15.43C54.83,86.41,56.93,80.45,61.06,79.12Z"/><path d="M68.73,79.06a35.87,35.87,0,0,0-4.08,6.24c-2.28,3.89.52,11,7.38,14a38.31,38.31,0,0,0,34.55-1.59c6.3-3.35,12.86-6.91,18.23-7.37a44,44,0,0,1-8.66-.4c-5.08-.54-11,1.3-16.33,3.46a30.77,30.77,0,0,1-27.73-1.81C67,88.48,65.82,82.27,68.73,79.06Z"/><path d="M75.34,75.17a36,36,0,0,0-.41,7.44c0,4.51,5.93,9.23,13.39,8.44a38.32,38.32,0,0,0,29.13-18.66c3.78-6,7.68-12.41,12.1-15.5a43.44,43.44,0,0,1-7.7,4C117.18,63,113,67.5,109.44,72a30.77,30.77,0,0,1-24.92,12.3C78.54,84.2,74.43,79.41,75.34,75.17Z"/></g></g></svg>